<?xml version="1.0" encoding="UTF-8" standalone="no"?>
<!DOCTYPE svg PUBLIC "-//W3C//DTD SVG 1.1//EN"
 "http://www.w3.org/Graphics/SVG/1.1/DTD/svg11.dtd">
<!-- Generated by graphviz version 2.42.4 (0)
 -->
<!-- Pages: 1 -->
<svg width="1247pt" height="131pt"
 viewBox="0.00 0.00 1247.50 131.00" xmlns="http://www.w3.org/2000/svg" xmlns:xlink="http://www.w3.org/1999/xlink">
<g id="graph0" class="graph" transform="scale(1 1) rotate(0) translate(4 127)">
<polygon fill="white" stroke="transparent" points="-4,4 -4,-127 1243.5,-127 1243.5,4 -4,4"/>
<!-- 0 -->
<g id="node1" class="node">
<title>0</title>
<ellipse fill="none" stroke="black" cx="575.5" cy="-105" rx="42.79" ry="18"/>
<text text-anchor="middle" x="575.5" y="-101.3" font-family="Times,serif" font-size="14.00">Miguel</text>
</g>
<!-- 1 -->
<g id="node2" class="node">
<title>1</title>
<ellipse fill="none" stroke="black" cx="45.5" cy="-18" rx="45.49" ry="18"/>
<text text-anchor="middle" x="45.5" y="-14.3" font-family="Times,serif" font-size="14.00">Valente</text>
</g>
<!-- 0&#45;&gt;1 -->
<g id="edge1" class="edge">
<title>0&#45;&gt;1</title>
<path fill="none" stroke="black" d="M532.37,-104.1C458.54,-103.41 303.56,-98.22 176.5,-69 143.89,-61.5 108.53,-47.64 82.78,-36.41"/>
<polygon fill="black" stroke="black" points="83.97,-33.11 73.41,-32.26 81.13,-39.51 83.97,-33.11"/>
<text text-anchor="middle" x="190" y="-57.8" font-family="Times,serif" font-size="14.00">dep</text>
</g>
<!-- 2 -->
<g id="node3" class="node">
<title>2</title>
<ellipse fill="none" stroke="black" cx="135.5" cy="-18" rx="27" ry="18"/>
<text text-anchor="middle" x="135.5" y="-14.3" font-family="Times,serif" font-size="14.00">,</text>
</g>
<!-- 0&#45;&gt;2 -->
<g id="edge2" class="edge">
<title>0&#45;&gt;2</title>
<path fill="none" stroke="black" d="M532.7,-103.46C469.53,-101.76 348.06,-95.04 248.5,-69 218.71,-61.21 186.81,-46.44 164.53,-34.97"/>
<polygon fill="black" stroke="black" points="166.08,-31.83 155.6,-30.28 162.83,-38.03 166.08,-31.83"/>
<text text-anchor="middle" x="262" y="-57.8" font-family="Times,serif" font-size="14.00">dep</text>
</g>
<!-- 3 -->
<g id="node4" class="node">
<title>3</title>
<ellipse fill="none" stroke="black" cx="207.5" cy="-18" rx="27" ry="18"/>
<text text-anchor="middle" x="207.5" y="-14.3" font-family="Times,serif" font-size="14.00">por</text>
</g>
<!-- 0&#45;&gt;3 -->
<g id="edge3" class="edge">
<title>0&#45;&gt;3</title>
<path fill="none" stroke="black" d="M533.28,-101.68C482.13,-98.08 393.7,-89.31 320.5,-69 290.83,-60.77 258.92,-46.06 236.6,-34.71"/>
<polygon fill="black" stroke="black" points="238.14,-31.57 227.65,-30.09 234.93,-37.79 238.14,-31.57"/>
<text text-anchor="middle" x="334" y="-57.8" font-family="Times,serif" font-size="14.00">dep</text>
</g>
<!-- 4 -->
<g id="node5" class="node">
<title>4</title>
<ellipse fill="none" stroke="black" cx="279.5" cy="-18" rx="27" ry="18"/>
<text text-anchor="middle" x="279.5" y="-14.3" font-family="Times,serif" font-size="14.00">seu</text>
</g>
<!-- 0&#45;&gt;4 -->
<g id="edge4" class="edge">
<title>0&#45;&gt;4</title>
<path fill="none" stroke="black" d="M534.45,-99.31C495.88,-94.22 436.87,-84.65 387.5,-69 353.94,-58.37 347.41,-50.85 315.5,-36 313.71,-35.17 311.88,-34.31 310.03,-33.45"/>
<polygon fill="black" stroke="black" points="311.34,-30.2 300.8,-29.11 308.36,-36.53 311.34,-30.2"/>
<text text-anchor="middle" x="401" y="-57.8" font-family="Times,serif" font-size="14.00">dep</text>
</g>
<!-- 5 -->
<g id="node6" class="node">
<title>5</title>
<ellipse fill="none" stroke="black" cx="355.5" cy="-18" rx="30.59" ry="18"/>
<text text-anchor="middle" x="355.5" y="-14.3" font-family="Times,serif" font-size="14.00">lado</text>
</g>
<!-- 0&#45;&gt;5 -->
<g id="edge5" class="edge">
<title>0&#45;&gt;5</title>
<path fill="none" stroke="black" d="M538.41,-95.95C512.93,-89.88 478.59,-80.62 449.5,-69 426.98,-60.01 402.87,-47.11 384.7,-36.67"/>
<polygon fill="black" stroke="black" points="386.18,-33.48 375.78,-31.46 382.65,-39.52 386.18,-33.48"/>
<text text-anchor="middle" x="463" y="-57.8" font-family="Times,serif" font-size="14.00">dep</text>
</g>
<!-- 6 -->
<g id="node7" class="node">
<title>6</title>
<ellipse fill="none" stroke="black" cx="431.5" cy="-18" rx="27" ry="18"/>
<text text-anchor="middle" x="431.5" y="-14.3" font-family="Times,serif" font-size="14.00">,</text>
</g>
<!-- 0&#45;&gt;6 -->
<g id="edge6" class="edge">
<title>0&#45;&gt;6</title>
<path fill="none" stroke="black" d="M546.42,-91.7C532.52,-85.45 515.83,-77.42 501.5,-69 485.86,-59.82 469.31,-48.1 456.23,-38.32"/>
<polygon fill="black" stroke="black" points="458.27,-35.47 448.18,-32.21 454.04,-41.04 458.27,-35.47"/>
<text text-anchor="middle" x="515" y="-57.8" font-family="Times,serif" font-size="14.00">dep</text>
</g>
<!-- 7 -->
<g id="node8" class="node">
<title>7</title>
<ellipse fill="none" stroke="black" cx="503.5" cy="-18" rx="27" ry="18"/>
<text text-anchor="middle" x="503.5" y="-14.3" font-family="Times,serif" font-size="14.00">foi</text>
</g>
<!-- 0&#45;&gt;7 -->
<g id="edge7" class="edge">
<title>0&#45;&gt;7</title>
<path fill="none" stroke="black" d="M560.86,-87.73C555.64,-81.87 549.76,-75.18 544.5,-69 537.18,-60.41 529.29,-50.86 522.4,-42.43"/>
<polygon fill="black" stroke="black" points="524.93,-39.99 515.91,-34.44 519.5,-44.41 524.93,-39.99"/>
<text text-anchor="middle" x="558" y="-57.8" font-family="Times,serif" font-size="14.00">dep</text>
</g>
<!-- 8 -->
<g id="node9" class="node">
<title>8</title>
<ellipse fill="none" stroke="black" cx="575.5" cy="-18" rx="27" ry="18"/>
<text text-anchor="middle" x="575.5" y="-14.3" font-family="Times,serif" font-size="14.00">o</text>
</g>
<!-- 0&#45;&gt;8 -->
<g id="edge8" class="edge">
<title>0&#45;&gt;8</title>
<path fill="none" stroke="black" d="M575.5,-86.8C575.5,-75.16 575.5,-59.55 575.5,-46.24"/>
<polygon fill="black" stroke="black" points="579,-46.18 575.5,-36.18 572,-46.18 579,-46.18"/>
<text text-anchor="middle" x="589" y="-57.8" font-family="Times,serif" font-size="14.00">dep</text>
</g>
<!-- 9 -->
<g id="node10" class="node">
<title>9</title>
<ellipse fill="none" stroke="black" cx="673.5" cy="-18" rx="53.09" ry="18"/>
<text text-anchor="middle" x="673.5" y="-14.3" font-family="Times,serif" font-size="14.00">vencedor</text>
</g>
<!-- 0&#45;&gt;9 -->
<g id="edge9" class="edge">
<title>0&#45;&gt;9</title>
<path fill="none" stroke="black" d="M593.47,-88.41C608.48,-75.39 630.08,-56.66 647.06,-41.93"/>
<polygon fill="black" stroke="black" points="649.71,-44.27 654.97,-35.07 645.12,-38.98 649.71,-44.27"/>
<text text-anchor="middle" x="644" y="-57.8" font-family="Times,serif" font-size="14.00">dep</text>
</g>
<!-- 10 -->
<g id="node11" class="node">
<title>10</title>
<ellipse fill="none" stroke="black" cx="771.5" cy="-18" rx="27" ry="18"/>
<text text-anchor="middle" x="771.5" y="-14.3" font-family="Times,serif" font-size="14.00">em</text>
</g>
<!-- 0&#45;&gt;10 -->
<g id="edge10" class="edge">
<title>0&#45;&gt;10</title>
<path fill="none" stroke="black" d="M605.45,-92.09C622.02,-85.43 642.96,-76.9 661.5,-69 694.62,-54.88 702.77,-51.02 735.5,-36 737.29,-35.18 739.12,-34.33 740.98,-33.47"/>
<polygon fill="black" stroke="black" points="742.64,-36.55 750.21,-29.14 739.67,-30.21 742.64,-36.55"/>
<text text-anchor="middle" x="709" y="-57.8" font-family="Times,serif" font-size="14.00">dep</text>
</g>
<!-- 11 -->
<g id="node12" class="node">
<title>11</title>
<ellipse fill="none" stroke="black" cx="843.5" cy="-18" rx="27" ry="18"/>
<text text-anchor="middle" x="843.5" y="-14.3" font-family="Times,serif" font-size="14.00">a</text>
</g>
<!-- 0&#45;&gt;11 -->
<g id="edge11" class="edge">
<title>0&#45;&gt;11</title>
<path fill="none" stroke="black" d="M613.8,-96.88C644.6,-90.73 688.79,-80.97 726.5,-69 763.55,-57.24 771.91,-51.64 807.5,-36 809.3,-35.21 811.15,-34.38 813.01,-33.54"/>
<polygon fill="black" stroke="black" points="814.65,-36.63 822.26,-29.26 811.72,-30.28 814.65,-36.63"/>
<text text-anchor="middle" x="780" y="-57.8" font-family="Times,serif" font-size="14.00">dep</text>
</g>
<!-- 12 -->
<g id="node13" class="node">
<title>12</title>
<ellipse fill="none" stroke="black" cx="927.5" cy="-18" rx="38.99" ry="18"/>
<text text-anchor="middle" x="927.5" y="-14.3" font-family="Times,serif" font-size="14.00">classe</text>
</g>
<!-- 0&#45;&gt;12 -->
<g id="edge12" class="edge">
<title>0&#45;&gt;12</title>
<path fill="none" stroke="black" d="M616.95,-100.1C661.96,-95.27 735.69,-85.56 797.5,-69 830.01,-60.29 865.61,-46.26 891.32,-35.28"/>
<polygon fill="black" stroke="black" points="892.87,-38.42 900.66,-31.24 890.09,-32 892.87,-38.42"/>
<text text-anchor="middle" x="855" y="-57.8" font-family="Times,serif" font-size="14.00">dep</text>
</g>
<!-- 13 -->
<g id="node14" class="node">
<title>13</title>
<ellipse fill="none" stroke="black" cx="1020.5" cy="-18" rx="36.29" ry="18"/>
<text text-anchor="middle" x="1020.5" y="-14.3" font-family="Times,serif" font-size="14.00">Sport</text>
</g>
<!-- 0&#45;&gt;13 -->
<g id="edge13" class="edge">
<title>0&#45;&gt;13</title>
<path fill="none" stroke="black" d="M617.72,-101.59C675.7,-97.71 782.94,-88.43 872.5,-69 911.43,-60.55 954.41,-45.34 983.98,-33.9"/>
<polygon fill="black" stroke="black" points="985.43,-37.09 993.46,-30.18 982.88,-30.57 985.43,-37.09"/>
<text text-anchor="middle" x="940" y="-57.8" font-family="Times,serif" font-size="14.00">dep</text>
</g>
<!-- 14 -->
<g id="node15" class="node">
<title>14</title>
<ellipse fill="none" stroke="black" cx="1121.5" cy="-18" rx="46.29" ry="18"/>
<text text-anchor="middle" x="1121.5" y="-14.3" font-family="Times,serif" font-size="14.00">Limited</text>
</g>
<!-- 0&#45;&gt;14 -->
<g id="edge14" class="edge">
<title>0&#45;&gt;14</title>
<path fill="none" stroke="black" d="M618.3,-102.93C689.37,-100.51 835.94,-92.84 957.5,-69 999.85,-60.69 1046.84,-45.76 1079.62,-34.36"/>
<polygon fill="black" stroke="black" points="1081.05,-37.57 1089.32,-30.95 1078.73,-30.97 1081.05,-37.57"/>
<text text-anchor="middle" x="1031" y="-57.8" font-family="Times,serif" font-size="14.00">dep</text>
</g>
<!-- 15 -->
<g id="node16" class="node">
<title>15</title>
<ellipse fill="none" stroke="black" cx="1212.5" cy="-18" rx="27" ry="18"/>
<text text-anchor="middle" x="1212.5" y="-14.3" font-family="Times,serif" font-size="14.00">.</text>
</g>
<!-- 0&#45;&gt;15 -->
<g id="edge15" class="edge">
<title>0&#45;&gt;15</title>
<path fill="none" stroke="black" d="M618.52,-103.38C701.98,-101.61 891.48,-94.84 1048.5,-69 1106.47,-59.46 1121.24,-55.97 1176.5,-36 1178.35,-35.33 1180.23,-34.6 1182.12,-33.83"/>
<polygon fill="black" stroke="black" points="1183.7,-36.96 1191.46,-29.75 1180.89,-30.55 1183.7,-36.96"/>
<text text-anchor="middle" x="1136" y="-57.8" font-family="Times,serif" font-size="14.00">dep</text>
</g>
</g>
</svg>
