<?xml version="1.0" encoding="UTF-8" standalone="no"?>
<!DOCTYPE svg PUBLIC "-//W3C//DTD SVG 1.1//EN"
 "http://www.w3.org/Graphics/SVG/1.1/DTD/svg11.dtd">
<!-- Generated by graphviz version 2.42.4 (0)
 -->
<!-- Pages: 1 -->
<svg width="1229pt" height="131pt"
 viewBox="0.00 0.00 1229.00 131.00" xmlns="http://www.w3.org/2000/svg" xmlns:xlink="http://www.w3.org/1999/xlink">
<g id="graph0" class="graph" transform="scale(1 1) rotate(0) translate(4 127)">
<polygon fill="white" stroke="transparent" points="-4,4 -4,-127 1225,-127 1225,4 -4,4"/>
<!-- 0 -->
<g id="node1" class="node">
<title>0</title>
<ellipse fill="none" stroke="black" cx="633" cy="-105" rx="27" ry="18"/>
<text text-anchor="middle" x="633" y="-101.3" font-family="Times,serif" font-size="14.00">«</text>
</g>
<!-- 1 -->
<g id="node2" class="node">
<title>1</title>
<ellipse fill="none" stroke="black" cx="27" cy="-18" rx="27" ry="18"/>
<text text-anchor="middle" x="27" y="-14.3" font-family="Times,serif" font-size="14.00">Só</text>
</g>
<!-- 0&#45;&gt;1 -->
<g id="edge1" class="edge">
<title>0&#45;&gt;1</title>
<path fill="none" stroke="black" d="M605.79,-104.21C533.36,-104.3 330.1,-101.4 165,-69 118.24,-59.82 107.3,-53.54 63,-36 61.17,-35.27 59.3,-34.5 57.42,-33.7"/>
<polygon fill="black" stroke="black" points="58.68,-30.42 48.12,-29.53 55.81,-36.81 58.68,-30.42"/>
<text text-anchor="middle" x="178.5" y="-57.8" font-family="Times,serif" font-size="14.00">dep</text>
</g>
<!-- 2 -->
<g id="node3" class="node">
<title>2</title>
<ellipse fill="none" stroke="black" cx="101" cy="-18" rx="28.7" ry="18"/>
<text text-anchor="middle" x="101" y="-14.3" font-family="Times,serif" font-size="14.00">tem</text>
</g>
<!-- 0&#45;&gt;2 -->
<g id="edge2" class="edge">
<title>0&#45;&gt;2</title>
<path fill="none" stroke="black" d="M605.81,-102.66C545.65,-99.41 396.87,-89.79 274,-69 212.67,-58.62 196.75,-56.41 138,-36 136.1,-35.34 134.16,-34.61 132.22,-33.85"/>
<polygon fill="black" stroke="black" points="133.2,-30.46 122.63,-29.78 130.47,-36.91 133.2,-30.46"/>
<text text-anchor="middle" x="287.5" y="-57.8" font-family="Times,serif" font-size="14.00">dep</text>
</g>
<!-- 3 -->
<g id="node4" class="node">
<title>3</title>
<ellipse fill="none" stroke="black" cx="205" cy="-18" rx="57.69" ry="18"/>
<text text-anchor="middle" x="205" y="-14.3" font-family="Times,serif" font-size="14.00">campanha</text>
</g>
<!-- 0&#45;&gt;3 -->
<g id="edge3" class="edge">
<title>0&#45;&gt;3</title>
<path fill="none" stroke="black" d="M606.25,-102.39C556.34,-98.99 445.84,-89.65 355,-69 318.57,-60.72 278.47,-47.11 248.91,-36.18"/>
<polygon fill="black" stroke="black" points="249.9,-32.81 239.31,-32.58 247.44,-39.37 249.9,-32.81"/>
<text text-anchor="middle" x="368.5" y="-57.8" font-family="Times,serif" font-size="14.00">dep</text>
</g>
<!-- 4 -->
<g id="node5" class="node">
<title>4</title>
<ellipse fill="none" stroke="black" cx="308" cy="-18" rx="27" ry="18"/>
<text text-anchor="middle" x="308" y="-14.3" font-family="Times,serif" font-size="14.00">em</text>
</g>
<!-- 0&#45;&gt;4 -->
<g id="edge4" class="edge">
<title>0&#45;&gt;4</title>
<path fill="none" stroke="black" d="M606.55,-101.18C567.29,-96.61 491.51,-86.31 429,-69 389.94,-58.19 381.23,-52 344,-36 342.19,-35.22 340.34,-34.41 338.47,-33.57"/>
<polygon fill="black" stroke="black" points="339.76,-30.31 329.21,-29.32 336.84,-36.67 339.76,-30.31"/>
<text text-anchor="middle" x="442.5" y="-57.8" font-family="Times,serif" font-size="14.00">dep</text>
</g>
<!-- 5 -->
<g id="node6" class="node">
<title>5</title>
<ellipse fill="none" stroke="black" cx="380" cy="-18" rx="27" ry="18"/>
<text text-anchor="middle" x="380" y="-14.3" font-family="Times,serif" font-size="14.00">os</text>
</g>
<!-- 0&#45;&gt;5 -->
<g id="edge5" class="edge">
<title>0&#45;&gt;5</title>
<path fill="none" stroke="black" d="M607.66,-98.07C581.1,-91.66 538.27,-80.77 502,-69 463.06,-56.37 453.65,-52.09 416,-36 414.19,-35.23 412.33,-34.41 410.47,-33.58"/>
<polygon fill="black" stroke="black" points="411.75,-30.32 401.2,-29.33 408.83,-36.68 411.75,-30.32"/>
<text text-anchor="middle" x="515.5" y="-57.8" font-family="Times,serif" font-size="14.00">dep</text>
</g>
<!-- 6 -->
<g id="node7" class="node">
<title>6</title>
<ellipse fill="none" stroke="black" cx="470" cy="-18" rx="45.49" ry="18"/>
<text text-anchor="middle" x="470" y="-14.3" font-family="Times,serif" font-size="14.00">lugares</text>
</g>
<!-- 0&#45;&gt;6 -->
<g id="edge6" class="edge">
<title>0&#45;&gt;6</title>
<path fill="none" stroke="black" d="M611.43,-94.07C596.81,-87.24 577.11,-77.84 560,-69 541.11,-59.24 520.34,-47.75 503.52,-38.25"/>
<polygon fill="black" stroke="black" points="505.04,-35.09 494.61,-33.2 501.59,-41.18 505.04,-35.09"/>
<text text-anchor="middle" x="573.5" y="-57.8" font-family="Times,serif" font-size="14.00">dep</text>
</g>
<!-- 7 -->
<g id="node8" class="node">
<title>7</title>
<ellipse fill="none" stroke="black" cx="560" cy="-18" rx="27" ry="18"/>
<text text-anchor="middle" x="560" y="-14.3" font-family="Times,serif" font-size="14.00">em</text>
</g>
<!-- 0&#45;&gt;7 -->
<g id="edge7" class="edge">
<title>0&#45;&gt;7</title>
<path fill="none" stroke="black" d="M619.64,-89.09C614.14,-82.9 607.73,-75.64 602,-69 594.48,-60.28 586.32,-50.61 579.21,-42.12"/>
<polygon fill="black" stroke="black" points="581.86,-39.84 572.76,-34.41 576.49,-44.33 581.86,-39.84"/>
<text text-anchor="middle" x="615.5" y="-57.8" font-family="Times,serif" font-size="14.00">dep</text>
</g>
<!-- 8 -->
<g id="node9" class="node">
<title>8</title>
<ellipse fill="none" stroke="black" cx="633" cy="-18" rx="27.9" ry="18"/>
<text text-anchor="middle" x="633" y="-14.3" font-family="Times,serif" font-size="14.00">que</text>
</g>
<!-- 0&#45;&gt;8 -->
<g id="edge8" class="edge">
<title>0&#45;&gt;8</title>
<path fill="none" stroke="black" d="M633,-86.8C633,-75.16 633,-59.55 633,-46.24"/>
<polygon fill="black" stroke="black" points="636.5,-46.18 633,-36.18 629.5,-46.18 636.5,-46.18"/>
<text text-anchor="middle" x="646.5" y="-57.8" font-family="Times,serif" font-size="14.00">dep</text>
</g>
<!-- 9 -->
<g id="node10" class="node">
<title>9</title>
<ellipse fill="none" stroke="black" cx="706" cy="-18" rx="27" ry="18"/>
<text text-anchor="middle" x="706" y="-14.3" font-family="Times,serif" font-size="14.00">eu</text>
</g>
<!-- 0&#45;&gt;9 -->
<g id="edge9" class="edge">
<title>0&#45;&gt;9</title>
<path fill="none" stroke="black" d="M646.36,-89.09C651.86,-82.9 658.27,-75.64 664,-69 671.52,-60.28 679.68,-50.61 686.79,-42.12"/>
<polygon fill="black" stroke="black" points="689.51,-44.33 693.24,-34.41 684.14,-39.84 689.51,-44.33"/>
<text text-anchor="middle" x="689.5" y="-57.8" font-family="Times,serif" font-size="14.00">dep</text>
</g>
<!-- 10 -->
<g id="node11" class="node">
<title>10</title>
<ellipse fill="none" stroke="black" cx="778" cy="-18" rx="27" ry="18"/>
<text text-anchor="middle" x="778" y="-14.3" font-family="Times,serif" font-size="14.00">e</text>
</g>
<!-- 0&#45;&gt;10 -->
<g id="edge10" class="edge">
<title>0&#45;&gt;10</title>
<path fill="none" stroke="black" d="M655.2,-94.7C670.17,-88.14 690.18,-78.8 707,-69 722.81,-59.78 739.6,-48.06 752.87,-38.29"/>
<polygon fill="black" stroke="black" points="755.12,-40.97 761.05,-32.19 750.94,-35.36 755.12,-40.97"/>
<text text-anchor="middle" x="743.5" y="-57.8" font-family="Times,serif" font-size="14.00">dep</text>
</g>
<!-- 11 -->
<g id="node12" class="node">
<title>11</title>
<ellipse fill="none" stroke="black" cx="850" cy="-18" rx="27" ry="18"/>
<text text-anchor="middle" x="850" y="-14.3" font-family="Times,serif" font-size="14.00">o</text>
</g>
<!-- 0&#45;&gt;11 -->
<g id="edge11" class="edge">
<title>0&#45;&gt;11</title>
<path fill="none" stroke="black" d="M658.62,-98.93C684.91,-93.29 726.69,-83.08 761,-69 782.44,-60.2 805.2,-47.34 822.34,-36.87"/>
<polygon fill="black" stroke="black" points="824.59,-39.59 831.24,-31.34 820.9,-33.65 824.59,-39.59"/>
<text text-anchor="middle" x="805.5" y="-57.8" font-family="Times,serif" font-size="14.00">dep</text>
</g>
<!-- 12 -->
<g id="node13" class="node">
<title>12</title>
<ellipse fill="none" stroke="black" cx="937" cy="-18" rx="41.69" ry="18"/>
<text text-anchor="middle" x="937" y="-14.3" font-family="Times,serif" font-size="14.00">Aloizio</text>
</g>
<!-- 0&#45;&gt;12 -->
<g id="edge12" class="edge">
<title>0&#45;&gt;12</title>
<path fill="none" stroke="black" d="M659.58,-101.07C696.75,-96.54 766.08,-86.47 823,-69 850.48,-60.57 880.18,-47.4 902.37,-36.7"/>
<polygon fill="black" stroke="black" points="903.95,-39.82 911.39,-32.28 900.87,-33.53 903.95,-39.82"/>
<text text-anchor="middle" x="875.5" y="-57.8" font-family="Times,serif" font-size="14.00">dep</text>
</g>
<!-- 13 -->
<g id="node14" class="node">
<title>13</title>
<ellipse fill="none" stroke="black" cx="1037" cy="-18" rx="40.09" ry="18"/>
<text text-anchor="middle" x="1037" y="-14.3" font-family="Times,serif" font-size="14.00">vamos</text>
</g>
<!-- 0&#45;&gt;13 -->
<g id="edge13" class="edge">
<title>0&#45;&gt;13</title>
<path fill="none" stroke="black" d="M659.9,-102.16C707.45,-98.53 809.26,-88.96 893,-69 929.73,-60.24 970.25,-45.72 998.92,-34.57"/>
<polygon fill="black" stroke="black" points="1000.52,-37.7 1008.54,-30.79 997.96,-31.19 1000.52,-37.7"/>
<text text-anchor="middle" x="955.5" y="-57.8" font-family="Times,serif" font-size="14.00">dep</text>
</g>
<!-- 14 -->
<g id="node15" class="node">
<title>14</title>
<ellipse fill="none" stroke="black" cx="1122" cy="-18" rx="27" ry="18"/>
<text text-anchor="middle" x="1122" y="-14.3" font-family="Times,serif" font-size="14.00">.</text>
</g>
<!-- 0&#45;&gt;14 -->
<g id="edge14" class="edge">
<title>0&#45;&gt;14</title>
<path fill="none" stroke="black" d="M660.13,-102.88C718.07,-100.12 857.99,-91.52 973,-69 1024.35,-58.95 1037.08,-54.56 1086,-36 1087.84,-35.3 1089.72,-34.55 1091.6,-33.76"/>
<polygon fill="black" stroke="black" points="1093.19,-36.88 1100.92,-29.63 1090.36,-30.48 1093.19,-36.88"/>
<text text-anchor="middle" x="1048.5" y="-57.8" font-family="Times,serif" font-size="14.00">dep</text>
</g>
<!-- 15 -->
<g id="node16" class="node">
<title>15</title>
<ellipse fill="none" stroke="black" cx="1194" cy="-18" rx="27" ry="18"/>
<text text-anchor="middle" x="1194" y="-14.3" font-family="Times,serif" font-size="14.00">»</text>
</g>
<!-- 0&#45;&gt;15 -->
<g id="edge15" class="edge">
<title>0&#45;&gt;15</title>
<path fill="none" stroke="black" d="M660.22,-104.27C729.03,-104.42 915.24,-101.53 1066,-69 1100.74,-61.5 1138.39,-45.8 1163.8,-33.98"/>
<polygon fill="black" stroke="black" points="1165.37,-37.11 1172.91,-29.67 1162.38,-30.78 1165.37,-37.11"/>
<text text-anchor="middle" x="1126.5" y="-57.8" font-family="Times,serif" font-size="14.00">dep</text>
</g>
</g>
</svg>
