<?xml version="1.0" encoding="UTF-8" standalone="no"?>
<!DOCTYPE svg PUBLIC "-//W3C//DTD SVG 1.1//EN"
 "http://www.w3.org/Graphics/SVG/1.1/DTD/svg11.dtd">
<!-- Generated by graphviz version 2.42.4 (0)
 -->
<!-- Pages: 1 -->
<svg width="1264pt" height="131pt"
 viewBox="0.00 0.00 1264.00 131.00" xmlns="http://www.w3.org/2000/svg" xmlns:xlink="http://www.w3.org/1999/xlink">
<g id="graph0" class="graph" transform="scale(1 1) rotate(0) translate(4 127)">
<polygon fill="white" stroke="transparent" points="-4,4 -4,-127 1260,-127 1260,4 -4,4"/>
<!-- 0 -->
<g id="node1" class="node">
<title>0</title>
<ellipse fill="none" stroke="black" cx="615" cy="-105" rx="29.5" ry="18"/>
<text text-anchor="middle" x="615" y="-101.3" font-family="Times,serif" font-size="14.00">Não</text>
</g>
<!-- 1 -->
<g id="node2" class="node">
<title>1</title>
<ellipse fill="none" stroke="black" cx="27" cy="-18" rx="27" ry="18"/>
<text text-anchor="middle" x="27" y="-14.3" font-family="Times,serif" font-size="14.00">se</text>
</g>
<!-- 0&#45;&gt;1 -->
<g id="edge1" class="edge">
<title>0&#45;&gt;1</title>
<path fill="none" stroke="black" d="M585.71,-103.73C514.79,-102.62 328.46,-97.03 176,-69 124.54,-59.54 111.92,-54.56 63,-36 61.16,-35.3 59.28,-34.55 57.4,-33.76"/>
<polygon fill="black" stroke="black" points="58.64,-30.48 48.08,-29.63 55.81,-36.88 58.64,-30.48"/>
<text text-anchor="middle" x="189.5" y="-57.8" font-family="Times,serif" font-size="14.00">dep</text>
</g>
<!-- 2 -->
<g id="node3" class="node">
<title>2</title>
<ellipse fill="none" stroke="black" cx="105" cy="-18" rx="33.29" ry="18"/>
<text text-anchor="middle" x="105" y="-14.3" font-family="Times,serif" font-size="14.00">pode</text>
</g>
<!-- 0&#45;&gt;2 -->
<g id="edge2" class="edge">
<title>0&#45;&gt;2</title>
<path fill="none" stroke="black" d="M585.87,-102.41C527.09,-98.9 390.26,-89.13 277,-69 218.31,-58.57 203.65,-54.56 147,-36 144.58,-35.21 142.1,-34.34 139.61,-33.44"/>
<polygon fill="black" stroke="black" points="140.7,-30.11 130.11,-29.81 138.21,-36.65 140.7,-30.11"/>
<text text-anchor="middle" x="290.5" y="-57.8" font-family="Times,serif" font-size="14.00">dep</text>
</g>
<!-- 3 -->
<g id="node4" class="node">
<title>3</title>
<ellipse fill="none" stroke="black" cx="207" cy="-18" rx="50.89" ry="18"/>
<text text-anchor="middle" x="207" y="-14.3" font-family="Times,serif" font-size="14.00">conduzir</text>
</g>
<!-- 0&#45;&gt;3 -->
<g id="edge3" class="edge">
<title>0&#45;&gt;3</title>
<path fill="none" stroke="black" d="M586.16,-101.82C538.29,-97.81 439.6,-87.9 358,-69 320.66,-60.35 279.41,-46.38 249.48,-35.4"/>
<polygon fill="black" stroke="black" points="250.38,-32 239.79,-31.81 247.95,-38.57 250.38,-32"/>
<text text-anchor="middle" x="371.5" y="-57.8" font-family="Times,serif" font-size="14.00">dep</text>
</g>
<!-- 4 -->
<g id="node5" class="node">
<title>4</title>
<ellipse fill="none" stroke="black" cx="303" cy="-18" rx="27" ry="18"/>
<text text-anchor="middle" x="303" y="-14.3" font-family="Times,serif" font-size="14.00">a</text>
</g>
<!-- 0&#45;&gt;4 -->
<g id="edge4" class="edge">
<title>0&#45;&gt;4</title>
<path fill="none" stroke="black" d="M586.88,-99.43C552.11,-93.55 491.25,-82.45 440,-69 394.32,-57.01 382.88,-53.45 339,-36 337.17,-35.27 335.3,-34.5 333.42,-33.69"/>
<polygon fill="black" stroke="black" points="334.68,-30.42 324.13,-29.52 331.82,-36.8 334.68,-30.42"/>
<text text-anchor="middle" x="453.5" y="-57.8" font-family="Times,serif" font-size="14.00">dep</text>
</g>
<!-- 5 -->
<g id="node6" class="node">
<title>5</title>
<ellipse fill="none" stroke="black" cx="393" cy="-18" rx="44.69" ry="18"/>
<text text-anchor="middle" x="393" y="-14.3" font-family="Times,serif" font-size="14.00">política</text>
</g>
<!-- 0&#45;&gt;5 -->
<g id="edge5" class="edge">
<title>0&#45;&gt;5</title>
<path fill="none" stroke="black" d="M588.94,-96.6C566.47,-90.01 533.28,-79.77 505,-69 479.52,-59.29 451.51,-46.79 429.87,-36.71"/>
<polygon fill="black" stroke="black" points="431.25,-33.49 420.71,-32.41 428.28,-39.83 431.25,-33.49"/>
<text text-anchor="middle" x="518.5" y="-57.8" font-family="Times,serif" font-size="14.00">dep</text>
</g>
<!-- 6 -->
<g id="node7" class="node">
<title>6</title>
<ellipse fill="none" stroke="black" cx="483" cy="-18" rx="27" ry="18"/>
<text text-anchor="middle" x="483" y="-14.3" font-family="Times,serif" font-size="14.00">de</text>
</g>
<!-- 0&#45;&gt;6 -->
<g id="edge6" class="edge">
<title>0&#45;&gt;6</title>
<path fill="none" stroke="black" d="M594.97,-91.64C584.26,-84.99 570.87,-76.61 559,-69 542.6,-58.48 524.35,-46.48 509.85,-36.88"/>
<polygon fill="black" stroke="black" points="511.62,-33.86 501.35,-31.24 507.75,-39.69 511.62,-33.86"/>
<text text-anchor="middle" x="572.5" y="-57.8" font-family="Times,serif" font-size="14.00">dep</text>
</g>
<!-- 7 -->
<g id="node8" class="node">
<title>7</title>
<ellipse fill="none" stroke="black" cx="570" cy="-18" rx="42.49" ry="18"/>
<text text-anchor="middle" x="570" y="-14.3" font-family="Times,serif" font-size="14.00">acordo</text>
</g>
<!-- 0&#45;&gt;7 -->
<g id="edge7" class="edge">
<title>0&#45;&gt;7</title>
<path fill="none" stroke="black" d="M606.32,-87.61C599.89,-75.46 591,-58.66 583.62,-44.73"/>
<polygon fill="black" stroke="black" points="586.58,-42.83 578.8,-35.63 580.39,-46.1 586.58,-42.83"/>
<text text-anchor="middle" x="609.5" y="-57.8" font-family="Times,serif" font-size="14.00">dep</text>
</g>
<!-- 8 -->
<g id="node9" class="node">
<title>8</title>
<ellipse fill="none" stroke="black" cx="660" cy="-18" rx="29.8" ry="18"/>
<text text-anchor="middle" x="660" y="-14.3" font-family="Times,serif" font-size="14.00">com</text>
</g>
<!-- 0&#45;&gt;8 -->
<g id="edge8" class="edge">
<title>0&#45;&gt;8</title>
<path fill="none" stroke="black" d="M623.68,-87.61C630.15,-75.38 639.12,-58.44 646.52,-44.46"/>
<polygon fill="black" stroke="black" points="649.76,-45.81 651.35,-35.34 643.58,-42.54 649.76,-45.81"/>
<text text-anchor="middle" x="654.5" y="-57.8" font-family="Times,serif" font-size="14.00">dep</text>
</g>
<!-- 9 -->
<g id="node10" class="node">
<title>9</title>
<ellipse fill="none" stroke="black" cx="735" cy="-18" rx="27" ry="18"/>
<text text-anchor="middle" x="735" y="-14.3" font-family="Times,serif" font-size="14.00">as</text>
</g>
<!-- 0&#45;&gt;9 -->
<g id="edge9" class="edge">
<title>0&#45;&gt;9</title>
<path fill="none" stroke="black" d="M635.69,-92.11C646.68,-85.59 660.3,-77.19 672,-69 685.26,-59.72 699.42,-48.6 710.95,-39.2"/>
<polygon fill="black" stroke="black" points="713.34,-41.77 718.83,-32.72 708.89,-36.37 713.34,-41.77"/>
<text text-anchor="middle" x="705.5" y="-57.8" font-family="Times,serif" font-size="14.00">dep</text>
</g>
<!-- 10 -->
<g id="node11" class="node">
<title>10</title>
<ellipse fill="none" stroke="black" cx="841" cy="-18" rx="61.19" ry="18"/>
<text text-anchor="middle" x="841" y="-14.3" font-family="Times,serif" font-size="14.00">tendências</text>
</g>
<!-- 0&#45;&gt;10 -->
<g id="edge10" class="edge">
<title>0&#45;&gt;10</title>
<path fill="none" stroke="black" d="M640.97,-96.28C662.98,-89.57 695.3,-79.33 723,-69 748.72,-59.4 777.05,-47.45 799.51,-37.63"/>
<polygon fill="black" stroke="black" points="801.01,-40.79 808.75,-33.57 798.19,-34.39 801.01,-40.79"/>
<text text-anchor="middle" x="773.5" y="-57.8" font-family="Times,serif" font-size="14.00">dep</text>
</g>
<!-- 11 -->
<g id="node12" class="node">
<title>11</title>
<ellipse fill="none" stroke="black" cx="947" cy="-18" rx="27" ry="18"/>
<text text-anchor="middle" x="947" y="-14.3" font-family="Times,serif" font-size="14.00">de</text>
</g>
<!-- 0&#45;&gt;11 -->
<g id="edge11" class="edge">
<title>0&#45;&gt;11</title>
<path fill="none" stroke="black" d="M643.45,-99.97C697.03,-91.83 816.07,-71.17 911,-36 912.85,-35.32 914.73,-34.57 916.62,-33.79"/>
<polygon fill="black" stroke="black" points="918.2,-36.92 925.94,-29.69 915.38,-30.51 918.2,-36.92"/>
<text text-anchor="middle" x="869.5" y="-57.8" font-family="Times,serif" font-size="14.00">dep</text>
</g>
<!-- 12 -->
<g id="node13" class="node">
<title>12</title>
<ellipse fill="none" stroke="black" cx="1019" cy="-18" rx="27" ry="18"/>
<text text-anchor="middle" x="1019" y="-14.3" font-family="Times,serif" font-size="14.00">as</text>
</g>
<!-- 0&#45;&gt;12 -->
<g id="edge12" class="edge">
<title>0&#45;&gt;12</title>
<path fill="none" stroke="black" d="M643.93,-102.21C694,-98.69 799.84,-89.37 887,-69 930.93,-58.73 941.2,-52.99 983,-36 984.82,-35.26 986.69,-34.47 988.56,-33.66"/>
<polygon fill="black" stroke="black" points="990.18,-36.77 997.85,-29.46 987.3,-30.39 990.18,-36.77"/>
<text text-anchor="middle" x="951.5" y="-57.8" font-family="Times,serif" font-size="14.00">dep</text>
</g>
<!-- 13 -->
<g id="node14" class="node">
<title>13</title>
<ellipse fill="none" stroke="black" cx="1124" cy="-18" rx="59.59" ry="18"/>
<text text-anchor="middle" x="1124" y="-14.3" font-family="Times,serif" font-size="14.00">sondagens</text>
</g>
<!-- 0&#45;&gt;13 -->
<g id="edge13" class="edge">
<title>0&#45;&gt;13</title>
<path fill="none" stroke="black" d="M644.23,-103.22C705.21,-101.12 850.19,-93.74 969,-69 1006.97,-61.09 1048.74,-47.31 1079.35,-36.21"/>
<polygon fill="black" stroke="black" points="1080.69,-39.45 1088.87,-32.71 1078.28,-32.87 1080.69,-39.45"/>
<text text-anchor="middle" x="1039.5" y="-57.8" font-family="Times,serif" font-size="14.00">dep</text>
</g>
<!-- 14 -->
<g id="node15" class="node">
<title>14</title>
<ellipse fill="none" stroke="black" cx="1229" cy="-18" rx="27" ry="18"/>
<text text-anchor="middle" x="1229" y="-14.3" font-family="Times,serif" font-size="14.00">.</text>
</g>
<!-- 0&#45;&gt;14 -->
<g id="edge14" class="edge">
<title>0&#45;&gt;14</title>
<path fill="none" stroke="black" d="M644.15,-103.29C715.18,-101.22 902.7,-93.67 1057,-69 1118.42,-59.18 1134.35,-56.72 1193,-36 1194.91,-35.33 1196.85,-34.59 1198.79,-33.8"/>
<polygon fill="black" stroke="black" points="1200.6,-36.83 1208.36,-29.62 1197.8,-30.41 1200.6,-36.83"/>
<text text-anchor="middle" x="1149.5" y="-57.8" font-family="Times,serif" font-size="14.00">dep</text>
</g>
</g>
</svg>
