<?xml version="1.0" encoding="UTF-8" standalone="no"?>
<!DOCTYPE svg PUBLIC "-//W3C//DTD SVG 1.1//EN"
 "http://www.w3.org/Graphics/SVG/1.1/DTD/svg11.dtd">
<!-- Generated by graphviz version 2.42.4 (0)
 -->
<!-- Pages: 1 -->
<svg width="1102pt" height="131pt"
 viewBox="0.00 0.00 1102.40 131.00" xmlns="http://www.w3.org/2000/svg" xmlns:xlink="http://www.w3.org/1999/xlink">
<g id="graph0" class="graph" transform="scale(1 1) rotate(0) translate(4 127)">
<polygon fill="white" stroke="transparent" points="-4,4 -4,-127 1098.4,-127 1098.4,4 -4,4"/>
<!-- 0 -->
<g id="node1" class="node">
<title>0</title>
<ellipse fill="none" stroke="black" cx="555.4" cy="-105" rx="27" ry="18"/>
<text text-anchor="middle" x="555.4" y="-101.3" font-family="Times,serif" font-size="14.00">As</text>
</g>
<!-- 1 -->
<g id="node2" class="node">
<title>1</title>
<ellipse fill="none" stroke="black" cx="49.4" cy="-18" rx="49.29" ry="18"/>
<text text-anchor="middle" x="49.4" y="-14.3" font-family="Times,serif" font-size="14.00">LaserJet</text>
</g>
<!-- 0&#45;&gt;1 -->
<g id="edge1" class="edge">
<title>0&#45;&gt;1</title>
<path fill="none" stroke="black" d="M528.1,-103.63C467.05,-102.3 315.07,-96.29 191.4,-69 156.12,-61.22 117.55,-47.26 89.52,-36.07"/>
<polygon fill="black" stroke="black" points="90.65,-32.75 80.07,-32.24 88.02,-39.24 90.65,-32.75"/>
<text text-anchor="middle" x="204.9" y="-57.8" font-family="Times,serif" font-size="14.00">dep</text>
</g>
<!-- 2 -->
<g id="node3" class="node">
<title>2</title>
<ellipse fill="none" stroke="black" cx="143.4" cy="-18" rx="27" ry="18"/>
<text text-anchor="middle" x="143.4" y="-14.3" font-family="Times,serif" font-size="14.00">4</text>
</g>
<!-- 0&#45;&gt;2 -->
<g id="edge2" class="edge">
<title>0&#45;&gt;2</title>
<path fill="none" stroke="black" d="M528.41,-102.86C476.96,-100.22 361.58,-92.03 267.4,-69 234.15,-60.87 198.07,-45.52 173.45,-33.96"/>
<polygon fill="black" stroke="black" points="174.82,-30.74 164.28,-29.59 171.8,-37.06 174.82,-30.74"/>
<text text-anchor="middle" x="280.9" y="-57.8" font-family="Times,serif" font-size="14.00">dep</text>
</g>
<!-- 3 -->
<g id="node4" class="node">
<title>3</title>
<ellipse fill="none" stroke="black" cx="219.4" cy="-18" rx="30.59" ry="18"/>
<text text-anchor="middle" x="219.4" y="-14.3" font-family="Times,serif" font-size="14.00">Plus</text>
</g>
<!-- 0&#45;&gt;3 -->
<g id="edge3" class="edge">
<title>0&#45;&gt;3</title>
<path fill="none" stroke="black" d="M528.77,-101.81C487.25,-97.93 404.82,-88.37 337.4,-69 301.22,-58.61 294.05,-50.69 259.4,-36 257.23,-35.08 254.99,-34.13 252.74,-33.18"/>
<polygon fill="black" stroke="black" points="254.08,-29.94 243.51,-29.25 251.34,-36.39 254.08,-29.94"/>
<text text-anchor="middle" x="350.9" y="-57.8" font-family="Times,serif" font-size="14.00">dep</text>
</g>
<!-- 4 -->
<g id="node5" class="node">
<title>4</title>
<ellipse fill="none" stroke="black" cx="295.4" cy="-18" rx="27" ry="18"/>
<text text-anchor="middle" x="295.4" y="-14.3" font-family="Times,serif" font-size="14.00">e</text>
</g>
<!-- 0&#45;&gt;4 -->
<g id="edge4" class="edge">
<title>0&#45;&gt;4</title>
<path fill="none" stroke="black" d="M529.49,-99.79C498.69,-94.4 445.96,-83.92 402.4,-69 369.48,-57.72 362.91,-50.76 331.4,-36 329.61,-35.16 327.78,-34.3 325.93,-33.43"/>
<polygon fill="black" stroke="black" points="327.24,-30.18 316.71,-29.09 324.26,-36.52 327.24,-30.18"/>
<text text-anchor="middle" x="415.9" y="-57.8" font-family="Times,serif" font-size="14.00">dep</text>
</g>
<!-- 5 -->
<g id="node6" class="node">
<title>5</title>
<ellipse fill="none" stroke="black" cx="367.4" cy="-18" rx="27" ry="18"/>
<text text-anchor="middle" x="367.4" y="-14.3" font-family="Times,serif" font-size="14.00">4M</text>
</g>
<!-- 0&#45;&gt;5 -->
<g id="edge5" class="edge">
<title>0&#45;&gt;5</title>
<path fill="none" stroke="black" d="M531.75,-96.02C512.76,-89.39 485.53,-79.39 462.4,-69 439.71,-58.81 414.86,-45.65 396.26,-35.4"/>
<polygon fill="black" stroke="black" points="397.86,-32.28 387.42,-30.47 394.45,-38.39 397.86,-32.28"/>
<text text-anchor="middle" x="475.9" y="-57.8" font-family="Times,serif" font-size="14.00">dep</text>
</g>
<!-- 6 -->
<g id="node7" class="node">
<title>6</title>
<ellipse fill="none" stroke="black" cx="443.4" cy="-18" rx="30.59" ry="18"/>
<text text-anchor="middle" x="443.4" y="-14.3" font-family="Times,serif" font-size="14.00">Plus</text>
</g>
<!-- 0&#45;&gt;6 -->
<g id="edge6" class="edge">
<title>0&#45;&gt;6</title>
<path fill="none" stroke="black" d="M537.9,-90.72C519.62,-76.85 490.74,-54.93 469.71,-38.97"/>
<polygon fill="black" stroke="black" points="471.6,-36.01 461.51,-32.75 467.36,-41.58 471.6,-36.01"/>
<text text-anchor="middle" x="519.9" y="-57.8" font-family="Times,serif" font-size="14.00">dep</text>
</g>
<!-- 7 -->
<g id="node8" class="node">
<title>7</title>
<ellipse fill="none" stroke="black" cx="555.4" cy="-18" rx="63.09" ry="18"/>
<text text-anchor="middle" x="555.4" y="-14.3" font-family="Times,serif" font-size="14.00">substituem</text>
</g>
<!-- 0&#45;&gt;7 -->
<g id="edge7" class="edge">
<title>0&#45;&gt;7</title>
<path fill="none" stroke="black" d="M555.4,-86.8C555.4,-75.16 555.4,-59.55 555.4,-46.24"/>
<polygon fill="black" stroke="black" points="558.9,-46.18 555.4,-36.18 551.9,-46.18 558.9,-46.18"/>
<text text-anchor="middle" x="568.9" y="-57.8" font-family="Times,serif" font-size="14.00">dep</text>
</g>
<!-- 8 -->
<g id="node9" class="node">
<title>8</title>
<ellipse fill="none" stroke="black" cx="663.4" cy="-18" rx="27" ry="18"/>
<text text-anchor="middle" x="663.4" y="-14.3" font-family="Times,serif" font-size="14.00">os</text>
</g>
<!-- 0&#45;&gt;8 -->
<g id="edge8" class="edge">
<title>0&#45;&gt;8</title>
<path fill="none" stroke="black" d="M572.27,-90.72C590.1,-76.68 618.41,-54.41 638.74,-38.41"/>
<polygon fill="black" stroke="black" points="640.95,-41.12 646.64,-32.19 636.62,-35.62 640.95,-41.12"/>
<text text-anchor="middle" x="629.9" y="-57.8" font-family="Times,serif" font-size="14.00">dep</text>
</g>
<!-- 9 -->
<g id="node10" class="node">
<title>9</title>
<ellipse fill="none" stroke="black" cx="757.4" cy="-18" rx="49.29" ry="18"/>
<text text-anchor="middle" x="757.4" y="-14.3" font-family="Times,serif" font-size="14.00">modelos</text>
</g>
<!-- 0&#45;&gt;9 -->
<g id="edge9" class="edge">
<title>0&#45;&gt;9</title>
<path fill="none" stroke="black" d="M578.62,-95.63C597.32,-88.77 624.21,-78.67 647.4,-69 671.57,-58.92 698.34,-46.77 719.41,-36.98"/>
<polygon fill="black" stroke="black" points="721.08,-40.06 728.66,-32.66 718.12,-33.72 721.08,-40.06"/>
<text text-anchor="middle" x="694.9" y="-57.8" font-family="Times,serif" font-size="14.00">dep</text>
</g>
<!-- 10 -->
<g id="node11" class="node">
<title>10</title>
<ellipse fill="none" stroke="black" cx="851.4" cy="-18" rx="27" ry="18"/>
<text text-anchor="middle" x="851.4" y="-14.3" font-family="Times,serif" font-size="14.00">4</text>
</g>
<!-- 0&#45;&gt;10 -->
<g id="edge10" class="edge">
<title>0&#45;&gt;10</title>
<path fill="none" stroke="black" d="M581.14,-99.4C628.57,-90.45 732.49,-68.69 815.4,-36 817.23,-35.28 819.1,-34.5 820.98,-33.7"/>
<polygon fill="black" stroke="black" points="822.58,-36.82 830.28,-29.54 819.72,-30.43 822.58,-36.82"/>
<text text-anchor="middle" x="773.9" y="-57.8" font-family="Times,serif" font-size="14.00">dep</text>
</g>
<!-- 11 -->
<g id="node12" class="node">
<title>11</title>
<ellipse fill="none" stroke="black" cx="923.4" cy="-18" rx="27" ry="18"/>
<text text-anchor="middle" x="923.4" y="-14.3" font-family="Times,serif" font-size="14.00">e</text>
</g>
<!-- 0&#45;&gt;11 -->
<g id="edge11" class="edge">
<title>0&#45;&gt;11</title>
<path fill="none" stroke="black" d="M582.25,-101.64C626.37,-97.4 716.75,-87.2 791.4,-69 835.23,-58.31 845.6,-52.99 887.4,-36 889.22,-35.26 891.09,-34.47 892.96,-33.66"/>
<polygon fill="black" stroke="black" points="894.58,-36.77 902.25,-29.46 891.69,-30.39 894.58,-36.77"/>
<text text-anchor="middle" x="855.9" y="-57.8" font-family="Times,serif" font-size="14.00">dep</text>
</g>
<!-- 12 -->
<g id="node13" class="node">
<title>12</title>
<ellipse fill="none" stroke="black" cx="995.4" cy="-18" rx="27" ry="18"/>
<text text-anchor="middle" x="995.4" y="-14.3" font-family="Times,serif" font-size="14.00">4M</text>
</g>
<!-- 0&#45;&gt;12 -->
<g id="edge12" class="edge">
<title>0&#45;&gt;12</title>
<path fill="none" stroke="black" d="M582.6,-103.35C638.06,-101.51 767.87,-94.6 873.4,-69 906,-61.09 941.25,-45.85 965.44,-34.27"/>
<polygon fill="black" stroke="black" points="967,-37.4 974.45,-29.87 963.93,-31.11 967,-37.4"/>
<text text-anchor="middle" x="931.9" y="-57.8" font-family="Times,serif" font-size="14.00">dep</text>
</g>
<!-- 13 -->
<g id="node14" class="node">
<title>13</title>
<ellipse fill="none" stroke="black" cx="1067.4" cy="-18" rx="27" ry="18"/>
<text text-anchor="middle" x="1067.4" y="-14.3" font-family="Times,serif" font-size="14.00">.</text>
</g>
<!-- 0&#45;&gt;13 -->
<g id="edge13" class="edge">
<title>0&#45;&gt;13</title>
<path fill="none" stroke="black" d="M582.59,-104.31C647.18,-104.45 814.51,-101.38 949.4,-69 980.96,-61.42 1014.87,-46.24 1038.21,-34.59"/>
<polygon fill="black" stroke="black" points="1039.89,-37.66 1047.21,-30 1036.71,-31.42 1039.89,-37.66"/>
<text text-anchor="middle" x="1006.9" y="-57.8" font-family="Times,serif" font-size="14.00">dep</text>
</g>
</g>
</svg>
