<?xml version="1.0" encoding="UTF-8" standalone="no"?>
<!DOCTYPE svg PUBLIC "-//W3C//DTD SVG 1.1//EN"
 "http://www.w3.org/Graphics/SVG/1.1/DTD/svg11.dtd">
<!-- Generated by graphviz version 2.42.4 (0)
 -->
<!-- Pages: 1 -->
<svg width="1887pt" height="131pt"
 viewBox="0.00 0.00 1887.00 131.00" xmlns="http://www.w3.org/2000/svg" xmlns:xlink="http://www.w3.org/1999/xlink">
<g id="graph0" class="graph" transform="scale(1 1) rotate(0) translate(4 127)">
<polygon fill="white" stroke="transparent" points="-4,4 -4,-127 1883,-127 1883,4 -4,4"/>
<!-- 0 -->
<g id="node1" class="node">
<title>0</title>
<ellipse fill="none" stroke="black" cx="912" cy="-105" rx="29.5" ry="18"/>
<text text-anchor="middle" x="912" y="-101.3" font-family="Times,serif" font-size="14.00">Não</text>
</g>
<!-- 1 -->
<g id="node2" class="node">
<title>1</title>
<ellipse fill="none" stroke="black" cx="27" cy="-18" rx="27" ry="18"/>
<text text-anchor="middle" x="27" y="-14.3" font-family="Times,serif" font-size="14.00">é</text>
</g>
<!-- 0&#45;&gt;1 -->
<g id="edge1" class="edge">
<title>0&#45;&gt;1</title>
<path fill="none" stroke="black" d="M882.5,-103.72C761.51,-102.4 303.07,-95.69 161,-69 124.05,-62.06 83.94,-45.84 57.32,-33.74"/>
<polygon fill="black" stroke="black" points="58.71,-30.53 48.16,-29.5 55.76,-36.88 58.71,-30.53"/>
<text text-anchor="middle" x="174.5" y="-57.8" font-family="Times,serif" font-size="14.00">dep</text>
</g>
<!-- 2 -->
<g id="node3" class="node">
<title>2</title>
<ellipse fill="none" stroke="black" cx="108" cy="-18" rx="36.29" ry="18"/>
<text text-anchor="middle" x="108" y="-14.3" font-family="Times,serif" font-size="14.00">digno</text>
</g>
<!-- 0&#45;&gt;2 -->
<g id="edge2" class="edge">
<title>0&#45;&gt;2</title>
<path fill="none" stroke="black" d="M882.57,-103.68C769.82,-102.25 365.48,-95.36 240,-69 205.76,-61.81 168.66,-47.09 142.54,-35.47"/>
<polygon fill="black" stroke="black" points="143.64,-32.13 133.09,-31.2 140.76,-38.51 143.64,-32.13"/>
<text text-anchor="middle" x="253.5" y="-57.8" font-family="Times,serif" font-size="14.00">dep</text>
</g>
<!-- 3 -->
<g id="node4" class="node">
<title>3</title>
<ellipse fill="none" stroke="black" cx="189" cy="-18" rx="27" ry="18"/>
<text text-anchor="middle" x="189" y="-14.3" font-family="Times,serif" font-size="14.00">de</text>
</g>
<!-- 0&#45;&gt;3 -->
<g id="edge3" class="edge">
<title>0&#45;&gt;3</title>
<path fill="none" stroke="black" d="M882.75,-103.29C779.45,-100.61 432.1,-90.22 323,-69 286.1,-61.82 245.97,-45.65 219.35,-33.62"/>
<polygon fill="black" stroke="black" points="220.73,-30.41 210.18,-29.41 217.8,-36.77 220.73,-30.41"/>
<text text-anchor="middle" x="336.5" y="-57.8" font-family="Times,serif" font-size="14.00">dep</text>
</g>
<!-- 4 -->
<g id="node5" class="node">
<title>4</title>
<ellipse fill="none" stroke="black" cx="261" cy="-18" rx="27" ry="18"/>
<text text-anchor="middle" x="261" y="-14.3" font-family="Times,serif" font-size="14.00">um</text>
</g>
<!-- 0&#45;&gt;4 -->
<g id="edge4" class="edge">
<title>0&#45;&gt;4</title>
<path fill="none" stroke="black" d="M882.73,-103.61C807.27,-102.23 600.07,-96.07 430,-69 369.85,-59.43 354.37,-56.44 297,-36 295.1,-35.32 293.16,-34.58 291.22,-33.79"/>
<polygon fill="black" stroke="black" points="292.21,-30.4 281.64,-29.6 289.4,-36.82 292.21,-30.4"/>
<text text-anchor="middle" x="443.5" y="-57.8" font-family="Times,serif" font-size="14.00">dep</text>
</g>
<!-- 5 -->
<g id="node6" class="node">
<title>5</title>
<ellipse fill="none" stroke="black" cx="362" cy="-18" rx="55.79" ry="18"/>
<text text-anchor="middle" x="362" y="-14.3" font-family="Times,serif" font-size="14.00">programa</text>
</g>
<!-- 0&#45;&gt;5 -->
<g id="edge5" class="edge">
<title>0&#45;&gt;5</title>
<path fill="none" stroke="black" d="M882.44,-103.63C816.3,-102.31 651.6,-96.31 517,-69 478.49,-61.19 436.12,-47.12 405.42,-35.9"/>
<polygon fill="black" stroke="black" points="406.48,-32.56 395.89,-32.36 404.05,-39.12 406.48,-32.56"/>
<text text-anchor="middle" x="530.5" y="-57.8" font-family="Times,serif" font-size="14.00">dep</text>
</g>
<!-- 6 -->
<g id="node7" class="node">
<title>6</title>
<ellipse fill="none" stroke="black" cx="463" cy="-18" rx="27" ry="18"/>
<text text-anchor="middle" x="463" y="-14.3" font-family="Times,serif" font-size="14.00">de</text>
</g>
<!-- 0&#45;&gt;6 -->
<g id="edge6" class="edge">
<title>0&#45;&gt;6</title>
<path fill="none" stroke="black" d="M882.83,-102.55C827.79,-99.4 705.08,-90.42 604,-69 556.15,-58.86 544.56,-53.82 499,-36 497.17,-35.28 495.29,-34.51 493.41,-33.71"/>
<polygon fill="black" stroke="black" points="494.67,-30.44 484.11,-29.56 491.81,-36.83 494.67,-30.44"/>
<text text-anchor="middle" x="617.5" y="-57.8" font-family="Times,serif" font-size="14.00">dep</text>
</g>
<!-- 7 -->
<g id="node8" class="node">
<title>7</title>
<ellipse fill="none" stroke="black" cx="535" cy="-18" rx="27" ry="18"/>
<text text-anchor="middle" x="535" y="-14.3" font-family="Times,serif" font-size="14.00">um</text>
</g>
<!-- 0&#45;&gt;7 -->
<g id="edge7" class="edge">
<title>0&#45;&gt;7</title>
<path fill="none" stroke="black" d="M883.44,-101.06C823.93,-94.35 682.91,-75.33 571,-36 569.09,-35.33 567.15,-34.59 565.21,-33.81"/>
<polygon fill="black" stroke="black" points="566.2,-30.42 555.63,-29.63 563.4,-36.84 566.2,-30.42"/>
<text text-anchor="middle" x="695.5" y="-57.8" font-family="Times,serif" font-size="14.00">dep</text>
</g>
<!-- 8 -->
<g id="node9" class="node">
<title>8</title>
<ellipse fill="none" stroke="black" cx="640" cy="-18" rx="59.59" ry="18"/>
<text text-anchor="middle" x="640" y="-14.3" font-family="Times,serif" font-size="14.00">organismo</text>
</g>
<!-- 0&#45;&gt;8 -->
<g id="edge8" class="edge">
<title>0&#45;&gt;8</title>
<path fill="none" stroke="black" d="M885.16,-97.31C858.95,-90.65 818.02,-79.86 783,-69 750.19,-58.83 713.64,-46.02 685.7,-35.92"/>
<polygon fill="black" stroke="black" points="686.8,-32.59 676.2,-32.46 684.41,-39.17 686.8,-32.59"/>
<text text-anchor="middle" x="796.5" y="-57.8" font-family="Times,serif" font-size="14.00">dep</text>
</g>
<!-- 9 -->
<g id="node10" class="node">
<title>9</title>
<ellipse fill="none" stroke="black" cx="756" cy="-18" rx="38.19" ry="18"/>
<text text-anchor="middle" x="756" y="-14.3" font-family="Times,serif" font-size="14.00">oficial</text>
</g>
<!-- 0&#45;&gt;9 -->
<g id="edge9" class="edge">
<title>0&#45;&gt;9</title>
<path fill="none" stroke="black" d="M889.03,-93.67C874.51,-86.97 855.45,-77.87 839,-69 821.3,-59.45 802.03,-47.92 786.52,-38.34"/>
<polygon fill="black" stroke="black" points="788.2,-35.26 777.86,-32.95 784.5,-41.21 788.2,-35.26"/>
<text text-anchor="middle" x="852.5" y="-57.8" font-family="Times,serif" font-size="14.00">dep</text>
</g>
<!-- 10 -->
<g id="node11" class="node">
<title>10</title>
<ellipse fill="none" stroke="black" cx="839" cy="-18" rx="27" ry="18"/>
<text text-anchor="middle" x="839" y="-14.3" font-family="Times,serif" font-size="14.00">,</text>
</g>
<!-- 0&#45;&gt;10 -->
<g id="edge10" class="edge">
<title>0&#45;&gt;10</title>
<path fill="none" stroke="black" d="M898.33,-88.74C892.9,-82.64 886.62,-75.52 881,-69 873.48,-60.28 865.32,-50.61 858.21,-42.12"/>
<polygon fill="black" stroke="black" points="860.86,-39.84 851.76,-34.41 855.49,-44.33 860.86,-39.84"/>
<text text-anchor="middle" x="894.5" y="-57.8" font-family="Times,serif" font-size="14.00">dep</text>
</g>
<!-- 11 -->
<g id="node12" class="node">
<title>11</title>
<ellipse fill="none" stroke="black" cx="912" cy="-18" rx="27.9" ry="18"/>
<text text-anchor="middle" x="912" y="-14.3" font-family="Times,serif" font-size="14.00">que</text>
</g>
<!-- 0&#45;&gt;11 -->
<g id="edge11" class="edge">
<title>0&#45;&gt;11</title>
<path fill="none" stroke="black" d="M912,-86.8C912,-75.16 912,-59.55 912,-46.24"/>
<polygon fill="black" stroke="black" points="915.5,-46.18 912,-36.18 908.5,-46.18 915.5,-46.18"/>
<text text-anchor="middle" x="925.5" y="-57.8" font-family="Times,serif" font-size="14.00">dep</text>
</g>
<!-- 12 -->
<g id="node13" class="node">
<title>12</title>
<ellipse fill="none" stroke="black" cx="985" cy="-18" rx="27" ry="18"/>
<text text-anchor="middle" x="985" y="-14.3" font-family="Times,serif" font-size="14.00">em</text>
</g>
<!-- 0&#45;&gt;12 -->
<g id="edge12" class="edge">
<title>0&#45;&gt;12</title>
<path fill="none" stroke="black" d="M925.67,-88.74C931.1,-82.64 937.38,-75.52 943,-69 950.52,-60.28 958.68,-50.61 965.79,-42.12"/>
<polygon fill="black" stroke="black" points="968.51,-44.33 972.24,-34.41 963.14,-39.84 968.51,-44.33"/>
<text text-anchor="middle" x="968.5" y="-57.8" font-family="Times,serif" font-size="14.00">dep</text>
</g>
<!-- 13 -->
<g id="node14" class="node">
<title>13</title>
<ellipse fill="none" stroke="black" cx="1057" cy="-18" rx="27" ry="18"/>
<text text-anchor="middle" x="1057" y="-14.3" font-family="Times,serif" font-size="14.00">a</text>
</g>
<!-- 0&#45;&gt;13 -->
<g id="edge13" class="edge">
<title>0&#45;&gt;13</title>
<path fill="none" stroke="black" d="M935.52,-94.12C950.33,-87.59 969.67,-78.52 986,-69 1001.81,-59.78 1018.6,-48.06 1031.87,-38.29"/>
<polygon fill="black" stroke="black" points="1034.12,-40.97 1040.05,-32.19 1029.94,-35.36 1034.12,-40.97"/>
<text text-anchor="middle" x="1022.5" y="-57.8" font-family="Times,serif" font-size="14.00">dep</text>
</g>
<!-- 14 -->
<g id="node15" class="node">
<title>14</title>
<ellipse fill="none" stroke="black" cx="1150" cy="-18" rx="48.19" ry="18"/>
<text text-anchor="middle" x="1150" y="-14.3" font-family="Times,serif" font-size="14.00">verdade</text>
</g>
<!-- 0&#45;&gt;14 -->
<g id="edge14" class="edge">
<title>0&#45;&gt;14</title>
<path fill="none" stroke="black" d="M939.36,-97.86C965.55,-91.67 1005.98,-81.29 1040,-69 1064.98,-59.97 1092.16,-47.65 1113.25,-37.49"/>
<polygon fill="black" stroke="black" points="1115.02,-40.52 1122.48,-33 1111.96,-34.23 1115.02,-40.52"/>
<text text-anchor="middle" x="1090.5" y="-57.8" font-family="Times,serif" font-size="14.00">dep</text>
</g>
<!-- 15 -->
<g id="node16" class="node">
<title>15</title>
<ellipse fill="none" stroke="black" cx="1243" cy="-18" rx="27" ry="18"/>
<text text-anchor="middle" x="1243" y="-14.3" font-family="Times,serif" font-size="14.00">é</text>
</g>
<!-- 0&#45;&gt;15 -->
<g id="edge15" class="edge">
<title>0&#45;&gt;15</title>
<path fill="none" stroke="black" d="M940.51,-100.23C978.91,-94.86 1049.21,-83.96 1108,-69 1152.95,-57.56 1163.95,-53.27 1207,-36 1208.83,-35.27 1210.7,-34.49 1212.57,-33.68"/>
<polygon fill="black" stroke="black" points="1214.18,-36.79 1221.87,-29.49 1211.31,-30.41 1214.18,-36.79"/>
<text text-anchor="middle" x="1173.5" y="-57.8" font-family="Times,serif" font-size="14.00">dep</text>
</g>
<!-- 16 -->
<g id="node17" class="node">
<title>16</title>
<ellipse fill="none" stroke="black" cx="1315" cy="-18" rx="27" ry="18"/>
<text text-anchor="middle" x="1315" y="-14.3" font-family="Times,serif" font-size="14.00">de</text>
</g>
<!-- 0&#45;&gt;16 -->
<g id="edge16" class="edge">
<title>0&#45;&gt;16</title>
<path fill="none" stroke="black" d="M941.33,-102.58C992.62,-99.6 1101.66,-91.03 1191,-69 1224.23,-60.81 1260.31,-45.47 1284.94,-33.93"/>
<polygon fill="black" stroke="black" points="1286.58,-37.02 1294.11,-29.56 1283.57,-30.7 1286.58,-37.02"/>
<text text-anchor="middle" x="1250.5" y="-57.8" font-family="Times,serif" font-size="14.00">dep</text>
</g>
<!-- 17 -->
<g id="node18" class="node">
<title>17</title>
<ellipse fill="none" stroke="black" cx="1391" cy="-18" rx="30.59" ry="18"/>
<text text-anchor="middle" x="1391" y="-14.3" font-family="Times,serif" font-size="14.00">uma</text>
</g>
<!-- 0&#45;&gt;17 -->
<g id="edge17" class="edge">
<title>0&#45;&gt;17</title>
<path fill="none" stroke="black" d="M941.54,-103.87C1003.13,-103.01 1149.41,-97.8 1268,-69 1300.23,-61.17 1335.09,-46.35 1359.44,-34.86"/>
<polygon fill="black" stroke="black" points="1361.05,-37.97 1368.55,-30.49 1358.02,-31.66 1361.05,-37.97"/>
<text text-anchor="middle" x="1327.5" y="-57.8" font-family="Times,serif" font-size="14.00">dep</text>
</g>
<!-- 18 -->
<g id="node19" class="node">
<title>18</title>
<ellipse fill="none" stroke="black" cx="1499" cy="-18" rx="59.59" ry="18"/>
<text text-anchor="middle" x="1499" y="-14.3" font-family="Times,serif" font-size="14.00">associação</text>
</g>
<!-- 0&#45;&gt;18 -->
<g id="edge18" class="edge">
<title>0&#45;&gt;18</title>
<path fill="none" stroke="black" d="M941.21,-103.98C1011.47,-103.41 1195.24,-98.94 1345,-69 1382.93,-61.42 1424.58,-47.54 1454.99,-36.33"/>
<polygon fill="black" stroke="black" points="1456.31,-39.57 1464.45,-32.79 1453.86,-33.01 1456.31,-39.57"/>
<text text-anchor="middle" x="1414.5" y="-57.8" font-family="Times,serif" font-size="14.00">dep</text>
</g>
<!-- 19 -->
<g id="node20" class="node">
<title>19</title>
<ellipse fill="none" stroke="black" cx="1604" cy="-18" rx="27" ry="18"/>
<text text-anchor="middle" x="1604" y="-14.3" font-family="Times,serif" font-size="14.00">de</text>
</g>
<!-- 0&#45;&gt;19 -->
<g id="edge19" class="edge">
<title>0&#45;&gt;19</title>
<path fill="none" stroke="black" d="M941.23,-103.78C1020.6,-102.8 1246.66,-97.51 1432,-69 1493.48,-59.54 1509.35,-56.72 1568,-36 1569.91,-35.33 1571.85,-34.59 1573.79,-33.8"/>
<polygon fill="black" stroke="black" points="1575.6,-36.83 1583.36,-29.62 1572.8,-30.41 1575.6,-36.83"/>
<text text-anchor="middle" x="1524.5" y="-57.8" font-family="Times,serif" font-size="14.00">dep</text>
</g>
<!-- 20 -->
<g id="node21" class="node">
<title>20</title>
<ellipse fill="none" stroke="black" cx="1728" cy="-18" rx="78.79" ry="18"/>
<text text-anchor="middle" x="1728" y="-14.3" font-family="Times,serif" font-size="14.00">multinacionais</text>
</g>
<!-- 0&#45;&gt;20 -->
<g id="edge20" class="edge">
<title>0&#45;&gt;20</title>
<path fill="none" stroke="black" d="M941.43,-104.52C1031.79,-105.65 1312.97,-105.74 1542,-69 1587.92,-61.63 1638.84,-47.52 1675.77,-36.15"/>
<polygon fill="black" stroke="black" points="1676.82,-39.49 1685.33,-33.18 1674.74,-32.81 1676.82,-39.49"/>
<text text-anchor="middle" x="1623.5" y="-57.8" font-family="Times,serif" font-size="14.00">dep</text>
</g>
<!-- 21 -->
<g id="node22" class="node">
<title>21</title>
<ellipse fill="none" stroke="black" cx="1852" cy="-18" rx="27" ry="18"/>
<text text-anchor="middle" x="1852" y="-14.3" font-family="Times,serif" font-size="14.00">.</text>
</g>
<!-- 0&#45;&gt;21 -->
<g id="edge21" class="edge">
<title>0&#45;&gt;21</title>
<path fill="none" stroke="black" d="M941.29,-104.05C1040.15,-103.89 1370.45,-100.85 1641,-69 1719.61,-59.75 1740.72,-60.43 1816,-36 1817.92,-35.38 1819.88,-34.67 1821.83,-33.92"/>
<polygon fill="black" stroke="black" points="1823.61,-36.96 1831.43,-29.81 1820.86,-30.53 1823.61,-36.96"/>
<text text-anchor="middle" x="1764.5" y="-57.8" font-family="Times,serif" font-size="14.00">dep</text>
</g>
</g>
</svg>
