<?xml version="1.0" encoding="UTF-8" standalone="no"?>
<!DOCTYPE svg PUBLIC "-//W3C//DTD SVG 1.1//EN"
 "http://www.w3.org/Graphics/SVG/1.1/DTD/svg11.dtd">
<!-- Generated by graphviz version 2.42.4 (0)
 -->
<!-- Pages: 1 -->
<svg width="746pt" height="131pt"
 viewBox="0.00 0.00 745.59 131.00" xmlns="http://www.w3.org/2000/svg" xmlns:xlink="http://www.w3.org/1999/xlink">
<g id="graph0" class="graph" transform="scale(1 1) rotate(0) translate(4 127)">
<polygon fill="white" stroke="transparent" points="-4,4 -4,-127 741.59,-127 741.59,4 -4,4"/>
<!-- 0 -->
<g id="node1" class="node">
<title>0</title>
<ellipse fill="none" stroke="black" cx="374.5" cy="-105" rx="29.8" ry="18"/>
<text text-anchor="middle" x="374.5" y="-101.3" font-family="Times,serif" font-size="14.00">José</text>
</g>
<!-- 1 -->
<g id="node2" class="node">
<title>1</title>
<ellipse fill="none" stroke="black" cx="45.5" cy="-18" rx="45.49" ry="18"/>
<text text-anchor="middle" x="45.5" y="-14.3" font-family="Times,serif" font-size="14.00">Vicente</text>
</g>
<!-- 0&#45;&gt;1 -->
<g id="edge1" class="edge">
<title>0&#45;&gt;1</title>
<path fill="none" stroke="black" d="M345.36,-100.2C307.62,-94.93 239.95,-84.29 183.5,-69 149.76,-59.87 112.56,-46.17 85.29,-35.42"/>
<polygon fill="black" stroke="black" points="86.31,-32.05 75.72,-31.6 83.72,-38.56 86.31,-32.05"/>
<text text-anchor="middle" x="197" y="-57.8" font-family="Times,serif" font-size="14.00">dep</text>
</g>
<!-- 2 -->
<g id="node3" class="node">
<title>2</title>
<ellipse fill="none" stroke="black" cx="147.5" cy="-18" rx="38.19" ry="18"/>
<text text-anchor="middle" x="147.5" y="-14.3" font-family="Times,serif" font-size="14.00">Lopes</text>
</g>
<!-- 0&#45;&gt;2 -->
<g id="edge2" class="edge">
<title>0&#45;&gt;2</title>
<path fill="none" stroke="black" d="M346.98,-97.94C321.13,-91.88 281.58,-81.65 248.5,-69 224.94,-59.99 199.5,-47.38 180.04,-37.07"/>
<polygon fill="black" stroke="black" points="181.47,-33.87 171.01,-32.23 178.16,-40.04 181.47,-33.87"/>
<text text-anchor="middle" x="262" y="-57.8" font-family="Times,serif" font-size="14.00">dep</text>
</g>
<!-- 3 -->
<g id="node4" class="node">
<title>3</title>
<ellipse fill="none" stroke="black" cx="230.5" cy="-18" rx="27" ry="18"/>
<text text-anchor="middle" x="230.5" y="-14.3" font-family="Times,serif" font-size="14.00">,</text>
</g>
<!-- 0&#45;&gt;3 -->
<g id="edge3" class="edge">
<title>0&#45;&gt;3</title>
<path fill="none" stroke="black" d="M350.62,-94.01C335.84,-87.51 316.67,-78.5 300.5,-69 284.86,-59.82 268.31,-48.1 255.23,-38.32"/>
<polygon fill="black" stroke="black" points="257.27,-35.47 247.18,-32.21 253.04,-41.04 257.27,-35.47"/>
<text text-anchor="middle" x="314" y="-57.8" font-family="Times,serif" font-size="14.00">dep</text>
</g>
<!-- 4 -->
<g id="node5" class="node">
<title>4</title>
<ellipse fill="none" stroke="black" cx="302.5" cy="-18" rx="27" ry="18"/>
<text text-anchor="middle" x="302.5" y="-14.3" font-family="Times,serif" font-size="14.00">em</text>
</g>
<!-- 0&#45;&gt;4 -->
<g id="edge4" class="edge">
<title>0&#45;&gt;4</title>
<path fill="none" stroke="black" d="M360.79,-88.78C355.35,-82.67 349.08,-75.55 343.5,-69 336.18,-60.41 328.29,-50.86 321.4,-42.43"/>
<polygon fill="black" stroke="black" points="323.93,-39.99 314.91,-34.44 318.5,-44.41 323.93,-39.99"/>
<text text-anchor="middle" x="357" y="-57.8" font-family="Times,serif" font-size="14.00">dep</text>
</g>
<!-- 5 -->
<g id="node6" class="node">
<title>5</title>
<ellipse fill="none" stroke="black" cx="374.5" cy="-18" rx="27" ry="18"/>
<text text-anchor="middle" x="374.5" y="-14.3" font-family="Times,serif" font-size="14.00">a</text>
</g>
<!-- 0&#45;&gt;5 -->
<g id="edge5" class="edge">
<title>0&#45;&gt;5</title>
<path fill="none" stroke="black" d="M374.5,-86.8C374.5,-75.16 374.5,-59.55 374.5,-46.24"/>
<polygon fill="black" stroke="black" points="378,-46.18 374.5,-36.18 371,-46.18 378,-46.18"/>
<text text-anchor="middle" x="388" y="-57.8" font-family="Times,serif" font-size="14.00">dep</text>
</g>
<!-- 6 -->
<g id="node7" class="node">
<title>6</title>
<ellipse fill="none" stroke="black" cx="462.5" cy="-18" rx="42.79" ry="18"/>
<text text-anchor="middle" x="462.5" y="-14.3" font-family="Times,serif" font-size="14.00">Cidade</text>
</g>
<!-- 0&#45;&gt;6 -->
<g id="edge6" class="edge">
<title>0&#45;&gt;6</title>
<path fill="none" stroke="black" d="M389.82,-89.19C403.37,-76.11 423.33,-56.83 438.9,-41.79"/>
<polygon fill="black" stroke="black" points="441.39,-44.25 446.15,-34.79 436.53,-39.22 441.39,-44.25"/>
<text text-anchor="middle" x="438" y="-57.8" font-family="Times,serif" font-size="14.00">dep</text>
</g>
<!-- 7 -->
<g id="node8" class="node">
<title>7</title>
<ellipse fill="none" stroke="black" cx="550.5" cy="-18" rx="27" ry="18"/>
<text text-anchor="middle" x="550.5" y="-14.3" font-family="Times,serif" font-size="14.00">de</text>
</g>
<!-- 0&#45;&gt;7 -->
<g id="edge7" class="edge">
<title>0&#45;&gt;7</title>
<path fill="none" stroke="black" d="M398.46,-94.21C414.7,-87.44 436.56,-78.06 455.5,-69 477.93,-58.27 502.79,-45.14 521.45,-35.02"/>
<polygon fill="black" stroke="black" points="523.23,-38.04 530.34,-30.18 519.88,-31.89 523.23,-38.04"/>
<text text-anchor="middle" x="499" y="-57.8" font-family="Times,serif" font-size="14.00">dep</text>
</g>
<!-- 8 -->
<g id="node9" class="node">
<title>8</title>
<ellipse fill="none" stroke="black" cx="622.5" cy="-18" rx="27" ry="18"/>
<text text-anchor="middle" x="622.5" y="-14.3" font-family="Times,serif" font-size="14.00">a</text>
</g>
<!-- 0&#45;&gt;8 -->
<g id="edge8" class="edge">
<title>0&#45;&gt;8</title>
<path fill="none" stroke="black" d="M402.73,-98.77C431.74,-92.99 477.97,-82.67 516.5,-69 548.91,-57.49 555.39,-50.68 586.5,-36 588.28,-35.16 590.11,-34.3 591.96,-33.42"/>
<polygon fill="black" stroke="black" points="593.63,-36.5 601.18,-29.07 590.64,-30.17 593.63,-36.5"/>
<text text-anchor="middle" x="565" y="-57.8" font-family="Times,serif" font-size="14.00">dep</text>
</g>
<!-- 9 -->
<g id="node10" class="node">
<title>9</title>
<ellipse fill="none" stroke="black" cx="702.5" cy="-18" rx="35.19" ry="18"/>
<text text-anchor="middle" x="702.5" y="-14.3" font-family="Times,serif" font-size="14.00">Praia</text>
</g>
<!-- 0&#45;&gt;9 -->
<g id="edge9" class="edge">
<title>0&#45;&gt;9</title>
<path fill="none" stroke="black" d="M403.9,-101.19C444.63,-96.82 520.22,-86.96 582.5,-69 612.61,-60.32 645.36,-46.34 669.03,-35.37"/>
<polygon fill="black" stroke="black" points="670.71,-38.45 678.27,-31.03 667.73,-32.12 670.71,-38.45"/>
<text text-anchor="middle" x="637" y="-57.8" font-family="Times,serif" font-size="14.00">dep</text>
</g>
</g>
</svg>
