<?xml version="1.0" encoding="UTF-8" standalone="no"?>
<!DOCTYPE svg PUBLIC "-//W3C//DTD SVG 1.1//EN"
 "http://www.w3.org/Graphics/SVG/1.1/DTD/svg11.dtd">
<!-- Generated by graphviz version 2.42.4 (0)
 -->
<!-- Pages: 1 -->
<svg width="2786pt" height="131pt"
 viewBox="0.00 0.00 2786.00 131.00" xmlns="http://www.w3.org/2000/svg" xmlns:xlink="http://www.w3.org/1999/xlink">
<g id="graph0" class="graph" transform="scale(1 1) rotate(0) translate(4 127)">
<polygon fill="white" stroke="transparent" points="-4,4 -4,-127 2782,-127 2782,4 -4,4"/>
<!-- 0 -->
<g id="node1" class="node">
<title>0</title>
<ellipse fill="none" stroke="black" cx="1315" cy="-105" rx="34.39" ry="18"/>
<text text-anchor="middle" x="1315" y="-101.3" font-family="Times,serif" font-size="14.00">Além</text>
</g>
<!-- 1 -->
<g id="node2" class="node">
<title>1</title>
<ellipse fill="none" stroke="black" cx="27" cy="-18" rx="27" ry="18"/>
<text text-anchor="middle" x="27" y="-14.3" font-family="Times,serif" font-size="14.00">de</text>
</g>
<!-- 0&#45;&gt;1 -->
<g id="edge1" class="edge">
<title>0&#45;&gt;1</title>
<path fill="none" stroke="black" d="M1280.45,-103.6C1099.81,-101.44 267.84,-90.38 155,-69 119.87,-62.34 82.01,-46.35 56.65,-34.23"/>
<polygon fill="black" stroke="black" points="58.1,-31.04 47.58,-29.8 55.03,-37.33 58.1,-31.04"/>
<text text-anchor="middle" x="168.5" y="-57.8" font-family="Times,serif" font-size="14.00">dep</text>
</g>
<!-- 2 -->
<g id="node3" class="node">
<title>2</title>
<ellipse fill="none" stroke="black" cx="99" cy="-18" rx="27" ry="18"/>
<text text-anchor="middle" x="99" y="-14.3" font-family="Times,serif" font-size="14.00">o</text>
</g>
<!-- 0&#45;&gt;2 -->
<g id="edge2" class="edge">
<title>0&#45;&gt;2</title>
<path fill="none" stroke="black" d="M1280.41,-104.02C1120.81,-103.93 454.51,-101.6 249,-69 196.9,-60.74 184.34,-54.65 135,-36 133.16,-35.3 131.28,-34.55 129.4,-33.76"/>
<polygon fill="black" stroke="black" points="130.64,-30.49 120.08,-29.64 127.81,-36.89 130.64,-30.49"/>
<text text-anchor="middle" x="262.5" y="-57.8" font-family="Times,serif" font-size="14.00">dep</text>
</g>
<!-- 3 -->
<g id="node4" class="node">
<title>3</title>
<ellipse fill="none" stroke="black" cx="193" cy="-18" rx="48.99" ry="18"/>
<text text-anchor="middle" x="193" y="-14.3" font-family="Times,serif" font-size="14.00">controle</text>
</g>
<!-- 0&#45;&gt;3 -->
<g id="edge3" class="edge">
<title>0&#45;&gt;3</title>
<path fill="none" stroke="black" d="M1280.45,-104.15C1128.95,-104.6 522.67,-104.14 336,-69 299.82,-62.19 260.44,-47.88 232.19,-36.3"/>
<polygon fill="black" stroke="black" points="233.26,-32.96 222.68,-32.34 230.57,-39.42 233.26,-32.96"/>
<text text-anchor="middle" x="349.5" y="-57.8" font-family="Times,serif" font-size="14.00">dep</text>
</g>
<!-- 4 -->
<g id="node5" class="node">
<title>4</title>
<ellipse fill="none" stroke="black" cx="287" cy="-18" rx="27" ry="18"/>
<text text-anchor="middle" x="287" y="-14.3" font-family="Times,serif" font-size="14.00">de</text>
</g>
<!-- 0&#45;&gt;4 -->
<g id="edge4" class="edge">
<title>0&#45;&gt;4</title>
<path fill="none" stroke="black" d="M1280.25,-104.01C1136.47,-103.84 587.79,-101.07 418,-69 382.15,-62.23 343.39,-46.25 317.4,-34.17"/>
<polygon fill="black" stroke="black" points="318.63,-30.88 308.1,-29.75 315.63,-37.2 318.63,-30.88"/>
<text text-anchor="middle" x="431.5" y="-57.8" font-family="Times,serif" font-size="14.00">dep</text>
</g>
<!-- 5 -->
<g id="node6" class="node">
<title>5</title>
<ellipse fill="none" stroke="black" cx="359" cy="-18" rx="27" ry="18"/>
<text text-anchor="middle" x="359" y="-14.3" font-family="Times,serif" font-size="14.00">a</text>
</g>
<!-- 0&#45;&gt;5 -->
<g id="edge5" class="edge">
<title>0&#45;&gt;5</title>
<path fill="none" stroke="black" d="M1280.27,-103.46C1147.21,-101.24 669.9,-91.82 520,-69 463.2,-60.35 448.98,-55.68 395,-36 393.15,-35.33 391.26,-34.59 389.38,-33.82"/>
<polygon fill="black" stroke="black" points="390.61,-30.54 380.05,-29.73 387.8,-36.95 390.61,-30.54"/>
<text text-anchor="middle" x="533.5" y="-57.8" font-family="Times,serif" font-size="14.00">dep</text>
</g>
<!-- 6 -->
<g id="node7" class="node">
<title>6</title>
<ellipse fill="none" stroke="black" cx="442" cy="-18" rx="38.19" ry="18"/>
<text text-anchor="middle" x="442" y="-14.3" font-family="Times,serif" font-size="14.00">venda</text>
</g>
<!-- 0&#45;&gt;6 -->
<g id="edge6" class="edge">
<title>0&#45;&gt;6</title>
<path fill="none" stroke="black" d="M1280.47,-104.45C1179.51,-105.31 876.27,-104.49 628,-69 565.14,-60.01 549.84,-54.16 489,-36 486.23,-35.17 483.39,-34.28 480.54,-33.34"/>
<polygon fill="black" stroke="black" points="481.51,-29.97 470.91,-30.04 479.24,-36.59 481.51,-29.97"/>
<text text-anchor="middle" x="641.5" y="-57.8" font-family="Times,serif" font-size="14.00">dep</text>
</g>
<!-- 7 -->
<g id="node8" class="node">
<title>7</title>
<ellipse fill="none" stroke="black" cx="558" cy="-18" rx="59.59" ry="18"/>
<text text-anchor="middle" x="558" y="-14.3" font-family="Times,serif" font-size="14.00">ambulante</text>
</g>
<!-- 0&#45;&gt;7 -->
<g id="edge7" class="edge">
<title>0&#45;&gt;7</title>
<path fill="none" stroke="black" d="M1280.39,-103.11C1169.74,-100.07 825.48,-89.2 716,-69 676.81,-61.77 633.78,-47.73 602.53,-36.36"/>
<polygon fill="black" stroke="black" points="603.41,-32.95 592.82,-32.77 600.99,-39.52 603.41,-32.95"/>
<text text-anchor="middle" x="729.5" y="-57.8" font-family="Times,serif" font-size="14.00">dep</text>
</g>
<!-- 8 -->
<g id="node9" class="node">
<title>8</title>
<ellipse fill="none" stroke="black" cx="663" cy="-18" rx="27" ry="18"/>
<text text-anchor="middle" x="663" y="-14.3" font-family="Times,serif" font-size="14.00">,</text>
</g>
<!-- 0&#45;&gt;8 -->
<g id="edge8" class="edge">
<title>0&#45;&gt;8</title>
<path fill="none" stroke="black" d="M1280.49,-104.47C1197.45,-104.98 980.25,-102.68 803,-69 755.36,-59.95 744.14,-53.73 699,-36 697.17,-35.28 695.29,-34.51 693.42,-33.71"/>
<polygon fill="black" stroke="black" points="694.67,-30.44 684.11,-29.55 691.81,-36.83 694.67,-30.44"/>
<text text-anchor="middle" x="816.5" y="-57.8" font-family="Times,serif" font-size="14.00">dep</text>
</g>
<!-- 9 -->
<g id="node10" class="node">
<title>9</title>
<ellipse fill="none" stroke="black" cx="735" cy="-18" rx="27" ry="18"/>
<text text-anchor="middle" x="735" y="-14.3" font-family="Times,serif" font-size="14.00">os</text>
</g>
<!-- 0&#45;&gt;9 -->
<g id="edge9" class="edge">
<title>0&#45;&gt;9</title>
<path fill="none" stroke="black" d="M1280.75,-102.38C1212.4,-98.83 1054.37,-89.05 923,-69 854.66,-58.57 836.46,-58.24 771,-36 769.09,-35.35 767.14,-34.63 765.19,-33.85"/>
<polygon fill="black" stroke="black" points="766.17,-30.47 755.61,-29.71 763.4,-36.89 766.17,-30.47"/>
<text text-anchor="middle" x="936.5" y="-57.8" font-family="Times,serif" font-size="14.00">dep</text>
</g>
<!-- 10 -->
<g id="node11" class="node">
<title>10</title>
<ellipse fill="none" stroke="black" cx="832" cy="-18" rx="51.99" ry="18"/>
<text text-anchor="middle" x="832" y="-14.3" font-family="Times,serif" font-size="14.00">efectivos</text>
</g>
<!-- 0&#45;&gt;10 -->
<g id="edge10" class="edge">
<title>0&#45;&gt;10</title>
<path fill="none" stroke="black" d="M1281.01,-101.68C1225.13,-97.5 1110.52,-87.39 1015,-69 959.84,-58.38 947.17,-50.87 893,-36 889,-34.9 884.86,-33.76 880.71,-32.61"/>
<polygon fill="black" stroke="black" points="881.61,-29.23 871.04,-29.93 879.74,-35.97 881.61,-29.23"/>
<text text-anchor="middle" x="1028.5" y="-57.8" font-family="Times,serif" font-size="14.00">dep</text>
</g>
<!-- 11 -->
<g id="node12" class="node">
<title>11</title>
<ellipse fill="none" stroke="black" cx="951" cy="-18" rx="49.29" ry="18"/>
<text text-anchor="middle" x="951" y="-14.3" font-family="Times,serif" font-size="14.00">acorrem</text>
</g>
<!-- 0&#45;&gt;11 -->
<g id="edge11" class="edge">
<title>0&#45;&gt;11</title>
<path fill="none" stroke="black" d="M1281.52,-100.65C1237.73,-95.82 1158.82,-85.63 1093,-69 1058.32,-60.24 1020.13,-46.55 992.1,-35.71"/>
<polygon fill="black" stroke="black" points="993.22,-32.39 982.64,-32.01 990.67,-38.91 993.22,-32.39"/>
<text text-anchor="middle" x="1106.5" y="-57.8" font-family="Times,serif" font-size="14.00">dep</text>
</g>
<!-- 12 -->
<g id="node13" class="node">
<title>12</title>
<ellipse fill="none" stroke="black" cx="1045" cy="-18" rx="27" ry="18"/>
<text text-anchor="middle" x="1045" y="-14.3" font-family="Times,serif" font-size="14.00">a</text>
</g>
<!-- 0&#45;&gt;12 -->
<g id="edge12" class="edge">
<title>0&#45;&gt;12</title>
<path fill="none" stroke="black" d="M1283.1,-98.06C1252.28,-91.98 1204.45,-81.65 1164,-69 1126.11,-57.15 1117.41,-51.82 1081,-36 1079.19,-35.22 1077.34,-34.39 1075.48,-33.56"/>
<polygon fill="black" stroke="black" points="1076.77,-30.29 1066.22,-29.29 1073.84,-36.65 1076.77,-30.29"/>
<text text-anchor="middle" x="1177.5" y="-57.8" font-family="Times,serif" font-size="14.00">dep</text>
</g>
<!-- 13 -->
<g id="node14" class="node">
<title>13</title>
<ellipse fill="none" stroke="black" cx="1117" cy="-18" rx="27" ry="18"/>
<text text-anchor="middle" x="1117" y="-14.3" font-family="Times,serif" font-size="14.00">as</text>
</g>
<!-- 0&#45;&gt;13 -->
<g id="edge13" class="edge">
<title>0&#45;&gt;13</title>
<path fill="none" stroke="black" d="M1288.59,-93.43C1271.54,-86.57 1248.91,-77.37 1229,-69 1195.05,-54.73 1186.54,-51.2 1153,-36 1151.21,-35.19 1149.36,-34.34 1147.51,-33.49"/>
<polygon fill="black" stroke="black" points="1148.81,-30.23 1138.27,-29.18 1145.85,-36.58 1148.81,-30.23"/>
<text text-anchor="middle" x="1242.5" y="-57.8" font-family="Times,serif" font-size="14.00">dep</text>
</g>
<!-- 14 -->
<g id="node15" class="node">
<title>14</title>
<ellipse fill="none" stroke="black" cx="1216" cy="-18" rx="53.89" ry="18"/>
<text text-anchor="middle" x="1216" y="-14.3" font-family="Times,serif" font-size="14.00">situações</text>
</g>
<!-- 0&#45;&gt;14 -->
<g id="edge14" class="edge">
<title>0&#45;&gt;14</title>
<path fill="none" stroke="black" d="M1297.76,-89.19C1282.48,-76.08 1259.94,-56.73 1242.4,-41.66"/>
<polygon fill="black" stroke="black" points="1244.6,-38.94 1234.73,-35.08 1240.04,-44.25 1244.6,-38.94"/>
<text text-anchor="middle" x="1285.5" y="-57.8" font-family="Times,serif" font-size="14.00">dep</text>
</g>
<!-- 15 -->
<g id="node16" class="node">
<title>15</title>
<ellipse fill="none" stroke="black" cx="1315" cy="-18" rx="27" ry="18"/>
<text text-anchor="middle" x="1315" y="-14.3" font-family="Times,serif" font-size="14.00">de</text>
</g>
<!-- 0&#45;&gt;15 -->
<g id="edge15" class="edge">
<title>0&#45;&gt;15</title>
<path fill="none" stroke="black" d="M1315,-86.8C1315,-75.16 1315,-59.55 1315,-46.24"/>
<polygon fill="black" stroke="black" points="1318.5,-46.18 1315,-36.18 1311.5,-46.18 1318.5,-46.18"/>
<text text-anchor="middle" x="1328.5" y="-57.8" font-family="Times,serif" font-size="14.00">dep</text>
</g>
<!-- 16 -->
<g id="node17" class="node">
<title>16</title>
<ellipse fill="none" stroke="black" cx="1418" cy="-18" rx="57.69" ry="18"/>
<text text-anchor="middle" x="1418" y="-14.3" font-family="Times,serif" font-size="14.00">catástrofe</text>
</g>
<!-- 0&#45;&gt;16 -->
<g id="edge16" class="edge">
<title>0&#45;&gt;16</title>
<path fill="none" stroke="black" d="M1332.94,-89.19C1348.84,-76.08 1372.28,-56.73 1390.54,-41.66"/>
<polygon fill="black" stroke="black" points="1393.03,-44.15 1398.51,-35.08 1388.57,-38.75 1393.03,-44.15"/>
<text text-anchor="middle" x="1386.5" y="-57.8" font-family="Times,serif" font-size="14.00">dep</text>
</g>
<!-- 17 -->
<g id="node18" class="node">
<title>17</title>
<ellipse fill="none" stroke="black" cx="1521" cy="-18" rx="27" ry="18"/>
<text text-anchor="middle" x="1521" y="-14.3" font-family="Times,serif" font-size="14.00">,</text>
</g>
<!-- 0&#45;&gt;17 -->
<g id="edge17" class="edge">
<title>0&#45;&gt;17</title>
<path fill="none" stroke="black" d="M1342.02,-93.83C1375.76,-81 1435.09,-57.93 1485,-36 1486.8,-35.21 1488.65,-34.38 1490.51,-33.54"/>
<polygon fill="black" stroke="black" points="1492.16,-36.63 1499.77,-29.26 1489.22,-30.28 1492.16,-36.63"/>
<text text-anchor="middle" x="1452.5" y="-57.8" font-family="Times,serif" font-size="14.00">dep</text>
</g>
<!-- 18 -->
<g id="node19" class="node">
<title>18</title>
<ellipse fill="none" stroke="black" cx="1623" cy="-18" rx="56.59" ry="18"/>
<text text-anchor="middle" x="1623" y="-14.3" font-family="Times,serif" font-size="14.00">fiscalizam</text>
</g>
<!-- 0&#45;&gt;18 -->
<g id="edge18" class="edge">
<title>0&#45;&gt;18</title>
<path fill="none" stroke="black" d="M1346.68,-97.75C1378.16,-91.33 1427.71,-80.66 1470,-69 1506.31,-58.99 1546.79,-45.66 1576.99,-35.29"/>
<polygon fill="black" stroke="black" points="1578.51,-38.46 1586.81,-31.89 1576.22,-31.85 1578.51,-38.46"/>
<text text-anchor="middle" x="1530.5" y="-57.8" font-family="Times,serif" font-size="14.00">dep</text>
</g>
<!-- 19 -->
<g id="node20" class="node">
<title>19</title>
<ellipse fill="none" stroke="black" cx="1742" cy="-18" rx="44.39" ry="18"/>
<text text-anchor="middle" x="1742" y="-14.3" font-family="Times,serif" font-size="14.00">bairros</text>
</g>
<!-- 0&#45;&gt;19 -->
<g id="edge19" class="edge">
<title>0&#45;&gt;19</title>
<path fill="none" stroke="black" d="M1348.33,-99.86C1393.68,-94.02 1477.3,-82.56 1548,-69 1611.21,-56.88 1626.97,-53.18 1689,-36 1692.36,-35.07 1695.83,-34.06 1699.3,-33.02"/>
<polygon fill="black" stroke="black" points="1700.52,-36.31 1709.04,-30.02 1698.46,-29.62 1700.52,-36.31"/>
<text text-anchor="middle" x="1632.5" y="-57.8" font-family="Times,serif" font-size="14.00">dep</text>
</g>
<!-- 20 -->
<g id="node21" class="node">
<title>20</title>
<ellipse fill="none" stroke="black" cx="1869" cy="-18" rx="64.99" ry="18"/>
<text text-anchor="middle" x="1869" y="-14.3" font-family="Times,serif" font-size="14.00">degradados</text>
</g>
<!-- 0&#45;&gt;20 -->
<g id="edge20" class="edge">
<title>0&#45;&gt;20</title>
<path fill="none" stroke="black" d="M1348.94,-101.8C1409.64,-97.57 1540.67,-87.09 1650,-69 1715.21,-58.21 1730.57,-50.73 1795,-36 1800.01,-34.85 1805.21,-33.66 1810.43,-32.47"/>
<polygon fill="black" stroke="black" points="1811.48,-35.82 1820.44,-30.17 1809.91,-28.99 1811.48,-35.82"/>
<text text-anchor="middle" x="1734.5" y="-57.8" font-family="Times,serif" font-size="14.00">dep</text>
</g>
<!-- 21 -->
<g id="node22" class="node">
<title>21</title>
<ellipse fill="none" stroke="black" cx="1979" cy="-18" rx="27" ry="18"/>
<text text-anchor="middle" x="1979" y="-14.3" font-family="Times,serif" font-size="14.00">,</text>
</g>
<!-- 0&#45;&gt;21 -->
<g id="edge21" class="edge">
<title>0&#45;&gt;21</title>
<path fill="none" stroke="black" d="M1349.11,-102.33C1422.84,-98.48 1602.49,-87.86 1752,-69 1837.47,-58.22 1860.86,-61.96 1943,-36 1944.93,-35.39 1946.88,-34.7 1948.84,-33.95"/>
<polygon fill="black" stroke="black" points="1950.61,-37 1958.45,-29.87 1947.87,-30.56 1950.61,-37"/>
<text text-anchor="middle" x="1885.5" y="-57.8" font-family="Times,serif" font-size="14.00">dep</text>
</g>
<!-- 22 -->
<g id="node23" class="node">
<title>22</title>
<ellipse fill="none" stroke="black" cx="2056" cy="-18" rx="31.7" ry="18"/>
<text text-anchor="middle" x="2056" y="-14.3" font-family="Times,serif" font-size="14.00">para</text>
</g>
<!-- 0&#45;&gt;22 -->
<g id="edge22" class="edge">
<title>0&#45;&gt;22</title>
<path fill="none" stroke="black" d="M1349.45,-104.66C1440.58,-105.83 1695.23,-105.31 1903,-69 1954.12,-60.07 1966.07,-53.3 2015,-36 2017.27,-35.2 2019.59,-34.34 2021.93,-33.45"/>
<polygon fill="black" stroke="black" points="2023.44,-36.61 2031.45,-29.68 2020.86,-30.11 2023.44,-36.61"/>
<text text-anchor="middle" x="1977.5" y="-57.8" font-family="Times,serif" font-size="14.00">dep</text>
</g>
<!-- 23 -->
<g id="node24" class="node">
<title>23</title>
<ellipse fill="none" stroke="black" cx="2144" cy="-18" rx="38.19" ry="18"/>
<text text-anchor="middle" x="2144" y="-14.3" font-family="Times,serif" font-size="14.00">evitar</text>
</g>
<!-- 0&#45;&gt;23 -->
<g id="edge23" class="edge">
<title>0&#45;&gt;23</title>
<path fill="none" stroke="black" d="M1349.58,-103.41C1469.82,-101.19 1869.15,-92.18 1995,-69 2034.3,-61.76 2077.39,-46.44 2107.08,-34.66"/>
<polygon fill="black" stroke="black" points="2108.65,-37.8 2116.61,-30.81 2106.03,-31.31 2108.65,-37.8"/>
<text text-anchor="middle" x="2063.5" y="-57.8" font-family="Times,serif" font-size="14.00">dep</text>
</g>
<!-- 24 -->
<g id="node25" class="node">
<title>24</title>
<ellipse fill="none" stroke="black" cx="2227" cy="-18" rx="27" ry="18"/>
<text text-anchor="middle" x="2227" y="-14.3" font-family="Times,serif" font-size="14.00">o</text>
</g>
<!-- 0&#45;&gt;24 -->
<g id="edge24" class="edge">
<title>0&#45;&gt;24</title>
<path fill="none" stroke="black" d="M1349.37,-103.55C1478.88,-101.68 1937.29,-93.45 2081,-69 2131.32,-60.44 2143.34,-54.28 2191,-36 2192.84,-35.29 2194.72,-34.54 2196.6,-33.74"/>
<polygon fill="black" stroke="black" points="2198.19,-36.86 2205.91,-29.6 2195.35,-30.47 2198.19,-36.86"/>
<text text-anchor="middle" x="2156.5" y="-57.8" font-family="Times,serif" font-size="14.00">dep</text>
</g>
<!-- 25 -->
<g id="node26" class="node">
<title>25</title>
<ellipse fill="none" stroke="black" cx="2346" cy="-18" rx="74.19" ry="18"/>
<text text-anchor="middle" x="2346" y="-14.3" font-family="Times,serif" font-size="14.00">aparecimento</text>
</g>
<!-- 0&#45;&gt;25 -->
<g id="edge25" class="edge">
<title>0&#45;&gt;25</title>
<path fill="none" stroke="black" d="M1349.65,-103.71C1489.32,-102.35 2011.23,-95.57 2174,-69 2216.32,-62.09 2262.95,-48.12 2296.97,-36.7"/>
<polygon fill="black" stroke="black" points="2298.32,-39.93 2306.66,-33.4 2296.07,-33.31 2298.32,-39.93"/>
<text text-anchor="middle" x="2250.5" y="-57.8" font-family="Times,serif" font-size="14.00">dep</text>
</g>
<!-- 26 -->
<g id="node27" class="node">
<title>26</title>
<ellipse fill="none" stroke="black" cx="2465" cy="-18" rx="27" ry="18"/>
<text text-anchor="middle" x="2465" y="-14.3" font-family="Times,serif" font-size="14.00">de</text>
</g>
<!-- 0&#45;&gt;26 -->
<g id="edge26" class="edge">
<title>0&#45;&gt;26</title>
<path fill="none" stroke="black" d="M1349.54,-103.5C1498.26,-101.22 2084.82,-90.98 2268,-69 2340.52,-60.3 2359.7,-59.09 2429,-36 2430.92,-35.36 2432.87,-34.65 2434.82,-33.88"/>
<polygon fill="black" stroke="black" points="2436.6,-36.92 2444.41,-29.76 2433.84,-30.49 2436.6,-36.92"/>
<text text-anchor="middle" x="2380.5" y="-57.8" font-family="Times,serif" font-size="14.00">dep</text>
</g>
<!-- 27 -->
<g id="node28" class="node">
<title>27</title>
<ellipse fill="none" stroke="black" cx="2548" cy="-18" rx="37.89" ry="18"/>
<text text-anchor="middle" x="2548" y="-14.3" font-family="Times,serif" font-size="14.00">novas</text>
</g>
<!-- 0&#45;&gt;27 -->
<g id="edge27" class="edge">
<title>0&#45;&gt;27</title>
<path fill="none" stroke="black" d="M1349.62,-104.17C1510.9,-104.77 2189.46,-105.05 2398,-69 2437.86,-62.11 2481.52,-46.59 2511.41,-34.65"/>
<polygon fill="black" stroke="black" points="2513.05,-37.77 2520.99,-30.76 2510.41,-31.28 2513.05,-37.77"/>
<text text-anchor="middle" x="2470.5" y="-57.8" font-family="Times,serif" font-size="14.00">dep</text>
</g>
<!-- 28 -->
<g id="node29" class="node">
<title>28</title>
<ellipse fill="none" stroke="black" cx="2655" cy="-18" rx="51.19" ry="18"/>
<text text-anchor="middle" x="2655" y="-14.3" font-family="Times,serif" font-size="14.00">barracas</text>
</g>
<!-- 0&#45;&gt;28 -->
<g id="edge28" class="edge">
<title>0&#45;&gt;28</title>
<path fill="none" stroke="black" d="M1349.62,-104.18C1518.91,-104.89 2260.48,-105.8 2488,-69 2531.24,-62.01 2578.96,-46.94 2612.27,-35.17"/>
<polygon fill="black" stroke="black" points="2613.47,-38.46 2621.7,-31.79 2611.11,-31.87 2613.47,-38.46"/>
<text text-anchor="middle" x="2567.5" y="-57.8" font-family="Times,serif" font-size="14.00">dep</text>
</g>
<!-- 29 -->
<g id="node30" class="node">
<title>29</title>
<ellipse fill="none" stroke="black" cx="2751" cy="-18" rx="27" ry="18"/>
<text text-anchor="middle" x="2751" y="-14.3" font-family="Times,serif" font-size="14.00">.</text>
</g>
<!-- 0&#45;&gt;29 -->
<g id="edge29" class="edge">
<title>0&#45;&gt;29</title>
<path fill="none" stroke="black" d="M1349.48,-104.08C1526.7,-104.33 2336.49,-103.53 2585,-69 2644.04,-60.8 2658.9,-56.15 2715,-36 2716.85,-35.33 2718.74,-34.61 2720.63,-33.84"/>
<polygon fill="black" stroke="black" points="2722.2,-36.97 2729.97,-29.76 2719.4,-30.55 2722.2,-36.97"/>
<text text-anchor="middle" x="2673.5" y="-57.8" font-family="Times,serif" font-size="14.00">dep</text>
</g>
</g>
</svg>
