<?xml version="1.0" encoding="UTF-8" standalone="no"?>
<!DOCTYPE svg PUBLIC "-//W3C//DTD SVG 1.1//EN"
 "http://www.w3.org/Graphics/SVG/1.1/DTD/svg11.dtd">
<!-- Generated by graphviz version 2.42.4 (0)
 -->
<!-- Pages: 1 -->
<svg width="1251pt" height="131pt"
 viewBox="0.00 0.00 1251.00 131.00" xmlns="http://www.w3.org/2000/svg" xmlns:xlink="http://www.w3.org/1999/xlink">
<g id="graph0" class="graph" transform="scale(1 1) rotate(0) translate(4 127)">
<polygon fill="white" stroke="transparent" points="-4,4 -4,-127 1247,-127 1247,4 -4,4"/>
<!-- 0 -->
<g id="node1" class="node">
<title>0</title>
<ellipse fill="none" stroke="black" cx="619" cy="-105" rx="29.5" ry="18"/>
<text text-anchor="middle" x="619" y="-101.3" font-family="Times,serif" font-size="14.00">Não</text>
</g>
<!-- 1 -->
<g id="node2" class="node">
<title>1</title>
<ellipse fill="none" stroke="black" cx="27" cy="-18" rx="27" ry="18"/>
<text text-anchor="middle" x="27" y="-14.3" font-family="Times,serif" font-size="14.00">sei</text>
</g>
<!-- 0&#45;&gt;1 -->
<g id="edge1" class="edge">
<title>0&#45;&gt;1</title>
<path fill="none" stroke="black" d="M589.5,-104.54C515.37,-105.31 315.67,-103.71 154,-69 119.49,-61.59 82.14,-45.87 56.94,-34.03"/>
<polygon fill="black" stroke="black" points="58.44,-30.86 47.91,-29.7 55.41,-37.18 58.44,-30.86"/>
<text text-anchor="middle" x="167.5" y="-57.8" font-family="Times,serif" font-size="14.00">dep</text>
</g>
<!-- 2 -->
<g id="node3" class="node">
<title>2</title>
<ellipse fill="none" stroke="black" cx="99" cy="-18" rx="27" ry="18"/>
<text text-anchor="middle" x="99" y="-14.3" font-family="Times,serif" font-size="14.00">se</text>
</g>
<!-- 0&#45;&gt;2 -->
<g id="edge2" class="edge">
<title>0&#45;&gt;2</title>
<path fill="none" stroke="black" d="M589.86,-103.34C526.16,-101.45 369.98,-94.39 242,-69 193.19,-59.31 181.4,-54 135,-36 133.16,-35.29 131.29,-34.52 129.41,-33.73"/>
<polygon fill="black" stroke="black" points="130.66,-30.45 120.1,-29.58 127.81,-36.85 130.66,-30.45"/>
<text text-anchor="middle" x="255.5" y="-57.8" font-family="Times,serif" font-size="14.00">dep</text>
</g>
<!-- 3 -->
<g id="node4" class="node">
<title>3</title>
<ellipse fill="none" stroke="black" cx="171" cy="-18" rx="27" ry="18"/>
<text text-anchor="middle" x="171" y="-14.3" font-family="Times,serif" font-size="14.00">os</text>
</g>
<!-- 0&#45;&gt;3 -->
<g id="edge3" class="edge">
<title>0&#45;&gt;3</title>
<path fill="none" stroke="black" d="M590.04,-102.34C521.72,-97.76 345.81,-82.07 207,-36 205.08,-35.36 203.13,-34.65 201.18,-33.89"/>
<polygon fill="black" stroke="black" points="202.16,-30.5 191.59,-29.76 199.39,-36.93 202.16,-30.5"/>
<text text-anchor="middle" x="342.5" y="-57.8" font-family="Times,serif" font-size="14.00">dep</text>
</g>
<!-- 4 -->
<g id="node5" class="node">
<title>4</title>
<ellipse fill="none" stroke="black" cx="276" cy="-18" rx="59.59" ry="18"/>
<text text-anchor="middle" x="276" y="-14.3" font-family="Times,serif" font-size="14.00">jornalistas</text>
</g>
<!-- 0&#45;&gt;4 -->
<g id="edge4" class="edge">
<title>0&#45;&gt;4</title>
<path fill="none" stroke="black" d="M591.6,-98.69C558.94,-92.25 502.78,-80.76 455,-69 411.47,-58.29 362.46,-44.47 326.75,-34.08"/>
<polygon fill="black" stroke="black" points="327.62,-30.69 317.04,-31.25 325.66,-37.41 327.62,-30.69"/>
<text text-anchor="middle" x="468.5" y="-57.8" font-family="Times,serif" font-size="14.00">dep</text>
</g>
<!-- 5 -->
<g id="node6" class="node">
<title>5</title>
<ellipse fill="none" stroke="black" cx="390" cy="-18" rx="36" ry="18"/>
<text text-anchor="middle" x="390" y="-14.3" font-family="Times,serif" font-size="14.00">estão</text>
</g>
<!-- 0&#45;&gt;5 -->
<g id="edge5" class="edge">
<title>0&#45;&gt;5</title>
<path fill="none" stroke="black" d="M594.57,-95.04C559.31,-82.08 492.1,-57.34 435,-36 432.45,-35.05 429.82,-34.06 427.16,-33.06"/>
<polygon fill="black" stroke="black" points="428.19,-29.71 417.59,-29.46 425.72,-36.26 428.19,-29.71"/>
<text text-anchor="middle" x="534.5" y="-57.8" font-family="Times,serif" font-size="14.00">dep</text>
</g>
<!-- 6 -->
<g id="node7" class="node">
<title>6</title>
<ellipse fill="none" stroke="black" cx="509" cy="-18" rx="64.99" ry="18"/>
<text text-anchor="middle" x="509" y="-14.3" font-family="Times,serif" font-size="14.00">conscientes</text>
</g>
<!-- 0&#45;&gt;6 -->
<g id="edge6" class="edge">
<title>0&#45;&gt;6</title>
<path fill="none" stroke="black" d="M601.33,-90.34C584.25,-77.14 558.07,-56.92 537.95,-41.37"/>
<polygon fill="black" stroke="black" points="540.07,-38.58 530.01,-35.24 535.79,-44.12 540.07,-38.58"/>
<text text-anchor="middle" x="584.5" y="-57.8" font-family="Times,serif" font-size="14.00">dep</text>
</g>
<!-- 7 -->
<g id="node8" class="node">
<title>7</title>
<ellipse fill="none" stroke="black" cx="619" cy="-18" rx="27" ry="18"/>
<text text-anchor="middle" x="619" y="-14.3" font-family="Times,serif" font-size="14.00">de</text>
</g>
<!-- 0&#45;&gt;7 -->
<g id="edge7" class="edge">
<title>0&#45;&gt;7</title>
<path fill="none" stroke="black" d="M619,-86.8C619,-75.16 619,-59.55 619,-46.24"/>
<polygon fill="black" stroke="black" points="622.5,-46.18 619,-36.18 615.5,-46.18 622.5,-46.18"/>
<text text-anchor="middle" x="632.5" y="-57.8" font-family="Times,serif" font-size="14.00">dep</text>
</g>
<!-- 8 -->
<g id="node9" class="node">
<title>8</title>
<ellipse fill="none" stroke="black" cx="691" cy="-18" rx="27" ry="18"/>
<text text-anchor="middle" x="691" y="-14.3" font-family="Times,serif" font-size="14.00">a</text>
</g>
<!-- 0&#45;&gt;8 -->
<g id="edge8" class="edge">
<title>0&#45;&gt;8</title>
<path fill="none" stroke="black" d="M632.71,-88.78C638.14,-82.67 644.42,-75.55 650,-69 657.32,-60.41 665.21,-50.86 672.1,-42.43"/>
<polygon fill="black" stroke="black" points="675,-44.41 678.59,-34.44 669.56,-39.99 675,-44.41"/>
<text text-anchor="middle" x="676.5" y="-57.8" font-family="Times,serif" font-size="14.00">dep</text>
</g>
<!-- 9 -->
<g id="node10" class="node">
<title>9</title>
<ellipse fill="none" stroke="black" cx="780" cy="-18" rx="43.59" ry="18"/>
<text text-anchor="middle" x="780" y="-14.3" font-family="Times,serif" font-size="14.00">grande</text>
</g>
<!-- 0&#45;&gt;9 -->
<g id="edge9" class="edge">
<title>0&#45;&gt;9</title>
<path fill="none" stroke="black" d="M642.24,-93.81C657.19,-87.09 676.94,-77.92 694,-69 712.04,-59.57 731.7,-48.22 747.66,-38.73"/>
<polygon fill="black" stroke="black" points="749.81,-41.52 756.59,-33.38 746.22,-35.51 749.81,-41.52"/>
<text text-anchor="middle" x="734.5" y="-57.8" font-family="Times,serif" font-size="14.00">dep</text>
</g>
<!-- 10 -->
<g id="node11" class="node">
<title>10</title>
<ellipse fill="none" stroke="black" cx="931" cy="-18" rx="89.88" ry="18"/>
<text text-anchor="middle" x="931" y="-14.3" font-family="Times,serif" font-size="14.00">responsabilidade</text>
</g>
<!-- 0&#45;&gt;10 -->
<g id="edge10" class="edge">
<title>0&#45;&gt;10</title>
<path fill="none" stroke="black" d="M645.53,-97.14C672.39,-90.17 715.13,-79 752,-69 791.82,-58.2 836.52,-45.71 871.29,-35.92"/>
<polygon fill="black" stroke="black" points="872.61,-39.19 881.29,-33.1 870.71,-32.45 872.61,-39.19"/>
<text text-anchor="middle" x="820.5" y="-57.8" font-family="Times,serif" font-size="14.00">dep</text>
</g>
<!-- 11 -->
<g id="node12" class="node">
<title>11</title>
<ellipse fill="none" stroke="black" cx="1067" cy="-18" rx="27.9" ry="18"/>
<text text-anchor="middle" x="1067" y="-14.3" font-family="Times,serif" font-size="14.00">que</text>
</g>
<!-- 0&#45;&gt;11 -->
<g id="edge11" class="edge">
<title>0&#45;&gt;11</title>
<path fill="none" stroke="black" d="M648.02,-101.93C716.1,-96.49 890.8,-79.13 1030,-36 1032.14,-35.34 1034.32,-34.58 1036.49,-33.76"/>
<polygon fill="black" stroke="black" points="1037.96,-36.93 1045.85,-29.86 1035.27,-30.47 1037.96,-36.93"/>
<text text-anchor="middle" x="967.5" y="-57.8" font-family="Times,serif" font-size="14.00">dep</text>
</g>
<!-- 12 -->
<g id="node13" class="node">
<title>12</title>
<ellipse fill="none" stroke="black" cx="1142" cy="-18" rx="28.7" ry="18"/>
<text text-anchor="middle" x="1142" y="-14.3" font-family="Times,serif" font-size="14.00">têm</text>
</g>
<!-- 0&#45;&gt;12 -->
<g id="edge12" class="edge">
<title>0&#45;&gt;12</title>
<path fill="none" stroke="black" d="M648.18,-102.94C710.51,-100.31 861.04,-91.93 985,-69 1038.97,-59.02 1052.36,-54.59 1104,-36 1106.1,-35.24 1108.25,-34.42 1110.4,-33.56"/>
<polygon fill="black" stroke="black" points="1111.87,-36.74 1119.72,-29.64 1109.15,-30.29 1111.87,-36.74"/>
<text text-anchor="middle" x="1063.5" y="-57.8" font-family="Times,serif" font-size="14.00">dep</text>
</g>
<!-- 13 -->
<g id="node14" class="node">
<title>13</title>
<ellipse fill="none" stroke="black" cx="1216" cy="-18" rx="27" ry="18"/>
<text text-anchor="middle" x="1216" y="-14.3" font-family="Times,serif" font-size="14.00">.</text>
</g>
<!-- 0&#45;&gt;13 -->
<g id="edge13" class="edge">
<title>0&#45;&gt;13</title>
<path fill="none" stroke="black" d="M648.26,-104.26C721.79,-104.39 919.94,-101.43 1081,-69 1126.47,-59.85 1136.95,-53.27 1180,-36 1181.83,-35.27 1183.7,-34.49 1185.57,-33.68"/>
<polygon fill="black" stroke="black" points="1187.18,-36.79 1194.87,-29.49 1184.31,-30.41 1187.18,-36.79"/>
<text text-anchor="middle" x="1148.5" y="-57.8" font-family="Times,serif" font-size="14.00">dep</text>
</g>
</g>
</svg>
