<?xml version="1.0" encoding="UTF-8" standalone="no"?>
<!DOCTYPE svg PUBLIC "-//W3C//DTD SVG 1.1//EN"
 "http://www.w3.org/Graphics/SVG/1.1/DTD/svg11.dtd">
<!-- Generated by graphviz version 2.42.4 (0)
 -->
<!-- Pages: 1 -->
<svg width="1349pt" height="131pt"
 viewBox="0.00 0.00 1349.05 131.00" xmlns="http://www.w3.org/2000/svg" xmlns:xlink="http://www.w3.org/1999/xlink">
<g id="graph0" class="graph" transform="scale(1 1) rotate(0) translate(4 127)">
<polygon fill="white" stroke="transparent" points="-4,4 -4,-127 1345.05,-127 1345.05,4 -4,4"/>
<!-- 0 -->
<g id="node1" class="node">
<title>0</title>
<ellipse fill="none" stroke="black" cx="703.05" cy="-105" rx="27" ry="18"/>
<text text-anchor="middle" x="703.05" y="-101.3" font-family="Times,serif" font-size="14.00">Há</text>
</g>
<!-- 1 -->
<g id="node2" class="node">
<title>1</title>
<ellipse fill="none" stroke="black" cx="50.05" cy="-18" rx="50.09" ry="18"/>
<text text-anchor="middle" x="50.05" y="-14.3" font-family="Times,serif" font-size="14.00">algumas</text>
</g>
<!-- 0&#45;&gt;1 -->
<g id="edge1" class="edge">
<title>0&#45;&gt;1</title>
<path fill="none" stroke="black" d="M675.94,-103.22C606.02,-100.93 414.03,-92.79 256.05,-69 200.74,-60.67 138.5,-44.61 97.05,-32.93"/>
<polygon fill="black" stroke="black" points="97.82,-29.51 87.24,-30.14 95.9,-36.24 97.82,-29.51"/>
<text text-anchor="middle" x="269.55" y="-57.8" font-family="Times,serif" font-size="14.00">dep</text>
</g>
<!-- 2 -->
<g id="node3" class="node">
<title>2</title>
<ellipse fill="none" stroke="black" cx="158.05" cy="-18" rx="40.09" ry="18"/>
<text text-anchor="middle" x="158.05" y="-14.3" font-family="Times,serif" font-size="14.00">brigas</text>
</g>
<!-- 0&#45;&gt;2 -->
<g id="edge2" class="edge">
<title>0&#45;&gt;2</title>
<path fill="none" stroke="black" d="M676.21,-102.79C600.92,-98.88 381.82,-83.89 207.05,-36 204.06,-35.18 200.99,-34.28 197.92,-33.32"/>
<polygon fill="black" stroke="black" points="198.76,-29.92 188.17,-30.16 196.6,-36.57 198.76,-29.92"/>
<text text-anchor="middle" x="368.55" y="-57.8" font-family="Times,serif" font-size="14.00">dep</text>
</g>
<!-- 3 -->
<g id="node4" class="node">
<title>3</title>
<ellipse fill="none" stroke="black" cx="280.05" cy="-18" rx="63.89" ry="18"/>
<text text-anchor="middle" x="280.05" y="-14.3" font-family="Times,serif" font-size="14.00">engraçadas</text>
</g>
<!-- 0&#45;&gt;3 -->
<g id="edge3" class="edge">
<title>0&#45;&gt;3</title>
<path fill="none" stroke="black" d="M676.49,-101.33C631.45,-96.56 537.36,-85.48 459.05,-69 415.03,-59.74 365.88,-45.74 330.23,-34.91"/>
<polygon fill="black" stroke="black" points="331.14,-31.52 320.55,-31.94 329.09,-38.22 331.14,-31.52"/>
<text text-anchor="middle" x="472.55" y="-57.8" font-family="Times,serif" font-size="14.00">dep</text>
</g>
<!-- 4 -->
<g id="node5" class="node">
<title>4</title>
<ellipse fill="none" stroke="black" cx="397.05" cy="-18" rx="36" ry="18"/>
<text text-anchor="middle" x="397.05" y="-14.3" font-family="Times,serif" font-size="14.00">entre</text>
</g>
<!-- 0&#45;&gt;4 -->
<g id="edge4" class="edge">
<title>0&#45;&gt;4</title>
<path fill="none" stroke="black" d="M677.17,-99.73C643.95,-94 584.68,-82.91 535.05,-69 492.81,-57.17 483.23,-51.08 442.05,-36 439.49,-35.06 436.85,-34.09 434.2,-33.1"/>
<polygon fill="black" stroke="black" points="435.21,-29.74 424.62,-29.52 432.76,-36.3 435.21,-29.74"/>
<text text-anchor="middle" x="548.55" y="-57.8" font-family="Times,serif" font-size="14.00">dep</text>
</g>
<!-- 5 -->
<g id="node6" class="node">
<title>5</title>
<ellipse fill="none" stroke="black" cx="493.05" cy="-18" rx="42.49" ry="18"/>
<text text-anchor="middle" x="493.05" y="-14.3" font-family="Times,serif" font-size="14.00">irmãos</text>
</g>
<!-- 0&#45;&gt;5 -->
<g id="edge5" class="edge">
<title>0&#45;&gt;5</title>
<path fill="none" stroke="black" d="M678.55,-96.77C657.07,-90.21 625.14,-79.92 598.05,-69 574.28,-59.42 548.28,-47.05 528.09,-37.01"/>
<polygon fill="black" stroke="black" points="529.48,-33.8 518.97,-32.44 526.34,-40.05 529.48,-33.8"/>
<text text-anchor="middle" x="611.55" y="-57.8" font-family="Times,serif" font-size="14.00">dep</text>
</g>
<!-- 6 -->
<g id="node7" class="node">
<title>6</title>
<ellipse fill="none" stroke="black" cx="580.05" cy="-18" rx="27" ry="18"/>
<text text-anchor="middle" x="580.05" y="-14.3" font-family="Times,serif" font-size="14.00">,</text>
</g>
<!-- 0&#45;&gt;6 -->
<g id="edge6" class="edge">
<title>0&#45;&gt;6</title>
<path fill="none" stroke="black" d="M684.29,-91.86C674.1,-85.2 661.32,-76.74 650.05,-69 635.3,-58.87 619.03,-47.28 605.89,-37.8"/>
<polygon fill="black" stroke="black" points="607.91,-34.94 597.76,-31.92 603.81,-40.62 607.91,-34.94"/>
<text text-anchor="middle" x="663.55" y="-57.8" font-family="Times,serif" font-size="14.00">dep</text>
</g>
<!-- 7 -->
<g id="node8" class="node">
<title>7</title>
<ellipse fill="none" stroke="black" cx="662.05" cy="-18" rx="37.09" ry="18"/>
<text text-anchor="middle" x="662.05" y="-14.3" font-family="Times,serif" font-size="14.00">cenas</text>
</g>
<!-- 0&#45;&gt;7 -->
<g id="edge7" class="edge">
<title>0&#45;&gt;7</title>
<path fill="none" stroke="black" d="M695.14,-87.61C689.28,-75.46 681.18,-58.66 674.45,-44.73"/>
<polygon fill="black" stroke="black" points="677.56,-43.11 670.07,-35.63 671.26,-46.16 677.56,-43.11"/>
<text text-anchor="middle" x="698.55" y="-57.8" font-family="Times,serif" font-size="14.00">dep</text>
</g>
<!-- 8 -->
<g id="node9" class="node">
<title>8</title>
<ellipse fill="none" stroke="black" cx="744.05" cy="-18" rx="27" ry="18"/>
<text text-anchor="middle" x="744.05" y="-14.3" font-family="Times,serif" font-size="14.00">de</text>
</g>
<!-- 0&#45;&gt;8 -->
<g id="edge8" class="edge">
<title>0&#45;&gt;8</title>
<path fill="none" stroke="black" d="M710.95,-87.61C716.85,-75.38 725.02,-58.44 731.77,-44.46"/>
<polygon fill="black" stroke="black" points="734.97,-45.87 736.16,-35.34 728.67,-42.82 734.97,-45.87"/>
<text text-anchor="middle" x="739.55" y="-57.8" font-family="Times,serif" font-size="14.00">dep</text>
</g>
<!-- 9 -->
<g id="node10" class="node">
<title>9</title>
<ellipse fill="none" stroke="black" cx="847.05" cy="-18" rx="57.69" ry="18"/>
<text text-anchor="middle" x="847.05" y="-14.3" font-family="Times,serif" font-size="14.00">separação</text>
</g>
<!-- 0&#45;&gt;9 -->
<g id="edge9" class="edge">
<title>0&#45;&gt;9</title>
<path fill="none" stroke="black" d="M722.77,-92.36C745.84,-78.74 784.46,-55.94 812.54,-39.37"/>
<polygon fill="black" stroke="black" points="814.41,-42.33 821.25,-34.23 810.86,-36.3 814.41,-42.33"/>
<text text-anchor="middle" x="797.55" y="-57.8" font-family="Times,serif" font-size="14.00">dep</text>
</g>
<!-- 10 -->
<g id="node11" class="node">
<title>10</title>
<ellipse fill="none" stroke="black" cx="973.05" cy="-18" rx="50.09" ry="18"/>
<text text-anchor="middle" x="973.05" y="-14.3" font-family="Times,serif" font-size="14.00">conjugal</text>
</g>
<!-- 0&#45;&gt;10 -->
<g id="edge10" class="edge">
<title>0&#45;&gt;10</title>
<path fill="none" stroke="black" d="M727.09,-96.51C749.77,-89.45 784.73,-78.53 815.05,-69 852.69,-57.16 895.35,-43.66 926.85,-33.67"/>
<polygon fill="black" stroke="black" points="928.19,-36.92 936.66,-30.56 926.07,-30.24 928.19,-36.92"/>
<text text-anchor="middle" x="872.55" y="-57.8" font-family="Times,serif" font-size="14.00">dep</text>
</g>
<!-- 11 -->
<g id="node12" class="node">
<title>11</title>
<ellipse fill="none" stroke="black" cx="1068.05" cy="-18" rx="27" ry="18"/>
<text text-anchor="middle" x="1068.05" y="-14.3" font-family="Times,serif" font-size="14.00">e</text>
</g>
<!-- 0&#45;&gt;11 -->
<g id="edge11" class="edge">
<title>0&#45;&gt;11</title>
<path fill="none" stroke="black" d="M729.69,-100.9C786.5,-93.77 923.25,-73.85 1032.05,-36 1033.96,-35.34 1035.9,-34.6 1037.84,-33.82"/>
<polygon fill="black" stroke="black" points="1039.64,-36.85 1047.42,-29.66 1036.85,-30.43 1039.64,-36.85"/>
<text text-anchor="middle" x="984.55" y="-57.8" font-family="Times,serif" font-size="14.00">dep</text>
</g>
<!-- 12 -->
<g id="node13" class="node">
<title>12</title>
<ellipse fill="none" stroke="black" cx="1144.05" cy="-18" rx="30.59" ry="18"/>
<text text-anchor="middle" x="1144.05" y="-14.3" font-family="Times,serif" font-size="14.00">uma</text>
</g>
<!-- 0&#45;&gt;12 -->
<g id="edge12" class="edge">
<title>0&#45;&gt;12</title>
<path fill="none" stroke="black" d="M730.14,-102.61C782.97,-99.52 903.24,-90.55 1002.05,-69 1040.31,-60.66 1082.42,-44.95 1110.78,-33.36"/>
<polygon fill="black" stroke="black" points="1112.31,-36.51 1120.2,-29.45 1109.63,-30.05 1112.31,-36.51"/>
<text text-anchor="middle" x="1067.55" y="-57.8" font-family="Times,serif" font-size="14.00">dep</text>
</g>
<!-- 13 -->
<g id="node14" class="node">
<title>13</title>
<ellipse fill="none" stroke="black" cx="1231.05" cy="-18" rx="38.19" ry="18"/>
<text text-anchor="middle" x="1231.05" y="-14.3" font-family="Times,serif" font-size="14.00">morte</text>
</g>
<!-- 0&#45;&gt;13 -->
<g id="edge13" class="edge">
<title>0&#45;&gt;13</title>
<path fill="none" stroke="black" d="M730.22,-103.65C793.26,-102.37 954.03,-96.45 1085.05,-69 1123.21,-61 1165.17,-45.94 1194.28,-34.43"/>
<polygon fill="black" stroke="black" points="1195.65,-37.64 1203.63,-30.67 1193.05,-31.15 1195.65,-37.64"/>
<text text-anchor="middle" x="1152.55" y="-57.8" font-family="Times,serif" font-size="14.00">dep</text>
</g>
<!-- 14 -->
<g id="node15" class="node">
<title>14</title>
<ellipse fill="none" stroke="black" cx="1314.05" cy="-18" rx="27" ry="18"/>
<text text-anchor="middle" x="1314.05" y="-14.3" font-family="Times,serif" font-size="14.00">.</text>
</g>
<!-- 0&#45;&gt;14 -->
<g id="edge14" class="edge">
<title>0&#45;&gt;14</title>
<path fill="none" stroke="black" d="M730.17,-104.06C802.37,-103.76 1005.04,-99.99 1170.05,-69 1219.37,-59.73 1231.23,-54.1 1278.05,-36 1279.88,-35.29 1281.76,-34.53 1283.64,-33.73"/>
<polygon fill="black" stroke="black" points="1285.24,-36.85 1292.95,-29.59 1282.39,-30.46 1285.24,-36.85"/>
<text text-anchor="middle" x="1244.55" y="-57.8" font-family="Times,serif" font-size="14.00">dep</text>
</g>
</g>
</svg>
