<?xml version="1.0" encoding="UTF-8" standalone="no"?>
<!DOCTYPE svg PUBLIC "-//W3C//DTD SVG 1.1//EN"
 "http://www.w3.org/Graphics/SVG/1.1/DTD/svg11.dtd">
<!-- Generated by graphviz version 2.42.4 (0)
 -->
<!-- Pages: 1 -->
<svg width="1480pt" height="131pt"
 viewBox="0.00 0.00 1480.00 131.00" xmlns="http://www.w3.org/2000/svg" xmlns:xlink="http://www.w3.org/1999/xlink">
<g id="graph0" class="graph" transform="scale(1 1) rotate(0) translate(4 127)">
<polygon fill="white" stroke="transparent" points="-4,4 -4,-127 1476,-127 1476,4 -4,4"/>
<!-- 0 -->
<g id="node1" class="node">
<title>0</title>
<ellipse fill="none" stroke="black" cx="694" cy="-105" rx="27" ry="18"/>
<text text-anchor="middle" x="694" y="-101.3" font-family="Times,serif" font-size="14.00">a</text>
</g>
<!-- 1 -->
<g id="node2" class="node">
<title>1</title>
<ellipse fill="none" stroke="black" cx="27" cy="-18" rx="27" ry="18"/>
<text text-anchor="middle" x="27" y="-14.3" font-family="Times,serif" font-size="14.00">o</text>
</g>
<!-- 0&#45;&gt;1 -->
<g id="edge1" class="edge">
<title>0&#45;&gt;1</title>
<path fill="none" stroke="black" d="M666.97,-103.43C570.77,-101.23 245.31,-92.21 144,-69 112.59,-61.8 78.98,-46.57 55.88,-34.8"/>
<polygon fill="black" stroke="black" points="57.45,-31.67 46.96,-30.16 54.22,-37.88 57.45,-31.67"/>
<text text-anchor="middle" x="157.5" y="-57.8" font-family="Times,serif" font-size="14.00">dep</text>
</g>
<!-- 2 -->
<g id="node3" class="node">
<title>2</title>
<ellipse fill="none" stroke="black" cx="99" cy="-18" rx="27" ry="18"/>
<text text-anchor="middle" x="99" y="-14.3" font-family="Times,serif" font-size="14.00">fim</text>
</g>
<!-- 0&#45;&gt;2 -->
<g id="edge2" class="edge">
<title>0&#45;&gt;2</title>
<path fill="none" stroke="black" d="M667.05,-103.1C579.62,-100 304.51,-88.88 218,-69 186.14,-61.68 151.94,-46.46 128.42,-34.73"/>
<polygon fill="black" stroke="black" points="129.84,-31.52 119.34,-30.1 126.66,-37.76 129.84,-31.52"/>
<text text-anchor="middle" x="231.5" y="-57.8" font-family="Times,serif" font-size="14.00">dep</text>
</g>
<!-- 3 -->
<g id="node4" class="node">
<title>3</title>
<ellipse fill="none" stroke="black" cx="171" cy="-18" rx="27" ry="18"/>
<text text-anchor="middle" x="171" y="-14.3" font-family="Times,serif" font-size="14.00">de</text>
</g>
<!-- 0&#45;&gt;3 -->
<g id="edge3" class="edge">
<title>0&#45;&gt;3</title>
<path fill="none" stroke="black" d="M666.92,-104.18C601.8,-104.06 431.61,-100.48 294,-69 260.87,-61.42 225.11,-45.99 200.73,-34.26"/>
<polygon fill="black" stroke="black" points="202.18,-31.07 191.66,-29.81 199.09,-37.36 202.18,-31.07"/>
<text text-anchor="middle" x="307.5" y="-57.8" font-family="Times,serif" font-size="14.00">dep</text>
</g>
<!-- 4 -->
<g id="node5" class="node">
<title>4</title>
<ellipse fill="none" stroke="black" cx="243" cy="-18" rx="27" ry="18"/>
<text text-anchor="middle" x="243" y="-14.3" font-family="Times,serif" font-size="14.00">16</text>
</g>
<!-- 0&#45;&gt;4 -->
<g id="edge4" class="edge">
<title>0&#45;&gt;4</title>
<path fill="none" stroke="black" d="M666.93,-103.18C611.12,-101.02 479.45,-93.55 372,-69 337.12,-61.03 299.15,-45.4 273.5,-33.73"/>
<polygon fill="black" stroke="black" points="274.85,-30.5 264.3,-29.48 271.91,-36.85 274.85,-30.5"/>
<text text-anchor="middle" x="385.5" y="-57.8" font-family="Times,serif" font-size="14.00">dep</text>
</g>
<!-- 5 -->
<g id="node6" class="node">
<title>5</title>
<ellipse fill="none" stroke="black" cx="320" cy="-18" rx="32.49" ry="18"/>
<text text-anchor="middle" x="320" y="-14.3" font-family="Times,serif" font-size="14.00">anos</text>
</g>
<!-- 0&#45;&gt;5 -->
<g id="edge5" class="edge">
<title>0&#45;&gt;5</title>
<path fill="none" stroke="black" d="M667.28,-102.04C622.01,-98.3 527.56,-88.7 450,-69 416.33,-60.45 379.52,-45.75 353.69,-34.5"/>
<polygon fill="black" stroke="black" points="354.91,-31.21 344.35,-30.37 352.09,-37.62 354.91,-31.21"/>
<text text-anchor="middle" x="463.5" y="-57.8" font-family="Times,serif" font-size="14.00">dep</text>
</g>
<!-- 6 -->
<g id="node7" class="node">
<title>6</title>
<ellipse fill="none" stroke="black" cx="397" cy="-18" rx="27" ry="18"/>
<text text-anchor="middle" x="397" y="-14.3" font-family="Times,serif" font-size="14.00">,</text>
</g>
<!-- 0&#45;&gt;6 -->
<g id="edge6" class="edge">
<title>0&#45;&gt;6</title>
<path fill="none" stroke="black" d="M668.04,-99.51C635.34,-93.62 577.54,-82.44 529,-69 485.52,-56.96 474.8,-52.99 433,-36 431.18,-35.26 429.31,-34.47 427.44,-33.66"/>
<polygon fill="black" stroke="black" points="428.7,-30.39 418.15,-29.46 425.82,-36.77 428.7,-30.39"/>
<text text-anchor="middle" x="542.5" y="-57.8" font-family="Times,serif" font-size="14.00">dep</text>
</g>
<!-- 7 -->
<g id="node8" class="node">
<title>7</title>
<ellipse fill="none" stroke="black" cx="488" cy="-18" rx="46.29" ry="18"/>
<text text-anchor="middle" x="488" y="-14.3" font-family="Times,serif" font-size="14.00">deixava</text>
</g>
<!-- 0&#45;&gt;7 -->
<g id="edge7" class="edge">
<title>0&#45;&gt;7</title>
<path fill="none" stroke="black" d="M669.96,-96.76C648.89,-90.2 617.55,-79.91 591,-69 567.98,-59.55 542.85,-47.38 523.17,-37.42"/>
<polygon fill="black" stroke="black" points="524.76,-34.3 514.26,-32.87 521.58,-40.54 524.76,-34.3"/>
<text text-anchor="middle" x="604.5" y="-57.8" font-family="Times,serif" font-size="14.00">dep</text>
</g>
<!-- 8 -->
<g id="node9" class="node">
<title>8</title>
<ellipse fill="none" stroke="black" cx="579" cy="-18" rx="27" ry="18"/>
<text text-anchor="middle" x="579" y="-14.3" font-family="Times,serif" font-size="14.00">a</text>
</g>
<!-- 0&#45;&gt;8 -->
<g id="edge8" class="edge">
<title>0&#45;&gt;8</title>
<path fill="none" stroke="black" d="M675.06,-92.12C664.82,-85.53 652.04,-77.07 641,-69 628.06,-59.55 614.14,-48.41 602.76,-39.04"/>
<polygon fill="black" stroke="black" points="604.92,-36.28 594.99,-32.59 600.45,-41.67 604.92,-36.28"/>
<text text-anchor="middle" x="654.5" y="-57.8" font-family="Times,serif" font-size="14.00">dep</text>
</g>
<!-- 9 -->
<g id="node10" class="node">
<title>9</title>
<ellipse fill="none" stroke="black" cx="654" cy="-18" rx="29.8" ry="18"/>
<text text-anchor="middle" x="654" y="-14.3" font-family="Times,serif" font-size="14.00">RTP</text>
</g>
<!-- 0&#45;&gt;9 -->
<g id="edge9" class="edge">
<title>0&#45;&gt;9</title>
<path fill="none" stroke="black" d="M686.29,-87.61C680.57,-75.46 672.66,-58.66 666.11,-44.73"/>
<polygon fill="black" stroke="black" points="669.25,-43.19 661.83,-35.63 662.92,-46.17 669.25,-43.19"/>
<text text-anchor="middle" x="690.5" y="-57.8" font-family="Times,serif" font-size="14.00">dep</text>
</g>
<!-- 10 -->
<g id="node11" class="node">
<title>10</title>
<ellipse fill="none" stroke="black" cx="734" cy="-18" rx="31.7" ry="18"/>
<text text-anchor="middle" x="734" y="-14.3" font-family="Times,serif" font-size="14.00">para</text>
</g>
<!-- 0&#45;&gt;10 -->
<g id="edge10" class="edge">
<title>0&#45;&gt;10</title>
<path fill="none" stroke="black" d="M701.71,-87.61C707.43,-75.46 715.34,-58.66 721.89,-44.73"/>
<polygon fill="black" stroke="black" points="725.08,-46.17 726.17,-35.63 718.75,-43.19 725.08,-46.17"/>
<text text-anchor="middle" x="730.5" y="-57.8" font-family="Times,serif" font-size="14.00">dep</text>
</g>
<!-- 11 -->
<g id="node12" class="node">
<title>11</title>
<ellipse fill="none" stroke="black" cx="811" cy="-18" rx="27" ry="18"/>
<text text-anchor="middle" x="811" y="-14.3" font-family="Times,serif" font-size="14.00">ir</text>
</g>
<!-- 0&#45;&gt;11 -->
<g id="edge11" class="edge">
<title>0&#45;&gt;11</title>
<path fill="none" stroke="black" d="M713.29,-92.13C723.73,-85.55 736.75,-77.08 748,-69 761.14,-59.56 775.29,-48.42 786.85,-39.06"/>
<polygon fill="black" stroke="black" points="789.22,-41.64 794.75,-32.6 784.79,-36.22 789.22,-41.64"/>
<text text-anchor="middle" x="781.5" y="-57.8" font-family="Times,serif" font-size="14.00">dep</text>
</g>
<!-- 12 -->
<g id="node13" class="node">
<title>12</title>
<ellipse fill="none" stroke="black" cx="918" cy="-18" rx="61.99" ry="18"/>
<text text-anchor="middle" x="918" y="-14.3" font-family="Times,serif" font-size="14.00">apresentar</text>
</g>
<!-- 0&#45;&gt;12 -->
<g id="edge12" class="edge">
<title>0&#45;&gt;12</title>
<path fill="none" stroke="black" d="M717.95,-96.59C739.35,-89.83 771.48,-79.35 799,-69 824.97,-59.23 853.65,-47.22 876.35,-37.41"/>
<polygon fill="black" stroke="black" points="877.91,-40.55 885.69,-33.36 875.12,-34.13 877.91,-40.55"/>
<text text-anchor="middle" x="849.5" y="-57.8" font-family="Times,serif" font-size="14.00">dep</text>
</g>
<!-- 13 -->
<g id="node14" class="node">
<title>13</title>
<ellipse fill="none" stroke="black" cx="1025" cy="-18" rx="27" ry="18"/>
<text text-anchor="middle" x="1025" y="-14.3" font-family="Times,serif" font-size="14.00">o</text>
</g>
<!-- 0&#45;&gt;13 -->
<g id="edge13" class="edge">
<title>0&#45;&gt;13</title>
<path fill="none" stroke="black" d="M720.29,-100.23C772.62,-92.22 893.07,-71.31 989,-36 990.85,-35.32 992.73,-34.58 994.62,-33.8"/>
<polygon fill="black" stroke="black" points="996.2,-36.93 1003.95,-29.7 993.38,-30.52 996.2,-36.93"/>
<text text-anchor="middle" x="948.5" y="-57.8" font-family="Times,serif" font-size="14.00">dep</text>
</g>
<!-- 14 -->
<g id="node15" class="node">
<title>14</title>
<ellipse fill="none" stroke="black" cx="1127" cy="-18" rx="56.59" ry="18"/>
<text text-anchor="middle" x="1127" y="-14.3" font-family="Times,serif" font-size="14.00">Telejornal</text>
</g>
<!-- 0&#45;&gt;14 -->
<g id="edge14" class="edge">
<title>0&#45;&gt;14</title>
<path fill="none" stroke="black" d="M720.9,-102.09C770.03,-98.26 877.38,-88.31 966,-69 1005.78,-60.33 1049.87,-46.32 1081.84,-35.33"/>
<polygon fill="black" stroke="black" points="1083.05,-38.61 1091.35,-32.03 1080.75,-32 1083.05,-38.61"/>
<text text-anchor="middle" x="1033.5" y="-57.8" font-family="Times,serif" font-size="14.00">dep</text>
</g>
<!-- 15 -->
<g id="node16" class="node">
<title>15</title>
<ellipse fill="none" stroke="black" cx="1229" cy="-18" rx="27" ry="18"/>
<text text-anchor="middle" x="1229" y="-14.3" font-family="Times,serif" font-size="14.00">de</text>
</g>
<!-- 0&#45;&gt;15 -->
<g id="edge15" class="edge">
<title>0&#45;&gt;15</title>
<path fill="none" stroke="black" d="M721.03,-102.56C780.82,-99.11 928.71,-89.12 1051,-69 1114.93,-58.48 1131.8,-57.29 1193,-36 1194.91,-35.34 1196.85,-34.6 1198.8,-33.82"/>
<polygon fill="black" stroke="black" points="1200.6,-36.85 1208.37,-29.66 1197.81,-30.43 1200.6,-36.85"/>
<text text-anchor="middle" x="1146.5" y="-57.8" font-family="Times,serif" font-size="14.00">dep</text>
</g>
<!-- 16 -->
<g id="node17" class="node">
<title>16</title>
<ellipse fill="none" stroke="black" cx="1301" cy="-18" rx="27" ry="18"/>
<text text-anchor="middle" x="1301" y="-14.3" font-family="Times,serif" font-size="14.00">a</text>
</g>
<!-- 0&#45;&gt;16 -->
<g id="edge16" class="edge">
<title>0&#45;&gt;16</title>
<path fill="none" stroke="black" d="M721.07,-104.25C793.59,-104.45 998.04,-101.79 1164,-69 1210.33,-59.85 1221.12,-53.45 1265,-36 1266.83,-35.27 1268.7,-34.5 1270.58,-33.69"/>
<polygon fill="black" stroke="black" points="1272.18,-36.8 1279.87,-29.52 1269.32,-30.42 1272.18,-36.8"/>
<text text-anchor="middle" x="1232.5" y="-57.8" font-family="Times,serif" font-size="14.00">dep</text>
</g>
<!-- 17 -->
<g id="node18" class="node">
<title>17</title>
<ellipse fill="none" stroke="black" cx="1373" cy="-18" rx="27" ry="18"/>
<text text-anchor="middle" x="1373" y="-14.3" font-family="Times,serif" font-size="14.00">TVI</text>
</g>
<!-- 0&#45;&gt;17 -->
<g id="edge17" class="edge">
<title>0&#45;&gt;17</title>
<path fill="none" stroke="black" d="M720.97,-103.37C817.74,-100.94 1147.19,-91.2 1250,-69 1283.22,-61.83 1318.97,-46.33 1343.32,-34.48"/>
<polygon fill="black" stroke="black" points="1344.98,-37.56 1352.38,-29.98 1341.87,-31.29 1344.98,-37.56"/>
<text text-anchor="middle" x="1312.5" y="-57.8" font-family="Times,serif" font-size="14.00">dep</text>
</g>
<!-- 18 -->
<g id="node19" class="node">
<title>18</title>
<ellipse fill="none" stroke="black" cx="1445" cy="-18" rx="27" ry="18"/>
<text text-anchor="middle" x="1445" y="-14.3" font-family="Times,serif" font-size="14.00">.</text>
</g>
<!-- 0&#45;&gt;18 -->
<g id="edge18" class="edge">
<title>0&#45;&gt;18</title>
<path fill="none" stroke="black" d="M721.16,-103.73C826.95,-102.49 1211.43,-96.18 1330,-69 1360.64,-61.98 1393.29,-46.97 1415.95,-35.22"/>
<polygon fill="black" stroke="black" points="1417.81,-38.2 1425.01,-30.42 1414.54,-32.01 1417.81,-38.2"/>
<text text-anchor="middle" x="1389.5" y="-57.8" font-family="Times,serif" font-size="14.00">dep</text>
</g>
</g>
</svg>
