<?xml version="1.0" encoding="UTF-8" standalone="no"?>
<!DOCTYPE svg PUBLIC "-//W3C//DTD SVG 1.1//EN"
 "http://www.w3.org/Graphics/SVG/1.1/DTD/svg11.dtd">
<!-- Generated by graphviz version 2.42.4 (0)
 -->
<!-- Pages: 1 -->
<svg width="850pt" height="131pt"
 viewBox="0.00 0.00 850.40 131.00" xmlns="http://www.w3.org/2000/svg" xmlns:xlink="http://www.w3.org/1999/xlink">
<g id="graph0" class="graph" transform="scale(1 1) rotate(0) translate(4 127)">
<polygon fill="white" stroke="transparent" points="-4,4 -4,-127 846.4,-127 846.4,4 -4,4"/>
<!-- 0 -->
<g id="node1" class="node">
<title>0</title>
<ellipse fill="none" stroke="black" cx="386.4" cy="-105" rx="40.89" ry="18"/>
<text text-anchor="middle" x="386.4" y="-101.3" font-family="Times,serif" font-size="14.00">Vamos</text>
</g>
<!-- 1 -->
<g id="node2" class="node">
<title>1</title>
<ellipse fill="none" stroke="black" cx="49.4" cy="-18" rx="49.29" ry="18"/>
<text text-anchor="middle" x="49.4" y="-14.3" font-family="Times,serif" font-size="14.00">verificar</text>
</g>
<!-- 0&#45;&gt;1 -->
<g id="edge1" class="edge">
<title>0&#45;&gt;1</title>
<path fill="none" stroke="black" d="M347.21,-99.37C306.17,-94.03 240.07,-84 184.4,-69 151.73,-60.2 115.86,-46.72 89.31,-35.98"/>
<polygon fill="black" stroke="black" points="90.55,-32.71 79.97,-32.16 87.9,-39.19 90.55,-32.71"/>
<text text-anchor="middle" x="197.9" y="-57.8" font-family="Times,serif" font-size="14.00">dep</text>
</g>
<!-- 2 -->
<g id="node3" class="node">
<title>2</title>
<ellipse fill="none" stroke="black" cx="143.4" cy="-18" rx="27" ry="18"/>
<text text-anchor="middle" x="143.4" y="-14.3" font-family="Times,serif" font-size="14.00">o</text>
</g>
<!-- 0&#45;&gt;2 -->
<g id="edge2" class="edge">
<title>0&#45;&gt;2</title>
<path fill="none" stroke="black" d="M350.06,-96.7C322.12,-90.61 282.77,-81.01 249.4,-69 217.03,-57.36 210.5,-50.68 179.4,-36 177.61,-35.16 175.78,-34.3 173.94,-33.42"/>
<polygon fill="black" stroke="black" points="175.25,-30.17 164.71,-29.07 172.26,-36.5 175.25,-30.17"/>
<text text-anchor="middle" x="262.9" y="-57.8" font-family="Times,serif" font-size="14.00">dep</text>
</g>
<!-- 3 -->
<g id="node4" class="node">
<title>3</title>
<ellipse fill="none" stroke="black" cx="216.4" cy="-18" rx="27.9" ry="18"/>
<text text-anchor="middle" x="216.4" y="-14.3" font-family="Times,serif" font-size="14.00">que</text>
</g>
<!-- 0&#45;&gt;3 -->
<g id="edge3" class="edge">
<title>0&#45;&gt;3</title>
<path fill="none" stroke="black" d="M357.6,-91.95C342.51,-85.45 323.8,-77.12 307.4,-69 286.21,-58.51 262.85,-45.65 245.1,-35.59"/>
<polygon fill="black" stroke="black" points="246.8,-32.53 236.37,-30.62 243.33,-38.61 246.8,-32.53"/>
<text text-anchor="middle" x="320.9" y="-57.8" font-family="Times,serif" font-size="14.00">dep</text>
</g>
<!-- 4 -->
<g id="node5" class="node">
<title>4</title>
<ellipse fill="none" stroke="black" cx="300.4" cy="-18" rx="38.19" ry="18"/>
<text text-anchor="middle" x="300.4" y="-14.3" font-family="Times,serif" font-size="14.00">houve</text>
</g>
<!-- 0&#45;&gt;4 -->
<g id="edge4" class="edge">
<title>0&#45;&gt;4</title>
<path fill="none" stroke="black" d="M370.22,-88.01C357.04,-74.99 338.27,-56.44 323.51,-41.85"/>
<polygon fill="black" stroke="black" points="325.78,-39.17 316.21,-34.63 320.86,-44.15 325.78,-39.17"/>
<text text-anchor="middle" x="362.9" y="-57.8" font-family="Times,serif" font-size="14.00">dep</text>
</g>
<!-- 5 -->
<g id="node6" class="node">
<title>5</title>
<ellipse fill="none" stroke="black" cx="386.4" cy="-18" rx="29.8" ry="18"/>
<text text-anchor="middle" x="386.4" y="-14.3" font-family="Times,serif" font-size="14.00">com</text>
</g>
<!-- 0&#45;&gt;5 -->
<g id="edge5" class="edge">
<title>0&#45;&gt;5</title>
<path fill="none" stroke="black" d="M386.4,-86.8C386.4,-75.16 386.4,-59.55 386.4,-46.24"/>
<polygon fill="black" stroke="black" points="389.9,-46.18 386.4,-36.18 382.9,-46.18 389.9,-46.18"/>
<text text-anchor="middle" x="399.9" y="-57.8" font-family="Times,serif" font-size="14.00">dep</text>
</g>
<!-- 6 -->
<g id="node7" class="node">
<title>6</title>
<ellipse fill="none" stroke="black" cx="470.4" cy="-18" rx="36.29" ry="18"/>
<text text-anchor="middle" x="470.4" y="-14.3" font-family="Times,serif" font-size="14.00">essas</text>
</g>
<!-- 0&#45;&gt;6 -->
<g id="edge6" class="edge">
<title>0&#45;&gt;6</title>
<path fill="none" stroke="black" d="M402.2,-88.01C415.06,-74.99 433.4,-56.44 447.82,-41.85"/>
<polygon fill="black" stroke="black" points="450.41,-44.2 454.95,-34.63 445.43,-39.28 450.41,-44.2"/>
<text text-anchor="middle" x="447.9" y="-57.8" font-family="Times,serif" font-size="14.00">dep</text>
</g>
<!-- 7 -->
<g id="node8" class="node">
<title>7</title>
<ellipse fill="none" stroke="black" cx="611.4" cy="-18" rx="87.18" ry="18"/>
<text text-anchor="middle" x="611.4" y="-14.3" font-family="Times,serif" font-size="14.00">matérias&#45;primas</text>
</g>
<!-- 0&#45;&gt;7 -->
<g id="edge7" class="edge">
<title>0&#45;&gt;7</title>
<path fill="none" stroke="black" d="M416.74,-92.54C453.95,-78.48 517.54,-54.46 561.87,-37.71"/>
<polygon fill="black" stroke="black" points="563.18,-40.95 571.3,-34.15 560.71,-34.41 563.18,-40.95"/>
<text text-anchor="middle" x="525.9" y="-57.8" font-family="Times,serif" font-size="14.00">dep</text>
</g>
<!-- 8 -->
<g id="node9" class="node">
<title>8</title>
<ellipse fill="none" stroke="black" cx="743.4" cy="-18" rx="27" ry="18"/>
<text text-anchor="middle" x="743.4" y="-14.3" font-family="Times,serif" font-size="14.00">.</text>
</g>
<!-- 0&#45;&gt;8 -->
<g id="edge8" class="edge">
<title>0&#45;&gt;8</title>
<path fill="none" stroke="black" d="M424.96,-98.79C486.03,-89.9 608.2,-69.42 707.4,-36 709.31,-35.35 711.26,-34.63 713.21,-33.87"/>
<polygon fill="black" stroke="black" points="715,-36.9 722.8,-29.73 712.23,-30.48 715,-36.9"/>
<text text-anchor="middle" x="660.9" y="-57.8" font-family="Times,serif" font-size="14.00">dep</text>
</g>
<!-- 9 -->
<g id="node10" class="node">
<title>9</title>
<ellipse fill="none" stroke="black" cx="815.4" cy="-18" rx="27" ry="18"/>
<text text-anchor="middle" x="815.4" y="-14.3" font-family="Times,serif" font-size="14.00">»</text>
</g>
<!-- 0&#45;&gt;9 -->
<g id="edge9" class="edge">
<title>0&#45;&gt;9</title>
<path fill="none" stroke="black" d="M426.96,-101.66C483.75,-97.82 589.9,-88.56 678.4,-69 724.51,-58.81 735.51,-53.45 779.4,-36 781.23,-35.27 783.1,-34.5 784.97,-33.69"/>
<polygon fill="black" stroke="black" points="786.58,-36.8 794.27,-29.52 783.71,-30.42 786.58,-36.8"/>
<text text-anchor="middle" x="746.9" y="-57.8" font-family="Times,serif" font-size="14.00">dep</text>
</g>
</g>
</svg>
