<?xml version="1.0" encoding="UTF-8" standalone="no"?>
<!DOCTYPE svg PUBLIC "-//W3C//DTD SVG 1.1//EN"
 "http://www.w3.org/Graphics/SVG/1.1/DTD/svg11.dtd">
<!-- Generated by graphviz version 2.42.4 (0)
 -->
<!-- Pages: 1 -->
<svg width="3644pt" height="131pt"
 viewBox="0.00 0.00 3644.44 131.00" xmlns="http://www.w3.org/2000/svg" xmlns:xlink="http://www.w3.org/1999/xlink">
<g id="graph0" class="graph" transform="scale(1 1) rotate(0) translate(4 127)">
<polygon fill="white" stroke="transparent" points="-4,4 -4,-127 3640.44,-127 3640.44,4 -4,4"/>
<!-- 0 -->
<g id="node1" class="node">
<title>0</title>
<ellipse fill="none" stroke="black" cx="1843.44" cy="-105" rx="27" ry="18"/>
<text text-anchor="middle" x="1843.44" y="-101.3" font-family="Times,serif" font-size="14.00">O</text>
</g>
<!-- 1 -->
<g id="node2" class="node">
<title>1</title>
<ellipse fill="none" stroke="black" cx="60.44" cy="-18" rx="60.39" ry="18"/>
<text text-anchor="middle" x="60.44" y="-14.3" font-family="Times,serif" font-size="14.00">presidente</text>
</g>
<!-- 0&#45;&gt;1 -->
<g id="edge1" class="edge">
<title>0&#45;&gt;1</title>
<path fill="none" stroke="black" d="M1816.28,-103.79C1619.07,-102.22 410.47,-91.74 249.44,-69 200.55,-62.09 146.18,-46.89 108.36,-35.05"/>
<polygon fill="black" stroke="black" points="109.22,-31.65 98.63,-31.96 107.1,-38.32 109.22,-31.65"/>
<text text-anchor="middle" x="262.94" y="-57.8" font-family="Times,serif" font-size="14.00">dep</text>
</g>
<!-- 2 -->
<g id="node3" class="node">
<title>2</title>
<ellipse fill="none" stroke="black" cx="190.44" cy="-18" rx="51.99" ry="18"/>
<text text-anchor="middle" x="190.44" y="-14.3" font-family="Times,serif" font-size="14.00">articulou</text>
</g>
<!-- 0&#45;&gt;2 -->
<g id="edge2" class="edge">
<title>0&#45;&gt;2</title>
<path fill="none" stroke="black" d="M1816.25,-103.87C1625.25,-102.86 488.33,-95.76 337.44,-69 300.24,-62.4 259.71,-48.04 230.65,-36.4"/>
<polygon fill="black" stroke="black" points="231.84,-33.1 221.26,-32.57 229.2,-39.58 231.84,-33.1"/>
<text text-anchor="middle" x="350.94" y="-57.8" font-family="Times,serif" font-size="14.00">dep</text>
</g>
<!-- 3 -->
<g id="node4" class="node">
<title>3</title>
<ellipse fill="none" stroke="black" cx="287.44" cy="-18" rx="27" ry="18"/>
<text text-anchor="middle" x="287.44" y="-14.3" font-family="Times,serif" font-size="14.00">,</text>
</g>
<!-- 0&#45;&gt;3 -->
<g id="edge3" class="edge">
<title>0&#45;&gt;3</title>
<path fill="none" stroke="black" d="M1816.29,-103.83C1631.55,-102.58 562.62,-94.32 420.44,-69 383.67,-62.45 343.88,-46.16 317.49,-33.94"/>
<polygon fill="black" stroke="black" points="318.95,-30.76 308.41,-29.65 315.96,-37.08 318.95,-30.76"/>
<text text-anchor="middle" x="433.94" y="-57.8" font-family="Times,serif" font-size="14.00">dep</text>
</g>
<!-- 4 -->
<g id="node5" class="node">
<title>4</title>
<ellipse fill="none" stroke="black" cx="368.44" cy="-18" rx="36.29" ry="18"/>
<text text-anchor="middle" x="368.44" y="-14.3" font-family="Times,serif" font-size="14.00">então</text>
</g>
<!-- 0&#45;&gt;4 -->
<g id="edge4" class="edge">
<title>0&#45;&gt;4</title>
<path fill="none" stroke="black" d="M1816.47,-103.82C1638.64,-102.53 637.61,-94.2 504.44,-69 468.78,-62.25 430.12,-47.23 403.16,-35.4"/>
<polygon fill="black" stroke="black" points="404.35,-32.1 393.79,-31.21 401.49,-38.49 404.35,-32.1"/>
<text text-anchor="middle" x="517.94" y="-57.8" font-family="Times,serif" font-size="14.00">dep</text>
</g>
<!-- 5 -->
<g id="node6" class="node">
<title>5</title>
<ellipse fill="none" stroke="black" cx="449.44" cy="-18" rx="27" ry="18"/>
<text text-anchor="middle" x="449.44" y="-14.3" font-family="Times,serif" font-size="14.00">,</text>
</g>
<!-- 0&#45;&gt;5 -->
<g id="edge5" class="edge">
<title>0&#45;&gt;5</title>
<path fill="none" stroke="black" d="M1816.41,-104.19C1657.54,-105.16 843.91,-108.09 597.44,-69 546.19,-60.87 533.94,-54.47 485.44,-36 483.6,-35.3 481.73,-34.54 479.84,-33.75"/>
<polygon fill="black" stroke="black" points="481.09,-30.48 470.53,-29.62 478.25,-36.88 481.09,-30.48"/>
<text text-anchor="middle" x="610.94" y="-57.8" font-family="Times,serif" font-size="14.00">dep</text>
</g>
<!-- 6 -->
<g id="node7" class="node">
<title>6</title>
<ellipse fill="none" stroke="black" cx="530.44" cy="-18" rx="36.29" ry="18"/>
<text text-anchor="middle" x="530.44" y="-14.3" font-family="Times,serif" font-size="14.00">lobby</text>
</g>
<!-- 0&#45;&gt;6 -->
<g id="edge6" class="edge">
<title>0&#45;&gt;6</title>
<path fill="none" stroke="black" d="M1816.24,-104.1C1664.09,-104.52 917.46,-104.72 690.44,-69 646.94,-62.15 598.95,-45.93 566.99,-33.8"/>
<polygon fill="black" stroke="black" points="568.19,-30.52 557.61,-30.19 565.68,-37.05 568.19,-30.52"/>
<text text-anchor="middle" x="703.94" y="-57.8" font-family="Times,serif" font-size="14.00">dep</text>
</g>
<!-- 7 -->
<g id="node8" class="node">
<title>7</title>
<ellipse fill="none" stroke="black" cx="632.44" cy="-18" rx="47.39" ry="18"/>
<text text-anchor="middle" x="632.44" y="-14.3" font-family="Times,serif" font-size="14.00">certeiro</text>
</g>
<!-- 0&#45;&gt;7 -->
<g id="edge7" class="edge">
<title>0&#45;&gt;7</title>
<path fill="none" stroke="black" d="M1816.41,-104.2C1671.59,-105.08 986.33,-107.13 778.44,-69 741.15,-62.16 700.48,-47.61 671.56,-35.95"/>
<polygon fill="black" stroke="black" points="672.8,-32.68 662.22,-32.13 670.15,-39.16 672.8,-32.68"/>
<text text-anchor="middle" x="791.94" y="-57.8" font-family="Times,serif" font-size="14.00">dep</text>
</g>
<!-- 8 -->
<g id="node9" class="node">
<title>8</title>
<ellipse fill="none" stroke="black" cx="724.44" cy="-18" rx="27" ry="18"/>
<text text-anchor="middle" x="724.44" y="-14.3" font-family="Times,serif" font-size="14.00">em</text>
</g>
<!-- 0&#45;&gt;8 -->
<g id="edge8" class="edge">
<title>0&#45;&gt;8</title>
<path fill="none" stroke="black" d="M1816.1,-103.96C1678.37,-103.6 1059.73,-100.27 870.44,-69 820.09,-60.68 808.1,-54.28 760.44,-36 758.61,-35.29 756.73,-34.54 754.85,-33.74"/>
<polygon fill="black" stroke="black" points="756.1,-30.47 745.54,-29.6 753.25,-36.86 756.1,-30.47"/>
<text text-anchor="middle" x="883.94" y="-57.8" font-family="Times,serif" font-size="14.00">dep</text>
</g>
<!-- 9 -->
<g id="node10" class="node">
<title>9</title>
<ellipse fill="none" stroke="black" cx="814.44" cy="-18" rx="44.69" ry="18"/>
<text text-anchor="middle" x="814.44" y="-14.3" font-family="Times,serif" font-size="14.00">direção</text>
</g>
<!-- 0&#45;&gt;9 -->
<g id="edge9" class="edge">
<title>0&#45;&gt;9</title>
<path fill="none" stroke="black" d="M1816.21,-104.07C1685.66,-104.21 1123.08,-102.82 951.44,-69 916.71,-62.15 879.05,-47.87 852.02,-36.32"/>
<polygon fill="black" stroke="black" points="853.13,-32.98 842.57,-32.2 850.34,-39.4 853.13,-32.98"/>
<text text-anchor="middle" x="964.94" y="-57.8" font-family="Times,serif" font-size="14.00">dep</text>
</g>
<!-- 10 -->
<g id="node11" class="node">
<title>10</title>
<ellipse fill="none" stroke="black" cx="904.44" cy="-18" rx="27" ry="18"/>
<text text-anchor="middle" x="904.44" y="-14.3" font-family="Times,serif" font-size="14.00">a</text>
</g>
<!-- 0&#45;&gt;10 -->
<g id="edge10" class="edge">
<title>0&#45;&gt;10</title>
<path fill="none" stroke="black" d="M1816.27,-103.92C1693.22,-103.4 1187.5,-99.43 1032.44,-69 997.36,-62.12 959.49,-46.16 934.12,-34.11"/>
<polygon fill="black" stroke="black" points="935.56,-30.92 925.04,-29.71 932.51,-37.22 935.56,-30.92"/>
<text text-anchor="middle" x="1045.94" y="-57.8" font-family="Times,serif" font-size="14.00">dep</text>
</g>
<!-- 11 -->
<g id="node12" class="node">
<title>11</title>
<ellipse fill="none" stroke="black" cx="976.44" cy="-18" rx="27" ry="18"/>
<text text-anchor="middle" x="976.44" y="-14.3" font-family="Times,serif" font-size="14.00">o</text>
</g>
<!-- 0&#45;&gt;11 -->
<g id="edge11" class="edge">
<title>0&#45;&gt;11</title>
<path fill="none" stroke="black" d="M1816.47,-103.52C1702.87,-101.39 1263.05,-91.79 1126.44,-69 1074.42,-60.32 1061.78,-54.65 1012.44,-36 1010.6,-35.3 1008.72,-34.55 1006.84,-33.76"/>
<polygon fill="black" stroke="black" points="1008.08,-30.49 997.52,-29.64 1005.25,-36.89 1008.08,-30.49"/>
<text text-anchor="middle" x="1139.94" y="-57.8" font-family="Times,serif" font-size="14.00">dep</text>
</g>
<!-- 12 -->
<g id="node13" class="node">
<title>12</title>
<ellipse fill="none" stroke="black" cx="1065.44" cy="-18" rx="43.59" ry="18"/>
<text text-anchor="middle" x="1065.44" y="-14.3" font-family="Times,serif" font-size="14.00">Sebrae</text>
</g>
<!-- 0&#45;&gt;12 -->
<g id="edge12" class="edge">
<title>0&#45;&gt;12</title>
<path fill="none" stroke="black" d="M1816.42,-103.51C1711.13,-101.45 1328.41,-92.46 1209.44,-69 1172.52,-61.72 1132.17,-47.09 1103.61,-35.53"/>
<polygon fill="black" stroke="black" points="1104.6,-32.16 1094.02,-31.59 1101.94,-38.63 1104.6,-32.16"/>
<text text-anchor="middle" x="1222.94" y="-57.8" font-family="Times,serif" font-size="14.00">dep</text>
</g>
<!-- 13 -->
<g id="node14" class="node">
<title>13</title>
<ellipse fill="none" stroke="black" cx="1154.44" cy="-18" rx="27" ry="18"/>
<text text-anchor="middle" x="1154.44" y="-14.3" font-family="Times,serif" font-size="14.00">(</text>
</g>
<!-- 0&#45;&gt;13 -->
<g id="edge13" class="edge">
<title>0&#45;&gt;13</title>
<path fill="none" stroke="black" d="M1816.45,-104.36C1737,-104.96 1497.29,-103.56 1302.44,-69 1251.35,-59.94 1238.94,-54.47 1190.44,-36 1188.6,-35.3 1186.73,-34.54 1184.84,-33.75"/>
<polygon fill="black" stroke="black" points="1186.09,-30.48 1175.53,-29.62 1183.25,-36.88 1186.09,-30.48"/>
<text text-anchor="middle" x="1315.94" y="-57.8" font-family="Times,serif" font-size="14.00">dep</text>
</g>
<!-- 14 -->
<g id="node15" class="node">
<title>14</title>
<ellipse fill="none" stroke="black" cx="1244.44" cy="-18" rx="45.49" ry="18"/>
<text text-anchor="middle" x="1244.44" y="-14.3" font-family="Times,serif" font-size="14.00">Serviço</text>
</g>
<!-- 0&#45;&gt;14 -->
<g id="edge14" class="edge">
<title>0&#45;&gt;14</title>
<path fill="none" stroke="black" d="M1816.44,-104.43C1745.04,-105.05 1545.67,-103.29 1384.44,-69 1349.1,-61.48 1310.55,-47.24 1282.86,-35.87"/>
<polygon fill="black" stroke="black" points="1284.12,-32.6 1273.55,-31.98 1281.43,-39.06 1284.12,-32.6"/>
<text text-anchor="middle" x="1397.94" y="-57.8" font-family="Times,serif" font-size="14.00">dep</text>
</g>
<!-- 15 -->
<g id="node16" class="node">
<title>15</title>
<ellipse fill="none" stroke="black" cx="1334.44" cy="-18" rx="27" ry="18"/>
<text text-anchor="middle" x="1334.44" y="-14.3" font-family="Times,serif" font-size="14.00">de</text>
</g>
<!-- 0&#45;&gt;15 -->
<g id="edge15" class="edge">
<title>0&#45;&gt;15</title>
<path fill="none" stroke="black" d="M1816.29,-103.61C1754.08,-102.26 1596.69,-96.19 1468.44,-69 1423.49,-59.47 1413.07,-53.17 1370.44,-36 1368.62,-35.26 1366.75,-34.48 1364.88,-33.67"/>
<polygon fill="black" stroke="black" points="1366.14,-30.4 1355.58,-29.48 1363.26,-36.78 1366.14,-30.4"/>
<text text-anchor="middle" x="1481.94" y="-57.8" font-family="Times,serif" font-size="14.00">dep</text>
</g>
<!-- 16 -->
<g id="node17" class="node">
<title>16</title>
<ellipse fill="none" stroke="black" cx="1415.44" cy="-18" rx="36.29" ry="18"/>
<text text-anchor="middle" x="1415.44" y="-14.3" font-family="Times,serif" font-size="14.00">Apoio</text>
</g>
<!-- 0&#45;&gt;16 -->
<g id="edge16" class="edge">
<title>0&#45;&gt;16</title>
<path fill="none" stroke="black" d="M1816.43,-103.05C1763.77,-100.7 1644.01,-92.97 1546.44,-69 1512.91,-60.76 1476.31,-46.29 1450.34,-35.04"/>
<polygon fill="black" stroke="black" points="1451.5,-31.72 1440.94,-30.9 1448.68,-38.13 1451.5,-31.72"/>
<text text-anchor="middle" x="1559.94" y="-57.8" font-family="Times,serif" font-size="14.00">dep</text>
</g>
<!-- 17 -->
<g id="node18" class="node">
<title>17</title>
<ellipse fill="none" stroke="black" cx="1496.44" cy="-18" rx="27" ry="18"/>
<text text-anchor="middle" x="1496.44" y="-14.3" font-family="Times,serif" font-size="14.00">a</text>
</g>
<!-- 0&#45;&gt;17 -->
<g id="edge17" class="edge">
<title>0&#45;&gt;17</title>
<path fill="none" stroke="black" d="M1816.95,-101.32C1775.6,-96.79 1693.41,-86.36 1625.44,-69 1582.95,-58.15 1572.99,-52.72 1532.44,-36 1530.62,-35.25 1528.76,-34.45 1526.89,-33.64"/>
<polygon fill="black" stroke="black" points="1528.16,-30.37 1517.61,-29.42 1525.27,-36.74 1528.16,-30.37"/>
<text text-anchor="middle" x="1638.94" y="-57.8" font-family="Times,serif" font-size="14.00">dep</text>
</g>
<!-- 18 -->
<g id="node19" class="node">
<title>18</title>
<ellipse fill="none" stroke="black" cx="1568.44" cy="-18" rx="27" ry="18"/>
<text text-anchor="middle" x="1568.44" y="-14.3" font-family="Times,serif" font-size="14.00">a</text>
</g>
<!-- 0&#45;&gt;18 -->
<g id="edge18" class="edge">
<title>0&#45;&gt;18</title>
<path fill="none" stroke="black" d="M1818.11,-98.6C1773.85,-88.77 1679.96,-66.16 1604.44,-36 1602.62,-35.27 1600.75,-34.49 1598.87,-33.68"/>
<polygon fill="black" stroke="black" points="1600.13,-30.41 1589.57,-29.51 1597.26,-36.8 1600.13,-30.41"/>
<text text-anchor="middle" x="1714.94" y="-57.8" font-family="Times,serif" font-size="14.00">dep</text>
</g>
<!-- 19 -->
<g id="node20" class="node">
<title>19</title>
<ellipse fill="none" stroke="black" cx="1663.44" cy="-18" rx="50.09" ry="18"/>
<text text-anchor="middle" x="1663.44" y="-14.3" font-family="Times,serif" font-size="14.00">Pequena</text>
</g>
<!-- 0&#45;&gt;19 -->
<g id="edge19" class="edge">
<title>0&#45;&gt;19</title>
<path fill="none" stroke="black" d="M1821.5,-94.39C1805.82,-87.47 1784.26,-77.83 1765.44,-69 1743.81,-58.85 1719.81,-47.1 1700.52,-37.55"/>
<polygon fill="black" stroke="black" points="1701.98,-34.37 1691.46,-33.05 1698.86,-40.64 1701.98,-34.37"/>
<text text-anchor="middle" x="1778.94" y="-57.8" font-family="Times,serif" font-size="14.00">dep</text>
</g>
<!-- 20 -->
<g id="node21" class="node">
<title>20</title>
<ellipse fill="none" stroke="black" cx="1758.44" cy="-18" rx="27" ry="18"/>
<text text-anchor="middle" x="1758.44" y="-14.3" font-family="Times,serif" font-size="14.00">e</text>
</g>
<!-- 0&#45;&gt;20 -->
<g id="edge20" class="edge">
<title>0&#45;&gt;20</title>
<path fill="none" stroke="black" d="M1829.03,-89.58C1815.59,-76.15 1795.39,-55.94 1780.03,-40.59"/>
<polygon fill="black" stroke="black" points="1782.48,-38.09 1772.93,-33.49 1777.53,-43.04 1782.48,-38.09"/>
<text text-anchor="middle" x="1819.94" y="-57.8" font-family="Times,serif" font-size="14.00">dep</text>
</g>
<!-- 21 -->
<g id="node22" class="node">
<title>21</title>
<ellipse fill="none" stroke="black" cx="1843.44" cy="-18" rx="39.79" ry="18"/>
<text text-anchor="middle" x="1843.44" y="-14.3" font-family="Times,serif" font-size="14.00">Média</text>
</g>
<!-- 0&#45;&gt;21 -->
<g id="edge21" class="edge">
<title>0&#45;&gt;21</title>
<path fill="none" stroke="black" d="M1843.44,-86.8C1843.44,-75.16 1843.44,-59.55 1843.44,-46.24"/>
<polygon fill="black" stroke="black" points="1846.94,-46.18 1843.44,-36.18 1839.94,-46.18 1846.94,-46.18"/>
<text text-anchor="middle" x="1856.94" y="-57.8" font-family="Times,serif" font-size="14.00">dep</text>
</g>
<!-- 22 -->
<g id="node23" class="node">
<title>22</title>
<ellipse fill="none" stroke="black" cx="1953.44" cy="-18" rx="51.99" ry="18"/>
<text text-anchor="middle" x="1953.44" y="-14.3" font-family="Times,serif" font-size="14.00">Empresa</text>
</g>
<!-- 0&#45;&gt;22 -->
<g id="edge22" class="edge">
<title>0&#45;&gt;22</title>
<path fill="none" stroke="black" d="M1860.63,-90.72C1877.84,-77.42 1904.62,-56.73 1925,-40.98"/>
<polygon fill="black" stroke="black" points="1927.24,-43.67 1933.01,-34.79 1922.96,-38.13 1927.24,-43.67"/>
<text text-anchor="middle" x="1918.94" y="-57.8" font-family="Times,serif" font-size="14.00">dep</text>
</g>
<!-- 23 -->
<g id="node24" class="node">
<title>23</title>
<ellipse fill="none" stroke="black" cx="2050.44" cy="-18" rx="27" ry="18"/>
<text text-anchor="middle" x="2050.44" y="-14.3" font-family="Times,serif" font-size="14.00">)</text>
</g>
<!-- 0&#45;&gt;23 -->
<g id="edge23" class="edge">
<title>0&#45;&gt;23</title>
<path fill="none" stroke="black" d="M1866.86,-95.48C1885.73,-88.55 1912.9,-78.41 1936.44,-69 1971.4,-55.03 1980.09,-51.37 2014.44,-36 2016.24,-35.2 2018.09,-34.36 2019.94,-33.51"/>
<polygon fill="black" stroke="black" points="2021.6,-36.6 2029.19,-29.21 2018.65,-30.25 2021.6,-36.6"/>
<text text-anchor="middle" x="1986.94" y="-57.8" font-family="Times,serif" font-size="14.00">dep</text>
</g>
<!-- 24 -->
<g id="node25" class="node">
<title>24</title>
<ellipse fill="none" stroke="black" cx="2122.44" cy="-18" rx="27" ry="18"/>
<text text-anchor="middle" x="2122.44" y="-14.3" font-family="Times,serif" font-size="14.00">e</text>
</g>
<!-- 0&#45;&gt;24 -->
<g id="edge24" class="edge">
<title>0&#45;&gt;24</title>
<path fill="none" stroke="black" d="M1869.44,-99.74C1901.56,-94.16 1957.69,-83.38 2004.44,-69 2041.99,-57.45 2050.45,-51.73 2086.44,-36 2088.25,-35.21 2090.1,-34.39 2091.96,-33.55"/>
<polygon fill="black" stroke="black" points="2093.6,-36.64 2101.22,-29.28 2090.67,-30.29 2093.6,-36.64"/>
<text text-anchor="middle" x="2059.94" y="-57.8" font-family="Times,serif" font-size="14.00">dep</text>
</g>
<!-- 25 -->
<g id="node26" class="node">
<title>25</title>
<ellipse fill="none" stroke="black" cx="2203.44" cy="-18" rx="36.29" ry="18"/>
<text text-anchor="middle" x="2203.44" y="-14.3" font-family="Times,serif" font-size="14.00">ainda</text>
</g>
<!-- 0&#45;&gt;25 -->
<g id="edge25" class="edge">
<title>0&#45;&gt;25</title>
<path fill="none" stroke="black" d="M1870.17,-102.01C1914.06,-98.29 2003.87,-88.82 2077.44,-69 2109.14,-60.46 2143.7,-46.38 2168.6,-35.34"/>
<polygon fill="black" stroke="black" points="2170.29,-38.42 2177.97,-31.12 2167.42,-32.03 2170.29,-38.42"/>
<text text-anchor="middle" x="2133.94" y="-57.8" font-family="Times,serif" font-size="14.00">dep</text>
</g>
<!-- 26 -->
<g id="node27" class="node">
<title>26</title>
<ellipse fill="none" stroke="black" cx="2294.44" cy="-18" rx="36.29" ry="18"/>
<text text-anchor="middle" x="2294.44" y="-14.3" font-family="Times,serif" font-size="14.00">pediu</text>
</g>
<!-- 0&#45;&gt;26 -->
<g id="edge26" class="edge">
<title>0&#45;&gt;26</title>
<path fill="none" stroke="black" d="M1870.55,-102.88C1924.58,-100.21 2049.31,-91.9 2151.44,-69 2188.75,-60.64 2229.79,-45.65 2258.31,-34.26"/>
<polygon fill="black" stroke="black" points="2259.89,-37.39 2267.84,-30.4 2257.26,-30.91 2259.89,-37.39"/>
<text text-anchor="middle" x="2217.94" y="-57.8" font-family="Times,serif" font-size="14.00">dep</text>
</g>
<!-- 27 -->
<g id="node28" class="node">
<title>27</title>
<ellipse fill="none" stroke="black" cx="2375.44" cy="-18" rx="27" ry="18"/>
<text text-anchor="middle" x="2375.44" y="-14.3" font-family="Times,serif" font-size="14.00">a</text>
</g>
<!-- 0&#45;&gt;27 -->
<g id="edge27" class="edge">
<title>0&#45;&gt;27</title>
<path fill="none" stroke="black" d="M1870.83,-103.6C1935.11,-102.22 2100.46,-96.1 2235.44,-69 2282.99,-59.45 2294.31,-53.73 2339.44,-36 2341.28,-35.28 2343.15,-34.51 2345.03,-33.71"/>
<polygon fill="black" stroke="black" points="2346.63,-36.83 2354.33,-29.55 2343.77,-30.44 2346.63,-36.83"/>
<text text-anchor="middle" x="2305.94" y="-57.8" font-family="Times,serif" font-size="14.00">dep</text>
</g>
<!-- 28 -->
<g id="node29" class="node">
<title>28</title>
<ellipse fill="none" stroke="black" cx="2452.44" cy="-18" rx="31.7" ry="18"/>
<text text-anchor="middle" x="2452.44" y="-14.3" font-family="Times,serif" font-size="14.00">FHC</text>
</g>
<!-- 0&#45;&gt;28 -->
<g id="edge28" class="edge">
<title>0&#45;&gt;28</title>
<path fill="none" stroke="black" d="M1870.3,-103.05C1958.08,-99.79 2235.91,-88.19 2323.44,-69 2357.56,-61.52 2394.55,-46.4 2420.13,-34.74"/>
<polygon fill="black" stroke="black" points="2421.75,-37.85 2429.35,-30.46 2418.8,-31.5 2421.75,-37.85"/>
<text text-anchor="middle" x="2384.94" y="-57.8" font-family="Times,serif" font-size="14.00">dep</text>
</g>
<!-- 29 -->
<g id="node30" class="node">
<title>29</title>
<ellipse fill="none" stroke="black" cx="2530.44" cy="-18" rx="27.9" ry="18"/>
<text text-anchor="middle" x="2530.44" y="-14.3" font-family="Times,serif" font-size="14.00">que</text>
</g>
<!-- 0&#45;&gt;29 -->
<g id="edge29" class="edge">
<title>0&#45;&gt;29</title>
<path fill="none" stroke="black" d="M1870.55,-103.33C1967.8,-100.75 2298.92,-90.55 2402.44,-69 2437.03,-61.8 2474.43,-46.2 2499.82,-34.33"/>
<polygon fill="black" stroke="black" points="2501.41,-37.45 2508.93,-29.98 2498.4,-31.13 2501.41,-37.45"/>
<text text-anchor="middle" x="2466.94" y="-57.8" font-family="Times,serif" font-size="14.00">dep</text>
</g>
<!-- 30 -->
<g id="node31" class="node">
<title>30</title>
<ellipse fill="none" stroke="black" cx="2603.44" cy="-18" rx="27" ry="18"/>
<text text-anchor="middle" x="2603.44" y="-14.3" font-family="Times,serif" font-size="14.00">o</text>
</g>
<!-- 0&#45;&gt;30 -->
<g id="edge30" class="edge">
<title>0&#45;&gt;30</title>
<path fill="none" stroke="black" d="M1870.44,-103.69C1976.49,-102.27 2364.57,-95.36 2484.44,-69 2516.38,-61.98 2550.56,-46.72 2574.06,-34.89"/>
<polygon fill="black" stroke="black" points="2575.84,-37.92 2583.13,-30.23 2572.64,-31.69 2575.84,-37.92"/>
<text text-anchor="middle" x="2545.94" y="-57.8" font-family="Times,serif" font-size="14.00">dep</text>
</g>
<!-- 31 -->
<g id="node32" class="node">
<title>31</title>
<ellipse fill="none" stroke="black" cx="2699.44" cy="-18" rx="51.19" ry="18"/>
<text text-anchor="middle" x="2699.44" y="-14.3" font-family="Times,serif" font-size="14.00">ajudasse</text>
</g>
<!-- 0&#45;&gt;31 -->
<g id="edge31" class="edge">
<title>0&#45;&gt;31</title>
<path fill="none" stroke="black" d="M1870.58,-103.78C1984.84,-102.68 2427.16,-96.69 2563.44,-69 2597.26,-62.13 2633.88,-48.27 2660.59,-36.88"/>
<polygon fill="black" stroke="black" points="2662.18,-40.01 2669.96,-32.81 2659.39,-33.58 2662.18,-40.01"/>
<text text-anchor="middle" x="2626.94" y="-57.8" font-family="Times,serif" font-size="14.00">dep</text>
</g>
<!-- 32 -->
<g id="node33" class="node">
<title>32</title>
<ellipse fill="none" stroke="black" cx="2795.44" cy="-18" rx="27" ry="18"/>
<text text-anchor="middle" x="2795.44" y="-14.3" font-family="Times,serif" font-size="14.00">a</text>
</g>
<!-- 0&#45;&gt;32 -->
<g id="edge32" class="edge">
<title>0&#45;&gt;32</title>
<path fill="none" stroke="black" d="M1870.65,-103.67C1992.71,-102.07 2490.58,-94.08 2644.44,-69 2696.93,-60.45 2709.69,-54.75 2759.44,-36 2761.29,-35.31 2763.17,-34.55 2765.05,-33.77"/>
<polygon fill="black" stroke="black" points="2766.64,-36.89 2774.37,-29.65 2763.81,-30.49 2766.64,-36.89"/>
<text text-anchor="middle" x="2722.94" y="-57.8" font-family="Times,serif" font-size="14.00">dep</text>
</g>
<!-- 33 -->
<g id="node34" class="node">
<title>33</title>
<ellipse fill="none" stroke="black" cx="2867.44" cy="-18" rx="27" ry="18"/>
<text text-anchor="middle" x="2867.44" y="-14.3" font-family="Times,serif" font-size="14.00">pôr</text>
</g>
<!-- 0&#45;&gt;33 -->
<g id="edge33" class="edge">
<title>0&#45;&gt;33</title>
<path fill="none" stroke="black" d="M1870.83,-104.07C2002.11,-104.21 2567.81,-102.82 2740.44,-69 2775.09,-62.21 2812.42,-46.39 2837.57,-34.35"/>
<polygon fill="black" stroke="black" points="2839.14,-37.48 2846.59,-29.95 2836.07,-31.19 2839.14,-37.48"/>
<text text-anchor="middle" x="2804.94" y="-57.8" font-family="Times,serif" font-size="14.00">dep</text>
</g>
<!-- 34 -->
<g id="node35" class="node">
<title>34</title>
<ellipse fill="none" stroke="black" cx="2961.44" cy="-18" rx="48.99" ry="18"/>
<text text-anchor="middle" x="2961.44" y="-14.3" font-family="Times,serif" font-size="14.00">Durante</text>
</g>
<!-- 0&#45;&gt;34 -->
<g id="edge34" class="edge">
<title>0&#45;&gt;34</title>
<path fill="none" stroke="black" d="M1870.53,-104.16C2008.37,-104.8 2632.69,-105.59 2822.44,-69 2857.58,-62.22 2895.72,-47.98 2923.14,-36.42"/>
<polygon fill="black" stroke="black" points="2924.56,-39.62 2932.37,-32.46 2921.8,-33.19 2924.56,-39.62"/>
<text text-anchor="middle" x="2890.94" y="-57.8" font-family="Times,serif" font-size="14.00">dep</text>
</g>
<!-- 35 -->
<g id="node36" class="node">
<title>35</title>
<ellipse fill="none" stroke="black" cx="3055.44" cy="-18" rx="27" ry="18"/>
<text text-anchor="middle" x="3055.44" y="-14.3" font-family="Times,serif" font-size="14.00">em</text>
</g>
<!-- 0&#45;&gt;35 -->
<g id="edge35" class="edge">
<title>0&#45;&gt;35</title>
<path fill="none" stroke="black" d="M1870.45,-104.05C2015.14,-104.16 2699.82,-102.86 2908.44,-69 2959.25,-60.75 2971.37,-54.37 3019.44,-36 3021.28,-35.3 3023.16,-34.54 3025.04,-33.75"/>
<polygon fill="black" stroke="black" points="3026.64,-36.87 3034.36,-29.61 3023.8,-30.47 3026.64,-36.87"/>
<text text-anchor="middle" x="2984.94" y="-57.8" font-family="Times,serif" font-size="14.00">dep</text>
</g>
<!-- 36 -->
<g id="node37" class="node">
<title>36</title>
<ellipse fill="none" stroke="black" cx="3127.44" cy="-18" rx="27" ry="18"/>
<text text-anchor="middle" x="3127.44" y="-14.3" font-family="Times,serif" font-size="14.00">a</text>
</g>
<!-- 0&#45;&gt;36 -->
<g id="edge36" class="edge">
<title>0&#45;&gt;36</title>
<path fill="none" stroke="black" d="M1870.38,-103.71C2033.7,-101.88 2888.15,-91.29 3002.44,-69 3036.47,-62.36 3073.02,-46.63 3097.76,-34.58"/>
<polygon fill="black" stroke="black" points="3099.56,-37.59 3106.95,-30 3096.44,-31.32 3099.56,-37.59"/>
<text text-anchor="middle" x="3065.94" y="-57.8" font-family="Times,serif" font-size="14.00">dep</text>
</g>
<!-- 37 -->
<g id="node38" class="node">
<title>37</title>
<ellipse fill="none" stroke="black" cx="3236.44" cy="-18" rx="64.19" ry="18"/>
<text text-anchor="middle" x="3236.44" y="-14.3" font-family="Times,serif" font-size="14.00">presidência</text>
</g>
<!-- 0&#45;&gt;37 -->
<g id="edge37" class="edge">
<title>0&#45;&gt;37</title>
<path fill="none" stroke="black" d="M1870.58,-103.7C2040.98,-101.77 2960.31,-90.4 3083.44,-69 3121.33,-62.42 3162.69,-48.46 3192.85,-36.97"/>
<polygon fill="black" stroke="black" points="3194.17,-40.21 3202.23,-33.33 3191.64,-33.68 3194.17,-40.21"/>
<text text-anchor="middle" x="3156.94" y="-57.8" font-family="Times,serif" font-size="14.00">dep</text>
</g>
<!-- 38 -->
<g id="node39" class="node">
<title>38</title>
<ellipse fill="none" stroke="black" cx="3345.44" cy="-18" rx="27" ry="18"/>
<text text-anchor="middle" x="3345.44" y="-14.3" font-family="Times,serif" font-size="14.00">de</text>
</g>
<!-- 0&#45;&gt;38 -->
<g id="edge38" class="edge">
<title>0&#45;&gt;38</title>
<path fill="none" stroke="black" d="M1870.66,-104.08C2036.2,-104.41 2909.39,-104.47 3174.44,-69 3235.67,-60.81 3251.22,-56.63 3309.44,-36 3311.35,-35.32 3313.29,-34.58 3315.23,-33.8"/>
<polygon fill="black" stroke="black" points="3317.04,-36.83 3324.8,-29.62 3314.24,-30.41 3317.04,-36.83"/>
<text text-anchor="middle" x="3267.94" y="-57.8" font-family="Times,serif" font-size="14.00">dep</text>
</g>
<!-- 39 -->
<g id="node40" class="node">
<title>39</title>
<ellipse fill="none" stroke="black" cx="3417.44" cy="-18" rx="27" ry="18"/>
<text text-anchor="middle" x="3417.44" y="-14.3" font-family="Times,serif" font-size="14.00">a</text>
</g>
<!-- 0&#45;&gt;39 -->
<g id="edge39" class="edge">
<title>0&#45;&gt;39</title>
<path fill="none" stroke="black" d="M1870.67,-103.84C2057.02,-102.68 3141.33,-94.88 3285.44,-69 3321.8,-62.47 3361.11,-46.29 3387.29,-34.1"/>
<polygon fill="black" stroke="black" points="3389.12,-37.1 3396.65,-29.64 3386.11,-30.78 3389.12,-37.1"/>
<text text-anchor="middle" x="3351.94" y="-57.8" font-family="Times,serif" font-size="14.00">dep</text>
</g>
<!-- 40 -->
<g id="node41" class="node">
<title>40</title>
<ellipse fill="none" stroke="black" cx="3513.44" cy="-18" rx="51.19" ry="18"/>
<text text-anchor="middle" x="3513.44" y="-14.3" font-family="Times,serif" font-size="14.00">entidade</text>
</g>
<!-- 0&#45;&gt;40 -->
<g id="edge40" class="edge">
<title>0&#45;&gt;40</title>
<path fill="none" stroke="black" d="M1870.69,-103.88C2063.32,-103 3216.56,-96.59 3369.44,-69 3405.79,-62.44 3445.3,-48.18 3473.72,-36.55"/>
<polygon fill="black" stroke="black" points="3475.4,-39.65 3483.29,-32.57 3472.71,-33.18 3475.4,-39.65"/>
<text text-anchor="middle" x="3439.94" y="-57.8" font-family="Times,serif" font-size="14.00">dep</text>
</g>
<!-- 41 -->
<g id="node42" class="node">
<title>41</title>
<ellipse fill="none" stroke="black" cx="3609.44" cy="-18" rx="27" ry="18"/>
<text text-anchor="middle" x="3609.44" y="-14.3" font-family="Times,serif" font-size="14.00">.</text>
</g>
<!-- 0&#45;&gt;41 -->
<g id="edge41" class="edge">
<title>0&#45;&gt;41</title>
<path fill="none" stroke="black" d="M1870.64,-103.83C2069.36,-102.52 3294.53,-93.53 3457.44,-69 3510.45,-61.02 3523.26,-54.84 3573.44,-36 3575.29,-35.31 3577.17,-34.56 3579.05,-33.77"/>
<polygon fill="black" stroke="black" points="3580.64,-36.9 3588.37,-29.66 3577.81,-30.5 3580.64,-36.9"/>
<text text-anchor="middle" x="3537.94" y="-57.8" font-family="Times,serif" font-size="14.00">dep</text>
</g>
</g>
</svg>
