<?xml version="1.0" encoding="UTF-8" standalone="no"?>
<!DOCTYPE svg PUBLIC "-//W3C//DTD SVG 1.1//EN"
 "http://www.w3.org/Graphics/SVG/1.1/DTD/svg11.dtd">
<!-- Generated by graphviz version 2.42.4 (0)
 -->
<!-- Pages: 1 -->
<svg width="1185pt" height="131pt"
 viewBox="0.00 0.00 1185.30 131.00" xmlns="http://www.w3.org/2000/svg" xmlns:xlink="http://www.w3.org/1999/xlink">
<g id="graph0" class="graph" transform="scale(1 1) rotate(0) translate(4 127)">
<polygon fill="white" stroke="transparent" points="-4,4 -4,-127 1181.3,-127 1181.3,4 -4,4"/>
<!-- 0 -->
<g id="node1" class="node">
<title>0</title>
<ellipse fill="none" stroke="black" cx="590.3" cy="-105" rx="27" ry="18"/>
<text text-anchor="middle" x="590.3" y="-101.3" font-family="Times,serif" font-size="14.00">«</text>
</g>
<!-- 1 -->
<g id="node2" class="node">
<title>1</title>
<ellipse fill="none" stroke="black" cx="27.3" cy="-18" rx="27.1" ry="18"/>
<text text-anchor="middle" x="27.3" y="-14.3" font-family="Times,serif" font-size="14.00">Um</text>
</g>
<!-- 0&#45;&gt;1 -->
<g id="edge1" class="edge">
<title>0&#45;&gt;1</title>
<path fill="none" stroke="black" d="M562.92,-103.59C496.21,-102.19 320.21,-96 176.3,-69 125.29,-59.43 112.89,-54.21 64.3,-36 62.2,-35.21 60.05,-34.36 57.91,-33.47"/>
<polygon fill="black" stroke="black" points="59.16,-30.2 48.6,-29.42 56.37,-36.62 59.16,-30.2"/>
<text text-anchor="middle" x="189.8" y="-57.8" font-family="Times,serif" font-size="14.00">dep</text>
</g>
<!-- 2 -->
<g id="node3" class="node">
<title>2</title>
<ellipse fill="none" stroke="black" cx="113.3" cy="-18" rx="40.09" ry="18"/>
<text text-anchor="middle" x="113.3" y="-14.3" font-family="Times,serif" font-size="14.00">monte</text>
</g>
<!-- 0&#45;&gt;2 -->
<g id="edge2" class="edge">
<title>0&#45;&gt;2</title>
<path fill="none" stroke="black" d="M563.03,-103.13C506.14,-100.86 370.89,-93.18 260.3,-69 222.32,-60.7 180.49,-45.88 151.19,-34.53"/>
<polygon fill="black" stroke="black" points="152.35,-31.22 141.76,-30.83 149.79,-37.74 152.35,-31.22"/>
<text text-anchor="middle" x="273.8" y="-57.8" font-family="Times,serif" font-size="14.00">dep</text>
</g>
<!-- 3 -->
<g id="node4" class="node">
<title>3</title>
<ellipse fill="none" stroke="black" cx="198.3" cy="-18" rx="27" ry="18"/>
<text text-anchor="middle" x="198.3" y="-14.3" font-family="Times,serif" font-size="14.00">de</text>
</g>
<!-- 0&#45;&gt;3 -->
<g id="edge3" class="edge">
<title>0&#45;&gt;3</title>
<path fill="none" stroke="black" d="M563.54,-102.05C503.08,-96.98 352.01,-80.51 234.3,-36 232.46,-35.3 230.58,-34.55 228.69,-33.76"/>
<polygon fill="black" stroke="black" points="229.94,-30.49 219.38,-29.64 227.1,-36.89 229.94,-30.49"/>
<text text-anchor="middle" x="352.8" y="-57.8" font-family="Times,serif" font-size="14.00">dep</text>
</g>
<!-- 4 -->
<g id="node5" class="node">
<title>4</title>
<ellipse fill="none" stroke="black" cx="289.3" cy="-18" rx="46.29" ry="18"/>
<text text-anchor="middle" x="289.3" y="-14.3" font-family="Times,serif" font-size="14.00">artistas</text>
</g>
<!-- 0&#45;&gt;4 -->
<g id="edge4" class="edge">
<title>0&#45;&gt;4</title>
<path fill="none" stroke="black" d="M564.42,-99.76C531.51,-94.09 473.11,-83.1 424.3,-69 391.69,-59.58 355.68,-46.08 329.06,-35.48"/>
<polygon fill="black" stroke="black" points="330.28,-32.2 319.7,-31.72 327.67,-38.7 330.28,-32.2"/>
<text text-anchor="middle" x="437.8" y="-57.8" font-family="Times,serif" font-size="14.00">dep</text>
</g>
<!-- 5 -->
<g id="node6" class="node">
<title>5</title>
<ellipse fill="none" stroke="black" cx="380.3" cy="-18" rx="27" ry="18"/>
<text text-anchor="middle" x="380.3" y="-14.3" font-family="Times,serif" font-size="14.00">vai</text>
</g>
<!-- 0&#45;&gt;5 -->
<g id="edge5" class="edge">
<title>0&#45;&gt;5</title>
<path fill="none" stroke="black" d="M566.4,-96.4C545.79,-89.68 515.33,-79.37 489.3,-69 456.22,-55.82 448.62,-50.94 416.3,-36 414.51,-35.17 412.67,-34.32 410.82,-33.46"/>
<polygon fill="black" stroke="black" points="412.13,-30.21 401.59,-29.13 409.16,-36.54 412.13,-30.21"/>
<text text-anchor="middle" x="502.8" y="-57.8" font-family="Times,serif" font-size="14.00">dep</text>
</g>
<!-- 6 -->
<g id="node7" class="node">
<title>6</title>
<ellipse fill="none" stroke="black" cx="467.3" cy="-18" rx="42.49" ry="18"/>
<text text-anchor="middle" x="467.3" y="-14.3" font-family="Times,serif" font-size="14.00">querer</text>
</g>
<!-- 0&#45;&gt;6 -->
<g id="edge6" class="edge">
<title>0&#45;&gt;6</title>
<path fill="none" stroke="black" d="M571.87,-91.39C562.17,-84.74 550.08,-76.44 539.3,-69 525.36,-59.38 509.93,-48.67 496.94,-39.64"/>
<polygon fill="black" stroke="black" points="498.59,-36.53 488.38,-33.69 494.6,-42.27 498.59,-36.53"/>
<text text-anchor="middle" x="552.8" y="-57.8" font-family="Times,serif" font-size="14.00">dep</text>
</g>
<!-- 7 -->
<g id="node8" class="node">
<title>7</title>
<ellipse fill="none" stroke="black" cx="554.3" cy="-18" rx="27" ry="18"/>
<text text-anchor="middle" x="554.3" y="-14.3" font-family="Times,serif" font-size="14.00">ver</text>
</g>
<!-- 0&#45;&gt;7 -->
<g id="edge7" class="edge">
<title>0&#45;&gt;7</title>
<path fill="none" stroke="black" d="M583.19,-87.21C578.07,-75.14 571.09,-58.64 565.26,-44.89"/>
<polygon fill="black" stroke="black" points="568.4,-43.31 561.27,-35.47 561.95,-46.04 568.4,-43.31"/>
<text text-anchor="middle" x="588.8" y="-57.8" font-family="Times,serif" font-size="14.00">dep</text>
</g>
<!-- 8 -->
<g id="node9" class="node">
<title>8</title>
<ellipse fill="none" stroke="black" cx="626.3" cy="-18" rx="27" ry="18"/>
<text text-anchor="middle" x="626.3" y="-14.3" font-family="Times,serif" font-size="14.00">os</text>
</g>
<!-- 0&#45;&gt;8 -->
<g id="edge8" class="edge">
<title>0&#45;&gt;8</title>
<path fill="none" stroke="black" d="M597.41,-87.21C602.52,-75.14 609.51,-58.64 615.33,-44.89"/>
<polygon fill="black" stroke="black" points="618.65,-46.04 619.32,-35.47 612.2,-43.31 618.65,-46.04"/>
<text text-anchor="middle" x="624.8" y="-57.8" font-family="Times,serif" font-size="14.00">dep</text>
</g>
<!-- 9 -->
<g id="node10" class="node">
<title>9</title>
<ellipse fill="none" stroke="black" cx="727.3" cy="-18" rx="55.79" ry="18"/>
<text text-anchor="middle" x="727.3" y="-14.3" font-family="Times,serif" font-size="14.00">concertos</text>
</g>
<!-- 0&#45;&gt;9 -->
<g id="edge9" class="edge">
<title>0&#45;&gt;9</title>
<path fill="none" stroke="black" d="M609.35,-92.18C631.15,-78.66 667.25,-56.26 693.78,-39.79"/>
<polygon fill="black" stroke="black" points="695.73,-42.71 702.38,-34.46 692.04,-36.76 695.73,-42.71"/>
<text text-anchor="middle" x="680.8" y="-57.8" font-family="Times,serif" font-size="14.00">dep</text>
</g>
<!-- 10 -->
<g id="node11" class="node">
<title>10</title>
<ellipse fill="none" stroke="black" cx="828.3" cy="-18" rx="27" ry="18"/>
<text text-anchor="middle" x="828.3" y="-14.3" font-family="Times,serif" font-size="14.00">»</text>
</g>
<!-- 0&#45;&gt;10 -->
<g id="edge10" class="edge">
<title>0&#45;&gt;10</title>
<path fill="none" stroke="black" d="M614.61,-96.93C652.93,-85.54 729.48,-61.78 792.3,-36 794.12,-35.25 795.98,-34.46 797.85,-33.64"/>
<polygon fill="black" stroke="black" points="799.48,-36.75 807.14,-29.44 796.59,-30.37 799.48,-36.75"/>
<text text-anchor="middle" x="756.8" y="-57.8" font-family="Times,serif" font-size="14.00">dep</text>
</g>
<!-- 11 -->
<g id="node12" class="node">
<title>11</title>
<ellipse fill="none" stroke="black" cx="900.3" cy="-18" rx="27" ry="18"/>
<text text-anchor="middle" x="900.3" y="-14.3" font-family="Times,serif" font-size="14.00">,</text>
</g>
<!-- 0&#45;&gt;11 -->
<g id="edge11" class="edge">
<title>0&#45;&gt;11</title>
<path fill="none" stroke="black" d="M616.51,-100.39C652.48,-95.14 718.98,-84.29 774.3,-69 815.36,-57.65 825,-52.45 864.3,-36 866.11,-35.24 867.97,-34.44 869.84,-33.61"/>
<polygon fill="black" stroke="black" points="871.47,-36.72 879.12,-29.39 868.57,-30.35 871.47,-36.72"/>
<text text-anchor="middle" x="833.8" y="-57.8" font-family="Times,serif" font-size="14.00">dep</text>
</g>
<!-- 12 -->
<g id="node13" class="node">
<title>12</title>
<ellipse fill="none" stroke="black" cx="972.3" cy="-18" rx="27" ry="18"/>
<text text-anchor="middle" x="972.3" y="-14.3" font-family="Times,serif" font-size="14.00">diz</text>
</g>
<!-- 0&#45;&gt;12 -->
<g id="edge12" class="edge">
<title>0&#45;&gt;12</title>
<path fill="none" stroke="black" d="M617.38,-102.49C665.23,-99.35 767.62,-90.53 851.3,-69 883.41,-60.74 918.22,-45.65 942.23,-34.21"/>
<polygon fill="black" stroke="black" points="944.03,-37.22 951.5,-29.71 940.97,-30.92 944.03,-37.22"/>
<text text-anchor="middle" x="909.8" y="-57.8" font-family="Times,serif" font-size="14.00">dep</text>
</g>
<!-- 13 -->
<g id="node14" class="node">
<title>13</title>
<ellipse fill="none" stroke="black" cx="1061.3" cy="-18" rx="44.39" ry="18"/>
<text text-anchor="middle" x="1061.3" y="-14.3" font-family="Times,serif" font-size="14.00">Ohtake</text>
</g>
<!-- 0&#45;&gt;13 -->
<g id="edge13" class="edge">
<title>0&#45;&gt;13</title>
<path fill="none" stroke="black" d="M617.33,-103.51C675.03,-101.95 814.19,-95.52 927.3,-69 960.78,-61.15 997.25,-47.16 1023.68,-35.97"/>
<polygon fill="black" stroke="black" points="1025.13,-39.16 1032.94,-31.99 1022.37,-32.72 1025.13,-39.16"/>
<text text-anchor="middle" x="989.8" y="-57.8" font-family="Times,serif" font-size="14.00">dep</text>
</g>
<!-- 14 -->
<g id="node15" class="node">
<title>14</title>
<ellipse fill="none" stroke="black" cx="1150.3" cy="-18" rx="27" ry="18"/>
<text text-anchor="middle" x="1150.3" y="-14.3" font-family="Times,serif" font-size="14.00">.</text>
</g>
<!-- 0&#45;&gt;14 -->
<g id="edge14" class="edge">
<title>0&#45;&gt;14</title>
<path fill="none" stroke="black" d="M617.4,-103.74C684.26,-102.65 862.16,-97.13 1007.3,-69 1056.15,-59.53 1067.9,-54 1114.3,-36 1116.13,-35.29 1118.01,-34.52 1119.89,-33.73"/>
<polygon fill="black" stroke="black" points="1121.49,-36.85 1129.2,-29.58 1118.64,-30.45 1121.49,-36.85"/>
<text text-anchor="middle" x="1078.8" y="-57.8" font-family="Times,serif" font-size="14.00">dep</text>
</g>
</g>
</svg>
