<?xml version="1.0" encoding="UTF-8" standalone="no"?>
<!DOCTYPE svg PUBLIC "-//W3C//DTD SVG 1.1//EN"
 "http://www.w3.org/Graphics/SVG/1.1/DTD/svg11.dtd">
<!-- Generated by graphviz version 2.42.4 (0)
 -->
<!-- Pages: 1 -->
<svg width="1664pt" height="131pt"
 viewBox="0.00 0.00 1664.19 131.00" xmlns="http://www.w3.org/2000/svg" xmlns:xlink="http://www.w3.org/1999/xlink">
<g id="graph0" class="graph" transform="scale(1 1) rotate(0) translate(4 127)">
<polygon fill="white" stroke="transparent" points="-4,4 -4,-127 1660.19,-127 1660.19,4 -4,4"/>
<!-- 0 -->
<g id="node1" class="node">
<title>0</title>
<ellipse fill="none" stroke="black" cx="951.19" cy="-105" rx="27" ry="18"/>
<text text-anchor="middle" x="951.19" y="-101.3" font-family="Times,serif" font-size="14.00">O</text>
</g>
<!-- 1 -->
<g id="node2" class="node">
<title>1</title>
<ellipse fill="none" stroke="black" cx="57.19" cy="-18" rx="57.39" ry="18"/>
<text text-anchor="middle" x="57.19" y="-14.3" font-family="Times,serif" font-size="14.00">irrequieto</text>
</g>
<!-- 0&#45;&gt;1 -->
<g id="edge1" class="edge">
<title>0&#45;&gt;1</title>
<path fill="none" stroke="black" d="M924.11,-103.45C811.06,-101.02 376.49,-90.46 241.19,-69 193.98,-61.51 141.47,-46.56 104.68,-34.95"/>
<polygon fill="black" stroke="black" points="105.32,-31.48 94.73,-31.77 103.19,-38.15 105.32,-31.48"/>
<text text-anchor="middle" x="254.69" y="-57.8" font-family="Times,serif" font-size="14.00">dep</text>
</g>
<!-- 2 -->
<g id="node3" class="node">
<title>2</title>
<ellipse fill="none" stroke="black" cx="162.19" cy="-18" rx="29.8" ry="18"/>
<text text-anchor="middle" x="162.19" y="-14.3" font-family="Times,serif" font-size="14.00">José</text>
</g>
<!-- 0&#45;&gt;2 -->
<g id="edge2" class="edge">
<title>0&#45;&gt;2</title>
<path fill="none" stroke="black" d="M924.19,-103.39C842.99,-101.31 594.03,-93.28 389.19,-69 304.95,-59.01 282.43,-60.45 201.19,-36 198.93,-35.32 196.62,-34.54 194.31,-33.7"/>
<polygon fill="black" stroke="black" points="195.54,-30.42 184.95,-29.99 192.96,-36.93 195.54,-30.42"/>
<text text-anchor="middle" x="402.69" y="-57.8" font-family="Times,serif" font-size="14.00">dep</text>
</g>
<!-- 3 -->
<g id="node4" class="node">
<title>3</title>
<ellipse fill="none" stroke="black" cx="271.19" cy="-18" rx="61.19" ry="18"/>
<text text-anchor="middle" x="271.19" y="-14.3" font-family="Times,serif" font-size="14.00">Magalhães</text>
</g>
<!-- 0&#45;&gt;3 -->
<g id="edge3" class="edge">
<title>0&#45;&gt;3</title>
<path fill="none" stroke="black" d="M924.31,-103.05C854.52,-100.35 661.96,-91.29 503.19,-69 441.61,-60.36 372.01,-44.53 325.24,-32.99"/>
<polygon fill="black" stroke="black" points="325.88,-29.54 315.33,-30.52 324.19,-36.33 325.88,-29.54"/>
<text text-anchor="middle" x="516.69" y="-57.8" font-family="Times,serif" font-size="14.00">dep</text>
</g>
<!-- 4 -->
<g id="node5" class="node">
<title>4</title>
<ellipse fill="none" stroke="black" cx="400.19" cy="-18" rx="50.09" ry="18"/>
<text text-anchor="middle" x="400.19" y="-14.3" font-family="Times,serif" font-size="14.00">resolveu</text>
</g>
<!-- 0&#45;&gt;4 -->
<g id="edge4" class="edge">
<title>0&#45;&gt;4</title>
<path fill="none" stroke="black" d="M924.26,-102.24C866.7,-98.25 727.59,-87.42 612.19,-69 543.93,-58.1 527.26,-52.76 460.19,-36 456.12,-34.98 451.9,-33.88 447.67,-32.75"/>
<polygon fill="black" stroke="black" points="448.44,-29.33 437.87,-30.06 446.59,-36.08 448.44,-29.33"/>
<text text-anchor="middle" x="625.69" y="-57.8" font-family="Times,serif" font-size="14.00">dep</text>
</g>
<!-- 5 -->
<g id="node6" class="node">
<title>5</title>
<ellipse fill="none" stroke="black" cx="514.19" cy="-18" rx="45.49" ry="18"/>
<text text-anchor="middle" x="514.19" y="-14.3" font-family="Times,serif" font-size="14.00">brindar</text>
</g>
<!-- 0&#45;&gt;5 -->
<g id="edge5" class="edge">
<title>0&#45;&gt;5</title>
<path fill="none" stroke="black" d="M924.66,-100.69C881.01,-95.1 791.41,-83.03 716.19,-69 650.37,-56.73 633.9,-53.23 569.19,-36 565.6,-35.04 561.89,-34.01 558.18,-32.93"/>
<polygon fill="black" stroke="black" points="558.98,-29.52 548.4,-30.03 556.99,-36.23 558.98,-29.52"/>
<text text-anchor="middle" x="729.69" y="-57.8" font-family="Times,serif" font-size="14.00">dep</text>
</g>
<!-- 6 -->
<g id="node7" class="node">
<title>6</title>
<ellipse fill="none" stroke="black" cx="637.19" cy="-18" rx="59.29" ry="18"/>
<text text-anchor="middle" x="637.19" y="-14.3" font-family="Times,serif" font-size="14.00">deputados</text>
</g>
<!-- 0&#45;&gt;6 -->
<g id="edge6" class="edge">
<title>0&#45;&gt;6</title>
<path fill="none" stroke="black" d="M925.46,-99C894.22,-92.75 840.03,-81.38 794.19,-69 756.94,-58.94 715.35,-45.6 684.34,-35.22"/>
<polygon fill="black" stroke="black" points="685.26,-31.84 674.67,-31.97 683.03,-38.48 685.26,-31.84"/>
<text text-anchor="middle" x="807.69" y="-57.8" font-family="Times,serif" font-size="14.00">dep</text>
</g>
<!-- 7 -->
<g id="node8" class="node">
<title>7</title>
<ellipse fill="none" stroke="black" cx="741.19" cy="-18" rx="27" ry="18"/>
<text text-anchor="middle" x="741.19" y="-14.3" font-family="Times,serif" font-size="14.00">,</text>
</g>
<!-- 0&#45;&gt;7 -->
<g id="edge7" class="edge">
<title>0&#45;&gt;7</title>
<path fill="none" stroke="black" d="M927.91,-95.48C894.34,-83.07 830.51,-58.97 777.19,-36 775.39,-35.22 773.53,-34.4 771.67,-33.57"/>
<polygon fill="black" stroke="black" points="772.95,-30.31 762.41,-29.31 770.03,-36.67 772.95,-30.31"/>
<text text-anchor="middle" x="871.69" y="-57.8" font-family="Times,serif" font-size="14.00">dep</text>
</g>
<!-- 8 -->
<g id="node9" class="node">
<title>8</title>
<ellipse fill="none" stroke="black" cx="846.19" cy="-18" rx="59.59" ry="18"/>
<text text-anchor="middle" x="846.19" y="-14.3" font-family="Times,serif" font-size="14.00">jornalistas</text>
</g>
<!-- 0&#45;&gt;8 -->
<g id="edge8" class="edge">
<title>0&#45;&gt;8</title>
<path fill="none" stroke="black" d="M934.32,-90.34C918.09,-77.2 893.26,-57.1 874.08,-41.58"/>
<polygon fill="black" stroke="black" points="876.23,-38.81 866.25,-35.24 871.82,-44.25 876.23,-38.81"/>
<text text-anchor="middle" x="918.69" y="-57.8" font-family="Times,serif" font-size="14.00">dep</text>
</g>
<!-- 9 -->
<g id="node10" class="node">
<title>9</title>
<ellipse fill="none" stroke="black" cx="951.19" cy="-18" rx="27" ry="18"/>
<text text-anchor="middle" x="951.19" y="-14.3" font-family="Times,serif" font-size="14.00">e</text>
</g>
<!-- 0&#45;&gt;9 -->
<g id="edge9" class="edge">
<title>0&#45;&gt;9</title>
<path fill="none" stroke="black" d="M951.19,-86.8C951.19,-75.16 951.19,-59.55 951.19,-46.24"/>
<polygon fill="black" stroke="black" points="954.7,-46.18 951.19,-36.18 947.7,-46.18 954.7,-46.18"/>
<text text-anchor="middle" x="964.69" y="-57.8" font-family="Times,serif" font-size="14.00">dep</text>
</g>
<!-- 10 -->
<g id="node11" class="node">
<title>10</title>
<ellipse fill="none" stroke="black" cx="1040.19" cy="-18" rx="44.39" ry="18"/>
<text text-anchor="middle" x="1040.19" y="-14.3" font-family="Times,serif" font-size="14.00">amigos</text>
</g>
<!-- 0&#45;&gt;10 -->
<g id="edge10" class="edge">
<title>0&#45;&gt;10</title>
<path fill="none" stroke="black" d="M966.29,-89.58C979.93,-76.56 1000.24,-57.16 1016.12,-42"/>
<polygon fill="black" stroke="black" points="1018.69,-44.38 1023.51,-34.94 1013.86,-39.31 1018.69,-44.38"/>
<text text-anchor="middle" x="1014.69" y="-57.8" font-family="Times,serif" font-size="14.00">dep</text>
</g>
<!-- 11 -->
<g id="node12" class="node">
<title>11</title>
<ellipse fill="none" stroke="black" cx="1132.19" cy="-18" rx="29.8" ry="18"/>
<text text-anchor="middle" x="1132.19" y="-14.3" font-family="Times,serif" font-size="14.00">com</text>
</g>
<!-- 0&#45;&gt;11 -->
<g id="edge11" class="edge">
<title>0&#45;&gt;11</title>
<path fill="none" stroke="black" d="M973.69,-94.68C990.03,-87.81 1012.61,-78.12 1032.19,-69 1055.48,-58.16 1081.42,-45.16 1101.04,-35.14"/>
<polygon fill="black" stroke="black" points="1102.82,-38.16 1110.13,-30.48 1099.63,-31.93 1102.82,-38.16"/>
<text text-anchor="middle" x="1076.69" y="-57.8" font-family="Times,serif" font-size="14.00">dep</text>
</g>
<!-- 12 -->
<g id="node13" class="node">
<title>12</title>
<ellipse fill="none" stroke="black" cx="1210.19" cy="-18" rx="30.59" ry="18"/>
<text text-anchor="middle" x="1210.19" y="-14.3" font-family="Times,serif" font-size="14.00">uma</text>
</g>
<!-- 0&#45;&gt;12 -->
<g id="edge12" class="edge">
<title>0&#45;&gt;12</title>
<path fill="none" stroke="black" d="M976.87,-99.05C1005.77,-93.17 1053.95,-82.45 1094.19,-69 1129.51,-57.2 1137.02,-50.77 1171.19,-36 1173.03,-35.21 1174.9,-34.4 1176.8,-33.57"/>
<polygon fill="black" stroke="black" points="1178.5,-36.65 1186.28,-29.45 1175.71,-30.23 1178.5,-36.65"/>
<text text-anchor="middle" x="1145.69" y="-57.8" font-family="Times,serif" font-size="14.00">dep</text>
</g>
<!-- 13 -->
<g id="node14" class="node">
<title>13</title>
<ellipse fill="none" stroke="black" cx="1302.19" cy="-18" rx="43.59" ry="18"/>
<text text-anchor="middle" x="1302.19" y="-14.3" font-family="Times,serif" font-size="14.00">prenda</text>
</g>
<!-- 0&#45;&gt;13 -->
<g id="edge13" class="edge">
<title>0&#45;&gt;13</title>
<path fill="none" stroke="black" d="M977.63,-101.2C1018.06,-96.57 1097.49,-86.09 1163.19,-69 1197.83,-59.99 1236.01,-45.95 1263.58,-35.03"/>
<polygon fill="black" stroke="black" points="1264.88,-38.28 1272.86,-31.32 1262.28,-31.78 1264.88,-38.28"/>
<text text-anchor="middle" x="1223.69" y="-57.8" font-family="Times,serif" font-size="14.00">dep</text>
</g>
<!-- 14 -->
<g id="node15" class="node">
<title>14</title>
<ellipse fill="none" stroke="black" cx="1391.19" cy="-18" rx="27" ry="18"/>
<text text-anchor="middle" x="1391.19" y="-14.3" font-family="Times,serif" font-size="14.00">«</text>
</g>
<!-- 0&#45;&gt;14 -->
<g id="edge14" class="edge">
<title>0&#45;&gt;14</title>
<path fill="none" stroke="black" d="M978.22,-102.2C1029.76,-98.46 1145.54,-88.48 1241.19,-69 1292.88,-58.47 1305.86,-54.65 1355.19,-36 1357.04,-35.3 1358.92,-34.55 1360.8,-33.76"/>
<polygon fill="black" stroke="black" points="1362.39,-36.89 1370.12,-29.64 1359.56,-30.49 1362.39,-36.89"/>
<text text-anchor="middle" x="1316.69" y="-57.8" font-family="Times,serif" font-size="14.00">dep</text>
</g>
<!-- 15 -->
<g id="node16" class="node">
<title>15</title>
<ellipse fill="none" stroke="black" cx="1474.19" cy="-18" rx="38.19" ry="18"/>
<text text-anchor="middle" x="1474.19" y="-14.3" font-family="Times,serif" font-size="14.00">pirata</text>
</g>
<!-- 0&#45;&gt;15 -->
<g id="edge15" class="edge">
<title>0&#45;&gt;15</title>
<path fill="none" stroke="black" d="M978.48,-103.83C1041.76,-102.94 1203.11,-97.77 1334.19,-69 1370.39,-61.06 1410.02,-46.3 1437.85,-34.86"/>
<polygon fill="black" stroke="black" points="1439.29,-38.05 1447.17,-30.98 1436.6,-31.59 1439.29,-38.05"/>
<text text-anchor="middle" x="1399.69" y="-57.8" font-family="Times,serif" font-size="14.00">dep</text>
</g>
<!-- 16 -->
<g id="node17" class="node">
<title>16</title>
<ellipse fill="none" stroke="black" cx="1557.19" cy="-18" rx="27" ry="18"/>
<text text-anchor="middle" x="1557.19" y="-14.3" font-family="Times,serif" font-size="14.00">»</text>
</g>
<!-- 0&#45;&gt;16 -->
<g id="edge16" class="edge">
<title>0&#45;&gt;16</title>
<path fill="none" stroke="black" d="M978.28,-104.15C1050.37,-104.08 1252.71,-100.82 1417.19,-69 1464.81,-59.79 1476.06,-53.73 1521.19,-36 1523.03,-35.28 1524.9,-34.51 1526.78,-33.71"/>
<polygon fill="black" stroke="black" points="1528.38,-36.83 1536.08,-29.55 1525.52,-30.44 1528.38,-36.83"/>
<text text-anchor="middle" x="1487.69" y="-57.8" font-family="Times,serif" font-size="14.00">dep</text>
</g>
<!-- 17 -->
<g id="node18" class="node">
<title>17</title>
<ellipse fill="none" stroke="black" cx="1629.19" cy="-18" rx="27" ry="18"/>
<text text-anchor="middle" x="1629.19" y="-14.3" font-family="Times,serif" font-size="14.00">.</text>
</g>
<!-- 0&#45;&gt;17 -->
<g id="edge17" class="edge">
<title>0&#45;&gt;17</title>
<path fill="none" stroke="black" d="M978.4,-103.34C1075.23,-100.84 1402.83,-90.92 1505.19,-69 1538.66,-61.84 1574.7,-46.34 1599.26,-34.49"/>
<polygon fill="black" stroke="black" points="1600.97,-37.54 1608.4,-29.98 1597.88,-31.26 1600.97,-37.54"/>
<text text-anchor="middle" x="1568.69" y="-57.8" font-family="Times,serif" font-size="14.00">dep</text>
</g>
</g>
</svg>
