<?xml version="1.0" encoding="UTF-8" standalone="no"?>
<!DOCTYPE svg PUBLIC "-//W3C//DTD SVG 1.1//EN"
 "http://www.w3.org/Graphics/SVG/1.1/DTD/svg11.dtd">
<!-- Generated by graphviz version 2.42.4 (0)
 -->
<!-- Pages: 1 -->
<svg width="4418pt" height="131pt"
 viewBox="0.00 0.00 4418.00 131.00" xmlns="http://www.w3.org/2000/svg" xmlns:xlink="http://www.w3.org/1999/xlink">
<g id="graph0" class="graph" transform="scale(1 1) rotate(0) translate(4 127)">
<polygon fill="white" stroke="transparent" points="-4,4 -4,-127 4414,-127 4414,4 -4,4"/>
<!-- 0 -->
<g id="node1" class="node">
<title>0</title>
<ellipse fill="none" stroke="black" cx="2204" cy="-105" rx="39.79" ry="18"/>
<text text-anchor="middle" x="2204" y="-101.3" font-family="Times,serif" font-size="14.00">Desde</text>
</g>
<!-- 1 -->
<g id="node2" class="node">
<title>1</title>
<ellipse fill="none" stroke="black" cx="27" cy="-18" rx="27" ry="18"/>
<text text-anchor="middle" x="27" y="-14.3" font-family="Times,serif" font-size="14.00">o</text>
</g>
<!-- 0&#45;&gt;1 -->
<g id="edge1" class="edge">
<title>0&#45;&gt;1</title>
<path fill="none" stroke="black" d="M2164.38,-103.98C1898.28,-103.73 375.48,-100.92 172,-69 122,-61.16 110.23,-54.19 63,-36 61.16,-35.29 59.29,-34.53 57.41,-33.74"/>
<polygon fill="black" stroke="black" points="58.65,-30.46 48.09,-29.59 55.81,-36.86 58.65,-30.46"/>
<text text-anchor="middle" x="185.5" y="-57.8" font-family="Times,serif" font-size="14.00">dep</text>
</g>
<!-- 2 -->
<g id="node3" class="node">
<title>2</title>
<ellipse fill="none" stroke="black" cx="123" cy="-18" rx="50.89" ry="18"/>
<text text-anchor="middle" x="123" y="-14.3" font-family="Times,serif" font-size="14.00">primeiro</text>
</g>
<!-- 0&#45;&gt;2 -->
<g id="edge2" class="edge">
<title>0&#45;&gt;2</title>
<path fill="none" stroke="black" d="M2164.3,-104.11C1904.14,-104.73 447.64,-106.5 254,-69 221.36,-62.68 186.27,-48.88 160.63,-37.37"/>
<polygon fill="black" stroke="black" points="161.84,-34.07 151.29,-33.09 158.92,-40.44 161.84,-34.07"/>
<text text-anchor="middle" x="267.5" y="-57.8" font-family="Times,serif" font-size="14.00">dep</text>
</g>
<!-- 3 -->
<g id="node4" class="node">
<title>3</title>
<ellipse fill="none" stroke="black" cx="219" cy="-18" rx="27" ry="18"/>
<text text-anchor="middle" x="219" y="-14.3" font-family="Times,serif" font-size="14.00">dia</text>
</g>
<!-- 0&#45;&gt;3 -->
<g id="edge3" class="edge">
<title>0&#45;&gt;3</title>
<path fill="none" stroke="black" d="M2164.38,-103.71C1901.85,-101.77 420.65,-89.88 328,-69 298.98,-62.46 268.41,-47.65 247.05,-35.84"/>
<polygon fill="black" stroke="black" points="248.63,-32.71 238.21,-30.82 245.18,-38.8 248.63,-32.71"/>
<text text-anchor="middle" x="341.5" y="-57.8" font-family="Times,serif" font-size="14.00">dep</text>
</g>
<!-- 4 -->
<g id="node5" class="node">
<title>4</title>
<ellipse fill="none" stroke="black" cx="291" cy="-18" rx="27" ry="18"/>
<text text-anchor="middle" x="291" y="-14.3" font-family="Times,serif" font-size="14.00">de</text>
</g>
<!-- 0&#45;&gt;4 -->
<g id="edge4" class="edge">
<title>0&#45;&gt;4</title>
<path fill="none" stroke="black" d="M2164.15,-104.15C1915.37,-104.99 580.23,-107.62 403,-69 372.96,-62.45 341.18,-47.39 319.18,-35.5"/>
<polygon fill="black" stroke="black" points="320.83,-32.41 310.38,-30.63 317.44,-38.53 320.83,-32.41"/>
<text text-anchor="middle" x="416.5" y="-57.8" font-family="Times,serif" font-size="14.00">dep</text>
</g>
<!-- 5 -->
<g id="node6" class="node">
<title>5</title>
<ellipse fill="none" stroke="black" cx="363" cy="-18" rx="27" ry="18"/>
<text text-anchor="middle" x="363" y="-14.3" font-family="Times,serif" font-size="14.00">o</text>
</g>
<!-- 0&#45;&gt;5 -->
<g id="edge5" class="edge">
<title>0&#45;&gt;5</title>
<path fill="none" stroke="black" d="M2164.31,-104.06C1922.28,-104.33 649.68,-104.03 480,-69 448.44,-62.48 414.85,-47.15 391.8,-35.17"/>
<polygon fill="black" stroke="black" points="393.37,-32.05 382.9,-30.45 390.09,-38.23 393.37,-32.05"/>
<text text-anchor="middle" x="493.5" y="-57.8" font-family="Times,serif" font-size="14.00">dep</text>
</g>
<!-- 6 -->
<g id="node7" class="node">
<title>6</title>
<ellipse fill="none" stroke="black" cx="435" cy="-18" rx="27.1" ry="18"/>
<text text-anchor="middle" x="435" y="-14.3" font-family="Times,serif" font-size="14.00">ano</text>
</g>
<!-- 0&#45;&gt;6 -->
<g id="edge6" class="edge">
<title>0&#45;&gt;6</title>
<path fill="none" stroke="black" d="M2164.28,-103.95C1928.91,-103.52 721.87,-99.82 560,-69 525.95,-62.52 489.4,-46.76 464.67,-34.66"/>
<polygon fill="black" stroke="black" points="465.99,-31.4 455.48,-30.06 462.86,-37.66 465.99,-31.4"/>
<text text-anchor="middle" x="573.5" y="-57.8" font-family="Times,serif" font-size="14.00">dep</text>
</g>
<!-- 7 -->
<g id="node8" class="node">
<title>7</title>
<ellipse fill="none" stroke="black" cx="507" cy="-18" rx="27" ry="18"/>
<text text-anchor="middle" x="507" y="-14.3" font-family="Times,serif" font-size="14.00">,</text>
</g>
<!-- 0&#45;&gt;7 -->
<g id="edge7" class="edge">
<title>0&#45;&gt;7</title>
<path fill="none" stroke="black" d="M2164.31,-103.76C1936.89,-102.26 804.18,-93.65 651,-69 601.45,-61.03 589.81,-54.1 543,-36 541.16,-35.29 539.29,-34.53 537.41,-33.73"/>
<polygon fill="black" stroke="black" points="538.66,-30.46 528.1,-29.59 535.81,-36.85 538.66,-30.46"/>
<text text-anchor="middle" x="664.5" y="-57.8" font-family="Times,serif" font-size="14.00">dep</text>
</g>
<!-- 8 -->
<g id="node9" class="node">
<title>8</title>
<ellipse fill="none" stroke="black" cx="588" cy="-18" rx="36" ry="18"/>
<text text-anchor="middle" x="588" y="-14.3" font-family="Times,serif" font-size="14.00">entre</text>
</g>
<!-- 0&#45;&gt;8 -->
<g id="edge8" class="edge">
<title>0&#45;&gt;8</title>
<path fill="none" stroke="black" d="M2164.15,-103.69C1944.45,-101.88 885.68,-92.03 742,-69 700.3,-62.32 654.5,-46.26 623.78,-34.13"/>
<polygon fill="black" stroke="black" points="624.95,-30.82 614.36,-30.34 622.34,-37.32 624.95,-30.82"/>
<text text-anchor="middle" x="755.5" y="-57.8" font-family="Times,serif" font-size="14.00">dep</text>
</g>
<!-- 9 -->
<g id="node10" class="node">
<title>9</title>
<ellipse fill="none" stroke="black" cx="669" cy="-18" rx="27" ry="18"/>
<text text-anchor="middle" x="669" y="-14.3" font-family="Times,serif" font-size="14.00">os</text>
</g>
<!-- 0&#45;&gt;9 -->
<g id="edge9" class="edge">
<title>0&#45;&gt;9</title>
<path fill="none" stroke="black" d="M2164.15,-103.72C1973.09,-102.26 1149.53,-94.58 894,-69 809.15,-60.51 786.28,-61.77 705,-36 703.07,-35.39 701.12,-34.7 699.16,-33.95"/>
<polygon fill="black" stroke="black" points="700.13,-30.56 689.56,-29.86 697.39,-37 700.13,-30.56"/>
<text text-anchor="middle" x="907.5" y="-57.8" font-family="Times,serif" font-size="14.00">dep</text>
</g>
<!-- 10 -->
<g id="node11" class="node">
<title>10</title>
<ellipse fill="none" stroke="black" cx="786" cy="-18" rx="72.29" ry="18"/>
<text text-anchor="middle" x="786" y="-14.3" font-family="Times,serif" font-size="14.00">palestinianos</text>
</g>
<!-- 0&#45;&gt;10 -->
<g id="edge10" class="edge">
<title>0&#45;&gt;10</title>
<path fill="none" stroke="black" d="M2164.14,-103.9C1982.76,-103.29 1234.29,-98.97 1002,-69 946.4,-61.83 884.14,-46.63 840.81,-34.86"/>
<polygon fill="black" stroke="black" points="841.6,-31.45 831.03,-32.18 839.75,-38.2 841.6,-31.45"/>
<text text-anchor="middle" x="1015.5" y="-57.8" font-family="Times,serif" font-size="14.00">dep</text>
</g>
<!-- 11 -->
<g id="node12" class="node">
<title>11</title>
<ellipse fill="none" stroke="black" cx="939" cy="-18" rx="63.09" ry="18"/>
<text text-anchor="middle" x="939" y="-14.3" font-family="Times,serif" font-size="14.00">procurados</text>
</g>
<!-- 0&#45;&gt;11 -->
<g id="edge11" class="edge">
<title>0&#45;&gt;11</title>
<path fill="none" stroke="black" d="M2164.23,-104.25C1991.45,-105.09 1305.09,-106 1093,-69 1054.77,-62.33 1012.98,-48.31 982.6,-36.81"/>
<polygon fill="black" stroke="black" points="983.74,-33.5 973.15,-33.18 981.23,-40.04 983.74,-33.5"/>
<text text-anchor="middle" x="1106.5" y="-57.8" font-family="Times,serif" font-size="14.00">dep</text>
</g>
<!-- 12 -->
<g id="node13" class="node">
<title>12</title>
<ellipse fill="none" stroke="black" cx="1047" cy="-18" rx="27" ry="18"/>
<text text-anchor="middle" x="1047" y="-14.3" font-family="Times,serif" font-size="14.00">,</text>
</g>
<!-- 0&#45;&gt;12 -->
<g id="edge12" class="edge">
<title>0&#45;&gt;12</title>
<path fill="none" stroke="black" d="M2164.32,-104.33C1999.44,-105.43 1368.01,-107.05 1173,-69 1138.74,-62.32 1101.89,-46.59 1076.94,-34.55"/>
<polygon fill="black" stroke="black" points="1078.19,-31.26 1067.67,-29.98 1075.09,-37.54 1078.19,-31.26"/>
<text text-anchor="middle" x="1186.5" y="-57.8" font-family="Times,serif" font-size="14.00">dep</text>
</g>
<!-- 13 -->
<g id="node14" class="node">
<title>13</title>
<ellipse fill="none" stroke="black" cx="1119" cy="-18" rx="27" ry="18"/>
<text text-anchor="middle" x="1119" y="-14.3" font-family="Times,serif" font-size="14.00">13</text>
</g>
<!-- 0&#45;&gt;13 -->
<g id="edge13" class="edge">
<title>0&#45;&gt;13</title>
<path fill="none" stroke="black" d="M2164.33,-103.85C2009.13,-103.04 1442.98,-98.13 1266,-69 1215.22,-60.64 1203.08,-54.37 1155,-36 1153.16,-35.3 1151.28,-34.54 1149.4,-33.75"/>
<polygon fill="black" stroke="black" points="1150.65,-30.47 1140.09,-29.61 1147.81,-36.87 1150.65,-30.47"/>
<text text-anchor="middle" x="1279.5" y="-57.8" font-family="Times,serif" font-size="14.00">dep</text>
</g>
<!-- 14 -->
<g id="node15" class="node">
<title>14</title>
<ellipse fill="none" stroke="black" cx="1202" cy="-18" rx="38.19" ry="18"/>
<text text-anchor="middle" x="1202" y="-14.3" font-family="Times,serif" font-size="14.00">foram</text>
</g>
<!-- 0&#45;&gt;14 -->
<g id="edge14" class="edge">
<title>0&#45;&gt;14</title>
<path fill="none" stroke="black" d="M2164.01,-103.7C2018.16,-102.39 1515.14,-95.97 1357,-69 1315.63,-61.94 1270.12,-46.26 1239.19,-34.33"/>
<polygon fill="black" stroke="black" points="1240.26,-30.99 1229.68,-30.6 1237.71,-37.51 1240.26,-30.99"/>
<text text-anchor="middle" x="1370.5" y="-57.8" font-family="Times,serif" font-size="14.00">dep</text>
</g>
<!-- 15 -->
<g id="node16" class="node">
<title>15</title>
<ellipse fill="none" stroke="black" cx="1302" cy="-18" rx="43.59" ry="18"/>
<text text-anchor="middle" x="1302" y="-14.3" font-family="Times,serif" font-size="14.00">mortos</text>
</g>
<!-- 0&#45;&gt;15 -->
<g id="edge15" class="edge">
<title>0&#45;&gt;15</title>
<path fill="none" stroke="black" d="M2164.01,-103.8C2027.13,-102.86 1578.09,-97.62 1437,-69 1402.64,-62.03 1365.4,-47.69 1338.76,-36.14"/>
<polygon fill="black" stroke="black" points="1340.01,-32.87 1329.44,-32.03 1337.18,-39.27 1340.01,-32.87"/>
<text text-anchor="middle" x="1450.5" y="-57.8" font-family="Times,serif" font-size="14.00">dep</text>
</g>
<!-- 16 -->
<g id="node17" class="node">
<title>16</title>
<ellipse fill="none" stroke="black" cx="1391" cy="-18" rx="27" ry="18"/>
<text text-anchor="middle" x="1391" y="-14.3" font-family="Times,serif" font-size="14.00">por</text>
</g>
<!-- 0&#45;&gt;16 -->
<g id="edge16" class="edge">
<title>0&#45;&gt;16</title>
<path fill="none" stroke="black" d="M2164.26,-103.54C2037.23,-101.82 1642.06,-94.5 1517,-69 1482.8,-62.03 1445.94,-46.35 1420.97,-34.4"/>
<polygon fill="black" stroke="black" points="1422.22,-31.11 1411.7,-29.86 1419.14,-37.4 1422.22,-31.11"/>
<text text-anchor="middle" x="1530.5" y="-57.8" font-family="Times,serif" font-size="14.00">dep</text>
</g>
<!-- 17 -->
<g id="node18" class="node">
<title>17</title>
<ellipse fill="none" stroke="black" cx="1463" cy="-18" rx="27" ry="18"/>
<text text-anchor="middle" x="1463" y="-14.3" font-family="Times,serif" font-size="14.00">as</text>
</g>
<!-- 0&#45;&gt;17 -->
<g id="edge17" class="edge">
<title>0&#45;&gt;17</title>
<path fill="none" stroke="black" d="M2164.46,-102.87C2049.41,-99.41 1716.24,-87.97 1609,-69 1558.74,-60.11 1546.66,-54.28 1499,-36 1497.16,-35.29 1495.28,-34.54 1493.4,-33.74"/>
<polygon fill="black" stroke="black" points="1494.65,-30.47 1484.09,-29.6 1491.81,-36.86 1494.65,-30.47"/>
<text text-anchor="middle" x="1622.5" y="-57.8" font-family="Times,serif" font-size="14.00">dep</text>
</g>
<!-- 18 -->
<g id="node19" class="node">
<title>18</title>
<ellipse fill="none" stroke="black" cx="1547" cy="-18" rx="38.99" ry="18"/>
<text text-anchor="middle" x="1547" y="-14.3" font-family="Times,serif" font-size="14.00">forças</text>
</g>
<!-- 0&#45;&gt;18 -->
<g id="edge18" class="edge">
<title>0&#45;&gt;18</title>
<path fill="none" stroke="black" d="M2164.11,-104.72C2077.46,-105.53 1865.89,-103.44 1693,-69 1654.76,-61.38 1612.81,-46.27 1583.73,-34.64"/>
<polygon fill="black" stroke="black" points="1584.96,-31.36 1574.38,-30.84 1582.33,-37.85 1584.96,-31.36"/>
<text text-anchor="middle" x="1706.5" y="-57.8" font-family="Times,serif" font-size="14.00">dep</text>
</g>
<!-- 19 -->
<g id="node20" class="node">
<title>19</title>
<ellipse fill="none" stroke="black" cx="1631" cy="-18" rx="27" ry="18"/>
<text text-anchor="middle" x="1631" y="-14.3" font-family="Times,serif" font-size="14.00">de</text>
</g>
<!-- 0&#45;&gt;19 -->
<g id="edge19" class="edge">
<title>0&#45;&gt;19</title>
<path fill="none" stroke="black" d="M2164.46,-102.63C2091.83,-99.66 1932.47,-91.03 1800,-69 1739.92,-59.01 1724.37,-56.44 1667,-36 1665.1,-35.32 1663.16,-34.58 1661.22,-33.79"/>
<polygon fill="black" stroke="black" points="1662.21,-30.4 1651.64,-29.6 1659.4,-36.82 1662.21,-30.4"/>
<text text-anchor="middle" x="1813.5" y="-57.8" font-family="Times,serif" font-size="14.00">dep</text>
</g>
<!-- 20 -->
<g id="node21" class="node">
<title>20</title>
<ellipse fill="none" stroke="black" cx="1734" cy="-18" rx="58.49" ry="18"/>
<text text-anchor="middle" x="1734" y="-14.3" font-family="Times,serif" font-size="14.00">segurança</text>
</g>
<!-- 0&#45;&gt;20 -->
<g id="edge20" class="edge">
<title>0&#45;&gt;20</title>
<path fill="none" stroke="black" d="M2164.78,-102.35C2104.17,-99.22 1984.35,-90.65 1885,-69 1848.15,-60.97 1807.65,-47.28 1777.87,-36.25"/>
<polygon fill="black" stroke="black" points="1778.8,-32.86 1768.21,-32.63 1776.34,-39.42 1778.8,-32.86"/>
<text text-anchor="middle" x="1898.5" y="-57.8" font-family="Times,serif" font-size="14.00">dep</text>
</g>
<!-- 21 -->
<g id="node22" class="node">
<title>21</title>
<ellipse fill="none" stroke="black" cx="1837" cy="-18" rx="27" ry="18"/>
<text text-anchor="middle" x="1837" y="-14.3" font-family="Times,serif" font-size="14.00">e</text>
</g>
<!-- 0&#45;&gt;21 -->
<g id="edge21" class="edge">
<title>0&#45;&gt;21</title>
<path fill="none" stroke="black" d="M2165.2,-101.01C2116.8,-96.69 2031.81,-87.15 1961,-69 1927.85,-60.5 1891.76,-45.21 1867.1,-33.77"/>
<polygon fill="black" stroke="black" points="1868.46,-30.54 1857.93,-29.44 1865.48,-36.87 1868.46,-30.54"/>
<text text-anchor="middle" x="1974.5" y="-57.8" font-family="Times,serif" font-size="14.00">dep</text>
</g>
<!-- 22 -->
<g id="node23" class="node">
<title>22</title>
<ellipse fill="none" stroke="black" cx="1909" cy="-18" rx="27" ry="18"/>
<text text-anchor="middle" x="1909" y="-14.3" font-family="Times,serif" font-size="14.00">15</text>
</g>
<!-- 0&#45;&gt;22 -->
<g id="edge22" class="edge">
<title>0&#45;&gt;22</title>
<path fill="none" stroke="black" d="M2167.62,-97.68C2133.97,-91.5 2082.7,-81.25 2039,-69 1996.37,-57.05 1985.96,-52.81 1945,-36 1943.18,-35.25 1941.31,-34.46 1939.44,-33.64"/>
<polygon fill="black" stroke="black" points="1940.71,-30.37 1930.16,-29.44 1937.82,-36.75 1940.71,-30.37"/>
<text text-anchor="middle" x="2052.5" y="-57.8" font-family="Times,serif" font-size="14.00">dep</text>
</g>
<!-- 23 -->
<g id="node24" class="node">
<title>23</title>
<ellipse fill="none" stroke="black" cx="1997" cy="-18" rx="42.79" ry="18"/>
<text text-anchor="middle" x="1997" y="-14.3" font-family="Times,serif" font-size="14.00">feridos</text>
</g>
<!-- 0&#45;&gt;23 -->
<g id="edge23" class="edge">
<title>0&#45;&gt;23</title>
<path fill="none" stroke="black" d="M2172.08,-94.25C2151.55,-87.71 2124.43,-78.57 2101,-69 2077.63,-59.45 2052.06,-47.18 2032.12,-37.19"/>
<polygon fill="black" stroke="black" points="2033.61,-34.02 2023.11,-32.63 2030.45,-40.27 2033.61,-34.02"/>
<text text-anchor="middle" x="2114.5" y="-57.8" font-family="Times,serif" font-size="14.00">dep</text>
</g>
<!-- 24 -->
<g id="node25" class="node">
<title>24</title>
<ellipse fill="none" stroke="black" cx="2088" cy="-18" rx="29.8" ry="18"/>
<text text-anchor="middle" x="2088" y="-14.3" font-family="Times,serif" font-size="14.00">mas</text>
</g>
<!-- 0&#45;&gt;24 -->
<g id="edge24" class="edge">
<title>0&#45;&gt;24</title>
<path fill="none" stroke="black" d="M2181.79,-89.95C2172.19,-83.72 2160.91,-76.18 2151,-69 2138.08,-59.64 2124.14,-48.67 2112.67,-39.4"/>
<polygon fill="black" stroke="black" points="2114.77,-36.59 2104.8,-32.99 2110.35,-42.02 2114.77,-36.59"/>
<text text-anchor="middle" x="2164.5" y="-57.8" font-family="Times,serif" font-size="14.00">dep</text>
</g>
<!-- 25 -->
<g id="node26" class="node">
<title>25</title>
<ellipse fill="none" stroke="black" cx="2163" cy="-18" rx="27" ry="18"/>
<text text-anchor="middle" x="2163" y="-14.3" font-family="Times,serif" font-size="14.00">40</text>
</g>
<!-- 0&#45;&gt;25 -->
<g id="edge25" class="edge">
<title>0&#45;&gt;25</title>
<path fill="none" stroke="black" d="M2195.9,-87.21C2190.02,-75.02 2181.96,-58.32 2175.3,-44.49"/>
<polygon fill="black" stroke="black" points="2178.44,-42.96 2170.94,-35.47 2172.14,-46 2178.44,-42.96"/>
<text text-anchor="middle" x="2199.5" y="-57.8" font-family="Times,serif" font-size="14.00">dep</text>
</g>
<!-- 26 -->
<g id="node27" class="node">
<title>26</title>
<ellipse fill="none" stroke="black" cx="2246" cy="-18" rx="38.19" ry="18"/>
<text text-anchor="middle" x="2246" y="-14.3" font-family="Times,serif" font-size="14.00">foram</text>
</g>
<!-- 0&#45;&gt;26 -->
<g id="edge26" class="edge">
<title>0&#45;&gt;26</title>
<path fill="none" stroke="black" d="M2212.3,-87.21C2218.28,-75.1 2226.47,-58.53 2233.27,-44.76"/>
<polygon fill="black" stroke="black" points="2236.43,-46.27 2237.72,-35.76 2230.15,-43.17 2236.43,-46.27"/>
<text text-anchor="middle" x="2241.5" y="-57.8" font-family="Times,serif" font-size="14.00">dep</text>
</g>
<!-- 27 -->
<g id="node28" class="node">
<title>27</title>
<ellipse fill="none" stroke="black" cx="2360" cy="-18" rx="57.69" ry="18"/>
<text text-anchor="middle" x="2360" y="-14.3" font-family="Times,serif" font-size="14.00">libertados</text>
</g>
<!-- 0&#45;&gt;27 -->
<g id="edge27" class="edge">
<title>0&#45;&gt;27</title>
<path fill="none" stroke="black" d="M2228.38,-90.72C2253.89,-76.82 2294.25,-54.83 2323.55,-38.86"/>
<polygon fill="black" stroke="black" points="2325.54,-41.76 2332.65,-33.9 2322.19,-35.61 2325.54,-41.76"/>
<text text-anchor="middle" x="2305.5" y="-57.8" font-family="Times,serif" font-size="14.00">dep</text>
</g>
<!-- 28 -->
<g id="node29" class="node">
<title>28</title>
<ellipse fill="none" stroke="black" cx="2463" cy="-18" rx="27" ry="18"/>
<text text-anchor="middle" x="2463" y="-14.3" font-family="Times,serif" font-size="14.00">por</text>
</g>
<!-- 0&#45;&gt;28 -->
<g id="edge28" class="edge">
<title>0&#45;&gt;28</title>
<path fill="none" stroke="black" d="M2237.8,-95.46C2281.98,-83.91 2361.45,-61.74 2427,-36 2428.83,-35.28 2430.71,-34.51 2432.58,-33.71"/>
<polygon fill="black" stroke="black" points="2434.19,-36.83 2441.89,-29.55 2431.33,-30.44 2434.19,-36.83"/>
<text text-anchor="middle" x="2386.5" y="-57.8" font-family="Times,serif" font-size="14.00">dep</text>
</g>
<!-- 29 -->
<g id="node30" class="node">
<title>29</title>
<ellipse fill="none" stroke="black" cx="2535" cy="-18" rx="27" ry="18"/>
<text text-anchor="middle" x="2535" y="-14.3" font-family="Times,serif" font-size="14.00">o</text>
</g>
<!-- 0&#45;&gt;29 -->
<g id="edge29" class="edge">
<title>0&#45;&gt;29</title>
<path fill="none" stroke="black" d="M2241.61,-99.26C2282.1,-93.73 2348.21,-83.47 2404,-69 2447.27,-57.78 2457.62,-52.9 2499,-36 2500.82,-35.26 2502.69,-34.47 2504.56,-33.65"/>
<polygon fill="black" stroke="black" points="2506.18,-36.76 2513.85,-29.45 2503.29,-30.38 2506.18,-36.76"/>
<text text-anchor="middle" x="2467.5" y="-57.8" font-family="Times,serif" font-size="14.00">dep</text>
</g>
<!-- 30 -->
<g id="node31" class="node">
<title>30</title>
<ellipse fill="none" stroke="black" cx="2630" cy="-18" rx="50.09" ry="18"/>
<text text-anchor="middle" x="2630" y="-14.3" font-family="Times,serif" font-size="14.00">Exército</text>
</g>
<!-- 0&#45;&gt;30 -->
<g id="edge30" class="edge">
<title>0&#45;&gt;30</title>
<path fill="none" stroke="black" d="M2243.08,-101.71C2297.78,-97.92 2400,-88.72 2485,-69 2520.73,-60.71 2560,-46.86 2588.64,-35.84"/>
<polygon fill="black" stroke="black" points="2590.26,-38.97 2598.31,-32.07 2587.72,-32.44 2590.26,-38.97"/>
<text text-anchor="middle" x="2551.5" y="-57.8" font-family="Times,serif" font-size="14.00">dep</text>
</g>
<!-- 31 -->
<g id="node32" class="node">
<title>31</title>
<ellipse fill="none" stroke="black" cx="2725" cy="-18" rx="27" ry="18"/>
<text text-anchor="middle" x="2725" y="-14.3" font-family="Times,serif" font-size="14.00">,</text>
</g>
<!-- 0&#45;&gt;31 -->
<g id="edge31" class="edge">
<title>0&#45;&gt;31</title>
<path fill="none" stroke="black" d="M2243.47,-102.45C2310.75,-99.31 2451.77,-90.57 2569,-69 2623.4,-58.99 2637.13,-55.21 2689,-36 2690.85,-35.32 2692.73,-34.57 2694.62,-33.79"/>
<polygon fill="black" stroke="black" points="2696.2,-36.92 2703.94,-29.69 2693.38,-30.51 2696.2,-36.92"/>
<text text-anchor="middle" x="2649.5" y="-57.8" font-family="Times,serif" font-size="14.00">dep</text>
</g>
<!-- 32 -->
<g id="node33" class="node">
<title>32</title>
<ellipse fill="none" stroke="black" cx="2804" cy="-18" rx="34.39" ry="18"/>
<text text-anchor="middle" x="2804" y="-14.3" font-family="Times,serif" font-size="14.00">disse</text>
</g>
<!-- 0&#45;&gt;32 -->
<g id="edge32" class="edge">
<title>0&#45;&gt;32</title>
<path fill="none" stroke="black" d="M2243.82,-104.48C2324.56,-104.68 2512.95,-101.28 2667,-69 2702.98,-61.46 2742.21,-46.39 2769.43,-34.76"/>
<polygon fill="black" stroke="black" points="2771.11,-37.85 2778.89,-30.65 2768.32,-31.43 2771.11,-37.85"/>
<text text-anchor="middle" x="2731.5" y="-57.8" font-family="Times,serif" font-size="14.00">dep</text>
</g>
<!-- 33 -->
<g id="node34" class="node">
<title>33</title>
<ellipse fill="none" stroke="black" cx="2896" cy="-18" rx="39.79" ry="18"/>
<text text-anchor="middle" x="2896" y="-14.3" font-family="Times,serif" font-size="14.00">Yatom</text>
</g>
<!-- 0&#45;&gt;33 -->
<g id="edge33" class="edge">
<title>0&#45;&gt;33</title>
<path fill="none" stroke="black" d="M2243.7,-102.79C2352.21,-99.28 2652.14,-88.08 2749,-69 2787.38,-61.44 2829.47,-46.39 2858.75,-34.77"/>
<polygon fill="black" stroke="black" points="2860.19,-37.96 2868.16,-30.97 2857.57,-31.46 2860.19,-37.96"/>
<text text-anchor="middle" x="2816.5" y="-57.8" font-family="Times,serif" font-size="14.00">dep</text>
</g>
<!-- 34 -->
<g id="node35" class="node">
<title>34</title>
<ellipse fill="none" stroke="black" cx="3001" cy="-18" rx="47.39" ry="18"/>
<text text-anchor="middle" x="3001" y="-14.3" font-family="Times,serif" font-size="14.00">durante</text>
</g>
<!-- 0&#45;&gt;34 -->
<g id="edge34" class="edge">
<title>0&#45;&gt;34</title>
<path fill="none" stroke="black" d="M2243.72,-103.01C2363.47,-99.82 2719.74,-88.88 2834,-69 2877.56,-61.42 2925.78,-46.21 2959.16,-34.55"/>
<polygon fill="black" stroke="black" points="2960.34,-37.84 2968.6,-31.21 2958,-31.25 2960.34,-37.84"/>
<text text-anchor="middle" x="2908.5" y="-57.8" font-family="Times,serif" font-size="14.00">dep</text>
</g>
<!-- 35 -->
<g id="node36" class="node">
<title>35</title>
<ellipse fill="none" stroke="black" cx="3097" cy="-18" rx="30.59" ry="18"/>
<text text-anchor="middle" x="3097" y="-14.3" font-family="Times,serif" font-size="14.00">uma</text>
</g>
<!-- 0&#45;&gt;35 -->
<g id="edge35" class="edge">
<title>0&#45;&gt;35</title>
<path fill="none" stroke="black" d="M2243.81,-103.11C2374.98,-100.02 2792.72,-88.82 2926,-69 2985.39,-60.17 3000.09,-55.13 3057,-36 3059.38,-35.2 3061.81,-34.32 3064.25,-33.4"/>
<polygon fill="black" stroke="black" points="3065.56,-36.65 3073.54,-29.68 3062.96,-30.14 3065.56,-36.65"/>
<text text-anchor="middle" x="3012.5" y="-57.8" font-family="Times,serif" font-size="14.00">dep</text>
</g>
<!-- 36 -->
<g id="node37" class="node">
<title>36</title>
<ellipse fill="none" stroke="black" cx="3182" cy="-18" rx="36.29" ry="18"/>
<text text-anchor="middle" x="3182" y="-14.3" font-family="Times,serif" font-size="14.00">visita</text>
</g>
<!-- 0&#45;&gt;36 -->
<g id="edge36" class="edge">
<title>0&#45;&gt;36</title>
<path fill="none" stroke="black" d="M2243.99,-103.66C2387.5,-102.24 2876.18,-95.52 3030,-69 3070.88,-61.95 3115.79,-46.11 3146.12,-34.14"/>
<polygon fill="black" stroke="black" points="3147.45,-37.37 3155.43,-30.4 3144.85,-30.88 3147.45,-37.37"/>
<text text-anchor="middle" x="3103.5" y="-57.8" font-family="Times,serif" font-size="14.00">dep</text>
</g>
<!-- 37 -->
<g id="node38" class="node">
<title>37</title>
<ellipse fill="none" stroke="black" cx="3263" cy="-18" rx="27" ry="18"/>
<text text-anchor="middle" x="3263" y="-14.3" font-family="Times,serif" font-size="14.00">de</text>
</g>
<!-- 0&#45;&gt;37 -->
<g id="edge37" class="edge">
<title>0&#45;&gt;37</title>
<path fill="none" stroke="black" d="M2243.58,-103.87C2396.45,-103.18 2948.47,-98.61 3121,-69 3169.63,-60.65 3181.02,-53.91 3227,-36 3228.84,-35.28 3230.71,-34.52 3232.59,-33.72"/>
<polygon fill="black" stroke="black" points="3234.19,-36.84 3241.89,-29.57 3231.34,-30.45 3234.19,-36.84"/>
<text text-anchor="middle" x="3194.5" y="-57.8" font-family="Times,serif" font-size="14.00">dep</text>
</g>
<!-- 38 -->
<g id="node39" class="node">
<title>38</title>
<ellipse fill="none" stroke="black" cx="3364" cy="-18" rx="55.79" ry="18"/>
<text text-anchor="middle" x="3364" y="-14.3" font-family="Times,serif" font-size="14.00">inspecção</text>
</g>
<!-- 0&#45;&gt;38 -->
<g id="edge38" class="edge">
<title>0&#45;&gt;38</title>
<path fill="none" stroke="black" d="M2243.86,-104.12C2406.61,-104.37 3021.18,-102.98 3212,-69 3250.25,-62.19 3292.08,-47.89 3322.15,-36.33"/>
<polygon fill="black" stroke="black" points="3323.45,-39.58 3331.49,-32.68 3320.9,-33.06 3323.45,-39.58"/>
<text text-anchor="middle" x="3285.5" y="-57.8" font-family="Times,serif" font-size="14.00">dep</text>
</g>
<!-- 39 -->
<g id="node40" class="node">
<title>39</title>
<ellipse fill="none" stroke="black" cx="3465" cy="-18" rx="27" ry="18"/>
<text text-anchor="middle" x="3465" y="-14.3" font-family="Times,serif" font-size="14.00">a</text>
</g>
<!-- 0&#45;&gt;39 -->
<g id="edge39" class="edge">
<title>0&#45;&gt;39</title>
<path fill="none" stroke="black" d="M2243.58,-103.93C2414.77,-103.43 3092.35,-99.54 3303,-69 3360.29,-60.69 3374.59,-55.78 3429,-36 3430.85,-35.33 3432.74,-34.59 3434.63,-33.82"/>
<polygon fill="black" stroke="black" points="3436.2,-36.95 3443.96,-29.73 3433.39,-30.54 3436.2,-36.95"/>
<text text-anchor="middle" x="3389.5" y="-57.8" font-family="Times,serif" font-size="14.00">dep</text>
</g>
<!-- 40 -->
<g id="node41" class="node">
<title>40</title>
<ellipse fill="none" stroke="black" cx="3537" cy="-18" rx="27" ry="18"/>
<text text-anchor="middle" x="3537" y="-14.3" font-family="Times,serif" font-size="14.00">a</text>
</g>
<!-- 0&#45;&gt;40 -->
<g id="edge40" class="edge">
<title>0&#45;&gt;40</title>
<path fill="none" stroke="black" d="M2243.61,-103.57C2438.47,-101.37 3290.67,-90.57 3407,-69 3442.63,-62.39 3481.09,-46.39 3506.86,-34.25"/>
<polygon fill="black" stroke="black" points="3508.59,-37.3 3516.08,-29.82 3505.56,-31 3508.59,-37.3"/>
<text text-anchor="middle" x="3472.5" y="-57.8" font-family="Times,serif" font-size="14.00">dep</text>
</g>
<!-- 41 -->
<g id="node42" class="node">
<title>41</title>
<ellipse fill="none" stroke="black" cx="3622" cy="-18" rx="40.09" ry="18"/>
<text text-anchor="middle" x="3622" y="-14.3" font-family="Times,serif" font-size="14.00">região</text>
</g>
<!-- 0&#45;&gt;41 -->
<g id="edge41" class="edge">
<title>0&#45;&gt;41</title>
<path fill="none" stroke="black" d="M2243.63,-103.71C2446.65,-102.11 3365.37,-93.57 3490,-69 3523.9,-62.32 3560.49,-47.83 3586.54,-36.16"/>
<polygon fill="black" stroke="black" points="3588.33,-39.19 3595.97,-31.85 3585.42,-32.82 3588.33,-39.19"/>
<text text-anchor="middle" x="3556.5" y="-57.8" font-family="Times,serif" font-size="14.00">dep</text>
</g>
<!-- 42 -->
<g id="node43" class="node">
<title>42</title>
<ellipse fill="none" stroke="black" cx="3707" cy="-18" rx="27" ry="18"/>
<text text-anchor="middle" x="3707" y="-14.3" font-family="Times,serif" font-size="14.00">de</text>
</g>
<!-- 0&#45;&gt;42 -->
<g id="edge42" class="edge">
<title>0&#45;&gt;42</title>
<path fill="none" stroke="black" d="M2243.74,-103.7C2454.86,-102.01 3440.28,-92.88 3574,-69 3610.77,-62.43 3650.57,-46.14 3676.95,-33.93"/>
<polygon fill="black" stroke="black" points="3678.49,-37.08 3686.03,-29.64 3675.5,-30.75 3678.49,-37.08"/>
<text text-anchor="middle" x="3640.5" y="-57.8" font-family="Times,serif" font-size="14.00">dep</text>
</g>
<!-- 43 -->
<g id="node44" class="node">
<title>43</title>
<ellipse fill="none" stroke="black" cx="3792" cy="-18" rx="40.09" ry="18"/>
<text text-anchor="middle" x="3792" y="-14.3" font-family="Times,serif" font-size="14.00">Belém</text>
</g>
<!-- 0&#45;&gt;43 -->
<g id="edge43" class="edge">
<title>0&#45;&gt;43</title>
<path fill="none" stroke="black" d="M2243.65,-103.83C2462.29,-102.8 3515.9,-96.42 3658,-69 3692.63,-62.32 3730.09,-47.66 3756.58,-35.93"/>
<polygon fill="black" stroke="black" points="3758.14,-39.06 3765.81,-31.76 3755.26,-32.68 3758.14,-39.06"/>
<text text-anchor="middle" x="3724.5" y="-57.8" font-family="Times,serif" font-size="14.00">dep</text>
</g>
<!-- 44 -->
<g id="node45" class="node">
<title>44</title>
<ellipse fill="none" stroke="black" cx="3877" cy="-18" rx="27" ry="18"/>
<text text-anchor="middle" x="3877" y="-14.3" font-family="Times,serif" font-size="14.00">(</text>
</g>
<!-- 0&#45;&gt;44 -->
<g id="edge44" class="edge">
<title>0&#45;&gt;44</title>
<path fill="none" stroke="black" d="M2243.69,-103.8C2469.81,-102.6 3590.7,-95.32 3742,-69 3779.5,-62.48 3820.16,-46.02 3846.95,-33.76"/>
<polygon fill="black" stroke="black" points="3848.58,-36.86 3856.16,-29.45 3845.62,-30.51 3848.58,-36.86"/>
<text text-anchor="middle" x="3809.5" y="-57.8" font-family="Times,serif" font-size="14.00">dep</text>
</g>
<!-- 45 -->
<g id="node46" class="node">
<title>45</title>
<ellipse fill="none" stroke="black" cx="3949" cy="-18" rx="27" ry="18"/>
<text text-anchor="middle" x="3949" y="-14.3" font-family="Times,serif" font-size="14.00">sul</text>
</g>
<!-- 0&#45;&gt;45 -->
<g id="edge45" class="edge">
<title>0&#45;&gt;45</title>
<path fill="none" stroke="black" d="M2243.6,-103.96C2476.9,-103.62 3667.46,-100.34 3827,-69 3860.11,-62.49 3895.55,-46.9 3919.65,-34.84"/>
<polygon fill="black" stroke="black" points="3921.31,-37.93 3928.62,-30.26 3918.12,-31.69 3921.31,-37.93"/>
<text text-anchor="middle" x="3889.5" y="-57.8" font-family="Times,serif" font-size="14.00">dep</text>
</g>
<!-- 46 -->
<g id="node47" class="node">
<title>46</title>
<ellipse fill="none" stroke="black" cx="4021" cy="-18" rx="27" ry="18"/>
<text text-anchor="middle" x="4021" y="-14.3" font-family="Times,serif" font-size="14.00">de</text>
</g>
<!-- 0&#45;&gt;46 -->
<g id="edge46" class="edge">
<title>0&#45;&gt;46</title>
<path fill="none" stroke="black" d="M2243.6,-104.08C2483.69,-104.46 3739.72,-104.72 3907,-69 3937.51,-62.48 3969.87,-47.41 3992.28,-35.51"/>
<polygon fill="black" stroke="black" points="3994.13,-38.49 4001.25,-30.64 3990.79,-32.34 3994.13,-38.49"/>
<text text-anchor="middle" x="3966.5" y="-57.8" font-family="Times,serif" font-size="14.00">dep</text>
</g>
<!-- 47 -->
<g id="node48" class="node">
<title>47</title>
<ellipse fill="none" stroke="black" cx="4093" cy="-18" rx="27" ry="18"/>
<text text-anchor="middle" x="4093" y="-14.3" font-family="Times,serif" font-size="14.00">a</text>
</g>
<!-- 0&#45;&gt;47 -->
<g id="edge47" class="edge">
<title>0&#45;&gt;47</title>
<path fill="none" stroke="black" d="M2243.79,-104.18C2490.74,-105.15 3809.23,-108.47 3984,-69 4013.01,-62.45 4043.59,-47.64 4064.95,-35.83"/>
<polygon fill="black" stroke="black" points="4066.82,-38.79 4073.79,-30.82 4063.36,-32.7 4066.82,-38.79"/>
<text text-anchor="middle" x="4041.5" y="-57.8" font-family="Times,serif" font-size="14.00">dep</text>
</g>
<!-- 48 -->
<g id="node49" class="node">
<title>48</title>
<ellipse fill="none" stroke="black" cx="4202" cy="-18" rx="63.89" ry="18"/>
<text text-anchor="middle" x="4202" y="-14.3" font-family="Times,serif" font-size="14.00">Cisjordânia</text>
</g>
<!-- 0&#45;&gt;48 -->
<g id="edge48" class="edge">
<title>0&#45;&gt;48</title>
<path fill="none" stroke="black" d="M2243.77,-104.01C2496.59,-103.94 3874.82,-102.06 4059,-69 4094.2,-62.68 4132.35,-48.97 4160.38,-37.5"/>
<polygon fill="black" stroke="black" points="4161.97,-40.63 4169.86,-33.55 4159.28,-34.17 4161.97,-40.63"/>
<text text-anchor="middle" x="4129.5" y="-57.8" font-family="Times,serif" font-size="14.00">dep</text>
</g>
<!-- 49 -->
<g id="node50" class="node">
<title>49</title>
<ellipse fill="none" stroke="black" cx="4311" cy="-18" rx="27" ry="18"/>
<text text-anchor="middle" x="4311" y="-14.3" font-family="Times,serif" font-size="14.00">)</text>
</g>
<!-- 0&#45;&gt;49 -->
<g id="edge49" class="edge">
<title>0&#45;&gt;49</title>
<path fill="none" stroke="black" d="M2243.94,-103.84C2504.01,-102.74 3952.37,-95.47 4147,-69 4205.21,-61.08 4219.75,-55.97 4275,-36 4276.85,-35.33 4278.74,-34.6 4280.63,-33.83"/>
<polygon fill="black" stroke="black" points="4282.2,-36.96 4289.96,-29.75 4279.4,-30.55 4282.2,-36.96"/>
<text text-anchor="middle" x="4234.5" y="-57.8" font-family="Times,serif" font-size="14.00">dep</text>
</g>
<!-- 50 -->
<g id="node51" class="node">
<title>50</title>
<ellipse fill="none" stroke="black" cx="4383" cy="-18" rx="27" ry="18"/>
<text text-anchor="middle" x="4383" y="-14.3" font-family="Times,serif" font-size="14.00">.</text>
</g>
<!-- 0&#45;&gt;50 -->
<g id="edge50" class="edge">
<title>0&#45;&gt;50</title>
<path fill="none" stroke="black" d="M2243.94,-104.08C2512.25,-104.5 4047.61,-105.29 4252,-69 4288.13,-62.59 4327.13,-46.39 4353.1,-34.15"/>
<polygon fill="black" stroke="black" points="4354.88,-37.18 4362.38,-29.69 4351.85,-30.87 4354.88,-37.18"/>
<text text-anchor="middle" x="4317.5" y="-57.8" font-family="Times,serif" font-size="14.00">dep</text>
</g>
</g>
</svg>
