<?xml version="1.0" encoding="UTF-8" standalone="no"?>
<!DOCTYPE svg PUBLIC "-//W3C//DTD SVG 1.1//EN"
 "http://www.w3.org/Graphics/SVG/1.1/DTD/svg11.dtd">
<!-- Generated by graphviz version 2.42.4 (0)
 -->
<!-- Pages: 1 -->
<svg width="658pt" height="131pt"
 viewBox="0.00 0.00 658.00 131.00" xmlns="http://www.w3.org/2000/svg" xmlns:xlink="http://www.w3.org/1999/xlink">
<g id="graph0" class="graph" transform="scale(1 1) rotate(0) translate(4 127)">
<polygon fill="white" stroke="transparent" points="-4,4 -4,-127 654,-127 654,4 -4,4"/>
<!-- 0 -->
<g id="node1" class="node">
<title>0</title>
<ellipse fill="none" stroke="black" cx="294" cy="-105" rx="27" ry="18"/>
<text text-anchor="middle" x="294" y="-101.3" font-family="Times,serif" font-size="14.00">E</text>
</g>
<!-- 1 -->
<g id="node2" class="node">
<title>1</title>
<ellipse fill="none" stroke="black" cx="27" cy="-18" rx="27" ry="18"/>
<text text-anchor="middle" x="27" y="-14.3" font-family="Times,serif" font-size="14.00">os</text>
</g>
<!-- 0&#45;&gt;1 -->
<g id="edge1" class="edge">
<title>0&#45;&gt;1</title>
<path fill="none" stroke="black" d="M268.51,-98.81C239.52,-92.67 190.92,-81.68 150,-69 110.5,-56.76 101.06,-52.18 63,-36 61.19,-35.23 59.33,-34.42 57.47,-33.59"/>
<polygon fill="black" stroke="black" points="58.74,-30.33 48.2,-29.35 55.83,-36.69 58.74,-30.33"/>
<text text-anchor="middle" x="163.5" y="-57.8" font-family="Times,serif" font-size="14.00">dep</text>
</g>
<!-- 2 -->
<g id="node3" class="node">
<title>2</title>
<ellipse fill="none" stroke="black" cx="113" cy="-18" rx="40.89" ry="18"/>
<text text-anchor="middle" x="113" y="-14.3" font-family="Times,serif" font-size="14.00">postos</text>
</g>
<!-- 0&#45;&gt;2 -->
<g id="edge2" class="edge">
<title>0&#45;&gt;2</title>
<path fill="none" stroke="black" d="M271.32,-95.13C254.29,-88.33 230.48,-78.53 210,-69 188.69,-59.09 165.26,-47.04 146.76,-37.26"/>
<polygon fill="black" stroke="black" points="148.32,-34.12 137.85,-32.51 145.03,-40.3 148.32,-34.12"/>
<text text-anchor="middle" x="223.5" y="-57.8" font-family="Times,serif" font-size="14.00">dep</text>
</g>
<!-- 3 -->
<g id="node4" class="node">
<title>3</title>
<ellipse fill="none" stroke="black" cx="199" cy="-18" rx="27" ry="18"/>
<text text-anchor="middle" x="199" y="-14.3" font-family="Times,serif" font-size="14.00">de</text>
</g>
<!-- 0&#45;&gt;3 -->
<g id="edge3" class="edge">
<title>0&#45;&gt;3</title>
<path fill="none" stroke="black" d="M278.31,-89.96C263.05,-76.31 239.67,-55.39 222.25,-39.8"/>
<polygon fill="black" stroke="black" points="224.5,-37.12 214.71,-33.06 219.83,-42.33 224.5,-37.12"/>
<text text-anchor="middle" x="266.5" y="-57.8" font-family="Times,serif" font-size="14.00">dep</text>
</g>
<!-- 4 -->
<g id="node5" class="node">
<title>4</title>
<ellipse fill="none" stroke="black" cx="294" cy="-18" rx="50.09" ry="18"/>
<text text-anchor="middle" x="294" y="-14.3" font-family="Times,serif" font-size="14.00">trabalho</text>
</g>
<!-- 0&#45;&gt;4 -->
<g id="edge4" class="edge">
<title>0&#45;&gt;4</title>
<path fill="none" stroke="black" d="M294,-86.8C294,-75.16 294,-59.55 294,-46.24"/>
<polygon fill="black" stroke="black" points="297.5,-46.18 294,-36.18 290.5,-46.18 297.5,-46.18"/>
<text text-anchor="middle" x="307.5" y="-57.8" font-family="Times,serif" font-size="14.00">dep</text>
</g>
<!-- 5 -->
<g id="node6" class="node">
<title>5</title>
<ellipse fill="none" stroke="black" cx="400" cy="-18" rx="37.89" ry="18"/>
<text text-anchor="middle" x="400" y="-14.3" font-family="Times,serif" font-size="14.00">assim</text>
</g>
<!-- 0&#45;&gt;5 -->
<g id="edge5" class="edge">
<title>0&#45;&gt;5</title>
<path fill="none" stroke="black" d="M310.56,-90.72C327.38,-77.24 353.67,-56.15 373.41,-40.33"/>
<polygon fill="black" stroke="black" points="375.8,-42.89 381.41,-33.9 371.42,-37.43 375.8,-42.89"/>
<text text-anchor="middle" x="367.5" y="-57.8" font-family="Times,serif" font-size="14.00">dep</text>
</g>
<!-- 6 -->
<g id="node7" class="node">
<title>6</title>
<ellipse fill="none" stroke="black" cx="517" cy="-18" rx="61.19" ry="18"/>
<text text-anchor="middle" x="517" y="-14.3" font-family="Times,serif" font-size="14.00">eliminados</text>
</g>
<!-- 0&#45;&gt;6 -->
<g id="edge6" class="edge">
<title>0&#45;&gt;6</title>
<path fill="none" stroke="black" d="M317.02,-95.22C353.28,-81.4 424.38,-54.3 471.29,-36.42"/>
<polygon fill="black" stroke="black" points="472.81,-39.59 480.91,-32.76 470.32,-33.05 472.81,-39.59"/>
<text text-anchor="middle" x="432.5" y="-57.8" font-family="Times,serif" font-size="14.00">dep</text>
</g>
<!-- 7 -->
<g id="node8" class="node">
<title>7</title>
<ellipse fill="none" stroke="black" cx="623" cy="-18" rx="27" ry="18"/>
<text text-anchor="middle" x="623" y="-14.3" font-family="Times,serif" font-size="14.00">?</text>
</g>
<!-- 0&#45;&gt;7 -->
<g id="edge7" class="edge">
<title>0&#45;&gt;7</title>
<path fill="none" stroke="black" d="M320.02,-99.96C371.84,-91.47 491.2,-69.75 587,-36 588.91,-35.33 590.85,-34.59 592.79,-33.8"/>
<polygon fill="black" stroke="black" points="594.6,-36.83 602.36,-29.63 591.8,-30.42 594.6,-36.83"/>
<text text-anchor="middle" x="538.5" y="-57.8" font-family="Times,serif" font-size="14.00">dep</text>
</g>
</g>
</svg>
