<?xml version="1.0" encoding="UTF-8" standalone="no"?>
<!DOCTYPE svg PUBLIC "-//W3C//DTD SVG 1.1//EN"
 "http://www.w3.org/Graphics/SVG/1.1/DTD/svg11.dtd">
<!-- Generated by graphviz version 2.42.4 (0)
 -->
<!-- Pages: 1 -->
<svg width="1650pt" height="131pt"
 viewBox="0.00 0.00 1649.75 131.00" xmlns="http://www.w3.org/2000/svg" xmlns:xlink="http://www.w3.org/1999/xlink">
<g id="graph0" class="graph" transform="scale(1 1) rotate(0) translate(4 127)">
<polygon fill="white" stroke="transparent" points="-4,4 -4,-127 1645.75,-127 1645.75,4 -4,4"/>
<!-- 0 -->
<g id="node1" class="node">
<title>0</title>
<ellipse fill="none" stroke="black" cx="728.75" cy="-105" rx="27" ry="18"/>
<text text-anchor="middle" x="728.75" y="-101.3" font-family="Times,serif" font-size="14.00">[</text>
</g>
<!-- 1 -->
<g id="node2" class="node">
<title>1</title>
<ellipse fill="none" stroke="black" cx="35.75" cy="-18" rx="36" ry="18"/>
<text text-anchor="middle" x="35.75" y="-14.3" font-family="Times,serif" font-size="14.00">Risos</text>
</g>
<!-- 0&#45;&gt;1 -->
<g id="edge1" class="edge">
<title>0&#45;&gt;1</title>
<path fill="none" stroke="black" d="M701.57,-103.46C603.29,-101.32 266.54,-92.4 161.75,-69 129.3,-61.75 94.3,-47.28 69.44,-35.77"/>
<polygon fill="black" stroke="black" points="70.65,-32.46 60.11,-31.36 67.66,-38.79 70.65,-32.46"/>
<text text-anchor="middle" x="175.25" y="-57.8" font-family="Times,serif" font-size="14.00">dep</text>
</g>
<!-- 2 -->
<g id="node3" class="node">
<title>2</title>
<ellipse fill="none" stroke="black" cx="116.75" cy="-18" rx="27" ry="18"/>
<text text-anchor="middle" x="116.75" y="-14.3" font-family="Times,serif" font-size="14.00">...</text>
</g>
<!-- 0&#45;&gt;2 -->
<g id="edge2" class="edge">
<title>0&#45;&gt;2</title>
<path fill="none" stroke="black" d="M701.78,-103.18C612.28,-100.27 325.67,-89.55 235.75,-69 203.87,-61.72 169.68,-46.49 146.16,-34.75"/>
<polygon fill="black" stroke="black" points="147.58,-31.54 137.08,-30.12 144.4,-37.78 147.58,-31.54"/>
<text text-anchor="middle" x="249.25" y="-57.8" font-family="Times,serif" font-size="14.00">dep</text>
</g>
<!-- 3 -->
<g id="node4" class="node">
<title>3</title>
<ellipse fill="none" stroke="black" cx="188.75" cy="-18" rx="27" ry="18"/>
<text text-anchor="middle" x="188.75" y="-14.3" font-family="Times,serif" font-size="14.00">]</text>
</g>
<!-- 0&#45;&gt;3 -->
<g id="edge3" class="edge">
<title>0&#45;&gt;3</title>
<path fill="none" stroke="black" d="M701.52,-104.32C634.39,-104.54 455.92,-101.72 311.75,-69 278.61,-61.48 242.84,-46.04 218.47,-34.29"/>
<polygon fill="black" stroke="black" points="219.92,-31.11 209.4,-29.84 216.83,-37.39 219.92,-31.11"/>
<text text-anchor="middle" x="325.25" y="-57.8" font-family="Times,serif" font-size="14.00">dep</text>
</g>
<!-- 4 -->
<g id="node5" class="node">
<title>4</title>
<ellipse fill="none" stroke="black" cx="260.75" cy="-18" rx="27" ry="18"/>
<text text-anchor="middle" x="260.75" y="-14.3" font-family="Times,serif" font-size="14.00">A</text>
</g>
<!-- 0&#45;&gt;4 -->
<g id="edge4" class="edge">
<title>0&#45;&gt;4</title>
<path fill="none" stroke="black" d="M701.76,-103.11C644.8,-100.79 508.37,-93.01 396.75,-69 350.99,-59.16 340.21,-53.36 296.75,-36 294.92,-35.27 293.05,-34.49 291.17,-33.68"/>
<polygon fill="black" stroke="black" points="292.43,-30.41 281.88,-29.51 289.56,-36.8 292.43,-30.41"/>
<text text-anchor="middle" x="410.25" y="-57.8" font-family="Times,serif" font-size="14.00">dep</text>
</g>
<!-- 5 -->
<g id="node6" class="node">
<title>5</title>
<ellipse fill="none" stroke="black" cx="347.75" cy="-18" rx="41.69" ry="18"/>
<text text-anchor="middle" x="347.75" y="-14.3" font-family="Times,serif" font-size="14.00">função</text>
</g>
<!-- 0&#45;&gt;5 -->
<g id="edge5" class="edge">
<title>0&#45;&gt;5</title>
<path fill="none" stroke="black" d="M701.79,-102.49C654.66,-99.36 554.5,-90.59 472.75,-69 441.82,-60.83 408.25,-47.11 383.68,-36.11"/>
<polygon fill="black" stroke="black" points="384.96,-32.84 374.41,-31.89 382.06,-39.21 384.96,-32.84"/>
<text text-anchor="middle" x="486.25" y="-57.8" font-family="Times,serif" font-size="14.00">dep</text>
</g>
<!-- 6 -->
<g id="node7" class="node">
<title>6</title>
<ellipse fill="none" stroke="black" cx="434.75" cy="-18" rx="27" ry="18"/>
<text text-anchor="middle" x="434.75" y="-14.3" font-family="Times,serif" font-size="14.00">de</text>
</g>
<!-- 0&#45;&gt;6 -->
<g id="edge6" class="edge">
<title>0&#45;&gt;6</title>
<path fill="none" stroke="black" d="M702.07,-101.35C664.8,-97.14 595.35,-87.45 538.75,-69 512.15,-60.33 483.63,-46.24 463.2,-35.23"/>
<polygon fill="black" stroke="black" points="464.87,-32.15 454.41,-30.42 461.5,-38.29 464.87,-32.15"/>
<text text-anchor="middle" x="552.25" y="-57.8" font-family="Times,serif" font-size="14.00">dep</text>
</g>
<!-- 7 -->
<g id="node8" class="node">
<title>7</title>
<ellipse fill="none" stroke="black" cx="506.75" cy="-18" rx="27" ry="18"/>
<text text-anchor="middle" x="506.75" y="-14.3" font-family="Times,serif" font-size="14.00">a</text>
</g>
<!-- 0&#45;&gt;7 -->
<g id="edge7" class="edge">
<title>0&#45;&gt;7</title>
<path fill="none" stroke="black" d="M703.4,-98.71C677.39,-92.9 635.99,-82.54 601.75,-69 578.47,-59.79 553.47,-46.48 534.96,-35.91"/>
<polygon fill="black" stroke="black" points="536.58,-32.81 526.17,-30.82 533.07,-38.86 536.58,-32.81"/>
<text text-anchor="middle" x="615.25" y="-57.8" font-family="Times,serif" font-size="14.00">dep</text>
</g>
<!-- 8 -->
<g id="node9" class="node">
<title>8</title>
<ellipse fill="none" stroke="black" cx="581.75" cy="-18" rx="29.8" ry="18"/>
<text text-anchor="middle" x="581.75" y="-14.3" font-family="Times,serif" font-size="14.00">arte</text>
</g>
<!-- 0&#45;&gt;8 -->
<g id="edge8" class="edge">
<title>0&#45;&gt;8</title>
<path fill="none" stroke="black" d="M706.59,-94.63C691.64,-88.04 671.63,-78.69 654.75,-69 638.79,-59.84 621.79,-48.31 608.21,-38.63"/>
<polygon fill="black" stroke="black" points="609.98,-35.59 599.83,-32.58 605.89,-41.27 609.98,-35.59"/>
<text text-anchor="middle" x="668.25" y="-57.8" font-family="Times,serif" font-size="14.00">dep</text>
</g>
<!-- 9 -->
<g id="node10" class="node">
<title>9</title>
<ellipse fill="none" stroke="black" cx="656.75" cy="-18" rx="27" ry="18"/>
<text text-anchor="middle" x="656.75" y="-14.3" font-family="Times,serif" font-size="14.00">é</text>
</g>
<!-- 0&#45;&gt;9 -->
<g id="edge9" class="edge">
<title>0&#45;&gt;9</title>
<path fill="none" stroke="black" d="M715.35,-89.12C709.84,-82.94 703.43,-75.67 697.75,-69 690.43,-60.41 682.54,-50.86 675.65,-42.43"/>
<polygon fill="black" stroke="black" points="678.18,-39.99 669.16,-34.44 672.75,-44.41 678.18,-39.99"/>
<text text-anchor="middle" x="711.25" y="-57.8" font-family="Times,serif" font-size="14.00">dep</text>
</g>
<!-- 10 -->
<g id="node11" class="node">
<title>10</title>
<ellipse fill="none" stroke="black" cx="728.75" cy="-18" rx="27" ry="18"/>
<text text-anchor="middle" x="728.75" y="-14.3" font-family="Times,serif" font-size="14.00">a</text>
</g>
<!-- 0&#45;&gt;10 -->
<g id="edge10" class="edge">
<title>0&#45;&gt;10</title>
<path fill="none" stroke="black" d="M728.75,-86.8C728.75,-75.16 728.75,-59.55 728.75,-46.24"/>
<polygon fill="black" stroke="black" points="732.25,-46.18 728.75,-36.18 725.25,-46.18 732.25,-46.18"/>
<text text-anchor="middle" x="742.25" y="-57.8" font-family="Times,serif" font-size="14.00">dep</text>
</g>
<!-- 11 -->
<g id="node12" class="node">
<title>11</title>
<ellipse fill="none" stroke="black" cx="800.75" cy="-18" rx="27" ry="18"/>
<text text-anchor="middle" x="800.75" y="-14.3" font-family="Times,serif" font-size="14.00">de</text>
</g>
<!-- 0&#45;&gt;11 -->
<g id="edge11" class="edge">
<title>0&#45;&gt;11</title>
<path fill="none" stroke="black" d="M742.15,-89.12C747.65,-82.94 754.06,-75.67 759.75,-69 767.07,-60.41 774.96,-50.86 781.84,-42.43"/>
<polygon fill="black" stroke="black" points="784.74,-44.41 788.34,-34.44 779.31,-39.99 784.74,-44.41"/>
<text text-anchor="middle" x="786.25" y="-57.8" font-family="Times,serif" font-size="14.00">dep</text>
</g>
<!-- 12 -->
<g id="node13" class="node">
<title>12</title>
<ellipse fill="none" stroke="black" cx="897.75" cy="-18" rx="51.99" ry="18"/>
<text text-anchor="middle" x="897.75" y="-14.3" font-family="Times,serif" font-size="14.00">expandir</text>
</g>
<!-- 0&#45;&gt;12 -->
<g id="edge12" class="edge">
<title>0&#45;&gt;12</title>
<path fill="none" stroke="black" d="M750.55,-94.19C765.6,-87.33 786,-77.85 803.75,-69 823.15,-59.32 844.5,-48.02 861.94,-38.61"/>
<polygon fill="black" stroke="black" points="864.07,-41.44 871.2,-33.6 860.74,-35.28 864.07,-41.44"/>
<text text-anchor="middle" x="846.25" y="-57.8" font-family="Times,serif" font-size="14.00">dep</text>
</g>
<!-- 13 -->
<g id="node14" class="node">
<title>13</title>
<ellipse fill="none" stroke="black" cx="994.75" cy="-18" rx="27" ry="18"/>
<text text-anchor="middle" x="994.75" y="-14.3" font-family="Times,serif" font-size="14.00">as</text>
</g>
<!-- 0&#45;&gt;13 -->
<g id="edge13" class="edge">
<title>0&#45;&gt;13</title>
<path fill="none" stroke="black" d="M754.16,-98.26C797.16,-88.15 886.66,-65.44 958.75,-36 960.57,-35.26 962.43,-34.47 964.31,-33.65"/>
<polygon fill="black" stroke="black" points="965.93,-36.76 973.59,-29.45 963.04,-30.38 965.93,-36.76"/>
<text text-anchor="middle" x="923.25" y="-57.8" font-family="Times,serif" font-size="14.00">dep</text>
</g>
<!-- 14 -->
<g id="node15" class="node">
<title>14</title>
<ellipse fill="none" stroke="black" cx="1116.75" cy="-18" rx="76.89" ry="18"/>
<text text-anchor="middle" x="1116.75" y="-14.3" font-family="Times,serif" font-size="14.00">possibilidades</text>
</g>
<!-- 0&#45;&gt;14 -->
<g id="edge14" class="edge">
<title>0&#45;&gt;14</title>
<path fill="none" stroke="black" d="M755.04,-100.63C795.29,-95.26 874.49,-83.83 940.75,-69 982.22,-59.72 1028.42,-46.48 1063.07,-35.96"/>
<polygon fill="black" stroke="black" points="1064.44,-39.2 1072.98,-32.93 1062.39,-32.5 1064.44,-39.2"/>
<text text-anchor="middle" x="1013.25" y="-57.8" font-family="Times,serif" font-size="14.00">dep</text>
</g>
<!-- 15 -->
<g id="node16" class="node">
<title>15</title>
<ellipse fill="none" stroke="black" cx="1238.75" cy="-18" rx="27" ry="18"/>
<text text-anchor="middle" x="1238.75" y="-14.3" font-family="Times,serif" font-size="14.00">de</text>
</g>
<!-- 0&#45;&gt;15 -->
<g id="edge15" class="edge">
<title>0&#45;&gt;15</title>
<path fill="none" stroke="black" d="M755.68,-103.36C829.2,-100.95 1038.75,-89.5 1202.75,-36 1204.67,-35.37 1206.62,-34.67 1208.57,-33.91"/>
<polygon fill="black" stroke="black" points="1210.35,-36.95 1218.17,-29.8 1207.6,-30.52 1210.35,-36.95"/>
<text text-anchor="middle" x="1141.25" y="-57.8" font-family="Times,serif" font-size="14.00">dep</text>
</g>
<!-- 16 -->
<g id="node17" class="node">
<title>16</title>
<ellipse fill="none" stroke="black" cx="1310.75" cy="-18" rx="27" ry="18"/>
<text text-anchor="middle" x="1310.75" y="-14.3" font-family="Times,serif" font-size="14.00">a</text>
</g>
<!-- 0&#45;&gt;16 -->
<g id="edge16" class="edge">
<title>0&#45;&gt;16</title>
<path fill="none" stroke="black" d="M756.15,-103.63C824.61,-102.29 1008.4,-96.23 1158.75,-69 1211.49,-59.45 1224.57,-54.84 1274.75,-36 1276.59,-35.31 1278.47,-34.56 1280.36,-33.77"/>
<polygon fill="black" stroke="black" points="1281.94,-36.9 1289.68,-29.66 1279.11,-30.5 1281.94,-36.9"/>
<text text-anchor="middle" x="1237.25" y="-57.8" font-family="Times,serif" font-size="14.00">dep</text>
</g>
<!-- 17 -->
<g id="node18" class="node">
<title>17</title>
<ellipse fill="none" stroke="black" cx="1415.75" cy="-18" rx="59.59" ry="18"/>
<text text-anchor="middle" x="1415.75" y="-14.3" font-family="Times,serif" font-size="14.00">linguagem</text>
</g>
<!-- 0&#45;&gt;17 -->
<g id="edge17" class="edge">
<title>0&#45;&gt;17</title>
<path fill="none" stroke="black" d="M755.85,-104.42C834,-105.17 1066.24,-104.04 1254.75,-69 1294.91,-61.54 1339.13,-47.35 1371.05,-35.99"/>
<polygon fill="black" stroke="black" points="1372.32,-39.25 1380.54,-32.56 1369.95,-32.67 1372.32,-39.25"/>
<text text-anchor="middle" x="1327.25" y="-57.8" font-family="Times,serif" font-size="14.00">dep</text>
</g>
<!-- 18 -->
<g id="node19" class="node">
<title>18</title>
<ellipse fill="none" stroke="black" cx="1531.75" cy="-18" rx="38.19" ry="18"/>
<text text-anchor="middle" x="1531.75" y="-14.3" font-family="Times,serif" font-size="14.00">visual</text>
</g>
<!-- 0&#45;&gt;18 -->
<g id="edge18" class="edge">
<title>0&#45;&gt;18</title>
<path fill="none" stroke="black" d="M755.94,-104.14C842.45,-104.24 1118.95,-101.77 1344.75,-69 1408.01,-59.82 1423.48,-54.24 1484.75,-36 1487.65,-35.14 1490.63,-34.19 1493.62,-33.21"/>
<polygon fill="black" stroke="black" points="1494.76,-36.51 1503.09,-29.96 1492.49,-29.89 1494.76,-36.51"/>
<text text-anchor="middle" x="1436.25" y="-57.8" font-family="Times,serif" font-size="14.00">dep</text>
</g>
<!-- 19 -->
<g id="node20" class="node">
<title>19</title>
<ellipse fill="none" stroke="black" cx="1614.75" cy="-18" rx="27" ry="18"/>
<text text-anchor="middle" x="1614.75" y="-14.3" font-family="Times,serif" font-size="14.00">.</text>
</g>
<!-- 0&#45;&gt;19 -->
<g id="edge19" class="edge">
<title>0&#45;&gt;19</title>
<path fill="none" stroke="black" d="M756.01,-103.45C870.82,-101.01 1315.35,-90.37 1453.75,-69 1510.53,-60.23 1524.76,-55.68 1578.75,-36 1580.6,-35.33 1582.48,-34.59 1584.37,-33.82"/>
<polygon fill="black" stroke="black" points="1585.95,-36.95 1593.7,-29.73 1583.14,-30.54 1585.95,-36.95"/>
<text text-anchor="middle" x="1539.25" y="-57.8" font-family="Times,serif" font-size="14.00">dep</text>
</g>
</g>
</svg>
