<?xml version="1.0" encoding="UTF-8" standalone="no"?>
<!DOCTYPE svg PUBLIC "-//W3C//DTD SVG 1.1//EN"
 "http://www.w3.org/Graphics/SVG/1.1/DTD/svg11.dtd">
<!-- Generated by graphviz version 2.42.4 (0)
 -->
<!-- Pages: 1 -->
<svg width="1722pt" height="131pt"
 viewBox="0.00 0.00 1721.84 131.00" xmlns="http://www.w3.org/2000/svg" xmlns:xlink="http://www.w3.org/1999/xlink">
<g id="graph0" class="graph" transform="scale(1 1) rotate(0) translate(4 127)">
<polygon fill="white" stroke="transparent" points="-4,4 -4,-127 1717.84,-127 1717.84,4 -4,4"/>
<!-- 0 -->
<g id="node1" class="node">
<title>0</title>
<ellipse fill="none" stroke="black" cx="875.84" cy="-105" rx="29.8" ry="18"/>
<text text-anchor="middle" x="875.84" y="-101.3" font-family="Times,serif" font-size="14.00">José</text>
</g>
<!-- 1 -->
<g id="node2" class="node">
<title>1</title>
<ellipse fill="none" stroke="black" cx="57.84" cy="-18" rx="57.69" ry="18"/>
<text text-anchor="middle" x="57.84" y="-14.3" font-family="Times,serif" font-size="14.00">Saramago</text>
</g>
<!-- 0&#45;&gt;1 -->
<g id="edge1" class="edge">
<title>0&#45;&gt;1</title>
<path fill="none" stroke="black" d="M845.69,-103.44C733.02,-101.21 336.82,-91.87 212.84,-69 174.21,-61.87 131.84,-47.75 101.19,-36.33"/>
<polygon fill="black" stroke="black" points="102.25,-32.99 91.66,-32.73 99.78,-39.54 102.25,-32.99"/>
<text text-anchor="middle" x="226.34" y="-57.8" font-family="Times,serif" font-size="14.00">dep</text>
</g>
<!-- 2 -->
<g id="node3" class="node">
<title>2</title>
<ellipse fill="none" stroke="black" cx="160.84" cy="-18" rx="27" ry="18"/>
<text text-anchor="middle" x="160.84" y="-14.3" font-family="Times,serif" font-size="14.00">&#45;&#45;</text>
</g>
<!-- 0&#45;&gt;2 -->
<g id="edge2" class="edge">
<title>0&#45;&gt;2</title>
<path fill="none" stroke="black" d="M845.95,-103.14C743.62,-100.04 407.88,-88.59 301.84,-69 253.74,-60.11 242.4,-53.82 196.84,-36 195.01,-35.28 193.14,-34.51 191.26,-33.71"/>
<polygon fill="black" stroke="black" points="192.51,-30.44 181.95,-29.56 189.66,-36.83 192.51,-30.44"/>
<text text-anchor="middle" x="315.34" y="-57.8" font-family="Times,serif" font-size="14.00">dep</text>
</g>
<!-- 3 -->
<g id="node4" class="node">
<title>3</title>
<ellipse fill="none" stroke="black" cx="232.84" cy="-18" rx="27" ry="18"/>
<text text-anchor="middle" x="232.84" y="-14.3" font-family="Times,serif" font-size="14.00">A</text>
</g>
<!-- 0&#45;&gt;3 -->
<g id="edge3" class="edge">
<title>0&#45;&gt;3</title>
<path fill="none" stroke="black" d="M845.95,-102.93C774,-100.09 585.58,-90.98 429.84,-69 357.52,-58.79 338.14,-59.09 268.84,-36 266.93,-35.36 264.98,-34.65 263.03,-33.88"/>
<polygon fill="black" stroke="black" points="264.01,-30.49 253.44,-29.76 261.24,-36.92 264.01,-30.49"/>
<text text-anchor="middle" x="443.34" y="-57.8" font-family="Times,serif" font-size="14.00">dep</text>
</g>
<!-- 4 -->
<g id="node5" class="node">
<title>4</title>
<ellipse fill="none" stroke="black" cx="345.84" cy="-18" rx="68.49" ry="18"/>
<text text-anchor="middle" x="345.84" y="-14.3" font-family="Times,serif" font-size="14.00">contribuição</text>
</g>
<!-- 0&#45;&gt;4 -->
<g id="edge4" class="edge">
<title>0&#45;&gt;4</title>
<path fill="none" stroke="black" d="M846.01,-102.77C785.16,-99.87 642.51,-91.13 524.84,-69 480.79,-60.71 431.83,-46.7 396.26,-35.61"/>
<polygon fill="black" stroke="black" points="397.19,-32.23 386.6,-32.56 395.09,-38.91 397.19,-32.23"/>
<text text-anchor="middle" x="538.34" y="-57.8" font-family="Times,serif" font-size="14.00">dep</text>
</g>
<!-- 5 -->
<g id="node6" class="node">
<title>5</title>
<ellipse fill="none" stroke="black" cx="458.84" cy="-18" rx="27" ry="18"/>
<text text-anchor="middle" x="458.84" y="-14.3" font-family="Times,serif" font-size="14.00">vai</text>
</g>
<!-- 0&#45;&gt;5 -->
<g id="edge5" class="edge">
<title>0&#45;&gt;5</title>
<path fill="none" stroke="black" d="M846.24,-102.3C780.9,-97.77 620.23,-82.45 494.84,-36 493,-35.32 491.12,-34.57 489.23,-33.79"/>
<polygon fill="black" stroke="black" points="490.47,-30.51 479.9,-29.69 487.65,-36.92 490.47,-30.51"/>
<text text-anchor="middle" x="620.34" y="-57.8" font-family="Times,serif" font-size="14.00">dep</text>
</g>
<!-- 6 -->
<g id="node7" class="node">
<title>6</title>
<ellipse fill="none" stroke="black" cx="558.84" cy="-18" rx="54.69" ry="18"/>
<text text-anchor="middle" x="558.84" y="-14.3" font-family="Times,serif" font-size="14.00">depender</text>
</g>
<!-- 0&#45;&gt;6 -->
<g id="edge6" class="edge">
<title>0&#45;&gt;6</title>
<path fill="none" stroke="black" d="M846.96,-100.26C809.89,-95.08 743.82,-84.58 688.84,-69 658.21,-60.32 624.7,-47.34 599.37,-36.78"/>
<polygon fill="black" stroke="black" points="600.66,-33.53 590.09,-32.87 597.94,-39.98 600.66,-33.53"/>
<text text-anchor="middle" x="702.34" y="-57.8" font-family="Times,serif" font-size="14.00">dep</text>
</g>
<!-- 7 -->
<g id="node8" class="node">
<title>7</title>
<ellipse fill="none" stroke="black" cx="658.84" cy="-18" rx="27" ry="18"/>
<text text-anchor="middle" x="658.84" y="-14.3" font-family="Times,serif" font-size="14.00">de</text>
</g>
<!-- 0&#45;&gt;7 -->
<g id="edge7" class="edge">
<title>0&#45;&gt;7</title>
<path fill="none" stroke="black" d="M847.95,-98.21C822.01,-92.37 782.54,-82.31 749.84,-69 727.67,-59.97 704,-46.85 686.36,-36.31"/>
<polygon fill="black" stroke="black" points="688.1,-33.27 677.73,-31.07 684.46,-39.25 688.1,-33.27"/>
<text text-anchor="middle" x="763.34" y="-57.8" font-family="Times,serif" font-size="14.00">dep</text>
</g>
<!-- 8 -->
<g id="node9" class="node">
<title>8</title>
<ellipse fill="none" stroke="black" cx="730.84" cy="-18" rx="27" ry="18"/>
<text text-anchor="middle" x="730.84" y="-14.3" font-family="Times,serif" font-size="14.00">o</text>
</g>
<!-- 0&#45;&gt;8 -->
<g id="edge8" class="edge">
<title>0&#45;&gt;8</title>
<path fill="none" stroke="black" d="M852.01,-93.74C837.5,-87.21 818.76,-78.26 802.84,-69 786.88,-59.71 769.86,-47.98 756.38,-38.22"/>
<polygon fill="black" stroke="black" points="758.22,-35.23 748.08,-32.14 754.08,-40.87 758.22,-35.23"/>
<text text-anchor="middle" x="816.34" y="-57.8" font-family="Times,serif" font-size="14.00">dep</text>
</g>
<!-- 9 -->
<g id="node10" class="node">
<title>9</title>
<ellipse fill="none" stroke="black" cx="802.84" cy="-18" rx="27" ry="18"/>
<text text-anchor="middle" x="802.84" y="-14.3" font-family="Times,serif" font-size="14.00">eco</text>
</g>
<!-- 0&#45;&gt;9 -->
<g id="edge9" class="edge">
<title>0&#45;&gt;9</title>
<path fill="none" stroke="black" d="M862.18,-88.74C856.75,-82.64 850.46,-75.52 844.84,-69 837.33,-60.28 829.16,-50.61 822.05,-42.12"/>
<polygon fill="black" stroke="black" points="824.71,-39.84 815.61,-34.41 819.33,-44.33 824.71,-39.84"/>
<text text-anchor="middle" x="858.34" y="-57.8" font-family="Times,serif" font-size="14.00">dep</text>
</g>
<!-- 10 -->
<g id="node11" class="node">
<title>10</title>
<ellipse fill="none" stroke="black" cx="875.84" cy="-18" rx="27.9" ry="18"/>
<text text-anchor="middle" x="875.84" y="-14.3" font-family="Times,serif" font-size="14.00">que</text>
</g>
<!-- 0&#45;&gt;10 -->
<g id="edge10" class="edge">
<title>0&#45;&gt;10</title>
<path fill="none" stroke="black" d="M875.84,-86.8C875.84,-75.16 875.84,-59.55 875.84,-46.24"/>
<polygon fill="black" stroke="black" points="879.34,-46.18 875.84,-36.18 872.34,-46.18 879.34,-46.18"/>
<text text-anchor="middle" x="889.34" y="-57.8" font-family="Times,serif" font-size="14.00">dep</text>
</g>
<!-- 11 -->
<g id="node12" class="node">
<title>11</title>
<ellipse fill="none" stroke="black" cx="948.84" cy="-18" rx="27" ry="18"/>
<text text-anchor="middle" x="948.84" y="-14.3" font-family="Times,serif" font-size="14.00">o</text>
</g>
<!-- 0&#45;&gt;11 -->
<g id="edge11" class="edge">
<title>0&#45;&gt;11</title>
<path fill="none" stroke="black" d="M889.51,-88.74C894.94,-82.64 901.22,-75.52 906.84,-69 914.36,-60.28 922.53,-50.61 929.64,-42.12"/>
<polygon fill="black" stroke="black" points="932.36,-44.33 936.08,-34.41 926.98,-39.84 932.36,-44.33"/>
<text text-anchor="middle" x="932.34" y="-57.8" font-family="Times,serif" font-size="14.00">dep</text>
</g>
<!-- 12 -->
<g id="node13" class="node">
<title>12</title>
<ellipse fill="none" stroke="black" cx="1057.84" cy="-18" rx="63.89" ry="18"/>
<text text-anchor="middle" x="1057.84" y="-14.3" font-family="Times,serif" font-size="14.00">Parlamento</text>
</g>
<!-- 0&#45;&gt;12 -->
<g id="edge12" class="edge">
<title>0&#45;&gt;12</title>
<path fill="none" stroke="black" d="M898.9,-93.23C928.57,-79.37 980.65,-55.05 1017.09,-38.04"/>
<polygon fill="black" stroke="black" points="1018.87,-41.06 1026.45,-33.66 1015.91,-34.72 1018.87,-41.06"/>
<text text-anchor="middle" x="991.34" y="-57.8" font-family="Times,serif" font-size="14.00">dep</text>
</g>
<!-- 13 -->
<g id="node14" class="node">
<title>13</title>
<ellipse fill="none" stroke="black" cx="1176.84" cy="-18" rx="37.09" ry="18"/>
<text text-anchor="middle" x="1176.84" y="-14.3" font-family="Times,serif" font-size="14.00">possa</text>
</g>
<!-- 0&#45;&gt;13 -->
<g id="edge13" class="edge">
<title>0&#45;&gt;13</title>
<path fill="none" stroke="black" d="M903.27,-97.61C950.26,-86.46 1049.01,-62.13 1130.84,-36 1133.58,-35.13 1136.4,-34.19 1139.22,-33.22"/>
<polygon fill="black" stroke="black" points="1140.51,-36.47 1148.76,-29.83 1138.17,-29.87 1140.51,-36.47"/>
<text text-anchor="middle" x="1082.34" y="-57.8" font-family="Times,serif" font-size="14.00">dep</text>
</g>
<!-- 14 -->
<g id="node15" class="node">
<title>14</title>
<ellipse fill="none" stroke="black" cx="1258.84" cy="-18" rx="27" ry="18"/>
<text text-anchor="middle" x="1258.84" y="-14.3" font-family="Times,serif" font-size="14.00">ter</text>
</g>
<!-- 0&#45;&gt;14 -->
<g id="edge14" class="edge">
<title>0&#45;&gt;14</title>
<path fill="none" stroke="black" d="M905.48,-101.37C966.49,-95.29 1109.89,-77.44 1222.84,-36 1224.69,-35.32 1226.58,-34.58 1228.47,-33.81"/>
<polygon fill="black" stroke="black" points="1230.04,-36.94 1237.79,-29.71 1227.23,-30.53 1230.04,-36.94"/>
<text text-anchor="middle" x="1172.34" y="-57.8" font-family="Times,serif" font-size="14.00">dep</text>
</g>
<!-- 15 -->
<g id="node16" class="node">
<title>15</title>
<ellipse fill="none" stroke="black" cx="1330.84" cy="-18" rx="27" ry="18"/>
<text text-anchor="middle" x="1330.84" y="-14.3" font-family="Times,serif" font-size="14.00">em</text>
</g>
<!-- 0&#45;&gt;15 -->
<g id="edge15" class="edge">
<title>0&#45;&gt;15</title>
<path fill="none" stroke="black" d="M905.59,-102.6C961.69,-99.55 1086.79,-90.72 1189.84,-69 1237.71,-58.91 1249.29,-53.82 1294.84,-36 1296.68,-35.28 1298.55,-34.51 1300.43,-33.71"/>
<polygon fill="black" stroke="black" points="1302.03,-36.83 1309.74,-29.56 1299.18,-30.44 1302.03,-36.83"/>
<text text-anchor="middle" x="1260.34" y="-57.8" font-family="Times,serif" font-size="14.00">dep</text>
</g>
<!-- 16 -->
<g id="node17" class="node">
<title>16</title>
<ellipse fill="none" stroke="black" cx="1402.84" cy="-18" rx="27" ry="18"/>
<text text-anchor="middle" x="1402.84" y="-14.3" font-family="Times,serif" font-size="14.00">a</text>
</g>
<!-- 0&#45;&gt;16 -->
<g id="edge16" class="edge">
<title>0&#45;&gt;16</title>
<path fill="none" stroke="black" d="M905.77,-104.12C973.1,-103.79 1141.31,-99.67 1277.84,-69 1311.47,-61.45 1347.82,-46.01 1372.61,-34.28"/>
<polygon fill="black" stroke="black" points="1374.35,-37.32 1381.83,-29.83 1371.31,-31.02 1374.35,-37.32"/>
<text text-anchor="middle" x="1337.34" y="-57.8" font-family="Times,serif" font-size="14.00">dep</text>
</g>
<!-- 17 -->
<g id="node18" class="node">
<title>17</title>
<ellipse fill="none" stroke="black" cx="1491.84" cy="-18" rx="44.39" ry="18"/>
<text text-anchor="middle" x="1491.84" y="-14.3" font-family="Times,serif" font-size="14.00">opinião</text>
</g>
<!-- 0&#45;&gt;17 -->
<g id="edge17" class="edge">
<title>0&#45;&gt;17</title>
<path fill="none" stroke="black" d="M905.96,-104.67C982.1,-105.73 1188.13,-104.79 1354.84,-69 1389.46,-61.57 1427.13,-47.34 1454.2,-35.95"/>
<polygon fill="black" stroke="black" points="1455.84,-39.06 1463.66,-31.91 1453.09,-32.62 1455.84,-39.06"/>
<text text-anchor="middle" x="1419.34" y="-57.8" font-family="Times,serif" font-size="14.00">dep</text>
</g>
<!-- 18 -->
<g id="node19" class="node">
<title>18</title>
<ellipse fill="none" stroke="black" cx="1597.84" cy="-18" rx="44.39" ry="18"/>
<text text-anchor="middle" x="1597.84" y="-14.3" font-family="Times,serif" font-size="14.00">pública</text>
</g>
<!-- 0&#45;&gt;18 -->
<g id="edge18" class="edge">
<title>0&#45;&gt;18</title>
<path fill="none" stroke="black" d="M905.94,-104.58C990.42,-105.69 1236.65,-105.31 1436.84,-69 1478.86,-61.38 1525.28,-46.2 1557.44,-34.56"/>
<polygon fill="black" stroke="black" points="1558.76,-37.8 1566.94,-31.07 1556.35,-31.23 1558.76,-37.8"/>
<text text-anchor="middle" x="1509.34" y="-57.8" font-family="Times,serif" font-size="14.00">dep</text>
</g>
<!-- 19 -->
<g id="node20" class="node">
<title>19</title>
<ellipse fill="none" stroke="black" cx="1686.84" cy="-18" rx="27" ry="18"/>
<text text-anchor="middle" x="1686.84" y="-14.3" font-family="Times,serif" font-size="14.00">.</text>
</g>
<!-- 0&#45;&gt;19 -->
<g id="edge19" class="edge">
<title>0&#45;&gt;19</title>
<path fill="none" stroke="black" d="M905.8,-103.21C1016.82,-100.16 1404.71,-88.32 1526.84,-69 1583.17,-60.09 1597.29,-55.59 1650.84,-36 1652.69,-35.32 1654.58,-34.59 1656.47,-33.81"/>
<polygon fill="black" stroke="black" points="1658.05,-36.94 1665.8,-29.72 1655.23,-30.53 1658.05,-36.94"/>
<text text-anchor="middle" x="1612.34" y="-57.8" font-family="Times,serif" font-size="14.00">dep</text>
</g>
</g>
</svg>
