<?xml version="1.0" encoding="UTF-8" standalone="no"?>
<!DOCTYPE svg PUBLIC "-//W3C//DTD SVG 1.1//EN"
 "http://www.w3.org/Graphics/SVG/1.1/DTD/svg11.dtd">
<!-- Generated by graphviz version 2.42.4 (0)
 -->
<!-- Pages: 1 -->
<svg width="432pt" height="131pt"
 viewBox="0.00 0.00 431.85 131.00" xmlns="http://www.w3.org/2000/svg" xmlns:xlink="http://www.w3.org/1999/xlink">
<g id="graph0" class="graph" transform="scale(1 1) rotate(0) translate(4 127)">
<polygon fill="white" stroke="transparent" points="-4,4 -4,-127 427.85,-127 427.85,4 -4,4"/>
<!-- 0 -->
<g id="node1" class="node">
<title>0</title>
<ellipse fill="none" stroke="black" cx="189" cy="-105" rx="56.59" ry="18"/>
<text text-anchor="middle" x="189" y="-101.3" font-family="Times,serif" font-size="14.00">Ensemble</text>
</g>
<!-- 1 -->
<g id="node2" class="node">
<title>1</title>
<ellipse fill="none" stroke="black" cx="27" cy="-18" rx="27" ry="18"/>
<text text-anchor="middle" x="27" y="-14.3" font-family="Times,serif" font-size="14.00">,</text>
</g>
<!-- 0&#45;&gt;1 -->
<g id="edge1" class="edge">
<title>0&#45;&gt;1</title>
<path fill="none" stroke="black" d="M154.99,-90.6C140.31,-84.48 123.08,-76.86 108,-69 89.38,-59.3 69.29,-46.91 53.77,-36.89"/>
<polygon fill="black" stroke="black" points="55.5,-33.84 45.21,-31.3 51.68,-39.7 55.5,-33.84"/>
<text text-anchor="middle" x="121.5" y="-57.8" font-family="Times,serif" font-size="14.00">dep</text>
</g>
<!-- 2 -->
<g id="node3" class="node">
<title>2</title>
<ellipse fill="none" stroke="black" cx="99" cy="-18" rx="27" ry="18"/>
<text text-anchor="middle" x="99" y="-14.3" font-family="Times,serif" font-size="14.00">de</text>
</g>
<!-- 0&#45;&gt;2 -->
<g id="edge2" class="edge">
<title>0&#45;&gt;2</title>
<path fill="none" stroke="black" d="M171.65,-87.61C157.38,-74.14 137.06,-54.94 121.54,-40.28"/>
<polygon fill="black" stroke="black" points="123.59,-37.41 113.91,-33.08 118.78,-42.49 123.59,-37.41"/>
<text text-anchor="middle" x="163.5" y="-57.8" font-family="Times,serif" font-size="14.00">dep</text>
</g>
<!-- 3 -->
<g id="node4" class="node">
<title>3</title>
<ellipse fill="none" stroke="black" cx="189" cy="-18" rx="44.69" ry="18"/>
<text text-anchor="middle" x="189" y="-14.3" font-family="Times,serif" font-size="14.00">actores</text>
</g>
<!-- 0&#45;&gt;3 -->
<g id="edge3" class="edge">
<title>0&#45;&gt;3</title>
<path fill="none" stroke="black" d="M189,-86.8C189,-75.16 189,-59.55 189,-46.24"/>
<polygon fill="black" stroke="black" points="192.5,-46.18 189,-36.18 185.5,-46.18 192.5,-46.18"/>
<text text-anchor="middle" x="202.5" y="-57.8" font-family="Times,serif" font-size="14.00">dep</text>
</g>
<!-- 4 -->
<g id="node5" class="node">
<title>4</title>
<ellipse fill="none" stroke="black" cx="284" cy="-18" rx="31.7" ry="18"/>
<text text-anchor="middle" x="284" y="-14.3" font-family="Times,serif" font-size="14.00">para</text>
</g>
<!-- 0&#45;&gt;4 -->
<g id="edge4" class="edge">
<title>0&#45;&gt;4</title>
<path fill="none" stroke="black" d="M207.32,-87.61C222.33,-74.18 243.69,-55.06 260.06,-40.42"/>
<polygon fill="black" stroke="black" points="262.52,-42.91 267.64,-33.64 257.86,-37.7 262.52,-42.91"/>
<text text-anchor="middle" x="256.5" y="-57.8" font-family="Times,serif" font-size="14.00">dep</text>
</g>
<!-- 5 -->
<g id="node6" class="node">
<title>5</title>
<ellipse fill="none" stroke="black" cx="379" cy="-18" rx="44.69" ry="18"/>
<text text-anchor="middle" x="379" y="-14.3" font-family="Times,serif" font-size="14.00">actores</text>
</g>
<!-- 0&#45;&gt;5 -->
<g id="edge5" class="edge">
<title>0&#45;&gt;5</title>
<path fill="none" stroke="black" d="M223.09,-90.45C238.69,-84.12 257.37,-76.38 274,-69 296.94,-58.82 322.36,-46.74 342.45,-37"/>
<polygon fill="black" stroke="black" points="344.09,-40.09 351.55,-32.57 341.03,-33.8 344.09,-40.09"/>
<text text-anchor="middle" x="319.5" y="-57.8" font-family="Times,serif" font-size="14.00">dep</text>
</g>
</g>
</svg>
