<?xml version="1.0" encoding="UTF-8" standalone="no"?>
<!DOCTYPE svg PUBLIC "-//W3C//DTD SVG 1.1//EN"
 "http://www.w3.org/Graphics/SVG/1.1/DTD/svg11.dtd">
<!-- Generated by graphviz version 2.42.4 (0)
 -->
<!-- Pages: 1 -->
<svg width="2772pt" height="131pt"
 viewBox="0.00 0.00 2772.00 131.00" xmlns="http://www.w3.org/2000/svg" xmlns:xlink="http://www.w3.org/1999/xlink">
<g id="graph0" class="graph" transform="scale(1 1) rotate(0) translate(4 127)">
<polygon fill="white" stroke="transparent" points="-4,4 -4,-127 2768,-127 2768,4 -4,4"/>
<!-- 0 -->
<g id="node1" class="node">
<title>0</title>
<ellipse fill="none" stroke="black" cx="1457" cy="-105" rx="27" ry="18"/>
<text text-anchor="middle" x="1457" y="-101.3" font-family="Times,serif" font-size="14.00">«</text>
</g>
<!-- 1 -->
<g id="node2" class="node">
<title>1</title>
<ellipse fill="none" stroke="black" cx="27" cy="-18" rx="27" ry="18"/>
<text text-anchor="middle" x="27" y="-14.3" font-family="Times,serif" font-size="14.00">Já</text>
</g>
<!-- 0&#45;&gt;1 -->
<g id="edge1" class="edge">
<title>0&#45;&gt;1</title>
<path fill="none" stroke="black" d="M1429.8,-104C1269.94,-103.89 451.21,-101.7 202,-69 139.04,-60.74 122.92,-57 63,-36 61.09,-35.33 59.15,-34.59 57.21,-33.81"/>
<polygon fill="black" stroke="black" points="58.2,-30.42 47.63,-29.64 55.4,-36.84 58.2,-30.42"/>
<text text-anchor="middle" x="215.5" y="-57.8" font-family="Times,serif" font-size="14.00">dep</text>
</g>
<!-- 2 -->
<g id="node3" class="node">
<title>2</title>
<ellipse fill="none" stroke="black" cx="121" cy="-18" rx="49.29" ry="18"/>
<text text-anchor="middle" x="121" y="-14.3" font-family="Times,serif" font-size="14.00">estamos</text>
</g>
<!-- 0&#45;&gt;2 -->
<g id="edge2" class="edge">
<title>0&#45;&gt;2</title>
<path fill="none" stroke="black" d="M1429.78,-104.02C1277.57,-104.02 530.58,-102.28 303,-69 254.84,-61.96 201.3,-46.25 164.83,-34.31"/>
<polygon fill="black" stroke="black" points="165.61,-30.88 155.01,-31.05 163.4,-37.53 165.61,-30.88"/>
<text text-anchor="middle" x="316.5" y="-57.8" font-family="Times,serif" font-size="14.00">dep</text>
</g>
<!-- 3 -->
<g id="node4" class="node">
<title>3</title>
<ellipse fill="none" stroke="black" cx="244" cy="-18" rx="55.79" ry="18"/>
<text text-anchor="middle" x="244" y="-14.3" font-family="Times,serif" font-size="14.00">contentes</text>
</g>
<!-- 0&#45;&gt;3 -->
<g id="edge3" class="edge">
<title>0&#45;&gt;3</title>
<path fill="none" stroke="black" d="M1429.97,-104.18C1285.16,-104.98 599.97,-106.7 392,-69 354.96,-62.29 314.57,-48.15 285.36,-36.62"/>
<polygon fill="black" stroke="black" points="286.49,-33.3 275.9,-32.82 283.88,-39.8 286.49,-33.3"/>
<text text-anchor="middle" x="405.5" y="-57.8" font-family="Times,serif" font-size="14.00">dep</text>
</g>
<!-- 4 -->
<g id="node5" class="node">
<title>4</title>
<ellipse fill="none" stroke="black" cx="345" cy="-18" rx="27" ry="18"/>
<text text-anchor="middle" x="345" y="-14.3" font-family="Times,serif" font-size="14.00">por</text>
</g>
<!-- 0&#45;&gt;4 -->
<g id="edge4" class="edge">
<title>0&#45;&gt;4</title>
<path fill="none" stroke="black" d="M1429.77,-104.16C1291.24,-104.82 663.74,-105.68 473,-69 437.89,-62.25 400.03,-46.27 374.66,-34.18"/>
<polygon fill="black" stroke="black" points="376.11,-30.99 365.58,-29.76 373.04,-37.28 376.11,-30.99"/>
<text text-anchor="middle" x="486.5" y="-57.8" font-family="Times,serif" font-size="14.00">dep</text>
</g>
<!-- 5 -->
<g id="node6" class="node">
<title>5</title>
<ellipse fill="none" stroke="black" cx="417" cy="-18" rx="27" ry="18"/>
<text text-anchor="middle" x="417" y="-14.3" font-family="Times,serif" font-size="14.00">ter</text>
</g>
<!-- 0&#45;&gt;5 -->
<g id="edge5" class="edge">
<title>0&#45;&gt;5</title>
<path fill="none" stroke="black" d="M1429.63,-103.76C1299.68,-102.49 744.13,-95.56 573,-69 518.34,-60.52 504.87,-55.21 453,-36 451.15,-35.32 449.27,-34.57 447.38,-33.79"/>
<polygon fill="black" stroke="black" points="448.62,-30.51 438.06,-29.69 445.8,-36.92 448.62,-30.51"/>
<text text-anchor="middle" x="586.5" y="-57.8" font-family="Times,serif" font-size="14.00">dep</text>
</g>
<!-- 6 -->
<g id="node7" class="node">
<title>6</title>
<ellipse fill="none" stroke="black" cx="511" cy="-18" rx="49.29" ry="18"/>
<text text-anchor="middle" x="511" y="-14.3" font-family="Times,serif" font-size="14.00">chegado</text>
</g>
<!-- 0&#45;&gt;6 -->
<g id="edge6" class="edge">
<title>0&#45;&gt;6</title>
<path fill="none" stroke="black" d="M1429.8,-103.85C1307.75,-103.03 809.99,-97.92 657,-69 619.98,-62 579.59,-47.61 550.69,-36.05"/>
<polygon fill="black" stroke="black" points="551.93,-32.78 541.35,-32.26 549.3,-39.27 551.93,-32.78"/>
<text text-anchor="middle" x="670.5" y="-57.8" font-family="Times,serif" font-size="14.00">dep</text>
</g>
<!-- 7 -->
<g id="node8" class="node">
<title>7</title>
<ellipse fill="none" stroke="black" cx="605" cy="-18" rx="27" ry="18"/>
<text text-anchor="middle" x="605" y="-14.3" font-family="Times,serif" font-size="14.00">a</text>
</g>
<!-- 0&#45;&gt;7 -->
<g id="edge7" class="edge">
<title>0&#45;&gt;7</title>
<path fill="none" stroke="black" d="M1429.89,-103.58C1316.76,-101.67 881.88,-92.92 747,-69 698.42,-60.38 686.98,-53.91 641,-36 639.16,-35.28 637.29,-34.52 635.41,-33.72"/>
<polygon fill="black" stroke="black" points="636.66,-30.45 626.11,-29.57 633.81,-36.84 636.66,-30.45"/>
<text text-anchor="middle" x="760.5" y="-57.8" font-family="Times,serif" font-size="14.00">dep</text>
</g>
<!-- 8 -->
<g id="node9" class="node">
<title>8</title>
<ellipse fill="none" stroke="black" cx="677" cy="-18" rx="27" ry="18"/>
<text text-anchor="middle" x="677" y="-14.3" font-family="Times,serif" font-size="14.00">as</text>
</g>
<!-- 0&#45;&gt;8 -->
<g id="edge8" class="edge">
<title>0&#45;&gt;8</title>
<path fill="none" stroke="black" d="M1430.08,-103.58C1348.01,-102.03 1093.77,-95.3 885,-69 807.77,-59.27 787,-60.14 713,-36 711.08,-35.37 709.13,-34.67 707.17,-33.91"/>
<polygon fill="black" stroke="black" points="708.15,-30.52 697.58,-29.8 705.39,-36.95 708.15,-30.52"/>
<text text-anchor="middle" x="898.5" y="-57.8" font-family="Times,serif" font-size="14.00">dep</text>
</g>
<!-- 9 -->
<g id="node10" class="node">
<title>9</title>
<ellipse fill="none" stroke="black" cx="803" cy="-18" rx="81.49" ry="18"/>
<text text-anchor="middle" x="803" y="-14.3" font-family="Times,serif" font-size="14.00">oitavas&#45;de&#45;final</text>
</g>
<!-- 0&#45;&gt;9 -->
<g id="edge9" class="edge">
<title>0&#45;&gt;9</title>
<path fill="none" stroke="black" d="M1429.81,-103.94C1356.46,-103.36 1148.61,-98.98 979,-69 936.44,-61.48 889.4,-47.83 854.67,-36.69"/>
<polygon fill="black" stroke="black" points="855.35,-33.23 844.76,-33.47 853.19,-39.89 855.35,-33.23"/>
<text text-anchor="middle" x="992.5" y="-57.8" font-family="Times,serif" font-size="14.00">dep</text>
</g>
<!-- 10 -->
<g id="node11" class="node">
<title>10</title>
<ellipse fill="none" stroke="black" cx="929" cy="-18" rx="27" ry="18"/>
<text text-anchor="middle" x="929" y="-14.3" font-family="Times,serif" font-size="14.00">»</text>
</g>
<!-- 0&#45;&gt;10 -->
<g id="edge10" class="edge">
<title>0&#45;&gt;10</title>
<path fill="none" stroke="black" d="M1429.88,-104.05C1364.66,-103.66 1194.18,-99.53 1056,-69 1021.53,-61.38 984.17,-45.7 958.96,-33.92"/>
<polygon fill="black" stroke="black" points="960.46,-30.75 949.92,-29.62 957.45,-37.07 960.46,-30.75"/>
<text text-anchor="middle" x="1069.5" y="-57.8" font-family="Times,serif" font-size="14.00">dep</text>
</g>
<!-- 11 -->
<g id="node12" class="node">
<title>11</title>
<ellipse fill="none" stroke="black" cx="1001" cy="-18" rx="27" ry="18"/>
<text text-anchor="middle" x="1001" y="-14.3" font-family="Times,serif" font-size="14.00">,</text>
</g>
<!-- 0&#45;&gt;11 -->
<g id="edge11" class="edge">
<title>0&#45;&gt;11</title>
<path fill="none" stroke="black" d="M1429.94,-102.69C1375.35,-99.66 1248.39,-90.73 1144,-69 1095.28,-58.86 1083.4,-54 1037,-36 1035.16,-35.29 1033.29,-34.52 1031.41,-33.73"/>
<polygon fill="black" stroke="black" points="1032.66,-30.45 1022.1,-29.58 1029.81,-36.85 1032.66,-30.45"/>
<text text-anchor="middle" x="1157.5" y="-57.8" font-family="Times,serif" font-size="14.00">dep</text>
</g>
<!-- 12 -->
<g id="node13" class="node">
<title>12</title>
<ellipse fill="none" stroke="black" cx="1080" cy="-18" rx="34.39" ry="18"/>
<text text-anchor="middle" x="1080" y="-14.3" font-family="Times,serif" font-size="14.00">disse</text>
</g>
<!-- 0&#45;&gt;12 -->
<g id="edge12" class="edge">
<title>0&#45;&gt;12</title>
<path fill="none" stroke="black" d="M1430.53,-101.36C1387.46,-96.75 1299.75,-86.07 1227,-69 1180.2,-58.02 1169.33,-52 1124,-36 1121.48,-35.11 1118.89,-34.17 1116.28,-33.21"/>
<polygon fill="black" stroke="black" points="1117.49,-29.93 1106.9,-29.68 1115.03,-36.48 1117.49,-29.93"/>
<text text-anchor="middle" x="1240.5" y="-57.8" font-family="Times,serif" font-size="14.00">dep</text>
</g>
<!-- 13 -->
<g id="node14" class="node">
<title>13</title>
<ellipse fill="none" stroke="black" cx="1173" cy="-18" rx="40.09" ry="18"/>
<text text-anchor="middle" x="1173" y="-14.3" font-family="Times,serif" font-size="14.00">Phillip</text>
</g>
<!-- 0&#45;&gt;13 -->
<g id="edge13" class="edge">
<title>0&#45;&gt;13</title>
<path fill="none" stroke="black" d="M1431.12,-99.51C1399.73,-93.78 1345.39,-82.9 1300,-69 1269.2,-59.57 1235.29,-46.05 1210.27,-35.45"/>
<polygon fill="black" stroke="black" points="1211.37,-32.11 1200.8,-31.4 1208.62,-38.55 1211.37,-32.11"/>
<text text-anchor="middle" x="1313.5" y="-57.8" font-family="Times,serif" font-size="14.00">dep</text>
</g>
<!-- 14 -->
<g id="node15" class="node">
<title>14</title>
<ellipse fill="none" stroke="black" cx="1268" cy="-18" rx="36.29" ry="18"/>
<text text-anchor="middle" x="1268" y="-14.3" font-family="Times,serif" font-size="14.00">Trent</text>
</g>
<!-- 0&#45;&gt;14 -->
<g id="edge14" class="edge">
<title>0&#45;&gt;14</title>
<path fill="none" stroke="black" d="M1432.96,-96.75C1412.63,-90.32 1382.93,-80.24 1358,-69 1337.79,-59.89 1316.04,-47.87 1298.98,-37.9"/>
<polygon fill="black" stroke="black" points="1300.41,-34.68 1290.03,-32.6 1296.85,-40.71 1300.41,-34.68"/>
<text text-anchor="middle" x="1371.5" y="-57.8" font-family="Times,serif" font-size="14.00">dep</text>
</g>
<!-- 15 -->
<g id="node16" class="node">
<title>15</title>
<ellipse fill="none" stroke="black" cx="1349" cy="-18" rx="27" ry="18"/>
<text text-anchor="middle" x="1349" y="-14.3" font-family="Times,serif" font-size="14.00">,</text>
</g>
<!-- 0&#45;&gt;15 -->
<g id="edge15" class="edge">
<title>0&#45;&gt;15</title>
<path fill="none" stroke="black" d="M1438.21,-91.88C1428.41,-85.37 1416.34,-77.04 1406,-69 1394.36,-59.95 1381.98,-49.24 1371.75,-40.06"/>
<polygon fill="black" stroke="black" points="1373.82,-37.21 1364.06,-33.09 1369.12,-42.4 1373.82,-37.21"/>
<text text-anchor="middle" x="1419.5" y="-57.8" font-family="Times,serif" font-size="14.00">dep</text>
</g>
<!-- 16 -->
<g id="node17" class="node">
<title>16</title>
<ellipse fill="none" stroke="black" cx="1421" cy="-18" rx="27" ry="18"/>
<text text-anchor="middle" x="1421" y="-14.3" font-family="Times,serif" font-size="14.00">24</text>
</g>
<!-- 0&#45;&gt;16 -->
<g id="edge16" class="edge">
<title>0&#45;&gt;16</title>
<path fill="none" stroke="black" d="M1449.89,-87.21C1444.78,-75.14 1437.79,-58.64 1431.97,-44.89"/>
<polygon fill="black" stroke="black" points="1435.1,-43.31 1427.98,-35.47 1428.65,-46.04 1435.1,-43.31"/>
<text text-anchor="middle" x="1455.5" y="-57.8" font-family="Times,serif" font-size="14.00">dep</text>
</g>
<!-- 17 -->
<g id="node18" class="node">
<title>17</title>
<ellipse fill="none" stroke="black" cx="1493" cy="-18" rx="27" ry="18"/>
<text text-anchor="middle" x="1493" y="-14.3" font-family="Times,serif" font-size="14.00">,</text>
</g>
<!-- 0&#45;&gt;17 -->
<g id="edge17" class="edge">
<title>0&#45;&gt;17</title>
<path fill="none" stroke="black" d="M1464.11,-87.21C1469.22,-75.14 1476.21,-58.64 1482.03,-44.89"/>
<polygon fill="black" stroke="black" points="1485.35,-46.04 1486.02,-35.47 1478.9,-43.31 1485.35,-46.04"/>
<text text-anchor="middle" x="1491.5" y="-57.8" font-family="Times,serif" font-size="14.00">dep</text>
</g>
<!-- 18 -->
<g id="node19" class="node">
<title>18</title>
<ellipse fill="none" stroke="black" cx="1566" cy="-18" rx="27.9" ry="18"/>
<text text-anchor="middle" x="1566" y="-14.3" font-family="Times,serif" font-size="14.00">que</text>
</g>
<!-- 0&#45;&gt;18 -->
<g id="edge18" class="edge">
<title>0&#45;&gt;18</title>
<path fill="none" stroke="black" d="M1476.18,-91.93C1486.18,-85.43 1498.48,-77.1 1509,-69 1520.52,-60.13 1532.71,-49.6 1542.85,-40.5"/>
<polygon fill="black" stroke="black" points="1545.44,-42.88 1550.49,-33.57 1540.73,-37.7 1545.44,-42.88"/>
<text text-anchor="middle" x="1540.5" y="-57.8" font-family="Times,serif" font-size="14.00">dep</text>
</g>
<!-- 19 -->
<g id="node20" class="node">
<title>19</title>
<ellipse fill="none" stroke="black" cx="1658" cy="-18" rx="46.29" ry="18"/>
<text text-anchor="middle" x="1658" y="-14.3" font-family="Times,serif" font-size="14.00">assistiu</text>
</g>
<!-- 0&#45;&gt;19 -->
<g id="edge19" class="edge">
<title>0&#45;&gt;19</title>
<path fill="none" stroke="black" d="M1481,-96.66C1501.68,-90.1 1532.17,-79.88 1558,-69 1580.14,-59.68 1604.24,-47.68 1623.23,-37.78"/>
<polygon fill="black" stroke="black" points="1624.9,-40.86 1632.12,-33.11 1621.64,-34.67 1624.9,-40.86"/>
<text text-anchor="middle" x="1602.5" y="-57.8" font-family="Times,serif" font-size="14.00">dep</text>
</g>
<!-- 20 -->
<g id="node21" class="node">
<title>20</title>
<ellipse fill="none" stroke="black" cx="1749" cy="-18" rx="27" ry="18"/>
<text text-anchor="middle" x="1749" y="-14.3" font-family="Times,serif" font-size="14.00">o</text>
</g>
<!-- 0&#45;&gt;20 -->
<g id="edge20" class="edge">
<title>0&#45;&gt;20</title>
<path fill="none" stroke="black" d="M1482.94,-99.5C1515.32,-93.65 1572.24,-82.54 1620,-69 1662.2,-57.04 1672.45,-52.72 1713,-36 1714.82,-35.25 1716.68,-34.45 1718.55,-33.64"/>
<polygon fill="black" stroke="black" points="1720.18,-36.74 1727.84,-29.42 1717.28,-30.37 1720.18,-36.74"/>
<text text-anchor="middle" x="1681.5" y="-57.8" font-family="Times,serif" font-size="14.00">dep</text>
</g>
<!-- 21 -->
<g id="node22" class="node">
<title>21</title>
<ellipse fill="none" stroke="black" cx="1825" cy="-18" rx="30.59" ry="18"/>
<text text-anchor="middle" x="1825" y="-14.3" font-family="Times,serif" font-size="14.00">jogo</text>
</g>
<!-- 0&#45;&gt;21 -->
<g id="edge21" class="edge">
<title>0&#45;&gt;21</title>
<path fill="none" stroke="black" d="M1483.88,-102.08C1528.96,-98.42 1622.39,-88.97 1699,-69 1731.77,-60.46 1767.51,-45.72 1792.53,-34.45"/>
<polygon fill="black" stroke="black" points="1794.25,-37.51 1801.89,-30.17 1791.34,-31.15 1794.25,-37.51"/>
<text text-anchor="middle" x="1759.5" y="-57.8" font-family="Times,serif" font-size="14.00">dep</text>
</g>
<!-- 22 -->
<g id="node23" class="node">
<title>22</title>
<ellipse fill="none" stroke="black" cx="1901" cy="-18" rx="27" ry="18"/>
<text text-anchor="middle" x="1901" y="-14.3" font-family="Times,serif" font-size="14.00">a</text>
</g>
<!-- 0&#45;&gt;22 -->
<g id="edge22" class="edge">
<title>0&#45;&gt;22</title>
<path fill="none" stroke="black" d="M1483.93,-103.32C1539.47,-101.41 1670.44,-94.38 1777,-69 1810.29,-61.07 1846.36,-45.69 1870.97,-34.07"/>
<polygon fill="black" stroke="black" points="1872.63,-37.16 1880.13,-29.67 1869.6,-30.85 1872.63,-37.16"/>
<text text-anchor="middle" x="1836.5" y="-57.8" font-family="Times,serif" font-size="14.00">dep</text>
</g>
<!-- 23 -->
<g id="node24" class="node">
<title>23</title>
<ellipse fill="none" stroke="black" cx="1973" cy="-18" rx="27" ry="18"/>
<text text-anchor="middle" x="1973" y="-14.3" font-family="Times,serif" font-size="14.00">o</text>
</g>
<!-- 0&#45;&gt;23 -->
<g id="edge23" class="edge">
<title>0&#45;&gt;23</title>
<path fill="none" stroke="black" d="M1484.39,-104.3C1549.45,-104.42 1718.02,-101.3 1854,-69 1885.81,-61.45 1920.01,-46.26 1943.55,-34.6"/>
<polygon fill="black" stroke="black" points="1945.29,-37.64 1952.64,-30.01 1942.13,-31.39 1945.29,-37.64"/>
<text text-anchor="middle" x="1911.5" y="-57.8" font-family="Times,serif" font-size="14.00">dep</text>
</g>
<!-- 24 -->
<g id="node25" class="node">
<title>24</title>
<ellipse fill="none" stroke="black" cx="2049" cy="-18" rx="30.59" ry="18"/>
<text text-anchor="middle" x="2049" y="-14.3" font-family="Times,serif" font-size="14.00">lado</text>
</g>
<!-- 0&#45;&gt;24 -->
<g id="edge24" class="edge">
<title>0&#45;&gt;24</title>
<path fill="none" stroke="black" d="M1484.04,-103.12C1571.1,-100.11 1843.45,-89.27 1929,-69 1960.46,-61.55 1994.29,-46.78 2017.99,-35.21"/>
<polygon fill="black" stroke="black" points="2019.77,-38.23 2027.17,-30.64 2016.66,-31.96 2019.77,-38.23"/>
<text text-anchor="middle" x="1987.5" y="-57.8" font-family="Times,serif" font-size="14.00">dep</text>
</g>
<!-- 25 -->
<g id="node26" class="node">
<title>25</title>
<ellipse fill="none" stroke="black" cx="2125" cy="-18" rx="27" ry="18"/>
<text text-anchor="middle" x="2125" y="-14.3" font-family="Times,serif" font-size="14.00">de</text>
</g>
<!-- 0&#45;&gt;25 -->
<g id="edge25" class="edge">
<title>0&#45;&gt;25</title>
<path fill="none" stroke="black" d="M1483.92,-103.38C1579.74,-101.02 1903.92,-91.5 2005,-69 2037.14,-61.84 2071.62,-46.6 2095.34,-34.82"/>
<polygon fill="black" stroke="black" points="2097.16,-37.82 2104.49,-30.18 2093.99,-31.58 2097.16,-37.82"/>
<text text-anchor="middle" x="2063.5" y="-57.8" font-family="Times,serif" font-size="14.00">dep</text>
</g>
<!-- 26 -->
<g id="node27" class="node">
<title>26</title>
<ellipse fill="none" stroke="black" cx="2197" cy="-18" rx="27" ry="18"/>
<text text-anchor="middle" x="2197" y="-14.3" font-family="Times,serif" font-size="14.00">o</text>
</g>
<!-- 0&#45;&gt;26 -->
<g id="edge26" class="edge">
<title>0&#45;&gt;26</title>
<path fill="none" stroke="black" d="M1484,-103.68C1588.28,-102.28 1964.75,-95.44 2081,-69 2111.87,-61.98 2144.82,-46.97 2167.68,-35.22"/>
<polygon fill="black" stroke="black" points="2169.6,-38.17 2176.82,-30.42 2166.34,-31.97 2169.6,-38.17"/>
<text text-anchor="middle" x="2141.5" y="-57.8" font-family="Times,serif" font-size="14.00">dep</text>
</g>
<!-- 27 -->
<g id="node28" class="node">
<title>27</title>
<ellipse fill="none" stroke="black" cx="2281" cy="-18" rx="38.99" ry="18"/>
<text text-anchor="middle" x="2281" y="-14.3" font-family="Times,serif" font-size="14.00">amigo</text>
</g>
<!-- 0&#45;&gt;27 -->
<g id="edge27" class="edge">
<title>0&#45;&gt;27</title>
<path fill="none" stroke="black" d="M1484.24,-103.87C1596.94,-103.14 2026.95,-98.44 2159,-69 2189.97,-62.1 2223.16,-48.01 2247.1,-36.54"/>
<polygon fill="black" stroke="black" points="2248.66,-39.67 2256.11,-32.14 2245.59,-33.39 2248.66,-39.67"/>
<text text-anchor="middle" x="2217.5" y="-57.8" font-family="Times,serif" font-size="14.00">dep</text>
</g>
<!-- 28 -->
<g id="node29" class="node">
<title>28</title>
<ellipse fill="none" stroke="black" cx="2374" cy="-18" rx="36.29" ry="18"/>
<text text-anchor="middle" x="2374" y="-14.3" font-family="Times,serif" font-size="14.00">Brian</text>
</g>
<!-- 0&#45;&gt;28 -->
<g id="edge28" class="edge">
<title>0&#45;&gt;28</title>
<path fill="none" stroke="black" d="M1484.26,-103.84C1604.34,-102.97 2086.66,-97.73 2235,-69 2271.6,-61.91 2311.45,-46.75 2339.06,-34.97"/>
<polygon fill="black" stroke="black" points="2340.51,-38.16 2348.29,-30.97 2337.72,-31.74 2340.51,-38.16"/>
<text text-anchor="middle" x="2299.5" y="-57.8" font-family="Times,serif" font-size="14.00">dep</text>
</g>
<!-- 29 -->
<g id="node30" class="node">
<title>29</title>
<ellipse fill="none" stroke="black" cx="2488" cy="-18" rx="59.59" ry="18"/>
<text text-anchor="middle" x="2488" y="-14.3" font-family="Times,serif" font-size="14.00">Fagerburg</text>
</g>
<!-- 0&#45;&gt;29 -->
<g id="edge29" class="edge">
<title>0&#45;&gt;29</title>
<path fill="none" stroke="black" d="M1484.06,-103.79C1611.3,-102.64 2150.92,-96.24 2317,-69 2360.34,-61.89 2408.2,-47.29 2442.24,-35.69"/>
<polygon fill="black" stroke="black" points="2443.59,-38.93 2451.9,-32.35 2441.31,-32.31 2443.59,-38.93"/>
<text text-anchor="middle" x="2393.5" y="-57.8" font-family="Times,serif" font-size="14.00">dep</text>
</g>
<!-- 30 -->
<g id="node31" class="node">
<title>30</title>
<ellipse fill="none" stroke="black" cx="2593" cy="-18" rx="27" ry="18"/>
<text text-anchor="middle" x="2593" y="-14.3" font-family="Times,serif" font-size="14.00">,</text>
</g>
<!-- 0&#45;&gt;30 -->
<g id="edge30" class="edge">
<title>0&#45;&gt;30</title>
<path fill="none" stroke="black" d="M1484.22,-103.68C1619.97,-102 2224.67,-93.26 2411,-69 2476.97,-60.41 2494.1,-57.67 2557,-36 2558.91,-35.34 2560.86,-34.61 2562.8,-33.84"/>
<polygon fill="black" stroke="black" points="2564.6,-36.87 2572.38,-29.68 2561.82,-30.45 2564.6,-36.87"/>
<text text-anchor="middle" x="2511.5" y="-57.8" font-family="Times,serif" font-size="14.00">dep</text>
</g>
<!-- 31 -->
<g id="node32" class="node">
<title>31</title>
<ellipse fill="none" stroke="black" cx="2665" cy="-18" rx="27" ry="18"/>
<text text-anchor="middle" x="2665" y="-14.3" font-family="Times,serif" font-size="14.00">24</text>
</g>
<!-- 0&#45;&gt;31 -->
<g id="edge31" class="edge">
<title>0&#45;&gt;31</title>
<path fill="none" stroke="black" d="M1484.2,-104.16C1629.94,-104.87 2319.53,-106.19 2529,-69 2566.72,-62.3 2607.69,-45.88 2634.7,-33.67"/>
<polygon fill="black" stroke="black" points="2636.37,-36.75 2643.98,-29.39 2633.44,-30.4 2636.37,-36.75"/>
<text text-anchor="middle" x="2596.5" y="-57.8" font-family="Times,serif" font-size="14.00">dep</text>
</g>
<!-- 32 -->
<g id="node33" class="node">
<title>32</title>
<ellipse fill="none" stroke="black" cx="2737" cy="-18" rx="27" ry="18"/>
<text text-anchor="middle" x="2737" y="-14.3" font-family="Times,serif" font-size="14.00">.</text>
</g>
<!-- 0&#45;&gt;32 -->
<g id="edge32" class="edge">
<title>0&#45;&gt;32</title>
<path fill="none" stroke="black" d="M1484.16,-103.72C1647.87,-101.94 2500.05,-91.67 2614,-69 2647.53,-62.33 2683.49,-46.61 2707.82,-34.56"/>
<polygon fill="black" stroke="black" points="2709.51,-37.62 2716.85,-29.98 2706.35,-31.38 2709.51,-37.62"/>
<text text-anchor="middle" x="2676.5" y="-57.8" font-family="Times,serif" font-size="14.00">dep</text>
</g>
</g>
</svg>
