<?xml version="1.0" encoding="UTF-8" standalone="no"?>
<!DOCTYPE svg PUBLIC "-//W3C//DTD SVG 1.1//EN"
 "http://www.w3.org/Graphics/SVG/1.1/DTD/svg11.dtd">
<!-- Generated by graphviz version 2.42.4 (0)
 -->
<!-- Pages: 1 -->
<svg width="2465pt" height="131pt"
 viewBox="0.00 0.00 2465.35 131.00" xmlns="http://www.w3.org/2000/svg" xmlns:xlink="http://www.w3.org/1999/xlink">
<g id="graph0" class="graph" transform="scale(1 1) rotate(0) translate(4 127)">
<polygon fill="white" stroke="transparent" points="-4,4 -4,-127 2461.35,-127 2461.35,4 -4,4"/>
<!-- 0 -->
<g id="node1" class="node">
<title>0</title>
<ellipse fill="none" stroke="black" cx="1231.35" cy="-105" rx="27" ry="18"/>
<text text-anchor="middle" x="1231.35" y="-101.3" font-family="Times,serif" font-size="14.00">A</text>
</g>
<!-- 1 -->
<g id="node2" class="node">
<title>1</title>
<ellipse fill="none" stroke="black" cx="51.35" cy="-18" rx="51.19" ry="18"/>
<text text-anchor="middle" x="51.35" y="-14.3" font-family="Times,serif" font-size="14.00">entidade</text>
</g>
<!-- 0&#45;&gt;1 -->
<g id="edge1" class="edge">
<title>0&#45;&gt;1</title>
<path fill="none" stroke="black" d="M1204.3,-103.87C1065.27,-103.09 430.02,-97.95 235.35,-69 187.01,-61.81 133.24,-46.29 96.37,-34.43"/>
<polygon fill="black" stroke="black" points="97.03,-30.97 86.44,-31.2 94.86,-37.62 97.03,-30.97"/>
<text text-anchor="middle" x="248.85" y="-57.8" font-family="Times,serif" font-size="14.00">dep</text>
</g>
<!-- 2 -->
<g id="node3" class="node">
<title>2</title>
<ellipse fill="none" stroke="black" cx="169.35" cy="-18" rx="48.99" ry="18"/>
<text text-anchor="middle" x="169.35" y="-14.3" font-family="Times,serif" font-size="14.00">também</text>
</g>
<!-- 0&#45;&gt;2 -->
<g id="edge2" class="edge">
<title>0&#45;&gt;2</title>
<path fill="none" stroke="black" d="M1204.03,-103.97C1071.77,-103.7 497.18,-100.65 321.35,-69 282.49,-62 239.93,-47.37 209.75,-35.73"/>
<polygon fill="black" stroke="black" points="211,-32.46 200.41,-32.07 208.45,-38.97 211,-32.46"/>
<text text-anchor="middle" x="334.85" y="-57.8" font-family="Times,serif" font-size="14.00">dep</text>
</g>
<!-- 3 -->
<g id="node4" class="node">
<title>3</title>
<ellipse fill="none" stroke="black" cx="263.35" cy="-18" rx="27" ry="18"/>
<text text-anchor="middle" x="263.35" y="-14.3" font-family="Times,serif" font-size="14.00">se</text>
</g>
<!-- 0&#45;&gt;3 -->
<g id="edge3" class="edge">
<title>0&#45;&gt;3</title>
<path fill="none" stroke="black" d="M1204.29,-103.62C1081.76,-101.8 578.14,-92.97 422.35,-69 366.4,-60.39 352.48,-55.5 299.35,-36 297.5,-35.32 295.61,-34.58 293.72,-33.81"/>
<polygon fill="black" stroke="black" points="294.96,-30.53 284.4,-29.71 292.15,-36.94 294.96,-30.53"/>
<text text-anchor="middle" x="435.85" y="-57.8" font-family="Times,serif" font-size="14.00">dep</text>
</g>
<!-- 4 -->
<g id="node5" class="node">
<title>4</title>
<ellipse fill="none" stroke="black" cx="355.35" cy="-18" rx="47.39" ry="18"/>
<text text-anchor="middle" x="355.35" y="-14.3" font-family="Times,serif" font-size="14.00">queixou</text>
</g>
<!-- 0&#45;&gt;4 -->
<g id="edge4" class="edge">
<title>0&#45;&gt;4</title>
<path fill="none" stroke="black" d="M1204.16,-103.65C1089.69,-102.01 646.52,-94.13 509.35,-69 469.8,-61.76 426.37,-47 395.75,-35.39"/>
<polygon fill="black" stroke="black" points="396.86,-32.07 386.27,-31.74 394.35,-38.6 396.86,-32.07"/>
<text text-anchor="middle" x="522.85" y="-57.8" font-family="Times,serif" font-size="14.00">dep</text>
</g>
<!-- 5 -->
<g id="node6" class="node">
<title>5</title>
<ellipse fill="none" stroke="black" cx="447.35" cy="-18" rx="27" ry="18"/>
<text text-anchor="middle" x="447.35" y="-14.3" font-family="Times,serif" font-size="14.00">de</text>
</g>
<!-- 0&#45;&gt;5 -->
<g id="edge5" class="edge">
<title>0&#45;&gt;5</title>
<path fill="none" stroke="black" d="M1204.18,-104.25C1117.76,-104.67 841.58,-103.05 616.35,-69 556.13,-59.9 540.72,-56.44 483.35,-36 481.44,-35.32 479.5,-34.58 477.56,-33.79"/>
<polygon fill="black" stroke="black" points="478.55,-30.4 467.99,-29.6 475.75,-36.82 478.55,-30.4"/>
<text text-anchor="middle" x="629.85" y="-57.8" font-family="Times,serif" font-size="14.00">dep</text>
</g>
<!-- 6 -->
<g id="node7" class="node">
<title>6</title>
<ellipse fill="none" stroke="black" cx="548.35" cy="-18" rx="55.79" ry="18"/>
<text text-anchor="middle" x="548.35" y="-14.3" font-family="Times,serif" font-size="14.00">aumentos</text>
</g>
<!-- 0&#45;&gt;6 -->
<g id="edge6" class="edge">
<title>0&#45;&gt;6</title>
<path fill="none" stroke="black" d="M1204.12,-104.54C1125.63,-105.58 892.38,-105.18 703.35,-69 664.63,-61.59 622.11,-47.42 591.42,-36.05"/>
<polygon fill="black" stroke="black" points="592.48,-32.71 581.89,-32.47 590.02,-39.27 592.48,-32.71"/>
<text text-anchor="middle" x="716.85" y="-57.8" font-family="Times,serif" font-size="14.00">dep</text>
</g>
<!-- 7 -->
<g id="node8" class="node">
<title>7</title>
<ellipse fill="none" stroke="black" cx="650.35" cy="-18" rx="27.9" ry="18"/>
<text text-anchor="middle" x="650.35" y="-14.3" font-family="Times,serif" font-size="14.00">que</text>
</g>
<!-- 0&#45;&gt;7 -->
<g id="edge7" class="edge">
<title>0&#45;&gt;7</title>
<path fill="none" stroke="black" d="M1204.33,-104.08C1134.68,-103.81 943.62,-100.04 788.35,-69 742.04,-59.74 731.32,-53.22 687.35,-36 685.47,-35.27 683.55,-34.48 681.63,-33.67"/>
<polygon fill="black" stroke="black" points="682.64,-30.3 672.08,-29.49 679.83,-36.71 682.64,-30.3"/>
<text text-anchor="middle" x="801.85" y="-57.8" font-family="Times,serif" font-size="14.00">dep</text>
</g>
<!-- 8 -->
<g id="node9" class="node">
<title>8</title>
<ellipse fill="none" stroke="black" cx="739.35" cy="-18" rx="42.79" ry="18"/>
<text text-anchor="middle" x="739.35" y="-14.3" font-family="Times,serif" font-size="14.00">variam</text>
</g>
<!-- 0&#45;&gt;8 -->
<g id="edge8" class="edge">
<title>0&#45;&gt;8</title>
<path fill="none" stroke="black" d="M1204.28,-104C1143.03,-103.45 989.45,-98.92 865.35,-69 834.04,-61.45 800.2,-47.69 775.48,-36.51"/>
<polygon fill="black" stroke="black" points="776.7,-33.22 766.15,-32.22 773.77,-39.57 776.7,-33.22"/>
<text text-anchor="middle" x="878.85" y="-57.8" font-family="Times,serif" font-size="14.00">dep</text>
</g>
<!-- 9 -->
<g id="node10" class="node">
<title>9</title>
<ellipse fill="none" stroke="black" cx="827.35" cy="-18" rx="27" ry="18"/>
<text text-anchor="middle" x="827.35" y="-14.3" font-family="Times,serif" font-size="14.00">de</text>
</g>
<!-- 0&#45;&gt;9 -->
<g id="edge9" class="edge">
<title>0&#45;&gt;9</title>
<path fill="none" stroke="black" d="M1204.37,-103.54C1151.83,-102.06 1032.49,-95.75 936.35,-69 907.87,-61.08 877.45,-46.56 856,-35.2"/>
<polygon fill="black" stroke="black" points="857.57,-32.07 847.1,-30.4 854.24,-38.23 857.57,-32.07"/>
<text text-anchor="middle" x="949.85" y="-57.8" font-family="Times,serif" font-size="14.00">dep</text>
</g>
<!-- 10 -->
<g id="node11" class="node">
<title>10</title>
<ellipse fill="none" stroke="black" cx="899.35" cy="-18" rx="27" ry="18"/>
<text text-anchor="middle" x="899.35" y="-14.3" font-family="Times,serif" font-size="14.00">5,5</text>
</g>
<!-- 0&#45;&gt;10 -->
<g id="edge10" class="edge">
<title>0&#45;&gt;10</title>
<path fill="none" stroke="black" d="M1204.48,-102.27C1161.73,-98.97 1075.95,-90.13 1006.35,-69 978.78,-60.63 949.25,-46.39 928.21,-35.24"/>
<polygon fill="black" stroke="black" points="929.64,-32.04 919.17,-30.37 926.31,-38.2 929.64,-32.04"/>
<text text-anchor="middle" x="1019.85" y="-57.8" font-family="Times,serif" font-size="14.00">dep</text>
</g>
<!-- 11 -->
<g id="node12" class="node">
<title>11</title>
<ellipse fill="none" stroke="black" cx="971.35" cy="-18" rx="27" ry="18"/>
<text text-anchor="middle" x="971.35" y="-14.3" font-family="Times,serif" font-size="14.00">%</text>
</g>
<!-- 0&#45;&gt;11 -->
<g id="edge11" class="edge">
<title>0&#45;&gt;11</title>
<path fill="none" stroke="black" d="M1205.02,-100.3C1172.85,-95.31 1117.06,-85.15 1071.35,-69 1046.34,-60.17 1019.54,-46.52 999.98,-35.71"/>
<polygon fill="black" stroke="black" points="1001.44,-32.51 991,-30.67 998.01,-38.62 1001.44,-32.51"/>
<text text-anchor="middle" x="1084.85" y="-57.8" font-family="Times,serif" font-size="14.00">dep</text>
</g>
<!-- 12 -->
<g id="node13" class="node">
<title>12</title>
<ellipse fill="none" stroke="black" cx="1043.35" cy="-18" rx="27" ry="18"/>
<text text-anchor="middle" x="1043.35" y="-14.3" font-family="Times,serif" font-size="14.00">a</text>
</g>
<!-- 0&#45;&gt;12 -->
<g id="edge12" class="edge">
<title>0&#45;&gt;12</title>
<path fill="none" stroke="black" d="M1207.03,-96.84C1186.48,-90.47 1156.46,-80.42 1131.35,-69 1110.56,-59.55 1088.2,-46.81 1071.23,-36.56"/>
<polygon fill="black" stroke="black" points="1072.75,-33.39 1062.39,-31.15 1069.1,-39.36 1072.75,-33.39"/>
<text text-anchor="middle" x="1144.85" y="-57.8" font-family="Times,serif" font-size="14.00">dep</text>
</g>
<!-- 13 -->
<g id="node14" class="node">
<title>13</title>
<ellipse fill="none" stroke="black" cx="1119.35" cy="-18" rx="31.4" ry="18"/>
<text text-anchor="middle" x="1119.35" y="-14.3" font-family="Times,serif" font-size="14.00">11,5</text>
</g>
<!-- 0&#45;&gt;13 -->
<g id="edge13" class="edge">
<title>0&#45;&gt;13</title>
<path fill="none" stroke="black" d="M1212.67,-91.74C1202.9,-85.18 1190.82,-76.87 1180.35,-69 1168.13,-59.83 1154.98,-49.15 1144.02,-40.03"/>
<polygon fill="black" stroke="black" points="1146.04,-37.15 1136.13,-33.4 1141.54,-42.51 1146.04,-37.15"/>
<text text-anchor="middle" x="1193.85" y="-57.8" font-family="Times,serif" font-size="14.00">dep</text>
</g>
<!-- 14 -->
<g id="node15" class="node">
<title>14</title>
<ellipse fill="none" stroke="black" cx="1195.35" cy="-18" rx="27" ry="18"/>
<text text-anchor="middle" x="1195.35" y="-14.3" font-family="Times,serif" font-size="14.00">%</text>
</g>
<!-- 0&#45;&gt;14 -->
<g id="edge14" class="edge">
<title>0&#45;&gt;14</title>
<path fill="none" stroke="black" d="M1224.23,-87.21C1219.12,-75.14 1212.13,-58.64 1206.31,-44.89"/>
<polygon fill="black" stroke="black" points="1209.44,-43.31 1202.32,-35.47 1203,-46.04 1209.44,-43.31"/>
<text text-anchor="middle" x="1229.85" y="-57.8" font-family="Times,serif" font-size="14.00">dep</text>
</g>
<!-- 15 -->
<g id="node16" class="node">
<title>15</title>
<ellipse fill="none" stroke="black" cx="1267.35" cy="-18" rx="27" ry="18"/>
<text text-anchor="middle" x="1267.35" y="-14.3" font-family="Times,serif" font-size="14.00">em</text>
</g>
<!-- 0&#45;&gt;15 -->
<g id="edge15" class="edge">
<title>0&#45;&gt;15</title>
<path fill="none" stroke="black" d="M1238.46,-87.21C1243.57,-75.14 1250.56,-58.64 1256.38,-44.89"/>
<polygon fill="black" stroke="black" points="1259.69,-46.04 1260.37,-35.47 1253.25,-43.31 1259.69,-46.04"/>
<text text-anchor="middle" x="1265.85" y="-57.8" font-family="Times,serif" font-size="14.00">dep</text>
</g>
<!-- 16 -->
<g id="node17" class="node">
<title>16</title>
<ellipse fill="none" stroke="black" cx="1339.35" cy="-18" rx="27" ry="18"/>
<text text-anchor="middle" x="1339.35" y="-14.3" font-family="Times,serif" font-size="14.00">o</text>
</g>
<!-- 0&#45;&gt;16 -->
<g id="edge16" class="edge">
<title>0&#45;&gt;16</title>
<path fill="none" stroke="black" d="M1250.56,-91.97C1260.56,-85.48 1272.86,-77.15 1283.35,-69 1294.88,-60.04 1307.04,-49.34 1317.08,-40.15"/>
<polygon fill="black" stroke="black" points="1319.66,-42.52 1324.61,-33.16 1314.9,-37.39 1319.66,-42.52"/>
<text text-anchor="middle" x="1314.85" y="-57.8" font-family="Times,serif" font-size="14.00">dep</text>
</g>
<!-- 17 -->
<g id="node18" class="node">
<title>17</title>
<ellipse fill="none" stroke="black" cx="1420.35" cy="-18" rx="36" ry="18"/>
<text text-anchor="middle" x="1420.35" y="-14.3" font-family="Times,serif" font-size="14.00">custo</text>
</g>
<!-- 0&#45;&gt;17 -->
<g id="edge17" class="edge">
<title>0&#45;&gt;17</title>
<path fill="none" stroke="black" d="M1255.91,-96.87C1276.67,-90.52 1306.99,-80.48 1332.35,-69 1352.2,-60.01 1373.47,-48 1390.13,-38"/>
<polygon fill="black" stroke="black" points="1392.14,-40.87 1398.87,-32.68 1388.51,-34.89 1392.14,-40.87"/>
<text text-anchor="middle" x="1375.85" y="-57.8" font-family="Times,serif" font-size="14.00">dep</text>
</g>
<!-- 18 -->
<g id="node19" class="node">
<title>18</title>
<ellipse fill="none" stroke="black" cx="1501.35" cy="-18" rx="27" ry="18"/>
<text text-anchor="middle" x="1501.35" y="-14.3" font-family="Times,serif" font-size="14.00">de</text>
</g>
<!-- 0&#45;&gt;18 -->
<g id="edge18" class="edge">
<title>0&#45;&gt;18</title>
<path fill="none" stroke="black" d="M1257.62,-100.13C1290.06,-94.93 1346.66,-84.54 1393.35,-69 1426.75,-57.88 1433.43,-50.85 1465.35,-36 1467.13,-35.17 1468.97,-34.31 1470.82,-33.45"/>
<polygon fill="black" stroke="black" points="1472.48,-36.53 1480.04,-29.11 1469.51,-30.2 1472.48,-36.53"/>
<text text-anchor="middle" x="1442.85" y="-57.8" font-family="Times,serif" font-size="14.00">dep</text>
</g>
<!-- 19 -->
<g id="node20" class="node">
<title>19</title>
<ellipse fill="none" stroke="black" cx="1588.35" cy="-18" rx="41.69" ry="18"/>
<text text-anchor="middle" x="1588.35" y="-14.3" font-family="Times,serif" font-size="14.00">alguns</text>
</g>
<!-- 0&#45;&gt;19 -->
<g id="edge19" class="edge">
<title>0&#45;&gt;19</title>
<path fill="none" stroke="black" d="M1258.19,-101.83C1301.37,-97.92 1388.67,-88.22 1460.35,-69 1492.02,-60.51 1526.57,-46.72 1551.79,-35.77"/>
<polygon fill="black" stroke="black" points="1553.23,-38.96 1560.97,-31.73 1550.41,-32.56 1553.23,-38.96"/>
<text text-anchor="middle" x="1517.85" y="-57.8" font-family="Times,serif" font-size="14.00">dep</text>
</g>
<!-- 20 -->
<g id="node21" class="node">
<title>20</title>
<ellipse fill="none" stroke="black" cx="1698.35" cy="-18" rx="50.89" ry="18"/>
<text text-anchor="middle" x="1698.35" y="-14.3" font-family="Times,serif" font-size="14.00">fundidos</text>
</g>
<!-- 0&#45;&gt;20 -->
<g id="edge20" class="edge">
<title>0&#45;&gt;20</title>
<path fill="none" stroke="black" d="M1258.45,-102.55C1311.9,-99.32 1434.46,-90.09 1535.35,-69 1576.44,-60.41 1622.03,-45.99 1654.52,-34.84"/>
<polygon fill="black" stroke="black" points="1655.86,-38.08 1664.16,-31.49 1653.57,-31.46 1655.86,-38.08"/>
<text text-anchor="middle" x="1603.85" y="-57.8" font-family="Times,serif" font-size="14.00">dep</text>
</g>
<!-- 21 -->
<g id="node22" class="node">
<title>21</title>
<ellipse fill="none" stroke="black" cx="1794.35" cy="-18" rx="27" ry="18"/>
<text text-anchor="middle" x="1794.35" y="-14.3" font-family="Times,serif" font-size="14.00">,</text>
</g>
<!-- 0&#45;&gt;21 -->
<g id="edge21" class="edge">
<title>0&#45;&gt;21</title>
<path fill="none" stroke="black" d="M1258.47,-102.94C1322.17,-100.15 1486.18,-91.22 1621.35,-69 1683.15,-58.84 1699.27,-56.81 1758.35,-36 1760.25,-35.33 1762.19,-34.59 1764.14,-33.8"/>
<polygon fill="black" stroke="black" points="1765.94,-36.83 1773.71,-29.63 1763.14,-30.42 1765.94,-36.83"/>
<text text-anchor="middle" x="1713.85" y="-57.8" font-family="Times,serif" font-size="14.00">dep</text>
</g>
<!-- 22 -->
<g id="node23" class="node">
<title>22</title>
<ellipse fill="none" stroke="black" cx="1887.35" cy="-18" rx="48.19" ry="18"/>
<text text-anchor="middle" x="1887.35" y="-14.3" font-family="Times,serif" font-size="14.00">forjados</text>
</g>
<!-- 0&#45;&gt;22 -->
<g id="edge22" class="edge">
<title>0&#45;&gt;22</title>
<path fill="none" stroke="black" d="M1258.47,-104.37C1334.09,-104.93 1553.39,-103.23 1731.35,-69 1771.16,-61.34 1815.01,-46.71 1846.06,-35.24"/>
<polygon fill="black" stroke="black" points="1847.53,-38.43 1855.67,-31.64 1845.07,-31.87 1847.53,-38.43"/>
<text text-anchor="middle" x="1801.85" y="-57.8" font-family="Times,serif" font-size="14.00">dep</text>
</g>
<!-- 23 -->
<g id="node24" class="node">
<title>23</title>
<ellipse fill="none" stroke="black" cx="1980.35" cy="-18" rx="27" ry="18"/>
<text text-anchor="middle" x="1980.35" y="-14.3" font-family="Times,serif" font-size="14.00">,</text>
</g>
<!-- 0&#45;&gt;23 -->
<g id="edge23" class="edge">
<title>0&#45;&gt;23</title>
<path fill="none" stroke="black" d="M1258.51,-104.29C1342.51,-104.79 1605.27,-103.28 1819.35,-69 1876.08,-59.91 1890.36,-55.68 1944.35,-36 1946.2,-35.33 1948.08,-34.59 1949.97,-33.82"/>
<polygon fill="black" stroke="black" points="1951.55,-36.95 1959.3,-29.73 1948.74,-30.54 1951.55,-36.95"/>
<text text-anchor="middle" x="1904.85" y="-57.8" font-family="Times,serif" font-size="14.00">dep</text>
</g>
<!-- 24 -->
<g id="node25" class="node">
<title>24</title>
<ellipse fill="none" stroke="black" cx="2052.35" cy="-18" rx="27" ry="18"/>
<text text-anchor="middle" x="2052.35" y="-14.3" font-family="Times,serif" font-size="14.00">aço</text>
</g>
<!-- 0&#45;&gt;24 -->
<g id="edge24" class="edge">
<title>0&#45;&gt;24</title>
<path fill="none" stroke="black" d="M1258.5,-103.66C1369.86,-102.12 1791.81,-94.66 1922.35,-69 1957.9,-62.01 1996.38,-46.07 2022.17,-34.05"/>
<polygon fill="black" stroke="black" points="2023.87,-37.12 2031.4,-29.67 2020.87,-30.8 2023.87,-37.12"/>
<text text-anchor="middle" x="1987.85" y="-57.8" font-family="Times,serif" font-size="14.00">dep</text>
</g>
<!-- 25 -->
<g id="node26" class="node">
<title>25</title>
<ellipse fill="none" stroke="black" cx="2133.35" cy="-18" rx="36.29" ry="18"/>
<text text-anchor="middle" x="2133.35" y="-14.3" font-family="Times,serif" font-size="14.00">plano</text>
</g>
<!-- 0&#45;&gt;25 -->
<g id="edge25" class="edge">
<title>0&#45;&gt;25</title>
<path fill="none" stroke="black" d="M1258.49,-103.96C1378.06,-103.59 1858.29,-100.16 2005.35,-69 2038.46,-61.98 2074.18,-47.39 2099.45,-35.77"/>
<polygon fill="black" stroke="black" points="2101.03,-38.89 2108.6,-31.48 2098.06,-32.56 2101.03,-38.89"/>
<text text-anchor="middle" x="2065.85" y="-57.8" font-family="Times,serif" font-size="14.00">dep</text>
</g>
<!-- 26 -->
<g id="node27" class="node">
<title>26</title>
<ellipse fill="none" stroke="black" cx="2214.35" cy="-18" rx="27" ry="18"/>
<text text-anchor="middle" x="2214.35" y="-14.3" font-family="Times,serif" font-size="14.00">e</text>
</g>
<!-- 0&#45;&gt;26 -->
<g id="edge26" class="edge">
<title>0&#45;&gt;26</title>
<path fill="none" stroke="black" d="M1258.6,-103.95C1385.57,-103.56 1919.72,-100.08 2083.35,-69 2119.18,-62.19 2157.95,-46.22 2183.94,-34.15"/>
<polygon fill="black" stroke="black" points="2185.71,-37.19 2193.24,-29.74 2182.71,-30.86 2185.71,-37.19"/>
<text text-anchor="middle" x="2148.85" y="-57.8" font-family="Times,serif" font-size="14.00">dep</text>
</g>
<!-- 27 -->
<g id="node28" class="node">
<title>27</title>
<ellipse fill="none" stroke="black" cx="2322.35" cy="-18" rx="63.09" ry="18"/>
<text text-anchor="middle" x="2322.35" y="-14.3" font-family="Times,serif" font-size="14.00">rolamentos</text>
</g>
<!-- 0&#45;&gt;27 -->
<g id="edge27" class="edge">
<title>0&#45;&gt;27</title>
<path fill="none" stroke="black" d="M1258.51,-103.98C1392.66,-103.73 1985.15,-100.81 2166.35,-69 2205.02,-62.21 2247.35,-48.2 2278.15,-36.74"/>
<polygon fill="black" stroke="black" points="2279.61,-39.93 2287.72,-33.11 2277.13,-33.38 2279.61,-39.93"/>
<text text-anchor="middle" x="2236.85" y="-57.8" font-family="Times,serif" font-size="14.00">dep</text>
</g>
<!-- 28 -->
<g id="node29" class="node">
<title>28</title>
<ellipse fill="none" stroke="black" cx="2430.35" cy="-18" rx="27" ry="18"/>
<text text-anchor="middle" x="2430.35" y="-14.3" font-family="Times,serif" font-size="14.00">.</text>
</g>
<!-- 0&#45;&gt;28 -->
<g id="edge28" class="edge">
<title>0&#45;&gt;28</title>
<path fill="none" stroke="black" d="M1258.64,-103.79C1400.4,-102.62 2053.76,-95.8 2254.35,-69 2317.71,-60.53 2334,-57.1 2394.35,-36 2396.25,-35.33 2398.2,-34.6 2400.14,-33.81"/>
<polygon fill="black" stroke="black" points="2401.94,-36.85 2409.72,-29.65 2399.15,-30.43 2401.94,-36.85"/>
<text text-anchor="middle" x="2350.85" y="-57.8" font-family="Times,serif" font-size="14.00">dep</text>
</g>
</g>
</svg>
