<?xml version="1.0" encoding="UTF-8" standalone="no"?>
<!DOCTYPE svg PUBLIC "-//W3C//DTD SVG 1.1//EN"
 "http://www.w3.org/Graphics/SVG/1.1/DTD/svg11.dtd">
<!-- Generated by graphviz version 2.42.4 (0)
 -->
<!-- Pages: 1 -->
<svg width="3590pt" height="131pt"
 viewBox="0.00 0.00 3590.00 131.00" xmlns="http://www.w3.org/2000/svg" xmlns:xlink="http://www.w3.org/1999/xlink">
<g id="graph0" class="graph" transform="scale(1 1) rotate(0) translate(4 127)">
<polygon fill="white" stroke="transparent" points="-4,4 -4,-127 3586,-127 3586,4 -4,4"/>
<!-- 0 -->
<g id="node1" class="node">
<title>0</title>
<ellipse fill="none" stroke="black" cx="1877" cy="-105" rx="27" ry="18"/>
<text text-anchor="middle" x="1877" y="-101.3" font-family="Times,serif" font-size="14.00">«</text>
</g>
<!-- 1 -->
<g id="node2" class="node">
<title>1</title>
<ellipse fill="none" stroke="black" cx="27" cy="-18" rx="27" ry="18"/>
<text text-anchor="middle" x="27" y="-14.3" font-family="Times,serif" font-size="14.00">As</text>
</g>
<!-- 0&#45;&gt;1 -->
<g id="edge1" class="edge">
<title>0&#45;&gt;1</title>
<path fill="none" stroke="black" d="M1849.85,-103.77C1647.39,-101.98 376.44,-89.97 207,-69 141.84,-60.94 125.05,-57.48 63,-36 61.09,-35.34 59.15,-34.61 57.2,-33.83"/>
<polygon fill="black" stroke="black" points="58.19,-30.44 47.62,-29.67 55.4,-36.86 58.19,-30.44"/>
<text text-anchor="middle" x="220.5" y="-57.8" font-family="Times,serif" font-size="14.00">dep</text>
</g>
<!-- 2 -->
<g id="node3" class="node">
<title>2</title>
<ellipse fill="none" stroke="black" cx="128" cy="-18" rx="55.79" ry="18"/>
<text text-anchor="middle" x="128" y="-14.3" font-family="Times,serif" font-size="14.00">empresas</text>
</g>
<!-- 0&#45;&gt;2 -->
<g id="edge2" class="edge">
<title>0&#45;&gt;2</title>
<path fill="none" stroke="black" d="M1849.94,-103.8C1654.86,-102.32 466.27,-92.37 308,-69 261.37,-62.11 209.67,-46.93 173.69,-35.09"/>
<polygon fill="black" stroke="black" points="174.56,-31.69 163.97,-31.85 172.35,-38.34 174.56,-31.69"/>
<text text-anchor="middle" x="321.5" y="-57.8" font-family="Times,serif" font-size="14.00">dep</text>
</g>
<!-- 3 -->
<g id="node4" class="node">
<title>3</title>
<ellipse fill="none" stroke="black" cx="252" cy="-18" rx="50.09" ry="18"/>
<text text-anchor="middle" x="252" y="-14.3" font-family="Times,serif" font-size="14.00">notaram</text>
</g>
<!-- 0&#45;&gt;3 -->
<g id="edge3" class="edge">
<title>0&#45;&gt;3</title>
<path fill="none" stroke="black" d="M1849.94,-103.87C1661.07,-102.89 543.28,-95.98 395,-69 358.89,-62.43 319.66,-48.17 291.44,-36.55"/>
<polygon fill="black" stroke="black" points="292.51,-33.2 281.94,-32.57 289.8,-39.66 292.51,-33.2"/>
<text text-anchor="middle" x="408.5" y="-57.8" font-family="Times,serif" font-size="14.00">dep</text>
</g>
<!-- 4 -->
<g id="node5" class="node">
<title>4</title>
<ellipse fill="none" stroke="black" cx="348" cy="-18" rx="27.9" ry="18"/>
<text text-anchor="middle" x="348" y="-14.3" font-family="Times,serif" font-size="14.00">que</text>
</g>
<!-- 0&#45;&gt;4 -->
<g id="edge4" class="edge">
<title>0&#45;&gt;4</title>
<path fill="none" stroke="black" d="M1849.96,-103.85C1667.21,-102.75 615.64,-95.34 476,-69 441.08,-62.41 403.45,-46.56 378.1,-34.46"/>
<polygon fill="black" stroke="black" points="379.54,-31.26 369.01,-30.03 376.47,-37.56 379.54,-31.26"/>
<text text-anchor="middle" x="489.5" y="-57.8" font-family="Times,serif" font-size="14.00">dep</text>
</g>
<!-- 5 -->
<g id="node6" class="node">
<title>5</title>
<ellipse fill="none" stroke="black" cx="421" cy="-18" rx="27" ry="18"/>
<text text-anchor="middle" x="421" y="-14.3" font-family="Times,serif" font-size="14.00">sua</text>
</g>
<!-- 0&#45;&gt;5 -->
<g id="edge5" class="edge">
<title>0&#45;&gt;5</title>
<path fill="none" stroke="black" d="M1849.98,-104.22C1686.63,-105.42 829.29,-109.64 570,-69 518.31,-60.9 505.92,-54.56 457,-36 455.16,-35.3 453.28,-34.55 451.4,-33.76"/>
<polygon fill="black" stroke="black" points="452.64,-30.48 442.08,-29.63 449.81,-36.88 452.64,-30.48"/>
<text text-anchor="middle" x="583.5" y="-57.8" font-family="Times,serif" font-size="14.00">dep</text>
</g>
<!-- 6 -->
<g id="node7" class="node">
<title>6</title>
<ellipse fill="none" stroke="black" cx="514" cy="-18" rx="48.19" ry="18"/>
<text text-anchor="middle" x="514" y="-14.3" font-family="Times,serif" font-size="14.00">imagem</text>
</g>
<!-- 0&#45;&gt;6 -->
<g id="edge6" class="edge">
<title>0&#45;&gt;6</title>
<path fill="none" stroke="black" d="M1850.01,-103.73C1681.47,-101.96 776.93,-91.46 656,-69 620.03,-62.32 580.93,-47.99 552.89,-36.38"/>
<polygon fill="black" stroke="black" points="554.03,-33.06 543.45,-32.4 551.31,-39.51 554.03,-33.06"/>
<text text-anchor="middle" x="669.5" y="-57.8" font-family="Times,serif" font-size="14.00">dep</text>
</g>
<!-- 7 -->
<g id="node8" class="node">
<title>7</title>
<ellipse fill="none" stroke="black" cx="607" cy="-18" rx="27" ry="18"/>
<text text-anchor="middle" x="607" y="-14.3" font-family="Times,serif" font-size="14.00">é</text>
</g>
<!-- 0&#45;&gt;7 -->
<g id="edge7" class="edge">
<title>0&#45;&gt;7</title>
<path fill="none" stroke="black" d="M1850.04,-103.65C1688.42,-101.52 851.35,-89.55 739,-69 702.66,-62.35 663.35,-46.2 637.17,-34.04"/>
<polygon fill="black" stroke="black" points="638.34,-30.72 627.81,-29.6 635.34,-37.05 638.34,-30.72"/>
<text text-anchor="middle" x="752.5" y="-57.8" font-family="Times,serif" font-size="14.00">dep</text>
</g>
<!-- 8 -->
<g id="node9" class="node">
<title>8</title>
<ellipse fill="none" stroke="black" cx="679" cy="-18" rx="27" ry="18"/>
<text text-anchor="middle" x="679" y="-14.3" font-family="Times,serif" font-size="14.00">a</text>
</g>
<!-- 0&#45;&gt;8 -->
<g id="edge8" class="edge">
<title>0&#45;&gt;8</title>
<path fill="none" stroke="black" d="M1850.03,-103.84C1708.53,-102.88 1050.65,-96.95 849,-69 788.25,-60.58 772.8,-56.53 715,-36 713.09,-35.32 711.16,-34.58 709.21,-33.79"/>
<polygon fill="black" stroke="black" points="710.21,-30.41 699.64,-29.61 707.4,-36.82 710.21,-30.41"/>
<text text-anchor="middle" x="862.5" y="-57.8" font-family="Times,serif" font-size="14.00">dep</text>
</g>
<!-- 9 -->
<g id="node10" class="node">
<title>9</title>
<ellipse fill="none" stroke="black" cx="762" cy="-18" rx="37.89" ry="18"/>
<text text-anchor="middle" x="762" y="-14.3" font-family="Times,serif" font-size="14.00">maior</text>
</g>
<!-- 0&#45;&gt;9 -->
<g id="edge9" class="edge">
<title>0&#45;&gt;9</title>
<path fill="none" stroke="black" d="M1849.76,-104.42C1740.32,-105.77 1322.04,-107.97 981,-69 903.23,-60.11 883.41,-56.97 808,-36 805.23,-35.23 802.39,-34.37 799.55,-33.45"/>
<polygon fill="black" stroke="black" points="800.57,-30.1 789.98,-30.18 798.31,-36.72 800.57,-30.1"/>
<text text-anchor="middle" x="994.5" y="-57.8" font-family="Times,serif" font-size="14.00">dep</text>
</g>
<!-- 10 -->
<g id="node11" class="node">
<title>10</title>
<ellipse fill="none" stroke="black" cx="883" cy="-18" rx="65.79" ry="18"/>
<text text-anchor="middle" x="883" y="-14.3" font-family="Times,serif" font-size="14.00">prejudicada</text>
</g>
<!-- 0&#45;&gt;10 -->
<g id="edge10" class="edge">
<title>0&#45;&gt;10</title>
<path fill="none" stroke="black" d="M1850.09,-103.53C1729.33,-101.33 1236.75,-91.14 1084,-69 1032.49,-61.53 974.98,-46.53 934.71,-34.89"/>
<polygon fill="black" stroke="black" points="935.44,-31.46 924.86,-32.02 933.48,-38.18 935.44,-31.46"/>
<text text-anchor="middle" x="1097.5" y="-57.8" font-family="Times,serif" font-size="14.00">dep</text>
</g>
<!-- 11 -->
<g id="node12" class="node">
<title>11</title>
<ellipse fill="none" stroke="black" cx="1011" cy="-18" rx="44.69" ry="18"/>
<text text-anchor="middle" x="1011" y="-14.3" font-family="Times,serif" font-size="14.00">quando</text>
</g>
<!-- 0&#45;&gt;11 -->
<g id="edge11" class="edge">
<title>0&#45;&gt;11</title>
<path fill="none" stroke="black" d="M1849.75,-103.54C1736.99,-101.51 1306.65,-92.37 1173,-69 1130.7,-61.6 1083.99,-46.4 1051.64,-34.68"/>
<polygon fill="black" stroke="black" points="1052.68,-31.34 1042.08,-31.17 1050.26,-37.91 1052.68,-31.34"/>
<text text-anchor="middle" x="1186.5" y="-57.8" font-family="Times,serif" font-size="14.00">dep</text>
</g>
<!-- 12 -->
<g id="node13" class="node">
<title>12</title>
<ellipse fill="none" stroke="black" cx="1101" cy="-18" rx="27" ry="18"/>
<text text-anchor="middle" x="1101" y="-14.3" font-family="Times,serif" font-size="14.00">um</text>
</g>
<!-- 0&#45;&gt;12 -->
<g id="edge12" class="edge">
<title>0&#45;&gt;12</title>
<path fill="none" stroke="black" d="M1849.93,-103.57C1767.97,-102.02 1515.42,-95.28 1308,-69 1231.21,-59.27 1210.57,-60.05 1137,-36 1135.08,-35.37 1133.13,-34.67 1131.17,-33.91"/>
<polygon fill="black" stroke="black" points="1132.15,-30.52 1121.58,-29.8 1129.39,-36.95 1132.15,-30.52"/>
<text text-anchor="middle" x="1321.5" y="-57.8" font-family="Times,serif" font-size="14.00">dep</text>
</g>
<!-- 13 -->
<g id="node14" class="node">
<title>13</title>
<ellipse fill="none" stroke="black" cx="1209" cy="-18" rx="63.09" ry="18"/>
<text text-anchor="middle" x="1209" y="-14.3" font-family="Times,serif" font-size="14.00">funcionário</text>
</g>
<!-- 0&#45;&gt;13 -->
<g id="edge13" class="edge">
<title>0&#45;&gt;13</title>
<path fill="none" stroke="black" d="M1850.02,-103.55C1778.19,-102.02 1576.43,-95.49 1411,-69 1359.09,-60.69 1300.94,-45.67 1260.4,-34.26"/>
<polygon fill="black" stroke="black" points="1261.32,-30.88 1250.75,-31.51 1259.41,-37.61 1261.32,-30.88"/>
<text text-anchor="middle" x="1424.5" y="-57.8" font-family="Times,serif" font-size="14.00">dep</text>
</g>
<!-- 14 -->
<g id="node15" class="node">
<title>14</title>
<ellipse fill="none" stroke="black" cx="1334" cy="-18" rx="44.39" ry="18"/>
<text text-anchor="middle" x="1334" y="-14.3" font-family="Times,serif" font-size="14.00">comete</text>
</g>
<!-- 0&#45;&gt;14 -->
<g id="edge14" class="edge">
<title>0&#45;&gt;14</title>
<path fill="none" stroke="black" d="M1849.93,-103.2C1787.89,-101 1630.83,-93.28 1502,-69 1457.91,-60.69 1408.88,-45.37 1375.22,-33.86"/>
<polygon fill="black" stroke="black" points="1376.32,-30.54 1365.72,-30.58 1374.03,-37.16 1376.32,-30.54"/>
<text text-anchor="middle" x="1515.5" y="-57.8" font-family="Times,serif" font-size="14.00">dep</text>
</g>
<!-- 15 -->
<g id="node16" class="node">
<title>15</title>
<ellipse fill="none" stroke="black" cx="1427" cy="-18" rx="30.59" ry="18"/>
<text text-anchor="middle" x="1427" y="-14.3" font-family="Times,serif" font-size="14.00">uma</text>
</g>
<!-- 0&#45;&gt;15 -->
<g id="edge15" class="edge">
<title>0&#45;&gt;15</title>
<path fill="none" stroke="black" d="M1850,-102.19C1783.48,-97.18 1606.96,-80.39 1467,-36 1464.61,-35.24 1462.16,-34.39 1459.72,-33.49"/>
<polygon fill="black" stroke="black" points="1461,-30.23 1450.41,-29.82 1458.43,-36.75 1461,-30.23"/>
<text text-anchor="middle" x="1602.5" y="-57.8" font-family="Times,serif" font-size="14.00">dep</text>
</g>
<!-- 16 -->
<g id="node17" class="node">
<title>16</title>
<ellipse fill="none" stroke="black" cx="1544" cy="-18" rx="68.49" ry="18"/>
<text text-anchor="middle" x="1544" y="-14.3" font-family="Times,serif" font-size="14.00">indelicadeza</text>
</g>
<!-- 0&#45;&gt;16 -->
<g id="edge16" class="edge">
<title>0&#45;&gt;16</title>
<path fill="none" stroke="black" d="M1851.02,-99.61C1817.01,-93.66 1755.65,-82.26 1704,-69 1666.61,-59.4 1625.01,-46.33 1593.6,-35.95"/>
<polygon fill="black" stroke="black" points="1594.38,-32.52 1583.78,-32.69 1592.17,-39.17 1594.38,-32.52"/>
<text text-anchor="middle" x="1717.5" y="-57.8" font-family="Times,serif" font-size="14.00">dep</text>
</g>
<!-- 17 -->
<g id="node18" class="node">
<title>17</title>
<ellipse fill="none" stroke="black" cx="1657" cy="-18" rx="27" ry="18"/>
<text text-anchor="middle" x="1657" y="-14.3" font-family="Times,serif" font-size="14.00">em</text>
</g>
<!-- 0&#45;&gt;17 -->
<g id="edge17" class="edge">
<title>0&#45;&gt;17</title>
<path fill="none" stroke="black" d="M1852.81,-96.63C1831.2,-89.9 1798.76,-79.43 1771,-69 1735.77,-55.75 1727.36,-51.37 1693,-36 1691.2,-35.2 1689.36,-34.36 1687.5,-33.51"/>
<polygon fill="black" stroke="black" points="1688.8,-30.25 1678.25,-29.21 1685.85,-36.6 1688.8,-30.25"/>
<text text-anchor="middle" x="1784.5" y="-57.8" font-family="Times,serif" font-size="14.00">dep</text>
</g>
<!-- 18 -->
<g id="node19" class="node">
<title>18</title>
<ellipse fill="none" stroke="black" cx="1746" cy="-18" rx="44.39" ry="18"/>
<text text-anchor="middle" x="1746" y="-14.3" font-family="Times,serif" font-size="14.00">público</text>
</g>
<!-- 0&#45;&gt;18 -->
<g id="edge18" class="edge">
<title>0&#45;&gt;18</title>
<path fill="none" stroke="black" d="M1858,-91.69C1847.65,-84.99 1834.62,-76.54 1823,-69 1807.97,-59.25 1791.3,-48.43 1777.32,-39.35"/>
<polygon fill="black" stroke="black" points="1778.86,-36.18 1768.57,-33.66 1775.05,-42.05 1778.86,-36.18"/>
<text text-anchor="middle" x="1836.5" y="-57.8" font-family="Times,serif" font-size="14.00">dep</text>
</g>
<!-- 19 -->
<g id="node20" class="node">
<title>19</title>
<ellipse fill="none" stroke="black" cx="1835" cy="-18" rx="27" ry="18"/>
<text text-anchor="middle" x="1835" y="-14.3" font-family="Times,serif" font-size="14.00">e</text>
</g>
<!-- 0&#45;&gt;19 -->
<g id="edge19" class="edge">
<title>0&#45;&gt;19</title>
<path fill="none" stroke="black" d="M1868.9,-87.61C1862.86,-75.38 1854.49,-58.44 1847.58,-44.46"/>
<polygon fill="black" stroke="black" points="1850.64,-42.75 1843.07,-35.34 1844.37,-45.85 1850.64,-42.75"/>
<text text-anchor="middle" x="1872.5" y="-57.8" font-family="Times,serif" font-size="14.00">dep</text>
</g>
<!-- 20 -->
<g id="node21" class="node">
<title>20</title>
<ellipse fill="none" stroke="black" cx="1920" cy="-18" rx="40.09" ry="18"/>
<text text-anchor="middle" x="1920" y="-14.3" font-family="Times,serif" font-size="14.00">diante</text>
</g>
<!-- 0&#45;&gt;20 -->
<g id="edge20" class="edge">
<title>0&#45;&gt;20</title>
<path fill="none" stroke="black" d="M1885.29,-87.61C1891.44,-75.46 1899.94,-58.66 1906.99,-44.73"/>
<polygon fill="black" stroke="black" points="1910.2,-46.13 1911.59,-35.63 1903.95,-42.97 1910.2,-46.13"/>
<text text-anchor="middle" x="1915.5" y="-57.8" font-family="Times,serif" font-size="14.00">dep</text>
</g>
<!-- 21 -->
<g id="node22" class="node">
<title>21</title>
<ellipse fill="none" stroke="black" cx="2005" cy="-18" rx="27" ry="18"/>
<text text-anchor="middle" x="2005" y="-14.3" font-family="Times,serif" font-size="14.00">de</text>
</g>
<!-- 0&#45;&gt;21 -->
<g id="edge21" class="edge">
<title>0&#45;&gt;21</title>
<path fill="none" stroke="black" d="M1896.33,-92.24C1907.18,-85.55 1920.94,-76.95 1933,-69 1948.32,-58.9 1965.18,-47.22 1978.74,-37.69"/>
<polygon fill="black" stroke="black" points="1980.96,-40.4 1987.12,-31.78 1976.93,-34.69 1980.96,-40.4"/>
<text text-anchor="middle" x="1968.5" y="-57.8" font-family="Times,serif" font-size="14.00">dep</text>
</g>
<!-- 22 -->
<g id="node23" class="node">
<title>22</title>
<ellipse fill="none" stroke="black" cx="2077" cy="-18" rx="27" ry="18"/>
<text text-anchor="middle" x="2077" y="-14.3" font-family="Times,serif" font-size="14.00">um</text>
</g>
<!-- 0&#45;&gt;22 -->
<g id="edge22" class="edge">
<title>0&#45;&gt;22</title>
<path fill="none" stroke="black" d="M1901.73,-97.52C1924.15,-91.31 1957.89,-81.1 1986,-69 2007.99,-59.53 2031.67,-46.42 2049.35,-36.01"/>
<polygon fill="black" stroke="black" points="2051.22,-38.97 2058.02,-30.84 2047.63,-32.96 2051.22,-38.97"/>
<text text-anchor="middle" x="2030.5" y="-57.8" font-family="Times,serif" font-size="14.00">dep</text>
</g>
<!-- 23 -->
<g id="node24" class="node">
<title>23</title>
<ellipse fill="none" stroke="black" cx="2164" cy="-18" rx="42.49" ry="18"/>
<text text-anchor="middle" x="2164" y="-14.3" font-family="Times,serif" font-size="14.00">cliente</text>
</g>
<!-- 0&#45;&gt;23 -->
<g id="edge23" class="edge">
<title>0&#45;&gt;23</title>
<path fill="none" stroke="black" d="M1903.2,-100.35C1937.13,-95.23 1997.84,-84.76 2048,-69 2075.64,-60.31 2105.65,-47.28 2128.22,-36.69"/>
<polygon fill="black" stroke="black" points="2129.88,-39.78 2137.41,-32.32 2126.87,-33.46 2129.88,-39.78"/>
<text text-anchor="middle" x="2101.5" y="-57.8" font-family="Times,serif" font-size="14.00">dep</text>
</g>
<!-- 24 -->
<g id="node25" class="node">
<title>24</title>
<ellipse fill="none" stroke="black" cx="2251" cy="-18" rx="27" ry="18"/>
<text text-anchor="middle" x="2251" y="-14.3" font-family="Times,serif" font-size="14.00">ou</text>
</g>
<!-- 0&#45;&gt;24 -->
<g id="edge24" class="edge">
<title>0&#45;&gt;24</title>
<path fill="none" stroke="black" d="M1903.81,-101.78C1948.78,-97.68 2042.05,-87.62 2119,-69 2162.85,-58.39 2173.2,-52.99 2215,-36 2216.82,-35.26 2218.69,-34.47 2220.56,-33.66"/>
<polygon fill="black" stroke="black" points="2222.18,-36.77 2229.85,-29.46 2219.3,-30.39 2222.18,-36.77"/>
<text text-anchor="middle" x="2183.5" y="-57.8" font-family="Times,serif" font-size="14.00">dep</text>
</g>
<!-- 25 -->
<g id="node26" class="node">
<title>25</title>
<ellipse fill="none" stroke="black" cx="2364" cy="-18" rx="68.49" ry="18"/>
<text text-anchor="middle" x="2364" y="-14.3" font-family="Times,serif" font-size="14.00">subordinado</text>
</g>
<!-- 0&#45;&gt;25 -->
<g id="edge25" class="edge">
<title>0&#45;&gt;25</title>
<path fill="none" stroke="black" d="M1904.15,-102.81C1960.16,-99.98 2092.38,-91.32 2201,-69 2240.41,-60.9 2283.93,-47.31 2316.08,-36.33"/>
<polygon fill="black" stroke="black" points="2317.36,-39.59 2325.67,-33.02 2315.08,-32.98 2317.36,-39.59"/>
<text text-anchor="middle" x="2274.5" y="-57.8" font-family="Times,serif" font-size="14.00">dep</text>
</g>
<!-- 26 -->
<g id="node27" class="node">
<title>26</title>
<ellipse fill="none" stroke="black" cx="2477" cy="-18" rx="27" ry="18"/>
<text text-anchor="middle" x="2477" y="-14.3" font-family="Times,serif" font-size="14.00">»</text>
</g>
<!-- 0&#45;&gt;26 -->
<g id="edge26" class="edge">
<title>0&#45;&gt;26</title>
<path fill="none" stroke="black" d="M1903.85,-102.98C1970.1,-100.2 2146.54,-91.14 2292,-69 2359.05,-58.79 2376.82,-57.95 2441,-36 2442.91,-35.35 2444.86,-34.62 2446.8,-33.84"/>
<polygon fill="black" stroke="black" points="2448.6,-36.88 2456.39,-29.7 2445.82,-30.46 2448.6,-36.88"/>
<text text-anchor="middle" x="2394.5" y="-57.8" font-family="Times,serif" font-size="14.00">dep</text>
</g>
<!-- 27 -->
<g id="node28" class="node">
<title>27</title>
<ellipse fill="none" stroke="black" cx="2549" cy="-18" rx="27" ry="18"/>
<text text-anchor="middle" x="2549" y="-14.3" font-family="Times,serif" font-size="14.00">,</text>
</g>
<!-- 0&#45;&gt;27 -->
<g id="edge27" class="edge">
<title>0&#45;&gt;27</title>
<path fill="none" stroke="black" d="M1904.02,-104.6C1983.02,-105.86 2220.07,-106.02 2412,-69 2458.37,-60.06 2469.12,-53.45 2513,-36 2514.83,-35.27 2516.7,-34.5 2518.58,-33.69"/>
<polygon fill="black" stroke="black" points="2520.18,-36.8 2527.87,-29.52 2517.32,-30.42 2520.18,-36.8"/>
<text text-anchor="middle" x="2480.5" y="-57.8" font-family="Times,serif" font-size="14.00">dep</text>
</g>
<!-- 28 -->
<g id="node29" class="node">
<title>28</title>
<ellipse fill="none" stroke="black" cx="2634" cy="-18" rx="40.09" ry="18"/>
<text text-anchor="middle" x="2634" y="-14.3" font-family="Times,serif" font-size="14.00">afirma</text>
</g>
<!-- 0&#45;&gt;28 -->
<g id="edge28" class="edge">
<title>0&#45;&gt;28</title>
<path fill="none" stroke="black" d="M1904.2,-103.53C2008.37,-101.59 2381.95,-93.04 2498,-69 2532.88,-61.77 2570.79,-47.24 2597.7,-35.7"/>
<polygon fill="black" stroke="black" points="2599.32,-38.81 2607.09,-31.6 2596.52,-32.39 2599.32,-38.81"/>
<text text-anchor="middle" x="2561.5" y="-57.8" font-family="Times,serif" font-size="14.00">dep</text>
</g>
<!-- 29 -->
<g id="node30" class="node">
<title>29</title>
<ellipse fill="none" stroke="black" cx="2719" cy="-18" rx="27" ry="18"/>
<text text-anchor="middle" x="2719" y="-14.3" font-family="Times,serif" font-size="14.00">o</text>
</g>
<!-- 0&#45;&gt;29 -->
<g id="edge29" class="edge">
<title>0&#45;&gt;29</title>
<path fill="none" stroke="black" d="M1904.18,-103.58C2016.65,-101.69 2445.85,-93.03 2579,-69 2626.72,-60.39 2637.86,-53.73 2683,-36 2684.83,-35.28 2686.71,-34.51 2688.58,-33.71"/>
<polygon fill="black" stroke="black" points="2690.19,-36.83 2697.89,-29.55 2687.33,-30.44 2690.19,-36.83"/>
<text text-anchor="middle" x="2651.5" y="-57.8" font-family="Times,serif" font-size="14.00">dep</text>
</g>
<!-- 30 -->
<g id="node31" class="node">
<title>30</title>
<ellipse fill="none" stroke="black" cx="2818" cy="-18" rx="53.89" ry="18"/>
<text text-anchor="middle" x="2818" y="-14.3" font-family="Times,serif" font-size="14.00">consultor</text>
</g>
<!-- 0&#45;&gt;30 -->
<g id="edge30" class="edge">
<title>0&#45;&gt;30</title>
<path fill="none" stroke="black" d="M1904.33,-103.81C2025.84,-102.83 2517.62,-97.17 2669,-69 2706.36,-62.05 2747.16,-47.87 2776.61,-36.37"/>
<polygon fill="black" stroke="black" points="2778.13,-39.53 2786.14,-32.59 2775.55,-33.03 2778.13,-39.53"/>
<text text-anchor="middle" x="2737.5" y="-57.8" font-family="Times,serif" font-size="14.00">dep</text>
</g>
<!-- 31 -->
<g id="node32" class="node">
<title>31</title>
<ellipse fill="none" stroke="black" cx="2917" cy="-18" rx="27" ry="18"/>
<text text-anchor="middle" x="2917" y="-14.3" font-family="Times,serif" font-size="14.00">de</text>
</g>
<!-- 0&#45;&gt;31 -->
<g id="edge31" class="edge">
<title>0&#45;&gt;31</title>
<path fill="none" stroke="black" d="M1904.17,-103.71C2033.21,-102.2 2584.88,-94.36 2755,-69 2812.26,-60.46 2826.59,-55.78 2881,-36 2882.85,-35.33 2884.74,-34.59 2886.63,-33.82"/>
<polygon fill="black" stroke="black" points="2888.2,-36.95 2895.96,-29.73 2885.39,-30.54 2888.2,-36.95"/>
<text text-anchor="middle" x="2841.5" y="-57.8" font-family="Times,serif" font-size="14.00">dep</text>
</g>
<!-- 32 -->
<g id="node33" class="node">
<title>32</title>
<ellipse fill="none" stroke="black" cx="3020" cy="-18" rx="58.49" ry="18"/>
<text text-anchor="middle" x="3020" y="-14.3" font-family="Times,serif" font-size="14.00">marketing</text>
</g>
<!-- 0&#45;&gt;32 -->
<g id="edge32" class="edge">
<title>0&#45;&gt;32</title>
<path fill="none" stroke="black" d="M1904.14,-104C2042.26,-103.88 2667.9,-101.48 2859,-69 2899.53,-62.11 2944.06,-47.73 2975.99,-36.15"/>
<polygon fill="black" stroke="black" points="2977.3,-39.4 2985.48,-32.66 2974.88,-32.83 2977.3,-39.4"/>
<text text-anchor="middle" x="2931.5" y="-57.8" font-family="Times,serif" font-size="14.00">dep</text>
</g>
<!-- 33 -->
<g id="node34" class="node">
<title>33</title>
<ellipse fill="none" stroke="black" cx="3142" cy="-18" rx="45.49" ry="18"/>
<text text-anchor="middle" x="3142" y="-14.3" font-family="Times,serif" font-size="14.00">pessoal</text>
</g>
<!-- 0&#45;&gt;33 -->
<g id="edge33" class="edge">
<title>0&#45;&gt;33</title>
<path fill="none" stroke="black" d="M1904.15,-103.86C2049.64,-102.98 2738.15,-97.36 2949,-69 3001.27,-61.97 3059.7,-45.59 3098.43,-33.49"/>
<polygon fill="black" stroke="black" points="3099.85,-36.71 3108.32,-30.35 3097.73,-30.04 3099.85,-36.71"/>
<text text-anchor="middle" x="3038.5" y="-57.8" font-family="Times,serif" font-size="14.00">dep</text>
</g>
<!-- 34 -->
<g id="node35" class="node">
<title>34</title>
<ellipse fill="none" stroke="black" cx="3237" cy="-18" rx="31.4" ry="18"/>
<text text-anchor="middle" x="3237" y="-14.3" font-family="Times,serif" font-size="14.00">Otto</text>
</g>
<!-- 0&#45;&gt;34 -->
<g id="edge34" class="edge">
<title>0&#45;&gt;34</title>
<path fill="none" stroke="black" d="M1904.04,-103.94C2057.73,-103.48 2822.64,-99.65 3056,-69 3119.38,-60.68 3135.16,-55.64 3196,-36 3198.44,-35.21 3200.93,-34.34 3203.43,-33.43"/>
<polygon fill="black" stroke="black" points="3204.91,-36.61 3212.96,-29.73 3202.37,-30.08 3204.91,-36.61"/>
<text text-anchor="middle" x="3150.5" y="-57.8" font-family="Times,serif" font-size="14.00">dep</text>
</g>
<!-- 35 -->
<g id="node36" class="node">
<title>35</title>
<ellipse fill="none" stroke="black" cx="3326" cy="-18" rx="39.79" ry="18"/>
<text text-anchor="middle" x="3326" y="-14.3" font-family="Times,serif" font-size="14.00">Reiter</text>
</g>
<!-- 0&#45;&gt;35 -->
<g id="edge35" class="edge">
<title>0&#45;&gt;35</title>
<path fill="none" stroke="black" d="M1904.11,-103.7C2078.49,-101.71 3039.28,-89.84 3168,-69 3210.16,-62.17 3256.55,-46.45 3288.09,-34.45"/>
<polygon fill="black" stroke="black" points="3289.72,-37.57 3297.78,-30.7 3287.19,-31.04 3289.72,-37.57"/>
<text text-anchor="middle" x="3243.5" y="-57.8" font-family="Times,serif" font-size="14.00">dep</text>
</g>
<!-- 36 -->
<g id="node37" class="node">
<title>36</title>
<ellipse fill="none" stroke="black" cx="3411" cy="-18" rx="27" ry="18"/>
<text text-anchor="middle" x="3411" y="-14.3" font-family="Times,serif" font-size="14.00">,</text>
</g>
<!-- 0&#45;&gt;36 -->
<g id="edge36" class="edge">
<title>0&#45;&gt;36</title>
<path fill="none" stroke="black" d="M1903.98,-103.73C2085.22,-101.89 3122.34,-90.46 3261,-69 3313.13,-60.93 3325.66,-54.65 3375,-36 3376.84,-35.3 3378.72,-34.55 3380.6,-33.76"/>
<polygon fill="black" stroke="black" points="3382.19,-36.89 3389.92,-29.64 3379.36,-30.49 3382.19,-36.89"/>
<text text-anchor="middle" x="3340.5" y="-57.8" font-family="Times,serif" font-size="14.00">dep</text>
</g>
<!-- 37 -->
<g id="node38" class="node">
<title>37</title>
<ellipse fill="none" stroke="black" cx="3483" cy="-18" rx="27" ry="18"/>
<text text-anchor="middle" x="3483" y="-14.3" font-family="Times,serif" font-size="14.00">69</text>
</g>
<!-- 0&#45;&gt;37 -->
<g id="edge37" class="edge">
<title>0&#45;&gt;37</title>
<path fill="none" stroke="black" d="M1904.05,-103.9C2092.83,-103.12 3210.08,-97.35 3358,-69 3392.05,-62.48 3428.6,-46.73 3453.33,-34.64"/>
<polygon fill="black" stroke="black" points="3455.13,-37.64 3462.51,-30.04 3452,-31.38 3455.13,-37.64"/>
<text text-anchor="middle" x="3421.5" y="-57.8" font-family="Times,serif" font-size="14.00">dep</text>
</g>
<!-- 38 -->
<g id="node39" class="node">
<title>38</title>
<ellipse fill="none" stroke="black" cx="3555" cy="-18" rx="27" ry="18"/>
<text text-anchor="middle" x="3555" y="-14.3" font-family="Times,serif" font-size="14.00">.</text>
</g>
<!-- 0&#45;&gt;38 -->
<g id="edge38" class="edge">
<title>0&#45;&gt;38</title>
<path fill="none" stroke="black" d="M1903.97,-103.99C2098.43,-103.86 3283.12,-101.71 3439,-69 3470.31,-62.43 3503.61,-47.11 3526.46,-35.14"/>
<polygon fill="black" stroke="black" points="3528.12,-38.23 3535.28,-30.42 3524.81,-32.06 3528.12,-38.23"/>
<text text-anchor="middle" x="3499.5" y="-57.8" font-family="Times,serif" font-size="14.00">dep</text>
</g>
</g>
</svg>
