<?xml version="1.0" encoding="UTF-8" standalone="no"?>
<!DOCTYPE svg PUBLIC "-//W3C//DTD SVG 1.1//EN"
 "http://www.w3.org/Graphics/SVG/1.1/DTD/svg11.dtd">
<!-- Generated by graphviz version 2.42.4 (0)
 -->
<!-- Pages: 1 -->
<svg width="1326pt" height="131pt"
 viewBox="0.00 0.00 1326.25 131.00" xmlns="http://www.w3.org/2000/svg" xmlns:xlink="http://www.w3.org/1999/xlink">
<g id="graph0" class="graph" transform="scale(1 1) rotate(0) translate(4 127)">
<polygon fill="white" stroke="transparent" points="-4,4 -4,-127 1322.25,-127 1322.25,4 -4,4"/>
<!-- 0 -->
<g id="node1" class="node">
<title>0</title>
<ellipse fill="none" stroke="black" cx="676.25" cy="-105" rx="42.49" ry="18"/>
<text text-anchor="middle" x="676.25" y="-101.3" font-family="Times,serif" font-size="14.00">Cecilia</text>
</g>
<!-- 1 -->
<g id="node2" class="node">
<title>1</title>
<ellipse fill="none" stroke="black" cx="42.25" cy="-18" rx="42.49" ry="18"/>
<text text-anchor="middle" x="42.25" y="-14.3" font-family="Times,serif" font-size="14.00">Bartoli</text>
</g>
<!-- 0&#45;&gt;1 -->
<g id="edge1" class="edge">
<title>0&#45;&gt;1</title>
<path fill="none" stroke="black" d="M633.81,-104.07C550.12,-103.52 358.22,-98.77 200.25,-69 159.04,-61.23 113.55,-46.11 82,-34.52"/>
<polygon fill="black" stroke="black" points="82.87,-31.1 72.27,-30.89 80.42,-37.66 82.87,-31.1"/>
<text text-anchor="middle" x="213.75" y="-57.8" font-family="Times,serif" font-size="14.00">dep</text>
</g>
<!-- 2 -->
<g id="node3" class="node">
<title>2</title>
<ellipse fill="none" stroke="black" cx="144.25" cy="-18" rx="42.49" ry="18"/>
<text text-anchor="middle" x="144.25" y="-14.3" font-family="Times,serif" font-size="14.00">cantou</text>
</g>
<!-- 0&#45;&gt;2 -->
<g id="edge2" class="edge">
<title>0&#45;&gt;2</title>
<path fill="none" stroke="black" d="M634.07,-103.9C561.08,-102.93 406.87,-97.35 280.25,-69 245.81,-61.29 208.28,-47.02 181.38,-35.69"/>
<polygon fill="black" stroke="black" points="182.55,-32.38 171.98,-31.67 179.8,-38.82 182.55,-32.38"/>
<text text-anchor="middle" x="293.75" y="-57.8" font-family="Times,serif" font-size="14.00">dep</text>
</g>
<!-- 3 -->
<g id="node4" class="node">
<title>3</title>
<ellipse fill="none" stroke="black" cx="231.25" cy="-18" rx="27" ry="18"/>
<text text-anchor="middle" x="231.25" y="-14.3" font-family="Times,serif" font-size="14.00">em</text>
</g>
<!-- 0&#45;&gt;3 -->
<g id="edge3" class="edge">
<title>0&#45;&gt;3</title>
<path fill="none" stroke="black" d="M634.27,-102.69C572.58,-100.04 454.15,-92.13 356.25,-69 322.71,-61.08 286.34,-45.7 261.53,-34.08"/>
<polygon fill="black" stroke="black" points="262.82,-30.82 252.29,-29.67 259.81,-37.14 262.82,-30.82"/>
<text text-anchor="middle" x="369.75" y="-57.8" font-family="Times,serif" font-size="14.00">dep</text>
</g>
<!-- 4 -->
<g id="node5" class="node">
<title>4</title>
<ellipse fill="none" stroke="black" cx="304.25" cy="-18" rx="27.9" ry="18"/>
<text text-anchor="middle" x="304.25" y="-14.3" font-family="Times,serif" font-size="14.00">São</text>
</g>
<!-- 0&#45;&gt;4 -->
<g id="edge4" class="edge">
<title>0&#45;&gt;4</title>
<path fill="none" stroke="black" d="M635.03,-100.39C586.85,-95.61 504.97,-85.79 436.25,-69 392.83,-58.39 382.71,-52.68 341.25,-36 339.38,-35.25 337.47,-34.45 335.54,-33.63"/>
<polygon fill="black" stroke="black" points="336.57,-30.26 326.01,-29.42 333.74,-36.66 336.57,-30.26"/>
<text text-anchor="middle" x="449.75" y="-57.8" font-family="Times,serif" font-size="14.00">dep</text>
</g>
<!-- 5 -->
<g id="node6" class="node">
<title>5</title>
<ellipse fill="none" stroke="black" cx="390.25" cy="-18" rx="40.09" ry="18"/>
<text text-anchor="middle" x="390.25" y="-14.3" font-family="Times,serif" font-size="14.00">Carlos</text>
</g>
<!-- 0&#45;&gt;5 -->
<g id="edge5" class="edge">
<title>0&#45;&gt;5</title>
<path fill="none" stroke="black" d="M636.85,-98.23C602.01,-92.58 550.08,-82.8 506.25,-69 478.24,-60.18 447.8,-46.91 425.14,-36.26"/>
<polygon fill="black" stroke="black" points="426.46,-33.01 415.93,-31.88 423.45,-39.33 426.46,-33.01"/>
<text text-anchor="middle" x="519.75" y="-57.8" font-family="Times,serif" font-size="14.00">dep</text>
</g>
<!-- 6 -->
<g id="node7" class="node">
<title>6</title>
<ellipse fill="none" stroke="black" cx="475.25" cy="-18" rx="27" ry="18"/>
<text text-anchor="middle" x="475.25" y="-14.3" font-family="Times,serif" font-size="14.00">,</text>
</g>
<!-- 0&#45;&gt;6 -->
<g id="edge6" class="edge">
<title>0&#45;&gt;6</title>
<path fill="none" stroke="black" d="M641.62,-94.51C620.14,-88.2 592.18,-79.21 568.25,-69 545.85,-59.44 521.65,-46.34 503.56,-35.95"/>
<polygon fill="black" stroke="black" points="505.1,-32.79 494.69,-30.79 501.58,-38.84 505.1,-32.79"/>
<text text-anchor="middle" x="581.75" y="-57.8" font-family="Times,serif" font-size="14.00">dep</text>
</g>
<!-- 7 -->
<g id="node8" class="node">
<title>7</title>
<ellipse fill="none" stroke="black" cx="547.25" cy="-18" rx="27" ry="18"/>
<text text-anchor="middle" x="547.25" y="-14.3" font-family="Times,serif" font-size="14.00">em</text>
</g>
<!-- 0&#45;&gt;7 -->
<g id="edge7" class="edge">
<title>0&#45;&gt;7</title>
<path fill="none" stroke="black" d="M653.41,-89.67C643.49,-83.38 631.75,-75.89 621.25,-69 605.51,-58.68 588.05,-46.9 574.05,-37.37"/>
<polygon fill="black" stroke="black" points="575.63,-34.21 565.4,-31.47 571.69,-40 575.63,-34.21"/>
<text text-anchor="middle" x="634.75" y="-57.8" font-family="Times,serif" font-size="14.00">dep</text>
</g>
<!-- 8 -->
<g id="node9" class="node">
<title>8</title>
<ellipse fill="none" stroke="black" cx="633.25" cy="-18" rx="40.89" ry="18"/>
<text text-anchor="middle" x="633.25" y="-14.3" font-family="Times,serif" font-size="14.00">Lisboa</text>
</g>
<!-- 0&#45;&gt;8 -->
<g id="edge8" class="edge">
<title>0&#45;&gt;8</title>
<path fill="none" stroke="black" d="M667.75,-87.21C661.63,-75.1 653.25,-58.53 646.28,-44.76"/>
<polygon fill="black" stroke="black" points="649.36,-43.1 641.72,-35.76 643.12,-46.26 649.36,-43.1"/>
<text text-anchor="middle" x="671.75" y="-57.8" font-family="Times,serif" font-size="14.00">dep</text>
</g>
<!-- 9 -->
<g id="node10" class="node">
<title>9</title>
<ellipse fill="none" stroke="black" cx="719.25" cy="-18" rx="27" ry="18"/>
<text text-anchor="middle" x="719.25" y="-14.3" font-family="Times,serif" font-size="14.00">,</text>
</g>
<!-- 0&#45;&gt;9 -->
<g id="edge9" class="edge">
<title>0&#45;&gt;9</title>
<path fill="none" stroke="black" d="M684.74,-87.21C690.95,-74.94 699.47,-58.1 706.49,-44.22"/>
<polygon fill="black" stroke="black" points="709.67,-45.68 711.06,-35.18 703.42,-42.52 709.67,-45.68"/>
<text text-anchor="middle" x="714.75" y="-57.8" font-family="Times,serif" font-size="14.00">dep</text>
</g>
<!-- 10 -->
<g id="node11" class="node">
<title>10</title>
<ellipse fill="none" stroke="black" cx="791.25" cy="-18" rx="27" ry="18"/>
<text text-anchor="middle" x="791.25" y="-14.3" font-family="Times,serif" font-size="14.00">em</text>
</g>
<!-- 0&#45;&gt;10 -->
<g id="edge10" class="edge">
<title>0&#45;&gt;10</title>
<path fill="none" stroke="black" d="M700.18,-90.09C710.29,-83.95 722.06,-76.44 732.25,-69 744.52,-60.04 757.47,-49.23 768.1,-39.96"/>
<polygon fill="black" stroke="black" points="770.55,-42.47 775.73,-33.23 765.91,-37.22 770.55,-42.47"/>
<text text-anchor="middle" x="764.75" y="-57.8" font-family="Times,serif" font-size="14.00">dep</text>
</g>
<!-- 11 -->
<g id="node12" class="node">
<title>11</title>
<ellipse fill="none" stroke="black" cx="863.25" cy="-18" rx="27" ry="18"/>
<text text-anchor="middle" x="863.25" y="-14.3" font-family="Times,serif" font-size="14.00">o</text>
</g>
<!-- 0&#45;&gt;11 -->
<g id="edge11" class="edge">
<title>0&#45;&gt;11</title>
<path fill="none" stroke="black" d="M711.41,-94.64C732.43,-88.5 759.41,-79.64 782.25,-69 801.28,-60.13 821.37,-47.75 836.79,-37.53"/>
<polygon fill="black" stroke="black" points="838.94,-40.29 845.28,-31.8 835.03,-34.49 838.94,-40.29"/>
<text text-anchor="middle" x="823.75" y="-57.8" font-family="Times,serif" font-size="14.00">dep</text>
</g>
<!-- 12 -->
<g id="node13" class="node">
<title>12</title>
<ellipse fill="none" stroke="black" cx="956.25" cy="-18" rx="48.19" ry="18"/>
<text text-anchor="middle" x="956.25" y="-14.3" font-family="Times,serif" font-size="14.00">passado</text>
</g>
<!-- 0&#45;&gt;12 -->
<g id="edge12" class="edge">
<title>0&#45;&gt;12</title>
<path fill="none" stroke="black" d="M715.49,-97.96C749.29,-92.23 799.13,-82.47 841.25,-69 868.1,-60.41 897.21,-47.72 919.43,-37.27"/>
<polygon fill="black" stroke="black" points="920.98,-40.41 928.5,-32.95 917.97,-34.09 920.98,-40.41"/>
<text text-anchor="middle" x="893.75" y="-57.8" font-family="Times,serif" font-size="14.00">dep</text>
</g>
<!-- 13 -->
<g id="node14" class="node">
<title>13</title>
<ellipse fill="none" stroke="black" cx="1049.25" cy="-18" rx="27" ry="18"/>
<text text-anchor="middle" x="1049.25" y="-14.3" font-family="Times,serif" font-size="14.00">24</text>
</g>
<!-- 0&#45;&gt;13 -->
<g id="edge13" class="edge">
<title>0&#45;&gt;13</title>
<path fill="none" stroke="black" d="M716.97,-100C764.13,-94.89 843.98,-84.78 911.25,-69 957.63,-58.12 968.95,-53.54 1013.25,-36 1015.08,-35.27 1016.95,-34.5 1018.82,-33.7"/>
<polygon fill="black" stroke="black" points="1020.43,-36.81 1028.12,-29.53 1017.57,-30.42 1020.43,-36.81"/>
<text text-anchor="middle" x="978.75" y="-57.8" font-family="Times,serif" font-size="14.00">dep</text>
</g>
<!-- 14 -->
<g id="node15" class="node">
<title>14</title>
<ellipse fill="none" stroke="black" cx="1121.25" cy="-18" rx="27" ry="18"/>
<text text-anchor="middle" x="1121.25" y="-14.3" font-family="Times,serif" font-size="14.00">de</text>
</g>
<!-- 0&#45;&gt;14 -->
<g id="edge14" class="edge">
<title>0&#45;&gt;14</title>
<path fill="none" stroke="black" d="M718.22,-102.69C779.91,-100.04 898.35,-92.13 996.25,-69 1029.78,-61.08 1066.15,-45.7 1090.96,-34.08"/>
<polygon fill="black" stroke="black" points="1092.68,-37.14 1100.2,-29.67 1089.67,-30.82 1092.68,-37.14"/>
<text text-anchor="middle" x="1055.75" y="-57.8" font-family="Times,serif" font-size="14.00">dep</text>
</g>
<!-- 15 -->
<g id="node16" class="node">
<title>15</title>
<ellipse fill="none" stroke="black" cx="1206.25" cy="-18" rx="40.09" ry="18"/>
<text text-anchor="middle" x="1206.25" y="-14.3" font-family="Times,serif" font-size="14.00">Março</text>
</g>
<!-- 0&#45;&gt;15 -->
<g id="edge15" class="edge">
<title>0&#45;&gt;15</title>
<path fill="none" stroke="black" d="M718.55,-104.01C791.76,-103.21 946.41,-97.86 1073.25,-69 1107.09,-61.3 1143.92,-46.96 1170.22,-35.6"/>
<polygon fill="black" stroke="black" points="1171.65,-38.79 1179.4,-31.57 1168.84,-32.38 1171.65,-38.79"/>
<text text-anchor="middle" x="1135.75" y="-57.8" font-family="Times,serif" font-size="14.00">dep</text>
</g>
<!-- 16 -->
<g id="node17" class="node">
<title>16</title>
<ellipse fill="none" stroke="black" cx="1291.25" cy="-18" rx="27" ry="18"/>
<text text-anchor="middle" x="1291.25" y="-14.3" font-family="Times,serif" font-size="14.00">.</text>
</g>
<!-- 0&#45;&gt;16 -->
<g id="edge16" class="edge">
<title>0&#45;&gt;16</title>
<path fill="none" stroke="black" d="M718.49,-104.28C802.24,-104.08 994.95,-99.95 1153.25,-69 1200.01,-59.86 1210.95,-53.54 1255.25,-36 1257.08,-35.27 1258.95,-34.5 1260.82,-33.7"/>
<polygon fill="black" stroke="black" points="1262.43,-36.81 1270.12,-29.53 1259.57,-30.42 1262.43,-36.81"/>
<text text-anchor="middle" x="1222.75" y="-57.8" font-family="Times,serif" font-size="14.00">dep</text>
</g>
</g>
</svg>
