<?xml version="1.0" encoding="UTF-8" standalone="no"?>
<!DOCTYPE svg PUBLIC "-//W3C//DTD SVG 1.1//EN"
 "http://www.w3.org/Graphics/SVG/1.1/DTD/svg11.dtd">
<!-- Generated by graphviz version 2.42.4 (0)
 -->
<!-- Pages: 1 -->
<svg width="3816pt" height="131pt"
 viewBox="0.00 0.00 3816.00 131.00" xmlns="http://www.w3.org/2000/svg" xmlns:xlink="http://www.w3.org/1999/xlink">
<g id="graph0" class="graph" transform="scale(1 1) rotate(0) translate(4 127)">
<polygon fill="white" stroke="transparent" points="-4,4 -4,-127 3812,-127 3812,4 -4,4"/>
<!-- 0 -->
<g id="node1" class="node">
<title>0</title>
<ellipse fill="none" stroke="black" cx="1843" cy="-105" rx="34.39" ry="18"/>
<text text-anchor="middle" x="1843" y="-101.3" font-family="Times,serif" font-size="14.00">Além</text>
</g>
<!-- 1 -->
<g id="node2" class="node">
<title>1</title>
<ellipse fill="none" stroke="black" cx="27" cy="-18" rx="27" ry="18"/>
<text text-anchor="middle" x="27" y="-14.3" font-family="Times,serif" font-size="14.00">de</text>
</g>
<!-- 0&#45;&gt;1 -->
<g id="edge1" class="edge">
<title>0&#45;&gt;1</title>
<path fill="none" stroke="black" d="M1808.59,-103.97C1583.16,-103.68 320.99,-100.63 153,-69 118.7,-62.54 81.85,-46.79 56.92,-34.67"/>
<polygon fill="black" stroke="black" points="58.17,-31.38 47.66,-30.07 55.06,-37.65 58.17,-31.38"/>
<text text-anchor="middle" x="166.5" y="-57.8" font-family="Times,serif" font-size="14.00">dep</text>
</g>
<!-- 2 -->
<g id="node3" class="node">
<title>2</title>
<ellipse fill="none" stroke="black" cx="99" cy="-18" rx="27" ry="18"/>
<text text-anchor="middle" x="99" y="-14.3" font-family="Times,serif" font-size="14.00">a</text>
</g>
<!-- 0&#45;&gt;2 -->
<g id="edge2" class="edge">
<title>0&#45;&gt;2</title>
<path fill="none" stroke="black" d="M1808.49,-103.78C1590.44,-102.32 407.87,-93.31 249,-69 196.86,-61.02 184.34,-54.65 135,-36 133.16,-35.3 131.28,-34.55 129.4,-33.76"/>
<polygon fill="black" stroke="black" points="130.64,-30.49 120.08,-29.64 127.81,-36.89 130.64,-30.49"/>
<text text-anchor="middle" x="262.5" y="-57.8" font-family="Times,serif" font-size="14.00">dep</text>
</g>
<!-- 3 -->
<g id="node4" class="node">
<title>3</title>
<ellipse fill="none" stroke="black" cx="179" cy="-18" rx="35.19" ry="18"/>
<text text-anchor="middle" x="179" y="-14.3" font-family="Times,serif" font-size="14.00">costa</text>
</g>
<!-- 0&#45;&gt;3 -->
<g id="edge3" class="edge">
<title>0&#45;&gt;3</title>
<path fill="none" stroke="black" d="M1808.54,-103.7C1598.35,-101.78 493.08,-90.74 344,-69 298.5,-62.37 248.2,-45.69 215.24,-33.41"/>
<polygon fill="black" stroke="black" points="216.18,-30.03 205.59,-29.76 213.7,-36.57 216.18,-30.03"/>
<text text-anchor="middle" x="357.5" y="-57.8" font-family="Times,serif" font-size="14.00">dep</text>
</g>
<!-- 4 -->
<g id="node5" class="node">
<title>4</title>
<ellipse fill="none" stroke="black" cx="285" cy="-18" rx="53.09" ry="18"/>
<text text-anchor="middle" x="285" y="-14.3" font-family="Times,serif" font-size="14.00">marítima</text>
</g>
<!-- 0&#45;&gt;4 -->
<g id="edge4" class="edge">
<title>0&#45;&gt;4</title>
<path fill="none" stroke="black" d="M1808.61,-103.76C1606.01,-102.3 572.09,-93.64 433,-69 395.69,-62.39 355.03,-48.1 325.78,-36.49"/>
<polygon fill="black" stroke="black" points="326.9,-33.17 316.32,-32.67 324.28,-39.66 326.9,-33.17"/>
<text text-anchor="middle" x="446.5" y="-57.8" font-family="Times,serif" font-size="14.00">dep</text>
</g>
<!-- 5 -->
<g id="node6" class="node">
<title>5</title>
<ellipse fill="none" stroke="black" cx="383" cy="-18" rx="27" ry="18"/>
<text text-anchor="middle" x="383" y="-14.3" font-family="Times,serif" font-size="14.00">,</text>
</g>
<!-- 0&#45;&gt;5 -->
<g id="edge5" class="edge">
<title>0&#45;&gt;5</title>
<path fill="none" stroke="black" d="M1808.43,-103.71C1612.59,-101.98 646.37,-92.34 516,-69 479.24,-62.42 439.44,-46.13 413.05,-33.92"/>
<polygon fill="black" stroke="black" points="414.51,-30.74 403.97,-29.63 411.52,-37.07 414.51,-30.74"/>
<text text-anchor="middle" x="529.5" y="-57.8" font-family="Times,serif" font-size="14.00">dep</text>
</g>
<!-- 6 -->
<g id="node7" class="node">
<title>6</title>
<ellipse fill="none" stroke="black" cx="455" cy="-18" rx="27" ry="18"/>
<text text-anchor="middle" x="455" y="-14.3" font-family="Times,serif" font-size="14.00">a</text>
</g>
<!-- 0&#45;&gt;6 -->
<g id="edge6" class="edge">
<title>0&#45;&gt;6</title>
<path fill="none" stroke="black" d="M1808.55,-103.99C1635.9,-103.79 863.62,-101.09 626,-69 564.79,-60.73 549.22,-56.63 491,-36 489.09,-35.32 487.15,-34.58 485.21,-33.8"/>
<polygon fill="black" stroke="black" points="486.2,-30.41 475.64,-29.62 483.4,-36.83 486.2,-30.41"/>
<text text-anchor="middle" x="639.5" y="-57.8" font-family="Times,serif" font-size="14.00">dep</text>
</g>
<!-- 7 -->
<g id="node8" class="node">
<title>7</title>
<ellipse fill="none" stroke="black" cx="544" cy="-18" rx="43.59" ry="18"/>
<text text-anchor="middle" x="544" y="-14.3" font-family="Times,serif" font-size="14.00">melhor</text>
</g>
<!-- 0&#45;&gt;7 -->
<g id="edge7" class="edge">
<title>0&#45;&gt;7</title>
<path fill="none" stroke="black" d="M1808.5,-103.92C1644.67,-103.37 944.26,-99.27 728,-69 678.26,-62.04 622.84,-45.76 585.95,-33.66"/>
<polygon fill="black" stroke="black" points="586.65,-30.21 576.06,-30.37 584.44,-36.85 586.65,-30.21"/>
<text text-anchor="middle" x="741.5" y="-57.8" font-family="Times,serif" font-size="14.00">dep</text>
</g>
<!-- 8 -->
<g id="node9" class="node">
<title>8</title>
<ellipse fill="none" stroke="black" cx="669" cy="-18" rx="63.09" ry="18"/>
<text text-anchor="middle" x="669" y="-14.3" font-family="Times,serif" font-size="14.00">preservada</text>
</g>
<!-- 0&#45;&gt;8 -->
<g id="edge8" class="edge">
<title>0&#45;&gt;8</title>
<path fill="none" stroke="black" d="M1808.35,-104.18C1652.15,-104.79 1012.66,-104.98 816,-69 779.79,-62.37 740.38,-48.59 711.49,-37.17"/>
<polygon fill="black" stroke="black" points="712.7,-33.88 702.11,-33.4 710.09,-40.38 712.7,-33.88"/>
<text text-anchor="middle" x="829.5" y="-57.8" font-family="Times,serif" font-size="14.00">dep</text>
</g>
<!-- 9 -->
<g id="node10" class="node">
<title>9</title>
<ellipse fill="none" stroke="black" cx="777" cy="-18" rx="27" ry="18"/>
<text text-anchor="middle" x="777" y="-14.3" font-family="Times,serif" font-size="14.00">de</text>
</g>
<!-- 0&#45;&gt;9 -->
<g id="edge9" class="edge">
<title>0&#45;&gt;9</title>
<path fill="none" stroke="black" d="M1808.53,-103.46C1648.61,-100.87 982.77,-88.94 892,-69 861.3,-62.26 828.65,-47.22 806.02,-35.38"/>
<polygon fill="black" stroke="black" points="807.43,-32.17 796.96,-30.54 804.13,-38.34 807.43,-32.17"/>
<text text-anchor="middle" x="905.5" y="-57.8" font-family="Times,serif" font-size="14.00">dep</text>
</g>
<!-- 10 -->
<g id="node11" class="node">
<title>10</title>
<ellipse fill="none" stroke="black" cx="849" cy="-18" rx="27" ry="18"/>
<text text-anchor="middle" x="849" y="-14.3" font-family="Times,serif" font-size="14.00">o</text>
</g>
<!-- 0&#45;&gt;10 -->
<g id="edge10" class="edge">
<title>0&#45;&gt;10</title>
<path fill="none" stroke="black" d="M1808.19,-104.13C1666.68,-104.43 1134.28,-103.19 970,-69 937.34,-62.2 902.35,-46.76 878.45,-34.83"/>
<polygon fill="black" stroke="black" points="879.73,-31.55 869.23,-30.12 876.55,-37.79 879.73,-31.55"/>
<text text-anchor="middle" x="983.5" y="-57.8" font-family="Times,serif" font-size="14.00">dep</text>
</g>
<!-- 11 -->
<g id="node12" class="node">
<title>11</title>
<ellipse fill="none" stroke="black" cx="924" cy="-18" rx="29.8" ry="18"/>
<text text-anchor="middle" x="924" y="-14.3" font-family="Times,serif" font-size="14.00">país</text>
</g>
<!-- 0&#45;&gt;11 -->
<g id="edge11" class="edge">
<title>0&#45;&gt;11</title>
<path fill="none" stroke="black" d="M1808.27,-103.93C1675.23,-103.44 1198.13,-99.54 1050,-69 1016.43,-62.08 980.26,-46.84 955.33,-35"/>
<polygon fill="black" stroke="black" points="956.55,-31.7 946.03,-30.49 953.5,-38 956.55,-31.7"/>
<text text-anchor="middle" x="1063.5" y="-57.8" font-family="Times,serif" font-size="14.00">dep</text>
</g>
<!-- 12 -->
<g id="node13" class="node">
<title>12</title>
<ellipse fill="none" stroke="black" cx="999" cy="-18" rx="27" ry="18"/>
<text text-anchor="middle" x="999" y="-14.3" font-family="Times,serif" font-size="14.00">,</text>
</g>
<!-- 0&#45;&gt;12 -->
<g id="edge12" class="edge">
<title>0&#45;&gt;12</title>
<path fill="none" stroke="black" d="M1808.43,-103.47C1685.37,-101.41 1268.97,-92.81 1138,-69 1090.71,-60.4 1079.72,-53.63 1035,-36 1033.17,-35.28 1031.3,-34.5 1029.42,-33.7"/>
<polygon fill="black" stroke="black" points="1030.67,-30.43 1020.12,-29.54 1027.81,-36.82 1030.67,-30.43"/>
<text text-anchor="middle" x="1151.5" y="-57.8" font-family="Times,serif" font-size="14.00">dep</text>
</g>
<!-- 13 -->
<g id="node14" class="node">
<title>13</title>
<ellipse fill="none" stroke="black" cx="1071" cy="-18" rx="27" ry="18"/>
<text text-anchor="middle" x="1071" y="-14.3" font-family="Times,serif" font-size="14.00">o</text>
</g>
<!-- 0&#45;&gt;13 -->
<g id="edge13" class="edge">
<title>0&#45;&gt;13</title>
<path fill="none" stroke="black" d="M1808.51,-103.7C1718.4,-102.52 1468.68,-96.81 1263,-69 1192.77,-59.51 1174.16,-58.62 1107,-36 1105.08,-35.35 1103.14,-34.64 1101.19,-33.87"/>
<polygon fill="black" stroke="black" points="1102.17,-30.48 1091.6,-29.73 1099.4,-36.91 1102.17,-30.48"/>
<text text-anchor="middle" x="1276.5" y="-57.8" font-family="Times,serif" font-size="14.00">dep</text>
</g>
<!-- 14 -->
<g id="node15" class="node">
<title>14</title>
<ellipse fill="none" stroke="black" cx="1165" cy="-18" rx="48.99" ry="18"/>
<text text-anchor="middle" x="1165" y="-14.3" font-family="Times,serif" font-size="14.00">Alentejo</text>
</g>
<!-- 0&#45;&gt;14 -->
<g id="edge14" class="edge">
<title>0&#45;&gt;14</title>
<path fill="none" stroke="black" d="M1808.67,-103.29C1729.97,-101.26 1530.62,-93.88 1366,-69 1312.08,-60.85 1251.51,-44.81 1211.09,-33.09"/>
<polygon fill="black" stroke="black" points="1211.84,-29.66 1201.26,-30.21 1209.87,-36.38 1211.84,-29.66"/>
<text text-anchor="middle" x="1379.5" y="-57.8" font-family="Times,serif" font-size="14.00">dep</text>
</g>
<!-- 15 -->
<g id="node16" class="node">
<title>15</title>
<ellipse fill="none" stroke="black" cx="1277" cy="-18" rx="44.69" ry="18"/>
<text text-anchor="middle" x="1277" y="-14.3" font-family="Times,serif" font-size="14.00">oferece</text>
</g>
<!-- 0&#45;&gt;15 -->
<g id="edge15" class="edge">
<title>0&#45;&gt;15</title>
<path fill="none" stroke="black" d="M1808.8,-102.58C1742.09,-99.41 1590.07,-90.34 1464,-69 1413.96,-60.53 1357.89,-44.66 1320.31,-33.06"/>
<polygon fill="black" stroke="black" points="1321.29,-29.7 1310.7,-30.06 1319.21,-36.38 1321.29,-29.7"/>
<text text-anchor="middle" x="1477.5" y="-57.8" font-family="Times,serif" font-size="14.00">dep</text>
</g>
<!-- 16 -->
<g id="node17" class="node">
<title>16</title>
<ellipse fill="none" stroke="black" cx="1387" cy="-18" rx="46.59" ry="18"/>
<text text-anchor="middle" x="1387" y="-14.3" font-family="Times,serif" font-size="14.00">turismo</text>
</g>
<!-- 0&#45;&gt;16 -->
<g id="edge16" class="edge">
<title>0&#45;&gt;16</title>
<path fill="none" stroke="black" d="M1808.6,-101.97C1753.22,-98.24 1641.07,-88.8 1548,-69 1506.88,-60.25 1461.22,-45.58 1429.05,-34.39"/>
<polygon fill="black" stroke="black" points="1430.12,-31.05 1419.53,-31.03 1427.8,-37.65 1430.12,-31.05"/>
<text text-anchor="middle" x="1561.5" y="-57.8" font-family="Times,serif" font-size="14.00">dep</text>
</g>
<!-- 17 -->
<g id="node18" class="node">
<title>17</title>
<ellipse fill="none" stroke="black" cx="1486" cy="-18" rx="33.6" ry="18"/>
<text text-anchor="middle" x="1486" y="-14.3" font-family="Times,serif" font-size="14.00">rural</text>
</g>
<!-- 0&#45;&gt;17 -->
<g id="edge17" class="edge">
<title>0&#45;&gt;17</title>
<path fill="none" stroke="black" d="M1809.68,-100.19C1767.31,-94.98 1692.07,-84.46 1629,-69 1583.54,-57.86 1573,-51.94 1529,-36 1526.62,-35.14 1524.18,-34.23 1521.72,-33.3"/>
<polygon fill="black" stroke="black" points="1522.88,-30 1512.29,-29.67 1520.36,-36.53 1522.88,-30"/>
<text text-anchor="middle" x="1642.5" y="-57.8" font-family="Times,serif" font-size="14.00">dep</text>
</g>
<!-- 18 -->
<g id="node19" class="node">
<title>18</title>
<ellipse fill="none" stroke="black" cx="1565" cy="-18" rx="27" ry="18"/>
<text text-anchor="middle" x="1565" y="-14.3" font-family="Times,serif" font-size="14.00">e</text>
</g>
<!-- 0&#45;&gt;18 -->
<g id="edge18" class="edge">
<title>0&#45;&gt;18</title>
<path fill="none" stroke="black" d="M1811.91,-97.03C1765.33,-86.19 1674.99,-63.65 1601,-36 1599.15,-35.31 1597.27,-34.56 1595.39,-33.78"/>
<polygon fill="black" stroke="black" points="1596.63,-30.5 1586.07,-29.67 1593.8,-36.91 1596.63,-30.5"/>
<text text-anchor="middle" x="1713.5" y="-57.8" font-family="Times,serif" font-size="14.00">dep</text>
</g>
<!-- 19 -->
<g id="node20" class="node">
<title>19</title>
<ellipse fill="none" stroke="black" cx="1681" cy="-18" rx="70.69" ry="18"/>
<text text-anchor="middle" x="1681" y="-14.3" font-family="Times,serif" font-size="14.00">agro&#45;turismo</text>
</g>
<!-- 0&#45;&gt;19 -->
<g id="edge19" class="edge">
<title>0&#45;&gt;19</title>
<path fill="none" stroke="black" d="M1819.44,-91.64C1793.28,-77.91 1750.64,-55.54 1719.59,-39.25"/>
<polygon fill="black" stroke="black" points="1720.83,-35.95 1710.35,-34.4 1717.58,-42.15 1720.83,-35.95"/>
<text text-anchor="middle" x="1785.5" y="-57.8" font-family="Times,serif" font-size="14.00">dep</text>
</g>
<!-- 20 -->
<g id="node21" class="node">
<title>20</title>
<ellipse fill="none" stroke="black" cx="1797" cy="-18" rx="27" ry="18"/>
<text text-anchor="middle" x="1797" y="-14.3" font-family="Times,serif" font-size="14.00">,</text>
</g>
<!-- 0&#45;&gt;20 -->
<g id="edge20" class="edge">
<title>0&#45;&gt;20</title>
<path fill="none" stroke="black" d="M1833.91,-87.21C1827.27,-74.94 1818.16,-58.1 1810.65,-44.22"/>
<polygon fill="black" stroke="black" points="1813.59,-42.31 1805.76,-35.18 1807.44,-45.64 1813.59,-42.31"/>
<text text-anchor="middle" x="1836.5" y="-57.8" font-family="Times,serif" font-size="14.00">dep</text>
</g>
<!-- 21 -->
<g id="node22" class="node">
<title>21</title>
<ellipse fill="none" stroke="black" cx="1889" cy="-18" rx="46.59" ry="18"/>
<text text-anchor="middle" x="1889" y="-14.3" font-family="Times,serif" font-size="14.00">turismo</text>
</g>
<!-- 0&#45;&gt;21 -->
<g id="edge21" class="edge">
<title>0&#45;&gt;21</title>
<path fill="none" stroke="black" d="M1852.09,-87.21C1858.64,-75.1 1867.61,-58.53 1875.06,-44.76"/>
<polygon fill="black" stroke="black" points="1878.25,-46.22 1879.93,-35.76 1872.09,-42.89 1878.25,-46.22"/>
<text text-anchor="middle" x="1882.5" y="-57.8" font-family="Times,serif" font-size="14.00">dep</text>
</g>
<!-- 22 -->
<g id="node23" class="node">
<title>22</title>
<ellipse fill="none" stroke="black" cx="2012" cy="-18" rx="57.69" ry="18"/>
<text text-anchor="middle" x="2012" y="-14.3" font-family="Times,serif" font-size="14.00">cinegético</text>
</g>
<!-- 0&#45;&gt;22 -->
<g id="edge22" class="edge">
<title>0&#45;&gt;22</title>
<path fill="none" stroke="black" d="M1866.86,-92C1894.6,-78.05 1940.77,-54.83 1973.59,-38.32"/>
<polygon fill="black" stroke="black" points="1975.52,-41.27 1982.88,-33.64 1972.38,-35.01 1975.52,-41.27"/>
<text text-anchor="middle" x="1951.5" y="-57.8" font-family="Times,serif" font-size="14.00">dep</text>
</g>
<!-- 23 -->
<g id="node24" class="node">
<title>23</title>
<ellipse fill="none" stroke="black" cx="2115" cy="-18" rx="27" ry="18"/>
<text text-anchor="middle" x="2115" y="-14.3" font-family="Times,serif" font-size="14.00">e</text>
</g>
<!-- 0&#45;&gt;23 -->
<g id="edge23" class="edge">
<title>0&#45;&gt;23</title>
<path fill="none" stroke="black" d="M1874.1,-96.85C1919.78,-85.94 2007.34,-63.49 2079,-36 2080.84,-35.29 2082.72,-34.54 2084.6,-33.74"/>
<polygon fill="black" stroke="black" points="2086.19,-36.86 2093.91,-29.6 2083.35,-30.47 2086.19,-36.86"/>
<text text-anchor="middle" x="2035.5" y="-57.8" font-family="Times,serif" font-size="14.00">dep</text>
</g>
<!-- 24 -->
<g id="node25" class="node">
<title>24</title>
<ellipse fill="none" stroke="black" cx="2187" cy="-18" rx="27" ry="18"/>
<text text-anchor="middle" x="2187" y="-14.3" font-family="Times,serif" font-size="14.00">o</text>
</g>
<!-- 0&#45;&gt;24 -->
<g id="edge24" class="edge">
<title>0&#45;&gt;24</title>
<path fill="none" stroke="black" d="M1876.44,-100.1C1918.16,-94.86 1991.5,-84.37 2053,-69 2097.59,-57.85 2108.37,-53.17 2151,-36 2152.83,-35.26 2154.69,-34.48 2156.57,-33.67"/>
<polygon fill="black" stroke="black" points="2158.18,-36.78 2165.86,-29.48 2155.31,-30.4 2158.18,-36.78"/>
<text text-anchor="middle" x="2118.5" y="-57.8" font-family="Times,serif" font-size="14.00">dep</text>
</g>
<!-- 25 -->
<g id="node26" class="node">
<title>25</title>
<ellipse fill="none" stroke="black" cx="2316" cy="-18" rx="83.69" ry="18"/>
<text text-anchor="middle" x="2316" y="-14.3" font-family="Times,serif" font-size="14.00">aproveitamento</text>
</g>
<!-- 0&#45;&gt;25 -->
<g id="edge25" class="edge">
<title>0&#45;&gt;25</title>
<path fill="none" stroke="black" d="M1877.1,-101.62C1932.01,-97.41 2043.27,-87.31 2136,-69 2178.9,-60.53 2226.54,-47.11 2262.03,-36.31"/>
<polygon fill="black" stroke="black" points="2263.17,-39.62 2271.7,-33.34 2261.11,-32.93 2263.17,-39.62"/>
<text text-anchor="middle" x="2210.5" y="-57.8" font-family="Times,serif" font-size="14.00">dep</text>
</g>
<!-- 26 -->
<g id="node27" class="node">
<title>26</title>
<ellipse fill="none" stroke="black" cx="2445" cy="-18" rx="27" ry="18"/>
<text text-anchor="middle" x="2445" y="-14.3" font-family="Times,serif" font-size="14.00">de</text>
</g>
<!-- 0&#45;&gt;26 -->
<g id="edge26" class="edge">
<title>0&#45;&gt;26</title>
<path fill="none" stroke="black" d="M1877.11,-101.93C1944.41,-97.62 2098.99,-86.59 2228,-69 2309.02,-57.95 2331.15,-61 2409,-36 2410.92,-35.38 2412.88,-34.68 2414.83,-33.93"/>
<polygon fill="black" stroke="black" points="2416.61,-36.98 2424.43,-29.84 2413.86,-30.54 2416.61,-36.98"/>
<text text-anchor="middle" x="2355.5" y="-57.8" font-family="Times,serif" font-size="14.00">dep</text>
</g>
<!-- 27 -->
<g id="node28" class="node">
<title>27</title>
<ellipse fill="none" stroke="black" cx="2547" cy="-18" rx="57.39" ry="18"/>
<text text-anchor="middle" x="2547" y="-14.3" font-family="Times,serif" font-size="14.00">albufeiras</text>
</g>
<!-- 0&#45;&gt;27 -->
<g id="edge27" class="edge">
<title>0&#45;&gt;27</title>
<path fill="none" stroke="black" d="M1877.72,-104.26C1962.83,-104.35 2188.37,-101.24 2373,-69 2417.1,-61.3 2466,-46.69 2500.69,-35.24"/>
<polygon fill="black" stroke="black" points="2502.16,-38.44 2510.54,-31.95 2499.94,-31.8 2502.16,-38.44"/>
<text text-anchor="middle" x="2450.5" y="-57.8" font-family="Times,serif" font-size="14.00">dep</text>
</g>
<!-- 28 -->
<g id="node29" class="node">
<title>28</title>
<ellipse fill="none" stroke="black" cx="2649" cy="-18" rx="27" ry="18"/>
<text text-anchor="middle" x="2649" y="-14.3" font-family="Times,serif" font-size="14.00">,</text>
</g>
<!-- 0&#45;&gt;28 -->
<g id="edge28" class="edge">
<title>0&#45;&gt;28</title>
<path fill="none" stroke="black" d="M1877.41,-104.09C1972.12,-103.91 2244.43,-100.47 2468,-69 2533.45,-59.79 2550.53,-57.57 2613,-36 2614.91,-35.34 2616.86,-34.61 2618.8,-33.83"/>
<polygon fill="black" stroke="black" points="2620.6,-36.87 2628.38,-29.68 2617.81,-30.44 2620.6,-36.87"/>
<text text-anchor="middle" x="2567.5" y="-57.8" font-family="Times,serif" font-size="14.00">dep</text>
</g>
<!-- 29 -->
<g id="node30" class="node">
<title>29</title>
<ellipse fill="none" stroke="black" cx="2756" cy="-18" rx="61.99" ry="18"/>
<text text-anchor="middle" x="2756" y="-14.3" font-family="Times,serif" font-size="14.00">recorrendo</text>
</g>
<!-- 0&#45;&gt;29 -->
<g id="edge29" class="edge">
<title>0&#45;&gt;29</title>
<path fill="none" stroke="black" d="M1877.59,-103.46C2004.76,-101.29 2446.2,-92.23 2585,-69 2628.04,-61.8 2675.57,-47.35 2709.57,-35.83"/>
<polygon fill="black" stroke="black" points="2710.91,-39.07 2719.23,-32.51 2708.64,-32.45 2710.91,-39.07"/>
<text text-anchor="middle" x="2661.5" y="-57.8" font-family="Times,serif" font-size="14.00">dep</text>
</g>
<!-- 30 -->
<g id="node31" class="node">
<title>30</title>
<ellipse fill="none" stroke="black" cx="2881" cy="-18" rx="45.49" ry="18"/>
<text text-anchor="middle" x="2881" y="-14.3" font-family="Times,serif" font-size="14.00">sempre</text>
</g>
<!-- 0&#45;&gt;30 -->
<g id="edge30" class="edge">
<title>0&#45;&gt;30</title>
<path fill="none" stroke="black" d="M1877.61,-103.37C2014.74,-100.75 2520.21,-89.86 2679,-69 2745.82,-60.22 2761.91,-53.47 2827,-36 2830.38,-35.09 2833.86,-34.11 2837.35,-33.09"/>
<polygon fill="black" stroke="black" points="2838.57,-36.38 2847.14,-30.15 2836.55,-29.67 2838.57,-36.38"/>
<text text-anchor="middle" x="2772.5" y="-57.8" font-family="Times,serif" font-size="14.00">dep</text>
</g>
<!-- 31 -->
<g id="node32" class="node">
<title>31</title>
<ellipse fill="none" stroke="black" cx="2971" cy="-18" rx="27" ry="18"/>
<text text-anchor="middle" x="2971" y="-14.3" font-family="Times,serif" font-size="14.00">a</text>
</g>
<!-- 0&#45;&gt;31 -->
<g id="edge31" class="edge">
<title>0&#45;&gt;31</title>
<path fill="none" stroke="black" d="M1877.58,-103.59C2025.83,-101.69 2608.32,-92.82 2790,-69 2855.53,-60.41 2872.53,-57.57 2935,-36 2936.91,-35.34 2938.86,-34.61 2940.8,-33.83"/>
<polygon fill="black" stroke="black" points="2942.6,-36.87 2950.38,-29.68 2939.81,-30.44 2942.6,-36.87"/>
<text text-anchor="middle" x="2889.5" y="-57.8" font-family="Times,serif" font-size="14.00">dep</text>
</g>
<!-- 32 -->
<g id="node33" class="node">
<title>32</title>
<ellipse fill="none" stroke="black" cx="3043" cy="-18" rx="27" ry="18"/>
<text text-anchor="middle" x="3043" y="-14.3" font-family="Times,serif" font-size="14.00">a</text>
</g>
<!-- 0&#45;&gt;32 -->
<g id="edge32" class="edge">
<title>0&#45;&gt;32</title>
<path fill="none" stroke="black" d="M1877.55,-104.19C2036.99,-104.85 2702.51,-105.33 2907,-69 2944.72,-62.3 2985.69,-45.87 3012.7,-33.67"/>
<polygon fill="black" stroke="black" points="3014.37,-36.75 3021.98,-29.39 3011.44,-30.4 3014.37,-36.75"/>
<text text-anchor="middle" x="2974.5" y="-57.8" font-family="Times,serif" font-size="14.00">dep</text>
</g>
<!-- 33 -->
<g id="node34" class="node">
<title>33</title>
<ellipse fill="none" stroke="black" cx="3115" cy="-18" rx="27.1" ry="18"/>
<text text-anchor="middle" x="3115" y="-14.3" font-family="Times,serif" font-size="14.00">boa</text>
</g>
<!-- 0&#45;&gt;33 -->
<g id="edge33" class="edge">
<title>0&#45;&gt;33</title>
<path fill="none" stroke="black" d="M1877.52,-103.63C2057.1,-101.61 2880.49,-91.2 2992,-69 3025.33,-62.37 3061.06,-46.79 3085.38,-34.77"/>
<polygon fill="black" stroke="black" points="3087.08,-37.83 3094.43,-30.2 3083.92,-31.59 3087.08,-37.83"/>
<text text-anchor="middle" x="3054.5" y="-57.8" font-family="Times,serif" font-size="14.00">dep</text>
</g>
<!-- 34 -->
<g id="node35" class="node">
<title>34</title>
<ellipse fill="none" stroke="black" cx="3216" cy="-18" rx="55.79" ry="18"/>
<text text-anchor="middle" x="3216" y="-14.3" font-family="Times,serif" font-size="14.00">qualidade</text>
</g>
<!-- 0&#45;&gt;34 -->
<g id="edge34" class="edge">
<title>0&#45;&gt;34</title>
<path fill="none" stroke="black" d="M1877.42,-103.65C2064.19,-101.64 2951.87,-91.03 3072,-69 3107.86,-62.43 3146.82,-48.45 3175.17,-36.94"/>
<polygon fill="black" stroke="black" points="3176.82,-40.04 3184.73,-32.99 3174.15,-33.57 3176.82,-40.04"/>
<text text-anchor="middle" x="3142.5" y="-57.8" font-family="Times,serif" font-size="14.00">dep</text>
</g>
<!-- 35 -->
<g id="node36" class="node">
<title>35</title>
<ellipse fill="none" stroke="black" cx="3317" cy="-18" rx="27" ry="18"/>
<text text-anchor="middle" x="3317" y="-14.3" font-family="Times,serif" font-size="14.00">de</text>
</g>
<!-- 0&#45;&gt;35 -->
<g id="edge35" class="edge">
<title>0&#45;&gt;35</title>
<path fill="none" stroke="black" d="M1877.56,-104.2C2058.91,-105.08 2902.04,-107.04 3160,-69 3215.15,-60.87 3228.71,-55.31 3281,-36 3282.85,-35.32 3284.73,-34.58 3286.62,-33.8"/>
<polygon fill="black" stroke="black" points="3288.2,-36.93 3295.94,-29.7 3285.38,-30.52 3288.2,-36.93"/>
<text text-anchor="middle" x="3243.5" y="-57.8" font-family="Times,serif" font-size="14.00">dep</text>
</g>
<!-- 36 -->
<g id="node37" class="node">
<title>36</title>
<ellipse fill="none" stroke="black" cx="3389" cy="-18" rx="27" ry="18"/>
<text text-anchor="middle" x="3389" y="-14.3" font-family="Times,serif" font-size="14.00">o</text>
</g>
<!-- 0&#45;&gt;36 -->
<g id="edge36" class="edge">
<title>0&#45;&gt;36</title>
<path fill="none" stroke="black" d="M1877.59,-103.81C2081.38,-102.58 3121.35,-95.07 3261,-69 3296.14,-62.44 3334,-46.43 3359.36,-34.28"/>
<polygon fill="black" stroke="black" points="3360.99,-37.38 3368.43,-29.84 3357.91,-31.09 3360.99,-37.38"/>
<text text-anchor="middle" x="3325.5" y="-57.8" font-family="Times,serif" font-size="14.00">dep</text>
</g>
<!-- 37 -->
<g id="node38" class="node">
<title>37</title>
<ellipse fill="none" stroke="black" cx="3461" cy="-18" rx="27" ry="18"/>
<text text-anchor="middle" x="3461" y="-14.3" font-family="Times,serif" font-size="14.00">seu</text>
</g>
<!-- 0&#45;&gt;37 -->
<g id="edge37" class="edge">
<title>0&#45;&gt;37</title>
<path fill="none" stroke="black" d="M1877.53,-103.93C2088.11,-103.44 3195.34,-99.39 3343,-69 3374.8,-62.46 3408.68,-47.13 3431.94,-35.16"/>
<polygon fill="black" stroke="black" points="3433.7,-38.19 3440.92,-30.43 3430.44,-31.99 3433.7,-38.19"/>
<text text-anchor="middle" x="3403.5" y="-57.8" font-family="Times,serif" font-size="14.00">dep</text>
</g>
<!-- 38 -->
<g id="node39" class="node">
<title>38</title>
<ellipse fill="none" stroke="black" cx="3568" cy="-18" rx="61.99" ry="18"/>
<text text-anchor="middle" x="3568" y="-14.3" font-family="Times,serif" font-size="14.00">património</text>
</g>
<!-- 0&#45;&gt;38 -->
<g id="edge38" class="edge">
<title>0&#45;&gt;38</title>
<path fill="none" stroke="black" d="M1877.53,-103.87C2094.4,-102.94 3264.41,-96.69 3421,-69 3457.37,-62.57 3496.92,-48.7 3525.82,-37.2"/>
<polygon fill="black" stroke="black" points="3527.24,-40.4 3535.2,-33.4 3524.61,-33.91 3527.24,-40.4"/>
<text text-anchor="middle" x="3492.5" y="-57.8" font-family="Times,serif" font-size="14.00">dep</text>
</g>
<!-- 39 -->
<g id="node40" class="node">
<title>39</title>
<ellipse fill="none" stroke="black" cx="3692" cy="-18" rx="44.39" ry="18"/>
<text text-anchor="middle" x="3692" y="-14.3" font-family="Times,serif" font-size="14.00">natural</text>
</g>
<!-- 0&#45;&gt;39 -->
<g id="edge39" class="edge">
<title>0&#45;&gt;39</title>
<path fill="none" stroke="black" d="M1877.62,-103.75C2101.73,-102.07 3343.11,-91.79 3510,-69 3559.11,-62.29 3613.74,-46.05 3650.21,-33.89"/>
<polygon fill="black" stroke="black" points="3651.64,-37.1 3659.99,-30.58 3649.4,-30.47 3651.64,-37.1"/>
<text text-anchor="middle" x="3595.5" y="-57.8" font-family="Times,serif" font-size="14.00">dep</text>
</g>
<!-- 40 -->
<g id="node41" class="node">
<title>40</title>
<ellipse fill="none" stroke="black" cx="3781" cy="-18" rx="27" ry="18"/>
<text text-anchor="middle" x="3781" y="-14.3" font-family="Times,serif" font-size="14.00">.</text>
</g>
<!-- 0&#45;&gt;40 -->
<g id="edge40" class="edge">
<title>0&#45;&gt;40</title>
<path fill="none" stroke="black" d="M1877.49,-103.79C2109.2,-102.28 3435.15,-92.68 3613,-69 3672.94,-61.02 3688.05,-56.34 3745,-36 3746.86,-35.34 3748.74,-34.61 3750.63,-33.84"/>
<polygon fill="black" stroke="black" points="3752.2,-36.98 3759.97,-29.77 3749.41,-30.56 3752.2,-36.98"/>
<text text-anchor="middle" x="3705.5" y="-57.8" font-family="Times,serif" font-size="14.00">dep</text>
</g>
</g>
</svg>
