<?xml version="1.0" encoding="UTF-8" standalone="no"?>
<!DOCTYPE svg PUBLIC "-//W3C//DTD SVG 1.1//EN"
 "http://www.w3.org/Graphics/SVG/1.1/DTD/svg11.dtd">
<!-- Generated by graphviz version 2.42.4 (0)
 -->
<!-- Pages: 1 -->
<svg width="3900pt" height="131pt"
 viewBox="0.00 0.00 3900.00 131.00" xmlns="http://www.w3.org/2000/svg" xmlns:xlink="http://www.w3.org/1999/xlink">
<g id="graph0" class="graph" transform="scale(1 1) rotate(0) translate(4 127)">
<polygon fill="white" stroke="transparent" points="-4,4 -4,-127 3896,-127 3896,4 -4,4"/>
<!-- 0 -->
<g id="node1" class="node">
<title>0</title>
<ellipse fill="none" stroke="black" cx="2003" cy="-105" rx="50.09" ry="18"/>
<text text-anchor="middle" x="2003" y="-101.3" font-family="Times,serif" font-size="14.00">Portugal</text>
</g>
<!-- 1 -->
<g id="node2" class="node">
<title>1</title>
<ellipse fill="none" stroke="black" cx="27" cy="-18" rx="27" ry="18"/>
<text text-anchor="middle" x="27" y="-14.3" font-family="Times,serif" font-size="14.00">,</text>
</g>
<!-- 0&#45;&gt;1 -->
<g id="edge1" class="edge">
<title>0&#45;&gt;1</title>
<path fill="none" stroke="black" d="M1952.93,-103.91C1676.84,-103.33 346.35,-98.95 166,-69 127.3,-62.57 85.22,-45.98 57.62,-33.66"/>
<polygon fill="black" stroke="black" points="59.04,-30.46 48.49,-29.5 56.14,-36.83 59.04,-30.46"/>
<text text-anchor="middle" x="179.5" y="-57.8" font-family="Times,serif" font-size="14.00">dep</text>
</g>
<!-- 2 -->
<g id="node3" class="node">
<title>2</title>
<ellipse fill="none" stroke="black" cx="117" cy="-18" rx="45.49" ry="18"/>
<text text-anchor="middle" x="117" y="-14.3" font-family="Times,serif" font-size="14.00">através</text>
</g>
<!-- 0&#45;&gt;2 -->
<g id="edge2" class="edge">
<title>0&#45;&gt;2</title>
<path fill="none" stroke="black" d="M1952.98,-104.02C1684.49,-103.98 419.92,-102.05 249,-69 215.72,-62.56 179.86,-48.48 153.93,-36.9"/>
<polygon fill="black" stroke="black" points="155.06,-33.57 144.51,-32.61 152.16,-39.94 155.06,-33.57"/>
<text text-anchor="middle" x="262.5" y="-57.8" font-family="Times,serif" font-size="14.00">dep</text>
</g>
<!-- 3 -->
<g id="node4" class="node">
<title>3</title>
<ellipse fill="none" stroke="black" cx="207" cy="-18" rx="27" ry="18"/>
<text text-anchor="middle" x="207" y="-14.3" font-family="Times,serif" font-size="14.00">de</text>
</g>
<!-- 0&#45;&gt;3 -->
<g id="edge3" class="edge">
<title>0&#45;&gt;3</title>
<path fill="none" stroke="black" d="M1952.68,-103.99C1690.89,-103.81 490.54,-101.21 328,-69 295.13,-62.49 259.99,-46.89 236.09,-34.84"/>
<polygon fill="black" stroke="black" points="237.7,-31.73 227.2,-30.25 234.49,-37.95 237.7,-31.73"/>
<text text-anchor="middle" x="341.5" y="-57.8" font-family="Times,serif" font-size="14.00">dep</text>
</g>
<!-- 4 -->
<g id="node5" class="node">
<title>4</title>
<ellipse fill="none" stroke="black" cx="279" cy="-18" rx="27" ry="18"/>
<text text-anchor="middle" x="279" y="-14.3" font-family="Times,serif" font-size="14.00">o</text>
</g>
<!-- 0&#45;&gt;4 -->
<g id="edge4" class="edge">
<title>0&#45;&gt;4</title>
<path fill="none" stroke="black" d="M1952.71,-103.82C1698.98,-102.77 565.54,-96.57 411,-69 374.63,-62.51 335.33,-46.33 309.15,-34.12"/>
<polygon fill="black" stroke="black" points="310.33,-30.8 299.8,-29.66 307.32,-37.12 310.33,-30.8"/>
<text text-anchor="middle" x="424.5" y="-57.8" font-family="Times,serif" font-size="14.00">dep</text>
</g>
<!-- 5 -->
<g id="node6" class="node">
<title>5</title>
<ellipse fill="none" stroke="black" cx="363" cy="-18" rx="38.99" ry="18"/>
<text text-anchor="middle" x="363" y="-14.3" font-family="Times,serif" font-size="14.00">IPACA</text>
</g>
<!-- 0&#45;&gt;5 -->
<g id="edge5" class="edge">
<title>0&#45;&gt;5</title>
<path fill="none" stroke="black" d="M1952.86,-103.86C1707.43,-103.03 638.58,-97.78 493,-69 459.55,-62.39 423.52,-47.89 397.89,-36.2"/>
<polygon fill="black" stroke="black" points="399.15,-32.93 388.6,-31.88 396.19,-39.28 399.15,-32.93"/>
<text text-anchor="middle" x="506.5" y="-57.8" font-family="Times,serif" font-size="14.00">dep</text>
</g>
<!-- 6 -->
<g id="node7" class="node">
<title>6</title>
<ellipse fill="none" stroke="black" cx="447" cy="-18" rx="27" ry="18"/>
<text text-anchor="middle" x="447" y="-14.3" font-family="Times,serif" font-size="14.00">,</text>
</g>
<!-- 0&#45;&gt;6 -->
<g id="edge6" class="edge">
<title>0&#45;&gt;6</title>
<path fill="none" stroke="black" d="M1952.8,-103.74C1715.33,-102.39 710.53,-95.16 573,-69 538.71,-62.48 501.86,-46.73 476.93,-34.64"/>
<polygon fill="black" stroke="black" points="478.18,-31.35 467.66,-30.04 475.07,-37.62 478.18,-31.35"/>
<text text-anchor="middle" x="586.5" y="-57.8" font-family="Times,serif" font-size="14.00">dep</text>
</g>
<!-- 7 -->
<g id="node8" class="node">
<title>7</title>
<ellipse fill="none" stroke="black" cx="522" cy="-18" rx="29.8" ry="18"/>
<text text-anchor="middle" x="522" y="-14.3" font-family="Times,serif" font-size="14.00">RTP</text>
</g>
<!-- 0&#45;&gt;7 -->
<g id="edge7" class="edge">
<title>0&#45;&gt;7</title>
<path fill="none" stroke="black" d="M1952.74,-103.6C1723.91,-101.65 786.11,-92.3 657,-69 620.42,-62.4 580.77,-46.59 553.97,-34.5"/>
<polygon fill="black" stroke="black" points="555.26,-31.24 544.71,-30.24 552.33,-37.6 555.26,-31.24"/>
<text text-anchor="middle" x="670.5" y="-57.8" font-family="Times,serif" font-size="14.00">dep</text>
</g>
<!-- 8 -->
<g id="node9" class="node">
<title>8</title>
<ellipse fill="none" stroke="black" cx="597" cy="-18" rx="27" ry="18"/>
<text text-anchor="middle" x="597" y="-14.3" font-family="Times,serif" font-size="14.00">e</text>
</g>
<!-- 0&#45;&gt;8 -->
<g id="edge8" class="edge">
<title>0&#45;&gt;8</title>
<path fill="none" stroke="black" d="M1952.94,-104.08C1751.14,-104.19 997.02,-102.32 761,-69 702.83,-60.79 688.25,-55.97 633,-36 631.15,-35.33 629.26,-34.6 627.37,-33.83"/>
<polygon fill="black" stroke="black" points="628.6,-30.55 618.04,-29.75 625.8,-36.96 628.6,-30.55"/>
<text text-anchor="middle" x="774.5" y="-57.8" font-family="Times,serif" font-size="14.00">dep</text>
</g>
<!-- 9 -->
<g id="node10" class="node">
<title>9</title>
<ellipse fill="none" stroke="black" cx="681" cy="-18" rx="38.99" ry="18"/>
<text text-anchor="middle" x="681" y="-14.3" font-family="Times,serif" font-size="14.00">vários</text>
</g>
<!-- 0&#45;&gt;9 -->
<g id="edge9" class="edge">
<title>0&#45;&gt;9</title>
<path fill="none" stroke="black" d="M1952.88,-103.78C1762.47,-102.73 1083.91,-97.05 870,-69 806.19,-60.63 790.76,-54.1 729,-36 726.04,-35.13 723,-34.19 719.95,-33.2"/>
<polygon fill="black" stroke="black" points="720.87,-29.82 710.28,-29.95 718.64,-36.45 720.87,-29.82"/>
<text text-anchor="middle" x="883.5" y="-57.8" font-family="Times,serif" font-size="14.00">dep</text>
</g>
<!-- 10 -->
<g id="node11" class="node">
<title>10</title>
<ellipse fill="none" stroke="black" cx="778" cy="-18" rx="40.09" ry="18"/>
<text text-anchor="middle" x="778" y="-14.3" font-family="Times,serif" font-size="14.00">outros</text>
</g>
<!-- 0&#45;&gt;10 -->
<g id="edge10" class="edge">
<title>0&#45;&gt;10</title>
<path fill="none" stroke="black" d="M1952.93,-103.3C1776.78,-100.66 1186.1,-90.4 998,-69 921.53,-60.3 902.38,-55.77 828,-36 824.66,-35.11 821.23,-34.12 817.8,-33.07"/>
<polygon fill="black" stroke="black" points="818.8,-29.72 808.21,-30.01 816.67,-36.38 818.8,-29.72"/>
<text text-anchor="middle" x="1011.5" y="-57.8" font-family="Times,serif" font-size="14.00">dep</text>
</g>
<!-- 11 -->
<g id="node12" class="node">
<title>11</title>
<ellipse fill="none" stroke="black" cx="901" cy="-18" rx="64.19" ry="18"/>
<text text-anchor="middle" x="901" y="-14.3" font-family="Times,serif" font-size="14.00">organismos</text>
</g>
<!-- 0&#45;&gt;11 -->
<g id="edge11" class="edge">
<title>0&#45;&gt;11</title>
<path fill="none" stroke="black" d="M1952.92,-103.43C1788.57,-101.33 1266.66,-92.9 1100,-69 1048.8,-61.66 991.67,-46.56 951.8,-34.87"/>
<polygon fill="black" stroke="black" points="952.63,-31.46 942.05,-31.97 950.64,-38.17 952.63,-31.46"/>
<text text-anchor="middle" x="1113.5" y="-57.8" font-family="Times,serif" font-size="14.00">dep</text>
</g>
<!-- 12 -->
<g id="node13" class="node">
<title>12</title>
<ellipse fill="none" stroke="black" cx="1033" cy="-18" rx="49.29" ry="18"/>
<text text-anchor="middle" x="1033" y="-14.3" font-family="Times,serif" font-size="14.00">públicos</text>
</g>
<!-- 0&#45;&gt;12 -->
<g id="edge12" class="edge">
<title>0&#45;&gt;12</title>
<path fill="none" stroke="black" d="M1952.9,-103.63C1799.09,-102.19 1335.18,-95.72 1187,-69 1147.68,-61.91 1104.56,-47.28 1073.97,-35.67"/>
<polygon fill="black" stroke="black" points="1075.09,-32.35 1064.5,-32.02 1072.57,-38.88 1075.09,-32.35"/>
<text text-anchor="middle" x="1200.5" y="-57.8" font-family="Times,serif" font-size="14.00">dep</text>
</g>
<!-- 13 -->
<g id="node14" class="node">
<title>13</title>
<ellipse fill="none" stroke="black" cx="1127" cy="-18" rx="27" ry="18"/>
<text text-anchor="middle" x="1127" y="-14.3" font-family="Times,serif" font-size="14.00">e</text>
</g>
<!-- 0&#45;&gt;13 -->
<g id="edge13" class="edge">
<title>0&#45;&gt;13</title>
<path fill="none" stroke="black" d="M1952.82,-102.84C1812.79,-99.41 1419.7,-88.28 1292,-69 1233.48,-60.17 1218.68,-56.06 1163,-36 1161.15,-35.33 1159.26,-34.6 1157.37,-33.83"/>
<polygon fill="black" stroke="black" points="1158.6,-30.55 1148.04,-29.75 1155.8,-36.97 1158.6,-30.55"/>
<text text-anchor="middle" x="1305.5" y="-57.8" font-family="Times,serif" font-size="14.00">dep</text>
</g>
<!-- 14 -->
<g id="node15" class="node">
<title>14</title>
<ellipse fill="none" stroke="black" cx="1223" cy="-18" rx="50.89" ry="18"/>
<text text-anchor="middle" x="1223" y="-14.3" font-family="Times,serif" font-size="14.00">privados</text>
</g>
<!-- 0&#45;&gt;14 -->
<g id="edge14" class="edge">
<title>0&#45;&gt;14</title>
<path fill="none" stroke="black" d="M1953.08,-102.82C1825.45,-99.54 1489.6,-89.2 1380,-69 1340.15,-61.66 1296.32,-47.13 1265.13,-35.62"/>
<polygon fill="black" stroke="black" points="1266.06,-32.23 1255.46,-32 1263.6,-38.78 1266.06,-32.23"/>
<text text-anchor="middle" x="1393.5" y="-57.8" font-family="Times,serif" font-size="14.00">dep</text>
</g>
<!-- 15 -->
<g id="node16" class="node">
<title>15</title>
<ellipse fill="none" stroke="black" cx="1319" cy="-18" rx="27" ry="18"/>
<text text-anchor="middle" x="1319" y="-14.3" font-family="Times,serif" font-size="14.00">,</text>
</g>
<!-- 0&#45;&gt;15 -->
<g id="edge15" class="edge">
<title>0&#45;&gt;15</title>
<path fill="none" stroke="black" d="M1953.02,-103.62C1860.22,-102.26 1655.24,-96.13 1485,-69 1426.13,-59.62 1411.1,-56.15 1355,-36 1353.15,-35.33 1351.26,-34.61 1349.37,-33.84"/>
<polygon fill="black" stroke="black" points="1350.6,-30.55 1340.03,-29.76 1347.8,-36.97 1350.6,-30.55"/>
<text text-anchor="middle" x="1498.5" y="-57.8" font-family="Times,serif" font-size="14.00">dep</text>
</g>
<!-- 16 -->
<g id="node17" class="node">
<title>16</title>
<ellipse fill="none" stroke="black" cx="1417" cy="-18" rx="52.79" ry="18"/>
<text text-anchor="middle" x="1417" y="-14.3" font-family="Times,serif" font-size="14.00">assegura</text>
</g>
<!-- 0&#45;&gt;16 -->
<g id="edge16" class="edge">
<title>0&#45;&gt;16</title>
<path fill="none" stroke="black" d="M1953.04,-103.67C1872.19,-102.3 1708.03,-96.08 1572,-69 1533.09,-61.25 1490.27,-46.98 1459.51,-35.66"/>
<polygon fill="black" stroke="black" points="1460.56,-32.31 1449.97,-32.1 1458.12,-38.87 1460.56,-32.31"/>
<text text-anchor="middle" x="1585.5" y="-57.8" font-family="Times,serif" font-size="14.00">dep</text>
</g>
<!-- 17 -->
<g id="node18" class="node">
<title>17</title>
<ellipse fill="none" stroke="black" cx="1515" cy="-18" rx="27" ry="18"/>
<text text-anchor="middle" x="1515" y="-14.3" font-family="Times,serif" font-size="14.00">o</text>
</g>
<!-- 0&#45;&gt;17 -->
<g id="edge17" class="edge">
<title>0&#45;&gt;17</title>
<path fill="none" stroke="black" d="M1953.59,-101.77C1887.05,-98.11 1765.18,-89.13 1663,-69 1612.09,-58.97 1599.5,-54.47 1551,-36 1549.16,-35.3 1547.28,-34.54 1545.4,-33.75"/>
<polygon fill="black" stroke="black" points="1546.64,-30.48 1536.08,-29.62 1543.81,-36.88 1546.64,-30.48"/>
<text text-anchor="middle" x="1676.5" y="-57.8" font-family="Times,serif" font-size="14.00">dep</text>
</g>
<!-- 18 -->
<g id="node19" class="node">
<title>18</title>
<ellipse fill="none" stroke="black" cx="1602" cy="-18" rx="41.69" ry="18"/>
<text text-anchor="middle" x="1602" y="-14.3" font-family="Times,serif" font-size="14.00">grosso</text>
</g>
<!-- 0&#45;&gt;18 -->
<g id="edge18" class="edge">
<title>0&#45;&gt;18</title>
<path fill="none" stroke="black" d="M1953.94,-100.64C1900.68,-96.27 1813.38,-86.95 1740,-69 1705.28,-60.5 1667.17,-46.31 1639.82,-35.21"/>
<polygon fill="black" stroke="black" points="1640.83,-31.84 1630.25,-31.27 1638.17,-38.31 1640.83,-31.84"/>
<text text-anchor="middle" x="1753.5" y="-57.8" font-family="Times,serif" font-size="14.00">dep</text>
</g>
<!-- 19 -->
<g id="node20" class="node">
<title>19</title>
<ellipse fill="none" stroke="black" cx="1689" cy="-18" rx="27" ry="18"/>
<text text-anchor="middle" x="1689" y="-14.3" font-family="Times,serif" font-size="14.00">de</text>
</g>
<!-- 0&#45;&gt;19 -->
<g id="edge19" class="edge">
<title>0&#45;&gt;19</title>
<path fill="none" stroke="black" d="M1957.44,-97.49C1919.51,-91.58 1864.25,-81.83 1817,-69 1775.08,-57.61 1765.13,-52.63 1725,-36 1723.18,-35.25 1721.32,-34.45 1719.45,-33.63"/>
<polygon fill="black" stroke="black" points="1720.72,-30.36 1710.17,-29.41 1717.83,-36.73 1720.72,-30.36"/>
<text text-anchor="middle" x="1830.5" y="-57.8" font-family="Times,serif" font-size="14.00">dep</text>
</g>
<!-- 20 -->
<g id="node21" class="node">
<title>20</title>
<ellipse fill="none" stroke="black" cx="1761" cy="-18" rx="27" ry="18"/>
<text text-anchor="middle" x="1761" y="-14.3" font-family="Times,serif" font-size="14.00">o</text>
</g>
<!-- 0&#45;&gt;20 -->
<g id="edge20" class="edge">
<title>0&#45;&gt;20</title>
<path fill="none" stroke="black" d="M1965.29,-93.07C1923.6,-80.64 1854.71,-59.05 1797,-36 1795.17,-35.27 1793.3,-34.49 1791.43,-33.68"/>
<polygon fill="black" stroke="black" points="1792.69,-30.41 1782.13,-29.5 1789.82,-36.8 1792.69,-30.41"/>
<text text-anchor="middle" x="1900.5" y="-57.8" font-family="Times,serif" font-size="14.00">dep</text>
</g>
<!-- 21 -->
<g id="node22" class="node">
<title>21</title>
<ellipse fill="none" stroke="black" cx="1882" cy="-18" rx="76.09" ry="18"/>
<text text-anchor="middle" x="1882" y="-14.3" font-family="Times,serif" font-size="14.00">financiamento</text>
</g>
<!-- 0&#45;&gt;21 -->
<g id="edge21" class="edge">
<title>0&#45;&gt;21</title>
<path fill="none" stroke="black" d="M1981.09,-88.61C1962.29,-75.4 1934.97,-56.21 1913.77,-41.32"/>
<polygon fill="black" stroke="black" points="1915.6,-38.32 1905.4,-35.44 1911.57,-44.05 1915.6,-38.32"/>
<text text-anchor="middle" x="1963.5" y="-57.8" font-family="Times,serif" font-size="14.00">dep</text>
</g>
<!-- 22 -->
<g id="node23" class="node">
<title>22</title>
<ellipse fill="none" stroke="black" cx="2003" cy="-18" rx="27" ry="18"/>
<text text-anchor="middle" x="2003" y="-14.3" font-family="Times,serif" font-size="14.00">,</text>
</g>
<!-- 0&#45;&gt;22 -->
<g id="edge22" class="edge">
<title>0&#45;&gt;22</title>
<path fill="none" stroke="black" d="M2003,-86.8C2003,-75.16 2003,-59.55 2003,-46.24"/>
<polygon fill="black" stroke="black" points="2006.5,-46.18 2003,-36.18 1999.5,-46.18 2006.5,-46.18"/>
<text text-anchor="middle" x="2016.5" y="-57.8" font-family="Times,serif" font-size="14.00">dep</text>
</g>
<!-- 23 -->
<g id="node24" class="node">
<title>23</title>
<ellipse fill="none" stroke="black" cx="2097" cy="-18" rx="49.29" ry="18"/>
<text text-anchor="middle" x="2097" y="-14.3" font-family="Times,serif" font-size="14.00">cabendo</text>
</g>
<!-- 0&#45;&gt;23 -->
<g id="edge23" class="edge">
<title>0&#45;&gt;23</title>
<path fill="none" stroke="black" d="M2020.68,-88.01C2035.12,-74.95 2055.72,-56.33 2071.87,-41.72"/>
<polygon fill="black" stroke="black" points="2074.33,-44.22 2079.4,-34.92 2069.63,-39.03 2074.33,-44.22"/>
<text text-anchor="middle" x="2069.5" y="-57.8" font-family="Times,serif" font-size="14.00">dep</text>
</g>
<!-- 24 -->
<g id="node25" class="node">
<title>24</title>
<ellipse fill="none" stroke="black" cx="2191" cy="-18" rx="27" ry="18"/>
<text text-anchor="middle" x="2191" y="-14.3" font-family="Times,serif" font-size="14.00">a</text>
</g>
<!-- 0&#45;&gt;24 -->
<g id="edge24" class="edge">
<title>0&#45;&gt;24</title>
<path fill="none" stroke="black" d="M2035.08,-91.1C2050.81,-84.66 2069.99,-76.63 2087,-69 2112.09,-57.75 2140.18,-44.19 2160.83,-34.03"/>
<polygon fill="black" stroke="black" points="2162.62,-37.05 2170.04,-29.48 2159.52,-30.77 2162.62,-37.05"/>
<text text-anchor="middle" x="2132.5" y="-57.8" font-family="Times,serif" font-size="14.00">dep</text>
</g>
<!-- 25 -->
<g id="node26" class="node">
<title>25</title>
<ellipse fill="none" stroke="black" cx="2272" cy="-18" rx="36" ry="18"/>
<text text-anchor="middle" x="2272" y="-14.3" font-family="Times,serif" font-size="14.00">parte</text>
</g>
<!-- 0&#45;&gt;25 -->
<g id="edge25" class="edge">
<title>0&#45;&gt;25</title>
<path fill="none" stroke="black" d="M2045.94,-95.62C2075.51,-89.39 2115.54,-80.09 2150,-69 2179.88,-59.39 2212.75,-45.73 2236.83,-35.11"/>
<polygon fill="black" stroke="black" points="2238.54,-38.18 2246.26,-30.92 2235.7,-31.79 2238.54,-38.18"/>
<text text-anchor="middle" x="2204.5" y="-57.8" font-family="Times,serif" font-size="14.00">dep</text>
</g>
<!-- 26 -->
<g id="node27" class="node">
<title>26</title>
<ellipse fill="none" stroke="black" cx="2376" cy="-18" rx="50.09" ry="18"/>
<text text-anchor="middle" x="2376" y="-14.3" font-family="Times,serif" font-size="14.00">restante</text>
</g>
<!-- 0&#45;&gt;26 -->
<g id="edge26" class="edge">
<title>0&#45;&gt;26</title>
<path fill="none" stroke="black" d="M2049.98,-98.64C2094.61,-93.04 2163.42,-83.1 2222,-69 2260.1,-59.83 2302.37,-45.82 2332.98,-34.96"/>
<polygon fill="black" stroke="black" points="2334.25,-38.22 2342.48,-31.55 2331.89,-31.63 2334.25,-38.22"/>
<text text-anchor="middle" x="2287.5" y="-57.8" font-family="Times,serif" font-size="14.00">dep</text>
</g>
<!-- 27 -->
<g id="node28" class="node">
<title>27</title>
<ellipse fill="none" stroke="black" cx="2471" cy="-18" rx="27" ry="18"/>
<text text-anchor="middle" x="2471" y="-14.3" font-family="Times,serif" font-size="14.00">a</text>
</g>
<!-- 0&#45;&gt;27 -->
<g id="edge27" class="edge">
<title>0&#45;&gt;27</title>
<path fill="none" stroke="black" d="M2051.41,-100.39C2111.31,-95.46 2216.23,-85.33 2305,-69 2363.63,-58.21 2378.9,-56.15 2435,-36 2436.85,-35.33 2438.74,-34.61 2440.63,-33.84"/>
<polygon fill="black" stroke="black" points="2442.2,-36.97 2449.97,-29.76 2439.4,-30.55 2442.2,-36.97"/>
<text text-anchor="middle" x="2391.5" y="-57.8" font-family="Times,serif" font-size="14.00">dep</text>
</g>
<!-- 28 -->
<g id="node29" class="node">
<title>28</title>
<ellipse fill="none" stroke="black" cx="2543" cy="-18" rx="27" ry="18"/>
<text text-anchor="middle" x="2543" y="-14.3" font-family="Times,serif" font-size="14.00">o</text>
</g>
<!-- 0&#45;&gt;28 -->
<g id="edge28" class="edge">
<title>0&#45;&gt;28</title>
<path fill="none" stroke="black" d="M2052.93,-103.51C2130.08,-101.91 2282.6,-95.33 2409,-69 2453.99,-59.63 2464.37,-53.17 2507,-36 2508.83,-35.26 2510.69,-34.48 2512.57,-33.67"/>
<polygon fill="black" stroke="black" points="2514.18,-36.78 2521.86,-29.48 2511.31,-30.4 2514.18,-36.78"/>
<text text-anchor="middle" x="2476.5" y="-57.8" font-family="Times,serif" font-size="14.00">dep</text>
</g>
<!-- 29 -->
<g id="node30" class="node">
<title>29</title>
<ellipse fill="none" stroke="black" cx="2626" cy="-18" rx="38.19" ry="18"/>
<text text-anchor="middle" x="2626" y="-14.3" font-family="Times,serif" font-size="14.00">Brasil</text>
</g>
<!-- 0&#45;&gt;29 -->
<g id="edge29" class="edge">
<title>0&#45;&gt;29</title>
<path fill="none" stroke="black" d="M2052.83,-102.29C2160.33,-98.29 2410.96,-87.28 2494,-69 2527.74,-61.57 2564.36,-47.16 2590.44,-35.71"/>
<polygon fill="black" stroke="black" points="2592.19,-38.76 2599.9,-31.49 2589.34,-32.37 2592.19,-38.76"/>
<text text-anchor="middle" x="2556.5" y="-57.8" font-family="Times,serif" font-size="14.00">dep</text>
</g>
<!-- 30 -->
<g id="node31" class="node">
<title>30</title>
<ellipse fill="none" stroke="black" cx="2709" cy="-18" rx="27" ry="18"/>
<text text-anchor="middle" x="2709" y="-14.3" font-family="Times,serif" font-size="14.00">e</text>
</g>
<!-- 0&#45;&gt;30 -->
<g id="edge30" class="edge">
<title>0&#45;&gt;30</title>
<path fill="none" stroke="black" d="M2052.68,-102.61C2172.49,-99 2474.79,-88.23 2574,-69 2611.15,-61.8 2651.58,-45.63 2678.41,-33.61"/>
<polygon fill="black" stroke="black" points="2680.01,-36.73 2687.65,-29.4 2677.1,-30.36 2680.01,-36.73"/>
<text text-anchor="middle" x="2641.5" y="-57.8" font-family="Times,serif" font-size="14.00">dep</text>
</g>
<!-- 31 -->
<g id="node32" class="node">
<title>31</title>
<ellipse fill="none" stroke="black" cx="2788" cy="-18" rx="34.39" ry="18"/>
<text text-anchor="middle" x="2788" y="-14.3" font-family="Times,serif" font-size="14.00">Cabo</text>
</g>
<!-- 0&#45;&gt;31 -->
<g id="edge31" class="edge">
<title>0&#45;&gt;31</title>
<path fill="none" stroke="black" d="M2053.21,-103.35C2185.89,-101.3 2543.55,-93.59 2659,-69 2692.75,-61.81 2729.24,-46.95 2754.77,-35.29"/>
<polygon fill="black" stroke="black" points="2756.4,-38.39 2763.99,-30.99 2753.45,-32.04 2756.4,-38.39"/>
<text text-anchor="middle" x="2720.5" y="-57.8" font-family="Times,serif" font-size="14.00">dep</text>
</g>
<!-- 32 -->
<g id="node33" class="node">
<title>32</title>
<ellipse fill="none" stroke="black" cx="2878" cy="-18" rx="37.89" ry="18"/>
<text text-anchor="middle" x="2878" y="-14.3" font-family="Times,serif" font-size="14.00">Verde</text>
</g>
<!-- 0&#45;&gt;32 -->
<g id="edge32" class="edge">
<title>0&#45;&gt;32</title>
<path fill="none" stroke="black" d="M2052.92,-103.52C2196.11,-101.86 2606.39,-94.9 2738,-69 2774.7,-61.78 2814.71,-46.71 2842.52,-34.99"/>
<polygon fill="black" stroke="black" points="2844.01,-38.16 2851.83,-31.01 2841.26,-31.73 2844.01,-38.16"/>
<text text-anchor="middle" x="2803.5" y="-57.8" font-family="Times,serif" font-size="14.00">dep</text>
</g>
<!-- 33 -->
<g id="node34" class="node">
<title>33</title>
<ellipse fill="none" stroke="black" cx="2961" cy="-18" rx="27" ry="18"/>
<text text-anchor="middle" x="2961" y="-14.3" font-family="Times,serif" font-size="14.00">,</text>
</g>
<!-- 0&#45;&gt;33 -->
<g id="edge33" class="edge">
<title>0&#45;&gt;33</title>
<path fill="none" stroke="black" d="M2052.95,-103.59C2206.83,-102.05 2672.28,-95.3 2821,-69 2868.75,-60.56 2879.86,-53.73 2925,-36 2926.83,-35.28 2928.71,-34.51 2930.58,-33.71"/>
<polygon fill="black" stroke="black" points="2932.19,-36.83 2939.89,-29.55 2929.33,-30.44 2932.19,-36.83"/>
<text text-anchor="middle" x="2893.5" y="-57.8" font-family="Times,serif" font-size="14.00">dep</text>
</g>
<!-- 34 -->
<g id="node35" class="node">
<title>34</title>
<ellipse fill="none" stroke="black" cx="3033" cy="-18" rx="27" ry="18"/>
<text text-anchor="middle" x="3033" y="-14.3" font-family="Times,serif" font-size="14.00">e</text>
</g>
<!-- 0&#45;&gt;34 -->
<g id="edge34" class="edge">
<title>0&#45;&gt;34</title>
<path fill="none" stroke="black" d="M2053.2,-104.22C2218.57,-104.61 2745.07,-103.06 2911,-69 2944.06,-62.21 2979.5,-46.66 3003.62,-34.69"/>
<polygon fill="black" stroke="black" points="3005.26,-37.78 3012.59,-30.14 3002.09,-31.54 3005.26,-37.78"/>
<text text-anchor="middle" x="2973.5" y="-57.8" font-family="Times,serif" font-size="14.00">dep</text>
</g>
<!-- 35 -->
<g id="node36" class="node">
<title>35</title>
<ellipse fill="none" stroke="black" cx="3114" cy="-18" rx="36.29" ry="18"/>
<text text-anchor="middle" x="3114" y="-14.3" font-family="Times,serif" font-size="14.00">ainda</text>
</g>
<!-- 0&#45;&gt;35 -->
<g id="edge35" class="edge">
<title>0&#45;&gt;35</title>
<path fill="none" stroke="black" d="M2052.87,-103.25C2240.64,-100.31 2899.06,-88.67 2991,-69 3022.64,-62.23 3056.56,-47.85 3080.75,-36.25"/>
<polygon fill="black" stroke="black" points="3082.4,-39.33 3089.84,-31.79 3079.32,-33.05 3082.4,-39.33"/>
<text text-anchor="middle" x="3053.5" y="-57.8" font-family="Times,serif" font-size="14.00">dep</text>
</g>
<!-- 36 -->
<g id="node37" class="node">
<title>36</title>
<ellipse fill="none" stroke="black" cx="3195" cy="-18" rx="27" ry="18"/>
<text text-anchor="middle" x="3195" y="-14.3" font-family="Times,serif" font-size="14.00">a</text>
</g>
<!-- 0&#45;&gt;36 -->
<g id="edge36" class="edge">
<title>0&#45;&gt;36</title>
<path fill="none" stroke="black" d="M2053.13,-103.32C2250.84,-100.48 2970.69,-88.89 3071,-69 3104.77,-62.3 3141.03,-46.58 3165.56,-34.54"/>
<polygon fill="black" stroke="black" points="3167.31,-37.58 3174.68,-29.97 3164.17,-31.33 3167.31,-37.58"/>
<text text-anchor="middle" x="3134.5" y="-57.8" font-family="Times,serif" font-size="14.00">dep</text>
</g>
<!-- 37 -->
<g id="node38" class="node">
<title>37</title>
<ellipse fill="none" stroke="black" cx="3296" cy="-18" rx="55.79" ry="18"/>
<text text-anchor="middle" x="3296" y="-14.3" font-family="Times,serif" font-size="14.00">entidades</text>
</g>
<!-- 0&#45;&gt;37 -->
<g id="edge37" class="edge">
<title>0&#45;&gt;37</title>
<path fill="none" stroke="black" d="M2053,-103.37C2259.88,-100.64 3043.13,-89.07 3152,-69 3187.85,-62.39 3226.82,-48.42 3255.16,-36.92"/>
<polygon fill="black" stroke="black" points="3256.82,-40.02 3264.72,-32.97 3254.14,-33.55 3256.82,-40.02"/>
<text text-anchor="middle" x="3222.5" y="-57.8" font-family="Times,serif" font-size="14.00">dep</text>
</g>
<!-- 38 -->
<g id="node39" class="node">
<title>38</title>
<ellipse fill="none" stroke="black" cx="3414" cy="-18" rx="44.39" ry="18"/>
<text text-anchor="middle" x="3414" y="-14.3" font-family="Times,serif" font-size="14.00">ligadas</text>
</g>
<!-- 0&#45;&gt;38 -->
<g id="edge38" class="edge">
<title>0&#45;&gt;38</title>
<path fill="none" stroke="black" d="M2053.22,-104.17C2254.76,-104.61 3005.3,-103.82 3240,-69 3286.41,-62.12 3337.85,-46.26 3372.68,-34.24"/>
<polygon fill="black" stroke="black" points="3374.21,-37.41 3382.49,-30.8 3371.9,-30.8 3374.21,-37.41"/>
<text text-anchor="middle" x="3321.5" y="-57.8" font-family="Times,serif" font-size="14.00">dep</text>
</g>
<!-- 39 -->
<g id="node40" class="node">
<title>39</title>
<ellipse fill="none" stroke="black" cx="3503" cy="-18" rx="27" ry="18"/>
<text text-anchor="middle" x="3503" y="-14.3" font-family="Times,serif" font-size="14.00">a</text>
</g>
<!-- 0&#45;&gt;39 -->
<g id="edge39" class="edge">
<title>0&#45;&gt;39</title>
<path fill="none" stroke="black" d="M2053.23,-104.2C2264.72,-104.82 3083.66,-104.79 3339,-69 3397.18,-60.85 3411.75,-55.97 3467,-36 3468.85,-35.33 3470.74,-34.6 3472.63,-33.83"/>
<polygon fill="black" stroke="black" points="3474.2,-36.96 3481.96,-29.75 3471.4,-30.55 3474.2,-36.96"/>
<text text-anchor="middle" x="3426.5" y="-57.8" font-family="Times,serif" font-size="14.00">dep</text>
</g>
<!-- 40 -->
<g id="node41" class="node">
<title>40</title>
<ellipse fill="none" stroke="black" cx="3575" cy="-18" rx="27" ry="18"/>
<text text-anchor="middle" x="3575" y="-14.3" font-family="Times,serif" font-size="14.00">a</text>
</g>
<!-- 0&#45;&gt;40 -->
<g id="edge40" class="edge">
<title>0&#45;&gt;40</title>
<path fill="none" stroke="black" d="M2053.18,-103.7C2291.71,-102.16 3305.11,-94.17 3444,-69 3480.11,-62.46 3519.11,-46.28 3545.09,-34.09"/>
<polygon fill="black" stroke="black" points="3546.86,-37.12 3554.37,-29.64 3543.84,-30.81 3546.86,-37.12"/>
<text text-anchor="middle" x="3509.5" y="-57.8" font-family="Times,serif" font-size="14.00">dep</text>
</g>
<!-- 41 -->
<g id="node42" class="node">
<title>41</title>
<ellipse fill="none" stroke="black" cx="3658" cy="-18" rx="38.19" ry="18"/>
<text text-anchor="middle" x="3658" y="-14.3" font-family="Times,serif" font-size="14.00">União</text>
</g>
<!-- 0&#45;&gt;41 -->
<g id="edge41" class="edge">
<title>0&#45;&gt;41</title>
<path fill="none" stroke="black" d="M2053.19,-103.86C2300.11,-103.05 3379.95,-97.86 3527,-69 3560.89,-62.35 3597.45,-47.71 3623.31,-35.99"/>
<polygon fill="black" stroke="black" points="3625.07,-39.03 3632.67,-31.66 3622.13,-32.68 3625.07,-39.03"/>
<text text-anchor="middle" x="3592.5" y="-57.8" font-family="Times,serif" font-size="14.00">dep</text>
</g>
<!-- 42 -->
<g id="node43" class="node">
<title>42</title>
<ellipse fill="none" stroke="black" cx="3767" cy="-18" rx="52.79" ry="18"/>
<text text-anchor="middle" x="3767" y="-14.3" font-family="Times,serif" font-size="14.00">Europeia</text>
</g>
<!-- 0&#45;&gt;42 -->
<g id="edge42" class="edge">
<title>0&#45;&gt;42</title>
<path fill="none" stroke="black" d="M2053.33,-103.76C2308.55,-102.43 3453.61,-95.05 3610,-69 3649.97,-62.34 3693.79,-47.74 3724.95,-36.03"/>
<polygon fill="black" stroke="black" points="3726.51,-39.18 3734.6,-32.34 3724.01,-32.64 3726.51,-39.18"/>
<text text-anchor="middle" x="3685.5" y="-57.8" font-family="Times,serif" font-size="14.00">dep</text>
</g>
<!-- 43 -->
<g id="node44" class="node">
<title>43</title>
<ellipse fill="none" stroke="black" cx="3865" cy="-18" rx="27" ry="18"/>
<text text-anchor="middle" x="3865" y="-14.3" font-family="Times,serif" font-size="14.00">.</text>
</g>
<!-- 0&#45;&gt;43 -->
<g id="edge43" class="edge">
<title>0&#45;&gt;43</title>
<path fill="none" stroke="black" d="M2053.15,-103.67C2316.75,-101.85 3536.25,-92.22 3703,-69 3760.34,-61.02 3774.59,-55.78 3829,-36 3830.85,-35.33 3832.74,-34.59 3834.63,-33.82"/>
<polygon fill="black" stroke="black" points="3836.2,-36.95 3843.96,-29.73 3833.39,-30.54 3836.2,-36.95"/>
<text text-anchor="middle" x="3789.5" y="-57.8" font-family="Times,serif" font-size="14.00">dep</text>
</g>
</g>
</svg>
