<?xml version="1.0" encoding="UTF-8" standalone="no"?>
<!DOCTYPE svg PUBLIC "-//W3C//DTD SVG 1.1//EN"
 "http://www.w3.org/Graphics/SVG/1.1/DTD/svg11.dtd">
<!-- Generated by graphviz version 2.42.4 (0)
 -->
<!-- Pages: 1 -->
<svg width="1242pt" height="131pt"
 viewBox="0.00 0.00 1242.00 131.00" xmlns="http://www.w3.org/2000/svg" xmlns:xlink="http://www.w3.org/1999/xlink">
<g id="graph0" class="graph" transform="scale(1 1) rotate(0) translate(4 127)">
<polygon fill="white" stroke="transparent" points="-4,4 -4,-127 1238,-127 1238,4 -4,4"/>
<!-- 0 -->
<g id="node1" class="node">
<title>0</title>
<ellipse fill="none" stroke="black" cx="625" cy="-105" rx="46.59" ry="18"/>
<text text-anchor="middle" x="625" y="-101.3" font-family="Times,serif" font-size="14.00">Tomado</text>
</g>
<!-- 1 -->
<g id="node2" class="node">
<title>1</title>
<ellipse fill="none" stroke="black" cx="27" cy="-18" rx="27" ry="18"/>
<text text-anchor="middle" x="27" y="-14.3" font-family="Times,serif" font-size="14.00">de</text>
</g>
<!-- 0&#45;&gt;1 -->
<g id="edge1" class="edge">
<title>0&#45;&gt;1</title>
<path fill="none" stroke="black" d="M578.36,-102.66C499.25,-99.85 333.9,-91.58 196,-69 135.9,-59.16 120.37,-56.44 63,-36 61.1,-35.32 59.16,-34.58 57.22,-33.79"/>
<polygon fill="black" stroke="black" points="58.21,-30.4 47.64,-29.6 55.4,-36.82 58.21,-30.4"/>
<text text-anchor="middle" x="209.5" y="-57.8" font-family="Times,serif" font-size="14.00">dep</text>
</g>
<!-- 2 -->
<g id="node3" class="node">
<title>2</title>
<ellipse fill="none" stroke="black" cx="124" cy="-18" rx="51.99" ry="18"/>
<text text-anchor="middle" x="124" y="-14.3" font-family="Times,serif" font-size="14.00">surpresa</text>
</g>
<!-- 0&#45;&gt;2 -->
<g id="edge2" class="edge">
<title>0&#45;&gt;2</title>
<path fill="none" stroke="black" d="M578.5,-102.18C512.44,-98.93 387.91,-90.34 284,-69 243.7,-60.72 199.11,-46.34 167.27,-35.12"/>
<polygon fill="black" stroke="black" points="168.41,-31.81 157.81,-31.75 166.06,-38.4 168.41,-31.81"/>
<text text-anchor="middle" x="297.5" y="-57.8" font-family="Times,serif" font-size="14.00">dep</text>
</g>
<!-- 3 -->
<g id="node4" class="node">
<title>3</title>
<ellipse fill="none" stroke="black" cx="221" cy="-18" rx="27" ry="18"/>
<text text-anchor="middle" x="221" y="-14.3" font-family="Times,serif" font-size="14.00">,</text>
</g>
<!-- 0&#45;&gt;3 -->
<g id="edge3" class="edge">
<title>0&#45;&gt;3</title>
<path fill="none" stroke="black" d="M579.42,-100.82C508.47,-94.73 368.21,-78.05 257,-36 255.16,-35.3 253.28,-34.55 251.4,-33.76"/>
<polygon fill="black" stroke="black" points="252.64,-30.49 242.08,-29.64 249.81,-36.89 252.64,-30.49"/>
<text text-anchor="middle" x="379.5" y="-57.8" font-family="Times,serif" font-size="14.00">dep</text>
</g>
<!-- 4 -->
<g id="node5" class="node">
<title>4</title>
<ellipse fill="none" stroke="black" cx="315" cy="-18" rx="48.99" ry="18"/>
<text text-anchor="middle" x="315" y="-14.3" font-family="Times,serif" font-size="14.00">Santana</text>
</g>
<!-- 0&#45;&gt;4 -->
<g id="edge4" class="edge">
<title>0&#45;&gt;4</title>
<path fill="none" stroke="black" d="M581.95,-97.8C545.17,-92 491.05,-82.22 445,-69 413.88,-60.06 379.75,-46.8 354.27,-36.18"/>
<polygon fill="black" stroke="black" points="355.53,-32.91 344.96,-32.25 352.81,-39.36 355.53,-32.91"/>
<text text-anchor="middle" x="458.5" y="-57.8" font-family="Times,serif" font-size="14.00">dep</text>
</g>
<!-- 5 -->
<g id="node6" class="node">
<title>5</title>
<ellipse fill="none" stroke="black" cx="410" cy="-18" rx="27.9" ry="18"/>
<text text-anchor="middle" x="410" y="-14.3" font-family="Times,serif" font-size="14.00">deu</text>
</g>
<!-- 0&#45;&gt;5 -->
<g id="edge5" class="edge">
<title>0&#45;&gt;5</title>
<path fill="none" stroke="black" d="M587.08,-94.36C564.14,-88.09 534.49,-79.19 509,-69 484.88,-59.36 458.68,-45.99 439.3,-35.5"/>
<polygon fill="black" stroke="black" points="440.82,-32.35 430.37,-30.61 437.46,-38.49 440.82,-32.35"/>
<text text-anchor="middle" x="522.5" y="-57.8" font-family="Times,serif" font-size="14.00">dep</text>
</g>
<!-- 6 -->
<g id="node7" class="node">
<title>6</title>
<ellipse fill="none" stroke="black" cx="483" cy="-18" rx="27" ry="18"/>
<text text-anchor="middle" x="483" y="-14.3" font-family="Times,serif" font-size="14.00">um</text>
</g>
<!-- 0&#45;&gt;6 -->
<g id="edge6" class="edge">
<title>0&#45;&gt;6</title>
<path fill="none" stroke="black" d="M599.67,-89.71C588.66,-83.43 575.65,-75.93 564,-69 546.08,-58.33 526.13,-46.03 510.52,-36.29"/>
<polygon fill="black" stroke="black" points="512.22,-33.22 501.88,-30.89 508.51,-39.16 512.22,-33.22"/>
<text text-anchor="middle" x="577.5" y="-57.8" font-family="Times,serif" font-size="14.00">dep</text>
</g>
<!-- 7 -->
<g id="node8" class="node">
<title>7</title>
<ellipse fill="none" stroke="black" cx="571" cy="-18" rx="42.79" ry="18"/>
<text text-anchor="middle" x="571" y="-14.3" font-family="Times,serif" font-size="14.00">sorriso</text>
</g>
<!-- 0&#45;&gt;7 -->
<g id="edge7" class="edge">
<title>0&#45;&gt;7</title>
<path fill="none" stroke="black" d="M614.33,-87.21C606.52,-74.9 595.77,-58 586.94,-44.09"/>
<polygon fill="black" stroke="black" points="589.78,-42.03 581.46,-35.47 583.87,-45.79 589.78,-42.03"/>
<text text-anchor="middle" x="615.5" y="-57.8" font-family="Times,serif" font-size="14.00">dep</text>
</g>
<!-- 8 -->
<g id="node9" class="node">
<title>8</title>
<ellipse fill="none" stroke="black" cx="680" cy="-18" rx="48.19" ry="18"/>
<text text-anchor="middle" x="680" y="-14.3" font-family="Times,serif" font-size="14.00">amarelo</text>
</g>
<!-- 0&#45;&gt;8 -->
<g id="edge8" class="edge">
<title>0&#45;&gt;8</title>
<path fill="none" stroke="black" d="M635.87,-87.21C643.78,-74.98 654.63,-58.21 663.59,-44.36"/>
<polygon fill="black" stroke="black" points="666.66,-46.06 669.16,-35.76 660.79,-42.25 666.66,-46.06"/>
<text text-anchor="middle" x="669.5" y="-57.8" font-family="Times,serif" font-size="14.00">dep</text>
</g>
<!-- 9 -->
<g id="node10" class="node">
<title>9</title>
<ellipse fill="none" stroke="black" cx="773" cy="-18" rx="27" ry="18"/>
<text text-anchor="middle" x="773" y="-14.3" font-family="Times,serif" font-size="14.00">,</text>
</g>
<!-- 0&#45;&gt;9 -->
<g id="edge9" class="edge">
<title>0&#45;&gt;9</title>
<path fill="none" stroke="black" d="M650.38,-89.77C661.62,-83.44 674.99,-75.88 687,-69 706.22,-57.99 727.77,-45.46 744.48,-35.7"/>
<polygon fill="black" stroke="black" points="746.36,-38.66 753.23,-30.59 742.83,-32.61 746.36,-38.66"/>
<text text-anchor="middle" x="724.5" y="-57.8" font-family="Times,serif" font-size="14.00">dep</text>
</g>
<!-- 10 -->
<g id="node11" class="node">
<title>10</title>
<ellipse fill="none" stroke="black" cx="848" cy="-18" rx="29.8" ry="18"/>
<text text-anchor="middle" x="848" y="-14.3" font-family="Times,serif" font-size="14.00">mas</text>
</g>
<!-- 0&#45;&gt;10 -->
<g id="edge10" class="edge">
<title>0&#45;&gt;10</title>
<path fill="none" stroke="black" d="M662.63,-94.29C685.8,-87.93 715.96,-78.97 742,-69 767.87,-59.09 796.21,-45.58 817.07,-35.1"/>
<polygon fill="black" stroke="black" points="818.75,-38.17 826.09,-30.52 815.59,-31.93 818.75,-38.17"/>
<text text-anchor="middle" x="788.5" y="-57.8" font-family="Times,serif" font-size="14.00">dep</text>
</g>
<!-- 11 -->
<g id="node12" class="node">
<title>11</title>
<ellipse fill="none" stroke="black" cx="926" cy="-18" rx="30.59" ry="18"/>
<text text-anchor="middle" x="926" y="-14.3" font-family="Times,serif" font-size="14.00">logo</text>
</g>
<!-- 0&#45;&gt;11 -->
<g id="edge11" class="edge">
<title>0&#45;&gt;11</title>
<path fill="none" stroke="black" d="M668.36,-98.06C705.39,-92.41 759.83,-82.73 806,-69 843.26,-57.92 851.18,-51.1 887,-36 888.84,-35.23 890.72,-34.42 892.62,-33.61"/>
<polygon fill="black" stroke="black" points="894.32,-36.69 902.11,-29.52 891.55,-30.27 894.32,-36.69"/>
<text text-anchor="middle" x="861.5" y="-57.8" font-family="Times,serif" font-size="14.00">dep</text>
</g>
<!-- 12 -->
<g id="node13" class="node">
<title>12</title>
<ellipse fill="none" stroke="black" cx="1032" cy="-18" rx="57.69" ry="18"/>
<text text-anchor="middle" x="1032" y="-14.3" font-family="Times,serif" font-size="14.00">recuperou</text>
</g>
<!-- 0&#45;&gt;12 -->
<g id="edge12" class="edge">
<title>0&#45;&gt;12</title>
<path fill="none" stroke="black" d="M670.41,-100.21C721.57,-95.38 806.99,-85.59 879,-69 916.23,-60.42 957.33,-46.75 987.54,-35.87"/>
<polygon fill="black" stroke="black" points="988.75,-39.15 996.95,-32.44 986.36,-32.57 988.75,-39.15"/>
<text text-anchor="middle" x="944.5" y="-57.8" font-family="Times,serif" font-size="14.00">dep</text>
</g>
<!-- 13 -->
<g id="node14" class="node">
<title>13</title>
<ellipse fill="none" stroke="black" cx="1135" cy="-18" rx="27" ry="18"/>
<text text-anchor="middle" x="1135" y="-14.3" font-family="Times,serif" font-size="14.00">se</text>
</g>
<!-- 0&#45;&gt;13 -->
<g id="edge13" class="edge">
<title>0&#45;&gt;13</title>
<path fill="none" stroke="black" d="M670.78,-101.18C735.85,-96.74 858.66,-86.73 962,-69 1023.73,-58.41 1039.93,-56.81 1099,-36 1100.91,-35.33 1102.85,-34.59 1104.79,-33.8"/>
<polygon fill="black" stroke="black" points="1106.6,-36.83 1114.36,-29.63 1103.8,-30.42 1106.6,-36.83"/>
<text text-anchor="middle" x="1054.5" y="-57.8" font-family="Times,serif" font-size="14.00">dep</text>
</g>
<!-- 14 -->
<g id="node15" class="node">
<title>14</title>
<ellipse fill="none" stroke="black" cx="1207" cy="-18" rx="27" ry="18"/>
<text text-anchor="middle" x="1207" y="-14.3" font-family="Times,serif" font-size="14.00">:</text>
</g>
<!-- 0&#45;&gt;14 -->
<g id="edge14" class="edge">
<title>0&#45;&gt;14</title>
<path fill="none" stroke="black" d="M671.85,-104.06C753.81,-103.34 928.19,-98.14 1072,-69 1117.46,-59.79 1127.95,-53.27 1171,-36 1172.83,-35.27 1174.7,-34.49 1176.57,-33.68"/>
<polygon fill="black" stroke="black" points="1178.18,-36.79 1185.87,-29.49 1175.31,-30.41 1178.18,-36.79"/>
<text text-anchor="middle" x="1139.5" y="-57.8" font-family="Times,serif" font-size="14.00">dep</text>
</g>
</g>
</svg>
