<?xml version="1.0" encoding="UTF-8" standalone="no"?>
<!DOCTYPE svg PUBLIC "-//W3C//DTD SVG 1.1//EN"
 "http://www.w3.org/Graphics/SVG/1.1/DTD/svg11.dtd">
<!-- Generated by graphviz version 2.42.4 (0)
 -->
<!-- Pages: 1 -->
<svg width="2727pt" height="131pt"
 viewBox="0.00 0.00 2727.05 131.00" xmlns="http://www.w3.org/2000/svg" xmlns:xlink="http://www.w3.org/1999/xlink">
<g id="graph0" class="graph" transform="scale(1 1) rotate(0) translate(4 127)">
<polygon fill="white" stroke="transparent" points="-4,4 -4,-127 2723.05,-127 2723.05,4 -4,4"/>
<!-- 0 -->
<g id="node1" class="node">
<title>0</title>
<ellipse fill="none" stroke="black" cx="1450.05" cy="-105" rx="27" ry="18"/>
<text text-anchor="middle" x="1450.05" y="-101.3" font-family="Times,serif" font-size="14.00">Em</text>
</g>
<!-- 1 -->
<g id="node2" class="node">
<title>1</title>
<ellipse fill="none" stroke="black" cx="37.05" cy="-18" rx="37.09" ry="18"/>
<text text-anchor="middle" x="37.05" y="-14.3" font-family="Times,serif" font-size="14.00">causa</text>
</g>
<!-- 0&#45;&gt;1 -->
<g id="edge1" class="edge">
<title>0&#45;&gt;1</title>
<path fill="none" stroke="black" d="M1422.84,-104.19C1262.95,-105.14 444.14,-108.02 196.05,-69 152.91,-62.22 105.39,-46.06 73.63,-33.93"/>
<polygon fill="black" stroke="black" points="74.9,-30.67 64.31,-30.32 72.37,-37.2 74.9,-30.67"/>
<text text-anchor="middle" x="209.55" y="-57.8" font-family="Times,serif" font-size="14.00">dep</text>
</g>
<!-- 2 -->
<g id="node3" class="node">
<title>2</title>
<ellipse fill="none" stroke="black" cx="132.05" cy="-18" rx="40.09" ry="18"/>
<text text-anchor="middle" x="132.05" y="-14.3" font-family="Times,serif" font-size="14.00">estará</text>
</g>
<!-- 0&#45;&gt;2 -->
<g id="edge2" class="edge">
<title>0&#45;&gt;2</title>
<path fill="none" stroke="black" d="M1422.61,-104.17C1269.23,-104.99 516.51,-106.96 288.05,-69 246.65,-62.12 201.16,-46.57 170.04,-34.62"/>
<polygon fill="black" stroke="black" points="171.05,-31.26 160.46,-30.88 168.51,-37.78 171.05,-31.26"/>
<text text-anchor="middle" x="301.55" y="-57.8" font-family="Times,serif" font-size="14.00">dep</text>
</g>
<!-- 3 -->
<g id="node4" class="node">
<title>3</title>
<ellipse fill="none" stroke="black" cx="217.05" cy="-18" rx="27" ry="18"/>
<text text-anchor="middle" x="217.05" y="-14.3" font-family="Times,serif" font-size="14.00">,</text>
</g>
<!-- 0&#45;&gt;3 -->
<g id="edge3" class="edge">
<title>0&#45;&gt;3</title>
<path fill="none" stroke="black" d="M1422.8,-103.63C1281.28,-101.61 628.99,-91.26 428.05,-69 349.38,-60.29 328.33,-60.43 253.05,-36 251.12,-35.38 249.17,-34.67 247.22,-33.92"/>
<polygon fill="black" stroke="black" points="248.19,-30.53 237.62,-29.81 245.44,-36.96 248.19,-30.53"/>
<text text-anchor="middle" x="441.55" y="-57.8" font-family="Times,serif" font-size="14.00">dep</text>
</g>
<!-- 4 -->
<g id="node5" class="node">
<title>4</title>
<ellipse fill="none" stroke="black" cx="344.05" cy="-18" rx="81.79" ry="18"/>
<text text-anchor="middle" x="344.05" y="-14.3" font-family="Times,serif" font-size="14.00">nomeadamente</text>
</g>
<!-- 0&#45;&gt;4 -->
<g id="edge4" class="edge">
<title>0&#45;&gt;4</title>
<path fill="none" stroke="black" d="M1422.72,-103.83C1289.13,-102.84 703.88,-96.98 524.05,-69 479.81,-62.12 430.95,-48.12 395.31,-36.68"/>
<polygon fill="black" stroke="black" points="396.22,-33.3 385.63,-33.53 394.05,-39.96 396.22,-33.3"/>
<text text-anchor="middle" x="537.55" y="-57.8" font-family="Times,serif" font-size="14.00">dep</text>
</g>
<!-- 5 -->
<g id="node6" class="node">
<title>5</title>
<ellipse fill="none" stroke="black" cx="471.05" cy="-18" rx="27" ry="18"/>
<text text-anchor="middle" x="471.05" y="-14.3" font-family="Times,serif" font-size="14.00">,</text>
</g>
<!-- 0&#45;&gt;5 -->
<g id="edge5" class="edge">
<title>0&#45;&gt;5</title>
<path fill="none" stroke="black" d="M1422.94,-103.79C1297.87,-102.68 775.77,-96.46 615.05,-69 565.57,-60.55 553.86,-54.1 507.05,-36 505.21,-35.29 503.33,-34.53 501.45,-33.73"/>
<polygon fill="black" stroke="black" points="502.7,-30.46 492.15,-29.59 499.86,-36.85 502.7,-30.46"/>
<text text-anchor="middle" x="628.55" y="-57.8" font-family="Times,serif" font-size="14.00">dep</text>
</g>
<!-- 6 -->
<g id="node7" class="node">
<title>6</title>
<ellipse fill="none" stroke="black" cx="543.05" cy="-18" rx="27" ry="18"/>
<text text-anchor="middle" x="543.05" y="-14.3" font-family="Times,serif" font-size="14.00">a</text>
</g>
<!-- 0&#45;&gt;6 -->
<g id="edge6" class="edge">
<title>0&#45;&gt;6</title>
<path fill="none" stroke="black" d="M1422.86,-103.92C1329.7,-103.38 1014.88,-99.28 757.05,-69 677.14,-59.62 655.62,-60.72 579.05,-36 577.12,-35.38 575.17,-34.68 573.22,-33.92"/>
<polygon fill="black" stroke="black" points="574.19,-30.53 563.62,-29.83 571.44,-36.97 574.19,-30.53"/>
<text text-anchor="middle" x="770.55" y="-57.8" font-family="Times,serif" font-size="14.00">dep</text>
</g>
<!-- 7 -->
<g id="node8" class="node">
<title>7</title>
<ellipse fill="none" stroke="black" cx="671.05" cy="-18" rx="83.39" ry="18"/>
<text text-anchor="middle" x="671.05" y="-14.3" font-family="Times,serif" font-size="14.00">impossibilidade</text>
</g>
<!-- 0&#45;&gt;7 -->
<g id="edge7" class="edge">
<title>0&#45;&gt;7</title>
<path fill="none" stroke="black" d="M1422.8,-104.4C1337.94,-105.24 1071.14,-104.63 854.05,-69 809.49,-61.69 760.16,-47.86 723.96,-36.6"/>
<polygon fill="black" stroke="black" points="724.7,-33.17 714.11,-33.5 722.6,-39.84 724.7,-33.17"/>
<text text-anchor="middle" x="867.55" y="-57.8" font-family="Times,serif" font-size="14.00">dep</text>
</g>
<!-- 8 -->
<g id="node9" class="node">
<title>8</title>
<ellipse fill="none" stroke="black" cx="799.05" cy="-18" rx="27" ry="18"/>
<text text-anchor="middle" x="799.05" y="-14.3" font-family="Times,serif" font-size="14.00">de</text>
</g>
<!-- 0&#45;&gt;8 -->
<g id="edge8" class="edge">
<title>0&#45;&gt;8</title>
<path fill="none" stroke="black" d="M1423.07,-104.17C1347.36,-104.21 1126.68,-101.32 947.05,-69 895.97,-59.81 883.54,-54.47 835.05,-36 833.21,-35.3 831.33,-34.54 829.45,-33.75"/>
<polygon fill="black" stroke="black" points="830.69,-30.48 820.13,-29.62 827.85,-36.88 830.69,-30.48"/>
<text text-anchor="middle" x="960.55" y="-57.8" font-family="Times,serif" font-size="14.00">dep</text>
</g>
<!-- 9 -->
<g id="node10" class="node">
<title>9</title>
<ellipse fill="none" stroke="black" cx="886.05" cy="-18" rx="42.49" ry="18"/>
<text text-anchor="middle" x="886.05" y="-14.3" font-family="Times,serif" font-size="14.00">alterar</text>
</g>
<!-- 0&#45;&gt;9 -->
<g id="edge9" class="edge">
<title>0&#45;&gt;9</title>
<path fill="none" stroke="black" d="M1422.68,-104.08C1355.19,-103.77 1175.72,-99.85 1030.05,-69 993.22,-61.2 952.87,-46.64 924.27,-35.23"/>
<polygon fill="black" stroke="black" points="925.25,-31.85 914.67,-31.34 922.63,-38.34 925.25,-31.85"/>
<text text-anchor="middle" x="1043.55" y="-57.8" font-family="Times,serif" font-size="14.00">dep</text>
</g>
<!-- 10 -->
<g id="node11" class="node">
<title>10</title>
<ellipse fill="none" stroke="black" cx="973.05" cy="-18" rx="27" ry="18"/>
<text text-anchor="middle" x="973.05" y="-14.3" font-family="Times,serif" font-size="14.00">a</text>
</g>
<!-- 0&#45;&gt;10 -->
<g id="edge10" class="edge">
<title>0&#45;&gt;10</title>
<path fill="none" stroke="black" d="M1422.94,-102.61C1367,-99.4 1234.92,-90.08 1126.05,-69 1073,-58.73 1059.65,-54.93 1009.05,-36 1007.2,-35.31 1005.32,-34.56 1003.44,-33.78"/>
<polygon fill="black" stroke="black" points="1004.68,-30.5 994.12,-29.66 1001.85,-36.9 1004.68,-30.5"/>
<text text-anchor="middle" x="1139.55" y="-57.8" font-family="Times,serif" font-size="14.00">dep</text>
</g>
<!-- 11 -->
<g id="node12" class="node">
<title>11</title>
<ellipse fill="none" stroke="black" cx="1065.05" cy="-18" rx="46.59" ry="18"/>
<text text-anchor="middle" x="1065.05" y="-14.3" font-family="Times,serif" font-size="14.00">fachada</text>
</g>
<!-- 0&#45;&gt;11 -->
<g id="edge11" class="edge">
<title>0&#45;&gt;11</title>
<path fill="none" stroke="black" d="M1423.38,-102.04C1377.72,-98.28 1281.84,-88.63 1203.05,-69 1169.13,-60.55 1131.95,-46.8 1104.73,-35.86"/>
<polygon fill="black" stroke="black" points="1105.76,-32.5 1095.18,-31.97 1103.12,-38.98 1105.76,-32.5"/>
<text text-anchor="middle" x="1216.55" y="-57.8" font-family="Times,serif" font-size="14.00">dep</text>
</g>
<!-- 12 -->
<g id="node13" class="node">
<title>12</title>
<ellipse fill="none" stroke="black" cx="1157.05" cy="-18" rx="27" ry="18"/>
<text text-anchor="middle" x="1157.05" y="-14.3" font-family="Times,serif" font-size="14.00">de</text>
</g>
<!-- 0&#45;&gt;12 -->
<g id="edge12" class="edge">
<title>0&#45;&gt;12</title>
<path fill="none" stroke="black" d="M1423.75,-100.22C1389.36,-94.94 1327.45,-84.25 1276.05,-69 1237.99,-57.71 1229.46,-51.82 1193.05,-36 1191.24,-35.22 1189.39,-34.39 1187.53,-33.56"/>
<polygon fill="black" stroke="black" points="1188.81,-30.29 1178.27,-29.29 1185.89,-36.65 1188.81,-30.29"/>
<text text-anchor="middle" x="1289.55" y="-57.8" font-family="Times,serif" font-size="14.00">dep</text>
</g>
<!-- 13 -->
<g id="node14" class="node">
<title>13</title>
<ellipse fill="none" stroke="black" cx="1229.05" cy="-18" rx="27" ry="18"/>
<text text-anchor="middle" x="1229.05" y="-14.3" font-family="Times,serif" font-size="14.00">o</text>
</g>
<!-- 0&#45;&gt;13 -->
<g id="edge13" class="edge">
<title>0&#45;&gt;13</title>
<path fill="none" stroke="black" d="M1425.62,-96.65C1403.8,-89.94 1371.05,-79.48 1343.05,-69 1307.79,-55.8 1299.41,-51.37 1265.05,-36 1263.25,-35.2 1261.4,-34.36 1259.55,-33.51"/>
<polygon fill="black" stroke="black" points="1260.84,-30.25 1250.3,-29.21 1257.89,-36.6 1260.84,-30.25"/>
<text text-anchor="middle" x="1356.55" y="-57.8" font-family="Times,serif" font-size="14.00">dep</text>
</g>
<!-- 14 -->
<g id="node15" class="node">
<title>14</title>
<ellipse fill="none" stroke="black" cx="1318.05" cy="-18" rx="44.39" ry="18"/>
<text text-anchor="middle" x="1318.05" y="-14.3" font-family="Times,serif" font-size="14.00">edifício</text>
</g>
<!-- 0&#45;&gt;14 -->
<g id="edge14" class="edge">
<title>0&#45;&gt;14</title>
<path fill="none" stroke="black" d="M1431.18,-92.06C1420.55,-85.31 1407.04,-76.71 1395.05,-69 1379.98,-59.31 1363.3,-48.5 1349.33,-39.41"/>
<polygon fill="black" stroke="black" points="1350.88,-36.24 1340.59,-33.71 1347.06,-42.1 1350.88,-36.24"/>
<text text-anchor="middle" x="1408.55" y="-57.8" font-family="Times,serif" font-size="14.00">dep</text>
</g>
<!-- 15 -->
<g id="node16" class="node">
<title>15</title>
<ellipse fill="none" stroke="black" cx="1407.05" cy="-18" rx="27" ry="18"/>
<text text-anchor="middle" x="1407.05" y="-14.3" font-family="Times,serif" font-size="14.00">de</text>
</g>
<!-- 0&#45;&gt;15 -->
<g id="edge15" class="edge">
<title>0&#45;&gt;15</title>
<path fill="none" stroke="black" d="M1441.76,-87.61C1435.57,-75.38 1427,-58.44 1419.92,-44.46"/>
<polygon fill="black" stroke="black" points="1422.95,-42.68 1415.31,-35.34 1416.7,-45.84 1422.95,-42.68"/>
<text text-anchor="middle" x="1445.55" y="-57.8" font-family="Times,serif" font-size="14.00">dep</text>
</g>
<!-- 16 -->
<g id="node17" class="node">
<title>16</title>
<ellipse fill="none" stroke="black" cx="1494.05" cy="-18" rx="41.69" ry="18"/>
<text text-anchor="middle" x="1494.05" y="-14.3" font-family="Times,serif" font-size="14.00">quatro</text>
</g>
<!-- 0&#45;&gt;16 -->
<g id="edge16" class="edge">
<title>0&#45;&gt;16</title>
<path fill="none" stroke="black" d="M1458.53,-87.61C1464.82,-75.46 1473.52,-58.66 1480.73,-44.73"/>
<polygon fill="black" stroke="black" points="1483.95,-46.12 1485.44,-35.63 1477.73,-42.9 1483.95,-46.12"/>
<text text-anchor="middle" x="1488.55" y="-57.8" font-family="Times,serif" font-size="14.00">dep</text>
</g>
<!-- 17 -->
<g id="node18" class="node">
<title>17</title>
<ellipse fill="none" stroke="black" cx="1602.05" cy="-18" rx="48.19" ry="18"/>
<text text-anchor="middle" x="1602.05" y="-14.3" font-family="Times,serif" font-size="14.00">andares</text>
</g>
<!-- 0&#45;&gt;17 -->
<g id="edge17" class="edge">
<title>0&#45;&gt;17</title>
<path fill="none" stroke="black" d="M1470.23,-92.71C1495.04,-78.84 1537.54,-55.07 1567.56,-38.28"/>
<polygon fill="black" stroke="black" points="1569.43,-41.25 1576.45,-33.32 1566.01,-35.14 1569.43,-41.25"/>
<text text-anchor="middle" x="1549.55" y="-57.8" font-family="Times,serif" font-size="14.00">dep</text>
</g>
<!-- 18 -->
<g id="node19" class="node">
<title>18</title>
<ellipse fill="none" stroke="black" cx="1695.05" cy="-18" rx="27" ry="18"/>
<text text-anchor="middle" x="1695.05" y="-14.3" font-family="Times,serif" font-size="14.00">,</text>
</g>
<!-- 0&#45;&gt;18 -->
<g id="edge18" class="edge">
<title>0&#45;&gt;18</title>
<path fill="none" stroke="black" d="M1474.63,-97.36C1514.16,-86.37 1594.01,-62.95 1659.05,-36 1660.87,-35.25 1662.73,-34.45 1664.6,-33.63"/>
<polygon fill="black" stroke="black" points="1666.22,-36.73 1673.88,-29.41 1663.33,-30.36 1666.22,-36.73"/>
<text text-anchor="middle" x="1622.55" y="-57.8" font-family="Times,serif" font-size="14.00">dep</text>
</g>
<!-- 19 -->
<g id="node20" class="node">
<title>19</title>
<ellipse fill="none" stroke="black" cx="1772.05" cy="-18" rx="32.49" ry="18"/>
<text text-anchor="middle" x="1772.05" y="-14.3" font-family="Times,serif" font-size="14.00">cada</text>
</g>
<!-- 0&#45;&gt;19 -->
<g id="edge19" class="edge">
<title>0&#45;&gt;19</title>
<path fill="none" stroke="black" d="M1476.48,-100.54C1513.47,-95.39 1582.59,-84.59 1640.05,-69 1681.57,-57.73 1690.94,-51.58 1731.05,-36 1733.15,-35.18 1735.3,-34.33 1737.48,-33.46"/>
<polygon fill="black" stroke="black" points="1739.02,-36.61 1746.97,-29.61 1736.38,-30.13 1739.02,-36.61"/>
<text text-anchor="middle" x="1700.55" y="-57.8" font-family="Times,serif" font-size="14.00">dep</text>
</g>
<!-- 20 -->
<g id="node21" class="node">
<title>20</title>
<ellipse fill="none" stroke="black" cx="1849.05" cy="-18" rx="27" ry="18"/>
<text text-anchor="middle" x="1849.05" y="-14.3" font-family="Times,serif" font-size="14.00">um</text>
</g>
<!-- 0&#45;&gt;20 -->
<g id="edge20" class="edge">
<title>0&#45;&gt;20</title>
<path fill="none" stroke="black" d="M1477,-102.31C1525.68,-98.85 1631.28,-89.51 1718.05,-69 1761.55,-58.72 1771.67,-52.9 1813.05,-36 1814.87,-35.26 1816.73,-34.47 1818.61,-33.65"/>
<polygon fill="black" stroke="black" points="1820.23,-36.76 1827.89,-29.45 1817.34,-30.38 1820.23,-36.76"/>
<text text-anchor="middle" x="1781.55" y="-57.8" font-family="Times,serif" font-size="14.00">dep</text>
</g>
<!-- 21 -->
<g id="node22" class="node">
<title>21</title>
<ellipse fill="none" stroke="black" cx="1921.05" cy="-18" rx="27" ry="18"/>
<text text-anchor="middle" x="1921.05" y="-14.3" font-family="Times,serif" font-size="14.00">de</text>
</g>
<!-- 0&#45;&gt;21 -->
<g id="edge21" class="edge">
<title>0&#45;&gt;21</title>
<path fill="none" stroke="black" d="M1477.16,-103.72C1536.39,-102.59 1681.44,-96.93 1799.05,-69 1831.88,-61.2 1867.36,-45.8 1891.55,-34.14"/>
<polygon fill="black" stroke="black" points="1893.11,-37.27 1900.55,-29.73 1890.03,-30.99 1893.11,-37.27"/>
<text text-anchor="middle" x="1857.55" y="-57.8" font-family="Times,serif" font-size="14.00">dep</text>
</g>
<!-- 22 -->
<g id="node23" class="node">
<title>22</title>
<ellipse fill="none" stroke="black" cx="1995.05" cy="-18" rx="29.5" ry="18"/>
<text text-anchor="middle" x="1995.05" y="-14.3" font-family="Times,serif" font-size="14.00">eles</text>
</g>
<!-- 0&#45;&gt;22 -->
<g id="edge22" class="edge">
<title>0&#45;&gt;22</title>
<path fill="none" stroke="black" d="M1477.34,-104.56C1545.46,-105.36 1728.08,-103.78 1875.05,-69 1906.7,-61.51 1940.75,-46.6 1964.47,-35.01"/>
<polygon fill="black" stroke="black" points="1966.26,-38.02 1973.65,-30.43 1963.14,-31.76 1966.26,-38.02"/>
<text text-anchor="middle" x="1933.55" y="-57.8" font-family="Times,serif" font-size="14.00">dep</text>
</g>
<!-- 23 -->
<g id="node24" class="node">
<title>23</title>
<ellipse fill="none" stroke="black" cx="2072.05" cy="-18" rx="29.8" ry="18"/>
<text text-anchor="middle" x="2072.05" y="-14.3" font-family="Times,serif" font-size="14.00">com</text>
</g>
<!-- 0&#45;&gt;23 -->
<g id="edge23" class="edge">
<title>0&#45;&gt;23</title>
<path fill="none" stroke="black" d="M1477.14,-103.22C1567.74,-100.44 1859.6,-90.04 1951.05,-69 1982.98,-61.65 2017.31,-46.73 2041.22,-35.09"/>
<polygon fill="black" stroke="black" points="2043.07,-38.07 2050.47,-30.49 2039.96,-31.81 2043.07,-38.07"/>
<text text-anchor="middle" x="2009.55" y="-57.8" font-family="Times,serif" font-size="14.00">dep</text>
</g>
<!-- 24 -->
<g id="node25" class="node">
<title>24</title>
<ellipse fill="none" stroke="black" cx="2156.05" cy="-18" rx="36" ry="18"/>
<text text-anchor="middle" x="2156.05" y="-14.3" font-family="Times,serif" font-size="14.00">cerca</text>
</g>
<!-- 0&#45;&gt;24 -->
<g id="edge24" class="edge">
<title>0&#45;&gt;24</title>
<path fill="none" stroke="black" d="M1477.01,-103.47C1576.12,-101.34 1920.06,-92.38 2027.05,-69 2060.55,-61.68 2096.8,-46.97 2122.32,-35.4"/>
<polygon fill="black" stroke="black" points="2123.93,-38.51 2131.55,-31.13 2121,-32.15 2123.93,-38.51"/>
<text text-anchor="middle" x="2088.55" y="-57.8" font-family="Times,serif" font-size="14.00">dep</text>
</g>
<!-- 25 -->
<g id="node26" class="node">
<title>25</title>
<ellipse fill="none" stroke="black" cx="2237.05" cy="-18" rx="27" ry="18"/>
<text text-anchor="middle" x="2237.05" y="-14.3" font-family="Times,serif" font-size="14.00">de</text>
</g>
<!-- 0&#45;&gt;25 -->
<g id="edge25" class="edge">
<title>0&#45;&gt;25</title>
<path fill="none" stroke="black" d="M1477.27,-103.56C1585.15,-101.68 1982.66,-93.22 2106.05,-69 2141.84,-61.97 2180.62,-46.04 2206.62,-34.04"/>
<polygon fill="black" stroke="black" points="2208.37,-37.08 2215.93,-29.65 2205.39,-30.75 2208.37,-37.08"/>
<text text-anchor="middle" x="2171.55" y="-57.8" font-family="Times,serif" font-size="14.00">dep</text>
</g>
<!-- 26 -->
<g id="node27" class="node">
<title>26</title>
<ellipse fill="none" stroke="black" cx="2311.05" cy="-18" rx="28.7" ry="18"/>
<text text-anchor="middle" x="2311.05" y="-14.3" font-family="Times,serif" font-size="14.00">seis</text>
</g>
<!-- 0&#45;&gt;26 -->
<g id="edge26" class="edge">
<title>0&#45;&gt;26</title>
<path fill="none" stroke="black" d="M1477.13,-103.9C1593.21,-103.28 2049.16,-98.94 2189.05,-69 2221.65,-62.02 2256.65,-46.8 2280.76,-34.97"/>
<polygon fill="black" stroke="black" points="2282.38,-38.07 2289.76,-30.47 2279.25,-31.81 2282.38,-38.07"/>
<text text-anchor="middle" x="2251.55" y="-57.8" font-family="Times,serif" font-size="14.00">dep</text>
</g>
<!-- 27 -->
<g id="node28" class="node">
<title>27</title>
<ellipse fill="none" stroke="black" cx="2401.05" cy="-18" rx="43.59" ry="18"/>
<text text-anchor="middle" x="2401.05" y="-14.3" font-family="Times,serif" font-size="14.00">metros</text>
</g>
<!-- 0&#45;&gt;27 -->
<g id="edge27" class="edge">
<title>0&#45;&gt;27</title>
<path fill="none" stroke="black" d="M1477.09,-104C1600.69,-103.82 2112.56,-101.11 2269.05,-69 2302.47,-62.14 2338.57,-47.96 2364.56,-36.44"/>
<polygon fill="black" stroke="black" points="2366.33,-39.48 2374,-32.18 2363.45,-33.1 2366.33,-39.48"/>
<text text-anchor="middle" x="2331.55" y="-57.8" font-family="Times,serif" font-size="14.00">dep</text>
</g>
<!-- 28 -->
<g id="node29" class="node">
<title>28</title>
<ellipse fill="none" stroke="black" cx="2490.05" cy="-18" rx="27" ry="18"/>
<text text-anchor="middle" x="2490.05" y="-14.3" font-family="Times,serif" font-size="14.00">de</text>
</g>
<!-- 0&#45;&gt;28 -->
<g id="edge28" class="edge">
<title>0&#45;&gt;28</title>
<path fill="none" stroke="black" d="M1477.03,-103.91C1607.65,-103.35 2175.14,-99.16 2349.05,-69 2397.24,-60.64 2408.49,-53.82 2454.05,-36 2455.88,-35.28 2457.75,-34.51 2459.63,-33.71"/>
<polygon fill="black" stroke="black" points="2461.24,-36.83 2468.94,-29.56 2458.38,-30.44 2461.24,-36.83"/>
<text text-anchor="middle" x="2421.55" y="-57.8" font-family="Times,serif" font-size="14.00">dep</text>
</g>
<!-- 29 -->
<g id="node30" class="node">
<title>29</title>
<ellipse fill="none" stroke="black" cx="2591.05" cy="-18" rx="55.79" ry="18"/>
<text text-anchor="middle" x="2591.05" y="-14.3" font-family="Times,serif" font-size="14.00">pé&#45;direito</text>
</g>
<!-- 0&#45;&gt;29 -->
<g id="edge29" class="edge">
<title>0&#45;&gt;29</title>
<path fill="none" stroke="black" d="M1477.39,-104.07C1616.55,-104.28 2246.86,-103.29 2439.05,-69 2477.3,-62.17 2519.12,-47.88 2549.2,-36.32"/>
<polygon fill="black" stroke="black" points="2550.49,-39.57 2558.53,-32.67 2547.94,-33.05 2550.49,-39.57"/>
<text text-anchor="middle" x="2508.55" y="-57.8" font-family="Times,serif" font-size="14.00">dep</text>
</g>
<!-- 30 -->
<g id="node31" class="node">
<title>30</title>
<ellipse fill="none" stroke="black" cx="2692.05" cy="-18" rx="27" ry="18"/>
<text text-anchor="middle" x="2692.05" y="-14.3" font-family="Times,serif" font-size="14.00">.</text>
</g>
<!-- 0&#45;&gt;30 -->
<g id="edge30" class="edge">
<title>0&#45;&gt;30</title>
<path fill="none" stroke="black" d="M1477.31,-103.91C1623.38,-103.31 2314.61,-98.92 2526.05,-69 2585.07,-60.65 2599.95,-56.15 2656.05,-36 2657.9,-35.33 2659.79,-34.61 2661.68,-33.84"/>
<polygon fill="black" stroke="black" points="2663.25,-36.97 2671.01,-29.76 2660.45,-30.55 2663.25,-36.97"/>
<text text-anchor="middle" x="2614.55" y="-57.8" font-family="Times,serif" font-size="14.00">dep</text>
</g>
</g>
</svg>
