<?xml version="1.0" encoding="UTF-8" standalone="no"?>
<!DOCTYPE svg PUBLIC "-//W3C//DTD SVG 1.1//EN"
 "http://www.w3.org/Graphics/SVG/1.1/DTD/svg11.dtd">
<!-- Generated by graphviz version 2.42.4 (0)
 -->
<!-- Pages: 1 -->
<svg width="2232pt" height="131pt"
 viewBox="0.00 0.00 2232.00 131.00" xmlns="http://www.w3.org/2000/svg" xmlns:xlink="http://www.w3.org/1999/xlink">
<g id="graph0" class="graph" transform="scale(1 1) rotate(0) translate(4 127)">
<polygon fill="white" stroke="transparent" points="-4,4 -4,-127 2228,-127 2228,4 -4,4"/>
<!-- 0 -->
<g id="node1" class="node">
<title>0</title>
<ellipse fill="none" stroke="black" cx="1079" cy="-105" rx="94.48" ry="18"/>
<text text-anchor="middle" x="1079" y="-101.3" font-family="Times,serif" font-size="14.00">Recém&#45;promovido</text>
</g>
<!-- 1 -->
<g id="node2" class="node">
<title>1</title>
<ellipse fill="none" stroke="black" cx="27" cy="-18" rx="27" ry="18"/>
<text text-anchor="middle" x="27" y="-14.3" font-family="Times,serif" font-size="14.00">,</text>
</g>
<!-- 0&#45;&gt;1 -->
<g id="edge1" class="edge">
<title>0&#45;&gt;1</title>
<path fill="none" stroke="black" d="M984.7,-103.86C783.12,-103 315.92,-97.86 160,-69 123.27,-62.2 83.47,-45.96 57.07,-33.82"/>
<polygon fill="black" stroke="black" points="58.52,-30.63 47.98,-29.55 55.55,-36.97 58.52,-30.63"/>
<text text-anchor="middle" x="173.5" y="-57.8" font-family="Times,serif" font-size="14.00">dep</text>
</g>
<!-- 2 -->
<g id="node3" class="node">
<title>2</title>
<ellipse fill="none" stroke="black" cx="114" cy="-18" rx="42.49" ry="18"/>
<text text-anchor="middle" x="114" y="-14.3" font-family="Times,serif" font-size="14.00">Derlan</text>
</g>
<!-- 0&#45;&gt;2 -->
<g id="edge2" class="edge">
<title>0&#45;&gt;2</title>
<path fill="none" stroke="black" d="M984.78,-104.22C795.53,-104 375.36,-99.89 235,-69 204.76,-62.34 172.44,-48.61 148.81,-37.22"/>
<polygon fill="black" stroke="black" points="150.09,-33.95 139.57,-32.67 147,-40.23 150.09,-33.95"/>
<text text-anchor="middle" x="248.5" y="-57.8" font-family="Times,serif" font-size="14.00">dep</text>
</g>
<!-- 3 -->
<g id="node4" class="node">
<title>3</title>
<ellipse fill="none" stroke="black" cx="201" cy="-18" rx="27" ry="18"/>
<text text-anchor="middle" x="201" y="-14.3" font-family="Times,serif" font-size="14.00">,</text>
</g>
<!-- 0&#45;&gt;3 -->
<g id="edge3" class="edge">
<title>0&#45;&gt;3</title>
<path fill="none" stroke="black" d="M984.51,-104.21C807.94,-103.85 434.43,-99.37 309,-69 280.49,-62.1 250.38,-47.47 229.22,-35.81"/>
<polygon fill="black" stroke="black" points="230.87,-32.73 220.44,-30.86 227.44,-38.82 230.87,-32.73"/>
<text text-anchor="middle" x="322.5" y="-57.8" font-family="Times,serif" font-size="14.00">dep</text>
</g>
<!-- 4 -->
<g id="node5" class="node">
<title>4</title>
<ellipse fill="none" stroke="black" cx="273" cy="-18" rx="27" ry="18"/>
<text text-anchor="middle" x="273" y="-14.3" font-family="Times,serif" font-size="14.00">17</text>
</g>
<!-- 0&#45;&gt;4 -->
<g id="edge4" class="edge">
<title>0&#45;&gt;4</title>
<path fill="none" stroke="black" d="M984.9,-103.48C822.26,-101.87 495.32,-95.35 384,-69 354.62,-62.05 323.46,-47.28 301.66,-35.59"/>
<polygon fill="black" stroke="black" points="303.09,-32.38 292.63,-30.64 299.72,-38.52 303.09,-32.38"/>
<text text-anchor="middle" x="397.5" y="-57.8" font-family="Times,serif" font-size="14.00">dep</text>
</g>
<!-- 5 -->
<g id="node6" class="node">
<title>5</title>
<ellipse fill="none" stroke="black" cx="345" cy="-18" rx="27" ry="18"/>
<text text-anchor="middle" x="345" y="-14.3" font-family="Times,serif" font-size="14.00">,</text>
</g>
<!-- 0&#45;&gt;5 -->
<g id="edge5" class="edge">
<title>0&#45;&gt;5</title>
<path fill="none" stroke="black" d="M985.42,-102.52C837.88,-99.53 557.99,-91.09 461,-69 430.13,-61.97 397.18,-46.97 374.32,-35.22"/>
<polygon fill="black" stroke="black" points="375.66,-31.97 365.18,-30.42 372.4,-38.16 375.66,-31.97"/>
<text text-anchor="middle" x="474.5" y="-57.8" font-family="Times,serif" font-size="14.00">dep</text>
</g>
<!-- 6 -->
<g id="node7" class="node">
<title>6</title>
<ellipse fill="none" stroke="black" cx="417" cy="-18" rx="27" ry="18"/>
<text text-anchor="middle" x="417" y="-14.3" font-family="Times,serif" font-size="14.00">já</text>
</g>
<!-- 0&#45;&gt;6 -->
<g id="edge6" class="edge">
<title>0&#45;&gt;6</title>
<path fill="none" stroke="black" d="M986.42,-101.59C854.24,-97.55 618.23,-87.91 535,-69 503.35,-61.81 469.44,-46.57 446.14,-34.8"/>
<polygon fill="black" stroke="black" points="447.64,-31.63 437.14,-30.16 444.43,-37.85 447.64,-31.63"/>
<text text-anchor="middle" x="548.5" y="-57.8" font-family="Times,serif" font-size="14.00">dep</text>
</g>
<!-- 7 -->
<g id="node8" class="node">
<title>7</title>
<ellipse fill="none" stroke="black" cx="489" cy="-18" rx="27" ry="18"/>
<text text-anchor="middle" x="489" y="-14.3" font-family="Times,serif" font-size="14.00">é</text>
</g>
<!-- 0&#45;&gt;7 -->
<g id="edge7" class="edge">
<title>0&#45;&gt;7</title>
<path fill="none" stroke="black" d="M987.79,-100.39C872.16,-95.27 679.48,-84.71 610,-69 577.46,-61.64 542.46,-46.28 518.51,-34.52"/>
<polygon fill="black" stroke="black" points="519.79,-31.24 509.28,-29.89 516.65,-37.5 519.79,-31.24"/>
<text text-anchor="middle" x="623.5" y="-57.8" font-family="Times,serif" font-size="14.00">dep</text>
</g>
<!-- 8 -->
<g id="node9" class="node">
<title>8</title>
<ellipse fill="none" stroke="black" cx="561" cy="-18" rx="27" ry="18"/>
<text text-anchor="middle" x="561" y="-14.3" font-family="Times,serif" font-size="14.00">um</text>
</g>
<!-- 0&#45;&gt;8 -->
<g id="edge8" class="edge">
<title>0&#45;&gt;8</title>
<path fill="none" stroke="black" d="M985.41,-102.64C905.1,-99.83 786.73,-91.73 686,-69 652.39,-61.41 616.03,-45.98 591.24,-34.26"/>
<polygon fill="black" stroke="black" points="592.54,-31 582.01,-29.81 589.5,-37.31 592.54,-31"/>
<text text-anchor="middle" x="699.5" y="-57.8" font-family="Times,serif" font-size="14.00">dep</text>
</g>
<!-- 9 -->
<g id="node10" class="node">
<title>9</title>
<ellipse fill="none" stroke="black" cx="633" cy="-18" rx="27" ry="18"/>
<text text-anchor="middle" x="633" y="-14.3" font-family="Times,serif" font-size="14.00">de</text>
</g>
<!-- 0&#45;&gt;9 -->
<g id="edge9" class="edge">
<title>0&#45;&gt;9</title>
<path fill="none" stroke="black" d="M990.89,-98.46C929.35,-93.49 845.55,-84.51 773,-69 725.58,-58.86 714.14,-53.73 669,-36 667.17,-35.28 665.29,-34.51 663.42,-33.71"/>
<polygon fill="black" stroke="black" points="664.67,-30.44 654.11,-29.55 661.81,-36.83 664.67,-30.44"/>
<text text-anchor="middle" x="786.5" y="-57.8" font-family="Times,serif" font-size="14.00">dep</text>
</g>
<!-- 10 -->
<g id="node11" class="node">
<title>10</title>
<ellipse fill="none" stroke="black" cx="705" cy="-18" rx="27" ry="18"/>
<text text-anchor="middle" x="705" y="-14.3" font-family="Times,serif" font-size="14.00">os</text>
</g>
<!-- 0&#45;&gt;10 -->
<g id="edge10" class="edge">
<title>0&#45;&gt;10</title>
<path fill="none" stroke="black" d="M1000.35,-94.94C930.68,-85.34 826.96,-67.15 741,-36 739.15,-35.33 737.26,-34.6 735.37,-33.82"/>
<polygon fill="black" stroke="black" points="736.6,-30.54 726.04,-29.74 733.8,-36.96 736.6,-30.54"/>
<text text-anchor="middle" x="863.5" y="-57.8" font-family="Times,serif" font-size="14.00">dep</text>
</g>
<!-- 11 -->
<g id="node12" class="node">
<title>11</title>
<ellipse fill="none" stroke="black" cx="808" cy="-18" rx="57.69" ry="18"/>
<text text-anchor="middle" x="808" y="-14.3" font-family="Times,serif" font-size="14.00">destaques</text>
</g>
<!-- 0&#45;&gt;11 -->
<g id="edge11" class="edge">
<title>0&#45;&gt;11</title>
<path fill="none" stroke="black" d="M1019.98,-90.9C994.83,-84.9 965.29,-77.27 939,-69 908.94,-59.54 875.78,-46.86 850.34,-36.64"/>
<polygon fill="black" stroke="black" points="851.58,-33.36 841,-32.85 848.95,-39.85 851.58,-33.36"/>
<text text-anchor="middle" x="952.5" y="-57.8" font-family="Times,serif" font-size="14.00">dep</text>
</g>
<!-- 12 -->
<g id="node13" class="node">
<title>12</title>
<ellipse fill="none" stroke="black" cx="911" cy="-18" rx="27" ry="18"/>
<text text-anchor="middle" x="911" y="-14.3" font-family="Times,serif" font-size="14.00">de</text>
</g>
<!-- 0&#45;&gt;12 -->
<g id="edge12" class="edge">
<title>0&#45;&gt;12</title>
<path fill="none" stroke="black" d="M1038.74,-88.58C1024.7,-82.85 1008.97,-76.03 995,-69 975.61,-59.25 954.62,-46.76 938.48,-36.71"/>
<polygon fill="black" stroke="black" points="939.91,-33.47 929.59,-31.1 936.18,-39.39 939.91,-33.47"/>
<text text-anchor="middle" x="1008.5" y="-57.8" font-family="Times,serif" font-size="14.00">dep</text>
</g>
<!-- 13 -->
<g id="node14" class="node">
<title>13</title>
<ellipse fill="none" stroke="black" cx="983" cy="-18" rx="27" ry="18"/>
<text text-anchor="middle" x="983" y="-14.3" font-family="Times,serif" font-size="14.00">o</text>
</g>
<!-- 0&#45;&gt;13 -->
<g id="edge13" class="edge">
<title>0&#45;&gt;13</title>
<path fill="none" stroke="black" d="M1060.03,-87.21C1044.63,-73.57 1022.84,-54.27 1006.36,-39.69"/>
<polygon fill="black" stroke="black" points="1008.56,-36.96 998.75,-32.95 1003.92,-42.2 1008.56,-36.96"/>
<text text-anchor="middle" x="1050.5" y="-57.8" font-family="Times,serif" font-size="14.00">dep</text>
</g>
<!-- 14 -->
<g id="node15" class="node">
<title>14</title>
<ellipse fill="none" stroke="black" cx="1079" cy="-18" rx="50.89" ry="18"/>
<text text-anchor="middle" x="1079" y="-14.3" font-family="Times,serif" font-size="14.00">Cruzeiro</text>
</g>
<!-- 0&#45;&gt;14 -->
<g id="edge14" class="edge">
<title>0&#45;&gt;14</title>
<path fill="none" stroke="black" d="M1079,-86.8C1079,-75.16 1079,-59.55 1079,-46.24"/>
<polygon fill="black" stroke="black" points="1082.5,-46.18 1079,-36.18 1075.5,-46.18 1082.5,-46.18"/>
<text text-anchor="middle" x="1092.5" y="-57.8" font-family="Times,serif" font-size="14.00">dep</text>
</g>
<!-- 15 -->
<g id="node16" class="node">
<title>15</title>
<ellipse fill="none" stroke="black" cx="1175" cy="-18" rx="27" ry="18"/>
<text text-anchor="middle" x="1175" y="-14.3" font-family="Times,serif" font-size="14.00">por</text>
</g>
<!-- 0&#45;&gt;15 -->
<g id="edge15" class="edge">
<title>0&#45;&gt;15</title>
<path fill="none" stroke="black" d="M1097.97,-87.21C1113.37,-73.57 1135.16,-54.27 1151.64,-39.69"/>
<polygon fill="black" stroke="black" points="1154.08,-42.2 1159.25,-32.95 1149.44,-36.96 1154.08,-42.2"/>
<text text-anchor="middle" x="1146.5" y="-57.8" font-family="Times,serif" font-size="14.00">dep</text>
</g>
<!-- 16 -->
<g id="node17" class="node">
<title>16</title>
<ellipse fill="none" stroke="black" cx="1247" cy="-18" rx="27" ry="18"/>
<text text-anchor="middle" x="1247" y="-14.3" font-family="Times,serif" font-size="14.00">sua</text>
</g>
<!-- 0&#45;&gt;16 -->
<g id="edge16" class="edge">
<title>0&#45;&gt;16</title>
<path fill="none" stroke="black" d="M1119.77,-88.67C1133.98,-82.95 1149.89,-76.1 1164,-69 1183.09,-59.39 1203.68,-47 1219.57,-36.96"/>
<polygon fill="black" stroke="black" points="1221.8,-39.69 1228.34,-31.36 1218.03,-33.79 1221.8,-39.69"/>
<text text-anchor="middle" x="1203.5" y="-57.8" font-family="Times,serif" font-size="14.00">dep</text>
</g>
<!-- 17 -->
<g id="node18" class="node">
<title>17</title>
<ellipse fill="none" stroke="black" cx="1351" cy="-18" rx="59.29" ry="18"/>
<text text-anchor="middle" x="1351" y="-14.3" font-family="Times,serif" font-size="14.00">habilidade</text>
</g>
<!-- 0&#45;&gt;17 -->
<g id="edge17" class="edge">
<title>0&#45;&gt;17</title>
<path fill="none" stroke="black" d="M1138.88,-91C1164.39,-85.01 1194.35,-77.37 1221,-69 1250.76,-59.65 1283.55,-47.02 1308.74,-36.8"/>
<polygon fill="black" stroke="black" points="1310.08,-40.04 1318.01,-33.01 1307.43,-33.56 1310.08,-40.04"/>
<text text-anchor="middle" x="1278.5" y="-57.8" font-family="Times,serif" font-size="14.00">dep</text>
</g>
<!-- 18 -->
<g id="node19" class="node">
<title>18</title>
<ellipse fill="none" stroke="black" cx="1455" cy="-18" rx="27" ry="18"/>
<text text-anchor="middle" x="1455" y="-14.3" font-family="Times,serif" font-size="14.00">em</text>
</g>
<!-- 0&#45;&gt;18 -->
<g id="edge18" class="edge">
<title>0&#45;&gt;18</title>
<path fill="none" stroke="black" d="M1158.18,-95.19C1228.32,-85.76 1332.68,-67.67 1419,-36 1420.85,-35.32 1422.73,-34.58 1424.62,-33.81"/>
<polygon fill="black" stroke="black" points="1426.2,-36.94 1433.95,-29.71 1423.39,-30.53 1426.2,-36.94"/>
<text text-anchor="middle" x="1369.5" y="-57.8" font-family="Times,serif" font-size="14.00">dep</text>
</g>
<!-- 19 -->
<g id="node20" class="node">
<title>19</title>
<ellipse fill="none" stroke="black" cx="1527" cy="-18" rx="27" ry="18"/>
<text text-anchor="middle" x="1527" y="-14.3" font-family="Times,serif" font-size="14.00">as</text>
</g>
<!-- 0&#45;&gt;19 -->
<g id="edge19" class="edge">
<title>0&#45;&gt;19</title>
<path fill="none" stroke="black" d="M1167.02,-98.56C1229.02,-93.62 1313.71,-84.64 1387,-69 1434.43,-58.88 1445.86,-53.73 1491,-36 1492.83,-35.28 1494.71,-34.51 1496.58,-33.71"/>
<polygon fill="black" stroke="black" points="1498.19,-36.83 1505.89,-29.55 1495.33,-30.44 1498.19,-36.83"/>
<text text-anchor="middle" x="1457.5" y="-57.8" font-family="Times,serif" font-size="14.00">dep</text>
</g>
<!-- 20 -->
<g id="node21" class="node">
<title>20</title>
<ellipse fill="none" stroke="black" cx="1612" cy="-18" rx="40.09" ry="18"/>
<text text-anchor="middle" x="1612" y="-14.3" font-family="Times,serif" font-size="14.00">saídas</text>
</g>
<!-- 0&#45;&gt;20 -->
<g id="edge20" class="edge">
<title>0&#45;&gt;20</title>
<path fill="none" stroke="black" d="M1172.47,-102.61C1253.38,-99.78 1373.1,-91.68 1475,-69 1510,-61.21 1548.2,-46.74 1575.35,-35.36"/>
<polygon fill="black" stroke="black" points="1576.99,-38.46 1584.82,-31.33 1574.25,-32.02 1576.99,-38.46"/>
<text text-anchor="middle" x="1538.5" y="-57.8" font-family="Times,serif" font-size="14.00">dep</text>
</g>
<!-- 21 -->
<g id="node22" class="node">
<title>21</title>
<ellipse fill="none" stroke="black" cx="1697" cy="-18" rx="27" ry="18"/>
<text text-anchor="middle" x="1697" y="-14.3" font-family="Times,serif" font-size="14.00">de</text>
</g>
<!-- 0&#45;&gt;21 -->
<g id="edge21" class="edge">
<title>0&#45;&gt;21</title>
<path fill="none" stroke="black" d="M1173.06,-103.49C1269.88,-101.47 1424.69,-94.1 1556,-69 1604.05,-59.82 1615.44,-53.82 1661,-36 1662.83,-35.28 1664.71,-34.51 1666.59,-33.71"/>
<polygon fill="black" stroke="black" points="1668.19,-36.83 1675.89,-29.56 1665.33,-30.44 1668.19,-36.83"/>
<text text-anchor="middle" x="1626.5" y="-57.8" font-family="Times,serif" font-size="14.00">dep</text>
</g>
<!-- 22 -->
<g id="node23" class="node">
<title>22</title>
<ellipse fill="none" stroke="black" cx="1769" cy="-18" rx="27" ry="18"/>
<text text-anchor="middle" x="1769" y="-14.3" font-family="Times,serif" font-size="14.00">a</text>
</g>
<!-- 0&#45;&gt;22 -->
<g id="edge22" class="edge">
<title>0&#45;&gt;22</title>
<path fill="none" stroke="black" d="M1171.68,-101.55C1308.19,-97.38 1556.56,-87.5 1644,-69 1677.91,-61.83 1714.49,-46.18 1739.26,-34.29"/>
<polygon fill="black" stroke="black" points="1741.02,-37.32 1748.46,-29.78 1737.94,-31.04 1741.02,-37.32"/>
<text text-anchor="middle" x="1707.5" y="-57.8" font-family="Times,serif" font-size="14.00">dep</text>
</g>
<!-- 23 -->
<g id="node24" class="node">
<title>23</title>
<ellipse fill="none" stroke="black" cx="1855" cy="-18" rx="40.89" ry="18"/>
<text text-anchor="middle" x="1855" y="-14.3" font-family="Times,serif" font-size="14.00">defesa</text>
</g>
<!-- 0&#45;&gt;23 -->
<g id="edge23" class="edge">
<title>0&#45;&gt;23</title>
<path fill="none" stroke="black" d="M1172.42,-102.52C1325.34,-99.5 1622.37,-90.94 1725,-69 1758.13,-61.92 1793.93,-47.61 1819.56,-36.11"/>
<polygon fill="black" stroke="black" points="1821.22,-39.2 1828.86,-31.86 1818.31,-32.83 1821.22,-39.2"/>
<text text-anchor="middle" x="1786.5" y="-57.8" font-family="Times,serif" font-size="14.00">dep</text>
</g>
<!-- 24 -->
<g id="node25" class="node">
<title>24</title>
<ellipse fill="none" stroke="black" cx="1946" cy="-18" rx="31.7" ry="18"/>
<text text-anchor="middle" x="1946" y="-14.3" font-family="Times,serif" font-size="14.00">para</text>
</g>
<!-- 0&#45;&gt;24 -->
<g id="edge24" class="edge">
<title>0&#45;&gt;24</title>
<path fill="none" stroke="black" d="M1172.59,-102.59C1340.32,-99.55 1685.64,-90.78 1804,-69 1842.4,-61.93 1884.34,-46.09 1912.61,-34.12"/>
<polygon fill="black" stroke="black" points="1914.21,-37.24 1922.01,-30.06 1911.44,-30.81 1914.21,-37.24"/>
<text text-anchor="middle" x="1873.5" y="-57.8" font-family="Times,serif" font-size="14.00">dep</text>
</g>
<!-- 25 -->
<g id="node26" class="node">
<title>25</title>
<ellipse fill="none" stroke="black" cx="2023" cy="-18" rx="27" ry="18"/>
<text text-anchor="middle" x="2023" y="-14.3" font-family="Times,serif" font-size="14.00">o</text>
</g>
<!-- 0&#45;&gt;25 -->
<g id="edge25" class="edge">
<title>0&#45;&gt;25</title>
<path fill="none" stroke="black" d="M1173.02,-103.34C1356.47,-101.48 1756,-94.56 1891,-69 1927.3,-62.13 1966.62,-46.01 1992.81,-33.92"/>
<polygon fill="black" stroke="black" points="1994.62,-36.94 2002.18,-29.51 1991.64,-30.61 1994.62,-36.94"/>
<text text-anchor="middle" x="1957.5" y="-57.8" font-family="Times,serif" font-size="14.00">dep</text>
</g>
<!-- 26 -->
<g id="node27" class="node">
<title>26</title>
<ellipse fill="none" stroke="black" cx="2110" cy="-18" rx="42.49" ry="18"/>
<text text-anchor="middle" x="2110" y="-14.3" font-family="Times,serif" font-size="14.00">ataque</text>
</g>
<!-- 0&#45;&gt;26 -->
<g id="edge26" class="edge">
<title>0&#45;&gt;26</title>
<path fill="none" stroke="black" d="M1173.24,-104.07C1371.09,-103.59 1823.96,-99.13 1975,-69 2009.49,-62.12 2046.85,-47.7 2073.51,-36.1"/>
<polygon fill="black" stroke="black" points="2075.1,-39.23 2082.82,-31.98 2072.26,-32.83 2075.1,-39.23"/>
<text text-anchor="middle" x="2038.5" y="-57.8" font-family="Times,serif" font-size="14.00">dep</text>
</g>
<!-- 27 -->
<g id="node28" class="node">
<title>27</title>
<ellipse fill="none" stroke="black" cx="2197" cy="-18" rx="27" ry="18"/>
<text text-anchor="middle" x="2197" y="-14.3" font-family="Times,serif" font-size="14.00">.</text>
</g>
<!-- 0&#45;&gt;27 -->
<g id="edge27" class="edge">
<title>0&#45;&gt;27</title>
<path fill="none" stroke="black" d="M1173.2,-103.84C1383.99,-102.96 1888.31,-97.81 2056,-69 2104.21,-60.72 2115.44,-53.82 2161,-36 2162.83,-35.28 2164.71,-34.51 2166.59,-33.71"/>
<polygon fill="black" stroke="black" points="2168.19,-36.83 2175.89,-29.56 2165.33,-30.44 2168.19,-36.83"/>
<text text-anchor="middle" x="2128.5" y="-57.8" font-family="Times,serif" font-size="14.00">dep</text>
</g>
</g>
</svg>
