<?xml version="1.0" encoding="UTF-8" standalone="no"?>
<!DOCTYPE svg PUBLIC "-//W3C//DTD SVG 1.1//EN"
 "http://www.w3.org/Graphics/SVG/1.1/DTD/svg11.dtd">
<!-- Generated by graphviz version 2.42.4 (0)
 -->
<!-- Pages: 1 -->
<svg width="1390pt" height="131pt"
 viewBox="0.00 0.00 1390.00 131.00" xmlns="http://www.w3.org/2000/svg" xmlns:xlink="http://www.w3.org/1999/xlink">
<g id="graph0" class="graph" transform="scale(1 1) rotate(0) translate(4 127)">
<polygon fill="white" stroke="transparent" points="-4,4 -4,-127 1386,-127 1386,4 -4,4"/>
<!-- 0 -->
<g id="node1" class="node">
<title>0</title>
<ellipse fill="none" stroke="black" cx="629" cy="-105" rx="27" ry="18"/>
<text text-anchor="middle" x="629" y="-101.3" font-family="Times,serif" font-size="14.00">Foi</text>
</g>
<!-- 1 -->
<g id="node2" class="node">
<title>1</title>
<ellipse fill="none" stroke="black" cx="27" cy="-18" rx="27" ry="18"/>
<text text-anchor="middle" x="27" y="-14.3" font-family="Times,serif" font-size="14.00">a</text>
</g>
<!-- 0&#45;&gt;1 -->
<g id="edge1" class="edge">
<title>0&#45;&gt;1</title>
<path fill="none" stroke="black" d="M601.85,-103.16C513.09,-100.25 232.17,-89.59 144,-69 112.81,-61.71 79.41,-46.64 56.31,-34.94"/>
<polygon fill="black" stroke="black" points="57.88,-31.8 47.39,-30.32 54.66,-38.02 57.88,-31.8"/>
<text text-anchor="middle" x="157.5" y="-57.8" font-family="Times,serif" font-size="14.00">dep</text>
</g>
<!-- 2 -->
<g id="node3" class="node">
<title>2</title>
<ellipse fill="none" stroke="black" cx="99" cy="-18" rx="27" ry="18"/>
<text text-anchor="middle" x="99" y="-14.3" font-family="Times,serif" font-size="14.00">o</text>
</g>
<!-- 0&#45;&gt;2 -->
<g id="edge2" class="edge">
<title>0&#45;&gt;2</title>
<path fill="none" stroke="black" d="M601.64,-104.41C535.02,-104.83 359.49,-102.38 218,-69 186.18,-61.49 151.98,-46.3 128.44,-34.62"/>
<polygon fill="black" stroke="black" points="129.86,-31.42 119.36,-30.03 126.7,-37.67 129.86,-31.42"/>
<text text-anchor="middle" x="231.5" y="-57.8" font-family="Times,serif" font-size="14.00">dep</text>
</g>
<!-- 3 -->
<g id="node4" class="node">
<title>3</title>
<ellipse fill="none" stroke="black" cx="175" cy="-18" rx="30.59" ry="18"/>
<text text-anchor="middle" x="175" y="-14.3" font-family="Times,serif" font-size="14.00">final</text>
</g>
<!-- 0&#45;&gt;3 -->
<g id="edge3" class="edge">
<title>0&#45;&gt;3</title>
<path fill="none" stroke="black" d="M601.78,-103.96C543.7,-103.27 403.74,-98.4 291,-69 261.11,-61.2 228.99,-46.85 206.14,-35.51"/>
<polygon fill="black" stroke="black" points="207.46,-32.25 196.95,-30.87 204.3,-38.5 207.46,-32.25"/>
<text text-anchor="middle" x="304.5" y="-57.8" font-family="Times,serif" font-size="14.00">dep</text>
</g>
<!-- 4 -->
<g id="node5" class="node">
<title>4</title>
<ellipse fill="none" stroke="black" cx="251" cy="-18" rx="27" ry="18"/>
<text text-anchor="middle" x="251" y="-14.3" font-family="Times,serif" font-size="14.00">de</text>
</g>
<!-- 0&#45;&gt;4 -->
<g id="edge4" class="edge">
<title>0&#45;&gt;4</title>
<path fill="none" stroke="black" d="M601.97,-102.99C553.19,-100.6 447.55,-92.9 362,-69 333.1,-60.93 302.11,-46.43 280.24,-35.11"/>
<polygon fill="black" stroke="black" points="281.65,-31.9 271.17,-30.33 278.38,-38.09 281.65,-31.9"/>
<text text-anchor="middle" x="375.5" y="-57.8" font-family="Times,serif" font-size="14.00">dep</text>
</g>
<!-- 5 -->
<g id="node6" class="node">
<title>5</title>
<ellipse fill="none" stroke="black" cx="323" cy="-18" rx="27" ry="18"/>
<text text-anchor="middle" x="323" y="-14.3" font-family="Times,serif" font-size="14.00">um</text>
</g>
<!-- 0&#45;&gt;5 -->
<g id="edge5" class="edge">
<title>0&#45;&gt;5</title>
<path fill="none" stroke="black" d="M602.25,-101.61C563.38,-97.63 489.32,-88.11 429,-69 401.92,-60.42 372.85,-46.32 352.01,-35.28"/>
<polygon fill="black" stroke="black" points="353.52,-32.12 343.06,-30.46 350.2,-38.28 353.52,-32.12"/>
<text text-anchor="middle" x="442.5" y="-57.8" font-family="Times,serif" font-size="14.00">dep</text>
</g>
<!-- 6 -->
<g id="node7" class="node">
<title>6</title>
<ellipse fill="none" stroke="black" cx="395" cy="-18" rx="27.1" ry="18"/>
<text text-anchor="middle" x="395" y="-14.3" font-family="Times,serif" font-size="14.00">ano</text>
</g>
<!-- 0&#45;&gt;6 -->
<g id="edge6" class="edge">
<title>0&#45;&gt;6</title>
<path fill="none" stroke="black" d="M603.42,-99.17C575.69,-93.54 530.39,-83.15 493,-69 468.74,-59.82 442.65,-46.31 423.49,-35.65"/>
<polygon fill="black" stroke="black" points="425.11,-32.54 414.68,-30.68 421.67,-38.64 425.11,-32.54"/>
<text text-anchor="middle" x="506.5" y="-57.8" font-family="Times,serif" font-size="14.00">dep</text>
</g>
<!-- 7 -->
<g id="node8" class="node">
<title>7</title>
<ellipse fill="none" stroke="black" cx="467" cy="-18" rx="27" ry="18"/>
<text text-anchor="middle" x="467" y="-14.3" font-family="Times,serif" font-size="14.00">e</text>
</g>
<!-- 0&#45;&gt;7 -->
<g id="edge7" class="edge">
<title>0&#45;&gt;7</title>
<path fill="none" stroke="black" d="M606.2,-94.99C589.99,-88.35 567.83,-78.8 549,-69 530.21,-59.22 509.87,-46.83 494.15,-36.83"/>
<polygon fill="black" stroke="black" points="495.78,-33.72 485.47,-31.26 492,-39.61 495.78,-33.72"/>
<text text-anchor="middle" x="562.5" y="-57.8" font-family="Times,serif" font-size="14.00">dep</text>
</g>
<!-- 8 -->
<g id="node9" class="node">
<title>8</title>
<ellipse fill="none" stroke="black" cx="541" cy="-18" rx="29.5" ry="18"/>
<text text-anchor="middle" x="541" y="-14.3" font-family="Times,serif" font-size="14.00">três</text>
</g>
<!-- 0&#45;&gt;8 -->
<g id="edge8" class="edge">
<title>0&#45;&gt;8</title>
<path fill="none" stroke="black" d="M614.07,-89.58C600.17,-76.15 579.25,-55.94 563.35,-40.59"/>
<polygon fill="black" stroke="black" points="565.63,-37.92 556,-33.49 560.76,-42.95 565.63,-37.92"/>
<text text-anchor="middle" x="604.5" y="-57.8" font-family="Times,serif" font-size="14.00">dep</text>
</g>
<!-- 9 -->
<g id="node10" class="node">
<title>9</title>
<ellipse fill="none" stroke="black" cx="629" cy="-18" rx="40.09" ry="18"/>
<text text-anchor="middle" x="629" y="-14.3" font-family="Times,serif" font-size="14.00">meses</text>
</g>
<!-- 0&#45;&gt;9 -->
<g id="edge9" class="edge">
<title>0&#45;&gt;9</title>
<path fill="none" stroke="black" d="M629,-86.8C629,-75.16 629,-59.55 629,-46.24"/>
<polygon fill="black" stroke="black" points="632.5,-46.18 629,-36.18 625.5,-46.18 632.5,-46.18"/>
<text text-anchor="middle" x="642.5" y="-57.8" font-family="Times,serif" font-size="14.00">dep</text>
</g>
<!-- 10 -->
<g id="node11" class="node">
<title>10</title>
<ellipse fill="none" stroke="black" cx="715" cy="-18" rx="27.9" ry="18"/>
<text text-anchor="middle" x="715" y="-14.3" font-family="Times,serif" font-size="14.00">que</text>
</g>
<!-- 0&#45;&gt;10 -->
<g id="edge10" class="edge">
<title>0&#45;&gt;10</title>
<path fill="none" stroke="black" d="M643.59,-89.58C657.18,-76.15 677.62,-55.94 693.16,-40.59"/>
<polygon fill="black" stroke="black" points="695.69,-43.01 700.34,-33.49 690.77,-38.03 695.69,-43.01"/>
<text text-anchor="middle" x="691.5" y="-57.8" font-family="Times,serif" font-size="14.00">dep</text>
</g>
<!-- 11 -->
<g id="node12" class="node">
<title>11</title>
<ellipse fill="none" stroke="black" cx="788" cy="-18" rx="27" ry="18"/>
<text text-anchor="middle" x="788" y="-14.3" font-family="Times,serif" font-size="14.00">o</text>
</g>
<!-- 0&#45;&gt;11 -->
<g id="edge11" class="edge">
<title>0&#45;&gt;11</title>
<path fill="none" stroke="black" d="M651.85,-95.09C668.09,-88.49 690.26,-78.96 709,-69 727.09,-59.39 746.55,-47.1 761.63,-37.11"/>
<polygon fill="black" stroke="black" points="763.6,-40 769.96,-31.53 759.7,-34.19 763.6,-40"/>
<text text-anchor="middle" x="747.5" y="-57.8" font-family="Times,serif" font-size="14.00">dep</text>
</g>
<!-- 12 -->
<g id="node13" class="node">
<title>12</title>
<ellipse fill="none" stroke="black" cx="880" cy="-18" rx="47.39" ry="18"/>
<text text-anchor="middle" x="880" y="-14.3" font-family="Times,serif" font-size="14.00">prefeito</text>
</g>
<!-- 0&#45;&gt;12 -->
<g id="edge12" class="edge">
<title>0&#45;&gt;12</title>
<path fill="none" stroke="black" d="M654.42,-98.72C682.01,-92.7 727.19,-81.99 765,-69 791.66,-59.84 820.78,-47.15 843.04,-36.85"/>
<polygon fill="black" stroke="black" points="844.56,-40 852.14,-32.6 841.6,-33.66 844.56,-40"/>
<text text-anchor="middle" x="817.5" y="-57.8" font-family="Times,serif" font-size="14.00">dep</text>
</g>
<!-- 13 -->
<g id="node14" class="node">
<title>13</title>
<ellipse fill="none" stroke="black" cx="976" cy="-18" rx="30.59" ry="18"/>
<text text-anchor="middle" x="976" y="-14.3" font-family="Times,serif" font-size="14.00">teve</text>
</g>
<!-- 0&#45;&gt;13 -->
<g id="edge13" class="edge">
<title>0&#45;&gt;13</title>
<path fill="none" stroke="black" d="M655.27,-100.8C694.67,-95.72 771.25,-84.74 835,-69 880.85,-57.68 891.78,-52.58 936,-36 938.21,-35.17 940.47,-34.29 942.74,-33.39"/>
<polygon fill="black" stroke="black" points="944.1,-36.62 952.02,-29.59 941.44,-30.14 944.1,-36.62"/>
<text text-anchor="middle" x="900.5" y="-57.8" font-family="Times,serif" font-size="14.00">dep</text>
</g>
<!-- 14 -->
<g id="node15" class="node">
<title>14</title>
<ellipse fill="none" stroke="black" cx="1052" cy="-18" rx="27" ry="18"/>
<text text-anchor="middle" x="1052" y="-14.3" font-family="Times,serif" font-size="14.00">sua</text>
</g>
<!-- 0&#45;&gt;14 -->
<g id="edge14" class="edge">
<title>0&#45;&gt;14</title>
<path fill="none" stroke="black" d="M656.01,-102.57C707.52,-99.45 823.11,-90.48 918,-69 962.82,-58.85 973.37,-53.17 1016,-36 1017.83,-35.26 1019.69,-34.48 1021.57,-33.67"/>
<polygon fill="black" stroke="black" points="1023.18,-36.78 1030.86,-29.48 1020.31,-30.4 1023.18,-36.78"/>
<text text-anchor="middle" x="983.5" y="-57.8" font-family="Times,serif" font-size="14.00">dep</text>
</g>
<!-- 15 -->
<g id="node16" class="node">
<title>15</title>
<ellipse fill="none" stroke="black" cx="1141" cy="-18" rx="43.59" ry="18"/>
<text text-anchor="middle" x="1141" y="-14.3" font-family="Times,serif" font-size="14.00">melhor</text>
</g>
<!-- 0&#45;&gt;15 -->
<g id="edge15" class="edge">
<title>0&#45;&gt;15</title>
<path fill="none" stroke="black" d="M655.97,-103.75C717.76,-102.69 874.03,-97.18 1001,-69 1036.5,-61.12 1075.33,-46.77 1103.07,-35.46"/>
<polygon fill="black" stroke="black" points="1104.49,-38.66 1112.4,-31.6 1101.82,-32.19 1104.49,-38.66"/>
<text text-anchor="middle" x="1066.5" y="-57.8" font-family="Times,serif" font-size="14.00">dep</text>
</g>
<!-- 16 -->
<g id="node17" class="node">
<title>16</title>
<ellipse fill="none" stroke="black" cx="1256" cy="-18" rx="53.89" ry="18"/>
<text text-anchor="middle" x="1256" y="-14.3" font-family="Times,serif" font-size="14.00">avaliação</text>
</g>
<!-- 0&#45;&gt;16 -->
<g id="edge16" class="edge">
<title>0&#45;&gt;16</title>
<path fill="none" stroke="black" d="M656.17,-103.85C727.13,-103.05 923.62,-98.16 1084,-69 1127.86,-61.03 1176.53,-46.3 1210.87,-34.89"/>
<polygon fill="black" stroke="black" points="1212.24,-38.12 1220.61,-31.62 1210.01,-31.49 1212.24,-38.12"/>
<text text-anchor="middle" x="1160.5" y="-57.8" font-family="Times,serif" font-size="14.00">dep</text>
</g>
<!-- 17 -->
<g id="node18" class="node">
<title>17</title>
<ellipse fill="none" stroke="black" cx="1355" cy="-18" rx="27" ry="18"/>
<text text-anchor="middle" x="1355" y="-14.3" font-family="Times,serif" font-size="14.00">.</text>
</g>
<!-- 0&#45;&gt;17 -->
<g id="edge17" class="edge">
<title>0&#45;&gt;17</title>
<path fill="none" stroke="black" d="M656.02,-103.86C736.11,-103.12 979.12,-98.4 1178,-69 1241.67,-59.59 1258.23,-57.19 1319,-36 1320.91,-35.33 1322.85,-34.6 1324.8,-33.82"/>
<polygon fill="black" stroke="black" points="1326.6,-36.85 1334.37,-29.65 1323.81,-30.43 1326.6,-36.85"/>
<text text-anchor="middle" x="1275.5" y="-57.8" font-family="Times,serif" font-size="14.00">dep</text>
</g>
</g>
</svg>
