<?xml version="1.0" encoding="UTF-8" standalone="no"?>
<!DOCTYPE svg PUBLIC "-//W3C//DTD SVG 1.1//EN"
 "http://www.w3.org/Graphics/SVG/1.1/DTD/svg11.dtd">
<!-- Generated by graphviz version 2.42.4 (0)
 -->
<!-- Pages: 1 -->
<svg width="1885pt" height="131pt"
 viewBox="0.00 0.00 1884.90 131.00" xmlns="http://www.w3.org/2000/svg" xmlns:xlink="http://www.w3.org/1999/xlink">
<g id="graph0" class="graph" transform="scale(1 1) rotate(0) translate(4 127)">
<polygon fill="white" stroke="transparent" points="-4,4 -4,-127 1880.9,-127 1880.9,4 -4,4"/>
<!-- 0 -->
<g id="node1" class="node">
<title>0</title>
<ellipse fill="none" stroke="black" cx="955.9" cy="-105" rx="28.7" ry="18"/>
<text text-anchor="middle" x="955.9" y="-101.3" font-family="Times,serif" font-size="14.00">Isto</text>
</g>
<!-- 1 -->
<g id="node2" class="node">
<title>1</title>
<ellipse fill="none" stroke="black" cx="42.9" cy="-18" rx="42.79" ry="18"/>
<text text-anchor="middle" x="42.9" y="-14.3" font-family="Times,serif" font-size="14.00">poderá</text>
</g>
<!-- 0&#45;&gt;1 -->
<g id="edge1" class="edge">
<title>0&#45;&gt;1</title>
<path fill="none" stroke="black" d="M927.07,-103.53C807.8,-101.46 352.58,-92.16 210.9,-69 166.2,-61.69 116.7,-45.99 83.09,-34.11"/>
<polygon fill="black" stroke="black" points="84.21,-30.8 73.61,-30.72 81.85,-37.39 84.21,-30.8"/>
<text text-anchor="middle" x="224.4" y="-57.8" font-family="Times,serif" font-size="14.00">dep</text>
</g>
<!-- 2 -->
<g id="node3" class="node">
<title>2</title>
<ellipse fill="none" stroke="black" cx="137.9" cy="-18" rx="34.39" ry="18"/>
<text text-anchor="middle" x="137.9" y="-14.3" font-family="Times,serif" font-size="14.00">levar</text>
</g>
<!-- 0&#45;&gt;2 -->
<g id="edge2" class="edge">
<title>0&#45;&gt;2</title>
<path fill="none" stroke="black" d="M927.05,-104.31C836.55,-104.89 550.44,-103.64 316.9,-69 255.8,-59.94 240.83,-54.5 181.9,-36 179.28,-35.18 176.59,-34.28 173.89,-33.34"/>
<polygon fill="black" stroke="black" points="174.82,-29.95 164.23,-29.81 172.42,-36.53 174.82,-29.95"/>
<text text-anchor="middle" x="330.4" y="-57.8" font-family="Times,serif" font-size="14.00">dep</text>
</g>
<!-- 3 -->
<g id="node4" class="node">
<title>3</title>
<ellipse fill="none" stroke="black" cx="232.9" cy="-18" rx="42.49" ry="18"/>
<text text-anchor="middle" x="232.9" y="-14.3" font-family="Times,serif" font-size="14.00">muitos</text>
</g>
<!-- 0&#45;&gt;3 -->
<g id="edge3" class="edge">
<title>0&#45;&gt;3</title>
<path fill="none" stroke="black" d="M927.08,-104.05C845.63,-103.77 606.99,-100.14 411.9,-69 363.7,-61.31 309.95,-45.25 274.05,-33.39"/>
<polygon fill="black" stroke="black" points="275.01,-30.02 264.42,-30.17 272.79,-36.66 275.01,-30.02"/>
<text text-anchor="middle" x="425.4" y="-57.8" font-family="Times,serif" font-size="14.00">dep</text>
</g>
<!-- 4 -->
<g id="node5" class="node">
<title>4</title>
<ellipse fill="none" stroke="black" cx="346.9" cy="-18" rx="53.89" ry="18"/>
<text text-anchor="middle" x="346.9" y="-14.3" font-family="Times,serif" font-size="14.00">húngaros</text>
</g>
<!-- 0&#45;&gt;4 -->
<g id="edge4" class="edge">
<title>0&#45;&gt;4</title>
<path fill="none" stroke="black" d="M927.09,-104.24C854.26,-104.33 657.11,-101.3 496.9,-69 459.54,-61.47 418.6,-47.41 388.94,-36.11"/>
<polygon fill="black" stroke="black" points="389.92,-32.74 379.33,-32.39 387.4,-39.26 389.92,-32.74"/>
<text text-anchor="middle" x="510.4" y="-57.8" font-family="Times,serif" font-size="14.00">dep</text>
</g>
<!-- 5 -->
<g id="node6" class="node">
<title>5</title>
<ellipse fill="none" stroke="black" cx="445.9" cy="-18" rx="27" ry="18"/>
<text text-anchor="middle" x="445.9" y="-14.3" font-family="Times,serif" font-size="14.00">a</text>
</g>
<!-- 0&#45;&gt;5 -->
<g id="edge5" class="edge">
<title>0&#45;&gt;5</title>
<path fill="none" stroke="black" d="M927.24,-103.83C863.15,-102.93 703.62,-97.72 573.9,-69 539.2,-61.32 501.54,-45.65 476.11,-33.88"/>
<polygon fill="black" stroke="black" points="477.54,-30.69 467,-29.59 474.56,-37.02 477.54,-30.69"/>
<text text-anchor="middle" x="587.4" y="-57.8" font-family="Times,serif" font-size="14.00">dep</text>
</g>
<!-- 6 -->
<g id="node7" class="node">
<title>6</title>
<ellipse fill="none" stroke="black" cx="517.9" cy="-18" rx="27" ry="18"/>
<text text-anchor="middle" x="517.9" y="-14.3" font-family="Times,serif" font-size="14.00">de</text>
</g>
<!-- 0&#45;&gt;6 -->
<g id="edge6" class="edge">
<title>0&#45;&gt;6</title>
<path fill="none" stroke="black" d="M927.45,-102.22C874.92,-98.58 759.37,-88.89 663.9,-69 613.93,-58.59 601.55,-54.28 553.9,-36 552.06,-35.29 550.18,-34.54 548.3,-33.74"/>
<polygon fill="black" stroke="black" points="549.55,-30.47 538.99,-29.6 546.7,-36.86 549.55,-30.47"/>
<text text-anchor="middle" x="677.4" y="-57.8" font-family="Times,serif" font-size="14.00">dep</text>
</g>
<!-- 7 -->
<g id="node8" class="node">
<title>7</title>
<ellipse fill="none" stroke="black" cx="598.9" cy="-18" rx="36.29" ry="18"/>
<text text-anchor="middle" x="598.9" y="-14.3" font-family="Times,serif" font-size="14.00">esses</text>
</g>
<!-- 0&#45;&gt;7 -->
<g id="edge7" class="edge">
<title>0&#45;&gt;7</title>
<path fill="none" stroke="black" d="M927.97,-100.76C887.31,-95.74 809.61,-84.94 744.9,-69 699.45,-57.8 689.08,-51.45 644.9,-36 642.18,-35.05 639.39,-34.06 636.58,-33.05"/>
<polygon fill="black" stroke="black" points="637.65,-29.71 627.06,-29.59 635.26,-36.29 637.65,-29.71"/>
<text text-anchor="middle" x="758.4" y="-57.8" font-family="Times,serif" font-size="14.00">dep</text>
</g>
<!-- 8 -->
<g id="node9" class="node">
<title>8</title>
<ellipse fill="none" stroke="black" cx="693.9" cy="-18" rx="40.09" ry="18"/>
<text text-anchor="middle" x="693.9" y="-14.3" font-family="Times,serif" font-size="14.00">países</text>
</g>
<!-- 0&#45;&gt;8 -->
<g id="edge8" class="edge">
<title>0&#45;&gt;8</title>
<path fill="none" stroke="black" d="M928.99,-98.48C900.56,-92.37 854.58,-81.69 815.9,-69 786.65,-59.41 754.46,-46.09 730.5,-35.62"/>
<polygon fill="black" stroke="black" points="731.65,-32.3 721.09,-31.47 728.83,-38.71 731.65,-32.3"/>
<text text-anchor="middle" x="829.4" y="-57.8" font-family="Times,serif" font-size="14.00">dep</text>
</g>
<!-- 9 -->
<g id="node10" class="node">
<title>9</title>
<ellipse fill="none" stroke="black" cx="778.9" cy="-18" rx="27" ry="18"/>
<text text-anchor="middle" x="778.9" y="-14.3" font-family="Times,serif" font-size="14.00">a</text>
</g>
<!-- 0&#45;&gt;9 -->
<g id="edge9" class="edge">
<title>0&#45;&gt;9</title>
<path fill="none" stroke="black" d="M932.61,-94.28C916.56,-87.46 894.79,-77.99 875.9,-69 852.92,-58.07 827.35,-44.84 808.24,-34.74"/>
<polygon fill="black" stroke="black" points="809.62,-31.51 799.15,-29.91 806.34,-37.69 809.62,-31.51"/>
<text text-anchor="middle" x="889.4" y="-57.8" font-family="Times,serif" font-size="14.00">dep</text>
</g>
<!-- 10 -->
<g id="node11" class="node">
<title>10</title>
<ellipse fill="none" stroke="black" cx="866.9" cy="-18" rx="42.79" ry="18"/>
<text text-anchor="middle" x="866.9" y="-14.3" font-family="Times,serif" font-size="14.00">decidir</text>
</g>
<!-- 0&#45;&gt;10 -->
<g id="edge10" class="edge">
<title>0&#45;&gt;10</title>
<path fill="none" stroke="black" d="M940.8,-89.58C927.07,-76.47 906.6,-56.92 890.68,-41.71"/>
<polygon fill="black" stroke="black" points="892.93,-39.02 883.28,-34.64 888.09,-44.08 892.93,-39.02"/>
<text text-anchor="middle" x="930.4" y="-57.8" font-family="Times,serif" font-size="14.00">dep</text>
</g>
<!-- 11 -->
<g id="node12" class="node">
<title>11</title>
<ellipse fill="none" stroke="black" cx="955.9" cy="-18" rx="27.9" ry="18"/>
<text text-anchor="middle" x="955.9" y="-14.3" font-family="Times,serif" font-size="14.00">que</text>
</g>
<!-- 0&#45;&gt;11 -->
<g id="edge11" class="edge">
<title>0&#45;&gt;11</title>
<path fill="none" stroke="black" d="M955.9,-86.8C955.9,-75.16 955.9,-59.55 955.9,-46.24"/>
<polygon fill="black" stroke="black" points="959.4,-46.18 955.9,-36.18 952.4,-46.18 959.4,-46.18"/>
<text text-anchor="middle" x="969.4" y="-57.8" font-family="Times,serif" font-size="14.00">dep</text>
</g>
<!-- 12 -->
<g id="node13" class="node">
<title>12</title>
<ellipse fill="none" stroke="black" cx="1028.9" cy="-18" rx="27" ry="18"/>
<text text-anchor="middle" x="1028.9" y="-14.3" font-family="Times,serif" font-size="14.00">a</text>
</g>
<!-- 0&#45;&gt;12 -->
<g id="edge12" class="edge">
<title>0&#45;&gt;12</title>
<path fill="none" stroke="black" d="M969.56,-88.74C975,-82.64 981.28,-75.52 986.9,-69 994.42,-60.28 1002.58,-50.61 1009.69,-42.12"/>
<polygon fill="black" stroke="black" points="1012.41,-44.33 1016.13,-34.41 1007.04,-39.84 1012.41,-44.33"/>
<text text-anchor="middle" x="1012.4" y="-57.8" font-family="Times,serif" font-size="14.00">dep</text>
</g>
<!-- 13 -->
<g id="node14" class="node">
<title>13</title>
<ellipse fill="none" stroke="black" cx="1132.9" cy="-18" rx="59.29" ry="18"/>
<text text-anchor="middle" x="1132.9" y="-14.3" font-family="Times,serif" font-size="14.00">emigração</text>
</g>
<!-- 0&#45;&gt;13 -->
<g id="edge13" class="edge">
<title>0&#45;&gt;13</title>
<path fill="none" stroke="black" d="M978.27,-93.49C992.96,-86.57 1012.59,-77.29 1029.9,-69 1051,-58.89 1074.48,-47.5 1093.68,-38.15"/>
<polygon fill="black" stroke="black" points="1095.28,-41.27 1102.74,-33.74 1092.22,-34.97 1095.28,-41.27"/>
<text text-anchor="middle" x="1072.4" y="-57.8" font-family="Times,serif" font-size="14.00">dep</text>
</g>
<!-- 14 -->
<g id="node15" class="node">
<title>14</title>
<ellipse fill="none" stroke="black" cx="1241.9" cy="-18" rx="31.7" ry="18"/>
<text text-anchor="middle" x="1241.9" y="-14.3" font-family="Times,serif" font-size="14.00">para</text>
</g>
<!-- 0&#45;&gt;14 -->
<g id="edge14" class="edge">
<title>0&#45;&gt;14</title>
<path fill="none" stroke="black" d="M982.38,-97.95C1027.73,-87.29 1122.89,-63.68 1200.9,-36 1203.16,-35.2 1205.49,-34.33 1207.82,-33.44"/>
<polygon fill="black" stroke="black" points="1209.34,-36.61 1217.34,-29.67 1206.76,-30.1 1209.34,-36.61"/>
<text text-anchor="middle" x="1155.4" y="-57.8" font-family="Times,serif" font-size="14.00">dep</text>
</g>
<!-- 15 -->
<g id="node16" class="node">
<title>15</title>
<ellipse fill="none" stroke="black" cx="1318.9" cy="-18" rx="27" ry="18"/>
<text text-anchor="middle" x="1318.9" y="-14.3" font-family="Times,serif" font-size="14.00">a</text>
</g>
<!-- 0&#45;&gt;15 -->
<g id="edge15" class="edge">
<title>0&#45;&gt;15</title>
<path fill="none" stroke="black" d="M983.88,-101.25C1041.48,-94.94 1176.79,-76.71 1282.9,-36 1284.74,-35.29 1286.61,-34.54 1288.49,-33.74"/>
<polygon fill="black" stroke="black" points="1290.09,-36.86 1297.8,-29.6 1287.25,-30.47 1290.09,-36.86"/>
<text text-anchor="middle" x="1236.4" y="-57.8" font-family="Times,serif" font-size="14.00">dep</text>
</g>
<!-- 16 -->
<g id="node17" class="node">
<title>16</title>
<ellipse fill="none" stroke="black" cx="1412.9" cy="-18" rx="48.99" ry="18"/>
<text text-anchor="middle" x="1412.9" y="-14.3" font-family="Times,serif" font-size="14.00">Hungria</text>
</g>
<!-- 0&#45;&gt;16 -->
<g id="edge16" class="edge">
<title>0&#45;&gt;16</title>
<path fill="none" stroke="black" d="M984.54,-102.43C1037.99,-99.1 1156.35,-89.87 1253.9,-69 1293.98,-60.42 1338.39,-46.03 1370.07,-34.88"/>
<polygon fill="black" stroke="black" points="1371.64,-38.04 1379.88,-31.38 1369.29,-31.44 1371.64,-38.04"/>
<text text-anchor="middle" x="1321.4" y="-57.8" font-family="Times,serif" font-size="14.00">dep</text>
</g>
<!-- 17 -->
<g id="node18" class="node">
<title>17</title>
<ellipse fill="none" stroke="black" cx="1506.9" cy="-18" rx="27" ry="18"/>
<text text-anchor="middle" x="1506.9" y="-14.3" font-family="Times,serif" font-size="14.00">é</text>
</g>
<!-- 0&#45;&gt;17 -->
<g id="edge17" class="edge">
<title>0&#45;&gt;17</title>
<path fill="none" stroke="black" d="M984.44,-102.89C1048.33,-100.09 1207.57,-91.28 1338.9,-69 1398.52,-58.89 1413.95,-56.34 1470.9,-36 1472.75,-35.34 1474.64,-34.61 1476.53,-33.84"/>
<polygon fill="black" stroke="black" points="1478.1,-36.98 1485.87,-29.77 1475.3,-30.56 1478.1,-36.98"/>
<text text-anchor="middle" x="1428.4" y="-57.8" font-family="Times,serif" font-size="14.00">dep</text>
</g>
<!-- 18 -->
<g id="node19" class="node">
<title>18</title>
<ellipse fill="none" stroke="black" cx="1578.9" cy="-18" rx="27" ry="18"/>
<text text-anchor="middle" x="1578.9" y="-14.3" font-family="Times,serif" font-size="14.00">a</text>
</g>
<!-- 0&#45;&gt;18 -->
<g id="edge18" class="edge">
<title>0&#45;&gt;18</title>
<path fill="none" stroke="black" d="M984.69,-104.5C1060.83,-105.28 1273.49,-103.88 1445.9,-69 1482.5,-61.59 1522.33,-45.46 1548.77,-33.51"/>
<polygon fill="black" stroke="black" points="1550.25,-36.68 1557.87,-29.32 1547.32,-30.32 1550.25,-36.68"/>
<text text-anchor="middle" x="1508.4" y="-57.8" font-family="Times,serif" font-size="14.00">dep</text>
</g>
<!-- 19 -->
<g id="node20" class="node">
<title>19</title>
<ellipse fill="none" stroke="black" cx="1667.9" cy="-18" rx="43.59" ry="18"/>
<text text-anchor="middle" x="1667.9" y="-14.3" font-family="Times,serif" font-size="14.00">melhor</text>
</g>
<!-- 0&#45;&gt;19 -->
<g id="edge19" class="edge">
<title>0&#45;&gt;19</title>
<path fill="none" stroke="black" d="M984.56,-103.29C1084.99,-100.63 1420.59,-90.34 1525.9,-69 1562.21,-61.64 1601.86,-47.1 1630.01,-35.58"/>
<polygon fill="black" stroke="black" points="1631.57,-38.72 1639.46,-31.65 1628.88,-32.26 1631.57,-38.72"/>
<text text-anchor="middle" x="1591.4" y="-57.8" font-family="Times,serif" font-size="14.00">dep</text>
</g>
<!-- 20 -->
<g id="node21" class="node">
<title>20</title>
<ellipse fill="none" stroke="black" cx="1766.9" cy="-18" rx="37.89" ry="18"/>
<text text-anchor="middle" x="1766.9" y="-14.3" font-family="Times,serif" font-size="14.00">opção</text>
</g>
<!-- 0&#45;&gt;20 -->
<g id="edge20" class="edge">
<title>0&#45;&gt;20</title>
<path fill="none" stroke="black" d="M984.45,-103.35C1093.81,-100.74 1486.09,-90.09 1608.9,-69 1651.24,-61.73 1697.95,-45.93 1729.52,-34.02"/>
<polygon fill="black" stroke="black" points="1731.13,-37.15 1739.21,-30.31 1728.62,-30.62 1731.13,-37.15"/>
<text text-anchor="middle" x="1684.4" y="-57.8" font-family="Times,serif" font-size="14.00">dep</text>
</g>
<!-- 21 -->
<g id="node22" class="node">
<title>21</title>
<ellipse fill="none" stroke="black" cx="1849.9" cy="-18" rx="27" ry="18"/>
<text text-anchor="middle" x="1849.9" y="-14.3" font-family="Times,serif" font-size="14.00">.</text>
</g>
<!-- 0&#45;&gt;21 -->
<g id="edge21" class="edge">
<title>0&#45;&gt;21</title>
<path fill="none" stroke="black" d="M984.77,-103.57C1104.22,-101.64 1560.13,-92.85 1701.9,-69 1753.07,-60.39 1765.4,-54.47 1813.9,-36 1815.74,-35.3 1817.61,-34.54 1819.5,-33.75"/>
<polygon fill="black" stroke="black" points="1821.09,-36.88 1828.81,-29.62 1818.25,-30.48 1821.09,-36.88"/>
<text text-anchor="middle" x="1778.4" y="-57.8" font-family="Times,serif" font-size="14.00">dep</text>
</g>
</g>
</svg>
