<?xml version="1.0" encoding="UTF-8" standalone="no"?>
<!DOCTYPE svg PUBLIC "-//W3C//DTD SVG 1.1//EN"
 "http://www.w3.org/Graphics/SVG/1.1/DTD/svg11.dtd">
<!-- Generated by graphviz version 2.42.4 (0)
 -->
<!-- Pages: 1 -->
<svg width="3805pt" height="131pt"
 viewBox="0.00 0.00 3804.55 131.00" xmlns="http://www.w3.org/2000/svg" xmlns:xlink="http://www.w3.org/1999/xlink">
<g id="graph0" class="graph" transform="scale(1 1) rotate(0) translate(4 127)">
<polygon fill="white" stroke="transparent" points="-4,4 -4,-127 3800.55,-127 3800.55,4 -4,4"/>
<!-- 0 -->
<g id="node1" class="node">
<title>0</title>
<ellipse fill="none" stroke="black" cx="2020.55" cy="-105" rx="31.7" ry="18"/>
<text text-anchor="middle" x="2020.55" y="-101.3" font-family="Times,serif" font-size="14.00">Para</text>
</g>
<!-- 1 -->
<g id="node2" class="node">
<title>1</title>
<ellipse fill="none" stroke="black" cx="30.55" cy="-18" rx="30.59" ry="18"/>
<text text-anchor="middle" x="30.55" y="-14.3" font-family="Times,serif" font-size="14.00">esta</text>
</g>
<!-- 0&#45;&gt;1 -->
<g id="edge1" class="edge">
<title>0&#45;&gt;1</title>
<path fill="none" stroke="black" d="M1988.72,-103.84C1760.73,-102.67 379.77,-94.52 195.55,-69 138.21,-61.06 124.24,-54.96 69.55,-36 67.45,-35.27 65.31,-34.48 63.16,-33.65"/>
<polygon fill="black" stroke="black" points="64.41,-30.38 53.82,-29.85 61.76,-36.86 64.41,-30.38"/>
<text text-anchor="middle" x="209.05" y="-57.8" font-family="Times,serif" font-size="14.00">dep</text>
</g>
<!-- 2 -->
<g id="node3" class="node">
<title>2</title>
<ellipse fill="none" stroke="black" cx="134.55" cy="-18" rx="55.79" ry="18"/>
<text text-anchor="middle" x="134.55" y="-14.3" font-family="Times,serif" font-size="14.00">moradora</text>
</g>
<!-- 0&#45;&gt;2 -->
<g id="edge2" class="edge">
<title>0&#45;&gt;2</title>
<path fill="none" stroke="black" d="M1988.5,-103.93C1766.26,-103.4 458.42,-99.02 284.55,-69 246.88,-62.5 205.8,-48.27 176.18,-36.65"/>
<polygon fill="black" stroke="black" points="177.18,-33.28 166.59,-32.83 174.58,-39.78 177.18,-33.28"/>
<text text-anchor="middle" x="298.05" y="-57.8" font-family="Times,serif" font-size="14.00">dep</text>
</g>
<!-- 3 -->
<g id="node4" class="node">
<title>3</title>
<ellipse fill="none" stroke="black" cx="235.55" cy="-18" rx="27" ry="18"/>
<text text-anchor="middle" x="235.55" y="-14.3" font-family="Times,serif" font-size="14.00">,</text>
</g>
<!-- 0&#45;&gt;3 -->
<g id="edge3" class="edge">
<title>0&#45;&gt;3</title>
<path fill="none" stroke="black" d="M1988.65,-103.92C1773.08,-103.28 532.6,-98.38 367.55,-69 331.18,-62.53 291.87,-46.34 265.7,-34.12"/>
<polygon fill="black" stroke="black" points="266.88,-30.81 256.34,-29.67 263.86,-37.13 266.88,-30.81"/>
<text text-anchor="middle" x="381.05" y="-57.8" font-family="Times,serif" font-size="14.00">dep</text>
</g>
<!-- 4 -->
<g id="node5" class="node">
<title>4</title>
<ellipse fill="none" stroke="black" cx="307.55" cy="-18" rx="27" ry="18"/>
<text text-anchor="middle" x="307.55" y="-14.3" font-family="Times,serif" font-size="14.00">a</text>
</g>
<!-- 0&#45;&gt;4 -->
<g id="edge4" class="edge">
<title>0&#45;&gt;4</title>
<path fill="none" stroke="black" d="M1988.73,-103.72C1781.52,-101.81 627.59,-90.3 472.55,-69 413.92,-60.95 399.22,-56.06 343.55,-36 341.69,-35.33 339.81,-34.6 337.92,-33.83"/>
<polygon fill="black" stroke="black" points="339.15,-30.55 328.58,-29.75 336.34,-36.97 339.15,-30.55"/>
<text text-anchor="middle" x="486.05" y="-57.8" font-family="Times,serif" font-size="14.00">dep</text>
</g>
<!-- 5 -->
<g id="node6" class="node">
<title>5</title>
<ellipse fill="none" stroke="black" cx="408.55" cy="-18" rx="55.79" ry="18"/>
<text text-anchor="middle" x="408.55" y="-14.3" font-family="Times,serif" font-size="14.00">autarquia</text>
</g>
<!-- 0&#45;&gt;5 -->
<g id="edge5" class="edge">
<title>0&#45;&gt;5</title>
<path fill="none" stroke="black" d="M1988.67,-103.78C1788.46,-102.36 708.31,-93.56 563.55,-69 524.43,-62.36 481.63,-47.98 450.93,-36.34"/>
<polygon fill="black" stroke="black" points="452,-33 441.41,-32.67 449.48,-39.53 452,-33"/>
<text text-anchor="middle" x="577.05" y="-57.8" font-family="Times,serif" font-size="14.00">dep</text>
</g>
<!-- 6 -->
<g id="node7" class="node">
<title>6</title>
<ellipse fill="none" stroke="black" cx="518.55" cy="-18" rx="36.29" ry="18"/>
<text text-anchor="middle" x="518.55" y="-14.3" font-family="Times,serif" font-size="14.00">ainda</text>
</g>
<!-- 0&#45;&gt;6 -->
<g id="edge6" class="edge">
<title>0&#45;&gt;6</title>
<path fill="none" stroke="black" d="M1988.54,-103.86C1794.44,-102.95 779.04,-96.88 643.55,-69 611.21,-62.35 576.5,-47.81 551.89,-36.12"/>
<polygon fill="black" stroke="black" points="553.17,-32.85 542.65,-31.64 550.12,-39.15 553.17,-32.85"/>
<text text-anchor="middle" x="657.05" y="-57.8" font-family="Times,serif" font-size="14.00">dep</text>
</g>
<!-- 7 -->
<g id="node8" class="node">
<title>7</title>
<ellipse fill="none" stroke="black" cx="600.55" cy="-18" rx="27.1" ry="18"/>
<text text-anchor="middle" x="600.55" y="-14.3" font-family="Times,serif" font-size="14.00">não</text>
</g>
<!-- 0&#45;&gt;7 -->
<g id="edge7" class="edge">
<title>0&#45;&gt;7</title>
<path fill="none" stroke="black" d="M1988.55,-103.79C1801.07,-102.49 849.06,-94.67 721.55,-69 688.84,-62.42 653.86,-46.95 629.97,-34.94"/>
<polygon fill="black" stroke="black" points="631.25,-31.67 620.76,-30.21 628.06,-37.89 631.25,-31.67"/>
<text text-anchor="middle" x="735.05" y="-57.8" font-family="Times,serif" font-size="14.00">dep</text>
</g>
<!-- 8 -->
<g id="node9" class="node">
<title>8</title>
<ellipse fill="none" stroke="black" cx="672.55" cy="-18" rx="27" ry="18"/>
<text text-anchor="middle" x="672.55" y="-14.3" font-family="Times,serif" font-size="14.00">fez</text>
</g>
<!-- 0&#45;&gt;8 -->
<g id="edge8" class="edge">
<title>0&#45;&gt;8</title>
<path fill="none" stroke="black" d="M1988.55,-103.66C1808.25,-101.69 922.96,-90.92 803.55,-69 767.45,-62.37 728.45,-46.22 702.47,-34.05"/>
<polygon fill="black" stroke="black" points="703.72,-30.76 693.19,-29.61 700.7,-37.08 703.72,-30.76"/>
<text text-anchor="middle" x="817.05" y="-57.8" font-family="Times,serif" font-size="14.00">dep</text>
</g>
<!-- 9 -->
<g id="node10" class="node">
<title>9</title>
<ellipse fill="none" stroke="black" cx="744.55" cy="-18" rx="27" ry="18"/>
<text text-anchor="middle" x="744.55" y="-14.3" font-family="Times,serif" font-size="14.00">as</text>
</g>
<!-- 0&#45;&gt;9 -->
<g id="edge9" class="edge">
<title>0&#45;&gt;9</title>
<path fill="none" stroke="black" d="M1988.66,-103.91C1830.43,-103.33 1128.54,-99.06 912.55,-69 852.65,-60.66 837.5,-56.34 780.55,-36 778.69,-35.34 776.8,-34.61 774.91,-33.84"/>
<polygon fill="black" stroke="black" points="776.14,-30.56 765.58,-29.77 773.34,-36.98 776.14,-30.56"/>
<text text-anchor="middle" x="926.05" y="-57.8" font-family="Times,serif" font-size="14.00">dep</text>
</g>
<!-- 10 -->
<g id="node11" class="node">
<title>10</title>
<ellipse fill="none" stroke="black" cx="825.55" cy="-18" rx="36.29" ry="18"/>
<text text-anchor="middle" x="825.55" y="-14.3" font-family="Times,serif" font-size="14.00">obras</text>
</g>
<!-- 0&#45;&gt;10 -->
<g id="edge10" class="edge">
<title>0&#45;&gt;10</title>
<path fill="none" stroke="black" d="M1988.81,-103.45C1843.73,-100.83 1242.66,-88.98 1055.55,-69 972.5,-60.13 951.07,-58.19 870.55,-36 867.92,-35.28 865.23,-34.46 862.54,-33.59"/>
<polygon fill="black" stroke="black" points="863.48,-30.21 852.89,-30.25 861.19,-36.83 863.48,-30.21"/>
<text text-anchor="middle" x="1069.05" y="-57.8" font-family="Times,serif" font-size="14.00">dep</text>
</g>
<!-- 11 -->
<g id="node12" class="node">
<title>11</title>
<ellipse fill="none" stroke="black" cx="944.55" cy="-18" rx="64.99" ry="18"/>
<text text-anchor="middle" x="944.55" y="-14.3" font-family="Times,serif" font-size="14.00">necessárias</text>
</g>
<!-- 0&#45;&gt;11 -->
<g id="edge11" class="edge">
<title>0&#45;&gt;11</title>
<path fill="none" stroke="black" d="M1988.46,-103.45C1853.33,-101.02 1330.05,-90.4 1166.55,-69 1108.28,-61.37 1042.77,-45.73 998.11,-33.96"/>
<polygon fill="black" stroke="black" points="998.91,-30.55 988.35,-31.36 997.11,-37.31 998.91,-30.55"/>
<text text-anchor="middle" x="1180.05" y="-57.8" font-family="Times,serif" font-size="14.00">dep</text>
</g>
<!-- 12 -->
<g id="node13" class="node">
<title>12</title>
<ellipse fill="none" stroke="black" cx="1071.55" cy="-18" rx="43.59" ry="18"/>
<text text-anchor="middle" x="1071.55" y="-14.3" font-family="Times,serif" font-size="14.00">porque</text>
</g>
<!-- 0&#45;&gt;12 -->
<g id="edge12" class="edge">
<title>0&#45;&gt;12</title>
<path fill="none" stroke="black" d="M1988.7,-104.16C1886.61,-104.3 1558.48,-101.98 1289.55,-69 1214.89,-59.84 1196.32,-55.05 1123.55,-36 1120.23,-35.13 1116.82,-34.17 1113.4,-33.16"/>
<polygon fill="black" stroke="black" points="1114.41,-29.81 1103.82,-30.21 1112.35,-36.5 1114.41,-29.81"/>
<text text-anchor="middle" x="1303.05" y="-57.8" font-family="Times,serif" font-size="14.00">dep</text>
</g>
<!-- 13 -->
<g id="node14" class="node">
<title>13</title>
<ellipse fill="none" stroke="black" cx="1188.55" cy="-18" rx="55.79" ry="18"/>
<text text-anchor="middle" x="1188.55" y="-14.3" font-family="Times,serif" font-size="14.00">considera</text>
</g>
<!-- 0&#45;&gt;13 -->
<g id="edge13" class="edge">
<title>0&#45;&gt;13</title>
<path fill="none" stroke="black" d="M1988.43,-104.15C1895.8,-104.17 1620.29,-101.3 1394.55,-69 1340.19,-61.22 1279.22,-45.53 1237.81,-33.79"/>
<polygon fill="black" stroke="black" points="1238.56,-30.36 1227.98,-30.97 1236.63,-37.09 1238.56,-30.36"/>
<text text-anchor="middle" x="1408.05" y="-57.8" font-family="Times,serif" font-size="14.00">dep</text>
</g>
<!-- 14 -->
<g id="node15" class="node">
<title>14</title>
<ellipse fill="none" stroke="black" cx="1303.55" cy="-18" rx="41.69" ry="18"/>
<text text-anchor="middle" x="1303.55" y="-14.3" font-family="Times,serif" font-size="14.00">aquela</text>
</g>
<!-- 0&#45;&gt;14 -->
<g id="edge14" class="edge">
<title>0&#45;&gt;14</title>
<path fill="none" stroke="black" d="M1988.56,-103.42C1907.63,-101.6 1688.31,-94.52 1507.55,-69 1438.67,-59.27 1421.64,-54.36 1354.55,-36 1351.21,-35.09 1347.76,-34.08 1344.31,-33.03"/>
<polygon fill="black" stroke="black" points="1345.26,-29.65 1334.67,-29.97 1343.15,-36.33 1345.26,-29.65"/>
<text text-anchor="middle" x="1521.05" y="-57.8" font-family="Times,serif" font-size="14.00">dep</text>
</g>
<!-- 15 -->
<g id="node16" class="node">
<title>15</title>
<ellipse fill="none" stroke="black" cx="1430.55" cy="-18" rx="66.89" ry="18"/>
<text text-anchor="middle" x="1430.55" y="-14.3" font-family="Times,serif" font-size="14.00">urbanização</text>
</g>
<!-- 0&#45;&gt;15 -->
<g id="edge15" class="edge">
<title>0&#45;&gt;15</title>
<path fill="none" stroke="black" d="M1988.56,-103.57C1917.82,-102.12 1743,-95.89 1599.55,-69 1557.94,-61.2 1511.95,-47.23 1478.46,-36.03"/>
<polygon fill="black" stroke="black" points="1479.52,-32.7 1468.93,-32.81 1477.28,-39.33 1479.52,-32.7"/>
<text text-anchor="middle" x="1613.05" y="-57.8" font-family="Times,serif" font-size="14.00">dep</text>
</g>
<!-- 16 -->
<g id="node17" class="node">
<title>16</title>
<ellipse fill="none" stroke="black" cx="1550.55" cy="-18" rx="35.19" ry="18"/>
<text text-anchor="middle" x="1550.55" y="-14.3" font-family="Times,serif" font-size="14.00">como</text>
</g>
<!-- 0&#45;&gt;16 -->
<g id="edge16" class="edge">
<title>0&#45;&gt;16</title>
<path fill="none" stroke="black" d="M1988.75,-103.68C1927.46,-102.42 1789.1,-96.49 1676.55,-69 1644.25,-61.11 1609.24,-46.71 1584.34,-35.38"/>
<polygon fill="black" stroke="black" points="1585.53,-32.07 1574.98,-31.05 1582.59,-38.43 1585.53,-32.07"/>
<text text-anchor="middle" x="1690.05" y="-57.8" font-family="Times,serif" font-size="14.00">dep</text>
</g>
<!-- 17 -->
<g id="node18" class="node">
<title>17</title>
<ellipse fill="none" stroke="black" cx="1630.55" cy="-18" rx="27" ry="18"/>
<text text-anchor="middle" x="1630.55" y="-14.3" font-family="Times,serif" font-size="14.00">«</text>
</g>
<!-- 0&#45;&gt;17 -->
<g id="edge17" class="edge">
<title>0&#45;&gt;17</title>
<path fill="none" stroke="black" d="M1989.02,-102.36C1938.3,-99.18 1835.74,-90.48 1751.55,-69 1719.41,-60.8 1684.61,-45.71 1660.61,-34.24"/>
<polygon fill="black" stroke="black" points="1661.87,-30.96 1651.34,-29.73 1658.8,-37.25 1661.87,-30.96"/>
<text text-anchor="middle" x="1765.05" y="-57.8" font-family="Times,serif" font-size="14.00">dep</text>
</g>
<!-- 18 -->
<g id="node19" class="node">
<title>18</title>
<ellipse fill="none" stroke="black" cx="1702.55" cy="-18" rx="27" ry="18"/>
<text text-anchor="middle" x="1702.55" y="-14.3" font-family="Times,serif" font-size="14.00">o</text>
</g>
<!-- 0&#45;&gt;18 -->
<g id="edge18" class="edge">
<title>0&#45;&gt;18</title>
<path fill="none" stroke="black" d="M1989.59,-100.17C1950.97,-94.99 1883.14,-84.58 1826.55,-69 1786.27,-57.91 1777.02,-52.27 1738.55,-36 1736.73,-35.23 1734.88,-34.43 1733.01,-33.6"/>
<polygon fill="black" stroke="black" points="1734.29,-30.33 1723.74,-29.36 1731.38,-36.7 1734.29,-30.33"/>
<text text-anchor="middle" x="1840.05" y="-57.8" font-family="Times,serif" font-size="14.00">dep</text>
</g>
<!-- 19 -->
<g id="node20" class="node">
<title>19</title>
<ellipse fill="none" stroke="black" cx="1786.55" cy="-18" rx="38.99" ry="18"/>
<text text-anchor="middle" x="1786.55" y="-14.3" font-family="Times,serif" font-size="14.00">bairro</text>
</g>
<!-- 0&#45;&gt;19 -->
<g id="edge19" class="edge">
<title>0&#45;&gt;19</title>
<path fill="none" stroke="black" d="M1991.37,-97.55C1965.13,-91.4 1925.72,-81.25 1892.55,-69 1867.72,-59.83 1840.76,-47.07 1820.24,-36.73"/>
<polygon fill="black" stroke="black" points="1821.79,-33.6 1811.29,-32.18 1818.61,-39.84 1821.79,-33.6"/>
<text text-anchor="middle" x="1906.05" y="-57.8" font-family="Times,serif" font-size="14.00">dep</text>
</g>
<!-- 20 -->
<g id="node21" class="node">
<title>20</title>
<ellipse fill="none" stroke="black" cx="1870.55" cy="-18" rx="27" ry="18"/>
<text text-anchor="middle" x="1870.55" y="-14.3" font-family="Times,serif" font-size="14.00">de</text>
</g>
<!-- 0&#45;&gt;20 -->
<g id="edge20" class="edge">
<title>0&#45;&gt;20</title>
<path fill="none" stroke="black" d="M1995.78,-93.33C1981.2,-86.8 1962.53,-77.98 1946.55,-69 1929.44,-59.39 1911.04,-47.33 1896.63,-37.47"/>
<polygon fill="black" stroke="black" points="1898.44,-34.46 1888.22,-31.65 1894.46,-40.22 1898.44,-34.46"/>
<text text-anchor="middle" x="1960.05" y="-57.8" font-family="Times,serif" font-size="14.00">dep</text>
</g>
<!-- 21 -->
<g id="node22" class="node">
<title>21</title>
<ellipse fill="none" stroke="black" cx="1942.55" cy="-18" rx="27" ry="18"/>
<text text-anchor="middle" x="1942.55" y="-14.3" font-family="Times,serif" font-size="14.00">os</text>
</g>
<!-- 0&#45;&gt;21 -->
<g id="edge21" class="edge">
<title>0&#45;&gt;21</title>
<path fill="none" stroke="black" d="M2006.6,-88.8C1994.44,-75.55 1976.63,-56.14 1962.88,-41.16"/>
<polygon fill="black" stroke="black" points="1965.45,-38.78 1956.11,-33.78 1960.29,-43.51 1965.45,-38.78"/>
<text text-anchor="middle" x="2000.05" y="-57.8" font-family="Times,serif" font-size="14.00">dep</text>
</g>
<!-- 22 -->
<g id="node23" class="node">
<title>22</title>
<ellipse fill="none" stroke="black" cx="2020.55" cy="-18" rx="33.29" ry="18"/>
<text text-anchor="middle" x="2020.55" y="-14.3" font-family="Times,serif" font-size="14.00">ricos</text>
</g>
<!-- 0&#45;&gt;22 -->
<g id="edge22" class="edge">
<title>0&#45;&gt;22</title>
<path fill="none" stroke="black" d="M2020.55,-86.8C2020.55,-75.16 2020.55,-59.55 2020.55,-46.24"/>
<polygon fill="black" stroke="black" points="2024.05,-46.18 2020.55,-36.18 2017.05,-46.18 2024.05,-46.18"/>
<text text-anchor="middle" x="2034.05" y="-57.8" font-family="Times,serif" font-size="14.00">dep</text>
</g>
<!-- 23 -->
<g id="node24" class="node">
<title>23</title>
<ellipse fill="none" stroke="black" cx="2098.55" cy="-18" rx="27" ry="18"/>
<text text-anchor="middle" x="2098.55" y="-14.3" font-family="Times,serif" font-size="14.00">»</text>
</g>
<!-- 0&#45;&gt;23 -->
<g id="edge23" class="edge">
<title>0&#45;&gt;23</title>
<path fill="none" stroke="black" d="M2034.49,-88.8C2046.66,-75.55 2064.46,-56.14 2078.21,-41.16"/>
<polygon fill="black" stroke="black" points="2080.8,-43.51 2084.98,-33.78 2075.64,-38.78 2080.8,-43.51"/>
<text text-anchor="middle" x="2078.05" y="-57.8" font-family="Times,serif" font-size="14.00">dep</text>
</g>
<!-- 24 -->
<g id="node25" class="node">
<title>24</title>
<ellipse fill="none" stroke="black" cx="2170.55" cy="-18" rx="27" ry="18"/>
<text text-anchor="middle" x="2170.55" y="-14.3" font-family="Times,serif" font-size="14.00">,</text>
</g>
<!-- 0&#45;&gt;24 -->
<g id="edge24" class="edge">
<title>0&#45;&gt;24</title>
<path fill="none" stroke="black" d="M2045.34,-93.56C2060.18,-87.04 2079.27,-78.16 2095.55,-69 2112.38,-59.53 2130.41,-47.58 2144.57,-37.73"/>
<polygon fill="black" stroke="black" points="2146.68,-40.53 2152.84,-31.91 2142.65,-34.8 2146.68,-40.53"/>
<text text-anchor="middle" x="2133.05" y="-57.8" font-family="Times,serif" font-size="14.00">dep</text>
</g>
<!-- 25 -->
<g id="node26" class="node">
<title>25</title>
<ellipse fill="none" stroke="black" cx="2250.55" cy="-18" rx="35.19" ry="18"/>
<text text-anchor="middle" x="2250.55" y="-14.3" font-family="Times,serif" font-size="14.00">como</text>
</g>
<!-- 0&#45;&gt;25 -->
<g id="edge25" class="edge">
<title>0&#45;&gt;25</title>
<path fill="none" stroke="black" d="M2049.99,-97.85C2076.69,-91.86 2116.9,-81.79 2150.55,-69 2174.25,-59.99 2199.8,-47.16 2219.14,-36.75"/>
<polygon fill="black" stroke="black" points="2221,-39.72 2228.1,-31.86 2217.64,-33.58 2221,-39.72"/>
<text text-anchor="middle" x="2198.05" y="-57.8" font-family="Times,serif" font-size="14.00">dep</text>
</g>
<!-- 26 -->
<g id="node27" class="node">
<title>26</title>
<ellipse fill="none" stroke="black" cx="2343.55" cy="-18" rx="40.09" ry="18"/>
<text text-anchor="middle" x="2343.55" y="-14.3" font-family="Times,serif" font-size="14.00">afirma</text>
</g>
<!-- 0&#45;&gt;26 -->
<g id="edge26" class="edge">
<title>0&#45;&gt;26</title>
<path fill="none" stroke="black" d="M2051.36,-100.36C2090.16,-95.34 2158.61,-85.06 2215.55,-69 2247.11,-60.1 2281.67,-46.34 2306.92,-35.51"/>
<polygon fill="black" stroke="black" points="2308.34,-38.71 2316.12,-31.52 2305.55,-32.29 2308.34,-38.71"/>
<text text-anchor="middle" x="2273.05" y="-57.8" font-family="Times,serif" font-size="14.00">dep</text>
</g>
<!-- 27 -->
<g id="node28" class="node">
<title>27</title>
<ellipse fill="none" stroke="black" cx="2428.55" cy="-18" rx="27" ry="18"/>
<text text-anchor="middle" x="2428.55" y="-14.3" font-family="Times,serif" font-size="14.00">ter</text>
</g>
<!-- 0&#45;&gt;27 -->
<g id="edge27" class="edge">
<title>0&#45;&gt;27</title>
<path fill="none" stroke="black" d="M2052.06,-101.81C2102.78,-97.85 2205.46,-88.11 2290.55,-69 2337.04,-58.56 2348.25,-53.54 2392.55,-36 2394.38,-35.27 2396.25,-34.5 2398.13,-33.7"/>
<polygon fill="black" stroke="black" points="2399.73,-36.81 2407.43,-29.53 2396.87,-30.42 2399.73,-36.81"/>
<text text-anchor="middle" x="2360.05" y="-57.8" font-family="Times,serif" font-size="14.00">dep</text>
</g>
<!-- 28 -->
<g id="node29" class="node">
<title>28</title>
<ellipse fill="none" stroke="black" cx="2503.55" cy="-18" rx="29.8" ry="18"/>
<text text-anchor="middle" x="2503.55" y="-14.3" font-family="Times,serif" font-size="14.00">sido</text>
</g>
<!-- 0&#45;&gt;28 -->
<g id="edge28" class="edge">
<title>0&#45;&gt;28</title>
<path fill="none" stroke="black" d="M2052.53,-103.69C2115.55,-102.45 2259.92,-96.56 2377.55,-69 2410.72,-61.23 2446.67,-46.25 2471.65,-34.71"/>
<polygon fill="black" stroke="black" points="2473.43,-37.74 2480.98,-30.32 2470.45,-31.41 2473.43,-37.74"/>
<text text-anchor="middle" x="2438.05" y="-57.8" font-family="Times,serif" font-size="14.00">dep</text>
</g>
<!-- 29 -->
<g id="node30" class="node">
<title>29</title>
<ellipse fill="none" stroke="black" cx="2579.55" cy="-18" rx="28.7" ry="18"/>
<text text-anchor="middle" x="2579.55" y="-14.3" font-family="Times,serif" font-size="14.00">dito</text>
</g>
<!-- 0&#45;&gt;29 -->
<g id="edge29" class="edge">
<title>0&#45;&gt;29</title>
<path fill="none" stroke="black" d="M2052.39,-104.48C2124.91,-104.93 2307.53,-102.32 2455.55,-69 2488.73,-61.53 2524.56,-46.23 2549.13,-34.51"/>
<polygon fill="black" stroke="black" points="2550.82,-37.58 2558.28,-30.06 2547.76,-31.28 2550.82,-37.58"/>
<text text-anchor="middle" x="2515.05" y="-57.8" font-family="Times,serif" font-size="14.00">dep</text>
</g>
<!-- 30 -->
<g id="node31" class="node">
<title>30</title>
<ellipse fill="none" stroke="black" cx="2653.55" cy="-18" rx="27" ry="18"/>
<text text-anchor="middle" x="2653.55" y="-14.3" font-family="Times,serif" font-size="14.00">por</text>
</g>
<!-- 0&#45;&gt;30 -->
<g id="edge30" class="edge">
<title>0&#45;&gt;30</title>
<path fill="none" stroke="black" d="M2052.55,-103.07C2149.74,-100.06 2440.37,-89.54 2532.55,-69 2565.11,-61.74 2600.11,-46.37 2624.05,-34.58"/>
<polygon fill="black" stroke="black" points="2625.91,-37.55 2633.28,-29.93 2622.77,-31.3 2625.91,-37.55"/>
<text text-anchor="middle" x="2591.05" y="-57.8" font-family="Times,serif" font-size="14.00">dep</text>
</g>
<!-- 31 -->
<g id="node32" class="node">
<title>31</title>
<ellipse fill="none" stroke="black" cx="2725.55" cy="-18" rx="27" ry="18"/>
<text text-anchor="middle" x="2725.55" y="-14.3" font-family="Times,serif" font-size="14.00">o</text>
</g>
<!-- 0&#45;&gt;31 -->
<g id="edge31" class="edge">
<title>0&#45;&gt;31</title>
<path fill="none" stroke="black" d="M2052.34,-103.47C2158.67,-101.5 2501.21,-93.36 2608.55,-69 2639.98,-61.87 2673.58,-46.62 2696.68,-34.83"/>
<polygon fill="black" stroke="black" points="2698.34,-37.91 2705.59,-30.19 2695.11,-31.7 2698.34,-37.91"/>
<text text-anchor="middle" x="2666.05" y="-57.8" font-family="Times,serif" font-size="14.00">dep</text>
</g>
<!-- 32 -->
<g id="node33" class="node">
<title>32</title>
<ellipse fill="none" stroke="black" cx="2822.55" cy="-18" rx="51.99" ry="18"/>
<text text-anchor="middle" x="2822.55" y="-14.3" font-family="Times,serif" font-size="14.00">vereador</text>
</g>
<!-- 0&#45;&gt;32 -->
<g id="edge32" class="edge">
<title>0&#45;&gt;32</title>
<path fill="none" stroke="black" d="M2052.69,-103.54C2168.01,-101.72 2560.67,-93.78 2683.55,-69 2718.18,-62.02 2755.79,-48.07 2783.14,-36.68"/>
<polygon fill="black" stroke="black" points="2784.53,-39.89 2792.37,-32.77 2781.8,-33.45 2784.53,-39.89"/>
<text text-anchor="middle" x="2748.05" y="-57.8" font-family="Times,serif" font-size="14.00">dep</text>
</g>
<!-- 33 -->
<g id="node34" class="node">
<title>33</title>
<ellipse fill="none" stroke="black" cx="2919.55" cy="-18" rx="27" ry="18"/>
<text text-anchor="middle" x="2919.55" y="-14.3" font-family="Times,serif" font-size="14.00">de</text>
</g>
<!-- 0&#45;&gt;33 -->
<g id="edge33" class="edge">
<title>0&#45;&gt;33</title>
<path fill="none" stroke="black" d="M2052.68,-103.46C2176.82,-101.2 2625.09,-91.64 2765.55,-69 2819.31,-60.33 2832.52,-55.03 2883.55,-36 2885.39,-35.31 2887.27,-34.57 2889.16,-33.78"/>
<polygon fill="black" stroke="black" points="2890.74,-36.91 2898.48,-29.67 2887.92,-30.51 2890.74,-36.91"/>
<text text-anchor="middle" x="2845.05" y="-57.8" font-family="Times,serif" font-size="14.00">dep</text>
</g>
<!-- 34 -->
<g id="node35" class="node">
<title>34</title>
<ellipse fill="none" stroke="black" cx="2991.55" cy="-18" rx="27" ry="18"/>
<text text-anchor="middle" x="2991.55" y="-14.3" font-family="Times,serif" font-size="14.00">o</text>
</g>
<!-- 0&#45;&gt;34 -->
<g id="edge34" class="edge">
<title>0&#45;&gt;34</title>
<path fill="none" stroke="black" d="M2052.72,-103.95C2187,-103.52 2703.11,-99.87 2862.55,-69 2897.89,-62.16 2936.05,-46.19 2961.63,-34.13"/>
<polygon fill="black" stroke="black" points="2963.29,-37.22 2970.79,-29.73 2960.26,-30.91 2963.29,-37.22"/>
<text text-anchor="middle" x="2927.05" y="-57.8" font-family="Times,serif" font-size="14.00">dep</text>
</g>
<!-- 35 -->
<g id="node36" class="node">
<title>35</title>
<ellipse fill="none" stroke="black" cx="3096.55" cy="-18" rx="59.59" ry="18"/>
<text text-anchor="middle" x="3096.55" y="-14.3" font-family="Times,serif" font-size="14.00">urbanismo</text>
</g>
<!-- 0&#45;&gt;35 -->
<g id="edge35" class="edge">
<title>0&#45;&gt;35</title>
<path fill="none" stroke="black" d="M2052.43,-103.99C2194.15,-103.74 2767.78,-100.77 2944.55,-69 2982.42,-62.19 3023.81,-48.12 3053.82,-36.63"/>
<polygon fill="black" stroke="black" points="3055.09,-39.89 3063.14,-33 3052.55,-33.36 3055.09,-39.89"/>
<text text-anchor="middle" x="3014.05" y="-57.8" font-family="Times,serif" font-size="14.00">dep</text>
</g>
<!-- 36 -->
<g id="node37" class="node">
<title>36</title>
<ellipse fill="none" stroke="black" cx="3201.55" cy="-18" rx="27" ry="18"/>
<text text-anchor="middle" x="3201.55" y="-14.3" font-family="Times,serif" font-size="14.00">,</text>
</g>
<!-- 0&#45;&gt;36 -->
<g id="edge36" class="edge">
<title>0&#45;&gt;36</title>
<path fill="none" stroke="black" d="M2052.32,-103.78C2201.77,-102.64 2835.63,-96.22 3031.55,-69 3092.3,-60.56 3107.75,-56.53 3165.55,-36 3167.45,-35.32 3169.39,-34.58 3171.33,-33.79"/>
<polygon fill="black" stroke="black" points="3173.14,-36.82 3180.91,-29.61 3170.34,-30.41 3173.14,-36.82"/>
<text text-anchor="middle" x="3125.05" y="-57.8" font-family="Times,serif" font-size="14.00">dep</text>
</g>
<!-- 37 -->
<g id="node38" class="node">
<title>37</title>
<ellipse fill="none" stroke="black" cx="3289.55" cy="-18" rx="42.79" ry="18"/>
<text text-anchor="middle" x="3289.55" y="-14.3" font-family="Times,serif" font-size="14.00">Miguel</text>
</g>
<!-- 0&#45;&gt;37 -->
<g id="edge37" class="edge">
<title>0&#45;&gt;37</title>
<path fill="none" stroke="black" d="M2052.63,-104.28C2212.61,-105.47 2925.15,-108.45 3142.55,-69 3180.67,-62.08 3222.33,-47.17 3251.54,-35.42"/>
<polygon fill="black" stroke="black" points="3253.01,-38.6 3260.94,-31.57 3250.36,-32.12 3253.01,-38.6"/>
<text text-anchor="middle" x="3214.05" y="-57.8" font-family="Times,serif" font-size="14.00">dep</text>
</g>
<!-- 38 -->
<g id="node39" class="node">
<title>38</title>
<ellipse fill="none" stroke="black" cx="3388.55" cy="-18" rx="38.19" ry="18"/>
<text text-anchor="middle" x="3388.55" y="-14.3" font-family="Times,serif" font-size="14.00">Vieira</text>
</g>
<!-- 0&#45;&gt;38 -->
<g id="edge38" class="edge">
<title>0&#45;&gt;38</title>
<path fill="none" stroke="black" d="M2052.62,-104.21C2220.04,-105.13 2994.97,-107.22 3231.55,-69 3273.59,-62.21 3319.84,-46.4 3351.17,-34.37"/>
<polygon fill="black" stroke="black" points="3352.76,-37.51 3360.8,-30.61 3350.21,-30.99 3352.76,-37.51"/>
<text text-anchor="middle" x="3307.05" y="-57.8" font-family="Times,serif" font-size="14.00">dep</text>
</g>
<!-- 39 -->
<g id="node40" class="node">
<title>39</title>
<ellipse fill="none" stroke="black" cx="3471.55" cy="-18" rx="27" ry="18"/>
<text text-anchor="middle" x="3471.55" y="-14.3" font-family="Times,serif" font-size="14.00">,</text>
</g>
<!-- 0&#45;&gt;39 -->
<g id="edge39" class="edge">
<title>0&#45;&gt;39</title>
<path fill="none" stroke="black" d="M2052.34,-103.65C2239.64,-101.49 3195.53,-89.54 3324.55,-69 3375.37,-60.91 3387.47,-54.37 3435.55,-36 3437.39,-35.3 3439.26,-34.54 3441.15,-33.75"/>
<polygon fill="black" stroke="black" points="3442.74,-36.87 3450.46,-29.61 3439.9,-30.47 3442.74,-36.87"/>
<text text-anchor="middle" x="3401.05" y="-57.8" font-family="Times,serif" font-size="14.00">dep</text>
</g>
<!-- 40 -->
<g id="node41" class="node">
<title>40</title>
<ellipse fill="none" stroke="black" cx="3543.55" cy="-18" rx="27" ry="18"/>
<text text-anchor="middle" x="3543.55" y="-14.3" font-family="Times,serif" font-size="14.00">de</text>
</g>
<!-- 0&#45;&gt;40 -->
<g id="edge40" class="edge">
<title>0&#45;&gt;40</title>
<path fill="none" stroke="black" d="M2052.4,-103.83C2247.8,-102.71 3280.49,-95.56 3418.55,-69 3452.59,-62.45 3489.14,-46.71 3513.87,-34.62"/>
<polygon fill="black" stroke="black" points="3515.68,-37.63 3523.06,-30.03 3512.55,-31.37 3515.68,-37.63"/>
<text text-anchor="middle" x="3482.05" y="-57.8" font-family="Times,serif" font-size="14.00">dep</text>
</g>
<!-- 41 -->
<g id="node42" class="node">
<title>41</title>
<ellipse fill="none" stroke="black" cx="3615.55" cy="-18" rx="27" ry="18"/>
<text text-anchor="middle" x="3615.55" y="-14.3" font-family="Times,serif" font-size="14.00">a</text>
</g>
<!-- 0&#45;&gt;41 -->
<g id="edge41" class="edge">
<title>0&#45;&gt;41</title>
<path fill="none" stroke="black" d="M2052.61,-103.95C2255.16,-103.51 3353.62,-99.72 3499.55,-69 3530.86,-62.41 3564.16,-47.09 3587.01,-35.13"/>
<polygon fill="black" stroke="black" points="3588.66,-38.22 3595.83,-30.41 3585.36,-32.05 3588.66,-38.22"/>
<text text-anchor="middle" x="3560.05" y="-57.8" font-family="Times,serif" font-size="14.00">dep</text>
</g>
<!-- 42 -->
<g id="node43" class="node">
<title>42</title>
<ellipse fill="none" stroke="black" cx="3692.55" cy="-18" rx="32.49" ry="18"/>
<text text-anchor="middle" x="3692.55" y="-14.3" font-family="Times,serif" font-size="14.00">CDU</text>
</g>
<!-- 0&#45;&gt;42 -->
<g id="edge42" class="edge">
<title>0&#45;&gt;42</title>
<path fill="none" stroke="black" d="M2052.6,-104.02C2261.36,-104.07 3423.8,-102.78 3577.55,-69 3607.32,-62.46 3638.92,-48.12 3661.45,-36.47"/>
<polygon fill="black" stroke="black" points="3663.31,-39.44 3670.51,-31.67 3660.04,-33.25 3663.31,-39.44"/>
<text text-anchor="middle" x="3637.05" y="-57.8" font-family="Times,serif" font-size="14.00">dep</text>
</g>
<!-- 43 -->
<g id="node44" class="node">
<title>43</title>
<ellipse fill="none" stroke="black" cx="3769.55" cy="-18" rx="27" ry="18"/>
<text text-anchor="middle" x="3769.55" y="-14.3" font-family="Times,serif" font-size="14.00">.</text>
</g>
<!-- 0&#45;&gt;43 -->
<g id="edge43" class="edge">
<title>0&#45;&gt;43</title>
<path fill="none" stroke="black" d="M2052.44,-104.03C2266.67,-104.15 3492.5,-103.29 3654.55,-69 3685.3,-62.49 3717.94,-47.42 3740.56,-35.52"/>
<polygon fill="black" stroke="black" points="3742.46,-38.47 3749.61,-30.64 3739.14,-32.31 3742.46,-38.47"/>
<text text-anchor="middle" x="3714.05" y="-57.8" font-family="Times,serif" font-size="14.00">dep</text>
</g>
</g>
</svg>
