<?xml version="1.0" encoding="UTF-8" standalone="no"?>
<!DOCTYPE svg PUBLIC "-//W3C//DTD SVG 1.1//EN"
 "http://www.w3.org/Graphics/SVG/1.1/DTD/svg11.dtd">
<!-- Generated by graphviz version 2.42.4 (0)
 -->
<!-- Pages: 1 -->
<svg width="856pt" height="131pt"
 viewBox="0.00 0.00 856.00 131.00" xmlns="http://www.w3.org/2000/svg" xmlns:xlink="http://www.w3.org/1999/xlink">
<g id="graph0" class="graph" transform="scale(1 1) rotate(0) translate(4 127)">
<polygon fill="white" stroke="transparent" points="-4,4 -4,-127 852,-127 852,4 -4,4"/>
<!-- 0 -->
<g id="node1" class="node">
<title>0</title>
<ellipse fill="none" stroke="black" cx="425" cy="-105" rx="38.19" ry="18"/>
<text text-anchor="middle" x="425" y="-101.3" font-family="Times,serif" font-size="14.00">Assim</text>
</g>
<!-- 1 -->
<g id="node2" class="node">
<title>1</title>
<ellipse fill="none" stroke="black" cx="27" cy="-18" rx="27" ry="18"/>
<text text-anchor="middle" x="27" y="-14.3" font-family="Times,serif" font-size="14.00">,</text>
</g>
<!-- 0&#45;&gt;1 -->
<g id="edge1" class="edge">
<title>0&#45;&gt;1</title>
<path fill="none" stroke="black" d="M386.98,-102.28C332.74,-99.15 230.39,-90.69 146,-69 114.53,-60.91 80.52,-45.94 56.96,-34.48"/>
<polygon fill="black" stroke="black" points="58.36,-31.27 47.84,-29.97 55.26,-37.54 58.36,-31.27"/>
<text text-anchor="middle" x="159.5" y="-57.8" font-family="Times,serif" font-size="14.00">dep</text>
</g>
<!-- 2 -->
<g id="node3" class="node">
<title>2</title>
<ellipse fill="none" stroke="black" cx="99" cy="-18" rx="27" ry="18"/>
<text text-anchor="middle" x="99" y="-14.3" font-family="Times,serif" font-size="14.00">a</text>
</g>
<!-- 0&#45;&gt;2 -->
<g id="edge2" class="edge">
<title>0&#45;&gt;2</title>
<path fill="none" stroke="black" d="M387.85,-99.94C346.4,-94.89 277.59,-84.92 220,-69 180.94,-58.2 172.23,-52 135,-36 133.19,-35.22 131.34,-34.41 129.47,-33.57"/>
<polygon fill="black" stroke="black" points="130.76,-30.31 120.21,-29.32 127.84,-36.67 130.76,-30.31"/>
<text text-anchor="middle" x="233.5" y="-57.8" font-family="Times,serif" font-size="14.00">dep</text>
</g>
<!-- 3 -->
<g id="node4" class="node">
<title>3</title>
<ellipse fill="none" stroke="black" cx="171" cy="-18" rx="27" ry="18"/>
<text text-anchor="middle" x="171" y="-14.3" font-family="Times,serif" font-size="14.00">o</text>
</g>
<!-- 0&#45;&gt;3 -->
<g id="edge3" class="edge">
<title>0&#45;&gt;3</title>
<path fill="none" stroke="black" d="M391.35,-96.26C364.28,-89.77 325.38,-79.83 292,-69 253.45,-56.49 244.23,-52 207,-36 205.19,-35.22 203.34,-34.41 201.47,-33.57"/>
<polygon fill="black" stroke="black" points="202.76,-30.31 192.21,-29.32 199.84,-36.67 202.76,-30.31"/>
<text text-anchor="middle" x="305.5" y="-57.8" font-family="Times,serif" font-size="14.00">dep</text>
</g>
<!-- 4 -->
<g id="node5" class="node">
<title>4</title>
<ellipse fill="none" stroke="black" cx="257" cy="-18" rx="40.89" ry="18"/>
<text text-anchor="middle" x="257" y="-14.3" font-family="Times,serif" font-size="14.00">menos</text>
</g>
<!-- 0&#45;&gt;4 -->
<g id="edge4" class="edge">
<title>0&#45;&gt;4</title>
<path fill="none" stroke="black" d="M398.48,-91.83C384.32,-85.23 366.62,-76.84 351,-69 330.74,-58.83 308.32,-46.93 290.46,-37.29"/>
<polygon fill="black" stroke="black" points="292.03,-34.16 281.57,-32.48 288.7,-40.32 292.03,-34.16"/>
<text text-anchor="middle" x="364.5" y="-57.8" font-family="Times,serif" font-size="14.00">dep</text>
</g>
<!-- 5 -->
<g id="node6" class="node">
<title>5</title>
<ellipse fill="none" stroke="black" cx="348" cy="-18" rx="32.49" ry="18"/>
<text text-anchor="middle" x="348" y="-14.3" font-family="Times,serif" font-size="14.00">sabe</text>
</g>
<!-- 0&#45;&gt;5 -->
<g id="edge5" class="edge">
<title>0&#45;&gt;5</title>
<path fill="none" stroke="black" d="M410.52,-88.01C398.75,-75.03 382.01,-56.55 368.81,-41.98"/>
<polygon fill="black" stroke="black" points="371.21,-39.41 361.9,-34.34 366.02,-44.1 371.21,-39.41"/>
<text text-anchor="middle" x="405.5" y="-57.8" font-family="Times,serif" font-size="14.00">dep</text>
</g>
<!-- 6 -->
<g id="node7" class="node">
<title>6</title>
<ellipse fill="none" stroke="black" cx="425" cy="-18" rx="27" ry="18"/>
<text text-anchor="middle" x="425" y="-14.3" font-family="Times,serif" font-size="14.00">se</text>
</g>
<!-- 0&#45;&gt;6 -->
<g id="edge6" class="edge">
<title>0&#45;&gt;6</title>
<path fill="none" stroke="black" d="M425,-86.8C425,-75.16 425,-59.55 425,-46.24"/>
<polygon fill="black" stroke="black" points="428.5,-46.18 425,-36.18 421.5,-46.18 428.5,-46.18"/>
<text text-anchor="middle" x="438.5" y="-57.8" font-family="Times,serif" font-size="14.00">dep</text>
</g>
<!-- 7 -->
<g id="node8" class="node">
<title>7</title>
<ellipse fill="none" stroke="black" cx="503" cy="-18" rx="33.29" ry="18"/>
<text text-anchor="middle" x="503" y="-14.3" font-family="Times,serif" font-size="14.00">onde</text>
</g>
<!-- 0&#45;&gt;7 -->
<g id="edge7" class="edge">
<title>0&#45;&gt;7</title>
<path fill="none" stroke="black" d="M439.67,-88.01C451.59,-75.03 468.55,-56.55 481.92,-41.98"/>
<polygon fill="black" stroke="black" points="484.74,-44.08 488.92,-34.34 479.58,-39.35 484.74,-44.08"/>
<text text-anchor="middle" x="482.5" y="-57.8" font-family="Times,serif" font-size="14.00">dep</text>
</g>
<!-- 8 -->
<g id="node9" class="node">
<title>8</title>
<ellipse fill="none" stroke="black" cx="581" cy="-18" rx="27" ry="18"/>
<text text-anchor="middle" x="581" y="-14.3" font-family="Times,serif" font-size="14.00">e</text>
</g>
<!-- 0&#45;&gt;8 -->
<g id="edge8" class="edge">
<title>0&#45;&gt;8</title>
<path fill="none" stroke="black" d="M452.45,-92.11C466.82,-85.66 484.57,-77.32 500,-69 518.36,-59.09 538.31,-46.8 553.81,-36.88"/>
<polygon fill="black" stroke="black" points="555.88,-39.72 562.38,-31.35 552.08,-33.83 555.88,-39.72"/>
<text text-anchor="middle" x="538.5" y="-57.8" font-family="Times,serif" font-size="14.00">dep</text>
</g>
<!-- 9 -->
<g id="node10" class="node">
<title>9</title>
<ellipse fill="none" stroke="black" cx="656" cy="-18" rx="29.8" ry="18"/>
<text text-anchor="middle" x="656" y="-14.3" font-family="Times,serif" font-size="14.00">com</text>
</g>
<!-- 0&#45;&gt;9 -->
<g id="edge9" class="edge">
<title>0&#45;&gt;9</title>
<path fill="none" stroke="black" d="M459.25,-96.85C486.03,-90.79 523.97,-81.14 556,-69 580.33,-59.78 606.6,-46.5 626.11,-35.95"/>
<polygon fill="black" stroke="black" points="628.02,-38.89 635.11,-31.01 624.65,-32.75 628.02,-38.89"/>
<text text-anchor="middle" x="603.5" y="-57.8" font-family="Times,serif" font-size="14.00">dep</text>
</g>
<!-- 10 -->
<g id="node11" class="node">
<title>10</title>
<ellipse fill="none" stroke="black" cx="740" cy="-18" rx="36.29" ry="18"/>
<text text-anchor="middle" x="740" y="-14.3" font-family="Times,serif" font-size="14.00">quem</text>
</g>
<!-- 0&#45;&gt;10 -->
<g id="edge10" class="edge">
<title>0&#45;&gt;10</title>
<path fill="none" stroke="black" d="M462.05,-99.86C501.88,-94.85 566.8,-85.01 621,-69 650.47,-60.3 682.5,-46.57 705.91,-35.7"/>
<polygon fill="black" stroke="black" points="707.5,-38.82 715.06,-31.39 704.52,-32.49 707.5,-38.82"/>
<text text-anchor="middle" x="675.5" y="-57.8" font-family="Times,serif" font-size="14.00">dep</text>
</g>
<!-- 11 -->
<g id="node12" class="node">
<title>11</title>
<ellipse fill="none" stroke="black" cx="821" cy="-18" rx="27" ry="18"/>
<text text-anchor="middle" x="821" y="-14.3" font-family="Times,serif" font-size="14.00">.</text>
</g>
<!-- 0&#45;&gt;11 -->
<g id="edge11" class="edge">
<title>0&#45;&gt;11</title>
<path fill="none" stroke="black" d="M462.75,-101.63C515.06,-97.77 612.27,-88.51 693,-69 727.55,-60.65 765.23,-45.09 790.7,-33.53"/>
<polygon fill="black" stroke="black" points="792.22,-36.69 799.83,-29.32 789.29,-30.33 792.22,-36.69"/>
<text text-anchor="middle" x="753.5" y="-57.8" font-family="Times,serif" font-size="14.00">dep</text>
</g>
</g>
</svg>
