<?xml version="1.0" encoding="UTF-8" standalone="no"?>
<!DOCTYPE svg PUBLIC "-//W3C//DTD SVG 1.1//EN"
 "http://www.w3.org/Graphics/SVG/1.1/DTD/svg11.dtd">
<!-- Generated by graphviz version 2.42.4 (0)
 -->
<!-- Pages: 1 -->
<svg width="1112pt" height="131pt"
 viewBox="0.00 0.00 1112.25 131.00" xmlns="http://www.w3.org/2000/svg" xmlns:xlink="http://www.w3.org/1999/xlink">
<g id="graph0" class="graph" transform="scale(1 1) rotate(0) translate(4 127)">
<polygon fill="white" stroke="transparent" points="-4,4 -4,-127 1108.25,-127 1108.25,4 -4,4"/>
<!-- 0 -->
<g id="node1" class="node">
<title>0</title>
<ellipse fill="none" stroke="black" cx="593.25" cy="-105" rx="31.7" ry="18"/>
<text text-anchor="middle" x="593.25" y="-101.3" font-family="Times,serif" font-size="14.00">Para</text>
</g>
<!-- 1 -->
<g id="node2" class="node">
<title>1</title>
<ellipse fill="none" stroke="black" cx="29.25" cy="-18" rx="29.5" ry="18"/>
<text text-anchor="middle" x="29.25" y="-14.3" font-family="Times,serif" font-size="14.00">eles</text>
</g>
<!-- 0&#45;&gt;1 -->
<g id="edge1" class="edge">
<title>0&#45;&gt;1</title>
<path fill="none" stroke="black" d="M561.49,-101.81C499.51,-97.33 358.19,-86.06 240.25,-69 162.78,-57.79 141.92,-59.47 67.25,-36 65.12,-35.33 62.95,-34.58 60.78,-33.77"/>
<polygon fill="black" stroke="black" points="62,-30.48 51.42,-29.95 59.36,-36.96 62,-30.48"/>
<text text-anchor="middle" x="253.75" y="-57.8" font-family="Times,serif" font-size="14.00">dep</text>
</g>
<!-- 2 -->
<g id="node3" class="node">
<title>2</title>
<ellipse fill="none" stroke="black" cx="124.25" cy="-18" rx="48.19" ry="18"/>
<text text-anchor="middle" x="124.25" y="-14.3" font-family="Times,serif" font-size="14.00">fazerem</text>
</g>
<!-- 0&#45;&gt;2 -->
<g id="edge2" class="edge">
<title>0&#45;&gt;2</title>
<path fill="none" stroke="black" d="M562.14,-100.63C492.95,-92.75 321.37,-71.09 181.25,-36 177.47,-35.05 173.56,-34.02 169.65,-32.94"/>
<polygon fill="black" stroke="black" points="170.57,-29.56 159.99,-30.19 168.65,-36.29 170.57,-29.56"/>
<text text-anchor="middle" x="352.75" y="-57.8" font-family="Times,serif" font-size="14.00">dep</text>
</g>
<!-- 3 -->
<g id="node4" class="node">
<title>3</title>
<ellipse fill="none" stroke="black" cx="254.25" cy="-18" rx="64.19" ry="18"/>
<text text-anchor="middle" x="254.25" y="-14.3" font-family="Times,serif" font-size="14.00">publicidade</text>
</g>
<!-- 0&#45;&gt;3 -->
<g id="edge3" class="edge">
<title>0&#45;&gt;3</title>
<path fill="none" stroke="black" d="M563.53,-98.48C530.01,-92.09 473.96,-80.92 426.25,-69 385.19,-58.75 339.19,-45.27 305.1,-34.89"/>
<polygon fill="black" stroke="black" points="305.95,-31.49 295.36,-31.91 303.9,-38.18 305.95,-31.49"/>
<text text-anchor="middle" x="439.75" y="-57.8" font-family="Times,serif" font-size="14.00">dep</text>
</g>
<!-- 4 -->
<g id="node5" class="node">
<title>4</title>
<ellipse fill="none" stroke="black" cx="382.25" cy="-18" rx="46.29" ry="18"/>
<text text-anchor="middle" x="382.25" y="-14.3" font-family="Times,serif" font-size="14.00">privada</text>
</g>
<!-- 0&#45;&gt;4 -->
<g id="edge4" class="edge">
<title>0&#45;&gt;4</title>
<path fill="none" stroke="black" d="M565.57,-95.62C544.44,-89 514.71,-79.2 489.25,-69 465.31,-59.42 439.08,-47.18 418.57,-37.22"/>
<polygon fill="black" stroke="black" points="420.1,-34.07 409.58,-32.82 417.03,-40.36 420.1,-34.07"/>
<text text-anchor="middle" x="502.75" y="-57.8" font-family="Times,serif" font-size="14.00">dep</text>
</g>
<!-- 5 -->
<g id="node6" class="node">
<title>5</title>
<ellipse fill="none" stroke="black" cx="473.25" cy="-18" rx="27" ry="18"/>
<text text-anchor="middle" x="473.25" y="-14.3" font-family="Times,serif" font-size="14.00">,</text>
</g>
<!-- 0&#45;&gt;5 -->
<g id="edge5" class="edge">
<title>0&#45;&gt;5</title>
<path fill="none" stroke="black" d="M572.93,-90.97C562.99,-84.5 550.89,-76.48 540.25,-69 526.26,-59.17 510.95,-47.8 498.51,-38.39"/>
<polygon fill="black" stroke="black" points="500.48,-35.49 490.4,-32.23 496.24,-41.06 500.48,-35.49"/>
<text text-anchor="middle" x="553.75" y="-57.8" font-family="Times,serif" font-size="14.00">dep</text>
</g>
<!-- 6 -->
<g id="node7" class="node">
<title>6</title>
<ellipse fill="none" stroke="black" cx="553.25" cy="-18" rx="35.19" ry="18"/>
<text text-anchor="middle" x="553.25" y="-14.3" font-family="Times,serif" font-size="14.00">como</text>
</g>
<!-- 0&#45;&gt;6 -->
<g id="edge6" class="edge">
<title>0&#45;&gt;6</title>
<path fill="none" stroke="black" d="M585.34,-87.21C579.7,-75.22 572,-58.85 565.56,-45.16"/>
<polygon fill="black" stroke="black" points="568.56,-43.32 561.13,-35.76 562.22,-46.3 568.56,-43.32"/>
<text text-anchor="middle" x="589.75" y="-57.8" font-family="Times,serif" font-size="14.00">dep</text>
</g>
<!-- 7 -->
<g id="node8" class="node">
<title>7</title>
<ellipse fill="none" stroke="black" cx="633.25" cy="-18" rx="27" ry="18"/>
<text text-anchor="middle" x="633.25" y="-14.3" font-family="Times,serif" font-size="14.00">se</text>
</g>
<!-- 0&#45;&gt;7 -->
<g id="edge7" class="edge">
<title>0&#45;&gt;7</title>
<path fill="none" stroke="black" d="M601.15,-87.21C606.83,-75.14 614.59,-58.64 621.06,-44.89"/>
<polygon fill="black" stroke="black" points="624.41,-46.01 625.5,-35.47 618.07,-43.03 624.41,-46.01"/>
<text text-anchor="middle" x="629.75" y="-57.8" font-family="Times,serif" font-size="14.00">dep</text>
</g>
<!-- 8 -->
<g id="node9" class="node">
<title>8</title>
<ellipse fill="none" stroke="black" cx="712.25" cy="-18" rx="34.39" ry="18"/>
<text text-anchor="middle" x="712.25" y="-14.3" font-family="Times,serif" font-size="14.00">fosse</text>
</g>
<!-- 0&#45;&gt;8 -->
<g id="edge8" class="edge">
<title>0&#45;&gt;8</title>
<path fill="none" stroke="black" d="M614.02,-91.09C624.17,-84.64 636.48,-76.61 647.25,-69 660.34,-59.74 674.5,-48.95 686.25,-39.76"/>
<polygon fill="black" stroke="black" points="688.64,-42.34 694.33,-33.41 684.31,-36.84 688.64,-42.34"/>
<text text-anchor="middle" x="681.75" y="-57.8" font-family="Times,serif" font-size="14.00">dep</text>
</g>
<!-- 9 -->
<g id="node10" class="node">
<title>9</title>
<ellipse fill="none" stroke="black" cx="791.25" cy="-18" rx="27" ry="18"/>
<text text-anchor="middle" x="791.25" y="-14.3" font-family="Times,serif" font-size="14.00">um</text>
</g>
<!-- 0&#45;&gt;9 -->
<g id="edge9" class="edge">
<title>0&#45;&gt;9</title>
<path fill="none" stroke="black" d="M621.2,-96.26C642.88,-89.91 673.46,-80.16 699.25,-69 721.41,-59.41 745.35,-46.31 763.25,-35.92"/>
<polygon fill="black" stroke="black" points="765.16,-38.86 772.01,-30.77 761.62,-32.82 765.16,-38.86"/>
<text text-anchor="middle" x="744.75" y="-57.8" font-family="Times,serif" font-size="14.00">dep</text>
</g>
<!-- 10 -->
<g id="node11" class="node">
<title>10</title>
<ellipse fill="none" stroke="black" cx="892.25" cy="-18" rx="55.79" ry="18"/>
<text text-anchor="middle" x="892.25" y="-14.3" font-family="Times,serif" font-size="14.00">programa</text>
</g>
<!-- 0&#45;&gt;10 -->
<g id="edge10" class="edge">
<title>0&#45;&gt;10</title>
<path fill="none" stroke="black" d="M623.53,-99.26C657.63,-93.57 714.53,-83.02 762.25,-69 792.59,-60.09 825.86,-47.23 851.15,-36.79"/>
<polygon fill="black" stroke="black" points="852.55,-40 860.43,-32.91 849.85,-33.54 852.55,-40"/>
<text text-anchor="middle" x="819.75" y="-57.8" font-family="Times,serif" font-size="14.00">dep</text>
</g>
<!-- 11 -->
<g id="node12" class="node">
<title>11</title>
<ellipse fill="none" stroke="black" cx="999.25" cy="-18" rx="33.29" ry="18"/>
<text text-anchor="middle" x="999.25" y="-14.3" font-family="Times,serif" font-size="14.00">pago</text>
</g>
<!-- 0&#45;&gt;11 -->
<g id="edge11" class="edge">
<title>0&#45;&gt;11</title>
<path fill="none" stroke="black" d="M624.28,-100.82C670.84,-95.75 761.42,-84.8 837.25,-69 891.4,-57.72 904.86,-53.74 957.25,-36 959.51,-35.23 961.83,-34.41 964.15,-33.55"/>
<polygon fill="black" stroke="black" points="965.58,-36.76 973.66,-29.91 963.07,-30.22 965.58,-36.76"/>
<text text-anchor="middle" x="913.75" y="-57.8" font-family="Times,serif" font-size="14.00">dep</text>
</g>
<!-- 12 -->
<g id="node13" class="node">
<title>12</title>
<ellipse fill="none" stroke="black" cx="1077.25" cy="-18" rx="27" ry="18"/>
<text text-anchor="middle" x="1077.25" y="-14.3" font-family="Times,serif" font-size="14.00">?</text>
</g>
<!-- 0&#45;&gt;12 -->
<g id="edge12" class="edge">
<title>0&#45;&gt;12</title>
<path fill="none" stroke="black" d="M625.23,-102.69C685.59,-99.79 820.18,-91.21 931.25,-69 981.3,-58.99 993.59,-54.28 1041.25,-36 1043.09,-35.29 1044.96,-34.54 1046.84,-33.74"/>
<polygon fill="black" stroke="black" points="1048.44,-36.86 1056.16,-29.6 1045.6,-30.47 1048.44,-36.86"/>
<text text-anchor="middle" x="1004.75" y="-57.8" font-family="Times,serif" font-size="14.00">dep</text>
</g>
</g>
</svg>
