<?xml version="1.0" encoding="UTF-8" standalone="no"?>
<!DOCTYPE svg PUBLIC "-//W3C//DTD SVG 1.1//EN"
 "http://www.w3.org/Graphics/SVG/1.1/DTD/svg11.dtd">
<!-- Generated by graphviz version 2.42.4 (0)
 -->
<!-- Pages: 1 -->
<svg width="1363pt" height="131pt"
 viewBox="0.00 0.00 1363.45 131.00" xmlns="http://www.w3.org/2000/svg" xmlns:xlink="http://www.w3.org/1999/xlink">
<g id="graph0" class="graph" transform="scale(1 1) rotate(0) translate(4 127)">
<polygon fill="white" stroke="transparent" points="-4,4 -4,-127 1359.45,-127 1359.45,4 -4,4"/>
<!-- 0 -->
<g id="node1" class="node">
<title>0</title>
<ellipse fill="none" stroke="black" cx="726.45" cy="-105" rx="27" ry="18"/>
<text text-anchor="middle" x="726.45" y="-101.3" font-family="Times,serif" font-size="14.00">As</text>
</g>
<!-- 1 -->
<g id="node2" class="node">
<title>1</title>
<ellipse fill="none" stroke="black" cx="34.45" cy="-18" rx="34.39" ry="18"/>
<text text-anchor="middle" x="34.45" y="-14.3" font-family="Times,serif" font-size="14.00">celas</text>
</g>
<!-- 0&#45;&gt;1 -->
<g id="edge1" class="edge">
<title>0&#45;&gt;1</title>
<path fill="none" stroke="black" d="M699.41,-103.53C624.01,-101.92 405.13,-95.16 225.45,-69 158.76,-59.29 141.87,-55.78 77.45,-36 75.03,-35.26 72.56,-34.44 70.08,-33.58"/>
<polygon fill="black" stroke="black" points="71.19,-30.26 60.59,-30.09 68.77,-36.83 71.19,-30.26"/>
<text text-anchor="middle" x="238.95" y="-57.8" font-family="Times,serif" font-size="14.00">dep</text>
</g>
<!-- 2 -->
<g id="node3" class="node">
<title>2</title>
<ellipse fill="none" stroke="black" cx="130.45" cy="-18" rx="43.59" ry="18"/>
<text text-anchor="middle" x="130.45" y="-14.3" font-family="Times,serif" font-size="14.00">tinham</text>
</g>
<!-- 0&#45;&gt;2 -->
<g id="edge2" class="edge">
<title>0&#45;&gt;2</title>
<path fill="none" stroke="black" d="M699.64,-102.65C636.68,-99.24 474.54,-89.1 340.45,-69 269.93,-58.43 252.38,-54.25 183.45,-36 180.03,-35.09 176.5,-34.1 172.97,-33.06"/>
<polygon fill="black" stroke="black" points="173.67,-29.62 163.09,-30.05 171.63,-36.31 173.67,-29.62"/>
<text text-anchor="middle" x="353.95" y="-57.8" font-family="Times,serif" font-size="14.00">dep</text>
</g>
<!-- 3 -->
<g id="node4" class="node">
<title>3</title>
<ellipse fill="none" stroke="black" cx="254.45" cy="-18" rx="62.29" ry="18"/>
<text text-anchor="middle" x="254.45" y="-14.3" font-family="Times,serif" font-size="14.00">capacidade</text>
</g>
<!-- 0&#45;&gt;3 -->
<g id="edge3" class="edge">
<title>0&#45;&gt;3</title>
<path fill="none" stroke="black" d="M699.6,-102.29C647.23,-98.64 527.95,-88.74 429.45,-69 386.3,-60.35 338.32,-46.32 303.52,-35.32"/>
<polygon fill="black" stroke="black" points="304.21,-31.86 293.62,-32.16 302.08,-38.53 304.21,-31.86"/>
<text text-anchor="middle" x="442.95" y="-57.8" font-family="Times,serif" font-size="14.00">dep</text>
</g>
<!-- 4 -->
<g id="node5" class="node">
<title>4</title>
<ellipse fill="none" stroke="black" cx="366.45" cy="-18" rx="31.7" ry="18"/>
<text text-anchor="middle" x="366.45" y="-14.3" font-family="Times,serif" font-size="14.00">para</text>
</g>
<!-- 0&#45;&gt;4 -->
<g id="edge4" class="edge">
<title>0&#45;&gt;4</title>
<path fill="none" stroke="black" d="M700.17,-100.68C660.36,-95.4 582.48,-84.14 517.45,-69 467.73,-57.43 455.53,-53.13 407.45,-36 405.18,-35.19 402.86,-34.33 400.53,-33.44"/>
<polygon fill="black" stroke="black" points="401.59,-30.09 391.01,-29.66 399.01,-36.6 401.59,-30.09"/>
<text text-anchor="middle" x="530.95" y="-57.8" font-family="Times,serif" font-size="14.00">dep</text>
</g>
<!-- 5 -->
<g id="node6" class="node">
<title>5</title>
<ellipse fill="none" stroke="black" cx="466.45" cy="-18" rx="50.09" ry="18"/>
<text text-anchor="middle" x="466.45" y="-14.3" font-family="Times,serif" font-size="14.00">albergar</text>
</g>
<!-- 0&#45;&gt;5 -->
<g id="edge5" class="edge">
<title>0&#45;&gt;5</title>
<path fill="none" stroke="black" d="M701.15,-98.62C673.43,-92.48 627.8,-81.63 589.45,-69 560.97,-59.62 529.67,-46.86 505.78,-36.58"/>
<polygon fill="black" stroke="black" points="506.92,-33.26 496.35,-32.49 504.13,-39.68 506.92,-33.26"/>
<text text-anchor="middle" x="602.95" y="-57.8" font-family="Times,serif" font-size="14.00">dep</text>
</g>
<!-- 6 -->
<g id="node7" class="node">
<title>6</title>
<ellipse fill="none" stroke="black" cx="561.45" cy="-18" rx="27" ry="18"/>
<text text-anchor="middle" x="561.45" y="-14.3" font-family="Times,serif" font-size="14.00">até</text>
</g>
<!-- 0&#45;&gt;6 -->
<g id="edge6" class="edge">
<title>0&#45;&gt;6</title>
<path fill="none" stroke="black" d="M703.74,-95.11C687.3,-88.45 664.68,-78.83 645.45,-69 626.24,-59.19 605.41,-46.8 589.29,-36.81"/>
<polygon fill="black" stroke="black" points="590.73,-33.58 580.4,-31.24 587.02,-39.51 590.73,-33.58"/>
<text text-anchor="middle" x="658.95" y="-57.8" font-family="Times,serif" font-size="14.00">dep</text>
</g>
<!-- 7 -->
<g id="node8" class="node">
<title>7</title>
<ellipse fill="none" stroke="black" cx="635.45" cy="-18" rx="28.7" ry="18"/>
<text text-anchor="middle" x="635.45" y="-14.3" font-family="Times,serif" font-size="14.00">140</text>
</g>
<!-- 0&#45;&gt;7 -->
<g id="edge7" class="edge">
<title>0&#45;&gt;7</title>
<path fill="none" stroke="black" d="M711.42,-89.96C697.02,-76.51 675.07,-56.01 658.47,-40.5"/>
<polygon fill="black" stroke="black" points="660.5,-37.61 650.8,-33.34 655.72,-42.72 660.5,-37.61"/>
<text text-anchor="middle" x="699.95" y="-57.8" font-family="Times,serif" font-size="14.00">dep</text>
</g>
<!-- 8 -->
<g id="node9" class="node">
<title>8</title>
<ellipse fill="none" stroke="black" cx="726.45" cy="-18" rx="44.69" ry="18"/>
<text text-anchor="middle" x="726.45" y="-14.3" font-family="Times,serif" font-size="14.00">detidos</text>
</g>
<!-- 0&#45;&gt;8 -->
<g id="edge8" class="edge">
<title>0&#45;&gt;8</title>
<path fill="none" stroke="black" d="M726.45,-86.8C726.45,-75.16 726.45,-59.55 726.45,-46.24"/>
<polygon fill="black" stroke="black" points="729.95,-46.18 726.45,-36.18 722.95,-46.18 729.95,-46.18"/>
<text text-anchor="middle" x="739.95" y="-57.8" font-family="Times,serif" font-size="14.00">dep</text>
</g>
<!-- 9 -->
<g id="node10" class="node">
<title>9</title>
<ellipse fill="none" stroke="black" cx="816.45" cy="-18" rx="27" ry="18"/>
<text text-anchor="middle" x="816.45" y="-14.3" font-family="Times,serif" font-size="14.00">por</text>
</g>
<!-- 0&#45;&gt;9 -->
<g id="edge9" class="edge">
<title>0&#45;&gt;9</title>
<path fill="none" stroke="black" d="M741.31,-89.96C755.64,-76.43 777.52,-55.77 793.98,-40.22"/>
<polygon fill="black" stroke="black" points="796.7,-42.47 801.56,-33.06 791.89,-37.38 796.7,-42.47"/>
<text text-anchor="middle" x="790.95" y="-57.8" font-family="Times,serif" font-size="14.00">dep</text>
</g>
<!-- 10 -->
<g id="node11" class="node">
<title>10</title>
<ellipse fill="none" stroke="black" cx="888.45" cy="-18" rx="27" ry="18"/>
<text text-anchor="middle" x="888.45" y="-14.3" font-family="Times,serif" font-size="14.00">um</text>
</g>
<!-- 0&#45;&gt;10 -->
<g id="edge10" class="edge">
<title>0&#45;&gt;10</title>
<path fill="none" stroke="black" d="M749.51,-95.27C766.19,-88.69 789.1,-79.1 808.45,-69 826.77,-59.43 846.48,-47.15 861.75,-37.15"/>
<polygon fill="black" stroke="black" points="863.77,-40 870.18,-31.56 859.91,-34.16 863.77,-40"/>
<text text-anchor="middle" x="846.95" y="-57.8" font-family="Times,serif" font-size="14.00">dep</text>
</g>
<!-- 11 -->
<g id="node12" class="node">
<title>11</title>
<ellipse fill="none" stroke="black" cx="968.45" cy="-18" rx="35.19" ry="18"/>
<text text-anchor="middle" x="968.45" y="-14.3" font-family="Times,serif" font-size="14.00">curto</text>
</g>
<!-- 0&#45;&gt;11 -->
<g id="edge11" class="edge">
<title>0&#45;&gt;11</title>
<path fill="none" stroke="black" d="M752.09,-99.1C780.15,-93.37 826.23,-82.88 864.45,-69 889.32,-59.97 916.21,-46.95 936.42,-36.46"/>
<polygon fill="black" stroke="black" points="938.26,-39.44 945.48,-31.69 935,-33.25 938.26,-39.44"/>
<text text-anchor="middle" x="913.95" y="-57.8" font-family="Times,serif" font-size="14.00">dep</text>
</g>
<!-- 12 -->
<g id="node13" class="node">
<title>12</title>
<ellipse fill="none" stroke="black" cx="1067.45" cy="-18" rx="46.29" ry="18"/>
<text text-anchor="middle" x="1067.45" y="-14.3" font-family="Times,serif" font-size="14.00">período</text>
</g>
<!-- 0&#45;&gt;12 -->
<g id="edge12" class="edge">
<title>0&#45;&gt;12</title>
<path fill="none" stroke="black" d="M752.99,-101.05C792.39,-96.31 868.48,-85.8 931.45,-69 964.68,-60.14 1001.2,-46.48 1028.02,-35.68"/>
<polygon fill="black" stroke="black" points="1029.5,-38.85 1037.44,-31.84 1026.86,-32.37 1029.5,-38.85"/>
<text text-anchor="middle" x="990.95" y="-57.8" font-family="Times,serif" font-size="14.00">dep</text>
</g>
<!-- 13 -->
<g id="node14" class="node">
<title>13</title>
<ellipse fill="none" stroke="black" cx="1158.45" cy="-18" rx="27" ry="18"/>
<text text-anchor="middle" x="1158.45" y="-14.3" font-family="Times,serif" font-size="14.00">de</text>
</g>
<!-- 0&#45;&gt;13 -->
<g id="edge13" class="edge">
<title>0&#45;&gt;13</title>
<path fill="none" stroke="black" d="M753.11,-102.11C803.43,-98.22 915.66,-88.06 1008.45,-69 1060.11,-58.39 1073.11,-54.65 1122.45,-36 1124.29,-35.3 1126.17,-34.55 1128.05,-33.76"/>
<polygon fill="black" stroke="black" points="1129.64,-36.89 1137.37,-29.64 1126.81,-30.49 1129.64,-36.89"/>
<text text-anchor="middle" x="1083.95" y="-57.8" font-family="Times,serif" font-size="14.00">dep</text>
</g>
<!-- 14 -->
<g id="node15" class="node">
<title>14</title>
<ellipse fill="none" stroke="black" cx="1243.45" cy="-18" rx="40.09" ry="18"/>
<text text-anchor="middle" x="1243.45" y="-14.3" font-family="Times,serif" font-size="14.00">tempo</text>
</g>
<!-- 0&#45;&gt;14 -->
<g id="edge14" class="edge">
<title>0&#45;&gt;14</title>
<path fill="none" stroke="black" d="M753.62,-103.74C815.89,-102.64 973.39,-97.07 1101.45,-69 1137.87,-61.01 1177.8,-46.4 1206.02,-35.02"/>
<polygon fill="black" stroke="black" points="1207.55,-38.18 1215.49,-31.15 1204.9,-31.7 1207.55,-38.18"/>
<text text-anchor="middle" x="1166.95" y="-57.8" font-family="Times,serif" font-size="14.00">dep</text>
</g>
<!-- 15 -->
<g id="node16" class="node">
<title>15</title>
<ellipse fill="none" stroke="black" cx="1328.45" cy="-18" rx="27" ry="18"/>
<text text-anchor="middle" x="1328.45" y="-14.3" font-family="Times,serif" font-size="14.00">.</text>
</g>
<!-- 0&#45;&gt;15 -->
<g id="edge15" class="edge">
<title>0&#45;&gt;15</title>
<path fill="none" stroke="black" d="M753.56,-104C824.82,-103.56 1023.02,-99.45 1184.45,-69 1233.77,-59.7 1245.63,-54.1 1292.45,-36 1294.28,-35.29 1296.16,-34.53 1298.04,-33.73"/>
<polygon fill="black" stroke="black" points="1299.64,-36.85 1307.35,-29.59 1296.79,-30.46 1299.64,-36.85"/>
<text text-anchor="middle" x="1258.95" y="-57.8" font-family="Times,serif" font-size="14.00">dep</text>
</g>
</g>
</svg>
