<?xml version="1.0" encoding="UTF-8" standalone="no"?>
<!DOCTYPE svg PUBLIC "-//W3C//DTD SVG 1.1//EN"
 "http://www.w3.org/Graphics/SVG/1.1/DTD/svg11.dtd">
<!-- Generated by graphviz version 2.42.4 (0)
 -->
<!-- Pages: 1 -->
<svg width="1664pt" height="131pt"
 viewBox="0.00 0.00 1663.70 131.00" xmlns="http://www.w3.org/2000/svg" xmlns:xlink="http://www.w3.org/1999/xlink">
<g id="graph0" class="graph" transform="scale(1 1) rotate(0) translate(4 127)">
<polygon fill="white" stroke="transparent" points="-4,4 -4,-127 1659.7,-127 1659.7,4 -4,4"/>
<!-- 0 -->
<g id="node1" class="node">
<title>0</title>
<ellipse fill="none" stroke="black" cx="891.7" cy="-105" rx="31.7" ry="18"/>
<text text-anchor="middle" x="891.7" y="-101.3" font-family="Times,serif" font-size="14.00">Esta</text>
</g>
<!-- 1 -->
<g id="node2" class="node">
<title>1</title>
<ellipse fill="none" stroke="black" cx="37.7" cy="-18" rx="37.89" ry="18"/>
<text text-anchor="middle" x="37.7" y="-14.3" font-family="Times,serif" font-size="14.00">época</text>
</g>
<!-- 0&#45;&gt;1 -->
<g id="edge1" class="edge">
<title>0&#45;&gt;1</title>
<path fill="none" stroke="black" d="M859.75,-103.75C738.4,-102.61 306.08,-96.64 171.7,-69 137.04,-61.87 99.44,-47.19 72.92,-35.57"/>
<polygon fill="black" stroke="black" points="74.24,-32.32 63.68,-31.44 71.39,-38.71 74.24,-32.32"/>
<text text-anchor="middle" x="185.2" y="-57.8" font-family="Times,serif" font-size="14.00">dep</text>
</g>
<!-- 2 -->
<g id="node3" class="node">
<title>2</title>
<ellipse fill="none" stroke="black" cx="120.7" cy="-18" rx="27" ry="18"/>
<text text-anchor="middle" x="120.7" y="-14.3" font-family="Times,serif" font-size="14.00">,</text>
</g>
<!-- 0&#45;&gt;2 -->
<g id="edge2" class="edge">
<title>0&#45;&gt;2</title>
<path fill="none" stroke="black" d="M859.78,-103.35C747.96,-100.91 374.27,-91.23 256.7,-69 210.71,-60.3 200.16,-53.36 156.7,-36 154.87,-35.27 153,-34.49 151.12,-33.68"/>
<polygon fill="black" stroke="black" points="152.38,-30.41 141.83,-29.51 149.51,-36.8 152.38,-30.41"/>
<text text-anchor="middle" x="270.2" y="-57.8" font-family="Times,serif" font-size="14.00">dep</text>
</g>
<!-- 3 -->
<g id="node4" class="node">
<title>3</title>
<ellipse fill="none" stroke="black" cx="192.7" cy="-18" rx="27" ry="18"/>
<text text-anchor="middle" x="192.7" y="-14.3" font-family="Times,serif" font-size="14.00">o</text>
</g>
<!-- 0&#45;&gt;3 -->
<g id="edge3" class="edge">
<title>0&#45;&gt;3</title>
<path fill="none" stroke="black" d="M859.83,-103.74C777.67,-102.65 552.07,-97.14 366.7,-69 304.35,-59.54 288.19,-56.91 228.7,-36 226.79,-35.33 224.85,-34.59 222.9,-33.81"/>
<polygon fill="black" stroke="black" points="223.9,-30.42 213.33,-29.63 221.1,-36.84 223.9,-30.42"/>
<text text-anchor="middle" x="380.2" y="-57.8" font-family="Times,serif" font-size="14.00">dep</text>
</g>
<!-- 4 -->
<g id="node5" class="node">
<title>4</title>
<ellipse fill="none" stroke="black" cx="288.7" cy="-18" rx="51.19" ry="18"/>
<text text-anchor="middle" x="288.7" y="-14.3" font-family="Times,serif" font-size="14.00">Sporting</text>
</g>
<!-- 0&#45;&gt;4 -->
<g id="edge4" class="edge">
<title>0&#45;&gt;4</title>
<path fill="none" stroke="black" d="M859.89,-103.66C787.86,-102.39 607.01,-96.5 458.7,-69 415.2,-60.93 366.93,-46.15 332.97,-34.75"/>
<polygon fill="black" stroke="black" points="333.94,-31.38 323.35,-31.48 331.69,-38.01 333.94,-31.38"/>
<text text-anchor="middle" x="472.2" y="-57.8" font-family="Times,serif" font-size="14.00">dep</text>
</g>
<!-- 5 -->
<g id="node6" class="node">
<title>5</title>
<ellipse fill="none" stroke="black" cx="394.7" cy="-18" rx="36.29" ry="18"/>
<text text-anchor="middle" x="394.7" y="-14.3" font-family="Times,serif" font-size="14.00">ainda</text>
</g>
<!-- 0&#45;&gt;5 -->
<g id="edge5" class="edge">
<title>0&#45;&gt;5</title>
<path fill="none" stroke="black" d="M859.59,-103.06C797.68,-100.75 657.73,-93.09 542.7,-69 503.7,-60.83 460.73,-45.58 431.18,-34.06"/>
<polygon fill="black" stroke="black" points="432.29,-30.73 421.7,-30.31 429.71,-37.24 432.29,-30.73"/>
<text text-anchor="middle" x="556.2" y="-57.8" font-family="Times,serif" font-size="14.00">dep</text>
</g>
<!-- 6 -->
<g id="node7" class="node">
<title>6</title>
<ellipse fill="none" stroke="black" cx="476.7" cy="-18" rx="27.1" ry="18"/>
<text text-anchor="middle" x="476.7" y="-14.3" font-family="Times,serif" font-size="14.00">não</text>
</g>
<!-- 0&#45;&gt;6 -->
<g id="edge6" class="edge">
<title>0&#45;&gt;6</title>
<path fill="none" stroke="black" d="M860.12,-102C794,-97.02 636.91,-81.06 513.7,-36 511.59,-35.23 509.44,-34.39 507.29,-33.51"/>
<polygon fill="black" stroke="black" points="508.54,-30.24 497.97,-29.48 505.76,-36.66 508.54,-30.24"/>
<text text-anchor="middle" x="639.2" y="-57.8" font-family="Times,serif" font-size="14.00">dep</text>
</g>
<!-- 7 -->
<g id="node8" class="node">
<title>7</title>
<ellipse fill="none" stroke="black" cx="556.7" cy="-18" rx="34.39" ry="18"/>
<text text-anchor="middle" x="556.7" y="-14.3" font-family="Times,serif" font-size="14.00">tinha</text>
</g>
<!-- 0&#45;&gt;7 -->
<g id="edge7" class="edge">
<title>0&#45;&gt;7</title>
<path fill="none" stroke="black" d="M861.86,-98.63C808.57,-88.68 693.76,-65.68 599.7,-36 597.29,-35.24 594.82,-34.41 592.34,-33.54"/>
<polygon fill="black" stroke="black" points="593.46,-30.22 582.86,-30.03 591.03,-36.78 593.46,-30.22"/>
<text text-anchor="middle" x="733.2" y="-57.8" font-family="Times,serif" font-size="14.00">dep</text>
</g>
<!-- 8 -->
<g id="node9" class="node">
<title>8</title>
<ellipse fill="none" stroke="black" cx="671.7" cy="-18" rx="63.09" ry="18"/>
<text text-anchor="middle" x="671.7" y="-14.3" font-family="Times,serif" font-size="14.00">conseguido</text>
</g>
<!-- 0&#45;&gt;8 -->
<g id="edge8" class="edge">
<title>0&#45;&gt;8</title>
<path fill="none" stroke="black" d="M866.03,-94.08C829.6,-80.01 762.32,-54.01 717.29,-36.61"/>
<polygon fill="black" stroke="black" points="718.34,-33.27 707.75,-32.93 715.82,-39.8 718.34,-33.27"/>
<text text-anchor="middle" x="809.2" y="-57.8" font-family="Times,serif" font-size="14.00">dep</text>
</g>
<!-- 9 -->
<g id="node10" class="node">
<title>9</title>
<ellipse fill="none" stroke="black" cx="796.7" cy="-18" rx="44.39" ry="18"/>
<text text-anchor="middle" x="796.7" y="-14.3" font-family="Times,serif" font-size="14.00">marcar</text>
</g>
<!-- 0&#45;&gt;9 -->
<g id="edge9" class="edge">
<title>0&#45;&gt;9</title>
<path fill="none" stroke="black" d="M875.15,-89.19C860.53,-76.11 838.98,-56.83 822.17,-41.79"/>
<polygon fill="black" stroke="black" points="824.13,-38.85 814.34,-34.79 819.46,-44.06 824.13,-38.85"/>
<text text-anchor="middle" x="864.2" y="-57.8" font-family="Times,serif" font-size="14.00">dep</text>
</g>
<!-- 10 -->
<g id="node11" class="node">
<title>10</title>
<ellipse fill="none" stroke="black" cx="891.7" cy="-18" rx="32.49" ry="18"/>
<text text-anchor="middle" x="891.7" y="-14.3" font-family="Times,serif" font-size="14.00">mais</text>
</g>
<!-- 0&#45;&gt;10 -->
<g id="edge10" class="edge">
<title>0&#45;&gt;10</title>
<path fill="none" stroke="black" d="M891.7,-86.8C891.7,-75.16 891.7,-59.55 891.7,-46.24"/>
<polygon fill="black" stroke="black" points="895.2,-46.18 891.7,-36.18 888.2,-46.18 895.2,-46.18"/>
<text text-anchor="middle" x="905.2" y="-57.8" font-family="Times,serif" font-size="14.00">dep</text>
</g>
<!-- 11 -->
<g id="node12" class="node">
<title>11</title>
<ellipse fill="none" stroke="black" cx="968.7" cy="-18" rx="27" ry="18"/>
<text text-anchor="middle" x="968.7" y="-14.3" font-family="Times,serif" font-size="14.00">de</text>
</g>
<!-- 0&#45;&gt;11 -->
<g id="edge11" class="edge">
<title>0&#45;&gt;11</title>
<path fill="none" stroke="black" d="M905.82,-88.41C917.69,-75.31 934.81,-56.41 948.19,-41.64"/>
<polygon fill="black" stroke="black" points="951.06,-43.68 955.18,-33.92 945.87,-38.98 951.06,-43.68"/>
<text text-anchor="middle" x="949.2" y="-57.8" font-family="Times,serif" font-size="14.00">dep</text>
</g>
<!-- 12 -->
<g id="node13" class="node">
<title>12</title>
<ellipse fill="none" stroke="black" cx="1043.7" cy="-18" rx="29.8" ry="18"/>
<text text-anchor="middle" x="1043.7" y="-14.3" font-family="Times,serif" font-size="14.00">dois</text>
</g>
<!-- 0&#45;&gt;12 -->
<g id="edge12" class="edge">
<title>0&#45;&gt;12</title>
<path fill="none" stroke="black" d="M916.45,-93.49C931.28,-86.94 950.36,-78.06 966.7,-69 983.67,-59.59 1001.91,-47.82 1016.38,-38.07"/>
<polygon fill="black" stroke="black" points="1018.56,-40.82 1024.85,-32.3 1014.62,-35.03 1018.56,-40.82"/>
<text text-anchor="middle" x="1004.2" y="-57.8" font-family="Times,serif" font-size="14.00">dep</text>
</g>
<!-- 13 -->
<g id="node14" class="node">
<title>13</title>
<ellipse fill="none" stroke="black" cx="1126.7" cy="-18" rx="35.19" ry="18"/>
<text text-anchor="middle" x="1126.7" y="-14.3" font-family="Times,serif" font-size="14.00">golos</text>
</g>
<!-- 0&#45;&gt;13 -->
<g id="edge13" class="edge">
<title>0&#45;&gt;13</title>
<path fill="none" stroke="black" d="M921.08,-97.7C947.75,-91.6 987.93,-81.47 1021.7,-69 1046.83,-59.72 1074.11,-46.63 1094.57,-36.17"/>
<polygon fill="black" stroke="black" points="1096.18,-39.28 1103.46,-31.57 1092.97,-33.06 1096.18,-39.28"/>
<text text-anchor="middle" x="1071.2" y="-57.8" font-family="Times,serif" font-size="14.00">dep</text>
</g>
<!-- 14 -->
<g id="node15" class="node">
<title>14</title>
<ellipse fill="none" stroke="black" cx="1206.7" cy="-18" rx="27" ry="18"/>
<text text-anchor="middle" x="1206.7" y="-14.3" font-family="Times,serif" font-size="14.00">em</text>
</g>
<!-- 0&#45;&gt;14 -->
<g id="edge14" class="edge">
<title>0&#45;&gt;14</title>
<path fill="none" stroke="black" d="M922.86,-100.49C962.08,-95.61 1031.26,-85.47 1088.7,-69 1126.46,-58.17 1134.7,-51.73 1170.7,-36 1172.5,-35.21 1174.35,-34.39 1176.21,-33.55"/>
<polygon fill="black" stroke="black" points="1177.86,-36.64 1185.47,-29.28 1174.92,-30.29 1177.86,-36.64"/>
<text text-anchor="middle" x="1144.2" y="-57.8" font-family="Times,serif" font-size="14.00">dep</text>
</g>
<!-- 15 -->
<g id="node16" class="node">
<title>15</title>
<ellipse fill="none" stroke="black" cx="1278.7" cy="-18" rx="27" ry="18"/>
<text text-anchor="middle" x="1278.7" y="-14.3" font-family="Times,serif" font-size="14.00">os</text>
</g>
<!-- 0&#45;&gt;15 -->
<g id="edge15" class="edge">
<title>0&#45;&gt;15</title>
<path fill="none" stroke="black" d="M923.38,-102.54C974.35,-99.6 1077.37,-91.24 1161.7,-69 1192.67,-60.83 1226.1,-45.87 1249.26,-34.44"/>
<polygon fill="black" stroke="black" points="1250.85,-37.55 1258.21,-29.94 1247.71,-31.3 1250.85,-37.55"/>
<text text-anchor="middle" x="1218.2" y="-57.8" font-family="Times,serif" font-size="14.00">dep</text>
</g>
<!-- 16 -->
<g id="node17" class="node">
<title>16</title>
<ellipse fill="none" stroke="black" cx="1358.7" cy="-18" rx="35.19" ry="18"/>
<text text-anchor="middle" x="1358.7" y="-14.3" font-family="Times,serif" font-size="14.00">jogos</text>
</g>
<!-- 0&#45;&gt;16 -->
<g id="edge16" class="edge">
<title>0&#45;&gt;16</title>
<path fill="none" stroke="black" d="M923.52,-103.76C984.84,-102.66 1123.26,-96.96 1235.7,-69 1267.1,-61.19 1301.04,-46.91 1325.3,-35.61"/>
<polygon fill="black" stroke="black" points="1326.88,-38.73 1334.42,-31.29 1323.89,-32.41 1326.88,-38.73"/>
<text text-anchor="middle" x="1295.2" y="-57.8" font-family="Times,serif" font-size="14.00">dep</text>
</g>
<!-- 17 -->
<g id="node18" class="node">
<title>17</title>
<ellipse fill="none" stroke="black" cx="1438.7" cy="-18" rx="27" ry="18"/>
<text text-anchor="middle" x="1438.7" y="-14.3" font-family="Times,serif" font-size="14.00">em</text>
</g>
<!-- 0&#45;&gt;17 -->
<g id="edge17" class="edge">
<title>0&#45;&gt;17</title>
<path fill="none" stroke="black" d="M923.55,-104.25C994.39,-104.16 1170,-100.49 1312.7,-69 1346.78,-61.48 1383.66,-45.89 1408.66,-34.11"/>
<polygon fill="black" stroke="black" points="1410.45,-37.13 1417.95,-29.64 1407.42,-30.82 1410.45,-37.13"/>
<text text-anchor="middle" x="1373.2" y="-57.8" font-family="Times,serif" font-size="14.00">dep</text>
</g>
<!-- 18 -->
<g id="node19" class="node">
<title>18</title>
<ellipse fill="none" stroke="black" cx="1533.7" cy="-18" rx="50.09" ry="18"/>
<text text-anchor="middle" x="1533.7" y="-14.3" font-family="Times,serif" font-size="14.00">Alvalade</text>
</g>
<!-- 0&#45;&gt;18 -->
<g id="edge18" class="edge">
<title>0&#45;&gt;18</title>
<path fill="none" stroke="black" d="M923.62,-104.68C1003.33,-105.75 1217.18,-104.75 1390.7,-69 1426.41,-61.64 1465.39,-47.59 1493.62,-36.25"/>
<polygon fill="black" stroke="black" points="1495.19,-39.38 1503.13,-32.37 1492.55,-32.9 1495.19,-39.38"/>
<text text-anchor="middle" x="1457.2" y="-57.8" font-family="Times,serif" font-size="14.00">dep</text>
</g>
<!-- 19 -->
<g id="node20" class="node">
<title>19</title>
<ellipse fill="none" stroke="black" cx="1628.7" cy="-18" rx="27" ry="18"/>
<text text-anchor="middle" x="1628.7" y="-14.3" font-family="Times,serif" font-size="14.00">.</text>
</g>
<!-- 0&#45;&gt;19 -->
<g id="edge19" class="edge">
<title>0&#45;&gt;19</title>
<path fill="none" stroke="black" d="M923.56,-104.45C1011.83,-105.2 1266.7,-103.92 1474.7,-69 1528.4,-59.98 1541.67,-55.03 1592.7,-36 1594.54,-35.31 1596.42,-34.57 1598.31,-33.78"/>
<polygon fill="black" stroke="black" points="1599.89,-36.91 1607.63,-29.67 1597.07,-30.51 1599.89,-36.91"/>
<text text-anchor="middle" x="1554.2" y="-57.8" font-family="Times,serif" font-size="14.00">dep</text>
</g>
</g>
</svg>
