<?xml version="1.0" encoding="UTF-8" standalone="no"?>
<!DOCTYPE svg PUBLIC "-//W3C//DTD SVG 1.1//EN"
 "http://www.w3.org/Graphics/SVG/1.1/DTD/svg11.dtd">
<!-- Generated by graphviz version 2.42.4 (0)
 -->
<!-- Pages: 1 -->
<svg width="2724pt" height="131pt"
 viewBox="0.00 0.00 2724.00 131.00" xmlns="http://www.w3.org/2000/svg" xmlns:xlink="http://www.w3.org/1999/xlink">
<g id="graph0" class="graph" transform="scale(1 1) rotate(0) translate(4 127)">
<polygon fill="white" stroke="transparent" points="-4,4 -4,-127 2720,-127 2720,4 -4,4"/>
<!-- 0 -->
<g id="node1" class="node">
<title>0</title>
<ellipse fill="none" stroke="black" cx="1287" cy="-105" rx="27" ry="18"/>
<text text-anchor="middle" x="1287" y="-101.3" font-family="Times,serif" font-size="14.00">É</text>
</g>
<!-- 1 -->
<g id="node2" class="node">
<title>1</title>
<ellipse fill="none" stroke="black" cx="27" cy="-18" rx="27" ry="18"/>
<text text-anchor="middle" x="27" y="-14.3" font-family="Times,serif" font-size="14.00">o</text>
</g>
<!-- 0&#45;&gt;1 -->
<g id="edge1" class="edge">
<title>0&#45;&gt;1</title>
<path fill="none" stroke="black" d="M1259.55,-104.18C1109.35,-104.99 385.71,-106.86 166,-69 118.63,-60.84 107.72,-53.63 63,-36 61.17,-35.28 59.3,-34.5 57.42,-33.7"/>
<polygon fill="black" stroke="black" points="58.67,-30.43 48.12,-29.54 55.81,-36.82 58.67,-30.43"/>
<text text-anchor="middle" x="179.5" y="-57.8" font-family="Times,serif" font-size="14.00">dep</text>
</g>
<!-- 2 -->
<g id="node3" class="node">
<title>2</title>
<ellipse fill="none" stroke="black" cx="100" cy="-18" rx="27.9" ry="18"/>
<text text-anchor="middle" x="100" y="-14.3" font-family="Times,serif" font-size="14.00">que</text>
</g>
<!-- 0&#45;&gt;2 -->
<g id="edge2" class="edge">
<title>0&#45;&gt;2</title>
<path fill="none" stroke="black" d="M1259.76,-103.74C1119.71,-102.3 479.76,-94.44 283,-69 217.02,-60.47 200.01,-57.34 137,-36 135.09,-35.35 133.15,-34.64 131.21,-33.88"/>
<polygon fill="black" stroke="black" points="132.18,-30.5 121.61,-29.84 129.46,-36.95 132.18,-30.5"/>
<text text-anchor="middle" x="296.5" y="-57.8" font-family="Times,serif" font-size="14.00">dep</text>
</g>
<!-- 3 -->
<g id="node4" class="node">
<title>3</title>
<ellipse fill="none" stroke="black" cx="198" cy="-18" rx="51.99" ry="18"/>
<text text-anchor="middle" x="198" y="-14.3" font-family="Times,serif" font-size="14.00">acontece</text>
</g>
<!-- 0&#45;&gt;3 -->
<g id="edge3" class="edge">
<title>0&#45;&gt;3</title>
<path fill="none" stroke="black" d="M1259.77,-103.79C1127.95,-102.66 555.17,-96.25 379,-69 331.73,-61.69 279.2,-46.34 242.96,-34.56"/>
<polygon fill="black" stroke="black" points="243.78,-31.15 233.18,-31.34 241.59,-37.8 243.78,-31.15"/>
<text text-anchor="middle" x="392.5" y="-57.8" font-family="Times,serif" font-size="14.00">dep</text>
</g>
<!-- 4 -->
<g id="node5" class="node">
<title>4</title>
<ellipse fill="none" stroke="black" cx="317" cy="-18" rx="48.99" ry="18"/>
<text text-anchor="middle" x="317" y="-14.3" font-family="Times,serif" font-size="14.00">também</text>
</g>
<!-- 0&#45;&gt;4 -->
<g id="edge4" class="edge">
<title>0&#45;&gt;4</title>
<path fill="none" stroke="black" d="M1259.82,-103.89C1135.56,-103.24 620.95,-98.75 463,-69 425.98,-62.03 385.58,-47.63 356.69,-36.07"/>
<polygon fill="black" stroke="black" points="357.93,-32.8 347.35,-32.27 355.29,-39.28 357.93,-32.8"/>
<text text-anchor="middle" x="476.5" y="-57.8" font-family="Times,serif" font-size="14.00">dep</text>
</g>
<!-- 5 -->
<g id="node6" class="node">
<title>5</title>
<ellipse fill="none" stroke="black" cx="411" cy="-18" rx="27" ry="18"/>
<text text-anchor="middle" x="411" y="-14.3" font-family="Times,serif" font-size="14.00">em</text>
</g>
<!-- 0&#45;&gt;5 -->
<g id="edge5" class="edge">
<title>0&#45;&gt;5</title>
<path fill="none" stroke="black" d="M1259.96,-103.69C1144.05,-102.21 688.7,-94.83 548,-69 501.55,-60.47 490.88,-53.45 447,-36 445.17,-35.27 443.3,-34.5 441.42,-33.69"/>
<polygon fill="black" stroke="black" points="442.68,-30.42 432.13,-29.52 439.82,-36.8 442.68,-30.42"/>
<text text-anchor="middle" x="561.5" y="-57.8" font-family="Times,serif" font-size="14.00">dep</text>
</g>
<!-- 6 -->
<g id="node7" class="node">
<title>6</title>
<ellipse fill="none" stroke="black" cx="483" cy="-18" rx="27" ry="18"/>
<text text-anchor="middle" x="483" y="-14.3" font-family="Times,serif" font-size="14.00">a</text>
</g>
<!-- 0&#45;&gt;6 -->
<g id="edge6" class="edge">
<title>0&#45;&gt;6</title>
<path fill="none" stroke="black" d="M1259.82,-104.09C1172.7,-104.05 892.76,-101.22 664,-69 598.55,-59.78 581.47,-57.57 519,-36 517.09,-35.34 515.14,-34.61 513.2,-33.83"/>
<polygon fill="black" stroke="black" points="514.19,-30.44 503.62,-29.68 511.4,-36.87 514.19,-30.44"/>
<text text-anchor="middle" x="677.5" y="-57.8" font-family="Times,serif" font-size="14.00">dep</text>
</g>
<!-- 7 -->
<g id="node8" class="node">
<title>7</title>
<ellipse fill="none" stroke="black" cx="591" cy="-18" rx="63.09" ry="18"/>
<text text-anchor="middle" x="591" y="-14.3" font-family="Times,serif" font-size="14.00">preparação</text>
</g>
<!-- 0&#45;&gt;7 -->
<g id="edge7" class="edge">
<title>0&#45;&gt;7</title>
<path fill="none" stroke="black" d="M1259.83,-104.43C1180.93,-105.19 945.31,-104.13 754,-69 713.63,-61.59 669.18,-47.54 636.9,-36.21"/>
<polygon fill="black" stroke="black" points="637.89,-32.85 627.29,-32.8 635.54,-39.44 637.89,-32.85"/>
<text text-anchor="middle" x="767.5" y="-57.8" font-family="Times,serif" font-size="14.00">dep</text>
</g>
<!-- 8 -->
<g id="node9" class="node">
<title>8</title>
<ellipse fill="none" stroke="black" cx="699" cy="-18" rx="27" ry="18"/>
<text text-anchor="middle" x="699" y="-14.3" font-family="Times,serif" font-size="14.00">de</text>
</g>
<!-- 0&#45;&gt;8 -->
<g id="edge8" class="edge">
<title>0&#45;&gt;8</title>
<path fill="none" stroke="black" d="M1260.03,-103.76C1190.93,-102.74 1002.15,-97.35 848,-69 796.54,-59.54 783.92,-54.56 735,-36 733.16,-35.3 731.28,-34.55 729.4,-33.76"/>
<polygon fill="black" stroke="black" points="730.64,-30.48 720.08,-29.63 727.81,-36.88 730.64,-30.48"/>
<text text-anchor="middle" x="861.5" y="-57.8" font-family="Times,serif" font-size="14.00">dep</text>
</g>
<!-- 9 -->
<g id="node10" class="node">
<title>9</title>
<ellipse fill="none" stroke="black" cx="786" cy="-18" rx="41.69" ry="18"/>
<text text-anchor="middle" x="786" y="-14.3" font-family="Times,serif" font-size="14.00">carnes</text>
</g>
<!-- 0&#45;&gt;9 -->
<g id="edge9" class="edge">
<title>0&#45;&gt;9</title>
<path fill="none" stroke="black" d="M1259.95,-103.46C1200.14,-101.81 1052.43,-95.19 932,-69 894.48,-60.84 853.22,-46.15 824.16,-34.8"/>
<polygon fill="black" stroke="black" points="825.38,-31.52 814.8,-31.09 822.8,-38.02 825.38,-31.52"/>
<text text-anchor="middle" x="945.5" y="-57.8" font-family="Times,serif" font-size="14.00">dep</text>
</g>
<!-- 10 -->
<g id="node11" class="node">
<title>10</title>
<ellipse fill="none" stroke="black" cx="882" cy="-18" rx="36.29" ry="18"/>
<text text-anchor="middle" x="882" y="-14.3" font-family="Times,serif" font-size="14.00">secas</text>
</g>
<!-- 0&#45;&gt;10 -->
<g id="edge10" class="edge">
<title>0&#45;&gt;10</title>
<path fill="none" stroke="black" d="M1260.14,-102.85C1210.04,-100.21 1099.26,-92.06 1009,-69 976.77,-60.77 941.71,-46.53 916.6,-35.35"/>
<polygon fill="black" stroke="black" points="917.71,-32.01 907.16,-31.08 914.83,-38.39 917.71,-32.01"/>
<text text-anchor="middle" x="1022.5" y="-57.8" font-family="Times,serif" font-size="14.00">dep</text>
</g>
<!-- 11 -->
<g id="node12" class="node">
<title>11</title>
<ellipse fill="none" stroke="black" cx="963" cy="-18" rx="27" ry="18"/>
<text text-anchor="middle" x="963" y="-14.3" font-family="Times,serif" font-size="14.00">e</text>
</g>
<!-- 0&#45;&gt;11 -->
<g id="edge11" class="edge">
<title>0&#45;&gt;11</title>
<path fill="none" stroke="black" d="M1260.4,-101.26C1220.92,-96.79 1144.74,-86.62 1082,-69 1043.78,-58.27 1035.41,-51.82 999,-36 997.19,-35.22 995.34,-34.39 993.48,-33.56"/>
<polygon fill="black" stroke="black" points="994.77,-30.29 984.22,-29.29 991.84,-36.65 994.77,-30.29"/>
<text text-anchor="middle" x="1095.5" y="-57.8" font-family="Times,serif" font-size="14.00">dep</text>
</g>
<!-- 12 -->
<g id="node13" class="node">
<title>12</title>
<ellipse fill="none" stroke="black" cx="1040" cy="-18" rx="31.7" ry="18"/>
<text text-anchor="middle" x="1040" y="-14.3" font-family="Times,serif" font-size="14.00">aves</text>
</g>
<!-- 0&#45;&gt;12 -->
<g id="edge12" class="edge">
<title>0&#45;&gt;12</title>
<path fill="none" stroke="black" d="M1261.35,-98.87C1233.52,-92.97 1187.98,-82.36 1150,-69 1122.94,-59.48 1093.4,-45.86 1071.75,-35.24"/>
<polygon fill="black" stroke="black" points="1073.2,-32.05 1062.69,-30.74 1070.09,-38.32 1073.2,-32.05"/>
<text text-anchor="middle" x="1163.5" y="-57.8" font-family="Times,serif" font-size="14.00">dep</text>
</g>
<!-- 13 -->
<g id="node14" class="node">
<title>13</title>
<ellipse fill="none" stroke="black" cx="1117" cy="-18" rx="27" ry="18"/>
<text text-anchor="middle" x="1117" y="-14.3" font-family="Times,serif" font-size="14.00">e</text>
</g>
<!-- 0&#45;&gt;13 -->
<g id="edge13" class="edge">
<title>0&#45;&gt;13</title>
<path fill="none" stroke="black" d="M1264.6,-94.49C1248.9,-87.69 1227.49,-78.16 1209,-69 1187.5,-58.35 1163.71,-45.39 1145.71,-35.34"/>
<polygon fill="black" stroke="black" points="1147.3,-32.21 1136.87,-30.37 1143.87,-38.32 1147.3,-32.21"/>
<text text-anchor="middle" x="1222.5" y="-57.8" font-family="Times,serif" font-size="14.00">dep</text>
</g>
<!-- 14 -->
<g id="node15" class="node">
<title>14</title>
<ellipse fill="none" stroke="black" cx="1202" cy="-18" rx="40.09" ry="18"/>
<text text-anchor="middle" x="1202" y="-14.3" font-family="Times,serif" font-size="14.00">peixes</text>
</g>
<!-- 0&#45;&gt;14 -->
<g id="edge14" class="edge">
<title>0&#45;&gt;14</title>
<path fill="none" stroke="black" d="M1272.58,-89.58C1259.59,-76.59 1240.27,-57.27 1225.13,-42.13"/>
<polygon fill="black" stroke="black" points="1227.19,-39.24 1217.64,-34.64 1222.24,-44.19 1227.19,-39.24"/>
<text text-anchor="middle" x="1263.5" y="-57.8" font-family="Times,serif" font-size="14.00">dep</text>
</g>
<!-- 15 -->
<g id="node16" class="node">
<title>15</title>
<ellipse fill="none" stroke="black" cx="1287" cy="-18" rx="27" ry="18"/>
<text text-anchor="middle" x="1287" y="-14.3" font-family="Times,serif" font-size="14.00">«</text>
</g>
<!-- 0&#45;&gt;15 -->
<g id="edge15" class="edge">
<title>0&#45;&gt;15</title>
<path fill="none" stroke="black" d="M1287,-86.8C1287,-75.16 1287,-59.55 1287,-46.24"/>
<polygon fill="black" stroke="black" points="1290.5,-46.18 1287,-36.18 1283.5,-46.18 1290.5,-46.18"/>
<text text-anchor="middle" x="1300.5" y="-57.8" font-family="Times,serif" font-size="14.00">dep</text>
</g>
<!-- 16 -->
<g id="node17" class="node">
<title>16</title>
<ellipse fill="none" stroke="black" cx="1387" cy="-18" rx="54.69" ry="18"/>
<text text-anchor="middle" x="1387" y="-14.3" font-family="Times,serif" font-size="14.00">faisandes</text>
</g>
<!-- 0&#45;&gt;16 -->
<g id="edge16" class="edge">
<title>0&#45;&gt;16</title>
<path fill="none" stroke="black" d="M1303.07,-90.34C1318.48,-77.24 1342.05,-57.21 1360.29,-41.7"/>
<polygon fill="black" stroke="black" points="1362.89,-44.08 1368.25,-34.94 1358.36,-38.75 1362.89,-44.08"/>
<text text-anchor="middle" x="1356.5" y="-57.8" font-family="Times,serif" font-size="14.00">dep</text>
</g>
<!-- 17 -->
<g id="node18" class="node">
<title>17</title>
<ellipse fill="none" stroke="black" cx="1487" cy="-18" rx="27" ry="18"/>
<text text-anchor="middle" x="1487" y="-14.3" font-family="Times,serif" font-size="14.00">»</text>
</g>
<!-- 0&#45;&gt;17 -->
<g id="edge17" class="edge">
<title>0&#45;&gt;17</title>
<path fill="none" stroke="black" d="M1309.73,-95.08C1341.56,-82.47 1401.11,-58.46 1451,-36 1452.8,-35.19 1454.64,-34.35 1456.49,-33.5"/>
<polygon fill="black" stroke="black" points="1458.15,-36.59 1465.74,-29.2 1455.2,-30.24 1458.15,-36.59"/>
<text text-anchor="middle" x="1420.5" y="-57.8" font-family="Times,serif" font-size="14.00">dep</text>
</g>
<!-- 18 -->
<g id="node19" class="node">
<title>18</title>
<ellipse fill="none" stroke="black" cx="1559" cy="-18" rx="27" ry="18"/>
<text text-anchor="middle" x="1559" y="-14.3" font-family="Times,serif" font-size="14.00">e</text>
</g>
<!-- 0&#45;&gt;18 -->
<g id="edge18" class="edge">
<title>0&#45;&gt;18</title>
<path fill="none" stroke="black" d="M1312.68,-99.21C1342.96,-93.29 1394.67,-82.36 1438,-69 1476.73,-57.06 1485.77,-52 1523,-36 1524.81,-35.22 1526.66,-34.41 1528.53,-33.57"/>
<polygon fill="black" stroke="black" points="1530.16,-36.67 1537.79,-29.32 1527.24,-30.31 1530.16,-36.67"/>
<text text-anchor="middle" x="1495.5" y="-57.8" font-family="Times,serif" font-size="14.00">dep</text>
</g>
<!-- 19 -->
<g id="node20" class="node">
<title>19</title>
<ellipse fill="none" stroke="black" cx="1631" cy="-18" rx="27" ry="18"/>
<text text-anchor="middle" x="1631" y="-14.3" font-family="Times,serif" font-size="14.00">em</text>
</g>
<!-- 0&#45;&gt;19 -->
<g id="edge19" class="edge">
<title>0&#45;&gt;19</title>
<path fill="none" stroke="black" d="M1313.86,-101.84C1356.62,-97.97 1442.56,-88.35 1513,-69 1544.11,-60.45 1577.84,-45.54 1601.24,-34.22"/>
<polygon fill="black" stroke="black" points="1602.86,-37.33 1610.29,-29.78 1599.77,-31.05 1602.86,-37.33"/>
<text text-anchor="middle" x="1570.5" y="-57.8" font-family="Times,serif" font-size="14.00">dep</text>
</g>
<!-- 20 -->
<g id="node21" class="node">
<title>20</title>
<ellipse fill="none" stroke="black" cx="1703" cy="-18" rx="27" ry="18"/>
<text text-anchor="middle" x="1703" y="-14.3" font-family="Times,serif" font-size="14.00">o</text>
</g>
<!-- 0&#45;&gt;20 -->
<g id="edge20" class="edge">
<title>0&#45;&gt;20</title>
<path fill="none" stroke="black" d="M1314.04,-103.38C1367.31,-101.6 1489.26,-94.82 1588,-69 1618.23,-61.1 1650.7,-46.34 1673.4,-34.9"/>
<polygon fill="black" stroke="black" points="1675.2,-37.91 1682.5,-30.23 1672.01,-31.69 1675.2,-37.91"/>
<text text-anchor="middle" x="1644.5" y="-57.8" font-family="Times,serif" font-size="14.00">dep</text>
</g>
<!-- 21 -->
<g id="node22" class="node">
<title>21</title>
<ellipse fill="none" stroke="black" cx="1797" cy="-18" rx="49.29" ry="18"/>
<text text-anchor="middle" x="1797" y="-14.3" font-family="Times,serif" font-size="14.00">correcto</text>
</g>
<!-- 0&#45;&gt;21 -->
<g id="edge21" class="edge">
<title>0&#45;&gt;21</title>
<path fill="none" stroke="black" d="M1314.21,-103.88C1376.55,-103.09 1534.17,-98.11 1662,-69 1695.32,-61.41 1731.55,-47.67 1758.08,-36.51"/>
<polygon fill="black" stroke="black" points="1759.57,-39.68 1767.39,-32.53 1756.82,-33.24 1759.57,-39.68"/>
<text text-anchor="middle" x="1725.5" y="-57.8" font-family="Times,serif" font-size="14.00">dep</text>
</g>
<!-- 22 -->
<g id="node23" class="node">
<title>22</title>
<ellipse fill="none" stroke="black" cx="1959" cy="-18" rx="94.78" ry="18"/>
<text text-anchor="middle" x="1959" y="-14.3" font-family="Times,serif" font-size="14.00">acondicionamento</text>
</g>
<!-- 0&#45;&gt;22 -->
<g id="edge22" class="edge">
<title>0&#45;&gt;22</title>
<path fill="none" stroke="black" d="M1313.89,-103.35C1384.58,-101.34 1581.32,-93.77 1743,-69 1795.77,-60.91 1854.76,-46.91 1897.75,-35.78"/>
<polygon fill="black" stroke="black" points="1898.7,-39.15 1907.49,-33.24 1896.93,-32.38 1898.7,-39.15"/>
<text text-anchor="middle" x="1834.5" y="-57.8" font-family="Times,serif" font-size="14.00">dep</text>
</g>
<!-- 23 -->
<g id="node24" class="node">
<title>23</title>
<ellipse fill="none" stroke="black" cx="2099" cy="-18" rx="27" ry="18"/>
<text text-anchor="middle" x="2099" y="-14.3" font-family="Times,serif" font-size="14.00">de</text>
</g>
<!-- 0&#45;&gt;23 -->
<g id="edge23" class="edge">
<title>0&#45;&gt;23</title>
<path fill="none" stroke="black" d="M1314.13,-103.22C1395.7,-100.67 1645.85,-91.46 1852,-69 1946.36,-58.72 1972.27,-63.88 2063,-36 2064.93,-35.41 2066.89,-34.73 2068.85,-33.99"/>
<polygon fill="black" stroke="black" points="2070.61,-37.04 2078.46,-29.93 2067.89,-30.59 2070.61,-37.04"/>
<text text-anchor="middle" x="2005.5" y="-57.8" font-family="Times,serif" font-size="14.00">dep</text>
</g>
<!-- 24 -->
<g id="node25" class="node">
<title>24</title>
<ellipse fill="none" stroke="black" cx="2186" cy="-18" rx="41.69" ry="18"/>
<text text-anchor="middle" x="2186" y="-14.3" font-family="Times,serif" font-size="14.00">corpos</text>
</g>
<!-- 0&#45;&gt;24 -->
<g id="edge24" class="edge">
<title>0&#45;&gt;24</title>
<path fill="none" stroke="black" d="M1314.3,-103.57C1430.29,-101.63 1882.67,-92.66 2023,-69 2066.25,-61.71 2114.04,-46.11 2146.62,-34.26"/>
<polygon fill="black" stroke="black" points="2148.06,-37.46 2156.23,-30.71 2145.63,-30.89 2148.06,-37.46"/>
<text text-anchor="middle" x="2096.5" y="-57.8" font-family="Times,serif" font-size="14.00">dep</text>
</g>
<!-- 25 -->
<g id="node26" class="node">
<title>25</title>
<ellipse fill="none" stroke="black" cx="2298" cy="-18" rx="52.79" ry="18"/>
<text text-anchor="middle" x="2298" y="-14.3" font-family="Times,serif" font-size="14.00">humanos</text>
</g>
<!-- 0&#45;&gt;25 -->
<g id="edge25" class="edge">
<title>0&#45;&gt;25</title>
<path fill="none" stroke="black" d="M1314.24,-103.65C1438.76,-101.94 1954.56,-93.46 2114,-69 2162,-61.64 2215.42,-46.29 2252.27,-34.53"/>
<polygon fill="black" stroke="black" points="2253.77,-37.73 2262.21,-31.32 2251.62,-31.07 2253.77,-37.73"/>
<text text-anchor="middle" x="2194.5" y="-57.8" font-family="Times,serif" font-size="14.00">dep</text>
</g>
<!-- 26 -->
<g id="node27" class="node">
<title>26</title>
<ellipse fill="none" stroke="black" cx="2400" cy="-18" rx="31.7" ry="18"/>
<text text-anchor="middle" x="2400" y="-14.3" font-family="Times,serif" font-size="14.00">para</text>
</g>
<!-- 0&#45;&gt;26 -->
<g id="edge26" class="edge">
<title>0&#45;&gt;26</title>
<path fill="none" stroke="black" d="M1314.27,-103.64C1447.59,-101.76 2031.7,-92.32 2212,-69 2278.84,-60.36 2295.83,-56.6 2360,-36 2362.24,-35.28 2364.53,-34.48 2366.83,-33.64"/>
<polygon fill="black" stroke="black" points="2368.13,-36.89 2376.16,-29.97 2365.57,-30.37 2368.13,-36.89"/>
<text text-anchor="middle" x="2313.5" y="-57.8" font-family="Times,serif" font-size="14.00">dep</text>
</g>
<!-- 27 -->
<g id="node28" class="node">
<title>27</title>
<ellipse fill="none" stroke="black" cx="2477" cy="-18" rx="27" ry="18"/>
<text text-anchor="middle" x="2477" y="-14.3" font-family="Times,serif" font-size="14.00">a</text>
</g>
<!-- 0&#45;&gt;27 -->
<g id="edge27" class="edge">
<title>0&#45;&gt;27</title>
<path fill="none" stroke="black" d="M1314.41,-104.04C1458.26,-104.08 2126.98,-102.44 2331,-69 2381.37,-60.74 2393.34,-54.28 2441,-36 2442.84,-35.29 2444.72,-34.54 2446.6,-33.74"/>
<polygon fill="black" stroke="black" points="2448.19,-36.86 2455.91,-29.6 2445.35,-30.47 2448.19,-36.86"/>
<text text-anchor="middle" x="2406.5" y="-57.8" font-family="Times,serif" font-size="14.00">dep</text>
</g>
<!-- 28 -->
<g id="node29" class="node">
<title>28</title>
<ellipse fill="none" stroke="black" cx="2583" cy="-18" rx="61.19" ry="18"/>
<text text-anchor="middle" x="2583" y="-14.3" font-family="Times,serif" font-size="14.00">eternidade</text>
</g>
<!-- 0&#45;&gt;28 -->
<g id="edge28" class="edge">
<title>0&#45;&gt;28</title>
<path fill="none" stroke="black" d="M1314.34,-104.17C1465.56,-104.97 2200.8,-106.79 2424,-69 2463.65,-62.29 2507.1,-48.13 2538.55,-36.59"/>
<polygon fill="black" stroke="black" points="2540.17,-39.72 2548.32,-32.94 2537.72,-33.16 2540.17,-39.72"/>
<text text-anchor="middle" x="2500.5" y="-57.8" font-family="Times,serif" font-size="14.00">dep</text>
</g>
<!-- 29 -->
<g id="node30" class="node">
<title>29</title>
<ellipse fill="none" stroke="black" cx="2689" cy="-18" rx="27" ry="18"/>
<text text-anchor="middle" x="2689" y="-14.3" font-family="Times,serif" font-size="14.00">.</text>
</g>
<!-- 0&#45;&gt;29 -->
<g id="edge29" class="edge">
<title>0&#45;&gt;29</title>
<path fill="none" stroke="black" d="M1314.2,-104.01C1472.25,-103.93 2273.94,-101.92 2518,-69 2579.21,-60.74 2594.78,-56.63 2653,-36 2654.91,-35.32 2656.85,-34.58 2658.79,-33.8"/>
<polygon fill="black" stroke="black" points="2660.6,-36.83 2668.36,-29.62 2657.8,-30.41 2660.6,-36.83"/>
<text text-anchor="middle" x="2611.5" y="-57.8" font-family="Times,serif" font-size="14.00">dep</text>
</g>
</g>
</svg>
