<?xml version="1.0" encoding="UTF-8" standalone="no"?>
<!DOCTYPE svg PUBLIC "-//W3C//DTD SVG 1.1//EN"
 "http://www.w3.org/Graphics/SVG/1.1/DTD/svg11.dtd">
<!-- Generated by graphviz version 2.42.4 (0)
 -->
<!-- Pages: 1 -->
<svg width="1571pt" height="131pt"
 viewBox="0.00 0.00 1571.15 131.00" xmlns="http://www.w3.org/2000/svg" xmlns:xlink="http://www.w3.org/1999/xlink">
<g id="graph0" class="graph" transform="scale(1 1) rotate(0) translate(4 127)">
<polygon fill="white" stroke="transparent" points="-4,4 -4,-127 1567.15,-127 1567.15,4 -4,4"/>
<!-- 0 -->
<g id="node1" class="node">
<title>0</title>
<ellipse fill="none" stroke="black" cx="761.15" cy="-105" rx="37.89" ry="18"/>
<text text-anchor="middle" x="761.15" y="-101.3" font-family="Times,serif" font-size="14.00">Outro</text>
</g>
<!-- 1 -->
<g id="node2" class="node">
<title>1</title>
<ellipse fill="none" stroke="black" cx="46.15" cy="-18" rx="46.29" ry="18"/>
<text text-anchor="middle" x="46.15" y="-14.3" font-family="Times,serif" font-size="14.00">aspecto</text>
</g>
<!-- 0&#45;&gt;1 -->
<g id="edge1" class="edge">
<title>0&#45;&gt;1</title>
<path fill="none" stroke="black" d="M723.66,-102.85C615.37,-99.33 303.44,-87.82 203.15,-69 162.68,-61.41 118.09,-46.55 86.81,-34.99"/>
<polygon fill="black" stroke="black" points="87.73,-31.6 77.14,-31.37 85.27,-38.16 87.73,-31.6"/>
<text text-anchor="middle" x="216.65" y="-57.8" font-family="Times,serif" font-size="14.00">dep</text>
</g>
<!-- 2 -->
<g id="node3" class="node">
<title>2</title>
<ellipse fill="none" stroke="black" cx="138.15" cy="-18" rx="27.9" ry="18"/>
<text text-anchor="middle" x="138.15" y="-14.3" font-family="Times,serif" font-size="14.00">que</text>
</g>
<!-- 0&#45;&gt;2 -->
<g id="edge2" class="edge">
<title>0&#45;&gt;2</title>
<path fill="none" stroke="black" d="M723.48,-102.83C647.04,-100.05 468.4,-91.52 320.15,-69 254.37,-59.01 237.04,-57.67 174.15,-36 172.48,-35.43 170.8,-34.8 169.11,-34.14"/>
<polygon fill="black" stroke="black" points="170.1,-30.75 159.53,-30.03 167.34,-37.19 170.1,-30.75"/>
<text text-anchor="middle" x="333.65" y="-57.8" font-family="Times,serif" font-size="14.00">dep</text>
</g>
<!-- 3 -->
<g id="node4" class="node">
<title>3</title>
<ellipse fill="none" stroke="black" cx="227.15" cy="-18" rx="43.59" ry="18"/>
<text text-anchor="middle" x="227.15" y="-14.3" font-family="Times,serif" font-size="14.00">suscita</text>
</g>
<!-- 0&#45;&gt;3 -->
<g id="edge3" class="edge">
<title>0&#45;&gt;3</title>
<path fill="none" stroke="black" d="M724.01,-101.48C662.3,-96.97 534.87,-86.37 428.15,-69 361.2,-58.1 344.57,-53.89 279.15,-36 275.84,-35.1 272.43,-34.11 269.02,-33.08"/>
<polygon fill="black" stroke="black" points="270.04,-29.73 259.45,-30.1 267.96,-36.42 270.04,-29.73"/>
<text text-anchor="middle" x="441.65" y="-57.8" font-family="Times,serif" font-size="14.00">dep</text>
</g>
<!-- 4 -->
<g id="node5" class="node">
<title>4</title>
<ellipse fill="none" stroke="black" cx="358.15" cy="-18" rx="69.59" ry="18"/>
<text text-anchor="middle" x="358.15" y="-14.3" font-family="Times,serif" font-size="14.00">preocupação</text>
</g>
<!-- 0&#45;&gt;4 -->
<g id="edge4" class="edge">
<title>0&#45;&gt;4</title>
<path fill="none" stroke="black" d="M724.04,-100.97C674.54,-96.45 584.43,-86.54 509.15,-69 473.5,-60.7 434.3,-47.59 404.77,-36.88"/>
<polygon fill="black" stroke="black" points="405.74,-33.51 395.15,-33.35 403.33,-40.08 405.74,-33.51"/>
<text text-anchor="middle" x="522.65" y="-57.8" font-family="Times,serif" font-size="14.00">dep</text>
</g>
<!-- 5 -->
<g id="node6" class="node">
<title>5</title>
<ellipse fill="none" stroke="black" cx="473.15" cy="-18" rx="27" ry="18"/>
<text text-anchor="middle" x="473.15" y="-14.3" font-family="Times,serif" font-size="14.00">é</text>
</g>
<!-- 0&#45;&gt;5 -->
<g id="edge5" class="edge">
<title>0&#45;&gt;5</title>
<path fill="none" stroke="black" d="M724.55,-100.16C686.3,-95.46 624.9,-85.95 574.15,-69 548.51,-60.44 521.14,-46.56 501.36,-35.59"/>
<polygon fill="black" stroke="black" points="503.01,-32.5 492.58,-30.64 499.57,-38.6 503.01,-32.5"/>
<text text-anchor="middle" x="587.65" y="-57.8" font-family="Times,serif" font-size="14.00">dep</text>
</g>
<!-- 6 -->
<g id="node7" class="node">
<title>6</title>
<ellipse fill="none" stroke="black" cx="545.15" cy="-18" rx="27" ry="18"/>
<text text-anchor="middle" x="545.15" y="-14.3" font-family="Times,serif" font-size="14.00">«</text>
</g>
<!-- 0&#45;&gt;6 -->
<g id="edge6" class="edge">
<title>0&#45;&gt;6</title>
<path fill="none" stroke="black" d="M727.27,-96.88C701.48,-90.92 665.4,-81.4 635.15,-69 613.18,-59.99 589.77,-46.87 572.34,-36.33"/>
<polygon fill="black" stroke="black" points="574.16,-33.34 563.81,-31.09 570.49,-39.3 574.16,-33.34"/>
<text text-anchor="middle" x="648.65" y="-57.8" font-family="Times,serif" font-size="14.00">dep</text>
</g>
<!-- 7 -->
<g id="node8" class="node">
<title>7</title>
<ellipse fill="none" stroke="black" cx="617.15" cy="-18" rx="27" ry="18"/>
<text text-anchor="middle" x="617.15" y="-14.3" font-family="Times,serif" font-size="14.00">o</text>
</g>
<!-- 0&#45;&gt;7 -->
<g id="edge7" class="edge">
<title>0&#45;&gt;7</title>
<path fill="none" stroke="black" d="M733.84,-92.49C719.6,-86.14 702.1,-77.78 687.15,-69 671.51,-59.82 654.96,-48.1 641.88,-38.32"/>
<polygon fill="black" stroke="black" points="643.92,-35.47 633.83,-32.21 639.69,-41.04 643.92,-35.47"/>
<text text-anchor="middle" x="700.65" y="-57.8" font-family="Times,serif" font-size="14.00">dep</text>
</g>
<!-- 8 -->
<g id="node9" class="node">
<title>8</title>
<ellipse fill="none" stroke="black" cx="689.15" cy="-18" rx="27" ry="18"/>
<text text-anchor="middle" x="689.15" y="-14.3" font-family="Times,serif" font-size="14.00">uso</text>
</g>
<!-- 0&#45;&gt;8 -->
<g id="edge8" class="edge">
<title>0&#45;&gt;8</title>
<path fill="none" stroke="black" d="M746.82,-88.08C741.53,-82.14 735.52,-75.3 730.15,-69 722.83,-60.41 714.94,-50.86 708.05,-42.43"/>
<polygon fill="black" stroke="black" points="710.58,-39.99 701.56,-34.44 705.15,-44.41 710.58,-39.99"/>
<text text-anchor="middle" x="743.65" y="-57.8" font-family="Times,serif" font-size="14.00">dep</text>
</g>
<!-- 9 -->
<g id="node10" class="node">
<title>9</title>
<ellipse fill="none" stroke="black" cx="761.15" cy="-18" rx="27" ry="18"/>
<text text-anchor="middle" x="761.15" y="-14.3" font-family="Times,serif" font-size="14.00">,</text>
</g>
<!-- 0&#45;&gt;9 -->
<g id="edge9" class="edge">
<title>0&#45;&gt;9</title>
<path fill="none" stroke="black" d="M761.15,-86.8C761.15,-75.16 761.15,-59.55 761.15,-46.24"/>
<polygon fill="black" stroke="black" points="764.65,-46.18 761.15,-36.18 757.65,-46.18 764.65,-46.18"/>
<text text-anchor="middle" x="774.65" y="-57.8" font-family="Times,serif" font-size="14.00">dep</text>
</g>
<!-- 10 -->
<g id="node11" class="node">
<title>10</title>
<ellipse fill="none" stroke="black" cx="833.15" cy="-18" rx="27" ry="18"/>
<text text-anchor="middle" x="833.15" y="-14.3" font-family="Times,serif" font-size="14.00">por</text>
</g>
<!-- 0&#45;&gt;10 -->
<g id="edge10" class="edge">
<title>0&#45;&gt;10</title>
<path fill="none" stroke="black" d="M775.47,-88.08C780.76,-82.14 786.78,-75.3 792.15,-69 799.46,-60.41 807.36,-50.86 814.24,-42.43"/>
<polygon fill="black" stroke="black" points="817.14,-44.41 820.73,-34.44 811.71,-39.99 817.14,-44.41"/>
<text text-anchor="middle" x="818.65" y="-57.8" font-family="Times,serif" font-size="14.00">dep</text>
</g>
<!-- 11 -->
<g id="node12" class="node">
<title>11</title>
<ellipse fill="none" stroke="black" cx="914.15" cy="-18" rx="36.29" ry="18"/>
<text text-anchor="middle" x="914.15" y="-14.3" font-family="Times,serif" font-size="14.00">vezes</text>
</g>
<!-- 0&#45;&gt;11 -->
<g id="edge11" class="edge">
<title>0&#45;&gt;11</title>
<path fill="none" stroke="black" d="M788.31,-92.38C802.75,-85.94 820.66,-77.52 836.15,-69 852.83,-59.81 870.77,-48.43 885.23,-38.84"/>
<polygon fill="black" stroke="black" points="887.38,-41.61 893.75,-33.14 883.49,-35.8 887.38,-41.61"/>
<text text-anchor="middle" x="874.65" y="-57.8" font-family="Times,serif" font-size="14.00">dep</text>
</g>
<!-- 12 -->
<g id="node13" class="node">
<title>12</title>
<ellipse fill="none" stroke="black" cx="1048.15" cy="-18" rx="79.09" ry="18"/>
<text text-anchor="middle" x="1048.15" y="-14.3" font-family="Times,serif" font-size="14.00">indiscriminado</text>
</g>
<!-- 0&#45;&gt;12 -->
<g id="edge12" class="edge">
<title>0&#45;&gt;12</title>
<path fill="none" stroke="black" d="M793.57,-95.81C820.16,-88.98 858.72,-78.82 892.15,-69 926.84,-58.81 965.54,-46.41 995.72,-36.51"/>
<polygon fill="black" stroke="black" points="997.21,-39.71 1005.61,-33.25 995.02,-33.06 997.21,-39.71"/>
<text text-anchor="middle" x="953.65" y="-57.8" font-family="Times,serif" font-size="14.00">dep</text>
</g>
<!-- 13 -->
<g id="node14" class="node">
<title>13</title>
<ellipse fill="none" stroke="black" cx="1172.15" cy="-18" rx="27" ry="18"/>
<text text-anchor="middle" x="1172.15" y="-14.3" font-family="Times,serif" font-size="14.00">,</text>
</g>
<!-- 0&#45;&gt;13 -->
<g id="edge13" class="edge">
<title>0&#45;&gt;13</title>
<path fill="none" stroke="black" d="M797.92,-100.77C866.08,-94.04 1016,-75.72 1136.15,-36 1138.07,-35.37 1140.02,-34.65 1141.97,-33.89"/>
<polygon fill="black" stroke="black" points="1143.75,-36.93 1151.56,-29.77 1140.99,-30.5 1143.75,-36.93"/>
<text text-anchor="middle" x="1080.65" y="-57.8" font-family="Times,serif" font-size="14.00">dep</text>
</g>
<!-- 14 -->
<g id="node15" class="node">
<title>14</title>
<ellipse fill="none" stroke="black" cx="1244.15" cy="-18" rx="27" ry="18"/>
<text text-anchor="middle" x="1244.15" y="-14.3" font-family="Times,serif" font-size="14.00">de</text>
</g>
<!-- 0&#45;&gt;14 -->
<g id="edge14" class="edge">
<title>0&#45;&gt;14</title>
<path fill="none" stroke="black" d="M798.64,-102.41C861.23,-99.24 990.72,-90.49 1098.15,-69 1148.2,-58.99 1160.49,-54.28 1208.15,-36 1209.99,-35.29 1211.86,-34.54 1213.74,-33.74"/>
<polygon fill="black" stroke="black" points="1215.34,-36.86 1223.05,-29.6 1212.5,-30.47 1215.34,-36.86"/>
<text text-anchor="middle" x="1171.65" y="-57.8" font-family="Times,serif" font-size="14.00">dep</text>
</g>
<!-- 15 -->
<g id="node16" class="node">
<title>15</title>
<ellipse fill="none" stroke="black" cx="1354.15" cy="-18" rx="64.99" ry="18"/>
<text text-anchor="middle" x="1354.15" y="-14.3" font-family="Times,serif" font-size="14.00">antibióticos</text>
</g>
<!-- 0&#45;&gt;15 -->
<g id="edge15" class="edge">
<title>0&#45;&gt;15</title>
<path fill="none" stroke="black" d="M799.01,-103.6C874.09,-102.2 1046.87,-96.05 1189.15,-69 1229.65,-61.3 1274.34,-47.41 1306.98,-36.22"/>
<polygon fill="black" stroke="black" points="1308.41,-39.43 1316.71,-32.84 1306.11,-32.82 1308.41,-39.43"/>
<text text-anchor="middle" x="1262.65" y="-57.8" font-family="Times,serif" font-size="14.00">dep</text>
</g>
<!-- 16 -->
<g id="node17" class="node">
<title>16</title>
<ellipse fill="none" stroke="black" cx="1464.15" cy="-18" rx="27" ry="18"/>
<text text-anchor="middle" x="1464.15" y="-14.3" font-family="Times,serif" font-size="14.00">»</text>
</g>
<!-- 0&#45;&gt;16 -->
<g id="edge16" class="edge">
<title>0&#45;&gt;16</title>
<path fill="none" stroke="black" d="M798.8,-103.42C884.62,-101.67 1101.16,-94.84 1280.15,-69 1346.85,-59.37 1364.4,-57.86 1428.15,-36 1430.06,-35.34 1432,-34.62 1433.95,-33.84"/>
<polygon fill="black" stroke="black" points="1435.75,-36.88 1443.53,-29.69 1432.96,-30.45 1435.75,-36.88"/>
<text text-anchor="middle" x="1381.65" y="-57.8" font-family="Times,serif" font-size="14.00">dep</text>
</g>
<!-- 17 -->
<g id="node18" class="node">
<title>17</title>
<ellipse fill="none" stroke="black" cx="1536.15" cy="-18" rx="27" ry="18"/>
<text text-anchor="middle" x="1536.15" y="-14.3" font-family="Times,serif" font-size="14.00">.</text>
</g>
<!-- 0&#45;&gt;17 -->
<g id="edge17" class="edge">
<title>0&#45;&gt;17</title>
<path fill="none" stroke="black" d="M798.85,-103.22C917.61,-100.56 1282.89,-90.79 1399.15,-69 1445.56,-60.3 1456.26,-53.45 1500.15,-36 1501.98,-35.27 1503.85,-34.5 1505.72,-33.69"/>
<polygon fill="black" stroke="black" points="1507.33,-36.8 1515.02,-29.52 1504.46,-30.42 1507.33,-36.8"/>
<text text-anchor="middle" x="1467.65" y="-57.8" font-family="Times,serif" font-size="14.00">dep</text>
</g>
</g>
</svg>
