<?xml version="1.0" encoding="UTF-8" standalone="no"?>
<!DOCTYPE svg PUBLIC "-//W3C//DTD SVG 1.1//EN"
 "http://www.w3.org/Graphics/SVG/1.1/DTD/svg11.dtd">
<!-- Generated by graphviz version 2.42.4 (0)
 -->
<!-- Pages: 1 -->
<svg width="2742pt" height="131pt"
 viewBox="0.00 0.00 2742.00 131.00" xmlns="http://www.w3.org/2000/svg" xmlns:xlink="http://www.w3.org/1999/xlink">
<g id="graph0" class="graph" transform="scale(1 1) rotate(0) translate(4 127)">
<polygon fill="white" stroke="transparent" points="-4,4 -4,-127 2738,-127 2738,4 -4,4"/>
<!-- 0 -->
<g id="node1" class="node">
<title>0</title>
<ellipse fill="none" stroke="black" cx="1400" cy="-105" rx="27" ry="18"/>
<text text-anchor="middle" x="1400" y="-101.3" font-family="Times,serif" font-size="14.00">«</text>
</g>
<!-- 1 -->
<g id="node2" class="node">
<title>1</title>
<ellipse fill="none" stroke="black" cx="27" cy="-18" rx="27" ry="18"/>
<text text-anchor="middle" x="27" y="-14.3" font-family="Times,serif" font-size="14.00">A</text>
</g>
<!-- 0&#45;&gt;1 -->
<g id="edge1" class="edge">
<title>0&#45;&gt;1</title>
<path fill="none" stroke="black" d="M1373.05,-103.75C1202.77,-102.08 279.32,-92.02 156,-69 120.62,-62.39 82.46,-46.39 56.89,-34.25"/>
<polygon fill="black" stroke="black" points="58.27,-31.03 47.74,-29.82 55.22,-37.33 58.27,-31.03"/>
<text text-anchor="middle" x="169.5" y="-57.8" font-family="Times,serif" font-size="14.00">dep</text>
</g>
<!-- 2 -->
<g id="node3" class="node">
<title>2</title>
<ellipse fill="none" stroke="black" cx="99" cy="-18" rx="27" ry="18"/>
<text text-anchor="middle" x="99" y="-14.3" font-family="Times,serif" font-size="14.00">as</text>
</g>
<!-- 0&#45;&gt;2 -->
<g id="edge2" class="edge">
<title>0&#45;&gt;2</title>
<path fill="none" stroke="black" d="M1373.01,-104.04C1222.1,-104.11 481.51,-102.72 256,-69 200.87,-60.76 187.29,-55.31 135,-36 133.15,-35.32 131.27,-34.58 129.38,-33.8"/>
<polygon fill="black" stroke="black" points="130.62,-30.52 120.06,-29.7 127.8,-36.93 130.62,-30.52"/>
<text text-anchor="middle" x="269.5" y="-57.8" font-family="Times,serif" font-size="14.00">dep</text>
</g>
<!-- 3 -->
<g id="node4" class="node">
<title>3</title>
<ellipse fill="none" stroke="black" cx="197" cy="-18" rx="53.09" ry="18"/>
<text text-anchor="middle" x="197" y="-14.3" font-family="Times,serif" font-size="14.00">picardias</text>
</g>
<!-- 0&#45;&gt;3 -->
<g id="edge3" class="edge">
<title>0&#45;&gt;3</title>
<path fill="none" stroke="black" d="M1372.73,-104.18C1228.12,-104.97 549.94,-106.58 344,-69 307.07,-62.26 266.82,-48.06 237.79,-36.51"/>
<polygon fill="black" stroke="black" points="238.98,-33.21 228.39,-32.7 236.35,-39.7 238.98,-33.21"/>
<text text-anchor="middle" x="357.5" y="-57.8" font-family="Times,serif" font-size="14.00">dep</text>
</g>
<!-- 4 -->
<g id="node5" class="node">
<title>4</title>
<ellipse fill="none" stroke="black" cx="295" cy="-18" rx="27" ry="18"/>
<text text-anchor="middle" x="295" y="-14.3" font-family="Times,serif" font-size="14.00">e</text>
</g>
<!-- 0&#45;&gt;4 -->
<g id="edge4" class="edge">
<title>0&#45;&gt;4</title>
<path fill="none" stroke="black" d="M1372.63,-104.1C1234.78,-104.45 615.63,-104.01 427,-69 390.68,-62.26 351.36,-46.12 325.18,-33.99"/>
<polygon fill="black" stroke="black" points="326.35,-30.67 315.81,-29.56 323.36,-37 326.35,-30.67"/>
<text text-anchor="middle" x="440.5" y="-57.8" font-family="Times,serif" font-size="14.00">dep</text>
</g>
<!-- 5 -->
<g id="node6" class="node">
<title>5</title>
<ellipse fill="none" stroke="black" cx="375" cy="-18" rx="35.19" ry="18"/>
<text text-anchor="middle" x="375" y="-14.3" font-family="Times,serif" font-size="14.00">jogos</text>
</g>
<!-- 0&#45;&gt;5 -->
<g id="edge5" class="edge">
<title>0&#45;&gt;5</title>
<path fill="none" stroke="black" d="M1372.86,-104.04C1242.76,-104.07 682.15,-102.25 511,-69 475.15,-62.04 436.23,-46.89 409.24,-35.08"/>
<polygon fill="black" stroke="black" points="410.43,-31.78 399.87,-30.91 407.58,-38.17 410.43,-31.78"/>
<text text-anchor="middle" x="524.5" y="-57.8" font-family="Times,serif" font-size="14.00">dep</text>
</g>
<!-- 6 -->
<g id="node7" class="node">
<title>6</title>
<ellipse fill="none" stroke="black" cx="455" cy="-18" rx="27" ry="18"/>
<text text-anchor="middle" x="455" y="-14.3" font-family="Times,serif" font-size="14.00">de</text>
</g>
<!-- 0&#45;&gt;6 -->
<g id="edge6" class="edge">
<title>0&#45;&gt;6</title>
<path fill="none" stroke="black" d="M1372.77,-103.62C1251.71,-101.8 761.69,-93.07 610,-69 555.79,-60.4 542.45,-55.12 491,-36 489.15,-35.31 487.27,-34.57 485.39,-33.79"/>
<polygon fill="black" stroke="black" points="486.62,-30.51 476.06,-29.68 483.8,-36.92 486.62,-30.51"/>
<text text-anchor="middle" x="623.5" y="-57.8" font-family="Times,serif" font-size="14.00">dep</text>
</g>
<!-- 7 -->
<g id="node8" class="node">
<title>7</title>
<ellipse fill="none" stroke="black" cx="550" cy="-18" rx="50.09" ry="18"/>
<text text-anchor="middle" x="550" y="-14.3" font-family="Times,serif" font-size="14.00">palavras</text>
</g>
<!-- 0&#45;&gt;7 -->
<g id="edge7" class="edge">
<title>0&#45;&gt;7</title>
<path fill="none" stroke="black" d="M1372.98,-103.7C1260.24,-102.27 826.88,-95.15 693,-69 657.1,-61.99 617.99,-47.83 589.76,-36.37"/>
<polygon fill="black" stroke="black" points="590.83,-33.02 580.25,-32.44 588.16,-39.49 590.83,-33.02"/>
<text text-anchor="middle" x="706.5" y="-57.8" font-family="Times,serif" font-size="14.00">dep</text>
</g>
<!-- 8 -->
<g id="node9" class="node">
<title>8</title>
<ellipse fill="none" stroke="black" cx="645" cy="-18" rx="27" ry="18"/>
<text text-anchor="middle" x="645" y="-14.3" font-family="Times,serif" font-size="14.00">de</text>
</g>
<!-- 0&#45;&gt;8 -->
<g id="edge8" class="edge">
<title>0&#45;&gt;8</title>
<path fill="none" stroke="black" d="M1373,-103.5C1268.69,-101.4 892.1,-92.35 775,-69 739.46,-61.92 700.98,-45.99 675.19,-34.01"/>
<polygon fill="black" stroke="black" points="676.49,-30.75 665.95,-29.63 673.49,-37.08 676.49,-30.75"/>
<text text-anchor="middle" x="788.5" y="-57.8" font-family="Times,serif" font-size="14.00">dep</text>
</g>
<!-- 9 -->
<g id="node10" class="node">
<title>9</title>
<ellipse fill="none" stroke="black" cx="717" cy="-18" rx="27" ry="18"/>
<text text-anchor="middle" x="717" y="-14.3" font-family="Times,serif" font-size="14.00">o</text>
</g>
<!-- 0&#45;&gt;9 -->
<g id="edge9" class="edge">
<title>0&#45;&gt;9</title>
<path fill="none" stroke="black" d="M1372.85,-104.15C1294.54,-104.16 1061.74,-101.25 872,-69 817.89,-59.8 804.45,-55.12 753,-36 751.15,-35.31 749.27,-34.57 747.39,-33.79"/>
<polygon fill="black" stroke="black" points="748.62,-30.51 738.06,-29.68 745.8,-36.92 748.62,-30.51"/>
<text text-anchor="middle" x="885.5" y="-57.8" font-family="Times,serif" font-size="14.00">dep</text>
</g>
<!-- 10 -->
<g id="node11" class="node">
<title>10</title>
<ellipse fill="none" stroke="black" cx="804" cy="-18" rx="41.69" ry="18"/>
<text text-anchor="middle" x="804" y="-14.3" font-family="Times,serif" font-size="14.00">doutor</text>
</g>
<!-- 0&#45;&gt;10 -->
<g id="edge10" class="edge">
<title>0&#45;&gt;10</title>
<path fill="none" stroke="black" d="M1372.87,-103.96C1303.37,-103.41 1113.56,-99.02 959,-69 918.55,-61.14 873.93,-46.03 842.99,-34.47"/>
<polygon fill="black" stroke="black" points="844.04,-31.12 833.45,-30.85 841.56,-37.67 844.04,-31.12"/>
<text text-anchor="middle" x="972.5" y="-57.8" font-family="Times,serif" font-size="14.00">dep</text>
</g>
<!-- 11 -->
<g id="node12" class="node">
<title>11</title>
<ellipse fill="none" stroke="black" cx="894" cy="-18" rx="30.59" ry="18"/>
<text text-anchor="middle" x="894" y="-14.3" font-family="Times,serif" font-size="14.00">Luís</text>
</g>
<!-- 0&#45;&gt;11 -->
<g id="edge11" class="edge">
<title>0&#45;&gt;11</title>
<path fill="none" stroke="black" d="M1372.94,-102.78C1314.49,-99.8 1172.2,-90.77 1055,-69 1000.2,-58.82 986.66,-54.28 934,-36 931.63,-35.18 929.2,-34.28 926.77,-33.35"/>
<polygon fill="black" stroke="black" points="928.07,-30.1 917.48,-29.61 925.45,-36.59 928.07,-30.1"/>
<text text-anchor="middle" x="1068.5" y="-57.8" font-family="Times,serif" font-size="14.00">dep</text>
</g>
<!-- 12 -->
<g id="node13" class="node">
<title>12</title>
<ellipse fill="none" stroke="black" cx="980" cy="-18" rx="37.09" ry="18"/>
<text text-anchor="middle" x="980" y="-14.3" font-family="Times,serif" font-size="14.00">Filipe</text>
</g>
<!-- 0&#45;&gt;12 -->
<g id="edge12" class="edge">
<title>0&#45;&gt;12</title>
<path fill="none" stroke="black" d="M1373.29,-101.3C1327.51,-96.43 1231.24,-85.17 1151,-69 1094.67,-57.65 1080.79,-53.31 1026,-36 1023.26,-35.13 1020.44,-34.2 1017.62,-33.23"/>
<polygon fill="black" stroke="black" points="1018.67,-29.89 1008.07,-29.86 1016.33,-36.49 1018.67,-29.89"/>
<text text-anchor="middle" x="1164.5" y="-57.8" font-family="Times,serif" font-size="14.00">dep</text>
</g>
<!-- 13 -->
<g id="node14" class="node">
<title>13</title>
<ellipse fill="none" stroke="black" cx="1087" cy="-18" rx="51.99" ry="18"/>
<text text-anchor="middle" x="1087" y="-14.3" font-family="Times,serif" font-size="14.00">Menezes</text>
</g>
<!-- 0&#45;&gt;13 -->
<g id="edge13" class="edge">
<title>0&#45;&gt;13</title>
<path fill="none" stroke="black" d="M1373.96,-99.81C1340.2,-94.12 1279.67,-83.03 1229,-69 1194.98,-59.58 1157.33,-46.18 1129.35,-35.62"/>
<polygon fill="black" stroke="black" points="1130.47,-32.3 1119.87,-32.02 1127.98,-38.84 1130.47,-32.3"/>
<text text-anchor="middle" x="1242.5" y="-57.8" font-family="Times,serif" font-size="14.00">dep</text>
</g>
<!-- 14 -->
<g id="node15" class="node">
<title>14</title>
<ellipse fill="none" stroke="black" cx="1184" cy="-18" rx="27.1" ry="18"/>
<text text-anchor="middle" x="1184" y="-14.3" font-family="Times,serif" font-size="14.00">não</text>
</g>
<!-- 0&#45;&gt;14 -->
<g id="edge14" class="edge">
<title>0&#45;&gt;14</title>
<path fill="none" stroke="black" d="M1375.76,-96.76C1354.11,-90.11 1321.65,-79.7 1294,-69 1260.42,-56 1252.73,-51.02 1220,-36 1218.4,-35.27 1216.77,-34.51 1215.12,-33.74"/>
<polygon fill="black" stroke="black" points="1216.21,-30.39 1205.67,-29.32 1213.24,-36.73 1216.21,-30.39"/>
<text text-anchor="middle" x="1307.5" y="-57.8" font-family="Times,serif" font-size="14.00">dep</text>
</g>
<!-- 15 -->
<g id="node16" class="node">
<title>15</title>
<ellipse fill="none" stroke="black" cx="1266" cy="-18" rx="37.09" ry="18"/>
<text text-anchor="middle" x="1266" y="-14.3" font-family="Times,serif" font-size="14.00">tenho</text>
</g>
<!-- 0&#45;&gt;15 -->
<g id="edge15" class="edge">
<title>0&#45;&gt;15</title>
<path fill="none" stroke="black" d="M1381.09,-92C1359.14,-78.08 1322.66,-54.94 1296.65,-38.44"/>
<polygon fill="black" stroke="black" points="1298.25,-35.31 1287.93,-32.91 1294.5,-41.22 1298.25,-35.31"/>
<text text-anchor="middle" x="1355.5" y="-57.8" font-family="Times,serif" font-size="14.00">dep</text>
</g>
<!-- 16 -->
<g id="node17" class="node">
<title>16</title>
<ellipse fill="none" stroke="black" cx="1400" cy="-18" rx="78.79" ry="18"/>
<text text-anchor="middle" x="1400" y="-14.3" font-family="Times,serif" font-size="14.00">rigorosamente</text>
</g>
<!-- 0&#45;&gt;16 -->
<g id="edge16" class="edge">
<title>0&#45;&gt;16</title>
<path fill="none" stroke="black" d="M1400,-86.8C1400,-75.16 1400,-59.55 1400,-46.24"/>
<polygon fill="black" stroke="black" points="1403.5,-46.18 1400,-36.18 1396.5,-46.18 1403.5,-46.18"/>
<text text-anchor="middle" x="1413.5" y="-57.8" font-family="Times,serif" font-size="14.00">dep</text>
</g>
<!-- 17 -->
<g id="node18" class="node">
<title>17</title>
<ellipse fill="none" stroke="black" cx="1530" cy="-18" rx="33.29" ry="18"/>
<text text-anchor="middle" x="1530" y="-14.3" font-family="Times,serif" font-size="14.00">nada</text>
</g>
<!-- 0&#45;&gt;17 -->
<g id="edge17" class="edge">
<title>0&#45;&gt;17</title>
<path fill="none" stroke="black" d="M1418.63,-91.82C1440.23,-77.7 1476.1,-54.25 1501.28,-37.78"/>
<polygon fill="black" stroke="black" points="1503.24,-40.68 1509.7,-32.28 1499.41,-34.82 1503.24,-40.68"/>
<text text-anchor="middle" x="1486.5" y="-57.8" font-family="Times,serif" font-size="14.00">dep</text>
</g>
<!-- 18 -->
<g id="node19" class="node">
<title>18</title>
<ellipse fill="none" stroke="black" cx="1608" cy="-18" rx="27" ry="18"/>
<text text-anchor="middle" x="1608" y="-14.3" font-family="Times,serif" font-size="14.00">a</text>
</g>
<!-- 0&#45;&gt;18 -->
<g id="edge18" class="edge">
<title>0&#45;&gt;18</title>
<path fill="none" stroke="black" d="M1424.27,-96.77C1445.54,-90.21 1477.18,-79.91 1504,-69 1529.47,-58.64 1557.53,-45.01 1578.07,-34.6"/>
<polygon fill="black" stroke="black" points="1579.92,-37.59 1587.23,-29.93 1576.73,-31.36 1579.92,-37.59"/>
<text text-anchor="middle" x="1549.5" y="-57.8" font-family="Times,serif" font-size="14.00">dep</text>
</g>
<!-- 19 -->
<g id="node20" class="node">
<title>19</title>
<ellipse fill="none" stroke="black" cx="1687" cy="-18" rx="34.39" ry="18"/>
<text text-anchor="middle" x="1687" y="-14.3" font-family="Times,serif" font-size="14.00">dizer</text>
</g>
<!-- 0&#45;&gt;19 -->
<g id="edge19" class="edge">
<title>0&#45;&gt;19</title>
<path fill="none" stroke="black" d="M1426.13,-100.09C1459.34,-94.76 1518.19,-84.13 1567,-69 1596.75,-59.78 1629.29,-45.97 1652.97,-35.2"/>
<polygon fill="black" stroke="black" points="1654.6,-38.3 1662.23,-30.94 1651.68,-31.94 1654.6,-38.3"/>
<text text-anchor="middle" x="1621.5" y="-57.8" font-family="Times,serif" font-size="14.00">dep</text>
</g>
<!-- 20 -->
<g id="node21" class="node">
<title>20</title>
<ellipse fill="none" stroke="black" cx="1766" cy="-18" rx="27" ry="18"/>
<text text-anchor="middle" x="1766" y="-14.3" font-family="Times,serif" font-size="14.00">,</text>
</g>
<!-- 0&#45;&gt;20 -->
<g id="edge20" class="edge">
<title>0&#45;&gt;20</title>
<path fill="none" stroke="black" d="M1426.87,-101.85C1471.47,-97.89 1563.36,-88.04 1639,-69 1672.88,-60.47 1709.86,-45.18 1735.13,-33.75"/>
<polygon fill="black" stroke="black" points="1736.91,-36.78 1744.54,-29.42 1733.99,-30.42 1736.91,-36.78"/>
<text text-anchor="middle" x="1699.5" y="-57.8" font-family="Times,serif" font-size="14.00">dep</text>
</g>
<!-- 21 -->
<g id="node22" class="node">
<title>21</title>
<ellipse fill="none" stroke="black" cx="1855" cy="-18" rx="43.59" ry="18"/>
<text text-anchor="middle" x="1855" y="-14.3" font-family="Times,serif" font-size="14.00">porque</text>
</g>
<!-- 0&#45;&gt;21 -->
<g id="edge21" class="edge">
<title>0&#45;&gt;21</title>
<path fill="none" stroke="black" d="M1427.08,-103.17C1482.3,-101.02 1611.57,-93.55 1717,-69 1751.59,-60.94 1789.43,-46.84 1816.72,-35.66"/>
<polygon fill="black" stroke="black" points="1818.38,-38.76 1826.27,-31.69 1815.69,-32.3 1818.38,-38.76"/>
<text text-anchor="middle" x="1781.5" y="-57.8" font-family="Times,serif" font-size="14.00">dep</text>
</g>
<!-- 22 -->
<g id="node23" class="node">
<title>22</title>
<ellipse fill="none" stroke="black" cx="1954" cy="-18" rx="37.09" ry="18"/>
<text text-anchor="middle" x="1954" y="-14.3" font-family="Times,serif" font-size="14.00">tenho</text>
</g>
<!-- 0&#45;&gt;22 -->
<g id="edge22" class="edge">
<title>0&#45;&gt;22</title>
<path fill="none" stroke="black" d="M1427.36,-103.54C1492.39,-102.03 1661.08,-95.63 1799,-69 1840.33,-61.02 1886.02,-45.41 1917.01,-33.74"/>
<polygon fill="black" stroke="black" points="1918.44,-36.94 1926.53,-30.11 1915.94,-30.41 1918.44,-36.94"/>
<text text-anchor="middle" x="1869.5" y="-57.8" font-family="Times,serif" font-size="14.00">dep</text>
</g>
<!-- 23 -->
<g id="node24" class="node">
<title>23</title>
<ellipse fill="none" stroke="black" cx="2042" cy="-18" rx="32.49" ry="18"/>
<text text-anchor="middle" x="2042" y="-14.3" font-family="Times,serif" font-size="14.00">mais</text>
</g>
<!-- 0&#45;&gt;23 -->
<g id="edge23" class="edge">
<title>0&#45;&gt;23</title>
<path fill="none" stroke="black" d="M1427.18,-104.06C1501.45,-103.79 1713.89,-100.13 1887,-69 1938.49,-59.74 1950.58,-53.17 2000,-36 2002.41,-35.16 2004.87,-34.27 2007.35,-33.34"/>
<polygon fill="black" stroke="black" points="2008.78,-36.54 2016.84,-29.66 2006.25,-30.01 2008.78,-36.54"/>
<text text-anchor="middle" x="1962.5" y="-57.8" font-family="Times,serif" font-size="14.00">dep</text>
</g>
<!-- 24 -->
<g id="node25" class="node">
<title>24</title>
<ellipse fill="none" stroke="black" cx="2122" cy="-18" rx="29.8" ry="18"/>
<text text-anchor="middle" x="2122" y="-14.3" font-family="Times,serif" font-size="14.00">com</text>
</g>
<!-- 0&#45;&gt;24 -->
<g id="edge24" class="edge">
<title>0&#45;&gt;24</title>
<path fill="none" stroke="black" d="M1427.06,-103.26C1526.53,-100.42 1871.8,-89.27 1980,-69 2018.84,-61.73 2061.32,-45.61 2089.61,-33.63"/>
<polygon fill="black" stroke="black" points="2091.19,-36.75 2098.99,-29.58 2088.42,-30.33 2091.19,-36.75"/>
<text text-anchor="middle" x="2049.5" y="-57.8" font-family="Times,serif" font-size="14.00">dep</text>
</g>
<!-- 25 -->
<g id="node26" class="node">
<title>25</title>
<ellipse fill="none" stroke="black" cx="2198" cy="-18" rx="27.9" ry="18"/>
<text text-anchor="middle" x="2198" y="-14.3" font-family="Times,serif" font-size="14.00">que</text>
</g>
<!-- 0&#45;&gt;25 -->
<g id="edge25" class="edge">
<title>0&#45;&gt;25</title>
<path fill="none" stroke="black" d="M1426.94,-103.61C1535.54,-101.87 1941.3,-93.83 2067,-69 2102.58,-61.97 2141.11,-46.19 2167.11,-34.23"/>
<polygon fill="black" stroke="black" points="2168.86,-37.27 2176.43,-29.85 2165.89,-30.93 2168.86,-37.27"/>
<text text-anchor="middle" x="2132.5" y="-57.8" font-family="Times,serif" font-size="14.00">dep</text>
</g>
<!-- 26 -->
<g id="node27" class="node">
<title>26</title>
<ellipse fill="none" stroke="black" cx="2271" cy="-18" rx="27" ry="18"/>
<text text-anchor="middle" x="2271" y="-14.3" font-family="Times,serif" font-size="14.00">me</text>
</g>
<!-- 0&#45;&gt;26 -->
<g id="edge26" class="edge">
<title>0&#45;&gt;26</title>
<path fill="none" stroke="black" d="M1427.09,-103.9C1544.24,-103.31 2007.81,-99.08 2150,-69 2182.64,-62.09 2217.63,-46.67 2241.54,-34.77"/>
<polygon fill="black" stroke="black" points="2243.43,-37.73 2250.76,-30.08 2240.26,-31.49 2243.43,-37.73"/>
<text text-anchor="middle" x="2211.5" y="-57.8" font-family="Times,serif" font-size="14.00">dep</text>
</g>
<!-- 27 -->
<g id="node28" class="node">
<title>27</title>
<ellipse fill="none" stroke="black" cx="2374" cy="-18" rx="57.69" ry="18"/>
<text text-anchor="middle" x="2374" y="-14.3" font-family="Times,serif" font-size="14.00">preocupar</text>
</g>
<!-- 0&#45;&gt;27 -->
<g id="edge27" class="edge">
<title>0&#45;&gt;27</title>
<path fill="none" stroke="black" d="M1427.35,-103.91C1552.36,-103.32 2070.12,-99.08 2229,-69 2264.81,-62.22 2303.77,-48.4 2332.28,-37"/>
<polygon fill="black" stroke="black" points="2333.97,-40.1 2341.91,-33.09 2331.33,-33.61 2333.97,-40.1"/>
<text text-anchor="middle" x="2295.5" y="-57.8" font-family="Times,serif" font-size="14.00">dep</text>
</g>
<!-- 28 -->
<g id="node29" class="node">
<title>28</title>
<ellipse fill="none" stroke="black" cx="2477" cy="-18" rx="27" ry="18"/>
<text text-anchor="middle" x="2477" y="-14.3" font-family="Times,serif" font-size="14.00">»</text>
</g>
<!-- 0&#45;&gt;28 -->
<g id="edge28" class="edge">
<title>0&#45;&gt;28</title>
<path fill="none" stroke="black" d="M1427.37,-103.74C1559.88,-102.36 2135.64,-94.96 2313,-69 2371.13,-60.49 2385.75,-55.97 2441,-36 2442.85,-35.33 2444.74,-34.6 2446.63,-33.83"/>
<polygon fill="black" stroke="black" points="2448.2,-36.96 2455.96,-29.75 2445.4,-30.55 2448.2,-36.96"/>
<text text-anchor="middle" x="2400.5" y="-57.8" font-family="Times,serif" font-size="14.00">dep</text>
</g>
<!-- 29 -->
<g id="node30" class="node">
<title>29</title>
<ellipse fill="none" stroke="black" cx="2549" cy="-18" rx="27" ry="18"/>
<text text-anchor="middle" x="2549" y="-14.3" font-family="Times,serif" font-size="14.00">,</text>
</g>
<!-- 0&#45;&gt;29 -->
<g id="edge29" class="edge">
<title>0&#45;&gt;29</title>
<path fill="none" stroke="black" d="M1427.22,-104.16C1568.59,-104.85 2220.03,-105.91 2418,-69 2453.86,-62.31 2492.63,-46.32 2518.61,-34.21"/>
<polygon fill="black" stroke="black" points="2520.38,-37.24 2527.91,-29.79 2517.37,-30.92 2520.38,-37.24"/>
<text text-anchor="middle" x="2483.5" y="-57.8" font-family="Times,serif" font-size="14.00">dep</text>
</g>
<!-- 30 -->
<g id="node31" class="node">
<title>30</title>
<ellipse fill="none" stroke="black" cx="2628" cy="-18" rx="34.39" ry="18"/>
<text text-anchor="middle" x="2628" y="-14.3" font-family="Times,serif" font-size="14.00">disse</text>
</g>
<!-- 0&#45;&gt;30 -->
<g id="edge30" class="edge">
<title>0&#45;&gt;30</title>
<path fill="none" stroke="black" d="M1427.12,-103.69C1586.04,-101.81 2393,-91.24 2501,-69 2534.34,-62.14 2570.25,-47.23 2595.35,-35.47"/>
<polygon fill="black" stroke="black" points="2596.9,-38.61 2604.41,-31.14 2593.88,-32.3 2596.9,-38.61"/>
<text text-anchor="middle" x="2565.5" y="-57.8" font-family="Times,serif" font-size="14.00">dep</text>
</g>
<!-- 31 -->
<g id="node32" class="node">
<title>31</title>
<ellipse fill="none" stroke="black" cx="2707" cy="-18" rx="27" ry="18"/>
<text text-anchor="middle" x="2707" y="-14.3" font-family="Times,serif" font-size="14.00">.</text>
</g>
<!-- 0&#45;&gt;31 -->
<g id="edge31" class="edge">
<title>0&#45;&gt;31</title>
<path fill="none" stroke="black" d="M1426.96,-103.73C1592.32,-102.02 2466.25,-91.96 2583,-69 2616.78,-62.36 2653.04,-46.63 2677.57,-34.57"/>
<polygon fill="black" stroke="black" points="2679.31,-37.61 2686.68,-30 2676.17,-31.36 2679.31,-37.61"/>
<text text-anchor="middle" x="2646.5" y="-57.8" font-family="Times,serif" font-size="14.00">dep</text>
</g>
</g>
</svg>
