<?xml version="1.0" encoding="UTF-8" standalone="no"?>
<!DOCTYPE svg PUBLIC "-//W3C//DTD SVG 1.1//EN"
 "http://www.w3.org/Graphics/SVG/1.1/DTD/svg11.dtd">
<!-- Generated by graphviz version 2.42.4 (0)
 -->
<!-- Pages: 1 -->
<svg width="3192pt" height="131pt"
 viewBox="0.00 0.00 3192.35 131.00" xmlns="http://www.w3.org/2000/svg" xmlns:xlink="http://www.w3.org/1999/xlink">
<g id="graph0" class="graph" transform="scale(1 1) rotate(0) translate(4 127)">
<polygon fill="white" stroke="transparent" points="-4,4 -4,-127 3188.35,-127 3188.35,4 -4,4"/>
<!-- 0 -->
<g id="node1" class="node">
<title>0</title>
<ellipse fill="none" stroke="black" cx="1593.35" cy="-105" rx="42.49" ry="18"/>
<text text-anchor="middle" x="1593.35" y="-101.3" font-family="Times,serif" font-size="14.00">Ambos</text>
</g>
<!-- 1 -->
<g id="node2" class="node">
<title>1</title>
<ellipse fill="none" stroke="black" cx="51.35" cy="-18" rx="51.19" ry="18"/>
<text text-anchor="middle" x="51.35" y="-14.3" font-family="Times,serif" font-size="14.00">apontam</text>
</g>
<!-- 0&#45;&gt;1 -->
<g id="edge1" class="edge">
<title>0&#45;&gt;1</title>
<path fill="none" stroke="black" d="M1551.19,-103.68C1333,-101.94 336.92,-92.75 201.35,-69 163.33,-62.34 121.82,-47.91 92.13,-36.26"/>
<polygon fill="black" stroke="black" points="93.12,-32.89 82.53,-32.43 90.52,-39.39 93.12,-32.89"/>
<text text-anchor="middle" x="214.85" y="-57.8" font-family="Times,serif" font-size="14.00">dep</text>
</g>
<!-- 2 -->
<g id="node3" class="node">
<title>2</title>
<ellipse fill="none" stroke="black" cx="147.35" cy="-18" rx="27" ry="18"/>
<text text-anchor="middle" x="147.35" y="-14.3" font-family="Times,serif" font-size="14.00">o</text>
</g>
<!-- 0&#45;&gt;2 -->
<g id="edge2" class="edge">
<title>0&#45;&gt;2</title>
<path fill="none" stroke="black" d="M1550.95,-103.52C1341.31,-101.04 420.57,-89.11 294.35,-69 243.52,-60.9 231.42,-54.37 183.35,-36 181.51,-35.3 179.63,-34.54 177.75,-33.75"/>
<polygon fill="black" stroke="black" points="178.99,-30.47 168.43,-29.61 176.15,-36.87 178.99,-30.47"/>
<text text-anchor="middle" x="307.85" y="-57.8" font-family="Times,serif" font-size="14.00">dep</text>
</g>
<!-- 3 -->
<g id="node4" class="node">
<title>3</title>
<ellipse fill="none" stroke="black" cx="228.35" cy="-18" rx="36" ry="18"/>
<text text-anchor="middle" x="228.35" y="-14.3" font-family="Times,serif" font-size="14.00">baixo</text>
</g>
<!-- 0&#45;&gt;3 -->
<g id="edge3" class="edge">
<title>0&#45;&gt;3</title>
<path fill="none" stroke="black" d="M1551.11,-104.22C1365.09,-104.95 617.75,-105.53 386.35,-69 343.39,-62.22 296.08,-46.02 264.53,-33.88"/>
<polygon fill="black" stroke="black" points="265.46,-30.48 254.87,-30.1 262.91,-37 265.46,-30.48"/>
<text text-anchor="middle" x="399.85" y="-57.8" font-family="Times,serif" font-size="14.00">dep</text>
</g>
<!-- 4 -->
<g id="node5" class="node">
<title>4</title>
<ellipse fill="none" stroke="black" cx="326.35" cy="-18" rx="44.39" ry="18"/>
<text text-anchor="middle" x="326.35" y="-14.3" font-family="Times,serif" font-size="14.00">volume</text>
</g>
<!-- 0&#45;&gt;4 -->
<g id="edge4" class="edge">
<title>0&#45;&gt;4</title>
<path fill="none" stroke="black" d="M1550.95,-104.32C1373.23,-105.43 687.63,-107.09 475.35,-69 436.86,-62.09 394.77,-47.25 365.17,-35.52"/>
<polygon fill="black" stroke="black" points="366.22,-32.17 355.64,-31.68 363.61,-38.67 366.22,-32.17"/>
<text text-anchor="middle" x="488.85" y="-57.8" font-family="Times,serif" font-size="14.00">dep</text>
</g>
<!-- 5 -->
<g id="node6" class="node">
<title>5</title>
<ellipse fill="none" stroke="black" cx="415.35" cy="-18" rx="27" ry="18"/>
<text text-anchor="middle" x="415.35" y="-14.3" font-family="Times,serif" font-size="14.00">de</text>
</g>
<!-- 0&#45;&gt;5 -->
<g id="edge5" class="edge">
<title>0&#45;&gt;5</title>
<path fill="none" stroke="black" d="M1551.06,-103.77C1384.23,-102.66 771.44,-96.74 579.35,-69 521.2,-60.6 506.6,-55.97 451.35,-36 449.49,-35.33 447.61,-34.6 445.72,-33.83"/>
<polygon fill="black" stroke="black" points="446.95,-30.55 436.38,-29.75 444.14,-36.96 446.95,-30.55"/>
<text text-anchor="middle" x="592.85" y="-57.8" font-family="Times,serif" font-size="14.00">dep</text>
</g>
<!-- 6 -->
<g id="node7" class="node">
<title>6</title>
<ellipse fill="none" stroke="black" cx="512.35" cy="-18" rx="51.99" ry="18"/>
<text text-anchor="middle" x="512.35" y="-14.3" font-family="Times,serif" font-size="14.00">captação</text>
</g>
<!-- 0&#45;&gt;6 -->
<g id="edge6" class="edge">
<title>0&#45;&gt;6</title>
<path fill="none" stroke="black" d="M1550.92,-103.95C1393.04,-103.52 839.68,-99.8 666.35,-69 627.26,-62.06 584.44,-47.56 553.89,-35.95"/>
<polygon fill="black" stroke="black" points="555.01,-32.64 544.42,-32.3 552.49,-39.17 555.01,-32.64"/>
<text text-anchor="middle" x="679.85" y="-57.8" font-family="Times,serif" font-size="14.00">dep</text>
</g>
<!-- 7 -->
<g id="node8" class="node">
<title>7</title>
<ellipse fill="none" stroke="black" cx="609.35" cy="-18" rx="27" ry="18"/>
<text text-anchor="middle" x="609.35" y="-14.3" font-family="Times,serif" font-size="14.00">de</text>
</g>
<!-- 0&#45;&gt;7 -->
<g id="edge7" class="edge">
<title>0&#45;&gt;7</title>
<path fill="none" stroke="black" d="M1551.13,-103.45C1404.94,-101.34 920.81,-92.71 767.35,-69 711.83,-60.42 698.06,-55.4 645.35,-36 643.5,-35.32 641.61,-34.58 639.73,-33.8"/>
<polygon fill="black" stroke="black" points="640.96,-30.52 630.4,-29.7 638.15,-36.93 640.96,-30.52"/>
<text text-anchor="middle" x="780.85" y="-57.8" font-family="Times,serif" font-size="14.00">dep</text>
</g>
<!-- 8 -->
<g id="node9" class="node">
<title>8</title>
<ellipse fill="none" stroke="black" cx="705.35" cy="-18" rx="50.89" ry="18"/>
<text text-anchor="middle" x="705.35" y="-14.3" font-family="Times,serif" font-size="14.00">recursos</text>
</g>
<!-- 0&#45;&gt;8 -->
<g id="edge8" class="edge">
<title>0&#45;&gt;8</title>
<path fill="none" stroke="black" d="M1550.87,-103.59C1414.07,-102 986.05,-95.04 850.35,-69 813.81,-61.99 773.97,-47.74 745.31,-36.24"/>
<polygon fill="black" stroke="black" points="746.62,-33 736.04,-32.46 743.98,-39.48 746.62,-33"/>
<text text-anchor="middle" x="863.85" y="-57.8" font-family="Times,serif" font-size="14.00">dep</text>
</g>
<!-- 9 -->
<g id="node10" class="node">
<title>9</title>
<ellipse fill="none" stroke="black" cx="804.35" cy="-18" rx="29.8" ry="18"/>
<text text-anchor="middle" x="804.35" y="-14.3" font-family="Times,serif" font-size="14.00">com</text>
</g>
<!-- 0&#45;&gt;9 -->
<g id="edge9" class="edge">
<title>0&#45;&gt;9</title>
<path fill="none" stroke="black" d="M1551.09,-103.45C1424.62,-101.54 1050.49,-93.87 931.35,-69 897.41,-61.92 860.78,-46.6 835.62,-34.77"/>
<polygon fill="black" stroke="black" points="837.1,-31.6 826.57,-30.43 834.08,-37.91 837.1,-31.6"/>
<text text-anchor="middle" x="944.85" y="-57.8" font-family="Times,serif" font-size="14.00">dep</text>
</g>
<!-- 10 -->
<g id="node11" class="node">
<title>10</title>
<ellipse fill="none" stroke="black" cx="879.35" cy="-18" rx="27" ry="18"/>
<text text-anchor="middle" x="879.35" y="-14.3" font-family="Times,serif" font-size="14.00">a</text>
</g>
<!-- 0&#45;&gt;10 -->
<g id="edge10" class="edge">
<title>0&#45;&gt;10</title>
<path fill="none" stroke="black" d="M1551.4,-102.82C1436.75,-99.39 1119.85,-88.37 1017.35,-69 970.53,-60.15 959.65,-53.54 915.35,-36 913.51,-35.27 911.64,-34.5 909.77,-33.7"/>
<polygon fill="black" stroke="black" points="911.02,-30.42 900.47,-29.53 908.16,-36.81 911.02,-30.42"/>
<text text-anchor="middle" x="1030.85" y="-57.8" font-family="Times,serif" font-size="14.00">dep</text>
</g>
<!-- 11 -->
<g id="node12" class="node">
<title>11</title>
<ellipse fill="none" stroke="black" cx="962.35" cy="-18" rx="38.19" ry="18"/>
<text text-anchor="middle" x="962.35" y="-14.3" font-family="Times,serif" font-size="14.00">venda</text>
</g>
<!-- 0&#45;&gt;11 -->
<g id="edge11" class="edge">
<title>0&#45;&gt;11</title>
<path fill="none" stroke="black" d="M1551.21,-102.58C1447.62,-98.85 1182.67,-87.74 1096.35,-69 1061.77,-61.5 1024.16,-46.85 997.62,-35.34"/>
<polygon fill="black" stroke="black" points="998.93,-32.1 988.36,-31.27 996.1,-38.5 998.93,-32.1"/>
<text text-anchor="middle" x="1109.85" y="-57.8" font-family="Times,serif" font-size="14.00">dep</text>
</g>
<!-- 12 -->
<g id="node13" class="node">
<title>12</title>
<ellipse fill="none" stroke="black" cx="1045.35" cy="-18" rx="27" ry="18"/>
<text text-anchor="middle" x="1045.35" y="-14.3" font-family="Times,serif" font-size="14.00">de</text>
</g>
<!-- 0&#45;&gt;12 -->
<g id="edge12" class="edge">
<title>0&#45;&gt;12</title>
<path fill="none" stroke="black" d="M1551.07,-103.65C1475.91,-102.32 1314.44,-96.22 1181.35,-69 1135.49,-59.62 1124.81,-53.36 1081.35,-36 1079.52,-35.27 1077.65,-34.49 1075.77,-33.68"/>
<polygon fill="black" stroke="black" points="1077.03,-30.41 1066.48,-29.51 1074.16,-36.8 1077.03,-30.41"/>
<text text-anchor="middle" x="1194.85" y="-57.8" font-family="Times,serif" font-size="14.00">dep</text>
</g>
<!-- 13 -->
<g id="node14" class="node">
<title>13</title>
<ellipse fill="none" stroke="black" cx="1126.35" cy="-18" rx="36.29" ry="18"/>
<text text-anchor="middle" x="1126.35" y="-14.3" font-family="Times,serif" font-size="14.00">CDBs</text>
</g>
<!-- 0&#45;&gt;13 -->
<g id="edge13" class="edge">
<title>0&#45;&gt;13</title>
<path fill="none" stroke="black" d="M1551.39,-102.88C1487.87,-100.45 1363.81,-92.8 1261.35,-69 1226.44,-60.89 1188.28,-46.18 1161.47,-34.81"/>
<polygon fill="black" stroke="black" points="1162.7,-31.52 1152.13,-30.78 1159.93,-37.95 1162.7,-31.52"/>
<text text-anchor="middle" x="1274.85" y="-57.8" font-family="Times,serif" font-size="14.00">dep</text>
</g>
<!-- 14 -->
<g id="node15" class="node">
<title>14</title>
<ellipse fill="none" stroke="black" cx="1207.35" cy="-18" rx="27" ry="18"/>
<text text-anchor="middle" x="1207.35" y="-14.3" font-family="Times,serif" font-size="14.00">a</text>
</g>
<!-- 0&#45;&gt;14 -->
<g id="edge14" class="edge">
<title>0&#45;&gt;14</title>
<path fill="none" stroke="black" d="M1552.4,-100.48C1502.72,-95.69 1416.64,-85.75 1344.35,-69 1298.34,-58.34 1287.23,-53.45 1243.35,-36 1241.51,-35.27 1239.65,-34.5 1237.77,-33.69"/>
<polygon fill="black" stroke="black" points="1239.03,-30.42 1228.47,-29.52 1236.16,-36.8 1239.03,-30.42"/>
<text text-anchor="middle" x="1357.85" y="-57.8" font-family="Times,serif" font-size="14.00">dep</text>
</g>
<!-- 15 -->
<g id="node16" class="node">
<title>15</title>
<ellipse fill="none" stroke="black" cx="1279.35" cy="-18" rx="27" ry="18"/>
<text text-anchor="middle" x="1279.35" y="-14.3" font-family="Times,serif" font-size="14.00">os</text>
</g>
<!-- 0&#45;&gt;15 -->
<g id="edge15" class="edge">
<title>0&#45;&gt;15</title>
<path fill="none" stroke="black" d="M1554.87,-97.14C1500.55,-86.88 1398.71,-65.54 1315.35,-36 1313.44,-35.32 1311.5,-34.58 1309.56,-33.8"/>
<polygon fill="black" stroke="black" points="1310.55,-30.41 1299.99,-29.62 1307.75,-36.83 1310.55,-30.41"/>
<text text-anchor="middle" x="1434.85" y="-57.8" font-family="Times,serif" font-size="14.00">dep</text>
</g>
<!-- 16 -->
<g id="node17" class="node">
<title>16</title>
<ellipse fill="none" stroke="black" cx="1392.35" cy="-18" rx="67.69" ry="18"/>
<text text-anchor="middle" x="1392.35" y="-14.3" font-family="Times,serif" font-size="14.00">investidores</text>
</g>
<!-- 0&#45;&gt;16 -->
<g id="edge16" class="edge">
<title>0&#45;&gt;16</title>
<path fill="none" stroke="black" d="M1564.55,-91.82C1531.02,-77.64 1475.29,-54.08 1436.34,-37.6"/>
<polygon fill="black" stroke="black" points="1437.39,-34.25 1426.82,-33.58 1434.67,-40.7 1437.39,-34.25"/>
<text text-anchor="middle" x="1518.85" y="-57.8" font-family="Times,serif" font-size="14.00">dep</text>
</g>
<!-- 17 -->
<g id="node18" class="node">
<title>17</title>
<ellipse fill="none" stroke="black" cx="1513.35" cy="-18" rx="35.19" ry="18"/>
<text text-anchor="middle" x="1513.35" y="-14.3" font-family="Times,serif" font-size="14.00">como</text>
</g>
<!-- 0&#45;&gt;17 -->
<g id="edge17" class="edge">
<title>0&#45;&gt;17</title>
<path fill="none" stroke="black" d="M1578.3,-88.01C1566.15,-75.11 1548.9,-56.78 1535.23,-42.25"/>
<polygon fill="black" stroke="black" points="1537.46,-39.51 1528.06,-34.63 1532.36,-44.31 1537.46,-39.51"/>
<text text-anchor="middle" x="1571.85" y="-57.8" font-family="Times,serif" font-size="14.00">dep</text>
</g>
<!-- 18 -->
<g id="node19" class="node">
<title>18</title>
<ellipse fill="none" stroke="black" cx="1593.35" cy="-18" rx="27" ry="18"/>
<text text-anchor="middle" x="1593.35" y="-14.3" font-family="Times,serif" font-size="14.00">o</text>
</g>
<!-- 0&#45;&gt;18 -->
<g id="edge18" class="edge">
<title>0&#45;&gt;18</title>
<path fill="none" stroke="black" d="M1593.35,-86.8C1593.35,-75.16 1593.35,-59.55 1593.35,-46.24"/>
<polygon fill="black" stroke="black" points="1596.85,-46.18 1593.35,-36.18 1589.85,-46.18 1596.85,-46.18"/>
<text text-anchor="middle" x="1606.85" y="-57.8" font-family="Times,serif" font-size="14.00">dep</text>
</g>
<!-- 19 -->
<g id="node20" class="node">
<title>19</title>
<ellipse fill="none" stroke="black" cx="1690.35" cy="-18" rx="51.99" ry="18"/>
<text text-anchor="middle" x="1690.35" y="-14.3" font-family="Times,serif" font-size="14.00">principal</text>
</g>
<!-- 0&#45;&gt;19 -->
<g id="edge19" class="edge">
<title>0&#45;&gt;19</title>
<path fill="none" stroke="black" d="M1611.14,-88.41C1625.99,-75.39 1647.37,-56.66 1664.17,-41.93"/>
<polygon fill="black" stroke="black" points="1666.79,-44.29 1672.01,-35.07 1662.18,-39.03 1666.79,-44.29"/>
<text text-anchor="middle" x="1661.85" y="-57.8" font-family="Times,serif" font-size="14.00">dep</text>
</g>
<!-- 20 -->
<g id="node21" class="node">
<title>20</title>
<ellipse fill="none" stroke="black" cx="1793.35" cy="-18" rx="33.29" ry="18"/>
<text text-anchor="middle" x="1793.35" y="-14.3" font-family="Times,serif" font-size="14.00">fator</text>
</g>
<!-- 0&#45;&gt;20 -->
<g id="edge20" class="edge">
<title>0&#45;&gt;20</title>
<path fill="none" stroke="black" d="M1623.28,-92.05C1639.85,-85.37 1660.79,-76.85 1679.35,-69 1706.34,-57.59 1736.73,-44.23 1759.34,-34.2"/>
<polygon fill="black" stroke="black" points="1760.81,-37.38 1768.52,-30.12 1757.96,-30.98 1760.81,-37.38"/>
<text text-anchor="middle" x="1727.85" y="-57.8" font-family="Times,serif" font-size="14.00">dep</text>
</g>
<!-- 21 -->
<g id="node22" class="node">
<title>21</title>
<ellipse fill="none" stroke="black" cx="1871.35" cy="-18" rx="27" ry="18"/>
<text text-anchor="middle" x="1871.35" y="-14.3" font-family="Times,serif" font-size="14.00">de</text>
</g>
<!-- 0&#45;&gt;21 -->
<g id="edge21" class="edge">
<title>0&#45;&gt;21</title>
<path fill="none" stroke="black" d="M1631.17,-96.66C1662.13,-90.33 1706.93,-80.42 1745.35,-69 1786.18,-56.86 1796.04,-52.45 1835.35,-36 1837.16,-35.24 1839.02,-34.44 1840.89,-33.61"/>
<polygon fill="black" stroke="black" points="1842.52,-36.72 1850.17,-29.39 1839.62,-30.35 1842.52,-36.72"/>
<text text-anchor="middle" x="1804.85" y="-57.8" font-family="Times,serif" font-size="14.00">dep</text>
</g>
<!-- 22 -->
<g id="node23" class="node">
<title>22</title>
<ellipse fill="none" stroke="black" cx="1984.35" cy="-18" rx="67.69" ry="18"/>
<text text-anchor="middle" x="1984.35" y="-14.3" font-family="Times,serif" font-size="14.00">insegurança</text>
</g>
<!-- 0&#45;&gt;22 -->
<g id="edge22" class="edge">
<title>0&#45;&gt;22</title>
<path fill="none" stroke="black" d="M1633.81,-99.65C1679.84,-94.28 1757.08,-83.97 1822.35,-69 1861.08,-60.11 1904.03,-46.69 1935.96,-35.99"/>
<polygon fill="black" stroke="black" points="1937.15,-39.28 1945.5,-32.76 1934.91,-32.65 1937.15,-39.28"/>
<text text-anchor="middle" x="1890.85" y="-57.8" font-family="Times,serif" font-size="14.00">dep</text>
</g>
<!-- 23 -->
<g id="node24" class="node">
<title>23</title>
<ellipse fill="none" stroke="black" cx="2097.35" cy="-18" rx="27" ry="18"/>
<text text-anchor="middle" x="2097.35" y="-14.3" font-family="Times,serif" font-size="14.00">de</text>
</g>
<!-- 0&#45;&gt;23 -->
<g id="edge23" class="edge">
<title>0&#45;&gt;23</title>
<path fill="none" stroke="black" d="M1634.55,-100.77C1694.9,-95.73 1810.73,-84.91 1908.35,-69 1977,-57.81 1995.46,-58.33 2061.35,-36 2063.26,-35.35 2065.21,-34.63 2067.15,-33.86"/>
<polygon fill="black" stroke="black" points="2068.95,-36.9 2076.74,-29.72 2066.17,-30.47 2068.95,-36.9"/>
<text text-anchor="middle" x="2012.85" y="-57.8" font-family="Times,serif" font-size="14.00">dep</text>
</g>
<!-- 24 -->
<g id="node25" class="node">
<title>24</title>
<ellipse fill="none" stroke="black" cx="2169.35" cy="-18" rx="27" ry="18"/>
<text text-anchor="middle" x="2169.35" y="-14.3" font-family="Times,serif" font-size="14.00">os</text>
</g>
<!-- 0&#45;&gt;24 -->
<g id="edge24" class="edge">
<title>0&#45;&gt;24</title>
<path fill="none" stroke="black" d="M1635.67,-103.83C1714.21,-102.8 1887.54,-97.2 2030.35,-69 2077.5,-59.69 2088.63,-53.63 2133.35,-36 2135.18,-35.28 2137.05,-34.5 2138.93,-33.7"/>
<polygon fill="black" stroke="black" points="2140.53,-36.82 2148.23,-29.54 2137.67,-30.43 2140.53,-36.82"/>
<text text-anchor="middle" x="2099.85" y="-57.8" font-family="Times,serif" font-size="14.00">dep</text>
</g>
<!-- 25 -->
<g id="node26" class="node">
<title>25</title>
<ellipse fill="none" stroke="black" cx="2257.35" cy="-18" rx="42.79" ry="18"/>
<text text-anchor="middle" x="2257.35" y="-14.3" font-family="Times,serif" font-size="14.00">bancos</text>
</g>
<!-- 0&#45;&gt;25 -->
<g id="edge25" class="edge">
<title>0&#45;&gt;25</title>
<path fill="none" stroke="black" d="M1635.37,-102.69C1742.81,-99.1 2025.51,-88.08 2117.35,-69 2153.06,-61.58 2192.01,-47.11 2219.74,-35.64"/>
<polygon fill="black" stroke="black" points="2221.19,-38.83 2229.06,-31.72 2218.48,-32.37 2221.19,-38.83"/>
<text text-anchor="middle" x="2182.85" y="-57.8" font-family="Times,serif" font-size="14.00">dep</text>
</g>
<!-- 26 -->
<g id="node27" class="node">
<title>26</title>
<ellipse fill="none" stroke="black" cx="2345.35" cy="-18" rx="27" ry="18"/>
<text text-anchor="middle" x="2345.35" y="-14.3" font-family="Times,serif" font-size="14.00">em</text>
</g>
<!-- 0&#45;&gt;26 -->
<g id="edge26" class="edge">
<title>0&#45;&gt;26</title>
<path fill="none" stroke="black" d="M1635.38,-102.87C1754.28,-99.46 2091.48,-88.34 2200.35,-69 2250.18,-60.15 2262.11,-54.19 2309.35,-36 2311.18,-35.29 2313.06,-34.53 2314.94,-33.74"/>
<polygon fill="black" stroke="black" points="2316.54,-36.86 2324.25,-29.59 2313.69,-30.46 2316.54,-36.86"/>
<text text-anchor="middle" x="2274.85" y="-57.8" font-family="Times,serif" font-size="14.00">dep</text>
</g>
<!-- 27 -->
<g id="node28" class="node">
<title>27</title>
<ellipse fill="none" stroke="black" cx="2417.35" cy="-18" rx="27" ry="18"/>
<text text-anchor="middle" x="2417.35" y="-14.3" font-family="Times,serif" font-size="14.00">a</text>
</g>
<!-- 0&#45;&gt;27 -->
<g id="edge27" class="edge">
<title>0&#45;&gt;27</title>
<path fill="none" stroke="black" d="M1635.62,-103.57C1766.8,-101.96 2165.74,-95 2292.35,-69 2326.3,-62.03 2362.87,-46.35 2387.62,-34.4"/>
<polygon fill="black" stroke="black" points="2389.4,-37.42 2396.82,-29.86 2386.31,-31.14 2389.4,-37.42"/>
<text text-anchor="middle" x="2355.85" y="-57.8" font-family="Times,serif" font-size="14.00">dep</text>
</g>
<!-- 28 -->
<g id="node29" class="node">
<title>28</title>
<ellipse fill="none" stroke="black" cx="2514.35" cy="-18" rx="51.99" ry="18"/>
<text text-anchor="middle" x="2514.35" y="-14.3" font-family="Times,serif" font-size="14.00">definição</text>
</g>
<!-- 0&#45;&gt;28 -->
<g id="edge28" class="edge">
<title>0&#45;&gt;28</title>
<path fill="none" stroke="black" d="M1635.95,-103.74C1777.37,-102.63 2230.33,-96.92 2373.35,-69 2408.58,-62.12 2446.86,-48.1 2474.64,-36.65"/>
<polygon fill="black" stroke="black" points="2476.13,-39.82 2484,-32.72 2473.42,-33.36 2476.13,-39.82"/>
<text text-anchor="middle" x="2438.85" y="-57.8" font-family="Times,serif" font-size="14.00">dep</text>
</g>
<!-- 29 -->
<g id="node30" class="node">
<title>29</title>
<ellipse fill="none" stroke="black" cx="2611.35" cy="-18" rx="27" ry="18"/>
<text text-anchor="middle" x="2611.35" y="-14.3" font-family="Times,serif" font-size="14.00">de</text>
</g>
<!-- 0&#45;&gt;29 -->
<g id="edge29" class="edge">
<title>0&#45;&gt;29</title>
<path fill="none" stroke="black" d="M1635.62,-103.57C1786.12,-101.84 2295.43,-94.23 2456.35,-69 2510.57,-60.5 2523.9,-55.12 2575.35,-36 2577.19,-35.31 2579.07,-34.57 2580.96,-33.79"/>
<polygon fill="black" stroke="black" points="2582.54,-36.92 2590.28,-29.68 2579.72,-30.51 2582.54,-36.92"/>
<text text-anchor="middle" x="2538.85" y="-57.8" font-family="Times,serif" font-size="14.00">dep</text>
</g>
<!-- 30 -->
<g id="node31" class="node">
<title>30</title>
<ellipse fill="none" stroke="black" cx="2683.35" cy="-18" rx="27" ry="18"/>
<text text-anchor="middle" x="2683.35" y="-14.3" font-family="Times,serif" font-size="14.00">os</text>
</g>
<!-- 0&#45;&gt;30 -->
<g id="edge30" class="edge">
<title>0&#45;&gt;30</title>
<path fill="none" stroke="black" d="M1635.78,-104.21C1797.64,-104.73 2376.22,-104.04 2556.35,-69 2591,-62.26 2628.32,-46.43 2653.48,-34.38"/>
<polygon fill="black" stroke="black" points="2655.05,-37.51 2662.49,-29.97 2651.97,-31.22 2655.05,-37.51"/>
<text text-anchor="middle" x="2620.85" y="-57.8" font-family="Times,serif" font-size="14.00">dep</text>
</g>
<!-- 31 -->
<g id="node32" class="node">
<title>31</title>
<ellipse fill="none" stroke="black" cx="2768.35" cy="-18" rx="40.09" ry="18"/>
<text text-anchor="middle" x="2768.35" y="-14.3" font-family="Times,serif" font-size="14.00">custos</text>
</g>
<!-- 0&#45;&gt;31 -->
<g id="edge31" class="edge">
<title>0&#45;&gt;31</title>
<path fill="none" stroke="black" d="M1635.71,-103.41C1819.02,-100.76 2539.11,-89.15 2638.35,-69 2671.55,-62.26 2707.34,-47.92 2732.95,-36.32"/>
<polygon fill="black" stroke="black" points="2734.63,-39.4 2742.24,-32.03 2731.69,-33.05 2734.63,-39.4"/>
<text text-anchor="middle" x="2703.85" y="-57.8" font-family="Times,serif" font-size="14.00">dep</text>
</g>
<!-- 32 -->
<g id="node33" class="node">
<title>32</title>
<ellipse fill="none" stroke="black" cx="2853.35" cy="-18" rx="27" ry="18"/>
<text text-anchor="middle" x="2853.35" y="-14.3" font-family="Times,serif" font-size="14.00">de</text>
</g>
<!-- 0&#45;&gt;32 -->
<g id="edge32" class="edge">
<title>0&#45;&gt;32</title>
<path fill="none" stroke="black" d="M1635.83,-104.38C1814.69,-105.72 2507.18,-108.21 2721.35,-69 2757.68,-62.35 2796.99,-46.19 2823.18,-34.03"/>
<polygon fill="black" stroke="black" points="2825,-37.04 2832.54,-29.6 2822,-30.72 2825,-37.04"/>
<text text-anchor="middle" x="2787.85" y="-57.8" font-family="Times,serif" font-size="14.00">dep</text>
</g>
<!-- 33 -->
<g id="node34" class="node">
<title>33</title>
<ellipse fill="none" stroke="black" cx="2925.35" cy="-18" rx="27" ry="18"/>
<text text-anchor="middle" x="2925.35" y="-14.3" font-family="Times,serif" font-size="14.00">os</text>
</g>
<!-- 0&#45;&gt;33 -->
<g id="edge33" class="edge">
<title>0&#45;&gt;33</title>
<path fill="none" stroke="black" d="M1635.57,-103.64C1836.29,-101.83 2689.01,-92.78 2805.35,-69 2837.8,-62.37 2872.49,-46.9 2896.18,-34.92"/>
<polygon fill="black" stroke="black" points="2898.04,-37.9 2905.31,-30.19 2894.82,-31.68 2898.04,-37.9"/>
<text text-anchor="middle" x="2866.85" y="-57.8" font-family="Times,serif" font-size="14.00">dep</text>
</g>
<!-- 34 -->
<g id="node35" class="node">
<title>34</title>
<ellipse fill="none" stroke="black" cx="3041.35" cy="-18" rx="71.49" ry="18"/>
<text text-anchor="middle" x="3041.35" y="-14.3" font-family="Times,serif" font-size="14.00">empréstimos</text>
</g>
<!-- 0&#45;&gt;34 -->
<g id="edge34" class="edge">
<title>0&#45;&gt;34</title>
<path fill="none" stroke="black" d="M1635.49,-103.56C1843.88,-101.29 2759.1,-90.2 2884.35,-69 2922.78,-62.49 2964.77,-48.75 2995.65,-37.31"/>
<polygon fill="black" stroke="black" points="2997.14,-40.49 3005.27,-33.7 2994.68,-33.94 2997.14,-40.49"/>
<text text-anchor="middle" x="2959.85" y="-57.8" font-family="Times,serif" font-size="14.00">dep</text>
</g>
<!-- 35 -->
<g id="node36" class="node">
<title>35</title>
<ellipse fill="none" stroke="black" cx="3157.35" cy="-18" rx="27" ry="18"/>
<text text-anchor="middle" x="3157.35" y="-14.3" font-family="Times,serif" font-size="14.00">.</text>
</g>
<!-- 0&#45;&gt;35 -->
<g id="edge35" class="edge">
<title>0&#45;&gt;35</title>
<path fill="none" stroke="black" d="M1635.81,-104.07C1838.45,-104.23 2708.32,-102.88 2977.35,-69 3042.49,-60.8 3059.3,-57.48 3121.35,-36 3123.26,-35.34 3125.2,-34.61 3127.14,-33.83"/>
<polygon fill="black" stroke="black" points="3128.95,-36.86 3136.72,-29.67 3126.16,-30.44 3128.95,-36.86"/>
<text text-anchor="middle" x="3076.85" y="-57.8" font-family="Times,serif" font-size="14.00">dep</text>
</g>
</g>
</svg>
