<?xml version="1.0" encoding="UTF-8" standalone="no"?>
<!DOCTYPE svg PUBLIC "-//W3C//DTD SVG 1.1//EN"
 "http://www.w3.org/Graphics/SVG/1.1/DTD/svg11.dtd">
<!-- Generated by graphviz version 2.42.4 (0)
 -->
<!-- Pages: 1 -->
<svg width="2055pt" height="131pt"
 viewBox="0.00 0.00 2055.40 131.00" xmlns="http://www.w3.org/2000/svg" xmlns:xlink="http://www.w3.org/1999/xlink">
<g id="graph0" class="graph" transform="scale(1 1) rotate(0) translate(4 127)">
<polygon fill="white" stroke="transparent" points="-4,4 -4,-127 2051.4,-127 2051.4,4 -4,4"/>
<!-- 0 -->
<g id="node1" class="node">
<title>0</title>
<ellipse fill="none" stroke="black" cx="989.4" cy="-105" rx="44.39" ry="18"/>
<text text-anchor="middle" x="989.4" y="-101.3" font-family="Times,serif" font-size="14.00">Quanto</text>
</g>
<!-- 1 -->
<g id="node2" class="node">
<title>1</title>
<ellipse fill="none" stroke="black" cx="36.4" cy="-18" rx="36.29" ry="18"/>
<text text-anchor="middle" x="36.4" y="-14.3" font-family="Times,serif" font-size="14.00">gasta</text>
</g>
<!-- 0&#45;&gt;1 -->
<g id="edge1" class="edge">
<title>0&#45;&gt;1</title>
<path fill="none" stroke="black" d="M945.15,-103.05C803.7,-99.86 363.51,-88.56 222.4,-69 158.65,-60.16 142.97,-54.75 81.4,-36 78.79,-35.21 76.12,-34.34 73.44,-33.43"/>
<polygon fill="black" stroke="black" points="74.4,-30.06 63.81,-30.01 72.06,-36.65 74.4,-30.06"/>
<text text-anchor="middle" x="235.9" y="-57.8" font-family="Times,serif" font-size="14.00">dep</text>
</g>
<!-- 2 -->
<g id="node3" class="node">
<title>2</title>
<ellipse fill="none" stroke="black" cx="156.4" cy="-18" rx="65.79" ry="18"/>
<text text-anchor="middle" x="156.4" y="-14.3" font-family="Times,serif" font-size="14.00">anualmente</text>
</g>
<!-- 0&#45;&gt;2 -->
<g id="edge2" class="edge">
<title>0&#45;&gt;2</title>
<path fill="none" stroke="black" d="M945.05,-103.26C814.19,-100.84 431.17,-91.92 308.4,-69 271.23,-62.06 230.61,-48.37 200.73,-37.06"/>
<polygon fill="black" stroke="black" points="201.61,-33.65 191.02,-33.33 199.1,-40.19 201.61,-33.65"/>
<text text-anchor="middle" x="321.9" y="-57.8" font-family="Times,serif" font-size="14.00">dep</text>
</g>
<!-- 3 -->
<g id="node4" class="node">
<title>3</title>
<ellipse fill="none" stroke="black" cx="267.4" cy="-18" rx="27" ry="18"/>
<text text-anchor="middle" x="267.4" y="-14.3" font-family="Times,serif" font-size="14.00">a</text>
</g>
<!-- 0&#45;&gt;3 -->
<g id="edge3" class="edge">
<title>0&#45;&gt;3</title>
<path fill="none" stroke="black" d="M944.98,-103.26C824.4,-100.96 492.87,-92.61 386.4,-69 354.48,-61.92 320.29,-46.67 296.79,-34.86"/>
<polygon fill="black" stroke="black" points="298.21,-31.66 287.71,-30.21 295.01,-37.89 298.21,-31.66"/>
<text text-anchor="middle" x="399.9" y="-57.8" font-family="Times,serif" font-size="14.00">dep</text>
</g>
<!-- 4 -->
<g id="node5" class="node">
<title>4</title>
<ellipse fill="none" stroke="black" cx="339.4" cy="-18" rx="27.1" ry="18"/>
<text text-anchor="middle" x="339.4" y="-14.3" font-family="Times,serif" font-size="14.00">JAE</text>
</g>
<!-- 0&#45;&gt;4 -->
<g id="edge4" class="edge">
<title>0&#45;&gt;4</title>
<path fill="none" stroke="black" d="M945.43,-102.78C835.93,-99.47 553.26,-89.18 461.4,-69 428.44,-61.76 392.98,-46.27 368.83,-34.44"/>
<polygon fill="black" stroke="black" points="370.35,-31.29 359.84,-29.95 367.22,-37.55 370.35,-31.29"/>
<text text-anchor="middle" x="474.9" y="-57.8" font-family="Times,serif" font-size="14.00">dep</text>
</g>
<!-- 5 -->
<g id="node6" class="node">
<title>5</title>
<ellipse fill="none" stroke="black" cx="411.4" cy="-18" rx="27" ry="18"/>
<text text-anchor="middle" x="411.4" y="-14.3" font-family="Times,serif" font-size="14.00">em</text>
</g>
<!-- 0&#45;&gt;5 -->
<g id="edge5" class="edge">
<title>0&#45;&gt;5</title>
<path fill="none" stroke="black" d="M945.1,-104.09C864.65,-103.47 689.52,-98.48 545.4,-69 500.37,-59.79 490.03,-53.17 447.4,-36 445.57,-35.26 443.7,-34.48 441.83,-33.67"/>
<polygon fill="black" stroke="black" points="443.09,-30.4 432.54,-29.48 440.21,-36.78 443.09,-30.4"/>
<text text-anchor="middle" x="558.9" y="-57.8" font-family="Times,serif" font-size="14.00">dep</text>
</g>
<!-- 6 -->
<g id="node7" class="node">
<title>6</title>
<ellipse fill="none" stroke="black" cx="483.4" cy="-18" rx="27" ry="18"/>
<text text-anchor="middle" x="483.4" y="-14.3" font-family="Times,serif" font-size="14.00">a</text>
</g>
<!-- 0&#45;&gt;6 -->
<g id="edge6" class="edge">
<title>0&#45;&gt;6</title>
<path fill="none" stroke="black" d="M946.04,-101.44C881.62,-97.2 756.98,-87.31 652.4,-69 592.41,-58.5 576.77,-56.44 519.4,-36 517.49,-35.32 515.55,-34.58 513.61,-33.79"/>
<polygon fill="black" stroke="black" points="514.61,-30.4 504.04,-29.6 511.8,-36.82 514.61,-30.4"/>
<text text-anchor="middle" x="665.9" y="-57.8" font-family="Times,serif" font-size="14.00">dep</text>
</g>
<!-- 7 -->
<g id="node8" class="node">
<title>7</title>
<ellipse fill="none" stroke="black" cx="583.4" cy="-18" rx="55.49" ry="18"/>
<text text-anchor="middle" x="583.4" y="-14.3" font-family="Times,serif" font-size="14.00">reposição</text>
</g>
<!-- 0&#45;&gt;7 -->
<g id="edge7" class="edge">
<title>0&#45;&gt;7</title>
<path fill="none" stroke="black" d="M946.38,-100.58C895.15,-95.94 807.23,-86.2 733.4,-69 696.77,-60.47 656.38,-46.75 626.75,-35.84"/>
<polygon fill="black" stroke="black" points="627.73,-32.46 617.13,-32.25 625.28,-39.02 627.73,-32.46"/>
<text text-anchor="middle" x="746.9" y="-57.8" font-family="Times,serif" font-size="14.00">dep</text>
</g>
<!-- 8 -->
<g id="node9" class="node">
<title>8</title>
<ellipse fill="none" stroke="black" cx="683.4" cy="-18" rx="27" ry="18"/>
<text text-anchor="middle" x="683.4" y="-14.3" font-family="Times,serif" font-size="14.00">de</text>
</g>
<!-- 0&#45;&gt;8 -->
<g id="edge8" class="edge">
<title>0&#45;&gt;8</title>
<path fill="none" stroke="black" d="M948.58,-97.97C911.81,-92.09 856.47,-82.12 809.4,-69 768.36,-57.56 758.7,-52.45 719.4,-36 717.58,-35.24 715.72,-34.44 713.85,-33.61"/>
<polygon fill="black" stroke="black" points="715.13,-30.35 704.57,-29.39 712.22,-36.72 715.13,-30.35"/>
<text text-anchor="middle" x="822.9" y="-57.8" font-family="Times,serif" font-size="14.00">dep</text>
</g>
<!-- 9 -->
<g id="node10" class="node">
<title>9</title>
<ellipse fill="none" stroke="black" cx="755.4" cy="-18" rx="27" ry="18"/>
<text text-anchor="middle" x="755.4" y="-14.3" font-family="Times,serif" font-size="14.00">os</text>
</g>
<!-- 0&#45;&gt;9 -->
<g id="edge9" class="edge">
<title>0&#45;&gt;9</title>
<path fill="none" stroke="black" d="M954.9,-93.66C914.99,-81.36 847.56,-59.5 791.4,-36 789.58,-35.24 787.72,-34.44 785.85,-33.61"/>
<polygon fill="black" stroke="black" points="787.13,-30.35 776.57,-29.39 784.22,-36.72 787.13,-30.35"/>
<text text-anchor="middle" x="890.9" y="-57.8" font-family="Times,serif" font-size="14.00">dep</text>
</g>
<!-- 10 -->
<g id="node11" class="node">
<title>10</title>
<ellipse fill="none" stroke="black" cx="851.4" cy="-18" rx="51.19" ry="18"/>
<text text-anchor="middle" x="851.4" y="-14.3" font-family="Times,serif" font-size="14.00">milhares</text>
</g>
<!-- 0&#45;&gt;10 -->
<g id="edge10" class="edge">
<title>0&#45;&gt;10</title>
<path fill="none" stroke="black" d="M965.99,-89.58C943.66,-75.83 909.81,-54.98 884.68,-39.5"/>
<polygon fill="black" stroke="black" points="886.2,-36.33 875.85,-34.06 882.53,-42.29 886.2,-36.33"/>
<text text-anchor="middle" x="942.9" y="-57.8" font-family="Times,serif" font-size="14.00">dep</text>
</g>
<!-- 11 -->
<g id="node12" class="node">
<title>11</title>
<ellipse fill="none" stroke="black" cx="947.4" cy="-18" rx="27" ry="18"/>
<text text-anchor="middle" x="947.4" y="-14.3" font-family="Times,serif" font-size="14.00">de</text>
</g>
<!-- 0&#45;&gt;11 -->
<g id="edge11" class="edge">
<title>0&#45;&gt;11</title>
<path fill="none" stroke="black" d="M981.1,-87.21C975.08,-75.02 966.82,-58.32 959.99,-44.49"/>
<polygon fill="black" stroke="black" points="963.1,-42.88 955.53,-35.47 956.83,-45.98 963.1,-42.88"/>
<text text-anchor="middle" x="984.9" y="-57.8" font-family="Times,serif" font-size="14.00">dep</text>
</g>
<!-- 12 -->
<g id="node13" class="node">
<title>12</title>
<ellipse fill="none" stroke="black" cx="1032.4" cy="-18" rx="40.09" ry="18"/>
<text text-anchor="middle" x="1032.4" y="-14.3" font-family="Times,serif" font-size="14.00">placas</text>
</g>
<!-- 0&#45;&gt;12 -->
<g id="edge12" class="edge">
<title>0&#45;&gt;12</title>
<path fill="none" stroke="black" d="M997.89,-87.21C1004.02,-75.1 1012.4,-58.53 1019.37,-44.76"/>
<polygon fill="black" stroke="black" points="1022.53,-46.26 1023.92,-35.76 1016.28,-43.1 1022.53,-46.26"/>
<text text-anchor="middle" x="1027.9" y="-57.8" font-family="Times,serif" font-size="14.00">dep</text>
</g>
<!-- 13 -->
<g id="node14" class="node">
<title>13</title>
<ellipse fill="none" stroke="black" cx="1118.4" cy="-18" rx="27.9" ry="18"/>
<text text-anchor="middle" x="1118.4" y="-14.3" font-family="Times,serif" font-size="14.00">que</text>
</g>
<!-- 0&#45;&gt;13 -->
<g id="edge13" class="edge">
<title>0&#45;&gt;13</title>
<path fill="none" stroke="black" d="M1012.97,-89.57C1023.02,-83.34 1034.84,-75.91 1045.4,-69 1060.9,-58.86 1077.99,-47.17 1091.74,-37.65"/>
<polygon fill="black" stroke="black" points="1094.02,-40.33 1100.24,-31.75 1090.03,-34.58 1094.02,-40.33"/>
<text text-anchor="middle" x="1081.9" y="-57.8" font-family="Times,serif" font-size="14.00">dep</text>
</g>
<!-- 14 -->
<g id="node15" class="node">
<title>14</title>
<ellipse fill="none" stroke="black" cx="1230.4" cy="-18" rx="65.79" ry="18"/>
<text text-anchor="middle" x="1230.4" y="-14.3" font-family="Times,serif" font-size="14.00">anualmente</text>
</g>
<!-- 0&#45;&gt;14 -->
<g id="edge14" class="edge">
<title>0&#45;&gt;14</title>
<path fill="none" stroke="black" d="M1023.75,-93.62C1045.53,-86.9 1074.24,-77.8 1099.4,-69 1128.1,-58.96 1159.99,-46.82 1185.11,-37.01"/>
<polygon fill="black" stroke="black" points="1186.7,-40.14 1194.73,-33.24 1184.15,-33.63 1186.7,-40.14"/>
<text text-anchor="middle" x="1152.9" y="-57.8" font-family="Times,serif" font-size="14.00">dep</text>
</g>
<!-- 15 -->
<g id="node16" class="node">
<title>15</title>
<ellipse fill="none" stroke="black" cx="1358.4" cy="-18" rx="44.69" ry="18"/>
<text text-anchor="middle" x="1358.4" y="-14.3" font-family="Times,serif" font-size="14.00">servem</text>
</g>
<!-- 0&#45;&gt;15 -->
<g id="edge15" class="edge">
<title>0&#45;&gt;15</title>
<path fill="none" stroke="black" d="M1029.2,-97.1C1089.5,-86.28 1207.37,-63.66 1305.4,-36 1308.56,-35.11 1311.82,-34.15 1315.09,-33.17"/>
<polygon fill="black" stroke="black" points="1316.34,-36.44 1324.86,-30.15 1314.27,-29.76 1316.34,-36.44"/>
<text text-anchor="middle" x="1241.9" y="-57.8" font-family="Times,serif" font-size="14.00">dep</text>
</g>
<!-- 16 -->
<g id="node17" class="node">
<title>16</title>
<ellipse fill="none" stroke="black" cx="1448.4" cy="-18" rx="27" ry="18"/>
<text text-anchor="middle" x="1448.4" y="-14.3" font-family="Times,serif" font-size="14.00">de</text>
</g>
<!-- 0&#45;&gt;16 -->
<g id="edge16" class="edge">
<title>0&#45;&gt;16</title>
<path fill="none" stroke="black" d="M1033.17,-101.78C1111.26,-96.77 1278.91,-81.25 1412.4,-36 1414.31,-35.35 1416.26,-34.63 1418.21,-33.86"/>
<polygon fill="black" stroke="black" points="1420,-36.9 1427.79,-29.72 1417.22,-30.47 1420,-36.9"/>
<text text-anchor="middle" x="1358.9" y="-57.8" font-family="Times,serif" font-size="14.00">dep</text>
</g>
<!-- 17 -->
<g id="node18" class="node">
<title>17</title>
<ellipse fill="none" stroke="black" cx="1523.4" cy="-18" rx="29.8" ry="18"/>
<text text-anchor="middle" x="1523.4" y="-14.3" font-family="Times,serif" font-size="14.00">alvo</text>
</g>
<!-- 0&#45;&gt;17 -->
<g id="edge17" class="edge">
<title>0&#45;&gt;17</title>
<path fill="none" stroke="black" d="M1033.34,-102.97C1105.56,-100.62 1253.59,-93.05 1376.4,-69 1425.65,-59.35 1437.31,-53.39 1484.4,-36 1486.48,-35.23 1488.61,-34.41 1490.75,-33.55"/>
<polygon fill="black" stroke="black" points="1492.17,-36.75 1500.06,-29.69 1489.49,-30.29 1492.17,-36.75"/>
<text text-anchor="middle" x="1448.9" y="-57.8" font-family="Times,serif" font-size="14.00">dep</text>
</g>
<!-- 18 -->
<g id="node19" class="node">
<title>18</title>
<ellipse fill="none" stroke="black" cx="1598.4" cy="-18" rx="27" ry="18"/>
<text text-anchor="middle" x="1598.4" y="-14.3" font-family="Times,serif" font-size="14.00">a</text>
</g>
<!-- 0&#45;&gt;18 -->
<g id="edge18" class="edge">
<title>0&#45;&gt;18</title>
<path fill="none" stroke="black" d="M1033.65,-104.53C1118.51,-104.72 1309.61,-101.14 1466.4,-69 1502.37,-61.63 1541.46,-45.75 1567.69,-33.86"/>
<polygon fill="black" stroke="black" points="1569.47,-36.89 1577.08,-29.52 1566.53,-30.53 1569.47,-36.89"/>
<text text-anchor="middle" x="1528.9" y="-57.8" font-family="Times,serif" font-size="14.00">dep</text>
</g>
<!-- 19 -->
<g id="node20" class="node">
<title>19</title>
<ellipse fill="none" stroke="black" cx="1700.4" cy="-18" rx="57.39" ry="18"/>
<text text-anchor="middle" x="1700.4" y="-14.3" font-family="Times,serif" font-size="14.00">caçadores</text>
</g>
<!-- 0&#45;&gt;19 -->
<g id="edge19" class="edge">
<title>0&#45;&gt;19</title>
<path fill="none" stroke="black" d="M1033.62,-102.65C1147.43,-98.96 1448.36,-87.69 1546.4,-69 1584.77,-61.69 1626.86,-47.58 1657.32,-36.21"/>
<polygon fill="black" stroke="black" points="1658.67,-39.44 1666.79,-32.63 1656.2,-32.9 1658.67,-39.44"/>
<text text-anchor="middle" x="1616.9" y="-57.8" font-family="Times,serif" font-size="14.00">dep</text>
</g>
<!-- 20 -->
<g id="node21" class="node">
<title>20</title>
<ellipse fill="none" stroke="black" cx="1805.4" cy="-18" rx="29.8" ry="18"/>
<text text-anchor="middle" x="1805.4" y="-14.3" font-family="Times,serif" font-size="14.00">sem</text>
</g>
<!-- 0&#45;&gt;20 -->
<g id="edge20" class="edge">
<title>0&#45;&gt;20</title>
<path fill="none" stroke="black" d="M1033.88,-104.49C1138.98,-105.03 1410.67,-102.72 1634.4,-69 1694.19,-59.99 1709.15,-55.48 1766.4,-36 1768.64,-35.24 1770.93,-34.4 1773.23,-33.52"/>
<polygon fill="black" stroke="black" points="1774.61,-36.73 1782.55,-29.71 1771.97,-30.25 1774.61,-36.73"/>
<text text-anchor="middle" x="1723.9" y="-57.8" font-family="Times,serif" font-size="14.00">dep</text>
</g>
<!-- 21 -->
<g id="node22" class="node">
<title>21</title>
<ellipse fill="none" stroke="black" cx="1914.4" cy="-18" rx="61.19" ry="18"/>
<text text-anchor="middle" x="1914.4" y="-14.3" font-family="Times,serif" font-size="14.00">escrúpulos</text>
</g>
<!-- 0&#45;&gt;21 -->
<g id="edge21" class="edge">
<title>0&#45;&gt;21</title>
<path fill="none" stroke="black" d="M1033.8,-103.3C1173.66,-100.88 1603.91,-91.74 1741.4,-69 1785.05,-61.78 1833.31,-47.26 1867.75,-35.72"/>
<polygon fill="black" stroke="black" points="1869.18,-38.93 1877.52,-32.4 1866.93,-32.3 1869.18,-38.93"/>
<text text-anchor="middle" x="1817.9" y="-57.8" font-family="Times,serif" font-size="14.00">dep</text>
</g>
<!-- 22 -->
<g id="node23" class="node">
<title>22</title>
<ellipse fill="none" stroke="black" cx="2020.4" cy="-18" rx="27" ry="18"/>
<text text-anchor="middle" x="2020.4" y="-14.3" font-family="Times,serif" font-size="14.00">?</text>
</g>
<!-- 0&#45;&gt;22 -->
<g id="edge22" class="edge">
<title>0&#45;&gt;22</title>
<path fill="none" stroke="black" d="M1033.37,-103.21C1183.92,-100.33 1677.97,-89.53 1835.4,-69 1902.65,-60.23 1920.22,-57.95 1984.4,-36 1986.31,-35.35 1988.26,-34.62 1990.2,-33.84"/>
<polygon fill="black" stroke="black" points="1992,-36.88 1999.78,-29.7 1989.22,-30.46 1992,-36.88"/>
<text text-anchor="middle" x="1937.9" y="-57.8" font-family="Times,serif" font-size="14.00">dep</text>
</g>
</g>
</svg>
