<?xml version="1.0" encoding="UTF-8" standalone="no"?>
<!DOCTYPE svg PUBLIC "-//W3C//DTD SVG 1.1//EN"
 "http://www.w3.org/Graphics/SVG/1.1/DTD/svg11.dtd">
<!-- Generated by graphviz version 2.42.4 (0)
 -->
<!-- Pages: 1 -->
<svg width="6283pt" height="131pt"
 viewBox="0.00 0.00 6282.99 131.00" xmlns="http://www.w3.org/2000/svg" xmlns:xlink="http://www.w3.org/1999/xlink">
<g id="graph0" class="graph" transform="scale(1 1) rotate(0) translate(4 127)">
<polygon fill="white" stroke="transparent" points="-4,4 -4,-127 6278.99,-127 6278.99,4 -4,4"/>
<!-- 0 -->
<g id="node1" class="node">
<title>0</title>
<ellipse fill="none" stroke="black" cx="3063.99" cy="-105" rx="27" ry="18"/>
<text text-anchor="middle" x="3063.99" y="-101.3" font-family="Times,serif" font-size="14.00">A</text>
</g>
<!-- 1 -->
<g id="node2" class="node">
<title>1</title>
<ellipse fill="none" stroke="black" cx="64.99" cy="-18" rx="64.99" ry="18"/>
<text text-anchor="middle" x="64.99" y="-14.3" font-family="Times,serif" font-size="14.00">emergência</text>
</g>
<!-- 0&#45;&gt;1 -->
<g id="edge1" class="edge">
<title>0&#45;&gt;1</title>
<path fill="none" stroke="black" d="M3036.82,-103.92C2754.09,-103.01 356.99,-94.56 209.99,-69 174.32,-62.8 135.64,-49.08 107.21,-37.58"/>
<polygon fill="black" stroke="black" points="108.18,-34.19 97.6,-33.62 105.51,-40.66 108.18,-34.19"/>
<text text-anchor="middle" x="223.49" y="-57.8" font-family="Times,serif" font-size="14.00">dep</text>
</g>
<!-- 2 -->
<g id="node3" class="node">
<title>2</title>
<ellipse fill="none" stroke="black" cx="174.99" cy="-18" rx="27" ry="18"/>
<text text-anchor="middle" x="174.99" y="-14.3" font-family="Times,serif" font-size="14.00">de</text>
</g>
<!-- 0&#45;&gt;2 -->
<g id="edge2" class="edge">
<title>0&#45;&gt;2</title>
<path fill="none" stroke="black" d="M3036.65,-103.98C2757.12,-103.7 425.72,-100.48 283.99,-69 254.96,-62.55 224.39,-47.73 203.03,-35.89"/>
<polygon fill="black" stroke="black" points="204.62,-32.76 194.19,-30.86 201.16,-38.85 204.62,-32.76"/>
<text text-anchor="middle" x="297.49" y="-57.8" font-family="Times,serif" font-size="14.00">dep</text>
</g>
<!-- 3 -->
<g id="node4" class="node">
<title>3</title>
<ellipse fill="none" stroke="black" cx="246.99" cy="-18" rx="27" ry="18"/>
<text text-anchor="middle" x="246.99" y="-14.3" font-family="Times,serif" font-size="14.00">a</text>
</g>
<!-- 0&#45;&gt;3 -->
<g id="edge3" class="edge">
<title>0&#45;&gt;3</title>
<path fill="none" stroke="black" d="M3036.98,-103.95C2763.19,-103.43 498.06,-98.27 359.99,-69 329.7,-62.58 297.63,-47.5 275.43,-35.56"/>
<polygon fill="black" stroke="black" points="277,-32.43 266.55,-30.68 273.63,-38.57 277,-32.43"/>
<text text-anchor="middle" x="373.49" y="-57.8" font-family="Times,serif" font-size="14.00">dep</text>
</g>
<!-- 4 -->
<g id="node5" class="node">
<title>4</title>
<ellipse fill="none" stroke="black" cx="321.99" cy="-18" rx="29.8" ry="18"/>
<text text-anchor="middle" x="321.99" y="-14.3" font-family="Times,serif" font-size="14.00">sida</text>
</g>
<!-- 0&#45;&gt;4 -->
<g id="edge4" class="edge">
<title>0&#45;&gt;4</title>
<path fill="none" stroke="black" d="M3036.89,-103.95C2766.93,-103.42 568.92,-98.24 434.99,-69 405.28,-62.51 373.83,-47.88 351.67,-36.11"/>
<polygon fill="black" stroke="black" points="353.24,-32.98 342.78,-31.28 349.89,-39.13 353.24,-32.98"/>
<text text-anchor="middle" x="448.49" y="-57.8" font-family="Times,serif" font-size="14.00">dep</text>
</g>
<!-- 5 -->
<g id="node6" class="node">
<title>5</title>
<ellipse fill="none" stroke="black" cx="396.99" cy="-18" rx="27" ry="18"/>
<text text-anchor="middle" x="396.99" y="-14.3" font-family="Times,serif" font-size="14.00">,</text>
</g>
<!-- 0&#45;&gt;5 -->
<g id="edge5" class="edge">
<title>0&#45;&gt;5</title>
<path fill="none" stroke="black" d="M3036.85,-103.93C2771.11,-103.18 641.14,-96.33 510.99,-69 480.46,-62.59 448.11,-47.51 425.7,-35.57"/>
<polygon fill="black" stroke="black" points="427.19,-32.4 416.74,-30.68 423.84,-38.55 427.19,-32.4"/>
<text text-anchor="middle" x="524.49" y="-57.8" font-family="Times,serif" font-size="14.00">dep</text>
</g>
<!-- 6 -->
<g id="node7" class="node">
<title>6</title>
<ellipse fill="none" stroke="black" cx="468.99" cy="-18" rx="27" ry="18"/>
<text text-anchor="middle" x="468.99" y="-14.3" font-family="Times,serif" font-size="14.00">a</text>
</g>
<!-- 0&#45;&gt;6 -->
<g id="edge6" class="edge">
<title>0&#45;&gt;6</title>
<path fill="none" stroke="black" d="M3036.88,-103.89C2775.92,-102.82 716.36,-93.59 589.99,-69 557.1,-62.6 521.96,-46.99 498.08,-34.9"/>
<polygon fill="black" stroke="black" points="499.68,-31.79 489.19,-30.3 496.46,-38 499.68,-31.79"/>
<text text-anchor="middle" x="603.49" y="-57.8" font-family="Times,serif" font-size="14.00">dep</text>
</g>
<!-- 7 -->
<g id="node8" class="node">
<title>7</title>
<ellipse fill="none" stroke="black" cx="540.99" cy="-18" rx="27" ry="18"/>
<text text-anchor="middle" x="540.99" y="-14.3" font-family="Times,serif" font-size="14.00">a</text>
</g>
<!-- 0&#45;&gt;7 -->
<g id="edge7" class="edge">
<title>0&#45;&gt;7</title>
<path fill="none" stroke="black" d="M3037,-103.85C2781.49,-102.39 795.43,-90.38 672.99,-69 636.6,-62.65 597.3,-46.44 571.13,-34.18"/>
<polygon fill="black" stroke="black" points="572.31,-30.87 561.78,-29.71 569.29,-37.18 572.31,-30.87"/>
<text text-anchor="middle" x="686.49" y="-57.8" font-family="Times,serif" font-size="14.00">dep</text>
</g>
<!-- 8 -->
<g id="node9" class="node">
<title>8</title>
<ellipse fill="none" stroke="black" cx="616.99" cy="-18" rx="30.59" ry="18"/>
<text text-anchor="middle" x="616.99" y="-14.3" font-family="Times,serif" font-size="14.00">qual</text>
</g>
<!-- 0&#45;&gt;8 -->
<g id="edge8" class="edge">
<title>0&#45;&gt;8</title>
<path fill="none" stroke="black" d="M3036.85,-104.07C2793.83,-104.61 995.55,-107.31 759.99,-69 720.75,-62.62 677.99,-46.34 649.55,-34.07"/>
<polygon fill="black" stroke="black" points="650.68,-30.75 640.12,-29.93 647.86,-37.16 650.68,-30.75"/>
<text text-anchor="middle" x="773.49" y="-57.8" font-family="Times,serif" font-size="14.00">dep</text>
</g>
<!-- 9 -->
<g id="node10" class="node">
<title>9</title>
<ellipse fill="none" stroke="black" cx="695.99" cy="-18" rx="30.59" ry="18"/>
<text text-anchor="middle" x="695.99" y="-14.3" font-family="Times,serif" font-size="14.00">está</text>
</g>
<!-- 0&#45;&gt;9 -->
<g id="edge9" class="edge">
<title>0&#45;&gt;9</title>
<path fill="none" stroke="black" d="M3037.01,-103.95C2801.01,-103.44 1091.35,-98.77 865.99,-69 806.47,-61.14 791.82,-55.39 734.99,-36 732.89,-35.28 730.75,-34.5 728.6,-33.68"/>
<polygon fill="black" stroke="black" points="729.84,-30.4 719.26,-29.88 727.21,-36.89 729.84,-30.4"/>
<text text-anchor="middle" x="879.49" y="-57.8" font-family="Times,serif" font-size="14.00">dep</text>
</g>
<!-- 10 -->
<g id="node11" class="node">
<title>10</title>
<ellipse fill="none" stroke="black" cx="799.99" cy="-18" rx="55.79" ry="18"/>
<text text-anchor="middle" x="799.99" y="-14.3" font-family="Times,serif" font-size="14.00">associada</text>
</g>
<!-- 0&#45;&gt;10 -->
<g id="edge10" class="edge">
<title>0&#45;&gt;10</title>
<path fill="none" stroke="black" d="M3036.7,-104.02C2805.14,-104.14 1173.44,-103.75 958.99,-69 918.48,-62.44 874.06,-47.8 842.49,-36.05"/>
<polygon fill="black" stroke="black" points="843.71,-32.77 833.12,-32.51 841.24,-39.32 843.71,-32.77"/>
<text text-anchor="middle" x="972.49" y="-57.8" font-family="Times,serif" font-size="14.00">dep</text>
</g>
<!-- 11 -->
<g id="node12" class="node">
<title>11</title>
<ellipse fill="none" stroke="black" cx="903.99" cy="-18" rx="30.59" ry="18"/>
<text text-anchor="middle" x="903.99" y="-14.3" font-family="Times,serif" font-size="14.00">uma</text>
</g>
<!-- 0&#45;&gt;11 -->
<g id="edge11" class="edge">
<title>0&#45;&gt;11</title>
<path fill="none" stroke="black" d="M3036.75,-104.01C2810.76,-104.07 1250.21,-103.2 1044.99,-69 1006.49,-62.58 964.6,-46.47 936.57,-34.26"/>
<polygon fill="black" stroke="black" points="937.83,-30.98 927.27,-30.12 934.98,-37.38 937.83,-30.98"/>
<text text-anchor="middle" x="1058.49" y="-57.8" font-family="Times,serif" font-size="14.00">dep</text>
</g>
<!-- 12 -->
<g id="node13" class="node">
<title>12</title>
<ellipse fill="none" stroke="black" cx="985.99" cy="-18" rx="33.6" ry="18"/>
<text text-anchor="middle" x="985.99" y="-14.3" font-family="Times,serif" font-size="14.00">série</text>
</g>
<!-- 0&#45;&gt;12 -->
<g id="edge12" class="edge">
<title>0&#45;&gt;12</title>
<path fill="none" stroke="black" d="M3036.9,-103.98C2817.1,-103.77 1329.04,-101.18 1132.99,-69 1093.08,-62.45 1049.46,-46.4 1020.19,-34.24"/>
<polygon fill="black" stroke="black" points="1021.41,-30.96 1010.83,-30.28 1018.68,-37.4 1021.41,-30.96"/>
<text text-anchor="middle" x="1146.49" y="-57.8" font-family="Times,serif" font-size="14.00">dep</text>
</g>
<!-- 13 -->
<g id="node14" class="node">
<title>13</title>
<ellipse fill="none" stroke="black" cx="1064.99" cy="-18" rx="27" ry="18"/>
<text text-anchor="middle" x="1064.99" y="-14.3" font-family="Times,serif" font-size="14.00">de</text>
</g>
<!-- 0&#45;&gt;13 -->
<g id="edge13" class="edge">
<title>0&#45;&gt;13</title>
<path fill="none" stroke="black" d="M3036.97,-104.16C2840.3,-105.2 1626.58,-109.9 1260.99,-69 1188.84,-60.93 1169.86,-59 1100.99,-36 1099.08,-35.36 1097.13,-34.64 1095.18,-33.88"/>
<polygon fill="black" stroke="black" points="1096.16,-30.49 1085.59,-29.75 1093.39,-36.92 1096.16,-30.49"/>
<text text-anchor="middle" x="1274.49" y="-57.8" font-family="Times,serif" font-size="14.00">dep</text>
</g>
<!-- 14 -->
<g id="node15" class="node">
<title>14</title>
<ellipse fill="none" stroke="black" cx="1163.99" cy="-18" rx="53.89" ry="18"/>
<text text-anchor="middle" x="1163.99" y="-14.3" font-family="Times,serif" font-size="14.00">infecções</text>
</g>
<!-- 0&#45;&gt;14 -->
<g id="edge14" class="edge">
<title>0&#45;&gt;14</title>
<path fill="none" stroke="black" d="M3036.83,-103.77C2832.87,-101.97 1544.71,-89.84 1372.99,-69 1316.76,-62.18 1253.72,-45.86 1211.72,-33.71"/>
<polygon fill="black" stroke="black" points="1212.62,-30.33 1202.04,-30.88 1210.65,-37.04 1212.62,-30.33"/>
<text text-anchor="middle" x="1386.49" y="-57.8" font-family="Times,serif" font-size="14.00">dep</text>
</g>
<!-- 15 -->
<g id="node16" class="node">
<title>15</title>
<ellipse fill="none" stroke="black" cx="1304.99" cy="-18" rx="69.59" ry="18"/>
<text text-anchor="middle" x="1304.99" y="-14.3" font-family="Times,serif" font-size="14.00">oportunistas</text>
</g>
<!-- 0&#45;&gt;15 -->
<g id="edge15" class="edge">
<title>0&#45;&gt;15</title>
<path fill="none" stroke="black" d="M3036.76,-103.86C2839.12,-102.77 1627.82,-95.06 1466.99,-69 1426.84,-62.49 1382.83,-48.44 1350.82,-36.88"/>
<polygon fill="black" stroke="black" points="1351.89,-33.55 1341.29,-33.39 1349.48,-40.12 1351.89,-33.55"/>
<text text-anchor="middle" x="1480.49" y="-57.8" font-family="Times,serif" font-size="14.00">dep</text>
</g>
<!-- 16 -->
<g id="node17" class="node">
<title>16</title>
<ellipse fill="none" stroke="black" cx="1419.99" cy="-18" rx="27" ry="18"/>
<text text-anchor="middle" x="1419.99" y="-14.3" font-family="Times,serif" font-size="14.00">,</text>
</g>
<!-- 0&#45;&gt;16 -->
<g id="edge16" class="edge">
<title>0&#45;&gt;16</title>
<path fill="none" stroke="black" d="M3036.94,-103.89C2845.69,-103.06 1700.68,-96.92 1548.99,-69 1513.59,-62.48 1475.44,-46.46 1449.88,-34.3"/>
<polygon fill="black" stroke="black" points="1451.26,-31.08 1440.73,-29.85 1448.2,-37.37 1451.26,-31.08"/>
<text text-anchor="middle" x="1562.49" y="-57.8" font-family="Times,serif" font-size="14.00">dep</text>
</g>
<!-- 17 -->
<g id="node18" class="node">
<title>17</title>
<ellipse fill="none" stroke="black" cx="1491.99" cy="-18" rx="27" ry="18"/>
<text text-anchor="middle" x="1491.99" y="-14.3" font-family="Times,serif" font-size="14.00">o</text>
</g>
<!-- 0&#45;&gt;17 -->
<g id="edge17" class="edge">
<title>0&#45;&gt;17</title>
<path fill="none" stroke="black" d="M3036.75,-104.21C2865.16,-105.43 1932.03,-110.03 1649.99,-69 1594.41,-60.91 1580.71,-55.4 1527.99,-36 1526.15,-35.32 1524.26,-34.58 1522.38,-33.8"/>
<polygon fill="black" stroke="black" points="1523.61,-30.52 1513.05,-29.7 1520.79,-36.93 1523.61,-30.52"/>
<text text-anchor="middle" x="1663.49" y="-57.8" font-family="Times,serif" font-size="14.00">dep</text>
</g>
<!-- 18 -->
<g id="node19" class="node">
<title>18</title>
<ellipse fill="none" stroke="black" cx="1591.99" cy="-18" rx="54.69" ry="18"/>
<text text-anchor="middle" x="1591.99" y="-14.3" font-family="Times,serif" font-size="14.00">problema</text>
</g>
<!-- 0&#45;&gt;18 -->
<g id="edge18" class="edge">
<title>0&#45;&gt;18</title>
<path fill="none" stroke="black" d="M3037,-103.78C2860.15,-102.27 1870.01,-92.77 1737.99,-69 1701.39,-62.41 1661.56,-48.27 1632.76,-36.7"/>
<polygon fill="black" stroke="black" points="1634.02,-33.43 1623.44,-32.89 1631.37,-39.91 1634.02,-33.43"/>
<text text-anchor="middle" x="1751.49" y="-57.8" font-family="Times,serif" font-size="14.00">dep</text>
</g>
<!-- 19 -->
<g id="node20" class="node">
<title>19</title>
<ellipse fill="none" stroke="black" cx="1691.99" cy="-18" rx="27" ry="18"/>
<text text-anchor="middle" x="1691.99" y="-14.3" font-family="Times,serif" font-size="14.00">de</text>
</g>
<!-- 0&#45;&gt;19 -->
<g id="edge19" class="edge">
<title>0&#45;&gt;19</title>
<path fill="none" stroke="black" d="M3037.02,-103.76C2866.59,-102.16 1942.33,-92.46 1818.99,-69 1784.11,-62.36 1746.55,-46.36 1721.4,-34.24"/>
<polygon fill="black" stroke="black" points="1722.91,-31.08 1712.4,-29.81 1719.82,-37.36 1722.91,-31.08"/>
<text text-anchor="middle" x="1832.49" y="-57.8" font-family="Times,serif" font-size="14.00">dep</text>
</g>
<!-- 20 -->
<g id="node21" class="node">
<title>20</title>
<ellipse fill="none" stroke="black" cx="1763.99" cy="-18" rx="27" ry="18"/>
<text text-anchor="middle" x="1763.99" y="-14.3" font-family="Times,serif" font-size="14.00">a</text>
</g>
<!-- 0&#45;&gt;20 -->
<g id="edge20" class="edge">
<title>0&#45;&gt;20</title>
<path fill="none" stroke="black" d="M3036.93,-104.07C2885.6,-104.33 2142.94,-103.77 1916.99,-69 1863.59,-60.78 1850.6,-54.93 1799.99,-36 1798.15,-35.31 1796.27,-34.56 1794.38,-33.78"/>
<polygon fill="black" stroke="black" points="1795.62,-30.5 1785.06,-29.66 1792.8,-36.9 1795.62,-30.5"/>
<text text-anchor="middle" x="1930.49" y="-57.8" font-family="Times,serif" font-size="14.00">dep</text>
</g>
<!-- 21 -->
<g id="node22" class="node">
<title>21</title>
<ellipse fill="none" stroke="black" cx="1857.99" cy="-18" rx="49.29" ry="18"/>
<text text-anchor="middle" x="1857.99" y="-14.3" font-family="Times,serif" font-size="14.00">hepatite</text>
</g>
<!-- 0&#45;&gt;21 -->
<g id="edge21" class="edge">
<title>0&#45;&gt;21</title>
<path fill="none" stroke="black" d="M3036.67,-104.17C2891.8,-104.94 2212.37,-106.43 2005.99,-69 1968.35,-62.17 1927.26,-47.69 1897.95,-36.06"/>
<polygon fill="black" stroke="black" points="1899.06,-32.74 1888.48,-32.24 1896.44,-39.23 1899.06,-32.74"/>
<text text-anchor="middle" x="2019.49" y="-57.8" font-family="Times,serif" font-size="14.00">dep</text>
</g>
<!-- 22 -->
<g id="node23" class="node">
<title>22</title>
<ellipse fill="none" stroke="black" cx="1951.99" cy="-18" rx="27" ry="18"/>
<text text-anchor="middle" x="1951.99" y="-14.3" font-family="Times,serif" font-size="14.00">C</text>
</g>
<!-- 0&#45;&gt;22 -->
<g id="edge22" class="edge">
<title>0&#45;&gt;22</title>
<path fill="none" stroke="black" d="M3036.85,-103.95C2900.11,-103.56 2285.92,-100.07 2097.99,-69 2047.64,-60.67 2035.65,-54.28 1987.99,-36 1986.16,-35.29 1984.28,-34.54 1982.4,-33.74"/>
<polygon fill="black" stroke="black" points="1983.65,-30.47 1973.09,-29.6 1980.8,-36.86 1983.65,-30.47"/>
<text text-anchor="middle" x="2111.49" y="-57.8" font-family="Times,serif" font-size="14.00">dep</text>
</g>
<!-- 23 -->
<g id="node24" class="node">
<title>23</title>
<ellipse fill="none" stroke="black" cx="2023.99" cy="-18" rx="27" ry="18"/>
<text text-anchor="middle" x="2023.99" y="-14.3" font-family="Times,serif" font-size="14.00">(</text>
</g>
<!-- 0&#45;&gt;23 -->
<g id="edge23" class="edge">
<title>0&#45;&gt;23</title>
<path fill="none" stroke="black" d="M3036.91,-103.98C2934.99,-103.65 2564.91,-100.24 2261.99,-69 2171.51,-59.67 2146.86,-63.02 2059.99,-36 2058.06,-35.4 2056.1,-34.71 2054.15,-33.97"/>
<polygon fill="black" stroke="black" points="2055.11,-30.58 2044.54,-29.9 2052.38,-37.03 2055.11,-30.58"/>
<text text-anchor="middle" x="2275.49" y="-57.8" font-family="Times,serif" font-size="14.00">dep</text>
</g>
<!-- 24 -->
<g id="node25" class="node">
<title>24</title>
<ellipse fill="none" stroke="black" cx="2143.99" cy="-18" rx="75.29" ry="18"/>
<text text-anchor="middle" x="2143.99" y="-14.3" font-family="Times,serif" font-size="14.00">recentemente</text>
</g>
<!-- 0&#45;&gt;24 -->
<g id="edge24" class="edge">
<title>0&#45;&gt;24</title>
<path fill="none" stroke="black" d="M3036.97,-104.19C2944.37,-104.5 2631.5,-102.81 2375.99,-69 2316.25,-61.09 2249.04,-45.9 2202.4,-34.33"/>
<polygon fill="black" stroke="black" points="2203.03,-30.88 2192.48,-31.84 2201.33,-37.67 2203.03,-30.88"/>
<text text-anchor="middle" x="2389.49" y="-57.8" font-family="Times,serif" font-size="14.00">dep</text>
</g>
<!-- 25 -->
<g id="node26" class="node">
<title>25</title>
<ellipse fill="none" stroke="black" cx="2301.99" cy="-18" rx="64.99" ry="18"/>
<text text-anchor="middle" x="2301.99" y="-14.3" font-family="Times,serif" font-size="14.00">identificada</text>
</g>
<!-- 0&#45;&gt;25 -->
<g id="edge25" class="edge">
<title>0&#45;&gt;25</title>
<path fill="none" stroke="black" d="M3036.81,-103.27C2935.21,-100.39 2577.96,-89.05 2465.99,-69 2425.5,-61.75 2380.93,-47.75 2348.49,-36.41"/>
<polygon fill="black" stroke="black" points="2349.42,-33.03 2338.83,-32.99 2347.08,-39.63 2349.42,-33.03"/>
<text text-anchor="middle" x="2479.49" y="-57.8" font-family="Times,serif" font-size="14.00">dep</text>
</g>
<!-- 26 -->
<g id="node27" class="node">
<title>26</title>
<ellipse fill="none" stroke="black" cx="2411.99" cy="-18" rx="27" ry="18"/>
<text text-anchor="middle" x="2411.99" y="-14.3" font-family="Times,serif" font-size="14.00">e</text>
</g>
<!-- 0&#45;&gt;26 -->
<g id="edge26" class="edge">
<title>0&#45;&gt;26</title>
<path fill="none" stroke="black" d="M3036.84,-104.38C2960.11,-104.97 2735.4,-103.41 2552.99,-69 2504.92,-59.93 2493.55,-53.82 2447.99,-36 2446.16,-35.28 2444.29,-34.51 2442.41,-33.71"/>
<polygon fill="black" stroke="black" points="2443.66,-30.44 2433.1,-29.56 2440.81,-36.83 2443.66,-30.44"/>
<text text-anchor="middle" x="2566.49" y="-57.8" font-family="Times,serif" font-size="14.00">dep</text>
</g>
<!-- 27 -->
<g id="node28" class="node">
<title>27</title>
<ellipse fill="none" stroke="black" cx="2492.99" cy="-18" rx="36.29" ry="18"/>
<text text-anchor="middle" x="2492.99" y="-14.3" font-family="Times,serif" font-size="14.00">ainda</text>
</g>
<!-- 0&#45;&gt;27 -->
<g id="edge27" class="edge">
<title>0&#45;&gt;27</title>
<path fill="none" stroke="black" d="M3036.63,-104.05C2968.29,-103.69 2784.95,-99.69 2635.99,-69 2598.44,-61.26 2557.27,-46.12 2528.79,-34.51"/>
<polygon fill="black" stroke="black" points="2529.85,-31.17 2519.28,-30.58 2527.18,-37.63 2529.85,-31.17"/>
<text text-anchor="middle" x="2649.49" y="-57.8" font-family="Times,serif" font-size="14.00">dep</text>
</g>
<!-- 28 -->
<g id="node29" class="node">
<title>28</title>
<ellipse fill="none" stroke="black" cx="2576.99" cy="-18" rx="29.8" ry="18"/>
<text text-anchor="middle" x="2576.99" y="-14.3" font-family="Times,serif" font-size="14.00">sem</text>
</g>
<!-- 0&#45;&gt;28 -->
<g id="edge28" class="edge">
<title>0&#45;&gt;28</title>
<path fill="none" stroke="black" d="M3036.78,-103.21C2977.99,-101.06 2834.99,-93.55 2717.99,-69 2679.79,-60.98 2637.85,-45.15 2609.73,-33.44"/>
<polygon fill="black" stroke="black" points="2610.96,-30.16 2600.38,-29.49 2608.23,-36.6 2610.96,-30.16"/>
<text text-anchor="middle" x="2731.49" y="-57.8" font-family="Times,serif" font-size="14.00">dep</text>
</g>
<!-- 29 -->
<g id="node30" class="node">
<title>29</title>
<ellipse fill="none" stroke="black" cx="2655.99" cy="-18" rx="31.4" ry="18"/>
<text text-anchor="middle" x="2655.99" y="-14.3" font-family="Times,serif" font-size="14.00">cura</text>
</g>
<!-- 0&#45;&gt;29 -->
<g id="edge29" class="edge">
<title>0&#45;&gt;29</title>
<path fill="none" stroke="black" d="M3037.12,-101.71C2990.09,-97.4 2889.97,-86.87 2806.99,-69 2756.68,-58.16 2744.42,-53.43 2695.99,-36 2693.78,-35.2 2691.51,-34.35 2689.23,-33.46"/>
<polygon fill="black" stroke="black" points="2690.52,-30.2 2679.93,-29.69 2687.89,-36.69 2690.52,-30.2"/>
<text text-anchor="middle" x="2820.49" y="-57.8" font-family="Times,serif" font-size="14.00">dep</text>
</g>
<!-- 30 -->
<g id="node31" class="node">
<title>30</title>
<ellipse fill="none" stroke="black" cx="2735.99" cy="-18" rx="30.59" ry="18"/>
<text text-anchor="middle" x="2735.99" y="-14.3" font-family="Times,serif" font-size="14.00">nem</text>
</g>
<!-- 0&#45;&gt;30 -->
<g id="edge30" class="edge">
<title>0&#45;&gt;30</title>
<path fill="none" stroke="black" d="M3038.08,-99.68C2987.03,-90.79 2870.22,-68.48 2775.99,-36 2773.62,-35.18 2771.19,-34.29 2768.76,-33.36"/>
<polygon fill="black" stroke="black" points="2770.05,-30.11 2759.47,-29.62 2767.44,-36.6 2770.05,-30.11"/>
<text text-anchor="middle" x="2899.49" y="-57.8" font-family="Times,serif" font-size="14.00">dep</text>
</g>
<!-- 31 -->
<g id="node32" class="node">
<title>31</title>
<ellipse fill="none" stroke="black" cx="2847.99" cy="-18" rx="63.09" ry="18"/>
<text text-anchor="middle" x="2847.99" y="-14.3" font-family="Times,serif" font-size="14.00">tratamento</text>
</g>
<!-- 0&#45;&gt;31 -->
<g id="edge31" class="edge">
<title>0&#45;&gt;31</title>
<path fill="none" stroke="black" d="M3040.23,-96.08C3020.08,-89.24 2990.47,-78.94 2964.99,-69 2939.9,-59.21 2912.16,-47.4 2889.99,-37.72"/>
<polygon fill="black" stroke="black" points="2891.11,-34.39 2880.54,-33.57 2888.3,-40.8 2891.11,-34.39"/>
<text text-anchor="middle" x="2978.49" y="-57.8" font-family="Times,serif" font-size="14.00">dep</text>
</g>
<!-- 32 -->
<g id="node33" class="node">
<title>32</title>
<ellipse fill="none" stroke="black" cx="2955.99" cy="-18" rx="27" ry="18"/>
<text text-anchor="middle" x="2955.99" y="-14.3" font-family="Times,serif" font-size="14.00">)</text>
</g>
<!-- 0&#45;&gt;32 -->
<g id="edge32" class="edge">
<title>0&#45;&gt;32</title>
<path fill="none" stroke="black" d="M3045.2,-91.88C3035.41,-85.37 3023.34,-77.04 3012.99,-69 3001.35,-59.95 2988.98,-49.24 2978.75,-40.06"/>
<polygon fill="black" stroke="black" points="2980.82,-37.21 2971.06,-33.09 2976.12,-42.4 2980.82,-37.21"/>
<text text-anchor="middle" x="3026.49" y="-57.8" font-family="Times,serif" font-size="14.00">dep</text>
</g>
<!-- 33 -->
<g id="node34" class="node">
<title>33</title>
<ellipse fill="none" stroke="black" cx="3027.99" cy="-18" rx="27" ry="18"/>
<text text-anchor="middle" x="3027.99" y="-14.3" font-family="Times,serif" font-size="14.00">e</text>
</g>
<!-- 0&#45;&gt;33 -->
<g id="edge33" class="edge">
<title>0&#45;&gt;33</title>
<path fill="none" stroke="black" d="M3056.88,-87.21C3051.77,-75.14 3044.78,-58.64 3038.96,-44.89"/>
<polygon fill="black" stroke="black" points="3042.09,-43.31 3034.97,-35.47 3035.65,-46.04 3042.09,-43.31"/>
<text text-anchor="middle" x="3062.49" y="-57.8" font-family="Times,serif" font-size="14.00">dep</text>
</g>
<!-- 34 -->
<g id="node35" class="node">
<title>34</title>
<ellipse fill="none" stroke="black" cx="3099.99" cy="-18" rx="27" ry="18"/>
<text text-anchor="middle" x="3099.99" y="-14.3" font-family="Times,serif" font-size="14.00">o</text>
</g>
<!-- 0&#45;&gt;34 -->
<g id="edge34" class="edge">
<title>0&#45;&gt;34</title>
<path fill="none" stroke="black" d="M3071.11,-87.21C3076.22,-75.14 3083.21,-58.64 3089.03,-44.89"/>
<polygon fill="black" stroke="black" points="3092.34,-46.04 3093.02,-35.47 3085.9,-43.31 3092.34,-46.04"/>
<text text-anchor="middle" x="3098.49" y="-57.8" font-family="Times,serif" font-size="14.00">dep</text>
</g>
<!-- 35 -->
<g id="node36" class="node">
<title>35</title>
<ellipse fill="none" stroke="black" cx="3233.99" cy="-18" rx="89.08" ry="18"/>
<text text-anchor="middle" x="3233.99" y="-14.3" font-family="Times,serif" font-size="14.00">recrudescimento</text>
</g>
<!-- 0&#45;&gt;35 -->
<g id="edge35" class="edge">
<title>0&#45;&gt;35</title>
<path fill="none" stroke="black" d="M3085.18,-93.41C3112.03,-79.98 3158.89,-56.55 3192.87,-39.56"/>
<polygon fill="black" stroke="black" points="3194.71,-42.56 3202.09,-34.95 3191.58,-36.3 3194.71,-42.56"/>
<text text-anchor="middle" x="3173.49" y="-57.8" font-family="Times,serif" font-size="14.00">dep</text>
</g>
<!-- 36 -->
<g id="node37" class="node">
<title>36</title>
<ellipse fill="none" stroke="black" cx="3367.99" cy="-18" rx="27" ry="18"/>
<text text-anchor="middle" x="3367.99" y="-14.3" font-family="Times,serif" font-size="14.00">de</text>
</g>
<!-- 0&#45;&gt;36 -->
<g id="edge36" class="edge">
<title>0&#45;&gt;36</title>
<path fill="none" stroke="black" d="M3089.61,-99.22C3137.87,-89.83 3245.26,-67.16 3331.99,-36 3333.85,-35.33 3335.74,-34.61 3337.63,-33.84"/>
<polygon fill="black" stroke="black" points="3339.2,-36.97 3346.96,-29.76 3336.4,-30.55 3339.2,-36.97"/>
<text text-anchor="middle" x="3288.49" y="-57.8" font-family="Times,serif" font-size="14.00">dep</text>
</g>
<!-- 37 -->
<g id="node38" class="node">
<title>37</title>
<ellipse fill="none" stroke="black" cx="3439.99" cy="-18" rx="27" ry="18"/>
<text text-anchor="middle" x="3439.99" y="-14.3" font-family="Times,serif" font-size="14.00">a</text>
</g>
<!-- 0&#45;&gt;37 -->
<g id="edge37" class="edge">
<title>0&#45;&gt;37</title>
<path fill="none" stroke="black" d="M3090.79,-101.72C3135.74,-97.55 3228.98,-87.37 3305.99,-69 3350.7,-58.33 3361.37,-53.17 3403.99,-36 3405.82,-35.26 3407.69,-34.48 3409.56,-33.67"/>
<polygon fill="black" stroke="black" points="3411.18,-36.78 3418.86,-29.48 3408.3,-30.4 3411.18,-36.78"/>
<text text-anchor="middle" x="3371.49" y="-57.8" font-family="Times,serif" font-size="14.00">dep</text>
</g>
<!-- 38 -->
<g id="node39" class="node">
<title>38</title>
<ellipse fill="none" stroke="black" cx="3530.99" cy="-18" rx="46.29" ry="18"/>
<text text-anchor="middle" x="3530.99" y="-14.3" font-family="Times,serif" font-size="14.00">papeira</text>
</g>
<!-- 0&#45;&gt;38 -->
<g id="edge38" class="edge">
<title>0&#45;&gt;38</title>
<path fill="none" stroke="black" d="M3090.88,-103.2C3146.96,-101.08 3280.24,-93.65 3388.99,-69 3424.56,-60.94 3463.55,-46.81 3491.66,-35.62"/>
<polygon fill="black" stroke="black" points="3493.16,-38.79 3501.12,-31.8 3490.54,-32.3 3493.16,-38.79"/>
<text text-anchor="middle" x="3454.49" y="-57.8" font-family="Times,serif" font-size="14.00">dep</text>
</g>
<!-- 39 -->
<g id="node40" class="node">
<title>39</title>
<ellipse fill="none" stroke="black" cx="3621.99" cy="-18" rx="27" ry="18"/>
<text text-anchor="middle" x="3621.99" y="-14.3" font-family="Times,serif" font-size="14.00">(</text>
</g>
<!-- 0&#45;&gt;39 -->
<g id="edge39" class="edge">
<title>0&#45;&gt;39</title>
<path fill="none" stroke="black" d="M3090.97,-103.51C3156.69,-101.92 3330.1,-95.36 3471.99,-69 3523.85,-59.37 3536.66,-54.65 3585.99,-36 3587.84,-35.3 3589.72,-34.55 3591.6,-33.76"/>
<polygon fill="black" stroke="black" points="3593.19,-36.89 3600.92,-29.64 3590.36,-30.49 3593.19,-36.89"/>
<text text-anchor="middle" x="3549.49" y="-57.8" font-family="Times,serif" font-size="14.00">dep</text>
</g>
<!-- 40 -->
<g id="node41" class="node">
<title>40</title>
<ellipse fill="none" stroke="black" cx="3698.99" cy="-18" rx="32.49" ry="18"/>
<text text-anchor="middle" x="3698.99" y="-14.3" font-family="Times,serif" font-size="14.00">mais</text>
</g>
<!-- 0&#45;&gt;40 -->
<g id="edge40" class="edge">
<title>0&#45;&gt;40</title>
<path fill="none" stroke="black" d="M3090.85,-103.12C3181.36,-99.98 3474.72,-88.54 3566.99,-69 3601.86,-61.62 3639.71,-46.49 3665.9,-34.8"/>
<polygon fill="black" stroke="black" points="3667.68,-37.83 3675.34,-30.51 3664.79,-31.46 3667.68,-37.83"/>
<text text-anchor="middle" x="3629.49" y="-57.8" font-family="Times,serif" font-size="14.00">dep</text>
</g>
<!-- 41 -->
<g id="node42" class="node">
<title>41</title>
<ellipse fill="none" stroke="black" cx="3775.99" cy="-18" rx="27" ry="18"/>
<text text-anchor="middle" x="3775.99" y="-14.3" font-family="Times,serif" font-size="14.00">de</text>
</g>
<!-- 0&#45;&gt;41 -->
<g id="edge41" class="edge">
<title>0&#45;&gt;41</title>
<path fill="none" stroke="black" d="M3091.21,-103.38C3191.28,-100.94 3538.56,-91.03 3646.99,-69 3682.27,-61.83 3720.45,-45.92 3746.05,-33.96"/>
<polygon fill="black" stroke="black" points="3747.68,-37.06 3755.21,-29.6 3744.67,-30.74 3747.68,-37.06"/>
<text text-anchor="middle" x="3711.49" y="-57.8" font-family="Times,serif" font-size="14.00">dep</text>
</g>
<!-- 42 -->
<g id="node43" class="node">
<title>42</title>
<ellipse fill="none" stroke="black" cx="3852.99" cy="-18" rx="32.49" ry="18"/>
<text text-anchor="middle" x="3852.99" y="-14.3" font-family="Times,serif" font-size="14.00">onze</text>
</g>
<!-- 0&#45;&gt;42 -->
<g id="edge42" class="edge">
<title>0&#45;&gt;42</title>
<path fill="none" stroke="black" d="M3091.26,-103.74C3200.19,-102.54 3604.34,-96.29 3728.99,-69 3761.42,-61.9 3796.32,-47.13 3820.8,-35.47"/>
<polygon fill="black" stroke="black" points="3822.51,-38.54 3829.97,-31.02 3819.45,-32.24 3822.51,-38.54"/>
<text text-anchor="middle" x="3788.49" y="-57.8" font-family="Times,serif" font-size="14.00">dep</text>
</g>
<!-- 43 -->
<g id="node44" class="node">
<title>43</title>
<ellipse fill="none" stroke="black" cx="3929.99" cy="-18" rx="27" ry="18"/>
<text text-anchor="middle" x="3929.99" y="-14.3" font-family="Times,serif" font-size="14.00">mil</text>
</g>
<!-- 0&#45;&gt;43 -->
<g id="edge43" class="edge">
<title>0&#45;&gt;43</title>
<path fill="none" stroke="black" d="M3091.17,-103.85C3207.68,-103.02 3665.31,-97.95 3805.99,-69 3839.71,-62.06 3875.98,-46.38 3900.53,-34.42"/>
<polygon fill="black" stroke="black" points="3902.26,-37.46 3909.65,-29.88 3899.14,-31.2 3902.26,-37.46"/>
<text text-anchor="middle" x="3869.49" y="-57.8" font-family="Times,serif" font-size="14.00">dep</text>
</g>
<!-- 44 -->
<g id="node45" class="node">
<title>44</title>
<ellipse fill="none" stroke="black" cx="4040.99" cy="-18" rx="65.79" ry="18"/>
<text text-anchor="middle" x="4040.99" y="-14.3" font-family="Times,serif" font-size="14.00">notificações</text>
</g>
<!-- 0&#45;&gt;44 -->
<g id="edge44" class="edge">
<title>0&#45;&gt;44</title>
<path fill="none" stroke="black" d="M3091.13,-103.83C3215.19,-102.92 3729.01,-97.46 3886.99,-69 3924.94,-62.17 3966.43,-48.3 3996.77,-36.9"/>
<polygon fill="black" stroke="black" points="3998.12,-40.14 4006.22,-33.3 3995.63,-33.6 3998.12,-40.14"/>
<text text-anchor="middle" x="3957.49" y="-57.8" font-family="Times,serif" font-size="14.00">dep</text>
</g>
<!-- 45 -->
<g id="node46" class="node">
<title>45</title>
<ellipse fill="none" stroke="black" cx="4171.99" cy="-18" rx="47.39" ry="18"/>
<text text-anchor="middle" x="4171.99" y="-14.3" font-family="Times,serif" font-size="14.00">durante</text>
</g>
<!-- 0&#45;&gt;45 -->
<g id="edge45" class="edge">
<title>0&#45;&gt;45</title>
<path fill="none" stroke="black" d="M3091.29,-103.66C3223.46,-101.88 3797.75,-92.92 3974.99,-69 4028.35,-61.8 4088.08,-45.42 4127.63,-33.36"/>
<polygon fill="black" stroke="black" points="4128.72,-36.69 4137.24,-30.4 4126.65,-30 4128.72,-36.69"/>
<text text-anchor="middle" x="4065.49" y="-57.8" font-family="Times,serif" font-size="14.00">dep</text>
</g>
<!-- 46 -->
<g id="node47" class="node">
<title>46</title>
<ellipse fill="none" stroke="black" cx="4263.99" cy="-18" rx="27" ry="18"/>
<text text-anchor="middle" x="4263.99" y="-14.3" font-family="Times,serif" font-size="14.00">o</text>
</g>
<!-- 0&#45;&gt;46 -->
<g id="edge46" class="edge">
<title>0&#45;&gt;46</title>
<path fill="none" stroke="black" d="M3091.18,-103.76C3232.36,-102.43 3883.1,-94.94 4082.99,-69 4148.54,-60.49 4165.52,-57.57 4227.99,-36 4229.91,-35.34 4231.85,-34.61 4233.79,-33.83"/>
<polygon fill="black" stroke="black" points="4235.59,-36.87 4243.37,-29.68 4232.81,-30.44 4235.59,-36.87"/>
<text text-anchor="middle" x="4182.49" y="-57.8" font-family="Times,serif" font-size="14.00">dep</text>
</g>
<!-- 47 -->
<g id="node48" class="node">
<title>47</title>
<ellipse fill="none" stroke="black" cx="4335.99" cy="-18" rx="27.1" ry="18"/>
<text text-anchor="middle" x="4335.99" y="-14.3" font-family="Times,serif" font-size="14.00">ano</text>
</g>
<!-- 0&#45;&gt;47 -->
<g id="edge47" class="edge">
<title>0&#45;&gt;47</title>
<path fill="none" stroke="black" d="M3091.32,-104.22C3242.45,-105.29 3977.27,-108.33 4199.99,-69 4237.5,-62.38 4278.21,-46.1 4305.22,-33.9"/>
<polygon fill="black" stroke="black" points="4306.9,-36.98 4314.52,-29.62 4303.97,-30.62 4306.9,-36.98"/>
<text text-anchor="middle" x="4267.49" y="-57.8" font-family="Times,serif" font-size="14.00">dep</text>
</g>
<!-- 48 -->
<g id="node49" class="node">
<title>48</title>
<ellipse fill="none" stroke="black" cx="4428.99" cy="-18" rx="48.19" ry="18"/>
<text text-anchor="middle" x="4428.99" y="-14.3" font-family="Times,serif" font-size="14.00">passado</text>
</g>
<!-- 0&#45;&gt;48 -->
<g id="edge48" class="edge">
<title>0&#45;&gt;48</title>
<path fill="none" stroke="black" d="M3090.99,-103.72C3259.52,-101.91 4164.01,-91.19 4284.99,-69 4321.55,-62.29 4361.34,-47.9 4389.81,-36.27"/>
<polygon fill="black" stroke="black" points="4391.49,-39.36 4399.38,-32.29 4388.8,-32.89 4391.49,-39.36"/>
<text text-anchor="middle" x="4355.49" y="-57.8" font-family="Times,serif" font-size="14.00">dep</text>
</g>
<!-- 49 -->
<g id="node50" class="node">
<title>49</title>
<ellipse fill="none" stroke="black" cx="4521.99" cy="-18" rx="27" ry="18"/>
<text text-anchor="middle" x="4521.99" y="-14.3" font-family="Times,serif" font-size="14.00">)</text>
</g>
<!-- 0&#45;&gt;49 -->
<g id="edge49" class="edge">
<title>0&#45;&gt;49</title>
<path fill="none" stroke="black" d="M3091.05,-104.22C3254.65,-105.43 4113.3,-109.69 4372.99,-69 4424.68,-60.9 4437.08,-54.56 4485.99,-36 4487.84,-35.3 4489.71,-34.55 4491.6,-33.76"/>
<polygon fill="black" stroke="black" points="4493.19,-36.88 4500.91,-29.63 4490.35,-30.48 4493.19,-36.88"/>
<text text-anchor="middle" x="4450.49" y="-57.8" font-family="Times,serif" font-size="14.00">dep</text>
</g>
<!-- 50 -->
<g id="node51" class="node">
<title>50</title>
<ellipse fill="none" stroke="black" cx="4628.99" cy="-18" rx="62.29" ry="18"/>
<text text-anchor="middle" x="4628.99" y="-14.3" font-family="Times,serif" font-size="14.00">constituem</text>
</g>
<!-- 0&#45;&gt;50 -->
<g id="edge50" class="edge">
<title>0&#45;&gt;50</title>
<path fill="none" stroke="black" d="M3091.08,-103.77C3274.13,-102.19 4327.47,-92.11 4467.99,-69 4508.3,-62.37 4552.51,-48.11 4584.39,-36.51"/>
<polygon fill="black" stroke="black" points="4585.7,-39.75 4593.87,-33 4583.27,-33.19 4585.7,-39.75"/>
<text text-anchor="middle" x="4544.49" y="-57.8" font-family="Times,serif" font-size="14.00">dep</text>
</g>
<!-- 51 -->
<g id="node52" class="node">
<title>51</title>
<ellipse fill="none" stroke="black" cx="4749.99" cy="-18" rx="40.09" ry="18"/>
<text text-anchor="middle" x="4749.99" y="-14.3" font-family="Times,serif" font-size="14.00">outras</text>
</g>
<!-- 0&#45;&gt;51 -->
<g id="edge51" class="edge">
<title>0&#45;&gt;51</title>
<path fill="none" stroke="black" d="M3091.1,-104.15C3268.14,-105 4261.61,-107.98 4561.99,-69 4613.95,-62.26 4671.98,-45.33 4709.64,-33.03"/>
<polygon fill="black" stroke="black" points="4710.83,-36.32 4719.23,-29.85 4708.63,-29.67 4710.83,-36.32"/>
<text text-anchor="middle" x="4649.49" y="-57.8" font-family="Times,serif" font-size="14.00">dep</text>
</g>
<!-- 52 -->
<g id="node53" class="node">
<title>52</title>
<ellipse fill="none" stroke="black" cx="4834.99" cy="-18" rx="27" ry="18"/>
<text text-anchor="middle" x="4834.99" y="-14.3" font-family="Times,serif" font-size="14.00">de</text>
</g>
<!-- 0&#45;&gt;52 -->
<g id="edge52" class="edge">
<title>0&#45;&gt;52</title>
<path fill="none" stroke="black" d="M3091,-103.77C3288.31,-102.07 4504.82,-90.76 4666.99,-69 4726.93,-60.96 4742.05,-56.34 4798.99,-36 4800.85,-35.34 4802.74,-34.61 4804.63,-33.84"/>
<polygon fill="black" stroke="black" points="4806.2,-36.98 4813.97,-29.77 4803.4,-30.56 4806.2,-36.98"/>
<text text-anchor="middle" x="4759.49" y="-57.8" font-family="Times,serif" font-size="14.00">dep</text>
</g>
<!-- 53 -->
<g id="node54" class="node">
<title>53</title>
<ellipse fill="none" stroke="black" cx="4906.99" cy="-18" rx="27" ry="18"/>
<text text-anchor="middle" x="4906.99" y="-14.3" font-family="Times,serif" font-size="14.00">as</text>
</g>
<!-- 0&#45;&gt;53 -->
<g id="edge53" class="edge">
<title>0&#45;&gt;53</title>
<path fill="none" stroke="black" d="M3091.22,-103.96C3296.99,-103.62 4604.48,-100.22 4776.99,-69 4812.65,-62.55 4851.11,-46.52 4876.87,-34.33"/>
<polygon fill="black" stroke="black" points="4878.61,-37.38 4886.09,-29.88 4875.56,-31.08 4878.61,-37.38"/>
<text text-anchor="middle" x="4842.49" y="-57.8" font-family="Times,serif" font-size="14.00">dep</text>
</g>
<!-- 54 -->
<g id="node55" class="node">
<title>54</title>
<ellipse fill="none" stroke="black" cx="4995.99" cy="-18" rx="44.39" ry="18"/>
<text text-anchor="middle" x="4995.99" y="-14.3" font-family="Times,serif" font-size="14.00">facetas</text>
</g>
<!-- 0&#45;&gt;54 -->
<g id="edge54" class="edge">
<title>0&#45;&gt;54</title>
<path fill="none" stroke="black" d="M3091.18,-104.02C3302.49,-104.06 4678.97,-103.04 4859.99,-69 4894.78,-62.46 4932.42,-48 4959.26,-36.31"/>
<polygon fill="black" stroke="black" points="4960.92,-39.4 4968.64,-32.14 4958.08,-33 4960.92,-39.4"/>
<text text-anchor="middle" x="4927.49" y="-57.8" font-family="Times,serif" font-size="14.00">dep</text>
</g>
<!-- 55 -->
<g id="node56" class="node">
<title>55</title>
<ellipse fill="none" stroke="black" cx="5090.99" cy="-18" rx="32.49" ry="18"/>
<text text-anchor="middle" x="5090.99" y="-14.3" font-family="Times,serif" font-size="14.00">mais</text>
</g>
<!-- 0&#45;&gt;55 -->
<g id="edge55" class="edge">
<title>0&#45;&gt;55</title>
<path fill="none" stroke="black" d="M3091.07,-103.97C3307.56,-103.65 4754.24,-100.36 4944.99,-69 4984.9,-62.44 5028.5,-46.23 5057.57,-34.04"/>
<polygon fill="black" stroke="black" points="5059.02,-37.22 5066.84,-30.07 5056.27,-30.79 5059.02,-37.22"/>
<text text-anchor="middle" x="5016.49" y="-57.8" font-family="Times,serif" font-size="14.00">dep</text>
</g>
<!-- 56 -->
<g id="node57" class="node">
<title>56</title>
<ellipse fill="none" stroke="black" cx="5196.99" cy="-18" rx="55.79" ry="18"/>
<text text-anchor="middle" x="5196.99" y="-14.3" font-family="Times,serif" font-size="14.00">negativas</text>
</g>
<!-- 0&#45;&gt;56 -->
<g id="edge56" class="edge">
<title>0&#45;&gt;56</title>
<path fill="none" stroke="black" d="M3091.28,-103.98C3314.25,-103.73 4833.73,-100.85 5033.99,-69 5075.59,-62.39 5121.3,-47.68 5153.7,-35.92"/>
<polygon fill="black" stroke="black" points="5155.14,-39.12 5163.31,-32.37 5152.72,-32.55 5155.14,-39.12"/>
<text text-anchor="middle" x="5111.49" y="-57.8" font-family="Times,serif" font-size="14.00">dep</text>
</g>
<!-- 57 -->
<g id="node58" class="node">
<title>57</title>
<ellipse fill="none" stroke="black" cx="5297.99" cy="-18" rx="27" ry="18"/>
<text text-anchor="middle" x="5297.99" y="-14.3" font-family="Times,serif" font-size="14.00">de</text>
</g>
<!-- 0&#45;&gt;57 -->
<g id="edge57" class="edge">
<title>0&#45;&gt;57</title>
<path fill="none" stroke="black" d="M3091.12,-103.91C3319.48,-103.12 4917.79,-96.63 5128.99,-69 5189.38,-61.1 5204.62,-56.44 5261.99,-36 5263.9,-35.32 5265.84,-34.58 5267.78,-33.79"/>
<polygon fill="black" stroke="black" points="5269.59,-36.82 5277.35,-29.6 5266.79,-30.4 5269.59,-36.82"/>
<text text-anchor="middle" x="5221.49" y="-57.8" font-family="Times,serif" font-size="14.00">dep</text>
</g>
<!-- 58 -->
<g id="node59" class="node">
<title>58</title>
<ellipse fill="none" stroke="black" cx="5369.99" cy="-18" rx="27" ry="18"/>
<text text-anchor="middle" x="5369.99" y="-14.3" font-family="Times,serif" font-size="14.00">a</text>
</g>
<!-- 0&#45;&gt;58 -->
<g id="edge58" class="edge">
<title>0&#45;&gt;58</title>
<path fill="none" stroke="black" d="M3091.09,-104.09C3326.21,-104.76 5017.61,-108.19 5238.99,-69 5275.13,-62.6 5314.13,-46.4 5340.09,-34.16"/>
<polygon fill="black" stroke="black" points="5341.88,-37.19 5349.37,-29.69 5338.84,-30.88 5341.88,-37.19"/>
<text text-anchor="middle" x="5304.49" y="-57.8" font-family="Times,serif" font-size="14.00">dep</text>
</g>
<!-- 59 -->
<g id="node60" class="node">
<title>59</title>
<ellipse fill="none" stroke="black" cx="5463.99" cy="-18" rx="49.29" ry="18"/>
<text text-anchor="middle" x="5463.99" y="-14.3" font-family="Times,serif" font-size="14.00">situação</text>
</g>
<!-- 0&#45;&gt;59 -->
<g id="edge59" class="edge">
<title>0&#45;&gt;59</title>
<path fill="none" stroke="black" d="M3090.98,-104.11C3330.69,-105.01 5091.88,-110.17 5321.99,-69 5358.01,-62.56 5397.1,-48.21 5425.13,-36.53"/>
<polygon fill="black" stroke="black" points="5426.73,-39.65 5434.56,-32.52 5423.99,-33.21 5426.73,-39.65"/>
<text text-anchor="middle" x="5391.49" y="-57.8" font-family="Times,serif" font-size="14.00">dep</text>
</g>
<!-- 60 -->
<g id="node61" class="node">
<title>60</title>
<ellipse fill="none" stroke="black" cx="5594.99" cy="-18" rx="63.89" ry="18"/>
<text text-anchor="middle" x="5594.99" y="-14.3" font-family="Times,serif" font-size="14.00">portuguesa</text>
</g>
<!-- 0&#45;&gt;60 -->
<g id="edge60" class="edge">
<title>0&#45;&gt;60</title>
<path fill="none" stroke="black" d="M3091.22,-104C3336.94,-103.97 5168.3,-102.62 5408.99,-69 5456.72,-62.33 5509.66,-47.33 5546.82,-35.48"/>
<polygon fill="black" stroke="black" points="5547.95,-38.8 5556.39,-32.39 5545.79,-32.14 5547.95,-38.8"/>
<text text-anchor="middle" x="5495.49" y="-57.8" font-family="Times,serif" font-size="14.00">dep</text>
</g>
<!-- 61 -->
<g id="node62" class="node">
<title>61</title>
<ellipse fill="none" stroke="black" cx="5703.99" cy="-18" rx="27" ry="18"/>
<text text-anchor="middle" x="5703.99" y="-14.3" font-family="Times,serif" font-size="14.00">em</text>
</g>
<!-- 0&#45;&gt;61 -->
<g id="edge61" class="edge">
<title>0&#45;&gt;61</title>
<path fill="none" stroke="black" d="M3091.22,-103.93C3342.92,-103.28 5260.39,-97.42 5512.99,-69 5582.99,-61.13 5601.26,-58.52 5667.99,-36 5669.91,-35.35 5671.86,-34.63 5673.81,-33.86"/>
<polygon fill="black" stroke="black" points="5675.6,-36.9 5683.39,-29.73 5672.82,-30.47 5675.6,-36.9"/>
<text text-anchor="middle" x="5621.49" y="-57.8" font-family="Times,serif" font-size="14.00">dep</text>
</g>
<!-- 62 -->
<g id="node63" class="node">
<title>62</title>
<ellipse fill="none" stroke="black" cx="5795.99" cy="-18" rx="46.59" ry="18"/>
<text text-anchor="middle" x="5795.99" y="-14.3" font-family="Times,serif" font-size="14.00">matéria</text>
</g>
<!-- 0&#45;&gt;62 -->
<g id="edge62" class="edge">
<title>0&#45;&gt;62</title>
<path fill="none" stroke="black" d="M3090.94,-103.86C3357.02,-102.46 5506.53,-90.51 5638.99,-69 5679.76,-62.38 5724.48,-47.33 5755.73,-35.45"/>
<polygon fill="black" stroke="black" points="5757.31,-38.59 5765.38,-31.73 5754.79,-32.06 5757.31,-38.59"/>
<text text-anchor="middle" x="5714.49" y="-57.8" font-family="Times,serif" font-size="14.00">dep</text>
</g>
<!-- 63 -->
<g id="node64" class="node">
<title>63</title>
<ellipse fill="none" stroke="black" cx="5887.99" cy="-18" rx="27" ry="18"/>
<text text-anchor="middle" x="5887.99" y="-14.3" font-family="Times,serif" font-size="14.00">de</text>
</g>
<!-- 0&#45;&gt;63 -->
<g id="edge63" class="edge">
<title>0&#45;&gt;63</title>
<path fill="none" stroke="black" d="M3091.14,-104.06C3354.86,-104.64 5456.95,-107.97 5731.99,-69 5786.76,-61.24 5800.13,-55.21 5851.99,-36 5853.84,-35.32 5855.72,-34.57 5857.61,-33.79"/>
<polygon fill="black" stroke="black" points="5859.19,-36.92 5866.93,-29.69 5856.37,-30.51 5859.19,-36.92"/>
<text text-anchor="middle" x="5815.49" y="-57.8" font-family="Times,serif" font-size="14.00">dep</text>
</g>
<!-- 64 -->
<g id="node65" class="node">
<title>64</title>
<ellipse fill="none" stroke="black" cx="5980.99" cy="-18" rx="48.19" ry="18"/>
<text text-anchor="middle" x="5980.99" y="-14.3" font-family="Times,serif" font-size="14.00">doenças</text>
</g>
<!-- 0&#45;&gt;64 -->
<g id="edge64" class="edge">
<title>0&#45;&gt;64</title>
<path fill="none" stroke="black" d="M3091.22,-103.9C3369.49,-102.85 5690.45,-93.35 5832.99,-69 5870.94,-62.52 5912.31,-47.85 5941.64,-36.07"/>
<polygon fill="black" stroke="black" points="5943.17,-39.22 5951.1,-32.2 5940.52,-32.74 5943.17,-39.22"/>
<text text-anchor="middle" x="5905.49" y="-57.8" font-family="Times,serif" font-size="14.00">dep</text>
</g>
<!-- 65 -->
<g id="node66" class="node">
<title>65</title>
<ellipse fill="none" stroke="black" cx="6124.99" cy="-18" rx="77.99" ry="18"/>
<text text-anchor="middle" x="6124.99" y="-14.3" font-family="Times,serif" font-size="14.00">transmissíveis</text>
</g>
<!-- 0&#45;&gt;65 -->
<g id="edge65" class="edge">
<title>0&#45;&gt;65</title>
<path fill="none" stroke="black" d="M3091.34,-104.05C3366.22,-104.49 5627.11,-106.91 5922.99,-69 5974.14,-62.45 6031.05,-47.66 6071.39,-35.85"/>
<polygon fill="black" stroke="black" points="6072.43,-39.2 6081.02,-33 6070.44,-32.49 6072.43,-39.2"/>
<text text-anchor="middle" x="6015.49" y="-57.8" font-family="Times,serif" font-size="14.00">dep</text>
</g>
<!-- 66 -->
<g id="node67" class="node">
<title>66</title>
<ellipse fill="none" stroke="black" cx="6247.99" cy="-18" rx="27" ry="18"/>
<text text-anchor="middle" x="6247.99" y="-14.3" font-family="Times,serif" font-size="14.00">.</text>
</g>
<!-- 0&#45;&gt;66 -->
<g id="edge66" class="edge">
<title>0&#45;&gt;66</title>
<path fill="none" stroke="black" d="M3091.06,-103.96C3370.4,-103.54 5724.2,-99.06 6032.99,-69 6113.51,-61.16 6135,-60.81 6211.99,-36 6213.92,-35.38 6215.87,-34.68 6217.83,-33.93"/>
<polygon fill="black" stroke="black" points="6219.6,-36.97 6227.43,-29.83 6216.85,-30.53 6219.6,-36.97"/>
<text text-anchor="middle" x="6162.49" y="-57.8" font-family="Times,serif" font-size="14.00">dep</text>
</g>
</g>
</svg>
