<?xml version="1.0" encoding="UTF-8" standalone="no"?>
<!DOCTYPE svg PUBLIC "-//W3C//DTD SVG 1.1//EN"
 "http://www.w3.org/Graphics/SVG/1.1/DTD/svg11.dtd">
<!-- Generated by graphviz version 2.42.4 (0)
 -->
<!-- Pages: 1 -->
<svg width="431pt" height="131pt"
 viewBox="0.00 0.00 431.00 131.00" xmlns="http://www.w3.org/2000/svg" xmlns:xlink="http://www.w3.org/1999/xlink">
<g id="graph0" class="graph" transform="scale(1 1) rotate(0) translate(4 127)">
<polygon fill="white" stroke="transparent" points="-4,4 -4,-127 427,-127 427,4 -4,4"/>
<!-- 0 -->
<g id="node1" class="node">
<title>0</title>
<ellipse fill="none" stroke="black" cx="207" cy="-105" rx="28.7" ry="18"/>
<text text-anchor="middle" x="207" y="-101.3" font-family="Times,serif" font-size="14.00">J.M.</text>
</g>
<!-- 1 -->
<g id="node2" class="node">
<title>1</title>
<ellipse fill="none" stroke="black" cx="27" cy="-18" rx="27" ry="18"/>
<text text-anchor="middle" x="27" y="-14.3" font-family="Times,serif" font-size="14.00">&#45;&#45;</text>
</g>
<!-- 0&#45;&gt;1 -->
<g id="edge1" class="edge">
<title>0&#45;&gt;1</title>
<path fill="none" stroke="black" d="M181.59,-96.66C161.23,-90.39 132.17,-80.57 108,-69 89.06,-59.93 68.97,-47.55 53.53,-37.38"/>
<polygon fill="black" stroke="black" points="55.28,-34.34 45.02,-31.68 51.39,-40.15 55.28,-34.34"/>
<text text-anchor="middle" x="121.5" y="-57.8" font-family="Times,serif" font-size="14.00">dep</text>
</g>
<!-- 2 -->
<g id="node3" class="node">
<title>2</title>
<ellipse fill="none" stroke="black" cx="99" cy="-18" rx="27" ry="18"/>
<text text-anchor="middle" x="99" y="-14.3" font-family="Times,serif" font-size="14.00">Aí</text>
</g>
<!-- 0&#45;&gt;2 -->
<g id="edge2" class="edge">
<title>0&#45;&gt;2</title>
<path fill="none" stroke="black" d="M187.73,-91.56C178.02,-85.09 166.17,-76.91 156,-69 144.36,-59.95 131.98,-49.24 121.75,-40.06"/>
<polygon fill="black" stroke="black" points="123.82,-37.21 114.06,-33.09 119.12,-42.4 123.82,-37.21"/>
<text text-anchor="middle" x="169.5" y="-57.8" font-family="Times,serif" font-size="14.00">dep</text>
</g>
<!-- 3 -->
<g id="node4" class="node">
<title>3</title>
<ellipse fill="none" stroke="black" cx="171" cy="-18" rx="27" ry="18"/>
<text text-anchor="middle" x="171" y="-14.3" font-family="Times,serif" font-size="14.00">é</text>
</g>
<!-- 0&#45;&gt;3 -->
<g id="edge3" class="edge">
<title>0&#45;&gt;3</title>
<path fill="none" stroke="black" d="M199.89,-87.21C194.78,-75.14 187.79,-58.64 181.97,-44.89"/>
<polygon fill="black" stroke="black" points="185.1,-43.31 177.98,-35.47 178.65,-46.04 185.1,-43.31"/>
<text text-anchor="middle" x="205.5" y="-57.8" font-family="Times,serif" font-size="14.00">dep</text>
</g>
<!-- 4 -->
<g id="node5" class="node">
<title>4</title>
<ellipse fill="none" stroke="black" cx="244" cy="-18" rx="27.9" ry="18"/>
<text text-anchor="middle" x="244" y="-14.3" font-family="Times,serif" font-size="14.00">que</text>
</g>
<!-- 0&#45;&gt;4 -->
<g id="edge4" class="edge">
<title>0&#45;&gt;4</title>
<path fill="none" stroke="black" d="M214.31,-87.21C219.56,-75.14 226.75,-58.64 232.73,-44.89"/>
<polygon fill="black" stroke="black" points="236.05,-46.04 236.83,-35.47 229.63,-43.24 236.05,-46.04"/>
<text text-anchor="middle" x="241.5" y="-57.8" font-family="Times,serif" font-size="14.00">dep</text>
</g>
<!-- 5 -->
<g id="node6" class="node">
<title>5</title>
<ellipse fill="none" stroke="black" cx="320" cy="-18" rx="30.59" ry="18"/>
<text text-anchor="middle" x="320" y="-14.3" font-family="Times,serif" font-size="14.00">está</text>
</g>
<!-- 0&#45;&gt;5 -->
<g id="edge5" class="edge">
<title>0&#45;&gt;5</title>
<path fill="none" stroke="black" d="M226.56,-91.46C236.44,-84.97 248.52,-76.79 259,-69 271.35,-59.82 284.6,-49.06 295.6,-39.89"/>
<polygon fill="black" stroke="black" points="298.11,-42.35 303.51,-33.23 293.6,-36.99 298.11,-42.35"/>
<text text-anchor="middle" x="291.5" y="-57.8" font-family="Times,serif" font-size="14.00">dep</text>
</g>
<!-- 6 -->
<g id="node7" class="node">
<title>6</title>
<ellipse fill="none" stroke="black" cx="396" cy="-18" rx="27" ry="18"/>
<text text-anchor="middle" x="396" y="-14.3" font-family="Times,serif" font-size="14.00">.</text>
</g>
<!-- 0&#45;&gt;6 -->
<g id="edge6" class="edge">
<title>0&#45;&gt;6</title>
<path fill="none" stroke="black" d="M232.67,-96.68C253.62,-90.36 283.77,-80.45 309,-69 329.61,-59.64 351.71,-46.9 368.48,-36.63"/>
<polygon fill="black" stroke="black" points="370.56,-39.46 377.21,-31.21 366.87,-33.51 370.56,-39.46"/>
<text text-anchor="middle" x="352.5" y="-57.8" font-family="Times,serif" font-size="14.00">dep</text>
</g>
</g>
</svg>
