<?xml version="1.0" encoding="UTF-8" standalone="no"?>
<!DOCTYPE svg PUBLIC "-//W3C//DTD SVG 1.1//EN"
 "http://www.w3.org/Graphics/SVG/1.1/DTD/svg11.dtd">
<!-- Generated by graphviz version 2.42.4 (0)
 -->
<!-- Pages: 1 -->
<svg width="2671pt" height="131pt"
 viewBox="0.00 0.00 2671.00 131.00" xmlns="http://www.w3.org/2000/svg" xmlns:xlink="http://www.w3.org/1999/xlink">
<g id="graph0" class="graph" transform="scale(1 1) rotate(0) translate(4 127)">
<polygon fill="white" stroke="transparent" points="-4,4 -4,-127 2667,-127 2667,4 -4,4"/>
<!-- 0 -->
<g id="node1" class="node">
<title>0</title>
<ellipse fill="none" stroke="black" cx="1380" cy="-105" rx="29.5" ry="18"/>
<text text-anchor="middle" x="1380" y="-101.3" font-family="Times,serif" font-size="14.00">Não</text>
</g>
<!-- 1 -->
<g id="node2" class="node">
<title>1</title>
<ellipse fill="none" stroke="black" cx="27" cy="-18" rx="27" ry="18"/>
<text text-anchor="middle" x="27" y="-14.3" font-family="Times,serif" font-size="14.00">lhe</text>
</g>
<!-- 0&#45;&gt;1 -->
<g id="edge1" class="edge">
<title>0&#45;&gt;1</title>
<path fill="none" stroke="black" d="M1350.66,-103.72C1175.83,-101.99 274.8,-92.01 154,-69 119.12,-62.36 81.56,-46.36 56.4,-34.23"/>
<polygon fill="black" stroke="black" points="57.92,-31.08 47.4,-29.8 54.83,-37.36 57.92,-31.08"/>
<text text-anchor="middle" x="167.5" y="-57.8" font-family="Times,serif" font-size="14.00">dep</text>
</g>
<!-- 2 -->
<g id="node3" class="node">
<title>2</title>
<ellipse fill="none" stroke="black" cx="99" cy="-18" rx="27" ry="18"/>
<text text-anchor="middle" x="99" y="-14.3" font-family="Times,serif" font-size="14.00">diz</text>
</g>
<!-- 0&#45;&gt;2 -->
<g id="edge2" class="edge">
<title>0&#45;&gt;2</title>
<path fill="none" stroke="black" d="M1350.54,-104.1C1195.14,-104.45 469.49,-104.18 248,-69 196.33,-60.79 183.92,-54.56 135,-36 133.16,-35.3 131.28,-34.55 129.4,-33.76"/>
<polygon fill="black" stroke="black" points="130.64,-30.48 120.08,-29.63 127.81,-36.88 130.64,-30.48"/>
<text text-anchor="middle" x="261.5" y="-57.8" font-family="Times,serif" font-size="14.00">dep</text>
</g>
<!-- 3 -->
<g id="node4" class="node">
<title>3</title>
<ellipse fill="none" stroke="black" cx="177" cy="-18" rx="33.29" ry="18"/>
<text text-anchor="middle" x="177" y="-14.3" font-family="Times,serif" font-size="14.00">nada</text>
</g>
<!-- 0&#45;&gt;3 -->
<g id="edge3" class="edge">
<title>0&#45;&gt;3</title>
<path fill="none" stroke="black" d="M1350.35,-103.78C1203.96,-102.57 557.26,-95.79 358,-69 295.07,-60.54 279.49,-55.3 219,-36 216.57,-35.23 214.09,-34.38 211.6,-33.48"/>
<polygon fill="black" stroke="black" points="212.68,-30.15 202.09,-29.88 210.2,-36.69 212.68,-30.15"/>
<text text-anchor="middle" x="371.5" y="-57.8" font-family="Times,serif" font-size="14.00">dep</text>
</g>
<!-- 4 -->
<g id="node5" class="node">
<title>4</title>
<ellipse fill="none" stroke="black" cx="270" cy="-18" rx="42.49" ry="18"/>
<text text-anchor="middle" x="270" y="-14.3" font-family="Times,serif" font-size="14.00">Ernest</text>
</g>
<!-- 0&#45;&gt;4 -->
<g id="edge4" class="edge">
<title>0&#45;&gt;4</title>
<path fill="none" stroke="black" d="M1350.61,-103.56C1214.97,-101.42 648.68,-91.28 473,-69 404.42,-60.3 387.67,-54.29 321,-36 317.8,-35.12 314.52,-34.16 311.22,-33.16"/>
<polygon fill="black" stroke="black" points="311.99,-29.73 301.4,-30.06 309.88,-36.41 311.99,-29.73"/>
<text text-anchor="middle" x="486.5" y="-57.8" font-family="Times,serif" font-size="14.00">dep</text>
</g>
<!-- 5 -->
<g id="node6" class="node">
<title>5</title>
<ellipse fill="none" stroke="black" cx="396" cy="-18" rx="65.79" ry="18"/>
<text text-anchor="middle" x="396" y="-14.3" font-family="Times,serif" font-size="14.00">Hemingway</text>
</g>
<!-- 0&#45;&gt;5 -->
<g id="edge5" class="edge">
<title>0&#45;&gt;5</title>
<path fill="none" stroke="black" d="M1350.59,-103.71C1223.38,-102.3 719.93,-95.14 564,-69 522.07,-61.97 475.87,-47.72 442.55,-36.23"/>
<polygon fill="black" stroke="black" points="443.67,-32.91 433.07,-32.91 441.36,-39.52 443.67,-32.91"/>
<text text-anchor="middle" x="577.5" y="-57.8" font-family="Times,serif" font-size="14.00">dep</text>
</g>
<!-- 6 -->
<g id="node7" class="node">
<title>6</title>
<ellipse fill="none" stroke="black" cx="507" cy="-18" rx="27" ry="18"/>
<text text-anchor="middle" x="507" y="-14.3" font-family="Times,serif" font-size="14.00">,</text>
</g>
<!-- 0&#45;&gt;6 -->
<g id="edge6" class="edge">
<title>0&#45;&gt;6</title>
<path fill="none" stroke="black" d="M1350.77,-103.41C1233.97,-100.91 800.5,-90.39 665,-69 609.52,-60.24 595.71,-55.4 543,-36 541.15,-35.32 539.27,-34.58 537.38,-33.8"/>
<polygon fill="black" stroke="black" points="538.62,-30.52 528.05,-29.7 535.8,-36.93 538.62,-30.52"/>
<text text-anchor="middle" x="678.5" y="-57.8" font-family="Times,serif" font-size="14.00">dep</text>
</g>
<!-- 7 -->
<g id="node8" class="node">
<title>7</title>
<ellipse fill="none" stroke="black" cx="596" cy="-18" rx="44.39" ry="18"/>
<text text-anchor="middle" x="596" y="-14.3" font-family="Times,serif" font-size="14.00">Prémio</text>
</g>
<!-- 0&#45;&gt;7 -->
<g id="edge7" class="edge">
<title>0&#45;&gt;7</title>
<path fill="none" stroke="black" d="M1350.7,-103.36C1243,-100.83 869.17,-90.68 752,-69 711.5,-61.51 666.89,-46.49 635.79,-34.86"/>
<polygon fill="black" stroke="black" points="636.78,-31.49 626.19,-31.22 634.3,-38.04 636.78,-31.49"/>
<text text-anchor="middle" x="765.5" y="-57.8" font-family="Times,serif" font-size="14.00">dep</text>
</g>
<!-- 8 -->
<g id="node9" class="node">
<title>8</title>
<ellipse fill="none" stroke="black" cx="697" cy="-18" rx="38.19" ry="18"/>
<text text-anchor="middle" x="697" y="-14.3" font-family="Times,serif" font-size="14.00">Nobel</text>
</g>
<!-- 0&#45;&gt;8 -->
<g id="edge8" class="edge">
<title>0&#45;&gt;8</title>
<path fill="none" stroke="black" d="M1350.74,-103.25C1252.12,-100.55 932.48,-90.34 832,-69 797.16,-61.6 759.28,-46.95 732.53,-35.41"/>
<polygon fill="black" stroke="black" points="733.78,-32.13 723.21,-31.32 730.96,-38.54 733.78,-32.13"/>
<text text-anchor="middle" x="845.5" y="-57.8" font-family="Times,serif" font-size="14.00">dep</text>
</g>
<!-- 9 -->
<g id="node10" class="node">
<title>9</title>
<ellipse fill="none" stroke="black" cx="780" cy="-18" rx="27" ry="18"/>
<text text-anchor="middle" x="780" y="-14.3" font-family="Times,serif" font-size="14.00">de</text>
</g>
<!-- 0&#45;&gt;9 -->
<g id="edge9" class="edge">
<title>0&#45;&gt;9</title>
<path fill="none" stroke="black" d="M1350.69,-104.21C1277.03,-104.22 1078.51,-101 917,-69 870.68,-59.82 859.88,-53.45 816,-36 814.17,-35.27 812.3,-34.5 810.42,-33.69"/>
<polygon fill="black" stroke="black" points="811.68,-30.42 801.13,-29.52 808.82,-36.8 811.68,-30.42"/>
<text text-anchor="middle" x="930.5" y="-57.8" font-family="Times,serif" font-size="14.00">dep</text>
</g>
<!-- 10 -->
<g id="node11" class="node">
<title>10</title>
<ellipse fill="none" stroke="black" cx="852" cy="-18" rx="27" ry="18"/>
<text text-anchor="middle" x="852" y="-14.3" font-family="Times,serif" font-size="14.00">a</text>
</g>
<!-- 0&#45;&gt;10 -->
<g id="edge10" class="edge">
<title>0&#45;&gt;10</title>
<path fill="none" stroke="black" d="M1351,-102.45C1290.46,-98.91 1146.35,-88.99 1027,-69 964.38,-58.51 947.92,-57 888,-36 886.09,-35.33 884.15,-34.59 882.21,-33.81"/>
<polygon fill="black" stroke="black" points="883.2,-30.42 872.63,-29.64 880.4,-36.84 883.2,-30.42"/>
<text text-anchor="middle" x="1040.5" y="-57.8" font-family="Times,serif" font-size="14.00">dep</text>
</g>
<!-- 11 -->
<g id="node12" class="node">
<title>11</title>
<ellipse fill="none" stroke="black" cx="955" cy="-18" rx="57.69" ry="18"/>
<text text-anchor="middle" x="955" y="-14.3" font-family="Times,serif" font-size="14.00">Literatura</text>
</g>
<!-- 0&#45;&gt;11 -->
<g id="edge11" class="edge">
<title>0&#45;&gt;11</title>
<path fill="none" stroke="black" d="M1350.81,-102.01C1300.82,-98.22 1195.78,-88.51 1109,-69 1071.38,-60.54 1029.87,-46.79 999.43,-35.85"/>
<polygon fill="black" stroke="black" points="1000.55,-32.54 989.96,-32.41 998.16,-39.12 1000.55,-32.54"/>
<text text-anchor="middle" x="1122.5" y="-57.8" font-family="Times,serif" font-size="14.00">dep</text>
</g>
<!-- 12 -->
<g id="node13" class="node">
<title>12</title>
<ellipse fill="none" stroke="black" cx="1058" cy="-18" rx="27" ry="18"/>
<text text-anchor="middle" x="1058" y="-14.3" font-family="Times,serif" font-size="14.00">,</text>
</g>
<!-- 0&#45;&gt;12 -->
<g id="edge12" class="edge">
<title>0&#45;&gt;12</title>
<path fill="none" stroke="black" d="M1351.56,-100.31C1313.63,-95.06 1244.59,-84.33 1187,-69 1144.62,-57.72 1134.55,-52.72 1094,-36 1092.18,-35.25 1090.32,-34.45 1088.45,-33.64"/>
<polygon fill="black" stroke="black" points="1089.72,-30.37 1079.16,-29.42 1086.82,-36.74 1089.72,-30.37"/>
<text text-anchor="middle" x="1200.5" y="-57.8" font-family="Times,serif" font-size="14.00">dep</text>
</g>
<!-- 13 -->
<g id="node14" class="node">
<title>13</title>
<ellipse fill="none" stroke="black" cx="1130" cy="-18" rx="27" ry="18"/>
<text text-anchor="middle" x="1130" y="-14.3" font-family="Times,serif" font-size="14.00">um</text>
</g>
<!-- 0&#45;&gt;13 -->
<g id="edge13" class="edge">
<title>0&#45;&gt;13</title>
<path fill="none" stroke="black" d="M1353.48,-97.08C1312.55,-86.07 1231.82,-63.01 1166,-36 1164.18,-35.25 1162.31,-34.46 1160.44,-33.64"/>
<polygon fill="black" stroke="black" points="1161.71,-30.37 1151.16,-29.44 1158.82,-36.75 1161.71,-30.37"/>
<text text-anchor="middle" x="1266.5" y="-57.8" font-family="Times,serif" font-size="14.00">dep</text>
</g>
<!-- 14 -->
<g id="node15" class="node">
<title>14</title>
<ellipse fill="none" stroke="black" cx="1220" cy="-18" rx="44.69" ry="18"/>
<text text-anchor="middle" x="1220" y="-14.3" font-family="Times,serif" font-size="14.00">homem</text>
</g>
<!-- 0&#45;&gt;14 -->
<g id="edge14" class="edge">
<title>0&#45;&gt;14</title>
<path fill="none" stroke="black" d="M1358.42,-92.54C1331.87,-78.43 1286.44,-54.3 1254.9,-37.54"/>
<polygon fill="black" stroke="black" points="1256.47,-34.41 1246,-32.81 1253.19,-40.59 1256.47,-34.41"/>
<text text-anchor="middle" x="1323.5" y="-57.8" font-family="Times,serif" font-size="14.00">dep</text>
</g>
<!-- 15 -->
<g id="node16" class="node">
<title>15</title>
<ellipse fill="none" stroke="black" cx="1333" cy="-18" rx="50.09" ry="18"/>
<text text-anchor="middle" x="1333" y="-14.3" font-family="Times,serif" font-size="14.00">cativado</text>
</g>
<!-- 0&#45;&gt;15 -->
<g id="edge15" class="edge">
<title>0&#45;&gt;15</title>
<path fill="none" stroke="black" d="M1370.94,-87.61C1364.26,-75.54 1355.05,-58.88 1347.37,-45"/>
<polygon fill="black" stroke="black" points="1350.26,-42.98 1342.36,-35.92 1344.13,-46.37 1350.26,-42.98"/>
<text text-anchor="middle" x="1373.5" y="-57.8" font-family="Times,serif" font-size="14.00">dep</text>
</g>
<!-- 16 -->
<g id="node17" class="node">
<title>16</title>
<ellipse fill="none" stroke="black" cx="1428" cy="-18" rx="27" ry="18"/>
<text text-anchor="middle" x="1428" y="-14.3" font-family="Times,serif" font-size="14.00">por</text>
</g>
<!-- 0&#45;&gt;16 -->
<g id="edge16" class="edge">
<title>0&#45;&gt;16</title>
<path fill="none" stroke="black" d="M1389.25,-87.61C1396.27,-75.19 1406.03,-57.9 1414,-43.78"/>
<polygon fill="black" stroke="black" points="1417.07,-45.48 1418.94,-35.05 1410.97,-42.04 1417.07,-45.48"/>
<text text-anchor="middle" x="1420.5" y="-57.8" font-family="Times,serif" font-size="14.00">dep</text>
</g>
<!-- 17 -->
<g id="node18" class="node">
<title>17</title>
<ellipse fill="none" stroke="black" cx="1500" cy="-18" rx="27" ry="18"/>
<text text-anchor="middle" x="1500" y="-14.3" font-family="Times,serif" font-size="14.00">a</text>
</g>
<!-- 0&#45;&gt;17 -->
<g id="edge17" class="edge">
<title>0&#45;&gt;17</title>
<path fill="none" stroke="black" d="M1400.83,-92.35C1412.07,-85.84 1426.05,-77.36 1438,-69 1451.13,-59.81 1465.07,-48.7 1476.41,-39.28"/>
<polygon fill="black" stroke="black" points="1478.74,-41.89 1484.15,-32.78 1474.24,-36.53 1478.74,-41.89"/>
<text text-anchor="middle" x="1471.5" y="-57.8" font-family="Times,serif" font-size="14.00">dep</text>
</g>
<!-- 18 -->
<g id="node19" class="node">
<title>18</title>
<ellipse fill="none" stroke="black" cx="1579" cy="-18" rx="33.6" ry="18"/>
<text text-anchor="middle" x="1579" y="-14.3" font-family="Times,serif" font-size="14.00">festa</text>
</g>
<!-- 0&#45;&gt;18 -->
<g id="edge18" class="edge">
<title>0&#45;&gt;18</title>
<path fill="none" stroke="black" d="M1406.52,-97.06C1428.92,-90.83 1461.64,-80.85 1489,-69 1509.62,-60.07 1531.69,-47.85 1548.82,-37.73"/>
<polygon fill="black" stroke="black" points="1551,-40.5 1557.78,-32.35 1547.41,-34.49 1551,-40.5"/>
<text text-anchor="middle" x="1533.5" y="-57.8" font-family="Times,serif" font-size="14.00">dep</text>
</g>
<!-- 19 -->
<g id="node20" class="node">
<title>19</title>
<ellipse fill="none" stroke="black" cx="1658" cy="-18" rx="27" ry="18"/>
<text text-anchor="middle" x="1658" y="-14.3" font-family="Times,serif" font-size="14.00">e</text>
</g>
<!-- 0&#45;&gt;19 -->
<g id="edge19" class="edge">
<title>0&#45;&gt;19</title>
<path fill="none" stroke="black" d="M1408.36,-100.27C1442.72,-95.27 1502.08,-85.13 1551,-69 1584.05,-58.1 1590.49,-50.76 1622,-36 1623.78,-35.16 1625.62,-34.3 1627.47,-33.43"/>
<polygon fill="black" stroke="black" points="1629.13,-36.52 1636.69,-29.09 1626.15,-30.18 1629.13,-36.52"/>
<text text-anchor="middle" x="1599.5" y="-57.8" font-family="Times,serif" font-size="14.00">dep</text>
</g>
<!-- 20 -->
<g id="node21" class="node">
<title>20</title>
<ellipse fill="none" stroke="black" cx="1731" cy="-18" rx="27.9" ry="18"/>
<text text-anchor="middle" x="1731" y="-14.3" font-family="Times,serif" font-size="14.00">que</text>
</g>
<!-- 0&#45;&gt;20 -->
<g id="edge20" class="edge">
<title>0&#45;&gt;20</title>
<path fill="none" stroke="black" d="M1408.96,-102.14C1454.12,-98.7 1543.76,-89.72 1617,-69 1646.66,-60.61 1678.66,-46.05 1701.18,-34.8"/>
<polygon fill="black" stroke="black" points="1702.89,-37.85 1710.22,-30.2 1699.72,-31.61 1702.89,-37.85"/>
<text text-anchor="middle" x="1672.5" y="-57.8" font-family="Times,serif" font-size="14.00">dep</text>
</g>
<!-- 21 -->
<g id="node22" class="node">
<title>21</title>
<ellipse fill="none" stroke="black" cx="1828" cy="-18" rx="51.19" ry="18"/>
<text text-anchor="middle" x="1828" y="-14.3" font-family="Times,serif" font-size="14.00">escolheu</text>
</g>
<!-- 0&#45;&gt;21 -->
<g id="edge21" class="edge">
<title>0&#45;&gt;21</title>
<path fill="none" stroke="black" d="M1409.45,-102.98C1465,-100.54 1588.75,-92.71 1690,-69 1723.7,-61.11 1760.48,-47.52 1787.6,-36.49"/>
<polygon fill="black" stroke="black" points="1789.21,-39.61 1797.12,-32.57 1786.54,-33.14 1789.21,-39.61"/>
<text text-anchor="middle" x="1754.5" y="-57.8" font-family="Times,serif" font-size="14.00">dep</text>
</g>
<!-- 22 -->
<g id="node23" class="node">
<title>22</title>
<ellipse fill="none" stroke="black" cx="1924" cy="-18" rx="27" ry="18"/>
<text text-anchor="middle" x="1924" y="-14.3" font-family="Times,serif" font-size="14.00">a</text>
</g>
<!-- 0&#45;&gt;22 -->
<g id="edge22" class="edge">
<title>0&#45;&gt;22</title>
<path fill="none" stroke="black" d="M1409.27,-103.26C1474.77,-101.21 1637.97,-93.82 1772,-69 1824.71,-59.24 1837.82,-54.84 1888,-36 1889.84,-35.31 1891.72,-34.56 1893.61,-33.77"/>
<polygon fill="black" stroke="black" points="1895.2,-36.9 1902.93,-29.66 1892.37,-30.5 1895.2,-36.9"/>
<text text-anchor="middle" x="1850.5" y="-57.8" font-family="Times,serif" font-size="14.00">dep</text>
</g>
<!-- 23 -->
<g id="node24" class="node">
<title>23</title>
<ellipse fill="none" stroke="black" cx="2003" cy="-18" rx="34.39" ry="18"/>
<text text-anchor="middle" x="2003" y="-14.3" font-family="Times,serif" font-size="14.00">terra</text>
</g>
<!-- 0&#45;&gt;23 -->
<g id="edge23" class="edge">
<title>0&#45;&gt;23</title>
<path fill="none" stroke="black" d="M1409.26,-104.66C1485.65,-105.78 1697,-105.09 1868,-69 1903.5,-61.51 1942.15,-46.43 1968.96,-34.79"/>
<polygon fill="black" stroke="black" points="1970.55,-37.91 1978.28,-30.67 1967.72,-31.51 1970.55,-37.91"/>
<text text-anchor="middle" x="1931.5" y="-57.8" font-family="Times,serif" font-size="14.00">dep</text>
</g>
<!-- 24 -->
<g id="node25" class="node">
<title>24</title>
<ellipse fill="none" stroke="black" cx="2082" cy="-18" rx="27" ry="18"/>
<text text-anchor="middle" x="2082" y="-14.3" font-family="Times,serif" font-size="14.00">de</text>
</g>
<!-- 0&#45;&gt;24 -->
<g id="edge24" class="edge">
<title>0&#45;&gt;24</title>
<path fill="none" stroke="black" d="M1409.3,-103.23C1510.38,-100.4 1844.01,-89.7 1949,-69 1985.64,-61.77 2025.46,-45.61 2051.89,-33.6"/>
<polygon fill="black" stroke="black" points="2053.38,-36.77 2060.99,-29.39 2050.44,-30.41 2053.38,-36.77"/>
<text text-anchor="middle" x="2015.5" y="-57.8" font-family="Times,serif" font-size="14.00">dep</text>
</g>
<!-- 25 -->
<g id="node26" class="node">
<title>25</title>
<ellipse fill="none" stroke="black" cx="2178" cy="-18" rx="50.89" ry="18"/>
<text text-anchor="middle" x="2178" y="-14.3" font-family="Times,serif" font-size="14.00">Espanha</text>
</g>
<!-- 0&#45;&gt;25 -->
<g id="edge25" class="edge">
<title>0&#45;&gt;25</title>
<path fill="none" stroke="black" d="M1409.33,-103.51C1519.85,-101.5 1910.99,-92.82 2033,-69 2069.51,-61.87 2109.36,-47.63 2138.02,-36.17"/>
<polygon fill="black" stroke="black" points="2139.35,-39.41 2147.29,-32.4 2136.71,-32.92 2139.35,-39.41"/>
<text text-anchor="middle" x="2099.5" y="-57.8" font-family="Times,serif" font-size="14.00">dep</text>
</g>
<!-- 26 -->
<g id="node27" class="node">
<title>26</title>
<ellipse fill="none" stroke="black" cx="2279" cy="-18" rx="31.7" ry="18"/>
<text text-anchor="middle" x="2279" y="-14.3" font-family="Times,serif" font-size="14.00">para</text>
</g>
<!-- 0&#45;&gt;26 -->
<g id="edge26" class="edge">
<title>0&#45;&gt;26</title>
<path fill="none" stroke="black" d="M1409.32,-103.46C1528.51,-101.15 1977.03,-91.14 2117,-69 2172.06,-60.29 2185.26,-54.04 2238,-36 2240.28,-35.22 2242.61,-34.38 2244.94,-33.5"/>
<polygon fill="black" stroke="black" points="2246.45,-36.67 2254.48,-29.76 2243.89,-30.16 2246.45,-36.67"/>
<text text-anchor="middle" x="2198.5" y="-57.8" font-family="Times,serif" font-size="14.00">dep</text>
</g>
<!-- 27 -->
<g id="node28" class="node">
<title>27</title>
<ellipse fill="none" stroke="black" cx="2356" cy="-18" rx="27" ry="18"/>
<text text-anchor="middle" x="2356" y="-14.3" font-family="Times,serif" font-size="14.00">sua</text>
</g>
<!-- 0&#45;&gt;27 -->
<g id="edge27" class="edge">
<title>0&#45;&gt;27</title>
<path fill="none" stroke="black" d="M1409.27,-103.81C1538.2,-102.84 2056.13,-97.19 2216,-69 2263.76,-60.58 2274.86,-53.73 2320,-36 2321.83,-35.28 2323.71,-34.51 2325.58,-33.71"/>
<polygon fill="black" stroke="black" points="2327.19,-36.83 2334.89,-29.55 2324.33,-30.44 2327.19,-36.83"/>
<text text-anchor="middle" x="2288.5" y="-57.8" font-family="Times,serif" font-size="14.00">dep</text>
</g>
<!-- 28 -->
<g id="node29" class="node">
<title>28</title>
<ellipse fill="none" stroke="black" cx="2441" cy="-18" rx="40.09" ry="18"/>
<text text-anchor="middle" x="2441" y="-14.3" font-family="Times,serif" font-size="14.00">última</text>
</g>
<!-- 0&#45;&gt;28 -->
<g id="edge28" class="edge">
<title>0&#45;&gt;28</title>
<path fill="none" stroke="black" d="M1409.64,-104.14C1547.7,-104.58 2128.49,-104.29 2306,-69 2340.82,-62.08 2378.57,-47.44 2405.27,-35.78"/>
<polygon fill="black" stroke="black" points="2406.87,-38.91 2414.58,-31.64 2404.02,-32.51 2406.87,-38.91"/>
<text text-anchor="middle" x="2373.5" y="-57.8" font-family="Times,serif" font-size="14.00">dep</text>
</g>
<!-- 29 -->
<g id="node30" class="node">
<title>29</title>
<ellipse fill="none" stroke="black" cx="2545" cy="-18" rx="46.29" ry="18"/>
<text text-anchor="middle" x="2545" y="-14.3" font-family="Times,serif" font-size="14.00">morada</text>
</g>
<!-- 0&#45;&gt;29 -->
<g id="edge29" class="edge">
<title>0&#45;&gt;29</title>
<path fill="none" stroke="black" d="M1409.38,-104.09C1554.43,-104.35 2195.12,-103.49 2391,-69 2430.84,-61.99 2474.56,-47.05 2505.21,-35.33"/>
<polygon fill="black" stroke="black" points="2506.62,-38.53 2514.67,-31.64 2504.08,-32.01 2506.62,-38.53"/>
<text text-anchor="middle" x="2465.5" y="-57.8" font-family="Times,serif" font-size="14.00">dep</text>
</g>
<!-- 30 -->
<g id="node31" class="node">
<title>30</title>
<ellipse fill="none" stroke="black" cx="2636" cy="-18" rx="27" ry="18"/>
<text text-anchor="middle" x="2636" y="-14.3" font-family="Times,serif" font-size="14.00">?</text>
</g>
<!-- 0&#45;&gt;30 -->
<g id="edge30" class="edge">
<title>0&#45;&gt;30</title>
<path fill="none" stroke="black" d="M1409.45,-104.03C1562.42,-104.06 2267.39,-102.32 2483,-69 2536.4,-60.75 2549.4,-54.93 2600,-36 2601.84,-35.31 2603.73,-34.56 2605.61,-33.78"/>
<polygon fill="black" stroke="black" points="2607.2,-36.9 2614.93,-29.66 2604.37,-30.5 2607.2,-36.9"/>
<text text-anchor="middle" x="2564.5" y="-57.8" font-family="Times,serif" font-size="14.00">dep</text>
</g>
</g>
</svg>
