<?xml version="1.0" encoding="UTF-8" standalone="no"?>
<!DOCTYPE svg PUBLIC "-//W3C//DTD SVG 1.1//EN"
 "http://www.w3.org/Graphics/SVG/1.1/DTD/svg11.dtd">
<!-- Generated by graphviz version 2.42.4 (0)
 -->
<!-- Pages: 1 -->
<svg width="1356pt" height="131pt"
 viewBox="0.00 0.00 1356.00 131.00" xmlns="http://www.w3.org/2000/svg" xmlns:xlink="http://www.w3.org/1999/xlink">
<g id="graph0" class="graph" transform="scale(1 1) rotate(0) translate(4 127)">
<polygon fill="white" stroke="transparent" points="-4,4 -4,-127 1352,-127 1352,4 -4,4"/>
<!-- 0 -->
<g id="node1" class="node">
<title>0</title>
<ellipse fill="none" stroke="black" cx="636" cy="-105" rx="40.09" ry="18"/>
<text text-anchor="middle" x="636" y="-101.3" font-family="Times,serif" font-size="14.00">Beijou</text>
</g>
<!-- 1 -->
<g id="node2" class="node">
<title>1</title>
<ellipse fill="none" stroke="black" cx="27" cy="-18" rx="27" ry="18"/>
<text text-anchor="middle" x="27" y="-14.3" font-family="Times,serif" font-size="14.00">,</text>
</g>
<!-- 0&#45;&gt;1 -->
<g id="edge1" class="edge">
<title>0&#45;&gt;1</title>
<path fill="none" stroke="black" d="M595.71,-103.1C517.55,-100.86 340.1,-93.3 193,-69 134.19,-59.28 119.1,-56.15 63,-36 61.15,-35.33 59.26,-34.61 57.37,-33.84"/>
<polygon fill="black" stroke="black" points="58.6,-30.55 48.03,-29.76 55.8,-36.97 58.6,-30.55"/>
<text text-anchor="middle" x="206.5" y="-57.8" font-family="Times,serif" font-size="14.00">dep</text>
</g>
<!-- 2 -->
<g id="node3" class="node">
<title>2</title>
<ellipse fill="none" stroke="black" cx="120" cy="-18" rx="48.19" ry="18"/>
<text text-anchor="middle" x="120" y="-14.3" font-family="Times,serif" font-size="14.00">abraçou</text>
</g>
<!-- 0&#45;&gt;2 -->
<g id="edge2" class="edge">
<title>0&#45;&gt;2</title>
<path fill="none" stroke="black" d="M595.8,-102.65C529.72,-99.85 394.3,-91.64 282,-69 240.55,-60.64 194.62,-45.92 162.28,-34.61"/>
<polygon fill="black" stroke="black" points="163.29,-31.26 152.7,-31.22 160.96,-37.86 163.29,-31.26"/>
<text text-anchor="middle" x="295.5" y="-57.8" font-family="Times,serif" font-size="14.00">dep</text>
</g>
<!-- 3 -->
<g id="node4" class="node">
<title>3</title>
<ellipse fill="none" stroke="black" cx="219" cy="-18" rx="32.49" ry="18"/>
<text text-anchor="middle" x="219" y="-14.3" font-family="Times,serif" font-size="14.00">duas</text>
</g>
<!-- 0&#45;&gt;3 -->
<g id="edge3" class="edge">
<title>0&#45;&gt;3</title>
<path fill="none" stroke="black" d="M596.58,-100.96C544.01,-96.42 448.23,-86.48 368,-69 319.37,-58.41 307.89,-52.68 261,-36 258.6,-35.15 256.14,-34.24 253.66,-33.3"/>
<polygon fill="black" stroke="black" points="254.77,-29.98 244.19,-29.6 252.23,-36.5 254.77,-29.98"/>
<text text-anchor="middle" x="381.5" y="-57.8" font-family="Times,serif" font-size="14.00">dep</text>
</g>
<!-- 4 -->
<g id="node5" class="node">
<title>4</title>
<ellipse fill="none" stroke="black" cx="306" cy="-18" rx="36.29" ry="18"/>
<text text-anchor="middle" x="306" y="-14.3" font-family="Times,serif" font-size="14.00">vezes</text>
</g>
<!-- 0&#45;&gt;4 -->
<g id="edge4" class="edge">
<title>0&#45;&gt;4</title>
<path fill="none" stroke="black" d="M597.71,-98.87C558.67,-93.21 496.54,-83.01 444,-69 401.62,-57.7 392.18,-51.08 351,-36 348.6,-35.12 346.13,-34.21 343.64,-33.28"/>
<polygon fill="black" stroke="black" points="344.65,-29.92 334.05,-29.7 342.19,-36.48 344.65,-29.92"/>
<text text-anchor="middle" x="457.5" y="-57.8" font-family="Times,serif" font-size="14.00">dep</text>
</g>
<!-- 5 -->
<g id="node6" class="node">
<title>5</title>
<ellipse fill="none" stroke="black" cx="387" cy="-18" rx="27" ry="18"/>
<text text-anchor="middle" x="387" y="-14.3" font-family="Times,serif" font-size="14.00">e</text>
</g>
<!-- 0&#45;&gt;5 -->
<g id="edge5" class="edge">
<title>0&#45;&gt;5</title>
<path fill="none" stroke="black" d="M602.29,-94.81C559.87,-82.89 485.04,-60.67 423,-36 421.17,-35.27 419.3,-34.5 417.42,-33.69"/>
<polygon fill="black" stroke="black" points="418.68,-30.42 408.13,-29.52 415.82,-36.8 418.68,-30.42"/>
<text text-anchor="middle" x="529.5" y="-57.8" font-family="Times,serif" font-size="14.00">dep</text>
</g>
<!-- 6 -->
<g id="node7" class="node">
<title>6</title>
<ellipse fill="none" stroke="black" cx="490" cy="-18" rx="57.69" ry="18"/>
<text text-anchor="middle" x="490" y="-14.3" font-family="Times,serif" font-size="14.00">conversou</text>
</g>
<!-- 0&#45;&gt;6 -->
<g id="edge6" class="edge">
<title>0&#45;&gt;6</title>
<path fill="none" stroke="black" d="M612.54,-90.34C588.86,-76.56 552.01,-55.1 524.9,-39.32"/>
<polygon fill="black" stroke="black" points="526.51,-36.21 516.11,-34.2 522.99,-42.26 526.51,-36.21"/>
<text text-anchor="middle" x="585.5" y="-57.8" font-family="Times,serif" font-size="14.00">dep</text>
</g>
<!-- 7 -->
<g id="node8" class="node">
<title>7</title>
<ellipse fill="none" stroke="black" cx="593" cy="-18" rx="27" ry="18"/>
<text text-anchor="middle" x="593" y="-14.3" font-family="Times,serif" font-size="14.00">por</text>
</g>
<!-- 0&#45;&gt;7 -->
<g id="edge7" class="edge">
<title>0&#45;&gt;7</title>
<path fill="none" stroke="black" d="M627.5,-87.21C621.3,-74.94 612.78,-58.1 605.76,-44.22"/>
<polygon fill="black" stroke="black" points="608.82,-42.52 601.19,-35.18 602.58,-45.68 608.82,-42.52"/>
<text text-anchor="middle" x="631.5" y="-57.8" font-family="Times,serif" font-size="14.00">dep</text>
</g>
<!-- 8 -->
<g id="node9" class="node">
<title>8</title>
<ellipse fill="none" stroke="black" cx="680" cy="-18" rx="41.69" ry="18"/>
<text text-anchor="middle" x="680" y="-14.3" font-family="Times,serif" font-size="14.00">alguns</text>
</g>
<!-- 0&#45;&gt;8 -->
<g id="edge8" class="edge">
<title>0&#45;&gt;8</title>
<path fill="none" stroke="black" d="M644.69,-87.21C650.96,-75.1 659.54,-58.53 666.67,-44.76"/>
<polygon fill="black" stroke="black" points="669.84,-46.25 671.33,-35.76 663.62,-43.03 669.84,-46.25"/>
<text text-anchor="middle" x="674.5" y="-57.8" font-family="Times,serif" font-size="14.00">dep</text>
</g>
<!-- 9 -->
<g id="node10" class="node">
<title>9</title>
<ellipse fill="none" stroke="black" cx="788" cy="-18" rx="48.19" ry="18"/>
<text text-anchor="middle" x="788" y="-14.3" font-family="Times,serif" font-size="14.00">minutos</text>
</g>
<!-- 0&#45;&gt;9 -->
<g id="edge9" class="edge">
<title>0&#45;&gt;9</title>
<path fill="none" stroke="black" d="M660.08,-90.53C685.24,-76.47 724.92,-54.27 753.42,-38.34"/>
<polygon fill="black" stroke="black" points="755.23,-41.34 762.25,-33.4 751.81,-35.23 755.23,-41.34"/>
<text text-anchor="middle" x="735.5" y="-57.8" font-family="Times,serif" font-size="14.00">dep</text>
</g>
<!-- 10 -->
<g id="node11" class="node">
<title>10</title>
<ellipse fill="none" stroke="black" cx="884" cy="-18" rx="29.8" ry="18"/>
<text text-anchor="middle" x="884" y="-14.3" font-family="Times,serif" font-size="14.00">com</text>
</g>
<!-- 0&#45;&gt;10 -->
<g id="edge10" class="edge">
<title>0&#45;&gt;10</title>
<path fill="none" stroke="black" d="M669.18,-94.59C692.68,-87.8 724.9,-78.23 753,-69 794.27,-55.44 804.62,-52.02 845,-36 847.06,-35.18 849.18,-34.32 851.31,-33.44"/>
<polygon fill="black" stroke="black" points="852.75,-36.63 860.6,-29.5 850.02,-30.18 852.75,-36.63"/>
<text text-anchor="middle" x="810.5" y="-57.8" font-family="Times,serif" font-size="14.00">dep</text>
</g>
<!-- 11 -->
<g id="node12" class="node">
<title>11</title>
<ellipse fill="none" stroke="black" cx="959" cy="-18" rx="27" ry="18"/>
<text text-anchor="middle" x="959" y="-14.3" font-family="Times,serif" font-size="14.00">o</text>
</g>
<!-- 0&#45;&gt;11 -->
<g id="edge11" class="edge">
<title>0&#45;&gt;11</title>
<path fill="none" stroke="black" d="M673.9,-98.85C712.91,-93.15 775.25,-82.88 828,-69 871.23,-57.63 881.62,-52.9 923,-36 924.82,-35.26 926.69,-34.47 928.56,-33.65"/>
<polygon fill="black" stroke="black" points="930.18,-36.76 937.85,-29.45 927.29,-30.38 930.18,-36.76"/>
<text text-anchor="middle" x="891.5" y="-57.8" font-family="Times,serif" font-size="14.00">dep</text>
</g>
<!-- 12 -->
<g id="node13" class="node">
<title>12</title>
<ellipse fill="none" stroke="black" cx="1071" cy="-18" rx="66.89" ry="18"/>
<text text-anchor="middle" x="1071" y="-14.3" font-family="Times,serif" font-size="14.00">conterrâneo</text>
</g>
<!-- 0&#45;&gt;12 -->
<g id="edge12" class="edge">
<title>0&#45;&gt;12</title>
<path fill="none" stroke="black" d="M675.69,-101.06C729.15,-96.62 827.04,-86.76 909,-69 948.1,-60.52 991.36,-46.95 1023.33,-36.08"/>
<polygon fill="black" stroke="black" points="1024.55,-39.37 1032.87,-32.81 1022.28,-32.75 1024.55,-39.37"/>
<text text-anchor="middle" x="977.5" y="-57.8" font-family="Times,serif" font-size="14.00">dep</text>
</g>
<!-- 13 -->
<g id="node14" class="node">
<title>13</title>
<ellipse fill="none" stroke="black" cx="1216" cy="-18" rx="60.39" ry="18"/>
<text text-anchor="middle" x="1216" y="-14.3" font-family="Times,serif" font-size="14.00">presidente</text>
</g>
<!-- 0&#45;&gt;13 -->
<g id="edge13" class="edge">
<title>0&#45;&gt;13</title>
<path fill="none" stroke="black" d="M675.77,-101.64C742.19,-97.37 879.77,-87.06 995,-69 1063.3,-58.29 1079.65,-51.6 1147,-36 1151.64,-34.93 1156.45,-33.79 1161.27,-32.63"/>
<polygon fill="black" stroke="black" points="1162.24,-36 1171.13,-30.25 1160.59,-29.2 1162.24,-36"/>
<text text-anchor="middle" x="1085.5" y="-57.8" font-family="Times,serif" font-size="14.00">dep</text>
</g>
<!-- 14 -->
<g id="node15" class="node">
<title>14</title>
<ellipse fill="none" stroke="black" cx="1321" cy="-18" rx="27" ry="18"/>
<text text-anchor="middle" x="1321" y="-14.3" font-family="Times,serif" font-size="14.00">.</text>
</g>
<!-- 0&#45;&gt;14 -->
<g id="edge14" class="edge">
<title>0&#45;&gt;14</title>
<path fill="none" stroke="black" d="M676.12,-102.41C757.09,-98.88 945.74,-89.09 1103,-69 1184.54,-58.58 1206.72,-61.1 1285,-36 1286.93,-35.38 1288.88,-34.68 1290.83,-33.93"/>
<polygon fill="black" stroke="black" points="1292.61,-36.98 1300.44,-29.84 1289.86,-30.54 1292.61,-36.98"/>
<text text-anchor="middle" x="1230.5" y="-57.8" font-family="Times,serif" font-size="14.00">dep</text>
</g>
</g>
</svg>
