<?xml version="1.0" encoding="UTF-8" standalone="no"?>
<!DOCTYPE svg PUBLIC "-//W3C//DTD SVG 1.1//EN"
 "http://www.w3.org/Graphics/SVG/1.1/DTD/svg11.dtd">
<!-- Generated by graphviz version 2.42.4 (0)
 -->
<!-- Pages: 1 -->
<svg width="2839pt" height="131pt"
 viewBox="0.00 0.00 2839.00 131.00" xmlns="http://www.w3.org/2000/svg" xmlns:xlink="http://www.w3.org/1999/xlink">
<g id="graph0" class="graph" transform="scale(1 1) rotate(0) translate(4 127)">
<polygon fill="white" stroke="transparent" points="-4,4 -4,-127 2835,-127 2835,4 -4,4"/>
<!-- 0 -->
<g id="node1" class="node">
<title>0</title>
<ellipse fill="none" stroke="black" cx="1380" cy="-105" rx="27" ry="18"/>
<text text-anchor="middle" x="1380" y="-101.3" font-family="Times,serif" font-size="14.00">Em</text>
</g>
<!-- 1 -->
<g id="node2" class="node">
<title>1</title>
<ellipse fill="none" stroke="black" cx="27" cy="-18" rx="27" ry="18"/>
<text text-anchor="middle" x="27" y="-14.3" font-family="Times,serif" font-size="14.00">os</text>
</g>
<!-- 0&#45;&gt;1 -->
<g id="edge1" class="edge">
<title>0&#45;&gt;1</title>
<path fill="none" stroke="black" d="M1352.97,-104.02C1198.51,-104.02 426.14,-102.35 191,-69 132.83,-60.75 118.25,-55.97 63,-36 61.15,-35.33 59.26,-34.6 57.37,-33.83"/>
<polygon fill="black" stroke="black" points="58.6,-30.55 48.04,-29.75 55.8,-36.96 58.6,-30.55"/>
<text text-anchor="middle" x="204.5" y="-57.8" font-family="Times,serif" font-size="14.00">dep</text>
</g>
<!-- 2 -->
<g id="node3" class="node">
<title>2</title>
<ellipse fill="none" stroke="black" cx="128" cy="-18" rx="55.79" ry="18"/>
<text text-anchor="middle" x="128" y="-14.3" font-family="Times,serif" font-size="14.00">romances</text>
</g>
<!-- 0&#45;&gt;2 -->
<g id="edge2" class="edge">
<title>0&#45;&gt;2</title>
<path fill="none" stroke="black" d="M1352.6,-104.18C1204.27,-104.99 496.05,-106.77 281,-69 242.5,-62.24 200.4,-47.94 170.13,-36.36"/>
<polygon fill="black" stroke="black" points="171.32,-33.07 160.73,-32.71 168.79,-39.59 171.32,-33.07"/>
<text text-anchor="middle" x="294.5" y="-57.8" font-family="Times,serif" font-size="14.00">dep</text>
</g>
<!-- 3 -->
<g id="node4" class="node">
<title>3</title>
<ellipse fill="none" stroke="black" cx="229" cy="-18" rx="27" ry="18"/>
<text text-anchor="middle" x="229" y="-14.3" font-family="Times,serif" font-size="14.00">e</text>
</g>
<!-- 0&#45;&gt;3 -->
<g id="edge3" class="edge">
<title>0&#45;&gt;3</title>
<path fill="none" stroke="black" d="M1352.87,-104.1C1211.97,-104.49 562.66,-104.28 365,-69 327.28,-62.27 286.31,-45.85 259.3,-33.65"/>
<polygon fill="black" stroke="black" points="260.56,-30.38 250.02,-29.38 257.64,-36.74 260.56,-30.38"/>
<text text-anchor="middle" x="378.5" y="-57.8" font-family="Times,serif" font-size="14.00">dep</text>
</g>
<!-- 4 -->
<g id="node5" class="node">
<title>4</title>
<ellipse fill="none" stroke="black" cx="315" cy="-18" rx="40.89" ry="18"/>
<text text-anchor="middle" x="315" y="-14.3" font-family="Times,serif" font-size="14.00">contos</text>
</g>
<!-- 0&#45;&gt;4 -->
<g id="edge4" class="edge">
<title>0&#45;&gt;4</title>
<path fill="none" stroke="black" d="M1352.89,-104.15C1219.01,-104.74 627.77,-105.17 448,-69 413.97,-62.15 377.16,-47.73 350.92,-36.12"/>
<polygon fill="black" stroke="black" points="352.31,-32.91 341.75,-31.99 349.43,-39.29 352.31,-32.91"/>
<text text-anchor="middle" x="461.5" y="-57.8" font-family="Times,serif" font-size="14.00">dep</text>
</g>
<!-- 5 -->
<g id="node6" class="node">
<title>5</title>
<ellipse fill="none" stroke="black" cx="401" cy="-18" rx="27" ry="18"/>
<text text-anchor="middle" x="401" y="-14.3" font-family="Times,serif" font-size="14.00">de</text>
</g>
<!-- 0&#45;&gt;5 -->
<g id="edge5" class="edge">
<title>0&#45;&gt;5</title>
<path fill="none" stroke="black" d="M1352.77,-103.99C1225.92,-103.75 692.27,-100.87 529,-69 493.91,-62.15 456.04,-46.19 430.67,-34.13"/>
<polygon fill="black" stroke="black" points="432.12,-30.94 421.59,-29.72 429.06,-37.24 432.12,-30.94"/>
<text text-anchor="middle" x="542.5" y="-57.8" font-family="Times,serif" font-size="14.00">dep</text>
</g>
<!-- 6 -->
<g id="node7" class="node">
<title>6</title>
<ellipse fill="none" stroke="black" cx="473" cy="-18" rx="27" ry="18"/>
<text text-anchor="middle" x="473" y="-14.3" font-family="Times,serif" font-size="14.00">o</text>
</g>
<!-- 0&#45;&gt;6 -->
<g id="edge6" class="edge">
<title>0&#45;&gt;6</title>
<path fill="none" stroke="black" d="M1352.72,-103.6C1234.73,-101.73 767.73,-92.95 623,-69 570.96,-60.39 558.34,-54.65 509,-36 507.16,-35.3 505.28,-34.55 503.4,-33.76"/>
<polygon fill="black" stroke="black" points="504.64,-30.49 494.08,-29.64 501.81,-36.89 504.64,-30.49"/>
<text text-anchor="middle" x="636.5" y="-57.8" font-family="Times,serif" font-size="14.00">dep</text>
</g>
<!-- 7 -->
<g id="node8" class="node">
<title>7</title>
<ellipse fill="none" stroke="black" cx="565" cy="-18" rx="46.59" ry="18"/>
<text text-anchor="middle" x="565" y="-14.3" font-family="Times,serif" font-size="14.00">escritor</text>
</g>
<!-- 0&#45;&gt;7 -->
<g id="edge7" class="edge">
<title>0&#45;&gt;7</title>
<path fill="none" stroke="black" d="M1352.73,-103.64C1242.81,-102.04 832.15,-94.43 705,-69 669.57,-61.91 631.02,-47.63 603.36,-36.13"/>
<polygon fill="black" stroke="black" points="604.63,-32.87 594.06,-32.2 601.91,-39.31 604.63,-32.87"/>
<text text-anchor="middle" x="718.5" y="-57.8" font-family="Times,serif" font-size="14.00">dep</text>
</g>
<!-- 8 -->
<g id="node9" class="node">
<title>8</title>
<ellipse fill="none" stroke="black" cx="657" cy="-18" rx="27" ry="18"/>
<text text-anchor="middle" x="657" y="-14.3" font-family="Times,serif" font-size="14.00">,</text>
</g>
<!-- 0&#45;&gt;8 -->
<g id="edge8" class="edge">
<title>0&#45;&gt;8</title>
<path fill="none" stroke="black" d="M1353.01,-103.4C1252.17,-101.02 897.59,-91.22 787,-69 751.47,-61.86 712.99,-45.95 687.19,-33.98"/>
<polygon fill="black" stroke="black" points="688.49,-30.72 677.96,-29.61 685.5,-37.05 688.49,-30.72"/>
<text text-anchor="middle" x="800.5" y="-57.8" font-family="Times,serif" font-size="14.00">dep</text>
</g>
<!-- 9 -->
<g id="node10" class="node">
<title>9</title>
<ellipse fill="none" stroke="black" cx="729" cy="-18" rx="27" ry="18"/>
<text text-anchor="middle" x="729" y="-14.3" font-family="Times,serif" font-size="14.00">o</text>
</g>
<!-- 0&#45;&gt;9 -->
<g id="edge9" class="edge">
<title>0&#45;&gt;9</title>
<path fill="none" stroke="black" d="M1352.83,-104.01C1277.58,-103.62 1060.28,-99.7 883,-69 829.34,-59.71 816.02,-55.03 765,-36 763.15,-35.31 761.27,-34.57 759.39,-33.78"/>
<polygon fill="black" stroke="black" points="760.63,-30.51 750.07,-29.67 757.8,-36.91 760.63,-30.51"/>
<text text-anchor="middle" x="896.5" y="-57.8" font-family="Times,serif" font-size="14.00">dep</text>
</g>
<!-- 10 -->
<g id="node11" class="node">
<title>10</title>
<ellipse fill="none" stroke="black" cx="819" cy="-18" rx="44.69" ry="18"/>
<text text-anchor="middle" x="819" y="-14.3" font-family="Times,serif" font-size="14.00">cenário</text>
</g>
<!-- 0&#45;&gt;10 -->
<g id="edge10" class="edge">
<title>0&#45;&gt;10</title>
<path fill="none" stroke="black" d="M1352.68,-103.92C1286.15,-103.25 1110.7,-98.56 968,-69 929.95,-61.12 888.13,-46.53 858.5,-35.14"/>
<polygon fill="black" stroke="black" points="859.54,-31.79 848.95,-31.42 856.99,-38.31 859.54,-31.79"/>
<text text-anchor="middle" x="981.5" y="-57.8" font-family="Times,serif" font-size="14.00">dep</text>
</g>
<!-- 11 -->
<g id="node12" class="node">
<title>11</title>
<ellipse fill="none" stroke="black" cx="909" cy="-18" rx="27" ry="18"/>
<text text-anchor="middle" x="909" y="-14.3" font-family="Times,serif" font-size="14.00">é</text>
</g>
<!-- 0&#45;&gt;11 -->
<g id="edge11" class="edge">
<title>0&#45;&gt;11</title>
<path fill="none" stroke="black" d="M1352.88,-102.56C1297.56,-99.3 1167.89,-89.92 1061,-69 1008.4,-58.71 995.18,-54.84 945,-36 943.16,-35.31 941.28,-34.56 939.39,-33.77"/>
<polygon fill="black" stroke="black" points="940.63,-30.5 930.07,-29.66 937.8,-36.9 940.63,-30.5"/>
<text text-anchor="middle" x="1074.5" y="-57.8" font-family="Times,serif" font-size="14.00">dep</text>
</g>
<!-- 12 -->
<g id="node13" class="node">
<title>12</title>
<ellipse fill="none" stroke="black" cx="992" cy="-18" rx="37.89" ry="18"/>
<text text-anchor="middle" x="992" y="-14.3" font-family="Times,serif" font-size="14.00">muito</text>
</g>
<!-- 0&#45;&gt;12 -->
<g id="edge12" class="edge">
<title>0&#45;&gt;12</title>
<path fill="none" stroke="black" d="M1353.44,-101.32C1309.8,-96.64 1220.32,-85.82 1146,-69 1097.05,-57.92 1085.56,-52.04 1038,-36 1035.44,-35.14 1032.81,-34.23 1030.16,-33.29"/>
<polygon fill="black" stroke="black" points="1031.21,-29.95 1020.62,-29.87 1028.85,-36.54 1031.21,-29.95"/>
<text text-anchor="middle" x="1159.5" y="-57.8" font-family="Times,serif" font-size="14.00">dep</text>
</g>
<!-- 13 -->
<g id="node14" class="node">
<title>13</title>
<ellipse fill="none" stroke="black" cx="1096" cy="-18" rx="48.99" ry="18"/>
<text text-anchor="middle" x="1096" y="-14.3" font-family="Times,serif" font-size="14.00">próximo</text>
</g>
<!-- 0&#45;&gt;13 -->
<g id="edge13" class="edge">
<title>0&#45;&gt;13</title>
<path fill="none" stroke="black" d="M1353.94,-99.9C1321.44,-94.44 1264.4,-83.75 1217,-69 1188.58,-60.16 1157.57,-47.28 1134.06,-36.8"/>
<polygon fill="black" stroke="black" points="1135.35,-33.55 1124.8,-32.63 1132.48,-39.93 1135.35,-33.55"/>
<text text-anchor="middle" x="1230.5" y="-57.8" font-family="Times,serif" font-size="14.00">dep</text>
</g>
<!-- 14 -->
<g id="node15" class="node">
<title>14</title>
<ellipse fill="none" stroke="black" cx="1190" cy="-18" rx="27" ry="18"/>
<text text-anchor="middle" x="1190" y="-14.3" font-family="Times,serif" font-size="14.00">de</text>
</g>
<!-- 0&#45;&gt;14 -->
<g id="edge14" class="edge">
<title>0&#45;&gt;14</title>
<path fill="none" stroke="black" d="M1355.35,-97.1C1334.15,-90.81 1302.99,-80.75 1277,-69 1256.37,-59.68 1234.27,-46.93 1217.51,-36.65"/>
<polygon fill="black" stroke="black" points="1219.13,-33.53 1208.79,-31.22 1215.43,-39.48 1219.13,-33.53"/>
<text text-anchor="middle" x="1290.5" y="-57.8" font-family="Times,serif" font-size="14.00">dep</text>
</g>
<!-- 15 -->
<g id="node16" class="node">
<title>15</title>
<ellipse fill="none" stroke="black" cx="1262" cy="-18" rx="27" ry="18"/>
<text text-anchor="middle" x="1262" y="-14.3" font-family="Times,serif" font-size="14.00">o</text>
</g>
<!-- 0&#45;&gt;15 -->
<g id="edge15" class="edge">
<title>0&#45;&gt;15</title>
<path fill="none" stroke="black" d="M1361.05,-91.61C1351.12,-85.03 1338.8,-76.72 1328,-69 1314.22,-59.15 1299.15,-47.78 1286.89,-38.37"/>
<polygon fill="black" stroke="black" points="1288.96,-35.55 1278.9,-32.21 1284.68,-41.09 1288.96,-35.55"/>
<text text-anchor="middle" x="1341.5" y="-57.8" font-family="Times,serif" font-size="14.00">dep</text>
</g>
<!-- 16 -->
<g id="node17" class="node">
<title>16</title>
<ellipse fill="none" stroke="black" cx="1341" cy="-18" rx="34.39" ry="18"/>
<text text-anchor="middle" x="1341" y="-14.3" font-family="Times,serif" font-size="14.00">atual</text>
</g>
<!-- 0&#45;&gt;16 -->
<g id="edge16" class="edge">
<title>0&#45;&gt;16</title>
<path fill="none" stroke="black" d="M1372.48,-87.61C1366.91,-75.46 1359.2,-58.66 1352.8,-44.73"/>
<polygon fill="black" stroke="black" points="1355.98,-43.26 1348.63,-35.63 1349.62,-46.18 1355.98,-43.26"/>
<text text-anchor="middle" x="1376.5" y="-57.8" font-family="Times,serif" font-size="14.00">dep</text>
</g>
<!-- 17 -->
<g id="node18" class="node">
<title>17</title>
<ellipse fill="none" stroke="black" cx="1420" cy="-18" rx="27" ry="18"/>
<text text-anchor="middle" x="1420" y="-14.3" font-family="Times,serif" font-size="14.00">,</text>
</g>
<!-- 0&#45;&gt;17 -->
<g id="edge17" class="edge">
<title>0&#45;&gt;17</title>
<path fill="none" stroke="black" d="M1387.71,-87.61C1393.47,-75.38 1401.44,-58.44 1408.02,-44.46"/>
<polygon fill="black" stroke="black" points="1411.22,-45.88 1412.31,-35.34 1404.89,-42.9 1411.22,-45.88"/>
<text text-anchor="middle" x="1416.5" y="-57.8" font-family="Times,serif" font-size="14.00">dep</text>
</g>
<!-- 18 -->
<g id="node19" class="node">
<title>18</title>
<ellipse fill="none" stroke="black" cx="1492" cy="-18" rx="27" ry="18"/>
<text text-anchor="middle" x="1492" y="-14.3" font-family="Times,serif" font-size="14.00">só</text>
</g>
<!-- 0&#45;&gt;18 -->
<g id="edge18" class="edge">
<title>0&#45;&gt;18</title>
<path fill="none" stroke="black" d="M1399.42,-92.31C1409.9,-85.78 1422.92,-77.31 1434,-69 1446.04,-59.98 1458.76,-49.16 1469.22,-39.9"/>
<polygon fill="black" stroke="black" points="1471.61,-42.46 1476.73,-33.18 1466.94,-37.24 1471.61,-42.46"/>
<text text-anchor="middle" x="1466.5" y="-57.8" font-family="Times,serif" font-size="14.00">dep</text>
</g>
<!-- 19 -->
<g id="node20" class="node">
<title>19</title>
<ellipse fill="none" stroke="black" cx="1565" cy="-18" rx="27.9" ry="18"/>
<text text-anchor="middle" x="1565" y="-14.3" font-family="Times,serif" font-size="14.00">que</text>
</g>
<!-- 0&#45;&gt;19 -->
<g id="edge19" class="edge">
<title>0&#45;&gt;19</title>
<path fill="none" stroke="black" d="M1404.57,-97.46C1426.04,-91.34 1457.79,-81.3 1484,-69 1502.88,-60.14 1522.84,-47.86 1538.22,-37.69"/>
<polygon fill="black" stroke="black" points="1540.35,-40.47 1546.7,-31.98 1536.45,-34.66 1540.35,-40.47"/>
<text text-anchor="middle" x="1525.5" y="-57.8" font-family="Times,serif" font-size="14.00">dep</text>
</g>
<!-- 20 -->
<g id="node21" class="node">
<title>20</title>
<ellipse fill="none" stroke="black" cx="1644" cy="-18" rx="33.29" ry="18"/>
<text text-anchor="middle" x="1644" y="-14.3" font-family="Times,serif" font-size="14.00">visto</text>
</g>
<!-- 0&#45;&gt;20 -->
<g id="edge20" class="edge">
<title>0&#45;&gt;20</title>
<path fill="none" stroke="black" d="M1406.23,-100.42C1438.91,-95.5 1496.13,-85.35 1543,-69 1567.56,-60.43 1593.85,-47.28 1613.45,-36.61"/>
<polygon fill="black" stroke="black" points="1615.17,-39.66 1622.22,-31.76 1611.78,-33.54 1615.17,-39.66"/>
<text text-anchor="middle" x="1591.5" y="-57.8" font-family="Times,serif" font-size="14.00">dep</text>
</g>
<!-- 21 -->
<g id="node22" class="node">
<title>21</title>
<ellipse fill="none" stroke="black" cx="1725" cy="-18" rx="29.8" ry="18"/>
<text text-anchor="middle" x="1725" y="-14.3" font-family="Times,serif" font-size="14.00">com</text>
</g>
<!-- 0&#45;&gt;21 -->
<g id="edge21" class="edge">
<title>0&#45;&gt;21</title>
<path fill="none" stroke="black" d="M1406.92,-102.1C1450.2,-98.57 1537.65,-89.38 1609,-69 1638.71,-60.51 1670.84,-46.23 1693.74,-35.09"/>
<polygon fill="black" stroke="black" points="1695.54,-38.11 1702.96,-30.54 1692.44,-31.83 1695.54,-38.11"/>
<text text-anchor="middle" x="1665.5" y="-57.8" font-family="Times,serif" font-size="14.00">dep</text>
</g>
<!-- 22 -->
<g id="node23" class="node">
<title>22</title>
<ellipse fill="none" stroke="black" cx="1803" cy="-18" rx="30.59" ry="18"/>
<text text-anchor="middle" x="1803" y="-14.3" font-family="Times,serif" font-size="14.00">uma</text>
</g>
<!-- 0&#45;&gt;22 -->
<g id="edge22" class="edge">
<title>0&#45;&gt;22</title>
<path fill="none" stroke="black" d="M1407.2,-103.32C1460.79,-101.46 1583.49,-94.51 1683,-69 1714.13,-61.02 1747.75,-46.45 1771.46,-35.09"/>
<polygon fill="black" stroke="black" points="1773.21,-38.13 1780.67,-30.6 1770.15,-31.84 1773.21,-38.13"/>
<text text-anchor="middle" x="1741.5" y="-57.8" font-family="Times,serif" font-size="14.00">dep</text>
</g>
<!-- 23 -->
<g id="node24" class="node">
<title>23</title>
<ellipse fill="none" stroke="black" cx="1886" cy="-18" rx="34.39" ry="18"/>
<text text-anchor="middle" x="1886" y="-14.3" font-family="Times,serif" font-size="14.00">certa</text>
</g>
<!-- 0&#45;&gt;23 -->
<g id="edge23" class="edge">
<title>0&#45;&gt;23</title>
<path fill="none" stroke="black" d="M1407.07,-104.1C1469.83,-103.77 1629.78,-99.69 1759,-69 1791.91,-61.18 1827.61,-46.53 1852.76,-35.11"/>
<polygon fill="black" stroke="black" points="1854.24,-38.28 1861.85,-30.9 1851.3,-31.92 1854.24,-38.28"/>
<text text-anchor="middle" x="1819.5" y="-57.8" font-family="Times,serif" font-size="14.00">dep</text>
</g>
<!-- 24 -->
<g id="node25" class="node">
<title>24</title>
<ellipse fill="none" stroke="black" cx="1992" cy="-18" rx="53.89" ry="18"/>
<text text-anchor="middle" x="1992" y="-14.3" font-family="Times,serif" font-size="14.00">distorção</text>
</g>
<!-- 0&#45;&gt;24 -->
<g id="edge24" class="edge">
<title>0&#45;&gt;24</title>
<path fill="none" stroke="black" d="M1407.08,-104.14C1478.26,-104.02 1676.16,-100.64 1837,-69 1875.8,-61.37 1918.47,-47.15 1949.2,-35.82"/>
<polygon fill="black" stroke="black" points="1950.6,-39.04 1958.74,-32.26 1948.15,-32.48 1950.6,-39.04"/>
<text text-anchor="middle" x="1907.5" y="-57.8" font-family="Times,serif" font-size="14.00">dep</text>
</g>
<!-- 25 -->
<g id="node26" class="node">
<title>25</title>
<ellipse fill="none" stroke="black" cx="2130" cy="-18" rx="66.09" ry="18"/>
<text text-anchor="middle" x="2130" y="-14.3" font-family="Times,serif" font-size="14.00">alucinógena</text>
</g>
<!-- 0&#45;&gt;25 -->
<g id="edge25" class="edge">
<title>0&#45;&gt;25</title>
<path fill="none" stroke="black" d="M1407.12,-103.93C1486.96,-103.37 1727.94,-99.12 1925,-69 1977.36,-61 2035.96,-46.09 2077.06,-34.62"/>
<polygon fill="black" stroke="black" points="2078.18,-37.94 2086.85,-31.86 2076.28,-31.21 2078.18,-37.94"/>
<text text-anchor="middle" x="2012.5" y="-57.8" font-family="Times,serif" font-size="14.00">dep</text>
</g>
<!-- 26 -->
<g id="node27" class="node">
<title>26</title>
<ellipse fill="none" stroke="black" cx="2241" cy="-18" rx="27" ry="18"/>
<text text-anchor="middle" x="2241" y="-14.3" font-family="Times,serif" font-size="14.00">,</text>
</g>
<!-- 0&#45;&gt;26 -->
<g id="edge26" class="edge">
<title>0&#45;&gt;26</title>
<path fill="none" stroke="black" d="M1407.05,-103.83C1496.32,-102.98 1789.62,-98.01 2030,-69 2108.58,-59.52 2129.72,-60.43 2205,-36 2206.92,-35.38 2208.88,-34.67 2210.83,-33.92"/>
<polygon fill="black" stroke="black" points="2212.61,-36.96 2220.43,-29.81 2209.86,-30.53 2212.61,-36.96"/>
<text text-anchor="middle" x="2153.5" y="-57.8" font-family="Times,serif" font-size="14.00">dep</text>
</g>
<!-- 27 -->
<g id="node28" class="node">
<title>27</title>
<ellipse fill="none" stroke="black" cx="2313" cy="-18" rx="27" ry="18"/>
<text text-anchor="middle" x="2313" y="-14.3" font-family="Times,serif" font-size="14.00">um</text>
</g>
<!-- 0&#45;&gt;27 -->
<g id="edge27" class="edge">
<title>0&#45;&gt;27</title>
<path fill="none" stroke="black" d="M1407.28,-103.73C1528.57,-102.41 2019.51,-95.47 2171,-69 2219.6,-60.51 2231.02,-53.91 2277,-36 2278.84,-35.28 2280.71,-34.52 2282.59,-33.72"/>
<polygon fill="black" stroke="black" points="2284.19,-36.84 2291.89,-29.57 2281.34,-30.45 2284.19,-36.84"/>
<text text-anchor="middle" x="2244.5" y="-57.8" font-family="Times,serif" font-size="14.00">dep</text>
</g>
<!-- 28 -->
<g id="node29" class="node">
<title>28</title>
<ellipse fill="none" stroke="black" cx="2392" cy="-18" rx="34.39" ry="18"/>
<text text-anchor="middle" x="2392" y="-14.3" font-family="Times,serif" font-size="14.00">certo</text>
</g>
<!-- 0&#45;&gt;28 -->
<g id="edge28" class="edge">
<title>0&#45;&gt;28</title>
<path fill="none" stroke="black" d="M1407.37,-104.1C1537.3,-104.38 2092.7,-103.51 2262,-69 2296.04,-62.06 2332.81,-47.17 2358.53,-35.43"/>
<polygon fill="black" stroke="black" points="2360.22,-38.5 2367.81,-31.11 2357.27,-32.15 2360.22,-38.5"/>
<text text-anchor="middle" x="2327.5" y="-57.8" font-family="Times,serif" font-size="14.00">dep</text>
</g>
<!-- 29 -->
<g id="node30" class="node">
<title>29</title>
<ellipse fill="none" stroke="black" cx="2493" cy="-18" rx="48.19" ry="18"/>
<text text-anchor="middle" x="2493" y="-14.3" font-family="Times,serif" font-size="14.00">exagero</text>
</g>
<!-- 0&#45;&gt;29 -->
<g id="edge29" class="edge">
<title>0&#45;&gt;29</title>
<path fill="none" stroke="black" d="M1407.14,-104.07C1543.84,-104.28 2157.83,-103.26 2345,-69 2382.75,-62.09 2423.99,-47.54 2453.32,-35.91"/>
<polygon fill="black" stroke="black" points="2454.82,-39.08 2462.79,-32.09 2452.21,-32.59 2454.82,-39.08"/>
<text text-anchor="middle" x="2412.5" y="-57.8" font-family="Times,serif" font-size="14.00">dep</text>
</g>
<!-- 30 -->
<g id="node31" class="node">
<title>30</title>
<ellipse fill="none" stroke="black" cx="2586" cy="-18" rx="27" ry="18"/>
<text text-anchor="middle" x="2586" y="-14.3" font-family="Times,serif" font-size="14.00">de</text>
</g>
<!-- 0&#45;&gt;30 -->
<g id="edge30" class="edge">
<title>0&#45;&gt;30</title>
<path fill="none" stroke="black" d="M1407.08,-103.96C1550.68,-103.6 2224.21,-100.28 2430,-69 2484.69,-60.69 2498.13,-55.21 2550,-36 2551.85,-35.32 2553.73,-34.57 2555.62,-33.79"/>
<polygon fill="black" stroke="black" points="2557.2,-36.92 2564.94,-29.69 2554.38,-30.51 2557.2,-36.92"/>
<text text-anchor="middle" x="2513.5" y="-57.8" font-family="Times,serif" font-size="14.00">dep</text>
</g>
<!-- 31 -->
<g id="node32" class="node">
<title>31</title>
<ellipse fill="none" stroke="black" cx="2695" cy="-18" rx="63.89" ry="18"/>
<text text-anchor="middle" x="2695" y="-14.3" font-family="Times,serif" font-size="14.00">imaginação</text>
</g>
<!-- 0&#45;&gt;31 -->
<g id="edge31" class="edge">
<title>0&#45;&gt;31</title>
<path fill="none" stroke="black" d="M1407.17,-104.15C1559.1,-104.84 2304.64,-106.26 2531,-69 2571.99,-62.25 2617.03,-48 2649.52,-36.43"/>
<polygon fill="black" stroke="black" points="2650.97,-39.63 2659.18,-32.94 2648.59,-33.05 2650.97,-39.63"/>
<text text-anchor="middle" x="2609.5" y="-57.8" font-family="Times,serif" font-size="14.00">dep</text>
</g>
<!-- 32 -->
<g id="node33" class="node">
<title>32</title>
<ellipse fill="none" stroke="black" cx="2804" cy="-18" rx="27" ry="18"/>
<text text-anchor="middle" x="2804" y="-14.3" font-family="Times,serif" font-size="14.00">.</text>
</g>
<!-- 0&#45;&gt;32 -->
<g id="edge32" class="edge">
<title>0&#45;&gt;32</title>
<path fill="none" stroke="black" d="M1407.03,-103.98C1565.86,-103.77 2379.33,-101.12 2627,-69 2690.83,-60.72 2707.23,-57.19 2768,-36 2769.91,-35.33 2771.85,-34.6 2773.8,-33.82"/>
<polygon fill="black" stroke="black" points="2775.6,-36.85 2783.37,-29.65 2772.81,-30.43 2775.6,-36.85"/>
<text text-anchor="middle" x="2724.5" y="-57.8" font-family="Times,serif" font-size="14.00">dep</text>
</g>
</g>
</svg>
