<?xml version="1.0" encoding="UTF-8" standalone="no"?>
<!DOCTYPE svg PUBLIC "-//W3C//DTD SVG 1.1//EN"
 "http://www.w3.org/Graphics/SVG/1.1/DTD/svg11.dtd">
<!-- Generated by graphviz version 2.42.4 (0)
 -->
<!-- Pages: 1 -->
<svg width="2005pt" height="131pt"
 viewBox="0.00 0.00 2004.75 131.00" xmlns="http://www.w3.org/2000/svg" xmlns:xlink="http://www.w3.org/1999/xlink">
<g id="graph0" class="graph" transform="scale(1 1) rotate(0) translate(4 127)">
<polygon fill="white" stroke="transparent" points="-4,4 -4,-127 2000.75,-127 2000.75,4 -4,4"/>
<!-- 0 -->
<g id="node1" class="node">
<title>0</title>
<ellipse fill="none" stroke="black" cx="1006.75" cy="-105" rx="27" ry="18"/>
<text text-anchor="middle" x="1006.75" y="-101.3" font-family="Times,serif" font-size="14.00">De</text>
</g>
<!-- 1 -->
<g id="node2" class="node">
<title>1</title>
<ellipse fill="none" stroke="black" cx="35.75" cy="-18" rx="36" ry="18"/>
<text text-anchor="middle" x="35.75" y="-14.3" font-family="Times,serif" font-size="14.00">entre</text>
</g>
<!-- 0&#45;&gt;1 -->
<g id="edge1" class="edge">
<title>0&#45;&gt;1</title>
<path fill="none" stroke="black" d="M979.47,-104.03C853.6,-104 328.25,-101.85 167.75,-69 133.47,-61.98 96.38,-47.24 70.26,-35.58"/>
<polygon fill="black" stroke="black" points="71.37,-32.24 60.82,-31.28 68.47,-38.61 71.37,-32.24"/>
<text text-anchor="middle" x="181.25" y="-57.8" font-family="Times,serif" font-size="14.00">dep</text>
</g>
<!-- 2 -->
<g id="node3" class="node">
<title>2</title>
<ellipse fill="none" stroke="black" cx="116.75" cy="-18" rx="27" ry="18"/>
<text text-anchor="middle" x="116.75" y="-14.3" font-family="Times,serif" font-size="14.00">os</text>
</g>
<!-- 0&#45;&gt;2 -->
<g id="edge2" class="edge">
<title>0&#45;&gt;2</title>
<path fill="none" stroke="black" d="M979.51,-103.74C861.73,-102.46 395.58,-95.77 251.75,-69 214.54,-62.07 174.13,-45.85 147.31,-33.75"/>
<polygon fill="black" stroke="black" points="148.62,-30.5 138.07,-29.5 145.7,-36.86 148.62,-30.5"/>
<text text-anchor="middle" x="265.25" y="-57.8" font-family="Times,serif" font-size="14.00">dep</text>
</g>
<!-- 3 -->
<g id="node4" class="node">
<title>3</title>
<ellipse fill="none" stroke="black" cx="189.75" cy="-18" rx="27.9" ry="18"/>
<text text-anchor="middle" x="189.75" y="-14.3" font-family="Times,serif" font-size="14.00">que</text>
</g>
<!-- 0&#45;&gt;3 -->
<g id="edge3" class="edge">
<title>0&#45;&gt;3</title>
<path fill="none" stroke="black" d="M979.62,-104.42C890.1,-105.41 596.11,-105.47 356.75,-69 297.82,-60.02 282.95,-55.86 226.75,-36 224.85,-35.33 222.91,-34.6 220.97,-33.82"/>
<polygon fill="black" stroke="black" points="221.96,-30.44 211.39,-29.74 219.21,-36.88 221.96,-30.44"/>
<text text-anchor="middle" x="370.25" y="-57.8" font-family="Times,serif" font-size="14.00">dep</text>
</g>
<!-- 4 -->
<g id="node5" class="node">
<title>4</title>
<ellipse fill="none" stroke="black" cx="290.75" cy="-18" rx="54.69" ry="18"/>
<text text-anchor="middle" x="290.75" y="-14.3" font-family="Times,serif" font-size="14.00">assistiam</text>
</g>
<!-- 0&#45;&gt;4 -->
<g id="edge4" class="edge">
<title>0&#45;&gt;4</title>
<path fill="none" stroke="black" d="M979.76,-103.24C882.14,-100.35 547.64,-89.16 442.75,-69 404.71,-61.69 363.03,-47.51 332.95,-36.12"/>
<polygon fill="black" stroke="black" points="334.2,-32.85 323.61,-32.53 331.68,-39.38 334.2,-32.85"/>
<text text-anchor="middle" x="456.25" y="-57.8" font-family="Times,serif" font-size="14.00">dep</text>
</g>
<!-- 5 -->
<g id="node6" class="node">
<title>5</title>
<ellipse fill="none" stroke="black" cx="390.75" cy="-18" rx="27" ry="18"/>
<text text-anchor="middle" x="390.75" y="-14.3" font-family="Times,serif" font-size="14.00">a</text>
</g>
<!-- 0&#45;&gt;5 -->
<g id="edge5" class="edge">
<title>0&#45;&gt;5</title>
<path fill="none" stroke="black" d="M979.53,-104.55C905.16,-105.52 692.61,-104.69 520.75,-69 485.27,-61.63 446.78,-45.76 420.96,-33.86"/>
<polygon fill="black" stroke="black" points="422.26,-30.6 411.72,-29.52 419.29,-36.94 422.26,-30.6"/>
<text text-anchor="middle" x="534.25" y="-57.8" font-family="Times,serif" font-size="14.00">dep</text>
</g>
<!-- 6 -->
<g id="node7" class="node">
<title>6</title>
<ellipse fill="none" stroke="black" cx="466.75" cy="-18" rx="30.59" ry="18"/>
<text text-anchor="middle" x="466.75" y="-14.3" font-family="Times,serif" font-size="14.00">esta</text>
</g>
<!-- 0&#45;&gt;6 -->
<g id="edge6" class="edge">
<title>0&#45;&gt;6</title>
<path fill="none" stroke="black" d="M979.73,-104.04C913.93,-103.63 740.45,-99.49 599.75,-69 564.1,-61.28 525.27,-45.8 498.82,-34.1"/>
<polygon fill="black" stroke="black" points="500.22,-30.89 489.66,-29.98 497.35,-37.27 500.22,-30.89"/>
<text text-anchor="middle" x="613.25" y="-57.8" font-family="Times,serif" font-size="14.00">dep</text>
</g>
<!-- 7 -->
<g id="node8" class="node">
<title>7</title>
<ellipse fill="none" stroke="black" cx="547.75" cy="-18" rx="32.49" ry="18"/>
<text text-anchor="middle" x="547.75" y="-14.3" font-family="Times,serif" font-size="14.00">peça</text>
</g>
<!-- 0&#45;&gt;7 -->
<g id="edge7" class="edge">
<title>0&#45;&gt;7</title>
<path fill="none" stroke="black" d="M979.5,-103.39C922.66,-101.61 787.63,-94.79 677.75,-69 643.72,-61.01 606.68,-46.11 580.87,-34.64"/>
<polygon fill="black" stroke="black" points="582.11,-31.36 571.56,-30.44 579.23,-37.74 582.11,-31.36"/>
<text text-anchor="middle" x="691.25" y="-57.8" font-family="Times,serif" font-size="14.00">dep</text>
</g>
<!-- 8 -->
<g id="node9" class="node">
<title>8</title>
<ellipse fill="none" stroke="black" cx="624.75" cy="-18" rx="27" ry="18"/>
<text text-anchor="middle" x="624.75" y="-14.3" font-family="Times,serif" font-size="14.00">de</text>
</g>
<!-- 0&#45;&gt;8 -->
<g id="edge8" class="edge">
<title>0&#45;&gt;8</title>
<path fill="none" stroke="black" d="M979.88,-101.75C934.35,-97.59 839.29,-87.39 760.75,-69 715.18,-58.33 704.21,-53.36 660.75,-36 658.92,-35.27 657.05,-34.49 655.17,-33.68"/>
<polygon fill="black" stroke="black" points="656.43,-30.41 645.88,-29.51 653.56,-36.8 656.43,-30.41"/>
<text text-anchor="middle" x="774.25" y="-57.8" font-family="Times,serif" font-size="14.00">dep</text>
</g>
<!-- 9 -->
<g id="node10" class="node">
<title>9</title>
<ellipse fill="none" stroke="black" cx="696.75" cy="-18" rx="27" ry="18"/>
<text text-anchor="middle" x="696.75" y="-14.3" font-family="Times,serif" font-size="14.00">a</text>
</g>
<!-- 0&#45;&gt;9 -->
<g id="edge9" class="edge">
<title>0&#45;&gt;9</title>
<path fill="none" stroke="black" d="M980.92,-99.43C931.71,-90.31 821.51,-67.98 732.75,-36 730.89,-35.33 729.01,-34.6 727.12,-33.83"/>
<polygon fill="black" stroke="black" points="728.35,-30.55 717.78,-29.75 725.54,-36.97 728.35,-30.55"/>
<text text-anchor="middle" x="850.25" y="-57.8" font-family="Times,serif" font-size="14.00">dep</text>
</g>
<!-- 10 -->
<g id="node11" class="node">
<title>10</title>
<ellipse fill="none" stroke="black" cx="802.75" cy="-18" rx="61.19" ry="18"/>
<text text-anchor="middle" x="802.75" y="-14.3" font-family="Times,serif" font-size="14.00">companhia</text>
</g>
<!-- 0&#45;&gt;10 -->
<g id="edge10" class="edge">
<title>0&#45;&gt;10</title>
<path fill="none" stroke="black" d="M984.53,-94.74C951.31,-80.9 888.08,-54.55 845.66,-36.88"/>
<polygon fill="black" stroke="black" points="846.99,-33.64 836.41,-33.03 844.3,-40.1 846.99,-33.64"/>
<text text-anchor="middle" x="931.25" y="-57.8" font-family="Times,serif" font-size="14.00">dep</text>
</g>
<!-- 11 -->
<g id="node12" class="node">
<title>11</title>
<ellipse fill="none" stroke="black" cx="921.75" cy="-18" rx="40.09" ry="18"/>
<text text-anchor="middle" x="921.75" y="-14.3" font-family="Times,serif" font-size="14.00">Aquilo</text>
</g>
<!-- 0&#45;&gt;11 -->
<g id="edge11" class="edge">
<title>0&#45;&gt;11</title>
<path fill="none" stroke="black" d="M992.33,-89.58C979.34,-76.59 960.02,-57.27 944.87,-42.13"/>
<polygon fill="black" stroke="black" points="946.94,-39.24 937.39,-34.64 941.99,-44.19 946.94,-39.24"/>
<text text-anchor="middle" x="983.25" y="-57.8" font-family="Times,serif" font-size="14.00">dep</text>
</g>
<!-- 12 -->
<g id="node13" class="node">
<title>12</title>
<ellipse fill="none" stroke="black" cx="1006.75" cy="-18" rx="27" ry="18"/>
<text text-anchor="middle" x="1006.75" y="-14.3" font-family="Times,serif" font-size="14.00">,</text>
</g>
<!-- 0&#45;&gt;12 -->
<g id="edge12" class="edge">
<title>0&#45;&gt;12</title>
<path fill="none" stroke="black" d="M1006.75,-86.8C1006.75,-75.16 1006.75,-59.55 1006.75,-46.24"/>
<polygon fill="black" stroke="black" points="1010.25,-46.18 1006.75,-36.18 1003.25,-46.18 1010.25,-46.18"/>
<text text-anchor="middle" x="1020.25" y="-57.8" font-family="Times,serif" font-size="14.00">dep</text>
</g>
<!-- 13 -->
<g id="node14" class="node">
<title>13</title>
<ellipse fill="none" stroke="black" cx="1078.75" cy="-18" rx="27" ry="18"/>
<text text-anchor="middle" x="1078.75" y="-14.3" font-family="Times,serif" font-size="14.00">as</text>
</g>
<!-- 0&#45;&gt;13 -->
<g id="edge13" class="edge">
<title>0&#45;&gt;13</title>
<path fill="none" stroke="black" d="M1020.15,-89.12C1025.65,-82.94 1032.06,-75.67 1037.75,-69 1045.07,-60.41 1052.96,-50.86 1059.84,-42.43"/>
<polygon fill="black" stroke="black" points="1062.74,-44.41 1066.34,-34.44 1057.31,-39.99 1062.74,-44.41"/>
<text text-anchor="middle" x="1064.25" y="-57.8" font-family="Times,serif" font-size="14.00">dep</text>
</g>
<!-- 14 -->
<g id="node15" class="node">
<title>14</title>
<ellipse fill="none" stroke="black" cx="1172.75" cy="-18" rx="49.29" ry="18"/>
<text text-anchor="middle" x="1172.75" y="-14.3" font-family="Times,serif" font-size="14.00">crianças</text>
</g>
<!-- 0&#45;&gt;14 -->
<g id="edge14" class="edge">
<title>0&#45;&gt;14</title>
<path fill="none" stroke="black" d="M1028.59,-94.27C1043.65,-87.44 1064.06,-77.97 1081.75,-69 1100.6,-59.43 1121.28,-48.14 1138.15,-38.71"/>
<polygon fill="black" stroke="black" points="1140.1,-41.63 1147.1,-33.68 1136.67,-35.53 1140.1,-41.63"/>
<text text-anchor="middle" x="1123.25" y="-57.8" font-family="Times,serif" font-size="14.00">dep</text>
</g>
<!-- 15 -->
<g id="node16" class="node">
<title>15</title>
<ellipse fill="none" stroke="black" cx="1274.75" cy="-18" rx="34.39" ry="18"/>
<text text-anchor="middle" x="1274.75" y="-14.3" font-family="Times,serif" font-size="14.00">eram</text>
</g>
<!-- 0&#45;&gt;15 -->
<g id="edge15" class="edge">
<title>0&#45;&gt;15</title>
<path fill="none" stroke="black" d="M1031.89,-98.19C1058.98,-91.77 1103.23,-80.75 1140.75,-69 1181.4,-56.27 1190.87,-51.01 1230.75,-36 1233.25,-35.06 1235.82,-34.08 1238.42,-33.09"/>
<polygon fill="black" stroke="black" points="1239.7,-36.35 1247.78,-29.5 1237.19,-29.81 1239.7,-36.35"/>
<text text-anchor="middle" x="1197.25" y="-57.8" font-family="Times,serif" font-size="14.00">dep</text>
</g>
<!-- 16 -->
<g id="node17" class="node">
<title>16</title>
<ellipse fill="none" stroke="black" cx="1353.75" cy="-18" rx="27" ry="18"/>
<text text-anchor="middle" x="1353.75" y="-14.3" font-family="Times,serif" font-size="14.00">,</text>
</g>
<!-- 0&#45;&gt;16 -->
<g id="edge16" class="edge">
<title>0&#45;&gt;16</title>
<path fill="none" stroke="black" d="M1033.26,-100.78C1073.03,-95.67 1150.34,-84.65 1214.75,-69 1261.46,-57.65 1273.03,-53.63 1317.75,-36 1319.58,-35.28 1321.45,-34.5 1323.33,-33.7"/>
<polygon fill="black" stroke="black" points="1324.93,-36.82 1332.63,-29.54 1322.07,-30.43 1324.93,-36.82"/>
<text text-anchor="middle" x="1282.25" y="-57.8" font-family="Times,serif" font-size="14.00">dep</text>
</g>
<!-- 17 -->
<g id="node18" class="node">
<title>17</title>
<ellipse fill="none" stroke="black" cx="1428.75" cy="-18" rx="29.8" ry="18"/>
<text text-anchor="middle" x="1428.75" y="-14.3" font-family="Times,serif" font-size="14.00">sem</text>
</g>
<!-- 0&#45;&gt;17 -->
<g id="edge17" class="edge">
<title>0&#45;&gt;17</title>
<path fill="none" stroke="black" d="M1033.78,-102.87C1085.89,-100.23 1203.59,-92.04 1299.75,-69 1333.92,-60.81 1371.17,-45.65 1396.81,-34.16"/>
<polygon fill="black" stroke="black" points="1398.39,-37.29 1406.04,-29.96 1395.49,-30.92 1398.39,-37.29"/>
<text text-anchor="middle" x="1361.25" y="-57.8" font-family="Times,serif" font-size="14.00">dep</text>
</g>
<!-- 18 -->
<g id="node19" class="node">
<title>18</title>
<ellipse fill="none" stroke="black" cx="1518.75" cy="-18" rx="42.49" ry="18"/>
<text text-anchor="middle" x="1518.75" y="-14.3" font-family="Times,serif" font-size="14.00">dúvida</text>
</g>
<!-- 0&#45;&gt;18 -->
<g id="edge18" class="edge">
<title>0&#45;&gt;18</title>
<path fill="none" stroke="black" d="M1033.72,-103.75C1095.51,-102.69 1251.78,-97.18 1378.75,-69 1414.36,-61.1 1453.32,-46.68 1481.08,-35.35"/>
<polygon fill="black" stroke="black" points="1482.51,-38.55 1490.41,-31.49 1479.83,-32.08 1482.51,-38.55"/>
<text text-anchor="middle" x="1444.25" y="-57.8" font-family="Times,serif" font-size="14.00">dep</text>
</g>
<!-- 19 -->
<g id="node20" class="node">
<title>19</title>
<ellipse fill="none" stroke="black" cx="1605.75" cy="-18" rx="27" ry="18"/>
<text text-anchor="middle" x="1605.75" y="-14.3" font-family="Times,serif" font-size="14.00">,</text>
</g>
<!-- 0&#45;&gt;19 -->
<g id="edge19" class="edge">
<title>0&#45;&gt;19</title>
<path fill="none" stroke="black" d="M1033.94,-103.98C1104.96,-103.48 1301.57,-99.25 1461.75,-69 1511.07,-59.69 1522.93,-54.1 1569.75,-36 1571.58,-35.29 1573.46,-34.53 1575.34,-33.73"/>
<polygon fill="black" stroke="black" points="1576.94,-36.85 1584.65,-29.59 1574.09,-30.46 1576.94,-36.85"/>
<text text-anchor="middle" x="1536.25" y="-57.8" font-family="Times,serif" font-size="14.00">dep</text>
</g>
<!-- 20 -->
<g id="node21" class="node">
<title>20</title>
<ellipse fill="none" stroke="black" cx="1677.75" cy="-18" rx="27" ry="18"/>
<text text-anchor="middle" x="1677.75" y="-14.3" font-family="Times,serif" font-size="14.00">as</text>
</g>
<!-- 0&#45;&gt;20 -->
<g id="edge20" class="edge">
<title>0&#45;&gt;20</title>
<path fill="none" stroke="black" d="M1033.94,-103.32C1129.96,-100.75 1452.8,-90.66 1553.75,-69 1587.21,-61.82 1623.25,-46.33 1647.81,-34.48"/>
<polygon fill="black" stroke="black" points="1649.52,-37.54 1656.95,-29.98 1646.43,-31.26 1649.52,-37.54"/>
<text text-anchor="middle" x="1617.25" y="-57.8" font-family="Times,serif" font-size="14.00">dep</text>
</g>
<!-- 21 -->
<g id="node22" class="node">
<title>21</title>
<ellipse fill="none" stroke="black" cx="1754.75" cy="-18" rx="32.49" ry="18"/>
<text text-anchor="middle" x="1754.75" y="-14.3" font-family="Times,serif" font-size="14.00">mais</text>
</g>
<!-- 0&#45;&gt;21 -->
<g id="edge21" class="edge">
<title>0&#45;&gt;21</title>
<path fill="none" stroke="black" d="M1033.92,-103.71C1138.89,-102.38 1517.8,-95.8 1634.75,-69 1665.88,-61.87 1699.26,-47.34 1722.89,-35.78"/>
<polygon fill="black" stroke="black" points="1724.69,-38.79 1732.07,-31.19 1721.56,-32.53 1724.69,-38.79"/>
<text text-anchor="middle" x="1693.25" y="-57.8" font-family="Times,serif" font-size="14.00">dep</text>
</g>
<!-- 22 -->
<g id="node23" class="node">
<title>22</title>
<ellipse fill="none" stroke="black" cx="1864.75" cy="-18" rx="59.59" ry="18"/>
<text text-anchor="middle" x="1864.75" y="-14.3" font-family="Times,serif" font-size="14.00">fascinadas</text>
</g>
<!-- 0&#45;&gt;22 -->
<g id="edge22" class="edge">
<title>0&#45;&gt;22</title>
<path fill="none" stroke="black" d="M1034.01,-103.61C1146.81,-101.83 1577.3,-93.53 1710.75,-69 1749.04,-61.96 1790.98,-47.9 1821.41,-36.48"/>
<polygon fill="black" stroke="black" points="1822.76,-39.71 1830.86,-32.88 1820.27,-33.17 1822.76,-39.71"/>
<text text-anchor="middle" x="1781.25" y="-57.8" font-family="Times,serif" font-size="14.00">dep</text>
</g>
<!-- 23 -->
<g id="node24" class="node">
<title>23</title>
<ellipse fill="none" stroke="black" cx="1969.75" cy="-18" rx="27" ry="18"/>
<text text-anchor="middle" x="1969.75" y="-14.3" font-family="Times,serif" font-size="14.00">.</text>
</g>
<!-- 0&#45;&gt;23 -->
<g id="edge23" class="edge">
<title>0&#45;&gt;23</title>
<path fill="none" stroke="black" d="M1034.03,-103.51C1155.32,-101.23 1646.32,-90.78 1798.75,-69 1859.89,-60.26 1875.53,-56.63 1933.75,-36 1935.65,-35.32 1937.59,-34.58 1939.53,-33.8"/>
<polygon fill="black" stroke="black" points="1941.34,-36.83 1949.11,-29.62 1938.54,-30.41 1941.34,-36.83"/>
<text text-anchor="middle" x="1892.25" y="-57.8" font-family="Times,serif" font-size="14.00">dep</text>
</g>
</g>
</svg>
