<?xml version="1.0" encoding="UTF-8" standalone="no"?>
<!DOCTYPE svg PUBLIC "-//W3C//DTD SVG 1.1//EN"
 "http://www.w3.org/Graphics/SVG/1.1/DTD/svg11.dtd">
<!-- Generated by graphviz version 2.42.4 (0)
 -->
<!-- Pages: 1 -->
<svg width="2239pt" height="131pt"
 viewBox="0.00 0.00 2239.00 131.00" xmlns="http://www.w3.org/2000/svg" xmlns:xlink="http://www.w3.org/1999/xlink">
<g id="graph0" class="graph" transform="scale(1 1) rotate(0) translate(4 127)">
<polygon fill="white" stroke="transparent" points="-4,4 -4,-127 2235,-127 2235,4 -4,4"/>
<!-- 0 -->
<g id="node1" class="node">
<title>0</title>
<ellipse fill="none" stroke="black" cx="1118" cy="-105" rx="51.99" ry="18"/>
<text text-anchor="middle" x="1118" y="-101.3" font-family="Times,serif" font-size="14.00">McGrath</text>
</g>
<!-- 1 -->
<g id="node2" class="node">
<title>1</title>
<ellipse fill="none" stroke="black" cx="27" cy="-18" rx="27" ry="18"/>
<text text-anchor="middle" x="27" y="-14.3" font-family="Times,serif" font-size="14.00">já</text>
</g>
<!-- 0&#45;&gt;1 -->
<g id="edge1" class="edge">
<title>0&#45;&gt;1</title>
<path fill="none" stroke="black" d="M1065.81,-104.04C892.58,-103.88 337.68,-100.82 162,-69 124.76,-62.26 84.35,-46 57.54,-33.84"/>
<polygon fill="black" stroke="black" points="58.86,-30.59 48.31,-29.57 55.92,-36.95 58.86,-30.59"/>
<text text-anchor="middle" x="175.5" y="-57.8" font-family="Times,serif" font-size="14.00">dep</text>
</g>
<!-- 2 -->
<g id="node3" class="node">
<title>2</title>
<ellipse fill="none" stroke="black" cx="106" cy="-18" rx="34.39" ry="18"/>
<text text-anchor="middle" x="106" y="-14.3" font-family="Times,serif" font-size="14.00">tinha</text>
</g>
<!-- 0&#45;&gt;2 -->
<g id="edge2" class="edge">
<title>0&#45;&gt;2</title>
<path fill="none" stroke="black" d="M1066.08,-103.8C903.74,-102.87 407.22,-97.71 249,-69 210.81,-62.07 169.12,-46.51 140.66,-34.58"/>
<polygon fill="black" stroke="black" points="141.75,-31.23 131.18,-30.53 139,-37.67 141.75,-31.23"/>
<text text-anchor="middle" x="262.5" y="-57.8" font-family="Times,serif" font-size="14.00">dep</text>
</g>
<!-- 3 -->
<g id="node4" class="node">
<title>3</title>
<ellipse fill="none" stroke="black" cx="188" cy="-18" rx="29.8" ry="18"/>
<text text-anchor="middle" x="188" y="-14.3" font-family="Times,serif" font-size="14.00">sido</text>
</g>
<!-- 0&#45;&gt;3 -->
<g id="edge3" class="edge">
<title>0&#45;&gt;3</title>
<path fill="none" stroke="black" d="M1066.19,-103.17C916.51,-100.54 485.29,-91.18 346,-69 291.8,-60.37 278.73,-54.34 227,-36 224.77,-35.21 222.48,-34.35 220.19,-33.45"/>
<polygon fill="black" stroke="black" points="221.46,-30.19 210.88,-29.61 218.79,-36.66 221.46,-30.19"/>
<text text-anchor="middle" x="359.5" y="-57.8" font-family="Times,serif" font-size="14.00">dep</text>
</g>
<!-- 4 -->
<g id="node5" class="node">
<title>4</title>
<ellipse fill="none" stroke="black" cx="284" cy="-18" rx="48.19" ry="18"/>
<text text-anchor="middle" x="284" y="-14.3" font-family="Times,serif" font-size="14.00">finalista</text>
</g>
<!-- 0&#45;&gt;4 -->
<g id="edge4" class="edge">
<title>0&#45;&gt;4</title>
<path fill="none" stroke="black" d="M1066.07,-103.25C927.43,-100.94 550.92,-92.63 429,-69 392.24,-61.88 352.12,-47.5 323.42,-35.98"/>
<polygon fill="black" stroke="black" points="324.73,-32.73 314.15,-32.2 322.08,-39.21 324.73,-32.73"/>
<text text-anchor="middle" x="442.5" y="-57.8" font-family="Times,serif" font-size="14.00">dep</text>
</g>
<!-- 5 -->
<g id="node6" class="node">
<title>5</title>
<ellipse fill="none" stroke="black" cx="377" cy="-18" rx="27" ry="18"/>
<text text-anchor="middle" x="377" y="-14.3" font-family="Times,serif" font-size="14.00">em</text>
</g>
<!-- 0&#45;&gt;5 -->
<g id="edge5" class="edge">
<title>0&#45;&gt;5</title>
<path fill="none" stroke="black" d="M1066.02,-102.68C939.83,-99.21 620,-88.7 515,-69 468.17,-60.21 457.3,-53.54 413,-36 411.17,-35.27 409.3,-34.5 407.42,-33.7"/>
<polygon fill="black" stroke="black" points="408.68,-30.42 398.12,-29.53 405.81,-36.81 408.68,-30.42"/>
<text text-anchor="middle" x="528.5" y="-57.8" font-family="Times,serif" font-size="14.00">dep</text>
</g>
<!-- 6 -->
<g id="node7" class="node">
<title>6</title>
<ellipse fill="none" stroke="black" cx="453" cy="-18" rx="30.59" ry="18"/>
<text text-anchor="middle" x="453" y="-14.3" font-family="Times,serif" font-size="14.00">esta</text>
</g>
<!-- 0&#45;&gt;6 -->
<g id="edge6" class="edge">
<title>0&#45;&gt;6</title>
<path fill="none" stroke="black" d="M1065.87,-103.84C973.66,-102.8 776.03,-97.12 612,-69 557.9,-59.73 544.81,-54.11 493,-36 490.63,-35.17 488.2,-34.27 485.77,-33.33"/>
<polygon fill="black" stroke="black" points="487.07,-30.08 476.49,-29.59 484.45,-36.58 487.07,-30.08"/>
<text text-anchor="middle" x="625.5" y="-57.8" font-family="Times,serif" font-size="14.00">dep</text>
</g>
<!-- 7 -->
<g id="node8" class="node">
<title>7</title>
<ellipse fill="none" stroke="black" cx="551" cy="-18" rx="49.29" ry="18"/>
<text text-anchor="middle" x="551" y="-14.3" font-family="Times,serif" font-size="14.00">variante</text>
</g>
<!-- 0&#45;&gt;7 -->
<g id="edge7" class="edge">
<title>0&#45;&gt;7</title>
<path fill="none" stroke="black" d="M1065.95,-103.88C985.53,-102.76 826.57,-96.82 695,-69 659.1,-61.41 619.85,-47.37 591.4,-36.1"/>
<polygon fill="black" stroke="black" points="592.4,-32.73 581.82,-32.24 589.79,-39.22 592.4,-32.73"/>
<text text-anchor="middle" x="708.5" y="-57.8" font-family="Times,serif" font-size="14.00">dep</text>
</g>
<!-- 8 -->
<g id="node9" class="node">
<title>8</title>
<ellipse fill="none" stroke="black" cx="645" cy="-18" rx="27" ry="18"/>
<text text-anchor="middle" x="645" y="-14.3" font-family="Times,serif" font-size="14.00">em</text>
</g>
<!-- 0&#45;&gt;8 -->
<g id="edge8" class="edge">
<title>0&#45;&gt;8</title>
<path fill="none" stroke="black" d="M1066.36,-102.74C998.16,-100.19 874.72,-92.44 772,-69 737.59,-61.15 700.22,-45.5 674.99,-33.79"/>
<polygon fill="black" stroke="black" points="676.48,-30.63 665.94,-29.52 673.49,-36.96 676.48,-30.63"/>
<text text-anchor="middle" x="785.5" y="-57.8" font-family="Times,serif" font-size="14.00">dep</text>
</g>
<!-- 9 -->
<g id="node10" class="node">
<title>9</title>
<ellipse fill="none" stroke="black" cx="724" cy="-18" rx="34.39" ry="18"/>
<text text-anchor="middle" x="724" y="-14.3" font-family="Times,serif" font-size="14.00">1989</text>
</g>
<!-- 0&#45;&gt;9 -->
<g id="edge9" class="edge">
<title>0&#45;&gt;9</title>
<path fill="none" stroke="black" d="M1067,-101.26C1012.16,-97.42 922.76,-88.58 848,-69 816.48,-60.75 782.25,-46.51 757.75,-35.34"/>
<polygon fill="black" stroke="black" points="759.08,-32.1 748.54,-31.07 756.14,-38.45 759.08,-32.1"/>
<text text-anchor="middle" x="861.5" y="-57.8" font-family="Times,serif" font-size="14.00">dep</text>
</g>
<!-- 10 -->
<g id="node11" class="node">
<title>10</title>
<ellipse fill="none" stroke="black" cx="803" cy="-18" rx="27" ry="18"/>
<text text-anchor="middle" x="803" y="-14.3" font-family="Times,serif" font-size="14.00">,</text>
</g>
<!-- 0&#45;&gt;10 -->
<g id="edge10" class="edge">
<title>0&#45;&gt;10</title>
<path fill="none" stroke="black" d="M1069.34,-98.33C1028.85,-92.91 969.97,-83.42 920,-69 882.65,-58.22 874.59,-51.64 839,-36 837.2,-35.21 835.35,-34.38 833.49,-33.54"/>
<polygon fill="black" stroke="black" points="834.78,-30.28 824.23,-29.26 831.84,-36.63 834.78,-30.28"/>
<text text-anchor="middle" x="933.5" y="-57.8" font-family="Times,serif" font-size="14.00">dep</text>
</g>
<!-- 11 -->
<g id="node12" class="node">
<title>11</title>
<ellipse fill="none" stroke="black" cx="875" cy="-18" rx="27" ry="18"/>
<text text-anchor="middle" x="875" y="-14.3" font-family="Times,serif" font-size="14.00">o</text>
</g>
<!-- 0&#45;&gt;11 -->
<g id="edge11" class="edge">
<title>0&#45;&gt;11</title>
<path fill="none" stroke="black" d="M1075.98,-94.29C1050.29,-87.97 1016.93,-79.04 988,-69 952.82,-56.8 944.95,-51.29 911,-36 909.2,-35.19 907.36,-34.35 905.51,-33.5"/>
<polygon fill="black" stroke="black" points="906.8,-30.24 896.26,-29.2 903.85,-36.59 906.8,-30.24"/>
<text text-anchor="middle" x="1001.5" y="-57.8" font-family="Times,serif" font-size="14.00">dep</text>
</g>
<!-- 12 -->
<g id="node13" class="node">
<title>12</title>
<ellipse fill="none" stroke="black" cx="960" cy="-18" rx="40.09" ry="18"/>
<text text-anchor="middle" x="960" y="-14.3" font-family="Times,serif" font-size="14.00">último</text>
</g>
<!-- 0&#45;&gt;12 -->
<g id="edge12" class="edge">
<title>0&#45;&gt;12</title>
<path fill="none" stroke="black" d="M1087.43,-90.34C1073.97,-84.12 1058.05,-76.48 1044,-69 1026.22,-59.53 1006.87,-48.09 991.22,-38.55"/>
<polygon fill="black" stroke="black" points="992.83,-35.43 982.48,-33.18 989.17,-41.39 992.83,-35.43"/>
<text text-anchor="middle" x="1057.5" y="-57.8" font-family="Times,serif" font-size="14.00">dep</text>
</g>
<!-- 13 -->
<g id="node14" class="node">
<title>13</title>
<ellipse fill="none" stroke="black" cx="1046" cy="-18" rx="27.1" ry="18"/>
<text text-anchor="middle" x="1046" y="-14.3" font-family="Times,serif" font-size="14.00">ano</text>
</g>
<!-- 0&#45;&gt;13 -->
<g id="edge13" class="edge">
<title>0&#45;&gt;13</title>
<path fill="none" stroke="black" d="M1103.05,-87.38C1097.91,-81.6 1092.16,-75.05 1087,-69 1079.68,-60.41 1071.79,-50.86 1064.9,-42.43"/>
<polygon fill="black" stroke="black" points="1067.44,-39.99 1058.41,-34.44 1062,-44.41 1067.44,-39.99"/>
<text text-anchor="middle" x="1100.5" y="-57.8" font-family="Times,serif" font-size="14.00">dep</text>
</g>
<!-- 14 -->
<g id="node15" class="node">
<title>14</title>
<ellipse fill="none" stroke="black" cx="1118" cy="-18" rx="27" ry="18"/>
<text text-anchor="middle" x="1118" y="-14.3" font-family="Times,serif" font-size="14.00">em</text>
</g>
<!-- 0&#45;&gt;14 -->
<g id="edge14" class="edge">
<title>0&#45;&gt;14</title>
<path fill="none" stroke="black" d="M1118,-86.8C1118,-75.16 1118,-59.55 1118,-46.24"/>
<polygon fill="black" stroke="black" points="1121.5,-46.18 1118,-36.18 1114.5,-46.18 1121.5,-46.18"/>
<text text-anchor="middle" x="1131.5" y="-57.8" font-family="Times,serif" font-size="14.00">dep</text>
</g>
<!-- 15 -->
<g id="node16" class="node">
<title>15</title>
<ellipse fill="none" stroke="black" cx="1191" cy="-18" rx="27.9" ry="18"/>
<text text-anchor="middle" x="1191" y="-14.3" font-family="Times,serif" font-size="14.00">que</text>
</g>
<!-- 0&#45;&gt;15 -->
<g id="edge15" class="edge">
<title>0&#45;&gt;15</title>
<path fill="none" stroke="black" d="M1132.6,-87.7C1137.81,-81.83 1143.7,-75.15 1149,-69 1156.52,-60.28 1164.68,-50.61 1171.79,-42.12"/>
<polygon fill="black" stroke="black" points="1174.51,-44.33 1178.24,-34.41 1169.14,-39.84 1174.51,-44.33"/>
<text text-anchor="middle" x="1174.5" y="-57.8" font-family="Times,serif" font-size="14.00">dep</text>
</g>
<!-- 16 -->
<g id="node17" class="node">
<title>16</title>
<ellipse fill="none" stroke="black" cx="1264" cy="-18" rx="27" ry="18"/>
<text text-anchor="middle" x="1264" y="-14.3" font-family="Times,serif" font-size="14.00">o</text>
</g>
<!-- 0&#45;&gt;16 -->
<g id="edge16" class="edge">
<title>0&#45;&gt;16</title>
<path fill="none" stroke="black" d="M1149.55,-90.47C1162.9,-84.39 1178.47,-76.83 1192,-69 1207.99,-59.75 1225.01,-48.03 1238.48,-38.26"/>
<polygon fill="black" stroke="black" points="1240.79,-40.91 1246.78,-32.17 1236.65,-35.27 1240.79,-40.91"/>
<text text-anchor="middle" x="1228.5" y="-57.8" font-family="Times,serif" font-size="14.00">dep</text>
</g>
<!-- 17 -->
<g id="node18" class="node">
<title>17</title>
<ellipse fill="none" stroke="black" cx="1345" cy="-18" rx="36" ry="18"/>
<text text-anchor="middle" x="1345" y="-14.3" font-family="Times,serif" font-size="14.00">título</text>
</g>
<!-- 0&#45;&gt;17 -->
<g id="edge17" class="edge">
<title>0&#45;&gt;17</title>
<path fill="none" stroke="black" d="M1160.77,-94.58C1185.98,-88.48 1218.26,-79.67 1246,-69 1269.32,-60.03 1294.44,-47.3 1313.53,-36.94"/>
<polygon fill="black" stroke="black" points="1315.32,-39.95 1322.39,-32.06 1311.94,-33.82 1315.32,-39.95"/>
<text text-anchor="middle" x="1293.5" y="-57.8" font-family="Times,serif" font-size="14.00">dep</text>
</g>
<!-- 18 -->
<g id="node19" class="node">
<title>18</title>
<ellipse fill="none" stroke="black" cx="1433" cy="-18" rx="34.39" ry="18"/>
<text text-anchor="middle" x="1433" y="-14.3" font-family="Times,serif" font-size="14.00">tinha</text>
</g>
<!-- 0&#45;&gt;18 -->
<g id="edge18" class="edge">
<title>0&#45;&gt;18</title>
<path fill="none" stroke="black" d="M1166.24,-98.11C1205.68,-92.62 1262.62,-83.13 1311,-69 1341.51,-60.09 1374.82,-46.13 1398.91,-35.23"/>
<polygon fill="black" stroke="black" points="1400.68,-38.26 1408.32,-30.91 1397.77,-31.9 1400.68,-38.26"/>
<text text-anchor="middle" x="1366.5" y="-57.8" font-family="Times,serif" font-size="14.00">dep</text>
</g>
<!-- 19 -->
<g id="node20" class="node">
<title>19</title>
<ellipse fill="none" stroke="black" cx="1539" cy="-18" rx="53.89" ry="18"/>
<text text-anchor="middle" x="1539" y="-14.3" font-family="Times,serif" font-size="14.00">revertido</text>
</g>
<!-- 0&#45;&gt;19 -->
<g id="edge19" class="edge">
<title>0&#45;&gt;19</title>
<path fill="none" stroke="black" d="M1168.48,-100.1C1222.34,-95.3 1309.93,-85.67 1384,-69 1422.21,-60.4 1464.45,-46.47 1495.17,-35.49"/>
<polygon fill="black" stroke="black" points="1496.5,-38.73 1504.72,-32.04 1494.12,-32.15 1496.5,-38.73"/>
<text text-anchor="middle" x="1449.5" y="-57.8" font-family="Times,serif" font-size="14.00">dep</text>
</g>
<!-- 20 -->
<g id="node21" class="node">
<title>20</title>
<ellipse fill="none" stroke="black" cx="1660" cy="-18" rx="48.99" ry="18"/>
<text text-anchor="middle" x="1660" y="-14.3" font-family="Times,serif" font-size="14.00">também</text>
</g>
<!-- 0&#45;&gt;20 -->
<g id="edge20" class="edge">
<title>0&#45;&gt;20</title>
<path fill="none" stroke="black" d="M1168.87,-101.13C1237.09,-96.78 1361.82,-87.04 1467,-69 1527.88,-58.56 1542.35,-52.02 1602,-36 1605.77,-34.99 1609.67,-33.91 1613.58,-32.81"/>
<polygon fill="black" stroke="black" points="1614.6,-36.16 1623.25,-30.04 1612.68,-29.43 1614.6,-36.16"/>
<text text-anchor="middle" x="1548.5" y="-57.8" font-family="Times,serif" font-size="14.00">dep</text>
</g>
<!-- 21 -->
<g id="node22" class="node">
<title>21</title>
<ellipse fill="none" stroke="black" cx="1759" cy="-18" rx="31.7" ry="18"/>
<text text-anchor="middle" x="1759" y="-14.3" font-family="Times,serif" font-size="14.00">para</text>
</g>
<!-- 0&#45;&gt;21 -->
<g id="edge21" class="edge">
<title>0&#45;&gt;21</title>
<path fill="none" stroke="black" d="M1169.65,-102.24C1253.29,-98.89 1423.4,-89.95 1566,-69 1634.4,-58.95 1652.03,-56.66 1718,-36 1720.3,-35.28 1722.64,-34.48 1724.99,-33.64"/>
<polygon fill="black" stroke="black" points="1726.46,-36.82 1734.55,-29.98 1723.96,-30.29 1726.46,-36.82"/>
<text text-anchor="middle" x="1667.5" y="-57.8" font-family="Times,serif" font-size="14.00">dep</text>
</g>
<!-- 22 -->
<g id="node23" class="node">
<title>22</title>
<ellipse fill="none" stroke="black" cx="1836" cy="-18" rx="27" ry="18"/>
<text text-anchor="middle" x="1836" y="-14.3" font-family="Times,serif" font-size="14.00">um</text>
</g>
<!-- 0&#45;&gt;22 -->
<g id="edge22" class="edge">
<title>0&#45;&gt;22</title>
<path fill="none" stroke="black" d="M1170.03,-104.55C1270.4,-104.79 1497.42,-101.31 1685,-69 1737.4,-59.98 1750.24,-54.75 1800,-36 1801.84,-35.31 1803.72,-34.55 1805.61,-33.77"/>
<polygon fill="black" stroke="black" points="1807.2,-36.89 1814.93,-29.65 1804.36,-30.49 1807.2,-36.89"/>
<text text-anchor="middle" x="1763.5" y="-57.8" font-family="Times,serif" font-size="14.00">dep</text>
</g>
<!-- 23 -->
<g id="node24" class="node">
<title>23</title>
<ellipse fill="none" stroke="black" cx="1908" cy="-18" rx="27" ry="18"/>
<text text-anchor="middle" x="1908" y="-14.3" font-family="Times,serif" font-size="14.00">par</text>
</g>
<!-- 0&#45;&gt;23 -->
<g id="edge23" class="edge">
<title>0&#45;&gt;23</title>
<path fill="none" stroke="black" d="M1170.19,-103.23C1305.37,-100.91 1664.51,-92.65 1781,-69 1815.59,-61.98 1852.93,-46.2 1878.1,-34.23"/>
<polygon fill="black" stroke="black" points="1879.66,-37.37 1887.13,-29.85 1876.6,-31.07 1879.66,-37.37"/>
<text text-anchor="middle" x="1845.5" y="-57.8" font-family="Times,serif" font-size="14.00">dep</text>
</g>
<!-- 24 -->
<g id="node25" class="node">
<title>24</title>
<ellipse fill="none" stroke="black" cx="1980" cy="-18" rx="27" ry="18"/>
<text text-anchor="middle" x="1980" y="-14.3" font-family="Times,serif" font-size="14.00">de</text>
</g>
<!-- 0&#45;&gt;24 -->
<g id="edge24" class="edge">
<title>0&#45;&gt;24</title>
<path fill="none" stroke="black" d="M1169.96,-103.84C1316.44,-103.04 1730.62,-98.17 1863,-69 1894.47,-62.06 1928.07,-46.79 1951.16,-34.94"/>
<polygon fill="black" stroke="black" points="1952.83,-38.01 1960.06,-30.27 1949.58,-31.81 1952.83,-38.01"/>
<text text-anchor="middle" x="1923.5" y="-57.8" font-family="Times,serif" font-size="14.00">dep</text>
</g>
<!-- 25 -->
<g id="node26" class="node">
<title>25</title>
<ellipse fill="none" stroke="black" cx="2052" cy="-18" rx="27" ry="18"/>
<text text-anchor="middle" x="2052" y="-14.3" font-family="Times,serif" font-size="14.00">a</text>
</g>
<!-- 0&#45;&gt;25 -->
<g id="edge25" class="edge">
<title>0&#45;&gt;25</title>
<path fill="none" stroke="black" d="M1170.05,-104.3C1326.94,-104.8 1793.52,-103.3 1941,-69 1970.41,-62.16 2001.56,-47.38 2023.35,-35.66"/>
<polygon fill="black" stroke="black" points="2025.31,-38.58 2032.38,-30.69 2021.93,-32.45 2025.31,-38.58"/>
<text text-anchor="middle" x="1999.5" y="-57.8" font-family="Times,serif" font-size="14.00">dep</text>
</g>
<!-- 26 -->
<g id="node27" class="node">
<title>26</title>
<ellipse fill="none" stroke="black" cx="2128" cy="-18" rx="31.4" ry="18"/>
<text text-anchor="middle" x="2128" y="-14.3" font-family="Times,serif" font-size="14.00">casa</text>
</g>
<!-- 0&#45;&gt;26 -->
<g id="edge26" class="edge">
<title>0&#45;&gt;26</title>
<path fill="none" stroke="black" d="M1169.73,-103.14C1348.63,-100.01 1934.71,-88.36 2017,-69 2045.67,-62.25 2076.03,-48.03 2097.73,-36.48"/>
<polygon fill="black" stroke="black" points="2099.66,-39.41 2106.77,-31.55 2096.31,-33.26 2099.66,-39.41"/>
<text text-anchor="middle" x="2075.5" y="-57.8" font-family="Times,serif" font-size="14.00">dep</text>
</g>
<!-- 27 -->
<g id="node28" class="node">
<title>27</title>
<ellipse fill="none" stroke="black" cx="2204" cy="-18" rx="27" ry="18"/>
<text text-anchor="middle" x="2204" y="-14.3" font-family="Times,serif" font-size="14.00">.</text>
</g>
<!-- 0&#45;&gt;27 -->
<g id="edge27" class="edge">
<title>0&#45;&gt;27</title>
<path fill="none" stroke="black" d="M1169.8,-103.28C1358.52,-100.51 2002.97,-89.62 2093,-69 2122.43,-62.26 2153.58,-47.47 2175.37,-35.72"/>
<polygon fill="black" stroke="black" points="2177.33,-38.63 2184.39,-30.73 2173.94,-32.5 2177.33,-38.63"/>
<text text-anchor="middle" x="2151.5" y="-57.8" font-family="Times,serif" font-size="14.00">dep</text>
</g>
</g>
</svg>
