<?xml version="1.0" encoding="UTF-8" standalone="no"?>
<!DOCTYPE svg PUBLIC "-//W3C//DTD SVG 1.1//EN"
 "http://www.w3.org/Graphics/SVG/1.1/DTD/svg11.dtd">
<!-- Generated by graphviz version 2.42.4 (0)
 -->
<!-- Pages: 1 -->
<svg width="627pt" height="131pt"
 viewBox="0.00 0.00 626.95 131.00" xmlns="http://www.w3.org/2000/svg" xmlns:xlink="http://www.w3.org/1999/xlink">
<g id="graph0" class="graph" transform="scale(1 1) rotate(0) translate(4 127)">
<polygon fill="white" stroke="transparent" points="-4,4 -4,-127 622.95,-127 622.95,4 -4,4"/>
<!-- 0 -->
<g id="node1" class="node">
<title>0</title>
<ellipse fill="none" stroke="black" cx="303.95" cy="-105" rx="27" ry="18"/>
<text text-anchor="middle" x="303.95" y="-101.3" font-family="Times,serif" font-size="14.00">Por</text>
</g>
<!-- 1 -->
<g id="node2" class="node">
<title>1</title>
<ellipse fill="none" stroke="black" cx="27.95" cy="-18" rx="27.9" ry="18"/>
<text text-anchor="middle" x="27.95" y="-14.3" font-family="Times,serif" font-size="14.00">que</text>
</g>
<!-- 0&#45;&gt;1 -->
<g id="edge1" class="edge">
<title>0&#45;&gt;1</title>
<path fill="none" stroke="black" d="M277.91,-99.88C245.74,-94.44 189.57,-83.79 142.95,-69 107.07,-57.62 99.39,-51.19 64.95,-36 63.15,-35.21 61.31,-34.39 59.46,-33.56"/>
<polygon fill="black" stroke="black" points="60.76,-30.3 50.2,-29.36 57.86,-36.68 60.76,-30.3"/>
<text text-anchor="middle" x="156.45" y="-57.8" font-family="Times,serif" font-size="14.00">dep</text>
</g>
<!-- 2 -->
<g id="node3" class="node">
<title>2</title>
<ellipse fill="none" stroke="black" cx="109.95" cy="-18" rx="36.29" ry="18"/>
<text text-anchor="middle" x="109.95" y="-14.3" font-family="Times,serif" font-size="14.00">razão</text>
</g>
<!-- 0&#45;&gt;2 -->
<g id="edge2" class="edge">
<title>0&#45;&gt;2</title>
<path fill="none" stroke="black" d="M279.61,-96.91C258.66,-90.51 227.83,-80.38 201.95,-69 180.97,-59.78 158.35,-47.52 140.79,-37.45"/>
<polygon fill="black" stroke="black" points="142.51,-34.4 132.1,-32.41 139,-40.45 142.51,-34.4"/>
<text text-anchor="middle" x="215.45" y="-57.8" font-family="Times,serif" font-size="14.00">dep</text>
</g>
<!-- 3 -->
<g id="node4" class="node">
<title>3</title>
<ellipse fill="none" stroke="black" cx="190.95" cy="-18" rx="27" ry="18"/>
<text text-anchor="middle" x="190.95" y="-14.3" font-family="Times,serif" font-size="14.00">é</text>
</g>
<!-- 0&#45;&gt;3 -->
<g id="edge3" class="edge">
<title>0&#45;&gt;3</title>
<path fill="none" stroke="black" d="M284.96,-92.19C274.7,-85.62 261.92,-77.16 250.95,-69 238.55,-59.78 225.3,-48.86 214.41,-39.59"/>
<polygon fill="black" stroke="black" points="216.46,-36.73 206.6,-32.86 211.9,-42.04 216.46,-36.73"/>
<text text-anchor="middle" x="264.45" y="-57.8" font-family="Times,serif" font-size="14.00">dep</text>
</g>
<!-- 4 -->
<g id="node5" class="node">
<title>4</title>
<ellipse fill="none" stroke="black" cx="262.95" cy="-18" rx="27" ry="18"/>
<text text-anchor="middle" x="262.95" y="-14.3" font-family="Times,serif" font-size="14.00">tão</text>
</g>
<!-- 0&#45;&gt;4 -->
<g id="edge4" class="edge">
<title>0&#45;&gt;4</title>
<path fill="none" stroke="black" d="M296.04,-87.61C290.14,-75.38 281.97,-58.44 275.23,-44.46"/>
<polygon fill="black" stroke="black" points="278.33,-42.82 270.83,-35.34 272.02,-45.87 278.33,-42.82"/>
<text text-anchor="middle" x="299.45" y="-57.8" font-family="Times,serif" font-size="14.00">dep</text>
</g>
<!-- 5 -->
<g id="node6" class="node">
<title>5</title>
<ellipse fill="none" stroke="black" cx="344.95" cy="-18" rx="37.09" ry="18"/>
<text text-anchor="middle" x="344.95" y="-14.3" font-family="Times,serif" font-size="14.00">grave</text>
</g>
<!-- 0&#45;&gt;5 -->
<g id="edge5" class="edge">
<title>0&#45;&gt;5</title>
<path fill="none" stroke="black" d="M311.85,-87.61C317.71,-75.46 325.82,-58.66 332.54,-44.73"/>
<polygon fill="black" stroke="black" points="335.73,-46.16 336.93,-35.63 329.43,-43.11 335.73,-46.16"/>
<text text-anchor="middle" x="340.45" y="-57.8" font-family="Times,serif" font-size="14.00">dep</text>
</g>
<!-- 6 -->
<g id="node7" class="node">
<title>6</title>
<ellipse fill="none" stroke="black" cx="430.95" cy="-18" rx="30.59" ry="18"/>
<text text-anchor="middle" x="430.95" y="-14.3" font-family="Times,serif" font-size="14.00">este</text>
</g>
<!-- 0&#45;&gt;6 -->
<g id="edge6" class="edge">
<title>0&#45;&gt;6</title>
<path fill="none" stroke="black" d="M323.02,-91.81C333.39,-85.13 346.42,-76.68 357.95,-69 373.05,-58.94 389.76,-47.52 403.37,-38.13"/>
<polygon fill="black" stroke="black" points="405.59,-40.86 411.83,-32.29 401.61,-35.1 405.59,-40.86"/>
<text text-anchor="middle" x="394.45" y="-57.8" font-family="Times,serif" font-size="14.00">dep</text>
</g>
<!-- 7 -->
<g id="node8" class="node">
<title>7</title>
<ellipse fill="none" stroke="black" cx="512.95" cy="-18" rx="33.6" ry="18"/>
<text text-anchor="middle" x="512.95" y="-14.3" font-family="Times,serif" font-size="14.00">facto</text>
</g>
<!-- 0&#45;&gt;7 -->
<g id="edge7" class="edge">
<title>0&#45;&gt;7</title>
<path fill="none" stroke="black" d="M328.33,-97.21C350.46,-90.78 383.83,-80.44 411.95,-69 435.62,-59.37 461.43,-46.54 481.03,-36.3"/>
<polygon fill="black" stroke="black" points="482.91,-39.26 490.12,-31.5 479.65,-33.07 482.91,-39.26"/>
<text text-anchor="middle" x="457.45" y="-57.8" font-family="Times,serif" font-size="14.00">dep</text>
</g>
<!-- 8 -->
<g id="node9" class="node">
<title>8</title>
<ellipse fill="none" stroke="black" cx="591.95" cy="-18" rx="27" ry="18"/>
<text text-anchor="middle" x="591.95" y="-14.3" font-family="Times,serif" font-size="14.00">?</text>
</g>
<!-- 0&#45;&gt;8 -->
<g id="edge8" class="edge">
<title>0&#45;&gt;8</title>
<path fill="none" stroke="black" d="M330.1,-100.19C363.97,-94.91 424.63,-84.25 474.95,-69 512.15,-57.72 520.36,-51.64 555.95,-36 557.75,-35.21 559.6,-34.38 561.46,-33.54"/>
<polygon fill="black" stroke="black" points="563.11,-36.63 570.71,-29.26 560.17,-30.28 563.11,-36.63"/>
<text text-anchor="middle" x="530.45" y="-57.8" font-family="Times,serif" font-size="14.00">dep</text>
</g>
</g>
</svg>
