<?xml version="1.0" encoding="UTF-8" standalone="no"?>
<!DOCTYPE svg PUBLIC "-//W3C//DTD SVG 1.1//EN"
 "http://www.w3.org/Graphics/SVG/1.1/DTD/svg11.dtd">
<!-- Generated by graphviz version 2.42.4 (0)
 -->
<!-- Pages: 1 -->
<svg width="1241pt" height="131pt"
 viewBox="0.00 0.00 1240.60 131.00" xmlns="http://www.w3.org/2000/svg" xmlns:xlink="http://www.w3.org/1999/xlink">
<g id="graph0" class="graph" transform="scale(1 1) rotate(0) translate(4 127)">
<polygon fill="white" stroke="transparent" points="-4,4 -4,-127 1236.6,-127 1236.6,4 -4,4"/>
<!-- 0 -->
<g id="node1" class="node">
<title>0</title>
<ellipse fill="none" stroke="black" cx="644.6" cy="-105" rx="37.89" ry="18"/>
<text text-anchor="middle" x="644.6" y="-101.3" font-family="Times,serif" font-size="14.00">Outro</text>
</g>
<!-- 1 -->
<g id="node2" class="node">
<title>1</title>
<ellipse fill="none" stroke="black" cx="54.6" cy="-18" rx="54.69" ry="18"/>
<text text-anchor="middle" x="54.6" y="-14.3" font-family="Times,serif" font-size="14.00">jornalista</text>
</g>
<!-- 0&#45;&gt;1 -->
<g id="edge1" class="edge">
<title>0&#45;&gt;1</title>
<path fill="none" stroke="black" d="M606.89,-103.32C533.34,-101.46 365.84,-94.52 227.6,-69 183.66,-60.89 134.87,-46.26 100.34,-34.91"/>
<polygon fill="black" stroke="black" points="101.14,-31.48 90.55,-31.65 98.93,-38.13 101.14,-31.48"/>
<text text-anchor="middle" x="241.1" y="-57.8" font-family="Times,serif" font-size="14.00">dep</text>
</g>
<!-- 2 -->
<g id="node3" class="node">
<title>2</title>
<ellipse fill="none" stroke="black" cx="168.6" cy="-18" rx="40.89" ry="18"/>
<text text-anchor="middle" x="168.6" y="-14.3" font-family="Times,serif" font-size="14.00">lançou</text>
</g>
<!-- 0&#45;&gt;2 -->
<g id="edge2" class="edge">
<title>0&#45;&gt;2</title>
<path fill="none" stroke="black" d="M606.95,-102.96C544.46,-100.6 415.68,-92.99 309.6,-69 273.56,-60.85 234.05,-46.32 206.04,-35.02"/>
<polygon fill="black" stroke="black" points="207.22,-31.72 196.64,-31.17 204.57,-38.2 207.22,-31.72"/>
<text text-anchor="middle" x="323.1" y="-57.8" font-family="Times,serif" font-size="14.00">dep</text>
</g>
<!-- 3 -->
<g id="node4" class="node">
<title>3</title>
<ellipse fill="none" stroke="black" cx="254.6" cy="-18" rx="27" ry="18"/>
<text text-anchor="middle" x="254.6" y="-14.3" font-family="Times,serif" font-size="14.00">a</text>
</g>
<!-- 0&#45;&gt;3 -->
<g id="edge3" class="edge">
<title>0&#45;&gt;3</title>
<path fill="none" stroke="black" d="M608.01,-100.59C559.68,-95.67 472.07,-85.35 398.6,-69 349.6,-58.1 337.41,-54.1 290.6,-36 288.76,-35.29 286.88,-34.53 285,-33.73"/>
<polygon fill="black" stroke="black" points="286.25,-30.46 275.69,-29.59 283.4,-36.85 286.25,-30.46"/>
<text text-anchor="middle" x="412.1" y="-57.8" font-family="Times,serif" font-size="14.00">dep</text>
</g>
<!-- 4 -->
<g id="node5" class="node">
<title>4</title>
<ellipse fill="none" stroke="black" cx="346.6" cy="-18" rx="47.39" ry="18"/>
<text text-anchor="middle" x="346.6" y="-14.3" font-family="Times,serif" font-size="14.00">questão</text>
</g>
<!-- 0&#45;&gt;4 -->
<g id="edge4" class="edge">
<title>0&#45;&gt;4</title>
<path fill="none" stroke="black" d="M609.13,-98.84C573.64,-93.21 517.68,-83.1 470.6,-69 441.15,-60.18 408.99,-47.11 384.8,-36.54"/>
<polygon fill="black" stroke="black" points="386.17,-33.32 375.61,-32.48 383.34,-39.73 386.17,-33.32"/>
<text text-anchor="middle" x="484.1" y="-57.8" font-family="Times,serif" font-size="14.00">dep</text>
</g>
<!-- 5 -->
<g id="node6" class="node">
<title>5</title>
<ellipse fill="none" stroke="black" cx="438.6" cy="-18" rx="27" ry="18"/>
<text text-anchor="middle" x="438.6" y="-14.3" font-family="Times,serif" font-size="14.00">de</text>
</g>
<!-- 0&#45;&gt;5 -->
<g id="edge5" class="edge">
<title>0&#45;&gt;5</title>
<path fill="none" stroke="black" d="M612.17,-95.59C589.5,-89.3 558.72,-79.92 532.6,-69 509.69,-59.43 484.94,-46.14 466.6,-35.66"/>
<polygon fill="black" stroke="black" points="468.29,-32.6 457.88,-30.63 464.79,-38.66 468.29,-32.6"/>
<text text-anchor="middle" x="546.1" y="-57.8" font-family="Times,serif" font-size="14.00">dep</text>
</g>
<!-- 6 -->
<g id="node7" class="node">
<title>6</title>
<ellipse fill="none" stroke="black" cx="511.6" cy="-18" rx="27.9" ry="18"/>
<text text-anchor="middle" x="511.6" y="-14.3" font-family="Times,serif" font-size="14.00">que</text>
</g>
<!-- 0&#45;&gt;6 -->
<g id="edge6" class="edge">
<title>0&#45;&gt;6</title>
<path fill="none" stroke="black" d="M621.43,-90.68C610.47,-84.27 597.26,-76.39 585.6,-69 569.8,-58.99 552.47,-47.32 538.55,-37.77"/>
<polygon fill="black" stroke="black" points="540.17,-34.63 529.95,-31.84 536.19,-40.4 540.17,-34.63"/>
<text text-anchor="middle" x="599.1" y="-57.8" font-family="Times,serif" font-size="14.00">dep</text>
</g>
<!-- 7 -->
<g id="node8" class="node">
<title>7</title>
<ellipse fill="none" stroke="black" cx="593.6" cy="-18" rx="36.29" ry="18"/>
<text text-anchor="middle" x="593.6" y="-14.3" font-family="Times,serif" font-size="14.00">todos</text>
</g>
<!-- 0&#45;&gt;7 -->
<g id="edge7" class="edge">
<title>0&#45;&gt;7</title>
<path fill="none" stroke="black" d="M634.76,-87.61C627.35,-75.26 617.07,-58.12 608.63,-44.05"/>
<polygon fill="black" stroke="black" points="611.54,-42.11 603.4,-35.34 605.54,-45.71 611.54,-42.11"/>
<text text-anchor="middle" x="636.1" y="-57.8" font-family="Times,serif" font-size="14.00">dep</text>
</g>
<!-- 8 -->
<g id="node9" class="node">
<title>8</title>
<ellipse fill="none" stroke="black" cx="695.6" cy="-18" rx="47.39" ry="18"/>
<text text-anchor="middle" x="695.6" y="-14.3" font-family="Times,serif" font-size="14.00">falavam</text>
</g>
<!-- 0&#45;&gt;8 -->
<g id="edge8" class="edge">
<title>0&#45;&gt;8</title>
<path fill="none" stroke="black" d="M654.43,-87.61C661.79,-75.34 671.99,-58.34 680.4,-44.32"/>
<polygon fill="black" stroke="black" points="683.47,-46 685.62,-35.63 677.47,-42.4 683.47,-46"/>
<text text-anchor="middle" x="687.1" y="-57.8" font-family="Times,serif" font-size="14.00">dep</text>
</g>
<!-- 9 -->
<g id="node10" class="node">
<title>9</title>
<ellipse fill="none" stroke="black" cx="787.6" cy="-18" rx="27" ry="18"/>
<text text-anchor="middle" x="787.6" y="-14.3" font-family="Times,serif" font-size="14.00">em</text>
</g>
<!-- 0&#45;&gt;9 -->
<g id="edge9" class="edge">
<title>0&#45;&gt;9</title>
<path fill="none" stroke="black" d="M667.72,-90.61C678.88,-84.12 692.46,-76.2 704.6,-69 722.86,-58.17 743.29,-45.87 759.31,-36.17"/>
<polygon fill="black" stroke="black" points="761.45,-38.97 768.19,-30.8 757.82,-32.98 761.45,-38.97"/>
<text text-anchor="middle" x="741.1" y="-57.8" font-family="Times,serif" font-size="14.00">dep</text>
</g>
<!-- 10 -->
<g id="node11" class="node">
<title>10</title>
<ellipse fill="none" stroke="black" cx="859.6" cy="-18" rx="27" ry="18"/>
<text text-anchor="middle" x="859.6" y="-14.3" font-family="Times,serif" font-size="14.00">a</text>
</g>
<!-- 0&#45;&gt;10 -->
<g id="edge10" class="edge">
<title>0&#45;&gt;10</title>
<path fill="none" stroke="black" d="M677.01,-95.56C700.1,-89.18 731.66,-79.72 758.6,-69 783.55,-59.07 810.78,-45.41 830.67,-34.88"/>
<polygon fill="black" stroke="black" points="832.37,-37.94 839.53,-30.14 829.06,-31.77 832.37,-37.94"/>
<text text-anchor="middle" x="807.1" y="-57.8" font-family="Times,serif" font-size="14.00">dep</text>
</g>
<!-- 11 -->
<g id="node12" class="node">
<title>11</title>
<ellipse fill="none" stroke="black" cx="933.6" cy="-18" rx="29.5" ry="18"/>
<text text-anchor="middle" x="933.6" y="-14.3" font-family="Times,serif" font-size="14.00">sala</text>
</g>
<!-- 0&#45;&gt;11 -->
<g id="edge11" class="edge">
<title>0&#45;&gt;11</title>
<path fill="none" stroke="black" d="M680.75,-99.55C717.55,-94.43 775.95,-84.64 824.6,-69 852.22,-60.12 882.07,-46.09 903.54,-35.15"/>
<polygon fill="black" stroke="black" points="905.21,-38.22 912.49,-30.52 902,-32.01 905.21,-38.22"/>
<text text-anchor="middle" x="875.1" y="-57.8" font-family="Times,serif" font-size="14.00">dep</text>
</g>
<!-- 12 -->
<g id="node13" class="node">
<title>12</title>
<ellipse fill="none" stroke="black" cx="1007.6" cy="-18" rx="27" ry="18"/>
<text text-anchor="middle" x="1007.6" y="-14.3" font-family="Times,serif" font-size="14.00">de</text>
</g>
<!-- 0&#45;&gt;12 -->
<g id="edge12" class="edge">
<title>0&#45;&gt;12</title>
<path fill="none" stroke="black" d="M681.75,-101.72C730.78,-98.05 819.43,-89.09 892.6,-69 922.72,-60.73 955.21,-46.02 977.94,-34.69"/>
<polygon fill="black" stroke="black" points="979.72,-37.71 987.05,-30.07 976.55,-31.47 979.72,-37.71"/>
<text text-anchor="middle" x="949.1" y="-57.8" font-family="Times,serif" font-size="14.00">dep</text>
</g>
<!-- 13 -->
<g id="node14" class="node">
<title>13</title>
<ellipse fill="none" stroke="black" cx="1106.6" cy="-18" rx="53.89" ry="18"/>
<text text-anchor="middle" x="1106.6" y="-14.3" font-family="Times,serif" font-size="14.00">imprensa</text>
</g>
<!-- 0&#45;&gt;13 -->
<g id="edge13" class="edge">
<title>0&#45;&gt;13</title>
<path fill="none" stroke="black" d="M682.26,-102.77C742.86,-100.15 865.48,-92.21 966.6,-69 1000.8,-61.15 1038.16,-47.53 1065.68,-36.49"/>
<polygon fill="black" stroke="black" points="1067.04,-39.72 1074.98,-32.71 1064.4,-33.23 1067.04,-39.72"/>
<text text-anchor="middle" x="1031.1" y="-57.8" font-family="Times,serif" font-size="14.00">dep</text>
</g>
<!-- 14 -->
<g id="node15" class="node">
<title>14</title>
<ellipse fill="none" stroke="black" cx="1205.6" cy="-18" rx="27" ry="18"/>
<text text-anchor="middle" x="1205.6" y="-14.3" font-family="Times,serif" font-size="14.00">:</text>
</g>
<!-- 0&#45;&gt;14 -->
<g id="edge14" class="edge">
<title>0&#45;&gt;14</title>
<path fill="none" stroke="black" d="M682.21,-103C753.97,-100.58 915.17,-92.77 1048.6,-69 1103.47,-59.22 1117.3,-55.31 1169.6,-36 1171.44,-35.32 1173.33,-34.58 1175.21,-33.8"/>
<polygon fill="black" stroke="black" points="1176.79,-36.93 1184.54,-29.7 1173.98,-30.52 1176.79,-36.93"/>
<text text-anchor="middle" x="1130.1" y="-57.8" font-family="Times,serif" font-size="14.00">dep</text>
</g>
</g>
</svg>
