<?xml version="1.0" encoding="UTF-8" standalone="no"?>
<!DOCTYPE svg PUBLIC "-//W3C//DTD SVG 1.1//EN"
 "http://www.w3.org/Graphics/SVG/1.1/DTD/svg11.dtd">
<!-- Generated by graphviz version 2.42.4 (0)
 -->
<!-- Pages: 1 -->
<svg width="474pt" height="131pt"
 viewBox="0.00 0.00 474.45 131.00" xmlns="http://www.w3.org/2000/svg" xmlns:xlink="http://www.w3.org/1999/xlink">
<g id="graph0" class="graph" transform="scale(1 1) rotate(0) translate(4 127)">
<polygon fill="white" stroke="transparent" points="-4,4 -4,-127 470.45,-127 470.45,4 -4,4"/>
<!-- 0 -->
<g id="node1" class="node">
<title>0</title>
<ellipse fill="none" stroke="black" cx="245.45" cy="-105" rx="42.49" ry="18"/>
<text text-anchor="middle" x="245.45" y="-101.3" font-family="Times,serif" font-size="14.00">Outras</text>
</g>
<!-- 1 -->
<g id="node2" class="node">
<title>1</title>
<ellipse fill="none" stroke="black" cx="34.45" cy="-18" rx="34.39" ry="18"/>
<text text-anchor="middle" x="34.45" y="-14.3" font-family="Times,serif" font-size="14.00">cinco</text>
</g>
<!-- 0&#45;&gt;1 -->
<g id="edge1" class="edge">
<title>0&#45;&gt;1</title>
<path fill="none" stroke="black" d="M214.32,-92.65C196.2,-85.95 172.95,-77.2 152.45,-69 124.3,-57.75 92.7,-44.31 69.28,-34.2"/>
<polygon fill="black" stroke="black" points="70.67,-30.99 60.1,-30.23 67.89,-37.41 70.67,-30.99"/>
<text text-anchor="middle" x="165.95" y="-57.8" font-family="Times,serif" font-size="14.00">dep</text>
</g>
<!-- 2 -->
<g id="node3" class="node">
<title>2</title>
<ellipse fill="none" stroke="black" cx="134.45" cy="-18" rx="47.39" ry="18"/>
<text text-anchor="middle" x="134.45" y="-14.3" font-family="Times,serif" font-size="14.00">pessoas</text>
</g>
<!-- 0&#45;&gt;2 -->
<g id="edge2" class="edge">
<title>0&#45;&gt;2</title>
<path fill="none" stroke="black" d="M225.86,-89C208.32,-75.57 182.4,-55.72 162.64,-40.59"/>
<polygon fill="black" stroke="black" points="164.66,-37.73 154.59,-34.42 160.4,-43.28 164.66,-37.73"/>
<text text-anchor="middle" x="210.95" y="-57.8" font-family="Times,serif" font-size="14.00">dep</text>
</g>
<!-- 3 -->
<g id="node4" class="node">
<title>3</title>
<ellipse fill="none" stroke="black" cx="245.45" cy="-18" rx="45.49" ry="18"/>
<text text-anchor="middle" x="245.45" y="-14.3" font-family="Times,serif" font-size="14.00">ficaram</text>
</g>
<!-- 0&#45;&gt;3 -->
<g id="edge3" class="edge">
<title>0&#45;&gt;3</title>
<path fill="none" stroke="black" d="M245.45,-86.8C245.45,-75.16 245.45,-59.55 245.45,-46.24"/>
<polygon fill="black" stroke="black" points="248.95,-46.18 245.45,-36.18 241.95,-46.18 248.95,-46.18"/>
<text text-anchor="middle" x="258.95" y="-57.8" font-family="Times,serif" font-size="14.00">dep</text>
</g>
<!-- 4 -->
<g id="node5" class="node">
<title>4</title>
<ellipse fill="none" stroke="black" cx="351.45" cy="-18" rx="42.79" ry="18"/>
<text text-anchor="middle" x="351.45" y="-14.3" font-family="Times,serif" font-size="14.00">feridas</text>
</g>
<!-- 0&#45;&gt;4 -->
<g id="edge4" class="edge">
<title>0&#45;&gt;4</title>
<path fill="none" stroke="black" d="M264.4,-88.8C281.1,-75.41 305.63,-55.74 324.39,-40.69"/>
<polygon fill="black" stroke="black" points="326.69,-43.34 332.3,-34.35 322.31,-37.88 326.69,-43.34"/>
<text text-anchor="middle" x="318.95" y="-57.8" font-family="Times,serif" font-size="14.00">dep</text>
</g>
<!-- 5 -->
<g id="node6" class="node">
<title>5</title>
<ellipse fill="none" stroke="black" cx="439.45" cy="-18" rx="27" ry="18"/>
<text text-anchor="middle" x="439.45" y="-14.3" font-family="Times,serif" font-size="14.00">.</text>
</g>
<!-- 0&#45;&gt;5 -->
<g id="edge5" class="edge">
<title>0&#45;&gt;5</title>
<path fill="none" stroke="black" d="M276.88,-92.66C294.53,-86.1 316.88,-77.49 336.45,-69 361.47,-58.14 389.28,-44.55 409.68,-34.28"/>
<polygon fill="black" stroke="black" points="411.44,-37.31 418.78,-29.67 408.27,-31.07 411.44,-37.31"/>
<text text-anchor="middle" x="381.95" y="-57.8" font-family="Times,serif" font-size="14.00">dep</text>
</g>
</g>
</svg>
