<?xml version="1.0" encoding="UTF-8" standalone="no"?>
<!DOCTYPE svg PUBLIC "-//W3C//DTD SVG 1.1//EN"
 "http://www.w3.org/Graphics/SVG/1.1/DTD/svg11.dtd">
<!-- Generated by graphviz version 2.42.4 (0)
 -->
<!-- Pages: 1 -->
<svg width="3698pt" height="131pt"
 viewBox="0.00 0.00 3698.00 131.00" xmlns="http://www.w3.org/2000/svg" xmlns:xlink="http://www.w3.org/1999/xlink">
<g id="graph0" class="graph" transform="scale(1 1) rotate(0) translate(4 127)">
<polygon fill="white" stroke="transparent" points="-4,4 -4,-127 3694,-127 3694,4 -4,4"/>
<!-- 0 -->
<g id="node1" class="node">
<title>0</title>
<ellipse fill="none" stroke="black" cx="1971" cy="-105" rx="37.09" ry="18"/>
<text text-anchor="middle" x="1971" y="-101.3" font-family="Times,serif" font-size="14.00">Entre</text>
</g>
<!-- 1 -->
<g id="node2" class="node">
<title>1</title>
<ellipse fill="none" stroke="black" cx="27" cy="-18" rx="27" ry="18"/>
<text text-anchor="middle" x="27" y="-14.3" font-family="Times,serif" font-size="14.00">os</text>
</g>
<!-- 0&#45;&gt;1 -->
<g id="edge1" class="edge">
<title>0&#45;&gt;1</title>
<path fill="none" stroke="black" d="M1933.77,-104.21C1712.46,-105.32 567.9,-109.03 219,-69 148.59,-60.92 130.16,-58.62 63,-36 61.08,-35.35 59.14,-34.64 57.19,-33.87"/>
<polygon fill="black" stroke="black" points="58.17,-30.48 47.6,-29.73 55.4,-36.91 58.17,-30.48"/>
<text text-anchor="middle" x="232.5" y="-57.8" font-family="Times,serif" font-size="14.00">dep</text>
</g>
<!-- 2 -->
<g id="node3" class="node">
<title>2</title>
<ellipse fill="none" stroke="black" cx="141" cy="-18" rx="68.79" ry="18"/>
<text text-anchor="middle" x="141" y="-14.3" font-family="Times,serif" font-size="14.00">denunciados</text>
</g>
<!-- 0&#45;&gt;2 -->
<g id="edge2" class="edge">
<title>0&#45;&gt;2</title>
<path fill="none" stroke="black" d="M1933.76,-103.77C1703.99,-102.31 483.4,-93.43 319,-69 274.16,-62.34 224.62,-47.81 189.22,-36.12"/>
<polygon fill="black" stroke="black" points="190.22,-32.77 179.62,-32.91 187.99,-39.4 190.22,-32.77"/>
<text text-anchor="middle" x="332.5" y="-57.8" font-family="Times,serif" font-size="14.00">dep</text>
</g>
<!-- 3 -->
<g id="node4" class="node">
<title>3</title>
<ellipse fill="none" stroke="black" cx="255" cy="-18" rx="27" ry="18"/>
<text text-anchor="middle" x="255" y="-14.3" font-family="Times,serif" font-size="14.00">por</text>
</g>
<!-- 0&#45;&gt;3 -->
<g id="edge3" class="edge">
<title>0&#45;&gt;3</title>
<path fill="none" stroke="black" d="M1933.92,-104.13C1729.91,-104.72 742.38,-105.59 440,-69 372.66,-60.85 355.18,-57.95 291,-36 289.09,-35.35 287.14,-34.62 285.2,-33.84"/>
<polygon fill="black" stroke="black" points="286.18,-30.46 275.61,-29.7 283.4,-36.88 286.18,-30.46"/>
<text text-anchor="middle" x="453.5" y="-57.8" font-family="Times,serif" font-size="14.00">dep</text>
</g>
<!-- 4 -->
<g id="node5" class="node">
<title>4</title>
<ellipse fill="none" stroke="black" cx="357" cy="-18" rx="57.39" ry="18"/>
<text text-anchor="middle" x="357" y="-14.3" font-family="Times,serif" font-size="14.00">corrupção</text>
</g>
<!-- 0&#45;&gt;4 -->
<g id="edge4" class="edge">
<title>0&#45;&gt;4</title>
<path fill="none" stroke="black" d="M1933.83,-103.62C1723.2,-101.38 684.05,-89.39 543,-69 494.7,-62.02 441.01,-46.74 403.78,-34.9"/>
<polygon fill="black" stroke="black" points="404.8,-31.55 394.21,-31.82 402.66,-38.22 404.8,-31.55"/>
<text text-anchor="middle" x="556.5" y="-57.8" font-family="Times,serif" font-size="14.00">dep</text>
</g>
<!-- 5 -->
<g id="node6" class="node">
<title>5</title>
<ellipse fill="none" stroke="black" cx="478" cy="-18" rx="45.49" ry="18"/>
<text text-anchor="middle" x="478" y="-14.3" font-family="Times,serif" font-size="14.00">passiva</text>
</g>
<!-- 0&#45;&gt;5 -->
<g id="edge5" class="edge">
<title>0&#45;&gt;5</title>
<path fill="none" stroke="black" d="M1933.92,-103.65C1731.68,-101.67 765.98,-91.11 635,-69 594.15,-62.1 549.27,-47.01 518,-35.2"/>
<polygon fill="black" stroke="black" points="518.93,-31.81 508.34,-31.49 516.43,-38.34 518.93,-31.81"/>
<text text-anchor="middle" x="648.5" y="-57.8" font-family="Times,serif" font-size="14.00">dep</text>
</g>
<!-- 6 -->
<g id="node7" class="node">
<title>6</title>
<ellipse fill="none" stroke="black" cx="577" cy="-18" rx="36" ry="18"/>
<text text-anchor="middle" x="577" y="-14.3" font-family="Times,serif" font-size="14.00">estão</text>
</g>
<!-- 0&#45;&gt;6 -->
<g id="edge6" class="edge">
<title>0&#45;&gt;6</title>
<path fill="none" stroke="black" d="M1933.81,-103.6C1739.37,-101.43 843.79,-90.33 722,-69 683.24,-62.21 640.9,-46.6 612.04,-34.61"/>
<polygon fill="black" stroke="black" points="613.37,-31.37 602.79,-30.7 610.64,-37.82 613.37,-31.37"/>
<text text-anchor="middle" x="735.5" y="-57.8" font-family="Times,serif" font-size="14.00">dep</text>
</g>
<!-- 7 -->
<g id="node8" class="node">
<title>7</title>
<ellipse fill="none" stroke="black" cx="658" cy="-18" rx="27" ry="18"/>
<text text-anchor="middle" x="658" y="-14.3" font-family="Times,serif" font-size="14.00">o</text>
</g>
<!-- 0&#45;&gt;7 -->
<g id="edge7" class="edge">
<title>0&#45;&gt;7</title>
<path fill="none" stroke="black" d="M1933.88,-103.78C1764.19,-102.64 1061.23,-96.31 843,-69 775.7,-60.58 758.18,-57.95 694,-36 692.09,-35.35 690.14,-34.62 688.2,-33.84"/>
<polygon fill="black" stroke="black" points="689.18,-30.46 678.61,-29.7 686.4,-36.88 689.18,-30.46"/>
<text text-anchor="middle" x="856.5" y="-57.8" font-family="Times,serif" font-size="14.00">dep</text>
</g>
<!-- 8 -->
<g id="node9" class="node">
<title>8</title>
<ellipse fill="none" stroke="black" cx="765" cy="-18" rx="62.29" ry="18"/>
<text text-anchor="middle" x="765" y="-14.3" font-family="Times,serif" font-size="14.00">procurador</text>
</g>
<!-- 0&#45;&gt;8 -->
<g id="edge8" class="edge">
<title>0&#45;&gt;8</title>
<path fill="none" stroke="black" d="M1933.94,-104C1772.91,-103.8 1133.21,-100.97 935,-69 892.15,-62.09 844.9,-47.61 811.12,-36"/>
<polygon fill="black" stroke="black" points="812.12,-32.65 801.52,-32.66 809.81,-39.26 812.12,-32.65"/>
<text text-anchor="middle" x="948.5" y="-57.8" font-family="Times,serif" font-size="14.00">dep</text>
</g>
<!-- 9 -->
<g id="node10" class="node">
<title>9</title>
<ellipse fill="none" stroke="black" cx="872" cy="-18" rx="27" ry="18"/>
<text text-anchor="middle" x="872" y="-14.3" font-family="Times,serif" font-size="14.00">de</text>
</g>
<!-- 0&#45;&gt;9 -->
<g id="edge9" class="edge">
<title>0&#45;&gt;9</title>
<path fill="none" stroke="black" d="M1933.89,-103.53C1784.3,-101.5 1225.25,-92.48 1050,-69 985.78,-60.4 969.2,-57.29 908,-36 906.09,-35.34 904.15,-34.6 902.2,-33.82"/>
<polygon fill="black" stroke="black" points="903.19,-30.43 892.63,-29.66 900.4,-36.85 903.19,-30.43"/>
<text text-anchor="middle" x="1063.5" y="-57.8" font-family="Times,serif" font-size="14.00">dep</text>
</g>
<!-- 10 -->
<g id="node11" class="node">
<title>10</title>
<ellipse fill="none" stroke="black" cx="959" cy="-18" rx="42.49" ry="18"/>
<text text-anchor="middle" x="959" y="-14.3" font-family="Times,serif" font-size="14.00">Justiça</text>
</g>
<!-- 0&#45;&gt;10 -->
<g id="edge10" class="edge">
<title>0&#45;&gt;10</title>
<path fill="none" stroke="black" d="M1933.65,-104.5C1818.94,-105.58 1461.84,-105.54 1169,-69 1097.38,-60.06 1079.69,-54.78 1010,-36 1006.8,-35.14 1003.51,-34.19 1000.21,-33.19"/>
<polygon fill="black" stroke="black" points="1000.97,-29.76 990.38,-30.1 998.87,-36.44 1000.97,-29.76"/>
<text text-anchor="middle" x="1182.5" y="-57.8" font-family="Times,serif" font-size="14.00">dep</text>
</g>
<!-- 11 -->
<g id="node12" class="node">
<title>11</title>
<ellipse fill="none" stroke="black" cx="1083" cy="-18" rx="63.89" ry="18"/>
<text text-anchor="middle" x="1083" y="-14.3" font-family="Times,serif" font-size="14.00">aposentado</text>
</g>
<!-- 0&#45;&gt;11 -->
<g id="edge11" class="edge">
<title>0&#45;&gt;11</title>
<path fill="none" stroke="black" d="M1933.82,-103.23C1807.55,-100.44 1395.72,-89.94 1265,-69 1219.01,-61.63 1167.98,-47.03 1131.69,-35.5"/>
<polygon fill="black" stroke="black" points="1132.45,-32.07 1121.86,-32.34 1130.31,-38.74 1132.45,-32.07"/>
<text text-anchor="middle" x="1278.5" y="-57.8" font-family="Times,serif" font-size="14.00">dep</text>
</g>
<!-- 12 -->
<g id="node13" class="node">
<title>12</title>
<ellipse fill="none" stroke="black" cx="1207" cy="-18" rx="42.49" ry="18"/>
<text text-anchor="middle" x="1207" y="-14.3" font-family="Times,serif" font-size="14.00">Aldegy</text>
</g>
<!-- 0&#45;&gt;12 -->
<g id="edge12" class="edge">
<title>0&#45;&gt;12</title>
<path fill="none" stroke="black" d="M1934.03,-103.33C1817.61,-101 1459.55,-92.09 1346,-69 1310.37,-61.75 1271.57,-47.2 1244.04,-35.65"/>
<polygon fill="black" stroke="black" points="1245.37,-32.41 1234.8,-31.71 1242.62,-38.85 1245.37,-32.41"/>
<text text-anchor="middle" x="1359.5" y="-57.8" font-family="Times,serif" font-size="14.00">dep</text>
</g>
<!-- 13 -->
<g id="node14" class="node">
<title>13</title>
<ellipse fill="none" stroke="black" cx="1294" cy="-18" rx="27" ry="18"/>
<text text-anchor="middle" x="1294" y="-14.3" font-family="Times,serif" font-size="14.00">de</text>
</g>
<!-- 0&#45;&gt;13 -->
<g id="edge13" class="edge">
<title>0&#45;&gt;13</title>
<path fill="none" stroke="black" d="M1933.68,-104.74C1845.52,-105.79 1617.82,-104.52 1432,-69 1385.2,-60.05 1374.3,-53.54 1330,-36 1328.17,-35.27 1326.3,-34.5 1324.42,-33.7"/>
<polygon fill="black" stroke="black" points="1325.68,-30.42 1315.12,-29.53 1322.81,-36.81 1325.68,-30.42"/>
<text text-anchor="middle" x="1445.5" y="-57.8" font-family="Times,serif" font-size="14.00">dep</text>
</g>
<!-- 14 -->
<g id="node15" class="node">
<title>14</title>
<ellipse fill="none" stroke="black" cx="1366" cy="-18" rx="27" ry="18"/>
<text text-anchor="middle" x="1366" y="-14.3" font-family="Times,serif" font-size="14.00">o</text>
</g>
<!-- 0&#45;&gt;14 -->
<g id="edge14" class="edge">
<title>0&#45;&gt;14</title>
<path fill="none" stroke="black" d="M1934.01,-102.59C1860.61,-99.44 1691.52,-90.32 1551,-69 1483.94,-58.83 1466.18,-57.95 1402,-36 1400.09,-35.35 1398.14,-34.62 1396.2,-33.84"/>
<polygon fill="black" stroke="black" points="1397.18,-30.46 1386.61,-29.7 1394.4,-36.88 1397.18,-30.46"/>
<text text-anchor="middle" x="1564.5" y="-57.8" font-family="Times,serif" font-size="14.00">dep</text>
</g>
<!-- 15 -->
<g id="node16" class="node">
<title>15</title>
<ellipse fill="none" stroke="black" cx="1477" cy="-18" rx="65.79" ry="18"/>
<text text-anchor="middle" x="1477" y="-14.3" font-family="Times,serif" font-size="14.00">Nascimento</text>
</g>
<!-- 0&#45;&gt;15 -->
<g id="edge15" class="edge">
<title>0&#45;&gt;15</title>
<path fill="none" stroke="black" d="M1934.03,-102.37C1872.63,-99.16 1746.01,-90.37 1641,-69 1601.09,-60.88 1556.98,-47.15 1524.57,-36.13"/>
<polygon fill="black" stroke="black" points="1525.5,-32.75 1514.91,-32.81 1523.23,-39.37 1525.5,-32.75"/>
<text text-anchor="middle" x="1654.5" y="-57.8" font-family="Times,serif" font-size="14.00">dep</text>
</g>
<!-- 16 -->
<g id="node17" class="node">
<title>16</title>
<ellipse fill="none" stroke="black" cx="1588" cy="-18" rx="27" ry="18"/>
<text text-anchor="middle" x="1588" y="-14.3" font-family="Times,serif" font-size="14.00">,</text>
</g>
<!-- 0&#45;&gt;16 -->
<g id="edge16" class="edge">
<title>0&#45;&gt;16</title>
<path fill="none" stroke="black" d="M1934.63,-100.89C1886.13,-96.28 1797.8,-86.26 1724,-69 1678.43,-58.34 1667.46,-53.36 1624,-36 1622.17,-35.27 1620.3,-34.49 1618.43,-33.68"/>
<polygon fill="black" stroke="black" points="1619.69,-30.41 1609.13,-29.51 1616.82,-36.8 1619.69,-30.41"/>
<text text-anchor="middle" x="1737.5" y="-57.8" font-family="Times,serif" font-size="14.00">dep</text>
</g>
<!-- 17 -->
<g id="node18" class="node">
<title>17</title>
<ellipse fill="none" stroke="black" cx="1660" cy="-18" rx="27" ry="18"/>
<text text-anchor="middle" x="1660" y="-14.3" font-family="Times,serif" font-size="14.00">26</text>
</g>
<!-- 0&#45;&gt;17 -->
<g id="edge17" class="edge">
<title>0&#45;&gt;17</title>
<path fill="none" stroke="black" d="M1936.38,-98.06C1883.5,-88.4 1779.9,-67.18 1696,-36 1694.15,-35.31 1692.27,-34.57 1690.39,-33.79"/>
<polygon fill="black" stroke="black" points="1691.62,-30.51 1681.06,-29.68 1688.8,-36.92 1691.62,-30.51"/>
<text text-anchor="middle" x="1813.5" y="-57.8" font-family="Times,serif" font-size="14.00">dep</text>
</g>
<!-- 18 -->
<g id="node19" class="node">
<title>18</title>
<ellipse fill="none" stroke="black" cx="1763" cy="-18" rx="57.69" ry="18"/>
<text text-anchor="middle" x="1763" y="-14.3" font-family="Times,serif" font-size="14.00">delegados</text>
</g>
<!-- 0&#45;&gt;18 -->
<g id="edge18" class="edge">
<title>0&#45;&gt;18</title>
<path fill="none" stroke="black" d="M1942.87,-93.13C1925.33,-86.3 1902.3,-77.26 1882,-69 1856.39,-58.59 1827.82,-46.6 1805.1,-36.97"/>
<polygon fill="black" stroke="black" points="1806.32,-33.68 1795.75,-33 1803.59,-40.13 1806.32,-33.68"/>
<text text-anchor="middle" x="1895.5" y="-57.8" font-family="Times,serif" font-size="14.00">dep</text>
</g>
<!-- 19 -->
<g id="node20" class="node">
<title>19</title>
<ellipse fill="none" stroke="black" cx="1866" cy="-18" rx="27" ry="18"/>
<text text-anchor="middle" x="1866" y="-14.3" font-family="Times,serif" font-size="14.00">,</text>
</g>
<!-- 0&#45;&gt;19 -->
<g id="edge19" class="edge">
<title>0&#45;&gt;19</title>
<path fill="none" stroke="black" d="M1952.71,-89.19C1935.51,-75.27 1909.64,-54.33 1890.63,-38.94"/>
<polygon fill="black" stroke="black" points="1892.67,-36.09 1882.7,-32.52 1888.27,-41.53 1892.67,-36.09"/>
<text text-anchor="middle" x="1938.5" y="-57.8" font-family="Times,serif" font-size="14.00">dep</text>
</g>
<!-- 20 -->
<g id="node21" class="node">
<title>20</title>
<ellipse fill="none" stroke="black" cx="1971" cy="-18" rx="59.59" ry="18"/>
<text text-anchor="middle" x="1971" y="-14.3" font-family="Times,serif" font-size="14.00">inspetores</text>
</g>
<!-- 0&#45;&gt;20 -->
<g id="edge20" class="edge">
<title>0&#45;&gt;20</title>
<path fill="none" stroke="black" d="M1971,-86.8C1971,-75.16 1971,-59.55 1971,-46.24"/>
<polygon fill="black" stroke="black" points="1974.5,-46.18 1971,-36.18 1967.5,-46.18 1974.5,-46.18"/>
<text text-anchor="middle" x="1984.5" y="-57.8" font-family="Times,serif" font-size="14.00">dep</text>
</g>
<!-- 21 -->
<g id="node22" class="node">
<title>21</title>
<ellipse fill="none" stroke="black" cx="2076" cy="-18" rx="27" ry="18"/>
<text text-anchor="middle" x="2076" y="-14.3" font-family="Times,serif" font-size="14.00">e</text>
</g>
<!-- 0&#45;&gt;21 -->
<g id="edge21" class="edge">
<title>0&#45;&gt;21</title>
<path fill="none" stroke="black" d="M1989.29,-89.19C2006.49,-75.27 2032.36,-54.33 2051.37,-38.94"/>
<polygon fill="black" stroke="black" points="2053.73,-41.53 2059.3,-32.52 2049.33,-36.09 2053.73,-41.53"/>
<text text-anchor="middle" x="2043.5" y="-57.8" font-family="Times,serif" font-size="14.00">dep</text>
</g>
<!-- 22 -->
<g id="node23" class="node">
<title>22</title>
<ellipse fill="none" stroke="black" cx="2165" cy="-18" rx="43.59" ry="18"/>
<text text-anchor="middle" x="2165" y="-14.3" font-family="Times,serif" font-size="14.00">peritos</text>
</g>
<!-- 0&#45;&gt;22 -->
<g id="edge22" class="edge">
<title>0&#45;&gt;22</title>
<path fill="none" stroke="black" d="M1999.6,-93.52C2017.41,-86.84 2040.7,-77.81 2061,-69 2084,-59.01 2109.38,-46.84 2129.3,-37"/>
<polygon fill="black" stroke="black" points="2130.93,-40.11 2138.33,-32.53 2127.81,-33.84 2130.93,-40.11"/>
<text text-anchor="middle" x="2106.5" y="-57.8" font-family="Times,serif" font-size="14.00">dep</text>
</g>
<!-- 23 -->
<g id="node24" class="node">
<title>23</title>
<ellipse fill="none" stroke="black" cx="2254" cy="-18" rx="27" ry="18"/>
<text text-anchor="middle" x="2254" y="-14.3" font-family="Times,serif" font-size="14.00">de</text>
</g>
<!-- 0&#45;&gt;23 -->
<g id="edge23" class="edge">
<title>0&#45;&gt;23</title>
<path fill="none" stroke="black" d="M2004.71,-97.43C2035.89,-91.08 2083.42,-80.72 2124,-69 2166.54,-56.71 2177.04,-52.81 2218,-36 2219.82,-35.25 2221.69,-34.46 2223.56,-33.64"/>
<polygon fill="black" stroke="black" points="2225.18,-36.75 2232.84,-29.44 2222.29,-30.37 2225.18,-36.75"/>
<text text-anchor="middle" x="2185.5" y="-57.8" font-family="Times,serif" font-size="14.00">dep</text>
</g>
<!-- 24 -->
<g id="node25" class="node">
<title>24</title>
<ellipse fill="none" stroke="black" cx="2326" cy="-18" rx="27" ry="18"/>
<text text-anchor="middle" x="2326" y="-14.3" font-family="Times,serif" font-size="14.00">a</text>
</g>
<!-- 0&#45;&gt;24 -->
<g id="edge24" class="edge">
<title>0&#45;&gt;24</title>
<path fill="none" stroke="black" d="M2007.25,-100.94C2053.32,-96.5 2135.03,-86.8 2203,-69 2235.68,-60.44 2271.25,-45.3 2295.69,-33.91"/>
<polygon fill="black" stroke="black" points="2297.26,-37.04 2304.81,-29.6 2294.27,-30.71 2297.26,-37.04"/>
<text text-anchor="middle" x="2262.5" y="-57.8" font-family="Times,serif" font-size="14.00">dep</text>
</g>
<!-- 25 -->
<g id="node26" class="node">
<title>25</title>
<ellipse fill="none" stroke="black" cx="2412" cy="-18" rx="40.89" ry="18"/>
<text text-anchor="middle" x="2412" y="-14.3" font-family="Times,serif" font-size="14.00">Polícia</text>
</g>
<!-- 0&#45;&gt;25 -->
<g id="edge25" class="edge">
<title>0&#45;&gt;25</title>
<path fill="none" stroke="black" d="M2008.14,-102.78C2066.7,-100.18 2183.71,-92.3 2280,-69 2313.16,-60.98 2349.29,-46.89 2375.35,-35.71"/>
<polygon fill="black" stroke="black" points="2377.05,-38.79 2384.82,-31.59 2374.26,-32.37 2377.05,-38.79"/>
<text text-anchor="middle" x="2342.5" y="-57.8" font-family="Times,serif" font-size="14.00">dep</text>
</g>
<!-- 26 -->
<g id="node27" class="node">
<title>26</title>
<ellipse fill="none" stroke="black" cx="2503" cy="-18" rx="31.7" ry="18"/>
<text text-anchor="middle" x="2503" y="-14.3" font-family="Times,serif" font-size="14.00">Civil</text>
</g>
<!-- 0&#45;&gt;26 -->
<g id="edge26" class="edge">
<title>0&#45;&gt;26</title>
<path fill="none" stroke="black" d="M2008.14,-103.41C2077.81,-101.69 2232.6,-95 2360,-69 2398.5,-61.14 2440.76,-45.43 2469.28,-33.7"/>
<polygon fill="black" stroke="black" points="2470.89,-36.83 2478.77,-29.74 2468.19,-30.37 2470.89,-36.83"/>
<text text-anchor="middle" x="2426.5" y="-57.8" font-family="Times,serif" font-size="14.00">dep</text>
</g>
<!-- 27 -->
<g id="node28" class="node">
<title>27</title>
<ellipse fill="none" stroke="black" cx="2580" cy="-18" rx="27" ry="18"/>
<text text-anchor="middle" x="2580" y="-14.3" font-family="Times,serif" font-size="14.00">e</text>
</g>
<!-- 0&#45;&gt;27 -->
<g id="edge27" class="edge">
<title>0&#45;&gt;27</title>
<path fill="none" stroke="black" d="M2008.21,-104.32C2088.59,-104.35 2284.09,-100.8 2444,-69 2489.9,-59.87 2500.54,-53.36 2544,-36 2545.83,-35.27 2547.7,-34.49 2549.57,-33.68"/>
<polygon fill="black" stroke="black" points="2551.18,-36.8 2558.87,-29.51 2548.31,-30.41 2551.18,-36.8"/>
<text text-anchor="middle" x="2512.5" y="-57.8" font-family="Times,serif" font-size="14.00">dep</text>
</g>
<!-- 28 -->
<g id="node29" class="node">
<title>28</title>
<ellipse fill="none" stroke="black" cx="2652" cy="-18" rx="27" ry="18"/>
<text text-anchor="middle" x="2652" y="-14.3" font-family="Times,serif" font-size="14.00">Ary</text>
</g>
<!-- 0&#45;&gt;28 -->
<g id="edge28" class="edge">
<title>0&#45;&gt;28</title>
<path fill="none" stroke="black" d="M2008.22,-103.14C2116.5,-100.41 2430,-90.78 2530,-69 2562.97,-61.82 2598.43,-46.33 2622.57,-34.48"/>
<polygon fill="black" stroke="black" points="2624.18,-37.58 2631.56,-29.98 2621.05,-31.33 2624.18,-37.58"/>
<text text-anchor="middle" x="2592.5" y="-57.8" font-family="Times,serif" font-size="14.00">dep</text>
</g>
<!-- 29 -->
<g id="node30" class="node">
<title>29</title>
<ellipse fill="none" stroke="black" cx="2742" cy="-18" rx="44.69" ry="18"/>
<text text-anchor="middle" x="2742" y="-14.3" font-family="Times,serif" font-size="14.00">Chagas</text>
</g>
<!-- 0&#45;&gt;29 -->
<g id="edge29" class="edge">
<title>0&#45;&gt;29</title>
<path fill="none" stroke="black" d="M2007.98,-103.46C2126.17,-101.51 2493.83,-93.57 2610,-69 2643.16,-61.99 2679.03,-47.95 2704.99,-36.54"/>
<polygon fill="black" stroke="black" points="2706.74,-39.59 2714.43,-32.31 2703.87,-33.2 2706.74,-39.59"/>
<text text-anchor="middle" x="2672.5" y="-57.8" font-family="Times,serif" font-size="14.00">dep</text>
</g>
<!-- 30 -->
<g id="node31" class="node">
<title>30</title>
<ellipse fill="none" stroke="black" cx="2832" cy="-18" rx="27" ry="18"/>
<text text-anchor="middle" x="2832" y="-14.3" font-family="Times,serif" font-size="14.00">de</text>
</g>
<!-- 0&#45;&gt;30 -->
<g id="edge30" class="edge">
<title>0&#45;&gt;30</title>
<path fill="none" stroke="black" d="M2008,-103.43C2135.63,-101.29 2556.94,-92.56 2690,-69 2738.59,-60.4 2750.02,-53.91 2796,-36 2797.84,-35.28 2799.71,-34.52 2801.59,-33.72"/>
<polygon fill="black" stroke="black" points="2803.19,-36.84 2810.89,-29.57 2800.34,-30.45 2803.19,-36.84"/>
<text text-anchor="middle" x="2763.5" y="-57.8" font-family="Times,serif" font-size="14.00">dep</text>
</g>
<!-- 31 -->
<g id="node32" class="node">
<title>31</title>
<ellipse fill="none" stroke="black" cx="2919" cy="-18" rx="41.69" ry="18"/>
<text text-anchor="middle" x="2919" y="-14.3" font-family="Times,serif" font-size="14.00">Aguiar</text>
</g>
<!-- 0&#45;&gt;31 -->
<g id="edge31" class="edge">
<title>0&#45;&gt;31</title>
<path fill="none" stroke="black" d="M2008.34,-103.89C2146.73,-103.24 2630.15,-98.86 2781,-69 2816.4,-61.99 2854.86,-47.44 2882.17,-35.83"/>
<polygon fill="black" stroke="black" points="2883.91,-38.89 2891.7,-31.71 2881.13,-32.47 2883.91,-38.89"/>
<text text-anchor="middle" x="2845.5" y="-57.8" font-family="Times,serif" font-size="14.00">dep</text>
</g>
<!-- 32 -->
<g id="node33" class="node">
<title>32</title>
<ellipse fill="none" stroke="black" cx="3006" cy="-18" rx="27" ry="18"/>
<text text-anchor="middle" x="3006" y="-14.3" font-family="Times,serif" font-size="14.00">,</text>
</g>
<!-- 0&#45;&gt;32 -->
<g id="edge32" class="edge">
<title>0&#45;&gt;32</title>
<path fill="none" stroke="black" d="M2007.99,-103.83C2154.53,-102.95 2694.57,-97.77 2863,-69 2912.06,-60.62 2923.6,-54 2970,-36 2971.84,-35.29 2973.71,-34.52 2975.59,-33.73"/>
<polygon fill="black" stroke="black" points="2977.19,-36.85 2984.9,-29.58 2974.34,-30.45 2977.19,-36.85"/>
<text text-anchor="middle" x="2936.5" y="-57.8" font-family="Times,serif" font-size="14.00">dep</text>
</g>
<!-- 33 -->
<g id="node34" class="node">
<title>33</title>
<ellipse fill="none" stroke="black" cx="3102" cy="-18" rx="50.89" ry="18"/>
<text text-anchor="middle" x="3102" y="-14.3" font-family="Times,serif" font-size="14.00">assessor</text>
</g>
<!-- 0&#45;&gt;33 -->
<g id="edge33" class="edge">
<title>0&#45;&gt;33</title>
<path fill="none" stroke="black" d="M2008.02,-104.11C2163.88,-104.37 2767.32,-103.1 2954,-69 2991.51,-62.15 3032.47,-47.74 3061.76,-36.14"/>
<polygon fill="black" stroke="black" points="3063.26,-39.31 3071.23,-32.33 3060.65,-32.82 3063.26,-39.31"/>
<text text-anchor="middle" x="3026.5" y="-57.8" font-family="Times,serif" font-size="14.00">dep</text>
</g>
<!-- 34 -->
<g id="node35" class="node">
<title>34</title>
<ellipse fill="none" stroke="black" cx="3198" cy="-18" rx="27" ry="18"/>
<text text-anchor="middle" x="3198" y="-14.3" font-family="Times,serif" font-size="14.00">de</text>
</g>
<!-- 0&#45;&gt;34 -->
<g id="edge34" class="edge">
<title>0&#45;&gt;34</title>
<path fill="none" stroke="black" d="M2008.26,-103.98C2173.13,-103.72 2838.02,-100.69 3044,-69 3097.82,-60.72 3110.98,-55.03 3162,-36 3163.85,-35.31 3165.73,-34.57 3167.61,-33.78"/>
<polygon fill="black" stroke="black" points="3169.2,-36.91 3176.93,-29.67 3166.37,-30.51 3169.2,-36.91"/>
<text text-anchor="middle" x="3125.5" y="-57.8" font-family="Times,serif" font-size="14.00">dep</text>
</g>
<!-- 35 -->
<g id="node36" class="node">
<title>35</title>
<ellipse fill="none" stroke="black" cx="3270" cy="-18" rx="27" ry="18"/>
<text text-anchor="middle" x="3270" y="-14.3" font-family="Times,serif" font-size="14.00">a</text>
</g>
<!-- 0&#45;&gt;35 -->
<g id="edge35" class="edge">
<title>0&#45;&gt;35</title>
<path fill="none" stroke="black" d="M2008.03,-103.59C2194.87,-101.45 3029.47,-90.7 3143,-69 3177.88,-62.33 3215.44,-46.34 3240.59,-34.22"/>
<polygon fill="black" stroke="black" points="3242.17,-37.35 3249.59,-29.79 3239.08,-31.07 3242.17,-37.35"/>
<text text-anchor="middle" x="3207.5" y="-57.8" font-family="Times,serif" font-size="14.00">dep</text>
</g>
<!-- 36 -->
<g id="node37" class="node">
<title>36</title>
<ellipse fill="none" stroke="black" cx="3375" cy="-18" rx="59.59" ry="18"/>
<text text-anchor="middle" x="3375" y="-14.3" font-family="Times,serif" font-size="14.00">promotora</text>
</g>
<!-- 0&#45;&gt;36 -->
<g id="edge36" class="edge">
<title>0&#45;&gt;36</title>
<path fill="none" stroke="black" d="M2008.01,-103.61C2202.58,-101.5 3102.68,-90.6 3225,-69 3262.28,-62.42 3302.92,-48.41 3332.49,-36.9"/>
<polygon fill="black" stroke="black" points="3334.06,-40.04 3342.07,-33.1 3331.49,-33.53 3334.06,-40.04"/>
<text text-anchor="middle" x="3297.5" y="-57.8" font-family="Times,serif" font-size="14.00">dep</text>
</g>
<!-- 37 -->
<g id="node38" class="node">
<title>37</title>
<ellipse fill="none" stroke="black" cx="3489" cy="-18" rx="36" ry="18"/>
<text text-anchor="middle" x="3489" y="-14.3" font-family="Times,serif" font-size="14.00">Lúcia</text>
</g>
<!-- 0&#45;&gt;37 -->
<g id="edge37" class="edge">
<title>0&#45;&gt;37</title>
<path fill="none" stroke="black" d="M2008.11,-104.16C2196.92,-104.79 3052.32,-105.55 3315,-69 3373.62,-60.85 3387.57,-53.82 3444,-36 3446.6,-35.18 3449.27,-34.29 3451.94,-33.37"/>
<polygon fill="black" stroke="black" points="3453.33,-36.59 3461.56,-29.92 3450.97,-30 3453.33,-36.59"/>
<text text-anchor="middle" x="3400.5" y="-57.8" font-family="Times,serif" font-size="14.00">dep</text>
</g>
<!-- 38 -->
<g id="node39" class="node">
<title>38</title>
<ellipse fill="none" stroke="black" cx="3580" cy="-18" rx="37.89" ry="18"/>
<text text-anchor="middle" x="3580" y="-14.3" font-family="Times,serif" font-size="14.00">Atalla</text>
</g>
<!-- 0&#45;&gt;38 -->
<g id="edge38" class="edge">
<title>0&#45;&gt;38</title>
<path fill="none" stroke="black" d="M2007.98,-103.66C2219.83,-101.67 3275.07,-90.7 3418,-69 3461.91,-62.33 3510.34,-46.16 3542.7,-33.99"/>
<polygon fill="black" stroke="black" points="3544.12,-37.2 3552.21,-30.36 3541.62,-30.66 3544.12,-37.2"/>
<text text-anchor="middle" x="3495.5" y="-57.8" font-family="Times,serif" font-size="14.00">dep</text>
</g>
<!-- 39 -->
<g id="node40" class="node">
<title>39</title>
<ellipse fill="none" stroke="black" cx="3663" cy="-18" rx="27" ry="18"/>
<text text-anchor="middle" x="3663" y="-14.3" font-family="Times,serif" font-size="14.00">.</text>
</g>
<!-- 0&#45;&gt;39 -->
<g id="edge39" class="edge">
<title>0&#45;&gt;39</title>
<path fill="none" stroke="black" d="M2008.23,-103.73C2228.84,-102.07 3360.23,-92.44 3513,-69 3565.14,-61 3577.66,-54.65 3627,-36 3628.84,-35.3 3630.72,-34.55 3632.6,-33.76"/>
<polygon fill="black" stroke="black" points="3634.19,-36.89 3641.92,-29.64 3631.36,-30.49 3634.19,-36.89"/>
<text text-anchor="middle" x="3592.5" y="-57.8" font-family="Times,serif" font-size="14.00">dep</text>
</g>
</g>
</svg>
