<?xml version="1.0" encoding="UTF-8" standalone="no"?>
<!DOCTYPE svg PUBLIC "-//W3C//DTD SVG 1.1//EN"
 "http://www.w3.org/Graphics/SVG/1.1/DTD/svg11.dtd">
<!-- Generated by graphviz version 2.42.4 (0)
 -->
<!-- Pages: 1 -->
<svg width="1768pt" height="131pt"
 viewBox="0.00 0.00 1768.00 131.00" xmlns="http://www.w3.org/2000/svg" xmlns:xlink="http://www.w3.org/1999/xlink">
<g id="graph0" class="graph" transform="scale(1 1) rotate(0) translate(4 127)">
<polygon fill="white" stroke="transparent" points="-4,4 -4,-127 1764,-127 1764,4 -4,4"/>
<!-- 0 -->
<g id="node1" class="node">
<title>0</title>
<ellipse fill="none" stroke="black" cx="909" cy="-105" rx="50.09" ry="18"/>
<text text-anchor="middle" x="909" y="-101.3" font-family="Times,serif" font-size="14.00">Contudo</text>
</g>
<!-- 1 -->
<g id="node2" class="node">
<title>1</title>
<ellipse fill="none" stroke="black" cx="27" cy="-18" rx="27" ry="18"/>
<text text-anchor="middle" x="27" y="-14.3" font-family="Times,serif" font-size="14.00">,</text>
</g>
<!-- 0&#45;&gt;1 -->
<g id="edge1" class="edge">
<title>0&#45;&gt;1</title>
<path fill="none" stroke="black" d="M858.63,-104.63C742.44,-105.42 446.93,-103.5 203,-69 139.7,-60.05 123.35,-57.1 63,-36 61.09,-35.33 59.15,-34.6 57.21,-33.81"/>
<polygon fill="black" stroke="black" points="58.2,-30.43 47.63,-29.65 55.4,-36.85 58.2,-30.43"/>
<text text-anchor="middle" x="216.5" y="-57.8" font-family="Times,serif" font-size="14.00">dep</text>
</g>
<!-- 2 -->
<g id="node3" class="node">
<title>2</title>
<ellipse fill="none" stroke="black" cx="119" cy="-18" rx="47.39" ry="18"/>
<text text-anchor="middle" x="119" y="-14.3" font-family="Times,serif" font-size="14.00">existem</text>
</g>
<!-- 0&#45;&gt;2 -->
<g id="edge2" class="edge">
<title>0&#45;&gt;2</title>
<path fill="none" stroke="black" d="M858.81,-104.58C754.06,-105.03 504.79,-102.15 299,-69 251.44,-61.34 198.47,-45.74 162.38,-33.99"/>
<polygon fill="black" stroke="black" points="163.26,-30.59 152.67,-30.78 161.07,-37.24 163.26,-30.59"/>
<text text-anchor="middle" x="312.5" y="-57.8" font-family="Times,serif" font-size="14.00">dep</text>
</g>
<!-- 3 -->
<g id="node4" class="node">
<title>3</title>
<ellipse fill="none" stroke="black" cx="221" cy="-18" rx="36.29" ry="18"/>
<text text-anchor="middle" x="221" y="-14.3" font-family="Times,serif" font-size="14.00">ainda</text>
</g>
<!-- 0&#45;&gt;3 -->
<g id="edge3" class="edge">
<title>0&#45;&gt;3</title>
<path fill="none" stroke="black" d="M859.19,-103.19C768.66,-101.14 571.33,-93.93 407,-69 343.8,-59.41 328.21,-54.45 267,-36 264.08,-35.12 261.07,-34.15 258.06,-33.14"/>
<polygon fill="black" stroke="black" points="259.14,-29.81 248.54,-29.8 256.82,-36.41 259.14,-29.81"/>
<text text-anchor="middle" x="420.5" y="-57.8" font-family="Times,serif" font-size="14.00">dep</text>
</g>
<!-- 4 -->
<g id="node5" class="node">
<title>4</title>
<ellipse fill="none" stroke="black" cx="327" cy="-18" rx="51.19" ry="18"/>
<text text-anchor="middle" x="327" y="-14.3" font-family="Times,serif" font-size="14.00">milhares</text>
</g>
<!-- 0&#45;&gt;4 -->
<g id="edge4" class="edge">
<title>0&#45;&gt;4</title>
<path fill="none" stroke="black" d="M859.16,-102.88C781.71,-100.43 628.06,-92.75 500,-69 455.65,-60.78 406.35,-45.94 371.76,-34.56"/>
<polygon fill="black" stroke="black" points="372.56,-31.14 361.97,-31.3 370.35,-37.78 372.56,-31.14"/>
<text text-anchor="middle" x="513.5" y="-57.8" font-family="Times,serif" font-size="14.00">dep</text>
</g>
<!-- 5 -->
<g id="node6" class="node">
<title>5</title>
<ellipse fill="none" stroke="black" cx="423" cy="-18" rx="27" ry="18"/>
<text text-anchor="middle" x="423" y="-14.3" font-family="Times,serif" font-size="14.00">de</text>
</g>
<!-- 0&#45;&gt;5 -->
<g id="edge5" class="edge">
<title>0&#45;&gt;5</title>
<path fill="none" stroke="black" d="M859.39,-102.18C775.03,-97.84 599.15,-83.4 459,-36 457.08,-35.35 455.14,-34.63 453.19,-33.86"/>
<polygon fill="black" stroke="black" points="454.17,-30.47 443.6,-29.72 451.4,-36.9 454.17,-30.47"/>
<text text-anchor="middle" x="593.5" y="-57.8" font-family="Times,serif" font-size="14.00">dep</text>
</g>
<!-- 6 -->
<g id="node7" class="node">
<title>6</title>
<ellipse fill="none" stroke="black" cx="529" cy="-18" rx="61.19" ry="18"/>
<text text-anchor="middle" x="529" y="-14.3" font-family="Times,serif" font-size="14.00">Servidores</text>
</g>
<!-- 0&#45;&gt;6 -->
<g id="edge6" class="edge">
<title>0&#45;&gt;6</title>
<path fill="none" stroke="black" d="M862.62,-97.84C820.06,-91.81 755.41,-81.69 700,-69 658.29,-59.44 611.72,-45.62 577.73,-34.92"/>
<polygon fill="black" stroke="black" points="578.64,-31.54 568.05,-31.85 576.52,-38.21 578.64,-31.54"/>
<text text-anchor="middle" x="713.5" y="-57.8" font-family="Times,serif" font-size="14.00">dep</text>
</g>
<!-- 7 -->
<g id="node8" class="node">
<title>7</title>
<ellipse fill="none" stroke="black" cx="653" cy="-18" rx="44.69" ry="18"/>
<text text-anchor="middle" x="653" y="-14.3" font-family="Times,serif" font-size="14.00">Gopher</text>
</g>
<!-- 0&#45;&gt;7 -->
<g id="edge7" class="edge">
<title>0&#45;&gt;7</title>
<path fill="none" stroke="black" d="M866.84,-95.2C839.02,-88.95 801.95,-79.78 770,-69 742.71,-59.8 712.87,-47 690.16,-36.66"/>
<polygon fill="black" stroke="black" points="691.43,-33.39 680.89,-32.39 688.51,-39.75 691.43,-33.39"/>
<text text-anchor="middle" x="783.5" y="-57.8" font-family="Times,serif" font-size="14.00">dep</text>
</g>
<!-- 8 -->
<g id="node9" class="node">
<title>8</title>
<ellipse fill="none" stroke="black" cx="743" cy="-18" rx="27" ry="18"/>
<text text-anchor="middle" x="743" y="-14.3" font-family="Times,serif" font-size="14.00">em</text>
</g>
<!-- 0&#45;&gt;8 -->
<g id="edge8" class="edge">
<title>0&#45;&gt;8</title>
<path fill="none" stroke="black" d="M875.79,-91.26C860.41,-85.05 842.03,-77.15 826,-69 806.95,-59.31 786.36,-46.92 770.46,-36.9"/>
<polygon fill="black" stroke="black" points="772,-33.73 761.68,-31.31 768.24,-39.63 772,-33.73"/>
<text text-anchor="middle" x="839.5" y="-57.8" font-family="Times,serif" font-size="14.00">dep</text>
</g>
<!-- 9 -->
<g id="node10" class="node">
<title>9</title>
<ellipse fill="none" stroke="black" cx="815" cy="-18" rx="27" ry="18"/>
<text text-anchor="middle" x="815" y="-14.3" font-family="Times,serif" font-size="14.00">a</text>
</g>
<!-- 0&#45;&gt;9 -->
<g id="edge9" class="edge">
<title>0&#45;&gt;9</title>
<path fill="none" stroke="black" d="M891.32,-88.01C876.24,-74.37 854.45,-54.67 838.01,-39.81"/>
<polygon fill="black" stroke="black" points="840.19,-37.06 830.42,-32.95 835.49,-42.25 840.19,-37.06"/>
<text text-anchor="middle" x="881.5" y="-57.8" font-family="Times,serif" font-size="14.00">dep</text>
</g>
<!-- 10 -->
<g id="node11" class="node">
<title>10</title>
<ellipse fill="none" stroke="black" cx="909" cy="-18" rx="48.99" ry="18"/>
<text text-anchor="middle" x="909" y="-14.3" font-family="Times,serif" font-size="14.00">Internet</text>
</g>
<!-- 0&#45;&gt;10 -->
<g id="edge10" class="edge">
<title>0&#45;&gt;10</title>
<path fill="none" stroke="black" d="M909,-86.8C909,-75.16 909,-59.55 909,-46.24"/>
<polygon fill="black" stroke="black" points="912.5,-46.18 909,-36.18 905.5,-46.18 912.5,-46.18"/>
<text text-anchor="middle" x="922.5" y="-57.8" font-family="Times,serif" font-size="14.00">dep</text>
</g>
<!-- 11 -->
<g id="node12" class="node">
<title>11</title>
<ellipse fill="none" stroke="black" cx="1003" cy="-18" rx="27" ry="18"/>
<text text-anchor="middle" x="1003" y="-14.3" font-family="Times,serif" font-size="14.00">,</text>
</g>
<!-- 0&#45;&gt;11 -->
<g id="edge11" class="edge">
<title>0&#45;&gt;11</title>
<path fill="none" stroke="black" d="M926.68,-88.01C941.76,-74.37 963.55,-54.67 979.99,-39.81"/>
<polygon fill="black" stroke="black" points="982.51,-42.25 987.58,-32.95 977.81,-37.06 982.51,-42.25"/>
<text text-anchor="middle" x="975.5" y="-57.8" font-family="Times,serif" font-size="14.00">dep</text>
</g>
<!-- 12 -->
<g id="node13" class="node">
<title>12</title>
<ellipse fill="none" stroke="black" cx="1076" cy="-18" rx="27.9" ry="18"/>
<text text-anchor="middle" x="1076" y="-14.3" font-family="Times,serif" font-size="14.00">que</text>
</g>
<!-- 0&#45;&gt;12 -->
<g id="edge12" class="edge">
<title>0&#45;&gt;12</title>
<path fill="none" stroke="black" d="M942.22,-91.47C957.87,-85.24 976.65,-77.28 993,-69 1011.95,-59.41 1032.39,-47.12 1048.24,-37.13"/>
<polygon fill="black" stroke="black" points="1050.45,-39.87 1057,-31.55 1046.69,-33.97 1050.45,-39.87"/>
<text text-anchor="middle" x="1032.5" y="-57.8" font-family="Times,serif" font-size="14.00">dep</text>
</g>
<!-- 13 -->
<g id="node14" class="node">
<title>13</title>
<ellipse fill="none" stroke="black" cx="1170" cy="-18" rx="48.19" ry="18"/>
<text text-anchor="middle" x="1170" y="-14.3" font-family="Times,serif" font-size="14.00">deverão</text>
</g>
<!-- 0&#45;&gt;13 -->
<g id="edge13" class="edge">
<title>0&#45;&gt;13</title>
<path fill="none" stroke="black" d="M951.43,-95.23C979.67,-88.96 1017.43,-79.76 1050,-69 1077.88,-59.79 1108.41,-47.03 1131.69,-36.71"/>
<polygon fill="black" stroke="black" points="1133.19,-39.87 1140.88,-32.59 1130.33,-33.49 1133.19,-39.87"/>
<text text-anchor="middle" x="1104.5" y="-57.8" font-family="Times,serif" font-size="14.00">dep</text>
</g>
<!-- 14 -->
<g id="node15" class="node">
<title>14</title>
<ellipse fill="none" stroke="black" cx="1287" cy="-18" rx="51.19" ry="18"/>
<text text-anchor="middle" x="1287" y="-14.3" font-family="Times,serif" font-size="14.00">subsistir</text>
</g>
<!-- 0&#45;&gt;14 -->
<g id="edge14" class="edge">
<title>0&#45;&gt;14</title>
<path fill="none" stroke="black" d="M955.46,-98.16C998.85,-92.28 1065.24,-82.2 1122,-69 1163.08,-59.44 1208.94,-45.26 1241.86,-34.43"/>
<polygon fill="black" stroke="black" points="1243.25,-37.66 1251.64,-31.19 1241.04,-31.02 1243.25,-37.66"/>
<text text-anchor="middle" x="1190.5" y="-57.8" font-family="Times,serif" font-size="14.00">dep</text>
</g>
<!-- 15 -->
<g id="node16" class="node">
<title>15</title>
<ellipse fill="none" stroke="black" cx="1383" cy="-18" rx="27" ry="18"/>
<text text-anchor="middle" x="1383" y="-14.3" font-family="Times,serif" font-size="14.00">por</text>
</g>
<!-- 0&#45;&gt;15 -->
<g id="edge15" class="edge">
<title>0&#45;&gt;15</title>
<path fill="none" stroke="black" d="M957.41,-100.08C1016.75,-94.88 1120.25,-84.5 1208,-69 1270.53,-57.96 1287.08,-57 1347,-36 1348.91,-35.33 1350.85,-34.59 1352.79,-33.81"/>
<polygon fill="black" stroke="black" points="1354.6,-36.84 1362.37,-29.64 1351.8,-30.42 1354.6,-36.84"/>
<text text-anchor="middle" x="1301.5" y="-57.8" font-family="Times,serif" font-size="14.00">dep</text>
</g>
<!-- 16 -->
<g id="node17" class="node">
<title>16</title>
<ellipse fill="none" stroke="black" cx="1460" cy="-18" rx="32.49" ry="18"/>
<text text-anchor="middle" x="1460" y="-14.3" font-family="Times,serif" font-size="14.00">mais</text>
</g>
<!-- 0&#45;&gt;16 -->
<g id="edge16" class="edge">
<title>0&#45;&gt;16</title>
<path fill="none" stroke="black" d="M959.08,-103.48C1036.87,-101.82 1191.1,-95.19 1319,-69 1356.78,-61.26 1398.17,-45.68 1426.28,-33.95"/>
<polygon fill="black" stroke="black" points="1427.79,-37.11 1435.63,-29.99 1425.06,-30.67 1427.79,-37.11"/>
<text text-anchor="middle" x="1384.5" y="-57.8" font-family="Times,serif" font-size="14.00">dep</text>
</g>
<!-- 17 -->
<g id="node18" class="node">
<title>17</title>
<ellipse fill="none" stroke="black" cx="1550" cy="-18" rx="39.79" ry="18"/>
<text text-anchor="middle" x="1550" y="-14.3" font-family="Times,serif" font-size="14.00">algum</text>
</g>
<!-- 0&#45;&gt;17 -->
<g id="edge17" class="edge">
<title>0&#45;&gt;17</title>
<path fill="none" stroke="black" d="M959.23,-104.56C1049.01,-104.66 1242.52,-100.72 1402,-69 1440.6,-61.32 1482.99,-46.29 1512.47,-34.7"/>
<polygon fill="black" stroke="black" points="1513.96,-37.87 1521.95,-30.92 1511.36,-31.37 1513.96,-37.87"/>
<text text-anchor="middle" x="1469.5" y="-57.8" font-family="Times,serif" font-size="14.00">dep</text>
</g>
<!-- 18 -->
<g id="node19" class="node">
<title>18</title>
<ellipse fill="none" stroke="black" cx="1648" cy="-18" rx="40.09" ry="18"/>
<text text-anchor="middle" x="1648" y="-14.3" font-family="Times,serif" font-size="14.00">tempo</text>
</g>
<!-- 0&#45;&gt;18 -->
<g id="edge18" class="edge">
<title>0&#45;&gt;18</title>
<path fill="none" stroke="black" d="M959.31,-104.75C1060.22,-105.43 1294.16,-102.8 1487,-69 1529.85,-61.49 1577.21,-45.85 1609.4,-34.05"/>
<polygon fill="black" stroke="black" points="1610.73,-37.29 1618.88,-30.52 1608.29,-30.73 1610.73,-37.29"/>
<text text-anchor="middle" x="1559.5" y="-57.8" font-family="Times,serif" font-size="14.00">dep</text>
</g>
<!-- 19 -->
<g id="node20" class="node">
<title>19</title>
<ellipse fill="none" stroke="black" cx="1733" cy="-18" rx="27" ry="18"/>
<text text-anchor="middle" x="1733" y="-14.3" font-family="Times,serif" font-size="14.00">.</text>
</g>
<!-- 0&#45;&gt;19 -->
<g id="edge19" class="edge">
<title>0&#45;&gt;19</title>
<path fill="none" stroke="black" d="M959.04,-102.78C1093.07,-99.28 1458.06,-88.24 1577,-69 1631.6,-60.17 1645.13,-55.21 1697,-36 1698.85,-35.32 1700.73,-34.57 1702.62,-33.79"/>
<polygon fill="black" stroke="black" points="1704.2,-36.92 1711.94,-29.69 1701.38,-30.51 1704.2,-36.92"/>
<text text-anchor="middle" x="1660.5" y="-57.8" font-family="Times,serif" font-size="14.00">dep</text>
</g>
</g>
</svg>
