<?xml version="1.0" encoding="UTF-8" standalone="no"?>
<!DOCTYPE svg PUBLIC "-//W3C//DTD SVG 1.1//EN"
 "http://www.w3.org/Graphics/SVG/1.1/DTD/svg11.dtd">
<!-- Generated by graphviz version 2.42.4 (0)
 -->
<!-- Pages: 1 -->
<svg width="354pt" height="131pt"
 viewBox="0.00 0.00 353.64 131.00" xmlns="http://www.w3.org/2000/svg" xmlns:xlink="http://www.w3.org/1999/xlink">
<g id="graph0" class="graph" transform="scale(1 1) rotate(0) translate(4 127)">
<polygon fill="white" stroke="transparent" points="-4,4 -4,-127 349.64,-127 349.64,4 -4,4"/>
<!-- 0 -->
<g id="node1" class="node">
<title>0</title>
<ellipse fill="none" stroke="black" cx="188.95" cy="-105" rx="27" ry="18"/>
<text text-anchor="middle" x="188.95" y="-101.3" font-family="Times,serif" font-size="14.00">Os</text>
</g>
<!-- 1 -->
<g id="node2" class="node">
<title>1</title>
<ellipse fill="none" stroke="black" cx="53.95" cy="-18" rx="53.89" ry="18"/>
<text text-anchor="middle" x="53.95" y="-14.3" font-family="Times,serif" font-size="14.00">excluídos</text>
</g>
<!-- 0&#45;&gt;1 -->
<g id="edge1" class="edge">
<title>0&#45;&gt;1</title>
<path fill="none" stroke="black" d="M169.89,-92C148.43,-78.49 113.18,-56.29 87.17,-39.92"/>
<polygon fill="black" stroke="black" points="88.72,-36.76 78.39,-34.39 84.99,-42.68 88.72,-36.76"/>
<text text-anchor="middle" x="143.45" y="-57.8" font-family="Times,serif" font-size="14.00">dep</text>
</g>
<!-- 2 -->
<g id="node3" class="node">
<title>2</title>
<ellipse fill="none" stroke="black" cx="152.95" cy="-18" rx="27" ry="18"/>
<text text-anchor="middle" x="152.95" y="-14.3" font-family="Times,serif" font-size="14.00">de</text>
</g>
<!-- 0&#45;&gt;2 -->
<g id="edge2" class="edge">
<title>0&#45;&gt;2</title>
<path fill="none" stroke="black" d="M181.83,-87.21C176.72,-75.14 169.73,-58.64 163.91,-44.89"/>
<polygon fill="black" stroke="black" points="167.04,-43.31 159.92,-35.47 160.6,-46.04 167.04,-43.31"/>
<text text-anchor="middle" x="187.45" y="-57.8" font-family="Times,serif" font-size="14.00">dep</text>
</g>
<!-- 3 -->
<g id="node4" class="node">
<title>3</title>
<ellipse fill="none" stroke="black" cx="224.95" cy="-18" rx="27" ry="18"/>
<text text-anchor="middle" x="224.95" y="-14.3" font-family="Times,serif" font-size="14.00">a</text>
</g>
<!-- 0&#45;&gt;3 -->
<g id="edge3" class="edge">
<title>0&#45;&gt;3</title>
<path fill="none" stroke="black" d="M196.06,-87.21C201.17,-75.14 208.16,-58.64 213.98,-44.89"/>
<polygon fill="black" stroke="black" points="217.29,-46.04 217.97,-35.47 210.85,-43.31 217.29,-46.04"/>
<text text-anchor="middle" x="223.45" y="-57.8" font-family="Times,serif" font-size="14.00">dep</text>
</g>
<!-- 4 -->
<g id="node5" class="node">
<title>4</title>
<ellipse fill="none" stroke="black" cx="307.95" cy="-18" rx="37.89" ry="18"/>
<text text-anchor="middle" x="307.95" y="-14.3" font-family="Times,serif" font-size="14.00">nação</text>
</g>
<!-- 0&#45;&gt;4 -->
<g id="edge4" class="edge">
<title>0&#45;&gt;4</title>
<path fill="none" stroke="black" d="M207.87,-91.58C217.8,-84.99 230.12,-76.68 240.95,-69 254.09,-59.68 268.44,-49.03 280.47,-39.97"/>
<polygon fill="black" stroke="black" points="282.91,-42.52 288.78,-33.69 278.69,-36.93 282.91,-42.52"/>
<text text-anchor="middle" x="274.45" y="-57.8" font-family="Times,serif" font-size="14.00">dep</text>
</g>
</g>
</svg>
