<?xml version="1.0" encoding="UTF-8" standalone="no"?>
<!DOCTYPE svg PUBLIC "-//W3C//DTD SVG 1.1//EN"
 "http://www.w3.org/Graphics/SVG/1.1/DTD/svg11.dtd">
<!-- Generated by graphviz version 2.42.4 (0)
 -->
<!-- Pages: 1 -->
<svg width="4201pt" height="131pt"
 viewBox="0.00 0.00 4200.70 131.00" xmlns="http://www.w3.org/2000/svg" xmlns:xlink="http://www.w3.org/1999/xlink">
<g id="graph0" class="graph" transform="scale(1 1) rotate(0) translate(4 127)">
<polygon fill="white" stroke="transparent" points="-4,4 -4,-127 4196.7,-127 4196.7,4 -4,4"/>
<!-- 0 -->
<g id="node1" class="node">
<title>0</title>
<ellipse fill="none" stroke="black" cx="2084.7" cy="-105" rx="32.49" ry="18"/>
<text text-anchor="middle" x="2084.7" y="-101.3" font-family="Times,serif" font-size="14.00">Uma</text>
</g>
<!-- 1 -->
<g id="node2" class="node">
<title>1</title>
<ellipse fill="none" stroke="black" cx="50.7" cy="-18" rx="50.89" ry="18"/>
<text text-anchor="middle" x="50.7" y="-14.3" font-family="Times,serif" font-size="14.00">disquete</text>
</g>
<!-- 0&#45;&gt;1 -->
<g id="edge1" class="edge">
<title>0&#45;&gt;1</title>
<path fill="none" stroke="black" d="M2052.25,-103.98C1818.28,-103.73 392.81,-100.92 203.7,-69 164.53,-62.39 121.7,-47.71 91.34,-35.96"/>
<polygon fill="black" stroke="black" points="92.53,-32.66 81.94,-32.26 89.97,-39.18 92.53,-32.66"/>
<text text-anchor="middle" x="217.2" y="-57.8" font-family="Times,serif" font-size="14.00">dep</text>
</g>
<!-- 2 -->
<g id="node3" class="node">
<title>2</title>
<ellipse fill="none" stroke="black" cx="149.7" cy="-18" rx="29.8" ry="18"/>
<text text-anchor="middle" x="149.7" y="-14.3" font-family="Times,serif" font-size="14.00">com</text>
</g>
<!-- 0&#45;&gt;2 -->
<g id="edge2" class="edge">
<title>0&#45;&gt;2</title>
<path fill="none" stroke="black" d="M2051.92,-103.94C1823.22,-103.48 469.67,-99.46 289.7,-69 251.23,-62.49 209.37,-46.23 181.54,-34.01"/>
<polygon fill="black" stroke="black" points="182.87,-30.77 172.31,-29.88 180.01,-37.16 182.87,-30.77"/>
<text text-anchor="middle" x="303.2" y="-57.8" font-family="Times,serif" font-size="14.00">dep</text>
</g>
<!-- 3 -->
<g id="node4" class="node">
<title>3</title>
<ellipse fill="none" stroke="black" cx="224.7" cy="-18" rx="27" ry="18"/>
<text text-anchor="middle" x="224.7" y="-14.3" font-family="Times,serif" font-size="14.00">a</text>
</g>
<!-- 0&#45;&gt;3 -->
<g id="edge3" class="edge">
<title>0&#45;&gt;3</title>
<path fill="none" stroke="black" d="M2052.16,-104.18C1848.46,-105.19 746.35,-108.69 411.7,-69 343.48,-60.91 325.72,-58.14 260.7,-36 258.78,-35.35 256.84,-34.62 254.89,-33.85"/>
<polygon fill="black" stroke="black" points="255.87,-30.46 245.3,-29.71 253.09,-36.89 255.87,-30.46"/>
<text text-anchor="middle" x="425.2" y="-57.8" font-family="Times,serif" font-size="14.00">dep</text>
</g>
<!-- 4 -->
<g id="node5" class="node">
<title>4</title>
<ellipse fill="none" stroke="black" cx="321.7" cy="-18" rx="51.99" ry="18"/>
<text text-anchor="middle" x="321.7" y="-14.3" font-family="Times,serif" font-size="14.00">tradução</text>
</g>
<!-- 0&#45;&gt;4 -->
<g id="edge4" class="edge">
<title>0&#45;&gt;4</title>
<path fill="none" stroke="black" d="M2052.06,-104.22C1855.86,-105.4 831.13,-109.52 519.7,-69 466.7,-62.11 407.47,-46 367.72,-33.91"/>
<polygon fill="black" stroke="black" points="368.64,-30.53 358.05,-30.94 366.58,-37.22 368.64,-30.53"/>
<text text-anchor="middle" x="533.2" y="-57.8" font-family="Times,serif" font-size="14.00">dep</text>
</g>
<!-- 5 -->
<g id="node6" class="node">
<title>5</title>
<ellipse fill="none" stroke="black" cx="455.7" cy="-18" rx="63.89" ry="18"/>
<text text-anchor="middle" x="455.7" y="-14.3" font-family="Times,serif" font-size="14.00">portuguesa</text>
</g>
<!-- 0&#45;&gt;5 -->
<g id="edge5" class="edge">
<title>0&#45;&gt;5</title>
<path fill="none" stroke="black" d="M2052.14,-103.78C1848.89,-102.37 758,-93.66 611.7,-69 572.98,-62.47 530.65,-48.45 499.87,-36.9"/>
<polygon fill="black" stroke="black" points="500.89,-33.55 490.3,-33.26 498.39,-40.09 500.89,-33.55"/>
<text text-anchor="middle" x="625.2" y="-57.8" font-family="Times,serif" font-size="14.00">dep</text>
</g>
<!-- 6 -->
<g id="node7" class="node">
<title>6</title>
<ellipse fill="none" stroke="black" cx="564.7" cy="-18" rx="27" ry="18"/>
<text text-anchor="middle" x="564.7" y="-14.3" font-family="Times,serif" font-size="14.00">de</text>
</g>
<!-- 0&#45;&gt;6 -->
<g id="edge6" class="edge">
<title>0&#45;&gt;6</title>
<path fill="none" stroke="black" d="M2052.03,-103.8C1855.11,-102.52 830.07,-94.68 692.7,-69 657.55,-62.43 619.69,-46.42 594.34,-34.27"/>
<polygon fill="black" stroke="black" points="595.79,-31.08 585.27,-29.83 592.71,-37.37 595.79,-31.08"/>
<text text-anchor="middle" x="706.2" y="-57.8" font-family="Times,serif" font-size="14.00">dep</text>
</g>
<!-- 7 -->
<g id="node8" class="node">
<title>7</title>
<ellipse fill="none" stroke="black" cx="636.7" cy="-18" rx="27" ry="18"/>
<text text-anchor="middle" x="636.7" y="-14.3" font-family="Times,serif" font-size="14.00">o</text>
</g>
<!-- 0&#45;&gt;7 -->
<g id="edge7" class="edge">
<title>0&#45;&gt;7</title>
<path fill="none" stroke="black" d="M2051.95,-104.18C1876.5,-104.99 1046.27,-106.73 792.7,-69 737.98,-60.86 724.56,-55.21 672.7,-36 670.85,-35.32 668.97,-34.57 667.08,-33.79"/>
<polygon fill="black" stroke="black" points="668.32,-30.51 657.76,-29.69 665.5,-36.92 668.32,-30.51"/>
<text text-anchor="middle" x="806.2" y="-57.8" font-family="Times,serif" font-size="14.00">dep</text>
</g>
<!-- 8 -->
<g id="node9" class="node">
<title>8</title>
<ellipse fill="none" stroke="black" cx="728.7" cy="-18" rx="46.59" ry="18"/>
<text text-anchor="middle" x="728.7" y="-14.3" font-family="Times,serif" font-size="14.00">Tratado</text>
</g>
<!-- 0&#45;&gt;8 -->
<g id="edge8" class="edge">
<title>0&#45;&gt;8</title>
<path fill="none" stroke="black" d="M2052.25,-103.6C1872.39,-101.32 1001.58,-89.31 883.7,-69 843.59,-62.09 799.59,-47.15 768.75,-35.39"/>
<polygon fill="black" stroke="black" points="769.81,-32.04 759.22,-31.69 767.28,-38.57 769.81,-32.04"/>
<text text-anchor="middle" x="897.2" y="-57.8" font-family="Times,serif" font-size="14.00">dep</text>
</g>
<!-- 9 -->
<g id="node10" class="node">
<title>9</title>
<ellipse fill="none" stroke="black" cx="820.7" cy="-18" rx="27" ry="18"/>
<text text-anchor="middle" x="820.7" y="-14.3" font-family="Times,serif" font-size="14.00">de</text>
</g>
<!-- 0&#45;&gt;9 -->
<g id="edge9" class="edge">
<title>0&#45;&gt;9</title>
<path fill="none" stroke="black" d="M2052.1,-103.83C1894.25,-102.86 1208.4,-97.07 996.7,-69 933.32,-60.6 917.04,-57.1 856.7,-36 854.79,-35.33 852.84,-34.6 850.9,-33.81"/>
<polygon fill="black" stroke="black" points="851.89,-30.43 841.32,-29.65 849.1,-36.85 851.89,-30.43"/>
<text text-anchor="middle" x="1010.2" y="-57.8" font-family="Times,serif" font-size="14.00">dep</text>
</g>
<!-- 10 -->
<g id="node11" class="node">
<title>10</title>
<ellipse fill="none" stroke="black" cx="927.7" cy="-18" rx="61.99" ry="18"/>
<text text-anchor="middle" x="927.7" y="-14.3" font-family="Times,serif" font-size="14.00">Maastricht</text>
</g>
<!-- 0&#45;&gt;10 -->
<g id="edge10" class="edge">
<title>0&#45;&gt;10</title>
<path fill="none" stroke="black" d="M2052.19,-104.06C1902.23,-104.17 1276.2,-102.55 1083.7,-69 1044.89,-62.24 1002.41,-48.15 971.59,-36.65"/>
<polygon fill="black" stroke="black" points="972.6,-33.3 962.01,-33.02 970.12,-39.84 972.6,-33.3"/>
<text text-anchor="middle" x="1097.2" y="-57.8" font-family="Times,serif" font-size="14.00">dep</text>
</g>
<!-- 11 -->
<g id="node12" class="node">
<title>11</title>
<ellipse fill="none" stroke="black" cx="1034.7" cy="-18" rx="27" ry="18"/>
<text text-anchor="middle" x="1034.7" y="-14.3" font-family="Times,serif" font-size="14.00">«</text>
</g>
<!-- 0&#45;&gt;11 -->
<g id="edge11" class="edge">
<title>0&#45;&gt;11</title>
<path fill="none" stroke="black" d="M2052.02,-104.05C1909.41,-104.06 1340.84,-101.99 1165.7,-69 1129.85,-62.25 1091.08,-46.27 1065.09,-34.18"/>
<polygon fill="black" stroke="black" points="1066.33,-30.89 1055.79,-29.76 1063.33,-37.21 1066.33,-30.89"/>
<text text-anchor="middle" x="1179.2" y="-57.8" font-family="Times,serif" font-size="14.00">dep</text>
</g>
<!-- 12 -->
<g id="node13" class="node">
<title>12</title>
<ellipse fill="none" stroke="black" cx="1109.7" cy="-18" rx="29.8" ry="18"/>
<text text-anchor="middle" x="1109.7" y="-14.3" font-family="Times,serif" font-size="14.00">com</text>
</g>
<!-- 0&#45;&gt;12 -->
<g id="edge12" class="edge">
<title>0&#45;&gt;12</title>
<path fill="none" stroke="black" d="M2051.99,-103.79C1917.84,-102.77 1409.52,-97.07 1251.7,-69 1212.79,-62.08 1170.32,-45.9 1142.06,-33.8"/>
<polygon fill="black" stroke="black" points="1143.25,-30.51 1132.68,-29.72 1140.45,-36.92 1143.25,-30.51"/>
<text text-anchor="middle" x="1265.2" y="-57.8" font-family="Times,serif" font-size="14.00">dep</text>
</g>
<!-- 13 -->
<g id="node14" class="node">
<title>13</title>
<ellipse fill="none" stroke="black" cx="1184.7" cy="-18" rx="27" ry="18"/>
<text text-anchor="middle" x="1184.7" y="-14.3" font-family="Times,serif" font-size="14.00">os</text>
</g>
<!-- 0&#45;&gt;13 -->
<g id="edge13" class="edge">
<title>0&#45;&gt;13</title>
<path fill="none" stroke="black" d="M2052.07,-104.23C1951.18,-104.53 1635.43,-102.54 1376.7,-69 1306.42,-59.89 1287.86,-58.62 1220.7,-36 1218.78,-35.35 1216.83,-34.64 1214.88,-33.87"/>
<polygon fill="black" stroke="black" points="1215.86,-30.48 1205.3,-29.73 1213.09,-36.91 1215.86,-30.48"/>
<text text-anchor="middle" x="1390.2" y="-57.8" font-family="Times,serif" font-size="14.00">dep</text>
</g>
<!-- 14 -->
<g id="node15" class="node">
<title>14</title>
<ellipse fill="none" stroke="black" cx="1291.7" cy="-18" rx="61.99" ry="18"/>
<text text-anchor="middle" x="1291.7" y="-14.3" font-family="Times,serif" font-size="14.00">conhecidos</text>
</g>
<!-- 0&#45;&gt;14 -->
<g id="edge14" class="edge">
<title>0&#45;&gt;14</title>
<path fill="none" stroke="black" d="M2051.92,-104.56C1959.9,-105.61 1691.64,-105.08 1472.7,-69 1426.83,-61.44 1375.9,-46.79 1339.78,-35.29"/>
<polygon fill="black" stroke="black" points="1340.59,-31.88 1330,-32.14 1338.45,-38.54 1340.59,-31.88"/>
<text text-anchor="middle" x="1486.2" y="-57.8" font-family="Times,serif" font-size="14.00">dep</text>
</g>
<!-- 15 -->
<g id="node16" class="node">
<title>15</title>
<ellipse fill="none" stroke="black" cx="1398.7" cy="-18" rx="27" ry="18"/>
<text text-anchor="middle" x="1398.7" y="-14.3" font-family="Times,serif" font-size="14.00">e</text>
</g>
<!-- 0&#45;&gt;15 -->
<g id="edge15" class="edge">
<title>0&#45;&gt;15</title>
<path fill="none" stroke="black" d="M2052.31,-102.73C1976.22,-99.49 1780.21,-89.69 1617.7,-69 1535.71,-58.56 1513.41,-61.2 1434.7,-36 1432.77,-35.38 1430.81,-34.69 1428.86,-33.93"/>
<polygon fill="black" stroke="black" points="1429.83,-30.54 1419.26,-29.84 1427.09,-36.98 1429.83,-30.54"/>
<text text-anchor="middle" x="1631.2" y="-57.8" font-family="Times,serif" font-size="14.00">dep</text>
</g>
<!-- 16 -->
<g id="node17" class="node">
<title>16</title>
<ellipse fill="none" stroke="black" cx="1501.7" cy="-18" rx="57.69" ry="18"/>
<text text-anchor="middle" x="1501.7" y="-14.3" font-family="Times,serif" font-size="14.00">altamente</text>
</g>
<!-- 0&#45;&gt;16 -->
<g id="edge16" class="edge">
<title>0&#45;&gt;16</title>
<path fill="none" stroke="black" d="M2052.64,-101.99C1990.1,-97.81 1847.5,-87.04 1728.7,-69 1656.91,-58.1 1639.46,-52.27 1568.7,-36 1564.04,-34.93 1559.22,-33.78 1554.39,-32.61"/>
<polygon fill="black" stroke="black" points="1555.06,-29.17 1544.52,-30.17 1553.39,-35.97 1555.06,-29.17"/>
<text text-anchor="middle" x="1742.2" y="-57.8" font-family="Times,serif" font-size="14.00">dep</text>
</g>
<!-- 17 -->
<g id="node18" class="node">
<title>17</title>
<ellipse fill="none" stroke="black" cx="1640.7" cy="-18" rx="63.09" ry="18"/>
<text text-anchor="middle" x="1640.7" y="-14.3" font-family="Times,serif" font-size="14.00">verberados</text>
</g>
<!-- 0&#45;&gt;17 -->
<g id="edge17" class="edge">
<title>0&#45;&gt;17</title>
<path fill="none" stroke="black" d="M2052.8,-101.33C2002.47,-96.77 1901.72,-86.28 1817.7,-69 1774.1,-60.03 1725.5,-46.01 1690.27,-35.09"/>
<polygon fill="black" stroke="black" points="1691.3,-31.74 1680.71,-32.1 1689.21,-38.42 1691.3,-31.74"/>
<text text-anchor="middle" x="1831.2" y="-57.8" font-family="Times,serif" font-size="14.00">dep</text>
</g>
<!-- 18 -->
<g id="node19" class="node">
<title>18</title>
<ellipse fill="none" stroke="black" cx="1756.7" cy="-18" rx="35.19" ry="18"/>
<text text-anchor="middle" x="1756.7" y="-14.3" font-family="Times,serif" font-size="14.00">erros</text>
</g>
<!-- 0&#45;&gt;18 -->
<g id="edge18" class="edge">
<title>0&#45;&gt;18</title>
<path fill="none" stroke="black" d="M2053.42,-99.91C2015.13,-94.53 1948.49,-83.98 1892.7,-69 1850.74,-57.73 1841.4,-51.16 1800.7,-36 1798.19,-35.07 1795.61,-34.1 1793.02,-33.11"/>
<polygon fill="black" stroke="black" points="1794.24,-29.83 1783.65,-29.53 1791.74,-36.37 1794.24,-29.83"/>
<text text-anchor="middle" x="1906.2" y="-57.8" font-family="Times,serif" font-size="14.00">dep</text>
</g>
<!-- 19 -->
<g id="node20" class="node">
<title>19</title>
<ellipse fill="none" stroke="black" cx="1852.7" cy="-18" rx="42.79" ry="18"/>
<text text-anchor="middle" x="1852.7" y="-14.3" font-family="Times,serif" font-size="14.00">oficiais</text>
</g>
<!-- 0&#45;&gt;19 -->
<g id="edge19" class="edge">
<title>0&#45;&gt;19</title>
<path fill="none" stroke="black" d="M2055.22,-97.32C2029.4,-91.11 1991.04,-81.02 1958.7,-69 1934.22,-59.9 1907.64,-47.36 1887.22,-37.11"/>
<polygon fill="black" stroke="black" points="1888.8,-33.99 1878.3,-32.59 1885.64,-40.23 1888.8,-33.99"/>
<text text-anchor="middle" x="1972.2" y="-57.8" font-family="Times,serif" font-size="14.00">dep</text>
</g>
<!-- 20 -->
<g id="node21" class="node">
<title>20</title>
<ellipse fill="none" stroke="black" cx="1940.7" cy="-18" rx="27" ry="18"/>
<text text-anchor="middle" x="1940.7" y="-14.3" font-family="Times,serif" font-size="14.00">»</text>
</g>
<!-- 0&#45;&gt;20 -->
<g id="edge20" class="edge">
<title>0&#45;&gt;20</title>
<path fill="none" stroke="black" d="M2059.46,-93.41C2044.88,-86.96 2026.38,-78.21 2010.7,-69 1995.06,-59.82 1978.51,-48.1 1965.43,-38.32"/>
<polygon fill="black" stroke="black" points="1967.47,-35.47 1957.38,-32.21 1963.24,-41.04 1967.47,-35.47"/>
<text text-anchor="middle" x="2024.2" y="-57.8" font-family="Times,serif" font-size="14.00">dep</text>
</g>
<!-- 21 -->
<g id="node22" class="node">
<title>21</title>
<ellipse fill="none" stroke="black" cx="2012.7" cy="-18" rx="27" ry="18"/>
<text text-anchor="middle" x="2012.7" y="-14.3" font-family="Times,serif" font-size="14.00">,</text>
</g>
<!-- 0&#45;&gt;21 -->
<g id="edge21" class="edge">
<title>0&#45;&gt;21</title>
<path fill="none" stroke="black" d="M2070.68,-88.43C2065.31,-82.41 2059.17,-75.42 2053.7,-69 2046.38,-60.41 2038.49,-50.86 2031.6,-42.43"/>
<polygon fill="black" stroke="black" points="2034.13,-39.99 2025.11,-34.44 2028.7,-44.41 2034.13,-39.99"/>
<text text-anchor="middle" x="2067.2" y="-57.8" font-family="Times,serif" font-size="14.00">dep</text>
</g>
<!-- 22 -->
<g id="node23" class="node">
<title>22</title>
<ellipse fill="none" stroke="black" cx="2084.7" cy="-18" rx="27" ry="18"/>
<text text-anchor="middle" x="2084.7" y="-14.3" font-family="Times,serif" font-size="14.00">a</text>
</g>
<!-- 0&#45;&gt;22 -->
<g id="edge22" class="edge">
<title>0&#45;&gt;22</title>
<path fill="none" stroke="black" d="M2084.7,-86.8C2084.7,-75.16 2084.7,-59.55 2084.7,-46.24"/>
<polygon fill="black" stroke="black" points="2088.2,-46.18 2084.7,-36.18 2081.2,-46.18 2088.2,-46.18"/>
<text text-anchor="middle" x="2098.2" y="-57.8" font-family="Times,serif" font-size="14.00">dep</text>
</g>
<!-- 23 -->
<g id="node24" class="node">
<title>23</title>
<ellipse fill="none" stroke="black" cx="2157.7" cy="-18" rx="27.9" ry="18"/>
<text text-anchor="middle" x="2157.7" y="-14.3" font-family="Times,serif" font-size="14.00">que</text>
</g>
<!-- 0&#45;&gt;23 -->
<g id="edge23" class="edge">
<title>0&#45;&gt;23</title>
<path fill="none" stroke="black" d="M2098.67,-88.4C2104.03,-82.37 2110.18,-75.39 2115.7,-69 2123.21,-60.28 2131.38,-50.61 2138.49,-42.12"/>
<polygon fill="black" stroke="black" points="2141.21,-44.33 2144.93,-34.41 2135.84,-39.84 2141.21,-44.33"/>
<text text-anchor="middle" x="2141.2" y="-57.8" font-family="Times,serif" font-size="14.00">dep</text>
</g>
<!-- 24 -->
<g id="node25" class="node">
<title>24</title>
<ellipse fill="none" stroke="black" cx="2243.7" cy="-18" rx="40.09" ry="18"/>
<text text-anchor="middle" x="2243.7" y="-14.3" font-family="Times,serif" font-size="14.00">juntou</text>
</g>
<!-- 0&#45;&gt;24 -->
<g id="edge24" class="edge">
<title>0&#45;&gt;24</title>
<path fill="none" stroke="black" d="M2109.3,-93.04C2123.83,-86.4 2142.49,-77.58 2158.7,-69 2176.66,-59.49 2196.24,-48.05 2212.07,-38.52"/>
<polygon fill="black" stroke="black" points="2214.19,-41.33 2220.92,-33.15 2210.56,-35.34 2214.19,-41.33"/>
<text text-anchor="middle" x="2199.2" y="-57.8" font-family="Times,serif" font-size="14.00">dep</text>
</g>
<!-- 25 -->
<g id="node26" class="node">
<title>25</title>
<ellipse fill="none" stroke="black" cx="2332.7" cy="-18" rx="30.59" ry="18"/>
<text text-anchor="middle" x="2332.7" y="-14.3" font-family="Times,serif" font-size="14.00">uma</text>
</g>
<!-- 0&#45;&gt;25 -->
<g id="edge25" class="edge">
<title>0&#45;&gt;25</title>
<path fill="none" stroke="black" d="M2114.43,-97.44C2141.43,-91.18 2182.19,-80.94 2216.7,-69 2245.53,-59.02 2277.28,-45.12 2300.27,-34.51"/>
<polygon fill="black" stroke="black" points="2301.96,-37.58 2309.55,-30.19 2299,-31.24 2301.96,-37.58"/>
<text text-anchor="middle" x="2269.2" y="-57.8" font-family="Times,serif" font-size="14.00">dep</text>
</g>
<!-- 26 -->
<g id="node27" class="node">
<title>26</title>
<ellipse fill="none" stroke="black" cx="2411.7" cy="-18" rx="30.59" ry="18"/>
<text text-anchor="middle" x="2411.7" y="-14.3" font-family="Times,serif" font-size="14.00">bem</text>
</g>
<!-- 0&#45;&gt;26 -->
<g id="edge26" class="edge">
<title>0&#45;&gt;26</title>
<path fill="none" stroke="black" d="M2116.26,-100.47C2156.37,-95.54 2227.51,-85.32 2286.7,-69 2326.16,-58.12 2334.81,-51.52 2372.7,-36 2374.54,-35.24 2376.43,-34.46 2378.34,-33.66"/>
<polygon fill="black" stroke="black" points="2380.02,-36.74 2387.84,-29.6 2377.27,-30.31 2380.02,-36.74"/>
<text text-anchor="middle" x="2344.2" y="-57.8" font-family="Times,serif" font-size="14.00">dep</text>
</g>
<!-- 27 -->
<g id="node28" class="node">
<title>27</title>
<ellipse fill="none" stroke="black" cx="2517.7" cy="-18" rx="57.69" ry="18"/>
<text text-anchor="middle" x="2517.7" y="-14.3" font-family="Times,serif" font-size="14.00">humorada</text>
</g>
<!-- 0&#45;&gt;27 -->
<g id="edge27" class="edge">
<title>0&#45;&gt;27</title>
<path fill="none" stroke="black" d="M2117.02,-101.86C2169.04,-97.98 2274.38,-88.34 2361.7,-69 2399.91,-60.54 2442.11,-46.73 2472.98,-35.76"/>
<polygon fill="black" stroke="black" points="2474.35,-38.99 2482.58,-32.31 2471.99,-32.4 2474.35,-38.99"/>
<text text-anchor="middle" x="2428.2" y="-57.8" font-family="Times,serif" font-size="14.00">dep</text>
</g>
<!-- 28 -->
<g id="node29" class="node">
<title>28</title>
<ellipse fill="none" stroke="black" cx="2642.7" cy="-18" rx="49.29" ry="18"/>
<text text-anchor="middle" x="2642.7" y="-14.3" font-family="Times,serif" font-size="14.00">etiqueta</text>
</g>
<!-- 0&#45;&gt;28 -->
<g id="edge28" class="edge">
<title>0&#45;&gt;28</title>
<path fill="none" stroke="black" d="M2117.25,-102.34C2180.76,-98.76 2325.51,-89 2445.7,-69 2508.33,-58.58 2523.32,-52.27 2584.7,-36 2588.47,-35 2592.37,-33.93 2596.28,-32.84"/>
<polygon fill="black" stroke="black" points="2597.3,-36.19 2605.96,-30.08 2595.38,-29.45 2597.3,-36.19"/>
<text text-anchor="middle" x="2532.2" y="-57.8" font-family="Times,serif" font-size="14.00">dep</text>
</g>
<!-- 29 -->
<g id="node30" class="node">
<title>29</title>
<ellipse fill="none" stroke="black" cx="2736.7" cy="-18" rx="27" ry="18"/>
<text text-anchor="middle" x="2736.7" y="-14.3" font-family="Times,serif" font-size="14.00">:</text>
</g>
<!-- 0&#45;&gt;29 -->
<g id="edge29" class="edge">
<title>0&#45;&gt;29</title>
<path fill="none" stroke="black" d="M2117.28,-103.12C2193.37,-100.71 2388.48,-92.56 2549.7,-69 2617.67,-59.06 2635.67,-58.14 2700.7,-36 2702.61,-35.35 2704.56,-34.62 2706.5,-33.85"/>
<polygon fill="black" stroke="black" points="2708.3,-36.89 2716.09,-29.71 2705.52,-30.46 2708.3,-36.89"/>
<text text-anchor="middle" x="2653.2" y="-57.8" font-family="Times,serif" font-size="14.00">dep</text>
</g>
<!-- 30 -->
<g id="node31" class="node">
<title>30</title>
<ellipse fill="none" stroke="black" cx="2808.7" cy="-18" rx="27" ry="18"/>
<text text-anchor="middle" x="2808.7" y="-14.3" font-family="Times,serif" font-size="14.00">«</text>
</g>
<!-- 0&#45;&gt;30 -->
<g id="edge30" class="edge">
<title>0&#45;&gt;30</title>
<path fill="none" stroke="black" d="M2117.06,-103.15C2223.67,-100.16 2563.15,-89.27 2670.7,-69 2717.52,-60.18 2728.4,-53.54 2772.7,-36 2774.53,-35.27 2776.4,-34.5 2778.27,-33.7"/>
<polygon fill="black" stroke="black" points="2779.88,-36.81 2787.57,-29.53 2777.02,-30.42 2779.88,-36.81"/>
<text text-anchor="middle" x="2740.2" y="-57.8" font-family="Times,serif" font-size="14.00">dep</text>
</g>
<!-- 31 -->
<g id="node32" class="node">
<title>31</title>
<ellipse fill="none" stroke="black" cx="2905.7" cy="-18" rx="51.99" ry="18"/>
<text text-anchor="middle" x="2905.7" y="-14.3" font-family="Times,serif" font-size="14.00">Disquete</text>
</g>
<!-- 0&#45;&gt;31 -->
<g id="edge31" class="edge">
<title>0&#45;&gt;31</title>
<path fill="none" stroke="black" d="M2117.3,-103.48C2234.31,-101.45 2632.72,-92.89 2757.7,-69 2794.91,-61.89 2835.59,-47.65 2864.86,-36.18"/>
<polygon fill="black" stroke="black" points="2866.33,-39.36 2874.33,-32.41 2863.74,-32.85 2866.33,-39.36"/>
<text text-anchor="middle" x="2825.2" y="-57.8" font-family="Times,serif" font-size="14.00">dep</text>
</g>
<!-- 32 -->
<g id="node33" class="node">
<title>32</title>
<ellipse fill="none" stroke="black" cx="3005.7" cy="-18" rx="29.8" ry="18"/>
<text text-anchor="middle" x="3005.7" y="-14.3" font-family="Times,serif" font-size="14.00">sem</text>
</g>
<!-- 0&#45;&gt;32 -->
<g id="edge32" class="edge">
<title>0&#45;&gt;32</title>
<path fill="none" stroke="black" d="M2117.38,-103.42C2243.65,-101.04 2699.64,-91.08 2842.7,-69 2899.06,-60.3 2912.85,-54.78 2966.7,-36 2968.93,-35.22 2971.22,-34.37 2973.51,-33.48"/>
<polygon fill="black" stroke="black" points="2974.91,-36.69 2982.83,-29.65 2972.25,-30.21 2974.91,-36.69"/>
<text text-anchor="middle" x="2926.2" y="-57.8" font-family="Times,serif" font-size="14.00">dep</text>
</g>
<!-- 33 -->
<g id="node34" class="node">
<title>33</title>
<ellipse fill="none" stroke="black" cx="3087.7" cy="-18" rx="34.39" ry="18"/>
<text text-anchor="middle" x="3087.7" y="-14.3" font-family="Times,serif" font-size="14.00">vírus</text>
</g>
<!-- 0&#45;&gt;33 -->
<g id="edge33" class="edge">
<title>0&#45;&gt;33</title>
<path fill="none" stroke="black" d="M2117.5,-103.87C2254.41,-103.12 2780.65,-98.38 2943.7,-69 2982.25,-62.05 3024.37,-46.42 3053.04,-34.47"/>
<polygon fill="black" stroke="black" points="3054.75,-37.54 3062.59,-30.42 3052.02,-31.1 3054.75,-37.54"/>
<text text-anchor="middle" x="3014.2" y="-57.8" font-family="Times,serif" font-size="14.00">dep</text>
</g>
<!-- 34 -->
<g id="node35" class="node">
<title>34</title>
<ellipse fill="none" stroke="black" cx="3166.7" cy="-18" rx="27" ry="18"/>
<text text-anchor="middle" x="3166.7" y="-14.3" font-family="Times,serif" font-size="14.00">(</text>
</g>
<!-- 0&#45;&gt;34 -->
<g id="edge34" class="edge">
<title>0&#45;&gt;34</title>
<path fill="none" stroke="black" d="M2117.37,-104.04C2262.64,-104.01 2850.59,-101.83 3031.7,-69 3068.93,-62.25 3109.34,-45.99 3136.15,-33.84"/>
<polygon fill="black" stroke="black" points="3137.77,-36.94 3145.38,-29.57 3134.83,-30.59 3137.77,-36.94"/>
<text text-anchor="middle" x="3099.2" y="-57.8" font-family="Times,serif" font-size="14.00">dep</text>
</g>
<!-- 35 -->
<g id="node36" class="node">
<title>35</title>
<ellipse fill="none" stroke="black" cx="3266.7" cy="-18" rx="55.49" ry="18"/>
<text text-anchor="middle" x="3266.7" y="-14.3" font-family="Times,serif" font-size="14.00">utilização</text>
</g>
<!-- 0&#45;&gt;35 -->
<g id="edge35" class="edge">
<title>0&#45;&gt;35</title>
<path fill="none" stroke="black" d="M2117.19,-104.15C2269.99,-104.68 2917.98,-104.71 3116.7,-69 3154.32,-62.24 3195.4,-48.04 3225.04,-36.49"/>
<polygon fill="black" stroke="black" points="3226.62,-39.63 3234.63,-32.69 3224.04,-33.12 3226.62,-39.63"/>
<text text-anchor="middle" x="3189.2" y="-57.8" font-family="Times,serif" font-size="14.00">dep</text>
</g>
<!-- 36 -->
<g id="node37" class="node">
<title>36</title>
<ellipse fill="none" stroke="black" cx="3366.7" cy="-18" rx="27" ry="18"/>
<text text-anchor="middle" x="3366.7" y="-14.3" font-family="Times,serif" font-size="14.00">de</text>
</g>
<!-- 0&#45;&gt;36 -->
<g id="edge36" class="edge">
<title>0&#45;&gt;36</title>
<path fill="none" stroke="black" d="M2117.26,-103.99C2278.05,-103.78 2988.32,-101.03 3206.7,-69 3263.12,-60.72 3277.14,-55.59 3330.7,-36 3332.55,-35.32 3334.43,-34.59 3336.32,-33.81"/>
<polygon fill="black" stroke="black" points="3337.9,-36.94 3345.65,-29.72 3335.08,-30.53 3337.9,-36.94"/>
<text text-anchor="middle" x="3292.2" y="-57.8" font-family="Times,serif" font-size="14.00">dep</text>
</g>
<!-- 37 -->
<g id="node38" class="node">
<title>37</title>
<ellipse fill="none" stroke="black" cx="3462.7" cy="-18" rx="51.19" ry="18"/>
<text text-anchor="middle" x="3462.7" y="-14.3" font-family="Times,serif" font-size="14.00">software</text>
</g>
<!-- 0&#45;&gt;37 -->
<g id="edge37" class="edge">
<title>0&#45;&gt;37</title>
<path fill="none" stroke="black" d="M2117.19,-103.63C2299.31,-101.47 3189.36,-89.93 3309.7,-69 3348.7,-62.22 3391.39,-47.63 3421.74,-35.95"/>
<polygon fill="black" stroke="black" points="3423.1,-39.18 3431.14,-32.28 3420.55,-32.66 3423.1,-39.18"/>
<text text-anchor="middle" x="3383.2" y="-57.8" font-family="Times,serif" font-size="14.00">dep</text>
</g>
<!-- 38 -->
<g id="node39" class="node">
<title>38</title>
<ellipse fill="none" stroke="black" cx="3601.7" cy="-18" rx="69.59" ry="18"/>
<text text-anchor="middle" x="3601.7" y="-14.3" font-family="Times,serif" font-size="14.00">preservativo</text>
</g>
<!-- 0&#45;&gt;38 -->
<g id="edge38" class="edge">
<title>0&#45;&gt;38</title>
<path fill="none" stroke="black" d="M2117.16,-104.09C2293.88,-104.45 3141.53,-104.25 3400.7,-69 3452.21,-61.99 3509.65,-46.95 3549.89,-35.19"/>
<polygon fill="black" stroke="black" points="3550.88,-38.54 3559.48,-32.35 3548.9,-31.83 3550.88,-38.54"/>
<text text-anchor="middle" x="3493.2" y="-57.8" font-family="Times,serif" font-size="14.00">dep</text>
</g>
<!-- 39 -->
<g id="node40" class="node">
<title>39</title>
<ellipse fill="none" stroke="black" cx="3755.7" cy="-18" rx="66.89" ry="18"/>
<text text-anchor="middle" x="3755.7" y="-14.3" font-family="Times,serif" font-size="14.00">antieuropeu</text>
</g>
<!-- 0&#45;&gt;39 -->
<g id="edge39" class="edge">
<title>0&#45;&gt;39</title>
<path fill="none" stroke="black" d="M2117.38,-103.94C2303.14,-103.49 3227.72,-99.72 3510.7,-69 3576.31,-61.88 3650.39,-45.58 3699.75,-33.52"/>
<polygon fill="black" stroke="black" points="3700.72,-36.89 3709.59,-31.09 3699.04,-30.09 3700.72,-36.89"/>
<text text-anchor="middle" x="3619.2" y="-57.8" font-family="Times,serif" font-size="14.00">dep</text>
</g>
<!-- 40 -->
<g id="node41" class="node">
<title>40</title>
<ellipse fill="none" stroke="black" cx="3867.7" cy="-18" rx="27.1" ry="18"/>
<text text-anchor="middle" x="3867.7" y="-14.3" font-family="Times,serif" font-size="14.00">não</text>
</g>
<!-- 0&#45;&gt;40 -->
<g id="edge40" class="edge">
<title>0&#45;&gt;40</title>
<path fill="none" stroke="black" d="M2117.34,-103.91C2312.5,-103.27 3326.81,-98.56 3636.7,-69 3724.2,-60.65 3747.84,-62.35 3831.7,-36 3833.62,-35.39 3835.58,-34.7 3837.54,-33.96"/>
<polygon fill="black" stroke="black" points="3839.31,-37.01 3847.14,-29.88 3836.57,-30.57 3839.31,-37.01"/>
<text text-anchor="middle" x="3776.2" y="-57.8" font-family="Times,serif" font-size="14.00">dep</text>
</g>
<!-- 41 -->
<g id="node42" class="node">
<title>41</title>
<ellipse fill="none" stroke="black" cx="3980.7" cy="-18" rx="67.69" ry="18"/>
<text text-anchor="middle" x="3980.7" y="-14.3" font-family="Times,serif" font-size="14.00">aconselhada</text>
</g>
<!-- 0&#45;&gt;41 -->
<g id="edge41" class="edge">
<title>0&#45;&gt;41</title>
<path fill="none" stroke="black" d="M2117.29,-103.8C2339.01,-102.41 3621.99,-93.35 3793.7,-69 3841.19,-62.26 3893.86,-47.49 3931.17,-35.74"/>
<polygon fill="black" stroke="black" points="3932.32,-39.05 3940.79,-32.67 3930.19,-32.38 3932.32,-39.05"/>
<text text-anchor="middle" x="3880.2" y="-57.8" font-family="Times,serif" font-size="14.00">dep</text>
</g>
<!-- 42 -->
<g id="node43" class="node">
<title>42</title>
<ellipse fill="none" stroke="black" cx="4093.7" cy="-18" rx="27" ry="18"/>
<text text-anchor="middle" x="4093.7" y="-14.3" font-family="Times,serif" font-size="14.00">)</text>
</g>
<!-- 0&#45;&gt;42 -->
<g id="edge42" class="edge">
<title>0&#45;&gt;42</title>
<path fill="none" stroke="black" d="M2117.49,-104.19C2331.63,-105.32 3533.4,-109.73 3897.7,-69 3969.85,-60.93 3988.83,-59 4057.7,-36 4059.61,-35.36 4061.56,-34.64 4063.51,-33.88"/>
<polygon fill="black" stroke="black" points="4065.3,-36.92 4073.1,-29.75 4062.53,-30.49 4065.3,-36.92"/>
<text text-anchor="middle" x="4009.2" y="-57.8" font-family="Times,serif" font-size="14.00">dep</text>
</g>
<!-- 43 -->
<g id="node44" class="node">
<title>43</title>
<ellipse fill="none" stroke="black" cx="4165.7" cy="-18" rx="27" ry="18"/>
<text text-anchor="middle" x="4165.7" y="-14.3" font-family="Times,serif" font-size="14.00">.</text>
</g>
<!-- 0&#45;&gt;43 -->
<g id="edge43" class="edge">
<title>0&#45;&gt;43</title>
<path fill="none" stroke="black" d="M2117.43,-103.99C2356.6,-103.8 3831.14,-101.37 4026.7,-69 4065.4,-62.59 4107.48,-45.99 4135.08,-33.67"/>
<polygon fill="black" stroke="black" points="4136.56,-36.84 4144.21,-29.51 4133.66,-30.47 4136.56,-36.84"/>
<text text-anchor="middle" x="4095.2" y="-57.8" font-family="Times,serif" font-size="14.00">dep</text>
</g>
</g>
</svg>
