<?xml version="1.0" encoding="UTF-8" standalone="no"?>
<!DOCTYPE svg PUBLIC "-//W3C//DTD SVG 1.1//EN"
 "http://www.w3.org/Graphics/SVG/1.1/DTD/svg11.dtd">
<!-- Generated by graphviz version 2.42.4 (0)
 -->
<!-- Pages: 1 -->
<svg width="2482pt" height="131pt"
 viewBox="0.00 0.00 2482.00 131.00" xmlns="http://www.w3.org/2000/svg" xmlns:xlink="http://www.w3.org/1999/xlink">
<g id="graph0" class="graph" transform="scale(1 1) rotate(0) translate(4 127)">
<polygon fill="white" stroke="transparent" points="-4,4 -4,-127 2478,-127 2478,4 -4,4"/>
<!-- 0 -->
<g id="node1" class="node">
<title>0</title>
<ellipse fill="none" stroke="black" cx="1246" cy="-105" rx="51.19" ry="18"/>
<text text-anchor="middle" x="1246" y="-101.3" font-family="Times,serif" font-size="14.00">Segundo</text>
</g>
<!-- 1 -->
<g id="node2" class="node">
<title>1</title>
<ellipse fill="none" stroke="black" cx="27" cy="-18" rx="27" ry="18"/>
<text text-anchor="middle" x="27" y="-14.3" font-family="Times,serif" font-size="14.00">o</text>
</g>
<!-- 0&#45;&gt;1 -->
<g id="edge1" class="edge">
<title>0&#45;&gt;1</title>
<path fill="none" stroke="black" d="M1194.54,-104.03C1009.13,-103.86 375.71,-100.9 176,-69 124.34,-60.75 111.92,-54.56 63,-36 61.16,-35.3 59.28,-34.55 57.4,-33.76"/>
<polygon fill="black" stroke="black" points="58.64,-30.48 48.08,-29.63 55.81,-36.88 58.64,-30.48"/>
<text text-anchor="middle" x="189.5" y="-57.8" font-family="Times,serif" font-size="14.00">dep</text>
</g>
<!-- 2 -->
<g id="node3" class="node">
<title>2</title>
<ellipse fill="none" stroke="black" cx="122" cy="-18" rx="50.09" ry="18"/>
<text text-anchor="middle" x="122" y="-14.3" font-family="Times,serif" font-size="14.00">ministro</text>
</g>
<!-- 0&#45;&gt;2 -->
<g id="edge2" class="edge">
<title>0&#45;&gt;2</title>
<path fill="none" stroke="black" d="M1194.41,-104.25C1018.52,-104.77 443.21,-103.72 262,-69 226.74,-62.24 188.47,-48.07 160.86,-36.53"/>
<polygon fill="black" stroke="black" points="162.14,-33.27 151.56,-32.58 159.4,-39.71 162.14,-33.27"/>
<text text-anchor="middle" x="275.5" y="-57.8" font-family="Times,serif" font-size="14.00">dep</text>
</g>
<!-- 3 -->
<g id="node4" class="node">
<title>3</title>
<ellipse fill="none" stroke="black" cx="217" cy="-18" rx="27" ry="18"/>
<text text-anchor="middle" x="217" y="-14.3" font-family="Times,serif" font-size="14.00">de</text>
</g>
<!-- 0&#45;&gt;3 -->
<g id="edge3" class="edge">
<title>0&#45;&gt;3</title>
<path fill="none" stroke="black" d="M1194.59,-104.14C1028.39,-104.25 506.91,-101.89 342,-69 308,-62.22 271.44,-46.51 246.7,-34.5"/>
<polygon fill="black" stroke="black" points="248.02,-31.25 237.51,-29.94 244.91,-37.52 248.02,-31.25"/>
<text text-anchor="middle" x="355.5" y="-57.8" font-family="Times,serif" font-size="14.00">dep</text>
</g>
<!-- 4 -->
<g id="node5" class="node">
<title>4</title>
<ellipse fill="none" stroke="black" cx="289" cy="-18" rx="27" ry="18"/>
<text text-anchor="middle" x="289" y="-14.3" font-family="Times,serif" font-size="14.00">as</text>
</g>
<!-- 0&#45;&gt;4 -->
<g id="edge4" class="edge">
<title>0&#45;&gt;4</title>
<path fill="none" stroke="black" d="M1194.74,-103.49C1040.2,-101.68 580.43,-94.27 433,-69 383.53,-60.52 371.81,-54.1 325,-36 323.16,-35.29 321.29,-34.53 319.41,-33.73"/>
<polygon fill="black" stroke="black" points="320.66,-30.46 310.1,-29.59 317.81,-36.85 320.66,-30.46"/>
<text text-anchor="middle" x="446.5" y="-57.8" font-family="Times,serif" font-size="14.00">dep</text>
</g>
<!-- 5 -->
<g id="node6" class="node">
<title>5</title>
<ellipse fill="none" stroke="black" cx="373" cy="-18" rx="38.99" ry="18"/>
<text text-anchor="middle" x="373" y="-14.3" font-family="Times,serif" font-size="14.00">Minas</text>
</g>
<!-- 0&#45;&gt;5 -->
<g id="edge5" class="edge">
<title>0&#45;&gt;5</title>
<path fill="none" stroke="black" d="M1194.64,-103.44C1050.84,-101.59 646.26,-94.2 516,-69 478.7,-61.78 437.96,-46.79 409.54,-35.09"/>
<polygon fill="black" stroke="black" points="410.6,-31.74 400.02,-31.11 407.9,-38.2 410.6,-31.74"/>
<text text-anchor="middle" x="529.5" y="-57.8" font-family="Times,serif" font-size="14.00">dep</text>
</g>
<!-- 6 -->
<g id="node7" class="node">
<title>6</title>
<ellipse fill="none" stroke="black" cx="457" cy="-18" rx="27" ry="18"/>
<text text-anchor="middle" x="457" y="-14.3" font-family="Times,serif" font-size="14.00">e</text>
</g>
<!-- 0&#45;&gt;6 -->
<g id="edge6" class="edge">
<title>0&#45;&gt;6</title>
<path fill="none" stroke="black" d="M1194.34,-104.64C1086.52,-105.21 829.94,-102.53 618,-69 561.25,-60.02 546.98,-55.68 493,-36 491.15,-35.33 489.26,-34.59 487.38,-33.82"/>
<polygon fill="black" stroke="black" points="488.61,-30.54 478.05,-29.73 485.8,-36.95 488.61,-30.54"/>
<text text-anchor="middle" x="631.5" y="-57.8" font-family="Times,serif" font-size="14.00">dep</text>
</g>
<!-- 7 -->
<g id="node8" class="node">
<title>7</title>
<ellipse fill="none" stroke="black" cx="549" cy="-18" rx="47.39" ry="18"/>
<text text-anchor="middle" x="549" y="-14.3" font-family="Times,serif" font-size="14.00">Energia</text>
</g>
<!-- 0&#45;&gt;7 -->
<g id="edge7" class="edge">
<title>0&#45;&gt;7</title>
<path fill="none" stroke="black" d="M1194.48,-104.81C1097.81,-105.4 883.02,-102.41 706,-69 665.8,-61.41 621.51,-46.7 590.25,-35.19"/>
<polygon fill="black" stroke="black" points="591.18,-31.8 580.59,-31.57 588.73,-38.35 591.18,-31.8"/>
<text text-anchor="middle" x="719.5" y="-57.8" font-family="Times,serif" font-size="14.00">dep</text>
</g>
<!-- 8 -->
<g id="node9" class="node">
<title>8</title>
<ellipse fill="none" stroke="black" cx="641" cy="-18" rx="27" ry="18"/>
<text text-anchor="middle" x="641" y="-14.3" font-family="Times,serif" font-size="14.00">,</text>
</g>
<!-- 0&#45;&gt;8 -->
<g id="edge8" class="edge">
<title>0&#45;&gt;8</title>
<path fill="none" stroke="black" d="M1195.19,-102.32C1114.58,-99.11 952.63,-90.39 817,-69 753.85,-59.04 737.35,-57.1 677,-36 675.09,-35.33 673.15,-34.6 671.21,-33.81"/>
<polygon fill="black" stroke="black" points="672.2,-30.43 661.63,-29.65 669.4,-36.85 672.2,-30.43"/>
<text text-anchor="middle" x="830.5" y="-57.8" font-family="Times,serif" font-size="14.00">dep</text>
</g>
<!-- 9 -->
<g id="node10" class="node">
<title>9</title>
<ellipse fill="none" stroke="black" cx="724" cy="-18" rx="38.19" ry="18"/>
<text text-anchor="middle" x="724" y="-14.3" font-family="Times,serif" font-size="14.00">Alexis</text>
</g>
<!-- 0&#45;&gt;9 -->
<g id="edge9" class="edge">
<title>0&#45;&gt;9</title>
<path fill="none" stroke="black" d="M1195.47,-101.35C1107.62,-95.74 921.7,-79.4 771,-36 768.09,-35.16 765.1,-34.24 762.11,-33.26"/>
<polygon fill="black" stroke="black" points="763.23,-29.95 752.63,-30.04 760.97,-36.58 763.23,-29.95"/>
<text text-anchor="middle" x="926.5" y="-57.8" font-family="Times,serif" font-size="14.00">dep</text>
</g>
<!-- 10 -->
<g id="node11" class="node">
<title>10</title>
<ellipse fill="none" stroke="black" cx="846" cy="-18" rx="65.79" ry="18"/>
<text text-anchor="middle" x="846" y="-14.3" font-family="Times,serif" font-size="14.00">Stepanenko</text>
</g>
<!-- 0&#45;&gt;10 -->
<g id="edge10" class="edge">
<title>0&#45;&gt;10</title>
<path fill="none" stroke="black" d="M1197.28,-99.05C1148.89,-93.62 1072.76,-83.67 1008,-69 969.11,-60.19 926.01,-46.7 894.04,-35.95"/>
<polygon fill="black" stroke="black" points="895.1,-32.61 884.5,-32.71 892.85,-39.24 895.1,-32.61"/>
<text text-anchor="middle" x="1021.5" y="-57.8" font-family="Times,serif" font-size="14.00">dep</text>
</g>
<!-- 11 -->
<g id="node12" class="node">
<title>11</title>
<ellipse fill="none" stroke="black" cx="957" cy="-18" rx="27" ry="18"/>
<text text-anchor="middle" x="957" y="-14.3" font-family="Times,serif" font-size="14.00">,</text>
</g>
<!-- 0&#45;&gt;11 -->
<g id="edge11" class="edge">
<title>0&#45;&gt;11</title>
<path fill="none" stroke="black" d="M1201.48,-95.82C1169.17,-89.51 1124.55,-80.01 1086,-69 1043.83,-56.96 1033.55,-52.72 993,-36 991.18,-35.25 989.32,-34.45 987.45,-33.64"/>
<polygon fill="black" stroke="black" points="988.72,-30.37 978.16,-29.42 985.82,-36.74 988.72,-30.37"/>
<text text-anchor="middle" x="1099.5" y="-57.8" font-family="Times,serif" font-size="14.00">dep</text>
</g>
<!-- 12 -->
<g id="node13" class="node">
<title>12</title>
<ellipse fill="none" stroke="black" cx="1033" cy="-18" rx="31.4" ry="18"/>
<text text-anchor="middle" x="1033" y="-14.3" font-family="Times,serif" font-size="14.00">essa</text>
</g>
<!-- 0&#45;&gt;12 -->
<g id="edge12" class="edge">
<title>0&#45;&gt;12</title>
<path fill="none" stroke="black" d="M1211.89,-91.45C1194.26,-84.9 1172.42,-76.66 1153,-69 1117.22,-54.89 1108.48,-50.86 1073,-36 1070.96,-35.15 1068.87,-34.27 1066.76,-33.38"/>
<polygon fill="black" stroke="black" points="1068.09,-30.14 1057.52,-29.47 1065.37,-36.59 1068.09,-30.14"/>
<text text-anchor="middle" x="1166.5" y="-57.8" font-family="Times,serif" font-size="14.00">dep</text>
</g>
<!-- 13 -->
<g id="node14" class="node">
<title>13</title>
<ellipse fill="none" stroke="black" cx="1134" cy="-18" rx="51.99" ry="18"/>
<text text-anchor="middle" x="1134" y="-14.3" font-family="Times,serif" font-size="14.00">melhoria</text>
</g>
<!-- 0&#45;&gt;13 -->
<g id="edge13" class="edge">
<title>0&#45;&gt;13</title>
<path fill="none" stroke="black" d="M1225.46,-88.41C1207.89,-75.07 1182.4,-55.73 1162.79,-40.85"/>
<polygon fill="black" stroke="black" points="1164.87,-38.04 1154.79,-34.78 1160.64,-43.61 1164.87,-38.04"/>
<text text-anchor="middle" x="1210.5" y="-57.8" font-family="Times,serif" font-size="14.00">dep</text>
</g>
<!-- 14 -->
<g id="node15" class="node">
<title>14</title>
<ellipse fill="none" stroke="black" cx="1246" cy="-18" rx="42.49" ry="18"/>
<text text-anchor="middle" x="1246" y="-14.3" font-family="Times,serif" font-size="14.00">deverá</text>
</g>
<!-- 0&#45;&gt;14 -->
<g id="edge14" class="edge">
<title>0&#45;&gt;14</title>
<path fill="none" stroke="black" d="M1246,-86.8C1246,-75.16 1246,-59.55 1246,-46.24"/>
<polygon fill="black" stroke="black" points="1249.5,-46.18 1246,-36.18 1242.5,-46.18 1249.5,-46.18"/>
<text text-anchor="middle" x="1259.5" y="-57.8" font-family="Times,serif" font-size="14.00">dep</text>
</g>
<!-- 15 -->
<g id="node16" class="node">
<title>15</title>
<ellipse fill="none" stroke="black" cx="1333" cy="-18" rx="27" ry="18"/>
<text text-anchor="middle" x="1333" y="-14.3" font-family="Times,serif" font-size="14.00">ser</text>
</g>
<!-- 0&#45;&gt;15 -->
<g id="edge15" class="edge">
<title>0&#45;&gt;15</title>
<path fill="none" stroke="black" d="M1262.77,-87.61C1276.48,-74.22 1295.97,-55.18 1310.94,-40.55"/>
<polygon fill="black" stroke="black" points="1313.6,-42.85 1318.3,-33.36 1308.7,-37.84 1313.6,-42.85"/>
<text text-anchor="middle" x="1308.5" y="-57.8" font-family="Times,serif" font-size="14.00">dep</text>
</g>
<!-- 16 -->
<g id="node17" class="node">
<title>16</title>
<ellipse fill="none" stroke="black" cx="1427" cy="-18" rx="48.99" ry="18"/>
<text text-anchor="middle" x="1427" y="-14.3" font-family="Times,serif" font-size="14.00">buscada</text>
</g>
<!-- 0&#45;&gt;16 -->
<g id="edge16" class="edge">
<title>0&#45;&gt;16</title>
<path fill="none" stroke="black" d="M1277.31,-90.71C1292.14,-84.31 1310.06,-76.43 1326,-69 1347.64,-58.92 1371.6,-47.08 1390.75,-37.46"/>
<polygon fill="black" stroke="black" points="1392.38,-40.56 1399.73,-32.93 1389.23,-34.31 1392.38,-40.56"/>
<text text-anchor="middle" x="1370.5" y="-57.8" font-family="Times,serif" font-size="14.00">dep</text>
</g>
<!-- 17 -->
<g id="node18" class="node">
<title>17</title>
<ellipse fill="none" stroke="black" cx="1539" cy="-18" rx="45.49" ry="18"/>
<text text-anchor="middle" x="1539" y="-14.3" font-family="Times,serif" font-size="14.00">através</text>
</g>
<!-- 0&#45;&gt;17 -->
<g id="edge17" class="edge">
<title>0&#45;&gt;17</title>
<path fill="none" stroke="black" d="M1288.17,-94.52C1316.54,-87.91 1354.7,-78.6 1388,-69 1424.95,-58.35 1466.38,-44.49 1496.49,-34.06"/>
<polygon fill="black" stroke="black" points="1497.95,-37.26 1506.24,-30.67 1495.64,-30.65 1497.95,-37.26"/>
<text text-anchor="middle" x="1447.5" y="-57.8" font-family="Times,serif" font-size="14.00">dep</text>
</g>
<!-- 18 -->
<g id="node19" class="node">
<title>18</title>
<ellipse fill="none" stroke="black" cx="1629" cy="-18" rx="27" ry="18"/>
<text text-anchor="middle" x="1629" y="-14.3" font-family="Times,serif" font-size="14.00">de</text>
</g>
<!-- 0&#45;&gt;18 -->
<g id="edge18" class="edge">
<title>0&#45;&gt;18</title>
<path fill="none" stroke="black" d="M1294.68,-99.22C1362.97,-91.45 1490.38,-73.08 1593,-36 1594.85,-35.33 1596.74,-34.6 1598.63,-33.83"/>
<polygon fill="black" stroke="black" points="1600.2,-36.96 1607.96,-29.75 1597.4,-30.55 1600.2,-36.96"/>
<text text-anchor="middle" x="1542.5" y="-57.8" font-family="Times,serif" font-size="14.00">dep</text>
</g>
<!-- 19 -->
<g id="node20" class="node">
<title>19</title>
<ellipse fill="none" stroke="black" cx="1701" cy="-18" rx="27" ry="18"/>
<text text-anchor="middle" x="1701" y="-14.3" font-family="Times,serif" font-size="14.00">a</text>
</g>
<!-- 0&#45;&gt;19 -->
<g id="edge19" class="edge">
<title>0&#45;&gt;19</title>
<path fill="none" stroke="black" d="M1296.51,-101.39C1358.95,-97.46 1468.22,-88.35 1560,-69 1607.87,-58.91 1619.44,-53.82 1665,-36 1666.83,-35.28 1668.71,-34.51 1670.59,-33.71"/>
<polygon fill="black" stroke="black" points="1672.19,-36.83 1679.89,-29.56 1669.33,-30.44 1672.19,-36.83"/>
<text text-anchor="middle" x="1630.5" y="-57.8" font-family="Times,serif" font-size="14.00">dep</text>
</g>
<!-- 20 -->
<g id="node21" class="node">
<title>20</title>
<ellipse fill="none" stroke="black" cx="1794" cy="-18" rx="48.19" ry="18"/>
<text text-anchor="middle" x="1794" y="-14.3" font-family="Times,serif" font-size="14.00">redução</text>
</g>
<!-- 0&#45;&gt;20 -->
<g id="edge20" class="edge">
<title>0&#45;&gt;20</title>
<path fill="none" stroke="black" d="M1297.35,-103.5C1374.35,-101.87 1523.94,-95.23 1648,-69 1684.74,-61.23 1725.01,-46.98 1753.94,-35.68"/>
<polygon fill="black" stroke="black" points="1755.28,-38.91 1763.29,-31.97 1752.7,-32.4 1755.28,-38.91"/>
<text text-anchor="middle" x="1715.5" y="-57.8" font-family="Times,serif" font-size="14.00">dep</text>
</g>
<!-- 21 -->
<g id="node22" class="node">
<title>21</title>
<ellipse fill="none" stroke="black" cx="1887" cy="-18" rx="27" ry="18"/>
<text text-anchor="middle" x="1887" y="-14.3" font-family="Times,serif" font-size="14.00">de</text>
</g>
<!-- 0&#45;&gt;21 -->
<g id="edge21" class="edge">
<title>0&#45;&gt;21</title>
<path fill="none" stroke="black" d="M1297.24,-103.69C1386.45,-102.4 1575.79,-96.35 1733,-69 1786.65,-59.67 1799.98,-55.03 1851,-36 1852.85,-35.31 1854.73,-34.57 1856.61,-33.78"/>
<polygon fill="black" stroke="black" points="1858.2,-36.91 1865.93,-29.67 1855.37,-30.51 1858.2,-36.91"/>
<text text-anchor="middle" x="1812.5" y="-57.8" font-family="Times,serif" font-size="14.00">dep</text>
</g>
<!-- 22 -->
<g id="node23" class="node">
<title>22</title>
<ellipse fill="none" stroke="black" cx="1972" cy="-18" rx="40.09" ry="18"/>
<text text-anchor="middle" x="1972" y="-14.3" font-family="Times,serif" font-size="14.00">custos</text>
</g>
<!-- 0&#45;&gt;22 -->
<g id="edge22" class="edge">
<title>0&#45;&gt;22</title>
<path fill="none" stroke="black" d="M1297.28,-102.76C1420.18,-99.48 1728.82,-89.43 1830,-69 1866.78,-61.57 1906.97,-46.75 1935.18,-35.16"/>
<polygon fill="black" stroke="black" points="1936.75,-38.3 1944.63,-31.22 1934.05,-31.84 1936.75,-38.3"/>
<text text-anchor="middle" x="1895.5" y="-57.8" font-family="Times,serif" font-size="14.00">dep</text>
</g>
<!-- 23 -->
<g id="node24" class="node">
<title>23</title>
<ellipse fill="none" stroke="black" cx="2057" cy="-18" rx="27" ry="18"/>
<text text-anchor="middle" x="2057" y="-14.3" font-family="Times,serif" font-size="14.00">e</text>
</g>
<!-- 0&#45;&gt;23 -->
<g id="edge23" class="edge">
<title>0&#45;&gt;23</title>
<path fill="none" stroke="black" d="M1297.45,-102.92C1432.53,-99.84 1794.95,-89.81 1913,-69 1962.43,-60.29 1974.19,-54.1 2021,-36 2022.84,-35.29 2024.71,-34.53 2026.59,-33.73"/>
<polygon fill="black" stroke="black" points="2028.19,-36.85 2035.9,-29.59 2025.34,-30.46 2028.19,-36.85"/>
<text text-anchor="middle" x="1987.5" y="-57.8" font-family="Times,serif" font-size="14.00">dep</text>
</g>
<!-- 24 -->
<g id="node25" class="node">
<title>24</title>
<ellipse fill="none" stroke="black" cx="2153" cy="-18" rx="51.19" ry="18"/>
<text text-anchor="middle" x="2153" y="-14.3" font-family="Times,serif" font-size="14.00">aumento</text>
</g>
<!-- 0&#45;&gt;24 -->
<g id="edge24" class="edge">
<title>0&#45;&gt;24</title>
<path fill="none" stroke="black" d="M1297.26,-103.5C1444.84,-101.76 1868.8,-94.62 2005,-69 2042.36,-61.97 2083.17,-47.65 2112.46,-36.13"/>
<polygon fill="black" stroke="black" points="2113.94,-39.31 2121.93,-32.35 2111.34,-32.81 2113.94,-39.31"/>
<text text-anchor="middle" x="2072.5" y="-57.8" font-family="Times,serif" font-size="14.00">dep</text>
</g>
<!-- 25 -->
<g id="node26" class="node">
<title>25</title>
<ellipse fill="none" stroke="black" cx="2249" cy="-18" rx="27" ry="18"/>
<text text-anchor="middle" x="2249" y="-14.3" font-family="Times,serif" font-size="14.00">de</text>
</g>
<!-- 0&#45;&gt;25 -->
<g id="edge25" class="edge">
<title>0&#45;&gt;25</title>
<path fill="none" stroke="black" d="M1297.2,-103.36C1455.55,-101.13 1935.88,-92.57 2090,-69 2145.95,-60.44 2159.86,-55.5 2213,-36 2214.85,-35.32 2216.73,-34.58 2218.62,-33.81"/>
<polygon fill="black" stroke="black" points="2220.2,-36.94 2227.95,-29.71 2217.39,-30.53 2220.2,-36.94"/>
<text text-anchor="middle" x="2174.5" y="-57.8" font-family="Times,serif" font-size="14.00">dep</text>
</g>
<!-- 26 -->
<g id="node27" class="node">
<title>26</title>
<ellipse fill="none" stroke="black" cx="2348" cy="-18" rx="53.89" ry="18"/>
<text text-anchor="middle" x="2348" y="-14.3" font-family="Times,serif" font-size="14.00">eficiência</text>
</g>
<!-- 0&#45;&gt;26 -->
<g id="edge26" class="edge">
<title>0&#45;&gt;26</title>
<path fill="none" stroke="black" d="M1297.33,-103.94C1468.37,-103.46 2017.88,-99.53 2192,-69 2231.43,-62.09 2274.67,-47.66 2305.6,-36.07"/>
<polygon fill="black" stroke="black" points="2307.09,-39.25 2315.19,-32.42 2304.6,-32.71 2307.09,-39.25"/>
<text text-anchor="middle" x="2262.5" y="-57.8" font-family="Times,serif" font-size="14.00">dep</text>
</g>
<!-- 27 -->
<g id="node28" class="node">
<title>27</title>
<ellipse fill="none" stroke="black" cx="2447" cy="-18" rx="27" ry="18"/>
<text text-anchor="middle" x="2447" y="-14.3" font-family="Times,serif" font-size="14.00">.</text>
</g>
<!-- 0&#45;&gt;27 -->
<g id="edge27" class="edge">
<title>0&#45;&gt;27</title>
<path fill="none" stroke="black" d="M1297.25,-103.71C1478.25,-102.45 2087.03,-96.25 2280,-69 2339.45,-60.6 2354.48,-56.25 2411,-36 2412.85,-35.34 2414.74,-34.61 2416.63,-33.84"/>
<polygon fill="black" stroke="black" points="2418.2,-36.97 2425.97,-29.77 2415.4,-30.56 2418.2,-36.97"/>
<text text-anchor="middle" x="2369.5" y="-57.8" font-family="Times,serif" font-size="14.00">dep</text>
</g>
</g>
</svg>
