<?xml version="1.0" encoding="UTF-8" standalone="no"?>
<!DOCTYPE svg PUBLIC "-//W3C//DTD SVG 1.1//EN"
 "http://www.w3.org/Graphics/SVG/1.1/DTD/svg11.dtd">
<!-- Generated by graphviz version 2.42.4 (0)
 -->
<!-- Pages: 1 -->
<svg width="2960pt" height="131pt"
 viewBox="0.00 0.00 2959.55 131.00" xmlns="http://www.w3.org/2000/svg" xmlns:xlink="http://www.w3.org/1999/xlink">
<g id="graph0" class="graph" transform="scale(1 1) rotate(0) translate(4 127)">
<polygon fill="white" stroke="transparent" points="-4,4 -4,-127 2955.55,-127 2955.55,4 -4,4"/>
<!-- 0 -->
<g id="node1" class="node">
<title>0</title>
<ellipse fill="none" stroke="black" cx="1376.55" cy="-105" rx="27" ry="18"/>
<text text-anchor="middle" x="1376.55" y="-101.3" font-family="Times,serif" font-size="14.00">Só</text>
</g>
<!-- 1 -->
<g id="node2" class="node">
<title>1</title>
<ellipse fill="none" stroke="black" cx="30.55" cy="-18" rx="30.59" ry="18"/>
<text text-anchor="middle" x="30.55" y="-14.3" font-family="Times,serif" font-size="14.00">este</text>
</g>
<!-- 0&#45;&gt;1 -->
<g id="edge1" class="edge">
<title>0&#45;&gt;1</title>
<path fill="none" stroke="black" d="M1349.4,-103.82C1179.93,-102.62 270.38,-95.02 149.55,-69 118.16,-62.24 84.64,-47.39 61.2,-35.62"/>
<polygon fill="black" stroke="black" points="62.61,-32.41 52.11,-30.96 59.41,-38.64 62.61,-32.41"/>
<text text-anchor="middle" x="163.05" y="-57.8" font-family="Times,serif" font-size="14.00">dep</text>
</g>
<!-- 2 -->
<g id="node3" class="node">
<title>2</title>
<ellipse fill="none" stroke="black" cx="106.55" cy="-18" rx="27.1" ry="18"/>
<text text-anchor="middle" x="106.55" y="-14.3" font-family="Times,serif" font-size="14.00">ano</text>
</g>
<!-- 0&#45;&gt;2 -->
<g id="edge2" class="edge">
<title>0&#45;&gt;2</title>
<path fill="none" stroke="black" d="M1349.6,-103.72C1187.15,-101.95 341.56,-91.73 228.55,-69 195.46,-62.35 160.02,-46.77 135.91,-34.76"/>
<polygon fill="black" stroke="black" points="137.44,-31.61 126.94,-30.2 134.27,-37.85 137.44,-31.61"/>
<text text-anchor="middle" x="242.05" y="-57.8" font-family="Times,serif" font-size="14.00">dep</text>
</g>
<!-- 3 -->
<g id="node4" class="node">
<title>3</title>
<ellipse fill="none" stroke="black" cx="178.55" cy="-18" rx="27" ry="18"/>
<text text-anchor="middle" x="178.55" y="-14.3" font-family="Times,serif" font-size="14.00">,</text>
</g>
<!-- 0&#45;&gt;3 -->
<g id="edge3" class="edge">
<title>0&#45;&gt;3</title>
<path fill="none" stroke="black" d="M1349.52,-104.19C1204.7,-105.03 519.48,-106.92 311.55,-69 274.8,-62.3 235,-46.03 208.61,-33.86"/>
<polygon fill="black" stroke="black" points="210.06,-30.68 199.52,-29.59 207.08,-37.01 210.06,-30.68"/>
<text text-anchor="middle" x="325.05" y="-57.8" font-family="Times,serif" font-size="14.00">dep</text>
</g>
<!-- 4 -->
<g id="node5" class="node">
<title>4</title>
<ellipse fill="none" stroke="black" cx="250.55" cy="-18" rx="27" ry="18"/>
<text text-anchor="middle" x="250.55" y="-14.3" font-family="Times,serif" font-size="14.00">até</text>
</g>
<!-- 0&#45;&gt;4 -->
<g id="edge4" class="edge">
<title>0&#45;&gt;4</title>
<path fill="none" stroke="black" d="M1349.17,-103.78C1212.65,-102.55 604.54,-95.66 417.55,-69 358.11,-60.52 343.07,-56.25 286.55,-36 284.69,-35.34 282.81,-34.61 280.91,-33.84"/>
<polygon fill="black" stroke="black" points="282.14,-30.56 271.58,-29.77 279.34,-36.97 282.14,-30.56"/>
<text text-anchor="middle" x="431.05" y="-57.8" font-family="Times,serif" font-size="14.00">dep</text>
</g>
<!-- 5 -->
<g id="node6" class="node">
<title>5</title>
<ellipse fill="none" stroke="black" cx="351.55" cy="-18" rx="55.79" ry="18"/>
<text text-anchor="middle" x="351.55" y="-14.3" font-family="Times,serif" font-size="14.00">Setembro</text>
</g>
<!-- 0&#45;&gt;5 -->
<g id="edge5" class="edge">
<title>0&#45;&gt;5</title>
<path fill="none" stroke="black" d="M1349.49,-103.92C1221.02,-103.41 671.84,-99.44 503.55,-69 465.44,-62.11 423.76,-47.89 393.7,-36.38"/>
<polygon fill="black" stroke="black" points="394.95,-33.11 384.37,-32.74 392.41,-39.63 394.95,-33.11"/>
<text text-anchor="middle" x="517.05" y="-57.8" font-family="Times,serif" font-size="14.00">dep</text>
</g>
<!-- 6 -->
<g id="node7" class="node">
<title>6</title>
<ellipse fill="none" stroke="black" cx="452.55" cy="-18" rx="27" ry="18"/>
<text text-anchor="middle" x="452.55" y="-14.3" font-family="Times,serif" font-size="14.00">,</text>
</g>
<!-- 0&#45;&gt;6 -->
<g id="edge6" class="edge">
<title>0&#45;&gt;6</title>
<path fill="none" stroke="black" d="M1349.28,-103.82C1228.08,-102.84 737.53,-97.18 586.55,-69 549.59,-62.1 509.48,-45.87 482.87,-33.76"/>
<polygon fill="black" stroke="black" points="484.25,-30.55 473.71,-29.51 481.3,-36.9 484.25,-30.55"/>
<text text-anchor="middle" x="600.05" y="-57.8" font-family="Times,serif" font-size="14.00">dep</text>
</g>
<!-- 7 -->
<g id="node8" class="node">
<title>7</title>
<ellipse fill="none" stroke="black" cx="524.55" cy="-18" rx="27" ry="18"/>
<text text-anchor="middle" x="524.55" y="-14.3" font-family="Times,serif" font-size="14.00">a</text>
</g>
<!-- 0&#45;&gt;7 -->
<g id="edge7" class="edge">
<title>0&#45;&gt;7</title>
<path fill="none" stroke="black" d="M1349.36,-104.47C1256.9,-105.68 946.35,-106.49 693.55,-69 633.3,-60.07 617.92,-56.44 560.55,-36 558.64,-35.32 556.7,-34.58 554.76,-33.79"/>
<polygon fill="black" stroke="black" points="555.76,-30.4 545.19,-29.6 552.95,-36.82 555.76,-30.4"/>
<text text-anchor="middle" x="707.05" y="-57.8" font-family="Times,serif" font-size="14.00">dep</text>
</g>
<!-- 8 -->
<g id="node9" class="node">
<title>8</title>
<ellipse fill="none" stroke="black" cx="610.55" cy="-18" rx="40.89" ry="18"/>
<text text-anchor="middle" x="610.55" y="-14.3" font-family="Times,serif" font-size="14.00">polícia</text>
</g>
<!-- 0&#45;&gt;8 -->
<g id="edge8" class="edge">
<title>0&#45;&gt;8</title>
<path fill="none" stroke="black" d="M1349.39,-104.24C1265.41,-104.57 1002.72,-102.66 788.55,-69 740.29,-61.42 686.5,-45.18 650.81,-33.26"/>
<polygon fill="black" stroke="black" points="651.84,-29.91 641.24,-30.02 649.59,-36.54 651.84,-29.91"/>
<text text-anchor="middle" x="802.05" y="-57.8" font-family="Times,serif" font-size="14.00">dep</text>
</g>
<!-- 9 -->
<g id="node10" class="node">
<title>9</title>
<ellipse fill="none" stroke="black" cx="722.55" cy="-18" rx="52.79" ry="18"/>
<text text-anchor="middle" x="722.55" y="-14.3" font-family="Times,serif" font-size="14.00">alfacinha</text>
</g>
<!-- 0&#45;&gt;9 -->
<g id="edge9" class="edge">
<title>0&#45;&gt;9</title>
<path fill="none" stroke="black" d="M1349.3,-104.46C1273.34,-105.23 1053.08,-104.02 874.55,-69 836.3,-61.5 794.31,-47.2 764.18,-35.81"/>
<polygon fill="black" stroke="black" points="765.42,-32.53 754.83,-32.22 762.92,-39.07 765.42,-32.53"/>
<text text-anchor="middle" x="888.05" y="-57.8" font-family="Times,serif" font-size="14.00">dep</text>
</g>
<!-- 10 -->
<g id="node11" class="node">
<title>10</title>
<ellipse fill="none" stroke="black" cx="820.55" cy="-18" rx="27" ry="18"/>
<text text-anchor="middle" x="820.55" y="-14.3" font-family="Times,serif" font-size="14.00">já</text>
</g>
<!-- 0&#45;&gt;10 -->
<g id="edge10" class="edge">
<title>0&#45;&gt;10</title>
<path fill="none" stroke="black" d="M1349.14,-103.73C1282.37,-102.64 1106.25,-97.1 962.55,-69 914.12,-59.53 902.52,-53.91 856.55,-36 854.71,-35.28 852.84,-34.52 850.96,-33.72"/>
<polygon fill="black" stroke="black" points="852.21,-30.45 841.65,-29.57 849.36,-36.84 852.21,-30.45"/>
<text text-anchor="middle" x="976.05" y="-57.8" font-family="Times,serif" font-size="14.00">dep</text>
</g>
<!-- 11 -->
<g id="node12" class="node">
<title>11</title>
<ellipse fill="none" stroke="black" cx="908.55" cy="-18" rx="42.79" ry="18"/>
<text text-anchor="middle" x="908.55" y="-14.3" font-family="Times,serif" font-size="14.00">retirou</text>
</g>
<!-- 0&#45;&gt;11 -->
<g id="edge11" class="edge">
<title>0&#45;&gt;11</title>
<path fill="none" stroke="black" d="M1349.23,-103.5C1291.61,-101.93 1153.66,-95.47 1041.55,-69 1008.19,-61.12 971.87,-47.07 945.62,-35.86"/>
<polygon fill="black" stroke="black" points="947,-32.65 936.43,-31.88 944.21,-39.07 947,-32.65"/>
<text text-anchor="middle" x="1055.05" y="-57.8" font-family="Times,serif" font-size="14.00">dep</text>
</g>
<!-- 12 -->
<g id="node13" class="node">
<title>12</title>
<ellipse fill="none" stroke="black" cx="996.55" cy="-18" rx="27" ry="18"/>
<text text-anchor="middle" x="996.55" y="-14.3" font-family="Times,serif" font-size="14.00">de</text>
</g>
<!-- 0&#45;&gt;12 -->
<g id="edge12" class="edge">
<title>0&#45;&gt;12</title>
<path fill="none" stroke="black" d="M1349.56,-102.51C1301.87,-99.4 1199.87,-90.64 1116.55,-69 1084.68,-60.72 1050.16,-45.64 1026.36,-34.2"/>
<polygon fill="black" stroke="black" points="1027.69,-30.95 1017.17,-29.7 1024.61,-37.24 1027.69,-30.95"/>
<text text-anchor="middle" x="1130.05" y="-57.8" font-family="Times,serif" font-size="14.00">dep</text>
</g>
<!-- 13 -->
<g id="node14" class="node">
<title>13</title>
<ellipse fill="none" stroke="black" cx="1068.55" cy="-18" rx="27" ry="18"/>
<text text-anchor="middle" x="1068.55" y="-14.3" font-family="Times,serif" font-size="14.00">a</text>
</g>
<!-- 0&#45;&gt;13 -->
<g id="edge13" class="edge">
<title>0&#45;&gt;13</title>
<path fill="none" stroke="black" d="M1350.33,-100.59C1314,-95.52 1246.5,-84.86 1190.55,-69 1151.16,-57.84 1142.19,-52.09 1104.55,-36 1102.74,-35.23 1100.88,-34.41 1099.02,-33.58"/>
<polygon fill="black" stroke="black" points="1100.3,-30.32 1089.75,-29.33 1097.38,-36.68 1100.3,-30.32"/>
<text text-anchor="middle" x="1204.05" y="-57.8" font-family="Times,serif" font-size="14.00">dep</text>
</g>
<!-- 14 -->
<g id="node15" class="node">
<title>14</title>
<ellipse fill="none" stroke="black" cx="1140.55" cy="-18" rx="27" ry="18"/>
<text text-anchor="middle" x="1140.55" y="-14.3" font-family="Times,serif" font-size="14.00">via</text>
</g>
<!-- 0&#45;&gt;14 -->
<g id="edge14" class="edge">
<title>0&#45;&gt;14</title>
<path fill="none" stroke="black" d="M1352.16,-96.92C1329.18,-90.14 1293.84,-79.43 1263.55,-69 1224.44,-55.54 1214.61,-52.18 1176.55,-36 1174.73,-35.23 1172.88,-34.42 1171.01,-33.59"/>
<polygon fill="black" stroke="black" points="1172.29,-30.33 1161.74,-29.35 1169.38,-36.69 1172.29,-30.33"/>
<text text-anchor="middle" x="1277.05" y="-57.8" font-family="Times,serif" font-size="14.00">dep</text>
</g>
<!-- 15 -->
<g id="node16" class="node">
<title>15</title>
<ellipse fill="none" stroke="black" cx="1229.55" cy="-18" rx="44.39" ry="18"/>
<text text-anchor="middle" x="1229.55" y="-14.3" font-family="Times,serif" font-size="14.00">pública</text>
</g>
<!-- 0&#45;&gt;15 -->
<g id="edge15" class="edge">
<title>0&#45;&gt;15</title>
<path fill="none" stroke="black" d="M1356.72,-92.54C1332.68,-78.63 1291.79,-54.99 1262.87,-38.27"/>
<polygon fill="black" stroke="black" points="1264.35,-35.08 1253.94,-33.1 1260.84,-41.14 1264.35,-35.08"/>
<text text-anchor="middle" x="1326.05" y="-57.8" font-family="Times,serif" font-size="14.00">dep</text>
</g>
<!-- 16 -->
<g id="node17" class="node">
<title>16</title>
<ellipse fill="none" stroke="black" cx="1326.55" cy="-18" rx="34.39" ry="18"/>
<text text-anchor="middle" x="1326.55" y="-14.3" font-family="Times,serif" font-size="14.00">1600</text>
</g>
<!-- 0&#45;&gt;16 -->
<g id="edge16" class="edge">
<title>0&#45;&gt;16</title>
<path fill="none" stroke="black" d="M1367.14,-88.01C1359.9,-75.7 1349.76,-58.46 1341.42,-44.28"/>
<polygon fill="black" stroke="black" points="1344.34,-42.34 1336.25,-35.5 1338.3,-45.89 1344.34,-42.34"/>
<text text-anchor="middle" x="1368.05" y="-57.8" font-family="Times,serif" font-size="14.00">dep</text>
</g>
<!-- 17 -->
<g id="node18" class="node">
<title>17</title>
<ellipse fill="none" stroke="black" cx="1427.55" cy="-18" rx="48.19" ry="18"/>
<text text-anchor="middle" x="1427.55" y="-14.3" font-family="Times,serif" font-size="14.00">veículos</text>
</g>
<!-- 0&#45;&gt;17 -->
<g id="edge17" class="edge">
<title>0&#45;&gt;17</title>
<path fill="none" stroke="black" d="M1386.14,-88.01C1393.48,-75.78 1403.74,-58.68 1412.21,-44.56"/>
<polygon fill="black" stroke="black" points="1415.33,-46.16 1417.47,-35.79 1409.33,-42.56 1415.33,-46.16"/>
<text text-anchor="middle" x="1419.05" y="-57.8" font-family="Times,serif" font-size="14.00">dep</text>
</g>
<!-- 18 -->
<g id="node19" class="node">
<title>18</title>
<ellipse fill="none" stroke="black" cx="1565.55" cy="-18" rx="71.49" ry="18"/>
<text text-anchor="middle" x="1565.55" y="-14.3" font-family="Times,serif" font-size="14.00">abandonados</text>
</g>
<!-- 0&#45;&gt;18 -->
<g id="edge18" class="edge">
<title>0&#45;&gt;18</title>
<path fill="none" stroke="black" d="M1398.23,-94.25C1428.44,-80.66 1483.85,-55.74 1522.6,-38.32"/>
<polygon fill="black" stroke="black" points="1524.38,-41.35 1532.06,-34.06 1521.51,-34.97 1524.38,-41.35"/>
<text text-anchor="middle" x="1496.05" y="-57.8" font-family="Times,serif" font-size="14.00">dep</text>
</g>
<!-- 19 -->
<g id="node20" class="node">
<title>19</title>
<ellipse fill="none" stroke="black" cx="1681.55" cy="-18" rx="27" ry="18"/>
<text text-anchor="middle" x="1681.55" y="-14.3" font-family="Times,serif" font-size="14.00">,</text>
</g>
<!-- 0&#45;&gt;19 -->
<g id="edge19" class="edge">
<title>0&#45;&gt;19</title>
<path fill="none" stroke="black" d="M1402.26,-99.23C1450.71,-89.86 1558.49,-67.23 1645.55,-36 1647.4,-35.33 1649.29,-34.61 1651.18,-33.84"/>
<polygon fill="black" stroke="black" points="1652.75,-36.97 1660.52,-29.76 1649.95,-30.56 1652.75,-36.97"/>
<text text-anchor="middle" x="1602.05" y="-57.8" font-family="Times,serif" font-size="14.00">dep</text>
</g>
<!-- 20 -->
<g id="node21" class="node">
<title>20</title>
<ellipse fill="none" stroke="black" cx="1769.55" cy="-18" rx="42.79" ry="18"/>
<text text-anchor="middle" x="1769.55" y="-14.3" font-family="Times,serif" font-size="14.00">missão</text>
</g>
<!-- 0&#45;&gt;20 -->
<g id="edge20" class="edge">
<title>0&#45;&gt;20</title>
<path fill="none" stroke="black" d="M1403.45,-101.71C1448.58,-97.52 1542.19,-87.31 1619.55,-69 1657.59,-60 1699.72,-45.54 1729.62,-34.48"/>
<polygon fill="black" stroke="black" points="1731.13,-37.65 1739.27,-30.87 1728.68,-31.1 1731.13,-37.65"/>
<text text-anchor="middle" x="1684.05" y="-57.8" font-family="Times,serif" font-size="14.00">dep</text>
</g>
<!-- 21 -->
<g id="node22" class="node">
<title>21</title>
<ellipse fill="none" stroke="black" cx="1857.55" cy="-18" rx="27" ry="18"/>
<text text-anchor="middle" x="1857.55" y="-14.3" font-family="Times,serif" font-size="14.00">«</text>
</g>
<!-- 0&#45;&gt;21 -->
<g id="edge21" class="edge">
<title>0&#45;&gt;21</title>
<path fill="none" stroke="black" d="M1403.73,-102.56C1459.82,-99.25 1592.27,-89.77 1701.55,-69 1755.89,-58.67 1769.68,-55.21 1821.55,-36 1823.39,-35.32 1825.28,-34.57 1827.16,-33.79"/>
<polygon fill="black" stroke="black" points="1828.75,-36.92 1836.49,-29.69 1825.93,-30.51 1828.75,-36.92"/>
<text text-anchor="middle" x="1782.05" y="-57.8" font-family="Times,serif" font-size="14.00">dep</text>
</g>
<!-- 22 -->
<g id="node23" class="node">
<title>22</title>
<ellipse fill="none" stroke="black" cx="1955.55" cy="-18" rx="53.09" ry="18"/>
<text text-anchor="middle" x="1955.55" y="-14.3" font-family="Times,serif" font-size="14.00">essencial</text>
</g>
<!-- 0&#45;&gt;22 -->
<g id="edge22" class="edge">
<title>0&#45;&gt;22</title>
<path fill="none" stroke="black" d="M1403.57,-103.88C1471.04,-103.14 1652.11,-98.33 1799.55,-69 1838.56,-61.24 1881.51,-47.03 1912.45,-35.74"/>
<polygon fill="black" stroke="black" points="1913.89,-38.94 1922.05,-32.19 1911.46,-32.38 1913.89,-38.94"/>
<text text-anchor="middle" x="1870.05" y="-57.8" font-family="Times,serif" font-size="14.00">dep</text>
</g>
<!-- 23 -->
<g id="node24" class="node">
<title>23</title>
<ellipse fill="none" stroke="black" cx="2053.55" cy="-18" rx="27" ry="18"/>
<text text-anchor="middle" x="2053.55" y="-14.3" font-family="Times,serif" font-size="14.00">em</text>
</g>
<!-- 0&#45;&gt;23 -->
<g id="edge23" class="edge">
<title>0&#45;&gt;23</title>
<path fill="none" stroke="black" d="M1403.61,-103.86C1480.11,-103.09 1704.25,-98.3 1887.55,-69 1946.41,-59.59 1961.45,-56.15 2017.55,-36 2019.4,-35.33 2021.29,-34.61 2023.18,-33.84"/>
<polygon fill="black" stroke="black" points="2024.75,-36.97 2032.51,-29.76 2021.95,-30.55 2024.75,-36.97"/>
<text text-anchor="middle" x="1976.05" y="-57.8" font-family="Times,serif" font-size="14.00">dep</text>
</g>
<!-- 24 -->
<g id="node25" class="node">
<title>24</title>
<ellipse fill="none" stroke="black" cx="2129.55" cy="-18" rx="30.59" ry="18"/>
<text text-anchor="middle" x="2129.55" y="-14.3" font-family="Times,serif" font-size="14.00">uma</text>
</g>
<!-- 0&#45;&gt;24 -->
<g id="edge24" class="edge">
<title>0&#45;&gt;24</title>
<path fill="none" stroke="black" d="M1403.55,-103.45C1507,-101.2 1878,-91.69 1993.55,-69 2030.26,-61.79 2070.22,-46.08 2097.26,-34.18"/>
<polygon fill="black" stroke="black" points="2098.92,-37.28 2106.61,-29.99 2096.05,-30.89 2098.92,-37.28"/>
<text text-anchor="middle" x="2061.05" y="-57.8" font-family="Times,serif" font-size="14.00">dep</text>
</g>
<!-- 25 -->
<g id="node26" class="node">
<title>25</title>
<ellipse fill="none" stroke="black" cx="2218.55" cy="-18" rx="40.89" ry="18"/>
<text text-anchor="middle" x="2218.55" y="-14.3" font-family="Times,serif" font-size="14.00">cidade</text>
</g>
<!-- 0&#45;&gt;25 -->
<g id="edge25" class="edge">
<title>0&#45;&gt;25</title>
<path fill="none" stroke="black" d="M1403.76,-103.71C1516.32,-102.33 1945.85,-95.4 2078.55,-69 2114.66,-61.81 2154.01,-47.11 2181.77,-35.49"/>
<polygon fill="black" stroke="black" points="2183.24,-38.67 2191.08,-31.53 2180.5,-32.23 2183.24,-38.67"/>
<text text-anchor="middle" x="2144.05" y="-57.8" font-family="Times,serif" font-size="14.00">dep</text>
</g>
<!-- 26 -->
<g id="node27" class="node">
<title>26</title>
<ellipse fill="none" stroke="black" cx="2307.55" cy="-18" rx="29.8" ry="18"/>
<text text-anchor="middle" x="2307.55" y="-14.3" font-family="Times,serif" font-size="14.00">com</text>
</g>
<!-- 0&#45;&gt;26 -->
<g id="edge26" class="edge">
<title>0&#45;&gt;26</title>
<path fill="none" stroke="black" d="M1403.62,-103.72C1523.99,-102.31 2011.18,-95.1 2161.55,-69 2201.87,-62 2246.04,-45.56 2275.12,-33.43"/>
<polygon fill="black" stroke="black" points="2276.54,-36.63 2284.38,-29.5 2273.81,-30.18 2276.54,-36.63"/>
<text text-anchor="middle" x="2233.05" y="-57.8" font-family="Times,serif" font-size="14.00">dep</text>
</g>
<!-- 27 -->
<g id="node28" class="node">
<title>27</title>
<ellipse fill="none" stroke="black" cx="2393.55" cy="-18" rx="38.19" ry="18"/>
<text text-anchor="middle" x="2393.55" y="-14.3" font-family="Times,serif" font-size="14.00">pouco</text>
</g>
<!-- 0&#45;&gt;27 -->
<g id="edge27" class="edge">
<title>0&#45;&gt;27</title>
<path fill="none" stroke="black" d="M1403.64,-103.97C1532.3,-103.68 2082.27,-100.59 2250.55,-69 2288.01,-61.97 2328.88,-46.88 2357.3,-35.1"/>
<polygon fill="black" stroke="black" points="2358.95,-38.2 2366.8,-31.09 2356.23,-31.75 2358.95,-38.2"/>
<text text-anchor="middle" x="2321.05" y="-57.8" font-family="Times,serif" font-size="14.00">dep</text>
</g>
<!-- 28 -->
<g id="node29" class="node">
<title>28</title>
<ellipse fill="none" stroke="black" cx="2533.55" cy="-18" rx="83.69" ry="18"/>
<text text-anchor="middle" x="2533.55" y="-14.3" font-family="Times,serif" font-size="14.00">estacionamento</text>
</g>
<!-- 0&#45;&gt;28 -->
<g id="edge28" class="edge">
<title>0&#45;&gt;28</title>
<path fill="none" stroke="black" d="M1403.56,-103.8C1539.62,-102.67 2150.82,-96.16 2338.55,-69 2386.81,-62.02 2440.39,-47.79 2479.16,-36.29"/>
<polygon fill="black" stroke="black" points="2480.61,-39.51 2489.18,-33.28 2478.59,-32.81 2480.61,-39.51"/>
<text text-anchor="middle" x="2423.05" y="-57.8" font-family="Times,serif" font-size="14.00">dep</text>
</g>
<!-- 29 -->
<g id="node30" class="node">
<title>29</title>
<ellipse fill="none" stroke="black" cx="2662.55" cy="-18" rx="27" ry="18"/>
<text text-anchor="middle" x="2662.55" y="-14.3" font-family="Times,serif" font-size="14.00">»</text>
</g>
<!-- 0&#45;&gt;29 -->
<g id="edge29" class="edge">
<title>0&#45;&gt;29</title>
<path fill="none" stroke="black" d="M1403.47,-103.64C1547.74,-101.6 2230.53,-90.97 2440.55,-69 2524.05,-60.26 2546.55,-61.48 2626.55,-36 2628.47,-35.39 2630.43,-34.69 2632.38,-33.94"/>
<polygon fill="black" stroke="black" points="2634.16,-36.99 2641.99,-29.85 2631.42,-30.55 2634.16,-36.99"/>
<text text-anchor="middle" x="2574.05" y="-57.8" font-family="Times,serif" font-size="14.00">dep</text>
</g>
<!-- 30 -->
<g id="node31" class="node">
<title>30</title>
<ellipse fill="none" stroke="black" cx="2734.55" cy="-18" rx="27" ry="18"/>
<text text-anchor="middle" x="2734.55" y="-14.3" font-family="Times,serif" font-size="14.00">,</text>
</g>
<!-- 0&#45;&gt;30 -->
<g id="edge30" class="edge">
<title>0&#45;&gt;30</title>
<path fill="none" stroke="black" d="M1403.68,-104.21C1560.46,-105.29 2351.86,-108.66 2591.55,-69 2640.65,-60.88 2652.15,-54 2698.55,-36 2700.38,-35.29 2702.26,-34.52 2704.14,-33.73"/>
<polygon fill="black" stroke="black" points="2705.74,-36.85 2713.45,-29.58 2702.89,-30.45 2705.74,-36.85"/>
<text text-anchor="middle" x="2665.05" y="-57.8" font-family="Times,serif" font-size="14.00">dep</text>
</g>
<!-- 31 -->
<g id="node32" class="node">
<title>31</title>
<ellipse fill="none" stroke="black" cx="2829.55" cy="-18" rx="50.09" ry="18"/>
<text text-anchor="middle" x="2829.55" y="-14.3" font-family="Times,serif" font-size="14.00">sublinha</text>
</g>
<!-- 0&#45;&gt;31 -->
<g id="edge31" class="edge">
<title>0&#45;&gt;31</title>
<path fill="none" stroke="black" d="M1403.69,-103.76C1579.4,-102.16 2552.64,-92.28 2682.55,-69 2719.86,-62.31 2760.53,-47.89 2789.61,-36.24"/>
<polygon fill="black" stroke="black" points="2791.07,-39.43 2799.01,-32.42 2788.43,-32.95 2791.07,-39.43"/>
<text text-anchor="middle" x="2754.05" y="-57.8" font-family="Times,serif" font-size="14.00">dep</text>
</g>
<!-- 32 -->
<g id="node33" class="node">
<title>32</title>
<ellipse fill="none" stroke="black" cx="2924.55" cy="-18" rx="27" ry="18"/>
<text text-anchor="middle" x="2924.55" y="-14.3" font-family="Times,serif" font-size="14.00">.</text>
</g>
<!-- 0&#45;&gt;32 -->
<g id="edge32" class="edge">
<title>0&#45;&gt;32</title>
<path fill="none" stroke="black" d="M1403.74,-103.73C1586.41,-101.83 2631.71,-90.13 2771.55,-69 2824.97,-60.93 2837.94,-54.93 2888.55,-36 2890.39,-35.31 2892.27,-34.56 2894.16,-33.78"/>
<polygon fill="black" stroke="black" points="2895.74,-36.9 2903.48,-29.66 2892.92,-30.5 2895.74,-36.9"/>
<text text-anchor="middle" x="2853.05" y="-57.8" font-family="Times,serif" font-size="14.00">dep</text>
</g>
</g>
</svg>
