<?xml version="1.0" encoding="UTF-8" standalone="no"?>
<!DOCTYPE svg PUBLIC "-//W3C//DTD SVG 1.1//EN"
 "http://www.w3.org/Graphics/SVG/1.1/DTD/svg11.dtd">
<!-- Generated by graphviz version 2.42.4 (0)
 -->
<!-- Pages: 1 -->
<svg width="2174pt" height="131pt"
 viewBox="0.00 0.00 2174.05 131.00" xmlns="http://www.w3.org/2000/svg" xmlns:xlink="http://www.w3.org/1999/xlink">
<g id="graph0" class="graph" transform="scale(1 1) rotate(0) translate(4 127)">
<polygon fill="white" stroke="transparent" points="-4,4 -4,-127 2170.05,-127 2170.05,4 -4,4"/>
<!-- 0 -->
<g id="node1" class="node">
<title>0</title>
<ellipse fill="none" stroke="black" cx="1127.05" cy="-105" rx="53.89" ry="18"/>
<text text-anchor="middle" x="1127.05" y="-101.3" font-family="Times,serif" font-size="14.00">Seabrook</text>
</g>
<!-- 1 -->
<g id="node2" class="node">
<title>1</title>
<ellipse fill="none" stroke="black" cx="37.05" cy="-18" rx="37.09" ry="18"/>
<text text-anchor="middle" x="37.05" y="-14.3" font-family="Times,serif" font-size="14.00">notou</text>
</g>
<!-- 0&#45;&gt;1 -->
<g id="edge1" class="edge">
<title>0&#45;&gt;1</title>
<path fill="none" stroke="black" d="M1072.98,-104.29C897.56,-104.87 345.53,-103.8 171.05,-69 136.13,-62.04 98.29,-47.19 71.75,-35.47"/>
<polygon fill="black" stroke="black" points="73.07,-32.23 62.51,-31.32 70.2,-38.61 73.07,-32.23"/>
<text text-anchor="middle" x="184.55" y="-57.8" font-family="Times,serif" font-size="14.00">dep</text>
</g>
<!-- 2 -->
<g id="node3" class="node">
<title>2</title>
<ellipse fill="none" stroke="black" cx="120.05" cy="-18" rx="27.9" ry="18"/>
<text text-anchor="middle" x="120.05" y="-14.3" font-family="Times,serif" font-size="14.00">que</text>
</g>
<!-- 0&#45;&gt;2 -->
<g id="edge2" class="edge">
<title>0&#45;&gt;2</title>
<path fill="none" stroke="black" d="M1073.2,-103.84C908.51,-103.03 413.17,-98.18 255.05,-69 218.05,-62.17 177.89,-46.09 151.08,-33.99"/>
<polygon fill="black" stroke="black" points="152.38,-30.74 141.83,-29.74 149.46,-37.1 152.38,-30.74"/>
<text text-anchor="middle" x="268.55" y="-57.8" font-family="Times,serif" font-size="14.00">dep</text>
</g>
<!-- 3 -->
<g id="node4" class="node">
<title>3</title>
<ellipse fill="none" stroke="black" cx="193.05" cy="-18" rx="27" ry="18"/>
<text text-anchor="middle" x="193.05" y="-14.3" font-family="Times,serif" font-size="14.00">as</text>
</g>
<!-- 0&#45;&gt;3 -->
<g id="edge3" class="edge">
<title>0&#45;&gt;3</title>
<path fill="none" stroke="black" d="M1073.42,-102.85C923.78,-99.42 503.72,-88.31 367.05,-69 304.6,-60.18 288.54,-56.91 229.05,-36 227.14,-35.33 225.2,-34.59 223.26,-33.81"/>
<polygon fill="black" stroke="black" points="224.25,-30.42 213.68,-29.63 221.45,-36.84 224.25,-30.42"/>
<text text-anchor="middle" x="380.55" y="-57.8" font-family="Times,serif" font-size="14.00">dep</text>
</g>
<!-- 4 -->
<g id="node5" class="node">
<title>4</title>
<ellipse fill="none" stroke="black" cx="301.05" cy="-18" rx="63.09" ry="18"/>
<text text-anchor="middle" x="301.05" y="-14.3" font-family="Times,serif" font-size="14.00">mensagens</text>
</g>
<!-- 0&#45;&gt;4 -->
<g id="edge4" class="edge">
<title>0&#45;&gt;4</title>
<path fill="none" stroke="black" d="M1073.28,-103.05C935.37,-100.32 571.61,-91.17 453.05,-69 415.76,-62.03 375,-48.27 345.08,-36.94"/>
<polygon fill="black" stroke="black" points="345.96,-33.53 335.37,-33.21 343.45,-40.06 345.96,-33.53"/>
<text text-anchor="middle" x="466.55" y="-57.8" font-family="Times,serif" font-size="14.00">dep</text>
</g>
<!-- 5 -->
<g id="node6" class="node">
<title>5</title>
<ellipse fill="none" stroke="black" cx="409.05" cy="-18" rx="27" ry="18"/>
<text text-anchor="middle" x="409.05" y="-14.3" font-family="Times,serif" font-size="14.00">de</text>
</g>
<!-- 0&#45;&gt;5 -->
<g id="edge5" class="edge">
<title>0&#45;&gt;5</title>
<path fill="none" stroke="black" d="M1073.37,-102.92C947.16,-100.06 634.5,-90.91 532.05,-69 498.81,-61.89 463.06,-46.39 438.72,-34.52"/>
<polygon fill="black" stroke="black" points="440.17,-31.33 429.66,-30.01 437.05,-37.6 440.17,-31.33"/>
<text text-anchor="middle" x="545.55" y="-57.8" font-family="Times,serif" font-size="14.00">dep</text>
</g>
<!-- 6 -->
<g id="node7" class="node">
<title>6</title>
<ellipse fill="none" stroke="black" cx="481.05" cy="-18" rx="27" ry="18"/>
<text text-anchor="middle" x="481.05" y="-14.3" font-family="Times,serif" font-size="14.00">Bill</text>
</g>
<!-- 0&#45;&gt;6 -->
<g id="edge6" class="edge">
<title>0&#45;&gt;6</title>
<path fill="none" stroke="black" d="M1072.75,-104.76C978.76,-105.09 780.05,-101.4 616.05,-69 570.55,-60.01 560.09,-53.27 517.05,-36 515.22,-35.27 513.35,-34.49 511.48,-33.68"/>
<polygon fill="black" stroke="black" points="512.74,-30.41 502.18,-29.49 509.86,-36.79 512.74,-30.41"/>
<text text-anchor="middle" x="629.55" y="-57.8" font-family="Times,serif" font-size="14.00">dep</text>
</g>
<!-- 7 -->
<g id="node8" class="node">
<title>7</title>
<ellipse fill="none" stroke="black" cx="553.05" cy="-18" rx="27.1" ry="18"/>
<text text-anchor="middle" x="553.05" y="-14.3" font-family="Times,serif" font-size="14.00">não</text>
</g>
<!-- 0&#45;&gt;7 -->
<g id="edge7" class="edge">
<title>0&#45;&gt;7</title>
<path fill="none" stroke="black" d="M1073.59,-101.96C996.11,-98.42 848.26,-89.45 724.05,-69 663.1,-58.97 647.27,-56.63 589.05,-36 587.19,-35.34 585.3,-34.62 583.41,-33.86"/>
<polygon fill="black" stroke="black" points="584.63,-30.57 574.07,-29.79 581.84,-36.99 584.63,-30.57"/>
<text text-anchor="middle" x="737.55" y="-57.8" font-family="Times,serif" font-size="14.00">dep</text>
</g>
<!-- 8 -->
<g id="node9" class="node">
<title>8</title>
<ellipse fill="none" stroke="black" cx="642.05" cy="-18" rx="43.59" ry="18"/>
<text text-anchor="middle" x="642.05" y="-14.3" font-family="Times,serif" font-size="14.00">tinham</text>
</g>
<!-- 0&#45;&gt;8 -->
<g id="edge8" class="edge">
<title>0&#45;&gt;8</title>
<path fill="none" stroke="black" d="M1074.5,-100.63C1012.18,-96.05 905.37,-86.37 815.05,-69 760.73,-58.55 748.06,-51.78 695.05,-36 691.7,-35 688.25,-33.95 684.78,-32.88"/>
<polygon fill="black" stroke="black" points="685.65,-29.48 675.06,-29.83 683.55,-36.16 685.65,-29.48"/>
<text text-anchor="middle" x="828.55" y="-57.8" font-family="Times,serif" font-size="14.00">dep</text>
</g>
<!-- 9 -->
<g id="node10" class="node">
<title>9</title>
<ellipse fill="none" stroke="black" cx="756.05" cy="-18" rx="51.99" ry="18"/>
<text text-anchor="middle" x="756.05" y="-14.3" font-family="Times,serif" font-size="14.00">princípio</text>
</g>
<!-- 0&#45;&gt;9 -->
<g id="edge9" class="edge">
<title>0&#45;&gt;9</title>
<path fill="none" stroke="black" d="M1075.34,-99.45C1027.11,-94.47 953.44,-85 891.05,-69 858.49,-60.65 822.88,-47.28 796.41,-36.46"/>
<polygon fill="black" stroke="black" points="797.68,-33.19 787.1,-32.6 795,-39.66 797.68,-33.19"/>
<text text-anchor="middle" x="904.55" y="-57.8" font-family="Times,serif" font-size="14.00">dep</text>
</g>
<!-- 10 -->
<g id="node11" class="node">
<title>10</title>
<ellipse fill="none" stroke="black" cx="853.05" cy="-18" rx="27" ry="18"/>
<text text-anchor="middle" x="853.05" y="-14.3" font-family="Times,serif" font-size="14.00">ou</text>
</g>
<!-- 0&#45;&gt;10 -->
<g id="edge10" class="edge">
<title>0&#45;&gt;10</title>
<path fill="none" stroke="black" d="M1077.91,-97.29C1043.26,-91.75 996.08,-82.57 956.05,-69 930.04,-60.18 902.12,-46.33 881.91,-35.43"/>
<polygon fill="black" stroke="black" points="883.38,-32.25 872.93,-30.51 880.02,-38.39 883.38,-32.25"/>
<text text-anchor="middle" x="969.55" y="-57.8" font-family="Times,serif" font-size="14.00">dep</text>
</g>
<!-- 11 -->
<g id="node12" class="node">
<title>11</title>
<ellipse fill="none" stroke="black" cx="925.05" cy="-18" rx="27" ry="18"/>
<text text-anchor="middle" x="925.05" y="-14.3" font-family="Times,serif" font-size="14.00">fim</text>
</g>
<!-- 0&#45;&gt;11 -->
<g id="edge11" class="edge">
<title>0&#45;&gt;11</title>
<path fill="none" stroke="black" d="M1086.8,-92.99C1065.95,-86.81 1040.27,-78.45 1018.05,-69 995.64,-59.47 971.44,-46.37 953.35,-35.97"/>
<polygon fill="black" stroke="black" points="954.89,-32.81 944.49,-30.81 951.37,-38.86 954.89,-32.81"/>
<text text-anchor="middle" x="1031.55" y="-57.8" font-family="Times,serif" font-size="14.00">dep</text>
</g>
<!-- 12 -->
<g id="node13" class="node">
<title>12</title>
<ellipse fill="none" stroke="black" cx="997.05" cy="-18" rx="27" ry="18"/>
<text text-anchor="middle" x="997.05" y="-14.3" font-family="Times,serif" font-size="14.00">,</text>
</g>
<!-- 0&#45;&gt;12 -->
<g id="edge12" class="edge">
<title>0&#45;&gt;12</title>
<path fill="none" stroke="black" d="M1102.39,-88.85C1092.59,-82.76 1081.24,-75.62 1071.05,-69 1055.26,-58.74 1037.81,-46.97 1023.82,-37.42"/>
<polygon fill="black" stroke="black" points="1025.4,-34.27 1015.17,-31.51 1021.45,-40.05 1025.4,-34.27"/>
<text text-anchor="middle" x="1084.55" y="-57.8" font-family="Times,serif" font-size="14.00">dep</text>
</g>
<!-- 13 -->
<g id="node14" class="node">
<title>13</title>
<ellipse fill="none" stroke="black" cx="1081.05" cy="-18" rx="38.99" ry="18"/>
<text text-anchor="middle" x="1081.05" y="-14.3" font-family="Times,serif" font-size="14.00">coisas</text>
</g>
<!-- 0&#45;&gt;13 -->
<g id="edge13" class="edge">
<title>0&#45;&gt;13</title>
<path fill="none" stroke="black" d="M1117.96,-87.21C1111.41,-75.1 1102.44,-58.53 1094.99,-44.76"/>
<polygon fill="black" stroke="black" points="1097.95,-42.89 1090.12,-35.76 1091.8,-46.22 1097.95,-42.89"/>
<text text-anchor="middle" x="1120.55" y="-57.8" font-family="Times,serif" font-size="14.00">dep</text>
</g>
<!-- 14 -->
<g id="node15" class="node">
<title>14</title>
<ellipse fill="none" stroke="black" cx="1173.05" cy="-18" rx="35.19" ry="18"/>
<text text-anchor="middle" x="1173.05" y="-14.3" font-family="Times,serif" font-size="14.00">como</text>
</g>
<!-- 0&#45;&gt;14 -->
<g id="edge14" class="edge">
<title>0&#45;&gt;14</title>
<path fill="none" stroke="black" d="M1136.13,-87.21C1142.73,-75.02 1151.77,-58.32 1159.25,-44.49"/>
<polygon fill="black" stroke="black" points="1162.45,-45.93 1164.13,-35.47 1156.3,-42.6 1162.45,-45.93"/>
<text text-anchor="middle" x="1166.55" y="-57.8" font-family="Times,serif" font-size="14.00">dep</text>
</g>
<!-- 15 -->
<g id="node16" class="node">
<title>15</title>
<ellipse fill="none" stroke="black" cx="1253.05" cy="-18" rx="27" ry="18"/>
<text text-anchor="middle" x="1253.05" y="-14.3" font-family="Times,serif" font-size="14.00">«</text>
</g>
<!-- 0&#45;&gt;15 -->
<g id="edge15" class="edge">
<title>0&#45;&gt;15</title>
<path fill="none" stroke="black" d="M1152.28,-89.07C1162.28,-83.01 1173.81,-75.84 1184.05,-69 1198.64,-59.25 1214.52,-47.8 1227.37,-38.32"/>
<polygon fill="black" stroke="black" points="1229.78,-40.89 1235.72,-32.12 1225.61,-35.27 1229.78,-40.89"/>
<text text-anchor="middle" x="1219.55" y="-57.8" font-family="Times,serif" font-size="14.00">dep</text>
</g>
<!-- 16 -->
<g id="node17" class="node">
<title>16</title>
<ellipse fill="none" stroke="black" cx="1329.05" cy="-18" rx="30.59" ry="18"/>
<text text-anchor="middle" x="1329.05" y="-14.3" font-family="Times,serif" font-size="14.00">caro</text>
</g>
<!-- 0&#45;&gt;16 -->
<g id="edge16" class="edge">
<title>0&#45;&gt;16</title>
<path fill="none" stroke="black" d="M1167.68,-93.07C1188.73,-86.92 1214.65,-78.55 1237.05,-69 1258.83,-59.71 1282.28,-46.93 1300.04,-36.61"/>
<polygon fill="black" stroke="black" points="1301.93,-39.56 1308.78,-31.47 1298.38,-33.53 1301.93,-39.56"/>
<text text-anchor="middle" x="1282.55" y="-57.8" font-family="Times,serif" font-size="14.00">dep</text>
</g>
<!-- 17 -->
<g id="node18" class="node">
<title>17</title>
<ellipse fill="none" stroke="black" cx="1405.05" cy="-18" rx="27" ry="18"/>
<text text-anchor="middle" x="1405.05" y="-14.3" font-family="Times,serif" font-size="14.00">»</text>
</g>
<!-- 0&#45;&gt;17 -->
<g id="edge17" class="edge">
<title>0&#45;&gt;17</title>
<path fill="none" stroke="black" d="M1175.98,-97.38C1211.08,-91.84 1259.21,-82.63 1300.05,-69 1326.79,-60.08 1355.59,-46.02 1376.25,-35.07"/>
<polygon fill="black" stroke="black" points="1377.99,-38.12 1385.14,-30.3 1374.67,-31.95 1377.99,-38.12"/>
<text text-anchor="middle" x="1349.55" y="-57.8" font-family="Times,serif" font-size="14.00">dep</text>
</g>
<!-- 18 -->
<g id="node19" class="node">
<title>18</title>
<ellipse fill="none" stroke="black" cx="1477.05" cy="-18" rx="27" ry="18"/>
<text text-anchor="middle" x="1477.05" y="-14.3" font-family="Times,serif" font-size="14.00">,</text>
</g>
<!-- 0&#45;&gt;18 -->
<g id="edge18" class="edge">
<title>0&#45;&gt;18</title>
<path fill="none" stroke="black" d="M1179.42,-100.52C1228.64,-96.28 1303.96,-87.29 1367.05,-69 1395.65,-60.71 1426.37,-46.23 1448.05,-34.98"/>
<polygon fill="black" stroke="black" points="1449.84,-38 1457.05,-30.23 1446.57,-31.81 1449.84,-38"/>
<text text-anchor="middle" x="1421.55" y="-57.8" font-family="Times,serif" font-size="14.00">dep</text>
</g>
<!-- 19 -->
<g id="node20" class="node">
<title>19</title>
<ellipse fill="none" stroke="black" cx="1549.05" cy="-18" rx="27" ry="18"/>
<text text-anchor="middle" x="1549.05" y="-14.3" font-family="Times,serif" font-size="14.00">«</text>
</g>
<!-- 0&#45;&gt;19 -->
<g id="edge19" class="edge">
<title>0&#45;&gt;19</title>
<path fill="none" stroke="black" d="M1180.7,-102.97C1243.61,-100.62 1350.56,-93.07 1439.05,-69 1467.79,-61.18 1498.49,-46.65 1520.13,-35.27"/>
<polygon fill="black" stroke="black" points="1521.95,-38.26 1529.11,-30.45 1518.64,-32.09 1521.95,-38.26"/>
<text text-anchor="middle" x="1493.55" y="-57.8" font-family="Times,serif" font-size="14.00">dep</text>
</g>
<!-- 20 -->
<g id="node21" class="node">
<title>20</title>
<ellipse fill="none" stroke="black" cx="1621.05" cy="-18" rx="27" ry="18"/>
<text text-anchor="middle" x="1621.05" y="-14.3" font-family="Times,serif" font-size="14.00">seu</text>
</g>
<!-- 0&#45;&gt;20 -->
<g id="edge20" class="edge">
<title>0&#45;&gt;20</title>
<path fill="none" stroke="black" d="M1181.11,-104.6C1256.32,-104.21 1396.23,-98.95 1511.05,-69 1539.87,-61.48 1570.56,-46.92 1592.18,-35.44"/>
<polygon fill="black" stroke="black" points="1594.02,-38.43 1601.14,-30.58 1590.68,-32.27 1594.02,-38.43"/>
<text text-anchor="middle" x="1565.55" y="-57.8" font-family="Times,serif" font-size="14.00">dep</text>
</g>
<!-- 21 -->
<g id="node22" class="node">
<title>21</title>
<ellipse fill="none" stroke="black" cx="1693.05" cy="-18" rx="27" ry="18"/>
<text text-anchor="middle" x="1693.05" y="-14.3" font-family="Times,serif" font-size="14.00">»</text>
</g>
<!-- 0&#45;&gt;21 -->
<g id="edge21" class="edge">
<title>0&#45;&gt;21</title>
<path fill="none" stroke="black" d="M1180.39,-102.19C1283.86,-98.31 1508.19,-87.96 1583.05,-69 1611.92,-61.69 1642.6,-47.11 1664.21,-35.57"/>
<polygon fill="black" stroke="black" points="1666.07,-38.54 1673.17,-30.68 1662.71,-32.4 1666.07,-38.54"/>
<text text-anchor="middle" x="1637.55" y="-57.8" font-family="Times,serif" font-size="14.00">dep</text>
</g>
<!-- 22 -->
<g id="node23" class="node">
<title>22</title>
<ellipse fill="none" stroke="black" cx="1765.05" cy="-18" rx="27" ry="18"/>
<text text-anchor="middle" x="1765.05" y="-14.3" font-family="Times,serif" font-size="14.00">ou</text>
</g>
<!-- 0&#45;&gt;22 -->
<g id="edge22" class="edge">
<title>0&#45;&gt;22</title>
<path fill="none" stroke="black" d="M1180.72,-102.84C1296.48,-99.94 1566.32,-90.98 1655.05,-69 1684.14,-61.79 1715.01,-47.06 1736.63,-35.44"/>
<polygon fill="black" stroke="black" points="1738.5,-38.41 1745.58,-30.53 1735.13,-32.27 1738.5,-38.41"/>
<text text-anchor="middle" x="1709.55" y="-57.8" font-family="Times,serif" font-size="14.00">dep</text>
</g>
<!-- 23 -->
<g id="node24" class="node">
<title>23</title>
<ellipse fill="none" stroke="black" cx="1837.05" cy="-18" rx="27" ry="18"/>
<text text-anchor="middle" x="1837.05" y="-14.3" font-family="Times,serif" font-size="14.00">«</text>
</g>
<!-- 0&#45;&gt;23 -->
<g id="edge23" class="edge">
<title>0&#45;&gt;23</title>
<path fill="none" stroke="black" d="M1180.79,-103.34C1307.94,-101.37 1624.27,-94.03 1727.05,-69 1756.16,-61.91 1787.04,-47.16 1808.64,-35.51"/>
<polygon fill="black" stroke="black" points="1810.52,-38.47 1817.59,-30.58 1807.14,-32.34 1810.52,-38.47"/>
<text text-anchor="middle" x="1781.55" y="-57.8" font-family="Times,serif" font-size="14.00">dep</text>
</g>
<!-- 24 -->
<g id="node25" class="node">
<title>24</title>
<ellipse fill="none" stroke="black" cx="1952.05" cy="-18" rx="69.59" ry="18"/>
<text text-anchor="middle" x="1952.05" y="-14.3" font-family="Times,serif" font-size="14.00">atentamente</text>
</g>
<!-- 0&#45;&gt;24 -->
<g id="edge24" class="edge">
<title>0&#45;&gt;24</title>
<path fill="none" stroke="black" d="M1180.9,-103.02C1318.58,-100.24 1680.89,-90.98 1799.05,-69 1836.36,-62.06 1877.14,-48.41 1907.21,-37.13"/>
<polygon fill="black" stroke="black" points="1908.48,-40.39 1916.58,-33.56 1905.99,-33.85 1908.48,-40.39"/>
<text text-anchor="middle" x="1868.55" y="-57.8" font-family="Times,serif" font-size="14.00">dep</text>
</g>
<!-- 25 -->
<g id="node26" class="node">
<title>25</title>
<ellipse fill="none" stroke="black" cx="2067.05" cy="-18" rx="27" ry="18"/>
<text text-anchor="middle" x="2067.05" y="-14.3" font-family="Times,serif" font-size="14.00">»</text>
</g>
<!-- 0&#45;&gt;25 -->
<g id="edge25" class="edge">
<title>0&#45;&gt;25</title>
<path fill="none" stroke="black" d="M1180.59,-102.77C1330,-99.14 1749.45,-87.54 1886.05,-69 1951.54,-60.11 1968.57,-57.57 2031.05,-36 2032.96,-35.34 2034.9,-34.61 2036.85,-33.83"/>
<polygon fill="black" stroke="black" points="2038.65,-36.87 2046.43,-29.68 2035.86,-30.44 2038.65,-36.87"/>
<text text-anchor="middle" x="1985.55" y="-57.8" font-family="Times,serif" font-size="14.00">dep</text>
</g>
<!-- 26 -->
<g id="node27" class="node">
<title>26</title>
<ellipse fill="none" stroke="black" cx="2139.05" cy="-18" rx="27" ry="18"/>
<text text-anchor="middle" x="2139.05" y="-14.3" font-family="Times,serif" font-size="14.00">.</text>
</g>
<!-- 0&#45;&gt;26 -->
<g id="edge26" class="edge">
<title>0&#45;&gt;26</title>
<path fill="none" stroke="black" d="M1181.13,-103.81C1346.55,-102.91 1844.11,-97.81 2003.05,-69 2040.74,-62.17 2081.72,-45.77 2108.73,-33.6"/>
<polygon fill="black" stroke="black" points="2110.39,-36.69 2118.02,-29.34 2107.47,-30.33 2110.39,-36.69"/>
<text text-anchor="middle" x="2070.55" y="-57.8" font-family="Times,serif" font-size="14.00">dep</text>
</g>
</g>
</svg>
