<?xml version="1.0" encoding="UTF-8" standalone="no"?>
<!DOCTYPE svg PUBLIC "-//W3C//DTD SVG 1.1//EN"
 "http://www.w3.org/Graphics/SVG/1.1/DTD/svg11.dtd">
<!-- Generated by graphviz version 2.42.4 (0)
 -->
<!-- Pages: 1 -->
<svg width="3719pt" height="131pt"
 viewBox="0.00 0.00 3718.55 131.00" xmlns="http://www.w3.org/2000/svg" xmlns:xlink="http://www.w3.org/1999/xlink">
<g id="graph0" class="graph" transform="scale(1 1) rotate(0) translate(4 127)">
<polygon fill="white" stroke="transparent" points="-4,4 -4,-127 3714.55,-127 3714.55,4 -4,4"/>
<!-- 0 -->
<g id="node1" class="node">
<title>0</title>
<ellipse fill="none" stroke="black" cx="1898.55" cy="-105" rx="27" ry="18"/>
<text text-anchor="middle" x="1898.55" y="-101.3" font-family="Times,serif" font-size="14.00">Em</text>
</g>
<!-- 1 -->
<g id="node2" class="node">
<title>1</title>
<ellipse fill="none" stroke="black" cx="30.55" cy="-18" rx="30.59" ry="18"/>
<text text-anchor="middle" x="30.55" y="-14.3" font-family="Times,serif" font-size="14.00">uma</text>
</g>
<!-- 0&#45;&gt;1 -->
<g id="edge1" class="edge">
<title>0&#45;&gt;1</title>
<path fill="none" stroke="black" d="M1871.29,-104.17C1681.78,-105.22 558.42,-109.66 219.55,-69 152.2,-60.92 135.14,-56.69 70.55,-36 68.16,-35.23 65.71,-34.38 63.27,-33.48"/>
<polygon fill="black" stroke="black" points="64.55,-30.22 53.96,-29.8 61.98,-36.73 64.55,-30.22"/>
<text text-anchor="middle" x="233.05" y="-57.8" font-family="Times,serif" font-size="14.00">dep</text>
</g>
<!-- 2 -->
<g id="node3" class="node">
<title>2</title>
<ellipse fill="none" stroke="black" cx="134.55" cy="-18" rx="55.49" ry="18"/>
<text text-anchor="middle" x="134.55" y="-14.3" font-family="Times,serif" font-size="14.00">resolução</text>
</g>
<!-- 0&#45;&gt;2 -->
<g id="edge2" class="edge">
<title>0&#45;&gt;2</title>
<path fill="none" stroke="black" d="M1871.41,-103.78C1675.73,-102.14 483.49,-91.27 324.55,-69 274.78,-62.03 219.36,-46.52 181.28,-34.61"/>
<polygon fill="black" stroke="black" points="182.1,-31.2 171.51,-31.51 179.98,-37.87 182.1,-31.2"/>
<text text-anchor="middle" x="338.05" y="-57.8" font-family="Times,serif" font-size="14.00">dep</text>
</g>
<!-- 3 -->
<g id="node4" class="node">
<title>3</title>
<ellipse fill="none" stroke="black" cx="261.55" cy="-18" rx="53.89" ry="18"/>
<text text-anchor="middle" x="261.55" y="-14.3" font-family="Times,serif" font-size="14.00">adoptada</text>
</g>
<!-- 0&#45;&gt;3 -->
<g id="edge3" class="edge">
<title>0&#45;&gt;3</title>
<path fill="none" stroke="black" d="M1871.47,-103.83C1682.52,-102.61 564.22,-94.33 415.55,-69 376.54,-62.35 333.87,-47.9 303.36,-36.23"/>
<polygon fill="black" stroke="black" points="304.48,-32.92 293.9,-32.56 301.95,-39.44 304.48,-32.92"/>
<text text-anchor="middle" x="429.05" y="-57.8" font-family="Times,serif" font-size="14.00">dep</text>
</g>
<!-- 4 -->
<g id="node5" class="node">
<title>4</title>
<ellipse fill="none" stroke="black" cx="360.55" cy="-18" rx="27" ry="18"/>
<text text-anchor="middle" x="360.55" y="-14.3" font-family="Times,serif" font-size="14.00">em</text>
</g>
<!-- 0&#45;&gt;4 -->
<g id="edge4" class="edge">
<title>0&#45;&gt;4</title>
<path fill="none" stroke="black" d="M1871.55,-103.72C1690.19,-101.81 652.38,-89.99 513.55,-69 460.13,-60.92 447.15,-54.93 396.55,-36 394.7,-35.31 392.82,-34.56 390.94,-33.78"/>
<polygon fill="black" stroke="black" points="392.18,-30.5 381.62,-29.66 389.35,-36.9 392.18,-30.5"/>
<text text-anchor="middle" x="527.05" y="-57.8" font-family="Times,serif" font-size="14.00">dep</text>
</g>
<!-- 5 -->
<g id="node6" class="node">
<title>5</title>
<ellipse fill="none" stroke="black" cx="447.55" cy="-18" rx="41.69" ry="18"/>
<text text-anchor="middle" x="447.55" y="-14.3" font-family="Times,serif" font-size="14.00">sessão</text>
</g>
<!-- 0&#45;&gt;5 -->
<g id="edge5" class="edge">
<title>0&#45;&gt;5</title>
<path fill="none" stroke="black" d="M1871.42,-103.7C1696.9,-101.71 735.36,-89.86 606.55,-69 564.35,-62.17 517.91,-46.57 486.17,-34.6"/>
<polygon fill="black" stroke="black" points="487.41,-31.33 476.82,-31.02 484.9,-37.86 487.41,-31.33"/>
<text text-anchor="middle" x="620.05" y="-57.8" font-family="Times,serif" font-size="14.00">dep</text>
</g>
<!-- 6 -->
<g id="node7" class="node">
<title>6</title>
<ellipse fill="none" stroke="black" cx="555.55" cy="-18" rx="48.99" ry="18"/>
<text text-anchor="middle" x="555.55" y="-14.3" font-family="Times,serif" font-size="14.00">plenária</text>
</g>
<!-- 0&#45;&gt;6 -->
<g id="edge6" class="edge">
<title>0&#45;&gt;6</title>
<path fill="none" stroke="black" d="M1871.57,-103.74C1704.1,-102.08 809.94,-92.19 690.55,-69 656.57,-62.4 619.84,-48.31 593.29,-36.76"/>
<polygon fill="black" stroke="black" points="594.55,-33.49 583.99,-32.64 591.71,-39.89 594.55,-33.49"/>
<text text-anchor="middle" x="704.05" y="-57.8" font-family="Times,serif" font-size="14.00">dep</text>
</g>
<!-- 7 -->
<g id="node8" class="node">
<title>7</title>
<ellipse fill="none" stroke="black" cx="649.55" cy="-18" rx="27" ry="18"/>
<text text-anchor="middle" x="649.55" y="-14.3" font-family="Times,serif" font-size="14.00">,</text>
</g>
<!-- 0&#45;&gt;7 -->
<g id="edge7" class="edge">
<title>0&#45;&gt;7</title>
<path fill="none" stroke="black" d="M1871.5,-103.72C1710.3,-102 879.53,-92.04 768.55,-69 736.54,-62.35 702.36,-47.04 678.88,-35.1"/>
<polygon fill="black" stroke="black" points="680.31,-31.9 669.82,-30.39 677.08,-38.11 680.31,-31.9"/>
<text text-anchor="middle" x="782.05" y="-57.8" font-family="Times,serif" font-size="14.00">dep</text>
</g>
<!-- 8 -->
<g id="node9" class="node">
<title>8</title>
<ellipse fill="none" stroke="black" cx="721.55" cy="-18" rx="27" ry="18"/>
<text text-anchor="middle" x="721.55" y="-14.3" font-family="Times,serif" font-size="14.00">a</text>
</g>
<!-- 0&#45;&gt;8 -->
<g id="edge8" class="edge">
<title>0&#45;&gt;8</title>
<path fill="none" stroke="black" d="M1871.44,-104.23C1727.74,-105.29 1053.81,-108.05 849.55,-69 814.43,-62.29 776.57,-46.3 751.2,-34.2"/>
<polygon fill="black" stroke="black" points="752.65,-31.01 742.13,-29.78 749.59,-37.3 752.65,-31.01"/>
<text text-anchor="middle" x="863.05" y="-57.8" font-family="Times,serif" font-size="14.00">dep</text>
</g>
<!-- 9 -->
<g id="node10" class="node">
<title>9</title>
<ellipse fill="none" stroke="black" cx="796.55" cy="-18" rx="29.8" ry="18"/>
<text text-anchor="middle" x="796.55" y="-14.3" font-family="Times,serif" font-size="14.00">APF</text>
</g>
<!-- 0&#45;&gt;9 -->
<g id="edge9" class="edge">
<title>0&#45;&gt;9</title>
<path fill="none" stroke="black" d="M1871.41,-104.07C1734.71,-104.26 1120.73,-103.16 933.55,-69 896.28,-62.2 855.77,-46.27 828.55,-34.2"/>
<polygon fill="black" stroke="black" points="829.7,-30.88 819.15,-29.96 826.82,-37.26 829.7,-30.88"/>
<text text-anchor="middle" x="947.05" y="-57.8" font-family="Times,serif" font-size="14.00">dep</text>
</g>
<!-- 10 -->
<g id="node11" class="node">
<title>10</title>
<ellipse fill="none" stroke="black" cx="871.55" cy="-18" rx="27" ry="18"/>
<text text-anchor="middle" x="871.55" y="-14.3" font-family="Times,serif" font-size="14.00">«</text>
</g>
<!-- 0&#45;&gt;10 -->
<g id="edge10" class="edge">
<title>0&#45;&gt;10</title>
<path fill="none" stroke="black" d="M1871.55,-103.64C1744.55,-101.85 1205.93,-92.93 1039.55,-69 979.69,-60.39 964.5,-56.34 907.55,-36 905.69,-35.34 903.8,-34.61 901.91,-33.84"/>
<polygon fill="black" stroke="black" points="903.14,-30.56 892.58,-29.77 900.34,-36.98 903.14,-30.56"/>
<text text-anchor="middle" x="1053.05" y="-57.8" font-family="Times,serif" font-size="14.00">dep</text>
</g>
<!-- 11 -->
<g id="node12" class="node">
<title>11</title>
<ellipse fill="none" stroke="black" cx="966.55" cy="-18" rx="50.09" ry="18"/>
<text text-anchor="middle" x="966.55" y="-14.3" font-family="Times,serif" font-size="14.00">reafirma</text>
</g>
<!-- 0&#45;&gt;11 -->
<g id="edge11" class="edge">
<title>0&#45;&gt;11</title>
<path fill="none" stroke="black" d="M1871.23,-103.68C1751.99,-102.13 1276.54,-94.47 1129.55,-69 1087.65,-61.74 1041.46,-46.89 1008.97,-35.25"/>
<polygon fill="black" stroke="black" points="1009.95,-31.88 999.35,-31.75 1007.55,-38.45 1009.95,-31.88"/>
<text text-anchor="middle" x="1143.05" y="-57.8" font-family="Times,serif" font-size="14.00">dep</text>
</g>
<!-- 12 -->
<g id="node13" class="node">
<title>12</title>
<ellipse fill="none" stroke="black" cx="1061.55" cy="-18" rx="27" ry="18"/>
<text text-anchor="middle" x="1061.55" y="-14.3" font-family="Times,serif" font-size="14.00">a</text>
</g>
<!-- 0&#45;&gt;12 -->
<g id="edge12" class="edge">
<title>0&#45;&gt;12</title>
<path fill="none" stroke="black" d="M1871.55,-104.07C1782.46,-103.97 1489.79,-101.06 1250.55,-69 1181.6,-59.76 1163.43,-58.33 1097.55,-36 1095.63,-35.35 1093.69,-34.63 1091.74,-33.86"/>
<polygon fill="black" stroke="black" points="1092.72,-30.47 1082.15,-29.72 1089.94,-36.9 1092.72,-30.47"/>
<text text-anchor="middle" x="1264.05" y="-57.8" font-family="Times,serif" font-size="14.00">dep</text>
</g>
<!-- 13 -->
<g id="node14" class="node">
<title>13</title>
<ellipse fill="none" stroke="black" cx="1175.55" cy="-18" rx="68.79" ry="18"/>
<text text-anchor="middle" x="1175.55" y="-14.3" font-family="Times,serif" font-size="14.00">legitimidade</text>
</g>
<!-- 0&#45;&gt;13 -->
<g id="edge13" class="edge">
<title>0&#45;&gt;13</title>
<path fill="none" stroke="black" d="M1871.33,-104.49C1790.09,-105.48 1542.53,-105.09 1341.55,-69 1300.87,-61.7 1256.08,-47.85 1223.29,-36.57"/>
<polygon fill="black" stroke="black" points="1224.11,-33.15 1213.51,-33.16 1221.8,-39.76 1224.11,-33.15"/>
<text text-anchor="middle" x="1355.05" y="-57.8" font-family="Times,serif" font-size="14.00">dep</text>
</g>
<!-- 14 -->
<g id="node15" class="node">
<title>14</title>
<ellipse fill="none" stroke="black" cx="1289.55" cy="-18" rx="27" ry="18"/>
<text text-anchor="middle" x="1289.55" y="-14.3" font-family="Times,serif" font-size="14.00">de</text>
</g>
<!-- 0&#45;&gt;14 -->
<g id="edge14" class="edge">
<title>0&#45;&gt;14</title>
<path fill="none" stroke="black" d="M1871.52,-104.47C1798.15,-105.23 1589.43,-103.89 1420.55,-69 1384.82,-61.62 1346.03,-45.75 1320.01,-33.85"/>
<polygon fill="black" stroke="black" points="1321.24,-30.56 1310.69,-29.52 1318.28,-36.91 1321.24,-30.56"/>
<text text-anchor="middle" x="1434.05" y="-57.8" font-family="Times,serif" font-size="14.00">dep</text>
</g>
<!-- 15 -->
<g id="node16" class="node">
<title>15</title>
<ellipse fill="none" stroke="black" cx="1361.55" cy="-18" rx="27" ry="18"/>
<text text-anchor="middle" x="1361.55" y="-14.3" font-family="Times,serif" font-size="14.00">o</text>
</g>
<!-- 0&#45;&gt;15 -->
<g id="edge15" class="edge">
<title>0&#45;&gt;15</title>
<path fill="none" stroke="black" d="M1871.68,-103.11C1809.36,-100.69 1650.26,-92.53 1519.55,-69 1464.27,-59.05 1450.26,-55.4 1397.55,-36 1395.7,-35.32 1393.82,-34.58 1391.93,-33.8"/>
<polygon fill="black" stroke="black" points="1393.16,-30.52 1382.6,-29.7 1390.35,-36.93 1393.16,-30.52"/>
<text text-anchor="middle" x="1533.05" y="-57.8" font-family="Times,serif" font-size="14.00">dep</text>
</g>
<!-- 16 -->
<g id="node17" class="node">
<title>16</title>
<ellipse fill="none" stroke="black" cx="1445.55" cy="-18" rx="38.99" ry="18"/>
<text text-anchor="middle" x="1445.55" y="-14.3" font-family="Times,serif" font-size="14.00">actual</text>
</g>
<!-- 0&#45;&gt;16 -->
<g id="edge16" class="edge">
<title>0&#45;&gt;16</title>
<path fill="none" stroke="black" d="M1871.82,-102.1C1820.84,-98.17 1706.3,-87.91 1611.55,-69 1558.14,-58.34 1545.47,-52.43 1493.55,-36 1490.65,-35.08 1487.66,-34.1 1484.66,-33.1"/>
<polygon fill="black" stroke="black" points="1485.74,-29.77 1475.14,-29.83 1483.47,-36.39 1485.74,-29.77"/>
<text text-anchor="middle" x="1625.05" y="-57.8" font-family="Times,serif" font-size="14.00">dep</text>
</g>
<!-- 17 -->
<g id="node18" class="node">
<title>17</title>
<ellipse fill="none" stroke="black" cx="1550.55" cy="-18" rx="48.19" ry="18"/>
<text text-anchor="middle" x="1550.55" y="-14.3" font-family="Times,serif" font-size="14.00">governo</text>
</g>
<!-- 0&#45;&gt;17 -->
<g id="edge17" class="edge">
<title>0&#45;&gt;17</title>
<path fill="none" stroke="black" d="M1872.03,-101.15C1831.87,-96.49 1753.44,-86.01 1688.55,-69 1654.96,-60.19 1618.03,-46.6 1590.83,-35.8"/>
<polygon fill="black" stroke="black" points="1591.86,-32.44 1581.27,-31.97 1589.25,-38.94 1591.86,-32.44"/>
<text text-anchor="middle" x="1702.05" y="-57.8" font-family="Times,serif" font-size="14.00">dep</text>
</g>
<!-- 18 -->
<g id="node19" class="node">
<title>18</title>
<ellipse fill="none" stroke="black" cx="1643.55" cy="-18" rx="27" ry="18"/>
<text text-anchor="middle" x="1643.55" y="-14.3" font-family="Times,serif" font-size="14.00">,</text>
</g>
<!-- 0&#45;&gt;18 -->
<g id="edge18" class="edge">
<title>0&#45;&gt;18</title>
<path fill="none" stroke="black" d="M1872.99,-98.92C1844.48,-92.96 1797.15,-82.2 1757.55,-69 1721.84,-57.1 1713.91,-51.37 1679.55,-36 1677.75,-35.2 1675.91,-34.36 1674.05,-33.51"/>
<polygon fill="black" stroke="black" points="1675.34,-30.25 1664.8,-29.21 1672.4,-36.6 1675.34,-30.25"/>
<text text-anchor="middle" x="1771.05" y="-57.8" font-family="Times,serif" font-size="14.00">dep</text>
</g>
<!-- 19 -->
<g id="node20" class="node">
<title>19</title>
<ellipse fill="none" stroke="black" cx="1724.55" cy="-18" rx="36.29" ry="18"/>
<text text-anchor="middle" x="1724.55" y="-14.3" font-family="Times,serif" font-size="14.00">eleito</text>
</g>
<!-- 0&#45;&gt;19 -->
<g id="edge19" class="edge">
<title>0&#45;&gt;19</title>
<path fill="none" stroke="black" d="M1875.72,-95.11C1858.89,-88.38 1835.54,-78.67 1815.55,-69 1795.42,-59.26 1773.44,-47.22 1756.12,-37.4"/>
<polygon fill="black" stroke="black" points="1757.44,-34.12 1747.02,-32.2 1753.96,-40.2 1757.44,-34.12"/>
<text text-anchor="middle" x="1829.05" y="-57.8" font-family="Times,serif" font-size="14.00">dep</text>
</g>
<!-- 20 -->
<g id="node21" class="node">
<title>20</title>
<ellipse fill="none" stroke="black" cx="1805.55" cy="-18" rx="27" ry="18"/>
<text text-anchor="middle" x="1805.55" y="-14.3" font-family="Times,serif" font-size="14.00">em</text>
</g>
<!-- 0&#45;&gt;20 -->
<g id="edge20" class="edge">
<title>0&#45;&gt;20</title>
<path fill="none" stroke="black" d="M1883.19,-89.96C1868.38,-76.43 1845.78,-55.77 1828.77,-40.22"/>
<polygon fill="black" stroke="black" points="1830.67,-37.22 1820.93,-33.06 1825.95,-42.39 1830.67,-37.22"/>
<text text-anchor="middle" x="1872.05" y="-57.8" font-family="Times,serif" font-size="14.00">dep</text>
</g>
<!-- 21 -->
<g id="node22" class="node">
<title>21</title>
<ellipse fill="none" stroke="black" cx="1898.55" cy="-18" rx="48.19" ry="18"/>
<text text-anchor="middle" x="1898.55" y="-14.3" font-family="Times,serif" font-size="14.00">eleições</text>
</g>
<!-- 0&#45;&gt;21 -->
<g id="edge21" class="edge">
<title>0&#45;&gt;21</title>
<path fill="none" stroke="black" d="M1898.55,-86.8C1898.55,-75.16 1898.55,-59.55 1898.55,-46.24"/>
<polygon fill="black" stroke="black" points="1902.05,-46.18 1898.55,-36.18 1895.05,-46.18 1902.05,-46.18"/>
<text text-anchor="middle" x="1912.05" y="-57.8" font-family="Times,serif" font-size="14.00">dep</text>
</g>
<!-- 22 -->
<g id="node23" class="node">
<title>22</title>
<ellipse fill="none" stroke="black" cx="2000.55" cy="-18" rx="36.29" ry="18"/>
<text text-anchor="middle" x="2000.55" y="-14.3" font-family="Times,serif" font-size="14.00">livres</text>
</g>
<!-- 0&#45;&gt;22 -->
<g id="edge22" class="edge">
<title>0&#45;&gt;22</title>
<path fill="none" stroke="black" d="M1914.94,-90.34C1931.12,-76.85 1956.12,-56.02 1974.93,-40.35"/>
<polygon fill="black" stroke="black" points="1977.39,-42.86 1982.83,-33.76 1972.91,-37.48 1977.39,-42.86"/>
<text text-anchor="middle" x="1970.05" y="-57.8" font-family="Times,serif" font-size="14.00">dep</text>
</g>
<!-- 23 -->
<g id="node24" class="node">
<title>23</title>
<ellipse fill="none" stroke="black" cx="2081.55" cy="-18" rx="27" ry="18"/>
<text text-anchor="middle" x="2081.55" y="-14.3" font-family="Times,serif" font-size="14.00">e</text>
</g>
<!-- 0&#45;&gt;23 -->
<g id="edge23" class="edge">
<title>0&#45;&gt;23</title>
<path fill="none" stroke="black" d="M1921.9,-95.65C1940.03,-88.97 1965.68,-79.07 1987.55,-69 2009.95,-58.68 2034.54,-45.53 2052.95,-35.31"/>
<polygon fill="black" stroke="black" points="2054.69,-38.34 2061.71,-30.4 2051.28,-32.23 2054.69,-38.34"/>
<text text-anchor="middle" x="2030.05" y="-57.8" font-family="Times,serif" font-size="14.00">dep</text>
</g>
<!-- 24 -->
<g id="node25" class="node">
<title>24</title>
<ellipse fill="none" stroke="black" cx="2199.55" cy="-18" rx="72.59" ry="18"/>
<text text-anchor="middle" x="2199.55" y="-14.3" font-family="Times,serif" font-size="14.00">democráticas</text>
</g>
<!-- 0&#45;&gt;24 -->
<g id="edge24" class="edge">
<title>0&#45;&gt;24</title>
<path fill="none" stroke="black" d="M1924.03,-98.72C1953.83,-92.39 2004.57,-81.09 2047.55,-69 2082.14,-59.27 2120.59,-46.6 2150.17,-36.45"/>
<polygon fill="black" stroke="black" points="2151.52,-39.69 2159.84,-33.12 2149.24,-33.07 2151.52,-39.69"/>
<text text-anchor="middle" x="2108.05" y="-57.8" font-family="Times,serif" font-size="14.00">dep</text>
</g>
<!-- 25 -->
<g id="node26" class="node">
<title>25</title>
<ellipse fill="none" stroke="black" cx="2317.55" cy="-18" rx="27" ry="18"/>
<text text-anchor="middle" x="2317.55" y="-14.3" font-family="Times,serif" font-size="14.00">»</text>
</g>
<!-- 0&#45;&gt;25 -->
<g id="edge25" class="edge">
<title>0&#45;&gt;25</title>
<path fill="none" stroke="black" d="M1925.23,-102.01C1988.54,-96.7 2152.26,-79.54 2281.55,-36 2283.46,-35.35 2285.41,-34.64 2287.36,-33.87"/>
<polygon fill="black" stroke="black" points="2289.15,-36.91 2296.95,-29.73 2286.38,-30.48 2289.15,-36.91"/>
<text text-anchor="middle" x="2235.05" y="-57.8" font-family="Times,serif" font-size="14.00">dep</text>
</g>
<!-- 26 -->
<g id="node27" class="node">
<title>26</title>
<ellipse fill="none" stroke="black" cx="2389.55" cy="-18" rx="27" ry="18"/>
<text text-anchor="middle" x="2389.55" y="-14.3" font-family="Times,serif" font-size="14.00">e</text>
</g>
<!-- 0&#45;&gt;26 -->
<g id="edge26" class="edge">
<title>0&#45;&gt;26</title>
<path fill="none" stroke="black" d="M1925.49,-103.33C1985.08,-101.41 2132.28,-94.28 2252.55,-69 2298.76,-59.29 2309.67,-53.45 2353.55,-36 2355.38,-35.27 2357.25,-34.5 2359.12,-33.69"/>
<polygon fill="black" stroke="black" points="2360.73,-36.8 2368.42,-29.52 2357.87,-30.42 2360.73,-36.8"/>
<text text-anchor="middle" x="2321.05" y="-57.8" font-family="Times,serif" font-size="14.00">dep</text>
</g>
<!-- 27 -->
<g id="node28" class="node">
<title>27</title>
<ellipse fill="none" stroke="black" cx="2461.55" cy="-18" rx="27" ry="18"/>
<text text-anchor="middle" x="2461.55" y="-14.3" font-family="Times,serif" font-size="14.00">«</text>
</g>
<!-- 0&#45;&gt;27 -->
<g id="edge27" class="edge">
<title>0&#45;&gt;27</title>
<path fill="none" stroke="black" d="M1925.73,-104.49C1995.33,-105.16 2185.27,-103.43 2338.55,-69 2371.71,-61.55 2407.47,-46.1 2431.83,-34.33"/>
<polygon fill="black" stroke="black" points="2433.48,-37.42 2440.9,-29.87 2430.39,-31.14 2433.48,-37.42"/>
<text text-anchor="middle" x="2398.05" y="-57.8" font-family="Times,serif" font-size="14.00">dep</text>
</g>
<!-- 28 -->
<g id="node29" class="node">
<title>28</title>
<ellipse fill="none" stroke="black" cx="2555.55" cy="-18" rx="49.29" ry="18"/>
<text text-anchor="middle" x="2555.55" y="-14.3" font-family="Times,serif" font-size="14.00">condena</text>
</g>
<!-- 0&#45;&gt;28 -->
<g id="edge28" class="edge">
<title>0&#45;&gt;28</title>
<path fill="none" stroke="black" d="M1925.5,-103.15C2017.76,-100.11 2320.43,-88.81 2415.55,-69 2450.58,-61.7 2488.73,-47.64 2516.35,-36.29"/>
<polygon fill="black" stroke="black" points="2517.78,-39.48 2525.66,-32.4 2515.08,-33.03 2517.78,-39.48"/>
<text text-anchor="middle" x="2481.05" y="-57.8" font-family="Times,serif" font-size="14.00">dep</text>
</g>
<!-- 29 -->
<g id="node30" class="node">
<title>29</title>
<ellipse fill="none" stroke="black" cx="2652.55" cy="-18" rx="29.8" ry="18"/>
<text text-anchor="middle" x="2652.55" y="-14.3" font-family="Times,serif" font-size="14.00">sem</text>
</g>
<!-- 0&#45;&gt;29 -->
<g id="edge29" class="edge">
<title>0&#45;&gt;29</title>
<path fill="none" stroke="black" d="M1925.7,-104.54C2010.85,-105.78 2279.97,-106.26 2498.55,-69 2550.96,-60.06 2563.51,-54 2613.55,-36 2615.78,-35.2 2618.06,-34.33 2620.34,-33.43"/>
<polygon fill="black" stroke="black" points="2621.75,-36.63 2629.65,-29.58 2619.07,-30.17 2621.75,-36.63"/>
<text text-anchor="middle" x="2577.05" y="-57.8" font-family="Times,serif" font-size="14.00">dep</text>
</g>
<!-- 30 -->
<g id="node31" class="node">
<title>30</title>
<ellipse fill="none" stroke="black" cx="2751.55" cy="-18" rx="50.89" ry="18"/>
<text text-anchor="middle" x="2751.55" y="-14.3" font-family="Times,serif" font-size="14.00">reservas</text>
</g>
<!-- 0&#45;&gt;30 -->
<g id="edge30" class="edge">
<title>0&#45;&gt;30</title>
<path fill="none" stroke="black" d="M1925.5,-103.57C2037.01,-101.66 2462.55,-92.92 2594.55,-69 2634.55,-61.75 2678.52,-47.14 2709.73,-35.58"/>
<polygon fill="black" stroke="black" points="2711.27,-38.74 2719.39,-31.94 2708.8,-32.19 2711.27,-38.74"/>
<text text-anchor="middle" x="2666.05" y="-57.8" font-family="Times,serif" font-size="14.00">dep</text>
</g>
<!-- 31 -->
<g id="node32" class="node">
<title>31</title>
<ellipse fill="none" stroke="black" cx="2847.55" cy="-18" rx="27" ry="18"/>
<text text-anchor="middle" x="2847.55" y="-14.3" font-family="Times,serif" font-size="14.00">a</text>
</g>
<!-- 0&#45;&gt;31 -->
<g id="edge31" class="edge">
<title>0&#45;&gt;31</title>
<path fill="none" stroke="black" d="M1925.6,-103.55C2045.84,-101.42 2532.61,-91.57 2683.55,-69 2741.65,-60.31 2756.29,-55.97 2811.55,-36 2813.4,-35.33 2815.29,-34.6 2817.18,-33.83"/>
<polygon fill="black" stroke="black" points="2818.75,-36.96 2826.51,-29.75 2815.94,-30.55 2818.75,-36.96"/>
<text text-anchor="middle" x="2771.05" y="-57.8" font-family="Times,serif" font-size="14.00">dep</text>
</g>
<!-- 32 -->
<g id="node33" class="node">
<title>32</title>
<ellipse fill="none" stroke="black" cx="2940.55" cy="-18" rx="48.19" ry="18"/>
<text text-anchor="middle" x="2940.55" y="-14.3" font-family="Times,serif" font-size="14.00">rebelião</text>
</g>
<!-- 0&#45;&gt;32 -->
<g id="edge32" class="edge">
<title>0&#45;&gt;32</title>
<path fill="none" stroke="black" d="M1925.7,-103.95C2055.86,-103.54 2616.78,-100 2788.55,-69 2827.52,-61.97 2870.23,-47.26 2900.42,-35.61"/>
<polygon fill="black" stroke="black" points="2901.73,-38.85 2909.77,-31.94 2899.18,-32.34 2901.73,-38.85"/>
<text text-anchor="middle" x="2858.05" y="-57.8" font-family="Times,serif" font-size="14.00">dep</text>
</g>
<!-- 33 -->
<g id="node34" class="node">
<title>33</title>
<ellipse fill="none" stroke="black" cx="3053.55" cy="-18" rx="46.59" ry="18"/>
<text text-anchor="middle" x="3053.55" y="-14.3" font-family="Times,serif" font-size="14.00">iniciada</text>
</g>
<!-- 0&#45;&gt;33 -->
<g id="edge33" class="edge">
<title>0&#45;&gt;33</title>
<path fill="none" stroke="black" d="M1925.53,-103.87C2062.84,-103.05 2684.86,-97.82 2875.55,-69 2922.84,-61.85 2975.37,-46.09 3011.03,-34.16"/>
<polygon fill="black" stroke="black" points="3012.28,-37.43 3020.62,-30.91 3010.03,-30.8 3012.28,-37.43"/>
<text text-anchor="middle" x="2959.05" y="-57.8" font-family="Times,serif" font-size="14.00">dep</text>
</g>
<!-- 34 -->
<g id="node35" class="node">
<title>34</title>
<ellipse fill="none" stroke="black" cx="3145.55" cy="-18" rx="27" ry="18"/>
<text text-anchor="middle" x="3145.55" y="-14.3" font-family="Times,serif" font-size="14.00">em</text>
</g>
<!-- 0&#45;&gt;34 -->
<g id="edge34" class="edge">
<title>0&#45;&gt;34</title>
<path fill="none" stroke="black" d="M1925.86,-103.89C2072.18,-103.2 2764.64,-98.39 2976.55,-69 3036.87,-60.63 3052.17,-56.44 3109.55,-36 3111.45,-35.32 3113.39,-34.58 3115.33,-33.79"/>
<polygon fill="black" stroke="black" points="3117.14,-36.82 3124.9,-29.6 3114.34,-30.4 3117.14,-36.82"/>
<text text-anchor="middle" x="3069.05" y="-57.8" font-family="Times,serif" font-size="14.00">dep</text>
</g>
<!-- 35 -->
<g id="node36" class="node">
<title>35</title>
<ellipse fill="none" stroke="black" cx="3217.55" cy="-18" rx="27" ry="18"/>
<text text-anchor="middle" x="3217.55" y="-14.3" font-family="Times,serif" font-size="14.00">7</text>
</g>
<!-- 0&#45;&gt;35 -->
<g id="edge35" class="edge">
<title>0&#45;&gt;35</title>
<path fill="none" stroke="black" d="M1925.61,-103.7C2091.63,-101.77 2969.03,-90.61 3086.55,-69 3122.43,-62.4 3161.19,-46.39 3187.16,-34.26"/>
<polygon fill="black" stroke="black" points="3188.94,-37.29 3196.46,-29.82 3185.93,-30.97 3188.94,-37.29"/>
<text text-anchor="middle" x="3152.05" y="-57.8" font-family="Times,serif" font-size="14.00">dep</text>
</g>
<!-- 36 -->
<g id="node37" class="node">
<title>36</title>
<ellipse fill="none" stroke="black" cx="3289.55" cy="-18" rx="27" ry="18"/>
<text text-anchor="middle" x="3289.55" y="-14.3" font-family="Times,serif" font-size="14.00">de</text>
</g>
<!-- 0&#45;&gt;36 -->
<g id="edge36" class="edge">
<title>0&#45;&gt;36</title>
<path fill="none" stroke="black" d="M1925.53,-103.82C2098.1,-102.57 3043.82,-94.61 3169.55,-69 3202.01,-62.39 3236.69,-46.92 3260.38,-34.93"/>
<polygon fill="black" stroke="black" points="3262.24,-37.91 3269.51,-30.2 3259.02,-31.69 3262.24,-37.91"/>
<text text-anchor="middle" x="3231.05" y="-57.8" font-family="Times,serif" font-size="14.00">dep</text>
</g>
<!-- 37 -->
<g id="node38" class="node">
<title>37</title>
<ellipse fill="none" stroke="black" cx="3371.55" cy="-18" rx="37.09" ry="18"/>
<text text-anchor="middle" x="3371.55" y="-14.3" font-family="Times,serif" font-size="14.00">Junho</text>
</g>
<!-- 0&#45;&gt;37 -->
<g id="edge37" class="edge">
<title>0&#45;&gt;37</title>
<path fill="none" stroke="black" d="M1925.75,-103.88C2105.12,-103.02 3114.79,-96.95 3248.55,-69 3280.22,-62.38 3314.14,-47.99 3338.32,-36.34"/>
<polygon fill="black" stroke="black" points="3339.98,-39.42 3347.4,-31.87 3336.89,-33.14 3339.98,-39.42"/>
<text text-anchor="middle" x="3311.05" y="-57.8" font-family="Times,serif" font-size="14.00">dep</text>
</g>
<!-- 38 -->
<g id="node39" class="node">
<title>38</title>
<ellipse fill="none" stroke="black" cx="3453.55" cy="-18" rx="27" ry="18"/>
<text text-anchor="middle" x="3453.55" y="-14.3" font-family="Times,serif" font-size="14.00">de</text>
</g>
<!-- 0&#45;&gt;38 -->
<g id="edge38" class="edge">
<title>0&#45;&gt;38</title>
<path fill="none" stroke="black" d="M1925.55,-103.87C2110.4,-102.95 3185.95,-96.39 3328.55,-69 3362.59,-62.46 3399.14,-46.72 3423.87,-34.63"/>
<polygon fill="black" stroke="black" points="3425.68,-37.64 3433.06,-30.04 3422.55,-31.38 3425.68,-37.64"/>
<text text-anchor="middle" x="3392.05" y="-57.8" font-family="Times,serif" font-size="14.00">dep</text>
</g>
<!-- 39 -->
<g id="node40" class="node">
<title>39</title>
<ellipse fill="none" stroke="black" cx="3532.55" cy="-18" rx="34.39" ry="18"/>
<text text-anchor="middle" x="3532.55" y="-14.3" font-family="Times,serif" font-size="14.00">1998</text>
</g>
<!-- 0&#45;&gt;39 -->
<g id="edge39" class="edge">
<title>0&#45;&gt;39</title>
<path fill="none" stroke="black" d="M1925.54,-103.96C2116.39,-103.62 3258.93,-100.26 3409.55,-69 3441.63,-62.34 3476,-47.66 3500.23,-35.92"/>
<polygon fill="black" stroke="black" points="3501.9,-39 3509.32,-31.43 3498.8,-32.73 3501.9,-39"/>
<text text-anchor="middle" x="3472.05" y="-57.8" font-family="Times,serif" font-size="14.00">dep</text>
</g>
<!-- 40 -->
<g id="node41" class="node">
<title>40</title>
<ellipse fill="none" stroke="black" cx="3611.55" cy="-18" rx="27" ry="18"/>
<text text-anchor="middle" x="3611.55" y="-14.3" font-family="Times,serif" font-size="14.00">»</text>
</g>
<!-- 0&#45;&gt;40 -->
<g id="edge40" class="edge">
<title>0&#45;&gt;40</title>
<path fill="none" stroke="black" d="M1925.69,-103.96C2122.74,-103.63 3330.28,-100.32 3489.55,-69 3522.66,-62.49 3558.1,-46.89 3582.2,-34.84"/>
<polygon fill="black" stroke="black" points="3583.85,-37.92 3591.16,-30.25 3580.67,-31.69 3583.85,-37.92"/>
<text text-anchor="middle" x="3552.05" y="-57.8" font-family="Times,serif" font-size="14.00">dep</text>
</g>
<!-- 41 -->
<g id="node42" class="node">
<title>41</title>
<ellipse fill="none" stroke="black" cx="3683.55" cy="-18" rx="27" ry="18"/>
<text text-anchor="middle" x="3683.55" y="-14.3" font-family="Times,serif" font-size="14.00">.</text>
</g>
<!-- 0&#45;&gt;41 -->
<g id="edge41" class="edge">
<title>0&#45;&gt;41</title>
<path fill="none" stroke="black" d="M1925.76,-104.05C2128.7,-104.34 3402.49,-104.71 3569.55,-69 3600.06,-62.48 3632.41,-47.41 3654.83,-35.51"/>
<polygon fill="black" stroke="black" points="3656.68,-38.49 3663.79,-30.64 3653.34,-32.34 3656.68,-38.49"/>
<text text-anchor="middle" x="3629.05" y="-57.8" font-family="Times,serif" font-size="14.00">dep</text>
</g>
</g>
</svg>
