<?xml version="1.0" encoding="UTF-8" standalone="no"?>
<!DOCTYPE svg PUBLIC "-//W3C//DTD SVG 1.1//EN"
 "http://www.w3.org/Graphics/SVG/1.1/DTD/svg11.dtd">
<!-- Generated by graphviz version 2.42.4 (0)
 -->
<!-- Pages: 1 -->
<svg width="3201pt" height="131pt"
 viewBox="0.00 0.00 3201.14 131.00" xmlns="http://www.w3.org/2000/svg" xmlns:xlink="http://www.w3.org/1999/xlink">
<g id="graph0" class="graph" transform="scale(1 1) rotate(0) translate(4 127)">
<polygon fill="white" stroke="transparent" points="-4,4 -4,-127 3197.14,-127 3197.14,4 -4,4"/>
<!-- 0 -->
<g id="node1" class="node">
<title>0</title>
<ellipse fill="none" stroke="black" cx="1595.14" cy="-105" rx="27" ry="18"/>
<text text-anchor="middle" x="1595.14" y="-101.3" font-family="Times,serif" font-size="14.00">A</text>
</g>
<!-- 1 -->
<g id="node2" class="node">
<title>1</title>
<ellipse fill="none" stroke="black" cx="59.14" cy="-18" rx="59.29" ry="18"/>
<text text-anchor="middle" x="59.14" y="-14.3" font-family="Times,serif" font-size="14.00">Secretaria</text>
</g>
<!-- 0&#45;&gt;1 -->
<g id="edge1" class="edge">
<title>0&#45;&gt;1</title>
<path fill="none" stroke="black" d="M1567.94,-103.78C1386.37,-102.21 353.01,-92.35 215.14,-69 176.05,-62.38 133.27,-48.14 102.42,-36.55"/>
<polygon fill="black" stroke="black" points="103.43,-33.19 92.84,-32.89 100.93,-39.72 103.43,-33.19"/>
<text text-anchor="middle" x="228.64" y="-57.8" font-family="Times,serif" font-size="14.00">dep</text>
</g>
<!-- 2 -->
<g id="node3" class="node">
<title>2</title>
<ellipse fill="none" stroke="black" cx="163.14" cy="-18" rx="27" ry="18"/>
<text text-anchor="middle" x="163.14" y="-14.3" font-family="Times,serif" font-size="14.00">de</text>
</g>
<!-- 0&#45;&gt;2 -->
<g id="edge2" class="edge">
<title>0&#45;&gt;2</title>
<path fill="none" stroke="black" d="M1568.21,-103.74C1393.86,-102.02 428.16,-91.53 299.14,-69 261.4,-62.41 220.43,-45.96 193.44,-33.72"/>
<polygon fill="black" stroke="black" points="194.7,-30.45 184.15,-29.43 191.76,-36.8 194.7,-30.45"/>
<text text-anchor="middle" x="312.64" y="-57.8" font-family="Times,serif" font-size="14.00">dep</text>
</g>
<!-- 3 -->
<g id="node4" class="node">
<title>3</title>
<ellipse fill="none" stroke="black" cx="248.14" cy="-18" rx="39.79" ry="18"/>
<text text-anchor="middle" x="248.14" y="-14.3" font-family="Times,serif" font-size="14.00">Saúde</text>
</g>
<!-- 0&#45;&gt;3 -->
<g id="edge3" class="edge">
<title>0&#45;&gt;3</title>
<path fill="none" stroke="black" d="M1568.07,-103.75C1400.05,-102.1 502.93,-92.26 383.14,-69 348.18,-62.21 310.31,-47.49 283.61,-35.77"/>
<polygon fill="black" stroke="black" points="284.86,-32.49 274.3,-31.6 282,-38.88 284.86,-32.49"/>
<text text-anchor="middle" x="396.64" y="-57.8" font-family="Times,serif" font-size="14.00">dep</text>
</g>
<!-- 4 -->
<g id="node5" class="node">
<title>4</title>
<ellipse fill="none" stroke="black" cx="333.14" cy="-18" rx="27" ry="18"/>
<text text-anchor="middle" x="333.14" y="-14.3" font-family="Times,serif" font-size="14.00">de</text>
</g>
<!-- 0&#45;&gt;4 -->
<g id="edge4" class="edge">
<title>0&#45;&gt;4</title>
<path fill="none" stroke="black" d="M1567.98,-104.25C1417.75,-105.45 687.32,-109.12 466.14,-69 429.4,-62.33 389.59,-46.06 363.2,-33.88"/>
<polygon fill="black" stroke="black" points="364.66,-30.7 354.12,-29.6 361.68,-37.03 364.66,-30.7"/>
<text text-anchor="middle" x="479.64" y="-57.8" font-family="Times,serif" font-size="14.00">dep</text>
</g>
<!-- 5 -->
<g id="node6" class="node">
<title>5</title>
<ellipse fill="none" stroke="black" cx="405.14" cy="-18" rx="27" ry="18"/>
<text text-anchor="middle" x="405.14" y="-14.3" font-family="Times,serif" font-size="14.00">a</text>
</g>
<!-- 0&#45;&gt;5 -->
<g id="edge5" class="edge">
<title>0&#45;&gt;5</title>
<path fill="none" stroke="black" d="M1567.98,-103.81C1426.9,-102.74 776.66,-96.34 577.14,-69 515.52,-60.55 499.79,-56.72 441.14,-36 439.24,-35.33 437.3,-34.59 435.36,-33.8"/>
<polygon fill="black" stroke="black" points="436.35,-30.41 425.78,-29.62 433.55,-36.83 436.35,-30.41"/>
<text text-anchor="middle" x="590.64" y="-57.8" font-family="Times,serif" font-size="14.00">dep</text>
</g>
<!-- 6 -->
<g id="node7" class="node">
<title>6</title>
<ellipse fill="none" stroke="black" cx="496.14" cy="-18" rx="46.29" ry="18"/>
<text text-anchor="middle" x="496.14" y="-14.3" font-family="Times,serif" font-size="14.00">Paraíba</text>
</g>
<!-- 0&#45;&gt;6 -->
<g id="edge6" class="edge">
<title>0&#45;&gt;6</title>
<path fill="none" stroke="black" d="M1568.09,-103.76C1435.84,-102.44 856.45,-95.25 678.14,-69 629.55,-61.84 575.46,-45.92 538.97,-33.96"/>
<polygon fill="black" stroke="black" points="539.76,-30.53 529.17,-30.7 537.55,-37.17 539.76,-30.53"/>
<text text-anchor="middle" x="691.64" y="-57.8" font-family="Times,serif" font-size="14.00">dep</text>
</g>
<!-- 7 -->
<g id="node8" class="node">
<title>7</title>
<ellipse fill="none" stroke="black" cx="613.14" cy="-18" rx="52.79" ry="18"/>
<text text-anchor="middle" x="613.14" y="-14.3" font-family="Times,serif" font-size="14.00">informou</text>
</g>
<!-- 0&#45;&gt;7 -->
<g id="edge7" class="edge">
<title>0&#45;&gt;7</title>
<path fill="none" stroke="black" d="M1568.15,-103.87C1443.62,-103.11 923.76,-98.2 764.14,-69 726.07,-62.04 684.43,-47.71 654.53,-36.17"/>
<polygon fill="black" stroke="black" points="655.46,-32.77 644.87,-32.38 652.9,-39.29 655.46,-32.77"/>
<text text-anchor="middle" x="777.64" y="-57.8" font-family="Times,serif" font-size="14.00">dep</text>
</g>
<!-- 8 -->
<g id="node9" class="node">
<title>8</title>
<ellipse fill="none" stroke="black" cx="712.14" cy="-18" rx="27.9" ry="18"/>
<text text-anchor="middle" x="712.14" y="-14.3" font-family="Times,serif" font-size="14.00">que</text>
</g>
<!-- 0&#45;&gt;8 -->
<g id="edge8" class="edge">
<title>0&#45;&gt;8</title>
<path fill="none" stroke="black" d="M1567.85,-103.7C1450.84,-102.26 991.18,-95.04 849.14,-69 802.69,-60.48 792.03,-53.45 748.14,-36 746.51,-35.35 744.85,-34.66 743.17,-33.95"/>
<polygon fill="black" stroke="black" points="744.21,-30.58 733.65,-29.69 741.35,-36.97 744.21,-30.58"/>
<text text-anchor="middle" x="862.64" y="-57.8" font-family="Times,serif" font-size="14.00">dep</text>
</g>
<!-- 9 -->
<g id="node10" class="node">
<title>9</title>
<ellipse fill="none" stroke="black" cx="788.14" cy="-18" rx="30.59" ry="18"/>
<text text-anchor="middle" x="788.14" y="-14.3" font-family="Times,serif" font-size="14.00">João</text>
</g>
<!-- 0&#45;&gt;9 -->
<g id="edge9" class="edge">
<title>0&#45;&gt;9</title>
<path fill="none" stroke="black" d="M1568.2,-103.34C1461.46,-100.62 1068.06,-89.39 945.14,-69 891.84,-60.16 879.11,-53.94 828.14,-36 825.78,-35.17 823.35,-34.26 820.92,-33.32"/>
<polygon fill="black" stroke="black" points="822.22,-30.07 811.64,-29.57 819.6,-36.56 822.22,-30.07"/>
<text text-anchor="middle" x="958.64" y="-57.8" font-family="Times,serif" font-size="14.00">dep</text>
</g>
<!-- 10 -->
<g id="node11" class="node">
<title>10</title>
<ellipse fill="none" stroke="black" cx="879.14" cy="-18" rx="42.49" ry="18"/>
<text text-anchor="middle" x="879.14" y="-14.3" font-family="Times,serif" font-size="14.00">Pessoa</text>
</g>
<!-- 0&#45;&gt;10 -->
<g id="edge10" class="edge">
<title>0&#45;&gt;10</title>
<path fill="none" stroke="black" d="M1568.16,-103.23C1470.55,-100.32 1136.06,-89.06 1031.14,-69 991.5,-61.42 947.9,-46.34 917.6,-34.72"/>
<polygon fill="black" stroke="black" points="918.84,-31.44 908.26,-31.08 916.31,-37.97 918.84,-31.44"/>
<text text-anchor="middle" x="1044.64" y="-57.8" font-family="Times,serif" font-size="14.00">dep</text>
</g>
<!-- 11 -->
<g id="node12" class="node">
<title>11</title>
<ellipse fill="none" stroke="black" cx="970.14" cy="-18" rx="30.59" ry="18"/>
<text text-anchor="middle" x="970.14" y="-14.3" font-family="Times,serif" font-size="14.00">está</text>
</g>
<!-- 0&#45;&gt;11 -->
<g id="edge11" class="edge">
<title>0&#45;&gt;11</title>
<path fill="none" stroke="black" d="M1568,-104.21C1494.31,-104.33 1284.59,-101.53 1114.14,-69 1075.08,-61.54 1032.26,-45.61 1003.55,-33.72"/>
<polygon fill="black" stroke="black" points="1004.59,-30.36 994.01,-29.71 1001.87,-36.81 1004.59,-30.36"/>
<text text-anchor="middle" x="1127.64" y="-57.8" font-family="Times,serif" font-size="14.00">dep</text>
</g>
<!-- 12 -->
<g id="node13" class="node">
<title>12</title>
<ellipse fill="none" stroke="black" cx="1054.14" cy="-18" rx="36" ry="18"/>
<text text-anchor="middle" x="1054.14" y="-14.3" font-family="Times,serif" font-size="14.00">entre</text>
</g>
<!-- 0&#45;&gt;12 -->
<g id="edge12" class="edge">
<title>0&#45;&gt;12</title>
<path fill="none" stroke="black" d="M1567.8,-103.82C1502.81,-102.9 1334.29,-97.7 1197.14,-69 1159.49,-61.12 1118.19,-45.93 1089.69,-34.34"/>
<polygon fill="black" stroke="black" points="1090.76,-31 1080.18,-30.42 1088.09,-37.47 1090.76,-31"/>
<text text-anchor="middle" x="1210.64" y="-57.8" font-family="Times,serif" font-size="14.00">dep</text>
</g>
<!-- 13 -->
<g id="node14" class="node">
<title>13</title>
<ellipse fill="none" stroke="black" cx="1135.14" cy="-18" rx="27" ry="18"/>
<text text-anchor="middle" x="1135.14" y="-14.3" font-family="Times,serif" font-size="14.00">as</text>
</g>
<!-- 0&#45;&gt;13 -->
<g id="edge13" class="edge">
<title>0&#45;&gt;13</title>
<path fill="none" stroke="black" d="M1568.43,-102.05C1516.31,-97.99 1397.57,-87.42 1299.14,-69 1241.4,-58.19 1226.4,-55.97 1171.14,-36 1169.29,-35.33 1167.41,-34.6 1165.52,-33.83"/>
<polygon fill="black" stroke="black" points="1166.75,-30.55 1156.18,-29.75 1163.94,-36.96 1166.75,-30.55"/>
<text text-anchor="middle" x="1312.64" y="-57.8" font-family="Times,serif" font-size="14.00">dep</text>
</g>
<!-- 14 -->
<g id="node15" class="node">
<title>14</title>
<ellipse fill="none" stroke="black" cx="1214.14" cy="-18" rx="34.39" ry="18"/>
<text text-anchor="middle" x="1214.14" y="-14.3" font-family="Times,serif" font-size="14.00">cinco</text>
</g>
<!-- 0&#45;&gt;14 -->
<g id="edge14" class="edge">
<title>0&#45;&gt;14</title>
<path fill="none" stroke="black" d="M1568.82,-100.58C1511.34,-92.7 1370.62,-71.21 1257.14,-36 1254.73,-35.25 1252.26,-34.43 1249.78,-33.56"/>
<polygon fill="black" stroke="black" points="1250.89,-30.24 1240.3,-30.07 1248.47,-36.81 1250.89,-30.24"/>
<text text-anchor="middle" x="1399.64" y="-57.8" font-family="Times,serif" font-size="14.00">dep</text>
</g>
<!-- 15 -->
<g id="node16" class="node">
<title>15</title>
<ellipse fill="none" stroke="black" cx="1313.14" cy="-18" rx="46.59" ry="18"/>
<text text-anchor="middle" x="1313.14" y="-14.3" font-family="Times,serif" font-size="14.00">capitais</text>
</g>
<!-- 0&#45;&gt;15 -->
<g id="edge15" class="edge">
<title>0&#45;&gt;15</title>
<path fill="none" stroke="black" d="M1570.72,-96.81C1546.85,-89.78 1509.48,-78.72 1477.14,-69 1436.98,-56.92 1391.33,-42.99 1358.42,-32.9"/>
<polygon fill="black" stroke="black" points="1359.22,-29.49 1348.63,-29.9 1357.17,-36.18 1359.22,-29.49"/>
<text text-anchor="middle" x="1490.64" y="-57.8" font-family="Times,serif" font-size="14.00">dep</text>
</g>
<!-- 16 -->
<g id="node17" class="node">
<title>16</title>
<ellipse fill="none" stroke="black" cx="1438.14" cy="-18" rx="59.59" ry="18"/>
<text text-anchor="middle" x="1438.14" y="-14.3" font-family="Times,serif" font-size="14.00">brasileiras</text>
</g>
<!-- 0&#45;&gt;16 -->
<g id="edge16" class="edge">
<title>0&#45;&gt;16</title>
<path fill="none" stroke="black" d="M1574.62,-92.89C1549.28,-79.17 1505.72,-55.58 1474.63,-38.75"/>
<polygon fill="black" stroke="black" points="1476.28,-35.66 1465.82,-33.98 1472.94,-41.82 1476.28,-35.66"/>
<text text-anchor="middle" x="1539.64" y="-57.8" font-family="Times,serif" font-size="14.00">dep</text>
</g>
<!-- 17 -->
<g id="node18" class="node">
<title>17</title>
<ellipse fill="none" stroke="black" cx="1544.14" cy="-18" rx="27.9" ry="18"/>
<text text-anchor="middle" x="1544.14" y="-14.3" font-family="Times,serif" font-size="14.00">que</text>
</g>
<!-- 0&#45;&gt;17 -->
<g id="edge17" class="edge">
<title>0&#45;&gt;17</title>
<path fill="none" stroke="black" d="M1585.55,-88.01C1578.12,-75.63 1567.69,-58.23 1559.15,-44.01"/>
<polygon fill="black" stroke="black" points="1562.01,-41.98 1553.87,-35.21 1556.01,-45.58 1562.01,-41.98"/>
<text text-anchor="middle" x="1586.64" y="-57.8" font-family="Times,serif" font-size="14.00">dep</text>
</g>
<!-- 18 -->
<g id="node19" class="node">
<title>18</title>
<ellipse fill="none" stroke="black" cx="1646.14" cy="-18" rx="55.79" ry="18"/>
<text text-anchor="middle" x="1646.14" y="-14.3" font-family="Times,serif" font-size="14.00">atingiram</text>
</g>
<!-- 0&#45;&gt;18 -->
<g id="edge18" class="edge">
<title>0&#45;&gt;18</title>
<path fill="none" stroke="black" d="M1604.74,-88.01C1612.08,-75.78 1622.34,-58.68 1630.81,-44.56"/>
<polygon fill="black" stroke="black" points="1633.93,-46.16 1636.07,-35.79 1627.93,-42.56 1633.93,-46.16"/>
<text text-anchor="middle" x="1637.64" y="-57.8" font-family="Times,serif" font-size="14.00">dep</text>
</g>
<!-- 19 -->
<g id="node20" class="node">
<title>19</title>
<ellipse fill="none" stroke="black" cx="1747.14" cy="-18" rx="27" ry="18"/>
<text text-anchor="middle" x="1747.14" y="-14.3" font-family="Times,serif" font-size="14.00">90</text>
</g>
<!-- 0&#45;&gt;19 -->
<g id="edge19" class="edge">
<title>0&#45;&gt;19</title>
<path fill="none" stroke="black" d="M1615.33,-92.71C1641.68,-77.98 1687.97,-52.09 1718.09,-35.25"/>
<polygon fill="black" stroke="black" points="1719.86,-38.27 1726.88,-30.33 1716.44,-32.16 1719.86,-38.27"/>
<text text-anchor="middle" x="1694.64" y="-57.8" font-family="Times,serif" font-size="14.00">dep</text>
</g>
<!-- 20 -->
<g id="node21" class="node">
<title>20</title>
<ellipse fill="none" stroke="black" cx="1819.14" cy="-18" rx="27" ry="18"/>
<text text-anchor="middle" x="1819.14" y="-14.3" font-family="Times,serif" font-size="14.00">%</text>
</g>
<!-- 0&#45;&gt;20 -->
<g id="edge20" class="edge">
<title>0&#45;&gt;20</title>
<path fill="none" stroke="black" d="M1620.14,-97.65C1644.07,-91.3 1681.03,-80.82 1712.14,-69 1744.68,-56.65 1751.63,-50.76 1783.14,-36 1784.93,-35.16 1786.76,-34.3 1788.61,-33.43"/>
<polygon fill="black" stroke="black" points="1790.28,-36.52 1797.83,-29.09 1787.3,-30.18 1790.28,-36.52"/>
<text text-anchor="middle" x="1759.64" y="-57.8" font-family="Times,serif" font-size="14.00">dep</text>
</g>
<!-- 21 -->
<g id="node22" class="node">
<title>21</title>
<ellipse fill="none" stroke="black" cx="1891.14" cy="-18" rx="27" ry="18"/>
<text text-anchor="middle" x="1891.14" y="-14.3" font-family="Times,serif" font-size="14.00">de</text>
</g>
<!-- 0&#45;&gt;21 -->
<g id="edge21" class="edge">
<title>0&#45;&gt;21</title>
<path fill="none" stroke="black" d="M1621.48,-100.71C1657.26,-95.84 1722.96,-85.47 1777.14,-69 1813.16,-58.05 1820.79,-51.37 1855.14,-36 1856.94,-35.2 1858.79,-34.36 1860.64,-33.51"/>
<polygon fill="black" stroke="black" points="1862.3,-36.6 1869.89,-29.21 1859.35,-30.25 1862.3,-36.6"/>
<text text-anchor="middle" x="1830.64" y="-57.8" font-family="Times,serif" font-size="14.00">dep</text>
</g>
<!-- 22 -->
<g id="node23" class="node">
<title>22</title>
<ellipse fill="none" stroke="black" cx="1992.14" cy="-18" rx="55.79" ry="18"/>
<text text-anchor="middle" x="1992.14" y="-14.3" font-family="Times,serif" font-size="14.00">cobertura</text>
</g>
<!-- 0&#45;&gt;22 -->
<g id="edge22" class="edge">
<title>0&#45;&gt;22</title>
<path fill="none" stroke="black" d="M1622.06,-102.03C1668.64,-98.22 1767.09,-88.48 1848.14,-69 1882.9,-60.65 1921.07,-47.19 1949.37,-36.34"/>
<polygon fill="black" stroke="black" points="1950.89,-39.5 1958.95,-32.62 1948.36,-32.98 1950.89,-39.5"/>
<text text-anchor="middle" x="1910.64" y="-57.8" font-family="Times,serif" font-size="14.00">dep</text>
</g>
<!-- 23 -->
<g id="node24" class="node">
<title>23</title>
<ellipse fill="none" stroke="black" cx="2109.14" cy="-18" rx="43.59" ry="18"/>
<text text-anchor="middle" x="2109.14" y="-14.3" font-family="Times,serif" font-size="14.00">vacinal</text>
</g>
<!-- 0&#45;&gt;23 -->
<g id="edge23" class="edge">
<title>0&#45;&gt;23</title>
<path fill="none" stroke="black" d="M1622.09,-102.5C1678.99,-99.05 1815.43,-89.23 1928.14,-69 1986.39,-58.55 2000.32,-52.54 2057.14,-36 2060.29,-35.08 2063.53,-34.11 2066.79,-33.1"/>
<polygon fill="black" stroke="black" points="2068.03,-36.38 2076.51,-30.03 2065.92,-29.7 2068.03,-36.38"/>
<text text-anchor="middle" x="2009.64" y="-57.8" font-family="Times,serif" font-size="14.00">dep</text>
</g>
<!-- 24 -->
<g id="node25" class="node">
<title>24</title>
<ellipse fill="none" stroke="black" cx="2198.14" cy="-18" rx="27" ry="18"/>
<text text-anchor="middle" x="2198.14" y="-14.3" font-family="Times,serif" font-size="14.00">em</text>
</g>
<!-- 0&#45;&gt;24 -->
<g id="edge24" class="edge">
<title>0&#45;&gt;24</title>
<path fill="none" stroke="black" d="M1622.12,-103.3C1690.36,-101.22 1875.24,-93.56 2027.14,-69 2088.12,-59.14 2103.92,-56.63 2162.14,-36 2164.05,-35.32 2165.99,-34.58 2167.93,-33.8"/>
<polygon fill="black" stroke="black" points="2169.74,-36.83 2177.5,-29.62 2166.94,-30.41 2169.74,-36.83"/>
<text text-anchor="middle" x="2118.64" y="-57.8" font-family="Times,serif" font-size="14.00">dep</text>
</g>
<!-- 25 -->
<g id="node26" class="node">
<title>25</title>
<ellipse fill="none" stroke="black" cx="2270.14" cy="-18" rx="27" ry="18"/>
<text text-anchor="middle" x="2270.14" y="-14.3" font-family="Times,serif" font-size="14.00">a</text>
</g>
<!-- 0&#45;&gt;25 -->
<g id="edge25" class="edge">
<title>0&#45;&gt;25</title>
<path fill="none" stroke="black" d="M1622.01,-103.19C1716.9,-100.17 2035.95,-88.76 2136.14,-69 2173.03,-61.73 2213.16,-45.57 2239.79,-33.58"/>
<polygon fill="black" stroke="black" points="2241.33,-36.72 2248.96,-29.37 2238.41,-30.36 2241.33,-36.72"/>
<text text-anchor="middle" x="2202.64" y="-57.8" font-family="Times,serif" font-size="14.00">dep</text>
</g>
<!-- 26 -->
<g id="node27" class="node">
<title>26</title>
<ellipse fill="none" stroke="black" cx="2355.14" cy="-18" rx="40.09" ry="18"/>
<text text-anchor="middle" x="2355.14" y="-14.3" font-family="Times,serif" font-size="14.00">última</text>
</g>
<!-- 0&#45;&gt;26 -->
<g id="edge26" class="edge">
<title>0&#45;&gt;26</title>
<path fill="none" stroke="black" d="M1622.16,-103.56C1726.51,-101.68 2103.24,-93.35 2220.14,-69 2254.79,-61.78 2292.42,-47.25 2319.12,-35.71"/>
<polygon fill="black" stroke="black" points="2320.7,-38.84 2328.44,-31.61 2317.88,-32.43 2320.7,-38.84"/>
<text text-anchor="middle" x="2283.64" y="-57.8" font-family="Times,serif" font-size="14.00">dep</text>
</g>
<!-- 27 -->
<g id="node28" class="node">
<title>27</title>
<ellipse fill="none" stroke="black" cx="2471.14" cy="-18" rx="57.69" ry="18"/>
<text text-anchor="middle" x="2471.14" y="-14.3" font-family="Times,serif" font-size="14.00">campanha</text>
</g>
<!-- 0&#45;&gt;27 -->
<g id="edge27" class="edge">
<title>0&#45;&gt;27</title>
<path fill="none" stroke="black" d="M1622.09,-103.52C1734.55,-101.36 2166.84,-91.75 2301.14,-69 2344.21,-61.71 2391.8,-47.12 2425.65,-35.58"/>
<polygon fill="black" stroke="black" points="2426.94,-38.83 2435.25,-32.26 2424.66,-32.22 2426.94,-38.83"/>
<text text-anchor="middle" x="2376.64" y="-57.8" font-family="Times,serif" font-size="14.00">dep</text>
</g>
<!-- 28 -->
<g id="node29" class="node">
<title>28</title>
<ellipse fill="none" stroke="black" cx="2574.14" cy="-18" rx="27" ry="18"/>
<text text-anchor="middle" x="2574.14" y="-14.3" font-family="Times,serif" font-size="14.00">de</text>
</g>
<!-- 0&#45;&gt;28 -->
<g id="edge28" class="edge">
<title>0&#45;&gt;28</title>
<path fill="none" stroke="black" d="M1622.25,-103.47C1743.88,-101.01 2240.04,-89.86 2394.14,-69 2459.21,-60.19 2476.1,-57.48 2538.14,-36 2540.06,-35.34 2542,-34.61 2543.94,-33.83"/>
<polygon fill="black" stroke="black" points="2545.74,-36.86 2553.52,-29.67 2542.96,-30.44 2545.74,-36.86"/>
<text text-anchor="middle" x="2493.64" y="-57.8" font-family="Times,serif" font-size="14.00">dep</text>
</g>
<!-- 29 -->
<g id="node30" class="node">
<title>29</title>
<ellipse fill="none" stroke="black" cx="2700.14" cy="-18" rx="80.69" ry="18"/>
<text text-anchor="middle" x="2700.14" y="-14.3" font-family="Times,serif" font-size="14.00">multivacinação</text>
</g>
<!-- 0&#45;&gt;29 -->
<g id="edge29" class="edge">
<title>0&#45;&gt;29</title>
<path fill="none" stroke="black" d="M1622.17,-103.77C1754.29,-102.53 2333.09,-95.62 2511.14,-69 2557.98,-62 2609.91,-47.77 2647.46,-36.28"/>
<polygon fill="black" stroke="black" points="2648.66,-39.58 2657.17,-33.27 2646.59,-32.89 2648.66,-39.58"/>
<text text-anchor="middle" x="2593.64" y="-57.8" font-family="Times,serif" font-size="14.00">dep</text>
</g>
<!-- 30 -->
<g id="node31" class="node">
<title>30</title>
<ellipse fill="none" stroke="black" cx="2826.14" cy="-18" rx="27" ry="18"/>
<text text-anchor="middle" x="2826.14" y="-14.3" font-family="Times,serif" font-size="14.00">,</text>
</g>
<!-- 0&#45;&gt;30 -->
<g id="edge30" class="edge">
<title>0&#45;&gt;30</title>
<path fill="none" stroke="black" d="M1622.23,-103.61C1762.91,-101.5 2411.34,-90.74 2611.14,-69 2691.57,-60.25 2713.15,-60.81 2790.14,-36 2792.07,-35.38 2794.02,-34.68 2795.98,-33.93"/>
<polygon fill="black" stroke="black" points="2797.75,-36.97 2805.58,-29.83 2795.01,-30.53 2797.75,-36.97"/>
<text text-anchor="middle" x="2737.64" y="-57.8" font-family="Times,serif" font-size="14.00">dep</text>
</g>
<!-- 31 -->
<g id="node32" class="node">
<title>31</title>
<ellipse fill="none" stroke="black" cx="2924.14" cy="-18" rx="53.09" ry="18"/>
<text text-anchor="middle" x="2924.14" y="-14.3" font-family="Times,serif" font-size="14.00">realizada</text>
</g>
<!-- 0&#45;&gt;31 -->
<g id="edge31" class="edge">
<title>0&#45;&gt;31</title>
<path fill="none" stroke="black" d="M1622.52,-104.13C1775.61,-104.7 2526.86,-105.58 2755.14,-69 2798.73,-62.02 2846.86,-47.03 2880.57,-35.27"/>
<polygon fill="black" stroke="black" points="2881.85,-38.53 2890.11,-31.89 2879.52,-31.93 2881.85,-38.53"/>
<text text-anchor="middle" x="2835.64" y="-57.8" font-family="Times,serif" font-size="14.00">dep</text>
</g>
<!-- 32 -->
<g id="node33" class="node">
<title>32</title>
<ellipse fill="none" stroke="black" cx="3022.14" cy="-18" rx="27" ry="18"/>
<text text-anchor="middle" x="3022.14" y="-14.3" font-family="Times,serif" font-size="14.00">em</text>
</g>
<!-- 0&#45;&gt;32 -->
<g id="edge32" class="edge">
<title>0&#45;&gt;32</title>
<path fill="none" stroke="black" d="M1622.16,-104.04C1781.8,-104.15 2603.38,-103.06 2853.14,-69 2913.49,-60.77 2928.77,-56.44 2986.14,-36 2988.05,-35.32 2989.99,-34.58 2991.93,-33.79"/>
<polygon fill="black" stroke="black" points="2993.74,-36.82 3001.5,-29.6 2990.94,-30.4 2993.74,-36.82"/>
<text text-anchor="middle" x="2945.64" y="-57.8" font-family="Times,serif" font-size="14.00">dep</text>
</g>
<!-- 33 -->
<g id="node34" class="node">
<title>33</title>
<ellipse fill="none" stroke="black" cx="3094.14" cy="-18" rx="27" ry="18"/>
<text text-anchor="middle" x="3094.14" y="-14.3" font-family="Times,serif" font-size="14.00">90</text>
</g>
<!-- 0&#45;&gt;33 -->
<g id="edge33" class="edge">
<title>0&#45;&gt;33</title>
<path fill="none" stroke="black" d="M1622.12,-103.81C1802.16,-102.47 2826.77,-93.81 2963.14,-69 2999.25,-62.43 3038.25,-46.26 3064.23,-34.08"/>
<polygon fill="black" stroke="black" points="3066,-37.11 3073.51,-29.63 3062.98,-30.79 3066,-37.11"/>
<text text-anchor="middle" x="3028.64" y="-57.8" font-family="Times,serif" font-size="14.00">dep</text>
</g>
<!-- 34 -->
<g id="node35" class="node">
<title>34</title>
<ellipse fill="none" stroke="black" cx="3166.14" cy="-18" rx="27" ry="18"/>
<text text-anchor="middle" x="3166.14" y="-14.3" font-family="Times,serif" font-size="14.00">.</text>
</g>
<!-- 0&#45;&gt;34 -->
<g id="edge34" class="edge">
<title>0&#45;&gt;34</title>
<path fill="none" stroke="black" d="M1622.25,-103.92C1808.98,-103.26 2901.65,-98.17 3046.14,-69 3078.62,-62.44 3113.3,-46.97 3136.99,-34.96"/>
<polygon fill="black" stroke="black" points="3138.85,-37.93 3146.11,-30.22 3135.63,-31.72 3138.85,-37.93"/>
<text text-anchor="middle" x="3107.64" y="-57.8" font-family="Times,serif" font-size="14.00">dep</text>
</g>
</g>
</svg>
