<?xml version="1.0" encoding="UTF-8" standalone="no"?>
<!DOCTYPE svg PUBLIC "-//W3C//DTD SVG 1.1//EN"
 "http://www.w3.org/Graphics/SVG/1.1/DTD/svg11.dtd">
<!-- Generated by graphviz version 2.42.4 (0)
 -->
<!-- Pages: 1 -->
<svg width="2159pt" height="131pt"
 viewBox="0.00 0.00 2159.00 131.00" xmlns="http://www.w3.org/2000/svg" xmlns:xlink="http://www.w3.org/1999/xlink">
<g id="graph0" class="graph" transform="scale(1 1) rotate(0) translate(4 127)">
<polygon fill="white" stroke="transparent" points="-4,4 -4,-127 2155,-127 2155,4 -4,4"/>
<!-- 0 -->
<g id="node1" class="node">
<title>0</title>
<ellipse fill="none" stroke="black" cx="1014" cy="-105" rx="42.49" ry="18"/>
<text text-anchor="middle" x="1014" y="-101.3" font-family="Times,serif" font-size="14.00">Outras</text>
</g>
<!-- 1 -->
<g id="node2" class="node">
<title>1</title>
<ellipse fill="none" stroke="black" cx="27" cy="-18" rx="27" ry="18"/>
<text text-anchor="middle" x="27" y="-14.3" font-family="Times,serif" font-size="14.00">de</text>
</g>
<!-- 0&#45;&gt;1 -->
<g id="edge1" class="edge">
<title>0&#45;&gt;1</title>
<path fill="none" stroke="black" d="M971.66,-103.67C823.3,-102.28 327.49,-95.7 171,-69 121.52,-60.56 109.81,-54.1 63,-36 61.16,-35.29 59.29,-34.53 57.41,-33.73"/>
<polygon fill="black" stroke="black" points="58.66,-30.46 48.1,-29.59 55.81,-36.85 58.66,-30.46"/>
<text text-anchor="middle" x="184.5" y="-57.8" font-family="Times,serif" font-size="14.00">dep</text>
</g>
<!-- 2 -->
<g id="node3" class="node">
<title>2</title>
<ellipse fill="none" stroke="black" cx="99" cy="-18" rx="27" ry="18"/>
<text text-anchor="middle" x="99" y="-14.3" font-family="Times,serif" font-size="14.00">as</text>
</g>
<!-- 0&#45;&gt;2 -->
<g id="edge2" class="edge">
<title>0&#45;&gt;2</title>
<path fill="none" stroke="black" d="M971.5,-103.87C861.88,-103.1 560.74,-98.25 312,-69 232.53,-59.65 211.14,-60.62 135,-36 133.08,-35.38 131.12,-34.68 129.17,-33.92"/>
<polygon fill="black" stroke="black" points="130.14,-30.53 119.57,-29.82 127.39,-36.97 130.14,-30.53"/>
<text text-anchor="middle" x="325.5" y="-57.8" font-family="Times,serif" font-size="14.00">dep</text>
</g>
<!-- 3 -->
<g id="node4" class="node">
<title>3</title>
<ellipse fill="none" stroke="black" cx="202" cy="-18" rx="58.49" ry="18"/>
<text text-anchor="middle" x="202" y="-14.3" font-family="Times,serif" font-size="14.00">alterações</text>
</g>
<!-- 0&#45;&gt;3 -->
<g id="edge3" class="edge">
<title>0&#45;&gt;3</title>
<path fill="none" stroke="black" d="M971.79,-103.72C874.44,-102.6 626.79,-96.97 422,-69 363.55,-61.02 297.73,-45.12 253.44,-33.39"/>
<polygon fill="black" stroke="black" points="254.34,-30 243.77,-30.8 252.53,-36.77 254.34,-30"/>
<text text-anchor="middle" x="435.5" y="-57.8" font-family="Times,serif" font-size="14.00">dep</text>
</g>
<!-- 4 -->
<g id="node5" class="node">
<title>4</title>
<ellipse fill="none" stroke="black" cx="347" cy="-18" rx="68.79" ry="18"/>
<text text-anchor="middle" x="347" y="-14.3" font-family="Times,serif" font-size="14.00">introduzidas</text>
</g>
<!-- 0&#45;&gt;4 -->
<g id="edge4" class="edge">
<title>0&#45;&gt;4</title>
<path fill="none" stroke="black" d="M971.62,-104.24C884.68,-104.03 680.19,-99.94 512,-69 471.58,-61.56 427.06,-47.72 394.46,-36.49"/>
<polygon fill="black" stroke="black" points="395.34,-33.08 384.74,-33.09 393.03,-39.69 395.34,-33.08"/>
<text text-anchor="middle" x="525.5" y="-57.8" font-family="Times,serif" font-size="14.00">dep</text>
</g>
<!-- 5 -->
<g id="node6" class="node">
<title>5</title>
<ellipse fill="none" stroke="black" cx="461" cy="-18" rx="27" ry="18"/>
<text text-anchor="middle" x="461" y="-14.3" font-family="Times,serif" font-size="14.00">em</text>
</g>
<!-- 0&#45;&gt;5 -->
<g id="edge5" class="edge">
<title>0&#45;&gt;5</title>
<path fill="none" stroke="black" d="M971.54,-104.16C894.44,-103.64 726.66,-98.81 589,-69 554.27,-61.48 516.61,-45.78 491.2,-33.97"/>
<polygon fill="black" stroke="black" points="492.63,-30.77 482.09,-29.66 489.63,-37.1 492.63,-30.77"/>
<text text-anchor="middle" x="602.5" y="-57.8" font-family="Times,serif" font-size="14.00">dep</text>
</g>
<!-- 6 -->
<g id="node7" class="node">
<title>6</title>
<ellipse fill="none" stroke="black" cx="533" cy="-18" rx="27" ry="18"/>
<text text-anchor="middle" x="533" y="-14.3" font-family="Times,serif" font-size="14.00">o</text>
</g>
<!-- 0&#45;&gt;6 -->
<g id="edge6" class="edge">
<title>0&#45;&gt;6</title>
<path fill="none" stroke="black" d="M972.23,-102.1C908.63,-98.65 783.92,-89.71 680,-69 629.53,-58.94 617.08,-54.37 569,-36 567.16,-35.3 565.28,-34.54 563.4,-33.75"/>
<polygon fill="black" stroke="black" points="564.65,-30.47 554.09,-29.61 561.81,-36.87 564.65,-30.47"/>
<text text-anchor="middle" x="693.5" y="-57.8" font-family="Times,serif" font-size="14.00">dep</text>
</g>
<!-- 7 -->
<g id="node8" class="node">
<title>7</title>
<ellipse fill="none" stroke="black" cx="627" cy="-18" rx="48.99" ry="18"/>
<text text-anchor="middle" x="627" y="-14.3" font-family="Times,serif" font-size="14.00">projecto</text>
</g>
<!-- 0&#45;&gt;7 -->
<g id="edge7" class="edge">
<title>0&#45;&gt;7</title>
<path fill="none" stroke="black" d="M972.65,-101.27C921.57,-97.23 832.32,-88 758,-69 726.11,-60.85 691.36,-47.36 665.66,-36.44"/>
<polygon fill="black" stroke="black" points="666.86,-33.14 656.29,-32.4 664.09,-39.57 666.86,-33.14"/>
<text text-anchor="middle" x="771.5" y="-57.8" font-family="Times,serif" font-size="14.00">dep</text>
</g>
<!-- 8 -->
<g id="node9" class="node">
<title>8</title>
<ellipse fill="none" stroke="black" cx="721" cy="-18" rx="27" ry="18"/>
<text text-anchor="middle" x="721" y="-14.3" font-family="Times,serif" font-size="14.00">de</text>
</g>
<!-- 0&#45;&gt;8 -->
<g id="edge8" class="edge">
<title>0&#45;&gt;8</title>
<path fill="none" stroke="black" d="M973.55,-99.76C934.54,-94.92 874.19,-85.47 824,-69 797.91,-60.44 769.99,-46.56 749.81,-35.6"/>
<polygon fill="black" stroke="black" points="751.29,-32.41 740.84,-30.64 747.9,-38.54 751.29,-32.41"/>
<text text-anchor="middle" x="837.5" y="-57.8" font-family="Times,serif" font-size="14.00">dep</text>
</g>
<!-- 9 -->
<g id="node10" class="node">
<title>9</title>
<ellipse fill="none" stroke="black" cx="793" cy="-18" rx="27" ry="18"/>
<text text-anchor="middle" x="793" y="-14.3" font-family="Times,serif" font-size="14.00">lei</text>
</g>
<!-- 0&#45;&gt;9 -->
<g id="edge9" class="edge">
<title>0&#45;&gt;9</title>
<path fill="none" stroke="black" d="M976.86,-96.2C950.92,-90.18 915.74,-80.88 886,-69 863.24,-59.91 838.89,-46.67 820.81,-36.11"/>
<polygon fill="black" stroke="black" points="822.36,-32.95 811.98,-30.86 818.79,-38.97 822.36,-32.95"/>
<text text-anchor="middle" x="899.5" y="-57.8" font-family="Times,serif" font-size="14.00">dep</text>
</g>
<!-- 10 -->
<g id="node11" class="node">
<title>10</title>
<ellipse fill="none" stroke="black" cx="865" cy="-18" rx="27" ry="18"/>
<text text-anchor="middle" x="865" y="-14.3" font-family="Times,serif" font-size="14.00">diz</text>
</g>
<!-- 0&#45;&gt;10 -->
<g id="edge10" class="edge">
<title>0&#45;&gt;10</title>
<path fill="none" stroke="black" d="M985.4,-91.65C971.46,-85.34 954.6,-77.26 940,-69 923.19,-59.49 905.16,-47.53 891,-37.7"/>
<polygon fill="black" stroke="black" points="892.91,-34.77 882.72,-31.88 888.89,-40.49 892.91,-34.77"/>
<text text-anchor="middle" x="953.5" y="-57.8" font-family="Times,serif" font-size="14.00">dep</text>
</g>
<!-- 11 -->
<g id="node12" class="node">
<title>11</title>
<ellipse fill="none" stroke="black" cx="937" cy="-18" rx="27" ry="18"/>
<text text-anchor="middle" x="937" y="-14.3" font-family="Times,serif" font-size="14.00">,</text>
</g>
<!-- 0&#45;&gt;11 -->
<g id="edge11" class="edge">
<title>0&#45;&gt;11</title>
<path fill="none" stroke="black" d="M999.52,-88.01C987.61,-74.87 970.59,-56.08 957.32,-41.43"/>
<polygon fill="black" stroke="black" points="959.7,-38.84 950.39,-33.78 954.51,-43.54 959.7,-38.84"/>
<text text-anchor="middle" x="994.5" y="-57.8" font-family="Times,serif" font-size="14.00">dep</text>
</g>
<!-- 12 -->
<g id="node13" class="node">
<title>12</title>
<ellipse fill="none" stroke="black" cx="1014" cy="-18" rx="32.49" ry="18"/>
<text text-anchor="middle" x="1014" y="-14.3" font-family="Times,serif" font-size="14.00">aliás</text>
</g>
<!-- 0&#45;&gt;12 -->
<g id="edge12" class="edge">
<title>0&#45;&gt;12</title>
<path fill="none" stroke="black" d="M1014,-86.8C1014,-75.16 1014,-59.55 1014,-46.24"/>
<polygon fill="black" stroke="black" points="1017.5,-46.18 1014,-36.18 1010.5,-46.18 1017.5,-46.18"/>
<text text-anchor="middle" x="1027.5" y="-57.8" font-family="Times,serif" font-size="14.00">dep</text>
</g>
<!-- 13 -->
<g id="node14" class="node">
<title>13</title>
<ellipse fill="none" stroke="black" cx="1091" cy="-18" rx="27" ry="18"/>
<text text-anchor="middle" x="1091" y="-14.3" font-family="Times,serif" font-size="14.00">,</text>
</g>
<!-- 0&#45;&gt;13 -->
<g id="edge13" class="edge">
<title>0&#45;&gt;13</title>
<path fill="none" stroke="black" d="M1028.48,-88.01C1040.39,-74.87 1057.41,-56.08 1070.68,-41.43"/>
<polygon fill="black" stroke="black" points="1073.49,-43.54 1077.61,-33.78 1068.3,-38.84 1073.49,-43.54"/>
<text text-anchor="middle" x="1071.5" y="-57.8" font-family="Times,serif" font-size="14.00">dep</text>
</g>
<!-- 14 -->
<g id="node15" class="node">
<title>14</title>
<ellipse fill="none" stroke="black" cx="1185" cy="-18" rx="48.99" ry="18"/>
<text text-anchor="middle" x="1185" y="-14.3" font-family="Times,serif" font-size="14.00">respeito</text>
</g>
<!-- 0&#45;&gt;14 -->
<g id="edge14" class="edge">
<title>0&#45;&gt;14</title>
<path fill="none" stroke="black" d="M1041.92,-91.32C1056.09,-84.8 1073.54,-76.63 1089,-69 1109.09,-59.09 1131.29,-47.56 1149.27,-38.08"/>
<polygon fill="black" stroke="black" points="1151.06,-41.09 1158.26,-33.32 1147.79,-34.91 1151.06,-41.09"/>
<text text-anchor="middle" x="1132.5" y="-57.8" font-family="Times,serif" font-size="14.00">dep</text>
</g>
<!-- 15 -->
<g id="node16" class="node">
<title>15</title>
<ellipse fill="none" stroke="black" cx="1279" cy="-18" rx="27" ry="18"/>
<text text-anchor="middle" x="1279" y="-14.3" font-family="Times,serif" font-size="14.00">a</text>
</g>
<!-- 0&#45;&gt;15 -->
<g id="edge15" class="edge">
<title>0&#45;&gt;15</title>
<path fill="none" stroke="black" d="M1050.32,-95.58C1077.86,-88.98 1116.54,-79.22 1150,-69 1191.95,-56.19 1202.45,-52.72 1243,-36 1244.82,-35.25 1246.68,-34.45 1248.55,-33.64"/>
<polygon fill="black" stroke="black" points="1250.18,-36.74 1257.84,-29.42 1247.28,-30.37 1250.18,-36.74"/>
<text text-anchor="middle" x="1209.5" y="-57.8" font-family="Times,serif" font-size="14.00">dep</text>
</g>
<!-- 16 -->
<g id="node17" class="node">
<title>16</title>
<ellipse fill="none" stroke="black" cx="1351" cy="-18" rx="27" ry="18"/>
<text text-anchor="middle" x="1351" y="-14.3" font-family="Times,serif" font-size="14.00">a</text>
</g>
<!-- 0&#45;&gt;16 -->
<g id="edge16" class="edge">
<title>0&#45;&gt;16</title>
<path fill="none" stroke="black" d="M1054.54,-99.74C1097.77,-94.63 1167.98,-84.75 1227,-69 1267.36,-58.23 1276.53,-52.27 1315,-36 1316.81,-35.23 1318.67,-34.43 1320.54,-33.6"/>
<polygon fill="black" stroke="black" points="1322.17,-36.7 1329.81,-29.36 1319.26,-30.33 1322.17,-36.7"/>
<text text-anchor="middle" x="1285.5" y="-57.8" font-family="Times,serif" font-size="14.00">dep</text>
</g>
<!-- 17 -->
<g id="node18" class="node">
<title>17</title>
<ellipse fill="none" stroke="black" cx="1449" cy="-18" rx="53.09" ry="18"/>
<text text-anchor="middle" x="1449" y="-14.3" font-family="Times,serif" font-size="14.00">iniciativa</text>
</g>
<!-- 0&#45;&gt;17 -->
<g id="edge17" class="edge">
<title>0&#45;&gt;17</title>
<path fill="none" stroke="black" d="M1055.63,-101.7C1112.21,-97.96 1216.3,-88.87 1303,-69 1338.9,-60.77 1378.34,-46.97 1407.17,-35.94"/>
<polygon fill="black" stroke="black" points="1408.46,-39.2 1416.52,-32.32 1405.93,-32.67 1408.46,-39.2"/>
<text text-anchor="middle" x="1370.5" y="-57.8" font-family="Times,serif" font-size="14.00">dep</text>
</g>
<!-- 18 -->
<g id="node19" class="node">
<title>18</title>
<ellipse fill="none" stroke="black" cx="1579" cy="-18" rx="58.49" ry="18"/>
<text text-anchor="middle" x="1579" y="-14.3" font-family="Times,serif" font-size="14.00">legislativa</text>
</g>
<!-- 0&#45;&gt;18 -->
<g id="edge18" class="edge">
<title>0&#45;&gt;18</title>
<path fill="none" stroke="black" d="M1055.8,-102.31C1125.24,-99 1268.55,-90.08 1388,-69 1436.8,-60.39 1491.4,-45.56 1529.69,-34.28"/>
<polygon fill="black" stroke="black" points="1530.96,-37.55 1539.54,-31.34 1528.96,-30.84 1530.96,-37.55"/>
<text text-anchor="middle" x="1470.5" y="-57.8" font-family="Times,serif" font-size="14.00">dep</text>
</g>
<!-- 19 -->
<g id="node20" class="node">
<title>19</title>
<ellipse fill="none" stroke="black" cx="1683" cy="-18" rx="27.9" ry="18"/>
<text text-anchor="middle" x="1683" y="-14.3" font-family="Times,serif" font-size="14.00">que</text>
</g>
<!-- 0&#45;&gt;19 -->
<g id="edge19" class="edge">
<title>0&#45;&gt;19</title>
<path fill="none" stroke="black" d="M1056.05,-102.76C1139.01,-99.9 1329.48,-91.31 1488,-69 1559.04,-59 1577.87,-58.45 1646,-36 1647.91,-35.37 1649.86,-34.67 1651.81,-33.92"/>
<polygon fill="black" stroke="black" points="1653.54,-36.99 1661.41,-29.9 1650.84,-30.53 1653.54,-36.99"/>
<text text-anchor="middle" x="1595.5" y="-57.8" font-family="Times,serif" font-size="14.00">dep</text>
</g>
<!-- 20 -->
<g id="node21" class="node">
<title>20</title>
<ellipse fill="none" stroke="black" cx="1814" cy="-18" rx="85.29" ry="18"/>
<text text-anchor="middle" x="1814" y="-14.3" font-family="Times,serif" font-size="14.00">inevitavelmente</text>
</g>
<!-- 0&#45;&gt;20 -->
<g id="edge20" class="edge">
<title>0&#45;&gt;20</title>
<path fill="none" stroke="black" d="M1056.4,-104.21C1154.79,-104.12 1406,-100.51 1613,-69 1662.49,-61.47 1717.59,-47.34 1757.56,-36.02"/>
<polygon fill="black" stroke="black" points="1758.74,-39.33 1767.39,-33.21 1756.81,-32.6 1758.74,-39.33"/>
<text text-anchor="middle" x="1699.5" y="-57.8" font-family="Times,serif" font-size="14.00">dep</text>
</g>
<!-- 21 -->
<g id="node22" class="node">
<title>21</title>
<ellipse fill="none" stroke="black" cx="1944" cy="-18" rx="27" ry="18"/>
<text text-anchor="middle" x="1944" y="-14.3" font-family="Times,serif" font-size="14.00">se</text>
</g>
<!-- 0&#45;&gt;21 -->
<g id="edge21" class="edge">
<title>0&#45;&gt;21</title>
<path fill="none" stroke="black" d="M1056.14,-103.68C1165.53,-102.47 1467.41,-96.67 1717,-69 1802.62,-59.51 1825.86,-61.96 1908,-36 1909.93,-35.39 1911.88,-34.7 1913.84,-33.95"/>
<polygon fill="black" stroke="black" points="1915.61,-37 1923.45,-29.87 1912.87,-30.56 1915.61,-37"/>
<text text-anchor="middle" x="1853.5" y="-57.8" font-family="Times,serif" font-size="14.00">dep</text>
</g>
<!-- 22 -->
<g id="node23" class="node">
<title>22</title>
<ellipse fill="none" stroke="black" cx="2034" cy="-18" rx="45.49" ry="18"/>
<text text-anchor="middle" x="2034" y="-14.3" font-family="Times,serif" font-size="14.00">seguirá</text>
</g>
<!-- 0&#45;&gt;22 -->
<g id="edge22" class="edge">
<title>0&#45;&gt;22</title>
<path fill="none" stroke="black" d="M1056.26,-103.69C1206.11,-102.36 1711.6,-95.94 1871,-69 1913.58,-61.8 1960.58,-46.57 1993.12,-34.8"/>
<polygon fill="black" stroke="black" points="1994.55,-38 2002.73,-31.27 1992.14,-31.43 1994.55,-38"/>
<text text-anchor="middle" x="1944.5" y="-57.8" font-family="Times,serif" font-size="14.00">dep</text>
</g>
<!-- 23 -->
<g id="node24" class="node">
<title>23</title>
<ellipse fill="none" stroke="black" cx="2124" cy="-18" rx="27" ry="18"/>
<text text-anchor="middle" x="2124" y="-14.3" font-family="Times,serif" font-size="14.00">.</text>
</g>
<!-- 0&#45;&gt;23 -->
<g id="edge23" class="edge">
<title>0&#45;&gt;23</title>
<path fill="none" stroke="black" d="M1056.23,-103.67C1216.01,-102.23 1783.49,-95.35 1962,-69 2019.27,-60.55 2033.59,-55.78 2088,-36 2089.85,-35.33 2091.74,-34.59 2093.63,-33.82"/>
<polygon fill="black" stroke="black" points="2095.2,-36.95 2102.96,-29.73 2092.39,-30.54 2095.2,-36.95"/>
<text text-anchor="middle" x="2048.5" y="-57.8" font-family="Times,serif" font-size="14.00">dep</text>
</g>
</g>
</svg>
