<?xml version="1.0" encoding="UTF-8" standalone="no"?>
<!DOCTYPE svg PUBLIC "-//W3C//DTD SVG 1.1//EN"
 "http://www.w3.org/Graphics/SVG/1.1/DTD/svg11.dtd">
<!-- Generated by graphviz version 2.42.4 (0)
 -->
<!-- Pages: 1 -->
<svg width="1645pt" height="131pt"
 viewBox="0.00 0.00 1644.95 131.00" xmlns="http://www.w3.org/2000/svg" xmlns:xlink="http://www.w3.org/1999/xlink">
<g id="graph0" class="graph" transform="scale(1 1) rotate(0) translate(4 127)">
<polygon fill="white" stroke="transparent" points="-4,4 -4,-127 1640.95,-127 1640.95,4 -4,4"/>
<!-- 0 -->
<g id="node1" class="node">
<title>0</title>
<ellipse fill="none" stroke="black" cx="799.95" cy="-105" rx="32.49" ry="18"/>
<text text-anchor="middle" x="799.95" y="-101.3" font-family="Times,serif" font-size="14.00">Uma</text>
</g>
<!-- 1 -->
<g id="node2" class="node">
<title>1</title>
<ellipse fill="none" stroke="black" cx="40.95" cy="-18" rx="40.89" ry="18"/>
<text text-anchor="middle" x="40.95" y="-14.3" font-family="Times,serif" font-size="14.00">defesa</text>
</g>
<!-- 0&#45;&gt;1 -->
<g id="edge1" class="edge">
<title>0&#45;&gt;1</title>
<path fill="none" stroke="black" d="M767.3,-103.17C658.13,-100.24 306.33,-89.4 194.95,-69 154.53,-61.6 110.06,-46.35 79.34,-34.62"/>
<polygon fill="black" stroke="black" points="80.46,-31.3 69.87,-30.95 77.93,-37.83 80.46,-31.3"/>
<text text-anchor="middle" x="208.45" y="-57.8" font-family="Times,serif" font-size="14.00">dep</text>
</g>
<!-- 2 -->
<g id="node3" class="node">
<title>2</title>
<ellipse fill="none" stroke="black" cx="129.95" cy="-18" rx="30.59" ry="18"/>
<text text-anchor="middle" x="129.95" y="-14.3" font-family="Times,serif" font-size="14.00">bem</text>
</g>
<!-- 0&#45;&gt;2 -->
<g id="edge2" class="edge">
<title>0&#45;&gt;2</title>
<path fill="none" stroke="black" d="M767.28,-103.82C686.68,-102.91 472.11,-97.75 295.95,-69 238.39,-59.61 224.07,-55.04 168.95,-36 166.85,-35.27 164.7,-34.49 162.55,-33.66"/>
<polygon fill="black" stroke="black" points="163.8,-30.39 153.22,-29.85 161.16,-36.87 163.8,-30.39"/>
<text text-anchor="middle" x="309.45" y="-57.8" font-family="Times,serif" font-size="14.00">dep</text>
</g>
<!-- 3 -->
<g id="node4" class="node">
<title>3</title>
<ellipse fill="none" stroke="black" cx="228.95" cy="-18" rx="50.89" ry="18"/>
<text text-anchor="middle" x="228.95" y="-14.3" font-family="Times,serif" font-size="14.00">parecida</text>
</g>
<!-- 0&#45;&gt;3 -->
<g id="edge3" class="edge">
<title>0&#45;&gt;3</title>
<path fill="none" stroke="black" d="M767.33,-103.83C696.47,-102.91 523.45,-97.64 381.95,-69 343.39,-61.2 300.98,-46.86 270.6,-35.53"/>
<polygon fill="black" stroke="black" points="271.78,-32.23 261.19,-31.97 269.3,-38.78 271.78,-32.23"/>
<text text-anchor="middle" x="395.45" y="-57.8" font-family="Times,serif" font-size="14.00">dep</text>
</g>
<!-- 4 -->
<g id="node5" class="node">
<title>4</title>
<ellipse fill="none" stroke="black" cx="327.95" cy="-18" rx="29.8" ry="18"/>
<text text-anchor="middle" x="327.95" y="-14.3" font-family="Times,serif" font-size="14.00">com</text>
</g>
<!-- 0&#45;&gt;4 -->
<g id="edge4" class="edge">
<title>0&#45;&gt;4</title>
<path fill="none" stroke="black" d="M767.55,-102.82C707.75,-100.14 576.24,-91.96 467.95,-69 421.34,-59.12 410.42,-53.09 365.95,-36 364.12,-35.3 362.26,-34.56 360.39,-33.79"/>
<polygon fill="black" stroke="black" points="361.66,-30.53 351.09,-29.83 358.92,-36.97 361.66,-30.53"/>
<text text-anchor="middle" x="481.45" y="-57.8" font-family="Times,serif" font-size="14.00">dep</text>
</g>
<!-- 5 -->
<g id="node6" class="node">
<title>5</title>
<ellipse fill="none" stroke="black" cx="416.95" cy="-18" rx="41.69" ry="18"/>
<text text-anchor="middle" x="416.95" y="-14.3" font-family="Times,serif" font-size="14.00">aquela</text>
</g>
<!-- 0&#45;&gt;5 -->
<g id="edge5" class="edge">
<title>0&#45;&gt;5</title>
<path fill="none" stroke="black" d="M767.67,-102.02C718.81,-98.47 623.44,-89.41 544.95,-69 513.21,-60.75 478.66,-46.94 453.46,-35.93"/>
<polygon fill="black" stroke="black" points="454.84,-32.72 444.28,-31.86 452.01,-39.11 454.84,-32.72"/>
<text text-anchor="middle" x="558.45" y="-57.8" font-family="Times,serif" font-size="14.00">dep</text>
</g>
<!-- 6 -->
<g id="node7" class="node">
<title>6</title>
<ellipse fill="none" stroke="black" cx="503.95" cy="-18" rx="27" ry="18"/>
<text text-anchor="middle" x="503.95" y="-14.3" font-family="Times,serif" font-size="14.00">de</text>
</g>
<!-- 0&#45;&gt;6 -->
<g id="edge6" class="edge">
<title>0&#45;&gt;6</title>
<path fill="none" stroke="black" d="M768.43,-100.54C730.61,-95.83 665.59,-86 611.95,-69 578.39,-58.37 571.86,-50.85 539.95,-36 538.16,-35.17 536.33,-34.31 534.48,-33.45"/>
<polygon fill="black" stroke="black" points="535.79,-30.2 525.25,-29.11 532.81,-36.53 535.79,-30.2"/>
<text text-anchor="middle" x="625.45" y="-57.8" font-family="Times,serif" font-size="14.00">dep</text>
</g>
<!-- 7 -->
<g id="node8" class="node">
<title>7</title>
<ellipse fill="none" stroke="black" cx="579.95" cy="-18" rx="30.59" ry="18"/>
<text text-anchor="middle" x="579.95" y="-14.3" font-family="Times,serif" font-size="14.00">Lula</text>
</g>
<!-- 0&#45;&gt;7 -->
<g id="edge7" class="edge">
<title>0&#45;&gt;7</title>
<path fill="none" stroke="black" d="M770.07,-97.64C744.15,-91.67 705.89,-81.75 673.95,-69 651.43,-60.01 627.32,-47.11 609.15,-36.67"/>
<polygon fill="black" stroke="black" points="610.63,-33.48 600.23,-31.46 607.11,-39.52 610.63,-33.48"/>
<text text-anchor="middle" x="687.45" y="-57.8" font-family="Times,serif" font-size="14.00">dep</text>
</g>
<!-- 8 -->
<g id="node9" class="node">
<title>8</title>
<ellipse fill="none" stroke="black" cx="655.95" cy="-18" rx="27" ry="18"/>
<text text-anchor="middle" x="655.95" y="-14.3" font-family="Times,serif" font-size="14.00">,</text>
</g>
<!-- 0&#45;&gt;8 -->
<g id="edge8" class="edge">
<title>0&#45;&gt;8</title>
<path fill="none" stroke="black" d="M774.71,-93.41C760.13,-86.96 741.63,-78.21 725.95,-69 710.31,-59.82 693.76,-48.1 680.68,-38.32"/>
<polygon fill="black" stroke="black" points="682.72,-35.47 672.63,-32.21 678.49,-41.04 682.72,-35.47"/>
<text text-anchor="middle" x="739.45" y="-57.8" font-family="Times,serif" font-size="14.00">dep</text>
</g>
<!-- 9 -->
<g id="node10" class="node">
<title>9</title>
<ellipse fill="none" stroke="black" cx="727.95" cy="-18" rx="27" ry="18"/>
<text text-anchor="middle" x="727.95" y="-14.3" font-family="Times,serif" font-size="14.00">em</text>
</g>
<!-- 0&#45;&gt;9 -->
<g id="edge9" class="edge">
<title>0&#45;&gt;9</title>
<path fill="none" stroke="black" d="M785.93,-88.43C780.57,-82.41 774.42,-75.42 768.95,-69 761.63,-60.41 753.74,-50.86 746.85,-42.43"/>
<polygon fill="black" stroke="black" points="749.38,-39.99 740.36,-34.44 743.95,-44.41 749.38,-39.99"/>
<text text-anchor="middle" x="782.45" y="-57.8" font-family="Times,serif" font-size="14.00">dep</text>
</g>
<!-- 10 -->
<g id="node11" class="node">
<title>10</title>
<ellipse fill="none" stroke="black" cx="799.95" cy="-18" rx="27" ry="18"/>
<text text-anchor="middle" x="799.95" y="-14.3" font-family="Times,serif" font-size="14.00">o</text>
</g>
<!-- 0&#45;&gt;10 -->
<g id="edge10" class="edge">
<title>0&#45;&gt;10</title>
<path fill="none" stroke="black" d="M799.95,-86.8C799.95,-75.16 799.95,-59.55 799.95,-46.24"/>
<polygon fill="black" stroke="black" points="803.45,-46.18 799.95,-36.18 796.45,-46.18 803.45,-46.18"/>
<text text-anchor="middle" x="813.45" y="-57.8" font-family="Times,serif" font-size="14.00">dep</text>
</g>
<!-- 11 -->
<g id="node12" class="node">
<title>11</title>
<ellipse fill="none" stroke="black" cx="889.95" cy="-18" rx="45.49" ry="18"/>
<text text-anchor="middle" x="889.95" y="-14.3" font-family="Times,serif" font-size="14.00">começo</text>
</g>
<!-- 0&#45;&gt;11 -->
<g id="edge11" class="edge">
<title>0&#45;&gt;11</title>
<path fill="none" stroke="black" d="M815.62,-89.19C829.47,-76.11 849.89,-56.83 865.82,-41.79"/>
<polygon fill="black" stroke="black" points="868.36,-44.2 873.23,-34.79 863.56,-39.11 868.36,-44.2"/>
<text text-anchor="middle" x="864.45" y="-57.8" font-family="Times,serif" font-size="14.00">dep</text>
</g>
<!-- 12 -->
<g id="node13" class="node">
<title>12</title>
<ellipse fill="none" stroke="black" cx="979.95" cy="-18" rx="27" ry="18"/>
<text text-anchor="middle" x="979.95" y="-14.3" font-family="Times,serif" font-size="14.00">de</text>
</g>
<!-- 0&#45;&gt;12 -->
<g id="edge12" class="edge">
<title>0&#45;&gt;12</title>
<path fill="none" stroke="black" d="M825.63,-93.57C841.9,-86.83 863.3,-77.72 881.95,-69 905.29,-58.08 931.25,-44.78 950.58,-34.65"/>
<polygon fill="black" stroke="black" points="952.28,-37.7 959.5,-29.95 949.02,-31.51 952.28,-37.7"/>
<text text-anchor="middle" x="925.45" y="-57.8" font-family="Times,serif" font-size="14.00">dep</text>
</g>
<!-- 13 -->
<g id="node14" class="node">
<title>13</title>
<ellipse fill="none" stroke="black" cx="1051.95" cy="-18" rx="27" ry="18"/>
<text text-anchor="middle" x="1051.95" y="-14.3" font-family="Times,serif" font-size="14.00">as</text>
</g>
<!-- 0&#45;&gt;13 -->
<g id="edge13" class="edge">
<title>0&#45;&gt;13</title>
<path fill="none" stroke="black" d="M830.27,-98.28C859.54,-92.35 904.89,-82.13 942.95,-69 976.6,-57.38 983.62,-50.94 1015.95,-36 1017.73,-35.17 1019.57,-34.32 1021.42,-33.46"/>
<polygon fill="black" stroke="black" points="1023.09,-36.54 1030.65,-29.13 1020.11,-30.21 1023.09,-36.54"/>
<text text-anchor="middle" x="992.45" y="-57.8" font-family="Times,serif" font-size="14.00">dep</text>
</g>
<!-- 14 -->
<g id="node15" class="node">
<title>14</title>
<ellipse fill="none" stroke="black" cx="1154.95" cy="-18" rx="57.69" ry="18"/>
<text text-anchor="middle" x="1154.95" y="-14.3" font-family="Times,serif" font-size="14.00">denúncias</text>
</g>
<!-- 0&#45;&gt;14 -->
<g id="edge14" class="edge">
<title>0&#45;&gt;14</title>
<path fill="none" stroke="black" d="M831.59,-100.4C873,-95.31 947.61,-84.82 1009.95,-69 1044.58,-60.21 1082.74,-46.9 1111.22,-36.22"/>
<polygon fill="black" stroke="black" points="1112.76,-39.38 1120.87,-32.56 1110.27,-32.83 1112.76,-39.38"/>
<text text-anchor="middle" x="1072.45" y="-57.8" font-family="Times,serif" font-size="14.00">dep</text>
</g>
<!-- 15 -->
<g id="node16" class="node">
<title>15</title>
<ellipse fill="none" stroke="black" cx="1270.95" cy="-18" rx="40.09" ry="18"/>
<text text-anchor="middle" x="1270.95" y="-14.3" font-family="Times,serif" font-size="14.00">contra</text>
</g>
<!-- 0&#45;&gt;15 -->
<g id="edge15" class="edge">
<title>0&#45;&gt;15</title>
<path fill="none" stroke="black" d="M831.9,-101.46C885.53,-96.9 996.94,-86.17 1089.95,-69 1149.41,-58.02 1163.99,-53.26 1221.95,-36 1224.91,-35.12 1227.97,-34.16 1231.03,-33.17"/>
<polygon fill="black" stroke="black" points="1232.38,-36.42 1240.76,-29.94 1230.17,-29.77 1232.38,-36.42"/>
<text text-anchor="middle" x="1172.45" y="-57.8" font-family="Times,serif" font-size="14.00">dep</text>
</g>
<!-- 16 -->
<g id="node17" class="node">
<title>16</title>
<ellipse fill="none" stroke="black" cx="1358.95" cy="-18" rx="29.8" ry="18"/>
<text text-anchor="middle" x="1358.95" y="-14.3" font-family="Times,serif" font-size="14.00">José</text>
</g>
<!-- 0&#45;&gt;16 -->
<g id="edge16" class="edge">
<title>0&#45;&gt;16</title>
<path fill="none" stroke="black" d="M832.27,-102.84C899.36,-100.05 1058.44,-91.45 1189.95,-69 1248.71,-58.97 1263.55,-55.31 1319.95,-36 1322.19,-35.23 1324.48,-34.39 1326.77,-33.51"/>
<polygon fill="black" stroke="black" points="1328.16,-36.72 1336.09,-29.7 1325.51,-30.24 1328.16,-36.72"/>
<text text-anchor="middle" x="1276.45" y="-57.8" font-family="Times,serif" font-size="14.00">dep</text>
</g>
<!-- 17 -->
<g id="node18" class="node">
<title>17</title>
<ellipse fill="none" stroke="black" cx="1442.95" cy="-18" rx="36.29" ry="18"/>
<text text-anchor="middle" x="1442.95" y="-14.3" font-family="Times,serif" font-size="14.00">Paulo</text>
</g>
<!-- 0&#45;&gt;17 -->
<g id="edge17" class="edge">
<title>0&#45;&gt;17</title>
<path fill="none" stroke="black" d="M832.66,-104.34C912.34,-104.59 1122.52,-101.79 1293.95,-69 1333.55,-61.42 1377.09,-45.93 1406.82,-34.19"/>
<polygon fill="black" stroke="black" points="1408.37,-37.34 1416.34,-30.36 1405.76,-30.84 1408.37,-37.34"/>
<text text-anchor="middle" x="1362.45" y="-57.8" font-family="Times,serif" font-size="14.00">dep</text>
</g>
<!-- 18 -->
<g id="node19" class="node">
<title>18</title>
<ellipse fill="none" stroke="black" cx="1530.95" cy="-18" rx="33.6" ry="18"/>
<text text-anchor="middle" x="1530.95" y="-14.3" font-family="Times,serif" font-size="14.00">Bisol</text>
</g>
<!-- 0&#45;&gt;18 -->
<g id="edge18" class="edge">
<title>0&#45;&gt;18</title>
<path fill="none" stroke="black" d="M832.34,-103.05C938.23,-99.8 1273.47,-88.2 1379.95,-69 1420.72,-61.65 1465.57,-45.74 1495.71,-33.83"/>
<polygon fill="black" stroke="black" points="1497.37,-36.93 1505.34,-29.96 1494.76,-30.44 1497.37,-36.93"/>
<text text-anchor="middle" x="1449.45" y="-57.8" font-family="Times,serif" font-size="14.00">dep</text>
</g>
<!-- 19 -->
<g id="node20" class="node">
<title>19</title>
<ellipse fill="none" stroke="black" cx="1609.95" cy="-18" rx="27" ry="18"/>
<text text-anchor="middle" x="1609.95" y="-14.3" font-family="Times,serif" font-size="14.00">.</text>
</g>
<!-- 0&#45;&gt;19 -->
<g id="edge19" class="edge">
<title>0&#45;&gt;19</title>
<path fill="none" stroke="black" d="M832.64,-103.35C949.04,-100.88 1342.93,-91.03 1466.95,-69 1515.95,-60.3 1527.55,-54 1573.95,-36 1575.78,-35.29 1577.66,-34.52 1579.54,-33.73"/>
<polygon fill="black" stroke="black" points="1581.14,-36.85 1588.84,-29.58 1578.29,-30.45 1581.14,-36.85"/>
<text text-anchor="middle" x="1540.45" y="-57.8" font-family="Times,serif" font-size="14.00">dep</text>
</g>
</g>
</svg>
