<?xml version="1.0" encoding="UTF-8" standalone="no"?>
<!DOCTYPE svg PUBLIC "-//W3C//DTD SVG 1.1//EN"
 "http://www.w3.org/Graphics/SVG/1.1/DTD/svg11.dtd">
<!-- Generated by graphviz version 2.42.4 (0)
 -->
<!-- Pages: 1 -->
<svg width="942pt" height="131pt"
 viewBox="0.00 0.00 942.00 131.00" xmlns="http://www.w3.org/2000/svg" xmlns:xlink="http://www.w3.org/1999/xlink">
<g id="graph0" class="graph" transform="scale(1 1) rotate(0) translate(4 127)">
<polygon fill="white" stroke="transparent" points="-4,4 -4,-127 938,-127 938,4 -4,4"/>
<!-- 0 -->
<g id="node1" class="node">
<title>0</title>
<ellipse fill="none" stroke="black" cx="451" cy="-105" rx="27" ry="18"/>
<text text-anchor="middle" x="451" y="-101.3" font-family="Times,serif" font-size="14.00">«</text>
</g>
<!-- 1 -->
<g id="node2" class="node">
<title>1</title>
<ellipse fill="none" stroke="black" cx="27" cy="-18" rx="27" ry="18"/>
<text text-anchor="middle" x="27" y="-14.3" font-family="Times,serif" font-size="14.00">A</text>
</g>
<!-- 0&#45;&gt;1 -->
<g id="edge1" class="edge">
<title>0&#45;&gt;1</title>
<path fill="none" stroke="black" d="M424,-102.22C373.62,-98.55 262.05,-88.77 170,-69 121.34,-58.55 109.4,-54 63,-36 61.16,-35.29 59.29,-34.52 57.41,-33.73"/>
<polygon fill="black" stroke="black" points="58.66,-30.45 48.1,-29.58 55.81,-36.85 58.66,-30.45"/>
<text text-anchor="middle" x="183.5" y="-57.8" font-family="Times,serif" font-size="14.00">dep</text>
</g>
<!-- 2 -->
<g id="node3" class="node">
<title>2</title>
<ellipse fill="none" stroke="black" cx="114" cy="-18" rx="41.69" ry="18"/>
<text text-anchor="middle" x="114" y="-14.3" font-family="Times,serif" font-size="14.00">reação</text>
</g>
<!-- 0&#45;&gt;2 -->
<g id="edge2" class="edge">
<title>0&#45;&gt;2</title>
<path fill="none" stroke="black" d="M424.49,-101.24C384.76,-96.71 307.63,-86.43 244,-69 211.84,-60.19 176.61,-46.37 150.95,-35.48"/>
<polygon fill="black" stroke="black" points="152.18,-32.2 141.61,-31.47 149.42,-38.64 152.18,-32.2"/>
<text text-anchor="middle" x="257.5" y="-57.8" font-family="Times,serif" font-size="14.00">dep</text>
</g>
<!-- 3 -->
<g id="node4" class="node">
<title>3</title>
<ellipse fill="none" stroke="black" cx="201" cy="-18" rx="27" ry="18"/>
<text text-anchor="middle" x="201" y="-14.3" font-family="Times,serif" font-size="14.00">de</text>
</g>
<!-- 0&#45;&gt;3 -->
<g id="edge3" class="edge">
<title>0&#45;&gt;3</title>
<path fill="none" stroke="black" d="M425.32,-98.99C396.94,-93.12 350.08,-82.48 311,-69 276.96,-57.26 269.73,-51.02 237,-36 235.21,-35.18 233.37,-34.33 231.52,-33.47"/>
<polygon fill="black" stroke="black" points="232.83,-30.21 222.28,-29.14 229.86,-36.55 232.83,-30.21"/>
<text text-anchor="middle" x="324.5" y="-57.8" font-family="Times,serif" font-size="14.00">dep</text>
</g>
<!-- 4 -->
<g id="node5" class="node">
<title>4</title>
<ellipse fill="none" stroke="black" cx="273" cy="-18" rx="27" ry="18"/>
<text text-anchor="middle" x="273" y="-14.3" font-family="Times,serif" font-size="14.00">o</text>
</g>
<!-- 0&#45;&gt;4 -->
<g id="edge4" class="edge">
<title>0&#45;&gt;4</title>
<path fill="none" stroke="black" d="M428.77,-94.69C412.63,-87.83 390.32,-78.15 371,-69 347.71,-57.97 321.75,-44.68 302.4,-34.58"/>
<polygon fill="black" stroke="black" points="303.95,-31.44 293.47,-29.89 300.7,-37.64 303.95,-31.44"/>
<text text-anchor="middle" x="384.5" y="-57.8" font-family="Times,serif" font-size="14.00">dep</text>
</g>
<!-- 5 -->
<g id="node6" class="node">
<title>5</title>
<ellipse fill="none" stroke="black" cx="362" cy="-18" rx="44.39" ry="18"/>
<text text-anchor="middle" x="362" y="-14.3" font-family="Times,serif" font-size="14.00">público</text>
</g>
<!-- 0&#45;&gt;5 -->
<g id="edge5" class="edge">
<title>0&#45;&gt;5</title>
<path fill="none" stroke="black" d="M435.9,-89.58C422.26,-76.56 401.96,-57.16 386.08,-42"/>
<polygon fill="black" stroke="black" points="388.34,-39.31 378.69,-34.94 383.5,-44.38 388.34,-39.31"/>
<text text-anchor="middle" x="425.5" y="-57.8" font-family="Times,serif" font-size="14.00">dep</text>
</g>
<!-- 6 -->
<g id="node7" class="node">
<title>6</title>
<ellipse fill="none" stroke="black" cx="451" cy="-18" rx="27" ry="18"/>
<text text-anchor="middle" x="451" y="-14.3" font-family="Times,serif" font-size="14.00">é</text>
</g>
<!-- 0&#45;&gt;6 -->
<g id="edge6" class="edge">
<title>0&#45;&gt;6</title>
<path fill="none" stroke="black" d="M451,-86.8C451,-75.16 451,-59.55 451,-46.24"/>
<polygon fill="black" stroke="black" points="454.5,-46.18 451,-36.18 447.5,-46.18 454.5,-46.18"/>
<text text-anchor="middle" x="464.5" y="-57.8" font-family="Times,serif" font-size="14.00">dep</text>
</g>
<!-- 7 -->
<g id="node8" class="node">
<title>7</title>
<ellipse fill="none" stroke="black" cx="564" cy="-18" rx="67.69" ry="18"/>
<text text-anchor="middle" x="564" y="-14.3" font-family="Times,serif" font-size="14.00">imprevisível</text>
</g>
<!-- 0&#45;&gt;7 -->
<g id="edge7" class="edge">
<title>0&#45;&gt;7</title>
<path fill="none" stroke="black" d="M468.16,-91.09C485.71,-77.89 513.32,-57.12 534.4,-41.26"/>
<polygon fill="black" stroke="black" points="536.53,-44.04 542.41,-35.24 532.32,-38.45 536.53,-44.04"/>
<text text-anchor="middle" x="528.5" y="-57.8" font-family="Times,serif" font-size="14.00">dep</text>
</g>
<!-- 8 -->
<g id="node9" class="node">
<title>8</title>
<ellipse fill="none" stroke="black" cx="677" cy="-18" rx="27" ry="18"/>
<text text-anchor="middle" x="677" y="-14.3" font-family="Times,serif" font-size="14.00">»</text>
</g>
<!-- 0&#45;&gt;8 -->
<g id="edge8" class="edge">
<title>0&#45;&gt;8</title>
<path fill="none" stroke="black" d="M474.68,-96.35C510.91,-84.47 582.08,-60.39 641,-36 642.82,-35.25 644.68,-34.45 646.55,-33.63"/>
<polygon fill="black" stroke="black" points="648.18,-36.74 655.83,-29.42 645.28,-30.36 648.18,-36.74"/>
<text text-anchor="middle" x="608.5" y="-57.8" font-family="Times,serif" font-size="14.00">dep</text>
</g>
<!-- 9 -->
<g id="node10" class="node">
<title>9</title>
<ellipse fill="none" stroke="black" cx="749" cy="-18" rx="27" ry="18"/>
<text text-anchor="middle" x="749" y="-14.3" font-family="Times,serif" font-size="14.00">,</text>
</g>
<!-- 0&#45;&gt;9 -->
<g id="edge9" class="edge">
<title>0&#45;&gt;9</title>
<path fill="none" stroke="black" d="M477.12,-100.16C511.6,-94.77 574.04,-83.94 626,-69 665.74,-57.57 674.94,-52.18 713,-36 714.81,-35.23 716.67,-34.42 718.53,-33.59"/>
<polygon fill="black" stroke="black" points="720.17,-36.69 727.8,-29.35 717.26,-30.33 720.17,-36.69"/>
<text text-anchor="middle" x="684.5" y="-57.8" font-family="Times,serif" font-size="14.00">dep</text>
</g>
<!-- 10 -->
<g id="node11" class="node">
<title>10</title>
<ellipse fill="none" stroke="black" cx="828" cy="-18" rx="34.39" ry="18"/>
<text text-anchor="middle" x="828" y="-14.3" font-family="Times,serif" font-size="14.00">disse</text>
</g>
<!-- 0&#45;&gt;10 -->
<g id="edge10" class="edge">
<title>0&#45;&gt;10</title>
<path fill="none" stroke="black" d="M477.79,-102.37C524.15,-99.09 622.02,-90.12 702,-69 734.14,-60.51 769.17,-46.17 794.12,-35.02"/>
<polygon fill="black" stroke="black" points="795.83,-38.08 803.49,-30.76 792.94,-31.71 795.83,-38.08"/>
<text text-anchor="middle" x="762.5" y="-57.8" font-family="Times,serif" font-size="14.00">dep</text>
</g>
<!-- 11 -->
<g id="node12" class="node">
<title>11</title>
<ellipse fill="none" stroke="black" cx="907" cy="-18" rx="27" ry="18"/>
<text text-anchor="middle" x="907" y="-14.3" font-family="Times,serif" font-size="14.00">.</text>
</g>
<!-- 0&#45;&gt;11 -->
<g id="edge11" class="edge">
<title>0&#45;&gt;11</title>
<path fill="none" stroke="black" d="M478.23,-103.32C535.04,-101.43 670.02,-94.4 780,-69 814.24,-61.09 851.44,-45.57 876.67,-33.9"/>
<polygon fill="black" stroke="black" points="878.49,-36.91 886.05,-29.49 875.51,-30.58 878.49,-36.91"/>
<text text-anchor="middle" x="840.5" y="-57.8" font-family="Times,serif" font-size="14.00">dep</text>
</g>
</g>
</svg>
