<?xml version="1.0" encoding="UTF-8" standalone="no"?>
<!DOCTYPE svg PUBLIC "-//W3C//DTD SVG 1.1//EN"
 "http://www.w3.org/Graphics/SVG/1.1/DTD/svg11.dtd">
<!-- Generated by graphviz version 2.42.4 (0)
 -->
<!-- Pages: 1 -->
<svg width="4266pt" height="131pt"
 viewBox="0.00 0.00 4266.00 131.00" xmlns="http://www.w3.org/2000/svg" xmlns:xlink="http://www.w3.org/1999/xlink">
<g id="graph0" class="graph" transform="scale(1 1) rotate(0) translate(4 127)">
<polygon fill="white" stroke="transparent" points="-4,4 -4,-127 4262,-127 4262,4 -4,4"/>
<!-- 0 -->
<g id="node1" class="node">
<title>0</title>
<ellipse fill="none" stroke="black" cx="2136" cy="-105" rx="27" ry="18"/>
<text text-anchor="middle" x="2136" y="-101.3" font-family="Times,serif" font-size="14.00">E</text>
</g>
<!-- 1 -->
<g id="node2" class="node">
<title>1</title>
<ellipse fill="none" stroke="black" cx="27" cy="-18" rx="27" ry="18"/>
<text text-anchor="middle" x="27" y="-14.3" font-family="Times,serif" font-size="14.00">,</text>
</g>
<!-- 0&#45;&gt;1 -->
<g id="edge1" class="edge">
<title>0&#45;&gt;1</title>
<path fill="none" stroke="black" d="M2108.91,-104.06C1885.84,-104.44 355.69,-105.73 155,-69 119.83,-62.56 81.98,-46.53 56.63,-34.34"/>
<polygon fill="black" stroke="black" points="58.08,-31.15 47.56,-29.88 54.99,-37.43 58.08,-31.15"/>
<text text-anchor="middle" x="168.5" y="-57.8" font-family="Times,serif" font-size="14.00">dep</text>
</g>
<!-- 2 -->
<g id="node3" class="node">
<title>2</title>
<ellipse fill="none" stroke="black" cx="99" cy="-18" rx="27" ry="18"/>
<text text-anchor="middle" x="99" y="-14.3" font-family="Times,serif" font-size="14.00">de</text>
</g>
<!-- 0&#45;&gt;2 -->
<g id="edge2" class="edge">
<title>0&#45;&gt;2</title>
<path fill="none" stroke="black" d="M2108.91,-103.91C1892.26,-103.16 444.47,-97.09 253,-69 199.12,-61.1 186.02,-55.03 135,-36 133.15,-35.31 131.27,-34.57 129.39,-33.78"/>
<polygon fill="black" stroke="black" points="130.63,-30.51 120.07,-29.67 127.8,-36.91 130.63,-30.51"/>
<text text-anchor="middle" x="266.5" y="-57.8" font-family="Times,serif" font-size="14.00">dep</text>
</g>
<!-- 3 -->
<g id="node4" class="node">
<title>3</title>
<ellipse fill="none" stroke="black" cx="194" cy="-18" rx="50.09" ry="18"/>
<text text-anchor="middle" x="194" y="-14.3" font-family="Times,serif" font-size="14.00">caminho</text>
</g>
<!-- 0&#45;&gt;3 -->
<g id="edge3" class="edge">
<title>0&#45;&gt;3</title>
<path fill="none" stroke="black" d="M2108.85,-103.97C1897.84,-103.69 523.25,-100.61 342,-69 304.31,-62.43 263.22,-47.92 233.92,-36.21"/>
<polygon fill="black" stroke="black" points="235.04,-32.89 224.46,-32.37 232.41,-39.38 235.04,-32.89"/>
<text text-anchor="middle" x="355.5" y="-57.8" font-family="Times,serif" font-size="14.00">dep</text>
</g>
<!-- 4 -->
<g id="node5" class="node">
<title>4</title>
<ellipse fill="none" stroke="black" cx="289" cy="-18" rx="27" ry="18"/>
<text text-anchor="middle" x="289" y="-14.3" font-family="Times,serif" font-size="14.00">,</text>
</g>
<!-- 0&#45;&gt;4 -->
<g id="edge4" class="edge">
<title>0&#45;&gt;4</title>
<path fill="none" stroke="black" d="M2108.95,-103.89C1904.46,-103.04 605.11,-96.52 433,-69 383.44,-61.08 371.81,-54.1 325,-36 323.16,-35.29 321.29,-34.53 319.41,-33.73"/>
<polygon fill="black" stroke="black" points="320.66,-30.46 310.1,-29.59 317.81,-36.85 320.66,-30.46"/>
<text text-anchor="middle" x="446.5" y="-57.8" font-family="Times,serif" font-size="14.00">dep</text>
</g>
<!-- 5 -->
<g id="node6" class="node">
<title>5</title>
<ellipse fill="none" stroke="black" cx="382" cy="-18" rx="48.19" ry="18"/>
<text text-anchor="middle" x="382" y="-14.3" font-family="Times,serif" font-size="14.00">instalou</text>
</g>
<!-- 0&#45;&gt;5 -->
<g id="edge5" class="edge">
<title>0&#45;&gt;5</title>
<path fill="none" stroke="black" d="M2109,-103.96C1910.37,-103.6 678.49,-100.14 516,-69 482.23,-62.53 445.78,-48.42 419.43,-36.84"/>
<polygon fill="black" stroke="black" points="420.76,-33.6 410.21,-32.71 417.9,-39.99 420.76,-33.6"/>
<text text-anchor="middle" x="529.5" y="-57.8" font-family="Times,serif" font-size="14.00">dep</text>
</g>
<!-- 6 -->
<g id="node7" class="node">
<title>6</title>
<ellipse fill="none" stroke="black" cx="475" cy="-18" rx="27" ry="18"/>
<text text-anchor="middle" x="475" y="-14.3" font-family="Times,serif" font-size="14.00">se</text>
</g>
<!-- 0&#45;&gt;6 -->
<g id="edge6" class="edge">
<title>0&#45;&gt;6</title>
<path fill="none" stroke="black" d="M2108.74,-103.97C1914.8,-103.68 746.95,-100.63 593,-69 561.2,-62.47 527.32,-47.14 504.06,-35.17"/>
<polygon fill="black" stroke="black" points="505.56,-32 495.08,-30.44 502.3,-38.19 505.56,-32"/>
<text text-anchor="middle" x="606.5" y="-57.8" font-family="Times,serif" font-size="14.00">dep</text>
</g>
<!-- 7 -->
<g id="node8" class="node">
<title>7</title>
<ellipse fill="none" stroke="black" cx="547" cy="-18" rx="27" ry="18"/>
<text text-anchor="middle" x="547" y="-14.3" font-family="Times,serif" font-size="14.00">em</text>
</g>
<!-- 0&#45;&gt;7 -->
<g id="edge7" class="edge">
<title>0&#45;&gt;7</title>
<path fill="none" stroke="black" d="M2108.98,-103.88C1921.63,-103.02 819.1,-96.75 673,-69 638.71,-62.49 601.86,-46.74 576.93,-34.64"/>
<polygon fill="black" stroke="black" points="578.17,-31.35 567.66,-30.05 575.06,-37.63 578.17,-31.35"/>
<text text-anchor="middle" x="686.5" y="-57.8" font-family="Times,serif" font-size="14.00">dep</text>
</g>
<!-- 8 -->
<g id="node9" class="node">
<title>8</title>
<ellipse fill="none" stroke="black" cx="619" cy="-18" rx="27" ry="18"/>
<text text-anchor="middle" x="619" y="-14.3" font-family="Times,serif" font-size="14.00">a</text>
</g>
<!-- 0&#45;&gt;8 -->
<g id="edge8" class="edge">
<title>0&#45;&gt;8</title>
<path fill="none" stroke="black" d="M2109,-103.74C1928.78,-101.93 903.1,-90.74 766,-69 715.17,-60.94 703.08,-54.37 655,-36 653.16,-35.3 651.28,-34.54 649.4,-33.75"/>
<polygon fill="black" stroke="black" points="650.65,-30.47 640.09,-29.61 647.81,-36.87 650.65,-30.47"/>
<text text-anchor="middle" x="779.5" y="-57.8" font-family="Times,serif" font-size="14.00">dep</text>
</g>
<!-- 9 -->
<g id="node10" class="node">
<title>9</title>
<ellipse fill="none" stroke="black" cx="716" cy="-18" rx="51.99" ry="18"/>
<text text-anchor="middle" x="716" y="-14.3" font-family="Times,serif" font-size="14.00">redacção</text>
</g>
<!-- 0&#45;&gt;9 -->
<g id="edge9" class="edge">
<title>0&#45;&gt;9</title>
<path fill="none" stroke="black" d="M2108.96,-103.8C1935,-102.46 976.57,-93.98 849,-69 815.8,-62.5 779.99,-48.61 753.91,-37.12"/>
<polygon fill="black" stroke="black" points="755.32,-33.91 744.76,-33.01 752.45,-40.3 755.32,-33.91"/>
<text text-anchor="middle" x="862.5" y="-57.8" font-family="Times,serif" font-size="14.00">dep</text>
</g>
<!-- 10 -->
<g id="node11" class="node">
<title>10</title>
<ellipse fill="none" stroke="black" cx="813" cy="-18" rx="27" ry="18"/>
<text text-anchor="middle" x="813" y="-14.3" font-family="Times,serif" font-size="14.00">de</text>
</g>
<!-- 0&#45;&gt;10 -->
<g id="edge10" class="edge">
<title>0&#45;&gt;10</title>
<path fill="none" stroke="black" d="M2108.89,-103.85C1940.59,-102.83 1042.07,-96.15 923,-69 893.78,-62.34 862.92,-47.54 841.34,-35.76"/>
<polygon fill="black" stroke="black" points="842.85,-32.59 832.41,-30.77 839.43,-38.7 842.85,-32.59"/>
<text text-anchor="middle" x="936.5" y="-57.8" font-family="Times,serif" font-size="14.00">dep</text>
</g>
<!-- 11 -->
<g id="node12" class="node">
<title>11</title>
<ellipse fill="none" stroke="black" cx="885" cy="-18" rx="27" ry="18"/>
<text text-anchor="middle" x="885" y="-14.3" font-family="Times,serif" font-size="14.00">«</text>
</g>
<!-- 0&#45;&gt;11 -->
<g id="edge11" class="edge">
<title>0&#45;&gt;11</title>
<path fill="none" stroke="black" d="M2109.01,-103.77C1947.26,-102.33 1109.51,-93.68 998,-69 967.76,-62.31 935.69,-47.26 913.47,-35.41"/>
<polygon fill="black" stroke="black" points="915.04,-32.28 904.58,-30.56 911.68,-38.43 915.04,-32.28"/>
<text text-anchor="middle" x="1011.5" y="-57.8" font-family="Times,serif" font-size="14.00">dep</text>
</g>
<!-- 12 -->
<g id="node13" class="node">
<title>12</title>
<ellipse fill="none" stroke="black" cx="957" cy="-18" rx="27" ry="18"/>
<text text-anchor="middle" x="957" y="-14.3" font-family="Times,serif" font-size="14.00">A</text>
</g>
<!-- 0&#45;&gt;12 -->
<g id="edge12" class="edge">
<title>0&#45;&gt;12</title>
<path fill="none" stroke="black" d="M2108.85,-103.67C1953.33,-101.7 1178.75,-90.87 1075,-69 1043.24,-62.3 1009.35,-47 986.08,-35.07"/>
<polygon fill="black" stroke="black" points="987.58,-31.91 977.1,-30.37 984.33,-38.11 987.58,-31.91"/>
<text text-anchor="middle" x="1088.5" y="-57.8" font-family="Times,serif" font-size="14.00">dep</text>
</g>
<!-- 13 -->
<g id="node14" class="node">
<title>13</title>
<ellipse fill="none" stroke="black" cx="1033" cy="-18" rx="31.4" ry="18"/>
<text text-anchor="middle" x="1033" y="-14.3" font-family="Times,serif" font-size="14.00">Bola</text>
</g>
<!-- 0&#45;&gt;13 -->
<g id="edge13" class="edge">
<title>0&#45;&gt;13</title>
<path fill="none" stroke="black" d="M2108.69,-103.61C1959.74,-101.37 1248.55,-89.71 1153,-69 1121.4,-62.15 1087.59,-47.31 1063.93,-35.57"/>
<polygon fill="black" stroke="black" points="1065.27,-32.32 1054.77,-30.92 1062.1,-38.56 1065.27,-32.32"/>
<text text-anchor="middle" x="1166.5" y="-57.8" font-family="Times,serif" font-size="14.00">dep</text>
</g>
<!-- 14 -->
<g id="node15" class="node">
<title>14</title>
<ellipse fill="none" stroke="black" cx="1109" cy="-18" rx="27" ry="18"/>
<text text-anchor="middle" x="1109" y="-14.3" font-family="Times,serif" font-size="14.00">»</text>
</g>
<!-- 0&#45;&gt;14 -->
<g id="edge14" class="edge">
<title>0&#45;&gt;14</title>
<path fill="none" stroke="black" d="M2108.83,-104.13C1977.3,-104.57 1405.92,-104.37 1232,-69 1198.7,-62.23 1162.96,-46.67 1138.63,-34.7"/>
<polygon fill="black" stroke="black" points="1140.09,-31.51 1129.58,-30.15 1136.95,-37.77 1140.09,-31.51"/>
<text text-anchor="middle" x="1245.5" y="-57.8" font-family="Times,serif" font-size="14.00">dep</text>
</g>
<!-- 15 -->
<g id="node16" class="node">
<title>15</title>
<ellipse fill="none" stroke="black" cx="1181" cy="-18" rx="27" ry="18"/>
<text text-anchor="middle" x="1181" y="-14.3" font-family="Times,serif" font-size="14.00">um</text>
</g>
<!-- 0&#45;&gt;15 -->
<g id="edge15" class="edge">
<title>0&#45;&gt;15</title>
<path fill="none" stroke="black" d="M2108.68,-103.81C1984.97,-102.78 1476.52,-96.91 1320,-69 1272.68,-60.56 1261.72,-53.63 1217,-36 1215.17,-35.28 1213.3,-34.5 1211.42,-33.7"/>
<polygon fill="black" stroke="black" points="1212.67,-30.43 1202.12,-29.54 1209.81,-36.82 1212.67,-30.43"/>
<text text-anchor="middle" x="1333.5" y="-57.8" font-family="Times,serif" font-size="14.00">dep</text>
</g>
<!-- 16 -->
<g id="node17" class="node">
<title>16</title>
<ellipse fill="none" stroke="black" cx="1262" cy="-18" rx="36" ry="18"/>
<text text-anchor="middle" x="1262" y="-14.3" font-family="Times,serif" font-size="14.00">clima</text>
</g>
<!-- 0&#45;&gt;16 -->
<g id="edge16" class="edge">
<title>0&#45;&gt;16</title>
<path fill="none" stroke="black" d="M2108.94,-103.68C1993.96,-102.17 1545.6,-94.7 1407,-69 1368.31,-61.82 1325.96,-46.27 1297.08,-34.4"/>
<polygon fill="black" stroke="black" points="1298.4,-31.16 1287.82,-30.54 1295.7,-37.62 1298.4,-31.16"/>
<text text-anchor="middle" x="1420.5" y="-57.8" font-family="Times,serif" font-size="14.00">dep</text>
</g>
<!-- 17 -->
<g id="node18" class="node">
<title>17</title>
<ellipse fill="none" stroke="black" cx="1343" cy="-18" rx="27" ry="18"/>
<text text-anchor="middle" x="1343" y="-14.3" font-family="Times,serif" font-size="14.00">de</text>
</g>
<!-- 0&#45;&gt;17 -->
<g id="edge17" class="edge">
<title>0&#45;&gt;17</title>
<path fill="none" stroke="black" d="M2108.93,-104.2C2022.18,-104.49 1743.45,-102.53 1516,-69 1454.04,-59.86 1438.07,-56.81 1379,-36 1377.09,-35.33 1375.15,-34.59 1373.21,-33.8"/>
<polygon fill="black" stroke="black" points="1374.2,-30.42 1363.64,-29.63 1371.4,-36.83 1374.2,-30.42"/>
<text text-anchor="middle" x="1529.5" y="-57.8" font-family="Times,serif" font-size="14.00">dep</text>
</g>
<!-- 18 -->
<g id="node19" class="node">
<title>18</title>
<ellipse fill="none" stroke="black" cx="1442" cy="-18" rx="53.89" ry="18"/>
<text text-anchor="middle" x="1442" y="-14.3" font-family="Times,serif" font-size="14.00">autêntico</text>
</g>
<!-- 0&#45;&gt;18 -->
<g id="edge18" class="edge">
<title>0&#45;&gt;18</title>
<path fill="none" stroke="black" d="M2108.98,-104.39C2030.54,-105.07 1796.26,-103.81 1606,-69 1564.47,-61.4 1518.62,-46.88 1485.98,-35.43"/>
<polygon fill="black" stroke="black" points="1486.89,-32.04 1476.3,-31.99 1484.55,-38.64 1486.89,-32.04"/>
<text text-anchor="middle" x="1619.5" y="-57.8" font-family="Times,serif" font-size="14.00">dep</text>
</g>
<!-- 19 -->
<g id="node20" class="node">
<title>19</title>
<ellipse fill="none" stroke="black" cx="1552" cy="-18" rx="37.89" ry="18"/>
<text text-anchor="middle" x="1552" y="-14.3" font-family="Times,serif" font-size="14.00">PREC</text>
</g>
<!-- 0&#45;&gt;19 -->
<g id="edge19" class="edge">
<title>0&#45;&gt;19</title>
<path fill="none" stroke="black" d="M2108.92,-104.53C2038.25,-105.36 1842.74,-104.03 1685,-69 1650.68,-61.38 1613.36,-46.75 1587.01,-35.28"/>
<polygon fill="black" stroke="black" points="1588.39,-32.06 1577.83,-31.21 1585.55,-38.46 1588.39,-32.06"/>
<text text-anchor="middle" x="1698.5" y="-57.8" font-family="Times,serif" font-size="14.00">dep</text>
</g>
<!-- 20 -->
<g id="node21" class="node">
<title>20</title>
<ellipse fill="none" stroke="black" cx="1635" cy="-18" rx="27" ry="18"/>
<text text-anchor="middle" x="1635" y="-14.3" font-family="Times,serif" font-size="14.00">,</text>
</g>
<!-- 0&#45;&gt;20 -->
<g id="edge20" class="edge">
<title>0&#45;&gt;20</title>
<path fill="none" stroke="black" d="M2108.89,-103.57C2047.51,-102.14 1893.5,-95.93 1768,-69 1723.48,-59.45 1713.21,-53.08 1671,-36 1669.17,-35.26 1667.31,-34.48 1665.43,-33.66"/>
<polygon fill="black" stroke="black" points="1666.7,-30.39 1656.14,-29.47 1663.82,-36.77 1666.7,-30.39"/>
<text text-anchor="middle" x="1781.5" y="-57.8" font-family="Times,serif" font-size="14.00">dep</text>
</g>
<!-- 21 -->
<g id="node22" class="node">
<title>21</title>
<ellipse fill="none" stroke="black" cx="1710" cy="-18" rx="29.8" ry="18"/>
<text text-anchor="middle" x="1710" y="-14.3" font-family="Times,serif" font-size="14.00">com</text>
</g>
<!-- 0&#45;&gt;21 -->
<g id="edge21" class="edge">
<title>0&#45;&gt;21</title>
<path fill="none" stroke="black" d="M2109.19,-102.5C2058.06,-99.25 1943.3,-90.09 1849,-69 1811.61,-60.64 1770.53,-45.01 1742.79,-33.44"/>
<polygon fill="black" stroke="black" points="1744.14,-30.21 1733.56,-29.54 1741.41,-36.66 1744.14,-30.21"/>
<text text-anchor="middle" x="1862.5" y="-57.8" font-family="Times,serif" font-size="14.00">dep</text>
</g>
<!-- 22 -->
<g id="node23" class="node">
<title>22</title>
<ellipse fill="none" stroke="black" cx="1785" cy="-18" rx="27" ry="18"/>
<text text-anchor="middle" x="1785" y="-14.3" font-family="Times,serif" font-size="14.00">a</text>
</g>
<!-- 0&#45;&gt;22 -->
<g id="edge22" class="edge">
<title>0&#45;&gt;22</title>
<path fill="none" stroke="black" d="M2109.55,-100.93C2054.45,-93.97 1923.96,-74.53 1821,-36 1819.16,-35.31 1817.27,-34.56 1815.39,-33.78"/>
<polygon fill="black" stroke="black" points="1816.63,-30.5 1806.07,-29.66 1813.8,-36.9 1816.63,-30.5"/>
<text text-anchor="middle" x="1945.5" y="-57.8" font-family="Times,serif" font-size="14.00">dep</text>
</g>
<!-- 23 -->
<g id="node24" class="node">
<title>23</title>
<ellipse fill="none" stroke="black" cx="1884" cy="-18" rx="53.89" ry="18"/>
<text text-anchor="middle" x="1884" y="-14.3" font-family="Times,serif" font-size="14.00">demissão</text>
</g>
<!-- 0&#45;&gt;23 -->
<g id="edge23" class="edge">
<title>0&#45;&gt;23</title>
<path fill="none" stroke="black" d="M2110.8,-98.21C2084.4,-91.92 2041.87,-81.13 2006,-69 1978.17,-59.59 1947.59,-47.05 1924.01,-36.89"/>
<polygon fill="black" stroke="black" points="1925.25,-33.61 1914.68,-32.83 1922.46,-40.03 1925.25,-33.61"/>
<text text-anchor="middle" x="2019.5" y="-57.8" font-family="Times,serif" font-size="14.00">dep</text>
</g>
<!-- 24 -->
<g id="node25" class="node">
<title>24</title>
<ellipse fill="none" stroke="black" cx="1983" cy="-18" rx="27" ry="18"/>
<text text-anchor="middle" x="1983" y="-14.3" font-family="Times,serif" font-size="14.00">de</text>
</g>
<!-- 0&#45;&gt;24 -->
<g id="edge24" class="edge">
<title>0&#45;&gt;24</title>
<path fill="none" stroke="black" d="M2113.63,-94.71C2098.27,-88.09 2077.56,-78.68 2060,-69 2042.66,-59.44 2024.02,-47.39 2009.42,-37.51"/>
<polygon fill="black" stroke="black" points="2011.13,-34.44 2000.9,-31.68 2007.18,-40.22 2011.13,-34.44"/>
<text text-anchor="middle" x="2073.5" y="-57.8" font-family="Times,serif" font-size="14.00">dep</text>
</g>
<!-- 25 -->
<g id="node26" class="node">
<title>25</title>
<ellipse fill="none" stroke="black" cx="2055" cy="-18" rx="27" ry="18"/>
<text text-anchor="middle" x="2055" y="-14.3" font-family="Times,serif" font-size="14.00">o</text>
</g>
<!-- 0&#45;&gt;25 -->
<g id="edge25" class="edge">
<title>0&#45;&gt;25</title>
<path fill="none" stroke="black" d="M2121.89,-89.19C2109.23,-75.91 2090.48,-56.23 2076.04,-41.08"/>
<polygon fill="black" stroke="black" points="2078.38,-38.46 2068.95,-33.64 2073.31,-43.29 2078.38,-38.46"/>
<text text-anchor="middle" x="2114.5" y="-57.8" font-family="Times,serif" font-size="14.00">dep</text>
</g>
<!-- 26 -->
<g id="node27" class="node">
<title>26</title>
<ellipse fill="none" stroke="black" cx="2136" cy="-18" rx="36" ry="18"/>
<text text-anchor="middle" x="2136" y="-14.3" font-family="Times,serif" font-size="14.00">chefe</text>
</g>
<!-- 0&#45;&gt;26 -->
<g id="edge26" class="edge">
<title>0&#45;&gt;26</title>
<path fill="none" stroke="black" d="M2136,-86.8C2136,-75.16 2136,-59.55 2136,-46.24"/>
<polygon fill="black" stroke="black" points="2139.5,-46.18 2136,-36.18 2132.5,-46.18 2139.5,-46.18"/>
<text text-anchor="middle" x="2149.5" y="-57.8" font-family="Times,serif" font-size="14.00">dep</text>
</g>
<!-- 27 -->
<g id="node28" class="node">
<title>27</title>
<ellipse fill="none" stroke="black" cx="2217" cy="-18" rx="27" ry="18"/>
<text text-anchor="middle" x="2217" y="-14.3" font-family="Times,serif" font-size="14.00">de</text>
</g>
<!-- 0&#45;&gt;27 -->
<g id="edge27" class="edge">
<title>0&#45;&gt;27</title>
<path fill="none" stroke="black" d="M2150.11,-89.19C2162.77,-75.91 2181.52,-56.23 2195.96,-41.08"/>
<polygon fill="black" stroke="black" points="2198.69,-43.29 2203.05,-33.64 2193.62,-38.46 2198.69,-43.29"/>
<text text-anchor="middle" x="2195.5" y="-57.8" font-family="Times,serif" font-size="14.00">dep</text>
</g>
<!-- 28 -->
<g id="node29" class="node">
<title>28</title>
<ellipse fill="none" stroke="black" cx="2314" cy="-18" rx="51.99" ry="18"/>
<text text-anchor="middle" x="2314" y="-14.3" font-family="Times,serif" font-size="14.00">redacção</text>
</g>
<!-- 0&#45;&gt;28 -->
<g id="edge28" class="edge">
<title>0&#45;&gt;28</title>
<path fill="none" stroke="black" d="M2157.99,-94.23C2173.44,-87.32 2194.56,-77.75 2213,-69 2234.27,-58.91 2257.85,-47.26 2276.88,-37.74"/>
<polygon fill="black" stroke="black" points="2278.45,-40.87 2285.82,-33.26 2275.32,-34.61 2278.45,-40.87"/>
<text text-anchor="middle" x="2257.5" y="-57.8" font-family="Times,serif" font-size="14.00">dep</text>
</g>
<!-- 29 -->
<g id="node30" class="node">
<title>29</title>
<ellipse fill="none" stroke="black" cx="2411" cy="-18" rx="27" ry="18"/>
<text text-anchor="middle" x="2411" y="-14.3" font-family="Times,serif" font-size="14.00">,</text>
</g>
<!-- 0&#45;&gt;29 -->
<g id="edge29" class="edge">
<title>0&#45;&gt;29</title>
<path fill="none" stroke="black" d="M2161.33,-98.6C2205.59,-88.77 2299.48,-66.16 2375,-36 2376.83,-35.27 2378.7,-34.49 2380.57,-33.68"/>
<polygon fill="black" stroke="black" points="2382.18,-36.8 2389.87,-29.51 2379.31,-30.41 2382.18,-36.8"/>
<text text-anchor="middle" x="2337.5" y="-57.8" font-family="Times,serif" font-size="14.00">dep</text>
</g>
<!-- 30 -->
<g id="node31" class="node">
<title>30</title>
<ellipse fill="none" stroke="black" cx="2504" cy="-18" rx="48.19" ry="18"/>
<text text-anchor="middle" x="2504" y="-14.3" font-family="Times,serif" font-size="14.00">Joaquim</text>
</g>
<!-- 0&#45;&gt;30 -->
<g id="edge30" class="edge">
<title>0&#45;&gt;30</title>
<path fill="none" stroke="black" d="M2162.58,-101.19C2204.07,-96.48 2286.58,-85.83 2355,-69 2391.9,-59.93 2432.74,-45.93 2462.32,-35.05"/>
<polygon fill="black" stroke="black" points="2463.75,-38.25 2471.9,-31.49 2461.31,-31.69 2463.75,-38.25"/>
<text text-anchor="middle" x="2418.5" y="-57.8" font-family="Times,serif" font-size="14.00">dep</text>
</g>
<!-- 31 -->
<g id="node32" class="node">
<title>31</title>
<ellipse fill="none" stroke="black" cx="2600" cy="-18" rx="29.8" ry="18"/>
<text text-anchor="middle" x="2600" y="-14.3" font-family="Times,serif" font-size="14.00">Rita</text>
</g>
<!-- 0&#45;&gt;31 -->
<g id="edge31" class="edge">
<title>0&#45;&gt;31</title>
<path fill="none" stroke="black" d="M2162.68,-102.17C2215.3,-98.27 2336.05,-87.92 2436,-69 2492.46,-58.31 2506.73,-54.87 2561,-36 2563.24,-35.22 2565.53,-34.37 2567.82,-33.48"/>
<polygon fill="black" stroke="black" points="2569.21,-36.69 2577.13,-29.66 2566.55,-30.22 2569.21,-36.69"/>
<text text-anchor="middle" x="2517.5" y="-57.8" font-family="Times,serif" font-size="14.00">dep</text>
</g>
<!-- 32 -->
<g id="node33" class="node">
<title>32</title>
<ellipse fill="none" stroke="black" cx="2675" cy="-18" rx="27" ry="18"/>
<text text-anchor="middle" x="2675" y="-14.3" font-family="Times,serif" font-size="14.00">,</text>
</g>
<!-- 0&#45;&gt;32 -->
<g id="edge32" class="edge">
<title>0&#45;&gt;32</title>
<path fill="none" stroke="black" d="M2163.38,-103.66C2228.47,-102.41 2397.26,-96.54 2535,-69 2582.55,-59.49 2593.86,-53.73 2639,-36 2640.83,-35.28 2642.71,-34.51 2644.58,-33.71"/>
<polygon fill="black" stroke="black" points="2646.19,-36.83 2653.89,-29.55 2643.33,-30.44 2646.19,-36.83"/>
<text text-anchor="middle" x="2605.5" y="-57.8" font-family="Times,serif" font-size="14.00">dep</text>
</g>
<!-- 33 -->
<g id="node34" class="node">
<title>33</title>
<ellipse fill="none" stroke="black" cx="2747" cy="-18" rx="27" ry="18"/>
<text text-anchor="middle" x="2747" y="-14.3" font-family="Times,serif" font-size="14.00">e</text>
</g>
<!-- 0&#45;&gt;33 -->
<g id="edge33" class="edge">
<title>0&#45;&gt;33</title>
<path fill="none" stroke="black" d="M2162.93,-103.08C2251.64,-99.89 2534.08,-88.44 2623,-69 2656.43,-61.69 2692.48,-46.22 2717.05,-34.41"/>
<polygon fill="black" stroke="black" points="2718.75,-37.47 2726.19,-29.93 2715.67,-31.18 2718.75,-37.47"/>
<text text-anchor="middle" x="2682.5" y="-57.8" font-family="Times,serif" font-size="14.00">dep</text>
</g>
<!-- 34 -->
<g id="node35" class="node">
<title>34</title>
<ellipse fill="none" stroke="black" cx="2819" cy="-18" rx="27" ry="18"/>
<text text-anchor="middle" x="2819" y="-14.3" font-family="Times,serif" font-size="14.00">a</text>
</g>
<!-- 0&#45;&gt;34 -->
<g id="edge34" class="edge">
<title>0&#45;&gt;34</title>
<path fill="none" stroke="black" d="M2163.03,-103.45C2260.8,-101.29 2595.77,-92.33 2700,-69 2731.91,-61.86 2766.1,-46.62 2789.6,-34.83"/>
<polygon fill="black" stroke="black" points="2791.37,-37.85 2798.68,-30.18 2788.18,-31.62 2791.37,-37.85"/>
<text text-anchor="middle" x="2757.5" y="-57.8" font-family="Times,serif" font-size="14.00">dep</text>
</g>
<!-- 35 -->
<g id="node36" class="node">
<title>35</title>
<ellipse fill="none" stroke="black" cx="2902" cy="-18" rx="38.19" ry="18"/>
<text text-anchor="middle" x="2902" y="-14.3" font-family="Times,serif" font-size="14.00">venda</text>
</g>
<!-- 0&#45;&gt;35 -->
<g id="edge35" class="edge">
<title>0&#45;&gt;35</title>
<path fill="none" stroke="black" d="M2163.27,-103.66C2269.5,-102.18 2655.6,-95.06 2775,-69 2807.43,-61.92 2842.41,-47.61 2867.42,-36.11"/>
<polygon fill="black" stroke="black" points="2868.93,-39.27 2876.5,-31.86 2865.96,-32.93 2868.93,-39.27"/>
<text text-anchor="middle" x="2835.5" y="-57.8" font-family="Times,serif" font-size="14.00">dep</text>
</g>
<!-- 36 -->
<g id="node37" class="node">
<title>36</title>
<ellipse fill="none" stroke="black" cx="2985" cy="-18" rx="27" ry="18"/>
<text text-anchor="middle" x="2985" y="-14.3" font-family="Times,serif" font-size="14.00">,</text>
</g>
<!-- 0&#45;&gt;36 -->
<g id="edge36" class="edge">
<title>0&#45;&gt;36</title>
<path fill="none" stroke="black" d="M2163.01,-103.7C2276.73,-102.27 2717,-95.15 2853,-69 2889.28,-62.03 2928.6,-45.93 2954.8,-33.87"/>
<polygon fill="black" stroke="black" points="2956.6,-36.89 2964.17,-29.47 2953.63,-30.55 2956.6,-36.89"/>
<text text-anchor="middle" x="2919.5" y="-57.8" font-family="Times,serif" font-size="14.00">dep</text>
</g>
<!-- 37 -->
<g id="node38" class="node">
<title>37</title>
<ellipse fill="none" stroke="black" cx="3057" cy="-18" rx="27" ry="18"/>
<text text-anchor="middle" x="3057" y="-14.3" font-family="Times,serif" font-size="14.00">por</text>
</g>
<!-- 0&#45;&gt;37 -->
<g id="edge37" class="edge">
<title>0&#45;&gt;37</title>
<path fill="none" stroke="black" d="M2163.27,-104.01C2285.61,-103.88 2784.49,-101.35 2937,-69 2969.41,-62.13 3004.1,-46.7 3027.8,-34.78"/>
<polygon fill="black" stroke="black" points="3029.65,-37.77 3036.94,-30.09 3026.45,-31.55 3029.65,-37.77"/>
<text text-anchor="middle" x="2998.5" y="-57.8" font-family="Times,serif" font-size="14.00">dep</text>
</g>
<!-- 38 -->
<g id="node39" class="node">
<title>38</title>
<ellipse fill="none" stroke="black" cx="3138" cy="-18" rx="36" ry="18"/>
<text text-anchor="middle" x="3138" y="-14.3" font-family="Times,serif" font-size="14.00">parte</text>
</g>
<!-- 0&#45;&gt;38 -->
<g id="edge38" class="edge">
<title>0&#45;&gt;38</title>
<path fill="none" stroke="black" d="M2163.32,-104.19C2293.06,-104.89 2847.55,-105.67 3016,-69 3047.4,-62.17 3081.04,-47.79 3105.03,-36.2"/>
<polygon fill="black" stroke="black" points="3106.62,-39.32 3114.04,-31.76 3103.53,-33.04 3106.62,-39.32"/>
<text text-anchor="middle" x="3078.5" y="-57.8" font-family="Times,serif" font-size="14.00">dep</text>
</g>
<!-- 39 -->
<g id="node40" class="node">
<title>39</title>
<ellipse fill="none" stroke="black" cx="3219" cy="-18" rx="27" ry="18"/>
<text text-anchor="middle" x="3219" y="-14.3" font-family="Times,serif" font-size="14.00">de</text>
</g>
<!-- 0&#45;&gt;39 -->
<g id="edge39" class="edge">
<title>0&#45;&gt;39</title>
<path fill="none" stroke="black" d="M2163.02,-104.2C2299.14,-105.02 2910.46,-106.51 3096,-69 3129.31,-62.27 3165.05,-46.7 3189.37,-34.72"/>
<polygon fill="black" stroke="black" points="3191.06,-37.78 3198.42,-30.16 3187.91,-31.53 3191.06,-37.78"/>
<text text-anchor="middle" x="3158.5" y="-57.8" font-family="Times,serif" font-size="14.00">dep</text>
</g>
<!-- 40 -->
<g id="node41" class="node">
<title>40</title>
<ellipse fill="none" stroke="black" cx="3308" cy="-18" rx="44.39" ry="18"/>
<text text-anchor="middle" x="3308" y="-14.3" font-family="Times,serif" font-size="14.00">Aurélio</text>
</g>
<!-- 0&#45;&gt;40 -->
<g id="edge40" class="edge">
<title>0&#45;&gt;40</title>
<path fill="none" stroke="black" d="M2163.1,-103.62C2316.66,-101.39 3074.2,-89.41 3176,-69 3209.45,-62.29 3245.56,-48.09 3271.54,-36.54"/>
<polygon fill="black" stroke="black" points="3273.31,-39.57 3280.97,-32.26 3270.42,-33.2 3273.31,-39.57"/>
<text text-anchor="middle" x="3242.5" y="-57.8" font-family="Times,serif" font-size="14.00">dep</text>
</g>
<!-- 41 -->
<g id="node42" class="node">
<title>41</title>
<ellipse fill="none" stroke="black" cx="3413" cy="-18" rx="42.79" ry="18"/>
<text text-anchor="middle" x="3413" y="-14.3" font-family="Times,serif" font-size="14.00">Márcio</text>
</g>
<!-- 0&#45;&gt;41 -->
<g id="edge41" class="edge">
<title>0&#45;&gt;41</title>
<path fill="none" stroke="black" d="M2163.03,-104.2C2312.56,-105.14 3039.57,-107.62 3260,-69 3299.99,-61.99 3343.86,-46.84 3374.34,-35.04"/>
<polygon fill="black" stroke="black" points="3375.71,-38.26 3383.74,-31.34 3373.15,-31.74 3375.71,-38.26"/>
<text text-anchor="middle" x="3333.5" y="-57.8" font-family="Times,serif" font-size="14.00">dep</text>
</g>
<!-- 42 -->
<g id="node43" class="node">
<title>42</title>
<ellipse fill="none" stroke="black" cx="3501" cy="-18" rx="27" ry="18"/>
<text text-anchor="middle" x="3501" y="-14.3" font-family="Times,serif" font-size="14.00">,</text>
</g>
<!-- 0&#45;&gt;42 -->
<g id="edge42" class="edge">
<title>0&#45;&gt;42</title>
<path fill="none" stroke="black" d="M2163.12,-104.15C2319.85,-104.87 3110.98,-106.57 3351,-69 3403.11,-60.84 3415.66,-54.65 3465,-36 3466.84,-35.3 3468.72,-34.55 3470.6,-33.76"/>
<polygon fill="black" stroke="black" points="3472.19,-36.89 3479.92,-29.64 3469.36,-30.49 3472.19,-36.89"/>
<text text-anchor="middle" x="3428.5" y="-57.8" font-family="Times,serif" font-size="14.00">dep</text>
</g>
<!-- 43 -->
<g id="node44" class="node">
<title>43</title>
<ellipse fill="none" stroke="black" cx="3573" cy="-18" rx="27" ry="18"/>
<text text-anchor="middle" x="3573" y="-14.3" font-family="Times,serif" font-size="14.00">de</text>
</g>
<!-- 0&#45;&gt;43 -->
<g id="edge43" class="edge">
<title>0&#45;&gt;43</title>
<path fill="none" stroke="black" d="M2162.95,-103.8C2338.47,-102.42 3315.86,-93.66 3446,-69 3480.89,-62.39 3518.45,-46.38 3543.6,-34.25"/>
<polygon fill="black" stroke="black" points="3545.18,-37.37 3552.6,-29.82 3542.08,-31.1 3545.18,-37.37"/>
<text text-anchor="middle" x="3510.5" y="-57.8" font-family="Times,serif" font-size="14.00">dep</text>
</g>
<!-- 44 -->
<g id="node45" class="node">
<title>44</title>
<ellipse fill="none" stroke="black" cx="3645" cy="-18" rx="27" ry="18"/>
<text text-anchor="middle" x="3645" y="-14.3" font-family="Times,serif" font-size="14.00">a</text>
</g>
<!-- 0&#45;&gt;44 -->
<g id="edge44" class="edge">
<title>0&#45;&gt;44</title>
<path fill="none" stroke="black" d="M2163.17,-103.91C2345.65,-103.19 3389.87,-97.87 3528,-69 3559.55,-62.41 3593.14,-47.09 3616.2,-35.13"/>
<polygon fill="black" stroke="black" points="3617.9,-38.19 3625.09,-30.41 3614.62,-32.01 3617.9,-38.19"/>
<text text-anchor="middle" x="3588.5" y="-57.8" font-family="Times,serif" font-size="14.00">dep</text>
</g>
<!-- 45 -->
<g id="node46" class="node">
<title>45</title>
<ellipse fill="none" stroke="black" cx="3727" cy="-18" rx="37.09" ry="18"/>
<text text-anchor="middle" x="3727" y="-14.3" font-family="Times,serif" font-size="14.00">quota</text>
</g>
<!-- 0&#45;&gt;45 -->
<g id="edge45" class="edge">
<title>0&#45;&gt;45</title>
<path fill="none" stroke="black" d="M2163.16,-103.95C2351.5,-103.54 3459.8,-99.83 3606,-69 3637.08,-62.45 3670.28,-48.15 3694.03,-36.51"/>
<polygon fill="black" stroke="black" points="3695.91,-39.49 3703.28,-31.88 3692.77,-33.23 3695.91,-39.49"/>
<text text-anchor="middle" x="3667.5" y="-57.8" font-family="Times,serif" font-size="14.00">dep</text>
</g>
<!-- 46 -->
<g id="node47" class="node">
<title>46</title>
<ellipse fill="none" stroke="black" cx="3810" cy="-18" rx="27.9" ry="18"/>
<text text-anchor="middle" x="3810" y="-14.3" font-family="Times,serif" font-size="14.00">que</text>
</g>
<!-- 0&#45;&gt;46 -->
<g id="edge46" class="edge">
<title>0&#45;&gt;46</title>
<path fill="none" stroke="black" d="M2163.04,-103.94C2356.75,-103.4 3530,-98.92 3685,-69 3718.83,-62.47 3755.16,-46.88 3779.88,-34.83"/>
<polygon fill="black" stroke="black" points="3781.69,-37.84 3789.08,-30.25 3778.57,-31.57 3781.69,-37.84"/>
<text text-anchor="middle" x="3748.5" y="-57.8" font-family="Times,serif" font-size="14.00">dep</text>
</g>
<!-- 47 -->
<g id="node48" class="node">
<title>47</title>
<ellipse fill="none" stroke="black" cx="3902" cy="-18" rx="46.29" ry="18"/>
<text text-anchor="middle" x="3902" y="-14.3" font-family="Times,serif" font-size="14.00">detinha</text>
</g>
<!-- 0&#45;&gt;47 -->
<g id="edge47" class="edge">
<title>0&#45;&gt;47</title>
<path fill="none" stroke="black" d="M2163.17,-103.96C2363.01,-103.57 3602.43,-99.93 3766,-69 3800.56,-62.46 3837.94,-48.15 3864.75,-36.51"/>
<polygon fill="black" stroke="black" points="3866.4,-39.61 3874.13,-32.36 3863.56,-33.2 3866.4,-39.61"/>
<text text-anchor="middle" x="3833.5" y="-57.8" font-family="Times,serif" font-size="14.00">dep</text>
</g>
<!-- 48 -->
<g id="node49" class="node">
<title>48</title>
<ellipse fill="none" stroke="black" cx="3993" cy="-18" rx="27" ry="18"/>
<text text-anchor="middle" x="3993" y="-14.3" font-family="Times,serif" font-size="14.00">em</text>
</g>
<!-- 0&#45;&gt;48 -->
<g id="edge48" class="edge">
<title>0&#45;&gt;48</title>
<path fill="none" stroke="black" d="M2163.24,-103.91C2369.18,-103.14 3677.75,-97.16 3851,-69 3899.7,-61.09 3911.02,-53.91 3957,-36 3958.84,-35.28 3960.71,-34.52 3962.59,-33.72"/>
<polygon fill="black" stroke="black" points="3964.19,-36.84 3971.89,-29.57 3961.34,-30.45 3964.19,-36.84"/>
<text text-anchor="middle" x="3924.5" y="-57.8" font-family="Times,serif" font-size="14.00">dep</text>
</g>
<!-- 49 -->
<g id="node50" class="node">
<title>49</title>
<ellipse fill="none" stroke="black" cx="4065" cy="-18" rx="27" ry="18"/>
<text text-anchor="middle" x="4065" y="-14.3" font-family="Times,serif" font-size="14.00">o</text>
</g>
<!-- 0&#45;&gt;49 -->
<g id="edge49" class="edge">
<title>0&#45;&gt;49</title>
<path fill="none" stroke="black" d="M2163.01,-104.03C2374.39,-104.23 3760.05,-104.17 3942,-69 3975.57,-62.51 4011.52,-46.76 4035.84,-34.65"/>
<polygon fill="black" stroke="black" points="4037.54,-37.71 4044.87,-30.06 4034.37,-31.47 4037.54,-37.71"/>
<text text-anchor="middle" x="4004.5" y="-57.8" font-family="Times,serif" font-size="14.00">dep</text>
</g>
<!-- 50 -->
<g id="node51" class="node">
<title>50</title>
<ellipse fill="none" stroke="black" cx="4148" cy="-18" rx="37.89" ry="18"/>
<text text-anchor="middle" x="4148" y="-14.3" font-family="Times,serif" font-size="14.00">jornal</text>
</g>
<!-- 0&#45;&gt;50 -->
<g id="edge50" class="edge">
<title>0&#45;&gt;50</title>
<path fill="none" stroke="black" d="M2163.16,-104.08C2380.39,-104.67 3831.96,-107.16 4022,-69 4054.39,-62.5 4089.14,-48.09 4113.93,-36.41"/>
<polygon fill="black" stroke="black" points="4115.75,-39.41 4123.24,-31.92 4112.71,-33.11 4115.75,-39.41"/>
<text text-anchor="middle" x="4085.5" y="-57.8" font-family="Times,serif" font-size="14.00">dep</text>
</g>
<!-- 51 -->
<g id="node52" class="node">
<title>51</title>
<ellipse fill="none" stroke="black" cx="4231" cy="-18" rx="27" ry="18"/>
<text text-anchor="middle" x="4231" y="-14.3" font-family="Times,serif" font-size="14.00">.</text>
</g>
<!-- 0&#45;&gt;51 -->
<g id="edge51" class="edge">
<title>0&#45;&gt;51</title>
<path fill="none" stroke="black" d="M2163.25,-104.05C2385.99,-104.41 3903.84,-105.47 4103,-69 4138.17,-62.56 4176.02,-46.53 4201.37,-34.34"/>
<polygon fill="black" stroke="black" points="4203.01,-37.43 4210.44,-29.88 4199.92,-31.15 4203.01,-37.43"/>
<text text-anchor="middle" x="4167.5" y="-57.8" font-family="Times,serif" font-size="14.00">dep</text>
</g>
</g>
</svg>
