<?xml version="1.0" encoding="UTF-8" standalone="no"?>
<!DOCTYPE svg PUBLIC "-//W3C//DTD SVG 1.1//EN"
 "http://www.w3.org/Graphics/SVG/1.1/DTD/svg11.dtd">
<!-- Generated by graphviz version 2.42.4 (0)
 -->
<!-- Pages: 1 -->
<svg width="1413pt" height="131pt"
 viewBox="0.00 0.00 1412.55 131.00" xmlns="http://www.w3.org/2000/svg" xmlns:xlink="http://www.w3.org/1999/xlink">
<g id="graph0" class="graph" transform="scale(1 1) rotate(0) translate(4 127)">
<polygon fill="white" stroke="transparent" points="-4,4 -4,-127 1408.55,-127 1408.55,4 -4,4"/>
<!-- 0 -->
<g id="node1" class="node">
<title>0</title>
<ellipse fill="none" stroke="black" cx="683.55" cy="-105" rx="27" ry="18"/>
<text text-anchor="middle" x="683.55" y="-101.3" font-family="Times,serif" font-size="14.00">«</text>
</g>
<!-- 1 -->
<g id="node2" class="node">
<title>1</title>
<ellipse fill="none" stroke="black" cx="30.55" cy="-18" rx="30.59" ry="18"/>
<text text-anchor="middle" x="30.55" y="-14.3" font-family="Times,serif" font-size="14.00">Mas</text>
</g>
<!-- 0&#45;&gt;1 -->
<g id="edge1" class="edge">
<title>0&#45;&gt;1</title>
<path fill="none" stroke="black" d="M656.54,-104.52C579.7,-105.5 353.64,-104.87 170.55,-69 132.71,-61.59 91.36,-45.8 63.48,-33.94"/>
<polygon fill="black" stroke="black" points="64.78,-30.68 54.21,-29.92 62,-37.11 64.78,-30.68"/>
<text text-anchor="middle" x="184.05" y="-57.8" font-family="Times,serif" font-size="14.00">dep</text>
</g>
<!-- 2 -->
<g id="node3" class="node">
<title>2</title>
<ellipse fill="none" stroke="black" cx="110.55" cy="-18" rx="31.4" ry="18"/>
<text text-anchor="middle" x="110.55" y="-14.3" font-family="Times,serif" font-size="14.00">esse</text>
</g>
<!-- 0&#45;&gt;2 -->
<g id="edge2" class="edge">
<title>0&#45;&gt;2</title>
<path fill="none" stroke="black" d="M656.56,-103.71C589.16,-102.58 408.25,-96.95 260.55,-69 210.4,-59.51 198.55,-53.34 150.55,-36 148.33,-35.2 146.06,-34.34 143.78,-33.45"/>
<polygon fill="black" stroke="black" points="145.07,-30.2 134.49,-29.68 142.44,-36.68 145.07,-30.2"/>
<text text-anchor="middle" x="274.05" y="-57.8" font-family="Times,serif" font-size="14.00">dep</text>
</g>
<!-- 3 -->
<g id="node4" class="node">
<title>3</title>
<ellipse fill="none" stroke="black" cx="201.55" cy="-18" rx="41.69" ry="18"/>
<text text-anchor="middle" x="201.55" y="-14.3" font-family="Times,serif" font-size="14.00">direito</text>
</g>
<!-- 0&#45;&gt;3 -->
<g id="edge3" class="edge">
<title>0&#45;&gt;3</title>
<path fill="none" stroke="black" d="M656.23,-103.4C597.91,-101.63 457.21,-94.83 342.55,-69 306.62,-60.91 267.24,-46.44 239.25,-35.15"/>
<polygon fill="black" stroke="black" points="240.43,-31.85 229.85,-31.3 237.78,-38.32 240.43,-31.85"/>
<text text-anchor="middle" x="356.05" y="-57.8" font-family="Times,serif" font-size="14.00">dep</text>
</g>
<!-- 4 -->
<g id="node5" class="node">
<title>4</title>
<ellipse fill="none" stroke="black" cx="288.55" cy="-18" rx="27" ry="18"/>
<text text-anchor="middle" x="288.55" y="-14.3" font-family="Times,serif" font-size="14.00">foi</text>
</g>
<!-- 0&#45;&gt;4 -->
<g id="edge4" class="edge">
<title>0&#45;&gt;4</title>
<path fill="none" stroke="black" d="M656.74,-101.88C609.83,-97.84 510.01,-87.7 427.55,-69 380.67,-58.37 369.27,-53.63 324.55,-36 322.71,-35.28 320.84,-34.5 318.97,-33.7"/>
<polygon fill="black" stroke="black" points="320.22,-30.43 309.66,-29.54 317.36,-36.82 320.22,-30.43"/>
<text text-anchor="middle" x="441.05" y="-57.8" font-family="Times,serif" font-size="14.00">dep</text>
</g>
<!-- 5 -->
<g id="node6" class="node">
<title>5</title>
<ellipse fill="none" stroke="black" cx="360.55" cy="-18" rx="27" ry="18"/>
<text text-anchor="middle" x="360.55" y="-14.3" font-family="Times,serif" font-size="14.00">me</text>
</g>
<!-- 0&#45;&gt;5 -->
<g id="edge5" class="edge">
<title>0&#45;&gt;5</title>
<path fill="none" stroke="black" d="M657.17,-100.05C605.81,-91.86 489.31,-70.83 396.55,-36 394.7,-35.31 392.82,-34.56 390.94,-33.77"/>
<polygon fill="black" stroke="black" points="392.18,-30.5 381.62,-29.66 389.35,-36.9 392.18,-30.5"/>
<text text-anchor="middle" x="511.05" y="-57.8" font-family="Times,serif" font-size="14.00">dep</text>
</g>
<!-- 6 -->
<g id="node7" class="node">
<title>6</title>
<ellipse fill="none" stroke="black" cx="450.55" cy="-18" rx="45.49" ry="18"/>
<text text-anchor="middle" x="450.55" y="-14.3" font-family="Times,serif" font-size="14.00">sempre</text>
</g>
<!-- 0&#45;&gt;6 -->
<g id="edge6" class="edge">
<title>0&#45;&gt;6</title>
<path fill="none" stroke="black" d="M660.06,-95.95C639.76,-88.95 609.66,-78.48 583.55,-69 552.71,-57.81 518.01,-44.75 491.79,-34.78"/>
<polygon fill="black" stroke="black" points="492.77,-31.41 482.18,-31.13 490.28,-37.95 492.77,-31.41"/>
<text text-anchor="middle" x="597.05" y="-57.8" font-family="Times,serif" font-size="14.00">dep</text>
</g>
<!-- 7 -->
<g id="node8" class="node">
<title>7</title>
<ellipse fill="none" stroke="black" cx="558.55" cy="-18" rx="44.39" ry="18"/>
<text text-anchor="middle" x="558.55" y="-14.3" font-family="Times,serif" font-size="14.00">negado</text>
</g>
<!-- 0&#45;&gt;7 -->
<g id="edge7" class="edge">
<title>0&#45;&gt;7</title>
<path fill="none" stroke="black" d="M665.37,-91.64C645.35,-78.03 612.83,-55.91 588.92,-39.65"/>
<polygon fill="black" stroke="black" points="590.77,-36.68 580.54,-33.95 586.84,-42.47 590.77,-36.68"/>
<text text-anchor="middle" x="642.05" y="-57.8" font-family="Times,serif" font-size="14.00">dep</text>
</g>
<!-- 8 -->
<g id="node9" class="node">
<title>8</title>
<ellipse fill="none" stroke="black" cx="647.55" cy="-18" rx="27" ry="18"/>
<text text-anchor="middle" x="647.55" y="-14.3" font-family="Times,serif" font-size="14.00">»</text>
</g>
<!-- 0&#45;&gt;8 -->
<g id="edge8" class="edge">
<title>0&#45;&gt;8</title>
<path fill="none" stroke="black" d="M676.43,-87.21C671.32,-75.14 664.34,-58.64 658.51,-44.89"/>
<polygon fill="black" stroke="black" points="661.65,-43.31 654.52,-35.47 655.2,-46.04 661.65,-43.31"/>
<text text-anchor="middle" x="682.05" y="-57.8" font-family="Times,serif" font-size="14.00">dep</text>
</g>
<!-- 9 -->
<g id="node10" class="node">
<title>9</title>
<ellipse fill="none" stroke="black" cx="719.55" cy="-18" rx="27" ry="18"/>
<text text-anchor="middle" x="719.55" y="-14.3" font-family="Times,serif" font-size="14.00">,</text>
</g>
<!-- 0&#45;&gt;9 -->
<g id="edge9" class="edge">
<title>0&#45;&gt;9</title>
<path fill="none" stroke="black" d="M690.66,-87.21C695.77,-75.14 702.76,-58.64 708.58,-44.89"/>
<polygon fill="black" stroke="black" points="711.89,-46.04 712.57,-35.47 705.45,-43.31 711.89,-46.04"/>
<text text-anchor="middle" x="718.05" y="-57.8" font-family="Times,serif" font-size="14.00">dep</text>
</g>
<!-- 10 -->
<g id="node11" class="node">
<title>10</title>
<ellipse fill="none" stroke="black" cx="804.55" cy="-18" rx="40.09" ry="18"/>
<text text-anchor="middle" x="804.55" y="-14.3" font-family="Times,serif" font-size="14.00">afirma</text>
</g>
<!-- 0&#45;&gt;10 -->
<g id="edge10" class="edge">
<title>0&#45;&gt;10</title>
<path fill="none" stroke="black" d="M702.43,-91.52C712.34,-84.91 724.66,-76.6 735.55,-69 749.05,-59.57 763.85,-48.89 776.28,-39.82"/>
<polygon fill="black" stroke="black" points="778.45,-42.57 784.45,-33.84 774.31,-36.92 778.45,-42.57"/>
<text text-anchor="middle" x="771.05" y="-57.8" font-family="Times,serif" font-size="14.00">dep</text>
</g>
<!-- 11 -->
<g id="node12" class="node">
<title>11</title>
<ellipse fill="none" stroke="black" cx="889.55" cy="-18" rx="27" ry="18"/>
<text text-anchor="middle" x="889.55" y="-14.3" font-family="Times,serif" font-size="14.00">a</text>
</g>
<!-- 0&#45;&gt;11 -->
<g id="edge11" class="edge">
<title>0&#45;&gt;11</title>
<path fill="none" stroke="black" d="M708.08,-96.87C729.59,-90.38 761.54,-80.12 788.55,-69 813.22,-58.84 840.28,-45.31 860.17,-34.89"/>
<polygon fill="black" stroke="black" points="861.84,-37.96 869.04,-30.2 858.57,-31.78 861.84,-37.96"/>
<text text-anchor="middle" x="834.05" y="-57.8" font-family="Times,serif" font-size="14.00">dep</text>
</g>
<!-- 12 -->
<g id="node13" class="node">
<title>12</title>
<ellipse fill="none" stroke="black" cx="1000.55" cy="-18" rx="65.79" ry="18"/>
<text text-anchor="middle" x="1000.55" y="-14.3" font-family="Times,serif" font-size="14.00">testemunha</text>
</g>
<!-- 0&#45;&gt;12 -->
<g id="edge12" class="edge">
<title>0&#45;&gt;12</title>
<path fill="none" stroke="black" d="M709.39,-99.6C742.57,-93.72 801.8,-82.48 851.55,-69 886.21,-59.61 924.62,-46.66 953.76,-36.29"/>
<polygon fill="black" stroke="black" points="955.03,-39.55 963.26,-32.88 952.67,-32.96 955.03,-39.55"/>
<text text-anchor="middle" x="915.05" y="-57.8" font-family="Times,serif" font-size="14.00">dep</text>
</g>
<!-- 13 -->
<g id="node14" class="node">
<title>13</title>
<ellipse fill="none" stroke="black" cx="1111.55" cy="-18" rx="27" ry="18"/>
<text text-anchor="middle" x="1111.55" y="-14.3" font-family="Times,serif" font-size="14.00">,</text>
</g>
<!-- 0&#45;&gt;13 -->
<g id="edge13" class="edge">
<title>0&#45;&gt;13</title>
<path fill="none" stroke="black" d="M710.44,-102.34C775.04,-97.71 943.41,-81.85 1075.55,-36 1077.46,-35.34 1079.4,-34.6 1081.35,-33.83"/>
<polygon fill="black" stroke="black" points="1083.15,-36.86 1090.92,-29.66 1080.36,-30.44 1083.15,-36.86"/>
<text text-anchor="middle" x="1027.05" y="-57.8" font-family="Times,serif" font-size="14.00">dep</text>
</g>
<!-- 14 -->
<g id="node15" class="node">
<title>14</title>
<ellipse fill="none" stroke="black" cx="1183.55" cy="-18" rx="27" ry="18"/>
<text text-anchor="middle" x="1183.55" y="-14.3" font-family="Times,serif" font-size="14.00">A.</text>
</g>
<!-- 0&#45;&gt;14 -->
<g id="edge14" class="edge">
<title>0&#45;&gt;14</title>
<path fill="none" stroke="black" d="M710.56,-103.35C771,-101.45 921.52,-94.37 1044.55,-69 1091.63,-59.29 1102.83,-53.63 1147.55,-36 1149.38,-35.28 1151.25,-34.5 1153.13,-33.7"/>
<polygon fill="black" stroke="black" points="1154.73,-36.82 1162.43,-29.54 1151.87,-30.43 1154.73,-36.82"/>
<text text-anchor="middle" x="1114.05" y="-57.8" font-family="Times,serif" font-size="14.00">dep</text>
</g>
<!-- 15 -->
<g id="node16" class="node">
<title>15</title>
<ellipse fill="none" stroke="black" cx="1280.55" cy="-18" rx="51.99" ry="18"/>
<text text-anchor="middle" x="1280.55" y="-14.3" font-family="Times,serif" font-size="14.00">Carvalho</text>
</g>
<!-- 0&#45;&gt;15 -->
<g id="edge15" class="edge">
<title>0&#45;&gt;15</title>
<path fill="none" stroke="black" d="M710.63,-104.19C780.88,-104.17 974.45,-100.99 1131.55,-69 1168.78,-61.42 1209.6,-47.29 1239.08,-35.98"/>
<polygon fill="black" stroke="black" points="1240.57,-39.16 1248.62,-32.27 1238.03,-32.63 1240.57,-39.16"/>
<text text-anchor="middle" x="1200.05" y="-57.8" font-family="Times,serif" font-size="14.00">dep</text>
</g>
<!-- 16 -->
<g id="node17" class="node">
<title>16</title>
<ellipse fill="none" stroke="black" cx="1377.55" cy="-18" rx="27" ry="18"/>
<text text-anchor="middle" x="1377.55" y="-14.3" font-family="Times,serif" font-size="14.00">.</text>
</g>
<!-- 0&#45;&gt;16 -->
<g id="edge16" class="edge">
<title>0&#45;&gt;16</title>
<path fill="none" stroke="black" d="M710.71,-104.08C789.58,-103.91 1025.25,-100.58 1217.55,-69 1273.82,-59.76 1287.99,-55.59 1341.55,-36 1343.4,-35.32 1345.28,-34.59 1347.17,-33.81"/>
<polygon fill="black" stroke="black" points="1348.75,-36.94 1356.5,-29.72 1345.94,-30.53 1348.75,-36.94"/>
<text text-anchor="middle" x="1303.05" y="-57.8" font-family="Times,serif" font-size="14.00">dep</text>
</g>
</g>
</svg>
