<?xml version="1.0" encoding="UTF-8" standalone="no"?>
<!DOCTYPE svg PUBLIC "-//W3C//DTD SVG 1.1//EN"
 "http://www.w3.org/Graphics/SVG/1.1/DTD/svg11.dtd">
<!-- Generated by graphviz version 2.42.4 (0)
 -->
<!-- Pages: 1 -->
<svg width="3864pt" height="131pt"
 viewBox="0.00 0.00 3863.70 131.00" xmlns="http://www.w3.org/2000/svg" xmlns:xlink="http://www.w3.org/1999/xlink">
<g id="graph0" class="graph" transform="scale(1 1) rotate(0) translate(4 127)">
<polygon fill="white" stroke="transparent" points="-4,4 -4,-127 3859.7,-127 3859.7,4 -4,4"/>
<!-- 0 -->
<g id="node1" class="node">
<title>0</title>
<ellipse fill="none" stroke="black" cx="1910.7" cy="-105" rx="27" ry="18"/>
<text text-anchor="middle" x="1910.7" y="-101.3" font-family="Times,serif" font-size="14.00">O</text>
</g>
<!-- 1 -->
<g id="node2" class="node">
<title>1</title>
<ellipse fill="none" stroke="black" cx="37.7" cy="-18" rx="37.89" ry="18"/>
<text text-anchor="middle" x="37.7" y="-14.3" font-family="Times,serif" font-size="14.00">jornal</text>
</g>
<!-- 0&#45;&gt;1 -->
<g id="edge1" class="edge">
<title>0&#45;&gt;1</title>
<path fill="none" stroke="black" d="M1883.67,-103.92C1677.95,-103.23 362.67,-97.75 188.7,-69 148.43,-62.35 104.33,-46.71 74.24,-34.68"/>
<polygon fill="black" stroke="black" points="75.18,-31.28 64.6,-30.76 72.54,-37.77 75.18,-31.28"/>
<text text-anchor="middle" x="202.2" y="-57.8" font-family="Times,serif" font-size="14.00">dep</text>
</g>
<!-- 2 -->
<g id="node3" class="node">
<title>2</title>
<ellipse fill="none" stroke="black" cx="137.7" cy="-18" rx="44.39" ry="18"/>
<text text-anchor="middle" x="137.7" y="-14.3" font-family="Times,serif" font-size="14.00">carioca</text>
</g>
<!-- 0&#45;&gt;2 -->
<g id="edge2" class="edge">
<title>0&#45;&gt;2</title>
<path fill="none" stroke="black" d="M1883.72,-103.96C1683.89,-103.63 437.12,-100.29 272.7,-69 238.26,-62.45 201.03,-48.06 174.4,-36.4"/>
<polygon fill="black" stroke="black" points="175.66,-33.12 165.1,-32.24 172.8,-39.52 175.66,-33.12"/>
<text text-anchor="middle" x="286.2" y="-57.8" font-family="Times,serif" font-size="14.00">dep</text>
</g>
<!-- 3 -->
<g id="node4" class="node">
<title>3</title>
<ellipse fill="none" stroke="black" cx="226.7" cy="-18" rx="27" ry="18"/>
<text text-anchor="middle" x="226.7" y="-14.3" font-family="Times,serif" font-size="14.00">«</text>
</g>
<!-- 0&#45;&gt;3 -->
<g id="edge3" class="edge">
<title>0&#45;&gt;3</title>
<path fill="none" stroke="black" d="M1883.5,-103.93C1688.68,-103.33 508.71,-98.51 352.7,-69 318.4,-62.51 281.55,-46.76 256.62,-34.66"/>
<polygon fill="black" stroke="black" points="257.87,-31.37 247.36,-30.06 254.76,-37.64 257.87,-31.37"/>
<text text-anchor="middle" x="366.2" y="-57.8" font-family="Times,serif" font-size="14.00">dep</text>
</g>
<!-- 4 -->
<g id="node5" class="node">
<title>4</title>
<ellipse fill="none" stroke="black" cx="298.7" cy="-18" rx="27" ry="18"/>
<text text-anchor="middle" x="298.7" y="-14.3" font-family="Times,serif" font-size="14.00">O</text>
</g>
<!-- 0&#45;&gt;4 -->
<g id="edge4" class="edge">
<title>0&#45;&gt;4</title>
<path fill="none" stroke="black" d="M1883.62,-103.79C1695.86,-102.31 590.93,-92.6 443.7,-69 393.72,-60.99 381.93,-54.19 334.7,-36 332.86,-35.29 330.98,-34.53 329.1,-33.74"/>
<polygon fill="black" stroke="black" points="330.35,-30.46 319.79,-29.59 327.51,-36.86 330.35,-30.46"/>
<text text-anchor="middle" x="457.2" y="-57.8" font-family="Times,serif" font-size="14.00">dep</text>
</g>
<!-- 5 -->
<g id="node6" class="node">
<title>5</title>
<ellipse fill="none" stroke="black" cx="381.7" cy="-18" rx="37.89" ry="18"/>
<text text-anchor="middle" x="381.7" y="-14.3" font-family="Times,serif" font-size="14.00">Globo</text>
</g>
<!-- 0&#45;&gt;5 -->
<g id="edge5" class="edge">
<title>0&#45;&gt;5</title>
<path fill="none" stroke="black" d="M1883.56,-103.77C1702.38,-102.14 671.33,-91.91 533.7,-69 493.02,-62.23 448.41,-46.5 418.11,-34.48"/>
<polygon fill="black" stroke="black" points="419.38,-31.22 408.79,-30.72 416.76,-37.71 419.38,-31.22"/>
<text text-anchor="middle" x="547.2" y="-57.8" font-family="Times,serif" font-size="14.00">dep</text>
</g>
<!-- 6 -->
<g id="node7" class="node">
<title>6</title>
<ellipse fill="none" stroke="black" cx="464.7" cy="-18" rx="27" ry="18"/>
<text text-anchor="middle" x="464.7" y="-14.3" font-family="Times,serif" font-size="14.00">»</text>
</g>
<!-- 0&#45;&gt;6 -->
<g id="edge6" class="edge">
<title>0&#45;&gt;6</title>
<path fill="none" stroke="black" d="M1883.66,-103.88C1724.78,-103.07 911,-97.55 662.7,-69 589.7,-60.61 570.42,-59.19 500.7,-36 498.78,-35.36 496.83,-34.65 494.88,-33.88"/>
<polygon fill="black" stroke="black" points="495.86,-30.49 485.29,-29.76 493.09,-36.92 495.86,-30.49"/>
<text text-anchor="middle" x="676.2" y="-57.8" font-family="Times,serif" font-size="14.00">dep</text>
</g>
<!-- 7 -->
<g id="node8" class="node">
<title>7</title>
<ellipse fill="none" stroke="black" cx="560.7" cy="-18" rx="50.89" ry="18"/>
<text text-anchor="middle" x="560.7" y="-14.3" font-family="Times,serif" font-size="14.00">recolheu</text>
</g>
<!-- 0&#45;&gt;7 -->
<g id="edge7" class="edge">
<title>0&#45;&gt;7</title>
<path fill="none" stroke="black" d="M1883.51,-103.81C1733.1,-102.67 1001.68,-95.79 777.7,-69 718.4,-61.91 651.66,-45.17 608.04,-33.01"/>
<polygon fill="black" stroke="black" points="608.86,-29.6 598.28,-30.26 606.96,-36.34 608.86,-29.6"/>
<text text-anchor="middle" x="791.2" y="-57.8" font-family="Times,serif" font-size="14.00">dep</text>
</g>
<!-- 8 -->
<g id="node9" class="node">
<title>8</title>
<ellipse fill="none" stroke="black" cx="699.7" cy="-18" rx="70.39" ry="18"/>
<text text-anchor="middle" x="699.7" y="-14.3" font-family="Times,serif" font-size="14.00">depoimentos</text>
</g>
<!-- 0&#45;&gt;8 -->
<g id="edge8" class="edge">
<title>0&#45;&gt;8</title>
<path fill="none" stroke="black" d="M1883.39,-104.01C1740.12,-103.9 1074.05,-101.62 870.7,-69 828.17,-62.18 781.31,-47.98 747.42,-36.46"/>
<polygon fill="black" stroke="black" points="748.37,-33.08 737.77,-33.13 746.09,-39.7 748.37,-33.08"/>
<text text-anchor="middle" x="884.2" y="-57.8" font-family="Times,serif" font-size="14.00">dep</text>
</g>
<!-- 9 -->
<g id="node10" class="node">
<title>9</title>
<ellipse fill="none" stroke="black" cx="824.7" cy="-18" rx="36.29" ry="18"/>
<text text-anchor="middle" x="824.7" y="-14.3" font-family="Times,serif" font-size="14.00">sobre</text>
</g>
<!-- 0&#45;&gt;9 -->
<g id="edge9" class="edge">
<title>0&#45;&gt;9</title>
<path fill="none" stroke="black" d="M1883.66,-104.25C1747.49,-105.34 1135.94,-107.92 950.7,-69 918.16,-62.16 883.17,-47.65 858.34,-36.01"/>
<polygon fill="black" stroke="black" points="859.55,-32.71 849.02,-31.55 856.53,-39.03 859.55,-32.71"/>
<text text-anchor="middle" x="964.2" y="-57.8" font-family="Times,serif" font-size="14.00">dep</text>
</g>
<!-- 10 -->
<g id="node11" class="node">
<title>10</title>
<ellipse fill="none" stroke="black" cx="905.7" cy="-18" rx="27" ry="18"/>
<text text-anchor="middle" x="905.7" y="-14.3" font-family="Times,serif" font-size="14.00">a</text>
</g>
<!-- 0&#45;&gt;10 -->
<g id="edge10" class="edge">
<title>0&#45;&gt;10</title>
<path fill="none" stroke="black" d="M1883.4,-104.07C1753.78,-104.21 1199.74,-102.81 1030.7,-69 996.7,-62.2 960.14,-46.5 935.4,-34.49"/>
<polygon fill="black" stroke="black" points="936.72,-31.24 926.2,-29.93 933.61,-37.51 936.72,-31.24"/>
<text text-anchor="middle" x="1044.2" y="-57.8" font-family="Times,serif" font-size="14.00">dep</text>
</g>
<!-- 11 -->
<g id="node12" class="node">
<title>11</title>
<ellipse fill="none" stroke="black" cx="977.7" cy="-18" rx="27" ry="18"/>
<text text-anchor="middle" x="977.7" y="-14.3" font-family="Times,serif" font-size="14.00">«</text>
</g>
<!-- 0&#45;&gt;11 -->
<g id="edge11" class="edge">
<title>0&#45;&gt;11</title>
<path fill="none" stroke="black" d="M1883.48,-103.71C1762.52,-102.29 1272.87,-95.02 1121.7,-69 1072.23,-60.49 1060.51,-54.1 1013.7,-36 1011.86,-35.29 1009.98,-34.53 1008.1,-33.73"/>
<polygon fill="black" stroke="black" points="1009.35,-30.46 998.8,-29.59 1006.51,-36.85 1009.35,-30.46"/>
<text text-anchor="middle" x="1135.2" y="-57.8" font-family="Times,serif" font-size="14.00">dep</text>
</g>
<!-- 12 -->
<g id="node13" class="node">
<title>12</title>
<ellipse fill="none" stroke="black" cx="1063.7" cy="-18" rx="40.89" ry="18"/>
<text text-anchor="middle" x="1063.7" y="-14.3" font-family="Times,serif" font-size="14.00">pisada</text>
</g>
<!-- 0&#45;&gt;12 -->
<g id="edge12" class="edge">
<title>0&#45;&gt;12</title>
<path fill="none" stroke="black" d="M1883.64,-103.73C1770.7,-102.43 1336.65,-95.78 1202.7,-69 1166.82,-61.83 1127.75,-47.12 1100.2,-35.5"/>
<polygon fill="black" stroke="black" points="1101.53,-32.26 1090.96,-31.54 1098.77,-38.7 1101.53,-32.26"/>
<text text-anchor="middle" x="1216.2" y="-57.8" font-family="Times,serif" font-size="14.00">dep</text>
</g>
<!-- 13 -->
<g id="node14" class="node">
<title>13</title>
<ellipse fill="none" stroke="black" cx="1149.7" cy="-18" rx="27" ry="18"/>
<text text-anchor="middle" x="1149.7" y="-14.3" font-family="Times,serif" font-size="14.00">»</text>
</g>
<!-- 0&#45;&gt;13 -->
<g id="edge13" class="edge">
<title>0&#45;&gt;13</title>
<path fill="none" stroke="black" d="M1883.49,-103.39C1779.26,-100.9 1405.41,-90.62 1288.7,-69 1241.43,-60.25 1230.42,-53.63 1185.7,-36 1183.86,-35.28 1181.99,-34.5 1180.12,-33.7"/>
<polygon fill="black" stroke="black" points="1181.37,-30.43 1170.81,-29.54 1178.51,-36.82 1181.37,-30.43"/>
<text text-anchor="middle" x="1302.2" y="-57.8" font-family="Times,serif" font-size="14.00">dep</text>
</g>
<!-- 14 -->
<g id="node15" class="node">
<title>14</title>
<ellipse fill="none" stroke="black" cx="1221.7" cy="-18" rx="27.1" ry="18"/>
<text text-anchor="middle" x="1221.7" y="-14.3" font-family="Times,serif" font-size="14.00">não</text>
</g>
<!-- 0&#45;&gt;14 -->
<g id="edge14" class="edge">
<title>0&#45;&gt;14</title>
<path fill="none" stroke="black" d="M1883.71,-103.66C1807.45,-102.39 1583.93,-96.4 1400.7,-69 1336.62,-59.42 1320,-56.97 1258.7,-36 1256.58,-35.28 1254.42,-34.47 1252.25,-33.61"/>
<polygon fill="black" stroke="black" points="1253.49,-30.34 1242.92,-29.64 1250.75,-36.78 1253.49,-30.34"/>
<text text-anchor="middle" x="1414.2" y="-57.8" font-family="Times,serif" font-size="14.00">dep</text>
</g>
<!-- 15 -->
<g id="node16" class="node">
<title>15</title>
<ellipse fill="none" stroke="black" cx="1329.7" cy="-18" rx="62.29" ry="18"/>
<text text-anchor="middle" x="1329.7" y="-14.3" font-family="Times,serif" font-size="14.00">confirmada</text>
</g>
<!-- 0&#45;&gt;15 -->
<g id="edge15" class="edge">
<title>0&#45;&gt;15</title>
<path fill="none" stroke="black" d="M1883.32,-103.8C1815.81,-102.85 1636.18,-97.61 1489.7,-69 1450.22,-61.29 1406.74,-47.33 1375.08,-36.12"/>
<polygon fill="black" stroke="black" points="1376.24,-32.82 1365.65,-32.74 1373.88,-39.41 1376.24,-32.82"/>
<text text-anchor="middle" x="1503.2" y="-57.8" font-family="Times,serif" font-size="14.00">dep</text>
</g>
<!-- 16 -->
<g id="node17" class="node">
<title>16</title>
<ellipse fill="none" stroke="black" cx="1440.7" cy="-18" rx="30.59" ry="18"/>
<text text-anchor="middle" x="1440.7" y="-14.3" font-family="Times,serif" font-size="14.00">nem</text>
</g>
<!-- 0&#45;&gt;16 -->
<g id="edge16" class="edge">
<title>0&#45;&gt;16</title>
<path fill="none" stroke="black" d="M1883.53,-103.67C1824.87,-102.42 1682.32,-96.55 1566.7,-69 1533.55,-61.1 1497.6,-46.15 1472.61,-34.64"/>
<polygon fill="black" stroke="black" points="1473.81,-31.34 1463.27,-30.27 1470.84,-37.68 1473.81,-31.34"/>
<text text-anchor="middle" x="1580.2" y="-57.8" font-family="Times,serif" font-size="14.00">dep</text>
</g>
<!-- 17 -->
<g id="node18" class="node">
<title>17</title>
<ellipse fill="none" stroke="black" cx="1516.7" cy="-18" rx="27" ry="18"/>
<text text-anchor="middle" x="1516.7" y="-14.3" font-family="Times,serif" font-size="14.00">por</text>
</g>
<!-- 0&#45;&gt;17 -->
<g id="edge17" class="edge">
<title>0&#45;&gt;17</title>
<path fill="none" stroke="black" d="M1883.82,-102.42C1835.27,-99.13 1730,-90.04 1643.7,-69 1609.55,-60.68 1572.34,-45.22 1547.08,-33.68"/>
<polygon fill="black" stroke="black" points="1548.23,-30.36 1537.69,-29.32 1545.29,-36.71 1548.23,-30.36"/>
<text text-anchor="middle" x="1657.2" y="-57.8" font-family="Times,serif" font-size="14.00">dep</text>
</g>
<!-- 18 -->
<g id="node19" class="node">
<title>18</title>
<ellipse fill="none" stroke="black" cx="1588.7" cy="-18" rx="27" ry="18"/>
<text text-anchor="middle" x="1588.7" y="-14.3" font-family="Times,serif" font-size="14.00">a</text>
</g>
<!-- 0&#45;&gt;18 -->
<g id="edge18" class="edge">
<title>0&#45;&gt;18</title>
<path fill="none" stroke="black" d="M1884.57,-99.96C1849.03,-94.25 1783.59,-82.93 1728.7,-69 1681.69,-57.07 1669.83,-53.73 1624.7,-36 1622.86,-35.28 1620.99,-34.51 1619.11,-33.71"/>
<polygon fill="black" stroke="black" points="1620.37,-30.44 1609.81,-29.55 1617.51,-36.83 1620.37,-30.44"/>
<text text-anchor="middle" x="1742.2" y="-57.8" font-family="Times,serif" font-size="14.00">dep</text>
</g>
<!-- 19 -->
<g id="node20" class="node">
<title>19</title>
<ellipse fill="none" stroke="black" cx="1674.7" cy="-18" rx="40.89" ry="18"/>
<text text-anchor="middle" x="1674.7" y="-14.3" font-family="Times,serif" font-size="14.00">polícia</text>
</g>
<!-- 0&#45;&gt;19 -->
<g id="edge19" class="edge">
<title>0&#45;&gt;19</title>
<path fill="none" stroke="black" d="M1886.02,-97.13C1862.79,-90.49 1827.11,-79.87 1796.7,-69 1767.9,-58.7 1735.94,-45.54 1711.95,-35.3"/>
<polygon fill="black" stroke="black" points="1713.09,-31.98 1702.52,-31.25 1710.33,-38.41 1713.09,-31.98"/>
<text text-anchor="middle" x="1810.2" y="-57.8" font-family="Times,serif" font-size="14.00">dep</text>
</g>
<!-- 20 -->
<g id="node21" class="node">
<title>20</title>
<ellipse fill="none" stroke="black" cx="1760.7" cy="-18" rx="27" ry="18"/>
<text text-anchor="middle" x="1760.7" y="-14.3" font-family="Times,serif" font-size="14.00">e</text>
</g>
<!-- 0&#45;&gt;20 -->
<g id="edge20" class="edge">
<title>0&#45;&gt;20</title>
<path fill="none" stroke="black" d="M1890.78,-92.71C1864.89,-78.04 1819.49,-52.32 1789.76,-35.47"/>
<polygon fill="black" stroke="black" points="1791.12,-32.22 1780.7,-30.33 1787.67,-38.31 1791.12,-32.22"/>
<text text-anchor="middle" x="1858.2" y="-57.8" font-family="Times,serif" font-size="14.00">dep</text>
</g>
<!-- 21 -->
<g id="node22" class="node">
<title>21</title>
<ellipse fill="none" stroke="black" cx="1860.7" cy="-18" rx="54.69" ry="18"/>
<text text-anchor="middle" x="1860.7" y="-14.3" font-family="Times,serif" font-size="14.00">explicada</text>
</g>
<!-- 0&#45;&gt;21 -->
<g id="edge21" class="edge">
<title>0&#45;&gt;21</title>
<path fill="none" stroke="black" d="M1901.29,-88.01C1894.1,-75.78 1884.04,-58.68 1875.73,-44.56"/>
<polygon fill="black" stroke="black" points="1878.66,-42.63 1870.57,-35.79 1872.63,-46.18 1878.66,-42.63"/>
<text text-anchor="middle" x="1902.2" y="-57.8" font-family="Times,serif" font-size="14.00">dep</text>
</g>
<!-- 22 -->
<g id="node23" class="node">
<title>22</title>
<ellipse fill="none" stroke="black" cx="1960.7" cy="-18" rx="27" ry="18"/>
<text text-anchor="middle" x="1960.7" y="-14.3" font-family="Times,serif" font-size="14.00">por</text>
</g>
<!-- 0&#45;&gt;22 -->
<g id="edge22" class="edge">
<title>0&#45;&gt;22</title>
<path fill="none" stroke="black" d="M1920.1,-88.01C1927.43,-75.55 1937.75,-58.01 1946.14,-43.74"/>
<polygon fill="black" stroke="black" points="1949.28,-45.31 1951.33,-34.92 1943.25,-41.76 1949.28,-45.31"/>
<text text-anchor="middle" x="1952.2" y="-57.8" font-family="Times,serif" font-size="14.00">dep</text>
</g>
<!-- 23 -->
<g id="node24" class="node">
<title>23</title>
<ellipse fill="none" stroke="black" cx="2057.7" cy="-18" rx="51.99" ry="18"/>
<text text-anchor="middle" x="2057.7" y="-14.3" font-family="Times,serif" font-size="14.00">Cavalera</text>
</g>
<!-- 0&#45;&gt;23 -->
<g id="edge23" class="edge">
<title>0&#45;&gt;23</title>
<path fill="none" stroke="black" d="M1930.52,-92.54C1954.21,-78.84 1994.26,-55.68 2023.09,-39.01"/>
<polygon fill="black" stroke="black" points="2025.12,-41.88 2032.02,-33.85 2021.61,-35.82 2025.12,-41.88"/>
<text text-anchor="middle" x="2007.2" y="-57.8" font-family="Times,serif" font-size="14.00">dep</text>
</g>
<!-- 24 -->
<g id="node25" class="node">
<title>24</title>
<ellipse fill="none" stroke="black" cx="2162.7" cy="-18" rx="35.19" ry="18"/>
<text text-anchor="middle" x="2162.7" y="-14.3" font-family="Times,serif" font-size="14.00">como</text>
</g>
<!-- 0&#45;&gt;24 -->
<g id="edge24" class="edge">
<title>0&#45;&gt;24</title>
<path fill="none" stroke="black" d="M1935.25,-96.77C1958.39,-89.88 1994.02,-79.09 2024.7,-69 2066.76,-55.17 2077.15,-51.31 2118.7,-36 2121.2,-35.08 2123.79,-34.11 2126.38,-33.13"/>
<polygon fill="black" stroke="black" points="2127.66,-36.39 2135.75,-29.56 2125.16,-29.85 2127.66,-36.39"/>
<text text-anchor="middle" x="2083.2" y="-57.8" font-family="Times,serif" font-size="14.00">dep</text>
</g>
<!-- 25 -->
<g id="node26" class="node">
<title>25</title>
<ellipse fill="none" stroke="black" cx="2242.7" cy="-18" rx="27" ry="18"/>
<text text-anchor="middle" x="2242.7" y="-14.3" font-family="Times,serif" font-size="14.00">um</text>
</g>
<!-- 0&#45;&gt;25 -->
<g id="edge25" class="edge">
<title>0&#45;&gt;25</title>
<path fill="none" stroke="black" d="M1937.19,-100.56C1989.92,-93.14 2111.14,-73.23 2206.7,-36 2208.53,-35.28 2210.41,-34.52 2212.28,-33.72"/>
<polygon fill="black" stroke="black" points="2213.89,-36.84 2221.59,-29.57 2211.03,-30.45 2213.89,-36.84"/>
<text text-anchor="middle" x="2166.2" y="-57.8" font-family="Times,serif" font-size="14.00">dep</text>
</g>
<!-- 26 -->
<g id="node27" class="node">
<title>26</title>
<ellipse fill="none" stroke="black" cx="2333.7" cy="-18" rx="46.29" ry="18"/>
<text text-anchor="middle" x="2333.7" y="-14.3" font-family="Times,serif" font-size="14.00">simples</text>
</g>
<!-- 0&#45;&gt;26 -->
<g id="edge26" class="edge">
<title>0&#45;&gt;26</title>
<path fill="none" stroke="black" d="M1937.74,-102.28C1987.11,-98.76 2094.96,-89.28 2183.7,-69 2221.44,-60.38 2263.13,-46.08 2292.96,-34.97"/>
<polygon fill="black" stroke="black" points="2294.47,-38.14 2302.6,-31.34 2292.01,-31.59 2294.47,-38.14"/>
<text text-anchor="middle" x="2248.2" y="-57.8" font-family="Times,serif" font-size="14.00">dep</text>
</g>
<!-- 27 -->
<g id="node28" class="node">
<title>27</title>
<ellipse fill="none" stroke="black" cx="2443.7" cy="-18" rx="46.29" ry="18"/>
<text text-anchor="middle" x="2443.7" y="-14.3" font-family="Times,serif" font-size="14.00">tropeço</text>
</g>
<!-- 0&#45;&gt;27 -->
<g id="edge27" class="edge">
<title>0&#45;&gt;27</title>
<path fill="none" stroke="black" d="M1937.62,-102.85C1997.19,-99.99 2144.45,-91.09 2265.7,-69 2312.46,-60.48 2364.68,-45.09 2400.4,-33.62"/>
<polygon fill="black" stroke="black" points="2401.58,-36.92 2410.02,-30.5 2399.42,-30.26 2401.58,-36.92"/>
<text text-anchor="middle" x="2344.2" y="-57.8" font-family="Times,serif" font-size="14.00">dep</text>
</g>
<!-- 28 -->
<g id="node29" class="node">
<title>28</title>
<ellipse fill="none" stroke="black" cx="2534.7" cy="-18" rx="27" ry="18"/>
<text text-anchor="middle" x="2534.7" y="-14.3" font-family="Times,serif" font-size="14.00">,</text>
</g>
<!-- 0&#45;&gt;28 -->
<g id="edge28" class="edge">
<title>0&#45;&gt;28</title>
<path fill="none" stroke="black" d="M1937.81,-103.4C2008.19,-101.5 2202.29,-94.22 2361.7,-69 2423.56,-59.21 2439.63,-56.81 2498.7,-36 2500.6,-35.33 2502.54,-34.59 2504.49,-33.8"/>
<polygon fill="black" stroke="black" points="2506.29,-36.83 2514.06,-29.63 2503.5,-30.42 2506.29,-36.83"/>
<text text-anchor="middle" x="2454.2" y="-57.8" font-family="Times,serif" font-size="14.00">dep</text>
</g>
<!-- 29 -->
<g id="node30" class="node">
<title>29</title>
<ellipse fill="none" stroke="black" cx="2623.7" cy="-18" rx="43.59" ry="18"/>
<text text-anchor="middle" x="2623.7" y="-14.3" font-family="Times,serif" font-size="14.00">normal</text>
</g>
<!-- 0&#45;&gt;29 -->
<g id="edge29" class="edge">
<title>0&#45;&gt;29</title>
<path fill="none" stroke="black" d="M1937.87,-103.22C2035.4,-100.29 2367.48,-89.05 2471.7,-69 2511.08,-61.42 2554.39,-46.49 2584.67,-34.91"/>
<polygon fill="black" stroke="black" points="2585.96,-38.16 2594.02,-31.28 2583.43,-31.63 2585.96,-38.16"/>
<text text-anchor="middle" x="2541.2" y="-57.8" font-family="Times,serif" font-size="14.00">dep</text>
</g>
<!-- 30 -->
<g id="node31" class="node">
<title>30</title>
<ellipse fill="none" stroke="black" cx="2712.7" cy="-18" rx="27" ry="18"/>
<text text-anchor="middle" x="2712.7" y="-14.3" font-family="Times,serif" font-size="14.00">em</text>
</g>
<!-- 0&#45;&gt;30 -->
<g id="edge30" class="edge">
<title>0&#45;&gt;30</title>
<path fill="none" stroke="black" d="M1937.92,-103.32C2044.85,-100.54 2436.28,-89.17 2558.7,-69 2612.43,-60.15 2625.67,-55.03 2676.7,-36 2678.54,-35.31 2680.42,-34.57 2682.31,-33.78"/>
<polygon fill="black" stroke="black" points="2683.89,-36.91 2691.63,-29.67 2681.07,-30.51 2683.89,-36.91"/>
<text text-anchor="middle" x="2638.2" y="-57.8" font-family="Times,serif" font-size="14.00">dep</text>
</g>
<!-- 31 -->
<g id="node32" class="node">
<title>31</title>
<ellipse fill="none" stroke="black" cx="2784.7" cy="-18" rx="27" ry="18"/>
<text text-anchor="middle" x="2784.7" y="-14.3" font-family="Times,serif" font-size="14.00">a</text>
</g>
<!-- 0&#45;&gt;31 -->
<g id="edge31" class="edge">
<title>0&#45;&gt;31</title>
<path fill="none" stroke="black" d="M1937.97,-103.79C2054.9,-102.72 2514.19,-96.8 2655.7,-69 2691.02,-62.06 2729.19,-46.11 2754.77,-34.08"/>
<polygon fill="black" stroke="black" points="2756.43,-37.17 2763.93,-29.69 2753.4,-30.86 2756.43,-37.17"/>
<text text-anchor="middle" x="2720.2" y="-57.8" font-family="Times,serif" font-size="14.00">dep</text>
</g>
<!-- 32 -->
<g id="node33" class="node">
<title>32</title>
<ellipse fill="none" stroke="black" cx="2907.7" cy="-18" rx="77.99" ry="18"/>
<text text-anchor="middle" x="2907.7" y="-14.3" font-family="Times,serif" font-size="14.00">movimentação</text>
</g>
<!-- 0&#45;&gt;32 -->
<g id="edge32" class="edge">
<title>0&#45;&gt;32</title>
<path fill="none" stroke="black" d="M1937.95,-103.74C2062.53,-102.4 2578.56,-95.36 2737.7,-69 2779.27,-62.11 2825.03,-48.28 2858.58,-36.91"/>
<polygon fill="black" stroke="black" points="2859.83,-40.18 2868.15,-33.62 2857.56,-33.56 2859.83,-40.18"/>
<text text-anchor="middle" x="2813.2" y="-57.8" font-family="Times,serif" font-size="14.00">dep</text>
</g>
<!-- 33 -->
<g id="node34" class="node">
<title>33</title>
<ellipse fill="none" stroke="black" cx="3030.7" cy="-18" rx="27" ry="18"/>
<text text-anchor="middle" x="3030.7" y="-14.3" font-family="Times,serif" font-size="14.00">de</text>
</g>
<!-- 0&#45;&gt;33 -->
<g id="edge33" class="edge">
<title>0&#45;&gt;33</title>
<path fill="none" stroke="black" d="M1937.81,-103.56C2070.37,-101.3 2651.14,-90.34 2830.7,-69 2904.53,-60.23 2924.12,-59.38 2994.7,-36 2996.62,-35.36 2998.57,-34.65 3000.52,-33.89"/>
<polygon fill="black" stroke="black" points="3002.3,-36.93 3010.11,-29.77 2999.54,-30.5 3002.3,-36.93"/>
<text text-anchor="middle" x="2944.2" y="-57.8" font-family="Times,serif" font-size="14.00">dep</text>
</g>
<!-- 34 -->
<g id="node35" class="node">
<title>34</title>
<ellipse fill="none" stroke="black" cx="3110.7" cy="-18" rx="35.19" ry="18"/>
<text text-anchor="middle" x="3110.7" y="-14.3" font-family="Times,serif" font-size="14.00">palco</text>
</g>
<!-- 0&#45;&gt;34 -->
<g id="edge34" class="edge">
<title>0&#45;&gt;34</title>
<path fill="none" stroke="black" d="M1937.83,-104.09C2081.67,-104.42 2756.31,-104.02 2961.7,-69 3001.81,-62.16 3045.76,-46.32 3075.45,-34.29"/>
<polygon fill="black" stroke="black" points="3077.04,-37.42 3084.95,-30.37 3074.37,-30.95 3077.04,-37.42"/>
<text text-anchor="middle" x="3034.2" y="-57.8" font-family="Times,serif" font-size="14.00">dep</text>
</g>
<!-- 35 -->
<g id="node36" class="node">
<title>35</title>
<ellipse fill="none" stroke="black" cx="3190.7" cy="-18" rx="27" ry="18"/>
<text text-anchor="middle" x="3190.7" y="-14.3" font-family="Times,serif" font-size="14.00">,</text>
</g>
<!-- 0&#45;&gt;35 -->
<g id="edge35" class="edge">
<title>0&#45;&gt;35</title>
<path fill="none" stroke="black" d="M1938.13,-104.19C2089.9,-105.12 2827.82,-107.51 3051.7,-69 3099.07,-60.85 3109.98,-53.63 3154.7,-36 3156.53,-35.28 3158.4,-34.5 3160.28,-33.7"/>
<polygon fill="black" stroke="black" points="3161.88,-36.82 3169.58,-29.54 3159.02,-30.43 3161.88,-36.82"/>
<text text-anchor="middle" x="3123.2" y="-57.8" font-family="Times,serif" font-size="14.00">dep</text>
</g>
<!-- 36 -->
<g id="node37" class="node">
<title>36</title>
<ellipse fill="none" stroke="black" cx="3262.7" cy="-18" rx="27" ry="18"/>
<text text-anchor="middle" x="3262.7" y="-14.3" font-family="Times,serif" font-size="14.00">em</text>
</g>
<!-- 0&#45;&gt;36 -->
<g id="edge36" class="edge">
<title>0&#45;&gt;36</title>
<path fill="none" stroke="black" d="M1937.9,-103.78C2107.73,-102.3 3019.2,-93.3 3140.7,-69 3173.79,-62.38 3209.23,-46.8 3233.34,-34.78"/>
<polygon fill="black" stroke="black" points="3234.98,-37.87 3242.3,-30.21 3231.81,-31.63 3234.98,-37.87"/>
<text text-anchor="middle" x="3203.2" y="-57.8" font-family="Times,serif" font-size="14.00">dep</text>
</g>
<!-- 37 -->
<g id="node38" class="node">
<title>37</title>
<ellipse fill="none" stroke="black" cx="3334.7" cy="-18" rx="27" ry="18"/>
<text text-anchor="middle" x="3334.7" y="-14.3" font-family="Times,serif" font-size="14.00">seu</text>
</g>
<!-- 0&#45;&gt;37 -->
<g id="edge37" class="edge">
<title>0&#45;&gt;37</title>
<path fill="none" stroke="black" d="M1937.66,-103.88C2113.29,-103.03 3091.25,-97.06 3220.7,-69 3251.19,-62.39 3283.55,-47.33 3305.97,-35.46"/>
<polygon fill="black" stroke="black" points="3307.81,-38.44 3314.93,-30.6 3304.47,-32.29 3307.81,-38.44"/>
<text text-anchor="middle" x="3280.2" y="-57.8" font-family="Times,serif" font-size="14.00">dep</text>
</g>
<!-- 38 -->
<g id="node39" class="node">
<title>38</title>
<ellipse fill="none" stroke="black" cx="3445.7" cy="-18" rx="65.79" ry="18"/>
<text text-anchor="middle" x="3445.7" y="-14.3" font-family="Times,serif" font-size="14.00">depoimento</text>
</g>
<!-- 0&#45;&gt;38 -->
<g id="edge38" class="edge">
<title>0&#45;&gt;38</title>
<path fill="none" stroke="black" d="M1937.75,-103.81C2119.45,-102.43 3159.25,-93.55 3297.7,-69 3334.05,-62.55 3373.58,-48.83 3402.64,-37.39"/>
<polygon fill="black" stroke="black" points="3404.09,-40.57 3412.07,-33.61 3401.49,-34.08 3404.09,-40.57"/>
<text text-anchor="middle" x="3370.2" y="-57.8" font-family="Times,serif" font-size="14.00">dep</text>
</g>
<!-- 39 -->
<g id="node40" class="node">
<title>39</title>
<ellipse fill="none" stroke="black" cx="3556.7" cy="-18" rx="27" ry="18"/>
<text text-anchor="middle" x="3556.7" y="-14.3" font-family="Times,serif" font-size="14.00">em</text>
</g>
<!-- 0&#45;&gt;39 -->
<g id="edge39" class="edge">
<title>0&#45;&gt;39</title>
<path fill="none" stroke="black" d="M1937.71,-104.17C2113.06,-105.15 3091.85,-108.72 3387.7,-69 3448.06,-60.9 3463.32,-56.44 3520.7,-36 3522.6,-35.32 3524.54,-34.58 3526.48,-33.79"/>
<polygon fill="black" stroke="black" points="3528.29,-36.82 3536.05,-29.6 3525.49,-30.4 3528.29,-36.82"/>
<text text-anchor="middle" x="3480.2" y="-57.8" font-family="Times,serif" font-size="14.00">dep</text>
</g>
<!-- 40 -->
<g id="node41" class="node">
<title>40</title>
<ellipse fill="none" stroke="black" cx="3628.7" cy="-18" rx="27" ry="18"/>
<text text-anchor="middle" x="3628.7" y="-14.3" font-family="Times,serif" font-size="14.00">a</text>
</g>
<!-- 0&#45;&gt;40 -->
<g id="edge40" class="edge">
<title>0&#45;&gt;40</title>
<path fill="none" stroke="black" d="M1937.77,-103.91C2134.24,-103.2 3338.35,-97.7 3497.7,-69 3533.81,-62.5 3572.82,-46.31 3598.79,-34.11"/>
<polygon fill="black" stroke="black" points="3600.57,-37.14 3608.07,-29.65 3597.54,-30.83 3600.57,-37.14"/>
<text text-anchor="middle" x="3563.2" y="-57.8" font-family="Times,serif" font-size="14.00">dep</text>
</g>
<!-- 41 -->
<g id="node42" class="node">
<title>41</title>
<ellipse fill="none" stroke="black" cx="3728.7" cy="-18" rx="54.69" ry="18"/>
<text text-anchor="middle" x="3728.7" y="-14.3" font-family="Times,serif" font-size="14.00">delegacia</text>
</g>
<!-- 0&#45;&gt;41 -->
<g id="edge41" class="edge">
<title>0&#45;&gt;41</title>
<path fill="none" stroke="black" d="M1937.87,-103.93C2140.51,-103.34 3412.52,-98.45 3580.7,-69 3617.9,-62.48 3658.42,-48.26 3687.64,-36.65"/>
<polygon fill="black" stroke="black" points="3689.14,-39.82 3697.1,-32.82 3686.52,-33.33 3689.14,-39.82"/>
<text text-anchor="middle" x="3653.2" y="-57.8" font-family="Times,serif" font-size="14.00">dep</text>
</g>
<!-- 42 -->
<g id="node43" class="node">
<title>42</title>
<ellipse fill="none" stroke="black" cx="3828.7" cy="-18" rx="27" ry="18"/>
<text text-anchor="middle" x="3828.7" y="-14.3" font-family="Times,serif" font-size="14.00">.</text>
</g>
<!-- 0&#45;&gt;42 -->
<g id="edge42" class="edge">
<title>0&#45;&gt;42</title>
<path fill="none" stroke="black" d="M1937.65,-103.86C2145.64,-102.74 3492.1,-94.54 3670.7,-69 3726.3,-61.05 3739.98,-55.4 3792.7,-36 3794.55,-35.32 3796.43,-34.58 3798.32,-33.8"/>
<polygon fill="black" stroke="black" points="3799.9,-36.93 3807.64,-29.7 3797.08,-30.52 3799.9,-36.93"/>
<text text-anchor="middle" x="3755.2" y="-57.8" font-family="Times,serif" font-size="14.00">dep</text>
</g>
</g>
</svg>
