<?xml version="1.0" encoding="UTF-8" standalone="no"?>
<!DOCTYPE svg PUBLIC "-//W3C//DTD SVG 1.1//EN"
 "http://www.w3.org/Graphics/SVG/1.1/DTD/svg11.dtd">
<!-- Generated by graphviz version 2.42.4 (0)
 -->
<!-- Pages: 1 -->
<svg width="404pt" height="131pt"
 viewBox="0.00 0.00 403.55 131.00" xmlns="http://www.w3.org/2000/svg" xmlns:xlink="http://www.w3.org/1999/xlink">
<g id="graph0" class="graph" transform="scale(1 1) rotate(0) translate(4 127)">
<polygon fill="white" stroke="transparent" points="-4,4 -4,-127 399.55,-127 399.55,4 -4,4"/>
<!-- 0 -->
<g id="node1" class="node">
<title>0</title>
<ellipse fill="none" stroke="black" cx="197.55" cy="-105" rx="36.29" ry="18"/>
<text text-anchor="middle" x="197.55" y="-101.3" font-family="Times,serif" font-size="14.00">Fazer</text>
</g>
<!-- 1 -->
<g id="node2" class="node">
<title>1</title>
<ellipse fill="none" stroke="black" cx="30.55" cy="-18" rx="30.59" ry="18"/>
<text text-anchor="middle" x="30.55" y="-14.3" font-family="Times,serif" font-size="14.00">uma</text>
</g>
<!-- 0&#45;&gt;1 -->
<g id="edge1" class="edge">
<title>0&#45;&gt;1</title>
<path fill="none" stroke="black" d="M172.91,-91.46C143.43,-76.45 94.03,-51.31 61.87,-34.94"/>
<polygon fill="black" stroke="black" points="63.38,-31.79 52.88,-30.37 60.21,-38.02 63.38,-31.79"/>
<text text-anchor="middle" x="138.05" y="-57.8" font-family="Times,serif" font-size="14.00">dep</text>
</g>
<!-- 2 -->
<g id="node3" class="node">
<title>2</title>
<ellipse fill="none" stroke="black" cx="132.55" cy="-18" rx="53.09" ry="18"/>
<text text-anchor="middle" x="132.55" y="-14.3" font-family="Times,serif" font-size="14.00">pergunta</text>
</g>
<!-- 0&#45;&gt;2 -->
<g id="edge2" class="edge">
<title>0&#45;&gt;2</title>
<path fill="none" stroke="black" d="M185.32,-88.01C175.73,-75.47 162.22,-57.8 151.26,-43.48"/>
<polygon fill="black" stroke="black" points="154.02,-41.31 145.16,-35.5 148.46,-45.57 154.02,-41.31"/>
<text text-anchor="middle" x="183.05" y="-57.8" font-family="Times,serif" font-size="14.00">dep</text>
</g>
<!-- 3 -->
<g id="node4" class="node">
<title>3</title>
<ellipse fill="none" stroke="black" cx="263.55" cy="-18" rx="59.59" ry="18"/>
<text text-anchor="middle" x="263.55" y="-14.3" font-family="Times,serif" font-size="14.00">pertinente</text>
</g>
<!-- 0&#45;&gt;3 -->
<g id="edge3" class="edge">
<title>0&#45;&gt;3</title>
<path fill="none" stroke="black" d="M209.96,-88.01C219.64,-75.55 233.25,-58.02 244.33,-43.75"/>
<polygon fill="black" stroke="black" points="247.14,-45.83 250.51,-35.79 241.61,-41.54 247.14,-45.83"/>
<text text-anchor="middle" x="248.05" y="-57.8" font-family="Times,serif" font-size="14.00">dep</text>
</g>
<!-- 4 -->
<g id="node5" class="node">
<title>4</title>
<ellipse fill="none" stroke="black" cx="368.55" cy="-18" rx="27" ry="18"/>
<text text-anchor="middle" x="368.55" y="-14.3" font-family="Times,serif" font-size="14.00">.</text>
</g>
<!-- 0&#45;&gt;4 -->
<g id="edge4" class="edge">
<title>0&#45;&gt;4</title>
<path fill="none" stroke="black" d="M222.41,-91.64C253.1,-76.39 305.26,-50.46 338.25,-34.06"/>
<polygon fill="black" stroke="black" points="340.03,-37.08 347.43,-29.5 336.91,-30.82 340.03,-37.08"/>
<text text-anchor="middle" x="307.05" y="-57.8" font-family="Times,serif" font-size="14.00">dep</text>
</g>
</g>
</svg>
