<?xml version="1.0" encoding="UTF-8" standalone="no"?>
<!DOCTYPE svg PUBLIC "-//W3C//DTD SVG 1.1//EN"
 "http://www.w3.org/Graphics/SVG/1.1/DTD/svg11.dtd">
<!-- Generated by graphviz version 2.42.4 (0)
 -->
<!-- Pages: 1 -->
<svg width="1566pt" height="131pt"
 viewBox="0.00 0.00 1565.90 131.00" xmlns="http://www.w3.org/2000/svg" xmlns:xlink="http://www.w3.org/1999/xlink">
<g id="graph0" class="graph" transform="scale(1 1) rotate(0) translate(4 127)">
<polygon fill="white" stroke="transparent" points="-4,4 -4,-127 1561.9,-127 1561.9,4 -4,4"/>
<!-- 0 -->
<g id="node1" class="node">
<title>0</title>
<ellipse fill="none" stroke="black" cx="795.9" cy="-105" rx="27" ry="18"/>
<text text-anchor="middle" x="795.9" y="-101.3" font-family="Times,serif" font-size="14.00">O</text>
</g>
<!-- 1 -->
<g id="node2" class="node">
<title>1</title>
<ellipse fill="none" stroke="black" cx="42.9" cy="-18" rx="42.79" ry="18"/>
<text text-anchor="middle" x="42.9" y="-14.3" font-family="Times,serif" font-size="14.00">árbitro</text>
</g>
<!-- 0&#45;&gt;1 -->
<g id="edge1" class="edge">
<title>0&#45;&gt;1</title>
<path fill="none" stroke="black" d="M768.69,-104.39C685.17,-105.14 425.32,-104.27 213.9,-69 168.36,-61.4 117.79,-45.67 83.54,-33.87"/>
<polygon fill="black" stroke="black" points="84.49,-30.49 73.89,-30.5 82.18,-37.1 84.49,-30.49"/>
<text text-anchor="middle" x="227.4" y="-57.8" font-family="Times,serif" font-size="14.00">dep</text>
</g>
<!-- 2 -->
<g id="node3" class="node">
<title>2</title>
<ellipse fill="none" stroke="black" cx="138.9" cy="-18" rx="35.19" ry="18"/>
<text text-anchor="middle" x="138.9" y="-14.3" font-family="Times,serif" font-size="14.00">Pinto</text>
</g>
<!-- 0&#45;&gt;2 -->
<g id="edge2" class="edge">
<title>0&#45;&gt;2</title>
<path fill="none" stroke="black" d="M768.91,-103.66C695.61,-102.37 486.88,-96.4 315.9,-69 256.19,-59.43 241.61,-54.05 183.9,-36 181.13,-35.14 178.29,-34.19 175.44,-33.21"/>
<polygon fill="black" stroke="black" points="176.44,-29.85 165.85,-29.76 174.07,-36.44 176.44,-29.85"/>
<text text-anchor="middle" x="329.4" y="-57.8" font-family="Times,serif" font-size="14.00">dep</text>
</g>
<!-- 3 -->
<g id="node4" class="node">
<title>3</title>
<ellipse fill="none" stroke="black" cx="237.9" cy="-18" rx="45.49" ry="18"/>
<text text-anchor="middle" x="237.9" y="-14.3" font-family="Times,serif" font-size="14.00">Correia</text>
</g>
<!-- 0&#45;&gt;3 -->
<g id="edge3" class="edge">
<title>0&#45;&gt;3</title>
<path fill="none" stroke="black" d="M768.85,-103.3C705.33,-101.28 541.89,-93.88 407.9,-69 363.44,-60.75 313.99,-45.49 279.93,-33.99"/>
<polygon fill="black" stroke="black" points="280.91,-30.62 270.32,-30.7 278.65,-37.25 280.91,-30.62"/>
<text text-anchor="middle" x="421.4" y="-57.8" font-family="Times,serif" font-size="14.00">dep</text>
</g>
<!-- 4 -->
<g id="node5" class="node">
<title>4</title>
<ellipse fill="none" stroke="black" cx="341.9" cy="-18" rx="40.89" ry="18"/>
<text text-anchor="middle" x="341.9" y="-14.3" font-family="Times,serif" font-size="14.00">esteve</text>
</g>
<!-- 0&#45;&gt;4 -->
<g id="edge4" class="edge">
<title>0&#45;&gt;4</title>
<path fill="none" stroke="black" d="M768.85,-102.67C715.53,-99.67 593.28,-90.81 492.9,-69 453.98,-60.55 411,-45.75 380.88,-34.44"/>
<polygon fill="black" stroke="black" points="381.77,-31.04 371.18,-30.75 379.28,-37.58 381.77,-31.04"/>
<text text-anchor="middle" x="506.4" y="-57.8" font-family="Times,serif" font-size="14.00">dep</text>
</g>
<!-- 5 -->
<g id="node6" class="node">
<title>5</title>
<ellipse fill="none" stroke="black" cx="430.9" cy="-18" rx="30.59" ry="18"/>
<text text-anchor="middle" x="430.9" y="-14.3" font-family="Times,serif" font-size="14.00">bem</text>
</g>
<!-- 0&#45;&gt;5 -->
<g id="edge5" class="edge">
<title>0&#45;&gt;5</title>
<path fill="none" stroke="black" d="M769.54,-100.83C728.78,-95.68 648.15,-84.49 580.9,-69 531.16,-57.54 518.9,-53.34 470.9,-36 468.54,-35.15 466.12,-34.23 463.69,-33.28"/>
<polygon fill="black" stroke="black" points="465,-30.03 454.41,-29.5 462.36,-36.52 465,-30.03"/>
<text text-anchor="middle" x="594.4" y="-57.8" font-family="Times,serif" font-size="14.00">dep</text>
</g>
<!-- 6 -->
<g id="node7" class="node">
<title>6</title>
<ellipse fill="none" stroke="black" cx="526.9" cy="-18" rx="47.39" ry="18"/>
<text text-anchor="middle" x="526.9" y="-14.3" font-family="Times,serif" font-size="14.00">durante</text>
</g>
<!-- 0&#45;&gt;6 -->
<g id="edge6" class="edge">
<title>0&#45;&gt;6</title>
<path fill="none" stroke="black" d="M770.48,-98.81C741.84,-92.71 694.06,-81.79 653.9,-69 624,-59.48 591.05,-46.43 566.21,-36.05"/>
<polygon fill="black" stroke="black" points="567.34,-32.73 556.77,-32.07 564.62,-39.18 567.34,-32.73"/>
<text text-anchor="middle" x="667.4" y="-57.8" font-family="Times,serif" font-size="14.00">dep</text>
</g>
<!-- 7 -->
<g id="node8" class="node">
<title>7</title>
<ellipse fill="none" stroke="black" cx="623.9" cy="-18" rx="31.4" ry="18"/>
<text text-anchor="middle" x="623.9" y="-14.3" font-family="Times,serif" font-size="14.00">toda</text>
</g>
<!-- 0&#45;&gt;7 -->
<g id="edge7" class="edge">
<title>0&#45;&gt;7</title>
<path fill="none" stroke="black" d="M772.74,-95.23C755.68,-88.56 732.04,-78.87 711.9,-69 691.93,-59.21 670.19,-46.88 653.32,-36.91"/>
<polygon fill="black" stroke="black" points="654.87,-33.76 644.49,-31.65 651.29,-39.78 654.87,-33.76"/>
<text text-anchor="middle" x="725.4" y="-57.8" font-family="Times,serif" font-size="14.00">dep</text>
</g>
<!-- 8 -->
<g id="node9" class="node">
<title>8</title>
<ellipse fill="none" stroke="black" cx="699.9" cy="-18" rx="27" ry="18"/>
<text text-anchor="middle" x="699.9" y="-14.3" font-family="Times,serif" font-size="14.00">a</text>
</g>
<!-- 0&#45;&gt;8 -->
<g id="edge8" class="edge">
<title>0&#45;&gt;8</title>
<path fill="none" stroke="black" d="M780.04,-89.96C764.53,-76.22 740.71,-55.14 723.07,-39.52"/>
<polygon fill="black" stroke="black" points="725.26,-36.78 715.45,-32.77 720.62,-42.02 725.26,-36.78"/>
<text text-anchor="middle" x="767.4" y="-57.8" font-family="Times,serif" font-size="14.00">dep</text>
</g>
<!-- 9 -->
<g id="node10" class="node">
<title>9</title>
<ellipse fill="none" stroke="black" cx="795.9" cy="-18" rx="50.89" ry="18"/>
<text text-anchor="middle" x="795.9" y="-14.3" font-family="Times,serif" font-size="14.00">primeira</text>
</g>
<!-- 0&#45;&gt;9 -->
<g id="edge9" class="edge">
<title>0&#45;&gt;9</title>
<path fill="none" stroke="black" d="M795.9,-86.8C795.9,-75.16 795.9,-59.55 795.9,-46.24"/>
<polygon fill="black" stroke="black" points="799.4,-46.18 795.9,-36.18 792.4,-46.18 799.4,-46.18"/>
<text text-anchor="middle" x="809.4" y="-57.8" font-family="Times,serif" font-size="14.00">dep</text>
</g>
<!-- 10 -->
<g id="node11" class="node">
<title>10</title>
<ellipse fill="none" stroke="black" cx="899.9" cy="-18" rx="36" ry="18"/>
<text text-anchor="middle" x="899.9" y="-14.3" font-family="Times,serif" font-size="14.00">parte</text>
</g>
<!-- 0&#45;&gt;10 -->
<g id="edge10" class="edge">
<title>0&#45;&gt;10</title>
<path fill="none" stroke="black" d="M812.61,-90.34C829.19,-76.79 854.83,-55.83 874.04,-40.13"/>
<polygon fill="black" stroke="black" points="876.3,-42.8 881.83,-33.76 871.87,-37.38 876.3,-42.8"/>
<text text-anchor="middle" x="868.4" y="-57.8" font-family="Times,serif" font-size="14.00">dep</text>
</g>
<!-- 11 -->
<g id="node12" class="node">
<title>11</title>
<ellipse fill="none" stroke="black" cx="980.9" cy="-18" rx="27" ry="18"/>
<text text-anchor="middle" x="980.9" y="-14.3" font-family="Times,serif" font-size="14.00">e</text>
</g>
<!-- 0&#45;&gt;11 -->
<g id="edge11" class="edge">
<title>0&#45;&gt;11</title>
<path fill="none" stroke="black" d="M819.13,-95.79C837.48,-89.11 863.62,-79.15 885.9,-69 908.53,-58.68 933.38,-45.54 951.99,-35.31"/>
<polygon fill="black" stroke="black" points="953.79,-38.31 960.84,-30.41 950.4,-32.19 953.79,-38.31"/>
<text text-anchor="middle" x="929.4" y="-57.8" font-family="Times,serif" font-size="14.00">dep</text>
</g>
<!-- 12 -->
<g id="node13" class="node">
<title>12</title>
<ellipse fill="none" stroke="black" cx="1072.9" cy="-18" rx="47.39" ry="18"/>
<text text-anchor="middle" x="1072.9" y="-14.3" font-family="Times,serif" font-size="14.00">durante</text>
</g>
<!-- 0&#45;&gt;12 -->
<g id="edge12" class="edge">
<title>0&#45;&gt;12</title>
<path fill="none" stroke="black" d="M821.59,-99.27C851.89,-93.41 903.61,-82.52 946.9,-69 976.64,-59.71 1009.33,-46.65 1033.96,-36.21"/>
<polygon fill="black" stroke="black" points="1035.49,-39.36 1043.31,-32.2 1032.74,-32.92 1035.49,-39.36"/>
<text text-anchor="middle" x="1003.4" y="-57.8" font-family="Times,serif" font-size="14.00">dep</text>
</g>
<!-- 13 -->
<g id="node14" class="node">
<title>13</title>
<ellipse fill="none" stroke="black" cx="1176.9" cy="-18" rx="38.19" ry="18"/>
<text text-anchor="middle" x="1176.9" y="-14.3" font-family="Times,serif" font-size="14.00">quase</text>
</g>
<!-- 0&#45;&gt;13 -->
<g id="edge13" class="edge">
<title>0&#45;&gt;13</title>
<path fill="none" stroke="black" d="M822.45,-101.11C864.78,-96.23 950,-85.26 1020.9,-69 1069.82,-57.78 1081.23,-51.72 1128.9,-36 1131.82,-35.03 1134.85,-34.02 1137.88,-32.98"/>
<polygon fill="black" stroke="black" points="1139.22,-36.22 1147.52,-29.63 1136.93,-29.61 1139.22,-36.22"/>
<text text-anchor="middle" x="1089.4" y="-57.8" font-family="Times,serif" font-size="14.00">dep</text>
</g>
<!-- 14 -->
<g id="node15" class="node">
<title>14</title>
<ellipse fill="none" stroke="black" cx="1264.9" cy="-18" rx="31.4" ry="18"/>
<text text-anchor="middle" x="1264.9" y="-14.3" font-family="Times,serif" font-size="14.00">toda</text>
</g>
<!-- 0&#45;&gt;14 -->
<g id="edge14" class="edge">
<title>0&#45;&gt;14</title>
<path fill="none" stroke="black" d="M822.74,-102.46C876.9,-99.02 1002.92,-89.37 1106.9,-69 1159.92,-58.61 1172.85,-53.71 1223.9,-36 1226.32,-35.16 1228.8,-34.25 1231.29,-33.31"/>
<polygon fill="black" stroke="black" points="1232.78,-36.48 1240.8,-29.55 1230.21,-29.97 1232.78,-36.48"/>
<text text-anchor="middle" x="1184.4" y="-57.8" font-family="Times,serif" font-size="14.00">dep</text>
</g>
<!-- 15 -->
<g id="node16" class="node">
<title>15</title>
<ellipse fill="none" stroke="black" cx="1340.9" cy="-18" rx="27" ry="18"/>
<text text-anchor="middle" x="1340.9" y="-14.3" font-family="Times,serif" font-size="14.00">a</text>
</g>
<!-- 0&#45;&gt;15 -->
<g id="edge15" class="edge">
<title>0&#45;&gt;15</title>
<path fill="none" stroke="black" d="M823.28,-103.75C889.15,-102.68 1061.43,-97.18 1201.9,-69 1249.03,-59.54 1260.18,-53.63 1304.9,-36 1306.73,-35.28 1308.6,-34.5 1310.48,-33.7"/>
<polygon fill="black" stroke="black" points="1312.08,-36.82 1319.78,-29.54 1309.22,-30.43 1312.08,-36.82"/>
<text text-anchor="middle" x="1271.4" y="-57.8" font-family="Times,serif" font-size="14.00">dep</text>
</g>
<!-- 16 -->
<g id="node17" class="node">
<title>16</title>
<ellipse fill="none" stroke="black" cx="1435.9" cy="-18" rx="50.09" ry="18"/>
<text text-anchor="middle" x="1435.9" y="-14.3" font-family="Times,serif" font-size="14.00">segunda</text>
</g>
<!-- 0&#45;&gt;16 -->
<g id="edge16" class="edge">
<title>0&#45;&gt;16</title>
<path fill="none" stroke="black" d="M822.94,-104.5C897.84,-105.36 1113.96,-104.35 1288.9,-69 1325.81,-61.54 1366.21,-47.33 1395.3,-35.96"/>
<polygon fill="black" stroke="black" points="1396.71,-39.17 1404.72,-32.23 1394.13,-32.66 1396.71,-39.17"/>
<text text-anchor="middle" x="1356.4" y="-57.8" font-family="Times,serif" font-size="14.00">dep</text>
</g>
<!-- 17 -->
<g id="node18" class="node">
<title>17</title>
<ellipse fill="none" stroke="black" cx="1530.9" cy="-18" rx="27" ry="18"/>
<text text-anchor="middle" x="1530.9" y="-14.3" font-family="Times,serif" font-size="14.00">.</text>
</g>
<!-- 0&#45;&gt;17 -->
<g id="edge17" class="edge">
<title>0&#45;&gt;17</title>
<path fill="none" stroke="black" d="M822.91,-104.33C905.83,-104.92 1163.86,-103.62 1373.9,-69 1428.9,-59.93 1442.61,-55.31 1494.9,-36 1496.74,-35.32 1498.63,-34.58 1500.51,-33.8"/>
<polygon fill="black" stroke="black" points="1502.1,-36.93 1509.84,-29.7 1499.28,-30.52 1502.1,-36.93"/>
<text text-anchor="middle" x="1455.4" y="-57.8" font-family="Times,serif" font-size="14.00">dep</text>
</g>
</g>
</svg>
