<?xml version="1.0" encoding="UTF-8" standalone="no"?>
<!DOCTYPE svg PUBLIC "-//W3C//DTD SVG 1.1//EN"
 "http://www.w3.org/Graphics/SVG/1.1/DTD/svg11.dtd">
<!-- Generated by graphviz version 2.42.4 (0)
 -->
<!-- Pages: 1 -->
<svg width="2465pt" height="131pt"
 viewBox="0.00 0.00 2465.30 131.00" xmlns="http://www.w3.org/2000/svg" xmlns:xlink="http://www.w3.org/1999/xlink">
<g id="graph0" class="graph" transform="scale(1 1) rotate(0) translate(4 127)">
<polygon fill="white" stroke="transparent" points="-4,4 -4,-127 2461.3,-127 2461.3,4 -4,4"/>
<!-- 0 -->
<g id="node1" class="node">
<title>0</title>
<ellipse fill="none" stroke="black" cx="1178.3" cy="-105" rx="27" ry="18"/>
<text text-anchor="middle" x="1178.3" y="-101.3" font-family="Times,serif" font-size="14.00">Se</text>
</g>
<!-- 1 -->
<g id="node2" class="node">
<title>1</title>
<ellipse fill="none" stroke="black" cx="27.3" cy="-18" rx="27.1" ry="18"/>
<text text-anchor="middle" x="27.3" y="-14.3" font-family="Times,serif" font-size="14.00">não</text>
</g>
<!-- 0&#45;&gt;1 -->
<g id="edge1" class="edge">
<title>0&#45;&gt;1</title>
<path fill="none" stroke="black" d="M1150.96,-104.01C1010.43,-103.94 368.36,-101.78 172.3,-69 122.79,-60.72 111.21,-53.85 64.3,-36 62.2,-35.2 60.06,-34.34 57.92,-33.45"/>
<polygon fill="black" stroke="black" points="59.18,-30.18 48.61,-29.38 56.37,-36.59 59.18,-30.18"/>
<text text-anchor="middle" x="185.8" y="-57.8" font-family="Times,serif" font-size="14.00">dep</text>
</g>
<!-- 2 -->
<g id="node3" class="node">
<title>2</title>
<ellipse fill="none" stroke="black" cx="113.3" cy="-18" rx="40.09" ry="18"/>
<text text-anchor="middle" x="113.3" y="-14.3" font-family="Times,serif" font-size="14.00">quiser</text>
</g>
<!-- 0&#45;&gt;2 -->
<g id="edge2" class="edge">
<title>0&#45;&gt;2</title>
<path fill="none" stroke="black" d="M1151.18,-104.01C1018.58,-103.91 437.76,-101.56 260.3,-69 221.83,-61.94 179.74,-46.82 150.5,-35.05"/>
<polygon fill="black" stroke="black" points="151.68,-31.75 141.1,-31.2 149.03,-38.23 151.68,-31.75"/>
<text text-anchor="middle" x="273.8" y="-57.8" font-family="Times,serif" font-size="14.00">dep</text>
</g>
<!-- 3 -->
<g id="node4" class="node">
<title>3</title>
<ellipse fill="none" stroke="black" cx="198.3" cy="-18" rx="27" ry="18"/>
<text text-anchor="middle" x="198.3" y="-14.3" font-family="Times,serif" font-size="14.00">se</text>
</g>
<!-- 0&#45;&gt;3 -->
<g id="edge3" class="edge">
<title>0&#45;&gt;3</title>
<path fill="none" stroke="black" d="M1151.19,-103.56C1028.4,-101.45 523.7,-91.55 367.3,-69 307.02,-60.31 291.67,-56.44 234.3,-36 232.39,-35.32 230.45,-34.58 228.51,-33.79"/>
<polygon fill="black" stroke="black" points="229.51,-30.4 218.94,-29.6 226.7,-36.82 229.51,-30.4"/>
<text text-anchor="middle" x="380.8" y="-57.8" font-family="Times,serif" font-size="14.00">dep</text>
</g>
<!-- 4 -->
<g id="node5" class="node">
<title>4</title>
<ellipse fill="none" stroke="black" cx="300.3" cy="-18" rx="56.59" ry="18"/>
<text text-anchor="middle" x="300.3" y="-14.3" font-family="Times,serif" font-size="14.00">aventurar</text>
</g>
<!-- 0&#45;&gt;4 -->
<g id="edge4" class="edge">
<title>0&#45;&gt;4</title>
<path fill="none" stroke="black" d="M1151.04,-103.65C1036.25,-102.02 591.85,-94.19 454.3,-69 415.75,-61.94 373.52,-47.74 343.04,-36.27"/>
<polygon fill="black" stroke="black" points="344.17,-32.96 333.58,-32.66 341.67,-39.5 344.17,-32.96"/>
<text text-anchor="middle" x="467.8" y="-57.8" font-family="Times,serif" font-size="14.00">dep</text>
</g>
<!-- 5 -->
<g id="node6" class="node">
<title>5</title>
<ellipse fill="none" stroke="black" cx="402.3" cy="-18" rx="27" ry="18"/>
<text text-anchor="middle" x="402.3" y="-14.3" font-family="Times,serif" font-size="14.00">por</text>
</g>
<!-- 0&#45;&gt;5 -->
<g id="edge5" class="edge">
<title>0&#45;&gt;5</title>
<path fill="none" stroke="black" d="M1151.25,-103.41C1045.87,-100.96 662.79,-90.72 543.3,-69 495.17,-60.25 483.85,-53.82 438.3,-36 436.46,-35.28 434.59,-34.51 432.71,-33.71"/>
<polygon fill="black" stroke="black" points="433.97,-30.44 423.41,-29.56 431.11,-36.83 433.97,-30.44"/>
<text text-anchor="middle" x="556.8" y="-57.8" font-family="Times,serif" font-size="14.00">dep</text>
</g>
<!-- 6 -->
<g id="node7" class="node">
<title>6</title>
<ellipse fill="none" stroke="black" cx="474.3" cy="-18" rx="27" ry="18"/>
<text text-anchor="middle" x="474.3" y="-14.3" font-family="Times,serif" font-size="14.00">a</text>
</g>
<!-- 0&#45;&gt;6 -->
<g id="edge6" class="edge">
<title>0&#45;&gt;6</title>
<path fill="none" stroke="black" d="M1151.24,-103.4C1075.25,-101.44 853.57,-93.86 671.3,-69 598.92,-59.13 579.59,-59.09 510.3,-36 508.38,-35.36 506.43,-34.65 504.48,-33.88"/>
<polygon fill="black" stroke="black" points="505.46,-30.49 494.89,-29.76 502.69,-36.92 505.46,-30.49"/>
<text text-anchor="middle" x="684.8" y="-57.8" font-family="Times,serif" font-size="14.00">dep</text>
</g>
<!-- 7 -->
<g id="node8" class="node">
<title>7</title>
<ellipse fill="none" stroke="black" cx="582.3" cy="-18" rx="63.09" ry="18"/>
<text text-anchor="middle" x="582.3" y="-14.3" font-family="Times,serif" font-size="14.00">importação</text>
</g>
<!-- 0&#45;&gt;7 -->
<g id="edge7" class="edge">
<title>0&#45;&gt;7</title>
<path fill="none" stroke="black" d="M1151.29,-103.33C1085.48,-101.34 911.8,-93.95 769.3,-69 722.2,-60.75 669.69,-46.23 632.33,-34.95"/>
<polygon fill="black" stroke="black" points="633.28,-31.58 622.69,-32.01 631.24,-38.28 633.28,-31.58"/>
<text text-anchor="middle" x="782.8" y="-57.8" font-family="Times,serif" font-size="14.00">dep</text>
</g>
<!-- 8 -->
<g id="node9" class="node">
<title>8</title>
<ellipse fill="none" stroke="black" cx="701.3" cy="-18" rx="38.19" ry="18"/>
<text text-anchor="middle" x="701.3" y="-14.3" font-family="Times,serif" font-size="14.00">direta</text>
</g>
<!-- 0&#45;&gt;8 -->
<g id="edge8" class="edge">
<title>0&#45;&gt;8</title>
<path fill="none" stroke="black" d="M1151.32,-102.78C1095.66,-99.9 964.26,-91.16 856.3,-69 815.43,-60.61 770.19,-45.29 739.19,-33.81"/>
<polygon fill="black" stroke="black" points="740.24,-30.46 729.65,-30.23 737.78,-37.02 740.24,-30.46"/>
<text text-anchor="middle" x="869.8" y="-57.8" font-family="Times,serif" font-size="14.00">dep</text>
</g>
<!-- 9 -->
<g id="node10" class="node">
<title>9</title>
<ellipse fill="none" stroke="black" cx="784.3" cy="-18" rx="27" ry="18"/>
<text text-anchor="middle" x="784.3" y="-14.3" font-family="Times,serif" font-size="14.00">,</text>
</g>
<!-- 0&#45;&gt;9 -->
<g id="edge9" class="edge">
<title>0&#45;&gt;9</title>
<path fill="none" stroke="black" d="M1151.55,-101.64C1091.07,-95.73 939.77,-77.66 820.3,-36 818.39,-35.33 816.45,-34.6 814.5,-33.82"/>
<polygon fill="black" stroke="black" points="815.49,-30.43 804.92,-29.65 812.7,-36.85 815.49,-30.43"/>
<text text-anchor="middle" x="949.8" y="-57.8" font-family="Times,serif" font-size="14.00">dep</text>
</g>
<!-- 10 -->
<g id="node11" class="node">
<title>10</title>
<ellipse fill="none" stroke="black" cx="876.3" cy="-18" rx="47.39" ry="18"/>
<text text-anchor="middle" x="876.3" y="-14.3" font-family="Times,serif" font-size="14.00">existem</text>
</g>
<!-- 0&#45;&gt;10 -->
<g id="edge10" class="edge">
<title>0&#45;&gt;10</title>
<path fill="none" stroke="black" d="M1153.35,-97.81C1126.2,-91.01 1081.55,-79.64 1043.3,-69 993.71,-55.21 981.59,-50.81 932.3,-36 928.94,-34.99 925.46,-33.94 921.97,-32.89"/>
<polygon fill="black" stroke="black" points="922.72,-29.46 912.14,-29.91 920.7,-36.16 922.72,-29.46"/>
<text text-anchor="middle" x="1056.8" y="-57.8" font-family="Times,serif" font-size="14.00">dep</text>
</g>
<!-- 11 -->
<g id="node12" class="node">
<title>11</title>
<ellipse fill="none" stroke="black" cx="997.3" cy="-18" rx="55.79" ry="18"/>
<text text-anchor="middle" x="997.3" y="-14.3" font-family="Times,serif" font-size="14.00">empresas</text>
</g>
<!-- 0&#45;&gt;11 -->
<g id="edge11" class="edge">
<title>0&#45;&gt;11</title>
<path fill="none" stroke="black" d="M1156.63,-93.91C1141.64,-86.94 1121.25,-77.42 1103.3,-69 1081.19,-58.63 1056.52,-47 1036.55,-37.56"/>
<polygon fill="black" stroke="black" points="1037.97,-34.36 1027.44,-33.26 1034.98,-40.69 1037.97,-34.36"/>
<text text-anchor="middle" x="1116.8" y="-57.8" font-family="Times,serif" font-size="14.00">dep</text>
</g>
<!-- 12 -->
<g id="node13" class="node">
<title>12</title>
<ellipse fill="none" stroke="black" cx="1098.3" cy="-18" rx="27" ry="18"/>
<text text-anchor="middle" x="1098.3" y="-14.3" font-family="Times,serif" font-size="14.00">,</text>
</g>
<!-- 0&#45;&gt;12 -->
<g id="edge12" class="edge">
<title>0&#45;&gt;12</title>
<path fill="none" stroke="black" d="M1164.36,-89.19C1151.86,-75.91 1133.34,-56.23 1119.08,-41.08"/>
<polygon fill="black" stroke="black" points="1121.48,-38.52 1112.07,-33.64 1116.38,-43.32 1121.48,-38.52"/>
<text text-anchor="middle" x="1156.8" y="-57.8" font-family="Times,serif" font-size="14.00">dep</text>
</g>
<!-- 13 -->
<g id="node14" class="node">
<title>13</title>
<ellipse fill="none" stroke="black" cx="1178.3" cy="-18" rx="35.19" ry="18"/>
<text text-anchor="middle" x="1178.3" y="-14.3" font-family="Times,serif" font-size="14.00">como</text>
</g>
<!-- 0&#45;&gt;13 -->
<g id="edge13" class="edge">
<title>0&#45;&gt;13</title>
<path fill="none" stroke="black" d="M1178.3,-86.8C1178.3,-75.16 1178.3,-59.55 1178.3,-46.24"/>
<polygon fill="black" stroke="black" points="1181.8,-46.18 1178.3,-36.18 1174.8,-46.18 1181.8,-46.18"/>
<text text-anchor="middle" x="1191.8" y="-57.8" font-family="Times,serif" font-size="14.00">dep</text>
</g>
<!-- 14 -->
<g id="node15" class="node">
<title>14</title>
<ellipse fill="none" stroke="black" cx="1258.3" cy="-18" rx="27" ry="18"/>
<text text-anchor="middle" x="1258.3" y="-14.3" font-family="Times,serif" font-size="14.00">a</text>
</g>
<!-- 0&#45;&gt;14 -->
<g id="edge14" class="edge">
<title>0&#45;&gt;14</title>
<path fill="none" stroke="black" d="M1192.23,-89.19C1204.74,-75.91 1223.26,-56.23 1237.51,-41.08"/>
<polygon fill="black" stroke="black" points="1240.22,-43.32 1244.52,-33.64 1235.12,-38.52 1240.22,-43.32"/>
<text text-anchor="middle" x="1236.8" y="-57.8" font-family="Times,serif" font-size="14.00">dep</text>
</g>
<!-- 15 -->
<g id="node16" class="node">
<title>15</title>
<ellipse fill="none" stroke="black" cx="1371.3" cy="-18" rx="67.69" ry="18"/>
<text text-anchor="middle" x="1371.3" y="-14.3" font-family="Times,serif" font-size="14.00">Brasoftware</text>
</g>
<!-- 0&#45;&gt;15 -->
<g id="edge15" class="edge">
<title>0&#45;&gt;15</title>
<path fill="none" stroke="black" d="M1200.44,-94.25C1231.6,-80.52 1289.03,-55.23 1328.64,-37.79"/>
<polygon fill="black" stroke="black" points="1330.06,-40.98 1337.8,-33.75 1327.24,-34.58 1330.06,-40.98"/>
<text text-anchor="middle" x="1300.8" y="-57.8" font-family="Times,serif" font-size="14.00">dep</text>
</g>
<!-- 16 -->
<g id="node17" class="node">
<title>16</title>
<ellipse fill="none" stroke="black" cx="1484.3" cy="-18" rx="27" ry="18"/>
<text text-anchor="middle" x="1484.3" y="-14.3" font-family="Times,serif" font-size="14.00">(</text>
</g>
<!-- 0&#45;&gt;16 -->
<g id="edge16" class="edge">
<title>0&#45;&gt;16</title>
<path fill="none" stroke="black" d="M1204.11,-99.26C1252.75,-89.94 1360.95,-67.38 1448.3,-36 1450.15,-35.33 1452.04,-34.61 1453.93,-33.84"/>
<polygon fill="black" stroke="black" points="1455.5,-36.97 1463.26,-29.76 1452.7,-30.55 1455.5,-36.97"/>
<text text-anchor="middle" x="1404.8" y="-57.8" font-family="Times,serif" font-size="14.00">dep</text>
</g>
<!-- 17 -->
<g id="node18" class="node">
<title>17</title>
<ellipse fill="none" stroke="black" cx="1556.3" cy="-18" rx="27" ry="18"/>
<text text-anchor="middle" x="1556.3" y="-14.3" font-family="Times,serif" font-size="14.00">tel.</text>
</g>
<!-- 0&#45;&gt;17 -->
<g id="edge17" class="edge">
<title>0&#45;&gt;17</title>
<path fill="none" stroke="black" d="M1204.95,-101.78C1250.14,-97.66 1344.45,-87.53 1422.3,-69 1467.01,-58.36 1477.67,-53.17 1520.3,-36 1522.12,-35.26 1523.99,-34.48 1525.87,-33.67"/>
<polygon fill="black" stroke="black" points="1527.48,-36.78 1535.16,-29.48 1524.6,-30.4 1527.48,-36.78"/>
<text text-anchor="middle" x="1487.8" y="-57.8" font-family="Times,serif" font-size="14.00">dep</text>
</g>
<!-- 18 -->
<g id="node19" class="node">
<title>18</title>
<ellipse fill="none" stroke="black" cx="1676.3" cy="-18" rx="75.29" ry="18"/>
<text text-anchor="middle" x="1676.3" y="-14.3" font-family="Times,serif" font-size="14.00">011/253&#45;1588</text>
</g>
<!-- 0&#45;&gt;18 -->
<g id="edge18" class="edge">
<title>0&#45;&gt;18</title>
<path fill="none" stroke="black" d="M1205.24,-102.74C1261.48,-99.75 1395.24,-90.8 1505.3,-69 1546.44,-60.85 1591.98,-47.3 1625.71,-36.37"/>
<polygon fill="black" stroke="black" points="1626.93,-39.65 1635.34,-33.21 1624.75,-33 1626.93,-39.65"/>
<text text-anchor="middle" x="1580.8" y="-57.8" font-family="Times,serif" font-size="14.00">dep</text>
</g>
<!-- 19 -->
<g id="node20" class="node">
<title>19</title>
<ellipse fill="none" stroke="black" cx="1796.3" cy="-18" rx="27" ry="18"/>
<text text-anchor="middle" x="1796.3" y="-14.3" font-family="Times,serif" font-size="14.00">)</text>
</g>
<!-- 0&#45;&gt;19 -->
<g id="edge19" class="edge">
<title>0&#45;&gt;19</title>
<path fill="none" stroke="black" d="M1205.45,-102.85C1272.44,-99.76 1450.9,-90.08 1598.3,-69 1671.04,-58.6 1690.57,-59.19 1760.3,-36 1762.22,-35.36 1764.17,-34.65 1766.12,-33.88"/>
<polygon fill="black" stroke="black" points="1767.9,-36.92 1775.71,-29.76 1765.14,-30.49 1767.9,-36.92"/>
<text text-anchor="middle" x="1710.8" y="-57.8" font-family="Times,serif" font-size="14.00">dep</text>
</g>
<!-- 20 -->
<g id="node21" class="node">
<title>20</title>
<ellipse fill="none" stroke="black" cx="1869.3" cy="-18" rx="27.9" ry="18"/>
<text text-anchor="middle" x="1869.3" y="-14.3" font-family="Times,serif" font-size="14.00">que</text>
</g>
<!-- 0&#45;&gt;20 -->
<g id="edge20" class="edge">
<title>0&#45;&gt;20</title>
<path fill="none" stroke="black" d="M1205.48,-104.59C1286.07,-105.86 1530.34,-106.13 1728.3,-69 1775.96,-60.06 1787.07,-53.49 1832.3,-36 1834.18,-35.27 1836.1,-34.5 1838.02,-33.69"/>
<polygon fill="black" stroke="black" points="1839.81,-36.73 1847.58,-29.52 1837.01,-30.32 1839.81,-36.73"/>
<text text-anchor="middle" x="1798.8" y="-57.8" font-family="Times,serif" font-size="14.00">dep</text>
</g>
<!-- 21 -->
<g id="node22" class="node">
<title>21</title>
<ellipse fill="none" stroke="black" cx="1971.3" cy="-18" rx="55.79" ry="18"/>
<text text-anchor="middle" x="1971.3" y="-14.3" font-family="Times,serif" font-size="14.00">importam</text>
</g>
<!-- 0&#45;&gt;21 -->
<g id="edge21" class="edge">
<title>0&#45;&gt;21</title>
<path fill="none" stroke="black" d="M1205.48,-103.44C1311.37,-101.11 1696.32,-91.26 1816.3,-69 1855.06,-61.81 1897.57,-47.62 1928.25,-36.19"/>
<polygon fill="black" stroke="black" points="1929.66,-39.4 1937.78,-32.59 1927.19,-32.85 1929.66,-39.4"/>
<text text-anchor="middle" x="1886.8" y="-57.8" font-family="Times,serif" font-size="14.00">dep</text>
</g>
<!-- 22 -->
<g id="node23" class="node">
<title>22</title>
<ellipse fill="none" stroke="black" cx="2106.3" cy="-18" rx="61.19" ry="18"/>
<text text-anchor="middle" x="2106.3" y="-14.3" font-family="Times,serif" font-size="14.00">programas</text>
</g>
<!-- 0&#45;&gt;22 -->
<g id="edge22" class="edge">
<title>0&#45;&gt;22</title>
<path fill="none" stroke="black" d="M1205.2,-103.4C1319.52,-100.76 1765.39,-89.34 1904.3,-69 1956.81,-61.31 2015.56,-45.98 2056.11,-34.32"/>
<polygon fill="black" stroke="black" points="2057.13,-37.66 2065.75,-31.51 2055.17,-30.94 2057.13,-37.66"/>
<text text-anchor="middle" x="1990.8" y="-57.8" font-family="Times,serif" font-size="14.00">dep</text>
</g>
<!-- 23 -->
<g id="node24" class="node">
<title>23</title>
<ellipse fill="none" stroke="black" cx="2212.3" cy="-18" rx="27" ry="18"/>
<text text-anchor="middle" x="2212.3" y="-14.3" font-family="Times,serif" font-size="14.00">sob</text>
</g>
<!-- 0&#45;&gt;23 -->
<g id="edge23" class="edge">
<title>0&#45;&gt;23</title>
<path fill="none" stroke="black" d="M1205.29,-104.35C1309.34,-105.37 1694.28,-106.24 2008.3,-69 2083.86,-60.04 2104.01,-59.76 2176.3,-36 2178.22,-35.37 2180.17,-34.66 2182.12,-33.9"/>
<polygon fill="black" stroke="black" points="2183.9,-36.94 2191.72,-29.79 2181.15,-30.51 2183.9,-36.94"/>
<text text-anchor="middle" x="2127.8" y="-57.8" font-family="Times,serif" font-size="14.00">dep</text>
</g>
<!-- 24 -->
<g id="node25" class="node">
<title>24</title>
<ellipse fill="none" stroke="black" cx="2321.3" cy="-18" rx="63.89" ry="18"/>
<text text-anchor="middle" x="2321.3" y="-14.3" font-family="Times,serif" font-size="14.00">encomenda</text>
</g>
<!-- 0&#45;&gt;24 -->
<g id="edge24" class="edge">
<title>0&#45;&gt;24</title>
<path fill="none" stroke="black" d="M1205.46,-103.9C1342.3,-103.25 1956.96,-98.72 2145.3,-69 2189.75,-61.99 2238.91,-47.42 2273.95,-35.81"/>
<polygon fill="black" stroke="black" points="2275.07,-39.13 2283.44,-32.62 2272.84,-32.49 2275.07,-39.13"/>
<text text-anchor="middle" x="2222.8" y="-57.8" font-family="Times,serif" font-size="14.00">dep</text>
</g>
<!-- 25 -->
<g id="node26" class="node">
<title>25</title>
<ellipse fill="none" stroke="black" cx="2430.3" cy="-18" rx="27" ry="18"/>
<text text-anchor="middle" x="2430.3" y="-14.3" font-family="Times,serif" font-size="14.00">.</text>
</g>
<!-- 0&#45;&gt;25 -->
<g id="edge25" class="edge">
<title>0&#45;&gt;25</title>
<path fill="none" stroke="black" d="M1205.66,-103.76C1350.75,-102.38 2031.33,-94.63 2240.3,-69 2309.78,-60.48 2327.99,-58.43 2394.3,-36 2396.21,-35.35 2398.16,-34.63 2400.11,-33.86"/>
<polygon fill="black" stroke="black" points="2401.9,-36.9 2409.69,-29.72 2399.13,-30.47 2401.9,-36.9"/>
<text text-anchor="middle" x="2347.8" y="-57.8" font-family="Times,serif" font-size="14.00">dep</text>
</g>
</g>
</svg>
