<?xml version="1.0" encoding="UTF-8" standalone="no"?>
<!DOCTYPE svg PUBLIC "-//W3C//DTD SVG 1.1//EN"
 "http://www.w3.org/Graphics/SVG/1.1/DTD/svg11.dtd">
<!-- Generated by graphviz version 2.42.4 (0)
 -->
<!-- Pages: 1 -->
<svg width="606pt" height="131pt"
 viewBox="0.00 0.00 605.70 131.00" xmlns="http://www.w3.org/2000/svg" xmlns:xlink="http://www.w3.org/1999/xlink">
<g id="graph0" class="graph" transform="scale(1 1) rotate(0) translate(4 127)">
<polygon fill="white" stroke="transparent" points="-4,4 -4,-127 601.7,-127 601.7,4 -4,4"/>
<!-- 0 -->
<g id="node1" class="node">
<title>0</title>
<ellipse fill="none" stroke="black" cx="299" cy="-105" rx="27" ry="18"/>
<text text-anchor="middle" x="299" y="-101.3" font-family="Times,serif" font-size="14.00">«</text>
</g>
<!-- 1 -->
<g id="node2" class="node">
<title>1</title>
<ellipse fill="none" stroke="black" cx="27" cy="-18" rx="27" ry="18"/>
<text text-anchor="middle" x="27" y="-14.3" font-family="Times,serif" font-size="14.00">O</text>
</g>
<!-- 0&#45;&gt;1 -->
<g id="edge1" class="edge">
<title>0&#45;&gt;1</title>
<path fill="none" stroke="black" d="M273.55,-98.67C244.6,-92.41 196.03,-81.31 155,-69 113.39,-56.52 103.13,-52.63 63,-36 61.18,-35.25 59.32,-34.45 57.45,-33.63"/>
<polygon fill="black" stroke="black" points="58.72,-30.36 48.17,-29.41 55.83,-36.73 58.72,-30.36"/>
<text text-anchor="middle" x="168.5" y="-57.8" font-family="Times,serif" font-size="14.00">dep</text>
</g>
<!-- 2 -->
<g id="node3" class="node">
<title>2</title>
<ellipse fill="none" stroke="black" cx="110" cy="-18" rx="38.19" ry="18"/>
<text text-anchor="middle" x="110" y="-14.3" font-family="Times,serif" font-size="14.00">Corvo</text>
</g>
<!-- 0&#45;&gt;2 -->
<g id="edge2" class="edge">
<title>0&#45;&gt;2</title>
<path fill="none" stroke="black" d="M276.88,-94.45C260.79,-87.47 238.51,-77.74 219,-69 194.45,-58 166.91,-45.37 145.66,-35.55"/>
<polygon fill="black" stroke="black" points="146.92,-32.28 136.37,-31.26 143.98,-38.63 146.92,-32.28"/>
<text text-anchor="middle" x="232.5" y="-57.8" font-family="Times,serif" font-size="14.00">dep</text>
</g>
<!-- 3 -->
<g id="node4" class="node">
<title>3</title>
<ellipse fill="none" stroke="black" cx="210" cy="-18" rx="43.59" ry="18"/>
<text text-anchor="middle" x="210" y="-14.3" font-family="Times,serif" font-size="14.00">Branco</text>
</g>
<!-- 0&#45;&gt;3 -->
<g id="edge3" class="edge">
<title>0&#45;&gt;3</title>
<path fill="none" stroke="black" d="M283.9,-89.58C270.26,-76.56 249.96,-57.16 234.08,-42"/>
<polygon fill="black" stroke="black" points="236.34,-39.31 226.69,-34.94 231.5,-44.38 236.34,-39.31"/>
<text text-anchor="middle" x="273.5" y="-57.8" font-family="Times,serif" font-size="14.00">dep</text>
</g>
<!-- 4 -->
<g id="node5" class="node">
<title>4</title>
<ellipse fill="none" stroke="black" cx="299" cy="-18" rx="27" ry="18"/>
<text text-anchor="middle" x="299" y="-14.3" font-family="Times,serif" font-size="14.00">»</text>
</g>
<!-- 0&#45;&gt;4 -->
<g id="edge4" class="edge">
<title>0&#45;&gt;4</title>
<path fill="none" stroke="black" d="M299,-86.8C299,-75.16 299,-59.55 299,-46.24"/>
<polygon fill="black" stroke="black" points="302.5,-46.18 299,-36.18 295.5,-46.18 302.5,-46.18"/>
<text text-anchor="middle" x="312.5" y="-57.8" font-family="Times,serif" font-size="14.00">dep</text>
</g>
<!-- 5 -->
<g id="node6" class="node">
<title>5</title>
<ellipse fill="none" stroke="black" cx="371" cy="-18" rx="27" ry="18"/>
<text text-anchor="middle" x="371" y="-14.3" font-family="Times,serif" font-size="14.00">de</text>
</g>
<!-- 0&#45;&gt;5 -->
<g id="edge5" class="edge">
<title>0&#45;&gt;5</title>
<path fill="none" stroke="black" d="M312.4,-89.12C317.91,-82.94 324.31,-75.67 330,-69 337.32,-60.41 345.21,-50.86 352.1,-42.43"/>
<polygon fill="black" stroke="black" points="355,-44.41 358.59,-34.44 349.56,-39.99 355,-44.41"/>
<text text-anchor="middle" x="356.5" y="-57.8" font-family="Times,serif" font-size="14.00">dep</text>
</g>
<!-- 6 -->
<g id="node7" class="node">
<title>6</title>
<ellipse fill="none" stroke="black" cx="447" cy="-18" rx="31.4" ry="18"/>
<text text-anchor="middle" x="447" y="-14.3" font-family="Times,serif" font-size="14.00">asas</text>
</g>
<!-- 0&#45;&gt;6 -->
<g id="edge6" class="edge">
<title>0&#45;&gt;6</title>
<path fill="none" stroke="black" d="M321.47,-94.67C336.63,-88.09 356.9,-78.76 374,-69 389.87,-59.94 406.75,-48.51 420.28,-38.86"/>
<polygon fill="black" stroke="black" points="422.58,-41.51 428.64,-32.82 418.48,-35.84 422.58,-41.51"/>
<text text-anchor="middle" x="410.5" y="-57.8" font-family="Times,serif" font-size="14.00">dep</text>
</g>
<!-- 7 -->
<g id="node8" class="node">
<title>7</title>
<ellipse fill="none" stroke="black" cx="547" cy="-18" rx="50.89" ry="18"/>
<text text-anchor="middle" x="547" y="-14.3" font-family="Times,serif" font-size="14.00">cortadas</text>
</g>
<!-- 0&#45;&gt;7 -->
<g id="edge7" class="edge">
<title>0&#45;&gt;7</title>
<path fill="none" stroke="black" d="M324.51,-98.14C350.76,-91.86 392.67,-81.15 428,-69 455.07,-59.69 484.76,-47.22 507.71,-37.06"/>
<polygon fill="black" stroke="black" points="509.4,-40.14 517.1,-32.87 506.55,-33.75 509.4,-40.14"/>
<text text-anchor="middle" x="478.5" y="-57.8" font-family="Times,serif" font-size="14.00">dep</text>
</g>
</g>
</svg>
