<?xml version="1.0" encoding="UTF-8" standalone="no"?>
<!DOCTYPE svg PUBLIC "-//W3C//DTD SVG 1.1//EN"
 "http://www.w3.org/Graphics/SVG/1.1/DTD/svg11.dtd">
<!-- Generated by graphviz version 2.42.4 (0)
 -->
<!-- Pages: 1 -->
<svg width="3451pt" height="131pt"
 viewBox="0.00 0.00 3451.00 131.00" xmlns="http://www.w3.org/2000/svg" xmlns:xlink="http://www.w3.org/1999/xlink">
<g id="graph0" class="graph" transform="scale(1 1) rotate(0) translate(4 127)">
<polygon fill="white" stroke="transparent" points="-4,4 -4,-127 3447,-127 3447,4 -4,4"/>
<!-- 0 -->
<g id="node1" class="node">
<title>0</title>
<ellipse fill="none" stroke="black" cx="1599" cy="-105" rx="27" ry="18"/>
<text text-anchor="middle" x="1599" y="-101.3" font-family="Times,serif" font-size="14.00">R.</text>
</g>
<!-- 1 -->
<g id="node2" class="node">
<title>1</title>
<ellipse fill="none" stroke="black" cx="27" cy="-18" rx="27" ry="18"/>
<text text-anchor="middle" x="27" y="-14.3" font-family="Times,serif" font-size="14.00">&#45;&#45;</text>
</g>
<!-- 0&#45;&gt;1 -->
<g id="edge1" class="edge">
<title>0&#45;&gt;1</title>
<path fill="none" stroke="black" d="M1571.76,-104.21C1400.16,-105.43 467.04,-110.03 185,-69 129.41,-60.91 115.71,-55.4 63,-36 61.15,-35.32 59.27,-34.58 57.38,-33.8"/>
<polygon fill="black" stroke="black" points="58.62,-30.52 48.05,-29.7 55.8,-36.93 58.62,-30.52"/>
<text text-anchor="middle" x="198.5" y="-57.8" font-family="Times,serif" font-size="14.00">dep</text>
</g>
<!-- 2 -->
<g id="node3" class="node">
<title>2</title>
<ellipse fill="none" stroke="black" cx="127" cy="-18" rx="54.69" ry="18"/>
<text text-anchor="middle" x="127" y="-14.3" font-family="Times,serif" font-size="14.00">Pareceria</text>
</g>
<!-- 0&#45;&gt;2 -->
<g id="edge2" class="edge">
<title>0&#45;&gt;2</title>
<path fill="none" stroke="black" d="M1572.01,-103.78C1395.16,-102.27 405.02,-92.77 273,-69 236.4,-62.41 196.56,-48.27 167.76,-36.7"/>
<polygon fill="black" stroke="black" points="169.02,-33.43 158.44,-32.89 166.37,-39.91 169.02,-33.43"/>
<text text-anchor="middle" x="286.5" y="-57.8" font-family="Times,serif" font-size="14.00">dep</text>
</g>
<!-- 3 -->
<g id="node4" class="node">
<title>3</title>
<ellipse fill="none" stroke="black" cx="227" cy="-18" rx="27" ry="18"/>
<text text-anchor="middle" x="227" y="-14.3" font-family="Times,serif" font-size="14.00">me</text>
</g>
<!-- 0&#45;&gt;3 -->
<g id="edge3" class="edge">
<title>0&#45;&gt;3</title>
<path fill="none" stroke="black" d="M1572,-103.76C1401.43,-102.2 476.39,-92.7 353,-69 318.72,-62.42 281.87,-46.68 256.93,-34.6"/>
<polygon fill="black" stroke="black" points="258.18,-31.32 247.67,-30.02 255.08,-37.59 258.18,-31.32"/>
<text text-anchor="middle" x="366.5" y="-57.8" font-family="Times,serif" font-size="14.00">dep</text>
</g>
<!-- 4 -->
<g id="node5" class="node">
<title>4</title>
<ellipse fill="none" stroke="black" cx="310" cy="-18" rx="38.19" ry="18"/>
<text text-anchor="middle" x="310" y="-14.3" font-family="Times,serif" font-size="14.00">lógico</text>
</g>
<!-- 0&#45;&gt;4 -->
<g id="edge4" class="edge">
<title>0&#45;&gt;4</title>
<path fill="none" stroke="black" d="M1571.84,-103.77C1407.18,-102.32 545.75,-93.57 431,-69 400.14,-62.39 367.15,-48.24 343.43,-36.67"/>
<polygon fill="black" stroke="black" points="344.69,-33.39 334.18,-32.07 341.57,-39.66 344.69,-33.39"/>
<text text-anchor="middle" x="444.5" y="-57.8" font-family="Times,serif" font-size="14.00">dep</text>
</g>
<!-- 5 -->
<g id="node6" class="node">
<title>5</title>
<ellipse fill="none" stroke="black" cx="393" cy="-18" rx="27" ry="18"/>
<text text-anchor="middle" x="393" y="-14.3" font-family="Times,serif" font-size="14.00">,</text>
</g>
<!-- 0&#45;&gt;5 -->
<g id="edge5" class="edge">
<title>0&#45;&gt;5</title>
<path fill="none" stroke="black" d="M1571.83,-103.73C1413.56,-102.04 613.76,-92.44 507,-69 476.52,-62.31 444.16,-47.26 421.74,-35.41"/>
<polygon fill="black" stroke="black" points="423.23,-32.24 412.77,-30.56 419.9,-38.4 423.23,-32.24"/>
<text text-anchor="middle" x="520.5" y="-57.8" font-family="Times,serif" font-size="14.00">dep</text>
</g>
<!-- 6 -->
<g id="node7" class="node">
<title>6</title>
<ellipse fill="none" stroke="black" cx="465" cy="-18" rx="27" ry="18"/>
<text text-anchor="middle" x="465" y="-14.3" font-family="Times,serif" font-size="14.00">em</text>
</g>
<!-- 0&#45;&gt;6 -->
<g id="edge6" class="edge">
<title>0&#45;&gt;6</title>
<path fill="none" stroke="black" d="M1571.83,-103.61C1420.42,-101.38 683.96,-89.52 585,-69 552.56,-62.28 517.87,-46.83 494.18,-34.87"/>
<polygon fill="black" stroke="black" points="495.54,-31.63 485.04,-30.15 492.33,-37.85 495.54,-31.63"/>
<text text-anchor="middle" x="598.5" y="-57.8" font-family="Times,serif" font-size="14.00">dep</text>
</g>
<!-- 7 -->
<g id="node8" class="node">
<title>7</title>
<ellipse fill="none" stroke="black" cx="537" cy="-18" rx="27" ry="18"/>
<text text-anchor="middle" x="537" y="-14.3" font-family="Times,serif" font-size="14.00">um</text>
</g>
<!-- 0&#45;&gt;7 -->
<g id="edge7" class="edge">
<title>0&#45;&gt;7</title>
<path fill="none" stroke="black" d="M1571.87,-104.09C1437.91,-104.36 846.29,-103.53 666,-69 630.65,-62.23 592.48,-46.25 566.91,-34.17"/>
<polygon fill="black" stroke="black" points="568.28,-30.94 557.76,-29.75 565.24,-37.25 568.28,-30.94"/>
<text text-anchor="middle" x="679.5" y="-57.8" font-family="Times,serif" font-size="14.00">dep</text>
</g>
<!-- 8 -->
<g id="node9" class="node">
<title>8</title>
<ellipse fill="none" stroke="black" cx="612" cy="-18" rx="29.8" ry="18"/>
<text text-anchor="middle" x="612" y="-14.3" font-family="Times,serif" font-size="14.00">país</text>
</g>
<!-- 0&#45;&gt;8 -->
<g id="edge8" class="edge">
<title>0&#45;&gt;8</title>
<path fill="none" stroke="black" d="M1571.92,-103.88C1445.75,-103.16 914.94,-98.41 752,-69 713.83,-62.11 672.23,-46.08 644.38,-34.01"/>
<polygon fill="black" stroke="black" points="645.69,-30.77 635.13,-29.93 642.87,-37.17 645.69,-30.77"/>
<text text-anchor="middle" x="765.5" y="-57.8" font-family="Times,serif" font-size="14.00">dep</text>
</g>
<!-- 9 -->
<g id="node10" class="node">
<title>9</title>
<ellipse fill="none" stroke="black" cx="698" cy="-18" rx="37.89" ry="18"/>
<text text-anchor="middle" x="698" y="-14.3" font-family="Times,serif" font-size="14.00">pobre</text>
</g>
<!-- 0&#45;&gt;9 -->
<g id="edge9" class="edge">
<title>0&#45;&gt;9</title>
<path fill="none" stroke="black" d="M1571.71,-103.89C1452.61,-103.23 977.79,-98.76 832,-69 797.33,-61.92 759.74,-47.23 733.22,-35.6"/>
<polygon fill="black" stroke="black" points="734.53,-32.35 723.98,-31.47 731.68,-38.74 734.53,-32.35"/>
<text text-anchor="middle" x="845.5" y="-57.8" font-family="Times,serif" font-size="14.00">dep</text>
</g>
<!-- 10 -->
<g id="node11" class="node">
<title>10</title>
<ellipse fill="none" stroke="black" cx="781" cy="-18" rx="27" ry="18"/>
<text text-anchor="middle" x="781" y="-14.3" font-family="Times,serif" font-size="14.00">,</text>
</g>
<!-- 0&#45;&gt;10 -->
<g id="edge10" class="edge">
<title>0&#45;&gt;10</title>
<path fill="none" stroke="black" d="M1571.96,-103.54C1462.05,-101.52 1048.45,-92.48 920,-69 872.71,-60.36 861.72,-53.63 817,-36 815.17,-35.28 813.3,-34.5 811.42,-33.7"/>
<polygon fill="black" stroke="black" points="812.67,-30.43 802.12,-29.54 809.81,-36.82 812.67,-30.43"/>
<text text-anchor="middle" x="933.5" y="-57.8" font-family="Times,serif" font-size="14.00">dep</text>
</g>
<!-- 11 -->
<g id="node12" class="node">
<title>11</title>
<ellipse fill="none" stroke="black" cx="853" cy="-18" rx="27" ry="18"/>
<text text-anchor="middle" x="853" y="-14.3" font-family="Times,serif" font-size="14.00">de</text>
</g>
<!-- 0&#45;&gt;11 -->
<g id="edge11" class="edge">
<title>0&#45;&gt;11</title>
<path fill="none" stroke="black" d="M1572.04,-103.78C1490.99,-102.82 1242.54,-97.58 1039,-69 971.4,-59.51 953.6,-58.05 889,-36 887.09,-35.35 885.14,-34.62 883.19,-33.85"/>
<polygon fill="black" stroke="black" points="884.18,-30.46 873.61,-29.7 881.4,-36.88 884.18,-30.46"/>
<text text-anchor="middle" x="1052.5" y="-57.8" font-family="Times,serif" font-size="14.00">dep</text>
</g>
<!-- 12 -->
<g id="node13" class="node">
<title>12</title>
<ellipse fill="none" stroke="black" cx="949" cy="-18" rx="50.89" ry="18"/>
<text text-anchor="middle" x="949" y="-14.3" font-family="Times,serif" font-size="14.00">recursos</text>
</g>
<!-- 0&#45;&gt;12 -->
<g id="edge12" class="edge">
<title>0&#45;&gt;12</title>
<path fill="none" stroke="black" d="M1571.98,-103.62C1500.5,-102.24 1300.68,-96.08 1137,-69 1087.6,-60.83 1032.37,-45.35 994.62,-33.77"/>
<polygon fill="black" stroke="black" points="995.53,-30.39 984.94,-30.77 993.46,-37.08 995.53,-30.39"/>
<text text-anchor="middle" x="1150.5" y="-57.8" font-family="Times,serif" font-size="14.00">dep</text>
</g>
<!-- 13 -->
<g id="node14" class="node">
<title>13</title>
<ellipse fill="none" stroke="black" cx="1069" cy="-18" rx="51.19" ry="18"/>
<text text-anchor="middle" x="1069" y="-14.3" font-family="Times,serif" font-size="14.00">escassos</text>
</g>
<!-- 0&#45;&gt;13 -->
<g id="edge13" class="edge">
<title>0&#45;&gt;13</title>
<path fill="none" stroke="black" d="M1571.8,-103.52C1509.46,-101.98 1351.74,-95.55 1223,-69 1184.37,-61.03 1141.82,-46.78 1111.26,-35.52"/>
<polygon fill="black" stroke="black" points="1112.37,-32.2 1101.77,-31.99 1109.92,-38.76 1112.37,-32.2"/>
<text text-anchor="middle" x="1236.5" y="-57.8" font-family="Times,serif" font-size="14.00">dep</text>
</g>
<!-- 14 -->
<g id="node15" class="node">
<title>14</title>
<ellipse fill="none" stroke="black" cx="1173" cy="-18" rx="35.19" ry="18"/>
<text text-anchor="middle" x="1173" y="-14.3" font-family="Times,serif" font-size="14.00">como</text>
</g>
<!-- 0&#45;&gt;14 -->
<g id="edge14" class="edge">
<title>0&#45;&gt;14</title>
<path fill="none" stroke="black" d="M1571.78,-103.16C1518.72,-101.01 1398.09,-93.61 1300,-69 1267.39,-60.82 1231.92,-46.35 1206.77,-35.07"/>
<polygon fill="black" stroke="black" points="1208.22,-31.89 1197.67,-30.93 1205.32,-38.26 1208.22,-31.89"/>
<text text-anchor="middle" x="1313.5" y="-57.8" font-family="Times,serif" font-size="14.00">dep</text>
</g>
<!-- 15 -->
<g id="node16" class="node">
<title>15</title>
<ellipse fill="none" stroke="black" cx="1253" cy="-18" rx="27" ry="18"/>
<text text-anchor="middle" x="1253" y="-14.3" font-family="Times,serif" font-size="14.00">o</text>
</g>
<!-- 0&#45;&gt;15 -->
<g id="edge15" class="edge">
<title>0&#45;&gt;15</title>
<path fill="none" stroke="black" d="M1572.42,-101.68C1530.08,-97.58 1444.98,-87.67 1375,-69 1342.59,-60.35 1307.31,-45.22 1283.06,-33.86"/>
<polygon fill="black" stroke="black" points="1284.55,-30.7 1274.02,-29.56 1281.55,-37.02 1284.55,-30.7"/>
<text text-anchor="middle" x="1388.5" y="-57.8" font-family="Times,serif" font-size="14.00">dep</text>
</g>
<!-- 16 -->
<g id="node17" class="node">
<title>16</title>
<ellipse fill="none" stroke="black" cx="1335" cy="-18" rx="37.09" ry="18"/>
<text text-anchor="middle" x="1335" y="-14.3" font-family="Times,serif" font-size="14.00">nosso</text>
</g>
<!-- 0&#45;&gt;16 -->
<g id="edge16" class="edge">
<title>0&#45;&gt;16</title>
<path fill="none" stroke="black" d="M1572.79,-100.03C1541.04,-94.81 1486.19,-84.45 1441,-69 1415.62,-60.32 1388.28,-47.33 1367.72,-36.76"/>
<polygon fill="black" stroke="black" points="1369.26,-33.62 1358.78,-32.1 1366.03,-39.83 1369.26,-33.62"/>
<text text-anchor="middle" x="1454.5" y="-57.8" font-family="Times,serif" font-size="14.00">dep</text>
</g>
<!-- 17 -->
<g id="node18" class="node">
<title>17</title>
<ellipse fill="none" stroke="black" cx="1417" cy="-18" rx="27" ry="18"/>
<text text-anchor="middle" x="1417" y="-14.3" font-family="Times,serif" font-size="14.00">,</text>
</g>
<!-- 0&#45;&gt;17 -->
<g id="edge17" class="edge">
<title>0&#45;&gt;17</title>
<path fill="none" stroke="black" d="M1574.59,-97.04C1553.98,-90.79 1523.94,-80.8 1499,-69 1479.72,-59.88 1459.24,-47.39 1443.57,-37.18"/>
<polygon fill="black" stroke="black" points="1445.21,-34.07 1434.94,-31.47 1441.35,-39.91 1445.21,-34.07"/>
<text text-anchor="middle" x="1512.5" y="-57.8" font-family="Times,serif" font-size="14.00">dep</text>
</g>
<!-- 18 -->
<g id="node19" class="node">
<title>18</title>
<ellipse fill="none" stroke="black" cx="1490" cy="-18" rx="27.9" ry="18"/>
<text text-anchor="middle" x="1490" y="-14.3" font-family="Times,serif" font-size="14.00">que</text>
</g>
<!-- 0&#45;&gt;18 -->
<g id="edge18" class="edge">
<title>0&#45;&gt;18</title>
<path fill="none" stroke="black" d="M1580.24,-91.84C1570.45,-85.32 1558.38,-77 1548,-69 1536.08,-59.82 1523.37,-48.98 1512.89,-39.75"/>
<polygon fill="black" stroke="black" points="1515.16,-37.09 1505.36,-33.06 1510.51,-42.32 1515.16,-37.09"/>
<text text-anchor="middle" x="1561.5" y="-57.8" font-family="Times,serif" font-size="14.00">dep</text>
</g>
<!-- 19 -->
<g id="node20" class="node">
<title>19</title>
<ellipse fill="none" stroke="black" cx="1563" cy="-18" rx="27" ry="18"/>
<text text-anchor="middle" x="1563" y="-14.3" font-family="Times,serif" font-size="14.00">,</text>
</g>
<!-- 0&#45;&gt;19 -->
<g id="edge19" class="edge">
<title>0&#45;&gt;19</title>
<path fill="none" stroke="black" d="M1591.89,-87.21C1586.78,-75.14 1579.79,-58.64 1573.97,-44.89"/>
<polygon fill="black" stroke="black" points="1577.1,-43.31 1569.98,-35.47 1570.65,-46.04 1577.1,-43.31"/>
<text text-anchor="middle" x="1597.5" y="-57.8" font-family="Times,serif" font-size="14.00">dep</text>
</g>
<!-- 20 -->
<g id="node21" class="node">
<title>20</title>
<ellipse fill="none" stroke="black" cx="1635" cy="-18" rx="27" ry="18"/>
<text text-anchor="middle" x="1635" y="-14.3" font-family="Times,serif" font-size="14.00">em</text>
</g>
<!-- 0&#45;&gt;20 -->
<g id="edge20" class="edge">
<title>0&#45;&gt;20</title>
<path fill="none" stroke="black" d="M1606.11,-87.21C1611.22,-75.14 1618.21,-58.64 1624.03,-44.89"/>
<polygon fill="black" stroke="black" points="1627.35,-46.04 1628.02,-35.47 1620.9,-43.31 1627.35,-46.04"/>
<text text-anchor="middle" x="1633.5" y="-57.8" font-family="Times,serif" font-size="14.00">dep</text>
</g>
<!-- 21 -->
<g id="node22" class="node">
<title>21</title>
<ellipse fill="none" stroke="black" cx="1707" cy="-18" rx="27" ry="18"/>
<text text-anchor="middle" x="1707" y="-14.3" font-family="Times,serif" font-size="14.00">o</text>
</g>
<!-- 0&#45;&gt;21 -->
<g id="edge21" class="edge">
<title>0&#45;&gt;21</title>
<path fill="none" stroke="black" d="M1618.21,-91.97C1628.22,-85.48 1640.52,-77.15 1651,-69 1662.53,-60.04 1674.7,-49.34 1684.73,-40.15"/>
<polygon fill="black" stroke="black" points="1687.32,-42.52 1692.27,-33.16 1682.56,-37.39 1687.32,-42.52"/>
<text text-anchor="middle" x="1682.5" y="-57.8" font-family="Times,serif" font-size="14.00">dep</text>
</g>
<!-- 22 -->
<g id="node23" class="node">
<title>22</title>
<ellipse fill="none" stroke="black" cx="1797" cy="-18" rx="45.49" ry="18"/>
<text text-anchor="middle" x="1797" y="-14.3" font-family="Times,serif" font-size="14.00">mínimo</text>
</g>
<!-- 0&#45;&gt;22 -->
<g id="edge22" class="edge">
<title>0&#45;&gt;22</title>
<path fill="none" stroke="black" d="M1623.04,-96.74C1643.73,-90.23 1674.24,-80.04 1700,-69 1721.45,-59.81 1744.72,-47.89 1763.09,-37.99"/>
<polygon fill="black" stroke="black" points="1764.84,-41.02 1771.95,-33.17 1761.49,-34.87 1764.84,-41.02"/>
<text text-anchor="middle" x="1743.5" y="-57.8" font-family="Times,serif" font-size="14.00">dep</text>
</g>
<!-- 23 -->
<g id="node24" class="node">
<title>23</title>
<ellipse fill="none" stroke="black" cx="1887" cy="-18" rx="27" ry="18"/>
<text text-anchor="middle" x="1887" y="-14.3" font-family="Times,serif" font-size="14.00">,</text>
</g>
<!-- 0&#45;&gt;23 -->
<g id="edge23" class="edge">
<title>0&#45;&gt;23</title>
<path fill="none" stroke="black" d="M1624.81,-99.57C1657.01,-93.78 1713.6,-82.74 1761,-69 1801.92,-57.14 1811.7,-52.45 1851,-36 1852.82,-35.24 1854.68,-34.44 1856.54,-33.61"/>
<polygon fill="black" stroke="black" points="1858.17,-36.72 1865.82,-29.39 1855.27,-30.35 1858.17,-36.72"/>
<text text-anchor="middle" x="1820.5" y="-57.8" font-family="Times,serif" font-size="14.00">dep</text>
</g>
<!-- 24 -->
<g id="node25" class="node">
<title>24</title>
<ellipse fill="none" stroke="black" cx="1959" cy="-18" rx="27" ry="18"/>
<text text-anchor="middle" x="1959" y="-14.3" font-family="Times,serif" font-size="14.00">as</text>
</g>
<!-- 0&#45;&gt;24 -->
<g id="edge24" class="edge">
<title>0&#45;&gt;24</title>
<path fill="none" stroke="black" d="M1625.92,-102.04C1670.59,-98.35 1762.58,-88.89 1838,-69 1870.07,-60.54 1904.88,-45.49 1928.9,-34.1"/>
<polygon fill="black" stroke="black" points="1930.69,-37.12 1938.18,-29.63 1927.65,-30.82 1930.69,-37.12"/>
<text text-anchor="middle" x="1896.5" y="-57.8" font-family="Times,serif" font-size="14.00">dep</text>
</g>
<!-- 25 -->
<g id="node26" class="node">
<title>25</title>
<ellipse fill="none" stroke="black" cx="2051" cy="-18" rx="47.39" ry="18"/>
<text text-anchor="middle" x="2051" y="-14.3" font-family="Times,serif" font-size="14.00">famílias</text>
</g>
<!-- 0&#45;&gt;25 -->
<g id="edge25" class="edge">
<title>0&#45;&gt;25</title>
<path fill="none" stroke="black" d="M1625.92,-103.17C1680.79,-101.02 1809.27,-93.56 1914,-69 1947.92,-61.05 1984.96,-47.2 2011.96,-36.09"/>
<polygon fill="black" stroke="black" points="2013.55,-39.22 2021.43,-32.14 2010.85,-32.76 2013.55,-39.22"/>
<text text-anchor="middle" x="1977.5" y="-57.8" font-family="Times,serif" font-size="14.00">dep</text>
</g>
<!-- 26 -->
<g id="node27" class="node">
<title>26</title>
<ellipse fill="none" stroke="black" cx="2143" cy="-18" rx="27" ry="18"/>
<text text-anchor="middle" x="2143" y="-14.3" font-family="Times,serif" font-size="14.00">e</text>
</g>
<!-- 0&#45;&gt;26 -->
<g id="edge26" class="edge">
<title>0&#45;&gt;26</title>
<path fill="none" stroke="black" d="M1626.14,-103.45C1690.66,-101.75 1858.02,-94.97 1995,-69 2045.99,-59.33 2058.5,-54.47 2107,-36 2108.84,-35.3 2110.72,-34.54 2112.6,-33.75"/>
<polygon fill="black" stroke="black" points="2114.19,-36.88 2121.92,-29.62 2111.36,-30.48 2114.19,-36.88"/>
<text text-anchor="middle" x="2071.5" y="-57.8" font-family="Times,serif" font-size="14.00">dep</text>
</g>
<!-- 27 -->
<g id="node28" class="node">
<title>27</title>
<ellipse fill="none" stroke="black" cx="2215" cy="-18" rx="27" ry="18"/>
<text text-anchor="middle" x="2215" y="-14.3" font-family="Times,serif" font-size="14.00">os</text>
</g>
<!-- 0&#45;&gt;27 -->
<g id="edge27" class="edge">
<title>0&#45;&gt;27</title>
<path fill="none" stroke="black" d="M1626.09,-103.06C1715.33,-99.82 1999.46,-88.21 2089,-69 2123.13,-61.68 2160,-46.06 2184.99,-34.21"/>
<polygon fill="black" stroke="black" points="2186.79,-37.23 2194.27,-29.72 2183.75,-30.92 2186.79,-37.23"/>
<text text-anchor="middle" x="2149.5" y="-57.8" font-family="Times,serif" font-size="14.00">dep</text>
</g>
<!-- 28 -->
<g id="node29" class="node">
<title>28</title>
<ellipse fill="none" stroke="black" cx="2322" cy="-18" rx="61.99" ry="18"/>
<text text-anchor="middle" x="2322" y="-14.3" font-family="Times,serif" font-size="14.00">estudantes</text>
</g>
<!-- 0&#45;&gt;28 -->
<g id="edge28" class="edge">
<title>0&#45;&gt;28</title>
<path fill="none" stroke="black" d="M1626.17,-103.23C1724.47,-100.29 2061.3,-88.98 2167,-69 2205.23,-61.77 2247.15,-47.87 2277.74,-36.55"/>
<polygon fill="black" stroke="black" points="2279.12,-39.77 2287.26,-32.98 2276.66,-33.22 2279.12,-39.77"/>
<text text-anchor="middle" x="2237.5" y="-57.8" font-family="Times,serif" font-size="14.00">dep</text>
</g>
<!-- 29 -->
<g id="node30" class="node">
<title>29</title>
<ellipse fill="none" stroke="black" cx="2472" cy="-18" rx="70.39" ry="18"/>
<text text-anchor="middle" x="2472" y="-14.3" font-family="Times,serif" font-size="14.00">suportassem</text>
</g>
<!-- 0&#45;&gt;29 -->
<g id="edge29" class="edge">
<title>0&#45;&gt;29</title>
<path fill="none" stroke="black" d="M1626.03,-104.23C1715.91,-104.63 2012.75,-103.11 2255,-69 2310.76,-61.15 2373.32,-46.05 2416.88,-34.48"/>
<polygon fill="black" stroke="black" points="2417.95,-37.82 2426.71,-31.85 2416.14,-31.06 2417.95,-37.82"/>
<text text-anchor="middle" x="2347.5" y="-57.8" font-family="Times,serif" font-size="14.00">dep</text>
</g>
<!-- 30 -->
<g id="node31" class="node">
<title>30</title>
<ellipse fill="none" stroke="black" cx="2591" cy="-18" rx="30.59" ry="18"/>
<text text-anchor="middle" x="2591" y="-14.3" font-family="Times,serif" font-size="14.00">uma</text>
</g>
<!-- 0&#45;&gt;30 -->
<g id="edge30" class="edge">
<title>0&#45;&gt;30</title>
<path fill="none" stroke="black" d="M1626.24,-104.03C1725.52,-103.88 2077.22,-100.97 2365,-69 2448.44,-59.73 2470.52,-59.91 2551,-36 2553.41,-35.29 2555.86,-34.47 2558.31,-33.59"/>
<polygon fill="black" stroke="black" points="2559.58,-36.85 2567.64,-29.97 2557.05,-30.33 2559.58,-36.85"/>
<text text-anchor="middle" x="2495.5" y="-57.8" font-family="Times,serif" font-size="14.00">dep</text>
</g>
<!-- 31 -->
<g id="node32" class="node">
<title>31</title>
<ellipse fill="none" stroke="black" cx="2711" cy="-18" rx="71.49" ry="18"/>
<text text-anchor="middle" x="2711" y="-14.3" font-family="Times,serif" font-size="14.00">percentagem</text>
</g>
<!-- 0&#45;&gt;31 -->
<g id="edge31" class="edge">
<title>0&#45;&gt;31</title>
<path fill="none" stroke="black" d="M1625.96,-103.73C1757.76,-102.28 2335.19,-94.57 2513,-69 2563.14,-61.79 2619,-47.05 2658.56,-35.43"/>
<polygon fill="black" stroke="black" points="2659.67,-38.76 2668.26,-32.55 2657.68,-32.05 2659.67,-38.76"/>
<text text-anchor="middle" x="2598.5" y="-57.8" font-family="Times,serif" font-size="14.00">dep</text>
</g>
<!-- 32 -->
<g id="node33" class="node">
<title>32</title>
<ellipse fill="none" stroke="black" cx="2884" cy="-18" rx="83.39" ry="18"/>
<text text-anchor="middle" x="2884" y="-14.3" font-family="Times,serif" font-size="14.00">correspondente</text>
</g>
<!-- 0&#45;&gt;32 -->
<g id="edge32" class="edge">
<title>0&#45;&gt;32</title>
<path fill="none" stroke="black" d="M1626.11,-103.62C1766.94,-101.55 2416.02,-90.97 2616,-69 2686.2,-61.29 2765.61,-45.58 2819.65,-33.82"/>
<polygon fill="black" stroke="black" points="2820.42,-37.23 2829.44,-31.67 2818.92,-30.39 2820.42,-37.23"/>
<text text-anchor="middle" x="2726.5" y="-57.8" font-family="Times,serif" font-size="14.00">dep</text>
</g>
<!-- 33 -->
<g id="node34" class="node">
<title>33</title>
<ellipse fill="none" stroke="black" cx="3012" cy="-18" rx="27" ry="18"/>
<text text-anchor="middle" x="3012" y="-14.3" font-family="Times,serif" font-size="14.00">a</text>
</g>
<!-- 0&#45;&gt;33 -->
<g id="edge33" class="edge">
<title>0&#45;&gt;33</title>
<path fill="none" stroke="black" d="M1626.11,-104.28C1752.76,-105.34 2298.67,-107.36 2744,-69 2847.76,-60.06 2876.24,-65.91 2976,-36 2977.94,-35.42 2979.9,-34.75 2981.86,-34.02"/>
<polygon fill="black" stroke="black" points="2983.61,-37.08 2991.48,-29.98 2980.9,-30.62 2983.61,-37.08"/>
<text text-anchor="middle" x="2915.5" y="-57.8" font-family="Times,serif" font-size="14.00">dep</text>
</g>
<!-- 34 -->
<g id="node35" class="node">
<title>34</title>
<ellipse fill="none" stroke="black" cx="3084" cy="-18" rx="27" ry="18"/>
<text text-anchor="middle" x="3084" y="-14.3" font-family="Times,serif" font-size="14.00">a</text>
</g>
<!-- 0&#45;&gt;34 -->
<g id="edge34" class="edge">
<title>0&#45;&gt;34</title>
<path fill="none" stroke="black" d="M1626.03,-104.22C1791.39,-105.44 2667.96,-109.83 2933,-69 2985.55,-60.9 2998.24,-54.75 3048,-36 3049.84,-35.31 3051.72,-34.55 3053.61,-33.77"/>
<polygon fill="black" stroke="black" points="3055.2,-36.89 3062.93,-29.65 3052.36,-30.49 3055.2,-36.89"/>
<text text-anchor="middle" x="3013.5" y="-57.8" font-family="Times,serif" font-size="14.00">dep</text>
</g>
<!-- 35 -->
<g id="node36" class="node">
<title>35</title>
<ellipse fill="none" stroke="black" cx="3156" cy="-18" rx="27" ry="18"/>
<text text-anchor="middle" x="3156" y="-14.3" font-family="Times,serif" font-size="14.00">de</text>
</g>
<!-- 0&#45;&gt;35 -->
<g id="edge35" class="edge">
<title>0&#45;&gt;35</title>
<path fill="none" stroke="black" d="M1626.04,-103.88C1811.15,-102.95 2888.21,-96.43 3031,-69 3065.04,-62.46 3101.6,-46.72 3126.32,-34.63"/>
<polygon fill="black" stroke="black" points="3128.13,-37.64 3135.51,-30.04 3125,-31.38 3128.13,-37.64"/>
<text text-anchor="middle" x="3094.5" y="-57.8" font-family="Times,serif" font-size="14.00">dep</text>
</g>
<!-- 36 -->
<g id="node37" class="node">
<title>36</title>
<ellipse fill="none" stroke="black" cx="3228" cy="-18" rx="27" ry="18"/>
<text text-anchor="middle" x="3228" y="-14.3" font-family="Times,serif" font-size="14.00">os</text>
</g>
<!-- 0&#45;&gt;36 -->
<g id="edge36" class="edge">
<title>0&#45;&gt;36</title>
<path fill="none" stroke="black" d="M1626.03,-103.97C1817.15,-103.69 2961.26,-100.69 3112,-69 3143.31,-62.42 3176.61,-47.1 3199.46,-35.14"/>
<polygon fill="black" stroke="black" points="3201.11,-38.22 3208.28,-30.42 3197.81,-32.05 3201.11,-38.22"/>
<text text-anchor="middle" x="3172.5" y="-57.8" font-family="Times,serif" font-size="14.00">dep</text>
</g>
<!-- 37 -->
<g id="node38" class="node">
<title>37</title>
<ellipse fill="none" stroke="black" cx="3322" cy="-18" rx="48.99" ry="18"/>
<text text-anchor="middle" x="3322" y="-14.3" font-family="Times,serif" font-size="14.00">ingleses</text>
</g>
<!-- 0&#45;&gt;37 -->
<g id="edge37" class="edge">
<title>0&#45;&gt;37</title>
<path fill="none" stroke="black" d="M1626.15,-103.96C1823.18,-103.58 3030.67,-99.98 3190,-69 3223.06,-62.57 3258.67,-48.63 3284.56,-37.1"/>
<polygon fill="black" stroke="black" points="3286.33,-40.14 3293.98,-32.82 3283.43,-33.77 3286.33,-40.14"/>
<text text-anchor="middle" x="3256.5" y="-57.8" font-family="Times,serif" font-size="14.00">dep</text>
</g>
<!-- 38 -->
<g id="node39" class="node">
<title>38</title>
<ellipse fill="none" stroke="black" cx="3416" cy="-18" rx="27" ry="18"/>
<text text-anchor="middle" x="3416" y="-14.3" font-family="Times,serif" font-size="14.00">.</text>
</g>
<!-- 0&#45;&gt;38 -->
<g id="edge38" class="edge">
<title>0&#45;&gt;38</title>
<path fill="none" stroke="black" d="M1626.25,-103.89C1829.45,-103.03 3104.98,-96.51 3274,-69 3322.7,-61.07 3334.02,-53.91 3380,-36 3381.84,-35.28 3383.71,-34.52 3385.59,-33.72"/>
<polygon fill="black" stroke="black" points="3387.19,-36.84 3394.89,-29.57 3384.34,-30.45 3387.19,-36.84"/>
<text text-anchor="middle" x="3347.5" y="-57.8" font-family="Times,serif" font-size="14.00">dep</text>
</g>
</g>
</svg>
