<?xml version="1.0" encoding="UTF-8" standalone="no"?>
<!DOCTYPE svg PUBLIC "-//W3C//DTD SVG 1.1//EN"
 "http://www.w3.org/Graphics/SVG/1.1/DTD/svg11.dtd">
<!-- Generated by graphviz version 2.42.4 (0)
 -->
<!-- Pages: 1 -->
<svg width="1617pt" height="131pt"
 viewBox="0.00 0.00 1617.40 131.00" xmlns="http://www.w3.org/2000/svg" xmlns:xlink="http://www.w3.org/1999/xlink">
<g id="graph0" class="graph" transform="scale(1 1) rotate(0) translate(4 127)">
<polygon fill="white" stroke="transparent" points="-4,4 -4,-127 1613.4,-127 1613.4,4 -4,4"/>
<!-- 0 -->
<g id="node1" class="node">
<title>0</title>
<ellipse fill="none" stroke="black" cx="827.4" cy="-105" rx="27" ry="18"/>
<text text-anchor="middle" x="827.4" y="-101.3" font-family="Times,serif" font-size="14.00">O</text>
</g>
<!-- 1 -->
<g id="node2" class="node">
<title>1</title>
<ellipse fill="none" stroke="black" cx="49.4" cy="-18" rx="49.29" ry="18"/>
<text text-anchor="middle" x="49.4" y="-14.3" font-family="Times,serif" font-size="14.00">dinheiro</text>
</g>
<!-- 0&#45;&gt;1 -->
<g id="edge1" class="edge">
<title>0&#45;&gt;1</title>
<path fill="none" stroke="black" d="M800.32,-103.52C694.87,-101.49 311.53,-92.62 192.4,-69 156.51,-61.89 117.4,-47.74 89.17,-36.31"/>
<polygon fill="black" stroke="black" points="90.24,-32.96 79.66,-32.39 87.57,-39.43 90.24,-32.96"/>
<text text-anchor="middle" x="205.9" y="-57.8" font-family="Times,serif" font-size="14.00">dep</text>
</g>
<!-- 2 -->
<g id="node3" class="node">
<title>2</title>
<ellipse fill="none" stroke="black" cx="143.4" cy="-18" rx="27" ry="18"/>
<text text-anchor="middle" x="143.4" y="-14.3" font-family="Times,serif" font-size="14.00">de</text>
</g>
<!-- 0&#45;&gt;2 -->
<g id="edge2" class="edge">
<title>0&#45;&gt;2</title>
<path fill="none" stroke="black" d="M800.26,-103.26C703.67,-100.45 376.83,-89.63 274.4,-69 238.63,-61.8 199.85,-45.89 173.84,-33.94"/>
<polygon fill="black" stroke="black" points="175.07,-30.66 164.53,-29.58 172.1,-36.99 175.07,-30.66"/>
<text text-anchor="middle" x="287.9" y="-57.8" font-family="Times,serif" font-size="14.00">dep</text>
</g>
<!-- 3 -->
<g id="node4" class="node">
<title>3</title>
<ellipse fill="none" stroke="black" cx="215.4" cy="-18" rx="27" ry="18"/>
<text text-anchor="middle" x="215.4" y="-14.3" font-family="Times,serif" font-size="14.00">as</text>
</g>
<!-- 0&#45;&gt;3 -->
<g id="edge3" class="edge">
<title>0&#45;&gt;3</title>
<path fill="none" stroke="black" d="M800.25,-103.7C729.36,-102.53 533.01,-96.82 372.4,-69 317.47,-59.49 303.69,-55.31 251.4,-36 249.55,-35.32 247.67,-34.58 245.78,-33.8"/>
<polygon fill="black" stroke="black" points="247.02,-30.52 236.45,-29.7 244.2,-36.93 247.02,-30.52"/>
<text text-anchor="middle" x="385.9" y="-57.8" font-family="Times,serif" font-size="14.00">dep</text>
</g>
<!-- 4 -->
<g id="node5" class="node">
<title>4</title>
<ellipse fill="none" stroke="black" cx="304.4" cy="-18" rx="43.59" ry="18"/>
<text text-anchor="middle" x="304.4" y="-14.3" font-family="Times,serif" font-size="14.00">vendas</text>
</g>
<!-- 0&#45;&gt;4 -->
<g id="edge4" class="edge">
<title>0&#45;&gt;4</title>
<path fill="none" stroke="black" d="M800.32,-103.43C739,-101.71 585.1,-94.93 459.4,-69 419.42,-60.75 375.23,-45.9 344.3,-34.52"/>
<polygon fill="black" stroke="black" points="345.34,-31.18 334.75,-30.96 342.89,-37.74 345.34,-31.18"/>
<text text-anchor="middle" x="472.9" y="-57.8" font-family="Times,serif" font-size="14.00">dep</text>
</g>
<!-- 5 -->
<g id="node6" class="node">
<title>5</title>
<ellipse fill="none" stroke="black" cx="399.4" cy="-18" rx="33.29" ry="18"/>
<text text-anchor="middle" x="399.4" y="-14.3" font-family="Times,serif" font-size="14.00">pode</text>
</g>
<!-- 0&#45;&gt;5 -->
<g id="edge5" class="edge">
<title>0&#45;&gt;5</title>
<path fill="none" stroke="black" d="M800.28,-102.47C749.13,-99.18 635.12,-89.98 541.4,-69 503.75,-60.57 462.31,-45.24 433.97,-33.77"/>
<polygon fill="black" stroke="black" points="435.1,-30.45 424.52,-29.89 432.44,-36.93 435.1,-30.45"/>
<text text-anchor="middle" x="554.9" y="-57.8" font-family="Times,serif" font-size="14.00">dep</text>
</g>
<!-- 6 -->
<g id="node7" class="node">
<title>6</title>
<ellipse fill="none" stroke="black" cx="477.4" cy="-18" rx="27" ry="18"/>
<text text-anchor="middle" x="477.4" y="-14.3" font-family="Times,serif" font-size="14.00">ser</text>
</g>
<!-- 0&#45;&gt;6 -->
<g id="edge6" class="edge">
<title>0&#45;&gt;6</title>
<path fill="none" stroke="black" d="M801.12,-100.66C746.38,-93.2 616.61,-72.87 513.4,-36 511.54,-35.34 509.65,-34.61 507.76,-33.84"/>
<polygon fill="black" stroke="black" points="508.99,-30.56 498.42,-29.77 506.19,-36.98 508.99,-30.56"/>
<text text-anchor="middle" x="637.9" y="-57.8" font-family="Times,serif" font-size="14.00">dep</text>
</g>
<!-- 7 -->
<g id="node8" class="node">
<title>7</title>
<ellipse fill="none" stroke="black" cx="573.4" cy="-18" rx="50.89" ry="18"/>
<text text-anchor="middle" x="573.4" y="-14.3" font-family="Times,serif" font-size="14.00">utilizado</text>
</g>
<!-- 0&#45;&gt;7 -->
<g id="edge7" class="edge">
<title>0&#45;&gt;7</title>
<path fill="none" stroke="black" d="M803.57,-96.3C781.87,-89.26 748.95,-78.53 720.4,-69 685.93,-57.5 647.02,-44.25 617.89,-34.28"/>
<polygon fill="black" stroke="black" points="619,-30.97 608.4,-31.04 616.73,-37.59 619,-30.97"/>
<text text-anchor="middle" x="733.9" y="-57.8" font-family="Times,serif" font-size="14.00">dep</text>
</g>
<!-- 8 -->
<g id="node9" class="node">
<title>8</title>
<ellipse fill="none" stroke="black" cx="690.4" cy="-18" rx="48.99" ry="18"/>
<text text-anchor="middle" x="690.4" y="-14.3" font-family="Times,serif" font-size="14.00">também</text>
</g>
<!-- 0&#45;&gt;8 -->
<g id="edge8" class="edge">
<title>0&#45;&gt;8</title>
<path fill="none" stroke="black" d="M808.35,-92.18C786.28,-78.49 749.57,-55.71 722.95,-39.2"/>
<polygon fill="black" stroke="black" points="724.69,-36.16 714.35,-33.86 721,-42.11 724.69,-36.16"/>
<text text-anchor="middle" x="780.9" y="-57.8" font-family="Times,serif" font-size="14.00">dep</text>
</g>
<!-- 9 -->
<g id="node10" class="node">
<title>9</title>
<ellipse fill="none" stroke="black" cx="789.4" cy="-18" rx="31.7" ry="18"/>
<text text-anchor="middle" x="789.4" y="-14.3" font-family="Times,serif" font-size="14.00">para</text>
</g>
<!-- 0&#45;&gt;9 -->
<g id="edge9" class="edge">
<title>0&#45;&gt;9</title>
<path fill="none" stroke="black" d="M820.07,-87.61C814.69,-75.58 807.27,-58.98 801.08,-45.13"/>
<polygon fill="black" stroke="black" points="804.11,-43.33 796.83,-35.63 797.72,-46.19 804.11,-43.33"/>
<text text-anchor="middle" x="824.9" y="-57.8" font-family="Times,serif" font-size="14.00">dep</text>
</g>
<!-- 10 -->
<g id="node11" class="node">
<title>10</title>
<ellipse fill="none" stroke="black" cx="866.4" cy="-18" rx="27" ry="18"/>
<text text-anchor="middle" x="866.4" y="-14.3" font-family="Times,serif" font-size="14.00">o</text>
</g>
<!-- 0&#45;&gt;10 -->
<g id="edge10" class="edge">
<title>0&#45;&gt;10</title>
<path fill="none" stroke="black" d="M834.92,-87.61C840.53,-75.38 848.3,-58.44 854.72,-44.46"/>
<polygon fill="black" stroke="black" points="857.91,-45.89 858.9,-35.34 851.55,-42.97 857.91,-45.89"/>
<text text-anchor="middle" x="862.9" y="-57.8" font-family="Times,serif" font-size="14.00">dep</text>
</g>
<!-- 11 -->
<g id="node12" class="node">
<title>11</title>
<ellipse fill="none" stroke="black" cx="973.4" cy="-18" rx="62.29" ry="18"/>
<text text-anchor="middle" x="973.4" y="-14.3" font-family="Times,serif" font-size="14.00">pagamento</text>
</g>
<!-- 0&#45;&gt;11 -->
<g id="edge11" class="edge">
<title>0&#45;&gt;11</title>
<path fill="none" stroke="black" d="M847.09,-92.54C870.33,-79 909.44,-56.23 937.99,-39.61"/>
<polygon fill="black" stroke="black" points="939.98,-42.51 946.86,-34.45 936.46,-36.46 939.98,-42.51"/>
<text text-anchor="middle" x="922.9" y="-57.8" font-family="Times,serif" font-size="14.00">dep</text>
</g>
<!-- 12 -->
<g id="node13" class="node">
<title>12</title>
<ellipse fill="none" stroke="black" cx="1080.4" cy="-18" rx="27" ry="18"/>
<text text-anchor="middle" x="1080.4" y="-14.3" font-family="Times,serif" font-size="14.00">de</text>
</g>
<!-- 0&#45;&gt;12 -->
<g id="edge12" class="edge">
<title>0&#45;&gt;12</title>
<path fill="none" stroke="black" d="M852.19,-97.46C892.91,-86.45 976.23,-62.77 1044.4,-36 1046.23,-35.28 1048.1,-34.51 1049.98,-33.71"/>
<polygon fill="black" stroke="black" points="1051.58,-36.83 1059.28,-29.55 1048.72,-30.44 1051.58,-36.83"/>
<text text-anchor="middle" x="1005.9" y="-57.8" font-family="Times,serif" font-size="14.00">dep</text>
</g>
<!-- 13 -->
<g id="node14" class="node">
<title>13</title>
<ellipse fill="none" stroke="black" cx="1152.4" cy="-18" rx="27" ry="18"/>
<text text-anchor="middle" x="1152.4" y="-14.3" font-family="Times,serif" font-size="14.00">a</text>
</g>
<!-- 0&#45;&gt;13 -->
<g id="edge13" class="edge">
<title>0&#45;&gt;13</title>
<path fill="none" stroke="black" d="M853.69,-100.7C891.59,-95.64 963.58,-84.84 1023.4,-69 1065.79,-57.77 1075.85,-52.72 1116.4,-36 1118.22,-35.25 1120.08,-34.45 1121.95,-33.64"/>
<polygon fill="black" stroke="black" points="1123.57,-36.74 1131.23,-29.42 1120.68,-30.37 1123.57,-36.74"/>
<text text-anchor="middle" x="1084.9" y="-57.8" font-family="Times,serif" font-size="14.00">dep</text>
</g>
<!-- 14 -->
<g id="node15" class="node">
<title>14</title>
<ellipse fill="none" stroke="black" cx="1236.4" cy="-18" rx="38.99" ry="18"/>
<text text-anchor="middle" x="1236.4" y="-14.3" font-family="Times,serif" font-size="14.00">dívida</text>
</g>
<!-- 0&#45;&gt;14 -->
<g id="edge14" class="edge">
<title>0&#45;&gt;14</title>
<path fill="none" stroke="black" d="M854.32,-102.63C903.99,-99.66 1013.15,-91.02 1102.4,-69 1136.43,-60.6 1173.67,-46.26 1200.24,-35.09"/>
<polygon fill="black" stroke="black" points="1201.69,-38.27 1209.52,-31.13 1198.95,-31.84 1201.69,-38.27"/>
<text text-anchor="middle" x="1164.9" y="-57.8" font-family="Times,serif" font-size="14.00">dep</text>
</g>
<!-- 15 -->
<g id="node16" class="node">
<title>15</title>
<ellipse fill="none" stroke="black" cx="1320.4" cy="-18" rx="27" ry="18"/>
<text text-anchor="middle" x="1320.4" y="-14.3" font-family="Times,serif" font-size="14.00">de</text>
</g>
<!-- 0&#45;&gt;15 -->
<g id="edge15" class="edge">
<title>0&#45;&gt;15</title>
<path fill="none" stroke="black" d="M854.41,-103.31C914.16,-101.35 1061.75,-94.16 1182.4,-69 1229.04,-59.27 1240.1,-53.54 1284.4,-36 1286.23,-35.27 1288.1,-34.5 1289.97,-33.7"/>
<polygon fill="black" stroke="black" points="1291.58,-36.81 1299.27,-29.53 1288.72,-30.42 1291.58,-36.81"/>
<text text-anchor="middle" x="1251.9" y="-57.8" font-family="Times,serif" font-size="14.00">dep</text>
</g>
<!-- 16 -->
<g id="node17" class="node">
<title>16</title>
<ellipse fill="none" stroke="black" cx="1392.4" cy="-18" rx="27" ry="18"/>
<text text-anchor="middle" x="1392.4" y="-14.3" font-family="Times,serif" font-size="14.00">o</text>
</g>
<!-- 0&#45;&gt;16 -->
<g id="edge16" class="edge">
<title>0&#45;&gt;16</title>
<path fill="none" stroke="black" d="M854.44,-104.5C924.15,-105.22 1115.24,-103.6 1269.4,-69 1302.55,-61.56 1338.32,-46.1 1362.68,-34.34"/>
<polygon fill="black" stroke="black" points="1364.33,-37.43 1371.75,-29.87 1361.23,-31.15 1364.33,-37.43"/>
<text text-anchor="middle" x="1328.9" y="-57.8" font-family="Times,serif" font-size="14.00">dep</text>
</g>
<!-- 17 -->
<g id="node18" class="node">
<title>17</title>
<ellipse fill="none" stroke="black" cx="1487.4" cy="-18" rx="50.09" ry="18"/>
<text text-anchor="middle" x="1487.4" y="-14.3" font-family="Times,serif" font-size="14.00">Banespa</text>
</g>
<!-- 0&#45;&gt;17 -->
<g id="edge17" class="edge">
<title>0&#45;&gt;17</title>
<path fill="none" stroke="black" d="M854.45,-103.15C947.07,-100.09 1250.89,-88.76 1346.4,-69 1381.66,-61.7 1420.09,-47.64 1447.91,-36.29"/>
<polygon fill="black" stroke="black" points="1449.38,-39.46 1457.28,-32.4 1446.7,-33 1449.38,-39.46"/>
<text text-anchor="middle" x="1411.9" y="-57.8" font-family="Times,serif" font-size="14.00">dep</text>
</g>
<!-- 18 -->
<g id="node19" class="node">
<title>18</title>
<ellipse fill="none" stroke="black" cx="1582.4" cy="-18" rx="27" ry="18"/>
<text text-anchor="middle" x="1582.4" y="-14.3" font-family="Times,serif" font-size="14.00">.</text>
</g>
<!-- 0&#45;&gt;18 -->
<g id="edge18" class="edge">
<title>0&#45;&gt;18</title>
<path fill="none" stroke="black" d="M854.63,-104.51C940.04,-105.65 1210,-105.87 1429.4,-69 1482.68,-60.05 1495.79,-54.93 1546.4,-36 1548.24,-35.31 1550.12,-34.56 1552.01,-33.78"/>
<polygon fill="black" stroke="black" points="1553.59,-36.9 1561.33,-29.66 1550.77,-30.5 1553.59,-36.9"/>
<text text-anchor="middle" x="1508.9" y="-57.8" font-family="Times,serif" font-size="14.00">dep</text>
</g>
</g>
</svg>
