<?xml version="1.0" encoding="UTF-8" standalone="no"?>
<!DOCTYPE svg PUBLIC "-//W3C//DTD SVG 1.1//EN"
 "http://www.w3.org/Graphics/SVG/1.1/DTD/svg11.dtd">
<!-- Generated by graphviz version 2.42.4 (0)
 -->
<!-- Pages: 1 -->
<svg width="2987pt" height="131pt"
 viewBox="0.00 0.00 2987.24 131.00" xmlns="http://www.w3.org/2000/svg" xmlns:xlink="http://www.w3.org/1999/xlink">
<g id="graph0" class="graph" transform="scale(1 1) rotate(0) translate(4 127)">
<polygon fill="white" stroke="transparent" points="-4,4 -4,-127 2983.24,-127 2983.24,4 -4,4"/>
<!-- 0 -->
<g id="node1" class="node">
<title>0</title>
<ellipse fill="none" stroke="black" cx="1565.24" cy="-105" rx="32.49" ry="18"/>
<text text-anchor="middle" x="1565.24" y="-101.3" font-family="Times,serif" font-size="14.00">Uma</text>
</g>
<!-- 1 -->
<g id="node2" class="node">
<title>1</title>
<ellipse fill="none" stroke="black" cx="81.24" cy="-18" rx="81.49" ry="18"/>
<text text-anchor="middle" x="81.24" y="-14.3" font-family="Times,serif" font-size="14.00">autocombustão</text>
</g>
<!-- 0&#45;&gt;1 -->
<g id="edge1" class="edge">
<title>0&#45;&gt;1</title>
<path fill="none" stroke="black" d="M1532.62,-103.97C1359.62,-103.69 548.17,-100.67 299.24,-69 243.85,-61.95 181.91,-47.05 138.24,-35.33"/>
<polygon fill="black" stroke="black" points="138.95,-31.9 128.39,-32.66 137.12,-38.66 138.95,-31.9"/>
<text text-anchor="middle" x="312.74" y="-57.8" font-family="Times,serif" font-size="14.00">dep</text>
</g>
<!-- 2 -->
<g id="node3" class="node">
<title>2</title>
<ellipse fill="none" stroke="black" cx="230.24" cy="-18" rx="49.29" ry="18"/>
<text text-anchor="middle" x="230.24" y="-14.3" font-family="Times,serif" font-size="14.00">ocorrida</text>
</g>
<!-- 0&#45;&gt;2 -->
<g id="edge2" class="edge">
<title>0&#45;&gt;2</title>
<path fill="none" stroke="black" d="M1532.58,-104.2C1367.22,-105.05 621.32,-106.68 393.24,-69 351.03,-62.03 304.52,-46.99 272.02,-35.21"/>
<polygon fill="black" stroke="black" points="273,-31.84 262.41,-31.68 270.59,-38.41 273,-31.84"/>
<text text-anchor="middle" x="406.74" y="-57.8" font-family="Times,serif" font-size="14.00">dep</text>
</g>
<!-- 3 -->
<g id="node4" class="node">
<title>3</title>
<ellipse fill="none" stroke="black" cx="338.24" cy="-18" rx="40.09" ry="18"/>
<text text-anchor="middle" x="338.24" y="-14.3" font-family="Times,serif" font-size="14.00">ontem</text>
</g>
<!-- 0&#45;&gt;3 -->
<g id="edge3" class="edge">
<title>0&#45;&gt;3</title>
<path fill="none" stroke="black" d="M1532.63,-104.3C1374.72,-105.54 688.71,-108.52 479.24,-69 442.6,-62.09 402.71,-47.2 374.74,-35.46"/>
<polygon fill="black" stroke="black" points="375.94,-32.17 365.37,-31.46 373.19,-38.6 375.94,-32.17"/>
<text text-anchor="middle" x="492.74" y="-57.8" font-family="Times,serif" font-size="14.00">dep</text>
</g>
<!-- 4 -->
<g id="node5" class="node">
<title>4</title>
<ellipse fill="none" stroke="black" cx="423.24" cy="-18" rx="27" ry="18"/>
<text text-anchor="middle" x="423.24" y="-14.3" font-family="Times,serif" font-size="14.00">de</text>
</g>
<!-- 0&#45;&gt;4 -->
<g id="edge4" class="edge">
<title>0&#45;&gt;4</title>
<path fill="none" stroke="black" d="M1532.59,-103.92C1383.34,-103.37 765.1,-99.29 574.24,-69 521.73,-60.67 509,-54.75 459.24,-36 457.4,-35.31 455.52,-34.55 453.64,-33.77"/>
<polygon fill="black" stroke="black" points="454.88,-30.49 444.32,-29.65 452.05,-36.89 454.88,-30.49"/>
<text text-anchor="middle" x="587.74" y="-57.8" font-family="Times,serif" font-size="14.00">dep</text>
</g>
<!-- 5 -->
<g id="node6" class="node">
<title>5</title>
<ellipse fill="none" stroke="black" cx="510.24" cy="-18" rx="42.49" ry="18"/>
<text text-anchor="middle" x="510.24" y="-14.3" font-family="Times,serif" font-size="14.00">manhã</text>
</g>
<!-- 0&#45;&gt;5 -->
<g id="edge5" class="edge">
<title>0&#45;&gt;5</title>
<path fill="none" stroke="black" d="M1532.53,-103.99C1391.03,-103.77 831.04,-100.83 658.24,-69 619.78,-61.91 577.69,-46.95 548.26,-35.23"/>
<polygon fill="black" stroke="black" points="549.38,-31.9 538.79,-31.39 546.75,-38.39 549.38,-31.9"/>
<text text-anchor="middle" x="671.74" y="-57.8" font-family="Times,serif" font-size="14.00">dep</text>
</g>
<!-- 6 -->
<g id="node7" class="node">
<title>6</title>
<ellipse fill="none" stroke="black" cx="597.24" cy="-18" rx="27" ry="18"/>
<text text-anchor="middle" x="597.24" y="-14.3" font-family="Times,serif" font-size="14.00">em</text>
</g>
<!-- 0&#45;&gt;6 -->
<g id="edge6" class="edge">
<title>0&#45;&gt;6</title>
<path fill="none" stroke="black" d="M1532.47,-103.47C1401.5,-101.19 915.43,-91.4 763.24,-69 704.27,-60.32 689.34,-56.15 633.24,-36 631.39,-35.33 629.5,-34.61 627.61,-33.84"/>
<polygon fill="black" stroke="black" points="628.84,-30.55 618.28,-29.76 626.04,-36.97 628.84,-30.55"/>
<text text-anchor="middle" x="776.74" y="-57.8" font-family="Times,serif" font-size="14.00">dep</text>
</g>
<!-- 7 -->
<g id="node8" class="node">
<title>7</title>
<ellipse fill="none" stroke="black" cx="697.24" cy="-18" rx="55.49" ry="18"/>
<text text-anchor="middle" x="697.24" y="-14.3" font-family="Times,serif" font-size="14.00">depósitos</text>
</g>
<!-- 0&#45;&gt;7 -->
<g id="edge7" class="edge">
<title>0&#45;&gt;7</title>
<path fill="none" stroke="black" d="M1532.63,-103.58C1410.76,-101.82 982.25,-93.98 848.24,-69 810.56,-61.98 769.35,-47.87 739.51,-36.43"/>
<polygon fill="black" stroke="black" points="740.44,-33.03 729.85,-32.66 737.9,-39.55 740.44,-33.03"/>
<text text-anchor="middle" x="861.74" y="-57.8" font-family="Times,serif" font-size="14.00">dep</text>
</g>
<!-- 8 -->
<g id="node9" class="node">
<title>8</title>
<ellipse fill="none" stroke="black" cx="797.24" cy="-18" rx="27" ry="18"/>
<text text-anchor="middle" x="797.24" y="-14.3" font-family="Times,serif" font-size="14.00">de</text>
</g>
<!-- 0&#45;&gt;8 -->
<g id="edge8" class="edge">
<title>0&#45;&gt;8</title>
<path fill="none" stroke="black" d="M1532.65,-103.34C1420.23,-100.9 1049.14,-91.3 932.24,-69 895.07,-61.91 854.65,-45.72 827.82,-33.67"/>
<polygon fill="black" stroke="black" points="829.13,-30.42 818.58,-29.44 826.22,-36.78 829.13,-30.42"/>
<text text-anchor="middle" x="945.74" y="-57.8" font-family="Times,serif" font-size="14.00">dep</text>
</g>
<!-- 9 -->
<g id="node10" class="node">
<title>9</title>
<ellipse fill="none" stroke="black" cx="869.24" cy="-18" rx="27" ry="18"/>
<text text-anchor="middle" x="869.24" y="-14.3" font-family="Times,serif" font-size="14.00">a</text>
</g>
<!-- 0&#45;&gt;9 -->
<g id="edge9" class="edge">
<title>0&#45;&gt;9</title>
<path fill="none" stroke="black" d="M1532.62,-103.61C1450.6,-102.25 1229.33,-96.13 1047.24,-69 983.16,-59.45 966.44,-57.29 905.24,-36 903.33,-35.34 901.39,-34.6 899.45,-33.82"/>
<polygon fill="black" stroke="black" points="900.43,-30.43 889.87,-29.66 897.64,-36.85 900.43,-30.43"/>
<text text-anchor="middle" x="1060.74" y="-57.8" font-family="Times,serif" font-size="14.00">dep</text>
</g>
<!-- 10 -->
<g id="node11" class="node">
<title>10</title>
<ellipse fill="none" stroke="black" cx="965.24" cy="-18" rx="50.89" ry="18"/>
<text text-anchor="middle" x="965.24" y="-14.3" font-family="Times,serif" font-size="14.00">empresa</text>
</g>
<!-- 0&#45;&gt;10 -->
<g id="edge10" class="edge">
<title>0&#45;&gt;10</title>
<path fill="none" stroke="black" d="M1532.78,-103.47C1461.41,-101.82 1285.68,-95.22 1141.24,-69 1095.68,-60.73 1044.93,-45.66 1009.68,-34.22"/>
<polygon fill="black" stroke="black" points="1010.76,-30.89 1000.16,-31.1 1008.57,-37.54 1010.76,-30.89"/>
<text text-anchor="middle" x="1154.74" y="-57.8" font-family="Times,serif" font-size="14.00">dep</text>
</g>
<!-- 11 -->
<g id="node12" class="node">
<title>11</title>
<ellipse fill="none" stroke="black" cx="1061.24" cy="-18" rx="27" ry="18"/>
<text text-anchor="middle" x="1061.24" y="-14.3" font-family="Times,serif" font-size="14.00">de</text>
</g>
<!-- 0&#45;&gt;11 -->
<g id="edge11" class="edge">
<title>0&#45;&gt;11</title>
<path fill="none" stroke="black" d="M1532.97,-102.82C1455.9,-99.26 1255.72,-85.57 1097.24,-36 1095.31,-35.4 1093.35,-34.71 1091.4,-33.96"/>
<polygon fill="black" stroke="black" points="1092.36,-30.57 1081.79,-29.89 1089.63,-37.02 1092.36,-30.57"/>
<text text-anchor="middle" x="1236.74" y="-57.8" font-family="Times,serif" font-size="14.00">dep</text>
</g>
<!-- 12 -->
<g id="node13" class="node">
<title>12</title>
<ellipse fill="none" stroke="black" cx="1174.24" cy="-18" rx="67.69" ry="18"/>
<text text-anchor="middle" x="1174.24" y="-14.3" font-family="Times,serif" font-size="14.00">tratamentos</text>
</g>
<!-- 0&#45;&gt;12 -->
<g id="edge12" class="edge">
<title>0&#45;&gt;12</title>
<path fill="none" stroke="black" d="M1535.01,-98.19C1500.26,-91.44 1441.54,-79.85 1391.24,-69 1337.43,-57.39 1276.33,-43.22 1232.71,-32.94"/>
<polygon fill="black" stroke="black" points="1233.39,-29.5 1222.85,-30.61 1231.78,-36.31 1233.39,-29.5"/>
<text text-anchor="middle" x="1404.74" y="-57.8" font-family="Times,serif" font-size="14.00">dep</text>
</g>
<!-- 13 -->
<g id="node14" class="node">
<title>13</title>
<ellipse fill="none" stroke="black" cx="1325.24" cy="-18" rx="64.99" ry="18"/>
<text text-anchor="middle" x="1325.24" y="-14.3" font-family="Times,serif" font-size="14.00">pretolíferos</text>
</g>
<!-- 0&#45;&gt;13 -->
<g id="edge13" class="edge">
<title>0&#45;&gt;13</title>
<path fill="none" stroke="black" d="M1537.92,-94.77C1517.36,-87.78 1488.49,-77.9 1463.24,-69 1432.85,-58.28 1398.81,-45.95 1372.14,-36.22"/>
<polygon fill="black" stroke="black" points="1373.26,-32.9 1362.67,-32.75 1370.86,-39.47 1373.26,-32.9"/>
<text text-anchor="middle" x="1476.74" y="-57.8" font-family="Times,serif" font-size="14.00">dep</text>
</g>
<!-- 14 -->
<g id="node15" class="node">
<title>14</title>
<ellipse fill="none" stroke="black" cx="1446.24" cy="-18" rx="38.19" ry="18"/>
<text text-anchor="middle" x="1446.24" y="-14.3" font-family="Times,serif" font-size="14.00">Nesta</text>
</g>
<!-- 0&#45;&gt;14 -->
<g id="edge14" class="edge">
<title>0&#45;&gt;14</title>
<path fill="none" stroke="black" d="M1545.28,-90.52C1535.82,-84.08 1524.4,-76.21 1514.24,-69 1500.85,-59.48 1486.14,-48.71 1473.84,-39.61"/>
<polygon fill="black" stroke="black" points="1475.88,-36.76 1465.76,-33.61 1471.7,-42.38 1475.88,-36.76"/>
<text text-anchor="middle" x="1527.74" y="-57.8" font-family="Times,serif" font-size="14.00">dep</text>
</g>
<!-- 15 -->
<g id="node16" class="node">
<title>15</title>
<ellipse fill="none" stroke="black" cx="1529.24" cy="-18" rx="27" ry="18"/>
<text text-anchor="middle" x="1529.24" y="-14.3" font-family="Times,serif" font-size="14.00">,</text>
</g>
<!-- 0&#45;&gt;15 -->
<g id="edge15" class="edge">
<title>0&#45;&gt;15</title>
<path fill="none" stroke="black" d="M1558.13,-87.21C1553.02,-75.14 1546.03,-58.64 1540.21,-44.89"/>
<polygon fill="black" stroke="black" points="1543.34,-43.31 1536.22,-35.47 1536.9,-46.04 1543.34,-43.31"/>
<text text-anchor="middle" x="1563.74" y="-57.8" font-family="Times,serif" font-size="14.00">dep</text>
</g>
<!-- 16 -->
<g id="node17" class="node">
<title>16</title>
<ellipse fill="none" stroke="black" cx="1601.24" cy="-18" rx="27" ry="18"/>
<text text-anchor="middle" x="1601.24" y="-14.3" font-family="Times,serif" font-size="14.00">em</text>
</g>
<!-- 0&#45;&gt;16 -->
<g id="edge16" class="edge">
<title>0&#45;&gt;16</title>
<path fill="none" stroke="black" d="M1572.36,-87.21C1577.47,-75.14 1584.45,-58.64 1590.28,-44.89"/>
<polygon fill="black" stroke="black" points="1593.59,-46.04 1594.27,-35.47 1587.14,-43.31 1593.59,-46.04"/>
<text text-anchor="middle" x="1599.74" y="-57.8" font-family="Times,serif" font-size="14.00">dep</text>
</g>
<!-- 17 -->
<g id="node18" class="node">
<title>17</title>
<ellipse fill="none" stroke="black" cx="1682.24" cy="-18" rx="36.29" ry="18"/>
<text text-anchor="middle" x="1682.24" y="-14.3" font-family="Times,serif" font-size="14.00">Sines</text>
</g>
<!-- 0&#45;&gt;17 -->
<g id="edge17" class="edge">
<title>0&#45;&gt;17</title>
<path fill="none" stroke="black" d="M1585.7,-90.66C1595.36,-84.25 1607,-76.38 1617.24,-69 1630.07,-59.76 1644,-49.13 1655.66,-40.05"/>
<polygon fill="black" stroke="black" points="1657.99,-42.68 1663.71,-33.76 1653.67,-37.17 1657.99,-42.68"/>
<text text-anchor="middle" x="1650.74" y="-57.8" font-family="Times,serif" font-size="14.00">dep</text>
</g>
<!-- 18 -->
<g id="node19" class="node">
<title>18</title>
<ellipse fill="none" stroke="black" cx="1763.24" cy="-18" rx="27" ry="18"/>
<text text-anchor="middle" x="1763.24" y="-14.3" font-family="Times,serif" font-size="14.00">,</text>
</g>
<!-- 0&#45;&gt;18 -->
<g id="edge18" class="edge">
<title>0&#45;&gt;18</title>
<path fill="none" stroke="black" d="M1593.23,-95.8C1614.2,-89.34 1643.43,-79.67 1668.24,-69 1691.24,-59.11 1716.26,-45.84 1734.84,-35.45"/>
<polygon fill="black" stroke="black" points="1736.68,-38.43 1743.67,-30.46 1733.24,-32.33 1736.68,-38.43"/>
<text text-anchor="middle" x="1711.74" y="-57.8" font-family="Times,serif" font-size="14.00">dep</text>
</g>
<!-- 19 -->
<g id="node20" class="node">
<title>19</title>
<ellipse fill="none" stroke="black" cx="1835.24" cy="-18" rx="27.1" ry="18"/>
<text text-anchor="middle" x="1835.24" y="-14.3" font-family="Times,serif" font-size="14.00">não</text>
</g>
<!-- 0&#45;&gt;19 -->
<g id="edge19" class="edge">
<title>0&#45;&gt;19</title>
<path fill="none" stroke="black" d="M1596.34,-99.55C1629.75,-94.27 1684.14,-84.22 1729.24,-69 1761.83,-58 1768.14,-50.68 1799.24,-36 1800.83,-35.25 1802.46,-34.48 1804.11,-33.7"/>
<polygon fill="black" stroke="black" points="1805.99,-36.68 1813.54,-29.25 1803,-30.35 1805.99,-36.68"/>
<text text-anchor="middle" x="1777.74" y="-57.8" font-family="Times,serif" font-size="14.00">dep</text>
</g>
<!-- 20 -->
<g id="node21" class="node">
<title>20</title>
<ellipse fill="none" stroke="black" cx="1924.24" cy="-18" rx="44.39" ry="18"/>
<text text-anchor="middle" x="1924.24" y="-14.3" font-family="Times,serif" font-size="14.00">chegou</text>
</g>
<!-- 0&#45;&gt;20 -->
<g id="edge20" class="edge">
<title>0&#45;&gt;20</title>
<path fill="none" stroke="black" d="M1597.32,-101.35C1642.19,-97.15 1725.97,-87.46 1795.24,-69 1826.94,-60.56 1861.52,-46.89 1886.9,-35.98"/>
<polygon fill="black" stroke="black" points="1888.38,-39.16 1896.15,-31.95 1885.58,-32.74 1888.38,-39.16"/>
<text text-anchor="middle" x="1852.74" y="-57.8" font-family="Times,serif" font-size="14.00">dep</text>
</g>
<!-- 21 -->
<g id="node22" class="node">
<title>21</title>
<ellipse fill="none" stroke="black" cx="2013.24" cy="-18" rx="27" ry="18"/>
<text text-anchor="middle" x="2013.24" y="-14.3" font-family="Times,serif" font-size="14.00">a</text>
</g>
<!-- 0&#45;&gt;21 -->
<g id="edge21" class="edge">
<title>0&#45;&gt;21</title>
<path fill="none" stroke="black" d="M1597.61,-102.26C1653.66,-98.8 1772.17,-89.57 1870.24,-69 1918.95,-58.79 1930.85,-54 1977.24,-36 1979.08,-35.29 1980.95,-34.52 1982.83,-33.73"/>
<polygon fill="black" stroke="black" points="1984.43,-36.85 1992.14,-29.58 1981.58,-30.45 1984.43,-36.85"/>
<text text-anchor="middle" x="1941.74" y="-57.8" font-family="Times,serif" font-size="14.00">dep</text>
</g>
<!-- 22 -->
<g id="node23" class="node">
<title>22</title>
<ellipse fill="none" stroke="black" cx="2110.24" cy="-18" rx="51.99" ry="18"/>
<text text-anchor="middle" x="2110.24" y="-14.3" font-family="Times,serif" font-size="14.00">provocar</text>
</g>
<!-- 0&#45;&gt;22 -->
<g id="edge22" class="edge">
<title>0&#45;&gt;22</title>
<path fill="none" stroke="black" d="M1597.79,-103.64C1665.68,-102.34 1827.11,-96.36 1959.24,-69 1996.9,-61.2 2038.27,-47.09 2068.17,-35.85"/>
<polygon fill="black" stroke="black" points="2069.75,-38.99 2077.85,-32.15 2067.26,-32.45 2069.75,-38.99"/>
<text text-anchor="middle" x="2027.74" y="-57.8" font-family="Times,serif" font-size="14.00">dep</text>
</g>
<!-- 23 -->
<g id="node24" class="node">
<title>23</title>
<ellipse fill="none" stroke="black" cx="2241.24" cy="-18" rx="61.19" ry="18"/>
<text text-anchor="middle" x="2241.24" y="-14.3" font-family="Times,serif" font-size="14.00">ferimentos</text>
</g>
<!-- 0&#45;&gt;23 -->
<g id="edge23" class="edge">
<title>0&#45;&gt;23</title>
<path fill="none" stroke="black" d="M1597.78,-103.61C1675.6,-102.24 1878.45,-96.14 2045.24,-69 2095.57,-60.81 2151.86,-45.83 2191.16,-34.39"/>
<polygon fill="black" stroke="black" points="2192.16,-37.74 2200.77,-31.57 2190.19,-31.03 2192.16,-37.74"/>
<text text-anchor="middle" x="2129.74" y="-57.8" font-family="Times,serif" font-size="14.00">dep</text>
</g>
<!-- 24 -->
<g id="node25" class="node">
<title>24</title>
<ellipse fill="none" stroke="black" cx="2347.24" cy="-18" rx="27" ry="18"/>
<text text-anchor="middle" x="2347.24" y="-14.3" font-family="Times,serif" font-size="14.00">em</text>
</g>
<!-- 0&#45;&gt;24 -->
<g id="edge24" class="edge">
<title>0&#45;&gt;24</title>
<path fill="none" stroke="black" d="M1597.89,-103.62C1686.57,-102.24 1939.21,-96.05 2147.24,-69 2220.97,-59.41 2240.66,-59.38 2311.24,-36 2313.16,-35.36 2315.11,-34.65 2317.06,-33.89"/>
<polygon fill="black" stroke="black" points="2318.85,-36.93 2326.66,-29.77 2316.09,-30.5 2318.85,-36.93"/>
<text text-anchor="middle" x="2260.74" y="-57.8" font-family="Times,serif" font-size="14.00">dep</text>
</g>
<!-- 25 -->
<g id="node26" class="node">
<title>25</title>
<ellipse fill="none" stroke="black" cx="2419.24" cy="-18" rx="27" ry="18"/>
<text text-anchor="middle" x="2419.24" y="-14.3" font-family="Times,serif" font-size="14.00">os</text>
</g>
<!-- 0&#45;&gt;25 -->
<g id="edge25" class="edge">
<title>0&#45;&gt;25</title>
<path fill="none" stroke="black" d="M1597.66,-103.51C1718.81,-101.49 2144.8,-92.84 2278.24,-69 2326.4,-60.4 2337.69,-53.82 2383.24,-36 2385.08,-35.28 2386.95,-34.51 2388.83,-33.71"/>
<polygon fill="black" stroke="black" points="2390.43,-36.83 2398.13,-29.56 2387.58,-30.44 2390.43,-36.83"/>
<text text-anchor="middle" x="2350.74" y="-57.8" font-family="Times,serif" font-size="14.00">dep</text>
</g>
<!-- 26 -->
<g id="node27" class="node">
<title>26</title>
<ellipse fill="none" stroke="black" cx="2519.24" cy="-18" rx="54.69" ry="18"/>
<text text-anchor="middle" x="2519.24" y="-14.3" font-family="Times,serif" font-size="14.00">operários</text>
</g>
<!-- 0&#45;&gt;26 -->
<g id="edge26" class="edge">
<title>0&#45;&gt;26</title>
<path fill="none" stroke="black" d="M1598.11,-103.77C1729.44,-102.69 2216.76,-96.83 2368.24,-69 2406.07,-62.05 2447.42,-47.87 2477.27,-36.38"/>
<polygon fill="black" stroke="black" points="2478.9,-39.5 2486.94,-32.6 2476.35,-32.98 2478.9,-39.5"/>
<text text-anchor="middle" x="2437.74" y="-57.8" font-family="Times,serif" font-size="14.00">dep</text>
</g>
<!-- 27 -->
<g id="node28" class="node">
<title>27</title>
<ellipse fill="none" stroke="black" cx="2622.24" cy="-18" rx="30.59" ry="18"/>
<text text-anchor="middle" x="2622.24" y="-14.3" font-family="Times,serif" font-size="14.00">nem</text>
</g>
<!-- 0&#45;&gt;27 -->
<g id="edge27" class="edge">
<title>0&#45;&gt;27</title>
<path fill="none" stroke="black" d="M1597.76,-103.65C1737.16,-102 2284.85,-94.02 2455.24,-69 2513.37,-60.46 2527.7,-55.13 2583.24,-36 2585.34,-35.28 2587.49,-34.49 2589.64,-33.66"/>
<polygon fill="black" stroke="black" points="2591.03,-36.87 2598.97,-29.86 2588.39,-30.39 2591.03,-36.87"/>
<text text-anchor="middle" x="2542.74" y="-57.8" font-family="Times,serif" font-size="14.00">dep</text>
</g>
<!-- 28 -->
<g id="node29" class="node">
<title>28</title>
<ellipse fill="none" stroke="black" cx="2724.24" cy="-18" rx="53.09" ry="18"/>
<text text-anchor="middle" x="2724.24" y="-14.3" font-family="Times,serif" font-size="14.00">prejuizos</text>
</g>
<!-- 0&#45;&gt;28 -->
<g id="edge28" class="edge">
<title>0&#45;&gt;28</title>
<path fill="none" stroke="black" d="M1598.04,-103.99C1747.95,-103.78 2368.87,-100.97 2560.24,-69 2602.15,-62 2648.31,-47.26 2680.95,-35.59"/>
<polygon fill="black" stroke="black" points="2682.42,-38.78 2690.63,-32.08 2680.03,-32.2 2682.42,-38.78"/>
<text text-anchor="middle" x="2633.74" y="-57.8" font-family="Times,serif" font-size="14.00">dep</text>
</g>
<!-- 29 -->
<g id="node30" class="node">
<title>29</title>
<ellipse fill="none" stroke="black" cx="2851.24" cy="-18" rx="55.79" ry="18"/>
<text text-anchor="middle" x="2851.24" y="-14.3" font-family="Times,serif" font-size="14.00">avultados</text>
</g>
<!-- 0&#45;&gt;29 -->
<g id="edge29" class="edge">
<title>0&#45;&gt;29</title>
<path fill="none" stroke="black" d="M1597.79,-103.86C1755.36,-103.05 2440.05,-97.9 2651.24,-69 2704.04,-61.78 2763.07,-46.04 2803.23,-34.14"/>
<polygon fill="black" stroke="black" points="2804.44,-37.43 2813.02,-31.21 2802.43,-30.73 2804.44,-37.43"/>
<text text-anchor="middle" x="2742.74" y="-57.8" font-family="Times,serif" font-size="14.00">dep</text>
</g>
<!-- 30 -->
<g id="node31" class="node">
<title>30</title>
<ellipse fill="none" stroke="black" cx="2952.24" cy="-18" rx="27" ry="18"/>
<text text-anchor="middle" x="2952.24" y="-14.3" font-family="Times,serif" font-size="14.00">.</text>
</g>
<!-- 0&#45;&gt;30 -->
<g id="edge30" class="edge">
<title>0&#45;&gt;30</title>
<path fill="none" stroke="black" d="M1597.94,-103.83C1765.15,-102.87 2525.94,-96.98 2760.24,-69 2830.61,-60.6 2849.08,-58.62 2916.24,-36 2918.16,-35.35 2920.11,-34.64 2922.05,-33.87"/>
<polygon fill="black" stroke="black" points="2923.85,-36.91 2931.64,-29.73 2921.07,-30.48 2923.85,-36.91"/>
<text text-anchor="middle" x="2869.74" y="-57.8" font-family="Times,serif" font-size="14.00">dep</text>
</g>
</g>
</svg>
