<?xml version="1.0" encoding="UTF-8" standalone="no"?>
<!DOCTYPE svg PUBLIC "-//W3C//DTD SVG 1.1//EN"
 "http://www.w3.org/Graphics/SVG/1.1/DTD/svg11.dtd">
<!-- Generated by graphviz version 2.42.4 (0)
 -->
<!-- Pages: 1 -->
<svg width="2178pt" height="131pt"
 viewBox="0.00 0.00 2177.55 131.00" xmlns="http://www.w3.org/2000/svg" xmlns:xlink="http://www.w3.org/1999/xlink">
<g id="graph0" class="graph" transform="scale(1 1) rotate(0) translate(4 127)">
<polygon fill="white" stroke="transparent" points="-4,4 -4,-127 2173.55,-127 2173.55,4 -4,4"/>
<!-- 0 -->
<g id="node1" class="node">
<title>0</title>
<ellipse fill="none" stroke="black" cx="1058.55" cy="-105" rx="27" ry="18"/>
<text text-anchor="middle" x="1058.55" y="-101.3" font-family="Times,serif" font-size="14.00">Ou</text>
</g>
<!-- 1 -->
<g id="node2" class="node">
<title>1</title>
<ellipse fill="none" stroke="black" cx="43.55" cy="-18" rx="43.59" ry="18"/>
<text text-anchor="middle" x="43.55" y="-14.3" font-family="Times,serif" font-size="14.00">melhor</text>
</g>
<!-- 0&#45;&gt;1 -->
<g id="edge1" class="edge">
<title>0&#45;&gt;1</title>
<path fill="none" stroke="black" d="M1031.41,-104.02C902.57,-103.93 351.83,-101.63 183.55,-69 147.62,-62.04 108.55,-47.45 80.83,-35.82"/>
<polygon fill="black" stroke="black" points="82.1,-32.55 71.52,-31.85 79.35,-38.99 82.1,-32.55"/>
<text text-anchor="middle" x="197.05" y="-57.8" font-family="Times,serif" font-size="14.00">dep</text>
</g>
<!-- 2 -->
<g id="node3" class="node">
<title>2</title>
<ellipse fill="none" stroke="black" cx="132.55" cy="-18" rx="27" ry="18"/>
<text text-anchor="middle" x="132.55" y="-14.3" font-family="Times,serif" font-size="14.00">,</text>
</g>
<!-- 0&#45;&gt;2 -->
<g id="edge2" class="edge">
<title>0&#45;&gt;2</title>
<path fill="none" stroke="black" d="M1031.21,-103.82C909.71,-102.85 417.91,-97.25 266.55,-69 229.59,-62.1 189.48,-45.88 162.87,-33.77"/>
<polygon fill="black" stroke="black" points="164.25,-30.55 153.7,-29.52 161.3,-36.9 164.25,-30.55"/>
<text text-anchor="middle" x="280.05" y="-57.8" font-family="Times,serif" font-size="14.00">dep</text>
</g>
<!-- 3 -->
<g id="node4" class="node">
<title>3</title>
<ellipse fill="none" stroke="black" cx="204.55" cy="-18" rx="27.1" ry="18"/>
<text text-anchor="middle" x="204.55" y="-14.3" font-family="Times,serif" font-size="14.00">não</text>
</g>
<!-- 0&#45;&gt;3 -->
<g id="edge3" class="edge">
<title>0&#45;&gt;3</title>
<path fill="none" stroke="black" d="M1031.49,-104.38C939.47,-105.29 630.4,-105.28 378.55,-69 316.13,-60.01 300.04,-56.91 240.55,-36 238.69,-35.35 236.8,-34.63 234.9,-33.87"/>
<polygon fill="black" stroke="black" points="236.13,-30.58 225.56,-29.81 233.34,-37 236.13,-30.58"/>
<text text-anchor="middle" x="392.05" y="-57.8" font-family="Times,serif" font-size="14.00">dep</text>
</g>
<!-- 4 -->
<g id="node5" class="node">
<title>4</title>
<ellipse fill="none" stroke="black" cx="297.55" cy="-18" rx="48.19" ry="18"/>
<text text-anchor="middle" x="297.55" y="-14.3" font-family="Times,serif" font-size="14.00">esqueça</text>
</g>
<!-- 0&#45;&gt;4 -->
<g id="edge4" class="edge">
<title>0&#45;&gt;4</title>
<path fill="none" stroke="black" d="M1031.45,-104.42C947.67,-105.29 685.63,-104.74 472.55,-69 426.88,-61.34 376.16,-46.07 341.13,-34.41"/>
<polygon fill="black" stroke="black" points="341.82,-30.95 331.23,-31.07 339.59,-37.58 341.82,-30.95"/>
<text text-anchor="middle" x="486.05" y="-57.8" font-family="Times,serif" font-size="14.00">dep</text>
</g>
<!-- 5 -->
<g id="node6" class="node">
<title>5</title>
<ellipse fill="none" stroke="black" cx="407.55" cy="-18" rx="43.59" ry="18"/>
<text text-anchor="middle" x="407.55" y="-14.3" font-family="Times,serif" font-size="14.00">porque</text>
</g>
<!-- 0&#45;&gt;5 -->
<g id="edge5" class="edge">
<title>0&#45;&gt;5</title>
<path fill="none" stroke="black" d="M1031.35,-104.49C955.52,-105.34 735.65,-104.32 557.55,-69 518.96,-61.35 476.57,-46.6 446.73,-35.09"/>
<polygon fill="black" stroke="black" points="447.7,-31.71 437.11,-31.33 445.15,-38.23 447.7,-31.71"/>
<text text-anchor="middle" x="571.05" y="-57.8" font-family="Times,serif" font-size="14.00">dep</text>
</g>
<!-- 6 -->
<g id="node7" class="node">
<title>6</title>
<ellipse fill="none" stroke="black" cx="505.55" cy="-18" rx="36.29" ry="18"/>
<text text-anchor="middle" x="505.55" y="-14.3" font-family="Times,serif" font-size="14.00">ainda</text>
</g>
<!-- 0&#45;&gt;6 -->
<g id="edge6" class="edge">
<title>0&#45;&gt;6</title>
<path fill="none" stroke="black" d="M1031.42,-104.4C963.69,-104.84 782.09,-102.52 635.55,-69 602.1,-61.35 565.8,-46.82 540.08,-35.39"/>
<polygon fill="black" stroke="black" points="541.32,-32.11 530.77,-31.18 538.44,-38.49 541.32,-32.11"/>
<text text-anchor="middle" x="649.05" y="-57.8" font-family="Times,serif" font-size="14.00">dep</text>
</g>
<!-- 7 -->
<g id="node8" class="node">
<title>7</title>
<ellipse fill="none" stroke="black" cx="586.55" cy="-18" rx="27" ry="18"/>
<text text-anchor="middle" x="586.55" y="-14.3" font-family="Times,serif" font-size="14.00">se</text>
</g>
<!-- 0&#45;&gt;7 -->
<g id="edge7" class="edge">
<title>0&#45;&gt;7</title>
<path fill="none" stroke="black" d="M1031.61,-103.6C972.77,-102.24 828.63,-96.14 711.55,-69 677.98,-61.22 641.62,-45.82 616.81,-34.15"/>
<polygon fill="black" stroke="black" points="618.11,-30.89 607.58,-29.73 615.09,-37.21 618.11,-30.89"/>
<text text-anchor="middle" x="725.05" y="-57.8" font-family="Times,serif" font-size="14.00">dep</text>
</g>
<!-- 8 -->
<g id="node9" class="node">
<title>8</title>
<ellipse fill="none" stroke="black" cx="658.55" cy="-18" rx="27" ry="18"/>
<text text-anchor="middle" x="658.55" y="-14.3" font-family="Times,serif" font-size="14.00">faz</text>
</g>
<!-- 0&#45;&gt;8 -->
<g id="edge8" class="edge">
<title>0&#45;&gt;8</title>
<path fill="none" stroke="black" d="M1031.65,-102.1C983.57,-98.35 879.95,-88.57 794.55,-69 748.93,-58.55 738.01,-53.36 694.55,-36 692.72,-35.27 690.85,-34.49 688.97,-33.68"/>
<polygon fill="black" stroke="black" points="690.23,-30.41 679.68,-29.51 687.36,-36.8 690.23,-30.41"/>
<text text-anchor="middle" x="808.05" y="-57.8" font-family="Times,serif" font-size="14.00">dep</text>
</g>
<!-- 9 -->
<g id="node10" class="node">
<title>9</title>
<ellipse fill="none" stroke="black" cx="741.55" cy="-18" rx="37.89" ry="18"/>
<text text-anchor="middle" x="741.55" y="-14.3" font-family="Times,serif" font-size="14.00">muita</text>
</g>
<!-- 0&#45;&gt;9 -->
<g id="edge9" class="edge">
<title>0&#45;&gt;9</title>
<path fill="none" stroke="black" d="M1032.22,-100.84C995.03,-96.01 925.22,-85.55 867.55,-69 836.19,-60 801.86,-46.09 776.96,-35.22"/>
<polygon fill="black" stroke="black" points="778.13,-31.92 767.57,-31.08 775.3,-38.32 778.13,-31.92"/>
<text text-anchor="middle" x="881.05" y="-57.8" font-family="Times,serif" font-size="14.00">dep</text>
</g>
<!-- 10 -->
<g id="node11" class="node">
<title>10</title>
<ellipse fill="none" stroke="black" cx="831.55" cy="-18" rx="34.39" ry="18"/>
<text text-anchor="middle" x="831.55" y="-14.3" font-family="Times,serif" font-size="14.00">coisa</text>
</g>
<!-- 0&#45;&gt;10 -->
<g id="edge10" class="edge">
<title>0&#45;&gt;10</title>
<path fill="none" stroke="black" d="M1033.26,-98.57C1007.29,-92.63 965.93,-82.19 931.55,-69 907.87,-59.92 882.32,-47.09 862.97,-36.7"/>
<polygon fill="black" stroke="black" points="864.47,-33.52 854.01,-31.82 861.12,-39.67 864.47,-33.52"/>
<text text-anchor="middle" x="945.05" y="-57.8" font-family="Times,serif" font-size="14.00">dep</text>
</g>
<!-- 11 -->
<g id="node12" class="node">
<title>11</title>
<ellipse fill="none" stroke="black" cx="911.55" cy="-18" rx="27.1" ry="18"/>
<text text-anchor="middle" x="911.55" y="-14.3" font-family="Times,serif" font-size="14.00">boa</text>
</g>
<!-- 0&#45;&gt;11 -->
<g id="edge11" class="edge">
<title>0&#45;&gt;11</title>
<path fill="none" stroke="black" d="M1036.39,-94.63C1021.44,-88.04 1001.43,-78.69 984.55,-69 968.37,-59.71 951.12,-47.99 937.45,-38.23"/>
<polygon fill="black" stroke="black" points="939.19,-35.17 929.03,-32.14 935.09,-40.84 939.19,-35.17"/>
<text text-anchor="middle" x="998.05" y="-57.8" font-family="Times,serif" font-size="14.00">dep</text>
</g>
<!-- 12 -->
<g id="node13" class="node">
<title>12</title>
<ellipse fill="none" stroke="black" cx="983.55" cy="-18" rx="27" ry="18"/>
<text text-anchor="middle" x="983.55" y="-14.3" font-family="Times,serif" font-size="14.00">,</text>
</g>
<!-- 0&#45;&gt;12 -->
<g id="edge12" class="edge">
<title>0&#45;&gt;12</title>
<path fill="none" stroke="black" d="M1045.26,-89.02C1039.77,-82.83 1033.35,-75.57 1027.55,-69 1019.66,-60.07 1010.99,-50.22 1003.45,-41.65"/>
<polygon fill="black" stroke="black" points="1005.86,-39.09 996.63,-33.89 1000.6,-43.71 1005.86,-39.09"/>
<text text-anchor="middle" x="1041.05" y="-57.8" font-family="Times,serif" font-size="14.00">dep</text>
</g>
<!-- 13 -->
<g id="node14" class="node">
<title>13</title>
<ellipse fill="none" stroke="black" cx="1058.55" cy="-18" rx="29.8" ry="18"/>
<text text-anchor="middle" x="1058.55" y="-14.3" font-family="Times,serif" font-size="14.00">mas</text>
</g>
<!-- 0&#45;&gt;13 -->
<g id="edge13" class="edge">
<title>0&#45;&gt;13</title>
<path fill="none" stroke="black" d="M1058.55,-86.8C1058.55,-75.16 1058.55,-59.55 1058.55,-46.24"/>
<polygon fill="black" stroke="black" points="1062.05,-46.18 1058.55,-36.18 1055.05,-46.18 1062.05,-46.18"/>
<text text-anchor="middle" x="1072.05" y="-57.8" font-family="Times,serif" font-size="14.00">dep</text>
</g>
<!-- 14 -->
<g id="node15" class="node">
<title>14</title>
<ellipse fill="none" stroke="black" cx="1142.55" cy="-18" rx="36" ry="18"/>
<text text-anchor="middle" x="1142.55" y="-14.3" font-family="Times,serif" font-size="14.00">deixe</text>
</g>
<!-- 0&#45;&gt;14 -->
<g id="edge14" class="edge">
<title>0&#45;&gt;14</title>
<path fill="none" stroke="black" d="M1072.8,-89.58C1085.71,-76.51 1104.96,-57.03 1119.97,-41.85"/>
<polygon fill="black" stroke="black" points="1122.83,-43.93 1127.37,-34.35 1117.86,-39.01 1122.83,-43.93"/>
<text text-anchor="middle" x="1120.05" y="-57.8" font-family="Times,serif" font-size="14.00">dep</text>
</g>
<!-- 15 -->
<g id="node16" class="node">
<title>15</title>
<ellipse fill="none" stroke="black" cx="1223.55" cy="-18" rx="27" ry="18"/>
<text text-anchor="middle" x="1223.55" y="-14.3" font-family="Times,serif" font-size="14.00">de</text>
</g>
<!-- 0&#45;&gt;15 -->
<g id="edge15" class="edge">
<title>0&#45;&gt;15</title>
<path fill="none" stroke="black" d="M1080.99,-94.83C1096.97,-88.12 1118.84,-78.55 1137.55,-69 1157.41,-58.87 1179.1,-46.24 1195.74,-36.21"/>
<polygon fill="black" stroke="black" points="1197.69,-39.12 1204.41,-30.94 1194.05,-33.14 1197.69,-39.12"/>
<text text-anchor="middle" x="1178.05" y="-57.8" font-family="Times,serif" font-size="14.00">dep</text>
</g>
<!-- 16 -->
<g id="node17" class="node">
<title>16</title>
<ellipse fill="none" stroke="black" cx="1310.55" cy="-18" rx="42.49" ry="18"/>
<text text-anchor="middle" x="1310.55" y="-14.3" font-family="Times,serif" font-size="14.00">querer</text>
</g>
<!-- 0&#45;&gt;16 -->
<g id="edge16" class="edge">
<title>0&#45;&gt;16</title>
<path fill="none" stroke="black" d="M1083.9,-98.8C1111.67,-92.81 1157.34,-82.09 1195.55,-69 1222.58,-59.74 1252.12,-46.83 1274.49,-36.45"/>
<polygon fill="black" stroke="black" points="1276.05,-39.59 1283.61,-32.17 1273.07,-33.25 1276.05,-39.59"/>
<text text-anchor="middle" x="1248.05" y="-57.8" font-family="Times,serif" font-size="14.00">dep</text>
</g>
<!-- 17 -->
<g id="node18" class="node">
<title>17</title>
<ellipse fill="none" stroke="black" cx="1397.55" cy="-18" rx="27" ry="18"/>
<text text-anchor="middle" x="1397.55" y="-14.3" font-family="Times,serif" font-size="14.00">ser</text>
</g>
<!-- 0&#45;&gt;17 -->
<g id="edge17" class="edge">
<title>0&#45;&gt;17</title>
<path fill="none" stroke="black" d="M1084.98,-100.94C1124.61,-96.03 1201.62,-85.28 1265.55,-69 1309.27,-57.87 1319.75,-52.99 1361.55,-36 1363.37,-35.26 1365.24,-34.47 1367.11,-33.66"/>
<polygon fill="black" stroke="black" points="1368.73,-36.77 1376.4,-29.46 1365.84,-30.39 1368.73,-36.77"/>
<text text-anchor="middle" x="1330.05" y="-57.8" font-family="Times,serif" font-size="14.00">dep</text>
</g>
<!-- 18 -->
<g id="node19" class="node">
<title>18</title>
<ellipse fill="none" stroke="black" cx="1486.55" cy="-18" rx="43.59" ry="18"/>
<text text-anchor="middle" x="1486.55" y="-14.3" font-family="Times,serif" font-size="14.00">bacana</text>
</g>
<!-- 0&#45;&gt;18 -->
<g id="edge18" class="edge">
<title>0&#45;&gt;18</title>
<path fill="none" stroke="black" d="M1085.6,-102.75C1137.17,-99.93 1252.88,-91.46 1347.55,-69 1382.48,-60.71 1420.77,-46.54 1448.31,-35.39"/>
<polygon fill="black" stroke="black" points="1449.65,-38.62 1457.57,-31.59 1446.99,-32.15 1449.65,-38.62"/>
<text text-anchor="middle" x="1412.05" y="-57.8" font-family="Times,serif" font-size="14.00">dep</text>
</g>
<!-- 19 -->
<g id="node20" class="node">
<title>19</title>
<ellipse fill="none" stroke="black" cx="1592.55" cy="-18" rx="44.69" ry="18"/>
<text text-anchor="middle" x="1592.55" y="-14.3" font-family="Times,serif" font-size="14.00">citando</text>
</g>
<!-- 0&#45;&gt;19 -->
<g id="edge19" class="edge">
<title>0&#45;&gt;19</title>
<path fill="none" stroke="black" d="M1085.81,-103.27C1147.55,-101.21 1302.55,-93.79 1429.55,-69 1471.8,-60.75 1518.66,-45.74 1551.25,-34.3"/>
<polygon fill="black" stroke="black" points="1552.63,-37.53 1560.89,-30.88 1550.29,-30.93 1552.63,-37.53"/>
<text text-anchor="middle" x="1503.05" y="-57.8" font-family="Times,serif" font-size="14.00">dep</text>
</g>
<!-- 20 -->
<g id="node21" class="node">
<title>20</title>
<ellipse fill="none" stroke="black" cx="1682.55" cy="-18" rx="27" ry="18"/>
<text text-anchor="middle" x="1682.55" y="-14.3" font-family="Times,serif" font-size="14.00">o</text>
</g>
<!-- 0&#45;&gt;20 -->
<g id="edge20" class="edge">
<title>0&#45;&gt;20</title>
<path fill="none" stroke="black" d="M1085.57,-103.65C1157.07,-102.37 1356.92,-96.39 1520.55,-69 1577.64,-59.44 1592.14,-55.78 1646.55,-36 1648.4,-35.33 1650.28,-34.59 1652.17,-33.82"/>
<polygon fill="black" stroke="black" points="1653.75,-36.95 1661.5,-29.73 1650.94,-30.54 1653.75,-36.95"/>
<text text-anchor="middle" x="1607.05" y="-57.8" font-family="Times,serif" font-size="14.00">dep</text>
</g>
<!-- 21 -->
<g id="node22" class="node">
<title>21</title>
<ellipse fill="none" stroke="black" cx="1762.55" cy="-18" rx="35.19" ry="18"/>
<text text-anchor="middle" x="1762.55" y="-14.3" font-family="Times,serif" font-size="14.00">como</text>
</g>
<!-- 0&#45;&gt;21 -->
<g id="edge21" class="edge">
<title>0&#45;&gt;21</title>
<path fill="none" stroke="black" d="M1085.64,-103.31C1183.65,-100.68 1519.49,-90.26 1624.55,-69 1660.92,-61.64 1700.56,-46.47 1727.99,-34.77"/>
<polygon fill="black" stroke="black" points="1729.73,-37.82 1737.51,-30.63 1726.94,-31.4 1729.73,-37.82"/>
<text text-anchor="middle" x="1689.05" y="-57.8" font-family="Times,serif" font-size="14.00">dep</text>
</g>
<!-- 22 -->
<g id="node23" class="node">
<title>22</title>
<ellipse fill="none" stroke="black" cx="1842.55" cy="-18" rx="27" ry="18"/>
<text text-anchor="middle" x="1842.55" y="-14.3" font-family="Times,serif" font-size="14.00">a</text>
</g>
<!-- 0&#45;&gt;22 -->
<g id="edge22" class="edge">
<title>0&#45;&gt;22</title>
<path fill="none" stroke="black" d="M1085.79,-103.49C1192.84,-101.33 1584.62,-91.99 1706.55,-69 1752.54,-60.33 1763.08,-53.36 1806.55,-36 1808.38,-35.27 1810.24,-34.49 1812.12,-33.68"/>
<polygon fill="black" stroke="black" points="1813.73,-36.8 1821.42,-29.51 1810.86,-30.41 1813.73,-36.8"/>
<text text-anchor="middle" x="1775.05" y="-57.8" font-family="Times,serif" font-size="14.00">dep</text>
</g>
<!-- 23 -->
<g id="node24" class="node">
<title>23</title>
<ellipse fill="none" stroke="black" cx="1927.55" cy="-18" rx="40.09" ry="18"/>
<text text-anchor="middle" x="1927.55" y="-14.3" font-family="Times,serif" font-size="14.00">última</text>
</g>
<!-- 0&#45;&gt;23 -->
<g id="edge23" class="edge">
<title>0&#45;&gt;23</title>
<path fill="none" stroke="black" d="M1085.82,-103.82C1201.68,-102.86 1653.48,-97.36 1792.55,-69 1827.23,-61.93 1864.85,-47.38 1891.54,-35.79"/>
<polygon fill="black" stroke="black" points="1893.13,-38.92 1900.86,-31.68 1890.3,-32.52 1893.13,-38.92"/>
<text text-anchor="middle" x="1856.05" y="-57.8" font-family="Times,serif" font-size="14.00">dep</text>
</g>
<!-- 24 -->
<g id="node25" class="node">
<title>24</title>
<ellipse fill="none" stroke="black" cx="2041.55" cy="-18" rx="55.79" ry="18"/>
<text text-anchor="middle" x="2041.55" y="-14.3" font-family="Times,serif" font-size="14.00">tendência</text>
</g>
<!-- 0&#45;&gt;24 -->
<g id="edge24" class="edge">
<title>0&#45;&gt;24</title>
<path fill="none" stroke="black" d="M1085.82,-103.73C1209.32,-102.37 1716.94,-95.25 1873.55,-69 1916.43,-61.81 1963.78,-47.07 1997.26,-35.45"/>
<polygon fill="black" stroke="black" points="1998.47,-38.73 2006.74,-32.11 1996.15,-32.12 1998.47,-38.73"/>
<text text-anchor="middle" x="1948.05" y="-57.8" font-family="Times,serif" font-size="14.00">dep</text>
</g>
<!-- 25 -->
<g id="node26" class="node">
<title>25</title>
<ellipse fill="none" stroke="black" cx="2142.55" cy="-18" rx="27" ry="18"/>
<text text-anchor="middle" x="2142.55" y="-14.3" font-family="Times,serif" font-size="14.00">.</text>
</g>
<!-- 0&#45;&gt;25 -->
<g id="edge25" class="edge">
<title>0&#45;&gt;25</title>
<path fill="none" stroke="black" d="M1085.72,-103.65C1217.31,-101.86 1789.08,-92.83 1965.55,-69 2029.33,-60.39 2045.78,-57.19 2106.55,-36 2108.46,-35.33 2110.4,-34.6 2112.34,-33.82"/>
<polygon fill="black" stroke="black" points="2114.14,-36.85 2121.92,-29.65 2111.35,-30.43 2114.14,-36.85"/>
<text text-anchor="middle" x="2063.05" y="-57.8" font-family="Times,serif" font-size="14.00">dep</text>
</g>
</g>
</svg>
