<?xml version="1.0" encoding="UTF-8" standalone="no"?>
<!DOCTYPE svg PUBLIC "-//W3C//DTD SVG 1.1//EN"
 "http://www.w3.org/Graphics/SVG/1.1/DTD/svg11.dtd">
<!-- Generated by graphviz version 2.42.4 (0)
 -->
<!-- Pages: 1 -->
<svg width="1252pt" height="131pt"
 viewBox="0.00 0.00 1252.10 131.00" xmlns="http://www.w3.org/2000/svg" xmlns:xlink="http://www.w3.org/1999/xlink">
<g id="graph0" class="graph" transform="scale(1 1) rotate(0) translate(4 127)">
<polygon fill="white" stroke="transparent" points="-4,4 -4,-127 1248.1,-127 1248.1,4 -4,4"/>
<!-- 0 -->
<g id="node1" class="node">
<title>0</title>
<ellipse fill="none" stroke="black" cx="664.1" cy="-105" rx="27" ry="18"/>
<text text-anchor="middle" x="664.1" y="-101.3" font-family="Times,serif" font-size="14.00">É</text>
</g>
<!-- 1 -->
<g id="node2" class="node">
<title>1</title>
<ellipse fill="none" stroke="black" cx="48.1" cy="-18" rx="48.19" ry="18"/>
<text text-anchor="middle" x="48.1" y="-14.3" font-family="Times,serif" font-size="14.00">possível</text>
</g>
<!-- 0&#45;&gt;1 -->
<g id="edge1" class="edge">
<title>0&#45;&gt;1</title>
<path fill="none" stroke="black" d="M636.91,-104.21C565.01,-104.28 364.18,-101.32 201.1,-69 162.14,-61.28 119.28,-46.72 88.86,-35.3"/>
<polygon fill="black" stroke="black" points="90.03,-32 79.44,-31.71 87.54,-38.54 90.03,-32"/>
<text text-anchor="middle" x="214.6" y="-57.8" font-family="Times,serif" font-size="14.00">dep</text>
</g>
<!-- 2 -->
<g id="node3" class="node">
<title>2</title>
<ellipse fill="none" stroke="black" cx="142.1" cy="-18" rx="27.9" ry="18"/>
<text text-anchor="middle" x="142.1" y="-14.3" font-family="Times,serif" font-size="14.00">que</text>
</g>
<!-- 0&#45;&gt;2 -->
<g id="edge2" class="edge">
<title>0&#45;&gt;2</title>
<path fill="none" stroke="black" d="M637.16,-103.07C576.15,-100.6 422.95,-92.41 297.1,-69 243.56,-59.04 230.22,-54.76 179.1,-36 177.2,-35.31 175.28,-34.56 173.34,-33.77"/>
<polygon fill="black" stroke="black" points="174.34,-30.39 163.77,-29.65 171.57,-36.82 174.34,-30.39"/>
<text text-anchor="middle" x="310.6" y="-57.8" font-family="Times,serif" font-size="14.00">dep</text>
</g>
<!-- 3 -->
<g id="node4" class="node">
<title>3</title>
<ellipse fill="none" stroke="black" cx="225.1" cy="-18" rx="37.09" ry="18"/>
<text text-anchor="middle" x="225.1" y="-14.3" font-family="Times,serif" font-size="14.00">tenha</text>
</g>
<!-- 0&#45;&gt;3 -->
<g id="edge3" class="edge">
<title>0&#45;&gt;3</title>
<path fill="none" stroke="black" d="M637.34,-101.9C587.93,-97.74 479.19,-87.23 389.1,-69 335.72,-58.2 322.9,-52.79 271.1,-36 268.36,-35.11 265.55,-34.17 262.73,-33.19"/>
<polygon fill="black" stroke="black" points="263.78,-29.85 253.19,-29.79 261.44,-36.44 263.78,-29.85"/>
<text text-anchor="middle" x="402.6" y="-57.8" font-family="Times,serif" font-size="14.00">dep</text>
</g>
<!-- 4 -->
<g id="node5" class="node">
<title>4</title>
<ellipse fill="none" stroke="black" cx="311.1" cy="-18" rx="31.4" ry="18"/>
<text text-anchor="middle" x="311.1" y="-14.3" font-family="Times,serif" font-size="14.00">essa</text>
</g>
<!-- 0&#45;&gt;4 -->
<g id="edge4" class="edge">
<title>0&#45;&gt;4</title>
<path fill="none" stroke="black" d="M637.76,-100.02C583.48,-91.43 455.55,-69.22 352.1,-36 349.66,-35.22 347.16,-34.35 344.66,-33.44"/>
<polygon fill="black" stroke="black" points="345.72,-30.09 335.13,-29.74 343.19,-36.62 345.72,-30.09"/>
<text text-anchor="middle" x="484.6" y="-57.8" font-family="Times,serif" font-size="14.00">dep</text>
</g>
<!-- 5 -->
<g id="node6" class="node">
<title>5</title>
<ellipse fill="none" stroke="black" cx="434.1" cy="-18" rx="73.39" ry="18"/>
<text text-anchor="middle" x="434.1" y="-14.3" font-family="Times,serif" font-size="14.00">consequência</text>
</g>
<!-- 0&#45;&gt;5 -->
<g id="edge5" class="edge">
<title>0&#45;&gt;5</title>
<path fill="none" stroke="black" d="M640.59,-96C620.27,-89.03 590.17,-78.57 564.1,-69 536.34,-58.81 505.44,-46.95 480.74,-37.33"/>
<polygon fill="black" stroke="black" points="481.83,-34.01 471.25,-33.63 479.29,-40.53 481.83,-34.01"/>
<text text-anchor="middle" x="577.6" y="-57.8" font-family="Times,serif" font-size="14.00">dep</text>
</g>
<!-- 6 -->
<g id="node7" class="node">
<title>6</title>
<ellipse fill="none" stroke="black" cx="552.1" cy="-18" rx="27" ry="18"/>
<text text-anchor="middle" x="552.1" y="-14.3" font-family="Times,serif" font-size="14.00">,</text>
</g>
<!-- 0&#45;&gt;6 -->
<g id="edge6" class="edge">
<title>0&#45;&gt;6</title>
<path fill="none" stroke="black" d="M645.42,-91.74C635.65,-85.18 623.57,-76.87 613.1,-69 600.62,-59.63 587.16,-48.7 576.07,-39.45"/>
<polygon fill="black" stroke="black" points="578.01,-36.51 568.11,-32.75 573.51,-41.87 578.01,-36.51"/>
<text text-anchor="middle" x="626.6" y="-57.8" font-family="Times,serif" font-size="14.00">dep</text>
</g>
<!-- 7 -->
<g id="node8" class="node">
<title>7</title>
<ellipse fill="none" stroke="black" cx="627.1" cy="-18" rx="29.8" ry="18"/>
<text text-anchor="middle" x="627.1" y="-14.3" font-family="Times,serif" font-size="14.00">mas</text>
</g>
<!-- 0&#45;&gt;7 -->
<g id="edge7" class="edge">
<title>0&#45;&gt;7</title>
<path fill="none" stroke="black" d="M656.96,-87.61C651.72,-75.58 644.5,-58.98 638.47,-45.13"/>
<polygon fill="black" stroke="black" points="641.53,-43.4 634.33,-35.63 635.12,-46.19 641.53,-43.4"/>
<text text-anchor="middle" x="661.6" y="-57.8" font-family="Times,serif" font-size="14.00">dep</text>
</g>
<!-- 8 -->
<g id="node9" class="node">
<title>8</title>
<ellipse fill="none" stroke="black" cx="702.1" cy="-18" rx="27.1" ry="18"/>
<text text-anchor="middle" x="702.1" y="-14.3" font-family="Times,serif" font-size="14.00">não</text>
</g>
<!-- 0&#45;&gt;8 -->
<g id="edge8" class="edge">
<title>0&#45;&gt;8</title>
<path fill="none" stroke="black" d="M671.42,-87.61C676.8,-75.58 684.22,-58.98 690.41,-45.13"/>
<polygon fill="black" stroke="black" points="693.78,-46.19 694.66,-35.63 687.39,-43.33 693.78,-46.19"/>
<text text-anchor="middle" x="699.6" y="-57.8" font-family="Times,serif" font-size="14.00">dep</text>
</g>
<!-- 9 -->
<g id="node10" class="node">
<title>9</title>
<ellipse fill="none" stroke="black" cx="774.1" cy="-18" rx="27" ry="18"/>
<text text-anchor="middle" x="774.1" y="-14.3" font-family="Times,serif" font-size="14.00">se</text>
</g>
<!-- 0&#45;&gt;9 -->
<g id="edge9" class="edge">
<title>0&#45;&gt;9</title>
<path fill="none" stroke="black" d="M683.67,-91.98C693.86,-85.49 706.4,-77.16 717.1,-69 728.82,-60.05 741.2,-49.36 751.42,-40.16"/>
<polygon fill="black" stroke="black" points="754.06,-42.49 759.09,-33.17 749.34,-37.32 754.06,-42.49"/>
<text text-anchor="middle" x="748.6" y="-57.8" font-family="Times,serif" font-size="14.00">dep</text>
</g>
<!-- 10 -->
<g id="node11" class="node">
<title>10</title>
<ellipse fill="none" stroke="black" cx="851.1" cy="-18" rx="32.49" ry="18"/>
<text text-anchor="middle" x="851.1" y="-14.3" font-family="Times,serif" font-size="14.00">deve</text>
</g>
<!-- 0&#45;&gt;10 -->
<g id="edge10" class="edge">
<title>0&#45;&gt;10</title>
<path fill="none" stroke="black" d="M688.54,-97.13C709.54,-90.87 740.41,-80.81 766.1,-69 785.65,-60.01 806.5,-47.79 822.65,-37.68"/>
<polygon fill="black" stroke="black" points="824.54,-40.63 831.11,-32.32 820.79,-34.72 824.54,-40.63"/>
<text text-anchor="middle" x="808.6" y="-57.8" font-family="Times,serif" font-size="14.00">dep</text>
</g>
<!-- 11 -->
<g id="node12" class="node">
<title>11</title>
<ellipse fill="none" stroke="black" cx="953.1" cy="-18" rx="51.19" ry="18"/>
<text text-anchor="middle" x="953.1" y="-14.3" font-family="Times,serif" font-size="14.00">misturar</text>
</g>
<!-- 0&#45;&gt;11 -->
<g id="edge11" class="edge">
<title>0&#45;&gt;11</title>
<path fill="none" stroke="black" d="M689.96,-99.75C722.21,-94.15 778.86,-83.3 826.1,-69 855.93,-59.97 888.63,-47.02 913.38,-36.56"/>
<polygon fill="black" stroke="black" points="914.97,-39.69 922.79,-32.54 912.22,-33.25 914.97,-39.69"/>
<text text-anchor="middle" x="882.6" y="-57.8" font-family="Times,serif" font-size="14.00">dep</text>
</g>
<!-- 12 -->
<g id="node13" class="node">
<title>12</title>
<ellipse fill="none" stroke="black" cx="1049.1" cy="-18" rx="27" ry="18"/>
<text text-anchor="middle" x="1049.1" y="-14.3" font-family="Times,serif" font-size="14.00">as</text>
</g>
<!-- 0&#45;&gt;12 -->
<g id="edge12" class="edge">
<title>0&#45;&gt;12</title>
<path fill="none" stroke="black" d="M690.77,-101.91C750.32,-96.58 897.96,-79.69 1013.1,-36 1014.94,-35.3 1016.82,-34.55 1018.7,-33.76"/>
<polygon fill="black" stroke="black" points="1020.29,-36.88 1028.01,-29.63 1017.45,-30.48 1020.29,-36.88"/>
<text text-anchor="middle" x="971.6" y="-57.8" font-family="Times,serif" font-size="14.00">dep</text>
</g>
<!-- 13 -->
<g id="node14" class="node">
<title>13</title>
<ellipse fill="none" stroke="black" cx="1133.1" cy="-18" rx="38.99" ry="18"/>
<text text-anchor="middle" x="1133.1" y="-14.3" font-family="Times,serif" font-size="14.00">coisas</text>
</g>
<!-- 0&#45;&gt;13 -->
<g id="edge13" class="edge">
<title>0&#45;&gt;13</title>
<path fill="none" stroke="black" d="M690.96,-103.14C747.02,-100.89 880.25,-93.25 989.1,-69 1026.18,-60.74 1066.96,-46.02 1095.63,-34.68"/>
<polygon fill="black" stroke="black" points="1097.26,-37.8 1105.24,-30.83 1094.65,-31.3 1097.26,-37.8"/>
<text text-anchor="middle" x="1055.6" y="-57.8" font-family="Times,serif" font-size="14.00">dep</text>
</g>
<!-- 14 -->
<g id="node15" class="node">
<title>14</title>
<ellipse fill="none" stroke="black" cx="1217.1" cy="-18" rx="27" ry="18"/>
<text text-anchor="middle" x="1217.1" y="-14.3" font-family="Times,serif" font-size="14.00">.</text>
</g>
<!-- 0&#45;&gt;14 -->
<g id="edge14" class="edge">
<title>0&#45;&gt;14</title>
<path fill="none" stroke="black" d="M691.16,-103.65C757.1,-102.38 931.05,-96.46 1073.1,-69 1122.37,-59.47 1134.28,-54.1 1181.1,-36 1182.93,-35.29 1184.81,-34.53 1186.69,-33.73"/>
<polygon fill="black" stroke="black" points="1188.29,-36.85 1196,-29.59 1185.44,-30.46 1188.29,-36.85"/>
<text text-anchor="middle" x="1145.6" y="-57.8" font-family="Times,serif" font-size="14.00">dep</text>
</g>
</g>
</svg>
