<?xml version="1.0" encoding="UTF-8" standalone="no"?>
<!DOCTYPE svg PUBLIC "-//W3C//DTD SVG 1.1//EN"
 "http://www.w3.org/Graphics/SVG/1.1/DTD/svg11.dtd">
<!-- Generated by graphviz version 2.42.4 (0)
 -->
<!-- Pages: 1 -->
<svg width="2028pt" height="131pt"
 viewBox="0.00 0.00 2028.00 131.00" xmlns="http://www.w3.org/2000/svg" xmlns:xlink="http://www.w3.org/1999/xlink">
<g id="graph0" class="graph" transform="scale(1 1) rotate(0) translate(4 127)">
<polygon fill="white" stroke="transparent" points="-4,4 -4,-127 2024,-127 2024,4 -4,4"/>
<!-- 0 -->
<g id="node1" class="node">
<title>0</title>
<ellipse fill="none" stroke="black" cx="1052" cy="-105" rx="27" ry="18"/>
<text text-anchor="middle" x="1052" y="-101.3" font-family="Times,serif" font-size="14.00">Em</text>
</g>
<!-- 1 -->
<g id="node2" class="node">
<title>1</title>
<ellipse fill="none" stroke="black" cx="27" cy="-18" rx="27" ry="18"/>
<text text-anchor="middle" x="27" y="-14.3" font-family="Times,serif" font-size="14.00">35</text>
</g>
<!-- 0&#45;&gt;1 -->
<g id="edge1" class="edge">
<title>0&#45;&gt;1</title>
<path fill="none" stroke="black" d="M1024.96,-104.1C894.03,-104.38 325.28,-103.58 152,-69 118.01,-62.22 81.44,-46.51 56.7,-34.5"/>
<polygon fill="black" stroke="black" points="58.02,-31.25 47.51,-29.94 54.91,-37.52 58.02,-31.25"/>
<text text-anchor="middle" x="165.5" y="-57.8" font-family="Times,serif" font-size="14.00">dep</text>
</g>
<!-- 2 -->
<g id="node3" class="node">
<title>2</title>
<ellipse fill="none" stroke="black" cx="104" cy="-18" rx="32.49" ry="18"/>
<text text-anchor="middle" x="104" y="-14.3" font-family="Times,serif" font-size="14.00">anos</text>
</g>
<!-- 0&#45;&gt;2 -->
<g id="edge2" class="edge">
<title>0&#45;&gt;2</title>
<path fill="none" stroke="black" d="M1024.96,-103.99C901.37,-103.76 389.54,-100.85 233,-69 198.98,-62.08 162.26,-47.03 136.72,-35.25"/>
<polygon fill="black" stroke="black" points="138.05,-32 127.51,-30.91 135.07,-38.34 138.05,-32"/>
<text text-anchor="middle" x="246.5" y="-57.8" font-family="Times,serif" font-size="14.00">dep</text>
</g>
<!-- 3 -->
<g id="node4" class="node">
<title>3</title>
<ellipse fill="none" stroke="black" cx="181" cy="-18" rx="27" ry="18"/>
<text text-anchor="middle" x="181" y="-14.3" font-family="Times,serif" font-size="14.00">,</text>
</g>
<!-- 0&#45;&gt;3 -->
<g id="edge3" class="edge">
<title>0&#45;&gt;3</title>
<path fill="none" stroke="black" d="M1024.71,-103.69C908.8,-102.21 456.74,-94.89 317,-69 279.55,-62.06 238.83,-45.84 211.8,-33.74"/>
<polygon fill="black" stroke="black" points="213.05,-30.47 202.5,-29.5 210.14,-36.83 213.05,-30.47"/>
<text text-anchor="middle" x="330.5" y="-57.8" font-family="Times,serif" font-size="14.00">dep</text>
</g>
<!-- 4 -->
<g id="node5" class="node">
<title>4</title>
<ellipse fill="none" stroke="black" cx="253" cy="-18" rx="27" ry="18"/>
<text text-anchor="middle" x="253" y="-14.3" font-family="Times,serif" font-size="14.00">os</text>
</g>
<!-- 0&#45;&gt;4 -->
<g id="edge4" class="edge">
<title>0&#45;&gt;4</title>
<path fill="none" stroke="black" d="M1024.98,-104.22C937.74,-104.58 655.92,-102.84 426,-69 364.04,-59.88 348.07,-56.81 289,-36 287.09,-35.33 285.15,-34.59 283.21,-33.8"/>
<polygon fill="black" stroke="black" points="284.2,-30.42 273.64,-29.63 281.4,-36.83 284.2,-30.42"/>
<text text-anchor="middle" x="439.5" y="-57.8" font-family="Times,serif" font-size="14.00">dep</text>
</g>
<!-- 5 -->
<g id="node6" class="node">
<title>5</title>
<ellipse fill="none" stroke="black" cx="336" cy="-18" rx="38.19" ry="18"/>
<text text-anchor="middle" x="336" y="-14.3" font-family="Times,serif" font-size="14.00">danos</text>
</g>
<!-- 0&#45;&gt;5 -->
<g id="edge5" class="edge">
<title>0&#45;&gt;5</title>
<path fill="none" stroke="black" d="M1024.89,-103.25C949.78,-100.93 732.73,-92.54 554,-69 477.69,-58.95 458.26,-56.24 384,-36 380.84,-35.14 377.6,-34.17 374.35,-33.15"/>
<polygon fill="black" stroke="black" points="375.31,-29.78 364.72,-29.95 373.1,-36.42 375.31,-29.78"/>
<text text-anchor="middle" x="567.5" y="-57.8" font-family="Times,serif" font-size="14.00">dep</text>
</g>
<!-- 6 -->
<g id="node7" class="node">
<title>6</title>
<ellipse fill="none" stroke="black" cx="446" cy="-18" rx="53.09" ry="18"/>
<text text-anchor="middle" x="446" y="-14.3" font-family="Times,serif" font-size="14.00">causados</text>
</g>
<!-- 0&#45;&gt;6 -->
<g id="edge6" class="edge">
<title>0&#45;&gt;6</title>
<path fill="none" stroke="black" d="M1024.8,-102.61C961.67,-99.14 800.42,-88.93 667,-69 596.05,-58.4 578.77,-52.68 509,-36 504.67,-34.96 500.18,-33.85 495.69,-32.69"/>
<polygon fill="black" stroke="black" points="496.46,-29.28 485.9,-30.14 494.7,-36.05 496.46,-29.28"/>
<text text-anchor="middle" x="680.5" y="-57.8" font-family="Times,serif" font-size="14.00">dep</text>
</g>
<!-- 7 -->
<g id="node8" class="node">
<title>7</title>
<ellipse fill="none" stroke="black" cx="586" cy="-18" rx="68.49" ry="18"/>
<text text-anchor="middle" x="586" y="-14.3" font-family="Times,serif" font-size="14.00">ultrapassam</text>
</g>
<!-- 0&#45;&gt;7 -->
<g id="edge7" class="edge">
<title>0&#45;&gt;7</title>
<path fill="none" stroke="black" d="M1025.04,-102.4C972.46,-98.92 852.73,-89.33 754,-69 713.35,-60.63 668.33,-46.98 635.13,-36.06"/>
<polygon fill="black" stroke="black" points="635.82,-32.6 625.22,-32.77 633.61,-39.25 635.82,-32.6"/>
<text text-anchor="middle" x="767.5" y="-57.8" font-family="Times,serif" font-size="14.00">dep</text>
</g>
<!-- 8 -->
<g id="node9" class="node">
<title>8</title>
<ellipse fill="none" stroke="black" cx="702" cy="-18" rx="29.8" ry="18"/>
<text text-anchor="middle" x="702" y="-14.3" font-family="Times,serif" font-size="14.00">dois</text>
</g>
<!-- 0&#45;&gt;8 -->
<g id="edge8" class="edge">
<title>0&#45;&gt;8</title>
<path fill="none" stroke="black" d="M1025.34,-101.53C983.3,-97.24 899.27,-87.11 830,-69 789.18,-58.33 780.13,-51.77 741,-36 738.94,-35.17 736.83,-34.3 734.7,-33.41"/>
<polygon fill="black" stroke="black" points="735.99,-30.16 725.42,-29.46 733.25,-36.6 735.99,-30.16"/>
<text text-anchor="middle" x="843.5" y="-57.8" font-family="Times,serif" font-size="14.00">dep</text>
</g>
<!-- 9 -->
<g id="node10" class="node">
<title>9</title>
<ellipse fill="none" stroke="black" cx="777" cy="-18" rx="27" ry="18"/>
<text text-anchor="middle" x="777" y="-14.3" font-family="Times,serif" font-size="14.00">mil</text>
</g>
<!-- 0&#45;&gt;9 -->
<g id="edge9" class="edge">
<title>0&#45;&gt;9</title>
<path fill="none" stroke="black" d="M1026.76,-98.55C998.04,-92.19 949.83,-80.99 909,-69 865.71,-56.29 854.8,-52.99 813,-36 811.18,-35.26 809.31,-34.47 807.44,-33.66"/>
<polygon fill="black" stroke="black" points="808.7,-30.39 798.15,-29.46 805.82,-36.77 808.7,-30.39"/>
<text text-anchor="middle" x="922.5" y="-57.8" font-family="Times,serif" font-size="14.00">dep</text>
</g>
<!-- 10 -->
<g id="node11" class="node">
<title>10</title>
<ellipse fill="none" stroke="black" cx="869" cy="-18" rx="46.59" ry="18"/>
<text text-anchor="middle" x="869" y="-14.3" font-family="Times,serif" font-size="14.00">milhões</text>
</g>
<!-- 0&#45;&gt;10 -->
<g id="edge10" class="edge">
<title>0&#45;&gt;10</title>
<path fill="none" stroke="black" d="M1029.52,-94.63C1013.2,-87.74 990.62,-78.04 971,-69 948.99,-58.86 924.61,-46.93 905.2,-37.27"/>
<polygon fill="black" stroke="black" points="906.62,-34.06 896.1,-32.73 903.49,-40.33 906.62,-34.06"/>
<text text-anchor="middle" x="984.5" y="-57.8" font-family="Times,serif" font-size="14.00">dep</text>
</g>
<!-- 11 -->
<g id="node12" class="node">
<title>11</title>
<ellipse fill="none" stroke="black" cx="961" cy="-18" rx="27" ry="18"/>
<text text-anchor="middle" x="961" y="-14.3" font-family="Times,serif" font-size="14.00">de</text>
</g>
<!-- 0&#45;&gt;11 -->
<g id="edge11" class="edge">
<title>0&#45;&gt;11</title>
<path fill="none" stroke="black" d="M1036.97,-89.96C1022.48,-76.43 1000.36,-55.77 983.72,-40.22"/>
<polygon fill="black" stroke="black" points="985.75,-37.33 976.05,-33.06 980.97,-42.44 985.75,-37.33"/>
<text text-anchor="middle" x="1025.5" y="-57.8" font-family="Times,serif" font-size="14.00">dep</text>
</g>
<!-- 12 -->
<g id="node13" class="node">
<title>12</title>
<ellipse fill="none" stroke="black" cx="1052" cy="-18" rx="46.29" ry="18"/>
<text text-anchor="middle" x="1052" y="-14.3" font-family="Times,serif" font-size="14.00">pesetas</text>
</g>
<!-- 0&#45;&gt;12 -->
<g id="edge12" class="edge">
<title>0&#45;&gt;12</title>
<path fill="none" stroke="black" d="M1052,-86.8C1052,-75.16 1052,-59.55 1052,-46.24"/>
<polygon fill="black" stroke="black" points="1055.5,-46.18 1052,-36.18 1048.5,-46.18 1055.5,-46.18"/>
<text text-anchor="middle" x="1065.5" y="-57.8" font-family="Times,serif" font-size="14.00">dep</text>
</g>
<!-- 13 -->
<g id="node14" class="node">
<title>13</title>
<ellipse fill="none" stroke="black" cx="1143" cy="-18" rx="27" ry="18"/>
<text text-anchor="middle" x="1143" y="-14.3" font-family="Times,serif" font-size="14.00">(</text>
</g>
<!-- 0&#45;&gt;13 -->
<g id="edge13" class="edge">
<title>0&#45;&gt;13</title>
<path fill="none" stroke="black" d="M1067.03,-89.96C1081.52,-76.43 1103.64,-55.77 1120.28,-40.22"/>
<polygon fill="black" stroke="black" points="1123.03,-42.44 1127.95,-33.06 1118.25,-37.33 1123.03,-42.44"/>
<text text-anchor="middle" x="1116.5" y="-57.8" font-family="Times,serif" font-size="14.00">dep</text>
</g>
<!-- 14 -->
<g id="node15" class="node">
<title>14</title>
<ellipse fill="none" stroke="black" cx="1222" cy="-18" rx="34.39" ry="18"/>
<text text-anchor="middle" x="1222" y="-14.3" font-family="Times,serif" font-size="14.00">2400</text>
</g>
<!-- 0&#45;&gt;14 -->
<g id="edge14" class="edge">
<title>0&#45;&gt;14</title>
<path fill="none" stroke="black" d="M1074.94,-95.02C1091.55,-88.32 1114.44,-78.69 1134,-69 1153.53,-59.32 1174.79,-47.29 1191.52,-37.45"/>
<polygon fill="black" stroke="black" points="1193.5,-40.35 1200.31,-32.24 1189.93,-34.33 1193.5,-40.35"/>
<text text-anchor="middle" x="1175.5" y="-57.8" font-family="Times,serif" font-size="14.00">dep</text>
</g>
<!-- 15 -->
<g id="node16" class="node">
<title>15</title>
<ellipse fill="none" stroke="black" cx="1321" cy="-18" rx="46.59" ry="18"/>
<text text-anchor="middle" x="1321" y="-14.3" font-family="Times,serif" font-size="14.00">milhões</text>
</g>
<!-- 0&#45;&gt;15 -->
<g id="edge15" class="edge">
<title>0&#45;&gt;15</title>
<path fill="none" stroke="black" d="M1077.49,-98.71C1105.94,-92.57 1153.22,-81.65 1193,-69 1223.21,-59.4 1256.54,-46.29 1281.61,-35.91"/>
<polygon fill="black" stroke="black" points="1283.26,-39.02 1291.14,-31.93 1280.56,-32.56 1283.26,-39.02"/>
<text text-anchor="middle" x="1249.5" y="-57.8" font-family="Times,serif" font-size="14.00">dep</text>
</g>
<!-- 16 -->
<g id="node17" class="node">
<title>16</title>
<ellipse fill="none" stroke="black" cx="1413" cy="-18" rx="27" ry="18"/>
<text text-anchor="middle" x="1413" y="-14.3" font-family="Times,serif" font-size="14.00">de</text>
</g>
<!-- 0&#45;&gt;16 -->
<g id="edge16" class="edge">
<title>0&#45;&gt;16</title>
<path fill="none" stroke="black" d="M1078.51,-101.36C1134.98,-95.11 1270.7,-76.78 1377,-36 1378.84,-35.29 1380.72,-34.54 1382.6,-33.74"/>
<polygon fill="black" stroke="black" points="1384.19,-36.86 1391.91,-29.6 1381.35,-30.47 1384.19,-36.86"/>
<text text-anchor="middle" x="1330.5" y="-57.8" font-family="Times,serif" font-size="14.00">dep</text>
</g>
<!-- 17 -->
<g id="node18" class="node">
<title>17</title>
<ellipse fill="none" stroke="black" cx="1499" cy="-18" rx="40.89" ry="18"/>
<text text-anchor="middle" x="1499" y="-14.3" font-family="Times,serif" font-size="14.00">contos</text>
</g>
<!-- 0&#45;&gt;17 -->
<g id="edge17" class="edge">
<title>0&#45;&gt;17</title>
<path fill="none" stroke="black" d="M1078.83,-102.61C1131.14,-99.51 1250.21,-90.53 1348,-69 1386.89,-60.44 1429.88,-45.66 1460.01,-34.38"/>
<polygon fill="black" stroke="black" points="1461.6,-37.52 1469.71,-30.7 1459.12,-30.97 1461.6,-37.52"/>
<text text-anchor="middle" x="1416.5" y="-57.8" font-family="Times,serif" font-size="14.00">dep</text>
</g>
<!-- 18 -->
<g id="node19" class="node">
<title>18</title>
<ellipse fill="none" stroke="black" cx="1585" cy="-18" rx="27" ry="18"/>
<text text-anchor="middle" x="1585" y="-14.3" font-family="Times,serif" font-size="14.00">)</text>
</g>
<!-- 0&#45;&gt;18 -->
<g id="edge18" class="edge">
<title>0&#45;&gt;18</title>
<path fill="none" stroke="black" d="M1079.1,-103.26C1141.98,-101.18 1302.43,-93.68 1434,-69 1486.26,-59.2 1499.24,-54.75 1549,-36 1550.84,-35.31 1552.72,-34.55 1554.61,-33.77"/>
<polygon fill="black" stroke="black" points="1556.2,-36.89 1563.93,-29.65 1553.36,-30.49 1556.2,-36.89"/>
<text text-anchor="middle" x="1512.5" y="-57.8" font-family="Times,serif" font-size="14.00">dep</text>
</g>
<!-- 19 -->
<g id="node20" class="node">
<title>19</title>
<ellipse fill="none" stroke="black" cx="1657" cy="-18" rx="27" ry="18"/>
<text text-anchor="middle" x="1657" y="-14.3" font-family="Times,serif" font-size="14.00">,</text>
</g>
<!-- 0&#45;&gt;19 -->
<g id="edge19" class="edge">
<title>0&#45;&gt;19</title>
<path fill="none" stroke="black" d="M1079.05,-104.6C1152.49,-105.66 1361.36,-105.03 1530,-69 1564.52,-61.62 1601.87,-45.9 1627.07,-34.04"/>
<polygon fill="black" stroke="black" points="1628.59,-37.19 1636.1,-29.71 1625.57,-30.88 1628.59,-37.19"/>
<text text-anchor="middle" x="1590.5" y="-57.8" font-family="Times,serif" font-size="14.00">dep</text>
</g>
<!-- 20 -->
<g id="node21" class="node">
<title>20</title>
<ellipse fill="none" stroke="black" cx="1729" cy="-18" rx="27" ry="18"/>
<text text-anchor="middle" x="1729" y="-14.3" font-family="Times,serif" font-size="14.00">diz</text>
</g>
<!-- 0&#45;&gt;20 -->
<g id="edge20" class="edge">
<title>0&#45;&gt;20</title>
<path fill="none" stroke="black" d="M1078.97,-103.4C1175.76,-101.06 1505.28,-91.6 1608,-69 1640.58,-61.83 1675.58,-46.45 1699.51,-34.62"/>
<polygon fill="black" stroke="black" points="1701.38,-37.6 1708.74,-29.97 1698.23,-31.35 1701.38,-37.6"/>
<text text-anchor="middle" x="1666.5" y="-57.8" font-family="Times,serif" font-size="14.00">dep</text>
</g>
<!-- 21 -->
<g id="node22" class="node">
<title>21</title>
<ellipse fill="none" stroke="black" cx="1801" cy="-18" rx="27" ry="18"/>
<text text-anchor="middle" x="1801" y="-14.3" font-family="Times,serif" font-size="14.00">o</text>
</g>
<!-- 0&#45;&gt;21 -->
<g id="edge21" class="edge">
<title>0&#45;&gt;21</title>
<path fill="none" stroke="black" d="M1078.98,-103.69C1184.08,-102.3 1566.06,-95.51 1684,-69 1715.44,-61.93 1749.05,-46.68 1772.14,-34.87"/>
<polygon fill="black" stroke="black" points="1773.81,-37.95 1781.05,-30.21 1770.57,-31.74 1773.81,-37.95"/>
<text text-anchor="middle" x="1744.5" y="-57.8" font-family="Times,serif" font-size="14.00">dep</text>
</g>
<!-- 22 -->
<g id="node23" class="node">
<title>22</title>
<ellipse fill="none" stroke="black" cx="1897" cy="-18" rx="50.89" ry="18"/>
<text text-anchor="middle" x="1897" y="-14.3" font-family="Times,serif" font-size="14.00">relatório</text>
</g>
<!-- 0&#45;&gt;22 -->
<g id="edge22" class="edge">
<title>0&#45;&gt;22</title>
<path fill="none" stroke="black" d="M1079.14,-103.77C1192.42,-102.62 1627.8,-96.48 1762,-69 1795.58,-62.12 1831.93,-48.26 1858.44,-36.88"/>
<polygon fill="black" stroke="black" points="1859.98,-40.02 1867.74,-32.81 1857.18,-33.61 1859.98,-40.02"/>
<text text-anchor="middle" x="1825.5" y="-57.8" font-family="Times,serif" font-size="14.00">dep</text>
</g>
<!-- 23 -->
<g id="node24" class="node">
<title>23</title>
<ellipse fill="none" stroke="black" cx="1993" cy="-18" rx="27" ry="18"/>
<text text-anchor="middle" x="1993" y="-14.3" font-family="Times,serif" font-size="14.00">.</text>
</g>
<!-- 0&#45;&gt;23 -->
<g id="edge23" class="edge">
<title>0&#45;&gt;23</title>
<path fill="none" stroke="black" d="M1079.27,-103.66C1200.51,-102.02 1691.25,-93.96 1843,-69 1895.05,-60.44 1907.66,-54.65 1957,-36 1958.84,-35.3 1960.72,-34.55 1962.6,-33.76"/>
<polygon fill="black" stroke="black" points="1964.19,-36.89 1971.92,-29.64 1961.36,-30.49 1964.19,-36.89"/>
<text text-anchor="middle" x="1920.5" y="-57.8" font-family="Times,serif" font-size="14.00">dep</text>
</g>
</g>
</svg>
