<?xml version="1.0" encoding="UTF-8" standalone="no"?>
<!DOCTYPE svg PUBLIC "-//W3C//DTD SVG 1.1//EN"
 "http://www.w3.org/Graphics/SVG/1.1/DTD/svg11.dtd">
<!-- Generated by graphviz version 2.42.4 (0)
 -->
<!-- Pages: 1 -->
<svg width="1189pt" height="131pt"
 viewBox="0.00 0.00 1189.00 131.00" xmlns="http://www.w3.org/2000/svg" xmlns:xlink="http://www.w3.org/1999/xlink">
<g id="graph0" class="graph" transform="scale(1 1) rotate(0) translate(4 127)">
<polygon fill="white" stroke="transparent" points="-4,4 -4,-127 1185,-127 1185,4 -4,4"/>
<!-- 0 -->
<g id="node1" class="node">
<title>0</title>
<ellipse fill="none" stroke="black" cx="612" cy="-105" rx="27" ry="18"/>
<text text-anchor="middle" x="612" y="-101.3" font-family="Times,serif" font-size="14.00">Em</text>
</g>
<!-- 1 -->
<g id="node2" class="node">
<title>1</title>
<ellipse fill="none" stroke="black" cx="27" cy="-18" rx="27" ry="18"/>
<text text-anchor="middle" x="27" y="-14.3" font-family="Times,serif" font-size="14.00">o</text>
</g>
<!-- 0&#45;&gt;1 -->
<g id="edge1" class="edge">
<title>0&#45;&gt;1</title>
<path fill="none" stroke="black" d="M585.01,-103.95C515.42,-103.38 324.49,-98.96 169,-69 120.55,-59.67 108.98,-53.91 63,-36 61.16,-35.28 59.29,-34.52 57.41,-33.72"/>
<polygon fill="black" stroke="black" points="58.66,-30.45 48.11,-29.57 55.81,-36.84 58.66,-30.45"/>
<text text-anchor="middle" x="182.5" y="-57.8" font-family="Times,serif" font-size="14.00">dep</text>
</g>
<!-- 2 -->
<g id="node3" class="node">
<title>2</title>
<ellipse fill="none" stroke="black" cx="110" cy="-18" rx="38.19" ry="18"/>
<text text-anchor="middle" x="110" y="-14.3" font-family="Times,serif" font-size="14.00">Brasil</text>
</g>
<!-- 0&#45;&gt;2 -->
<g id="edge2" class="edge">
<title>0&#45;&gt;2</title>
<path fill="none" stroke="black" d="M584.93,-103.59C524.38,-102.2 373.67,-96.06 251,-69 214.47,-60.94 174.42,-46.13 146.37,-34.71"/>
<polygon fill="black" stroke="black" points="147.55,-31.41 136.97,-30.82 144.88,-37.88 147.55,-31.41"/>
<text text-anchor="middle" x="264.5" y="-57.8" font-family="Times,serif" font-size="14.00">dep</text>
</g>
<!-- 3 -->
<g id="node4" class="node">
<title>3</title>
<ellipse fill="none" stroke="black" cx="193" cy="-18" rx="27" ry="18"/>
<text text-anchor="middle" x="193" y="-14.3" font-family="Times,serif" font-size="14.00">,</text>
</g>
<!-- 0&#45;&gt;3 -->
<g id="edge3" class="edge">
<title>0&#45;&gt;3</title>
<path fill="none" stroke="black" d="M585.05,-101.86C536.34,-97.7 430.6,-87.27 343,-69 291.36,-58.23 278.34,-54.65 229,-36 227.16,-35.3 225.28,-34.55 223.4,-33.76"/>
<polygon fill="black" stroke="black" points="224.64,-30.49 214.08,-29.64 221.81,-36.89 224.64,-30.49"/>
<text text-anchor="middle" x="356.5" y="-57.8" font-family="Times,serif" font-size="14.00">dep</text>
</g>
<!-- 4 -->
<g id="node5" class="node">
<title>4</title>
<ellipse fill="none" stroke="black" cx="269" cy="-18" rx="31.4" ry="18"/>
<text text-anchor="middle" x="269" y="-14.3" font-family="Times,serif" font-size="14.00">essa</text>
</g>
<!-- 0&#45;&gt;4 -->
<g id="edge4" class="edge">
<title>0&#45;&gt;4</title>
<path fill="none" stroke="black" d="M585.88,-100.28C532.68,-92.25 408.38,-71.1 309,-36 306.78,-35.22 304.5,-34.37 302.22,-33.49"/>
<polygon fill="black" stroke="black" points="303.51,-30.23 292.92,-29.74 300.89,-36.72 303.51,-30.23"/>
<text text-anchor="middle" x="429.5" y="-57.8" font-family="Times,serif" font-size="14.00">dep</text>
</g>
<!-- 5 -->
<g id="node6" class="node">
<title>5</title>
<ellipse fill="none" stroke="black" cx="362" cy="-18" rx="44.39" ry="18"/>
<text text-anchor="middle" x="362" y="-14.3" font-family="Times,serif" font-size="14.00">atitude</text>
</g>
<!-- 0&#45;&gt;5 -->
<g id="edge5" class="edge">
<title>0&#45;&gt;5</title>
<path fill="none" stroke="black" d="M587.64,-97.04C564.27,-90.26 528.05,-79.46 497,-69 464.94,-58.19 429.03,-44.83 402.32,-34.64"/>
<polygon fill="black" stroke="black" points="403.5,-31.35 392.91,-31.04 401,-37.89 403.5,-31.35"/>
<text text-anchor="middle" x="510.5" y="-57.8" font-family="Times,serif" font-size="14.00">dep</text>
</g>
<!-- 6 -->
<g id="node7" class="node">
<title>6</title>
<ellipse fill="none" stroke="black" cx="461" cy="-18" rx="36.29" ry="18"/>
<text text-anchor="middle" x="461" y="-14.3" font-family="Times,serif" font-size="14.00">ainda</text>
</g>
<!-- 0&#45;&gt;6 -->
<g id="edge6" class="edge">
<title>0&#45;&gt;6</title>
<path fill="none" stroke="black" d="M591.95,-92.71C566.65,-78.47 522.83,-53.81 492.91,-36.96"/>
<polygon fill="black" stroke="black" points="494.54,-33.86 484.11,-32.01 491.1,-39.96 494.54,-33.86"/>
<text text-anchor="middle" x="559.5" y="-57.8" font-family="Times,serif" font-size="14.00">dep</text>
</g>
<!-- 7 -->
<g id="node8" class="node">
<title>7</title>
<ellipse fill="none" stroke="black" cx="565" cy="-18" rx="50.09" ry="18"/>
<text text-anchor="middle" x="565" y="-14.3" font-family="Times,serif" font-size="14.00">depende</text>
</g>
<!-- 0&#45;&gt;7 -->
<g id="edge7" class="edge">
<title>0&#45;&gt;7</title>
<path fill="none" stroke="black" d="M602.94,-87.61C596.26,-75.54 587.05,-58.88 579.37,-45"/>
<polygon fill="black" stroke="black" points="582.26,-42.98 574.36,-35.92 576.13,-46.37 582.26,-42.98"/>
<text text-anchor="middle" x="605.5" y="-57.8" font-family="Times,serif" font-size="14.00">dep</text>
</g>
<!-- 8 -->
<g id="node9" class="node">
<title>8</title>
<ellipse fill="none" stroke="black" cx="660" cy="-18" rx="27" ry="18"/>
<text text-anchor="middle" x="660" y="-14.3" font-family="Times,serif" font-size="14.00">de</text>
</g>
<!-- 0&#45;&gt;8 -->
<g id="edge8" class="edge">
<title>0&#45;&gt;8</title>
<path fill="none" stroke="black" d="M621.03,-88.01C628.02,-75.63 637.84,-58.23 645.88,-44.01"/>
<polygon fill="black" stroke="black" points="648.98,-45.63 650.85,-35.21 642.88,-42.19 648.98,-45.63"/>
<text text-anchor="middle" x="652.5" y="-57.8" font-family="Times,serif" font-size="14.00">dep</text>
</g>
<!-- 9 -->
<g id="node10" class="node">
<title>9</title>
<ellipse fill="none" stroke="black" cx="732" cy="-18" rx="27" ry="18"/>
<text text-anchor="middle" x="732" y="-14.3" font-family="Times,serif" font-size="14.00">a</text>
</g>
<!-- 0&#45;&gt;9 -->
<g id="edge9" class="edge">
<title>0&#45;&gt;9</title>
<path fill="none" stroke="black" d="M632.02,-92.82C643.39,-86.25 657.76,-77.57 670,-69 683.13,-59.81 697.07,-48.7 708.41,-39.28"/>
<polygon fill="black" stroke="black" points="710.74,-41.89 716.15,-32.78 706.24,-36.53 710.74,-41.89"/>
<text text-anchor="middle" x="703.5" y="-57.8" font-family="Times,serif" font-size="14.00">dep</text>
</g>
<!-- 10 -->
<g id="node11" class="node">
<title>10</title>
<ellipse fill="none" stroke="black" cx="830" cy="-18" rx="53.09" ry="18"/>
<text text-anchor="middle" x="830" y="-14.3" font-family="Times,serif" font-size="14.00">iniciativa</text>
</g>
<!-- 0&#45;&gt;10 -->
<g id="edge10" class="edge">
<title>0&#45;&gt;10</title>
<path fill="none" stroke="black" d="M636.53,-97.04C658.82,-90.49 692.47,-80.08 721,-69 745.07,-59.65 771.39,-47.63 792.14,-37.72"/>
<polygon fill="black" stroke="black" points="793.77,-40.82 801.26,-33.33 790.73,-34.51 793.77,-40.82"/>
<text text-anchor="middle" x="768.5" y="-57.8" font-family="Times,serif" font-size="14.00">dep</text>
</g>
<!-- 11 -->
<g id="node12" class="node">
<title>11</title>
<ellipse fill="none" stroke="black" cx="928" cy="-18" rx="27" ry="18"/>
<text text-anchor="middle" x="928" y="-14.3" font-family="Times,serif" font-size="14.00">de</text>
</g>
<!-- 0&#45;&gt;11 -->
<g id="edge11" class="edge">
<title>0&#45;&gt;11</title>
<path fill="none" stroke="black" d="M638.18,-100.04C688.58,-91.9 802.04,-71.05 892,-36 893.84,-35.28 895.71,-34.52 897.59,-33.72"/>
<polygon fill="black" stroke="black" points="899.19,-36.84 906.89,-29.57 896.34,-30.45 899.19,-36.84"/>
<text text-anchor="middle" x="854.5" y="-57.8" font-family="Times,serif" font-size="14.00">dep</text>
</g>
<!-- 12 -->
<g id="node13" class="node">
<title>12</title>
<ellipse fill="none" stroke="black" cx="1005" cy="-18" rx="32.49" ry="18"/>
<text text-anchor="middle" x="1005" y="-14.3" font-family="Times,serif" font-size="14.00">cada</text>
</g>
<!-- 0&#45;&gt;12 -->
<g id="edge12" class="edge">
<title>0&#45;&gt;12</title>
<path fill="none" stroke="black" d="M638.92,-102.25C686.51,-98.75 788.37,-89.39 872,-69 906.79,-60.52 944.89,-45.58 971.36,-34.23"/>
<polygon fill="black" stroke="black" points="972.79,-37.43 980.56,-30.23 970,-31.01 972.79,-37.43"/>
<text text-anchor="middle" x="934.5" y="-57.8" font-family="Times,serif" font-size="14.00">dep</text>
</g>
<!-- 13 -->
<g id="node14" class="node">
<title>13</title>
<ellipse fill="none" stroke="black" cx="1082" cy="-18" rx="27" ry="18"/>
<text text-anchor="middle" x="1082" y="-14.3" font-family="Times,serif" font-size="14.00">um</text>
</g>
<!-- 0&#45;&gt;13 -->
<g id="edge13" class="edge">
<title>0&#45;&gt;13</title>
<path fill="none" stroke="black" d="M639.23,-103.36C697.37,-101.53 837.63,-94.59 952,-69 987.36,-61.09 1025.87,-45.31 1051.72,-33.58"/>
<polygon fill="black" stroke="black" points="1053.37,-36.68 1060.98,-29.31 1050.43,-30.32 1053.37,-36.68"/>
<text text-anchor="middle" x="1013.5" y="-57.8" font-family="Times,serif" font-size="14.00">dep</text>
</g>
<!-- 14 -->
<g id="node15" class="node">
<title>14</title>
<ellipse fill="none" stroke="black" cx="1154" cy="-18" rx="27" ry="18"/>
<text text-anchor="middle" x="1154" y="-14.3" font-family="Times,serif" font-size="14.00">.</text>
</g>
<!-- 0&#45;&gt;14 -->
<g id="edge14" class="edge">
<title>0&#45;&gt;14</title>
<path fill="none" stroke="black" d="M639.36,-104.33C706.81,-104.59 886.13,-101.84 1031,-69 1064.14,-61.49 1099.91,-46.04 1124.28,-34.3"/>
<polygon fill="black" stroke="black" points="1125.92,-37.39 1133.35,-29.84 1122.83,-31.11 1125.92,-37.39"/>
<text text-anchor="middle" x="1090.5" y="-57.8" font-family="Times,serif" font-size="14.00">dep</text>
</g>
</g>
</svg>
