<?xml version="1.0" encoding="UTF-8" standalone="no"?>
<!DOCTYPE svg PUBLIC "-//W3C//DTD SVG 1.1//EN"
 "http://www.w3.org/Graphics/SVG/1.1/DTD/svg11.dtd">
<!-- Generated by graphviz version 2.42.4 (0)
 -->
<!-- Pages: 1 -->
<svg width="687pt" height="131pt"
 viewBox="0.00 0.00 687.25 131.00" xmlns="http://www.w3.org/2000/svg" xmlns:xlink="http://www.w3.org/1999/xlink">
<g id="graph0" class="graph" transform="scale(1 1) rotate(0) translate(4 127)">
<polygon fill="white" stroke="transparent" points="-4,4 -4,-127 683.25,-127 683.25,4 -4,4"/>
<!-- 0 -->
<g id="node1" class="node">
<title>0</title>
<ellipse fill="none" stroke="black" cx="410.25" cy="-105" rx="46.29" ry="18"/>
<text text-anchor="middle" x="410.25" y="-101.3" font-family="Times,serif" font-size="14.00">Juristas</text>
</g>
<!-- 1 -->
<g id="node2" class="node">
<title>1</title>
<ellipse fill="none" stroke="black" cx="55.25" cy="-18" rx="55.49" ry="18"/>
<text text-anchor="middle" x="55.25" y="-14.3" font-family="Times,serif" font-size="14.00">franceses</text>
</g>
<!-- 0&#45;&gt;1 -->
<g id="edge1" class="edge">
<title>0&#45;&gt;1</title>
<path fill="none" stroke="black" d="M371.23,-95.22C315.46,-82.59 209.81,-58.34 120.25,-36 115.86,-34.91 111.32,-33.75 106.76,-32.59"/>
<polygon fill="black" stroke="black" points="107.38,-29.13 96.82,-30.02 105.63,-35.91 107.38,-29.13"/>
<text text-anchor="middle" x="268.75" y="-57.8" font-family="Times,serif" font-size="14.00">dep</text>
</g>
<!-- 2 -->
<g id="node3" class="node">
<title>2</title>
<ellipse fill="none" stroke="black" cx="195.25" cy="-18" rx="66.09" ry="18"/>
<text text-anchor="middle" x="195.25" y="-14.3" font-family="Times,serif" font-size="14.00">apreensivos</text>
</g>
<!-- 0&#45;&gt;2 -->
<g id="edge2" class="edge">
<title>0&#45;&gt;2</title>
<path fill="none" stroke="black" d="M378.98,-91.64C342.57,-77.24 282.12,-53.34 240.56,-36.91"/>
<polygon fill="black" stroke="black" points="241.8,-33.64 231.21,-33.22 239.22,-40.15 241.8,-33.64"/>
<text text-anchor="middle" x="329.75" y="-57.8" font-family="Times,serif" font-size="14.00">dep</text>
</g>
<!-- 3 -->
<g id="node4" class="node">
<title>3</title>
<ellipse fill="none" stroke="black" cx="309.25" cy="-18" rx="29.8" ry="18"/>
<text text-anchor="middle" x="309.25" y="-14.3" font-family="Times,serif" font-size="14.00">com</text>
</g>
<!-- 0&#45;&gt;3 -->
<g id="edge3" class="edge">
<title>0&#45;&gt;3</title>
<path fill="none" stroke="black" d="M391.72,-88.41C375.42,-74.69 351.58,-54.63 333.71,-39.59"/>
<polygon fill="black" stroke="black" points="335.88,-36.84 325.98,-33.08 331.37,-42.2 335.88,-36.84"/>
<text text-anchor="middle" x="379.75" y="-57.8" font-family="Times,serif" font-size="14.00">dep</text>
</g>
<!-- 4 -->
<g id="node5" class="node">
<title>4</title>
<ellipse fill="none" stroke="black" cx="410.25" cy="-18" rx="52.79" ry="18"/>
<text text-anchor="middle" x="410.25" y="-14.3" font-family="Times,serif" font-size="14.00">mudança</text>
</g>
<!-- 0&#45;&gt;4 -->
<g id="edge4" class="edge">
<title>0&#45;&gt;4</title>
<path fill="none" stroke="black" d="M410.25,-86.8C410.25,-75.16 410.25,-59.55 410.25,-46.24"/>
<polygon fill="black" stroke="black" points="413.75,-46.18 410.25,-36.18 406.75,-46.18 413.75,-46.18"/>
<text text-anchor="middle" x="423.75" y="-57.8" font-family="Times,serif" font-size="14.00">dep</text>
</g>
<!-- 5 -->
<g id="node6" class="node">
<title>5</title>
<ellipse fill="none" stroke="black" cx="508.25" cy="-18" rx="27" ry="18"/>
<text text-anchor="middle" x="508.25" y="-14.3" font-family="Times,serif" font-size="14.00">de</text>
</g>
<!-- 0&#45;&gt;5 -->
<g id="edge5" class="edge">
<title>0&#45;&gt;5</title>
<path fill="none" stroke="black" d="M428.22,-88.41C443.99,-74.74 467.03,-54.75 484.35,-39.73"/>
<polygon fill="black" stroke="black" points="487.07,-42 492.33,-32.8 482.48,-36.71 487.07,-42"/>
<text text-anchor="middle" x="478.75" y="-57.8" font-family="Times,serif" font-size="14.00">dep</text>
</g>
<!-- 6 -->
<g id="node7" class="node">
<title>6</title>
<ellipse fill="none" stroke="black" cx="580.25" cy="-18" rx="27" ry="18"/>
<text text-anchor="middle" x="580.25" y="-14.3" font-family="Times,serif" font-size="14.00">a</text>
</g>
<!-- 0&#45;&gt;6 -->
<g id="edge6" class="edge">
<title>0&#45;&gt;6</title>
<path fill="none" stroke="black" d="M442.61,-92.16C458.95,-85.85 478.93,-77.62 496.25,-69 515.68,-59.33 536.66,-46.84 552.79,-36.77"/>
<polygon fill="black" stroke="black" points="555.1,-39.45 561.68,-31.15 551.36,-33.53 555.1,-39.45"/>
<text text-anchor="middle" x="536.75" y="-57.8" font-family="Times,serif" font-size="14.00">dep</text>
</g>
<!-- 7 -->
<g id="node8" class="node">
<title>7</title>
<ellipse fill="none" stroke="black" cx="652.25" cy="-18" rx="27" ry="18"/>
<text text-anchor="middle" x="652.25" y="-14.3" font-family="Times,serif" font-size="14.00">lei</text>
</g>
<!-- 0&#45;&gt;7 -->
<g id="edge7" class="edge">
<title>0&#45;&gt;7</title>
<path fill="none" stroke="black" d="M451.35,-96.67C480.57,-90.82 520.47,-81.52 554.25,-69 578.56,-59.98 604.65,-46.46 623.8,-35.76"/>
<polygon fill="black" stroke="black" points="625.63,-38.74 632.6,-30.76 622.17,-32.65 625.63,-38.74"/>
<text text-anchor="middle" x="601.75" y="-57.8" font-family="Times,serif" font-size="14.00">dep</text>
</g>
</g>
</svg>
