<?xml version="1.0" encoding="UTF-8" standalone="no"?>
<!DOCTYPE svg PUBLIC "-//W3C//DTD SVG 1.1//EN"
 "http://www.w3.org/Graphics/SVG/1.1/DTD/svg11.dtd">
<!-- Generated by graphviz version 2.42.4 (0)
 -->
<!-- Pages: 1 -->
<svg width="3464pt" height="131pt"
 viewBox="0.00 0.00 3463.85 131.00" xmlns="http://www.w3.org/2000/svg" xmlns:xlink="http://www.w3.org/1999/xlink">
<g id="graph0" class="graph" transform="scale(1 1) rotate(0) translate(4 127)">
<polygon fill="white" stroke="transparent" points="-4,4 -4,-127 3459.85,-127 3459.85,4 -4,4"/>
<!-- 0 -->
<g id="node1" class="node">
<title>0</title>
<ellipse fill="none" stroke="black" cx="1665.85" cy="-105" rx="52.79" ry="18"/>
<text text-anchor="middle" x="1665.85" y="-101.3" font-family="Times,serif" font-size="14.00">Viajamos</text>
</g>
<!-- 1 -->
<g id="node2" class="node">
<title>1</title>
<ellipse fill="none" stroke="black" cx="31.85" cy="-18" rx="31.7" ry="18"/>
<text text-anchor="middle" x="31.85" y="-14.3" font-family="Times,serif" font-size="14.00">para</text>
</g>
<!-- 0&#45;&gt;1 -->
<g id="edge1" class="edge">
<title>0&#45;&gt;1</title>
<path fill="none" stroke="black" d="M1612.93,-103.84C1362.64,-102.96 303.59,-97.56 158.85,-69 125.04,-62.33 88.66,-47.1 63.54,-35.19"/>
<polygon fill="black" stroke="black" points="65.02,-32.02 54.49,-30.82 61.97,-38.32 65.02,-32.02"/>
<text text-anchor="middle" x="172.35" y="-57.8" font-family="Times,serif" font-size="14.00">dep</text>
</g>
<!-- 2 -->
<g id="node3" class="node">
<title>2</title>
<ellipse fill="none" stroke="black" cx="114.85" cy="-18" rx="33.29" ry="18"/>
<text text-anchor="middle" x="114.85" y="-14.3" font-family="Times,serif" font-size="14.00">fugir</text>
</g>
<!-- 0&#45;&gt;2 -->
<g id="edge2" class="edge">
<title>0&#45;&gt;2</title>
<path fill="none" stroke="black" d="M1613.3,-103.83C1371.8,-102.91 374.26,-97.41 237.85,-69 205.57,-62.28 170.97,-47.46 146.72,-35.69"/>
<polygon fill="black" stroke="black" points="148.15,-32.5 137.63,-31.19 145.04,-38.77 148.15,-32.5"/>
<text text-anchor="middle" x="251.35" y="-57.8" font-family="Times,serif" font-size="14.00">dep</text>
</g>
<!-- 3 -->
<g id="node4" class="node">
<title>3</title>
<ellipse fill="none" stroke="black" cx="192.85" cy="-18" rx="27" ry="18"/>
<text text-anchor="middle" x="192.85" y="-14.3" font-family="Times,serif" font-size="14.00">de</text>
</g>
<!-- 0&#45;&gt;3 -->
<g id="edge3" class="edge">
<title>0&#45;&gt;3</title>
<path fill="none" stroke="black" d="M1613.18,-103.65C1380,-101.99 446.43,-93.8 317.85,-69 283.81,-62.44 247.26,-46.7 222.53,-34.61"/>
<polygon fill="black" stroke="black" points="223.85,-31.36 213.34,-30.03 220.72,-37.62 223.85,-31.36"/>
<text text-anchor="middle" x="331.35" y="-57.8" font-family="Times,serif" font-size="14.00">dep</text>
</g>
<!-- 4 -->
<g id="node5" class="node">
<title>4</title>
<ellipse fill="none" stroke="black" cx="264.85" cy="-18" rx="27" ry="18"/>
<text text-anchor="middle" x="264.85" y="-14.3" font-family="Times,serif" font-size="14.00">a</text>
</g>
<!-- 0&#45;&gt;4 -->
<g id="edge4" class="edge">
<title>0&#45;&gt;4</title>
<path fill="none" stroke="black" d="M1613.03,-104.41C1405.55,-105.75 646.11,-107.82 408.85,-69 359.32,-60.9 347.66,-54.1 300.85,-36 299.01,-35.29 297.14,-34.53 295.25,-33.73"/>
<polygon fill="black" stroke="black" points="296.5,-30.46 285.95,-29.59 293.66,-36.85 296.5,-30.46"/>
<text text-anchor="middle" x="422.35" y="-57.8" font-family="Times,serif" font-size="14.00">dep</text>
</g>
<!-- 5 -->
<g id="node6" class="node">
<title>5</title>
<ellipse fill="none" stroke="black" cx="346.85" cy="-18" rx="37.09" ry="18"/>
<text text-anchor="middle" x="346.85" y="-14.3" font-family="Times,serif" font-size="14.00">nossa</text>
</g>
<!-- 0&#45;&gt;5 -->
<g id="edge5" class="edge">
<title>0&#45;&gt;5</title>
<path fill="none" stroke="black" d="M1613.14,-104.32C1415.37,-105.21 717.63,-105.63 498.85,-69 458.05,-62.17 413.3,-46.37 382.99,-34.35"/>
<polygon fill="black" stroke="black" points="384.26,-31.09 373.67,-30.59 381.64,-37.58 384.26,-31.09"/>
<text text-anchor="middle" x="512.35" y="-57.8" font-family="Times,serif" font-size="14.00">dep</text>
</g>
<!-- 6 -->
<g id="node7" class="node">
<title>6</title>
<ellipse fill="none" stroke="black" cx="439.85" cy="-18" rx="38.19" ry="18"/>
<text text-anchor="middle" x="439.85" y="-14.3" font-family="Times,serif" font-size="14.00">rotina</text>
</g>
<!-- 0&#45;&gt;6 -->
<g id="edge6" class="edge">
<title>0&#45;&gt;6</title>
<path fill="none" stroke="black" d="M1613,-104.26C1424.84,-104.87 788.17,-104.24 587.85,-69 548.61,-62.1 505.67,-46.65 476.2,-34.74"/>
<polygon fill="black" stroke="black" points="477.33,-31.42 466.75,-30.86 474.66,-37.9 477.33,-31.42"/>
<text text-anchor="middle" x="601.35" y="-57.8" font-family="Times,serif" font-size="14.00">dep</text>
</g>
<!-- 7 -->
<g id="node8" class="node">
<title>7</title>
<ellipse fill="none" stroke="black" cx="525.85" cy="-18" rx="29.8" ry="18"/>
<text text-anchor="middle" x="525.85" y="-14.3" font-family="Times,serif" font-size="14.00">mas</text>
</g>
<!-- 0&#45;&gt;7 -->
<g id="edge7" class="edge">
<title>0&#45;&gt;7</title>
<path fill="none" stroke="black" d="M1613.31,-103.64C1437.57,-102.19 871.2,-95.52 690.85,-69 633.57,-60.58 619.54,-54.96 564.85,-36 562.61,-35.22 560.32,-34.38 558.03,-33.49"/>
<polygon fill="black" stroke="black" points="559.29,-30.22 548.71,-29.67 556.64,-36.7 559.29,-30.22"/>
<text text-anchor="middle" x="704.35" y="-57.8" font-family="Times,serif" font-size="14.00">dep</text>
</g>
<!-- 8 -->
<g id="node9" class="node">
<title>8</title>
<ellipse fill="none" stroke="black" cx="613.85" cy="-18" rx="40.09" ry="18"/>
<text text-anchor="middle" x="613.85" y="-14.3" font-family="Times,serif" font-size="14.00">somos</text>
</g>
<!-- 0&#45;&gt;8 -->
<g id="edge8" class="edge">
<title>0&#45;&gt;8</title>
<path fill="none" stroke="black" d="M1613.35,-103.36C1449.82,-101.14 950.94,-92.57 790.85,-69 742.62,-61.9 688.98,-45.49 653.52,-33.4"/>
<polygon fill="black" stroke="black" points="654.62,-30.07 644.02,-30.11 652.33,-36.69 654.62,-30.07"/>
<text text-anchor="middle" x="804.35" y="-57.8" font-family="Times,serif" font-size="14.00">dep</text>
</g>
<!-- 9 -->
<g id="node10" class="node">
<title>9</title>
<ellipse fill="none" stroke="black" cx="728.85" cy="-18" rx="56.59" ry="18"/>
<text text-anchor="middle" x="728.85" y="-14.3" font-family="Times,serif" font-size="14.00">seduzidos</text>
</g>
<!-- 0&#45;&gt;9 -->
<g id="edge9" class="edge">
<title>0&#45;&gt;9</title>
<path fill="none" stroke="black" d="M1613.24,-103.63C1460.19,-102.23 1017,-95.91 874.85,-69 838.54,-62.13 798.98,-48.15 770.21,-36.72"/>
<polygon fill="black" stroke="black" points="771.47,-33.45 760.89,-32.95 768.85,-39.94 771.47,-33.45"/>
<text text-anchor="middle" x="888.35" y="-57.8" font-family="Times,serif" font-size="14.00">dep</text>
</g>
<!-- 10 -->
<g id="node11" class="node">
<title>10</title>
<ellipse fill="none" stroke="black" cx="830.85" cy="-18" rx="27" ry="18"/>
<text text-anchor="middle" x="830.85" y="-14.3" font-family="Times,serif" font-size="14.00">por</text>
</g>
<!-- 0&#45;&gt;10 -->
<g id="edge10" class="edge">
<title>0&#45;&gt;10</title>
<path fill="none" stroke="black" d="M1613.17,-103.54C1470.66,-101.96 1079.77,-95.29 953.85,-69 920.58,-62.05 884.84,-46.53 860.5,-34.6"/>
<polygon fill="black" stroke="black" points="861.96,-31.42 851.45,-30.08 858.82,-37.68 861.96,-31.42"/>
<text text-anchor="middle" x="967.35" y="-57.8" font-family="Times,serif" font-size="14.00">dep</text>
</g>
<!-- 11 -->
<g id="node12" class="node">
<title>11</title>
<ellipse fill="none" stroke="black" cx="902.85" cy="-18" rx="27" ry="18"/>
<text text-anchor="middle" x="902.85" y="-14.3" font-family="Times,serif" font-size="14.00">a</text>
</g>
<!-- 0&#45;&gt;11 -->
<g id="edge11" class="edge">
<title>0&#45;&gt;11</title>
<path fill="none" stroke="black" d="M1613.14,-102.86C1482.72,-99.76 1147.52,-89.95 1037.85,-69 1000.68,-61.9 960.25,-45.71 933.42,-33.66"/>
<polygon fill="black" stroke="black" points="934.74,-30.42 924.19,-29.44 931.82,-36.78 934.74,-30.42"/>
<text text-anchor="middle" x="1051.35" y="-57.8" font-family="Times,serif" font-size="14.00">dep</text>
</g>
<!-- 12 -->
<g id="node13" class="node">
<title>12</title>
<ellipse fill="none" stroke="black" cx="985.85" cy="-18" rx="38.19" ry="18"/>
<text text-anchor="middle" x="985.85" y="-14.3" font-family="Times,serif" font-size="14.00">rotina</text>
</g>
<!-- 0&#45;&gt;12 -->
<g id="edge12" class="edge">
<title>0&#45;&gt;12</title>
<path fill="none" stroke="black" d="M1613.6,-102.69C1495.27,-99.41 1209.78,-89.55 1115.85,-69 1082.54,-61.71 1046.49,-47.29 1020.82,-35.8"/>
<polygon fill="black" stroke="black" points="1022.07,-32.52 1011.52,-31.56 1019.17,-38.89 1022.07,-32.52"/>
<text text-anchor="middle" x="1129.35" y="-57.8" font-family="Times,serif" font-size="14.00">dep</text>
</g>
<!-- 13 -->
<g id="node14" class="node">
<title>13</title>
<ellipse fill="none" stroke="black" cx="1068.85" cy="-18" rx="27" ry="18"/>
<text text-anchor="middle" x="1068.85" y="-14.3" font-family="Times,serif" font-size="14.00">de</text>
</g>
<!-- 0&#45;&gt;13 -->
<g id="edge13" class="edge">
<title>0&#45;&gt;13</title>
<path fill="none" stroke="black" d="M1613.76,-102.05C1507.91,-97.78 1271,-86.54 1191.85,-69 1158.67,-61.65 1122.91,-46.18 1098.55,-34.38"/>
<polygon fill="black" stroke="black" points="1100,-31.2 1089.48,-29.91 1096.9,-37.47 1100,-31.2"/>
<text text-anchor="middle" x="1205.35" y="-57.8" font-family="Times,serif" font-size="14.00">dep</text>
</g>
<!-- 14 -->
<g id="node15" class="node">
<title>14</title>
<ellipse fill="none" stroke="black" cx="1140.85" cy="-18" rx="27" ry="18"/>
<text text-anchor="middle" x="1140.85" y="-14.3" font-family="Times,serif" font-size="14.00">os</text>
</g>
<!-- 0&#45;&gt;14 -->
<g id="edge14" class="edge">
<title>0&#45;&gt;14</title>
<path fill="none" stroke="black" d="M1613.38,-103.08C1538.13,-100.9 1395.53,-93.58 1276.85,-69 1231.02,-59.51 1220.31,-53.36 1176.85,-36 1175.02,-35.27 1173.15,-34.49 1171.27,-33.68"/>
<polygon fill="black" stroke="black" points="1172.53,-30.41 1161.98,-29.51 1169.66,-36.8 1172.53,-30.41"/>
<text text-anchor="middle" x="1290.35" y="-57.8" font-family="Times,serif" font-size="14.00">dep</text>
</g>
<!-- 15 -->
<g id="node16" class="node">
<title>15</title>
<ellipse fill="none" stroke="black" cx="1225.85" cy="-18" rx="40.09" ry="18"/>
<text text-anchor="middle" x="1225.85" y="-14.3" font-family="Times,serif" font-size="14.00">outros</text>
</g>
<!-- 0&#45;&gt;15 -->
<g id="edge15" class="edge">
<title>0&#45;&gt;15</title>
<path fill="none" stroke="black" d="M1613.78,-102.3C1551.24,-99.31 1443.54,-91.15 1353.85,-69 1321.81,-61.09 1287.02,-47.13 1261.81,-35.97"/>
<polygon fill="black" stroke="black" points="1263.2,-32.75 1252.64,-31.84 1260.33,-39.14 1263.2,-32.75"/>
<text text-anchor="middle" x="1367.35" y="-57.8" font-family="Times,serif" font-size="14.00">dep</text>
</g>
<!-- 16 -->
<g id="node17" class="node">
<title>16</title>
<ellipse fill="none" stroke="black" cx="1310.85" cy="-18" rx="27" ry="18"/>
<text text-anchor="middle" x="1310.85" y="-14.3" font-family="Times,serif" font-size="14.00">e</text>
</g>
<!-- 0&#45;&gt;16 -->
<g id="edge16" class="edge">
<title>0&#45;&gt;16</title>
<path fill="none" stroke="black" d="M1614.75,-100.18C1565.84,-95.66 1490.33,-86.45 1426.85,-69 1396.5,-60.66 1363.73,-45.96 1340.78,-34.65"/>
<polygon fill="black" stroke="black" points="1342.1,-31.39 1331.59,-30.04 1338.96,-37.65 1342.1,-31.39"/>
<text text-anchor="middle" x="1440.35" y="-57.8" font-family="Times,serif" font-size="14.00">dep</text>
</g>
<!-- 17 -->
<g id="node18" class="node">
<title>17</title>
<ellipse fill="none" stroke="black" cx="1382.85" cy="-18" rx="27" ry="18"/>
<text text-anchor="middle" x="1382.85" y="-14.3" font-family="Times,serif" font-size="14.00">ter</text>
</g>
<!-- 0&#45;&gt;17 -->
<g id="edge17" class="edge">
<title>0&#45;&gt;17</title>
<path fill="none" stroke="black" d="M1618.59,-96.77C1584.35,-90.92 1537.18,-81.57 1496.85,-69 1460.91,-57.8 1453.21,-51.37 1418.85,-36 1417.05,-35.2 1415.21,-34.36 1413.35,-33.51"/>
<polygon fill="black" stroke="black" points="1414.64,-30.25 1404.1,-29.21 1411.7,-36.6 1414.64,-30.25"/>
<text text-anchor="middle" x="1510.35" y="-57.8" font-family="Times,serif" font-size="14.00">dep</text>
</g>
<!-- 18 -->
<g id="node19" class="node">
<title>18</title>
<ellipse fill="none" stroke="black" cx="1454.85" cy="-18" rx="27" ry="18"/>
<text text-anchor="middle" x="1454.85" y="-14.3" font-family="Times,serif" font-size="14.00">um</text>
</g>
<!-- 0&#45;&gt;18 -->
<g id="edge18" class="edge">
<title>0&#45;&gt;18</title>
<path fill="none" stroke="black" d="M1627.16,-92.51C1606.89,-86.17 1581.79,-77.81 1559.85,-69 1533.85,-58.57 1505.19,-44.75 1484.39,-34.29"/>
<polygon fill="black" stroke="black" points="1485.92,-31.15 1475.42,-29.74 1482.76,-37.39 1485.92,-31.15"/>
<text text-anchor="middle" x="1573.35" y="-57.8" font-family="Times,serif" font-size="14.00">dep</text>
</g>
<!-- 19 -->
<g id="node20" class="node">
<title>19</title>
<ellipse fill="none" stroke="black" cx="1534.85" cy="-18" rx="35.19" ry="18"/>
<text text-anchor="middle" x="1534.85" y="-14.3" font-family="Times,serif" font-size="14.00">lugar</text>
</g>
<!-- 0&#45;&gt;19 -->
<g id="edge19" class="edge">
<title>0&#45;&gt;19</title>
<path fill="none" stroke="black" d="M1641.97,-88.92C1632.29,-82.77 1621.01,-75.58 1610.85,-69 1595.25,-58.91 1577.95,-47.54 1563.8,-38.19"/>
<polygon fill="black" stroke="black" points="1565.71,-35.26 1555.44,-32.67 1561.85,-41.1 1565.71,-35.26"/>
<text text-anchor="middle" x="1624.35" y="-57.8" font-family="Times,serif" font-size="14.00">dep</text>
</g>
<!-- 20 -->
<g id="node21" class="node">
<title>20</title>
<ellipse fill="none" stroke="black" cx="1622.85" cy="-18" rx="34.39" ry="18"/>
<text text-anchor="middle" x="1622.85" y="-14.3" font-family="Times,serif" font-size="14.00">certo</text>
</g>
<!-- 0&#45;&gt;20 -->
<g id="edge20" class="edge">
<title>0&#45;&gt;20</title>
<path fill="none" stroke="black" d="M1657.35,-87.21C1651.19,-75.02 1642.74,-58.32 1635.74,-44.49"/>
<polygon fill="black" stroke="black" points="1638.82,-42.81 1631.18,-35.47 1632.57,-45.97 1638.82,-42.81"/>
<text text-anchor="middle" x="1661.35" y="-57.8" font-family="Times,serif" font-size="14.00">dep</text>
</g>
<!-- 21 -->
<g id="node22" class="node">
<title>21</title>
<ellipse fill="none" stroke="black" cx="1708.85" cy="-18" rx="33.29" ry="18"/>
<text text-anchor="middle" x="1708.85" y="-14.3" font-family="Times,serif" font-size="14.00">onde</text>
</g>
<!-- 0&#45;&gt;21 -->
<g id="edge21" class="edge">
<title>0&#45;&gt;21</title>
<path fill="none" stroke="black" d="M1674.34,-87.21C1680.51,-75.02 1688.96,-58.32 1695.95,-44.49"/>
<polygon fill="black" stroke="black" points="1699.12,-45.97 1700.52,-35.47 1692.88,-42.81 1699.12,-45.97"/>
<text text-anchor="middle" x="1704.35" y="-57.8" font-family="Times,serif" font-size="14.00">dep</text>
</g>
<!-- 22 -->
<g id="node23" class="node">
<title>22</title>
<ellipse fill="none" stroke="black" cx="1809.85" cy="-18" rx="50.09" ry="18"/>
<text text-anchor="middle" x="1809.85" y="-14.3" font-family="Times,serif" font-size="14.00">comprar</text>
</g>
<!-- 0&#45;&gt;22 -->
<g id="edge22" class="edge">
<title>0&#45;&gt;22</title>
<path fill="none" stroke="black" d="M1691.26,-89C1714.81,-75.1 1750,-54.33 1775.94,-39.02"/>
<polygon fill="black" stroke="black" points="1777.86,-41.95 1784.69,-33.85 1774.3,-35.92 1777.86,-41.95"/>
<text text-anchor="middle" x="1760.35" y="-57.8" font-family="Times,serif" font-size="14.00">dep</text>
</g>
<!-- 23 -->
<g id="node24" class="node">
<title>23</title>
<ellipse fill="none" stroke="black" cx="1904.85" cy="-18" rx="27" ry="18"/>
<text text-anchor="middle" x="1904.85" y="-14.3" font-family="Times,serif" font-size="14.00">a</text>
</g>
<!-- 0&#45;&gt;23 -->
<g id="edge23" class="edge">
<title>0&#45;&gt;23</title>
<path fill="none" stroke="black" d="M1704.61,-92.82C1745.91,-80.49 1812.92,-59.29 1868.85,-36 1870.67,-35.24 1872.53,-34.44 1874.39,-33.62"/>
<polygon fill="black" stroke="black" points="1876.02,-36.73 1883.67,-29.4 1873.12,-30.35 1876.02,-36.73"/>
<text text-anchor="middle" x="1833.35" y="-57.8" font-family="Times,serif" font-size="14.00">dep</text>
</g>
<!-- 24 -->
<g id="node25" class="node">
<title>24</title>
<ellipse fill="none" stroke="black" cx="1976.85" cy="-18" rx="27" ry="18"/>
<text text-anchor="middle" x="1976.85" y="-14.3" font-family="Times,serif" font-size="14.00">«</text>
</g>
<!-- 0&#45;&gt;24 -->
<g id="edge24" class="edge">
<title>0&#45;&gt;24</title>
<path fill="none" stroke="black" d="M1713.48,-97.2C1751.14,-91.29 1804.84,-81.69 1850.85,-69 1891.92,-57.67 1901.55,-52.45 1940.85,-36 1942.66,-35.24 1944.52,-34.44 1946.39,-33.61"/>
<polygon fill="black" stroke="black" points="1948.02,-36.72 1955.67,-29.39 1945.12,-30.35 1948.02,-36.72"/>
<text text-anchor="middle" x="1910.35" y="-57.8" font-family="Times,serif" font-size="14.00">dep</text>
</g>
<!-- 25 -->
<g id="node26" class="node">
<title>25</title>
<ellipse fill="none" stroke="black" cx="2073.85" cy="-18" rx="51.99" ry="18"/>
<text text-anchor="middle" x="2073.85" y="-14.3" font-family="Times,serif" font-size="14.00">baguette</text>
</g>
<!-- 0&#45;&gt;25 -->
<g id="edge25" class="edge">
<title>0&#45;&gt;25</title>
<path fill="none" stroke="black" d="M1716.61,-100.2C1769.79,-95.54 1855.49,-86.05 1927.85,-69 1963.69,-60.55 2003.14,-46.76 2031.98,-35.8"/>
<polygon fill="black" stroke="black" points="2033.26,-39.06 2041.34,-32.2 2030.75,-32.53 2033.26,-39.06"/>
<text text-anchor="middle" x="1990.35" y="-57.8" font-family="Times,serif" font-size="14.00">dep</text>
</g>
<!-- 26 -->
<g id="node27" class="node">
<title>26</title>
<ellipse fill="none" stroke="black" cx="2170.85" cy="-18" rx="27" ry="18"/>
<text text-anchor="middle" x="2170.85" y="-14.3" font-family="Times,serif" font-size="14.00">»</text>
</g>
<!-- 0&#45;&gt;26 -->
<g id="edge26" class="edge">
<title>0&#45;&gt;26</title>
<path fill="none" stroke="black" d="M1717.47,-101.17C1784.72,-96.93 1905.78,-87.37 2007.85,-69 2065.24,-58.67 2080.02,-55.87 2134.85,-36 2136.7,-35.33 2138.58,-34.6 2140.47,-33.82"/>
<polygon fill="black" stroke="black" points="2142.05,-36.96 2149.81,-29.74 2139.24,-30.54 2142.05,-36.96"/>
<text text-anchor="middle" x="2092.35" y="-57.8" font-family="Times,serif" font-size="14.00">dep</text>
</g>
<!-- 27 -->
<g id="node28" class="node">
<title>27</title>
<ellipse fill="none" stroke="black" cx="2247.85" cy="-18" rx="31.7" ry="18"/>
<text text-anchor="middle" x="2247.85" y="-14.3" font-family="Times,serif" font-size="14.00">para</text>
</g>
<!-- 0&#45;&gt;27 -->
<g id="edge27" class="edge">
<title>0&#45;&gt;27</title>
<path fill="none" stroke="black" d="M1718.73,-104.06C1802.55,-103.22 1970.69,-97.69 2109.85,-69 2146.75,-61.39 2187.05,-45.9 2214.52,-34.16"/>
<polygon fill="black" stroke="black" points="2216.26,-37.22 2224.03,-30.03 2213.47,-30.8 2216.26,-37.22"/>
<text text-anchor="middle" x="2174.35" y="-57.8" font-family="Times,serif" font-size="14.00">dep</text>
</g>
<!-- 28 -->
<g id="node29" class="node">
<title>28</title>
<ellipse fill="none" stroke="black" cx="2324.85" cy="-18" rx="27" ry="18"/>
<text text-anchor="middle" x="2324.85" y="-14.3" font-family="Times,serif" font-size="14.00">o</text>
</g>
<!-- 0&#45;&gt;28 -->
<g id="edge28" class="edge">
<title>0&#45;&gt;28</title>
<path fill="none" stroke="black" d="M1717.89,-102.27C1832.21,-98.18 2102.21,-86.91 2191.85,-69 2228.47,-61.68 2268.3,-45.53 2294.73,-33.55"/>
<polygon fill="black" stroke="black" points="2296.21,-36.72 2303.83,-29.36 2293.28,-30.37 2296.21,-36.72"/>
<text text-anchor="middle" x="2258.35" y="-57.8" font-family="Times,serif" font-size="14.00">dep</text>
</g>
<!-- 29 -->
<g id="node30" class="node">
<title>29</title>
<ellipse fill="none" stroke="black" cx="2399.85" cy="-18" rx="29.8" ry="18"/>
<text text-anchor="middle" x="2399.85" y="-14.3" font-family="Times,serif" font-size="14.00">café</text>
</g>
<!-- 0&#45;&gt;29 -->
<g id="edge29" class="edge">
<title>0&#45;&gt;29</title>
<path fill="none" stroke="black" d="M1718.51,-103.09C1846.33,-100.53 2170.24,-91.93 2275.85,-69 2308.69,-61.87 2344.04,-46.81 2368.57,-35.07"/>
<polygon fill="black" stroke="black" points="2370.28,-38.13 2377.73,-30.6 2367.21,-31.84 2370.28,-38.13"/>
<text text-anchor="middle" x="2335.35" y="-57.8" font-family="Times,serif" font-size="14.00">dep</text>
</g>
<!-- 30 -->
<g id="node31" class="node">
<title>30</title>
<ellipse fill="none" stroke="black" cx="2474.85" cy="-18" rx="27" ry="18"/>
<text text-anchor="middle" x="2474.85" y="-14.3" font-family="Times,serif" font-size="14.00">de</text>
</g>
<!-- 0&#45;&gt;30 -->
<g id="edge30" class="edge">
<title>0&#45;&gt;30</title>
<path fill="none" stroke="black" d="M1718.43,-103.46C1857.38,-101.69 2231.92,-94.6 2352.85,-69 2385.86,-62.01 2421.31,-46.49 2445.44,-34.58"/>
<polygon fill="black" stroke="black" points="2447.07,-37.68 2454.42,-30.06 2443.92,-31.43 2447.07,-37.68"/>
<text text-anchor="middle" x="2415.35" y="-57.8" font-family="Times,serif" font-size="14.00">dep</text>
</g>
<!-- 31 -->
<g id="node32" class="node">
<title>31</title>
<ellipse fill="none" stroke="black" cx="2546.85" cy="-18" rx="27" ry="18"/>
<text text-anchor="middle" x="2546.85" y="-14.3" font-family="Times,serif" font-size="14.00">a</text>
</g>
<!-- 0&#45;&gt;31 -->
<g id="edge31" class="edge">
<title>0&#45;&gt;31</title>
<path fill="none" stroke="black" d="M1718.56,-104.01C1868.69,-103.66 2296.51,-99.91 2432.85,-69 2463.28,-62.1 2495.64,-47.08 2518.08,-35.29"/>
<polygon fill="black" stroke="black" points="2519.9,-38.29 2527.06,-30.47 2516.59,-32.12 2519.9,-38.29"/>
<text text-anchor="middle" x="2492.35" y="-57.8" font-family="Times,serif" font-size="14.00">dep</text>
</g>
<!-- 32 -->
<g id="node33" class="node">
<title>32</title>
<ellipse fill="none" stroke="black" cx="2633.85" cy="-18" rx="42.49" ry="18"/>
<text text-anchor="middle" x="2633.85" y="-14.3" font-family="Times,serif" font-size="14.00">manhã</text>
</g>
<!-- 0&#45;&gt;32 -->
<g id="edge32" class="edge">
<title>0&#45;&gt;32</title>
<path fill="none" stroke="black" d="M1718.61,-104.16C1878.8,-104.27 2357.89,-101.77 2509.85,-69 2541.1,-62.26 2574.61,-48.3 2598.91,-36.84"/>
<polygon fill="black" stroke="black" points="2600.58,-39.92 2608.07,-32.43 2597.54,-33.62 2600.58,-39.92"/>
<text text-anchor="middle" x="2569.35" y="-57.8" font-family="Times,serif" font-size="14.00">dep</text>
</g>
<!-- 33 -->
<g id="node34" class="node">
<title>33</title>
<ellipse fill="none" stroke="black" cx="2730.85" cy="-18" rx="37.09" ry="18"/>
<text text-anchor="middle" x="2730.85" y="-14.3" font-family="Times,serif" font-size="14.00">passa</text>
</g>
<!-- 0&#45;&gt;33 -->
<g id="edge33" class="edge">
<title>0&#45;&gt;33</title>
<path fill="none" stroke="black" d="M1718.48,-103.98C1888,-103.59 2418.44,-99.89 2586.85,-69 2624.92,-62.02 2666.49,-46.69 2695.14,-34.84"/>
<polygon fill="black" stroke="black" points="2696.84,-37.92 2704.7,-30.81 2694.13,-31.47 2696.84,-37.92"/>
<text text-anchor="middle" x="2657.35" y="-57.8" font-family="Times,serif" font-size="14.00">dep</text>
</g>
<!-- 34 -->
<g id="node35" class="node">
<title>34</title>
<ellipse fill="none" stroke="black" cx="2812.85" cy="-18" rx="27" ry="18"/>
<text text-anchor="middle" x="2812.85" y="-14.3" font-family="Times,serif" font-size="14.00">a</text>
</g>
<!-- 0&#45;&gt;34 -->
<g id="edge34" class="edge">
<title>0&#45;&gt;34</title>
<path fill="none" stroke="black" d="M1718.71,-104.1C1898.94,-104.14 2488.51,-101.71 2674.85,-69 2721.78,-60.76 2732.55,-53.54 2776.85,-36 2778.68,-35.27 2780.55,-34.5 2782.43,-33.7"/>
<polygon fill="black" stroke="black" points="2784.03,-36.81 2791.73,-29.53 2781.17,-30.42 2784.03,-36.81"/>
<text text-anchor="middle" x="2746.35" y="-57.8" font-family="Times,serif" font-size="14.00">dep</text>
</g>
<!-- 35 -->
<g id="node36" class="node">
<title>35</title>
<ellipse fill="none" stroke="black" cx="2884.85" cy="-18" rx="27" ry="18"/>
<text text-anchor="middle" x="2884.85" y="-14.3" font-family="Times,serif" font-size="14.00">ser</text>
</g>
<!-- 0&#45;&gt;35 -->
<g id="edge35" class="edge">
<title>0&#45;&gt;35</title>
<path fill="none" stroke="black" d="M1718.43,-103.37C1923.2,-100.75 2661.01,-89.96 2763.85,-69 2796.54,-62.34 2831.52,-46.88 2855.42,-34.9"/>
<polygon fill="black" stroke="black" points="2857.32,-37.85 2864.63,-30.18 2854.13,-31.62 2857.32,-37.85"/>
<text text-anchor="middle" x="2825.35" y="-57.8" font-family="Times,serif" font-size="14.00">dep</text>
</g>
<!-- 36 -->
<g id="node37" class="node">
<title>36</title>
<ellipse fill="none" stroke="black" cx="2956.85" cy="-18" rx="27" ry="18"/>
<text text-anchor="middle" x="2956.85" y="-14.3" font-family="Times,serif" font-size="14.00">um</text>
</g>
<!-- 0&#45;&gt;36 -->
<g id="edge36" class="edge">
<title>0&#45;&gt;36</title>
<path fill="none" stroke="black" d="M1718.55,-103.58C1932.8,-101.7 2732.31,-93.14 2842.85,-69 2873.33,-62.34 2905.69,-47.29 2928.11,-35.43"/>
<polygon fill="black" stroke="black" points="2929.95,-38.42 2937.08,-30.58 2926.62,-32.26 2929.95,-38.42"/>
<text text-anchor="middle" x="2902.35" y="-57.8" font-family="Times,serif" font-size="14.00">dep</text>
</g>
<!-- 37 -->
<g id="node38" class="node">
<title>37</title>
<ellipse fill="none" stroke="black" cx="3075.85" cy="-18" rx="74.19" ry="18"/>
<text text-anchor="middle" x="3075.85" y="-14.3" font-family="Times,serif" font-size="14.00">indispensável</text>
</g>
<!-- 0&#45;&gt;37 -->
<g id="edge37" class="edge">
<title>0&#45;&gt;37</title>
<path fill="none" stroke="black" d="M1718.51,-103.41C1941.31,-100.77 2800.43,-89.38 2919.85,-69 2957.92,-62.5 2999.5,-48.83 3030.15,-37.42"/>
<polygon fill="black" stroke="black" points="3031.58,-40.62 3039.7,-33.81 3029.11,-34.07 3031.58,-40.62"/>
<text text-anchor="middle" x="2995.35" y="-57.8" font-family="Times,serif" font-size="14.00">dep</text>
</g>
<!-- 38 -->
<g id="node39" class="node">
<title>38</title>
<ellipse fill="none" stroke="black" cx="3208.85" cy="-18" rx="40.89" ry="18"/>
<text text-anchor="middle" x="3208.85" y="-14.3" font-family="Times,serif" font-size="14.00">prazer</text>
</g>
<!-- 0&#45;&gt;38 -->
<g id="edge38" class="edge">
<title>0&#45;&gt;38</title>
<path fill="none" stroke="black" d="M1718.64,-104.01C1935.15,-103.85 2755.76,-101.08 3012.85,-69 3078.86,-60.76 3094.82,-54.07 3158.85,-36 3161.98,-35.12 3165.2,-34.15 3168.44,-33.14"/>
<polygon fill="black" stroke="black" points="3169.63,-36.44 3178.07,-30.03 3167.48,-29.78 3169.63,-36.44"/>
<text text-anchor="middle" x="3108.35" y="-57.8" font-family="Times,serif" font-size="14.00">dep</text>
</g>
<!-- 39 -->
<g id="node40" class="node">
<title>39</title>
<ellipse fill="none" stroke="black" cx="3325.85" cy="-18" rx="58.49" ry="18"/>
<text text-anchor="middle" x="3325.85" y="-14.3" font-family="Times,serif" font-size="14.00">parisiense</text>
</g>
<!-- 0&#45;&gt;39 -->
<g id="edge39" class="edge">
<title>0&#45;&gt;39</title>
<path fill="none" stroke="black" d="M1718.79,-104.28C1946.77,-105.27 2845.82,-106.63 3125.85,-69 3178.33,-61.95 3236.96,-46.34 3277.09,-34.43"/>
<polygon fill="black" stroke="black" points="3278.31,-37.72 3286.88,-31.49 3276.3,-31.01 3278.31,-37.72"/>
<text text-anchor="middle" x="3217.35" y="-57.8" font-family="Times,serif" font-size="14.00">dep</text>
</g>
<!-- 40 -->
<g id="node41" class="node">
<title>40</title>
<ellipse fill="none" stroke="black" cx="3428.85" cy="-18" rx="27" ry="18"/>
<text text-anchor="middle" x="3428.85" y="-14.3" font-family="Times,serif" font-size="14.00">.</text>
</g>
<!-- 0&#45;&gt;40 -->
<g id="edge40" class="edge">
<title>0&#45;&gt;40</title>
<path fill="none" stroke="black" d="M1718.65,-104.12C1956.7,-104.48 2931.5,-103.76 3234.85,-69 3306.12,-60.83 3324.83,-58.81 3392.85,-36 3394.76,-35.36 3396.71,-34.64 3398.66,-33.87"/>
<polygon fill="black" stroke="black" points="3400.45,-36.91 3408.25,-29.74 3397.68,-30.48 3400.45,-36.91"/>
<text text-anchor="middle" x="3345.35" y="-57.8" font-family="Times,serif" font-size="14.00">dep</text>
</g>
</g>
</svg>
