<?xml version="1.0" encoding="UTF-8" standalone="no"?>
<!DOCTYPE svg PUBLIC "-//W3C//DTD SVG 1.1//EN"
 "http://www.w3.org/Graphics/SVG/1.1/DTD/svg11.dtd">
<!-- Generated by graphviz version 2.42.4 (0)
 -->
<!-- Pages: 1 -->
<svg width="1605pt" height="131pt"
 viewBox="0.00 0.00 1604.79 131.00" xmlns="http://www.w3.org/2000/svg" xmlns:xlink="http://www.w3.org/1999/xlink">
<g id="graph0" class="graph" transform="scale(1 1) rotate(0) translate(4 127)">
<polygon fill="white" stroke="transparent" points="-4,4 -4,-127 1600.79,-127 1600.79,4 -4,4"/>
<!-- 0 -->
<g id="node1" class="node">
<title>0</title>
<ellipse fill="none" stroke="black" cx="846.79" cy="-105" rx="27" ry="18"/>
<text text-anchor="middle" x="846.79" y="-101.3" font-family="Times,serif" font-size="14.00">3ª</text>
</g>
<!-- 1 -->
<g id="node2" class="node">
<title>1</title>
<ellipse fill="none" stroke="black" cx="59.79" cy="-18" rx="59.59" ry="18"/>
<text text-anchor="middle" x="59.79" y="-14.3" font-family="Times,serif" font-size="14.00">Prioridade</text>
</g>
<!-- 0&#45;&gt;1 -->
<g id="edge1" class="edge">
<title>0&#45;&gt;1</title>
<path fill="none" stroke="black" d="M819.69,-103.25C716.72,-100.26 349.82,-88.48 234.79,-69 190.56,-61.51 141.56,-46.95 106.69,-35.46"/>
<polygon fill="black" stroke="black" points="107.39,-32.01 96.79,-32.16 105.17,-38.65 107.39,-32.01"/>
<text text-anchor="middle" x="248.29" y="-57.8" font-family="Times,serif" font-size="14.00">dep</text>
</g>
<!-- 2 -->
<g id="node3" class="node">
<title>2</title>
<ellipse fill="none" stroke="black" cx="164.79" cy="-18" rx="27" ry="18"/>
<text text-anchor="middle" x="164.79" y="-14.3" font-family="Times,serif" font-size="14.00">&#45;&#45;</text>
</g>
<!-- 0&#45;&gt;2 -->
<g id="edge2" class="edge">
<title>0&#45;&gt;2</title>
<path fill="none" stroke="black" d="M819.82,-103.22C746.53,-100.84 537.74,-92.36 365.79,-69 291.69,-58.93 271.8,-59.47 200.79,-36 198.88,-35.37 196.92,-34.65 194.97,-33.89"/>
<polygon fill="black" stroke="black" points="195.95,-30.5 185.38,-29.77 193.19,-36.93 195.95,-30.5"/>
<text text-anchor="middle" x="379.29" y="-57.8" font-family="Times,serif" font-size="14.00">dep</text>
</g>
<!-- 3 -->
<g id="node4" class="node">
<title>3</title>
<ellipse fill="none" stroke="black" cx="263.79" cy="-18" rx="53.89" ry="18"/>
<text text-anchor="middle" x="263.79" y="-14.3" font-family="Times,serif" font-size="14.00">situações</text>
</g>
<!-- 0&#45;&gt;3 -->
<g id="edge3" class="edge">
<title>0&#45;&gt;3</title>
<path fill="none" stroke="black" d="M819.84,-102.84C757.28,-99.85 597.55,-90.58 465.79,-69 403.13,-58.74 388.34,-51.61 326.79,-36 322.66,-34.95 318.37,-33.84 314.07,-32.71"/>
<polygon fill="black" stroke="black" points="314.64,-29.24 304.08,-30.07 312.85,-36.01 314.64,-29.24"/>
<text text-anchor="middle" x="479.29" y="-57.8" font-family="Times,serif" font-size="14.00">dep</text>
</g>
<!-- 4 -->
<g id="node5" class="node">
<title>4</title>
<ellipse fill="none" stroke="black" cx="387.79" cy="-18" rx="51.99" ry="18"/>
<text text-anchor="middle" x="387.79" y="-14.3" font-family="Times,serif" font-size="14.00">urgentes</text>
</g>
<!-- 0&#45;&gt;4 -->
<g id="edge4" class="edge">
<title>0&#45;&gt;4</title>
<path fill="none" stroke="black" d="M820,-102.45C767.75,-99.08 648.77,-89.64 550.79,-69 509.85,-60.37 464.41,-46.02 431.94,-34.91"/>
<polygon fill="black" stroke="black" points="432.89,-31.53 422.3,-31.57 430.6,-38.15 432.89,-31.53"/>
<text text-anchor="middle" x="564.29" y="-57.8" font-family="Times,serif" font-size="14.00">dep</text>
</g>
<!-- 5 -->
<g id="node6" class="node">
<title>5</title>
<ellipse fill="none" stroke="black" cx="484.79" cy="-18" rx="27" ry="18"/>
<text text-anchor="middle" x="484.79" y="-14.3" font-family="Times,serif" font-size="14.00">:</text>
</g>
<!-- 0&#45;&gt;5 -->
<g id="edge5" class="edge">
<title>0&#45;&gt;5</title>
<path fill="none" stroke="black" d="M820.34,-101C763.96,-94.07 628.29,-74.51 520.79,-36 518.94,-35.34 517.05,-34.61 515.16,-33.84"/>
<polygon fill="black" stroke="black" points="516.39,-30.56 505.83,-29.77 513.59,-36.97 516.39,-30.56"/>
<text text-anchor="middle" x="649.29" y="-57.8" font-family="Times,serif" font-size="14.00">dep</text>
</g>
<!-- 6 -->
<g id="node7" class="node">
<title>6</title>
<ellipse fill="none" stroke="black" cx="583.79" cy="-18" rx="53.89" ry="18"/>
<text text-anchor="middle" x="583.79" y="-14.3" font-family="Times,serif" font-size="14.00">situações</text>
</g>
<!-- 0&#45;&gt;6 -->
<g id="edge6" class="edge">
<title>0&#45;&gt;6</title>
<path fill="none" stroke="black" d="M821.89,-97.34C797.14,-90.6 758.16,-79.69 724.79,-69 692.05,-58.51 655.46,-45.5 627.77,-35.38"/>
<polygon fill="black" stroke="black" points="628.95,-32.08 618.36,-31.93 626.54,-38.66 628.95,-32.08"/>
<text text-anchor="middle" x="738.29" y="-57.8" font-family="Times,serif" font-size="14.00">dep</text>
</g>
<!-- 7 -->
<g id="node8" class="node">
<title>7</title>
<ellipse fill="none" stroke="black" cx="683.79" cy="-18" rx="27.9" ry="18"/>
<text text-anchor="middle" x="683.79" y="-14.3" font-family="Times,serif" font-size="14.00">que</text>
</g>
<!-- 0&#45;&gt;7 -->
<g id="edge7" class="edge">
<title>0&#45;&gt;7</title>
<path fill="none" stroke="black" d="M826.15,-93.23C797.77,-78.43 746.51,-51.71 713.87,-34.68"/>
<polygon fill="black" stroke="black" points="715.27,-31.47 704.79,-29.95 712.03,-37.67 715.27,-31.47"/>
<text text-anchor="middle" x="789.29" y="-57.8" font-family="Times,serif" font-size="14.00">dep</text>
</g>
<!-- 8 -->
<g id="node9" class="node">
<title>8</title>
<ellipse fill="none" stroke="black" cx="792.79" cy="-18" rx="63.09" ry="18"/>
<text text-anchor="middle" x="792.79" y="-14.3" font-family="Times,serif" font-size="14.00">necessitam</text>
</g>
<!-- 0&#45;&gt;8 -->
<g id="edge8" class="edge">
<title>0&#45;&gt;8</title>
<path fill="none" stroke="black" d="M836.64,-88.01C828.87,-75.78 818,-58.68 809.03,-44.56"/>
<polygon fill="black" stroke="black" points="811.78,-42.35 803.46,-35.79 805.87,-46.11 811.78,-42.35"/>
<text text-anchor="middle" x="837.29" y="-57.8" font-family="Times,serif" font-size="14.00">dep</text>
</g>
<!-- 9 -->
<g id="node10" class="node">
<title>9</title>
<ellipse fill="none" stroke="black" cx="900.79" cy="-18" rx="27" ry="18"/>
<text text-anchor="middle" x="900.79" y="-14.3" font-family="Times,serif" font-size="14.00">de</text>
</g>
<!-- 0&#45;&gt;9 -->
<g id="edge9" class="edge">
<title>0&#45;&gt;9</title>
<path fill="none" stroke="black" d="M856.95,-88.01C864.87,-75.55 876.01,-58.01 885.08,-43.74"/>
<polygon fill="black" stroke="black" points="888.28,-45.23 890.68,-34.92 882.37,-41.48 888.28,-45.23"/>
<text text-anchor="middle" x="891.29" y="-57.8" font-family="Times,serif" font-size="14.00">dep</text>
</g>
<!-- 10 -->
<g id="node11" class="node">
<title>10</title>
<ellipse fill="none" stroke="black" cx="1011.79" cy="-18" rx="65.79" ry="18"/>
<text text-anchor="middle" x="1011.79" y="-14.3" font-family="Times,serif" font-size="14.00">intervenção</text>
</g>
<!-- 0&#45;&gt;10 -->
<g id="edge10" class="edge">
<title>0&#45;&gt;10</title>
<path fill="none" stroke="black" d="M867.69,-93.23C894.25,-79.56 940.58,-55.69 973.54,-38.71"/>
<polygon fill="black" stroke="black" points="975.17,-41.81 982.45,-34.12 971.96,-35.58 975.17,-41.81"/>
<text text-anchor="middle" x="953.29" y="-57.8" font-family="Times,serif" font-size="14.00">dep</text>
</g>
<!-- 11 -->
<g id="node12" class="node">
<title>11</title>
<ellipse fill="none" stroke="black" cx="1136.79" cy="-18" rx="41.69" ry="18"/>
<text text-anchor="middle" x="1136.79" y="-14.3" font-family="Times,serif" font-size="14.00">dentro</text>
</g>
<!-- 0&#45;&gt;11 -->
<g id="edge11" class="edge">
<title>0&#45;&gt;11</title>
<path fill="none" stroke="black" d="M871.45,-97.47C915.08,-85.83 1008.66,-60.38 1086.79,-36 1089.72,-35.09 1092.73,-34.12 1095.76,-33.14"/>
<polygon fill="black" stroke="black" points="1097.01,-36.41 1105.4,-29.94 1094.81,-29.77 1097.01,-36.41"/>
<text text-anchor="middle" x="1035.29" y="-57.8" font-family="Times,serif" font-size="14.00">dep</text>
</g>
<!-- 12 -->
<g id="node13" class="node">
<title>12</title>
<ellipse fill="none" stroke="black" cx="1223.79" cy="-18" rx="27" ry="18"/>
<text text-anchor="middle" x="1223.79" y="-14.3" font-family="Times,serif" font-size="14.00">de</text>
</g>
<!-- 0&#45;&gt;12 -->
<g id="edge12" class="edge">
<title>0&#45;&gt;12</title>
<path fill="none" stroke="black" d="M873.58,-101.31C932.04,-94.86 1074.84,-76.01 1187.79,-36 1189.7,-35.32 1191.64,-34.58 1193.58,-33.8"/>
<polygon fill="black" stroke="black" points="1195.39,-36.83 1203.15,-29.62 1192.59,-30.41 1195.39,-36.83"/>
<text text-anchor="middle" x="1138.29" y="-57.8" font-family="Times,serif" font-size="14.00">dep</text>
</g>
<!-- 13 -->
<g id="node14" class="node">
<title>13</title>
<ellipse fill="none" stroke="black" cx="1295.79" cy="-18" rx="27" ry="18"/>
<text text-anchor="middle" x="1295.79" y="-14.3" font-family="Times,serif" font-size="14.00">a</text>
</g>
<!-- 0&#45;&gt;13 -->
<g id="edge13" class="edge">
<title>0&#45;&gt;13</title>
<path fill="none" stroke="black" d="M873.94,-102.7C928.08,-99.72 1053.09,-90.89 1155.79,-69 1203.22,-58.89 1214.66,-53.73 1259.79,-36 1261.63,-35.28 1263.5,-34.51 1265.38,-33.71"/>
<polygon fill="black" stroke="black" points="1266.98,-36.83 1274.68,-29.55 1264.12,-30.44 1266.98,-36.83"/>
<text text-anchor="middle" x="1226.29" y="-57.8" font-family="Times,serif" font-size="14.00">dep</text>
</g>
<!-- 14 -->
<g id="node15" class="node">
<title>14</title>
<ellipse fill="none" stroke="black" cx="1391.79" cy="-18" rx="50.89" ry="18"/>
<text text-anchor="middle" x="1391.79" y="-14.3" font-family="Times,serif" font-size="14.00">primeira</text>
</g>
<!-- 0&#45;&gt;14 -->
<g id="edge14" class="edge">
<title>0&#45;&gt;14</title>
<path fill="none" stroke="black" d="M874.08,-103.82C938.91,-102.9 1107.01,-97.71 1243.79,-69 1280.76,-61.24 1321.3,-47.13 1350.59,-35.87"/>
<polygon fill="black" stroke="black" points="1352.03,-39.07 1360.07,-32.18 1349.48,-32.55 1352.03,-39.07"/>
<text text-anchor="middle" x="1311.29" y="-57.8" font-family="Times,serif" font-size="14.00">dep</text>
</g>
<!-- 15 -->
<g id="node16" class="node">
<title>15</title>
<ellipse fill="none" stroke="black" cx="1492.79" cy="-18" rx="31.7" ry="18"/>
<text text-anchor="middle" x="1492.79" y="-14.3" font-family="Times,serif" font-size="14.00">hora</text>
</g>
<!-- 0&#45;&gt;15 -->
<g id="edge15" class="edge">
<title>0&#45;&gt;15</title>
<path fill="none" stroke="black" d="M873.92,-103.83C947.59,-102.97 1157.34,-97.96 1328.79,-69 1384.6,-59.57 1398.2,-54.21 1451.79,-36 1454.07,-35.23 1456.4,-34.39 1458.74,-33.51"/>
<polygon fill="black" stroke="black" points="1460.24,-36.68 1468.28,-29.78 1457.69,-30.17 1460.24,-36.68"/>
<text text-anchor="middle" x="1411.29" y="-57.8" font-family="Times,serif" font-size="14.00">dep</text>
</g>
<!-- 16 -->
<g id="node17" class="node">
<title>16</title>
<ellipse fill="none" stroke="black" cx="1569.79" cy="-18" rx="27" ry="18"/>
<text text-anchor="middle" x="1569.79" y="-14.3" font-family="Times,serif" font-size="14.00">.</text>
</g>
<!-- 0&#45;&gt;16 -->
<g id="edge16" class="edge">
<title>0&#45;&gt;16</title>
<path fill="none" stroke="black" d="M873.94,-103.25C973.75,-100.34 1320.16,-89.02 1428.79,-69 1476.9,-60.13 1488.24,-53.82 1533.79,-36 1535.63,-35.28 1537.5,-34.51 1539.38,-33.71"/>
<polygon fill="black" stroke="black" points="1540.98,-36.83 1548.69,-29.56 1538.13,-30.44 1540.98,-36.83"/>
<text text-anchor="middle" x="1501.29" y="-57.8" font-family="Times,serif" font-size="14.00">dep</text>
</g>
</g>
</svg>
