<?xml version="1.0" encoding="UTF-8" standalone="no"?>
<!DOCTYPE svg PUBLIC "-//W3C//DTD SVG 1.1//EN"
 "http://www.w3.org/Graphics/SVG/1.1/DTD/svg11.dtd">
<!-- Generated by graphviz version 2.42.4 (0)
 -->
<!-- Pages: 1 -->
<svg width="1119pt" height="131pt"
 viewBox="0.00 0.00 1119.00 131.00" xmlns="http://www.w3.org/2000/svg" xmlns:xlink="http://www.w3.org/1999/xlink">
<g id="graph0" class="graph" transform="scale(1 1) rotate(0) translate(4 127)">
<polygon fill="white" stroke="transparent" points="-4,4 -4,-127 1115,-127 1115,4 -4,4"/>
<!-- 0 -->
<g id="node1" class="node">
<title>0</title>
<ellipse fill="none" stroke="black" cx="560" cy="-105" rx="27" ry="18"/>
<text text-anchor="middle" x="560" y="-101.3" font-family="Times,serif" font-size="14.00">A</text>
</g>
<!-- 1 -->
<g id="node2" class="node">
<title>1</title>
<ellipse fill="none" stroke="black" cx="39" cy="-18" rx="38.99" ry="18"/>
<text text-anchor="middle" x="39" y="-14.3" font-family="Times,serif" font-size="14.00">banda</text>
</g>
<!-- 0&#45;&gt;1 -->
<g id="edge1" class="edge">
<title>0&#45;&gt;1</title>
<path fill="none" stroke="black" d="M533.04,-102.73C459.91,-98.75 252.18,-83.74 87,-36 84.03,-35.14 80.99,-34.21 77.94,-33.22"/>
<polygon fill="black" stroke="black" points="78.86,-29.84 68.26,-29.98 76.64,-36.48 78.86,-29.84"/>
<text text-anchor="middle" x="241.5" y="-57.8" font-family="Times,serif" font-size="14.00">dep</text>
</g>
<!-- 2 -->
<g id="node3" class="node">
<title>2</title>
<ellipse fill="none" stroke="black" cx="151" cy="-18" rx="55.49" ry="18"/>
<text text-anchor="middle" x="151" y="-14.3" font-family="Times,serif" font-size="14.00">brasileira</text>
</g>
<!-- 0&#45;&gt;2 -->
<g id="edge2" class="edge">
<title>0&#45;&gt;2</title>
<path fill="none" stroke="black" d="M533.49,-101.39C489.02,-96.72 396.7,-85.85 320,-69 277.97,-59.77 231.12,-45.59 197.43,-34.69"/>
<polygon fill="black" stroke="black" points="198.45,-31.34 187.86,-31.56 196.28,-37.99 198.45,-31.34"/>
<text text-anchor="middle" x="333.5" y="-57.8" font-family="Times,serif" font-size="14.00">dep</text>
</g>
<!-- 3 -->
<g id="node4" class="node">
<title>3</title>
<ellipse fill="none" stroke="black" cx="267" cy="-18" rx="42.79" ry="18"/>
<text text-anchor="middle" x="267" y="-14.3" font-family="Times,serif" font-size="14.00">nasceu</text>
</g>
<!-- 0&#45;&gt;3 -->
<g id="edge3" class="edge">
<title>0&#45;&gt;3</title>
<path fill="none" stroke="black" d="M533.9,-99.96C500.74,-94.49 441.93,-83.72 393,-69 362.56,-59.84 329.16,-46.43 304.4,-35.8"/>
<polygon fill="black" stroke="black" points="305.6,-32.5 295.03,-31.73 302.81,-38.92 305.6,-32.5"/>
<text text-anchor="middle" x="406.5" y="-57.8" font-family="Times,serif" font-size="14.00">dep</text>
</g>
<!-- 4 -->
<g id="node5" class="node">
<title>4</title>
<ellipse fill="none" stroke="black" cx="355" cy="-18" rx="27" ry="18"/>
<text text-anchor="middle" x="355" y="-14.3" font-family="Times,serif" font-size="14.00">em</text>
</g>
<!-- 0&#45;&gt;4 -->
<g id="edge4" class="edge">
<title>0&#45;&gt;4</title>
<path fill="none" stroke="black" d="M535.63,-97.08C513.9,-90.65 481.38,-80.36 454,-69 429.85,-58.98 403.47,-45.52 384.01,-35.09"/>
<polygon fill="black" stroke="black" points="385.52,-31.93 375.06,-30.25 382.19,-38.09 385.52,-31.93"/>
<text text-anchor="middle" x="467.5" y="-57.8" font-family="Times,serif" font-size="14.00">dep</text>
</g>
<!-- 5 -->
<g id="node6" class="node">
<title>5</title>
<ellipse fill="none" stroke="black" cx="434" cy="-18" rx="34.39" ry="18"/>
<text text-anchor="middle" x="434" y="-14.3" font-family="Times,serif" font-size="14.00">1990</text>
</g>
<!-- 0&#45;&gt;5 -->
<g id="edge5" class="edge">
<title>0&#45;&gt;5</title>
<path fill="none" stroke="black" d="M541.16,-92C530.74,-85.31 517.59,-76.78 506,-69 491.38,-59.19 475.27,-48.04 462.01,-38.76"/>
<polygon fill="black" stroke="black" points="463.94,-35.84 453.74,-32.97 459.92,-41.57 463.94,-35.84"/>
<text text-anchor="middle" x="519.5" y="-57.8" font-family="Times,serif" font-size="14.00">dep</text>
</g>
<!-- 6 -->
<g id="node7" class="node">
<title>6</title>
<ellipse fill="none" stroke="black" cx="518" cy="-18" rx="31.7" ry="18"/>
<text text-anchor="middle" x="518" y="-14.3" font-family="Times,serif" font-size="14.00">para</text>
</g>
<!-- 0&#45;&gt;6 -->
<g id="edge6" class="edge">
<title>0&#45;&gt;6</title>
<path fill="none" stroke="black" d="M551.9,-87.61C545.89,-75.46 537.59,-58.66 530.71,-44.73"/>
<polygon fill="black" stroke="black" points="533.78,-43.04 526.21,-35.63 527.51,-46.14 533.78,-43.04"/>
<text text-anchor="middle" x="555.5" y="-57.8" font-family="Times,serif" font-size="14.00">dep</text>
</g>
<!-- 7 -->
<g id="node8" class="node">
<title>7</title>
<ellipse fill="none" stroke="black" cx="602" cy="-18" rx="34.39" ry="18"/>
<text text-anchor="middle" x="602" y="-14.3" font-family="Times,serif" font-size="14.00">fazer</text>
</g>
<!-- 0&#45;&gt;7 -->
<g id="edge7" class="edge">
<title>0&#45;&gt;7</title>
<path fill="none" stroke="black" d="M568.09,-87.61C574.1,-75.46 582.4,-58.66 589.29,-44.73"/>
<polygon fill="black" stroke="black" points="592.49,-46.14 593.78,-35.63 586.21,-43.04 592.49,-46.14"/>
<text text-anchor="middle" x="597.5" y="-57.8" font-family="Times,serif" font-size="14.00">dep</text>
</g>
<!-- 8 -->
<g id="node9" class="node">
<title>8</title>
<ellipse fill="none" stroke="black" cx="685" cy="-18" rx="30.59" ry="18"/>
<text text-anchor="middle" x="685" y="-14.3" font-family="Times,serif" font-size="14.00">uma</text>
</g>
<!-- 0&#45;&gt;8 -->
<g id="edge8" class="edge">
<title>0&#45;&gt;8</title>
<path fill="none" stroke="black" d="M579.25,-92.1C589.88,-85.44 603.27,-76.91 615,-69 629.38,-59.3 645.13,-48.1 658.04,-38.77"/>
<polygon fill="black" stroke="black" points="660.43,-41.35 666.47,-32.64 656.32,-35.69 660.43,-41.35"/>
<text text-anchor="middle" x="650.5" y="-57.8" font-family="Times,serif" font-size="14.00">dep</text>
</g>
<!-- 9 -->
<g id="node10" class="node">
<title>9</title>
<ellipse fill="none" stroke="black" cx="801" cy="-18" rx="67.69" ry="18"/>
<text text-anchor="middle" x="801" y="-14.3" font-family="Times,serif" font-size="14.00">homenagem</text>
</g>
<!-- 0&#45;&gt;9 -->
<g id="edge9" class="edge">
<title>0&#45;&gt;9</title>
<path fill="none" stroke="black" d="M584.12,-96.53C606.08,-89.65 639.35,-79.02 668,-69 697.11,-58.82 729.51,-46.65 755.04,-36.87"/>
<polygon fill="black" stroke="black" points="756.39,-40.11 764.47,-33.25 753.88,-33.57 756.39,-40.11"/>
<text text-anchor="middle" x="722.5" y="-57.8" font-family="Times,serif" font-size="14.00">dep</text>
</g>
<!-- 10 -->
<g id="node11" class="node">
<title>10</title>
<ellipse fill="none" stroke="black" cx="914" cy="-18" rx="27" ry="18"/>
<text text-anchor="middle" x="914" y="-14.3" font-family="Times,serif" font-size="14.00">a</text>
</g>
<!-- 0&#45;&gt;10 -->
<g id="edge10" class="edge">
<title>0&#45;&gt;10</title>
<path fill="none" stroke="black" d="M586.58,-100.65C641.99,-93.16 773.33,-72.78 878,-36 879.9,-35.33 881.85,-34.59 883.79,-33.81"/>
<polygon fill="black" stroke="black" points="885.59,-36.84 893.36,-29.63 882.8,-30.42 885.59,-36.84"/>
<text text-anchor="middle" x="832.5" y="-57.8" font-family="Times,serif" font-size="14.00">dep</text>
</g>
<!-- 11 -->
<g id="node12" class="node">
<title>11</title>
<ellipse fill="none" stroke="black" cx="999" cy="-18" rx="39.79" ry="18"/>
<text text-anchor="middle" x="999" y="-14.3" font-family="Times,serif" font-size="14.00">Zappa</text>
</g>
<!-- 0&#45;&gt;11 -->
<g id="edge11" class="edge">
<title>0&#45;&gt;11</title>
<path fill="none" stroke="black" d="M587.09,-102.53C638.75,-99.33 754.72,-90.25 850,-69 888.52,-60.41 931.08,-45.56 960.81,-34.27"/>
<polygon fill="black" stroke="black" points="962.3,-37.45 970.38,-30.6 959.79,-30.92 962.3,-37.45"/>
<text text-anchor="middle" x="918.5" y="-57.8" font-family="Times,serif" font-size="14.00">dep</text>
</g>
<!-- 12 -->
<g id="node13" class="node">
<title>12</title>
<ellipse fill="none" stroke="black" cx="1084" cy="-18" rx="27" ry="18"/>
<text text-anchor="middle" x="1084" y="-14.3" font-family="Times,serif" font-size="14.00">.</text>
</g>
<!-- 0&#45;&gt;12 -->
<g id="edge12" class="edge">
<title>0&#45;&gt;12</title>
<path fill="none" stroke="black" d="M587.15,-103.27C649.38,-101.22 806.91,-93.78 936,-69 986.96,-59.22 999.5,-54.47 1048,-36 1049.84,-35.3 1051.71,-34.54 1053.6,-33.75"/>
<polygon fill="black" stroke="black" points="1055.19,-36.88 1062.91,-29.62 1052.35,-30.48 1055.19,-36.88"/>
<text text-anchor="middle" x="1012.5" y="-57.8" font-family="Times,serif" font-size="14.00">dep</text>
</g>
</g>
</svg>
