<?xml version="1.0" encoding="UTF-8" standalone="no"?>
<!DOCTYPE svg PUBLIC "-//W3C//DTD SVG 1.1//EN"
 "http://www.w3.org/Graphics/SVG/1.1/DTD/svg11.dtd">
<!-- Generated by graphviz version 2.42.4 (0)
 -->
<!-- Pages: 1 -->
<svg width="3987pt" height="131pt"
 viewBox="0.00 0.00 3987.00 131.00" xmlns="http://www.w3.org/2000/svg" xmlns:xlink="http://www.w3.org/1999/xlink">
<g id="graph0" class="graph" transform="scale(1 1) rotate(0) translate(4 127)">
<polygon fill="white" stroke="transparent" points="-4,4 -4,-127 3983,-127 3983,4 -4,4"/>
<!-- 0 -->
<g id="node1" class="node">
<title>0</title>
<ellipse fill="none" stroke="black" cx="2001" cy="-105" rx="27" ry="18"/>
<text text-anchor="middle" x="2001" y="-101.3" font-family="Times,serif" font-size="14.00">«</text>
</g>
<!-- 1 -->
<g id="node2" class="node">
<title>1</title>
<ellipse fill="none" stroke="black" cx="27" cy="-18" rx="27" ry="18"/>
<text text-anchor="middle" x="27" y="-14.3" font-family="Times,serif" font-size="14.00">Há</text>
</g>
<!-- 0&#45;&gt;1 -->
<g id="edge1" class="edge">
<title>0&#45;&gt;1</title>
<path fill="none" stroke="black" d="M1973.8,-103.82C1762.37,-102.39 385.03,-92.24 202,-69 139.01,-61 122.92,-57 63,-36 61.09,-35.33 59.15,-34.59 57.21,-33.81"/>
<polygon fill="black" stroke="black" points="58.2,-30.42 47.63,-29.64 55.4,-36.84 58.2,-30.42"/>
<text text-anchor="middle" x="215.5" y="-57.8" font-family="Times,serif" font-size="14.00">dep</text>
</g>
<!-- 2 -->
<g id="node3" class="node">
<title>2</title>
<ellipse fill="none" stroke="black" cx="126" cy="-18" rx="53.89" ry="18"/>
<text text-anchor="middle" x="126" y="-14.3" font-family="Times,serif" font-size="14.00">situações</text>
</g>
<!-- 0&#45;&gt;2 -->
<g id="edge2" class="edge">
<title>0&#45;&gt;2</title>
<path fill="none" stroke="black" d="M1973.99,-103.87C1769.77,-102.8 472.13,-95.05 300,-69 255.03,-62.19 205.3,-47.11 170.56,-35.27"/>
<polygon fill="black" stroke="black" points="171.32,-31.83 160.73,-31.87 169.04,-38.45 171.32,-31.83"/>
<text text-anchor="middle" x="313.5" y="-57.8" font-family="Times,serif" font-size="14.00">dep</text>
</g>
<!-- 3 -->
<g id="node4" class="node">
<title>3</title>
<ellipse fill="none" stroke="black" cx="251" cy="-18" rx="53.09" ry="18"/>
<text text-anchor="middle" x="251" y="-14.3" font-family="Times,serif" font-size="14.00">gritantes</text>
</g>
<!-- 0&#45;&gt;3 -->
<g id="edge3" class="edge">
<title>0&#45;&gt;3</title>
<path fill="none" stroke="black" d="M1974.03,-103.97C1775.63,-103.66 545.21,-100.51 383,-69 350.26,-62.64 315.02,-48.91 289.19,-37.44"/>
<polygon fill="black" stroke="black" points="290.33,-34.12 279.78,-33.18 287.44,-40.49 290.33,-34.12"/>
<text text-anchor="middle" x="396.5" y="-57.8" font-family="Times,serif" font-size="14.00">dep</text>
</g>
<!-- 4 -->
<g id="node5" class="node">
<title>4</title>
<ellipse fill="none" stroke="black" cx="349" cy="-18" rx="27" ry="18"/>
<text text-anchor="middle" x="349" y="-14.3" font-family="Times,serif" font-size="14.00">a</text>
</g>
<!-- 0&#45;&gt;4 -->
<g id="edge4" class="edge">
<title>0&#45;&gt;4</title>
<path fill="none" stroke="black" d="M1974.02,-104.05C1780.77,-104.29 610.35,-104.29 457,-69 428.23,-62.38 397.94,-47.58 376.78,-35.79"/>
<polygon fill="black" stroke="black" points="378.44,-32.71 368.02,-30.79 374.97,-38.78 378.44,-32.71"/>
<text text-anchor="middle" x="470.5" y="-57.8" font-family="Times,serif" font-size="14.00">dep</text>
</g>
<!-- 5 -->
<g id="node6" class="node">
<title>5</title>
<ellipse fill="none" stroke="black" cx="421" cy="-18" rx="27" ry="18"/>
<text text-anchor="middle" x="421" y="-14.3" font-family="Times,serif" font-size="14.00">o</text>
</g>
<!-- 0&#45;&gt;5 -->
<g id="edge5" class="edge">
<title>0&#45;&gt;5</title>
<path fill="none" stroke="black" d="M1973.85,-103.99C1785.58,-103.82 677.75,-101.46 532,-69 502.53,-62.44 471.38,-47.63 449.61,-35.82"/>
<polygon fill="black" stroke="black" points="451.04,-32.61 440.59,-30.81 447.64,-38.73 451.04,-32.61"/>
<text text-anchor="middle" x="545.5" y="-57.8" font-family="Times,serif" font-size="14.00">dep</text>
</g>
<!-- 6 -->
<g id="node7" class="node">
<title>6</title>
<ellipse fill="none" stroke="black" cx="493" cy="-18" rx="27" ry="18"/>
<text text-anchor="middle" x="493" y="-14.3" font-family="Times,serif" font-size="14.00">pé</text>
</g>
<!-- 0&#45;&gt;6 -->
<g id="edge6" class="edge">
<title>0&#45;&gt;6</title>
<path fill="none" stroke="black" d="M1973.81,-103.92C1791.17,-103.3 746.1,-98.49 608,-69 577.26,-62.44 544.62,-47.37 521.99,-35.48"/>
<polygon fill="black" stroke="black" points="523.41,-32.27 512.95,-30.62 520.1,-38.44 523.41,-32.27"/>
<text text-anchor="middle" x="621.5" y="-57.8" font-family="Times,serif" font-size="14.00">dep</text>
</g>
<!-- 7 -->
<g id="node8" class="node">
<title>7</title>
<ellipse fill="none" stroke="black" cx="565" cy="-18" rx="27" ry="18"/>
<text text-anchor="middle" x="565" y="-14.3" font-family="Times,serif" font-size="14.00">de</text>
</g>
<!-- 0&#45;&gt;7 -->
<g id="edge7" class="edge">
<title>0&#45;&gt;7</title>
<path fill="none" stroke="black" d="M1973.96,-103.83C1797.87,-102.65 817.3,-94.94 687,-69 653.9,-62.41 618.46,-46.83 594.36,-34.8"/>
<polygon fill="black" stroke="black" points="595.89,-31.65 585.39,-30.22 592.71,-37.88 595.89,-31.65"/>
<text text-anchor="middle" x="700.5" y="-57.8" font-family="Times,serif" font-size="14.00">dep</text>
</g>
<!-- 8 -->
<g id="node9" class="node">
<title>8</title>
<ellipse fill="none" stroke="black" cx="637" cy="-18" rx="27" ry="18"/>
<text text-anchor="middle" x="637" y="-14.3" font-family="Times,serif" font-size="14.00">a</text>
</g>
<!-- 0&#45;&gt;8 -->
<g id="edge8" class="edge">
<title>0&#45;&gt;8</title>
<path fill="none" stroke="black" d="M1974.06,-103.72C1804.87,-101.88 892.11,-90.99 770,-69 733.24,-62.38 693.44,-46.1 667.06,-33.9"/>
<polygon fill="black" stroke="black" points="668.51,-30.72 657.97,-29.62 665.52,-37.05 668.51,-30.72"/>
<text text-anchor="middle" x="783.5" y="-57.8" font-family="Times,serif" font-size="14.00">dep</text>
</g>
<!-- 9 -->
<g id="node10" class="node">
<title>9</title>
<ellipse fill="none" stroke="black" cx="719" cy="-18" rx="37.09" ry="18"/>
<text text-anchor="middle" x="719" y="-14.3" font-family="Times,serif" font-size="14.00">nossa</text>
</g>
<!-- 0&#45;&gt;9 -->
<g id="edge9" class="edge">
<title>0&#45;&gt;9</title>
<path fill="none" stroke="black" d="M1974.06,-103.7C1811.63,-101.85 966.12,-91.2 853,-69 818.06,-62.14 780.22,-47.28 753.69,-35.53"/>
<polygon fill="black" stroke="black" points="755.01,-32.29 744.46,-31.37 752.13,-38.67 755.01,-32.29"/>
<text text-anchor="middle" x="866.5" y="-57.8" font-family="Times,serif" font-size="14.00">dep</text>
</g>
<!-- 10 -->
<g id="node11" class="node">
<title>10</title>
<ellipse fill="none" stroke="black" cx="810" cy="-18" rx="36" ry="18"/>
<text text-anchor="middle" x="810" y="-14.3" font-family="Times,serif" font-size="14.00">porta</text>
</g>
<!-- 0&#45;&gt;10 -->
<g id="edge10" class="edge">
<title>0&#45;&gt;10</title>
<path fill="none" stroke="black" d="M1973.9,-103.69C1817.79,-101.81 1036.52,-91.37 932,-69 900.38,-62.23 866.51,-47.71 842.5,-36.05"/>
<polygon fill="black" stroke="black" points="844.01,-32.89 833.49,-31.59 840.9,-39.16 844.01,-32.89"/>
<text text-anchor="middle" x="945.5" y="-57.8" font-family="Times,serif" font-size="14.00">dep</text>
</g>
<!-- 11 -->
<g id="node12" class="node">
<title>11</title>
<ellipse fill="none" stroke="black" cx="891" cy="-18" rx="27" ry="18"/>
<text text-anchor="middle" x="891" y="-14.3" font-family="Times,serif" font-size="14.00">»</text>
</g>
<!-- 0&#45;&gt;11 -->
<g id="edge11" class="edge">
<title>0&#45;&gt;11</title>
<path fill="none" stroke="black" d="M1973.93,-103.6C1824.71,-101.35 1105.62,-89.49 1009,-69 977.24,-62.27 943.36,-46.97 920.08,-35.05"/>
<polygon fill="black" stroke="black" points="921.58,-31.89 911.1,-30.35 918.34,-38.09 921.58,-31.89"/>
<text text-anchor="middle" x="1022.5" y="-57.8" font-family="Times,serif" font-size="14.00">dep</text>
</g>
<!-- 12 -->
<g id="node13" class="node">
<title>12</title>
<ellipse fill="none" stroke="black" cx="963" cy="-18" rx="27" ry="18"/>
<text text-anchor="middle" x="963" y="-14.3" font-family="Times,serif" font-size="14.00">,</text>
</g>
<!-- 0&#45;&gt;12 -->
<g id="edge12" class="edge">
<title>0&#45;&gt;12</title>
<path fill="none" stroke="black" d="M1973.63,-104.09C1841.13,-104.32 1265.53,-103.33 1090,-69 1055.36,-62.22 1018.03,-46.4 992.87,-34.36"/>
<polygon fill="black" stroke="black" points="994.38,-31.2 983.85,-29.95 991.3,-37.49 994.38,-31.2"/>
<text text-anchor="middle" x="1103.5" y="-57.8" font-family="Times,serif" font-size="14.00">dep</text>
</g>
<!-- 13 -->
<g id="node14" class="node">
<title>13</title>
<ellipse fill="none" stroke="black" cx="1042" cy="-18" rx="34.39" ry="18"/>
<text text-anchor="middle" x="1042" y="-14.3" font-family="Times,serif" font-size="14.00">disse</text>
</g>
<!-- 0&#45;&gt;13 -->
<g id="edge13" class="edge">
<title>0&#45;&gt;13</title>
<path fill="none" stroke="black" d="M1973.63,-104.02C1848.52,-103.91 1330.4,-101.5 1172,-69 1137.97,-62.02 1101.2,-47.13 1075.48,-35.4"/>
<polygon fill="black" stroke="black" points="1076.73,-32.13 1066.19,-31.09 1073.78,-38.48 1076.73,-32.13"/>
<text text-anchor="middle" x="1185.5" y="-57.8" font-family="Times,serif" font-size="14.00">dep</text>
</g>
<!-- 14 -->
<g id="node15" class="node">
<title>14</title>
<ellipse fill="none" stroke="black" cx="1121" cy="-18" rx="27" ry="18"/>
<text text-anchor="middle" x="1121" y="-14.3" font-family="Times,serif" font-size="14.00">a</text>
</g>
<!-- 0&#45;&gt;14 -->
<g id="edge14" class="edge">
<title>0&#45;&gt;14</title>
<path fill="none" stroke="black" d="M1973.74,-103.72C1856.87,-102.37 1397.77,-95.43 1256,-69 1218.8,-62.06 1178.38,-45.84 1151.56,-33.75"/>
<polygon fill="black" stroke="black" points="1152.88,-30.5 1142.33,-29.5 1149.95,-36.86 1152.88,-30.5"/>
<text text-anchor="middle" x="1269.5" y="-57.8" font-family="Times,serif" font-size="14.00">dep</text>
</g>
<!-- 15 -->
<g id="node16" class="node">
<title>15</title>
<ellipse fill="none" stroke="black" cx="1193" cy="-18" rx="27" ry="18"/>
<text text-anchor="middle" x="1193" y="-14.3" font-family="Times,serif" font-size="14.00">o</text>
</g>
<!-- 0&#45;&gt;15 -->
<g id="edge15" class="edge">
<title>0&#45;&gt;15</title>
<path fill="none" stroke="black" d="M1973.86,-104.27C1885.58,-104.79 1598.84,-103.51 1365,-69 1303.47,-59.92 1287.65,-56.72 1229,-36 1227.09,-35.33 1225.15,-34.59 1223.21,-33.8"/>
<polygon fill="black" stroke="black" points="1224.2,-30.41 1213.64,-29.62 1221.4,-36.83 1224.2,-30.41"/>
<text text-anchor="middle" x="1378.5" y="-57.8" font-family="Times,serif" font-size="14.00">dep</text>
</g>
<!-- 16 -->
<g id="node17" class="node">
<title>16</title>
<ellipse fill="none" stroke="black" cx="1293" cy="-18" rx="54.69" ry="18"/>
<text text-anchor="middle" x="1293" y="-14.3" font-family="Times,serif" font-size="14.00">PÚBLICO</text>
</g>
<!-- 0&#45;&gt;16 -->
<g id="edge16" class="edge">
<title>0&#45;&gt;16</title>
<path fill="none" stroke="black" d="M1973.97,-104.52C1893.86,-105.59 1650.98,-105.36 1454,-69 1413.31,-61.49 1368.46,-47.03 1336.45,-35.58"/>
<polygon fill="black" stroke="black" points="1337.55,-32.25 1326.95,-32.13 1335.16,-38.83 1337.55,-32.25"/>
<text text-anchor="middle" x="1467.5" y="-57.8" font-family="Times,serif" font-size="14.00">dep</text>
</g>
<!-- 17 -->
<g id="node18" class="node">
<title>17</title>
<ellipse fill="none" stroke="black" cx="1393" cy="-18" rx="27" ry="18"/>
<text text-anchor="middle" x="1393" y="-14.3" font-family="Times,serif" font-size="14.00">o</text>
</g>
<!-- 0&#45;&gt;17 -->
<g id="edge17" class="edge">
<title>0&#45;&gt;17</title>
<path fill="none" stroke="black" d="M1973.9,-103.45C1904.47,-101.7 1714.69,-94.73 1559,-69 1500.19,-59.28 1485.1,-56.15 1429,-36 1427.15,-35.33 1425.26,-34.61 1423.37,-33.84"/>
<polygon fill="black" stroke="black" points="1424.6,-30.55 1414.03,-29.76 1421.8,-36.97 1424.6,-30.55"/>
<text text-anchor="middle" x="1572.5" y="-57.8" font-family="Times,serif" font-size="14.00">dep</text>
</g>
<!-- 18 -->
<g id="node19" class="node">
<title>18</title>
<ellipse fill="none" stroke="black" cx="1470" cy="-18" rx="32.49" ry="18"/>
<text text-anchor="middle" x="1470" y="-14.3" font-family="Times,serif" font-size="14.00">novo</text>
</g>
<!-- 0&#45;&gt;18 -->
<g id="edge18" class="edge">
<title>0&#45;&gt;18</title>
<path fill="none" stroke="black" d="M1974.09,-103.18C1899.13,-100.27 1682.24,-87.65 1511,-36 1508.7,-35.31 1506.35,-34.53 1503.99,-33.7"/>
<polygon fill="black" stroke="black" points="1505.02,-30.34 1494.43,-30.06 1502.53,-36.89 1505.02,-30.34"/>
<text text-anchor="middle" x="1656.5" y="-57.8" font-family="Times,serif" font-size="14.00">dep</text>
</g>
<!-- 19 -->
<g id="node20" class="node">
<title>19</title>
<ellipse fill="none" stroke="black" cx="1577" cy="-18" rx="56.59" ry="18"/>
<text text-anchor="middle" x="1577" y="-14.3" font-family="Times,serif" font-size="14.00">provincial</text>
</g>
<!-- 0&#45;&gt;19 -->
<g id="edge19" class="edge">
<title>0&#45;&gt;19</title>
<path fill="none" stroke="black" d="M1974.54,-100.65C1932.35,-95.13 1847.32,-83.3 1776,-69 1715.86,-56.94 1701.45,-51.09 1642,-36 1637.87,-34.95 1633.59,-33.85 1629.29,-32.75"/>
<polygon fill="black" stroke="black" points="1629.84,-29.27 1619.28,-30.15 1628.09,-36.05 1629.84,-29.27"/>
<text text-anchor="middle" x="1789.5" y="-57.8" font-family="Times,serif" font-size="14.00">dep</text>
</g>
<!-- 20 -->
<g id="node21" class="node">
<title>20</title>
<ellipse fill="none" stroke="black" cx="1709" cy="-18" rx="57.69" ry="18"/>
<text text-anchor="middle" x="1709" y="-14.3" font-family="Times,serif" font-size="14.00">português</text>
</g>
<!-- 0&#45;&gt;20 -->
<g id="edge20" class="edge">
<title>0&#45;&gt;20</title>
<path fill="none" stroke="black" d="M1975.39,-98.99C1945.17,-92.86 1893.52,-81.72 1850,-69 1817.11,-59.39 1780.66,-46.4 1753.07,-36.07"/>
<polygon fill="black" stroke="black" points="1754.29,-32.79 1743.7,-32.54 1751.82,-39.34 1754.29,-32.79"/>
<text text-anchor="middle" x="1863.5" y="-57.8" font-family="Times,serif" font-size="14.00">dep</text>
</g>
<!-- 21 -->
<g id="node22" class="node">
<title>21</title>
<ellipse fill="none" stroke="black" cx="1812" cy="-18" rx="27" ry="18"/>
<text text-anchor="middle" x="1812" y="-14.3" font-family="Times,serif" font-size="14.00">,</text>
</g>
<!-- 0&#45;&gt;21 -->
<g id="edge21" class="edge">
<title>0&#45;&gt;21</title>
<path fill="none" stroke="black" d="M1977.81,-95.69C1959.49,-88.95 1933.36,-78.96 1911,-69 1887.27,-58.42 1861.05,-45.11 1841.56,-34.88"/>
<polygon fill="black" stroke="black" points="1843.05,-31.7 1832.58,-30.13 1839.78,-37.89 1843.05,-31.7"/>
<text text-anchor="middle" x="1924.5" y="-57.8" font-family="Times,serif" font-size="14.00">dep</text>
</g>
<!-- 22 -->
<g id="node23" class="node">
<title>22</title>
<ellipse fill="none" stroke="black" cx="1895" cy="-18" rx="37.89" ry="18"/>
<text text-anchor="middle" x="1895" y="-14.3" font-family="Times,serif" font-size="14.00">padre</text>
</g>
<!-- 0&#45;&gt;22 -->
<g id="edge22" class="edge">
<title>0&#45;&gt;22</title>
<path fill="none" stroke="black" d="M1984.44,-90.72C1967.62,-77.24 1941.33,-56.15 1921.59,-40.33"/>
<polygon fill="black" stroke="black" points="1923.58,-37.43 1913.59,-33.9 1919.2,-42.89 1923.58,-37.43"/>
<text text-anchor="middle" x="1968.5" y="-57.8" font-family="Times,serif" font-size="14.00">dep</text>
</g>
<!-- 23 -->
<g id="node24" class="node">
<title>23</title>
<ellipse fill="none" stroke="black" cx="2001" cy="-18" rx="50.09" ry="18"/>
<text text-anchor="middle" x="2001" y="-14.3" font-family="Times,serif" font-size="14.00">Eduardo</text>
</g>
<!-- 0&#45;&gt;23 -->
<g id="edge23" class="edge">
<title>0&#45;&gt;23</title>
<path fill="none" stroke="black" d="M2001,-86.8C2001,-75.16 2001,-59.55 2001,-46.24"/>
<polygon fill="black" stroke="black" points="2004.5,-46.18 2001,-36.18 1997.5,-46.18 2004.5,-46.18"/>
<text text-anchor="middle" x="2014.5" y="-57.8" font-family="Times,serif" font-size="14.00">dep</text>
</g>
<!-- 24 -->
<g id="node25" class="node">
<title>24</title>
<ellipse fill="none" stroke="black" cx="2121" cy="-18" rx="51.99" ry="18"/>
<text text-anchor="middle" x="2121" y="-14.3" font-family="Times,serif" font-size="14.00">Marques</text>
</g>
<!-- 0&#45;&gt;24 -->
<g id="edge24" class="edge">
<title>0&#45;&gt;24</title>
<path fill="none" stroke="black" d="M2018.97,-91.27C2037.98,-77.8 2068.32,-56.32 2090.98,-40.27"/>
<polygon fill="black" stroke="black" points="2093.11,-43.04 2099.25,-34.41 2089.06,-37.33 2093.11,-43.04"/>
<text text-anchor="middle" x="2082.5" y="-57.8" font-family="Times,serif" font-size="14.00">dep</text>
</g>
<!-- 25 -->
<g id="node26" class="node">
<title>25</title>
<ellipse fill="none" stroke="black" cx="2240" cy="-18" rx="48.99" ry="18"/>
<text text-anchor="middle" x="2240" y="-14.3" font-family="Times,serif" font-size="14.00">Ferreira</text>
</g>
<!-- 0&#45;&gt;25 -->
<g id="edge25" class="edge">
<title>0&#45;&gt;25</title>
<path fill="none" stroke="black" d="M2024.61,-95.68C2044.67,-88.6 2074.23,-78.16 2100,-69 2132.38,-57.49 2168.95,-44.43 2196.59,-34.54"/>
<polygon fill="black" stroke="black" points="2198.11,-37.72 2206.35,-31.05 2195.75,-31.13 2198.11,-37.72"/>
<text text-anchor="middle" x="2152.5" y="-57.8" font-family="Times,serif" font-size="14.00">dep</text>
</g>
<!-- 26 -->
<g id="node27" class="node">
<title>26</title>
<ellipse fill="none" stroke="black" cx="2334" cy="-18" rx="27" ry="18"/>
<text text-anchor="middle" x="2334" y="-14.3" font-family="Times,serif" font-size="14.00">,</text>
</g>
<!-- 0&#45;&gt;26 -->
<g id="edge26" class="edge">
<title>0&#45;&gt;26</title>
<path fill="none" stroke="black" d="M2027.43,-100.17C2080.07,-92.05 2201.24,-70.96 2298,-36 2299.85,-35.33 2301.74,-34.6 2303.63,-33.83"/>
<polygon fill="black" stroke="black" points="2305.2,-36.96 2312.96,-29.75 2302.4,-30.55 2305.2,-36.96"/>
<text text-anchor="middle" x="2248.5" y="-57.8" font-family="Times,serif" font-size="14.00">dep</text>
</g>
<!-- 27 -->
<g id="node28" class="node">
<title>27</title>
<ellipse fill="none" stroke="black" cx="2406" cy="-18" rx="27" ry="18"/>
<text text-anchor="middle" x="2406" y="-14.3" font-family="Times,serif" font-size="14.00">43</text>
</g>
<!-- 0&#45;&gt;27 -->
<g id="edge27" class="edge">
<title>0&#45;&gt;27</title>
<path fill="none" stroke="black" d="M2027.98,-102.01C2076.2,-98.12 2180.17,-88.13 2266,-69 2313.33,-58.45 2324.86,-53.73 2370,-36 2371.83,-35.28 2373.71,-34.51 2375.58,-33.71"/>
<polygon fill="black" stroke="black" points="2377.19,-36.83 2384.89,-29.55 2374.33,-30.44 2377.19,-36.83"/>
<text text-anchor="middle" x="2336.5" y="-57.8" font-family="Times,serif" font-size="14.00">dep</text>
</g>
<!-- 28 -->
<g id="node29" class="node">
<title>28</title>
<ellipse fill="none" stroke="black" cx="2483" cy="-18" rx="32.49" ry="18"/>
<text text-anchor="middle" x="2483" y="-14.3" font-family="Times,serif" font-size="14.00">anos</text>
</g>
<!-- 0&#45;&gt;28 -->
<g id="edge28" class="edge">
<title>0&#45;&gt;28</title>
<path fill="none" stroke="black" d="M2027.96,-103.7C2087.54,-102.53 2234.64,-96.8 2354,-69 2387.81,-61.13 2424.56,-46.21 2450.16,-34.7"/>
<polygon fill="black" stroke="black" points="2451.75,-37.82 2459.39,-30.49 2448.84,-31.46 2451.75,-37.82"/>
<text text-anchor="middle" x="2415.5" y="-57.8" font-family="Times,serif" font-size="14.00">dep</text>
</g>
<!-- 29 -->
<g id="node30" class="node">
<title>29</title>
<ellipse fill="none" stroke="black" cx="2560" cy="-18" rx="27" ry="18"/>
<text text-anchor="middle" x="2560" y="-14.3" font-family="Times,serif" font-size="14.00">,</text>
</g>
<!-- 0&#45;&gt;29 -->
<g id="edge29" class="edge">
<title>0&#45;&gt;29</title>
<path fill="none" stroke="black" d="M2028.16,-104.29C2096.83,-104.5 2282.64,-101.73 2433,-69 2467.49,-61.49 2504.85,-45.79 2530.05,-33.97"/>
<polygon fill="black" stroke="black" points="2531.57,-37.13 2539.09,-29.66 2528.55,-30.81 2531.57,-37.13"/>
<text text-anchor="middle" x="2493.5" y="-57.8" font-family="Times,serif" font-size="14.00">dep</text>
</g>
<!-- 30 -->
<g id="node31" class="node">
<title>30</title>
<ellipse fill="none" stroke="black" cx="2641" cy="-18" rx="36.29" ry="18"/>
<text text-anchor="middle" x="2641" y="-14.3" font-family="Times,serif" font-size="14.00">eleito</text>
</g>
<!-- 0&#45;&gt;30 -->
<g id="edge30" class="edge">
<title>0&#45;&gt;30</title>
<path fill="none" stroke="black" d="M2027.93,-103.21C2119.37,-100.37 2417.52,-89.69 2511,-69 2544.5,-61.59 2580.79,-47.03 2606.5,-35.53"/>
<polygon fill="black" stroke="black" points="2608.15,-38.62 2615.8,-31.29 2605.25,-32.25 2608.15,-38.62"/>
<text text-anchor="middle" x="2572.5" y="-57.8" font-family="Times,serif" font-size="14.00">dep</text>
</g>
<!-- 31 -->
<g id="node32" class="node">
<title>31</title>
<ellipse fill="none" stroke="black" cx="2756" cy="-18" rx="60.39" ry="18"/>
<text text-anchor="middle" x="2756" y="-14.3" font-family="Times,serif" font-size="14.00">anteontem</text>
</g>
<!-- 0&#45;&gt;31 -->
<g id="edge31" class="edge">
<title>0&#45;&gt;31</title>
<path fill="none" stroke="black" d="M2028.12,-103.23C2128.64,-100.24 2479.82,-88.59 2590,-69 2631.49,-61.62 2677.25,-47.36 2710.2,-35.95"/>
<polygon fill="black" stroke="black" points="2711.72,-39.12 2720,-32.51 2709.4,-32.52 2711.72,-39.12"/>
<text text-anchor="middle" x="2664.5" y="-57.8" font-family="Times,serif" font-size="14.00">dep</text>
</g>
<!-- 32 -->
<g id="node33" class="node">
<title>32</title>
<ellipse fill="none" stroke="black" cx="2861" cy="-18" rx="27" ry="18"/>
<text text-anchor="middle" x="2861" y="-14.3" font-family="Times,serif" font-size="14.00">,</text>
</g>
<!-- 0&#45;&gt;32 -->
<g id="edge32" class="edge">
<title>0&#45;&gt;32</title>
<path fill="none" stroke="black" d="M2028.09,-104.31C2120.21,-104.99 2429.64,-104.33 2682,-69 2746.6,-59.96 2763.38,-57.38 2825,-36 2826.91,-35.34 2828.85,-34.6 2830.8,-33.83"/>
<polygon fill="black" stroke="black" points="2832.6,-36.86 2840.38,-29.66 2829.81,-30.44 2832.6,-36.86"/>
<text text-anchor="middle" x="2780.5" y="-57.8" font-family="Times,serif" font-size="14.00">dep</text>
</g>
<!-- 33 -->
<g id="node34" class="node">
<title>33</title>
<ellipse fill="none" stroke="black" cx="2933" cy="-18" rx="27" ry="18"/>
<text text-anchor="middle" x="2933" y="-14.3" font-family="Times,serif" font-size="14.00">em</text>
</g>
<!-- 0&#45;&gt;33 -->
<g id="edge33" class="edge">
<title>0&#45;&gt;33</title>
<path fill="none" stroke="black" d="M2028.1,-103.82C2149.66,-102.85 2645.46,-97.2 2798,-69 2835.21,-62.12 2875.63,-45.89 2902.44,-33.77"/>
<polygon fill="black" stroke="black" points="2904.06,-36.88 2911.68,-29.52 2901.13,-30.53 2904.06,-36.88"/>
<text text-anchor="middle" x="2865.5" y="-57.8" font-family="Times,serif" font-size="14.00">dep</text>
</g>
<!-- 34 -->
<g id="node35" class="node">
<title>34</title>
<ellipse fill="none" stroke="black" cx="3005" cy="-18" rx="27" ry="18"/>
<text text-anchor="middle" x="3005" y="-14.3" font-family="Times,serif" font-size="14.00">a</text>
</g>
<!-- 0&#45;&gt;34 -->
<g id="edge34" class="edge">
<title>0&#45;&gt;34</title>
<path fill="none" stroke="black" d="M2028.37,-104.11C2158.32,-104.46 2713.76,-103.84 2883,-69 2916.05,-62.2 2951.5,-46.65 2975.62,-34.68"/>
<polygon fill="black" stroke="black" points="2977.25,-37.77 2984.59,-30.13 2974.09,-31.53 2977.25,-37.77"/>
<text text-anchor="middle" x="2945.5" y="-57.8" font-family="Times,serif" font-size="14.00">dep</text>
</g>
<!-- 35 -->
<g id="node36" class="node">
<title>35</title>
<ellipse fill="none" stroke="black" cx="3080" cy="-18" rx="29.8" ry="18"/>
<text text-anchor="middle" x="3080" y="-14.3" font-family="Times,serif" font-size="14.00">fase</text>
</g>
<!-- 0&#45;&gt;35 -->
<g id="edge35" class="edge">
<title>0&#45;&gt;35</title>
<path fill="none" stroke="black" d="M2028.21,-103.6C2175.04,-101.35 2869.69,-89.7 2963,-69 2993.89,-62.15 3026.85,-47.3 3049.89,-35.56"/>
<polygon fill="black" stroke="black" points="3051.56,-38.64 3058.81,-30.91 3048.33,-32.43 3051.56,-38.64"/>
<text text-anchor="middle" x="3023.5" y="-57.8" font-family="Times,serif" font-size="14.00">dep</text>
</g>
<!-- 36 -->
<g id="node37" class="node">
<title>36</title>
<ellipse fill="none" stroke="black" cx="3158" cy="-18" rx="30.59" ry="18"/>
<text text-anchor="middle" x="3158" y="-14.3" font-family="Times,serif" font-size="14.00">final</text>
</g>
<!-- 0&#45;&gt;36 -->
<g id="edge36" class="edge">
<title>0&#45;&gt;36</title>
<path fill="none" stroke="black" d="M2028.11,-103.68C2181.74,-101.78 2939.61,-91.35 3041,-69 3071.71,-62.23 3104.46,-47.52 3127.47,-35.8"/>
<polygon fill="black" stroke="black" points="3129.14,-38.88 3136.4,-31.16 3125.91,-32.67 3129.14,-38.88"/>
<text text-anchor="middle" x="3101.5" y="-57.8" font-family="Times,serif" font-size="14.00">dep</text>
</g>
<!-- 37 -->
<g id="node38" class="node">
<title>37</title>
<ellipse fill="none" stroke="black" cx="3234" cy="-18" rx="27" ry="18"/>
<text text-anchor="middle" x="3234" y="-14.3" font-family="Times,serif" font-size="14.00">de</text>
</g>
<!-- 0&#45;&gt;37 -->
<g id="edge37" class="edge">
<title>0&#45;&gt;37</title>
<path fill="none" stroke="black" d="M2028.03,-103.74C2188.18,-102.13 3009.46,-92.75 3119,-69 3149.72,-62.34 3182.36,-47.29 3204.99,-35.43"/>
<polygon fill="black" stroke="black" points="3206.89,-38.39 3214.05,-30.58 3203.58,-32.22 3206.89,-38.39"/>
<text text-anchor="middle" x="3178.5" y="-57.8" font-family="Times,serif" font-size="14.00">dep</text>
</g>
<!-- 38 -->
<g id="node39" class="node">
<title>38</title>
<ellipse fill="none" stroke="black" cx="3306" cy="-18" rx="27" ry="18"/>
<text text-anchor="middle" x="3306" y="-14.3" font-family="Times,serif" font-size="14.00">a</text>
</g>
<!-- 0&#45;&gt;38 -->
<g id="edge38" class="edge">
<title>0&#45;&gt;38</title>
<path fill="none" stroke="black" d="M2027.98,-103.84C2194.46,-102.75 3078.76,-95.76 3196,-69 3225.22,-62.33 3256.08,-47.54 3277.65,-35.76"/>
<polygon fill="black" stroke="black" points="3279.57,-38.7 3286.59,-30.77 3276.15,-32.59 3279.57,-38.7"/>
<text text-anchor="middle" x="3253.5" y="-57.8" font-family="Times,serif" font-size="14.00">dep</text>
</g>
<!-- 39 -->
<g id="node40" class="node">
<title>39</title>
<ellipse fill="none" stroke="black" cx="3413" cy="-18" rx="62.29" ry="18"/>
<text text-anchor="middle" x="3413" y="-14.3" font-family="Times,serif" font-size="14.00">assembleia</text>
</g>
<!-- 0&#45;&gt;39 -->
<g id="edge39" class="edge">
<title>0&#45;&gt;39</title>
<path fill="none" stroke="black" d="M2027.95,-103.76C2200.32,-102.15 3144.94,-92.34 3271,-69 3305.94,-62.53 3343.83,-48.83 3371.67,-37.4"/>
<polygon fill="black" stroke="black" points="3373.2,-40.56 3381.08,-33.47 3370.5,-34.1 3373.2,-40.56"/>
<text text-anchor="middle" x="3340.5" y="-57.8" font-family="Times,serif" font-size="14.00">dep</text>
</g>
<!-- 40 -->
<g id="node41" class="node">
<title>40</title>
<ellipse fill="none" stroke="black" cx="3520" cy="-18" rx="27" ry="18"/>
<text text-anchor="middle" x="3520" y="-14.3" font-family="Times,serif" font-size="14.00">,</text>
</g>
<!-- 0&#45;&gt;40 -->
<g id="edge40" class="edge">
<title>0&#45;&gt;40</title>
<path fill="none" stroke="black" d="M2028.21,-104.15C2195.65,-104.95 3087.77,-107.35 3358,-69 3415.31,-60.87 3429.59,-55.78 3484,-36 3485.85,-35.33 3487.74,-34.59 3489.63,-33.82"/>
<polygon fill="black" stroke="black" points="3491.2,-36.95 3498.96,-29.73 3488.39,-30.54 3491.2,-36.95"/>
<text text-anchor="middle" x="3444.5" y="-57.8" font-family="Times,serif" font-size="14.00">dep</text>
</g>
<!-- 41 -->
<g id="node42" class="node">
<title>41</title>
<ellipse fill="none" stroke="black" cx="3597" cy="-18" rx="31.7" ry="18"/>
<text text-anchor="middle" x="3597" y="-14.3" font-family="Times,serif" font-size="14.00">para</text>
</g>
<!-- 0&#45;&gt;41 -->
<g id="edge41" class="edge">
<title>0&#45;&gt;41</title>
<path fill="none" stroke="black" d="M2027.98,-103.86C2215.05,-102.84 3315.92,-95.7 3462,-69 3498.35,-62.36 3537.74,-46.71 3564.54,-34.68"/>
<polygon fill="black" stroke="black" points="3566.17,-37.77 3573.81,-30.43 3563.26,-31.41 3566.17,-37.77"/>
<text text-anchor="middle" x="3529.5" y="-57.8" font-family="Times,serif" font-size="14.00">dep</text>
</g>
<!-- 42 -->
<g id="node43" class="node">
<title>42</title>
<ellipse fill="none" stroke="black" cx="3699" cy="-18" rx="51.99" ry="18"/>
<text text-anchor="middle" x="3699" y="-14.3" font-family="Times,serif" font-size="14.00">justificar</text>
</g>
<!-- 0&#45;&gt;42 -->
<g id="edge42" class="edge">
<title>0&#45;&gt;42</title>
<path fill="none" stroke="black" d="M2027.98,-103.87C2221.23,-102.86 3391.72,-95.69 3547,-69 3585.66,-62.35 3627.92,-47.83 3658.05,-36.13"/>
<polygon fill="black" stroke="black" points="3659.36,-39.38 3667.38,-32.45 3656.79,-32.87 3659.36,-39.38"/>
<text text-anchor="middle" x="3620.5" y="-57.8" font-family="Times,serif" font-size="14.00">dep</text>
</g>
<!-- 43 -->
<g id="node44" class="node">
<title>43</title>
<ellipse fill="none" stroke="black" cx="3796" cy="-18" rx="27" ry="18"/>
<text text-anchor="middle" x="3796" y="-14.3" font-family="Times,serif" font-size="14.00">a</text>
</g>
<!-- 0&#45;&gt;43 -->
<g id="edge43" class="edge">
<title>0&#45;&gt;43</title>
<path fill="none" stroke="black" d="M2028.26,-103.82C2228.79,-102.41 3472.52,-92.79 3638,-69 3693.6,-61.01 3707.29,-55.4 3760,-36 3761.85,-35.32 3763.73,-34.58 3765.62,-33.8"/>
<polygon fill="black" stroke="black" points="3767.2,-36.93 3774.95,-29.7 3764.38,-30.52 3767.2,-36.93"/>
<text text-anchor="middle" x="3722.5" y="-57.8" font-family="Times,serif" font-size="14.00">dep</text>
</g>
<!-- 44 -->
<g id="node45" class="node">
<title>44</title>
<ellipse fill="none" stroke="black" cx="3874" cy="-18" rx="33.29" ry="18"/>
<text text-anchor="middle" x="3874" y="-14.3" font-family="Times,serif" font-size="14.00">ideia</text>
</g>
<!-- 0&#45;&gt;44 -->
<g id="edge44" class="edge">
<title>0&#45;&gt;44</title>
<path fill="none" stroke="black" d="M2027.98,-103.98C2234.73,-103.79 3564.79,-101.29 3740,-69 3775.67,-62.43 3814.26,-47.08 3840.82,-35.11"/>
<polygon fill="black" stroke="black" points="3842.41,-38.23 3850.04,-30.87 3839.49,-31.87 3842.41,-38.23"/>
<text text-anchor="middle" x="3806.5" y="-57.8" font-family="Times,serif" font-size="14.00">dep</text>
</g>
<!-- 45 -->
<g id="node46" class="node">
<title>45</title>
<ellipse fill="none" stroke="black" cx="3952" cy="-18" rx="27" ry="18"/>
<text text-anchor="middle" x="3952" y="-14.3" font-family="Times,serif" font-size="14.00">:</text>
</g>
<!-- 0&#45;&gt;45 -->
<g id="edge45" class="edge">
<title>0&#45;&gt;45</title>
<path fill="none" stroke="black" d="M2028.25,-104.01C2241.58,-104.02 3640.02,-102.82 3824,-69 3859.16,-62.54 3897.02,-46.51 3922.37,-34.33"/>
<polygon fill="black" stroke="black" points="3924,-37.42 3931.44,-29.87 3920.92,-31.14 3924,-37.42"/>
<text text-anchor="middle" x="3888.5" y="-57.8" font-family="Times,serif" font-size="14.00">dep</text>
</g>
</g>
</svg>
