<?xml version="1.0" encoding="UTF-8" standalone="no"?>
<!DOCTYPE svg PUBLIC "-//W3C//DTD SVG 1.1//EN"
 "http://www.w3.org/Graphics/SVG/1.1/DTD/svg11.dtd">
<!-- Generated by graphviz version 2.42.4 (0)
 -->
<!-- Pages: 1 -->
<svg width="972pt" height="131pt"
 viewBox="0.00 0.00 972.50 131.00" xmlns="http://www.w3.org/2000/svg" xmlns:xlink="http://www.w3.org/1999/xlink">
<g id="graph0" class="graph" transform="scale(1 1) rotate(0) translate(4 127)">
<polygon fill="white" stroke="transparent" points="-4,4 -4,-127 968.5,-127 968.5,4 -4,4"/>
<!-- 0 -->
<g id="node1" class="node">
<title>0</title>
<ellipse fill="none" stroke="black" cx="514.5" cy="-105" rx="27.1" ry="18"/>
<text text-anchor="middle" x="514.5" y="-101.3" font-family="Times,serif" font-size="14.00">Um</text>
</g>
<!-- 1 -->
<g id="node2" class="node">
<title>1</title>
<ellipse fill="none" stroke="black" cx="45.5" cy="-18" rx="45.49" ry="18"/>
<text text-anchor="middle" x="45.5" y="-14.3" font-family="Times,serif" font-size="14.00">método</text>
</g>
<!-- 0&#45;&gt;1 -->
<g id="edge1" class="edge">
<title>0&#45;&gt;1</title>
<path fill="none" stroke="black" d="M487.23,-102.07C435.2,-98.1 318.31,-87.77 221.5,-69 166.35,-58.31 153.41,-51.77 99.5,-36 96.19,-35.03 92.77,-34.01 89.34,-32.97"/>
<polygon fill="black" stroke="black" points="90.3,-29.6 79.71,-30 88.24,-36.29 90.3,-29.6"/>
<text text-anchor="middle" x="235" y="-57.8" font-family="Times,serif" font-size="14.00">dep</text>
</g>
<!-- 2 -->
<g id="node3" class="node">
<title>2</title>
<ellipse fill="none" stroke="black" cx="146.5" cy="-18" rx="37.89" ry="18"/>
<text text-anchor="middle" x="146.5" y="-14.3" font-family="Times,serif" font-size="14.00">muito</text>
</g>
<!-- 0&#45;&gt;2 -->
<g id="edge2" class="edge">
<title>0&#45;&gt;2</title>
<path fill="none" stroke="black" d="M488.05,-100.32C449.14,-94.71 374.29,-83.16 311.5,-69 258.37,-57.02 245.36,-52.61 193.5,-36 190.61,-35.08 187.64,-34.09 184.67,-33.07"/>
<polygon fill="black" stroke="black" points="185.81,-29.77 175.21,-29.77 183.5,-36.37 185.81,-29.77"/>
<text text-anchor="middle" x="325" y="-57.8" font-family="Times,serif" font-size="14.00">dep</text>
</g>
<!-- 3 -->
<g id="node4" class="node">
<title>3</title>
<ellipse fill="none" stroke="black" cx="246.5" cy="-18" rx="44.39" ry="18"/>
<text text-anchor="middle" x="246.5" y="-14.3" font-family="Times,serif" font-size="14.00">comum</text>
</g>
<!-- 0&#45;&gt;3 -->
<g id="edge3" class="edge">
<title>0&#45;&gt;3</title>
<path fill="none" stroke="black" d="M489.19,-97.95C462.66,-91.44 419.87,-80.47 383.5,-69 350.59,-58.62 313.9,-45.13 286.78,-34.77"/>
<polygon fill="black" stroke="black" points="287.83,-31.43 277.24,-31.11 285.32,-37.96 287.83,-31.43"/>
<text text-anchor="middle" x="397" y="-57.8" font-family="Times,serif" font-size="14.00">dep</text>
</g>
<!-- 4 -->
<g id="node5" class="node">
<title>4</title>
<ellipse fill="none" stroke="black" cx="335.5" cy="-18" rx="27" ry="18"/>
<text text-anchor="middle" x="335.5" y="-14.3" font-family="Times,serif" font-size="14.00">de</text>
</g>
<!-- 0&#45;&gt;4 -->
<g id="edge4" class="edge">
<title>0&#45;&gt;4</title>
<path fill="none" stroke="black" d="M492.9,-93.75C461.24,-78.71 402.05,-50.61 365.97,-33.47"/>
<polygon fill="black" stroke="black" points="367.42,-30.28 356.89,-29.16 364.42,-36.61 367.42,-30.28"/>
<text text-anchor="middle" x="450" y="-57.8" font-family="Times,serif" font-size="14.00">dep</text>
</g>
<!-- 5 -->
<g id="node6" class="node">
<title>5</title>
<ellipse fill="none" stroke="black" cx="447.5" cy="-18" rx="66.89" ry="18"/>
<text text-anchor="middle" x="447.5" y="-14.3" font-family="Times,serif" font-size="14.00">movimentar</text>
</g>
<!-- 0&#45;&gt;5 -->
<g id="edge5" class="edge">
<title>0&#45;&gt;5</title>
<path fill="none" stroke="black" d="M502.52,-88.8C492.7,-76.35 478.61,-58.47 467.14,-43.92"/>
<polygon fill="black" stroke="black" points="469.69,-41.5 460.75,-35.81 464.19,-45.83 469.69,-41.5"/>
<text text-anchor="middle" x="499" y="-57.8" font-family="Times,serif" font-size="14.00">dep</text>
</g>
<!-- 6 -->
<g id="node7" class="node">
<title>6</title>
<ellipse fill="none" stroke="black" cx="582.5" cy="-18" rx="50.09" ry="18"/>
<text text-anchor="middle" x="582.5" y="-14.3" font-family="Times,serif" font-size="14.00">ficheiros</text>
</g>
<!-- 0&#45;&gt;6 -->
<g id="edge6" class="edge">
<title>0&#45;&gt;6</title>
<path fill="none" stroke="black" d="M526.65,-88.8C536.68,-76.27 551.1,-58.24 562.78,-43.65"/>
<polygon fill="black" stroke="black" points="565.77,-45.51 569.28,-35.52 560.3,-41.14 565.77,-45.51"/>
<text text-anchor="middle" x="567" y="-57.8" font-family="Times,serif" font-size="14.00">dep</text>
</g>
<!-- 7 -->
<g id="node8" class="node">
<title>7</title>
<ellipse fill="none" stroke="black" cx="677.5" cy="-18" rx="27" ry="18"/>
<text text-anchor="middle" x="677.5" y="-14.3" font-family="Times,serif" font-size="14.00">em</text>
</g>
<!-- 0&#45;&gt;7 -->
<g id="edge7" class="edge">
<title>0&#45;&gt;7</title>
<path fill="none" stroke="black" d="M535.71,-93.59C549.64,-86.72 568.21,-77.45 584.5,-69 605.97,-57.86 630.03,-44.92 648.29,-34.99"/>
<polygon fill="black" stroke="black" points="650.16,-37.96 657.27,-30.1 646.81,-31.81 650.16,-37.96"/>
<text text-anchor="middle" x="627" y="-57.8" font-family="Times,serif" font-size="14.00">dep</text>
</g>
<!-- 8 -->
<g id="node9" class="node">
<title>8</title>
<ellipse fill="none" stroke="black" cx="749.5" cy="-18" rx="27" ry="18"/>
<text text-anchor="middle" x="749.5" y="-14.3" font-family="Times,serif" font-size="14.00">a</text>
</g>
<!-- 0&#45;&gt;8 -->
<g id="edge8" class="edge">
<title>0&#45;&gt;8</title>
<path fill="none" stroke="black" d="M540.33,-98.5C566.88,-92.52 609.19,-82.03 644.5,-69 670.78,-59.3 699.41,-45.42 720.13,-34.75"/>
<polygon fill="black" stroke="black" points="721.81,-37.83 729.06,-30.1 718.57,-31.62 721.81,-37.83"/>
<text text-anchor="middle" x="694" y="-57.8" font-family="Times,serif" font-size="14.00">dep</text>
</g>
<!-- 9 -->
<g id="node10" class="node">
<title>9</title>
<ellipse fill="none" stroke="black" cx="843.5" cy="-18" rx="48.99" ry="18"/>
<text text-anchor="middle" x="843.5" y="-14.3" font-family="Times,serif" font-size="14.00">Internet</text>
</g>
<!-- 0&#45;&gt;9 -->
<g id="edge9" class="edge">
<title>0&#45;&gt;9</title>
<path fill="none" stroke="black" d="M541.29,-100.85C579.53,-95.99 651.72,-85.48 711.5,-69 743.23,-60.25 778.01,-46.92 803.9,-36.22"/>
<polygon fill="black" stroke="black" points="805.48,-39.35 813.36,-32.26 802.78,-32.89 805.48,-39.35"/>
<text text-anchor="middle" x="770" y="-57.8" font-family="Times,serif" font-size="14.00">dep</text>
</g>
<!-- 10 -->
<g id="node11" class="node">
<title>10</title>
<ellipse fill="none" stroke="black" cx="937.5" cy="-18" rx="27" ry="18"/>
<text text-anchor="middle" x="937.5" y="-14.3" font-family="Times,serif" font-size="14.00">.</text>
</g>
<!-- 0&#45;&gt;10 -->
<g id="edge10" class="edge">
<title>0&#45;&gt;10</title>
<path fill="none" stroke="black" d="M541.46,-101.93C590.71,-97.85 698.37,-87.5 787.5,-69 839.14,-58.28 852.16,-54.65 901.5,-36 903.34,-35.3 905.22,-34.55 907.1,-33.76"/>
<polygon fill="black" stroke="black" points="908.69,-36.89 916.42,-29.64 905.86,-30.49 908.69,-36.89"/>
<text text-anchor="middle" x="863" y="-57.8" font-family="Times,serif" font-size="14.00">dep</text>
</g>
</g>
</svg>
