<?xml version="1.0" encoding="UTF-8" standalone="no"?>
<!DOCTYPE svg PUBLIC "-//W3C//DTD SVG 1.1//EN"
 "http://www.w3.org/Graphics/SVG/1.1/DTD/svg11.dtd">
<!-- Generated by graphviz version 2.42.4 (0)
 -->
<!-- Pages: 1 -->
<svg width="2487pt" height="131pt"
 viewBox="0.00 0.00 2486.55 131.00" xmlns="http://www.w3.org/2000/svg" xmlns:xlink="http://www.w3.org/1999/xlink">
<g id="graph0" class="graph" transform="scale(1 1) rotate(0) translate(4 127)">
<polygon fill="white" stroke="transparent" points="-4,4 -4,-127 2482.55,-127 2482.55,4 -4,4"/>
<!-- 0 -->
<g id="node1" class="node">
<title>0</title>
<ellipse fill="none" stroke="black" cx="1296.55" cy="-105" rx="35.19" ry="18"/>
<text text-anchor="middle" x="1296.55" y="-101.3" font-family="Times,serif" font-size="14.00">Seria</text>
</g>
<!-- 1 -->
<g id="node2" class="node">
<title>1</title>
<ellipse fill="none" stroke="black" cx="30.55" cy="-18" rx="30.59" ry="18"/>
<text text-anchor="middle" x="30.55" y="-14.3" font-family="Times,serif" font-size="14.00">bom</text>
</g>
<!-- 0&#45;&gt;1 -->
<g id="edge1" class="edge">
<title>0&#45;&gt;1</title>
<path fill="none" stroke="black" d="M1261.51,-103.59C1082.03,-101.39 269.82,-90.34 159.55,-69 125.04,-62.32 87.84,-46.95 62.3,-35"/>
<polygon fill="black" stroke="black" points="63.64,-31.76 53.11,-30.61 60.63,-38.08 63.64,-31.76"/>
<text text-anchor="middle" x="173.05" y="-57.8" font-family="Times,serif" font-size="14.00">dep</text>
</g>
<!-- 2 -->
<g id="node3" class="node">
<title>2</title>
<ellipse fill="none" stroke="black" cx="106.55" cy="-18" rx="27.9" ry="18"/>
<text text-anchor="middle" x="106.55" y="-14.3" font-family="Times,serif" font-size="14.00">que</text>
</g>
<!-- 0&#45;&gt;2 -->
<g id="edge2" class="edge">
<title>0&#45;&gt;2</title>
<path fill="none" stroke="black" d="M1261.33,-104.16C1101.84,-104.68 446.33,-104.58 244.55,-69 206.55,-62.3 165.23,-46.04 137.8,-33.86"/>
<polygon fill="black" stroke="black" points="138.91,-30.53 128.36,-29.59 136.03,-36.9 138.91,-30.53"/>
<text text-anchor="middle" x="258.05" y="-57.8" font-family="Times,serif" font-size="14.00">dep</text>
</g>
<!-- 3 -->
<g id="node4" class="node">
<title>3</title>
<ellipse fill="none" stroke="black" cx="179.55" cy="-18" rx="27" ry="18"/>
<text text-anchor="middle" x="179.55" y="-14.3" font-family="Times,serif" font-size="14.00">os</text>
</g>
<!-- 0&#45;&gt;3 -->
<g id="edge3" class="edge">
<title>0&#45;&gt;3</title>
<path fill="none" stroke="black" d="M1261.18,-103.49C1113.58,-101.25 546.11,-91.32 368.55,-69 299.53,-60.32 281.43,-58.33 215.55,-36 213.63,-35.35 211.69,-34.63 209.74,-33.86"/>
<polygon fill="black" stroke="black" points="210.72,-30.47 200.15,-29.72 207.94,-36.9 210.72,-30.47"/>
<text text-anchor="middle" x="382.05" y="-57.8" font-family="Times,serif" font-size="14.00">dep</text>
</g>
<!-- 4 -->
<g id="node5" class="node">
<title>4</title>
<ellipse fill="none" stroke="black" cx="266.55" cy="-18" rx="42.49" ry="18"/>
<text text-anchor="middle" x="266.55" y="-14.3" font-family="Times,serif" font-size="14.00">líderes</text>
</g>
<!-- 0&#45;&gt;4 -->
<g id="edge4" class="edge">
<title>0&#45;&gt;4</title>
<path fill="none" stroke="black" d="M1261.41,-103.93C1151.16,-103.39 802.38,-99.22 515.55,-69 426.82,-59.65 404.13,-57.51 317.55,-36 314.18,-35.16 310.72,-34.21 307.27,-33.2"/>
<polygon fill="black" stroke="black" points="308.19,-29.82 297.61,-30.21 306.13,-36.51 308.19,-29.82"/>
<text text-anchor="middle" x="529.05" y="-57.8" font-family="Times,serif" font-size="14.00">dep</text>
</g>
<!-- 5 -->
<g id="node6" class="node">
<title>5</title>
<ellipse fill="none" stroke="black" cx="388.55" cy="-18" rx="61.99" ry="18"/>
<text text-anchor="middle" x="388.55" y="-14.3" font-family="Times,serif" font-size="14.00">partidários</text>
</g>
<!-- 0&#45;&gt;5 -->
<g id="edge5" class="edge">
<title>0&#45;&gt;5</title>
<path fill="none" stroke="black" d="M1261.55,-103.59C1163.91,-102.13 880.37,-95.72 646.55,-69 562.26,-59.37 541.59,-53.35 458.55,-36 453.62,-34.97 448.52,-33.85 443.41,-32.68"/>
<polygon fill="black" stroke="black" points="444.17,-29.26 433.64,-30.4 442.58,-36.08 444.17,-29.26"/>
<text text-anchor="middle" x="660.05" y="-57.8" font-family="Times,serif" font-size="14.00">dep</text>
</g>
<!-- 6 -->
<g id="node7" class="node">
<title>6</title>
<ellipse fill="none" stroke="black" cx="542.55" cy="-18" rx="74.99" ry="18"/>
<text text-anchor="middle" x="542.55" y="-14.3" font-family="Times,serif" font-size="14.00">pró&#45;referendo</text>
</g>
<!-- 0&#45;&gt;6 -->
<g id="edge6" class="edge">
<title>0&#45;&gt;6</title>
<path fill="none" stroke="black" d="M1261.39,-103.78C1174.65,-102.78 943.67,-97.45 753.55,-69 700.29,-61.03 640.68,-46.36 598.44,-34.96"/>
<polygon fill="black" stroke="black" points="599.19,-31.54 588.62,-32.29 597.35,-38.29 599.19,-31.54"/>
<text text-anchor="middle" x="767.05" y="-57.8" font-family="Times,serif" font-size="14.00">dep</text>
</g>
<!-- 7 -->
<g id="node8" class="node">
<title>7</title>
<ellipse fill="none" stroke="black" cx="678.55" cy="-18" rx="43.59" ry="18"/>
<text text-anchor="middle" x="678.55" y="-14.3" font-family="Times,serif" font-size="14.00">fossem</text>
</g>
<!-- 0&#45;&gt;7 -->
<g id="edge7" class="edge">
<title>0&#45;&gt;7</title>
<path fill="none" stroke="black" d="M1261.35,-103.74C1184.87,-102.64 998.04,-97.04 844.55,-69 801.08,-61.06 752.87,-45.78 719.66,-34.19"/>
<polygon fill="black" stroke="black" points="720.45,-30.76 709.85,-30.73 718.12,-37.36 720.45,-30.76"/>
<text text-anchor="middle" x="858.05" y="-57.8" font-family="Times,serif" font-size="14.00">dep</text>
</g>
<!-- 8 -->
<g id="node9" class="node">
<title>8</title>
<ellipse fill="none" stroke="black" cx="772.55" cy="-18" rx="32.49" ry="18"/>
<text text-anchor="middle" x="772.55" y="-14.3" font-family="Times,serif" font-size="14.00">mais</text>
</g>
<!-- 0&#45;&gt;8 -->
<g id="edge8" class="edge">
<title>0&#45;&gt;8</title>
<path fill="none" stroke="black" d="M1261.46,-102.05C1198.73,-98.2 1063.32,-88.29 950.55,-69 889.24,-58.51 873.76,-55.05 814.55,-36 812.12,-35.22 809.64,-34.37 807.15,-33.47"/>
<polygon fill="black" stroke="black" points="808.24,-30.14 797.65,-29.86 805.75,-36.68 808.24,-30.14"/>
<text text-anchor="middle" x="964.05" y="-57.8" font-family="Times,serif" font-size="14.00">dep</text>
</g>
<!-- 9 -->
<g id="node10" class="node">
<title>9</title>
<ellipse fill="none" stroke="black" cx="861.55" cy="-18" rx="38.19" ry="18"/>
<text text-anchor="middle" x="861.55" y="-14.3" font-family="Times,serif" font-size="14.00">claros</text>
</g>
<!-- 0&#45;&gt;9 -->
<g id="edge9" class="edge">
<title>0&#45;&gt;9</title>
<path fill="none" stroke="black" d="M1262.51,-100.56C1194.3,-93.12 1036.45,-73.13 908.55,-36 905.64,-35.16 902.65,-34.23 899.66,-33.25"/>
<polygon fill="black" stroke="black" points="900.78,-29.93 890.19,-30.02 898.52,-36.56 900.78,-29.93"/>
<text text-anchor="middle" x="1059.05" y="-57.8" font-family="Times,serif" font-size="14.00">dep</text>
</g>
<!-- 10 -->
<g id="node11" class="node">
<title>10</title>
<ellipse fill="none" stroke="black" cx="967.55" cy="-18" rx="50.09" ry="18"/>
<text text-anchor="middle" x="967.55" y="-14.3" font-family="Times,serif" font-size="14.00">expondo</text>
</g>
<!-- 0&#45;&gt;10 -->
<g id="edge10" class="edge">
<title>0&#45;&gt;10</title>
<path fill="none" stroke="black" d="M1264.57,-97.26C1233.34,-90.55 1184.52,-79.73 1142.55,-69 1090.62,-55.72 1078.08,-50.75 1026.55,-36 1022.79,-34.92 1018.9,-33.81 1015,-32.69"/>
<polygon fill="black" stroke="black" points="1015.89,-29.3 1005.31,-29.9 1013.95,-36.03 1015.89,-29.3"/>
<text text-anchor="middle" x="1156.05" y="-57.8" font-family="Times,serif" font-size="14.00">dep</text>
</g>
<!-- 11 -->
<g id="node12" class="node">
<title>11</title>
<ellipse fill="none" stroke="black" cx="1076.55" cy="-18" rx="40.89" ry="18"/>
<text text-anchor="middle" x="1076.55" y="-14.3" font-family="Times,serif" font-size="14.00">razões</text>
</g>
<!-- 0&#45;&gt;11 -->
<g id="edge11" class="edge">
<title>0&#45;&gt;11</title>
<path fill="none" stroke="black" d="M1269.13,-93.41C1230.58,-78.51 1160.14,-51.3 1115.97,-34.23"/>
<polygon fill="black" stroke="black" points="1117.01,-30.88 1106.42,-30.54 1114.49,-37.41 1117.01,-30.88"/>
<text text-anchor="middle" x="1214.05" y="-57.8" font-family="Times,serif" font-size="14.00">dep</text>
</g>
<!-- 12 -->
<g id="node13" class="node">
<title>12</title>
<ellipse fill="none" stroke="black" cx="1193.55" cy="-18" rx="57.69" ry="18"/>
<text text-anchor="middle" x="1193.55" y="-14.3" font-family="Times,serif" font-size="14.00">objectivas</text>
</g>
<!-- 0&#45;&gt;12 -->
<g id="edge12" class="edge">
<title>0&#45;&gt;12</title>
<path fill="none" stroke="black" d="M1278.61,-89.19C1262.71,-76.08 1239.26,-56.73 1221.01,-41.66"/>
<polygon fill="black" stroke="black" points="1222.97,-38.75 1213.03,-35.08 1218.52,-44.15 1222.97,-38.75"/>
<text text-anchor="middle" x="1265.05" y="-57.8" font-family="Times,serif" font-size="14.00">dep</text>
</g>
<!-- 13 -->
<g id="node14" class="node">
<title>13</title>
<ellipse fill="none" stroke="black" cx="1296.55" cy="-18" rx="27" ry="18"/>
<text text-anchor="middle" x="1296.55" y="-14.3" font-family="Times,serif" font-size="14.00">,</text>
</g>
<!-- 0&#45;&gt;13 -->
<g id="edge13" class="edge">
<title>0&#45;&gt;13</title>
<path fill="none" stroke="black" d="M1296.55,-86.8C1296.55,-75.16 1296.55,-59.55 1296.55,-46.24"/>
<polygon fill="black" stroke="black" points="1300.05,-46.18 1296.55,-36.18 1293.05,-46.18 1300.05,-46.18"/>
<text text-anchor="middle" x="1310.05" y="-57.8" font-family="Times,serif" font-size="14.00">dep</text>
</g>
<!-- 14 -->
<g id="node15" class="node">
<title>14</title>
<ellipse fill="none" stroke="black" cx="1376.55" cy="-18" rx="35.19" ry="18"/>
<text text-anchor="middle" x="1376.55" y="-14.3" font-family="Times,serif" font-size="14.00">como</text>
</g>
<!-- 0&#45;&gt;14 -->
<g id="edge14" class="edge">
<title>0&#45;&gt;14</title>
<path fill="none" stroke="black" d="M1311.22,-88.41C1323.51,-75.35 1341.23,-56.53 1355.11,-41.78"/>
<polygon fill="black" stroke="black" points="1357.66,-44.17 1361.97,-34.49 1352.56,-39.37 1357.66,-44.17"/>
<text text-anchor="middle" x="1355.05" y="-57.8" font-family="Times,serif" font-size="14.00">dep</text>
</g>
<!-- 15 -->
<g id="node16" class="node">
<title>15</title>
<ellipse fill="none" stroke="black" cx="1456.55" cy="-18" rx="27" ry="18"/>
<text text-anchor="middle" x="1456.55" y="-14.3" font-family="Times,serif" font-size="14.00">por</text>
</g>
<!-- 0&#45;&gt;15 -->
<g id="edge15" class="edge">
<title>0&#45;&gt;15</title>
<path fill="none" stroke="black" d="M1322.55,-92.84C1337.39,-86.27 1356.22,-77.59 1372.55,-69 1391.63,-58.96 1412.47,-46.57 1428.61,-36.63"/>
<polygon fill="black" stroke="black" points="1430.87,-39.35 1437.53,-31.11 1427.18,-33.4 1430.87,-39.35"/>
<text text-anchor="middle" x="1412.05" y="-57.8" font-family="Times,serif" font-size="14.00">dep</text>
</g>
<!-- 16 -->
<g id="node17" class="node">
<title>16</title>
<ellipse fill="none" stroke="black" cx="1551.55" cy="-18" rx="50.09" ry="18"/>
<text text-anchor="middle" x="1551.55" y="-14.3" font-family="Times,serif" font-size="14.00">exemplo</text>
</g>
<!-- 0&#45;&gt;16 -->
<g id="edge16" class="edge">
<title>0&#45;&gt;16</title>
<path fill="none" stroke="black" d="M1328.06,-96.94C1355.23,-90.57 1395.36,-80.45 1429.55,-69 1457.69,-59.58 1488.61,-46.88 1512.29,-36.63"/>
<polygon fill="black" stroke="black" points="1513.87,-39.76 1521.63,-32.55 1511.07,-33.35 1513.87,-39.76"/>
<text text-anchor="middle" x="1484.05" y="-57.8" font-family="Times,serif" font-size="14.00">dep</text>
</g>
<!-- 17 -->
<g id="node18" class="node">
<title>17</title>
<ellipse fill="none" stroke="black" cx="1646.55" cy="-18" rx="27" ry="18"/>
<text text-anchor="middle" x="1646.55" y="-14.3" font-family="Times,serif" font-size="14.00">as</text>
</g>
<!-- 0&#45;&gt;17 -->
<g id="edge17" class="edge">
<title>0&#45;&gt;17</title>
<path fill="none" stroke="black" d="M1330.53,-100.13C1389.22,-92.69 1512.69,-73.68 1610.55,-36 1612.39,-35.29 1614.26,-34.53 1616.14,-33.74"/>
<polygon fill="black" stroke="black" points="1617.74,-36.86 1625.45,-29.59 1614.89,-30.46 1617.74,-36.86"/>
<text text-anchor="middle" x="1566.05" y="-57.8" font-family="Times,serif" font-size="14.00">dep</text>
</g>
<!-- 18 -->
<g id="node19" class="node">
<title>18</title>
<ellipse fill="none" stroke="black" cx="1718.55" cy="-18" rx="27" ry="18"/>
<text text-anchor="middle" x="1718.55" y="-14.3" font-family="Times,serif" font-size="14.00">de</text>
</g>
<!-- 0&#45;&gt;18 -->
<g id="edge18" class="edge">
<title>0&#45;&gt;18</title>
<path fill="none" stroke="black" d="M1331.39,-102.01C1385.78,-98.4 1493.93,-89.19 1583.55,-69 1628.79,-58.81 1639.5,-53.27 1682.55,-36 1684.38,-35.27 1686.24,-34.49 1688.12,-33.68"/>
<polygon fill="black" stroke="black" points="1689.73,-36.79 1697.41,-29.49 1686.86,-30.41 1689.73,-36.79"/>
<text text-anchor="middle" x="1649.05" y="-57.8" font-family="Times,serif" font-size="14.00">dep</text>
</g>
<!-- 19 -->
<g id="node20" class="node">
<title>19</title>
<ellipse fill="none" stroke="black" cx="1792.55" cy="-18" rx="29.5" ry="18"/>
<text text-anchor="middle" x="1792.55" y="-14.3" font-family="Times,serif" font-size="14.00">foro</text>
</g>
<!-- 0&#45;&gt;19 -->
<g id="edge19" class="edge">
<title>0&#45;&gt;19</title>
<path fill="none" stroke="black" d="M1331.73,-103.75C1398.06,-102.6 1545.83,-96.83 1666.55,-69 1699.95,-61.3 1736.14,-46.17 1761.12,-34.57"/>
<polygon fill="black" stroke="black" points="1762.9,-37.6 1770.45,-30.16 1759.91,-31.27 1762.9,-37.6"/>
<text text-anchor="middle" x="1727.05" y="-57.8" font-family="Times,serif" font-size="14.00">dep</text>
</g>
<!-- 20 -->
<g id="node21" class="node">
<title>20</title>
<ellipse fill="none" stroke="black" cx="1915.55" cy="-18" rx="75.29" ry="18"/>
<text text-anchor="middle" x="1915.55" y="-14.3" font-family="Times,serif" font-size="14.00">constitucional</text>
</g>
<!-- 0&#45;&gt;20 -->
<g id="edge20" class="edge">
<title>0&#45;&gt;20</title>
<path fill="none" stroke="black" d="M1331.72,-103.71C1407.7,-102.55 1592.61,-96.84 1744.55,-69 1786.08,-61.39 1831.95,-47.68 1865.72,-36.53"/>
<polygon fill="black" stroke="black" points="1866.97,-39.81 1875.35,-33.32 1864.75,-33.17 1866.97,-39.81"/>
<text text-anchor="middle" x="1820.05" y="-57.8" font-family="Times,serif" font-size="14.00">dep</text>
</g>
<!-- 21 -->
<g id="node22" class="node">
<title>21</title>
<ellipse fill="none" stroke="black" cx="2035.55" cy="-18" rx="27" ry="18"/>
<text text-anchor="middle" x="2035.55" y="-14.3" font-family="Times,serif" font-size="14.00">,</text>
</g>
<!-- 0&#45;&gt;21 -->
<g id="edge21" class="edge">
<title>0&#45;&gt;21</title>
<path fill="none" stroke="black" d="M1331.52,-103.39C1417.82,-101.52 1647.7,-94.36 1837.55,-69 1910.38,-59.27 1929.82,-59.19 1999.55,-36 2001.47,-35.36 2003.42,-34.65 2005.36,-33.88"/>
<polygon fill="black" stroke="black" points="2007.15,-36.92 2014.96,-29.76 2004.39,-30.49 2007.15,-36.92"/>
<text text-anchor="middle" x="1950.05" y="-57.8" font-family="Times,serif" font-size="14.00">dep</text>
</g>
<!-- 22 -->
<g id="node23" class="node">
<title>22</title>
<ellipse fill="none" stroke="black" cx="2113.55" cy="-18" rx="33.29" ry="18"/>
<text text-anchor="middle" x="2113.55" y="-14.3" font-family="Times,serif" font-size="14.00">ético</text>
</g>
<!-- 0&#45;&gt;22 -->
<g id="edge22" class="edge">
<title>0&#45;&gt;22</title>
<path fill="none" stroke="black" d="M1331.91,-103.34C1452.03,-100.93 1843.74,-91.49 1967.55,-69 2007.1,-61.82 2050.44,-45.88 2079.54,-33.91"/>
<polygon fill="black" stroke="black" points="2080.96,-37.11 2088.84,-30.03 2078.26,-30.66 2080.96,-37.11"/>
<text text-anchor="middle" x="2039.05" y="-57.8" font-family="Times,serif" font-size="14.00">dep</text>
</g>
<!-- 23 -->
<g id="node24" class="node">
<title>23</title>
<ellipse fill="none" stroke="black" cx="2191.55" cy="-18" rx="27" ry="18"/>
<text text-anchor="middle" x="2191.55" y="-14.3" font-family="Times,serif" font-size="14.00">ou</text>
</g>
<!-- 0&#45;&gt;23 -->
<g id="edge23" class="edge">
<title>0&#45;&gt;23</title>
<path fill="none" stroke="black" d="M1331.56,-103.67C1461.33,-102.23 1914.68,-95.39 2056.55,-69 2093.75,-62.08 2134.17,-45.86 2160.99,-33.75"/>
<polygon fill="black" stroke="black" points="2162.6,-36.87 2170.22,-29.51 2159.67,-30.51 2162.6,-36.87"/>
<text text-anchor="middle" x="2124.05" y="-57.8" font-family="Times,serif" font-size="14.00">dep</text>
</g>
<!-- 24 -->
<g id="node25" class="node">
<title>24</title>
<ellipse fill="none" stroke="black" cx="2321.55" cy="-18" rx="85.29" ry="18"/>
<text text-anchor="middle" x="2321.55" y="-14.3" font-family="Times,serif" font-size="14.00">consuetudinário</text>
</g>
<!-- 0&#45;&gt;24 -->
<g id="edge24" class="edge">
<title>0&#45;&gt;24</title>
<path fill="none" stroke="black" d="M1331.56,-103.62C1470.3,-101.95 1981.64,-94.18 2141.55,-69 2185.48,-62.08 2233.98,-48.23 2269.56,-36.86"/>
<polygon fill="black" stroke="black" points="2270.8,-40.14 2279.24,-33.73 2268.65,-33.48 2270.8,-40.14"/>
<text text-anchor="middle" x="2221.05" y="-57.8" font-family="Times,serif" font-size="14.00">dep</text>
</g>
<!-- 25 -->
<g id="node26" class="node">
<title>25</title>
<ellipse fill="none" stroke="black" cx="2451.55" cy="-18" rx="27" ry="18"/>
<text text-anchor="middle" x="2451.55" y="-14.3" font-family="Times,serif" font-size="14.00">.</text>
</g>
<!-- 0&#45;&gt;25 -->
<g id="edge25" class="edge">
<title>0&#45;&gt;25</title>
<path fill="none" stroke="black" d="M1331.67,-103.39C1480.25,-100.69 2057.7,-89.11 2238.55,-69 2318.08,-60.16 2339.41,-60.62 2415.55,-36 2417.47,-35.38 2419.42,-34.68 2421.38,-33.92"/>
<polygon fill="black" stroke="black" points="2423.15,-36.97 2430.98,-29.82 2420.41,-30.53 2423.15,-36.97"/>
<text text-anchor="middle" x="2363.05" y="-57.8" font-family="Times,serif" font-size="14.00">dep</text>
</g>
</g>
</svg>
