<?xml version="1.0" encoding="UTF-8" standalone="no"?>
<!DOCTYPE svg PUBLIC "-//W3C//DTD SVG 1.1//EN"
 "http://www.w3.org/Graphics/SVG/1.1/DTD/svg11.dtd">
<!-- Generated by graphviz version 2.42.4 (0)
 -->
<!-- Pages: 1 -->
<svg width="4918pt" height="131pt"
 viewBox="0.00 0.00 4918.00 131.00" xmlns="http://www.w3.org/2000/svg" xmlns:xlink="http://www.w3.org/1999/xlink">
<g id="graph0" class="graph" transform="scale(1 1) rotate(0) translate(4 127)">
<polygon fill="white" stroke="transparent" points="-4,4 -4,-127 4914,-127 4914,4 -4,4"/>
<!-- 0 -->
<g id="node1" class="node">
<title>0</title>
<ellipse fill="none" stroke="black" cx="2488" cy="-105" rx="32.49" ry="18"/>
<text text-anchor="middle" x="2488" y="-101.3" font-family="Times,serif" font-size="14.00">Face</text>
</g>
<!-- 1 -->
<g id="node2" class="node">
<title>1</title>
<ellipse fill="none" stroke="black" cx="27" cy="-18" rx="27" ry="18"/>
<text text-anchor="middle" x="27" y="-14.3" font-family="Times,serif" font-size="14.00">a</text>
</g>
<!-- 0&#45;&gt;1 -->
<g id="edge1" class="edge">
<title>0&#45;&gt;1</title>
<path fill="none" stroke="black" d="M2455.47,-103.82C2181.83,-102.31 271.41,-90.94 153,-69 118.68,-62.64 81.84,-46.87 56.91,-34.72"/>
<polygon fill="black" stroke="black" points="58.16,-31.44 47.65,-30.11 55.04,-37.7 58.16,-31.44"/>
<text text-anchor="middle" x="166.5" y="-57.8" font-family="Times,serif" font-size="14.00">dep</text>
</g>
<!-- 2 -->
<g id="node3" class="node">
<title>2</title>
<ellipse fill="none" stroke="black" cx="99" cy="-18" rx="27" ry="18"/>
<text text-anchor="middle" x="99" y="-14.3" font-family="Times,serif" font-size="14.00">o</text>
</g>
<!-- 0&#45;&gt;2 -->
<g id="edge2" class="edge">
<title>0&#45;&gt;2</title>
<path fill="none" stroke="black" d="M2455.31,-104.03C2195.79,-104.24 472.68,-104.23 245,-69 194.56,-61.19 182.66,-54.28 135,-36 133.16,-35.29 131.28,-34.54 129.4,-33.74"/>
<polygon fill="black" stroke="black" points="130.65,-30.47 120.09,-29.6 127.81,-36.86 130.65,-30.47"/>
<text text-anchor="middle" x="258.5" y="-57.8" font-family="Times,serif" font-size="14.00">dep</text>
</g>
<!-- 3 -->
<g id="node4" class="node">
<title>3</title>
<ellipse fill="none" stroke="black" cx="192" cy="-18" rx="48.19" ry="18"/>
<text text-anchor="middle" x="192" y="-14.3" font-family="Times,serif" font-size="14.00">impacte</text>
</g>
<!-- 0&#45;&gt;3 -->
<g id="edge3" class="edge">
<title>0&#45;&gt;3</title>
<path fill="none" stroke="black" d="M2455.32,-104.13C2201.32,-105.03 546.71,-109.31 329,-69 294.41,-62.6 257.01,-48.42 230.04,-36.79"/>
<polygon fill="black" stroke="black" points="231.17,-33.46 220.6,-32.64 228.35,-39.86 231.17,-33.46"/>
<text text-anchor="middle" x="342.5" y="-57.8" font-family="Times,serif" font-size="14.00">dep</text>
</g>
<!-- 4 -->
<g id="node5" class="node">
<title>4</title>
<ellipse fill="none" stroke="black" cx="285" cy="-18" rx="27" ry="18"/>
<text text-anchor="middle" x="285" y="-14.3" font-family="Times,serif" font-size="14.00">de</text>
</g>
<!-- 0&#45;&gt;4 -->
<g id="edge4" class="edge">
<title>0&#45;&gt;4</title>
<path fill="none" stroke="black" d="M2455.35,-104.12C2206.85,-104.96 618.13,-108.74 409,-69 375.18,-62.57 338.93,-46.81 314.41,-34.69"/>
<polygon fill="black" stroke="black" points="315.81,-31.47 305.3,-30.08 312.65,-37.72 315.81,-31.47"/>
<text text-anchor="middle" x="422.5" y="-57.8" font-family="Times,serif" font-size="14.00">dep</text>
</g>
<!-- 5 -->
<g id="node6" class="node">
<title>5</title>
<ellipse fill="none" stroke="black" cx="357" cy="-18" rx="27" ry="18"/>
<text text-anchor="middle" x="357" y="-14.3" font-family="Times,serif" font-size="14.00">os</text>
</g>
<!-- 0&#45;&gt;5 -->
<g id="edge5" class="edge">
<title>0&#45;&gt;5</title>
<path fill="none" stroke="black" d="M2455.17,-104.01C2212.02,-104.03 694.91,-102.8 494,-69 455.97,-62.6 414.71,-46.12 387.51,-33.82"/>
<polygon fill="black" stroke="black" points="388.71,-30.51 378.16,-29.5 385.77,-36.87 388.71,-30.51"/>
<text text-anchor="middle" x="507.5" y="-57.8" font-family="Times,serif" font-size="14.00">dep</text>
</g>
<!-- 6 -->
<g id="node7" class="node">
<title>6</title>
<ellipse fill="none" stroke="black" cx="443" cy="-18" rx="40.89" ry="18"/>
<text text-anchor="middle" x="443" y="-14.3" font-family="Times,serif" font-size="14.00">planos</text>
</g>
<!-- 0&#45;&gt;6 -->
<g id="edge6" class="edge">
<title>0&#45;&gt;6</title>
<path fill="none" stroke="black" d="M2455.42,-104.06C2218.91,-104.42 769.47,-105.13 578,-69 543.11,-62.42 505.37,-47.74 478.69,-35.99"/>
<polygon fill="black" stroke="black" points="479.94,-32.71 469.39,-31.81 477.08,-39.1 479.94,-32.71"/>
<text text-anchor="middle" x="591.5" y="-57.8" font-family="Times,serif" font-size="14.00">dep</text>
</g>
<!-- 7 -->
<g id="node8" class="node">
<title>7</title>
<ellipse fill="none" stroke="black" cx="529" cy="-18" rx="27" ry="18"/>
<text text-anchor="middle" x="529" y="-14.3" font-family="Times,serif" font-size="14.00">de</text>
</g>
<!-- 0&#45;&gt;7 -->
<g id="edge7" class="edge">
<title>0&#45;&gt;7</title>
<path fill="none" stroke="black" d="M2455.36,-103.99C2224.62,-103.86 843.19,-101.72 660,-69 623.88,-62.55 584.87,-46.36 558.91,-34.14"/>
<polygon fill="black" stroke="black" points="560.16,-30.85 549.63,-29.67 557.12,-37.16 560.16,-30.85"/>
<text text-anchor="middle" x="673.5" y="-57.8" font-family="Times,serif" font-size="14.00">dep</text>
</g>
<!-- 8 -->
<g id="node9" class="node">
<title>8</title>
<ellipse fill="none" stroke="black" cx="601" cy="-18" rx="27" ry="18"/>
<text text-anchor="middle" x="601" y="-14.3" font-family="Times,serif" font-size="14.00">o</text>
</g>
<!-- 0&#45;&gt;8 -->
<g id="edge8" class="edge">
<title>0&#45;&gt;8</title>
<path fill="none" stroke="black" d="M2455.58,-103.78C2233.61,-102.2 942,-92.09 769,-69 709.06,-61 693.95,-56.34 637,-36 635.14,-35.34 633.26,-34.61 631.37,-33.84"/>
<polygon fill="black" stroke="black" points="632.59,-30.56 622.03,-29.77 629.8,-36.98 632.59,-30.56"/>
<text text-anchor="middle" x="782.5" y="-57.8" font-family="Times,serif" font-size="14.00">dep</text>
</g>
<!-- 9 -->
<g id="node10" class="node">
<title>9</title>
<ellipse fill="none" stroke="black" cx="706" cy="-18" rx="59.59" ry="18"/>
<text text-anchor="middle" x="706" y="-14.3" font-family="Times,serif" font-size="14.00">construtor</text>
</g>
<!-- 0&#45;&gt;9 -->
<g id="edge9" class="edge">
<title>0&#45;&gt;9</title>
<path fill="none" stroke="black" d="M2455.57,-103.87C2240.39,-102.95 1022.54,-96.52 860,-69 821.49,-62.48 779.41,-48.31 748.98,-36.71"/>
<polygon fill="black" stroke="black" points="750.12,-33.4 739.53,-33.05 747.59,-39.92 750.12,-33.4"/>
<text text-anchor="middle" x="873.5" y="-57.8" font-family="Times,serif" font-size="14.00">dep</text>
</g>
<!-- 10 -->
<g id="node11" class="node">
<title>10</title>
<ellipse fill="none" stroke="black" cx="811" cy="-18" rx="27" ry="18"/>
<text text-anchor="middle" x="811" y="-14.3" font-family="Times,serif" font-size="14.00">,</text>
</g>
<!-- 0&#45;&gt;10 -->
<g id="edge10" class="edge">
<title>0&#45;&gt;10</title>
<path fill="none" stroke="black" d="M2455.53,-103.87C2246.62,-102.96 1095.65,-96.72 942,-69 905.89,-62.49 866.88,-46.31 840.91,-34.1"/>
<polygon fill="black" stroke="black" points="842.16,-30.82 831.63,-29.65 839.13,-37.13 842.16,-30.82"/>
<text text-anchor="middle" x="955.5" y="-57.8" font-family="Times,serif" font-size="14.00">dep</text>
</g>
<!-- 11 -->
<g id="node12" class="node">
<title>11</title>
<ellipse fill="none" stroke="black" cx="883" cy="-18" rx="27" ry="18"/>
<text text-anchor="middle" x="883" y="-14.3" font-family="Times,serif" font-size="14.00">a</text>
</g>
<!-- 0&#45;&gt;11 -->
<g id="edge11" class="edge">
<title>0&#45;&gt;11</title>
<path fill="none" stroke="black" d="M2455.34,-104.18C2268.7,-105.08 1335.39,-107.53 1051,-69 991.08,-60.88 975.95,-56.34 919,-36 917.14,-35.34 915.26,-34.61 913.37,-33.84"/>
<polygon fill="black" stroke="black" points="914.59,-30.56 904.03,-29.77 911.8,-36.98 914.59,-30.56"/>
<text text-anchor="middle" x="1064.5" y="-57.8" font-family="Times,serif" font-size="14.00">dep</text>
</g>
<!-- 12 -->
<g id="node13" class="node">
<title>12</title>
<ellipse fill="none" stroke="black" cx="981" cy="-18" rx="53.09" ry="18"/>
<text text-anchor="middle" x="981" y="-14.3" font-family="Times,serif" font-size="14.00">comissão</text>
</g>
<!-- 0&#45;&gt;12 -->
<g id="edge12" class="edge">
<title>0&#45;&gt;12</title>
<path fill="none" stroke="black" d="M2455.28,-103.67C2262.51,-101.67 1278.73,-90.44 1146,-69 1103.69,-62.17 1057.09,-47.33 1024.24,-35.59"/>
<polygon fill="black" stroke="black" points="1025.1,-32.18 1014.5,-32.06 1022.71,-38.76 1025.1,-32.18"/>
<text text-anchor="middle" x="1159.5" y="-57.8" font-family="Times,serif" font-size="14.00">dep</text>
</g>
<!-- 13 -->
<g id="node14" class="node">
<title>13</title>
<ellipse fill="none" stroke="black" cx="1079" cy="-18" rx="27" ry="18"/>
<text text-anchor="middle" x="1079" y="-14.3" font-family="Times,serif" font-size="14.00">de</text>
</g>
<!-- 0&#45;&gt;13 -->
<g id="edge13" class="edge">
<title>0&#45;&gt;13</title>
<path fill="none" stroke="black" d="M2455.29,-103.85C2286.29,-102.94 1510.7,-97.29 1272,-69 1201.19,-60.61 1182.59,-58.71 1115,-36 1113.08,-35.36 1111.14,-34.64 1109.19,-33.87"/>
<polygon fill="black" stroke="black" points="1110.17,-30.48 1099.6,-29.74 1107.4,-36.91 1110.17,-30.48"/>
<text text-anchor="middle" x="1285.5" y="-57.8" font-family="Times,serif" font-size="14.00">dep</text>
</g>
<!-- 14 -->
<g id="node15" class="node">
<title>14</title>
<ellipse fill="none" stroke="black" cx="1199" cy="-18" rx="75.29" ry="18"/>
<text text-anchor="middle" x="1199" y="-14.3" font-family="Times,serif" font-size="14.00">trabalhadores</text>
</g>
<!-- 0&#45;&gt;14 -->
<g id="edge14" class="edge">
<title>0&#45;&gt;14</title>
<path fill="none" stroke="black" d="M2455.51,-104.1C2295.06,-104.41 1586.35,-103.78 1369,-69 1327.11,-62.3 1281.03,-48.31 1247.42,-36.83"/>
<polygon fill="black" stroke="black" points="1248.44,-33.48 1237.85,-33.51 1246.15,-40.09 1248.44,-33.48"/>
<text text-anchor="middle" x="1382.5" y="-57.8" font-family="Times,serif" font-size="14.00">dep</text>
</g>
<!-- 15 -->
<g id="node16" class="node">
<title>15</title>
<ellipse fill="none" stroke="black" cx="1319" cy="-18" rx="27" ry="18"/>
<text text-anchor="middle" x="1319" y="-14.3" font-family="Times,serif" font-size="14.00">de</text>
</g>
<!-- 0&#45;&gt;15 -->
<g id="edge15" class="edge">
<title>0&#45;&gt;15</title>
<path fill="none" stroke="black" d="M2455.29,-104.11C2302.21,-104.46 1655.57,-103.79 1457,-69 1410.07,-60.78 1399.3,-53.54 1355,-36 1353.17,-35.27 1351.3,-34.5 1349.42,-33.7"/>
<polygon fill="black" stroke="black" points="1350.68,-30.42 1340.12,-29.53 1347.81,-36.81 1350.68,-30.42"/>
<text text-anchor="middle" x="1470.5" y="-57.8" font-family="Times,serif" font-size="14.00">dep</text>
</g>
<!-- 16 -->
<g id="node17" class="node">
<title>16</title>
<ellipse fill="none" stroke="black" cx="1391" cy="-18" rx="27" ry="18"/>
<text text-anchor="middle" x="1391" y="-14.3" font-family="Times,serif" font-size="14.00">a</text>
</g>
<!-- 0&#45;&gt;16 -->
<g id="edge16" class="edge">
<title>0&#45;&gt;16</title>
<path fill="none" stroke="black" d="M2455.14,-103.54C2313.01,-101.42 1750.4,-91.73 1575,-69 1508.17,-60.34 1490.75,-57.86 1427,-36 1425.09,-35.34 1423.14,-34.62 1421.2,-33.84"/>
<polygon fill="black" stroke="black" points="1422.18,-30.45 1411.61,-29.69 1419.4,-36.88 1422.18,-30.45"/>
<text text-anchor="middle" x="1588.5" y="-57.8" font-family="Times,serif" font-size="14.00">dep</text>
</g>
<!-- 17 -->
<g id="node18" class="node">
<title>17</title>
<ellipse fill="none" stroke="black" cx="1483" cy="-18" rx="46.59" ry="18"/>
<text text-anchor="middle" x="1483" y="-14.3" font-family="Times,serif" font-size="14.00">Renault</text>
</g>
<!-- 0&#45;&gt;17 -->
<g id="edge17" class="edge">
<title>0&#45;&gt;17</title>
<path fill="none" stroke="black" d="M2455.56,-103.37C2324.82,-100.71 1836.2,-89.59 1683,-69 1628.55,-61.68 1567.5,-45.16 1527.33,-33.11"/>
<polygon fill="black" stroke="black" points="1528.17,-29.71 1517.59,-30.15 1526.14,-36.41 1528.17,-29.71"/>
<text text-anchor="middle" x="1696.5" y="-57.8" font-family="Times,serif" font-size="14.00">dep</text>
</g>
<!-- 18 -->
<g id="node19" class="node">
<title>18</title>
<ellipse fill="none" stroke="black" cx="1611" cy="-18" rx="63.89" ry="18"/>
<text text-anchor="middle" x="1611" y="-14.3" font-family="Times,serif" font-size="14.00">Portuguesa</text>
</g>
<!-- 0&#45;&gt;18 -->
<g id="edge18" class="edge">
<title>0&#45;&gt;18</title>
<path fill="none" stroke="black" d="M2455.45,-103.5C2333.8,-101.45 1906.04,-92.7 1772,-69 1732.04,-61.94 1688.13,-47.86 1656.28,-36.43"/>
<polygon fill="black" stroke="black" points="1657.39,-33.11 1646.8,-32.98 1655,-39.69 1657.39,-33.11"/>
<text text-anchor="middle" x="1785.5" y="-57.8" font-family="Times,serif" font-size="14.00">dep</text>
</g>
<!-- 19 -->
<g id="node20" class="node">
<title>19</title>
<ellipse fill="none" stroke="black" cx="1720" cy="-18" rx="27" ry="18"/>
<text text-anchor="middle" x="1720" y="-14.3" font-family="Times,serif" font-size="14.00">foi</text>
</g>
<!-- 0&#45;&gt;19 -->
<g id="edge19" class="edge">
<title>0&#45;&gt;19</title>
<path fill="none" stroke="black" d="M2455.35,-103.25C2343.57,-100.51 1976.84,-90.1 1861,-69 1812.87,-60.24 1801.56,-53.82 1756,-36 1754.17,-35.28 1752.29,-34.51 1750.41,-33.71"/>
<polygon fill="black" stroke="black" points="1751.67,-30.44 1741.11,-29.56 1748.81,-36.83 1751.67,-30.44"/>
<text text-anchor="middle" x="1874.5" y="-57.8" font-family="Times,serif" font-size="14.00">dep</text>
</g>
<!-- 20 -->
<g id="node21" class="node">
<title>20</title>
<ellipse fill="none" stroke="black" cx="1805" cy="-18" rx="40.09" ry="18"/>
<text text-anchor="middle" x="1805" y="-14.3" font-family="Times,serif" font-size="14.00">ontem</text>
</g>
<!-- 0&#45;&gt;20 -->
<g id="edge20" class="edge">
<title>0&#45;&gt;20</title>
<path fill="none" stroke="black" d="M2455.34,-103.13C2353.24,-100.21 2041,-89.79 1942,-69 1906.8,-61.61 1868.48,-47.02 1841.34,-35.51"/>
<polygon fill="black" stroke="black" points="1842.45,-32.17 1831.88,-31.42 1839.67,-38.6 1842.45,-32.17"/>
<text text-anchor="middle" x="1955.5" y="-57.8" font-family="Times,serif" font-size="14.00">dep</text>
</g>
<!-- 21 -->
<g id="node22" class="node">
<title>21</title>
<ellipse fill="none" stroke="black" cx="1890" cy="-18" rx="27" ry="18"/>
<text text-anchor="middle" x="1890" y="-14.3" font-family="Times,serif" font-size="14.00">a</text>
</g>
<!-- 0&#45;&gt;21 -->
<g id="edge21" class="edge">
<title>0&#45;&gt;21</title>
<path fill="none" stroke="black" d="M2455.5,-104.19C2379.67,-104.07 2185.45,-100.42 2027,-69 1980.68,-59.81 1969.88,-53.45 1926,-36 1924.17,-35.27 1922.3,-34.5 1920.42,-33.69"/>
<polygon fill="black" stroke="black" points="1921.68,-30.42 1911.13,-29.52 1918.82,-36.8 1921.68,-30.42"/>
<text text-anchor="middle" x="2040.5" y="-57.8" font-family="Times,serif" font-size="14.00">dep</text>
</g>
<!-- 22 -->
<g id="node23" class="node">
<title>22</title>
<ellipse fill="none" stroke="black" cx="1962" cy="-18" rx="27" ry="18"/>
<text text-anchor="middle" x="1962" y="-14.3" font-family="Times,serif" font-size="14.00">o</text>
</g>
<!-- 0&#45;&gt;22 -->
<g id="edge22" class="edge">
<title>0&#45;&gt;22</title>
<path fill="none" stroke="black" d="M2455.87,-102.24C2393.87,-98.52 2253.56,-88.56 2137,-69 2074.38,-58.49 2057.92,-57 1998,-36 1996.09,-35.33 1994.15,-34.59 1992.21,-33.81"/>
<polygon fill="black" stroke="black" points="1993.2,-30.42 1982.63,-29.64 1990.4,-36.84 1993.2,-30.42"/>
<text text-anchor="middle" x="2150.5" y="-57.8" font-family="Times,serif" font-size="14.00">dep</text>
</g>
<!-- 23 -->
<g id="node24" class="node">
<title>23</title>
<ellipse fill="none" stroke="black" cx="2065" cy="-18" rx="58.49" ry="18"/>
<text text-anchor="middle" x="2065" y="-14.3" font-family="Times,serif" font-size="14.00">Ministério</text>
</g>
<!-- 0&#45;&gt;23 -->
<g id="edge23" class="edge">
<title>0&#45;&gt;23</title>
<path fill="none" stroke="black" d="M2455.78,-101.74C2404.96,-97.74 2303.31,-88 2219,-69 2181.51,-60.55 2140.15,-46.87 2109.74,-35.95"/>
<polygon fill="black" stroke="black" points="2110.86,-32.63 2100.27,-32.51 2108.47,-39.21 2110.86,-32.63"/>
<text text-anchor="middle" x="2232.5" y="-57.8" font-family="Times,serif" font-size="14.00">dep</text>
</g>
<!-- 24 -->
<g id="node25" class="node">
<title>24</title>
<ellipse fill="none" stroke="black" cx="2168" cy="-18" rx="27" ry="18"/>
<text text-anchor="middle" x="2168" y="-14.3" font-family="Times,serif" font-size="14.00">de</text>
</g>
<!-- 0&#45;&gt;24 -->
<g id="edge24" class="edge">
<title>0&#45;&gt;24</title>
<path fill="none" stroke="black" d="M2456.56,-99.81C2418.43,-94.37 2352.37,-83.79 2297,-69 2254.63,-57.68 2244.55,-52.72 2204,-36 2202.18,-35.25 2200.32,-34.45 2198.45,-33.64"/>
<polygon fill="black" stroke="black" points="2199.72,-30.37 2189.16,-29.42 2196.82,-36.74 2199.72,-30.37"/>
<text text-anchor="middle" x="2310.5" y="-57.8" font-family="Times,serif" font-size="14.00">dep</text>
</g>
<!-- 25 -->
<g id="node26" class="node">
<title>25</title>
<ellipse fill="none" stroke="black" cx="2240" cy="-18" rx="27" ry="18"/>
<text text-anchor="middle" x="2240" y="-14.3" font-family="Times,serif" font-size="14.00">a</text>
</g>
<!-- 0&#45;&gt;25 -->
<g id="edge25" class="edge">
<title>0&#45;&gt;25</title>
<path fill="none" stroke="black" d="M2459.43,-96.24C2418.28,-84.74 2340.21,-61.76 2276,-36 2274.17,-35.27 2272.3,-34.49 2270.43,-33.68"/>
<polygon fill="black" stroke="black" points="2271.69,-30.41 2261.13,-29.49 2268.82,-36.79 2271.69,-30.41"/>
<text text-anchor="middle" x="2382.5" y="-57.8" font-family="Times,serif" font-size="14.00">dep</text>
</g>
<!-- 26 -->
<g id="node27" class="node">
<title>26</title>
<ellipse fill="none" stroke="black" cx="2341" cy="-18" rx="55.79" ry="18"/>
<text text-anchor="middle" x="2341" y="-14.3" font-family="Times,serif" font-size="14.00">Economia</text>
</g>
<!-- 0&#45;&gt;26 -->
<g id="edge26" class="edge">
<title>0&#45;&gt;26</title>
<path fill="none" stroke="black" d="M2466.31,-91.46C2442.46,-77.67 2403.79,-55.31 2375.71,-39.07"/>
<polygon fill="black" stroke="black" points="2377.41,-36.01 2367,-34.03 2373.9,-42.07 2377.41,-36.01"/>
<text text-anchor="middle" x="2437.5" y="-57.8" font-family="Times,serif" font-size="14.00">dep</text>
</g>
<!-- 27 -->
<g id="node28" class="node">
<title>27</title>
<ellipse fill="none" stroke="black" cx="2442" cy="-18" rx="27" ry="18"/>
<text text-anchor="middle" x="2442" y="-14.3" font-family="Times,serif" font-size="14.00">«</text>
</g>
<!-- 0&#45;&gt;27 -->
<g id="edge27" class="edge">
<title>0&#45;&gt;27</title>
<path fill="none" stroke="black" d="M2479.13,-87.61C2472.47,-75.3 2463.23,-58.23 2455.63,-44.19"/>
<polygon fill="black" stroke="black" points="2458.52,-42.18 2450.69,-35.05 2452.37,-45.51 2458.52,-42.18"/>
<text text-anchor="middle" x="2481.5" y="-57.8" font-family="Times,serif" font-size="14.00">dep</text>
</g>
<!-- 28 -->
<g id="node29" class="node">
<title>28</title>
<ellipse fill="none" stroke="black" cx="2535" cy="-18" rx="48.19" ry="18"/>
<text text-anchor="middle" x="2535" y="-14.3" font-family="Times,serif" font-size="14.00">lembrar</text>
</g>
<!-- 0&#45;&gt;28 -->
<g id="edge28" class="edge">
<title>0&#45;&gt;28</title>
<path fill="none" stroke="black" d="M2497.06,-87.61C2503.74,-75.54 2512.95,-58.88 2520.63,-45"/>
<polygon fill="black" stroke="black" points="2523.87,-46.37 2525.64,-35.92 2517.74,-42.98 2523.87,-46.37"/>
<text text-anchor="middle" x="2528.5" y="-57.8" font-family="Times,serif" font-size="14.00">dep</text>
</g>
<!-- 29 -->
<g id="node30" class="node">
<title>29</title>
<ellipse fill="none" stroke="black" cx="2628" cy="-18" rx="27" ry="18"/>
<text text-anchor="middle" x="2628" y="-14.3" font-family="Times,serif" font-size="14.00">a</text>
</g>
<!-- 0&#45;&gt;29 -->
<g id="edge29" class="edge">
<title>0&#45;&gt;29</title>
<path fill="none" stroke="black" d="M2509.23,-91.22C2520.21,-84.6 2533.83,-76.38 2546,-69 2563.99,-58.08 2584.18,-45.78 2600.02,-36.1"/>
<polygon fill="black" stroke="black" points="2602.09,-38.94 2608.8,-30.74 2598.44,-32.97 2602.09,-38.94"/>
<text text-anchor="middle" x="2582.5" y="-57.8" font-family="Times,serif" font-size="14.00">dep</text>
</g>
<!-- 30 -->
<g id="node31" class="node">
<title>30</title>
<ellipse fill="none" stroke="black" cx="2700" cy="-18" rx="27" ry="18"/>
<text text-anchor="middle" x="2700" y="-14.3" font-family="Times,serif" font-size="14.00">o</text>
</g>
<!-- 0&#45;&gt;30 -->
<g id="edge30" class="edge">
<title>0&#45;&gt;30</title>
<path fill="none" stroke="black" d="M2516.99,-96.33C2539.87,-89.94 2572.42,-80.12 2600,-69 2624.44,-59.14 2651.09,-45.68 2670.73,-35.2"/>
<polygon fill="black" stroke="black" points="2672.62,-38.16 2679.76,-30.33 2669.3,-32 2672.62,-38.16"/>
<text text-anchor="middle" x="2647.5" y="-57.8" font-family="Times,serif" font-size="14.00">dep</text>
</g>
<!-- 31 -->
<g id="node32" class="node">
<title>31</title>
<ellipse fill="none" stroke="black" cx="2795" cy="-18" rx="50.09" ry="18"/>
<text text-anchor="middle" x="2795" y="-14.3" font-family="Times,serif" font-size="14.00">Governo</text>
</g>
<!-- 0&#45;&gt;31 -->
<g id="edge31" class="edge">
<title>0&#45;&gt;31</title>
<path fill="none" stroke="black" d="M2519.08,-99.51C2554.73,-93.99 2614.74,-83.52 2665,-69 2695.9,-60.07 2729.78,-46.93 2755.21,-36.35"/>
<polygon fill="black" stroke="black" points="2756.65,-39.54 2764.52,-32.44 2753.94,-33.09 2756.65,-39.54"/>
<text text-anchor="middle" x="2722.5" y="-57.8" font-family="Times,serif" font-size="14.00">dep</text>
</g>
<!-- 32 -->
<g id="node33" class="node">
<title>32</title>
<ellipse fill="none" stroke="black" cx="2890" cy="-18" rx="27" ry="18"/>
<text text-anchor="middle" x="2890" y="-14.3" font-family="Times,serif" font-size="14.00">»</text>
</g>
<!-- 0&#45;&gt;32 -->
<g id="edge32" class="edge">
<title>0&#45;&gt;32</title>
<path fill="none" stroke="black" d="M2520.36,-101.85C2585.46,-96.7 2736.12,-80.57 2854,-36 2855.84,-35.3 2857.72,-34.55 2859.6,-33.76"/>
<polygon fill="black" stroke="black" points="2861.19,-36.89 2868.92,-29.64 2858.36,-30.49 2861.19,-36.89"/>
<text text-anchor="middle" x="2810.5" y="-57.8" font-family="Times,serif" font-size="14.00">dep</text>
</g>
<!-- 33 -->
<g id="node34" class="node">
<title>33</title>
<ellipse fill="none" stroke="black" cx="2962" cy="-18" rx="27" ry="18"/>
<text text-anchor="middle" x="2962" y="-14.3" font-family="Times,serif" font-size="14.00">o</text>
</g>
<!-- 0&#45;&gt;33 -->
<g id="edge33" class="edge">
<title>0&#45;&gt;33</title>
<path fill="none" stroke="black" d="M2520.73,-103.04C2581.79,-100.73 2716.95,-93.1 2828,-69 2872.91,-59.25 2883.37,-53.17 2926,-36 2927.83,-35.26 2929.69,-34.48 2931.57,-33.67"/>
<polygon fill="black" stroke="black" points="2933.18,-36.78 2940.86,-29.48 2930.31,-30.4 2933.18,-36.78"/>
<text text-anchor="middle" x="2895.5" y="-57.8" font-family="Times,serif" font-size="14.00">dep</text>
</g>
<!-- 34 -->
<g id="node35" class="node">
<title>34</title>
<ellipse fill="none" stroke="black" cx="3079" cy="-18" rx="72.29" ry="18"/>
<text text-anchor="middle" x="3079" y="-14.3" font-family="Times,serif" font-size="14.00">compromisso</text>
</g>
<!-- 0&#45;&gt;34 -->
<g id="edge34" class="edge">
<title>0&#45;&gt;34</title>
<path fill="none" stroke="black" d="M2520.57,-103.64C2592.17,-102.35 2768.43,-96.41 2913,-69 2953.2,-61.38 2997.51,-47.75 3030.24,-36.65"/>
<polygon fill="black" stroke="black" points="3031.68,-39.85 3040,-33.29 3029.41,-33.23 3031.68,-39.85"/>
<text text-anchor="middle" x="2987.5" y="-57.8" font-family="Times,serif" font-size="14.00">dep</text>
</g>
<!-- 35 -->
<g id="node36" class="node">
<title>35</title>
<ellipse fill="none" stroke="black" cx="3214" cy="-18" rx="44.69" ry="18"/>
<text text-anchor="middle" x="3214" y="-14.3" font-family="Times,serif" font-size="14.00">francês</text>
</g>
<!-- 0&#45;&gt;35 -->
<g id="edge35" class="edge">
<title>0&#45;&gt;35</title>
<path fill="none" stroke="black" d="M2520.53,-103.4C2602.32,-101.55 2823.02,-94.4 3005,-69 3074.76,-59.26 3091.89,-53.93 3160,-36 3163.53,-35.07 3167.18,-34.05 3170.83,-32.99"/>
<polygon fill="black" stroke="black" points="3171.87,-36.33 3180.44,-30.11 3169.86,-29.63 3171.87,-36.33"/>
<text text-anchor="middle" x="3102.5" y="-57.8" font-family="Times,serif" font-size="14.00">dep</text>
</g>
<!-- 36 -->
<g id="node37" class="node">
<title>36</title>
<ellipse fill="none" stroke="black" cx="3304" cy="-18" rx="27" ry="18"/>
<text text-anchor="middle" x="3304" y="-14.3" font-family="Times,serif" font-size="14.00">de</text>
</g>
<!-- 0&#45;&gt;36 -->
<g id="edge36" class="edge">
<title>0&#45;&gt;36</title>
<path fill="none" stroke="black" d="M2520.74,-104.07C2614.56,-103.88 2892.22,-100.48 3120,-69 3186.76,-59.77 3204.25,-57.86 3268,-36 3269.91,-35.34 3271.86,-34.62 3273.8,-33.84"/>
<polygon fill="black" stroke="black" points="3275.6,-36.88 3283.39,-29.69 3272.82,-30.45 3275.6,-36.88"/>
<text text-anchor="middle" x="3221.5" y="-57.8" font-family="Times,serif" font-size="14.00">dep</text>
</g>
<!-- 37 -->
<g id="node38" class="node">
<title>37</title>
<ellipse fill="none" stroke="black" cx="3381" cy="-18" rx="32.49" ry="18"/>
<text text-anchor="middle" x="3381" y="-14.3" font-family="Times,serif" font-size="14.00">criar</text>
</g>
<!-- 0&#45;&gt;37 -->
<g id="edge37" class="edge">
<title>0&#45;&gt;37</title>
<path fill="none" stroke="black" d="M2520.42,-103.65C2645.68,-102.11 3097.93,-94.84 3239,-69 3277.29,-61.99 3319.09,-46.21 3347.36,-34.24"/>
<polygon fill="black" stroke="black" points="3348.97,-37.36 3356.76,-30.19 3346.19,-30.93 3348.97,-37.36"/>
<text text-anchor="middle" x="3308.5" y="-57.8" font-family="Times,serif" font-size="14.00">dep</text>
</g>
<!-- 38 -->
<g id="node39" class="node">
<title>38</title>
<ellipse fill="none" stroke="black" cx="3460" cy="-18" rx="28.7" ry="18"/>
<text text-anchor="middle" x="3460" y="-14.3" font-family="Times,serif" font-size="14.00">180</text>
</g>
<!-- 0&#45;&gt;38 -->
<g id="edge38" class="edge">
<title>0&#45;&gt;38</title>
<path fill="none" stroke="black" d="M2520.47,-103.9C2654.78,-103.27 3167.35,-98.92 3326,-69 3362.51,-62.11 3402.12,-46.2 3428.73,-34.16"/>
<polygon fill="black" stroke="black" points="3430.3,-37.29 3437.92,-29.92 3427.37,-30.93 3430.3,-37.29"/>
<text text-anchor="middle" x="3392.5" y="-57.8" font-family="Times,serif" font-size="14.00">dep</text>
</g>
<!-- 39 -->
<g id="node40" class="node">
<title>39</title>
<ellipse fill="none" stroke="black" cx="3544" cy="-18" rx="37.89" ry="18"/>
<text text-anchor="middle" x="3544" y="-14.3" font-family="Times,serif" font-size="14.00">novos</text>
</g>
<!-- 0&#45;&gt;39 -->
<g id="edge39" class="edge">
<title>0&#45;&gt;39</title>
<path fill="none" stroke="black" d="M2520.8,-104.15C2663.95,-104.6 3234.67,-104.09 3410,-69 3444.91,-62.01 3482.75,-47.17 3509.29,-35.46"/>
<polygon fill="black" stroke="black" points="3510.84,-38.6 3518.53,-31.3 3507.97,-32.21 3510.84,-38.6"/>
<text text-anchor="middle" x="3476.5" y="-57.8" font-family="Times,serif" font-size="14.00">dep</text>
</g>
<!-- 40 -->
<g id="node41" class="node">
<title>40</title>
<ellipse fill="none" stroke="black" cx="3641" cy="-18" rx="40.89" ry="18"/>
<text text-anchor="middle" x="3641" y="-14.3" font-family="Times,serif" font-size="14.00">postos</text>
</g>
<!-- 0&#45;&gt;40 -->
<g id="edge40" class="edge">
<title>0&#45;&gt;40</title>
<path fill="none" stroke="black" d="M2520.68,-104.15C2671.46,-104.62 3300.83,-104.41 3494,-69 3532.35,-61.97 3574.3,-46.92 3603.53,-35.16"/>
<polygon fill="black" stroke="black" points="3605,-38.34 3612.93,-31.31 3602.35,-31.86 3605,-38.34"/>
<text text-anchor="middle" x="3565.5" y="-57.8" font-family="Times,serif" font-size="14.00">dep</text>
</g>
<!-- 41 -->
<g id="node42" class="node">
<title>41</title>
<ellipse fill="none" stroke="black" cx="3727" cy="-18" rx="27" ry="18"/>
<text text-anchor="middle" x="3727" y="-14.3" font-family="Times,serif" font-size="14.00">de</text>
</g>
<!-- 0&#45;&gt;41 -->
<g id="edge41" class="edge">
<title>0&#45;&gt;41</title>
<path fill="none" stroke="black" d="M2520.59,-104.12C2679.14,-104.51 3370.85,-104.16 3583,-69 3632.52,-60.79 3644.19,-54.1 3691,-36 3692.84,-35.29 3694.71,-34.53 3696.59,-33.73"/>
<polygon fill="black" stroke="black" points="3698.19,-36.85 3705.9,-29.59 3695.34,-30.46 3698.19,-36.85"/>
<text text-anchor="middle" x="3657.5" y="-57.8" font-family="Times,serif" font-size="14.00">dep</text>
</g>
<!-- 42 -->
<g id="node43" class="node">
<title>42</title>
<ellipse fill="none" stroke="black" cx="3822" cy="-18" rx="50.09" ry="18"/>
<text text-anchor="middle" x="3822" y="-14.3" font-family="Times,serif" font-size="14.00">trabalho</text>
</g>
<!-- 0&#45;&gt;42 -->
<g id="edge42" class="edge">
<title>0&#45;&gt;42</title>
<path fill="none" stroke="black" d="M2520.66,-103.62C2699.74,-101.44 3558.79,-89.99 3675,-69 3712.3,-62.26 3752.97,-47.84 3782.06,-36.21"/>
<polygon fill="black" stroke="black" points="3783.51,-39.4 3791.46,-32.39 3780.88,-32.92 3783.51,-39.4"/>
<text text-anchor="middle" x="3746.5" y="-57.8" font-family="Times,serif" font-size="14.00">dep</text>
</g>
<!-- 43 -->
<g id="node44" class="node">
<title>43</title>
<ellipse fill="none" stroke="black" cx="3917" cy="-18" rx="27" ry="18"/>
<text text-anchor="middle" x="3917" y="-14.3" font-family="Times,serif" font-size="14.00">em</text>
</g>
<!-- 0&#45;&gt;43 -->
<g id="edge43" class="edge">
<title>0&#45;&gt;43</title>
<path fill="none" stroke="black" d="M2520.63,-104.2C2694.54,-105.08 3513.83,-107.11 3764,-69 3817.41,-60.86 3830.4,-54.93 3881,-36 3882.84,-35.31 3884.73,-34.56 3886.61,-33.78"/>
<polygon fill="black" stroke="black" points="3888.2,-36.9 3895.93,-29.66 3885.37,-30.5 3888.2,-36.9"/>
<text text-anchor="middle" x="3845.5" y="-57.8" font-family="Times,serif" font-size="14.00">dep</text>
</g>
<!-- 44 -->
<g id="node45" class="node">
<title>44</title>
<ellipse fill="none" stroke="black" cx="3998" cy="-18" rx="36.29" ry="18"/>
<text text-anchor="middle" x="3998" y="-14.3" font-family="Times,serif" font-size="14.00">Cacia</text>
</g>
<!-- 0&#45;&gt;44 -->
<g id="edge44" class="edge">
<title>0&#45;&gt;44</title>
<path fill="none" stroke="black" d="M2520.58,-103.8C2715.89,-102.55 3727.47,-94.85 3863,-69 3898.42,-62.24 3936.8,-47.22 3963.55,-35.4"/>
<polygon fill="black" stroke="black" points="3965.17,-38.5 3972.85,-31.21 3962.29,-32.12 3965.17,-38.5"/>
<text text-anchor="middle" x="3930.5" y="-57.8" font-family="Times,serif" font-size="14.00">dep</text>
</g>
<!-- 45 -->
<g id="node46" class="node">
<title>45</title>
<ellipse fill="none" stroke="black" cx="4079" cy="-18" rx="27" ry="18"/>
<text text-anchor="middle" x="4079" y="-14.3" font-family="Times,serif" font-size="14.00">e</text>
</g>
<!-- 0&#45;&gt;45 -->
<g id="edge45" class="edge">
<title>0&#45;&gt;45</title>
<path fill="none" stroke="black" d="M2520.6,-103.82C2722.95,-102.65 3803.38,-95.19 3948,-69 3984.11,-62.46 4023.11,-46.29 4049.09,-34.09"/>
<polygon fill="black" stroke="black" points="4050.86,-37.12 4058.37,-29.64 4047.84,-30.81 4050.86,-37.12"/>
<text text-anchor="middle" x="4013.5" y="-57.8" font-family="Times,serif" font-size="14.00">dep</text>
</g>
<!-- 46 -->
<g id="node47" class="node">
<title>46</title>
<ellipse fill="none" stroke="black" cx="4170" cy="-18" rx="46.29" ry="18"/>
<text text-anchor="middle" x="4170" y="-14.3" font-family="Times,serif" font-size="14.00">investir</text>
</g>
<!-- 0&#45;&gt;46 -->
<g id="edge46" class="edge">
<title>0&#45;&gt;46</title>
<path fill="none" stroke="black" d="M2520.75,-103.89C2730.17,-103.1 3877.88,-97.49 4031,-69 4066.41,-62.41 4104.8,-48 4132.25,-36.34"/>
<polygon fill="black" stroke="black" points="4133.69,-39.53 4141.47,-32.34 4130.91,-33.1 4133.69,-39.53"/>
<text text-anchor="middle" x="4099.5" y="-57.8" font-family="Times,serif" font-size="14.00">dep</text>
</g>
<!-- 47 -->
<g id="node48" class="node">
<title>47</title>
<ellipse fill="none" stroke="black" cx="4261" cy="-18" rx="27" ry="18"/>
<text text-anchor="middle" x="4261" y="-14.3" font-family="Times,serif" font-size="14.00">em</text>
</g>
<!-- 0&#45;&gt;47 -->
<g id="edge47" class="edge">
<title>0&#45;&gt;47</title>
<path fill="none" stroke="black" d="M2520.45,-103.84C2735.72,-102.7 3954.13,-95.12 4117,-69 4166.56,-61.05 4178.19,-54.1 4225,-36 4226.84,-35.29 4228.71,-34.53 4230.59,-33.73"/>
<polygon fill="black" stroke="black" points="4232.19,-36.85 4239.9,-29.59 4229.34,-30.46 4232.19,-36.85"/>
<text text-anchor="middle" x="4191.5" y="-57.8" font-family="Times,serif" font-size="14.00">dep</text>
</g>
<!-- 48 -->
<g id="node49" class="node">
<title>48</title>
<ellipse fill="none" stroke="black" cx="4337" cy="-18" rx="30.59" ry="18"/>
<text text-anchor="middle" x="4337" y="-14.3" font-family="Times,serif" font-size="14.00">esta</text>
</g>
<!-- 0&#45;&gt;48 -->
<g id="edge48" class="edge">
<title>0&#45;&gt;48</title>
<path fill="none" stroke="black" d="M2520.5,-104C2742.96,-103.9 4037.4,-101.92 4209,-69 4243.28,-62.42 4280.19,-47.03 4305.52,-35.05"/>
<polygon fill="black" stroke="black" points="4307.15,-38.15 4314.63,-30.65 4304.1,-31.85 4307.15,-38.15"/>
<text text-anchor="middle" x="4273.5" y="-57.8" font-family="Times,serif" font-size="14.00">dep</text>
</g>
<!-- 49 -->
<g id="node50" class="node">
<title>49</title>
<ellipse fill="none" stroke="black" cx="4434" cy="-18" rx="48.19" ry="18"/>
<text text-anchor="middle" x="4434" y="-14.3" font-family="Times,serif" font-size="14.00">unidade</text>
</g>
<!-- 0&#45;&gt;49 -->
<g id="edge49" class="edge">
<title>0&#45;&gt;49</title>
<path fill="none" stroke="black" d="M2520.56,-103.99C2749.24,-103.82 4110.45,-101.46 4291,-69 4327.35,-62.46 4366.86,-48.05 4395.11,-36.37"/>
<polygon fill="black" stroke="black" points="4396.76,-39.48 4404.62,-32.37 4394.04,-33.03 4396.76,-39.48"/>
<text text-anchor="middle" x="4361.5" y="-57.8" font-family="Times,serif" font-size="14.00">dep</text>
</g>
<!-- 50 -->
<g id="node51" class="node">
<title>50</title>
<ellipse fill="none" stroke="black" cx="4527" cy="-18" rx="27" ry="18"/>
<text text-anchor="middle" x="4527" y="-14.3" font-family="Times,serif" font-size="14.00">12</text>
</g>
<!-- 0&#45;&gt;50 -->
<g id="edge50" class="edge">
<title>0&#45;&gt;50</title>
<path fill="none" stroke="black" d="M2520.61,-103.92C2755.76,-103.3 4188.43,-98.29 4379,-69 4430.29,-61.12 4442.5,-54.47 4491,-36 4492.84,-35.3 4494.72,-34.54 4496.6,-33.75"/>
<polygon fill="black" stroke="black" points="4498.19,-36.88 4505.92,-29.62 4495.36,-30.48 4498.19,-36.88"/>
<text text-anchor="middle" x="4455.5" y="-57.8" font-family="Times,serif" font-size="14.00">dep</text>
</g>
<!-- 51 -->
<g id="node52" class="node">
<title>51</title>
<ellipse fill="none" stroke="black" cx="4619" cy="-18" rx="46.59" ry="18"/>
<text text-anchor="middle" x="4619" y="-14.3" font-family="Times,serif" font-size="14.00">milhões</text>
</g>
<!-- 0&#45;&gt;51 -->
<g id="edge51" class="edge">
<title>0&#45;&gt;51</title>
<path fill="none" stroke="black" d="M2520.69,-104.04C2762.78,-104.24 4273.24,-104.07 4473,-69 4510.46,-62.42 4551.27,-47.77 4580.19,-36.01"/>
<polygon fill="black" stroke="black" points="4581.62,-39.21 4589.52,-32.15 4578.95,-32.74 4581.62,-39.21"/>
<text text-anchor="middle" x="4544.5" y="-57.8" font-family="Times,serif" font-size="14.00">dep</text>
</g>
<!-- 52 -->
<g id="node53" class="node">
<title>52</title>
<ellipse fill="none" stroke="black" cx="4711" cy="-18" rx="27" ry="18"/>
<text text-anchor="middle" x="4711" y="-14.3" font-family="Times,serif" font-size="14.00">de</text>
</g>
<!-- 0&#45;&gt;52 -->
<g id="edge52" class="edge">
<title>0&#45;&gt;52</title>
<path fill="none" stroke="black" d="M2520.54,-103.98C2768.26,-103.72 4352.04,-100.84 4562,-69 4613.73,-61.16 4626.08,-54.56 4675,-36 4676.84,-35.3 4678.72,-34.55 4680.6,-33.76"/>
<polygon fill="black" stroke="black" points="4682.19,-36.88 4689.92,-29.63 4679.36,-30.48 4682.19,-36.88"/>
<text text-anchor="middle" x="4641.5" y="-57.8" font-family="Times,serif" font-size="14.00">dep</text>
</g>
<!-- 53 -->
<g id="node54" class="node">
<title>53</title>
<ellipse fill="none" stroke="black" cx="4797" cy="-18" rx="40.89" ry="18"/>
<text text-anchor="middle" x="4797" y="-14.3" font-family="Times,serif" font-size="14.00">contos</text>
</g>
<!-- 0&#45;&gt;53 -->
<g id="edge53" class="edge">
<title>0&#45;&gt;53</title>
<path fill="none" stroke="black" d="M2520.86,-104.13C2776.27,-105.02 4440.03,-109.27 4659,-69 4694.87,-62.4 4733.77,-47.55 4761.09,-35.74"/>
<polygon fill="black" stroke="black" points="4762.51,-38.94 4770.25,-31.71 4759.69,-32.54 4762.51,-38.94"/>
<text text-anchor="middle" x="4727.5" y="-57.8" font-family="Times,serif" font-size="14.00">dep</text>
</g>
<!-- 54 -->
<g id="node55" class="node">
<title>54</title>
<ellipse fill="none" stroke="black" cx="4883" cy="-18" rx="27" ry="18"/>
<text text-anchor="middle" x="4883" y="-14.3" font-family="Times,serif" font-size="14.00">.</text>
</g>
<!-- 0&#45;&gt;54 -->
<g id="edge54" class="edge">
<title>0&#45;&gt;54</title>
<path fill="none" stroke="black" d="M2520.48,-104.08C2780.26,-104.64 4516.17,-106.92 4745,-69 4783.29,-62.66 4824.86,-46.16 4852.26,-33.84"/>
<polygon fill="black" stroke="black" points="4854.05,-36.87 4861.68,-29.52 4851.13,-30.51 4854.05,-36.87"/>
<text text-anchor="middle" x="4813.5" y="-57.8" font-family="Times,serif" font-size="14.00">dep</text>
</g>
</g>
</svg>
