<?xml version="1.0" encoding="UTF-8" standalone="no"?>
<!DOCTYPE svg PUBLIC "-//W3C//DTD SVG 1.1//EN"
 "http://www.w3.org/Graphics/SVG/1.1/DTD/svg11.dtd">
<!-- Generated by graphviz version 2.42.4 (0)
 -->
<!-- Pages: 1 -->
<svg width="2611pt" height="131pt"
 viewBox="0.00 0.00 2610.65 131.00" xmlns="http://www.w3.org/2000/svg" xmlns:xlink="http://www.w3.org/1999/xlink">
<g id="graph0" class="graph" transform="scale(1 1) rotate(0) translate(4 127)">
<polygon fill="white" stroke="transparent" points="-4,4 -4,-127 2606.65,-127 2606.65,4 -4,4"/>
<!-- 0 -->
<g id="node1" class="node">
<title>0</title>
<ellipse fill="none" stroke="black" cx="1225.65" cy="-105" rx="33.29" ry="18"/>
<text text-anchor="middle" x="1225.65" y="-101.3" font-family="Times,serif" font-size="14.00">Após</text>
</g>
<!-- 1 -->
<g id="node2" class="node">
<title>1</title>
<ellipse fill="none" stroke="black" cx="39.65" cy="-18" rx="39.79" ry="18"/>
<text text-anchor="middle" x="39.65" y="-14.3" font-family="Times,serif" font-size="14.00">algum</text>
</g>
<!-- 0&#45;&gt;1 -->
<g id="edge1" class="edge">
<title>0&#45;&gt;1</title>
<path fill="none" stroke="black" d="M1192.42,-104.18C1037.64,-104.8 386.44,-105.2 186.65,-69 148.04,-62.01 105.82,-46.8 76.57,-34.99"/>
<polygon fill="black" stroke="black" points="77.75,-31.69 67.17,-31.12 75.09,-38.16 77.75,-31.69"/>
<text text-anchor="middle" x="200.15" y="-57.8" font-family="Times,serif" font-size="14.00">dep</text>
</g>
<!-- 2 -->
<g id="node3" class="node">
<title>2</title>
<ellipse fill="none" stroke="black" cx="135.65" cy="-18" rx="38.19" ry="18"/>
<text text-anchor="middle" x="135.65" y="-14.3" font-family="Times,serif" font-size="14.00">treino</text>
</g>
<!-- 0&#45;&gt;2 -->
<g id="edge2" class="edge">
<title>0&#45;&gt;2</title>
<path fill="none" stroke="black" d="M1192.14,-104.21C1044.53,-104.89 451.66,-105.3 269.65,-69 234.95,-62.08 197.36,-47.37 170.85,-35.69"/>
<polygon fill="black" stroke="black" points="172.16,-32.44 161.61,-31.54 169.3,-38.83 172.16,-32.44"/>
<text text-anchor="middle" x="283.15" y="-57.8" font-family="Times,serif" font-size="14.00">dep</text>
</g>
<!-- 3 -->
<g id="node4" class="node">
<title>3</title>
<ellipse fill="none" stroke="black" cx="218.65" cy="-18" rx="27" ry="18"/>
<text text-anchor="middle" x="218.65" y="-14.3" font-family="Times,serif" font-size="14.00">,</text>
</g>
<!-- 0&#45;&gt;3 -->
<g id="edge3" class="edge">
<title>0&#45;&gt;3</title>
<path fill="none" stroke="black" d="M1192.3,-103.93C1053.14,-103.43 518.22,-99.55 352.65,-69 315.68,-62.18 275.56,-45.94 248.96,-33.8"/>
<polygon fill="black" stroke="black" points="250.34,-30.59 239.8,-29.54 247.39,-36.93 250.34,-30.59"/>
<text text-anchor="middle" x="366.15" y="-57.8" font-family="Times,serif" font-size="14.00">dep</text>
</g>
<!-- 4 -->
<g id="node5" class="node">
<title>4</title>
<ellipse fill="none" stroke="black" cx="290.65" cy="-18" rx="27" ry="18"/>
<text text-anchor="middle" x="290.65" y="-14.3" font-family="Times,serif" font-size="14.00">os</text>
</g>
<!-- 0&#45;&gt;4 -->
<g id="edge4" class="edge">
<title>0&#45;&gt;4</title>
<path fill="none" stroke="black" d="M1192.23,-103.34C1064.23,-100.69 605.06,-89.88 460.65,-69 399.94,-60.22 384.44,-56.53 326.65,-36 324.74,-35.32 322.8,-34.58 320.86,-33.79"/>
<polygon fill="black" stroke="black" points="321.85,-30.41 311.29,-29.61 319.05,-36.82 321.85,-30.41"/>
<text text-anchor="middle" x="474.15" y="-57.8" font-family="Times,serif" font-size="14.00">dep</text>
</g>
<!-- 5 -->
<g id="node6" class="node">
<title>5</title>
<ellipse fill="none" stroke="black" cx="392.65" cy="-18" rx="57.39" ry="18"/>
<text text-anchor="middle" x="392.65" y="-14.3" font-family="Times,serif" font-size="14.00">comandos</text>
</g>
<!-- 0&#45;&gt;5 -->
<g id="edge5" class="edge">
<title>0&#45;&gt;5</title>
<path fill="none" stroke="black" d="M1192.4,-103.43C1074.05,-101.21 673.57,-92.15 547.65,-69 508.88,-61.87 466.37,-47.68 435.69,-36.23"/>
<polygon fill="black" stroke="black" points="436.75,-32.89 426.16,-32.62 434.27,-39.44 436.75,-32.89"/>
<text text-anchor="middle" x="561.15" y="-57.8" font-family="Times,serif" font-size="14.00">dep</text>
</g>
<!-- 6 -->
<g id="node7" class="node">
<title>6</title>
<ellipse fill="none" stroke="black" cx="494.65" cy="-18" rx="27" ry="18"/>
<text text-anchor="middle" x="494.65" y="-14.3" font-family="Times,serif" font-size="14.00">são</text>
</g>
<!-- 0&#45;&gt;6 -->
<g id="edge6" class="edge">
<title>0&#45;&gt;6</title>
<path fill="none" stroke="black" d="M1192.49,-103.06C1084.9,-99.83 746.28,-88.37 638.65,-69 589.25,-60.11 577.46,-54.1 530.65,-36 528.81,-35.29 526.93,-34.53 525.05,-33.73"/>
<polygon fill="black" stroke="black" points="526.3,-30.46 515.74,-29.59 523.46,-36.85 526.3,-30.46"/>
<text text-anchor="middle" x="652.15" y="-57.8" font-family="Times,serif" font-size="14.00">dep</text>
</g>
<!-- 7 -->
<g id="node8" class="node">
<title>7</title>
<ellipse fill="none" stroke="black" cx="577.65" cy="-18" rx="37.89" ry="18"/>
<text text-anchor="middle" x="577.65" y="-14.3" font-family="Times,serif" font-size="14.00">fáceis</text>
</g>
<!-- 0&#45;&gt;7 -->
<g id="edge7" class="edge">
<title>0&#45;&gt;7</title>
<path fill="none" stroke="black" d="M1192.23,-104.64C1110.84,-105.56 896.2,-104.13 721.65,-69 683.93,-61.41 642.62,-46.32 613.96,-34.69"/>
<polygon fill="black" stroke="black" points="614.95,-31.32 604.37,-30.74 612.28,-37.79 614.95,-31.32"/>
<text text-anchor="middle" x="735.15" y="-57.8" font-family="Times,serif" font-size="14.00">dep</text>
</g>
<!-- 8 -->
<g id="node9" class="node">
<title>8</title>
<ellipse fill="none" stroke="black" cx="660.65" cy="-18" rx="27" ry="18"/>
<text text-anchor="middle" x="660.65" y="-14.3" font-family="Times,serif" font-size="14.00">de</text>
</g>
<!-- 0&#45;&gt;8 -->
<g id="edge8" class="edge">
<title>0&#45;&gt;8</title>
<path fill="none" stroke="black" d="M1192.66,-102.87C1124.2,-100.15 961.87,-91.66 827.65,-69 768.44,-59.01 753.17,-56.25 696.65,-36 694.79,-35.34 692.9,-34.61 691.01,-33.84"/>
<polygon fill="black" stroke="black" points="692.24,-30.56 681.68,-29.77 689.44,-36.97 692.24,-30.56"/>
<text text-anchor="middle" x="841.15" y="-57.8" font-family="Times,serif" font-size="14.00">dep</text>
</g>
<!-- 9 -->
<g id="node10" class="node">
<title>9</title>
<ellipse fill="none" stroke="black" cx="754.65" cy="-18" rx="48.99" ry="18"/>
<text text-anchor="middle" x="754.65" y="-14.3" font-family="Times,serif" font-size="14.00">manejar</text>
</g>
<!-- 0&#45;&gt;9 -->
<g id="edge9" class="edge">
<title>0&#45;&gt;9</title>
<path fill="none" stroke="black" d="M1192.51,-102.24C1135.74,-98.79 1016.43,-89.58 917.65,-69 876.15,-60.36 830.08,-45.74 797.54,-34.54"/>
<polygon fill="black" stroke="black" points="798.48,-31.16 787.89,-31.18 796.18,-37.77 798.48,-31.16"/>
<text text-anchor="middle" x="931.15" y="-57.8" font-family="Times,serif" font-size="14.00">dep</text>
</g>
<!-- 10 -->
<g id="node11" class="node">
<title>10</title>
<ellipse fill="none" stroke="black" cx="848.65" cy="-18" rx="27" ry="18"/>
<text text-anchor="middle" x="848.65" y="-14.3" font-family="Times,serif" font-size="14.00">,</text>
</g>
<!-- 0&#45;&gt;10 -->
<g id="edge10" class="edge">
<title>0&#45;&gt;10</title>
<path fill="none" stroke="black" d="M1193.32,-100.72C1131.77,-93.79 994.12,-74.99 884.65,-36 882.74,-35.32 880.8,-34.58 878.86,-33.79"/>
<polygon fill="black" stroke="black" points="879.86,-30.4 869.29,-29.6 877.05,-36.82 879.86,-30.4"/>
<text text-anchor="middle" x="1009.15" y="-57.8" font-family="Times,serif" font-size="14.00">dep</text>
</g>
<!-- 11 -->
<g id="node12" class="node">
<title>11</title>
<ellipse fill="none" stroke="black" cx="955.65" cy="-18" rx="61.99" ry="18"/>
<text text-anchor="middle" x="955.65" y="-14.3" font-family="Times,serif" font-size="14.00">permitindo</text>
</g>
<!-- 0&#45;&gt;11 -->
<g id="edge11" class="edge">
<title>0&#45;&gt;11</title>
<path fill="none" stroke="black" d="M1195.45,-97.29C1167.51,-90.84 1124.94,-80.42 1088.65,-69 1058.5,-59.51 1025.21,-47 999.48,-36.86"/>
<polygon fill="black" stroke="black" points="1000.59,-33.54 990.01,-33.1 998.01,-40.04 1000.59,-33.54"/>
<text text-anchor="middle" x="1102.15" y="-57.8" font-family="Times,serif" font-size="14.00">dep</text>
</g>
<!-- 12 -->
<g id="node13" class="node">
<title>12</title>
<ellipse fill="none" stroke="black" cx="1062.65" cy="-18" rx="27" ry="18"/>
<text text-anchor="middle" x="1062.65" y="-14.3" font-family="Times,serif" font-size="14.00">a</text>
</g>
<!-- 0&#45;&gt;12 -->
<g id="edge12" class="edge">
<title>0&#45;&gt;12</title>
<path fill="none" stroke="black" d="M1199.32,-93.71C1183.26,-87.18 1162.47,-78.23 1144.65,-69 1125.83,-59.26 1105.49,-46.87 1089.78,-36.86"/>
<polygon fill="black" stroke="black" points="1091.41,-33.75 1081.11,-31.28 1087.62,-39.64 1091.41,-33.75"/>
<text text-anchor="middle" x="1158.15" y="-57.8" font-family="Times,serif" font-size="14.00">dep</text>
</g>
<!-- 13 -->
<g id="node14" class="node">
<title>13</title>
<ellipse fill="none" stroke="black" cx="1134.65" cy="-18" rx="27" ry="18"/>
<text text-anchor="middle" x="1134.65" y="-14.3" font-family="Times,serif" font-size="14.00">o</text>
</g>
<!-- 0&#45;&gt;13 -->
<g id="edge13" class="edge">
<title>0&#45;&gt;13</title>
<path fill="none" stroke="black" d="M1209.38,-88.8C1194.88,-75.26 1173.51,-55.31 1157.34,-40.2"/>
<polygon fill="black" stroke="black" points="1159.56,-37.48 1149.87,-33.22 1154.79,-42.6 1159.56,-37.48"/>
<text text-anchor="middle" x="1199.15" y="-57.8" font-family="Times,serif" font-size="14.00">dep</text>
</g>
<!-- 14 -->
<g id="node15" class="node">
<title>14</title>
<ellipse fill="none" stroke="black" cx="1225.65" cy="-18" rx="46.29" ry="18"/>
<text text-anchor="middle" x="1225.65" y="-14.3" font-family="Times,serif" font-size="14.00">jogador</text>
</g>
<!-- 0&#45;&gt;14 -->
<g id="edge14" class="edge">
<title>0&#45;&gt;14</title>
<path fill="none" stroke="black" d="M1225.65,-86.8C1225.65,-75.16 1225.65,-59.55 1225.65,-46.24"/>
<polygon fill="black" stroke="black" points="1229.15,-46.18 1225.65,-36.18 1222.15,-46.18 1229.15,-46.18"/>
<text text-anchor="middle" x="1239.15" y="-57.8" font-family="Times,serif" font-size="14.00">dep</text>
</g>
<!-- 15 -->
<g id="node16" class="node">
<title>15</title>
<ellipse fill="none" stroke="black" cx="1340.65" cy="-18" rx="51.19" ry="18"/>
<text text-anchor="middle" x="1340.65" y="-14.3" font-family="Times,serif" font-size="14.00">executar</text>
</g>
<!-- 0&#45;&gt;15 -->
<g id="edge15" class="edge">
<title>0&#45;&gt;15</title>
<path fill="none" stroke="black" d="M1244.64,-89.96C1262.8,-76.54 1290.46,-56.09 1311.43,-40.59"/>
<polygon fill="black" stroke="black" points="1313.72,-43.26 1319.68,-34.5 1309.56,-37.63 1313.72,-43.26"/>
<text text-anchor="middle" x="1304.15" y="-57.8" font-family="Times,serif" font-size="14.00">dep</text>
</g>
<!-- 16 -->
<g id="node17" class="node">
<title>16</title>
<ellipse fill="none" stroke="black" cx="1459.65" cy="-18" rx="49.29" ry="18"/>
<text text-anchor="middle" x="1459.65" y="-14.3" font-family="Times,serif" font-size="14.00">piruetas</text>
</g>
<!-- 0&#45;&gt;16 -->
<g id="edge16" class="edge">
<title>0&#45;&gt;16</title>
<path fill="none" stroke="black" d="M1252.49,-94.25C1292.58,-79.69 1368.52,-52.1 1416.48,-34.68"/>
<polygon fill="black" stroke="black" points="1417.76,-37.94 1425.97,-31.23 1415.37,-31.36 1417.76,-37.94"/>
<text text-anchor="middle" x="1371.15" y="-57.8" font-family="Times,serif" font-size="14.00">dep</text>
</g>
<!-- 17 -->
<g id="node18" class="node">
<title>17</title>
<ellipse fill="none" stroke="black" cx="1553.65" cy="-18" rx="27" ry="18"/>
<text text-anchor="middle" x="1553.65" y="-14.3" font-family="Times,serif" font-size="14.00">ou</text>
</g>
<!-- 0&#45;&gt;17 -->
<g id="edge17" class="edge">
<title>0&#45;&gt;17</title>
<path fill="none" stroke="black" d="M1257.02,-99.18C1311.26,-90.29 1425.58,-69.17 1517.65,-36 1519.5,-35.33 1521.39,-34.6 1523.28,-33.83"/>
<polygon fill="black" stroke="black" points="1524.85,-36.97 1532.61,-29.75 1522.05,-30.55 1524.85,-36.97"/>
<text text-anchor="middle" x="1469.15" y="-57.8" font-family="Times,serif" font-size="14.00">dep</text>
</g>
<!-- 18 -->
<g id="node19" class="node">
<title>18</title>
<ellipse fill="none" stroke="black" cx="1642.65" cy="-18" rx="44.39" ry="18"/>
<text text-anchor="middle" x="1642.65" y="-14.3" font-family="Times,serif" font-size="14.00">utilizar</text>
</g>
<!-- 0&#45;&gt;18 -->
<g id="edge18" class="edge">
<title>0&#45;&gt;18</title>
<path fill="none" stroke="black" d="M1258.53,-101.47C1308.34,-97.21 1405.7,-87.24 1486.65,-69 1533.54,-58.43 1543.87,-50.67 1589.65,-36 1592.78,-35 1596.01,-33.96 1599.26,-32.92"/>
<polygon fill="black" stroke="black" points="1600.55,-36.18 1609,-29.79 1598.41,-29.51 1600.55,-36.18"/>
<text text-anchor="middle" x="1552.15" y="-57.8" font-family="Times,serif" font-size="14.00">dep</text>
</g>
<!-- 19 -->
<g id="node20" class="node">
<title>19</title>
<ellipse fill="none" stroke="black" cx="1731.65" cy="-18" rx="27" ry="18"/>
<text text-anchor="middle" x="1731.65" y="-14.3" font-family="Times,serif" font-size="14.00">o</text>
</g>
<!-- 0&#45;&gt;19 -->
<g id="edge19" class="edge">
<title>0&#45;&gt;19</title>
<path fill="none" stroke="black" d="M1258.61,-102.35C1320.15,-98.89 1456.52,-89.44 1569.65,-69 1626.61,-58.71 1641.24,-55.78 1695.65,-36 1697.5,-35.33 1699.38,-34.59 1701.27,-33.82"/>
<polygon fill="black" stroke="black" points="1702.85,-36.95 1710.6,-29.73 1700.04,-30.54 1702.85,-36.95"/>
<text text-anchor="middle" x="1654.15" y="-57.8" font-family="Times,serif" font-size="14.00">dep</text>
</g>
<!-- 20 -->
<g id="node21" class="node">
<title>20</title>
<ellipse fill="none" stroke="black" cx="1832.65" cy="-18" rx="55.79" ry="18"/>
<text text-anchor="middle" x="1832.65" y="-14.3" font-family="Times,serif" font-size="14.00">propulsor</text>
</g>
<!-- 0&#45;&gt;20 -->
<g id="edge20" class="edge">
<title>0&#45;&gt;20</title>
<path fill="none" stroke="black" d="M1258.99,-103.91C1333.62,-103.15 1519.48,-98.22 1671.65,-69 1712.02,-61.25 1756.56,-46.95 1788.54,-35.62"/>
<polygon fill="black" stroke="black" points="1789.81,-38.88 1798.04,-32.21 1787.45,-32.29 1789.81,-38.88"/>
<text text-anchor="middle" x="1744.15" y="-57.8" font-family="Times,serif" font-size="14.00">dep</text>
</g>
<!-- 21 -->
<g id="node22" class="node">
<title>21</title>
<ellipse fill="none" stroke="black" cx="1938.65" cy="-18" rx="31.7" ry="18"/>
<text text-anchor="middle" x="1938.65" y="-14.3" font-family="Times,serif" font-size="14.00">para</text>
</g>
<!-- 0&#45;&gt;21 -->
<g id="edge21" class="edge">
<title>0&#45;&gt;21</title>
<path fill="none" stroke="black" d="M1258.8,-103.82C1343.2,-102.94 1572.9,-97.84 1761.65,-69 1823.13,-59.61 1838.52,-55.3 1897.65,-36 1899.93,-35.25 1902.27,-34.44 1904.62,-33.58"/>
<polygon fill="black" stroke="black" points="1906.1,-36.75 1914.16,-29.88 1903.57,-30.23 1906.1,-36.75"/>
<text text-anchor="middle" x="1851.15" y="-57.8" font-family="Times,serif" font-size="14.00">dep</text>
</g>
<!-- 22 -->
<g id="node23" class="node">
<title>22</title>
<ellipse fill="none" stroke="black" cx="2037.65" cy="-18" rx="48.99" ry="18"/>
<text text-anchor="middle" x="2037.65" y="-14.3" font-family="Times,serif" font-size="14.00">acelerar</text>
</g>
<!-- 0&#45;&gt;22 -->
<g id="edge22" class="edge">
<title>0&#45;&gt;22</title>
<path fill="none" stroke="black" d="M1258.72,-103.22C1372.83,-100.36 1749.53,-89.57 1868.65,-69 1912.55,-61.42 1961.19,-46.28 1994.98,-34.64"/>
<polygon fill="black" stroke="black" points="1996.24,-37.91 2004.53,-31.31 1993.93,-31.3 1996.24,-37.91"/>
<text text-anchor="middle" x="1944.15" y="-57.8" font-family="Times,serif" font-size="14.00">dep</text>
</g>
<!-- 23 -->
<g id="node24" class="node">
<title>23</title>
<ellipse fill="none" stroke="black" cx="2204.65" cy="-18" rx="100.18" ry="18"/>
<text text-anchor="middle" x="2204.65" y="-14.3" font-family="Times,serif" font-size="14.00">momentaneamente</text>
</g>
<!-- 0&#45;&gt;23 -->
<g id="edge23" class="edge">
<title>0&#45;&gt;23</title>
<path fill="none" stroke="black" d="M1258.82,-104.25C1362.86,-104.65 1691.94,-102.95 1961.65,-69 2022.42,-61.35 2090.65,-46.77 2139.31,-35.32"/>
<polygon fill="black" stroke="black" points="2140.16,-38.72 2149.08,-33 2138.54,-31.91 2140.16,-38.72"/>
<text text-anchor="middle" x="2063.15" y="-57.8" font-family="Times,serif" font-size="14.00">dep</text>
</g>
<!-- 24 -->
<g id="node25" class="node">
<title>24</title>
<ellipse fill="none" stroke="black" cx="2349.65" cy="-18" rx="27" ry="18"/>
<text text-anchor="middle" x="2349.65" y="-14.3" font-family="Times,serif" font-size="14.00">a</text>
</g>
<!-- 0&#45;&gt;24 -->
<g id="edge24" class="edge">
<title>0&#45;&gt;24</title>
<path fill="none" stroke="black" d="M1258.74,-103.83C1372.99,-103 1761.44,-98.06 2080.65,-69 2184.8,-59.52 2213.45,-66 2313.65,-36 2315.58,-35.42 2317.55,-34.75 2319.51,-34.02"/>
<polygon fill="black" stroke="black" points="2321.26,-37.08 2329.13,-29.98 2318.55,-30.63 2321.26,-37.08"/>
<text text-anchor="middle" x="2253.15" y="-57.8" font-family="Times,serif" font-size="14.00">dep</text>
</g>
<!-- 25 -->
<g id="node26" class="node">
<title>25</title>
<ellipse fill="none" stroke="black" cx="2421.65" cy="-18" rx="27" ry="18"/>
<text text-anchor="middle" x="2421.65" y="-14.3" font-family="Times,serif" font-size="14.00">sua</text>
</g>
<!-- 0&#45;&gt;25 -->
<g id="edge25" class="edge">
<title>0&#45;&gt;25</title>
<path fill="none" stroke="black" d="M1258.77,-103.98C1413.83,-103.75 2068.81,-100.84 2270.65,-69 2323.17,-60.71 2335.89,-54.75 2385.65,-36 2387.49,-35.31 2389.37,-34.55 2391.25,-33.77"/>
<polygon fill="black" stroke="black" points="2392.84,-36.89 2400.57,-29.65 2390.01,-30.49 2392.84,-36.89"/>
<text text-anchor="middle" x="2349.15" y="-57.8" font-family="Times,serif" font-size="14.00">dep</text>
</g>
<!-- 26 -->
<g id="node27" class="node">
<title>26</title>
<ellipse fill="none" stroke="black" cx="2498.65" cy="-18" rx="32.49" ry="18"/>
<text text-anchor="middle" x="2498.65" y="-14.3" font-family="Times,serif" font-size="14.00">nave</text>
</g>
<!-- 0&#45;&gt;26 -->
<g id="edge26" class="edge">
<title>0&#45;&gt;26</title>
<path fill="none" stroke="black" d="M1258.76,-103.61C1434.63,-101.45 2255.52,-90.29 2366.65,-69 2401.8,-62.27 2439.81,-46.94 2465.97,-35.02"/>
<polygon fill="black" stroke="black" points="2467.45,-38.19 2475.05,-30.8 2464.51,-31.84 2467.45,-38.19"/>
<text text-anchor="middle" x="2433.15" y="-57.8" font-family="Times,serif" font-size="14.00">dep</text>
</g>
<!-- 27 -->
<g id="node28" class="node">
<title>27</title>
<ellipse fill="none" stroke="black" cx="2575.65" cy="-18" rx="27" ry="18"/>
<text text-anchor="middle" x="2575.65" y="-14.3" font-family="Times,serif" font-size="14.00">.</text>
</g>
<!-- 0&#45;&gt;27 -->
<g id="edge27" class="edge">
<title>0&#45;&gt;27</title>
<path fill="none" stroke="black" d="M1258.76,-103.7C1442.29,-101.94 2330.88,-92.26 2450.65,-69 2484.68,-62.39 2521.23,-46.66 2545.96,-34.59"/>
<polygon fill="black" stroke="black" points="2547.77,-37.6 2555.15,-30.01 2544.64,-31.34 2547.77,-37.6"/>
<text text-anchor="middle" x="2514.15" y="-57.8" font-family="Times,serif" font-size="14.00">dep</text>
</g>
</g>
</svg>
