<?xml version="1.0" encoding="UTF-8" standalone="no"?>
<!DOCTYPE svg PUBLIC "-//W3C//DTD SVG 1.1//EN"
 "http://www.w3.org/Graphics/SVG/1.1/DTD/svg11.dtd">
<!-- Generated by graphviz version 2.42.4 (0)
 -->
<!-- Pages: 1 -->
<svg width="4842pt" height="131pt"
 viewBox="0.00 0.00 4842.00 131.00" xmlns="http://www.w3.org/2000/svg" xmlns:xlink="http://www.w3.org/1999/xlink">
<g id="graph0" class="graph" transform="scale(1 1) rotate(0) translate(4 127)">
<polygon fill="white" stroke="transparent" points="-4,4 -4,-127 4838,-127 4838,4 -4,4"/>
<!-- 0 -->
<g id="node1" class="node">
<title>0</title>
<ellipse fill="none" stroke="black" cx="2521" cy="-105" rx="42.49" ry="18"/>
<text text-anchor="middle" x="2521" y="-101.3" font-family="Times,serif" font-size="14.00">Depois</text>
</g>
<!-- 1 -->
<g id="node2" class="node">
<title>1</title>
<ellipse fill="none" stroke="black" cx="27" cy="-18" rx="27" ry="18"/>
<text text-anchor="middle" x="27" y="-14.3" font-family="Times,serif" font-size="14.00">de</text>
</g>
<!-- 0&#45;&gt;1 -->
<g id="edge1" class="edge">
<title>0&#45;&gt;1</title>
<path fill="none" stroke="black" d="M2478.78,-103.76C2170.55,-101.97 275.77,-90.15 157,-69 121.32,-62.65 82.87,-46.6 57.11,-34.38"/>
<polygon fill="black" stroke="black" points="58.42,-31.13 47.9,-29.92 55.37,-37.43 58.42,-31.13"/>
<text text-anchor="middle" x="170.5" y="-57.8" font-family="Times,serif" font-size="14.00">dep</text>
</g>
<!-- 2 -->
<g id="node3" class="node">
<title>2</title>
<ellipse fill="none" stroke="black" cx="99" cy="-18" rx="27" ry="18"/>
<text text-anchor="middle" x="99" y="-14.3" font-family="Times,serif" font-size="14.00">um</text>
</g>
<!-- 0&#45;&gt;2 -->
<g id="edge2" class="edge">
<title>0&#45;&gt;2</title>
<path fill="none" stroke="black" d="M2478.78,-103.97C2187.89,-103.71 485.65,-100.8 258,-69 201.94,-61.17 188.14,-55.5 135,-36 133.15,-35.32 131.27,-34.58 129.38,-33.81"/>
<polygon fill="black" stroke="black" points="130.61,-30.53 120.05,-29.71 127.8,-36.94 130.61,-30.53"/>
<text text-anchor="middle" x="271.5" y="-57.8" font-family="Times,serif" font-size="14.00">dep</text>
</g>
<!-- 3 -->
<g id="node4" class="node">
<title>3</title>
<ellipse fill="none" stroke="black" cx="189" cy="-18" rx="45.49" ry="18"/>
<text text-anchor="middle" x="189" y="-14.3" font-family="Times,serif" font-size="14.00">começo</text>
</g>
<!-- 0&#45;&gt;3 -->
<g id="edge3" class="edge">
<title>0&#45;&gt;3</title>
<path fill="none" stroke="black" d="M2478.71,-104.02C2194.67,-104.09 569.21,-102.95 352,-69 309.2,-62.31 262.06,-46.93 229.53,-34.98"/>
<polygon fill="black" stroke="black" points="230.52,-31.61 219.93,-31.39 228.07,-38.17 230.52,-31.61"/>
<text text-anchor="middle" x="365.5" y="-57.8" font-family="Times,serif" font-size="14.00">dep</text>
</g>
<!-- 4 -->
<g id="node5" class="node">
<title>4</title>
<ellipse fill="none" stroke="black" cx="279" cy="-18" rx="27" ry="18"/>
<text text-anchor="middle" x="279" y="-14.3" font-family="Times,serif" font-size="14.00">de</text>
</g>
<!-- 0&#45;&gt;4 -->
<g id="edge4" class="edge">
<title>0&#45;&gt;4</title>
<path fill="none" stroke="black" d="M2478.57,-104.16C2224.94,-105 906.68,-107.41 504,-69 419.11,-60.9 396.28,-61.77 315,-36 313.07,-35.39 311.12,-34.7 309.16,-33.95"/>
<polygon fill="black" stroke="black" points="310.13,-30.56 299.56,-29.86 307.39,-37 310.13,-30.56"/>
<text text-anchor="middle" x="517.5" y="-57.8" font-family="Times,serif" font-size="14.00">dep</text>
</g>
<!-- 5 -->
<g id="node6" class="node">
<title>5</title>
<ellipse fill="none" stroke="black" cx="391" cy="-18" rx="66.89" ry="18"/>
<text text-anchor="middle" x="391" y="-14.3" font-family="Times,serif" font-size="14.00">campeonato</text>
</g>
<!-- 0&#45;&gt;5 -->
<g id="edge5" class="edge">
<title>0&#45;&gt;5</title>
<path fill="none" stroke="black" d="M2478.71,-103.7C2216.23,-101.74 814.65,-90.36 625,-69 562.95,-62.01 493.1,-45.99 445.99,-33.96"/>
<polygon fill="black" stroke="black" points="446.86,-30.56 436.3,-31.45 445.11,-37.34 446.86,-30.56"/>
<text text-anchor="middle" x="638.5" y="-57.8" font-family="Times,serif" font-size="14.00">dep</text>
</g>
<!-- 6 -->
<g id="node7" class="node">
<title>6</title>
<ellipse fill="none" stroke="black" cx="553" cy="-18" rx="77.19" ry="18"/>
<text text-anchor="middle" x="553" y="-14.3" font-family="Times,serif" font-size="14.00">decepcionante</text>
</g>
<!-- 0&#45;&gt;6 -->
<g id="edge6" class="edge">
<title>0&#45;&gt;6</title>
<path fill="none" stroke="black" d="M2478.79,-103.86C2224.3,-102.93 899.55,-96.78 721,-69 679.54,-62.55 634,-48.54 600.81,-36.99"/>
<polygon fill="black" stroke="black" points="601.95,-33.68 591.35,-33.65 599.62,-40.28 601.95,-33.68"/>
<text text-anchor="middle" x="734.5" y="-57.8" font-family="Times,serif" font-size="14.00">dep</text>
</g>
<!-- 7 -->
<g id="node8" class="node">
<title>7</title>
<ellipse fill="none" stroke="black" cx="675" cy="-18" rx="27" ry="18"/>
<text text-anchor="middle" x="675" y="-14.3" font-family="Times,serif" font-size="14.00">,</text>
</g>
<!-- 0&#45;&gt;7 -->
<g id="edge7" class="edge">
<title>0&#45;&gt;7</title>
<path fill="none" stroke="black" d="M2478.67,-103.97C2230.65,-103.65 971.19,-100.51 802,-69 767.09,-62.5 729.53,-46.48 704.39,-34.31"/>
<polygon fill="black" stroke="black" points="705.91,-31.15 695.39,-29.86 702.81,-37.43 705.91,-31.15"/>
<text text-anchor="middle" x="815.5" y="-57.8" font-family="Times,serif" font-size="14.00">dep</text>
</g>
<!-- 8 -->
<g id="node9" class="node">
<title>8</title>
<ellipse fill="none" stroke="black" cx="747" cy="-18" rx="27" ry="18"/>
<text text-anchor="middle" x="747" y="-14.3" font-family="Times,serif" font-size="14.00">a</text>
</g>
<!-- 0&#45;&gt;8 -->
<g id="edge8" class="edge">
<title>0&#45;&gt;8</title>
<path fill="none" stroke="black" d="M2478.66,-103.76C2238.79,-102.3 1055.35,-93.9 895,-69 843.72,-61.04 831.5,-54.47 783,-36 781.16,-35.3 779.28,-34.54 777.4,-33.75"/>
<polygon fill="black" stroke="black" points="778.64,-30.48 768.08,-29.62 775.81,-36.88 778.64,-30.48"/>
<text text-anchor="middle" x="908.5" y="-57.8" font-family="Times,serif" font-size="14.00">dep</text>
</g>
<!-- 9 -->
<g id="node10" class="node">
<title>9</title>
<ellipse fill="none" stroke="black" cx="834" cy="-18" rx="42.49" ry="18"/>
<text text-anchor="middle" x="834" y="-14.3" font-family="Times,serif" font-size="14.00">equipa</text>
</g>
<!-- 0&#45;&gt;9 -->
<g id="edge9" class="edge">
<title>0&#45;&gt;9</title>
<path fill="none" stroke="black" d="M2478.72,-103.79C2246.85,-102.54 1134.63,-95.21 984,-69 944.88,-62.19 902.08,-47.12 872.25,-35.29"/>
<polygon fill="black" stroke="black" points="873.23,-31.91 862.65,-31.42 870.62,-38.4 873.23,-31.91"/>
<text text-anchor="middle" x="997.5" y="-57.8" font-family="Times,serif" font-size="14.00">dep</text>
</g>
<!-- 10 -->
<g id="node11" class="node">
<title>10</title>
<ellipse fill="none" stroke="black" cx="921" cy="-18" rx="27" ry="18"/>
<text text-anchor="middle" x="921" y="-14.3" font-family="Times,serif" font-size="14.00">de</text>
</g>
<!-- 0&#45;&gt;10 -->
<g id="edge10" class="edge">
<title>0&#45;&gt;10</title>
<path fill="none" stroke="black" d="M2478.71,-104.13C2272.94,-104.58 1375.14,-104.46 1098,-69 1034.16,-60.83 1017.77,-57.19 957,-36 955.09,-35.33 953.15,-34.6 951.2,-33.82"/>
<polygon fill="black" stroke="black" points="952.19,-30.43 941.63,-29.65 949.4,-36.85 952.19,-30.43"/>
<text text-anchor="middle" x="1111.5" y="-57.8" font-family="Times,serif" font-size="14.00">dep</text>
</g>
<!-- 11 -->
<g id="node12" class="node">
<title>11</title>
<ellipse fill="none" stroke="black" cx="1034" cy="-18" rx="67.69" ry="18"/>
<text text-anchor="middle" x="1034" y="-14.3" font-family="Times,serif" font-size="14.00">basquetebol</text>
</g>
<!-- 0&#45;&gt;11 -->
<g id="edge11" class="edge">
<title>0&#45;&gt;11</title>
<path fill="none" stroke="black" d="M2478.58,-103.61C2265.63,-101.53 1318.41,-91.1 1189,-69 1150.77,-62.47 1109.01,-48.59 1078.48,-37.1"/>
<polygon fill="black" stroke="black" points="1079.57,-33.77 1068.98,-33.47 1077.07,-40.31 1079.57,-33.77"/>
<text text-anchor="middle" x="1202.5" y="-57.8" font-family="Times,serif" font-size="14.00">dep</text>
</g>
<!-- 12 -->
<g id="node13" class="node">
<title>12</title>
<ellipse fill="none" stroke="black" cx="1147" cy="-18" rx="27" ry="18"/>
<text text-anchor="middle" x="1147" y="-14.3" font-family="Times,serif" font-size="14.00">de</text>
</g>
<!-- 0&#45;&gt;12 -->
<g id="edge12" class="edge">
<title>0&#45;&gt;12</title>
<path fill="none" stroke="black" d="M2478.68,-103.69C2273.55,-102.05 1387.64,-93.6 1267,-69 1234.54,-62.38 1199.86,-46.92 1176.17,-34.92"/>
<polygon fill="black" stroke="black" points="1177.53,-31.69 1167.04,-30.2 1174.31,-37.9 1177.53,-31.69"/>
<text text-anchor="middle" x="1280.5" y="-57.8" font-family="Times,serif" font-size="14.00">dep</text>
</g>
<!-- 13 -->
<g id="node14" class="node">
<title>13</title>
<ellipse fill="none" stroke="black" cx="1219" cy="-18" rx="27" ry="18"/>
<text text-anchor="middle" x="1219" y="-14.3" font-family="Times,serif" font-size="14.00">o</text>
</g>
<!-- 0&#45;&gt;13 -->
<g id="edge13" class="edge">
<title>0&#45;&gt;13</title>
<path fill="none" stroke="black" d="M2478.88,-103.51C2282.52,-101.12 1461.64,-89.93 1349,-69 1313.37,-62.38 1274.91,-46.38 1249.14,-34.24"/>
<polygon fill="black" stroke="black" points="1250.45,-30.99 1239.92,-29.81 1247.41,-37.3 1250.45,-30.99"/>
<text text-anchor="middle" x="1362.5" y="-57.8" font-family="Times,serif" font-size="14.00">dep</text>
</g>
<!-- 14 -->
<g id="node15" class="node">
<title>14</title>
<ellipse fill="none" stroke="black" cx="1291" cy="-18" rx="27" ry="18"/>
<text text-anchor="middle" x="1291" y="-14.3" font-family="Times,serif" font-size="14.00">FC</text>
</g>
<!-- 0&#45;&gt;14 -->
<g id="edge14" class="edge">
<title>0&#45;&gt;14</title>
<path fill="none" stroke="black" d="M2478.7,-103.91C2305.98,-103.35 1653.69,-99.24 1450,-69 1394.01,-60.69 1380.14,-55.5 1327,-36 1325.15,-35.32 1323.27,-34.58 1321.38,-33.81"/>
<polygon fill="black" stroke="black" points="1322.61,-30.53 1312.05,-29.71 1319.8,-36.94 1322.61,-30.53"/>
<text text-anchor="middle" x="1463.5" y="-57.8" font-family="Times,serif" font-size="14.00">dep</text>
</g>
<!-- 15 -->
<g id="node16" class="node">
<title>15</title>
<ellipse fill="none" stroke="black" cx="1372" cy="-18" rx="36" ry="18"/>
<text text-anchor="middle" x="1372" y="-14.3" font-family="Times,serif" font-size="14.00">Porto</text>
</g>
<!-- 0&#45;&gt;15 -->
<g id="edge15" class="edge">
<title>0&#45;&gt;15</title>
<path fill="none" stroke="black" d="M2478.72,-103.54C2317.42,-101.62 1740.71,-93.19 1559,-69 1494.77,-60.45 1479,-54.82 1417,-36 1414.39,-35.21 1411.72,-34.34 1409.04,-33.43"/>
<polygon fill="black" stroke="black" points="1410,-30.06 1399.41,-30.01 1407.66,-36.66 1410,-30.06"/>
<text text-anchor="middle" x="1572.5" y="-57.8" font-family="Times,serif" font-size="14.00">dep</text>
</g>
<!-- 16 -->
<g id="node17" class="node">
<title>16</title>
<ellipse fill="none" stroke="black" cx="1483" cy="-18" rx="57.39" ry="18"/>
<text text-anchor="middle" x="1483" y="-14.3" font-family="Times,serif" font-size="14.00">confirmou</text>
</g>
<!-- 0&#45;&gt;16 -->
<g id="edge16" class="edge">
<title>0&#45;&gt;16</title>
<path fill="none" stroke="black" d="M2478.84,-103.7C2327.54,-102.42 1812.33,-96.12 1650,-69 1607.62,-61.92 1560.88,-47.31 1527.65,-35.71"/>
<polygon fill="black" stroke="black" points="1528.82,-32.41 1518.22,-32.37 1526.48,-39 1528.82,-32.41"/>
<text text-anchor="middle" x="1663.5" y="-57.8" font-family="Times,serif" font-size="14.00">dep</text>
</g>
<!-- 17 -->
<g id="node18" class="node">
<title>17</title>
<ellipse fill="none" stroke="black" cx="1598" cy="-18" rx="40.09" ry="18"/>
<text text-anchor="middle" x="1598" y="-14.3" font-family="Times,serif" font-size="14.00">ontem</text>
</g>
<!-- 0&#45;&gt;17 -->
<g id="edge17" class="edge">
<title>0&#45;&gt;17</title>
<path fill="none" stroke="black" d="M2478.71,-103.91C2336.18,-103.33 1874.21,-99.1 1729,-69 1695.6,-62.08 1659.53,-47.76 1633.7,-36.21"/>
<polygon fill="black" stroke="black" points="1634.89,-32.9 1624.34,-31.94 1631.98,-39.27 1634.89,-32.9"/>
<text text-anchor="middle" x="1742.5" y="-57.8" font-family="Times,serif" font-size="14.00">dep</text>
</g>
<!-- 18 -->
<g id="node19" class="node">
<title>18</title>
<ellipse fill="none" stroke="black" cx="1683" cy="-18" rx="27" ry="18"/>
<text text-anchor="middle" x="1683" y="-14.3" font-family="Times,serif" font-size="14.00">a</text>
</g>
<!-- 0&#45;&gt;18 -->
<g id="edge18" class="edge">
<title>0&#45;&gt;18</title>
<path fill="none" stroke="black" d="M2478.42,-103.59C2345.29,-102.04 1938.17,-95.22 1809,-69 1774.79,-62.06 1737.93,-46.38 1712.97,-34.41"/>
<polygon fill="black" stroke="black" points="1714.22,-31.13 1703.69,-29.87 1711.14,-37.41 1714.22,-31.13"/>
<text text-anchor="middle" x="1822.5" y="-57.8" font-family="Times,serif" font-size="14.00">dep</text>
</g>
<!-- 19 -->
<g id="node20" class="node">
<title>19</title>
<ellipse fill="none" stroke="black" cx="1755" cy="-18" rx="27" ry="18"/>
<text text-anchor="middle" x="1755" y="-14.3" font-family="Times,serif" font-size="14.00">sua</text>
</g>
<!-- 0&#45;&gt;19 -->
<g id="edge19" class="edge">
<title>0&#45;&gt;19</title>
<path fill="none" stroke="black" d="M2479.01,-102.9C2358.54,-99.53 2013.34,-88.42 1902,-69 1851.3,-60.15 1839.08,-54.37 1791,-36 1789.16,-35.3 1787.28,-34.54 1785.4,-33.75"/>
<polygon fill="black" stroke="black" points="1786.65,-30.47 1776.09,-29.61 1783.81,-36.87 1786.65,-30.47"/>
<text text-anchor="middle" x="1915.5" y="-57.8" font-family="Times,serif" font-size="14.00">dep</text>
</g>
<!-- 20 -->
<g id="node21" class="node">
<title>20</title>
<ellipse fill="none" stroke="black" cx="1842" cy="-18" rx="41.69" ry="18"/>
<text text-anchor="middle" x="1842" y="-14.3" font-family="Times,serif" font-size="14.00">subida</text>
</g>
<!-- 0&#45;&gt;20 -->
<g id="edge20" class="edge">
<title>0&#45;&gt;20</title>
<path fill="none" stroke="black" d="M2478.74,-102.74C2369.25,-99.22 2078.39,-88.31 1984,-69 1947.47,-61.52 1907.55,-46.85 1879.36,-35.32"/>
<polygon fill="black" stroke="black" points="1880.49,-32 1869.91,-31.4 1877.8,-38.47 1880.49,-32"/>
<text text-anchor="middle" x="1997.5" y="-57.8" font-family="Times,serif" font-size="14.00">dep</text>
</g>
<!-- 21 -->
<g id="node22" class="node">
<title>21</title>
<ellipse fill="none" stroke="black" cx="1929" cy="-18" rx="27" ry="18"/>
<text text-anchor="middle" x="1929" y="-14.3" font-family="Times,serif" font-size="14.00">de</text>
</g>
<!-- 0&#45;&gt;21 -->
<g id="edge21" class="edge">
<title>0&#45;&gt;21</title>
<path fill="none" stroke="black" d="M2478.69,-103.58C2399.29,-102.15 2222.8,-95.92 2077,-69 2025.97,-59.58 2013.5,-54.47 1965,-36 1963.16,-35.3 1961.28,-34.54 1959.4,-33.75"/>
<polygon fill="black" stroke="black" points="1960.64,-30.48 1950.08,-29.62 1957.81,-36.88 1960.64,-30.48"/>
<text text-anchor="middle" x="2090.5" y="-57.8" font-family="Times,serif" font-size="14.00">dep</text>
</g>
<!-- 22 -->
<g id="node23" class="node">
<title>22</title>
<ellipse fill="none" stroke="black" cx="2012" cy="-18" rx="38.19" ry="18"/>
<text text-anchor="middle" x="2012" y="-14.3" font-family="Times,serif" font-size="14.00">forma</text>
</g>
<!-- 0&#45;&gt;22 -->
<g id="edge22" class="edge">
<title>0&#45;&gt;22</title>
<path fill="none" stroke="black" d="M2478.83,-102.79C2411.3,-100.21 2275,-92.33 2162,-69 2122.75,-60.9 2079.48,-45.77 2049.55,-34.27"/>
<polygon fill="black" stroke="black" points="2050.52,-30.9 2039.93,-30.53 2047.98,-37.42 2050.52,-30.9"/>
<text text-anchor="middle" x="2175.5" y="-57.8" font-family="Times,serif" font-size="14.00">dep</text>
</g>
<!-- 23 -->
<g id="node24" class="node">
<title>23</title>
<ellipse fill="none" stroke="black" cx="2095" cy="-18" rx="27" ry="18"/>
<text text-anchor="middle" x="2095" y="-14.3" font-family="Times,serif" font-size="14.00">,</text>
</g>
<!-- 0&#45;&gt;23 -->
<g id="edge23" class="edge">
<title>0&#45;&gt;23</title>
<path fill="none" stroke="black" d="M2479.32,-101.62C2406.59,-96.4 2252.63,-80.63 2131,-36 2129.15,-35.32 2127.27,-34.58 2125.38,-33.81"/>
<polygon fill="black" stroke="black" points="2126.61,-30.53 2116.05,-29.71 2123.8,-36.94 2126.61,-30.53"/>
<text text-anchor="middle" x="2259.5" y="-57.8" font-family="Times,serif" font-size="14.00">dep</text>
</g>
<!-- 24 -->
<g id="node25" class="node">
<title>24</title>
<ellipse fill="none" stroke="black" cx="2195" cy="-18" rx="54.69" ry="18"/>
<text text-anchor="middle" x="2195" y="-14.3" font-family="Times,serif" font-size="14.00">vencendo</text>
</g>
<!-- 0&#45;&gt;24 -->
<g id="edge24" class="edge">
<title>0&#45;&gt;24</title>
<path fill="none" stroke="black" d="M2481.19,-98.84C2442.04,-93.28 2380.78,-83.26 2329,-69 2297.37,-60.29 2262.7,-47.25 2236.55,-36.67"/>
<polygon fill="black" stroke="black" points="2237.55,-33.3 2226.97,-32.75 2234.9,-39.78 2237.55,-33.3"/>
<text text-anchor="middle" x="2342.5" y="-57.8" font-family="Times,serif" font-size="14.00">dep</text>
</g>
<!-- 25 -->
<g id="node26" class="node">
<title>25</title>
<ellipse fill="none" stroke="black" cx="2295" cy="-18" rx="27" ry="18"/>
<text text-anchor="middle" x="2295" y="-14.3" font-family="Times,serif" font-size="14.00">o</text>
</g>
<!-- 0&#45;&gt;25 -->
<g id="edge25" class="edge">
<title>0&#45;&gt;25</title>
<path fill="none" stroke="black" d="M2484.22,-96.06C2458.29,-89.95 2422.97,-80.6 2393,-69 2368.81,-59.64 2342.72,-46.14 2323.54,-35.53"/>
<polygon fill="black" stroke="black" points="2325.15,-32.42 2314.72,-30.58 2321.73,-38.53 2325.15,-32.42"/>
<text text-anchor="middle" x="2406.5" y="-57.8" font-family="Times,serif" font-size="14.00">dep</text>
</g>
<!-- 26 -->
<g id="node27" class="node">
<title>26</title>
<ellipse fill="none" stroke="black" cx="2372" cy="-18" rx="32.49" ry="18"/>
<text text-anchor="middle" x="2372" y="-14.3" font-family="Times,serif" font-size="14.00">líder</text>
</g>
<!-- 0&#45;&gt;26 -->
<g id="edge26" class="edge">
<title>0&#45;&gt;26</title>
<path fill="none" stroke="black" d="M2492.4,-91.65C2478.46,-85.34 2461.6,-77.26 2447,-69 2430.65,-59.75 2413.13,-48.17 2399.15,-38.49"/>
<polygon fill="black" stroke="black" points="2401.13,-35.61 2390.93,-32.75 2397.12,-41.35 2401.13,-35.61"/>
<text text-anchor="middle" x="2460.5" y="-57.8" font-family="Times,serif" font-size="14.00">dep</text>
</g>
<!-- 27 -->
<g id="node28" class="node">
<title>27</title>
<ellipse fill="none" stroke="black" cx="2449" cy="-18" rx="27" ry="18"/>
<text text-anchor="middle" x="2449" y="-14.3" font-family="Times,serif" font-size="14.00">de</text>
</g>
<!-- 0&#45;&gt;27 -->
<g id="edge27" class="edge">
<title>0&#45;&gt;27</title>
<path fill="none" stroke="black" d="M2506.36,-87.73C2501.15,-81.87 2495.27,-75.18 2490,-69 2482.68,-60.41 2474.79,-50.86 2467.9,-42.43"/>
<polygon fill="black" stroke="black" points="2470.44,-39.99 2461.41,-34.44 2465,-44.41 2470.44,-39.99"/>
<text text-anchor="middle" x="2503.5" y="-57.8" font-family="Times,serif" font-size="14.00">dep</text>
</g>
<!-- 28 -->
<g id="node29" class="node">
<title>28</title>
<ellipse fill="none" stroke="black" cx="2521" cy="-18" rx="27" ry="18"/>
<text text-anchor="middle" x="2521" y="-14.3" font-family="Times,serif" font-size="14.00">o</text>
</g>
<!-- 0&#45;&gt;28 -->
<g id="edge28" class="edge">
<title>0&#45;&gt;28</title>
<path fill="none" stroke="black" d="M2521,-86.8C2521,-75.16 2521,-59.55 2521,-46.24"/>
<polygon fill="black" stroke="black" points="2524.5,-46.18 2521,-36.18 2517.5,-46.18 2524.5,-46.18"/>
<text text-anchor="middle" x="2534.5" y="-57.8" font-family="Times,serif" font-size="14.00">dep</text>
</g>
<!-- 29 -->
<g id="node30" class="node">
<title>29</title>
<ellipse fill="none" stroke="black" cx="2633" cy="-18" rx="66.89" ry="18"/>
<text text-anchor="middle" x="2633" y="-14.3" font-family="Times,serif" font-size="14.00">campeonato</text>
</g>
<!-- 0&#45;&gt;29 -->
<g id="edge29" class="edge">
<title>0&#45;&gt;29</title>
<path fill="none" stroke="black" d="M2540.77,-89C2558.13,-75.82 2583.64,-56.46 2603.43,-41.44"/>
<polygon fill="black" stroke="black" points="2605.67,-44.13 2611.52,-35.3 2601.44,-38.56 2605.67,-44.13"/>
<text text-anchor="middle" x="2597.5" y="-57.8" font-family="Times,serif" font-size="14.00">dep</text>
</g>
<!-- 30 -->
<g id="node31" class="node">
<title>30</title>
<ellipse fill="none" stroke="black" cx="2745" cy="-18" rx="27" ry="18"/>
<text text-anchor="middle" x="2745" y="-14.3" font-family="Times,serif" font-size="14.00">por</text>
</g>
<!-- 0&#45;&gt;30 -->
<g id="edge30" class="edge">
<title>0&#45;&gt;30</title>
<path fill="none" stroke="black" d="M2553.29,-93.36C2591.02,-80.68 2655.16,-58.39 2709,-36 2710.82,-35.24 2712.68,-34.44 2714.55,-33.62"/>
<polygon fill="black" stroke="black" points="2716.17,-36.73 2723.83,-29.4 2713.28,-30.36 2716.17,-36.73"/>
<text text-anchor="middle" x="2677.5" y="-57.8" font-family="Times,serif" font-size="14.00">dep</text>
</g>
<!-- 31 -->
<g id="node32" class="node">
<title>31</title>
<ellipse fill="none" stroke="black" cx="2827" cy="-18" rx="37.09" ry="18"/>
<text text-anchor="middle" x="2827" y="-14.3" font-family="Times,serif" font-size="14.00">85&#45;84</text>
</g>
<!-- 0&#45;&gt;31 -->
<g id="edge31" class="edge">
<title>0&#45;&gt;31</title>
<path fill="none" stroke="black" d="M2560.14,-98.01C2595.7,-92.13 2649.4,-82.13 2695,-69 2727.99,-59.5 2764.41,-45.42 2790.62,-34.63"/>
<polygon fill="black" stroke="black" points="2792.25,-37.74 2800.14,-30.66 2789.56,-31.28 2792.25,-37.74"/>
<text text-anchor="middle" x="2753.5" y="-57.8" font-family="Times,serif" font-size="14.00">dep</text>
</g>
<!-- 32 -->
<g id="node33" class="node">
<title>32</title>
<ellipse fill="none" stroke="black" cx="2909" cy="-18" rx="27" ry="18"/>
<text text-anchor="middle" x="2909" y="-14.3" font-family="Times,serif" font-size="14.00">,</text>
</g>
<!-- 0&#45;&gt;32 -->
<g id="edge32" class="edge">
<title>0&#45;&gt;32</title>
<path fill="none" stroke="black" d="M2562.1,-100.46C2611.97,-95.65 2698.39,-85.69 2771,-69 2817.44,-58.32 2828.7,-53.54 2873,-36 2874.83,-35.27 2876.7,-34.5 2878.58,-33.7"/>
<polygon fill="black" stroke="black" points="2880.19,-36.81 2887.88,-29.53 2877.32,-30.42 2880.19,-36.81"/>
<text text-anchor="middle" x="2838.5" y="-57.8" font-family="Times,serif" font-size="14.00">dep</text>
</g>
<!-- 33 -->
<g id="node34" class="node">
<title>33</title>
<ellipse fill="none" stroke="black" cx="2981" cy="-18" rx="27" ry="18"/>
<text text-anchor="middle" x="2981" y="-14.3" font-family="Times,serif" font-size="14.00">em</text>
</g>
<!-- 0&#45;&gt;33 -->
<g id="edge33" class="edge">
<title>0&#45;&gt;33</title>
<path fill="none" stroke="black" d="M2563.08,-102.98C2627.11,-100.67 2752.51,-93.19 2856,-69 2889.55,-61.16 2925.92,-45.77 2950.73,-34.12"/>
<polygon fill="black" stroke="black" points="2952.45,-37.18 2959.96,-29.71 2949.43,-30.86 2952.45,-37.18"/>
<text text-anchor="middle" x="2915.5" y="-57.8" font-family="Times,serif" font-size="14.00">dep</text>
</g>
<!-- 34 -->
<g id="node35" class="node">
<title>34</title>
<ellipse fill="none" stroke="black" cx="3059" cy="-18" rx="33.29" ry="18"/>
<text text-anchor="middle" x="3059" y="-14.3" font-family="Times,serif" font-size="14.00">Ovar</text>
</g>
<!-- 0&#45;&gt;34 -->
<g id="edge34" class="edge">
<title>0&#45;&gt;34</title>
<path fill="none" stroke="black" d="M2563.44,-104.41C2638.85,-104.25 2800.71,-99.91 2933,-69 2965.78,-61.34 3001.25,-46.64 3026.19,-35.15"/>
<polygon fill="black" stroke="black" points="3027.96,-38.18 3035.53,-30.76 3024.99,-31.84 3027.96,-38.18"/>
<text text-anchor="middle" x="2993.5" y="-57.8" font-family="Times,serif" font-size="14.00">dep</text>
</g>
<!-- 35 -->
<g id="node36" class="node">
<title>35</title>
<ellipse fill="none" stroke="black" cx="3137" cy="-18" rx="27" ry="18"/>
<text text-anchor="middle" x="3137" y="-14.3" font-family="Times,serif" font-size="14.00">,</text>
</g>
<!-- 0&#45;&gt;35 -->
<g id="edge35" class="edge">
<title>0&#45;&gt;35</title>
<path fill="none" stroke="black" d="M2562.91,-102.51C2665.29,-98.64 2925.94,-87.25 3011,-69 3045.13,-61.68 3082,-46.06 3106.99,-34.21"/>
<polygon fill="black" stroke="black" points="3108.79,-37.23 3116.27,-29.72 3105.75,-30.92 3108.79,-37.23"/>
<text text-anchor="middle" x="3071.5" y="-57.8" font-family="Times,serif" font-size="14.00">dep</text>
</g>
<!-- 36 -->
<g id="node37" class="node">
<title>36</title>
<ellipse fill="none" stroke="black" cx="3212" cy="-18" rx="29.8" ry="18"/>
<text text-anchor="middle" x="3212" y="-14.3" font-family="Times,serif" font-size="14.00">com</text>
</g>
<!-- 0&#45;&gt;36 -->
<g id="edge36" class="edge">
<title>0&#45;&gt;36</title>
<path fill="none" stroke="black" d="M2563.25,-103.1C2677.16,-100.41 2988.8,-91.19 3089,-69 3121.58,-61.78 3156.65,-46.74 3180.98,-35.03"/>
<polygon fill="black" stroke="black" points="3182.63,-38.11 3190.06,-30.56 3179.54,-31.83 3182.63,-38.11"/>
<text text-anchor="middle" x="3148.5" y="-57.8" font-family="Times,serif" font-size="14.00">dep</text>
</g>
<!-- 37 -->
<g id="node38" class="node">
<title>37</title>
<ellipse fill="none" stroke="black" cx="3287" cy="-18" rx="27" ry="18"/>
<text text-anchor="middle" x="3287" y="-14.3" font-family="Times,serif" font-size="14.00">um</text>
</g>
<!-- 0&#45;&gt;37 -->
<g id="edge37" class="edge">
<title>0&#45;&gt;37</title>
<path fill="none" stroke="black" d="M2563.5,-103.44C2688.03,-101.52 3050.48,-93.9 3166,-69 3198.61,-61.97 3233.61,-46.57 3257.53,-34.7"/>
<polygon fill="black" stroke="black" points="3259.41,-37.67 3266.75,-30.03 3256.25,-31.43 3259.41,-37.67"/>
<text text-anchor="middle" x="3227.5" y="-57.8" font-family="Times,serif" font-size="14.00">dep</text>
</g>
<!-- 38 -->
<g id="node39" class="node">
<title>38</title>
<ellipse fill="none" stroke="black" cx="3367" cy="-18" rx="35.19" ry="18"/>
<text text-anchor="middle" x="3367" y="-14.3" font-family="Times,serif" font-size="14.00">cesto</text>
</g>
<!-- 0&#45;&gt;38 -->
<g id="edge38" class="edge">
<title>0&#45;&gt;38</title>
<path fill="none" stroke="black" d="M2563.39,-103.84C2697.89,-103.02 3113.86,-98.14 3245,-69 3276.56,-61.99 3310.44,-47.49 3334.46,-35.91"/>
<polygon fill="black" stroke="black" points="3336.05,-39.02 3343.48,-31.47 3332.96,-32.74 3336.05,-39.02"/>
<text text-anchor="middle" x="3303.5" y="-57.8" font-family="Times,serif" font-size="14.00">dep</text>
</g>
<!-- 39 -->
<g id="node40" class="node">
<title>39</title>
<ellipse fill="none" stroke="black" cx="3447" cy="-18" rx="27" ry="18"/>
<text text-anchor="middle" x="3447" y="-14.3" font-family="Times,serif" font-size="14.00">de</text>
</g>
<!-- 0&#45;&gt;39 -->
<g id="edge39" class="edge">
<title>0&#45;&gt;39</title>
<path fill="none" stroke="black" d="M2563.2,-103.86C2706.55,-103.12 3173.95,-98.44 3321,-69 3355.23,-62.15 3392.08,-46.45 3417.04,-34.46"/>
<polygon fill="black" stroke="black" points="3418.88,-37.46 3426.31,-29.91 3415.79,-31.17 3418.88,-37.46"/>
<text text-anchor="middle" x="3384.5" y="-57.8" font-family="Times,serif" font-size="14.00">dep</text>
</g>
<!-- 40 -->
<g id="node41" class="node">
<title>40</title>
<ellipse fill="none" stroke="black" cx="3521" cy="-18" rx="29.5" ry="18"/>
<text text-anchor="middle" x="3521" y="-14.3" font-family="Times,serif" font-size="14.00">três</text>
</g>
<!-- 0&#45;&gt;40 -->
<g id="edge40" class="edge">
<title>0&#45;&gt;40</title>
<path fill="none" stroke="black" d="M2563.22,-104.25C2715.93,-104.86 3239.12,-104.28 3402,-69 3433.57,-62.16 3467.31,-47.17 3490.78,-35.38"/>
<polygon fill="black" stroke="black" points="3492.56,-38.4 3499.86,-30.72 3489.36,-32.17 3492.56,-38.4"/>
<text text-anchor="middle" x="3463.5" y="-57.8" font-family="Times,serif" font-size="14.00">dep</text>
</g>
<!-- 41 -->
<g id="node42" class="node">
<title>41</title>
<ellipse fill="none" stroke="black" cx="3610" cy="-18" rx="42.49" ry="18"/>
<text text-anchor="middle" x="3610" y="-14.3" font-family="Times,serif" font-size="14.00">pontos</text>
</g>
<!-- 0&#45;&gt;41 -->
<g id="edge41" class="edge">
<title>0&#45;&gt;41</title>
<path fill="none" stroke="black" d="M2563.32,-104.32C2724.77,-105.26 3301.83,-105.9 3481,-69 3513.75,-62.26 3549.03,-48.06 3574.4,-36.51"/>
<polygon fill="black" stroke="black" points="3576.02,-39.62 3583.62,-32.24 3573.07,-33.27 3576.02,-39.62"/>
<text text-anchor="middle" x="3545.5" y="-57.8" font-family="Times,serif" font-size="14.00">dep</text>
</g>
<!-- 42 -->
<g id="node43" class="node">
<title>42</title>
<ellipse fill="none" stroke="black" cx="3733" cy="-18" rx="63.09" ry="18"/>
<text text-anchor="middle" x="3733" y="-14.3" font-family="Times,serif" font-size="14.00">conseguido</text>
</g>
<!-- 0&#45;&gt;42 -->
<g id="edge42" class="edge">
<title>0&#45;&gt;42</title>
<path fill="none" stroke="black" d="M2563.32,-104C2733.17,-103.78 3365.65,-100.81 3563,-69 3605.71,-62.12 3652.79,-47.71 3686.56,-36.12"/>
<polygon fill="black" stroke="black" points="3687.86,-39.37 3696.15,-32.78 3685.55,-32.76 3687.86,-39.37"/>
<text text-anchor="middle" x="3638.5" y="-57.8" font-family="Times,serif" font-size="14.00">dep</text>
</g>
<!-- 43 -->
<g id="node44" class="node">
<title>43</title>
<ellipse fill="none" stroke="black" cx="3841" cy="-18" rx="27" ry="18"/>
<text text-anchor="middle" x="3841" y="-14.3" font-family="Times,serif" font-size="14.00">por</text>
</g>
<!-- 0&#45;&gt;43 -->
<g id="edge43" class="edge">
<title>0&#45;&gt;43</title>
<path fill="none" stroke="black" d="M2563.34,-103.75C2742.44,-102.55 3438.5,-96.2 3656,-69 3723.3,-60.58 3740.82,-57.95 3805,-36 3806.91,-35.35 3808.86,-34.62 3810.8,-33.84"/>
<polygon fill="black" stroke="black" points="3812.6,-36.88 3820.39,-29.7 3809.82,-30.46 3812.6,-36.88"/>
<text text-anchor="middle" x="3760.5" y="-57.8" font-family="Times,serif" font-size="14.00">dep</text>
</g>
<!-- 44 -->
<g id="node45" class="node">
<title>44</title>
<ellipse fill="none" stroke="black" cx="3917" cy="-18" rx="31.4" ry="18"/>
<text text-anchor="middle" x="3917" y="-14.3" font-family="Times,serif" font-size="14.00">Júlio</text>
</g>
<!-- 0&#45;&gt;44 -->
<g id="edge44" class="edge">
<title>0&#45;&gt;44</title>
<path fill="none" stroke="black" d="M2563.4,-103.56C2768.9,-101.32 3656.47,-90.46 3778,-69 3815.73,-62.34 3856.76,-46.42 3884.39,-34.33"/>
<polygon fill="black" stroke="black" points="3885.87,-37.5 3893.57,-30.23 3883.02,-31.11 3885.87,-37.5"/>
<text text-anchor="middle" x="3846.5" y="-57.8" font-family="Times,serif" font-size="14.00">dep</text>
</g>
<!-- 45 -->
<g id="node46" class="node">
<title>45</title>
<ellipse fill="none" stroke="black" cx="4006" cy="-18" rx="39.79" ry="18"/>
<text text-anchor="middle" x="4006" y="-14.3" font-family="Times,serif" font-size="14.00">Matos</text>
</g>
<!-- 0&#45;&gt;45 -->
<g id="edge45" class="edge">
<title>0&#45;&gt;45</title>
<path fill="none" stroke="black" d="M2563.43,-103.68C2777.5,-101.97 3733.76,-93.01 3864,-69 3901.13,-62.15 3941.58,-47.11 3969.77,-35.3"/>
<polygon fill="black" stroke="black" points="3971.38,-38.42 3979.21,-31.28 3968.63,-31.98 3971.38,-38.42"/>
<text text-anchor="middle" x="3933.5" y="-57.8" font-family="Times,serif" font-size="14.00">dep</text>
</g>
<!-- 46 -->
<g id="node47" class="node">
<title>46</title>
<ellipse fill="none" stroke="black" cx="4091" cy="-18" rx="27" ry="18"/>
<text text-anchor="middle" x="4091" y="-14.3" font-family="Times,serif" font-size="14.00">a</text>
</g>
<!-- 0&#45;&gt;46 -->
<g id="edge46" class="edge">
<title>0&#45;&gt;46</title>
<path fill="none" stroke="black" d="M2563.2,-103.68C2785.04,-101.89 3811.31,-92.38 3951,-69 3998.83,-60.99 4009.86,-53.73 4055,-36 4056.83,-35.28 4058.71,-34.51 4060.58,-33.71"/>
<polygon fill="black" stroke="black" points="4062.19,-36.83 4069.89,-29.55 4059.33,-30.44 4062.19,-36.83"/>
<text text-anchor="middle" x="4023.5" y="-57.8" font-family="Times,serif" font-size="14.00">dep</text>
</g>
<!-- 47 -->
<g id="node48" class="node">
<title>47</title>
<ellipse fill="none" stroke="black" cx="4165" cy="-18" rx="29.5" ry="18"/>
<text text-anchor="middle" x="4165" y="-14.3" font-family="Times,serif" font-size="14.00">três</text>
</g>
<!-- 0&#45;&gt;47 -->
<g id="edge47" class="edge">
<title>0&#45;&gt;47</title>
<path fill="none" stroke="black" d="M2563.21,-103.89C2793.44,-103.17 3892.74,-98.24 4041,-69 4074.37,-62.42 4110.17,-46.99 4134.68,-35"/>
<polygon fill="black" stroke="black" points="4136.44,-38.03 4143.82,-30.43 4133.31,-31.77 4136.44,-38.03"/>
<text text-anchor="middle" x="4104.5" y="-57.8" font-family="Times,serif" font-size="14.00">dep</text>
</g>
<!-- 48 -->
<g id="node49" class="node">
<title>48</title>
<ellipse fill="none" stroke="black" cx="4267" cy="-18" rx="54.69" ry="18"/>
<text text-anchor="middle" x="4267" y="-14.3" font-family="Times,serif" font-size="14.00">segundos</text>
</g>
<!-- 0&#45;&gt;48 -->
<g id="edge48" class="edge">
<title>0&#45;&gt;48</title>
<path fill="none" stroke="black" d="M2563.48,-103.86C2801.53,-102.95 3964.89,-97.1 4122,-69 4158.39,-62.49 4197.94,-48.34 4226.54,-36.75"/>
<polygon fill="black" stroke="black" points="4227.88,-39.98 4235.79,-32.93 4225.21,-33.51 4227.88,-39.98"/>
<text text-anchor="middle" x="4192.5" y="-57.8" font-family="Times,serif" font-size="14.00">dep</text>
</g>
<!-- 49 -->
<g id="node50" class="node">
<title>49</title>
<ellipse fill="none" stroke="black" cx="4367" cy="-18" rx="27" ry="18"/>
<text text-anchor="middle" x="4367" y="-14.3" font-family="Times,serif" font-size="14.00">de</text>
</g>
<!-- 0&#45;&gt;49 -->
<g id="edge49" class="edge">
<title>0&#45;&gt;49</title>
<path fill="none" stroke="black" d="M2563.36,-103.74C2808.74,-102.18 4042.82,-93.15 4210,-69 4265.17,-61.03 4278.71,-55.31 4331,-36 4332.85,-35.32 4334.73,-34.58 4336.62,-33.8"/>
<polygon fill="black" stroke="black" points="4338.2,-36.93 4345.94,-29.7 4335.38,-30.52 4338.2,-36.93"/>
<text text-anchor="middle" x="4293.5" y="-57.8" font-family="Times,serif" font-size="14.00">dep</text>
</g>
<!-- 50 -->
<g id="node51" class="node">
<title>50</title>
<ellipse fill="none" stroke="black" cx="4439" cy="-18" rx="27" ry="18"/>
<text text-anchor="middle" x="4439" y="-14.3" font-family="Times,serif" font-size="14.00">o</text>
</g>
<!-- 0&#45;&gt;50 -->
<g id="edge50" class="edge">
<title>0&#45;&gt;50</title>
<path fill="none" stroke="black" d="M2563.41,-103.99C2817.63,-103.85 4134.37,-101.5 4311,-69 4346.16,-62.53 4384.02,-46.5 4409.37,-34.32"/>
<polygon fill="black" stroke="black" points="4411,-37.42 4418.44,-29.87 4407.92,-31.13 4411,-37.42"/>
<text text-anchor="middle" x="4375.5" y="-57.8" font-family="Times,serif" font-size="14.00">dep</text>
</g>
<!-- 51 -->
<g id="node52" class="node">
<title>51</title>
<ellipse fill="none" stroke="black" cx="4511" cy="-18" rx="27" ry="18"/>
<text text-anchor="middle" x="4511" y="-14.3" font-family="Times,serif" font-size="14.00">fim</text>
</g>
<!-- 0&#45;&gt;51 -->
<g id="edge51" class="edge">
<title>0&#45;&gt;51</title>
<path fill="none" stroke="black" d="M2563.24,-104.13C2823.89,-104.79 4208.45,-106.54 4393,-69 4424.81,-62.53 4458.69,-47.19 4481.95,-35.2"/>
<polygon fill="black" stroke="black" points="4483.71,-38.23 4490.92,-30.46 4480.44,-32.04 4483.71,-38.23"/>
<text text-anchor="middle" x="4453.5" y="-57.8" font-family="Times,serif" font-size="14.00">dep</text>
</g>
<!-- 52 -->
<g id="node53" class="node">
<title>52</title>
<ellipse fill="none" stroke="black" cx="4583" cy="-18" rx="27" ry="18"/>
<text text-anchor="middle" x="4583" y="-14.3" font-family="Times,serif" font-size="14.00">de</text>
</g>
<!-- 0&#45;&gt;52 -->
<g id="edge52" class="edge">
<title>0&#45;&gt;52</title>
<path fill="none" stroke="black" d="M2563.5,-103.71C2839.98,-101.74 4374.68,-89.91 4471,-69 4501.04,-62.48 4532.82,-47.41 4554.82,-35.51"/>
<polygon fill="black" stroke="black" points="4556.57,-38.54 4563.62,-30.64 4553.18,-32.42 4556.57,-38.54"/>
<text text-anchor="middle" x="4529.5" y="-57.8" font-family="Times,serif" font-size="14.00">dep</text>
</g>
<!-- 53 -->
<g id="node54" class="node">
<title>53</title>
<ellipse fill="none" stroke="black" cx="4655" cy="-18" rx="27" ry="18"/>
<text text-anchor="middle" x="4655" y="-14.3" font-family="Times,serif" font-size="14.00">o</text>
</g>
<!-- 0&#45;&gt;53 -->
<g id="edge53" class="edge">
<title>0&#45;&gt;53</title>
<path fill="none" stroke="black" d="M2563.33,-103.76C2845.6,-102.11 4446.93,-91.75 4547,-69 4575.78,-62.46 4606.07,-47.65 4627.23,-35.83"/>
<polygon fill="black" stroke="black" points="4629.04,-38.83 4635.98,-30.82 4625.57,-32.75 4629.04,-38.83"/>
<text text-anchor="middle" x="4604.5" y="-57.8" font-family="Times,serif" font-size="14.00">dep</text>
</g>
<!-- 54 -->
<g id="node55" class="node">
<title>54</title>
<ellipse fill="none" stroke="black" cx="4731" cy="-18" rx="30.59" ry="18"/>
<text text-anchor="middle" x="4731" y="-14.3" font-family="Times,serif" font-size="14.00">jogo</text>
</g>
<!-- 0&#45;&gt;54 -->
<g id="edge54" class="edge">
<title>0&#45;&gt;54</title>
<path fill="none" stroke="black" d="M2563.5,-103.79C2852.27,-102.28 4518.06,-92.61 4622,-69 4650.47,-62.53 4680.46,-48.14 4701.76,-36.46"/>
<polygon fill="black" stroke="black" points="4703.61,-39.43 4710.61,-31.48 4700.18,-33.33 4703.61,-39.43"/>
<text text-anchor="middle" x="4679.5" y="-57.8" font-family="Times,serif" font-size="14.00">dep</text>
</g>
<!-- 55 -->
<g id="node56" class="node">
<title>55</title>
<ellipse fill="none" stroke="black" cx="4807" cy="-18" rx="27" ry="18"/>
<text text-anchor="middle" x="4807" y="-14.3" font-family="Times,serif" font-size="14.00">.</text>
</g>
<!-- 0&#45;&gt;55 -->
<g id="edge55" class="edge">
<title>0&#45;&gt;55</title>
<path fill="none" stroke="black" d="M2563.58,-103.8C2858.54,-102.36 4589.04,-92.89 4697,-69 4726.26,-62.52 4757.12,-47.71 4778.68,-35.87"/>
<polygon fill="black" stroke="black" points="4780.61,-38.8 4787.61,-30.85 4777.17,-32.7 4780.61,-38.8"/>
<text text-anchor="middle" x="4754.5" y="-57.8" font-family="Times,serif" font-size="14.00">dep</text>
</g>
</g>
</svg>
