<?xml version="1.0" encoding="UTF-8" standalone="no"?>
<!DOCTYPE svg PUBLIC "-//W3C//DTD SVG 1.1//EN"
 "http://www.w3.org/Graphics/SVG/1.1/DTD/svg11.dtd">
<!-- Generated by graphviz version 2.42.4 (0)
 -->
<!-- Pages: 1 -->
<svg width="2775pt" height="131pt"
 viewBox="0.00 0.00 2775.05 131.00" xmlns="http://www.w3.org/2000/svg" xmlns:xlink="http://www.w3.org/1999/xlink">
<g id="graph0" class="graph" transform="scale(1 1) rotate(0) translate(4 127)">
<polygon fill="white" stroke="transparent" points="-4,4 -4,-127 2771.05,-127 2771.05,4 -4,4"/>
<!-- 0 -->
<g id="node1" class="node">
<title>0</title>
<ellipse fill="none" stroke="black" cx="1382.05" cy="-105" rx="27" ry="18"/>
<text text-anchor="middle" x="1382.05" y="-101.3" font-family="Times,serif" font-size="14.00">O</text>
</g>
<!-- 1 -->
<g id="node2" class="node">
<title>1</title>
<ellipse fill="none" stroke="black" cx="37.05" cy="-18" rx="37.09" ry="18"/>
<text text-anchor="middle" x="37.05" y="-14.3" font-family="Times,serif" font-size="14.00">nosso</text>
</g>
<!-- 0&#45;&gt;1 -->
<g id="edge1" class="edge">
<title>0&#45;&gt;1</title>
<path fill="none" stroke="black" d="M1354.84,-104.13C1200.23,-104.71 430.75,-105.67 197.05,-69 153.66,-62.19 105.84,-46.04 73.88,-33.92"/>
<polygon fill="black" stroke="black" points="75.08,-30.64 64.49,-30.31 72.56,-37.17 75.08,-30.64"/>
<text text-anchor="middle" x="210.55" y="-57.8" font-family="Times,serif" font-size="14.00">dep</text>
</g>
<!-- 2 -->
<g id="node3" class="node">
<title>2</title>
<ellipse fill="none" stroke="black" cx="142.05" cy="-18" rx="50.09" ry="18"/>
<text text-anchor="middle" x="142.05" y="-14.3" font-family="Times,serif" font-size="14.00">protesto</text>
</g>
<!-- 0&#45;&gt;2 -->
<g id="edge2" class="edge">
<title>0&#45;&gt;2</title>
<path fill="none" stroke="black" d="M1354.63,-104.27C1206.21,-105.56 497.6,-109.44 283.05,-69 247.54,-62.31 208.99,-48.13 181.19,-36.57"/>
<polygon fill="black" stroke="black" points="182.4,-33.28 171.83,-32.61 179.67,-39.73 182.4,-33.28"/>
<text text-anchor="middle" x="296.55" y="-57.8" font-family="Times,serif" font-size="14.00">dep</text>
</g>
<!-- 3 -->
<g id="node4" class="node">
<title>3</title>
<ellipse fill="none" stroke="black" cx="237.05" cy="-18" rx="27" ry="18"/>
<text text-anchor="middle" x="237.05" y="-14.3" font-family="Times,serif" font-size="14.00">é</text>
</g>
<!-- 0&#45;&gt;3 -->
<g id="edge3" class="edge">
<title>0&#45;&gt;3</title>
<path fill="none" stroke="black" d="M1354.79,-104.23C1213.22,-105.23 560.88,-107.64 363.05,-69 328.79,-62.31 291.94,-46.59 266.99,-34.55"/>
<polygon fill="black" stroke="black" points="268.24,-31.26 257.72,-29.98 265.14,-37.54 268.24,-31.26"/>
<text text-anchor="middle" x="376.55" y="-57.8" font-family="Times,serif" font-size="14.00">dep</text>
</g>
<!-- 4 -->
<g id="node5" class="node">
<title>4</title>
<ellipse fill="none" stroke="black" cx="309.05" cy="-18" rx="27" ry="18"/>
<text text-anchor="middle" x="309.05" y="-14.3" font-family="Times,serif" font-size="14.00">de</text>
</g>
<!-- 0&#45;&gt;4 -->
<g id="edge4" class="edge">
<title>0&#45;&gt;4</title>
<path fill="none" stroke="black" d="M1354.71,-103.89C1221.07,-103.22 635.62,-98.6 456.05,-69 405.26,-60.63 393.12,-54.37 345.05,-36 343.21,-35.3 341.33,-34.54 339.45,-33.75"/>
<polygon fill="black" stroke="black" points="340.69,-30.47 330.13,-29.61 337.85,-36.87 340.69,-30.47"/>
<text text-anchor="middle" x="469.55" y="-57.8" font-family="Times,serif" font-size="14.00">dep</text>
</g>
<!-- 5 -->
<g id="node6" class="node">
<title>5</title>
<ellipse fill="none" stroke="black" cx="394.05" cy="-18" rx="40.09" ry="18"/>
<text text-anchor="middle" x="394.05" y="-14.3" font-family="Times,serif" font-size="14.00">ordem</text>
</g>
<!-- 0&#45;&gt;5 -->
<g id="edge5" class="edge">
<title>0&#45;&gt;5</title>
<path fill="none" stroke="black" d="M1354.9,-103.84C1229.64,-102.95 706.77,-97.57 546.05,-69 505.94,-61.87 461.91,-46.5 431.61,-34.68"/>
<polygon fill="black" stroke="black" points="432.86,-31.41 422.28,-30.98 430.28,-37.91 432.86,-31.41"/>
<text text-anchor="middle" x="559.55" y="-57.8" font-family="Times,serif" font-size="14.00">dep</text>
</g>
<!-- 6 -->
<g id="node7" class="node">
<title>6</title>
<ellipse fill="none" stroke="black" cx="490.05" cy="-18" rx="37.89" ry="18"/>
<text text-anchor="middle" x="490.05" y="-14.3" font-family="Times,serif" font-size="14.00">moral</text>
</g>
<!-- 0&#45;&gt;6 -->
<g id="edge6" class="edge">
<title>0&#45;&gt;6</title>
<path fill="none" stroke="black" d="M1354.79,-103.84C1236.93,-102.98 770.49,-97.8 627.05,-69 591.34,-61.83 552.51,-46.93 525.34,-35.26"/>
<polygon fill="black" stroke="black" points="526.44,-31.92 515.88,-31.12 523.64,-38.33 526.44,-31.92"/>
<text text-anchor="middle" x="640.55" y="-57.8" font-family="Times,serif" font-size="14.00">dep</text>
</g>
<!-- 7 -->
<g id="node8" class="node">
<title>7</title>
<ellipse fill="none" stroke="black" cx="573.05" cy="-18" rx="27" ry="18"/>
<text text-anchor="middle" x="573.05" y="-14.3" font-family="Times,serif" font-size="14.00">,</text>
</g>
<!-- 0&#45;&gt;7 -->
<g id="edge7" class="edge">
<title>0&#45;&gt;7</title>
<path fill="none" stroke="black" d="M1354.97,-103.42C1246.76,-100.97 845.23,-90.6 720.05,-69 669.33,-60.25 657.12,-54.37 609.05,-36 607.21,-35.3 605.33,-34.54 603.45,-33.75"/>
<polygon fill="black" stroke="black" points="604.69,-30.47 594.13,-29.61 601.85,-36.87 604.69,-30.47"/>
<text text-anchor="middle" x="733.55" y="-57.8" font-family="Times,serif" font-size="14.00">dep</text>
</g>
<!-- 8 -->
<g id="node9" class="node">
<title>8</title>
<ellipse fill="none" stroke="black" cx="657.05" cy="-18" rx="38.99" ry="18"/>
<text text-anchor="middle" x="657.05" y="-14.3" font-family="Times,serif" font-size="14.00">temos</text>
</g>
<!-- 0&#45;&gt;8 -->
<g id="edge8" class="edge">
<title>0&#45;&gt;8</title>
<path fill="none" stroke="black" d="M1355.07,-103.3C1255.92,-100.58 911.75,-89.84 804.05,-69 765.53,-61.55 723.29,-46.41 694.02,-34.73"/>
<polygon fill="black" stroke="black" points="695.19,-31.43 684.61,-30.92 692.56,-37.92 695.19,-31.43"/>
<text text-anchor="middle" x="817.55" y="-57.8" font-family="Times,serif" font-size="14.00">dep</text>
</g>
<!-- 9 -->
<g id="node10" class="node">
<title>9</title>
<ellipse fill="none" stroke="black" cx="741.05" cy="-18" rx="27" ry="18"/>
<text text-anchor="middle" x="741.05" y="-14.3" font-family="Times,serif" font-size="14.00">a</text>
</g>
<!-- 0&#45;&gt;9 -->
<g id="edge9" class="edge">
<title>0&#45;&gt;9</title>
<path fill="none" stroke="black" d="M1354.9,-103.52C1282.62,-101.92 1079.6,-95.24 913.05,-69 851.61,-59.32 835.69,-56.72 777.05,-36 775.14,-35.33 773.2,-34.59 771.26,-33.8"/>
<polygon fill="black" stroke="black" points="772.25,-30.41 761.68,-29.62 769.45,-36.83 772.25,-30.41"/>
<text text-anchor="middle" x="926.55" y="-57.8" font-family="Times,serif" font-size="14.00">dep</text>
</g>
<!-- 10 -->
<g id="node11" class="node">
<title>10</title>
<ellipse fill="none" stroke="black" cx="842.05" cy="-18" rx="55.79" ry="18"/>
<text text-anchor="middle" x="842.05" y="-14.3" font-family="Times,serif" font-size="14.00">obrigação</text>
</g>
<!-- 0&#45;&gt;10 -->
<g id="edge10" class="edge">
<title>0&#45;&gt;10</title>
<path fill="none" stroke="black" d="M1355.05,-103.46C1292.41,-101.8 1132.63,-95.11 1002.05,-69 962.09,-61.01 917.98,-46.8 886.21,-35.57"/>
<polygon fill="black" stroke="black" points="887.36,-32.26 876.76,-32.19 885,-38.85 887.36,-32.26"/>
<text text-anchor="middle" x="1015.55" y="-57.8" font-family="Times,serif" font-size="14.00">dep</text>
</g>
<!-- 11 -->
<g id="node12" class="node">
<title>11</title>
<ellipse fill="none" stroke="black" cx="943.05" cy="-18" rx="27" ry="18"/>
<text text-anchor="middle" x="943.05" y="-14.3" font-family="Times,serif" font-size="14.00">de</text>
</g>
<!-- 0&#45;&gt;11 -->
<g id="edge11" class="edge">
<title>0&#45;&gt;11</title>
<path fill="none" stroke="black" d="M1355.11,-101.91C1304.84,-97.73 1193.42,-87.15 1101.05,-69 1045.93,-58.17 1031.76,-55.4 979.05,-36 977.2,-35.32 975.31,-34.58 973.43,-33.8"/>
<polygon fill="black" stroke="black" points="974.66,-30.52 964.1,-29.7 971.85,-36.93 974.66,-30.52"/>
<text text-anchor="middle" x="1114.55" y="-57.8" font-family="Times,serif" font-size="14.00">dep</text>
</g>
<!-- 12 -->
<g id="node13" class="node">
<title>12</title>
<ellipse fill="none" stroke="black" cx="1040.05" cy="-18" rx="51.99" ry="18"/>
<text text-anchor="middle" x="1040.05" y="-14.3" font-family="Times,serif" font-size="14.00">defender</text>
</g>
<!-- 0&#45;&gt;12 -->
<g id="edge12" class="edge">
<title>0&#45;&gt;12</title>
<path fill="none" stroke="black" d="M1355.64,-100.99C1316.45,-96.19 1240.75,-85.6 1178.05,-69 1144.92,-60.23 1108.51,-46.88 1081.41,-36.17"/>
<polygon fill="black" stroke="black" points="1082.46,-32.82 1071.88,-32.37 1079.86,-39.32 1082.46,-32.82"/>
<text text-anchor="middle" x="1191.55" y="-57.8" font-family="Times,serif" font-size="14.00">dep</text>
</g>
<!-- 13 -->
<g id="node14" class="node">
<title>13</title>
<ellipse fill="none" stroke="black" cx="1141.05" cy="-18" rx="30.59" ry="18"/>
<text text-anchor="middle" x="1141.05" y="-14.3" font-family="Times,serif" font-size="14.00">uma</text>
</g>
<!-- 0&#45;&gt;13 -->
<g id="edge13" class="edge">
<title>0&#45;&gt;13</title>
<path fill="none" stroke="black" d="M1356.46,-99.23C1328.2,-93.58 1281.6,-83.13 1243.05,-69 1218.11,-59.86 1191.18,-46.5 1171.26,-35.89"/>
<polygon fill="black" stroke="black" points="1172.82,-32.75 1162.36,-31.08 1169.49,-38.91 1172.82,-32.75"/>
<text text-anchor="middle" x="1256.55" y="-57.8" font-family="Times,serif" font-size="14.00">dep</text>
</g>
<!-- 14 -->
<g id="node15" class="node">
<title>14</title>
<ellipse fill="none" stroke="black" cx="1217.05" cy="-18" rx="27" ry="18"/>
<text text-anchor="middle" x="1217.05" y="-14.3" font-family="Times,serif" font-size="14.00">de</text>
</g>
<!-- 0&#45;&gt;14 -->
<g id="edge14" class="edge">
<title>0&#45;&gt;14</title>
<path fill="none" stroke="black" d="M1359.09,-95.38C1342.19,-88.78 1318.81,-79.12 1299.05,-69 1280.19,-59.34 1259.85,-46.95 1244.15,-36.93"/>
<polygon fill="black" stroke="black" points="1245.78,-33.81 1235.48,-31.33 1241.98,-39.7 1245.78,-33.81"/>
<text text-anchor="middle" x="1312.55" y="-57.8" font-family="Times,serif" font-size="14.00">dep</text>
</g>
<!-- 15 -->
<g id="node16" class="node">
<title>15</title>
<ellipse fill="none" stroke="black" cx="1289.05" cy="-18" rx="27" ry="18"/>
<text text-anchor="middle" x="1289.05" y="-14.3" font-family="Times,serif" font-size="14.00">as</text>
</g>
<!-- 0&#45;&gt;15 -->
<g id="edge15" class="edge">
<title>0&#45;&gt;15</title>
<path fill="none" stroke="black" d="M1366.69,-89.96C1351.88,-76.43 1329.27,-55.77 1312.27,-40.22"/>
<polygon fill="black" stroke="black" points="1314.17,-37.22 1304.43,-33.06 1309.45,-42.39 1314.17,-37.22"/>
<text text-anchor="middle" x="1355.55" y="-57.8" font-family="Times,serif" font-size="14.00">dep</text>
</g>
<!-- 16 -->
<g id="node17" class="node">
<title>16</title>
<ellipse fill="none" stroke="black" cx="1382.05" cy="-18" rx="48.19" ry="18"/>
<text text-anchor="middle" x="1382.05" y="-14.3" font-family="Times,serif" font-size="14.00">grandes</text>
</g>
<!-- 0&#45;&gt;16 -->
<g id="edge16" class="edge">
<title>0&#45;&gt;16</title>
<path fill="none" stroke="black" d="M1382.05,-86.8C1382.05,-75.16 1382.05,-59.55 1382.05,-46.24"/>
<polygon fill="black" stroke="black" points="1385.55,-46.18 1382.05,-36.18 1378.55,-46.18 1385.55,-46.18"/>
<text text-anchor="middle" x="1395.55" y="-57.8" font-family="Times,serif" font-size="14.00">dep</text>
</g>
<!-- 17 -->
<g id="node18" class="node">
<title>17</title>
<ellipse fill="none" stroke="black" cx="1502.05" cy="-18" rx="53.89" ry="18"/>
<text text-anchor="middle" x="1502.05" y="-14.3" font-family="Times,serif" font-size="14.00">tradições</text>
</g>
<!-- 0&#45;&gt;17 -->
<g id="edge17" class="edge">
<title>0&#45;&gt;17</title>
<path fill="none" stroke="black" d="M1400.01,-91.27C1418.91,-77.89 1449,-56.58 1471.61,-40.56"/>
<polygon fill="black" stroke="black" points="1473.73,-43.34 1479.87,-34.71 1469.69,-37.63 1473.73,-43.34"/>
<text text-anchor="middle" x="1463.55" y="-57.8" font-family="Times,serif" font-size="14.00">dep</text>
</g>
<!-- 18 -->
<g id="node19" class="node">
<title>18</title>
<ellipse fill="none" stroke="black" cx="1601.05" cy="-18" rx="27" ry="18"/>
<text text-anchor="middle" x="1601.05" y="-14.3" font-family="Times,serif" font-size="14.00">de</text>
</g>
<!-- 0&#45;&gt;18 -->
<g id="edge18" class="edge">
<title>0&#45;&gt;18</title>
<path fill="none" stroke="black" d="M1405.75,-96.08C1440.94,-84.11 1508.89,-60.26 1565.05,-36 1566.86,-35.22 1568.71,-34.4 1570.57,-33.56"/>
<polygon fill="black" stroke="black" points="1572.21,-36.66 1579.83,-29.31 1569.29,-30.3 1572.21,-36.66"/>
<text text-anchor="middle" x="1534.55" y="-57.8" font-family="Times,serif" font-size="14.00">dep</text>
</g>
<!-- 19 -->
<g id="node20" class="node">
<title>19</title>
<ellipse fill="none" stroke="black" cx="1673.05" cy="-18" rx="27" ry="18"/>
<text text-anchor="middle" x="1673.05" y="-14.3" font-family="Times,serif" font-size="14.00">a</text>
</g>
<!-- 0&#45;&gt;19 -->
<g id="edge19" class="edge">
<title>0&#45;&gt;19</title>
<path fill="none" stroke="black" d="M1408.01,-100.04C1441.64,-94.6 1501.9,-83.78 1552.05,-69 1590.92,-57.54 1599.81,-52 1637.05,-36 1638.86,-35.22 1640.71,-34.41 1642.57,-33.57"/>
<polygon fill="black" stroke="black" points="1644.21,-36.67 1651.84,-29.32 1641.29,-30.31 1644.21,-36.67"/>
<text text-anchor="middle" x="1609.55" y="-57.8" font-family="Times,serif" font-size="14.00">dep</text>
</g>
<!-- 20 -->
<g id="node21" class="node">
<title>20</title>
<ellipse fill="none" stroke="black" cx="1755.05" cy="-18" rx="37.09" ry="18"/>
<text text-anchor="middle" x="1755.05" y="-14.3" font-family="Times,serif" font-size="14.00">nossa</text>
</g>
<!-- 0&#45;&gt;20 -->
<g id="edge20" class="edge">
<title>0&#45;&gt;20</title>
<path fill="none" stroke="black" d="M1408.91,-102.2C1454.43,-98.69 1549.34,-89.43 1627.05,-69 1659.37,-60.5 1694.65,-46.33 1719.97,-35.24"/>
<polygon fill="black" stroke="black" points="1721.44,-38.41 1729.16,-31.16 1718.6,-32.02 1721.44,-38.41"/>
<text text-anchor="middle" x="1684.55" y="-57.8" font-family="Times,serif" font-size="14.00">dep</text>
</g>
<!-- 21 -->
<g id="node22" class="node">
<title>21</title>
<ellipse fill="none" stroke="black" cx="1869.05" cy="-18" rx="58.49" ry="18"/>
<text text-anchor="middle" x="1869.05" y="-14.3" font-family="Times,serif" font-size="14.00">civilização</text>
</g>
<!-- 0&#45;&gt;21 -->
<g id="edge21" class="edge">
<title>0&#45;&gt;21</title>
<path fill="none" stroke="black" d="M1408.85,-102.72C1464.15,-99.71 1594.69,-90.75 1702.05,-69 1743.44,-60.61 1789.34,-46.51 1822.52,-35.42"/>
<polygon fill="black" stroke="black" points="1824.04,-38.6 1832.39,-32.08 1821.8,-31.97 1824.04,-38.6"/>
<text text-anchor="middle" x="1776.55" y="-57.8" font-family="Times,serif" font-size="14.00">dep</text>
</g>
<!-- 22 -->
<g id="node23" class="node">
<title>22</title>
<ellipse fill="none" stroke="black" cx="1972.05" cy="-18" rx="27" ry="18"/>
<text text-anchor="middle" x="1972.05" y="-14.3" font-family="Times,serif" font-size="14.00">,</text>
</g>
<!-- 0&#45;&gt;22 -->
<g id="edge22" class="edge">
<title>0&#45;&gt;22</title>
<path fill="none" stroke="black" d="M1409.2,-103.04C1475.38,-100.42 1650.1,-91.72 1794.05,-69 1858.05,-58.9 1874.85,-57.29 1936.05,-36 1937.96,-35.34 1939.9,-34.6 1941.84,-33.82"/>
<polygon fill="black" stroke="black" points="1943.65,-36.85 1951.42,-29.66 1940.86,-30.43 1943.65,-36.85"/>
<text text-anchor="middle" x="1889.55" y="-57.8" font-family="Times,serif" font-size="14.00">dep</text>
</g>
<!-- 23 -->
<g id="node24" class="node">
<title>23</title>
<ellipse fill="none" stroke="black" cx="2045.05" cy="-18" rx="27.9" ry="18"/>
<text text-anchor="middle" x="2045.05" y="-14.3" font-family="Times,serif" font-size="14.00">que</text>
</g>
<!-- 0&#45;&gt;23 -->
<g id="edge23" class="edge">
<title>0&#45;&gt;23</title>
<path fill="none" stroke="black" d="M1409.12,-104.55C1487.19,-105.65 1719.16,-105.37 1907.05,-69 1944.93,-61.67 1986.27,-45.52 2013.73,-33.55"/>
<polygon fill="black" stroke="black" points="2015.47,-36.61 2023.19,-29.35 2012.63,-30.21 2015.47,-36.61"/>
<text text-anchor="middle" x="1975.55" y="-57.8" font-family="Times,serif" font-size="14.00">dep</text>
</g>
<!-- 24 -->
<g id="node25" class="node">
<title>24</title>
<ellipse fill="none" stroke="black" cx="2118.05" cy="-18" rx="27" ry="18"/>
<text text-anchor="middle" x="2118.05" y="-14.3" font-family="Times,serif" font-size="14.00">é</text>
</g>
<!-- 0&#45;&gt;24 -->
<g id="edge24" class="edge">
<title>0&#45;&gt;24</title>
<path fill="none" stroke="black" d="M1409.16,-103.52C1512.15,-101.52 1879.04,-92.84 1993.05,-69 2026.98,-61.9 2063.55,-46.25 2088.31,-34.33"/>
<polygon fill="black" stroke="black" points="2090.08,-37.36 2097.51,-29.81 2087,-31.08 2090.08,-37.36"/>
<text text-anchor="middle" x="2056.55" y="-57.8" font-family="Times,serif" font-size="14.00">dep</text>
</g>
<!-- 25 -->
<g id="node26" class="node">
<title>25</title>
<ellipse fill="none" stroke="black" cx="2190.05" cy="-18" rx="27" ry="18"/>
<text text-anchor="middle" x="2190.05" y="-14.3" font-family="Times,serif" font-size="14.00">a</text>
</g>
<!-- 0&#45;&gt;25 -->
<g id="edge25" class="edge">
<title>0&#45;&gt;25</title>
<path fill="none" stroke="black" d="M1409.28,-103.85C1520.96,-103.07 1944.06,-98.19 2074.05,-69 2104.94,-62.06 2137.88,-47.05 2160.74,-35.27"/>
<polygon fill="black" stroke="black" points="2162.66,-38.21 2169.88,-30.46 2159.4,-32.02 2162.66,-38.21"/>
<text text-anchor="middle" x="2134.55" y="-57.8" font-family="Times,serif" font-size="14.00">dep</text>
</g>
<!-- 26 -->
<g id="node27" class="node">
<title>26</title>
<ellipse fill="none" stroke="black" cx="2262.05" cy="-18" rx="27" ry="18"/>
<text text-anchor="middle" x="2262.05" y="-14.3" font-family="Times,serif" font-size="14.00">de</text>
</g>
<!-- 0&#45;&gt;26 -->
<g id="edge26" class="edge">
<title>0&#45;&gt;26</title>
<path fill="none" stroke="black" d="M1409.09,-104.12C1528.2,-104.42 2006.53,-103.45 2152.05,-69 2181.21,-62.1 2212.08,-47.33 2233.67,-35.62"/>
<polygon fill="black" stroke="black" points="2235.56,-38.57 2242.61,-30.66 2232.17,-32.45 2235.56,-38.57"/>
<text text-anchor="middle" x="2209.55" y="-57.8" font-family="Times,serif" font-size="14.00">dep</text>
</g>
<!-- 27 -->
<g id="node28" class="node">
<title>27</title>
<ellipse fill="none" stroke="black" cx="2334.05" cy="-18" rx="27" ry="18"/>
<text text-anchor="middle" x="2334.05" y="-14.3" font-family="Times,serif" font-size="14.00">a</text>
</g>
<!-- 0&#45;&gt;27 -->
<g id="edge27" class="edge">
<title>0&#45;&gt;27</title>
<path fill="none" stroke="black" d="M1409.16,-104.3C1535.43,-105.48 2066.53,-107.98 2227.05,-69 2255.21,-62.16 2284.9,-47.63 2305.83,-35.99"/>
<polygon fill="black" stroke="black" points="2307.84,-38.87 2314.8,-30.88 2304.38,-32.79 2307.84,-38.87"/>
<text text-anchor="middle" x="2283.55" y="-57.8" font-family="Times,serif" font-size="14.00">dep</text>
</g>
<!-- 28 -->
<g id="node29" class="node">
<title>28</title>
<ellipse fill="none" stroke="black" cx="2434.05" cy="-18" rx="54.69" ry="18"/>
<text text-anchor="middle" x="2434.05" y="-14.3" font-family="Times,serif" font-size="14.00">liberdade</text>
</g>
<!-- 0&#45;&gt;28 -->
<g id="edge28" class="edge">
<title>0&#45;&gt;28</title>
<path fill="none" stroke="black" d="M1409.22,-104.14C1542.08,-104.63 2123.99,-104.68 2301.05,-69 2333.89,-62.38 2369.32,-48.71 2395.35,-37.34"/>
<polygon fill="black" stroke="black" points="2396.78,-40.53 2404.49,-33.27 2393.93,-34.14 2396.78,-40.53"/>
<text text-anchor="middle" x="2367.55" y="-57.8" font-family="Times,serif" font-size="14.00">dep</text>
</g>
<!-- 29 -->
<g id="node30" class="node">
<title>29</title>
<ellipse fill="none" stroke="black" cx="2534.05" cy="-18" rx="27" ry="18"/>
<text text-anchor="middle" x="2534.05" y="-14.3" font-family="Times,serif" font-size="14.00">de</text>
</g>
<!-- 0&#45;&gt;29 -->
<g id="edge29" class="edge">
<title>0&#45;&gt;29</title>
<path fill="none" stroke="black" d="M1409.3,-103.97C1549.37,-103.65 2189.37,-100.48 2385.05,-69 2436.7,-60.69 2449.13,-54.56 2498.05,-36 2499.89,-35.3 2501.77,-34.55 2503.65,-33.76"/>
<polygon fill="black" stroke="black" points="2505.24,-36.88 2512.97,-29.63 2502.41,-30.48 2505.24,-36.88"/>
<text text-anchor="middle" x="2462.55" y="-57.8" font-family="Times,serif" font-size="14.00">dep</text>
</g>
<!-- 30 -->
<g id="node31" class="node">
<title>30</title>
<ellipse fill="none" stroke="black" cx="2637.05" cy="-18" rx="57.69" ry="18"/>
<text text-anchor="middle" x="2637.05" y="-14.3" font-family="Times,serif" font-size="14.00">expressão</text>
</g>
<!-- 0&#45;&gt;30 -->
<g id="edge30" class="edge">
<title>0&#45;&gt;30</title>
<path fill="none" stroke="black" d="M1409.41,-104.15C1557.59,-104.81 2265.06,-105.92 2480.05,-69 2519.48,-62.23 2562.69,-47.93 2593.77,-36.35"/>
<polygon fill="black" stroke="black" points="2595.31,-39.52 2603.42,-32.7 2592.83,-32.97 2595.31,-39.52"/>
<text text-anchor="middle" x="2555.55" y="-57.8" font-family="Times,serif" font-size="14.00">dep</text>
</g>
<!-- 31 -->
<g id="node32" class="node">
<title>31</title>
<ellipse fill="none" stroke="black" cx="2740.05" cy="-18" rx="27" ry="18"/>
<text text-anchor="middle" x="2740.05" y="-14.3" font-family="Times,serif" font-size="14.00">.</text>
</g>
<!-- 0&#45;&gt;31 -->
<g id="edge31" class="edge">
<title>0&#45;&gt;31</title>
<path fill="none" stroke="black" d="M1409.12,-104C1563.82,-103.9 2337.42,-101.74 2573.05,-69 2632.52,-60.74 2647.52,-56.25 2704.05,-36 2705.9,-35.34 2707.79,-34.61 2709.68,-33.84"/>
<polygon fill="black" stroke="black" points="2711.25,-36.97 2719.02,-29.77 2708.45,-30.56 2711.25,-36.97"/>
<text text-anchor="middle" x="2662.55" y="-57.8" font-family="Times,serif" font-size="14.00">dep</text>
</g>
</g>
</svg>
