<?xml version="1.0" encoding="UTF-8" standalone="no"?>
<!DOCTYPE svg PUBLIC "-//W3C//DTD SVG 1.1//EN"
 "http://www.w3.org/Graphics/SVG/1.1/DTD/svg11.dtd">
<!-- Generated by graphviz version 2.42.4 (0)
 -->
<!-- Pages: 1 -->
<svg width="751pt" height="131pt"
 viewBox="0.00 0.00 751.00 131.00" xmlns="http://www.w3.org/2000/svg" xmlns:xlink="http://www.w3.org/1999/xlink">
<g id="graph0" class="graph" transform="scale(1 1) rotate(0) translate(4 127)">
<polygon fill="white" stroke="transparent" points="-4,4 -4,-127 747,-127 747,4 -4,4"/>
<!-- 0 -->
<g id="node1" class="node">
<title>0</title>
<ellipse fill="none" stroke="black" cx="349" cy="-105" rx="42.49" ry="18"/>
<text text-anchor="middle" x="349" y="-101.3" font-family="Times,serif" font-size="14.00">Ontem</text>
</g>
<!-- 1 -->
<g id="node2" class="node">
<title>1</title>
<ellipse fill="none" stroke="black" cx="27" cy="-18" rx="27" ry="18"/>
<text text-anchor="middle" x="27" y="-14.3" font-family="Times,serif" font-size="14.00">,</text>
</g>
<!-- 0&#45;&gt;1 -->
<g id="edge1" class="edge">
<title>0&#45;&gt;1</title>
<path fill="none" stroke="black" d="M308.32,-99.9C266.13,-95.01 198.54,-85.36 142,-69 105.45,-58.43 97.77,-51.46 63,-36 61.2,-35.2 59.35,-34.37 57.5,-33.52"/>
<polygon fill="black" stroke="black" points="58.79,-30.26 48.25,-29.23 55.85,-36.61 58.79,-30.26"/>
<text text-anchor="middle" x="155.5" y="-57.8" font-family="Times,serif" font-size="14.00">dep</text>
</g>
<!-- 2 -->
<g id="node3" class="node">
<title>2</title>
<ellipse fill="none" stroke="black" cx="99" cy="-18" rx="27" ry="18"/>
<text text-anchor="middle" x="99" y="-14.3" font-family="Times,serif" font-size="14.00">de</text>
</g>
<!-- 0&#45;&gt;2 -->
<g id="edge2" class="edge">
<title>0&#45;&gt;2</title>
<path fill="none" stroke="black" d="M311.64,-96.52C283.14,-90.37 243.1,-80.77 209,-69 174.96,-57.26 167.73,-51.02 135,-36 133.21,-35.18 131.37,-34.33 129.52,-33.47"/>
<polygon fill="black" stroke="black" points="130.83,-30.21 120.28,-29.14 127.86,-36.55 130.83,-30.21"/>
<text text-anchor="middle" x="222.5" y="-57.8" font-family="Times,serif" font-size="14.00">dep</text>
</g>
<!-- 3 -->
<g id="node4" class="node">
<title>3</title>
<ellipse fill="none" stroke="black" cx="171" cy="-18" rx="27" ry="18"/>
<text text-anchor="middle" x="171" y="-14.3" font-family="Times,serif" font-size="14.00">seu</text>
</g>
<!-- 0&#45;&gt;3 -->
<g id="edge3" class="edge">
<title>0&#45;&gt;3</title>
<path fill="none" stroke="black" d="M319.93,-91.77C304.67,-85.23 285.72,-76.91 269,-69 245.71,-57.97 219.75,-44.68 200.4,-34.58"/>
<polygon fill="black" stroke="black" points="201.95,-31.44 191.47,-29.89 198.7,-37.64 201.95,-31.44"/>
<text text-anchor="middle" x="282.5" y="-57.8" font-family="Times,serif" font-size="14.00">dep</text>
</g>
<!-- 4 -->
<g id="node5" class="node">
<title>4</title>
<ellipse fill="none" stroke="black" cx="260" cy="-18" rx="43.59" ry="18"/>
<text text-anchor="middle" x="260" y="-14.3" font-family="Times,serif" font-size="14.00">locutor</text>
</g>
<!-- 0&#45;&gt;4 -->
<g id="edge4" class="edge">
<title>0&#45;&gt;4</title>
<path fill="none" stroke="black" d="M332.26,-88.01C318.71,-75.07 299.44,-56.67 284.21,-42.12"/>
<polygon fill="black" stroke="black" points="286.31,-39.29 276.67,-34.92 281.48,-44.35 286.31,-39.29"/>
<text text-anchor="middle" x="323.5" y="-57.8" font-family="Times,serif" font-size="14.00">dep</text>
</g>
<!-- 5 -->
<g id="node6" class="node">
<title>5</title>
<ellipse fill="none" stroke="black" cx="349" cy="-18" rx="27" ry="18"/>
<text text-anchor="middle" x="349" y="-14.3" font-family="Times,serif" font-size="14.00">em</text>
</g>
<!-- 0&#45;&gt;5 -->
<g id="edge5" class="edge">
<title>0&#45;&gt;5</title>
<path fill="none" stroke="black" d="M349,-86.8C349,-75.16 349,-59.55 349,-46.24"/>
<polygon fill="black" stroke="black" points="352.5,-46.18 349,-36.18 345.5,-46.18 352.5,-46.18"/>
<text text-anchor="middle" x="362.5" y="-57.8" font-family="Times,serif" font-size="14.00">dep</text>
</g>
<!-- 6 -->
<g id="node7" class="node">
<title>6</title>
<ellipse fill="none" stroke="black" cx="421" cy="-18" rx="27" ry="18"/>
<text text-anchor="middle" x="421" y="-14.3" font-family="Times,serif" font-size="14.00">o</text>
</g>
<!-- 0&#45;&gt;6 -->
<g id="edge6" class="edge">
<title>0&#45;&gt;6</title>
<path fill="none" stroke="black" d="M363.64,-87.73C368.85,-81.87 374.73,-75.18 380,-69 387.32,-60.41 395.21,-50.86 402.1,-42.43"/>
<polygon fill="black" stroke="black" points="405,-44.41 408.59,-34.44 399.56,-39.99 405,-44.41"/>
<text text-anchor="middle" x="406.5" y="-57.8" font-family="Times,serif" font-size="14.00">dep</text>
</g>
<!-- 7 -->
<g id="node8" class="node">
<title>7</title>
<ellipse fill="none" stroke="black" cx="510" cy="-18" rx="44.39" ry="18"/>
<text text-anchor="middle" x="510" y="-14.3" font-family="Times,serif" font-size="14.00">horário</text>
</g>
<!-- 0&#45;&gt;7 -->
<g id="edge7" class="edge">
<title>0&#45;&gt;7</title>
<path fill="none" stroke="black" d="M377.43,-91.46C391.57,-85.04 408.85,-76.92 424,-69 442.04,-59.57 461.7,-48.22 477.66,-38.73"/>
<polygon fill="black" stroke="black" points="479.81,-41.52 486.59,-33.38 476.22,-35.51 479.81,-41.52"/>
<text text-anchor="middle" x="464.5" y="-57.8" font-family="Times,serif" font-size="14.00">dep</text>
</g>
<!-- 8 -->
<g id="node9" class="node">
<title>8</title>
<ellipse fill="none" stroke="black" cx="622" cy="-18" rx="49.29" ry="18"/>
<text text-anchor="middle" x="622" y="-14.3" font-family="Times,serif" font-size="14.00">eleitoral</text>
</g>
<!-- 0&#45;&gt;8 -->
<g id="edge8" class="edge">
<title>0&#45;&gt;8</title>
<path fill="none" stroke="black" d="M385.08,-95.39C411.97,-88.77 449.5,-79.06 482,-69 515.05,-58.77 551.87,-45.55 579.45,-35.27"/>
<polygon fill="black" stroke="black" points="581.04,-38.41 589.17,-31.62 578.58,-31.86 581.04,-38.41"/>
<text text-anchor="middle" x="538.5" y="-57.8" font-family="Times,serif" font-size="14.00">dep</text>
</g>
<!-- 9 -->
<g id="node10" class="node">
<title>9</title>
<ellipse fill="none" stroke="black" cx="716" cy="-18" rx="27" ry="18"/>
<text text-anchor="middle" x="716" y="-14.3" font-family="Times,serif" font-size="14.00">:</text>
</g>
<!-- 0&#45;&gt;9 -->
<g id="edge9" class="edge">
<title>0&#45;&gt;9</title>
<path fill="none" stroke="black" d="M389.54,-99.59C453.01,-91.83 579.04,-72.93 680,-36 681.85,-35.32 683.73,-34.59 685.62,-33.81"/>
<polygon fill="black" stroke="black" points="687.2,-36.94 694.95,-29.72 684.39,-30.53 687.2,-36.94"/>
<text text-anchor="middle" x="632.5" y="-57.8" font-family="Times,serif" font-size="14.00">dep</text>
</g>
</g>
</svg>
