<?xml version="1.0" encoding="UTF-8" standalone="no"?>
<!DOCTYPE svg PUBLIC "-//W3C//DTD SVG 1.1//EN"
 "http://www.w3.org/Graphics/SVG/1.1/DTD/svg11.dtd">
<!-- Generated by graphviz version 2.42.4 (0)
 -->
<!-- Pages: 1 -->
<svg width="1642pt" height="131pt"
 viewBox="0.00 0.00 1642.20 131.00" xmlns="http://www.w3.org/2000/svg" xmlns:xlink="http://www.w3.org/1999/xlink">
<g id="graph0" class="graph" transform="scale(1 1) rotate(0) translate(4 127)">
<polygon fill="white" stroke="transparent" points="-4,4 -4,-127 1638.2,-127 1638.2,4 -4,4"/>
<!-- 0 -->
<g id="node1" class="node">
<title>0</title>
<ellipse fill="none" stroke="black" cx="789.2" cy="-105" rx="29.5" ry="18"/>
<text text-anchor="middle" x="789.2" y="-101.3" font-family="Times,serif" font-size="14.00">Não</text>
</g>
<!-- 1 -->
<g id="node2" class="node">
<title>1</title>
<ellipse fill="none" stroke="black" cx="44.2" cy="-18" rx="44.39" ry="18"/>
<text text-anchor="middle" x="44.2" y="-14.3" font-family="Times,serif" font-size="14.00">preciso</text>
</g>
<!-- 0&#45;&gt;1 -->
<g id="edge1" class="edge">
<title>0&#45;&gt;1</title>
<path fill="none" stroke="black" d="M759.96,-103.23C656.69,-100.37 309.45,-89.41 200.2,-69 159.71,-61.44 115.1,-46.43 84,-34.82"/>
<polygon fill="black" stroke="black" points="84.99,-31.45 74.39,-31.18 82.51,-38 84.99,-31.45"/>
<text text-anchor="middle" x="213.7" y="-57.8" font-family="Times,serif" font-size="14.00">dep</text>
</g>
<!-- 2 -->
<g id="node3" class="node">
<title>2</title>
<ellipse fill="none" stroke="black" cx="133.2" cy="-18" rx="27" ry="18"/>
<text text-anchor="middle" x="133.2" y="-14.3" font-family="Times,serif" font-size="14.00">,</text>
</g>
<!-- 0&#45;&gt;2 -->
<g id="edge2" class="edge">
<title>0&#45;&gt;2</title>
<path fill="none" stroke="black" d="M759.89,-103.26C685.73,-101.09 484.76,-93.25 319.2,-69 251.66,-59.11 233.8,-58.05 169.2,-36 167.28,-35.35 165.34,-34.62 163.39,-33.85"/>
<polygon fill="black" stroke="black" points="164.37,-30.46 153.81,-29.7 161.59,-36.88 164.37,-30.46"/>
<text text-anchor="middle" x="332.7" y="-57.8" font-family="Times,serif" font-size="14.00">dep</text>
</g>
<!-- 3 -->
<g id="node4" class="node">
<title>3</title>
<ellipse fill="none" stroke="black" cx="242.2" cy="-18" rx="63.89" ry="18"/>
<text text-anchor="middle" x="242.2" y="-14.3" font-family="Times,serif" font-size="14.00">governador</text>
</g>
<!-- 0&#45;&gt;3 -->
<g id="edge3" class="edge">
<title>0&#45;&gt;3</title>
<path fill="none" stroke="black" d="M759.92,-103.26C695.92,-101.21 538.98,-93.86 410.2,-69 368.72,-60.99 322.84,-46.97 289.51,-35.81"/>
<polygon fill="black" stroke="black" points="290.62,-32.49 280.03,-32.6 288.38,-39.12 290.62,-32.49"/>
<text text-anchor="middle" x="423.7" y="-57.8" font-family="Times,serif" font-size="14.00">dep</text>
</g>
<!-- 4 -->
<g id="node5" class="node">
<title>4</title>
<ellipse fill="none" stroke="black" cx="351.2" cy="-18" rx="27" ry="18"/>
<text text-anchor="middle" x="351.2" y="-14.3" font-family="Times,serif" font-size="14.00">,</text>
</g>
<!-- 0&#45;&gt;4 -->
<g id="edge4" class="edge">
<title>0&#45;&gt;4</title>
<path fill="none" stroke="black" d="M760.14,-101.94C708.18,-97.94 596.11,-87.78 503.2,-69 450.66,-58.38 437.38,-54.84 387.2,-36 385.35,-35.31 383.47,-34.56 381.59,-33.77"/>
<polygon fill="black" stroke="black" points="382.83,-30.5 372.27,-29.66 380,-36.9 382.83,-30.5"/>
<text text-anchor="middle" x="516.7" y="-57.8" font-family="Times,serif" font-size="14.00">dep</text>
</g>
<!-- 5 -->
<g id="node6" class="node">
<title>5</title>
<ellipse fill="none" stroke="black" cx="440.2" cy="-18" rx="43.59" ry="18"/>
<text text-anchor="middle" x="440.2" y="-14.3" font-family="Times,serif" font-size="14.00">porque</text>
</g>
<!-- 0&#45;&gt;5 -->
<g id="edge5" class="edge">
<title>0&#45;&gt;5</title>
<path fill="none" stroke="black" d="M760.61,-100.79C720.2,-95.89 644.29,-85.36 581.2,-69 546.11,-59.9 507.38,-45.87 479.4,-34.98"/>
<polygon fill="black" stroke="black" points="480.57,-31.67 469.98,-31.27 478,-38.19 480.57,-31.67"/>
<text text-anchor="middle" x="594.7" y="-57.8" font-family="Times,serif" font-size="14.00">dep</text>
</g>
<!-- 6 -->
<g id="node7" class="node">
<title>6</title>
<ellipse fill="none" stroke="black" cx="529.2" cy="-18" rx="27" ry="18"/>
<text text-anchor="middle" x="529.2" y="-14.3" font-family="Times,serif" font-size="14.00">,</text>
</g>
<!-- 0&#45;&gt;6 -->
<g id="edge6" class="edge">
<title>0&#45;&gt;6</title>
<path fill="none" stroke="black" d="M762.24,-97.67C735.23,-91.14 692.55,-80.35 656.2,-69 615.13,-56.18 604.91,-52.54 565.2,-36 563.38,-35.24 561.52,-34.44 559.65,-33.62"/>
<polygon fill="black" stroke="black" points="560.92,-30.35 550.37,-29.4 558.02,-36.73 560.92,-30.35"/>
<text text-anchor="middle" x="669.7" y="-57.8" font-family="Times,serif" font-size="14.00">dep</text>
</g>
<!-- 7 -->
<g id="node8" class="node">
<title>7</title>
<ellipse fill="none" stroke="black" cx="623.2" cy="-18" rx="49.29" ry="18"/>
<text text-anchor="middle" x="623.2" y="-14.3" font-family="Times,serif" font-size="14.00">sabendo</text>
</g>
<!-- 0&#45;&gt;7 -->
<g id="edge7" class="edge">
<title>0&#45;&gt;7</title>
<path fill="none" stroke="black" d="M766.37,-93.6C751.66,-86.81 732.18,-77.62 715.2,-69 696.19,-59.35 675.28,-48.05 658.22,-38.63"/>
<polygon fill="black" stroke="black" points="659.61,-35.4 649.16,-33.62 656.21,-41.52 659.61,-35.4"/>
<text text-anchor="middle" x="728.7" y="-57.8" font-family="Times,serif" font-size="14.00">dep</text>
</g>
<!-- 8 -->
<g id="node9" class="node">
<title>8</title>
<ellipse fill="none" stroke="black" cx="717.2" cy="-18" rx="27" ry="18"/>
<text text-anchor="middle" x="717.2" y="-14.3" font-family="Times,serif" font-size="14.00">de</text>
</g>
<!-- 0&#45;&gt;8 -->
<g id="edge8" class="edge">
<title>0&#45;&gt;8</title>
<path fill="none" stroke="black" d="M775.49,-88.78C770.05,-82.67 763.78,-75.55 758.2,-69 750.88,-60.41 742.99,-50.86 736.1,-42.43"/>
<polygon fill="black" stroke="black" points="738.63,-39.99 729.61,-34.44 733.2,-44.41 738.63,-39.99"/>
<text text-anchor="middle" x="771.7" y="-57.8" font-family="Times,serif" font-size="14.00">dep</text>
</g>
<!-- 9 -->
<g id="node10" class="node">
<title>9</title>
<ellipse fill="none" stroke="black" cx="789.2" cy="-18" rx="27" ry="18"/>
<text text-anchor="middle" x="789.2" y="-14.3" font-family="Times,serif" font-size="14.00">a</text>
</g>
<!-- 0&#45;&gt;9 -->
<g id="edge9" class="edge">
<title>0&#45;&gt;9</title>
<path fill="none" stroke="black" d="M789.2,-86.8C789.2,-75.16 789.2,-59.55 789.2,-46.24"/>
<polygon fill="black" stroke="black" points="792.7,-46.18 789.2,-36.18 785.7,-46.18 792.7,-46.18"/>
<text text-anchor="middle" x="802.7" y="-57.8" font-family="Times,serif" font-size="14.00">dep</text>
</g>
<!-- 10 -->
<g id="node11" class="node">
<title>10</title>
<ellipse fill="none" stroke="black" cx="907.2" cy="-18" rx="73.39" ry="18"/>
<text text-anchor="middle" x="907.2" y="-14.3" font-family="Times,serif" font-size="14.00">hospitalidade</text>
</g>
<!-- 0&#45;&gt;10 -->
<g id="edge10" class="edge">
<title>0&#45;&gt;10</title>
<path fill="none" stroke="black" d="M807.63,-90.72C825.95,-77.53 854.36,-57.06 876.15,-41.36"/>
<polygon fill="black" stroke="black" points="878.38,-44.07 884.44,-35.39 874.28,-38.39 878.38,-44.07"/>
<text text-anchor="middle" x="869.7" y="-57.8" font-family="Times,serif" font-size="14.00">dep</text>
</g>
<!-- 11 -->
<g id="node12" class="node">
<title>11</title>
<ellipse fill="none" stroke="black" cx="1063.2" cy="-18" rx="64.19" ry="18"/>
<text text-anchor="middle" x="1063.2" y="-14.3" font-family="Times,serif" font-size="14.00">paranaense</text>
</g>
<!-- 0&#45;&gt;11 -->
<g id="edge11" class="edge">
<title>0&#45;&gt;11</title>
<path fill="none" stroke="black" d="M814.97,-96C859.93,-82.06 953.47,-53.04 1012.01,-34.88"/>
<polygon fill="black" stroke="black" points="1013.28,-38.15 1021.8,-31.84 1011.21,-31.46 1013.28,-38.15"/>
<text text-anchor="middle" x="956.7" y="-57.8" font-family="Times,serif" font-size="14.00">dep</text>
</g>
<!-- 12 -->
<g id="node13" class="node">
<title>12</title>
<ellipse fill="none" stroke="black" cx="1172.2" cy="-18" rx="27" ry="18"/>
<text text-anchor="middle" x="1172.2" y="-14.3" font-family="Times,serif" font-size="14.00">,</text>
</g>
<!-- 0&#45;&gt;12 -->
<g id="edge12" class="edge">
<title>0&#45;&gt;12</title>
<path fill="none" stroke="black" d="M817.71,-100.91C877.81,-93.86 1021.44,-74.16 1136.2,-36 1138.11,-35.36 1140.06,-34.65 1142.01,-33.88"/>
<polygon fill="black" stroke="black" points="1143.8,-36.92 1151.61,-29.76 1141.04,-30.49 1143.8,-36.92"/>
<text text-anchor="middle" x="1085.7" y="-57.8" font-family="Times,serif" font-size="14.00">dep</text>
</g>
<!-- 13 -->
<g id="node14" class="node">
<title>13</title>
<ellipse fill="none" stroke="black" cx="1244.2" cy="-18" rx="27" ry="18"/>
<text text-anchor="middle" x="1244.2" y="-14.3" font-family="Times,serif" font-size="14.00">eu</text>
</g>
<!-- 0&#45;&gt;13 -->
<g id="edge13" class="edge">
<title>0&#45;&gt;13</title>
<path fill="none" stroke="black" d="M818.5,-102.63C874.39,-99.59 999.88,-90.78 1103.2,-69 1151.06,-58.91 1162.64,-53.82 1208.2,-36 1210.03,-35.28 1211.9,-34.51 1213.78,-33.71"/>
<polygon fill="black" stroke="black" points="1215.38,-36.83 1223.09,-29.56 1212.53,-30.44 1215.38,-36.83"/>
<text text-anchor="middle" x="1173.7" y="-57.8" font-family="Times,serif" font-size="14.00">dep</text>
</g>
<!-- 14 -->
<g id="node15" class="node">
<title>14</title>
<ellipse fill="none" stroke="black" cx="1320.2" cy="-18" rx="30.59" ry="18"/>
<text text-anchor="middle" x="1320.2" y="-14.3" font-family="Times,serif" font-size="14.00">nem</text>
</g>
<!-- 0&#45;&gt;14 -->
<g id="edge14" class="edge">
<title>0&#45;&gt;14</title>
<path fill="none" stroke="black" d="M818.86,-104.12C886.03,-103.8 1054.49,-99.71 1191.2,-69 1225.48,-61.3 1262.72,-46.07 1288.33,-34.43"/>
<polygon fill="black" stroke="black" points="1289.93,-37.54 1297.54,-30.17 1287,-31.19 1289.93,-37.54"/>
<text text-anchor="middle" x="1252.7" y="-57.8" font-family="Times,serif" font-size="14.00">dep</text>
</g>
<!-- 15 -->
<g id="node16" class="node">
<title>15</title>
<ellipse fill="none" stroke="black" cx="1409.2" cy="-18" rx="40.89" ry="18"/>
<text text-anchor="middle" x="1409.2" y="-14.3" font-family="Times,serif" font-size="14.00">trouxe</text>
</g>
<!-- 0&#45;&gt;15 -->
<g id="edge15" class="edge">
<title>0&#45;&gt;15</title>
<path fill="none" stroke="black" d="M818.59,-104.62C894.35,-105.63 1102.08,-104.65 1270.2,-69 1305.88,-61.43 1344.82,-46.84 1372.38,-35.36"/>
<polygon fill="black" stroke="black" points="1373.78,-38.57 1381.63,-31.45 1371.06,-32.12 1373.78,-38.57"/>
<text text-anchor="middle" x="1334.7" y="-57.8" font-family="Times,serif" font-size="14.00">dep</text>
</g>
<!-- 16 -->
<g id="node17" class="node">
<title>16</title>
<ellipse fill="none" stroke="black" cx="1515.2" cy="-18" rx="47.39" ry="18"/>
<text text-anchor="middle" x="1515.2" y="-14.3" font-family="Times,serif" font-size="14.00">carteira</text>
</g>
<!-- 0&#45;&gt;16 -->
<g id="edge16" class="edge">
<title>0&#45;&gt;16</title>
<path fill="none" stroke="black" d="M818.49,-104.59C902.41,-105.77 1150.58,-105.66 1352.2,-69 1394.29,-61.35 1440.82,-46.39 1473.35,-34.83"/>
<polygon fill="black" stroke="black" points="1474.75,-38.04 1482.97,-31.36 1472.38,-31.46 1474.75,-38.04"/>
<text text-anchor="middle" x="1425.7" y="-57.8" font-family="Times,serif" font-size="14.00">dep</text>
</g>
<!-- 17 -->
<g id="node18" class="node">
<title>17</title>
<ellipse fill="none" stroke="black" cx="1607.2" cy="-18" rx="27" ry="18"/>
<text text-anchor="middle" x="1607.2" y="-14.3" font-family="Times,serif" font-size="14.00">.</text>
</g>
<!-- 0&#45;&gt;17 -->
<g id="edge17" class="edge">
<title>0&#45;&gt;17</title>
<path fill="none" stroke="black" d="M818.74,-104.5C911.42,-105.62 1204.39,-105.8 1443.2,-69 1501.26,-60.05 1515.94,-55.97 1571.2,-36 1573.05,-35.33 1574.94,-34.6 1576.82,-33.83"/>
<polygon fill="black" stroke="black" points="1578.4,-36.96 1586.16,-29.75 1575.59,-30.55 1578.4,-36.96"/>
<text text-anchor="middle" x="1530.7" y="-57.8" font-family="Times,serif" font-size="14.00">dep</text>
</g>
</g>
</svg>
