<?xml version="1.0" encoding="UTF-8" standalone="no"?>
<!DOCTYPE svg PUBLIC "-//W3C//DTD SVG 1.1//EN"
 "http://www.w3.org/Graphics/SVG/1.1/DTD/svg11.dtd">
<!-- Generated by graphviz version 2.42.4 (0)
 -->
<!-- Pages: 1 -->
<svg width="354pt" height="131pt"
 viewBox="0.00 0.00 353.64 131.00" xmlns="http://www.w3.org/2000/svg" xmlns:xlink="http://www.w3.org/1999/xlink">
<g id="graph0" class="graph" transform="scale(1 1) rotate(0) translate(4 127)">
<polygon fill="white" stroke="transparent" points="-4,4 -4,-127 349.64,-127 349.64,4 -4,4"/>
<!-- 0 -->
<g id="node1" class="node">
<title>0</title>
<ellipse fill="none" stroke="black" cx="192.9" cy="-105" rx="72.59" ry="18"/>
<text text-anchor="middle" x="192.9" y="-101.3" font-family="Times,serif" font-size="14.00">Manifestação</text>
</g>
<!-- 1 -->
<g id="node2" class="node">
<title>1</title>
<ellipse fill="none" stroke="black" cx="55.9" cy="-18" rx="55.79" ry="18"/>
<text text-anchor="middle" x="55.9" y="-14.3" font-family="Times,serif" font-size="14.00">anti&#45;hiper</text>
</g>
<!-- 0&#45;&gt;1 -->
<g id="edge1" class="edge">
<title>0&#45;&gt;1</title>
<path fill="none" stroke="black" d="M167.13,-88.01C145.13,-74.37 113.35,-54.65 89.39,-39.78"/>
<polygon fill="black" stroke="black" points="90.97,-36.64 80.63,-34.34 87.28,-42.59 90.97,-36.64"/>
<text text-anchor="middle" x="146.4" y="-57.8" font-family="Times,serif" font-size="14.00">dep</text>
</g>
<!-- 2 -->
<g id="node3" class="node">
<title>2</title>
<ellipse fill="none" stroke="black" cx="156.9" cy="-18" rx="27" ry="18"/>
<text text-anchor="middle" x="156.9" y="-14.3" font-family="Times,serif" font-size="14.00">em</text>
</g>
<!-- 0&#45;&gt;2 -->
<g id="edge2" class="edge">
<title>0&#45;&gt;2</title>
<path fill="none" stroke="black" d="M185.61,-86.8C180.52,-74.78 173.63,-58.51 167.87,-44.92"/>
<polygon fill="black" stroke="black" points="171.05,-43.44 163.92,-35.6 164.6,-46.17 171.05,-43.44"/>
<text text-anchor="middle" x="191.4" y="-57.8" font-family="Times,serif" font-size="14.00">dep</text>
</g>
<!-- 3 -->
<g id="node4" class="node">
<title>3</title>
<ellipse fill="none" stroke="black" cx="228.9" cy="-18" rx="27" ry="18"/>
<text text-anchor="middle" x="228.9" y="-14.3" font-family="Times,serif" font-size="14.00">o</text>
</g>
<!-- 0&#45;&gt;3 -->
<g id="edge3" class="edge">
<title>0&#45;&gt;3</title>
<path fill="none" stroke="black" d="M200.18,-86.8C205.27,-74.78 212.16,-58.51 217.92,-44.92"/>
<polygon fill="black" stroke="black" points="221.19,-46.17 221.87,-35.6 214.74,-43.44 221.19,-46.17"/>
<text text-anchor="middle" x="227.4" y="-57.8" font-family="Times,serif" font-size="14.00">dep</text>
</g>
<!-- 4 -->
<g id="node5" class="node">
<title>4</title>
<ellipse fill="none" stroke="black" cx="309.9" cy="-18" rx="36" ry="18"/>
<text text-anchor="middle" x="309.9" y="-14.3" font-family="Times,serif" font-size="14.00">Porto</text>
</g>
<!-- 0&#45;&gt;4 -->
<g id="edge4" class="edge">
<title>0&#45;&gt;4</title>
<path fill="none" stroke="black" d="M217.45,-87.93C226.2,-82.09 236.06,-75.36 244.9,-69 257.82,-59.69 271.86,-48.98 283.57,-39.85"/>
<polygon fill="black" stroke="black" points="285.92,-42.46 291.64,-33.54 281.61,-36.95 285.92,-42.46"/>
<text text-anchor="middle" x="277.4" y="-57.8" font-family="Times,serif" font-size="14.00">dep</text>
</g>
</g>
</svg>
