<?xml version="1.0" encoding="UTF-8" standalone="no"?>
<!DOCTYPE svg PUBLIC "-//W3C//DTD SVG 1.1//EN"
 "http://www.w3.org/Graphics/SVG/1.1/DTD/svg11.dtd">
<!-- Generated by graphviz version 2.42.4 (0)
 -->
<!-- Pages: 1 -->
<svg width="2114pt" height="131pt"
 viewBox="0.00 0.00 2113.55 131.00" xmlns="http://www.w3.org/2000/svg" xmlns:xlink="http://www.w3.org/1999/xlink">
<g id="graph0" class="graph" transform="scale(1 1) rotate(0) translate(4 127)">
<polygon fill="white" stroke="transparent" points="-4,4 -4,-127 2109.55,-127 2109.55,4 -4,4"/>
<!-- 0 -->
<g id="node1" class="node">
<title>0</title>
<ellipse fill="none" stroke="black" cx="1077.55" cy="-105" rx="33.29" ry="18"/>
<text text-anchor="middle" x="1077.55" y="-101.3" font-family="Times,serif" font-size="14.00">Após</text>
</g>
<!-- 1 -->
<g id="node2" class="node">
<title>1</title>
<ellipse fill="none" stroke="black" cx="30.55" cy="-18" rx="30.59" ry="18"/>
<text text-anchor="middle" x="30.55" y="-14.3" font-family="Times,serif" font-size="14.00">esta</text>
</g>
<!-- 0&#45;&gt;1 -->
<g id="edge1" class="edge">
<title>0&#45;&gt;1</title>
<path fill="none" stroke="black" d="M1044.27,-103.45C906.58,-101.05 381,-90.62 216.55,-69 150.16,-60.27 133.19,-56.81 69.55,-36 67.44,-35.31 65.28,-34.55 63.13,-33.74"/>
<polygon fill="black" stroke="black" points="64.36,-30.46 53.78,-29.98 61.75,-36.96 64.36,-30.46"/>
<text text-anchor="middle" x="230.05" y="-57.8" font-family="Times,serif" font-size="14.00">dep</text>
</g>
<!-- 2 -->
<g id="node3" class="node">
<title>2</title>
<ellipse fill="none" stroke="black" cx="144.55" cy="-18" rx="65.79" ry="18"/>
<text text-anchor="middle" x="144.55" y="-14.3" font-family="Times,serif" font-size="14.00">intervenção</text>
</g>
<!-- 0&#45;&gt;2 -->
<g id="edge2" class="edge">
<title>0&#45;&gt;2</title>
<path fill="none" stroke="black" d="M1044.23,-103.62C915.52,-101.98 450.76,-94.41 305.55,-69 265.7,-62.03 221.96,-48.01 190.13,-36.59"/>
<polygon fill="black" stroke="black" points="191.25,-33.27 180.66,-33.14 188.86,-39.85 191.25,-33.27"/>
<text text-anchor="middle" x="319.05" y="-57.8" font-family="Times,serif" font-size="14.00">dep</text>
</g>
<!-- 3 -->
<g id="node4" class="node">
<title>3</title>
<ellipse fill="none" stroke="black" cx="255.55" cy="-18" rx="27" ry="18"/>
<text text-anchor="middle" x="255.55" y="-14.3" font-family="Times,serif" font-size="14.00">,</text>
</g>
<!-- 0&#45;&gt;3 -->
<g id="edge3" class="edge">
<title>0&#45;&gt;3</title>
<path fill="none" stroke="black" d="M1044.16,-103.53C924.37,-101.64 516.47,-93.51 388.55,-69 351.87,-61.97 312.05,-45.77 285.64,-33.7"/>
<polygon fill="black" stroke="black" points="287.09,-30.51 276.55,-29.46 284.14,-36.86 287.09,-30.51"/>
<text text-anchor="middle" x="402.05" y="-57.8" font-family="Times,serif" font-size="14.00">dep</text>
</g>
<!-- 4 -->
<g id="node5" class="node">
<title>4</title>
<ellipse fill="none" stroke="black" cx="327.55" cy="-18" rx="27" ry="18"/>
<text text-anchor="middle" x="327.55" y="-14.3" font-family="Times,serif" font-size="14.00">os</text>
</g>
<!-- 0&#45;&gt;4 -->
<g id="edge4" class="edge">
<title>0&#45;&gt;4</title>
<path fill="none" stroke="black" d="M1044.12,-104.17C954.52,-104.15 701.73,-101.03 494.55,-69 435.21,-59.83 420.07,-56.25 363.55,-36 361.69,-35.34 359.81,-34.61 357.91,-33.84"/>
<polygon fill="black" stroke="black" points="359.14,-30.56 348.58,-29.77 356.34,-36.97 359.14,-30.56"/>
<text text-anchor="middle" x="508.05" y="-57.8" font-family="Times,serif" font-size="14.00">dep</text>
</g>
<!-- 5 -->
<g id="node6" class="node">
<title>5</title>
<ellipse fill="none" stroke="black" cx="426.55" cy="-18" rx="53.89" ry="18"/>
<text text-anchor="middle" x="426.55" y="-14.3" font-family="Times,serif" font-size="14.00">membros</text>
</g>
<!-- 0&#45;&gt;5 -->
<g id="edge5" class="edge">
<title>0&#45;&gt;5</title>
<path fill="none" stroke="black" d="M1044.33,-104.43C963.91,-104.88 752.7,-102.49 580.55,-69 541.96,-61.49 499.56,-47.26 469.05,-35.9"/>
<polygon fill="black" stroke="black" points="470.17,-32.58 459.57,-32.32 467.69,-39.13 470.17,-32.58"/>
<text text-anchor="middle" x="594.05" y="-57.8" font-family="Times,serif" font-size="14.00">dep</text>
</g>
<!-- 6 -->
<g id="node7" class="node">
<title>6</title>
<ellipse fill="none" stroke="black" cx="525.55" cy="-18" rx="27" ry="18"/>
<text text-anchor="middle" x="525.55" y="-14.3" font-family="Times,serif" font-size="14.00">de</text>
</g>
<!-- 0&#45;&gt;6 -->
<g id="edge6" class="edge">
<title>0&#45;&gt;6</title>
<path fill="none" stroke="black" d="M1044.52,-103.37C975.19,-101.56 809.66,-94.68 673.55,-69 622.55,-59.38 610.04,-54.47 561.55,-36 559.71,-35.3 557.83,-34.54 555.95,-33.75"/>
<polygon fill="black" stroke="black" points="557.19,-30.48 546.63,-29.62 554.35,-36.88 557.19,-30.48"/>
<text text-anchor="middle" x="687.05" y="-57.8" font-family="Times,serif" font-size="14.00">dep</text>
</g>
<!-- 7 -->
<g id="node8" class="node">
<title>7</title>
<ellipse fill="none" stroke="black" cx="597.55" cy="-18" rx="27" ry="18"/>
<text text-anchor="middle" x="597.55" y="-14.3" font-family="Times,serif" font-size="14.00">a</text>
</g>
<!-- 0&#45;&gt;7 -->
<g id="edge7" class="edge">
<title>0&#45;&gt;7</title>
<path fill="none" stroke="black" d="M1044.61,-102.81C969.69,-99.27 781.57,-85.74 633.55,-36 631.63,-35.36 629.68,-34.64 627.73,-33.87"/>
<polygon fill="black" stroke="black" points="628.71,-30.48 618.15,-29.74 625.94,-36.91 628.71,-30.48"/>
<text text-anchor="middle" x="766.05" y="-57.8" font-family="Times,serif" font-size="14.00">dep</text>
</g>
<!-- 8 -->
<g id="node9" class="node">
<title>8</title>
<ellipse fill="none" stroke="black" cx="699.55" cy="-18" rx="57.39" ry="18"/>
<text text-anchor="middle" x="699.55" y="-14.3" font-family="Times,serif" font-size="14.00">expedição</text>
</g>
<!-- 0&#45;&gt;8 -->
<g id="edge8" class="edge">
<title>0&#45;&gt;8</title>
<path fill="none" stroke="black" d="M1045.8,-99.25C1006.89,-93.21 939.03,-82 881.55,-69 836.41,-58.79 785.69,-44.63 749.28,-33.98"/>
<polygon fill="black" stroke="black" points="749.99,-30.54 739.4,-31.08 748.01,-37.26 749.99,-30.54"/>
<text text-anchor="middle" x="895.05" y="-57.8" font-family="Times,serif" font-size="14.00">dep</text>
</g>
<!-- 9 -->
<g id="node10" class="node">
<title>9</title>
<ellipse fill="none" stroke="black" cx="828.55" cy="-18" rx="53.89" ry="18"/>
<text text-anchor="middle" x="828.55" y="-14.3" font-family="Times,serif" font-size="14.00">reuniram</text>
</g>
<!-- 0&#45;&gt;9 -->
<g id="edge9" class="edge">
<title>0&#45;&gt;9</title>
<path fill="none" stroke="black" d="M1047.74,-96.97C1021.59,-90.54 982.68,-80.33 949.55,-69 922.14,-59.63 892.03,-47.2 868.71,-37.07"/>
<polygon fill="black" stroke="black" points="870.04,-33.84 859.48,-33.04 867.23,-40.25 870.04,-33.84"/>
<text text-anchor="middle" x="963.05" y="-57.8" font-family="Times,serif" font-size="14.00">dep</text>
</g>
<!-- 10 -->
<g id="node11" class="node">
<title>10</title>
<ellipse fill="none" stroke="black" cx="927.55" cy="-18" rx="27" ry="18"/>
<text text-anchor="middle" x="927.55" y="-14.3" font-family="Times,serif" font-size="14.00">se</text>
</g>
<!-- 0&#45;&gt;10 -->
<g id="edge10" class="edge">
<title>0&#45;&gt;10</title>
<path fill="none" stroke="black" d="M1052.44,-93.18C1037.91,-86.66 1019.41,-77.91 1003.55,-69 986.44,-59.39 968.04,-47.33 953.63,-37.47"/>
<polygon fill="black" stroke="black" points="955.44,-34.46 945.22,-31.65 951.46,-40.22 955.44,-34.46"/>
<text text-anchor="middle" x="1017.05" y="-57.8" font-family="Times,serif" font-size="14.00">dep</text>
</g>
<!-- 11 -->
<g id="node12" class="node">
<title>11</title>
<ellipse fill="none" stroke="black" cx="1002.55" cy="-18" rx="29.8" ry="18"/>
<text text-anchor="middle" x="1002.55" y="-14.3" font-family="Times,serif" font-size="14.00">com</text>
</g>
<!-- 0&#45;&gt;11 -->
<g id="edge11" class="edge">
<title>0&#45;&gt;11</title>
<path fill="none" stroke="black" d="M1063.65,-88.33C1058.3,-82.29 1052.13,-75.33 1046.55,-69 1038.78,-60.2 1030.25,-50.51 1022.78,-42.03"/>
<polygon fill="black" stroke="black" points="1025.25,-39.53 1016.01,-34.33 1019.99,-44.15 1025.25,-39.53"/>
<text text-anchor="middle" x="1060.05" y="-57.8" font-family="Times,serif" font-size="14.00">dep</text>
</g>
<!-- 12 -->
<g id="node13" class="node">
<title>12</title>
<ellipse fill="none" stroke="black" cx="1077.55" cy="-18" rx="27" ry="18"/>
<text text-anchor="middle" x="1077.55" y="-14.3" font-family="Times,serif" font-size="14.00">a</text>
</g>
<!-- 0&#45;&gt;12 -->
<g id="edge12" class="edge">
<title>0&#45;&gt;12</title>
<path fill="none" stroke="black" d="M1077.55,-86.8C1077.55,-75.16 1077.55,-59.55 1077.55,-46.24"/>
<polygon fill="black" stroke="black" points="1081.05,-46.18 1077.55,-36.18 1074.05,-46.18 1081.05,-46.18"/>
<text text-anchor="middle" x="1091.05" y="-57.8" font-family="Times,serif" font-size="14.00">dep</text>
</g>
<!-- 13 -->
<g id="node14" class="node">
<title>13</title>
<ellipse fill="none" stroke="black" cx="1188.55" cy="-18" rx="66.09" ry="18"/>
<text text-anchor="middle" x="1188.55" y="-14.3" font-family="Times,serif" font-size="14.00">organização</text>
</g>
<!-- 0&#45;&gt;13 -->
<g id="edge13" class="edge">
<title>0&#45;&gt;13</title>
<path fill="none" stroke="black" d="M1095.88,-89.96C1113.2,-76.7 1139.45,-56.6 1159.6,-41.17"/>
<polygon fill="black" stroke="black" points="1161.73,-43.95 1167.54,-35.09 1157.47,-38.39 1161.73,-43.95"/>
<text text-anchor="middle" x="1154.05" y="-57.8" font-family="Times,serif" font-size="14.00">dep</text>
</g>
<!-- 14 -->
<g id="node15" class="node">
<title>14</title>
<ellipse fill="none" stroke="black" cx="1299.55" cy="-18" rx="27" ry="18"/>
<text text-anchor="middle" x="1299.55" y="-14.3" font-family="Times,serif" font-size="14.00">de</text>
</g>
<!-- 0&#45;&gt;14 -->
<g id="edge14" class="edge">
<title>0&#45;&gt;14</title>
<path fill="none" stroke="black" d="M1104.95,-94.85C1141.5,-82.46 1208.03,-59.2 1263.55,-36 1265.36,-35.24 1267.22,-34.44 1269.09,-33.62"/>
<polygon fill="black" stroke="black" points="1270.72,-36.72 1278.37,-29.39 1267.82,-30.35 1270.72,-36.72"/>
<text text-anchor="middle" x="1232.05" y="-57.8" font-family="Times,serif" font-size="14.00">dep</text>
</g>
<!-- 15 -->
<g id="node16" class="node">
<title>15</title>
<ellipse fill="none" stroke="black" cx="1371.55" cy="-18" rx="27" ry="18"/>
<text text-anchor="middle" x="1371.55" y="-14.3" font-family="Times,serif" font-size="14.00">a</text>
</g>
<!-- 0&#45;&gt;15 -->
<g id="edge15" class="edge">
<title>0&#45;&gt;15</title>
<path fill="none" stroke="black" d="M1109,-99.21C1143.78,-93.54 1201.27,-83.07 1249.55,-69 1288.85,-57.55 1297.9,-52.09 1335.55,-36 1337.36,-35.23 1339.21,-34.41 1341.08,-33.58"/>
<polygon fill="black" stroke="black" points="1342.71,-36.68 1350.35,-29.33 1339.8,-30.32 1342.71,-36.68"/>
<text text-anchor="middle" x="1307.05" y="-57.8" font-family="Times,serif" font-size="14.00">dep</text>
</g>
<!-- 16 -->
<g id="node17" class="node">
<title>16</title>
<ellipse fill="none" stroke="black" cx="1460.55" cy="-18" rx="44.39" ry="18"/>
<text text-anchor="middle" x="1460.55" y="-14.3" font-family="Times,serif" font-size="14.00">viagem</text>
</g>
<!-- 0&#45;&gt;16 -->
<g id="edge16" class="edge">
<title>0&#45;&gt;16</title>
<path fill="none" stroke="black" d="M1110.34,-101.57C1158.05,-97.55 1249.16,-87.97 1324.55,-69 1358.33,-60.5 1395.37,-46.56 1422.25,-35.56"/>
<polygon fill="black" stroke="black" points="1423.77,-38.72 1431.66,-31.65 1421.09,-32.25 1423.77,-38.72"/>
<text text-anchor="middle" x="1384.05" y="-57.8" font-family="Times,serif" font-size="14.00">dep</text>
</g>
<!-- 17 -->
<g id="node18" class="node">
<title>17</title>
<ellipse fill="none" stroke="black" cx="1554.55" cy="-18" rx="31.7" ry="18"/>
<text text-anchor="middle" x="1554.55" y="-14.3" font-family="Times,serif" font-size="14.00">para</text>
</g>
<!-- 0&#45;&gt;17 -->
<g id="edge17" class="edge">
<title>0&#45;&gt;17</title>
<path fill="none" stroke="black" d="M1110.49,-102.39C1169.39,-99.08 1296.41,-89.99 1401.55,-69 1452.44,-58.84 1464.62,-53.3 1513.55,-36 1515.82,-35.2 1518.14,-34.34 1520.47,-33.45"/>
<polygon fill="black" stroke="black" points="1521.99,-36.61 1530,-29.68 1519.41,-30.11 1521.99,-36.61"/>
<text text-anchor="middle" x="1476.05" y="-57.8" font-family="Times,serif" font-size="14.00">dep</text>
</g>
<!-- 18 -->
<g id="node19" class="node">
<title>18</title>
<ellipse fill="none" stroke="black" cx="1657.55" cy="-18" rx="53.09" ry="18"/>
<text text-anchor="middle" x="1657.55" y="-14.3" font-family="Times,serif" font-size="14.00">deliberar</text>
</g>
<!-- 0&#45;&gt;18 -->
<g id="edge18" class="edge">
<title>0&#45;&gt;18</title>
<path fill="none" stroke="black" d="M1110.77,-103.59C1181.7,-102.18 1352.98,-96.02 1493.55,-69 1535,-61.03 1580.86,-46.54 1613.52,-35.21"/>
<polygon fill="black" stroke="black" points="1614.94,-38.42 1623.21,-31.8 1612.62,-31.82 1614.94,-38.42"/>
<text text-anchor="middle" x="1567.05" y="-57.8" font-family="Times,serif" font-size="14.00">dep</text>
</g>
<!-- 19 -->
<g id="node20" class="node">
<title>19</title>
<ellipse fill="none" stroke="black" cx="1765.55" cy="-18" rx="36.29" ry="18"/>
<text text-anchor="middle" x="1765.55" y="-14.3" font-family="Times,serif" font-size="14.00">sobre</text>
</g>
<!-- 0&#45;&gt;19 -->
<g id="edge19" class="edge">
<title>0&#45;&gt;19</title>
<path fill="none" stroke="black" d="M1110.68,-103.67C1191.94,-102.42 1407.35,-96.57 1584.55,-69 1645.58,-59.51 1660.48,-54.07 1719.55,-36 1722.47,-35.11 1725.47,-34.13 1728.47,-33.11"/>
<polygon fill="black" stroke="black" points="1729.72,-36.39 1737.99,-29.77 1727.4,-29.78 1729.72,-36.39"/>
<text text-anchor="middle" x="1671.05" y="-57.8" font-family="Times,serif" font-size="14.00">dep</text>
</g>
<!-- 20 -->
<g id="node21" class="node">
<title>20</title>
<ellipse fill="none" stroke="black" cx="1846.55" cy="-18" rx="27" ry="18"/>
<text text-anchor="middle" x="1846.55" y="-14.3" font-family="Times,serif" font-size="14.00">o</text>
</g>
<!-- 0&#45;&gt;20 -->
<g id="edge20" class="edge">
<title>0&#45;&gt;20</title>
<path fill="none" stroke="black" d="M1110.93,-104.5C1203.38,-105.37 1470.39,-104.36 1688.55,-69 1743.99,-60.01 1757.83,-55.4 1810.55,-36 1812.4,-35.32 1814.28,-34.58 1816.17,-33.8"/>
<polygon fill="black" stroke="black" points="1817.75,-36.93 1825.49,-29.7 1814.93,-30.52 1817.75,-36.93"/>
<text text-anchor="middle" x="1773.05" y="-57.8" font-family="Times,serif" font-size="14.00">dep</text>
</g>
<!-- 21 -->
<g id="node22" class="node">
<title>21</title>
<ellipse fill="none" stroke="black" cx="1919.55" cy="-18" rx="27.9" ry="18"/>
<text text-anchor="middle" x="1919.55" y="-14.3" font-family="Times,serif" font-size="14.00">que</text>
</g>
<!-- 0&#45;&gt;21 -->
<g id="edge21" class="edge">
<title>0&#45;&gt;21</title>
<path fill="none" stroke="black" d="M1110.83,-103.67C1233.21,-102.23 1657.91,-95.43 1790.55,-69 1825.64,-62.01 1863.57,-46.22 1889.16,-34.24"/>
<polygon fill="black" stroke="black" points="1890.81,-37.33 1898.33,-29.87 1887.79,-31.02 1890.81,-37.33"/>
<text text-anchor="middle" x="1855.05" y="-57.8" font-family="Times,serif" font-size="14.00">dep</text>
</g>
<!-- 22 -->
<g id="node23" class="node">
<title>22</title>
<ellipse fill="none" stroke="black" cx="1999.55" cy="-18" rx="34.39" ry="18"/>
<text text-anchor="middle" x="1999.55" y="-14.3" font-family="Times,serif" font-size="14.00">fazer</text>
</g>
<!-- 0&#45;&gt;22 -->
<g id="edge22" class="edge">
<title>0&#45;&gt;22</title>
<path fill="none" stroke="black" d="M1111.02,-103.99C1242.52,-103.73 1723.72,-100.59 1872.55,-69 1905.64,-61.98 1941.32,-47.24 1966.41,-35.57"/>
<polygon fill="black" stroke="black" points="1967.94,-38.72 1975.48,-31.27 1964.94,-32.39 1967.94,-38.72"/>
<text text-anchor="middle" x="1933.05" y="-57.8" font-family="Times,serif" font-size="14.00">dep</text>
</g>
<!-- 23 -->
<g id="node24" class="node">
<title>23</title>
<ellipse fill="none" stroke="black" cx="2078.55" cy="-18" rx="27" ry="18"/>
<text text-anchor="middle" x="2078.55" y="-14.3" font-family="Times,serif" font-size="14.00">.</text>
</g>
<!-- 0&#45;&gt;23 -->
<g id="edge23" class="edge">
<title>0&#45;&gt;23</title>
<path fill="none" stroke="black" d="M1110.91,-104.01C1250.14,-103.87 1785.28,-101.17 1950.55,-69 1985.64,-62.17 2023.51,-46.2 2048.88,-34.14"/>
<polygon fill="black" stroke="black" points="2050.49,-37.25 2057.96,-29.73 2047.43,-30.95 2050.49,-37.25"/>
<text text-anchor="middle" x="2015.05" y="-57.8" font-family="Times,serif" font-size="14.00">dep</text>
</g>
</g>
</svg>
