<?xml version="1.0" encoding="UTF-8" standalone="no"?>
<!DOCTYPE svg PUBLIC "-//W3C//DTD SVG 1.1//EN"
 "http://www.w3.org/Graphics/SVG/1.1/DTD/svg11.dtd">
<!-- Generated by graphviz version 2.42.4 (0)
 -->
<!-- Pages: 1 -->
<svg width="724pt" height="131pt"
 viewBox="0.00 0.00 724.25 131.00" xmlns="http://www.w3.org/2000/svg" xmlns:xlink="http://www.w3.org/1999/xlink">
<g id="graph0" class="graph" transform="scale(1 1) rotate(0) translate(4 127)">
<polygon fill="white" stroke="transparent" points="-4,4 -4,-127 720.25,-127 720.25,4 -4,4"/>
<!-- 0 -->
<g id="node1" class="node">
<title>0</title>
<ellipse fill="none" stroke="black" cx="384.25" cy="-105" rx="27" ry="18"/>
<text text-anchor="middle" x="384.25" y="-101.3" font-family="Times,serif" font-size="14.00">A</text>
</g>
<!-- 1 -->
<g id="node2" class="node">
<title>1</title>
<ellipse fill="none" stroke="black" cx="42.25" cy="-18" rx="42.49" ry="18"/>
<text text-anchor="middle" x="42.25" y="-14.3" font-family="Times,serif" font-size="14.00">equipe</text>
</g>
<!-- 0&#45;&gt;1 -->
<g id="edge1" class="edge">
<title>0&#45;&gt;1</title>
<path fill="none" stroke="black" d="M358.05,-100.37C321.02,-94.97 251.39,-83.85 193.25,-69 147.9,-57.42 137.67,-50.73 93.25,-36 90.19,-34.99 87.03,-33.94 83.85,-32.88"/>
<polygon fill="black" stroke="black" points="84.94,-29.55 74.34,-29.72 82.73,-36.19 84.94,-29.55"/>
<text text-anchor="middle" x="206.75" y="-57.8" font-family="Times,serif" font-size="14.00">dep</text>
</g>
<!-- 2 -->
<g id="node3" class="node">
<title>2</title>
<ellipse fill="none" stroke="black" cx="133.25" cy="-18" rx="30.59" ry="18"/>
<text text-anchor="middle" x="133.25" y="-14.3" font-family="Times,serif" font-size="14.00">vem</text>
</g>
<!-- 0&#45;&gt;2 -->
<g id="edge2" class="edge">
<title>0&#45;&gt;2</title>
<path fill="none" stroke="black" d="M359.78,-97.12C319.99,-85.72 239.01,-61.62 172.25,-36 170.38,-35.29 168.48,-34.53 166.57,-33.76"/>
<polygon fill="black" stroke="black" points="167.61,-30.4 157.03,-29.77 164.91,-36.86 167.61,-30.4"/>
<text text-anchor="middle" x="278.75" y="-57.8" font-family="Times,serif" font-size="14.00">dep</text>
</g>
<!-- 3 -->
<g id="node4" class="node">
<title>3</title>
<ellipse fill="none" stroke="black" cx="237.25" cy="-18" rx="55.79" ry="18"/>
<text text-anchor="middle" x="237.25" y="-14.3" font-family="Times,serif" font-size="14.00">treinando</text>
</g>
<!-- 0&#45;&gt;3 -->
<g id="edge3" class="edge">
<title>0&#45;&gt;3</title>
<path fill="none" stroke="black" d="M364.42,-92.54C340.8,-78.88 300.92,-55.82 272.11,-39.16"/>
<polygon fill="black" stroke="black" points="273.59,-35.97 263.18,-34 270.09,-42.03 273.59,-35.97"/>
<text text-anchor="middle" x="333.75" y="-57.8" font-family="Times,serif" font-size="14.00">dep</text>
</g>
<!-- 4 -->
<g id="node5" class="node">
<title>4</title>
<ellipse fill="none" stroke="black" cx="345.25" cy="-18" rx="34.39" ry="18"/>
<text text-anchor="middle" x="345.25" y="-14.3" font-family="Times,serif" font-size="14.00">junta</text>
</g>
<!-- 0&#45;&gt;4 -->
<g id="edge4" class="edge">
<title>0&#45;&gt;4</title>
<path fill="none" stroke="black" d="M376.73,-87.61C371.15,-75.46 363.44,-58.66 357.05,-44.73"/>
<polygon fill="black" stroke="black" points="360.23,-43.26 352.88,-35.63 353.86,-46.18 360.23,-43.26"/>
<text text-anchor="middle" x="380.75" y="-57.8" font-family="Times,serif" font-size="14.00">dep</text>
</g>
<!-- 5 -->
<g id="node6" class="node">
<title>5</title>
<ellipse fill="none" stroke="black" cx="424.25" cy="-18" rx="27" ry="18"/>
<text text-anchor="middle" x="424.25" y="-14.3" font-family="Times,serif" font-size="14.00">há</text>
</g>
<!-- 0&#45;&gt;5 -->
<g id="edge5" class="edge">
<title>0&#45;&gt;5</title>
<path fill="none" stroke="black" d="M391.96,-87.61C397.71,-75.38 405.68,-58.44 412.27,-44.46"/>
<polygon fill="black" stroke="black" points="415.47,-45.88 416.56,-35.34 409.13,-42.9 415.47,-45.88"/>
<text text-anchor="middle" x="420.75" y="-57.8" font-family="Times,serif" font-size="14.00">dep</text>
</g>
<!-- 6 -->
<g id="node7" class="node">
<title>6</title>
<ellipse fill="none" stroke="black" cx="507.25" cy="-18" rx="38.19" ry="18"/>
<text text-anchor="middle" x="507.25" y="-14.3" font-family="Times,serif" font-size="14.00">pouco</text>
</g>
<!-- 0&#45;&gt;6 -->
<g id="edge6" class="edge">
<title>0&#45;&gt;6</title>
<path fill="none" stroke="black" d="M403.15,-92.09C413.58,-85.43 426.73,-76.9 438.25,-69 451.93,-59.62 466.86,-48.86 479.32,-39.74"/>
<polygon fill="black" stroke="black" points="481.53,-42.46 487.51,-33.72 477.38,-36.82 481.53,-42.46"/>
<text text-anchor="middle" x="473.75" y="-57.8" font-family="Times,serif" font-size="14.00">dep</text>
</g>
<!-- 7 -->
<g id="node8" class="node">
<title>7</title>
<ellipse fill="none" stroke="black" cx="604.25" cy="-18" rx="40.09" ry="18"/>
<text text-anchor="middle" x="604.25" y="-14.3" font-family="Times,serif" font-size="14.00">tempo</text>
</g>
<!-- 0&#45;&gt;7 -->
<g id="edge7" class="edge">
<title>0&#45;&gt;7</title>
<path fill="none" stroke="black" d="M408.71,-96.76C430.56,-90.12 463.33,-79.71 491.25,-69 517.42,-58.96 546.31,-46.14 568.33,-36"/>
<polygon fill="black" stroke="black" points="570.02,-39.07 577.62,-31.69 567.08,-32.72 570.02,-39.07"/>
<text text-anchor="middle" x="539.75" y="-57.8" font-family="Times,serif" font-size="14.00">dep</text>
</g>
<!-- 8 -->
<g id="node9" class="node">
<title>8</title>
<ellipse fill="none" stroke="black" cx="689.25" cy="-18" rx="27" ry="18"/>
<text text-anchor="middle" x="689.25" y="-14.3" font-family="Times,serif" font-size="14.00">.</text>
</g>
<!-- 0&#45;&gt;8 -->
<g id="edge8" class="edge">
<title>0&#45;&gt;8</title>
<path fill="none" stroke="black" d="M410.29,-99.83C444.36,-94.13 505.79,-82.98 557.25,-69 600.78,-57.17 611.45,-52.99 653.25,-36 655.07,-35.26 656.94,-34.47 658.81,-33.66"/>
<polygon fill="black" stroke="black" points="660.43,-36.77 668.1,-29.46 657.54,-30.39 660.43,-36.77"/>
<text text-anchor="middle" x="619.75" y="-57.8" font-family="Times,serif" font-size="14.00">dep</text>
</g>
</g>
</svg>
