<?xml version="1.0" encoding="UTF-8" standalone="no"?>
<!DOCTYPE svg PUBLIC "-//W3C//DTD SVG 1.1//EN"
 "http://www.w3.org/Graphics/SVG/1.1/DTD/svg11.dtd">
<!-- Generated by graphviz version 2.42.4 (0)
 -->
<!-- Pages: 1 -->
<svg width="2168pt" height="131pt"
 viewBox="0.00 0.00 2168.30 131.00" xmlns="http://www.w3.org/2000/svg" xmlns:xlink="http://www.w3.org/1999/xlink">
<g id="graph0" class="graph" transform="scale(1 1) rotate(0) translate(4 127)">
<polygon fill="white" stroke="transparent" points="-4,4 -4,-127 2164.3,-127 2164.3,4 -4,4"/>
<!-- 0 -->
<g id="node1" class="node">
<title>0</title>
<ellipse fill="none" stroke="black" cx="1090.3" cy="-105" rx="27" ry="18"/>
<text text-anchor="middle" x="1090.3" y="-101.3" font-family="Times,serif" font-size="14.00">«</text>
</g>
<!-- 1 -->
<g id="node2" class="node">
<title>1</title>
<ellipse fill="none" stroke="black" cx="27.3" cy="-18" rx="27.1" ry="18"/>
<text text-anchor="middle" x="27.3" y="-14.3" font-family="Times,serif" font-size="14.00">Um</text>
</g>
<!-- 0&#45;&gt;1 -->
<g id="edge1" class="edge">
<title>0&#45;&gt;1</title>
<path fill="none" stroke="black" d="M1063.22,-103.76C932.15,-102.46 362.61,-95.39 187.3,-69 130.9,-60.51 116.86,-55.59 63.3,-36 61.45,-35.32 59.56,-34.59 57.68,-33.81"/>
<polygon fill="black" stroke="black" points="58.91,-30.53 48.35,-29.72 56.1,-36.94 58.91,-30.53"/>
<text text-anchor="middle" x="200.8" y="-57.8" font-family="Times,serif" font-size="14.00">dep</text>
</g>
<!-- 2 -->
<g id="node3" class="node">
<title>2</title>
<ellipse fill="none" stroke="black" cx="119.3" cy="-18" rx="46.59" ry="18"/>
<text text-anchor="middle" x="119.3" y="-14.3" font-family="Times,serif" font-size="14.00">turismo</text>
</g>
<!-- 0&#45;&gt;2 -->
<g id="edge2" class="edge">
<title>0&#45;&gt;2</title>
<path fill="none" stroke="black" d="M1062.98,-103.81C939.26,-102.82 430.79,-97.07 274.3,-69 234.37,-61.84 190.51,-47 159.67,-35.34"/>
<polygon fill="black" stroke="black" points="160.72,-31.99 150.13,-31.68 158.22,-38.53 160.72,-31.99"/>
<text text-anchor="middle" x="287.8" y="-57.8" font-family="Times,serif" font-size="14.00">dep</text>
</g>
<!-- 3 -->
<g id="node4" class="node">
<title>3</title>
<ellipse fill="none" stroke="black" cx="212.3" cy="-18" rx="27.9" ry="18"/>
<text text-anchor="middle" x="212.3" y="-14.3" font-family="Times,serif" font-size="14.00">que</text>
</g>
<!-- 0&#45;&gt;3 -->
<g id="edge3" class="edge">
<title>0&#45;&gt;3</title>
<path fill="none" stroke="black" d="M1063.22,-103.38C950.22,-100.69 515.79,-89.2 380.3,-69 320.91,-60.15 305.93,-55.95 249.3,-36 247.4,-35.33 245.46,-34.6 243.52,-33.83"/>
<polygon fill="black" stroke="black" points="244.51,-30.44 233.94,-29.75 241.76,-36.88 244.51,-30.44"/>
<text text-anchor="middle" x="393.8" y="-57.8" font-family="Times,serif" font-size="14.00">dep</text>
</g>
<!-- 4 -->
<g id="node5" class="node">
<title>4</title>
<ellipse fill="none" stroke="black" cx="309.3" cy="-18" rx="51.19" ry="18"/>
<text text-anchor="middle" x="309.3" y="-14.3" font-family="Times,serif" font-size="14.00">promova</text>
</g>
<!-- 0&#45;&gt;4 -->
<g id="edge4" class="edge">
<title>0&#45;&gt;4</title>
<path fill="none" stroke="black" d="M1063.09,-103.37C958.87,-100.81 585.07,-90.3 468.3,-69 427.79,-61.61 383.2,-46.99 351.57,-35.46"/>
<polygon fill="black" stroke="black" points="352.78,-32.18 342.19,-31.99 350.36,-38.74 352.78,-32.18"/>
<text text-anchor="middle" x="481.8" y="-57.8" font-family="Times,serif" font-size="14.00">dep</text>
</g>
<!-- 5 -->
<g id="node6" class="node">
<title>5</title>
<ellipse fill="none" stroke="black" cx="405.3" cy="-18" rx="27" ry="18"/>
<text text-anchor="middle" x="405.3" y="-14.3" font-family="Times,serif" font-size="14.00">a</text>
</g>
<!-- 0&#45;&gt;5 -->
<g id="edge5" class="edge">
<title>0&#45;&gt;5</title>
<path fill="none" stroke="black" d="M1063.15,-103.66C986.91,-102.39 764.57,-96.43 582.3,-69 518.65,-59.42 502.07,-57.19 441.3,-36 439.39,-35.33 437.45,-34.6 435.5,-33.82"/>
<polygon fill="black" stroke="black" points="436.49,-30.43 425.92,-29.65 433.7,-36.85 436.49,-30.43"/>
<text text-anchor="middle" x="595.8" y="-57.8" font-family="Times,serif" font-size="14.00">dep</text>
</g>
<!-- 6 -->
<g id="node7" class="node">
<title>6</title>
<ellipse fill="none" stroke="black" cx="512.3" cy="-18" rx="61.99" ry="18"/>
<text text-anchor="middle" x="512.3" y="-14.3" font-family="Times,serif" font-size="14.00">descoberta</text>
</g>
<!-- 0&#45;&gt;6 -->
<g id="edge6" class="edge">
<title>0&#45;&gt;6</title>
<path fill="none" stroke="black" d="M1062.98,-103.82C995.61,-102.94 816.38,-97.82 670.3,-69 631.46,-61.34 588.72,-47.46 557.5,-36.27"/>
<polygon fill="black" stroke="black" points="558.38,-32.87 547.78,-32.74 555.99,-39.45 558.38,-32.87"/>
<text text-anchor="middle" x="683.8" y="-57.8" font-family="Times,serif" font-size="14.00">dep</text>
</g>
<!-- 7 -->
<g id="node8" class="node">
<title>7</title>
<ellipse fill="none" stroke="black" cx="619.3" cy="-18" rx="27" ry="18"/>
<text text-anchor="middle" x="619.3" y="-14.3" font-family="Times,serif" font-size="14.00">de</text>
</g>
<!-- 0&#45;&gt;7 -->
<g id="edge7" class="edge">
<title>0&#45;&gt;7</title>
<path fill="none" stroke="black" d="M1063.42,-103.18C1006.03,-101.01 867.52,-93.46 754.3,-69 708.96,-59.21 698.34,-53.27 655.3,-36 653.47,-35.27 651.6,-34.49 649.73,-33.68"/>
<polygon fill="black" stroke="black" points="650.99,-30.41 640.43,-29.49 648.11,-36.79 650.99,-30.41"/>
<text text-anchor="middle" x="767.8" y="-57.8" font-family="Times,serif" font-size="14.00">dep</text>
</g>
<!-- 8 -->
<g id="node9" class="node">
<title>8</title>
<ellipse fill="none" stroke="black" cx="691.3" cy="-18" rx="27" ry="18"/>
<text text-anchor="middle" x="691.3" y="-14.3" font-family="Times,serif" font-size="14.00">a</text>
</g>
<!-- 0&#45;&gt;8 -->
<g id="edge8" class="edge">
<title>0&#45;&gt;8</title>
<path fill="none" stroke="black" d="M1063.49,-102.15C1002.17,-97.25 847.7,-81.05 727.3,-36 725.45,-35.31 723.57,-34.56 721.69,-33.78"/>
<polygon fill="black" stroke="black" points="722.93,-30.5 712.37,-29.66 720.1,-36.9 722.93,-30.5"/>
<text text-anchor="middle" x="847.8" y="-57.8" font-family="Times,serif" font-size="14.00">dep</text>
</g>
<!-- 9 -->
<g id="node10" class="node">
<title>9</title>
<ellipse fill="none" stroke="black" cx="790.3" cy="-18" rx="53.89" ry="18"/>
<text text-anchor="middle" x="790.3" y="-14.3" font-family="Times,serif" font-size="14.00">diferença</text>
</g>
<!-- 0&#45;&gt;9 -->
<g id="edge9" class="edge">
<title>0&#45;&gt;9</title>
<path fill="none" stroke="black" d="M1064.16,-100.18C1029.98,-94.85 968.43,-84.11 917.3,-69 887.61,-60.23 855.14,-47.38 830.47,-36.91"/>
<polygon fill="black" stroke="black" points="831.65,-33.61 821.08,-32.88 828.89,-40.04 831.65,-33.61"/>
<text text-anchor="middle" x="930.8" y="-57.8" font-family="Times,serif" font-size="14.00">dep</text>
</g>
<!-- 10 -->
<g id="node11" class="node">
<title>10</title>
<ellipse fill="none" stroke="black" cx="889.3" cy="-18" rx="27" ry="18"/>
<text text-anchor="middle" x="889.3" y="-14.3" font-family="Times,serif" font-size="14.00">e</text>
</g>
<!-- 0&#45;&gt;10 -->
<g id="edge10" class="edge">
<title>0&#45;&gt;10</title>
<path fill="none" stroke="black" d="M1065.05,-97.86C1041.77,-91.81 1006.51,-81.65 977.3,-69 956.21,-59.87 933.7,-47.02 916.73,-36.63"/>
<polygon fill="black" stroke="black" points="918.25,-33.46 907.91,-31.15 914.56,-39.41 918.25,-33.46"/>
<text text-anchor="middle" x="990.8" y="-57.8" font-family="Times,serif" font-size="14.00">dep</text>
</g>
<!-- 11 -->
<g id="node12" class="node">
<title>11</title>
<ellipse fill="none" stroke="black" cx="961.3" cy="-18" rx="27.1" ry="18"/>
<text text-anchor="middle" x="961.3" y="-14.3" font-family="Times,serif" font-size="14.00">não</text>
</g>
<!-- 0&#45;&gt;11 -->
<g id="edge11" class="edge">
<title>0&#45;&gt;11</title>
<path fill="none" stroke="black" d="M1069.52,-93.13C1057.3,-86.52 1041.66,-77.71 1028.3,-69 1013.87,-59.6 998.43,-48.18 986.01,-38.62"/>
<polygon fill="black" stroke="black" points="987.99,-35.73 977.94,-32.35 983.69,-41.25 987.99,-35.73"/>
<text text-anchor="middle" x="1041.8" y="-57.8" font-family="Times,serif" font-size="14.00">dep</text>
</g>
<!-- 12 -->
<g id="node13" class="node">
<title>12</title>
<ellipse fill="none" stroke="black" cx="1033.3" cy="-18" rx="27" ry="18"/>
<text text-anchor="middle" x="1033.3" y="-14.3" font-family="Times,serif" font-size="14.00">a</text>
</g>
<!-- 0&#45;&gt;12 -->
<g id="edge12" class="edge">
<title>0&#45;&gt;12</title>
<path fill="none" stroke="black" d="M1079.58,-88.01C1071.08,-75.35 1059.08,-57.45 1049.43,-43.06"/>
<polygon fill="black" stroke="black" points="1052.25,-40.99 1043.78,-34.63 1046.44,-44.88 1052.25,-40.99"/>
<text text-anchor="middle" x="1078.8" y="-57.8" font-family="Times,serif" font-size="14.00">dep</text>
</g>
<!-- 13 -->
<g id="node14" class="node">
<title>13</title>
<ellipse fill="none" stroke="black" cx="1148.3" cy="-18" rx="69.59" ry="18"/>
<text text-anchor="middle" x="1148.3" y="-14.3" font-family="Times,serif" font-size="14.00">massificação</text>
</g>
<!-- 0&#45;&gt;13 -->
<g id="edge13" class="edge">
<title>0&#45;&gt;13</title>
<path fill="none" stroke="black" d="M1100.94,-88.41C1109.33,-76.11 1121.21,-58.69 1130.98,-44.38"/>
<polygon fill="black" stroke="black" points="1133.99,-46.18 1136.73,-35.95 1128.2,-42.24 1133.99,-46.18"/>
<text text-anchor="middle" x="1136.8" y="-57.8" font-family="Times,serif" font-size="14.00">dep</text>
</g>
<!-- 14 -->
<g id="node15" class="node">
<title>14</title>
<ellipse fill="none" stroke="black" cx="1263.3" cy="-18" rx="27" ry="18"/>
<text text-anchor="middle" x="1263.3" y="-14.3" font-family="Times,serif" font-size="14.00">»</text>
</g>
<!-- 0&#45;&gt;14 -->
<g id="edge14" class="edge">
<title>0&#45;&gt;14</title>
<path fill="none" stroke="black" d="M1111.51,-93.58C1141.94,-78.62 1198.15,-51.01 1232.97,-33.9"/>
<polygon fill="black" stroke="black" points="1234.75,-36.93 1242.18,-29.37 1231.66,-30.64 1234.75,-36.93"/>
<text text-anchor="middle" x="1200.8" y="-57.8" font-family="Times,serif" font-size="14.00">dep</text>
</g>
<!-- 15 -->
<g id="node16" class="node">
<title>15</title>
<ellipse fill="none" stroke="black" cx="1335.3" cy="-18" rx="27" ry="18"/>
<text text-anchor="middle" x="1335.3" y="-14.3" font-family="Times,serif" font-size="14.00">,</text>
</g>
<!-- 0&#45;&gt;15 -->
<g id="edge15" class="edge">
<title>0&#45;&gt;15</title>
<path fill="none" stroke="black" d="M1115.58,-98.04C1141.6,-91.68 1183.17,-80.91 1218.3,-69 1255.11,-56.52 1263.71,-51.64 1299.3,-36 1301.1,-35.21 1302.95,-34.38 1304.81,-33.54"/>
<polygon fill="black" stroke="black" points="1306.46,-36.63 1314.06,-29.26 1303.52,-30.28 1306.46,-36.63"/>
<text text-anchor="middle" x="1271.8" y="-57.8" font-family="Times,serif" font-size="14.00">dep</text>
</g>
<!-- 16 -->
<g id="node17" class="node">
<title>16</title>
<ellipse fill="none" stroke="black" cx="1407.3" cy="-18" rx="27" ry="18"/>
<text text-anchor="middle" x="1407.3" y="-14.3" font-family="Times,serif" font-size="14.00">diz</text>
</g>
<!-- 0&#45;&gt;16 -->
<g id="edge16" class="edge">
<title>0&#45;&gt;16</title>
<path fill="none" stroke="black" d="M1116.77,-101.13C1155.28,-96.55 1228.75,-86.3 1289.3,-69 1327.07,-58.21 1335.3,-51.73 1371.3,-36 1373.1,-35.21 1374.95,-34.39 1376.81,-33.55"/>
<polygon fill="black" stroke="black" points="1378.46,-36.64 1386.07,-29.28 1375.53,-30.29 1378.46,-36.64"/>
<text text-anchor="middle" x="1344.8" y="-57.8" font-family="Times,serif" font-size="14.00">dep</text>
</g>
<!-- 17 -->
<g id="node18" class="node">
<title>17</title>
<ellipse fill="none" stroke="black" cx="1502.3" cy="-18" rx="50.09" ry="18"/>
<text text-anchor="middle" x="1502.3" y="-14.3" font-family="Times,serif" font-size="14.00">Andrade</text>
</g>
<!-- 0&#45;&gt;17 -->
<g id="edge17" class="edge">
<title>0&#45;&gt;17</title>
<path fill="none" stroke="black" d="M1117.28,-102.45C1166.55,-99.21 1274.1,-90.16 1362.3,-69 1396.76,-60.73 1434.53,-46.95 1462.14,-35.94"/>
<polygon fill="black" stroke="black" points="1463.5,-39.17 1471.47,-32.18 1460.88,-32.68 1463.5,-39.17"/>
<text text-anchor="middle" x="1426.8" y="-57.8" font-family="Times,serif" font-size="14.00">dep</text>
</g>
<!-- 18 -->
<g id="node19" class="node">
<title>18</title>
<ellipse fill="none" stroke="black" cx="1612.3" cy="-18" rx="42.49" ry="18"/>
<text text-anchor="middle" x="1612.3" y="-14.3" font-family="Times,serif" font-size="14.00">Santos</text>
</g>
<!-- 0&#45;&gt;18 -->
<g id="edge18" class="edge">
<title>0&#45;&gt;18</title>
<path fill="none" stroke="black" d="M1117.17,-102.96C1176.61,-100.31 1323.54,-91.82 1444.3,-69 1488.66,-60.62 1538.02,-45.16 1571.7,-33.64"/>
<polygon fill="black" stroke="black" points="1572.88,-36.93 1581.19,-30.36 1570.59,-30.32 1572.88,-36.93"/>
<text text-anchor="middle" x="1518.8" y="-57.8" font-family="Times,serif" font-size="14.00">dep</text>
</g>
<!-- 19 -->
<g id="node20" class="node">
<title>19</title>
<ellipse fill="none" stroke="black" cx="1699.3" cy="-18" rx="27" ry="18"/>
<text text-anchor="middle" x="1699.3" y="-14.3" font-family="Times,serif" font-size="14.00">,</text>
</g>
<!-- 0&#45;&gt;19 -->
<g id="edge19" class="edge">
<title>0&#45;&gt;19</title>
<path fill="none" stroke="black" d="M1117.4,-103.53C1187.27,-101.96 1379.08,-95.38 1536.3,-69 1593.81,-59.35 1608.47,-55.87 1663.3,-36 1665.15,-35.33 1667.04,-34.6 1668.92,-33.82"/>
<polygon fill="black" stroke="black" points="1670.5,-36.96 1678.26,-29.74 1667.69,-30.54 1670.5,-36.96"/>
<text text-anchor="middle" x="1623.8" y="-57.8" font-family="Times,serif" font-size="14.00">dep</text>
</g>
<!-- 20 -->
<g id="node21" class="node">
<title>20</title>
<ellipse fill="none" stroke="black" cx="1804.3" cy="-18" rx="60.39" ry="18"/>
<text text-anchor="middle" x="1804.3" y="-14.3" font-family="Times,serif" font-size="14.00">presidente</text>
</g>
<!-- 0&#45;&gt;20 -->
<g id="edge20" class="edge">
<title>0&#45;&gt;20</title>
<path fill="none" stroke="black" d="M1117.52,-104.51C1198.2,-105.54 1442.81,-105.23 1641.3,-69 1681.94,-61.58 1726.71,-47.39 1759.03,-36.02"/>
<polygon fill="black" stroke="black" points="1760.4,-39.25 1768.65,-32.59 1758.05,-32.65 1760.4,-39.25"/>
<text text-anchor="middle" x="1714.8" y="-57.8" font-family="Times,serif" font-size="14.00">dep</text>
</g>
<!-- 21 -->
<g id="node22" class="node">
<title>21</title>
<ellipse fill="none" stroke="black" cx="1909.3" cy="-18" rx="27" ry="18"/>
<text text-anchor="middle" x="1909.3" y="-14.3" font-family="Times,serif" font-size="14.00">de</text>
</g>
<!-- 0&#45;&gt;21 -->
<g id="edge21" class="edge">
<title>0&#45;&gt;21</title>
<path fill="none" stroke="black" d="M1117.37,-104.22C1206.08,-104.56 1495.83,-102.85 1732.3,-69 1796.01,-59.88 1812.53,-57.19 1873.3,-36 1875.21,-35.33 1877.15,-34.6 1879.09,-33.82"/>
<polygon fill="black" stroke="black" points="1880.9,-36.85 1888.67,-29.65 1878.1,-30.43 1880.9,-36.85"/>
<text text-anchor="middle" x="1829.8" y="-57.8" font-family="Times,serif" font-size="14.00">dep</text>
</g>
<!-- 22 -->
<g id="node23" class="node">
<title>22</title>
<ellipse fill="none" stroke="black" cx="1981.3" cy="-18" rx="27" ry="18"/>
<text text-anchor="middle" x="1981.3" y="-14.3" font-family="Times,serif" font-size="14.00">a</text>
</g>
<!-- 0&#45;&gt;22 -->
<g id="edge22" class="edge">
<title>0&#45;&gt;22</title>
<path fill="none" stroke="black" d="M1117.6,-103.75C1235.71,-102.53 1703.12,-96.06 1847.3,-69 1884.25,-62.07 1924.36,-45.84 1950.97,-33.75"/>
<polygon fill="black" stroke="black" points="1952.54,-36.88 1960.14,-29.5 1949.59,-30.53 1952.54,-36.88"/>
<text text-anchor="middle" x="1913.8" y="-57.8" font-family="Times,serif" font-size="14.00">dep</text>
</g>
<!-- 23 -->
<g id="node24" class="node">
<title>23</title>
<ellipse fill="none" stroke="black" cx="2057.3" cy="-18" rx="30.59" ry="18"/>
<text text-anchor="middle" x="2057.3" y="-14.3" font-family="Times,serif" font-size="14.00">RTE</text>
</g>
<!-- 0&#45;&gt;23 -->
<g id="edge23" class="edge">
<title>0&#45;&gt;23</title>
<path fill="none" stroke="black" d="M1117.64,-104.05C1243.83,-104.1 1770.49,-102.27 1931.3,-69 1964.87,-62.06 2001.03,-46.83 2025.96,-34.99"/>
<polygon fill="black" stroke="black" points="2027.79,-37.99 2035.27,-30.48 2024.74,-31.69 2027.79,-37.99"/>
<text text-anchor="middle" x="1994.8" y="-57.8" font-family="Times,serif" font-size="14.00">dep</text>
</g>
<!-- 24 -->
<g id="node25" class="node">
<title>24</title>
<ellipse fill="none" stroke="black" cx="2133.3" cy="-18" rx="27" ry="18"/>
<text text-anchor="middle" x="2133.3" y="-14.3" font-family="Times,serif" font-size="14.00">.</text>
</g>
<!-- 0&#45;&gt;24 -->
<g id="edge24" class="edge">
<title>0&#45;&gt;24</title>
<path fill="none" stroke="black" d="M1117.57,-104.18C1250.9,-104.88 1834.85,-105.73 2012.3,-69 2044.97,-62.24 2079.95,-46.79 2103.86,-34.84"/>
<polygon fill="black" stroke="black" points="2105.76,-37.8 2113.07,-30.14 2102.57,-31.57 2105.76,-37.8"/>
<text text-anchor="middle" x="2073.8" y="-57.8" font-family="Times,serif" font-size="14.00">dep</text>
</g>
</g>
</svg>
