<?xml version="1.0" encoding="UTF-8" standalone="no"?>
<!DOCTYPE svg PUBLIC "-//W3C//DTD SVG 1.1//EN"
 "http://www.w3.org/Graphics/SVG/1.1/DTD/svg11.dtd">
<!-- Generated by graphviz version 2.42.4 (0)
 -->
<!-- Pages: 1 -->
<svg width="1090pt" height="131pt"
 viewBox="0.00 0.00 1090.35 131.00" xmlns="http://www.w3.org/2000/svg" xmlns:xlink="http://www.w3.org/1999/xlink">
<g id="graph0" class="graph" transform="scale(1 1) rotate(0) translate(4 127)">
<polygon fill="white" stroke="transparent" points="-4,4 -4,-127 1086.35,-127 1086.35,4 -4,4"/>
<!-- 0 -->
<g id="node1" class="node">
<title>0</title>
<ellipse fill="none" stroke="black" cx="533.35" cy="-105" rx="29.8" ry="18"/>
<text text-anchor="middle" x="533.35" y="-101.3" font-family="Times,serif" font-size="14.00">mas</text>
</g>
<!-- 1 -->
<g id="node2" class="node">
<title>1</title>
<ellipse fill="none" stroke="black" cx="38.35" cy="-18" rx="38.19" ry="18"/>
<text text-anchor="middle" x="38.35" y="-14.3" font-family="Times,serif" font-size="14.00">existe</text>
</g>
<!-- 0&#45;&gt;1 -->
<g id="edge1" class="edge">
<title>0&#45;&gt;1</title>
<path fill="none" stroke="black" d="M503.09,-103.86C439.99,-102.96 290.1,-97.69 168.35,-69 135.37,-61.23 99.55,-46.99 73.88,-35.69"/>
<polygon fill="black" stroke="black" points="75.12,-32.41 64.56,-31.52 72.26,-38.8 75.12,-32.41"/>
<text text-anchor="middle" x="181.85" y="-57.8" font-family="Times,serif" font-size="14.00">dep</text>
</g>
<!-- 2 -->
<g id="node3" class="node">
<title>2</title>
<ellipse fill="none" stroke="black" cx="121.35" cy="-18" rx="27" ry="18"/>
<text text-anchor="middle" x="121.35" y="-14.3" font-family="Times,serif" font-size="14.00">em</text>
</g>
<!-- 0&#45;&gt;2 -->
<g id="edge2" class="edge">
<title>0&#45;&gt;2</title>
<path fill="none" stroke="black" d="M503.27,-102.81C450.11,-100.16 336.37,-92.09 243.35,-69 210.79,-60.92 175.53,-45.71 151.33,-34.17"/>
<polygon fill="black" stroke="black" points="152.83,-31.01 142.31,-29.8 149.78,-37.31 152.83,-31.01"/>
<text text-anchor="middle" x="256.85" y="-57.8" font-family="Times,serif" font-size="14.00">dep</text>
</g>
<!-- 3 -->
<g id="node4" class="node">
<title>3</title>
<ellipse fill="none" stroke="black" cx="193.35" cy="-18" rx="27" ry="18"/>
<text text-anchor="middle" x="193.35" y="-14.3" font-family="Times,serif" font-size="14.00">um</text>
</g>
<!-- 0&#45;&gt;3 -->
<g id="edge3" class="edge">
<title>0&#45;&gt;3</title>
<path fill="none" stroke="black" d="M504.14,-100.75C463.27,-95.83 386.89,-85.32 323.35,-69 280.46,-57.99 270.31,-52.81 229.35,-36 227.52,-35.25 225.66,-34.46 223.79,-33.64"/>
<polygon fill="black" stroke="black" points="225.06,-30.37 214.5,-29.44 222.17,-36.75 225.06,-30.37"/>
<text text-anchor="middle" x="336.85" y="-57.8" font-family="Times,serif" font-size="14.00">dep</text>
</g>
<!-- 4 -->
<g id="node5" class="node">
<title>4</title>
<ellipse fill="none" stroke="black" cx="274.35" cy="-18" rx="36" ry="18"/>
<text text-anchor="middle" x="274.35" y="-14.3" font-family="Times,serif" font-size="14.00">outro</text>
</g>
<!-- 0&#45;&gt;4 -->
<g id="edge4" class="edge">
<title>0&#45;&gt;4</title>
<path fill="none" stroke="black" d="M505.36,-98.32C476.84,-92.23 431.5,-81.7 393.35,-69 364.19,-59.29 332.13,-45.64 308.64,-35.06"/>
<polygon fill="black" stroke="black" points="310,-31.83 299.45,-30.87 307.1,-38.2 310,-31.83"/>
<text text-anchor="middle" x="406.85" y="-57.8" font-family="Times,serif" font-size="14.00">dep</text>
</g>
<!-- 5 -->
<g id="node6" class="node">
<title>5</title>
<ellipse fill="none" stroke="black" cx="355.35" cy="-18" rx="27" ry="18"/>
<text text-anchor="middle" x="355.35" y="-14.3" font-family="Times,serif" font-size="14.00">,</text>
</g>
<!-- 0&#45;&gt;5 -->
<g id="edge5" class="edge">
<title>0&#45;&gt;5</title>
<path fill="none" stroke="black" d="M509.38,-93.95C493.4,-87.15 471.98,-77.82 453.35,-69 430.05,-57.97 404.09,-44.68 384.74,-34.58"/>
<polygon fill="black" stroke="black" points="386.3,-31.44 375.82,-29.89 383.05,-37.64 386.3,-31.44"/>
<text text-anchor="middle" x="466.85" y="-57.8" font-family="Times,serif" font-size="14.00">dep</text>
</g>
<!-- 6 -->
<g id="node7" class="node">
<title>6</title>
<ellipse fill="none" stroke="black" cx="444.35" cy="-18" rx="43.59" ry="18"/>
<text text-anchor="middle" x="444.35" y="-14.3" font-family="Times,serif" font-size="14.00">porque</text>
</g>
<!-- 0&#45;&gt;6 -->
<g id="edge6" class="edge">
<title>0&#45;&gt;6</title>
<path fill="none" stroke="black" d="M517.84,-89.19C504.15,-76.11 483.96,-56.83 468.21,-41.79"/>
<polygon fill="black" stroke="black" points="470.53,-39.16 460.88,-34.79 465.69,-44.23 470.53,-39.16"/>
<text text-anchor="middle" x="507.85" y="-57.8" font-family="Times,serif" font-size="14.00">dep</text>
</g>
<!-- 7 -->
<g id="node8" class="node">
<title>7</title>
<ellipse fill="none" stroke="black" cx="533.35" cy="-18" rx="27" ry="18"/>
<text text-anchor="middle" x="533.35" y="-14.3" font-family="Times,serif" font-size="14.00">aí</text>
</g>
<!-- 0&#45;&gt;7 -->
<g id="edge7" class="edge">
<title>0&#45;&gt;7</title>
<path fill="none" stroke="black" d="M533.35,-86.8C533.35,-75.16 533.35,-59.55 533.35,-46.24"/>
<polygon fill="black" stroke="black" points="536.85,-46.18 533.35,-36.18 529.85,-46.18 536.85,-46.18"/>
<text text-anchor="middle" x="546.85" y="-57.8" font-family="Times,serif" font-size="14.00">dep</text>
</g>
<!-- 8 -->
<g id="node9" class="node">
<title>8</title>
<ellipse fill="none" stroke="black" cx="616.35" cy="-18" rx="38.19" ry="18"/>
<text text-anchor="middle" x="616.35" y="-14.3" font-family="Times,serif" font-size="14.00">nunca</text>
</g>
<!-- 0&#45;&gt;8 -->
<g id="edge8" class="edge">
<title>0&#45;&gt;8</title>
<path fill="none" stroke="black" d="M547.8,-89.19C560.46,-76.23 579.06,-57.18 593.69,-42.2"/>
<polygon fill="black" stroke="black" points="596.45,-44.39 600.93,-34.79 591.44,-39.5 596.45,-44.39"/>
<text text-anchor="middle" x="593.85" y="-57.8" font-family="Times,serif" font-size="14.00">dep</text>
</g>
<!-- 9 -->
<g id="node10" class="node">
<title>9</title>
<ellipse fill="none" stroke="black" cx="733.35" cy="-18" rx="61.19" ry="18"/>
<text text-anchor="middle" x="733.35" y="-14.3" font-family="Times,serif" font-size="14.00">assassinou</text>
</g>
<!-- 0&#45;&gt;9 -->
<g id="edge9" class="edge">
<title>0&#45;&gt;9</title>
<path fill="none" stroke="black" d="M557.07,-93.92C589.93,-79.95 649.84,-54.49 690.6,-37.17"/>
<polygon fill="black" stroke="black" points="692.18,-40.3 700.01,-33.17 689.44,-33.86 692.18,-40.3"/>
<text text-anchor="middle" x="658.85" y="-57.8" font-family="Times,serif" font-size="14.00">dep</text>
</g>
<!-- 10 -->
<g id="node11" class="node">
<title>10</title>
<ellipse fill="none" stroke="black" cx="839.35" cy="-18" rx="27" ry="18"/>
<text text-anchor="middle" x="839.35" y="-14.3" font-family="Times,serif" font-size="14.00">a</text>
</g>
<!-- 0&#45;&gt;10 -->
<g id="edge10" class="edge">
<title>0&#45;&gt;10</title>
<path fill="none" stroke="black" d="M561.5,-98.86C611.22,-89.36 717.45,-67.13 803.35,-36 805.2,-35.33 807.08,-34.6 808.97,-33.82"/>
<polygon fill="black" stroke="black" points="810.55,-36.96 818.31,-29.74 807.74,-30.54 810.55,-36.96"/>
<text text-anchor="middle" x="759.85" y="-57.8" font-family="Times,serif" font-size="14.00">dep</text>
</g>
<!-- 11 -->
<g id="node12" class="node">
<title>11</title>
<ellipse fill="none" stroke="black" cx="911.35" cy="-18" rx="27" ry="18"/>
<text text-anchor="middle" x="911.35" y="-14.3" font-family="Times,serif" font-size="14.00">sua</text>
</g>
<!-- 0&#45;&gt;11 -->
<g id="edge11" class="edge">
<title>0&#45;&gt;11</title>
<path fill="none" stroke="black" d="M562.97,-101.51C609.21,-97.23 701.16,-87.13 777.35,-69 822.06,-58.36 832.72,-53.17 875.35,-36 877.17,-35.26 879.04,-34.48 880.91,-33.67"/>
<polygon fill="black" stroke="black" points="882.53,-36.78 890.21,-29.48 879.65,-30.4 882.53,-36.78"/>
<text text-anchor="middle" x="842.85" y="-57.8" font-family="Times,serif" font-size="14.00">dep</text>
</g>
<!-- 12 -->
<g id="node13" class="node">
<title>12</title>
<ellipse fill="none" stroke="black" cx="983.35" cy="-18" rx="27" ry="18"/>
<text text-anchor="middle" x="983.35" y="-14.3" font-family="Times,serif" font-size="14.00">avó</text>
</g>
<!-- 0&#45;&gt;12 -->
<g id="edge12" class="edge">
<title>0&#45;&gt;12</title>
<path fill="none" stroke="black" d="M563.54,-103.34C621.74,-101.5 753.17,-94.61 860.35,-69 893.4,-61.1 929.18,-45.72 953.58,-34.09"/>
<polygon fill="black" stroke="black" points="955.19,-37.2 962.66,-29.68 952.14,-30.9 955.19,-37.2"/>
<text text-anchor="middle" x="919.85" y="-57.8" font-family="Times,serif" font-size="14.00">dep</text>
</g>
<!-- 13 -->
<g id="node14" class="node">
<title>13</title>
<ellipse fill="none" stroke="black" cx="1055.35" cy="-18" rx="27" ry="18"/>
<text text-anchor="middle" x="1055.35" y="-14.3" font-family="Times,serif" font-size="14.00">.</text>
</g>
<!-- 0&#45;&gt;13 -->
<g id="edge13" class="edge">
<title>0&#45;&gt;13</title>
<path fill="none" stroke="black" d="M563.48,-104.41C631.27,-104.67 800.57,-101.68 937.35,-69 968.92,-61.46 1002.83,-46.27 1026.16,-34.6"/>
<polygon fill="black" stroke="black" points="1027.85,-37.67 1035.17,-30.01 1024.67,-31.44 1027.85,-37.67"/>
<text text-anchor="middle" x="994.85" y="-57.8" font-family="Times,serif" font-size="14.00">dep</text>
</g>
</g>
</svg>
