<?xml version="1.0" encoding="UTF-8" standalone="no"?>
<!DOCTYPE svg PUBLIC "-//W3C//DTD SVG 1.1//EN"
 "http://www.w3.org/Graphics/SVG/1.1/DTD/svg11.dtd">
<!-- Generated by graphviz version 2.42.4 (0)
 -->
<!-- Pages: 1 -->
<svg width="846pt" height="131pt"
 viewBox="0.00 0.00 846.15 131.00" xmlns="http://www.w3.org/2000/svg" xmlns:xlink="http://www.w3.org/1999/xlink">
<g id="graph0" class="graph" transform="scale(1 1) rotate(0) translate(4 127)">
<polygon fill="white" stroke="transparent" points="-4,4 -4,-127 842.15,-127 842.15,4 -4,4"/>
<!-- 0 -->
<g id="node1" class="node">
<title>0</title>
<ellipse fill="none" stroke="black" cx="436.15" cy="-105" rx="27" ry="18"/>
<text text-anchor="middle" x="436.15" y="-101.3" font-family="Times,serif" font-size="14.00">Só</text>
</g>
<!-- 1 -->
<g id="node2" class="node">
<title>1</title>
<ellipse fill="none" stroke="black" cx="46.15" cy="-18" rx="46.29" ry="18"/>
<text text-anchor="middle" x="46.15" y="-14.3" font-family="Times,serif" font-size="14.00">poderia</text>
</g>
<!-- 0&#45;&gt;1 -->
<g id="edge1" class="edge">
<title>0&#45;&gt;1</title>
<path fill="none" stroke="black" d="M409.5,-101.95C363.87,-98.04 268.05,-88.19 189.15,-69 153.6,-60.36 114.46,-46.34 86.13,-35.35"/>
<polygon fill="black" stroke="black" points="87.17,-32 76.59,-31.6 84.61,-38.51 87.17,-32"/>
<text text-anchor="middle" x="202.65" y="-57.8" font-family="Times,serif" font-size="14.00">dep</text>
</g>
<!-- 2 -->
<g id="node3" class="node">
<title>2</title>
<ellipse fill="none" stroke="black" cx="137.15" cy="-18" rx="27" ry="18"/>
<text text-anchor="middle" x="137.15" y="-14.3" font-family="Times,serif" font-size="14.00">ter</text>
</g>
<!-- 0&#45;&gt;2 -->
<g id="edge2" class="edge">
<title>0&#45;&gt;2</title>
<path fill="none" stroke="black" d="M410.12,-99.72C376.71,-93.98 317.09,-82.87 267.15,-69 224.48,-57.15 214.11,-52.81 173.15,-36 171.32,-35.25 169.46,-34.46 167.59,-33.64"/>
<polygon fill="black" stroke="black" points="168.86,-30.37 158.3,-29.44 165.97,-36.75 168.86,-30.37"/>
<text text-anchor="middle" x="280.65" y="-57.8" font-family="Times,serif" font-size="14.00">dep</text>
</g>
<!-- 3 -->
<g id="node4" class="node">
<title>3</title>
<ellipse fill="none" stroke="black" cx="226.15" cy="-18" rx="44.39" ry="18"/>
<text text-anchor="middle" x="226.15" y="-14.3" font-family="Times,serif" font-size="14.00">partido</text>
</g>
<!-- 0&#45;&gt;3 -->
<g id="edge3" class="edge">
<title>0&#45;&gt;3</title>
<path fill="none" stroke="black" d="M411.59,-97C389.68,-90.52 356.87,-80.2 329.15,-69 305.92,-59.61 280.59,-47.35 260.87,-37.32"/>
<polygon fill="black" stroke="black" points="262.45,-34.19 251.95,-32.74 259.25,-40.42 262.45,-34.19"/>
<text text-anchor="middle" x="342.65" y="-57.8" font-family="Times,serif" font-size="14.00">dep</text>
</g>
<!-- 4 -->
<g id="node5" class="node">
<title>4</title>
<ellipse fill="none" stroke="black" cx="315.15" cy="-18" rx="27" ry="18"/>
<text text-anchor="middle" x="315.15" y="-14.3" font-family="Times,serif" font-size="14.00">de</text>
</g>
<!-- 0&#45;&gt;4 -->
<g id="edge4" class="edge">
<title>0&#45;&gt;4</title>
<path fill="none" stroke="black" d="M416.67,-92.47C405.76,-85.85 392.01,-77.24 380.15,-69 366.5,-59.52 351.79,-48.3 339.82,-38.89"/>
<polygon fill="black" stroke="black" points="341.66,-35.87 331.65,-32.41 337.31,-41.36 341.66,-35.87"/>
<text text-anchor="middle" x="393.65" y="-57.8" font-family="Times,serif" font-size="14.00">dep</text>
</g>
<!-- 5 -->
<g id="node6" class="node">
<title>5</title>
<ellipse fill="none" stroke="black" cx="391.15" cy="-18" rx="30.59" ry="18"/>
<text text-anchor="middle" x="391.15" y="-14.3" font-family="Times,serif" font-size="14.00">uma</text>
</g>
<!-- 0&#45;&gt;5 -->
<g id="edge5" class="edge">
<title>0&#45;&gt;5</title>
<path fill="none" stroke="black" d="M427.47,-87.61C421,-75.38 412.03,-58.44 404.62,-44.46"/>
<polygon fill="black" stroke="black" points="407.57,-42.54 399.8,-35.34 401.38,-45.81 407.57,-42.54"/>
<text text-anchor="middle" x="430.65" y="-57.8" font-family="Times,serif" font-size="14.00">dep</text>
</g>
<!-- 6 -->
<g id="node7" class="node">
<title>6</title>
<ellipse fill="none" stroke="black" cx="482.15" cy="-18" rx="42.49" ry="18"/>
<text text-anchor="middle" x="482.15" y="-14.3" font-family="Times,serif" font-size="14.00">cabeça</text>
</g>
<!-- 0&#45;&gt;6 -->
<g id="edge6" class="edge">
<title>0&#45;&gt;6</title>
<path fill="none" stroke="black" d="M445.02,-87.61C451.59,-75.46 460.68,-58.66 468.22,-44.73"/>
<polygon fill="black" stroke="black" points="471.47,-46.09 473.15,-35.63 465.31,-42.76 471.47,-46.09"/>
<text text-anchor="middle" x="475.65" y="-57.8" font-family="Times,serif" font-size="14.00">dep</text>
</g>
<!-- 7 -->
<g id="node8" class="node">
<title>7</title>
<ellipse fill="none" stroke="black" cx="569.15" cy="-18" rx="27" ry="18"/>
<text text-anchor="middle" x="569.15" y="-14.3" font-family="Times,serif" font-size="14.00">de</text>
</g>
<!-- 0&#45;&gt;7 -->
<g id="edge7" class="edge">
<title>0&#45;&gt;7</title>
<path fill="none" stroke="black" d="M455.5,-92.32C466.57,-85.59 480.7,-76.91 493.15,-69 509.59,-58.54 527.84,-46.55 542.33,-36.93"/>
<polygon fill="black" stroke="black" points="544.43,-39.74 550.82,-31.29 540.56,-33.91 544.43,-39.74"/>
<text text-anchor="middle" x="530.65" y="-57.8" font-family="Times,serif" font-size="14.00">dep</text>
</g>
<!-- 8 -->
<g id="node9" class="node">
<title>8</title>
<ellipse fill="none" stroke="black" cx="654.15" cy="-18" rx="40.09" ry="18"/>
<text text-anchor="middle" x="654.15" y="-14.3" font-family="Times,serif" font-size="14.00">merda</text>
</g>
<!-- 0&#45;&gt;8 -->
<g id="edge8" class="edge">
<title>0&#45;&gt;8</title>
<path fill="none" stroke="black" d="M460.95,-97.31C483.87,-90.88 518.73,-80.47 548.15,-69 572.64,-59.45 599.41,-46.8 619.92,-36.62"/>
<polygon fill="black" stroke="black" points="621.5,-39.74 628.88,-32.13 618.37,-33.48 621.5,-39.74"/>
<text text-anchor="middle" x="594.65" y="-57.8" font-family="Times,serif" font-size="14.00">dep</text>
</g>
<!-- 9 -->
<g id="node10" class="node">
<title>9</title>
<ellipse fill="none" stroke="black" cx="739.15" cy="-18" rx="27" ry="18"/>
<text text-anchor="middle" x="739.15" y="-14.3" font-family="Times,serif" font-size="14.00">»</text>
</g>
<!-- 0&#45;&gt;9 -->
<g id="edge9" class="edge">
<title>0&#45;&gt;9</title>
<path fill="none" stroke="black" d="M462.38,-100.06C497.03,-94.56 559.78,-83.61 612.15,-69 653.58,-57.44 663.43,-52.54 703.15,-36 704.96,-35.24 706.82,-34.44 708.69,-33.62"/>
<polygon fill="black" stroke="black" points="710.32,-36.73 717.97,-29.4 707.42,-30.35 710.32,-36.73"/>
<text text-anchor="middle" x="672.65" y="-57.8" font-family="Times,serif" font-size="14.00">dep</text>
</g>
<!-- 10 -->
<g id="node11" class="node">
<title>10</title>
<ellipse fill="none" stroke="black" cx="811.15" cy="-18" rx="27" ry="18"/>
<text text-anchor="middle" x="811.15" y="-14.3" font-family="Times,serif" font-size="14.00">.</text>
</g>
<!-- 0&#45;&gt;10 -->
<g id="edge10" class="edge">
<title>0&#45;&gt;10</title>
<path fill="none" stroke="black" d="M462.87,-102.37C509.6,-99.08 608.92,-90.05 690.15,-69 722.25,-60.68 757.06,-45.6 781.07,-34.17"/>
<polygon fill="black" stroke="black" points="782.86,-37.19 790.34,-29.68 779.81,-30.89 782.86,-37.19"/>
<text text-anchor="middle" x="748.65" y="-57.8" font-family="Times,serif" font-size="14.00">dep</text>
</g>
</g>
</svg>
