<?xml version="1.0" encoding="UTF-8" standalone="no"?>
<!DOCTYPE svg PUBLIC "-//W3C//DTD SVG 1.1//EN"
 "http://www.w3.org/Graphics/SVG/1.1/DTD/svg11.dtd">
<!-- Generated by graphviz version 2.42.4 (0)
 -->
<!-- Pages: 1 -->
<svg width="1676pt" height="131pt"
 viewBox="0.00 0.00 1675.84 131.00" xmlns="http://www.w3.org/2000/svg" xmlns:xlink="http://www.w3.org/1999/xlink">
<g id="graph0" class="graph" transform="scale(1 1) rotate(0) translate(4 127)">
<polygon fill="white" stroke="transparent" points="-4,4 -4,-127 1671.84,-127 1671.84,4 -4,4"/>
<!-- 0 -->
<g id="node1" class="node">
<title>0</title>
<ellipse fill="none" stroke="black" cx="850.84" cy="-105" rx="27" ry="18"/>
<text text-anchor="middle" x="850.84" y="-101.3" font-family="Times,serif" font-size="14.00">O</text>
</g>
<!-- 1 -->
<g id="node2" class="node">
<title>1</title>
<ellipse fill="none" stroke="black" cx="57.84" cy="-18" rx="57.69" ry="18"/>
<text text-anchor="middle" x="57.84" y="-14.3" font-family="Times,serif" font-size="14.00">espantoso</text>
</g>
<!-- 0&#45;&gt;1 -->
<g id="edge1" class="edge">
<title>0&#45;&gt;1</title>
<path fill="none" stroke="black" d="M823.72,-103.51C717.15,-101.42 327.12,-92.32 205.84,-69 169.23,-61.96 129.27,-48.06 100.11,-36.7"/>
<polygon fill="black" stroke="black" points="101.24,-33.39 90.65,-32.96 98.66,-39.9 101.24,-33.39"/>
<text text-anchor="middle" x="219.34" y="-57.8" font-family="Times,serif" font-size="14.00">dep</text>
</g>
<!-- 2 -->
<g id="node3" class="node">
<title>2</title>
<ellipse fill="none" stroke="black" cx="160.84" cy="-18" rx="27" ry="18"/>
<text text-anchor="middle" x="160.84" y="-14.3" font-family="Times,serif" font-size="14.00">é</text>
</g>
<!-- 0&#45;&gt;2 -->
<g id="edge2" class="edge">
<title>0&#45;&gt;2</title>
<path fill="none" stroke="black" d="M823.87,-103.46C725.51,-101.31 386.36,-92.35 280.84,-69 248.69,-61.88 214.21,-46.64 190.5,-34.84"/>
<polygon fill="black" stroke="black" points="191.85,-31.6 181.35,-30.19 188.68,-37.84 191.85,-31.6"/>
<text text-anchor="middle" x="294.34" y="-57.8" font-family="Times,serif" font-size="14.00">dep</text>
</g>
<!-- 3 -->
<g id="node4" class="node">
<title>3</title>
<ellipse fill="none" stroke="black" cx="233.84" cy="-18" rx="27.9" ry="18"/>
<text text-anchor="middle" x="233.84" y="-14.3" font-family="Times,serif" font-size="14.00">que</text>
</g>
<!-- 0&#45;&gt;3 -->
<g id="edge3" class="edge">
<title>0&#45;&gt;3</title>
<path fill="none" stroke="black" d="M823.83,-103.14C734.18,-100.11 447.07,-89.04 356.84,-69 323.87,-61.68 288.34,-46.35 263.99,-34.59"/>
<polygon fill="black" stroke="black" points="265.43,-31.4 254.91,-30.12 262.34,-37.68 265.43,-31.4"/>
<text text-anchor="middle" x="370.34" y="-57.8" font-family="Times,serif" font-size="14.00">dep</text>
</g>
<!-- 4 -->
<g id="node5" class="node">
<title>4</title>
<ellipse fill="none" stroke="black" cx="308.84" cy="-18" rx="29.5" ry="18"/>
<text text-anchor="middle" x="308.84" y="-14.3" font-family="Times,serif" font-size="14.00">fora</text>
</g>
<!-- 0&#45;&gt;4 -->
<g id="edge4" class="edge">
<title>0&#45;&gt;4</title>
<path fill="none" stroke="black" d="M823.54,-104.36C756.23,-104.68 577.31,-102.06 432.84,-69 399.89,-61.46 364.29,-46.31 339.72,-34.65"/>
<polygon fill="black" stroke="black" points="341.08,-31.42 330.56,-30.22 338.04,-37.73 341.08,-31.42"/>
<text text-anchor="middle" x="446.34" y="-57.8" font-family="Times,serif" font-size="14.00">dep</text>
</g>
<!-- 5 -->
<g id="node6" class="node">
<title>5</title>
<ellipse fill="none" stroke="black" cx="382.84" cy="-18" rx="27" ry="18"/>
<text text-anchor="middle" x="382.84" y="-14.3" font-family="Times,serif" font-size="14.00">de</text>
</g>
<!-- 0&#45;&gt;5 -->
<g id="edge5" class="edge">
<title>0&#45;&gt;5</title>
<path fill="none" stroke="black" d="M823.68,-103.18C766.36,-101 629.07,-93.46 516.84,-69 471.94,-59.21 461.47,-53.17 418.84,-36 417.02,-35.26 415.15,-34.48 413.28,-33.67"/>
<polygon fill="black" stroke="black" points="414.54,-30.4 403.98,-29.48 411.66,-36.78 414.54,-30.4"/>
<text text-anchor="middle" x="530.34" y="-57.8" font-family="Times,serif" font-size="14.00">dep</text>
</g>
<!-- 6 -->
<g id="node7" class="node">
<title>6</title>
<ellipse fill="none" stroke="black" cx="454.84" cy="-18" rx="27" ry="18"/>
<text text-anchor="middle" x="454.84" y="-14.3" font-family="Times,serif" font-size="14.00">a</text>
</g>
<!-- 0&#45;&gt;6 -->
<g id="edge6" class="edge">
<title>0&#45;&gt;6</title>
<path fill="none" stroke="black" d="M823.83,-102.01C762.76,-96.84 610.13,-80.19 490.84,-36 489,-35.32 487.12,-34.57 485.23,-33.79"/>
<polygon fill="black" stroke="black" points="486.47,-30.51 475.9,-29.69 483.65,-36.92 486.47,-30.51"/>
<text text-anchor="middle" x="610.34" y="-57.8" font-family="Times,serif" font-size="14.00">dep</text>
</g>
<!-- 7 -->
<g id="node8" class="node">
<title>7</title>
<ellipse fill="none" stroke="black" cx="540.84" cy="-18" rx="40.89" ry="18"/>
<text text-anchor="middle" x="540.84" y="-14.3" font-family="Times,serif" font-size="14.00">polícia</text>
</g>
<!-- 0&#45;&gt;7 -->
<g id="edge7" class="edge">
<title>0&#45;&gt;7</title>
<path fill="none" stroke="black" d="M824.98,-99.27C793,-93.21 737.01,-81.95 689.84,-69 645.12,-56.72 634.8,-50.8 590.84,-36 587.94,-35.02 584.94,-34.01 581.92,-32.99"/>
<polygon fill="black" stroke="black" points="582.9,-29.63 572.31,-29.73 580.66,-36.25 582.9,-29.63"/>
<text text-anchor="middle" x="703.34" y="-57.8" font-family="Times,serif" font-size="14.00">dep</text>
</g>
<!-- 8 -->
<g id="node9" class="node">
<title>8</title>
<ellipse fill="none" stroke="black" cx="648.84" cy="-18" rx="48.99" ry="18"/>
<text text-anchor="middle" x="648.84" y="-14.3" font-family="Times,serif" font-size="14.00">também</text>
</g>
<!-- 0&#45;&gt;8 -->
<g id="edge8" class="edge">
<title>0&#45;&gt;8</title>
<path fill="none" stroke="black" d="M826.96,-96.39C806.73,-89.75 777.07,-79.54 751.84,-69 729.31,-59.58 704.67,-47.68 685.15,-37.86"/>
<polygon fill="black" stroke="black" points="686.51,-34.62 676,-33.22 683.34,-40.86 686.51,-34.62"/>
<text text-anchor="middle" x="765.34" y="-57.8" font-family="Times,serif" font-size="14.00">dep</text>
</g>
<!-- 9 -->
<g id="node10" class="node">
<title>9</title>
<ellipse fill="none" stroke="black" cx="742.84" cy="-18" rx="27" ry="18"/>
<text text-anchor="middle" x="742.84" y="-14.3" font-family="Times,serif" font-size="14.00">se</text>
</g>
<!-- 0&#45;&gt;9 -->
<g id="edge9" class="edge">
<title>0&#45;&gt;9</title>
<path fill="none" stroke="black" d="M832.06,-91.88C822.26,-85.37 810.19,-77.04 799.84,-69 788.2,-59.95 775.83,-49.24 765.6,-40.06"/>
<polygon fill="black" stroke="black" points="767.67,-37.21 757.91,-33.09 762.97,-42.4 767.67,-37.21"/>
<text text-anchor="middle" x="813.34" y="-57.8" font-family="Times,serif" font-size="14.00">dep</text>
</g>
<!-- 10 -->
<g id="node11" class="node">
<title>10</title>
<ellipse fill="none" stroke="black" cx="814.84" cy="-18" rx="27" ry="18"/>
<text text-anchor="middle" x="814.84" y="-14.3" font-family="Times,serif" font-size="14.00">viu</text>
</g>
<!-- 0&#45;&gt;10 -->
<g id="edge10" class="edge">
<title>0&#45;&gt;10</title>
<path fill="none" stroke="black" d="M843.73,-87.21C838.62,-75.14 831.63,-58.64 825.81,-44.89"/>
<polygon fill="black" stroke="black" points="828.94,-43.31 821.82,-35.47 822.5,-46.04 828.94,-43.31"/>
<text text-anchor="middle" x="849.34" y="-57.8" font-family="Times,serif" font-size="14.00">dep</text>
</g>
<!-- 11 -->
<g id="node12" class="node">
<title>11</title>
<ellipse fill="none" stroke="black" cx="886.84" cy="-18" rx="27" ry="18"/>
<text text-anchor="middle" x="886.84" y="-14.3" font-family="Times,serif" font-size="14.00">o</text>
</g>
<!-- 0&#45;&gt;11 -->
<g id="edge11" class="edge">
<title>0&#45;&gt;11</title>
<path fill="none" stroke="black" d="M857.96,-87.21C863.07,-75.14 870.06,-58.64 875.88,-44.89"/>
<polygon fill="black" stroke="black" points="879.19,-46.04 879.87,-35.47 872.75,-43.31 879.19,-46.04"/>
<text text-anchor="middle" x="885.34" y="-57.8" font-family="Times,serif" font-size="14.00">dep</text>
</g>
<!-- 12 -->
<g id="node13" class="node">
<title>12</title>
<ellipse fill="none" stroke="black" cx="958.84" cy="-18" rx="27" ry="18"/>
<text text-anchor="middle" x="958.84" y="-14.3" font-family="Times,serif" font-size="14.00">«</text>
</g>
<!-- 0&#45;&gt;12 -->
<g id="edge12" class="edge">
<title>0&#45;&gt;12</title>
<path fill="none" stroke="black" d="M870.06,-91.97C880.06,-85.48 892.36,-77.15 902.84,-69 914.38,-60.04 926.54,-49.34 936.58,-40.15"/>
<polygon fill="black" stroke="black" points="939.16,-42.52 944.11,-33.16 934.4,-37.39 939.16,-42.52"/>
<text text-anchor="middle" x="934.34" y="-57.8" font-family="Times,serif" font-size="14.00">dep</text>
</g>
<!-- 13 -->
<g id="node14" class="node">
<title>13</title>
<ellipse fill="none" stroke="black" cx="1031.84" cy="-18" rx="27.9" ry="18"/>
<text text-anchor="middle" x="1031.84" y="-14.3" font-family="Times,serif" font-size="14.00">mal</text>
</g>
<!-- 0&#45;&gt;13 -->
<g id="edge13" class="edge">
<title>0&#45;&gt;13</title>
<path fill="none" stroke="black" d="M875.54,-97.14C896.37,-90.96 926.73,-81.01 951.84,-69 970.5,-60.08 990.2,-47.8 1005.39,-37.64"/>
<polygon fill="black" stroke="black" points="1007.47,-40.46 1013.77,-31.95 1003.53,-34.68 1007.47,-40.46"/>
<text text-anchor="middle" x="993.34" y="-57.8" font-family="Times,serif" font-size="14.00">dep</text>
</g>
<!-- 14 -->
<g id="node15" class="node">
<title>14</title>
<ellipse fill="none" stroke="black" cx="1104.84" cy="-18" rx="27" ry="18"/>
<text text-anchor="middle" x="1104.84" y="-14.3" font-family="Times,serif" font-size="14.00">»</text>
</g>
<!-- 0&#45;&gt;14 -->
<g id="edge14" class="edge">
<title>0&#45;&gt;14</title>
<path fill="none" stroke="black" d="M877.24,-100.49C909.48,-95.69 965.34,-85.72 1010.84,-69 1034.04,-60.48 1058.65,-47.22 1076.86,-36.5"/>
<polygon fill="black" stroke="black" points="1078.99,-39.3 1085.77,-31.16 1075.39,-33.3 1078.99,-39.3"/>
<text text-anchor="middle" x="1057.34" y="-57.8" font-family="Times,serif" font-size="14.00">dep</text>
</g>
<!-- 15 -->
<g id="node16" class="node">
<title>15</title>
<ellipse fill="none" stroke="black" cx="1176.84" cy="-18" rx="27" ry="18"/>
<text text-anchor="middle" x="1176.84" y="-14.3" font-family="Times,serif" font-size="14.00">em</text>
</g>
<!-- 0&#45;&gt;15 -->
<g id="edge15" class="edge">
<title>0&#45;&gt;15</title>
<path fill="none" stroke="black" d="M877.64,-102.42C920.27,-99.33 1005.77,-90.77 1074.84,-69 1100.82,-60.81 1128.46,-46.9 1148.41,-35.83"/>
<polygon fill="black" stroke="black" points="1150.29,-38.79 1157.27,-30.82 1146.84,-32.7 1150.29,-38.79"/>
<text text-anchor="middle" x="1126.34" y="-57.8" font-family="Times,serif" font-size="14.00">dep</text>
</g>
<!-- 16 -->
<g id="node17" class="node">
<title>16</title>
<ellipse fill="none" stroke="black" cx="1248.84" cy="-18" rx="27" ry="18"/>
<text text-anchor="middle" x="1248.84" y="-14.3" font-family="Times,serif" font-size="14.00">o</text>
</g>
<!-- 0&#45;&gt;16 -->
<g id="edge16" class="edge">
<title>0&#45;&gt;16</title>
<path fill="none" stroke="black" d="M878.09,-103.68C930.56,-102.42 1048.87,-96.48 1143.84,-69 1171.09,-61.12 1200.05,-46.83 1220.64,-35.54"/>
<polygon fill="black" stroke="black" points="1222.46,-38.53 1229.48,-30.6 1219.04,-32.42 1222.46,-38.53"/>
<text text-anchor="middle" x="1196.34" y="-57.8" font-family="Times,serif" font-size="14.00">dep</text>
</g>
<!-- 17 -->
<g id="node18" class="node">
<title>17</title>
<ellipse fill="none" stroke="black" cx="1347.84" cy="-18" rx="53.89" ry="18"/>
<text text-anchor="middle" x="1347.84" y="-14.3" font-family="Times,serif" font-size="14.00">incidente</text>
</g>
<!-- 0&#45;&gt;17 -->
<g id="edge17" class="edge">
<title>0&#45;&gt;17</title>
<path fill="none" stroke="black" d="M878.1,-103.79C939.07,-102.78 1090.77,-97.38 1213.84,-69 1246.49,-61.47 1281.95,-47.99 1308.19,-36.92"/>
<polygon fill="black" stroke="black" points="1309.6,-40.12 1317.41,-32.97 1306.84,-33.69 1309.6,-40.12"/>
<text text-anchor="middle" x="1276.34" y="-57.8" font-family="Times,serif" font-size="14.00">dep</text>
</g>
<!-- 18 -->
<g id="node19" class="node">
<title>18</title>
<ellipse fill="none" stroke="black" cx="1446.84" cy="-18" rx="27" ry="18"/>
<text text-anchor="middle" x="1446.84" y="-14.3" font-family="Times,serif" font-size="14.00">de</text>
</g>
<!-- 0&#45;&gt;18 -->
<g id="edge18" class="edge">
<title>0&#45;&gt;18</title>
<path fill="none" stroke="black" d="M877.79,-103.7C947.27,-102.55 1137.97,-96.86 1293.84,-69 1347.03,-59.49 1360.24,-54.93 1410.84,-36 1412.69,-35.31 1414.57,-34.56 1416.46,-33.78"/>
<polygon fill="black" stroke="black" points="1418.04,-36.9 1425.78,-29.66 1415.21,-30.5 1418.04,-36.9"/>
<text text-anchor="middle" x="1373.34" y="-57.8" font-family="Times,serif" font-size="14.00">dep</text>
</g>
<!-- 19 -->
<g id="node20" class="node">
<title>19</title>
<ellipse fill="none" stroke="black" cx="1543.84" cy="-18" rx="51.99" ry="18"/>
<text text-anchor="middle" x="1543.84" y="-14.3" font-family="Times,serif" font-size="14.00">Cavalera</text>
</g>
<!-- 0&#45;&gt;19 -->
<g id="edge19" class="edge">
<title>0&#45;&gt;19</title>
<path fill="none" stroke="black" d="M877.98,-103.14C973.08,-100 1290.87,-88.26 1390.84,-69 1429.47,-61.56 1471.88,-47.18 1502.23,-35.75"/>
<polygon fill="black" stroke="black" points="1503.55,-38.99 1511.64,-32.15 1501.05,-32.45 1503.55,-38.99"/>
<text text-anchor="middle" x="1460.34" y="-57.8" font-family="Times,serif" font-size="14.00">dep</text>
</g>
<!-- 20 -->
<g id="node21" class="node">
<title>20</title>
<ellipse fill="none" stroke="black" cx="1640.84" cy="-18" rx="27" ry="18"/>
<text text-anchor="middle" x="1640.84" y="-14.3" font-family="Times,serif" font-size="14.00">.</text>
</g>
<!-- 0&#45;&gt;20 -->
<g id="edge20" class="edge">
<title>0&#45;&gt;20</title>
<path fill="none" stroke="black" d="M877.93,-104.4C965.39,-105.27 1247.87,-104.93 1477.84,-69 1535.46,-60 1550.02,-55.87 1604.84,-36 1606.7,-35.33 1608.58,-34.6 1610.47,-33.82"/>
<polygon fill="black" stroke="black" points="1612.05,-36.96 1619.8,-29.74 1609.24,-30.54 1612.05,-36.96"/>
<text text-anchor="middle" x="1565.34" y="-57.8" font-family="Times,serif" font-size="14.00">dep</text>
</g>
</g>
</svg>
