<?xml version="1.0" encoding="UTF-8" standalone="no"?>
<!DOCTYPE svg PUBLIC "-//W3C//DTD SVG 1.1//EN"
 "http://www.w3.org/Graphics/SVG/1.1/DTD/svg11.dtd">
<!-- Generated by graphviz version 2.42.4 (0)
 -->
<!-- Pages: 1 -->
<svg width="3312pt" height="131pt"
 viewBox="0.00 0.00 3311.55 131.00" xmlns="http://www.w3.org/2000/svg" xmlns:xlink="http://www.w3.org/1999/xlink">
<g id="graph0" class="graph" transform="scale(1 1) rotate(0) translate(4 127)">
<polygon fill="white" stroke="transparent" points="-4,4 -4,-127 3307.55,-127 3307.55,4 -4,4"/>
<!-- 0 -->
<g id="node1" class="node">
<title>0</title>
<ellipse fill="none" stroke="black" cx="1738.55" cy="-105" rx="50.09" ry="18"/>
<text text-anchor="middle" x="1738.55" y="-101.3" font-family="Times,serif" font-size="14.00">Também</text>
</g>
<!-- 1 -->
<g id="node2" class="node">
<title>1</title>
<ellipse fill="none" stroke="black" cx="30.55" cy="-18" rx="30.59" ry="18"/>
<text text-anchor="middle" x="30.55" y="-14.3" font-family="Times,serif" font-size="14.00">uma</text>
</g>
<!-- 0&#45;&gt;1 -->
<g id="edge1" class="edge">
<title>0&#45;&gt;1</title>
<path fill="none" stroke="black" d="M1688.34,-103.61C1438.88,-101.59 338.57,-91.46 187.55,-69 133.68,-60.99 120.85,-54.26 69.55,-36 67.46,-35.26 65.32,-34.45 63.17,-33.61"/>
<polygon fill="black" stroke="black" points="64.43,-30.34 53.85,-29.78 61.77,-36.82 64.43,-30.34"/>
<text text-anchor="middle" x="201.05" y="-57.8" font-family="Times,serif" font-size="14.00">dep</text>
</g>
<!-- 2 -->
<g id="node3" class="node">
<title>2</title>
<ellipse fill="none" stroke="black" cx="133.55" cy="-18" rx="54.69" ry="18"/>
<text text-anchor="middle" x="133.55" y="-14.3" font-family="Times,serif" font-size="14.00">residente</text>
</g>
<!-- 0&#45;&gt;2 -->
<g id="edge2" class="edge">
<title>0&#45;&gt;2</title>
<path fill="none" stroke="black" d="M1688.29,-103.76C1447.08,-102.46 413.87,-95.39 272.55,-69 237.82,-62.52 200.22,-48.53 172.89,-37"/>
<polygon fill="black" stroke="black" points="174.24,-33.77 163.67,-33.04 171.48,-40.2 174.24,-33.77"/>
<text text-anchor="middle" x="286.05" y="-57.8" font-family="Times,serif" font-size="14.00">dep</text>
</g>
<!-- 3 -->
<g id="node4" class="node">
<title>3</title>
<ellipse fill="none" stroke="black" cx="233.55" cy="-18" rx="27" ry="18"/>
<text text-anchor="middle" x="233.55" y="-14.3" font-family="Times,serif" font-size="14.00">há</text>
</g>
<!-- 0&#45;&gt;3 -->
<g id="edge3" class="edge">
<title>0&#45;&gt;3</title>
<path fill="none" stroke="black" d="M1688.57,-103.83C1455.53,-102.91 481.41,-97.38 348.55,-69 317.81,-62.43 285.17,-47.37 262.54,-35.48"/>
<polygon fill="black" stroke="black" points="263.96,-32.27 253.49,-30.62 260.64,-38.44 263.96,-32.27"/>
<text text-anchor="middle" x="362.05" y="-57.8" font-family="Times,serif" font-size="14.00">dep</text>
</g>
<!-- 4 -->
<g id="node5" class="node">
<title>4</title>
<ellipse fill="none" stroke="black" cx="305.55" cy="-18" rx="27" ry="18"/>
<text text-anchor="middle" x="305.55" y="-14.3" font-family="Times,serif" font-size="14.00">30</text>
</g>
<!-- 0&#45;&gt;4 -->
<g id="edge4" class="edge">
<title>0&#45;&gt;4</title>
<path fill="none" stroke="black" d="M1688.45,-103.67C1463.56,-102.03 552.67,-93.91 427.55,-69 394.45,-62.41 359.01,-46.83 334.91,-34.8"/>
<polygon fill="black" stroke="black" points="336.44,-31.65 325.94,-30.22 333.26,-37.88 336.44,-31.65"/>
<text text-anchor="middle" x="441.05" y="-57.8" font-family="Times,serif" font-size="14.00">dep</text>
</g>
<!-- 5 -->
<g id="node6" class="node">
<title>5</title>
<ellipse fill="none" stroke="black" cx="382.55" cy="-18" rx="32.49" ry="18"/>
<text text-anchor="middle" x="382.55" y="-14.3" font-family="Times,serif" font-size="14.00">anos</text>
</g>
<!-- 0&#45;&gt;5 -->
<g id="edge5" class="edge">
<title>0&#45;&gt;5</title>
<path fill="none" stroke="black" d="M1688.64,-103.6C1472.69,-101.71 624.4,-92.85 507.55,-69 474.59,-62.27 439.19,-47.31 414.51,-35.5"/>
<polygon fill="black" stroke="black" points="415.79,-32.23 405.27,-30.98 412.72,-38.52 415.79,-32.23"/>
<text text-anchor="middle" x="521.05" y="-57.8" font-family="Times,serif" font-size="14.00">dep</text>
</g>
<!-- 6 -->
<g id="node7" class="node">
<title>6</title>
<ellipse fill="none" stroke="black" cx="459.55" cy="-18" rx="27" ry="18"/>
<text text-anchor="middle" x="459.55" y="-14.3" font-family="Times,serif" font-size="14.00">em</text>
</g>
<!-- 0&#45;&gt;6 -->
<g id="edge6" class="edge">
<title>0&#45;&gt;6</title>
<path fill="none" stroke="black" d="M1688.5,-103.39C1481.42,-100.74 697.44,-89.46 588.55,-69 553.17,-62.35 515.01,-46.36 489.44,-34.23"/>
<polygon fill="black" stroke="black" points="490.82,-31.01 480.29,-29.8 487.77,-37.31 490.82,-31.01"/>
<text text-anchor="middle" x="602.05" y="-57.8" font-family="Times,serif" font-size="14.00">dep</text>
</g>
<!-- 7 -->
<g id="node8" class="node">
<title>7</title>
<ellipse fill="none" stroke="black" cx="531.55" cy="-18" rx="27" ry="18"/>
<text text-anchor="middle" x="531.55" y="-14.3" font-family="Times,serif" font-size="14.00">os</text>
</g>
<!-- 0&#45;&gt;7 -->
<g id="edge7" class="edge">
<title>0&#45;&gt;7</title>
<path fill="none" stroke="black" d="M1688.38,-103.87C1506.9,-103.18 884.9,-98.63 688.55,-69 633.43,-60.68 619.84,-55.31 567.55,-36 565.7,-35.32 563.82,-34.58 561.93,-33.8"/>
<polygon fill="black" stroke="black" points="563.17,-30.52 552.6,-29.7 560.35,-36.93 563.17,-30.52"/>
<text text-anchor="middle" x="702.05" y="-57.8" font-family="Times,serif" font-size="14.00">dep</text>
</g>
<!-- 8 -->
<g id="node9" class="node">
<title>8</title>
<ellipse fill="none" stroke="black" cx="626.55" cy="-18" rx="50.09" ry="18"/>
<text text-anchor="middle" x="626.55" y="-14.3" font-family="Times,serif" font-size="14.00">Moinhos</text>
</g>
<!-- 0&#45;&gt;8 -->
<g id="edge8" class="edge">
<title>0&#45;&gt;8</title>
<path fill="none" stroke="black" d="M1688.52,-104.12C1516.6,-104.23 950.87,-102.02 772.55,-69 735.51,-62.14 695.11,-47.73 666.22,-36.14"/>
<polygon fill="black" stroke="black" points="667.47,-32.87 656.88,-32.33 664.82,-39.35 667.47,-32.87"/>
<text text-anchor="middle" x="786.05" y="-57.8" font-family="Times,serif" font-size="14.00">dep</text>
</g>
<!-- 9 -->
<g id="node10" class="node">
<title>9</title>
<ellipse fill="none" stroke="black" cx="721.55" cy="-18" rx="27" ry="18"/>
<text text-anchor="middle" x="721.55" y="-14.3" font-family="Times,serif" font-size="14.00">de</text>
</g>
<!-- 0&#45;&gt;9 -->
<g id="edge9" class="edge">
<title>0&#45;&gt;9</title>
<path fill="none" stroke="black" d="M1688.36,-103.89C1526.15,-103.22 1017.08,-98.76 855.55,-69 818.57,-62.19 778.46,-45.94 751.86,-33.81"/>
<polygon fill="black" stroke="black" points="753.24,-30.59 742.7,-29.55 750.29,-36.94 753.24,-30.59"/>
<text text-anchor="middle" x="869.05" y="-57.8" font-family="Times,serif" font-size="14.00">dep</text>
</g>
<!-- 10 -->
<g id="node11" class="node">
<title>10</title>
<ellipse fill="none" stroke="black" cx="793.55" cy="-18" rx="27" ry="18"/>
<text text-anchor="middle" x="793.55" y="-14.3" font-family="Times,serif" font-size="14.00">a</text>
</g>
<!-- 0&#45;&gt;10 -->
<g id="edge10" class="edge">
<title>0&#45;&gt;10</title>
<path fill="none" stroke="black" d="M1688.76,-102.96C1541.3,-99.68 1108.44,-88.61 968.55,-69 905.67,-60.19 889.47,-57 829.55,-36 827.64,-35.33 825.7,-34.59 823.75,-33.81"/>
<polygon fill="black" stroke="black" points="824.74,-30.42 814.18,-29.64 821.95,-36.84 824.74,-30.42"/>
<text text-anchor="middle" x="982.05" y="-57.8" font-family="Times,serif" font-size="14.00">dep</text>
</g>
<!-- 11 -->
<g id="node12" class="node">
<title>11</title>
<ellipse fill="none" stroke="black" cx="896.55" cy="-18" rx="57.69" ry="18"/>
<text text-anchor="middle" x="896.55" y="-14.3" font-family="Times,serif" font-size="14.00">Funcheira</text>
</g>
<!-- 0&#45;&gt;11 -->
<g id="edge11" class="edge">
<title>0&#45;&gt;11</title>
<path fill="none" stroke="black" d="M1688.49,-103.05C1552.57,-100.2 1178.76,-90.59 1057.55,-69 1017.07,-61.79 972.54,-47.44 940.59,-35.95"/>
<polygon fill="black" stroke="black" points="941.69,-32.63 931.1,-32.49 939.29,-39.21 941.69,-32.63"/>
<text text-anchor="middle" x="1071.05" y="-57.8" font-family="Times,serif" font-size="14.00">dep</text>
</g>
<!-- 12 -->
<g id="node13" class="node">
<title>12</title>
<ellipse fill="none" stroke="black" cx="999.55" cy="-18" rx="27" ry="18"/>
<text text-anchor="middle" x="999.55" y="-14.3" font-family="Times,serif" font-size="14.00">,</text>
</g>
<!-- 0&#45;&gt;12 -->
<g id="edge12" class="edge">
<title>0&#45;&gt;12</title>
<path fill="none" stroke="black" d="M1688.24,-104.49C1586.77,-104.71 1350.61,-101.31 1155.55,-69 1100.98,-59.96 1087.42,-55.21 1035.55,-36 1033.7,-35.32 1031.82,-34.57 1029.93,-33.79"/>
<polygon fill="black" stroke="black" points="1031.17,-30.51 1020.61,-29.69 1028.35,-36.92 1031.17,-30.51"/>
<text text-anchor="middle" x="1169.05" y="-57.8" font-family="Times,serif" font-size="14.00">dep</text>
</g>
<!-- 13 -->
<g id="node14" class="node">
<title>13</title>
<ellipse fill="none" stroke="black" cx="1082.55" cy="-18" rx="38.19" ry="18"/>
<text text-anchor="middle" x="1082.55" y="-14.3" font-family="Times,serif" font-size="14.00">Isabel</text>
</g>
<!-- 0&#45;&gt;13 -->
<g id="edge13" class="edge">
<title>0&#45;&gt;13</title>
<path fill="none" stroke="black" d="M1688.44,-103.88C1598.87,-102.9 1405.66,-97.34 1245.55,-69 1201.83,-61.26 1153.39,-45.43 1120.77,-33.64"/>
<polygon fill="black" stroke="black" points="1121.76,-30.28 1111.17,-30.13 1119.36,-36.85 1121.76,-30.28"/>
<text text-anchor="middle" x="1259.05" y="-57.8" font-family="Times,serif" font-size="14.00">dep</text>
</g>
<!-- 14 -->
<g id="node15" class="node">
<title>14</title>
<ellipse fill="none" stroke="black" cx="1186.55" cy="-18" rx="47.39" ry="18"/>
<text text-anchor="middle" x="1186.55" y="-14.3" font-family="Times,serif" font-size="14.00">Martins</text>
</g>
<!-- 0&#45;&gt;14 -->
<g id="edge14" class="edge">
<title>0&#45;&gt;14</title>
<path fill="none" stroke="black" d="M1688.59,-103.84C1610.62,-102.67 1455.64,-96.69 1327.55,-69 1292.23,-61.37 1253.67,-47.27 1225.81,-35.98"/>
<polygon fill="black" stroke="black" points="1227,-32.69 1216.43,-32.12 1224.34,-39.16 1227,-32.69"/>
<text text-anchor="middle" x="1341.05" y="-57.8" font-family="Times,serif" font-size="14.00">dep</text>
</g>
<!-- 15 -->
<g id="node16" class="node">
<title>15</title>
<ellipse fill="none" stroke="black" cx="1278.55" cy="-18" rx="27" ry="18"/>
<text text-anchor="middle" x="1278.55" y="-14.3" font-family="Times,serif" font-size="14.00">de</text>
</g>
<!-- 0&#45;&gt;15 -->
<g id="edge15" class="edge">
<title>0&#45;&gt;15</title>
<path fill="none" stroke="black" d="M1688.68,-102.61C1622.84,-99.9 1503.66,-91.99 1404.55,-69 1370.55,-61.11 1333.65,-45.58 1308.63,-33.91"/>
<polygon fill="black" stroke="black" points="1309.86,-30.62 1299.32,-29.5 1306.86,-36.95 1309.86,-30.62"/>
<text text-anchor="middle" x="1418.05" y="-57.8" font-family="Times,serif" font-size="14.00">dep</text>
</g>
<!-- 16 -->
<g id="node17" class="node">
<title>16</title>
<ellipse fill="none" stroke="black" cx="1350.55" cy="-18" rx="27" ry="18"/>
<text text-anchor="middle" x="1350.55" y="-14.3" font-family="Times,serif" font-size="14.00">a</text>
</g>
<!-- 0&#45;&gt;16 -->
<g id="edge16" class="edge">
<title>0&#45;&gt;16</title>
<path fill="none" stroke="black" d="M1690.43,-99.85C1639.57,-94.87 1557.21,-85.1 1487.55,-69 1441.54,-58.36 1430.43,-53.45 1386.55,-36 1384.72,-35.27 1382.85,-34.5 1380.97,-33.69"/>
<polygon fill="black" stroke="black" points="1382.23,-30.42 1371.67,-29.52 1379.36,-36.8 1382.23,-30.42"/>
<text text-anchor="middle" x="1501.05" y="-57.8" font-family="Times,serif" font-size="14.00">dep</text>
</g>
<!-- 17 -->
<g id="node18" class="node">
<title>17</title>
<ellipse fill="none" stroke="black" cx="1429.55" cy="-18" rx="33.6" ry="18"/>
<text text-anchor="middle" x="1429.55" y="-14.3" font-family="Times,serif" font-size="14.00">Silva</text>
</g>
<!-- 0&#45;&gt;17 -->
<g id="edge17" class="edge">
<title>0&#45;&gt;17</title>
<path fill="none" stroke="black" d="M1693.34,-97.11C1657.29,-91.13 1605.71,-81.47 1561.55,-69 1520.95,-57.54 1511.94,-51.09 1472.55,-36 1470.19,-35.1 1467.75,-34.16 1465.31,-33.2"/>
<polygon fill="black" stroke="black" points="1466.48,-29.91 1455.89,-29.52 1463.93,-36.42 1466.48,-29.91"/>
<text text-anchor="middle" x="1575.05" y="-57.8" font-family="Times,serif" font-size="14.00">dep</text>
</g>
<!-- 18 -->
<g id="node19" class="node">
<title>18</title>
<ellipse fill="none" stroke="black" cx="1508.55" cy="-18" rx="27" ry="18"/>
<text text-anchor="middle" x="1508.55" y="-14.3" font-family="Times,serif" font-size="14.00">,</text>
</g>
<!-- 0&#45;&gt;18 -->
<g id="edge18" class="edge">
<title>0&#45;&gt;18</title>
<path fill="none" stroke="black" d="M1701.97,-92.57C1662.61,-79.95 1598.42,-58.43 1544.55,-36 1542.73,-35.24 1540.87,-34.44 1539,-33.62"/>
<polygon fill="black" stroke="black" points="1540.27,-30.35 1529.72,-29.4 1537.37,-36.73 1540.27,-30.35"/>
<text text-anchor="middle" x="1643.05" y="-57.8" font-family="Times,serif" font-size="14.00">dep</text>
</g>
<!-- 19 -->
<g id="node20" class="node">
<title>19</title>
<ellipse fill="none" stroke="black" cx="1609.55" cy="-18" rx="55.79" ry="18"/>
<text text-anchor="middle" x="1609.55" y="-14.3" font-family="Times,serif" font-size="14.00">considera</text>
</g>
<!-- 0&#45;&gt;19 -->
<g id="edge19" class="edge">
<title>0&#45;&gt;19</title>
<path fill="none" stroke="black" d="M1715.48,-88.8C1694.92,-75.25 1664.61,-55.28 1641.68,-40.17"/>
<polygon fill="black" stroke="black" points="1643.56,-37.22 1633.28,-34.64 1639.71,-43.06 1643.56,-37.22"/>
<text text-anchor="middle" x="1696.05" y="-57.8" font-family="Times,serif" font-size="14.00">dep</text>
</g>
<!-- 20 -->
<g id="node21" class="node">
<title>20</title>
<ellipse fill="none" stroke="black" cx="1738.55" cy="-18" rx="55.49" ry="18"/>
<text text-anchor="middle" x="1738.55" y="-14.3" font-family="Times,serif" font-size="14.00">excessivo</text>
</g>
<!-- 0&#45;&gt;20 -->
<g id="edge20" class="edge">
<title>0&#45;&gt;20</title>
<path fill="none" stroke="black" d="M1738.55,-86.8C1738.55,-75.16 1738.55,-59.55 1738.55,-46.24"/>
<polygon fill="black" stroke="black" points="1742.05,-46.18 1738.55,-36.18 1735.05,-46.18 1742.05,-46.18"/>
<text text-anchor="middle" x="1752.05" y="-57.8" font-family="Times,serif" font-size="14.00">dep</text>
</g>
<!-- 21 -->
<g id="node22" class="node">
<title>21</title>
<ellipse fill="none" stroke="black" cx="1838.55" cy="-18" rx="27" ry="18"/>
<text text-anchor="middle" x="1838.55" y="-14.3" font-family="Times,serif" font-size="14.00">o</text>
</g>
<!-- 0&#45;&gt;21 -->
<g id="edge21" class="edge">
<title>0&#45;&gt;21</title>
<path fill="none" stroke="black" d="M1757.36,-88.01C1773.5,-74.29 1796.86,-54.43 1814.39,-39.54"/>
<polygon fill="black" stroke="black" points="1817.11,-41.81 1822.46,-32.67 1812.58,-36.48 1817.11,-41.81"/>
<text text-anchor="middle" x="1808.05" y="-57.8" font-family="Times,serif" font-size="14.00">dep</text>
</g>
<!-- 22 -->
<g id="node23" class="node">
<title>22</title>
<ellipse fill="none" stroke="black" cx="1911.55" cy="-18" rx="27.9" ry="18"/>
<text text-anchor="middle" x="1911.55" y="-14.3" font-family="Times,serif" font-size="14.00">que</text>
</g>
<!-- 0&#45;&gt;22 -->
<g id="edge22" class="edge">
<title>0&#45;&gt;22</title>
<path fill="none" stroke="black" d="M1772.5,-91.65C1788.79,-85.39 1808.43,-77.36 1825.55,-69 1845.45,-59.27 1866.99,-46.75 1883.54,-36.66"/>
<polygon fill="black" stroke="black" points="1885.5,-39.57 1892.18,-31.34 1881.83,-33.61 1885.5,-39.57"/>
<text text-anchor="middle" x="1866.05" y="-57.8" font-family="Times,serif" font-size="14.00">dep</text>
</g>
<!-- 23 -->
<g id="node24" class="node">
<title>23</title>
<ellipse fill="none" stroke="black" cx="1996.55" cy="-18" rx="38.99" ry="18"/>
<text text-anchor="middle" x="1996.55" y="-14.3" font-family="Times,serif" font-size="14.00">pagou</text>
</g>
<!-- 0&#45;&gt;23 -->
<g id="edge23" class="edge">
<title>0&#45;&gt;23</title>
<path fill="none" stroke="black" d="M1781.63,-95.72C1810.78,-89.61 1849.95,-80.39 1883.55,-69 1910.45,-59.88 1939.75,-46.82 1961.78,-36.34"/>
<polygon fill="black" stroke="black" points="1963.55,-39.36 1971.04,-31.87 1960.51,-33.06 1963.55,-39.36"/>
<text text-anchor="middle" x="1936.05" y="-57.8" font-family="Times,serif" font-size="14.00">dep</text>
</g>
<!-- 24 -->
<g id="node25" class="node">
<title>24</title>
<ellipse fill="none" stroke="black" cx="2080.55" cy="-18" rx="27" ry="18"/>
<text text-anchor="middle" x="2080.55" y="-14.3" font-family="Times,serif" font-size="14.00">por</text>
</g>
<!-- 0&#45;&gt;24 -->
<g id="edge24" class="edge">
<title>0&#45;&gt;24</title>
<path fill="none" stroke="black" d="M1786.05,-98.85C1829.97,-93.48 1896.82,-83.77 1953.55,-69 1995.18,-58.16 2004.83,-52.54 2044.55,-36 2046.37,-35.24 2048.23,-34.44 2050.09,-33.62"/>
<polygon fill="black" stroke="black" points="2051.72,-36.73 2059.37,-29.4 2048.82,-30.35 2051.72,-36.73"/>
<text text-anchor="middle" x="2015.05" y="-57.8" font-family="Times,serif" font-size="14.00">dep</text>
</g>
<!-- 25 -->
<g id="node26" class="node">
<title>25</title>
<ellipse fill="none" stroke="black" cx="2152.55" cy="-18" rx="27" ry="18"/>
<text text-anchor="middle" x="2152.55" y="-14.3" font-family="Times,serif" font-size="14.00">a</text>
</g>
<!-- 0&#45;&gt;25 -->
<g id="edge25" class="edge">
<title>0&#45;&gt;25</title>
<path fill="none" stroke="black" d="M1787.88,-101.98C1846.86,-98.68 1948.18,-90.22 2032.55,-69 2064.48,-60.97 2098.99,-45.85 2122.77,-34.33"/>
<polygon fill="black" stroke="black" points="2124.53,-37.37 2131.95,-29.81 2121.44,-31.09 2124.53,-37.37"/>
<text text-anchor="middle" x="2091.05" y="-57.8" font-family="Times,serif" font-size="14.00">dep</text>
</g>
<!-- 26 -->
<g id="node27" class="node">
<title>26</title>
<ellipse fill="none" stroke="black" cx="2241.55" cy="-18" rx="43.59" ry="18"/>
<text text-anchor="middle" x="2241.55" y="-14.3" font-family="Times,serif" font-size="14.00">ligação</text>
</g>
<!-- 0&#45;&gt;26 -->
<g id="edge26" class="edge">
<title>0&#45;&gt;26</title>
<path fill="none" stroke="black" d="M1788.59,-103.45C1860.34,-101.73 1996.17,-94.95 2108.55,-69 2141.94,-61.29 2178.26,-47.22 2204.5,-35.97"/>
<polygon fill="black" stroke="black" points="2205.91,-39.17 2213.68,-31.96 2203.12,-32.75 2205.91,-39.17"/>
<text text-anchor="middle" x="2171.05" y="-57.8" font-family="Times,serif" font-size="14.00">dep</text>
</g>
<!-- 27 -->
<g id="node28" class="node">
<title>27</title>
<ellipse fill="none" stroke="black" cx="2330.55" cy="-18" rx="27" ry="18"/>
<text text-anchor="middle" x="2330.55" y="-14.3" font-family="Times,serif" font-size="14.00">de</text>
</g>
<!-- 0&#45;&gt;27 -->
<g id="edge27" class="edge">
<title>0&#45;&gt;27</title>
<path fill="none" stroke="black" d="M1788.64,-103.75C1872.25,-102.52 2045.22,-96.52 2188.55,-69 2237,-59.7 2248.57,-53.91 2294.55,-36 2296.38,-35.28 2298.26,-34.52 2300.14,-33.72"/>
<polygon fill="black" stroke="black" points="2301.74,-36.84 2309.44,-29.57 2298.88,-30.45 2301.74,-36.84"/>
<text text-anchor="middle" x="2260.05" y="-57.8" font-family="Times,serif" font-size="14.00">dep</text>
</g>
<!-- 28 -->
<g id="node29" class="node">
<title>28</title>
<ellipse fill="none" stroke="black" cx="2421.55" cy="-18" rx="46.29" ry="18"/>
<text text-anchor="middle" x="2421.55" y="-14.3" font-family="Times,serif" font-size="14.00">esgotos</text>
</g>
<!-- 0&#45;&gt;28 -->
<g id="edge28" class="edge">
<title>0&#45;&gt;28</title>
<path fill="none" stroke="black" d="M1788.41,-102.48C1903.49,-98.68 2184.83,-87.75 2277.55,-69 2313.98,-61.63 2353.77,-47.3 2382.28,-35.86"/>
<polygon fill="black" stroke="black" points="2383.93,-38.97 2391.87,-31.95 2381.29,-32.49 2383.93,-38.97"/>
<text text-anchor="middle" x="2344.05" y="-57.8" font-family="Times,serif" font-size="14.00">dep</text>
</g>
<!-- 29 -->
<g id="node30" class="node">
<title>29</title>
<ellipse fill="none" stroke="black" cx="2512.55" cy="-18" rx="27" ry="18"/>
<text text-anchor="middle" x="2512.55" y="-14.3" font-family="Times,serif" font-size="14.00">,</text>
</g>
<!-- 0&#45;&gt;29 -->
<g id="edge29" class="edge">
<title>0&#45;&gt;29</title>
<path fill="none" stroke="black" d="M1788.43,-102.64C1915.98,-98.91 2251.67,-87.61 2361.55,-69 2413.97,-60.12 2426.79,-54.75 2476.55,-36 2478.39,-35.31 2480.27,-34.55 2482.15,-33.77"/>
<polygon fill="black" stroke="black" points="2483.74,-36.89 2491.47,-29.65 2480.91,-30.49 2483.74,-36.89"/>
<text text-anchor="middle" x="2440.05" y="-57.8" font-family="Times,serif" font-size="14.00">dep</text>
</g>
<!-- 30 -->
<g id="node31" class="node">
<title>30</title>
<ellipse fill="none" stroke="black" cx="2586.55" cy="-18" rx="28.7" ry="18"/>
<text text-anchor="middle" x="2586.55" y="-14.3" font-family="Times,serif" font-size="14.00">181</text>
</g>
<!-- 0&#45;&gt;30 -->
<g id="edge30" class="edge">
<title>0&#45;&gt;30</title>
<path fill="none" stroke="black" d="M1788.65,-103.5C1929.88,-101.8 2329.28,-94.77 2457.55,-69 2492.42,-61.99 2530.11,-46.36 2555.69,-34.43"/>
<polygon fill="black" stroke="black" points="2557.35,-37.52 2564.87,-30.06 2554.34,-31.2 2557.35,-37.52"/>
<text text-anchor="middle" x="2522.05" y="-57.8" font-family="Times,serif" font-size="14.00">dep</text>
</g>
<!-- 31 -->
<g id="node32" class="node">
<title>31</title>
<ellipse fill="none" stroke="black" cx="2674.55" cy="-18" rx="40.89" ry="18"/>
<text text-anchor="middle" x="2674.55" y="-14.3" font-family="Times,serif" font-size="14.00">contos</text>
</g>
<!-- 0&#45;&gt;31 -->
<g id="edge31" class="edge">
<title>0&#45;&gt;31</title>
<path fill="none" stroke="black" d="M1788.58,-103.84C1940.51,-103.04 2394.92,-98.2 2539.55,-69 2574.24,-62 2611.86,-47.44 2638.55,-35.83"/>
<polygon fill="black" stroke="black" points="2640.14,-38.96 2647.87,-31.71 2637.31,-32.56 2640.14,-38.96"/>
<text text-anchor="middle" x="2603.05" y="-57.8" font-family="Times,serif" font-size="14.00">dep</text>
</g>
<!-- 32 -->
<g id="node33" class="node">
<title>32</title>
<ellipse fill="none" stroke="black" cx="2760.55" cy="-18" rx="27" ry="18"/>
<text text-anchor="middle" x="2760.55" y="-14.3" font-family="Times,serif" font-size="14.00">,</text>
</g>
<!-- 0&#45;&gt;32 -->
<g id="edge32" class="edge">
<title>0&#45;&gt;32</title>
<path fill="none" stroke="black" d="M1788.65,-103.77C1950.62,-102.75 2458.94,-97.32 2620.55,-69 2668.31,-60.63 2679.41,-53.73 2724.55,-36 2726.38,-35.28 2728.25,-34.51 2730.13,-33.71"/>
<polygon fill="black" stroke="black" points="2731.73,-36.83 2739.43,-29.55 2728.88,-30.44 2731.73,-36.83"/>
<text text-anchor="middle" x="2693.05" y="-57.8" font-family="Times,serif" font-size="14.00">dep</text>
</g>
<!-- 33 -->
<g id="node34" class="node">
<title>33</title>
<ellipse fill="none" stroke="black" cx="2832.55" cy="-18" rx="27" ry="18"/>
<text text-anchor="middle" x="2832.55" y="-14.3" font-family="Times,serif" font-size="14.00">e</text>
</g>
<!-- 0&#45;&gt;33 -->
<g id="edge33" class="edge">
<title>0&#45;&gt;33</title>
<path fill="none" stroke="black" d="M1788.63,-104.37C1961.41,-105.31 2531.65,-105.49 2710.55,-69 2743.61,-62.26 2779.06,-46.7 2803.17,-34.71"/>
<polygon fill="black" stroke="black" points="2804.81,-37.81 2812.14,-30.16 2801.64,-31.56 2804.81,-37.81"/>
<text text-anchor="middle" x="2773.05" y="-57.8" font-family="Times,serif" font-size="14.00">dep</text>
</g>
<!-- 34 -->
<g id="node35" class="node">
<title>34</title>
<ellipse fill="none" stroke="black" cx="2904.55" cy="-18" rx="27" ry="18"/>
<text text-anchor="middle" x="2904.55" y="-14.3" font-family="Times,serif" font-size="14.00">de</text>
</g>
<!-- 0&#45;&gt;34 -->
<g id="edge34" class="edge">
<title>0&#45;&gt;34</title>
<path fill="none" stroke="black" d="M1788.62,-103.41C1984.41,-100.95 2692.28,-90.64 2790.55,-69 2821.02,-62.29 2853.38,-47.25 2875.81,-35.4"/>
<polygon fill="black" stroke="black" points="2877.64,-38.39 2884.77,-30.56 2874.31,-32.23 2877.64,-38.39"/>
<text text-anchor="middle" x="2850.05" y="-57.8" font-family="Times,serif" font-size="14.00">dep</text>
</g>
<!-- 35 -->
<g id="node36" class="node">
<title>35</title>
<ellipse fill="none" stroke="black" cx="2976.55" cy="-18" rx="27" ry="18"/>
<text text-anchor="middle" x="2976.55" y="-14.3" font-family="Times,serif" font-size="14.00">a</text>
</g>
<!-- 0&#45;&gt;35 -->
<g id="edge35" class="edge">
<title>0&#45;&gt;35</title>
<path fill="none" stroke="black" d="M1788.77,-103.6C1993.83,-101.81 2761.76,-93.52 2867.55,-69 2896.52,-62.28 2927.1,-47.49 2948.47,-35.73"/>
<polygon fill="black" stroke="black" points="2950.33,-38.7 2957.32,-30.74 2946.89,-32.61 2950.33,-38.7"/>
<text text-anchor="middle" x="2925.05" y="-57.8" font-family="Times,serif" font-size="14.00">dep</text>
</g>
<!-- 36 -->
<g id="node37" class="node">
<title>36</title>
<ellipse fill="none" stroke="black" cx="3054.55" cy="-18" rx="33.29" ry="18"/>
<text text-anchor="middle" x="3054.55" y="-14.3" font-family="Times,serif" font-size="14.00">água</text>
</g>
<!-- 0&#45;&gt;36 -->
<g id="edge36" class="edge">
<title>0&#45;&gt;36</title>
<path fill="none" stroke="black" d="M1788.82,-103.69C2002.43,-102.22 2829.08,-94.91 2942.55,-69 2971.43,-62.41 3002,-48.21 3023.89,-36.63"/>
<polygon fill="black" stroke="black" points="3025.58,-39.69 3032.71,-31.85 3022.25,-33.53 3025.58,-39.69"/>
<text text-anchor="middle" x="3001.05" y="-57.8" font-family="Times,serif" font-size="14.00">dep</text>
</g>
<!-- 37 -->
<g id="node38" class="node">
<title>37</title>
<ellipse fill="none" stroke="black" cx="3132.55" cy="-18" rx="27" ry="18"/>
<text text-anchor="middle" x="3132.55" y="-14.3" font-family="Times,serif" font-size="14.00">,</text>
</g>
<!-- 0&#45;&gt;37 -->
<g id="edge37" class="edge">
<title>0&#45;&gt;37</title>
<path fill="none" stroke="black" d="M1788.58,-103.73C2010.12,-102.38 2897.03,-95.38 3018.55,-69 3049.04,-62.38 3081.4,-47.32 3103.82,-35.45"/>
<polygon fill="black" stroke="black" points="3105.66,-38.44 3112.78,-30.59 3102.32,-32.28 3105.66,-38.44"/>
<text text-anchor="middle" x="3078.05" y="-57.8" font-family="Times,serif" font-size="14.00">dep</text>
</g>
<!-- 38 -->
<g id="node39" class="node">
<title>38</title>
<ellipse fill="none" stroke="black" cx="3204.55" cy="-18" rx="27" ry="18"/>
<text text-anchor="middle" x="3204.55" y="-14.3" font-family="Times,serif" font-size="14.00">81</text>
</g>
<!-- 0&#45;&gt;38 -->
<g id="edge38" class="edge">
<title>0&#45;&gt;38</title>
<path fill="none" stroke="black" d="M1788.5,-103.88C2018.11,-103.19 2966.47,-98.57 3095.55,-69 3124.54,-62.36 3155.12,-47.56 3176.48,-35.77"/>
<polygon fill="black" stroke="black" points="3178.34,-38.74 3185.33,-30.78 3174.9,-32.65 3178.34,-38.74"/>
<text text-anchor="middle" x="3153.05" y="-57.8" font-family="Times,serif" font-size="14.00">dep</text>
</g>
<!-- 39 -->
<g id="node40" class="node">
<title>39</title>
<ellipse fill="none" stroke="black" cx="3276.55" cy="-18" rx="27" ry="18"/>
<text text-anchor="middle" x="3276.55" y="-14.3" font-family="Times,serif" font-size="14.00">.</text>
</g>
<!-- 0&#45;&gt;39 -->
<g id="edge39" class="edge">
<title>0&#45;&gt;39</title>
<path fill="none" stroke="black" d="M1788.87,-104C2026.93,-103.85 3034.12,-101.3 3170.55,-69 3198.53,-62.37 3227.93,-47.82 3248.65,-36.12"/>
<polygon fill="black" stroke="black" points="3250.62,-39.02 3257.52,-30.98 3247.11,-32.96 3250.62,-39.02"/>
<text text-anchor="middle" x="3227.05" y="-57.8" font-family="Times,serif" font-size="14.00">dep</text>
</g>
</g>
</svg>
