<?xml version="1.0" encoding="UTF-8" standalone="no"?>
<!DOCTYPE svg PUBLIC "-//W3C//DTD SVG 1.1//EN"
 "http://www.w3.org/Graphics/SVG/1.1/DTD/svg11.dtd">
<!-- Generated by graphviz version 2.42.4 (0)
 -->
<!-- Pages: 1 -->
<svg width="3290pt" height="131pt"
 viewBox="0.00 0.00 3290.00 131.00" xmlns="http://www.w3.org/2000/svg" xmlns:xlink="http://www.w3.org/1999/xlink">
<g id="graph0" class="graph" transform="scale(1 1) rotate(0) translate(4 127)">
<polygon fill="white" stroke="transparent" points="-4,4 -4,-127 3286,-127 3286,4 -4,4"/>
<!-- 0 -->
<g id="node1" class="node">
<title>0</title>
<ellipse fill="none" stroke="black" cx="1723" cy="-105" rx="27" ry="18"/>
<text text-anchor="middle" x="1723" y="-101.3" font-family="Times,serif" font-size="14.00">Por</text>
</g>
<!-- 1 -->
<g id="node2" class="node">
<title>1</title>
<ellipse fill="none" stroke="black" cx="27" cy="-18" rx="27" ry="18"/>
<text text-anchor="middle" x="27" y="-14.3" font-family="Times,serif" font-size="14.00">o</text>
</g>
<!-- 0&#45;&gt;1 -->
<g id="edge1" class="edge">
<title>0&#45;&gt;1</title>
<path fill="none" stroke="black" d="M1695.76,-103.99C1499.33,-103.8 302.62,-101.34 145,-69 113.2,-62.47 79.32,-47.15 56.06,-35.17"/>
<polygon fill="black" stroke="black" points="57.56,-32.01 47.08,-30.44 54.3,-38.2 57.56,-32.01"/>
<text text-anchor="middle" x="158.5" y="-57.8" font-family="Times,serif" font-size="14.00">dep</text>
</g>
<!-- 2 -->
<g id="node3" class="node">
<title>2</title>
<ellipse fill="none" stroke="black" cx="99" cy="-18" rx="27" ry="18"/>
<text text-anchor="middle" x="99" y="-14.3" font-family="Times,serif" font-size="14.00">uso</text>
</g>
<!-- 0&#45;&gt;2 -->
<g id="edge2" class="edge">
<title>0&#45;&gt;2</title>
<path fill="none" stroke="black" d="M1695.96,-103.89C1506.06,-103.09 375.71,-97.11 226,-69 191.1,-62.45 153.54,-46.43 128.4,-34.28"/>
<polygon fill="black" stroke="black" points="129.91,-31.13 119.4,-29.84 126.82,-37.4 129.91,-31.13"/>
<text text-anchor="middle" x="239.5" y="-57.8" font-family="Times,serif" font-size="14.00">dep</text>
</g>
<!-- 3 -->
<g id="node4" class="node">
<title>3</title>
<ellipse fill="none" stroke="black" cx="171" cy="-18" rx="27" ry="18"/>
<text text-anchor="middle" x="171" y="-14.3" font-family="Times,serif" font-size="14.00">de</text>
</g>
<!-- 0&#45;&gt;3 -->
<g id="edge3" class="edge">
<title>0&#45;&gt;3</title>
<path fill="none" stroke="black" d="M1696,-103.73C1513.51,-101.89 463.39,-90.37 323,-69 270.01,-60.93 257.18,-54.84 207,-36 205.16,-35.31 203.28,-34.56 201.39,-33.77"/>
<polygon fill="black" stroke="black" points="202.63,-30.5 192.07,-29.66 199.8,-36.9 202.63,-30.5"/>
<text text-anchor="middle" x="336.5" y="-57.8" font-family="Times,serif" font-size="14.00">dep</text>
</g>
<!-- 4 -->
<g id="node5" class="node">
<title>4</title>
<ellipse fill="none" stroke="black" cx="247" cy="-18" rx="30.59" ry="18"/>
<text text-anchor="middle" x="247" y="-14.3" font-family="Times,serif" font-size="14.00">uma</text>
</g>
<!-- 0&#45;&gt;4 -->
<g id="edge4" class="edge">
<title>0&#45;&gt;4</title>
<path fill="none" stroke="black" d="M1695.88,-103.84C1535.63,-102.83 710.8,-96.32 459,-69 381.18,-60.56 360.78,-59.12 286,-36 283.88,-35.34 281.72,-34.61 279.56,-33.82"/>
<polygon fill="black" stroke="black" points="280.78,-30.54 270.19,-30.11 278.2,-37.05 280.78,-30.54"/>
<text text-anchor="middle" x="472.5" y="-57.8" font-family="Times,serif" font-size="14.00">dep</text>
</g>
<!-- 5 -->
<g id="node6" class="node">
<title>5</title>
<ellipse fill="none" stroke="black" cx="355" cy="-18" rx="59.59" ry="18"/>
<text text-anchor="middle" x="355" y="-14.3" font-family="Times,serif" font-size="14.00">linguagem</text>
</g>
<!-- 0&#45;&gt;5 -->
<g id="edge5" class="edge">
<title>0&#45;&gt;5</title>
<path fill="none" stroke="black" d="M1695.94,-103.85C1544.64,-102.93 802.09,-97.03 575,-69 516.27,-61.75 450.24,-45.64 405.98,-33.66"/>
<polygon fill="black" stroke="black" points="406.89,-30.28 396.32,-31.02 405.05,-37.03 406.89,-30.28"/>
<text text-anchor="middle" x="588.5" y="-57.8" font-family="Times,serif" font-size="14.00">dep</text>
</g>
<!-- 6 -->
<g id="node7" class="node">
<title>6</title>
<ellipse fill="none" stroke="black" cx="491" cy="-18" rx="57.69" ry="18"/>
<text text-anchor="middle" x="491" y="-14.3" font-family="Times,serif" font-size="14.00">despojada</text>
</g>
<!-- 0&#45;&gt;6 -->
<g id="edge6" class="edge">
<title>0&#45;&gt;6</title>
<path fill="none" stroke="black" d="M1695.84,-103.98C1551.81,-103.71 876.32,-100.77 670,-69 624.09,-61.93 573.21,-47 537.46,-35.28"/>
<polygon fill="black" stroke="black" points="538.39,-31.91 527.8,-32.07 536.19,-38.55 538.39,-31.91"/>
<text text-anchor="middle" x="683.5" y="-57.8" font-family="Times,serif" font-size="14.00">dep</text>
</g>
<!-- 7 -->
<g id="node8" class="node">
<title>7</title>
<ellipse fill="none" stroke="black" cx="594" cy="-18" rx="27" ry="18"/>
<text text-anchor="middle" x="594" y="-14.3" font-family="Times,serif" font-size="14.00">de</text>
</g>
<!-- 0&#45;&gt;7 -->
<g id="edge7" class="edge">
<title>0&#45;&gt;7</title>
<path fill="none" stroke="black" d="M1695.85,-104.17C1586.74,-104.61 1169.73,-103.78 829,-69 739.81,-59.9 715.57,-62.73 630,-36 628.07,-35.4 626.11,-34.71 624.16,-33.97"/>
<polygon fill="black" stroke="black" points="625.12,-30.57 614.55,-29.9 622.39,-37.02 625.12,-30.57"/>
<text text-anchor="middle" x="842.5" y="-57.8" font-family="Times,serif" font-size="14.00">dep</text>
</g>
<!-- 8 -->
<g id="node9" class="node">
<title>8</title>
<ellipse fill="none" stroke="black" cx="699" cy="-18" rx="59.59" ry="18"/>
<text text-anchor="middle" x="699" y="-14.3" font-family="Times,serif" font-size="14.00">excessivas</text>
</g>
<!-- 0&#45;&gt;8 -->
<g id="edge8" class="edge">
<title>0&#45;&gt;8</title>
<path fill="none" stroke="black" d="M1695.85,-104.09C1596.13,-104.12 1240.68,-101.78 950,-69 881.49,-61.27 803.83,-44.55 753.27,-32.57"/>
<polygon fill="black" stroke="black" points="754.07,-29.16 743.53,-30.24 752.44,-35.97 754.07,-29.16"/>
<text text-anchor="middle" x="963.5" y="-57.8" font-family="Times,serif" font-size="14.00">dep</text>
</g>
<!-- 9 -->
<g id="node10" class="node">
<title>9</title>
<ellipse fill="none" stroke="black" cx="839" cy="-18" rx="61.99" ry="18"/>
<text text-anchor="middle" x="839" y="-14.3" font-family="Times,serif" font-size="14.00">conotações</text>
</g>
<!-- 0&#45;&gt;9 -->
<g id="edge9" class="edge">
<title>0&#45;&gt;9</title>
<path fill="none" stroke="black" d="M1696.01,-104.14C1605.61,-104.28 1305.31,-102.06 1060,-69 1001.65,-61.14 935.98,-45.38 891.5,-33.64"/>
<polygon fill="black" stroke="black" points="892.35,-30.24 881.78,-31.05 890.55,-37.01 892.35,-30.24"/>
<text text-anchor="middle" x="1073.5" y="-57.8" font-family="Times,serif" font-size="14.00">dep</text>
</g>
<!-- 10 -->
<g id="node11" class="node">
<title>10</title>
<ellipse fill="none" stroke="black" cx="967" cy="-18" rx="48.99" ry="18"/>
<text text-anchor="middle" x="967" y="-14.3" font-family="Times,serif" font-size="14.00">técnicas</text>
</g>
<!-- 0&#45;&gt;10 -->
<g id="edge10" class="edge">
<title>0&#45;&gt;10</title>
<path fill="none" stroke="black" d="M1695.86,-104.02C1614.29,-103.7 1364.29,-100.07 1160,-69 1108.64,-61.19 1051.16,-45.35 1012.4,-33.58"/>
<polygon fill="black" stroke="black" points="1013.06,-30.12 1002.47,-30.53 1011,-36.82 1013.06,-30.12"/>
<text text-anchor="middle" x="1173.5" y="-57.8" font-family="Times,serif" font-size="14.00">dep</text>
</g>
<!-- 11 -->
<g id="node12" class="node">
<title>11</title>
<ellipse fill="none" stroke="black" cx="1091" cy="-18" rx="57.39" ry="18"/>
<text text-anchor="middle" x="1091" y="-14.3" font-family="Times,serif" font-size="14.00">inibidoras</text>
</g>
<!-- 0&#45;&gt;11 -->
<g id="edge11" class="edge">
<title>0&#45;&gt;11</title>
<path fill="none" stroke="black" d="M1695.93,-104.21C1622.9,-104.32 1416.06,-101.48 1248,-69 1208.97,-61.46 1166.05,-47.37 1134.97,-36.07"/>
<polygon fill="black" stroke="black" points="1135.91,-32.68 1125.31,-32.51 1133.48,-39.25 1135.91,-32.68"/>
<text text-anchor="middle" x="1261.5" y="-57.8" font-family="Times,serif" font-size="14.00">dep</text>
</g>
<!-- 12 -->
<g id="node13" class="node">
<title>12</title>
<ellipse fill="none" stroke="black" cx="1193" cy="-18" rx="27" ry="18"/>
<text text-anchor="middle" x="1193" y="-14.3" font-family="Times,serif" font-size="14.00">de</text>
</g>
<!-- 0&#45;&gt;12 -->
<g id="edge12" class="edge">
<title>0&#45;&gt;12</title>
<path fill="none" stroke="black" d="M1696.06,-103.46C1632.8,-101.78 1470.06,-95.07 1337,-69 1287.75,-59.35 1275.81,-54.1 1229,-36 1227.16,-35.29 1225.29,-34.53 1223.41,-33.73"/>
<polygon fill="black" stroke="black" points="1224.66,-30.46 1214.1,-29.59 1221.81,-36.85 1224.66,-30.46"/>
<text text-anchor="middle" x="1350.5" y="-57.8" font-family="Times,serif" font-size="14.00">dep</text>
</g>
<!-- 13 -->
<g id="node14" class="node">
<title>13</title>
<ellipse fill="none" stroke="black" cx="1265" cy="-18" rx="27" ry="18"/>
<text text-anchor="middle" x="1265" y="-14.3" font-family="Times,serif" font-size="14.00">a</text>
</g>
<!-- 0&#45;&gt;13 -->
<g id="edge13" class="edge">
<title>0&#45;&gt;13</title>
<path fill="none" stroke="black" d="M1696.07,-102.83C1628.05,-99.19 1444.55,-85.22 1301,-36 1299.09,-35.34 1297.14,-34.62 1295.2,-33.84"/>
<polygon fill="black" stroke="black" points="1296.18,-30.45 1285.61,-29.69 1293.4,-36.88 1296.18,-30.45"/>
<text text-anchor="middle" x="1427.5" y="-57.8" font-family="Times,serif" font-size="14.00">dep</text>
</g>
<!-- 14 -->
<g id="node15" class="node">
<title>14</title>
<ellipse fill="none" stroke="black" cx="1380" cy="-18" rx="69.59" ry="18"/>
<text text-anchor="middle" x="1380" y="-14.3" font-family="Times,serif" font-size="14.00">aproximação</text>
</g>
<!-- 0&#45;&gt;14 -->
<g id="edge14" class="edge">
<title>0&#45;&gt;14</title>
<path fill="none" stroke="black" d="M1696.7,-100.49C1659.15,-95.21 1588.17,-84.18 1529,-69 1494.33,-60.11 1456.07,-47.2 1427,-36.73"/>
<polygon fill="black" stroke="black" points="1428.11,-33.41 1417.52,-33.28 1425.72,-39.98 1428.11,-33.41"/>
<text text-anchor="middle" x="1542.5" y="-57.8" font-family="Times,serif" font-size="14.00">dep</text>
</g>
<!-- 15 -->
<g id="node16" class="node">
<title>15</title>
<ellipse fill="none" stroke="black" cx="1495" cy="-18" rx="27" ry="18"/>
<text text-anchor="middle" x="1495" y="-14.3" font-family="Times,serif" font-size="14.00">de</text>
</g>
<!-- 0&#45;&gt;15 -->
<g id="edge15" class="edge">
<title>0&#45;&gt;15</title>
<path fill="none" stroke="black" d="M1697.58,-98.81C1671.01,-93 1628.34,-82.6 1593,-69 1568.8,-59.68 1542.7,-46.19 1523.52,-35.56"/>
<polygon fill="black" stroke="black" points="1525.14,-32.45 1514.71,-30.61 1521.71,-38.56 1525.14,-32.45"/>
<text text-anchor="middle" x="1606.5" y="-57.8" font-family="Times,serif" font-size="14.00">dep</text>
</g>
<!-- 16 -->
<g id="node17" class="node">
<title>16</title>
<ellipse fill="none" stroke="black" cx="1567" cy="-18" rx="27" ry="18"/>
<text text-anchor="middle" x="1567" y="-14.3" font-family="Times,serif" font-size="14.00">o</text>
</g>
<!-- 0&#45;&gt;16 -->
<g id="edge16" class="edge">
<title>0&#45;&gt;16</title>
<path fill="none" stroke="black" d="M1701,-94.33C1686.12,-87.62 1666.14,-78.24 1649,-69 1630.35,-58.94 1610.02,-46.55 1594.26,-36.62"/>
<polygon fill="black" stroke="black" points="1595.88,-33.5 1585.56,-31.09 1592.12,-39.41 1595.88,-33.5"/>
<text text-anchor="middle" x="1662.5" y="-57.8" font-family="Times,serif" font-size="14.00">dep</text>
</g>
<!-- 17 -->
<g id="node18" class="node">
<title>17</title>
<ellipse fill="none" stroke="black" cx="1645" cy="-18" rx="33.29" ry="18"/>
<text text-anchor="middle" x="1645" y="-14.3" font-family="Times,serif" font-size="14.00">leigo</text>
</g>
<!-- 0&#45;&gt;17 -->
<g id="edge17" class="edge">
<title>0&#45;&gt;17</title>
<path fill="none" stroke="black" d="M1709.41,-89.19C1697.45,-76.15 1679.82,-56.95 1666.03,-41.92"/>
<polygon fill="black" stroke="black" points="1668.56,-39.5 1659.22,-34.5 1663.4,-44.23 1668.56,-39.5"/>
<text text-anchor="middle" x="1702.5" y="-57.8" font-family="Times,serif" font-size="14.00">dep</text>
</g>
<!-- 18 -->
<g id="node19" class="node">
<title>18</title>
<ellipse fill="none" stroke="black" cx="1723" cy="-18" rx="27" ry="18"/>
<text text-anchor="middle" x="1723" y="-14.3" font-family="Times,serif" font-size="14.00">,</text>
</g>
<!-- 0&#45;&gt;18 -->
<g id="edge18" class="edge">
<title>0&#45;&gt;18</title>
<path fill="none" stroke="black" d="M1723,-86.8C1723,-75.16 1723,-59.55 1723,-46.24"/>
<polygon fill="black" stroke="black" points="1726.5,-46.18 1723,-36.18 1719.5,-46.18 1726.5,-46.18"/>
<text text-anchor="middle" x="1736.5" y="-57.8" font-family="Times,serif" font-size="14.00">dep</text>
</g>
<!-- 19 -->
<g id="node20" class="node">
<title>19</title>
<ellipse fill="none" stroke="black" cx="1795" cy="-18" rx="27" ry="18"/>
<text text-anchor="middle" x="1795" y="-14.3" font-family="Times,serif" font-size="14.00">por</text>
</g>
<!-- 0&#45;&gt;19 -->
<g id="edge19" class="edge">
<title>0&#45;&gt;19</title>
<path fill="none" stroke="black" d="M1736.4,-89.12C1741.91,-82.94 1748.31,-75.67 1754,-69 1761.32,-60.41 1769.21,-50.86 1776.1,-42.43"/>
<polygon fill="black" stroke="black" points="1779,-44.41 1782.59,-34.44 1773.56,-39.99 1779,-44.41"/>
<text text-anchor="middle" x="1780.5" y="-57.8" font-family="Times,serif" font-size="14.00">dep</text>
</g>
<!-- 20 -->
<g id="node21" class="node">
<title>20</title>
<ellipse fill="none" stroke="black" cx="1867" cy="-18" rx="27" ry="18"/>
<text text-anchor="middle" x="1867" y="-14.3" font-family="Times,serif" font-size="14.00">a</text>
</g>
<!-- 0&#45;&gt;20 -->
<g id="edge20" class="edge">
<title>0&#45;&gt;20</title>
<path fill="none" stroke="black" d="M1745.55,-94.81C1760.75,-88.3 1781.03,-78.98 1798,-69 1813.23,-60.04 1829.27,-48.56 1842.04,-38.86"/>
<polygon fill="black" stroke="black" points="1844.54,-41.35 1850.32,-32.48 1840.26,-35.81 1844.54,-41.35"/>
<text text-anchor="middle" x="1833.5" y="-57.8" font-family="Times,serif" font-size="14.00">dep</text>
</g>
<!-- 21 -->
<g id="node22" class="node">
<title>21</title>
<ellipse fill="none" stroke="black" cx="1983" cy="-18" rx="71.49" ry="18"/>
<text text-anchor="middle" x="1983" y="-14.3" font-family="Times,serif" font-size="14.00">originalidade</text>
</g>
<!-- 0&#45;&gt;21 -->
<g id="edge21" class="edge">
<title>0&#45;&gt;21</title>
<path fill="none" stroke="black" d="M1748.23,-97.86C1774.19,-91.36 1815.73,-80.47 1851,-69 1880.24,-59.49 1912.53,-47.29 1937.85,-37.32"/>
<polygon fill="black" stroke="black" points="1939.18,-40.56 1947.19,-33.62 1936.61,-34.05 1939.18,-40.56"/>
<text text-anchor="middle" x="1905.5" y="-57.8" font-family="Times,serif" font-size="14.00">dep</text>
</g>
<!-- 22 -->
<g id="node23" class="node">
<title>22</title>
<ellipse fill="none" stroke="black" cx="2099" cy="-18" rx="27" ry="18"/>
<text text-anchor="middle" x="2099" y="-14.3" font-family="Times,serif" font-size="14.00">de</text>
</g>
<!-- 0&#45;&gt;22 -->
<g id="edge22" class="edge">
<title>0&#45;&gt;22</title>
<path fill="none" stroke="black" d="M1749.68,-101.22C1807.91,-94.6 1950.2,-75.44 2063,-36 2064.91,-35.33 2066.85,-34.6 2068.79,-33.81"/>
<polygon fill="black" stroke="black" points="2070.6,-36.85 2078.37,-29.65 2067.8,-30.43 2070.6,-36.85"/>
<text text-anchor="middle" x="2013.5" y="-57.8" font-family="Times,serif" font-size="14.00">dep</text>
</g>
<!-- 23 -->
<g id="node24" class="node">
<title>23</title>
<ellipse fill="none" stroke="black" cx="2171" cy="-18" rx="27" ry="18"/>
<text text-anchor="middle" x="2171" y="-14.3" font-family="Times,serif" font-size="14.00">os</text>
</g>
<!-- 0&#45;&gt;23 -->
<g id="edge23" class="edge">
<title>0&#45;&gt;23</title>
<path fill="none" stroke="black" d="M1750.06,-102.69C1804.02,-99.7 1928.63,-90.84 2031,-69 2078.43,-58.88 2089.86,-53.73 2135,-36 2136.83,-35.28 2138.71,-34.51 2140.58,-33.71"/>
<polygon fill="black" stroke="black" points="2142.19,-36.83 2149.89,-29.55 2139.33,-30.44 2142.19,-36.83"/>
<text text-anchor="middle" x="2101.5" y="-57.8" font-family="Times,serif" font-size="14.00">dep</text>
</g>
<!-- 24 -->
<g id="node25" class="node">
<title>24</title>
<ellipse fill="none" stroke="black" cx="2266" cy="-18" rx="50.09" ry="18"/>
<text text-anchor="middle" x="2266" y="-14.3" font-family="Times,serif" font-size="14.00">sentidos</text>
</g>
<!-- 0&#45;&gt;24 -->
<g id="edge24" class="edge">
<title>0&#45;&gt;24</title>
<path fill="none" stroke="black" d="M1750.22,-103.83C1814.89,-102.94 1982.59,-97.79 2119,-69 2155.73,-61.25 2196,-47.13 2225.09,-35.87"/>
<polygon fill="black" stroke="black" points="2226.47,-39.09 2234.5,-32.18 2223.91,-32.57 2226.47,-39.09"/>
<text text-anchor="middle" x="2186.5" y="-57.8" font-family="Times,serif" font-size="14.00">dep</text>
</g>
<!-- 25 -->
<g id="node26" class="node">
<title>25</title>
<ellipse fill="none" stroke="black" cx="2362" cy="-18" rx="27.9" ry="18"/>
<text text-anchor="middle" x="2362" y="-14.3" font-family="Times,serif" font-size="14.00">que</text>
</g>
<!-- 0&#45;&gt;25 -->
<g id="edge25" class="edge">
<title>0&#45;&gt;25</title>
<path fill="none" stroke="black" d="M1750.08,-103.86C1823.61,-103.08 2032.96,-98.26 2204,-69 2258.94,-59.6 2272.61,-55.03 2325,-36 2326.89,-35.31 2328.82,-34.57 2330.76,-33.78"/>
<polygon fill="black" stroke="black" points="2332.53,-36.83 2340.34,-29.67 2329.77,-30.4 2332.53,-36.83"/>
<text text-anchor="middle" x="2285.5" y="-57.8" font-family="Times,serif" font-size="14.00">dep</text>
</g>
<!-- 26 -->
<g id="node27" class="node">
<title>26</title>
<ellipse fill="none" stroke="black" cx="2444" cy="-18" rx="36.29" ry="18"/>
<text text-anchor="middle" x="2444" y="-14.3" font-family="Times,serif" font-size="14.00">ajuda</text>
</g>
<!-- 0&#45;&gt;26 -->
<g id="edge26" class="edge">
<title>0&#45;&gt;26</title>
<path fill="none" stroke="black" d="M1750.07,-103.34C1849.6,-100.75 2195.02,-90.4 2303,-69 2340.15,-61.64 2380.72,-46.44 2408.77,-34.72"/>
<polygon fill="black" stroke="black" points="2410.3,-37.87 2418.14,-30.74 2407.56,-31.43 2410.3,-37.87"/>
<text text-anchor="middle" x="2368.5" y="-57.8" font-family="Times,serif" font-size="14.00">dep</text>
</g>
<!-- 27 -->
<g id="node28" class="node">
<title>27</title>
<ellipse fill="none" stroke="black" cx="2525" cy="-18" rx="27" ry="18"/>
<text text-anchor="middle" x="2525" y="-14.3" font-family="Times,serif" font-size="14.00">a</text>
</g>
<!-- 0&#45;&gt;27 -->
<g id="edge27" class="edge">
<title>0&#45;&gt;27</title>
<path fill="none" stroke="black" d="M1750.13,-103.5C1858.55,-101.35 2260.86,-91.95 2386,-69 2433.28,-60.33 2444.28,-53.63 2489,-36 2490.83,-35.28 2492.7,-34.5 2494.58,-33.7"/>
<polygon fill="black" stroke="black" points="2496.19,-36.82 2503.88,-29.54 2493.33,-30.43 2496.19,-36.82"/>
<text text-anchor="middle" x="2457.5" y="-57.8" font-family="Times,serif" font-size="14.00">dep</text>
</g>
<!-- 28 -->
<g id="node29" class="node">
<title>28</title>
<ellipse fill="none" stroke="black" cx="2629" cy="-18" rx="59.29" ry="18"/>
<text text-anchor="middle" x="2629" y="-14.3" font-family="Times,serif" font-size="14.00">desvendar</text>
</g>
<!-- 0&#45;&gt;28 -->
<g id="edge28" class="edge">
<title>0&#45;&gt;28</title>
<path fill="none" stroke="black" d="M1750.12,-103.71C1867.42,-102.29 2331.63,-95.12 2475,-69 2513.3,-62.02 2555.24,-47.96 2585.67,-36.52"/>
<polygon fill="black" stroke="black" points="2587.03,-39.74 2595.12,-32.91 2584.53,-33.21 2587.03,-39.74"/>
<text text-anchor="middle" x="2545.5" y="-57.8" font-family="Times,serif" font-size="14.00">dep</text>
</g>
<!-- 29 -->
<g id="node30" class="node">
<title>29</title>
<ellipse fill="none" stroke="black" cx="2733" cy="-18" rx="27" ry="18"/>
<text text-anchor="middle" x="2733" y="-14.3" font-family="Times,serif" font-size="14.00">em</text>
</g>
<!-- 0&#45;&gt;29 -->
<g id="edge29" class="edge">
<title>0&#45;&gt;29</title>
<path fill="none" stroke="black" d="M1750.24,-103.6C1875.92,-101.63 2400.62,-92.14 2563,-69 2623.72,-60.35 2639.2,-56.53 2697,-36 2698.91,-35.32 2700.84,-34.58 2702.79,-33.79"/>
<polygon fill="black" stroke="black" points="2704.6,-36.82 2712.36,-29.61 2701.79,-30.41 2704.6,-36.82"/>
<text text-anchor="middle" x="2654.5" y="-57.8" font-family="Times,serif" font-size="14.00">dep</text>
</g>
<!-- 30 -->
<g id="node31" class="node">
<title>30</title>
<ellipse fill="none" stroke="black" cx="2805" cy="-18" rx="27" ry="18"/>
<text text-anchor="middle" x="2805" y="-14.3" font-family="Times,serif" font-size="14.00">os</text>
</g>
<!-- 0&#45;&gt;30 -->
<g id="edge30" class="edge">
<title>0&#45;&gt;30</title>
<path fill="none" stroke="black" d="M1750.14,-104.06C1885.47,-104.21 2488.18,-102.9 2672,-69 2708.73,-62.23 2748.54,-45.97 2774.93,-33.83"/>
<polygon fill="black" stroke="black" points="2776.45,-36.98 2784.02,-29.56 2773.48,-30.64 2776.45,-36.98"/>
<text text-anchor="middle" x="2738.5" y="-57.8" font-family="Times,serif" font-size="14.00">dep</text>
</g>
<!-- 31 -->
<g id="node32" class="node">
<title>31</title>
<ellipse fill="none" stroke="black" cx="2889" cy="-18" rx="38.99" ry="18"/>
<text text-anchor="middle" x="2889" y="-14.3" font-family="Times,serif" font-size="14.00">temas</text>
</g>
<!-- 0&#45;&gt;31 -->
<g id="edge31" class="edge">
<title>0&#45;&gt;31</title>
<path fill="none" stroke="black" d="M1750.17,-104.27C1892.73,-105.51 2555.38,-108.99 2756,-69 2790.47,-62.13 2827.78,-47.41 2854.08,-35.72"/>
<polygon fill="black" stroke="black" points="2855.58,-38.88 2863.25,-31.57 2852.69,-32.5 2855.58,-38.88"/>
<text text-anchor="middle" x="2822.5" y="-57.8" font-family="Times,serif" font-size="14.00">dep</text>
</g>
<!-- 32 -->
<g id="node33" class="node">
<title>32</title>
<ellipse fill="none" stroke="black" cx="2973" cy="-18" rx="27" ry="18"/>
<text text-anchor="middle" x="2973" y="-14.3" font-family="Times,serif" font-size="14.00">de</text>
</g>
<!-- 0&#45;&gt;32 -->
<g id="edge32" class="edge">
<title>0&#45;&gt;32</title>
<path fill="none" stroke="black" d="M1750.36,-104.24C1900.09,-105.38 2621.42,-108.69 2840,-69 2876.75,-62.33 2916.55,-46.06 2942.94,-33.88"/>
<polygon fill="black" stroke="black" points="2944.47,-37.03 2952.03,-29.6 2941.49,-30.69 2944.47,-37.03"/>
<text text-anchor="middle" x="2906.5" y="-57.8" font-family="Times,serif" font-size="14.00">dep</text>
</g>
<!-- 33 -->
<g id="node34" class="node">
<title>33</title>
<ellipse fill="none" stroke="black" cx="3045" cy="-18" rx="27" ry="18"/>
<text text-anchor="middle" x="3045" y="-14.3" font-family="Times,serif" font-size="14.00">o</text>
</g>
<!-- 0&#45;&gt;33 -->
<g id="edge33" class="edge">
<title>0&#45;&gt;33</title>
<path fill="none" stroke="black" d="M1750.1,-103.76C1917.32,-102.23 2805.55,-92.98 2924,-69 2956.7,-62.38 2991.68,-46.92 3015.57,-34.92"/>
<polygon fill="black" stroke="black" points="3017.49,-37.88 3024.78,-30.2 3014.29,-31.65 3017.49,-37.88"/>
<text text-anchor="middle" x="2985.5" y="-57.8" font-family="Times,serif" font-size="14.00">dep</text>
</g>
<!-- 34 -->
<g id="node35" class="node">
<title>34</title>
<ellipse fill="none" stroke="black" cx="3150" cy="-18" rx="59.59" ry="18"/>
<text text-anchor="middle" x="3150" y="-14.3" font-family="Times,serif" font-size="14.00">quotidiano</text>
</g>
<!-- 0&#45;&gt;34 -->
<g id="edge34" class="edge">
<title>0&#45;&gt;34</title>
<path fill="none" stroke="black" d="M1750.16,-103.75C1923.86,-102.06 2875.82,-91.83 3003,-69 3039.47,-62.45 3079.16,-48.52 3108.09,-37.02"/>
<polygon fill="black" stroke="black" points="3109.51,-40.22 3117.47,-33.23 3106.89,-33.73 3109.51,-40.22"/>
<text text-anchor="middle" x="3074.5" y="-57.8" font-family="Times,serif" font-size="14.00">dep</text>
</g>
<!-- 35 -->
<g id="node36" class="node">
<title>35</title>
<ellipse fill="none" stroke="black" cx="3255" cy="-18" rx="27" ry="18"/>
<text text-anchor="middle" x="3255" y="-14.3" font-family="Times,serif" font-size="14.00">.</text>
</g>
<!-- 0&#45;&gt;35 -->
<g id="edge35" class="edge">
<title>0&#45;&gt;35</title>
<path fill="none" stroke="black" d="M1750.18,-104.15C1918.39,-104.96 2819.2,-107.41 3092,-69 3149.75,-60.87 3164.17,-55.87 3219,-36 3220.85,-35.33 3222.74,-34.6 3224.63,-33.82"/>
<polygon fill="black" stroke="black" points="3226.2,-36.96 3233.96,-29.74 3223.4,-30.54 3226.2,-36.96"/>
<text text-anchor="middle" x="3179.5" y="-57.8" font-family="Times,serif" font-size="14.00">dep</text>
</g>
</g>
</svg>
