<?xml version="1.0" encoding="UTF-8" standalone="no"?>
<!DOCTYPE svg PUBLIC "-//W3C//DTD SVG 1.1//EN"
 "http://www.w3.org/Graphics/SVG/1.1/DTD/svg11.dtd">
<!-- Generated by graphviz version 2.42.4 (0)
 -->
<!-- Pages: 1 -->
<svg width="2594pt" height="131pt"
 viewBox="0.00 0.00 2593.70 131.00" xmlns="http://www.w3.org/2000/svg" xmlns:xlink="http://www.w3.org/1999/xlink">
<g id="graph0" class="graph" transform="scale(1 1) rotate(0) translate(4 127)">
<polygon fill="white" stroke="transparent" points="-4,4 -4,-127 2589.7,-127 2589.7,4 -4,4"/>
<!-- 0 -->
<g id="node1" class="node">
<title>0</title>
<ellipse fill="none" stroke="black" cx="1264.7" cy="-105" rx="27" ry="18"/>
<text text-anchor="middle" x="1264.7" y="-101.3" font-family="Times,serif" font-size="14.00">A</text>
</g>
<!-- 1 -->
<g id="node2" class="node">
<title>1</title>
<ellipse fill="none" stroke="black" cx="37.7" cy="-18" rx="37.89" ry="18"/>
<text text-anchor="middle" x="37.7" y="-14.3" font-family="Times,serif" font-size="14.00">partir</text>
</g>
<!-- 0&#45;&gt;1 -->
<g id="edge1" class="edge">
<title>0&#45;&gt;1</title>
<path fill="none" stroke="black" d="M1237.75,-103.66C1079.87,-101.63 278.17,-90.31 170.7,-69 136.22,-62.16 98.91,-47.44 72.61,-35.74"/>
<polygon fill="black" stroke="black" points="74,-32.52 63.45,-31.58 71.11,-38.9 74,-32.52"/>
<text text-anchor="middle" x="184.2" y="-57.8" font-family="Times,serif" font-size="14.00">dep</text>
</g>
<!-- 2 -->
<g id="node3" class="node">
<title>2</title>
<ellipse fill="none" stroke="black" cx="120.7" cy="-18" rx="27" ry="18"/>
<text text-anchor="middle" x="120.7" y="-14.3" font-family="Times,serif" font-size="14.00">de</text>
</g>
<!-- 0&#45;&gt;2 -->
<g id="edge2" class="edge">
<title>0&#45;&gt;2</title>
<path fill="none" stroke="black" d="M1237.67,-104.13C1097.29,-104.66 450.41,-105.05 253.7,-69 216.96,-62.27 177.16,-46.01 150.76,-33.85"/>
<polygon fill="black" stroke="black" points="152.21,-30.66 141.68,-29.58 149.24,-37 152.21,-30.66"/>
<text text-anchor="middle" x="267.2" y="-57.8" font-family="Times,serif" font-size="14.00">dep</text>
</g>
<!-- 3 -->
<g id="node4" class="node">
<title>3</title>
<ellipse fill="none" stroke="black" cx="192.7" cy="-18" rx="27" ry="18"/>
<text text-anchor="middle" x="192.7" y="-14.3" font-family="Times,serif" font-size="14.00">a</text>
</g>
<!-- 0&#45;&gt;3 -->
<g id="edge3" class="edge">
<title>0&#45;&gt;3</title>
<path fill="none" stroke="black" d="M1237.69,-103.68C1106.96,-102.03 538.88,-93.56 363.7,-69 302.53,-60.42 286.92,-56.63 228.7,-36 226.79,-35.32 224.85,-34.58 222.91,-33.8"/>
<polygon fill="black" stroke="black" points="223.9,-30.41 213.34,-29.62 221.1,-36.83 223.9,-30.41"/>
<text text-anchor="middle" x="377.2" y="-57.8" font-family="Times,serif" font-size="14.00">dep</text>
</g>
<!-- 4 -->
<g id="node5" class="node">
<title>4</title>
<ellipse fill="none" stroke="black" cx="286.7" cy="-18" rx="48.99" ry="18"/>
<text text-anchor="middle" x="286.7" y="-14.3" font-family="Times,serif" font-size="14.00">próxima</text>
</g>
<!-- 0&#45;&gt;4 -->
<g id="edge4" class="edge">
<title>0&#45;&gt;4</title>
<path fill="none" stroke="black" d="M1237.63,-103.72C1115.04,-102.3 611.17,-94.96 455.7,-69 411.75,-61.66 363.11,-46.49 329.34,-34.78"/>
<polygon fill="black" stroke="black" points="330.39,-31.44 319.8,-31.42 328.07,-38.04 330.39,-31.44"/>
<text text-anchor="middle" x="469.2" y="-57.8" font-family="Times,serif" font-size="14.00">dep</text>
</g>
<!-- 5 -->
<g id="node6" class="node">
<title>5</title>
<ellipse fill="none" stroke="black" cx="399.7" cy="-18" rx="46.29" ry="18"/>
<text text-anchor="middle" x="399.7" y="-14.3" font-family="Times,serif" font-size="14.00">semana</text>
</g>
<!-- 0&#45;&gt;5 -->
<g id="edge5" class="edge">
<title>0&#45;&gt;5</title>
<path fill="none" stroke="black" d="M1237.61,-103.8C1122.54,-102.77 673.85,-97.02 535.7,-69 501.44,-62.05 464.31,-47.92 437.51,-36.44"/>
<polygon fill="black" stroke="black" points="438.7,-33.14 428.13,-32.36 435.9,-39.56 438.7,-33.14"/>
<text text-anchor="middle" x="549.2" y="-57.8" font-family="Times,serif" font-size="14.00">dep</text>
</g>
<!-- 6 -->
<g id="node7" class="node">
<title>6</title>
<ellipse fill="none" stroke="black" cx="490.7" cy="-18" rx="27" ry="18"/>
<text text-anchor="middle" x="490.7" y="-14.3" font-family="Times,serif" font-size="14.00">,</text>
</g>
<!-- 0&#45;&gt;6 -->
<g id="edge6" class="edge">
<title>0&#45;&gt;6</title>
<path fill="none" stroke="black" d="M1237.74,-103.62C1130.96,-101.97 737.51,-94.26 615.7,-69 581.75,-61.96 545.18,-46.3 520.43,-34.36"/>
<polygon fill="black" stroke="black" points="521.74,-31.11 511.22,-29.84 518.65,-37.39 521.74,-31.11"/>
<text text-anchor="middle" x="629.2" y="-57.8" font-family="Times,serif" font-size="14.00">dep</text>
</g>
<!-- 7 -->
<g id="node8" class="node">
<title>7</title>
<ellipse fill="none" stroke="black" cx="562.7" cy="-18" rx="27" ry="18"/>
<text text-anchor="middle" x="562.7" y="-14.3" font-family="Times,serif" font-size="14.00">vão</text>
</g>
<!-- 0&#45;&gt;7 -->
<g id="edge7" class="edge">
<title>0&#45;&gt;7</title>
<path fill="none" stroke="black" d="M1237.66,-104.56C1156.4,-105.75 907.52,-105.9 705.7,-69 656.74,-60.05 645.09,-54 598.7,-36 596.86,-35.29 594.99,-34.52 593.11,-33.73"/>
<polygon fill="black" stroke="black" points="594.36,-30.45 583.8,-29.58 591.51,-36.85 594.36,-30.45"/>
<text text-anchor="middle" x="719.2" y="-57.8" font-family="Times,serif" font-size="14.00">dep</text>
</g>
<!-- 8 -->
<g id="node9" class="node">
<title>8</title>
<ellipse fill="none" stroke="black" cx="644.7" cy="-18" rx="37.09" ry="18"/>
<text text-anchor="middle" x="644.7" y="-14.3" font-family="Times,serif" font-size="14.00">viajar</text>
</g>
<!-- 0&#45;&gt;8 -->
<g id="edge8" class="edge">
<title>0&#45;&gt;8</title>
<path fill="none" stroke="black" d="M1237.54,-104.37C1164.28,-104.87 956.83,-102.93 788.7,-69 750.87,-61.37 709.42,-46.21 680.74,-34.57"/>
<polygon fill="black" stroke="black" points="681.74,-31.2 671.16,-30.62 679.07,-37.67 681.74,-31.2"/>
<text text-anchor="middle" x="802.2" y="-57.8" font-family="Times,serif" font-size="14.00">dep</text>
</g>
<!-- 9 -->
<g id="node10" class="node">
<title>9</title>
<ellipse fill="none" stroke="black" cx="731.7" cy="-18" rx="31.7" ry="18"/>
<text text-anchor="middle" x="731.7" y="-14.3" font-family="Times,serif" font-size="14.00">para</text>
</g>
<!-- 0&#45;&gt;9 -->
<g id="edge9" class="edge">
<title>0&#45;&gt;9</title>
<path fill="none" stroke="black" d="M1237.55,-103.82C1173.03,-102.92 1005.76,-97.74 869.7,-69 832.84,-61.21 792.52,-45.75 765.04,-34.06"/>
<polygon fill="black" stroke="black" points="766.09,-30.71 755.53,-29.95 763.32,-37.13 766.09,-30.71"/>
<text text-anchor="middle" x="883.2" y="-57.8" font-family="Times,serif" font-size="14.00">dep</text>
</g>
<!-- 10 -->
<g id="node11" class="node">
<title>10</title>
<ellipse fill="none" stroke="black" cx="808.7" cy="-18" rx="27" ry="18"/>
<text text-anchor="middle" x="808.7" y="-14.3" font-family="Times,serif" font-size="14.00">os</text>
</g>
<!-- 0&#45;&gt;10 -->
<g id="edge10" class="edge">
<title>0&#45;&gt;10</title>
<path fill="none" stroke="black" d="M1237.75,-102.04C1185.77,-97.99 1068.17,-87.47 970.7,-69 913.82,-58.22 899.1,-55.78 844.7,-36 842.85,-35.33 840.96,-34.59 839.07,-33.82"/>
<polygon fill="black" stroke="black" points="840.3,-30.54 829.74,-29.73 837.5,-36.95 840.3,-30.54"/>
<text text-anchor="middle" x="984.2" y="-57.8" font-family="Times,serif" font-size="14.00">dep</text>
</g>
<!-- 11 -->
<g id="node12" class="node">
<title>11</title>
<ellipse fill="none" stroke="black" cx="901.7" cy="-18" rx="48.19" ry="18"/>
<text text-anchor="middle" x="901.7" y="-14.3" font-family="Times,serif" font-size="14.00">Estados</text>
</g>
<!-- 0&#45;&gt;11 -->
<g id="edge11" class="edge">
<title>0&#45;&gt;11</title>
<path fill="none" stroke="black" d="M1238.06,-101.05C1197.31,-96.22 1117.2,-85.48 1050.7,-69 1013.82,-59.86 972.97,-45.87 943.38,-35.01"/>
<polygon fill="black" stroke="black" points="944.4,-31.65 933.8,-31.46 941.96,-38.21 944.4,-31.65"/>
<text text-anchor="middle" x="1064.2" y="-57.8" font-family="Times,serif" font-size="14.00">dep</text>
</g>
<!-- 12 -->
<g id="node13" class="node">
<title>12</title>
<ellipse fill="none" stroke="black" cx="994.7" cy="-18" rx="27" ry="18"/>
<text text-anchor="middle" x="994.7" y="-14.3" font-family="Times,serif" font-size="14.00">os</text>
</g>
<!-- 0&#45;&gt;12 -->
<g id="edge12" class="edge">
<title>0&#45;&gt;12</title>
<path fill="none" stroke="black" d="M1239.57,-98.4C1196.13,-88.34 1104.56,-65.5 1030.7,-36 1028.87,-35.27 1027,-34.49 1025.12,-33.68"/>
<polygon fill="black" stroke="black" points="1026.38,-30.41 1015.83,-29.51 1023.51,-36.8 1026.38,-30.41"/>
<text text-anchor="middle" x="1139.2" y="-57.8" font-family="Times,serif" font-size="14.00">dep</text>
</g>
<!-- 13 -->
<g id="node14" class="node">
<title>13</title>
<ellipse fill="none" stroke="black" cx="1093.7" cy="-18" rx="53.89" ry="18"/>
<text text-anchor="middle" x="1093.7" y="-14.3" font-family="Times,serif" font-size="14.00">membros</text>
</g>
<!-- 0&#45;&gt;13 -->
<g id="edge13" class="edge">
<title>0&#45;&gt;13</title>
<path fill="none" stroke="black" d="M1242.91,-93.93C1228.12,-87.04 1208.15,-77.62 1190.7,-69 1170.74,-59.14 1148.66,-47.79 1130.62,-38.41"/>
<polygon fill="black" stroke="black" points="1132.07,-35.22 1121.58,-33.69 1128.83,-41.42 1132.07,-35.22"/>
<text text-anchor="middle" x="1204.2" y="-57.8" font-family="Times,serif" font-size="14.00">dep</text>
</g>
<!-- 14 -->
<g id="node15" class="node">
<title>14</title>
<ellipse fill="none" stroke="black" cx="1192.7" cy="-18" rx="27" ry="18"/>
<text text-anchor="middle" x="1192.7" y="-14.3" font-family="Times,serif" font-size="14.00">de</text>
</g>
<!-- 0&#45;&gt;14 -->
<g id="edge14" class="edge">
<title>0&#45;&gt;14</title>
<path fill="none" stroke="black" d="M1251.3,-89.12C1245.79,-82.94 1239.38,-75.67 1233.7,-69 1226.38,-60.41 1218.49,-50.86 1211.6,-42.43"/>
<polygon fill="black" stroke="black" points="1214.13,-39.99 1205.11,-34.44 1208.7,-44.41 1214.13,-39.99"/>
<text text-anchor="middle" x="1247.2" y="-57.8" font-family="Times,serif" font-size="14.00">dep</text>
</g>
<!-- 15 -->
<g id="node16" class="node">
<title>15</title>
<ellipse fill="none" stroke="black" cx="1264.7" cy="-18" rx="27" ry="18"/>
<text text-anchor="middle" x="1264.7" y="-14.3" font-family="Times,serif" font-size="14.00">a</text>
</g>
<!-- 0&#45;&gt;15 -->
<g id="edge15" class="edge">
<title>0&#45;&gt;15</title>
<path fill="none" stroke="black" d="M1264.7,-86.8C1264.7,-75.16 1264.7,-59.55 1264.7,-46.24"/>
<polygon fill="black" stroke="black" points="1268.2,-46.18 1264.7,-36.18 1261.2,-46.18 1268.2,-46.18"/>
<text text-anchor="middle" x="1278.2" y="-57.8" font-family="Times,serif" font-size="14.00">dep</text>
</g>
<!-- 16 -->
<g id="node17" class="node">
<title>16</title>
<ellipse fill="none" stroke="black" cx="1378.7" cy="-18" rx="68.79" ry="18"/>
<text text-anchor="middle" x="1378.7" y="-14.3" font-family="Times,serif" font-size="14.00">coordenação</text>
</g>
<!-- 0&#45;&gt;16 -->
<g id="edge16" class="edge">
<title>0&#45;&gt;16</title>
<path fill="none" stroke="black" d="M1282.01,-91.09C1299.72,-77.89 1327.57,-57.12 1348.84,-41.26"/>
<polygon fill="black" stroke="black" points="1351,-44.02 1356.92,-35.24 1346.81,-38.41 1351,-44.02"/>
<text text-anchor="middle" x="1342.2" y="-57.8" font-family="Times,serif" font-size="14.00">dep</text>
</g>
<!-- 17 -->
<g id="node18" class="node">
<title>17</title>
<ellipse fill="none" stroke="black" cx="1493.7" cy="-18" rx="27.9" ry="18"/>
<text text-anchor="middle" x="1493.7" y="-14.3" font-family="Times,serif" font-size="14.00">que</text>
</g>
<!-- 0&#45;&gt;17 -->
<g id="edge17" class="edge">
<title>0&#45;&gt;17</title>
<path fill="none" stroke="black" d="M1288.6,-96.31C1325.18,-84.36 1397.06,-60.2 1456.7,-36 1458.56,-35.24 1460.47,-34.44 1462.39,-33.62"/>
<polygon fill="black" stroke="black" points="1464.2,-36.65 1471.93,-29.4 1461.37,-30.25 1464.2,-36.65"/>
<text text-anchor="middle" x="1424.2" y="-57.8" font-family="Times,serif" font-size="14.00">dep</text>
</g>
<!-- 18 -->
<g id="node19" class="node">
<title>18</title>
<ellipse fill="none" stroke="black" cx="1566.7" cy="-18" rx="27.1" ry="18"/>
<text text-anchor="middle" x="1566.7" y="-14.3" font-family="Times,serif" font-size="14.00">não</text>
</g>
<!-- 0&#45;&gt;18 -->
<g id="edge18" class="edge">
<title>0&#45;&gt;18</title>
<path fill="none" stroke="black" d="M1290.8,-100.18C1325.6,-94.78 1388.94,-83.89 1441.7,-69 1482.3,-57.54 1491.81,-52.36 1530.7,-36 1532.51,-35.24 1534.37,-34.43 1536.24,-33.61"/>
<polygon fill="black" stroke="black" points="1537.87,-36.71 1545.51,-29.37 1534.96,-30.34 1537.87,-36.71"/>
<text text-anchor="middle" x="1501.2" y="-57.8" font-family="Times,serif" font-size="14.00">dep</text>
</g>
<!-- 19 -->
<g id="node20" class="node">
<title>19</title>
<ellipse fill="none" stroke="black" cx="1681.7" cy="-18" rx="70.39" ry="18"/>
<text text-anchor="middle" x="1681.7" y="-14.3" font-family="Times,serif" font-size="14.00">pertenceram</text>
</g>
<!-- 0&#45;&gt;19 -->
<g id="edge19" class="edge">
<title>0&#45;&gt;19</title>
<path fill="none" stroke="black" d="M1291.27,-101.76C1337.77,-97.52 1436.76,-87.09 1518.7,-69 1557.6,-60.41 1600.64,-47.04 1632.73,-36.28"/>
<polygon fill="black" stroke="black" points="1633.96,-39.55 1642.31,-33.03 1631.72,-32.92 1633.96,-39.55"/>
<text text-anchor="middle" x="1587.2" y="-57.8" font-family="Times,serif" font-size="14.00">dep</text>
</g>
<!-- 20 -->
<g id="node21" class="node">
<title>20</title>
<ellipse fill="none" stroke="black" cx="1796.7" cy="-18" rx="27" ry="18"/>
<text text-anchor="middle" x="1796.7" y="-14.3" font-family="Times,serif" font-size="14.00">a</text>
</g>
<!-- 0&#45;&gt;20 -->
<g id="edge20" class="edge">
<title>0&#45;&gt;20</title>
<path fill="none" stroke="black" d="M1291.71,-102.2C1349.42,-98.13 1488.92,-87.15 1604.7,-69 1674.71,-58.02 1693.53,-58.62 1760.7,-36 1762.61,-35.35 1764.56,-34.64 1766.51,-33.87"/>
<polygon fill="black" stroke="black" points="1768.3,-36.91 1776.1,-29.73 1765.53,-30.48 1768.3,-36.91"/>
<text text-anchor="middle" x="1711.2" y="-57.8" font-family="Times,serif" font-size="14.00">dep</text>
</g>
<!-- 21 -->
<g id="node22" class="node">
<title>21</title>
<ellipse fill="none" stroke="black" cx="1868.7" cy="-18" rx="27" ry="18"/>
<text text-anchor="middle" x="1868.7" y="-14.3" font-family="Times,serif" font-size="14.00">o</text>
</g>
<!-- 0&#45;&gt;21 -->
<g id="edge21" class="edge">
<title>0&#45;&gt;21</title>
<path fill="none" stroke="black" d="M1291.92,-104.14C1363.94,-104.03 1565.12,-100.68 1728.7,-69 1776.31,-59.78 1787.56,-53.73 1832.7,-36 1834.53,-35.28 1836.4,-34.51 1838.28,-33.71"/>
<polygon fill="black" stroke="black" points="1839.88,-36.83 1847.58,-29.55 1837.03,-30.44 1839.88,-36.83"/>
<text text-anchor="middle" x="1799.2" y="-57.8" font-family="Times,serif" font-size="14.00">dep</text>
</g>
<!-- 22 -->
<g id="node23" class="node">
<title>22</title>
<ellipse fill="none" stroke="black" cx="1954.7" cy="-18" rx="40.89" ry="18"/>
<text text-anchor="middle" x="1954.7" y="-14.3" font-family="Times,serif" font-size="14.00">núcleo</text>
</g>
<!-- 0&#45;&gt;22 -->
<g id="edge22" class="edge">
<title>0&#45;&gt;22</title>
<path fill="none" stroke="black" d="M1291.79,-103.3C1388.25,-100.65 1714.58,-90.28 1816.7,-69 1852.02,-61.64 1890.49,-47.12 1917.82,-35.62"/>
<polygon fill="black" stroke="black" points="1919.54,-38.69 1927.36,-31.54 1916.79,-32.25 1919.54,-38.69"/>
<text text-anchor="middle" x="1881.2" y="-57.8" font-family="Times,serif" font-size="14.00">dep</text>
</g>
<!-- 23 -->
<g id="node24" class="node">
<title>23</title>
<ellipse fill="none" stroke="black" cx="2041.7" cy="-18" rx="27.9" ry="18"/>
<text text-anchor="middle" x="2041.7" y="-14.3" font-family="Times,serif" font-size="14.00">que</text>
</g>
<!-- 0&#45;&gt;23 -->
<g id="edge23" class="edge">
<title>0&#45;&gt;23</title>
<path fill="none" stroke="black" d="M1291.7,-103.4C1396.91,-100.9 1779.36,-90.53 1898.7,-69 1947.25,-60.24 1958.63,-53.67 2004.7,-36 2006.58,-35.28 2008.5,-34.51 2010.43,-33.71"/>
<polygon fill="black" stroke="black" points="2012.21,-36.74 2019.98,-29.54 2009.42,-30.33 2012.21,-36.74"/>
<text text-anchor="middle" x="1972.2" y="-57.8" font-family="Times,serif" font-size="14.00">dep</text>
</g>
<!-- 24 -->
<g id="node25" class="node">
<title>24</title>
<ellipse fill="none" stroke="black" cx="2124.7" cy="-18" rx="37.09" ry="18"/>
<text text-anchor="middle" x="2124.7" y="-14.3" font-family="Times,serif" font-size="14.00">passa</text>
</g>
<!-- 0&#45;&gt;24 -->
<g id="edge24" class="edge">
<title>0&#45;&gt;24</title>
<path fill="none" stroke="black" d="M1292.02,-103.8C1407.08,-102.77 1852.5,-97.02 1989.7,-69 2024.81,-61.83 2062.94,-47 2089.69,-35.35"/>
<polygon fill="black" stroke="black" points="2091.29,-38.47 2099.01,-31.22 2088.45,-32.07 2091.29,-38.47"/>
<text text-anchor="middle" x="2053.2" y="-57.8" font-family="Times,serif" font-size="14.00">dep</text>
</g>
<!-- 25 -->
<g id="node26" class="node">
<title>25</title>
<ellipse fill="none" stroke="black" cx="2206.7" cy="-18" rx="27" ry="18"/>
<text text-anchor="middle" x="2206.7" y="-14.3" font-family="Times,serif" font-size="14.00">a</text>
</g>
<!-- 0&#45;&gt;25 -->
<g id="edge25" class="edge">
<title>0&#45;&gt;25</title>
<path fill="none" stroke="black" d="M1291.69,-103.82C1413.91,-102.87 1916.22,-97.28 2070.7,-69 2108.38,-62.1 2149.36,-45.71 2176.38,-33.57"/>
<polygon fill="black" stroke="black" points="2178.03,-36.66 2185.67,-29.31 2175.12,-30.3 2178.03,-36.66"/>
<text text-anchor="middle" x="2138.2" y="-57.8" font-family="Times,serif" font-size="14.00">dep</text>
</g>
<!-- 26 -->
<g id="node27" class="node">
<title>26</title>
<ellipse fill="none" stroke="black" cx="2287.7" cy="-18" rx="36" ry="18"/>
<text text-anchor="middle" x="2287.7" y="-14.3" font-family="Times,serif" font-size="14.00">deter</text>
</g>
<!-- 0&#45;&gt;26 -->
<g id="edge26" class="edge">
<title>0&#45;&gt;26</title>
<path fill="none" stroke="black" d="M1291.91,-104.11C1422.36,-104.45 1984.47,-103.83 2155.7,-69 2190.19,-61.98 2227.54,-47.1 2253.67,-35.38"/>
<polygon fill="black" stroke="black" points="2255.47,-38.41 2263.11,-31.07 2252.56,-32.04 2255.47,-38.41"/>
<text text-anchor="middle" x="2218.2" y="-57.8" font-family="Times,serif" font-size="14.00">dep</text>
</g>
<!-- 27 -->
<g id="node28" class="node">
<title>27</title>
<ellipse fill="none" stroke="black" cx="2368.7" cy="-18" rx="27" ry="18"/>
<text text-anchor="middle" x="2368.7" y="-14.3" font-family="Times,serif" font-size="14.00">as</text>
</g>
<!-- 0&#45;&gt;27 -->
<g id="edge27" class="edge">
<title>0&#45;&gt;27</title>
<path fill="none" stroke="black" d="M1292.01,-104.09C1429.57,-104.37 2047.4,-103.65 2235.7,-69 2272.43,-62.24 2312.23,-45.99 2338.63,-33.83"/>
<polygon fill="black" stroke="black" points="2340.15,-36.99 2347.72,-29.57 2337.18,-30.65 2340.15,-36.99"/>
<text text-anchor="middle" x="2302.2" y="-57.8" font-family="Times,serif" font-size="14.00">dep</text>
</g>
<!-- 28 -->
<g id="node29" class="node">
<title>28</title>
<ellipse fill="none" stroke="black" cx="2463.7" cy="-18" rx="50.09" ry="18"/>
<text text-anchor="middle" x="2463.7" y="-14.3" font-family="Times,serif" font-size="14.00">decisões</text>
</g>
<!-- 0&#45;&gt;28 -->
<g id="edge28" class="edge">
<title>0&#45;&gt;28</title>
<path fill="none" stroke="black" d="M1291.95,-104.2C1436.44,-105.11 2114.07,-107.2 2319.7,-69 2356.01,-62.25 2395.52,-48.01 2423.95,-36.44"/>
<polygon fill="black" stroke="black" points="2425.62,-39.54 2433.53,-32.48 2422.95,-33.07 2425.62,-39.54"/>
<text text-anchor="middle" x="2390.2" y="-57.8" font-family="Times,serif" font-size="14.00">dep</text>
</g>
<!-- 29 -->
<g id="node30" class="node">
<title>29</title>
<ellipse fill="none" stroke="black" cx="2558.7" cy="-18" rx="27" ry="18"/>
<text text-anchor="middle" x="2558.7" y="-14.3" font-family="Times,serif" font-size="14.00">.</text>
</g>
<!-- 0&#45;&gt;29 -->
<g id="edge29" class="edge">
<title>0&#45;&gt;29</title>
<path fill="none" stroke="black" d="M1291.67,-104.08C1442.49,-104.41 2182.62,-104.18 2407.7,-69 2460.23,-60.79 2472.94,-54.75 2522.7,-36 2524.54,-35.31 2526.42,-34.55 2528.3,-33.77"/>
<polygon fill="black" stroke="black" points="2529.89,-36.89 2537.62,-29.65 2527.06,-30.49 2529.89,-36.89"/>
<text text-anchor="middle" x="2488.2" y="-57.8" font-family="Times,serif" font-size="14.00">dep</text>
</g>
</g>
</svg>
