<?xml version="1.0" encoding="UTF-8" standalone="no"?>
<!DOCTYPE svg PUBLIC "-//W3C//DTD SVG 1.1//EN"
 "http://www.w3.org/Graphics/SVG/1.1/DTD/svg11.dtd">
<!-- Generated by graphviz version 2.42.4 (0)
 -->
<!-- Pages: 1 -->
<svg width="1904pt" height="131pt"
 viewBox="0.00 0.00 1904.00 131.00" xmlns="http://www.w3.org/2000/svg" xmlns:xlink="http://www.w3.org/1999/xlink">
<g id="graph0" class="graph" transform="scale(1 1) rotate(0) translate(4 127)">
<polygon fill="white" stroke="transparent" points="-4,4 -4,-127 1900,-127 1900,4 -4,4"/>
<!-- 0 -->
<g id="node1" class="node">
<title>0</title>
<ellipse fill="none" stroke="black" cx="1023" cy="-105" rx="27" ry="18"/>
<text text-anchor="middle" x="1023" y="-101.3" font-family="Times,serif" font-size="14.00">A</text>
</g>
<!-- 1 -->
<g id="node2" class="node">
<title>1</title>
<ellipse fill="none" stroke="black" cx="39" cy="-18" rx="38.99" ry="18"/>
<text text-anchor="middle" x="39" y="-14.3" font-family="Times,serif" font-size="14.00">Kodak</text>
</g>
<!-- 0&#45;&gt;1 -->
<g id="edge1" class="edge">
<title>0&#45;&gt;1</title>
<path fill="none" stroke="black" d="M995.94,-103.71C872.28,-102.24 360.07,-94.68 202,-69 158.18,-61.88 109.75,-45.94 77.16,-33.96"/>
<polygon fill="black" stroke="black" points="78.17,-30.6 67.58,-30.38 75.72,-37.16 78.17,-30.6"/>
<text text-anchor="middle" x="215.5" y="-57.8" font-family="Times,serif" font-size="14.00">dep</text>
</g>
<!-- 2 -->
<g id="node3" class="node">
<title>2</title>
<ellipse fill="none" stroke="black" cx="132" cy="-18" rx="36.29" ry="18"/>
<text text-anchor="middle" x="132" y="-14.3" font-family="Times,serif" font-size="14.00">ainda</text>
</g>
<!-- 0&#45;&gt;2 -->
<g id="edge2" class="edge">
<title>0&#45;&gt;2</title>
<path fill="none" stroke="black" d="M996.08,-103.5C881.7,-101.23 435.63,-91.13 297,-69 251.99,-61.82 202.16,-45.49 169.16,-33.44"/>
<polygon fill="black" stroke="black" points="170.07,-30.05 159.48,-29.85 167.64,-36.61 170.07,-30.05"/>
<text text-anchor="middle" x="310.5" y="-57.8" font-family="Times,serif" font-size="14.00">dep</text>
</g>
<!-- 3 -->
<g id="node4" class="node">
<title>3</title>
<ellipse fill="none" stroke="black" cx="229" cy="-18" rx="42.79" ry="18"/>
<text text-anchor="middle" x="229" y="-14.3" font-family="Times,serif" font-size="14.00">passou</text>
</g>
<!-- 0&#45;&gt;3 -->
<g id="edge3" class="edge">
<title>0&#45;&gt;3</title>
<path fill="none" stroke="black" d="M995.77,-103.43C889.72,-101.08 504.18,-91.17 384,-69 343.6,-61.55 299.14,-46.45 268.23,-34.79"/>
<polygon fill="black" stroke="black" points="269.29,-31.44 258.69,-31.14 266.78,-37.98 269.29,-31.44"/>
<text text-anchor="middle" x="397.5" y="-57.8" font-family="Times,serif" font-size="14.00">dep</text>
</g>
<!-- 4 -->
<g id="node5" class="node">
<title>4</title>
<ellipse fill="none" stroke="black" cx="317" cy="-18" rx="27" ry="18"/>
<text text-anchor="middle" x="317" y="-14.3" font-family="Times,serif" font-size="14.00">a</text>
</g>
<!-- 0&#45;&gt;4 -->
<g id="edge4" class="edge">
<title>0&#45;&gt;4</title>
<path fill="none" stroke="black" d="M995.94,-103.46C919.45,-101.65 695.24,-94.41 511,-69 439.93,-59.2 421.01,-58.81 353,-36 351.08,-35.36 349.13,-34.64 347.18,-33.87"/>
<polygon fill="black" stroke="black" points="348.16,-30.48 337.59,-29.74 345.39,-36.91 348.16,-30.48"/>
<text text-anchor="middle" x="524.5" y="-57.8" font-family="Times,serif" font-size="14.00">dep</text>
</g>
<!-- 5 -->
<g id="node6" class="node">
<title>5</title>
<ellipse fill="none" stroke="black" cx="409" cy="-18" rx="46.59" ry="18"/>
<text text-anchor="middle" x="409" y="-14.3" font-family="Times,serif" font-size="14.00">atender</text>
</g>
<!-- 0&#45;&gt;5 -->
<g id="edge5" class="edge">
<title>0&#45;&gt;5</title>
<path fill="none" stroke="black" d="M995.79,-102.58C931.88,-99.02 767.28,-88.57 631,-69 556.54,-58.31 537.96,-54.28 465,-36 461.22,-35.05 457.33,-34.01 453.43,-32.92"/>
<polygon fill="black" stroke="black" points="454.38,-29.55 443.8,-30.14 452.44,-36.28 454.38,-29.55"/>
<text text-anchor="middle" x="644.5" y="-57.8" font-family="Times,serif" font-size="14.00">dep</text>
</g>
<!-- 6 -->
<g id="node7" class="node">
<title>6</title>
<ellipse fill="none" stroke="black" cx="542" cy="-18" rx="68.49" ry="18"/>
<text text-anchor="middle" x="542" y="-14.3" font-family="Times,serif" font-size="14.00">encomendas</text>
</g>
<!-- 0&#45;&gt;6 -->
<g id="edge6" class="edge">
<title>0&#45;&gt;6</title>
<path fill="none" stroke="black" d="M996.21,-102.29C943.37,-98.6 822.16,-88.61 722,-69 677.92,-60.37 628.86,-46.45 593.1,-35.48"/>
<polygon fill="black" stroke="black" points="593.97,-32.09 583.38,-32.47 591.9,-38.77 593.97,-32.09"/>
<text text-anchor="middle" x="735.5" y="-57.8" font-family="Times,serif" font-size="14.00">dep</text>
</g>
<!-- 7 -->
<g id="node8" class="node">
<title>7</title>
<ellipse fill="none" stroke="black" cx="655" cy="-18" rx="27" ry="18"/>
<text text-anchor="middle" x="655" y="-14.3" font-family="Times,serif" font-size="14.00">de</text>
</g>
<!-- 0&#45;&gt;7 -->
<g id="edge7" class="edge">
<title>0&#45;&gt;7</title>
<path fill="none" stroke="black" d="M996.4,-101.38C939.06,-95.12 800.15,-76.7 691,-36 689.15,-35.31 687.27,-34.57 685.38,-33.78"/>
<polygon fill="black" stroke="black" points="686.62,-30.51 676.06,-29.67 683.8,-36.91 686.62,-30.51"/>
<text text-anchor="middle" x="811.5" y="-57.8" font-family="Times,serif" font-size="14.00">dep</text>
</g>
<!-- 8 -->
<g id="node9" class="node">
<title>8</title>
<ellipse fill="none" stroke="black" cx="737" cy="-18" rx="37.09" ry="18"/>
<text text-anchor="middle" x="737" y="-14.3" font-family="Times,serif" font-size="14.00">peças</text>
</g>
<!-- 0&#45;&gt;8 -->
<g id="edge8" class="edge">
<title>0&#45;&gt;8</title>
<path fill="none" stroke="black" d="M997.91,-97.73C971.11,-90.96 927.42,-79.69 890,-69 842.14,-55.33 830.13,-51.97 783,-36 780.44,-35.13 777.81,-34.22 775.16,-33.29"/>
<polygon fill="black" stroke="black" points="776.21,-29.95 765.62,-29.85 773.84,-36.53 776.21,-29.95"/>
<text text-anchor="middle" x="903.5" y="-57.8" font-family="Times,serif" font-size="14.00">dep</text>
</g>
<!-- 9 -->
<g id="node10" class="node">
<title>9</title>
<ellipse fill="none" stroke="black" cx="844" cy="-18" rx="51.99" ry="18"/>
<text text-anchor="middle" x="844" y="-14.3" font-family="Times,serif" font-size="14.00">plásticas</text>
</g>
<!-- 0&#45;&gt;9 -->
<g id="edge9" class="edge">
<title>0&#45;&gt;9</title>
<path fill="none" stroke="black" d="M1001.62,-93.91C986.83,-86.92 966.71,-77.41 949,-69 926.95,-58.54 902.32,-46.81 882.45,-37.34"/>
<polygon fill="black" stroke="black" points="883.94,-34.17 873.41,-33.03 880.93,-40.49 883.94,-34.17"/>
<text text-anchor="middle" x="962.5" y="-57.8" font-family="Times,serif" font-size="14.00">dep</text>
</g>
<!-- 10 -->
<g id="node11" class="node">
<title>10</title>
<ellipse fill="none" stroke="black" cx="946" cy="-18" rx="31.7" ry="18"/>
<text text-anchor="middle" x="946" y="-14.3" font-family="Times,serif" font-size="14.00">para</text>
</g>
<!-- 0&#45;&gt;10 -->
<g id="edge10" class="edge">
<title>0&#45;&gt;10</title>
<path fill="none" stroke="black" d="M1009.58,-89.19C997.77,-76.15 980.37,-56.95 966.76,-41.92"/>
<polygon fill="black" stroke="black" points="969.34,-39.56 960.04,-34.5 964.16,-44.26 969.34,-39.56"/>
<text text-anchor="middle" x="1003.5" y="-57.8" font-family="Times,serif" font-size="14.00">dep</text>
</g>
<!-- 11 -->
<g id="node12" class="node">
<title>11</title>
<ellipse fill="none" stroke="black" cx="1023" cy="-18" rx="27" ry="18"/>
<text text-anchor="middle" x="1023" y="-14.3" font-family="Times,serif" font-size="14.00">a</text>
</g>
<!-- 0&#45;&gt;11 -->
<g id="edge11" class="edge">
<title>0&#45;&gt;11</title>
<path fill="none" stroke="black" d="M1023,-86.8C1023,-75.16 1023,-59.55 1023,-46.24"/>
<polygon fill="black" stroke="black" points="1026.5,-46.18 1023,-36.18 1019.5,-46.18 1026.5,-46.18"/>
<text text-anchor="middle" x="1036.5" y="-57.8" font-family="Times,serif" font-size="14.00">dep</text>
</g>
<!-- 12 -->
<g id="node13" class="node">
<title>12</title>
<ellipse fill="none" stroke="black" cx="1110" cy="-18" rx="42.49" ry="18"/>
<text text-anchor="middle" x="1110" y="-14.3" font-family="Times,serif" font-size="14.00">Philips</text>
</g>
<!-- 0&#45;&gt;12 -->
<g id="edge12" class="edge">
<title>0&#45;&gt;12</title>
<path fill="none" stroke="black" d="M1037.75,-89.58C1051.09,-76.56 1070.94,-57.16 1086.46,-42"/>
<polygon fill="black" stroke="black" points="1088.98,-44.43 1093.68,-34.94 1084.08,-39.42 1088.98,-44.43"/>
<text text-anchor="middle" x="1085.5" y="-57.8" font-family="Times,serif" font-size="14.00">dep</text>
</g>
<!-- 13 -->
<g id="node14" class="node">
<title>13</title>
<ellipse fill="none" stroke="black" cx="1197" cy="-18" rx="27" ry="18"/>
<text text-anchor="middle" x="1197" y="-14.3" font-family="Times,serif" font-size="14.00">,</text>
</g>
<!-- 0&#45;&gt;13 -->
<g id="edge13" class="edge">
<title>0&#45;&gt;13</title>
<path fill="none" stroke="black" d="M1045.27,-94.79C1061.44,-87.98 1083.75,-78.31 1103,-69 1125.2,-58.26 1149.8,-45.13 1168.26,-35.02"/>
<polygon fill="black" stroke="black" points="1169.98,-38.07 1177.05,-30.18 1166.61,-31.93 1169.98,-38.07"/>
<text text-anchor="middle" x="1145.5" y="-57.8" font-family="Times,serif" font-size="14.00">dep</text>
</g>
<!-- 14 -->
<g id="node15" class="node">
<title>14</title>
<ellipse fill="none" stroke="black" cx="1283" cy="-18" rx="40.89" ry="18"/>
<text text-anchor="middle" x="1283" y="-14.3" font-family="Times,serif" font-size="14.00">Wapsa</text>
</g>
<!-- 0&#45;&gt;14 -->
<g id="edge14" class="edge">
<title>0&#45;&gt;14</title>
<path fill="none" stroke="black" d="M1048.61,-98.8C1076.94,-92.78 1123.76,-82 1163,-69 1191.62,-59.52 1223.05,-46.32 1246.56,-35.86"/>
<polygon fill="black" stroke="black" points="1248.11,-39 1255.8,-31.71 1245.24,-32.61 1248.11,-39"/>
<text text-anchor="middle" x="1217.5" y="-57.8" font-family="Times,serif" font-size="14.00">dep</text>
</g>
<!-- 15 -->
<g id="node16" class="node">
<title>15</title>
<ellipse fill="none" stroke="black" cx="1369" cy="-18" rx="27" ry="18"/>
<text text-anchor="middle" x="1369" y="-14.3" font-family="Times,serif" font-size="14.00">e</text>
</g>
<!-- 0&#45;&gt;15 -->
<g id="edge15" class="edge">
<title>0&#45;&gt;15</title>
<path fill="none" stroke="black" d="M1049.38,-101.03C1089.76,-96.18 1169.12,-85.42 1235,-69 1279.59,-57.89 1290.37,-53.17 1333,-36 1334.82,-35.26 1336.69,-34.48 1338.56,-33.67"/>
<polygon fill="black" stroke="black" points="1340.18,-36.78 1347.86,-29.48 1337.3,-30.4 1340.18,-36.78"/>
<text text-anchor="middle" x="1300.5" y="-57.8" font-family="Times,serif" font-size="14.00">dep</text>
</g>
<!-- 16 -->
<g id="node17" class="node">
<title>16</title>
<ellipse fill="none" stroke="black" cx="1446" cy="-18" rx="32.49" ry="18"/>
<text text-anchor="middle" x="1446" y="-14.3" font-family="Times,serif" font-size="14.00">NGK</text>
</g>
<!-- 0&#45;&gt;16 -->
<g id="edge16" class="edge">
<title>0&#45;&gt;16</title>
<path fill="none" stroke="black" d="M1050.24,-102.99C1102.74,-100.55 1221.32,-92.69 1318,-69 1351.28,-60.84 1387.52,-46.1 1412.91,-34.73"/>
<polygon fill="black" stroke="black" points="1414.43,-37.88 1422.08,-30.55 1411.53,-31.51 1414.43,-37.88"/>
<text text-anchor="middle" x="1378.5" y="-57.8" font-family="Times,serif" font-size="14.00">dep</text>
</g>
<!-- 17 -->
<g id="node18" class="node">
<title>17</title>
<ellipse fill="none" stroke="black" cx="1523" cy="-18" rx="27" ry="18"/>
<text text-anchor="middle" x="1523" y="-14.3" font-family="Times,serif" font-size="14.00">,</text>
</g>
<!-- 0&#45;&gt;17 -->
<g id="edge17" class="edge">
<title>0&#45;&gt;17</title>
<path fill="none" stroke="black" d="M1050.05,-103.8C1112.02,-102.85 1268.75,-97.55 1396,-69 1430.44,-61.27 1467.8,-45.61 1493.02,-33.86"/>
<polygon fill="black" stroke="black" points="1494.53,-37.02 1502.06,-29.57 1491.53,-30.69 1494.53,-37.02"/>
<text text-anchor="middle" x="1456.5" y="-57.8" font-family="Times,serif" font-size="14.00">dep</text>
</g>
<!-- 18 -->
<g id="node19" class="node">
<title>18</title>
<ellipse fill="none" stroke="black" cx="1604" cy="-18" rx="36" ry="18"/>
<text text-anchor="middle" x="1604" y="-14.3" font-family="Times,serif" font-size="14.00">entre</text>
</g>
<!-- 0&#45;&gt;18 -->
<g id="edge18" class="edge">
<title>0&#45;&gt;18</title>
<path fill="none" stroke="black" d="M1050.09,-104.6C1120.8,-105.59 1316.39,-104.63 1474,-69 1507.67,-61.39 1544.21,-46.72 1569.96,-35.23"/>
<polygon fill="black" stroke="black" points="1571.61,-38.32 1579.26,-31 1568.71,-31.95 1571.61,-38.32"/>
<text text-anchor="middle" x="1535.5" y="-57.8" font-family="Times,serif" font-size="14.00">dep</text>
</g>
<!-- 19 -->
<g id="node20" class="node">
<title>19</title>
<ellipse fill="none" stroke="black" cx="1685" cy="-18" rx="27" ry="18"/>
<text text-anchor="middle" x="1685" y="-14.3" font-family="Times,serif" font-size="14.00">16</text>
</g>
<!-- 0&#45;&gt;19 -->
<g id="edge19" class="edge">
<title>0&#45;&gt;19</title>
<path fill="none" stroke="black" d="M1049.97,-103.16C1143.73,-100.11 1455.14,-88.69 1553,-69 1589,-61.76 1628.08,-45.86 1654.3,-33.92"/>
<polygon fill="black" stroke="black" points="1656.09,-36.95 1663.69,-29.57 1653.15,-30.6 1656.09,-36.95"/>
<text text-anchor="middle" x="1619.5" y="-57.8" font-family="Times,serif" font-size="14.00">dep</text>
</g>
<!-- 20 -->
<g id="node21" class="node">
<title>20</title>
<ellipse fill="none" stroke="black" cx="1777" cy="-18" rx="46.59" ry="18"/>
<text text-anchor="middle" x="1777" y="-14.3" font-family="Times,serif" font-size="14.00">clientes</text>
</g>
<!-- 0&#45;&gt;20 -->
<g id="edge20" class="edge">
<title>0&#45;&gt;20</title>
<path fill="none" stroke="black" d="M1050.23,-103.48C1153.69,-101.35 1522.28,-92.25 1637,-69 1672.41,-61.82 1710.96,-47.54 1738.62,-36.07"/>
<polygon fill="black" stroke="black" points="1740.07,-39.26 1747.93,-32.15 1737.36,-32.81 1740.07,-39.26"/>
<text text-anchor="middle" x="1702.5" y="-57.8" font-family="Times,serif" font-size="14.00">dep</text>
</g>
<!-- 21 -->
<g id="node22" class="node">
<title>21</title>
<ellipse fill="none" stroke="black" cx="1869" cy="-18" rx="27" ry="18"/>
<text text-anchor="middle" x="1869" y="-14.3" font-family="Times,serif" font-size="14.00">.</text>
</g>
<!-- 0&#45;&gt;21 -->
<g id="edge21" class="edge">
<title>0&#45;&gt;21</title>
<path fill="none" stroke="black" d="M1049.97,-103.49C1161.58,-101.24 1587.53,-91.35 1720,-69 1771.59,-60.3 1784.08,-54.56 1833,-36 1834.84,-35.3 1836.72,-34.55 1838.6,-33.76"/>
<polygon fill="black" stroke="black" points="1840.19,-36.88 1847.92,-29.63 1837.35,-30.48 1840.19,-36.88"/>
<text text-anchor="middle" x="1797.5" y="-57.8" font-family="Times,serif" font-size="14.00">dep</text>
</g>
</g>
</svg>
