<?xml version="1.0" encoding="UTF-8" standalone="no"?>
<!DOCTYPE svg PUBLIC "-//W3C//DTD SVG 1.1//EN"
 "http://www.w3.org/Graphics/SVG/1.1/DTD/svg11.dtd">
<!-- Generated by graphviz version 2.42.4 (0)
 -->
<!-- Pages: 1 -->
<svg width="1689pt" height="131pt"
 viewBox="0.00 0.00 1689.00 131.00" xmlns="http://www.w3.org/2000/svg" xmlns:xlink="http://www.w3.org/1999/xlink">
<g id="graph0" class="graph" transform="scale(1 1) rotate(0) translate(4 127)">
<polygon fill="white" stroke="transparent" points="-4,4 -4,-127 1685,-127 1685,4 -4,4"/>
<!-- 0 -->
<g id="node1" class="node">
<title>0</title>
<ellipse fill="none" stroke="black" cx="836" cy="-105" rx="27" ry="18"/>
<text text-anchor="middle" x="836" y="-101.3" font-family="Times,serif" font-size="14.00">O</text>
</g>
<!-- 1 -->
<g id="node2" class="node">
<title>1</title>
<ellipse fill="none" stroke="black" cx="52" cy="-18" rx="51.99" ry="18"/>
<text text-anchor="middle" x="52" y="-14.3" font-family="Times,serif" font-size="14.00">chamado</text>
</g>
<!-- 0&#45;&gt;1 -->
<g id="edge1" class="edge">
<title>0&#45;&gt;1</title>
<path fill="none" stroke="black" d="M809.02,-103.46C703.94,-101.2 321.94,-91.57 203,-69 165.09,-61.81 123.59,-47.58 93.7,-36.13"/>
<polygon fill="black" stroke="black" points="94.62,-32.73 84.03,-32.37 92.08,-39.25 94.62,-32.73"/>
<text text-anchor="middle" x="216.5" y="-57.8" font-family="Times,serif" font-size="14.00">dep</text>
</g>
<!-- 2 -->
<g id="node3" class="node">
<title>2</title>
<ellipse fill="none" stroke="black" cx="149" cy="-18" rx="27" ry="18"/>
<text text-anchor="middle" x="149" y="-14.3" font-family="Times,serif" font-size="14.00">«</text>
</g>
<!-- 0&#45;&gt;2 -->
<g id="edge2" class="edge">
<title>0&#45;&gt;2</title>
<path fill="none" stroke="black" d="M808.94,-104.43C729.31,-105.24 489.07,-104.34 294,-69 244.19,-59.98 232.23,-54.19 185,-36 183.16,-35.29 181.28,-34.53 179.4,-33.74"/>
<polygon fill="black" stroke="black" points="180.65,-30.46 170.09,-29.59 177.8,-36.86 180.65,-30.46"/>
<text text-anchor="middle" x="307.5" y="-57.8" font-family="Times,serif" font-size="14.00">dep</text>
</g>
<!-- 3 -->
<g id="node4" class="node">
<title>3</title>
<ellipse fill="none" stroke="black" cx="236" cy="-18" rx="42.49" ry="18"/>
<text text-anchor="middle" x="236" y="-14.3" font-family="Times,serif" font-size="14.00">mundo</text>
</g>
<!-- 0&#45;&gt;3 -->
<g id="edge3" class="edge">
<title>0&#45;&gt;3</title>
<path fill="none" stroke="black" d="M808.87,-104.47C737.15,-105.17 536.89,-103.6 375,-69 339.55,-61.42 300.87,-46.97 273.34,-35.55"/>
<polygon fill="black" stroke="black" points="274.66,-32.31 264.09,-31.65 271.94,-38.76 274.66,-32.31"/>
<text text-anchor="middle" x="388.5" y="-57.8" font-family="Times,serif" font-size="14.00">dep</text>
</g>
<!-- 4 -->
<g id="node5" class="node">
<title>4</title>
<ellipse fill="none" stroke="black" cx="328" cy="-18" rx="31.7" ry="18"/>
<text text-anchor="middle" x="328" y="-14.3" font-family="Times,serif" font-size="14.00">livre</text>
</g>
<!-- 0&#45;&gt;4 -->
<g id="edge4" class="edge">
<title>0&#45;&gt;4</title>
<path fill="none" stroke="black" d="M808.95,-104.23C745.5,-104.18 582.47,-100.7 451,-69 418.95,-61.27 384.32,-46.57 360,-35.1"/>
<polygon fill="black" stroke="black" points="361.41,-31.9 350.88,-30.73 358.39,-38.21 361.41,-31.9"/>
<text text-anchor="middle" x="464.5" y="-57.8" font-family="Times,serif" font-size="14.00">dep</text>
</g>
<!-- 5 -->
<g id="node6" class="node">
<title>5</title>
<ellipse fill="none" stroke="black" cx="405" cy="-18" rx="27" ry="18"/>
<text text-anchor="middle" x="405" y="-14.3" font-family="Times,serif" font-size="14.00">»</text>
</g>
<!-- 0&#45;&gt;5 -->
<g id="edge5" class="edge">
<title>0&#45;&gt;5</title>
<path fill="none" stroke="black" d="M809.05,-103.29C754.74,-101.34 628.55,-94.25 526,-69 493.79,-61.07 459,-45.94 435.02,-34.39"/>
<polygon fill="black" stroke="black" points="436.28,-31.11 425.76,-29.85 433.2,-37.4 436.28,-31.11"/>
<text text-anchor="middle" x="539.5" y="-57.8" font-family="Times,serif" font-size="14.00">dep</text>
</g>
<!-- 6 -->
<g id="node7" class="node">
<title>6</title>
<ellipse fill="none" stroke="black" cx="477" cy="-18" rx="27" ry="18"/>
<text text-anchor="middle" x="477" y="-14.3" font-family="Times,serif" font-size="14.00">(</text>
</g>
<!-- 0&#45;&gt;6 -->
<g id="edge6" class="edge">
<title>0&#45;&gt;6</title>
<path fill="none" stroke="black" d="M809.32,-101.82C765.5,-97.83 675.79,-87.98 602,-69 568.62,-60.42 532.23,-45.14 507.37,-33.72"/>
<polygon fill="black" stroke="black" points="508.65,-30.46 498.11,-29.4 505.69,-36.8 508.65,-30.46"/>
<text text-anchor="middle" x="615.5" y="-57.8" font-family="Times,serif" font-size="14.00">dep</text>
</g>
<!-- 7 -->
<g id="node8" class="node">
<title>7</title>
<ellipse fill="none" stroke="black" cx="550" cy="-18" rx="27.9" ry="18"/>
<text text-anchor="middle" x="550" y="-14.3" font-family="Times,serif" font-size="14.00">que</text>
</g>
<!-- 0&#45;&gt;7 -->
<g id="edge7" class="edge">
<title>0&#45;&gt;7</title>
<path fill="none" stroke="black" d="M810.36,-99.23C779.25,-93.22 725.33,-82.08 680,-69 637.86,-56.84 627.63,-52.51 587,-36 585.13,-35.24 583.22,-34.44 581.3,-33.62"/>
<polygon fill="black" stroke="black" points="582.33,-30.25 571.77,-29.4 579.49,-36.65 582.33,-30.25"/>
<text text-anchor="middle" x="693.5" y="-57.8" font-family="Times,serif" font-size="14.00">dep</text>
</g>
<!-- 8 -->
<g id="node9" class="node">
<title>8</title>
<ellipse fill="none" stroke="black" cx="632" cy="-18" rx="36.29" ry="18"/>
<text text-anchor="middle" x="632" y="-14.3" font-family="Times,serif" font-size="14.00">então</text>
</g>
<!-- 0&#45;&gt;8 -->
<g id="edge8" class="edge">
<title>0&#45;&gt;8</title>
<path fill="none" stroke="black" d="M812.68,-95.4C794.22,-88.5 767.84,-78.44 745,-69 718.74,-58.15 689.42,-45.15 667.22,-35.12"/>
<polygon fill="black" stroke="black" points="668.42,-31.83 657.87,-30.89 665.53,-38.2 668.42,-31.83"/>
<text text-anchor="middle" x="758.5" y="-57.8" font-family="Times,serif" font-size="14.00">dep</text>
</g>
<!-- 9 -->
<g id="node10" class="node">
<title>9</title>
<ellipse fill="none" stroke="black" cx="728" cy="-18" rx="41.69" ry="18"/>
<text text-anchor="middle" x="728" y="-14.3" font-family="Times,serif" font-size="14.00">incluía</text>
</g>
<!-- 0&#45;&gt;9 -->
<g id="edge9" class="edge">
<title>0&#45;&gt;9</title>
<path fill="none" stroke="black" d="M819.12,-90.72C802.02,-77.26 775.29,-56.22 755.19,-40.4"/>
<polygon fill="black" stroke="black" points="757.33,-37.63 747.3,-34.2 753,-43.13 757.33,-37.63"/>
<text text-anchor="middle" x="802.5" y="-57.8" font-family="Times,serif" font-size="14.00">dep</text>
</g>
<!-- 10 -->
<g id="node11" class="node">
<title>10</title>
<ellipse fill="none" stroke="black" cx="836" cy="-18" rx="48.99" ry="18"/>
<text text-anchor="middle" x="836" y="-14.3" font-family="Times,serif" font-size="14.00">também</text>
</g>
<!-- 0&#45;&gt;10 -->
<g id="edge10" class="edge">
<title>0&#45;&gt;10</title>
<path fill="none" stroke="black" d="M836,-86.8C836,-75.16 836,-59.55 836,-46.24"/>
<polygon fill="black" stroke="black" points="839.5,-46.18 836,-36.18 832.5,-46.18 839.5,-46.18"/>
<text text-anchor="middle" x="849.5" y="-57.8" font-family="Times,serif" font-size="14.00">dep</text>
</g>
<!-- 11 -->
<g id="node12" class="node">
<title>11</title>
<ellipse fill="none" stroke="black" cx="930" cy="-18" rx="27" ry="18"/>
<text text-anchor="middle" x="930" y="-14.3" font-family="Times,serif" font-size="14.00">a</text>
</g>
<!-- 0&#45;&gt;11 -->
<g id="edge11" class="edge">
<title>0&#45;&gt;11</title>
<path fill="none" stroke="black" d="M851.52,-89.96C866.62,-76.31 889.75,-55.39 906.99,-39.8"/>
<polygon fill="black" stroke="black" points="909.38,-42.36 914.45,-33.06 904.69,-37.17 909.38,-42.36"/>
<text text-anchor="middle" x="902.5" y="-57.8" font-family="Times,serif" font-size="14.00">dep</text>
</g>
<!-- 12 -->
<g id="node13" class="node">
<title>12</title>
<ellipse fill="none" stroke="black" cx="1013" cy="-18" rx="37.89" ry="18"/>
<text text-anchor="middle" x="1013" y="-14.3" font-family="Times,serif" font-size="14.00">URSS</text>
</g>
<!-- 0&#45;&gt;12 -->
<g id="edge12" class="edge">
<title>0&#45;&gt;12</title>
<path fill="none" stroke="black" d="M858.72,-95.24C875.77,-88.49 899.59,-78.71 920,-69 940.58,-59.21 963.1,-47.14 980.83,-37.3"/>
<polygon fill="black" stroke="black" points="982.6,-40.32 989.63,-32.39 979.19,-34.21 982.6,-40.32"/>
<text text-anchor="middle" x="962.5" y="-57.8" font-family="Times,serif" font-size="14.00">dep</text>
</g>
<!-- 13 -->
<g id="node14" class="node">
<title>13</title>
<ellipse fill="none" stroke="black" cx="1096" cy="-18" rx="27" ry="18"/>
<text text-anchor="middle" x="1096" y="-14.3" font-family="Times,serif" font-size="14.00">)</text>
</g>
<!-- 0&#45;&gt;13 -->
<g id="edge13" class="edge">
<title>0&#45;&gt;13</title>
<path fill="none" stroke="black" d="M861.56,-99.02C890.6,-93.08 939.26,-82.26 980,-69 1016.57,-57.09 1024.82,-51.55 1060,-36 1061.8,-35.2 1063.64,-34.37 1065.5,-33.53"/>
<polygon fill="black" stroke="black" points="1067.15,-36.62 1074.76,-29.24 1064.21,-30.27 1067.15,-36.62"/>
<text text-anchor="middle" x="1033.5" y="-57.8" font-family="Times,serif" font-size="14.00">dep</text>
</g>
<!-- 14 -->
<g id="node15" class="node">
<title>14</title>
<ellipse fill="none" stroke="black" cx="1172" cy="-18" rx="30.59" ry="18"/>
<text text-anchor="middle" x="1172" y="-14.3" font-family="Times,serif" font-size="14.00">unia</text>
</g>
<!-- 0&#45;&gt;14 -->
<g id="edge14" class="edge">
<title>0&#45;&gt;14</title>
<path fill="none" stroke="black" d="M862.56,-101.62C903.58,-97.52 984.55,-87.68 1051,-69 1088.42,-58.48 1096.11,-50.94 1132,-36 1134.17,-35.09 1136.41,-34.16 1138.67,-33.21"/>
<polygon fill="black" stroke="black" points="1140.06,-36.42 1147.91,-29.31 1137.33,-29.97 1140.06,-36.42"/>
<text text-anchor="middle" x="1106.5" y="-57.8" font-family="Times,serif" font-size="14.00">dep</text>
</g>
<!-- 15 -->
<g id="node16" class="node">
<title>15</title>
<ellipse fill="none" stroke="black" cx="1248" cy="-18" rx="27" ry="18"/>
<text text-anchor="middle" x="1248" y="-14.3" font-family="Times,serif" font-size="14.00">se</text>
</g>
<!-- 0&#45;&gt;15 -->
<g id="edge15" class="edge">
<title>0&#45;&gt;15</title>
<path fill="none" stroke="black" d="M862.98,-102.86C914.43,-100.22 1029.81,-92.03 1124,-69 1157.24,-60.87 1193.32,-45.52 1217.94,-33.96"/>
<polygon fill="black" stroke="black" points="1219.59,-37.06 1227.11,-29.59 1216.58,-30.74 1219.59,-37.06"/>
<text text-anchor="middle" x="1183.5" y="-57.8" font-family="Times,serif" font-size="14.00">dep</text>
</g>
<!-- 16 -->
<g id="node17" class="node">
<title>16</title>
<ellipse fill="none" stroke="black" cx="1333" cy="-18" rx="40.09" ry="18"/>
<text text-anchor="middle" x="1333" y="-14.3" font-family="Times,serif" font-size="14.00">contra</text>
</g>
<!-- 0&#45;&gt;16 -->
<g id="edge16" class="edge">
<title>0&#45;&gt;16</title>
<path fill="none" stroke="black" d="M862.95,-103.85C923.97,-103 1077,-97.88 1201,-69 1234.43,-61.21 1270.81,-46.97 1296.89,-35.68"/>
<polygon fill="black" stroke="black" points="1298.61,-38.74 1306.35,-31.51 1295.79,-32.34 1298.61,-38.74"/>
<text text-anchor="middle" x="1263.5" y="-57.8" font-family="Times,serif" font-size="14.00">dep</text>
</g>
<!-- 17 -->
<g id="node18" class="node">
<title>17</title>
<ellipse fill="none" stroke="black" cx="1418" cy="-18" rx="27" ry="18"/>
<text text-anchor="middle" x="1418" y="-14.3" font-family="Times,serif" font-size="14.00">o</text>
</g>
<!-- 0&#45;&gt;17 -->
<g id="edge17" class="edge">
<title>0&#45;&gt;17</title>
<path fill="none" stroke="black" d="M863.14,-104.09C933.1,-103.85 1125.02,-100.15 1281,-69 1327.3,-59.75 1338.11,-53.45 1382,-36 1383.83,-35.27 1385.69,-34.5 1387.57,-33.69"/>
<polygon fill="black" stroke="black" points="1389.18,-36.8 1396.87,-29.52 1386.31,-30.42 1389.18,-36.8"/>
<text text-anchor="middle" x="1349.5" y="-57.8" font-family="Times,serif" font-size="14.00">dep</text>
</g>
<!-- 18 -->
<g id="node19" class="node">
<title>18</title>
<ellipse fill="none" stroke="black" cx="1536" cy="-18" rx="73.39" ry="18"/>
<text text-anchor="middle" x="1536" y="-14.3" font-family="Times,serif" font-size="14.00">nazi&#45;fascismo</text>
</g>
<!-- 0&#45;&gt;18 -->
<g id="edge18" class="edge">
<title>0&#45;&gt;18</title>
<path fill="none" stroke="black" d="M863.05,-104.32C941.6,-104.81 1176.23,-103.07 1367,-69 1408.25,-61.63 1453.75,-47.83 1487.13,-36.6"/>
<polygon fill="black" stroke="black" points="1488.31,-39.89 1496.64,-33.35 1486.05,-33.27 1488.31,-39.89"/>
<text text-anchor="middle" x="1442.5" y="-57.8" font-family="Times,serif" font-size="14.00">dep</text>
</g>
<!-- 19 -->
<g id="node20" class="node">
<title>19</title>
<ellipse fill="none" stroke="black" cx="1654" cy="-18" rx="27" ry="18"/>
<text text-anchor="middle" x="1654" y="-14.3" font-family="Times,serif" font-size="14.00">.</text>
</g>
<!-- 0&#45;&gt;19 -->
<g id="edge19" class="edge">
<title>0&#45;&gt;19</title>
<path fill="none" stroke="black" d="M863.2,-103.93C950.38,-103.38 1230.59,-99.22 1460,-69 1531.12,-59.63 1549.98,-58.81 1618,-36 1619.91,-35.36 1621.86,-34.64 1623.81,-33.87"/>
<polygon fill="black" stroke="black" points="1625.6,-36.91 1633.4,-29.74 1622.83,-30.48 1625.6,-36.91"/>
<text text-anchor="middle" x="1570.5" y="-57.8" font-family="Times,serif" font-size="14.00">dep</text>
</g>
</g>
</svg>
