<?xml version="1.0" encoding="UTF-8" standalone="no"?>
<!DOCTYPE svg PUBLIC "-//W3C//DTD SVG 1.1//EN"
 "http://www.w3.org/Graphics/SVG/1.1/DTD/svg11.dtd">
<!-- Generated by graphviz version 2.42.4 (0)
 -->
<!-- Pages: 1 -->
<svg width="1722pt" height="131pt"
 viewBox="0.00 0.00 1722.00 131.00" xmlns="http://www.w3.org/2000/svg" xmlns:xlink="http://www.w3.org/1999/xlink">
<g id="graph0" class="graph" transform="scale(1 1) rotate(0) translate(4 127)">
<polygon fill="white" stroke="transparent" points="-4,4 -4,-127 1718,-127 1718,4 -4,4"/>
<!-- 0 -->
<g id="node1" class="node">
<title>0</title>
<ellipse fill="none" stroke="black" cx="871" cy="-105" rx="37.89" ry="18"/>
<text text-anchor="middle" x="871" y="-101.3" font-family="Times,serif" font-size="14.00">Todos</text>
</g>
<!-- 1 -->
<g id="node2" class="node">
<title>1</title>
<ellipse fill="none" stroke="black" cx="27" cy="-18" rx="27" ry="18"/>
<text text-anchor="middle" x="27" y="-14.3" font-family="Times,serif" font-size="14.00">,</text>
</g>
<!-- 0&#45;&gt;1 -->
<g id="edge1" class="edge">
<title>0&#45;&gt;1</title>
<path fill="none" stroke="black" d="M833.24,-103.47C705.95,-101.48 293.36,-93.27 163,-69 125.56,-62.03 84.83,-45.81 57.8,-33.73"/>
<polygon fill="black" stroke="black" points="59.05,-30.45 48.5,-29.49 56.15,-36.82 59.05,-30.45"/>
<text text-anchor="middle" x="176.5" y="-57.8" font-family="Times,serif" font-size="14.00">dep</text>
</g>
<!-- 2 -->
<g id="node3" class="node">
<title>2</title>
<ellipse fill="none" stroke="black" cx="112" cy="-18" rx="40.09" ry="18"/>
<text text-anchor="middle" x="112" y="-14.3" font-family="Times,serif" font-size="14.00">contra</text>
</g>
<!-- 0&#45;&gt;2 -->
<g id="edge2" class="edge">
<title>0&#45;&gt;2</title>
<path fill="none" stroke="black" d="M833.3,-103.45C715.44,-101.5 355.04,-93.62 241,-69 208.11,-61.9 172.58,-47.59 147.15,-36.1"/>
<polygon fill="black" stroke="black" points="148.48,-32.85 137.93,-31.85 145.55,-39.21 148.48,-32.85"/>
<text text-anchor="middle" x="254.5" y="-57.8" font-family="Times,serif" font-size="14.00">dep</text>
</g>
<!-- 3 -->
<g id="node4" class="node">
<title>3</title>
<ellipse fill="none" stroke="black" cx="197" cy="-18" rx="27" ry="18"/>
<text text-anchor="middle" x="197" y="-14.3" font-family="Times,serif" font-size="14.00">ou</text>
</g>
<!-- 0&#45;&gt;3 -->
<g id="edge3" class="edge">
<title>0&#45;&gt;3</title>
<path fill="none" stroke="black" d="M833.17,-103.07C725.39,-100.17 418.25,-90.25 320,-69 286.78,-61.82 251.03,-46.32 226.68,-34.48"/>
<polygon fill="black" stroke="black" points="228.13,-31.29 217.62,-29.98 225.02,-37.56 228.13,-31.29"/>
<text text-anchor="middle" x="333.5" y="-57.8" font-family="Times,serif" font-size="14.00">dep</text>
</g>
<!-- 4 -->
<g id="node5" class="node">
<title>4</title>
<ellipse fill="none" stroke="black" cx="269" cy="-18" rx="27" ry="18"/>
<text text-anchor="middle" x="269" y="-14.3" font-family="Times,serif" font-size="14.00">a</text>
</g>
<!-- 0&#45;&gt;4 -->
<g id="edge4" class="edge">
<title>0&#45;&gt;4</title>
<path fill="none" stroke="black" d="M833.04,-104.31C752.93,-104.27 561.03,-100.55 404,-69 358.53,-59.86 348.05,-53.27 305,-36 303.17,-35.27 301.3,-34.49 299.43,-33.68"/>
<polygon fill="black" stroke="black" points="300.69,-30.41 290.13,-29.49 297.82,-36.79 300.69,-30.41"/>
<text text-anchor="middle" x="417.5" y="-57.8" font-family="Times,serif" font-size="14.00">dep</text>
</g>
<!-- 5 -->
<g id="node6" class="node">
<title>5</title>
<ellipse fill="none" stroke="black" cx="348" cy="-18" rx="34.39" ry="18"/>
<text text-anchor="middle" x="348" y="-14.3" font-family="Times,serif" font-size="14.00">favor</text>
</g>
<!-- 0&#45;&gt;5 -->
<g id="edge5" class="edge">
<title>0&#45;&gt;5</title>
<path fill="none" stroke="black" d="M833.17,-103.71C763.34,-102.48 609.87,-96.56 484,-69 448.33,-61.19 409.38,-46.16 382.34,-34.61"/>
<polygon fill="black" stroke="black" points="383.51,-31.3 372.95,-30.53 380.72,-37.72 383.51,-31.3"/>
<text text-anchor="middle" x="497.5" y="-57.8" font-family="Times,serif" font-size="14.00">dep</text>
</g>
<!-- 6 -->
<g id="node7" class="node">
<title>6</title>
<ellipse fill="none" stroke="black" cx="427" cy="-18" rx="27" ry="18"/>
<text text-anchor="middle" x="427" y="-14.3" font-family="Times,serif" font-size="14.00">,</text>
</g>
<!-- 0&#45;&gt;6 -->
<g id="edge6" class="edge">
<title>0&#45;&gt;6</title>
<path fill="none" stroke="black" d="M833.89,-101.58C777.67,-97.48 667.72,-87.7 576,-69 524.73,-58.55 511.92,-54.56 463,-36 461.16,-35.3 459.28,-34.55 457.4,-33.76"/>
<polygon fill="black" stroke="black" points="458.64,-30.48 448.08,-29.63 455.81,-36.88 458.64,-30.48"/>
<text text-anchor="middle" x="589.5" y="-57.8" font-family="Times,serif" font-size="14.00">dep</text>
</g>
<!-- 7 -->
<g id="node8" class="node">
<title>7</title>
<ellipse fill="none" stroke="black" cx="516" cy="-18" rx="44.39" ry="18"/>
<text text-anchor="middle" x="516" y="-14.3" font-family="Times,serif" font-size="14.00">partem</text>
</g>
<!-- 0&#45;&gt;7 -->
<g id="edge7" class="edge">
<title>0&#45;&gt;7</title>
<path fill="none" stroke="black" d="M834.52,-100.36C790.68,-95.49 715.15,-85.49 652,-69 618.4,-60.23 581.49,-46.38 554.61,-35.48"/>
<polygon fill="black" stroke="black" points="555.77,-32.17 545.19,-31.61 553.11,-38.64 555.77,-32.17"/>
<text text-anchor="middle" x="665.5" y="-57.8" font-family="Times,serif" font-size="14.00">dep</text>
</g>
<!-- 8 -->
<g id="node9" class="node">
<title>8</title>
<ellipse fill="none" stroke="black" cx="605" cy="-18" rx="27" ry="18"/>
<text text-anchor="middle" x="605" y="-14.3" font-family="Times,serif" font-size="14.00">de</text>
</g>
<!-- 0&#45;&gt;8 -->
<g id="edge8" class="edge">
<title>0&#45;&gt;8</title>
<path fill="none" stroke="black" d="M836.51,-97.38C806.26,-91.21 761.25,-81.14 723,-69 685.56,-57.11 677,-51.73 641,-36 639.19,-35.21 637.35,-34.39 635.48,-33.55"/>
<polygon fill="black" stroke="black" points="636.77,-30.29 626.23,-29.28 633.84,-36.64 636.77,-30.29"/>
<text text-anchor="middle" x="736.5" y="-57.8" font-family="Times,serif" font-size="14.00">dep</text>
</g>
<!-- 9 -->
<g id="node10" class="node">
<title>9</title>
<ellipse fill="none" stroke="black" cx="677" cy="-18" rx="27" ry="18"/>
<text text-anchor="middle" x="677" y="-14.3" font-family="Times,serif" font-size="14.00">o</text>
</g>
<!-- 0&#45;&gt;9 -->
<g id="edge9" class="edge">
<title>0&#45;&gt;9</title>
<path fill="none" stroke="black" d="M842.95,-92.73C826.34,-85.98 804.9,-77.16 786,-69 753.31,-54.89 745.32,-50.94 713,-36 711.21,-35.17 709.38,-34.32 707.52,-33.46"/>
<polygon fill="black" stroke="black" points="708.83,-30.21 698.29,-29.13 705.86,-36.54 708.83,-30.21"/>
<text text-anchor="middle" x="799.5" y="-57.8" font-family="Times,serif" font-size="14.00">dep</text>
</g>
<!-- 10 -->
<g id="node11" class="node">
<title>10</title>
<ellipse fill="none" stroke="black" cx="774" cy="-18" rx="51.99" ry="18"/>
<text text-anchor="middle" x="774" y="-14.3" font-family="Times,serif" font-size="14.00">princípio</text>
</g>
<!-- 0&#45;&gt;10 -->
<g id="edge10" class="edge">
<title>0&#45;&gt;10</title>
<path fill="none" stroke="black" d="M853.66,-88.8C838.77,-75.75 817.08,-56.75 800.09,-41.86"/>
<polygon fill="black" stroke="black" points="802.01,-38.89 792.18,-34.93 797.39,-44.15 802.01,-38.89"/>
<text text-anchor="middle" x="842.5" y="-57.8" font-family="Times,serif" font-size="14.00">dep</text>
</g>
<!-- 11 -->
<g id="node12" class="node">
<title>11</title>
<ellipse fill="none" stroke="black" cx="871" cy="-18" rx="27" ry="18"/>
<text text-anchor="middle" x="871" y="-14.3" font-family="Times,serif" font-size="14.00">de</text>
</g>
<!-- 0&#45;&gt;11 -->
<g id="edge11" class="edge">
<title>0&#45;&gt;11</title>
<path fill="none" stroke="black" d="M871,-86.8C871,-75.16 871,-59.55 871,-46.24"/>
<polygon fill="black" stroke="black" points="874.5,-46.18 871,-36.18 867.5,-46.18 874.5,-46.18"/>
<text text-anchor="middle" x="884.5" y="-57.8" font-family="Times,serif" font-size="14.00">dep</text>
</g>
<!-- 12 -->
<g id="node13" class="node">
<title>12</title>
<ellipse fill="none" stroke="black" cx="944" cy="-18" rx="27.9" ry="18"/>
<text text-anchor="middle" x="944" y="-14.3" font-family="Times,serif" font-size="14.00">que</text>
</g>
<!-- 0&#45;&gt;12 -->
<g id="edge12" class="edge">
<title>0&#45;&gt;12</title>
<path fill="none" stroke="black" d="M885.29,-88.05C890.57,-82.1 896.59,-75.27 902,-69 909.52,-60.28 917.68,-50.61 924.79,-42.12"/>
<polygon fill="black" stroke="black" points="927.51,-44.33 931.24,-34.41 922.14,-39.84 927.51,-44.33"/>
<text text-anchor="middle" x="927.5" y="-57.8" font-family="Times,serif" font-size="14.00">dep</text>
</g>
<!-- 13 -->
<g id="node14" class="node">
<title>13</title>
<ellipse fill="none" stroke="black" cx="1032" cy="-18" rx="41.69" ry="18"/>
<text text-anchor="middle" x="1032" y="-14.3" font-family="Times,serif" font-size="14.00">aquele</text>
</g>
<!-- 0&#45;&gt;13 -->
<g id="edge13" class="edge">
<title>0&#45;&gt;13</title>
<path fill="none" stroke="black" d="M897.62,-92.03C911.82,-85.49 929.51,-77.1 945,-69 963.5,-59.33 983.74,-47.76 1000.04,-38.19"/>
<polygon fill="black" stroke="black" points="1001.82,-41.2 1008.65,-33.1 998.26,-35.17 1001.82,-41.2"/>
<text text-anchor="middle" x="985.5" y="-57.8" font-family="Times,serif" font-size="14.00">dep</text>
</g>
<!-- 14 -->
<g id="node15" class="node">
<title>14</title>
<ellipse fill="none" stroke="black" cx="1119" cy="-18" rx="27" ry="18"/>
<text text-anchor="middle" x="1119" y="-14.3" font-family="Times,serif" font-size="14.00">foi</text>
</g>
<!-- 0&#45;&gt;14 -->
<g id="edge14" class="edge">
<title>0&#45;&gt;14</title>
<path fill="none" stroke="black" d="M904.45,-96.42C931.35,-90.02 969.98,-80.14 1003,-69 1039.45,-56.71 1047.82,-51.55 1083,-36 1084.8,-35.2 1086.65,-34.37 1088.51,-33.53"/>
<polygon fill="black" stroke="black" points="1090.16,-36.62 1097.76,-29.24 1087.22,-30.27 1090.16,-36.62"/>
<text text-anchor="middle" x="1056.5" y="-57.8" font-family="Times,serif" font-size="14.00">dep</text>
</g>
<!-- 15 -->
<g id="node16" class="node">
<title>15</title>
<ellipse fill="none" stroke="black" cx="1191" cy="-18" rx="27" ry="18"/>
<text text-anchor="middle" x="1191" y="-14.3" font-family="Times,serif" font-size="14.00">um</text>
</g>
<!-- 0&#45;&gt;15 -->
<g id="edge15" class="edge">
<title>0&#45;&gt;15</title>
<path fill="none" stroke="black" d="M907.47,-100.12C948.51,-95.2 1016.93,-85.34 1074,-69 1111.37,-58.3 1119.41,-51.64 1155,-36 1156.8,-35.21 1158.65,-34.38 1160.51,-33.54"/>
<polygon fill="black" stroke="black" points="1162.16,-36.63 1169.77,-29.26 1159.22,-30.28 1162.16,-36.63"/>
<text text-anchor="middle" x="1129.5" y="-57.8" font-family="Times,serif" font-size="14.00">dep</text>
</g>
<!-- 16 -->
<g id="node17" class="node">
<title>16</title>
<ellipse fill="none" stroke="black" cx="1272" cy="-18" rx="36.29" ry="18"/>
<text text-anchor="middle" x="1272" y="-14.3" font-family="Times,serif" font-size="14.00">gesto</text>
</g>
<!-- 0&#45;&gt;16 -->
<g id="edge16" class="edge">
<title>0&#45;&gt;16</title>
<path fill="none" stroke="black" d="M908.62,-102.26C962.28,-99.1 1063.54,-90.61 1147,-69 1178.56,-60.83 1212.84,-46.72 1237.5,-35.57"/>
<polygon fill="black" stroke="black" points="1239.16,-38.66 1246.79,-31.3 1236.24,-32.3 1239.16,-38.66"/>
<text text-anchor="middle" x="1206.5" y="-57.8" font-family="Times,serif" font-size="14.00">dep</text>
</g>
<!-- 17 -->
<g id="node18" class="node">
<title>17</title>
<ellipse fill="none" stroke="black" cx="1353" cy="-18" rx="27" ry="18"/>
<text text-anchor="middle" x="1353" y="-14.3" font-family="Times,serif" font-size="14.00">de</text>
</g>
<!-- 0&#45;&gt;17 -->
<g id="edge17" class="edge">
<title>0&#45;&gt;17</title>
<path fill="none" stroke="black" d="M908.57,-103.25C973.6,-101.29 1111.01,-94.26 1224,-69 1258.92,-61.19 1296.88,-45.54 1322.52,-33.82"/>
<polygon fill="black" stroke="black" points="1324.12,-36.93 1331.71,-29.54 1321.17,-30.59 1324.12,-36.93"/>
<text text-anchor="middle" x="1285.5" y="-57.8" font-family="Times,serif" font-size="14.00">dep</text>
</g>
<!-- 18 -->
<g id="node19" class="node">
<title>18</title>
<ellipse fill="none" stroke="black" cx="1425" cy="-18" rx="27" ry="18"/>
<text text-anchor="middle" x="1425" y="-14.3" font-family="Times,serif" font-size="14.00">«</text>
</g>
<!-- 0&#45;&gt;18 -->
<g id="edge18" class="edge">
<title>0&#45;&gt;18</title>
<path fill="none" stroke="black" d="M908.82,-104.53C984.61,-104.81 1160.11,-101.5 1303,-69 1335.91,-61.52 1371.37,-46.07 1395.54,-34.31"/>
<polygon fill="black" stroke="black" points="1397.13,-37.43 1404.53,-29.85 1394.02,-31.16 1397.13,-37.43"/>
<text text-anchor="middle" x="1361.5" y="-57.8" font-family="Times,serif" font-size="14.00">dep</text>
</g>
<!-- 19 -->
<g id="node20" class="node">
<title>19</title>
<ellipse fill="none" stroke="black" cx="1520" cy="-18" rx="50.09" ry="18"/>
<text text-anchor="middle" x="1520" y="-14.3" font-family="Times,serif" font-size="14.00">protesto</text>
</g>
<!-- 0&#45;&gt;19 -->
<g id="edge19" class="edge">
<title>0&#45;&gt;19</title>
<path fill="none" stroke="black" d="M908.75,-102.73C1010.55,-99.09 1289.09,-87.67 1379,-69 1414.26,-61.68 1452.69,-47.62 1480.51,-36.27"/>
<polygon fill="black" stroke="black" points="1481.98,-39.45 1489.88,-32.38 1479.3,-32.98 1481.98,-39.45"/>
<text text-anchor="middle" x="1444.5" y="-57.8" font-family="Times,serif" font-size="14.00">dep</text>
</g>
<!-- 20 -->
<g id="node21" class="node">
<title>20</title>
<ellipse fill="none" stroke="black" cx="1615" cy="-18" rx="27" ry="18"/>
<text text-anchor="middle" x="1615" y="-14.3" font-family="Times,serif" font-size="14.00">»</text>
</g>
<!-- 0&#45;&gt;20 -->
<g id="edge20" class="edge">
<title>0&#45;&gt;20</title>
<path fill="none" stroke="black" d="M909,-104.57C1003.33,-105.38 1255.49,-103.82 1462,-69 1515.28,-60.02 1528.4,-54.93 1579,-36 1580.84,-35.31 1582.73,-34.56 1584.61,-33.78"/>
<polygon fill="black" stroke="black" points="1586.2,-36.9 1593.93,-29.66 1583.37,-30.5 1586.2,-36.9"/>
<text text-anchor="middle" x="1541.5" y="-57.8" font-family="Times,serif" font-size="14.00">dep</text>
</g>
<!-- 21 -->
<g id="node22" class="node">
<title>21</title>
<ellipse fill="none" stroke="black" cx="1687" cy="-18" rx="27" ry="18"/>
<text text-anchor="middle" x="1687" y="-14.3" font-family="Times,serif" font-size="14.00">.</text>
</g>
<!-- 0&#45;&gt;21 -->
<g id="edge21" class="edge">
<title>0&#45;&gt;21</title>
<path fill="none" stroke="black" d="M908.59,-103.54C1033.35,-101.77 1432.93,-94.24 1559,-69 1594.06,-61.98 1631.93,-46.05 1657.31,-34.04"/>
<polygon fill="black" stroke="black" points="1658.91,-37.15 1666.4,-29.66 1655.87,-30.85 1658.91,-37.15"/>
<text text-anchor="middle" x="1623.5" y="-57.8" font-family="Times,serif" font-size="14.00">dep</text>
</g>
</g>
</svg>
