<?xml version="1.0" encoding="UTF-8" standalone="no"?>
<!DOCTYPE svg PUBLIC "-//W3C//DTD SVG 1.1//EN"
 "http://www.w3.org/Graphics/SVG/1.1/DTD/svg11.dtd">
<!-- Generated by graphviz version 2.42.4 (0)
 -->
<!-- Pages: 1 -->
<svg width="947pt" height="131pt"
 viewBox="0.00 0.00 947.00 131.00" xmlns="http://www.w3.org/2000/svg" xmlns:xlink="http://www.w3.org/1999/xlink">
<g id="graph0" class="graph" transform="scale(1 1) rotate(0) translate(4 127)">
<polygon fill="white" stroke="transparent" points="-4,4 -4,-127 943,-127 943,4 -4,4"/>
<!-- 0 -->
<g id="node1" class="node">
<title>0</title>
<ellipse fill="none" stroke="black" cx="492" cy="-105" rx="27" ry="18"/>
<text text-anchor="middle" x="492" y="-101.3" font-family="Times,serif" font-size="14.00">Por</text>
</g>
<!-- 1 -->
<g id="node2" class="node">
<title>1</title>
<ellipse fill="none" stroke="black" cx="27" cy="-18" rx="27" ry="18"/>
<text text-anchor="middle" x="27" y="-14.3" font-family="Times,serif" font-size="14.00">o</text>
</g>
<!-- 0&#45;&gt;1 -->
<g id="edge1" class="edge">
<title>0&#45;&gt;1</title>
<path fill="none" stroke="black" d="M465.18,-101.87C413.43,-97.53 296.3,-86.55 199,-69 137.79,-57.96 121.65,-56.72 63,-36 61.09,-35.33 59.15,-34.59 57.21,-33.8"/>
<polygon fill="black" stroke="black" points="58.2,-30.41 47.64,-29.62 55.4,-36.83 58.2,-30.41"/>
<text text-anchor="middle" x="212.5" y="-57.8" font-family="Times,serif" font-size="14.00">dep</text>
</g>
<!-- 2 -->
<g id="node3" class="node">
<title>2</title>
<ellipse fill="none" stroke="black" cx="116" cy="-18" rx="43.59" ry="18"/>
<text text-anchor="middle" x="116" y="-14.3" font-family="Times,serif" font-size="14.00">correio</text>
</g>
<!-- 0&#45;&gt;2 -->
<g id="edge2" class="edge">
<title>0&#45;&gt;2</title>
<path fill="none" stroke="black" d="M465.62,-100.39C426.42,-94.82 350.59,-83.28 287,-69 233.87,-57.07 221.16,-51.65 169,-36 165.66,-35 162.21,-33.94 158.74,-32.86"/>
<polygon fill="black" stroke="black" points="159.61,-29.47 149.02,-29.8 157.51,-36.14 159.61,-29.47"/>
<text text-anchor="middle" x="300.5" y="-57.8" font-family="Times,serif" font-size="14.00">dep</text>
</g>
<!-- 3 -->
<g id="node4" class="node">
<title>3</title>
<ellipse fill="none" stroke="black" cx="230" cy="-18" rx="51.99" ry="18"/>
<text text-anchor="middle" x="230" y="-14.3" font-family="Times,serif" font-size="14.00">expresso</text>
</g>
<!-- 0&#45;&gt;3 -->
<g id="edge3" class="edge">
<title>0&#45;&gt;3</title>
<path fill="none" stroke="black" d="M466.66,-98.49C439.14,-92.26 394.02,-81.38 356,-69 326.86,-59.51 294.77,-46.74 270.26,-36.48"/>
<polygon fill="black" stroke="black" points="271.5,-33.2 260.93,-32.54 268.78,-39.65 271.5,-33.2"/>
<text text-anchor="middle" x="369.5" y="-57.8" font-family="Times,serif" font-size="14.00">dep</text>
</g>
<!-- 4 -->
<g id="node5" class="node">
<title>4</title>
<ellipse fill="none" stroke="black" cx="327" cy="-18" rx="27" ry="18"/>
<text text-anchor="middle" x="327" y="-14.3" font-family="Times,serif" font-size="14.00">o</text>
</g>
<!-- 0&#45;&gt;4 -->
<g id="edge4" class="edge">
<title>0&#45;&gt;4</title>
<path fill="none" stroke="black" d="M469.56,-94.83C453.58,-88.12 431.71,-78.55 413,-69 393.14,-58.87 371.44,-46.24 354.81,-36.21"/>
<polygon fill="black" stroke="black" points="356.5,-33.14 346.13,-30.94 352.86,-39.12 356.5,-33.14"/>
<text text-anchor="middle" x="426.5" y="-57.8" font-family="Times,serif" font-size="14.00">dep</text>
</g>
<!-- 5 -->
<g id="node6" class="node">
<title>5</title>
<ellipse fill="none" stroke="black" cx="405" cy="-18" rx="33.29" ry="18"/>
<text text-anchor="middle" x="405" y="-14.3" font-family="Times,serif" font-size="14.00">frete</text>
</g>
<!-- 0&#45;&gt;5 -->
<g id="edge5" class="edge">
<title>0&#45;&gt;5</title>
<path fill="none" stroke="black" d="M477.24,-89.58C463.66,-76.31 443.31,-56.43 427.67,-41.15"/>
<polygon fill="black" stroke="black" points="430.02,-38.55 420.42,-34.06 425.12,-43.56 430.02,-38.55"/>
<text text-anchor="middle" x="467.5" y="-57.8" font-family="Times,serif" font-size="14.00">dep</text>
</g>
<!-- 6 -->
<g id="node7" class="node">
<title>6</title>
<ellipse fill="none" stroke="black" cx="492" cy="-18" rx="36" ry="18"/>
<text text-anchor="middle" x="492" y="-14.3" font-family="Times,serif" font-size="14.00">custa</text>
</g>
<!-- 0&#45;&gt;6 -->
<g id="edge6" class="edge">
<title>0&#45;&gt;6</title>
<path fill="none" stroke="black" d="M492,-86.8C492,-75.16 492,-59.55 492,-46.24"/>
<polygon fill="black" stroke="black" points="495.5,-46.18 492,-36.18 488.5,-46.18 495.5,-46.18"/>
<text text-anchor="middle" x="505.5" y="-57.8" font-family="Times,serif" font-size="14.00">dep</text>
</g>
<!-- 7 -->
<g id="node8" class="node">
<title>7</title>
<ellipse fill="none" stroke="black" cx="594" cy="-18" rx="48.99" ry="18"/>
<text text-anchor="middle" x="594" y="-14.3" font-family="Times,serif" font-size="14.00">próximo</text>
</g>
<!-- 0&#45;&gt;7 -->
<g id="edge7" class="edge">
<title>0&#45;&gt;7</title>
<path fill="none" stroke="black" d="M508.39,-90.34C524.28,-77.1 548.67,-56.78 567.35,-41.21"/>
<polygon fill="black" stroke="black" points="569.79,-43.73 575.23,-34.64 565.31,-38.36 569.79,-43.73"/>
<text text-anchor="middle" x="563.5" y="-57.8" font-family="Times,serif" font-size="14.00">dep</text>
</g>
<!-- 8 -->
<g id="node9" class="node">
<title>8</title>
<ellipse fill="none" stroke="black" cx="688" cy="-18" rx="27" ry="18"/>
<text text-anchor="middle" x="688" y="-14.3" font-family="Times,serif" font-size="14.00">de</text>
</g>
<!-- 0&#45;&gt;8 -->
<g id="edge8" class="edge">
<title>0&#45;&gt;8</title>
<path fill="none" stroke="black" d="M515.21,-95.31C533.26,-88.45 558.87,-78.48 581,-69 612.98,-55.29 620.49,-50.76 652,-36 653.78,-35.16 655.62,-34.3 657.47,-33.43"/>
<polygon fill="black" stroke="black" points="659.13,-36.52 666.69,-29.09 656.15,-30.18 659.13,-36.52"/>
<text text-anchor="middle" x="628.5" y="-57.8" font-family="Times,serif" font-size="14.00">dep</text>
</g>
<!-- 9 -->
<g id="node10" class="node">
<title>9</title>
<ellipse fill="none" stroke="black" cx="764" cy="-18" rx="30.59" ry="18"/>
<text text-anchor="middle" x="764" y="-14.3" font-family="Times,serif" font-size="14.00">US$</text>
</g>
<!-- 0&#45;&gt;9 -->
<g id="edge9" class="edge">
<title>0&#45;&gt;9</title>
<path fill="none" stroke="black" d="M517.99,-99.55C548.91,-93.92 601.9,-83.22 646,-69 681.83,-57.45 689.35,-50.69 724,-36 726.17,-35.08 728.4,-34.13 730.66,-33.18"/>
<polygon fill="black" stroke="black" points="732.05,-36.39 739.89,-29.25 729.32,-29.94 732.05,-36.39"/>
<text text-anchor="middle" x="698.5" y="-57.8" font-family="Times,serif" font-size="14.00">dep</text>
</g>
<!-- 10 -->
<g id="node11" class="node">
<title>10</title>
<ellipse fill="none" stroke="black" cx="840" cy="-18" rx="27" ry="18"/>
<text text-anchor="middle" x="840" y="-14.3" font-family="Times,serif" font-size="14.00">50</text>
</g>
<!-- 0&#45;&gt;10 -->
<g id="edge10" class="edge">
<title>0&#45;&gt;10</title>
<path fill="none" stroke="black" d="M518.57,-101.62C560.88,-97.43 645.95,-87.4 716,-69 748.9,-60.36 784.77,-45.22 809.42,-33.86"/>
<polygon fill="black" stroke="black" points="811.04,-36.97 818.62,-29.56 808.08,-30.63 811.04,-36.97"/>
<text text-anchor="middle" x="775.5" y="-57.8" font-family="Times,serif" font-size="14.00">dep</text>
</g>
<!-- 11 -->
<g id="node12" class="node">
<title>11</title>
<ellipse fill="none" stroke="black" cx="912" cy="-18" rx="27" ry="18"/>
<text text-anchor="middle" x="912" y="-14.3" font-family="Times,serif" font-size="14.00">.</text>
</g>
<!-- 0&#45;&gt;11 -->
<g id="edge11" class="edge">
<title>0&#45;&gt;11</title>
<path fill="none" stroke="black" d="M519,-103.23C572.21,-101.19 694.04,-93.96 793,-69 824.7,-61 858.92,-45.88 882.49,-34.35"/>
<polygon fill="black" stroke="black" points="884.2,-37.41 891.59,-29.82 881.08,-31.15 884.2,-37.41"/>
<text text-anchor="middle" x="850.5" y="-57.8" font-family="Times,serif" font-size="14.00">dep</text>
</g>
</g>
</svg>
