<?xml version="1.0" encoding="UTF-8" standalone="no"?>
<!DOCTYPE svg PUBLIC "-//W3C//DTD SVG 1.1//EN"
 "http://www.w3.org/Graphics/SVG/1.1/DTD/svg11.dtd">
<!-- Generated by graphviz version 2.42.4 (0)
 -->
<!-- Pages: 1 -->
<svg width="4364pt" height="131pt"
 viewBox="0.00 0.00 4363.55 131.00" xmlns="http://www.w3.org/2000/svg" xmlns:xlink="http://www.w3.org/1999/xlink">
<g id="graph0" class="graph" transform="scale(1 1) rotate(0) translate(4 127)">
<polygon fill="white" stroke="transparent" points="-4,4 -4,-127 4359.55,-127 4359.55,4 -4,4"/>
<!-- 0 -->
<g id="node1" class="node">
<title>0</title>
<ellipse fill="none" stroke="black" cx="2143.55" cy="-105" rx="27" ry="18"/>
<text text-anchor="middle" x="2143.55" y="-101.3" font-family="Times,serif" font-size="14.00">A</text>
</g>
<!-- 1 -->
<g id="node2" class="node">
<title>1</title>
<ellipse fill="none" stroke="black" cx="43.55" cy="-18" rx="43.59" ry="18"/>
<text text-anchor="middle" x="43.55" y="-14.3" font-family="Times,serif" font-size="14.00">aliança</text>
</g>
<!-- 0&#45;&gt;1 -->
<g id="edge1" class="edge">
<title>0&#45;&gt;1</title>
<path fill="none" stroke="black" d="M2116.49,-104.02C1895.37,-104.13 388.58,-103.58 190.55,-69 152.37,-62.33 110.72,-47.39 81.53,-35.56"/>
<polygon fill="black" stroke="black" points="82.71,-32.27 72.13,-31.69 80.04,-38.74 82.71,-32.27"/>
<text text-anchor="middle" x="204.05" y="-57.8" font-family="Times,serif" font-size="14.00">dep</text>
</g>
<!-- 2 -->
<g id="node3" class="node">
<title>2</title>
<ellipse fill="none" stroke="black" cx="140.55" cy="-18" rx="36" ry="18"/>
<text text-anchor="middle" x="140.55" y="-14.3" font-family="Times,serif" font-size="14.00">entre</text>
</g>
<!-- 0&#45;&gt;2 -->
<g id="edge2" class="edge">
<title>0&#45;&gt;2</title>
<path fill="none" stroke="black" d="M2116.28,-104.05C1899.76,-104.36 462.22,-105.04 273.55,-69 238.59,-62.32 200.79,-47.29 174.45,-35.44"/>
<polygon fill="black" stroke="black" points="175.85,-32.23 165.3,-31.24 172.93,-38.59 175.85,-32.23"/>
<text text-anchor="middle" x="287.05" y="-57.8" font-family="Times,serif" font-size="14.00">dep</text>
</g>
<!-- 3 -->
<g id="node4" class="node">
<title>3</title>
<ellipse fill="none" stroke="black" cx="221.55" cy="-18" rx="27" ry="18"/>
<text text-anchor="middle" x="221.55" y="-14.3" font-family="Times,serif" font-size="14.00">a</text>
</g>
<!-- 0&#45;&gt;3 -->
<g id="edge3" class="edge">
<title>0&#45;&gt;3</title>
<path fill="none" stroke="black" d="M2116.54,-103.95C1906.6,-103.52 539.05,-99.56 358.55,-69 320.53,-62.56 279.26,-46.09 252.06,-33.8"/>
<polygon fill="black" stroke="black" points="253.26,-30.5 242.71,-29.49 250.32,-36.85 253.26,-30.5"/>
<text text-anchor="middle" x="372.05" y="-57.8" font-family="Times,serif" font-size="14.00">dep</text>
</g>
<!-- 4 -->
<g id="node5" class="node">
<title>4</title>
<ellipse fill="none" stroke="black" cx="310.55" cy="-18" rx="44.39" ry="18"/>
<text text-anchor="middle" x="310.55" y="-14.3" font-family="Times,serif" font-size="14.00">Hitachi</text>
</g>
<!-- 0&#45;&gt;4 -->
<g id="edge4" class="edge">
<title>0&#45;&gt;4</title>
<path fill="none" stroke="black" d="M2116.47,-104.01C1911.84,-103.99 611.57,-102.58 440.55,-69 407.72,-62.56 372.42,-48.48 346.89,-36.9"/>
<polygon fill="black" stroke="black" points="348.16,-33.63 337.61,-32.6 345.22,-39.98 348.16,-33.63"/>
<text text-anchor="middle" x="454.05" y="-57.8" font-family="Times,serif" font-size="14.00">dep</text>
</g>
<!-- 5 -->
<g id="node6" class="node">
<title>5</title>
<ellipse fill="none" stroke="black" cx="399.55" cy="-18" rx="27" ry="18"/>
<text text-anchor="middle" x="399.55" y="-14.3" font-family="Times,serif" font-size="14.00">e</text>
</g>
<!-- 0&#45;&gt;5 -->
<g id="edge5" class="edge">
<title>0&#45;&gt;5</title>
<path fill="none" stroke="black" d="M2116.44,-104C1917.01,-103.96 680.23,-102.33 517.55,-69 485.75,-62.49 451.87,-47.16 428.6,-35.18"/>
<polygon fill="black" stroke="black" points="430.11,-32.01 419.63,-30.45 426.84,-38.2 430.11,-32.01"/>
<text text-anchor="middle" x="531.05" y="-57.8" font-family="Times,serif" font-size="14.00">dep</text>
</g>
<!-- 6 -->
<g id="node7" class="node">
<title>6</title>
<ellipse fill="none" stroke="black" cx="471.55" cy="-18" rx="27" ry="18"/>
<text text-anchor="middle" x="471.55" y="-14.3" font-family="Times,serif" font-size="14.00">a</text>
</g>
<!-- 0&#45;&gt;6 -->
<g id="edge6" class="edge">
<title>0&#45;&gt;6</title>
<path fill="none" stroke="black" d="M2116.56,-103.92C1923.24,-103.29 752.36,-98.3 597.55,-69 563.25,-62.51 526.4,-46.76 501.47,-34.65"/>
<polygon fill="black" stroke="black" points="502.72,-31.37 492.2,-30.06 499.61,-37.64 502.72,-31.37"/>
<text text-anchor="middle" x="611.05" y="-57.8" font-family="Times,serif" font-size="14.00">dep</text>
</g>
<!-- 7 -->
<g id="node8" class="node">
<title>7</title>
<ellipse fill="none" stroke="black" cx="553.55" cy="-18" rx="37.09" ry="18"/>
<text text-anchor="middle" x="553.55" y="-14.3" font-family="Times,serif" font-size="14.00">Texas</text>
</g>
<!-- 0&#45;&gt;7 -->
<g id="edge7" class="edge">
<title>0&#45;&gt;7</title>
<path fill="none" stroke="black" d="M2116.44,-103.94C1928.5,-103.46 822.54,-99.35 676.55,-69 644.87,-62.41 610.95,-48.02 586.77,-36.36"/>
<polygon fill="black" stroke="black" points="588.2,-33.16 577.69,-31.88 585.11,-39.44 588.2,-33.16"/>
<text text-anchor="middle" x="690.05" y="-57.8" font-family="Times,serif" font-size="14.00">dep</text>
</g>
<!-- 8 -->
<g id="node9" class="node">
<title>8</title>
<ellipse fill="none" stroke="black" cx="635.55" cy="-18" rx="27" ry="18"/>
<text text-anchor="middle" x="635.55" y="-14.3" font-family="Times,serif" font-size="14.00">&#45;&#45;</text>
</g>
<!-- 0&#45;&gt;8 -->
<g id="edge8" class="edge">
<title>0&#45;&gt;8</title>
<path fill="none" stroke="black" d="M2116.42,-103.9C1934.2,-103.13 891.54,-97.53 753.55,-69 721.76,-62.43 687.88,-47.11 664.61,-35.14"/>
<polygon fill="black" stroke="black" points="666.11,-31.98 655.63,-30.42 662.85,-38.17 666.11,-31.98"/>
<text text-anchor="middle" x="767.05" y="-57.8" font-family="Times,serif" font-size="14.00">dep</text>
</g>
<!-- 9 -->
<g id="node10" class="node">
<title>9</title>
<ellipse fill="none" stroke="black" cx="708.55" cy="-18" rx="27.9" ry="18"/>
<text text-anchor="middle" x="708.55" y="-14.3" font-family="Times,serif" font-size="14.00">que</text>
</g>
<!-- 0&#45;&gt;9 -->
<g id="edge9" class="edge">
<title>0&#45;&gt;9</title>
<path fill="none" stroke="black" d="M2116.59,-103.82C1941.05,-102.55 963.55,-94.37 833.55,-69 799.73,-62.4 763.4,-46.82 738.68,-34.79"/>
<polygon fill="black" stroke="black" points="739.99,-31.53 729.47,-30.22 736.87,-37.8 739.99,-31.53"/>
<text text-anchor="middle" x="847.05" y="-57.8" font-family="Times,serif" font-size="14.00">dep</text>
</g>
<!-- 10 -->
<g id="node11" class="node">
<title>10</title>
<ellipse fill="none" stroke="black" cx="781.55" cy="-18" rx="27" ry="18"/>
<text text-anchor="middle" x="781.55" y="-14.3" font-family="Times,serif" font-size="14.00">é</text>
</g>
<!-- 0&#45;&gt;10 -->
<g id="edge10" class="edge">
<title>0&#45;&gt;10</title>
<path fill="none" stroke="black" d="M2116.47,-103.69C1947.42,-101.71 1040.12,-90.14 918.55,-69 880.56,-62.39 839.28,-45.95 812.07,-33.71"/>
<polygon fill="black" stroke="black" points="813.27,-30.41 802.72,-29.42 810.35,-36.77 813.27,-30.41"/>
<text text-anchor="middle" x="932.05" y="-57.8" font-family="Times,serif" font-size="14.00">dep</text>
</g>
<!-- 11 -->
<g id="node12" class="node">
<title>11</title>
<ellipse fill="none" stroke="black" cx="857.55" cy="-18" rx="30.59" ry="18"/>
<text text-anchor="middle" x="857.55" y="-14.3" font-family="Times,serif" font-size="14.00">uma</text>
</g>
<!-- 0&#45;&gt;11 -->
<g id="edge11" class="edge">
<title>0&#45;&gt;11</title>
<path fill="none" stroke="black" d="M2116.44,-104.04C1966.53,-104.12 1237.58,-102.73 1015.55,-69 961.28,-60.76 948.27,-54.34 896.55,-36 894.45,-35.26 892.31,-34.46 890.17,-33.62"/>
<polygon fill="black" stroke="black" points="891.42,-30.35 880.84,-29.79 888.76,-36.82 891.42,-30.35"/>
<text text-anchor="middle" x="1029.05" y="-57.8" font-family="Times,serif" font-size="14.00">dep</text>
</g>
<!-- 12 -->
<g id="node13" class="node">
<title>12</title>
<ellipse fill="none" stroke="black" cx="956.55" cy="-18" rx="50.89" ry="18"/>
<text text-anchor="middle" x="956.55" y="-14.3" font-family="Times,serif" font-size="14.00">resposta</text>
</g>
<!-- 0&#45;&gt;12 -->
<g id="edge12" class="edge">
<title>0&#45;&gt;12</title>
<path fill="none" stroke="black" d="M2116.21,-104.16C1972.81,-104.86 1306.14,-106.02 1103.55,-69 1066.38,-62.21 1025.85,-47.87 996.78,-36.28"/>
<polygon fill="black" stroke="black" points="997.96,-32.98 987.38,-32.47 995.33,-39.47 997.96,-32.98"/>
<text text-anchor="middle" x="1117.05" y="-57.8" font-family="Times,serif" font-size="14.00">dep</text>
</g>
<!-- 13 -->
<g id="node14" class="node">
<title>13</title>
<ellipse fill="none" stroke="black" cx="1052.55" cy="-18" rx="27" ry="18"/>
<text text-anchor="middle" x="1052.55" y="-14.3" font-family="Times,serif" font-size="14.00">a</text>
</g>
<!-- 0&#45;&gt;13 -->
<g id="edge13" class="edge">
<title>0&#45;&gt;13</title>
<path fill="none" stroke="black" d="M2116.18,-104.06C1979.72,-104.2 1371.97,-102.87 1186.55,-69 1149.56,-62.24 1109.45,-45.99 1082.85,-33.84"/>
<polygon fill="black" stroke="black" points="1084.24,-30.62 1073.69,-29.57 1081.28,-36.96 1084.24,-30.62"/>
<text text-anchor="middle" x="1200.05" y="-57.8" font-family="Times,serif" font-size="14.00">dep</text>
</g>
<!-- 14 -->
<g id="node15" class="node">
<title>14</title>
<ellipse fill="none" stroke="black" cx="1124.55" cy="-18" rx="27" ry="18"/>
<text text-anchor="middle" x="1124.55" y="-14.3" font-family="Times,serif" font-size="14.00">a</text>
</g>
<!-- 0&#45;&gt;14 -->
<g id="edge14" class="edge">
<title>0&#45;&gt;14</title>
<path fill="none" stroke="black" d="M2116.41,-103.62C1989.99,-101.74 1458.03,-92.54 1293.55,-69 1233.26,-60.37 1217.92,-56.44 1160.55,-36 1158.64,-35.32 1156.7,-34.58 1154.76,-33.79"/>
<polygon fill="black" stroke="black" points="1155.76,-30.4 1145.19,-29.6 1152.95,-36.82 1155.76,-30.4"/>
<text text-anchor="middle" x="1307.05" y="-57.8" font-family="Times,serif" font-size="14.00">dep</text>
</g>
<!-- 15 -->
<g id="node16" class="node">
<title>15</title>
<ellipse fill="none" stroke="black" cx="1229.55" cy="-18" rx="59.59" ry="18"/>
<text text-anchor="middle" x="1229.55" y="-14.3" font-family="Times,serif" font-size="14.00">associação</text>
</g>
<!-- 0&#45;&gt;15 -->
<g id="edge15" class="edge">
<title>0&#45;&gt;15</title>
<path fill="none" stroke="black" d="M2116.35,-103.77C1997.66,-102.59 1524.43,-96.26 1378.55,-69 1341.68,-62.11 1301.44,-48.2 1272.09,-36.8"/>
<polygon fill="black" stroke="black" points="1273.16,-33.46 1262.57,-33.04 1270.58,-39.97 1273.16,-33.46"/>
<text text-anchor="middle" x="1392.05" y="-57.8" font-family="Times,serif" font-size="14.00">dep</text>
</g>
<!-- 16 -->
<g id="node17" class="node">
<title>16</title>
<ellipse fill="none" stroke="black" cx="1334.55" cy="-18" rx="27" ry="18"/>
<text text-anchor="middle" x="1334.55" y="-14.3" font-family="Times,serif" font-size="14.00">de</text>
</g>
<!-- 0&#45;&gt;16 -->
<g id="edge16" class="edge">
<title>0&#45;&gt;16</title>
<path fill="none" stroke="black" d="M2116.57,-103.74C2005.95,-102.51 1586.8,-96.11 1457.55,-69 1424.29,-62.02 1388.54,-46.5 1364.2,-34.59"/>
<polygon fill="black" stroke="black" points="1365.66,-31.4 1355.15,-30.06 1362.53,-37.66 1365.66,-31.4"/>
<text text-anchor="middle" x="1471.05" y="-57.8" font-family="Times,serif" font-size="14.00">dep</text>
</g>
<!-- 17 -->
<g id="node18" class="node">
<title>17</title>
<ellipse fill="none" stroke="black" cx="1406.55" cy="-18" rx="27" ry="18"/>
<text text-anchor="middle" x="1406.55" y="-14.3" font-family="Times,serif" font-size="14.00">a</text>
</g>
<!-- 0&#45;&gt;17 -->
<g id="edge17" class="edge">
<title>0&#45;&gt;17</title>
<path fill="none" stroke="black" d="M2116.46,-103.39C2014.42,-100.93 1653.28,-90.84 1540.55,-69 1503.64,-61.85 1463.51,-45.67 1436.89,-33.64"/>
<polygon fill="black" stroke="black" points="1438.27,-30.42 1427.72,-29.42 1435.34,-36.78 1438.27,-30.42"/>
<text text-anchor="middle" x="1554.05" y="-57.8" font-family="Times,serif" font-size="14.00">dep</text>
</g>
<!-- 18 -->
<g id="node19" class="node">
<title>18</title>
<ellipse fill="none" stroke="black" cx="1482.55" cy="-18" rx="30.59" ry="18"/>
<text text-anchor="middle" x="1482.55" y="-14.3" font-family="Times,serif" font-size="14.00">IBM</text>
</g>
<!-- 0&#45;&gt;18 -->
<g id="edge18" class="edge">
<title>0&#45;&gt;18</title>
<path fill="none" stroke="black" d="M2116.34,-104.6C2038.41,-105.79 1808.03,-105.71 1621.55,-69 1583.96,-61.6 1542.9,-45.81 1515.23,-33.94"/>
<polygon fill="black" stroke="black" points="1516.59,-30.72 1506.03,-29.93 1513.79,-37.13 1516.59,-30.72"/>
<text text-anchor="middle" x="1635.05" y="-57.8" font-family="Times,serif" font-size="14.00">dep</text>
</g>
<!-- 19 -->
<g id="node20" class="node">
<title>19</title>
<ellipse fill="none" stroke="black" cx="1558.55" cy="-18" rx="27" ry="18"/>
<text text-anchor="middle" x="1558.55" y="-14.3" font-family="Times,serif" font-size="14.00">,</text>
</g>
<!-- 0&#45;&gt;19 -->
<g id="edge19" class="edge">
<title>0&#45;&gt;19</title>
<path fill="none" stroke="black" d="M2116.24,-103.16C2049.7,-100.79 1874.05,-92.62 1729.55,-69 1668.59,-59.03 1652.77,-56.63 1594.55,-36 1592.64,-35.32 1590.7,-34.58 1588.76,-33.8"/>
<polygon fill="black" stroke="black" points="1589.75,-30.41 1579.19,-29.62 1586.95,-36.83 1589.75,-30.41"/>
<text text-anchor="middle" x="1743.05" y="-57.8" font-family="Times,serif" font-size="14.00">dep</text>
</g>
<!-- 20 -->
<g id="node21" class="node">
<title>20</title>
<ellipse fill="none" stroke="black" cx="1653.55" cy="-18" rx="50.09" ry="18"/>
<text text-anchor="middle" x="1653.55" y="-14.3" font-family="Times,serif" font-size="14.00">Siemens</text>
</g>
<!-- 0&#45;&gt;20 -->
<g id="edge20" class="edge">
<title>0&#45;&gt;20</title>
<path fill="none" stroke="black" d="M2116.49,-102.74C2060.68,-99.78 1928.91,-90.9 1820.55,-69 1778.07,-60.42 1730.86,-45.79 1697.51,-34.57"/>
<polygon fill="black" stroke="black" points="1698.22,-31.11 1687.62,-31.21 1695.96,-37.74 1698.22,-31.11"/>
<text text-anchor="middle" x="1834.05" y="-57.8" font-family="Times,serif" font-size="14.00">dep</text>
</g>
<!-- 21 -->
<g id="node22" class="node">
<title>21</title>
<ellipse fill="none" stroke="black" cx="1748.55" cy="-18" rx="27" ry="18"/>
<text text-anchor="middle" x="1748.55" y="-14.3" font-family="Times,serif" font-size="14.00">e</text>
</g>
<!-- 0&#45;&gt;21 -->
<g id="edge21" class="edge">
<title>0&#45;&gt;21</title>
<path fill="none" stroke="black" d="M2116.72,-101.67C2056.06,-95.82 1904.31,-77.87 1784.55,-36 1782.64,-35.33 1780.7,-34.6 1778.75,-33.81"/>
<polygon fill="black" stroke="black" points="1779.74,-30.43 1769.18,-29.65 1776.95,-36.85 1779.74,-30.43"/>
<text text-anchor="middle" x="1914.05" y="-57.8" font-family="Times,serif" font-size="14.00">dep</text>
</g>
<!-- 22 -->
<g id="node23" class="node">
<title>22</title>
<ellipse fill="none" stroke="black" cx="1839.55" cy="-18" rx="46.29" ry="18"/>
<text text-anchor="middle" x="1839.55" y="-14.3" font-family="Times,serif" font-size="14.00">Toshiba</text>
</g>
<!-- 0&#45;&gt;22 -->
<g id="edge22" class="edge">
<title>0&#45;&gt;22</title>
<path fill="none" stroke="black" d="M2118.61,-97.76C2091.47,-90.91 2046.84,-79.5 2008.55,-69 1957.68,-55.05 1945.08,-51.12 1894.55,-36 1891.19,-35 1887.72,-33.95 1884.23,-32.89"/>
<polygon fill="black" stroke="black" points="1885.02,-29.47 1874.43,-29.89 1882.97,-36.16 1885.02,-29.47"/>
<text text-anchor="middle" x="2022.05" y="-57.8" font-family="Times,serif" font-size="14.00">dep</text>
</g>
<!-- 23 -->
<g id="node24" class="node">
<title>23</title>
<ellipse fill="none" stroke="black" cx="1961.55" cy="-18" rx="57.69" ry="18"/>
<text text-anchor="middle" x="1961.55" y="-14.3" font-family="Times,serif" font-size="14.00">anunciada</text>
</g>
<!-- 0&#45;&gt;23 -->
<g id="edge23" class="edge">
<title>0&#45;&gt;23</title>
<path fill="none" stroke="black" d="M2121.88,-93.89C2106.9,-86.91 2086.51,-77.39 2068.55,-69 2046.41,-58.66 2021.71,-47.12 2001.62,-37.73"/>
<polygon fill="black" stroke="black" points="2002.99,-34.51 1992.45,-33.45 2000.03,-40.85 2002.99,-34.51"/>
<text text-anchor="middle" x="2082.05" y="-57.8" font-family="Times,serif" font-size="14.00">dep</text>
</g>
<!-- 24 -->
<g id="node25" class="node">
<title>24</title>
<ellipse fill="none" stroke="black" cx="2064.55" cy="-18" rx="27" ry="18"/>
<text text-anchor="middle" x="2064.55" y="-14.3" font-family="Times,serif" font-size="14.00">em</text>
</g>
<!-- 0&#45;&gt;24 -->
<g id="edge24" class="edge">
<title>0&#45;&gt;24</title>
<path fill="none" stroke="black" d="M2129.79,-89.19C2117.44,-75.91 2099.15,-56.23 2085.07,-41.08"/>
<polygon fill="black" stroke="black" points="2087.52,-38.58 2078.15,-33.64 2082.39,-43.34 2087.52,-38.58"/>
<text text-anchor="middle" x="2123.05" y="-57.8" font-family="Times,serif" font-size="14.00">dep</text>
</g>
<!-- 25 -->
<g id="node26" class="node">
<title>25</title>
<ellipse fill="none" stroke="black" cx="2143.55" cy="-18" rx="34.39" ry="18"/>
<text text-anchor="middle" x="2143.55" y="-14.3" font-family="Times,serif" font-size="14.00">Julho</text>
</g>
<!-- 0&#45;&gt;25 -->
<g id="edge25" class="edge">
<title>0&#45;&gt;25</title>
<path fill="none" stroke="black" d="M2143.55,-86.8C2143.55,-75.16 2143.55,-59.55 2143.55,-46.24"/>
<polygon fill="black" stroke="black" points="2147.05,-46.18 2143.55,-36.18 2140.05,-46.18 2147.05,-46.18"/>
<text text-anchor="middle" x="2157.05" y="-57.8" font-family="Times,serif" font-size="14.00">dep</text>
</g>
<!-- 26 -->
<g id="node27" class="node">
<title>26</title>
<ellipse fill="none" stroke="black" cx="2244.55" cy="-18" rx="48.19" ry="18"/>
<text text-anchor="middle" x="2244.55" y="-14.3" font-family="Times,serif" font-size="14.00">passado</text>
</g>
<!-- 0&#45;&gt;26 -->
<g id="edge26" class="edge">
<title>0&#45;&gt;26</title>
<path fill="none" stroke="black" d="M2159.77,-90.34C2175.51,-77.1 2199.66,-56.78 2218.16,-41.21"/>
<polygon fill="black" stroke="black" points="2220.56,-43.76 2225.96,-34.64 2216.05,-38.4 2220.56,-43.76"/>
<text text-anchor="middle" x="2214.05" y="-57.8" font-family="Times,serif" font-size="14.00">dep</text>
</g>
<!-- 27 -->
<g id="node28" class="node">
<title>27</title>
<ellipse fill="none" stroke="black" cx="2337.55" cy="-18" rx="27" ry="18"/>
<text text-anchor="middle" x="2337.55" y="-14.3" font-family="Times,serif" font-size="14.00">em</text>
</g>
<!-- 0&#45;&gt;27 -->
<g id="edge27" class="edge">
<title>0&#45;&gt;27</title>
<path fill="none" stroke="black" d="M2166.5,-95.32C2184.35,-88.46 2209.68,-78.49 2231.55,-69 2263.1,-55.3 2270.44,-50.68 2301.55,-36 2303.33,-35.16 2305.16,-34.3 2307.01,-33.42"/>
<polygon fill="black" stroke="black" points="2308.68,-36.5 2316.23,-29.07 2305.69,-30.17 2308.68,-36.5"/>
<text text-anchor="middle" x="2277.05" y="-57.8" font-family="Times,serif" font-size="14.00">dep</text>
</g>
<!-- 28 -->
<g id="node29" class="node">
<title>28</title>
<ellipse fill="none" stroke="black" cx="2413.55" cy="-18" rx="30.59" ry="18"/>
<text text-anchor="middle" x="2413.55" y="-14.3" font-family="Times,serif" font-size="14.00">esta</text>
</g>
<!-- 0&#45;&gt;28 -->
<g id="edge28" class="edge">
<title>0&#45;&gt;28</title>
<path fill="none" stroke="black" d="M2169.28,-99.4C2199.63,-93.67 2251.39,-82.91 2294.55,-69 2330.76,-57.33 2338.48,-50.78 2373.55,-36 2375.72,-35.09 2377.95,-34.14 2380.21,-33.19"/>
<polygon fill="black" stroke="black" points="2381.6,-36.4 2389.44,-29.27 2378.87,-29.95 2381.6,-36.4"/>
<text text-anchor="middle" x="2347.05" y="-57.8" font-family="Times,serif" font-size="14.00">dep</text>
</g>
<!-- 29 -->
<g id="node30" class="node">
<title>29</title>
<ellipse fill="none" stroke="black" cx="2506.55" cy="-18" rx="44.39" ry="18"/>
<text text-anchor="middle" x="2506.55" y="-14.3" font-family="Times,serif" font-size="14.00">mesma</text>
</g>
<!-- 0&#45;&gt;29 -->
<g id="edge29" class="edge">
<title>0&#45;&gt;29</title>
<path fill="none" stroke="black" d="M2170.05,-101.38C2211.86,-96.89 2295.44,-86.48 2364.55,-69 2399.9,-60.05 2438.91,-46 2467.08,-35.07"/>
<polygon fill="black" stroke="black" points="2468.54,-38.26 2476.57,-31.35 2465.98,-31.74 2468.54,-38.26"/>
<text text-anchor="middle" x="2426.05" y="-57.8" font-family="Times,serif" font-size="14.00">dep</text>
</g>
<!-- 30 -->
<g id="node31" class="node">
<title>30</title>
<ellipse fill="none" stroke="black" cx="2599.55" cy="-18" rx="31.4" ry="18"/>
<text text-anchor="middle" x="2599.55" y="-14.3" font-family="Times,serif" font-size="14.00">área</text>
</g>
<!-- 0&#45;&gt;30 -->
<g id="edge30" class="edge">
<title>0&#45;&gt;30</title>
<path fill="none" stroke="black" d="M2170.26,-102.33C2222.94,-98.73 2343.78,-88.88 2443.55,-69 2496.11,-58.53 2509,-53.85 2559.55,-36 2561.77,-35.22 2564.04,-34.37 2566.32,-33.49"/>
<polygon fill="black" stroke="black" points="2567.66,-36.72 2575.62,-29.74 2565.04,-30.23 2567.66,-36.72"/>
<text text-anchor="middle" x="2520.05" y="-57.8" font-family="Times,serif" font-size="14.00">dep</text>
</g>
<!-- 31 -->
<g id="node32" class="node">
<title>31</title>
<ellipse fill="none" stroke="black" cx="2675.55" cy="-18" rx="27" ry="18"/>
<text text-anchor="middle" x="2675.55" y="-14.3" font-family="Times,serif" font-size="14.00">&#45;&#45;</text>
</g>
<!-- 0&#45;&gt;31 -->
<g id="edge31" class="edge">
<title>0&#45;&gt;31</title>
<path fill="none" stroke="black" d="M2170.6,-103.68C2234.89,-102.46 2401.61,-96.66 2537.55,-69 2584.24,-59.5 2595.25,-53.54 2639.55,-36 2641.38,-35.27 2643.25,-34.5 2645.12,-33.7"/>
<polygon fill="black" stroke="black" points="2646.73,-36.81 2654.42,-29.53 2643.87,-30.42 2646.73,-36.81"/>
<text text-anchor="middle" x="2607.05" y="-57.8" font-family="Times,serif" font-size="14.00">dep</text>
</g>
<!-- 32 -->
<g id="node33" class="node">
<title>32</title>
<ellipse fill="none" stroke="black" cx="2763.55" cy="-18" rx="42.79" ry="18"/>
<text text-anchor="middle" x="2763.55" y="-14.3" font-family="Times,serif" font-size="14.00">poderá</text>
</g>
<!-- 0&#45;&gt;32 -->
<g id="edge32" class="edge">
<title>0&#45;&gt;32</title>
<path fill="none" stroke="black" d="M2170.76,-104.59C2244.65,-105.65 2454.8,-105 2624.55,-69 2660,-61.48 2698.68,-47.02 2726.21,-35.58"/>
<polygon fill="black" stroke="black" points="2727.61,-38.79 2735.46,-31.68 2724.89,-32.34 2727.61,-38.79"/>
<text text-anchor="middle" x="2689.05" y="-57.8" font-family="Times,serif" font-size="14.00">dep</text>
</g>
<!-- 33 -->
<g id="node34" class="node">
<title>33</title>
<ellipse fill="none" stroke="black" cx="2851.55" cy="-18" rx="27" ry="18"/>
<text text-anchor="middle" x="2851.55" y="-14.3" font-family="Times,serif" font-size="14.00">ser</text>
</g>
<!-- 0&#45;&gt;33 -->
<g id="edge33" class="edge">
<title>0&#45;&gt;33</title>
<path fill="none" stroke="black" d="M2170.77,-104.53C2252.58,-105.64 2503.18,-105.59 2706.55,-69 2756.36,-60.04 2768.31,-54.19 2815.55,-36 2817.38,-35.29 2819.26,-34.53 2821.14,-33.74"/>
<polygon fill="black" stroke="black" points="2822.74,-36.86 2830.45,-29.59 2819.89,-30.46 2822.74,-36.86"/>
<text text-anchor="middle" x="2781.05" y="-57.8" font-family="Times,serif" font-size="14.00">dep</text>
</g>
<!-- 34 -->
<g id="node35" class="node">
<title>34</title>
<ellipse fill="none" stroke="black" cx="2932.55" cy="-18" rx="36.29" ry="18"/>
<text text-anchor="middle" x="2932.55" y="-14.3" font-family="Times,serif" font-size="14.00">ainda</text>
</g>
<!-- 0&#45;&gt;34 -->
<g id="edge34" class="edge">
<title>0&#45;&gt;34</title>
<path fill="none" stroke="black" d="M2170.75,-103.64C2278.51,-102.03 2675.61,-94.46 2798.55,-69 2833.41,-61.78 2871.26,-46.96 2897.81,-35.32"/>
<polygon fill="black" stroke="black" points="2899.35,-38.47 2907.05,-31.2 2896.5,-32.07 2899.35,-38.47"/>
<text text-anchor="middle" x="2862.05" y="-57.8" font-family="Times,serif" font-size="14.00">dep</text>
</g>
<!-- 35 -->
<g id="node36" class="node">
<title>35</title>
<ellipse fill="none" stroke="black" cx="3038.55" cy="-18" rx="51.19" ry="18"/>
<text text-anchor="middle" x="3038.55" y="-14.3" font-family="Times,serif" font-size="14.00">alargada</text>
</g>
<!-- 0&#45;&gt;35 -->
<g id="edge35" class="edge">
<title>0&#45;&gt;35</title>
<path fill="none" stroke="black" d="M2170.47,-103.65C2285.88,-101.98 2739.28,-93.96 2879.55,-69 2920.21,-61.76 2964.96,-47.05 2996.59,-35.45"/>
<polygon fill="black" stroke="black" points="2997.82,-38.73 3005.97,-31.96 2995.38,-32.17 2997.82,-38.73"/>
<text text-anchor="middle" x="2951.05" y="-57.8" font-family="Times,serif" font-size="14.00">dep</text>
</g>
<!-- 36 -->
<g id="node37" class="node">
<title>36</title>
<ellipse fill="none" stroke="black" cx="3134.55" cy="-18" rx="27" ry="18"/>
<text text-anchor="middle" x="3134.55" y="-14.3" font-family="Times,serif" font-size="14.00">a</text>
</g>
<!-- 0&#45;&gt;36 -->
<g id="edge36" class="edge">
<title>0&#45;&gt;36</title>
<path fill="none" stroke="black" d="M2170.71,-103.6C2294.9,-101.66 2809.33,-92.33 2968.55,-69 3027.53,-60.36 3042.45,-56.15 3098.55,-36 3100.4,-35.33 3102.29,-34.61 3104.18,-33.84"/>
<polygon fill="black" stroke="black" points="3105.75,-36.97 3113.51,-29.76 3102.95,-30.55 3105.75,-36.97"/>
<text text-anchor="middle" x="3057.05" y="-57.8" font-family="Times,serif" font-size="14.00">dep</text>
</g>
<!-- 37 -->
<g id="node38" class="node">
<title>37</title>
<ellipse fill="none" stroke="black" cx="3219.55" cy="-18" rx="40.09" ry="18"/>
<text text-anchor="middle" x="3219.55" y="-14.3" font-family="Times,serif" font-size="14.00">outras</text>
</g>
<!-- 0&#45;&gt;37 -->
<g id="edge37" class="edge">
<title>0&#45;&gt;37</title>
<path fill="none" stroke="black" d="M2170.61,-104.05C2304.25,-104.14 2894.47,-102.58 3074.55,-69 3112.41,-61.94 3153.78,-46.9 3182.6,-35.14"/>
<polygon fill="black" stroke="black" points="3183.98,-38.36 3191.87,-31.3 3181.3,-31.9 3183.98,-38.36"/>
<text text-anchor="middle" x="3141.05" y="-57.8" font-family="Times,serif" font-size="14.00">dep</text>
</g>
<!-- 38 -->
<g id="node39" class="node">
<title>38</title>
<ellipse fill="none" stroke="black" cx="3318.55" cy="-18" rx="40.09" ry="18"/>
<text text-anchor="middle" x="3318.55" y="-14.3" font-family="Times,serif" font-size="14.00">firmas</text>
</g>
<!-- 0&#45;&gt;38 -->
<g id="edge38" class="edge">
<title>0&#45;&gt;38</title>
<path fill="none" stroke="black" d="M2170.66,-104.01C2311.47,-103.89 2960.42,-101.58 3158.55,-69 3201.23,-61.98 3248.28,-46.26 3280.24,-34.31"/>
<polygon fill="black" stroke="black" points="3281.55,-37.55 3289.65,-30.73 3279.06,-31.01 3281.55,-37.55"/>
<text text-anchor="middle" x="3235.05" y="-57.8" font-family="Times,serif" font-size="14.00">dep</text>
</g>
<!-- 39 -->
<g id="node40" class="node">
<title>39</title>
<ellipse fill="none" stroke="black" cx="3403.55" cy="-18" rx="27" ry="18"/>
<text text-anchor="middle" x="3403.55" y="-14.3" font-family="Times,serif" font-size="14.00">,</text>
</g>
<!-- 0&#45;&gt;39 -->
<g id="edge39" class="edge">
<title>0&#45;&gt;39</title>
<path fill="none" stroke="black" d="M2170.68,-104.05C2319.18,-104.21 3034.65,-103.16 3252.55,-69 3305.08,-60.76 3317.79,-54.75 3367.55,-36 3369.39,-35.31 3371.27,-34.55 3373.15,-33.77"/>
<polygon fill="black" stroke="black" points="3374.74,-36.89 3382.47,-29.65 3371.91,-30.49 3374.74,-36.89"/>
<text text-anchor="middle" x="3331.05" y="-57.8" font-family="Times,serif" font-size="14.00">dep</text>
</g>
<!-- 40 -->
<g id="node41" class="node">
<title>40</title>
<ellipse fill="none" stroke="black" cx="3483.55" cy="-18" rx="35.19" ry="18"/>
<text text-anchor="middle" x="3483.55" y="-14.3" font-family="Times,serif" font-size="14.00">como</text>
</g>
<!-- 0&#45;&gt;40 -->
<g id="edge40" class="edge">
<title>0&#45;&gt;40</title>
<path fill="none" stroke="black" d="M2170.73,-103.73C2338.46,-101.99 3229.44,-91.72 3348.55,-69 3384.19,-62.2 3422.82,-47.04 3449.59,-35.18"/>
<polygon fill="black" stroke="black" points="3451.21,-38.28 3458.89,-30.98 3448.33,-31.9 3451.21,-38.28"/>
<text text-anchor="middle" x="3416.05" y="-57.8" font-family="Times,serif" font-size="14.00">dep</text>
</g>
<!-- 41 -->
<g id="node42" class="node">
<title>41</title>
<ellipse fill="none" stroke="black" cx="3563.55" cy="-18" rx="27" ry="18"/>
<text text-anchor="middle" x="3563.55" y="-14.3" font-family="Times,serif" font-size="14.00">a</text>
</g>
<!-- 0&#45;&gt;41 -->
<g id="edge41" class="edge">
<title>0&#45;&gt;41</title>
<path fill="none" stroke="black" d="M2170.64,-103.77C2344.97,-102.22 3305.41,-92.63 3433.55,-69 3469.18,-62.43 3507.64,-46.42 3533.41,-34.27"/>
<polygon fill="black" stroke="black" points="3535.14,-37.32 3542.63,-29.83 3532.1,-31.01 3535.14,-37.32"/>
<text text-anchor="middle" x="3499.05" y="-57.8" font-family="Times,serif" font-size="14.00">dep</text>
</g>
<!-- 42 -->
<g id="node43" class="node">
<title>42</title>
<ellipse fill="none" stroke="black" cx="3640.55" cy="-18" rx="32.49" ry="18"/>
<text text-anchor="middle" x="3640.55" y="-14.3" font-family="Times,serif" font-size="14.00">NEC</text>
</g>
<!-- 0&#45;&gt;42 -->
<g id="edge42" class="edge">
<title>0&#45;&gt;42</title>
<path fill="none" stroke="black" d="M2170.63,-103.88C2351.42,-103.02 3380.26,-96.91 3516.55,-69 3549.27,-62.3 3584.38,-47.33 3608.86,-35.51"/>
<polygon fill="black" stroke="black" points="3610.6,-38.56 3618.02,-31 3607.5,-32.28 3610.6,-38.56"/>
<text text-anchor="middle" x="3580.05" y="-57.8" font-family="Times,serif" font-size="14.00">dep</text>
</g>
<!-- 43 -->
<g id="node44" class="node">
<title>43</title>
<ellipse fill="none" stroke="black" cx="3717.55" cy="-18" rx="27" ry="18"/>
<text text-anchor="middle" x="3717.55" y="-14.3" font-family="Times,serif" font-size="14.00">e</text>
</g>
<!-- 0&#45;&gt;43 -->
<g id="edge43" class="edge">
<title>0&#45;&gt;43</title>
<path fill="none" stroke="black" d="M2170.71,-103.92C2357.83,-103.27 3452.75,-98.23 3597.55,-69 3630.02,-62.44 3664.7,-46.97 3688.39,-34.96"/>
<polygon fill="black" stroke="black" points="3690.25,-37.93 3697.52,-30.22 3687.03,-31.72 3690.25,-37.93"/>
<text text-anchor="middle" x="3659.05" y="-57.8" font-family="Times,serif" font-size="14.00">dep</text>
</g>
<!-- 44 -->
<g id="node45" class="node">
<title>44</title>
<ellipse fill="none" stroke="black" cx="3789.55" cy="-18" rx="27" ry="18"/>
<text text-anchor="middle" x="3789.55" y="-14.3" font-family="Times,serif" font-size="14.00">a</text>
</g>
<!-- 0&#45;&gt;44 -->
<g id="edge44" class="edge">
<title>0&#45;&gt;44</title>
<path fill="none" stroke="black" d="M2170.63,-104C2363.38,-103.93 3523.95,-102.14 3676.55,-69 3706.81,-62.43 3738.88,-47.36 3761.09,-35.48"/>
<polygon fill="black" stroke="black" points="3762.89,-38.49 3769.97,-30.61 3759.52,-32.35 3762.89,-38.49"/>
<text text-anchor="middle" x="3735.05" y="-57.8" font-family="Times,serif" font-size="14.00">dep</text>
</g>
<!-- 45 -->
<g id="node46" class="node">
<title>45</title>
<ellipse fill="none" stroke="black" cx="3889.55" cy="-18" rx="54.69" ry="18"/>
<text text-anchor="middle" x="3889.55" y="-14.3" font-family="Times,serif" font-size="14.00">American</text>
</g>
<!-- 0&#45;&gt;45 -->
<g id="edge45" class="edge">
<title>0&#45;&gt;45</title>
<path fill="none" stroke="black" d="M2170.68,-103.95C2368.93,-103.47 3591.14,-99.35 3752.55,-69 3786.56,-62.6 3823.32,-48.78 3850.19,-37.29"/>
<polygon fill="black" stroke="black" points="3851.85,-40.38 3859.61,-33.17 3849.05,-33.96 3851.85,-40.38"/>
<text text-anchor="middle" x="3820.05" y="-57.8" font-family="Times,serif" font-size="14.00">dep</text>
</g>
<!-- 46 -->
<g id="node47" class="node">
<title>46</title>
<ellipse fill="none" stroke="black" cx="4019.55" cy="-18" rx="57.69" ry="18"/>
<text text-anchor="middle" x="4019.55" y="-14.3" font-family="Times,serif" font-size="14.00">Telephone</text>
</g>
<!-- 0&#45;&gt;46 -->
<g id="edge46" class="edge">
<title>0&#45;&gt;46</title>
<path fill="none" stroke="black" d="M2170.77,-103.84C2375.17,-102.62 3666.07,-93.93 3837.55,-69 3884.53,-62.17 3936.62,-47.06 3973,-35.22"/>
<polygon fill="black" stroke="black" points="3974.42,-38.44 3982.82,-31.98 3972.23,-31.79 3974.42,-38.44"/>
<text text-anchor="middle" x="3922.05" y="-57.8" font-family="Times,serif" font-size="14.00">dep</text>
</g>
<!-- 47 -->
<g id="node48" class="node">
<title>47</title>
<ellipse fill="none" stroke="black" cx="4123.55" cy="-18" rx="27.9" ry="18"/>
<text text-anchor="middle" x="4123.55" y="-14.3" font-family="Times,serif" font-size="14.00">and</text>
</g>
<!-- 0&#45;&gt;47 -->
<g id="edge47" class="edge">
<title>0&#45;&gt;47</title>
<path fill="none" stroke="black" d="M2170.7,-103.8C2381.76,-102.21 3756.68,-91.08 3939.55,-69 4006.02,-60.97 4023.11,-57.43 4086.55,-36 4088.45,-35.36 4090.4,-34.64 4092.34,-33.89"/>
<polygon fill="black" stroke="black" points="4094.08,-36.95 4101.94,-29.84 4091.37,-30.5 4094.08,-36.95"/>
<text text-anchor="middle" x="4040.05" y="-57.8" font-family="Times,serif" font-size="14.00">dep</text>
</g>
<!-- 48 -->
<g id="node49" class="node">
<title>48</title>
<ellipse fill="none" stroke="black" cx="4226.55" cy="-18" rx="57.39" ry="18"/>
<text text-anchor="middle" x="4226.55" y="-14.3" font-family="Times,serif" font-size="14.00">Telegraph</text>
</g>
<!-- 0&#45;&gt;48 -->
<g id="edge48" class="edge">
<title>0&#45;&gt;48</title>
<path fill="none" stroke="black" d="M2170.74,-103.95C2389.78,-103.45 3863.03,-98.99 4057.55,-69 4100.76,-62.34 4148.38,-47.53 4182.03,-35.75"/>
<polygon fill="black" stroke="black" points="4183.32,-39.01 4191.57,-32.37 4180.98,-32.42 4183.32,-39.01"/>
<text text-anchor="middle" x="4138.05" y="-57.8" font-family="Times,serif" font-size="14.00">dep</text>
</g>
<!-- 49 -->
<g id="node50" class="node">
<title>49</title>
<ellipse fill="none" stroke="black" cx="4328.55" cy="-18" rx="27" ry="18"/>
<text text-anchor="middle" x="4328.55" y="-14.3" font-family="Times,serif" font-size="14.00">.</text>
</g>
<!-- 0&#45;&gt;49 -->
<g id="edge49" class="edge">
<title>0&#45;&gt;49</title>
<path fill="none" stroke="black" d="M2170.68,-103.89C2395.73,-102.91 3949.89,-95.24 4155.55,-69 4217.67,-61.07 4233.48,-56.81 4292.55,-36 4294.45,-35.33 4296.39,-34.59 4298.34,-33.8"/>
<polygon fill="black" stroke="black" points="4300.14,-36.83 4307.91,-29.63 4297.35,-30.42 4300.14,-36.83"/>
<text text-anchor="middle" x="4251.05" y="-57.8" font-family="Times,serif" font-size="14.00">dep</text>
</g>
</g>
</svg>
