<?xml version="1.0" encoding="UTF-8" standalone="no"?>
<!DOCTYPE svg PUBLIC "-//W3C//DTD SVG 1.1//EN"
 "http://www.w3.org/Graphics/SVG/1.1/DTD/svg11.dtd">
<!-- Generated by graphviz version 2.42.4 (0)
 -->
<!-- Pages: 1 -->
<svg width="1440pt" height="131pt"
 viewBox="0.00 0.00 1440.00 131.00" xmlns="http://www.w3.org/2000/svg" xmlns:xlink="http://www.w3.org/1999/xlink">
<g id="graph0" class="graph" transform="scale(1 1) rotate(0) translate(4 127)">
<polygon fill="white" stroke="transparent" points="-4,4 -4,-127 1436,-127 1436,4 -4,4"/>
<!-- 0 -->
<g id="node1" class="node">
<title>0</title>
<ellipse fill="none" stroke="black" cx="702" cy="-105" rx="46.59" ry="18"/>
<text text-anchor="middle" x="702" y="-101.3" font-family="Times,serif" font-size="14.00">Avisado</text>
</g>
<!-- 1 -->
<g id="node2" class="node">
<title>1</title>
<ellipse fill="none" stroke="black" cx="27" cy="-18" rx="27" ry="18"/>
<text text-anchor="middle" x="27" y="-14.3" font-family="Times,serif" font-size="14.00">de</text>
</g>
<!-- 0&#45;&gt;1 -->
<g id="edge1" class="edge">
<title>0&#45;&gt;1</title>
<path fill="none" stroke="black" d="M655.38,-102.78C540.75,-99.49 247.58,-89.3 152,-69 118.09,-61.8 81.52,-46.16 56.75,-34.28"/>
<polygon fill="black" stroke="black" points="58.06,-31.02 47.54,-29.77 54.98,-37.31 58.06,-31.02"/>
<text text-anchor="middle" x="165.5" y="-57.8" font-family="Times,serif" font-size="14.00">dep</text>
</g>
<!-- 2 -->
<g id="node3" class="node">
<title>2</title>
<ellipse fill="none" stroke="black" cx="99" cy="-18" rx="27" ry="18"/>
<text text-anchor="middle" x="99" y="-14.3" font-family="Times,serif" font-size="14.00">o</text>
</g>
<!-- 0&#45;&gt;2 -->
<g id="edge2" class="edge">
<title>0&#45;&gt;2</title>
<path fill="none" stroke="black" d="M655.09,-104.08C570.79,-103.42 388.45,-98.35 238,-69 190.82,-59.8 179.72,-53.63 135,-36 133.17,-35.28 131.3,-34.5 129.42,-33.7"/>
<polygon fill="black" stroke="black" points="130.67,-30.43 120.12,-29.54 127.81,-36.82 130.67,-30.43"/>
<text text-anchor="middle" x="251.5" y="-57.8" font-family="Times,serif" font-size="14.00">dep</text>
</g>
<!-- 3 -->
<g id="node4" class="node">
<title>3</title>
<ellipse fill="none" stroke="black" cx="182" cy="-18" rx="38.19" ry="18"/>
<text text-anchor="middle" x="182" y="-14.3" font-family="Times,serif" font-size="14.00">alerta</text>
</g>
<!-- 0&#45;&gt;3 -->
<g id="edge3" class="edge">
<title>0&#45;&gt;3</title>
<path fill="none" stroke="black" d="M655.29,-103.65C582.38,-102.24 437.51,-95.93 318,-69 283.03,-61.12 244.85,-46.52 217.87,-35.12"/>
<polygon fill="black" stroke="black" points="219.04,-31.81 208.47,-31.09 216.28,-38.25 219.04,-31.81"/>
<text text-anchor="middle" x="331.5" y="-57.8" font-family="Times,serif" font-size="14.00">dep</text>
</g>
<!-- 4 -->
<g id="node5" class="node">
<title>4</title>
<ellipse fill="none" stroke="black" cx="265" cy="-18" rx="27" ry="18"/>
<text text-anchor="middle" x="265" y="-14.3" font-family="Times,serif" font-size="14.00">de</text>
</g>
<!-- 0&#45;&gt;4 -->
<g id="edge4" class="edge">
<title>0&#45;&gt;4</title>
<path fill="none" stroke="black" d="M656.11,-101.37C597.2,-97.36 492.07,-88.09 404,-69 357.02,-58.82 345.72,-53.63 301,-36 299.17,-35.28 297.3,-34.5 295.42,-33.7"/>
<polygon fill="black" stroke="black" points="296.67,-30.43 286.12,-29.54 293.81,-36.82 296.67,-30.43"/>
<text text-anchor="middle" x="417.5" y="-57.8" font-family="Times,serif" font-size="14.00">dep</text>
</g>
<!-- 5 -->
<g id="node6" class="node">
<title>5</title>
<ellipse fill="none" stroke="black" cx="337" cy="-18" rx="27" ry="18"/>
<text text-anchor="middle" x="337" y="-14.3" font-family="Times,serif" font-size="14.00">o</text>
</g>
<!-- 0&#45;&gt;5 -->
<g id="edge5" class="edge">
<title>0&#45;&gt;5</title>
<path fill="none" stroke="black" d="M657.87,-98.73C593.76,-90.23 471.74,-70.79 373,-36 371.09,-35.33 369.15,-34.59 367.21,-33.8"/>
<polygon fill="black" stroke="black" points="368.2,-30.42 357.64,-29.63 365.4,-36.83 368.2,-30.42"/>
<text text-anchor="middle" x="502.5" y="-57.8" font-family="Times,serif" font-size="14.00">dep</text>
</g>
<!-- 6 -->
<g id="node7" class="node">
<title>6</title>
<ellipse fill="none" stroke="black" cx="446" cy="-18" rx="63.89" ry="18"/>
<text text-anchor="middle" x="446" y="-14.3" font-family="Times,serif" font-size="14.00">governador</text>
</g>
<!-- 0&#45;&gt;6 -->
<g id="edge6" class="edge">
<title>0&#45;&gt;6</title>
<path fill="none" stroke="black" d="M665.04,-93.93C641.21,-87.26 609.62,-78.09 582,-69 551.6,-58.99 517.82,-46.58 491.53,-36.63"/>
<polygon fill="black" stroke="black" points="492.43,-33.22 481.84,-32.94 489.95,-39.77 492.43,-33.22"/>
<text text-anchor="middle" x="595.5" y="-57.8" font-family="Times,serif" font-size="14.00">dep</text>
</g>
<!-- 7 -->
<g id="node8" class="node">
<title>7</title>
<ellipse fill="none" stroke="black" cx="555" cy="-18" rx="27" ry="18"/>
<text text-anchor="middle" x="555" y="-14.3" font-family="Times,serif" font-size="14.00">,</text>
</g>
<!-- 0&#45;&gt;7 -->
<g id="edge7" class="edge">
<title>0&#45;&gt;7</title>
<path fill="none" stroke="black" d="M675.71,-89.94C664.09,-83.65 650.3,-76.06 638,-69 619.59,-58.42 599.15,-46.12 583.17,-36.37"/>
<polygon fill="black" stroke="black" points="584.67,-33.19 574.32,-30.95 581.02,-39.16 584.67,-33.19"/>
<text text-anchor="middle" x="651.5" y="-57.8" font-family="Times,serif" font-size="14.00">dep</text>
</g>
<!-- 8 -->
<g id="node9" class="node">
<title>8</title>
<ellipse fill="none" stroke="black" cx="642" cy="-18" rx="42.49" ry="18"/>
<text text-anchor="middle" x="642" y="-14.3" font-family="Times,serif" font-size="14.00">Itamar</text>
</g>
<!-- 0&#45;&gt;8 -->
<g id="edge8" class="edge">
<title>0&#45;&gt;8</title>
<path fill="none" stroke="black" d="M690.15,-87.21C681.38,-74.79 669.3,-57.67 659.43,-43.7"/>
<polygon fill="black" stroke="black" points="662.25,-41.62 653.63,-35.47 656.53,-45.66 662.25,-41.62"/>
<text text-anchor="middle" x="689.5" y="-57.8" font-family="Times,serif" font-size="14.00">dep</text>
</g>
<!-- 9 -->
<g id="node10" class="node">
<title>9</title>
<ellipse fill="none" stroke="black" cx="763" cy="-18" rx="61.19" ry="18"/>
<text text-anchor="middle" x="763" y="-14.3" font-family="Times,serif" font-size="14.00">desdenhou</text>
</g>
<!-- 0&#45;&gt;9 -->
<g id="edge9" class="edge">
<title>0&#45;&gt;9</title>
<path fill="none" stroke="black" d="M714.05,-87.21C722.91,-74.87 735.09,-57.89 745.08,-43.97"/>
<polygon fill="black" stroke="black" points="747.99,-45.92 750.97,-35.76 742.3,-41.84 747.99,-45.92"/>
<text text-anchor="middle" x="750.5" y="-57.8" font-family="Times,serif" font-size="14.00">dep</text>
</g>
<!-- 10 -->
<g id="node11" class="node">
<title>10</title>
<ellipse fill="none" stroke="black" cx="869" cy="-18" rx="27" ry="18"/>
<text text-anchor="middle" x="869" y="-14.3" font-family="Times,serif" font-size="14.00">os</text>
</g>
<!-- 0&#45;&gt;10 -->
<g id="edge10" class="edge">
<title>0&#45;&gt;10</title>
<path fill="none" stroke="black" d="M729.2,-90.15C759.36,-74.81 807.84,-50.13 839.06,-34.24"/>
<polygon fill="black" stroke="black" points="840.83,-37.27 848.15,-29.61 837.65,-31.03 840.83,-37.27"/>
<text text-anchor="middle" x="809.5" y="-57.8" font-family="Times,serif" font-size="14.00">dep</text>
</g>
<!-- 11 -->
<g id="node12" class="node">
<title>11</title>
<ellipse fill="none" stroke="black" cx="952" cy="-18" rx="38.19" ry="18"/>
<text text-anchor="middle" x="952" y="-14.3" font-family="Times,serif" font-size="14.00">riscos</text>
</g>
<!-- 0&#45;&gt;11 -->
<g id="edge11" class="edge">
<title>0&#45;&gt;11</title>
<path fill="none" stroke="black" d="M740.07,-94.48C765,-87.96 798.19,-78.77 827,-69 857.1,-58.8 890.48,-45.33 915.17,-34.94"/>
<polygon fill="black" stroke="black" points="916.67,-38.11 924.52,-30.99 913.94,-31.66 916.67,-38.11"/>
<text text-anchor="middle" x="879.5" y="-57.8" font-family="Times,serif" font-size="14.00">dep</text>
</g>
<!-- 12 -->
<g id="node13" class="node">
<title>12</title>
<ellipse fill="none" stroke="black" cx="1035" cy="-18" rx="27" ry="18"/>
<text text-anchor="middle" x="1035" y="-14.3" font-family="Times,serif" font-size="14.00">e</text>
</g>
<!-- 0&#45;&gt;12 -->
<g id="edge12" class="edge">
<title>0&#45;&gt;12</title>
<path fill="none" stroke="black" d="M745.34,-97.94C785.1,-91.98 845.45,-81.9 897,-69 943.22,-57.43 954.7,-53.54 999,-36 1000.83,-35.27 1002.7,-34.5 1004.58,-33.7"/>
<polygon fill="black" stroke="black" points="1006.19,-36.81 1013.88,-29.53 1003.32,-30.42 1006.19,-36.81"/>
<text text-anchor="middle" x="964.5" y="-57.8" font-family="Times,serif" font-size="14.00">dep</text>
</g>
<!-- 13 -->
<g id="node14" class="node">
<title>13</title>
<ellipse fill="none" stroke="black" cx="1131" cy="-18" rx="50.89" ry="18"/>
<text text-anchor="middle" x="1131" y="-14.3" font-family="Times,serif" font-size="14.00">manteve</text>
</g>
<!-- 0&#45;&gt;13 -->
<g id="edge13" class="edge">
<title>0&#45;&gt;13</title>
<path fill="none" stroke="black" d="M748.08,-101.07C803.97,-96.87 900.8,-87.5 982,-69 1018.93,-60.58 1059.62,-46.6 1089.13,-35.55"/>
<polygon fill="black" stroke="black" points="1090.58,-38.74 1098.69,-31.93 1088.1,-32.2 1090.58,-38.74"/>
<text text-anchor="middle" x="1045.5" y="-57.8" font-family="Times,serif" font-size="14.00">dep</text>
</g>
<!-- 14 -->
<g id="node15" class="node">
<title>14</title>
<ellipse fill="none" stroke="black" cx="1227" cy="-18" rx="27" ry="18"/>
<text text-anchor="middle" x="1227" y="-14.3" font-family="Times,serif" font-size="14.00">a</text>
</g>
<!-- 0&#45;&gt;14 -->
<g id="edge14" class="edge">
<title>0&#45;&gt;14</title>
<path fill="none" stroke="black" d="M748.18,-101.83C817.14,-98.06 950.91,-88.76 1063,-69 1120.86,-58.8 1135.75,-55.97 1191,-36 1192.85,-35.33 1194.74,-34.6 1196.63,-33.83"/>
<polygon fill="black" stroke="black" points="1198.2,-36.96 1205.96,-29.75 1195.4,-30.55 1198.2,-36.96"/>
<text text-anchor="middle" x="1148.5" y="-57.8" font-family="Times,serif" font-size="14.00">dep</text>
</g>
<!-- 15 -->
<g id="node16" class="node">
<title>15</title>
<ellipse fill="none" stroke="black" cx="1316" cy="-18" rx="44.39" ry="18"/>
<text text-anchor="middle" x="1316" y="-14.3" font-family="Times,serif" font-size="14.00">viagem</text>
</g>
<!-- 0&#45;&gt;15 -->
<g id="edge15" class="edge">
<title>0&#45;&gt;15</title>
<path fill="none" stroke="black" d="M748.95,-104.26C833.3,-103.88 1015.72,-99.23 1166,-69 1204.44,-61.27 1246.69,-46.59 1276.52,-35.14"/>
<polygon fill="black" stroke="black" points="1278.1,-38.28 1286.14,-31.39 1275.55,-31.76 1278.1,-38.28"/>
<text text-anchor="middle" x="1234.5" y="-57.8" font-family="Times,serif" font-size="14.00">dep</text>
</g>
<!-- 16 -->
<g id="node17" class="node">
<title>16</title>
<ellipse fill="none" stroke="black" cx="1405" cy="-18" rx="27" ry="18"/>
<text text-anchor="middle" x="1405" y="-14.3" font-family="Times,serif" font-size="14.00">.</text>
</g>
<!-- 0&#45;&gt;16 -->
<g id="edge16" class="edge">
<title>0&#45;&gt;16</title>
<path fill="none" stroke="black" d="M749.11,-104.34C844.67,-104.29 1067.85,-100.46 1252,-69 1305.26,-59.9 1318.4,-54.93 1369,-36 1370.84,-35.31 1372.73,-34.56 1374.61,-33.78"/>
<polygon fill="black" stroke="black" points="1376.2,-36.9 1383.93,-29.66 1373.37,-30.5 1376.2,-36.9"/>
<text text-anchor="middle" x="1331.5" y="-57.8" font-family="Times,serif" font-size="14.00">dep</text>
</g>
</g>
</svg>
