<?xml version="1.0" encoding="UTF-8" standalone="no"?>
<!DOCTYPE svg PUBLIC "-//W3C//DTD SVG 1.1//EN"
 "http://www.w3.org/Graphics/SVG/1.1/DTD/svg11.dtd">
<!-- Generated by graphviz version 2.42.4 (0)
 -->
<!-- Pages: 1 -->
<svg width="3557pt" height="131pt"
 viewBox="0.00 0.00 3557.20 131.00" xmlns="http://www.w3.org/2000/svg" xmlns:xlink="http://www.w3.org/1999/xlink">
<g id="graph0" class="graph" transform="scale(1 1) rotate(0) translate(4 127)">
<polygon fill="white" stroke="transparent" points="-4,4 -4,-127 3553.2,-127 3553.2,4 -4,4"/>
<!-- 0 -->
<g id="node1" class="node">
<title>0</title>
<ellipse fill="none" stroke="black" cx="1685.2" cy="-105" rx="27" ry="18"/>
<text text-anchor="middle" x="1685.2" y="-101.3" font-family="Times,serif" font-size="14.00">Em</text>
</g>
<!-- 1 -->
<g id="node2" class="node">
<title>1</title>
<ellipse fill="none" stroke="black" cx="31.2" cy="-18" rx="31.4" ry="18"/>
<text text-anchor="middle" x="31.2" y="-14.3" font-family="Times,serif" font-size="14.00">esse</text>
</g>
<!-- 0&#45;&gt;1 -->
<g id="edge1" class="edge">
<title>0&#45;&gt;1</title>
<path fill="none" stroke="black" d="M1658.09,-103.8C1467.67,-102.32 334.2,-92.58 183.2,-69 141.09,-62.42 94.87,-45.78 64.58,-33.49"/>
<polygon fill="black" stroke="black" points="65.91,-30.25 55.34,-29.67 63.24,-36.72 65.91,-30.25"/>
<text text-anchor="middle" x="196.7" y="-57.8" font-family="Times,serif" font-size="14.00">dep</text>
</g>
<!-- 2 -->
<g id="node3" class="node">
<title>2</title>
<ellipse fill="none" stroke="black" cx="125.2" cy="-18" rx="44.69" ry="18"/>
<text text-anchor="middle" x="125.2" y="-14.3" font-family="Times,serif" font-size="14.00">sentido</text>
</g>
<!-- 0&#45;&gt;2 -->
<g id="edge2" class="edge">
<title>0&#45;&gt;2</title>
<path fill="none" stroke="black" d="M1658.19,-103.83C1474.49,-102.61 411.52,-94.48 270.2,-69 232.76,-62.25 191.96,-47.46 163.2,-35.71"/>
<polygon fill="black" stroke="black" points="164.51,-32.47 153.93,-31.86 161.82,-38.93 164.51,-32.47"/>
<text text-anchor="middle" x="283.7" y="-57.8" font-family="Times,serif" font-size="14.00">dep</text>
</g>
<!-- 3 -->
<g id="node4" class="node">
<title>3</title>
<ellipse fill="none" stroke="black" cx="215.2" cy="-18" rx="27" ry="18"/>
<text text-anchor="middle" x="215.2" y="-14.3" font-family="Times,serif" font-size="14.00">,</text>
</g>
<!-- 0&#45;&gt;3 -->
<g id="edge3" class="edge">
<title>0&#45;&gt;3</title>
<path fill="none" stroke="black" d="M1658.04,-103.7C1481.16,-101.7 496.16,-89.66 364.2,-69 312.51,-60.91 300.11,-54.56 251.2,-36 249.36,-35.3 247.48,-34.55 245.59,-33.76"/>
<polygon fill="black" stroke="black" points="246.84,-30.48 236.28,-29.63 244,-36.88 246.84,-30.48"/>
<text text-anchor="middle" x="377.7" y="-57.8" font-family="Times,serif" font-size="14.00">dep</text>
</g>
<!-- 4 -->
<g id="node5" class="node">
<title>4</title>
<ellipse fill="none" stroke="black" cx="296.2" cy="-18" rx="36.29" ry="18"/>
<text text-anchor="middle" x="296.2" y="-14.3" font-family="Times,serif" font-size="14.00">cruza</text>
</g>
<!-- 0&#45;&gt;4 -->
<g id="edge4" class="edge">
<title>0&#45;&gt;4</title>
<path fill="none" stroke="black" d="M1658.07,-104.13C1500.43,-104.77 700.85,-106.1 458.2,-69 414.03,-62.25 365.28,-45.92 332.92,-33.75"/>
<polygon fill="black" stroke="black" points="334.01,-30.42 323.42,-30.12 331.51,-36.96 334.01,-30.42"/>
<text text-anchor="middle" x="471.7" y="-57.8" font-family="Times,serif" font-size="14.00">dep</text>
</g>
<!-- 5 -->
<g id="node6" class="node">
<title>5</title>
<ellipse fill="none" stroke="black" cx="400.2" cy="-18" rx="50.09" ry="18"/>
<text text-anchor="middle" x="400.2" y="-14.3" font-family="Times,serif" font-size="14.00">imagens</text>
</g>
<!-- 0&#45;&gt;5 -->
<g id="edge5" class="edge">
<title>0&#45;&gt;5</title>
<path fill="none" stroke="black" d="M1658.21,-103.65C1496.46,-101.51 658.66,-89.5 546.2,-69 509.14,-62.24 468.74,-47.83 439.86,-36.2"/>
<polygon fill="black" stroke="black" points="441.11,-32.93 430.52,-32.38 438.45,-39.41 441.11,-32.93"/>
<text text-anchor="middle" x="559.7" y="-57.8" font-family="Times,serif" font-size="14.00">dep</text>
</g>
<!-- 6 -->
<g id="node7" class="node">
<title>6</title>
<ellipse fill="none" stroke="black" cx="495.2" cy="-18" rx="27" ry="18"/>
<text text-anchor="middle" x="495.2" y="-14.3" font-family="Times,serif" font-size="14.00">de</text>
</g>
<!-- 0&#45;&gt;6 -->
<g id="edge6" class="edge">
<title>0&#45;&gt;6</title>
<path fill="none" stroke="black" d="M1658.06,-104.11C1514.2,-104.54 839.49,-104.59 634.2,-69 586.83,-60.79 575.92,-53.63 531.2,-36 529.36,-35.28 527.49,-34.5 525.62,-33.7"/>
<polygon fill="black" stroke="black" points="526.87,-30.43 516.31,-29.54 524.01,-36.82 526.87,-30.43"/>
<text text-anchor="middle" x="647.7" y="-57.8" font-family="Times,serif" font-size="14.00">dep</text>
</g>
<!-- 7 -->
<g id="node8" class="node">
<title>7</title>
<ellipse fill="none" stroke="black" cx="567.2" cy="-18" rx="27" ry="18"/>
<text text-anchor="middle" x="567.2" y="-14.3" font-family="Times,serif" font-size="14.00">os</text>
</g>
<!-- 0&#45;&gt;7 -->
<g id="edge7" class="edge">
<title>0&#45;&gt;7</title>
<path fill="none" stroke="black" d="M1657.96,-103.59C1524.81,-101.47 941.45,-91.08 761.2,-69 689.99,-60.28 671.21,-58.81 603.2,-36 601.28,-35.36 599.33,-34.64 597.38,-33.87"/>
<polygon fill="black" stroke="black" points="598.36,-30.48 587.79,-29.74 595.59,-36.91 598.36,-30.48"/>
<text text-anchor="middle" x="774.7" y="-57.8" font-family="Times,serif" font-size="14.00">dep</text>
</g>
<!-- 8 -->
<g id="node9" class="node">
<title>8</title>
<ellipse fill="none" stroke="black" cx="670.2" cy="-18" rx="57.69" ry="18"/>
<text text-anchor="middle" x="670.2" y="-14.3" font-family="Times,serif" font-size="14.00">diferentes</text>
</g>
<!-- 0&#45;&gt;8 -->
<g id="edge8" class="edge">
<title>0&#45;&gt;8</title>
<path fill="none" stroke="black" d="M1658.06,-103.63C1534.01,-101.8 1020.14,-92.9 861.2,-69 811.72,-61.56 756.58,-46.35 718.31,-34.65"/>
<polygon fill="black" stroke="black" points="719.06,-31.22 708.47,-31.61 716.99,-37.91 719.06,-31.22"/>
<text text-anchor="middle" x="874.7" y="-57.8" font-family="Times,serif" font-size="14.00">dep</text>
</g>
<!-- 9 -->
<g id="node10" class="node">
<title>9</title>
<ellipse fill="none" stroke="black" cx="791.2" cy="-18" rx="44.69" ry="18"/>
<text text-anchor="middle" x="791.2" y="-14.3" font-family="Times,serif" font-size="14.00">tempos</text>
</g>
<!-- 0&#45;&gt;9 -->
<g id="edge9" class="edge">
<title>0&#45;&gt;9</title>
<path fill="none" stroke="black" d="M1658.27,-103.65C1542.86,-102.02 1089.44,-94.09 949.2,-69 908.18,-61.66 863,-46.63 831.5,-34.95"/>
<polygon fill="black" stroke="black" points="832.37,-31.53 821.78,-31.29 829.9,-38.09 832.37,-31.53"/>
<text text-anchor="middle" x="962.7" y="-57.8" font-family="Times,serif" font-size="14.00">dep</text>
</g>
<!-- 10 -->
<g id="node11" class="node">
<title>10</title>
<ellipse fill="none" stroke="black" cx="881.2" cy="-18" rx="27" ry="18"/>
<text text-anchor="middle" x="881.2" y="-14.3" font-family="Times,serif" font-size="14.00">e</text>
</g>
<!-- 0&#45;&gt;10 -->
<g id="edge10" class="edge">
<title>0&#45;&gt;10</title>
<path fill="none" stroke="black" d="M1658.12,-103.94C1571.97,-103.44 1296.58,-99.39 1071.2,-69 1001.83,-59.65 983.51,-58.43 917.2,-36 915.28,-35.35 913.33,-34.63 911.39,-33.86"/>
<polygon fill="black" stroke="black" points="912.37,-30.47 901.8,-29.72 909.59,-36.9 912.37,-30.47"/>
<text text-anchor="middle" x="1084.7" y="-57.8" font-family="Times,serif" font-size="14.00">dep</text>
</g>
<!-- 11 -->
<g id="node12" class="node">
<title>11</title>
<ellipse fill="none" stroke="black" cx="990.2" cy="-18" rx="63.89" ry="18"/>
<text text-anchor="middle" x="990.2" y="-14.3" font-family="Times,serif" font-size="14.00">civilizações</text>
</g>
<!-- 0&#45;&gt;11 -->
<g id="edge11" class="edge">
<title>0&#45;&gt;11</title>
<path fill="none" stroke="black" d="M1658.17,-104.18C1580.74,-104.27 1351.71,-101.55 1165.2,-69 1121.57,-61.39 1073.25,-47.12 1038.46,-35.77"/>
<polygon fill="black" stroke="black" points="1039.17,-32.32 1028.57,-32.5 1036.97,-38.96 1039.17,-32.32"/>
<text text-anchor="middle" x="1178.7" y="-57.8" font-family="Times,serif" font-size="14.00">dep</text>
</g>
<!-- 12 -->
<g id="node13" class="node">
<title>12</title>
<ellipse fill="none" stroke="black" cx="1099.2" cy="-18" rx="27" ry="18"/>
<text text-anchor="middle" x="1099.2" y="-14.3" font-family="Times,serif" font-size="14.00">,</text>
</g>
<!-- 0&#45;&gt;12 -->
<g id="edge12" class="edge">
<title>0&#45;&gt;12</title>
<path fill="none" stroke="black" d="M1658.3,-103.02C1592.77,-100.35 1419.74,-91.56 1277.2,-69 1213.2,-58.87 1196.39,-57.29 1135.2,-36 1133.29,-35.34 1131.34,-34.6 1129.4,-33.82"/>
<polygon fill="black" stroke="black" points="1130.39,-30.43 1119.82,-29.66 1127.6,-36.85 1130.39,-30.43"/>
<text text-anchor="middle" x="1290.7" y="-57.8" font-family="Times,serif" font-size="14.00">dep</text>
</g>
<!-- 13 -->
<g id="node14" class="node">
<title>13</title>
<ellipse fill="none" stroke="black" cx="1189.2" cy="-18" rx="45.49" ry="18"/>
<text text-anchor="middle" x="1189.2" y="-14.3" font-family="Times,serif" font-size="14.00">criando</text>
</g>
<!-- 0&#45;&gt;13 -->
<g id="edge13" class="edge">
<title>0&#45;&gt;13</title>
<path fill="none" stroke="black" d="M1658.12,-102.29C1603.51,-98.56 1476.38,-88.42 1371.2,-69 1313.85,-58.41 1300.29,-51.95 1244.2,-36 1240.62,-34.98 1236.93,-33.9 1233.22,-32.8"/>
<polygon fill="black" stroke="black" points="1234.04,-29.39 1223.45,-29.85 1232.01,-36.09 1234.04,-29.39"/>
<text text-anchor="middle" x="1384.7" y="-57.8" font-family="Times,serif" font-size="14.00">dep</text>
</g>
<!-- 14 -->
<g id="node15" class="node">
<title>14</title>
<ellipse fill="none" stroke="black" cx="1303.2" cy="-18" rx="50.09" ry="18"/>
<text text-anchor="middle" x="1303.2" y="-14.3" font-family="Times,serif" font-size="14.00">imagens</text>
</g>
<!-- 0&#45;&gt;14 -->
<g id="edge14" class="edge">
<title>0&#45;&gt;14</title>
<path fill="none" stroke="black" d="M1658.58,-101.57C1614.85,-97.24 1525.26,-86.9 1451.2,-69 1414.72,-60.18 1374.44,-46.29 1345.13,-35.39"/>
<polygon fill="black" stroke="black" points="1346.22,-32.06 1335.63,-31.81 1343.75,-38.61 1346.22,-32.06"/>
<text text-anchor="middle" x="1464.7" y="-57.8" font-family="Times,serif" font-size="14.00">dep</text>
</g>
<!-- 15 -->
<g id="node16" class="node">
<title>15</title>
<ellipse fill="none" stroke="black" cx="1398.2" cy="-18" rx="27" ry="18"/>
<text text-anchor="middle" x="1398.2" y="-14.3" font-family="Times,serif" font-size="14.00">de</text>
</g>
<!-- 0&#45;&gt;15 -->
<g id="edge15" class="edge">
<title>0&#45;&gt;15</title>
<path fill="none" stroke="black" d="M1659.47,-99.09C1628.55,-92.97 1575.18,-81.77 1530.2,-69 1486.79,-56.68 1475.99,-52.99 1434.2,-36 1432.37,-35.26 1430.51,-34.47 1428.63,-33.66"/>
<polygon fill="black" stroke="black" points="1429.9,-30.39 1419.35,-29.46 1427.02,-36.77 1429.9,-30.39"/>
<text text-anchor="middle" x="1543.7" y="-57.8" font-family="Times,serif" font-size="14.00">dep</text>
</g>
<!-- 16 -->
<g id="node17" class="node">
<title>16</title>
<ellipse fill="none" stroke="black" cx="1487.2" cy="-18" rx="44.39" ry="18"/>
<text text-anchor="middle" x="1487.2" y="-14.3" font-family="Times,serif" font-size="14.00">síntese</text>
</g>
<!-- 0&#45;&gt;16 -->
<g id="edge16" class="edge">
<title>0&#45;&gt;16</title>
<path fill="none" stroke="black" d="M1661.94,-95.72C1643.22,-88.91 1616.31,-78.83 1593.2,-69 1569.76,-59.03 1543.9,-46.86 1523.59,-37.02"/>
<polygon fill="black" stroke="black" points="1524.91,-33.77 1514.39,-32.54 1521.85,-40.06 1524.91,-33.77"/>
<text text-anchor="middle" x="1606.7" y="-57.8" font-family="Times,serif" font-size="14.00">dep</text>
</g>
<!-- 17 -->
<g id="node18" class="node">
<title>17</title>
<ellipse fill="none" stroke="black" cx="1576.2" cy="-18" rx="27" ry="18"/>
<text text-anchor="middle" x="1576.2" y="-14.3" font-family="Times,serif" font-size="14.00">e</text>
</g>
<!-- 0&#45;&gt;17 -->
<g id="edge17" class="edge">
<title>0&#45;&gt;17</title>
<path fill="none" stroke="black" d="M1668.17,-90.72C1650.17,-76.68 1621.6,-54.41 1601.08,-38.41"/>
<polygon fill="black" stroke="black" points="1603.15,-35.58 1593.11,-32.19 1598.84,-41.1 1603.15,-35.58"/>
<text text-anchor="middle" x="1651.7" y="-57.8" font-family="Times,serif" font-size="14.00">dep</text>
</g>
<!-- 18 -->
<g id="node19" class="node">
<title>18</title>
<ellipse fill="none" stroke="black" cx="1685.2" cy="-18" rx="63.89" ry="18"/>
<text text-anchor="middle" x="1685.2" y="-14.3" font-family="Times,serif" font-size="14.00">procurando</text>
</g>
<!-- 0&#45;&gt;18 -->
<g id="edge18" class="edge">
<title>0&#45;&gt;18</title>
<path fill="none" stroke="black" d="M1685.2,-86.8C1685.2,-75.16 1685.2,-59.55 1685.2,-46.24"/>
<polygon fill="black" stroke="black" points="1688.7,-46.18 1685.2,-36.18 1681.7,-46.18 1688.7,-46.18"/>
<text text-anchor="middle" x="1698.7" y="-57.8" font-family="Times,serif" font-size="14.00">dep</text>
</g>
<!-- 19 -->
<g id="node20" class="node">
<title>19</title>
<ellipse fill="none" stroke="black" cx="1843.2" cy="-18" rx="76.09" ry="18"/>
<text text-anchor="middle" x="1843.2" y="-14.3" font-family="Times,serif" font-size="14.00">problematizar</text>
</g>
<!-- 0&#45;&gt;19 -->
<g id="edge19" class="edge">
<title>0&#45;&gt;19</title>
<path fill="none" stroke="black" d="M1705.53,-93.06C1730.64,-79.55 1773.86,-56.3 1805.19,-39.45"/>
<polygon fill="black" stroke="black" points="1806.94,-42.48 1814.09,-34.66 1803.63,-36.31 1806.94,-42.48"/>
<text text-anchor="middle" x="1787.7" y="-57.8" font-family="Times,serif" font-size="14.00">dep</text>
</g>
<!-- 20 -->
<g id="node21" class="node">
<title>20</title>
<ellipse fill="none" stroke="black" cx="1964.2" cy="-18" rx="27" ry="18"/>
<text text-anchor="middle" x="1964.2" y="-14.3" font-family="Times,serif" font-size="14.00">,</text>
</g>
<!-- 0&#45;&gt;20 -->
<g id="edge20" class="edge">
<title>0&#45;&gt;20</title>
<path fill="none" stroke="black" d="M1710.48,-98.41C1755.14,-88.21 1850.62,-64.94 1928.2,-36 1930.04,-35.31 1931.92,-34.57 1933.81,-33.78"/>
<polygon fill="black" stroke="black" points="1935.39,-36.91 1943.13,-29.67 1932.57,-30.51 1935.39,-36.91"/>
<text text-anchor="middle" x="1883.7" y="-57.8" font-family="Times,serif" font-size="14.00">dep</text>
</g>
<!-- 21 -->
<g id="node22" class="node">
<title>21</title>
<ellipse fill="none" stroke="black" cx="2054.2" cy="-18" rx="45.49" ry="18"/>
<text text-anchor="middle" x="2054.2" y="-14.3" font-family="Times,serif" font-size="14.00">através</text>
</g>
<!-- 0&#45;&gt;21 -->
<g id="edge21" class="edge">
<title>0&#45;&gt;21</title>
<path fill="none" stroke="black" d="M1711.73,-101.05C1752.74,-96.18 1833.83,-85.36 1901.2,-69 1939.67,-59.66 1982.41,-45.34 2012.92,-34.42"/>
<polygon fill="black" stroke="black" points="2014.16,-37.69 2022.38,-31 2011.78,-31.11 2014.16,-37.69"/>
<text text-anchor="middle" x="1966.7" y="-57.8" font-family="Times,serif" font-size="14.00">dep</text>
</g>
<!-- 22 -->
<g id="node23" class="node">
<title>22</title>
<ellipse fill="none" stroke="black" cx="2144.2" cy="-18" rx="27" ry="18"/>
<text text-anchor="middle" x="2144.2" y="-14.3" font-family="Times,serif" font-size="14.00">de</text>
</g>
<!-- 0&#45;&gt;22 -->
<g id="edge22" class="edge">
<title>0&#45;&gt;22</title>
<path fill="none" stroke="black" d="M1712.2,-102.15C1764.86,-98.24 1884.85,-87.93 1984.2,-69 2040.22,-58.32 2054.64,-55.59 2108.2,-36 2110.05,-35.32 2111.93,-34.59 2113.82,-33.81"/>
<polygon fill="black" stroke="black" points="2115.4,-36.94 2123.15,-29.72 2112.59,-30.53 2115.4,-36.94"/>
<text text-anchor="middle" x="2067.7" y="-57.8" font-family="Times,serif" font-size="14.00">dep</text>
</g>
<!-- 23 -->
<g id="node24" class="node">
<title>23</title>
<ellipse fill="none" stroke="black" cx="2216.2" cy="-18" rx="27" ry="18"/>
<text text-anchor="middle" x="2216.2" y="-14.3" font-family="Times,serif" font-size="14.00">o</text>
</g>
<!-- 0&#45;&gt;23 -->
<g id="edge23" class="edge">
<title>0&#45;&gt;23</title>
<path fill="none" stroke="black" d="M1712.22,-103.92C1777.22,-103.25 1947.16,-98.54 2085.2,-69 2120.87,-61.37 2159.67,-45.54 2185.71,-33.72"/>
<polygon fill="black" stroke="black" points="2187.42,-36.79 2195.03,-29.42 2184.48,-30.43 2187.42,-36.79"/>
<text text-anchor="middle" x="2146.7" y="-57.8" font-family="Times,serif" font-size="14.00">dep</text>
</g>
<!-- 24 -->
<g id="node25" class="node">
<title>24</title>
<ellipse fill="none" stroke="black" cx="2305.2" cy="-18" rx="44.39" ry="18"/>
<text text-anchor="middle" x="2305.2" y="-14.3" font-family="Times,serif" font-size="14.00">objecto</text>
</g>
<!-- 0&#45;&gt;24 -->
<g id="edge24" class="edge">
<title>0&#45;&gt;24</title>
<path fill="none" stroke="black" d="M1712.29,-104.54C1785.85,-105.46 1995.07,-104.49 2164.2,-69 2200.01,-61.48 2239.11,-47.1 2267.03,-35.68"/>
<polygon fill="black" stroke="black" points="2268.53,-38.85 2276.42,-31.78 2265.84,-32.38 2268.53,-38.85"/>
<text text-anchor="middle" x="2229.7" y="-57.8" font-family="Times,serif" font-size="14.00">dep</text>
</g>
<!-- 25 -->
<g id="node26" class="node">
<title>25</title>
<ellipse fill="none" stroke="black" cx="2417.2" cy="-18" rx="49.29" ry="18"/>
<text text-anchor="middle" x="2417.2" y="-14.3" font-family="Times,serif" font-size="14.00">artístico</text>
</g>
<!-- 0&#45;&gt;25 -->
<g id="edge25" class="edge">
<title>0&#45;&gt;25</title>
<path fill="none" stroke="black" d="M1712.36,-104.45C1793.99,-105.34 2044.05,-104.74 2247.2,-69 2291.18,-61.26 2339.95,-46.22 2373.93,-34.65"/>
<polygon fill="black" stroke="black" points="2375.23,-37.9 2383.54,-31.33 2372.95,-31.29 2375.23,-37.9"/>
<text text-anchor="middle" x="2322.7" y="-57.8" font-family="Times,serif" font-size="14.00">dep</text>
</g>
<!-- 26 -->
<g id="node27" class="node">
<title>26</title>
<ellipse fill="none" stroke="black" cx="2567.2" cy="-18" rx="82.59" ry="18"/>
<text text-anchor="middle" x="2567.2" y="-14.3" font-family="Times,serif" font-size="14.00">contemporâneo</text>
</g>
<!-- 0&#45;&gt;26 -->
<g id="edge26" class="edge">
<title>0&#45;&gt;26</title>
<path fill="none" stroke="black" d="M1712.17,-104.13C1801.87,-104.24 2098.16,-101.9 2340.2,-69 2397.75,-61.18 2462.35,-46.34 2507.87,-34.86"/>
<polygon fill="black" stroke="black" points="2508.75,-38.25 2517.58,-32.39 2507.02,-31.46 2508.75,-38.25"/>
<text text-anchor="middle" x="2435.7" y="-57.8" font-family="Times,serif" font-size="14.00">dep</text>
</g>
<!-- 27 -->
<g id="node28" class="node">
<title>27</title>
<ellipse fill="none" stroke="black" cx="2695.2" cy="-18" rx="27" ry="18"/>
<text text-anchor="middle" x="2695.2" y="-14.3" font-family="Times,serif" font-size="14.00">,</text>
</g>
<!-- 0&#45;&gt;27 -->
<g id="edge27" class="edge">
<title>0&#45;&gt;27</title>
<path fill="none" stroke="black" d="M1712.15,-103.88C1811.16,-103.18 2164.08,-98.65 2453.2,-69 2545.44,-59.54 2570.62,-63.4 2659.2,-36 2661.13,-35.4 2663.09,-34.72 2665.05,-33.98"/>
<polygon fill="black" stroke="black" points="2666.81,-37.03 2674.66,-29.92 2664.08,-30.59 2666.81,-37.03"/>
<text text-anchor="middle" x="2603.7" y="-57.8" font-family="Times,serif" font-size="14.00">dep</text>
</g>
<!-- 28 -->
<g id="node29" class="node">
<title>28</title>
<ellipse fill="none" stroke="black" cx="2767.2" cy="-18" rx="27" ry="18"/>
<text text-anchor="middle" x="2767.2" y="-14.3" font-family="Times,serif" font-size="14.00">os</text>
</g>
<!-- 0&#45;&gt;28 -->
<g id="edge28" class="edge">
<title>0&#45;&gt;28</title>
<path fill="none" stroke="black" d="M1712.38,-103.91C1846.62,-103.35 2439.52,-99.14 2621.2,-69 2671.55,-60.65 2683.54,-54.28 2731.2,-36 2733.04,-35.29 2734.91,-34.54 2736.79,-33.74"/>
<polygon fill="black" stroke="black" points="2738.39,-36.86 2746.11,-29.6 2735.55,-30.47 2738.39,-36.86"/>
<text text-anchor="middle" x="2696.7" y="-57.8" font-family="Times,serif" font-size="14.00">dep</text>
</g>
<!-- 29 -->
<g id="node30" class="node">
<title>29</title>
<ellipse fill="none" stroke="black" cx="2872.2" cy="-18" rx="59.59" ry="18"/>
<text text-anchor="middle" x="2872.2" y="-14.3" font-family="Times,serif" font-size="14.00">resultados</text>
</g>
<!-- 0&#45;&gt;29 -->
<g id="edge29" class="edge">
<title>0&#45;&gt;29</title>
<path fill="none" stroke="black" d="M1712.23,-104.07C1854.05,-104.31 2513.37,-103.52 2714.2,-69 2753.73,-62.2 2797.06,-47.98 2828.33,-36.44"/>
<polygon fill="black" stroke="black" points="2829.91,-39.58 2838.04,-32.8 2827.45,-33.03 2829.91,-39.58"/>
<text text-anchor="middle" x="2789.7" y="-57.8" font-family="Times,serif" font-size="14.00">dep</text>
</g>
<!-- 30 -->
<g id="node31" class="node">
<title>30</title>
<ellipse fill="none" stroke="black" cx="2977.2" cy="-18" rx="27" ry="18"/>
<text text-anchor="middle" x="2977.2" y="-14.3" font-family="Times,serif" font-size="14.00">de</text>
</g>
<!-- 0&#45;&gt;30 -->
<g id="edge30" class="edge">
<title>0&#45;&gt;30</title>
<path fill="none" stroke="black" d="M1712.63,-103.93C1862.76,-103.4 2586.12,-99.33 2807.2,-69 2867.96,-60.66 2883.4,-56.53 2941.2,-36 2943.1,-35.32 2945.04,-34.58 2946.98,-33.79"/>
<polygon fill="black" stroke="black" points="2948.79,-36.82 2956.56,-29.61 2945.99,-30.41 2948.79,-36.82"/>
<text text-anchor="middle" x="2900.7" y="-57.8" font-family="Times,serif" font-size="14.00">dep</text>
</g>
<!-- 31 -->
<g id="node32" class="node">
<title>31</title>
<ellipse fill="none" stroke="black" cx="3053.2" cy="-18" rx="30.59" ry="18"/>
<text text-anchor="middle" x="3053.2" y="-14.3" font-family="Times,serif" font-size="14.00">uma</text>
</g>
<!-- 0&#45;&gt;31 -->
<g id="edge31" class="edge">
<title>0&#45;&gt;31</title>
<path fill="none" stroke="black" d="M1712.18,-103.73C1881.66,-101.96 2795.96,-91.41 2918.2,-69 2954.76,-62.3 2994.41,-46.5 3021.21,-34.45"/>
<polygon fill="black" stroke="black" points="3022.85,-37.55 3030.48,-30.2 3019.93,-31.19 3022.85,-37.55"/>
<text text-anchor="middle" x="2985.7" y="-57.8" font-family="Times,serif" font-size="14.00">dep</text>
</g>
<!-- 32 -->
<g id="node33" class="node">
<title>32</title>
<ellipse fill="none" stroke="black" cx="3166.2" cy="-18" rx="64.19" ry="18"/>
<text text-anchor="middle" x="3166.2" y="-14.3" font-family="Times,serif" font-size="14.00">experiência</text>
</g>
<!-- 0&#45;&gt;32 -->
<g id="edge32" class="edge">
<title>0&#45;&gt;32</title>
<path fill="none" stroke="black" d="M1712.3,-103.72C1888.8,-101.85 2871.68,-90.51 3003.2,-69 3043.83,-62.35 3088.44,-48.17 3120.7,-36.6"/>
<polygon fill="black" stroke="black" points="3122.1,-39.81 3130.3,-33.1 3119.7,-33.24 3122.1,-39.81"/>
<text text-anchor="middle" x="3080.7" y="-57.8" font-family="Times,serif" font-size="14.00">dep</text>
</g>
<!-- 33 -->
<g id="node34" class="node">
<title>33</title>
<ellipse fill="none" stroke="black" cx="3300.2" cy="-18" rx="51.19" ry="18"/>
<text text-anchor="middle" x="3300.2" y="-14.3" font-family="Times,serif" font-size="14.00">histórica</text>
</g>
<!-- 0&#45;&gt;33 -->
<g id="edge33" class="edge">
<title>0&#45;&gt;33</title>
<path fill="none" stroke="black" d="M1712.4,-104.09C1883.77,-104.52 2815.7,-105.17 3098.2,-69 3152.66,-62.03 3213.64,-45.71 3254.22,-33.61"/>
<polygon fill="black" stroke="black" points="3255.26,-36.95 3263.82,-30.7 3253.23,-30.25 3255.26,-36.95"/>
<text text-anchor="middle" x="3190.7" y="-57.8" font-family="Times,serif" font-size="14.00">dep</text>
</g>
<!-- 34 -->
<g id="node35" class="node">
<title>34</title>
<ellipse fill="none" stroke="black" cx="3423.2" cy="-18" rx="53.89" ry="18"/>
<text text-anchor="middle" x="3423.2" y="-14.3" font-family="Times,serif" font-size="14.00">universal</text>
</g>
<!-- 0&#45;&gt;34 -->
<g id="edge34" class="edge">
<title>0&#45;&gt;34</title>
<path fill="none" stroke="black" d="M1712.17,-104.08C1890.51,-104.53 2902.07,-105.41 3208.2,-69 3266.27,-62.09 3331.51,-45.65 3374.74,-33.5"/>
<polygon fill="black" stroke="black" points="3375.76,-36.85 3384.42,-30.74 3373.85,-30.11 3375.76,-36.85"/>
<text text-anchor="middle" x="3305.7" y="-57.8" font-family="Times,serif" font-size="14.00">dep</text>
</g>
<!-- 35 -->
<g id="node36" class="node">
<title>35</title>
<ellipse fill="none" stroke="black" cx="3522.2" cy="-18" rx="27" ry="18"/>
<text text-anchor="middle" x="3522.2" y="-14.3" font-family="Times,serif" font-size="14.00">.</text>
</g>
<!-- 0&#45;&gt;35 -->
<g id="edge35" class="edge">
<title>0&#45;&gt;35</title>
<path fill="none" stroke="black" d="M1712.38,-104.08C1898.95,-104.56 2992.61,-105.7 3323.2,-69 3396.66,-60.84 3416.05,-59.28 3486.2,-36 3488.12,-35.36 3490.07,-34.65 3492.02,-33.89"/>
<polygon fill="black" stroke="black" points="3493.8,-36.93 3501.61,-29.76 3491.04,-30.5 3493.8,-36.93"/>
<text text-anchor="middle" x="3439.7" y="-57.8" font-family="Times,serif" font-size="14.00">dep</text>
</g>
</g>
</svg>
