<?xml version="1.0" encoding="UTF-8" standalone="no"?>
<!DOCTYPE svg PUBLIC "-//W3C//DTD SVG 1.1//EN"
 "http://www.w3.org/Graphics/SVG/1.1/DTD/svg11.dtd">
<!-- Generated by graphviz version 2.42.4 (0)
 -->
<!-- Pages: 1 -->
<svg width="2502pt" height="131pt"
 viewBox="0.00 0.00 2502.00 131.00" xmlns="http://www.w3.org/2000/svg" xmlns:xlink="http://www.w3.org/1999/xlink">
<g id="graph0" class="graph" transform="scale(1 1) rotate(0) translate(4 127)">
<polygon fill="white" stroke="transparent" points="-4,4 -4,-127 2498,-127 2498,4 -4,4"/>
<!-- 0 -->
<g id="node1" class="node">
<title>0</title>
<ellipse fill="none" stroke="black" cx="1239" cy="-105" rx="36" ry="18"/>
<text text-anchor="middle" x="1239" y="-101.3" font-family="Times,serif" font-size="14.00">Trata</text>
</g>
<!-- 1 -->
<g id="node2" class="node">
<title>1</title>
<ellipse fill="none" stroke="black" cx="27" cy="-18" rx="27" ry="18"/>
<text text-anchor="middle" x="27" y="-14.3" font-family="Times,serif" font-size="14.00">se</text>
</g>
<!-- 0&#45;&gt;1 -->
<g id="edge1" class="edge">
<title>0&#45;&gt;1</title>
<path fill="none" stroke="black" d="M1203.15,-103.63C1025.9,-101.69 247.5,-91.91 142,-69 111.28,-62.33 78.64,-47.28 56.01,-35.43"/>
<polygon fill="black" stroke="black" points="57.42,-32.21 46.96,-30.57 54.12,-38.38 57.42,-32.21"/>
<text text-anchor="middle" x="155.5" y="-57.8" font-family="Times,serif" font-size="14.00">dep</text>
</g>
<!-- 2 -->
<g id="node3" class="node">
<title>2</title>
<ellipse fill="none" stroke="black" cx="99" cy="-18" rx="27" ry="18"/>
<text text-anchor="middle" x="99" y="-14.3" font-family="Times,serif" font-size="14.00">de</text>
</g>
<!-- 0&#45;&gt;2 -->
<g id="edge2" class="edge">
<title>0&#45;&gt;2</title>
<path fill="none" stroke="black" d="M1203.04,-104.36C1045.4,-105.67 414.56,-108.31 221,-69 187.93,-62.28 152.49,-46.72 128.37,-34.73"/>
<polygon fill="black" stroke="black" points="129.9,-31.58 119.4,-30.17 126.73,-37.82 129.9,-31.58"/>
<text text-anchor="middle" x="234.5" y="-57.8" font-family="Times,serif" font-size="14.00">dep</text>
</g>
<!-- 3 -->
<g id="node4" class="node">
<title>3</title>
<ellipse fill="none" stroke="black" cx="175" cy="-18" rx="30.59" ry="18"/>
<text text-anchor="middle" x="175" y="-14.3" font-family="Times,serif" font-size="14.00">uma</text>
</g>
<!-- 0&#45;&gt;3 -->
<g id="edge3" class="edge">
<title>0&#45;&gt;3</title>
<path fill="none" stroke="black" d="M1203.14,-104.23C1053.46,-104.95 478.21,-105.26 301,-69 267.41,-62.13 231.26,-46.89 206.33,-35.03"/>
<polygon fill="black" stroke="black" points="207.55,-31.73 197.02,-30.51 204.49,-38.03 207.55,-31.73"/>
<text text-anchor="middle" x="314.5" y="-57.8" font-family="Times,serif" font-size="14.00">dep</text>
</g>
<!-- 4 -->
<g id="node5" class="node">
<title>4</title>
<ellipse fill="none" stroke="black" cx="251" cy="-18" rx="27" ry="18"/>
<text text-anchor="middle" x="251" y="-14.3" font-family="Times,serif" font-size="14.00">de</text>
</g>
<!-- 0&#45;&gt;4 -->
<g id="edge4" class="edge">
<title>0&#45;&gt;4</title>
<path fill="none" stroke="black" d="M1203.27,-103.82C1062.89,-102.91 549.11,-97.64 389,-69 342.1,-60.61 331.3,-53.54 287,-36 285.17,-35.27 283.3,-34.5 281.42,-33.7"/>
<polygon fill="black" stroke="black" points="282.68,-30.42 272.12,-29.53 279.81,-36.81 282.68,-30.42"/>
<text text-anchor="middle" x="402.5" y="-57.8" font-family="Times,serif" font-size="14.00">dep</text>
</g>
<!-- 5 -->
<g id="node6" class="node">
<title>5</title>
<ellipse fill="none" stroke="black" cx="323" cy="-18" rx="27" ry="18"/>
<text text-anchor="middle" x="323" y="-14.3" font-family="Times,serif" font-size="14.00">as</text>
</g>
<!-- 0&#45;&gt;5 -->
<g id="edge5" class="edge">
<title>0&#45;&gt;5</title>
<path fill="none" stroke="black" d="M1203,-104.46C1096.27,-105.34 772.43,-104.67 507,-69 440.21,-60.02 422.75,-57.86 359,-36 357.09,-35.34 355.14,-34.62 353.2,-33.84"/>
<polygon fill="black" stroke="black" points="354.18,-30.45 343.61,-29.69 351.4,-36.88 354.18,-30.45"/>
<text text-anchor="middle" x="520.5" y="-57.8" font-family="Times,serif" font-size="14.00">dep</text>
</g>
<!-- 6 -->
<g id="node7" class="node">
<title>6</title>
<ellipse fill="none" stroke="black" cx="410" cy="-18" rx="42.49" ry="18"/>
<text text-anchor="middle" x="410" y="-14.3" font-family="Times,serif" font-size="14.00">provas</text>
</g>
<!-- 0&#45;&gt;6 -->
<g id="edge6" class="edge">
<title>0&#45;&gt;6</title>
<path fill="none" stroke="black" d="M1203.08,-103.45C1109.83,-101.69 852.52,-94.7 640,-69 559.69,-59.29 539.34,-56.17 461,-36 457.79,-35.17 454.49,-34.25 451.19,-33.27"/>
<polygon fill="black" stroke="black" points="451.94,-29.84 441.35,-30.21 449.86,-36.52 451.94,-29.84"/>
<text text-anchor="middle" x="653.5" y="-57.8" font-family="Times,serif" font-size="14.00">dep</text>
</g>
<!-- 7 -->
<g id="node8" class="node">
<title>7</title>
<ellipse fill="none" stroke="black" cx="544" cy="-18" rx="74.19" ry="18"/>
<text text-anchor="middle" x="544" y="-14.3" font-family="Times,serif" font-size="14.00">fundamentais</text>
</g>
<!-- 0&#45;&gt;7 -->
<g id="edge7" class="edge">
<title>0&#45;&gt;7</title>
<path fill="none" stroke="black" d="M1203.2,-103.65C1121.11,-102.36 913.25,-96.43 742,-69 692.62,-61.09 637.55,-46.72 598.05,-35.41"/>
<polygon fill="black" stroke="black" points="598.93,-32.02 588.35,-32.6 596.99,-38.74 598.93,-32.02"/>
<text text-anchor="middle" x="755.5" y="-57.8" font-family="Times,serif" font-size="14.00">dep</text>
</g>
<!-- 8 -->
<g id="node9" class="node">
<title>8</title>
<ellipse fill="none" stroke="black" cx="685" cy="-18" rx="48.99" ry="18"/>
<text text-anchor="middle" x="685" y="-14.3" font-family="Times,serif" font-size="14.00">apurada</text>
</g>
<!-- 0&#45;&gt;8 -->
<g id="edge8" class="edge">
<title>0&#45;&gt;8</title>
<path fill="none" stroke="black" d="M1203.19,-104.14C1130.59,-103.74 961.23,-99.3 823,-69 788.75,-61.49 751.45,-47.61 724.27,-36.37"/>
<polygon fill="black" stroke="black" points="725.32,-33.02 714.74,-32.37 722.61,-39.47 725.32,-33.02"/>
<text text-anchor="middle" x="836.5" y="-57.8" font-family="Times,serif" font-size="14.00">dep</text>
</g>
<!-- 9 -->
<g id="node10" class="node">
<title>9</title>
<ellipse fill="none" stroke="black" cx="779" cy="-18" rx="27" ry="18"/>
<text text-anchor="middle" x="779" y="-14.3" font-family="Times,serif" font-size="14.00">por</text>
</g>
<!-- 0&#45;&gt;9 -->
<g id="edge9" class="edge">
<title>0&#45;&gt;9</title>
<path fill="none" stroke="black" d="M1202.99,-103.61C1140.02,-102.21 1006.22,-95.99 897,-69 865.68,-61.26 831.98,-46.24 808.64,-34.68"/>
<polygon fill="black" stroke="black" points="810.12,-31.51 799.62,-30.12 806.97,-37.76 810.12,-31.51"/>
<text text-anchor="middle" x="910.5" y="-57.8" font-family="Times,serif" font-size="14.00">dep</text>
</g>
<!-- 10 -->
<g id="node11" class="node">
<title>10</title>
<ellipse fill="none" stroke="black" cx="851" cy="-18" rx="27" ry="18"/>
<text text-anchor="middle" x="851" y="-14.3" font-family="Times,serif" font-size="14.00">a</text>
</g>
<!-- 0&#45;&gt;10 -->
<g id="edge10" class="edge">
<title>0&#45;&gt;10</title>
<path fill="none" stroke="black" d="M1203.5,-102.06C1151.86,-98.63 1053.3,-89.79 972,-69 939.87,-60.78 905.06,-45.69 881.06,-34.23"/>
<polygon fill="black" stroke="black" points="882.32,-30.95 871.8,-29.73 879.26,-37.25 882.32,-30.95"/>
<text text-anchor="middle" x="985.5" y="-57.8" font-family="Times,serif" font-size="14.00">dep</text>
</g>
<!-- 11 -->
<g id="node12" class="node">
<title>11</title>
<ellipse fill="none" stroke="black" cx="923" cy="-18" rx="27" ry="18"/>
<text text-anchor="middle" x="923" y="-14.3" font-family="Times,serif" font-size="14.00">V</text>
</g>
<!-- 0&#45;&gt;11 -->
<g id="edge11" class="edge">
<title>0&#45;&gt;11</title>
<path fill="none" stroke="black" d="M1204.6,-99.62C1165.85,-94.25 1101.21,-83.98 1047,-69 1006.74,-57.88 997.47,-52.27 959,-36 957.19,-35.23 955.33,-34.43 953.46,-33.6"/>
<polygon fill="black" stroke="black" points="954.74,-30.33 944.19,-29.36 951.83,-36.7 954.74,-30.33"/>
<text text-anchor="middle" x="1060.5" y="-57.8" font-family="Times,serif" font-size="14.00">dep</text>
</g>
<!-- 12 -->
<g id="node13" class="node">
<title>12</title>
<ellipse fill="none" stroke="black" cx="1009" cy="-18" rx="40.89" ry="18"/>
<text text-anchor="middle" x="1009" y="-14.3" font-family="Times,serif" font-size="14.00">CEIAC</text>
</g>
<!-- 0&#45;&gt;12 -->
<g id="edge12" class="edge">
<title>0&#45;&gt;12</title>
<path fill="none" stroke="black" d="M1206.91,-96.75C1181.15,-90.54 1144.24,-80.74 1113,-69 1088.88,-59.93 1062.74,-47.35 1042.7,-37.08"/>
<polygon fill="black" stroke="black" points="1044.16,-33.9 1033.67,-32.4 1040.94,-40.11 1044.16,-33.9"/>
<text text-anchor="middle" x="1126.5" y="-57.8" font-family="Times,serif" font-size="14.00">dep</text>
</g>
<!-- 13 -->
<g id="node14" class="node">
<title>13</title>
<ellipse fill="none" stroke="black" cx="1095" cy="-18" rx="27" ry="18"/>
<text text-anchor="middle" x="1095" y="-14.3" font-family="Times,serif" font-size="14.00">,</text>
</g>
<!-- 0&#45;&gt;13 -->
<g id="edge13" class="edge">
<title>0&#45;&gt;13</title>
<path fill="none" stroke="black" d="M1212.39,-92.8C1198.03,-86.41 1180.2,-77.92 1165,-69 1149.37,-59.82 1132.82,-48.1 1119.74,-38.32"/>
<polygon fill="black" stroke="black" points="1121.77,-35.47 1111.69,-32.21 1117.54,-41.04 1121.77,-35.47"/>
<text text-anchor="middle" x="1178.5" y="-57.8" font-family="Times,serif" font-size="14.00">dep</text>
</g>
<!-- 14 -->
<g id="node15" class="node">
<title>14</title>
<ellipse fill="none" stroke="black" cx="1167" cy="-18" rx="27" ry="18"/>
<text text-anchor="middle" x="1167" y="-14.3" font-family="Times,serif" font-size="14.00">a</text>
</g>
<!-- 0&#45;&gt;14 -->
<g id="edge14" class="edge">
<title>0&#45;&gt;14</title>
<path fill="none" stroke="black" d="M1224.98,-88.43C1219.62,-82.41 1213.48,-75.42 1208,-69 1200.68,-60.41 1192.79,-50.86 1185.9,-42.43"/>
<polygon fill="black" stroke="black" points="1188.44,-39.99 1179.41,-34.44 1183,-44.41 1188.44,-39.99"/>
<text text-anchor="middle" x="1221.5" y="-57.8" font-family="Times,serif" font-size="14.00">dep</text>
</g>
<!-- 15 -->
<g id="node16" class="node">
<title>15</title>
<ellipse fill="none" stroke="black" cx="1239" cy="-18" rx="27" ry="18"/>
<text text-anchor="middle" x="1239" y="-14.3" font-family="Times,serif" font-size="14.00">par</text>
</g>
<!-- 0&#45;&gt;15 -->
<g id="edge15" class="edge">
<title>0&#45;&gt;15</title>
<path fill="none" stroke="black" d="M1239,-86.8C1239,-75.16 1239,-59.55 1239,-46.24"/>
<polygon fill="black" stroke="black" points="1242.5,-46.18 1239,-36.18 1235.5,-46.18 1242.5,-46.18"/>
<text text-anchor="middle" x="1252.5" y="-57.8" font-family="Times,serif" font-size="14.00">dep</text>
</g>
<!-- 16 -->
<g id="node17" class="node">
<title>16</title>
<ellipse fill="none" stroke="black" cx="1311" cy="-18" rx="27" ry="18"/>
<text text-anchor="middle" x="1311" y="-14.3" font-family="Times,serif" font-size="14.00">de</text>
</g>
<!-- 0&#45;&gt;16 -->
<g id="edge16" class="edge">
<title>0&#45;&gt;16</title>
<path fill="none" stroke="black" d="M1253.02,-88.43C1258.38,-82.41 1264.52,-75.42 1270,-69 1277.32,-60.41 1285.21,-50.86 1292.1,-42.43"/>
<polygon fill="black" stroke="black" points="1295,-44.41 1298.59,-34.44 1289.56,-39.99 1295,-44.41"/>
<text text-anchor="middle" x="1296.5" y="-57.8" font-family="Times,serif" font-size="14.00">dep</text>
</g>
<!-- 17 -->
<g id="node18" class="node">
<title>17</title>
<ellipse fill="none" stroke="black" cx="1383" cy="-18" rx="27" ry="18"/>
<text text-anchor="middle" x="1383" y="-14.3" font-family="Times,serif" font-size="14.00">a</text>
</g>
<!-- 0&#45;&gt;17 -->
<g id="edge17" class="edge">
<title>0&#45;&gt;17</title>
<path fill="none" stroke="black" d="M1266.01,-92.89C1280.57,-86.53 1298.64,-78.04 1314,-69 1329.23,-60.04 1345.27,-48.56 1358.04,-38.86"/>
<polygon fill="black" stroke="black" points="1360.54,-41.35 1366.32,-32.48 1356.26,-35.81 1360.54,-41.35"/>
<text text-anchor="middle" x="1349.5" y="-57.8" font-family="Times,serif" font-size="14.00">dep</text>
</g>
<!-- 18 -->
<g id="node19" class="node">
<title>18</title>
<ellipse fill="none" stroke="black" cx="1490" cy="-18" rx="61.99" ry="18"/>
<text text-anchor="middle" x="1490" y="-14.3" font-family="Times,serif" font-size="14.00">descoberta</text>
</g>
<!-- 0&#45;&gt;18 -->
<g id="edge18" class="edge">
<title>0&#45;&gt;18</title>
<path fill="none" stroke="black" d="M1270.61,-96.47C1296.71,-89.99 1334.6,-79.97 1367,-69 1394.44,-59.71 1424.58,-47.49 1448.16,-37.45"/>
<polygon fill="black" stroke="black" points="1449.7,-40.6 1457.51,-33.45 1446.94,-34.17 1449.7,-40.6"/>
<text text-anchor="middle" x="1418.5" y="-57.8" font-family="Times,serif" font-size="14.00">dep</text>
</g>
<!-- 19 -->
<g id="node20" class="node">
<title>19</title>
<ellipse fill="none" stroke="black" cx="1597" cy="-18" rx="27" ry="18"/>
<text text-anchor="middle" x="1597" y="-14.3" font-family="Times,serif" font-size="14.00">de</text>
</g>
<!-- 0&#45;&gt;19 -->
<g id="edge19" class="edge">
<title>0&#45;&gt;19</title>
<path fill="none" stroke="black" d="M1273.73,-99.94C1333.73,-92.22 1460.08,-72.8 1561,-36 1562.85,-35.33 1564.74,-34.59 1566.62,-33.82"/>
<polygon fill="black" stroke="black" points="1568.2,-36.95 1575.95,-29.73 1565.39,-30.54 1568.2,-36.95"/>
<text text-anchor="middle" x="1515.5" y="-57.8" font-family="Times,serif" font-size="14.00">dep</text>
</g>
<!-- 20 -->
<g id="node21" class="node">
<title>20</title>
<ellipse fill="none" stroke="black" cx="1669" cy="-18" rx="27" ry="18"/>
<text text-anchor="middle" x="1669" y="-14.3" font-family="Times,serif" font-size="14.00">os</text>
</g>
<!-- 0&#45;&gt;20 -->
<g id="edge20" class="edge">
<title>0&#45;&gt;20</title>
<path fill="none" stroke="black" d="M1274.68,-102.06C1330.4,-98.52 1441.17,-89.4 1533,-69 1578.69,-58.85 1589.54,-53.36 1633,-36 1634.83,-35.27 1636.7,-34.49 1638.57,-33.68"/>
<polygon fill="black" stroke="black" points="1640.18,-36.8 1647.87,-29.51 1637.31,-30.41 1640.18,-36.8"/>
<text text-anchor="middle" x="1601.5" y="-57.8" font-family="Times,serif" font-size="14.00">dep</text>
</g>
<!-- 21 -->
<g id="node22" class="node">
<title>21</title>
<ellipse fill="none" stroke="black" cx="1766" cy="-18" rx="51.99" ry="18"/>
<text text-anchor="middle" x="1766" y="-14.3" font-family="Times,serif" font-size="14.00">vestígios</text>
</g>
<!-- 0&#45;&gt;21 -->
<g id="edge21" class="edge">
<title>0&#45;&gt;21</title>
<path fill="none" stroke="black" d="M1274.78,-103.51C1342.65,-101.95 1494.43,-95.53 1619,-69 1655.6,-61.21 1695.73,-47.16 1724.8,-35.94"/>
<polygon fill="black" stroke="black" points="1726.17,-39.16 1734.21,-32.26 1723.62,-32.64 1726.17,-39.16"/>
<text text-anchor="middle" x="1686.5" y="-57.8" font-family="Times,serif" font-size="14.00">dep</text>
</g>
<!-- 22 -->
<g id="node23" class="node">
<title>22</title>
<ellipse fill="none" stroke="black" cx="1863" cy="-18" rx="27" ry="18"/>
<text text-anchor="middle" x="1863" y="-14.3" font-family="Times,serif" font-size="14.00">de</text>
</g>
<!-- 0&#45;&gt;22 -->
<g id="edge22" class="edge">
<title>0&#45;&gt;22</title>
<path fill="none" stroke="black" d="M1274.86,-103.58C1353.26,-102.16 1545.58,-95.97 1704,-69 1759.8,-59.5 1773.86,-55.5 1827,-36 1828.85,-35.32 1830.73,-34.58 1832.62,-33.81"/>
<polygon fill="black" stroke="black" points="1834.2,-36.94 1841.95,-29.71 1831.39,-30.53 1834.2,-36.94"/>
<text text-anchor="middle" x="1786.5" y="-57.8" font-family="Times,serif" font-size="14.00">dep</text>
</g>
<!-- 23 -->
<g id="node24" class="node">
<title>23</title>
<ellipse fill="none" stroke="black" cx="1967" cy="-18" rx="59.29" ry="18"/>
<text text-anchor="middle" x="1967" y="-14.3" font-family="Times,serif" font-size="14.00">explosivos</text>
</g>
<!-- 0&#45;&gt;23 -->
<g id="edge23" class="edge">
<title>0&#45;&gt;23</title>
<path fill="none" stroke="black" d="M1275.05,-104.69C1365.08,-105.79 1606.74,-104.84 1804,-69 1844.78,-61.59 1889.71,-47.33 1922.05,-35.93"/>
<polygon fill="black" stroke="black" points="1923.43,-39.15 1931.67,-32.49 1921.07,-32.56 1923.43,-39.15"/>
<text text-anchor="middle" x="1877.5" y="-57.8" font-family="Times,serif" font-size="14.00">dep</text>
</g>
<!-- 24 -->
<g id="node25" class="node">
<title>24</title>
<ellipse fill="none" stroke="black" cx="2071" cy="-18" rx="27" ry="18"/>
<text text-anchor="middle" x="2071" y="-14.3" font-family="Times,serif" font-size="14.00">em</text>
</g>
<!-- 0&#45;&gt;24 -->
<g id="edge24" class="edge">
<title>0&#45;&gt;24</title>
<path fill="none" stroke="black" d="M1274.77,-104.32C1373.88,-104.73 1660.18,-102.67 1895,-69 1958.28,-59.93 1974.65,-57.1 2035,-36 2036.91,-35.33 2038.85,-34.6 2040.79,-33.81"/>
<polygon fill="black" stroke="black" points="2042.6,-36.85 2050.37,-29.65 2039.8,-30.43 2042.6,-36.85"/>
<text text-anchor="middle" x="1991.5" y="-57.8" font-family="Times,serif" font-size="14.00">dep</text>
</g>
<!-- 25 -->
<g id="node26" class="node">
<title>25</title>
<ellipse fill="none" stroke="black" cx="2153" cy="-18" rx="37.09" ry="18"/>
<text text-anchor="middle" x="2153" y="-14.3" font-family="Times,serif" font-size="14.00">peças</text>
</g>
<!-- 0&#45;&gt;25 -->
<g id="edge25" class="edge">
<title>0&#45;&gt;25</title>
<path fill="none" stroke="black" d="M1274.93,-103.69C1407.01,-102.37 1865.47,-95.88 2009,-69 2047.04,-61.88 2088.62,-46.57 2117.27,-34.76"/>
<polygon fill="black" stroke="black" points="2118.97,-37.84 2126.84,-30.75 2116.27,-31.39 2118.97,-37.84"/>
<text text-anchor="middle" x="2079.5" y="-57.8" font-family="Times,serif" font-size="14.00">dep</text>
</g>
<!-- 26 -->
<g id="node27" class="node">
<title>26</title>
<ellipse fill="none" stroke="black" cx="2235" cy="-18" rx="27" ry="18"/>
<text text-anchor="middle" x="2235" y="-14.3" font-family="Times,serif" font-size="14.00">de</text>
</g>
<!-- 0&#45;&gt;26 -->
<g id="edge26" class="edge">
<title>0&#45;&gt;26</title>
<path fill="none" stroke="black" d="M1275.07,-103.83C1416.77,-102.97 1935.38,-97.88 2097,-69 2143.9,-60.62 2154.7,-53.54 2199,-36 2200.83,-35.27 2202.7,-34.5 2204.58,-33.7"/>
<polygon fill="black" stroke="black" points="2206.19,-36.81 2213.88,-29.53 2203.32,-30.42 2206.19,-36.81"/>
<text text-anchor="middle" x="2168.5" y="-57.8" font-family="Times,serif" font-size="14.00">dep</text>
</g>
<!-- 27 -->
<g id="node28" class="node">
<title>27</title>
<ellipse fill="none" stroke="black" cx="2307" cy="-18" rx="27" ry="18"/>
<text text-anchor="middle" x="2307" y="-14.3" font-family="Times,serif" font-size="14.00">o</text>
</g>
<!-- 0&#45;&gt;27 -->
<g id="edge27" class="edge">
<title>0&#45;&gt;27</title>
<path fill="none" stroke="black" d="M1274.96,-104.26C1425.68,-105.13 2007.05,-105.95 2186,-69 2218.67,-62.25 2253.66,-46.81 2277.56,-34.85"/>
<polygon fill="black" stroke="black" points="2279.46,-37.81 2286.77,-30.14 2276.28,-31.58 2279.46,-37.81"/>
<text text-anchor="middle" x="2247.5" y="-57.8" font-family="Times,serif" font-size="14.00">dep</text>
</g>
<!-- 28 -->
<g id="node29" class="node">
<title>28</title>
<ellipse fill="none" stroke="black" cx="2387" cy="-18" rx="35.19" ry="18"/>
<text text-anchor="middle" x="2387" y="-14.3" font-family="Times,serif" font-size="14.00">avião</text>
</g>
<!-- 0&#45;&gt;28 -->
<g id="edge28" class="edge">
<title>0&#45;&gt;28</title>
<path fill="none" stroke="black" d="M1274.75,-103.53C1444.71,-101.2 2166.71,-90.11 2265,-69 2296.61,-62.21 2330.48,-47.69 2354.49,-36.04"/>
<polygon fill="black" stroke="black" points="2356.1,-39.15 2363.51,-31.58 2352.99,-32.88 2356.1,-39.15"/>
<text text-anchor="middle" x="2327.5" y="-57.8" font-family="Times,serif" font-size="14.00">dep</text>
</g>
<!-- 29 -->
<g id="node30" class="node">
<title>29</title>
<ellipse fill="none" stroke="black" cx="2467" cy="-18" rx="27" ry="18"/>
<text text-anchor="middle" x="2467" y="-14.3" font-family="Times,serif" font-size="14.00">.</text>
</g>
<!-- 0&#45;&gt;29 -->
<g id="edge29" class="edge">
<title>0&#45;&gt;29</title>
<path fill="none" stroke="black" d="M1274.84,-103.58C1452.9,-101.38 2238.25,-90.53 2345,-69 2378.08,-62.33 2413.52,-46.76 2437.63,-34.75"/>
<polygon fill="black" stroke="black" points="2439.28,-37.84 2446.6,-30.19 2436.1,-31.6 2439.28,-37.84"/>
<text text-anchor="middle" x="2407.5" y="-57.8" font-family="Times,serif" font-size="14.00">dep</text>
</g>
</g>
</svg>
