<?xml version="1.0" encoding="UTF-8" standalone="no"?>
<!DOCTYPE svg PUBLIC "-//W3C//DTD SVG 1.1//EN"
 "http://www.w3.org/Graphics/SVG/1.1/DTD/svg11.dtd">
<!-- Generated by graphviz version 2.42.4 (0)
 -->
<!-- Pages: 1 -->
<svg width="1742pt" height="131pt"
 viewBox="0.00 0.00 1742.15 131.00" xmlns="http://www.w3.org/2000/svg" xmlns:xlink="http://www.w3.org/1999/xlink">
<g id="graph0" class="graph" transform="scale(1 1) rotate(0) translate(4 127)">
<polygon fill="white" stroke="transparent" points="-4,4 -4,-127 1738.15,-127 1738.15,4 -4,4"/>
<!-- 0 -->
<g id="node1" class="node">
<title>0</title>
<ellipse fill="none" stroke="black" cx="843.15" cy="-105" rx="30.59" ry="18"/>
<text text-anchor="middle" x="843.15" y="-101.3" font-family="Times,serif" font-size="14.00">Mas</text>
</g>
<!-- 1 -->
<g id="node2" class="node">
<title>1</title>
<ellipse fill="none" stroke="black" cx="46.15" cy="-18" rx="46.29" ry="18"/>
<text text-anchor="middle" x="46.15" y="-14.3" font-family="Times,serif" font-size="14.00">afirmou</text>
</g>
<!-- 0&#45;&gt;1 -->
<g id="edge1" class="edge">
<title>0&#45;&gt;1</title>
<path fill="none" stroke="black" d="M812.38,-103.56C699.26,-101.78 306.67,-93.88 184.15,-69 149.34,-61.93 111.52,-47.74 84.3,-36.27"/>
<polygon fill="black" stroke="black" points="85.34,-32.91 74.77,-32.19 82.58,-39.35 85.34,-32.91"/>
<text text-anchor="middle" x="197.65" y="-57.8" font-family="Times,serif" font-size="14.00">dep</text>
</g>
<!-- 2 -->
<g id="node3" class="node">
<title>2</title>
<ellipse fill="none" stroke="black" cx="138.15" cy="-18" rx="27.9" ry="18"/>
<text text-anchor="middle" x="138.15" y="-14.3" font-family="Times,serif" font-size="14.00">que</text>
</g>
<!-- 0&#45;&gt;2 -->
<g id="edge2" class="edge">
<title>0&#45;&gt;2</title>
<path fill="none" stroke="black" d="M812.65,-103.32C709.06,-100.83 371.3,-91.18 265.15,-69 230.8,-61.82 193.69,-46.22 168.51,-34.34"/>
<polygon fill="black" stroke="black" points="170.01,-31.17 159.48,-29.99 166.97,-37.48 170.01,-31.17"/>
<text text-anchor="middle" x="278.65" y="-57.8" font-family="Times,serif" font-size="14.00">dep</text>
</g>
<!-- 3 -->
<g id="node4" class="node">
<title>3</title>
<ellipse fill="none" stroke="black" cx="211.15" cy="-18" rx="27" ry="18"/>
<text text-anchor="middle" x="211.15" y="-14.3" font-family="Times,serif" font-size="14.00">a</text>
</g>
<!-- 0&#45;&gt;3 -->
<g id="edge3" class="edge">
<title>0&#45;&gt;3</title>
<path fill="none" stroke="black" d="M812.44,-104.25C734.78,-104.35 524.53,-101.35 353.15,-69 304.66,-59.85 293.12,-53.91 247.15,-36 245.31,-35.28 243.44,-34.52 241.56,-33.72"/>
<polygon fill="black" stroke="black" points="242.81,-30.45 232.25,-29.57 239.96,-36.84 242.81,-30.45"/>
<text text-anchor="middle" x="366.65" y="-57.8" font-family="Times,serif" font-size="14.00">dep</text>
</g>
<!-- 4 -->
<g id="node5" class="node">
<title>4</title>
<ellipse fill="none" stroke="black" cx="283.15" cy="-18" rx="27" ry="18"/>
<text text-anchor="middle" x="283.15" y="-14.3" font-family="Times,serif" font-size="14.00">lei</text>
</g>
<!-- 0&#45;&gt;4 -->
<g id="edge4" class="edge">
<title>0&#45;&gt;4</title>
<path fill="none" stroke="black" d="M812.76,-102.07C750.75,-97.9 605.25,-86.97 484.15,-69 410.17,-58.02 390.15,-59.47 319.15,-36 317.23,-35.37 315.28,-34.65 313.33,-33.89"/>
<polygon fill="black" stroke="black" points="314.3,-30.5 303.73,-29.77 311.54,-36.93 314.3,-30.5"/>
<text text-anchor="middle" x="497.65" y="-57.8" font-family="Times,serif" font-size="14.00">dep</text>
</g>
<!-- 5 -->
<g id="node6" class="node">
<title>5</title>
<ellipse fill="none" stroke="black" cx="385.15" cy="-18" rx="57.39" ry="18"/>
<text text-anchor="middle" x="385.15" y="-14.3" font-family="Times,serif" font-size="14.00">antitruste</text>
</g>
<!-- 0&#45;&gt;5 -->
<g id="edge5" class="edge">
<title>0&#45;&gt;5</title>
<path fill="none" stroke="black" d="M813.26,-101.22C764.13,-96.39 663.33,-85.37 579.15,-69 529.78,-59.4 474.3,-44.7 435.35,-33.72"/>
<polygon fill="black" stroke="black" points="435.9,-30.23 425.32,-30.87 433.99,-36.97 435.9,-30.23"/>
<text text-anchor="middle" x="592.65" y="-57.8" font-family="Times,serif" font-size="14.00">dep</text>
</g>
<!-- 6 -->
<g id="node7" class="node">
<title>6</title>
<ellipse fill="none" stroke="black" cx="514.15" cy="-18" rx="53.89" ry="18"/>
<text text-anchor="middle" x="514.15" y="-14.3" font-family="Times,serif" font-size="14.00">aprovada</text>
</g>
<!-- 0&#45;&gt;6 -->
<g id="edge6" class="edge">
<title>0&#45;&gt;6</title>
<path fill="none" stroke="black" d="M813.85,-99.88C776.94,-94.38 711.75,-83.59 657.15,-69 622.94,-59.86 585.16,-46.5 557.03,-35.89"/>
<polygon fill="black" stroke="black" points="558.1,-32.55 547.5,-32.27 555.61,-39.1 558.1,-32.55"/>
<text text-anchor="middle" x="670.65" y="-57.8" font-family="Times,serif" font-size="14.00">dep</text>
</g>
<!-- 7 -->
<g id="node8" class="node">
<title>7</title>
<ellipse fill="none" stroke="black" cx="613.15" cy="-18" rx="27" ry="18"/>
<text text-anchor="middle" x="613.15" y="-14.3" font-family="Times,serif" font-size="14.00">por</text>
</g>
<!-- 0&#45;&gt;7 -->
<g id="edge7" class="edge">
<title>0&#45;&gt;7</title>
<path fill="none" stroke="black" d="M815.41,-96.93C791.08,-90.47 754.89,-80.23 724.15,-69 689.94,-56.5 682.28,-51.11 649.15,-36 647.35,-35.18 645.51,-34.34 643.66,-33.48"/>
<polygon fill="black" stroke="black" points="644.96,-30.22 634.42,-29.16 642,-36.57 644.96,-30.22"/>
<text text-anchor="middle" x="737.65" y="-57.8" font-family="Times,serif" font-size="14.00">dep</text>
</g>
<!-- 8 -->
<g id="node9" class="node">
<title>8</title>
<ellipse fill="none" stroke="black" cx="685.15" cy="-18" rx="27" ry="18"/>
<text text-anchor="middle" x="685.15" y="-14.3" font-family="Times,serif" font-size="14.00">o</text>
</g>
<!-- 0&#45;&gt;8 -->
<g id="edge8" class="edge">
<title>0&#45;&gt;8</title>
<path fill="none" stroke="black" d="M821.18,-92.18C793.36,-77.22 745.34,-51.38 714.43,-34.75"/>
<polygon fill="black" stroke="black" points="715.89,-31.57 705.43,-29.91 712.58,-37.73 715.89,-31.57"/>
<text text-anchor="middle" x="787.65" y="-57.8" font-family="Times,serif" font-size="14.00">dep</text>
</g>
<!-- 9 -->
<g id="node10" class="node">
<title>9</title>
<ellipse fill="none" stroke="black" cx="790.15" cy="-18" rx="59.59" ry="18"/>
<text text-anchor="middle" x="790.15" y="-14.3" font-family="Times,serif" font-size="14.00">Congresso</text>
</g>
<!-- 0&#45;&gt;9 -->
<g id="edge9" class="edge">
<title>0&#45;&gt;9</title>
<path fill="none" stroke="black" d="M832.93,-87.61C825.33,-75.42 814.81,-58.56 806.11,-44.6"/>
<polygon fill="black" stroke="black" points="808.96,-42.55 800.7,-35.92 803.02,-46.26 808.96,-42.55"/>
<text text-anchor="middle" x="833.65" y="-57.8" font-family="Times,serif" font-size="14.00">dep</text>
</g>
<!-- 10 -->
<g id="node11" class="node">
<title>10</title>
<ellipse fill="none" stroke="black" cx="896.15" cy="-18" rx="28.7" ry="18"/>
<text text-anchor="middle" x="896.15" y="-14.3" font-family="Times,serif" font-size="14.00">tem</text>
</g>
<!-- 0&#45;&gt;10 -->
<g id="edge10" class="edge">
<title>0&#45;&gt;10</title>
<path fill="none" stroke="black" d="M853.36,-87.61C861.11,-75.19 871.89,-57.9 880.69,-43.78"/>
<polygon fill="black" stroke="black" points="883.82,-45.39 886.14,-35.05 877.88,-41.68 883.82,-45.39"/>
<text text-anchor="middle" x="886.65" y="-57.8" font-family="Times,serif" font-size="14.00">dep</text>
</g>
<!-- 11 -->
<g id="node12" class="node">
<title>11</title>
<ellipse fill="none" stroke="black" cx="970.15" cy="-18" rx="27" ry="18"/>
<text text-anchor="middle" x="970.15" y="-14.3" font-family="Times,serif" font-size="14.00">as</text>
</g>
<!-- 0&#45;&gt;11 -->
<g id="edge11" class="edge">
<title>0&#45;&gt;11</title>
<path fill="none" stroke="black" d="M865,-92.34C876.81,-85.83 891.52,-77.36 904.15,-69 918.37,-59.59 933.58,-48.16 945.81,-38.61"/>
<polygon fill="black" stroke="black" points="948.07,-41.29 953.76,-32.35 943.74,-35.79 948.07,-41.29"/>
<text text-anchor="middle" x="938.65" y="-57.8" font-family="Times,serif" font-size="14.00">dep</text>
</g>
<!-- 12 -->
<g id="node13" class="node">
<title>12</title>
<ellipse fill="none" stroke="black" cx="1085.15" cy="-18" rx="69.59" ry="18"/>
<text text-anchor="middle" x="1085.15" y="-14.3" font-family="Times,serif" font-size="14.00">deformações</text>
</g>
<!-- 0&#45;&gt;12 -->
<g id="edge12" class="edge">
<title>0&#45;&gt;12</title>
<path fill="none" stroke="black" d="M870.26,-96.18C893.26,-89.41 927.05,-79.13 956.15,-69 984.28,-59.2 1015.44,-47.16 1040.08,-37.35"/>
<polygon fill="black" stroke="black" points="1041.54,-40.54 1049.53,-33.57 1038.94,-34.04 1041.54,-40.54"/>
<text text-anchor="middle" x="1009.65" y="-57.8" font-family="Times,serif" font-size="14.00">dep</text>
</g>
<!-- 13 -->
<g id="node14" class="node">
<title>13</title>
<ellipse fill="none" stroke="black" cx="1214.15" cy="-18" rx="41.69" ry="18"/>
<text text-anchor="middle" x="1214.15" y="-14.3" font-family="Times,serif" font-size="14.00">típicas</text>
</g>
<!-- 0&#45;&gt;13 -->
<g id="edge13" class="edge">
<title>0&#45;&gt;13</title>
<path fill="none" stroke="black" d="M872.27,-99.31C929.06,-89.83 1058.27,-66.68 1164.15,-36 1167.13,-35.13 1170.2,-34.2 1173.29,-33.23"/>
<polygon fill="black" stroke="black" points="1174.65,-36.47 1183.08,-30.05 1172.49,-29.81 1174.65,-36.47"/>
<text text-anchor="middle" x="1108.65" y="-57.8" font-family="Times,serif" font-size="14.00">dep</text>
</g>
<!-- 14 -->
<g id="node15" class="node">
<title>14</title>
<ellipse fill="none" stroke="black" cx="1301.15" cy="-18" rx="27" ry="18"/>
<text text-anchor="middle" x="1301.15" y="-14.3" font-family="Times,serif" font-size="14.00">de</text>
</g>
<!-- 0&#45;&gt;14 -->
<g id="edge14" class="edge">
<title>0&#45;&gt;14</title>
<path fill="none" stroke="black" d="M873.72,-102.76C944.51,-99.12 1124.38,-85.34 1265.15,-36 1267.05,-35.33 1269,-34.59 1270.94,-33.81"/>
<polygon fill="black" stroke="black" points="1272.74,-36.84 1280.51,-29.64 1269.95,-30.42 1272.74,-36.84"/>
<text text-anchor="middle" x="1212.65" y="-57.8" font-family="Times,serif" font-size="14.00">dep</text>
</g>
<!-- 15 -->
<g id="node16" class="node">
<title>15</title>
<ellipse fill="none" stroke="black" cx="1373.15" cy="-18" rx="27" ry="18"/>
<text text-anchor="middle" x="1373.15" y="-14.3" font-family="Times,serif" font-size="14.00">a</text>
</g>
<!-- 0&#45;&gt;15 -->
<g id="edge15" class="edge">
<title>0&#45;&gt;15</title>
<path fill="none" stroke="black" d="M873.81,-103.4C939.66,-101.63 1099.26,-94.81 1230.15,-69 1278.97,-59.37 1290.75,-54 1337.15,-36 1338.98,-35.29 1340.86,-34.52 1342.74,-33.73"/>
<polygon fill="black" stroke="black" points="1344.34,-36.85 1352.04,-29.58 1341.49,-30.45 1344.34,-36.85"/>
<text text-anchor="middle" x="1301.65" y="-57.8" font-family="Times,serif" font-size="14.00">dep</text>
</g>
<!-- 16 -->
<g id="node17" class="node">
<title>16</title>
<ellipse fill="none" stroke="black" cx="1467.15" cy="-18" rx="49.29" ry="18"/>
<text text-anchor="middle" x="1467.15" y="-14.3" font-family="Times,serif" font-size="14.00">situação</text>
</g>
<!-- 0&#45;&gt;16 -->
<g id="edge16" class="edge">
<title>0&#45;&gt;16</title>
<path fill="none" stroke="black" d="M873.86,-104.4C950.07,-104.84 1153.67,-102.48 1319.15,-69 1356.4,-61.46 1397.23,-47.19 1426.54,-35.82"/>
<polygon fill="black" stroke="black" points="1428,-39.01 1436.02,-32.09 1425.44,-32.49 1428,-39.01"/>
<text text-anchor="middle" x="1386.65" y="-57.8" font-family="Times,serif" font-size="14.00">dep</text>
</g>
<!-- 17 -->
<g id="node18" class="node">
<title>17</title>
<ellipse fill="none" stroke="black" cx="1598.15" cy="-18" rx="63.89" ry="18"/>
<text text-anchor="middle" x="1598.15" y="-14.3" font-family="Times,serif" font-size="14.00">conjuntural</text>
</g>
<!-- 0&#45;&gt;17 -->
<g id="edge17" class="edge">
<title>0&#45;&gt;17</title>
<path fill="none" stroke="black" d="M873.77,-104.12C958.62,-104.03 1203.67,-100.79 1404.15,-69 1453.5,-61.17 1508.55,-46.39 1547.37,-34.91"/>
<polygon fill="black" stroke="black" points="1548.79,-38.14 1557.37,-31.92 1546.79,-31.43 1548.79,-38.14"/>
<text text-anchor="middle" x="1488.65" y="-57.8" font-family="Times,serif" font-size="14.00">dep</text>
</g>
<!-- 18 -->
<g id="node19" class="node">
<title>18</title>
<ellipse fill="none" stroke="black" cx="1707.15" cy="-18" rx="27" ry="18"/>
<text text-anchor="middle" x="1707.15" y="-14.3" font-family="Times,serif" font-size="14.00">.</text>
</g>
<!-- 0&#45;&gt;18 -->
<g id="edge18" class="edge">
<title>0&#45;&gt;18</title>
<path fill="none" stroke="black" d="M873.68,-103.96C968.12,-103.48 1263.69,-99.48 1506.15,-69 1580.35,-59.67 1600.14,-59.47 1671.15,-36 1673.07,-35.37 1675.02,-34.65 1676.97,-33.89"/>
<polygon fill="black" stroke="black" points="1678.75,-36.93 1686.56,-29.77 1675.99,-30.5 1678.75,-36.93"/>
<text text-anchor="middle" x="1620.65" y="-57.8" font-family="Times,serif" font-size="14.00">dep</text>
</g>
</g>
</svg>
