<?xml version="1.0" encoding="UTF-8" standalone="no"?>
<!DOCTYPE svg PUBLIC "-//W3C//DTD SVG 1.1//EN"
 "http://www.w3.org/Graphics/SVG/1.1/DTD/svg11.dtd">
<!-- Generated by graphviz version 2.42.4 (0)
 -->
<!-- Pages: 1 -->
<svg width="1258pt" height="131pt"
 viewBox="0.00 0.00 1257.54 131.00" xmlns="http://www.w3.org/2000/svg" xmlns:xlink="http://www.w3.org/1999/xlink">
<g id="graph0" class="graph" transform="scale(1 1) rotate(0) translate(4 127)">
<polygon fill="white" stroke="transparent" points="-4,4 -4,-127 1253.54,-127 1253.54,4 -4,4"/>
<!-- 0 -->
<g id="node1" class="node">
<title>0</title>
<ellipse fill="none" stroke="black" cx="599.54" cy="-105" rx="27" ry="18"/>
<text text-anchor="middle" x="599.54" y="-101.3" font-family="Times,serif" font-size="14.00">O</text>
</g>
<!-- 1 -->
<g id="node2" class="node">
<title>1</title>
<ellipse fill="none" stroke="black" cx="69.54" cy="-18" rx="69.59" ry="18"/>
<text text-anchor="middle" x="69.54" y="-14.3" font-family="Times,serif" font-size="14.00">fundamental</text>
</g>
<!-- 0&#45;&gt;1 -->
<g id="edge1" class="edge">
<title>0&#45;&gt;1</title>
<path fill="none" stroke="black" d="M572.49,-103.32C511.22,-101.36 357.41,-94.13 231.54,-69 192.31,-61.16 149.06,-47.55 117.13,-36.51"/>
<polygon fill="black" stroke="black" points="118.19,-33.17 107.6,-33.17 115.88,-39.78 118.19,-33.17"/>
<text text-anchor="middle" x="245.04" y="-57.8" font-family="Times,serif" font-size="14.00">dep</text>
</g>
<!-- 2 -->
<g id="node3" class="node">
<title>2</title>
<ellipse fill="none" stroke="black" cx="184.54" cy="-18" rx="27" ry="18"/>
<text text-anchor="middle" x="184.54" y="-14.3" font-family="Times,serif" font-size="14.00">,</text>
</g>
<!-- 0&#45;&gt;2 -->
<g id="edge2" class="edge">
<title>0&#45;&gt;2</title>
<path fill="none" stroke="black" d="M572.58,-102.96C520.61,-100.47 403.24,-92.51 307.54,-69 274.54,-60.89 238.76,-45.54 214.34,-33.98"/>
<polygon fill="black" stroke="black" points="215.78,-30.78 205.25,-29.6 212.74,-37.09 215.78,-30.78"/>
<text text-anchor="middle" x="321.04" y="-57.8" font-family="Times,serif" font-size="14.00">dep</text>
</g>
<!-- 3 -->
<g id="node4" class="node">
<title>3</title>
<ellipse fill="none" stroke="black" cx="261.54" cy="-18" rx="31.7" ry="18"/>
<text text-anchor="middle" x="261.54" y="-14.3" font-family="Times,serif" font-size="14.00">para</text>
</g>
<!-- 0&#45;&gt;3 -->
<g id="edge3" class="edge">
<title>0&#45;&gt;3</title>
<path fill="none" stroke="black" d="M572.76,-101.96C530.56,-98.26 446.32,-88.9 377.54,-69 348.24,-60.52 316.52,-46.49 293.68,-35.45"/>
<polygon fill="black" stroke="black" points="294.98,-32.19 284.46,-30.92 291.89,-38.47 294.98,-32.19"/>
<text text-anchor="middle" x="391.04" y="-57.8" font-family="Times,serif" font-size="14.00">dep</text>
</g>
<!-- 4 -->
<g id="node5" class="node">
<title>4</title>
<ellipse fill="none" stroke="black" cx="342.54" cy="-18" rx="31.4" ry="18"/>
<text text-anchor="middle" x="342.54" y="-14.3" font-family="Times,serif" font-size="14.00">mim</text>
</g>
<!-- 0&#45;&gt;4 -->
<g id="edge4" class="edge">
<title>0&#45;&gt;4</title>
<path fill="none" stroke="black" d="M573.26,-100.24C541.44,-95.22 486.53,-85.06 441.54,-69 417.39,-60.38 391.57,-47.19 372.35,-36.52"/>
<polygon fill="black" stroke="black" points="373.92,-33.39 363.49,-31.52 370.48,-39.49 373.92,-33.39"/>
<text text-anchor="middle" x="455.04" y="-57.8" font-family="Times,serif" font-size="14.00">dep</text>
</g>
<!-- 5 -->
<g id="node6" class="node">
<title>5</title>
<ellipse fill="none" stroke="black" cx="418.54" cy="-18" rx="27" ry="18"/>
<text text-anchor="middle" x="418.54" y="-14.3" font-family="Times,serif" font-size="14.00">,</text>
</g>
<!-- 0&#45;&gt;5 -->
<g id="edge5" class="edge">
<title>0&#45;&gt;5</title>
<path fill="none" stroke="black" d="M575.12,-97.07C554.5,-90.85 524.45,-80.87 499.54,-69 480.59,-59.96 460.5,-47.58 445.06,-37.4"/>
<polygon fill="black" stroke="black" points="446.82,-34.36 436.56,-31.7 442.92,-40.17 446.82,-34.36"/>
<text text-anchor="middle" x="513.04" y="-57.8" font-family="Times,serif" font-size="14.00">dep</text>
</g>
<!-- 6 -->
<g id="node7" class="node">
<title>6</title>
<ellipse fill="none" stroke="black" cx="490.54" cy="-18" rx="27" ry="18"/>
<text text-anchor="middle" x="490.54" y="-14.3" font-family="Times,serif" font-size="14.00">é</text>
</g>
<!-- 0&#45;&gt;6 -->
<g id="edge6" class="edge">
<title>0&#45;&gt;6</title>
<path fill="none" stroke="black" d="M580.78,-91.84C570.99,-85.32 558.92,-77 548.54,-69 536.63,-59.82 523.91,-48.98 513.43,-39.75"/>
<polygon fill="black" stroke="black" points="515.71,-37.09 505.91,-33.06 511.06,-42.32 515.71,-37.09"/>
<text text-anchor="middle" x="562.04" y="-57.8" font-family="Times,serif" font-size="14.00">dep</text>
</g>
<!-- 7 -->
<g id="node8" class="node">
<title>7</title>
<ellipse fill="none" stroke="black" cx="563.54" cy="-18" rx="27.9" ry="18"/>
<text text-anchor="middle" x="563.54" y="-14.3" font-family="Times,serif" font-size="14.00">que</text>
</g>
<!-- 0&#45;&gt;7 -->
<g id="edge7" class="edge">
<title>0&#45;&gt;7</title>
<path fill="none" stroke="black" d="M592.43,-87.21C587.32,-75.14 580.33,-58.64 574.51,-44.89"/>
<polygon fill="black" stroke="black" points="577.64,-43.31 570.52,-35.47 571.2,-46.04 577.64,-43.31"/>
<text text-anchor="middle" x="598.04" y="-57.8" font-family="Times,serif" font-size="14.00">dep</text>
</g>
<!-- 8 -->
<g id="node9" class="node">
<title>8</title>
<ellipse fill="none" stroke="black" cx="636.54" cy="-18" rx="27" ry="18"/>
<text text-anchor="middle" x="636.54" y="-14.3" font-family="Times,serif" font-size="14.00">a</text>
</g>
<!-- 0&#45;&gt;8 -->
<g id="edge8" class="edge">
<title>0&#45;&gt;8</title>
<path fill="none" stroke="black" d="M606.68,-87.61C611.92,-75.58 619.14,-58.98 625.17,-45.13"/>
<polygon fill="black" stroke="black" points="628.52,-46.19 629.31,-35.63 622.11,-43.4 628.52,-46.19"/>
<text text-anchor="middle" x="634.04" y="-57.8" font-family="Times,serif" font-size="14.00">dep</text>
</g>
<!-- 9 -->
<g id="node10" class="node">
<title>9</title>
<ellipse fill="none" stroke="black" cx="711.54" cy="-18" rx="29.8" ry="18"/>
<text text-anchor="middle" x="711.54" y="-14.3" font-family="Times,serif" font-size="14.00">arte</text>
</g>
<!-- 0&#45;&gt;9 -->
<g id="edge9" class="edge">
<title>0&#45;&gt;9</title>
<path fill="none" stroke="black" d="M618.64,-91.82C628.62,-85.29 640.92,-76.97 651.54,-69 663.73,-59.86 676.78,-49.11 687.58,-39.92"/>
<polygon fill="black" stroke="black" points="690.04,-42.43 695.36,-33.26 685.49,-37.11 690.04,-42.43"/>
<text text-anchor="middle" x="684.04" y="-57.8" font-family="Times,serif" font-size="14.00">dep</text>
</g>
<!-- 10 -->
<g id="node11" class="node">
<title>10</title>
<ellipse fill="none" stroke="black" cx="788.54" cy="-18" rx="29.5" ry="18"/>
<text text-anchor="middle" x="788.54" y="-14.3" font-family="Times,serif" font-size="14.00">seja</text>
</g>
<!-- 0&#45;&gt;10 -->
<g id="edge10" class="edge">
<title>0&#45;&gt;10</title>
<path fill="none" stroke="black" d="M623.95,-97.06C644.94,-90.76 675.8,-80.68 701.54,-69 721.89,-59.77 743.68,-47.23 760.37,-37.03"/>
<polygon fill="black" stroke="black" points="762.42,-39.88 769.07,-31.63 758.73,-33.93 762.42,-39.88"/>
<text text-anchor="middle" x="745.04" y="-57.8" font-family="Times,serif" font-size="14.00">dep</text>
</g>
<!-- 11 -->
<g id="node12" class="node">
<title>11</title>
<ellipse fill="none" stroke="black" cx="867.54" cy="-18" rx="31.7" ry="18"/>
<text text-anchor="middle" x="867.54" y="-14.3" font-family="Times,serif" font-size="14.00">livre</text>
</g>
<!-- 0&#45;&gt;11 -->
<g id="edge11" class="edge">
<title>0&#45;&gt;11</title>
<path fill="none" stroke="black" d="M625.74,-100.3C658.37,-95.26 715.55,-84.99 762.54,-69 788.4,-60.2 816.25,-46.74 836.77,-36"/>
<polygon fill="black" stroke="black" points="838.46,-39.07 845.65,-31.28 835.17,-32.88 838.46,-39.07"/>
<text text-anchor="middle" x="812.04" y="-57.8" font-family="Times,serif" font-size="14.00">dep</text>
</g>
<!-- 12 -->
<g id="node13" class="node">
<title>12</title>
<ellipse fill="none" stroke="black" cx="944.54" cy="-18" rx="27" ry="18"/>
<text text-anchor="middle" x="944.54" y="-14.3" font-family="Times,serif" font-size="14.00">de</text>
</g>
<!-- 0&#45;&gt;12 -->
<g id="edge12" class="edge">
<title>0&#45;&gt;12</title>
<path fill="none" stroke="black" d="M626.2,-102.07C669.52,-98.47 757.6,-89.17 829.54,-69 859.62,-60.57 892.12,-45.88 914.86,-34.59"/>
<polygon fill="black" stroke="black" points="916.63,-37.62 923.98,-30 913.48,-31.37 916.63,-37.62"/>
<text text-anchor="middle" x="886.04" y="-57.8" font-family="Times,serif" font-size="14.00">dep</text>
</g>
<!-- 13 -->
<g id="node14" class="node">
<title>13</title>
<ellipse fill="none" stroke="black" cx="1083.54" cy="-18" rx="94.48" ry="18"/>
<text text-anchor="middle" x="1083.54" y="-14.3" font-family="Times,serif" font-size="14.00">constrangimentos</text>
</g>
<!-- 0&#45;&gt;13 -->
<g id="edge13" class="edge">
<title>0&#45;&gt;13</title>
<path fill="none" stroke="black" d="M626.6,-102.31C679.97,-98.66 802.39,-88.75 903.54,-69 945.88,-60.74 992.81,-47.56 1028.13,-36.81"/>
<polygon fill="black" stroke="black" points="1029.24,-40.13 1037.77,-33.85 1027.19,-33.44 1029.24,-40.13"/>
<text text-anchor="middle" x="978.04" y="-57.8" font-family="Times,serif" font-size="14.00">dep</text>
</g>
<!-- 14 -->
<g id="node15" class="node">
<title>14</title>
<ellipse fill="none" stroke="black" cx="1222.54" cy="-18" rx="27" ry="18"/>
<text text-anchor="middle" x="1222.54" y="-14.3" font-family="Times,serif" font-size="14.00">.</text>
</g>
<!-- 0&#45;&gt;14 -->
<g id="edge14" class="edge">
<title>0&#45;&gt;14</title>
<path fill="none" stroke="black" d="M626.52,-102.39C690.66,-98.39 857.3,-87.02 995.54,-69 1080.97,-57.86 1104.4,-61.96 1186.54,-36 1188.47,-35.39 1190.43,-34.7 1192.38,-33.95"/>
<polygon fill="black" stroke="black" points="1194.15,-37 1201.99,-29.87 1191.42,-30.56 1194.15,-37"/>
<text text-anchor="middle" x="1129.04" y="-57.8" font-family="Times,serif" font-size="14.00">dep</text>
</g>
</g>
</svg>
