<?xml version="1.0" encoding="UTF-8" standalone="no"?>
<!DOCTYPE svg PUBLIC "-//W3C//DTD SVG 1.1//EN"
 "http://www.w3.org/Graphics/SVG/1.1/DTD/svg11.dtd">
<!-- Generated by graphviz version 2.42.4 (0)
 -->
<!-- Pages: 1 -->
<svg width="3974pt" height="131pt"
 viewBox="0.00 0.00 3974.00 131.00" xmlns="http://www.w3.org/2000/svg" xmlns:xlink="http://www.w3.org/1999/xlink">
<g id="graph0" class="graph" transform="scale(1 1) rotate(0) translate(4 127)">
<polygon fill="white" stroke="transparent" points="-4,4 -4,-127 3970,-127 3970,4 -4,4"/>
<!-- 0 -->
<g id="node1" class="node">
<title>0</title>
<ellipse fill="none" stroke="black" cx="1971" cy="-105" rx="50.09" ry="18"/>
<text text-anchor="middle" x="1971" y="-101.3" font-family="Times,serif" font-size="14.00">Contudo</text>
</g>
<!-- 1 -->
<g id="node2" class="node">
<title>1</title>
<ellipse fill="none" stroke="black" cx="27" cy="-18" rx="27" ry="18"/>
<text text-anchor="middle" x="27" y="-14.3" font-family="Times,serif" font-size="14.00">,</text>
</g>
<!-- 0&#45;&gt;1 -->
<g id="edge1" class="edge">
<title>0&#45;&gt;1</title>
<path fill="none" stroke="black" d="M1920.61,-103.99C1645.78,-103.83 333.51,-101.33 156,-69 120.59,-62.55 82.43,-46.52 56.88,-34.33"/>
<polygon fill="black" stroke="black" points="58.26,-31.11 47.73,-29.88 55.19,-37.4 58.26,-31.11"/>
<text text-anchor="middle" x="169.5" y="-57.8" font-family="Times,serif" font-size="14.00">dep</text>
</g>
<!-- 2 -->
<g id="node3" class="node">
<title>2</title>
<ellipse fill="none" stroke="black" cx="99" cy="-18" rx="27" ry="18"/>
<text text-anchor="middle" x="99" y="-14.3" font-family="Times,serif" font-size="14.00">o</text>
</g>
<!-- 0&#45;&gt;2 -->
<g id="edge2" class="edge">
<title>0&#45;&gt;2</title>
<path fill="none" stroke="black" d="M1920.87,-103.7C1656,-102.04 425.12,-93.09 257,-69 201.4,-61.03 187.71,-55.4 135,-36 133.15,-35.32 131.27,-34.58 129.38,-33.8"/>
<polygon fill="black" stroke="black" points="130.62,-30.52 120.05,-29.7 127.8,-36.93 130.62,-30.52"/>
<text text-anchor="middle" x="270.5" y="-57.8" font-family="Times,serif" font-size="14.00">dep</text>
</g>
<!-- 3 -->
<g id="node4" class="node">
<title>3</title>
<ellipse fill="none" stroke="black" cx="198" cy="-18" rx="53.89" ry="18"/>
<text text-anchor="middle" x="198" y="-14.3" font-family="Times,serif" font-size="14.00">porta&#45;voz</text>
</g>
<!-- 0&#45;&gt;3 -->
<g id="edge3" class="edge">
<title>0&#45;&gt;3</title>
<path fill="none" stroke="black" d="M1920.94,-103.83C1664.52,-102.82 504.08,-96.73 346,-69 308.68,-62.45 268.02,-48.16 238.77,-36.53"/>
<polygon fill="black" stroke="black" points="239.9,-33.21 229.31,-32.7 237.27,-39.69 239.9,-33.21"/>
<text text-anchor="middle" x="359.5" y="-57.8" font-family="Times,serif" font-size="14.00">dep</text>
</g>
<!-- 4 -->
<g id="node5" class="node">
<title>4</title>
<ellipse fill="none" stroke="black" cx="297" cy="-18" rx="27" ry="18"/>
<text text-anchor="middle" x="297" y="-14.3" font-family="Times,serif" font-size="14.00">de</text>
</g>
<!-- 0&#45;&gt;4 -->
<g id="edge4" class="edge">
<title>0&#45;&gt;4</title>
<path fill="none" stroke="black" d="M1921.03,-103.79C1672.7,-102.62 577.48,-95.97 428,-69 391.89,-62.48 352.88,-46.31 326.91,-34.1"/>
<polygon fill="black" stroke="black" points="328.16,-30.82 317.63,-29.65 325.13,-37.13 328.16,-30.82"/>
<text text-anchor="middle" x="441.5" y="-57.8" font-family="Times,serif" font-size="14.00">dep</text>
</g>
<!-- 5 -->
<g id="node6" class="node">
<title>5</title>
<ellipse fill="none" stroke="black" cx="369" cy="-18" rx="27" ry="18"/>
<text text-anchor="middle" x="369" y="-14.3" font-family="Times,serif" font-size="14.00">a</text>
</g>
<!-- 0&#45;&gt;5 -->
<g id="edge5" class="edge">
<title>0&#45;&gt;5</title>
<path fill="none" stroke="black" d="M1920.83,-104.27C1699.83,-105.23 811.93,-106.64 536,-69 476.51,-60.88 461.52,-56.25 405,-36 403.15,-35.34 401.26,-34.61 399.37,-33.84"/>
<polygon fill="black" stroke="black" points="400.6,-30.56 390.03,-29.77 397.8,-36.97 400.6,-30.56"/>
<text text-anchor="middle" x="549.5" y="-57.8" font-family="Times,serif" font-size="14.00">dep</text>
</g>
<!-- 6 -->
<g id="node7" class="node">
<title>6</title>
<ellipse fill="none" stroke="black" cx="467" cy="-18" rx="53.09" ry="18"/>
<text text-anchor="middle" x="467" y="-14.3" font-family="Times,serif" font-size="14.00">comissão</text>
</g>
<!-- 0&#45;&gt;6 -->
<g id="edge6" class="edge">
<title>0&#45;&gt;6</title>
<path fill="none" stroke="black" d="M1920.98,-103.49C1693.25,-101.07 759.92,-89.94 631,-69 588.93,-62.17 542.62,-47.34 509.97,-35.59"/>
<polygon fill="black" stroke="black" points="510.88,-32.2 500.29,-32.06 508.48,-38.78 510.88,-32.2"/>
<text text-anchor="middle" x="644.5" y="-57.8" font-family="Times,serif" font-size="14.00">dep</text>
</g>
<!-- 7 -->
<g id="node8" class="node">
<title>7</title>
<ellipse fill="none" stroke="black" cx="565" cy="-18" rx="27" ry="18"/>
<text text-anchor="middle" x="565" y="-14.3" font-family="Times,serif" font-size="14.00">de</text>
</g>
<!-- 0&#45;&gt;7 -->
<g id="edge7" class="edge">
<title>0&#45;&gt;7</title>
<path fill="none" stroke="black" d="M1920.76,-103.75C1721.67,-102.6 987.83,-96.52 757,-69 686.63,-60.61 668.16,-58.62 601,-36 599.08,-35.35 597.14,-34.64 595.19,-33.87"/>
<polygon fill="black" stroke="black" points="596.17,-30.48 585.6,-29.73 593.4,-36.91 596.17,-30.48"/>
<text text-anchor="middle" x="770.5" y="-57.8" font-family="Times,serif" font-size="14.00">dep</text>
</g>
<!-- 8 -->
<g id="node9" class="node">
<title>8</title>
<ellipse fill="none" stroke="black" cx="685" cy="-18" rx="75.29" ry="18"/>
<text text-anchor="middle" x="685" y="-14.3" font-family="Times,serif" font-size="14.00">trabalhadores</text>
</g>
<!-- 0&#45;&gt;8 -->
<g id="edge8" class="edge">
<title>0&#45;&gt;8</title>
<path fill="none" stroke="black" d="M1920.84,-104.14C1731.86,-104.42 1062.91,-102.94 853,-69 811.58,-62.3 766.04,-48.31 732.83,-36.83"/>
<polygon fill="black" stroke="black" points="733.97,-33.52 723.38,-33.51 731.65,-40.13 733.97,-33.52"/>
<text text-anchor="middle" x="866.5" y="-57.8" font-family="Times,serif" font-size="14.00">dep</text>
</g>
<!-- 9 -->
<g id="node10" class="node">
<title>9</title>
<ellipse fill="none" stroke="black" cx="805" cy="-18" rx="27" ry="18"/>
<text text-anchor="middle" x="805" y="-14.3" font-family="Times,serif" font-size="14.00">,</text>
</g>
<!-- 0&#45;&gt;9 -->
<g id="edge9" class="edge">
<title>0&#45;&gt;9</title>
<path fill="none" stroke="black" d="M1920.8,-104.32C1740.68,-105.13 1127.35,-105.13 935,-69 899.39,-62.31 860.92,-46.32 835.15,-34.21"/>
<polygon fill="black" stroke="black" points="836.45,-30.95 825.92,-29.78 833.42,-37.26 836.45,-30.95"/>
<text text-anchor="middle" x="948.5" y="-57.8" font-family="Times,serif" font-size="14.00">dep</text>
</g>
<!-- 10 -->
<g id="node11" class="node">
<title>10</title>
<ellipse fill="none" stroke="black" cx="889" cy="-18" rx="38.99" ry="18"/>
<text text-anchor="middle" x="889" y="-14.3" font-family="Times,serif" font-size="14.00">citado</text>
</g>
<!-- 0&#45;&gt;10 -->
<g id="edge10" class="edge">
<title>0&#45;&gt;10</title>
<path fill="none" stroke="black" d="M1920.83,-104.41C1749.8,-105.45 1190.43,-105.88 1015,-69 982.88,-62.25 948.35,-48.01 923.58,-36.45"/>
<polygon fill="black" stroke="black" points="924.79,-33.15 914.26,-32.01 921.78,-39.47 924.79,-33.15"/>
<text text-anchor="middle" x="1028.5" y="-57.8" font-family="Times,serif" font-size="14.00">dep</text>
</g>
<!-- 11 -->
<g id="node12" class="node">
<title>11</title>
<ellipse fill="none" stroke="black" cx="973" cy="-18" rx="27" ry="18"/>
<text text-anchor="middle" x="973" y="-14.3" font-family="Times,serif" font-size="14.00">por</text>
</g>
<!-- 0&#45;&gt;11 -->
<g id="edge11" class="edge">
<title>0&#45;&gt;11</title>
<path fill="none" stroke="black" d="M1920.76,-104.19C1758.95,-104.47 1252.74,-102.56 1093,-69 1060.58,-62.19 1025.89,-46.75 1002.19,-34.82"/>
<polygon fill="black" stroke="black" points="1003.55,-31.58 993.05,-30.12 1000.34,-37.81 1003.55,-31.58"/>
<text text-anchor="middle" x="1106.5" y="-57.8" font-family="Times,serif" font-size="14.00">dep</text>
</g>
<!-- 12 -->
<g id="node13" class="node">
<title>12</title>
<ellipse fill="none" stroke="black" cx="1045" cy="-18" rx="27" ry="18"/>
<text text-anchor="middle" x="1045" y="-14.3" font-family="Times,serif" font-size="14.00">a</text>
</g>
<!-- 0&#45;&gt;12 -->
<g id="edge12" class="edge">
<title>0&#45;&gt;12</title>
<path fill="none" stroke="black" d="M1921.03,-103.72C1769.85,-102.55 1318.88,-96.79 1175,-69 1139.42,-62.13 1100.95,-46.17 1075.16,-34.12"/>
<polygon fill="black" stroke="black" points="1076.47,-30.86 1065.94,-29.71 1073.45,-37.18 1076.47,-30.86"/>
<text text-anchor="middle" x="1188.5" y="-57.8" font-family="Times,serif" font-size="14.00">dep</text>
</g>
<!-- 13 -->
<g id="node14" class="node">
<title>13</title>
<ellipse fill="none" stroke="black" cx="1122" cy="-18" rx="32.49" ry="18"/>
<text text-anchor="middle" x="1122" y="-14.3" font-family="Times,serif" font-size="14.00">Lusa</text>
</g>
<!-- 0&#45;&gt;13 -->
<g id="edge13" class="edge">
<title>0&#45;&gt;13</title>
<path fill="none" stroke="black" d="M1920.98,-103.35C1780.95,-101.23 1386.94,-93.22 1260,-69 1223.22,-61.98 1183.19,-46.54 1155.76,-34.67"/>
<polygon fill="black" stroke="black" points="1156.82,-31.31 1146.26,-30.47 1154,-37.71 1156.82,-31.31"/>
<text text-anchor="middle" x="1273.5" y="-57.8" font-family="Times,serif" font-size="14.00">dep</text>
</g>
<!-- 14 -->
<g id="node15" class="node">
<title>14</title>
<ellipse fill="none" stroke="black" cx="1199" cy="-18" rx="27" ry="18"/>
<text text-anchor="middle" x="1199" y="-14.3" font-family="Times,serif" font-size="14.00">,</text>
</g>
<!-- 0&#45;&gt;14 -->
<g id="edge14" class="edge">
<title>0&#45;&gt;14</title>
<path fill="none" stroke="black" d="M1920.87,-104.29C1816.81,-104.19 1570.09,-100.32 1366,-69 1306.65,-59.89 1291.52,-56.25 1235,-36 1233.15,-35.34 1231.26,-34.61 1229.37,-33.84"/>
<polygon fill="black" stroke="black" points="1230.6,-30.56 1220.03,-29.77 1227.8,-36.97 1230.6,-30.56"/>
<text text-anchor="middle" x="1379.5" y="-57.8" font-family="Times,serif" font-size="14.00">dep</text>
</g>
<!-- 15 -->
<g id="node16" class="node">
<title>15</title>
<ellipse fill="none" stroke="black" cx="1298" cy="-18" rx="53.89" ry="18"/>
<text text-anchor="middle" x="1298" y="-14.3" font-family="Times,serif" font-size="14.00">defendeu</text>
</g>
<!-- 0&#45;&gt;15 -->
<g id="edge15" class="edge">
<title>0&#45;&gt;15</title>
<path fill="none" stroke="black" d="M1920.74,-104.7C1827.45,-105.09 1621.59,-101.73 1452,-69 1413.4,-61.55 1371.01,-47.32 1340.49,-35.93"/>
<polygon fill="black" stroke="black" points="1341.61,-32.62 1331.02,-32.35 1339.14,-39.16 1341.61,-32.62"/>
<text text-anchor="middle" x="1465.5" y="-57.8" font-family="Times,serif" font-size="14.00">dep</text>
</g>
<!-- 16 -->
<g id="node17" class="node">
<title>16</title>
<ellipse fill="none" stroke="black" cx="1398" cy="-18" rx="27.9" ry="18"/>
<text text-anchor="middle" x="1398" y="-14.3" font-family="Times,serif" font-size="14.00">que</text>
</g>
<!-- 0&#45;&gt;16 -->
<g id="edge16" class="edge">
<title>0&#45;&gt;16</title>
<path fill="none" stroke="black" d="M1920.93,-104.09C1838.68,-103.33 1670.17,-97.97 1531,-69 1494.87,-61.48 1455.54,-45.67 1429.09,-33.83"/>
<polygon fill="black" stroke="black" points="1430.51,-30.63 1419.96,-29.67 1427.61,-37 1430.51,-30.63"/>
<text text-anchor="middle" x="1544.5" y="-57.8" font-family="Times,serif" font-size="14.00">dep</text>
</g>
<!-- 17 -->
<g id="node18" class="node">
<title>17</title>
<ellipse fill="none" stroke="black" cx="1471" cy="-18" rx="27" ry="18"/>
<text text-anchor="middle" x="1471" y="-14.3" font-family="Times,serif" font-size="14.00">a</text>
</g>
<!-- 0&#45;&gt;17 -->
<g id="edge17" class="edge">
<title>0&#45;&gt;17</title>
<path fill="none" stroke="black" d="M1921.95,-101.38C1855.56,-97.29 1733.58,-87.81 1631,-69 1574.91,-58.71 1560.56,-55.59 1507,-36 1505.15,-35.32 1503.27,-34.59 1501.38,-33.81"/>
<polygon fill="black" stroke="black" points="1502.61,-30.53 1492.05,-29.72 1499.8,-36.94 1502.61,-30.53"/>
<text text-anchor="middle" x="1644.5" y="-57.8" font-family="Times,serif" font-size="14.00">dep</text>
</g>
<!-- 18 -->
<g id="node19" class="node">
<title>18</title>
<ellipse fill="none" stroke="black" cx="1564" cy="-18" rx="48.19" ry="18"/>
<text text-anchor="middle" x="1564" y="-14.3" font-family="Times,serif" font-size="14.00">redução</text>
</g>
<!-- 0&#45;&gt;18 -->
<g id="edge18" class="edge">
<title>0&#45;&gt;18</title>
<path fill="none" stroke="black" d="M1922.57,-100.31C1869.97,-95.65 1783.71,-86.09 1711,-69 1674.46,-60.41 1634.17,-46.37 1605.03,-35.35"/>
<polygon fill="black" stroke="black" points="1606.19,-32.05 1595.6,-31.74 1603.68,-38.59 1606.19,-32.05"/>
<text text-anchor="middle" x="1724.5" y="-57.8" font-family="Times,serif" font-size="14.00">dep</text>
</g>
<!-- 19 -->
<g id="node20" class="node">
<title>19</title>
<ellipse fill="none" stroke="black" cx="1657" cy="-18" rx="27" ry="18"/>
<text text-anchor="middle" x="1657" y="-14.3" font-family="Times,serif" font-size="14.00">de</text>
</g>
<!-- 0&#45;&gt;19 -->
<g id="edge19" class="edge">
<title>0&#45;&gt;19</title>
<path fill="none" stroke="black" d="M1926.29,-96.7C1890.3,-90.45 1838.55,-80.64 1794,-69 1748.31,-57.06 1736.88,-53.45 1693,-36 1691.17,-35.27 1689.3,-34.5 1687.42,-33.69"/>
<polygon fill="black" stroke="black" points="1688.68,-30.42 1678.13,-29.52 1685.82,-36.8 1688.68,-30.42"/>
<text text-anchor="middle" x="1807.5" y="-57.8" font-family="Times,serif" font-size="14.00">dep</text>
</g>
<!-- 20 -->
<g id="node21" class="node">
<title>20</title>
<ellipse fill="none" stroke="black" cx="1743" cy="-18" rx="40.89" ry="18"/>
<text text-anchor="middle" x="1743" y="-14.3" font-family="Times,serif" font-size="14.00">postos</text>
</g>
<!-- 0&#45;&gt;20 -->
<g id="edge20" class="edge">
<title>0&#45;&gt;20</title>
<path fill="none" stroke="black" d="M1933.54,-93.02C1912.13,-86.52 1884.87,-77.83 1861,-69 1833.43,-58.8 1802.89,-45.81 1779.78,-35.63"/>
<polygon fill="black" stroke="black" points="1780.93,-32.3 1770.37,-31.45 1778.09,-38.7 1780.93,-32.3"/>
<text text-anchor="middle" x="1874.5" y="-57.8" font-family="Times,serif" font-size="14.00">dep</text>
</g>
<!-- 21 -->
<g id="node22" class="node">
<title>21</title>
<ellipse fill="none" stroke="black" cx="1829" cy="-18" rx="27" ry="18"/>
<text text-anchor="middle" x="1829" y="-14.3" font-family="Times,serif" font-size="14.00">de</text>
</g>
<!-- 0&#45;&gt;21 -->
<g id="edge21" class="edge">
<title>0&#45;&gt;21</title>
<path fill="none" stroke="black" d="M1946.27,-89.19C1921.39,-74.3 1883.09,-51.38 1857.08,-35.81"/>
<polygon fill="black" stroke="black" points="1858.82,-32.77 1848.44,-30.64 1855.22,-38.77 1858.82,-32.77"/>
<text text-anchor="middle" x="1922.5" y="-57.8" font-family="Times,serif" font-size="14.00">dep</text>
</g>
<!-- 22 -->
<g id="node23" class="node">
<title>22</title>
<ellipse fill="none" stroke="black" cx="1924" cy="-18" rx="50.09" ry="18"/>
<text text-anchor="middle" x="1924" y="-14.3" font-family="Times,serif" font-size="14.00">trabalho</text>
</g>
<!-- 0&#45;&gt;22 -->
<g id="edge22" class="edge">
<title>0&#45;&gt;22</title>
<path fill="none" stroke="black" d="M1961.71,-87.21C1955.02,-75.1 1945.86,-58.53 1938.24,-44.76"/>
<polygon fill="black" stroke="black" points="1941.17,-42.82 1933.27,-35.76 1935.04,-46.2 1941.17,-42.82"/>
<text text-anchor="middle" x="1964.5" y="-57.8" font-family="Times,serif" font-size="14.00">dep</text>
</g>
<!-- 23 -->
<g id="node24" class="node">
<title>23</title>
<ellipse fill="none" stroke="black" cx="2019" cy="-18" rx="27" ry="18"/>
<text text-anchor="middle" x="2019" y="-14.3" font-family="Times,serif" font-size="14.00">em</text>
</g>
<!-- 0&#45;&gt;23 -->
<g id="edge23" class="edge">
<title>0&#45;&gt;23</title>
<path fill="none" stroke="black" d="M1980.48,-87.21C1987.41,-74.94 1996.92,-58.1 2004.76,-44.22"/>
<polygon fill="black" stroke="black" points="2007.99,-45.61 2009.86,-35.18 2001.9,-42.17 2007.99,-45.61"/>
<text text-anchor="middle" x="2011.5" y="-57.8" font-family="Times,serif" font-size="14.00">dep</text>
</g>
<!-- 24 -->
<g id="node25" class="node">
<title>24</title>
<ellipse fill="none" stroke="black" cx="2091" cy="-18" rx="27" ry="18"/>
<text text-anchor="middle" x="2091" y="-14.3" font-family="Times,serif" font-size="14.00">a</text>
</g>
<!-- 0&#45;&gt;24 -->
<g id="edge24" class="edge">
<title>0&#45;&gt;24</title>
<path fill="none" stroke="black" d="M1996.88,-89.4C2007.09,-83.38 2018.79,-76.15 2029,-69 2042.13,-59.81 2056.07,-48.7 2067.41,-39.28"/>
<polygon fill="black" stroke="black" points="2069.74,-41.89 2075.15,-32.78 2065.24,-36.53 2069.74,-41.89"/>
<text text-anchor="middle" x="2062.5" y="-57.8" font-family="Times,serif" font-size="14.00">dep</text>
</g>
<!-- 25 -->
<g id="node26" class="node">
<title>25</title>
<ellipse fill="none" stroke="black" cx="2183" cy="-18" rx="46.59" ry="18"/>
<text text-anchor="middle" x="2183" y="-14.3" font-family="Times,serif" font-size="14.00">Renault</text>
</g>
<!-- 0&#45;&gt;25 -->
<g id="edge25" class="edge">
<title>0&#45;&gt;25</title>
<path fill="none" stroke="black" d="M2009.05,-93.22C2030.2,-86.88 2056.85,-78.28 2080,-69 2103.09,-59.74 2128.23,-47.58 2147.89,-37.57"/>
<polygon fill="black" stroke="black" points="2149.49,-40.68 2156.79,-33 2146.29,-34.46 2149.49,-40.68"/>
<text text-anchor="middle" x="2125.5" y="-57.8" font-family="Times,serif" font-size="14.00">dep</text>
</g>
<!-- 26 -->
<g id="node27" class="node">
<title>26</title>
<ellipse fill="none" stroke="black" cx="2311" cy="-18" rx="63.89" ry="18"/>
<text text-anchor="middle" x="2311" y="-14.3" font-family="Times,serif" font-size="14.00">Portuguesa</text>
</g>
<!-- 0&#45;&gt;26 -->
<g id="edge26" class="edge">
<title>0&#45;&gt;26</title>
<path fill="none" stroke="black" d="M2014.71,-96.21C2049.62,-89.73 2099.69,-79.83 2143,-69 2183,-59 2227.71,-45.58 2260.95,-35.16"/>
<polygon fill="black" stroke="black" points="2262.4,-38.38 2270.88,-32.03 2260.29,-31.7 2262.4,-38.38"/>
<text text-anchor="middle" x="2208.5" y="-57.8" font-family="Times,serif" font-size="14.00">dep</text>
</g>
<!-- 27 -->
<g id="node28" class="node">
<title>27</title>
<ellipse fill="none" stroke="black" cx="2420" cy="-18" rx="27" ry="18"/>
<text text-anchor="middle" x="2420" y="-14.3" font-family="Times,serif" font-size="14.00">é</text>
</g>
<!-- 0&#45;&gt;27 -->
<g id="edge27" class="edge">
<title>0&#45;&gt;27</title>
<path fill="none" stroke="black" d="M2019.91,-101.02C2098.48,-95.13 2256.89,-78.62 2384,-36 2385.92,-35.36 2387.87,-34.64 2389.81,-33.87"/>
<polygon fill="black" stroke="black" points="2391.6,-36.91 2399.4,-29.74 2388.83,-30.48 2391.6,-36.91"/>
<text text-anchor="middle" x="2332.5" y="-57.8" font-family="Times,serif" font-size="14.00">dep</text>
</g>
<!-- 28 -->
<g id="node29" class="node">
<title>28</title>
<ellipse fill="none" stroke="black" cx="2497" cy="-18" rx="32.49" ry="18"/>
<text text-anchor="middle" x="2497" y="-14.3" font-family="Times,serif" font-size="14.00">mais</text>
</g>
<!-- 0&#45;&gt;28 -->
<g id="edge28" class="edge">
<title>0&#45;&gt;28</title>
<path fill="none" stroke="black" d="M2020.84,-102.72C2093.76,-100.1 2233.52,-92.24 2350,-69 2389.66,-61.09 2433.33,-45.27 2462.68,-33.54"/>
<polygon fill="black" stroke="black" points="2464.11,-36.74 2472.06,-29.73 2461.48,-30.25 2464.11,-36.74"/>
<text text-anchor="middle" x="2417.5" y="-57.8" font-family="Times,serif" font-size="14.00">dep</text>
</g>
<!-- 29 -->
<g id="node30" class="node">
<title>29</title>
<ellipse fill="none" stroke="black" cx="2614" cy="-18" rx="66.89" ry="18"/>
<text text-anchor="middle" x="2614" y="-14.3" font-family="Times,serif" font-size="14.00">significativa</text>
</g>
<!-- 0&#45;&gt;29 -->
<g id="edge29" class="edge">
<title>0&#45;&gt;29</title>
<path fill="none" stroke="black" d="M2021.18,-103.44C2106.73,-101.78 2286.01,-95.16 2435,-69 2479.59,-61.17 2529.07,-46.9 2564.69,-35.61"/>
<polygon fill="black" stroke="black" points="2565.9,-38.9 2574.35,-32.51 2563.76,-32.23 2565.9,-38.9"/>
<text text-anchor="middle" x="2513.5" y="-57.8" font-family="Times,serif" font-size="14.00">dep</text>
</g>
<!-- 30 -->
<g id="node31" class="node">
<title>30</title>
<ellipse fill="none" stroke="black" cx="2726" cy="-18" rx="27" ry="18"/>
<text text-anchor="middle" x="2726" y="-14.3" font-family="Times,serif" font-size="14.00">,</text>
</g>
<!-- 0&#45;&gt;30 -->
<g id="edge30" class="edge">
<title>0&#45;&gt;30</title>
<path fill="none" stroke="black" d="M2021.05,-103.26C2119.26,-101.27 2343.94,-94.13 2531,-69 2602.53,-59.39 2621.56,-58.9 2690,-36 2691.92,-35.36 2693.87,-34.64 2695.81,-33.87"/>
<polygon fill="black" stroke="black" points="2697.6,-36.92 2705.4,-29.75 2694.84,-30.49 2697.6,-36.92"/>
<text text-anchor="middle" x="2641.5" y="-57.8" font-family="Times,serif" font-size="14.00">dep</text>
</g>
<!-- 31 -->
<g id="node32" class="node">
<title>31</title>
<ellipse fill="none" stroke="black" cx="2798" cy="-18" rx="27" ry="18"/>
<text text-anchor="middle" x="2798" y="-14.3" font-family="Times,serif" font-size="14.00">a</text>
</g>
<!-- 0&#45;&gt;31 -->
<g id="edge31" class="edge">
<title>0&#45;&gt;31</title>
<path fill="none" stroke="black" d="M2021.09,-103.13C2158.02,-100.5 2536.49,-91.35 2659,-69 2706.29,-60.37 2717.28,-53.63 2762,-36 2763.83,-35.28 2765.7,-34.5 2767.58,-33.7"/>
<polygon fill="black" stroke="black" points="2769.19,-36.82 2776.88,-29.54 2766.33,-30.43 2769.19,-36.82"/>
<text text-anchor="middle" x="2730.5" y="-57.8" font-family="Times,serif" font-size="14.00">dep</text>
</g>
<!-- 32 -->
<g id="node33" class="node">
<title>32</title>
<ellipse fill="none" stroke="black" cx="2870" cy="-18" rx="27" ry="18"/>
<text text-anchor="middle" x="2870" y="-14.3" font-family="Times,serif" font-size="14.00">o</text>
</g>
<!-- 0&#45;&gt;32 -->
<g id="edge32" class="edge">
<title>0&#45;&gt;32</title>
<path fill="none" stroke="black" d="M2021.13,-103.84C2170.09,-103.02 2608.38,-98.13 2748,-69 2781.04,-62.11 2816.48,-46.57 2840.61,-34.63"/>
<polygon fill="black" stroke="black" points="2842.24,-37.73 2849.58,-30.1 2839.08,-31.48 2842.24,-37.73"/>
<text text-anchor="middle" x="2810.5" y="-57.8" font-family="Times,serif" font-size="14.00">dep</text>
</g>
<!-- 33 -->
<g id="node34" class="node">
<title>33</title>
<ellipse fill="none" stroke="black" cx="2942" cy="-18" rx="27" ry="18"/>
<text text-anchor="middle" x="2942" y="-14.3" font-family="Times,serif" font-size="14.00">ter</text>
</g>
<!-- 0&#45;&gt;33 -->
<g id="edge33" class="edge">
<title>0&#45;&gt;33</title>
<path fill="none" stroke="black" d="M2021.19,-104.3C2180.43,-104.89 2672.89,-103.77 2828,-69 2858.45,-62.17 2890.81,-47.15 2913.24,-35.34"/>
<polygon fill="black" stroke="black" points="2915.07,-38.33 2922.22,-30.51 2911.75,-32.16 2915.07,-38.33"/>
<text text-anchor="middle" x="2887.5" y="-57.8" font-family="Times,serif" font-size="14.00">dep</text>
</g>
<!-- 34 -->
<g id="node35" class="node">
<title>34</title>
<ellipse fill="none" stroke="black" cx="3035" cy="-18" rx="48.19" ry="18"/>
<text text-anchor="middle" x="3035" y="-14.3" font-family="Times,serif" font-size="14.00">passado</text>
</g>
<!-- 0&#45;&gt;34 -->
<g id="edge34" class="edge">
<title>0&#45;&gt;34</title>
<path fill="none" stroke="black" d="M2021.17,-104.29C2189.59,-104.92 2733.82,-104.11 2905,-69 2937.45,-62.34 2972.4,-48.49 2997.88,-37.05"/>
<polygon fill="black" stroke="black" points="2999.52,-40.15 3007.16,-32.81 2996.61,-33.79 2999.52,-40.15"/>
<text text-anchor="middle" x="2970.5" y="-57.8" font-family="Times,serif" font-size="14.00">dep</text>
</g>
<!-- 35 -->
<g id="node36" class="node">
<title>35</title>
<ellipse fill="none" stroke="black" cx="3128" cy="-18" rx="27" ry="18"/>
<text text-anchor="middle" x="3128" y="-14.3" font-family="Times,serif" font-size="14.00">de</text>
</g>
<!-- 0&#45;&gt;35 -->
<g id="edge35" class="edge">
<title>0&#45;&gt;35</title>
<path fill="none" stroke="black" d="M2021.16,-104.08C2199.02,-104.08 2799,-101.61 2988,-69 3035.79,-60.76 3046.86,-53.73 3092,-36 3093.83,-35.28 3095.71,-34.51 3097.58,-33.71"/>
<polygon fill="black" stroke="black" points="3099.19,-36.83 3106.89,-29.55 3096.33,-30.44 3099.19,-36.83"/>
<text text-anchor="middle" x="3060.5" y="-57.8" font-family="Times,serif" font-size="14.00">dep</text>
</g>
<!-- 36 -->
<g id="node37" class="node">
<title>36</title>
<ellipse fill="none" stroke="black" cx="3207" cy="-18" rx="34.39" ry="18"/>
<text text-anchor="middle" x="3207" y="-14.3" font-family="Times,serif" font-size="14.00">3500</text>
</g>
<!-- 0&#45;&gt;36 -->
<g id="edge36" class="edge">
<title>0&#45;&gt;36</title>
<path fill="none" stroke="black" d="M2020.89,-103.4C2222.83,-100.85 2973.74,-90.03 3078,-69 3111.82,-62.18 3148.3,-47.27 3173.81,-35.5"/>
<polygon fill="black" stroke="black" points="3175.47,-38.59 3183.02,-31.16 3172.48,-32.25 3175.47,-38.59"/>
<text text-anchor="middle" x="3142.5" y="-57.8" font-family="Times,serif" font-size="14.00">dep</text>
</g>
<!-- 37 -->
<g id="node38" class="node">
<title>37</title>
<ellipse fill="none" stroke="black" cx="3335" cy="-18" rx="75.29" ry="18"/>
<text text-anchor="middle" x="3335" y="-14.3" font-family="Times,serif" font-size="14.00">trabalhadores</text>
</g>
<!-- 0&#45;&gt;37 -->
<g id="edge37" class="edge">
<title>0&#45;&gt;37</title>
<path fill="none" stroke="black" d="M2021.27,-104.18C2217.94,-104.64 2935.39,-103.83 3160,-69 3203.2,-62.3 3250.81,-48.24 3285.46,-36.73"/>
<polygon fill="black" stroke="black" points="3286.96,-39.92 3295.32,-33.41 3284.73,-33.28 3286.96,-39.92"/>
<text text-anchor="middle" x="3242.5" y="-57.8" font-family="Times,serif" font-size="14.00">dep</text>
</g>
<!-- 38 -->
<g id="node39" class="node">
<title>38</title>
<ellipse fill="none" stroke="black" cx="3455" cy="-18" rx="27" ry="18"/>
<text text-anchor="middle" x="3455" y="-14.3" font-family="Times,serif" font-size="14.00">em</text>
</g>
<!-- 0&#45;&gt;38 -->
<g id="edge38" class="edge">
<title>0&#45;&gt;38</title>
<path fill="none" stroke="black" d="M2021.15,-103.83C2227.75,-102.94 3013.59,-97.69 3260,-69 3331.69,-60.65 3350.56,-58.9 3419,-36 3420.92,-35.36 3422.87,-34.64 3424.81,-33.87"/>
<polygon fill="black" stroke="black" points="3426.6,-36.92 3434.4,-29.75 3423.84,-30.49 3426.6,-36.92"/>
<text text-anchor="middle" x="3370.5" y="-57.8" font-family="Times,serif" font-size="14.00">dep</text>
</g>
<!-- 39 -->
<g id="node40" class="node">
<title>39</title>
<ellipse fill="none" stroke="black" cx="3534" cy="-18" rx="34.39" ry="18"/>
<text text-anchor="middle" x="3534" y="-14.3" font-family="Times,serif" font-size="14.00">1992</text>
</g>
<!-- 0&#45;&gt;39 -->
<g id="edge39" class="edge">
<title>0&#45;&gt;39</title>
<path fill="none" stroke="black" d="M2021.11,-103.61C2257.04,-101.65 3251.29,-92.1 3388,-69 3427.4,-62.34 3470.45,-46.47 3499.52,-34.38"/>
<polygon fill="black" stroke="black" points="3500.97,-37.57 3508.81,-30.45 3498.24,-31.12 3500.97,-37.57"/>
<text text-anchor="middle" x="3459.5" y="-57.8" font-family="Times,serif" font-size="14.00">dep</text>
</g>
<!-- 40 -->
<g id="node41" class="node">
<title>40</title>
<ellipse fill="none" stroke="black" cx="3618" cy="-18" rx="31.7" ry="18"/>
<text text-anchor="middle" x="3618" y="-14.3" font-family="Times,serif" font-size="14.00">para</text>
</g>
<!-- 0&#45;&gt;40 -->
<g id="edge40" class="edge">
<title>0&#45;&gt;40</title>
<path fill="none" stroke="black" d="M2020.98,-103.71C2265.63,-102.2 3331.15,-94.19 3477,-69 3515.23,-62.4 3556.86,-46.47 3584.9,-34.36"/>
<polygon fill="black" stroke="black" points="3586.48,-37.49 3594.22,-30.25 3583.66,-31.08 3586.48,-37.49"/>
<text text-anchor="middle" x="3546.5" y="-57.8" font-family="Times,serif" font-size="14.00">dep</text>
</g>
<!-- 41 -->
<g id="node42" class="node">
<title>41</title>
<ellipse fill="none" stroke="black" cx="3702" cy="-18" rx="34.39" ry="18"/>
<text text-anchor="middle" x="3702" y="-14.3" font-family="Times,serif" font-size="14.00">1200</text>
</g>
<!-- 0&#45;&gt;41 -->
<g id="edge41" class="edge">
<title>0&#45;&gt;41</title>
<path fill="none" stroke="black" d="M2021.33,-103.83C2275.22,-102.83 3409.41,-96.83 3564,-69 3600.79,-62.38 3640.73,-46.92 3668.13,-34.94"/>
<polygon fill="black" stroke="black" points="3669.57,-38.13 3677.28,-30.86 3666.72,-31.74 3669.57,-38.13"/>
<text text-anchor="middle" x="3632.5" y="-57.8" font-family="Times,serif" font-size="14.00">dep</text>
</g>
<!-- 42 -->
<g id="node43" class="node">
<title>42</title>
<ellipse fill="none" stroke="black" cx="3781" cy="-18" rx="27" ry="18"/>
<text text-anchor="middle" x="3781" y="-14.3" font-family="Times,serif" font-size="14.00">em</text>
</g>
<!-- 0&#45;&gt;42 -->
<g id="edge42" class="edge">
<title>0&#45;&gt;42</title>
<path fill="none" stroke="black" d="M2020.99,-103.89C2282.41,-103.18 3486.43,-98.36 3650,-69 3686.12,-62.52 3725.12,-46.33 3751.09,-34.12"/>
<polygon fill="black" stroke="black" points="3752.87,-37.15 3760.37,-29.66 3749.84,-30.84 3752.87,-37.15"/>
<text text-anchor="middle" x="3715.5" y="-57.8" font-family="Times,serif" font-size="14.00">dep</text>
</g>
<!-- 43 -->
<g id="node44" class="node">
<title>43</title>
<ellipse fill="none" stroke="black" cx="3860" cy="-18" rx="34.39" ry="18"/>
<text text-anchor="middle" x="3860" y="-14.3" font-family="Times,serif" font-size="14.00">1997</text>
</g>
<!-- 0&#45;&gt;43 -->
<g id="edge43" class="edge">
<title>0&#45;&gt;43</title>
<path fill="none" stroke="black" d="M2021.25,-104.06C2291.01,-104.24 3561.51,-103.25 3733,-69 3766.38,-62.33 3802.29,-47.41 3827.37,-35.59"/>
<polygon fill="black" stroke="black" points="3828.94,-38.72 3836.43,-31.23 3825.9,-32.41 3828.94,-38.72"/>
<text text-anchor="middle" x="3797.5" y="-57.8" font-family="Times,serif" font-size="14.00">dep</text>
</g>
<!-- 44 -->
<g id="node45" class="node">
<title>44</title>
<ellipse fill="none" stroke="black" cx="3939" cy="-18" rx="27" ry="18"/>
<text text-anchor="middle" x="3939" y="-14.3" font-family="Times,serif" font-size="14.00">.</text>
</g>
<!-- 0&#45;&gt;44 -->
<g id="edge44" class="edge">
<title>0&#45;&gt;44</title>
<path fill="none" stroke="black" d="M2021.29,-104.06C2298.56,-104.27 3634.75,-103.46 3815,-69 3848.81,-62.54 3885.07,-46.78 3909.58,-34.67"/>
<polygon fill="black" stroke="black" points="3911.35,-37.7 3918.69,-30.07 3908.19,-31.45 3911.35,-37.7"/>
<text text-anchor="middle" x="3878.5" y="-57.8" font-family="Times,serif" font-size="14.00">dep</text>
</g>
</g>
</svg>
