<?xml version="1.0" encoding="UTF-8" standalone="no"?>
<!DOCTYPE svg PUBLIC "-//W3C//DTD SVG 1.1//EN"
 "http://www.w3.org/Graphics/SVG/1.1/DTD/svg11.dtd">
<!-- Generated by graphviz version 2.42.4 (0)
 -->
<!-- Pages: 1 -->
<svg width="2747pt" height="131pt"
 viewBox="0.00 0.00 2747.05 131.00" xmlns="http://www.w3.org/2000/svg" xmlns:xlink="http://www.w3.org/1999/xlink">
<g id="graph0" class="graph" transform="scale(1 1) rotate(0) translate(4 127)">
<polygon fill="white" stroke="transparent" points="-4,4 -4,-127 2743.05,-127 2743.05,4 -4,4"/>
<!-- 0 -->
<g id="node1" class="node">
<title>0</title>
<ellipse fill="none" stroke="black" cx="1407.05" cy="-105" rx="27" ry="18"/>
<text text-anchor="middle" x="1407.05" y="-101.3" font-family="Times,serif" font-size="14.00">«</text>
</g>
<!-- 1 -->
<g id="node2" class="node">
<title>1</title>
<ellipse fill="none" stroke="black" cx="37.05" cy="-18" rx="37.09" ry="18"/>
<text text-anchor="middle" x="37.05" y="-14.3" font-family="Times,serif" font-size="14.00">Antes</text>
</g>
<!-- 0&#45;&gt;1 -->
<g id="edge1" class="edge">
<title>0&#45;&gt;1</title>
<path fill="none" stroke="black" d="M1379.88,-103.79C1209.23,-102.39 288.66,-93.72 166.05,-69 132.64,-62.26 96.64,-47.64 71.18,-35.93"/>
<polygon fill="black" stroke="black" points="72.51,-32.69 61.97,-31.62 69.54,-39.03 72.51,-32.69"/>
<text text-anchor="middle" x="179.55" y="-57.8" font-family="Times,serif" font-size="14.00">dep</text>
</g>
<!-- 2 -->
<g id="node3" class="node">
<title>2</title>
<ellipse fill="none" stroke="black" cx="119.05" cy="-18" rx="27" ry="18"/>
<text text-anchor="middle" x="119.05" y="-14.3" font-family="Times,serif" font-size="14.00">de</text>
</g>
<!-- 0&#45;&gt;2 -->
<g id="edge2" class="edge">
<title>0&#45;&gt;2</title>
<path fill="none" stroke="black" d="M1380.09,-103.69C1216.64,-101.76 361.55,-90.7 247.05,-69 211.92,-62.34 174.06,-46.35 148.7,-34.23"/>
<polygon fill="black" stroke="black" points="150.14,-31.04 139.62,-29.8 147.08,-37.33 150.14,-31.04"/>
<text text-anchor="middle" x="260.55" y="-57.8" font-family="Times,serif" font-size="14.00">dep</text>
</g>
<!-- 3 -->
<g id="node4" class="node">
<title>3</title>
<ellipse fill="none" stroke="black" cx="198.05" cy="-18" rx="34.39" ry="18"/>
<text text-anchor="middle" x="198.05" y="-14.3" font-family="Times,serif" font-size="14.00">1988</text>
</g>
<!-- 0&#45;&gt;3 -->
<g id="edge3" class="edge">
<title>0&#45;&gt;3</title>
<path fill="none" stroke="black" d="M1379.99,-103.65C1223.22,-101.54 434.84,-89.96 329.05,-69 294.74,-62.2 257.69,-47.29 231.77,-35.51"/>
<polygon fill="black" stroke="black" points="232.96,-32.2 222.42,-31.17 230.02,-38.55 232.96,-32.2"/>
<text text-anchor="middle" x="342.55" y="-57.8" font-family="Times,serif" font-size="14.00">dep</text>
</g>
<!-- 4 -->
<g id="node5" class="node">
<title>4</title>
<ellipse fill="none" stroke="black" cx="277.05" cy="-18" rx="27" ry="18"/>
<text text-anchor="middle" x="277.05" y="-14.3" font-family="Times,serif" font-size="14.00">,</text>
</g>
<!-- 0&#45;&gt;4 -->
<g id="edge4" class="edge">
<title>0&#45;&gt;4</title>
<path fill="none" stroke="black" d="M1379.71,-104.02C1240.6,-104 610.45,-102.02 418.05,-69 369.83,-60.73 358.6,-53.82 313.05,-36 311.21,-35.28 309.34,-34.51 307.46,-33.71"/>
<polygon fill="black" stroke="black" points="308.71,-30.44 298.16,-29.56 305.86,-36.83 308.71,-30.44"/>
<text text-anchor="middle" x="431.55" y="-57.8" font-family="Times,serif" font-size="14.00">dep</text>
</g>
<!-- 5 -->
<g id="node6" class="node">
<title>5</title>
<ellipse fill="none" stroke="black" cx="349.05" cy="-18" rx="27" ry="18"/>
<text text-anchor="middle" x="349.05" y="-14.3" font-family="Times,serif" font-size="14.00">a</text>
</g>
<!-- 0&#45;&gt;5 -->
<g id="edge5" class="edge">
<title>0&#45;&gt;5</title>
<path fill="none" stroke="black" d="M1379.71,-104.37C1273.45,-105.49 877.8,-106.74 555.05,-69 478.6,-60.06 458.19,-59.95 385.05,-36 383.13,-35.37 381.17,-34.66 379.22,-33.9"/>
<polygon fill="black" stroke="black" points="380.2,-30.51 369.63,-29.79 377.44,-36.95 380.2,-30.51"/>
<text text-anchor="middle" x="568.55" y="-57.8" font-family="Times,serif" font-size="14.00">dep</text>
</g>
<!-- 6 -->
<g id="node7" class="node">
<title>6</title>
<ellipse fill="none" stroke="black" cx="469.05" cy="-18" rx="74.99" ry="18"/>
<text text-anchor="middle" x="469.05" y="-14.3" font-family="Times,serif" font-size="14.00">contaminação</text>
</g>
<!-- 0&#45;&gt;6 -->
<g id="edge6" class="edge">
<title>0&#45;&gt;6</title>
<path fill="none" stroke="black" d="M1379.81,-103.55C1262.01,-101.47 795.74,-91.93 651.05,-69 605.93,-61.85 555.99,-47.66 519.85,-36.22"/>
<polygon fill="black" stroke="black" points="520.63,-32.79 510.04,-33.07 518.49,-39.46 520.63,-32.79"/>
<text text-anchor="middle" x="664.55" y="-57.8" font-family="Times,serif" font-size="14.00">dep</text>
</g>
<!-- 7 -->
<g id="node8" class="node">
<title>7</title>
<ellipse fill="none" stroke="black" cx="589.05" cy="-18" rx="27" ry="18"/>
<text text-anchor="middle" x="589.05" y="-14.3" font-family="Times,serif" font-size="14.00">era</text>
</g>
<!-- 0&#45;&gt;7 -->
<g id="edge7" class="edge">
<title>0&#45;&gt;7</title>
<path fill="none" stroke="black" d="M1379.93,-104.39C1290.42,-105.27 996.48,-105.04 757.05,-69 697.25,-60 681.99,-56.34 625.05,-36 623.19,-35.34 621.3,-34.61 619.41,-33.84"/>
<polygon fill="black" stroke="black" points="620.64,-30.56 610.08,-29.77 617.84,-36.98 620.64,-30.56"/>
<text text-anchor="middle" x="770.55" y="-57.8" font-family="Times,serif" font-size="14.00">dep</text>
</g>
<!-- 8 -->
<g id="node9" class="node">
<title>8</title>
<ellipse fill="none" stroke="black" cx="691.05" cy="-18" rx="57.39" ry="18"/>
<text text-anchor="middle" x="691.05" y="-14.3" font-family="Times,serif" font-size="14.00">imparável</text>
</g>
<!-- 0&#45;&gt;8 -->
<g id="edge8" class="edge">
<title>0&#45;&gt;8</title>
<path fill="none" stroke="black" d="M1380.01,-103.25C1282.22,-100.39 947.11,-89.29 842.05,-69 804.65,-61.78 763.73,-47.83 733.93,-36.49"/>
<polygon fill="black" stroke="black" points="734.86,-33.1 724.27,-32.76 732.33,-39.63 734.86,-33.1"/>
<text text-anchor="middle" x="855.55" y="-57.8" font-family="Times,serif" font-size="14.00">dep</text>
</g>
<!-- 9 -->
<g id="node10" class="node">
<title>9</title>
<ellipse fill="none" stroke="black" cx="793.05" cy="-18" rx="27" ry="18"/>
<text text-anchor="middle" x="793.05" y="-14.3" font-family="Times,serif" font-size="14.00">e</text>
</g>
<!-- 0&#45;&gt;9 -->
<g id="edge9" class="edge">
<title>0&#45;&gt;9</title>
<path fill="none" stroke="black" d="M1380.01,-103.07C1290.94,-99.86 1007.37,-88.34 918.05,-69 884.17,-61.66 847.59,-46.05 822.81,-34.2"/>
<polygon fill="black" stroke="black" points="824.12,-30.95 813.6,-29.72 821.06,-37.24 824.12,-30.95"/>
<text text-anchor="middle" x="931.55" y="-57.8" font-family="Times,serif" font-size="14.00">dep</text>
</g>
<!-- 10 -->
<g id="node11" class="node">
<title>10</title>
<ellipse fill="none" stroke="black" cx="865.05" cy="-18" rx="27" ry="18"/>
<text text-anchor="middle" x="865.05" y="-14.3" font-family="Times,serif" font-size="14.00">,</text>
</g>
<!-- 0&#45;&gt;10 -->
<g id="edge10" class="edge">
<title>0&#45;&gt;10</title>
<path fill="none" stroke="black" d="M1379.85,-103.97C1313.61,-103.42 1138.94,-98.97 997.05,-69 961.12,-61.41 922.02,-45.57 895.78,-33.75"/>
<polygon fill="black" stroke="black" points="896.93,-30.42 886.38,-29.43 894.01,-36.79 896.93,-30.42"/>
<text text-anchor="middle" x="1010.55" y="-57.8" font-family="Times,serif" font-size="14.00">dep</text>
</g>
<!-- 11 -->
<g id="node12" class="node">
<title>11</title>
<ellipse fill="none" stroke="black" cx="941.05" cy="-18" rx="30.59" ry="18"/>
<text text-anchor="middle" x="941.05" y="-14.3" font-family="Times,serif" font-size="14.00">hoje</text>
</g>
<!-- 0&#45;&gt;11 -->
<g id="edge11" class="edge">
<title>0&#45;&gt;11</title>
<path fill="none" stroke="black" d="M1379.85,-103.14C1323.12,-100.92 1188.27,-93.3 1078.05,-69 1041.49,-60.94 1001.47,-45.52 974.17,-33.92"/>
<polygon fill="black" stroke="black" points="975.29,-30.59 964.72,-29.84 972.51,-37.02 975.29,-30.59"/>
<text text-anchor="middle" x="1091.55" y="-57.8" font-family="Times,serif" font-size="14.00">dep</text>
</g>
<!-- 12 -->
<g id="node13" class="node">
<title>12</title>
<ellipse fill="none" stroke="black" cx="1017.05" cy="-18" rx="27" ry="18"/>
<text text-anchor="middle" x="1017.05" y="-14.3" font-family="Times,serif" font-size="14.00">,</text>
</g>
<!-- 0&#45;&gt;12 -->
<g id="edge12" class="edge">
<title>0&#45;&gt;12</title>
<path fill="none" stroke="black" d="M1380.02,-101.9C1319.67,-96.55 1170.03,-79.62 1053.05,-36 1051.2,-35.31 1049.32,-34.57 1047.43,-33.78"/>
<polygon fill="black" stroke="black" points="1048.67,-30.51 1038.11,-29.67 1045.85,-36.91 1048.67,-30.51"/>
<text text-anchor="middle" x="1171.55" y="-57.8" font-family="Times,serif" font-size="14.00">dep</text>
</g>
<!-- 13 -->
<g id="node14" class="node">
<title>13</title>
<ellipse fill="none" stroke="black" cx="1111.05" cy="-18" rx="49.29" ry="18"/>
<text text-anchor="middle" x="1111.05" y="-14.3" font-family="Times,serif" font-size="14.00">estamos</text>
</g>
<!-- 0&#45;&gt;13 -->
<g id="edge13" class="edge">
<title>0&#45;&gt;13</title>
<path fill="none" stroke="black" d="M1381.28,-99.49C1349.43,-93.66 1293.72,-82.62 1247.05,-69 1214.57,-59.53 1178.68,-46.21 1151.93,-35.7"/>
<polygon fill="black" stroke="black" points="1153.1,-32.4 1142.51,-31.97 1150.52,-38.9 1153.1,-32.4"/>
<text text-anchor="middle" x="1260.55" y="-57.8" font-family="Times,serif" font-size="14.00">dep</text>
</g>
<!-- 14 -->
<g id="node15" class="node">
<title>14</title>
<ellipse fill="none" stroke="black" cx="1205.05" cy="-18" rx="27" ry="18"/>
<text text-anchor="middle" x="1205.05" y="-14.3" font-family="Times,serif" font-size="14.00">a</text>
</g>
<!-- 0&#45;&gt;14 -->
<g id="edge14" class="edge">
<title>0&#45;&gt;14</title>
<path fill="none" stroke="black" d="M1383.28,-96.15C1363.49,-89.44 1334.66,-79.27 1310.05,-69 1284.36,-58.28 1255.88,-44.6 1235.07,-34.26"/>
<polygon fill="black" stroke="black" points="1236.6,-31.11 1226.09,-29.77 1233.47,-37.37 1236.6,-31.11"/>
<text text-anchor="middle" x="1323.55" y="-57.8" font-family="Times,serif" font-size="14.00">dep</text>
</g>
<!-- 15 -->
<g id="node16" class="node">
<title>15</title>
<ellipse fill="none" stroke="black" cx="1288.05" cy="-18" rx="38.19" ry="18"/>
<text text-anchor="middle" x="1288.05" y="-14.3" font-family="Times,serif" font-size="14.00">tomar</text>
</g>
<!-- 0&#45;&gt;15 -->
<g id="edge15" class="edge">
<title>0&#45;&gt;15</title>
<path fill="none" stroke="black" d="M1389.23,-91.27C1370.03,-77.56 1339.19,-55.53 1316.59,-39.39"/>
<polygon fill="black" stroke="black" points="1318.55,-36.49 1308.38,-33.52 1314.48,-42.18 1318.55,-36.49"/>
<text text-anchor="middle" x="1368.55" y="-57.8" font-family="Times,serif" font-size="14.00">dep</text>
</g>
<!-- 16 -->
<g id="node17" class="node">
<title>16</title>
<ellipse fill="none" stroke="black" cx="1407.05" cy="-18" rx="63.09" ry="18"/>
<text text-anchor="middle" x="1407.05" y="-14.3" font-family="Times,serif" font-size="14.00">precauções</text>
</g>
<!-- 0&#45;&gt;16 -->
<g id="edge16" class="edge">
<title>0&#45;&gt;16</title>
<path fill="none" stroke="black" d="M1407.05,-86.8C1407.05,-75.16 1407.05,-59.55 1407.05,-46.24"/>
<polygon fill="black" stroke="black" points="1410.55,-46.18 1407.05,-36.18 1403.55,-46.18 1410.55,-46.18"/>
<text text-anchor="middle" x="1420.55" y="-57.8" font-family="Times,serif" font-size="14.00">dep</text>
</g>
<!-- 17 -->
<g id="node18" class="node">
<title>17</title>
<ellipse fill="none" stroke="black" cx="1548.05" cy="-18" rx="59.59" ry="18"/>
<text text-anchor="middle" x="1548.05" y="-14.3" font-family="Times,serif" font-size="14.00">excessivas</text>
</g>
<!-- 0&#45;&gt;17 -->
<g id="edge17" class="edge">
<title>0&#45;&gt;17</title>
<path fill="none" stroke="black" d="M1426.36,-92.36C1448.79,-78.84 1486.21,-56.28 1513.65,-39.74"/>
<polygon fill="black" stroke="black" points="1515.78,-42.54 1522.54,-34.38 1512.16,-36.54 1515.78,-42.54"/>
<text text-anchor="middle" x="1499.55" y="-57.8" font-family="Times,serif" font-size="14.00">dep</text>
</g>
<!-- 18 -->
<g id="node19" class="node">
<title>18</title>
<ellipse fill="none" stroke="black" cx="1653.05" cy="-18" rx="27" ry="18"/>
<text text-anchor="middle" x="1653.05" y="-14.3" font-family="Times,serif" font-size="14.00">em</text>
</g>
<!-- 0&#45;&gt;18 -->
<g id="edge18" class="edge">
<title>0&#45;&gt;18</title>
<path fill="none" stroke="black" d="M1431.67,-97.19C1471.29,-85.97 1551.39,-62.22 1617.05,-36 1618.88,-35.27 1620.74,-34.49 1622.62,-33.68"/>
<polygon fill="black" stroke="black" points="1624.23,-36.8 1631.92,-29.51 1621.36,-30.41 1624.23,-36.8"/>
<text text-anchor="middle" x="1579.55" y="-57.8" font-family="Times,serif" font-size="14.00">dep</text>
</g>
<!-- 19 -->
<g id="node20" class="node">
<title>19</title>
<ellipse fill="none" stroke="black" cx="1729.05" cy="-18" rx="30.59" ry="18"/>
<text text-anchor="middle" x="1729.05" y="-14.3" font-family="Times,serif" font-size="14.00">uma</text>
</g>
<!-- 0&#45;&gt;19 -->
<g id="edge19" class="edge">
<title>0&#45;&gt;19</title>
<path fill="none" stroke="black" d="M1433.47,-100.52C1470.45,-95.33 1539.56,-84.49 1597.05,-69 1638.99,-57.69 1648.6,-51.84 1689.05,-36 1691.24,-35.14 1693.49,-34.24 1695.76,-33.32"/>
<polygon fill="black" stroke="black" points="1697.13,-36.54 1705.03,-29.47 1694.45,-30.07 1697.13,-36.54"/>
<text text-anchor="middle" x="1657.55" y="-57.8" font-family="Times,serif" font-size="14.00">dep</text>
</g>
<!-- 20 -->
<g id="node21" class="node">
<title>20</title>
<ellipse fill="none" stroke="black" cx="1816.05" cy="-18" rx="38.19" ry="18"/>
<text text-anchor="middle" x="1816.05" y="-14.3" font-family="Times,serif" font-size="14.00">altura</text>
</g>
<!-- 0&#45;&gt;20 -->
<g id="edge20" class="edge">
<title>0&#45;&gt;20</title>
<path fill="none" stroke="black" d="M1434.01,-102.34C1482.7,-98.93 1588.32,-89.65 1675.05,-69 1718.12,-58.74 1727.34,-50.86 1769.05,-36 1771.73,-35.04 1774.5,-34.05 1777.28,-33.05"/>
<polygon fill="black" stroke="black" points="1778.51,-36.33 1786.73,-29.65 1776.13,-29.75 1778.51,-36.33"/>
<text text-anchor="middle" x="1736.55" y="-57.8" font-family="Times,serif" font-size="14.00">dep</text>
</g>
<!-- 21 -->
<g id="node22" class="node">
<title>21</title>
<ellipse fill="none" stroke="black" cx="1899.05" cy="-18" rx="27" ry="18"/>
<text text-anchor="middle" x="1899.05" y="-14.3" font-family="Times,serif" font-size="14.00">em</text>
</g>
<!-- 0&#45;&gt;21 -->
<g id="edge21" class="edge">
<title>0&#45;&gt;21</title>
<path fill="none" stroke="black" d="M1434.31,-103.04C1493.2,-100.58 1636.48,-92.49 1754.05,-69 1803.68,-59.08 1815.81,-54.19 1863.05,-36 1864.88,-35.29 1866.76,-34.53 1868.64,-33.74"/>
<polygon fill="black" stroke="black" points="1870.24,-36.86 1877.95,-29.59 1867.39,-30.46 1870.24,-36.86"/>
<text text-anchor="middle" x="1827.55" y="-57.8" font-family="Times,serif" font-size="14.00">dep</text>
</g>
<!-- 22 -->
<g id="node23" class="node">
<title>22</title>
<ellipse fill="none" stroke="black" cx="1972.05" cy="-18" rx="27.9" ry="18"/>
<text text-anchor="middle" x="1972.05" y="-14.3" font-family="Times,serif" font-size="14.00">que</text>
</g>
<!-- 0&#45;&gt;22 -->
<g id="edge22" class="edge">
<title>0&#45;&gt;22</title>
<path fill="none" stroke="black" d="M1434.08,-104.37C1503.31,-104.77 1692.28,-102.45 1845.05,-69 1879.32,-61.49 1916.44,-45.94 1941.64,-34.16"/>
<polygon fill="black" stroke="black" points="1943.16,-37.32 1950.69,-29.86 1940.15,-31 1943.16,-37.32"/>
<text text-anchor="middle" x="1905.55" y="-57.8" font-family="Times,serif" font-size="14.00">dep</text>
</g>
<!-- 23 -->
<g id="node24" class="node">
<title>23</title>
<ellipse fill="none" stroke="black" cx="2045.05" cy="-18" rx="27" ry="18"/>
<text text-anchor="middle" x="2045.05" y="-14.3" font-family="Times,serif" font-size="14.00">o</text>
</g>
<!-- 0&#45;&gt;23 -->
<g id="edge23" class="edge">
<title>0&#45;&gt;23</title>
<path fill="none" stroke="black" d="M1433.97,-103.23C1526.11,-100.44 1828.35,-89.88 1923.05,-69 1956,-61.73 1991.46,-46.25 2015.61,-34.43"/>
<polygon fill="black" stroke="black" points="2017.22,-37.54 2024.6,-29.94 2014.09,-31.28 2017.22,-37.54"/>
<text text-anchor="middle" x="1981.55" y="-57.8" font-family="Times,serif" font-size="14.00">dep</text>
</g>
<!-- 24 -->
<g id="node25" class="node">
<title>24</title>
<ellipse fill="none" stroke="black" cx="2123.05" cy="-18" rx="33.29" ry="18"/>
<text text-anchor="middle" x="2123.05" y="-14.3" font-family="Times,serif" font-size="14.00">risco</text>
</g>
<!-- 0&#45;&gt;24 -->
<g id="edge24" class="edge">
<title>0&#45;&gt;24</title>
<path fill="none" stroke="black" d="M1434.02,-103.56C1534.82,-101.73 1889.17,-93.67 1999.05,-69 2031.24,-61.77 2065.91,-47.16 2090.38,-35.59"/>
<polygon fill="black" stroke="black" points="2092.07,-38.66 2099.56,-31.16 2089.03,-32.35 2092.07,-38.66"/>
<text text-anchor="middle" x="2058.55" y="-57.8" font-family="Times,serif" font-size="14.00">dep</text>
</g>
<!-- 25 -->
<g id="node26" class="node">
<title>25</title>
<ellipse fill="none" stroke="black" cx="2201.05" cy="-18" rx="27" ry="18"/>
<text text-anchor="middle" x="2201.05" y="-14.3" font-family="Times,serif" font-size="14.00">já</text>
</g>
<!-- 0&#45;&gt;25 -->
<g id="edge25" class="edge">
<title>0&#45;&gt;25</title>
<path fill="none" stroke="black" d="M1434.08,-103.67C1543.06,-102.19 1950.19,-94.99 2076.05,-69 2110,-61.99 2146.56,-46.32 2171.32,-34.38"/>
<polygon fill="black" stroke="black" points="2173.1,-37.4 2180.52,-29.85 2170,-31.12 2173.1,-37.4"/>
<text text-anchor="middle" x="2139.55" y="-57.8" font-family="Times,serif" font-size="14.00">dep</text>
</g>
<!-- 26 -->
<g id="node27" class="node">
<title>26</title>
<ellipse fill="none" stroke="black" cx="2273.05" cy="-18" rx="27" ry="18"/>
<text text-anchor="middle" x="2273.05" y="-14.3" font-family="Times,serif" font-size="14.00">é</text>
</g>
<!-- 0&#45;&gt;26 -->
<g id="edge26" class="edge">
<title>0&#45;&gt;26</title>
<path fill="none" stroke="black" d="M1434.15,-103.98C1551.37,-103.7 2015.18,-100.57 2157.05,-69 2187.95,-62.12 2220.89,-47.1 2243.74,-35.31"/>
<polygon fill="black" stroke="black" points="2245.67,-38.25 2252.88,-30.48 2242.41,-32.05 2245.67,-38.25"/>
<text text-anchor="middle" x="2217.55" y="-57.8" font-family="Times,serif" font-size="14.00">dep</text>
</g>
<!-- 27 -->
<g id="node28" class="node">
<title>27</title>
<ellipse fill="none" stroke="black" cx="2356.05" cy="-18" rx="37.89" ry="18"/>
<text text-anchor="middle" x="2356.05" y="-14.3" font-family="Times,serif" font-size="14.00">muito</text>
</g>
<!-- 0&#45;&gt;27 -->
<g id="edge27" class="edge">
<title>0&#45;&gt;27</title>
<path fill="none" stroke="black" d="M1434.41,-104.12C1559.46,-104.48 2077.33,-103.78 2235.05,-69 2265.87,-62.2 2298.86,-48.07 2322.59,-36.55"/>
<polygon fill="black" stroke="black" points="2324.44,-39.55 2331.85,-31.97 2321.33,-33.27 2324.44,-39.55"/>
<text text-anchor="middle" x="2293.55" y="-57.8" font-family="Times,serif" font-size="14.00">dep</text>
</g>
<!-- 28 -->
<g id="node29" class="node">
<title>28</title>
<ellipse fill="none" stroke="black" cx="2444.05" cy="-18" rx="32.49" ry="18"/>
<text text-anchor="middle" x="2444.05" y="-14.3" font-family="Times,serif" font-size="14.00">mais</text>
</g>
<!-- 0&#45;&gt;28 -->
<g id="edge28" class="edge">
<title>0&#45;&gt;28</title>
<path fill="none" stroke="black" d="M1434.2,-104.06C1565.67,-104.2 2136.81,-102.79 2311.05,-69 2346.42,-62.14 2384.72,-46.83 2411.1,-34.95"/>
<polygon fill="black" stroke="black" points="2412.62,-38.1 2420.25,-30.75 2409.7,-31.74 2412.62,-38.1"/>
<text text-anchor="middle" x="2377.55" y="-57.8" font-family="Times,serif" font-size="14.00">dep</text>
</g>
<!-- 29 -->
<g id="node30" class="node">
<title>29</title>
<ellipse fill="none" stroke="black" cx="2545.05" cy="-18" rx="50.09" ry="18"/>
<text text-anchor="middle" x="2545.05" y="-14.3" font-family="Times,serif" font-size="14.00">pequeno</text>
</g>
<!-- 0&#45;&gt;29 -->
<g id="edge29" class="edge">
<title>0&#45;&gt;29</title>
<path fill="none" stroke="black" d="M1434.37,-104.09C1573.39,-104.36 2203.13,-103.64 2395.05,-69 2433.15,-62.12 2474.8,-47.64 2504.53,-36.03"/>
<polygon fill="black" stroke="black" points="2506.13,-39.16 2514.13,-32.21 2503.54,-32.65 2506.13,-39.16"/>
<text text-anchor="middle" x="2463.55" y="-57.8" font-family="Times,serif" font-size="14.00">dep</text>
</g>
<!-- 30 -->
<g id="node31" class="node">
<title>30</title>
<ellipse fill="none" stroke="black" cx="2640.05" cy="-18" rx="27" ry="18"/>
<text text-anchor="middle" x="2640.05" y="-14.3" font-family="Times,serif" font-size="14.00">»</text>
</g>
<!-- 0&#45;&gt;30 -->
<g id="edge30" class="edge">
<title>0&#45;&gt;30</title>
<path fill="none" stroke="black" d="M1434.27,-103.96C1580.1,-103.61 2270.21,-100.29 2481.05,-69 2537.03,-60.69 2550.91,-55.5 2604.05,-36 2605.9,-35.32 2607.78,-34.58 2609.67,-33.81"/>
<polygon fill="black" stroke="black" points="2611.25,-36.94 2619,-29.71 2608.43,-30.53 2611.25,-36.94"/>
<text text-anchor="middle" x="2565.55" y="-57.8" font-family="Times,serif" font-size="14.00">dep</text>
</g>
<!-- 31 -->
<g id="node32" class="node">
<title>31</title>
<ellipse fill="none" stroke="black" cx="2712.05" cy="-18" rx="27" ry="18"/>
<text text-anchor="middle" x="2712.05" y="-14.3" font-family="Times,serif" font-size="14.00">.</text>
</g>
<!-- 0&#45;&gt;31 -->
<g id="edge31" class="edge">
<title>0&#45;&gt;31</title>
<path fill="none" stroke="black" d="M1434.11,-103.7C1599.13,-101.79 2466.86,-90.79 2583.05,-69 2618.42,-62.37 2656.59,-46.37 2682.15,-34.24"/>
<polygon fill="black" stroke="black" points="2683.83,-37.32 2691.3,-29.81 2680.78,-31.02 2683.83,-37.32"/>
<text text-anchor="middle" x="2647.55" y="-57.8" font-family="Times,serif" font-size="14.00">dep</text>
</g>
</g>
</svg>
