<?xml version="1.0" encoding="UTF-8" standalone="no"?>
<!DOCTYPE svg PUBLIC "-//W3C//DTD SVG 1.1//EN"
 "http://www.w3.org/Graphics/SVG/1.1/DTD/svg11.dtd">
<!-- Generated by graphviz version 2.42.4 (0)
 -->
<!-- Pages: 1 -->
<svg width="687pt" height="131pt"
 viewBox="0.00 0.00 686.55 131.00" xmlns="http://www.w3.org/2000/svg" xmlns:xlink="http://www.w3.org/1999/xlink">
<g id="graph0" class="graph" transform="scale(1 1) rotate(0) translate(4 127)">
<polygon fill="white" stroke="transparent" points="-4,4 -4,-127 682.55,-127 682.55,4 -4,4"/>
<!-- 0 -->
<g id="node1" class="node">
<title>0</title>
<ellipse fill="none" stroke="black" cx="362.55" cy="-105" rx="62.29" ry="18"/>
<text text-anchor="middle" x="362.55" y="-101.3" font-family="Times,serif" font-size="14.00">Esperamos</text>
</g>
<!-- 1 -->
<g id="node2" class="node">
<title>1</title>
<ellipse fill="none" stroke="black" cx="30.55" cy="-18" rx="30.59" ry="18"/>
<text text-anchor="middle" x="30.55" y="-14.3" font-family="Times,serif" font-size="14.00">uma</text>
</g>
<!-- 0&#45;&gt;1 -->
<g id="edge1" class="edge">
<title>0&#45;&gt;1</title>
<path fill="none" stroke="black" d="M309.38,-95.42C249.87,-84.97 151.09,-65.02 69.55,-36 67.46,-35.26 65.32,-34.45 63.17,-33.61"/>
<polygon fill="black" stroke="black" points="64.43,-30.34 53.85,-29.78 61.77,-36.82 64.43,-30.34"/>
<text text-anchor="middle" x="194.05" y="-57.8" font-family="Times,serif" font-size="14.00">dep</text>
</g>
<!-- 2 -->
<g id="node3" class="node">
<title>2</title>
<ellipse fill="none" stroke="black" cx="131.55" cy="-18" rx="52.79" ry="18"/>
<text text-anchor="middle" x="131.55" y="-14.3" font-family="Times,serif" font-size="14.00">mudança</text>
</g>
<!-- 0&#45;&gt;2 -->
<g id="edge2" class="edge">
<title>0&#45;&gt;2</title>
<path fill="none" stroke="black" d="M321.68,-91.34C301.64,-84.96 277.21,-76.9 255.55,-69 227.66,-58.83 196.69,-46.34 172.68,-36.39"/>
<polygon fill="black" stroke="black" points="173.75,-33.05 163.18,-32.44 171.06,-39.51 173.75,-33.05"/>
<text text-anchor="middle" x="269.05" y="-57.8" font-family="Times,serif" font-size="14.00">dep</text>
</g>
<!-- 3 -->
<g id="node4" class="node">
<title>3</title>
<ellipse fill="none" stroke="black" cx="229.55" cy="-18" rx="27" ry="18"/>
<text text-anchor="middle" x="229.55" y="-14.3" font-family="Times,serif" font-size="14.00">de</text>
</g>
<!-- 0&#45;&gt;3 -->
<g id="edge3" class="edge">
<title>0&#45;&gt;3</title>
<path fill="none" stroke="black" d="M337.9,-88.34C328.4,-82.3 317.47,-75.34 307.55,-69 290.82,-58.32 272.1,-46.32 257.19,-36.75"/>
<polygon fill="black" stroke="black" points="258.76,-33.6 248.45,-31.14 254.98,-39.49 258.76,-33.6"/>
<text text-anchor="middle" x="321.05" y="-57.8" font-family="Times,serif" font-size="14.00">dep</text>
</g>
<!-- 4 -->
<g id="node5" class="node">
<title>4</title>
<ellipse fill="none" stroke="black" cx="318.55" cy="-18" rx="44.39" ry="18"/>
<text text-anchor="middle" x="318.55" y="-14.3" font-family="Times,serif" font-size="14.00">atitude</text>
</g>
<!-- 0&#45;&gt;4 -->
<g id="edge4" class="edge">
<title>0&#45;&gt;4</title>
<path fill="none" stroke="black" d="M353.64,-86.8C347.4,-74.74 338.94,-58.4 331.9,-44.79"/>
<polygon fill="black" stroke="black" points="334.99,-43.16 327.29,-35.89 328.78,-46.38 334.99,-43.16"/>
<text text-anchor="middle" x="357.05" y="-57.8" font-family="Times,serif" font-size="14.00">dep</text>
</g>
<!-- 5 -->
<g id="node6" class="node">
<title>5</title>
<ellipse fill="none" stroke="black" cx="407.55" cy="-18" rx="27" ry="18"/>
<text text-anchor="middle" x="407.55" y="-14.3" font-family="Times,serif" font-size="14.00">de</text>
</g>
<!-- 0&#45;&gt;5 -->
<g id="edge5" class="edge">
<title>0&#45;&gt;5</title>
<path fill="none" stroke="black" d="M371.65,-86.8C378.12,-74.58 386.91,-57.98 394.18,-44.26"/>
<polygon fill="black" stroke="black" points="397.33,-45.79 398.91,-35.31 391.14,-42.51 397.33,-45.79"/>
<text text-anchor="middle" x="402.05" y="-57.8" font-family="Times,serif" font-size="14.00">dep</text>
</g>
<!-- 6 -->
<g id="node7" class="node">
<title>6</title>
<ellipse fill="none" stroke="black" cx="479.55" cy="-18" rx="27" ry="18"/>
<text text-anchor="middle" x="479.55" y="-14.3" font-family="Times,serif" font-size="14.00">a</text>
</g>
<!-- 0&#45;&gt;6 -->
<g id="edge6" class="edge">
<title>0&#45;&gt;6</title>
<path fill="none" stroke="black" d="M389.45,-88.57C399.14,-82.73 410.02,-75.84 419.55,-69 432.1,-59.99 445.36,-49.09 456.22,-39.78"/>
<polygon fill="black" stroke="black" points="458.75,-42.22 464,-33.02 454.16,-36.93 458.75,-42.22"/>
<text text-anchor="middle" x="452.05" y="-57.8" font-family="Times,serif" font-size="14.00">dep</text>
</g>
<!-- 7 -->
<g id="node8" class="node">
<title>7</title>
<ellipse fill="none" stroke="black" cx="565.55" cy="-18" rx="40.89" ry="18"/>
<text text-anchor="middle" x="565.55" y="-14.3" font-family="Times,serif" font-size="14.00">polícia</text>
</g>
<!-- 0&#45;&gt;7 -->
<g id="edge7" class="edge">
<title>0&#45;&gt;7</title>
<path fill="none" stroke="black" d="M405.31,-91.77C425.13,-85.66 448.83,-77.71 469.55,-69 491.18,-59.9 514.56,-47.78 532.82,-37.75"/>
<polygon fill="black" stroke="black" points="534.57,-40.78 541.61,-32.87 531.17,-34.66 534.57,-40.78"/>
<text text-anchor="middle" x="513.05" y="-57.8" font-family="Times,serif" font-size="14.00">dep</text>
</g>
<!-- 8 -->
<g id="node9" class="node">
<title>8</title>
<ellipse fill="none" stroke="black" cx="651.55" cy="-18" rx="27" ry="18"/>
<text text-anchor="middle" x="651.55" y="-14.3" font-family="Times,serif" font-size="14.00">.</text>
</g>
<!-- 0&#45;&gt;8 -->
<g id="edge8" class="edge">
<title>0&#45;&gt;8</title>
<path fill="none" stroke="black" d="M415.32,-95.32C448.69,-89.26 492.55,-80.25 530.55,-69 569.4,-57.49 578.31,-52 615.55,-36 617.36,-35.22 619.21,-34.41 621.07,-33.57"/>
<polygon fill="black" stroke="black" points="622.71,-36.67 630.34,-29.32 619.79,-30.31 622.71,-36.67"/>
<text text-anchor="middle" x="588.05" y="-57.8" font-family="Times,serif" font-size="14.00">dep</text>
</g>
</g>
</svg>
