<?xml version="1.0" encoding="UTF-8" standalone="no"?>
<!DOCTYPE svg PUBLIC "-//W3C//DTD SVG 1.1//EN"
 "http://www.w3.org/Graphics/SVG/1.1/DTD/svg11.dtd">
<!-- Generated by graphviz version 2.42.4 (0)
 -->
<!-- Pages: 1 -->
<svg width="702pt" height="131pt"
 viewBox="0.00 0.00 702.15 131.00" xmlns="http://www.w3.org/2000/svg" xmlns:xlink="http://www.w3.org/1999/xlink">
<g id="graph0" class="graph" transform="scale(1 1) rotate(0) translate(4 127)">
<polygon fill="white" stroke="transparent" points="-4,4 -4,-127 698.15,-127 698.15,4 -4,4"/>
<!-- 0 -->
<g id="node1" class="node">
<title>0</title>
<ellipse fill="none" stroke="black" cx="341" cy="-105" rx="27.1" ry="18"/>
<text text-anchor="middle" x="341" y="-101.3" font-family="Times,serif" font-size="14.00">Um</text>
</g>
<!-- 1 -->
<g id="node2" class="node">
<title>1</title>
<ellipse fill="none" stroke="black" cx="27" cy="-18" rx="27" ry="18"/>
<text text-anchor="middle" x="27" y="-14.3" font-family="Times,serif" font-size="14.00">«</text>
</g>
<!-- 0&#45;&gt;1 -->
<g id="edge1" class="edge">
<title>0&#45;&gt;1</title>
<path fill="none" stroke="black" d="M314.53,-99.86C279.55,-94.14 216.16,-82.94 163,-69 117.73,-57.13 106.46,-53.36 63,-36 61.17,-35.27 59.3,-34.49 57.43,-33.68"/>
<polygon fill="black" stroke="black" points="58.69,-30.41 48.13,-29.51 55.82,-36.8 58.69,-30.41"/>
<text text-anchor="middle" x="176.5" y="-57.8" font-family="Times,serif" font-size="14.00">dep</text>
</g>
<!-- 2 -->
<g id="node3" class="node">
<title>2</title>
<ellipse fill="none" stroke="black" cx="112" cy="-18" rx="40.09" ry="18"/>
<text text-anchor="middle" x="112" y="-14.3" font-family="Times,serif" font-size="14.00">tempo</text>
</g>
<!-- 0&#45;&gt;2 -->
<g id="edge2" class="edge">
<title>0&#45;&gt;2</title>
<path fill="none" stroke="black" d="M316.52,-97.01C293.88,-90.38 259.39,-79.83 230,-69 202.42,-58.83 171.87,-45.84 148.77,-35.65"/>
<polygon fill="black" stroke="black" points="149.92,-32.33 139.36,-31.47 147.08,-38.73 149.92,-32.33"/>
<text text-anchor="middle" x="243.5" y="-57.8" font-family="Times,serif" font-size="14.00">dep</text>
</g>
<!-- 3 -->
<g id="node4" class="node">
<title>3</title>
<ellipse fill="none" stroke="black" cx="197" cy="-18" rx="27" ry="18"/>
<text text-anchor="middle" x="197" y="-14.3" font-family="Times,serif" font-size="14.00">de</text>
</g>
<!-- 0&#45;&gt;3 -->
<g id="edge3" class="edge">
<title>0&#45;&gt;3</title>
<path fill="none" stroke="black" d="M321.28,-92.36C296.4,-77.67 253.44,-52.31 225.12,-35.6"/>
<polygon fill="black" stroke="black" points="226.87,-32.57 216.48,-30.5 223.31,-38.6 226.87,-32.57"/>
<text text-anchor="middle" x="291.5" y="-57.8" font-family="Times,serif" font-size="14.00">dep</text>
</g>
<!-- 4 -->
<g id="node5" class="node">
<title>4</title>
<ellipse fill="none" stroke="black" cx="293" cy="-18" rx="51.19" ry="18"/>
<text text-anchor="middle" x="293" y="-14.3" font-family="Times,serif" font-size="14.00">ninguém</text>
</g>
<!-- 0&#45;&gt;4 -->
<g id="edge4" class="edge">
<title>0&#45;&gt;4</title>
<path fill="none" stroke="black" d="M331.97,-88.01C325.07,-75.78 315.41,-58.68 307.43,-44.56"/>
<polygon fill="black" stroke="black" points="310.45,-42.78 302.48,-35.79 304.35,-46.22 310.45,-42.78"/>
<text text-anchor="middle" x="333.5" y="-57.8" font-family="Times,serif" font-size="14.00">dep</text>
</g>
<!-- 5 -->
<g id="node6" class="node">
<title>5</title>
<ellipse fill="none" stroke="black" cx="389" cy="-18" rx="27" ry="18"/>
<text text-anchor="middle" x="389" y="-14.3" font-family="Times,serif" font-size="14.00">»</text>
</g>
<!-- 0&#45;&gt;5 -->
<g id="edge5" class="edge">
<title>0&#45;&gt;5</title>
<path fill="none" stroke="black" d="M350.03,-88.01C357.02,-75.63 366.84,-58.23 374.88,-44.01"/>
<polygon fill="black" stroke="black" points="377.98,-45.63 379.85,-35.21 371.88,-42.19 377.98,-45.63"/>
<text text-anchor="middle" x="381.5" y="-57.8" font-family="Times,serif" font-size="14.00">dep</text>
</g>
<!-- 6 -->
<g id="node7" class="node">
<title>6</title>
<ellipse fill="none" stroke="black" cx="470" cy="-18" rx="36" ry="18"/>
<text text-anchor="middle" x="470" y="-14.3" font-family="Times,serif" font-size="14.00">entre</text>
</g>
<!-- 0&#45;&gt;6 -->
<g id="edge6" class="edge">
<title>0&#45;&gt;6</title>
<path fill="none" stroke="black" d="M360.81,-92.51C372.12,-85.84 386.49,-77.16 399,-69 413.6,-59.47 429.5,-48.34 442.55,-39.01"/>
<polygon fill="black" stroke="black" points="444.59,-41.85 450.67,-33.17 440.5,-36.17 444.59,-41.85"/>
<text text-anchor="middle" x="434.5" y="-57.8" font-family="Times,serif" font-size="14.00">dep</text>
</g>
<!-- 7 -->
<g id="node8" class="node">
<title>7</title>
<ellipse fill="none" stroke="black" cx="554" cy="-18" rx="29.8" ry="18"/>
<text text-anchor="middle" x="554" y="-14.3" font-family="Times,serif" font-size="14.00">dois</text>
</g>
<!-- 0&#45;&gt;7 -->
<g id="edge7" class="edge">
<title>0&#45;&gt;7</title>
<path fill="none" stroke="black" d="M366.06,-97.26C388.81,-90.88 423.11,-80.56 452,-69 476.66,-59.13 503.6,-45.81 523.6,-35.4"/>
<polygon fill="black" stroke="black" points="525.32,-38.45 532.54,-30.7 522.06,-32.25 525.32,-38.45"/>
<text text-anchor="middle" x="497.5" y="-57.8" font-family="Times,serif" font-size="14.00">dep</text>
</g>
<!-- 8 -->
<g id="node9" class="node">
<title>8</title>
<ellipse fill="none" stroke="black" cx="648" cy="-18" rx="46.29" ry="18"/>
<text text-anchor="middle" x="648" y="-14.3" font-family="Times,serif" font-size="14.00">códigos</text>
</g>
<!-- 0&#45;&gt;8 -->
<g id="edge8" class="edge">
<title>0&#45;&gt;8</title>
<path fill="none" stroke="black" d="M367.26,-100.07C401.6,-94.63 463.46,-83.77 515,-69 547.07,-59.81 582.37,-46.38 608.54,-35.75"/>
<polygon fill="black" stroke="black" points="610.17,-38.86 618.09,-31.83 607.51,-32.39 610.17,-38.86"/>
<text text-anchor="middle" x="573.5" y="-57.8" font-family="Times,serif" font-size="14.00">dep</text>
</g>
</g>
</svg>
