<?xml version="1.0" encoding="UTF-8" standalone="no"?>
<!DOCTYPE svg PUBLIC "-//W3C//DTD SVG 1.1//EN"
 "http://www.w3.org/Graphics/SVG/1.1/DTD/svg11.dtd">
<!-- Generated by graphviz version 2.42.4 (0)
 -->
<!-- Pages: 1 -->
<svg width="5453pt" height="131pt"
 viewBox="0.00 0.00 5452.55 131.00" xmlns="http://www.w3.org/2000/svg" xmlns:xlink="http://www.w3.org/1999/xlink">
<g id="graph0" class="graph" transform="scale(1 1) rotate(0) translate(4 127)">
<polygon fill="white" stroke="transparent" points="-4,4 -4,-127 5448.55,-127 5448.55,4 -4,4"/>
<!-- 0 -->
<g id="node1" class="node">
<title>0</title>
<ellipse fill="none" stroke="black" cx="2589.55" cy="-105" rx="31.7" ry="18"/>
<text text-anchor="middle" x="2589.55" y="-101.3" font-family="Times,serif" font-size="14.00">Com</text>
</g>
<!-- 1 -->
<g id="node2" class="node">
<title>1</title>
<ellipse fill="none" stroke="black" cx="30.55" cy="-18" rx="30.59" ry="18"/>
<text text-anchor="middle" x="30.55" y="-14.3" font-family="Times,serif" font-size="14.00">uma</text>
</g>
<!-- 0&#45;&gt;1 -->
<g id="edge1" class="edge">
<title>0&#45;&gt;1</title>
<path fill="none" stroke="black" d="M2557.43,-104.09C2289.03,-104.74 423.15,-107.84 177.55,-69 136.88,-62.57 92.41,-46.01 63.16,-33.7"/>
<polygon fill="black" stroke="black" points="64.42,-30.44 53.85,-29.71 61.66,-36.87 64.42,-30.44"/>
<text text-anchor="middle" x="191.05" y="-57.8" font-family="Times,serif" font-size="14.00">dep</text>
</g>
<!-- 2 -->
<g id="node3" class="node">
<title>2</title>
<ellipse fill="none" stroke="black" cx="113.55" cy="-18" rx="34.39" ry="18"/>
<text text-anchor="middle" x="113.55" y="-14.3" font-family="Times,serif" font-size="14.00">visão</text>
</g>
<!-- 0&#45;&gt;2 -->
<g id="edge2" class="edge">
<title>0&#45;&gt;2</title>
<path fill="none" stroke="black" d="M2557.41,-104.05C2294.73,-104.36 504.69,-105.18 268.55,-69 226.18,-62.51 179.64,-46.17 148.72,-33.93"/>
<polygon fill="black" stroke="black" points="149.84,-30.6 139.26,-30.11 147.22,-37.1 149.84,-30.6"/>
<text text-anchor="middle" x="282.05" y="-57.8" font-family="Times,serif" font-size="14.00">dep</text>
</g>
<!-- 3 -->
<g id="node4" class="node">
<title>3</title>
<ellipse fill="none" stroke="black" cx="214.55" cy="-18" rx="48.19" ry="18"/>
<text text-anchor="middle" x="214.55" y="-14.3" font-family="Times,serif" font-size="14.00">facciosa</text>
</g>
<!-- 0&#45;&gt;3 -->
<g id="edge3" class="edge">
<title>0&#45;&gt;3</title>
<path fill="none" stroke="black" d="M2557.35,-104.14C2299.91,-105.14 579.61,-110.25 353.55,-69 318.23,-62.56 279.97,-48.21 252.55,-36.53"/>
<polygon fill="black" stroke="black" points="253.89,-33.29 243.33,-32.52 251.11,-39.72 253.89,-33.29"/>
<text text-anchor="middle" x="367.05" y="-57.8" font-family="Times,serif" font-size="14.00">dep</text>
</g>
<!-- 4 -->
<g id="node5" class="node">
<title>4</title>
<ellipse fill="none" stroke="black" cx="307.55" cy="-18" rx="27" ry="18"/>
<text text-anchor="middle" x="307.55" y="-14.3" font-family="Times,serif" font-size="14.00">e</text>
</g>
<!-- 0&#45;&gt;4 -->
<g id="edge4" class="edge">
<title>0&#45;&gt;4</title>
<path fill="none" stroke="black" d="M2557.73,-104.12C2306.9,-104.97 652.13,-109.06 434.55,-69 399.62,-62.57 362.07,-46.54 336.93,-34.34"/>
<polygon fill="black" stroke="black" points="338.45,-31.19 327.94,-29.89 335.34,-37.46 338.45,-31.19"/>
<text text-anchor="middle" x="448.05" y="-57.8" font-family="Times,serif" font-size="14.00">dep</text>
</g>
<!-- 5 -->
<g id="node6" class="node">
<title>5</title>
<ellipse fill="none" stroke="black" cx="391.55" cy="-18" rx="38.99" ry="18"/>
<text text-anchor="middle" x="391.55" y="-14.3" font-family="Times,serif" font-size="14.00">míope</text>
</g>
<!-- 0&#45;&gt;5 -->
<g id="edge5" class="edge">
<title>0&#45;&gt;5</title>
<path fill="none" stroke="black" d="M2557.47,-103.8C2303.01,-102.15 617.98,-90.49 513.55,-69 482.27,-62.57 448.86,-48.3 424.92,-36.65"/>
<polygon fill="black" stroke="black" points="426.43,-33.49 415.92,-32.17 423.32,-39.75 426.43,-33.49"/>
<text text-anchor="middle" x="527.05" y="-57.8" font-family="Times,serif" font-size="14.00">dep</text>
</g>
<!-- 6 -->
<g id="node7" class="node">
<title>6</title>
<ellipse fill="none" stroke="black" cx="475.55" cy="-18" rx="27" ry="18"/>
<text text-anchor="middle" x="475.55" y="-14.3" font-family="Times,serif" font-size="14.00">de</text>
</g>
<!-- 0&#45;&gt;6 -->
<g id="edge6" class="edge">
<title>0&#45;&gt;6</title>
<path fill="none" stroke="black" d="M2557.45,-103.79C2308.19,-102.13 688.87,-90.51 588.55,-69 558.26,-62.51 526.2,-47.44 503.99,-35.53"/>
<polygon fill="black" stroke="black" points="505.56,-32.4 495.11,-30.65 502.19,-38.53 505.56,-32.4"/>
<text text-anchor="middle" x="602.05" y="-57.8" font-family="Times,serif" font-size="14.00">dep</text>
</g>
<!-- 7 -->
<g id="node8" class="node">
<title>7</title>
<ellipse fill="none" stroke="black" cx="547.55" cy="-18" rx="27" ry="18"/>
<text text-anchor="middle" x="547.55" y="-14.3" font-family="Times,serif" font-size="14.00">o</text>
</g>
<!-- 0&#45;&gt;7 -->
<g id="edge7" class="edge">
<title>0&#45;&gt;7</title>
<path fill="none" stroke="black" d="M2557.49,-104.11C2321.66,-104.83 859.08,-107.69 666.55,-69 634.3,-62.52 599.91,-47.03 576.44,-35"/>
<polygon fill="black" stroke="black" points="577.87,-31.8 567.39,-30.25 574.62,-38 577.87,-31.8"/>
<text text-anchor="middle" x="680.05" y="-57.8" font-family="Times,serif" font-size="14.00">dep</text>
</g>
<!-- 8 -->
<g id="node9" class="node">
<title>8</title>
<ellipse fill="none" stroke="black" cx="620.55" cy="-18" rx="27.9" ry="18"/>
<text text-anchor="middle" x="620.55" y="-14.3" font-family="Times,serif" font-size="14.00">que</text>
</g>
<!-- 0&#45;&gt;8 -->
<g id="edge8" class="edge">
<title>0&#45;&gt;8</title>
<path fill="none" stroke="black" d="M2557.74,-104.04C2328.4,-104.23 931.18,-103.94 746.55,-69 712.46,-62.55 675.84,-46.94 650.92,-34.87"/>
<polygon fill="black" stroke="black" points="652.16,-31.58 641.64,-30.28 649.05,-37.85 652.16,-31.58"/>
<text text-anchor="middle" x="760.05" y="-57.8" font-family="Times,serif" font-size="14.00">dep</text>
</g>
<!-- 9 -->
<g id="node10" class="node">
<title>9</title>
<ellipse fill="none" stroke="black" cx="693.55" cy="-18" rx="27" ry="18"/>
<text text-anchor="middle" x="693.55" y="-14.3" font-family="Times,serif" font-size="14.00">é</text>
</g>
<!-- 0&#45;&gt;9 -->
<g id="edge9" class="edge">
<title>0&#45;&gt;9</title>
<path fill="none" stroke="black" d="M2557.57,-103.89C2334.39,-103.08 1013.48,-97.08 837.55,-69 787.98,-61.09 776.36,-54.1 729.55,-36 727.71,-35.29 725.84,-34.53 723.95,-33.73"/>
<polygon fill="black" stroke="black" points="725.2,-30.46 714.65,-29.59 722.36,-36.85 725.2,-30.46"/>
<text text-anchor="middle" x="851.05" y="-57.8" font-family="Times,serif" font-size="14.00">dep</text>
</g>
<!-- 10 -->
<g id="node11" class="node">
<title>10</title>
<ellipse fill="none" stroke="black" cx="765.55" cy="-18" rx="27" ry="18"/>
<text text-anchor="middle" x="765.55" y="-14.3" font-family="Times,serif" font-size="14.00">o</text>
</g>
<!-- 0&#45;&gt;10 -->
<g id="edge10" class="edge">
<title>0&#45;&gt;10</title>
<path fill="none" stroke="black" d="M2557.62,-104.01C2360.03,-103.96 1301.81,-102.16 979.55,-69 899.51,-60.77 878.12,-60.72 801.55,-36 799.62,-35.38 797.67,-34.68 795.72,-33.92"/>
<polygon fill="black" stroke="black" points="796.69,-30.53 786.12,-29.83 793.94,-36.97 796.69,-30.53"/>
<text text-anchor="middle" x="993.05" y="-57.8" font-family="Times,serif" font-size="14.00">dep</text>
</g>
<!-- 11 -->
<g id="node12" class="node">
<title>11</title>
<ellipse fill="none" stroke="black" cx="899.55" cy="-18" rx="89.08" ry="18"/>
<text text-anchor="middle" x="899.55" y="-14.3" font-family="Times,serif" font-size="14.00">desenvolvimento</text>
</g>
<!-- 0&#45;&gt;11 -->
<g id="edge11" class="edge">
<title>0&#45;&gt;11</title>
<path fill="none" stroke="black" d="M2557.54,-103.73C2352.89,-101.95 1231.24,-91.21 1080.55,-69 1036.33,-62.48 987.55,-48.6 951.79,-37.12"/>
<polygon fill="black" stroke="black" points="952.65,-33.72 942.06,-33.95 950.49,-40.37 952.65,-33.72"/>
<text text-anchor="middle" x="1094.05" y="-57.8" font-family="Times,serif" font-size="14.00">dep</text>
</g>
<!-- 12 -->
<g id="node13" class="node">
<title>12</title>
<ellipse fill="none" stroke="black" cx="1040.55" cy="-18" rx="33.6" ry="18"/>
<text text-anchor="middle" x="1040.55" y="-14.3" font-family="Times,serif" font-size="14.00">rural</text>
</g>
<!-- 0&#45;&gt;12 -->
<g id="edge12" class="edge">
<title>0&#45;&gt;12</title>
<path fill="none" stroke="black" d="M2557.55,-103.94C2358.92,-103.49 1298.41,-99.64 1157.55,-69 1127.19,-62.4 1094.88,-47.96 1071.92,-36.29"/>
<polygon fill="black" stroke="black" points="1073.48,-33.16 1063,-31.65 1070.26,-39.37 1073.48,-33.16"/>
<text text-anchor="middle" x="1171.05" y="-57.8" font-family="Times,serif" font-size="14.00">dep</text>
</g>
<!-- 13 -->
<g id="node14" class="node">
<title>13</title>
<ellipse fill="none" stroke="black" cx="1119.55" cy="-18" rx="27" ry="18"/>
<text text-anchor="middle" x="1119.55" y="-14.3" font-family="Times,serif" font-size="14.00">(</text>
</g>
<!-- 0&#45;&gt;13 -->
<g id="edge13" class="edge">
<title>0&#45;&gt;13</title>
<path fill="none" stroke="black" d="M2557.68,-103.9C2365.58,-103.19 1365.65,-98.11 1232.55,-69 1202.29,-62.38 1170.22,-47.33 1148.01,-35.45"/>
<polygon fill="black" stroke="black" points="1149.58,-32.32 1139.12,-30.59 1146.22,-38.46 1149.58,-32.32"/>
<text text-anchor="middle" x="1246.05" y="-57.8" font-family="Times,serif" font-size="14.00">dep</text>
</g>
<!-- 14 -->
<g id="node15" class="node">
<title>14</title>
<ellipse fill="none" stroke="black" cx="1191.55" cy="-18" rx="27" ry="18"/>
<text text-anchor="middle" x="1191.55" y="-14.3" font-family="Times,serif" font-size="14.00">já</text>
</g>
<!-- 0&#45;&gt;14 -->
<g id="edge14" class="edge">
<title>0&#45;&gt;14</title>
<path fill="none" stroke="black" d="M2557.74,-103.8C2372.41,-102.51 1435.93,-94.79 1310.55,-69 1278.52,-62.41 1244.35,-47.09 1220.88,-35.13"/>
<polygon fill="black" stroke="black" points="1222.31,-31.93 1211.82,-30.41 1219.07,-38.14 1222.31,-31.93"/>
<text text-anchor="middle" x="1324.05" y="-57.8" font-family="Times,serif" font-size="14.00">dep</text>
</g>
<!-- 15 -->
<g id="node16" class="node">
<title>15</title>
<ellipse fill="none" stroke="black" cx="1264.55" cy="-18" rx="27.9" ry="18"/>
<text text-anchor="middle" x="1264.55" y="-14.3" font-family="Times,serif" font-size="14.00">que</text>
</g>
<!-- 0&#45;&gt;15 -->
<g id="edge15" class="edge">
<title>0&#45;&gt;15</title>
<path fill="none" stroke="black" d="M2557.75,-103.68C2379.58,-101.82 1508.84,-91.6 1391.55,-69 1356.89,-62.32 1319.56,-46.49 1294.41,-34.41"/>
<polygon fill="black" stroke="black" points="1295.91,-31.25 1285.39,-29.99 1292.83,-37.54 1295.91,-31.25"/>
<text text-anchor="middle" x="1405.05" y="-57.8" font-family="Times,serif" font-size="14.00">dep</text>
</g>
<!-- 16 -->
<g id="node17" class="node">
<title>16</title>
<ellipse fill="none" stroke="black" cx="1337.55" cy="-18" rx="27" ry="18"/>
<text text-anchor="middle" x="1337.55" y="-14.3" font-family="Times,serif" font-size="14.00">as</text>
</g>
<!-- 0&#45;&gt;16 -->
<g id="edge16" class="edge">
<title>0&#45;&gt;16</title>
<path fill="none" stroke="black" d="M2557.72,-104.09C2399.78,-104.4 1699.25,-103.72 1484.55,-69 1433.74,-60.78 1421.62,-54.37 1373.55,-36 1371.71,-35.3 1369.83,-34.54 1367.95,-33.75"/>
<polygon fill="black" stroke="black" points="1369.2,-30.47 1358.64,-29.61 1366.35,-36.87 1369.2,-30.47"/>
<text text-anchor="middle" x="1498.05" y="-57.8" font-family="Times,serif" font-size="14.00">dep</text>
</g>
<!-- 17 -->
<g id="node18" class="node">
<title>17</title>
<ellipse fill="none" stroke="black" cx="1430.55" cy="-18" rx="48.19" ry="18"/>
<text text-anchor="middle" x="1430.55" y="-14.3" font-family="Times,serif" font-size="14.00">receitas</text>
</g>
<!-- 0&#45;&gt;17 -->
<g id="edge17" class="edge">
<title>0&#45;&gt;17</title>
<path fill="none" stroke="black" d="M2557.67,-104.23C2407.02,-105.14 1765.63,-106.67 1569.55,-69 1534.4,-62.25 1496.27,-48 1468.85,-36.43"/>
<polygon fill="black" stroke="black" points="1470.19,-33.2 1459.62,-32.47 1467.43,-39.63 1470.19,-33.2"/>
<text text-anchor="middle" x="1583.05" y="-57.8" font-family="Times,serif" font-size="14.00">dep</text>
</g>
<!-- 18 -->
<g id="node19" class="node">
<title>18</title>
<ellipse fill="none" stroke="black" cx="1523.55" cy="-18" rx="27" ry="18"/>
<text text-anchor="middle" x="1523.55" y="-14.3" font-family="Times,serif" font-size="14.00">de</text>
</g>
<!-- 0&#45;&gt;18 -->
<g id="edge18" class="edge">
<title>0&#45;&gt;18</title>
<path fill="none" stroke="black" d="M2557.57,-104.15C2414.1,-104.63 1829.01,-104.32 1649.55,-69 1615.3,-62.26 1578.44,-46.55 1553.5,-34.52"/>
<polygon fill="black" stroke="black" points="1554.74,-31.23 1544.23,-29.96 1551.65,-37.51 1554.74,-31.23"/>
<text text-anchor="middle" x="1663.05" y="-57.8" font-family="Times,serif" font-size="14.00">dep</text>
</g>
<!-- 19 -->
<g id="node20" class="node">
<title>19</title>
<ellipse fill="none" stroke="black" cx="1595.55" cy="-18" rx="27" ry="18"/>
<text text-anchor="middle" x="1595.55" y="-14.3" font-family="Times,serif" font-size="14.00">a</text>
</g>
<!-- 0&#45;&gt;19 -->
<g id="edge19" class="edge">
<title>0&#45;&gt;19</title>
<path fill="none" stroke="black" d="M2557.68,-103.74C2423.47,-102.47 1903.87,-95.89 1742.55,-69 1691.78,-60.54 1679.62,-54.37 1631.55,-36 1629.71,-35.3 1627.83,-34.54 1625.95,-33.75"/>
<polygon fill="black" stroke="black" points="1627.2,-30.47 1616.64,-29.61 1624.35,-36.87 1627.2,-30.47"/>
<text text-anchor="middle" x="1756.05" y="-57.8" font-family="Times,serif" font-size="14.00">dep</text>
</g>
<!-- 20 -->
<g id="node21" class="node">
<title>20</title>
<ellipse fill="none" stroke="black" cx="1671.55" cy="-18" rx="31.4" ry="18"/>
<text text-anchor="middle" x="1671.55" y="-14.3" font-family="Times,serif" font-size="14.00">caça</text>
</g>
<!-- 0&#45;&gt;20 -->
<g id="edge20" class="edge">
<title>0&#45;&gt;20</title>
<path fill="none" stroke="black" d="M2557.57,-104.47C2455.08,-105.57 2125.73,-105.77 1856.55,-69 1791.06,-60.06 1774.43,-56.34 1711.55,-36 1709.31,-35.28 1707.02,-34.47 1704.72,-33.63"/>
<polygon fill="black" stroke="black" points="1705.98,-30.36 1695.4,-29.95 1703.42,-36.87 1705.98,-30.36"/>
<text text-anchor="middle" x="1870.05" y="-57.8" font-family="Times,serif" font-size="14.00">dep</text>
</g>
<!-- 21 -->
<g id="node22" class="node">
<title>21</title>
<ellipse fill="none" stroke="black" cx="1780.55" cy="-18" rx="59.59" ry="18"/>
<text text-anchor="middle" x="1780.55" y="-14.3" font-family="Times,serif" font-size="14.00">raramente</text>
</g>
<!-- 0&#45;&gt;21 -->
<g id="edge21" class="edge">
<title>0&#45;&gt;21</title>
<path fill="none" stroke="black" d="M2557.69,-103.26C2445.19,-100.49 2066.86,-89.81 1947.55,-69 1905.67,-61.7 1859.47,-47.35 1826.3,-35.9"/>
<polygon fill="black" stroke="black" points="1827.03,-32.45 1816.44,-32.44 1824.72,-39.05 1827.03,-32.45"/>
<text text-anchor="middle" x="1961.05" y="-57.8" font-family="Times,serif" font-size="14.00">dep</text>
</g>
<!-- 22 -->
<g id="node23" class="node">
<title>22</title>
<ellipse fill="none" stroke="black" cx="1894.55" cy="-18" rx="36" ry="18"/>
<text text-anchor="middle" x="1894.55" y="-14.3" font-family="Times,serif" font-size="14.00">ficam</text>
</g>
<!-- 0&#45;&gt;22 -->
<g id="edge22" class="edge">
<title>0&#45;&gt;22</title>
<path fill="none" stroke="black" d="M2557.63,-103.29C2454.09,-100.77 2128.26,-91.25 2025.55,-69 1991.58,-61.64 1954.76,-46.94 1928.83,-35.38"/>
<polygon fill="black" stroke="black" points="1930.01,-32.07 1919.45,-31.12 1927.11,-38.44 1930.01,-32.07"/>
<text text-anchor="middle" x="2039.05" y="-57.8" font-family="Times,serif" font-size="14.00">dep</text>
</g>
<!-- 23 -->
<g id="node24" class="node">
<title>23</title>
<ellipse fill="none" stroke="black" cx="1975.55" cy="-18" rx="27" ry="18"/>
<text text-anchor="middle" x="1975.55" y="-14.3" font-family="Times,serif" font-size="14.00">em</text>
</g>
<!-- 0&#45;&gt;23 -->
<g id="edge23" class="edge">
<title>0&#45;&gt;23</title>
<path fill="none" stroke="black" d="M2557.5,-104.73C2478.97,-105.85 2271.06,-104.88 2102.55,-69 2068.02,-61.65 2030.67,-45.92 2005.48,-34.06"/>
<polygon fill="black" stroke="black" points="2006.98,-30.89 1996.45,-29.72 2003.95,-37.21 2006.98,-30.89"/>
<text text-anchor="middle" x="2116.05" y="-57.8" font-family="Times,serif" font-size="14.00">dep</text>
</g>
<!-- 24 -->
<g id="node25" class="node">
<title>24</title>
<ellipse fill="none" stroke="black" cx="2047.55" cy="-18" rx="27" ry="18"/>
<text text-anchor="middle" x="2047.55" y="-14.3" font-family="Times,serif" font-size="14.00">os</text>
</g>
<!-- 0&#45;&gt;24 -->
<g id="edge24" class="edge">
<title>0&#45;&gt;24</title>
<path fill="none" stroke="black" d="M2557.76,-103.45C2489.89,-101.79 2326.02,-95.16 2191.55,-69 2142.28,-59.42 2130.36,-54.1 2083.55,-36 2081.71,-35.29 2079.84,-34.53 2077.95,-33.73"/>
<polygon fill="black" stroke="black" points="2079.2,-30.46 2068.65,-29.59 2076.36,-36.85 2079.2,-30.46"/>
<text text-anchor="middle" x="2205.05" y="-57.8" font-family="Times,serif" font-size="14.00">dep</text>
</g>
<!-- 25 -->
<g id="node26" class="node">
<title>25</title>
<ellipse fill="none" stroke="black" cx="2129.55" cy="-18" rx="37.09" ry="18"/>
<text text-anchor="middle" x="2129.55" y="-14.3" font-family="Times,serif" font-size="14.00">locais</text>
</g>
<!-- 0&#45;&gt;25 -->
<g id="edge25" class="edge">
<title>0&#45;&gt;25</title>
<path fill="none" stroke="black" d="M2557.89,-102.69C2500.71,-99.84 2376.66,-91.43 2274.55,-69 2236.58,-60.66 2194.76,-45.57 2165.82,-34.14"/>
<polygon fill="black" stroke="black" points="2167.12,-30.89 2156.53,-30.42 2164.52,-37.39 2167.12,-30.89"/>
<text text-anchor="middle" x="2288.05" y="-57.8" font-family="Times,serif" font-size="14.00">dep</text>
</g>
<!-- 26 -->
<g id="node27" class="node">
<title>26</title>
<ellipse fill="none" stroke="black" cx="2217.55" cy="-18" rx="33.29" ry="18"/>
<text text-anchor="middle" x="2217.55" y="-14.3" font-family="Times,serif" font-size="14.00">onde</text>
</g>
<!-- 0&#45;&gt;26 -->
<g id="edge26" class="edge">
<title>0&#45;&gt;26</title>
<path fill="none" stroke="black" d="M2557.97,-101.37C2512.02,-97.08 2424.27,-87.2 2351.55,-69 2309.41,-58.45 2300.13,-51.49 2259.55,-36 2257.31,-35.15 2255.02,-34.26 2252.71,-33.35"/>
<polygon fill="black" stroke="black" points="2253.83,-30.03 2243.25,-29.59 2251.25,-36.54 2253.83,-30.03"/>
<text text-anchor="middle" x="2365.05" y="-57.8" font-family="Times,serif" font-size="14.00">dep</text>
</g>
<!-- 27 -->
<g id="node28" class="node">
<title>27</title>
<ellipse fill="none" stroke="black" cx="2299.55" cy="-18" rx="30.59" ry="18"/>
<text text-anchor="middle" x="2299.55" y="-14.3" font-family="Times,serif" font-size="14.00">esta</text>
</g>
<!-- 0&#45;&gt;27 -->
<g id="edge27" class="edge">
<title>0&#45;&gt;27</title>
<path fill="none" stroke="black" d="M2559.29,-99.27C2525.53,-93.62 2469.49,-83.14 2422.55,-69 2384.54,-57.55 2376.26,-51.1 2339.55,-36 2337.37,-35.1 2335.13,-34.17 2332.87,-33.23"/>
<polygon fill="black" stroke="black" points="2334.2,-29.99 2323.62,-29.34 2331.48,-36.44 2334.2,-29.99"/>
<text text-anchor="middle" x="2436.05" y="-57.8" font-family="Times,serif" font-size="14.00">dep</text>
</g>
<!-- 28 -->
<g id="node29" class="node">
<title>28</title>
<ellipse fill="none" stroke="black" cx="2375.55" cy="-18" rx="27" ry="18"/>
<text text-anchor="middle" x="2375.55" y="-14.3" font-family="Times,serif" font-size="14.00">se</text>
</g>
<!-- 0&#45;&gt;28 -->
<g id="edge28" class="edge">
<title>0&#45;&gt;28</title>
<path fill="none" stroke="black" d="M2562.64,-95.1C2542.41,-88.28 2514.09,-78.47 2489.55,-69 2454.43,-55.44 2445.91,-51.37 2411.55,-36 2409.75,-35.2 2407.91,-34.36 2406.05,-33.51"/>
<polygon fill="black" stroke="black" points="2407.34,-30.25 2396.8,-29.21 2404.4,-36.6 2407.34,-30.25"/>
<text text-anchor="middle" x="2503.05" y="-57.8" font-family="Times,serif" font-size="14.00">dep</text>
</g>
<!-- 29 -->
<g id="node30" class="node">
<title>29</title>
<ellipse fill="none" stroke="black" cx="2464.55" cy="-18" rx="43.59" ry="18"/>
<text text-anchor="middle" x="2464.55" y="-14.3" font-family="Times,serif" font-size="14.00">pratica</text>
</g>
<!-- 0&#45;&gt;29 -->
<g id="edge29" class="edge">
<title>0&#45;&gt;29</title>
<path fill="none" stroke="black" d="M2570.02,-90.72C2549.92,-77.06 2518.35,-55.58 2494.98,-39.69"/>
<polygon fill="black" stroke="black" points="2496.7,-36.63 2486.46,-33.9 2492.76,-42.42 2496.7,-36.63"/>
<text text-anchor="middle" x="2548.05" y="-57.8" font-family="Times,serif" font-size="14.00">dep</text>
</g>
<!-- 30 -->
<g id="node31" class="node">
<title>30</title>
<ellipse fill="none" stroke="black" cx="2553.55" cy="-18" rx="27" ry="18"/>
<text text-anchor="middle" x="2553.55" y="-14.3" font-family="Times,serif" font-size="14.00">)</text>
</g>
<!-- 0&#45;&gt;30 -->
<g id="edge30" class="edge">
<title>0&#45;&gt;30</title>
<path fill="none" stroke="black" d="M2582.43,-87.21C2577.32,-75.14 2570.34,-58.64 2564.51,-44.89"/>
<polygon fill="black" stroke="black" points="2567.65,-43.31 2560.52,-35.47 2561.2,-46.04 2567.65,-43.31"/>
<text text-anchor="middle" x="2588.05" y="-57.8" font-family="Times,serif" font-size="14.00">dep</text>
</g>
<!-- 31 -->
<g id="node32" class="node">
<title>31</title>
<ellipse fill="none" stroke="black" cx="2625.55" cy="-18" rx="27" ry="18"/>
<text text-anchor="middle" x="2625.55" y="-14.3" font-family="Times,serif" font-size="14.00">,</text>
</g>
<!-- 0&#45;&gt;31 -->
<g id="edge31" class="edge">
<title>0&#45;&gt;31</title>
<path fill="none" stroke="black" d="M2596.66,-87.21C2601.77,-75.14 2608.76,-58.64 2614.58,-44.89"/>
<polygon fill="black" stroke="black" points="2617.89,-46.04 2618.57,-35.47 2611.45,-43.31 2617.89,-46.04"/>
<text text-anchor="middle" x="2624.05" y="-57.8" font-family="Times,serif" font-size="14.00">dep</text>
</g>
<!-- 32 -->
<g id="node33" class="node">
<title>32</title>
<ellipse fill="none" stroke="black" cx="2721.55" cy="-18" rx="50.89" ry="18"/>
<text text-anchor="middle" x="2721.55" y="-14.3" font-family="Times,serif" font-size="14.00">continua</text>
</g>
<!-- 0&#45;&gt;32 -->
<g id="edge32" class="edge">
<title>0&#45;&gt;32</title>
<path fill="none" stroke="black" d="M2609.88,-90.91C2631.01,-77.3 2664.38,-55.81 2689.14,-39.87"/>
<polygon fill="black" stroke="black" points="2691.33,-42.62 2697.84,-34.27 2687.54,-36.74 2691.33,-42.62"/>
<text text-anchor="middle" x="2677.05" y="-57.8" font-family="Times,serif" font-size="14.00">dep</text>
</g>
<!-- 33 -->
<g id="node34" class="node">
<title>33</title>
<ellipse fill="none" stroke="black" cx="2817.55" cy="-18" rx="27" ry="18"/>
<text text-anchor="middle" x="2817.55" y="-14.3" font-family="Times,serif" font-size="14.00">a</text>
</g>
<!-- 0&#45;&gt;33 -->
<g id="edge33" class="edge">
<title>0&#45;&gt;33</title>
<path fill="none" stroke="black" d="M2616.98,-95.46C2654.6,-83.49 2724.11,-60.41 2781.55,-36 2783.36,-35.23 2785.22,-34.42 2787.08,-33.59"/>
<polygon fill="black" stroke="black" points="2788.72,-36.69 2796.35,-29.35 2785.8,-30.33 2788.72,-36.69"/>
<text text-anchor="middle" x="2749.05" y="-57.8" font-family="Times,serif" font-size="14.00">dep</text>
</g>
<!-- 34 -->
<g id="node35" class="node">
<title>34</title>
<ellipse fill="none" stroke="black" cx="2921.55" cy="-18" rx="59.29" ry="18"/>
<text text-anchor="middle" x="2921.55" y="-14.3" font-family="Times,serif" font-size="14.00">Secretaria</text>
</g>
<!-- 0&#45;&gt;34 -->
<g id="edge34" class="edge">
<title>0&#45;&gt;34</title>
<path fill="none" stroke="black" d="M2619.86,-99.12C2655.3,-93.15 2715.61,-82.2 2766.55,-69 2803.59,-59.4 2844.8,-45.97 2875.4,-35.45"/>
<polygon fill="black" stroke="black" points="2876.64,-38.72 2884.95,-32.14 2874.35,-32.11 2876.64,-38.72"/>
<text text-anchor="middle" x="2832.05" y="-57.8" font-family="Times,serif" font-size="14.00">dep</text>
</g>
<!-- 35 -->
<g id="node36" class="node">
<title>35</title>
<ellipse fill="none" stroke="black" cx="3025.55" cy="-18" rx="27" ry="18"/>
<text text-anchor="middle" x="3025.55" y="-14.3" font-family="Times,serif" font-size="14.00">de</text>
</g>
<!-- 0&#45;&gt;35 -->
<g id="edge35" class="edge">
<title>0&#45;&gt;35</title>
<path fill="none" stroke="black" d="M2621.04,-102.23C2689.76,-97.61 2857.56,-82.15 2989.55,-36 2991.46,-35.33 2993.4,-34.6 2995.34,-33.81"/>
<polygon fill="black" stroke="black" points="2997.15,-36.85 3004.92,-29.65 2994.35,-30.43 2997.15,-36.85"/>
<text text-anchor="middle" x="2940.05" y="-57.8" font-family="Times,serif" font-size="14.00">dep</text>
</g>
<!-- 36 -->
<g id="node37" class="node">
<title>36</title>
<ellipse fill="none" stroke="black" cx="3113.55" cy="-18" rx="42.79" ry="18"/>
<text text-anchor="middle" x="3113.55" y="-14.3" font-family="Times,serif" font-size="14.00">Estado</text>
</g>
<!-- 0&#45;&gt;36 -->
<g id="edge36" class="edge">
<title>0&#45;&gt;36</title>
<path fill="none" stroke="black" d="M2621.39,-103.24C2685.59,-101.22 2834.92,-93.99 2957.55,-69 2997.91,-60.77 3042.53,-45.85 3073.67,-34.45"/>
<polygon fill="black" stroke="black" points="3075.13,-37.64 3083.29,-30.88 3072.7,-31.07 3075.13,-37.64"/>
<text text-anchor="middle" x="3028.05" y="-57.8" font-family="Times,serif" font-size="14.00">dep</text>
</g>
<!-- 37 -->
<g id="node38" class="node">
<title>37</title>
<ellipse fill="none" stroke="black" cx="3201.55" cy="-18" rx="27" ry="18"/>
<text text-anchor="middle" x="3201.55" y="-14.3" font-family="Times,serif" font-size="14.00">de</text>
</g>
<!-- 0&#45;&gt;37 -->
<g id="edge37" class="edge">
<title>0&#45;&gt;37</title>
<path fill="none" stroke="black" d="M2621.32,-103.65C2695.93,-102.38 2887.93,-96.46 3045.55,-69 3100.04,-59.51 3113.68,-55.21 3165.55,-36 3167.39,-35.32 3169.28,-34.57 3171.16,-33.79"/>
<polygon fill="black" stroke="black" points="3172.75,-36.92 3180.49,-29.69 3169.93,-30.51 3172.75,-36.92"/>
<text text-anchor="middle" x="3127.05" y="-57.8" font-family="Times,serif" font-size="14.00">dep</text>
</g>
<!-- 38 -->
<g id="node39" class="node">
<title>38</title>
<ellipse fill="none" stroke="black" cx="3273.55" cy="-18" rx="27" ry="18"/>
<text text-anchor="middle" x="3273.55" y="-14.3" font-family="Times,serif" font-size="14.00">a</text>
</g>
<!-- 0&#45;&gt;38 -->
<g id="edge38" class="edge">
<title>0&#45;&gt;38</title>
<path fill="none" stroke="black" d="M2621.29,-103.16C2723.51,-100.26 3043.34,-89.72 3144.55,-69 3179.81,-61.78 3217.99,-45.88 3243.59,-33.94"/>
<polygon fill="black" stroke="black" points="3245.23,-37.03 3252.76,-29.58 3242.22,-30.71 3245.23,-37.03"/>
<text text-anchor="middle" x="3209.05" y="-57.8" font-family="Times,serif" font-size="14.00">dep</text>
</g>
<!-- 39 -->
<g id="node40" class="node">
<title>39</title>
<ellipse fill="none" stroke="black" cx="3382.55" cy="-18" rx="63.89" ry="18"/>
<text text-anchor="middle" x="3382.55" y="-14.3" font-family="Times,serif" font-size="14.00">Agricultura</text>
</g>
<!-- 0&#45;&gt;39 -->
<g id="edge39" class="edge">
<title>0&#45;&gt;39</title>
<path fill="none" stroke="black" d="M2621.55,-103.32C2733.71,-100.77 3108.51,-90.79 3226.55,-69 3265.03,-61.9 3307.22,-47.98 3338.01,-36.63"/>
<polygon fill="black" stroke="black" points="3339.44,-39.83 3347.58,-33.05 3336.99,-33.28 3339.44,-39.83"/>
<text text-anchor="middle" x="3297.05" y="-57.8" font-family="Times,serif" font-size="14.00">dep</text>
</g>
<!-- 40 -->
<g id="node41" class="node">
<title>40</title>
<ellipse fill="none" stroke="black" cx="3491.55" cy="-18" rx="27" ry="18"/>
<text text-anchor="middle" x="3491.55" y="-14.3" font-family="Times,serif" font-size="14.00">e</text>
</g>
<!-- 0&#45;&gt;40 -->
<g id="edge40" class="edge">
<title>0&#45;&gt;40</title>
<path fill="none" stroke="black" d="M2621.54,-104.52C2723.35,-105.73 3048.73,-106.21 3314.55,-69 3378.29,-60.08 3394.78,-57.19 3455.55,-36 3457.46,-35.33 3459.4,-34.6 3461.34,-33.82"/>
<polygon fill="black" stroke="black" points="3463.15,-36.85 3470.92,-29.65 3460.35,-30.43 3463.15,-36.85"/>
<text text-anchor="middle" x="3412.05" y="-57.8" font-family="Times,serif" font-size="14.00">dep</text>
</g>
<!-- 41 -->
<g id="node42" class="node">
<title>41</title>
<ellipse fill="none" stroke="black" cx="3563.55" cy="-18" rx="27" ry="18"/>
<text text-anchor="middle" x="3563.55" y="-14.3" font-family="Times,serif" font-size="14.00">de</text>
</g>
<!-- 0&#45;&gt;41 -->
<g id="edge41" class="edge">
<title>0&#45;&gt;41</title>
<path fill="none" stroke="black" d="M2621.63,-103.87C2755.54,-103.16 3270.24,-98.52 3429.55,-69 3466.51,-62.15 3506.63,-45.91 3533.23,-33.79"/>
<polygon fill="black" stroke="black" points="3534.8,-36.92 3542.39,-29.53 3531.85,-30.57 3534.8,-36.92"/>
<text text-anchor="middle" x="3496.05" y="-57.8" font-family="Times,serif" font-size="14.00">dep</text>
</g>
<!-- 42 -->
<g id="node43" class="node">
<title>42</title>
<ellipse fill="none" stroke="black" cx="3635.55" cy="-18" rx="27" ry="18"/>
<text text-anchor="middle" x="3635.55" y="-14.3" font-family="Times,serif" font-size="14.00">o</text>
</g>
<!-- 0&#45;&gt;42 -->
<g id="edge42" class="edge">
<title>0&#45;&gt;42</title>
<path fill="none" stroke="black" d="M2621.47,-104.19C2763.36,-104.82 3337.61,-105.05 3513.55,-69 3546.61,-62.23 3582.05,-46.67 3606.17,-34.7"/>
<polygon fill="black" stroke="black" points="3607.81,-37.79 3615.14,-30.15 3604.64,-31.55 3607.81,-37.79"/>
<text text-anchor="middle" x="3576.05" y="-57.8" font-family="Times,serif" font-size="14.00">dep</text>
</g>
<!-- 43 -->
<g id="node44" class="node">
<title>43</title>
<ellipse fill="none" stroke="black" cx="3771.55" cy="-18" rx="90.98" ry="18"/>
<text text-anchor="middle" x="3771.55" y="-14.3" font-family="Times,serif" font-size="14.00">Desenvolvimento</text>
</g>
<!-- 0&#45;&gt;43 -->
<g id="edge43" class="edge">
<title>0&#45;&gt;43</title>
<path fill="none" stroke="black" d="M2621.62,-103.91C2771.03,-103.34 3399.67,-99.16 3593.55,-69 3636.74,-62.28 3684.36,-48.56 3719.47,-37.19"/>
<polygon fill="black" stroke="black" points="3720.61,-40.49 3729.02,-34.05 3718.43,-33.84 3720.61,-40.49"/>
<text text-anchor="middle" x="3672.05" y="-57.8" font-family="Times,serif" font-size="14.00">dep</text>
</g>
<!-- 44 -->
<g id="node45" class="node">
<title>44</title>
<ellipse fill="none" stroke="black" cx="3916.55" cy="-18" rx="36.29" ry="18"/>
<text text-anchor="middle" x="3916.55" y="-14.3" font-family="Times,serif" font-size="14.00">Rural</text>
</g>
<!-- 0&#45;&gt;44 -->
<g id="edge44" class="edge">
<title>0&#45;&gt;44</title>
<path fill="none" stroke="black" d="M2621.43,-103.62C2778.86,-101.65 3474.37,-91.81 3689.55,-69 3771.3,-60.34 3792.32,-57.95 3871.55,-36 3874.17,-35.27 3876.86,-34.45 3879.55,-33.58"/>
<polygon fill="black" stroke="black" points="3880.9,-36.82 3889.2,-30.23 3878.61,-30.2 3880.9,-36.82"/>
<text text-anchor="middle" x="3811.05" y="-57.8" font-family="Times,serif" font-size="14.00">dep</text>
</g>
<!-- 45 -->
<g id="node46" class="node">
<title>45</title>
<ellipse fill="none" stroke="black" cx="3997.55" cy="-18" rx="27" ry="18"/>
<text text-anchor="middle" x="3997.55" y="-14.3" font-family="Times,serif" font-size="14.00">(</text>
</g>
<!-- 0&#45;&gt;45 -->
<g id="edge45" class="edge">
<title>0&#45;&gt;45</title>
<path fill="none" stroke="black" d="M2621.49,-104.03C2790.85,-104.03 3585.22,-102.23 3828.55,-69 3888.89,-60.76 3904.17,-56.44 3961.55,-36 3963.45,-35.32 3965.39,-34.58 3967.33,-33.79"/>
<polygon fill="black" stroke="black" points="3969.14,-36.82 3976.9,-29.6 3966.34,-30.4 3969.14,-36.82"/>
<text text-anchor="middle" x="3921.05" y="-57.8" font-family="Times,serif" font-size="14.00">dep</text>
</g>
<!-- 46 -->
<g id="node47" class="node">
<title>46</title>
<ellipse fill="none" stroke="black" cx="4086.55" cy="-18" rx="44.39" ry="18"/>
<text text-anchor="middle" x="4086.55" y="-14.3" font-family="Times,serif" font-size="14.00">SEADR</text>
</g>
<!-- 0&#45;&gt;46 -->
<g id="edge46" class="edge">
<title>0&#45;&gt;46</title>
<path fill="none" stroke="black" d="M2621.51,-103.74C2813.07,-102.13 3805.27,-92.68 3938.55,-69 3976.81,-62.2 4018.61,-47.35 4048,-35.59"/>
<polygon fill="black" stroke="black" points="4049.53,-38.74 4057.47,-31.73 4046.89,-32.26 4049.53,-38.74"/>
<text text-anchor="middle" x="4011.05" y="-57.8" font-family="Times,serif" font-size="14.00">dep</text>
</g>
<!-- 47 -->
<g id="node48" class="node">
<title>47</title>
<ellipse fill="none" stroke="black" cx="4175.55" cy="-18" rx="27" ry="18"/>
<text text-anchor="middle" x="4175.55" y="-14.3" font-family="Times,serif" font-size="14.00">)</text>
</g>
<!-- 0&#45;&gt;47 -->
<g id="edge47" class="edge">
<title>0&#45;&gt;47</title>
<path fill="none" stroke="black" d="M2621.34,-103.73C2819.87,-101.98 3885.38,-91.61 4028.55,-69 4079.38,-60.97 4091.47,-54.37 4139.55,-36 4141.39,-35.3 4143.26,-34.54 4145.15,-33.75"/>
<polygon fill="black" stroke="black" points="4146.74,-36.87 4154.46,-29.61 4143.9,-30.47 4146.74,-36.87"/>
<text text-anchor="middle" x="4105.05" y="-57.8" font-family="Times,serif" font-size="14.00">dep</text>
</g>
<!-- 48 -->
<g id="node49" class="node">
<title>48</title>
<ellipse fill="none" stroke="black" cx="4247.55" cy="-18" rx="27" ry="18"/>
<text text-anchor="middle" x="4247.55" y="-14.3" font-family="Times,serif" font-size="14.00">a</text>
</g>
<!-- 0&#45;&gt;48 -->
<g id="edge48" class="edge">
<title>0&#45;&gt;48</title>
<path fill="none" stroke="black" d="M2621.42,-103.91C2827.72,-103.22 3970.4,-98.1 4122.55,-69 4156.6,-62.49 4193.15,-46.74 4217.87,-34.64"/>
<polygon fill="black" stroke="black" points="4219.68,-37.65 4227.06,-30.05 4216.55,-31.39 4219.68,-37.65"/>
<text text-anchor="middle" x="4186.05" y="-57.8" font-family="Times,serif" font-size="14.00">dep</text>
</g>
<!-- 49 -->
<g id="node50" class="node">
<title>49</title>
<ellipse fill="none" stroke="black" cx="4350.55" cy="-18" rx="57.69" ry="18"/>
<text text-anchor="middle" x="4350.55" y="-14.3" font-family="Times,serif" font-size="14.00">empenhar</text>
</g>
<!-- 0&#45;&gt;49 -->
<g id="edge49" class="edge">
<title>0&#45;&gt;49</title>
<path fill="none" stroke="black" d="M2621.37,-103.89C2833.76,-103.11 4042.52,-97.43 4203.55,-69 4240.28,-62.51 4280.24,-48.43 4309.22,-36.86"/>
<polygon fill="black" stroke="black" points="4310.66,-40.06 4318.6,-33.05 4308.02,-33.57 4310.66,-40.06"/>
<text text-anchor="middle" x="4275.05" y="-57.8" font-family="Times,serif" font-size="14.00">dep</text>
</g>
<!-- 50 -->
<g id="node51" class="node">
<title>50</title>
<ellipse fill="none" stroke="black" cx="4453.55" cy="-18" rx="27" ry="18"/>
<text text-anchor="middle" x="4453.55" y="-14.3" font-family="Times,serif" font-size="14.00">se</text>
</g>
<!-- 0&#45;&gt;50 -->
<g id="edge50" class="edge">
<title>0&#45;&gt;50</title>
<path fill="none" stroke="black" d="M2621.67,-103.8C2841.6,-102.36 4121.32,-93.01 4292.55,-69 4349.45,-61.02 4363.56,-55.68 4417.55,-36 4419.4,-35.33 4421.28,-34.59 4423.17,-33.82"/>
<polygon fill="black" stroke="black" points="4424.75,-36.95 4432.5,-29.73 4421.94,-30.54 4424.75,-36.95"/>
<text text-anchor="middle" x="4378.05" y="-57.8" font-family="Times,serif" font-size="14.00">dep</text>
</g>
<!-- 51 -->
<g id="node52" class="node">
<title>51</title>
<ellipse fill="none" stroke="black" cx="4525.55" cy="-18" rx="27" ry="18"/>
<text text-anchor="middle" x="4525.55" y="-14.3" font-family="Times,serif" font-size="14.00">em</text>
</g>
<!-- 0&#45;&gt;51 -->
<g id="edge51" class="edge">
<title>0&#45;&gt;51</title>
<path fill="none" stroke="black" d="M2621.43,-103.99C2848.31,-103.85 4214.52,-101.66 4395.55,-69 4431.21,-62.57 4469.67,-46.53 4495.43,-34.34"/>
<polygon fill="black" stroke="black" points="4497.16,-37.39 4504.64,-29.89 4494.12,-31.09 4497.16,-37.39"/>
<text text-anchor="middle" x="4461.05" y="-57.8" font-family="Times,serif" font-size="14.00">dep</text>
</g>
<!-- 52 -->
<g id="node53" class="node">
<title>52</title>
<ellipse fill="none" stroke="black" cx="4620.55" cy="-18" rx="50.09" ry="18"/>
<text text-anchor="middle" x="4620.55" y="-14.3" font-family="Times,serif" font-size="14.00">propalar</text>
</g>
<!-- 0&#45;&gt;52 -->
<g id="edge52" class="edge">
<title>0&#45;&gt;52</title>
<path fill="none" stroke="black" d="M2621.4,-104.02C2854.11,-104.11 4288.81,-103.24 4478.55,-69 4514.44,-62.52 4553.4,-48.25 4581.41,-36.61"/>
<polygon fill="black" stroke="black" points="4583,-39.73 4590.84,-32.61 4580.27,-33.29 4583,-39.73"/>
<text text-anchor="middle" x="4548.05" y="-57.8" font-family="Times,serif" font-size="14.00">dep</text>
</g>
<!-- 53 -->
<g id="node54" class="node">
<title>53</title>
<ellipse fill="none" stroke="black" cx="4718.55" cy="-18" rx="29.8" ry="18"/>
<text text-anchor="middle" x="4718.55" y="-14.3" font-family="Times,serif" font-size="14.00">sem</text>
</g>
<!-- 0&#45;&gt;53 -->
<g id="edge53" class="edge">
<title>0&#45;&gt;53</title>
<path fill="none" stroke="black" d="M2621.69,-103.94C2861.35,-103.45 4365.8,-99.14 4565.55,-69 4617.7,-61.13 4629.93,-53.91 4679.55,-36 4681.64,-35.25 4683.77,-34.43 4685.91,-33.59"/>
<polygon fill="black" stroke="black" points="4687.32,-36.79 4695.23,-29.75 4684.66,-30.32 4687.32,-36.79"/>
<text text-anchor="middle" x="4643.05" y="-57.8" font-family="Times,serif" font-size="14.00">dep</text>
</g>
<!-- 54 -->
<g id="node55" class="node">
<title>54</title>
<ellipse fill="none" stroke="black" cx="4827.55" cy="-18" rx="61.19" ry="18"/>
<text text-anchor="middle" x="4827.55" y="-14.3" font-family="Times,serif" font-size="14.00">quantificar</text>
</g>
<!-- 0&#45;&gt;54 -->
<g id="edge54" class="edge">
<title>0&#45;&gt;54</title>
<path fill="none" stroke="black" d="M2621.65,-103.99C2867.74,-103.83 4450.89,-101.52 4660.55,-69 4702.87,-62.43 4749.44,-47.85 4782.63,-36.11"/>
<polygon fill="black" stroke="black" points="4783.81,-39.4 4792.04,-32.73 4781.45,-32.82 4783.81,-39.4"/>
<text text-anchor="middle" x="4740.05" y="-57.8" font-family="Times,serif" font-size="14.00">dep</text>
</g>
<!-- 55 -->
<g id="node56" class="node">
<title>55</title>
<ellipse fill="none" stroke="black" cx="4933.55" cy="-18" rx="27" ry="18"/>
<text text-anchor="middle" x="4933.55" y="-14.3" font-family="Times,serif" font-size="14.00">os</text>
</g>
<!-- 0&#45;&gt;55 -->
<g id="edge55" class="edge">
<title>0&#45;&gt;55</title>
<path fill="none" stroke="black" d="M2621.52,-103.9C2873.6,-103.06 4536.68,-96.49 4757.55,-69 4820.99,-61.1 4837.2,-57.1 4897.55,-36 4899.46,-35.33 4901.4,-34.6 4903.34,-33.81"/>
<polygon fill="black" stroke="black" points="4905.15,-36.85 4912.92,-29.65 4902.35,-30.43 4905.15,-36.85"/>
<text text-anchor="middle" x="4854.05" y="-57.8" font-family="Times,serif" font-size="14.00">dep</text>
</g>
<!-- 56 -->
<g id="node57" class="node">
<title>56</title>
<ellipse fill="none" stroke="black" cx="5032.55" cy="-18" rx="53.89" ry="18"/>
<text text-anchor="middle" x="5032.55" y="-14.3" font-family="Times,serif" font-size="14.00">proveitos</text>
</g>
<!-- 0&#45;&gt;56 -->
<g id="edge56" class="edge">
<title>0&#45;&gt;56</title>
<path fill="none" stroke="black" d="M2621.56,-104.06C2881.3,-104.49 4639.72,-105.99 4871.55,-69 4912.8,-62.42 4958.1,-47.63 4990.11,-35.84"/>
<polygon fill="black" stroke="black" points="4991.46,-39.07 4999.6,-32.28 4989.01,-32.51 4991.46,-39.07"/>
<text text-anchor="middle" x="4949.05" y="-57.8" font-family="Times,serif" font-size="14.00">dep</text>
</g>
<!-- 57 -->
<g id="node58" class="node">
<title>57</title>
<ellipse fill="none" stroke="black" cx="5131.55" cy="-18" rx="27" ry="18"/>
<text text-anchor="middle" x="5131.55" y="-14.3" font-family="Times,serif" font-size="14.00">de</text>
</g>
<!-- 0&#45;&gt;57 -->
<g id="edge57" class="edge">
<title>0&#45;&gt;57</title>
<path fill="none" stroke="black" d="M2621.61,-103.99C2887.51,-103.8 4723.77,-101.38 4966.55,-69 5025.21,-61.18 5039.87,-56.06 5095.55,-36 5097.4,-35.33 5099.29,-34.6 5101.18,-33.83"/>
<polygon fill="black" stroke="black" points="5102.75,-36.97 5110.51,-29.75 5099.95,-30.55 5102.75,-36.97"/>
<text text-anchor="middle" x="5057.05" y="-57.8" font-family="Times,serif" font-size="14.00">dep</text>
</g>
<!-- 58 -->
<g id="node59" class="node">
<title>58</title>
<ellipse fill="none" stroke="black" cx="5207.55" cy="-18" rx="30.59" ry="18"/>
<text text-anchor="middle" x="5207.55" y="-14.3" font-family="Times,serif" font-size="14.00">esta</text>
</g>
<!-- 0&#45;&gt;58 -->
<g id="edge58" class="edge">
<title>0&#45;&gt;58</title>
<path fill="none" stroke="black" d="M2621.46,-103.85C2902.52,-102.47 4948,-91.7 5074.55,-69 5110.66,-62.52 5149.71,-46.69 5176.08,-34.57"/>
<polygon fill="black" stroke="black" points="5177.63,-37.71 5185.2,-30.29 5174.66,-31.37 5177.63,-37.71"/>
<text text-anchor="middle" x="5141.05" y="-57.8" font-family="Times,serif" font-size="14.00">dep</text>
</g>
<!-- 59 -->
<g id="node60" class="node">
<title>59</title>
<ellipse fill="none" stroke="black" cx="5314.55" cy="-18" rx="58.49" ry="18"/>
<text text-anchor="middle" x="5314.55" y="-14.3" font-family="Times,serif" font-size="14.00">actividade</text>
</g>
<!-- 0&#45;&gt;59 -->
<g id="edge59" class="edge">
<title>0&#45;&gt;59</title>
<path fill="none" stroke="black" d="M2621.63,-103.83C2908.61,-102.32 5027.24,-90.45 5158.55,-69 5197.8,-62.59 5240.73,-48.26 5271.6,-36.58"/>
<polygon fill="black" stroke="black" points="5273.1,-39.75 5281.18,-32.89 5270.59,-33.21 5273.1,-39.75"/>
<text text-anchor="middle" x="5234.05" y="-57.8" font-family="Times,serif" font-size="14.00">dep</text>
</g>
<!-- 60 -->
<g id="node61" class="node">
<title>60</title>
<ellipse fill="none" stroke="black" cx="5417.55" cy="-18" rx="27" ry="18"/>
<text text-anchor="middle" x="5417.55" y="-14.3" font-family="Times,serif" font-size="14.00">.</text>
</g>
<!-- 0&#45;&gt;60 -->
<g id="edge60" class="edge">
<title>0&#45;&gt;60</title>
<path fill="none" stroke="black" d="M2621.78,-104.04C2905.87,-104.3 4978.46,-104.94 5251.55,-69 5310.65,-61.22 5325.45,-56.15 5381.55,-36 5383.4,-35.33 5385.29,-34.61 5387.18,-33.84"/>
<polygon fill="black" stroke="black" points="5388.75,-36.97 5396.51,-29.76 5385.95,-30.55 5388.75,-36.97"/>
<text text-anchor="middle" x="5343.05" y="-57.8" font-family="Times,serif" font-size="14.00">dep</text>
</g>
</g>
</svg>
