<?xml version="1.0" encoding="UTF-8" standalone="no"?>
<!DOCTYPE svg PUBLIC "-//W3C//DTD SVG 1.1//EN"
 "http://www.w3.org/Graphics/SVG/1.1/DTD/svg11.dtd">
<!-- Generated by graphviz version 2.42.4 (0)
 -->
<!-- Pages: 1 -->
<svg width="2406pt" height="131pt"
 viewBox="0.00 0.00 2405.90 131.00" xmlns="http://www.w3.org/2000/svg" xmlns:xlink="http://www.w3.org/1999/xlink">
<g id="graph0" class="graph" transform="scale(1 1) rotate(0) translate(4 127)">
<polygon fill="white" stroke="transparent" points="-4,4 -4,-127 2401.9,-127 2401.9,4 -4,4"/>
<!-- 0 -->
<g id="node1" class="node">
<title>0</title>
<ellipse fill="none" stroke="black" cx="1202.9" cy="-105" rx="27" ry="18"/>
<text text-anchor="middle" x="1202.9" y="-101.3" font-family="Times,serif" font-size="14.00">os</text>
</g>
<!-- 1 -->
<g id="node2" class="node">
<title>1</title>
<ellipse fill="none" stroke="black" cx="29.9" cy="-18" rx="29.8" ry="18"/>
<text text-anchor="middle" x="29.9" y="-14.3" font-family="Times,serif" font-size="14.00">dois</text>
</g>
<!-- 0&#45;&gt;1 -->
<g id="edge1" class="edge">
<title>0&#45;&gt;1</title>
<path fill="none" stroke="black" d="M1175.67,-103.83C1035.7,-102.83 396.13,-96.82 199.9,-69 140.45,-60.57 125.72,-55.39 68.9,-36 66.66,-35.24 64.36,-34.4 62.07,-33.51"/>
<polygon fill="black" stroke="black" points="63.33,-30.24 52.75,-29.71 60.68,-36.72 63.33,-30.24"/>
<text text-anchor="middle" x="213.4" y="-57.8" font-family="Times,serif" font-size="14.00">dep</text>
</g>
<!-- 2 -->
<g id="node3" class="node">
<title>2</title>
<ellipse fill="none" stroke="black" cx="135.9" cy="-18" rx="57.69" ry="18"/>
<text text-anchor="middle" x="135.9" y="-14.3" font-family="Times,serif" font-size="14.00">assimilam</text>
</g>
<!-- 0&#45;&gt;2 -->
<g id="edge2" class="edge">
<title>0&#45;&gt;2</title>
<path fill="none" stroke="black" d="M1175.78,-104.01C1043.18,-103.88 462.38,-101.47 284.9,-69 247.88,-62.23 207.51,-48.24 178.13,-36.78"/>
<polygon fill="black" stroke="black" points="179.2,-33.44 168.61,-33 176.62,-39.94 179.2,-33.44"/>
<text text-anchor="middle" x="298.4" y="-57.8" font-family="Times,serif" font-size="14.00">dep</text>
</g>
<!-- 3 -->
<g id="node4" class="node">
<title>3</title>
<ellipse fill="none" stroke="black" cx="238.9" cy="-18" rx="27" ry="18"/>
<text text-anchor="middle" x="238.9" y="-14.3" font-family="Times,serif" font-size="14.00">o</text>
</g>
<!-- 0&#45;&gt;3 -->
<g id="edge3" class="edge">
<title>0&#45;&gt;3</title>
<path fill="none" stroke="black" d="M1175.66,-103.99C1049.97,-103.78 525.38,-100.96 364.9,-69 330.67,-62.18 293.81,-46.48 268.85,-34.48"/>
<polygon fill="black" stroke="black" points="270.1,-31.19 259.58,-29.93 267.01,-37.48 270.1,-31.19"/>
<text text-anchor="middle" x="378.4" y="-57.8" font-family="Times,serif" font-size="14.00">dep</text>
</g>
<!-- 4 -->
<g id="node5" class="node">
<title>4</title>
<ellipse fill="none" stroke="black" cx="317.9" cy="-18" rx="33.6" ry="18"/>
<text text-anchor="middle" x="317.9" y="-14.3" font-family="Times,serif" font-size="14.00">facto</text>
</g>
<!-- 0&#45;&gt;4 -->
<g id="edge4" class="edge">
<title>0&#45;&gt;4</title>
<path fill="none" stroke="black" d="M1175.73,-104C1057.14,-103.79 584.43,-100.93 439.9,-69 408.13,-61.98 374.03,-47.34 349.98,-35.71"/>
<polygon fill="black" stroke="black" points="351.48,-32.55 340.96,-31.26 348.38,-38.83 351.48,-32.55"/>
<text text-anchor="middle" x="453.4" y="-57.8" font-family="Times,serif" font-size="14.00">dep</text>
</g>
<!-- 5 -->
<g id="node6" class="node">
<title>5</title>
<ellipse fill="none" stroke="black" cx="397.9" cy="-18" rx="27.9" ry="18"/>
<text text-anchor="middle" x="397.9" y="-14.3" font-family="Times,serif" font-size="14.00">que</text>
</g>
<!-- 0&#45;&gt;5 -->
<g id="edge5" class="edge">
<title>0&#45;&gt;5</title>
<path fill="none" stroke="black" d="M1175.95,-103.8C1065.44,-102.78 646.75,-97.1 517.9,-69 485.92,-62.03 451.66,-46.91 427.97,-35.11"/>
<polygon fill="black" stroke="black" points="429.31,-31.87 418.81,-30.45 426.14,-38.11 429.31,-31.87"/>
<text text-anchor="middle" x="531.4" y="-57.8" font-family="Times,serif" font-size="14.00">dep</text>
</g>
<!-- 6 -->
<g id="node7" class="node">
<title>6</title>
<ellipse fill="none" stroke="black" cx="470.9" cy="-18" rx="27" ry="18"/>
<text text-anchor="middle" x="470.9" y="-14.3" font-family="Times,serif" font-size="14.00">a</text>
</g>
<!-- 0&#45;&gt;6 -->
<g id="edge6" class="edge">
<title>0&#45;&gt;6</title>
<path fill="none" stroke="black" d="M1175.76,-103.46C1073.5,-101.26 711.59,-91.98 598.9,-69 564.07,-61.9 526.44,-46.13 501.05,-34.19"/>
<polygon fill="black" stroke="black" points="502.48,-30.99 491.95,-29.82 499.45,-37.3 502.48,-30.99"/>
<text text-anchor="middle" x="612.4" y="-57.8" font-family="Times,serif" font-size="14.00">dep</text>
</g>
<!-- 7 -->
<g id="node8" class="node">
<title>7</title>
<ellipse fill="none" stroke="black" cx="546.9" cy="-18" rx="30.59" ry="18"/>
<text text-anchor="middle" x="546.9" y="-14.3" font-family="Times,serif" font-size="14.00">vida</text>
</g>
<!-- 0&#45;&gt;7 -->
<g id="edge7" class="edge">
<title>0&#45;&gt;7</title>
<path fill="none" stroke="black" d="M1175.79,-103.22C1082.29,-100.35 773.7,-89.53 676.9,-69 642.29,-61.66 604.78,-46.38 578.98,-34.63"/>
<polygon fill="black" stroke="black" points="580.25,-31.36 569.7,-30.32 577.3,-37.71 580.25,-31.36"/>
<text text-anchor="middle" x="690.4" y="-57.8" font-family="Times,serif" font-size="14.00">dep</text>
</g>
<!-- 8 -->
<g id="node9" class="node">
<title>8</title>
<ellipse fill="none" stroke="black" cx="622.9" cy="-18" rx="27" ry="18"/>
<text text-anchor="middle" x="622.9" y="-14.3" font-family="Times,serif" font-size="14.00">é</text>
</g>
<!-- 0&#45;&gt;8 -->
<g id="edge8" class="edge">
<title>0&#45;&gt;8</title>
<path fill="none" stroke="black" d="M1175.9,-103.82C1107.19,-102.94 920.32,-97.86 767.9,-69 718.17,-59.58 706.13,-54.19 658.9,-36 657.06,-35.29 655.18,-34.53 653.3,-33.74"/>
<polygon fill="black" stroke="black" points="654.55,-30.46 643.99,-29.59 651.71,-36.86 654.55,-30.46"/>
<text text-anchor="middle" x="781.4" y="-57.8" font-family="Times,serif" font-size="14.00">dep</text>
</g>
<!-- 9 -->
<g id="node10" class="node">
<title>9</title>
<ellipse fill="none" stroke="black" cx="698.9" cy="-18" rx="30.59" ry="18"/>
<text text-anchor="middle" x="698.9" y="-14.3" font-family="Times,serif" font-size="14.00">uma</text>
</g>
<!-- 0&#45;&gt;9 -->
<g id="edge9" class="edge">
<title>0&#45;&gt;9</title>
<path fill="none" stroke="black" d="M1175.86,-102.34C1119.43,-98.6 985.1,-88.32 873.9,-69 812.62,-58.35 796.85,-55.83 737.9,-36 735.79,-35.29 733.64,-34.52 731.49,-33.7"/>
<polygon fill="black" stroke="black" points="732.73,-30.42 722.15,-29.92 730.11,-36.91 732.73,-30.42"/>
<text text-anchor="middle" x="887.4" y="-57.8" font-family="Times,serif" font-size="14.00">dep</text>
</g>
<!-- 10 -->
<g id="node11" class="node">
<title>10</title>
<ellipse fill="none" stroke="black" cx="790.9" cy="-18" rx="43.59" ry="18"/>
<text text-anchor="middle" x="790.9" y="-14.3" font-family="Times,serif" font-size="14.00">doença</text>
</g>
<!-- 0&#45;&gt;10 -->
<g id="edge10" class="edge">
<title>0&#45;&gt;10</title>
<path fill="none" stroke="black" d="M1176.42,-101.1C1132.43,-96.06 1041.65,-84.7 965.9,-69 910.48,-57.51 897.15,-52.13 842.9,-36 839.76,-35.07 836.52,-34.07 833.26,-33.06"/>
<polygon fill="black" stroke="black" points="834.14,-29.66 823.55,-29.97 832.02,-36.33 834.14,-29.66"/>
<text text-anchor="middle" x="979.4" y="-57.8" font-family="Times,serif" font-size="14.00">dep</text>
</g>
<!-- 11 -->
<g id="node12" class="node">
<title>11</title>
<ellipse fill="none" stroke="black" cx="905.9" cy="-18" rx="53.89" ry="18"/>
<text text-anchor="middle" x="905.9" y="-14.3" font-family="Times,serif" font-size="14.00">incurável</text>
</g>
<!-- 0&#45;&gt;11 -->
<g id="edge11" class="edge">
<title>0&#45;&gt;11</title>
<path fill="none" stroke="black" d="M1176.97,-99.51C1144.92,-93.69 1088.86,-82.67 1041.9,-69 1009.84,-59.67 974.48,-46.58 947.85,-36.13"/>
<polygon fill="black" stroke="black" points="949.04,-32.84 938.45,-32.41 946.46,-39.35 949.04,-32.84"/>
<text text-anchor="middle" x="1055.4" y="-57.8" font-family="Times,serif" font-size="14.00">dep</text>
</g>
<!-- 12 -->
<g id="node13" class="node">
<title>12</title>
<ellipse fill="none" stroke="black" cx="1007.9" cy="-18" rx="29.8" ry="18"/>
<text text-anchor="middle" x="1007.9" y="-14.3" font-family="Times,serif" font-size="14.00">com</text>
</g>
<!-- 0&#45;&gt;12 -->
<g id="edge12" class="edge">
<title>0&#45;&gt;12</title>
<path fill="none" stroke="black" d="M1178.57,-96.88C1157.64,-90.46 1126.8,-80.32 1100.9,-69 1079.01,-59.44 1055.31,-46.66 1037.32,-36.41"/>
<polygon fill="black" stroke="black" points="1038.88,-33.27 1028.47,-31.32 1035.39,-39.34 1038.88,-33.27"/>
<text text-anchor="middle" x="1114.4" y="-57.8" font-family="Times,serif" font-size="14.00">dep</text>
</g>
<!-- 13 -->
<g id="node14" class="node">
<title>13</title>
<ellipse fill="none" stroke="black" cx="1085.9" cy="-18" rx="30.59" ry="18"/>
<text text-anchor="middle" x="1085.9" y="-14.3" font-family="Times,serif" font-size="14.00">uma</text>
</g>
<!-- 0&#45;&gt;13 -->
<g id="edge13" class="edge">
<title>0&#45;&gt;13</title>
<path fill="none" stroke="black" d="M1183.93,-91.65C1173.99,-85.07 1161.67,-76.76 1150.9,-69 1137.7,-59.49 1123.33,-48.51 1111.47,-39.27"/>
<polygon fill="black" stroke="black" points="1113.36,-36.3 1103.33,-32.89 1109.04,-41.81 1113.36,-36.3"/>
<text text-anchor="middle" x="1164.4" y="-57.8" font-family="Times,serif" font-size="14.00">dep</text>
</g>
<!-- 14 -->
<g id="node15" class="node">
<title>14</title>
<ellipse fill="none" stroke="black" cx="1164.9" cy="-18" rx="30.59" ry="18"/>
<text text-anchor="middle" x="1164.9" y="-14.3" font-family="Times,serif" font-size="14.00">taxa</text>
</g>
<!-- 0&#45;&gt;14 -->
<g id="edge14" class="edge">
<title>0&#45;&gt;14</title>
<path fill="none" stroke="black" d="M1195.57,-87.61C1190.19,-75.58 1182.77,-58.98 1176.58,-45.13"/>
<polygon fill="black" stroke="black" points="1179.61,-43.33 1172.33,-35.63 1173.22,-46.19 1179.61,-43.33"/>
<text text-anchor="middle" x="1200.4" y="-57.8" font-family="Times,serif" font-size="14.00">dep</text>
</g>
<!-- 15 -->
<g id="node16" class="node">
<title>15</title>
<ellipse fill="none" stroke="black" cx="1240.9" cy="-18" rx="27" ry="18"/>
<text text-anchor="middle" x="1240.9" y="-14.3" font-family="Times,serif" font-size="14.00">de</text>
</g>
<!-- 0&#45;&gt;15 -->
<g id="edge15" class="edge">
<title>0&#45;&gt;15</title>
<path fill="none" stroke="black" d="M1210.22,-87.61C1215.64,-75.5 1223.12,-58.77 1229.34,-44.86"/>
<polygon fill="black" stroke="black" points="1232.71,-45.9 1233.59,-35.34 1226.32,-43.04 1232.71,-45.9"/>
<text text-anchor="middle" x="1238.4" y="-57.8" font-family="Times,serif" font-size="14.00">dep</text>
</g>
<!-- 16 -->
<g id="node17" class="node">
<title>16</title>
<ellipse fill="none" stroke="black" cx="1352.9" cy="-18" rx="66.89" ry="18"/>
<text text-anchor="middle" x="1352.9" y="-14.3" font-family="Times,serif" font-size="14.00">mortalidade</text>
</g>
<!-- 0&#45;&gt;16 -->
<g id="edge16" class="edge">
<title>0&#45;&gt;16</title>
<path fill="none" stroke="black" d="M1222.82,-92.71C1246.72,-79.17 1287.27,-56.19 1316.75,-39.48"/>
<polygon fill="black" stroke="black" points="1318.54,-42.49 1325.51,-34.52 1315.09,-36.4 1318.54,-42.49"/>
<text text-anchor="middle" x="1300.4" y="-57.8" font-family="Times,serif" font-size="14.00">dep</text>
</g>
<!-- 17 -->
<g id="node18" class="node">
<title>17</title>
<ellipse fill="none" stroke="black" cx="1464.9" cy="-18" rx="27" ry="18"/>
<text text-anchor="middle" x="1464.9" y="-14.3" font-family="Times,serif" font-size="14.00">de</text>
</g>
<!-- 0&#45;&gt;17 -->
<g id="edge17" class="edge">
<title>0&#45;&gt;17</title>
<path fill="none" stroke="black" d="M1227.71,-97.83C1269.75,-87.09 1357.37,-63.47 1428.9,-36 1430.74,-35.29 1432.61,-34.53 1434.49,-33.74"/>
<polygon fill="black" stroke="black" points="1436.09,-36.86 1443.8,-29.6 1433.25,-30.47 1436.09,-36.86"/>
<text text-anchor="middle" x="1388.4" y="-57.8" font-family="Times,serif" font-size="14.00">dep</text>
</g>
<!-- 18 -->
<g id="node19" class="node">
<title>18</title>
<ellipse fill="none" stroke="black" cx="1538.9" cy="-18" rx="28.7" ry="18"/>
<text text-anchor="middle" x="1538.9" y="-14.3" font-family="Times,serif" font-size="14.00">100</text>
</g>
<!-- 0&#45;&gt;18 -->
<g id="edge18" class="edge">
<title>0&#45;&gt;18</title>
<path fill="none" stroke="black" d="M1229.47,-100.83C1268.53,-95.85 1343.57,-85.08 1405.9,-69 1449.18,-57.83 1459.35,-52.48 1500.9,-36 1502.97,-35.18 1505.1,-34.31 1507.23,-33.41"/>
<polygon fill="black" stroke="black" points="1508.74,-36.57 1516.53,-29.39 1505.96,-30.15 1508.74,-36.57"/>
<text text-anchor="middle" x="1468.4" y="-57.8" font-family="Times,serif" font-size="14.00">dep</text>
</g>
<!-- 19 -->
<g id="node20" class="node">
<title>19</title>
<ellipse fill="none" stroke="black" cx="1612.9" cy="-18" rx="27" ry="18"/>
<text text-anchor="middle" x="1612.9" y="-14.3" font-family="Times,serif" font-size="14.00">por</text>
</g>
<!-- 0&#45;&gt;19 -->
<g id="edge19" class="edge">
<title>0&#45;&gt;19</title>
<path fill="none" stroke="black" d="M1229.79,-102.69C1280.5,-99.78 1393.47,-91.18 1485.9,-69 1520.07,-60.8 1557.27,-45.32 1582.53,-33.75"/>
<polygon fill="black" stroke="black" points="1584.33,-36.77 1591.92,-29.37 1581.37,-30.42 1584.33,-36.77"/>
<text text-anchor="middle" x="1546.4" y="-57.8" font-family="Times,serif" font-size="14.00">dep</text>
</g>
<!-- 20 -->
<g id="node21" class="node">
<title>20</title>
<ellipse fill="none" stroke="black" cx="1693.9" cy="-18" rx="36.29" ry="18"/>
<text text-anchor="middle" x="1693.9" y="-14.3" font-family="Times,serif" font-size="14.00">cento</text>
</g>
<!-- 0&#45;&gt;20 -->
<g id="edge20" class="edge">
<title>0&#45;&gt;20</title>
<path fill="none" stroke="black" d="M1230.02,-103.86C1290.7,-103 1441.64,-97.87 1563.9,-69 1597.29,-61.11 1633.59,-46.61 1659.33,-35.25"/>
<polygon fill="black" stroke="black" points="1660.96,-38.36 1668.65,-31.07 1658.09,-31.97 1660.96,-38.36"/>
<text text-anchor="middle" x="1625.4" y="-57.8" font-family="Times,serif" font-size="14.00">dep</text>
</g>
<!-- 21 -->
<g id="node22" class="node">
<title>21</title>
<ellipse fill="none" stroke="black" cx="1774.9" cy="-18" rx="27" ry="18"/>
<text text-anchor="middle" x="1774.9" y="-14.3" font-family="Times,serif" font-size="14.00">,</text>
</g>
<!-- 0&#45;&gt;21 -->
<g id="edge21" class="edge">
<title>0&#45;&gt;21</title>
<path fill="none" stroke="black" d="M1230.02,-104.2C1299.47,-104.2 1489.1,-101.02 1642.9,-69 1678.85,-61.52 1717.94,-45.66 1744.18,-33.8"/>
<polygon fill="black" stroke="black" points="1745.95,-36.84 1753.57,-29.47 1743.02,-30.48 1745.95,-36.84"/>
<text text-anchor="middle" x="1705.4" y="-57.8" font-family="Times,serif" font-size="14.00">dep</text>
</g>
<!-- 22 -->
<g id="node23" class="node">
<title>22</title>
<ellipse fill="none" stroke="black" cx="1846.9" cy="-18" rx="27" ry="18"/>
<text text-anchor="middle" x="1846.9" y="-14.3" font-family="Times,serif" font-size="14.00">e</text>
</g>
<!-- 0&#45;&gt;22 -->
<g id="edge22" class="edge">
<title>0&#45;&gt;22</title>
<path fill="none" stroke="black" d="M1230.02,-103.22C1322.85,-100.37 1627.38,-89.66 1722.9,-69 1756.35,-61.77 1792.39,-46.28 1816.95,-34.45"/>
<polygon fill="black" stroke="black" points="1818.66,-37.51 1826.09,-29.96 1815.58,-31.23 1818.66,-37.51"/>
<text text-anchor="middle" x="1782.4" y="-57.8" font-family="Times,serif" font-size="14.00">dep</text>
</g>
<!-- 23 -->
<g id="node24" class="node">
<title>23</title>
<ellipse fill="none" stroke="black" cx="1918.9" cy="-18" rx="27" ry="18"/>
<text text-anchor="middle" x="1918.9" y="-14.3" font-family="Times,serif" font-size="14.00">se</text>
</g>
<!-- 0&#45;&gt;23 -->
<g id="edge23" class="edge">
<title>0&#45;&gt;23</title>
<path fill="none" stroke="black" d="M1230.1,-103.56C1331.73,-101.72 1689.04,-93.61 1799.9,-69 1831.81,-61.91 1866,-46.66 1889.51,-34.86"/>
<polygon fill="black" stroke="black" points="1891.28,-37.88 1898.58,-30.2 1888.09,-31.65 1891.28,-37.88"/>
<text text-anchor="middle" x="1861.4" y="-57.8" font-family="Times,serif" font-size="14.00">dep</text>
</g>
<!-- 24 -->
<g id="node25" class="node">
<title>24</title>
<ellipse fill="none" stroke="black" cx="2007.9" cy="-18" rx="44.39" ry="18"/>
<text text-anchor="middle" x="2007.9" y="-14.3" font-family="Times,serif" font-size="14.00">tornam</text>
</g>
<!-- 0&#45;&gt;24 -->
<g id="edge24" class="edge">
<title>0&#45;&gt;24</title>
<path fill="none" stroke="black" d="M1229.86,-103.74C1339.45,-102.53 1751.77,-96.2 1878.9,-69 1911.39,-62.05 1946.43,-48.01 1971.78,-36.58"/>
<polygon fill="black" stroke="black" points="1973.37,-39.7 1981,-32.34 1970.45,-33.34 1973.37,-39.7"/>
<text text-anchor="middle" x="1940.4" y="-57.8" font-family="Times,serif" font-size="14.00">dep</text>
</g>
<!-- 25 -->
<g id="node26" class="node">
<title>25</title>
<ellipse fill="none" stroke="black" cx="2123.9" cy="-18" rx="53.89" ry="18"/>
<text text-anchor="middle" x="2123.9" y="-14.3" font-family="Times,serif" font-size="14.00">melhores</text>
</g>
<!-- 0&#45;&gt;25 -->
<g id="edge25" class="edge">
<title>0&#45;&gt;25</title>
<path fill="none" stroke="black" d="M1230.11,-103.64C1347.82,-101.92 1813.69,-93.67 1957.9,-69 2000.24,-61.76 2046.97,-47.05 2080.03,-35.45"/>
<polygon fill="black" stroke="black" points="2081.59,-38.61 2089.84,-31.96 2079.24,-32.02 2081.59,-38.61"/>
<text text-anchor="middle" x="2032.4" y="-57.8" font-family="Times,serif" font-size="14.00">dep</text>
</g>
<!-- 26 -->
<g id="node27" class="node">
<title>26</title>
<ellipse fill="none" stroke="black" cx="2222.9" cy="-18" rx="27" ry="18"/>
<text text-anchor="middle" x="2222.9" y="-14.3" font-family="Times,serif" font-size="14.00">por</text>
</g>
<!-- 0&#45;&gt;26 -->
<g id="edge26" class="edge">
<title>0&#45;&gt;26</title>
<path fill="none" stroke="black" d="M1229.94,-103.59C1355.9,-101.59 1885.92,-91.91 2049.9,-69 2111.93,-60.33 2127.83,-56.81 2186.9,-36 2188.8,-35.33 2190.75,-34.59 2192.69,-33.8"/>
<polygon fill="black" stroke="black" points="2194.49,-36.83 2202.26,-29.63 2191.7,-30.42 2194.49,-36.83"/>
<text text-anchor="middle" x="2145.4" y="-57.8" font-family="Times,serif" font-size="14.00">dep</text>
</g>
<!-- 27 -->
<g id="node28" class="node">
<title>27</title>
<ellipse fill="none" stroke="black" cx="2296.9" cy="-18" rx="28.7" ry="18"/>
<text text-anchor="middle" x="2296.9" y="-14.3" font-family="Times,serif" font-size="14.00">isso</text>
</g>
<!-- 0&#45;&gt;27 -->
<g id="edge27" class="edge">
<title>0&#45;&gt;27</title>
<path fill="none" stroke="black" d="M1229.9,-104.09C1365.91,-104.36 1976.79,-103.59 2162.9,-69 2199.42,-62.21 2239.03,-46.28 2265.64,-34.21"/>
<polygon fill="black" stroke="black" points="2267.21,-37.33 2274.82,-29.96 2264.27,-30.98 2267.21,-37.33"/>
<text text-anchor="middle" x="2229.4" y="-57.8" font-family="Times,serif" font-size="14.00">dep</text>
</g>
<!-- 28 -->
<g id="node29" class="node">
<title>28</title>
<ellipse fill="none" stroke="black" cx="2370.9" cy="-18" rx="27" ry="18"/>
<text text-anchor="middle" x="2370.9" y="-14.3" font-family="Times,serif" font-size="14.00">.</text>
</g>
<!-- 0&#45;&gt;28 -->
<g id="edge28" class="edge">
<title>0&#45;&gt;28</title>
<path fill="none" stroke="black" d="M1229.88,-104.28C1372.96,-105.57 2043.9,-109.34 2246.9,-69 2280.66,-62.29 2316.92,-46.57 2341.46,-34.54"/>
<polygon fill="black" stroke="black" points="2343.2,-37.58 2350.57,-29.97 2340.06,-31.32 2343.2,-37.58"/>
<text text-anchor="middle" x="2310.4" y="-57.8" font-family="Times,serif" font-size="14.00">dep</text>
</g>
</g>
</svg>
