<?xml version="1.0" encoding="UTF-8" standalone="no"?>
<!DOCTYPE svg PUBLIC "-//W3C//DTD SVG 1.1//EN"
 "http://www.w3.org/Graphics/SVG/1.1/DTD/svg11.dtd">
<!-- Generated by graphviz version 2.42.4 (0)
 -->
<!-- Pages: 1 -->
<svg width="1644pt" height="131pt"
 viewBox="0.00 0.00 1644.00 131.00" xmlns="http://www.w3.org/2000/svg" xmlns:xlink="http://www.w3.org/1999/xlink">
<g id="graph0" class="graph" transform="scale(1 1) rotate(0) translate(4 127)">
<polygon fill="white" stroke="transparent" points="-4,4 -4,-127 1640,-127 1640,4 -4,4"/>
<!-- 0 -->
<g id="node1" class="node">
<title>0</title>
<ellipse fill="none" stroke="black" cx="811" cy="-105" rx="27" ry="18"/>
<text text-anchor="middle" x="811" y="-101.3" font-family="Times,serif" font-size="14.00">«</text>
</g>
<!-- 1 -->
<g id="node2" class="node">
<title>1</title>
<ellipse fill="none" stroke="black" cx="27" cy="-18" rx="27" ry="18"/>
<text text-anchor="middle" x="27" y="-14.3" font-family="Times,serif" font-size="14.00">O</text>
</g>
<!-- 0&#45;&gt;1 -->
<g id="edge1" class="edge">
<title>0&#45;&gt;1</title>
<path fill="none" stroke="black" d="M783.83,-103.37C677.99,-100.76 293.2,-90.02 173,-69 122.72,-60.21 110.66,-54.28 63,-36 61.16,-35.29 59.28,-34.54 57.4,-33.74"/>
<polygon fill="black" stroke="black" points="58.65,-30.47 48.09,-29.6 55.81,-36.86 58.65,-30.47"/>
<text text-anchor="middle" x="186.5" y="-57.8" font-family="Times,serif" font-size="14.00">dep</text>
</g>
<!-- 2 -->
<g id="node3" class="node">
<title>2</title>
<ellipse fill="none" stroke="black" cx="116" cy="-18" rx="44.39" ry="18"/>
<text text-anchor="middle" x="116" y="-14.3" font-family="Times,serif" font-size="14.00">choque</text>
</g>
<!-- 0&#45;&gt;2 -->
<g id="edge2" class="edge">
<title>0&#45;&gt;2</title>
<path fill="none" stroke="black" d="M784,-103.32C687.09,-100.72 357.16,-90.47 254,-69 219.12,-61.74 181.17,-47.49 153.91,-36.06"/>
<polygon fill="black" stroke="black" points="154.95,-32.7 144.38,-31.99 152.2,-39.14 154.95,-32.7"/>
<text text-anchor="middle" x="267.5" y="-57.8" font-family="Times,serif" font-size="14.00">dep</text>
</g>
<!-- 3 -->
<g id="node4" class="node">
<title>3</title>
<ellipse fill="none" stroke="black" cx="205" cy="-18" rx="27" ry="18"/>
<text text-anchor="middle" x="205" y="-14.3" font-family="Times,serif" font-size="14.00">foi</text>
</g>
<!-- 0&#45;&gt;3 -->
<g id="edge3" class="edge">
<title>0&#45;&gt;3</title>
<path fill="none" stroke="black" d="M784.1,-103.04C696.14,-99.75 417.75,-88.06 330,-69 296.12,-61.64 259.55,-46.03 234.76,-34.19"/>
<polygon fill="black" stroke="black" points="236.08,-30.94 225.55,-29.71 233.01,-37.23 236.08,-30.94"/>
<text text-anchor="middle" x="343.5" y="-57.8" font-family="Times,serif" font-size="14.00">dep</text>
</g>
<!-- 4 -->
<g id="node5" class="node">
<title>4</title>
<ellipse fill="none" stroke="black" cx="277" cy="-18" rx="27" ry="18"/>
<text text-anchor="middle" x="277" y="-14.3" font-family="Times,serif" font-size="14.00">em</text>
</g>
<!-- 0&#45;&gt;4 -->
<g id="edge4" class="edge">
<title>0&#45;&gt;4</title>
<path fill="none" stroke="black" d="M783.78,-103.95C718.29,-103.32 547.07,-98.71 408,-69 372.33,-61.38 333.53,-45.55 307.49,-33.73"/>
<polygon fill="black" stroke="black" points="308.71,-30.44 298.17,-29.42 305.78,-36.79 308.71,-30.44"/>
<text text-anchor="middle" x="421.5" y="-57.8" font-family="Times,serif" font-size="14.00">dep</text>
</g>
<!-- 5 -->
<g id="node6" class="node">
<title>5</title>
<ellipse fill="none" stroke="black" cx="349" cy="-18" rx="27" ry="18"/>
<text text-anchor="middle" x="349" y="-14.3" font-family="Times,serif" font-size="14.00">a</text>
</g>
<!-- 0&#45;&gt;5 -->
<g id="edge5" class="edge">
<title>0&#45;&gt;5</title>
<path fill="none" stroke="black" d="M784.18,-102.33C730.7,-98.7 607.11,-88.76 505,-69 450.69,-58.49 436.87,-55.21 385,-36 383.15,-35.32 381.27,-34.57 379.38,-33.79"/>
<polygon fill="black" stroke="black" points="380.62,-30.51 370.06,-29.69 377.8,-36.92 380.62,-30.51"/>
<text text-anchor="middle" x="518.5" y="-57.8" font-family="Times,serif" font-size="14.00">dep</text>
</g>
<!-- 6 -->
<g id="node7" class="node">
<title>6</title>
<ellipse fill="none" stroke="black" cx="447" cy="-18" rx="53.09" ry="18"/>
<text text-anchor="middle" x="447" y="-14.3" font-family="Times,serif" font-size="14.00">ecografia</text>
</g>
<!-- 0&#45;&gt;6 -->
<g id="edge6" class="edge">
<title>0&#45;&gt;6</title>
<path fill="none" stroke="black" d="M784.43,-101.75C741.23,-97.7 653.32,-87.78 581,-69 548.79,-60.63 513.57,-47.32 487.33,-36.54"/>
<polygon fill="black" stroke="black" points="488.66,-33.3 478.09,-32.69 485.97,-39.76 488.66,-33.3"/>
<text text-anchor="middle" x="594.5" y="-57.8" font-family="Times,serif" font-size="14.00">dep</text>
</g>
<!-- 7 -->
<g id="node8" class="node">
<title>7</title>
<ellipse fill="none" stroke="black" cx="545" cy="-18" rx="27" ry="18"/>
<text text-anchor="middle" x="545" y="-14.3" font-family="Times,serif" font-size="14.00">,</text>
</g>
<!-- 0&#45;&gt;7 -->
<g id="edge7" class="edge">
<title>0&#45;&gt;7</title>
<path fill="none" stroke="black" d="M784.73,-100.51C751.71,-95.65 693.58,-85.53 646,-69 620.47,-60.13 593.09,-46.28 573.28,-35.4"/>
<polygon fill="black" stroke="black" points="574.92,-32.3 564.48,-30.49 571.51,-38.42 574.92,-32.3"/>
<text text-anchor="middle" x="659.5" y="-57.8" font-family="Times,serif" font-size="14.00">dep</text>
</g>
<!-- 8 -->
<g id="node9" class="node">
<title>8</title>
<ellipse fill="none" stroke="black" cx="617" cy="-18" rx="27" ry="18"/>
<text text-anchor="middle" x="617" y="-14.3" font-family="Times,serif" font-size="14.00">vão</text>
</g>
<!-- 0&#45;&gt;8 -->
<g id="edge8" class="edge">
<title>0&#45;&gt;8</title>
<path fill="none" stroke="black" d="M786.4,-96.97C765.24,-90.61 734.1,-80.5 708,-69 686.23,-59.41 662.71,-46.41 645.04,-36.08"/>
<polygon fill="black" stroke="black" points="646.77,-33.03 636.38,-30.95 643.2,-39.05 646.77,-33.03"/>
<text text-anchor="middle" x="721.5" y="-57.8" font-family="Times,serif" font-size="14.00">dep</text>
</g>
<!-- 9 -->
<g id="node10" class="node">
<title>9</title>
<ellipse fill="none" stroke="black" cx="696" cy="-18" rx="34.39" ry="18"/>
<text text-anchor="middle" x="696" y="-14.3" font-family="Times,serif" font-size="14.00">fazer</text>
</g>
<!-- 0&#45;&gt;9 -->
<g id="edge9" class="edge">
<title>0&#45;&gt;9</title>
<path fill="none" stroke="black" d="M791.98,-91.71C782.03,-85.16 769.71,-76.84 759,-69 746.39,-59.78 732.78,-49.07 721.44,-39.93"/>
<polygon fill="black" stroke="black" points="723.61,-37.18 713.63,-33.6 719.2,-42.62 723.61,-37.18"/>
<text text-anchor="middle" x="772.5" y="-57.8" font-family="Times,serif" font-size="14.00">dep</text>
</g>
<!-- 10 -->
<g id="node11" class="node">
<title>10</title>
<ellipse fill="none" stroke="black" cx="775" cy="-18" rx="27" ry="18"/>
<text text-anchor="middle" x="775" y="-14.3" font-family="Times,serif" font-size="14.00">já</text>
</g>
<!-- 0&#45;&gt;10 -->
<g id="edge10" class="edge">
<title>0&#45;&gt;10</title>
<path fill="none" stroke="black" d="M803.89,-87.21C798.78,-75.14 791.79,-58.64 785.97,-44.89"/>
<polygon fill="black" stroke="black" points="789.1,-43.31 781.98,-35.47 782.65,-46.04 789.1,-43.31"/>
<text text-anchor="middle" x="808.5" y="-57.8" font-family="Times,serif" font-size="14.00">dep</text>
</g>
<!-- 11 -->
<g id="node12" class="node">
<title>11</title>
<ellipse fill="none" stroke="black" cx="847" cy="-18" rx="27" ry="18"/>
<text text-anchor="middle" x="847" y="-14.3" font-family="Times,serif" font-size="14.00">18</text>
</g>
<!-- 0&#45;&gt;11 -->
<g id="edge11" class="edge">
<title>0&#45;&gt;11</title>
<path fill="none" stroke="black" d="M818.11,-87.21C823.22,-75.14 830.21,-58.64 836.03,-44.89"/>
<polygon fill="black" stroke="black" points="839.35,-46.04 840.02,-35.47 832.9,-43.31 839.35,-46.04"/>
<text text-anchor="middle" x="844.5" y="-57.8" font-family="Times,serif" font-size="14.00">dep</text>
</g>
<!-- 12 -->
<g id="node13" class="node">
<title>12</title>
<ellipse fill="none" stroke="black" cx="924" cy="-18" rx="32.49" ry="18"/>
<text text-anchor="middle" x="924" y="-14.3" font-family="Times,serif" font-size="14.00">anos</text>
</g>
<!-- 0&#45;&gt;12 -->
<g id="edge12" class="edge">
<title>0&#45;&gt;12</title>
<path fill="none" stroke="black" d="M829.65,-91.7C839.42,-85.14 851.49,-76.82 862,-69 874.37,-59.79 887.74,-49.11 898.88,-39.99"/>
<polygon fill="black" stroke="black" points="901.42,-42.43 906.91,-33.37 896.97,-37.03 901.42,-42.43"/>
<text text-anchor="middle" x="894.5" y="-57.8" font-family="Times,serif" font-size="14.00">dep</text>
</g>
<!-- 13 -->
<g id="node14" class="node">
<title>13</title>
<ellipse fill="none" stroke="black" cx="1001" cy="-18" rx="27" ry="18"/>
<text text-anchor="middle" x="1001" y="-14.3" font-family="Times,serif" font-size="14.00">,</text>
</g>
<!-- 0&#45;&gt;13 -->
<g id="edge13" class="edge">
<title>0&#45;&gt;13</title>
<path fill="none" stroke="black" d="M835.55,-96.84C856.3,-90.47 886.61,-80.42 912,-69 933.14,-59.49 955.91,-46.65 973.12,-36.36"/>
<polygon fill="black" stroke="black" points="975.33,-39.12 982.07,-30.94 971.7,-33.13 975.33,-39.12"/>
<text text-anchor="middle" x="955.5" y="-57.8" font-family="Times,serif" font-size="14.00">dep</text>
</g>
<!-- 14 -->
<g id="node15" class="node">
<title>14</title>
<ellipse fill="none" stroke="black" cx="1073" cy="-18" rx="27" ry="18"/>
<text text-anchor="middle" x="1073" y="-14.3" font-family="Times,serif" font-size="14.00">e</text>
</g>
<!-- 0&#45;&gt;14 -->
<g id="edge14" class="edge">
<title>0&#45;&gt;14</title>
<path fill="none" stroke="black" d="M837.37,-100.39C869.9,-95.46 926.58,-85.33 973,-69 998.02,-60.2 1024.82,-46.55 1044.37,-35.73"/>
<polygon fill="black" stroke="black" points="1046.35,-38.64 1053.35,-30.68 1042.92,-32.54 1046.35,-38.64"/>
<text text-anchor="middle" x="1020.5" y="-57.8" font-family="Times,serif" font-size="14.00">dep</text>
</g>
<!-- 15 -->
<g id="node16" class="node">
<title>15</title>
<ellipse fill="none" stroke="black" cx="1145" cy="-18" rx="27" ry="18"/>
<text text-anchor="middle" x="1145" y="-14.3" font-family="Times,serif" font-size="14.00">só</text>
</g>
<!-- 0&#45;&gt;15 -->
<g id="edge15" class="edge">
<title>0&#45;&gt;15</title>
<path fill="none" stroke="black" d="M837.75,-102.32C880.76,-99.09 967.59,-90.32 1038,-69 1065.57,-60.65 1095.1,-46.41 1116.14,-35.25"/>
<polygon fill="black" stroke="black" points="1118.04,-38.21 1125.17,-30.38 1114.71,-32.05 1118.04,-38.21"/>
<text text-anchor="middle" x="1090.5" y="-57.8" font-family="Times,serif" font-size="14.00">dep</text>
</g>
<!-- 16 -->
<g id="node17" class="node">
<title>16</title>
<ellipse fill="none" stroke="black" cx="1269" cy="-18" rx="79.09" ry="18"/>
<text text-anchor="middle" x="1269" y="-14.3" font-family="Times,serif" font-size="14.00">suspeitávamos</text>
</g>
<!-- 0&#45;&gt;16 -->
<g id="edge16" class="edge">
<title>0&#45;&gt;16</title>
<path fill="none" stroke="black" d="M837.89,-102.49C890.33,-99.18 1009.73,-89.87 1108,-69 1145.98,-60.94 1187.82,-47.81 1219.33,-37.02"/>
<polygon fill="black" stroke="black" points="1220.88,-40.19 1229.18,-33.61 1218.59,-33.58 1220.88,-40.19"/>
<text text-anchor="middle" x="1174.5" y="-57.8" font-family="Times,serif" font-size="14.00">dep</text>
</g>
<!-- 17 -->
<g id="node18" class="node">
<title>17</title>
<ellipse fill="none" stroke="black" cx="1393" cy="-18" rx="27" ry="18"/>
<text text-anchor="middle" x="1393" y="-14.3" font-family="Times,serif" font-size="14.00">de</text>
</g>
<!-- 0&#45;&gt;17 -->
<g id="edge17" class="edge">
<title>0&#45;&gt;17</title>
<path fill="none" stroke="black" d="M837.91,-102.51C900.35,-98.84 1059.88,-88.23 1192,-69 1266.01,-58.23 1285.99,-59.47 1357,-36 1358.92,-35.37 1360.87,-34.65 1362.82,-33.89"/>
<polygon fill="black" stroke="black" points="1364.61,-36.93 1372.41,-29.77 1361.84,-30.5 1364.61,-36.93"/>
<text text-anchor="middle" x="1305.5" y="-57.8" font-family="Times,serif" font-size="14.00">dep</text>
</g>
<!-- 18 -->
<g id="node19" class="node">
<title>18</title>
<ellipse fill="none" stroke="black" cx="1465" cy="-18" rx="27" ry="18"/>
<text text-anchor="middle" x="1465" y="-14.3" font-family="Times,serif" font-size="14.00">um</text>
</g>
<!-- 0&#45;&gt;18 -->
<g id="edge18" class="edge">
<title>0&#45;&gt;18</title>
<path fill="none" stroke="black" d="M838.2,-104.36C915.07,-104.9 1140.19,-103.22 1323,-69 1371.5,-59.92 1383.02,-53.91 1429,-36 1430.84,-35.28 1432.71,-34.52 1434.59,-33.72"/>
<polygon fill="black" stroke="black" points="1436.19,-36.84 1443.89,-29.57 1433.34,-30.45 1436.19,-36.84"/>
<text text-anchor="middle" x="1395.5" y="-57.8" font-family="Times,serif" font-size="14.00">dep</text>
</g>
<!-- 19 -->
<g id="node20" class="node">
<title>19</title>
<ellipse fill="none" stroke="black" cx="1537" cy="-18" rx="27" ry="18"/>
<text text-anchor="middle" x="1537" y="-14.3" font-family="Times,serif" font-size="14.00">»</text>
</g>
<!-- 0&#45;&gt;19 -->
<g id="edge19" class="edge">
<title>0&#45;&gt;19</title>
<path fill="none" stroke="black" d="M838.06,-103.5C940.02,-101.47 1300.84,-92.72 1413,-69 1446.48,-61.92 1482.52,-46.41 1507.07,-34.53"/>
<polygon fill="black" stroke="black" points="1508.79,-37.59 1516.21,-30.02 1505.69,-31.31 1508.79,-37.59"/>
<text text-anchor="middle" x="1475.5" y="-57.8" font-family="Times,serif" font-size="14.00">dep</text>
</g>
<!-- 20 -->
<g id="node21" class="node">
<title>20</title>
<ellipse fill="none" stroke="black" cx="1609" cy="-18" rx="27" ry="18"/>
<text text-anchor="middle" x="1609" y="-14.3" font-family="Times,serif" font-size="14.00">.</text>
</g>
<!-- 0&#45;&gt;20 -->
<g id="edge20" class="edge">
<title>0&#45;&gt;20</title>
<path fill="none" stroke="black" d="M838.21,-103.83C948.85,-102.96 1365.04,-97.78 1493,-69 1523.89,-62.05 1556.83,-47.04 1579.69,-35.27"/>
<polygon fill="black" stroke="black" points="1581.61,-38.21 1588.83,-30.45 1578.35,-32.01 1581.61,-38.21"/>
<text text-anchor="middle" x="1552.5" y="-57.8" font-family="Times,serif" font-size="14.00">dep</text>
</g>
</g>
</svg>
