<?xml version="1.0" encoding="UTF-8" standalone="no"?>
<!DOCTYPE svg PUBLIC "-//W3C//DTD SVG 1.1//EN"
 "http://www.w3.org/Graphics/SVG/1.1/DTD/svg11.dtd">
<!-- Generated by graphviz version 2.42.4 (0)
 -->
<!-- Pages: 1 -->
<svg width="1022pt" height="131pt"
 viewBox="0.00 0.00 1022.45 131.00" xmlns="http://www.w3.org/2000/svg" xmlns:xlink="http://www.w3.org/1999/xlink">
<g id="graph0" class="graph" transform="scale(1 1) rotate(0) translate(4 127)">
<polygon fill="white" stroke="transparent" points="-4,4 -4,-127 1018.45,-127 1018.45,4 -4,4"/>
<!-- 0 -->
<g id="node1" class="node">
<title>0</title>
<ellipse fill="none" stroke="black" cx="521.45" cy="-105" rx="32.49" ry="18"/>
<text text-anchor="middle" x="521.45" y="-101.3" font-family="Times,serif" font-size="14.00">Uma</text>
</g>
<!-- 1 -->
<g id="node2" class="node">
<title>1</title>
<ellipse fill="none" stroke="black" cx="34.45" cy="-18" rx="34.39" ry="18"/>
<text text-anchor="middle" x="34.45" y="-14.3" font-family="Times,serif" font-size="14.00">certa</text>
</g>
<!-- 0&#45;&gt;1 -->
<g id="edge1" class="edge">
<title>0&#45;&gt;1</title>
<path fill="none" stroke="black" d="M489.27,-102.2C415.16,-97.38 227.29,-81.33 77.45,-36 75.03,-35.27 72.55,-34.46 70.07,-33.6"/>
<polygon fill="black" stroke="black" points="71.18,-30.28 60.58,-30.13 68.77,-36.85 71.18,-30.28"/>
<text text-anchor="middle" x="222.95" y="-57.8" font-family="Times,serif" font-size="14.00">dep</text>
</g>
<!-- 2 -->
<g id="node3" class="node">
<title>2</title>
<ellipse fill="none" stroke="black" cx="152.45" cy="-18" rx="65.79" ry="18"/>
<text text-anchor="middle" x="152.45" y="-14.3" font-family="Times,serif" font-size="14.00">criatividade</text>
</g>
<!-- 0&#45;&gt;2 -->
<g id="edge2" class="edge">
<title>0&#45;&gt;2</title>
<path fill="none" stroke="black" d="M489.94,-99.89C449.48,-94.32 377.23,-83.39 316.45,-69 277.34,-59.74 233.86,-46.34 201.5,-35.74"/>
<polygon fill="black" stroke="black" points="202.42,-32.36 191.83,-32.55 200.23,-39.01 202.42,-32.36"/>
<text text-anchor="middle" x="329.95" y="-57.8" font-family="Times,serif" font-size="14.00">dep</text>
</g>
<!-- 3 -->
<g id="node4" class="node">
<title>3</title>
<ellipse fill="none" stroke="black" cx="264.45" cy="-18" rx="27.9" ry="18"/>
<text text-anchor="middle" x="264.45" y="-14.3" font-family="Times,serif" font-size="14.00">que</text>
</g>
<!-- 0&#45;&gt;3 -->
<g id="edge3" class="edge">
<title>0&#45;&gt;3</title>
<path fill="none" stroke="black" d="M492.11,-97.11C465.2,-90.58 424.34,-80.14 389.45,-69 349.65,-56.3 340.01,-52.06 301.45,-36 299.59,-35.23 297.68,-34.41 295.77,-33.58"/>
<polygon fill="black" stroke="black" points="296.8,-30.21 286.24,-29.33 293.95,-36.6 296.8,-30.21"/>
<text text-anchor="middle" x="402.95" y="-57.8" font-family="Times,serif" font-size="14.00">dep</text>
</g>
<!-- 4 -->
<g id="node5" class="node">
<title>4</title>
<ellipse fill="none" stroke="black" cx="357.45" cy="-18" rx="47.39" ry="18"/>
<text text-anchor="middle" x="357.45" y="-14.3" font-family="Times,serif" font-size="14.00">permite</text>
</g>
<!-- 0&#45;&gt;4 -->
<g id="edge4" class="edge">
<title>0&#45;&gt;4</title>
<path fill="none" stroke="black" d="M496.92,-92.89C482.42,-86.2 463.76,-77.38 447.45,-69 428.66,-59.35 408.05,-47.96 391.3,-38.49"/>
<polygon fill="black" stroke="black" points="392.85,-35.35 382.43,-33.45 389.39,-41.44 392.85,-35.35"/>
<text text-anchor="middle" x="460.95" y="-57.8" font-family="Times,serif" font-size="14.00">dep</text>
</g>
<!-- 5 -->
<g id="node6" class="node">
<title>5</title>
<ellipse fill="none" stroke="black" cx="449.45" cy="-18" rx="27" ry="18"/>
<text text-anchor="middle" x="449.45" y="-14.3" font-family="Times,serif" font-size="14.00">a</text>
</g>
<!-- 0&#45;&gt;5 -->
<g id="edge5" class="edge">
<title>0&#45;&gt;5</title>
<path fill="none" stroke="black" d="M507.43,-88.43C502.07,-82.41 495.92,-75.42 490.45,-69 483.13,-60.41 475.24,-50.86 468.35,-42.43"/>
<polygon fill="black" stroke="black" points="470.88,-39.99 461.86,-34.44 465.45,-44.41 470.88,-39.99"/>
<text text-anchor="middle" x="503.95" y="-57.8" font-family="Times,serif" font-size="14.00">dep</text>
</g>
<!-- 6 -->
<g id="node7" class="node">
<title>6</title>
<ellipse fill="none" stroke="black" cx="521.45" cy="-18" rx="27" ry="18"/>
<text text-anchor="middle" x="521.45" y="-14.3" font-family="Times,serif" font-size="14.00">as</text>
</g>
<!-- 0&#45;&gt;6 -->
<g id="edge6" class="edge">
<title>0&#45;&gt;6</title>
<path fill="none" stroke="black" d="M521.45,-86.8C521.45,-75.16 521.45,-59.55 521.45,-46.24"/>
<polygon fill="black" stroke="black" points="524.95,-46.18 521.45,-36.18 517.95,-46.18 524.95,-46.18"/>
<text text-anchor="middle" x="534.95" y="-57.8" font-family="Times,serif" font-size="14.00">dep</text>
</g>
<!-- 7 -->
<g id="node8" class="node">
<title>7</title>
<ellipse fill="none" stroke="black" cx="613.45" cy="-18" rx="47.39" ry="18"/>
<text text-anchor="middle" x="613.45" y="-14.3" font-family="Times,serif" font-size="14.00">pessoas</text>
</g>
<!-- 0&#45;&gt;7 -->
<g id="edge7" class="edge">
<title>0&#45;&gt;7</title>
<path fill="none" stroke="black" d="M537.47,-89.19C551.54,-76.2 572.24,-57.08 588.48,-42.07"/>
<polygon fill="black" stroke="black" points="591.07,-44.44 596.04,-35.08 586.32,-39.3 591.07,-44.44"/>
<text text-anchor="middle" x="586.95" y="-57.8" font-family="Times,serif" font-size="14.00">dep</text>
</g>
<!-- 8 -->
<g id="node9" class="node">
<title>8</title>
<ellipse fill="none" stroke="black" cx="718.45" cy="-18" rx="39.79" ry="18"/>
<text text-anchor="middle" x="718.45" y="-14.3" font-family="Times,serif" font-size="14.00">serem</text>
</g>
<!-- 0&#45;&gt;8 -->
<g id="edge8" class="edge">
<title>0&#45;&gt;8</title>
<path fill="none" stroke="black" d="M546.55,-93.52C563.03,-86.62 585.05,-77.34 604.45,-69 630.21,-57.92 659.16,-45.22 681.43,-35.39"/>
<polygon fill="black" stroke="black" points="683.12,-38.48 690.85,-31.23 680.29,-32.07 683.12,-38.48"/>
<text text-anchor="middle" x="652.95" y="-57.8" font-family="Times,serif" font-size="14.00">dep</text>
</g>
<!-- 9 -->
<g id="node10" class="node">
<title>9</title>
<ellipse fill="none" stroke="black" cx="823.45" cy="-18" rx="47.39" ry="18"/>
<text text-anchor="middle" x="823.45" y="-14.3" font-family="Times,serif" font-size="14.00">eficazes</text>
</g>
<!-- 0&#45;&gt;9 -->
<g id="edge9" class="edge">
<title>0&#45;&gt;9</title>
<path fill="none" stroke="black" d="M551.32,-97.77C581.54,-91.28 629.51,-80.47 670.45,-69 707.96,-58.49 749.99,-44.59 780.49,-34.12"/>
<polygon fill="black" stroke="black" points="781.66,-37.42 789.97,-30.85 779.38,-30.81 781.66,-37.42"/>
<text text-anchor="middle" x="730.95" y="-57.8" font-family="Times,serif" font-size="14.00">dep</text>
</g>
<!-- 10 -->
<g id="node11" class="node">
<title>10</title>
<ellipse fill="none" stroke="black" cx="915.45" cy="-18" rx="27" ry="18"/>
<text text-anchor="middle" x="915.45" y="-14.3" font-family="Times,serif" font-size="14.00">.</text>
</g>
<!-- 0&#45;&gt;10 -->
<g id="edge10" class="edge">
<title>0&#45;&gt;10</title>
<path fill="none" stroke="black" d="M553.45,-101.3C617.14,-95.19 763.61,-77.5 879.45,-36 881.3,-35.34 883.19,-34.61 885.08,-33.84"/>
<polygon fill="black" stroke="black" points="886.65,-36.97 894.42,-29.77 883.85,-30.56 886.65,-36.97"/>
<text text-anchor="middle" x="826.95" y="-57.8" font-family="Times,serif" font-size="14.00">dep</text>
</g>
<!-- 11 -->
<g id="node12" class="node">
<title>11</title>
<ellipse fill="none" stroke="black" cx="987.45" cy="-18" rx="27" ry="18"/>
<text text-anchor="middle" x="987.45" y="-14.3" font-family="Times,serif" font-size="14.00">»</text>
</g>
<!-- 0&#45;&gt;11 -->
<g id="edge11" class="edge">
<title>0&#45;&gt;11</title>
<path fill="none" stroke="black" d="M553.86,-102.54C612.41,-99.45 739.49,-90.66 844.45,-69 893.19,-58.94 905.05,-54 951.45,-36 953.28,-35.29 955.16,-34.52 957.04,-33.73"/>
<polygon fill="black" stroke="black" points="958.64,-36.85 966.34,-29.58 955.79,-30.45 958.64,-36.85"/>
<text text-anchor="middle" x="915.95" y="-57.8" font-family="Times,serif" font-size="14.00">dep</text>
</g>
</g>
</svg>
