<?xml version="1.0" encoding="UTF-8" standalone="no"?>
<!DOCTYPE svg PUBLIC "-//W3C//DTD SVG 1.1//EN"
 "http://www.w3.org/Graphics/SVG/1.1/DTD/svg11.dtd">
<!-- Generated by graphviz version 2.42.4 (0)
 -->
<!-- Pages: 1 -->
<svg width="936pt" height="131pt"
 viewBox="0.00 0.00 936.30 131.00" xmlns="http://www.w3.org/2000/svg" xmlns:xlink="http://www.w3.org/1999/xlink">
<g id="graph0" class="graph" transform="scale(1 1) rotate(0) translate(4 127)">
<polygon fill="white" stroke="transparent" points="-4,4 -4,-127 932.3,-127 932.3,4 -4,4"/>
<!-- 0 -->
<g id="node1" class="node">
<title>0</title>
<ellipse fill="none" stroke="black" cx="453.3" cy="-105" rx="27" ry="18"/>
<text text-anchor="middle" x="453.3" y="-101.3" font-family="Times,serif" font-size="14.00">«</text>
</g>
<!-- 1 -->
<g id="node2" class="node">
<title>1</title>
<ellipse fill="none" stroke="black" cx="27.3" cy="-18" rx="27.1" ry="18"/>
<text text-anchor="middle" x="27.3" y="-14.3" font-family="Times,serif" font-size="14.00">Era</text>
</g>
<!-- 0&#45;&gt;1 -->
<g id="edge1" class="edge">
<title>0&#45;&gt;1</title>
<path fill="none" stroke="black" d="M426.37,-103.22C372.71,-101.15 248.94,-93.87 148.3,-69 116.1,-61.04 81.3,-45.92 57.33,-34.38"/>
<polygon fill="black" stroke="black" points="58.59,-31.1 48.07,-29.84 55.51,-37.38 58.59,-31.1"/>
<text text-anchor="middle" x="161.8" y="-57.8" font-family="Times,serif" font-size="14.00">dep</text>
</g>
<!-- 2 -->
<g id="node3" class="node">
<title>2</title>
<ellipse fill="none" stroke="black" cx="99.3" cy="-18" rx="27" ry="18"/>
<text text-anchor="middle" x="99.3" y="-14.3" font-family="Times,serif" font-size="14.00">um</text>
</g>
<!-- 0&#45;&gt;2 -->
<g id="edge2" class="edge">
<title>0&#45;&gt;2</title>
<path fill="none" stroke="black" d="M426.62,-101.64C383.69,-97.47 296.85,-87.41 225.3,-69 191.7,-60.35 155.01,-45.08 129.93,-33.69"/>
<polygon fill="black" stroke="black" points="131.14,-30.39 120.59,-29.38 128.21,-36.74 131.14,-30.39"/>
<text text-anchor="middle" x="238.8" y="-57.8" font-family="Times,serif" font-size="14.00">dep</text>
</g>
<!-- 3 -->
<g id="node4" class="node">
<title>3</title>
<ellipse fill="none" stroke="black" cx="175.3" cy="-18" rx="30.59" ry="18"/>
<text text-anchor="middle" x="175.3" y="-14.3" font-family="Times,serif" font-size="14.00">cara</text>
</g>
<!-- 0&#45;&gt;3 -->
<g id="edge3" class="edge">
<title>0&#45;&gt;3</title>
<path fill="none" stroke="black" d="M427.4,-99.57C395.99,-93.89 341.64,-83.07 296.3,-69 258.78,-57.35 250.53,-51.18 214.3,-36 212.46,-35.23 210.57,-34.43 208.67,-33.62"/>
<polygon fill="black" stroke="black" points="209.75,-30.27 199.18,-29.54 206.98,-36.7 209.75,-30.27"/>
<text text-anchor="middle" x="309.8" y="-57.8" font-family="Times,serif" font-size="14.00">dep</text>
</g>
<!-- 4 -->
<g id="node5" class="node">
<title>4</title>
<ellipse fill="none" stroke="black" cx="251.3" cy="-18" rx="27.9" ry="18"/>
<text text-anchor="middle" x="251.3" y="-14.3" font-family="Times,serif" font-size="14.00">que</text>
</g>
<!-- 0&#45;&gt;4 -->
<g id="edge4" class="edge">
<title>0&#45;&gt;4</title>
<path fill="none" stroke="black" d="M429.81,-95.67C410.9,-88.85 383.71,-78.76 360.3,-69 327.81,-55.46 320.29,-50.68 288.3,-36 286.51,-35.18 284.68,-34.34 282.84,-33.49"/>
<polygon fill="black" stroke="black" points="284.15,-30.24 273.6,-29.25 281.23,-36.61 284.15,-30.24"/>
<text text-anchor="middle" x="373.8" y="-57.8" font-family="Times,serif" font-size="14.00">dep</text>
</g>
<!-- 5 -->
<g id="node6" class="node">
<title>5</title>
<ellipse fill="none" stroke="black" cx="342.3" cy="-18" rx="45.49" ry="18"/>
<text text-anchor="middle" x="342.3" y="-14.3" font-family="Times,serif" font-size="14.00">sempre</text>
</g>
<!-- 0&#45;&gt;5 -->
<g id="edge5" class="edge">
<title>0&#45;&gt;5</title>
<path fill="none" stroke="black" d="M435.95,-90.72C418.48,-77.34 391.24,-56.48 370.63,-40.69"/>
<polygon fill="black" stroke="black" points="372.6,-37.79 362.53,-34.49 368.34,-43.35 372.6,-37.79"/>
<text text-anchor="middle" x="418.8" y="-57.8" font-family="Times,serif" font-size="14.00">dep</text>
</g>
<!-- 6 -->
<g id="node7" class="node">
<title>6</title>
<ellipse fill="none" stroke="black" cx="453.3" cy="-18" rx="47.39" ry="18"/>
<text text-anchor="middle" x="453.3" y="-14.3" font-family="Times,serif" font-size="14.00">apostou</text>
</g>
<!-- 0&#45;&gt;6 -->
<g id="edge6" class="edge">
<title>0&#45;&gt;6</title>
<path fill="none" stroke="black" d="M453.3,-86.8C453.3,-75.16 453.3,-59.55 453.3,-46.24"/>
<polygon fill="black" stroke="black" points="456.8,-46.18 453.3,-36.18 449.8,-46.18 456.8,-46.18"/>
<text text-anchor="middle" x="466.8" y="-57.8" font-family="Times,serif" font-size="14.00">dep</text>
</g>
<!-- 7 -->
<g id="node8" class="node">
<title>7</title>
<ellipse fill="none" stroke="black" cx="545.3" cy="-18" rx="27" ry="18"/>
<text text-anchor="middle" x="545.3" y="-14.3" font-family="Times,serif" font-size="14.00">em</text>
</g>
<!-- 0&#45;&gt;7 -->
<g id="edge7" class="edge">
<title>0&#45;&gt;7</title>
<path fill="none" stroke="black" d="M468.49,-89.96C483.14,-76.43 505.5,-55.77 522.33,-40.22"/>
<polygon fill="black" stroke="black" points="525.11,-42.41 530.08,-33.06 520.36,-37.27 525.11,-42.41"/>
<text text-anchor="middle" x="518.8" y="-57.8" font-family="Times,serif" font-size="14.00">dep</text>
</g>
<!-- 8 -->
<g id="node9" class="node">
<title>8</title>
<ellipse fill="none" stroke="black" cx="617.3" cy="-18" rx="27" ry="18"/>
<text text-anchor="middle" x="617.3" y="-14.3" font-family="Times,serif" font-size="14.00">o</text>
</g>
<!-- 0&#45;&gt;8 -->
<g id="edge8" class="edge">
<title>0&#45;&gt;8</title>
<path fill="none" stroke="black" d="M476.27,-95.41C493.18,-88.83 516.56,-79.18 536.3,-69 554.96,-59.38 575.05,-46.99 590.56,-36.95"/>
<polygon fill="black" stroke="black" points="592.66,-39.76 599.11,-31.35 588.83,-33.9 592.66,-39.76"/>
<text text-anchor="middle" x="575.8" y="-57.8" font-family="Times,serif" font-size="14.00">dep</text>
</g>
<!-- 9 -->
<g id="node10" class="node">
<title>9</title>
<ellipse fill="none" stroke="black" cx="690.3" cy="-18" rx="27.9" ry="18"/>
<text text-anchor="middle" x="690.3" y="-14.3" font-family="Times,serif" font-size="14.00">que</text>
</g>
<!-- 0&#45;&gt;9 -->
<g id="edge9" class="edge">
<title>0&#45;&gt;9</title>
<path fill="none" stroke="black" d="M479.13,-99.4C507.64,-93.91 554.62,-83.58 593.3,-69 617.22,-59.98 642.87,-46.58 661.78,-35.92"/>
<polygon fill="black" stroke="black" points="663.54,-38.95 670.49,-30.94 660.07,-32.87 663.54,-38.95"/>
<text text-anchor="middle" x="639.8" y="-57.8" font-family="Times,serif" font-size="14.00">dep</text>
</g>
<!-- 10 -->
<g id="node11" class="node">
<title>10</title>
<ellipse fill="none" stroke="black" cx="796.3" cy="-18" rx="59.59" ry="18"/>
<text text-anchor="middle" x="796.3" y="-14.3" font-family="Times,serif" font-size="14.00">acreditava</text>
</g>
<!-- 0&#45;&gt;10 -->
<g id="edge10" class="edge">
<title>0&#45;&gt;10</title>
<path fill="none" stroke="black" d="M479.7,-100.97C518.89,-96.15 594.58,-85.52 657.3,-69 689.99,-60.39 725.86,-47.39 752.98,-36.8"/>
<polygon fill="black" stroke="black" points="754.53,-39.95 762.55,-33.03 751.96,-33.44 754.53,-39.95"/>
<text text-anchor="middle" x="717.8" y="-57.8" font-family="Times,serif" font-size="14.00">dep</text>
</g>
<!-- 11 -->
<g id="node12" class="node">
<title>11</title>
<ellipse fill="none" stroke="black" cx="901.3" cy="-18" rx="27" ry="18"/>
<text text-anchor="middle" x="901.3" y="-14.3" font-family="Times,serif" font-size="14.00">.</text>
</g>
<!-- 0&#45;&gt;11 -->
<g id="edge11" class="edge">
<title>0&#45;&gt;11</title>
<path fill="none" stroke="black" d="M479.91,-101.82C530.13,-97.45 642.21,-86.52 735.3,-69 793.88,-57.97 809.2,-56.15 865.3,-36 867.15,-35.33 869.04,-34.61 870.93,-33.84"/>
<polygon fill="black" stroke="black" points="872.5,-36.97 880.26,-29.76 869.7,-30.55 872.5,-36.97"/>
<text text-anchor="middle" x="821.8" y="-57.8" font-family="Times,serif" font-size="14.00">dep</text>
</g>
</g>
</svg>
