<?xml version="1.0" encoding="UTF-8" standalone="no"?>
<!DOCTYPE svg PUBLIC "-//W3C//DTD SVG 1.1//EN"
 "http://www.w3.org/Graphics/SVG/1.1/DTD/svg11.dtd">
<!-- Generated by graphviz version 2.42.4 (0)
 -->
<!-- Pages: 1 -->
<svg width="2031pt" height="131pt"
 viewBox="0.00 0.00 2031.25 131.00" xmlns="http://www.w3.org/2000/svg" xmlns:xlink="http://www.w3.org/1999/xlink">
<g id="graph0" class="graph" transform="scale(1 1) rotate(0) translate(4 127)">
<polygon fill="white" stroke="transparent" points="-4,4 -4,-127 2027.25,-127 2027.25,4 -4,4"/>
<!-- 0 -->
<g id="node1" class="node">
<title>0</title>
<ellipse fill="none" stroke="black" cx="978.25" cy="-105" rx="27" ry="18"/>
<text text-anchor="middle" x="978.25" y="-101.3" font-family="Times,serif" font-size="14.00">A</text>
</g>
<!-- 1 -->
<g id="node2" class="node">
<title>1</title>
<ellipse fill="none" stroke="black" cx="42.25" cy="-18" rx="42.49" ry="18"/>
<text text-anchor="middle" x="42.25" y="-14.3" font-family="Times,serif" font-size="14.00">pensar</text>
</g>
<!-- 0&#45;&gt;1 -->
<g id="edge1" class="edge">
<title>0&#45;&gt;1</title>
<path fill="none" stroke="black" d="M951.26,-103.98C829.05,-103.74 326.84,-100.78 173.25,-69 140.06,-62.13 104.23,-47.95 78.44,-36.44"/>
<polygon fill="black" stroke="black" points="79.63,-33.13 69.08,-32.17 76.73,-39.5 79.63,-33.13"/>
<text text-anchor="middle" x="186.75" y="-57.8" font-family="Times,serif" font-size="14.00">dep</text>
</g>
<!-- 2 -->
<g id="node3" class="node">
<title>2</title>
<ellipse fill="none" stroke="black" cx="129.25" cy="-18" rx="27" ry="18"/>
<text text-anchor="middle" x="129.25" y="-14.3" font-family="Times,serif" font-size="14.00">em</text>
</g>
<!-- 0&#45;&gt;2 -->
<g id="edge2" class="edge">
<title>0&#45;&gt;2</title>
<path fill="none" stroke="black" d="M951.26,-103.83C836.64,-102.93 389.68,-97.63 252.25,-69 218.98,-62.07 183.23,-46.54 158.9,-34.61"/>
<polygon fill="black" stroke="black" points="160.35,-31.43 149.84,-30.08 157.22,-37.69 160.35,-31.43"/>
<text text-anchor="middle" x="265.75" y="-57.8" font-family="Times,serif" font-size="14.00">dep</text>
</g>
<!-- 3 -->
<g id="node4" class="node">
<title>3</title>
<ellipse fill="none" stroke="black" cx="201.25" cy="-18" rx="27" ry="18"/>
<text text-anchor="middle" x="201.25" y="-14.3" font-family="Times,serif" font-size="14.00">os</text>
</g>
<!-- 0&#45;&gt;3 -->
<g id="edge3" class="edge">
<title>0&#45;&gt;3</title>
<path fill="none" stroke="black" d="M951.06,-103.43C845.18,-101.07 460.24,-91.14 340.25,-69 292.97,-60.28 281.96,-53.63 237.25,-36 235.41,-35.28 233.54,-34.5 231.67,-33.7"/>
<polygon fill="black" stroke="black" points="232.92,-30.43 222.36,-29.54 230.06,-36.82 232.92,-30.43"/>
<text text-anchor="middle" x="353.75" y="-57.8" font-family="Times,serif" font-size="14.00">dep</text>
</g>
<!-- 4 -->
<g id="node5" class="node">
<title>4</title>
<ellipse fill="none" stroke="black" cx="278.25" cy="-18" rx="32.49" ry="18"/>
<text text-anchor="middle" x="278.25" y="-14.3" font-family="Times,serif" font-size="14.00">mais</text>
</g>
<!-- 0&#45;&gt;4 -->
<g id="edge4" class="edge">
<title>0&#45;&gt;4</title>
<path fill="none" stroke="black" d="M951.37,-103.17C854.91,-100.08 526.45,-88.33 423.25,-69 383.98,-61.65 340.93,-45.74 312.02,-33.83"/>
<polygon fill="black" stroke="black" points="313.36,-30.59 302.79,-29.96 310.66,-37.05 313.36,-30.59"/>
<text text-anchor="middle" x="436.75" y="-57.8" font-family="Times,serif" font-size="14.00">dep</text>
</g>
<!-- 5 -->
<g id="node6" class="node">
<title>5</title>
<ellipse fill="none" stroke="black" cx="366.25" cy="-18" rx="37.89" ry="18"/>
<text text-anchor="middle" x="366.25" y="-14.3" font-family="Times,serif" font-size="14.00">novos</text>
</g>
<!-- 0&#45;&gt;5 -->
<g id="edge5" class="edge">
<title>0&#45;&gt;5</title>
<path fill="none" stroke="black" d="M951.16,-104.57C878.1,-105.56 671.28,-104.72 504.25,-69 468.51,-61.36 429.52,-46.59 402.12,-35.08"/>
<polygon fill="black" stroke="black" points="403.15,-31.71 392.58,-31 400.4,-38.15 403.15,-31.71"/>
<text text-anchor="middle" x="517.75" y="-57.8" font-family="Times,serif" font-size="14.00">dep</text>
</g>
<!-- 6 -->
<g id="node7" class="node">
<title>6</title>
<ellipse fill="none" stroke="black" cx="449.25" cy="-18" rx="27" ry="18"/>
<text text-anchor="middle" x="449.25" y="-14.3" font-family="Times,serif" font-size="14.00">,</text>
</g>
<!-- 0&#45;&gt;6 -->
<g id="edge6" class="edge">
<title>0&#45;&gt;6</title>
<path fill="none" stroke="black" d="M950.98,-103.41C887.72,-101.63 726.32,-94.73 594.25,-69 544.56,-59.32 532.48,-54.19 485.25,-36 483.41,-35.29 481.53,-34.53 479.65,-33.74"/>
<polygon fill="black" stroke="black" points="480.9,-30.46 470.34,-29.59 478.05,-36.86 480.9,-30.46"/>
<text text-anchor="middle" x="607.75" y="-57.8" font-family="Times,serif" font-size="14.00">dep</text>
</g>
<!-- 7 -->
<g id="node8" class="node">
<title>7</title>
<ellipse fill="none" stroke="black" cx="521.25" cy="-18" rx="27" ry="18"/>
<text text-anchor="middle" x="521.25" y="-14.3" font-family="Times,serif" font-size="14.00">o</text>
</g>
<!-- 0&#45;&gt;7 -->
<g id="edge7" class="edge">
<title>0&#45;&gt;7</title>
<path fill="none" stroke="black" d="M951.49,-102.48C883.89,-98.05 701.38,-82.37 557.25,-36 555.32,-35.38 553.37,-34.68 551.41,-33.93"/>
<polygon fill="black" stroke="black" points="552.38,-30.54 541.81,-29.83 549.64,-36.98 552.38,-30.54"/>
<text text-anchor="middle" x="695.75" y="-57.8" font-family="Times,serif" font-size="14.00">dep</text>
</g>
<!-- 8 -->
<g id="node9" class="node">
<title>8</title>
<ellipse fill="none" stroke="black" cx="623.25" cy="-18" rx="56.59" ry="18"/>
<text text-anchor="middle" x="623.25" y="-14.3" font-family="Times,serif" font-size="14.00">Programa</text>
</g>
<!-- 0&#45;&gt;8 -->
<g id="edge8" class="edge">
<title>0&#45;&gt;8</title>
<path fill="none" stroke="black" d="M952.97,-98.35C902.52,-87.03 785.8,-60.5 688.25,-36 683.93,-34.92 679.46,-33.78 674.97,-32.62"/>
<polygon fill="black" stroke="black" points="675.73,-29.21 665.17,-30.09 673.98,-35.98 675.73,-29.21"/>
<text text-anchor="middle" x="836.75" y="-57.8" font-family="Times,serif" font-size="14.00">dep</text>
</g>
<!-- 9 -->
<g id="node10" class="node">
<title>9</title>
<ellipse fill="none" stroke="black" cx="759.25" cy="-18" rx="61.99" ry="18"/>
<text text-anchor="middle" x="759.25" y="-14.3" font-family="Times,serif" font-size="14.00">Aquajúnior</text>
</g>
<!-- 0&#45;&gt;9 -->
<g id="edge9" class="edge">
<title>0&#45;&gt;9</title>
<path fill="none" stroke="black" d="M955.22,-95.06C919.54,-81.22 850.23,-54.31 804.34,-36.5"/>
<polygon fill="black" stroke="black" points="805.51,-33.2 794.92,-32.85 802.98,-39.73 805.51,-33.2"/>
<text text-anchor="middle" x="895.75" y="-57.8" font-family="Times,serif" font-size="14.00">dep</text>
</g>
<!-- 10 -->
<g id="node11" class="node">
<title>10</title>
<ellipse fill="none" stroke="black" cx="886.25" cy="-18" rx="47.39" ry="18"/>
<text text-anchor="middle" x="886.25" y="-14.3" font-family="Times,serif" font-size="14.00">permite</text>
</g>
<!-- 0&#45;&gt;10 -->
<g id="edge10" class="edge">
<title>0&#45;&gt;10</title>
<path fill="none" stroke="black" d="M963.05,-89.96C948.93,-76.92 927.64,-57.24 911.05,-41.92"/>
<polygon fill="black" stroke="black" points="913.06,-39.01 903.34,-34.79 908.31,-44.15 913.06,-39.01"/>
<text text-anchor="middle" x="951.75" y="-57.8" font-family="Times,serif" font-size="14.00">dep</text>
</g>
<!-- 11 -->
<g id="node12" class="node">
<title>11</title>
<ellipse fill="none" stroke="black" cx="978.25" cy="-18" rx="27" ry="18"/>
<text text-anchor="middle" x="978.25" y="-14.3" font-family="Times,serif" font-size="14.00">a</text>
</g>
<!-- 0&#45;&gt;11 -->
<g id="edge11" class="edge">
<title>0&#45;&gt;11</title>
<path fill="none" stroke="black" d="M978.25,-86.8C978.25,-75.16 978.25,-59.55 978.25,-46.24"/>
<polygon fill="black" stroke="black" points="981.75,-46.18 978.25,-36.18 974.75,-46.18 981.75,-46.18"/>
<text text-anchor="middle" x="991.75" y="-57.8" font-family="Times,serif" font-size="14.00">dep</text>
</g>
<!-- 12 -->
<g id="node13" class="node">
<title>12</title>
<ellipse fill="none" stroke="black" cx="1078.25" cy="-18" rx="55.49" ry="18"/>
<text text-anchor="middle" x="1078.25" y="-14.3" font-family="Times,serif" font-size="14.00">utilização</text>
</g>
<!-- 0&#45;&gt;12 -->
<g id="edge12" class="edge">
<title>0&#45;&gt;12</title>
<path fill="none" stroke="black" d="M994.31,-90.34C1009.73,-77.24 1033.3,-57.21 1051.54,-41.7"/>
<polygon fill="black" stroke="black" points="1054.14,-44.08 1059.49,-34.94 1049.61,-38.75 1054.14,-44.08"/>
<text text-anchor="middle" x="1047.75" y="-57.8" font-family="Times,serif" font-size="14.00">dep</text>
</g>
<!-- 13 -->
<g id="node14" class="node">
<title>13</title>
<ellipse fill="none" stroke="black" cx="1178.25" cy="-18" rx="27" ry="18"/>
<text text-anchor="middle" x="1178.25" y="-14.3" font-family="Times,serif" font-size="14.00">de</text>
</g>
<!-- 0&#45;&gt;13 -->
<g id="edge13" class="edge">
<title>0&#45;&gt;13</title>
<path fill="none" stroke="black" d="M1000.98,-95.08C1032.81,-82.47 1092.36,-58.46 1142.25,-36 1144.04,-35.19 1145.88,-34.35 1147.74,-33.5"/>
<polygon fill="black" stroke="black" points="1149.4,-36.59 1156.99,-29.2 1146.44,-30.24 1149.4,-36.59"/>
<text text-anchor="middle" x="1111.75" y="-57.8" font-family="Times,serif" font-size="14.00">dep</text>
</g>
<!-- 14 -->
<g id="node15" class="node">
<title>14</title>
<ellipse fill="none" stroke="black" cx="1284.25" cy="-18" rx="61.19" ry="18"/>
<text text-anchor="middle" x="1284.25" y="-14.3" font-family="Times,serif" font-size="14.00">programas</text>
</g>
<!-- 0&#45;&gt;14 -->
<g id="edge14" class="edge">
<title>0&#45;&gt;14</title>
<path fill="none" stroke="black" d="M1003.79,-98.77C1033.95,-92.43 1085.54,-81.09 1129.25,-69 1165.64,-58.93 1206.24,-45.76 1236.76,-35.46"/>
<polygon fill="black" stroke="black" points="1237.95,-38.76 1246.3,-32.23 1235.7,-32.13 1237.95,-38.76"/>
<text text-anchor="middle" x="1190.75" y="-57.8" font-family="Times,serif" font-size="14.00">dep</text>
</g>
<!-- 15 -->
<g id="node16" class="node">
<title>15</title>
<ellipse fill="none" stroke="black" cx="1427.25" cy="-18" rx="63.89" ry="18"/>
<text text-anchor="middle" x="1427.25" y="-14.3" font-family="Times,serif" font-size="14.00">multimédia</text>
</g>
<!-- 0&#45;&gt;15 -->
<g id="edge15" class="edge">
<title>0&#45;&gt;15</title>
<path fill="none" stroke="black" d="M1004.56,-100.62C1047.41,-94.97 1134.82,-82.87 1208.25,-69 1273.62,-56.65 1289.41,-50.88 1354.25,-36 1359.27,-34.85 1364.49,-33.64 1369.72,-32.43"/>
<polygon fill="black" stroke="black" points="1370.79,-35.78 1379.74,-30.11 1369.21,-28.96 1370.79,-35.78"/>
<text text-anchor="middle" x="1292.75" y="-57.8" font-family="Times,serif" font-size="14.00">dep</text>
</g>
<!-- 16 -->
<g id="node17" class="node">
<title>16</title>
<ellipse fill="none" stroke="black" cx="1560.25" cy="-18" rx="51.19" ry="18"/>
<text text-anchor="middle" x="1560.25" y="-14.3" font-family="Times,serif" font-size="14.00">relativos</text>
</g>
<!-- 0&#45;&gt;16 -->
<g id="edge16" class="edge">
<title>0&#45;&gt;16</title>
<path fill="none" stroke="black" d="M1005.18,-102.29C1082.84,-96.99 1313.57,-78.54 1500.25,-36 1504.34,-35.07 1508.58,-34.03 1512.81,-32.93"/>
<polygon fill="black" stroke="black" points="1513.88,-36.27 1522.63,-30.3 1512.07,-29.51 1513.88,-36.27"/>
<text text-anchor="middle" x="1415.75" y="-57.8" font-family="Times,serif" font-size="14.00">dep</text>
</g>
<!-- 17 -->
<g id="node18" class="node">
<title>17</title>
<ellipse fill="none" stroke="black" cx="1656.25" cy="-18" rx="27" ry="18"/>
<text text-anchor="middle" x="1656.25" y="-14.3" font-family="Times,serif" font-size="14.00">a</text>
</g>
<!-- 0&#45;&gt;17 -->
<g id="edge17" class="edge">
<title>0&#45;&gt;17</title>
<path fill="none" stroke="black" d="M1005.26,-102.85C1075.85,-99.63 1271.52,-89.44 1433.25,-69 1516.98,-58.42 1539.82,-61.58 1620.25,-36 1622.17,-35.39 1624.13,-34.69 1626.08,-33.94"/>
<polygon fill="black" stroke="black" points="1627.86,-36.99 1635.69,-29.86 1625.12,-30.55 1627.86,-36.99"/>
<text text-anchor="middle" x="1564.75" y="-57.8" font-family="Times,serif" font-size="14.00">dep</text>
</g>
<!-- 18 -->
<g id="node19" class="node">
<title>18</title>
<ellipse fill="none" stroke="black" cx="1728.25" cy="-18" rx="27" ry="18"/>
<text text-anchor="middle" x="1728.25" y="-14.3" font-family="Times,serif" font-size="14.00">a</text>
</g>
<!-- 0&#45;&gt;18 -->
<g id="edge18" class="edge">
<title>0&#45;&gt;18</title>
<path fill="none" stroke="black" d="M1005.35,-103.27C1107.48,-100.39 1468.98,-88.99 1582.25,-69 1632.51,-60.13 1644.59,-54.28 1692.25,-36 1694.09,-35.29 1695.96,-34.54 1697.84,-33.74"/>
<polygon fill="black" stroke="black" points="1699.44,-36.86 1707.15,-29.6 1696.6,-30.47 1699.44,-36.86"/>
<text text-anchor="middle" x="1657.75" y="-57.8" font-family="Times,serif" font-size="14.00">dep</text>
</g>
<!-- 19 -->
<g id="node20" class="node">
<title>19</title>
<ellipse fill="none" stroke="black" cx="1804.25" cy="-18" rx="30.59" ry="18"/>
<text text-anchor="middle" x="1804.25" y="-14.3" font-family="Times,serif" font-size="14.00">vida</text>
</g>
<!-- 0&#45;&gt;19 -->
<g id="edge19" class="edge">
<title>0&#45;&gt;19</title>
<path fill="none" stroke="black" d="M1005.27,-103.74C1117.06,-102.49 1543.66,-96.03 1675.25,-69 1709.67,-61.93 1746.88,-46.61 1772.45,-34.78"/>
<polygon fill="black" stroke="black" points="1774.1,-37.87 1781.65,-30.44 1771.11,-31.54 1774.1,-37.87"/>
<text text-anchor="middle" x="1739.75" y="-57.8" font-family="Times,serif" font-size="14.00">dep</text>
</g>
<!-- 20 -->
<g id="node21" class="node">
<title>20</title>
<ellipse fill="none" stroke="black" cx="1902.25" cy="-18" rx="49.29" ry="18"/>
<text text-anchor="middle" x="1902.25" y="-14.3" font-family="Times,serif" font-size="14.00">marinha</text>
</g>
<!-- 0&#45;&gt;20 -->
<g id="edge20" class="edge">
<title>0&#45;&gt;20</title>
<path fill="none" stroke="black" d="M1005.54,-103.82C1125.75,-102.87 1608.64,-97.35 1757.25,-69 1793.91,-62.01 1833.89,-47.68 1862.56,-36.15"/>
<polygon fill="black" stroke="black" points="1863.9,-39.39 1871.83,-32.36 1861.25,-32.91 1863.9,-39.39"/>
<text text-anchor="middle" x="1823.75" y="-57.8" font-family="Times,serif" font-size="14.00">dep</text>
</g>
<!-- 21 -->
<g id="node22" class="node">
<title>21</title>
<ellipse fill="none" stroke="black" cx="1996.25" cy="-18" rx="27" ry="18"/>
<text text-anchor="middle" x="1996.25" y="-14.3" font-family="Times,serif" font-size="14.00">.</text>
</g>
<!-- 0&#45;&gt;21 -->
<g id="edge21" class="edge">
<title>0&#45;&gt;21</title>
<path fill="none" stroke="black" d="M1005.39,-103.74C1133.04,-102.38 1674.4,-95.16 1841.25,-69 1895.47,-60.5 1908.8,-55.12 1960.25,-36 1962.09,-35.31 1963.97,-34.57 1965.86,-33.79"/>
<polygon fill="black" stroke="black" points="1967.44,-36.92 1975.18,-29.68 1964.62,-30.51 1967.44,-36.92"/>
<text text-anchor="middle" x="1923.75" y="-57.8" font-family="Times,serif" font-size="14.00">dep</text>
</g>
</g>
</svg>
