<?xml version="1.0" encoding="UTF-8" standalone="no"?>
<!DOCTYPE svg PUBLIC "-//W3C//DTD SVG 1.1//EN"
 "http://www.w3.org/Graphics/SVG/1.1/DTD/svg11.dtd">
<!-- Generated by graphviz version 2.42.4 (0)
 -->
<!-- Pages: 1 -->
<svg width="3722pt" height="131pt"
 viewBox="0.00 0.00 3722.25 131.00" xmlns="http://www.w3.org/2000/svg" xmlns:xlink="http://www.w3.org/1999/xlink">
<g id="graph0" class="graph" transform="scale(1 1) rotate(0) translate(4 127)">
<polygon fill="white" stroke="transparent" points="-4,4 -4,-127 3718.25,-127 3718.25,4 -4,4"/>
<!-- 0 -->
<g id="node1" class="node">
<title>0</title>
<ellipse fill="none" stroke="black" cx="1801.25" cy="-105" rx="27" ry="18"/>
<text text-anchor="middle" x="1801.25" y="-101.3" font-family="Times,serif" font-size="14.00">Ele</text>
</g>
<!-- 1 -->
<g id="node2" class="node">
<title>1</title>
<ellipse fill="none" stroke="black" cx="42.25" cy="-18" rx="42.49" ry="18"/>
<text text-anchor="middle" x="42.25" y="-14.3" font-family="Times,serif" font-size="14.00">parece</text>
</g>
<!-- 0&#45;&gt;1 -->
<g id="edge1" class="edge">
<title>0&#45;&gt;1</title>
<path fill="none" stroke="black" d="M1774.18,-103.81C1577.7,-102.34 373.55,-92.44 213.25,-69 167.28,-62.28 116.4,-46.24 82.19,-34.12"/>
<polygon fill="black" stroke="black" points="83.16,-30.75 72.56,-30.66 80.79,-37.34 83.16,-30.75"/>
<text text-anchor="middle" x="226.75" y="-57.8" font-family="Times,serif" font-size="14.00">dep</text>
</g>
<!-- 2 -->
<g id="node3" class="node">
<title>2</title>
<ellipse fill="none" stroke="black" cx="153.25" cy="-18" rx="50.89" ry="18"/>
<text text-anchor="middle" x="153.25" y="-14.3" font-family="Times,serif" font-size="14.00">escrever</text>
</g>
<!-- 0&#45;&gt;2 -->
<g id="edge2" class="edge">
<title>0&#45;&gt;2</title>
<path fill="none" stroke="black" d="M1774.18,-103.86C1584.08,-102.79 452.48,-95.34 302.25,-69 264.34,-62.35 222.97,-47.85 193.46,-36.17"/>
<polygon fill="black" stroke="black" points="194.51,-32.82 183.93,-32.33 191.9,-39.31 194.51,-32.82"/>
<text text-anchor="middle" x="315.75" y="-57.8" font-family="Times,serif" font-size="14.00">dep</text>
</g>
<!-- 3 -->
<g id="node4" class="node">
<title>3</title>
<ellipse fill="none" stroke="black" cx="249.25" cy="-18" rx="27" ry="18"/>
<text text-anchor="middle" x="249.25" y="-14.3" font-family="Times,serif" font-size="14.00">as</text>
</g>
<!-- 0&#45;&gt;3 -->
<g id="edge3" class="edge">
<title>0&#45;&gt;3</title>
<path fill="none" stroke="black" d="M1774.09,-103.77C1590.52,-102.14 534.22,-91.85 393.25,-69 343.7,-60.97 332.06,-54.1 285.25,-36 283.41,-35.29 281.53,-34.53 279.65,-33.73"/>
<polygon fill="black" stroke="black" points="280.9,-30.46 270.34,-29.59 278.06,-36.85 280.9,-30.46"/>
<text text-anchor="middle" x="406.75" y="-57.8" font-family="Times,serif" font-size="14.00">dep</text>
</g>
<!-- 4 -->
<g id="node5" class="node">
<title>4</title>
<ellipse fill="none" stroke="black" cx="326.25" cy="-18" rx="31.7" ry="18"/>
<text text-anchor="middle" x="326.25" y="-14.3" font-family="Times,serif" font-size="14.00">suas</text>
</g>
<!-- 0&#45;&gt;4 -->
<g id="edge4" class="edge">
<title>0&#45;&gt;4</title>
<path fill="none" stroke="black" d="M1774.09,-104.08C1610.83,-104.41 758.15,-104.41 499.25,-69 439.33,-60.81 424.67,-54.97 367.25,-36 364.96,-35.25 362.63,-34.42 360.28,-33.56"/>
<polygon fill="black" stroke="black" points="361.33,-30.21 350.74,-29.85 358.79,-36.73 361.33,-30.21"/>
<text text-anchor="middle" x="512.75" y="-57.8" font-family="Times,serif" font-size="14.00">dep</text>
</g>
<!-- 5 -->
<g id="node6" class="node">
<title>5</title>
<ellipse fill="none" stroke="black" cx="439.25" cy="-18" rx="63.09" ry="18"/>
<text text-anchor="middle" x="439.25" y="-14.3" font-family="Times,serif" font-size="14.00">mensagens</text>
</g>
<!-- 0&#45;&gt;5 -->
<g id="edge5" class="edge">
<title>0&#45;&gt;5</title>
<path fill="none" stroke="black" d="M1774.16,-103.7C1606.06,-101.75 708.48,-90.42 588.25,-69 551.44,-62.44 511.35,-48.58 482.04,-37.11"/>
<polygon fill="black" stroke="black" points="483.12,-33.78 472.53,-33.33 480.53,-40.28 483.12,-33.78"/>
<text text-anchor="middle" x="601.75" y="-57.8" font-family="Times,serif" font-size="14.00">dep</text>
</g>
<!-- 6 -->
<g id="node7" class="node">
<title>6</title>
<ellipse fill="none" stroke="black" cx="547.25" cy="-18" rx="27" ry="18"/>
<text text-anchor="middle" x="547.25" y="-14.3" font-family="Times,serif" font-size="14.00">a</text>
</g>
<!-- 0&#45;&gt;6 -->
<g id="edge6" class="edge">
<title>0&#45;&gt;6</title>
<path fill="none" stroke="black" d="M1774.08,-103.73C1612.16,-102.02 777.72,-92.13 666.25,-69 634.23,-62.36 600.06,-47.05 576.58,-35.1"/>
<polygon fill="black" stroke="black" points="578.01,-31.9 567.52,-30.39 574.78,-38.11 578.01,-31.9"/>
<text text-anchor="middle" x="679.75" y="-57.8" font-family="Times,serif" font-size="14.00">dep</text>
</g>
<!-- 7 -->
<g id="node8" class="node">
<title>7</title>
<ellipse fill="none" stroke="black" cx="619.25" cy="-18" rx="27" ry="18"/>
<text text-anchor="middle" x="619.25" y="-14.3" font-family="Times,serif" font-size="14.00">a</text>
</g>
<!-- 0&#45;&gt;7 -->
<g id="edge7" class="edge">
<title>0&#45;&gt;7</title>
<path fill="none" stroke="black" d="M1774.01,-104.24C1629.62,-105.33 952.48,-108.21 747.25,-69 712.13,-62.29 674.27,-46.3 648.9,-34.2"/>
<polygon fill="black" stroke="black" points="650.35,-31.01 639.83,-29.78 647.28,-37.3 650.35,-31.01"/>
<text text-anchor="middle" x="760.75" y="-57.8" font-family="Times,serif" font-size="14.00">dep</text>
</g>
<!-- 8 -->
<g id="node9" class="node">
<title>8</title>
<ellipse fill="none" stroke="black" cx="698.25" cy="-18" rx="34.39" ry="18"/>
<text text-anchor="middle" x="698.25" y="-14.3" font-family="Times,serif" font-size="14.00">noite</text>
</g>
<!-- 0&#45;&gt;8 -->
<g id="edge8" class="edge">
<title>0&#45;&gt;8</title>
<path fill="none" stroke="black" d="M1773.92,-104.19C1636.27,-104.95 1018.06,-106.2 830.25,-69 795.35,-62.09 757.58,-46.94 731.42,-35.11"/>
<polygon fill="black" stroke="black" points="732.88,-31.93 722.34,-30.93 729.96,-38.29 732.88,-31.93"/>
<text text-anchor="middle" x="843.75" y="-57.8" font-family="Times,serif" font-size="14.00">dep</text>
</g>
<!-- 9 -->
<g id="node10" class="node">
<title>9</title>
<ellipse fill="none" stroke="black" cx="777.25" cy="-18" rx="27" ry="18"/>
<text text-anchor="middle" x="777.25" y="-14.3" font-family="Times,serif" font-size="14.00">,</text>
</g>
<!-- 0&#45;&gt;9 -->
<g id="edge9" class="edge">
<title>0&#45;&gt;9</title>
<path fill="none" stroke="black" d="M1773.99,-103.86C1644.55,-103.03 1091.21,-97.85 921.25,-69 871.76,-60.6 860.06,-54.1 813.25,-36 811.41,-35.29 809.53,-34.53 807.65,-33.73"/>
<polygon fill="black" stroke="black" points="808.9,-30.46 798.34,-29.59 806.06,-36.85 808.9,-30.46"/>
<text text-anchor="middle" x="934.75" y="-57.8" font-family="Times,serif" font-size="14.00">dep</text>
</g>
<!-- 10 -->
<g id="node11" class="node">
<title>10</title>
<ellipse fill="none" stroke="black" cx="864.25" cy="-18" rx="42.49" ry="18"/>
<text text-anchor="middle" x="864.25" y="-14.3" font-family="Times,serif" font-size="14.00">dormir</text>
</g>
<!-- 0&#45;&gt;10 -->
<g id="edge10" class="edge">
<title>0&#45;&gt;10</title>
<path fill="none" stroke="black" d="M1774.06,-103.91C1652.12,-103.36 1154.79,-99.24 1002.25,-69 966.96,-62.01 928.63,-47.52 901.34,-35.93"/>
<polygon fill="black" stroke="black" points="902.38,-32.57 891.81,-31.82 899.6,-39 902.38,-32.57"/>
<text text-anchor="middle" x="1015.75" y="-57.8" font-family="Times,serif" font-size="14.00">dep</text>
</g>
<!-- 11 -->
<g id="node12" class="node">
<title>11</title>
<ellipse fill="none" stroke="black" cx="951.25" cy="-18" rx="27" ry="18"/>
<text text-anchor="middle" x="951.25" y="-14.3" font-family="Times,serif" font-size="14.00">(</text>
</g>
<!-- 0&#45;&gt;11 -->
<g id="edge11" class="edge">
<title>0&#45;&gt;11</title>
<path fill="none" stroke="black" d="M1774.28,-103.67C1660.73,-102.15 1221.14,-94.69 1085.25,-69 1048.31,-62.02 1008.19,-45.8 981.57,-33.72"/>
<polygon fill="black" stroke="black" points="982.96,-30.51 972.41,-29.48 980.02,-36.86 982.96,-30.51"/>
<text text-anchor="middle" x="1098.75" y="-57.8" font-family="Times,serif" font-size="14.00">dep</text>
</g>
<!-- 12 -->
<g id="node13" class="node">
<title>12</title>
<ellipse fill="none" stroke="black" cx="1034.25" cy="-18" rx="38.19" ry="18"/>
<text text-anchor="middle" x="1034.25" y="-14.3" font-family="Times,serif" font-size="14.00">talvez</text>
</g>
<!-- 0&#45;&gt;12 -->
<g id="edge12" class="edge">
<title>0&#45;&gt;12</title>
<path fill="none" stroke="black" d="M1774.02,-103.64C1667.97,-102.08 1282.53,-94.71 1163.25,-69 1130.14,-61.86 1094.37,-47.42 1068.92,-35.89"/>
<polygon fill="black" stroke="black" points="1070.24,-32.64 1059.69,-31.63 1067.31,-39 1070.24,-32.64"/>
<text text-anchor="middle" x="1176.75" y="-57.8" font-family="Times,serif" font-size="14.00">dep</text>
</g>
<!-- 13 -->
<g id="node14" class="node">
<title>13</title>
<ellipse fill="none" stroke="black" cx="1117.25" cy="-18" rx="27" ry="18"/>
<text text-anchor="middle" x="1117.25" y="-14.3" font-family="Times,serif" font-size="14.00">)</text>
</g>
<!-- 0&#45;&gt;13 -->
<g id="edge13" class="edge">
<title>0&#45;&gt;13</title>
<path fill="none" stroke="black" d="M1774.19,-103.34C1677.1,-100.79 1346.55,-90.7 1243.25,-69 1209.09,-61.82 1172.22,-46.18 1147.24,-34.29"/>
<polygon fill="black" stroke="black" points="1148.48,-31 1137.96,-29.78 1145.43,-37.3 1148.48,-31"/>
<text text-anchor="middle" x="1256.75" y="-57.8" font-family="Times,serif" font-size="14.00">dep</text>
</g>
<!-- 14 -->
<g id="node15" class="node">
<title>14</title>
<ellipse fill="none" stroke="black" cx="1189.25" cy="-18" rx="27" ry="18"/>
<text text-anchor="middle" x="1189.25" y="-14.3" font-family="Times,serif" font-size="14.00">e</text>
</g>
<!-- 0&#45;&gt;14 -->
<g id="edge14" class="edge">
<title>0&#45;&gt;14</title>
<path fill="none" stroke="black" d="M1774.21,-104.12C1701.74,-104 1497.43,-100.63 1331.25,-69 1282.77,-59.77 1271.22,-53.91 1225.25,-36 1223.41,-35.28 1221.54,-34.52 1219.66,-33.72"/>
<polygon fill="black" stroke="black" points="1220.91,-30.45 1210.35,-29.57 1218.06,-36.84 1220.91,-30.45"/>
<text text-anchor="middle" x="1344.75" y="-57.8" font-family="Times,serif" font-size="14.00">dep</text>
</g>
<!-- 15 -->
<g id="node16" class="node">
<title>15</title>
<ellipse fill="none" stroke="black" cx="1276.25" cy="-18" rx="42.49" ry="18"/>
<text text-anchor="middle" x="1276.25" y="-14.3" font-family="Times,serif" font-size="14.00">mandá</text>
</g>
<!-- 0&#45;&gt;15 -->
<g id="edge15" class="edge">
<title>0&#45;&gt;15</title>
<path fill="none" stroke="black" d="M1773.91,-104.02C1709.76,-103.53 1544.86,-99.17 1411.25,-69 1377.05,-61.28 1339.79,-47.01 1313.1,-35.68"/>
<polygon fill="black" stroke="black" points="1314.34,-32.4 1303.77,-31.66 1311.57,-38.83 1314.34,-32.4"/>
<text text-anchor="middle" x="1424.75" y="-57.8" font-family="Times,serif" font-size="14.00">dep</text>
</g>
<!-- 16 -->
<g id="node17" class="node">
<title>16</title>
<ellipse fill="none" stroke="black" cx="1363.25" cy="-18" rx="27" ry="18"/>
<text text-anchor="middle" x="1363.25" y="-14.3" font-family="Times,serif" font-size="14.00">las</text>
</g>
<!-- 0&#45;&gt;16 -->
<g id="edge16" class="edge">
<title>0&#45;&gt;16</title>
<path fill="none" stroke="black" d="M1773.98,-103.23C1719.01,-101.17 1591.27,-93.89 1487.25,-69 1453.96,-61.04 1417.89,-45.66 1393.28,-34.05"/>
<polygon fill="black" stroke="black" points="1394.65,-30.83 1384.12,-29.66 1391.62,-37.14 1394.65,-30.83"/>
<text text-anchor="middle" x="1500.75" y="-57.8" font-family="Times,serif" font-size="14.00">dep</text>
</g>
<!-- 17 -->
<g id="node18" class="node">
<title>17</title>
<ellipse fill="none" stroke="black" cx="1435.25" cy="-18" rx="27" ry="18"/>
<text text-anchor="middle" x="1435.25" y="-14.3" font-family="Times,serif" font-size="14.00">em</text>
</g>
<!-- 0&#45;&gt;17 -->
<g id="edge17" class="edge">
<title>0&#45;&gt;17</title>
<path fill="none" stroke="black" d="M1774.39,-101.54C1730.71,-97.2 1641.78,-86.88 1568.25,-69 1524,-58.24 1513.46,-53.08 1471.25,-36 1469.42,-35.26 1467.55,-34.48 1465.68,-33.66"/>
<polygon fill="black" stroke="black" points="1466.94,-30.39 1456.39,-29.47 1464.07,-36.77 1466.94,-30.39"/>
<text text-anchor="middle" x="1581.75" y="-57.8" font-family="Times,serif" font-size="14.00">dep</text>
</g>
<!-- 18 -->
<g id="node19" class="node">
<title>18</title>
<ellipse fill="none" stroke="black" cx="1507.25" cy="-18" rx="27" ry="18"/>
<text text-anchor="middle" x="1507.25" y="-14.3" font-family="Times,serif" font-size="14.00">a</text>
</g>
<!-- 0&#45;&gt;18 -->
<g id="edge18" class="edge">
<title>0&#45;&gt;18</title>
<path fill="none" stroke="black" d="M1775.42,-99.09C1728.31,-89.72 1625.71,-67.4 1543.25,-36 1541.41,-35.3 1539.53,-34.54 1537.65,-33.75"/>
<polygon fill="black" stroke="black" points="1538.89,-30.48 1528.33,-29.62 1536.05,-36.88 1538.89,-30.48"/>
<text text-anchor="middle" x="1654.75" y="-57.8" font-family="Times,serif" font-size="14.00">dep</text>
</g>
<!-- 19 -->
<g id="node20" class="node">
<title>19</title>
<ellipse fill="none" stroke="black" cx="1594.25" cy="-18" rx="42.49" ry="18"/>
<text text-anchor="middle" x="1594.25" y="-14.3" font-family="Times,serif" font-size="14.00">manhã</text>
</g>
<!-- 0&#45;&gt;19 -->
<g id="edge19" class="edge">
<title>0&#45;&gt;19</title>
<path fill="none" stroke="black" d="M1778.7,-94.74C1743.73,-80.38 1675.97,-52.56 1633.03,-34.93"/>
<polygon fill="black" stroke="black" points="1634.32,-31.67 1623.74,-31.11 1631.66,-38.15 1634.32,-31.67"/>
<text text-anchor="middle" x="1723.75" y="-57.8" font-family="Times,serif" font-size="14.00">dep</text>
</g>
<!-- 20 -->
<g id="node21" class="node">
<title>20</title>
<ellipse fill="none" stroke="black" cx="1705.25" cy="-18" rx="50.89" ry="18"/>
<text text-anchor="middle" x="1705.25" y="-14.3" font-family="Times,serif" font-size="14.00">seguinte</text>
</g>
<!-- 0&#45;&gt;20 -->
<g id="edge20" class="edge">
<title>0&#45;&gt;20</title>
<path fill="none" stroke="black" d="M1785.39,-89.96C1770.62,-76.88 1748.31,-57.13 1730.98,-41.79"/>
<polygon fill="black" stroke="black" points="1733.22,-39.1 1723.42,-35.09 1728.58,-44.34 1733.22,-39.1"/>
<text text-anchor="middle" x="1772.75" y="-57.8" font-family="Times,serif" font-size="14.00">dep</text>
</g>
<!-- 21 -->
<g id="node22" class="node">
<title>21</title>
<ellipse fill="none" stroke="black" cx="1801.25" cy="-18" rx="27" ry="18"/>
<text text-anchor="middle" x="1801.25" y="-14.3" font-family="Times,serif" font-size="14.00">»</text>
</g>
<!-- 0&#45;&gt;21 -->
<g id="edge21" class="edge">
<title>0&#45;&gt;21</title>
<path fill="none" stroke="black" d="M1801.25,-86.8C1801.25,-75.16 1801.25,-59.55 1801.25,-46.24"/>
<polygon fill="black" stroke="black" points="1804.75,-46.18 1801.25,-36.18 1797.75,-46.18 1804.75,-46.18"/>
<text text-anchor="middle" x="1814.75" y="-57.8" font-family="Times,serif" font-size="14.00">dep</text>
</g>
<!-- 22 -->
<g id="node23" class="node">
<title>22</title>
<ellipse fill="none" stroke="black" cx="1873.25" cy="-18" rx="27" ry="18"/>
<text text-anchor="middle" x="1873.25" y="-14.3" font-family="Times,serif" font-size="14.00">,</text>
</g>
<!-- 0&#45;&gt;22 -->
<g id="edge22" class="edge">
<title>0&#45;&gt;22</title>
<path fill="none" stroke="black" d="M1814.65,-89.12C1820.15,-82.94 1826.56,-75.67 1832.25,-69 1839.56,-60.41 1847.46,-50.86 1854.34,-42.43"/>
<polygon fill="black" stroke="black" points="1857.24,-44.41 1860.83,-34.44 1851.81,-39.99 1857.24,-44.41"/>
<text text-anchor="middle" x="1858.75" y="-57.8" font-family="Times,serif" font-size="14.00">dep</text>
</g>
<!-- 23 -->
<g id="node24" class="node">
<title>23</title>
<ellipse fill="none" stroke="black" cx="1964.25" cy="-18" rx="46.29" ry="18"/>
<text text-anchor="middle" x="1964.25" y="-14.3" font-family="Times,serif" font-size="14.00">escreve</text>
</g>
<!-- 0&#45;&gt;23 -->
<g id="edge23" class="edge">
<title>0&#45;&gt;23</title>
<path fill="none" stroke="black" d="M1823.13,-94.35C1838.21,-87.56 1858.63,-78.1 1876.25,-69 1894.69,-59.48 1914.85,-48.1 1931.21,-38.6"/>
<polygon fill="black" stroke="black" points="1933.01,-41.61 1939.88,-33.54 1929.48,-35.56 1933.01,-41.61"/>
<text text-anchor="middle" x="1916.75" y="-57.8" font-family="Times,serif" font-size="14.00">dep</text>
</g>
<!-- 24 -->
<g id="node25" class="node">
<title>24</title>
<ellipse fill="none" stroke="black" cx="2059.25" cy="-18" rx="31.4" ry="18"/>
<text text-anchor="middle" x="2059.25" y="-14.3" font-family="Times,serif" font-size="14.00">John</text>
</g>
<!-- 0&#45;&gt;24 -->
<g id="edge24" class="edge">
<title>0&#45;&gt;24</title>
<path fill="none" stroke="black" d="M1826.49,-98.26C1853.43,-91.92 1897.23,-81.01 1934.25,-69 1972.79,-56.49 1981.7,-51.26 2019.25,-36 2021.29,-35.17 2023.39,-34.31 2025.51,-33.43"/>
<polygon fill="black" stroke="black" points="2026.89,-36.64 2034.76,-29.55 2024.18,-30.19 2026.89,-36.64"/>
<text text-anchor="middle" x="1989.75" y="-57.8" font-family="Times,serif" font-size="14.00">dep</text>
</g>
<!-- 25 -->
<g id="node26" class="node">
<title>25</title>
<ellipse fill="none" stroke="black" cx="2162.25" cy="-18" rx="53.89" ry="18"/>
<text text-anchor="middle" x="2162.25" y="-14.3" font-family="Times,serif" font-size="14.00">Seabrook</text>
</g>
<!-- 0&#45;&gt;25 -->
<g id="edge25" class="edge">
<title>0&#45;&gt;25</title>
<path fill="none" stroke="black" d="M1827.51,-100.77C1866.9,-95.65 1943.47,-84.62 2007.25,-69 2045.04,-59.74 2086.99,-45.99 2117.7,-35.25"/>
<polygon fill="black" stroke="black" points="2119,-38.51 2127.26,-31.88 2116.67,-31.91 2119,-38.51"/>
<text text-anchor="middle" x="2072.75" y="-57.8" font-family="Times,serif" font-size="14.00">dep</text>
</g>
<!-- 26 -->
<g id="node27" class="node">
<title>26</title>
<ellipse fill="none" stroke="black" cx="2261.25" cy="-18" rx="27" ry="18"/>
<text text-anchor="middle" x="2261.25" y="-14.3" font-family="Times,serif" font-size="14.00">,</text>
</g>
<!-- 0&#45;&gt;26 -->
<g id="edge26" class="edge">
<title>0&#45;&gt;26</title>
<path fill="none" stroke="black" d="M1828.1,-101.83C1879.35,-97.44 1994.53,-86.43 2090.25,-69 2151.01,-57.93 2167.03,-56.63 2225.25,-36 2227.15,-35.32 2229.09,-34.58 2231.03,-33.8"/>
<polygon fill="black" stroke="black" points="2232.84,-36.83 2240.61,-29.62 2230.04,-30.41 2232.84,-36.83"/>
<text text-anchor="middle" x="2179.75" y="-57.8" font-family="Times,serif" font-size="14.00">dep</text>
</g>
<!-- 27 -->
<g id="node28" class="node">
<title>27</title>
<ellipse fill="none" stroke="black" cx="2366.25" cy="-18" rx="60.39" ry="18"/>
<text text-anchor="middle" x="2366.25" y="-14.3" font-family="Times,serif" font-size="14.00">explicando</text>
</g>
<!-- 0&#45;&gt;27 -->
<g id="edge27" class="edge">
<title>0&#45;&gt;27</title>
<path fill="none" stroke="black" d="M1828.39,-103.46C1892.91,-101.78 2060.28,-95.04 2197.25,-69 2239.38,-60.99 2286.04,-46.76 2319.63,-35.53"/>
<polygon fill="black" stroke="black" points="2320.83,-38.82 2329.18,-32.3 2318.59,-32.18 2320.83,-38.82"/>
<text text-anchor="middle" x="2272.75" y="-57.8" font-family="Times,serif" font-size="14.00">dep</text>
</g>
<!-- 28 -->
<g id="node29" class="node">
<title>28</title>
<ellipse fill="none" stroke="black" cx="2472.25" cy="-18" rx="27.9" ry="18"/>
<text text-anchor="middle" x="2472.25" y="-14.3" font-family="Times,serif" font-size="14.00">que</text>
</g>
<!-- 0&#45;&gt;28 -->
<g id="edge28" class="edge">
<title>0&#45;&gt;28</title>
<path fill="none" stroke="black" d="M1828.17,-103.51C1902.28,-101.85 2115.35,-95.01 2290.25,-69 2355.62,-59.28 2372.66,-57.24 2435.25,-36 2437.15,-35.35 2439.1,-34.64 2441.04,-33.88"/>
<polygon fill="black" stroke="black" points="2442.78,-36.94 2450.64,-29.83 2440.06,-30.49 2442.78,-36.94"/>
<text text-anchor="middle" x="2387.75" y="-57.8" font-family="Times,serif" font-size="14.00">dep</text>
</g>
<!-- 29 -->
<g id="node30" class="node">
<title>29</title>
<ellipse fill="none" stroke="black" cx="2545.25" cy="-18" rx="27" ry="18"/>
<text text-anchor="middle" x="2545.25" y="-14.3" font-family="Times,serif" font-size="14.00">a</text>
</g>
<!-- 0&#45;&gt;29 -->
<g id="edge29" class="edge">
<title>0&#45;&gt;29</title>
<path fill="none" stroke="black" d="M1828.36,-103.33C1930.53,-100.65 2292.14,-89.88 2405.25,-69 2452.93,-60.2 2464.11,-53.73 2509.25,-36 2511.08,-35.28 2512.95,-34.51 2514.83,-33.71"/>
<polygon fill="black" stroke="black" points="2516.43,-36.83 2524.13,-29.55 2513.58,-30.44 2516.43,-36.83"/>
<text text-anchor="middle" x="2477.75" y="-57.8" font-family="Times,serif" font-size="14.00">dep</text>
</g>
<!-- 30 -->
<g id="node31" class="node">
<title>30</title>
<ellipse fill="none" stroke="black" cx="2641.25" cy="-18" rx="50.89" ry="18"/>
<text text-anchor="middle" x="2641.25" y="-14.3" font-family="Times,serif" font-size="14.00">primeira</text>
</g>
<!-- 0&#45;&gt;30 -->
<g id="edge30" class="edge">
<title>0&#45;&gt;30</title>
<path fill="none" stroke="black" d="M1828.51,-103.64C1940.33,-102.01 2364.05,-94.26 2495.25,-69 2532,-61.92 2572.12,-47.68 2600.99,-36.2"/>
<polygon fill="black" stroke="black" points="2602.37,-39.42 2610.33,-32.43 2599.74,-32.93 2602.37,-39.42"/>
<text text-anchor="middle" x="2562.75" y="-57.8" font-family="Times,serif" font-size="14.00">dep</text>
</g>
<!-- 31 -->
<g id="node32" class="node">
<title>31</title>
<ellipse fill="none" stroke="black" cx="2763.25" cy="-18" rx="53.09" ry="18"/>
<text text-anchor="middle" x="2763.25" y="-14.3" font-family="Times,serif" font-size="14.00">pergunta</text>
</g>
<!-- 0&#45;&gt;31 -->
<g id="edge31" class="edge">
<title>0&#45;&gt;31</title>
<path fill="none" stroke="black" d="M1828.5,-103.58C1948.54,-101.63 2430.79,-92.44 2580.25,-69 2627.83,-61.54 2680.77,-46.28 2717.42,-34.57"/>
<polygon fill="black" stroke="black" points="2718.87,-37.78 2727.31,-31.38 2716.71,-31.12 2718.87,-37.78"/>
<text text-anchor="middle" x="2660.75" y="-57.8" font-family="Times,serif" font-size="14.00">dep</text>
</g>
<!-- 32 -->
<g id="node33" class="node">
<title>32</title>
<ellipse fill="none" stroke="black" cx="2861.25" cy="-18" rx="27" ry="18"/>
<text text-anchor="middle" x="2861.25" y="-14.3" font-family="Times,serif" font-size="14.00">por</text>
</g>
<!-- 0&#45;&gt;32 -->
<g id="edge32" class="edge">
<title>0&#45;&gt;32</title>
<path fill="none" stroke="black" d="M1828.37,-103.58C1957.18,-101.48 2507.9,-91.33 2678.25,-69 2744.64,-60.3 2761.92,-57.76 2825.25,-36 2827.16,-35.34 2829.1,-34.61 2831.05,-33.84"/>
<polygon fill="black" stroke="black" points="2832.85,-36.87 2840.63,-29.69 2830.06,-30.45 2832.85,-36.87"/>
<text text-anchor="middle" x="2779.75" y="-57.8" font-family="Times,serif" font-size="14.00">dep</text>
</g>
<!-- 33 -->
<g id="node34" class="node">
<title>33</title>
<ellipse fill="none" stroke="black" cx="2946.25" cy="-18" rx="40.09" ry="18"/>
<text text-anchor="middle" x="2946.25" y="-14.3" font-family="Times,serif" font-size="14.00">E&#45;mail</text>
</g>
<!-- 0&#45;&gt;33 -->
<g id="edge33" class="edge">
<title>0&#45;&gt;33</title>
<path fill="none" stroke="black" d="M1828.33,-104.08C1967.53,-104.35 2603.5,-103.64 2797.25,-69 2836.34,-62.01 2879.14,-46.81 2908.8,-34.99"/>
<polygon fill="black" stroke="black" points="2910.38,-38.13 2918.33,-31.13 2907.75,-31.64 2910.38,-38.13"/>
<text text-anchor="middle" x="2869.75" y="-57.8" font-family="Times,serif" font-size="14.00">dep</text>
</g>
<!-- 34 -->
<g id="node35" class="node">
<title>34</title>
<ellipse fill="none" stroke="black" cx="3031.25" cy="-18" rx="27" ry="18"/>
<text text-anchor="middle" x="3031.25" y="-14.3" font-family="Times,serif" font-size="14.00">foi</text>
</g>
<!-- 0&#45;&gt;34 -->
<g id="edge34" class="edge">
<title>0&#45;&gt;34</title>
<path fill="none" stroke="black" d="M1828.31,-104.09C1974.83,-104.46 2674.4,-104.31 2887.25,-69 2936.76,-60.79 2948.43,-54.1 2995.25,-36 2997.08,-35.29 2998.96,-34.53 3000.84,-33.73"/>
<polygon fill="black" stroke="black" points="3002.44,-36.85 3010.15,-29.59 2999.59,-30.46 3002.44,-36.85"/>
<text text-anchor="middle" x="2961.75" y="-57.8" font-family="Times,serif" font-size="14.00">dep</text>
</g>
<!-- 35 -->
<g id="node36" class="node">
<title>35</title>
<ellipse fill="none" stroke="black" cx="3112.25" cy="-18" rx="36.29" ry="18"/>
<text text-anchor="middle" x="3112.25" y="-14.3" font-family="Times,serif" font-size="14.00">sobre</text>
</g>
<!-- 0&#45;&gt;35 -->
<g id="edge35" class="edge">
<title>0&#45;&gt;35</title>
<path fill="none" stroke="black" d="M1828.36,-103.73C1993.69,-102 2863.06,-91.86 2979.25,-69 3013.95,-62.17 3051.51,-47.31 3077.83,-35.55"/>
<polygon fill="black" stroke="black" points="3079.34,-38.71 3086.99,-31.38 3076.44,-32.34 3079.34,-38.71"/>
<text text-anchor="middle" x="3045.75" y="-57.8" font-family="Times,serif" font-size="14.00">dep</text>
</g>
<!-- 36 -->
<g id="node37" class="node">
<title>36</title>
<ellipse fill="none" stroke="black" cx="3193.25" cy="-18" rx="27" ry="18"/>
<text text-anchor="middle" x="3193.25" y="-14.3" font-family="Times,serif" font-size="14.00">o</text>
</g>
<!-- 0&#45;&gt;36 -->
<g id="edge36" class="edge">
<title>0&#45;&gt;36</title>
<path fill="none" stroke="black" d="M1828.31,-103.75C2000.32,-102.11 2938.03,-92.13 3063.25,-69 3098.88,-62.42 3137.34,-46.41 3163.11,-34.26"/>
<polygon fill="black" stroke="black" points="3164.84,-37.32 3172.33,-29.83 3161.8,-31.01 3164.84,-37.32"/>
<text text-anchor="middle" x="3128.75" y="-57.8" font-family="Times,serif" font-size="14.00">dep</text>
</g>
<!-- 37 -->
<g id="node38" class="node">
<title>37</title>
<ellipse fill="none" stroke="black" cx="3283.25" cy="-18" rx="44.69" ry="18"/>
<text text-anchor="middle" x="3283.25" y="-14.3" font-family="Times,serif" font-size="14.00">próprio</text>
</g>
<!-- 0&#45;&gt;37 -->
<g id="edge37" class="edge">
<title>0&#45;&gt;37</title>
<path fill="none" stroke="black" d="M1828.34,-103.82C2006.97,-102.57 3012.51,-94.44 3146.25,-69 3181.14,-62.36 3218.92,-47.99 3245.96,-36.35"/>
<polygon fill="black" stroke="black" points="3247.66,-39.42 3255.41,-32.2 3244.84,-33.01 3247.66,-39.42"/>
<text text-anchor="middle" x="3213.75" y="-57.8" font-family="Times,serif" font-size="14.00">dep</text>
</g>
<!-- 38 -->
<g id="node39" class="node">
<title>38</title>
<ellipse fill="none" stroke="black" cx="3379.25" cy="-18" rx="33.29" ry="18"/>
<text text-anchor="middle" x="3379.25" y="-14.3" font-family="Times,serif" font-size="14.00">meio</text>
</g>
<!-- 0&#45;&gt;38 -->
<g id="edge38" class="edge">
<title>0&#45;&gt;38</title>
<path fill="none" stroke="black" d="M1828.23,-103.79C2012.98,-102.29 3087.97,-92.58 3231.25,-69 3271.52,-62.37 3315.59,-46.26 3345.07,-34.1"/>
<polygon fill="black" stroke="black" points="3346.62,-37.25 3354.48,-30.15 3343.91,-30.79 3346.62,-37.25"/>
<text text-anchor="middle" x="3303.75" y="-57.8" font-family="Times,serif" font-size="14.00">dep</text>
</g>
<!-- 39 -->
<g id="node40" class="node">
<title>39</title>
<ellipse fill="none" stroke="black" cx="3457.25" cy="-18" rx="27" ry="18"/>
<text text-anchor="middle" x="3457.25" y="-14.3" font-family="Times,serif" font-size="14.00">de</text>
</g>
<!-- 0&#45;&gt;39 -->
<g id="edge39" class="edge">
<title>0&#45;&gt;39</title>
<path fill="none" stroke="black" d="M1828.38,-103.86C2020.22,-102.79 3168.75,-95.32 3321.25,-69 3359,-62.48 3399.97,-46.03 3426.96,-33.76"/>
<polygon fill="black" stroke="black" points="3428.64,-36.84 3436.24,-29.46 3425.7,-30.49 3428.64,-36.84"/>
<text text-anchor="middle" x="3388.75" y="-57.8" font-family="Times,serif" font-size="14.00">dep</text>
</g>
<!-- 40 -->
<g id="node41" class="node">
<title>40</title>
<ellipse fill="none" stroke="black" cx="3572.25" cy="-18" rx="70.39" ry="18"/>
<text text-anchor="middle" x="3572.25" y="-14.3" font-family="Times,serif" font-size="14.00">comunicação</text>
</g>
<!-- 0&#45;&gt;40 -->
<g id="edge40" class="edge">
<title>0&#45;&gt;40</title>
<path fill="none" stroke="black" d="M1828.29,-103.85C2025.94,-102.71 3244.44,-94.65 3406.25,-69 3447.33,-62.49 3492.44,-48.44 3525.25,-36.88"/>
<polygon fill="black" stroke="black" points="3526.78,-40.05 3535.02,-33.39 3524.42,-33.46 3526.78,-40.05"/>
<text text-anchor="middle" x="3484.75" y="-57.8" font-family="Times,serif" font-size="14.00">dep</text>
</g>
<!-- 41 -->
<g id="node42" class="node">
<title>41</title>
<ellipse fill="none" stroke="black" cx="3687.25" cy="-18" rx="27" ry="18"/>
<text text-anchor="middle" x="3687.25" y="-14.3" font-family="Times,serif" font-size="14.00">.</text>
</g>
<!-- 0&#45;&gt;41 -->
<g id="edge41" class="edge">
<title>0&#45;&gt;41</title>
<path fill="none" stroke="black" d="M1828.25,-104.17C2018.42,-105.29 3158.56,-110.19 3502.25,-69 3569.59,-60.93 3587.07,-57.95 3651.25,-36 3653.16,-35.35 3655.1,-34.62 3657.05,-33.84"/>
<polygon fill="black" stroke="black" points="3658.85,-36.88 3666.63,-29.7 3656.07,-30.46 3658.85,-36.88"/>
<text text-anchor="middle" x="3606.75" y="-57.8" font-family="Times,serif" font-size="14.00">dep</text>
</g>
</g>
</svg>
