<?xml version="1.0" encoding="UTF-8" standalone="no"?>
<!DOCTYPE svg PUBLIC "-//W3C//DTD SVG 1.1//EN"
 "http://www.w3.org/Graphics/SVG/1.1/DTD/svg11.dtd">
<!-- Generated by graphviz version 2.42.4 (0)
 -->
<!-- Pages: 1 -->
<svg width="442pt" height="131pt"
 viewBox="0.00 0.00 442.00 131.00" xmlns="http://www.w3.org/2000/svg" xmlns:xlink="http://www.w3.org/1999/xlink">
<g id="graph0" class="graph" transform="scale(1 1) rotate(0) translate(4 127)">
<polygon fill="white" stroke="transparent" points="-4,4 -4,-127 438,-127 438,4 -4,4"/>
<!-- 0 -->
<g id="node1" class="node">
<title>0</title>
<ellipse fill="none" stroke="black" cx="194" cy="-105" rx="27" ry="18"/>
<text text-anchor="middle" x="194" y="-101.3" font-family="Times,serif" font-size="14.00">«</text>
</g>
<!-- 1 -->
<g id="node2" class="node">
<title>1</title>
<ellipse fill="none" stroke="black" cx="27" cy="-18" rx="27" ry="18"/>
<text text-anchor="middle" x="27" y="-14.3" font-family="Times,serif" font-size="14.00">Foi</text>
</g>
<!-- 0&#45;&gt;1 -->
<g id="edge1" class="edge">
<title>0&#45;&gt;1</title>
<path fill="none" stroke="black" d="M170.77,-95.39C153.67,-88.79 130.02,-79.13 110,-69 90.93,-59.35 70.34,-46.96 54.44,-36.93"/>
<polygon fill="black" stroke="black" points="55.98,-33.76 45.67,-31.33 52.22,-39.66 55.98,-33.76"/>
<text text-anchor="middle" x="123.5" y="-57.8" font-family="Times,serif" font-size="14.00">dep</text>
</g>
<!-- 2 -->
<g id="node3" class="node">
<title>2</title>
<ellipse fill="none" stroke="black" cx="99" cy="-18" rx="27" ry="18"/>
<text text-anchor="middle" x="99" y="-14.3" font-family="Times,serif" font-size="14.00">um</text>
</g>
<!-- 0&#45;&gt;2 -->
<g id="edge2" class="edge">
<title>0&#45;&gt;2</title>
<path fill="none" stroke="black" d="M178.31,-89.96C163.05,-76.31 139.67,-55.39 122.25,-39.8"/>
<polygon fill="black" stroke="black" points="124.5,-37.12 114.71,-33.06 119.83,-42.33 124.5,-37.12"/>
<text text-anchor="middle" x="166.5" y="-57.8" font-family="Times,serif" font-size="14.00">dep</text>
</g>
<!-- 3 -->
<g id="node4" class="node">
<title>3</title>
<ellipse fill="none" stroke="black" cx="194" cy="-18" rx="50.09" ry="18"/>
<text text-anchor="middle" x="194" y="-14.3" font-family="Times,serif" font-size="14.00">protesto</text>
</g>
<!-- 0&#45;&gt;3 -->
<g id="edge3" class="edge">
<title>0&#45;&gt;3</title>
<path fill="none" stroke="black" d="M194,-86.8C194,-75.16 194,-59.55 194,-46.24"/>
<polygon fill="black" stroke="black" points="197.5,-46.18 194,-36.18 190.5,-46.18 197.5,-46.18"/>
<text text-anchor="middle" x="207.5" y="-57.8" font-family="Times,serif" font-size="14.00">dep</text>
</g>
<!-- 4 -->
<g id="node5" class="node">
<title>4</title>
<ellipse fill="none" stroke="black" cx="312" cy="-18" rx="50.09" ry="18"/>
<text text-anchor="middle" x="312" y="-14.3" font-family="Times,serif" font-size="14.00">moleque</text>
</g>
<!-- 0&#45;&gt;4 -->
<g id="edge4" class="edge">
<title>0&#45;&gt;4</title>
<path fill="none" stroke="black" d="M211.67,-91.27C230.37,-77.8 260.2,-56.32 282.48,-40.27"/>
<polygon fill="black" stroke="black" points="284.54,-43.09 290.61,-34.41 280.45,-37.41 284.54,-43.09"/>
<text text-anchor="middle" x="273.5" y="-57.8" font-family="Times,serif" font-size="14.00">dep</text>
</g>
<!-- 5 -->
<g id="node6" class="node">
<title>5</title>
<ellipse fill="none" stroke="black" cx="407" cy="-18" rx="27" ry="18"/>
<text text-anchor="middle" x="407" y="-14.3" font-family="Times,serif" font-size="14.00">.</text>
</g>
<!-- 0&#45;&gt;5 -->
<g id="edge5" class="edge">
<title>0&#45;&gt;5</title>
<path fill="none" stroke="black" d="M217.63,-95.81C237.34,-88.89 266.12,-78.62 291,-69 326.88,-55.14 335.82,-51.55 371,-36 372.8,-35.2 374.65,-34.37 376.51,-33.53"/>
<polygon fill="black" stroke="black" points="378.16,-36.62 385.76,-29.24 375.22,-30.27 378.16,-36.62"/>
<text text-anchor="middle" x="341.5" y="-57.8" font-family="Times,serif" font-size="14.00">dep</text>
</g>
</g>
</svg>
