<?xml version="1.0" encoding="UTF-8" standalone="no"?>
<!DOCTYPE svg PUBLIC "-//W3C//DTD SVG 1.1//EN"
 "http://www.w3.org/Graphics/SVG/1.1/DTD/svg11.dtd">
<!-- Generated by graphviz version 2.42.4 (0)
 -->
<!-- Pages: 1 -->
<svg width="2582pt" height="131pt"
 viewBox="0.00 0.00 2582.00 131.00" xmlns="http://www.w3.org/2000/svg" xmlns:xlink="http://www.w3.org/1999/xlink">
<g id="graph0" class="graph" transform="scale(1 1) rotate(0) translate(4 127)">
<polygon fill="white" stroke="transparent" points="-4,4 -4,-127 2578,-127 2578,4 -4,4"/>
<!-- 0 -->
<g id="node1" class="node">
<title>0</title>
<ellipse fill="none" stroke="black" cx="1281" cy="-105" rx="27" ry="18"/>
<text text-anchor="middle" x="1281" y="-101.3" font-family="Times,serif" font-size="14.00">Em</text>
</g>
<!-- 1 -->
<g id="node2" class="node">
<title>1</title>
<ellipse fill="none" stroke="black" cx="27" cy="-18" rx="27" ry="18"/>
<text text-anchor="middle" x="27" y="-14.3" font-family="Times,serif" font-size="14.00">vez</text>
</g>
<!-- 0&#45;&gt;1 -->
<g id="edge1" class="edge">
<title>0&#45;&gt;1</title>
<path fill="none" stroke="black" d="M1254.01,-103.68C1093.14,-101.7 264.09,-90.51 153,-69 118.73,-62.37 81.88,-46.64 56.94,-34.58"/>
<polygon fill="black" stroke="black" points="58.19,-31.29 47.67,-30 55.09,-37.57 58.19,-31.29"/>
<text text-anchor="middle" x="166.5" y="-57.8" font-family="Times,serif" font-size="14.00">dep</text>
</g>
<!-- 2 -->
<g id="node3" class="node">
<title>2</title>
<ellipse fill="none" stroke="black" cx="99" cy="-18" rx="27" ry="18"/>
<text text-anchor="middle" x="99" y="-14.3" font-family="Times,serif" font-size="14.00">de</text>
</g>
<!-- 0&#45;&gt;2 -->
<g id="edge2" class="edge">
<title>0&#45;&gt;2</title>
<path fill="none" stroke="black" d="M1253.8,-104.03C1111.05,-104.03 447.45,-102.21 245,-69 194.63,-60.74 182.66,-54.28 135,-36 133.16,-35.29 131.28,-34.54 129.4,-33.74"/>
<polygon fill="black" stroke="black" points="130.65,-30.47 120.09,-29.6 127.81,-36.86 130.65,-30.47"/>
<text text-anchor="middle" x="258.5" y="-57.8" font-family="Times,serif" font-size="14.00">dep</text>
</g>
<!-- 3 -->
<g id="node4" class="node">
<title>3</title>
<ellipse fill="none" stroke="black" cx="190" cy="-18" rx="46.29" ry="18"/>
<text text-anchor="middle" x="190" y="-14.3" font-family="Times,serif" font-size="14.00">mandar</text>
</g>
<!-- 0&#45;&gt;3 -->
<g id="edge3" class="edge">
<title>0&#45;&gt;3</title>
<path fill="none" stroke="black" d="M1253.83,-104.11C1118.31,-104.48 514.79,-104.12 331,-69 295.06,-62.13 255.97,-47.68 228.09,-36.07"/>
<polygon fill="black" stroke="black" points="229.29,-32.78 218.71,-32.1 226.56,-39.22 229.29,-32.78"/>
<text text-anchor="middle" x="344.5" y="-57.8" font-family="Times,serif" font-size="14.00">dep</text>
</g>
<!-- 4 -->
<g id="node5" class="node">
<title>4</title>
<ellipse fill="none" stroke="black" cx="281" cy="-18" rx="27" ry="18"/>
<text text-anchor="middle" x="281" y="-14.3" font-family="Times,serif" font-size="14.00">um</text>
</g>
<!-- 0&#45;&gt;4 -->
<g id="edge4" class="edge">
<title>0&#45;&gt;4</title>
<path fill="none" stroke="black" d="M1253.7,-103.95C1125.3,-103.56 580.79,-100.06 414,-69 377.28,-62.16 337.47,-45.92 311.08,-33.79"/>
<polygon fill="black" stroke="black" points="312.53,-30.61 301.99,-29.54 309.56,-36.95 312.53,-30.61"/>
<text text-anchor="middle" x="427.5" y="-57.8" font-family="Times,serif" font-size="14.00">dep</text>
</g>
<!-- 5 -->
<g id="node6" class="node">
<title>5</title>
<ellipse fill="none" stroke="black" cx="362" cy="-18" rx="36.29" ry="18"/>
<text text-anchor="middle" x="362" y="-14.3" font-family="Times,serif" font-size="14.00">papel</text>
</g>
<!-- 0&#45;&gt;5 -->
<g id="edge5" class="edge">
<title>0&#45;&gt;5</title>
<path fill="none" stroke="black" d="M1253.74,-103.97C1132.56,-103.63 642.16,-100.34 492,-69 458.21,-61.95 421.68,-47.21 395.97,-35.55"/>
<polygon fill="black" stroke="black" points="397.22,-32.28 386.68,-31.26 394.29,-38.63 397.22,-32.28"/>
<text text-anchor="middle" x="505.5" y="-57.8" font-family="Times,serif" font-size="14.00">dep</text>
</g>
<!-- 6 -->
<g id="node7" class="node">
<title>6</title>
<ellipse fill="none" stroke="black" cx="443" cy="-18" rx="27" ry="18"/>
<text text-anchor="middle" x="443" y="-14.3" font-family="Times,serif" font-size="14.00">por</text>
</g>
<!-- 0&#45;&gt;6 -->
<g id="edge6" class="edge">
<title>0&#45;&gt;6</title>
<path fill="none" stroke="black" d="M1254.03,-103.68C1141.45,-102.17 708.76,-94.77 575,-69 538.73,-62.01 499.4,-45.92 473.2,-33.86"/>
<polygon fill="black" stroke="black" points="474.37,-30.55 463.83,-29.47 471.4,-36.88 474.37,-30.55"/>
<text text-anchor="middle" x="588.5" y="-57.8" font-family="Times,serif" font-size="14.00">dep</text>
</g>
<!-- 7 -->
<g id="node8" class="node">
<title>7</title>
<ellipse fill="none" stroke="black" cx="515" cy="-18" rx="27" ry="18"/>
<text text-anchor="middle" x="515" y="-14.3" font-family="Times,serif" font-size="14.00">o</text>
</g>
<!-- 0&#45;&gt;7 -->
<g id="edge7" class="edge">
<title>0&#45;&gt;7</title>
<path fill="none" stroke="black" d="M1253.85,-104.27C1168.69,-104.72 899.46,-103.14 680,-69 621.52,-59.9 606.68,-56.06 551,-36 549.15,-35.33 547.26,-34.6 545.37,-33.83"/>
<polygon fill="black" stroke="black" points="546.6,-30.55 536.04,-29.75 543.8,-36.97 546.6,-30.55"/>
<text text-anchor="middle" x="693.5" y="-57.8" font-family="Times,serif" font-size="14.00">dep</text>
</g>
<!-- 8 -->
<g id="node9" class="node">
<title>8</title>
<ellipse fill="none" stroke="black" cx="605" cy="-18" rx="45.49" ry="18"/>
<text text-anchor="middle" x="605" y="-14.3" font-family="Times,serif" font-size="14.00">garçom</text>
</g>
<!-- 0&#45;&gt;8 -->
<g id="edge8" class="edge">
<title>0&#45;&gt;8</title>
<path fill="none" stroke="black" d="M1253.87,-104.23C1177.21,-104.45 952.67,-101.99 770,-69 727.02,-61.24 679.44,-46.08 646.46,-34.48"/>
<polygon fill="black" stroke="black" points="647.31,-31.07 636.71,-31.01 644.95,-37.66 647.31,-31.07"/>
<text text-anchor="middle" x="783.5" y="-57.8" font-family="Times,serif" font-size="14.00">dep</text>
</g>
<!-- 9 -->
<g id="node10" class="node">
<title>9</title>
<ellipse fill="none" stroke="black" cx="698" cy="-18" rx="29.8" ry="18"/>
<text text-anchor="middle" x="698" y="-14.3" font-family="Times,serif" font-size="14.00">com</text>
</g>
<!-- 0&#45;&gt;9 -->
<g id="edge9" class="edge">
<title>0&#45;&gt;9</title>
<path fill="none" stroke="black" d="M1253.96,-102.84C1189.68,-99.8 1022.77,-90.35 885,-69 818.4,-58.68 801.07,-56.89 737,-36 734.75,-35.27 732.45,-34.45 730.15,-33.58"/>
<polygon fill="black" stroke="black" points="731.4,-30.31 720.81,-29.81 728.78,-36.8 731.4,-30.31"/>
<text text-anchor="middle" x="898.5" y="-57.8" font-family="Times,serif" font-size="14.00">dep</text>
</g>
<!-- 10 -->
<g id="node11" class="node">
<title>10</title>
<ellipse fill="none" stroke="black" cx="798" cy="-18" rx="51.99" ry="18"/>
<text text-anchor="middle" x="798" y="-14.3" font-family="Times,serif" font-size="14.00">cantadas</text>
</g>
<!-- 0&#45;&gt;10 -->
<g id="edge10" class="edge">
<title>0&#45;&gt;10</title>
<path fill="none" stroke="black" d="M1254.08,-102.41C1200.39,-98.92 1076.36,-89.23 974,-69 929,-60.1 878.76,-45.33 843.51,-34.15"/>
<polygon fill="black" stroke="black" points="844.57,-30.81 833.98,-31.09 842.44,-37.48 844.57,-30.81"/>
<text text-anchor="middle" x="987.5" y="-57.8" font-family="Times,serif" font-size="14.00">dep</text>
</g>
<!-- 11 -->
<g id="node12" class="node">
<title>11</title>
<ellipse fill="none" stroke="black" cx="915" cy="-18" rx="47.39" ry="18"/>
<text text-anchor="middle" x="915" y="-14.3" font-family="Times,serif" font-size="14.00">escritas</text>
</g>
<!-- 0&#45;&gt;11 -->
<g id="edge11" class="edge">
<title>0&#45;&gt;11</title>
<path fill="none" stroke="black" d="M1254.32,-101.74C1210.94,-97.68 1122.66,-87.75 1050,-69 1017.02,-60.49 980.9,-46.87 954.33,-36"/>
<polygon fill="black" stroke="black" points="955.57,-32.72 944.99,-32.13 952.89,-39.19 955.57,-32.72"/>
<text text-anchor="middle" x="1063.5" y="-57.8" font-family="Times,serif" font-size="14.00">dep</text>
</g>
<!-- 12 -->
<g id="node13" class="node">
<title>12</title>
<ellipse fill="none" stroke="black" cx="1007" cy="-18" rx="27" ry="18"/>
<text text-anchor="middle" x="1007" y="-14.3" font-family="Times,serif" font-size="14.00">,</text>
</g>
<!-- 0&#45;&gt;12 -->
<g id="edge12" class="edge">
<title>0&#45;&gt;12</title>
<path fill="none" stroke="black" d="M1254.82,-100.24C1221.89,-95.1 1163.86,-84.69 1116,-69 1082.17,-57.91 1075.32,-50.94 1043,-36 1041.21,-35.17 1039.38,-34.32 1037.52,-33.46"/>
<polygon fill="black" stroke="black" points="1038.83,-30.21 1028.29,-29.13 1035.86,-36.54 1038.83,-30.21"/>
<text text-anchor="middle" x="1129.5" y="-57.8" font-family="Times,serif" font-size="14.00">dep</text>
</g>
<!-- 13 -->
<g id="node14" class="node">
<title>13</title>
<ellipse fill="none" stroke="black" cx="1079" cy="-18" rx="27" ry="18"/>
<text text-anchor="middle" x="1079" y="-14.3" font-family="Times,serif" font-size="14.00">o</text>
</g>
<!-- 0&#45;&gt;13 -->
<g id="edge13" class="edge">
<title>0&#45;&gt;13</title>
<path fill="none" stroke="black" d="M1256.67,-96.92C1235.35,-90.46 1203.69,-80.23 1177,-69 1153.09,-58.94 1126.98,-45.49 1107.72,-35.07"/>
<polygon fill="black" stroke="black" points="1109.31,-31.95 1098.86,-30.23 1105.96,-38.09 1109.31,-31.95"/>
<text text-anchor="middle" x="1190.5" y="-57.8" font-family="Times,serif" font-size="14.00">dep</text>
</g>
<!-- 14 -->
<g id="node15" class="node">
<title>14</title>
<ellipse fill="none" stroke="black" cx="1160" cy="-18" rx="36.29" ry="18"/>
<text text-anchor="middle" x="1160" y="-14.3" font-family="Times,serif" font-size="14.00">plínio</text>
</g>
<!-- 0&#45;&gt;14 -->
<g id="edge14" class="edge">
<title>0&#45;&gt;14</title>
<path fill="none" stroke="black" d="M1262.12,-91.52C1252.2,-84.91 1239.88,-76.6 1229,-69 1215.3,-59.43 1200.26,-48.58 1187.73,-39.43"/>
<polygon fill="black" stroke="black" points="1189.64,-36.49 1179.5,-33.41 1185.5,-42.14 1189.64,-36.49"/>
<text text-anchor="middle" x="1242.5" y="-57.8" font-family="Times,serif" font-size="14.00">dep</text>
</g>
<!-- 15 -->
<g id="node16" class="node">
<title>15</title>
<ellipse fill="none" stroke="black" cx="1242" cy="-18" rx="27.9" ry="18"/>
<text text-anchor="middle" x="1242" y="-14.3" font-family="Times,serif" font-size="14.00">liga</text>
</g>
<!-- 0&#45;&gt;15 -->
<g id="edge15" class="edge">
<title>0&#45;&gt;15</title>
<path fill="none" stroke="black" d="M1273.48,-87.61C1267.91,-75.46 1260.2,-58.66 1253.8,-44.73"/>
<polygon fill="black" stroke="black" points="1256.98,-43.26 1249.63,-35.63 1250.62,-46.18 1256.98,-43.26"/>
<text text-anchor="middle" x="1277.5" y="-57.8" font-family="Times,serif" font-size="14.00">dep</text>
</g>
<!-- 16 -->
<g id="node17" class="node">
<title>16</title>
<ellipse fill="none" stroke="black" cx="1320" cy="-18" rx="31.7" ry="18"/>
<text text-anchor="middle" x="1320" y="-14.3" font-family="Times,serif" font-size="14.00">para</text>
</g>
<!-- 0&#45;&gt;16 -->
<g id="edge16" class="edge">
<title>0&#45;&gt;16</title>
<path fill="none" stroke="black" d="M1288.52,-87.61C1294.09,-75.46 1301.8,-58.66 1308.2,-44.73"/>
<polygon fill="black" stroke="black" points="1311.38,-46.18 1312.37,-35.63 1305.02,-43.26 1311.38,-46.18"/>
<text text-anchor="middle" x="1316.5" y="-57.8" font-family="Times,serif" font-size="14.00">dep</text>
</g>
<!-- 17 -->
<g id="node18" class="node">
<title>17</title>
<ellipse fill="none" stroke="black" cx="1397" cy="-18" rx="27" ry="18"/>
<text text-anchor="middle" x="1397" y="-14.3" font-family="Times,serif" font-size="14.00">a</text>
</g>
<!-- 0&#45;&gt;17 -->
<g id="edge17" class="edge">
<title>0&#45;&gt;17</title>
<path fill="none" stroke="black" d="M1299.91,-92.08C1310.15,-85.49 1322.93,-77.02 1334,-69 1347.1,-59.5 1361.25,-48.36 1372.81,-39.01"/>
<polygon fill="black" stroke="black" points="1375.18,-41.59 1380.72,-32.56 1370.76,-36.16 1375.18,-41.59"/>
<text text-anchor="middle" x="1367.5" y="-57.8" font-family="Times,serif" font-size="14.00">dep</text>
</g>
<!-- 18 -->
<g id="node19" class="node">
<title>18</title>
<ellipse fill="none" stroke="black" cx="1478" cy="-18" rx="36.29" ry="18"/>
<text text-anchor="middle" x="1478" y="-14.3" font-family="Times,serif" font-size="14.00">plínia</text>
</g>
<!-- 0&#45;&gt;18 -->
<g id="edge18" class="edge">
<title>0&#45;&gt;18</title>
<path fill="none" stroke="black" d="M1305.39,-97.07C1326.75,-90.69 1358.43,-80.52 1385,-69 1406.2,-59.81 1429.06,-47.55 1446.82,-37.47"/>
<polygon fill="black" stroke="black" points="1448.67,-40.44 1455.6,-32.43 1445.19,-34.37 1448.67,-40.44"/>
<text text-anchor="middle" x="1427.5" y="-57.8" font-family="Times,serif" font-size="14.00">dep</text>
</g>
<!-- 19 -->
<g id="node20" class="node">
<title>19</title>
<ellipse fill="none" stroke="black" cx="1559" cy="-18" rx="27" ry="18"/>
<text text-anchor="middle" x="1559" y="-14.3" font-family="Times,serif" font-size="14.00">de</text>
</g>
<!-- 0&#45;&gt;19 -->
<g id="edge19" class="edge">
<title>0&#45;&gt;19</title>
<path fill="none" stroke="black" d="M1306.96,-100.03C1339.63,-94.68 1397.24,-84.05 1445,-69 1480.9,-57.69 1488.64,-51.37 1523,-36 1524.8,-35.2 1526.64,-34.36 1528.5,-33.51"/>
<polygon fill="black" stroke="black" points="1530.15,-36.6 1537.75,-29.21 1527.2,-30.25 1530.15,-36.6"/>
<text text-anchor="middle" x="1498.5" y="-57.8" font-family="Times,serif" font-size="14.00">dep</text>
</g>
<!-- 20 -->
<g id="node21" class="node">
<title>20</title>
<ellipse fill="none" stroke="black" cx="1631" cy="-18" rx="27" ry="18"/>
<text text-anchor="middle" x="1631" y="-14.3" font-family="Times,serif" font-size="14.00">sua</text>
</g>
<!-- 0&#45;&gt;20 -->
<g id="edge20" class="edge">
<title>0&#45;&gt;20</title>
<path fill="none" stroke="black" d="M1307.88,-102.17C1352.01,-98.69 1442.29,-89.54 1516,-69 1546.09,-60.61 1578.58,-45.92 1601.33,-34.62"/>
<polygon fill="black" stroke="black" points="1603.1,-37.65 1610.44,-30.02 1599.94,-31.4 1603.1,-37.65"/>
<text text-anchor="middle" x="1572.5" y="-57.8" font-family="Times,serif" font-size="14.00">dep</text>
</g>
<!-- 21 -->
<g id="node22" class="node">
<title>21</title>
<ellipse fill="none" stroke="black" cx="1735" cy="-18" rx="59.29" ry="18"/>
<text text-anchor="middle" x="1735" y="-14.3" font-family="Times,serif" font-size="14.00">predileção</text>
</g>
<!-- 0&#45;&gt;21 -->
<g id="edge21" class="edge">
<title>0&#45;&gt;21</title>
<path fill="none" stroke="black" d="M1308.2,-102.92C1362.42,-100.33 1487.58,-92.16 1590,-69 1624.97,-61.09 1663.26,-47.67 1691.7,-36.73"/>
<polygon fill="black" stroke="black" points="1693.29,-39.87 1701.33,-32.97 1690.75,-33.34 1693.29,-39.87"/>
<text text-anchor="middle" x="1656.5" y="-57.8" font-family="Times,serif" font-size="14.00">dep</text>
</g>
<!-- 22 -->
<g id="node23" class="node">
<title>22</title>
<ellipse fill="none" stroke="black" cx="1839" cy="-18" rx="27" ry="18"/>
<text text-anchor="middle" x="1839" y="-14.3" font-family="Times,serif" font-size="14.00">e</text>
</g>
<!-- 0&#45;&gt;22 -->
<g id="edge22" class="edge">
<title>0&#45;&gt;22</title>
<path fill="none" stroke="black" d="M1307.88,-103.1C1371.77,-100.65 1537.62,-92.36 1674,-69 1732.33,-59.01 1747.32,-56.06 1803,-36 1804.85,-35.33 1806.74,-34.6 1808.63,-33.83"/>
<polygon fill="black" stroke="black" points="1810.2,-36.97 1817.96,-29.75 1807.4,-30.55 1810.2,-36.97"/>
<text text-anchor="middle" x="1762.5" y="-57.8" font-family="Times,serif" font-size="14.00">dep</text>
</g>
<!-- 23 -->
<g id="node24" class="node">
<title>23</title>
<ellipse fill="none" stroke="black" cx="1926" cy="-18" rx="41.69" ry="18"/>
<text text-anchor="middle" x="1926" y="-14.3" font-family="Times,serif" font-size="14.00">pronto</text>
</g>
<!-- 0&#45;&gt;23 -->
<g id="edge23" class="edge">
<title>0&#45;&gt;23</title>
<path fill="none" stroke="black" d="M1308.11,-104.55C1383.67,-105.56 1602.75,-104.93 1780,-69 1817.75,-61.35 1859.14,-46.52 1888.18,-35"/>
<polygon fill="black" stroke="black" points="1889.56,-38.21 1897.53,-31.23 1886.95,-31.72 1889.56,-38.21"/>
<text text-anchor="middle" x="1847.5" y="-57.8" font-family="Times,serif" font-size="14.00">dep</text>
</g>
<!-- 24 -->
<g id="node25" class="node">
<title>24</title>
<ellipse fill="none" stroke="black" cx="2013" cy="-18" rx="27" ry="18"/>
<text text-anchor="middle" x="2013" y="-14.3" font-family="Times,serif" font-size="14.00">&#45;&#45;</text>
</g>
<!-- 0&#45;&gt;24 -->
<g id="edge24" class="edge">
<title>0&#45;&gt;24</title>
<path fill="none" stroke="black" d="M1308.03,-104.54C1391.59,-105.76 1652.89,-106.11 1865,-69 1916.12,-60.06 1928.5,-54.47 1977,-36 1978.84,-35.3 1980.72,-34.54 1982.6,-33.75"/>
<polygon fill="black" stroke="black" points="1984.19,-36.88 1991.92,-29.62 1981.36,-30.48 1984.19,-36.88"/>
<text text-anchor="middle" x="1941.5" y="-57.8" font-family="Times,serif" font-size="14.00">dep</text>
</g>
<!-- 25 -->
<g id="node26" class="node">
<title>25</title>
<ellipse fill="none" stroke="black" cx="2089" cy="-18" rx="30.59" ry="18"/>
<text text-anchor="middle" x="2089" y="-14.3" font-family="Times,serif" font-size="14.00">está</text>
</g>
<!-- 0&#45;&gt;25 -->
<g id="edge25" class="edge">
<title>0&#45;&gt;25</title>
<path fill="none" stroke="black" d="M1308.03,-103.68C1417.89,-102.23 1831.25,-95.1 1959,-69 1993.66,-61.92 2031.17,-46.6 2056.94,-34.77"/>
<polygon fill="black" stroke="black" points="2058.64,-37.84 2066.22,-30.43 2055.68,-31.5 2058.64,-37.84"/>
<text text-anchor="middle" x="2024.5" y="-57.8" font-family="Times,serif" font-size="14.00">dep</text>
</g>
<!-- 26 -->
<g id="node27" class="node">
<title>26</title>
<ellipse fill="none" stroke="black" cx="2169" cy="-18" rx="31.7" ry="18"/>
<text text-anchor="middle" x="2169" y="-14.3" font-family="Times,serif" font-size="14.00">feito</text>
</g>
<!-- 0&#45;&gt;26 -->
<g id="edge26" class="edge">
<title>0&#45;&gt;26</title>
<path fill="none" stroke="black" d="M1308.08,-103.9C1426.27,-103.28 1897.44,-98.95 2042,-69 2075.74,-62.01 2112.13,-46.83 2137.27,-35.02"/>
<polygon fill="black" stroke="black" points="2138.82,-38.15 2146.33,-30.68 2135.8,-31.84 2138.82,-38.15"/>
<text text-anchor="middle" x="2106.5" y="-57.8" font-family="Times,serif" font-size="14.00">dep</text>
</g>
<!-- 27 -->
<g id="node28" class="node">
<title>27</title>
<ellipse fill="none" stroke="black" cx="2246" cy="-18" rx="27" ry="18"/>
<text text-anchor="middle" x="2246" y="-14.3" font-family="Times,serif" font-size="14.00">o</text>
</g>
<!-- 0&#45;&gt;27 -->
<g id="edge27" class="edge">
<title>0&#45;&gt;27</title>
<path fill="none" stroke="black" d="M1307.99,-104.05C1433.72,-104.12 1962.62,-102.38 2124,-69 2157.05,-62.17 2192.49,-46.62 2216.61,-34.66"/>
<polygon fill="black" stroke="black" points="2218.25,-37.76 2225.59,-30.12 2215.09,-31.51 2218.25,-37.76"/>
<text text-anchor="middle" x="2186.5" y="-57.8" font-family="Times,serif" font-size="14.00">dep</text>
</g>
<!-- 28 -->
<g id="node29" class="node">
<title>28</title>
<ellipse fill="none" stroke="black" cx="2336" cy="-18" rx="45.49" ry="18"/>
<text text-anchor="middle" x="2336" y="-14.3" font-family="Times,serif" font-size="14.00">contato</text>
</g>
<!-- 0&#45;&gt;28 -->
<g id="edge28" class="edge">
<title>0&#45;&gt;28</title>
<path fill="none" stroke="black" d="M1308.3,-104.15C1441.74,-104.71 2026.21,-105.04 2204,-69 2237.22,-62.27 2273.08,-48.21 2299.03,-36.71"/>
<polygon fill="black" stroke="black" points="2300.79,-39.76 2308.46,-32.45 2297.91,-33.38 2300.79,-39.76"/>
<text text-anchor="middle" x="2270.5" y="-57.8" font-family="Times,serif" font-size="14.00">dep</text>
</g>
<!-- 29 -->
<g id="node30" class="node">
<title>29</title>
<ellipse fill="none" stroke="black" cx="2451" cy="-18" rx="51.19" ry="18"/>
<text text-anchor="middle" x="2451" y="-14.3" font-family="Times,serif" font-size="14.00">imediato</text>
</g>
<!-- 0&#45;&gt;29 -->
<g id="edge29" class="edge">
<title>0&#45;&gt;29</title>
<path fill="none" stroke="black" d="M1308.37,-104.02C1449.04,-103.97 2091.76,-101.92 2288,-69 2329.93,-61.97 2376.13,-47.08 2408.6,-35.38"/>
<polygon fill="black" stroke="black" points="2410.03,-38.58 2418.21,-31.86 2407.62,-32.01 2410.03,-38.58"/>
<text text-anchor="middle" x="2361.5" y="-57.8" font-family="Times,serif" font-size="14.00">dep</text>
</g>
<!-- 30 -->
<g id="node31" class="node">
<title>30</title>
<ellipse fill="none" stroke="black" cx="2547" cy="-18" rx="27" ry="18"/>
<text text-anchor="middle" x="2547" y="-14.3" font-family="Times,serif" font-size="14.00">.</text>
</g>
<!-- 0&#45;&gt;30 -->
<g id="edge30" class="edge">
<title>0&#45;&gt;30</title>
<path fill="none" stroke="black" d="M1308.33,-103.92C1456.32,-103.35 2162.95,-99.1 2379,-69 2438.89,-60.66 2454.05,-56.34 2511,-36 2512.86,-35.34 2514.74,-34.61 2516.63,-33.84"/>
<polygon fill="black" stroke="black" points="2518.2,-36.98 2525.97,-29.77 2515.41,-30.56 2518.2,-36.98"/>
<text text-anchor="middle" x="2471.5" y="-57.8" font-family="Times,serif" font-size="14.00">dep</text>
</g>
</g>
</svg>
