<?xml version="1.0" encoding="UTF-8" standalone="no"?>
<!DOCTYPE svg PUBLIC "-//W3C//DTD SVG 1.1//EN"
 "http://www.w3.org/Graphics/SVG/1.1/DTD/svg11.dtd">
<!-- Generated by graphviz version 2.42.4 (0)
 -->
<!-- Pages: 1 -->
<svg width="3626pt" height="131pt"
 viewBox="0.00 0.00 3626.05 131.00" xmlns="http://www.w3.org/2000/svg" xmlns:xlink="http://www.w3.org/1999/xlink">
<g id="graph0" class="graph" transform="scale(1 1) rotate(0) translate(4 127)">
<polygon fill="white" stroke="transparent" points="-4,4 -4,-127 3622.05,-127 3622.05,4 -4,4"/>
<!-- 0 -->
<g id="node1" class="node">
<title>0</title>
<ellipse fill="none" stroke="black" cx="1792.05" cy="-105" rx="57.69" ry="18"/>
<text text-anchor="middle" x="1792.05" y="-101.3" font-family="Times,serif" font-size="14.00">Tampouco</text>
</g>
<!-- 1 -->
<g id="node2" class="node">
<title>1</title>
<ellipse fill="none" stroke="black" cx="37.05" cy="-18" rx="37.09" ry="18"/>
<text text-anchor="middle" x="37.05" y="-14.3" font-family="Times,serif" font-size="14.00">passa</text>
</g>
<!-- 0&#45;&gt;1 -->
<g id="edge1" class="edge">
<title>0&#45;&gt;1</title>
<path fill="none" stroke="black" d="M1734.2,-103.91C1463.2,-103.31 325.79,-99.05 170.05,-69 135.32,-62.3 97.76,-47.42 71.45,-35.62"/>
<polygon fill="black" stroke="black" points="72.84,-32.41 62.29,-31.44 69.93,-38.78 72.84,-32.41"/>
<text text-anchor="middle" x="183.55" y="-57.8" font-family="Times,serif" font-size="14.00">dep</text>
</g>
<!-- 2 -->
<g id="node3" class="node">
<title>2</title>
<ellipse fill="none" stroke="black" cx="119.05" cy="-18" rx="27" ry="18"/>
<text text-anchor="middle" x="119.05" y="-14.3" font-family="Times,serif" font-size="14.00">por</text>
</g>
<!-- 0&#45;&gt;2 -->
<g id="edge2" class="edge">
<title>0&#45;&gt;2</title>
<path fill="none" stroke="black" d="M1734.19,-103.71C1471.99,-102.23 401.65,-94.68 254.05,-69 216.55,-62.48 175.89,-46.02 149.1,-33.76"/>
<polygon fill="black" stroke="black" points="150.43,-30.51 139.89,-29.45 147.47,-36.86 150.43,-30.51"/>
<text text-anchor="middle" x="267.55" y="-57.8" font-family="Times,serif" font-size="14.00">dep</text>
</g>
<!-- 3 -->
<g id="node4" class="node">
<title>3</title>
<ellipse fill="none" stroke="black" cx="196.05" cy="-18" rx="31.7" ry="18"/>
<text text-anchor="middle" x="196.05" y="-14.3" font-family="Times,serif" font-size="14.00">FHC</text>
</g>
<!-- 0&#45;&gt;3 -->
<g id="edge3" class="edge">
<title>0&#45;&gt;3</title>
<path fill="none" stroke="black" d="M1734.16,-103.56C1481.38,-101.51 480.77,-92 342.05,-69 302.03,-62.37 258.29,-46.09 229.22,-33.9"/>
<polygon fill="black" stroke="black" points="230.52,-30.65 219.95,-29.94 227.77,-37.09 230.52,-30.65"/>
<text text-anchor="middle" x="355.55" y="-57.8" font-family="Times,serif" font-size="14.00">dep</text>
</g>
<!-- 4 -->
<g id="node5" class="node">
<title>4</title>
<ellipse fill="none" stroke="black" cx="273.05" cy="-18" rx="27" ry="18"/>
<text text-anchor="middle" x="273.05" y="-14.3" font-family="Times,serif" font-size="14.00">,</text>
</g>
<!-- 0&#45;&gt;4 -->
<g id="edge4" class="edge">
<title>0&#45;&gt;4</title>
<path fill="none" stroke="black" d="M1734.07,-103.8C1512.86,-102.82 721.89,-97.39 472.05,-69 398.61,-60.66 379.2,-59.28 309.05,-36 307.13,-35.36 305.18,-34.65 303.23,-33.89"/>
<polygon fill="black" stroke="black" points="304.21,-30.5 293.64,-29.76 301.44,-36.93 304.21,-30.5"/>
<text text-anchor="middle" x="485.55" y="-57.8" font-family="Times,serif" font-size="14.00">dep</text>
</g>
<!-- 5 -->
<g id="node6" class="node">
<title>5</title>
<ellipse fill="none" stroke="black" cx="395.05" cy="-18" rx="76.89" ry="18"/>
<text text-anchor="middle" x="395.05" y="-14.3" font-family="Times,serif" font-size="14.00">representante</text>
</g>
<!-- 0&#45;&gt;5 -->
<g id="edge5" class="edge">
<title>0&#45;&gt;5</title>
<path fill="none" stroke="black" d="M1734.06,-104.24C1523.46,-104.82 799.38,-104.15 571.05,-69 527.61,-62.31 479.72,-48.25 444.88,-36.74"/>
<polygon fill="black" stroke="black" points="445.55,-33.27 434.96,-33.41 443.33,-39.91 445.55,-33.27"/>
<text text-anchor="middle" x="584.55" y="-57.8" font-family="Times,serif" font-size="14.00">dep</text>
</g>
<!-- 6 -->
<g id="node7" class="node">
<title>6</title>
<ellipse fill="none" stroke="black" cx="517.05" cy="-18" rx="27" ry="18"/>
<text text-anchor="middle" x="517.05" y="-14.3" font-family="Times,serif" font-size="14.00">de</text>
</g>
<!-- 0&#45;&gt;6 -->
<g id="edge6" class="edge">
<title>0&#45;&gt;6</title>
<path fill="none" stroke="black" d="M1734.03,-104.17C1533.89,-104.46 873.19,-102.75 664.05,-69 613.24,-60.8 601.12,-54.37 553.05,-36 551.21,-35.3 549.33,-34.54 547.45,-33.75"/>
<polygon fill="black" stroke="black" points="548.69,-30.47 538.13,-29.61 545.85,-36.87 548.69,-30.47"/>
<text text-anchor="middle" x="677.55" y="-57.8" font-family="Times,serif" font-size="14.00">dep</text>
</g>
<!-- 7 -->
<g id="node8" class="node">
<title>7</title>
<ellipse fill="none" stroke="black" cx="589.05" cy="-18" rx="27" ry="18"/>
<text text-anchor="middle" x="589.05" y="-14.3" font-family="Times,serif" font-size="14.00">a</text>
</g>
<!-- 0&#45;&gt;7 -->
<g id="edge7" class="edge">
<title>0&#45;&gt;7</title>
<path fill="none" stroke="black" d="M1734.13,-104.55C1583.31,-105.4 1166.12,-104.12 821.05,-69 733.16,-60.06 709.33,-62.44 625.05,-36 623.12,-35.39 621.16,-34.71 619.2,-33.96"/>
<polygon fill="black" stroke="black" points="620.17,-30.57 609.6,-29.89 617.44,-37.01 620.17,-30.57"/>
<text text-anchor="middle" x="834.55" y="-57.8" font-family="Times,serif" font-size="14.00">dep</text>
</g>
<!-- 8 -->
<g id="node9" class="node">
<title>8</title>
<ellipse fill="none" stroke="black" cx="723.05" cy="-18" rx="89.08" ry="18"/>
<text text-anchor="middle" x="723.05" y="-14.3" font-family="Times,serif" font-size="14.00">contemporização</text>
</g>
<!-- 0&#45;&gt;8 -->
<g id="edge8" class="edge">
<title>0&#45;&gt;8</title>
<path fill="none" stroke="black" d="M1734.43,-103.21C1566.78,-100.65 1081.18,-91.47 924.05,-69 874.49,-61.91 819.4,-47.75 779.44,-36.3"/>
<polygon fill="black" stroke="black" points="780.2,-32.88 769.62,-33.45 778.25,-39.6 780.2,-32.88"/>
<text text-anchor="middle" x="937.55" y="-57.8" font-family="Times,serif" font-size="14.00">dep</text>
</g>
<!-- 9 -->
<g id="node10" class="node">
<title>9</title>
<ellipse fill="none" stroke="black" cx="861.05" cy="-18" rx="30.59" ry="18"/>
<text text-anchor="middle" x="861.05" y="-14.3" font-family="Times,serif" font-size="14.00">bem</text>
</g>
<!-- 0&#45;&gt;9 -->
<g id="edge9" class="edge">
<title>0&#45;&gt;9</title>
<path fill="none" stroke="black" d="M1734.53,-102.98C1580.47,-99.98 1160.91,-90.08 1024.05,-69 967.68,-60.32 953.89,-54.78 900.05,-36 897.95,-35.27 895.81,-34.47 893.66,-33.64"/>
<polygon fill="black" stroke="black" points="894.91,-30.37 884.33,-29.83 892.26,-36.85 894.91,-30.37"/>
<text text-anchor="middle" x="1037.55" y="-57.8" font-family="Times,serif" font-size="14.00">dep</text>
</g>
<!-- 10 -->
<g id="node11" class="node">
<title>10</title>
<ellipse fill="none" stroke="black" cx="964.05" cy="-18" rx="54.69" ry="18"/>
<text text-anchor="middle" x="964.05" y="-14.3" font-family="Times,serif" font-size="14.00">explicada</text>
</g>
<!-- 0&#45;&gt;10 -->
<g id="edge10" class="edge">
<title>0&#45;&gt;10</title>
<path fill="none" stroke="black" d="M1734.28,-103.16C1591.79,-100.75 1226.45,-92.42 1107.05,-69 1071.61,-62.05 1033.05,-48.17 1004.91,-36.79"/>
<polygon fill="black" stroke="black" points="1005.99,-33.46 995.41,-32.89 1003.33,-39.93 1005.99,-33.46"/>
<text text-anchor="middle" x="1120.55" y="-57.8" font-family="Times,serif" font-size="14.00">dep</text>
</g>
<!-- 11 -->
<g id="node12" class="node">
<title>11</title>
<ellipse fill="none" stroke="black" cx="1064.05" cy="-18" rx="27" ry="18"/>
<text text-anchor="middle" x="1064.05" y="-14.3" font-family="Times,serif" font-size="14.00">,</text>
</g>
<!-- 0&#45;&gt;11 -->
<g id="edge11" class="edge">
<title>0&#45;&gt;11</title>
<path fill="none" stroke="black" d="M1734.39,-102.97C1603.79,-100.26 1288.71,-91.53 1185.05,-69 1152.45,-61.92 1117.45,-46.52 1093.53,-34.67"/>
<polygon fill="black" stroke="black" points="1094.81,-31.39 1084.3,-30.01 1091.65,-37.64 1094.81,-31.39"/>
<text text-anchor="middle" x="1198.55" y="-57.8" font-family="Times,serif" font-size="14.00">dep</text>
</g>
<!-- 12 -->
<g id="node13" class="node">
<title>12</title>
<ellipse fill="none" stroke="black" cx="1136.05" cy="-18" rx="27" ry="18"/>
<text text-anchor="middle" x="1136.05" y="-14.3" font-family="Times,serif" font-size="14.00">ou</text>
</g>
<!-- 0&#45;&gt;12 -->
<g id="edge12" class="edge">
<title>0&#45;&gt;12</title>
<path fill="none" stroke="black" d="M1734.96,-102.09C1618.26,-97.88 1355.97,-86.72 1268.05,-69 1232.05,-61.74 1192.96,-45.85 1166.74,-33.92"/>
<polygon fill="black" stroke="black" points="1167.9,-30.6 1157.35,-29.56 1164.95,-36.95 1167.9,-30.6"/>
<text text-anchor="middle" x="1281.55" y="-57.8" font-family="Times,serif" font-size="14.00">dep</text>
</g>
<!-- 13 -->
<g id="node14" class="node">
<title>13</title>
<ellipse fill="none" stroke="black" cx="1208.05" cy="-18" rx="27" ry="18"/>
<text text-anchor="middle" x="1208.05" y="-14.3" font-family="Times,serif" font-size="14.00">por</text>
</g>
<!-- 0&#45;&gt;13 -->
<g id="edge13" class="edge">
<title>0&#45;&gt;13</title>
<path fill="none" stroke="black" d="M1734.58,-102.54C1652.5,-99.72 1497.25,-91.64 1367.05,-69 1311.28,-59.3 1297.18,-55.5 1244.05,-36 1242.2,-35.32 1240.31,-34.58 1238.43,-33.81"/>
<polygon fill="black" stroke="black" points="1239.66,-30.53 1229.1,-29.71 1236.85,-36.94 1239.66,-30.53"/>
<text text-anchor="middle" x="1380.55" y="-57.8" font-family="Times,serif" font-size="14.00">dep</text>
</g>
<!-- 14 -->
<g id="node15" class="node">
<title>14</title>
<ellipse fill="none" stroke="black" cx="1299.05" cy="-18" rx="46.29" ry="18"/>
<text text-anchor="middle" x="1299.05" y="-14.3" font-family="Times,serif" font-size="14.00">Antonio</text>
</g>
<!-- 0&#45;&gt;14 -->
<g id="edge14" class="edge">
<title>0&#45;&gt;14</title>
<path fill="none" stroke="black" d="M1735.1,-101.79C1667.28,-98.32 1550.88,-89.69 1453.05,-69 1413.84,-60.71 1370.54,-46.14 1339.86,-34.87"/>
<polygon fill="black" stroke="black" points="1340.96,-31.54 1330.37,-31.33 1338.52,-38.1 1340.96,-31.54"/>
<text text-anchor="middle" x="1466.55" y="-57.8" font-family="Times,serif" font-size="14.00">dep</text>
</g>
<!-- 15 -->
<g id="node16" class="node">
<title>15</title>
<ellipse fill="none" stroke="black" cx="1401.05" cy="-18" rx="38.19" ry="18"/>
<text text-anchor="middle" x="1401.05" y="-14.3" font-family="Times,serif" font-size="14.00">Britto</text>
</g>
<!-- 0&#45;&gt;15 -->
<g id="edge15" class="edge">
<title>0&#45;&gt;15</title>
<path fill="none" stroke="black" d="M1736.08,-100.3C1682.74,-95.88 1600.48,-86.75 1531.05,-69 1498.22,-60.61 1462.39,-46.43 1436.67,-35.31"/>
<polygon fill="black" stroke="black" points="1437.9,-32.02 1427.34,-31.21 1435.09,-38.43 1437.9,-32.02"/>
<text text-anchor="middle" x="1544.55" y="-57.8" font-family="Times,serif" font-size="14.00">dep</text>
</g>
<!-- 16 -->
<g id="node17" class="node">
<title>16</title>
<ellipse fill="none" stroke="black" cx="1487.05" cy="-18" rx="29.8" ry="18"/>
<text text-anchor="middle" x="1487.05" y="-14.3" font-family="Times,serif" font-size="14.00">cujo</text>
</g>
<!-- 0&#45;&gt;16 -->
<g id="edge16" class="edge">
<title>0&#45;&gt;16</title>
<path fill="none" stroke="black" d="M1738.8,-97.85C1699.58,-92.47 1645.25,-83.26 1599.05,-69 1564.64,-58.38 1557.93,-50.69 1525.05,-36 1523.26,-35.2 1521.44,-34.39 1519.59,-33.56"/>
<polygon fill="black" stroke="black" points="1520.91,-30.32 1510.36,-29.43 1518.06,-36.71 1520.91,-30.32"/>
<text text-anchor="middle" x="1612.55" y="-57.8" font-family="Times,serif" font-size="14.00">dep</text>
</g>
<!-- 17 -->
<g id="node18" class="node">
<title>17</title>
<ellipse fill="none" stroke="black" cx="1565.05" cy="-18" rx="30.59" ry="18"/>
<text text-anchor="middle" x="1565.05" y="-14.3" font-family="Times,serif" font-size="14.00">voto</text>
</g>
<!-- 0&#45;&gt;17 -->
<g id="edge17" class="edge">
<title>0&#45;&gt;17</title>
<path fill="none" stroke="black" d="M1745.94,-93.94C1721,-87.9 1689.89,-79.36 1663.05,-69 1639.31,-59.84 1613.74,-46.67 1594.68,-36.15"/>
<polygon fill="black" stroke="black" points="1596.31,-33.06 1585.88,-31.23 1592.89,-39.17 1596.31,-33.06"/>
<text text-anchor="middle" x="1676.55" y="-57.8" font-family="Times,serif" font-size="14.00">dep</text>
</g>
<!-- 18 -->
<g id="node19" class="node">
<title>18</title>
<ellipse fill="none" stroke="black" cx="1641.05" cy="-18" rx="27" ry="18"/>
<text text-anchor="middle" x="1641.05" y="-14.3" font-family="Times,serif" font-size="14.00">,</text>
</g>
<!-- 0&#45;&gt;18 -->
<g id="edge18" class="edge">
<title>0&#45;&gt;18</title>
<path fill="none" stroke="black" d="M1759.41,-90.02C1746.06,-83.98 1730.6,-76.57 1717.05,-69 1699.92,-59.44 1681.52,-47.38 1667.11,-37.5"/>
<polygon fill="black" stroke="black" points="1668.92,-34.5 1658.71,-31.68 1664.93,-40.25 1668.92,-34.5"/>
<text text-anchor="middle" x="1730.55" y="-57.8" font-family="Times,serif" font-size="14.00">dep</text>
</g>
<!-- 19 -->
<g id="node20" class="node">
<title>19</title>
<ellipse fill="none" stroke="black" cx="1713.05" cy="-18" rx="27" ry="18"/>
<text text-anchor="middle" x="1713.05" y="-14.3" font-family="Times,serif" font-size="14.00">em</text>
</g>
<!-- 0&#45;&gt;19 -->
<g id="edge19" class="edge">
<title>0&#45;&gt;19</title>
<path fill="none" stroke="black" d="M1776.81,-87.61C1764.56,-74.42 1747.21,-55.76 1733.7,-41.22"/>
<polygon fill="black" stroke="black" points="1736.02,-38.58 1726.65,-33.64 1730.89,-43.34 1736.02,-38.58"/>
<text text-anchor="middle" x="1771.55" y="-57.8" font-family="Times,serif" font-size="14.00">dep</text>
</g>
<!-- 20 -->
<g id="node21" class="node">
<title>20</title>
<ellipse fill="none" stroke="black" cx="1792.05" cy="-18" rx="34.39" ry="18"/>
<text text-anchor="middle" x="1792.05" y="-14.3" font-family="Times,serif" font-size="14.00">favor</text>
</g>
<!-- 0&#45;&gt;20 -->
<g id="edge20" class="edge">
<title>0&#45;&gt;20</title>
<path fill="none" stroke="black" d="M1792.05,-86.8C1792.05,-75.16 1792.05,-59.55 1792.05,-46.24"/>
<polygon fill="black" stroke="black" points="1795.55,-46.18 1792.05,-36.18 1788.55,-46.18 1795.55,-46.18"/>
<text text-anchor="middle" x="1805.55" y="-57.8" font-family="Times,serif" font-size="14.00">dep</text>
</g>
<!-- 21 -->
<g id="node22" class="node">
<title>21</title>
<ellipse fill="none" stroke="black" cx="1871.05" cy="-18" rx="27" ry="18"/>
<text text-anchor="middle" x="1871.05" y="-14.3" font-family="Times,serif" font-size="14.00">de</text>
</g>
<!-- 0&#45;&gt;21 -->
<g id="edge21" class="edge">
<title>0&#45;&gt;21</title>
<path fill="none" stroke="black" d="M1807.28,-87.61C1819.54,-74.42 1836.88,-55.76 1850.39,-41.22"/>
<polygon fill="black" stroke="black" points="1853.2,-43.34 1857.44,-33.64 1848.07,-38.58 1853.2,-43.34"/>
<text text-anchor="middle" x="1850.55" y="-57.8" font-family="Times,serif" font-size="14.00">dep</text>
</g>
<!-- 22 -->
<g id="node23" class="node">
<title>22</title>
<ellipse fill="none" stroke="black" cx="1943.05" cy="-18" rx="27" ry="18"/>
<text text-anchor="middle" x="1943.05" y="-14.3" font-family="Times,serif" font-size="14.00">a</text>
</g>
<!-- 0&#45;&gt;22 -->
<g id="edge22" class="edge">
<title>0&#45;&gt;22</title>
<path fill="none" stroke="black" d="M1825.15,-90.11C1838.69,-84.08 1854.35,-76.66 1868.05,-69 1884.9,-59.58 1902.93,-47.62 1917.09,-37.76"/>
<polygon fill="black" stroke="black" points="1919.2,-40.56 1925.36,-31.94 1915.17,-34.84 1919.2,-40.56"/>
<text text-anchor="middle" x="1905.55" y="-57.8" font-family="Times,serif" font-size="14.00">dep</text>
</g>
<!-- 23 -->
<g id="node24" class="node">
<title>23</title>
<ellipse fill="none" stroke="black" cx="2030.05" cy="-18" rx="42.49" ry="18"/>
<text text-anchor="middle" x="2030.05" y="-14.3" font-family="Times,serif" font-size="14.00">anistia</text>
</g>
<!-- 0&#45;&gt;23 -->
<g id="edge23" class="edge">
<title>0&#45;&gt;23</title>
<path fill="none" stroke="black" d="M1837.82,-93.87C1863.26,-87.71 1895.29,-79.11 1923.05,-69 1947.94,-59.94 1974.97,-47.29 1995.63,-36.98"/>
<polygon fill="black" stroke="black" points="1997.29,-40.06 2004.64,-32.43 1994.14,-33.81 1997.29,-40.06"/>
<text text-anchor="middle" x="1973.55" y="-57.8" font-family="Times,serif" font-size="14.00">dep</text>
</g>
<!-- 24 -->
<g id="node25" class="node">
<title>24</title>
<ellipse fill="none" stroke="black" cx="2123.05" cy="-18" rx="32.49" ry="18"/>
<text text-anchor="middle" x="2123.05" y="-14.3" font-family="Times,serif" font-size="14.00">total</text>
</g>
<!-- 0&#45;&gt;24 -->
<g id="edge24" class="edge">
<title>0&#45;&gt;24</title>
<path fill="none" stroke="black" d="M1844.56,-97.36C1885,-91.62 1942.1,-82.17 1991.05,-69 2032.19,-57.93 2041.3,-51.33 2081.05,-36 2083.42,-35.08 2085.87,-34.13 2088.33,-33.16"/>
<polygon fill="black" stroke="black" points="2089.79,-36.34 2097.78,-29.38 2087.2,-29.84 2089.79,-36.34"/>
<text text-anchor="middle" x="2050.55" y="-57.8" font-family="Times,serif" font-size="14.00">dep</text>
</g>
<!-- 25 -->
<g id="node26" class="node">
<title>25</title>
<ellipse fill="none" stroke="black" cx="2200.05" cy="-18" rx="27" ry="18"/>
<text text-anchor="middle" x="2200.05" y="-14.3" font-family="Times,serif" font-size="14.00">a</text>
</g>
<!-- 0&#45;&gt;25 -->
<g id="edge25" class="edge">
<title>0&#45;&gt;25</title>
<path fill="none" stroke="black" d="M1847.88,-100.29C1904.06,-95.78 1992.89,-86.49 2068.05,-69 2111.99,-58.78 2122.25,-52.99 2164.05,-36 2165.87,-35.26 2167.74,-34.47 2169.61,-33.66"/>
<polygon fill="black" stroke="black" points="2171.23,-36.77 2178.9,-29.46 2168.34,-30.39 2171.23,-36.77"/>
<text text-anchor="middle" x="2132.55" y="-57.8" font-family="Times,serif" font-size="14.00">dep</text>
</g>
<!-- 26 -->
<g id="node27" class="node">
<title>26</title>
<ellipse fill="none" stroke="black" cx="2272.05" cy="-18" rx="27" ry="18"/>
<text text-anchor="middle" x="2272.05" y="-14.3" font-family="Times,serif" font-size="14.00">os</text>
</g>
<!-- 0&#45;&gt;26 -->
<g id="edge26" class="edge">
<title>0&#45;&gt;26</title>
<path fill="none" stroke="black" d="M1849.87,-103.1C1921.3,-100.92 2046.12,-93.55 2150.05,-69 2182.89,-61.24 2218.37,-45.84 2242.55,-34.17"/>
<polygon fill="black" stroke="black" points="2244.12,-37.29 2251.55,-29.74 2241.03,-31.01 2244.12,-37.29"/>
<text text-anchor="middle" x="2208.55" y="-57.8" font-family="Times,serif" font-size="14.00">dep</text>
</g>
<!-- 27 -->
<g id="node28" class="node">
<title>27</title>
<ellipse fill="none" stroke="black" cx="2384.05" cy="-18" rx="66.89" ry="18"/>
<text text-anchor="middle" x="2384.05" y="-14.3" font-family="Times,serif" font-size="14.00">agricultores</text>
</g>
<!-- 0&#45;&gt;27 -->
<g id="edge27" class="edge">
<title>0&#45;&gt;27</title>
<path fill="none" stroke="black" d="M1849.83,-103.47C1933.54,-101.78 2093.08,-95.05 2226.05,-69 2264.52,-61.46 2306.8,-47.78 2337.93,-36.64"/>
<polygon fill="black" stroke="black" points="2339.42,-39.82 2347.63,-33.12 2337.03,-33.24 2339.42,-39.82"/>
<text text-anchor="middle" x="2297.55" y="-57.8" font-family="Times,serif" font-size="14.00">dep</text>
</g>
<!-- 28 -->
<g id="node29" class="node">
<title>28</title>
<ellipse fill="none" stroke="black" cx="2496.05" cy="-18" rx="27" ry="18"/>
<text text-anchor="middle" x="2496.05" y="-14.3" font-family="Times,serif" font-size="14.00">,</text>
</g>
<!-- 0&#45;&gt;28 -->
<g id="edge28" class="edge">
<title>0&#45;&gt;28</title>
<path fill="none" stroke="black" d="M1849.63,-103.1C1946.29,-100.92 2147.12,-93.57 2315.05,-69 2380.44,-59.43 2397.57,-57.57 2460.05,-36 2461.96,-35.34 2463.9,-34.61 2465.85,-33.83"/>
<polygon fill="black" stroke="black" points="2467.65,-36.87 2475.43,-29.68 2464.86,-30.44 2467.65,-36.87"/>
<text text-anchor="middle" x="2414.55" y="-57.8" font-family="Times,serif" font-size="14.00">dep</text>
</g>
<!-- 29 -->
<g id="node30" class="node">
<title>29</title>
<ellipse fill="none" stroke="black" cx="2587.05" cy="-18" rx="46.29" ry="18"/>
<text text-anchor="middle" x="2587.05" y="-14.3" font-family="Times,serif" font-size="14.00">semana</text>
</g>
<!-- 0&#45;&gt;29 -->
<g id="edge29" class="edge">
<title>0&#45;&gt;29</title>
<path fill="none" stroke="black" d="M1849.45,-102.75C1984.88,-99.5 2321.2,-89.55 2432.05,-69 2471.93,-61.6 2515.8,-46.79 2546.65,-35.2"/>
<polygon fill="black" stroke="black" points="2548.09,-38.4 2556.19,-31.57 2545.6,-31.86 2548.09,-38.4"/>
<text text-anchor="middle" x="2502.55" y="-57.8" font-family="Times,serif" font-size="14.00">dep</text>
</g>
<!-- 30 -->
<g id="node31" class="node">
<title>30</title>
<ellipse fill="none" stroke="black" cx="2699.05" cy="-18" rx="48.19" ry="18"/>
<text text-anchor="middle" x="2699.05" y="-14.3" font-family="Times,serif" font-size="14.00">passada</text>
</g>
<!-- 0&#45;&gt;30 -->
<g id="edge30" class="edge">
<title>0&#45;&gt;30</title>
<path fill="none" stroke="black" d="M1849.51,-102.84C1997.88,-99.59 2391.22,-89.28 2520.05,-69 2567.24,-61.57 2619.73,-46.01 2655.6,-34.21"/>
<polygon fill="black" stroke="black" points="2656.87,-37.47 2665.25,-30.99 2654.66,-30.83 2656.87,-37.47"/>
<text text-anchor="middle" x="2598.55" y="-57.8" font-family="Times,serif" font-size="14.00">dep</text>
</g>
<!-- 31 -->
<g id="node32" class="node">
<title>31</title>
<ellipse fill="none" stroke="black" cx="2792.05" cy="-18" rx="27" ry="18"/>
<text text-anchor="middle" x="2792.05" y="-14.3" font-family="Times,serif" font-size="14.00">,</text>
</g>
<!-- 0&#45;&gt;31 -->
<g id="edge31" class="edge">
<title>0&#45;&gt;31</title>
<path fill="none" stroke="black" d="M1849.6,-102.97C2011.32,-99.85 2467.64,-89.45 2616.05,-69 2679.38,-60.27 2695.7,-57.1 2756.05,-36 2757.96,-35.33 2759.9,-34.6 2761.84,-33.81"/>
<polygon fill="black" stroke="black" points="2763.65,-36.85 2771.42,-29.65 2760.85,-30.43 2763.65,-36.85"/>
<text text-anchor="middle" x="2712.55" y="-57.8" font-family="Times,serif" font-size="14.00">dep</text>
</g>
<!-- 32 -->
<g id="node33" class="node">
<title>32</title>
<ellipse fill="none" stroke="black" cx="2901.05" cy="-18" rx="63.89" ry="18"/>
<text text-anchor="middle" x="2901.05" y="-14.3" font-family="Times,serif" font-size="14.00">ressuscitou</text>
</g>
<!-- 0&#45;&gt;32 -->
<g id="edge32" class="edge">
<title>0&#45;&gt;32</title>
<path fill="none" stroke="black" d="M1849.91,-103.71C2026.91,-102.53 2559.34,-96.7 2730.05,-69 2772.98,-62.03 2820.34,-47.63 2854.31,-36.07"/>
<polygon fill="black" stroke="black" points="2855.65,-39.31 2863.96,-32.74 2853.37,-32.69 2855.65,-39.31"/>
<text text-anchor="middle" x="2806.55" y="-57.8" font-family="Times,serif" font-size="14.00">dep</text>
</g>
<!-- 33 -->
<g id="node34" class="node">
<title>33</title>
<ellipse fill="none" stroke="black" cx="3010.05" cy="-18" rx="27" ry="18"/>
<text text-anchor="middle" x="3010.05" y="-14.3" font-family="Times,serif" font-size="14.00">os</text>
</g>
<!-- 0&#45;&gt;33 -->
<g id="edge33" class="edge">
<title>0&#45;&gt;33</title>
<path fill="none" stroke="black" d="M1849.9,-103.43C2038.37,-101.35 2633.4,-93 2824.05,-69 2891.77,-60.47 2909.44,-58.05 2974.05,-36 2975.96,-35.35 2977.91,-34.62 2979.85,-33.85"/>
<polygon fill="black" stroke="black" points="2981.65,-36.88 2989.44,-29.7 2978.87,-30.46 2981.65,-36.88"/>
<text text-anchor="middle" x="2929.55" y="-57.8" font-family="Times,serif" font-size="14.00">dep</text>
</g>
<!-- 34 -->
<g id="node35" class="node">
<title>34</title>
<ellipse fill="none" stroke="black" cx="3095.05" cy="-18" rx="39.79" ry="18"/>
<text text-anchor="middle" x="3095.05" y="-14.3" font-family="Times,serif" font-size="14.00">piores</text>
</g>
<!-- 0&#45;&gt;34 -->
<g id="edge34" class="edge">
<title>0&#45;&gt;34</title>
<path fill="none" stroke="black" d="M1850.08,-104.47C2053.43,-105.76 2732.99,-107.07 2947.05,-69 2986.03,-62.07 3028.69,-46.78 3058.14,-34.92"/>
<polygon fill="black" stroke="black" points="3059.68,-38.08 3067.6,-31.05 3057.02,-31.6 3059.68,-38.08"/>
<text text-anchor="middle" x="3019.55" y="-57.8" font-family="Times,serif" font-size="14.00">dep</text>
</g>
<!-- 35 -->
<g id="node36" class="node">
<title>35</title>
<ellipse fill="none" stroke="black" cx="3223.05" cy="-18" rx="70.39" ry="18"/>
<text text-anchor="middle" x="3223.05" y="-14.3" font-family="Times,serif" font-size="14.00">prognósticos</text>
</g>
<!-- 0&#45;&gt;35 -->
<g id="edge35" class="edge">
<title>0&#45;&gt;35</title>
<path fill="none" stroke="black" d="M1850.05,-104.17C2063.3,-104.52 2803.57,-103.18 3037.05,-69 3083.97,-62.13 3135.99,-47.53 3173.06,-35.87"/>
<polygon fill="black" stroke="black" points="3174.16,-39.19 3182.62,-32.82 3172.03,-32.52 3174.16,-39.19"/>
<text text-anchor="middle" x="3123.55" y="-57.8" font-family="Times,serif" font-size="14.00">dep</text>
</g>
<!-- 36 -->
<g id="node37" class="node">
<title>36</title>
<ellipse fill="none" stroke="black" cx="3348.05" cy="-18" rx="36.29" ry="18"/>
<text text-anchor="middle" x="3348.05" y="-14.3" font-family="Times,serif" font-size="14.00">sobre</text>
</g>
<!-- 0&#45;&gt;36 -->
<g id="edge36" class="edge">
<title>0&#45;&gt;36</title>
<path fill="none" stroke="black" d="M1850.15,-103.86C2074.61,-103.09 2885.3,-98.3 3141.05,-69 3213.62,-60.69 3231.81,-56.05 3302.05,-36 3304.98,-35.16 3308,-34.23 3311.01,-33.23"/>
<polygon fill="black" stroke="black" points="3312.24,-36.51 3320.54,-29.94 3309.95,-29.9 3312.24,-36.51"/>
<text text-anchor="middle" x="3247.55" y="-57.8" font-family="Times,serif" font-size="14.00">dep</text>
</g>
<!-- 37 -->
<g id="node38" class="node">
<title>37</title>
<ellipse fill="none" stroke="black" cx="3429.05" cy="-18" rx="27" ry="18"/>
<text text-anchor="middle" x="3429.05" y="-14.3" font-family="Times,serif" font-size="14.00">seu</text>
</g>
<!-- 0&#45;&gt;37 -->
<g id="edge37" class="edge">
<title>0&#45;&gt;37</title>
<path fill="none" stroke="black" d="M1850.21,-104.39C2087.7,-105.71 2984.6,-107.96 3265.05,-69 3323.24,-60.92 3337.79,-55.97 3393.05,-36 3394.9,-35.33 3396.79,-34.6 3398.68,-33.83"/>
<polygon fill="black" stroke="black" points="3400.25,-36.96 3408.01,-29.75 3397.44,-30.55 3400.25,-36.96"/>
<text text-anchor="middle" x="3352.55" y="-57.8" font-family="Times,serif" font-size="14.00">dep</text>
</g>
<!-- 38 -->
<g id="node39" class="node">
<title>38</title>
<ellipse fill="none" stroke="black" cx="3510.05" cy="-18" rx="36.29" ry="18"/>
<text text-anchor="middle" x="3510.05" y="-14.3" font-family="Times,serif" font-size="14.00">estilo</text>
</g>
<!-- 0&#45;&gt;38 -->
<g id="edge38" class="edge">
<title>0&#45;&gt;38</title>
<path fill="none" stroke="black" d="M1850.07,-103.78C2116.79,-102.64 3218.52,-96.3 3370.05,-69 3407.2,-62.31 3447.59,-46.94 3475.4,-35"/>
<polygon fill="black" stroke="black" points="3476.93,-38.15 3484.69,-30.94 3474.12,-31.74 3476.93,-38.15"/>
<text text-anchor="middle" x="3439.55" y="-57.8" font-family="Times,serif" font-size="14.00">dep</text>
</g>
<!-- 39 -->
<g id="node40" class="node">
<title>39</title>
<ellipse fill="none" stroke="black" cx="3591.05" cy="-18" rx="27" ry="18"/>
<text text-anchor="middle" x="3591.05" y="-14.3" font-family="Times,serif" font-size="14.00">.</text>
</g>
<!-- 0&#45;&gt;39 -->
<g id="edge39" class="edge">
<title>0&#45;&gt;39</title>
<path fill="none" stroke="black" d="M1850.02,-103.82C2125.59,-102.85 3296.39,-97.06 3457.05,-69 3494.08,-62.53 3534.18,-46.22 3560.77,-33.98"/>
<polygon fill="black" stroke="black" points="3562.36,-37.1 3569.92,-29.68 3559.38,-30.76 3562.36,-37.1"/>
<text text-anchor="middle" x="3523.55" y="-57.8" font-family="Times,serif" font-size="14.00">dep</text>
</g>
</g>
</svg>
