<?xml version="1.0" encoding="UTF-8" standalone="no"?>
<!DOCTYPE svg PUBLIC "-//W3C//DTD SVG 1.1//EN"
 "http://www.w3.org/Graphics/SVG/1.1/DTD/svg11.dtd">
<!-- Generated by graphviz version 2.42.4 (0)
 -->
<!-- Pages: 1 -->
<svg width="2125pt" height="131pt"
 viewBox="0.00 0.00 2124.99 131.00" xmlns="http://www.w3.org/2000/svg" xmlns:xlink="http://www.w3.org/1999/xlink">
<g id="graph0" class="graph" transform="scale(1 1) rotate(0) translate(4 127)">
<polygon fill="white" stroke="transparent" points="-4,4 -4,-127 2120.99,-127 2120.99,4 -4,4"/>
<!-- 0 -->
<g id="node1" class="node">
<title>0</title>
<ellipse fill="none" stroke="black" cx="1117.99" cy="-105" rx="56.59" ry="18"/>
<text text-anchor="middle" x="1117.99" y="-101.3" font-family="Times,serif" font-size="14.00">Pesquisas</text>
</g>
<!-- 1 -->
<g id="node2" class="node">
<title>1</title>
<ellipse fill="none" stroke="black" cx="64.99" cy="-18" rx="64.99" ry="18"/>
<text text-anchor="middle" x="64.99" y="-14.3" font-family="Times,serif" font-size="14.00">comprovam</text>
</g>
<!-- 0&#45;&gt;1 -->
<g id="edge1" class="edge">
<title>0&#45;&gt;1</title>
<path fill="none" stroke="black" d="M1061.44,-103.58C892.76,-102.03 394.99,-95.29 234.99,-69 192.44,-62.01 145.53,-47.69 111.78,-36.15"/>
<polygon fill="black" stroke="black" points="112.78,-32.8 102.19,-32.83 110.49,-39.41 112.78,-32.8"/>
<text text-anchor="middle" x="248.49" y="-57.8" font-family="Times,serif" font-size="14.00">dep</text>
</g>
<!-- 2 -->
<g id="node3" class="node">
<title>2</title>
<ellipse fill="none" stroke="black" cx="175.99" cy="-18" rx="27.9" ry="18"/>
<text text-anchor="middle" x="175.99" y="-14.3" font-family="Times,serif" font-size="14.00">que</text>
</g>
<!-- 0&#45;&gt;2 -->
<g id="edge2" class="edge">
<title>0&#45;&gt;2</title>
<path fill="none" stroke="black" d="M1061.74,-103.13C906.36,-100.45 473.56,-91.17 332.99,-69 278.36,-60.38 264.96,-54.94 212.99,-36 211.1,-35.31 209.17,-34.56 207.24,-33.78"/>
<polygon fill="black" stroke="black" points="208.23,-30.4 197.66,-29.67 205.47,-36.83 208.23,-30.4"/>
<text text-anchor="middle" x="346.49" y="-57.8" font-family="Times,serif" font-size="14.00">dep</text>
</g>
<!-- 3 -->
<g id="node4" class="node">
<title>3</title>
<ellipse fill="none" stroke="black" cx="266.99" cy="-18" rx="44.69" ry="18"/>
<text text-anchor="middle" x="266.99" y="-14.3" font-family="Times,serif" font-size="14.00">quando</text>
</g>
<!-- 0&#45;&gt;3 -->
<g id="edge3" class="edge">
<title>0&#45;&gt;3</title>
<path fill="none" stroke="black" d="M1061.71,-103.12C918.3,-100.57 541.81,-91.85 418.99,-69 379.69,-61.69 336.53,-46.79 306.28,-35.15"/>
<polygon fill="black" stroke="black" points="307.52,-31.88 296.94,-31.5 304.98,-38.4 307.52,-31.88"/>
<text text-anchor="middle" x="432.49" y="-57.8" font-family="Times,serif" font-size="14.00">dep</text>
</g>
<!-- 4 -->
<g id="node5" class="node">
<title>4</title>
<ellipse fill="none" stroke="black" cx="356.99" cy="-18" rx="27" ry="18"/>
<text text-anchor="middle" x="356.99" y="-14.3" font-family="Times,serif" font-size="14.00">o</text>
</g>
<!-- 0&#45;&gt;4 -->
<g id="edge4" class="edge">
<title>0&#45;&gt;4</title>
<path fill="none" stroke="black" d="M1061.31,-104.11C955.48,-103.54 720.91,-98.68 525.99,-69 465.78,-59.83 450.37,-56.44 392.99,-36 391.09,-35.32 389.15,-34.58 387.21,-33.79"/>
<polygon fill="black" stroke="black" points="388.2,-30.4 377.64,-29.6 385.4,-36.82 388.2,-30.4"/>
<text text-anchor="middle" x="539.49" y="-57.8" font-family="Times,serif" font-size="14.00">dep</text>
</g>
<!-- 5 -->
<g id="node6" class="node">
<title>5</title>
<ellipse fill="none" stroke="black" cx="457.99" cy="-18" rx="55.79" ry="18"/>
<text text-anchor="middle" x="457.99" y="-14.3" font-family="Times,serif" font-size="14.00">motorista</text>
</g>
<!-- 0&#45;&gt;5 -->
<g id="edge5" class="edge">
<title>0&#45;&gt;5</title>
<path fill="none" stroke="black" d="M1061.25,-104.57C967.04,-104.52 772.79,-100.17 611.99,-69 573.65,-61.57 531.55,-47.47 501.08,-36.13"/>
<polygon fill="black" stroke="black" points="502.21,-32.82 491.62,-32.56 499.74,-39.37 502.21,-32.82"/>
<text text-anchor="middle" x="625.49" y="-57.8" font-family="Times,serif" font-size="14.00">dep</text>
</g>
<!-- 6 -->
<g id="node7" class="node">
<title>6</title>
<ellipse fill="none" stroke="black" cx="558.99" cy="-18" rx="27" ry="18"/>
<text text-anchor="middle" x="558.99" y="-14.3" font-family="Times,serif" font-size="14.00">vê</text>
</g>
<!-- 0&#45;&gt;6 -->
<g id="edge6" class="edge">
<title>0&#45;&gt;6</title>
<path fill="none" stroke="black" d="M1061.53,-103.28C980.52,-101.35 826.99,-94.32 698.99,-69 651.42,-59.59 640.13,-53.73 594.99,-36 593.16,-35.28 591.29,-34.51 589.41,-33.71"/>
<polygon fill="black" stroke="black" points="590.67,-30.44 580.11,-29.55 587.81,-36.83 590.67,-30.44"/>
<text text-anchor="middle" x="712.49" y="-57.8" font-family="Times,serif" font-size="14.00">dep</text>
</g>
<!-- 7 -->
<g id="node8" class="node">
<title>7</title>
<ellipse fill="none" stroke="black" cx="630.99" cy="-18" rx="27" ry="18"/>
<text text-anchor="middle" x="630.99" y="-14.3" font-family="Times,serif" font-size="14.00">a</text>
</g>
<!-- 0&#45;&gt;7 -->
<g id="edge7" class="edge">
<title>0&#45;&gt;7</title>
<path fill="none" stroke="black" d="M1063.93,-99.52C1002.96,-94.07 900.95,-83.72 813.99,-69 747.97,-57.82 730.32,-57.76 666.99,-36 665.08,-35.34 663.14,-34.61 661.19,-33.84"/>
<polygon fill="black" stroke="black" points="662.18,-30.45 651.61,-29.69 659.39,-36.87 662.18,-30.45"/>
<text text-anchor="middle" x="827.49" y="-57.8" font-family="Times,serif" font-size="14.00">dep</text>
</g>
<!-- 8 -->
<g id="node9" class="node">
<title>8</title>
<ellipse fill="none" stroke="black" cx="739.99" cy="-18" rx="63.89" ry="18"/>
<text text-anchor="middle" x="739.99" y="-14.3" font-family="Times,serif" font-size="14.00">fiscalização</text>
</g>
<!-- 0&#45;&gt;8 -->
<g id="edge8" class="edge">
<title>0&#45;&gt;8</title>
<path fill="none" stroke="black" d="M1065.76,-97.99C1020.7,-92.27 954.07,-82.53 896.99,-69 859.44,-60.1 817.87,-46.7 786.95,-36.01"/>
<polygon fill="black" stroke="black" points="787.89,-32.63 777.3,-32.64 785.58,-39.24 787.89,-32.63"/>
<text text-anchor="middle" x="910.49" y="-57.8" font-family="Times,serif" font-size="14.00">dep</text>
</g>
<!-- 9 -->
<g id="node10" class="node">
<title>9</title>
<ellipse fill="none" stroke="black" cx="848.99" cy="-18" rx="27" ry="18"/>
<text text-anchor="middle" x="848.99" y="-14.3" font-family="Times,serif" font-size="14.00">ele</text>
</g>
<!-- 0&#45;&gt;9 -->
<g id="edge9" class="edge">
<title>0&#45;&gt;9</title>
<path fill="none" stroke="black" d="M1070.89,-94.89C1041.09,-88.67 1001.93,-79.64 967.99,-69 930.11,-57.12 921.4,-51.82 884.99,-36 883.19,-35.22 881.34,-34.39 879.47,-33.56"/>
<polygon fill="black" stroke="black" points="880.76,-30.29 870.21,-29.29 877.83,-36.65 880.76,-30.29"/>
<text text-anchor="middle" x="981.49" y="-57.8" font-family="Times,serif" font-size="14.00">dep</text>
</g>
<!-- 10 -->
<g id="node11" class="node">
<title>10</title>
<ellipse fill="none" stroke="black" cx="930.99" cy="-18" rx="37.09" ry="18"/>
<text text-anchor="middle" x="930.99" y="-14.3" font-family="Times,serif" font-size="14.00">reduz</text>
</g>
<!-- 0&#45;&gt;10 -->
<g id="edge10" class="edge">
<title>0&#45;&gt;10</title>
<path fill="none" stroke="black" d="M1082.15,-90.82C1065.79,-84.56 1046.25,-76.77 1028.99,-69 1006.95,-59.07 982.73,-46.73 963.89,-36.8"/>
<polygon fill="black" stroke="black" points="965.32,-33.59 954.84,-31.99 962.03,-39.77 965.32,-33.59"/>
<text text-anchor="middle" x="1042.49" y="-57.8" font-family="Times,serif" font-size="14.00">dep</text>
</g>
<!-- 11 -->
<g id="node12" class="node">
<title>11</title>
<ellipse fill="none" stroke="black" cx="1012.99" cy="-18" rx="27" ry="18"/>
<text text-anchor="middle" x="1012.99" y="-14.3" font-family="Times,serif" font-size="14.00">a</text>
</g>
<!-- 0&#45;&gt;11 -->
<g id="edge11" class="edge">
<title>0&#45;&gt;11</title>
<path fill="none" stroke="black" d="M1098.24,-88.01C1081.04,-74.08 1056.02,-53.83 1037.53,-38.86"/>
<polygon fill="black" stroke="black" points="1039.52,-35.97 1029.55,-32.4 1035.12,-41.41 1039.52,-35.97"/>
<text text-anchor="middle" x="1085.49" y="-57.8" font-family="Times,serif" font-size="14.00">dep</text>
</g>
<!-- 12 -->
<g id="node13" class="node">
<title>12</title>
<ellipse fill="none" stroke="black" cx="1117.99" cy="-18" rx="59.59" ry="18"/>
<text text-anchor="middle" x="1117.99" y="-14.3" font-family="Times,serif" font-size="14.00">velocidade</text>
</g>
<!-- 0&#45;&gt;12 -->
<g id="edge12" class="edge">
<title>0&#45;&gt;12</title>
<path fill="none" stroke="black" d="M1117.99,-86.8C1117.99,-75.16 1117.99,-59.55 1117.99,-46.24"/>
<polygon fill="black" stroke="black" points="1121.49,-46.18 1117.99,-36.18 1114.49,-46.18 1121.49,-46.18"/>
<text text-anchor="middle" x="1131.49" y="-57.8" font-family="Times,serif" font-size="14.00">dep</text>
</g>
<!-- 13 -->
<g id="node14" class="node">
<title>13</title>
<ellipse fill="none" stroke="black" cx="1222.99" cy="-18" rx="27" ry="18"/>
<text text-anchor="middle" x="1222.99" y="-14.3" font-family="Times,serif" font-size="14.00">por</text>
</g>
<!-- 0&#45;&gt;13 -->
<g id="edge13" class="edge">
<title>0&#45;&gt;13</title>
<path fill="none" stroke="black" d="M1137.74,-88.01C1154.95,-74.08 1179.97,-53.83 1198.46,-38.86"/>
<polygon fill="black" stroke="black" points="1200.87,-41.41 1206.44,-32.4 1196.47,-35.97 1200.87,-41.41"/>
<text text-anchor="middle" x="1190.49" y="-57.8" font-family="Times,serif" font-size="14.00">dep</text>
</g>
<!-- 14 -->
<g id="node15" class="node">
<title>14</title>
<ellipse fill="none" stroke="black" cx="1294.99" cy="-18" rx="27" ry="18"/>
<text text-anchor="middle" x="1294.99" y="-14.3" font-family="Times,serif" font-size="14.00">por</text>
</g>
<!-- 0&#45;&gt;14 -->
<g id="edge14" class="edge">
<title>0&#45;&gt;14</title>
<path fill="none" stroke="black" d="M1154.87,-91.09C1171.37,-84.95 1190.91,-77.18 1207.99,-69 1228.41,-59.23 1250.52,-46.5 1267.34,-36.33"/>
<polygon fill="black" stroke="black" points="1269.39,-39.18 1276.09,-30.97 1265.73,-33.2 1269.39,-39.18"/>
<text text-anchor="middle" x="1248.49" y="-57.8" font-family="Times,serif" font-size="14.00">dep</text>
</g>
<!-- 15 -->
<g id="node16" class="node">
<title>15</title>
<ellipse fill="none" stroke="black" cx="1366.99" cy="-18" rx="27" ry="18"/>
<text text-anchor="middle" x="1366.99" y="-14.3" font-family="Times,serif" font-size="14.00">o</text>
</g>
<!-- 0&#45;&gt;15 -->
<g id="edge15" class="edge">
<title>0&#45;&gt;15</title>
<path fill="none" stroke="black" d="M1166.12,-95.5C1195.46,-89.62 1233.46,-80.73 1265.99,-69 1291.26,-59.89 1318.47,-46.18 1338.27,-35.41"/>
<polygon fill="black" stroke="black" points="1340.02,-38.45 1347.09,-30.55 1336.64,-32.32 1340.02,-38.45"/>
<text text-anchor="middle" x="1314.49" y="-57.8" font-family="Times,serif" font-size="14.00">dep</text>
</g>
<!-- 16 -->
<g id="node17" class="node">
<title>16</title>
<ellipse fill="none" stroke="black" cx="1452.99" cy="-18" rx="40.89" ry="18"/>
<text text-anchor="middle" x="1452.99" y="-14.3" font-family="Times,serif" font-size="14.00">menos</text>
</g>
<!-- 0&#45;&gt;16 -->
<g id="edge16" class="edge">
<title>0&#45;&gt;16</title>
<path fill="none" stroke="black" d="M1171.06,-98.76C1214.82,-93.62 1278.22,-84.29 1331.99,-69 1361.59,-60.59 1393.71,-47.09 1417.42,-36.24"/>
<polygon fill="black" stroke="black" points="1419.11,-39.31 1426.71,-31.93 1416.17,-32.97 1419.11,-39.31"/>
<text text-anchor="middle" x="1386.49" y="-57.8" font-family="Times,serif" font-size="14.00">dep</text>
</g>
<!-- 17 -->
<g id="node18" class="node">
<title>17</title>
<ellipse fill="none" stroke="black" cx="1540.99" cy="-18" rx="29.5" ry="18"/>
<text text-anchor="middle" x="1540.99" y="-14.3" font-family="Times,serif" font-size="14.00">três</text>
</g>
<!-- 0&#45;&gt;17 -->
<g id="edge17" class="edge">
<title>0&#45;&gt;17</title>
<path fill="none" stroke="black" d="M1172.85,-100.56C1230.83,-96.16 1324.7,-86.88 1403.99,-69 1449.24,-58.8 1459.77,-52.82 1502.99,-36 1504.86,-35.27 1506.77,-34.5 1508.69,-33.71"/>
<polygon fill="black" stroke="black" points="1510.43,-36.77 1518.24,-29.62 1507.67,-30.34 1510.43,-36.77"/>
<text text-anchor="middle" x="1469.49" y="-57.8" font-family="Times,serif" font-size="14.00">dep</text>
</g>
<!-- 18 -->
<g id="node19" class="node">
<title>18</title>
<ellipse fill="none" stroke="black" cx="1654.99" cy="-18" rx="66.09" ry="18"/>
<text text-anchor="middle" x="1654.99" y="-14.3" font-family="Times,serif" font-size="14.00">quilômetros</text>
</g>
<!-- 0&#45;&gt;18 -->
<g id="edge18" class="edge">
<title>0&#45;&gt;18</title>
<path fill="none" stroke="black" d="M1173.8,-102.09C1246.49,-98.83 1377.24,-90.33 1486.99,-69 1528.18,-61 1573.74,-47.11 1607.01,-36"/>
<polygon fill="black" stroke="black" points="1608.14,-39.31 1616.49,-32.8 1605.9,-32.68 1608.14,-39.31"/>
<text text-anchor="middle" x="1561.49" y="-57.8" font-family="Times,serif" font-size="14.00">dep</text>
</g>
<!-- 19 -->
<g id="node20" class="node">
<title>19</title>
<ellipse fill="none" stroke="black" cx="1765.99" cy="-18" rx="27" ry="18"/>
<text text-anchor="middle" x="1765.99" y="-14.3" font-family="Times,serif" font-size="14.00">»</text>
</g>
<!-- 0&#45;&gt;19 -->
<g id="edge19" class="edge">
<title>0&#45;&gt;19</title>
<path fill="none" stroke="black" d="M1173.98,-102.27C1261.01,-99 1433.86,-90.26 1578.99,-69 1646.96,-59.04 1664.97,-58.14 1729.99,-36 1731.91,-35.35 1733.85,-34.62 1735.8,-33.85"/>
<polygon fill="black" stroke="black" points="1737.6,-36.89 1745.39,-29.71 1734.82,-30.46 1737.6,-36.89"/>
<text text-anchor="middle" x="1682.49" y="-57.8" font-family="Times,serif" font-size="14.00">dep</text>
</g>
<!-- 20 -->
<g id="node21" class="node">
<title>20</title>
<ellipse fill="none" stroke="black" cx="1837.99" cy="-18" rx="27" ry="18"/>
<text text-anchor="middle" x="1837.99" y="-14.3" font-family="Times,serif" font-size="14.00">,</text>
</g>
<!-- 0&#45;&gt;20 -->
<g id="edge20" class="edge">
<title>0&#45;&gt;20</title>
<path fill="none" stroke="black" d="M1174.14,-102.43C1299.75,-98.63 1600.28,-87.81 1699.99,-69 1746.81,-60.17 1757.69,-53.54 1801.99,-36 1803.83,-35.27 1805.7,-34.5 1807.57,-33.7"/>
<polygon fill="black" stroke="black" points="1809.18,-36.81 1816.87,-29.53 1806.32,-30.42 1809.18,-36.81"/>
<text text-anchor="middle" x="1769.49" y="-57.8" font-family="Times,serif" font-size="14.00">dep</text>
</g>
<!-- 21 -->
<g id="node22" class="node">
<title>21</title>
<ellipse fill="none" stroke="black" cx="1909.99" cy="-18" rx="27" ry="18"/>
<text text-anchor="middle" x="1909.99" y="-14.3" font-family="Times,serif" font-size="14.00">diz</text>
</g>
<!-- 0&#45;&gt;21 -->
<g id="edge21" class="edge">
<title>0&#45;&gt;21</title>
<path fill="none" stroke="black" d="M1174.45,-103.29C1313.7,-101.18 1670.69,-93.47 1786.99,-69 1820.25,-62 1856,-46.48 1880.33,-34.58"/>
<polygon fill="black" stroke="black" points="1882.01,-37.65 1889.39,-30.05 1878.88,-31.39 1882.01,-37.65"/>
<text text-anchor="middle" x="1849.49" y="-57.8" font-family="Times,serif" font-size="14.00">dep</text>
</g>
<!-- 22 -->
<g id="node23" class="node">
<title>22</title>
<ellipse fill="none" stroke="black" cx="1999.99" cy="-18" rx="45.49" ry="18"/>
<text text-anchor="middle" x="1999.99" y="-14.3" font-family="Times,serif" font-size="14.00">Lehfeld</text>
</g>
<!-- 0&#45;&gt;22 -->
<g id="edge22" class="edge">
<title>0&#45;&gt;22</title>
<path fill="none" stroke="black" d="M1174.49,-103.64C1325.28,-102.31 1734.79,-96.23 1866.99,-69 1900.56,-62.09 1936.87,-47.95 1963.05,-36.47"/>
<polygon fill="black" stroke="black" points="1964.52,-39.65 1972.22,-32.37 1961.66,-33.25 1964.52,-39.65"/>
<text text-anchor="middle" x="1929.49" y="-57.8" font-family="Times,serif" font-size="14.00">dep</text>
</g>
<!-- 23 -->
<g id="node24" class="node">
<title>23</title>
<ellipse fill="none" stroke="black" cx="2089.99" cy="-18" rx="27" ry="18"/>
<text text-anchor="middle" x="2089.99" y="-14.3" font-family="Times,serif" font-size="14.00">.</text>
</g>
<!-- 0&#45;&gt;23 -->
<g id="edge23" class="edge">
<title>0&#45;&gt;23</title>
<path fill="none" stroke="black" d="M1174.52,-103.5C1336.13,-101.78 1798.03,-94.67 1946.99,-69 1996.04,-60.55 2007.6,-54 2053.99,-36 2055.83,-35.29 2057.7,-34.52 2059.58,-33.73"/>
<polygon fill="black" stroke="black" points="2061.18,-36.85 2068.89,-29.58 2058.33,-30.45 2061.18,-36.85"/>
<text text-anchor="middle" x="2020.49" y="-57.8" font-family="Times,serif" font-size="14.00">dep</text>
</g>
</g>
</svg>
