<?xml version="1.0" encoding="UTF-8" standalone="no"?>
<!DOCTYPE svg PUBLIC "-//W3C//DTD SVG 1.1//EN"
 "http://www.w3.org/Graphics/SVG/1.1/DTD/svg11.dtd">
<!-- Generated by graphviz version 2.42.4 (0)
 -->
<!-- Pages: 1 -->
<svg width="704pt" height="131pt"
 viewBox="0.00 0.00 703.75 131.00" xmlns="http://www.w3.org/2000/svg" xmlns:xlink="http://www.w3.org/1999/xlink">
<g id="graph0" class="graph" transform="scale(1 1) rotate(0) translate(4 127)">
<polygon fill="white" stroke="transparent" points="-4,4 -4,-127 699.75,-127 699.75,4 -4,4"/>
<!-- 0 -->
<g id="node1" class="node">
<title>0</title>
<ellipse fill="none" stroke="black" cx="341" cy="-105" rx="53.09" ry="18"/>
<text text-anchor="middle" x="341" y="-101.3" font-family="Times,serif" font-size="14.00">Aventure</text>
</g>
<!-- 1 -->
<g id="node2" class="node">
<title>1</title>
<ellipse fill="none" stroke="black" cx="27" cy="-18" rx="27" ry="18"/>
<text text-anchor="middle" x="27" y="-14.3" font-family="Times,serif" font-size="14.00">se</text>
</g>
<!-- 0&#45;&gt;1 -->
<g id="edge1" class="edge">
<title>0&#45;&gt;1</title>
<path fill="none" stroke="black" d="M290.58,-98.77C249.01,-93.64 188.85,-84.32 138,-69 109.27,-60.34 78.26,-45.91 56.34,-34.77"/>
<polygon fill="black" stroke="black" points="57.73,-31.55 47.24,-30.07 54.52,-37.77 57.73,-31.55"/>
<text text-anchor="middle" x="151.5" y="-57.8" font-family="Times,serif" font-size="14.00">dep</text>
</g>
<!-- 2 -->
<g id="node3" class="node">
<title>2</title>
<ellipse fill="none" stroke="black" cx="99" cy="-18" rx="27" ry="18"/>
<text text-anchor="middle" x="99" y="-14.3" font-family="Times,serif" font-size="14.00">em</text>
</g>
<!-- 0&#45;&gt;2 -->
<g id="edge2" class="edge">
<title>0&#45;&gt;2</title>
<path fill="none" stroke="black" d="M296.54,-94.94C269.4,-88.85 234.24,-79.94 204,-69 177.66,-59.47 149.03,-45.58 128.32,-34.86"/>
<polygon fill="black" stroke="black" points="129.89,-31.73 119.41,-30.18 126.64,-37.93 129.89,-31.73"/>
<text text-anchor="middle" x="217.5" y="-57.8" font-family="Times,serif" font-size="14.00">dep</text>
</g>
<!-- 3 -->
<g id="node4" class="node">
<title>3</title>
<ellipse fill="none" stroke="black" cx="171" cy="-18" rx="27" ry="18"/>
<text text-anchor="middle" x="171" y="-14.3" font-family="Times,serif" font-size="14.00">o</text>
</g>
<!-- 0&#45;&gt;3 -->
<g id="edge3" class="edge">
<title>0&#45;&gt;3</title>
<path fill="none" stroke="black" d="M309.25,-90.41C294.99,-84.13 278.03,-76.44 263,-69 241.5,-58.35 217.71,-45.39 199.71,-35.34"/>
<polygon fill="black" stroke="black" points="201.3,-32.21 190.87,-30.37 197.87,-38.32 201.3,-32.21"/>
<text text-anchor="middle" x="276.5" y="-57.8" font-family="Times,serif" font-size="14.00">dep</text>
</g>
<!-- 4 -->
<g id="node5" class="node">
<title>4</title>
<ellipse fill="none" stroke="black" cx="256" cy="-18" rx="40.09" ry="18"/>
<text text-anchor="middle" x="256" y="-14.3" font-family="Times,serif" font-size="14.00">Alasca</text>
</g>
<!-- 0&#45;&gt;4 -->
<g id="edge4" class="edge">
<title>0&#45;&gt;4</title>
<path fill="none" stroke="black" d="M324.61,-87.61C311.63,-74.63 293.34,-56.34 278.91,-41.91"/>
<polygon fill="black" stroke="black" points="281.31,-39.36 271.76,-34.76 276.36,-44.31 281.31,-39.36"/>
<text text-anchor="middle" x="317.5" y="-57.8" font-family="Times,serif" font-size="14.00">dep</text>
</g>
<!-- 5 -->
<g id="node6" class="node">
<title>5</title>
<ellipse fill="none" stroke="black" cx="341" cy="-18" rx="27" ry="18"/>
<text text-anchor="middle" x="341" y="-14.3" font-family="Times,serif" font-size="14.00">a</text>
</g>
<!-- 0&#45;&gt;5 -->
<g id="edge5" class="edge">
<title>0&#45;&gt;5</title>
<path fill="none" stroke="black" d="M341,-86.8C341,-75.16 341,-59.55 341,-46.24"/>
<polygon fill="black" stroke="black" points="344.5,-46.18 341,-36.18 337.5,-46.18 344.5,-46.18"/>
<text text-anchor="middle" x="354.5" y="-57.8" font-family="Times,serif" font-size="14.00">dep</text>
</g>
<!-- 6 -->
<g id="node7" class="node">
<title>6</title>
<ellipse fill="none" stroke="black" cx="424" cy="-18" rx="37.89" ry="18"/>
<text text-anchor="middle" x="424" y="-14.3" font-family="Times,serif" font-size="14.00">bordo</text>
</g>
<!-- 0&#45;&gt;6 -->
<g id="edge6" class="edge">
<title>0&#45;&gt;6</title>
<path fill="none" stroke="black" d="M357,-87.61C369.56,-74.75 387.21,-56.68 401.24,-42.31"/>
<polygon fill="black" stroke="black" points="404.12,-44.36 408.61,-34.76 399.12,-39.47 404.12,-44.36"/>
<text text-anchor="middle" x="401.5" y="-57.8" font-family="Times,serif" font-size="14.00">dep</text>
</g>
<!-- 7 -->
<g id="node8" class="node">
<title>7</title>
<ellipse fill="none" stroke="black" cx="507" cy="-18" rx="27" ry="18"/>
<text text-anchor="middle" x="507" y="-14.3" font-family="Times,serif" font-size="14.00">de</text>
</g>
<!-- 0&#45;&gt;7 -->
<g id="edge7" class="edge">
<title>0&#45;&gt;7</title>
<path fill="none" stroke="black" d="M372.82,-90.54C387.09,-84.29 404.04,-76.58 419,-69 439.36,-58.68 461.73,-45.95 478.81,-35.92"/>
<polygon fill="black" stroke="black" points="480.89,-38.76 487.72,-30.66 477.33,-32.73 480.89,-38.76"/>
<text text-anchor="middle" x="460.5" y="-57.8" font-family="Times,serif" font-size="14.00">dep</text>
</g>
<!-- 8 -->
<g id="node9" class="node">
<title>8</title>
<ellipse fill="none" stroke="black" cx="579" cy="-18" rx="27" ry="18"/>
<text text-anchor="middle" x="579" y="-14.3" font-family="Times,serif" font-size="14.00">um</text>
</g>
<!-- 0&#45;&gt;8 -->
<g id="edge8" class="edge">
<title>0&#45;&gt;8</title>
<path fill="none" stroke="black" d="M385.84,-95.04C412.95,-89.01 447.96,-80.13 478,-69 503.18,-59.67 530.4,-45.97 550.22,-35.27"/>
<polygon fill="black" stroke="black" points="551.96,-38.31 559.05,-30.44 548.6,-32.17 551.96,-38.31"/>
<text text-anchor="middle" x="526.5" y="-57.8" font-family="Times,serif" font-size="14.00">dep</text>
</g>
<!-- 9 -->
<g id="node10" class="node">
<title>9</title>
<ellipse fill="none" stroke="black" cx="660" cy="-18" rx="36" ry="18"/>
<text text-anchor="middle" x="660" y="-14.3" font-family="Times,serif" font-size="14.00">trenó</text>
</g>
<!-- 0&#45;&gt;9 -->
<g id="edge9" class="edge">
<title>0&#45;&gt;9</title>
<path fill="none" stroke="black" d="M390.98,-98.72C432.53,-93.55 492.92,-84.18 544,-69 572.69,-60.47 603.77,-46.82 626.53,-35.94"/>
<polygon fill="black" stroke="black" points="628.27,-38.98 635.74,-31.47 625.21,-32.69 628.27,-38.98"/>
<text text-anchor="middle" x="597.5" y="-57.8" font-family="Times,serif" font-size="14.00">dep</text>
</g>
</g>
</svg>
