<?xml version="1.0" encoding="UTF-8" standalone="no"?>
<!DOCTYPE svg PUBLIC "-//W3C//DTD SVG 1.1//EN"
 "http://www.w3.org/Graphics/SVG/1.1/DTD/svg11.dtd">
<!-- Generated by graphviz version 2.42.4 (0)
 -->
<!-- Pages: 1 -->
<svg width="2878pt" height="131pt"
 viewBox="0.00 0.00 2878.50 131.00" xmlns="http://www.w3.org/2000/svg" xmlns:xlink="http://www.w3.org/1999/xlink">
<g id="graph0" class="graph" transform="scale(1 1) rotate(0) translate(4 127)">
<polygon fill="white" stroke="transparent" points="-4,4 -4,-127 2874.5,-127 2874.5,4 -4,4"/>
<!-- 0 -->
<g id="node1" class="node">
<title>0</title>
<ellipse fill="none" stroke="black" cx="1462.5" cy="-105" rx="27" ry="18"/>
<text text-anchor="middle" x="1462.5" y="-101.3" font-family="Times,serif" font-size="14.00">Há</text>
</g>
<!-- 1 -->
<g id="node2" class="node">
<title>1</title>
<ellipse fill="none" stroke="black" cx="32.5" cy="-18" rx="32.49" ry="18"/>
<text text-anchor="middle" x="32.5" y="-14.3" font-family="Times,serif" font-size="14.00">aliás</text>
</g>
<!-- 0&#45;&gt;1 -->
<g id="edge1" class="edge">
<title>0&#45;&gt;1</title>
<path fill="none" stroke="black" d="M1435.39,-103.93C1277,-103.41 469.65,-99.28 223.5,-69 155.75,-60.67 138.61,-56.49 73.5,-36 71.2,-35.28 68.86,-34.48 66.51,-33.63"/>
<polygon fill="black" stroke="black" points="67.54,-30.28 56.95,-29.97 65.03,-36.82 67.54,-30.28"/>
<text text-anchor="middle" x="237" y="-57.8" font-family="Times,serif" font-size="14.00">dep</text>
</g>
<!-- 2 -->
<g id="node3" class="node">
<title>2</title>
<ellipse fill="none" stroke="black" cx="129.5" cy="-18" rx="46.59" ry="18"/>
<text text-anchor="middle" x="129.5" y="-14.3" font-family="Times,serif" font-size="14.00">estudos</text>
</g>
<!-- 0&#45;&gt;2 -->
<g id="edge2" class="edge">
<title>0&#45;&gt;2</title>
<path fill="none" stroke="black" d="M1435.37,-103.85C1285.33,-102.94 555.72,-97.09 332.5,-69 276.94,-62.01 214.62,-45.28 173.86,-33.1"/>
<polygon fill="black" stroke="black" points="174.82,-29.73 164.24,-30.18 172.79,-36.43 174.82,-29.73"/>
<text text-anchor="middle" x="346" y="-57.8" font-family="Times,serif" font-size="14.00">dep</text>
</g>
<!-- 3 -->
<g id="node4" class="node">
<title>3</title>
<ellipse fill="none" stroke="black" cx="257.5" cy="-18" rx="63.89" ry="18"/>
<text text-anchor="middle" x="257.5" y="-14.3" font-family="Times,serif" font-size="14.00">americanos</text>
</g>
<!-- 0&#45;&gt;3 -->
<g id="edge3" class="edge">
<title>0&#45;&gt;3</title>
<path fill="none" stroke="black" d="M1435.19,-104.04C1291.89,-104.12 625.69,-102.61 422.5,-69 381.28,-62.18 335.97,-47.94 303.27,-36.39"/>
<polygon fill="black" stroke="black" points="304.14,-32.98 293.55,-32.9 301.78,-39.57 304.14,-32.98"/>
<text text-anchor="middle" x="436" y="-57.8" font-family="Times,serif" font-size="14.00">dep</text>
</g>
<!-- 4 -->
<g id="node5" class="node">
<title>4</title>
<ellipse fill="none" stroke="black" cx="367.5" cy="-18" rx="27.9" ry="18"/>
<text text-anchor="middle" x="367.5" y="-14.3" font-family="Times,serif" font-size="14.00">que</text>
</g>
<!-- 0&#45;&gt;4 -->
<g id="edge4" class="edge">
<title>0&#45;&gt;4</title>
<path fill="none" stroke="black" d="M1435.44,-103.92C1300.52,-103.37 699.55,-99.26 515.5,-69 464.71,-60.65 452.67,-54.12 404.5,-36 402.61,-35.29 400.69,-34.53 398.76,-33.73"/>
<polygon fill="black" stroke="black" points="399.76,-30.35 389.19,-29.59 396.98,-36.78 399.76,-30.35"/>
<text text-anchor="middle" x="529" y="-57.8" font-family="Times,serif" font-size="14.00">dep</text>
</g>
<!-- 5 -->
<g id="node6" class="node">
<title>5</title>
<ellipse fill="none" stroke="black" cx="459.5" cy="-18" rx="46.29" ry="18"/>
<text text-anchor="middle" x="459.5" y="-14.3" font-family="Times,serif" font-size="14.00">provam</text>
</g>
<!-- 0&#45;&gt;5 -->
<g id="edge5" class="edge">
<title>0&#45;&gt;5</title>
<path fill="none" stroke="black" d="M1435.18,-104.04C1306.7,-104.05 761.9,-102.1 595.5,-69 561.11,-62.16 523.85,-47.95 497.04,-36.42"/>
<polygon fill="black" stroke="black" points="498.23,-33.11 487.66,-32.31 495.42,-39.53 498.23,-33.11"/>
<text text-anchor="middle" x="609" y="-57.8" font-family="Times,serif" font-size="14.00">dep</text>
</g>
<!-- 6 -->
<g id="node7" class="node">
<title>6</title>
<ellipse fill="none" stroke="black" cx="551.5" cy="-18" rx="27.9" ry="18"/>
<text text-anchor="middle" x="551.5" y="-14.3" font-family="Times,serif" font-size="14.00">que</text>
</g>
<!-- 0&#45;&gt;6 -->
<g id="edge6" class="edge">
<title>0&#45;&gt;6</title>
<path fill="none" stroke="black" d="M1435.31,-103.95C1314.46,-103.53 825.35,-99.92 675.5,-69 641.98,-62.08 605.94,-46.55 581.4,-34.62"/>
<polygon fill="black" stroke="black" points="582.79,-31.4 572.27,-30.09 579.67,-37.67 582.79,-31.4"/>
<text text-anchor="middle" x="689" y="-57.8" font-family="Times,serif" font-size="14.00">dep</text>
</g>
<!-- 7 -->
<g id="node8" class="node">
<title>7</title>
<ellipse fill="none" stroke="black" cx="624.5" cy="-18" rx="27" ry="18"/>
<text text-anchor="middle" x="624.5" y="-14.3" font-family="Times,serif" font-size="14.00">o</text>
</g>
<!-- 0&#45;&gt;7 -->
<g id="edge7" class="edge">
<title>0&#45;&gt;7</title>
<path fill="none" stroke="black" d="M1435.43,-103.58C1323.44,-101.72 896.04,-93.12 763.5,-69 716.2,-60.39 705.22,-53.63 660.5,-36 658.66,-35.28 656.79,-34.5 654.92,-33.7"/>
<polygon fill="black" stroke="black" points="656.17,-30.43 645.61,-29.54 653.31,-36.82 656.17,-30.43"/>
<text text-anchor="middle" x="777" y="-57.8" font-family="Times,serif" font-size="14.00">dep</text>
</g>
<!-- 8 -->
<g id="node9" class="node">
<title>8</title>
<ellipse fill="none" stroke="black" cx="710.5" cy="-18" rx="40.89" ry="18"/>
<text text-anchor="middle" x="710.5" y="-14.3" font-family="Times,serif" font-size="14.00">haxixe</text>
</g>
<!-- 0&#45;&gt;8 -->
<g id="edge8" class="edge">
<title>0&#45;&gt;8</title>
<path fill="none" stroke="black" d="M1435.29,-103.58C1331.09,-101.79 957.39,-93.76 841.5,-69 808.14,-61.88 772.06,-47.57 746.23,-36.08"/>
<polygon fill="black" stroke="black" points="747.41,-32.78 736.86,-31.84 744.52,-39.15 747.41,-32.78"/>
<text text-anchor="middle" x="855" y="-57.8" font-family="Times,serif" font-size="14.00">dep</text>
</g>
<!-- 9 -->
<g id="node10" class="node">
<title>9</title>
<ellipse fill="none" stroke="black" cx="796.5" cy="-18" rx="27" ry="18"/>
<text text-anchor="middle" x="796.5" y="-14.3" font-family="Times,serif" font-size="14.00">é</text>
</g>
<!-- 0&#45;&gt;9 -->
<g id="edge9" class="edge">
<title>0&#45;&gt;9</title>
<path fill="none" stroke="black" d="M1435.61,-103.29C1340.65,-100.63 1021.38,-90.27 921.5,-69 887.59,-61.78 851.02,-46.14 826.25,-34.27"/>
<polygon fill="black" stroke="black" points="827.56,-31.01 817.04,-29.76 824.49,-37.3 827.56,-31.01"/>
<text text-anchor="middle" x="935" y="-57.8" font-family="Times,serif" font-size="14.00">dep</text>
</g>
<!-- 10 -->
<g id="node11" class="node">
<title>10</title>
<ellipse fill="none" stroke="black" cx="868.5" cy="-18" rx="27" ry="18"/>
<text text-anchor="middle" x="868.5" y="-14.3" font-family="Times,serif" font-size="14.00">um</text>
</g>
<!-- 0&#45;&gt;10 -->
<g id="edge10" class="edge">
<title>0&#45;&gt;10</title>
<path fill="none" stroke="black" d="M1435.34,-104.07C1364.44,-103.8 1168.16,-100.05 1008.5,-69 960.9,-59.74 949.63,-53.73 904.5,-36 902.66,-35.28 900.79,-34.51 898.91,-33.71"/>
<polygon fill="black" stroke="black" points="900.17,-30.44 889.61,-29.55 897.31,-36.83 900.17,-30.44"/>
<text text-anchor="middle" x="1022" y="-57.8" font-family="Times,serif" font-size="14.00">dep</text>
</g>
<!-- 11 -->
<g id="node12" class="node">
<title>11</title>
<ellipse fill="none" stroke="black" cx="944.5" cy="-18" rx="30.59" ry="18"/>
<text text-anchor="middle" x="944.5" y="-14.3" font-family="Times,serif" font-size="14.00">bom</text>
</g>
<!-- 0&#45;&gt;11 -->
<g id="edge11" class="edge">
<title>0&#45;&gt;11</title>
<path fill="none" stroke="black" d="M1435.65,-102.81C1376.27,-99.86 1229.45,-90.8 1108.5,-69 1051.95,-58.81 1037.77,-54.87 983.5,-36 981.4,-35.27 979.26,-34.48 977.11,-33.65"/>
<polygon fill="black" stroke="black" points="978.36,-30.38 967.78,-29.84 975.71,-36.86 978.36,-30.38"/>
<text text-anchor="middle" x="1122" y="-57.8" font-family="Times,serif" font-size="14.00">dep</text>
</g>
<!-- 12 -->
<g id="node13" class="node">
<title>12</title>
<ellipse fill="none" stroke="black" cx="1047.5" cy="-18" rx="54.69" ry="18"/>
<text text-anchor="middle" x="1047.5" y="-14.3" font-family="Times,serif" font-size="14.00">relaxante</text>
</g>
<!-- 0&#45;&gt;12 -->
<g id="edge12" class="edge">
<title>0&#45;&gt;12</title>
<path fill="none" stroke="black" d="M1435.53,-102.4C1386.28,-99.06 1278.76,-89.87 1190.5,-69 1155.7,-60.77 1117.52,-47.18 1089.38,-36.24"/>
<polygon fill="black" stroke="black" points="1090.45,-32.9 1079.86,-32.5 1087.89,-39.42 1090.45,-32.9"/>
<text text-anchor="middle" x="1204" y="-57.8" font-family="Times,serif" font-size="14.00">dep</text>
</g>
<!-- 13 -->
<g id="node14" class="node">
<title>13</title>
<ellipse fill="none" stroke="black" cx="1147.5" cy="-18" rx="27" ry="18"/>
<text text-anchor="middle" x="1147.5" y="-14.3" font-family="Times,serif" font-size="14.00">,</text>
</g>
<!-- 0&#45;&gt;13 -->
<g id="edge13" class="edge">
<title>0&#45;&gt;13</title>
<path fill="none" stroke="black" d="M1435.9,-101.39C1396.83,-97.12 1321.92,-87.21 1260.5,-69 1224.8,-58.42 1217.45,-51.29 1183.5,-36 1181.7,-35.19 1179.86,-34.35 1178,-33.5"/>
<polygon fill="black" stroke="black" points="1179.3,-30.24 1168.76,-29.2 1176.35,-36.59 1179.3,-30.24"/>
<text text-anchor="middle" x="1274" y="-57.8" font-family="Times,serif" font-size="14.00">dep</text>
</g>
<!-- 14 -->
<g id="node15" class="node">
<title>14</title>
<ellipse fill="none" stroke="black" cx="1223.5" cy="-18" rx="30.59" ry="18"/>
<text text-anchor="middle" x="1223.5" y="-14.3" font-family="Times,serif" font-size="14.00">logo</text>
</g>
<!-- 0&#45;&gt;14 -->
<g id="edge14" class="edge">
<title>0&#45;&gt;14</title>
<path fill="none" stroke="black" d="M1436.77,-99.08C1408.87,-93.37 1363.28,-82.92 1325.5,-69 1300.58,-59.82 1273.65,-46.46 1253.72,-35.86"/>
<polygon fill="black" stroke="black" points="1255.28,-32.72 1244.81,-31.06 1251.96,-38.89 1255.28,-32.72"/>
<text text-anchor="middle" x="1339" y="-57.8" font-family="Times,serif" font-size="14.00">dep</text>
</g>
<!-- 15 -->
<g id="node16" class="node">
<title>15</title>
<ellipse fill="none" stroke="black" cx="1299.5" cy="-18" rx="27" ry="18"/>
<text text-anchor="middle" x="1299.5" y="-14.3" font-family="Times,serif" font-size="14.00">,</text>
</g>
<!-- 0&#45;&gt;15 -->
<g id="edge15" class="edge">
<title>0&#45;&gt;15</title>
<path fill="none" stroke="black" d="M1439.76,-95.17C1423.3,-88.54 1400.68,-78.93 1381.5,-69 1362.68,-59.26 1342.34,-46.87 1326.63,-36.86"/>
<polygon fill="black" stroke="black" points="1328.26,-33.75 1317.96,-31.28 1324.47,-39.64 1328.26,-33.75"/>
<text text-anchor="middle" x="1395" y="-57.8" font-family="Times,serif" font-size="14.00">dep</text>
</g>
<!-- 16 -->
<g id="node17" class="node">
<title>16</title>
<ellipse fill="none" stroke="black" cx="1371.5" cy="-18" rx="27" ry="18"/>
<text text-anchor="middle" x="1371.5" y="-14.3" font-family="Times,serif" font-size="14.00">se</text>
</g>
<!-- 0&#45;&gt;16 -->
<g id="edge16" class="edge">
<title>0&#45;&gt;16</title>
<path fill="none" stroke="black" d="M1447.47,-89.96C1432.98,-76.43 1410.86,-55.77 1394.22,-40.22"/>
<polygon fill="black" stroke="black" points="1396.24,-37.33 1386.55,-33.06 1391.47,-42.44 1396.24,-37.33"/>
<text text-anchor="middle" x="1436" y="-57.8" font-family="Times,serif" font-size="14.00">dep</text>
</g>
<!-- 17 -->
<g id="node18" class="node">
<title>17</title>
<ellipse fill="none" stroke="black" cx="1462.5" cy="-18" rx="46.29" ry="18"/>
<text text-anchor="middle" x="1462.5" y="-14.3" font-family="Times,serif" font-size="14.00">diminui</text>
</g>
<!-- 0&#45;&gt;17 -->
<g id="edge17" class="edge">
<title>0&#45;&gt;17</title>
<path fill="none" stroke="black" d="M1462.5,-86.8C1462.5,-75.16 1462.5,-59.55 1462.5,-46.24"/>
<polygon fill="black" stroke="black" points="1466,-46.18 1462.5,-36.18 1459,-46.18 1466,-46.18"/>
<text text-anchor="middle" x="1476" y="-57.8" font-family="Times,serif" font-size="14.00">dep</text>
</g>
<!-- 18 -->
<g id="node19" class="node">
<title>18</title>
<ellipse fill="none" stroke="black" cx="1553.5" cy="-18" rx="27" ry="18"/>
<text text-anchor="middle" x="1553.5" y="-14.3" font-family="Times,serif" font-size="14.00">o</text>
</g>
<!-- 0&#45;&gt;18 -->
<g id="edge18" class="edge">
<title>0&#45;&gt;18</title>
<path fill="none" stroke="black" d="M1477.52,-89.96C1492.01,-76.43 1514.13,-55.77 1530.78,-40.22"/>
<polygon fill="black" stroke="black" points="1533.53,-42.44 1538.45,-33.06 1528.75,-37.33 1533.53,-42.44"/>
<text text-anchor="middle" x="1527" y="-57.8" font-family="Times,serif" font-size="14.00">dep</text>
</g>
<!-- 19 -->
<g id="node20" class="node">
<title>19</title>
<ellipse fill="none" stroke="black" cx="1625.5" cy="-18" rx="27" ry="18"/>
<text text-anchor="middle" x="1625.5" y="-14.3" font-family="Times,serif" font-size="14.00">«</text>
</g>
<!-- 0&#45;&gt;19 -->
<g id="edge19" class="edge">
<title>0&#45;&gt;19</title>
<path fill="none" stroke="black" d="M1485.54,-95.24C1502.21,-88.64 1525.12,-79.04 1544.5,-69 1563.14,-59.34 1583.23,-46.95 1598.74,-36.92"/>
<polygon fill="black" stroke="black" points="1600.84,-39.73 1607.3,-31.33 1597.01,-33.87 1600.84,-39.73"/>
<text text-anchor="middle" x="1584" y="-57.8" font-family="Times,serif" font-size="14.00">dep</text>
</g>
<!-- 20 -->
<g id="node21" class="node">
<title>20</title>
<ellipse fill="none" stroke="black" cx="1709.5" cy="-18" rx="38.99" ry="18"/>
<text text-anchor="middle" x="1709.5" y="-14.3" font-family="Times,serif" font-size="14.00">stress</text>
</g>
<!-- 0&#45;&gt;20 -->
<g id="edge20" class="edge">
<title>0&#45;&gt;20</title>
<path fill="none" stroke="black" d="M1488.03,-99.07C1516.23,-93.28 1562.79,-82.7 1601.5,-69 1627,-59.97 1654.67,-47.1 1675.62,-36.68"/>
<polygon fill="black" stroke="black" points="1677.38,-39.71 1684.74,-32.08 1674.23,-33.46 1677.38,-39.71"/>
<text text-anchor="middle" x="1652" y="-57.8" font-family="Times,serif" font-size="14.00">dep</text>
</g>
<!-- 21 -->
<g id="node22" class="node">
<title>21</title>
<ellipse fill="none" stroke="black" cx="1793.5" cy="-18" rx="27" ry="18"/>
<text text-anchor="middle" x="1793.5" y="-14.3" font-family="Times,serif" font-size="14.00">»</text>
</g>
<!-- 0&#45;&gt;21 -->
<g id="edge21" class="edge">
<title>0&#45;&gt;21</title>
<path fill="none" stroke="black" d="M1488.99,-101.17C1528.7,-96.55 1605.8,-86.16 1669.5,-69 1709.83,-58.14 1719.02,-52.27 1757.5,-36 1759.31,-35.23 1761.17,-34.43 1763.03,-33.6"/>
<polygon fill="black" stroke="black" points="1764.67,-36.7 1772.31,-29.36 1761.76,-30.33 1764.67,-36.7"/>
<text text-anchor="middle" x="1728" y="-57.8" font-family="Times,serif" font-size="14.00">dep</text>
</g>
<!-- 22 -->
<g id="node23" class="node">
<title>22</title>
<ellipse fill="none" stroke="black" cx="1884.5" cy="-18" rx="46.29" ry="18"/>
<text text-anchor="middle" x="1884.5" y="-14.3" font-family="Times,serif" font-size="14.00">diminui</text>
</g>
<!-- 0&#45;&gt;22 -->
<g id="edge22" class="edge">
<title>0&#45;&gt;22</title>
<path fill="none" stroke="black" d="M1489.38,-102.67C1540.08,-99.72 1653.04,-91.06 1745.5,-69 1780.08,-60.75 1817.98,-46.77 1845.46,-35.69"/>
<polygon fill="black" stroke="black" points="1846.78,-38.92 1854.72,-31.9 1844.14,-32.44 1846.78,-38.92"/>
<text text-anchor="middle" x="1810" y="-57.8" font-family="Times,serif" font-size="14.00">dep</text>
</g>
<!-- 23 -->
<g id="node24" class="node">
<title>23</title>
<ellipse fill="none" stroke="black" cx="1975.5" cy="-18" rx="27" ry="18"/>
<text text-anchor="middle" x="1975.5" y="-14.3" font-family="Times,serif" font-size="14.00">um</text>
</g>
<!-- 0&#45;&gt;23 -->
<g id="edge23" class="edge">
<title>0&#45;&gt;23</title>
<path fill="none" stroke="black" d="M1489.77,-103.16C1550.79,-100.9 1702.81,-93.12 1827.5,-69 1878.45,-59.15 1891,-54.47 1939.5,-36 1941.34,-35.3 1943.22,-34.54 1945.1,-33.75"/>
<polygon fill="black" stroke="black" points="1946.69,-36.88 1954.41,-29.62 1943.85,-30.48 1946.69,-36.88"/>
<text text-anchor="middle" x="1902" y="-57.8" font-family="Times,serif" font-size="14.00">dep</text>
</g>
<!-- 24 -->
<g id="node25" class="node">
<title>24</title>
<ellipse fill="none" stroke="black" cx="2047.5" cy="-18" rx="27" ry="18"/>
<text text-anchor="middle" x="2047.5" y="-14.3" font-family="Times,serif" font-size="14.00">de</text>
</g>
<!-- 0&#45;&gt;24 -->
<g id="edge24" class="edge">
<title>0&#45;&gt;24</title>
<path fill="none" stroke="black" d="M1489.64,-104.43C1560.96,-105.04 1759.19,-103.24 1919.5,-69 1954.25,-61.58 1991.9,-45.86 2017.31,-34.02"/>
<polygon fill="black" stroke="black" points="2018.88,-37.15 2026.42,-29.7 2015.88,-30.82 2018.88,-37.15"/>
<text text-anchor="middle" x="1980" y="-57.8" font-family="Times,serif" font-size="14.00">dep</text>
</g>
<!-- 25 -->
<g id="node26" class="node">
<title>25</title>
<ellipse fill="none" stroke="black" cx="2119.5" cy="-18" rx="27" ry="18"/>
<text text-anchor="middle" x="2119.5" y="-14.3" font-family="Times,serif" font-size="14.00">os</text>
</g>
<!-- 0&#45;&gt;25 -->
<g id="edge25" class="edge">
<title>0&#45;&gt;25</title>
<path fill="none" stroke="black" d="M1489.42,-103.31C1583.76,-100.72 1898.96,-90.61 1997.5,-69 2030.46,-61.77 2065.92,-46.29 2090.07,-34.45"/>
<polygon fill="black" stroke="black" points="2091.67,-37.56 2099.05,-29.96 2088.54,-31.3 2091.67,-37.56"/>
<text text-anchor="middle" x="2056" y="-57.8" font-family="Times,serif" font-size="14.00">dep</text>
</g>
<!-- 26 -->
<g id="node27" class="node">
<title>26</title>
<ellipse fill="none" stroke="black" cx="2212.5" cy="-18" rx="48.19" ry="18"/>
<text text-anchor="middle" x="2212.5" y="-14.3" font-family="Times,serif" font-size="14.00">factores</text>
</g>
<!-- 0&#45;&gt;26 -->
<g id="edge26" class="edge">
<title>0&#45;&gt;26</title>
<path fill="none" stroke="black" d="M1489.6,-103.48C1592.56,-101.36 1959.37,-92.28 2073.5,-69 2108.45,-61.87 2146.46,-47.73 2173.88,-36.3"/>
<polygon fill="black" stroke="black" points="2175.27,-39.51 2183.12,-32.38 2172.54,-33.06 2175.27,-39.51"/>
<text text-anchor="middle" x="2138" y="-57.8" font-family="Times,serif" font-size="14.00">dep</text>
</g>
<!-- 27 -->
<g id="node28" class="node">
<title>27</title>
<ellipse fill="none" stroke="black" cx="2305.5" cy="-18" rx="27" ry="18"/>
<text text-anchor="middle" x="2305.5" y="-14.3" font-family="Times,serif" font-size="14.00">de</text>
</g>
<!-- 0&#45;&gt;27 -->
<g id="edge27" class="edge">
<title>0&#45;&gt;27</title>
<path fill="none" stroke="black" d="M1489.69,-103.47C1601.23,-101.15 2023.92,-91.06 2155.5,-69 2207.52,-60.28 2220.16,-54.65 2269.5,-36 2271.34,-35.3 2273.22,-34.55 2275.1,-33.76"/>
<polygon fill="black" stroke="black" points="2276.69,-36.89 2284.42,-29.64 2273.86,-30.49 2276.69,-36.89"/>
<text text-anchor="middle" x="2233" y="-57.8" font-family="Times,serif" font-size="14.00">dep</text>
</g>
<!-- 28 -->
<g id="node29" class="node">
<title>28</title>
<ellipse fill="none" stroke="black" cx="2383.5" cy="-18" rx="33.29" ry="18"/>
<text text-anchor="middle" x="2383.5" y="-14.3" font-family="Times,serif" font-size="14.00">risco</text>
</g>
<!-- 0&#45;&gt;28 -->
<g id="edge28" class="edge">
<title>0&#45;&gt;28</title>
<path fill="none" stroke="black" d="M1489.71,-103.9C1610.67,-103.26 2100.23,-98.86 2250.5,-69 2285.84,-61.98 2324.15,-46.69 2350.53,-34.86"/>
<polygon fill="black" stroke="black" points="2352.04,-38.02 2359.69,-30.68 2349.14,-31.65 2352.04,-38.02"/>
<text text-anchor="middle" x="2317" y="-57.8" font-family="Times,serif" font-size="14.00">dep</text>
</g>
<!-- 29 -->
<g id="node30" class="node">
<title>29</title>
<ellipse fill="none" stroke="black" cx="2461.5" cy="-18" rx="27" ry="18"/>
<text text-anchor="middle" x="2461.5" y="-14.3" font-family="Times,serif" font-size="14.00">de</text>
</g>
<!-- 0&#45;&gt;29 -->
<g id="edge29" class="edge">
<title>0&#45;&gt;29</title>
<path fill="none" stroke="black" d="M1489.54,-104.03C1617.96,-104 2166.87,-101.93 2334.5,-69 2369.13,-62.19 2406.46,-46.38 2431.62,-34.34"/>
<polygon fill="black" stroke="black" points="2433.19,-37.47 2440.64,-29.94 2430.12,-31.18 2433.19,-37.47"/>
<text text-anchor="middle" x="2399" y="-57.8" font-family="Times,serif" font-size="14.00">dep</text>
</g>
<!-- 30 -->
<g id="node31" class="node">
<title>30</title>
<ellipse fill="none" stroke="black" cx="2533.5" cy="-18" rx="27" ry="18"/>
<text text-anchor="middle" x="2533.5" y="-14.3" font-family="Times,serif" font-size="14.00">o</text>
</g>
<!-- 0&#45;&gt;30 -->
<g id="edge30" class="edge">
<title>0&#45;&gt;30</title>
<path fill="none" stroke="black" d="M1489.82,-104.28C1626.07,-105.48 2232.79,-108.5 2416.5,-69 2448.01,-62.23 2481.6,-46.93 2504.67,-35.03"/>
<polygon fill="black" stroke="black" points="2506.36,-38.1 2513.58,-30.34 2503.1,-31.91 2506.36,-38.1"/>
<text text-anchor="middle" x="2477" y="-57.8" font-family="Times,serif" font-size="14.00">dep</text>
</g>
<!-- 31 -->
<g id="node32" class="node">
<title>31</title>
<ellipse fill="none" stroke="black" cx="2622.5" cy="-18" rx="44.39" ry="18"/>
<text text-anchor="middle" x="2622.5" y="-14.3" font-family="Times,serif" font-size="14.00">enfarte</text>
</g>
<!-- 0&#45;&gt;31 -->
<g id="edge31" class="edge">
<title>0&#45;&gt;31</title>
<path fill="none" stroke="black" d="M1489.64,-103.63C1642.6,-101.45 2393.65,-89.77 2494.5,-69 2526.82,-62.34 2561.58,-48.28 2586.71,-36.76"/>
<polygon fill="black" stroke="black" points="2588.27,-39.9 2595.85,-32.49 2585.31,-33.55 2588.27,-39.9"/>
<text text-anchor="middle" x="2559" y="-57.8" font-family="Times,serif" font-size="14.00">dep</text>
</g>
<!-- 32 -->
<g id="node33" class="node">
<title>32</title>
<ellipse fill="none" stroke="black" cx="2741.5" cy="-18" rx="56.59" ry="18"/>
<text text-anchor="middle" x="2741.5" y="-14.3" font-family="Times,serif" font-size="14.00">miocárdio</text>
</g>
<!-- 0&#45;&gt;32 -->
<g id="edge32" class="edge">
<title>0&#45;&gt;32</title>
<path fill="none" stroke="black" d="M1489.76,-104.11C1638.97,-104.58 2357.87,-104.91 2576.5,-69 2618.39,-62.12 2664.51,-47.52 2697.31,-35.86"/>
<polygon fill="black" stroke="black" points="2698.83,-39.03 2707.04,-32.35 2696.45,-32.45 2698.83,-39.03"/>
<text text-anchor="middle" x="2655" y="-57.8" font-family="Times,serif" font-size="14.00">dep</text>
</g>
<!-- 33 -->
<g id="node34" class="node">
<title>33</title>
<ellipse fill="none" stroke="black" cx="2843.5" cy="-18" rx="27" ry="18"/>
<text text-anchor="middle" x="2843.5" y="-14.3" font-family="Times,serif" font-size="14.00">.</text>
</g>
<!-- 0&#45;&gt;33 -->
<g id="edge33" class="edge">
<title>0&#45;&gt;33</title>
<path fill="none" stroke="black" d="M1489.48,-103.99C1645.44,-103.83 2432.73,-101.4 2672.5,-69 2733.71,-60.73 2749.28,-56.63 2807.5,-36 2809.4,-35.32 2811.34,-34.58 2813.28,-33.8"/>
<polygon fill="black" stroke="black" points="2815.09,-36.83 2822.86,-29.62 2812.29,-30.41 2815.09,-36.83"/>
<text text-anchor="middle" x="2766" y="-57.8" font-family="Times,serif" font-size="14.00">dep</text>
</g>
</g>
</svg>
