<?xml version="1.0" encoding="UTF-8" standalone="no"?>
<!DOCTYPE svg PUBLIC "-//W3C//DTD SVG 1.1//EN"
 "http://www.w3.org/Graphics/SVG/1.1/DTD/svg11.dtd">
<!-- Generated by graphviz version 2.42.4 (0)
 -->
<!-- Pages: 1 -->
<svg width="552pt" height="131pt"
 viewBox="0.00 0.00 552.10 131.00" xmlns="http://www.w3.org/2000/svg" xmlns:xlink="http://www.w3.org/1999/xlink">
<g id="graph0" class="graph" transform="scale(1 1) rotate(0) translate(4 127)">
<polygon fill="white" stroke="transparent" points="-4,4 -4,-127 548.1,-127 548.1,4 -4,4"/>
<!-- 0 -->
<g id="node1" class="node">
<title>0</title>
<ellipse fill="none" stroke="black" cx="295.1" cy="-105" rx="27" ry="18"/>
<text text-anchor="middle" x="295.1" y="-101.3" font-family="Times,serif" font-size="14.00">O</text>
</g>
<!-- 1 -->
<g id="node2" class="node">
<title>1</title>
<ellipse fill="none" stroke="black" cx="48.1" cy="-18" rx="48.19" ry="18"/>
<text text-anchor="middle" x="48.1" y="-14.3" font-family="Times,serif" font-size="14.00">objetivo</text>
</g>
<!-- 0&#45;&gt;1 -->
<g id="edge1" class="edge">
<title>0&#45;&gt;1</title>
<path fill="none" stroke="black" d="M270.27,-97.17C246.47,-90.48 209.6,-79.75 178.1,-69 147.86,-58.68 114.21,-45.69 88.72,-35.54"/>
<polygon fill="black" stroke="black" points="89.96,-32.27 79.37,-31.8 87.36,-38.77 89.96,-32.27"/>
<text text-anchor="middle" x="191.6" y="-57.8" font-family="Times,serif" font-size="14.00">dep</text>
</g>
<!-- 2 -->
<g id="node3" class="node">
<title>2</title>
<ellipse fill="none" stroke="black" cx="141.1" cy="-18" rx="27" ry="18"/>
<text text-anchor="middle" x="141.1" y="-14.3" font-family="Times,serif" font-size="14.00">é</text>
</g>
<!-- 0&#45;&gt;2 -->
<g id="edge2" class="edge">
<title>0&#45;&gt;2</title>
<path fill="none" stroke="black" d="M274.96,-92.89C248.22,-78.12 200.78,-51.95 170.16,-35.04"/>
<polygon fill="black" stroke="black" points="171.68,-31.88 161.23,-30.11 168.3,-38.01 171.68,-31.88"/>
<text text-anchor="middle" x="241.6" y="-57.8" font-family="Times,serif" font-size="14.00">dep</text>
</g>
<!-- 3 -->
<g id="node4" class="node">
<title>3</title>
<ellipse fill="none" stroke="black" cx="244.1" cy="-18" rx="58.49" ry="18"/>
<text text-anchor="middle" x="244.1" y="-14.3" font-family="Times,serif" font-size="14.00">consolidar</text>
</g>
<!-- 0&#45;&gt;3 -->
<g id="edge3" class="edge">
<title>0&#45;&gt;3</title>
<path fill="none" stroke="black" d="M285.5,-88.01C278.17,-75.78 267.9,-58.68 259.43,-44.56"/>
<polygon fill="black" stroke="black" points="262.32,-42.56 254.17,-35.79 256.31,-46.16 262.32,-42.56"/>
<text text-anchor="middle" x="286.6" y="-57.8" font-family="Times,serif" font-size="14.00">dep</text>
</g>
<!-- 4 -->
<g id="node5" class="node">
<title>4</title>
<ellipse fill="none" stroke="black" cx="347.1" cy="-18" rx="27" ry="18"/>
<text text-anchor="middle" x="347.1" y="-14.3" font-family="Times,serif" font-size="14.00">a</text>
</g>
<!-- 0&#45;&gt;4 -->
<g id="edge4" class="edge">
<title>0&#45;&gt;4</title>
<path fill="none" stroke="black" d="M304.88,-88.01C312.5,-75.55 323.23,-58.01 331.96,-43.74"/>
<polygon fill="black" stroke="black" points="335.13,-45.27 337.36,-34.92 329.15,-41.62 335.13,-45.27"/>
<text text-anchor="middle" x="338.6" y="-57.8" font-family="Times,serif" font-size="14.00">dep</text>
</g>
<!-- 5 -->
<g id="node6" class="node">
<title>5</title>
<ellipse fill="none" stroke="black" cx="432.1" cy="-18" rx="39.79" ry="18"/>
<text text-anchor="middle" x="432.1" y="-14.3" font-family="Times,serif" font-size="14.00">marca</text>
</g>
<!-- 0&#45;&gt;5 -->
<g id="edge5" class="edge">
<title>0&#45;&gt;5</title>
<path fill="none" stroke="black" d="M315.33,-92.8C327.3,-86.07 342.68,-77.25 356.1,-69 371.55,-59.5 388.43,-48.46 402.35,-39.17"/>
<polygon fill="black" stroke="black" points="404.67,-41.83 411.03,-33.36 400.77,-36.02 404.67,-41.83"/>
<text text-anchor="middle" x="393.6" y="-57.8" font-family="Times,serif" font-size="14.00">dep</text>
</g>
<!-- 6 -->
<g id="node7" class="node">
<title>6</title>
<ellipse fill="none" stroke="black" cx="517.1" cy="-18" rx="27" ry="18"/>
<text text-anchor="middle" x="517.1" y="-14.3" font-family="Times,serif" font-size="14.00">.</text>
</g>
<!-- 0&#45;&gt;6 -->
<g id="edge6" class="edge">
<title>0&#45;&gt;6</title>
<path fill="none" stroke="black" d="M319.89,-97.66C343.62,-91.32 380.27,-80.84 411.1,-69 443.2,-56.67 449.99,-50.68 481.1,-36 482.88,-35.16 484.71,-34.3 486.56,-33.42"/>
<polygon fill="black" stroke="black" points="488.23,-36.5 495.78,-29.07 485.24,-30.17 488.23,-36.5"/>
<text text-anchor="middle" x="458.6" y="-57.8" font-family="Times,serif" font-size="14.00">dep</text>
</g>
</g>
</svg>
