<?xml version="1.0" encoding="UTF-8" standalone="no"?>
<!DOCTYPE svg PUBLIC "-//W3C//DTD SVG 1.1//EN"
 "http://www.w3.org/Graphics/SVG/1.1/DTD/svg11.dtd">
<!-- Generated by graphviz version 2.42.4 (0)
 -->
<!-- Pages: 1 -->
<svg width="2243pt" height="131pt"
 viewBox="0.00 0.00 2243.00 131.00" xmlns="http://www.w3.org/2000/svg" xmlns:xlink="http://www.w3.org/1999/xlink">
<g id="graph0" class="graph" transform="scale(1 1) rotate(0) translate(4 127)">
<polygon fill="white" stroke="transparent" points="-4,4 -4,-127 2239,-127 2239,4 -4,4"/>
<!-- 0 -->
<g id="node1" class="node">
<title>0</title>
<ellipse fill="none" stroke="black" cx="1124" cy="-105" rx="32.49" ry="18"/>
<text text-anchor="middle" x="1124" y="-101.3" font-family="Times,serif" font-size="14.00">Você</text>
</g>
<!-- 1 -->
<g id="node2" class="node">
<title>1</title>
<ellipse fill="none" stroke="black" cx="27" cy="-18" rx="27" ry="18"/>
<text text-anchor="middle" x="27" y="-14.3" font-family="Times,serif" font-size="14.00">sai</text>
</g>
<!-- 0&#45;&gt;1 -->
<g id="edge1" class="edge">
<title>0&#45;&gt;1</title>
<path fill="none" stroke="black" d="M1091.35,-104.25C943.51,-105.17 335.97,-106.55 150,-69 116.69,-62.27 80.95,-46.71 56.63,-34.72"/>
<polygon fill="black" stroke="black" points="58.09,-31.54 47.58,-30.17 54.94,-37.79 58.09,-31.54"/>
<text text-anchor="middle" x="163.5" y="-57.8" font-family="Times,serif" font-size="14.00">dep</text>
</g>
<!-- 2 -->
<g id="node3" class="node">
<title>2</title>
<ellipse fill="none" stroke="black" cx="102" cy="-18" rx="29.8" ry="18"/>
<text text-anchor="middle" x="102" y="-14.3" font-family="Times,serif" font-size="14.00">com</text>
</g>
<!-- 0&#45;&gt;2 -->
<g id="edge2" class="edge">
<title>0&#45;&gt;2</title>
<path fill="none" stroke="black" d="M1091.34,-104.06C951.34,-104.12 401.39,-102.2 232,-69 197.07,-62.15 159.33,-46.65 133.56,-34.71"/>
<polygon fill="black" stroke="black" points="134.84,-31.44 124.3,-30.33 131.84,-37.77 134.84,-31.44"/>
<text text-anchor="middle" x="245.5" y="-57.8" font-family="Times,serif" font-size="14.00">dep</text>
</g>
<!-- 3 -->
<g id="node4" class="node">
<title>3</title>
<ellipse fill="none" stroke="black" cx="177" cy="-18" rx="27" ry="18"/>
<text text-anchor="middle" x="177" y="-14.3" font-family="Times,serif" font-size="14.00">a</text>
</g>
<!-- 0&#45;&gt;3 -->
<g id="edge3" class="edge">
<title>0&#45;&gt;3</title>
<path fill="none" stroke="black" d="M1091.37,-103.61C960.95,-101.91 477.01,-93.99 326,-69 274.38,-60.46 261.92,-54.56 213,-36 211.16,-35.3 209.28,-34.55 207.4,-33.76"/>
<polygon fill="black" stroke="black" points="208.64,-30.48 198.08,-29.63 205.81,-36.88 208.64,-30.48"/>
<text text-anchor="middle" x="339.5" y="-57.8" font-family="Times,serif" font-size="14.00">dep</text>
</g>
<!-- 4 -->
<g id="node5" class="node">
<title>4</title>
<ellipse fill="none" stroke="black" cx="267" cy="-18" rx="44.69" ry="18"/>
<text text-anchor="middle" x="267" y="-14.3" font-family="Times,serif" font-size="14.00">certeza</text>
</g>
<!-- 0&#45;&gt;4 -->
<g id="edge4" class="edge">
<title>0&#45;&gt;4</title>
<path fill="none" stroke="black" d="M1091.42,-103.67C969.66,-102.22 541.55,-95.35 408,-69 372.1,-61.92 333.01,-47.49 305.11,-35.94"/>
<polygon fill="black" stroke="black" points="306.31,-32.65 295.73,-31.99 303.59,-39.1 306.31,-32.65"/>
<text text-anchor="middle" x="421.5" y="-57.8" font-family="Times,serif" font-size="14.00">dep</text>
</g>
<!-- 5 -->
<g id="node6" class="node">
<title>5</title>
<ellipse fill="none" stroke="black" cx="357" cy="-18" rx="27" ry="18"/>
<text text-anchor="middle" x="357" y="-14.3" font-family="Times,serif" font-size="14.00">de</text>
</g>
<!-- 0&#45;&gt;5 -->
<g id="edge5" class="edge">
<title>0&#45;&gt;5</title>
<path fill="none" stroke="black" d="M1091.46,-103.34C979.22,-100.89 608.71,-91.27 492,-69 454.83,-61.91 414.4,-45.72 387.58,-33.67"/>
<polygon fill="black" stroke="black" points="388.89,-30.42 378.34,-29.44 385.98,-36.78 388.89,-30.42"/>
<text text-anchor="middle" x="505.5" y="-57.8" font-family="Times,serif" font-size="14.00">dep</text>
</g>
<!-- 6 -->
<g id="node7" class="node">
<title>6</title>
<ellipse fill="none" stroke="black" cx="430" cy="-18" rx="27.9" ry="18"/>
<text text-anchor="middle" x="430" y="-14.3" font-family="Times,serif" font-size="14.00">que</text>
</g>
<!-- 0&#45;&gt;6 -->
<g id="edge6" class="edge">
<title>0&#45;&gt;6</title>
<path fill="none" stroke="black" d="M1091.37,-104.03C1007.76,-103.63 779.27,-99.59 592,-69 535.29,-59.74 521.08,-55.4 467,-36 465.1,-35.32 463.17,-34.58 461.23,-33.8"/>
<polygon fill="black" stroke="black" points="462.22,-30.42 451.65,-29.7 459.47,-36.86 462.22,-30.42"/>
<text text-anchor="middle" x="605.5" y="-57.8" font-family="Times,serif" font-size="14.00">dep</text>
</g>
<!-- 7 -->
<g id="node8" class="node">
<title>7</title>
<ellipse fill="none" stroke="black" cx="520" cy="-18" rx="44.39" ry="18"/>
<text text-anchor="middle" x="520" y="-14.3" font-family="Times,serif" font-size="14.00">chegou</text>
</g>
<!-- 0&#45;&gt;7 -->
<g id="edge7" class="edge">
<title>0&#45;&gt;7</title>
<path fill="none" stroke="black" d="M1091.44,-103.84C1017.71,-102.96 832.59,-97.79 681,-69 639.05,-61.03 592.62,-45.9 560.44,-34.37"/>
<polygon fill="black" stroke="black" points="561.53,-31.04 550.93,-30.91 559.14,-37.62 561.53,-31.04"/>
<text text-anchor="middle" x="694.5" y="-57.8" font-family="Times,serif" font-size="14.00">dep</text>
</g>
<!-- 8 -->
<g id="node9" class="node">
<title>8</title>
<ellipse fill="none" stroke="black" cx="620" cy="-18" rx="37.89" ry="18"/>
<text text-anchor="middle" x="620" y="-14.3" font-family="Times,serif" font-size="14.00">muito</text>
</g>
<!-- 0&#45;&gt;8 -->
<g id="edge8" class="edge">
<title>0&#45;&gt;8</title>
<path fill="none" stroke="black" d="M1091.35,-103.31C1027.69,-101.41 882.82,-94.43 764,-69 726.5,-60.97 685.31,-46.01 656.63,-34.54"/>
<polygon fill="black" stroke="black" points="657.61,-31.16 647.03,-30.64 654.98,-37.65 657.61,-31.16"/>
<text text-anchor="middle" x="777.5" y="-57.8" font-family="Times,serif" font-size="14.00">dep</text>
</g>
<!-- 9 -->
<g id="node10" class="node">
<title>9</title>
<ellipse fill="none" stroke="black" cx="711" cy="-18" rx="36" ry="18"/>
<text text-anchor="middle" x="711" y="-14.3" font-family="Times,serif" font-size="14.00">perto</text>
</g>
<!-- 0&#45;&gt;9 -->
<g id="edge9" class="edge">
<title>0&#45;&gt;9</title>
<path fill="none" stroke="black" d="M1091.52,-102.47C1038.71,-99.42 931.28,-90.88 843,-69 809.25,-60.63 772.37,-46.18 746.19,-34.96"/>
<polygon fill="black" stroke="black" points="747.28,-31.62 736.71,-30.84 744.48,-38.04 747.28,-31.62"/>
<text text-anchor="middle" x="856.5" y="-57.8" font-family="Times,serif" font-size="14.00">dep</text>
</g>
<!-- 10 -->
<g id="node11" class="node">
<title>10</title>
<ellipse fill="none" stroke="black" cx="792" cy="-18" rx="27" ry="18"/>
<text text-anchor="middle" x="792" y="-14.3" font-family="Times,serif" font-size="14.00">de</text>
</g>
<!-- 0&#45;&gt;10 -->
<g id="edge10" class="edge">
<title>0&#45;&gt;10</title>
<path fill="none" stroke="black" d="M1092.5,-100.05C1052.81,-94.73 982.71,-84.13 924,-69 880.31,-57.74 869.8,-52.99 828,-36 826.18,-35.26 824.31,-34.47 822.44,-33.66"/>
<polygon fill="black" stroke="black" points="823.7,-30.39 813.15,-29.46 820.82,-36.77 823.7,-30.39"/>
<text text-anchor="middle" x="937.5" y="-57.8" font-family="Times,serif" font-size="14.00">dep</text>
</g>
<!-- 11 -->
<g id="node12" class="node">
<title>11</title>
<ellipse fill="none" stroke="black" cx="864" cy="-18" rx="27" ry="18"/>
<text text-anchor="middle" x="864" y="-14.3" font-family="Times,serif" font-size="14.00">o</text>
</g>
<!-- 0&#45;&gt;11 -->
<g id="edge11" class="edge">
<title>0&#45;&gt;11</title>
<path fill="none" stroke="black" d="M1094.81,-96.87C1051.52,-85.91 968.08,-63.31 900,-36 898.17,-35.27 896.3,-34.49 894.43,-33.68"/>
<polygon fill="black" stroke="black" points="895.69,-30.41 885.13,-29.49 892.82,-36.79 895.69,-30.41"/>
<text text-anchor="middle" x="1004.5" y="-57.8" font-family="Times,serif" font-size="14.00">dep</text>
</g>
<!-- 12 -->
<g id="node13" class="node">
<title>12</title>
<ellipse fill="none" stroke="black" cx="955" cy="-18" rx="46.29" ry="18"/>
<text text-anchor="middle" x="955" y="-14.3" font-family="Times,serif" font-size="14.00">coração</text>
</g>
<!-- 0&#45;&gt;12 -->
<g id="edge12" class="edge">
<title>0&#45;&gt;12</title>
<path fill="none" stroke="black" d="M1100.86,-92.36C1072.51,-78.1 1024.19,-53.8 990.98,-37.1"/>
<polygon fill="black" stroke="black" points="992.55,-33.97 982.05,-32.6 989.41,-40.22 992.55,-33.97"/>
<text text-anchor="middle" x="1063.5" y="-57.8" font-family="Times,serif" font-size="14.00">dep</text>
</g>
<!-- 13 -->
<g id="node14" class="node">
<title>13</title>
<ellipse fill="none" stroke="black" cx="1074" cy="-18" rx="54.69" ry="18"/>
<text text-anchor="middle" x="1074" y="-14.3" font-family="Times,serif" font-size="14.00">selvagem</text>
</g>
<!-- 0&#45;&gt;13 -->
<g id="edge13" class="edge">
<title>0&#45;&gt;13</title>
<path fill="none" stroke="black" d="M1114.36,-87.61C1107.19,-75.42 1097.27,-58.56 1089.06,-44.6"/>
<polygon fill="black" stroke="black" points="1092.04,-42.77 1083.95,-35.92 1086.01,-46.31 1092.04,-42.77"/>
<text text-anchor="middle" x="1115.5" y="-57.8" font-family="Times,serif" font-size="14.00">dep</text>
</g>
<!-- 14 -->
<g id="node15" class="node">
<title>14</title>
<ellipse fill="none" stroke="black" cx="1174" cy="-18" rx="27" ry="18"/>
<text text-anchor="middle" x="1174" y="-14.3" font-family="Times,serif" font-size="14.00">de</text>
</g>
<!-- 0&#45;&gt;14 -->
<g id="edge14" class="edge">
<title>0&#45;&gt;14</title>
<path fill="none" stroke="black" d="M1133.64,-87.61C1140.95,-75.19 1151.12,-57.9 1159.42,-43.78"/>
<polygon fill="black" stroke="black" points="1162.51,-45.44 1164.56,-35.05 1156.47,-41.9 1162.51,-45.44"/>
<text text-anchor="middle" x="1165.5" y="-57.8" font-family="Times,serif" font-size="14.00">dep</text>
</g>
<!-- 15 -->
<g id="node16" class="node">
<title>15</title>
<ellipse fill="none" stroke="black" cx="1246" cy="-18" rx="27" ry="18"/>
<text text-anchor="middle" x="1246" y="-14.3" font-family="Times,serif" font-size="14.00">a</text>
</g>
<!-- 0&#45;&gt;15 -->
<g id="edge15" class="edge">
<title>0&#45;&gt;15</title>
<path fill="none" stroke="black" d="M1146.3,-91.73C1157.53,-85.3 1171.23,-77.11 1183,-69 1196.42,-59.76 1210.69,-48.55 1222.25,-39.1"/>
<polygon fill="black" stroke="black" points="1224.67,-41.64 1230.14,-32.57 1220.21,-36.25 1224.67,-41.64"/>
<text text-anchor="middle" x="1216.5" y="-57.8" font-family="Times,serif" font-size="14.00">dep</text>
</g>
<!-- 16 -->
<g id="node17" class="node">
<title>16</title>
<ellipse fill="none" stroke="black" cx="1334" cy="-18" rx="42.79" ry="18"/>
<text text-anchor="middle" x="1334" y="-14.3" font-family="Times,serif" font-size="14.00">França</text>
</g>
<!-- 0&#45;&gt;16 -->
<g id="edge16" class="edge">
<title>0&#45;&gt;16</title>
<path fill="none" stroke="black" d="M1152.46,-96.27C1174.93,-89.85 1206.89,-80.01 1234,-69 1256.56,-59.83 1281.03,-47.64 1300.12,-37.59"/>
<polygon fill="black" stroke="black" points="1301.84,-40.64 1309.02,-32.85 1298.55,-34.46 1301.84,-40.64"/>
<text text-anchor="middle" x="1278.5" y="-57.8" font-family="Times,serif" font-size="14.00">dep</text>
</g>
<!-- 17 -->
<g id="node18" class="node">
<title>17</title>
<ellipse fill="none" stroke="black" cx="1422" cy="-18" rx="27" ry="18"/>
<text text-anchor="middle" x="1422" y="-14.3" font-family="Times,serif" font-size="14.00">ou</text>
</g>
<!-- 0&#45;&gt;17 -->
<g id="edge17" class="edge">
<title>0&#45;&gt;17</title>
<path fill="none" stroke="black" d="M1154.78,-99.18C1189.46,-93.41 1247.33,-82.79 1296,-69 1336.99,-57.39 1346.7,-52.45 1386,-36 1387.82,-35.24 1389.68,-34.44 1391.54,-33.61"/>
<polygon fill="black" stroke="black" points="1393.17,-36.72 1400.82,-29.39 1390.27,-30.35 1393.17,-36.72"/>
<text text-anchor="middle" x="1355.5" y="-57.8" font-family="Times,serif" font-size="14.00">dep</text>
</g>
<!-- 18 -->
<g id="node19" class="node">
<title>18</title>
<ellipse fill="none" stroke="black" cx="1503" cy="-18" rx="36.29" ry="18"/>
<text text-anchor="middle" x="1503" y="-14.3" font-family="Times,serif" font-size="14.00">então</text>
</g>
<!-- 0&#45;&gt;18 -->
<g id="edge18" class="edge">
<title>0&#45;&gt;18</title>
<path fill="none" stroke="black" d="M1156.29,-101.82C1204.22,-98.05 1296.72,-88.75 1373,-69 1406,-60.45 1442.09,-46.15 1467.84,-35.03"/>
<polygon fill="black" stroke="black" points="1469.43,-38.16 1477.18,-30.94 1466.62,-31.75 1469.43,-38.16"/>
<text text-anchor="middle" x="1430.5" y="-57.8" font-family="Times,serif" font-size="14.00">dep</text>
</g>
<!-- 19 -->
<g id="node20" class="node">
<title>19</title>
<ellipse fill="none" stroke="black" cx="1584" cy="-18" rx="27" ry="18"/>
<text text-anchor="middle" x="1584" y="-14.3" font-family="Times,serif" font-size="14.00">de</text>
</g>
<!-- 0&#45;&gt;19 -->
<g id="edge19" class="edge">
<title>0&#45;&gt;19</title>
<path fill="none" stroke="black" d="M1156.55,-102.76C1215.35,-100.01 1342.94,-91.74 1448,-69 1493.74,-59.1 1504.54,-53.36 1548,-36 1549.83,-35.27 1551.7,-34.49 1553.57,-33.68"/>
<polygon fill="black" stroke="black" points="1555.18,-36.8 1562.87,-29.51 1552.31,-30.41 1555.18,-36.8"/>
<text text-anchor="middle" x="1516.5" y="-57.8" font-family="Times,serif" font-size="14.00">dep</text>
</g>
<!-- 20 -->
<g id="node21" class="node">
<title>20</title>
<ellipse fill="none" stroke="black" cx="1660" cy="-18" rx="30.59" ry="18"/>
<text text-anchor="middle" x="1660" y="-14.3" font-family="Times,serif" font-size="14.00">uma</text>
</g>
<!-- 0&#45;&gt;20 -->
<g id="edge20" class="edge">
<title>0&#45;&gt;20</title>
<path fill="none" stroke="black" d="M1156.64,-104.3C1226.7,-104.28 1396.31,-100.63 1534,-69 1567.21,-61.37 1603.16,-46.38 1628.12,-34.79"/>
<polygon fill="black" stroke="black" points="1629.91,-37.82 1637.45,-30.38 1626.92,-31.49 1629.91,-37.82"/>
<text text-anchor="middle" x="1594.5" y="-57.8" font-family="Times,serif" font-size="14.00">dep</text>
</g>
<!-- 21 -->
<g id="node22" class="node">
<title>21</title>
<ellipse fill="none" stroke="black" cx="1740" cy="-18" rx="31.4" ry="18"/>
<text text-anchor="middle" x="1740" y="-14.3" font-family="Times,serif" font-size="14.00">cura</text>
</g>
<!-- 0&#45;&gt;21 -->
<g id="edge21" class="edge">
<title>0&#45;&gt;21</title>
<path fill="none" stroke="black" d="M1156.49,-102.89C1251.01,-99.45 1524.66,-88.09 1612,-69 1645.89,-61.59 1682.58,-46.47 1707.96,-34.78"/>
<polygon fill="black" stroke="black" points="1709.53,-37.91 1717.1,-30.49 1706.56,-31.57 1709.53,-37.91"/>
<text text-anchor="middle" x="1672.5" y="-57.8" font-family="Times,serif" font-size="14.00">dep</text>
</g>
<!-- 22 -->
<g id="node23" class="node">
<title>22</title>
<ellipse fill="none" stroke="black" cx="1843" cy="-18" rx="53.89" ry="18"/>
<text text-anchor="middle" x="1843" y="-14.3" font-family="Times,serif" font-size="14.00">definitiva</text>
</g>
<!-- 0&#45;&gt;22 -->
<g id="edge22" class="edge">
<title>0&#45;&gt;22</title>
<path fill="none" stroke="black" d="M1156.35,-103.08C1260.53,-99.95 1586.53,-88.77 1690,-69 1728.39,-61.66 1770.5,-47.42 1800.81,-36.01"/>
<polygon fill="black" stroke="black" points="1802.12,-39.25 1810.21,-32.41 1799.62,-32.71 1802.12,-39.25"/>
<text text-anchor="middle" x="1759.5" y="-57.8" font-family="Times,serif" font-size="14.00">dep</text>
</g>
<!-- 23 -->
<g id="node24" class="node">
<title>23</title>
<ellipse fill="none" stroke="black" cx="1947" cy="-18" rx="31.7" ry="18"/>
<text text-anchor="middle" x="1947" y="-14.3" font-family="Times,serif" font-size="14.00">para</text>
</g>
<!-- 0&#45;&gt;23 -->
<g id="edge23" class="edge">
<title>0&#45;&gt;23</title>
<path fill="none" stroke="black" d="M1156.5,-104.51C1252.21,-105.53 1541.05,-105.14 1777,-69 1835.5,-60.04 1849.86,-54.71 1906,-36 1908.28,-35.24 1910.62,-34.41 1912.96,-33.54"/>
<polygon fill="black" stroke="black" points="1914.45,-36.72 1922.5,-29.83 1911.91,-30.2 1914.45,-36.72"/>
<text text-anchor="middle" x="1862.5" y="-57.8" font-family="Times,serif" font-size="14.00">dep</text>
</g>
<!-- 24 -->
<g id="node25" class="node">
<title>24</title>
<ellipse fill="none" stroke="black" cx="2024" cy="-18" rx="27" ry="18"/>
<text text-anchor="middle" x="2024" y="-14.3" font-family="Times,serif" font-size="14.00">a</text>
</g>
<!-- 0&#45;&gt;24 -->
<g id="edge24" class="edge">
<title>0&#45;&gt;24</title>
<path fill="none" stroke="black" d="M1156.63,-103.57C1282.66,-101.76 1737.75,-93.62 1880,-69 1929.46,-60.44 1941.19,-54.1 1988,-36 1989.84,-35.29 1991.71,-34.53 1993.59,-33.73"/>
<polygon fill="black" stroke="black" points="1995.19,-36.85 2002.9,-29.59 1992.34,-30.46 1995.19,-36.85"/>
<text text-anchor="middle" x="1954.5" y="-57.8" font-family="Times,serif" font-size="14.00">dep</text>
</g>
<!-- 25 -->
<g id="node26" class="node">
<title>25</title>
<ellipse fill="none" stroke="black" cx="2116" cy="-18" rx="47.39" ry="18"/>
<text text-anchor="middle" x="2116" y="-14.3" font-family="Times,serif" font-size="14.00">sinusite</text>
</g>
<!-- 0&#45;&gt;25 -->
<g id="edge25" class="edge">
<title>0&#45;&gt;25</title>
<path fill="none" stroke="black" d="M1156.86,-103.93C1292.78,-103.42 1811.5,-99.49 1972,-69 2008.51,-62.06 2048.3,-47.69 2076.78,-36.13"/>
<polygon fill="black" stroke="black" points="2078.46,-39.22 2086.36,-32.17 2075.78,-32.75 2078.46,-39.22"/>
<text text-anchor="middle" x="2038.5" y="-57.8" font-family="Times,serif" font-size="14.00">dep</text>
</g>
<!-- 26 -->
<g id="node27" class="node">
<title>26</title>
<ellipse fill="none" stroke="black" cx="2208" cy="-18" rx="27" ry="18"/>
<text text-anchor="middle" x="2208" y="-14.3" font-family="Times,serif" font-size="14.00">.</text>
</g>
<!-- 0&#45;&gt;26 -->
<g id="edge26" class="edge">
<title>0&#45;&gt;26</title>
<path fill="none" stroke="black" d="M1156.61,-103.82C1300.24,-102.88 1877.29,-97.35 2056,-69 2108.94,-60.6 2121.82,-54.84 2172,-36 2173.84,-35.31 2175.72,-34.56 2177.61,-33.77"/>
<polygon fill="black" stroke="black" points="2179.2,-36.9 2186.93,-29.66 2176.37,-30.5 2179.2,-36.9"/>
<text text-anchor="middle" x="2134.5" y="-57.8" font-family="Times,serif" font-size="14.00">dep</text>
</g>
</g>
</svg>
