<?xml version="1.0" encoding="UTF-8" standalone="no"?>
<!DOCTYPE svg PUBLIC "-//W3C//DTD SVG 1.1//EN"
 "http://www.w3.org/Graphics/SVG/1.1/DTD/svg11.dtd">
<!-- Generated by graphviz version 2.42.4 (0)
 -->
<!-- Pages: 1 -->
<svg width="4720pt" height="131pt"
 viewBox="0.00 0.00 4720.00 131.00" xmlns="http://www.w3.org/2000/svg" xmlns:xlink="http://www.w3.org/1999/xlink">
<g id="graph0" class="graph" transform="scale(1 1) rotate(0) translate(4 127)">
<polygon fill="white" stroke="transparent" points="-4,4 -4,-127 4716,-127 4716,4 -4,4"/>
<!-- 0 -->
<g id="node1" class="node">
<title>0</title>
<ellipse fill="none" stroke="black" cx="2300" cy="-105" rx="37.09" ry="18"/>
<text text-anchor="middle" x="2300" y="-101.3" font-family="Times,serif" font-size="14.00">Estão</text>
</g>
<!-- 1 -->
<g id="node2" class="node">
<title>1</title>
<ellipse fill="none" stroke="black" cx="27" cy="-18" rx="27" ry="18"/>
<text text-anchor="middle" x="27" y="-14.3" font-family="Times,serif" font-size="14.00">em</text>
</g>
<!-- 0&#45;&gt;1 -->
<g id="edge1" class="edge">
<title>0&#45;&gt;1</title>
<path fill="none" stroke="black" d="M2262.8,-104.03C1996.35,-104.19 382.46,-103.71 168,-69 119.71,-61.18 108.56,-53.82 63,-36 61.17,-35.28 59.29,-34.51 57.41,-33.71"/>
<polygon fill="black" stroke="black" points="58.67,-30.44 48.11,-29.56 55.81,-36.83 58.67,-30.44"/>
<text text-anchor="middle" x="181.5" y="-57.8" font-family="Times,serif" font-size="14.00">dep</text>
</g>
<!-- 2 -->
<g id="node3" class="node">
<title>2</title>
<ellipse fill="none" stroke="black" cx="103" cy="-18" rx="31.4" ry="18"/>
<text text-anchor="middle" x="103" y="-14.3" font-family="Times,serif" font-size="14.00">esse</text>
</g>
<!-- 0&#45;&gt;2 -->
<g id="edge2" class="edge">
<title>0&#45;&gt;2</title>
<path fill="none" stroke="black" d="M2262.77,-103.94C2002.95,-103.47 465.2,-99.42 260,-69 216.21,-62.51 167.99,-45.59 136.7,-33.23"/>
<polygon fill="black" stroke="black" points="137.75,-29.88 127.16,-29.4 135.13,-36.37 137.75,-29.88"/>
<text text-anchor="middle" x="273.5" y="-57.8" font-family="Times,serif" font-size="14.00">dep</text>
</g>
<!-- 3 -->
<g id="node4" class="node">
<title>3</title>
<ellipse fill="none" stroke="black" cx="191" cy="-18" rx="38.19" ry="18"/>
<text text-anchor="middle" x="191" y="-14.3" font-family="Times,serif" font-size="14.00">grupo</text>
</g>
<!-- 0&#45;&gt;3 -->
<g id="edge3" class="edge">
<title>0&#45;&gt;3</title>
<path fill="none" stroke="black" d="M2262.9,-103.91C2010.54,-103.19 550.25,-97.8 355,-69 310.57,-62.45 261.54,-46.25 228.77,-34.05"/>
<polygon fill="black" stroke="black" points="229.73,-30.67 219.14,-30.41 227.26,-37.22 229.73,-30.67"/>
<text text-anchor="middle" x="368.5" y="-57.8" font-family="Times,serif" font-size="14.00">dep</text>
</g>
<!-- 4 -->
<g id="node5" class="node">
<title>4</title>
<ellipse fill="none" stroke="black" cx="293" cy="-18" rx="46.29" ry="18"/>
<text text-anchor="middle" x="293" y="-14.3" font-family="Times,serif" font-size="14.00">Ricardo</text>
</g>
<!-- 0&#45;&gt;4 -->
<g id="edge4" class="edge">
<title>0&#45;&gt;4</title>
<path fill="none" stroke="black" d="M2262.65,-103.96C2016.38,-103.65 630.07,-100.45 445,-69 405.58,-62.3 362.44,-47.33 332.23,-35.51"/>
<polygon fill="black" stroke="black" points="333.48,-32.24 322.89,-31.79 330.89,-38.74 333.48,-32.24"/>
<text text-anchor="middle" x="458.5" y="-57.8" font-family="Times,serif" font-size="14.00">dep</text>
</g>
<!-- 5 -->
<g id="node6" class="node">
<title>5</title>
<ellipse fill="none" stroke="black" cx="394" cy="-18" rx="36.29" ry="18"/>
<text text-anchor="middle" x="394" y="-14.3" font-family="Times,serif" font-size="14.00">Fiuza</text>
</g>
<!-- 0&#45;&gt;5 -->
<g id="edge5" class="edge">
<title>0&#45;&gt;5</title>
<path fill="none" stroke="black" d="M2262.77,-104.01C2023.28,-103.99 703.81,-102.34 528,-69 492.8,-62.33 454.71,-47.29 428.18,-35.44"/>
<polygon fill="black" stroke="black" points="429.5,-32.2 418.95,-31.24 426.6,-38.57 429.5,-32.2"/>
<text text-anchor="middle" x="541.5" y="-57.8" font-family="Times,serif" font-size="14.00">dep</text>
</g>
<!-- 6 -->
<g id="node7" class="node">
<title>6</title>
<ellipse fill="none" stroke="black" cx="475" cy="-18" rx="27" ry="18"/>
<text text-anchor="middle" x="475" y="-14.3" font-family="Times,serif" font-size="14.00">(</text>
</g>
<!-- 0&#45;&gt;6 -->
<g id="edge6" class="edge">
<title>0&#45;&gt;6</title>
<path fill="none" stroke="black" d="M2262.72,-103.88C2029.93,-103.04 780.55,-97.21 613,-69 574.73,-62.56 533.15,-46.08 505.75,-33.79"/>
<polygon fill="black" stroke="black" points="506.88,-30.46 496.33,-29.48 503.96,-36.83 506.88,-30.46"/>
<text text-anchor="middle" x="626.5" y="-57.8" font-family="Times,serif" font-size="14.00">dep</text>
</g>
<!-- 7 -->
<g id="node8" class="node">
<title>7</title>
<ellipse fill="none" stroke="black" cx="565" cy="-18" rx="45.49" ry="18"/>
<text text-anchor="middle" x="565" y="-14.3" font-family="Times,serif" font-size="14.00">PFL&#45;PE</text>
</g>
<!-- 0&#45;&gt;7 -->
<g id="edge7" class="edge">
<title>0&#45;&gt;7</title>
<path fill="none" stroke="black" d="M2262.7,-103.96C2036.51,-103.58 853.18,-100.16 695,-69 662.18,-62.54 626.87,-48.46 601.35,-36.88"/>
<polygon fill="black" stroke="black" points="602.61,-33.61 592.07,-32.59 599.68,-39.97 602.61,-33.61"/>
<text text-anchor="middle" x="708.5" y="-57.8" font-family="Times,serif" font-size="14.00">dep</text>
</g>
<!-- 8 -->
<g id="node9" class="node">
<title>8</title>
<ellipse fill="none" stroke="black" cx="655" cy="-18" rx="27" ry="18"/>
<text text-anchor="middle" x="655" y="-14.3" font-family="Times,serif" font-size="14.00">)</text>
</g>
<!-- 0&#45;&gt;8 -->
<g id="edge8" class="edge">
<title>0&#45;&gt;8</title>
<path fill="none" stroke="black" d="M2262.71,-103.95C2043.01,-103.58 921.87,-100.14 772,-69 740.45,-62.44 706.86,-47.12 683.8,-35.15"/>
<polygon fill="black" stroke="black" points="685.38,-32.03 674.9,-30.43 682.09,-38.21 685.38,-32.03"/>
<text text-anchor="middle" x="785.5" y="-57.8" font-family="Times,serif" font-size="14.00">dep</text>
</g>
<!-- 9 -->
<g id="node10" class="node">
<title>9</title>
<ellipse fill="none" stroke="black" cx="727" cy="-18" rx="27" ry="18"/>
<text text-anchor="middle" x="727" y="-14.3" font-family="Times,serif" font-size="14.00">,</text>
</g>
<!-- 0&#45;&gt;9 -->
<g id="edge9" class="edge">
<title>0&#45;&gt;9</title>
<path fill="none" stroke="black" d="M2262.97,-103.84C2050.8,-102.79 994.08,-96.27 852,-69 817.96,-62.47 781.4,-46.72 756.68,-34.63"/>
<polygon fill="black" stroke="black" points="758,-31.38 747.49,-30.04 754.87,-37.64 758,-31.38"/>
<text text-anchor="middle" x="865.5" y="-57.8" font-family="Times,serif" font-size="14.00">dep</text>
</g>
<!-- 10 -->
<g id="node11" class="node">
<title>10</title>
<ellipse fill="none" stroke="black" cx="803" cy="-18" rx="30.59" ry="18"/>
<text text-anchor="middle" x="803" y="-14.3" font-family="Times,serif" font-size="14.00">João</text>
</g>
<!-- 0&#45;&gt;10 -->
<g id="edge10" class="edge">
<title>0&#45;&gt;10</title>
<path fill="none" stroke="black" d="M2262.75,-103.75C2057.37,-102.29 1067.64,-94.01 934,-69 898.78,-62.41 860.75,-46.87 834.79,-34.85"/>
<polygon fill="black" stroke="black" points="836,-31.55 825.46,-30.44 833.01,-37.88 836,-31.55"/>
<text text-anchor="middle" x="947.5" y="-57.8" font-family="Times,serif" font-size="14.00">dep</text>
</g>
<!-- 11 -->
<g id="node12" class="node">
<title>11</title>
<ellipse fill="none" stroke="black" cx="887" cy="-18" rx="36" ry="18"/>
<text text-anchor="middle" x="887" y="-14.3" font-family="Times,serif" font-size="14.00">Alves</text>
</g>
<!-- 0&#45;&gt;11 -->
<g id="edge11" class="edge">
<title>0&#45;&gt;11</title>
<path fill="none" stroke="black" d="M2263.03,-103.75C2065.6,-102.32 1139.95,-94.3 1015,-69 981.62,-62.24 945.66,-47.47 920.38,-35.73"/>
<polygon fill="black" stroke="black" points="921.78,-32.52 911.25,-31.4 918.78,-38.84 921.78,-32.52"/>
<text text-anchor="middle" x="1028.5" y="-57.8" font-family="Times,serif" font-size="14.00">dep</text>
</g>
<!-- 12 -->
<g id="node13" class="node">
<title>12</title>
<ellipse fill="none" stroke="black" cx="968" cy="-18" rx="27" ry="18"/>
<text text-anchor="middle" x="968" y="-14.3" font-family="Times,serif" font-size="14.00">(</text>
</g>
<!-- 0&#45;&gt;12 -->
<g id="edge12" class="edge">
<title>0&#45;&gt;12</title>
<path fill="none" stroke="black" d="M2262.9,-103.62C2072.87,-101.56 1212.87,-91.08 1096,-69 1060.87,-62.36 1023.01,-46.36 997.65,-34.24"/>
<polygon fill="black" stroke="black" points="999.1,-31.05 988.57,-29.81 996.03,-37.34 999.1,-31.05"/>
<text text-anchor="middle" x="1109.5" y="-57.8" font-family="Times,serif" font-size="14.00">dep</text>
</g>
<!-- 13 -->
<g id="node14" class="node">
<title>13</title>
<ellipse fill="none" stroke="black" cx="1043" cy="-18" rx="29.8" ry="18"/>
<text text-anchor="middle" x="1043" y="-14.3" font-family="Times,serif" font-size="14.00">sem</text>
</g>
<!-- 0&#45;&gt;13 -->
<g id="edge13" class="edge">
<title>0&#45;&gt;13</title>
<path fill="none" stroke="black" d="M2262.78,-104.3C2093.44,-105.44 1394.8,-107.65 1180,-69 1142.71,-62.29 1102.21,-46.34 1074.99,-34.25"/>
<polygon fill="black" stroke="black" points="1076.15,-30.93 1065.6,-29.99 1073.26,-37.31 1076.15,-30.93"/>
<text text-anchor="middle" x="1193.5" y="-57.8" font-family="Times,serif" font-size="14.00">dep</text>
</g>
<!-- 14 -->
<g id="node15" class="node">
<title>14</title>
<ellipse fill="none" stroke="black" cx="1135" cy="-18" rx="44.39" ry="18"/>
<text text-anchor="middle" x="1135" y="-14.3" font-family="Times,serif" font-size="14.00">partido</text>
</g>
<!-- 0&#45;&gt;14 -->
<g id="edge14" class="edge">
<title>0&#45;&gt;14</title>
<path fill="none" stroke="black" d="M2262.9,-103.51C2089.08,-101.12 1359.56,-89.92 1260,-69 1228.7,-62.42 1195.15,-48.59 1170.69,-37.14"/>
<polygon fill="black" stroke="black" points="1171.99,-33.88 1161.46,-32.73 1168.98,-40.2 1171.99,-33.88"/>
<text text-anchor="middle" x="1273.5" y="-57.8" font-family="Times,serif" font-size="14.00">dep</text>
</g>
<!-- 15 -->
<g id="node16" class="node">
<title>15</title>
<ellipse fill="none" stroke="black" cx="1224" cy="-18" rx="27" ry="18"/>
<text text-anchor="middle" x="1224" y="-14.3" font-family="Times,serif" font-size="14.00">&#45;</text>
</g>
<!-- 0&#45;&gt;15 -->
<g id="edge15" class="edge">
<title>0&#45;&gt;15</title>
<path fill="none" stroke="black" d="M2262.82,-103.48C2096.7,-101.04 1426.51,-89.98 1335,-69 1305.57,-62.25 1274.42,-47.46 1252.63,-35.71"/>
<polygon fill="black" stroke="black" points="1254.06,-32.5 1243.61,-30.73 1250.67,-38.63 1254.06,-32.5"/>
<text text-anchor="middle" x="1348.5" y="-57.8" font-family="Times,serif" font-size="14.00">dep</text>
</g>
<!-- 16 -->
<g id="node17" class="node">
<title>16</title>
<ellipse fill="none" stroke="black" cx="1296" cy="-18" rx="27" ry="18"/>
<text text-anchor="middle" x="1296" y="-14.3" font-family="Times,serif" font-size="14.00">BA</text>
</g>
<!-- 0&#45;&gt;16 -->
<g id="edge16" class="edge">
<title>0&#45;&gt;16</title>
<path fill="none" stroke="black" d="M2262.6,-104.27C2115.66,-105.05 1577.98,-105.3 1412,-69 1380.88,-62.19 1347.73,-47.02 1324.87,-35.16"/>
<polygon fill="black" stroke="black" points="1326.22,-31.91 1315.74,-30.31 1322.94,-38.09 1326.22,-31.91"/>
<text text-anchor="middle" x="1425.5" y="-57.8" font-family="Times,serif" font-size="14.00">dep</text>
</g>
<!-- 17 -->
<g id="node18" class="node">
<title>17</title>
<ellipse fill="none" stroke="black" cx="1368" cy="-18" rx="27" ry="18"/>
<text text-anchor="middle" x="1368" y="-14.3" font-family="Times,serif" font-size="14.00">)</text>
</g>
<!-- 0&#45;&gt;17 -->
<g id="edge17" class="edge">
<title>0&#45;&gt;17</title>
<path fill="none" stroke="black" d="M2262.69,-103.96C2124.42,-103.56 1641.44,-99.95 1491,-69 1457.71,-62.15 1421.97,-46.61 1397.64,-34.66"/>
<polygon fill="black" stroke="black" points="1399.1,-31.47 1388.59,-30.12 1395.96,-37.73 1399.1,-31.47"/>
<text text-anchor="middle" x="1504.5" y="-57.8" font-family="Times,serif" font-size="14.00">dep</text>
</g>
<!-- 18 -->
<g id="node19" class="node">
<title>18</title>
<ellipse fill="none" stroke="black" cx="1440" cy="-18" rx="27" ry="18"/>
<text text-anchor="middle" x="1440" y="-14.3" font-family="Times,serif" font-size="14.00">,</text>
</g>
<!-- 0&#45;&gt;18 -->
<g id="edge18" class="edge">
<title>0&#45;&gt;18</title>
<path fill="none" stroke="black" d="M2263.07,-103.57C2134.67,-101.85 1708.23,-94.33 1574,-69 1537.06,-62.03 1496.94,-45.81 1470.33,-33.73"/>
<polygon fill="black" stroke="black" points="1471.71,-30.51 1461.16,-29.49 1468.77,-36.86 1471.71,-30.51"/>
<text text-anchor="middle" x="1587.5" y="-57.8" font-family="Times,serif" font-size="14.00">dep</text>
</g>
<!-- 19 -->
<g id="node20" class="node">
<title>19</title>
<ellipse fill="none" stroke="black" cx="1512" cy="-18" rx="27" ry="18"/>
<text text-anchor="middle" x="1512" y="-14.3" font-family="Times,serif" font-size="14.00">Cid</text>
</g>
<!-- 0&#45;&gt;19 -->
<g id="edge19" class="edge">
<title>0&#45;&gt;19</title>
<path fill="none" stroke="black" d="M2262.71,-104.33C2165.94,-104.67 1899.04,-102.26 1680,-69 1620.21,-59.92 1604.95,-56.34 1548,-36 1546.14,-35.34 1544.26,-34.61 1542.37,-33.84"/>
<polygon fill="black" stroke="black" points="1543.59,-30.56 1533.03,-29.77 1540.8,-36.98 1543.59,-30.56"/>
<text text-anchor="middle" x="1693.5" y="-57.8" font-family="Times,serif" font-size="14.00">dep</text>
</g>
<!-- 20 -->
<g id="node21" class="node">
<title>20</title>
<ellipse fill="none" stroke="black" cx="1609" cy="-18" rx="51.99" ry="18"/>
<text text-anchor="middle" x="1609" y="-14.3" font-family="Times,serif" font-size="14.00">Carvalho</text>
</g>
<!-- 0&#45;&gt;20 -->
<g id="edge20" class="edge">
<title>0&#45;&gt;20</title>
<path fill="none" stroke="black" d="M2262.86,-104.59C2175.65,-105.31 1951.32,-103.34 1768,-69 1727.83,-61.48 1683.6,-47.04 1652.01,-35.6"/>
<polygon fill="black" stroke="black" points="1652.81,-32.17 1642.21,-32.01 1650.4,-38.74 1652.81,-32.17"/>
<text text-anchor="middle" x="1781.5" y="-57.8" font-family="Times,serif" font-size="14.00">dep</text>
</g>
<!-- 21 -->
<g id="node22" class="node">
<title>21</title>
<ellipse fill="none" stroke="black" cx="1706" cy="-18" rx="27" ry="18"/>
<text text-anchor="middle" x="1706" y="-14.3" font-family="Times,serif" font-size="14.00">(</text>
</g>
<!-- 0&#45;&gt;21 -->
<g id="edge21" class="edge">
<title>0&#45;&gt;21</title>
<path fill="none" stroke="black" d="M2263.18,-102.93C2189.31,-100.35 2017.96,-92.19 1876,-69 1815.47,-59.11 1799.8,-56.53 1742,-36 1740.09,-35.32 1738.16,-34.58 1736.21,-33.79"/>
<polygon fill="black" stroke="black" points="1737.21,-30.41 1726.64,-29.61 1734.4,-36.82 1737.21,-30.41"/>
<text text-anchor="middle" x="1889.5" y="-57.8" font-family="Times,serif" font-size="14.00">dep</text>
</g>
<!-- 22 -->
<g id="node23" class="node">
<title>22</title>
<ellipse fill="none" stroke="black" cx="1810" cy="-18" rx="59.29" ry="18"/>
<text text-anchor="middle" x="1810" y="-14.3" font-family="Times,serif" font-size="14.00">PMDB&#45;MA</text>
</g>
<!-- 0&#45;&gt;22 -->
<g id="edge22" class="edge">
<title>0&#45;&gt;22</title>
<path fill="none" stroke="black" d="M2263.22,-102.81C2200.55,-100.21 2069.33,-92.24 1961,-69 1924.13,-61.09 1883.62,-47.39 1853.86,-36.33"/>
<polygon fill="black" stroke="black" points="1854.79,-32.94 1844.19,-32.69 1852.32,-39.49 1854.79,-32.94"/>
<text text-anchor="middle" x="1974.5" y="-57.8" font-family="Times,serif" font-size="14.00">dep</text>
</g>
<!-- 23 -->
<g id="node24" class="node">
<title>23</title>
<ellipse fill="none" stroke="black" cx="1914" cy="-18" rx="27" ry="18"/>
<text text-anchor="middle" x="1914" y="-14.3" font-family="Times,serif" font-size="14.00">)</text>
</g>
<!-- 0&#45;&gt;23 -->
<g id="edge23" class="edge">
<title>0&#45;&gt;23</title>
<path fill="none" stroke="black" d="M2263.34,-101.79C2212.05,-98.11 2116.27,-89.02 2037,-69 2004.25,-60.73 1968.69,-45.54 1944.27,-34.07"/>
<polygon fill="black" stroke="black" points="1945.69,-30.87 1935.16,-29.72 1942.68,-37.19 1945.69,-30.87"/>
<text text-anchor="middle" x="2050.5" y="-57.8" font-family="Times,serif" font-size="14.00">dep</text>
</g>
<!-- 24 -->
<g id="node25" class="node">
<title>24</title>
<ellipse fill="none" stroke="black" cx="1986" cy="-18" rx="27" ry="18"/>
<text text-anchor="middle" x="1986" y="-14.3" font-family="Times,serif" font-size="14.00">,</text>
</g>
<!-- 0&#45;&gt;24 -->
<g id="edge24" class="edge">
<title>0&#45;&gt;24</title>
<path fill="none" stroke="black" d="M2264.86,-99C2227.37,-93.29 2166.44,-82.9 2115,-69 2072.66,-57.56 2062.55,-52.72 2022,-36 2020.18,-35.25 2018.32,-34.45 2016.45,-33.64"/>
<polygon fill="black" stroke="black" points="2017.72,-30.37 2007.16,-29.42 2014.82,-36.74 2017.72,-30.37"/>
<text text-anchor="middle" x="2128.5" y="-57.8" font-family="Times,serif" font-size="14.00">dep</text>
</g>
<!-- 25 -->
<g id="node26" class="node">
<title>25</title>
<ellipse fill="none" stroke="black" cx="2061" cy="-18" rx="29.8" ry="18"/>
<text text-anchor="middle" x="2061" y="-14.3" font-family="Times,serif" font-size="14.00">José</text>
</g>
<!-- 0&#45;&gt;25 -->
<g id="edge25" class="edge">
<title>0&#45;&gt;25</title>
<path fill="none" stroke="black" d="M2268.85,-95.06C2245.83,-88.31 2213.79,-78.59 2186,-69 2147.3,-55.65 2137.89,-51.52 2100,-36 2097.95,-35.16 2095.84,-34.28 2093.71,-33.39"/>
<polygon fill="black" stroke="black" points="2095.01,-30.13 2084.44,-29.42 2092.26,-36.57 2095.01,-30.13"/>
<text text-anchor="middle" x="2199.5" y="-57.8" font-family="Times,serif" font-size="14.00">dep</text>
</g>
<!-- 26 -->
<g id="node27" class="node">
<title>26</title>
<ellipse fill="none" stroke="black" cx="2156" cy="-18" rx="47.39" ry="18"/>
<text text-anchor="middle" x="2156" y="-14.3" font-family="Times,serif" font-size="14.00">Geraldo</text>
</g>
<!-- 0&#45;&gt;26 -->
<g id="edge26" class="edge">
<title>0&#45;&gt;26</title>
<path fill="none" stroke="black" d="M2277.18,-90.75C2265.97,-84.22 2252.26,-76.22 2240,-69 2223.13,-59.06 2204.41,-47.93 2188.93,-38.69"/>
<polygon fill="black" stroke="black" points="2190.61,-35.62 2180.23,-33.5 2187.02,-41.63 2190.61,-35.62"/>
<text text-anchor="middle" x="2253.5" y="-57.8" font-family="Times,serif" font-size="14.00">dep</text>
</g>
<!-- 27 -->
<g id="node28" class="node">
<title>27</title>
<ellipse fill="none" stroke="black" cx="2248" cy="-18" rx="27" ry="18"/>
<text text-anchor="middle" x="2248" y="-14.3" font-family="Times,serif" font-size="14.00">(</text>
</g>
<!-- 0&#45;&gt;27 -->
<g id="edge27" class="edge">
<title>0&#45;&gt;27</title>
<path fill="none" stroke="black" d="M2289.97,-87.61C2282.37,-75.19 2271.8,-57.9 2263.16,-43.78"/>
<polygon fill="black" stroke="black" points="2266.02,-41.75 2257.82,-35.05 2260.05,-45.41 2266.02,-41.75"/>
<text text-anchor="middle" x="2291.5" y="-57.8" font-family="Times,serif" font-size="14.00">dep</text>
</g>
<!-- 28 -->
<g id="node29" class="node">
<title>28</title>
<ellipse fill="none" stroke="black" cx="2353" cy="-18" rx="59.59" ry="18"/>
<text text-anchor="middle" x="2353" y="-14.3" font-family="Times,serif" font-size="14.00">PMDB&#45;MG</text>
</g>
<!-- 0&#45;&gt;28 -->
<g id="edge28" class="edge">
<title>0&#45;&gt;28</title>
<path fill="none" stroke="black" d="M2310.22,-87.61C2317.82,-75.42 2328.34,-58.56 2337.04,-44.6"/>
<polygon fill="black" stroke="black" points="2340.13,-46.26 2342.45,-35.92 2334.19,-42.55 2340.13,-46.26"/>
<text text-anchor="middle" x="2343.5" y="-57.8" font-family="Times,serif" font-size="14.00">dep</text>
</g>
<!-- 29 -->
<g id="node30" class="node">
<title>29</title>
<ellipse fill="none" stroke="black" cx="2458" cy="-18" rx="27" ry="18"/>
<text text-anchor="middle" x="2458" y="-14.3" font-family="Times,serif" font-size="14.00">)</text>
</g>
<!-- 0&#45;&gt;29 -->
<g id="edge29" class="edge">
<title>0&#45;&gt;29</title>
<path fill="none" stroke="black" d="M2324,-91.09C2352,-76.02 2398.32,-51.1 2428.5,-34.87"/>
<polygon fill="black" stroke="black" points="2430.16,-37.95 2437.31,-30.13 2426.85,-31.79 2430.16,-37.95"/>
<text text-anchor="middle" x="2402.5" y="-57.8" font-family="Times,serif" font-size="14.00">dep</text>
</g>
<!-- 30 -->
<g id="node31" class="node">
<title>30</title>
<ellipse fill="none" stroke="black" cx="2530" cy="-18" rx="27" ry="18"/>
<text text-anchor="middle" x="2530" y="-14.3" font-family="Times,serif" font-size="14.00">,</text>
</g>
<!-- 0&#45;&gt;30 -->
<g id="edge30" class="edge">
<title>0&#45;&gt;30</title>
<path fill="none" stroke="black" d="M2332.22,-95.88C2356.6,-89.42 2390.76,-79.73 2420,-69 2453.81,-56.6 2461.27,-51.02 2494,-36 2495.79,-35.18 2497.63,-34.33 2499.48,-33.47"/>
<polygon fill="black" stroke="black" points="2501.14,-36.55 2508.72,-29.14 2498.17,-30.21 2501.14,-36.55"/>
<text text-anchor="middle" x="2470.5" y="-57.8" font-family="Times,serif" font-size="14.00">dep</text>
</g>
<!-- 31 -->
<g id="node32" class="node">
<title>31</title>
<ellipse fill="none" stroke="black" cx="2620" cy="-18" rx="44.69" ry="18"/>
<text text-anchor="middle" x="2620" y="-14.3" font-family="Times,serif" font-size="14.00">Manoel</text>
</g>
<!-- 0&#45;&gt;31 -->
<g id="edge31" class="edge">
<title>0&#45;&gt;31</title>
<path fill="none" stroke="black" d="M2335.42,-99.33C2373.54,-93.86 2435.73,-83.64 2488,-69 2520.12,-60 2555.4,-46.44 2581.4,-35.71"/>
<polygon fill="black" stroke="black" points="2583,-38.83 2590.88,-31.75 2580.31,-32.37 2583,-38.83"/>
<text text-anchor="middle" x="2546.5" y="-57.8" font-family="Times,serif" font-size="14.00">dep</text>
</g>
<!-- 32 -->
<g id="node33" class="node">
<title>32</title>
<ellipse fill="none" stroke="black" cx="2731" cy="-18" rx="48.19" ry="18"/>
<text text-anchor="middle" x="2731" y="-14.3" font-family="Times,serif" font-size="14.00">Moreira</text>
</g>
<!-- 0&#45;&gt;32 -->
<g id="edge32" class="edge">
<title>0&#45;&gt;32</title>
<path fill="none" stroke="black" d="M2336.18,-101.04C2387.33,-96.44 2483.53,-86.26 2564,-69 2606.5,-59.88 2653.89,-45.25 2687.29,-34.17"/>
<polygon fill="black" stroke="black" points="2688.82,-37.35 2697.19,-30.85 2686.6,-30.71 2688.82,-37.35"/>
<text text-anchor="middle" x="2633.5" y="-57.8" font-family="Times,serif" font-size="14.00">dep</text>
</g>
<!-- 33 -->
<g id="node34" class="node">
<title>33</title>
<ellipse fill="none" stroke="black" cx="2824" cy="-18" rx="27" ry="18"/>
<text text-anchor="middle" x="2824" y="-14.3" font-family="Times,serif" font-size="14.00">(</text>
</g>
<!-- 0&#45;&gt;33 -->
<g id="edge33" class="edge">
<title>0&#45;&gt;33</title>
<path fill="none" stroke="black" d="M2336.6,-102.01C2400.68,-98.15 2537.19,-88.29 2651,-69 2712.75,-58.53 2728.93,-56.81 2788,-36 2789.91,-35.33 2791.85,-34.59 2793.79,-33.8"/>
<polygon fill="black" stroke="black" points="2795.6,-36.83 2803.36,-29.63 2792.8,-30.42 2795.6,-36.83"/>
<text text-anchor="middle" x="2743.5" y="-57.8" font-family="Times,serif" font-size="14.00">dep</text>
</g>
<!-- 34 -->
<g id="node35" class="node">
<title>34</title>
<ellipse fill="none" stroke="black" cx="2925" cy="-18" rx="55.79" ry="18"/>
<text text-anchor="middle" x="2925" y="-14.3" font-family="Times,serif" font-size="14.00">PMDB&#45;SP</text>
</g>
<!-- 0&#45;&gt;34 -->
<g id="edge34" class="edge">
<title>0&#45;&gt;34</title>
<path fill="none" stroke="black" d="M2337.11,-103.94C2415.9,-103.21 2605.4,-98.26 2761,-69 2802.22,-61.25 2847.76,-46.88 2880.37,-35.53"/>
<polygon fill="black" stroke="black" points="2881.78,-38.74 2890.05,-32.11 2879.46,-32.14 2881.78,-38.74"/>
<text text-anchor="middle" x="2834.5" y="-57.8" font-family="Times,serif" font-size="14.00">dep</text>
</g>
<!-- 35 -->
<g id="node36" class="node">
<title>35</title>
<ellipse fill="none" stroke="black" cx="3026" cy="-18" rx="27" ry="18"/>
<text text-anchor="middle" x="3026" y="-14.3" font-family="Times,serif" font-size="14.00">)</text>
</g>
<!-- 0&#45;&gt;35 -->
<g id="edge35" class="edge">
<title>0&#45;&gt;35</title>
<path fill="none" stroke="black" d="M2337.05,-103.84C2426.24,-102.97 2659.7,-97.87 2852,-69 2914.36,-59.64 2930.5,-56.91 2990,-36 2991.91,-35.33 2993.85,-34.59 2995.79,-33.81"/>
<polygon fill="black" stroke="black" points="2997.6,-36.84 3005.37,-29.63 2994.8,-30.42 2997.6,-36.84"/>
<text text-anchor="middle" x="2945.5" y="-57.8" font-family="Times,serif" font-size="14.00">dep</text>
</g>
<!-- 36 -->
<g id="node37" class="node">
<title>36</title>
<ellipse fill="none" stroke="black" cx="3098" cy="-18" rx="27" ry="18"/>
<text text-anchor="middle" x="3098" y="-14.3" font-family="Times,serif" font-size="14.00">,</text>
</g>
<!-- 0&#45;&gt;36 -->
<g id="edge36" class="edge">
<title>0&#45;&gt;36</title>
<path fill="none" stroke="black" d="M2337.05,-103.35C2458.15,-101.03 2841.54,-92.01 2963,-69 3000.18,-61.96 3040.6,-45.75 3067.43,-33.69"/>
<polygon fill="black" stroke="black" points="3069.03,-36.81 3076.66,-29.46 3066.11,-30.44 3069.03,-36.81"/>
<text text-anchor="middle" x="3030.5" y="-57.8" font-family="Times,serif" font-size="14.00">dep</text>
</g>
<!-- 37 -->
<g id="node38" class="node">
<title>37</title>
<ellipse fill="none" stroke="black" cx="3179" cy="-18" rx="36.29" ry="18"/>
<text text-anchor="middle" x="3179" y="-14.3" font-family="Times,serif" font-size="14.00">Fábio</text>
</g>
<!-- 0&#45;&gt;37 -->
<g id="edge37" class="edge">
<title>0&#45;&gt;37</title>
<path fill="none" stroke="black" d="M2337.18,-103.82C2468.47,-102.93 2909.92,-97.81 3048,-69 3082.02,-61.9 3118.84,-47.17 3144.75,-35.53"/>
<polygon fill="black" stroke="black" points="3146.48,-38.58 3154.12,-31.24 3143.57,-32.22 3146.48,-38.58"/>
<text text-anchor="middle" x="3110.5" y="-57.8" font-family="Times,serif" font-size="14.00">dep</text>
</g>
<!-- 38 -->
<g id="node39" class="node">
<title>38</title>
<ellipse fill="none" stroke="black" cx="3293" cy="-18" rx="59.59" ry="18"/>
<text text-anchor="middle" x="3293" y="-14.3" font-family="Times,serif" font-size="14.00">Raunheitti</text>
</g>
<!-- 0&#45;&gt;38 -->
<g id="edge38" class="edge">
<title>0&#45;&gt;38</title>
<path fill="none" stroke="black" d="M2337.16,-103.67C2477.15,-102.24 2972.68,-95.38 3128,-69 3169.45,-61.96 3215.09,-47.59 3247.84,-36.06"/>
<polygon fill="black" stroke="black" points="3249.34,-39.24 3257.58,-32.58 3246.98,-32.65 3249.34,-39.24"/>
<text text-anchor="middle" x="3201.5" y="-57.8" font-family="Times,serif" font-size="14.00">dep</text>
</g>
<!-- 39 -->
<g id="node40" class="node">
<title>39</title>
<ellipse fill="none" stroke="black" cx="3398" cy="-18" rx="27" ry="18"/>
<text text-anchor="middle" x="3398" y="-14.3" font-family="Times,serif" font-size="14.00">(</text>
</g>
<!-- 0&#45;&gt;39 -->
<g id="edge39" class="edge">
<title>0&#45;&gt;39</title>
<path fill="none" stroke="black" d="M2337.03,-103.52C2486.29,-101.45 3044.12,-92.3 3219,-69 3283.65,-60.39 3300.38,-57.38 3362,-36 3363.91,-35.34 3365.85,-34.6 3367.8,-33.83"/>
<polygon fill="black" stroke="black" points="3369.6,-36.86 3377.38,-29.66 3366.81,-30.44 3369.6,-36.86"/>
<text text-anchor="middle" x="3317.5" y="-57.8" font-family="Times,serif" font-size="14.00">dep</text>
</g>
<!-- 40 -->
<g id="node41" class="node">
<title>40</title>
<ellipse fill="none" stroke="black" cx="3486" cy="-18" rx="42.79" ry="18"/>
<text text-anchor="middle" x="3486" y="-14.3" font-family="Times,serif" font-size="14.00">PTB&#45;RJ</text>
</g>
<!-- 0&#45;&gt;40 -->
<g id="edge40" class="edge">
<title>0&#45;&gt;40</title>
<path fill="none" stroke="black" d="M2337.05,-104.16C2498.04,-104.65 3137.55,-104.27 3335,-69 3374.32,-61.98 3417.42,-46.93 3447.47,-35.16"/>
<polygon fill="black" stroke="black" points="3449.13,-38.27 3457.13,-31.32 3446.55,-31.76 3449.13,-38.27"/>
<text text-anchor="middle" x="3408.5" y="-57.8" font-family="Times,serif" font-size="14.00">dep</text>
</g>
<!-- 41 -->
<g id="node42" class="node">
<title>41</title>
<ellipse fill="none" stroke="black" cx="3574" cy="-18" rx="27" ry="18"/>
<text text-anchor="middle" x="3574" y="-14.3" font-family="Times,serif" font-size="14.00">)</text>
</g>
<!-- 0&#45;&gt;41 -->
<g id="edge41" class="edge">
<title>0&#45;&gt;41</title>
<path fill="none" stroke="black" d="M2337.1,-104.12C2506.71,-104.46 3209.22,-103.72 3426,-69 3477.24,-60.79 3489.5,-54.47 3538,-36 3539.84,-35.3 3541.72,-34.54 3543.6,-33.75"/>
<polygon fill="black" stroke="black" points="3545.19,-36.88 3552.92,-29.62 3542.36,-30.48 3545.19,-36.88"/>
<text text-anchor="middle" x="3502.5" y="-57.8" font-family="Times,serif" font-size="14.00">dep</text>
</g>
<!-- 42 -->
<g id="node43" class="node">
<title>42</title>
<ellipse fill="none" stroke="black" cx="3646" cy="-18" rx="27" ry="18"/>
<text text-anchor="middle" x="3646" y="-14.3" font-family="Times,serif" font-size="14.00">,</text>
</g>
<!-- 0&#45;&gt;42 -->
<g id="edge42" class="edge">
<title>0&#45;&gt;42</title>
<path fill="none" stroke="black" d="M2336.96,-103.65C2528.25,-101.73 3401.53,-91.79 3520,-69 3554.28,-62.41 3591.13,-46.67 3616.07,-34.6"/>
<polygon fill="black" stroke="black" points="3617.92,-37.59 3625.33,-30.01 3614.82,-31.31 3617.92,-37.59"/>
<text text-anchor="middle" x="3583.5" y="-57.8" font-family="Times,serif" font-size="14.00">dep</text>
</g>
<!-- 43 -->
<g id="node44" class="node">
<title>43</title>
<ellipse fill="none" stroke="black" cx="3722" cy="-18" rx="30.59" ry="18"/>
<text text-anchor="middle" x="3722" y="-14.3" font-family="Times,serif" font-size="14.00">Ézio</text>
</g>
<!-- 0&#45;&gt;43 -->
<g id="edge43" class="edge">
<title>0&#45;&gt;43</title>
<path fill="none" stroke="black" d="M2337.11,-103.79C2536.33,-102.59 3474.61,-95.53 3601,-69 3632.87,-62.31 3666.96,-47.45 3690.81,-35.66"/>
<polygon fill="black" stroke="black" points="3692.71,-38.62 3700.05,-30.99 3689.55,-32.37 3692.71,-38.62"/>
<text text-anchor="middle" x="3662.5" y="-57.8" font-family="Times,serif" font-size="14.00">dep</text>
</g>
<!-- 44 -->
<g id="node45" class="node">
<title>44</title>
<ellipse fill="none" stroke="black" cx="3819" cy="-18" rx="48.99" ry="18"/>
<text text-anchor="middle" x="3819" y="-14.3" font-family="Times,serif" font-size="14.00">Ferreira</text>
</g>
<!-- 0&#45;&gt;44 -->
<g id="edge44" class="edge">
<title>0&#45;&gt;44</title>
<path fill="none" stroke="black" d="M2337.29,-103.76C2544.03,-102.37 3544.92,-94.32 3680,-69 3715.17,-62.41 3753.3,-48.14 3780.72,-36.53"/>
<polygon fill="black" stroke="black" points="3782.15,-39.73 3789.94,-32.55 3779.37,-33.3 3782.15,-39.73"/>
<text text-anchor="middle" x="3748.5" y="-57.8" font-family="Times,serif" font-size="14.00">dep</text>
</g>
<!-- 45 -->
<g id="node46" class="node">
<title>45</title>
<ellipse fill="none" stroke="black" cx="3913" cy="-18" rx="27" ry="18"/>
<text text-anchor="middle" x="3913" y="-14.3" font-family="Times,serif" font-size="14.00">(</text>
</g>
<!-- 0&#45;&gt;45 -->
<g id="edge45" class="edge">
<title>0&#45;&gt;45</title>
<path fill="none" stroke="black" d="M2337.12,-103.7C2550.96,-101.91 3621.24,-91.83 3766,-69 3816.84,-60.98 3828.92,-54.37 3877,-36 3878.84,-35.3 3880.72,-34.54 3882.6,-33.75"/>
<polygon fill="black" stroke="black" points="3884.19,-36.87 3891.91,-29.61 3881.35,-30.47 3884.19,-36.87"/>
<text text-anchor="middle" x="3842.5" y="-57.8" font-family="Times,serif" font-size="14.00">dep</text>
</g>
<!-- 46 -->
<g id="node47" class="node">
<title>46</title>
<ellipse fill="none" stroke="black" cx="4006" cy="-18" rx="48.19" ry="18"/>
<text text-anchor="middle" x="4006" y="-14.3" font-family="Times,serif" font-size="14.00">PFL&#45;AM</text>
</g>
<!-- 0&#45;&gt;46 -->
<g id="edge46" class="edge">
<title>0&#45;&gt;46</title>
<path fill="none" stroke="black" d="M2337.32,-103.85C2559.73,-102.85 3705.98,-96.42 3860,-69 3897.33,-62.35 3938,-47.78 3966.91,-36.07"/>
<polygon fill="black" stroke="black" points="3968.33,-39.27 3976.24,-32.23 3965.66,-32.8 3968.33,-39.27"/>
<text text-anchor="middle" x="3931.5" y="-57.8" font-family="Times,serif" font-size="14.00">dep</text>
</g>
<!-- 47 -->
<g id="node48" class="node">
<title>47</title>
<ellipse fill="none" stroke="black" cx="4099" cy="-18" rx="27" ry="18"/>
<text text-anchor="middle" x="4099" y="-14.3" font-family="Times,serif" font-size="14.00">)</text>
</g>
<!-- 0&#45;&gt;47 -->
<g id="edge47" class="edge">
<title>0&#45;&gt;47</title>
<path fill="none" stroke="black" d="M2337.17,-103.79C2566.54,-102.43 3785,-94.04 3949,-69 4001.14,-61.04 4013.66,-54.65 4063,-36 4064.84,-35.3 4066.72,-34.55 4068.6,-33.76"/>
<polygon fill="black" stroke="black" points="4070.19,-36.89 4077.92,-29.64 4067.36,-30.49 4070.19,-36.89"/>
<text text-anchor="middle" x="4028.5" y="-57.8" font-family="Times,serif" font-size="14.00">dep</text>
</g>
<!-- 48 -->
<g id="node49" class="node">
<title>48</title>
<ellipse fill="none" stroke="black" cx="4171" cy="-18" rx="27" ry="18"/>
<text text-anchor="middle" x="4171" y="-14.3" font-family="Times,serif" font-size="14.00">e</text>
</g>
<!-- 0&#45;&gt;48 -->
<g id="edge48" class="edge">
<title>0&#45;&gt;48</title>
<path fill="none" stroke="black" d="M2337.06,-104C2574.05,-103.9 3872.86,-101.86 4046,-69 4080.06,-62.54 4116.61,-46.78 4141.33,-34.67"/>
<polygon fill="black" stroke="black" points="4143.14,-37.67 4150.52,-30.07 4140.01,-31.42 4143.14,-37.67"/>
<text text-anchor="middle" x="4109.5" y="-57.8" font-family="Times,serif" font-size="14.00">dep</text>
</g>
<!-- 49 -->
<g id="node50" class="node">
<title>49</title>
<ellipse fill="none" stroke="black" cx="4252" cy="-18" rx="36.29" ry="18"/>
<text text-anchor="middle" x="4252" y="-14.3" font-family="Times,serif" font-size="14.00">Paulo</text>
</g>
<!-- 0&#45;&gt;49 -->
<g id="edge49" class="edge">
<title>0&#45;&gt;49</title>
<path fill="none" stroke="black" d="M2337.21,-104.09C2581,-104.58 3945.88,-105.68 4127,-69 4159.36,-62.45 4194.06,-47.9 4218.67,-36.18"/>
<polygon fill="black" stroke="black" points="4220.45,-39.21 4227.91,-31.69 4217.39,-32.92 4220.45,-39.21"/>
<text text-anchor="middle" x="4190.5" y="-57.8" font-family="Times,serif" font-size="14.00">dep</text>
</g>
<!-- 50 -->
<g id="node51" class="node">
<title>50</title>
<ellipse fill="none" stroke="black" cx="4356" cy="-18" rx="50.09" ry="18"/>
<text text-anchor="middle" x="4356" y="-14.3" font-family="Times,serif" font-size="14.00">Portugal</text>
</g>
<!-- 0&#45;&gt;50 -->
<g id="edge50" class="edge">
<title>0&#45;&gt;50</title>
<path fill="none" stroke="black" d="M2337.21,-104C2587.16,-103.94 4017.46,-102.11 4208,-69 4245.69,-62.45 4286.78,-47.94 4316.08,-36.23"/>
<polygon fill="black" stroke="black" points="4317.6,-39.39 4325.54,-32.38 4314.96,-32.9 4317.6,-39.39"/>
<text text-anchor="middle" x="4280.5" y="-57.8" font-family="Times,serif" font-size="14.00">dep</text>
</g>
<!-- 51 -->
<g id="node52" class="node">
<title>51</title>
<ellipse fill="none" stroke="black" cx="4451" cy="-18" rx="27" ry="18"/>
<text text-anchor="middle" x="4451" y="-14.3" font-family="Times,serif" font-size="14.00">(</text>
</g>
<!-- 0&#45;&gt;51 -->
<g id="edge51" class="edge">
<title>0&#45;&gt;51</title>
<path fill="none" stroke="black" d="M2337.28,-103.92C2594.14,-103.32 4097.21,-98.57 4298,-69 4351.45,-61.13 4364.4,-54.93 4415,-36 4416.84,-35.31 4418.73,-34.56 4420.61,-33.78"/>
<polygon fill="black" stroke="black" points="4422.2,-36.9 4429.93,-29.66 4419.37,-30.5 4422.2,-36.9"/>
<text text-anchor="middle" x="4379.5" y="-57.8" font-family="Times,serif" font-size="14.00">dep</text>
</g>
<!-- 52 -->
<g id="node53" class="node">
<title>52</title>
<ellipse fill="none" stroke="black" cx="4532" cy="-18" rx="36.29" ry="18"/>
<text text-anchor="middle" x="4532" y="-14.3" font-family="Times,serif" font-size="14.00">PP&#45;RJ</text>
</g>
<!-- 0&#45;&gt;52 -->
<g id="edge52" class="edge">
<title>0&#45;&gt;52</title>
<path fill="none" stroke="black" d="M2337.03,-104.13C2600.5,-104.93 4187.03,-108.09 4397,-69 4432.45,-62.4 4470.82,-47.36 4497.56,-35.48"/>
<polygon fill="black" stroke="black" points="4499.2,-38.59 4506.86,-31.28 4496.31,-32.21 4499.2,-38.59"/>
<text text-anchor="middle" x="4464.5" y="-57.8" font-family="Times,serif" font-size="14.00">dep</text>
</g>
<!-- 53 -->
<g id="node54" class="node">
<title>53</title>
<ellipse fill="none" stroke="black" cx="4613" cy="-18" rx="27" ry="18"/>
<text text-anchor="middle" x="4613" y="-14.3" font-family="Times,serif" font-size="14.00">)</text>
</g>
<!-- 0&#45;&gt;53 -->
<g id="edge53" class="edge">
<title>0&#45;&gt;53</title>
<path fill="none" stroke="black" d="M2337.22,-104.12C2607.34,-104.86 4262.82,-107.79 4482,-69 4518.13,-62.6 4557.14,-46.4 4583.1,-34.16"/>
<polygon fill="black" stroke="black" points="4584.89,-37.19 4592.38,-29.69 4581.85,-30.88 4584.89,-37.19"/>
<text text-anchor="middle" x="4547.5" y="-57.8" font-family="Times,serif" font-size="14.00">dep</text>
</g>
<!-- 54 -->
<g id="node55" class="node">
<title>54</title>
<ellipse fill="none" stroke="black" cx="4685" cy="-18" rx="27" ry="18"/>
<text text-anchor="middle" x="4685" y="-14.3" font-family="Times,serif" font-size="14.00">.</text>
</g>
<!-- 0&#45;&gt;54 -->
<g id="edge54" class="edge">
<title>0&#45;&gt;54</title>
<path fill="none" stroke="black" d="M2337.23,-103.8C2622.3,-102.26 4451.18,-91.47 4565,-69 4597.5,-62.58 4632.18,-47.09 4655.86,-35.03"/>
<polygon fill="black" stroke="black" points="4657.73,-38.01 4664.98,-30.28 4654.5,-31.8 4657.73,-38.01"/>
<text text-anchor="middle" x="4626.5" y="-57.8" font-family="Times,serif" font-size="14.00">dep</text>
</g>
</g>
</svg>
