<?xml version="1.0" encoding="UTF-8" standalone="no"?>
<!DOCTYPE svg PUBLIC "-//W3C//DTD SVG 1.1//EN"
 "http://www.w3.org/Graphics/SVG/1.1/DTD/svg11.dtd">
<!-- Generated by graphviz version 2.42.4 (0)
 -->
<!-- Pages: 1 -->
<svg width="1566pt" height="131pt"
 viewBox="0.00 0.00 1566.05 131.00" xmlns="http://www.w3.org/2000/svg" xmlns:xlink="http://www.w3.org/1999/xlink">
<g id="graph0" class="graph" transform="scale(1 1) rotate(0) translate(4 127)">
<polygon fill="white" stroke="transparent" points="-4,4 -4,-127 1562.05,-127 1562.05,4 -4,4"/>
<!-- 0 -->
<g id="node1" class="node">
<title>0</title>
<ellipse fill="none" stroke="black" cx="799.05" cy="-105" rx="27" ry="18"/>
<text text-anchor="middle" x="799.05" y="-101.3" font-family="Times,serif" font-size="14.00">A</text>
</g>
<!-- 1 -->
<g id="node2" class="node">
<title>1</title>
<ellipse fill="none" stroke="black" cx="50.05" cy="-18" rx="50.09" ry="18"/>
<text text-anchor="middle" x="50.05" y="-14.3" font-family="Times,serif" font-size="14.00">intenção</text>
</g>
<!-- 0&#45;&gt;1 -->
<g id="edge1" class="edge">
<title>0&#45;&gt;1</title>
<path fill="none" stroke="black" d="M771.96,-103.4C669.91,-101.01 308.72,-91.13 196.05,-69 159.2,-61.76 118.94,-47.46 90.04,-36"/>
<polygon fill="black" stroke="black" points="91.28,-32.73 80.7,-32.24 88.67,-39.22 91.28,-32.73"/>
<text text-anchor="middle" x="209.55" y="-57.8" font-family="Times,serif" font-size="14.00">dep</text>
</g>
<!-- 2 -->
<g id="node3" class="node">
<title>2</title>
<ellipse fill="none" stroke="black" cx="145.05" cy="-18" rx="27" ry="18"/>
<text text-anchor="middle" x="145.05" y="-14.3" font-family="Times,serif" font-size="14.00">é</text>
</g>
<!-- 0&#45;&gt;2 -->
<g id="edge2" class="edge">
<title>0&#45;&gt;2</title>
<path fill="none" stroke="black" d="M771.99,-104.58C694.51,-105.73 465.45,-105.53 280.05,-69 234.54,-60.03 224.09,-53.27 181.05,-36 179.22,-35.27 177.35,-34.49 175.47,-33.68"/>
<polygon fill="black" stroke="black" points="176.74,-30.41 166.18,-29.49 173.86,-36.79 176.74,-30.41"/>
<text text-anchor="middle" x="293.55" y="-57.8" font-family="Times,serif" font-size="14.00">dep</text>
</g>
<!-- 3 -->
<g id="node4" class="node">
<title>3</title>
<ellipse fill="none" stroke="black" cx="225.05" cy="-18" rx="35.19" ry="18"/>
<text text-anchor="middle" x="225.05" y="-14.3" font-family="Times,serif" font-size="14.00">votar</text>
</g>
<!-- 0&#45;&gt;3 -->
<g id="edge3" class="edge">
<title>0&#45;&gt;3</title>
<path fill="none" stroke="black" d="M771.96,-104.34C702.58,-104.69 513.22,-102.24 360.05,-69 324.81,-61.35 286.41,-46.44 259.6,-34.89"/>
<polygon fill="black" stroke="black" points="260.84,-31.61 250.28,-30.8 258.03,-38.02 260.84,-31.61"/>
<text text-anchor="middle" x="373.55" y="-57.8" font-family="Times,serif" font-size="14.00">dep</text>
</g>
<!-- 4 -->
<g id="node5" class="node">
<title>4</title>
<ellipse fill="none" stroke="black" cx="305.05" cy="-18" rx="27" ry="18"/>
<text text-anchor="middle" x="305.05" y="-14.3" font-family="Times,serif" font-size="14.00">e</text>
</g>
<!-- 0&#45;&gt;4 -->
<g id="edge4" class="edge">
<title>0&#45;&gt;4</title>
<path fill="none" stroke="black" d="M772.07,-103.08C713.12,-100.67 568.58,-92.65 450.05,-69 400.41,-59.09 388.28,-54.19 341.05,-36 339.21,-35.29 337.33,-34.53 335.45,-33.74"/>
<polygon fill="black" stroke="black" points="336.7,-30.46 326.14,-29.59 333.85,-36.86 336.7,-30.46"/>
<text text-anchor="middle" x="463.55" y="-57.8" font-family="Times,serif" font-size="14.00">dep</text>
</g>
<!-- 5 -->
<g id="node6" class="node">
<title>5</title>
<ellipse fill="none" stroke="black" cx="397.05" cy="-18" rx="46.59" ry="18"/>
<text text-anchor="middle" x="397.05" y="-14.3" font-family="Times,serif" font-size="14.00">aprovar</text>
</g>
<!-- 0&#45;&gt;5 -->
<g id="edge5" class="edge">
<title>0&#45;&gt;5</title>
<path fill="none" stroke="black" d="M772.22,-102.6C723.25,-99.58 616.39,-90.88 529.05,-69 496.69,-60.89 461.43,-47.27 435.49,-36.29"/>
<polygon fill="black" stroke="black" points="436.6,-32.96 426.04,-32.23 433.84,-39.39 436.6,-32.96"/>
<text text-anchor="middle" x="542.55" y="-57.8" font-family="Times,serif" font-size="14.00">dep</text>
</g>
<!-- 6 -->
<g id="node7" class="node">
<title>6</title>
<ellipse fill="none" stroke="black" cx="489.05" cy="-18" rx="27" ry="18"/>
<text text-anchor="middle" x="489.05" y="-14.3" font-family="Times,serif" font-size="14.00">a</text>
</g>
<!-- 0&#45;&gt;6 -->
<g id="edge6" class="edge">
<title>0&#45;&gt;6</title>
<path fill="none" stroke="black" d="M772.24,-101.65C732.89,-97.7 657.49,-88.2 596.05,-69 568.55,-60.41 539.01,-46.19 517.95,-35.11"/>
<polygon fill="black" stroke="black" points="519.37,-31.9 508.91,-30.27 516.07,-38.07 519.37,-31.9"/>
<text text-anchor="middle" x="609.55" y="-57.8" font-family="Times,serif" font-size="14.00">dep</text>
</g>
<!-- 7 -->
<g id="node8" class="node">
<title>7</title>
<ellipse fill="none" stroke="black" cx="561.05" cy="-18" rx="27" ry="18"/>
<text text-anchor="middle" x="561.05" y="-14.3" font-family="Times,serif" font-size="14.00">MP</text>
</g>
<!-- 0&#45;&gt;7 -->
<g id="edge7" class="edge">
<title>0&#45;&gt;7</title>
<path fill="none" stroke="black" d="M773.42,-99.32C745.14,-93.75 698.51,-83.36 660.05,-69 635.4,-59.8 608.86,-46.18 589.47,-35.47"/>
<polygon fill="black" stroke="black" points="591,-32.32 580.56,-30.49 587.57,-38.43 591,-32.32"/>
<text text-anchor="middle" x="673.55" y="-57.8" font-family="Times,serif" font-size="14.00">dep</text>
</g>
<!-- 8 -->
<g id="node9" class="node">
<title>8</title>
<ellipse fill="none" stroke="black" cx="633.05" cy="-18" rx="27" ry="18"/>
<text text-anchor="middle" x="633.05" y="-14.3" font-family="Times,serif" font-size="14.00">em</text>
</g>
<!-- 0&#45;&gt;8 -->
<g id="edge8" class="edge">
<title>0&#45;&gt;8</title>
<path fill="none" stroke="black" d="M776.1,-95.35C759.21,-88.74 735.84,-79.07 716.05,-69 696.99,-59.31 676.41,-46.92 660.5,-36.9"/>
<polygon fill="black" stroke="black" points="662.04,-33.73 651.73,-31.31 658.28,-39.63 662.04,-33.73"/>
<text text-anchor="middle" x="729.55" y="-57.8" font-family="Times,serif" font-size="14.00">dep</text>
</g>
<!-- 9 -->
<g id="node10" class="node">
<title>9</title>
<ellipse fill="none" stroke="black" cx="705.05" cy="-18" rx="27" ry="18"/>
<text text-anchor="middle" x="705.05" y="-14.3" font-family="Times,serif" font-size="14.00">a</text>
</g>
<!-- 0&#45;&gt;9 -->
<g id="edge9" class="edge">
<title>0&#45;&gt;9</title>
<path fill="none" stroke="black" d="M783.52,-89.96C768.42,-76.31 745.29,-55.39 728.05,-39.8"/>
<polygon fill="black" stroke="black" points="730.36,-37.17 720.59,-33.06 725.66,-42.36 730.36,-37.17"/>
<text text-anchor="middle" x="771.55" y="-57.8" font-family="Times,serif" font-size="14.00">dep</text>
</g>
<!-- 10 -->
<g id="node11" class="node">
<title>10</title>
<ellipse fill="none" stroke="black" cx="799.05" cy="-18" rx="48.99" ry="18"/>
<text text-anchor="middle" x="799.05" y="-14.3" font-family="Times,serif" font-size="14.00">próxima</text>
</g>
<!-- 0&#45;&gt;10 -->
<g id="edge10" class="edge">
<title>0&#45;&gt;10</title>
<path fill="none" stroke="black" d="M799.05,-86.8C799.05,-75.16 799.05,-59.55 799.05,-46.24"/>
<polygon fill="black" stroke="black" points="802.55,-46.18 799.05,-36.18 795.55,-46.18 802.55,-46.18"/>
<text text-anchor="middle" x="812.55" y="-57.8" font-family="Times,serif" font-size="14.00">dep</text>
</g>
<!-- 11 -->
<g id="node12" class="node">
<title>11</title>
<ellipse fill="none" stroke="black" cx="912.05" cy="-18" rx="46.29" ry="18"/>
<text text-anchor="middle" x="912.05" y="-14.3" font-family="Times,serif" font-size="14.00">semana</text>
</g>
<!-- 0&#45;&gt;11 -->
<g id="edge11" class="edge">
<title>0&#45;&gt;11</title>
<path fill="none" stroke="black" d="M816.21,-91.09C834.09,-77.64 862.4,-56.35 883.62,-40.38"/>
<polygon fill="black" stroke="black" points="885.77,-43.15 891.66,-34.34 881.56,-37.55 885.77,-43.15"/>
<text text-anchor="middle" x="876.55" y="-57.8" font-family="Times,serif" font-size="14.00">dep</text>
</g>
<!-- 12 -->
<g id="node13" class="node">
<title>12</title>
<ellipse fill="none" stroke="black" cx="1003.05" cy="-18" rx="27" ry="18"/>
<text text-anchor="middle" x="1003.05" y="-14.3" font-family="Times,serif" font-size="14.00">,</text>
</g>
<!-- 0&#45;&gt;12 -->
<g id="edge12" class="edge">
<title>0&#45;&gt;12</title>
<path fill="none" stroke="black" d="M822.65,-95.83C841.98,-89.02 869.97,-78.86 894.05,-69 926.99,-55.5 934.72,-50.94 967.05,-36 968.83,-35.17 970.67,-34.32 972.52,-33.46"/>
<polygon fill="black" stroke="black" points="974.19,-36.54 981.75,-29.13 971.21,-30.21 974.19,-36.54"/>
<text text-anchor="middle" x="942.55" y="-57.8" font-family="Times,serif" font-size="14.00">dep</text>
</g>
<!-- 13 -->
<g id="node14" class="node">
<title>13</title>
<ellipse fill="none" stroke="black" cx="1084.05" cy="-18" rx="36" ry="18"/>
<text text-anchor="middle" x="1084.05" y="-14.3" font-family="Times,serif" font-size="14.00">entre</text>
</g>
<!-- 0&#45;&gt;13 -->
<g id="edge13" class="edge">
<title>0&#45;&gt;13</title>
<path fill="none" stroke="black" d="M825.05,-99.75C857.17,-94.17 913.3,-83.39 960.05,-69 990.79,-59.53 1024.59,-45.66 1049.13,-34.93"/>
<polygon fill="black" stroke="black" points="1050.65,-38.08 1058.38,-30.84 1047.82,-31.68 1050.65,-38.08"/>
<text text-anchor="middle" x="1015.55" y="-57.8" font-family="Times,serif" font-size="14.00">dep</text>
</g>
<!-- 14 -->
<g id="node15" class="node">
<title>14</title>
<ellipse fill="none" stroke="black" cx="1165.05" cy="-18" rx="27" ry="18"/>
<text text-anchor="middle" x="1165.05" y="-14.3" font-family="Times,serif" font-size="14.00">os</text>
</g>
<!-- 0&#45;&gt;14 -->
<g id="edge14" class="edge">
<title>0&#45;&gt;14</title>
<path fill="none" stroke="black" d="M825.67,-101.62C869.41,-97.34 959.03,-87.1 1033.05,-69 1076.87,-58.29 1087.25,-52.99 1129.05,-36 1130.87,-35.26 1132.74,-34.47 1134.61,-33.66"/>
<polygon fill="black" stroke="black" points="1136.23,-36.77 1143.9,-29.46 1133.34,-30.39 1136.23,-36.77"/>
<text text-anchor="middle" x="1097.55" y="-57.8" font-family="Times,serif" font-size="14.00">dep</text>
</g>
<!-- 15 -->
<g id="node16" class="node">
<title>15</title>
<ellipse fill="none" stroke="black" cx="1240.05" cy="-18" rx="29.8" ry="18"/>
<text text-anchor="middle" x="1240.05" y="-14.3" font-family="Times,serif" font-size="14.00">dias</text>
</g>
<!-- 0&#45;&gt;15 -->
<g id="edge15" class="edge">
<title>0&#45;&gt;15</title>
<path fill="none" stroke="black" d="M826.08,-103.33C881.19,-101.45 1010.19,-94.48 1115.05,-69 1147.93,-61.01 1183.6,-46.07 1208.39,-34.59"/>
<polygon fill="black" stroke="black" points="1210.09,-37.65 1217.65,-30.22 1207.11,-31.32 1210.09,-37.65"/>
<text text-anchor="middle" x="1174.55" y="-57.8" font-family="Times,serif" font-size="14.00">dep</text>
</g>
<!-- 16 -->
<g id="node17" class="node">
<title>16</title>
<ellipse fill="none" stroke="black" cx="1315.05" cy="-18" rx="27" ry="18"/>
<text text-anchor="middle" x="1315.05" y="-14.3" font-family="Times,serif" font-size="14.00">26</text>
</g>
<!-- 0&#45;&gt;16 -->
<g id="edge16" class="edge">
<title>0&#45;&gt;16</title>
<path fill="none" stroke="black" d="M826.13,-104.12C890.46,-103.85 1057.19,-99.96 1192.05,-69 1225.17,-61.4 1260.93,-45.97 1285.31,-34.25"/>
<polygon fill="black" stroke="black" points="1286.95,-37.35 1294.39,-29.8 1283.87,-31.06 1286.95,-37.35"/>
<text text-anchor="middle" x="1251.55" y="-57.8" font-family="Times,serif" font-size="14.00">dep</text>
</g>
<!-- 17 -->
<g id="node18" class="node">
<title>17</title>
<ellipse fill="none" stroke="black" cx="1387.05" cy="-18" rx="27" ry="18"/>
<text text-anchor="middle" x="1387.05" y="-14.3" font-family="Times,serif" font-size="14.00">e</text>
</g>
<!-- 0&#45;&gt;17 -->
<g id="edge17" class="edge">
<title>0&#45;&gt;17</title>
<path fill="none" stroke="black" d="M825.96,-103.08C912.63,-99.96 1183.77,-88.83 1269.05,-69 1300.66,-61.65 1334.57,-46.44 1357.89,-34.71"/>
<polygon fill="black" stroke="black" points="1359.59,-37.77 1366.89,-30.09 1356.39,-31.54 1359.59,-37.77"/>
<text text-anchor="middle" x="1326.55" y="-57.8" font-family="Times,serif" font-size="14.00">dep</text>
</g>
<!-- 18 -->
<g id="node19" class="node">
<title>18</title>
<ellipse fill="none" stroke="black" cx="1459.05" cy="-18" rx="27" ry="18"/>
<text text-anchor="middle" x="1459.05" y="-14.3" font-family="Times,serif" font-size="14.00">27</text>
</g>
<!-- 0&#45;&gt;18 -->
<g id="edge18" class="edge">
<title>0&#45;&gt;18</title>
<path fill="none" stroke="black" d="M826.16,-103.44C921.93,-101.29 1243.88,-92.44 1344.05,-69 1374.65,-61.84 1407.31,-46.85 1429.98,-35.14"/>
<polygon fill="black" stroke="black" points="1431.83,-38.12 1439.04,-30.36 1428.56,-31.93 1431.83,-38.12"/>
<text text-anchor="middle" x="1400.55" y="-57.8" font-family="Times,serif" font-size="14.00">dep</text>
</g>
<!-- 19 -->
<g id="node20" class="node">
<title>19</title>
<ellipse fill="none" stroke="black" cx="1531.05" cy="-18" rx="27" ry="18"/>
<text text-anchor="middle" x="1531.05" y="-14.3" font-family="Times,serif" font-size="14.00">.</text>
</g>
<!-- 0&#45;&gt;19 -->
<g id="edge19" class="edge">
<title>0&#45;&gt;19</title>
<path fill="none" stroke="black" d="M826.19,-103.72C930.18,-102.43 1303.04,-96.01 1418.05,-69 1448.2,-61.92 1480.28,-46.92 1502.53,-35.19"/>
<polygon fill="black" stroke="black" points="1504.28,-38.22 1511.42,-30.39 1500.96,-32.06 1504.28,-38.22"/>
<text text-anchor="middle" x="1473.55" y="-57.8" font-family="Times,serif" font-size="14.00">dep</text>
</g>
</g>
</svg>
