<?xml version="1.0" encoding="UTF-8" standalone="no"?>
<!DOCTYPE svg PUBLIC "-//W3C//DTD SVG 1.1//EN"
 "http://www.w3.org/Graphics/SVG/1.1/DTD/svg11.dtd">
<!-- Generated by graphviz version 2.42.4 (0)
 -->
<!-- Pages: 1 -->
<svg width="796pt" height="131pt"
 viewBox="0.00 0.00 796.00 131.00" xmlns="http://www.w3.org/2000/svg" xmlns:xlink="http://www.w3.org/1999/xlink">
<g id="graph0" class="graph" transform="scale(1 1) rotate(0) translate(4 127)">
<polygon fill="white" stroke="transparent" points="-4,4 -4,-127 792,-127 792,4 -4,4"/>
<!-- 0 -->
<g id="node1" class="node">
<title>0</title>
<ellipse fill="none" stroke="black" cx="366" cy="-105" rx="59.59" ry="18"/>
<text text-anchor="middle" x="366" y="-101.3" font-family="Times,serif" font-size="14.00">Relacionar</text>
</g>
<!-- 1 -->
<g id="node2" class="node">
<title>1</title>
<ellipse fill="none" stroke="black" cx="39" cy="-18" rx="38.99" ry="18"/>
<text text-anchor="middle" x="39" y="-14.3" font-family="Times,serif" font-size="14.00">coisas</text>
</g>
<!-- 0&#45;&gt;1 -->
<g id="edge1" class="edge">
<title>0&#45;&gt;1</title>
<path fill="none" stroke="black" d="M310.6,-98C268.69,-92.64 210.02,-83.39 160,-69 130.24,-60.44 97.89,-46.83 74.13,-35.97"/>
<polygon fill="black" stroke="black" points="75.37,-32.69 64.83,-31.66 72.43,-39.04 75.37,-32.69"/>
<text text-anchor="middle" x="173.5" y="-57.8" font-family="Times,serif" font-size="14.00">dep</text>
</g>
<!-- 2 -->
<g id="node3" class="node">
<title>2</title>
<ellipse fill="none" stroke="black" cx="124" cy="-18" rx="27.9" ry="18"/>
<text text-anchor="middle" x="124" y="-14.3" font-family="Times,serif" font-size="14.00">que</text>
</g>
<!-- 0&#45;&gt;2 -->
<g id="edge2" class="edge">
<title>0&#45;&gt;2</title>
<path fill="none" stroke="black" d="M316.89,-94.71C289.17,-88.77 254.14,-80.09 224,-69 199.26,-59.9 172.63,-46.38 153.08,-35.7"/>
<polygon fill="black" stroke="black" points="154.53,-32.5 144.09,-30.72 151.14,-38.63 154.53,-32.5"/>
<text text-anchor="middle" x="237.5" y="-57.8" font-family="Times,serif" font-size="14.00">dep</text>
</g>
<!-- 3 -->
<g id="node4" class="node">
<title>3</title>
<ellipse fill="none" stroke="black" cx="197" cy="-18" rx="27" ry="18"/>
<text text-anchor="middle" x="197" y="-14.3" font-family="Times,serif" font-size="14.00">a</text>
</g>
<!-- 0&#45;&gt;3 -->
<g id="edge3" class="edge">
<title>0&#45;&gt;3</title>
<path fill="none" stroke="black" d="M329.91,-90.5C314.6,-84.42 296.7,-76.85 281,-69 261.58,-59.29 240.6,-46.8 224.46,-36.74"/>
<polygon fill="black" stroke="black" points="225.9,-33.5 215.57,-31.13 222.16,-39.42 225.9,-33.5"/>
<text text-anchor="middle" x="294.5" y="-57.8" font-family="Times,serif" font-size="14.00">dep</text>
</g>
<!-- 4 -->
<g id="node5" class="node">
<title>4</title>
<ellipse fill="none" stroke="black" cx="269" cy="-18" rx="27" ry="18"/>
<text text-anchor="middle" x="269" y="-14.3" font-family="Times,serif" font-size="14.00">o</text>
</g>
<!-- 0&#45;&gt;4 -->
<g id="edge4" class="edge">
<title>0&#45;&gt;4</title>
<path fill="none" stroke="black" d="M347.29,-87.61C331.68,-73.93 309.34,-54.35 292.52,-39.61"/>
<polygon fill="black" stroke="black" points="294.58,-36.77 284.76,-32.81 289.97,-42.03 294.58,-36.77"/>
<text text-anchor="middle" x="337.5" y="-57.8" font-family="Times,serif" font-size="14.00">dep</text>
</g>
<!-- 5 -->
<g id="node6" class="node">
<title>5</title>
<ellipse fill="none" stroke="black" cx="366" cy="-18" rx="51.99" ry="18"/>
<text text-anchor="middle" x="366" y="-14.3" font-family="Times,serif" font-size="14.00">princípio</text>
</g>
<!-- 0&#45;&gt;5 -->
<g id="edge5" class="edge">
<title>0&#45;&gt;5</title>
<path fill="none" stroke="black" d="M366,-86.8C366,-75.16 366,-59.55 366,-46.24"/>
<polygon fill="black" stroke="black" points="369.5,-46.18 366,-36.18 362.5,-46.18 369.5,-46.18"/>
<text text-anchor="middle" x="379.5" y="-57.8" font-family="Times,serif" font-size="14.00">dep</text>
</g>
<!-- 6 -->
<g id="node7" class="node">
<title>6</title>
<ellipse fill="none" stroke="black" cx="463" cy="-18" rx="27.1" ry="18"/>
<text text-anchor="middle" x="463" y="-14.3" font-family="Times,serif" font-size="14.00">não</text>
</g>
<!-- 0&#45;&gt;6 -->
<g id="edge6" class="edge">
<title>0&#45;&gt;6</title>
<path fill="none" stroke="black" d="M384.7,-87.61C400.31,-73.93 422.65,-54.35 439.47,-39.61"/>
<polygon fill="black" stroke="black" points="442.02,-42.03 447.24,-32.81 437.41,-36.77 442.02,-42.03"/>
<text text-anchor="middle" x="434.5" y="-57.8" font-family="Times,serif" font-size="14.00">dep</text>
</g>
<!-- 7 -->
<g id="node8" class="node">
<title>7</title>
<ellipse fill="none" stroke="black" cx="559" cy="-18" rx="50.89" ry="18"/>
<text text-anchor="middle" x="559" y="-14.3" font-family="Times,serif" font-size="14.00">parecem</text>
</g>
<!-- 0&#45;&gt;7 -->
<g id="edge7" class="edge">
<title>0&#45;&gt;7</title>
<path fill="none" stroke="black" d="M400.9,-90.26C416.59,-83.97 435.3,-76.29 452,-69 475.03,-58.94 500.54,-47.05 520.87,-37.39"/>
<polygon fill="black" stroke="black" points="522.59,-40.44 530.11,-32.98 519.58,-34.13 522.59,-40.44"/>
<text text-anchor="middle" x="498.5" y="-57.8" font-family="Times,serif" font-size="14.00">dep</text>
</g>
<!-- 8 -->
<g id="node9" class="node">
<title>8</title>
<ellipse fill="none" stroke="black" cx="672" cy="-18" rx="44.39" ry="18"/>
<text text-anchor="middle" x="672" y="-14.3" font-family="Times,serif" font-size="14.00">ligadas</text>
</g>
<!-- 0&#45;&gt;8 -->
<g id="edge8" class="edge">
<title>0&#45;&gt;8</title>
<path fill="none" stroke="black" d="M413.53,-93.94C443.16,-87.41 481.97,-78.4 516,-69 562.33,-56.19 573.22,-50.67 619,-36 622.13,-35 625.36,-33.96 628.61,-32.92"/>
<polygon fill="black" stroke="black" points="629.9,-36.18 638.35,-29.79 627.76,-29.51 629.9,-36.18"/>
<text text-anchor="middle" x="578.5" y="-57.8" font-family="Times,serif" font-size="14.00">dep</text>
</g>
<!-- 9 -->
<g id="node10" class="node">
<title>9</title>
<ellipse fill="none" stroke="black" cx="761" cy="-18" rx="27" ry="18"/>
<text text-anchor="middle" x="761" y="-14.3" font-family="Times,serif" font-size="14.00">.</text>
</g>
<!-- 0&#45;&gt;9 -->
<g id="edge9" class="edge">
<title>0&#45;&gt;9</title>
<path fill="none" stroke="black" d="M422.49,-98.89C494.47,-91.12 621.9,-73.14 725,-36 726.85,-35.33 728.74,-34.6 730.63,-33.83"/>
<polygon fill="black" stroke="black" points="732.2,-36.97 739.96,-29.75 729.4,-30.55 732.2,-36.97"/>
<text text-anchor="middle" x="682.5" y="-57.8" font-family="Times,serif" font-size="14.00">dep</text>
</g>
</g>
</svg>
