<?xml version="1.0" encoding="UTF-8" standalone="no"?>
<!DOCTYPE svg PUBLIC "-//W3C//DTD SVG 1.1//EN"
 "http://www.w3.org/Graphics/SVG/1.1/DTD/svg11.dtd">
<!-- Generated by graphviz version 2.42.4 (0)
 -->
<!-- Pages: 1 -->
<svg width="512pt" height="131pt"
 viewBox="0.00 0.00 512.00 131.00" xmlns="http://www.w3.org/2000/svg" xmlns:xlink="http://www.w3.org/1999/xlink">
<g id="graph0" class="graph" transform="scale(1 1) rotate(0) translate(4 127)">
<polygon fill="white" stroke="transparent" points="-4,4 -4,-127 508,-127 508,4 -4,4"/>
<!-- 0 -->
<g id="node1" class="node">
<title>0</title>
<ellipse fill="none" stroke="black" cx="243" cy="-105" rx="34.39" ry="18"/>
<text text-anchor="middle" x="243" y="-101.3" font-family="Times,serif" font-size="14.00">Cada</text>
</g>
<!-- 1 -->
<g id="node2" class="node">
<title>1</title>
<ellipse fill="none" stroke="black" cx="27" cy="-18" rx="27" ry="18"/>
<text text-anchor="middle" x="27" y="-14.3" font-family="Times,serif" font-size="14.00">um</text>
</g>
<!-- 0&#45;&gt;1 -->
<g id="edge1" class="edge">
<title>0&#45;&gt;1</title>
<path fill="none" stroke="black" d="M211.5,-97.56C185.37,-91.7 147.51,-81.97 116,-69 94.57,-60.18 71.8,-47.32 54.67,-36.85"/>
<polygon fill="black" stroke="black" points="56.11,-33.63 45.77,-31.33 52.41,-39.58 56.11,-33.63"/>
<text text-anchor="middle" x="129.5" y="-57.8" font-family="Times,serif" font-size="14.00">dep</text>
</g>
<!-- 2 -->
<g id="node3" class="node">
<title>2</title>
<ellipse fill="none" stroke="black" cx="99" cy="-18" rx="27" ry="18"/>
<text text-anchor="middle" x="99" y="-14.3" font-family="Times,serif" font-size="14.00">o</text>
</g>
<!-- 0&#45;&gt;2 -->
<g id="edge2" class="edge">
<title>0&#45;&gt;2</title>
<path fill="none" stroke="black" d="M216.69,-93.19C202.02,-86.8 183.6,-78.18 168,-69 152.77,-60.04 136.73,-48.56 123.96,-38.86"/>
<polygon fill="black" stroke="black" points="125.74,-35.81 115.68,-32.48 121.46,-41.35 125.74,-35.81"/>
<text text-anchor="middle" x="181.5" y="-57.8" font-family="Times,serif" font-size="14.00">dep</text>
</g>
<!-- 3 -->
<g id="node4" class="node">
<title>3</title>
<ellipse fill="none" stroke="black" cx="171" cy="-18" rx="27" ry="18"/>
<text text-anchor="middle" x="171" y="-14.3" font-family="Times,serif" font-size="14.00">fez</text>
</g>
<!-- 0&#45;&gt;3 -->
<g id="edge3" class="edge">
<title>0&#45;&gt;3</title>
<path fill="none" stroke="black" d="M228.98,-88.43C223.62,-82.41 217.48,-75.42 212,-69 204.68,-60.41 196.79,-50.86 189.9,-42.43"/>
<polygon fill="black" stroke="black" points="192.44,-39.99 183.41,-34.44 187,-44.41 192.44,-39.99"/>
<text text-anchor="middle" x="225.5" y="-57.8" font-family="Times,serif" font-size="14.00">dep</text>
</g>
<!-- 4 -->
<g id="node5" class="node">
<title>4</title>
<ellipse fill="none" stroke="black" cx="243" cy="-18" rx="27" ry="18"/>
<text text-anchor="middle" x="243" y="-14.3" font-family="Times,serif" font-size="14.00">a</text>
</g>
<!-- 0&#45;&gt;4 -->
<g id="edge4" class="edge">
<title>0&#45;&gt;4</title>
<path fill="none" stroke="black" d="M243,-86.8C243,-75.16 243,-59.55 243,-46.24"/>
<polygon fill="black" stroke="black" points="246.5,-46.18 243,-36.18 239.5,-46.18 246.5,-46.18"/>
<text text-anchor="middle" x="256.5" y="-57.8" font-family="Times,serif" font-size="14.00">dep</text>
</g>
<!-- 5 -->
<g id="node6" class="node">
<title>5</title>
<ellipse fill="none" stroke="black" cx="315" cy="-18" rx="27" ry="18"/>
<text text-anchor="middle" x="315" y="-14.3" font-family="Times,serif" font-size="14.00">seu</text>
</g>
<!-- 0&#45;&gt;5 -->
<g id="edge5" class="edge">
<title>0&#45;&gt;5</title>
<path fill="none" stroke="black" d="M257.02,-88.43C262.38,-82.41 268.52,-75.42 274,-69 281.32,-60.41 289.21,-50.86 296.1,-42.43"/>
<polygon fill="black" stroke="black" points="299,-44.41 302.59,-34.44 293.56,-39.99 299,-44.41"/>
<text text-anchor="middle" x="299.5" y="-57.8" font-family="Times,serif" font-size="14.00">dep</text>
</g>
<!-- 6 -->
<g id="node7" class="node">
<title>6</title>
<ellipse fill="none" stroke="black" cx="396" cy="-18" rx="36.29" ry="18"/>
<text text-anchor="middle" x="396" y="-14.3" font-family="Times,serif" font-size="14.00">modo</text>
</g>
<!-- 0&#45;&gt;6 -->
<g id="edge6" class="edge">
<title>0&#45;&gt;6</title>
<path fill="none" stroke="black" d="M268.73,-92.77C283.14,-86.25 301.31,-77.63 317,-69 333.84,-59.73 352.01,-48.34 366.67,-38.77"/>
<polygon fill="black" stroke="black" points="368.87,-41.51 375.3,-33.09 365.02,-35.66 368.87,-41.51"/>
<text text-anchor="middle" x="354.5" y="-57.8" font-family="Times,serif" font-size="14.00">dep</text>
</g>
<!-- 7 -->
<g id="node8" class="node">
<title>7</title>
<ellipse fill="none" stroke="black" cx="477" cy="-18" rx="27" ry="18"/>
<text text-anchor="middle" x="477" y="-14.3" font-family="Times,serif" font-size="14.00">.</text>
</g>
<!-- 0&#45;&gt;7 -->
<g id="edge7" class="edge">
<title>0&#45;&gt;7</title>
<path fill="none" stroke="black" d="M274.25,-97.18C300.68,-91.03 339.36,-81.09 372,-69 398.27,-59.27 426.91,-45.4 447.63,-34.74"/>
<polygon fill="black" stroke="black" points="449.3,-37.81 456.56,-30.09 446.07,-31.6 449.3,-37.81"/>
<text text-anchor="middle" x="420.5" y="-57.8" font-family="Times,serif" font-size="14.00">dep</text>
</g>
</g>
</svg>
