<?xml version="1.0" encoding="UTF-8" standalone="no"?>
<!DOCTYPE svg PUBLIC "-//W3C//DTD SVG 1.1//EN"
 "http://www.w3.org/Graphics/SVG/1.1/DTD/svg11.dtd">
<!-- Generated by graphviz version 2.42.4 (0)
 -->
<!-- Pages: 1 -->
<svg width="4049pt" height="131pt"
 viewBox="0.00 0.00 4049.00 131.00" xmlns="http://www.w3.org/2000/svg" xmlns:xlink="http://www.w3.org/1999/xlink">
<g id="graph0" class="graph" transform="scale(1 1) rotate(0) translate(4 127)">
<polygon fill="white" stroke="transparent" points="-4,4 -4,-127 4045,-127 4045,4 -4,4"/>
<!-- 0 -->
<g id="node1" class="node">
<title>0</title>
<ellipse fill="none" stroke="black" cx="2035" cy="-105" rx="51.19" ry="18"/>
<text text-anchor="middle" x="2035" y="-101.3" font-family="Times,serif" font-size="14.00">Segundo</text>
</g>
<!-- 1 -->
<g id="node2" class="node">
<title>1</title>
<ellipse fill="none" stroke="black" cx="27" cy="-18" rx="27" ry="18"/>
<text text-anchor="middle" x="27" y="-14.3" font-family="Times,serif" font-size="14.00">o</text>
</g>
<!-- 0&#45;&gt;1 -->
<g id="edge1" class="edge">
<title>0&#45;&gt;1</title>
<path fill="none" stroke="black" d="M1983.48,-103.72C1703.96,-102.11 375.3,-93.24 194,-69 134.49,-61.04 119.52,-56.25 63,-36 61.15,-35.34 59.26,-34.61 57.37,-33.84"/>
<polygon fill="black" stroke="black" points="58.6,-30.56 48.03,-29.77 55.8,-36.97 58.6,-30.56"/>
<text text-anchor="middle" x="207.5" y="-57.8" font-family="Times,serif" font-size="14.00">dep</text>
</g>
<!-- 2 -->
<g id="node3" class="node">
<title>2</title>
<ellipse fill="none" stroke="black" cx="132" cy="-18" rx="60.39" ry="18"/>
<text text-anchor="middle" x="132" y="-14.3" font-family="Times,serif" font-size="14.00">presidente</text>
</g>
<!-- 0&#45;&gt;2 -->
<g id="edge2" class="edge">
<title>0&#45;&gt;2</title>
<path fill="none" stroke="black" d="M1983.32,-103.88C1711.66,-103.14 454.94,-98.15 284,-69 246.07,-62.53 204.69,-48.43 174.69,-36.84"/>
<polygon fill="black" stroke="black" points="175.96,-33.58 165.37,-33.18 173.4,-40.09 175.96,-33.58"/>
<text text-anchor="middle" x="297.5" y="-57.8" font-family="Times,serif" font-size="14.00">dep</text>
</g>
<!-- 3 -->
<g id="node4" class="node">
<title>3</title>
<ellipse fill="none" stroke="black" cx="237" cy="-18" rx="27" ry="18"/>
<text text-anchor="middle" x="237" y="-14.3" font-family="Times,serif" font-size="14.00">de</text>
</g>
<!-- 0&#45;&gt;3 -->
<g id="edge3" class="edge">
<title>0&#45;&gt;3</title>
<path fill="none" stroke="black" d="M1983.55,-103.91C1719.97,-103.31 527.19,-98.96 365,-69 329.84,-62.51 291.99,-46.48 266.64,-34.31"/>
<polygon fill="black" stroke="black" points="268.08,-31.12 257.56,-29.86 265,-37.41 268.08,-31.12"/>
<text text-anchor="middle" x="378.5" y="-57.8" font-family="Times,serif" font-size="14.00">dep</text>
</g>
<!-- 4 -->
<g id="node5" class="node">
<title>4</title>
<ellipse fill="none" stroke="black" cx="309" cy="-18" rx="27" ry="18"/>
<text text-anchor="middle" x="309" y="-14.3" font-family="Times,serif" font-size="14.00">o</text>
</g>
<!-- 0&#45;&gt;4 -->
<g id="edge4" class="edge">
<title>0&#45;&gt;4</title>
<path fill="none" stroke="black" d="M1983.73,-103.61C1730.24,-101.6 616.91,-91.55 464,-69 409.7,-60.99 396.45,-55.12 345,-36 343.15,-35.31 341.27,-34.57 339.39,-33.79"/>
<polygon fill="black" stroke="black" points="340.62,-30.51 330.06,-29.68 337.8,-36.92 340.62,-30.51"/>
<text text-anchor="middle" x="477.5" y="-57.8" font-family="Times,serif" font-size="14.00">dep</text>
</g>
<!-- 5 -->
<g id="node6" class="node">
<title>5</title>
<ellipse fill="none" stroke="black" cx="403" cy="-18" rx="48.99" ry="18"/>
<text text-anchor="middle" x="403" y="-14.3" font-family="Times,serif" font-size="14.00">Corecon</text>
</g>
<!-- 0&#45;&gt;5 -->
<g id="edge5" class="edge">
<title>0&#45;&gt;5</title>
<path fill="none" stroke="black" d="M1983.4,-103.69C1738.12,-102.11 696.01,-93.94 553,-69 514.61,-62.3 472.68,-47.66 442.93,-35.94"/>
<polygon fill="black" stroke="black" points="443.92,-32.57 433.33,-32.1 441.31,-39.06 443.92,-32.57"/>
<text text-anchor="middle" x="566.5" y="-57.8" font-family="Times,serif" font-size="14.00">dep</text>
</g>
<!-- 6 -->
<g id="node7" class="node">
<title>6</title>
<ellipse fill="none" stroke="black" cx="497" cy="-18" rx="27" ry="18"/>
<text text-anchor="middle" x="497" y="-14.3" font-family="Times,serif" font-size="14.00">,</text>
</g>
<!-- 0&#45;&gt;6 -->
<g id="edge6" class="edge">
<title>0&#45;&gt;6</title>
<path fill="none" stroke="black" d="M1983.78,-103.45C1749.48,-100.82 785.4,-88.88 652,-69 597.71,-60.91 584.45,-55.12 533,-36 531.15,-35.31 529.27,-34.57 527.39,-33.79"/>
<polygon fill="black" stroke="black" points="528.62,-30.51 518.06,-29.68 525.8,-36.92 528.62,-30.51"/>
<text text-anchor="middle" x="665.5" y="-57.8" font-family="Times,serif" font-size="14.00">dep</text>
</g>
<!-- 7 -->
<g id="node8" class="node">
<title>7</title>
<ellipse fill="none" stroke="black" cx="577" cy="-18" rx="35.19" ry="18"/>
<text text-anchor="middle" x="577" y="-14.3" font-family="Times,serif" font-size="14.00">Hélio</text>
</g>
<!-- 0&#45;&gt;7 -->
<g id="edge7" class="edge">
<title>0&#45;&gt;7</title>
<path fill="none" stroke="black" d="M1983.52,-103.93C1776.92,-103.43 1007.48,-99.51 766,-69 700.43,-60.72 684.21,-55.29 621,-36 618.44,-35.22 615.83,-34.36 613.2,-33.46"/>
<polygon fill="black" stroke="black" points="614.37,-30.16 603.78,-30.05 611.99,-36.74 614.37,-30.16"/>
<text text-anchor="middle" x="779.5" y="-57.8" font-family="Times,serif" font-size="14.00">dep</text>
</g>
<!-- 8 -->
<g id="node9" class="node">
<title>8</title>
<ellipse fill="none" stroke="black" cx="700" cy="-18" rx="69.59" ry="18"/>
<text text-anchor="middle" x="700" y="-14.3" font-family="Times,serif" font-size="14.00">Portocarrero</text>
</g>
<!-- 0&#45;&gt;8 -->
<g id="edge8" class="edge">
<title>0&#45;&gt;8</title>
<path fill="none" stroke="black" d="M1983.58,-104.34C1786.6,-105.37 1080.05,-106.31 859,-69 819.86,-62.39 777.02,-48.51 745.68,-37.05"/>
<polygon fill="black" stroke="black" points="746.52,-33.63 735.93,-33.43 744.08,-40.19 746.52,-33.63"/>
<text text-anchor="middle" x="872.5" y="-57.8" font-family="Times,serif" font-size="14.00">dep</text>
</g>
<!-- 9 -->
<g id="node10" class="node">
<title>9</title>
<ellipse fill="none" stroke="black" cx="815" cy="-18" rx="27" ry="18"/>
<text text-anchor="middle" x="815" y="-14.3" font-family="Times,serif" font-size="14.00">,</text>
</g>
<!-- 0&#45;&gt;9 -->
<g id="edge9" class="edge">
<title>0&#45;&gt;9</title>
<path fill="none" stroke="black" d="M1983.85,-103.36C1781.26,-100.69 1041.06,-89.59 938,-69 904.67,-62.34 868.94,-46.77 844.62,-34.76"/>
<polygon fill="black" stroke="black" points="846.08,-31.57 835.57,-30.19 842.93,-37.82 846.08,-31.57"/>
<text text-anchor="middle" x="951.5" y="-57.8" font-family="Times,serif" font-size="14.00">dep</text>
</g>
<!-- 10 -->
<g id="node11" class="node">
<title>10</title>
<ellipse fill="none" stroke="black" cx="887" cy="-18" rx="27" ry="18"/>
<text text-anchor="middle" x="887" y="-14.3" font-family="Times,serif" font-size="14.00">a</text>
</g>
<!-- 0&#45;&gt;10 -->
<g id="edge10" class="edge">
<title>0&#45;&gt;10</title>
<path fill="none" stroke="black" d="M1983.7,-104.08C1805.34,-104.07 1212.93,-101.54 1026,-69 978.64,-60.76 967.72,-53.63 923,-36 921.17,-35.28 919.3,-34.5 917.42,-33.7"/>
<polygon fill="black" stroke="black" points="918.67,-30.43 908.12,-29.54 915.81,-36.82 918.67,-30.43"/>
<text text-anchor="middle" x="1039.5" y="-57.8" font-family="Times,serif" font-size="14.00">dep</text>
</g>
<!-- 11 -->
<g id="node12" class="node">
<title>11</title>
<ellipse fill="none" stroke="black" cx="978" cy="-18" rx="46.29" ry="18"/>
<text text-anchor="middle" x="978" y="-14.3" font-family="Times,serif" font-size="14.00">inflação</text>
</g>
<!-- 0&#45;&gt;11 -->
<g id="edge11" class="edge">
<title>0&#45;&gt;11</title>
<path fill="none" stroke="black" d="M1983.69,-104.29C1814.67,-104.92 1276.54,-104.03 1107,-69 1074.67,-62.32 1039.87,-48.4 1014.57,-36.94"/>
<polygon fill="black" stroke="black" points="1015.92,-33.71 1005.37,-32.69 1012.98,-40.06 1015.92,-33.71"/>
<text text-anchor="middle" x="1120.5" y="-57.8" font-family="Times,serif" font-size="14.00">dep</text>
</g>
<!-- 12 -->
<g id="node13" class="node">
<title>12</title>
<ellipse fill="none" stroke="black" cx="1069" cy="-18" rx="27" ry="18"/>
<text text-anchor="middle" x="1069" y="-14.3" font-family="Times,serif" font-size="14.00">de</text>
</g>
<!-- 0&#45;&gt;12 -->
<g id="edge12" class="edge">
<title>0&#45;&gt;12</title>
<path fill="none" stroke="black" d="M1983.42,-104.29C1823.36,-104.82 1336.66,-103.47 1183,-69 1152.55,-62.17 1120.19,-47.14 1097.76,-35.33"/>
<polygon fill="black" stroke="black" points="1099.25,-32.16 1088.78,-30.5 1095.93,-38.33 1099.25,-32.16"/>
<text text-anchor="middle" x="1196.5" y="-57.8" font-family="Times,serif" font-size="14.00">dep</text>
</g>
<!-- 13 -->
<g id="node14" class="node">
<title>13</title>
<ellipse fill="none" stroke="black" cx="1141" cy="-18" rx="27" ry="18"/>
<text text-anchor="middle" x="1141" y="-14.3" font-family="Times,serif" font-size="14.00">o</text>
</g>
<!-- 0&#45;&gt;13 -->
<g id="edge13" class="edge">
<title>0&#45;&gt;13</title>
<path fill="none" stroke="black" d="M1983.73,-103.87C1834.06,-103.15 1399.55,-98.5 1261,-69 1228.6,-62.1 1193.9,-46.68 1170.2,-34.77"/>
<polygon fill="black" stroke="black" points="1171.55,-31.53 1161.06,-30.08 1168.36,-37.76 1171.55,-31.53"/>
<text text-anchor="middle" x="1274.5" y="-57.8" font-family="Times,serif" font-size="14.00">dep</text>
</g>
<!-- 14 -->
<g id="node15" class="node">
<title>14</title>
<ellipse fill="none" stroke="black" cx="1215" cy="-18" rx="28.7" ry="18"/>
<text text-anchor="middle" x="1215" y="-14.3" font-family="Times,serif" font-size="14.00">real</text>
</g>
<!-- 0&#45;&gt;14 -->
<g id="edge14" class="edge">
<title>0&#45;&gt;14</title>
<path fill="none" stroke="black" d="M1983.66,-103.46C1844.76,-101.66 1463.77,-94.47 1341,-69 1307.23,-61.99 1270.83,-46.62 1245.88,-34.76"/>
<polygon fill="black" stroke="black" points="1247.11,-31.47 1236.59,-30.25 1244.06,-37.77 1247.11,-31.47"/>
<text text-anchor="middle" x="1354.5" y="-57.8" font-family="Times,serif" font-size="14.00">dep</text>
</g>
<!-- 15 -->
<g id="node16" class="node">
<title>15</title>
<ellipse fill="none" stroke="black" cx="1289" cy="-18" rx="27.1" ry="18"/>
<text text-anchor="middle" x="1289" y="-14.3" font-family="Times,serif" font-size="14.00">não</text>
</g>
<!-- 0&#45;&gt;15 -->
<g id="edge15" class="edge">
<title>0&#45;&gt;15</title>
<path fill="none" stroke="black" d="M1983.9,-102.76C1857.43,-99.42 1532.41,-89.09 1426,-69 1379.6,-60.24 1368.88,-53.45 1325,-36 1323.17,-35.27 1321.3,-34.5 1319.42,-33.69"/>
<polygon fill="black" stroke="black" points="1320.68,-30.42 1310.13,-29.52 1317.82,-36.8 1320.68,-30.42"/>
<text text-anchor="middle" x="1439.5" y="-57.8" font-family="Times,serif" font-size="14.00">dep</text>
</g>
<!-- 16 -->
<g id="node17" class="node">
<title>16</title>
<ellipse fill="none" stroke="black" cx="1365" cy="-18" rx="30.59" ry="18"/>
<text text-anchor="middle" x="1365" y="-14.3" font-family="Times,serif" font-size="14.00">será</text>
</g>
<!-- 0&#45;&gt;16 -->
<g id="edge16" class="edge">
<title>0&#45;&gt;16</title>
<path fill="none" stroke="black" d="M1983.45,-104.23C1889.8,-103.84 1685.8,-99.19 1517,-69 1465.92,-59.86 1453.85,-53.51 1405,-36 1402.64,-35.15 1400.22,-34.24 1397.79,-33.29"/>
<polygon fill="black" stroke="black" points="1399.09,-30.04 1388.51,-29.52 1396.46,-36.53 1399.09,-30.04"/>
<text text-anchor="middle" x="1530.5" y="-57.8" font-family="Times,serif" font-size="14.00">dep</text>
</g>
<!-- 17 -->
<g id="node18" class="node">
<title>17</title>
<ellipse fill="none" stroke="black" cx="1458" cy="-18" rx="44.39" ry="18"/>
<text text-anchor="middle" x="1458" y="-14.3" font-family="Times,serif" font-size="14.00">puxada</text>
</g>
<!-- 0&#45;&gt;17 -->
<g id="edge17" class="edge">
<title>0&#45;&gt;17</title>
<path fill="none" stroke="black" d="M1983.7,-104.18C1901.55,-103.51 1735.83,-98.23 1599,-69 1563.21,-61.36 1524.11,-46.98 1496.18,-35.6"/>
<polygon fill="black" stroke="black" points="1497.37,-32.3 1486.79,-31.72 1494.69,-38.77 1497.37,-32.3"/>
<text text-anchor="middle" x="1612.5" y="-57.8" font-family="Times,serif" font-size="14.00">dep</text>
</g>
<!-- 18 -->
<g id="node19" class="node">
<title>18</title>
<ellipse fill="none" stroke="black" cx="1547" cy="-18" rx="27" ry="18"/>
<text text-anchor="middle" x="1547" y="-14.3" font-family="Times,serif" font-size="14.00">por</text>
</g>
<!-- 0&#45;&gt;18 -->
<g id="edge18" class="edge">
<title>0&#45;&gt;18</title>
<path fill="none" stroke="black" d="M1984.06,-102.31C1915.46,-99.25 1789.9,-90.95 1685,-69 1638.36,-59.24 1627.3,-53.54 1583,-36 1581.17,-35.27 1579.3,-34.5 1577.42,-33.7"/>
<polygon fill="black" stroke="black" points="1578.68,-30.42 1568.12,-29.53 1575.81,-36.81 1578.68,-30.42"/>
<text text-anchor="middle" x="1698.5" y="-57.8" font-family="Times,serif" font-size="14.00">dep</text>
</g>
<!-- 19 -->
<g id="node20" class="node">
<title>19</title>
<ellipse fill="none" stroke="black" cx="1619" cy="-18" rx="27" ry="18"/>
<text text-anchor="middle" x="1619" y="-14.3" font-family="Times,serif" font-size="14.00">os</text>
</g>
<!-- 0&#45;&gt;19 -->
<g id="edge19" class="edge">
<title>0&#45;&gt;19</title>
<path fill="none" stroke="black" d="M1985.51,-100.01C1911.8,-93 1769.59,-75.29 1655,-36 1653.09,-35.34 1651.14,-34.62 1649.2,-33.84"/>
<polygon fill="black" stroke="black" points="1650.18,-30.45 1639.61,-29.69 1647.4,-36.88 1650.18,-30.45"/>
<text text-anchor="middle" x="1781.5" y="-57.8" font-family="Times,serif" font-size="14.00">dep</text>
</g>
<!-- 20 -->
<g id="node21" class="node">
<title>20</title>
<ellipse fill="none" stroke="black" cx="1724" cy="-18" rx="60.39" ry="18"/>
<text text-anchor="middle" x="1724" y="-14.3" font-family="Times,serif" font-size="14.00">oligopólios</text>
</g>
<!-- 0&#45;&gt;20 -->
<g id="edge20" class="edge">
<title>0&#45;&gt;20</title>
<path fill="none" stroke="black" d="M1991.61,-95.17C1960.62,-88.61 1918.04,-79.09 1881,-69 1844.02,-58.93 1802.73,-45.7 1771.79,-35.38"/>
<polygon fill="black" stroke="black" points="1772.71,-32 1762.12,-32.14 1770.49,-38.64 1772.71,-32"/>
<text text-anchor="middle" x="1894.5" y="-57.8" font-family="Times,serif" font-size="14.00">dep</text>
</g>
<!-- 21 -->
<g id="node22" class="node">
<title>21</title>
<ellipse fill="none" stroke="black" cx="1829" cy="-18" rx="27" ry="18"/>
<text text-anchor="middle" x="1829" y="-14.3" font-family="Times,serif" font-size="14.00">,</text>
</g>
<!-- 0&#45;&gt;21 -->
<g id="edge21" class="edge">
<title>0&#45;&gt;21</title>
<path fill="none" stroke="black" d="M2001.52,-91.32C1967.05,-78.1 1911.9,-56.49 1865,-36 1863.19,-35.21 1861.35,-34.39 1859.48,-33.55"/>
<polygon fill="black" stroke="black" points="1860.77,-30.29 1850.23,-29.28 1857.84,-36.64 1860.77,-30.29"/>
<text text-anchor="middle" x="1957.5" y="-57.8" font-family="Times,serif" font-size="14.00">dep</text>
</g>
<!-- 22 -->
<g id="node23" class="node">
<title>22</title>
<ellipse fill="none" stroke="black" cx="1932" cy="-18" rx="58.49" ry="18"/>
<text text-anchor="middle" x="1932" y="-14.3" font-family="Times,serif" font-size="14.00">apontados</text>
</g>
<!-- 0&#45;&gt;22 -->
<g id="edge22" class="edge">
<title>0&#45;&gt;22</title>
<path fill="none" stroke="black" d="M2015.63,-88.01C1999.76,-74.92 1977.12,-56.23 1959.39,-41.6"/>
<polygon fill="black" stroke="black" points="1961.58,-38.87 1951.64,-35.21 1957.12,-44.27 1961.58,-38.87"/>
<text text-anchor="middle" x="2003.5" y="-57.8" font-family="Times,serif" font-size="14.00">dep</text>
</g>
<!-- 23 -->
<g id="node24" class="node">
<title>23</title>
<ellipse fill="none" stroke="black" cx="2035" cy="-18" rx="27" ry="18"/>
<text text-anchor="middle" x="2035" y="-14.3" font-family="Times,serif" font-size="14.00">por</text>
</g>
<!-- 0&#45;&gt;23 -->
<g id="edge23" class="edge">
<title>0&#45;&gt;23</title>
<path fill="none" stroke="black" d="M2035,-86.8C2035,-75.16 2035,-59.55 2035,-46.24"/>
<polygon fill="black" stroke="black" points="2038.5,-46.18 2035,-36.18 2031.5,-46.18 2038.5,-46.18"/>
<text text-anchor="middle" x="2048.5" y="-57.8" font-family="Times,serif" font-size="14.00">dep</text>
</g>
<!-- 24 -->
<g id="node25" class="node">
<title>24</title>
<ellipse fill="none" stroke="black" cx="2107" cy="-18" rx="27" ry="18"/>
<text text-anchor="middle" x="2107" y="-14.3" font-family="Times,serif" font-size="14.00">a</text>
</g>
<!-- 0&#45;&gt;24 -->
<g id="edge24" class="edge">
<title>0&#45;&gt;24</title>
<path fill="none" stroke="black" d="M2049.64,-87.73C2054.85,-81.87 2060.73,-75.18 2066,-69 2073.32,-60.41 2081.21,-50.86 2088.1,-42.43"/>
<polygon fill="black" stroke="black" points="2091,-44.41 2094.59,-34.44 2085.56,-39.99 2091,-44.41"/>
<text text-anchor="middle" x="2092.5" y="-57.8" font-family="Times,serif" font-size="14.00">dep</text>
</g>
<!-- 25 -->
<g id="node26" class="node">
<title>25</title>
<ellipse fill="none" stroke="black" cx="2194" cy="-18" rx="42.49" ry="18"/>
<text text-anchor="middle" x="2194" y="-14.3" font-family="Times,serif" font-size="14.00">equipe</text>
</g>
<!-- 0&#45;&gt;25 -->
<g id="edge25" class="edge">
<title>0&#45;&gt;25</title>
<path fill="none" stroke="black" d="M2065.63,-90.55C2079.35,-84.3 2095.65,-76.6 2110,-69 2127.68,-59.64 2146.89,-48.3 2162.47,-38.79"/>
<polygon fill="black" stroke="black" points="2164.5,-41.65 2171.18,-33.43 2160.83,-35.69 2164.5,-41.65"/>
<text text-anchor="middle" x="2149.5" y="-57.8" font-family="Times,serif" font-size="14.00">dep</text>
</g>
<!-- 26 -->
<g id="node27" class="node">
<title>26</title>
<ellipse fill="none" stroke="black" cx="2314" cy="-18" rx="59.59" ry="18"/>
<text text-anchor="middle" x="2314" y="-14.3" font-family="Times,serif" font-size="14.00">econômica</text>
</g>
<!-- 0&#45;&gt;26 -->
<g id="edge26" class="edge">
<title>0&#45;&gt;26</title>
<path fill="none" stroke="black" d="M2075.64,-93.99C2101.85,-87.35 2136.59,-78.19 2167,-69 2200.93,-58.74 2238.79,-45.83 2267.59,-35.7"/>
<polygon fill="black" stroke="black" points="2269.11,-38.87 2277.37,-32.24 2266.78,-32.27 2269.11,-38.87"/>
<text text-anchor="middle" x="2225.5" y="-57.8" font-family="Times,serif" font-size="14.00">dep</text>
</g>
<!-- 27 -->
<g id="node28" class="node">
<title>27</title>
<ellipse fill="none" stroke="black" cx="2419" cy="-18" rx="27" ry="18"/>
<text text-anchor="middle" x="2419" y="-14.3" font-family="Times,serif" font-size="14.00">de</text>
</g>
<!-- 0&#45;&gt;27 -->
<g id="edge27" class="edge">
<title>0&#45;&gt;27</title>
<path fill="none" stroke="black" d="M2083.43,-98.98C2151.72,-90.91 2279.56,-72.16 2383,-36 2384.91,-35.33 2386.85,-34.6 2388.79,-33.81"/>
<polygon fill="black" stroke="black" points="2390.6,-36.85 2398.37,-29.65 2387.8,-30.43 2390.6,-36.85"/>
<text text-anchor="middle" x="2332.5" y="-57.8" font-family="Times,serif" font-size="14.00">dep</text>
</g>
<!-- 28 -->
<g id="node29" class="node">
<title>28</title>
<ellipse fill="none" stroke="black" cx="2491" cy="-18" rx="27" ry="18"/>
<text text-anchor="middle" x="2491" y="-14.3" font-family="Times,serif" font-size="14.00">o</text>
</g>
<!-- 0&#45;&gt;28 -->
<g id="edge28" class="edge">
<title>0&#45;&gt;28</title>
<path fill="none" stroke="black" d="M2085.39,-101.42C2147.99,-97.52 2257.79,-88.42 2350,-69 2397.87,-58.92 2409.44,-53.82 2455,-36 2456.83,-35.28 2458.71,-34.51 2460.59,-33.71"/>
<polygon fill="black" stroke="black" points="2462.19,-36.83 2469.89,-29.56 2459.33,-30.44 2462.19,-36.83"/>
<text text-anchor="middle" x="2420.5" y="-57.8" font-family="Times,serif" font-size="14.00">dep</text>
</g>
<!-- 29 -->
<g id="node30" class="node">
<title>29</title>
<ellipse fill="none" stroke="black" cx="2584" cy="-18" rx="48.19" ry="18"/>
<text text-anchor="middle" x="2584" y="-14.3" font-family="Times,serif" font-size="14.00">governo</text>
</g>
<!-- 0&#45;&gt;29 -->
<g id="edge29" class="edge">
<title>0&#45;&gt;29</title>
<path fill="none" stroke="black" d="M2086.48,-103.52C2163.67,-101.9 2313.63,-95.29 2438,-69 2474.74,-61.23 2515.01,-46.99 2543.94,-35.68"/>
<polygon fill="black" stroke="black" points="2545.28,-38.91 2553.29,-31.97 2542.7,-32.4 2545.28,-38.91"/>
<text text-anchor="middle" x="2505.5" y="-57.8" font-family="Times,serif" font-size="14.00">dep</text>
</g>
<!-- 30 -->
<g id="node31" class="node">
<title>30</title>
<ellipse fill="none" stroke="black" cx="2685" cy="-18" rx="35.19" ry="18"/>
<text text-anchor="middle" x="2685" y="-14.3" font-family="Times,serif" font-size="14.00">como</text>
</g>
<!-- 0&#45;&gt;30 -->
<g id="edge30" class="edge">
<title>0&#45;&gt;30</title>
<path fill="none" stroke="black" d="M2086.35,-103.7C2175.73,-102.42 2365.46,-96.39 2523,-69 2576.65,-59.67 2589.32,-53.17 2641,-36 2643.54,-35.16 2646.14,-34.25 2648.75,-33.32"/>
<polygon fill="black" stroke="black" points="2649.99,-36.59 2658.16,-29.84 2647.56,-30.03 2649.99,-36.59"/>
<text text-anchor="middle" x="2600.5" y="-57.8" font-family="Times,serif" font-size="14.00">dep</text>
</g>
<!-- 31 -->
<g id="node32" class="node">
<title>31</title>
<ellipse fill="none" stroke="black" cx="2765" cy="-18" rx="27" ry="18"/>
<text text-anchor="middle" x="2765" y="-14.3" font-family="Times,serif" font-size="14.00">os</text>
</g>
<!-- 0&#45;&gt;31 -->
<g id="edge31" class="edge">
<title>0&#45;&gt;31</title>
<path fill="none" stroke="black" d="M2086.54,-104.84C2188.75,-105.65 2424.03,-103.19 2618,-69 2668.69,-60.07 2680.92,-54.37 2729,-36 2730.84,-35.3 2732.72,-34.54 2734.6,-33.75"/>
<polygon fill="black" stroke="black" points="2736.19,-36.87 2743.91,-29.61 2733.35,-30.47 2736.19,-36.87"/>
<text text-anchor="middle" x="2694.5" y="-57.8" font-family="Times,serif" font-size="14.00">dep</text>
</g>
<!-- 32 -->
<g id="node33" class="node">
<title>32</title>
<ellipse fill="none" stroke="black" cx="2867" cy="-18" rx="56.59" ry="18"/>
<text text-anchor="middle" x="2867" y="-14.3" font-family="Times,serif" font-size="14.00">principais</text>
</g>
<!-- 0&#45;&gt;32 -->
<g id="edge32" class="edge">
<title>0&#45;&gt;32</title>
<path fill="none" stroke="black" d="M2086.25,-103.08C2222.61,-100.34 2592.05,-91.06 2712,-69 2750.77,-61.87 2793.28,-47.68 2823.96,-36.23"/>
<polygon fill="black" stroke="black" points="2825.37,-39.44 2833.49,-32.62 2822.89,-32.89 2825.37,-39.44"/>
<text text-anchor="middle" x="2782.5" y="-57.8" font-family="Times,serif" font-size="14.00">dep</text>
</g>
<!-- 33 -->
<g id="node34" class="node">
<title>33</title>
<ellipse fill="none" stroke="black" cx="2979" cy="-18" rx="37.89" ry="18"/>
<text text-anchor="middle" x="2979" y="-14.3" font-family="Times,serif" font-size="14.00">vilões</text>
</g>
<!-- 0&#45;&gt;33 -->
<g id="edge33" class="edge">
<title>0&#45;&gt;33</title>
<path fill="none" stroke="black" d="M2086.05,-102.98C2234.05,-99.81 2661.61,-89.13 2800,-69 2860.27,-60.23 2874.79,-53.92 2933,-36 2935.58,-35.21 2938.23,-34.35 2940.89,-33.45"/>
<polygon fill="black" stroke="black" points="2942.17,-36.71 2950.46,-30.11 2939.86,-30.1 2942.17,-36.71"/>
<text text-anchor="middle" x="2887.5" y="-57.8" font-family="Times,serif" font-size="14.00">dep</text>
</g>
<!-- 34 -->
<g id="node35" class="node">
<title>34</title>
<ellipse fill="none" stroke="black" cx="3062" cy="-18" rx="27" ry="18"/>
<text text-anchor="middle" x="3062" y="-14.3" font-family="Times,serif" font-size="14.00">em</text>
</g>
<!-- 0&#45;&gt;34 -->
<g id="edge34" class="edge">
<title>0&#45;&gt;34</title>
<path fill="none" stroke="black" d="M2086.35,-103.46C2248.1,-101.5 2745.71,-93.6 2905,-69 2960.09,-60.49 2973.71,-55.31 3026,-36 3027.85,-35.32 3029.73,-34.58 3031.62,-33.8"/>
<polygon fill="black" stroke="black" points="3033.2,-36.93 3040.94,-29.7 3030.38,-30.52 3033.2,-36.93"/>
<text text-anchor="middle" x="2988.5" y="-57.8" font-family="Times,serif" font-size="14.00">dep</text>
</g>
<!-- 35 -->
<g id="node36" class="node">
<title>35</title>
<ellipse fill="none" stroke="black" cx="3134" cy="-18" rx="27" ry="18"/>
<text text-anchor="middle" x="3134" y="-14.3" font-family="Times,serif" font-size="14.00">a</text>
</g>
<!-- 0&#45;&gt;35 -->
<g id="edge35" class="edge">
<title>0&#45;&gt;35</title>
<path fill="none" stroke="black" d="M2086.51,-104.23C2260.8,-104.68 2827.42,-103.39 3006,-69 3041.11,-62.24 3078.97,-46.26 3104.34,-34.17"/>
<polygon fill="black" stroke="black" points="3105.95,-37.28 3113.42,-29.76 3102.89,-30.98 3105.95,-37.28"/>
<text text-anchor="middle" x="3070.5" y="-57.8" font-family="Times,serif" font-size="14.00">dep</text>
</g>
<!-- 36 -->
<g id="node37" class="node">
<title>36</title>
<ellipse fill="none" stroke="black" cx="3221" cy="-18" rx="41.69" ry="18"/>
<text text-anchor="middle" x="3221" y="-14.3" font-family="Times,serif" font-size="14.00">subida</text>
</g>
<!-- 0&#45;&gt;36 -->
<g id="edge36" class="edge">
<title>0&#45;&gt;36</title>
<path fill="none" stroke="black" d="M2086.43,-103.27C2284.19,-100.34 2989.44,-88.61 3088,-69 3122.05,-62.23 3158.85,-47.79 3185.09,-36.16"/>
<polygon fill="black" stroke="black" points="3186.58,-39.33 3194.26,-32.03 3183.7,-32.95 3186.58,-39.33"/>
<text text-anchor="middle" x="3154.5" y="-57.8" font-family="Times,serif" font-size="14.00">dep</text>
</g>
<!-- 37 -->
<g id="node38" class="node">
<title>37</title>
<ellipse fill="none" stroke="black" cx="3308" cy="-18" rx="27" ry="18"/>
<text text-anchor="middle" x="3308" y="-14.3" font-family="Times,serif" font-size="14.00">de</text>
</g>
<!-- 0&#45;&gt;37 -->
<g id="edge37" class="edge">
<title>0&#45;&gt;37</title>
<path fill="none" stroke="black" d="M2086.37,-104.38C2279.13,-105.48 2959.16,-106.58 3172,-69 3209.73,-62.34 3250.7,-45.91 3277.7,-33.69"/>
<polygon fill="black" stroke="black" points="3279.37,-36.77 3286.99,-29.4 3276.44,-30.42 3279.37,-36.77"/>
<text text-anchor="middle" x="3239.5" y="-57.8" font-family="Times,serif" font-size="14.00">dep</text>
</g>
<!-- 38 -->
<g id="node39" class="node">
<title>38</title>
<ellipse fill="none" stroke="black" cx="3395" cy="-18" rx="41.69" ry="18"/>
<text text-anchor="middle" x="3395" y="-14.3" font-family="Times,serif" font-size="14.00">preços</text>
</g>
<!-- 0&#45;&gt;38 -->
<g id="edge38" class="edge">
<title>0&#45;&gt;38</title>
<path fill="none" stroke="black" d="M2086.34,-103.49C2303.54,-101.22 3141.02,-91.08 3257,-69 3292.72,-62.2 3331.49,-47.45 3358.81,-35.72"/>
<polygon fill="black" stroke="black" points="3360.21,-38.93 3367.98,-31.72 3357.41,-32.51 3360.21,-38.93"/>
<text text-anchor="middle" x="3325.5" y="-57.8" font-family="Times,serif" font-size="14.00">dep</text>
</g>
<!-- 39 -->
<g id="node40" class="node">
<title>39</title>
<ellipse fill="none" stroke="black" cx="3487" cy="-18" rx="32.49" ry="18"/>
<text text-anchor="middle" x="3487" y="-14.3" font-family="Times,serif" font-size="14.00">após</text>
</g>
<!-- 0&#45;&gt;39 -->
<g id="edge39" class="edge">
<title>0&#45;&gt;39</title>
<path fill="none" stroke="black" d="M2086.46,-103.48C2313.25,-101.09 3217.8,-90.29 3343,-69 3382.09,-62.35 3424.75,-46.36 3453.41,-34.24"/>
<polygon fill="black" stroke="black" points="3455.14,-37.3 3462.94,-30.13 3452.37,-30.87 3455.14,-37.3"/>
<text text-anchor="middle" x="3413.5" y="-57.8" font-family="Times,serif" font-size="14.00">dep</text>
</g>
<!-- 40 -->
<g id="node41" class="node">
<title>40</title>
<ellipse fill="none" stroke="black" cx="3564" cy="-18" rx="27" ry="18"/>
<text text-anchor="middle" x="3564" y="-14.3" font-family="Times,serif" font-size="14.00">a</text>
</g>
<!-- 0&#45;&gt;40 -->
<g id="edge40" class="edge">
<title>0&#45;&gt;40</title>
<path fill="none" stroke="black" d="M2086.33,-103.63C2322.28,-101.82 3296.9,-92.92 3431,-69 3467.77,-62.44 3507.57,-46.15 3533.95,-33.94"/>
<polygon fill="black" stroke="black" points="3535.49,-37.08 3543.03,-29.64 3532.5,-30.75 3535.49,-37.08"/>
<text text-anchor="middle" x="3497.5" y="-57.8" font-family="Times,serif" font-size="14.00">dep</text>
</g>
<!-- 41 -->
<g id="node42" class="node">
<title>41</title>
<ellipse fill="none" stroke="black" cx="3677" cy="-18" rx="67.69" ry="18"/>
<text text-anchor="middle" x="3677" y="-14.3" font-family="Times,serif" font-size="14.00">implantação</text>
</g>
<!-- 0&#45;&gt;41 -->
<g id="edge41" class="edge">
<title>0&#45;&gt;41</title>
<path fill="none" stroke="black" d="M2086.52,-103.62C2331.42,-101.72 3371.91,-92.31 3515,-69 3555.28,-62.44 3599.45,-48.32 3631.48,-36.75"/>
<polygon fill="black" stroke="black" points="3632.83,-39.98 3641.01,-33.25 3630.42,-33.41 3632.83,-39.98"/>
<text text-anchor="middle" x="3592.5" y="-57.8" font-family="Times,serif" font-size="14.00">dep</text>
</g>
<!-- 42 -->
<g id="node43" class="node">
<title>42</title>
<ellipse fill="none" stroke="black" cx="3790" cy="-18" rx="27" ry="18"/>
<text text-anchor="middle" x="3790" y="-14.3" font-family="Times,serif" font-size="14.00">de</text>
</g>
<!-- 0&#45;&gt;42 -->
<g id="edge42" class="edge">
<title>0&#45;&gt;42</title>
<path fill="none" stroke="black" d="M2086.44,-104.26C2322.68,-105.24 3305.17,-106.92 3610,-69 3675.16,-60.9 3691.95,-57.48 3754,-36 3755.91,-35.34 3757.85,-34.61 3759.8,-33.83"/>
<polygon fill="black" stroke="black" points="3761.6,-36.86 3769.38,-29.67 3758.81,-30.44 3761.6,-36.86"/>
<text text-anchor="middle" x="3709.5" y="-57.8" font-family="Times,serif" font-size="14.00">dep</text>
</g>
<!-- 43 -->
<g id="node44" class="node">
<title>43</title>
<ellipse fill="none" stroke="black" cx="3862" cy="-18" rx="27" ry="18"/>
<text text-anchor="middle" x="3862" y="-14.3" font-family="Times,serif" font-size="14.00">a</text>
</g>
<!-- 0&#45;&gt;43 -->
<g id="edge43" class="edge">
<title>0&#45;&gt;43</title>
<path fill="none" stroke="black" d="M2086.24,-103.86C2351.44,-102.99 3562.16,-97.5 3727,-69 3764.51,-62.51 3805.17,-46.05 3831.95,-33.77"/>
<polygon fill="black" stroke="black" points="3833.59,-36.87 3841.16,-29.47 3830.62,-30.53 3833.59,-36.87"/>
<text text-anchor="middle" x="3794.5" y="-57.8" font-family="Times,serif" font-size="14.00">dep</text>
</g>
<!-- 44 -->
<g id="node45" class="node">
<title>44</title>
<ellipse fill="none" stroke="black" cx="3938" cy="-18" rx="31.4" ry="18"/>
<text text-anchor="middle" x="3938" y="-14.3" font-family="Times,serif" font-size="14.00">URV</text>
</g>
<!-- 0&#45;&gt;44 -->
<g id="edge44" class="edge">
<title>0&#45;&gt;44</title>
<path fill="none" stroke="black" d="M2086.57,-104.05C2360.5,-104.15 3639.1,-102.8 3812,-69 3845.44,-62.46 3881.36,-47.33 3906.25,-35.41"/>
<polygon fill="black" stroke="black" points="3908.11,-38.4 3915.55,-30.86 3905.03,-32.11 3908.11,-38.4"/>
<text text-anchor="middle" x="3875.5" y="-57.8" font-family="Times,serif" font-size="14.00">dep</text>
</g>
<!-- 45 -->
<g id="node46" class="node">
<title>45</title>
<ellipse fill="none" stroke="black" cx="4014" cy="-18" rx="27" ry="18"/>
<text text-anchor="middle" x="4014" y="-14.3" font-family="Times,serif" font-size="14.00">.</text>
</g>
<!-- 0&#45;&gt;45 -->
<g id="edge45" class="edge">
<title>0&#45;&gt;45</title>
<path fill="none" stroke="black" d="M2086.6,-104.11C2368.03,-104.54 3711.78,-104.71 3893,-69 3925.88,-62.52 3961.02,-46.92 3984.91,-34.86"/>
<polygon fill="black" stroke="black" points="3986.52,-37.96 3993.8,-30.27 3983.31,-31.74 3986.52,-37.96"/>
<text text-anchor="middle" x="3955.5" y="-57.8" font-family="Times,serif" font-size="14.00">dep</text>
</g>
</g>
</svg>
