<?xml version="1.0" encoding="UTF-8" standalone="no"?>
<!DOCTYPE svg PUBLIC "-//W3C//DTD SVG 1.1//EN"
 "http://www.w3.org/Graphics/SVG/1.1/DTD/svg11.dtd">
<!-- Generated by graphviz version 2.42.4 (0)
 -->
<!-- Pages: 1 -->
<svg width="1090pt" height="131pt"
 viewBox="0.00 0.00 1090.25 131.00" xmlns="http://www.w3.org/2000/svg" xmlns:xlink="http://www.w3.org/1999/xlink">
<g id="graph0" class="graph" transform="scale(1 1) rotate(0) translate(4 127)">
<polygon fill="white" stroke="transparent" points="-4,4 -4,-127 1086.25,-127 1086.25,4 -4,4"/>
<!-- 0 -->
<g id="node1" class="node">
<title>0</title>
<ellipse fill="none" stroke="black" cx="583.25" cy="-105" rx="27" ry="18"/>
<text text-anchor="middle" x="583.25" y="-101.3" font-family="Times,serif" font-size="14.00">A</text>
</g>
<!-- 1 -->
<g id="node2" class="node">
<title>1</title>
<ellipse fill="none" stroke="black" cx="42.25" cy="-18" rx="42.49" ry="18"/>
<text text-anchor="middle" x="42.25" y="-14.3" font-family="Times,serif" font-size="14.00">guerra</text>
</g>
<!-- 0&#45;&gt;1 -->
<g id="edge1" class="edge">
<title>0&#45;&gt;1</title>
<path fill="none" stroke="black" d="M556.19,-103.39C493.43,-101.57 333.29,-94.58 202.25,-69 160.31,-60.81 113.85,-45.57 81.85,-34.06"/>
<polygon fill="black" stroke="black" points="83,-30.75 72.4,-30.62 80.6,-37.33 83,-30.75"/>
<text text-anchor="middle" x="215.75" y="-57.8" font-family="Times,serif" font-size="14.00">dep</text>
</g>
<!-- 2 -->
<g id="node3" class="node">
<title>2</title>
<ellipse fill="none" stroke="black" cx="138.25" cy="-18" rx="36" ry="18"/>
<text text-anchor="middle" x="138.25" y="-14.3" font-family="Times,serif" font-size="14.00">entre</text>
</g>
<!-- 0&#45;&gt;2 -->
<g id="edge2" class="edge">
<title>0&#45;&gt;2</title>
<path fill="none" stroke="black" d="M556.34,-102.57C503.87,-99.4 384.43,-90.3 286.25,-69 247.19,-60.53 204.07,-45.24 174.49,-33.8"/>
<polygon fill="black" stroke="black" points="175.6,-30.47 165.01,-30.08 173.04,-36.99 175.6,-30.47"/>
<text text-anchor="middle" x="299.75" y="-57.8" font-family="Times,serif" font-size="14.00">dep</text>
</g>
<!-- 3 -->
<g id="node4" class="node">
<title>3</title>
<ellipse fill="none" stroke="black" cx="219.25" cy="-18" rx="27" ry="18"/>
<text text-anchor="middle" x="219.25" y="-14.3" font-family="Times,serif" font-size="14.00">os</text>
</g>
<!-- 0&#45;&gt;3 -->
<g id="edge3" class="edge">
<title>0&#45;&gt;3</title>
<path fill="none" stroke="black" d="M556.64,-101.01C499.92,-94.09 363.44,-74.54 255.25,-36 253.34,-35.32 251.4,-34.58 249.46,-33.79"/>
<polygon fill="black" stroke="black" points="250.46,-30.4 239.89,-29.6 247.65,-36.82 250.46,-30.4"/>
<text text-anchor="middle" x="383.75" y="-57.8" font-family="Times,serif" font-size="14.00">dep</text>
</g>
<!-- 4 -->
<g id="node5" class="node">
<title>4</title>
<ellipse fill="none" stroke="black" cx="306.25" cy="-18" rx="42.49" ry="18"/>
<text text-anchor="middle" x="306.25" y="-14.3" font-family="Times,serif" font-size="14.00">jornais</text>
</g>
<!-- 0&#45;&gt;4 -->
<g id="edge4" class="edge">
<title>0&#45;&gt;4</title>
<path fill="none" stroke="black" d="M558.76,-96.89C517.21,-84.77 430.28,-59.16 357.25,-36 354.18,-35.03 351.01,-34.01 347.82,-32.97"/>
<polygon fill="black" stroke="black" points="348.89,-29.64 338.3,-29.85 346.71,-36.29 348.89,-29.64"/>
<text text-anchor="middle" x="476.75" y="-57.8" font-family="Times,serif" font-size="14.00">dep</text>
</g>
<!-- 5 -->
<g id="node6" class="node">
<title>5</title>
<ellipse fill="none" stroke="black" cx="431.25" cy="-18" rx="64.99" ry="18"/>
<text text-anchor="middle" x="431.25" y="-14.3" font-family="Times,serif" font-size="14.00">desportivos</text>
</g>
<!-- 0&#45;&gt;5 -->
<g id="edge5" class="edge">
<title>0&#45;&gt;5</title>
<path fill="none" stroke="black" d="M563.06,-92.71C538.76,-79.13 497.5,-56.05 467.61,-39.33"/>
<polygon fill="black" stroke="black" points="469.16,-36.19 458.73,-34.37 465.75,-42.3 469.16,-36.19"/>
<text text-anchor="middle" x="530.75" y="-57.8" font-family="Times,serif" font-size="14.00">dep</text>
</g>
<!-- 6 -->
<g id="node7" class="node">
<title>6</title>
<ellipse fill="none" stroke="black" cx="545.25" cy="-18" rx="30.59" ry="18"/>
<text text-anchor="middle" x="545.25" y="-14.3" font-family="Times,serif" font-size="14.00">está</text>
</g>
<!-- 0&#45;&gt;6 -->
<g id="edge6" class="edge">
<title>0&#45;&gt;6</title>
<path fill="none" stroke="black" d="M575.92,-87.61C570.54,-75.58 563.12,-58.98 556.93,-45.13"/>
<polygon fill="black" stroke="black" points="559.96,-43.33 552.68,-35.63 553.57,-46.19 559.96,-43.33"/>
<text text-anchor="middle" x="580.75" y="-57.8" font-family="Times,serif" font-size="14.00">dep</text>
</g>
<!-- 7 -->
<g id="node8" class="node">
<title>7</title>
<ellipse fill="none" stroke="black" cx="621.25" cy="-18" rx="27" ry="18"/>
<text text-anchor="middle" x="621.25" y="-14.3" font-family="Times,serif" font-size="14.00">em</text>
</g>
<!-- 0&#45;&gt;7 -->
<g id="edge7" class="edge">
<title>0&#45;&gt;7</title>
<path fill="none" stroke="black" d="M590.57,-87.61C595.99,-75.5 603.47,-58.77 609.69,-44.86"/>
<polygon fill="black" stroke="black" points="613.06,-45.9 613.94,-35.34 606.67,-43.04 613.06,-45.9"/>
<text text-anchor="middle" x="618.75" y="-57.8" font-family="Times,serif" font-size="14.00">dep</text>
</g>
<!-- 8 -->
<g id="node9" class="node">
<title>8</title>
<ellipse fill="none" stroke="black" cx="693.25" cy="-18" rx="27" ry="18"/>
<text text-anchor="middle" x="693.25" y="-14.3" font-family="Times,serif" font-size="14.00">o</text>
</g>
<!-- 0&#45;&gt;8 -->
<g id="edge8" class="edge">
<title>0&#45;&gt;8</title>
<path fill="none" stroke="black" d="M602.82,-91.98C613.01,-85.49 625.55,-77.16 636.25,-69 647.97,-60.05 660.35,-49.36 670.57,-40.16"/>
<polygon fill="black" stroke="black" points="673.21,-42.49 678.24,-33.17 668.49,-37.32 673.21,-42.49"/>
<text text-anchor="middle" x="667.75" y="-57.8" font-family="Times,serif" font-size="14.00">dep</text>
</g>
<!-- 9 -->
<g id="node10" class="node">
<title>9</title>
<ellipse fill="none" stroke="black" cx="775.25" cy="-18" rx="37.09" ry="18"/>
<text text-anchor="middle" x="775.25" y="-14.3" font-family="Times,serif" font-size="14.00">ponto</text>
</g>
<!-- 0&#45;&gt;9 -->
<g id="edge9" class="edge">
<title>0&#45;&gt;9</title>
<path fill="none" stroke="black" d="M607.61,-96.97C628.57,-90.61 659.42,-80.5 685.25,-69 705.5,-59.98 727.25,-47.97 744.3,-37.97"/>
<polygon fill="black" stroke="black" points="746.44,-40.78 753.25,-32.66 742.86,-34.76 746.44,-40.78"/>
<text text-anchor="middle" x="729.75" y="-57.8" font-family="Times,serif" font-size="14.00">dep</text>
</g>
<!-- 10 -->
<g id="node11" class="node">
<title>10</title>
<ellipse fill="none" stroke="black" cx="857.25" cy="-18" rx="27" ry="18"/>
<text text-anchor="middle" x="857.25" y="-14.3" font-family="Times,serif" font-size="14.00">de</text>
</g>
<!-- 0&#45;&gt;10 -->
<g id="edge10" class="edge">
<title>0&#45;&gt;10</title>
<path fill="none" stroke="black" d="M609.54,-100.13C642.3,-94.92 699.77,-84.46 747.25,-69 781.49,-57.85 788.52,-51.02 821.25,-36 823.04,-35.18 824.87,-34.33 826.73,-33.47"/>
<polygon fill="black" stroke="black" points="828.39,-36.55 835.96,-29.14 825.42,-30.21 828.39,-36.55"/>
<text text-anchor="middle" x="797.75" y="-57.8" font-family="Times,serif" font-size="14.00">dep</text>
</g>
<!-- 11 -->
<g id="node12" class="node">
<title>11</title>
<ellipse fill="none" stroke="black" cx="956.25" cy="-18" rx="53.89" ry="18"/>
<text text-anchor="middle" x="956.25" y="-14.3" font-family="Times,serif" font-size="14.00">rebuçado</text>
</g>
<!-- 0&#45;&gt;11 -->
<g id="edge11" class="edge">
<title>0&#45;&gt;11</title>
<path fill="none" stroke="black" d="M610.01,-101.64C653.54,-97.43 742.14,-87.3 815.25,-69 849.28,-60.48 886.65,-47.03 914.37,-36.23"/>
<polygon fill="black" stroke="black" points="915.73,-39.45 923.74,-32.53 913.16,-32.94 915.73,-39.45"/>
<text text-anchor="middle" x="876.75" y="-57.8" font-family="Times,serif" font-size="14.00">dep</text>
</g>
<!-- 12 -->
<g id="node13" class="node">
<title>12</title>
<ellipse fill="none" stroke="black" cx="1055.25" cy="-18" rx="27" ry="18"/>
<text text-anchor="middle" x="1055.25" y="-14.3" font-family="Times,serif" font-size="14.00">.</text>
</g>
<!-- 0&#45;&gt;12 -->
<g id="edge12" class="edge">
<title>0&#45;&gt;12</title>
<path fill="none" stroke="black" d="M610.07,-102.31C664.17,-98.6 790.1,-88.5 894.25,-69 950.72,-58.43 965.26,-55.68 1019.25,-36 1021.1,-35.33 1022.98,-34.59 1024.87,-33.82"/>
<polygon fill="black" stroke="black" points="1026.45,-36.95 1034.2,-29.73 1023.64,-30.54 1026.45,-36.95"/>
<text text-anchor="middle" x="977.75" y="-57.8" font-family="Times,serif" font-size="14.00">dep</text>
</g>
</g>
</svg>
