<?xml version="1.0" encoding="UTF-8" standalone="no"?>
<!DOCTYPE svg PUBLIC "-//W3C//DTD SVG 1.1//EN"
 "http://www.w3.org/Graphics/SVG/1.1/DTD/svg11.dtd">
<!-- Generated by graphviz version 2.42.4 (0)
 -->
<!-- Pages: 1 -->
<svg width="4033pt" height="131pt"
 viewBox="0.00 0.00 4033.00 131.00" xmlns="http://www.w3.org/2000/svg" xmlns:xlink="http://www.w3.org/1999/xlink">
<g id="graph0" class="graph" transform="scale(1 1) rotate(0) translate(4 127)">
<polygon fill="white" stroke="transparent" points="-4,4 -4,-127 4029,-127 4029,4 -4,4"/>
<!-- 0 -->
<g id="node1" class="node">
<title>0</title>
<ellipse fill="none" stroke="black" cx="2099" cy="-105" rx="48.99" ry="18"/>
<text text-anchor="middle" x="2099" y="-101.3" font-family="Times,serif" font-size="14.00">Durante</text>
</g>
<!-- 1 -->
<g id="node2" class="node">
<title>1</title>
<ellipse fill="none" stroke="black" cx="27" cy="-18" rx="27" ry="18"/>
<text text-anchor="middle" x="27" y="-14.3" font-family="Times,serif" font-size="14.00">o</text>
</g>
<!-- 0&#45;&gt;1 -->
<g id="edge1" class="edge">
<title>0&#45;&gt;1</title>
<path fill="none" stroke="black" d="M2050.29,-104.04C1768.13,-104.15 349.11,-103.02 158,-69 121.87,-62.57 82.87,-46.37 56.9,-34.15"/>
<polygon fill="black" stroke="black" points="58.15,-30.86 47.62,-29.68 55.12,-37.17 58.15,-30.86"/>
<text text-anchor="middle" x="171.5" y="-57.8" font-family="Times,serif" font-size="14.00">dep</text>
</g>
<!-- 2 -->
<g id="node3" class="node">
<title>2</title>
<ellipse fill="none" stroke="black" cx="112" cy="-18" rx="40.09" ry="18"/>
<text text-anchor="middle" x="112" y="-14.3" font-family="Times,serif" font-size="14.00">último</text>
</g>
<!-- 0&#45;&gt;2 -->
<g id="edge2" class="edge">
<title>0&#45;&gt;2</title>
<path fill="none" stroke="black" d="M2050.08,-104.12C1774.42,-104.63 420.92,-105.3 239,-69 206.44,-62.5 171.48,-48.14 146.5,-36.47"/>
<polygon fill="black" stroke="black" points="147.98,-33.3 137.44,-32.15 144.96,-39.61 147.98,-33.3"/>
<text text-anchor="middle" x="252.5" y="-57.8" font-family="Times,serif" font-size="14.00">dep</text>
</g>
<!-- 3 -->
<g id="node4" class="node">
<title>3</title>
<ellipse fill="none" stroke="black" cx="200" cy="-18" rx="29.8" ry="18"/>
<text text-anchor="middle" x="200" y="-14.3" font-family="Times,serif" font-size="14.00">mês</text>
</g>
<!-- 0&#45;&gt;3 -->
<g id="edge3" class="edge">
<title>0&#45;&gt;3</title>
<path fill="none" stroke="black" d="M2049.91,-104.16C1780.69,-104.88 489.37,-106.36 316,-69 285.29,-62.38 252.62,-47.51 229.81,-35.7"/>
<polygon fill="black" stroke="black" points="231.44,-32.61 220.97,-31.02 228.17,-38.79 231.44,-32.61"/>
<text text-anchor="middle" x="329.5" y="-57.8" font-family="Times,serif" font-size="14.00">dep</text>
</g>
<!-- 4 -->
<g id="node5" class="node">
<title>4</title>
<ellipse fill="none" stroke="black" cx="275" cy="-18" rx="27" ry="18"/>
<text text-anchor="middle" x="275" y="-14.3" font-family="Times,serif" font-size="14.00">de</text>
</g>
<!-- 0&#45;&gt;4 -->
<g id="edge4" class="edge">
<title>0&#45;&gt;4</title>
<path fill="none" stroke="black" d="M2049.91,-104.05C1787.78,-104.16 558.8,-102.88 393,-69 361.2,-62.5 327.32,-47.17 304.06,-35.18"/>
<polygon fill="black" stroke="black" points="305.56,-32.02 295.08,-30.45 302.29,-38.21 305.56,-32.02"/>
<text text-anchor="middle" x="406.5" y="-57.8" font-family="Times,serif" font-size="14.00">dep</text>
</g>
<!-- 5 -->
<g id="node6" class="node">
<title>5</title>
<ellipse fill="none" stroke="black" cx="347" cy="-18" rx="27" ry="18"/>
<text text-anchor="middle" x="347" y="-14.3" font-family="Times,serif" font-size="14.00">o</text>
</g>
<!-- 0&#45;&gt;5 -->
<g id="edge5" class="edge">
<title>0&#45;&gt;5</title>
<path fill="none" stroke="black" d="M2050.19,-103.89C1796.28,-103.22 632.02,-98.53 474,-69 439.09,-62.48 401.54,-46.46 376.39,-34.3"/>
<polygon fill="black" stroke="black" points="377.91,-31.14 367.39,-29.85 374.81,-37.42 377.91,-31.14"/>
<text text-anchor="middle" x="487.5" y="-57.8" font-family="Times,serif" font-size="14.00">dep</text>
</g>
<!-- 6 -->
<g id="node7" class="node">
<title>6</title>
<ellipse fill="none" stroke="black" cx="419" cy="-18" rx="27.1" ry="18"/>
<text text-anchor="middle" x="419" y="-14.3" font-family="Times,serif" font-size="14.00">ano</text>
</g>
<!-- 0&#45;&gt;6 -->
<g id="edge6" class="edge">
<title>0&#45;&gt;6</title>
<path fill="none" stroke="black" d="M2050.38,-103.61C1806.35,-101.58 720.82,-91.33 572,-69 518.57,-60.98 505.6,-54.93 455,-36 453.16,-35.31 451.27,-34.56 449.39,-33.78"/>
<polygon fill="black" stroke="black" points="450.63,-30.5 440.07,-29.66 447.8,-36.9 450.63,-30.5"/>
<text text-anchor="middle" x="585.5" y="-57.8" font-family="Times,serif" font-size="14.00">dep</text>
</g>
<!-- 7 -->
<g id="node8" class="node">
<title>7</title>
<ellipse fill="none" stroke="black" cx="512" cy="-18" rx="48.19" ry="18"/>
<text text-anchor="middle" x="512" y="-14.3" font-family="Times,serif" font-size="14.00">passado</text>
</g>
<!-- 0&#45;&gt;7 -->
<g id="edge7" class="edge">
<title>0&#45;&gt;7</title>
<path fill="none" stroke="black" d="M2050.11,-103.68C1814.29,-102 799.96,-93.43 661,-69 622.85,-62.29 581.2,-47.65 551.65,-35.93"/>
<polygon fill="black" stroke="black" points="552.7,-32.58 542.12,-32.09 550.09,-39.08 552.7,-32.58"/>
<text text-anchor="middle" x="674.5" y="-57.8" font-family="Times,serif" font-size="14.00">dep</text>
</g>
<!-- 8 -->
<g id="node9" class="node">
<title>8</title>
<ellipse fill="none" stroke="black" cx="605" cy="-18" rx="27" ry="18"/>
<text text-anchor="middle" x="605" y="-14.3" font-family="Times,serif" font-size="14.00">a</text>
</g>
<!-- 0&#45;&gt;8 -->
<g id="edge8" class="edge">
<title>0&#45;&gt;8</title>
<path fill="none" stroke="black" d="M2050.03,-104.33C1840.1,-105.52 1015.3,-107.58 759,-69 705.15,-60.89 692.02,-55.03 641,-36 639.15,-35.31 637.27,-34.57 635.39,-33.78"/>
<polygon fill="black" stroke="black" points="636.63,-30.51 626.07,-29.67 633.8,-36.91 636.63,-30.51"/>
<text text-anchor="middle" x="772.5" y="-57.8" font-family="Times,serif" font-size="14.00">dep</text>
</g>
<!-- 9 -->
<g id="node10" class="node">
<title>9</title>
<ellipse fill="none" stroke="black" cx="697" cy="-18" rx="47.39" ry="18"/>
<text text-anchor="middle" x="697" y="-14.3" font-family="Times,serif" font-size="14.00">Brigada</text>
</g>
<!-- 0&#45;&gt;9 -->
<g id="edge9" class="edge">
<title>0&#45;&gt;9</title>
<path fill="none" stroke="black" d="M2050.18,-103.47C1834.04,-101 968.63,-89.89 849,-69 809.86,-62.16 767.01,-47.36 736.81,-35.63"/>
<polygon fill="black" stroke="black" points="738.06,-32.36 727.48,-31.94 735.49,-38.87 738.06,-32.36"/>
<text text-anchor="middle" x="862.5" y="-57.8" font-family="Times,serif" font-size="14.00">dep</text>
</g>
<!-- 10 -->
<g id="node11" class="node">
<title>10</title>
<ellipse fill="none" stroke="black" cx="789" cy="-18" rx="27" ry="18"/>
<text text-anchor="middle" x="789" y="-14.3" font-family="Times,serif" font-size="14.00">de</text>
</g>
<!-- 0&#45;&gt;10 -->
<g id="edge10" class="edge">
<title>0&#45;&gt;10</title>
<path fill="none" stroke="black" d="M2050.19,-103.87C1860.83,-103.15 1174.67,-98.53 959,-69 898.23,-60.68 882.8,-56.53 825,-36 823.09,-35.32 821.16,-34.58 819.21,-33.79"/>
<polygon fill="black" stroke="black" points="820.21,-30.41 809.64,-29.61 817.4,-36.82 820.21,-30.41"/>
<text text-anchor="middle" x="972.5" y="-57.8" font-family="Times,serif" font-size="14.00">dep</text>
</g>
<!-- 11 -->
<g id="node12" class="node">
<title>11</title>
<ellipse fill="none" stroke="black" cx="883" cy="-18" rx="49.29" ry="18"/>
<text text-anchor="middle" x="883" y="-14.3" font-family="Times,serif" font-size="14.00">Trânsito</text>
</g>
<!-- 0&#45;&gt;11 -->
<g id="edge11" class="edge">
<title>0&#45;&gt;11</title>
<path fill="none" stroke="black" d="M2050.1,-104.04C1870.31,-103.91 1246.24,-101.1 1050,-69 1006.51,-61.89 958.45,-46.69 925.11,-34.9"/>
<polygon fill="black" stroke="black" points="926.27,-31.6 915.68,-31.52 923.91,-38.19 926.27,-31.6"/>
<text text-anchor="middle" x="1063.5" y="-57.8" font-family="Times,serif" font-size="14.00">dep</text>
</g>
<!-- 12 -->
<g id="node13" class="node">
<title>12</title>
<ellipse fill="none" stroke="black" cx="995" cy="-18" rx="44.39" ry="18"/>
<text text-anchor="middle" x="995" y="-14.3" font-family="Times,serif" font-size="14.00">aplicou</text>
</g>
<!-- 0&#45;&gt;12 -->
<g id="edge12" class="edge">
<title>0&#45;&gt;12</title>
<path fill="none" stroke="black" d="M2050.3,-104.18C1880.3,-104.51 1313.99,-102.96 1136,-69 1099.83,-62.1 1060.47,-47.5 1032.56,-35.86"/>
<polygon fill="black" stroke="black" points="1033.75,-32.56 1023.18,-31.88 1031.02,-39.01 1033.75,-32.56"/>
<text text-anchor="middle" x="1149.5" y="-57.8" font-family="Times,serif" font-size="14.00">dep</text>
</g>
<!-- 13 -->
<g id="node14" class="node">
<title>13</title>
<ellipse fill="none" stroke="black" cx="1084" cy="-18" rx="27" ry="18"/>
<text text-anchor="middle" x="1084" y="-14.3" font-family="Times,serif" font-size="14.00">o</text>
</g>
<!-- 0&#45;&gt;13 -->
<g id="edge13" class="edge">
<title>0&#45;&gt;13</title>
<path fill="none" stroke="black" d="M2050.18,-103.84C1889.96,-103.05 1381.27,-98.22 1220,-69 1182.3,-62.17 1141.32,-45.77 1114.31,-33.6"/>
<polygon fill="black" stroke="black" points="1115.57,-30.33 1105.02,-29.34 1112.65,-36.69 1115.57,-30.33"/>
<text text-anchor="middle" x="1233.5" y="-57.8" font-family="Times,serif" font-size="14.00">dep</text>
</g>
<!-- 14 -->
<g id="node15" class="node">
<title>14</title>
<ellipse fill="none" stroke="black" cx="1163" cy="-18" rx="34.39" ry="18"/>
<text text-anchor="middle" x="1163" y="-14.3" font-family="Times,serif" font-size="14.00">teste</text>
</g>
<!-- 0&#45;&gt;14 -->
<g id="edge14" class="edge">
<title>0&#45;&gt;14</title>
<path fill="none" stroke="black" d="M2050.37,-103.58C1901.08,-102 1450.79,-95.16 1307,-69 1268.45,-61.99 1226.33,-46.36 1197.66,-34.43"/>
<polygon fill="black" stroke="black" points="1198.68,-31.07 1188.11,-30.39 1195.95,-37.51 1198.68,-31.07"/>
<text text-anchor="middle" x="1320.5" y="-57.8" font-family="Times,serif" font-size="14.00">dep</text>
</g>
<!-- 15 -->
<g id="node16" class="node">
<title>15</title>
<ellipse fill="none" stroke="black" cx="1242" cy="-18" rx="27" ry="18"/>
<text text-anchor="middle" x="1242" y="-14.3" font-family="Times,serif" font-size="14.00">de</text>
</g>
<!-- 0&#45;&gt;15 -->
<g id="edge15" class="edge">
<title>0&#45;&gt;15</title>
<path fill="none" stroke="black" d="M2050.03,-104.31C1938.4,-104.4 1656.78,-101.1 1424,-69 1358.1,-59.91 1340.9,-57.67 1278,-36 1276.09,-35.34 1274.14,-34.61 1272.2,-33.84"/>
<polygon fill="black" stroke="black" points="1273.18,-30.45 1262.62,-29.68 1270.4,-36.87 1273.18,-30.45"/>
<text text-anchor="middle" x="1437.5" y="-57.8" font-family="Times,serif" font-size="14.00">dep</text>
</g>
<!-- 16 -->
<g id="node17" class="node">
<title>16</title>
<ellipse fill="none" stroke="black" cx="1347" cy="-18" rx="59.59" ry="18"/>
<text text-anchor="middle" x="1347" y="-14.3" font-family="Times,serif" font-size="14.00">alcoolémia</text>
</g>
<!-- 0&#45;&gt;16 -->
<g id="edge16" class="edge">
<title>0&#45;&gt;16</title>
<path fill="none" stroke="black" d="M2050.19,-104.8C1949.5,-105.63 1711.74,-103.37 1516,-69 1473.49,-61.54 1426.51,-47.11 1392.89,-35.67"/>
<polygon fill="black" stroke="black" points="1393.94,-32.33 1383.35,-32.38 1391.66,-38.95 1393.94,-32.33"/>
<text text-anchor="middle" x="1529.5" y="-57.8" font-family="Times,serif" font-size="14.00">dep</text>
</g>
<!-- 17 -->
<g id="node18" class="node">
<title>17</title>
<ellipse fill="none" stroke="black" cx="1452" cy="-18" rx="27" ry="18"/>
<text text-anchor="middle" x="1452" y="-14.3" font-family="Times,serif" font-size="14.00">a</text>
</g>
<!-- 0&#45;&gt;17 -->
<g id="edge17" class="edge">
<title>0&#45;&gt;17</title>
<path fill="none" stroke="black" d="M2050.36,-102.98C1964.31,-100.6 1779.78,-92.92 1626,-69 1563.69,-59.31 1547.5,-56.91 1488,-36 1486.09,-35.33 1484.15,-34.59 1482.21,-33.81"/>
<polygon fill="black" stroke="black" points="1483.2,-30.42 1472.63,-29.63 1480.4,-36.84 1483.2,-30.42"/>
<text text-anchor="middle" x="1639.5" y="-57.8" font-family="Times,serif" font-size="14.00">dep</text>
</g>
<!-- 18 -->
<g id="node19" class="node">
<title>18</title>
<ellipse fill="none" stroke="black" cx="1540" cy="-18" rx="42.79" ry="18"/>
<text text-anchor="middle" x="1540" y="-14.3" font-family="Times,serif" font-size="14.00">25.093</text>
</g>
<!-- 0&#45;&gt;18 -->
<g id="edge18" class="edge">
<title>0&#45;&gt;18</title>
<path fill="none" stroke="black" d="M2050.85,-101.72C1979.66,-97.84 1842.3,-88.41 1727,-69 1666.09,-58.75 1651.4,-52.94 1592,-36 1588.7,-35.06 1585.3,-34.05 1581.89,-33"/>
<polygon fill="black" stroke="black" points="1582.93,-29.66 1572.34,-29.99 1580.83,-36.33 1582.93,-29.66"/>
<text text-anchor="middle" x="1740.5" y="-57.8" font-family="Times,serif" font-size="14.00">dep</text>
</g>
<!-- 19 -->
<g id="node20" class="node">
<title>19</title>
<ellipse fill="none" stroke="black" cx="1663" cy="-18" rx="62.29" ry="18"/>
<text text-anchor="middle" x="1663" y="-14.3" font-family="Times,serif" font-size="14.00">condutores</text>
</g>
<!-- 0&#45;&gt;19 -->
<g id="edge19" class="edge">
<title>0&#45;&gt;19</title>
<path fill="none" stroke="black" d="M2051.27,-101.14C1993.9,-97.03 1894.98,-87.78 1812,-69 1776.14,-60.88 1736.74,-47.46 1707.47,-36.56"/>
<polygon fill="black" stroke="black" points="1708.54,-33.22 1697.95,-32.97 1706.07,-39.77 1708.54,-33.22"/>
<text text-anchor="middle" x="1825.5" y="-57.8" font-family="Times,serif" font-size="14.00">dep</text>
</g>
<!-- 20 -->
<g id="node21" class="node">
<title>20</title>
<ellipse fill="none" stroke="black" cx="1770" cy="-18" rx="27" ry="18"/>
<text text-anchor="middle" x="1770" y="-14.3" font-family="Times,serif" font-size="14.00">,</text>
</g>
<!-- 0&#45;&gt;20 -->
<g id="edge20" class="edge">
<title>0&#45;&gt;20</title>
<path fill="none" stroke="black" d="M2052.39,-99.55C2008.57,-94.63 1941.46,-85.17 1885,-69 1854.97,-60.4 1822.47,-45.73 1799.71,-34.5"/>
<polygon fill="black" stroke="black" points="1801.09,-31.28 1790.58,-29.92 1797.95,-37.53 1801.09,-31.28"/>
<text text-anchor="middle" x="1898.5" y="-57.8" font-family="Times,serif" font-size="14.00">dep</text>
</g>
<!-- 21 -->
<g id="node22" class="node">
<title>21</title>
<ellipse fill="none" stroke="black" cx="1842" cy="-18" rx="27" ry="18"/>
<text text-anchor="middle" x="1842" y="-14.3" font-family="Times,serif" font-size="14.00">em</text>
</g>
<!-- 0&#45;&gt;21 -->
<g id="edge21" class="edge">
<title>0&#45;&gt;21</title>
<path fill="none" stroke="black" d="M2056.28,-96.17C2026.39,-90.14 1985.74,-80.84 1951,-69 1917.3,-57.52 1910.32,-50.94 1878,-36 1876.21,-35.17 1874.38,-34.32 1872.52,-33.46"/>
<polygon fill="black" stroke="black" points="1873.83,-30.21 1863.29,-29.13 1870.86,-36.54 1873.83,-30.21"/>
<text text-anchor="middle" x="1964.5" y="-57.8" font-family="Times,serif" font-size="14.00">dep</text>
</g>
<!-- 22 -->
<g id="node23" class="node">
<title>22</title>
<ellipse fill="none" stroke="black" cx="1918" cy="-18" rx="31.4" ry="18"/>
<text text-anchor="middle" x="1918" y="-14.3" font-family="Times,serif" font-size="14.00">todo</text>
</g>
<!-- 0&#45;&gt;22 -->
<g id="edge22" class="edge">
<title>0&#45;&gt;22</title>
<path fill="none" stroke="black" d="M2065.2,-91.83C2048.4,-85.5 2027.91,-77.35 2010,-69 1988.81,-59.12 1965.7,-46.55 1947.94,-36.49"/>
<polygon fill="black" stroke="black" points="1949.6,-33.4 1939.18,-31.48 1946.12,-39.48 1949.6,-33.4"/>
<text text-anchor="middle" x="2023.5" y="-57.8" font-family="Times,serif" font-size="14.00">dep</text>
</g>
<!-- 23 -->
<g id="node24" class="node">
<title>23</title>
<ellipse fill="none" stroke="black" cx="1994" cy="-18" rx="27" ry="18"/>
<text text-anchor="middle" x="1994" y="-14.3" font-family="Times,serif" font-size="14.00">o</text>
</g>
<!-- 0&#45;&gt;23 -->
<g id="edge23" class="edge">
<title>0&#45;&gt;23</title>
<path fill="none" stroke="black" d="M2079.74,-88.41C2062.52,-74.47 2037.18,-53.96 2018.51,-38.85"/>
<polygon fill="black" stroke="black" points="2020.69,-36.1 2010.71,-32.53 2016.28,-41.54 2020.69,-36.1"/>
<text text-anchor="middle" x="2066.5" y="-57.8" font-family="Times,serif" font-size="14.00">dep</text>
</g>
<!-- 24 -->
<g id="node25" class="node">
<title>24</title>
<ellipse fill="none" stroke="black" cx="2099" cy="-18" rx="59.59" ry="18"/>
<text text-anchor="middle" x="2099" y="-14.3" font-family="Times,serif" font-size="14.00">continente</text>
</g>
<!-- 0&#45;&gt;24 -->
<g id="edge24" class="edge">
<title>0&#45;&gt;24</title>
<path fill="none" stroke="black" d="M2099,-86.8C2099,-75.16 2099,-59.55 2099,-46.24"/>
<polygon fill="black" stroke="black" points="2102.5,-46.18 2099,-36.18 2095.5,-46.18 2102.5,-46.18"/>
<text text-anchor="middle" x="2112.5" y="-57.8" font-family="Times,serif" font-size="14.00">dep</text>
</g>
<!-- 25 -->
<g id="node26" class="node">
<title>25</title>
<ellipse fill="none" stroke="black" cx="2204" cy="-18" rx="27" ry="18"/>
<text text-anchor="middle" x="2204" y="-14.3" font-family="Times,serif" font-size="14.00">e</text>
</g>
<!-- 0&#45;&gt;25 -->
<g id="edge25" class="edge">
<title>0&#45;&gt;25</title>
<path fill="none" stroke="black" d="M2118.26,-88.41C2135.48,-74.47 2160.82,-53.96 2179.49,-38.85"/>
<polygon fill="black" stroke="black" points="2181.72,-41.54 2187.29,-32.53 2177.31,-36.1 2181.72,-41.54"/>
<text text-anchor="middle" x="2171.5" y="-57.8" font-family="Times,serif" font-size="14.00">dep</text>
</g>
<!-- 26 -->
<g id="node27" class="node">
<title>26</title>
<ellipse fill="none" stroke="black" cx="2300" cy="-18" rx="51.19" ry="18"/>
<text text-anchor="middle" x="2300" y="-14.3" font-family="Times,serif" font-size="14.00">detectou</text>
</g>
<!-- 0&#45;&gt;26 -->
<g id="edge26" class="edge">
<title>0&#45;&gt;26</title>
<path fill="none" stroke="black" d="M2132.08,-91.61C2149.16,-85.09 2170.29,-76.84 2189,-69 2213.17,-58.86 2239.97,-46.82 2261.18,-37.09"/>
<polygon fill="black" stroke="black" points="2262.88,-40.16 2270.5,-32.79 2259.96,-33.8 2262.88,-40.16"/>
<text text-anchor="middle" x="2236.5" y="-57.8" font-family="Times,serif" font-size="14.00">dep</text>
</g>
<!-- 27 -->
<g id="node28" class="node">
<title>27</title>
<ellipse fill="none" stroke="black" cx="2406" cy="-18" rx="37.09" ry="18"/>
<text text-anchor="middle" x="2406" y="-14.3" font-family="Times,serif" font-size="14.00">1.578</text>
</g>
<!-- 0&#45;&gt;27 -->
<g id="edge27" class="edge">
<title>0&#45;&gt;27</title>
<path fill="none" stroke="black" d="M2140.67,-95.53C2172,-88.94 2215.9,-79.22 2254,-69 2301.66,-56.22 2313.29,-51.89 2360,-36 2362.56,-35.13 2365.19,-34.22 2367.83,-33.28"/>
<polygon fill="black" stroke="black" points="2369.15,-36.52 2377.37,-29.84 2366.78,-29.94 2369.15,-36.52"/>
<text text-anchor="middle" x="2319.5" y="-57.8" font-family="Times,serif" font-size="14.00">dep</text>
</g>
<!-- 28 -->
<g id="node29" class="node">
<title>28</title>
<ellipse fill="none" stroke="black" cx="2488" cy="-18" rx="27" ry="18"/>
<text text-anchor="middle" x="2488" y="-14.3" font-family="Times,serif" font-size="14.00">,</text>
</g>
<!-- 0&#45;&gt;28 -->
<g id="edge28" class="edge">
<title>0&#45;&gt;28</title>
<path fill="none" stroke="black" d="M2146.07,-100.05C2215.06,-93.14 2346.87,-75.61 2452,-36 2453.84,-35.31 2455.72,-34.55 2457.61,-33.77"/>
<polygon fill="black" stroke="black" points="2459.2,-36.89 2466.93,-29.65 2456.36,-30.49 2459.2,-36.89"/>
<text text-anchor="middle" x="2410.5" y="-57.8" font-family="Times,serif" font-size="14.00">dep</text>
</g>
<!-- 29 -->
<g id="node30" class="node">
<title>29</title>
<ellipse fill="none" stroke="black" cx="2560" cy="-18" rx="27" ry="18"/>
<text text-anchor="middle" x="2560" y="-14.3" font-family="Times,serif" font-size="14.00">ou</text>
</g>
<!-- 0&#45;&gt;29 -->
<g id="edge29" class="edge">
<title>0&#45;&gt;29</title>
<path fill="none" stroke="black" d="M2147.22,-102.26C2211.82,-99.17 2329.73,-90.82 2428,-69 2472.04,-59.22 2482.2,-52.99 2524,-36 2525.82,-35.26 2527.69,-34.47 2529.56,-33.66"/>
<polygon fill="black" stroke="black" points="2531.18,-36.77 2538.85,-29.46 2528.3,-30.39 2531.18,-36.77"/>
<text text-anchor="middle" x="2494.5" y="-57.8" font-family="Times,serif" font-size="14.00">dep</text>
</g>
<!-- 30 -->
<g id="node31" class="node">
<title>30</title>
<ellipse fill="none" stroke="black" cx="2634" cy="-18" rx="29.5" ry="18"/>
<text text-anchor="middle" x="2634" y="-14.3" font-family="Times,serif" font-size="14.00">seja</text>
</g>
<!-- 0&#45;&gt;30 -->
<g id="edge30" class="edge">
<title>0&#45;&gt;30</title>
<path fill="none" stroke="black" d="M2148.03,-104.4C2226.12,-104.02 2383.07,-99.11 2512,-69 2544.27,-61.46 2579.06,-46.46 2603.2,-34.84"/>
<polygon fill="black" stroke="black" points="2604.78,-37.97 2612.22,-30.42 2601.7,-31.68 2604.78,-37.97"/>
<text text-anchor="middle" x="2570.5" y="-57.8" font-family="Times,serif" font-size="14.00">dep</text>
</g>
<!-- 31 -->
<g id="node32" class="node">
<title>31</title>
<ellipse fill="none" stroke="black" cx="2708" cy="-18" rx="27" ry="18"/>
<text text-anchor="middle" x="2708" y="-14.3" font-family="Times,serif" font-size="14.00">,</text>
</g>
<!-- 0&#45;&gt;31 -->
<g id="edge31" class="edge">
<title>0&#45;&gt;31</title>
<path fill="none" stroke="black" d="M2147.44,-102.39C2253.85,-98.57 2505.1,-87.79 2588,-69 2620.11,-61.72 2654.6,-46.5 2678.32,-34.75"/>
<polygon fill="black" stroke="black" points="2680.14,-37.76 2687.48,-30.12 2676.98,-31.51 2680.14,-37.76"/>
<text text-anchor="middle" x="2646.5" y="-57.8" font-family="Times,serif" font-size="14.00">dep</text>
</g>
<!-- 32 -->
<g id="node33" class="node">
<title>32</title>
<ellipse fill="none" stroke="black" cx="2780" cy="-18" rx="27" ry="18"/>
<text text-anchor="middle" x="2780" y="-14.3" font-family="Times,serif" font-size="14.00">6,2</text>
</g>
<!-- 0&#45;&gt;32 -->
<g id="edge32" class="edge">
<title>0&#45;&gt;32</title>
<path fill="none" stroke="black" d="M2147.81,-103.03C2266.27,-100.35 2566.44,-91.49 2664,-69 2694.85,-61.89 2727.8,-46.9 2750.67,-35.17"/>
<polygon fill="black" stroke="black" points="2752.58,-38.12 2759.81,-30.38 2749.33,-31.92 2752.58,-38.12"/>
<text text-anchor="middle" x="2720.5" y="-57.8" font-family="Times,serif" font-size="14.00">dep</text>
</g>
<!-- 33 -->
<g id="node34" class="node">
<title>33</title>
<ellipse fill="none" stroke="black" cx="2852" cy="-18" rx="27" ry="18"/>
<text text-anchor="middle" x="2852" y="-14.3" font-family="Times,serif" font-size="14.00">por</text>
</g>
<!-- 0&#45;&gt;33 -->
<g id="edge33" class="edge">
<title>0&#45;&gt;33</title>
<path fill="none" stroke="black" d="M2147.96,-103.49C2277.32,-101.81 2625.97,-94.93 2738,-69 2768.4,-61.96 2800.77,-46.96 2823.22,-35.22"/>
<polygon fill="black" stroke="black" points="2825.03,-38.22 2832.2,-30.41 2821.73,-32.04 2825.03,-38.22"/>
<text text-anchor="middle" x="2797.5" y="-57.8" font-family="Times,serif" font-size="14.00">dep</text>
</g>
<!-- 34 -->
<g id="node35" class="node">
<title>34</title>
<ellipse fill="none" stroke="black" cx="2933" cy="-18" rx="36.29" ry="18"/>
<text text-anchor="middle" x="2933" y="-14.3" font-family="Times,serif" font-size="14.00">cento</text>
</g>
<!-- 0&#45;&gt;34 -->
<g id="edge34" class="edge">
<title>0&#45;&gt;34</title>
<path fill="none" stroke="black" d="M2147.71,-103.84C2287.41,-103.02 2687.61,-98.13 2815,-69 2845.12,-62.11 2877.28,-47.98 2900.41,-36.5"/>
<polygon fill="black" stroke="black" points="2902.09,-39.57 2909.43,-31.93 2898.93,-33.33 2902.09,-39.57"/>
<text text-anchor="middle" x="2872.5" y="-57.8" font-family="Times,serif" font-size="14.00">dep</text>
</g>
<!-- 35 -->
<g id="node36" class="node">
<title>35</title>
<ellipse fill="none" stroke="black" cx="3014" cy="-18" rx="27" ry="18"/>
<text text-anchor="middle" x="3014" y="-14.3" font-family="Times,serif" font-size="14.00">de</text>
</g>
<!-- 0&#45;&gt;35 -->
<g id="edge35" class="edge">
<title>0&#45;&gt;35</title>
<path fill="none" stroke="black" d="M2147.89,-103.84C2297.41,-103.04 2747.07,-98.2 2890,-69 2923.73,-62.11 2960,-46.42 2984.54,-34.44"/>
<polygon fill="black" stroke="black" points="2986.27,-37.49 2993.66,-29.9 2983.15,-31.22 2986.27,-37.49"/>
<text text-anchor="middle" x="2953.5" y="-57.8" font-family="Times,serif" font-size="14.00">dep</text>
</g>
<!-- 36 -->
<g id="node37" class="node">
<title>36</title>
<ellipse fill="none" stroke="black" cx="3086" cy="-18" rx="27" ry="18"/>
<text text-anchor="middle" x="3086" y="-14.3" font-family="Times,serif" font-size="14.00">o</text>
</g>
<!-- 0&#45;&gt;36 -->
<g id="edge36" class="edge">
<title>0&#45;&gt;36</title>
<path fill="none" stroke="black" d="M2147.81,-104.31C2307.36,-104.96 2812.35,-104.13 2971,-69 3001.69,-62.21 3034.34,-47.17 3056.98,-35.35"/>
<polygon fill="black" stroke="black" points="3058.86,-38.32 3066.03,-30.52 3055.56,-32.14 3058.86,-38.32"/>
<text text-anchor="middle" x="3030.5" y="-57.8" font-family="Times,serif" font-size="14.00">dep</text>
</g>
<!-- 37 -->
<g id="node38" class="node">
<title>37</title>
<ellipse fill="none" stroke="black" cx="3163" cy="-18" rx="32.49" ry="18"/>
<text text-anchor="middle" x="3163" y="-14.3" font-family="Times,serif" font-size="14.00">total</text>
</g>
<!-- 0&#45;&gt;37 -->
<g id="edge37" class="edge">
<title>0&#45;&gt;37</title>
<path fill="none" stroke="black" d="M2147.54,-103.27C2328.77,-100.38 2960.03,-89 3048,-69 3077.72,-62.24 3109.33,-47.92 3131.87,-36.33"/>
<polygon fill="black" stroke="black" points="3133.72,-39.31 3140.94,-31.56 3130.46,-33.12 3133.72,-39.31"/>
<text text-anchor="middle" x="3107.5" y="-57.8" font-family="Times,serif" font-size="14.00">dep</text>
</g>
<!-- 38 -->
<g id="node39" class="node">
<title>38</title>
<ellipse fill="none" stroke="black" cx="3240" cy="-18" rx="27" ry="18"/>
<text text-anchor="middle" x="3240" y="-14.3" font-family="Times,serif" font-size="14.00">,</text>
</g>
<!-- 0&#45;&gt;38 -->
<g id="edge38" class="edge">
<title>0&#45;&gt;38</title>
<path fill="none" stroke="black" d="M2147.83,-103.37C2338.77,-100.75 3029.12,-89.93 3125,-69 3155.71,-62.3 3188.36,-47.25 3210.99,-35.41"/>
<polygon fill="black" stroke="black" points="3212.88,-38.36 3220.04,-30.56 3209.57,-32.19 3212.88,-38.36"/>
<text text-anchor="middle" x="3184.5" y="-57.8" font-family="Times,serif" font-size="14.00">dep</text>
</g>
<!-- 39 -->
<g id="node40" class="node">
<title>39</title>
<ellipse fill="none" stroke="black" cx="3313" cy="-18" rx="27.9" ry="18"/>
<text text-anchor="middle" x="3313" y="-14.3" font-family="Times,serif" font-size="14.00">que</text>
</g>
<!-- 0&#45;&gt;39 -->
<g id="edge39" class="edge">
<title>0&#45;&gt;39</title>
<path fill="none" stroke="black" d="M2147.73,-103.56C2347.54,-101.61 3098.54,-92.75 3202,-69 3231.25,-62.29 3262.2,-47.64 3283.97,-35.92"/>
<polygon fill="black" stroke="black" points="3285.92,-38.84 3292.99,-30.95 3282.54,-32.71 3285.92,-38.84"/>
<text text-anchor="middle" x="3260.5" y="-57.8" font-family="Times,serif" font-size="14.00">dep</text>
</g>
<!-- 40 -->
<g id="node41" class="node">
<title>40</title>
<ellipse fill="none" stroke="black" cx="3419" cy="-18" rx="60.39" ry="18"/>
<text text-anchor="middle" x="3419" y="-14.3" font-family="Times,serif" font-size="14.00">conduziam</text>
</g>
<!-- 0&#45;&gt;40 -->
<g id="edge40" class="edge">
<title>0&#45;&gt;40</title>
<path fill="none" stroke="black" d="M2147.83,-103.44C2356.26,-100.95 3165.92,-90 3278,-69 3312.71,-62.5 3350.33,-48.8 3377.97,-37.38"/>
<polygon fill="black" stroke="black" points="3379.45,-40.55 3387.31,-33.45 3376.73,-34.1 3379.45,-40.55"/>
<text text-anchor="middle" x="3347.5" y="-57.8" font-family="Times,serif" font-size="14.00">dep</text>
</g>
<!-- 41 -->
<g id="node42" class="node">
<title>41</title>
<ellipse fill="none" stroke="black" cx="3524" cy="-18" rx="27" ry="18"/>
<text text-anchor="middle" x="3524" y="-14.3" font-family="Times,serif" font-size="14.00">sob</text>
</g>
<!-- 0&#45;&gt;41 -->
<g id="edge41" class="edge">
<title>0&#45;&gt;41</title>
<path fill="none" stroke="black" d="M2147.96,-104.18C2350.54,-104.68 3123.77,-104.2 3365,-69 3421.01,-60.83 3434.86,-55.5 3488,-36 3489.85,-35.32 3491.73,-34.58 3493.62,-33.81"/>
<polygon fill="black" stroke="black" points="3495.2,-36.94 3502.95,-29.71 3492.39,-30.53 3495.2,-36.94"/>
<text text-anchor="middle" x="3449.5" y="-57.8" font-family="Times,serif" font-size="14.00">dep</text>
</g>
<!-- 42 -->
<g id="node43" class="node">
<title>42</title>
<ellipse fill="none" stroke="black" cx="3596" cy="-18" rx="27" ry="18"/>
<text text-anchor="middle" x="3596" y="-14.3" font-family="Times,serif" font-size="14.00">o</text>
</g>
<!-- 0&#45;&gt;42 -->
<g id="edge42" class="edge">
<title>0&#45;&gt;42</title>
<path fill="none" stroke="black" d="M2147.78,-103.66C2376.3,-101.95 3335.45,-93.38 3467,-69 3502.39,-62.44 3540.55,-46.43 3566.11,-34.28"/>
<polygon fill="black" stroke="black" points="3567.79,-37.35 3575.26,-29.84 3564.73,-31.05 3567.79,-37.35"/>
<text text-anchor="middle" x="3532.5" y="-57.8" font-family="Times,serif" font-size="14.00">dep</text>
</g>
<!-- 43 -->
<g id="node44" class="node">
<title>43</title>
<ellipse fill="none" stroke="black" cx="3678" cy="-18" rx="37.09" ry="18"/>
<text text-anchor="middle" x="3678" y="-14.3" font-family="Times,serif" font-size="14.00">efeito</text>
</g>
<!-- 0&#45;&gt;43 -->
<g id="edge43" class="edge">
<title>0&#45;&gt;43</title>
<path fill="none" stroke="black" d="M2147.96,-103.83C2385.3,-102.86 3410.34,-97.06 3550,-69 3583.18,-62.33 3618.9,-47.7 3644.15,-35.98"/>
<polygon fill="black" stroke="black" points="3645.75,-39.09 3653.29,-31.65 3642.75,-32.77 3645.75,-39.09"/>
<text text-anchor="middle" x="3614.5" y="-57.8" font-family="Times,serif" font-size="14.00">dep</text>
</g>
<!-- 44 -->
<g id="node45" class="node">
<title>44</title>
<ellipse fill="none" stroke="black" cx="3760" cy="-18" rx="27" ry="18"/>
<text text-anchor="middle" x="3760" y="-14.3" font-family="Times,serif" font-size="14.00">de</text>
</g>
<!-- 0&#45;&gt;44 -->
<g id="edge44" class="edge">
<title>0&#45;&gt;44</title>
<path fill="none" stroke="black" d="M2147.84,-103.82C2392.99,-102.77 3483.46,-96.58 3632,-69 3667.15,-62.47 3705.01,-46.45 3730.36,-34.29"/>
<polygon fill="black" stroke="black" points="3731.99,-37.39 3739.43,-29.85 3728.91,-31.1 3731.99,-37.39"/>
<text text-anchor="middle" x="3696.5" y="-57.8" font-family="Times,serif" font-size="14.00">dep</text>
</g>
<!-- 45 -->
<g id="node46" class="node">
<title>45</title>
<ellipse fill="none" stroke="black" cx="3832" cy="-18" rx="27" ry="18"/>
<text text-anchor="middle" x="3832" y="-14.3" font-family="Times,serif" font-size="14.00">o</text>
</g>
<!-- 0&#45;&gt;45 -->
<g id="edge45" class="edge">
<title>0&#45;&gt;45</title>
<path fill="none" stroke="black" d="M2147.94,-103.99C2401.24,-103.78 3557.57,-101.06 3714,-69 3745.8,-62.48 3779.68,-47.15 3802.94,-35.17"/>
<polygon fill="black" stroke="black" points="3804.7,-38.2 3811.92,-30.44 3801.44,-32.01 3804.7,-38.2"/>
<text text-anchor="middle" x="3774.5" y="-57.8" font-family="Times,serif" font-size="14.00">dep</text>
</g>
<!-- 46 -->
<g id="node47" class="node">
<title>46</title>
<ellipse fill="none" stroke="black" cx="3915" cy="-18" rx="37.89" ry="18"/>
<text text-anchor="middle" x="3915" y="-14.3" font-family="Times,serif" font-size="14.00">álcool</text>
</g>
<!-- 0&#45;&gt;46 -->
<g id="edge46" class="edge">
<title>0&#45;&gt;46</title>
<path fill="none" stroke="black" d="M2147.72,-104.05C2407.86,-104.17 3627.52,-102.92 3792,-69 3823.69,-62.46 3857.61,-48.06 3881.78,-36.39"/>
<polygon fill="black" stroke="black" points="3883.45,-39.47 3890.87,-31.91 3880.35,-33.19 3883.45,-39.47"/>
<text text-anchor="middle" x="3854.5" y="-57.8" font-family="Times,serif" font-size="14.00">dep</text>
</g>
<!-- 47 -->
<g id="node48" class="node">
<title>47</title>
<ellipse fill="none" stroke="black" cx="3998" cy="-18" rx="27" ry="18"/>
<text text-anchor="middle" x="3998" y="-14.3" font-family="Times,serif" font-size="14.00">.</text>
</g>
<!-- 0&#45;&gt;47 -->
<g id="edge47" class="edge">
<title>0&#45;&gt;47</title>
<path fill="none" stroke="black" d="M2147.79,-104C2415.33,-103.87 3698.68,-101.54 3872,-69 3906.31,-62.56 3943.15,-46.8 3968.08,-34.68"/>
<polygon fill="black" stroke="black" points="3969.95,-37.66 3977.35,-30.08 3966.83,-31.39 3969.95,-37.66"/>
<text text-anchor="middle" x="3935.5" y="-57.8" font-family="Times,serif" font-size="14.00">dep</text>
</g>
</g>
</svg>
