<?xml version="1.0" encoding="UTF-8" standalone="no"?>
<!DOCTYPE svg PUBLIC "-//W3C//DTD SVG 1.1//EN"
 "http://www.w3.org/Graphics/SVG/1.1/DTD/svg11.dtd">
<!-- Generated by graphviz version 2.42.4 (0)
 -->
<!-- Pages: 1 -->
<svg width="849pt" height="131pt"
 viewBox="0.00 0.00 848.95 131.00" xmlns="http://www.w3.org/2000/svg" xmlns:xlink="http://www.w3.org/1999/xlink">
<g id="graph0" class="graph" transform="scale(1 1) rotate(0) translate(4 127)">
<polygon fill="white" stroke="transparent" points="-4,4 -4,-127 844.95,-127 844.95,4 -4,4"/>
<!-- 0 -->
<g id="node1" class="node">
<title>0</title>
<ellipse fill="none" stroke="black" cx="407.95" cy="-105" rx="31.4" ry="18"/>
<text text-anchor="middle" x="407.95" y="-101.3" font-family="Times,serif" font-size="14.00">Terá</text>
</g>
<!-- 1 -->
<g id="node2" class="node">
<title>1</title>
<ellipse fill="none" stroke="black" cx="27.95" cy="-18" rx="27.9" ry="18"/>
<text text-anchor="middle" x="27.95" y="-14.3" font-family="Times,serif" font-size="14.00">que</text>
</g>
<!-- 0&#45;&gt;1 -->
<g id="edge1" class="edge">
<title>0&#45;&gt;1</title>
<path fill="none" stroke="black" d="M376.91,-101.97C328.47,-98.31 232.23,-89.04 152.95,-69 119.74,-60.61 83.59,-45.44 58.75,-34"/>
<polygon fill="black" stroke="black" points="60.03,-30.74 49.49,-29.67 57.06,-37.08 60.03,-30.74"/>
<text text-anchor="middle" x="166.45" y="-57.8" font-family="Times,serif" font-size="14.00">dep</text>
</g>
<!-- 2 -->
<g id="node3" class="node">
<title>2</title>
<ellipse fill="none" stroke="black" cx="100.95" cy="-18" rx="27" ry="18"/>
<text text-anchor="middle" x="100.95" y="-14.3" font-family="Times,serif" font-size="14.00">dar</text>
</g>
<!-- 0&#45;&gt;2 -->
<g id="edge2" class="edge">
<title>0&#45;&gt;2</title>
<path fill="none" stroke="black" d="M378.07,-99.35C342.83,-93.57 282.61,-82.76 231.95,-69 188.81,-57.28 178.33,-52.9 136.95,-36 135.12,-35.26 133.26,-34.47 131.39,-33.65"/>
<polygon fill="black" stroke="black" points="132.65,-30.38 122.1,-29.45 129.77,-36.76 132.65,-30.38"/>
<text text-anchor="middle" x="245.45" y="-57.8" font-family="Times,serif" font-size="14.00">dep</text>
</g>
<!-- 3 -->
<g id="node4" class="node">
<title>3</title>
<ellipse fill="none" stroke="black" cx="176.95" cy="-18" rx="30.59" ry="18"/>
<text text-anchor="middle" x="176.95" y="-14.3" font-family="Times,serif" font-size="14.00">uma</text>
</g>
<!-- 0&#45;&gt;3 -->
<g id="edge3" class="edge">
<title>0&#45;&gt;3</title>
<path fill="none" stroke="black" d="M381.27,-95.39C343.93,-83.14 274.12,-59.57 215.95,-36 214.1,-35.25 212.21,-34.47 210.3,-33.68"/>
<polygon fill="black" stroke="black" points="211.36,-30.32 200.79,-29.63 208.62,-36.76 211.36,-30.32"/>
<text text-anchor="middle" x="313.45" y="-57.8" font-family="Times,serif" font-size="14.00">dep</text>
</g>
<!-- 4 -->
<g id="node5" class="node">
<title>4</title>
<ellipse fill="none" stroke="black" cx="275.95" cy="-18" rx="50.89" ry="18"/>
<text text-anchor="middle" x="275.95" y="-14.3" font-family="Times,serif" font-size="14.00">resposta</text>
</g>
<!-- 0&#45;&gt;4 -->
<g id="edge4" class="edge">
<title>0&#45;&gt;4</title>
<path fill="none" stroke="black" d="M387.9,-91.09C366.61,-77.38 332.65,-55.52 307.72,-39.46"/>
<polygon fill="black" stroke="black" points="309.61,-36.51 299.31,-34.04 305.82,-42.4 309.61,-36.51"/>
<text text-anchor="middle" x="363.45" y="-57.8" font-family="Times,serif" font-size="14.00">dep</text>
</g>
<!-- 5 -->
<g id="node6" class="node">
<title>5</title>
<ellipse fill="none" stroke="black" cx="371.95" cy="-18" rx="27" ry="18"/>
<text text-anchor="middle" x="371.95" y="-14.3" font-family="Times,serif" font-size="14.00">até</text>
</g>
<!-- 0&#45;&gt;5 -->
<g id="edge5" class="edge">
<title>0&#45;&gt;5</title>
<path fill="none" stroke="black" d="M400.84,-87.21C395.72,-75.14 388.74,-58.64 382.91,-44.89"/>
<polygon fill="black" stroke="black" points="386.05,-43.31 378.92,-35.47 379.6,-46.04 386.05,-43.31"/>
<text text-anchor="middle" x="406.45" y="-57.8" font-family="Times,serif" font-size="14.00">dep</text>
</g>
<!-- 6 -->
<g id="node7" class="node">
<title>6</title>
<ellipse fill="none" stroke="black" cx="443.95" cy="-18" rx="27" ry="18"/>
<text text-anchor="middle" x="443.95" y="-14.3" font-family="Times,serif" font-size="14.00">a</text>
</g>
<!-- 0&#45;&gt;6 -->
<g id="edge6" class="edge">
<title>0&#45;&gt;6</title>
<path fill="none" stroke="black" d="M415.06,-87.21C420.17,-75.14 427.16,-58.64 432.98,-44.89"/>
<polygon fill="black" stroke="black" points="436.3,-46.04 436.97,-35.47 429.85,-43.31 436.3,-46.04"/>
<text text-anchor="middle" x="442.45" y="-57.8" font-family="Times,serif" font-size="14.00">dep</text>
</g>
<!-- 7 -->
<g id="node8" class="node">
<title>7</title>
<ellipse fill="none" stroke="black" cx="515.95" cy="-18" rx="27" ry="18"/>
<text text-anchor="middle" x="515.95" y="-14.3" font-family="Times,serif" font-size="14.00">a</text>
</g>
<!-- 0&#45;&gt;7 -->
<g id="edge7" class="edge">
<title>0&#45;&gt;7</title>
<path fill="none" stroke="black" d="M428.4,-91.16C438.17,-84.79 449.89,-76.81 459.95,-69 471.48,-60.04 483.64,-49.34 493.68,-40.15"/>
<polygon fill="black" stroke="black" points="496.26,-42.52 501.22,-33.16 491.5,-37.39 496.26,-42.52"/>
<text text-anchor="middle" x="491.45" y="-57.8" font-family="Times,serif" font-size="14.00">dep</text>
</g>
<!-- 8 -->
<g id="node9" class="node">
<title>8</title>
<ellipse fill="none" stroke="black" cx="609.95" cy="-18" rx="48.99" ry="18"/>
<text text-anchor="middle" x="609.95" y="-14.3" font-family="Times,serif" font-size="14.00">próxima</text>
</g>
<!-- 0&#45;&gt;8 -->
<g id="edge8" class="edge">
<title>0&#45;&gt;8</title>
<path fill="none" stroke="black" d="M434.87,-95.69C455.42,-89.11 484.3,-79.32 508.95,-69 531.13,-59.71 555.29,-47.82 574.41,-37.96"/>
<polygon fill="black" stroke="black" points="576.11,-41.03 583.37,-33.31 572.88,-34.81 576.11,-41.03"/>
<text text-anchor="middle" x="554.45" y="-57.8" font-family="Times,serif" font-size="14.00">dep</text>
</g>
<!-- 9 -->
<g id="node10" class="node">
<title>9</title>
<ellipse fill="none" stroke="black" cx="722.95" cy="-18" rx="46.29" ry="18"/>
<text text-anchor="middle" x="722.95" y="-14.3" font-family="Times,serif" font-size="14.00">semana</text>
</g>
<!-- 0&#45;&gt;9 -->
<g id="edge9" class="edge">
<title>0&#45;&gt;9</title>
<path fill="none" stroke="black" d="M437.21,-98.76C470.2,-92.62 525.31,-81.66 571.95,-69 609.18,-58.9 650.75,-44.93 680.83,-34.32"/>
<polygon fill="black" stroke="black" points="682.31,-37.51 690.57,-30.87 679.97,-30.91 682.31,-37.51"/>
<text text-anchor="middle" x="636.45" y="-57.8" font-family="Times,serif" font-size="14.00">dep</text>
</g>
<!-- 10 -->
<g id="node11" class="node">
<title>10</title>
<ellipse fill="none" stroke="black" cx="813.95" cy="-18" rx="27" ry="18"/>
<text text-anchor="middle" x="813.95" y="-14.3" font-family="Times,serif" font-size="14.00">.</text>
</g>
<!-- 0&#45;&gt;10 -->
<g id="edge10" class="edge">
<title>0&#45;&gt;10</title>
<path fill="none" stroke="black" d="M439.09,-101.83C503.93,-96.56 657.42,-80.08 777.95,-36 779.8,-35.32 781.68,-34.59 783.57,-33.81"/>
<polygon fill="black" stroke="black" points="785.15,-36.94 792.9,-29.72 782.34,-30.53 785.15,-36.94"/>
<text text-anchor="middle" x="733.45" y="-57.8" font-family="Times,serif" font-size="14.00">dep</text>
</g>
</g>
</svg>
