<?xml version="1.0" encoding="UTF-8" standalone="no"?>
<!DOCTYPE svg PUBLIC "-//W3C//DTD SVG 1.1//EN"
 "http://www.w3.org/Graphics/SVG/1.1/DTD/svg11.dtd">
<!-- Generated by graphviz version 2.42.4 (0)
 -->
<!-- Pages: 1 -->
<svg width="2639pt" height="131pt"
 viewBox="0.00 0.00 2639.00 131.00" xmlns="http://www.w3.org/2000/svg" xmlns:xlink="http://www.w3.org/1999/xlink">
<g id="graph0" class="graph" transform="scale(1 1) rotate(0) translate(4 127)">
<polygon fill="white" stroke="transparent" points="-4,4 -4,-127 2635,-127 2635,4 -4,4"/>
<!-- 0 -->
<g id="node1" class="node">
<title>0</title>
<ellipse fill="none" stroke="black" cx="1367" cy="-105" rx="27" ry="18"/>
<text text-anchor="middle" x="1367" y="-101.3" font-family="Times,serif" font-size="14.00">Em</text>
</g>
<!-- 1 -->
<g id="node2" class="node">
<title>1</title>
<ellipse fill="none" stroke="black" cx="27" cy="-18" rx="27" ry="18"/>
<text text-anchor="middle" x="27" y="-14.3" font-family="Times,serif" font-size="14.00">o</text>
</g>
<!-- 0&#45;&gt;1 -->
<g id="edge1" class="edge">
<title>0&#45;&gt;1</title>
<path fill="none" stroke="black" d="M1340.02,-103.78C1171.55,-102.36 267.41,-93.6 147,-69 114.54,-62.37 79.86,-46.91 56.17,-34.92"/>
<polygon fill="black" stroke="black" points="57.53,-31.68 47.04,-30.19 54.31,-37.9 57.53,-31.68"/>
<text text-anchor="middle" x="160.5" y="-57.8" font-family="Times,serif" font-size="14.00">dep</text>
</g>
<!-- 2 -->
<g id="node3" class="node">
<title>2</title>
<ellipse fill="none" stroke="black" cx="99" cy="-18" rx="27" ry="18"/>
<text text-anchor="middle" x="99" y="-14.3" font-family="Times,serif" font-size="14.00">dia</text>
</g>
<!-- 0&#45;&gt;2 -->
<g id="edge2" class="edge">
<title>0&#45;&gt;2</title>
<path fill="none" stroke="black" d="M1340.01,-103.67C1178.24,-101.63 340.34,-90.12 228,-69 192.63,-62.35 154.46,-46.35 128.9,-34.23"/>
<polygon fill="black" stroke="black" points="130.27,-31.01 119.75,-29.8 127.22,-37.31 130.27,-31.01"/>
<text text-anchor="middle" x="241.5" y="-57.8" font-family="Times,serif" font-size="14.00">dep</text>
</g>
<!-- 3 -->
<g id="node4" class="node">
<title>3</title>
<ellipse fill="none" stroke="black" cx="175" cy="-18" rx="30.59" ry="18"/>
<text text-anchor="middle" x="175" y="-14.3" font-family="Times,serif" font-size="14.00">sete</text>
</g>
<!-- 0&#45;&gt;3 -->
<g id="edge3" class="edge">
<title>0&#45;&gt;3</title>
<path fill="none" stroke="black" d="M1339.78,-104.17C1195.46,-104.89 518.61,-106.2 313,-69 275.7,-62.25 235.16,-46.47 207.74,-34.42"/>
<polygon fill="black" stroke="black" points="208.81,-31.07 198.26,-30.18 205.95,-37.46 208.81,-31.07"/>
<text text-anchor="middle" x="326.5" y="-57.8" font-family="Times,serif" font-size="14.00">dep</text>
</g>
<!-- 4 -->
<g id="node5" class="node">
<title>4</title>
<ellipse fill="none" stroke="black" cx="251" cy="-18" rx="27" ry="18"/>
<text text-anchor="middle" x="251" y="-14.3" font-family="Times,serif" font-size="14.00">de</text>
</g>
<!-- 0&#45;&gt;4 -->
<g id="edge4" class="edge">
<title>0&#45;&gt;4</title>
<path fill="none" stroke="black" d="M1339.94,-103.76C1204.99,-102.45 603.87,-95.23 419,-69 359.13,-60.51 343.95,-56.34 287,-36 285.14,-35.34 283.26,-34.61 281.37,-33.84"/>
<polygon fill="black" stroke="black" points="282.59,-30.56 272.03,-29.77 279.8,-36.98 282.59,-30.56"/>
<text text-anchor="middle" x="432.5" y="-57.8" font-family="Times,serif" font-size="14.00">dep</text>
</g>
<!-- 5 -->
<g id="node6" class="node">
<title>5</title>
<ellipse fill="none" stroke="black" cx="353" cy="-18" rx="56.59" ry="18"/>
<text text-anchor="middle" x="353" y="-14.3" font-family="Times,serif" font-size="14.00">dezembro</text>
</g>
<!-- 0&#45;&gt;5 -->
<g id="edge5" class="edge">
<title>0&#45;&gt;5</title>
<path fill="none" stroke="black" d="M1339.86,-103.91C1212.23,-103.32 670.98,-99.07 505,-69 466.89,-62.1 425.21,-47.88 395.15,-36.37"/>
<polygon fill="black" stroke="black" points="396.41,-33.1 385.82,-32.74 393.87,-39.63 396.41,-33.1"/>
<text text-anchor="middle" x="518.5" y="-57.8" font-family="Times,serif" font-size="14.00">dep</text>
</g>
<!-- 6 -->
<g id="node7" class="node">
<title>6</title>
<ellipse fill="none" stroke="black" cx="455" cy="-18" rx="27" ry="18"/>
<text text-anchor="middle" x="455" y="-14.3" font-family="Times,serif" font-size="14.00">de</text>
</g>
<!-- 0&#45;&gt;6 -->
<g id="edge6" class="edge">
<title>0&#45;&gt;6</title>
<path fill="none" stroke="black" d="M1339.86,-103.76C1220.31,-102.54 740.07,-96.01 592,-69 545.54,-60.52 534.88,-53.45 491,-36 489.17,-35.27 487.3,-34.5 485.42,-33.69"/>
<polygon fill="black" stroke="black" points="486.68,-30.42 476.13,-29.52 483.82,-36.8 486.68,-30.42"/>
<text text-anchor="middle" x="605.5" y="-57.8" font-family="Times,serif" font-size="14.00">dep</text>
</g>
<!-- 7 -->
<g id="node8" class="node">
<title>7</title>
<ellipse fill="none" stroke="black" cx="534" cy="-18" rx="34.39" ry="18"/>
<text text-anchor="middle" x="534" y="-14.3" font-family="Times,serif" font-size="14.00">1941</text>
</g>
<!-- 0&#45;&gt;7 -->
<g id="edge7" class="edge">
<title>0&#45;&gt;7</title>
<path fill="none" stroke="black" d="M1340.02,-103.56C1229.38,-101.6 810.12,-92.74 680,-69 640.81,-61.85 597.89,-46.14 568.79,-34.22"/>
<polygon fill="black" stroke="black" points="570.06,-30.96 559.48,-30.34 567.37,-37.42 570.06,-30.96"/>
<text text-anchor="middle" x="693.5" y="-57.8" font-family="Times,serif" font-size="14.00">dep</text>
</g>
<!-- 8 -->
<g id="node9" class="node">
<title>8</title>
<ellipse fill="none" stroke="black" cx="613" cy="-18" rx="27" ry="18"/>
<text text-anchor="middle" x="613" y="-14.3" font-family="Times,serif" font-size="14.00">,</text>
</g>
<!-- 0&#45;&gt;8 -->
<g id="edge8" class="edge">
<title>0&#45;&gt;8</title>
<path fill="none" stroke="black" d="M1339.95,-103.82C1258.04,-102.95 1005.7,-97.93 799,-69 731.4,-59.54 713.6,-58.05 649,-36 647.09,-35.35 645.14,-34.62 643.19,-33.85"/>
<polygon fill="black" stroke="black" points="644.18,-30.46 633.61,-29.7 641.4,-36.88 644.18,-30.46"/>
<text text-anchor="middle" x="812.5" y="-57.8" font-family="Times,serif" font-size="14.00">dep</text>
</g>
<!-- 9 -->
<g id="node10" class="node">
<title>9</title>
<ellipse fill="none" stroke="black" cx="698" cy="-18" rx="40.09" ry="18"/>
<text text-anchor="middle" x="698" y="-14.3" font-family="Times,serif" font-size="14.00">aviões</text>
</g>
<!-- 0&#45;&gt;9 -->
<g id="edge9" class="edge">
<title>0&#45;&gt;9</title>
<path fill="none" stroke="black" d="M1339.95,-103.66C1252.68,-101.99 971.23,-92.3 747,-36 743.86,-35.21 740.63,-34.31 737.4,-33.34"/>
<polygon fill="black" stroke="black" points="738.4,-29.98 727.81,-30.28 736.27,-36.65 738.4,-29.98"/>
<text text-anchor="middle" x="928.5" y="-57.8" font-family="Times,serif" font-size="14.00">dep</text>
</g>
<!-- 10 -->
<g id="node11" class="node">
<title>10</title>
<ellipse fill="none" stroke="black" cx="813" cy="-18" rx="56.59" ry="18"/>
<text text-anchor="middle" x="813" y="-14.3" font-family="Times,serif" font-size="14.00">japoneses</text>
</g>
<!-- 0&#45;&gt;10 -->
<g id="edge10" class="edge">
<title>0&#45;&gt;10</title>
<path fill="none" stroke="black" d="M1340.26,-101.64C1266.21,-94.81 1052.38,-73.11 878,-36 873.39,-35.02 868.62,-33.93 863.86,-32.78"/>
<polygon fill="black" stroke="black" points="864.67,-29.38 854.13,-30.37 862.99,-36.17 864.67,-29.38"/>
<text text-anchor="middle" x="1079.5" y="-57.8" font-family="Times,serif" font-size="14.00">dep</text>
</g>
<!-- 11 -->
<g id="node12" class="node">
<title>11</title>
<ellipse fill="none" stroke="black" cx="960" cy="-18" rx="72.59" ry="18"/>
<text text-anchor="middle" x="960" y="-14.3" font-family="Times,serif" font-size="14.00">praticamente</text>
</g>
<!-- 0&#45;&gt;11 -->
<g id="edge11" class="edge">
<title>0&#45;&gt;11</title>
<path fill="none" stroke="black" d="M1340.87,-99.73C1303.54,-93.53 1232.82,-81.41 1173,-69 1120.84,-58.18 1061.89,-44.21 1019.26,-33.78"/>
<polygon fill="black" stroke="black" points="1019.88,-30.33 1009.33,-31.35 1018.21,-37.13 1019.88,-30.33"/>
<text text-anchor="middle" x="1186.5" y="-57.8" font-family="Times,serif" font-size="14.00">dep</text>
</g>
<!-- 12 -->
<g id="node13" class="node">
<title>12</title>
<ellipse fill="none" stroke="black" cx="1113" cy="-18" rx="62.29" ry="18"/>
<text text-anchor="middle" x="1113" y="-14.3" font-family="Times,serif" font-size="14.00">destruíram</text>
</g>
<!-- 0&#45;&gt;12 -->
<g id="edge12" class="edge">
<title>0&#45;&gt;12</title>
<path fill="none" stroke="black" d="M1342.09,-97.69C1316.91,-91.14 1276.96,-80.3 1243,-69 1213.93,-59.33 1181.8,-46.99 1156.75,-36.98"/>
<polygon fill="black" stroke="black" points="1157.76,-33.62 1147.18,-33.14 1155.15,-40.11 1157.76,-33.62"/>
<text text-anchor="middle" x="1256.5" y="-57.8" font-family="Times,serif" font-size="14.00">dep</text>
</g>
<!-- 13 -->
<g id="node14" class="node">
<title>13</title>
<ellipse fill="none" stroke="black" cx="1220" cy="-18" rx="27" ry="18"/>
<text text-anchor="middle" x="1220" y="-14.3" font-family="Times,serif" font-size="14.00">a</text>
</g>
<!-- 0&#45;&gt;13 -->
<g id="edge13" class="edge">
<title>0&#45;&gt;13</title>
<path fill="none" stroke="black" d="M1345.57,-93.82C1331.8,-87.11 1313.62,-77.94 1298,-69 1280.66,-59.08 1261.78,-47.01 1246.94,-37.22"/>
<polygon fill="black" stroke="black" points="1248.54,-34.08 1238.27,-31.45 1244.66,-39.91 1248.54,-34.08"/>
<text text-anchor="middle" x="1311.5" y="-57.8" font-family="Times,serif" font-size="14.00">dep</text>
</g>
<!-- 14 -->
<g id="node15" class="node">
<title>14</title>
<ellipse fill="none" stroke="black" cx="1298" cy="-18" rx="33.29" ry="18"/>
<text text-anchor="middle" x="1298" y="-14.3" font-family="Times,serif" font-size="14.00">frota</text>
</g>
<!-- 0&#45;&gt;14 -->
<g id="edge14" class="edge">
<title>0&#45;&gt;14</title>
<path fill="none" stroke="black" d="M1354.66,-88.8C1344.29,-76.03 1329.29,-57.55 1317.33,-42.81"/>
<polygon fill="black" stroke="black" points="1319.72,-40.2 1310.7,-34.64 1314.28,-44.61 1319.72,-40.2"/>
<text text-anchor="middle" x="1350.5" y="-57.8" font-family="Times,serif" font-size="14.00">dep</text>
</g>
<!-- 15 -->
<g id="node16" class="node">
<title>15</title>
<ellipse fill="none" stroke="black" cx="1436" cy="-18" rx="87.18" ry="18"/>
<text text-anchor="middle" x="1436" y="-14.3" font-family="Times,serif" font-size="14.00">norte&#45;americana</text>
</g>
<!-- 0&#45;&gt;15 -->
<g id="edge15" class="edge">
<title>0&#45;&gt;15</title>
<path fill="none" stroke="black" d="M1379.34,-88.8C1389.45,-76.35 1403.96,-58.47 1415.77,-43.92"/>
<polygon fill="black" stroke="black" points="1418.77,-45.78 1422.35,-35.81 1413.33,-41.37 1418.77,-45.78"/>
<text text-anchor="middle" x="1419.5" y="-57.8" font-family="Times,serif" font-size="14.00">dep</text>
</g>
<!-- 16 -->
<g id="node17" class="node">
<title>16</title>
<ellipse fill="none" stroke="black" cx="1568" cy="-18" rx="27" ry="18"/>
<text text-anchor="middle" x="1568" y="-14.3" font-family="Times,serif" font-size="14.00">em</text>
</g>
<!-- 0&#45;&gt;16 -->
<g id="edge16" class="edge">
<title>0&#45;&gt;16</title>
<path fill="none" stroke="black" d="M1389.57,-95.12C1421.49,-82.46 1481.55,-58.29 1532,-36 1533.8,-35.2 1535.65,-34.37 1537.51,-33.53"/>
<polygon fill="black" stroke="black" points="1539.16,-36.62 1546.76,-29.25 1536.22,-30.27 1539.16,-36.62"/>
<text text-anchor="middle" x="1500.5" y="-57.8" font-family="Times,serif" font-size="14.00">dep</text>
</g>
<!-- 17 -->
<g id="node18" class="node">
<title>17</title>
<ellipse fill="none" stroke="black" cx="1640" cy="-18" rx="27" ry="18"/>
<text text-anchor="middle" x="1640" y="-14.3" font-family="Times,serif" font-size="14.00">o</text>
</g>
<!-- 0&#45;&gt;17 -->
<g id="edge17" class="edge">
<title>0&#45;&gt;17</title>
<path fill="none" stroke="black" d="M1392.67,-99.18C1422.94,-93.24 1474.64,-82.27 1518,-69 1557.15,-57.02 1566.35,-52.09 1604,-36 1605.81,-35.23 1607.67,-34.41 1609.53,-33.58"/>
<polygon fill="black" stroke="black" points="1611.17,-36.68 1618.8,-29.33 1608.25,-30.32 1611.17,-36.68"/>
<text text-anchor="middle" x="1575.5" y="-57.8" font-family="Times,serif" font-size="14.00">dep</text>
</g>
<!-- 18 -->
<g id="node19" class="node">
<title>18</title>
<ellipse fill="none" stroke="black" cx="1731" cy="-18" rx="46.29" ry="18"/>
<text text-anchor="middle" x="1731" y="-14.3" font-family="Times,serif" font-size="14.00">Pacífico</text>
</g>
<!-- 0&#45;&gt;18 -->
<g id="edge18" class="edge">
<title>0&#45;&gt;18</title>
<path fill="none" stroke="black" d="M1393.78,-101.55C1436.44,-97.27 1522.23,-87.12 1593,-69 1626.97,-60.3 1664.29,-46.51 1691.55,-35.61"/>
<polygon fill="black" stroke="black" points="1693.15,-38.74 1701.11,-31.74 1690.53,-32.25 1693.15,-38.74"/>
<text text-anchor="middle" x="1653.5" y="-57.8" font-family="Times,serif" font-size="14.00">dep</text>
</g>
<!-- 19 -->
<g id="node20" class="node">
<title>19</title>
<ellipse fill="none" stroke="black" cx="1822" cy="-18" rx="27" ry="18"/>
<text text-anchor="middle" x="1822" y="-14.3" font-family="Times,serif" font-size="14.00">,</text>
</g>
<!-- 0&#45;&gt;19 -->
<g id="edge19" class="edge">
<title>0&#45;&gt;19</title>
<path fill="none" stroke="black" d="M1394.07,-102.39C1447.46,-98.87 1569.93,-89.18 1671,-69 1723.14,-58.59 1736.24,-54.75 1786,-36 1787.84,-35.31 1789.72,-34.55 1791.61,-33.77"/>
<polygon fill="black" stroke="black" points="1793.2,-36.89 1800.93,-29.65 1790.36,-30.49 1793.2,-36.89"/>
<text text-anchor="middle" x="1747.5" y="-57.8" font-family="Times,serif" font-size="14.00">dep</text>
</g>
<!-- 20 -->
<g id="node21" class="node">
<title>20</title>
<ellipse fill="none" stroke="black" cx="1920" cy="-18" rx="53.09" ry="18"/>
<text text-anchor="middle" x="1920" y="-14.3" font-family="Times,serif" font-size="14.00">ancorada</text>
</g>
<!-- 0&#45;&gt;20 -->
<g id="edge20" class="edge">
<title>0&#45;&gt;20</title>
<path fill="none" stroke="black" d="M1394.32,-103.7C1459.26,-102.53 1627.67,-96.82 1765,-69 1803.76,-61.15 1846.43,-46.95 1877.17,-35.69"/>
<polygon fill="black" stroke="black" points="1878.56,-38.91 1886.72,-32.14 1876.12,-32.34 1878.56,-38.91"/>
<text text-anchor="middle" x="1835.5" y="-57.8" font-family="Times,serif" font-size="14.00">dep</text>
</g>
<!-- 21 -->
<g id="node22" class="node">
<title>21</title>
<ellipse fill="none" stroke="black" cx="2018" cy="-18" rx="27" ry="18"/>
<text text-anchor="middle" x="2018" y="-14.3" font-family="Times,serif" font-size="14.00">em</text>
</g>
<!-- 0&#45;&gt;21 -->
<g id="edge21" class="edge">
<title>0&#45;&gt;21</title>
<path fill="none" stroke="black" d="M1394.07,-103.74C1468.06,-102.67 1679.74,-97.17 1853,-69 1911.41,-59.5 1926.32,-56.06 1982,-36 1983.85,-35.33 1985.74,-34.6 1987.63,-33.83"/>
<polygon fill="black" stroke="black" points="1989.2,-36.97 1996.96,-29.75 1986.4,-30.55 1989.2,-36.97"/>
<text text-anchor="middle" x="1941.5" y="-57.8" font-family="Times,serif" font-size="14.00">dep</text>
</g>
<!-- 22 -->
<g id="node23" class="node">
<title>22</title>
<ellipse fill="none" stroke="black" cx="2097" cy="-18" rx="34.39" ry="18"/>
<text text-anchor="middle" x="2097" y="-14.3" font-family="Times,serif" font-size="14.00">Pearl</text>
</g>
<!-- 0&#45;&gt;22 -->
<g id="edge22" class="edge">
<title>0&#45;&gt;22</title>
<path fill="none" stroke="black" d="M1393.94,-103.39C1494.61,-100.96 1848.56,-91.01 1959,-69 1995.5,-61.73 2035.28,-46.48 2062.7,-34.72"/>
<polygon fill="black" stroke="black" points="2064.46,-37.77 2072.22,-30.57 2061.66,-31.36 2064.46,-37.77"/>
<text text-anchor="middle" x="2023.5" y="-57.8" font-family="Times,serif" font-size="14.00">dep</text>
</g>
<!-- 23 -->
<g id="node24" class="node">
<title>23</title>
<ellipse fill="none" stroke="black" cx="2199" cy="-18" rx="50.09" ry="18"/>
<text text-anchor="middle" x="2199" y="-14.3" font-family="Times,serif" font-size="14.00">Harbour</text>
</g>
<!-- 0&#45;&gt;23 -->
<g id="edge23" class="edge">
<title>0&#45;&gt;23</title>
<path fill="none" stroke="black" d="M1394.21,-103.51C1503.86,-101.39 1913.6,-92.08 2041,-69 2081.23,-61.71 2125.49,-47.11 2156.9,-35.55"/>
<polygon fill="black" stroke="black" points="2158.49,-38.7 2166.63,-31.92 2156.04,-32.14 2158.49,-38.7"/>
<text text-anchor="middle" x="2112.5" y="-57.8" font-family="Times,serif" font-size="14.00">dep</text>
</g>
<!-- 24 -->
<g id="node25" class="node">
<title>24</title>
<ellipse fill="none" stroke="black" cx="2294" cy="-18" rx="27" ry="18"/>
<text text-anchor="middle" x="2294" y="-14.3" font-family="Times,serif" font-size="14.00">,</text>
</g>
<!-- 0&#45;&gt;24 -->
<g id="edge24" class="edge">
<title>0&#45;&gt;24</title>
<path fill="none" stroke="black" d="M1394.08,-103.51C1512.28,-101.24 1983.62,-90.98 2130,-69 2188.1,-60.27 2202.75,-55.97 2258,-36 2259.85,-35.33 2261.74,-34.6 2263.63,-33.83"/>
<polygon fill="black" stroke="black" points="2265.2,-36.96 2272.96,-29.75 2262.4,-30.55 2265.2,-36.96"/>
<text text-anchor="middle" x="2217.5" y="-57.8" font-family="Times,serif" font-size="14.00">dep</text>
</g>
<!-- 25 -->
<g id="node26" class="node">
<title>25</title>
<ellipse fill="none" stroke="black" cx="2366" cy="-18" rx="27" ry="18"/>
<text text-anchor="middle" x="2366" y="-14.3" font-family="Times,serif" font-size="14.00">em</text>
</g>
<!-- 0&#45;&gt;25 -->
<g id="edge25" class="edge">
<title>0&#45;&gt;25</title>
<path fill="none" stroke="black" d="M1394.34,-103.98C1522.91,-103.7 2068.11,-100.63 2235,-69 2270.84,-62.21 2309.61,-46.23 2335.6,-34.16"/>
<polygon fill="black" stroke="black" points="2337.36,-37.19 2344.9,-29.74 2334.36,-30.87 2337.36,-37.19"/>
<text text-anchor="middle" x="2300.5" y="-57.8" font-family="Times,serif" font-size="14.00">dep</text>
</g>
<!-- 26 -->
<g id="node27" class="node">
<title>26</title>
<ellipse fill="none" stroke="black" cx="2438" cy="-18" rx="27" ry="18"/>
<text text-anchor="middle" x="2438" y="-14.3" font-family="Times,serif" font-size="14.00">o</text>
</g>
<!-- 0&#45;&gt;26 -->
<g id="edge26" class="edge">
<title>0&#45;&gt;26</title>
<path fill="none" stroke="black" d="M1394.23,-104.23C1530,-105.2 2134.63,-107.23 2318,-69 2350.43,-62.24 2385.12,-46.79 2408.82,-34.85"/>
<polygon fill="black" stroke="black" points="2410.67,-37.83 2417.95,-30.14 2407.46,-31.61 2410.67,-37.83"/>
<text text-anchor="middle" x="2379.5" y="-57.8" font-family="Times,serif" font-size="14.00">dep</text>
</g>
<!-- 27 -->
<g id="node28" class="node">
<title>27</title>
<ellipse fill="none" stroke="black" cx="2521" cy="-18" rx="37.89" ry="18"/>
<text text-anchor="middle" x="2521" y="-14.3" font-family="Times,serif" font-size="14.00">Havaí</text>
</g>
<!-- 0&#45;&gt;27 -->
<g id="edge27" class="edge">
<title>0&#45;&gt;27</title>
<path fill="none" stroke="black" d="M1394.1,-103.64C1546.78,-101.56 2296.46,-90.29 2397,-69 2428.88,-62.25 2463.08,-47.87 2487.47,-36.26"/>
<polygon fill="black" stroke="black" points="2489.17,-39.32 2496.63,-31.8 2486.11,-33.03 2489.17,-39.32"/>
<text text-anchor="middle" x="2460.5" y="-57.8" font-family="Times,serif" font-size="14.00">dep</text>
</g>
<!-- 28 -->
<g id="node29" class="node">
<title>28</title>
<ellipse fill="none" stroke="black" cx="2604" cy="-18" rx="27" ry="18"/>
<text text-anchor="middle" x="2604" y="-14.3" font-family="Times,serif" font-size="14.00">.</text>
</g>
<!-- 0&#45;&gt;28 -->
<g id="edge28" class="edge">
<title>0&#45;&gt;28</title>
<path fill="none" stroke="black" d="M1394.1,-103.66C1553.79,-101.62 2368.71,-90.19 2478,-69 2512.27,-62.36 2549.12,-46.63 2574.06,-34.57"/>
<polygon fill="black" stroke="black" points="2575.91,-37.56 2583.33,-30 2572.81,-31.29 2575.91,-37.56"/>
<text text-anchor="middle" x="2541.5" y="-57.8" font-family="Times,serif" font-size="14.00">dep</text>
</g>
</g>
</svg>
