<?xml version="1.0" encoding="UTF-8" standalone="no"?>
<!DOCTYPE svg PUBLIC "-//W3C//DTD SVG 1.1//EN"
 "http://www.w3.org/Graphics/SVG/1.1/DTD/svg11.dtd">
<!-- Generated by graphviz version 2.42.4 (0)
 -->
<!-- Pages: 1 -->
<svg width="5654pt" height="131pt"
 viewBox="0.00 0.00 5653.69 131.00" xmlns="http://www.w3.org/2000/svg" xmlns:xlink="http://www.w3.org/1999/xlink">
<g id="graph0" class="graph" transform="scale(1 1) rotate(0) translate(4 127)">
<polygon fill="white" stroke="transparent" points="-4,4 -4,-127 5649.69,-127 5649.69,4 -4,4"/>
<!-- 0 -->
<g id="node1" class="node">
<title>0</title>
<ellipse fill="none" stroke="black" cx="2865.69" cy="-105" rx="27" ry="18"/>
<text text-anchor="middle" x="2865.69" y="-101.3" font-family="Times,serif" font-size="14.00">A</text>
</g>
<!-- 1 -->
<g id="node2" class="node">
<title>1</title>
<ellipse fill="none" stroke="black" cx="63.69" cy="-18" rx="63.89" ry="18"/>
<text text-anchor="middle" x="63.69" y="-14.3" font-family="Times,serif" font-size="14.00">Assembleia</text>
</g>
<!-- 0&#45;&gt;1 -->
<g id="edge1" class="edge">
<title>0&#45;&gt;1</title>
<path fill="none" stroke="black" d="M2838.62,-103.98C2579.95,-103.71 549.5,-100.61 282.69,-69 224.85,-62.15 159.95,-46.27 115.92,-34.23"/>
<polygon fill="black" stroke="black" points="116.6,-30.79 106.03,-31.49 114.73,-37.53 116.6,-30.79"/>
<text text-anchor="middle" x="296.19" y="-57.8" font-family="Times,serif" font-size="14.00">dep</text>
</g>
<!-- 2 -->
<g id="node3" class="node">
<title>2</title>
<ellipse fill="none" stroke="black" cx="213.69" cy="-18" rx="68.49" ry="18"/>
<text text-anchor="middle" x="213.69" y="-14.3" font-family="Times,serif" font-size="14.00">Parlamentar</text>
</g>
<!-- 0&#45;&gt;2 -->
<g id="edge2" class="edge">
<title>0&#45;&gt;2</title>
<path fill="none" stroke="black" d="M2838.41,-104.08C2584.17,-104.79 632.98,-108.89 377.69,-69 336.92,-62.63 292.2,-48.49 259.77,-36.87"/>
<polygon fill="black" stroke="black" points="260.72,-33.49 250.12,-33.35 258.32,-40.07 260.72,-33.49"/>
<text text-anchor="middle" x="391.19" y="-57.8" font-family="Times,serif" font-size="14.00">dep</text>
</g>
<!-- 3 -->
<g id="node4" class="node">
<title>3</title>
<ellipse fill="none" stroke="black" cx="326.69" cy="-18" rx="27" ry="18"/>
<text text-anchor="middle" x="326.69" y="-14.3" font-family="Times,serif" font-size="14.00">de</text>
</g>
<!-- 0&#45;&gt;3 -->
<g id="edge3" class="edge">
<title>0&#45;&gt;3</title>
<path fill="none" stroke="black" d="M2838.54,-104.11C2589.55,-105.1 706.61,-111.13 460.69,-69 423.64,-62.65 383.54,-46.32 356.96,-34.04"/>
<polygon fill="black" stroke="black" points="358.35,-30.82 347.82,-29.72 355.37,-37.16 358.35,-30.82"/>
<text text-anchor="middle" x="474.19" y="-57.8" font-family="Times,serif" font-size="14.00">dep</text>
</g>
<!-- 4 -->
<g id="node5" class="node">
<title>4</title>
<ellipse fill="none" stroke="black" cx="398.69" cy="-18" rx="27" ry="18"/>
<text text-anchor="middle" x="398.69" y="-14.3" font-family="Times,serif" font-size="14.00">a</text>
</g>
<!-- 0&#45;&gt;4 -->
<g id="edge4" class="edge">
<title>0&#45;&gt;4</title>
<path fill="none" stroke="black" d="M2838.71,-103.94C2597.11,-103.4 809.28,-98.41 573.69,-69 510.69,-61.14 494.61,-57 434.69,-36 432.79,-35.33 430.84,-34.59 428.9,-33.81"/>
<polygon fill="black" stroke="black" points="429.89,-30.42 419.33,-29.64 427.1,-36.84 429.89,-30.42"/>
<text text-anchor="middle" x="587.19" y="-57.8" font-family="Times,serif" font-size="14.00">dep</text>
</g>
<!-- 5 -->
<g id="node6" class="node">
<title>5</title>
<ellipse fill="none" stroke="black" cx="509.69" cy="-18" rx="65.79" ry="18"/>
<text text-anchor="middle" x="509.69" y="-14.3" font-family="Times,serif" font-size="14.00">Francofonia</text>
</g>
<!-- 0&#45;&gt;5 -->
<g id="edge5" class="edge">
<title>0&#45;&gt;5</title>
<path fill="none" stroke="black" d="M2838.66,-104.05C2602.2,-104.47 889.27,-106.16 664.69,-69 626.18,-62.63 584.13,-48.59 553.55,-37"/>
<polygon fill="black" stroke="black" points="554.64,-33.67 544.05,-33.34 552.12,-40.2 554.64,-33.67"/>
<text text-anchor="middle" x="678.19" y="-57.8" font-family="Times,serif" font-size="14.00">dep</text>
</g>
<!-- 6 -->
<g id="node7" class="node">
<title>6</title>
<ellipse fill="none" stroke="black" cx="620.69" cy="-18" rx="27" ry="18"/>
<text text-anchor="middle" x="620.69" y="-14.3" font-family="Times,serif" font-size="14.00">(</text>
</g>
<!-- 0&#45;&gt;6 -->
<g id="edge6" class="edge">
<title>0&#45;&gt;6</title>
<path fill="none" stroke="black" d="M2838.53,-104.12C2606.32,-105.06 958.89,-110.28 743.69,-69 710.12,-62.56 674.16,-46.8 649.85,-34.68"/>
<polygon fill="black" stroke="black" points="651.32,-31.5 640.82,-30.08 648.14,-37.74 651.32,-31.5"/>
<text text-anchor="middle" x="757.19" y="-57.8" font-family="Times,serif" font-size="14.00">dep</text>
</g>
<!-- 7 -->
<g id="node8" class="node">
<title>7</title>
<ellipse fill="none" stroke="black" cx="695.69" cy="-18" rx="29.8" ry="18"/>
<text text-anchor="middle" x="695.69" y="-14.3" font-family="Times,serif" font-size="14.00">APF</text>
</g>
<!-- 0&#45;&gt;7 -->
<g id="edge7" class="edge">
<title>0&#45;&gt;7</title>
<path fill="none" stroke="black" d="M2838.51,-104.08C2611.4,-104.64 1032.52,-107.17 825.69,-69 790.69,-62.54 752.96,-46.98 727.21,-34.92"/>
<polygon fill="black" stroke="black" points="728.49,-31.65 717.96,-30.49 725.47,-37.96 728.49,-31.65"/>
<text text-anchor="middle" x="839.19" y="-57.8" font-family="Times,serif" font-size="14.00">dep</text>
</g>
<!-- 8 -->
<g id="node9" class="node">
<title>8</title>
<ellipse fill="none" stroke="black" cx="770.69" cy="-18" rx="27" ry="18"/>
<text text-anchor="middle" x="770.69" y="-14.3" font-family="Times,serif" font-size="14.00">,</text>
</g>
<!-- 0&#45;&gt;8 -->
<g id="edge8" class="edge">
<title>0&#45;&gt;8</title>
<path fill="none" stroke="black" d="M2838.46,-103.93C2617.47,-103.33 1121.35,-98.16 923.69,-69 870.24,-61.11 857.3,-54.93 806.69,-36 804.85,-35.31 802.97,-34.56 801.08,-33.78"/>
<polygon fill="black" stroke="black" points="802.32,-30.5 791.76,-29.66 799.5,-36.9 802.32,-30.5"/>
<text text-anchor="middle" x="937.19" y="-57.8" font-family="Times,serif" font-size="14.00">dep</text>
</g>
<!-- 9 -->
<g id="node10" class="node">
<title>9</title>
<ellipse fill="none" stroke="black" cx="867.69" cy="-18" rx="51.99" ry="18"/>
<text text-anchor="middle" x="867.69" y="-14.3" font-family="Times,serif" font-size="14.00">ex&#45;AIPLF</text>
</g>
<!-- 0&#45;&gt;9 -->
<g id="edge9" class="edge">
<title>0&#45;&gt;9</title>
<path fill="none" stroke="black" d="M2838.65,-104.01C2623.92,-104 1198.24,-102.67 1010.69,-69 974.69,-62.54 935.59,-48.33 907.39,-36.71"/>
<polygon fill="black" stroke="black" points="908.47,-33.37 897.9,-32.73 905.76,-39.82 908.47,-33.37"/>
<text text-anchor="middle" x="1024.19" y="-57.8" font-family="Times,serif" font-size="14.00">dep</text>
</g>
<!-- 10 -->
<g id="node11" class="node">
<title>10</title>
<ellipse fill="none" stroke="black" cx="964.69" cy="-18" rx="27" ry="18"/>
<text text-anchor="middle" x="964.69" y="-14.3" font-family="Times,serif" font-size="14.00">)</text>
</g>
<!-- 0&#45;&gt;10 -->
<g id="edge10" class="edge">
<title>0&#45;&gt;10</title>
<path fill="none" stroke="black" d="M2838.49,-104.01C2628.55,-103.99 1269.52,-102.57 1090.69,-69 1056.39,-62.56 1019.54,-46.8 994.61,-34.68"/>
<polygon fill="black" stroke="black" points="995.86,-31.39 985.35,-30.08 992.75,-37.66 995.86,-31.39"/>
<text text-anchor="middle" x="1104.19" y="-57.8" font-family="Times,serif" font-size="14.00">dep</text>
</g>
<!-- 11 -->
<g id="node12" class="node">
<title>11</title>
<ellipse fill="none" stroke="black" cx="1036.69" cy="-18" rx="27" ry="18"/>
<text text-anchor="middle" x="1036.69" y="-14.3" font-family="Times,serif" font-size="14.00">,</text>
</g>
<!-- 0&#45;&gt;11 -->
<g id="edge11" class="edge">
<title>0&#45;&gt;11</title>
<path fill="none" stroke="black" d="M2838.66,-103.87C2635.67,-102.88 1353.69,-95.54 1183.69,-69 1132.84,-61.06 1120.77,-54.37 1072.69,-36 1070.85,-35.3 1068.98,-34.54 1067.1,-33.75"/>
<polygon fill="black" stroke="black" points="1068.34,-30.47 1057.78,-29.61 1065.5,-36.87 1068.34,-30.47"/>
<text text-anchor="middle" x="1197.19" y="-57.8" font-family="Times,serif" font-size="14.00">dep</text>
</g>
<!-- 12 -->
<g id="node13" class="node">
<title>12</title>
<ellipse fill="none" stroke="black" cx="1127.69" cy="-18" rx="46.29" ry="18"/>
<text text-anchor="middle" x="1127.69" y="-14.3" font-family="Times,serif" font-size="14.00">reunida</text>
</g>
<!-- 0&#45;&gt;12 -->
<g id="edge12" class="edge">
<title>0&#45;&gt;12</title>
<path fill="none" stroke="black" d="M2838.47,-103.92C2640.87,-103.28 1429.88,-98.19 1269.69,-69 1233.35,-62.38 1193.86,-47.83 1165.77,-36.12"/>
<polygon fill="black" stroke="black" points="1166.9,-32.8 1156.33,-32.12 1164.17,-39.25 1166.9,-32.8"/>
<text text-anchor="middle" x="1283.19" y="-57.8" font-family="Times,serif" font-size="14.00">dep</text>
</g>
<!-- 13 -->
<g id="node14" class="node">
<title>13</title>
<ellipse fill="none" stroke="black" cx="1218.69" cy="-18" rx="27" ry="18"/>
<text text-anchor="middle" x="1218.69" y="-14.3" font-family="Times,serif" font-size="14.00">em</text>
</g>
<!-- 0&#45;&gt;13 -->
<g id="edge13" class="edge">
<title>0&#45;&gt;13</title>
<path fill="none" stroke="black" d="M2838.47,-103.84C2647.25,-102.64 1509.01,-94.45 1357.69,-69 1310.29,-61.03 1299.41,-53.63 1254.69,-36 1252.86,-35.28 1250.99,-34.5 1249.11,-33.7"/>
<polygon fill="black" stroke="black" points="1250.37,-30.43 1239.81,-29.54 1247.51,-36.82 1250.37,-30.43"/>
<text text-anchor="middle" x="1371.19" y="-57.8" font-family="Times,serif" font-size="14.00">dep</text>
</g>
<!-- 14 -->
<g id="node15" class="node">
<title>14</title>
<ellipse fill="none" stroke="black" cx="1309.69" cy="-18" rx="46.29" ry="18"/>
<text text-anchor="middle" x="1309.69" y="-14.3" font-family="Times,serif" font-size="14.00">Abidjan</text>
</g>
<!-- 0&#45;&gt;14 -->
<g id="edge14" class="edge">
<title>0&#45;&gt;14</title>
<path fill="none" stroke="black" d="M2838.74,-103.9C2654.25,-103.12 1580.78,-97.38 1438.69,-69 1406.32,-62.53 1371.53,-48.6 1346.24,-37.08"/>
<polygon fill="black" stroke="black" points="1347.58,-33.84 1337.04,-32.8 1344.63,-40.19 1347.58,-33.84"/>
<text text-anchor="middle" x="1452.19" y="-57.8" font-family="Times,serif" font-size="14.00">dep</text>
</g>
<!-- 15 -->
<g id="node16" class="node">
<title>15</title>
<ellipse fill="none" stroke="black" cx="1400.69" cy="-18" rx="27" ry="18"/>
<text text-anchor="middle" x="1400.69" y="-14.3" font-family="Times,serif" font-size="14.00">,</text>
</g>
<!-- 0&#45;&gt;15 -->
<g id="edge15" class="edge">
<title>0&#45;&gt;15</title>
<path fill="none" stroke="black" d="M2838.46,-103.9C2658.93,-103.19 1648.35,-97.92 1514.69,-69 1484.2,-62.4 1451.84,-47.34 1429.42,-35.47"/>
<polygon fill="black" stroke="black" points="1430.92,-32.29 1420.46,-30.6 1427.58,-38.45 1430.92,-32.29"/>
<text text-anchor="middle" x="1528.19" y="-57.8" font-family="Times,serif" font-size="14.00">dep</text>
</g>
<!-- 16 -->
<g id="node17" class="node">
<title>16</title>
<ellipse fill="none" stroke="black" cx="1472.69" cy="-18" rx="27" ry="18"/>
<text text-anchor="middle" x="1472.69" y="-14.3" font-family="Times,serif" font-size="14.00">em</text>
</g>
<!-- 0&#45;&gt;16 -->
<g id="edge16" class="edge">
<title>0&#45;&gt;16</title>
<path fill="none" stroke="black" d="M2838.67,-103.82C2665.83,-102.58 1718.62,-94.65 1592.69,-69 1560.23,-62.39 1525.55,-46.92 1501.86,-34.93"/>
<polygon fill="black" stroke="black" points="1503.22,-31.69 1492.73,-30.2 1500,-37.91 1503.22,-31.69"/>
<text text-anchor="middle" x="1606.19" y="-57.8" font-family="Times,serif" font-size="14.00">dep</text>
</g>
<!-- 17 -->
<g id="node18" class="node">
<title>17</title>
<ellipse fill="none" stroke="black" cx="1544.69" cy="-18" rx="27" ry="18"/>
<text text-anchor="middle" x="1544.69" y="-14.3" font-family="Times,serif" font-size="14.00">a</text>
</g>
<!-- 0&#45;&gt;17 -->
<g id="edge17" class="edge">
<title>0&#45;&gt;17</title>
<path fill="none" stroke="black" d="M2838.56,-103.7C2672.12,-101.81 1792.47,-90.86 1674.69,-69 1639.07,-62.39 1600.6,-46.38 1574.83,-34.25"/>
<polygon fill="black" stroke="black" points="1576.14,-30.99 1565.61,-29.82 1573.11,-37.3 1576.14,-30.99"/>
<text text-anchor="middle" x="1688.19" y="-57.8" font-family="Times,serif" font-size="14.00">dep</text>
</g>
<!-- 18 -->
<g id="node19" class="node">
<title>18</title>
<ellipse fill="none" stroke="black" cx="1626.69" cy="-18" rx="37.09" ry="18"/>
<text text-anchor="middle" x="1626.69" y="-14.3" font-family="Times,serif" font-size="14.00">Costa</text>
</g>
<!-- 0&#45;&gt;18 -->
<g id="edge18" class="edge">
<title>0&#45;&gt;18</title>
<path fill="none" stroke="black" d="M2838.61,-103.69C2679.03,-101.81 1864.69,-91.17 1755.69,-69 1722.3,-62.21 1686.3,-47.59 1660.84,-35.9"/>
<polygon fill="black" stroke="black" points="1662.16,-32.66 1651.62,-31.59 1659.2,-39 1662.16,-32.66"/>
<text text-anchor="middle" x="1769.19" y="-57.8" font-family="Times,serif" font-size="14.00">dep</text>
</g>
<!-- 19 -->
<g id="node20" class="node">
<title>19</title>
<ellipse fill="none" stroke="black" cx="1708.69" cy="-18" rx="27" ry="18"/>
<text text-anchor="middle" x="1708.69" y="-14.3" font-family="Times,serif" font-size="14.00">de</text>
</g>
<!-- 0&#45;&gt;19 -->
<g id="edge19" class="edge">
<title>0&#45;&gt;19</title>
<path fill="none" stroke="black" d="M2838.64,-104.21C2696.69,-105.15 2036.83,-107.32 1836.69,-69 1801.58,-62.28 1763.72,-46.29 1738.35,-34.19"/>
<polygon fill="black" stroke="black" points="1739.8,-31 1729.28,-29.77 1736.73,-37.3 1739.8,-31"/>
<text text-anchor="middle" x="1850.19" y="-57.8" font-family="Times,serif" font-size="14.00">dep</text>
</g>
<!-- 20 -->
<g id="node21" class="node">
<title>20</title>
<ellipse fill="none" stroke="black" cx="1780.69" cy="-18" rx="27" ry="18"/>
<text text-anchor="middle" x="1780.69" y="-14.3" font-family="Times,serif" font-size="14.00">o</text>
</g>
<!-- 0&#45;&gt;20 -->
<g id="edge20" class="edge">
<title>0&#45;&gt;20</title>
<path fill="none" stroke="black" d="M2838.73,-103.82C2705.56,-102.82 2117.34,-96.86 1936.69,-69 1882.03,-60.57 1868.56,-55.21 1816.69,-36 1814.85,-35.32 1812.97,-34.57 1811.08,-33.79"/>
<polygon fill="black" stroke="black" points="1812.32,-30.51 1801.75,-29.69 1809.5,-36.92 1812.32,-30.51"/>
<text text-anchor="middle" x="1950.19" y="-57.8" font-family="Times,serif" font-size="14.00">dep</text>
</g>
<!-- 21 -->
<g id="node22" class="node">
<title>21</title>
<ellipse fill="none" stroke="black" cx="1869.69" cy="-18" rx="44.39" ry="18"/>
<text text-anchor="middle" x="1869.69" y="-14.3" font-family="Times,serif" font-size="14.00">Marfim</text>
</g>
<!-- 0&#45;&gt;21 -->
<g id="edge21" class="edge">
<title>0&#45;&gt;21</title>
<path fill="none" stroke="black" d="M2838.35,-103.86C2712.18,-103.07 2185.52,-98.07 2023.69,-69 1983.63,-61.8 1939.61,-46.75 1908.93,-35.03"/>
<polygon fill="black" stroke="black" points="1910.05,-31.71 1899.46,-31.35 1907.52,-38.23 1910.05,-31.71"/>
<text text-anchor="middle" x="2037.19" y="-57.8" font-family="Times,serif" font-size="14.00">dep</text>
</g>
<!-- 22 -->
<g id="node23" class="node">
<title>22</title>
<ellipse fill="none" stroke="black" cx="1958.69" cy="-18" rx="27" ry="18"/>
<text text-anchor="middle" x="1958.69" y="-14.3" font-family="Times,serif" font-size="14.00">,</text>
</g>
<!-- 0&#45;&gt;22 -->
<g id="edge22" class="edge">
<title>0&#45;&gt;22</title>
<path fill="none" stroke="black" d="M2838.49,-104.27C2743.13,-104.89 2415.28,-104.14 2147.69,-69 2078.72,-59.94 2060.58,-58.33 1994.69,-36 1992.78,-35.35 1990.83,-34.63 1988.89,-33.86"/>
<polygon fill="black" stroke="black" points="1989.87,-30.47 1979.3,-29.72 1987.09,-36.9 1989.87,-30.47"/>
<text text-anchor="middle" x="2161.19" y="-57.8" font-family="Times,serif" font-size="14.00">dep</text>
</g>
<!-- 23 -->
<g id="node24" class="node">
<title>23</title>
<ellipse fill="none" stroke="black" cx="2058.69" cy="-18" rx="55.49" ry="18"/>
<text text-anchor="middle" x="2058.69" y="-14.3" font-family="Times,serif" font-size="14.00">condenou</text>
</g>
<!-- 0&#45;&gt;23 -->
<g id="edge23" class="edge">
<title>0&#45;&gt;23</title>
<path fill="none" stroke="black" d="M2838.59,-104.44C2751.73,-105.43 2472.71,-105.36 2245.69,-69 2197.11,-61.22 2142.93,-45.98 2105.45,-34.36"/>
<polygon fill="black" stroke="black" points="2106.4,-31 2095.81,-31.34 2104.31,-37.68 2106.4,-31"/>
<text text-anchor="middle" x="2259.19" y="-57.8" font-family="Times,serif" font-size="14.00">dep</text>
</g>
<!-- 24 -->
<g id="node25" class="node">
<title>24</title>
<ellipse fill="none" stroke="black" cx="2172.69" cy="-18" rx="40.09" ry="18"/>
<text text-anchor="middle" x="2172.69" y="-14.3" font-family="Times,serif" font-size="14.00">ontem</text>
</g>
<!-- 0&#45;&gt;24 -->
<g id="edge24" class="edge">
<title>0&#45;&gt;24</title>
<path fill="none" stroke="black" d="M2838.7,-104.26C2760.32,-104.59 2526.2,-102.46 2335.69,-69 2292.36,-61.39 2244.41,-45.76 2211.8,-33.99"/>
<polygon fill="black" stroke="black" points="2212.79,-30.63 2202.19,-30.48 2210.38,-37.2 2212.79,-30.63"/>
<text text-anchor="middle" x="2349.19" y="-57.8" font-family="Times,serif" font-size="14.00">dep</text>
</g>
<!-- 25 -->
<g id="node26" class="node">
<title>25</title>
<ellipse fill="none" stroke="black" cx="2257.69" cy="-18" rx="27" ry="18"/>
<text text-anchor="middle" x="2257.69" y="-14.3" font-family="Times,serif" font-size="14.00">a</text>
</g>
<!-- 0&#45;&gt;25 -->
<g id="edge25" class="edge">
<title>0&#45;&gt;25</title>
<path fill="none" stroke="black" d="M2838.57,-102.2C2776.37,-97.92 2618.71,-86.18 2487.69,-69 2400.98,-57.63 2377.12,-62.25 2293.69,-36 2291.77,-35.39 2289.81,-34.7 2287.85,-33.96"/>
<polygon fill="black" stroke="black" points="2288.82,-30.56 2278.25,-29.88 2286.08,-37.01 2288.82,-30.56"/>
<text text-anchor="middle" x="2501.19" y="-57.8" font-family="Times,serif" font-size="14.00">dep</text>
</g>
<!-- 26 -->
<g id="node27" class="node">
<title>26</title>
<ellipse fill="none" stroke="black" cx="2365.69" cy="-18" rx="63.09" ry="18"/>
<text text-anchor="middle" x="2365.69" y="-14.3" font-family="Times,serif" font-size="14.00">insurreição</text>
</g>
<!-- 0&#45;&gt;26 -->
<g id="edge26" class="edge">
<title>0&#45;&gt;26</title>
<path fill="none" stroke="black" d="M2838.95,-101.28C2790.07,-96.15 2683.11,-84.19 2593.69,-69 2523.83,-57.13 2506.85,-51.48 2437.69,-36 2432.73,-34.89 2427.58,-33.71 2422.42,-32.52"/>
<polygon fill="black" stroke="black" points="2423.05,-29.08 2412.52,-30.22 2421.47,-35.9 2423.05,-29.08"/>
<text text-anchor="middle" x="2607.19" y="-57.8" font-family="Times,serif" font-size="14.00">dep</text>
</g>
<!-- 27 -->
<g id="node28" class="node">
<title>27</title>
<ellipse fill="none" stroke="black" cx="2522.69" cy="-18" rx="76.09" ry="18"/>
<text text-anchor="middle" x="2522.69" y="-14.3" font-family="Times,serif" font-size="14.00">desencadeada</text>
</g>
<!-- 0&#45;&gt;27 -->
<g id="edge27" class="edge">
<title>0&#45;&gt;27</title>
<path fill="none" stroke="black" d="M2839.33,-100.28C2802.42,-94.82 2733.39,-83.67 2675.69,-69 2640.53,-60.06 2601.69,-47.33 2571.94,-36.95"/>
<polygon fill="black" stroke="black" points="2572.81,-33.55 2562.21,-33.53 2570.48,-40.15 2572.81,-33.55"/>
<text text-anchor="middle" x="2689.19" y="-57.8" font-family="Times,serif" font-size="14.00">dep</text>
</g>
<!-- 28 -->
<g id="node29" class="node">
<title>28</title>
<ellipse fill="none" stroke="black" cx="2643.69" cy="-18" rx="27" ry="18"/>
<text text-anchor="middle" x="2643.69" y="-14.3" font-family="Times,serif" font-size="14.00">há</text>
</g>
<!-- 0&#45;&gt;28 -->
<g id="edge28" class="edge">
<title>0&#45;&gt;28</title>
<path fill="none" stroke="black" d="M2840.14,-98.77C2813.91,-93 2772.17,-82.68 2737.69,-69 2714.62,-59.84 2689.88,-46.53 2671.58,-35.94"/>
<polygon fill="black" stroke="black" points="2673.29,-32.89 2662.89,-30.85 2669.75,-38.93 2673.29,-32.89"/>
<text text-anchor="middle" x="2751.19" y="-57.8" font-family="Times,serif" font-size="14.00">dep</text>
</g>
<!-- 29 -->
<g id="node30" class="node">
<title>29</title>
<ellipse fill="none" stroke="black" cx="2715.69" cy="-18" rx="27" ry="18"/>
<text text-anchor="middle" x="2715.69" y="-14.3" font-family="Times,serif" font-size="14.00">um</text>
</g>
<!-- 0&#45;&gt;29 -->
<g id="edge29" class="edge">
<title>0&#45;&gt;29</title>
<path fill="none" stroke="black" d="M2843.59,-94.52C2828.67,-87.89 2808.67,-78.54 2791.69,-69 2774.59,-59.39 2756.19,-47.33 2741.78,-37.47"/>
<polygon fill="black" stroke="black" points="2743.59,-34.46 2733.37,-31.65 2739.6,-40.22 2743.59,-34.46"/>
<text text-anchor="middle" x="2805.19" y="-57.8" font-family="Times,serif" font-size="14.00">dep</text>
</g>
<!-- 30 -->
<g id="node31" class="node">
<title>30</title>
<ellipse fill="none" stroke="black" cx="2790.69" cy="-18" rx="29.8" ry="18"/>
<text text-anchor="middle" x="2790.69" y="-14.3" font-family="Times,serif" font-size="14.00">mês</text>
</g>
<!-- 0&#45;&gt;30 -->
<g id="edge30" class="edge">
<title>0&#45;&gt;30</title>
<path fill="none" stroke="black" d="M2852.41,-89.02C2846.92,-82.83 2840.5,-75.57 2834.69,-69 2826.92,-60.2 2818.39,-50.51 2810.93,-42.03"/>
<polygon fill="black" stroke="black" points="2813.39,-39.53 2804.16,-34.33 2808.14,-44.15 2813.39,-39.53"/>
<text text-anchor="middle" x="2848.19" y="-57.8" font-family="Times,serif" font-size="14.00">dep</text>
</g>
<!-- 31 -->
<g id="node32" class="node">
<title>31</title>
<ellipse fill="none" stroke="black" cx="2865.69" cy="-18" rx="27" ry="18"/>
<text text-anchor="middle" x="2865.69" y="-14.3" font-family="Times,serif" font-size="14.00">por</text>
</g>
<!-- 0&#45;&gt;31 -->
<g id="edge31" class="edge">
<title>0&#45;&gt;31</title>
<path fill="none" stroke="black" d="M2865.69,-86.8C2865.69,-75.16 2865.69,-59.55 2865.69,-46.24"/>
<polygon fill="black" stroke="black" points="2869.19,-46.18 2865.69,-36.18 2862.19,-46.18 2869.19,-46.18"/>
<text text-anchor="middle" x="2879.19" y="-57.8" font-family="Times,serif" font-size="14.00">dep</text>
</g>
<!-- 32 -->
<g id="node33" class="node">
<title>32</title>
<ellipse fill="none" stroke="black" cx="2937.69" cy="-18" rx="27" ry="18"/>
<text text-anchor="middle" x="2937.69" y="-14.3" font-family="Times,serif" font-size="14.00">«</text>
</g>
<!-- 0&#45;&gt;32 -->
<g id="edge32" class="edge">
<title>0&#45;&gt;32</title>
<path fill="none" stroke="black" d="M2879.1,-89.12C2884.6,-82.94 2891.01,-75.67 2896.69,-69 2904.01,-60.41 2911.9,-50.86 2918.79,-42.43"/>
<polygon fill="black" stroke="black" points="2921.69,-44.41 2925.28,-34.44 2916.26,-39.99 2921.69,-44.41"/>
<text text-anchor="middle" x="2923.19" y="-57.8" font-family="Times,serif" font-size="14.00">dep</text>
</g>
<!-- 33 -->
<g id="node34" class="node">
<title>33</title>
<ellipse fill="none" stroke="black" cx="3022.69" cy="-18" rx="39.79" ry="18"/>
<text text-anchor="middle" x="3022.69" y="-14.3" font-family="Times,serif" font-size="14.00">certos</text>
</g>
<!-- 0&#45;&gt;33 -->
<g id="edge33" class="edge">
<title>0&#45;&gt;33</title>
<path fill="none" stroke="black" d="M2887.67,-94.52C2902.79,-87.81 2923.22,-78.37 2940.69,-69 2958.14,-59.65 2977.04,-48.22 2992.29,-38.65"/>
<polygon fill="black" stroke="black" points="2994.23,-41.56 3000.81,-33.26 2990.49,-35.65 2994.23,-41.56"/>
<text text-anchor="middle" x="2980.19" y="-57.8" font-family="Times,serif" font-size="14.00">dep</text>
</g>
<!-- 34 -->
<g id="node35" class="node">
<title>34</title>
<ellipse fill="none" stroke="black" cx="3138.69" cy="-18" rx="58.49" ry="18"/>
<text text-anchor="middle" x="3138.69" y="-14.3" font-family="Times,serif" font-size="14.00">elementos</text>
</g>
<!-- 0&#45;&gt;34 -->
<g id="edge34" class="edge">
<title>0&#45;&gt;34</title>
<path fill="none" stroke="black" d="M2890.68,-98.02C2917.36,-91.49 2960.78,-80.42 2997.69,-69 3030.07,-58.99 3066.07,-46.19 3093.59,-36.05"/>
<polygon fill="black" stroke="black" points="3095.16,-39.2 3103.32,-32.45 3092.73,-32.64 3095.16,-39.2"/>
<text text-anchor="middle" x="3054.19" y="-57.8" font-family="Times,serif" font-size="14.00">dep</text>
</g>
<!-- 35 -->
<g id="node36" class="node">
<title>35</title>
<ellipse fill="none" stroke="black" cx="3241.69" cy="-18" rx="27" ry="18"/>
<text text-anchor="middle" x="3241.69" y="-14.3" font-family="Times,serif" font-size="14.00">»</text>
</g>
<!-- 0&#45;&gt;35 -->
<g id="edge35" class="edge">
<title>0&#45;&gt;35</title>
<path fill="none" stroke="black" d="M2892.41,-101.3C2950.7,-94.85 3093.1,-76 3205.69,-36 3207.6,-35.32 3209.54,-34.58 3211.48,-33.79"/>
<polygon fill="black" stroke="black" points="3213.29,-36.82 3221.05,-29.61 3210.49,-30.41 3213.29,-36.82"/>
<text text-anchor="middle" x="3156.19" y="-57.8" font-family="Times,serif" font-size="14.00">dep</text>
</g>
<!-- 36 -->
<g id="node37" class="node">
<title>36</title>
<ellipse fill="none" stroke="black" cx="3313.69" cy="-18" rx="27" ry="18"/>
<text text-anchor="middle" x="3313.69" y="-14.3" font-family="Times,serif" font-size="14.00">de</text>
</g>
<!-- 0&#45;&gt;36 -->
<g id="edge36" class="edge">
<title>0&#45;&gt;36</title>
<path fill="none" stroke="black" d="M2892.76,-102.69C2946.72,-99.7 3071.33,-90.84 3173.69,-69 3221.12,-58.88 3232.56,-53.73 3277.69,-36 3279.53,-35.28 3281.4,-34.51 3283.28,-33.71"/>
<polygon fill="black" stroke="black" points="3284.88,-36.83 3292.58,-29.55 3282.02,-30.44 3284.88,-36.83"/>
<text text-anchor="middle" x="3244.19" y="-57.8" font-family="Times,serif" font-size="14.00">dep</text>
</g>
<!-- 37 -->
<g id="node38" class="node">
<title>37</title>
<ellipse fill="none" stroke="black" cx="3385.69" cy="-18" rx="27" ry="18"/>
<text text-anchor="middle" x="3385.69" y="-14.3" font-family="Times,serif" font-size="14.00">as</text>
</g>
<!-- 0&#45;&gt;37 -->
<g id="edge37" class="edge">
<title>0&#45;&gt;37</title>
<path fill="none" stroke="black" d="M2892.97,-104.11C2957.78,-103.83 3125.74,-99.9 3261.69,-69 3295.06,-61.42 3331.12,-45.98 3355.71,-34.26"/>
<polygon fill="black" stroke="black" points="3357.39,-37.33 3364.86,-29.81 3354.34,-31.04 3357.39,-37.33"/>
<text text-anchor="middle" x="3321.19" y="-57.8" font-family="Times,serif" font-size="14.00">dep</text>
</g>
<!-- 38 -->
<g id="node39" class="node">
<title>38</title>
<ellipse fill="none" stroke="black" cx="3472.69" cy="-18" rx="41.69" ry="18"/>
<text text-anchor="middle" x="3472.69" y="-14.3" font-family="Times,serif" font-size="14.00">Forças</text>
</g>
<!-- 0&#45;&gt;38 -->
<g id="edge38" class="edge">
<title>0&#45;&gt;38</title>
<path fill="none" stroke="black" d="M2892.75,-104.65C2965.69,-105.84 3172.19,-105.45 3338.69,-69 3372.83,-61.53 3409.92,-47.16 3436.41,-35.74"/>
<polygon fill="black" stroke="black" points="3437.91,-38.9 3445.67,-31.68 3435.1,-32.49 3437.91,-38.9"/>
<text text-anchor="middle" x="3401.19" y="-57.8" font-family="Times,serif" font-size="14.00">dep</text>
</g>
<!-- 39 -->
<g id="node40" class="node">
<title>39</title>
<ellipse fill="none" stroke="black" cx="3584.69" cy="-18" rx="51.99" ry="18"/>
<text text-anchor="middle" x="3584.69" y="-14.3" font-family="Times,serif" font-size="14.00">Armadas</text>
</g>
<!-- 0&#45;&gt;39 -->
<g id="edge39" class="edge">
<title>0&#45;&gt;39</title>
<path fill="none" stroke="black" d="M2892.72,-104.47C2973.37,-105.4 3219.15,-104.87 3418.69,-69 3460.98,-61.4 3507.71,-46.73 3540.79,-35.24"/>
<polygon fill="black" stroke="black" points="3542.33,-38.41 3550.6,-31.78 3540.01,-31.8 3542.33,-38.41"/>
<text text-anchor="middle" x="3493.19" y="-57.8" font-family="Times,serif" font-size="14.00">dep</text>
</g>
<!-- 40 -->
<g id="node41" class="node">
<title>40</title>
<ellipse fill="none" stroke="black" cx="3681.69" cy="-18" rx="27" ry="18"/>
<text text-anchor="middle" x="3681.69" y="-14.3" font-family="Times,serif" font-size="14.00">de</text>
</g>
<!-- 0&#45;&gt;40 -->
<g id="edge40" class="edge">
<title>0&#45;&gt;40</title>
<path fill="none" stroke="black" d="M2892.91,-104.32C2982.08,-104.99 3273.29,-104.15 3510.69,-69 3571.79,-59.95 3587.47,-56.63 3645.69,-36 3647.6,-35.32 3649.54,-34.58 3651.48,-33.8"/>
<polygon fill="black" stroke="black" points="3653.29,-36.83 3661.05,-29.62 3650.49,-30.41 3653.29,-36.83"/>
<text text-anchor="middle" x="3602.19" y="-57.8" font-family="Times,serif" font-size="14.00">dep</text>
</g>
<!-- 41 -->
<g id="node42" class="node">
<title>41</title>
<ellipse fill="none" stroke="black" cx="3753.69" cy="-18" rx="27" ry="18"/>
<text text-anchor="middle" x="3753.69" y="-14.3" font-family="Times,serif" font-size="14.00">a</text>
</g>
<!-- 0&#45;&gt;41 -->
<g id="edge41" class="edge">
<title>0&#45;&gt;41</title>
<path fill="none" stroke="black" d="M2892.89,-103.75C3010.53,-102.51 3476.09,-95.96 3619.69,-69 3656.64,-62.06 3696.76,-45.84 3723.37,-33.74"/>
<polygon fill="black" stroke="black" points="3724.93,-36.88 3732.53,-29.5 3721.99,-30.53 3724.93,-36.88"/>
<text text-anchor="middle" x="3686.19" y="-57.8" font-family="Times,serif" font-size="14.00">dep</text>
</g>
<!-- 42 -->
<g id="node43" class="node">
<title>42</title>
<ellipse fill="none" stroke="black" cx="3869.69" cy="-18" rx="71.49" ry="18"/>
<text text-anchor="middle" x="3869.69" y="-14.3" font-family="Times,serif" font-size="14.00">Guiné&#45;Bissau</text>
</g>
<!-- 0&#45;&gt;42 -->
<g id="edge42" class="edge">
<title>0&#45;&gt;42</title>
<path fill="none" stroke="black" d="M2892.89,-103.78C3018.4,-102.62 3542.34,-96.22 3703.69,-69 3744.44,-62.12 3789.23,-48.24 3822,-36.85"/>
<polygon fill="black" stroke="black" points="3823.51,-40.03 3831.77,-33.4 3821.18,-33.43 3823.51,-40.03"/>
<text text-anchor="middle" x="3778.19" y="-57.8" font-family="Times,serif" font-size="14.00">dep</text>
</g>
<!-- 43 -->
<g id="node44" class="node">
<title>43</title>
<ellipse fill="none" stroke="black" cx="3985.69" cy="-18" rx="27" ry="18"/>
<text text-anchor="middle" x="3985.69" y="-14.3" font-family="Times,serif" font-size="14.00">e</text>
</g>
<!-- 0&#45;&gt;43 -->
<g id="edge43" class="edge">
<title>0&#45;&gt;43</title>
<path fill="none" stroke="black" d="M2892.66,-103.62C3025.84,-101.63 3614.13,-91.7 3795.69,-69 3865.15,-60.32 3883.39,-58.43 3949.69,-36 3951.61,-35.35 3953.56,-34.63 3955.5,-33.86"/>
<polygon fill="black" stroke="black" points="3957.3,-36.9 3965.09,-29.72 3954.52,-30.47 3957.3,-36.9"/>
<text text-anchor="middle" x="3903.19" y="-57.8" font-family="Times,serif" font-size="14.00">dep</text>
</g>
<!-- 44 -->
<g id="node45" class="node">
<title>44</title>
<ellipse fill="none" stroke="black" cx="4076.69" cy="-18" rx="46.29" ry="18"/>
<text text-anchor="middle" x="4076.69" y="-14.3" font-family="Times,serif" font-size="14.00">exortou</text>
</g>
<!-- 0&#45;&gt;44 -->
<g id="edge44" class="edge">
<title>0&#45;&gt;44</title>
<path fill="none" stroke="black" d="M2892.93,-104.11C3037.34,-104.57 3714.62,-104.73 3920.69,-69 3961.15,-61.99 4005.59,-46.98 4036.66,-35.23"/>
<polygon fill="black" stroke="black" points="4038.17,-38.4 4046.25,-31.54 4035.66,-31.86 4038.17,-38.4"/>
<text text-anchor="middle" x="3996.19" y="-57.8" font-family="Times,serif" font-size="14.00">dep</text>
</g>
<!-- 45 -->
<g id="node46" class="node">
<title>45</title>
<ellipse fill="none" stroke="black" cx="4167.69" cy="-18" rx="27" ry="18"/>
<text text-anchor="middle" x="4167.69" y="-14.3" font-family="Times,serif" font-size="14.00">as</text>
</g>
<!-- 0&#45;&gt;45 -->
<g id="edge45" class="edge">
<title>0&#45;&gt;45</title>
<path fill="none" stroke="black" d="M2892.78,-104.06C3044.24,-104.28 3787.51,-103.55 4013.69,-69 4067.53,-60.78 4080.67,-55.03 4131.69,-36 4133.54,-35.31 4135.42,-34.57 4137.31,-33.78"/>
<polygon fill="black" stroke="black" points="4138.89,-36.91 4146.63,-29.67 4136.07,-30.51 4138.89,-36.91"/>
<text text-anchor="middle" x="4095.19" y="-57.8" font-family="Times,serif" font-size="14.00">dep</text>
</g>
<!-- 46 -->
<g id="node47" class="node">
<title>46</title>
<ellipse fill="none" stroke="black" cx="4252.69" cy="-18" rx="40.09" ry="18"/>
<text text-anchor="middle" x="4252.69" y="-14.3" font-family="Times,serif" font-size="14.00">partes</text>
</g>
<!-- 0&#45;&gt;46 -->
<g id="edge46" class="edge">
<title>0&#45;&gt;46</title>
<path fill="none" stroke="black" d="M2892.71,-103.75C3063.41,-102.11 3989.1,-92.2 4112.69,-69 4149.11,-62.16 4188.72,-47.27 4216.48,-35.51"/>
<polygon fill="black" stroke="black" points="4217.98,-38.67 4225.78,-31.49 4215.21,-32.24 4217.98,-38.67"/>
<text text-anchor="middle" x="4182.19" y="-57.8" font-family="Times,serif" font-size="14.00">dep</text>
</g>
<!-- 47 -->
<g id="node48" class="node">
<title>47</title>
<ellipse fill="none" stroke="black" cx="4337.69" cy="-18" rx="27" ry="18"/>
<text text-anchor="middle" x="4337.69" y="-14.3" font-family="Times,serif" font-size="14.00">em</text>
</g>
<!-- 0&#45;&gt;47 -->
<g id="edge47" class="edge">
<title>0&#45;&gt;47</title>
<path fill="none" stroke="black" d="M2892.84,-103.75C3070.73,-102.09 4066.68,-91.77 4199.69,-69 4237.95,-62.45 4279.53,-46 4306.94,-33.74"/>
<polygon fill="black" stroke="black" points="4308.72,-36.78 4316.36,-29.44 4305.81,-30.41 4308.72,-36.78"/>
<text text-anchor="middle" x="4268.19" y="-57.8" font-family="Times,serif" font-size="14.00">dep</text>
</g>
<!-- 48 -->
<g id="node49" class="node">
<title>48</title>
<ellipse fill="none" stroke="black" cx="4427.69" cy="-18" rx="44.69" ry="18"/>
<text text-anchor="middle" x="4427.69" y="-14.3" font-family="Times,serif" font-size="14.00">conflito</text>
</g>
<!-- 0&#45;&gt;48 -->
<g id="edge48" class="edge">
<title>0&#45;&gt;48</title>
<path fill="none" stroke="black" d="M2892.8,-103.84C3077.17,-102.7 4143.96,-95.03 4285.69,-69 4322.14,-62.31 4361.77,-47.69 4389.88,-35.98"/>
<polygon fill="black" stroke="black" points="4391.48,-39.1 4399.32,-31.98 4388.75,-32.66 4391.48,-39.1"/>
<text text-anchor="middle" x="4355.19" y="-57.8" font-family="Times,serif" font-size="14.00">dep</text>
</g>
<!-- 49 -->
<g id="node50" class="node">
<title>49</title>
<ellipse fill="none" stroke="black" cx="4517.69" cy="-18" rx="27" ry="18"/>
<text text-anchor="middle" x="4517.69" y="-14.3" font-family="Times,serif" font-size="14.00">a</text>
</g>
<!-- 0&#45;&gt;49 -->
<g id="edge49" class="edge">
<title>0&#45;&gt;49</title>
<path fill="none" stroke="black" d="M2892.9,-103.81C3083.96,-102.43 4221.28,-93.22 4372.69,-69 4422.68,-61.01 4434.46,-54.19 4481.69,-36 4483.53,-35.29 4485.41,-34.53 4487.29,-33.74"/>
<polygon fill="black" stroke="black" points="4488.89,-36.86 4496.6,-29.59 4486.04,-30.46 4488.89,-36.86"/>
<text text-anchor="middle" x="4447.19" y="-57.8" font-family="Times,serif" font-size="14.00">dep</text>
</g>
<!-- 50 -->
<g id="node51" class="node">
<title>50</title>
<ellipse fill="none" stroke="black" cx="4589.69" cy="-18" rx="27" ry="18"/>
<text text-anchor="middle" x="4589.69" y="-14.3" font-family="Times,serif" font-size="14.00">o</text>
</g>
<!-- 0&#45;&gt;50 -->
<g id="edge50" class="edge">
<title>0&#45;&gt;50</title>
<path fill="none" stroke="black" d="M2892.66,-103.95C3089.69,-103.51 4304.37,-99.58 4464.69,-69 4498.75,-62.5 4535.3,-46.75 4560.02,-34.65"/>
<polygon fill="black" stroke="black" points="4561.83,-37.66 4569.21,-30.05 4558.7,-31.4 4561.83,-37.66"/>
<text text-anchor="middle" x="4528.19" y="-57.8" font-family="Times,serif" font-size="14.00">dep</text>
</g>
<!-- 51 -->
<g id="node52" class="node">
<title>51</title>
<ellipse fill="none" stroke="black" cx="4678.69" cy="-18" rx="44.39" ry="18"/>
<text text-anchor="middle" x="4678.69" y="-14.3" font-family="Times,serif" font-size="14.00">diálogo</text>
</g>
<!-- 0&#45;&gt;51 -->
<g id="edge51" class="edge">
<title>0&#45;&gt;51</title>
<path fill="none" stroke="black" d="M2892.72,-103.99C3095.61,-103.82 4376.95,-101.49 4545.69,-69 4579.57,-62.48 4616.11,-48.16 4642.31,-36.52"/>
<polygon fill="black" stroke="black" points="4643.81,-39.68 4651.47,-32.36 4640.92,-33.3 4643.81,-39.68"/>
<text text-anchor="middle" x="4612.19" y="-57.8" font-family="Times,serif" font-size="14.00">dep</text>
</g>
<!-- 52 -->
<g id="node53" class="node">
<title>52</title>
<ellipse fill="none" stroke="black" cx="4767.69" cy="-18" rx="27" ry="18"/>
<text text-anchor="middle" x="4767.69" y="-14.3" font-family="Times,serif" font-size="14.00">«</text>
</g>
<!-- 0&#45;&gt;52 -->
<g id="edge52" class="edge">
<title>0&#45;&gt;52</title>
<path fill="none" stroke="black" d="M2892.72,-103.94C3101.28,-103.43 4451.37,-98.94 4629.69,-69 4667.97,-62.57 4709.54,-46.1 4736.95,-33.8"/>
<polygon fill="black" stroke="black" points="4738.73,-36.83 4746.37,-29.49 4735.82,-30.47 4738.73,-36.83"/>
<text text-anchor="middle" x="4698.19" y="-57.8" font-family="Times,serif" font-size="14.00">dep</text>
</g>
<!-- 53 -->
<g id="node54" class="node">
<title>53</title>
<ellipse fill="none" stroke="black" cx="4839.69" cy="-18" rx="27" ry="18"/>
<text text-anchor="middle" x="4839.69" y="-14.3" font-family="Times,serif" font-size="14.00">em</text>
</g>
<!-- 0&#45;&gt;53 -->
<g id="edge53" class="edge">
<title>0&#45;&gt;53</title>
<path fill="none" stroke="black" d="M2892.67,-104.04C3106.87,-104.3 4529.04,-104.67 4715.69,-69 4749.51,-62.54 4785.76,-46.78 4810.28,-34.67"/>
<polygon fill="black" stroke="black" points="4812.04,-37.7 4819.39,-30.07 4808.88,-31.45 4812.04,-37.7"/>
<text text-anchor="middle" x="4779.19" y="-57.8" font-family="Times,serif" font-size="14.00">dep</text>
</g>
<!-- 54 -->
<g id="node55" class="node">
<title>54</title>
<ellipse fill="none" stroke="black" cx="4911.69" cy="-18" rx="27" ry="18"/>
<text text-anchor="middle" x="4911.69" y="-14.3" font-family="Times,serif" font-size="14.00">o</text>
</g>
<!-- 0&#45;&gt;54 -->
<g id="edge54" class="edge">
<title>0&#45;&gt;54</title>
<path fill="none" stroke="black" d="M2892.81,-104.12C3112.83,-105.06 4602.27,-109.81 4796.69,-69 4827.64,-62.5 4860.49,-47.28 4883.12,-35.33"/>
<polygon fill="black" stroke="black" points="4885.03,-38.28 4892.16,-30.44 4881.7,-32.12 4885.03,-38.28"/>
<text text-anchor="middle" x="4856.19" y="-57.8" font-family="Times,serif" font-size="14.00">dep</text>
</g>
<!-- 55 -->
<g id="node56" class="node">
<title>55</title>
<ellipse fill="none" stroke="black" cx="5005.69" cy="-18" rx="48.99" ry="18"/>
<text text-anchor="middle" x="5005.69" y="-14.3" font-family="Times,serif" font-size="14.00">respeito</text>
</g>
<!-- 0&#45;&gt;55 -->
<g id="edge55" class="edge">
<title>0&#45;&gt;55</title>
<path fill="none" stroke="black" d="M2892.81,-104.09C3117.68,-104.77 4670.5,-108.03 4873.69,-69 4906.77,-62.65 4942.38,-48.7 4968.27,-37.15"/>
<polygon fill="black" stroke="black" points="4970.04,-40.19 4977.69,-32.86 4967.13,-33.82 4970.04,-40.19"/>
<text text-anchor="middle" x="4940.19" y="-57.8" font-family="Times,serif" font-size="14.00">dep</text>
</g>
<!-- 56 -->
<g id="node57" class="node">
<title>56</title>
<ellipse fill="none" stroke="black" cx="5099.69" cy="-18" rx="27" ry="18"/>
<text text-anchor="middle" x="5099.69" y="-14.3" font-family="Times,serif" font-size="14.00">por</text>
</g>
<!-- 0&#45;&gt;56 -->
<g id="edge56" class="edge">
<title>0&#45;&gt;56</title>
<path fill="none" stroke="black" d="M2892.82,-104.01C3122.94,-104.07 4744.52,-103.24 4957.69,-69 5006.41,-61.17 5017.72,-53.91 5063.69,-36 5065.53,-35.28 5067.4,-34.52 5069.28,-33.72"/>
<polygon fill="black" stroke="black" points="5070.88,-36.84 5078.59,-29.57 5068.03,-30.45 5070.88,-36.84"/>
<text text-anchor="middle" x="5031.19" y="-57.8" font-family="Times,serif" font-size="14.00">dep</text>
</g>
<!-- 57 -->
<g id="node58" class="node">
<title>57</title>
<ellipse fill="none" stroke="black" cx="5171.69" cy="-18" rx="27" ry="18"/>
<text text-anchor="middle" x="5171.69" y="-14.3" font-family="Times,serif" font-size="14.00">a</text>
</g>
<!-- 0&#45;&gt;57 -->
<g id="edge57" class="edge">
<title>0&#45;&gt;57</title>
<path fill="none" stroke="black" d="M2892.96,-103.83C3136.89,-102.3 4937.65,-90.27 5048.69,-69 5082.27,-62.57 5118.23,-46.81 5142.54,-34.68"/>
<polygon fill="black" stroke="black" points="5144.25,-37.74 5151.57,-30.08 5141.07,-31.5 5144.25,-37.74"/>
<text text-anchor="middle" x="5111.19" y="-57.8" font-family="Times,serif" font-size="14.00">dep</text>
</g>
<!-- 58 -->
<g id="node59" class="node">
<title>58</title>
<ellipse fill="none" stroke="black" cx="5274.69" cy="-18" rx="58.49" ry="18"/>
<text text-anchor="middle" x="5274.69" y="-14.3" font-family="Times,serif" font-size="14.00">legalidade</text>
</g>
<!-- 0&#45;&gt;58 -->
<g id="edge58" class="edge">
<title>0&#45;&gt;58</title>
<path fill="none" stroke="black" d="M2892.74,-104.1C3132.96,-104.88 4897.9,-109.26 5128.69,-69 5165.09,-62.65 5204.65,-48.63 5233.39,-37.05"/>
<polygon fill="black" stroke="black" points="5234.78,-40.26 5242.71,-33.23 5232.12,-33.79 5234.78,-40.26"/>
<text text-anchor="middle" x="5200.19" y="-57.8" font-family="Times,serif" font-size="14.00">dep</text>
</g>
<!-- 59 -->
<g id="node60" class="node">
<title>59</title>
<ellipse fill="none" stroke="black" cx="5426.69" cy="-18" rx="75.29" ry="18"/>
<text text-anchor="middle" x="5426.69" y="-14.3" font-family="Times,serif" font-size="14.00">constitucional</text>
</g>
<!-- 0&#45;&gt;59 -->
<g id="edge59" class="edge">
<title>0&#45;&gt;59</title>
<path fill="none" stroke="black" d="M2893,-103.96C3139.39,-103.53 4975.84,-99.35 5217.69,-69 5271.16,-62.29 5330.81,-47.24 5372.66,-35.39"/>
<polygon fill="black" stroke="black" points="5373.72,-38.73 5382.37,-32.61 5371.79,-32 5373.72,-38.73"/>
<text text-anchor="middle" x="5313.19" y="-57.8" font-family="Times,serif" font-size="14.00">dep</text>
</g>
<!-- 60 -->
<g id="node61" class="node">
<title>60</title>
<ellipse fill="none" stroke="black" cx="5546.69" cy="-18" rx="27" ry="18"/>
<text text-anchor="middle" x="5546.69" y="-14.3" font-family="Times,serif" font-size="14.00">»</text>
</g>
<!-- 0&#45;&gt;60 -->
<g id="edge60" class="edge">
<title>0&#45;&gt;60</title>
<path fill="none" stroke="black" d="M2892.7,-103.89C3144.37,-102.84 5075.92,-93.99 5330.69,-69 5411.64,-61.06 5433.27,-60.91 5510.69,-36 5512.62,-35.38 5514.57,-34.68 5516.53,-33.93"/>
<polygon fill="black" stroke="black" points="5518.3,-36.98 5526.13,-29.83 5515.56,-30.54 5518.3,-36.98"/>
<text text-anchor="middle" x="5460.19" y="-57.8" font-family="Times,serif" font-size="14.00">dep</text>
</g>
<!-- 61 -->
<g id="node62" class="node">
<title>61</title>
<ellipse fill="none" stroke="black" cx="5618.69" cy="-18" rx="27" ry="18"/>
<text text-anchor="middle" x="5618.69" y="-14.3" font-family="Times,serif" font-size="14.00">.</text>
</g>
<!-- 0&#45;&gt;61 -->
<g id="edge61" class="edge">
<title>0&#45;&gt;61</title>
<path fill="none" stroke="black" d="M2893.03,-103.86C3162.93,-102.47 5343.29,-90.55 5477.69,-69 5525.99,-61.26 5537.14,-53.82 5582.69,-36 5584.53,-35.28 5586.4,-34.51 5588.28,-33.71"/>
<polygon fill="black" stroke="black" points="5589.88,-36.83 5597.58,-29.56 5587.03,-30.44 5589.88,-36.83"/>
<text text-anchor="middle" x="5550.19" y="-57.8" font-family="Times,serif" font-size="14.00">dep</text>
</g>
</g>
</svg>
