<?xml version="1.0" encoding="UTF-8" standalone="no"?>
<!DOCTYPE svg PUBLIC "-//W3C//DTD SVG 1.1//EN"
 "http://www.w3.org/Graphics/SVG/1.1/DTD/svg11.dtd">
<!-- Generated by graphviz version 2.42.4 (0)
 -->
<!-- Pages: 1 -->
<svg width="1129pt" height="131pt"
 viewBox="0.00 0.00 1129.30 131.00" xmlns="http://www.w3.org/2000/svg" xmlns:xlink="http://www.w3.org/1999/xlink">
<g id="graph0" class="graph" transform="scale(1 1) rotate(0) translate(4 127)">
<polygon fill="white" stroke="transparent" points="-4,4 -4,-127 1125.3,-127 1125.3,4 -4,4"/>
<!-- 0 -->
<g id="node1" class="node">
<title>0</title>
<ellipse fill="none" stroke="black" cx="575.3" cy="-105" rx="27" ry="18"/>
<text text-anchor="middle" x="575.3" y="-101.3" font-family="Times,serif" font-size="14.00">e</text>
</g>
<!-- 1 -->
<g id="node2" class="node">
<title>1</title>
<ellipse fill="none" stroke="black" cx="27.3" cy="-18" rx="27.1" ry="18"/>
<text text-anchor="middle" x="27.3" y="-14.3" font-family="Times,serif" font-size="14.00">não</text>
</g>
<!-- 0&#45;&gt;1 -->
<g id="edge1" class="edge">
<title>0&#45;&gt;1</title>
<path fill="none" stroke="black" d="M548.14,-102.43C488.06,-98.71 339.42,-88.21 216.3,-69 147.57,-58.27 129.18,-58.33 63.3,-36 61.43,-35.37 59.54,-34.67 57.64,-33.92"/>
<polygon fill="black" stroke="black" points="58.85,-30.63 48.28,-29.89 56.09,-37.06 58.85,-30.63"/>
<text text-anchor="middle" x="229.8" y="-57.8" font-family="Times,serif" font-size="14.00">dep</text>
</g>
<!-- 2 -->
<g id="node3" class="node">
<title>2</title>
<ellipse fill="none" stroke="black" cx="138.3" cy="-18" rx="65.79" ry="18"/>
<text text-anchor="middle" x="138.3" y="-14.3" font-family="Times,serif" font-size="14.00">precisariam</text>
</g>
<!-- 0&#45;&gt;2 -->
<g id="edge2" class="edge">
<title>0&#45;&gt;2</title>
<path fill="none" stroke="black" d="M548.59,-102.11C499.29,-98.29 390.84,-88.3 301.3,-69 261.83,-60.49 218.15,-46.86 185.95,-35.97"/>
<polygon fill="black" stroke="black" points="186.94,-32.61 176.34,-32.69 184.67,-39.24 186.94,-32.61"/>
<text text-anchor="middle" x="314.8" y="-57.8" font-family="Times,serif" font-size="14.00">dep</text>
</g>
<!-- 3 -->
<g id="node4" class="node">
<title>3</title>
<ellipse fill="none" stroke="black" cx="249.3" cy="-18" rx="27" ry="18"/>
<text text-anchor="middle" x="249.3" y="-14.3" font-family="Times,serif" font-size="14.00">de</text>
</g>
<!-- 0&#45;&gt;3 -->
<g id="edge3" class="edge">
<title>0&#45;&gt;3</title>
<path fill="none" stroke="black" d="M549.12,-100.51C511.76,-95.25 441.14,-84.25 382.3,-69 338.22,-57.57 327.51,-53.08 285.3,-36 283.47,-35.26 281.61,-34.48 279.73,-33.66"/>
<polygon fill="black" stroke="black" points="281,-30.39 270.44,-29.47 278.12,-36.77 281,-30.39"/>
<text text-anchor="middle" x="395.8" y="-57.8" font-family="Times,serif" font-size="14.00">dep</text>
</g>
<!-- 4 -->
<g id="node5" class="node">
<title>4</title>
<ellipse fill="none" stroke="black" cx="340.3" cy="-18" rx="46.29" ry="18"/>
<text text-anchor="middle" x="340.3" y="-14.3" font-family="Times,serif" font-size="14.00">injectar</text>
</g>
<!-- 0&#45;&gt;4 -->
<g id="edge4" class="edge">
<title>0&#45;&gt;4</title>
<path fill="none" stroke="black" d="M549.82,-98.19C524.1,-92.03 483.41,-81.47 449.3,-69 424.37,-59.89 397.24,-47.45 376.28,-37.26"/>
<polygon fill="black" stroke="black" points="377.64,-34.03 367.12,-32.76 374.55,-40.31 377.64,-34.03"/>
<text text-anchor="middle" x="462.8" y="-57.8" font-family="Times,serif" font-size="14.00">dep</text>
</g>
<!-- 5 -->
<g id="node6" class="node">
<title>5</title>
<ellipse fill="none" stroke="black" cx="431.3" cy="-18" rx="27" ry="18"/>
<text text-anchor="middle" x="431.3" y="-14.3" font-family="Times,serif" font-size="14.00">se</text>
</g>
<!-- 0&#45;&gt;5 -->
<g id="edge5" class="edge">
<title>0&#45;&gt;5</title>
<path fill="none" stroke="black" d="M553.08,-94.73C538.1,-88.19 518.09,-78.86 501.3,-69 485.66,-59.82 469.11,-48.1 456.03,-38.32"/>
<polygon fill="black" stroke="black" points="458.07,-35.47 447.98,-32.21 453.84,-41.04 458.07,-35.47"/>
<text text-anchor="middle" x="514.8" y="-57.8" font-family="Times,serif" font-size="14.00">dep</text>
</g>
<!-- 6 -->
<g id="node7" class="node">
<title>6</title>
<ellipse fill="none" stroke="black" cx="503.3" cy="-18" rx="27" ry="18"/>
<text text-anchor="middle" x="503.3" y="-14.3" font-family="Times,serif" font-size="14.00">em</text>
</g>
<!-- 0&#45;&gt;6 -->
<g id="edge6" class="edge">
<title>0&#45;&gt;6</title>
<path fill="none" stroke="black" d="M561.9,-89.12C556.39,-82.94 549.98,-75.67 544.3,-69 536.98,-60.41 529.09,-50.86 522.2,-42.43"/>
<polygon fill="black" stroke="black" points="524.73,-39.99 515.71,-34.44 519.3,-44.41 524.73,-39.99"/>
<text text-anchor="middle" x="557.8" y="-57.8" font-family="Times,serif" font-size="14.00">dep</text>
</g>
<!-- 7 -->
<g id="node8" class="node">
<title>7</title>
<ellipse fill="none" stroke="black" cx="575.3" cy="-18" rx="27" ry="18"/>
<text text-anchor="middle" x="575.3" y="-14.3" font-family="Times,serif" font-size="14.00">os</text>
</g>
<!-- 0&#45;&gt;7 -->
<g id="edge7" class="edge">
<title>0&#45;&gt;7</title>
<path fill="none" stroke="black" d="M575.3,-86.8C575.3,-75.16 575.3,-59.55 575.3,-46.24"/>
<polygon fill="black" stroke="black" points="578.8,-46.18 575.3,-36.18 571.8,-46.18 578.8,-46.18"/>
<text text-anchor="middle" x="588.8" y="-57.8" font-family="Times,serif" font-size="14.00">dep</text>
</g>
<!-- 8 -->
<g id="node9" class="node">
<title>8</title>
<ellipse fill="none" stroke="black" cx="661.3" cy="-18" rx="40.89" ry="18"/>
<text text-anchor="middle" x="661.3" y="-14.3" font-family="Times,serif" font-size="14.00">cantos</text>
</g>
<!-- 0&#45;&gt;8 -->
<g id="edge8" class="edge">
<title>0&#45;&gt;8</title>
<path fill="none" stroke="black" d="M589.89,-89.58C603.15,-76.47 622.93,-56.92 638.32,-41.71"/>
<polygon fill="black" stroke="black" points="640.82,-44.16 645.47,-34.64 635.9,-39.18 640.82,-44.16"/>
<text text-anchor="middle" x="637.8" y="-57.8" font-family="Times,serif" font-size="14.00">dep</text>
</g>
<!-- 9 -->
<g id="node10" class="node">
<title>9</title>
<ellipse fill="none" stroke="black" cx="747.3" cy="-18" rx="27" ry="18"/>
<text text-anchor="middle" x="747.3" y="-14.3" font-family="Times,serif" font-size="14.00">de</text>
</g>
<!-- 0&#45;&gt;9 -->
<g id="edge9" class="edge">
<title>0&#45;&gt;9</title>
<path fill="none" stroke="black" d="M597.6,-94.85C613.78,-88.06 636.1,-78.4 655.3,-69 676.85,-58.45 700.63,-45.49 718.62,-35.41"/>
<polygon fill="black" stroke="black" points="720.46,-38.38 727.45,-30.42 717.03,-32.29 720.46,-38.38"/>
<text text-anchor="middle" x="697.8" y="-57.8" font-family="Times,serif" font-size="14.00">dep</text>
</g>
<!-- 10 -->
<g id="node11" class="node">
<title>10</title>
<ellipse fill="none" stroke="black" cx="819.3" cy="-18" rx="27" ry="18"/>
<text text-anchor="middle" x="819.3" y="-14.3" font-family="Times,serif" font-size="14.00">o</text>
</g>
<!-- 0&#45;&gt;10 -->
<g id="edge10" class="edge">
<title>0&#45;&gt;10</title>
<path fill="none" stroke="black" d="M601.05,-99.2C629.5,-93.52 676.42,-83.04 715.3,-69 741.32,-59.6 769.54,-45.79 790.01,-35.06"/>
<polygon fill="black" stroke="black" points="791.92,-38.01 799.11,-30.23 788.64,-31.83 791.92,-38.01"/>
<text text-anchor="middle" x="764.8" y="-57.8" font-family="Times,serif" font-size="14.00">dep</text>
</g>
<!-- 11 -->
<g id="node12" class="node">
<title>11</title>
<ellipse fill="none" stroke="black" cx="900.3" cy="-18" rx="36.29" ry="18"/>
<text text-anchor="middle" x="900.3" y="-14.3" font-family="Times,serif" font-size="14.00">Casal</text>
</g>
<!-- 0&#45;&gt;11 -->
<g id="edge11" class="edge">
<title>0&#45;&gt;11</title>
<path fill="none" stroke="black" d="M601.88,-101.51C641.72,-97.33 718.97,-87.49 782.3,-69 811.58,-60.45 843.34,-46.71 866.53,-35.8"/>
<polygon fill="black" stroke="black" points="868.08,-38.94 875.6,-31.47 865.07,-32.62 868.08,-38.94"/>
<text text-anchor="middle" x="835.8" y="-57.8" font-family="Times,serif" font-size="14.00">dep</text>
</g>
<!-- 12 -->
<g id="node13" class="node">
<title>12</title>
<ellipse fill="none" stroke="black" cx="1002.3" cy="-18" rx="47.39" ry="18"/>
<text text-anchor="middle" x="1002.3" y="-14.3" font-family="Times,serif" font-size="14.00">Ventoso</text>
</g>
<!-- 0&#45;&gt;12 -->
<g id="edge12" class="edge">
<title>0&#45;&gt;12</title>
<path fill="none" stroke="black" d="M602.05,-102.4C651.97,-99.04 762.48,-89.74 853.3,-69 890.58,-60.49 931.7,-46.31 961.28,-35.22"/>
<polygon fill="black" stroke="black" points="962.74,-38.41 970.85,-31.59 960.26,-31.86 962.74,-38.41"/>
<text text-anchor="middle" x="916.8" y="-57.8" font-family="Times,serif" font-size="14.00">dep</text>
</g>
<!-- 13 -->
<g id="node14" class="node">
<title>13</title>
<ellipse fill="none" stroke="black" cx="1094.3" cy="-18" rx="27" ry="18"/>
<text text-anchor="middle" x="1094.3" y="-14.3" font-family="Times,serif" font-size="14.00">.</text>
</g>
<!-- 0&#45;&gt;13 -->
<g id="edge13" class="edge">
<title>0&#45;&gt;13</title>
<path fill="none" stroke="black" d="M602.53,-102.86C662.76,-100.01 811.66,-91.14 934.3,-69 990.42,-58.87 1004.74,-55.59 1058.3,-36 1060.15,-35.32 1062.03,-34.59 1063.92,-33.81"/>
<polygon fill="black" stroke="black" points="1065.5,-36.94 1073.25,-29.72 1062.69,-30.53 1065.5,-36.94"/>
<text text-anchor="middle" x="1017.8" y="-57.8" font-family="Times,serif" font-size="14.00">dep</text>
</g>
</g>
</svg>
