<?xml version="1.0" encoding="UTF-8" standalone="no"?>
<!DOCTYPE svg PUBLIC "-//W3C//DTD SVG 1.1//EN"
 "http://www.w3.org/Graphics/SVG/1.1/DTD/svg11.dtd">
<!-- Generated by graphviz version 2.42.4 (0)
 -->
<!-- Pages: 1 -->
<svg width="996pt" height="131pt"
 viewBox="0.00 0.00 996.25 131.00" xmlns="http://www.w3.org/2000/svg" xmlns:xlink="http://www.w3.org/1999/xlink">
<g id="graph0" class="graph" transform="scale(1 1) rotate(0) translate(4 127)">
<polygon fill="white" stroke="transparent" points="-4,4 -4,-127 992.25,-127 992.25,4 -4,4"/>
<!-- 0 -->
<g id="node1" class="node">
<title>0</title>
<ellipse fill="none" stroke="black" cx="467.25" cy="-105" rx="27" ry="18"/>
<text text-anchor="middle" x="467.25" y="-101.3" font-family="Times,serif" font-size="14.00">As</text>
</g>
<!-- 1 -->
<g id="node2" class="node">
<title>1</title>
<ellipse fill="none" stroke="black" cx="42.25" cy="-18" rx="42.49" ry="18"/>
<text text-anchor="middle" x="42.25" y="-14.3" font-family="Times,serif" font-size="14.00">causas</text>
</g>
<!-- 0&#45;&gt;1 -->
<g id="edge1" class="edge">
<title>0&#45;&gt;1</title>
<path fill="none" stroke="black" d="M440.18,-102.81C388.58,-100.09 272.83,-91.79 178.25,-69 144.05,-60.76 106.64,-46.61 79.72,-35.45"/>
<polygon fill="black" stroke="black" points="80.88,-32.15 70.31,-31.5 78.17,-38.6 80.88,-32.15"/>
<text text-anchor="middle" x="191.75" y="-57.8" font-family="Times,serif" font-size="14.00">dep</text>
</g>
<!-- 2 -->
<g id="node3" class="node">
<title>2</title>
<ellipse fill="none" stroke="black" cx="129.25" cy="-18" rx="27" ry="18"/>
<text text-anchor="middle" x="129.25" y="-14.3" font-family="Times,serif" font-size="14.00">de</text>
</g>
<!-- 0&#45;&gt;2 -->
<g id="edge2" class="edge">
<title>0&#45;&gt;2</title>
<path fill="none" stroke="black" d="M440.6,-101.17C400.25,-96.53 321.44,-86.07 256.25,-69 214.63,-58.1 204.96,-52.54 165.25,-36 163.43,-35.24 161.57,-34.44 159.7,-33.62"/>
<polygon fill="black" stroke="black" points="160.97,-30.35 150.42,-29.4 158.07,-36.73 160.97,-30.35"/>
<text text-anchor="middle" x="269.75" y="-57.8" font-family="Times,serif" font-size="14.00">dep</text>
</g>
<!-- 3 -->
<g id="node4" class="node">
<title>3</title>
<ellipse fill="none" stroke="black" cx="201.25" cy="-18" rx="27" ry="18"/>
<text text-anchor="middle" x="201.25" y="-14.3" font-family="Times,serif" font-size="14.00">a</text>
</g>
<!-- 0&#45;&gt;3 -->
<g id="edge3" class="edge">
<title>0&#45;&gt;3</title>
<path fill="none" stroke="black" d="M441.86,-98.21C398.88,-88.03 309.42,-65.21 237.25,-36 235.42,-35.26 233.55,-34.48 231.68,-33.66"/>
<polygon fill="black" stroke="black" points="232.94,-30.39 222.39,-29.47 230.07,-36.77 232.94,-30.39"/>
<text text-anchor="middle" x="344.75" y="-57.8" font-family="Times,serif" font-size="14.00">dep</text>
</g>
<!-- 4 -->
<g id="node5" class="node">
<title>4</title>
<ellipse fill="none" stroke="black" cx="298.25" cy="-18" rx="51.99" ry="18"/>
<text text-anchor="middle" x="298.25" y="-14.3" font-family="Times,serif" font-size="14.00">violência</text>
</g>
<!-- 0&#45;&gt;4 -->
<g id="edge4" class="edge">
<title>0&#45;&gt;4</title>
<path fill="none" stroke="black" d="M445.43,-93.98C430.63,-87.11 410.67,-77.7 393.25,-69 373.51,-59.14 351.71,-47.71 333.98,-38.27"/>
<polygon fill="black" stroke="black" points="335.58,-35.16 325.11,-33.53 332.29,-41.33 335.58,-35.16"/>
<text text-anchor="middle" x="406.75" y="-57.8" font-family="Times,serif" font-size="14.00">dep</text>
</g>
<!-- 5 -->
<g id="node6" class="node">
<title>5</title>
<ellipse fill="none" stroke="black" cx="395.25" cy="-18" rx="27" ry="18"/>
<text text-anchor="middle" x="395.25" y="-14.3" font-family="Times,serif" font-size="14.00">em</text>
</g>
<!-- 0&#45;&gt;5 -->
<g id="edge5" class="edge">
<title>0&#45;&gt;5</title>
<path fill="none" stroke="black" d="M453.84,-89.12C448.34,-82.94 441.93,-75.67 436.25,-69 428.93,-60.41 421.04,-50.86 414.15,-42.43"/>
<polygon fill="black" stroke="black" points="416.68,-39.99 407.66,-34.44 411.25,-44.41 416.68,-39.99"/>
<text text-anchor="middle" x="449.75" y="-57.8" font-family="Times,serif" font-size="14.00">dep</text>
</g>
<!-- 6 -->
<g id="node7" class="node">
<title>6</title>
<ellipse fill="none" stroke="black" cx="467.25" cy="-18" rx="27" ry="18"/>
<text text-anchor="middle" x="467.25" y="-14.3" font-family="Times,serif" font-size="14.00">o</text>
</g>
<!-- 0&#45;&gt;6 -->
<g id="edge6" class="edge">
<title>0&#45;&gt;6</title>
<path fill="none" stroke="black" d="M467.25,-86.8C467.25,-75.16 467.25,-59.55 467.25,-46.24"/>
<polygon fill="black" stroke="black" points="470.75,-46.18 467.25,-36.18 463.75,-46.18 470.75,-46.18"/>
<text text-anchor="middle" x="480.75" y="-57.8" font-family="Times,serif" font-size="14.00">dep</text>
</g>
<!-- 7 -->
<g id="node8" class="node">
<title>7</title>
<ellipse fill="none" stroke="black" cx="553.25" cy="-18" rx="40.89" ry="18"/>
<text text-anchor="middle" x="553.25" y="-14.3" font-family="Times,serif" font-size="14.00">campo</text>
</g>
<!-- 0&#45;&gt;7 -->
<g id="edge7" class="edge">
<title>0&#45;&gt;7</title>
<path fill="none" stroke="black" d="M481.83,-89.58C495.1,-76.47 514.88,-56.92 530.27,-41.71"/>
<polygon fill="black" stroke="black" points="532.77,-44.16 537.42,-34.64 527.85,-39.18 532.77,-44.16"/>
<text text-anchor="middle" x="529.75" y="-57.8" font-family="Times,serif" font-size="14.00">dep</text>
</g>
<!-- 8 -->
<g id="node9" class="node">
<title>8</title>
<ellipse fill="none" stroke="black" cx="661.25" cy="-18" rx="48.99" ry="18"/>
<text text-anchor="middle" x="661.25" y="-14.3" font-family="Times,serif" font-size="14.00">também</text>
</g>
<!-- 0&#45;&gt;8 -->
<g id="edge8" class="edge">
<title>0&#45;&gt;8</title>
<path fill="none" stroke="black" d="M489.32,-94.35C505.39,-87.32 527.67,-77.58 547.25,-69 571.9,-58.2 599.56,-46.07 621.45,-36.46"/>
<polygon fill="black" stroke="black" points="623.02,-39.6 630.77,-32.38 620.2,-33.19 623.02,-39.6"/>
<text text-anchor="middle" x="592.75" y="-57.8" font-family="Times,serif" font-size="14.00">dep</text>
</g>
<!-- 9 -->
<g id="node10" class="node">
<title>9</title>
<ellipse fill="none" stroke="black" cx="755.25" cy="-18" rx="27" ry="18"/>
<text text-anchor="middle" x="755.25" y="-14.3" font-family="Times,serif" font-size="14.00">são</text>
</g>
<!-- 0&#45;&gt;9 -->
<g id="edge9" class="edge">
<title>0&#45;&gt;9</title>
<path fill="none" stroke="black" d="M492.84,-98.94C539.01,-89.41 638.9,-66.94 719.25,-36 721.08,-35.29 722.96,-34.53 724.84,-33.74"/>
<polygon fill="black" stroke="black" points="726.44,-36.86 734.15,-29.59 723.59,-30.46 726.44,-36.86"/>
<text text-anchor="middle" x="679.75" y="-57.8" font-family="Times,serif" font-size="14.00">dep</text>
</g>
<!-- 10 -->
<g id="node11" class="node">
<title>10</title>
<ellipse fill="none" stroke="black" cx="858.25" cy="-18" rx="57.69" ry="18"/>
<text text-anchor="middle" x="858.25" y="-14.3" font-family="Times,serif" font-size="14.00">discutidas</text>
</g>
<!-- 0&#45;&gt;10 -->
<g id="edge10" class="edge">
<title>0&#45;&gt;10</title>
<path fill="none" stroke="black" d="M493.7,-101.28C536.74,-96.57 624.43,-85.75 697.25,-69 736.54,-59.96 780.16,-46.17 812.08,-35.36"/>
<polygon fill="black" stroke="black" points="813.26,-38.66 821.59,-32.11 810.99,-32.04 813.26,-38.66"/>
<text text-anchor="middle" x="764.75" y="-57.8" font-family="Times,serif" font-size="14.00">dep</text>
</g>
<!-- 11 -->
<g id="node12" class="node">
<title>11</title>
<ellipse fill="none" stroke="black" cx="961.25" cy="-18" rx="27" ry="18"/>
<text text-anchor="middle" x="961.25" y="-14.3" font-family="Times,serif" font-size="14.00">.</text>
</g>
<!-- 0&#45;&gt;11 -->
<g id="edge11" class="edge">
<title>0&#45;&gt;11</title>
<path fill="none" stroke="black" d="M493.94,-102.09C548.42,-97.95 676.2,-87.06 782.25,-69 846.55,-58.05 863.62,-57.38 925.25,-36 927.16,-35.34 929.1,-34.6 931.04,-33.83"/>
<polygon fill="black" stroke="black" points="932.85,-36.86 940.62,-29.66 930.06,-30.44 932.85,-36.86"/>
<text text-anchor="middle" x="878.75" y="-57.8" font-family="Times,serif" font-size="14.00">dep</text>
</g>
</g>
</svg>
