<?xml version="1.0" encoding="UTF-8" standalone="no"?>
<!DOCTYPE svg PUBLIC "-//W3C//DTD SVG 1.1//EN"
 "http://www.w3.org/Graphics/SVG/1.1/DTD/svg11.dtd">
<!-- Generated by graphviz version 2.42.4 (0)
 -->
<!-- Pages: 1 -->
<svg width="1654pt" height="131pt"
 viewBox="0.00 0.00 1653.55 131.00" xmlns="http://www.w3.org/2000/svg" xmlns:xlink="http://www.w3.org/1999/xlink">
<g id="graph0" class="graph" transform="scale(1 1) rotate(0) translate(4 127)">
<polygon fill="white" stroke="transparent" points="-4,4 -4,-127 1649.55,-127 1649.55,4 -4,4"/>
<!-- 0 -->
<g id="node1" class="node">
<title>0</title>
<ellipse fill="none" stroke="black" cx="865.55" cy="-105" rx="28.7" ry="18"/>
<text text-anchor="middle" x="865.55" y="-101.3" font-family="Times,serif" font-size="14.00">Isto</text>
</g>
<!-- 1 -->
<g id="node2" class="node">
<title>1</title>
<ellipse fill="none" stroke="black" cx="43.55" cy="-18" rx="43.59" ry="18"/>
<text text-anchor="middle" x="43.55" y="-14.3" font-family="Times,serif" font-size="14.00">porque</text>
</g>
<!-- 0&#45;&gt;1 -->
<g id="edge1" class="edge">
<title>0&#45;&gt;1</title>
<path fill="none" stroke="black" d="M836.78,-103.56C724.7,-101.7 317.31,-93.36 190.55,-69 152.61,-61.71 111.08,-46.92 81.87,-35.3"/>
<polygon fill="black" stroke="black" points="83.05,-32 72.46,-31.5 80.42,-38.49 83.05,-32"/>
<text text-anchor="middle" x="204.05" y="-57.8" font-family="Times,serif" font-size="14.00">dep</text>
</g>
<!-- 2 -->
<g id="node3" class="node">
<title>2</title>
<ellipse fill="none" stroke="black" cx="132.55" cy="-18" rx="27" ry="18"/>
<text text-anchor="middle" x="132.55" y="-14.3" font-family="Times,serif" font-size="14.00">os</text>
</g>
<!-- 0&#45;&gt;2 -->
<g id="edge2" class="edge">
<title>0&#45;&gt;2</title>
<path fill="none" stroke="black" d="M836.69,-104.41C751.72,-105.15 495.35,-104.1 286.55,-69 232.84,-59.97 219.57,-55.03 168.55,-36 166.7,-35.31 164.82,-34.57 162.93,-33.78"/>
<polygon fill="black" stroke="black" points="164.17,-30.51 153.61,-29.67 161.35,-36.91 164.17,-30.51"/>
<text text-anchor="middle" x="300.05" y="-57.8" font-family="Times,serif" font-size="14.00">dep</text>
</g>
<!-- 3 -->
<g id="node4" class="node">
<title>3</title>
<ellipse fill="none" stroke="black" cx="221.55" cy="-18" rx="43.59" ry="18"/>
<text text-anchor="middle" x="221.55" y="-14.3" font-family="Times,serif" font-size="14.00">índices</text>
</g>
<!-- 0&#45;&gt;3 -->
<g id="edge3" class="edge">
<title>0&#45;&gt;3</title>
<path fill="none" stroke="black" d="M836.81,-104.46C760.32,-105.16 545.68,-103.62 371.55,-69 332.96,-61.33 290.58,-46.58 260.73,-35.08"/>
<polygon fill="black" stroke="black" points="261.7,-31.7 251.11,-31.32 259.15,-38.22 261.7,-31.7"/>
<text text-anchor="middle" x="385.05" y="-57.8" font-family="Times,serif" font-size="14.00">dep</text>
</g>
<!-- 4 -->
<g id="node5" class="node">
<title>4</title>
<ellipse fill="none" stroke="black" cx="310.55" cy="-18" rx="27" ry="18"/>
<text text-anchor="middle" x="310.55" y="-14.3" font-family="Times,serif" font-size="14.00">de</text>
</g>
<!-- 0&#45;&gt;4 -->
<g id="edge4" class="edge">
<title>0&#45;&gt;4</title>
<path fill="none" stroke="black" d="M836.73,-103.08C771.46,-100.65 607.51,-92.51 472.55,-69 415.52,-59.06 400.95,-55.78 346.55,-36 344.69,-35.33 342.81,-34.59 340.92,-33.82"/>
<polygon fill="black" stroke="black" points="342.15,-30.54 331.59,-29.73 339.34,-36.95 342.15,-30.54"/>
<text text-anchor="middle" x="486.05" y="-57.8" font-family="Times,serif" font-size="14.00">dep</text>
</g>
<!-- 5 -->
<g id="node6" class="node">
<title>5</title>
<ellipse fill="none" stroke="black" cx="401.55" cy="-18" rx="46.29" ry="18"/>
<text text-anchor="middle" x="401.55" y="-14.3" font-family="Times,serif" font-size="14.00">inflação</text>
</g>
<!-- 0&#45;&gt;5 -->
<g id="edge5" class="edge">
<title>0&#45;&gt;5</title>
<path fill="none" stroke="black" d="M837.08,-102.55C782.79,-99.37 660.9,-90.33 560.55,-69 520.06,-60.39 475.19,-45.8 443.46,-34.59"/>
<polygon fill="black" stroke="black" points="444.24,-31.15 433.65,-31.08 441.89,-37.74 444.24,-31.15"/>
<text text-anchor="middle" x="574.05" y="-57.8" font-family="Times,serif" font-size="14.00">dep</text>
</g>
<!-- 6 -->
<g id="node7" class="node">
<title>6</title>
<ellipse fill="none" stroke="black" cx="492.55" cy="-18" rx="27" ry="18"/>
<text text-anchor="middle" x="492.55" y="-14.3" font-family="Times,serif" font-size="14.00">só</text>
</g>
<!-- 0&#45;&gt;6 -->
<g id="edge6" class="edge">
<title>0&#45;&gt;6</title>
<path fill="none" stroke="black" d="M837.34,-100.96C778.56,-94.06 639.26,-74.71 528.55,-36 526.64,-35.33 524.7,-34.6 522.75,-33.81"/>
<polygon fill="black" stroke="black" points="523.74,-30.43 513.18,-29.65 520.95,-36.85 523.74,-30.43"/>
<text text-anchor="middle" x="661.05" y="-57.8" font-family="Times,serif" font-size="14.00">dep</text>
</g>
<!-- 7 -->
<g id="node8" class="node">
<title>7</title>
<ellipse fill="none" stroke="black" cx="582.55" cy="-18" rx="44.69" ry="18"/>
<text text-anchor="middle" x="582.55" y="-14.3" font-family="Times,serif" font-size="14.00">captam</text>
</g>
<!-- 0&#45;&gt;7 -->
<g id="edge7" class="edge">
<title>0&#45;&gt;7</title>
<path fill="none" stroke="black" d="M840.08,-96.61C797.76,-84.29 710.28,-58.67 636.55,-36 633.2,-34.97 629.75,-33.9 626.27,-32.82"/>
<polygon fill="black" stroke="black" points="627.1,-29.41 616.52,-29.77 625.02,-36.1 627.1,-29.41"/>
<text text-anchor="middle" x="757.05" y="-57.8" font-family="Times,serif" font-size="14.00">dep</text>
</g>
<!-- 8 -->
<g id="node9" class="node">
<title>8</title>
<ellipse fill="none" stroke="black" cx="707.55" cy="-18" rx="61.99" ry="18"/>
<text text-anchor="middle" x="707.55" y="-14.3" font-family="Times,serif" font-size="14.00">totalmente</text>
</g>
<!-- 0&#45;&gt;8 -->
<g id="edge8" class="edge">
<title>0&#45;&gt;8</title>
<path fill="none" stroke="black" d="M844.56,-92.71C819.05,-78.98 775.53,-55.57 744.38,-38.82"/>
<polygon fill="black" stroke="black" points="746.01,-35.72 735.55,-34.06 742.7,-41.88 746.01,-35.72"/>
<text text-anchor="middle" x="810.05" y="-57.8" font-family="Times,serif" font-size="14.00">dep</text>
</g>
<!-- 9 -->
<g id="node10" class="node">
<title>9</title>
<ellipse fill="none" stroke="black" cx="814.55" cy="-18" rx="27" ry="18"/>
<text text-anchor="middle" x="814.55" y="-14.3" font-family="Times,serif" font-size="14.00">as</text>
</g>
<!-- 0&#45;&gt;9 -->
<g id="edge9" class="edge">
<title>0&#45;&gt;9</title>
<path fill="none" stroke="black" d="M855.95,-88.01C848.47,-75.55 837.95,-58.01 829.39,-43.74"/>
<polygon fill="black" stroke="black" points="832.24,-41.69 824.1,-34.92 826.24,-45.29 832.24,-41.69"/>
<text text-anchor="middle" x="857.05" y="-57.8" font-family="Times,serif" font-size="14.00">dep</text>
</g>
<!-- 10 -->
<g id="node11" class="node">
<title>10</title>
<ellipse fill="none" stroke="black" cx="917.55" cy="-18" rx="57.69" ry="18"/>
<text text-anchor="middle" x="917.55" y="-14.3" font-family="Times,serif" font-size="14.00">mudanças</text>
</g>
<!-- 0&#45;&gt;10 -->
<g id="edge10" class="edge">
<title>0&#45;&gt;10</title>
<path fill="none" stroke="black" d="M875.33,-88.01C882.81,-75.78 893.27,-58.68 901.91,-44.56"/>
<polygon fill="black" stroke="black" points="905.04,-46.15 907.28,-35.79 899.07,-42.49 905.04,-46.15"/>
<text text-anchor="middle" x="909.05" y="-57.8" font-family="Times,serif" font-size="14.00">dep</text>
</g>
<!-- 11 -->
<g id="node12" class="node">
<title>11</title>
<ellipse fill="none" stroke="black" cx="1020.55" cy="-18" rx="27" ry="18"/>
<text text-anchor="middle" x="1020.55" y="-14.3" font-family="Times,serif" font-size="14.00">de</text>
</g>
<!-- 0&#45;&gt;11 -->
<g id="edge11" class="edge">
<title>0&#45;&gt;11</title>
<path fill="none" stroke="black" d="M886.45,-92.54C913.41,-77.75 960.46,-51.95 991.05,-35.18"/>
<polygon fill="black" stroke="black" points="992.89,-38.16 999.97,-30.28 989.52,-32.02 992.89,-38.16"/>
<text text-anchor="middle" x="966.05" y="-57.8" font-family="Times,serif" font-size="14.00">dep</text>
</g>
<!-- 12 -->
<g id="node13" class="node">
<title>12</title>
<ellipse fill="none" stroke="black" cx="1107.55" cy="-18" rx="41.69" ry="18"/>
<text text-anchor="middle" x="1107.55" y="-14.3" font-family="Times,serif" font-size="14.00">preços</text>
</g>
<!-- 0&#45;&gt;12 -->
<g id="edge12" class="edge">
<title>0&#45;&gt;12</title>
<path fill="none" stroke="black" d="M891.55,-97.05C915.61,-90.44 952.28,-79.91 983.55,-69 1012.95,-58.74 1045.6,-45.49 1070.01,-35.22"/>
<polygon fill="black" stroke="black" points="1071.43,-38.42 1079.27,-31.29 1068.7,-31.97 1071.43,-38.42"/>
<text text-anchor="middle" x="1035.05" y="-57.8" font-family="Times,serif" font-size="14.00">dep</text>
</g>
<!-- 13 -->
<g id="node14" class="node">
<title>13</title>
<ellipse fill="none" stroke="black" cx="1194.55" cy="-18" rx="27" ry="18"/>
<text text-anchor="middle" x="1194.55" y="-14.3" font-family="Times,serif" font-size="14.00">30</text>
</g>
<!-- 0&#45;&gt;13 -->
<g id="edge13" class="edge">
<title>0&#45;&gt;13</title>
<path fill="none" stroke="black" d="M893.4,-100.26C946.41,-92.55 1064.88,-72.49 1158.55,-36 1160.38,-35.28 1162.25,-34.52 1164.13,-33.72"/>
<polygon fill="black" stroke="black" points="1165.74,-36.84 1173.44,-29.57 1162.88,-30.45 1165.74,-36.84"/>
<text text-anchor="middle" x="1118.05" y="-57.8" font-family="Times,serif" font-size="14.00">dep</text>
</g>
<!-- 14 -->
<g id="node15" class="node">
<title>14</title>
<ellipse fill="none" stroke="black" cx="1269.55" cy="-18" rx="29.8" ry="18"/>
<text text-anchor="middle" x="1269.55" y="-14.3" font-family="Times,serif" font-size="14.00">dias</text>
</g>
<!-- 0&#45;&gt;14 -->
<g id="edge14" class="edge">
<title>0&#45;&gt;14</title>
<path fill="none" stroke="black" d="M893.87,-102.25C943.43,-98.76 1048.83,-89.45 1135.55,-69 1171.28,-60.57 1210.43,-45.2 1237.13,-33.72"/>
<polygon fill="black" stroke="black" points="1238.62,-36.89 1246.38,-29.69 1235.82,-30.48 1238.62,-36.89"/>
<text text-anchor="middle" x="1198.05" y="-57.8" font-family="Times,serif" font-size="14.00">dep</text>
</g>
<!-- 15 -->
<g id="node16" class="node">
<title>15</title>
<ellipse fill="none" stroke="black" cx="1349.55" cy="-18" rx="32.49" ry="18"/>
<text text-anchor="middle" x="1349.55" y="-14.3" font-family="Times,serif" font-size="14.00">após</text>
</g>
<!-- 0&#45;&gt;15 -->
<g id="edge15" class="edge">
<title>0&#45;&gt;15</title>
<path fill="none" stroke="black" d="M894.04,-103.47C954.17,-101.84 1098.15,-95.29 1215.55,-69 1250.94,-61.07 1289.57,-45.92 1316.21,-34.36"/>
<polygon fill="black" stroke="black" points="1317.72,-37.52 1325.46,-30.28 1314.9,-31.11 1317.72,-37.52"/>
<text text-anchor="middle" x="1278.05" y="-57.8" font-family="Times,serif" font-size="14.00">dep</text>
</g>
<!-- 16 -->
<g id="node17" class="node">
<title>16</title>
<ellipse fill="none" stroke="black" cx="1426.55" cy="-18" rx="27" ry="18"/>
<text text-anchor="middle" x="1426.55" y="-14.3" font-family="Times,serif" font-size="14.00">o</text>
</g>
<!-- 0&#45;&gt;16 -->
<g id="edge16" class="edge">
<title>0&#45;&gt;16</title>
<path fill="none" stroke="black" d="M894.33,-104.15C964.01,-103.99 1146.95,-100.33 1295.55,-69 1331.24,-61.47 1370.04,-45.63 1396.07,-33.78"/>
<polygon fill="black" stroke="black" points="1397.79,-36.84 1405.39,-29.46 1394.84,-30.49 1397.79,-36.84"/>
<text text-anchor="middle" x="1358.05" y="-57.8" font-family="Times,serif" font-size="14.00">dep</text>
</g>
<!-- 17 -->
<g id="node18" class="node">
<title>17</title>
<ellipse fill="none" stroke="black" cx="1522.55" cy="-18" rx="51.19" ry="18"/>
<text text-anchor="middle" x="1522.55" y="-14.3" font-family="Times,serif" font-size="14.00">aumento</text>
</g>
<!-- 0&#45;&gt;17 -->
<g id="edge17" class="edge">
<title>0&#45;&gt;17</title>
<path fill="none" stroke="black" d="M894.37,-104.62C972.61,-105.73 1195.21,-105.22 1375.55,-69 1412.35,-61.61 1452.61,-47.46 1481.68,-36.1"/>
<polygon fill="black" stroke="black" points="1483.08,-39.31 1491.09,-32.37 1480.5,-32.8 1483.08,-39.31"/>
<text text-anchor="middle" x="1443.05" y="-57.8" font-family="Times,serif" font-size="14.00">dep</text>
</g>
<!-- 18 -->
<g id="node19" class="node">
<title>18</title>
<ellipse fill="none" stroke="black" cx="1618.55" cy="-18" rx="27" ry="18"/>
<text text-anchor="middle" x="1618.55" y="-14.3" font-family="Times,serif" font-size="14.00">.</text>
</g>
<!-- 0&#45;&gt;18 -->
<g id="edge18" class="edge">
<title>0&#45;&gt;18</title>
<path fill="none" stroke="black" d="M894.26,-104.39C980.58,-105.12 1245.05,-104.1 1460.55,-69 1515.99,-59.97 1529.83,-55.4 1582.55,-36 1584.39,-35.32 1586.28,-34.58 1588.17,-33.8"/>
<polygon fill="black" stroke="black" points="1589.75,-36.93 1597.49,-29.7 1586.93,-30.52 1589.75,-36.93"/>
<text text-anchor="middle" x="1545.05" y="-57.8" font-family="Times,serif" font-size="14.00">dep</text>
</g>
</g>
</svg>
