<?xml version="1.0" encoding="UTF-8" standalone="no"?>
<!DOCTYPE svg PUBLIC "-//W3C//DTD SVG 1.1//EN"
 "http://www.w3.org/Graphics/SVG/1.1/DTD/svg11.dtd">
<!-- Generated by graphviz version 2.42.4 (0)
 -->
<!-- Pages: 1 -->
<svg width="2107pt" height="131pt"
 viewBox="0.00 0.00 2107.25 131.00" xmlns="http://www.w3.org/2000/svg" xmlns:xlink="http://www.w3.org/1999/xlink">
<g id="graph0" class="graph" transform="scale(1 1) rotate(0) translate(4 127)">
<polygon fill="white" stroke="transparent" points="-4,4 -4,-127 2103.25,-127 2103.25,4 -4,4"/>
<!-- 0 -->
<g id="node1" class="node">
<title>0</title>
<ellipse fill="none" stroke="black" cx="1096.25" cy="-105" rx="27" ry="18"/>
<text text-anchor="middle" x="1096.25" y="-101.3" font-family="Times,serif" font-size="14.00">«</text>
</g>
<!-- 1 -->
<g id="node2" class="node">
<title>1</title>
<ellipse fill="none" stroke="black" cx="29.25" cy="-18" rx="29.5" ry="18"/>
<text text-anchor="middle" x="29.25" y="-14.3" font-family="Times,serif" font-size="14.00">Não</text>
</g>
<!-- 0&#45;&gt;1 -->
<g id="edge1" class="edge">
<title>0&#45;&gt;1</title>
<path fill="none" stroke="black" d="M1068.9,-103.6C939.06,-101.57 383.92,-91.74 212.25,-69 146.73,-60.32 129.94,-56.93 67.25,-36 65.13,-35.29 62.97,-34.51 60.81,-33.68"/>
<polygon fill="black" stroke="black" points="62.04,-30.4 51.46,-29.81 59.37,-36.87 62.04,-30.4"/>
<text text-anchor="middle" x="225.75" y="-57.8" font-family="Times,serif" font-size="14.00">dep</text>
</g>
<!-- 2 -->
<g id="node3" class="node">
<title>2</title>
<ellipse fill="none" stroke="black" cx="130.25" cy="-18" rx="53.89" ry="18"/>
<text text-anchor="middle" x="130.25" y="-14.3" font-family="Times,serif" font-size="14.00">tínhamos</text>
</g>
<!-- 0&#45;&gt;2 -->
<g id="edge2" class="edge">
<title>0&#45;&gt;2</title>
<path fill="none" stroke="black" d="M1069.05,-103.64C948.13,-101.89 458.69,-93.41 307.25,-69 261.43,-61.61 210.59,-46.5 175.19,-34.81"/>
<polygon fill="black" stroke="black" points="176.23,-31.47 165.64,-31.62 174.01,-38.11 176.23,-31.47"/>
<text text-anchor="middle" x="320.75" y="-57.8" font-family="Times,serif" font-size="14.00">dep</text>
</g>
<!-- 3 -->
<g id="node4" class="node">
<title>3</title>
<ellipse fill="none" stroke="black" cx="232.25" cy="-18" rx="30.59" ry="18"/>
<text text-anchor="middle" x="232.25" y="-14.3" font-family="Times,serif" font-size="14.00">uma</text>
</g>
<!-- 0&#45;&gt;3 -->
<g id="edge3" class="edge">
<title>0&#45;&gt;3</title>
<path fill="none" stroke="black" d="M1069.23,-104.03C978.74,-103.83 678.12,-100.65 432.25,-69 360.23,-59.73 341.56,-57.64 272.25,-36 269.85,-35.25 267.4,-34.41 264.96,-33.52"/>
<polygon fill="black" stroke="black" points="266.23,-30.26 255.65,-29.86 263.68,-36.77 266.23,-30.26"/>
<text text-anchor="middle" x="445.75" y="-57.8" font-family="Times,serif" font-size="14.00">dep</text>
</g>
<!-- 4 -->
<g id="node5" class="node">
<title>4</title>
<ellipse fill="none" stroke="black" cx="339.25" cy="-18" rx="58.49" ry="18"/>
<text text-anchor="middle" x="339.25" y="-14.3" font-family="Times,serif" font-size="14.00">segurança</text>
</g>
<!-- 0&#45;&gt;4 -->
<g id="edge4" class="edge">
<title>0&#45;&gt;4</title>
<path fill="none" stroke="black" d="M1069.09,-104.13C987.46,-104.15 737.34,-101.34 533.25,-69 483.27,-61.08 427.43,-46.01 388.54,-34.48"/>
<polygon fill="black" stroke="black" points="389.12,-31 378.54,-31.48 387.11,-37.7 389.12,-31"/>
<text text-anchor="middle" x="546.75" y="-57.8" font-family="Times,serif" font-size="14.00">dep</text>
</g>
<!-- 5 -->
<g id="node6" class="node">
<title>5</title>
<ellipse fill="none" stroke="black" cx="469.25" cy="-18" rx="53.89" ry="18"/>
<text text-anchor="middle" x="469.25" y="-14.3" font-family="Times,serif" font-size="14.00">exemplar</text>
</g>
<!-- 0&#45;&gt;5 -->
<g id="edge5" class="edge">
<title>0&#45;&gt;5</title>
<path fill="none" stroke="black" d="M1069.18,-104.4C995.7,-104.97 786.63,-103.22 617.25,-69 580.47,-61.57 540.21,-47.56 510.98,-36.26"/>
<polygon fill="black" stroke="black" points="512.1,-32.94 501.51,-32.55 509.54,-39.46 512.1,-32.94"/>
<text text-anchor="middle" x="630.75" y="-57.8" font-family="Times,serif" font-size="14.00">dep</text>
</g>
<!-- 6 -->
<g id="node7" class="node">
<title>6</title>
<ellipse fill="none" stroke="black" cx="568.25" cy="-18" rx="27" ry="18"/>
<text text-anchor="middle" x="568.25" y="-14.3" font-family="Times,serif" font-size="14.00">,</text>
</g>
<!-- 0&#45;&gt;6 -->
<g id="edge6" class="edge">
<title>0&#45;&gt;6</title>
<path fill="none" stroke="black" d="M1069.06,-104.09C1003.66,-103.79 832.72,-99.84 694.25,-69 660.18,-61.41 623.29,-45.83 598.29,-34.07"/>
<polygon fill="black" stroke="black" points="599.53,-30.78 589,-29.62 596.5,-37.09 599.53,-30.78"/>
<text text-anchor="middle" x="707.75" y="-57.8" font-family="Times,serif" font-size="14.00">dep</text>
</g>
<!-- 7 -->
<g id="node8" class="node">
<title>7</title>
<ellipse fill="none" stroke="black" cx="643.25" cy="-18" rx="29.8" ry="18"/>
<text text-anchor="middle" x="643.25" y="-14.3" font-family="Times,serif" font-size="14.00">mas</text>
</g>
<!-- 0&#45;&gt;7 -->
<g id="edge7" class="edge">
<title>0&#45;&gt;7</title>
<path fill="none" stroke="black" d="M1069.33,-103.35C1013.19,-101.5 879.79,-94.55 771.25,-69 737.27,-61 700.32,-45.81 674.9,-34.27"/>
<polygon fill="black" stroke="black" points="676.29,-31.06 665.75,-30.04 673.36,-37.41 676.29,-31.06"/>
<text text-anchor="middle" x="784.75" y="-57.8" font-family="Times,serif" font-size="14.00">dep</text>
</g>
<!-- 8 -->
<g id="node9" class="node">
<title>8</title>
<ellipse fill="none" stroke="black" cx="718.25" cy="-18" rx="27" ry="18"/>
<text text-anchor="middle" x="718.25" y="-14.3" font-family="Times,serif" font-size="14.00">ela</text>
</g>
<!-- 0&#45;&gt;8 -->
<g id="edge8" class="edge">
<title>0&#45;&gt;8</title>
<path fill="none" stroke="black" d="M1069.35,-101.71C1024.22,-97.52 930.6,-87.31 853.25,-69 808.11,-58.32 797.29,-53.27 754.25,-36 752.42,-35.27 750.55,-34.49 748.68,-33.68"/>
<polygon fill="black" stroke="black" points="749.94,-30.41 739.38,-29.49 747.06,-36.79 749.94,-30.41"/>
<text text-anchor="middle" x="866.75" y="-57.8" font-family="Times,serif" font-size="14.00">dep</text>
</g>
<!-- 9 -->
<g id="node10" class="node">
<title>9</title>
<ellipse fill="none" stroke="black" cx="790.25" cy="-18" rx="27" ry="18"/>
<text text-anchor="middle" x="790.25" y="-14.3" font-family="Times,serif" font-size="14.00">era</text>
</g>
<!-- 0&#45;&gt;9 -->
<g id="edge9" class="edge">
<title>0&#45;&gt;9</title>
<path fill="none" stroke="black" d="M1070.36,-99.47C1021.58,-90.51 913.17,-68.52 826.25,-36 824.4,-35.31 822.52,-34.56 820.64,-33.78"/>
<polygon fill="black" stroke="black" points="821.88,-30.5 811.32,-29.66 819.05,-36.9 821.88,-30.5"/>
<text text-anchor="middle" x="942.75" y="-57.8" font-family="Times,serif" font-size="14.00">dep</text>
</g>
<!-- 10 -->
<g id="node11" class="node">
<title>10</title>
<ellipse fill="none" stroke="black" cx="891.25" cy="-18" rx="55.79" ry="18"/>
<text text-anchor="middle" x="891.25" y="-14.3" font-family="Times,serif" font-size="14.00">suficiente</text>
</g>
<!-- 0&#45;&gt;10 -->
<g id="edge10" class="edge">
<title>0&#45;&gt;10</title>
<path fill="none" stroke="black" d="M1073.59,-94.86C1056.23,-87.84 1031.7,-77.87 1010.25,-69 984.61,-58.4 955.93,-46.35 933.16,-36.74"/>
<polygon fill="black" stroke="black" points="934.36,-33.45 923.78,-32.79 931.63,-39.9 934.36,-33.45"/>
<text text-anchor="middle" x="1023.75" y="-57.8" font-family="Times,serif" font-size="14.00">dep</text>
</g>
<!-- 11 -->
<g id="node12" class="node">
<title>11</title>
<ellipse fill="none" stroke="black" cx="997.25" cy="-18" rx="31.7" ry="18"/>
<text text-anchor="middle" x="997.25" y="-14.3" font-family="Times,serif" font-size="14.00">para</text>
</g>
<!-- 0&#45;&gt;11 -->
<g id="edge11" class="edge">
<title>0&#45;&gt;11</title>
<path fill="none" stroke="black" d="M1080.34,-90.34C1064.6,-76.83 1040.29,-55.96 1022.02,-40.27"/>
<polygon fill="black" stroke="black" points="1023.98,-37.34 1014.11,-33.48 1019.42,-42.65 1023.98,-37.34"/>
<text text-anchor="middle" x="1066.75" y="-57.8" font-family="Times,serif" font-size="14.00">dep</text>
</g>
<!-- 12 -->
<g id="node13" class="node">
<title>12</title>
<ellipse fill="none" stroke="black" cx="1096.25" cy="-18" rx="49.29" ry="18"/>
<text text-anchor="middle" x="1096.25" y="-14.3" font-family="Times,serif" font-size="14.00">permitir</text>
</g>
<!-- 0&#45;&gt;12 -->
<g id="edge12" class="edge">
<title>0&#45;&gt;12</title>
<path fill="none" stroke="black" d="M1096.25,-86.8C1096.25,-75.16 1096.25,-59.55 1096.25,-46.24"/>
<polygon fill="black" stroke="black" points="1099.75,-46.18 1096.25,-36.18 1092.75,-46.18 1099.75,-46.18"/>
<text text-anchor="middle" x="1109.75" y="-57.8" font-family="Times,serif" font-size="14.00">dep</text>
</g>
<!-- 13 -->
<g id="node14" class="node">
<title>13</title>
<ellipse fill="none" stroke="black" cx="1190.25" cy="-18" rx="27" ry="18"/>
<text text-anchor="middle" x="1190.25" y="-14.3" font-family="Times,serif" font-size="14.00">o</text>
</g>
<!-- 0&#45;&gt;13 -->
<g id="edge13" class="edge">
<title>0&#45;&gt;13</title>
<path fill="none" stroke="black" d="M1111.77,-89.96C1126.87,-76.31 1150,-55.39 1167.24,-39.8"/>
<polygon fill="black" stroke="black" points="1169.63,-42.36 1174.7,-33.06 1164.94,-37.17 1169.63,-42.36"/>
<text text-anchor="middle" x="1162.75" y="-57.8" font-family="Times,serif" font-size="14.00">dep</text>
</g>
<!-- 14 -->
<g id="node15" class="node">
<title>14</title>
<ellipse fill="none" stroke="black" cx="1275.25" cy="-18" rx="39.79" ry="18"/>
<text text-anchor="middle" x="1275.25" y="-14.3" font-family="Times,serif" font-size="14.00">alvará</text>
</g>
<!-- 0&#45;&gt;14 -->
<g id="edge14" class="edge">
<title>0&#45;&gt;14</title>
<path fill="none" stroke="black" d="M1118.95,-95.18C1135.99,-88.41 1159.8,-78.62 1180.25,-69 1201.07,-59.21 1223.91,-47.23 1241.97,-37.45"/>
<polygon fill="black" stroke="black" points="1243.84,-40.42 1250.95,-32.56 1240.49,-34.27 1243.84,-40.42"/>
<text text-anchor="middle" x="1223.75" y="-57.8" font-family="Times,serif" font-size="14.00">dep</text>
</g>
<!-- 15 -->
<g id="node16" class="node">
<title>15</title>
<ellipse fill="none" stroke="black" cx="1360.25" cy="-18" rx="27" ry="18"/>
<text text-anchor="middle" x="1360.25" y="-14.3" font-family="Times,serif" font-size="14.00">de</text>
</g>
<!-- 0&#45;&gt;15 -->
<g id="edge15" class="edge">
<title>0&#45;&gt;15</title>
<path fill="none" stroke="black" d="M1121.96,-98.94C1151.18,-92.93 1200.15,-82.06 1241.25,-69 1279.08,-56.98 1287.84,-51.82 1324.25,-36 1326.05,-35.22 1327.9,-34.39 1329.77,-33.56"/>
<polygon fill="black" stroke="black" points="1331.41,-36.65 1339.03,-29.29 1328.48,-30.29 1331.41,-36.65"/>
<text text-anchor="middle" x="1295.75" y="-57.8" font-family="Times,serif" font-size="14.00">dep</text>
</g>
<!-- 16 -->
<g id="node17" class="node">
<title>16</title>
<ellipse fill="none" stroke="black" cx="1448.25" cy="-18" rx="42.79" ry="18"/>
<text text-anchor="middle" x="1448.25" y="-14.3" font-family="Times,serif" font-size="14.00">licença</text>
</g>
<!-- 0&#45;&gt;16 -->
<g id="edge16" class="edge">
<title>0&#45;&gt;16</title>
<path fill="none" stroke="black" d="M1122.98,-101.38C1164.29,-96.96 1245.9,-86.72 1313.25,-69 1346.72,-60.19 1383.49,-46.28 1410.19,-35.37"/>
<polygon fill="black" stroke="black" points="1411.64,-38.55 1419.54,-31.49 1408.96,-32.08 1411.64,-38.55"/>
<text text-anchor="middle" x="1372.75" y="-57.8" font-family="Times,serif" font-size="14.00">dep</text>
</g>
<!-- 17 -->
<g id="node18" class="node">
<title>17</title>
<ellipse fill="none" stroke="black" cx="1536.25" cy="-18" rx="27" ry="18"/>
<text text-anchor="middle" x="1536.25" y="-14.3" font-family="Times,serif" font-size="14.00">de</text>
</g>
<!-- 0&#45;&gt;17 -->
<g id="edge17" class="edge">
<title>0&#45;&gt;17</title>
<path fill="none" stroke="black" d="M1123.25,-102.35C1175.34,-98.83 1293.12,-89.19 1390.25,-69 1440.22,-58.61 1452.59,-54.28 1500.25,-36 1502.09,-35.29 1503.96,-34.54 1505.84,-33.74"/>
<polygon fill="black" stroke="black" points="1507.44,-36.86 1515.16,-29.6 1504.6,-30.47 1507.44,-36.86"/>
<text text-anchor="middle" x="1463.75" y="-57.8" font-family="Times,serif" font-size="14.00">dep</text>
</g>
<!-- 18 -->
<g id="node19" class="node">
<title>18</title>
<ellipse fill="none" stroke="black" cx="1608.25" cy="-18" rx="27" ry="18"/>
<text text-anchor="middle" x="1608.25" y="-14.3" font-family="Times,serif" font-size="14.00">os</text>
</g>
<!-- 0&#45;&gt;18 -->
<g id="edge18" class="edge">
<title>0&#45;&gt;18</title>
<path fill="none" stroke="black" d="M1123.22,-103.92C1186.52,-103.21 1349.25,-98.42 1481.25,-69 1515.7,-61.32 1553.06,-45.65 1578.28,-33.89"/>
<polygon fill="black" stroke="black" points="1579.79,-37.04 1587.32,-29.59 1576.78,-30.72 1579.79,-37.04"/>
<text text-anchor="middle" x="1541.75" y="-57.8" font-family="Times,serif" font-size="14.00">dep</text>
</g>
<!-- 19 -->
<g id="node20" class="node">
<title>19</title>
<ellipse fill="none" stroke="black" cx="1713.25" cy="-18" rx="59.59" ry="18"/>
<text text-anchor="middle" x="1713.25" y="-14.3" font-family="Times,serif" font-size="14.00">bombeiros</text>
</g>
<!-- 0&#45;&gt;19 -->
<g id="edge19" class="edge">
<title>0&#45;&gt;19</title>
<path fill="none" stroke="black" d="M1123.43,-104.19C1195.32,-104.22 1396.13,-101.17 1559.25,-69 1597.2,-61.52 1638.85,-47.63 1669.25,-36.39"/>
<polygon fill="black" stroke="black" points="1670.57,-39.63 1678.71,-32.84 1668.12,-33.08 1670.57,-39.63"/>
<text text-anchor="middle" x="1628.75" y="-57.8" font-family="Times,serif" font-size="14.00">dep</text>
</g>
<!-- 20 -->
<g id="node21" class="node">
<title>20</title>
<ellipse fill="none" stroke="black" cx="1818.25" cy="-18" rx="27" ry="18"/>
<text text-anchor="middle" x="1818.25" y="-14.3" font-family="Times,serif" font-size="14.00">»</text>
</g>
<!-- 0&#45;&gt;20 -->
<g id="edge20" class="edge">
<title>0&#45;&gt;20</title>
<path fill="none" stroke="black" d="M1123.32,-103.94C1203.6,-103.42 1447.13,-99.26 1646.25,-69 1707.74,-59.66 1723.6,-56.72 1782.25,-36 1784.15,-35.33 1786.09,-34.59 1788.04,-33.8"/>
<polygon fill="black" stroke="black" points="1789.84,-36.83 1797.61,-29.62 1787.04,-30.41 1789.84,-36.83"/>
<text text-anchor="middle" x="1738.75" y="-57.8" font-family="Times,serif" font-size="14.00">dep</text>
</g>
<!-- 21 -->
<g id="node22" class="node">
<title>21</title>
<ellipse fill="none" stroke="black" cx="1890.25" cy="-18" rx="27" ry="18"/>
<text text-anchor="middle" x="1890.25" y="-14.3" font-family="Times,serif" font-size="14.00">,</text>
</g>
<!-- 0&#45;&gt;21 -->
<g id="edge21" class="edge">
<title>0&#45;&gt;21</title>
<path fill="none" stroke="black" d="M1123.27,-103.54C1231.23,-101.57 1631.85,-92.78 1756.25,-69 1793.17,-61.94 1833.29,-45.74 1859.91,-33.68"/>
<polygon fill="black" stroke="black" points="1861.47,-36.82 1869.08,-29.45 1858.53,-30.47 1861.47,-36.82"/>
<text text-anchor="middle" x="1822.75" y="-57.8" font-family="Times,serif" font-size="14.00">dep</text>
</g>
<!-- 22 -->
<g id="node23" class="node">
<title>22</title>
<ellipse fill="none" stroke="black" cx="1981.25" cy="-18" rx="46.29" ry="18"/>
<text text-anchor="middle" x="1981.25" y="-14.3" font-family="Times,serif" font-size="14.00">afirmou</text>
</g>
<!-- 0&#45;&gt;22 -->
<g id="edge22" class="edge">
<title>0&#45;&gt;22</title>
<path fill="none" stroke="black" d="M1123.49,-103.79C1240.25,-102.71 1698.93,-96.75 1840.25,-69 1876.04,-61.97 1915,-47.61 1942.87,-36.07"/>
<polygon fill="black" stroke="black" points="1944.39,-39.23 1952.25,-32.12 1941.67,-32.78 1944.39,-39.23"/>
<text text-anchor="middle" x="1905.75" y="-57.8" font-family="Times,serif" font-size="14.00">dep</text>
</g>
<!-- 23 -->
<g id="node24" class="node">
<title>23</title>
<ellipse fill="none" stroke="black" cx="2072.25" cy="-18" rx="27" ry="18"/>
<text text-anchor="middle" x="2072.25" y="-14.3" font-family="Times,serif" font-size="14.00">.</text>
</g>
<!-- 0&#45;&gt;23 -->
<g id="edge23" class="edge">
<title>0&#45;&gt;23</title>
<path fill="none" stroke="black" d="M1123.5,-103.73C1248.08,-102.37 1764.08,-95.21 1923.25,-69 1974.87,-60.5 1987.33,-54.56 2036.25,-36 2038.09,-35.3 2039.97,-34.55 2041.85,-33.76"/>
<polygon fill="black" stroke="black" points="2043.44,-36.88 2051.17,-29.63 2040.61,-30.48 2043.44,-36.88"/>
<text text-anchor="middle" x="2000.75" y="-57.8" font-family="Times,serif" font-size="14.00">dep</text>
</g>
</g>
</svg>
