<?xml version="1.0" encoding="UTF-8" standalone="no"?>
<!DOCTYPE svg PUBLIC "-//W3C//DTD SVG 1.1//EN"
 "http://www.w3.org/Graphics/SVG/1.1/DTD/svg11.dtd">
<!-- Generated by graphviz version 2.42.4 (0)
 -->
<!-- Pages: 1 -->
<svg width="502pt" height="131pt"
 viewBox="0.00 0.00 502.00 131.00" xmlns="http://www.w3.org/2000/svg" xmlns:xlink="http://www.w3.org/1999/xlink">
<g id="graph0" class="graph" transform="scale(1 1) rotate(0) translate(4 127)">
<polygon fill="white" stroke="transparent" points="-4,4 -4,-127 498,-127 498,4 -4,4"/>
<!-- 0 -->
<g id="node1" class="node">
<title>0</title>
<ellipse fill="none" stroke="black" cx="236" cy="-105" rx="27" ry="18"/>
<text text-anchor="middle" x="236" y="-101.3" font-family="Times,serif" font-size="14.00">«</text>
</g>
<!-- 1 -->
<g id="node2" class="node">
<title>1</title>
<ellipse fill="none" stroke="black" cx="27" cy="-18" rx="27" ry="18"/>
<text text-anchor="middle" x="27" y="-14.3" font-family="Times,serif" font-size="14.00">É</text>
</g>
<!-- 0&#45;&gt;1 -->
<g id="edge1" class="edge">
<title>0&#45;&gt;1</title>
<path fill="none" stroke="black" d="M210.84,-97.85C187.21,-91.72 151.09,-81.44 121,-69 98.06,-59.51 73.32,-46.22 54.98,-35.72"/>
<polygon fill="black" stroke="black" points="56.68,-32.66 46.27,-30.67 53.16,-38.72 56.68,-32.66"/>
<text text-anchor="middle" x="134.5" y="-57.8" font-family="Times,serif" font-size="14.00">dep</text>
</g>
<!-- 2 -->
<g id="node3" class="node">
<title>2</title>
<ellipse fill="none" stroke="black" cx="99" cy="-18" rx="27" ry="18"/>
<text text-anchor="middle" x="99" y="-14.3" font-family="Times,serif" font-size="14.00">um</text>
</g>
<!-- 0&#45;&gt;2 -->
<g id="edge2" class="edge">
<title>0&#45;&gt;2</title>
<path fill="none" stroke="black" d="M215.68,-93.02C203.47,-86.31 187.69,-77.41 174,-69 157.55,-58.89 139.53,-46.91 125.28,-37.21"/>
<polygon fill="black" stroke="black" points="127.17,-34.27 116.94,-31.51 123.22,-40.04 127.17,-34.27"/>
<text text-anchor="middle" x="187.5" y="-57.8" font-family="Times,serif" font-size="14.00">dep</text>
</g>
<!-- 3 -->
<g id="node4" class="node">
<title>3</title>
<ellipse fill="none" stroke="black" cx="180" cy="-18" rx="36" ry="18"/>
<text text-anchor="middle" x="180" y="-14.3" font-family="Times,serif" font-size="14.00">nicho</text>
</g>
<!-- 0&#45;&gt;3 -->
<g id="edge3" class="edge">
<title>0&#45;&gt;3</title>
<path fill="none" stroke="black" d="M225.47,-88.01C217.23,-75.51 205.63,-57.9 196.21,-43.61"/>
<polygon fill="black" stroke="black" points="199.1,-41.63 190.68,-35.21 193.26,-45.48 199.1,-41.63"/>
<text text-anchor="middle" x="225.5" y="-57.8" font-family="Times,serif" font-size="14.00">dep</text>
</g>
<!-- 4 -->
<g id="node5" class="node">
<title>4</title>
<ellipse fill="none" stroke="black" cx="292" cy="-18" rx="57.69" ry="18"/>
<text text-anchor="middle" x="292" y="-14.3" font-family="Times,serif" font-size="14.00">promissor</text>
</g>
<!-- 0&#45;&gt;4 -->
<g id="edge4" class="edge">
<title>0&#45;&gt;4</title>
<path fill="none" stroke="black" d="M246.53,-88.01C254.67,-75.67 266.07,-58.35 275.43,-44.15"/>
<polygon fill="black" stroke="black" points="278.36,-46.06 280.94,-35.79 272.51,-42.21 278.36,-46.06"/>
<text text-anchor="middle" x="281.5" y="-57.8" font-family="Times,serif" font-size="14.00">dep</text>
</g>
<!-- 5 -->
<g id="node6" class="node">
<title>5</title>
<ellipse fill="none" stroke="black" cx="395" cy="-18" rx="27" ry="18"/>
<text text-anchor="middle" x="395" y="-14.3" font-family="Times,serif" font-size="14.00">»</text>
</g>
<!-- 0&#45;&gt;5 -->
<g id="edge5" class="edge">
<title>0&#45;&gt;5</title>
<path fill="none" stroke="black" d="M256.46,-93.06C284.25,-78.21 334.08,-51.57 365.79,-34.61"/>
<polygon fill="black" stroke="black" points="367.45,-37.7 374.62,-29.9 364.15,-31.52 367.45,-37.7"/>
<text text-anchor="middle" x="339.5" y="-57.8" font-family="Times,serif" font-size="14.00">dep</text>
</g>
<!-- 6 -->
<g id="node7" class="node">
<title>6</title>
<ellipse fill="none" stroke="black" cx="467" cy="-18" rx="27" ry="18"/>
<text text-anchor="middle" x="467" y="-14.3" font-family="Times,serif" font-size="14.00">.</text>
</g>
<!-- 0&#45;&gt;6 -->
<g id="edge6" class="edge">
<title>0&#45;&gt;6</title>
<path fill="none" stroke="black" d="M260.89,-97.88C285.58,-91.55 324.34,-80.94 357,-69 390.82,-56.63 398.27,-51.02 431,-36 432.79,-35.18 434.63,-34.33 436.48,-33.47"/>
<polygon fill="black" stroke="black" points="438.14,-36.55 445.72,-29.14 435.17,-30.21 438.14,-36.55"/>
<text text-anchor="middle" x="407.5" y="-57.8" font-family="Times,serif" font-size="14.00">dep</text>
</g>
</g>
</svg>
