<?xml version="1.0" encoding="UTF-8" standalone="no"?>
<!DOCTYPE svg PUBLIC "-//W3C//DTD SVG 1.1//EN"
 "http://www.w3.org/Graphics/SVG/1.1/DTD/svg11.dtd">
<!-- Generated by graphviz version 2.42.4 (0)
 -->
<!-- Pages: 1 -->
<svg width="599pt" height="131pt"
 viewBox="0.00 0.00 598.54 131.00" xmlns="http://www.w3.org/2000/svg" xmlns:xlink="http://www.w3.org/1999/xlink">
<g id="graph0" class="graph" transform="scale(1 1) rotate(0) translate(4 127)">
<polygon fill="white" stroke="transparent" points="-4,4 -4,-127 594.54,-127 594.54,4 -4,4"/>
<!-- 0 -->
<g id="node1" class="node">
<title>0</title>
<ellipse fill="none" stroke="black" cx="271" cy="-105" rx="43.59" ry="18"/>
<text text-anchor="middle" x="271" y="-101.3" font-family="Times,serif" font-size="14.00">Edinho</text>
</g>
<!-- 1 -->
<g id="node2" class="node">
<title>1</title>
<ellipse fill="none" stroke="black" cx="27" cy="-18" rx="27" ry="18"/>
<text text-anchor="middle" x="27" y="-14.3" font-family="Times,serif" font-size="14.00">é</text>
</g>
<!-- 0&#45;&gt;1 -->
<g id="edge1" class="edge">
<title>0&#45;&gt;1</title>
<path fill="none" stroke="black" d="M232.07,-96.75C203.15,-90.81 163,-81.36 129,-69 103.4,-59.69 75.73,-45.87 55.68,-35.12"/>
<polygon fill="black" stroke="black" points="57.22,-31.97 46.76,-30.27 53.88,-38.12 57.22,-31.97"/>
<text text-anchor="middle" x="142.5" y="-57.8" font-family="Times,serif" font-size="14.00">dep</text>
</g>
<!-- 2 -->
<g id="node3" class="node">
<title>2</title>
<ellipse fill="none" stroke="black" cx="99" cy="-18" rx="27" ry="18"/>
<text text-anchor="middle" x="99" y="-14.3" font-family="Times,serif" font-size="14.00">o</text>
</g>
<!-- 0&#45;&gt;2 -->
<g id="edge2" class="edge">
<title>0&#45;&gt;2</title>
<path fill="none" stroke="black" d="M240.27,-92.24C224.2,-85.83 204.31,-77.48 187,-69 166.5,-58.95 144.14,-46.22 127.09,-36.12"/>
<polygon fill="black" stroke="black" points="128.59,-32.94 118.21,-30.82 124.99,-38.95 128.59,-32.94"/>
<text text-anchor="middle" x="200.5" y="-57.8" font-family="Times,serif" font-size="14.00">dep</text>
</g>
<!-- 3 -->
<g id="node4" class="node">
<title>3</title>
<ellipse fill="none" stroke="black" cx="176" cy="-18" rx="32.49" ry="18"/>
<text text-anchor="middle" x="176" y="-14.3" font-family="Times,serif" font-size="14.00">novo</text>
</g>
<!-- 0&#45;&gt;3 -->
<g id="edge3" class="edge">
<title>0&#45;&gt;3</title>
<path fill="none" stroke="black" d="M253.58,-88.41C238.57,-74.98 216.76,-55.47 200.08,-40.55"/>
<polygon fill="black" stroke="black" points="202.15,-37.7 192.36,-33.64 197.48,-42.92 202.15,-37.7"/>
<text text-anchor="middle" x="243.5" y="-57.8" font-family="Times,serif" font-size="14.00">dep</text>
</g>
<!-- 4 -->
<g id="node5" class="node">
<title>4</title>
<ellipse fill="none" stroke="black" cx="271" cy="-18" rx="44.39" ry="18"/>
<text text-anchor="middle" x="271" y="-14.3" font-family="Times,serif" font-size="14.00">técnico</text>
</g>
<!-- 0&#45;&gt;4 -->
<g id="edge4" class="edge">
<title>0&#45;&gt;4</title>
<path fill="none" stroke="black" d="M271,-86.8C271,-75.16 271,-59.55 271,-46.24"/>
<polygon fill="black" stroke="black" points="274.5,-46.18 271,-36.18 267.5,-46.18 274.5,-46.18"/>
<text text-anchor="middle" x="284.5" y="-57.8" font-family="Times,serif" font-size="14.00">dep</text>
</g>
<!-- 5 -->
<g id="node6" class="node">
<title>5</title>
<ellipse fill="none" stroke="black" cx="360" cy="-18" rx="27" ry="18"/>
<text text-anchor="middle" x="360" y="-14.3" font-family="Times,serif" font-size="14.00">de</text>
</g>
<!-- 0&#45;&gt;5 -->
<g id="edge5" class="edge">
<title>0&#45;&gt;5</title>
<path fill="none" stroke="black" d="M287.74,-88.01C301.8,-74.58 322.03,-55.26 337.51,-40.48"/>
<polygon fill="black" stroke="black" points="340.3,-42.66 345.11,-33.22 335.46,-37.6 340.3,-42.66"/>
<text text-anchor="middle" x="334.5" y="-57.8" font-family="Times,serif" font-size="14.00">dep</text>
</g>
<!-- 6 -->
<g id="node7" class="node">
<title>6</title>
<ellipse fill="none" stroke="black" cx="432" cy="-18" rx="27" ry="18"/>
<text text-anchor="middle" x="432" y="-14.3" font-family="Times,serif" font-size="14.00">o</text>
</g>
<!-- 0&#45;&gt;6 -->
<g id="edge6" class="edge">
<title>0&#45;&gt;6</title>
<path fill="none" stroke="black" d="M301.51,-92.09C316.91,-85.77 335.72,-77.54 352,-69 370.31,-59.39 390.01,-47.1 405.28,-37.11"/>
<polygon fill="black" stroke="black" points="407.31,-39.97 413.72,-31.53 403.45,-34.13 407.31,-39.97"/>
<text text-anchor="middle" x="390.5" y="-57.8" font-family="Times,serif" font-size="14.00">dep</text>
</g>
<!-- 7 -->
<g id="node8" class="node">
<title>7</title>
<ellipse fill="none" stroke="black" cx="534" cy="-18" rx="56.59" ry="18"/>
<text text-anchor="middle" x="534" y="-14.3" font-family="Times,serif" font-size="14.00">Flamengo</text>
</g>
<!-- 0&#45;&gt;7 -->
<g id="edge7" class="edge">
<title>0&#45;&gt;7</title>
<path fill="none" stroke="black" d="M308.58,-95.76C336.32,-89.36 374.84,-79.76 408,-69 436.75,-59.66 468.37,-47.11 492.74,-36.92"/>
<polygon fill="black" stroke="black" points="494.19,-40.11 502.04,-32.99 491.47,-33.66 494.19,-40.11"/>
<text text-anchor="middle" x="464.5" y="-57.8" font-family="Times,serif" font-size="14.00">dep</text>
</g>
</g>
</svg>
