<?xml version="1.0" encoding="UTF-8" standalone="no"?>
<!DOCTYPE svg PUBLIC "-//W3C//DTD SVG 1.1//EN"
 "http://www.w3.org/Graphics/SVG/1.1/DTD/svg11.dtd">
<!-- Generated by graphviz version 2.42.4 (0)
 -->
<!-- Pages: 1 -->
<svg width="1343pt" height="131pt"
 viewBox="0.00 0.00 1343.49 131.00" xmlns="http://www.w3.org/2000/svg" xmlns:xlink="http://www.w3.org/1999/xlink">
<g id="graph0" class="graph" transform="scale(1 1) rotate(0) translate(4 127)">
<polygon fill="white" stroke="transparent" points="-4,4 -4,-127 1339.49,-127 1339.49,4 -4,4"/>
<!-- 0 -->
<g id="node1" class="node">
<title>0</title>
<ellipse fill="none" stroke="black" cx="699.49" cy="-105" rx="27" ry="18"/>
<text text-anchor="middle" x="699.49" y="-101.3" font-family="Times,serif" font-size="14.00">O</text>
</g>
<!-- 1 -->
<g id="node2" class="node">
<title>1</title>
<ellipse fill="none" stroke="black" cx="84.49" cy="-18" rx="84.49" ry="18"/>
<text text-anchor="middle" x="84.49" y="-14.3" font-family="Times,serif" font-size="14.00">secretário&#45;geral</text>
</g>
<!-- 0&#45;&gt;1 -->
<g id="edge1" class="edge">
<title>0&#45;&gt;1</title>
<path fill="none" stroke="black" d="M672.35,-103.59C603.69,-102.16 417.72,-95.91 265.49,-69 221.77,-61.27 173.34,-47.61 137.59,-36.52"/>
<polygon fill="black" stroke="black" points="138.44,-33.12 127.85,-33.47 136.35,-39.8 138.44,-33.12"/>
<text text-anchor="middle" x="278.99" y="-57.8" font-family="Times,serif" font-size="14.00">dep</text>
</g>
<!-- 2 -->
<g id="node3" class="node">
<title>2</title>
<ellipse fill="none" stroke="black" cx="213.49" cy="-18" rx="27" ry="18"/>
<text text-anchor="middle" x="213.49" y="-14.3" font-family="Times,serif" font-size="14.00">de</text>
</g>
<!-- 0&#45;&gt;2 -->
<g id="edge2" class="edge">
<title>0&#45;&gt;2</title>
<path fill="none" stroke="black" d="M672.56,-103.24C613.71,-101.15 469.46,-93.72 351.49,-69 304.86,-59.23 293.79,-53.54 249.49,-36 247.66,-35.27 245.79,-34.5 243.91,-33.7"/>
<polygon fill="black" stroke="black" points="245.17,-30.42 234.61,-29.53 242.31,-36.81 245.17,-30.42"/>
<text text-anchor="middle" x="364.99" y="-57.8" font-family="Times,serif" font-size="14.00">dep</text>
</g>
<!-- 3 -->
<g id="node4" class="node">
<title>3</title>
<ellipse fill="none" stroke="black" cx="285.49" cy="-18" rx="27" ry="18"/>
<text text-anchor="middle" x="285.49" y="-14.3" font-family="Times,serif" font-size="14.00">a</text>
</g>
<!-- 0&#45;&gt;3 -->
<g id="edge3" class="edge">
<title>0&#45;&gt;3</title>
<path fill="none" stroke="black" d="M672.67,-101.99C609.79,-96.68 448.59,-79.57 321.49,-36 319.58,-35.34 317.63,-34.62 315.69,-33.84"/>
<polygon fill="black" stroke="black" points="316.67,-30.45 306.11,-29.69 313.89,-36.88 316.67,-30.45"/>
<text text-anchor="middle" x="457.99" y="-57.8" font-family="Times,serif" font-size="14.00">dep</text>
</g>
<!-- 4 -->
<g id="node5" class="node">
<title>4</title>
<ellipse fill="none" stroke="black" cx="395.49" cy="-18" rx="64.99" ry="18"/>
<text text-anchor="middle" x="395.49" y="-14.3" font-family="Times,serif" font-size="14.00">Presidência</text>
</g>
<!-- 0&#45;&gt;4 -->
<g id="edge4" class="edge">
<title>0&#45;&gt;4</title>
<path fill="none" stroke="black" d="M673.86,-98.91C643.32,-92.67 590.85,-81.39 546.49,-69 511.48,-59.22 472.56,-46.28 443,-36.02"/>
<polygon fill="black" stroke="black" points="443.95,-32.64 433.35,-32.65 441.64,-39.25 443.95,-32.64"/>
<text text-anchor="middle" x="559.99" y="-57.8" font-family="Times,serif" font-size="14.00">dep</text>
</g>
<!-- 5 -->
<g id="node6" class="node">
<title>5</title>
<ellipse fill="none" stroke="black" cx="505.49" cy="-18" rx="27" ry="18"/>
<text text-anchor="middle" x="505.49" y="-14.3" font-family="Times,serif" font-size="14.00">,</text>
</g>
<!-- 0&#45;&gt;5 -->
<g id="edge5" class="edge">
<title>0&#45;&gt;5</title>
<path fill="none" stroke="black" d="M676.08,-95.62C657.57,-88.84 631.16,-78.84 608.49,-69 583.46,-58.14 555.66,-44.55 535.26,-34.28"/>
<polygon fill="black" stroke="black" points="536.67,-31.07 526.16,-29.67 533.5,-37.31 536.67,-31.07"/>
<text text-anchor="middle" x="621.99" y="-57.8" font-family="Times,serif" font-size="14.00">dep</text>
</g>
<!-- 6 -->
<g id="node7" class="node">
<title>6</title>
<ellipse fill="none" stroke="black" cx="591.49" cy="-18" rx="40.89" ry="18"/>
<text text-anchor="middle" x="591.49" y="-14.3" font-family="Times,serif" font-size="14.00">Mauro</text>
</g>
<!-- 0&#45;&gt;6 -->
<g id="edge6" class="edge">
<title>0&#45;&gt;6</title>
<path fill="none" stroke="black" d="M682.62,-90.72C665.51,-77.26 638.78,-56.22 618.69,-40.4"/>
<polygon fill="black" stroke="black" points="620.82,-37.63 610.8,-34.2 616.49,-43.13 620.82,-37.63"/>
<text text-anchor="middle" x="665.99" y="-57.8" font-family="Times,serif" font-size="14.00">dep</text>
</g>
<!-- 7 -->
<g id="node8" class="node">
<title>7</title>
<ellipse fill="none" stroke="black" cx="699.49" cy="-18" rx="48.99" ry="18"/>
<text text-anchor="middle" x="699.49" y="-14.3" font-family="Times,serif" font-size="14.00">Durante</text>
</g>
<!-- 0&#45;&gt;7 -->
<g id="edge7" class="edge">
<title>0&#45;&gt;7</title>
<path fill="none" stroke="black" d="M699.49,-86.8C699.49,-75.16 699.49,-59.55 699.49,-46.24"/>
<polygon fill="black" stroke="black" points="702.99,-46.18 699.49,-36.18 695.99,-46.18 702.99,-46.18"/>
<text text-anchor="middle" x="712.99" y="-57.8" font-family="Times,serif" font-size="14.00">dep</text>
</g>
<!-- 8 -->
<g id="node9" class="node">
<title>8</title>
<ellipse fill="none" stroke="black" cx="793.49" cy="-18" rx="27" ry="18"/>
<text text-anchor="middle" x="793.49" y="-14.3" font-family="Times,serif" font-size="14.00">,</text>
</g>
<!-- 0&#45;&gt;8 -->
<g id="edge8" class="edge">
<title>0&#45;&gt;8</title>
<path fill="none" stroke="black" d="M715.01,-89.96C730.12,-76.31 753.25,-55.39 770.49,-39.8"/>
<polygon fill="black" stroke="black" points="772.88,-42.36 777.95,-33.06 768.18,-37.17 772.88,-42.36"/>
<text text-anchor="middle" x="765.99" y="-57.8" font-family="Times,serif" font-size="14.00">dep</text>
</g>
<!-- 9 -->
<g id="node10" class="node">
<title>9</title>
<ellipse fill="none" stroke="black" cx="887.49" cy="-18" rx="48.99" ry="18"/>
<text text-anchor="middle" x="887.49" y="-14.3" font-family="Times,serif" font-size="14.00">também</text>
</g>
<!-- 0&#45;&gt;9 -->
<g id="edge9" class="edge">
<title>0&#45;&gt;9</title>
<path fill="none" stroke="black" d="M722.09,-94.96C739.08,-88.08 762.88,-78.24 783.49,-69 805.9,-58.95 830.7,-47.06 850.45,-37.4"/>
<polygon fill="black" stroke="black" points="852,-40.54 859.43,-32.99 848.91,-34.26 852,-40.54"/>
<text text-anchor="middle" x="828.99" y="-57.8" font-family="Times,serif" font-size="14.00">dep</text>
</g>
<!-- 10 -->
<g id="node11" class="node">
<title>10</title>
<ellipse fill="none" stroke="black" cx="982.49" cy="-18" rx="28.7" ry="18"/>
<text text-anchor="middle" x="982.49" y="-14.3" font-family="Times,serif" font-size="14.00">tem</text>
</g>
<!-- 0&#45;&gt;10 -->
<g id="edge10" class="edge">
<title>0&#45;&gt;10</title>
<path fill="none" stroke="black" d="M724.9,-98.66C754.34,-92.31 804.23,-81.05 846.49,-69 891.1,-56.28 902.36,-53.04 945.49,-36 947.32,-35.28 949.18,-34.52 951.05,-33.73"/>
<polygon fill="black" stroke="black" points="952.6,-36.87 960.36,-29.65 949.79,-30.46 952.6,-36.87"/>
<text text-anchor="middle" x="910.99" y="-57.8" font-family="Times,serif" font-size="14.00">dep</text>
</g>
<!-- 11 -->
<g id="node12" class="node">
<title>11</title>
<ellipse fill="none" stroke="black" cx="1081.49" cy="-18" rx="51.99" ry="18"/>
<text text-anchor="middle" x="1081.49" y="-14.3" font-family="Times,serif" font-size="14.00">emprego</text>
</g>
<!-- 0&#45;&gt;11 -->
<g id="edge11" class="edge">
<title>0&#45;&gt;11</title>
<path fill="none" stroke="black" d="M726.21,-101.36C769.22,-96.78 856.31,-86.19 928.49,-69 966.15,-60.03 1007.84,-46.13 1038.19,-35.26"/>
<polygon fill="black" stroke="black" points="1039.41,-38.54 1047.62,-31.85 1037.03,-31.96 1039.41,-38.54"/>
<text text-anchor="middle" x="993.99" y="-57.8" font-family="Times,serif" font-size="14.00">dep</text>
</g>
<!-- 12 -->
<g id="node13" class="node">
<title>12</title>
<ellipse fill="none" stroke="black" cx="1207.49" cy="-18" rx="55.79" ry="18"/>
<text text-anchor="middle" x="1207.49" y="-14.3" font-family="Times,serif" font-size="14.00">garantido</text>
</g>
<!-- 0&#45;&gt;12 -->
<g id="edge12" class="edge">
<title>0&#45;&gt;12</title>
<path fill="none" stroke="black" d="M726.38,-102.21C780.62,-98.34 906.91,-87.95 1011.49,-69 1070.57,-58.3 1084.34,-50.93 1142.49,-36 1146.8,-34.89 1151.27,-33.74 1155.76,-32.58"/>
<polygon fill="black" stroke="black" points="1156.75,-35.93 1165.55,-30.03 1154.99,-29.16 1156.75,-35.93"/>
<text text-anchor="middle" x="1090.99" y="-57.8" font-family="Times,serif" font-size="14.00">dep</text>
</g>
<!-- 13 -->
<g id="node14" class="node">
<title>13</title>
<ellipse fill="none" stroke="black" cx="1308.49" cy="-18" rx="27" ry="18"/>
<text text-anchor="middle" x="1308.49" y="-14.3" font-family="Times,serif" font-size="14.00">.</text>
</g>
<!-- 0&#45;&gt;13 -->
<g id="edge13" class="edge">
<title>0&#45;&gt;13</title>
<path fill="none" stroke="black" d="M726.41,-102.75C792.01,-99.48 965.28,-89.47 1108.49,-69 1182.09,-58.48 1201.91,-59.38 1272.49,-36 1274.41,-35.36 1276.36,-34.65 1278.31,-33.89"/>
<polygon fill="black" stroke="black" points="1280.1,-36.93 1287.9,-29.77 1277.34,-30.5 1280.1,-36.93"/>
<text text-anchor="middle" x="1221.99" y="-57.8" font-family="Times,serif" font-size="14.00">dep</text>
</g>
</g>
</svg>
