<?xml version="1.0" encoding="UTF-8" standalone="no"?>
<!DOCTYPE svg PUBLIC "-//W3C//DTD SVG 1.1//EN"
 "http://www.w3.org/Graphics/SVG/1.1/DTD/svg11.dtd">
<!-- Generated by graphviz version 2.42.4 (0)
 -->
<!-- Pages: 1 -->
<svg width="2100pt" height="131pt"
 viewBox="0.00 0.00 2099.65 131.00" xmlns="http://www.w3.org/2000/svg" xmlns:xlink="http://www.w3.org/1999/xlink">
<g id="graph0" class="graph" transform="scale(1 1) rotate(0) translate(4 127)">
<polygon fill="white" stroke="transparent" points="-4,4 -4,-127 2095.65,-127 2095.65,4 -4,4"/>
<!-- 0 -->
<g id="node1" class="node">
<title>0</title>
<ellipse fill="none" stroke="black" cx="1094.65" cy="-105" rx="27" ry="18"/>
<text text-anchor="middle" x="1094.65" y="-101.3" font-family="Times,serif" font-size="14.00">A</text>
</g>
<!-- 1 -->
<g id="node2" class="node">
<title>1</title>
<ellipse fill="none" stroke="black" cx="39.65" cy="-18" rx="39.79" ry="18"/>
<text text-anchor="middle" x="39.65" y="-14.3" font-family="Times,serif" font-size="14.00">famíla</text>
</g>
<!-- 0&#45;&gt;1 -->
<g id="edge1" class="edge">
<title>0&#45;&gt;1</title>
<path fill="none" stroke="black" d="M1067.43,-103.83C936.92,-102.88 374.49,-97.19 201.65,-69 158.21,-61.92 110.24,-46.05 77.86,-34.08"/>
<polygon fill="black" stroke="black" points="78.93,-30.74 68.33,-30.5 76.47,-37.29 78.93,-30.74"/>
<text text-anchor="middle" x="215.15" y="-57.8" font-family="Times,serif" font-size="14.00">dep</text>
</g>
<!-- 2 -->
<g id="node3" class="node">
<title>2</title>
<ellipse fill="none" stroke="black" cx="141.65" cy="-18" rx="44.39" ry="18"/>
<text text-anchor="middle" x="141.65" y="-14.3" font-family="Times,serif" font-size="14.00">voltava</text>
</g>
<!-- 0&#45;&gt;2 -->
<g id="edge2" class="edge">
<title>0&#45;&gt;2</title>
<path fill="none" stroke="black" d="M1067.48,-103.9C944.44,-103.29 438.8,-98.97 283.65,-69 247.26,-61.97 207.62,-47.39 179.5,-35.78"/>
<polygon fill="black" stroke="black" points="180.63,-32.46 170.05,-31.81 177.92,-38.91 180.63,-32.46"/>
<text text-anchor="middle" x="297.15" y="-57.8" font-family="Times,serif" font-size="14.00">dep</text>
</g>
<!-- 3 -->
<g id="node4" class="node">
<title>3</title>
<ellipse fill="none" stroke="black" cx="235.65" cy="-18" rx="31.7" ry="18"/>
<text text-anchor="middle" x="235.65" y="-14.3" font-family="Times,serif" font-size="14.00">para</text>
</g>
<!-- 0&#45;&gt;3 -->
<g id="edge3" class="edge">
<title>0&#45;&gt;3</title>
<path fill="none" stroke="black" d="M1067.52,-103.82C952.27,-102.9 502.89,-97.51 364.65,-69 330.44,-61.95 293.47,-46.77 267.91,-34.98"/>
<polygon fill="black" stroke="black" points="269.24,-31.74 258.71,-30.65 266.26,-38.07 269.24,-31.74"/>
<text text-anchor="middle" x="378.15" y="-57.8" font-family="Times,serif" font-size="14.00">dep</text>
</g>
<!-- 4 -->
<g id="node5" class="node">
<title>4</title>
<ellipse fill="none" stroke="black" cx="316.65" cy="-18" rx="31.4" ry="18"/>
<text text-anchor="middle" x="316.65" y="-14.3" font-family="Times,serif" font-size="14.00">casa</text>
</g>
<!-- 0&#45;&gt;4 -->
<g id="edge4" class="edge">
<title>0&#45;&gt;4</title>
<path fill="none" stroke="black" d="M1067.37,-103.6C960.24,-101.88 568.18,-93.98 446.65,-69 411.99,-61.88 374.49,-46.56 348.71,-34.75"/>
<polygon fill="black" stroke="black" points="349.97,-31.48 339.43,-30.42 347.01,-37.82 349.97,-31.48"/>
<text text-anchor="middle" x="460.15" y="-57.8" font-family="Times,serif" font-size="14.00">dep</text>
</g>
<!-- 5 -->
<g id="node6" class="node">
<title>5</title>
<ellipse fill="none" stroke="black" cx="392.65" cy="-18" rx="27" ry="18"/>
<text text-anchor="middle" x="392.65" y="-14.3" font-family="Times,serif" font-size="14.00">,</text>
</g>
<!-- 0&#45;&gt;5 -->
<g id="edge5" class="edge">
<title>0&#45;&gt;5</title>
<path fill="none" stroke="black" d="M1067.53,-104.44C986.6,-105.31 739.97,-104.62 539.65,-69 488.97,-59.99 476.72,-54.37 428.65,-36 426.81,-35.3 424.93,-34.54 423.05,-33.75"/>
<polygon fill="black" stroke="black" points="424.29,-30.47 413.73,-29.61 421.45,-36.87 424.29,-30.47"/>
<text text-anchor="middle" x="553.15" y="-57.8" font-family="Times,serif" font-size="14.00">dep</text>
</g>
<!-- 6 -->
<g id="node7" class="node">
<title>6</title>
<ellipse fill="none" stroke="black" cx="464.65" cy="-18" rx="27" ry="18"/>
<text text-anchor="middle" x="464.65" y="-14.3" font-family="Times,serif" font-size="14.00">em</text>
</g>
<!-- 0&#45;&gt;6 -->
<g id="edge6" class="edge">
<title>0&#45;&gt;6</title>
<path fill="none" stroke="black" d="M1067.76,-102.55C1002.22,-98.83 829.08,-87.89 685.65,-69 602.84,-58.09 580.21,-61.39 500.65,-36 498.72,-35.39 496.76,-34.69 494.81,-33.94"/>
<polygon fill="black" stroke="black" points="495.78,-30.55 485.21,-29.85 493.04,-36.99 495.78,-30.55"/>
<text text-anchor="middle" x="699.15" y="-57.8" font-family="Times,serif" font-size="14.00">dep</text>
</g>
<!-- 7 -->
<g id="node8" class="node">
<title>7</title>
<ellipse fill="none" stroke="black" cx="591.65" cy="-18" rx="81.79" ry="18"/>
<text text-anchor="middle" x="591.65" y="-14.3" font-family="Times,serif" font-size="14.00">Americanópolis</text>
</g>
<!-- 0&#45;&gt;7 -->
<g id="edge7" class="edge">
<title>0&#45;&gt;7</title>
<path fill="none" stroke="black" d="M1067.72,-102.42C1012.8,-98.89 884.02,-89.05 777.65,-69 733.04,-60.59 683.45,-47.04 646.69,-36.17"/>
<polygon fill="black" stroke="black" points="647.27,-32.69 636.68,-33.18 645.26,-39.4 647.27,-32.69"/>
<text text-anchor="middle" x="791.15" y="-57.8" font-family="Times,serif" font-size="14.00">dep</text>
</g>
<!-- 8 -->
<g id="node9" class="node">
<title>8</title>
<ellipse fill="none" stroke="black" cx="718.65" cy="-18" rx="27" ry="18"/>
<text text-anchor="middle" x="718.65" y="-14.3" font-family="Times,serif" font-size="14.00">,</text>
</g>
<!-- 0&#45;&gt;8 -->
<g id="edge8" class="edge">
<title>0&#45;&gt;8</title>
<path fill="none" stroke="black" d="M1067.79,-101.71C1009.2,-96.05 866.26,-78.66 754.65,-36 752.81,-35.3 750.93,-34.54 749.05,-33.75"/>
<polygon fill="black" stroke="black" points="750.29,-30.47 739.73,-29.61 747.45,-36.87 750.29,-30.47"/>
<text text-anchor="middle" x="878.15" y="-57.8" font-family="Times,serif" font-size="14.00">dep</text>
</g>
<!-- 9 -->
<g id="node10" class="node">
<title>9</title>
<ellipse fill="none" stroke="black" cx="804.65" cy="-18" rx="40.89" ry="18"/>
<text text-anchor="middle" x="804.65" y="-14.3" font-family="Times,serif" font-size="14.00">depois</text>
</g>
<!-- 0&#45;&gt;9 -->
<g id="edge9" class="edge">
<title>0&#45;&gt;9</title>
<path fill="none" stroke="black" d="M1068.95,-99.14C1038.34,-93.13 985.81,-82.05 941.65,-69 907.91,-59.03 870.44,-45.15 843.23,-34.55"/>
<polygon fill="black" stroke="black" points="844.28,-31.2 833.69,-30.8 841.72,-37.72 844.28,-31.2"/>
<text text-anchor="middle" x="955.15" y="-57.8" font-family="Times,serif" font-size="14.00">dep</text>
</g>
<!-- 10 -->
<g id="node11" class="node">
<title>10</title>
<ellipse fill="none" stroke="black" cx="890.65" cy="-18" rx="27" ry="18"/>
<text text-anchor="middle" x="890.65" y="-14.3" font-family="Times,serif" font-size="14.00">de</text>
</g>
<!-- 0&#45;&gt;10 -->
<g id="edge10" class="edge">
<title>0&#45;&gt;10</title>
<path fill="none" stroke="black" d="M1071.63,-95.21C1039.08,-82.67 977.87,-58.64 926.65,-36 924.84,-35.2 923,-34.37 921.14,-33.53"/>
<polygon fill="black" stroke="black" points="922.43,-30.27 911.89,-29.24 919.49,-36.62 922.43,-30.27"/>
<text text-anchor="middle" x="1018.15" y="-57.8" font-family="Times,serif" font-size="14.00">dep</text>
</g>
<!-- 11 -->
<g id="node12" class="node">
<title>11</title>
<ellipse fill="none" stroke="black" cx="992.65" cy="-18" rx="56.59" ry="18"/>
<text text-anchor="middle" x="992.65" y="-14.3" font-family="Times,serif" font-size="14.00">participar</text>
</g>
<!-- 0&#45;&gt;11 -->
<g id="edge11" class="edge">
<title>0&#45;&gt;11</title>
<path fill="none" stroke="black" d="M1078.26,-90.34C1062.46,-77.18 1038.28,-57.03 1019.64,-41.49"/>
<polygon fill="black" stroke="black" points="1021.7,-38.65 1011.77,-34.94 1017.22,-44.03 1021.7,-38.65"/>
<text text-anchor="middle" x="1064.15" y="-57.8" font-family="Times,serif" font-size="14.00">dep</text>
</g>
<!-- 12 -->
<g id="node13" class="node">
<title>12</title>
<ellipse fill="none" stroke="black" cx="1094.65" cy="-18" rx="27" ry="18"/>
<text text-anchor="middle" x="1094.65" y="-14.3" font-family="Times,serif" font-size="14.00">de</text>
</g>
<!-- 0&#45;&gt;12 -->
<g id="edge12" class="edge">
<title>0&#45;&gt;12</title>
<path fill="none" stroke="black" d="M1094.65,-86.8C1094.65,-75.16 1094.65,-59.55 1094.65,-46.24"/>
<polygon fill="black" stroke="black" points="1098.15,-46.18 1094.65,-36.18 1091.15,-46.18 1098.15,-46.18"/>
<text text-anchor="middle" x="1108.15" y="-57.8" font-family="Times,serif" font-size="14.00">dep</text>
</g>
<!-- 13 -->
<g id="node14" class="node">
<title>13</title>
<ellipse fill="none" stroke="black" cx="1199.65" cy="-18" rx="60.39" ry="18"/>
<text text-anchor="middle" x="1199.65" y="-14.3" font-family="Times,serif" font-size="14.00">casamento</text>
</g>
<!-- 0&#45;&gt;13 -->
<g id="edge13" class="edge">
<title>0&#45;&gt;13</title>
<path fill="none" stroke="black" d="M1111.52,-90.34C1127.75,-77.2 1152.58,-57.1 1171.76,-41.58"/>
<polygon fill="black" stroke="black" points="1174.02,-44.25 1179.59,-35.24 1169.61,-38.81 1174.02,-44.25"/>
<text text-anchor="middle" x="1167.15" y="-57.8" font-family="Times,serif" font-size="14.00">dep</text>
</g>
<!-- 14 -->
<g id="node15" class="node">
<title>14</title>
<ellipse fill="none" stroke="black" cx="1304.65" cy="-18" rx="27" ry="18"/>
<text text-anchor="middle" x="1304.65" y="-14.3" font-family="Times,serif" font-size="14.00">em</text>
</g>
<!-- 0&#45;&gt;14 -->
<g id="edge14" class="edge">
<title>0&#45;&gt;14</title>
<path fill="none" stroke="black" d="M1117.94,-95.49C1151.52,-83.09 1215.35,-59.02 1268.65,-36 1270.45,-35.22 1272.31,-34.4 1274.17,-33.56"/>
<polygon fill="black" stroke="black" points="1275.81,-36.66 1283.43,-29.31 1272.89,-30.3 1275.81,-36.66"/>
<text text-anchor="middle" x="1235.15" y="-57.8" font-family="Times,serif" font-size="14.00">dep</text>
</g>
<!-- 15 -->
<g id="node16" class="node">
<title>15</title>
<ellipse fill="none" stroke="black" cx="1376.65" cy="-18" rx="27" ry="18"/>
<text text-anchor="middle" x="1376.65" y="-14.3" font-family="Times,serif" font-size="14.00">a</text>
</g>
<!-- 0&#45;&gt;15 -->
<g id="edge15" class="edge">
<title>0&#45;&gt;15</title>
<path fill="none" stroke="black" d="M1120.38,-99.45C1151.89,-93.63 1206.72,-82.62 1252.65,-69 1292.69,-57.12 1302.17,-52.27 1340.65,-36 1342.46,-35.23 1344.32,-34.43 1346.18,-33.6"/>
<polygon fill="black" stroke="black" points="1347.82,-36.7 1355.46,-29.36 1344.91,-30.33 1347.82,-36.7"/>
<text text-anchor="middle" x="1311.15" y="-57.8" font-family="Times,serif" font-size="14.00">dep</text>
</g>
<!-- 16 -->
<g id="node17" class="node">
<title>16</title>
<ellipse fill="none" stroke="black" cx="1458.65" cy="-18" rx="37.09" ry="18"/>
<text text-anchor="middle" x="1458.65" y="-14.3" font-family="Times,serif" font-size="14.00">Barra</text>
</g>
<!-- 0&#45;&gt;16 -->
<g id="edge16" class="edge">
<title>0&#45;&gt;16</title>
<path fill="none" stroke="black" d="M1121.35,-101.92C1165.2,-98.08 1254.97,-88.43 1328.65,-69 1361.4,-60.36 1397.24,-46.2 1422.98,-35.15"/>
<polygon fill="black" stroke="black" points="1424.55,-38.29 1432.32,-31.09 1421.76,-31.87 1424.55,-38.29"/>
<text text-anchor="middle" x="1386.15" y="-57.8" font-family="Times,serif" font-size="14.00">dep</text>
</g>
<!-- 17 -->
<g id="node18" class="node">
<title>17</title>
<ellipse fill="none" stroke="black" cx="1553.65" cy="-18" rx="40.09" ry="18"/>
<text text-anchor="middle" x="1553.65" y="-14.3" font-family="Times,serif" font-size="14.00">Funda</text>
</g>
<!-- 0&#45;&gt;17 -->
<g id="edge17" class="edge">
<title>0&#45;&gt;17</title>
<path fill="none" stroke="black" d="M1121.81,-102.78C1175.98,-99.93 1301.04,-91.33 1403.65,-69 1442.44,-60.56 1485.29,-45.69 1515.22,-34.36"/>
<polygon fill="black" stroke="black" points="1516.77,-37.51 1524.85,-30.66 1514.26,-30.98 1516.77,-37.51"/>
<text text-anchor="middle" x="1472.15" y="-57.8" font-family="Times,serif" font-size="14.00">dep</text>
</g>
<!-- 18 -->
<g id="node19" class="node">
<title>18</title>
<ellipse fill="none" stroke="black" cx="1638.65" cy="-18" rx="27" ry="18"/>
<text text-anchor="middle" x="1638.65" y="-14.3" font-family="Times,serif" font-size="14.00">e</text>
</g>
<!-- 0&#45;&gt;18 -->
<g id="edge18" class="edge">
<title>0&#45;&gt;18</title>
<path fill="none" stroke="black" d="M1121.72,-103.42C1186.06,-101.66 1352.98,-94.75 1489.65,-69 1541.06,-59.31 1553.73,-54.56 1602.65,-36 1604.49,-35.3 1606.37,-34.55 1608.25,-33.76"/>
<polygon fill="black" stroke="black" points="1609.84,-36.88 1617.57,-29.63 1607,-30.48 1609.84,-36.88"/>
<text text-anchor="middle" x="1567.15" y="-57.8" font-family="Times,serif" font-size="14.00">dep</text>
</g>
<!-- 19 -->
<g id="node20" class="node">
<title>19</title>
<ellipse fill="none" stroke="black" cx="1711.65" cy="-18" rx="27.9" ry="18"/>
<text text-anchor="middle" x="1711.65" y="-14.3" font-family="Times,serif" font-size="14.00">deu</text>
</g>
<!-- 0&#45;&gt;19 -->
<g id="edge19" class="edge">
<title>0&#45;&gt;19</title>
<path fill="none" stroke="black" d="M1121.74,-103.06C1210.98,-99.82 1495.11,-88.21 1584.65,-69 1618.95,-61.64 1656.07,-46.06 1681.26,-34.24"/>
<polygon fill="black" stroke="black" points="1682.79,-37.39 1690.3,-29.92 1679.77,-31.07 1682.79,-37.39"/>
<text text-anchor="middle" x="1645.15" y="-57.8" font-family="Times,serif" font-size="14.00">dep</text>
</g>
<!-- 20 -->
<g id="node21" class="node">
<title>20</title>
<ellipse fill="none" stroke="black" cx="1799.65" cy="-18" rx="42.49" ry="18"/>
<text text-anchor="middle" x="1799.65" y="-14.3" font-family="Times,serif" font-size="14.00">carona</text>
</g>
<!-- 0&#45;&gt;20 -->
<g id="edge20" class="edge">
<title>0&#45;&gt;20</title>
<path fill="none" stroke="black" d="M1121.85,-103.36C1220.23,-100.89 1557.35,-90.98 1662.65,-69 1697.52,-61.72 1735.45,-47.34 1762.54,-35.86"/>
<polygon fill="black" stroke="black" points="1764.21,-38.95 1772,-31.78 1761.44,-32.52 1764.21,-38.95"/>
<text text-anchor="middle" x="1727.15" y="-57.8" font-family="Times,serif" font-size="14.00">dep</text>
</g>
<!-- 21 -->
<g id="node22" class="node">
<title>21</title>
<ellipse fill="none" stroke="black" cx="1886.65" cy="-18" rx="27" ry="18"/>
<text text-anchor="middle" x="1886.65" y="-14.3" font-family="Times,serif" font-size="14.00">a</text>
</g>
<!-- 0&#45;&gt;21 -->
<g id="edge21" class="edge">
<title>0&#45;&gt;21</title>
<path fill="none" stroke="black" d="M1121.6,-103.44C1228.41,-101.08 1622.02,-91.04 1744.65,-69 1793.21,-60.27 1804.67,-53.91 1850.65,-36 1852.48,-35.28 1854.35,-34.52 1856.23,-33.72"/>
<polygon fill="black" stroke="black" points="1857.84,-36.84 1865.54,-29.57 1854.98,-30.45 1857.84,-36.84"/>
<text text-anchor="middle" x="1818.15" y="-57.8" font-family="Times,serif" font-size="14.00">dep</text>
</g>
<!-- 22 -->
<g id="node23" class="node">
<title>22</title>
<ellipse fill="none" stroke="black" cx="1975.65" cy="-18" rx="44.39" ry="18"/>
<text text-anchor="middle" x="1975.65" y="-14.3" font-family="Times,serif" font-size="14.00">amigos</text>
</g>
<!-- 0&#45;&gt;22 -->
<g id="edge22" class="edge">
<title>0&#45;&gt;22</title>
<path fill="none" stroke="black" d="M1121.78,-103.79C1238.08,-102.72 1694.93,-96.81 1835.65,-69 1871.43,-61.93 1910.38,-47.42 1938.08,-35.85"/>
<polygon fill="black" stroke="black" points="1939.56,-39.03 1947.39,-31.9 1936.82,-32.59 1939.56,-39.03"/>
<text text-anchor="middle" x="1901.15" y="-57.8" font-family="Times,serif" font-size="14.00">dep</text>
</g>
<!-- 23 -->
<g id="node24" class="node">
<title>23</title>
<ellipse fill="none" stroke="black" cx="2064.65" cy="-18" rx="27" ry="18"/>
<text text-anchor="middle" x="2064.65" y="-14.3" font-family="Times,serif" font-size="14.00">.</text>
</g>
<!-- 0&#45;&gt;23 -->
<g id="edge23" class="edge">
<title>0&#45;&gt;23</title>
<path fill="none" stroke="black" d="M1121.8,-103.75C1245.95,-102.49 1760.16,-95.71 1918.65,-69 1968.98,-60.52 1980.99,-54.28 2028.65,-36 2030.49,-35.29 2032.36,-34.54 2034.24,-33.74"/>
<polygon fill="black" stroke="black" points="2035.84,-36.86 2043.56,-29.6 2033,-30.47 2035.84,-36.86"/>
<text text-anchor="middle" x="1994.15" y="-57.8" font-family="Times,serif" font-size="14.00">dep</text>
</g>
</g>
</svg>
