<?xml version="1.0" encoding="UTF-8" standalone="no"?>
<!DOCTYPE svg PUBLIC "-//W3C//DTD SVG 1.1//EN"
 "http://www.w3.org/Graphics/SVG/1.1/DTD/svg11.dtd">
<!-- Generated by graphviz version 2.42.4 (0)
 -->
<!-- Pages: 1 -->
<svg width="1333pt" height="131pt"
 viewBox="0.00 0.00 1333.00 131.00" xmlns="http://www.w3.org/2000/svg" xmlns:xlink="http://www.w3.org/1999/xlink">
<g id="graph0" class="graph" transform="scale(1 1) rotate(0) translate(4 127)">
<polygon fill="white" stroke="transparent" points="-4,4 -4,-127 1329,-127 1329,4 -4,4"/>
<!-- 0 -->
<g id="node1" class="node">
<title>0</title>
<ellipse fill="none" stroke="black" cx="663" cy="-105" rx="77.19" ry="18"/>
<text text-anchor="middle" x="663" y="-101.3" font-family="Times,serif" font-size="14.00">Protagonizava</text>
</g>
<!-- 1 -->
<g id="node2" class="node">
<title>1</title>
<ellipse fill="none" stroke="black" cx="27" cy="-18" rx="27" ry="18"/>
<text text-anchor="middle" x="27" y="-14.3" font-family="Times,serif" font-size="14.00">,</text>
</g>
<!-- 0&#45;&gt;1 -->
<g id="edge1" class="edge">
<title>0&#45;&gt;1</title>
<path fill="none" stroke="black" d="M585.65,-104.69C486.36,-104.19 309.21,-98.61 161,-69 124.13,-61.63 84,-45.49 57.37,-33.53"/>
<polygon fill="black" stroke="black" points="58.74,-30.31 48.19,-29.34 55.83,-36.68 58.74,-30.31"/>
<text text-anchor="middle" x="174.5" y="-57.8" font-family="Times,serif" font-size="14.00">dep</text>
</g>
<!-- 2 -->
<g id="node3" class="node">
<title>2</title>
<ellipse fill="none" stroke="black" cx="108" cy="-18" rx="36.29" ry="18"/>
<text text-anchor="middle" x="108" y="-14.3" font-family="Times,serif" font-size="14.00">então</text>
</g>
<!-- 0&#45;&gt;2 -->
<g id="edge2" class="edge">
<title>0&#45;&gt;2</title>
<path fill="none" stroke="black" d="M585.41,-104.12C499.63,-102.74 357.84,-96.01 239,-69 205.32,-61.35 168.74,-46.82 142.81,-35.39"/>
<polygon fill="black" stroke="black" points="143.98,-32.08 133.43,-31.18 141.12,-38.46 143.98,-32.08"/>
<text text-anchor="middle" x="252.5" y="-57.8" font-family="Times,serif" font-size="14.00">dep</text>
</g>
<!-- 3 -->
<g id="node4" class="node">
<title>3</title>
<ellipse fill="none" stroke="black" cx="189" cy="-18" rx="27" ry="18"/>
<text text-anchor="middle" x="189" y="-14.3" font-family="Times,serif" font-size="14.00">,</text>
</g>
<!-- 0&#45;&gt;3 -->
<g id="edge3" class="edge">
<title>0&#45;&gt;3</title>
<path fill="none" stroke="black" d="M586.65,-101.72C515.76,-98.32 407.65,-89.9 316,-69 281.58,-61.15 244.22,-45.51 218.99,-33.8"/>
<polygon fill="black" stroke="black" points="220.48,-30.63 209.94,-29.53 217.49,-36.96 220.48,-30.63"/>
<text text-anchor="middle" x="329.5" y="-57.8" font-family="Times,serif" font-size="14.00">dep</text>
</g>
<!-- 4 -->
<g id="node5" class="node">
<title>4</title>
<ellipse fill="none" stroke="black" cx="265" cy="-18" rx="30.59" ry="18"/>
<text text-anchor="middle" x="265" y="-14.3" font-family="Times,serif" font-size="14.00">uma</text>
</g>
<!-- 0&#45;&gt;4 -->
<g id="edge4" class="edge">
<title>0&#45;&gt;4</title>
<path fill="none" stroke="black" d="M589.67,-99.08C534.89,-94.3 458.48,-85.29 393,-69 359.33,-60.62 322.61,-45.63 297.17,-34.24"/>
<polygon fill="black" stroke="black" points="298.55,-31.02 288,-30.07 295.66,-37.4 298.55,-31.02"/>
<text text-anchor="middle" x="406.5" y="-57.8" font-family="Times,serif" font-size="14.00">dep</text>
</g>
<!-- 5 -->
<g id="node6" class="node">
<title>5</title>
<ellipse fill="none" stroke="black" cx="341" cy="-18" rx="27" ry="18"/>
<text text-anchor="middle" x="341" y="-14.3" font-family="Times,serif" font-size="14.00">de</text>
</g>
<!-- 0&#45;&gt;5 -->
<g id="edge5" class="edge">
<title>0&#45;&gt;5</title>
<path fill="none" stroke="black" d="M598.88,-94.9C561.3,-88.92 513.09,-80.15 471,-69 428.2,-57.66 417.96,-52.81 377,-36 375.18,-35.25 373.31,-34.46 371.44,-33.64"/>
<polygon fill="black" stroke="black" points="372.71,-30.37 362.16,-29.44 369.82,-36.75 372.71,-30.37"/>
<text text-anchor="middle" x="484.5" y="-57.8" font-family="Times,serif" font-size="14.00">dep</text>
</g>
<!-- 6 -->
<g id="node7" class="node">
<title>6</title>
<ellipse fill="none" stroke="black" cx="413" cy="-18" rx="27" ry="18"/>
<text text-anchor="middle" x="413" y="-14.3" font-family="Times,serif" font-size="14.00">as</text>
</g>
<!-- 0&#45;&gt;6 -->
<g id="edge6" class="edge">
<title>0&#45;&gt;6</title>
<path fill="none" stroke="black" d="M615.19,-90.8C571.4,-78.24 505.06,-58.03 449,-36 447.17,-35.28 445.3,-34.51 443.42,-33.71"/>
<polygon fill="black" stroke="black" points="444.67,-30.43 434.11,-29.55 441.81,-36.82 444.67,-30.43"/>
<text text-anchor="middle" x="555.5" y="-57.8" font-family="Times,serif" font-size="14.00">dep</text>
</g>
<!-- 7 -->
<g id="node8" class="node">
<title>7</title>
<ellipse fill="none" stroke="black" cx="535" cy="-18" rx="77.19" ry="18"/>
<text text-anchor="middle" x="535" y="-14.3" font-family="Times,serif" font-size="14.00">transferências</text>
</g>
<!-- 0&#45;&gt;7 -->
<g id="edge7" class="edge">
<title>0&#45;&gt;7</title>
<path fill="none" stroke="black" d="M638.62,-87.81C618.52,-74.46 589.81,-55.39 567.7,-40.72"/>
<polygon fill="black" stroke="black" points="569.55,-37.74 559.29,-35.13 565.68,-43.58 569.55,-37.74"/>
<text text-anchor="middle" x="620.5" y="-57.8" font-family="Times,serif" font-size="14.00">dep</text>
</g>
<!-- 8 -->
<g id="node9" class="node">
<title>8</title>
<ellipse fill="none" stroke="black" cx="663" cy="-18" rx="32.49" ry="18"/>
<text text-anchor="middle" x="663" y="-14.3" font-family="Times,serif" font-size="14.00">mais</text>
</g>
<!-- 0&#45;&gt;8 -->
<g id="edge8" class="edge">
<title>0&#45;&gt;8</title>
<path fill="none" stroke="black" d="M663,-86.8C663,-75.16 663,-59.55 663,-46.24"/>
<polygon fill="black" stroke="black" points="666.5,-46.18 663,-36.18 659.5,-46.18 666.5,-46.18"/>
<text text-anchor="middle" x="676.5" y="-57.8" font-family="Times,serif" font-size="14.00">dep</text>
</g>
<!-- 9 -->
<g id="node10" class="node">
<title>9</title>
<ellipse fill="none" stroke="black" cx="771" cy="-18" rx="57.69" ry="18"/>
<text text-anchor="middle" x="771" y="-14.3" font-family="Times,serif" font-size="14.00">badaladas</text>
</g>
<!-- 0&#45;&gt;9 -->
<g id="edge9" class="edge">
<title>0&#45;&gt;9</title>
<path fill="none" stroke="black" d="M683.82,-87.61C700.51,-74.47 724.11,-55.91 742.54,-41.4"/>
<polygon fill="black" stroke="black" points="744.91,-43.99 750.61,-35.05 740.58,-38.48 744.91,-43.99"/>
<text text-anchor="middle" x="737.5" y="-57.8" font-family="Times,serif" font-size="14.00">dep</text>
</g>
<!-- 10 -->
<g id="node11" class="node">
<title>10</title>
<ellipse fill="none" stroke="black" cx="874" cy="-18" rx="27" ry="18"/>
<text text-anchor="middle" x="874" y="-14.3" font-family="Times,serif" font-size="14.00">de</text>
</g>
<!-- 0&#45;&gt;10 -->
<g id="edge10" class="edge">
<title>0&#45;&gt;10</title>
<path fill="none" stroke="black" d="M702.98,-89.48C738.68,-76.28 792.26,-55.87 838,-36 839.81,-35.22 841.66,-34.39 843.52,-33.56"/>
<polygon fill="black" stroke="black" points="845.16,-36.65 852.78,-29.29 842.23,-30.29 845.16,-36.65"/>
<text text-anchor="middle" x="804.5" y="-57.8" font-family="Times,serif" font-size="14.00">dep</text>
</g>
<!-- 11 -->
<g id="node12" class="node">
<title>11</title>
<ellipse fill="none" stroke="black" cx="946" cy="-18" rx="27" ry="18"/>
<text text-anchor="middle" x="946" y="-14.3" font-family="Times,serif" font-size="14.00">a</text>
</g>
<!-- 0&#45;&gt;11 -->
<g id="edge11" class="edge">
<title>0&#45;&gt;11</title>
<path fill="none" stroke="black" d="M721.66,-93.16C751.89,-87.05 789.21,-78.71 822,-69 862.05,-57.15 871.53,-52.27 910,-36 911.81,-35.23 913.67,-34.43 915.54,-33.6"/>
<polygon fill="black" stroke="black" points="917.17,-36.7 924.81,-29.36 914.26,-30.33 917.17,-36.7"/>
<text text-anchor="middle" x="880.5" y="-57.8" font-family="Times,serif" font-size="14.00">dep</text>
</g>
<!-- 12 -->
<g id="node13" class="node">
<title>12</title>
<ellipse fill="none" stroke="black" cx="1043" cy="-18" rx="51.99" ry="18"/>
<text text-anchor="middle" x="1043" y="-14.3" font-family="Times,serif" font-size="14.00">televisão</text>
</g>
<!-- 0&#45;&gt;12 -->
<g id="edge12" class="edge">
<title>0&#45;&gt;12</title>
<path fill="none" stroke="black" d="M732.55,-97.05C779.67,-91.51 843.11,-82.43 898,-69 933.28,-60.37 972.14,-46.74 1000.74,-35.89"/>
<polygon fill="black" stroke="black" points="1002.32,-39.03 1010.4,-32.18 999.81,-32.49 1002.32,-39.03"/>
<text text-anchor="middle" x="960.5" y="-57.8" font-family="Times,serif" font-size="14.00">dep</text>
</g>
<!-- 13 -->
<g id="node14" class="node">
<title>13</title>
<ellipse fill="none" stroke="black" cx="1140" cy="-18" rx="27" ry="18"/>
<text text-anchor="middle" x="1140" y="-14.3" font-family="Times,serif" font-size="14.00">em</text>
</g>
<!-- 0&#45;&gt;13 -->
<g id="edge13" class="edge">
<title>0&#45;&gt;13</title>
<path fill="none" stroke="black" d="M736.01,-98.92C800.14,-93.73 895.77,-84.25 978,-69 1034.92,-58.44 1049.59,-55.78 1104,-36 1105.85,-35.33 1107.74,-34.59 1109.63,-33.82"/>
<polygon fill="black" stroke="black" points="1111.2,-36.95 1118.96,-29.73 1108.39,-30.54 1111.2,-36.95"/>
<text text-anchor="middle" x="1062.5" y="-57.8" font-family="Times,serif" font-size="14.00">dep</text>
</g>
<!-- 14 -->
<g id="node15" class="node">
<title>14</title>
<ellipse fill="none" stroke="black" cx="1219" cy="-18" rx="34.39" ry="18"/>
<text text-anchor="middle" x="1219" y="-14.3" font-family="Times,serif" font-size="14.00">1994</text>
</g>
<!-- 0&#45;&gt;14 -->
<g id="edge14" class="edge">
<title>0&#45;&gt;14</title>
<path fill="none" stroke="black" d="M740.3,-103.2C824.64,-101.02 963.23,-93.57 1080,-69 1116.7,-61.28 1156.84,-46.06 1184.5,-34.43"/>
<polygon fill="black" stroke="black" points="1185.92,-37.63 1193.74,-30.48 1183.17,-31.19 1185.92,-37.63"/>
<text text-anchor="middle" x="1144.5" y="-57.8" font-family="Times,serif" font-size="14.00">dep</text>
</g>
<!-- 15 -->
<g id="node16" class="node">
<title>15</title>
<ellipse fill="none" stroke="black" cx="1298" cy="-18" rx="27" ry="18"/>
<text text-anchor="middle" x="1298" y="-14.3" font-family="Times,serif" font-size="14.00">:</text>
</g>
<!-- 0&#45;&gt;15 -->
<g id="edge15" class="edge">
<title>0&#45;&gt;15</title>
<path fill="none" stroke="black" d="M740.72,-104.49C839.55,-103.77 1015.01,-97.94 1162,-69 1207.92,-59.96 1218.54,-53.36 1262,-36 1263.83,-35.27 1265.7,-34.49 1267.57,-33.68"/>
<polygon fill="black" stroke="black" points="1269.18,-36.8 1276.87,-29.51 1266.31,-30.41 1269.18,-36.8"/>
<text text-anchor="middle" x="1230.5" y="-57.8" font-family="Times,serif" font-size="14.00">dep</text>
</g>
</g>
</svg>
