<?xml version="1.0" encoding="UTF-8" standalone="no"?>
<!DOCTYPE svg PUBLIC "-//W3C//DTD SVG 1.1//EN"
 "http://www.w3.org/Graphics/SVG/1.1/DTD/svg11.dtd">
<!-- Generated by graphviz version 2.42.4 (0)
 -->
<!-- Pages: 1 -->
<svg width="1848pt" height="131pt"
 viewBox="0.00 0.00 1848.35 131.00" xmlns="http://www.w3.org/2000/svg" xmlns:xlink="http://www.w3.org/1999/xlink">
<g id="graph0" class="graph" transform="scale(1 1) rotate(0) translate(4 127)">
<polygon fill="white" stroke="transparent" points="-4,4 -4,-127 1844.35,-127 1844.35,4 -4,4"/>
<!-- 0 -->
<g id="node1" class="node">
<title>0</title>
<ellipse fill="none" stroke="black" cx="927.35" cy="-105" rx="31.7" ry="18"/>
<text text-anchor="middle" x="927.35" y="-101.3" font-family="Times,serif" font-size="14.00">Para</text>
</g>
<!-- 1 -->
<g id="node2" class="node">
<title>1</title>
<ellipse fill="none" stroke="black" cx="38.35" cy="-18" rx="38.19" ry="18"/>
<text text-anchor="middle" x="38.35" y="-14.3" font-family="Times,serif" font-size="14.00">evitar</text>
</g>
<!-- 0&#45;&gt;1 -->
<g id="edge1" class="edge">
<title>0&#45;&gt;1</title>
<path fill="none" stroke="black" d="M895.32,-104.46C795.56,-105.47 481.79,-105.31 225.35,-69 162.05,-60.04 146.62,-54.24 85.35,-36 82.45,-35.14 79.46,-34.19 76.48,-33.21"/>
<polygon fill="black" stroke="black" points="77.6,-29.89 67,-29.96 75.33,-36.51 77.6,-29.89"/>
<text text-anchor="middle" x="238.85" y="-57.8" font-family="Times,serif" font-size="14.00">dep</text>
</g>
<!-- 2 -->
<g id="node3" class="node">
<title>2</title>
<ellipse fill="none" stroke="black" cx="152.35" cy="-18" rx="57.69" ry="18"/>
<text text-anchor="middle" x="152.35" y="-14.3" font-family="Times,serif" font-size="14.00">distúrbios</text>
</g>
<!-- 0&#45;&gt;2 -->
<g id="edge2" class="edge">
<title>0&#45;&gt;2</title>
<path fill="none" stroke="black" d="M895.48,-103.19C786.39,-100.25 428.48,-89.28 315.35,-69 274.42,-61.66 229.33,-47.32 196.97,-35.88"/>
<polygon fill="black" stroke="black" points="197.95,-32.51 187.35,-32.43 195.58,-39.1 197.95,-32.51"/>
<text text-anchor="middle" x="328.85" y="-57.8" font-family="Times,serif" font-size="14.00">dep</text>
</g>
<!-- 3 -->
<g id="node4" class="node">
<title>3</title>
<ellipse fill="none" stroke="black" cx="255.35" cy="-18" rx="27" ry="18"/>
<text text-anchor="middle" x="255.35" y="-14.3" font-family="Times,serif" font-size="14.00">,</text>
</g>
<!-- 0&#45;&gt;3 -->
<g id="edge3" class="edge">
<title>0&#45;&gt;3</title>
<path fill="none" stroke="black" d="M895.31,-103.83C814.79,-102.95 597.59,-97.87 419.35,-69 361.35,-59.61 346.6,-55.97 291.35,-36 289.49,-35.33 287.61,-34.6 285.72,-33.83"/>
<polygon fill="black" stroke="black" points="286.95,-30.55 276.38,-29.75 284.14,-36.96 286.95,-30.55"/>
<text text-anchor="middle" x="432.85" y="-57.8" font-family="Times,serif" font-size="14.00">dep</text>
</g>
<!-- 4 -->
<g id="node5" class="node">
<title>4</title>
<ellipse fill="none" stroke="black" cx="340.35" cy="-18" rx="40.09" ry="18"/>
<text text-anchor="middle" x="340.35" y="-14.3" font-family="Times,serif" font-size="14.00">vamos</text>
</g>
<!-- 0&#45;&gt;4 -->
<g id="edge4" class="edge">
<title>0&#45;&gt;4</title>
<path fill="none" stroke="black" d="M895.6,-103.25C825.8,-101.17 653.9,-93.76 512.35,-69 466.2,-60.93 414.81,-45.05 380.33,-33.34"/>
<polygon fill="black" stroke="black" points="381.22,-29.95 370.63,-30 378.95,-36.56 381.22,-29.95"/>
<text text-anchor="middle" x="525.85" y="-57.8" font-family="Times,serif" font-size="14.00">dep</text>
</g>
<!-- 5 -->
<g id="node6" class="node">
<title>5</title>
<ellipse fill="none" stroke="black" cx="453.35" cy="-18" rx="54.69" ry="18"/>
<text text-anchor="middle" x="453.35" y="-14.3" font-family="Times,serif" font-size="14.00">distribuir</text>
</g>
<!-- 0&#45;&gt;5 -->
<g id="edge5" class="edge">
<title>0&#45;&gt;5</title>
<path fill="none" stroke="black" d="M895.26,-103.14C835.39,-100.98 702.92,-93.59 594.35,-69 559.9,-61.2 522.27,-47.58 494.56,-36.52"/>
<polygon fill="black" stroke="black" points="495.77,-33.24 485.19,-32.73 493.14,-39.73 495.77,-33.24"/>
<text text-anchor="middle" x="607.85" y="-57.8" font-family="Times,serif" font-size="14.00">dep</text>
</g>
<!-- 6 -->
<g id="node7" class="node">
<title>6</title>
<ellipse fill="none" stroke="black" cx="553.35" cy="-18" rx="27" ry="18"/>
<text text-anchor="middle" x="553.35" y="-14.3" font-family="Times,serif" font-size="14.00">a</text>
</g>
<!-- 0&#45;&gt;6 -->
<g id="edge6" class="edge">
<title>0&#45;&gt;6</title>
<path fill="none" stroke="black" d="M895.46,-102.51C845.72,-99.57 747,-91.24 666.35,-69 636.67,-60.82 604.76,-46.1 582.44,-34.74"/>
<polygon fill="black" stroke="black" points="583.99,-31.6 573.5,-30.11 580.77,-37.81 583.99,-31.6"/>
<text text-anchor="middle" x="679.85" y="-57.8" font-family="Times,serif" font-size="14.00">dep</text>
</g>
<!-- 7 -->
<g id="node8" class="node">
<title>7</title>
<ellipse fill="none" stroke="black" cx="625.35" cy="-18" rx="27" ry="18"/>
<text text-anchor="middle" x="625.35" y="-14.3" font-family="Times,serif" font-size="14.00">as</text>
</g>
<!-- 0&#45;&gt;7 -->
<g id="edge7" class="edge">
<title>0&#45;&gt;7</title>
<path fill="none" stroke="black" d="M896.37,-100.75C857.77,-96.17 790.11,-86.37 734.35,-69 700.35,-58.41 693.67,-50.94 661.35,-36 659.56,-35.17 657.72,-34.32 655.87,-33.46"/>
<polygon fill="black" stroke="black" points="657.18,-30.21 646.64,-29.13 654.21,-36.54 657.18,-30.21"/>
<text text-anchor="middle" x="747.85" y="-57.8" font-family="Times,serif" font-size="14.00">dep</text>
</g>
<!-- 8 -->
<g id="node9" class="node">
<title>8</title>
<ellipse fill="none" stroke="black" cx="698.35" cy="-18" rx="27.9" ry="18"/>
<text text-anchor="middle" x="698.35" y="-14.3" font-family="Times,serif" font-size="14.00">TVs</text>
</g>
<!-- 0&#45;&gt;8 -->
<g id="edge8" class="edge">
<title>0&#45;&gt;8</title>
<path fill="none" stroke="black" d="M898.13,-97.82C871.64,-91.81 831.74,-81.73 798.35,-69 773.72,-59.61 747.09,-46.11 727.5,-35.51"/>
<polygon fill="black" stroke="black" points="728.94,-32.31 718.49,-30.57 725.58,-38.45 728.94,-32.31"/>
<text text-anchor="middle" x="811.85" y="-57.8" font-family="Times,serif" font-size="14.00">dep</text>
</g>
<!-- 9 -->
<g id="node10" class="node">
<title>9</title>
<ellipse fill="none" stroke="black" cx="774.35" cy="-18" rx="30.59" ry="18"/>
<text text-anchor="middle" x="774.35" y="-14.3" font-family="Times,serif" font-size="14.00">uma</text>
</g>
<!-- 0&#45;&gt;9 -->
<g id="edge9" class="edge">
<title>0&#45;&gt;9</title>
<path fill="none" stroke="black" d="M902.98,-93.38C888.36,-86.79 869.53,-77.91 853.35,-69 836.03,-59.47 817.32,-47.7 802.46,-37.97"/>
<polygon fill="black" stroke="black" points="804.02,-34.81 793.75,-32.22 800.16,-40.65 804.02,-34.81"/>
<text text-anchor="middle" x="866.85" y="-57.8" font-family="Times,serif" font-size="14.00">dep</text>
</g>
<!-- 10 -->
<g id="node11" class="node">
<title>10</title>
<ellipse fill="none" stroke="black" cx="850.35" cy="-18" rx="27" ry="18"/>
<text text-anchor="middle" x="850.35" y="-14.3" font-family="Times,serif" font-size="14.00">fita</text>
</g>
<!-- 0&#45;&gt;10 -->
<g id="edge10" class="edge">
<title>0&#45;&gt;10</title>
<path fill="none" stroke="black" d="M913.22,-88.41C901.35,-75.31 884.23,-56.41 870.85,-41.64"/>
<polygon fill="black" stroke="black" points="873.17,-38.98 863.86,-33.92 867.98,-43.68 873.17,-38.98"/>
<text text-anchor="middle" x="907.85" y="-57.8" font-family="Times,serif" font-size="14.00">dep</text>
</g>
<!-- 11 -->
<g id="node12" class="node">
<title>11</title>
<ellipse fill="none" stroke="black" cx="927.35" cy="-18" rx="31.7" ry="18"/>
<text text-anchor="middle" x="927.35" y="-14.3" font-family="Times,serif" font-size="14.00">para</text>
</g>
<!-- 0&#45;&gt;11 -->
<g id="edge11" class="edge">
<title>0&#45;&gt;11</title>
<path fill="none" stroke="black" d="M927.35,-86.8C927.35,-75.16 927.35,-59.55 927.35,-46.24"/>
<polygon fill="black" stroke="black" points="930.85,-46.18 927.35,-36.18 923.85,-46.18 930.85,-46.18"/>
<text text-anchor="middle" x="940.85" y="-57.8" font-family="Times,serif" font-size="14.00">dep</text>
</g>
<!-- 12 -->
<g id="node13" class="node">
<title>12</title>
<ellipse fill="none" stroke="black" cx="1025.35" cy="-18" rx="48.19" ry="18"/>
<text text-anchor="middle" x="1025.35" y="-14.3" font-family="Times,serif" font-size="14.00">mostrar</text>
</g>
<!-- 0&#45;&gt;12 -->
<g id="edge12" class="edge">
<title>0&#45;&gt;12</title>
<path fill="none" stroke="black" d="M943.97,-89.58C959.12,-76.44 981.76,-56.81 999.31,-41.58"/>
<polygon fill="black" stroke="black" points="1001.71,-44.13 1006.97,-34.94 997.12,-38.85 1001.71,-44.13"/>
<text text-anchor="middle" x="995.85" y="-57.8" font-family="Times,serif" font-size="14.00">dep</text>
</g>
<!-- 13 -->
<g id="node14" class="node">
<title>13</title>
<ellipse fill="none" stroke="black" cx="1118.35" cy="-18" rx="27" ry="18"/>
<text text-anchor="middle" x="1118.35" y="-14.3" font-family="Times,serif" font-size="14.00">a</text>
</g>
<!-- 0&#45;&gt;13 -->
<g id="edge13" class="edge">
<title>0&#45;&gt;13</title>
<path fill="none" stroke="black" d="M952.72,-94.12C969.93,-87.31 993.14,-77.91 1013.35,-69 1038.82,-57.76 1067.31,-44.13 1088.18,-33.93"/>
<polygon fill="black" stroke="black" points="1089.76,-37.06 1097.2,-29.51 1086.68,-30.77 1089.76,-37.06"/>
<text text-anchor="middle" x="1058.85" y="-57.8" font-family="Times,serif" font-size="14.00">dep</text>
</g>
<!-- 14 -->
<g id="node15" class="node">
<title>14</title>
<ellipse fill="none" stroke="black" cx="1190.35" cy="-18" rx="27" ry="18"/>
<text text-anchor="middle" x="1190.35" y="-14.3" font-family="Times,serif" font-size="14.00">a</text>
</g>
<!-- 0&#45;&gt;14 -->
<g id="edge14" class="edge">
<title>0&#45;&gt;14</title>
<path fill="none" stroke="black" d="M957.16,-98.55C987.53,-92.63 1035.8,-82.23 1076.35,-69 1112.13,-57.32 1119.99,-51.37 1154.35,-36 1156.14,-35.2 1157.99,-34.36 1159.85,-33.51"/>
<polygon fill="black" stroke="black" points="1161.5,-36.6 1169.09,-29.21 1158.55,-30.25 1161.5,-36.6"/>
<text text-anchor="middle" x="1128.85" y="-57.8" font-family="Times,serif" font-size="14.00">dep</text>
</g>
<!-- 15 -->
<g id="node16" class="node">
<title>15</title>
<ellipse fill="none" stroke="black" cx="1293.35" cy="-18" rx="57.69" ry="18"/>
<text text-anchor="middle" x="1293.35" y="-14.3" font-family="Times,serif" font-size="14.00">população</text>
</g>
<!-- 0&#45;&gt;15 -->
<g id="edge15" class="edge">
<title>0&#45;&gt;15</title>
<path fill="none" stroke="black" d="M958.51,-100.7C1001.28,-95.8 1080.39,-85.36 1146.35,-69 1181.61,-60.25 1220.48,-46.86 1249.39,-36.13"/>
<polygon fill="black" stroke="black" points="1250.66,-39.4 1258.79,-32.61 1248.2,-32.84 1250.66,-39.4"/>
<text text-anchor="middle" x="1209.85" y="-57.8" font-family="Times,serif" font-size="14.00">dep</text>
</g>
<!-- 16 -->
<g id="node17" class="node">
<title>16</title>
<ellipse fill="none" stroke="black" cx="1396.35" cy="-18" rx="27" ry="18"/>
<text text-anchor="middle" x="1396.35" y="-14.3" font-family="Times,serif" font-size="14.00">o</text>
</g>
<!-- 0&#45;&gt;16 -->
<g id="edge16" class="edge">
<title>0&#45;&gt;16</title>
<path fill="none" stroke="black" d="M959.07,-101.63C1014.03,-97.23 1130.35,-86.62 1227.35,-69 1287.27,-58.12 1302.97,-56.44 1360.35,-36 1362.25,-35.32 1364.19,-34.58 1366.13,-33.79"/>
<polygon fill="black" stroke="black" points="1367.94,-36.82 1375.7,-29.6 1365.14,-30.4 1367.94,-36.82"/>
<text text-anchor="middle" x="1315.85" y="-57.8" font-family="Times,serif" font-size="14.00">dep</text>
</g>
<!-- 17 -->
<g id="node18" class="node">
<title>17</title>
<ellipse fill="none" stroke="black" cx="1469.35" cy="-18" rx="27.9" ry="18"/>
<text text-anchor="middle" x="1469.35" y="-14.3" font-family="Times,serif" font-size="14.00">que</text>
</g>
<!-- 0&#45;&gt;17 -->
<g id="edge17" class="edge">
<title>0&#45;&gt;17</title>
<path fill="none" stroke="black" d="M959.3,-103.79C1028.32,-102.79 1196.17,-97.36 1333.35,-69 1370.43,-61.33 1410.92,-45.4 1437.99,-33.57"/>
<polygon fill="black" stroke="black" points="1439.61,-36.68 1447.33,-29.42 1436.77,-30.28 1439.61,-36.68"/>
<text text-anchor="middle" x="1396.85" y="-57.8" font-family="Times,serif" font-size="14.00">dep</text>
</g>
<!-- 18 -->
<g id="node19" class="node">
<title>18</title>
<ellipse fill="none" stroke="black" cx="1558.35" cy="-18" rx="43.59" ry="18"/>
<text text-anchor="middle" x="1558.35" y="-14.3" font-family="Times,serif" font-size="14.00">viemos</text>
</g>
<!-- 0&#45;&gt;18 -->
<g id="edge18" class="edge">
<title>0&#45;&gt;18</title>
<path fill="none" stroke="black" d="M959.36,-104.58C1037.82,-105.37 1245.6,-103.73 1414.35,-69 1451.1,-61.44 1491.31,-46.91 1519.88,-35.46"/>
<polygon fill="black" stroke="black" points="1521.53,-38.57 1529.47,-31.55 1518.89,-32.08 1521.53,-38.57"/>
<text text-anchor="middle" x="1480.85" y="-57.8" font-family="Times,serif" font-size="14.00">dep</text>
</g>
<!-- 19 -->
<g id="node20" class="node">
<title>19</title>
<ellipse fill="none" stroke="black" cx="1654.35" cy="-18" rx="34.39" ry="18"/>
<text text-anchor="middle" x="1654.35" y="-14.3" font-family="Times,serif" font-size="14.00">fazer</text>
</g>
<!-- 0&#45;&gt;19 -->
<g id="edge19" class="edge">
<title>0&#45;&gt;19</title>
<path fill="none" stroke="black" d="M959.2,-104.52C1046.28,-105.41 1295.33,-104.41 1498.35,-69 1540.69,-61.61 1587.41,-45.52 1618.58,-33.58"/>
<polygon fill="black" stroke="black" points="1620.08,-36.75 1628.13,-29.86 1617.54,-30.23 1620.08,-36.75"/>
<text text-anchor="middle" x="1568.85" y="-57.8" font-family="Times,serif" font-size="14.00">dep</text>
</g>
<!-- 20 -->
<g id="node21" class="node">
<title>20</title>
<ellipse fill="none" stroke="black" cx="1737.35" cy="-18" rx="30.59" ry="18"/>
<text text-anchor="middle" x="1737.35" y="-14.3" font-family="Times,serif" font-size="14.00">aqui</text>
</g>
<!-- 0&#45;&gt;20 -->
<g id="edge20" class="edge">
<title>0&#45;&gt;20</title>
<path fill="none" stroke="black" d="M959.25,-103.3C1073.73,-100.64 1463.57,-90.2 1586.35,-69 1637.06,-60.24 1648.92,-53.43 1697.35,-36 1699.71,-35.15 1702.13,-34.23 1704.56,-33.28"/>
<polygon fill="black" stroke="black" points="1705.89,-36.52 1713.83,-29.51 1703.25,-30.04 1705.89,-36.52"/>
<text text-anchor="middle" x="1660.85" y="-57.8" font-family="Times,serif" font-size="14.00">dep</text>
</g>
<!-- 21 -->
<g id="node22" class="node">
<title>21</title>
<ellipse fill="none" stroke="black" cx="1813.35" cy="-18" rx="27" ry="18"/>
<text text-anchor="middle" x="1813.35" y="-14.3" font-family="Times,serif" font-size="14.00">.</text>
</g>
<!-- 0&#45;&gt;21 -->
<g id="edge21" class="edge">
<title>0&#45;&gt;21</title>
<path fill="none" stroke="black" d="M959.35,-103.68C1084.02,-102.24 1537.2,-95.29 1678.35,-69 1715.55,-62.07 1755.97,-45.85 1782.79,-33.75"/>
<polygon fill="black" stroke="black" points="1784.4,-36.86 1792.02,-29.5 1781.47,-30.5 1784.4,-36.86"/>
<text text-anchor="middle" x="1745.85" y="-57.8" font-family="Times,serif" font-size="14.00">dep</text>
</g>
</g>
</svg>
