<?xml version="1.0" encoding="UTF-8" standalone="no"?>
<!DOCTYPE svg PUBLIC "-//W3C//DTD SVG 1.1//EN"
 "http://www.w3.org/Graphics/SVG/1.1/DTD/svg11.dtd">
<!-- Generated by graphviz version 2.42.4 (0)
 -->
<!-- Pages: 1 -->
<svg width="1148pt" height="131pt"
 viewBox="0.00 0.00 1148.00 131.00" xmlns="http://www.w3.org/2000/svg" xmlns:xlink="http://www.w3.org/1999/xlink">
<g id="graph0" class="graph" transform="scale(1 1) rotate(0) translate(4 127)">
<polygon fill="white" stroke="transparent" points="-4,4 -4,-127 1144,-127 1144,4 -4,4"/>
<!-- 0 -->
<g id="node1" class="node">
<title>0</title>
<ellipse fill="none" stroke="black" cx="531" cy="-105" rx="70.39" ry="18"/>
<text text-anchor="middle" x="531" y="-101.3" font-family="Times,serif" font-size="14.00">Basicamente</text>
</g>
<!-- 1 -->
<g id="node2" class="node">
<title>1</title>
<ellipse fill="none" stroke="black" cx="27" cy="-18" rx="27" ry="18"/>
<text text-anchor="middle" x="27" y="-14.3" font-family="Times,serif" font-size="14.00">,</text>
</g>
<!-- 0&#45;&gt;1 -->
<g id="edge1" class="edge">
<title>0&#45;&gt;1</title>
<path fill="none" stroke="black" d="M460.78,-103.86C382.45,-102.28 252.49,-95.38 144,-69 112.87,-61.43 79.47,-46.39 56.35,-34.78"/>
<polygon fill="black" stroke="black" points="57.91,-31.64 47.42,-30.2 54.72,-37.87 57.91,-31.64"/>
<text text-anchor="middle" x="157.5" y="-57.8" font-family="Times,serif" font-size="14.00">dep</text>
</g>
<!-- 2 -->
<g id="node3" class="node">
<title>2</title>
<ellipse fill="none" stroke="black" cx="99" cy="-18" rx="27" ry="18"/>
<text text-anchor="middle" x="99" y="-14.3" font-family="Times,serif" font-size="14.00">é</text>
</g>
<!-- 0&#45;&gt;2 -->
<g id="edge2" class="edge">
<title>0&#45;&gt;2</title>
<path fill="none" stroke="black" d="M461.99,-101.57C397.94,-98.07 300.36,-89.58 218,-69 186.28,-61.07 152.06,-45.94 128.5,-34.39"/>
<polygon fill="black" stroke="black" points="129.91,-31.18 119.4,-29.85 126.79,-37.45 129.91,-31.18"/>
<text text-anchor="middle" x="231.5" y="-57.8" font-family="Times,serif" font-size="14.00">dep</text>
</g>
<!-- 3 -->
<g id="node4" class="node">
<title>3</title>
<ellipse fill="none" stroke="black" cx="171" cy="-18" rx="27" ry="18"/>
<text text-anchor="middle" x="171" y="-14.3" font-family="Times,serif" font-size="14.00">o</text>
</g>
<!-- 0&#45;&gt;3 -->
<g id="edge3" class="edge">
<title>0&#45;&gt;3</title>
<path fill="none" stroke="black" d="M465.57,-98.3C417.32,-93.15 350.37,-84.03 293,-69 260.55,-60.5 225.27,-45.35 201.04,-33.94"/>
<polygon fill="black" stroke="black" points="202.54,-30.78 192,-29.62 199.52,-37.09 202.54,-30.78"/>
<text text-anchor="middle" x="306.5" y="-57.8" font-family="Times,serif" font-size="14.00">dep</text>
</g>
<!-- 4 -->
<g id="node5" class="node">
<title>4</title>
<ellipse fill="none" stroke="black" cx="244" cy="-18" rx="27.9" ry="18"/>
<text text-anchor="middle" x="244" y="-14.3" font-family="Times,serif" font-size="14.00">que</text>
</g>
<!-- 0&#45;&gt;4 -->
<g id="edge4" class="edge">
<title>0&#45;&gt;4</title>
<path fill="none" stroke="black" d="M474.66,-94.23C442.77,-88.14 402.31,-79.47 367,-69 327.75,-57.36 318.73,-51.89 281,-36 279.14,-35.22 277.24,-34.4 275.33,-33.56"/>
<polygon fill="black" stroke="black" points="276.37,-30.19 265.81,-29.3 273.51,-36.58 276.37,-30.19"/>
<text text-anchor="middle" x="380.5" y="-57.8" font-family="Times,serif" font-size="14.00">dep</text>
</g>
<!-- 5 -->
<g id="node6" class="node">
<title>5</title>
<ellipse fill="none" stroke="black" cx="327" cy="-18" rx="37.09" ry="18"/>
<text text-anchor="middle" x="327" y="-14.3" font-family="Times,serif" font-size="14.00">tenho</text>
</g>
<!-- 0&#45;&gt;5 -->
<g id="edge5" class="edge">
<title>0&#45;&gt;5</title>
<path fill="none" stroke="black" d="M488.37,-90.7C469.92,-84.6 448.2,-76.96 429,-69 405.41,-59.22 379.59,-46.54 359.83,-36.4"/>
<polygon fill="black" stroke="black" points="361.42,-33.28 350.93,-31.79 358.2,-39.49 361.42,-33.28"/>
<text text-anchor="middle" x="442.5" y="-57.8" font-family="Times,serif" font-size="14.00">dep</text>
</g>
<!-- 6 -->
<g id="node7" class="node">
<title>6</title>
<ellipse fill="none" stroke="black" cx="414" cy="-18" rx="31.7" ry="18"/>
<text text-anchor="middle" x="414" y="-14.3" font-family="Times,serif" font-size="14.00">feito</text>
</g>
<!-- 0&#45;&gt;6 -->
<g id="edge6" class="edge">
<title>0&#45;&gt;6</title>
<path fill="none" stroke="black" d="M507.23,-88.02C498.59,-82.13 488.8,-75.35 480,-69 466.77,-59.46 452.3,-48.55 440.3,-39.37"/>
<polygon fill="black" stroke="black" points="442.1,-36.34 432.04,-33.03 437.84,-41.89 442.1,-36.34"/>
<text text-anchor="middle" x="493.5" y="-57.8" font-family="Times,serif" font-size="14.00">dep</text>
</g>
<!-- 7 -->
<g id="node8" class="node">
<title>7</title>
<ellipse fill="none" stroke="black" cx="494" cy="-18" rx="29.8" ry="18"/>
<text text-anchor="middle" x="494" y="-14.3" font-family="Times,serif" font-size="14.00">com</text>
</g>
<!-- 0&#45;&gt;7 -->
<g id="edge7" class="edge">
<title>0&#45;&gt;7</title>
<path fill="none" stroke="black" d="M523.51,-86.8C518.28,-74.78 511.2,-58.51 505.28,-44.92"/>
<polygon fill="black" stroke="black" points="508.42,-43.37 501.22,-35.6 502.01,-46.16 508.42,-43.37"/>
<text text-anchor="middle" x="528.5" y="-57.8" font-family="Times,serif" font-size="14.00">dep</text>
</g>
<!-- 8 -->
<g id="node9" class="node">
<title>8</title>
<ellipse fill="none" stroke="black" cx="569" cy="-18" rx="27" ry="18"/>
<text text-anchor="middle" x="569" y="-14.3" font-family="Times,serif" font-size="14.00">os</text>
</g>
<!-- 0&#45;&gt;8 -->
<g id="edge8" class="edge">
<title>0&#45;&gt;8</title>
<path fill="none" stroke="black" d="M538.69,-86.8C544.06,-74.78 551.34,-58.51 557.41,-44.92"/>
<polygon fill="black" stroke="black" points="560.69,-46.15 561.58,-35.6 554.3,-43.3 560.69,-46.15"/>
<text text-anchor="middle" x="566.5" y="-57.8" font-family="Times,serif" font-size="14.00">dep</text>
</g>
<!-- 9 -->
<g id="node10" class="node">
<title>9</title>
<ellipse fill="none" stroke="black" cx="662" cy="-18" rx="48.19" ry="18"/>
<text text-anchor="middle" x="662" y="-14.3" font-family="Times,serif" font-size="14.00">músicos</text>
</g>
<!-- 0&#45;&gt;9 -->
<g id="edge9" class="edge">
<title>0&#45;&gt;9</title>
<path fill="none" stroke="black" d="M555.64,-88.01C576.8,-74.28 607.44,-54.4 630.4,-39.5"/>
<polygon fill="black" stroke="black" points="632.31,-42.44 638.79,-34.06 628.5,-36.57 632.31,-42.44"/>
<text text-anchor="middle" x="618.5" y="-57.8" font-family="Times,serif" font-size="14.00">dep</text>
</g>
<!-- 10 -->
<g id="node11" class="node">
<title>10</title>
<ellipse fill="none" stroke="black" cx="758" cy="-18" rx="29.8" ry="18"/>
<text text-anchor="middle" x="758" y="-14.3" font-family="Times,serif" font-size="14.00">com</text>
</g>
<!-- 0&#45;&gt;10 -->
<g id="edge10" class="edge">
<title>0&#45;&gt;10</title>
<path fill="none" stroke="black" d="M573.09,-90.58C592.35,-84.28 615.42,-76.51 636,-69 673.29,-55.38 682.36,-51.27 719,-36 721.05,-35.15 723.16,-34.26 725.28,-33.36"/>
<polygon fill="black" stroke="black" points="726.74,-36.54 734.54,-29.37 723.97,-30.11 726.74,-36.54"/>
<text text-anchor="middle" x="688.5" y="-57.8" font-family="Times,serif" font-size="14.00">dep</text>
</g>
<!-- 11 -->
<g id="node12" class="node">
<title>11</title>
<ellipse fill="none" stroke="black" cx="833" cy="-18" rx="27" ry="18"/>
<text text-anchor="middle" x="833" y="-14.3" font-family="Times,serif" font-size="14.00">os</text>
</g>
<!-- 0&#45;&gt;11 -->
<g id="edge11" class="edge">
<title>0&#45;&gt;11</title>
<path fill="none" stroke="black" d="M588.66,-94.72C623.03,-88.63 667.36,-79.8 706,-69 747.43,-57.42 757.28,-52.54 797,-36 798.82,-35.24 800.68,-34.44 802.55,-33.62"/>
<polygon fill="black" stroke="black" points="804.17,-36.73 811.83,-29.4 801.28,-30.35 804.17,-36.73"/>
<text text-anchor="middle" x="766.5" y="-57.8" font-family="Times,serif" font-size="14.00">dep</text>
</g>
<!-- 12 -->
<g id="node13" class="node">
<title>12</title>
<ellipse fill="none" stroke="black" cx="914" cy="-18" rx="36" ry="18"/>
<text text-anchor="middle" x="914" y="-14.3" font-family="Times,serif" font-size="14.00">quais</text>
</g>
<!-- 0&#45;&gt;12 -->
<g id="edge12" class="edge">
<title>0&#45;&gt;12</title>
<path fill="none" stroke="black" d="M597.33,-99.02C648.84,-94.15 721.74,-85.05 784,-69 817.22,-60.44 853.55,-46.01 879.33,-34.84"/>
<polygon fill="black" stroke="black" points="880.92,-37.97 888.67,-30.75 878.11,-31.56 880.92,-37.97"/>
<text text-anchor="middle" x="845.5" y="-57.8" font-family="Times,serif" font-size="14.00">dep</text>
</g>
<!-- 13 -->
<g id="node14" class="node">
<title>13</title>
<ellipse fill="none" stroke="black" cx="1018" cy="-18" rx="50.09" ry="18"/>
<text text-anchor="middle" x="1018" y="-14.3" font-family="Times,serif" font-size="14.00">trabalho</text>
</g>
<!-- 0&#45;&gt;13 -->
<g id="edge13" class="edge">
<title>0&#45;&gt;13</title>
<path fill="none" stroke="black" d="M599.68,-100.91C667.27,-96.9 773.13,-88.02 863,-69 901.94,-60.76 944.92,-46.46 975.73,-35.26"/>
<polygon fill="black" stroke="black" points="977.1,-38.49 985.28,-31.75 974.68,-31.92 977.1,-38.49"/>
<text text-anchor="middle" x="933.5" y="-57.8" font-family="Times,serif" font-size="14.00">dep</text>
</g>
<!-- 14 -->
<g id="node15" class="node">
<title>14</title>
<ellipse fill="none" stroke="black" cx="1113" cy="-18" rx="27" ry="18"/>
<text text-anchor="middle" x="1113" y="-14.3" font-family="Times,serif" font-size="14.00">.</text>
</g>
<!-- 0&#45;&gt;14 -->
<g id="edge14" class="edge">
<title>0&#45;&gt;14</title>
<path fill="none" stroke="black" d="M600.21,-101.9C683.84,-98.52 828.58,-89.97 951,-69 1008.06,-59.23 1022.59,-55.78 1077,-36 1078.85,-35.33 1080.74,-34.59 1082.63,-33.82"/>
<polygon fill="black" stroke="black" points="1084.2,-36.95 1091.96,-29.73 1081.39,-30.54 1084.2,-36.95"/>
<text text-anchor="middle" x="1035.5" y="-57.8" font-family="Times,serif" font-size="14.00">dep</text>
</g>
</g>
</svg>
