<?xml version="1.0" encoding="UTF-8" standalone="no"?>
<!DOCTYPE svg PUBLIC "-//W3C//DTD SVG 1.1//EN"
 "http://www.w3.org/Graphics/SVG/1.1/DTD/svg11.dtd">
<!-- Generated by graphviz version 2.42.4 (0)
 -->
<!-- Pages: 1 -->
<svg width="1066pt" height="131pt"
 viewBox="0.00 0.00 1066.10 131.00" xmlns="http://www.w3.org/2000/svg" xmlns:xlink="http://www.w3.org/1999/xlink">
<g id="graph0" class="graph" transform="scale(1 1) rotate(0) translate(4 127)">
<polygon fill="white" stroke="transparent" points="-4,4 -4,-127 1062.1,-127 1062.1,4 -4,4"/>
<!-- 0 -->
<g id="node1" class="node">
<title>0</title>
<ellipse fill="none" stroke="black" cx="553.1" cy="-105" rx="31.7" ry="18"/>
<text text-anchor="middle" x="553.1" y="-101.3" font-family="Times,serif" font-size="14.00">Para</text>
</g>
<!-- 1 -->
<g id="node2" class="node">
<title>1</title>
<ellipse fill="none" stroke="black" cx="35.1" cy="-18" rx="35.19" ry="18"/>
<text text-anchor="middle" x="35.1" y="-14.3" font-family="Times,serif" font-size="14.00">Jorge</text>
</g>
<!-- 0&#45;&gt;1 -->
<g id="edge1" class="edge">
<title>0&#45;&gt;1</title>
<path fill="none" stroke="black" d="M521.15,-103.03C457.43,-100.62 310.27,-92.76 189.1,-69 147.78,-60.9 102.09,-45.16 71.29,-33.49"/>
<polygon fill="black" stroke="black" points="72.43,-30.18 61.84,-29.86 69.92,-36.72 72.43,-30.18"/>
<text text-anchor="middle" x="202.6" y="-57.8" font-family="Times,serif" font-size="14.00">dep</text>
</g>
<!-- 2 -->
<g id="node3" class="node">
<title>2</title>
<ellipse fill="none" stroke="black" cx="132.1" cy="-18" rx="43.59" ry="18"/>
<text text-anchor="middle" x="132.1" y="-14.3" font-family="Times,serif" font-size="14.00">Seabra</text>
</g>
<!-- 0&#45;&gt;2 -->
<g id="edge2" class="edge">
<title>0&#45;&gt;2</title>
<path fill="none" stroke="black" d="M521.28,-102.4C468.46,-99.22 359.64,-90.47 270.1,-69 235.56,-60.72 197.72,-46.63 170.42,-35.52"/>
<polygon fill="black" stroke="black" points="171.44,-32.15 160.86,-31.57 168.77,-38.62 171.44,-32.15"/>
<text text-anchor="middle" x="283.6" y="-57.8" font-family="Times,serif" font-size="14.00">dep</text>
</g>
<!-- 3 -->
<g id="node4" class="node">
<title>3</title>
<ellipse fill="none" stroke="black" cx="221.1" cy="-18" rx="27" ry="18"/>
<text text-anchor="middle" x="221.1" y="-14.3" font-family="Times,serif" font-size="14.00">,</text>
</g>
<!-- 0&#45;&gt;3 -->
<g id="edge3" class="edge">
<title>0&#45;&gt;3</title>
<path fill="none" stroke="black" d="M522.2,-100.61C481.4,-95.72 407.54,-85.43 346.1,-69 305.34,-58.1 295.98,-52.36 257.1,-36 255.28,-35.24 253.42,-34.43 251.56,-33.61"/>
<polygon fill="black" stroke="black" points="252.83,-30.34 242.28,-29.37 249.93,-36.71 252.83,-30.34"/>
<text text-anchor="middle" x="359.6" y="-57.8" font-family="Times,serif" font-size="14.00">dep</text>
</g>
<!-- 4 -->
<g id="node5" class="node">
<title>4</title>
<ellipse fill="none" stroke="black" cx="293.1" cy="-18" rx="27" ry="18"/>
<text text-anchor="middle" x="293.1" y="-14.3" font-family="Times,serif" font-size="14.00">a</text>
</g>
<!-- 0&#45;&gt;4 -->
<g id="edge4" class="edge">
<title>0&#45;&gt;4</title>
<path fill="none" stroke="black" d="M524.31,-97.12C497.44,-90.52 456.3,-79.96 421.1,-69 379.62,-56.09 369.23,-52.63 329.1,-36 327.28,-35.25 325.42,-34.45 323.55,-33.63"/>
<polygon fill="black" stroke="black" points="324.82,-30.36 314.26,-29.41 321.92,-36.73 324.82,-30.36"/>
<text text-anchor="middle" x="434.6" y="-57.8" font-family="Times,serif" font-size="14.00">dep</text>
</g>
<!-- 5 -->
<g id="node6" class="node">
<title>5</title>
<ellipse fill="none" stroke="black" cx="385.1" cy="-18" rx="47.39" ry="18"/>
<text text-anchor="middle" x="385.1" y="-14.3" font-family="Times,serif" font-size="14.00">questão</text>
</g>
<!-- 0&#45;&gt;5 -->
<g id="edge5" class="edge">
<title>0&#45;&gt;5</title>
<path fill="none" stroke="black" d="M529.32,-92.87C514.99,-86.1 496.42,-77.21 480.1,-69 460.1,-58.95 437.96,-47.33 420.09,-37.82"/>
<polygon fill="black" stroke="black" points="421.64,-34.68 411.17,-33.06 418.35,-40.85 421.64,-34.68"/>
<text text-anchor="middle" x="493.6" y="-57.8" font-family="Times,serif" font-size="14.00">dep</text>
</g>
<!-- 6 -->
<g id="node7" class="node">
<title>6</title>
<ellipse fill="none" stroke="black" cx="479.1" cy="-18" rx="28.7" ry="18"/>
<text text-anchor="middle" x="479.1" y="-14.3" font-family="Times,serif" font-size="14.00">tem</text>
</g>
<!-- 0&#45;&gt;6 -->
<g id="edge6" class="edge">
<title>0&#45;&gt;6</title>
<path fill="none" stroke="black" d="M539.47,-88.71C534.04,-82.6 527.75,-75.48 522.1,-69 514.45,-60.24 506.11,-50.56 498.82,-42.07"/>
<polygon fill="black" stroke="black" points="501.38,-39.68 492.21,-34.37 496.06,-44.24 501.38,-39.68"/>
<text text-anchor="middle" x="535.6" y="-57.8" font-family="Times,serif" font-size="14.00">dep</text>
</g>
<!-- 7 -->
<g id="node8" class="node">
<title>7</title>
<ellipse fill="none" stroke="black" cx="553.1" cy="-18" rx="27" ry="18"/>
<text text-anchor="middle" x="553.1" y="-14.3" font-family="Times,serif" font-size="14.00">de</text>
</g>
<!-- 0&#45;&gt;7 -->
<g id="edge7" class="edge">
<title>0&#45;&gt;7</title>
<path fill="none" stroke="black" d="M553.1,-86.8C553.1,-75.16 553.1,-59.55 553.1,-46.24"/>
<polygon fill="black" stroke="black" points="556.6,-46.18 553.1,-36.18 549.6,-46.18 556.6,-46.18"/>
<text text-anchor="middle" x="566.6" y="-57.8" font-family="Times,serif" font-size="14.00">dep</text>
</g>
<!-- 8 -->
<g id="node9" class="node">
<title>8</title>
<ellipse fill="none" stroke="black" cx="625.1" cy="-18" rx="27" ry="18"/>
<text text-anchor="middle" x="625.1" y="-14.3" font-family="Times,serif" font-size="14.00">ser</text>
</g>
<!-- 0&#45;&gt;8 -->
<g id="edge8" class="edge">
<title>0&#45;&gt;8</title>
<path fill="none" stroke="black" d="M567.11,-88.43C572.48,-82.41 578.62,-75.42 584.1,-69 591.42,-60.41 599.31,-50.86 606.19,-42.43"/>
<polygon fill="black" stroke="black" points="609.09,-44.41 612.69,-34.44 603.66,-39.99 609.09,-44.41"/>
<text text-anchor="middle" x="610.6" y="-57.8" font-family="Times,serif" font-size="14.00">dep</text>
</g>
<!-- 9 -->
<g id="node10" class="node">
<title>9</title>
<ellipse fill="none" stroke="black" cx="706.1" cy="-18" rx="36.29" ry="18"/>
<text text-anchor="middle" x="706.1" y="-14.3" font-family="Times,serif" font-size="14.00">posta</text>
</g>
<!-- 0&#45;&gt;9 -->
<g id="edge9" class="edge">
<title>0&#45;&gt;9</title>
<path fill="none" stroke="black" d="M577.83,-93.46C592.65,-86.89 611.73,-78.01 628.1,-69 644.78,-59.81 662.72,-48.43 677.18,-38.84"/>
<polygon fill="black" stroke="black" points="679.34,-41.61 685.7,-33.14 675.44,-35.8 679.34,-41.61"/>
<text text-anchor="middle" x="666.6" y="-57.8" font-family="Times,serif" font-size="14.00">dep</text>
</g>
<!-- 10 -->
<g id="node11" class="node">
<title>10</title>
<ellipse fill="none" stroke="black" cx="787.1" cy="-18" rx="27" ry="18"/>
<text text-anchor="middle" x="787.1" y="-14.3" font-family="Times,serif" font-size="14.00">a</text>
</g>
<!-- 0&#45;&gt;10 -->
<g id="edge10" class="edge">
<title>0&#45;&gt;10</title>
<path fill="none" stroke="black" d="M582.47,-97.84C609.36,-91.81 650.01,-81.69 684.1,-69 709.83,-59.42 737.78,-45.62 758.06,-34.95"/>
<polygon fill="black" stroke="black" points="759.9,-37.93 767.08,-30.14 756.61,-31.75 759.9,-37.93"/>
<text text-anchor="middle" x="732.6" y="-57.8" font-family="Times,serif" font-size="14.00">dep</text>
</g>
<!-- 11 -->
<g id="node12" class="node">
<title>11</title>
<ellipse fill="none" stroke="black" cx="862.1" cy="-18" rx="29.8" ry="18"/>
<text text-anchor="middle" x="862.1" y="-14.3" font-family="Times,serif" font-size="14.00">dois</text>
</g>
<!-- 0&#45;&gt;11 -->
<g id="edge11" class="edge">
<title>0&#45;&gt;11</title>
<path fill="none" stroke="black" d="M584.36,-100.83C623.69,-96.31 692.98,-86.53 750.1,-69 778.47,-60.29 809.15,-46.24 831.21,-35.25"/>
<polygon fill="black" stroke="black" points="833.06,-38.24 840.4,-30.6 829.9,-31.99 833.06,-38.24"/>
<text text-anchor="middle" x="801.6" y="-57.8" font-family="Times,serif" font-size="14.00">dep</text>
</g>
<!-- 12 -->
<g id="node13" class="node">
<title>12</title>
<ellipse fill="none" stroke="black" cx="948.1" cy="-18" rx="38.19" ry="18"/>
<text text-anchor="middle" x="948.1" y="-14.3" font-family="Times,serif" font-size="14.00">níveis</text>
</g>
<!-- 0&#45;&gt;12 -->
<g id="edge12" class="edge">
<title>0&#45;&gt;12</title>
<path fill="none" stroke="black" d="M584.68,-102.29C634.97,-99.02 736.06,-90.23 819.1,-69 851.7,-60.66 887.25,-46.48 912.76,-35.34"/>
<polygon fill="black" stroke="black" points="914.3,-38.49 922.02,-31.24 911.46,-32.09 914.3,-38.49"/>
<text text-anchor="middle" x="880.6" y="-57.8" font-family="Times,serif" font-size="14.00">dep</text>
</g>
<!-- 13 -->
<g id="node14" class="node">
<title>13</title>
<ellipse fill="none" stroke="black" cx="1031.1" cy="-18" rx="27" ry="18"/>
<text text-anchor="middle" x="1031.1" y="-14.3" font-family="Times,serif" font-size="14.00">.</text>
</g>
<!-- 0&#45;&gt;13 -->
<g id="edge13" class="edge">
<title>0&#45;&gt;13</title>
<path fill="none" stroke="black" d="M584.87,-103.18C646.13,-101.07 784.57,-93.73 898.1,-69 942.59,-59.31 952.88,-53.08 995.1,-36 996.92,-35.26 998.79,-34.48 1000.66,-33.66"/>
<polygon fill="black" stroke="black" points="1002.28,-36.77 1009.95,-29.47 999.4,-30.39 1002.28,-36.77"/>
<text text-anchor="middle" x="964.6" y="-57.8" font-family="Times,serif" font-size="14.00">dep</text>
</g>
</g>
</svg>
