<?xml version="1.0" encoding="UTF-8" standalone="no"?>
<!DOCTYPE svg PUBLIC "-//W3C//DTD SVG 1.1//EN"
 "http://www.w3.org/Graphics/SVG/1.1/DTD/svg11.dtd">
<!-- Generated by graphviz version 2.42.4 (0)
 -->
<!-- Pages: 1 -->
<svg width="3440pt" height="131pt"
 viewBox="0.00 0.00 3440.25 131.00" xmlns="http://www.w3.org/2000/svg" xmlns:xlink="http://www.w3.org/1999/xlink">
<g id="graph0" class="graph" transform="scale(1 1) rotate(0) translate(4 127)">
<polygon fill="white" stroke="transparent" points="-4,4 -4,-127 3436.25,-127 3436.25,4 -4,4"/>
<!-- 0 -->
<g id="node1" class="node">
<title>0</title>
<ellipse fill="none" stroke="black" cx="1677.25" cy="-105" rx="29.5" ry="18"/>
<text text-anchor="middle" x="1677.25" y="-101.3" font-family="Times,serif" font-size="14.00">Não</text>
</g>
<!-- 1 -->
<g id="node2" class="node">
<title>1</title>
<ellipse fill="none" stroke="black" cx="42.25" cy="-18" rx="42.49" ry="18"/>
<text text-anchor="middle" x="42.25" y="-14.3" font-family="Times,serif" font-size="14.00">haverá</text>
</g>
<!-- 0&#45;&gt;1 -->
<g id="edge1" class="edge">
<title>0&#45;&gt;1</title>
<path fill="none" stroke="black" d="M1647.78,-103.8C1452.32,-102.4 346.01,-93.47 198.25,-69 157.1,-62.19 111.91,-46.78 80.81,-34.85"/>
<polygon fill="black" stroke="black" points="81.82,-31.49 71.23,-31.12 79.27,-38.01 81.82,-31.49"/>
<text text-anchor="middle" x="211.75" y="-57.8" font-family="Times,serif" font-size="14.00">dep</text>
</g>
<!-- 2 -->
<g id="node3" class="node">
<title>2</title>
<ellipse fill="none" stroke="black" cx="139.25" cy="-18" rx="37.09" ry="18"/>
<text text-anchor="middle" x="139.25" y="-14.3" font-family="Times,serif" font-size="14.00">greve</text>
</g>
<!-- 0&#45;&gt;2 -->
<g id="edge2" class="edge">
<title>0&#45;&gt;2</title>
<path fill="none" stroke="black" d="M1648.04,-103.77C1460.11,-102.25 424.7,-92.83 286.25,-69 247.1,-62.26 204.32,-46.72 175.06,-34.73"/>
<polygon fill="black" stroke="black" points="176.25,-31.44 165.68,-30.83 173.56,-37.9 176.25,-31.44"/>
<text text-anchor="middle" x="299.75" y="-57.8" font-family="Times,serif" font-size="14.00">dep</text>
</g>
<!-- 3 -->
<g id="node4" class="node">
<title>3</title>
<ellipse fill="none" stroke="black" cx="225.25" cy="-18" rx="30.59" ry="18"/>
<text text-anchor="middle" x="225.25" y="-14.3" font-family="Times,serif" font-size="14.00">nem</text>
</g>
<!-- 0&#45;&gt;3 -->
<g id="edge3" class="edge">
<title>0&#45;&gt;3</title>
<path fill="none" stroke="black" d="M1647.92,-103.67C1466.93,-101.58 505.53,-89.59 376.25,-69 334.47,-62.35 288.62,-45.75 258.54,-33.5"/>
<polygon fill="black" stroke="black" points="259.54,-30.13 248.97,-29.53 256.86,-36.59 259.54,-30.13"/>
<text text-anchor="middle" x="389.75" y="-57.8" font-family="Times,serif" font-size="14.00">dep</text>
</g>
<!-- 4 -->
<g id="node5" class="node">
<title>4</title>
<ellipse fill="none" stroke="black" cx="324.25" cy="-18" rx="50.09" ry="18"/>
<text text-anchor="middle" x="324.25" y="-14.3" font-family="Times,serif" font-size="14.00">bloqueio</text>
</g>
<!-- 0&#45;&gt;4 -->
<g id="edge4" class="edge">
<title>0&#45;&gt;4</title>
<path fill="none" stroke="black" d="M1647.84,-103.72C1473.6,-102 580.04,-92.1 460.25,-69 426.15,-62.42 389.28,-48.4 362.54,-36.87"/>
<polygon fill="black" stroke="black" points="363.73,-33.58 353.17,-32.76 360.92,-39.99 363.73,-33.58"/>
<text text-anchor="middle" x="473.75" y="-57.8" font-family="Times,serif" font-size="14.00">dep</text>
</g>
<!-- 5 -->
<g id="node6" class="node">
<title>5</title>
<ellipse fill="none" stroke="black" cx="419.25" cy="-18" rx="27" ry="18"/>
<text text-anchor="middle" x="419.25" y="-14.3" font-family="Times,serif" font-size="14.00">a</text>
</g>
<!-- 0&#45;&gt;5 -->
<g id="edge5" class="edge">
<title>0&#45;&gt;5</title>
<path fill="none" stroke="black" d="M1647.81,-103.71C1480.08,-102 648.68,-92.36 537.25,-69 505.48,-62.34 471.59,-47.03 448.32,-35.09"/>
<polygon fill="black" stroke="black" points="449.82,-31.93 439.34,-30.38 446.57,-38.13 449.82,-31.93"/>
<text text-anchor="middle" x="550.75" y="-57.8" font-family="Times,serif" font-size="14.00">dep</text>
</g>
<!-- 6 -->
<g id="node7" class="node">
<title>6</title>
<ellipse fill="none" stroke="black" cx="491.25" cy="-18" rx="27" ry="18"/>
<text text-anchor="middle" x="491.25" y="-14.3" font-family="Times,serif" font-size="14.00">a</text>
</g>
<!-- 0&#45;&gt;6 -->
<g id="edge6" class="edge">
<title>0&#45;&gt;6</title>
<path fill="none" stroke="black" d="M1647.91,-104.29C1498.66,-105.56 822.61,-108.97 617.25,-69 582.98,-62.33 546.13,-46.61 521.19,-34.56"/>
<polygon fill="black" stroke="black" points="522.44,-31.27 511.92,-29.99 519.34,-37.55 522.44,-31.27"/>
<text text-anchor="middle" x="630.75" y="-57.8" font-family="Times,serif" font-size="14.00">dep</text>
</g>
<!-- 7 -->
<g id="node8" class="node">
<title>7</title>
<ellipse fill="none" stroke="black" cx="574.25" cy="-18" rx="37.89" ry="18"/>
<text text-anchor="middle" x="574.25" y="-14.3" font-family="Times,serif" font-size="14.00">época</text>
</g>
<!-- 0&#45;&gt;7 -->
<g id="edge7" class="edge">
<title>0&#45;&gt;7</title>
<path fill="none" stroke="black" d="M1648.01,-103.57C1495.16,-101.24 791.21,-89.47 696.25,-69 665.03,-62.27 631.62,-48.03 607.66,-36.46"/>
<polygon fill="black" stroke="black" points="609.17,-33.3 598.65,-32.02 606.07,-39.58 609.17,-33.3"/>
<text text-anchor="middle" x="709.75" y="-57.8" font-family="Times,serif" font-size="14.00">dep</text>
</g>
<!-- 8 -->
<g id="node9" class="node">
<title>8</title>
<ellipse fill="none" stroke="black" cx="657.25" cy="-18" rx="27" ry="18"/>
<text text-anchor="middle" x="657.25" y="-14.3" font-family="Times,serif" font-size="14.00">de</text>
</g>
<!-- 0&#45;&gt;8 -->
<g id="edge8" class="edge">
<title>0&#45;&gt;8</title>
<path fill="none" stroke="black" d="M1647.83,-104.25C1512.11,-105.17 945.68,-106.65 773.25,-69 742.13,-62.21 708.98,-47.02 686.12,-35.16"/>
<polygon fill="black" stroke="black" points="687.46,-31.91 676.99,-30.31 684.18,-38.1 687.46,-31.91"/>
<text text-anchor="middle" x="786.75" y="-57.8" font-family="Times,serif" font-size="14.00">dep</text>
</g>
<!-- 9 -->
<g id="node10" class="node">
<title>9</title>
<ellipse fill="none" stroke="black" cx="729.25" cy="-18" rx="27" ry="18"/>
<text text-anchor="middle" x="729.25" y="-14.3" font-family="Times,serif" font-size="14.00">a</text>
</g>
<!-- 0&#45;&gt;9 -->
<g id="edge9" class="edge">
<title>0&#45;&gt;9</title>
<path fill="none" stroke="black" d="M1647.89,-104.01C1519.77,-103.85 1009,-101.18 852.25,-69 818.96,-62.17 783.22,-46.62 758.89,-34.66"/>
<polygon fill="black" stroke="black" points="760.34,-31.48 749.84,-30.12 757.2,-37.73 760.34,-31.48"/>
<text text-anchor="middle" x="865.75" y="-57.8" font-family="Times,serif" font-size="14.00">dep</text>
</g>
<!-- 10 -->
<g id="node11" class="node">
<title>10</title>
<ellipse fill="none" stroke="black" cx="806.25" cy="-18" rx="31.7" ry="18"/>
<text text-anchor="middle" x="806.25" y="-14.3" font-family="Times,serif" font-size="14.00">NBA</text>
</g>
<!-- 0&#45;&gt;10 -->
<g id="edge10" class="edge">
<title>0&#45;&gt;10</title>
<path fill="none" stroke="black" d="M1647.95,-103.88C1527.79,-103.21 1072.54,-98.7 932.25,-69 899.12,-61.99 863.42,-47.06 838.51,-35.33"/>
<polygon fill="black" stroke="black" points="839.72,-32.03 829.19,-30.86 836.69,-38.34 839.72,-32.03"/>
<text text-anchor="middle" x="945.75" y="-57.8" font-family="Times,serif" font-size="14.00">dep</text>
</g>
<!-- 11 -->
<g id="node12" class="node">
<title>11</title>
<ellipse fill="none" stroke="black" cx="883.25" cy="-18" rx="27" ry="18"/>
<text text-anchor="middle" x="883.25" y="-14.3" font-family="Times,serif" font-size="14.00">,</text>
</g>
<!-- 0&#45;&gt;11 -->
<g id="edge11" class="edge">
<title>0&#45;&gt;11</title>
<path fill="none" stroke="black" d="M1647.85,-103.55C1536.16,-101.65 1138.25,-93.3 1014.25,-69 978.45,-61.98 939.67,-46.05 913.67,-34.04"/>
<polygon fill="black" stroke="black" points="914.9,-30.75 904.36,-29.66 911.92,-37.08 914.9,-30.75"/>
<text text-anchor="middle" x="1027.75" y="-57.8" font-family="Times,serif" font-size="14.00">dep</text>
</g>
<!-- 12 -->
<g id="node13" class="node">
<title>12</title>
<ellipse fill="none" stroke="black" cx="955.25" cy="-18" rx="27" ry="18"/>
<text text-anchor="middle" x="955.25" y="-14.3" font-family="Times,serif" font-size="14.00">a</text>
</g>
<!-- 0&#45;&gt;12 -->
<g id="edge12" class="edge">
<title>0&#45;&gt;12</title>
<path fill="none" stroke="black" d="M1647.82,-104.18C1564.09,-104.27 1317.59,-101.54 1116.25,-69 1059.52,-59.83 1045.23,-55.68 991.25,-36 989.4,-35.33 987.51,-34.59 985.62,-33.82"/>
<polygon fill="black" stroke="black" points="986.86,-30.54 976.29,-29.73 984.05,-36.95 986.86,-30.54"/>
<text text-anchor="middle" x="1129.75" y="-57.8" font-family="Times,serif" font-size="14.00">dep</text>
</g>
<!-- 13 -->
<g id="node14" class="node">
<title>13</title>
<ellipse fill="none" stroke="black" cx="1031.25" cy="-18" rx="30.59" ry="18"/>
<text text-anchor="middle" x="1031.25" y="-14.3" font-family="Times,serif" font-size="14.00">Liga</text>
</g>
<!-- 0&#45;&gt;13 -->
<g id="edge13" class="edge">
<title>0&#45;&gt;13</title>
<path fill="none" stroke="black" d="M1648.34,-102.22C1582.04,-97.99 1413.98,-86.35 1274.25,-69 1183.1,-57.69 1158.37,-61.89 1070.25,-36 1067.97,-35.33 1065.66,-34.57 1063.35,-33.73"/>
<polygon fill="black" stroke="black" points="1064.57,-30.46 1053.99,-30.05 1062.01,-36.97 1064.57,-30.46"/>
<text text-anchor="middle" x="1287.75" y="-57.8" font-family="Times,serif" font-size="14.00">dep</text>
</g>
<!-- 14 -->
<g id="node15" class="node">
<title>14</title>
<ellipse fill="none" stroke="black" cx="1169.25" cy="-18" rx="89.88" ry="18"/>
<text text-anchor="middle" x="1169.25" y="-14.3" font-family="Times,serif" font-size="14.00">Norte&#45;Americana</text>
</g>
<!-- 0&#45;&gt;14 -->
<g id="edge14" class="edge">
<title>0&#45;&gt;14</title>
<path fill="none" stroke="black" d="M1648.05,-101.89C1593.54,-97.69 1472.7,-87.06 1372.25,-69 1323.4,-60.22 1268.83,-46.56 1228.57,-35.73"/>
<polygon fill="black" stroke="black" points="1229.49,-32.35 1218.92,-33.11 1227.66,-39.11 1229.49,-32.35"/>
<text text-anchor="middle" x="1385.75" y="-57.8" font-family="Times,serif" font-size="14.00">dep</text>
</g>
<!-- 15 -->
<g id="node16" class="node">
<title>15</title>
<ellipse fill="none" stroke="black" cx="1304.25" cy="-18" rx="27" ry="18"/>
<text text-anchor="middle" x="1304.25" y="-14.3" font-family="Times,serif" font-size="14.00">de</text>
</g>
<!-- 0&#45;&gt;15 -->
<g id="edge15" class="edge">
<title>0&#45;&gt;15</title>
<path fill="none" stroke="black" d="M1648.68,-100.64C1589.81,-93.2 1451.23,-72.99 1340.25,-36 1338.33,-35.36 1336.38,-34.65 1334.43,-33.88"/>
<polygon fill="black" stroke="black" points="1335.41,-30.49 1324.84,-29.76 1332.64,-36.92 1335.41,-30.49"/>
<text text-anchor="middle" x="1472.75" y="-57.8" font-family="Times,serif" font-size="14.00">dep</text>
</g>
<!-- 16 -->
<g id="node17" class="node">
<title>16</title>
<ellipse fill="none" stroke="black" cx="1417.25" cy="-18" rx="68.49" ry="18"/>
<text text-anchor="middle" x="1417.25" y="-14.3" font-family="Times,serif" font-size="14.00">Basquetebol</text>
</g>
<!-- 0&#45;&gt;16 -->
<g id="edge16" class="edge">
<title>0&#45;&gt;16</title>
<path fill="none" stroke="black" d="M1651.84,-95.7C1609.41,-81.82 1523.34,-53.68 1468.08,-35.62"/>
<polygon fill="black" stroke="black" points="1469.07,-32.26 1458.48,-32.48 1466.9,-38.91 1469.07,-32.26"/>
<text text-anchor="middle" x="1576.75" y="-57.8" font-family="Times,serif" font-size="14.00">dep</text>
</g>
<!-- 17 -->
<g id="node18" class="node">
<title>17</title>
<ellipse fill="none" stroke="black" cx="1568.25" cy="-18" rx="64.19" ry="18"/>
<text text-anchor="middle" x="1568.25" y="-14.3" font-family="Times,serif" font-size="14.00">profissional</text>
</g>
<!-- 0&#45;&gt;17 -->
<g id="edge17" class="edge">
<title>0&#45;&gt;17</title>
<path fill="none" stroke="black" d="M1659.73,-90.34C1642.88,-77.2 1617.1,-57.1 1597.2,-41.58"/>
<polygon fill="black" stroke="black" points="1599.11,-38.63 1589.07,-35.24 1594.8,-44.15 1599.11,-38.63"/>
<text text-anchor="middle" x="1643.75" y="-57.8" font-family="Times,serif" font-size="14.00">dep</text>
</g>
<!-- 18 -->
<g id="node19" class="node">
<title>18</title>
<ellipse fill="none" stroke="black" cx="1677.25" cy="-18" rx="27" ry="18"/>
<text text-anchor="middle" x="1677.25" y="-14.3" font-family="Times,serif" font-size="14.00">,</text>
</g>
<!-- 0&#45;&gt;18 -->
<g id="edge18" class="edge">
<title>0&#45;&gt;18</title>
<path fill="none" stroke="black" d="M1677.25,-86.8C1677.25,-75.16 1677.25,-59.55 1677.25,-46.24"/>
<polygon fill="black" stroke="black" points="1680.75,-46.18 1677.25,-36.18 1673.75,-46.18 1680.75,-46.18"/>
<text text-anchor="middle" x="1690.75" y="-57.8" font-family="Times,serif" font-size="14.00">dep</text>
</g>
<!-- 19 -->
<g id="node20" class="node">
<title>19</title>
<ellipse fill="none" stroke="black" cx="1825.25" cy="-18" rx="103.18" ry="18"/>
<text text-anchor="middle" x="1825.25" y="-14.3" font-family="Times,serif" font-size="14.00">independentemente</text>
</g>
<!-- 0&#45;&gt;19 -->
<g id="edge19" class="edge">
<title>0&#45;&gt;19</title>
<path fill="none" stroke="black" d="M1697.83,-92.18C1721.05,-78.84 1759.29,-56.88 1787.84,-40.48"/>
<polygon fill="black" stroke="black" points="1789.8,-43.39 1796.73,-35.38 1786.32,-37.32 1789.8,-43.39"/>
<text text-anchor="middle" x="1773.75" y="-57.8" font-family="Times,serif" font-size="14.00">dep</text>
</g>
<!-- 20 -->
<g id="node21" class="node">
<title>20</title>
<ellipse fill="none" stroke="black" cx="1973.25" cy="-18" rx="27" ry="18"/>
<text text-anchor="middle" x="1973.25" y="-14.3" font-family="Times,serif" font-size="14.00">de</text>
</g>
<!-- 0&#45;&gt;20 -->
<g id="edge20" class="edge">
<title>0&#45;&gt;20</title>
<path fill="none" stroke="black" d="M1704.7,-98.57C1752.69,-88.71 1854.58,-66.03 1937.25,-36 1939.1,-35.33 1940.98,-34.59 1942.87,-33.82"/>
<polygon fill="black" stroke="black" points="1944.45,-36.95 1952.2,-29.73 1941.64,-30.54 1944.45,-36.95"/>
<text text-anchor="middle" x="1895.75" y="-57.8" font-family="Times,serif" font-size="14.00">dep</text>
</g>
<!-- 21 -->
<g id="node22" class="node">
<title>21</title>
<ellipse fill="none" stroke="black" cx="2054.25" cy="-18" rx="36.29" ry="18"/>
<text text-anchor="middle" x="2054.25" y="-14.3" font-family="Times,serif" font-size="14.00">ainda</text>
</g>
<!-- 0&#45;&gt;21 -->
<g id="edge21" class="edge">
<title>0&#45;&gt;21</title>
<path fill="none" stroke="black" d="M1706.28,-101.43C1751.14,-97.07 1839.81,-86.91 1913.25,-69 1957.08,-58.31 1966.81,-51.31 2009.25,-36 2011.65,-35.13 2014.13,-34.23 2016.62,-33.31"/>
<polygon fill="black" stroke="black" points="2018.06,-36.51 2026.21,-29.74 2015.62,-29.95 2018.06,-36.51"/>
<text text-anchor="middle" x="1975.75" y="-57.8" font-family="Times,serif" font-size="14.00">dep</text>
</g>
<!-- 22 -->
<g id="node23" class="node">
<title>22</title>
<ellipse fill="none" stroke="black" cx="2136.25" cy="-18" rx="27.1" ry="18"/>
<text text-anchor="middle" x="2136.25" y="-14.3" font-family="Times,serif" font-size="14.00">não</text>
</g>
<!-- 0&#45;&gt;22 -->
<g id="edge22" class="edge">
<title>0&#45;&gt;22</title>
<path fill="none" stroke="black" d="M1706.29,-102.64C1762.32,-99.62 1888.97,-90.8 1993.25,-69 2041.54,-58.9 2053.18,-53.67 2099.25,-36 2101.34,-35.2 2103.48,-34.33 2105.62,-33.44"/>
<polygon fill="black" stroke="black" points="2107.17,-36.58 2114.92,-29.36 2104.36,-30.17 2107.17,-36.58"/>
<text text-anchor="middle" x="2064.75" y="-57.8" font-family="Times,serif" font-size="14.00">dep</text>
</g>
<!-- 23 -->
<g id="node24" class="node">
<title>23</title>
<ellipse fill="none" stroke="black" cx="2222.25" cy="-18" rx="40.09" ry="18"/>
<text text-anchor="middle" x="2222.25" y="-14.3" font-family="Times,serif" font-size="14.00">existir</text>
</g>
<!-- 0&#45;&gt;23 -->
<g id="edge23" class="edge">
<title>0&#45;&gt;23</title>
<path fill="none" stroke="black" d="M1706.6,-104.03C1773.87,-103.54 1943.99,-99.14 2082.25,-69 2118.23,-61.16 2157.59,-46.53 2185.38,-35.11"/>
<polygon fill="black" stroke="black" points="2186.83,-38.3 2194.71,-31.22 2184.13,-31.84 2186.83,-38.3"/>
<text text-anchor="middle" x="2147.75" y="-57.8" font-family="Times,serif" font-size="14.00">dep</text>
</g>
<!-- 24 -->
<g id="node25" class="node">
<title>24</title>
<ellipse fill="none" stroke="black" cx="2323.25" cy="-18" rx="42.49" ry="18"/>
<text text-anchor="middle" x="2323.25" y="-14.3" font-family="Times,serif" font-size="14.00">acordo</text>
</g>
<!-- 0&#45;&gt;24 -->
<g id="edge24" class="edge">
<title>0&#45;&gt;24</title>
<path fill="none" stroke="black" d="M1706.7,-104.23C1783.12,-104.34 1993.73,-101.4 2165.25,-69 2206.45,-61.22 2251.94,-46.09 2283.49,-34.51"/>
<polygon fill="black" stroke="black" points="2285.07,-37.65 2293.22,-30.88 2282.62,-31.09 2285.07,-37.65"/>
<text text-anchor="middle" x="2236.75" y="-57.8" font-family="Times,serif" font-size="14.00">dep</text>
</g>
<!-- 25 -->
<g id="node26" class="node">
<title>25</title>
<ellipse fill="none" stroke="black" cx="2420.25" cy="-18" rx="36.29" ry="18"/>
<text text-anchor="middle" x="2420.25" y="-14.3" font-family="Times,serif" font-size="14.00">sobre</text>
</g>
<!-- 0&#45;&gt;25 -->
<g id="edge25" class="edge">
<title>0&#45;&gt;25</title>
<path fill="none" stroke="black" d="M1706.61,-104.36C1791.87,-104.95 2046.59,-103.47 2254.25,-69 2299.45,-61.5 2349.6,-45.23 2382.83,-33.28"/>
<polygon fill="black" stroke="black" points="2384.38,-36.44 2392.57,-29.73 2381.98,-29.87 2384.38,-36.44"/>
<text text-anchor="middle" x="2328.75" y="-57.8" font-family="Times,serif" font-size="14.00">dep</text>
</g>
<!-- 26 -->
<g id="node27" class="node">
<title>26</title>
<ellipse fill="none" stroke="black" cx="2501.25" cy="-18" rx="27" ry="18"/>
<text text-anchor="middle" x="2501.25" y="-14.3" font-family="Times,serif" font-size="14.00">o</text>
</g>
<!-- 0&#45;&gt;26 -->
<g id="edge26" class="edge">
<title>0&#45;&gt;26</title>
<path fill="none" stroke="black" d="M1706.48,-103.32C1818.49,-100.58 2220.26,-89.51 2346.25,-69 2400.42,-60.18 2413.8,-55.12 2465.25,-36 2467.09,-35.31 2468.97,-34.57 2470.86,-33.79"/>
<polygon fill="black" stroke="black" points="2472.44,-36.92 2480.18,-29.68 2469.62,-30.51 2472.44,-36.92"/>
<text text-anchor="middle" x="2426.75" y="-57.8" font-family="Times,serif" font-size="14.00">dep</text>
</g>
<!-- 27 -->
<g id="node28" class="node">
<title>27</title>
<ellipse fill="none" stroke="black" cx="2580.25" cy="-18" rx="34.39" ry="18"/>
<text text-anchor="middle" x="2580.25" y="-14.3" font-family="Times,serif" font-size="14.00">tecto</text>
</g>
<!-- 0&#45;&gt;27 -->
<g id="edge27" class="edge">
<title>0&#45;&gt;27</title>
<path fill="none" stroke="black" d="M1706.56,-103.82C1828.88,-102.87 2299.04,-97.42 2444.25,-69 2480.09,-61.98 2519.01,-46.85 2546,-35.06"/>
<polygon fill="black" stroke="black" points="2547.66,-38.15 2555.37,-30.88 2544.81,-31.75 2547.66,-38.15"/>
<text text-anchor="middle" x="2511.75" y="-57.8" font-family="Times,serif" font-size="14.00">dep</text>
</g>
<!-- 28 -->
<g id="node29" class="node">
<title>28</title>
<ellipse fill="none" stroke="black" cx="2677.25" cy="-18" rx="44.69" ry="18"/>
<text text-anchor="middle" x="2677.25" y="-14.3" font-family="Times,serif" font-size="14.00">salarial</text>
</g>
<!-- 0&#45;&gt;28 -->
<g id="edge28" class="edge">
<title>0&#45;&gt;28</title>
<path fill="none" stroke="black" d="M1706.65,-103.91C1837.36,-103.35 2366.4,-99.21 2529.25,-69 2567.34,-61.93 2609,-47.18 2638.39,-35.53"/>
<polygon fill="black" stroke="black" points="2639.9,-38.69 2647.87,-31.71 2637.28,-32.2 2639.9,-38.69"/>
<text text-anchor="middle" x="2596.75" y="-57.8" font-family="Times,serif" font-size="14.00">dep</text>
</g>
<!-- 29 -->
<g id="node30" class="node">
<title>29</title>
<ellipse fill="none" stroke="black" cx="2767.25" cy="-18" rx="27" ry="18"/>
<text text-anchor="middle" x="2767.25" y="-14.3" font-family="Times,serif" font-size="14.00">,</text>
</g>
<!-- 0&#45;&gt;29 -->
<g id="edge29" class="edge">
<title>0&#45;&gt;29</title>
<path fill="none" stroke="black" d="M1706.72,-103.84C1845.32,-102.95 2433.14,-97.51 2614.25,-69 2667.62,-60.6 2680.64,-54.93 2731.25,-36 2733.09,-35.31 2734.97,-34.56 2736.86,-33.78"/>
<polygon fill="black" stroke="black" points="2738.44,-36.9 2746.18,-29.66 2735.62,-30.5 2738.44,-36.9"/>
<text text-anchor="middle" x="2695.75" y="-57.8" font-family="Times,serif" font-size="14.00">dep</text>
</g>
<!-- 30 -->
<g id="node31" class="node">
<title>30</title>
<ellipse fill="none" stroke="black" cx="2869.25" cy="-18" rx="57.39" ry="18"/>
<text text-anchor="middle" x="2869.25" y="-14.3" font-family="Times,serif" font-size="14.00">decidiram</text>
</g>
<!-- 0&#45;&gt;30 -->
<g id="edge30" class="edge">
<title>0&#45;&gt;30</title>
<path fill="none" stroke="black" d="M1706.86,-104.1C1854.53,-104.44 2512.22,-103.91 2713.25,-69 2752.44,-62.19 2795.37,-47.9 2826.26,-36.33"/>
<polygon fill="black" stroke="black" points="2827.74,-39.51 2835.84,-32.68 2825.25,-32.97 2827.74,-39.51"/>
<text text-anchor="middle" x="2788.75" y="-57.8" font-family="Times,serif" font-size="14.00">dep</text>
</g>
<!-- 31 -->
<g id="node32" class="node">
<title>31</title>
<ellipse fill="none" stroke="black" cx="2971.25" cy="-18" rx="27" ry="18"/>
<text text-anchor="middle" x="2971.25" y="-14.3" font-family="Times,serif" font-size="14.00">os</text>
</g>
<!-- 0&#45;&gt;31 -->
<g id="edge31" class="edge">
<title>0&#45;&gt;31</title>
<path fill="none" stroke="black" d="M1706.61,-103.96C1861.5,-103.62 2584.78,-100.37 2806.25,-69 2864.84,-60.7 2879.57,-56.06 2935.25,-36 2937.1,-35.33 2938.99,-34.6 2940.88,-33.83"/>
<polygon fill="black" stroke="black" points="2942.45,-36.97 2950.21,-29.75 2939.65,-30.55 2942.45,-36.97"/>
<text text-anchor="middle" x="2894.75" y="-57.8" font-family="Times,serif" font-size="14.00">dep</text>
</g>
<!-- 32 -->
<g id="node33" class="node">
<title>32</title>
<ellipse fill="none" stroke="black" cx="3087.25" cy="-18" rx="71.49" ry="18"/>
<text text-anchor="middle" x="3087.25" y="-14.3" font-family="Times,serif" font-size="14.00">proprietários</text>
</g>
<!-- 0&#45;&gt;32 -->
<g id="edge32" class="edge">
<title>0&#45;&gt;32</title>
<path fill="none" stroke="black" d="M1706.65,-104.16C1870.21,-104.91 2669.13,-106.57 2912.25,-69 2955.73,-62.28 3003.69,-48.08 3038.39,-36.52"/>
<polygon fill="black" stroke="black" points="3039.9,-39.7 3048.26,-33.18 3037.66,-33.07 3039.9,-39.7"/>
<text text-anchor="middle" x="2994.75" y="-57.8" font-family="Times,serif" font-size="14.00">dep</text>
</g>
<!-- 33 -->
<g id="node34" class="node">
<title>33</title>
<ellipse fill="none" stroke="black" cx="3203.25" cy="-18" rx="27" ry="18"/>
<text text-anchor="middle" x="3203.25" y="-14.3" font-family="Times,serif" font-size="14.00">e</text>
</g>
<!-- 0&#45;&gt;33 -->
<g id="edge33" class="edge">
<title>0&#45;&gt;33</title>
<path fill="none" stroke="black" d="M1706.45,-103.96C1877.09,-103.64 2746.9,-100.46 3012.25,-69 3082.19,-60.71 3100.51,-58.52 3167.25,-36 3169.16,-35.35 3171.11,-34.63 3173.06,-33.86"/>
<polygon fill="black" stroke="black" points="3174.85,-36.9 3182.64,-29.73 3172.08,-30.47 3174.85,-36.9"/>
<text text-anchor="middle" x="3120.75" y="-57.8" font-family="Times,serif" font-size="14.00">dep</text>
</g>
<!-- 34 -->
<g id="node35" class="node">
<title>34</title>
<ellipse fill="none" stroke="black" cx="3304.25" cy="-18" rx="55.79" ry="18"/>
<text text-anchor="middle" x="3304.25" y="-14.3" font-family="Times,serif" font-size="14.00">jogadores</text>
</g>
<!-- 0&#45;&gt;34 -->
<g id="edge34" class="edge">
<title>0&#45;&gt;34</title>
<path fill="none" stroke="black" d="M1706.66,-103.77C1900.58,-102.19 2992.22,-92.3 3138.25,-69 3180.54,-62.25 3227.09,-47.56 3260.11,-35.84"/>
<polygon fill="black" stroke="black" points="3261.69,-38.99 3269.91,-32.31 3259.31,-32.41 3261.69,-38.99"/>
<text text-anchor="middle" x="3216.75" y="-57.8" font-family="Times,serif" font-size="14.00">dep</text>
</g>
<!-- 35 -->
<g id="node36" class="node">
<title>35</title>
<ellipse fill="none" stroke="black" cx="3405.25" cy="-18" rx="27" ry="18"/>
<text text-anchor="middle" x="3405.25" y="-14.3" font-family="Times,serif" font-size="14.00">.</text>
</g>
<!-- 0&#45;&gt;35 -->
<g id="edge35" class="edge">
<title>0&#45;&gt;35</title>
<path fill="none" stroke="black" d="M1706.62,-104.21C1893.88,-105.42 2922.79,-110.07 3234.25,-69 3295.48,-60.93 3311.03,-56.63 3369.25,-36 3371.15,-35.32 3373.09,-34.58 3375.03,-33.8"/>
<polygon fill="black" stroke="black" points="3376.84,-36.83 3384.61,-29.62 3374.04,-30.41 3376.84,-36.83"/>
<text text-anchor="middle" x="3327.75" y="-57.8" font-family="Times,serif" font-size="14.00">dep</text>
</g>
</g>
</svg>
