<?xml version="1.0" encoding="UTF-8" standalone="no"?>
<!DOCTYPE svg PUBLIC "-//W3C//DTD SVG 1.1//EN"
 "http://www.w3.org/Graphics/SVG/1.1/DTD/svg11.dtd">
<!-- Generated by graphviz version 2.42.4 (0)
 -->
<!-- Pages: 1 -->
<svg width="2787pt" height="131pt"
 viewBox="0.00 0.00 2787.00 131.00" xmlns="http://www.w3.org/2000/svg" xmlns:xlink="http://www.w3.org/1999/xlink">
<g id="graph0" class="graph" transform="scale(1 1) rotate(0) translate(4 127)">
<polygon fill="white" stroke="transparent" points="-4,4 -4,-127 2783,-127 2783,4 -4,4"/>
<!-- 0 -->
<g id="node1" class="node">
<title>0</title>
<ellipse fill="none" stroke="black" cx="1504" cy="-105" rx="42.79" ry="18"/>
<text text-anchor="middle" x="1504" y="-101.3" font-family="Times,serif" font-size="14.00">Muitas</text>
</g>
<!-- 1 -->
<g id="node2" class="node">
<title>1</title>
<ellipse fill="none" stroke="black" cx="52" cy="-18" rx="51.99" ry="18"/>
<text text-anchor="middle" x="52" y="-14.3" font-family="Times,serif" font-size="14.00">questões</text>
</g>
<!-- 0&#45;&gt;1 -->
<g id="edge1" class="edge">
<title>0&#45;&gt;1</title>
<path fill="none" stroke="black" d="M1461.02,-103.94C1269.96,-103.5 496.52,-99.81 256,-69 201.2,-61.98 139.81,-45.76 98.82,-33.68"/>
<polygon fill="black" stroke="black" points="99.7,-30.29 89.12,-30.79 97.7,-37 99.7,-30.29"/>
<text text-anchor="middle" x="269.5" y="-57.8" font-family="Times,serif" font-size="14.00">dep</text>
</g>
<!-- 2 -->
<g id="node3" class="node">
<title>2</title>
<ellipse fill="none" stroke="black" cx="180" cy="-18" rx="57.69" ry="18"/>
<text text-anchor="middle" x="180" y="-14.3" font-family="Times,serif" font-size="14.00">subsistem</text>
</g>
<!-- 0&#45;&gt;2 -->
<g id="edge2" class="edge">
<title>0&#45;&gt;2</title>
<path fill="none" stroke="black" d="M1461.08,-104.11C1279.58,-104.37 574.26,-103.12 355,-69 310.24,-62.04 260.73,-47.19 225.83,-35.48"/>
<polygon fill="black" stroke="black" points="226.54,-32.02 215.94,-32.11 224.28,-38.65 226.54,-32.02"/>
<text text-anchor="middle" x="368.5" y="-57.8" font-family="Times,serif" font-size="14.00">dep</text>
</g>
<!-- 3 -->
<g id="node4" class="node">
<title>3</title>
<ellipse fill="none" stroke="black" cx="292" cy="-18" rx="36.29" ry="18"/>
<text text-anchor="middle" x="292" y="-14.3" font-family="Times,serif" font-size="14.00">ainda</text>
</g>
<!-- 0&#45;&gt;3 -->
<g id="edge3" class="edge">
<title>0&#45;&gt;3</title>
<path fill="none" stroke="black" d="M1460.97,-104.09C1288.32,-104.2 645.4,-102.33 445,-69 403.7,-62.13 358.35,-46.18 327.83,-34.13"/>
<polygon fill="black" stroke="black" points="329.05,-30.85 318.46,-30.37 326.44,-37.35 329.05,-30.85"/>
<text text-anchor="middle" x="458.5" y="-57.8" font-family="Times,serif" font-size="14.00">dep</text>
</g>
<!-- 4 -->
<g id="node5" class="node">
<title>4</title>
<ellipse fill="none" stroke="black" cx="373" cy="-18" rx="27" ry="18"/>
<text text-anchor="middle" x="373" y="-14.3" font-family="Times,serif" font-size="14.00">,</text>
</g>
<!-- 0&#45;&gt;4 -->
<g id="edge4" class="edge">
<title>0&#45;&gt;4</title>
<path fill="none" stroke="black" d="M1460.79,-104.43C1329.95,-105.29 926.71,-104.64 595,-69 511.52,-60.03 488.99,-61.48 409,-36 407.07,-35.39 405.11,-34.69 403.16,-33.94"/>
<polygon fill="black" stroke="black" points="404.13,-30.55 393.56,-29.85 401.39,-36.99 404.13,-30.55"/>
<text text-anchor="middle" x="608.5" y="-57.8" font-family="Times,serif" font-size="14.00">dep</text>
</g>
<!-- 5 -->
<g id="node6" class="node">
<title>5</title>
<ellipse fill="none" stroke="black" cx="500" cy="-18" rx="81.79" ry="18"/>
<text text-anchor="middle" x="500" y="-14.3" font-family="Times,serif" font-size="14.00">nomeadamente</text>
</g>
<!-- 0&#45;&gt;5 -->
<g id="edge5" class="edge">
<title>0&#45;&gt;5</title>
<path fill="none" stroke="black" d="M1461.22,-103.31C1316.46,-100.8 845.75,-91.1 696,-69 647.52,-61.85 593.66,-47.64 554.69,-36.19"/>
<polygon fill="black" stroke="black" points="555.19,-32.69 544.61,-33.19 553.2,-39.4 555.19,-32.69"/>
<text text-anchor="middle" x="709.5" y="-57.8" font-family="Times,serif" font-size="14.00">dep</text>
</g>
<!-- 6 -->
<g id="node7" class="node">
<title>6</title>
<ellipse fill="none" stroke="black" cx="636" cy="-18" rx="36.29" ry="18"/>
<text text-anchor="middle" x="636" y="-14.3" font-family="Times,serif" font-size="14.00">sobre</text>
</g>
<!-- 0&#45;&gt;6 -->
<g id="edge6" class="edge">
<title>0&#45;&gt;6</title>
<path fill="none" stroke="black" d="M1461.04,-103.36C1326.75,-101.14 915.99,-92.56 785,-69 745.31,-61.86 701.78,-46.3 672.08,-34.42"/>
<polygon fill="black" stroke="black" points="673.14,-31.08 662.56,-30.55 670.51,-37.56 673.14,-31.08"/>
<text text-anchor="middle" x="798.5" y="-57.8" font-family="Times,serif" font-size="14.00">dep</text>
</g>
<!-- 7 -->
<g id="node8" class="node">
<title>7</title>
<ellipse fill="none" stroke="black" cx="717" cy="-18" rx="27" ry="18"/>
<text text-anchor="middle" x="717" y="-14.3" font-family="Times,serif" font-size="14.00">a</text>
</g>
<!-- 0&#45;&gt;7 -->
<g id="edge7" class="edge">
<title>0&#45;&gt;7</title>
<path fill="none" stroke="black" d="M1461.15,-103.58C1363.49,-102.15 1117.05,-95.94 913,-69 841.01,-59.5 821.86,-59 753,-36 751.08,-35.36 749.13,-34.64 747.18,-33.88"/>
<polygon fill="black" stroke="black" points="748.16,-30.49 737.59,-29.75 745.39,-36.92 748.16,-30.49"/>
<text text-anchor="middle" x="926.5" y="-57.8" font-family="Times,serif" font-size="14.00">dep</text>
</g>
<!-- 8 -->
<g id="node9" class="node">
<title>8</title>
<ellipse fill="none" stroke="black" cx="830" cy="-18" rx="67.69" ry="18"/>
<text text-anchor="middle" x="830" y="-14.3" font-family="Times,serif" font-size="14.00">necessidade</text>
</g>
<!-- 0&#45;&gt;8 -->
<g id="edge8" class="edge">
<title>0&#45;&gt;8</title>
<path fill="none" stroke="black" d="M1460.85,-103.89C1374.3,-103.04 1173.63,-97.8 1008,-69 963.77,-61.31 914.74,-47.1 879.36,-35.79"/>
<polygon fill="black" stroke="black" points="880.35,-32.43 869.75,-32.68 878.19,-39.09 880.35,-32.43"/>
<text text-anchor="middle" x="1021.5" y="-57.8" font-family="Times,serif" font-size="14.00">dep</text>
</g>
<!-- 9 -->
<g id="node10" class="node">
<title>9</title>
<ellipse fill="none" stroke="black" cx="943" cy="-18" rx="27" ry="18"/>
<text text-anchor="middle" x="943" y="-14.3" font-family="Times,serif" font-size="14.00">de</text>
</g>
<!-- 0&#45;&gt;9 -->
<g id="edge9" class="edge">
<title>0&#45;&gt;9</title>
<path fill="none" stroke="black" d="M1461.59,-102.1C1390.41,-98.48 1242.55,-89.07 1119,-69 1055.9,-58.75 1039.34,-57.1 979,-36 977.09,-35.33 975.14,-34.6 973.2,-33.81"/>
<polygon fill="black" stroke="black" points="974.19,-30.43 963.62,-29.65 971.4,-36.85 974.19,-30.43"/>
<text text-anchor="middle" x="1132.5" y="-57.8" font-family="Times,serif" font-size="14.00">dep</text>
</g>
<!-- 10 -->
<g id="node11" class="node">
<title>10</title>
<ellipse fill="none" stroke="black" cx="1040" cy="-18" rx="51.99" ry="18"/>
<text text-anchor="middle" x="1040" y="-14.3" font-family="Times,serif" font-size="14.00">proceder</text>
</g>
<!-- 0&#45;&gt;10 -->
<g id="edge10" class="edge">
<title>0&#45;&gt;10</title>
<path fill="none" stroke="black" d="M1461.88,-101.48C1403.48,-97.45 1294.85,-87.99 1204,-69 1162.8,-60.39 1117.09,-46.04 1084.41,-34.92"/>
<polygon fill="black" stroke="black" points="1085.31,-31.52 1074.71,-31.58 1083.03,-38.14 1085.31,-31.52"/>
<text text-anchor="middle" x="1217.5" y="-57.8" font-family="Times,serif" font-size="14.00">dep</text>
</g>
<!-- 11 -->
<g id="node12" class="node">
<title>11</title>
<ellipse fill="none" stroke="black" cx="1137" cy="-18" rx="27" ry="18"/>
<text text-anchor="middle" x="1137" y="-14.3" font-family="Times,serif" font-size="14.00">a</text>
</g>
<!-- 0&#45;&gt;11 -->
<g id="edge11" class="edge">
<title>0&#45;&gt;11</title>
<path fill="none" stroke="black" d="M1462.79,-99.92C1398.96,-92.63 1273.09,-74.4 1173,-36 1171.16,-35.29 1169.28,-34.54 1167.4,-33.74"/>
<polygon fill="black" stroke="black" points="1168.65,-30.47 1158.09,-29.6 1165.8,-36.86 1168.65,-30.47"/>
<text text-anchor="middle" x="1293.5" y="-57.8" font-family="Times,serif" font-size="14.00">dep</text>
</g>
<!-- 12 -->
<g id="node13" class="node">
<title>12</title>
<ellipse fill="none" stroke="black" cx="1213" cy="-18" rx="30.59" ry="18"/>
<text text-anchor="middle" x="1213" y="-14.3" font-family="Times,serif" font-size="14.00">uma</text>
</g>
<!-- 0&#45;&gt;12 -->
<g id="edge12" class="edge">
<title>0&#45;&gt;12</title>
<path fill="none" stroke="black" d="M1466.83,-95.95C1417.31,-84.76 1327.3,-62.84 1253,-36 1250.64,-35.15 1248.21,-34.23 1245.79,-33.28"/>
<polygon fill="black" stroke="black" points="1247.09,-30.03 1236.51,-29.5 1244.46,-36.52 1247.09,-30.03"/>
<text text-anchor="middle" x="1369.5" y="-57.8" font-family="Times,serif" font-size="14.00">dep</text>
</g>
<!-- 13 -->
<g id="node14" class="node">
<title>13</title>
<ellipse fill="none" stroke="black" cx="1306" cy="-18" rx="44.39" ry="18"/>
<text text-anchor="middle" x="1306" y="-14.3" font-family="Times,serif" font-size="14.00">revisão</text>
</g>
<!-- 0&#45;&gt;13 -->
<g id="edge13" class="edge">
<title>0&#45;&gt;13</title>
<path fill="none" stroke="black" d="M1475.2,-91.64C1440.8,-76.87 1383.07,-52.09 1344.76,-35.64"/>
<polygon fill="black" stroke="black" points="1346.04,-32.38 1335.47,-31.65 1343.28,-38.81 1346.04,-32.38"/>
<text text-anchor="middle" x="1430.5" y="-57.8" font-family="Times,serif" font-size="14.00">dep</text>
</g>
<!-- 14 -->
<g id="node15" class="node">
<title>14</title>
<ellipse fill="none" stroke="black" cx="1444" cy="-18" rx="75.29" ry="18"/>
<text text-anchor="middle" x="1444" y="-14.3" font-family="Times,serif" font-size="14.00">constitucional</text>
</g>
<!-- 0&#45;&gt;14 -->
<g id="edge14" class="edge">
<title>0&#45;&gt;14</title>
<path fill="none" stroke="black" d="M1492.43,-87.61C1483.74,-75.31 1471.69,-58.23 1461.78,-44.2"/>
<polygon fill="black" stroke="black" points="1464.57,-42.07 1455.94,-35.92 1458.85,-46.11 1464.57,-42.07"/>
<text text-anchor="middle" x="1491.5" y="-57.8" font-family="Times,serif" font-size="14.00">dep</text>
</g>
<!-- 15 -->
<g id="node16" class="node">
<title>15</title>
<ellipse fill="none" stroke="black" cx="1565" cy="-18" rx="27.9" ry="18"/>
<text text-anchor="middle" x="1565" y="-14.3" font-family="Times,serif" font-size="14.00">que</text>
</g>
<!-- 0&#45;&gt;15 -->
<g id="edge15" class="edge">
<title>0&#45;&gt;15</title>
<path fill="none" stroke="black" d="M1515.76,-87.61C1524.82,-74.99 1537.48,-57.34 1547.69,-43.11"/>
<polygon fill="black" stroke="black" points="1550.7,-44.93 1553.68,-34.76 1545.01,-40.85 1550.7,-44.93"/>
<text text-anchor="middle" x="1552.5" y="-57.8" font-family="Times,serif" font-size="14.00">dep</text>
</g>
<!-- 16 -->
<g id="node17" class="node">
<title>16</title>
<ellipse fill="none" stroke="black" cx="1684" cy="-18" rx="72.59" ry="18"/>
<text text-anchor="middle" x="1684" y="-14.3" font-family="Times,serif" font-size="14.00">compatibilize</text>
</g>
<!-- 0&#45;&gt;16 -->
<g id="edge16" class="edge">
<title>0&#45;&gt;16</title>
<path fill="none" stroke="black" d="M1531.33,-91.09C1560.91,-77.12 1608.41,-54.69 1642.57,-38.56"/>
<polygon fill="black" stroke="black" points="1644.28,-41.62 1651.83,-34.19 1641.29,-35.29 1644.28,-41.62"/>
<text text-anchor="middle" x="1618.5" y="-57.8" font-family="Times,serif" font-size="14.00">dep</text>
</g>
<!-- 17 -->
<g id="node18" class="node">
<title>17</title>
<ellipse fill="none" stroke="black" cx="1802" cy="-18" rx="27" ry="18"/>
<text text-anchor="middle" x="1802" y="-14.3" font-family="Times,serif" font-size="14.00">o</text>
</g>
<!-- 0&#45;&gt;17 -->
<g id="edge17" class="edge">
<title>0&#45;&gt;17</title>
<path fill="none" stroke="black" d="M1541.98,-96.48C1593.56,-85.75 1688.23,-64.17 1766,-36 1767.85,-35.33 1769.73,-34.6 1771.62,-33.83"/>
<polygon fill="black" stroke="black" points="1773.2,-36.96 1780.96,-29.74 1770.39,-30.54 1773.2,-36.96"/>
<text text-anchor="middle" x="1723.5" y="-57.8" font-family="Times,serif" font-size="14.00">dep</text>
</g>
<!-- 18 -->
<g id="node19" class="node">
<title>18</title>
<ellipse fill="none" stroke="black" cx="1881" cy="-18" rx="34.39" ry="18"/>
<text text-anchor="middle" x="1881" y="-14.3" font-family="Times,serif" font-size="14.00">texto</text>
</g>
<!-- 0&#45;&gt;18 -->
<g id="edge18" class="edge">
<title>0&#45;&gt;18</title>
<path fill="none" stroke="black" d="M1545.53,-100.17C1593.2,-95.25 1673.48,-85.33 1741,-69 1785.26,-58.3 1795.25,-51.71 1838,-36 1840.37,-35.13 1842.81,-34.21 1845.26,-33.28"/>
<polygon fill="black" stroke="black" points="1846.63,-36.5 1854.69,-29.63 1844.1,-29.97 1846.63,-36.5"/>
<text text-anchor="middle" x="1804.5" y="-57.8" font-family="Times,serif" font-size="14.00">dep</text>
</g>
<!-- 19 -->
<g id="node20" class="node">
<title>19</title>
<ellipse fill="none" stroke="black" cx="1960" cy="-18" rx="27" ry="18"/>
<text text-anchor="middle" x="1960" y="-14.3" font-family="Times,serif" font-size="14.00">de</text>
</g>
<!-- 0&#45;&gt;19 -->
<g id="edge19" class="edge">
<title>0&#45;&gt;19</title>
<path fill="none" stroke="black" d="M1546.36,-102.08C1607.72,-98.68 1724.65,-89.88 1822,-69 1868.58,-59.01 1879.7,-53.54 1924,-36 1925.83,-35.27 1927.7,-34.5 1929.57,-33.7"/>
<polygon fill="black" stroke="black" points="1931.18,-36.81 1938.87,-29.53 1928.32,-30.42 1931.18,-36.81"/>
<text text-anchor="middle" x="1891.5" y="-57.8" font-family="Times,serif" font-size="14.00">dep</text>
</g>
<!-- 20 -->
<g id="node21" class="node">
<title>20</title>
<ellipse fill="none" stroke="black" cx="2032" cy="-18" rx="27" ry="18"/>
<text text-anchor="middle" x="2032" y="-14.3" font-family="Times,serif" font-size="14.00">a</text>
</g>
<!-- 0&#45;&gt;20 -->
<g id="edge20" class="edge">
<title>0&#45;&gt;20</title>
<path fill="none" stroke="black" d="M1546.86,-104.15C1621.44,-103.57 1779.47,-98.56 1909,-69 1942.13,-61.44 1977.89,-46 2002.27,-34.27"/>
<polygon fill="black" stroke="black" points="2003.9,-37.37 2011.34,-29.82 2000.82,-31.08 2003.9,-37.37"/>
<text text-anchor="middle" x="1968.5" y="-57.8" font-family="Times,serif" font-size="14.00">dep</text>
</g>
<!-- 21 -->
<g id="node22" class="node">
<title>21</title>
<ellipse fill="none" stroke="black" cx="2146" cy="-18" rx="68.79" ry="18"/>
<text text-anchor="middle" x="2146" y="-14.3" font-family="Times,serif" font-size="14.00">Constituição</text>
</g>
<!-- 0&#45;&gt;21 -->
<g id="edge21" class="edge">
<title>0&#45;&gt;21</title>
<path fill="none" stroke="black" d="M1546.98,-104.18C1631.74,-103.81 1826.09,-99.37 1986,-69 2024.82,-61.63 2067.48,-48 2098.98,-36.84"/>
<polygon fill="black" stroke="black" points="2100.57,-39.99 2108.8,-33.31 2098.2,-33.4 2100.57,-39.99"/>
<text text-anchor="middle" x="2058.5" y="-57.8" font-family="Times,serif" font-size="14.00">dep</text>
</g>
<!-- 22 -->
<g id="node23" class="node">
<title>22</title>
<ellipse fill="none" stroke="black" cx="2263" cy="-18" rx="29.8" ry="18"/>
<text text-anchor="middle" x="2263" y="-14.3" font-family="Times,serif" font-size="14.00">com</text>
</g>
<!-- 0&#45;&gt;22 -->
<g id="edge22" class="edge">
<title>0&#45;&gt;22</title>
<path fill="none" stroke="black" d="M1546.92,-103.69C1642.46,-102.49 1879.71,-96.71 2076,-69 2142.73,-59.58 2159.92,-56.89 2224,-36 2226.25,-35.27 2228.55,-34.45 2230.85,-33.58"/>
<polygon fill="black" stroke="black" points="2232.22,-36.8 2240.18,-29.81 2229.6,-30.31 2232.22,-36.8"/>
<text text-anchor="middle" x="2174.5" y="-57.8" font-family="Times,serif" font-size="14.00">dep</text>
</g>
<!-- 23 -->
<g id="node24" class="node">
<title>23</title>
<ellipse fill="none" stroke="black" cx="2338" cy="-18" rx="27" ry="18"/>
<text text-anchor="middle" x="2338" y="-14.3" font-family="Times,serif" font-size="14.00">o</text>
</g>
<!-- 0&#45;&gt;23 -->
<g id="edge23" class="edge">
<title>0&#45;&gt;23</title>
<path fill="none" stroke="black" d="M1546.91,-103.17C1677.23,-100.42 2067.07,-90.59 2192,-69 2242.29,-60.31 2254.34,-54.28 2302,-36 2303.83,-35.29 2305.71,-34.54 2307.59,-33.74"/>
<polygon fill="black" stroke="black" points="2309.19,-36.86 2316.9,-29.6 2306.34,-30.47 2309.19,-36.86"/>
<text text-anchor="middle" x="2267.5" y="-57.8" font-family="Times,serif" font-size="14.00">dep</text>
</g>
<!-- 24 -->
<g id="node25" class="node">
<title>24</title>
<ellipse fill="none" stroke="black" cx="2417" cy="-18" rx="34.39" ry="18"/>
<text text-anchor="middle" x="2417" y="-14.3" font-family="Times,serif" font-size="14.00">texto</text>
</g>
<!-- 0&#45;&gt;24 -->
<g id="edge24" class="edge">
<title>0&#45;&gt;24</title>
<path fill="none" stroke="black" d="M1547.17,-103.82C1689.38,-102.96 2142.16,-97.94 2285,-69 2319.71,-61.97 2357.3,-46.94 2383.46,-35.18"/>
<polygon fill="black" stroke="black" points="2385.26,-38.21 2392.89,-30.86 2382.34,-31.84 2385.26,-38.21"/>
<text text-anchor="middle" x="2351.5" y="-57.8" font-family="Times,serif" font-size="14.00">dep</text>
</g>
<!-- 25 -->
<g id="node26" class="node">
<title>25</title>
<ellipse fill="none" stroke="black" cx="2496" cy="-18" rx="27" ry="18"/>
<text text-anchor="middle" x="2496" y="-14.3" font-family="Times,serif" font-size="14.00">de</text>
</g>
<!-- 0&#45;&gt;25 -->
<g id="edge25" class="edge">
<title>0&#45;&gt;25</title>
<path fill="none" stroke="black" d="M1546.96,-104C1698.72,-103.73 2208.99,-100.46 2369,-69 2403.63,-62.19 2440.96,-46.37 2466.12,-34.34"/>
<polygon fill="black" stroke="black" points="2467.69,-37.47 2475.14,-29.94 2464.62,-31.18 2467.69,-37.47"/>
<text text-anchor="middle" x="2433.5" y="-57.8" font-family="Times,serif" font-size="14.00">dep</text>
</g>
<!-- 26 -->
<g id="node27" class="node">
<title>26</title>
<ellipse fill="none" stroke="black" cx="2568" cy="-18" rx="27" ry="18"/>
<text text-anchor="middle" x="2568" y="-14.3" font-family="Times,serif" font-size="14.00">o</text>
</g>
<!-- 0&#45;&gt;26 -->
<g id="edge26" class="edge">
<title>0&#45;&gt;26</title>
<path fill="none" stroke="black" d="M1547.14,-104.4C1708.34,-105.57 2275.07,-106.85 2451,-69 2482.5,-62.22 2516.1,-46.93 2539.17,-35.03"/>
<polygon fill="black" stroke="black" points="2540.86,-38.09 2548.07,-30.33 2537.59,-31.9 2540.86,-38.09"/>
<text text-anchor="middle" x="2511.5" y="-57.8" font-family="Times,serif" font-size="14.00">dep</text>
</g>
<!-- 27 -->
<g id="node28" class="node">
<title>27</title>
<ellipse fill="none" stroke="black" cx="2660" cy="-18" rx="46.59" ry="18"/>
<text text-anchor="middle" x="2660" y="-14.3" font-family="Times,serif" font-size="14.00">Tratado</text>
</g>
<!-- 0&#45;&gt;27 -->
<g id="edge27" class="edge">
<title>0&#45;&gt;27</title>
<path fill="none" stroke="black" d="M1547.14,-104.42C1716.6,-105.75 2336.8,-107.84 2529,-69 2561.9,-62.35 2597.36,-48.36 2623.08,-36.86"/>
<polygon fill="black" stroke="black" points="2624.79,-39.93 2632.43,-32.6 2621.88,-33.56 2624.79,-39.93"/>
<text text-anchor="middle" x="2594.5" y="-57.8" font-family="Times,serif" font-size="14.00">dep</text>
</g>
<!-- 28 -->
<g id="node29" class="node">
<title>28</title>
<ellipse fill="none" stroke="black" cx="2752" cy="-18" rx="27" ry="18"/>
<text text-anchor="middle" x="2752" y="-14.3" font-family="Times,serif" font-size="14.00">.</text>
</g>
<!-- 0&#45;&gt;28 -->
<g id="edge28" class="edge">
<title>0&#45;&gt;28</title>
<path fill="none" stroke="black" d="M1546.89,-104.22C1724.36,-104.89 2401.66,-104.98 2612,-69 2659.79,-60.82 2670.86,-53.73 2716,-36 2717.83,-35.28 2719.7,-34.51 2721.58,-33.71"/>
<polygon fill="black" stroke="black" points="2723.18,-36.83 2730.88,-29.55 2720.32,-30.44 2723.18,-36.83"/>
<text text-anchor="middle" x="2684.5" y="-57.8" font-family="Times,serif" font-size="14.00">dep</text>
</g>
</g>
</svg>
