<?xml version="1.0" encoding="UTF-8" standalone="no"?>
<!DOCTYPE svg PUBLIC "-//W3C//DTD SVG 1.1//EN"
 "http://www.w3.org/Graphics/SVG/1.1/DTD/svg11.dtd">
<!-- Generated by graphviz version 2.42.4 (0)
 -->
<!-- Pages: 1 -->
<svg width="2174pt" height="131pt"
 viewBox="0.00 0.00 2174.00 131.00" xmlns="http://www.w3.org/2000/svg" xmlns:xlink="http://www.w3.org/1999/xlink">
<g id="graph0" class="graph" transform="scale(1 1) rotate(0) translate(4 127)">
<polygon fill="white" stroke="transparent" points="-4,4 -4,-127 2170,-127 2170,4 -4,4"/>
<!-- 0 -->
<g id="node1" class="node">
<title>0</title>
<ellipse fill="none" stroke="black" cx="1129" cy="-105" rx="27" ry="18"/>
<text text-anchor="middle" x="1129" y="-101.3" font-family="Times,serif" font-size="14.00">Em</text>
</g>
<!-- 1 -->
<g id="node2" class="node">
<title>1</title>
<ellipse fill="none" stroke="black" cx="27" cy="-18" rx="27" ry="18"/>
<text text-anchor="middle" x="27" y="-14.3" font-family="Times,serif" font-size="14.00">o</text>
</g>
<!-- 0&#45;&gt;1 -->
<g id="edge1" class="edge">
<title>0&#45;&gt;1</title>
<path fill="none" stroke="black" d="M1101.63,-103.81C966.47,-102.77 369.46,-96.65 186,-69 130.03,-60.56 116.14,-55.5 63,-36 61.15,-35.32 59.27,-34.58 57.38,-33.81"/>
<polygon fill="black" stroke="black" points="58.61,-30.53 48.05,-29.71 55.8,-36.94 58.61,-30.53"/>
<text text-anchor="middle" x="199.5" y="-57.8" font-family="Times,serif" font-size="14.00">dep</text>
</g>
<!-- 2 -->
<g id="node3" class="node">
<title>2</title>
<ellipse fill="none" stroke="black" cx="124" cy="-18" rx="51.99" ry="18"/>
<text text-anchor="middle" x="124" y="-14.3" font-family="Times,serif" font-size="14.00">princípio</text>
</g>
<!-- 0&#45;&gt;2 -->
<g id="edge2" class="edge">
<title>0&#45;&gt;2</title>
<path fill="none" stroke="black" d="M1101.95,-103.95C974.72,-103.54 435.22,-99.98 270,-69 233.21,-62.1 193.09,-47.84 164.24,-36.31"/>
<polygon fill="black" stroke="black" points="165.49,-33.04 154.9,-32.52 162.85,-39.52 165.49,-33.04"/>
<text text-anchor="middle" x="283.5" y="-57.8" font-family="Times,serif" font-size="14.00">dep</text>
</g>
<!-- 3 -->
<g id="node4" class="node">
<title>3</title>
<ellipse fill="none" stroke="black" cx="221" cy="-18" rx="27" ry="18"/>
<text text-anchor="middle" x="221" y="-14.3" font-family="Times,serif" font-size="14.00">de</text>
</g>
<!-- 0&#45;&gt;3 -->
<g id="edge3" class="edge">
<title>0&#45;&gt;3</title>
<path fill="none" stroke="black" d="M1101.78,-103.83C981.86,-102.9 500.19,-97.45 352,-69 316.17,-62.12 277.4,-46.16 251.41,-34.11"/>
<polygon fill="black" stroke="black" points="252.64,-30.82 242.11,-29.71 249.65,-37.15 252.64,-30.82"/>
<text text-anchor="middle" x="365.5" y="-57.8" font-family="Times,serif" font-size="14.00">dep</text>
</g>
<!-- 4 -->
<g id="node5" class="node">
<title>4</title>
<ellipse fill="none" stroke="black" cx="293" cy="-18" rx="27" ry="18"/>
<text text-anchor="middle" x="293" y="-14.3" font-family="Times,serif" font-size="14.00">a</text>
</g>
<!-- 0&#45;&gt;4 -->
<g id="edge4" class="edge">
<title>0&#45;&gt;4</title>
<path fill="none" stroke="black" d="M1101.82,-103.33C992.29,-100.52 582.94,-88.86 455,-69 397.8,-60.12 383.41,-55.78 329,-36 327.15,-35.33 325.26,-34.59 323.37,-33.82"/>
<polygon fill="black" stroke="black" points="324.61,-30.54 314.04,-29.73 321.8,-36.95 324.61,-30.54"/>
<text text-anchor="middle" x="468.5" y="-57.8" font-family="Times,serif" font-size="14.00">dep</text>
</g>
<!-- 5 -->
<g id="node6" class="node">
<title>5</title>
<ellipse fill="none" stroke="black" cx="375" cy="-18" rx="37.09" ry="18"/>
<text text-anchor="middle" x="375" y="-14.3" font-family="Times,serif" font-size="14.00">nossa</text>
</g>
<!-- 0&#45;&gt;5 -->
<g id="edge5" class="edge">
<title>0&#45;&gt;5</title>
<path fill="none" stroke="black" d="M1101.94,-103.85C1020.57,-103.06 771.19,-98.24 567,-69 501.15,-59.57 484.78,-54.9 421,-36 418.24,-35.18 415.42,-34.29 412.58,-33.35"/>
<polygon fill="black" stroke="black" points="413.62,-30 403.02,-30.02 411.32,-36.61 413.62,-30"/>
<text text-anchor="middle" x="580.5" y="-57.8" font-family="Times,serif" font-size="14.00">dep</text>
</g>
<!-- 6 -->
<g id="node7" class="node">
<title>6</title>
<ellipse fill="none" stroke="black" cx="474" cy="-18" rx="44.39" ry="18"/>
<text text-anchor="middle" x="474" y="-14.3" font-family="Times,serif" font-size="14.00">relação</text>
</g>
<!-- 0&#45;&gt;6 -->
<g id="edge6" class="edge">
<title>0&#45;&gt;6</title>
<path fill="none" stroke="black" d="M1101.98,-103.18C1031.83,-100.78 838.33,-92.38 679,-69 610.6,-58.96 593.77,-53.91 527,-36 523.63,-35.1 520.16,-34.11 516.68,-33.08"/>
<polygon fill="black" stroke="black" points="517.52,-29.68 506.93,-30.11 515.48,-36.37 517.52,-29.68"/>
<text text-anchor="middle" x="692.5" y="-57.8" font-family="Times,serif" font-size="14.00">dep</text>
</g>
<!-- 7 -->
<g id="node8" class="node">
<title>7</title>
<ellipse fill="none" stroke="black" cx="598" cy="-18" rx="61.99" ry="18"/>
<text text-anchor="middle" x="598" y="-14.3" font-family="Times,serif" font-size="14.00">electrónica</text>
</g>
<!-- 0&#45;&gt;7 -->
<g id="edge7" class="edge">
<title>0&#45;&gt;7</title>
<path fill="none" stroke="black" d="M1101.89,-103.03C1041.93,-100.51 893.73,-92.26 772,-69 728.73,-60.73 680.68,-46.53 646.06,-35.37"/>
<polygon fill="black" stroke="black" points="646.81,-31.93 636.21,-32.16 644.64,-38.59 646.81,-31.93"/>
<text text-anchor="middle" x="785.5" y="-57.8" font-family="Times,serif" font-size="14.00">dep</text>
</g>
<!-- 8 -->
<g id="node9" class="node">
<title>8</title>
<ellipse fill="none" stroke="black" cx="705" cy="-18" rx="27" ry="18"/>
<text text-anchor="middle" x="705" y="-14.3" font-family="Times,serif" font-size="14.00">,</text>
</g>
<!-- 0&#45;&gt;8 -->
<g id="edge8" class="edge">
<title>0&#45;&gt;8</title>
<path fill="none" stroke="black" d="M1101.79,-102.59C1037.25,-98.53 870.59,-83.85 741,-36 739.15,-35.32 737.27,-34.58 735.38,-33.8"/>
<polygon fill="black" stroke="black" points="736.62,-30.52 726.06,-29.7 733.8,-36.93 736.62,-30.52"/>
<text text-anchor="middle" x="869.5" y="-57.8" font-family="Times,serif" font-size="14.00">dep</text>
</g>
<!-- 9 -->
<g id="node10" class="node">
<title>9</title>
<ellipse fill="none" stroke="black" cx="803" cy="-18" rx="52.79" ry="18"/>
<text text-anchor="middle" x="803" y="-14.3" font-family="Times,serif" font-size="14.00">acordava</text>
</g>
<!-- 0&#45;&gt;9 -->
<g id="edge9" class="edge">
<title>0&#45;&gt;9</title>
<path fill="none" stroke="black" d="M1102.58,-100.69C1065.26,-95.68 995.15,-85.01 937,-69 905.16,-60.23 870.23,-47.08 844.02,-36.46"/>
<polygon fill="black" stroke="black" points="845.01,-33.08 834.43,-32.53 842.35,-39.56 845.01,-33.08"/>
<text text-anchor="middle" x="950.5" y="-57.8" font-family="Times,serif" font-size="14.00">dep</text>
</g>
<!-- 10 -->
<g id="node11" class="node">
<title>10</title>
<ellipse fill="none" stroke="black" cx="901" cy="-18" rx="27" ry="18"/>
<text text-anchor="middle" x="901" y="-14.3" font-family="Times,serif" font-size="14.00">a</text>
</g>
<!-- 0&#45;&gt;10 -->
<g id="edge10" class="edge">
<title>0&#45;&gt;10</title>
<path fill="none" stroke="black" d="M1103.51,-98.59C1077.34,-92.68 1035.64,-82.25 1001,-69 976.23,-59.53 949.41,-45.92 929.79,-35.29"/>
<polygon fill="black" stroke="black" points="931.23,-32.09 920.78,-30.35 927.86,-38.23 931.23,-32.09"/>
<text text-anchor="middle" x="1014.5" y="-57.8" font-family="Times,serif" font-size="14.00">dep</text>
</g>
<!-- 11 -->
<g id="node12" class="node">
<title>11</title>
<ellipse fill="none" stroke="black" cx="979" cy="-18" rx="33.29" ry="18"/>
<text text-anchor="middle" x="979" y="-14.3" font-family="Times,serif" font-size="14.00">meio</text>
</g>
<!-- 0&#45;&gt;11 -->
<g id="edge11" class="edge">
<title>0&#45;&gt;11</title>
<path fill="none" stroke="black" d="M1106.9,-94.52C1091.97,-87.89 1071.97,-78.54 1055,-69 1038.47,-59.71 1020.72,-48.14 1006.54,-38.46"/>
<polygon fill="black" stroke="black" points="1008.43,-35.52 998.21,-32.72 1004.46,-41.28 1008.43,-35.52"/>
<text text-anchor="middle" x="1068.5" y="-57.8" font-family="Times,serif" font-size="14.00">dep</text>
</g>
<!-- 12 -->
<g id="node13" class="node">
<title>12</title>
<ellipse fill="none" stroke="black" cx="1057" cy="-18" rx="27" ry="18"/>
<text text-anchor="middle" x="1057" y="-14.3" font-family="Times,serif" font-size="14.00">de</text>
</g>
<!-- 0&#45;&gt;12 -->
<g id="edge12" class="edge">
<title>0&#45;&gt;12</title>
<path fill="none" stroke="black" d="M1115.6,-89.12C1110.09,-82.94 1103.69,-75.67 1098,-69 1090.68,-60.41 1082.79,-50.86 1075.9,-42.43"/>
<polygon fill="black" stroke="black" points="1078.44,-39.99 1069.41,-34.44 1073,-44.41 1078.44,-39.99"/>
<text text-anchor="middle" x="1111.5" y="-57.8" font-family="Times,serif" font-size="14.00">dep</text>
</g>
<!-- 13 -->
<g id="node14" class="node">
<title>13</title>
<ellipse fill="none" stroke="black" cx="1129" cy="-18" rx="27" ry="18"/>
<text text-anchor="middle" x="1129" y="-14.3" font-family="Times,serif" font-size="14.00">a</text>
</g>
<!-- 0&#45;&gt;13 -->
<g id="edge13" class="edge">
<title>0&#45;&gt;13</title>
<path fill="none" stroke="black" d="M1129,-86.8C1129,-75.16 1129,-59.55 1129,-46.24"/>
<polygon fill="black" stroke="black" points="1132.5,-46.18 1129,-36.18 1125.5,-46.18 1132.5,-46.18"/>
<text text-anchor="middle" x="1142.5" y="-57.8" font-family="Times,serif" font-size="14.00">dep</text>
</g>
<!-- 14 -->
<g id="node15" class="node">
<title>14</title>
<ellipse fill="none" stroke="black" cx="1208" cy="-18" rx="34.39" ry="18"/>
<text text-anchor="middle" x="1208" y="-14.3" font-family="Times,serif" font-size="14.00">noite</text>
</g>
<!-- 0&#45;&gt;14 -->
<g id="edge14" class="edge">
<title>0&#45;&gt;14</title>
<path fill="none" stroke="black" d="M1142.76,-89.19C1154.88,-76.15 1172.73,-56.95 1186.7,-41.92"/>
<polygon fill="black" stroke="black" points="1189.35,-44.21 1193.6,-34.5 1184.22,-39.44 1189.35,-44.21"/>
<text text-anchor="middle" x="1187.5" y="-57.8" font-family="Times,serif" font-size="14.00">dep</text>
</g>
<!-- 15 -->
<g id="node16" class="node">
<title>15</title>
<ellipse fill="none" stroke="black" cx="1287" cy="-18" rx="27" ry="18"/>
<text text-anchor="middle" x="1287" y="-14.3" font-family="Times,serif" font-size="14.00">e</text>
</g>
<!-- 0&#45;&gt;15 -->
<g id="edge15" class="edge">
<title>0&#45;&gt;15</title>
<path fill="none" stroke="black" d="M1151.28,-94.56C1166.61,-87.86 1187.31,-78.43 1205,-69 1223.7,-59.04 1244.04,-46.65 1259.78,-36.69"/>
<polygon fill="black" stroke="black" points="1261.92,-39.48 1268.47,-31.15 1258.16,-33.58 1261.92,-39.48"/>
<text text-anchor="middle" x="1244.5" y="-57.8" font-family="Times,serif" font-size="14.00">dep</text>
</g>
<!-- 16 -->
<g id="node17" class="node">
<title>16</title>
<ellipse fill="none" stroke="black" cx="1370" cy="-18" rx="37.89" ry="18"/>
<text text-anchor="middle" x="1370" y="-14.3" font-family="Times,serif" font-size="14.00">ficava</text>
</g>
<!-- 0&#45;&gt;16 -->
<g id="edge16" class="edge">
<title>0&#45;&gt;16</title>
<path fill="none" stroke="black" d="M1154.41,-98.72C1181.47,-92.76 1225.38,-82.18 1262,-69 1287.63,-59.78 1315.5,-46.8 1336.5,-36.37"/>
<polygon fill="black" stroke="black" points="1338.27,-39.4 1345.64,-31.79 1335.13,-33.14 1338.27,-39.4"/>
<text text-anchor="middle" x="1312.5" y="-57.8" font-family="Times,serif" font-size="14.00">dep</text>
</g>
<!-- 17 -->
<g id="node18" class="node">
<title>17</title>
<ellipse fill="none" stroke="black" cx="1471" cy="-18" rx="45.49" ry="18"/>
<text text-anchor="middle" x="1471" y="-14.3" font-family="Times,serif" font-size="14.00">deitado</text>
</g>
<!-- 0&#45;&gt;17 -->
<g id="edge17" class="edge">
<title>0&#45;&gt;17</title>
<path fill="none" stroke="black" d="M1155.32,-100.86C1194.01,-95.91 1268.33,-85.18 1330,-69 1364.83,-59.86 1403.3,-45.95 1431.24,-35.13"/>
<polygon fill="black" stroke="black" points="1432.62,-38.34 1440.66,-31.44 1430.07,-31.82 1432.62,-38.34"/>
<text text-anchor="middle" x="1391.5" y="-57.8" font-family="Times,serif" font-size="14.00">dep</text>
</g>
<!-- 18 -->
<g id="node19" class="node">
<title>18</title>
<ellipse fill="none" stroke="black" cx="1561" cy="-18" rx="27" ry="18"/>
<text text-anchor="middle" x="1561" y="-14.3" font-family="Times,serif" font-size="14.00">a</text>
</g>
<!-- 0&#45;&gt;18 -->
<g id="edge18" class="edge">
<title>0&#45;&gt;18</title>
<path fill="none" stroke="black" d="M1155.86,-102.02C1205.99,-98.01 1317.07,-87.71 1409,-69 1461.52,-58.31 1474.82,-54.84 1525,-36 1526.84,-35.31 1528.72,-34.56 1530.61,-33.77"/>
<polygon fill="black" stroke="black" points="1532.2,-36.9 1539.93,-29.66 1529.37,-30.5 1532.2,-36.9"/>
<text text-anchor="middle" x="1485.5" y="-57.8" font-family="Times,serif" font-size="14.00">dep</text>
</g>
<!-- 19 -->
<g id="node20" class="node">
<title>19</title>
<ellipse fill="none" stroke="black" cx="1648" cy="-18" rx="42.49" ry="18"/>
<text text-anchor="middle" x="1648" y="-14.3" font-family="Times,serif" font-size="14.00">pensar</text>
</g>
<!-- 0&#45;&gt;19 -->
<g id="edge19" class="edge">
<title>0&#45;&gt;19</title>
<path fill="none" stroke="black" d="M1156.09,-103.67C1218.17,-102.44 1375.19,-96.6 1503,-69 1540.18,-60.97 1581.02,-46.33 1609.85,-34.96"/>
<polygon fill="black" stroke="black" points="1611.16,-38.21 1619.15,-31.25 1608.56,-31.71 1611.16,-38.21"/>
<text text-anchor="middle" x="1569.5" y="-57.8" font-family="Times,serif" font-size="14.00">dep</text>
</g>
<!-- 20 -->
<g id="node21" class="node">
<title>20</title>
<ellipse fill="none" stroke="black" cx="1735" cy="-18" rx="27" ry="18"/>
<text text-anchor="middle" x="1735" y="-14.3" font-family="Times,serif" font-size="14.00">se</text>
</g>
<!-- 0&#45;&gt;20 -->
<g id="edge20" class="edge">
<title>0&#45;&gt;20</title>
<path fill="none" stroke="black" d="M1156.1,-103.91C1227.32,-103.24 1425.42,-98.64 1587,-69 1638.04,-59.64 1650.5,-54.47 1699,-36 1700.84,-35.3 1702.72,-34.54 1704.6,-33.75"/>
<polygon fill="black" stroke="black" points="1706.19,-36.88 1713.92,-29.62 1703.36,-30.48 1706.19,-36.88"/>
<text text-anchor="middle" x="1663.5" y="-57.8" font-family="Times,serif" font-size="14.00">dep</text>
</g>
<!-- 21 -->
<g id="node22" class="node">
<title>21</title>
<ellipse fill="none" stroke="black" cx="1812" cy="-18" rx="32.49" ry="18"/>
<text text-anchor="middle" x="1812" y="-14.3" font-family="Times,serif" font-size="14.00">teria</text>
</g>
<!-- 0&#45;&gt;21 -->
<g id="edge21" class="edge">
<title>0&#45;&gt;21</title>
<path fill="none" stroke="black" d="M1156.1,-103.31C1252.56,-100.71 1578.93,-90.48 1681,-69 1715.64,-61.71 1753.2,-46.57 1779.18,-34.85"/>
<polygon fill="black" stroke="black" points="1780.92,-37.9 1788.54,-30.55 1777.99,-31.54 1780.92,-37.9"/>
<text text-anchor="middle" x="1743.5" y="-57.8" font-family="Times,serif" font-size="14.00">dep</text>
</g>
<!-- 22 -->
<g id="node23" class="node">
<title>22</title>
<ellipse fill="none" stroke="black" cx="1906" cy="-18" rx="43.59" ry="18"/>
<text text-anchor="middle" x="1906" y="-14.3" font-family="Times,serif" font-size="14.00">correio</text>
</g>
<!-- 0&#45;&gt;22 -->
<g id="edge22" class="edge">
<title>0&#45;&gt;22</title>
<path fill="none" stroke="black" d="M1155.94,-103.5C1260.89,-101.39 1642.38,-92.27 1761,-69 1798.33,-61.68 1839.15,-46.96 1867.94,-35.38"/>
<polygon fill="black" stroke="black" points="1869.28,-38.61 1877.22,-31.59 1866.64,-32.13 1869.28,-38.61"/>
<text text-anchor="middle" x="1827.5" y="-57.8" font-family="Times,serif" font-size="14.00">dep</text>
</g>
<!-- 23 -->
<g id="node24" class="node">
<title>23</title>
<ellipse fill="none" stroke="black" cx="1995" cy="-18" rx="27" ry="18"/>
<text text-anchor="middle" x="1995" y="-14.3" font-family="Times,serif" font-size="14.00">de</text>
</g>
<!-- 0&#45;&gt;23 -->
<g id="edge23" class="edge">
<title>0&#45;&gt;23</title>
<path fill="none" stroke="black" d="M1155.94,-103.52C1269.38,-101.38 1708.59,-91.76 1845,-69 1897.03,-60.32 1909.66,-54.65 1959,-36 1960.84,-35.3 1962.72,-34.55 1964.6,-33.76"/>
<polygon fill="black" stroke="black" points="1966.19,-36.89 1973.92,-29.64 1963.36,-30.49 1966.19,-36.89"/>
<text text-anchor="middle" x="1922.5" y="-57.8" font-family="Times,serif" font-size="14.00">dep</text>
</g>
<!-- 24 -->
<g id="node25" class="node">
<title>24</title>
<ellipse fill="none" stroke="black" cx="2067" cy="-18" rx="27" ry="18"/>
<text text-anchor="middle" x="2067" y="-14.3" font-family="Times,serif" font-size="14.00">Bill</text>
</g>
<!-- 0&#45;&gt;24 -->
<g id="edge24" class="edge">
<title>0&#45;&gt;24</title>
<path fill="none" stroke="black" d="M1156.18,-103.93C1279.24,-103.47 1784.99,-99.7 1940,-69 1974.63,-62.14 2011.96,-46.33 2037.12,-34.32"/>
<polygon fill="black" stroke="black" points="2038.68,-37.45 2046.14,-29.92 2035.62,-31.16 2038.68,-37.45"/>
<text text-anchor="middle" x="2004.5" y="-57.8" font-family="Times,serif" font-size="14.00">dep</text>
</g>
<!-- 25 -->
<g id="node26" class="node">
<title>25</title>
<ellipse fill="none" stroke="black" cx="2139" cy="-18" rx="27" ry="18"/>
<text text-anchor="middle" x="2139" y="-14.3" font-family="Times,serif" font-size="14.00">.</text>
</g>
<!-- 0&#45;&gt;25 -->
<g id="edge25" class="edge">
<title>0&#45;&gt;25</title>
<path fill="none" stroke="black" d="M1156.29,-104.2C1287.12,-104.97 1850.83,-106.03 2022,-69 2053.5,-62.19 2087.1,-46.9 2110.17,-35.01"/>
<polygon fill="black" stroke="black" points="2111.86,-38.08 2119.07,-30.32 2108.6,-31.88 2111.86,-38.08"/>
<text text-anchor="middle" x="2082.5" y="-57.8" font-family="Times,serif" font-size="14.00">dep</text>
</g>
</g>
</svg>
