<?xml version="1.0" encoding="UTF-8" standalone="no"?>
<!DOCTYPE svg PUBLIC "-//W3C//DTD SVG 1.1//EN"
 "http://www.w3.org/Graphics/SVG/1.1/DTD/svg11.dtd">
<!-- Generated by graphviz version 2.42.4 (0)
 -->
<!-- Pages: 1 -->
<svg width="4400pt" height="131pt"
 viewBox="0.00 0.00 4399.90 131.00" xmlns="http://www.w3.org/2000/svg" xmlns:xlink="http://www.w3.org/1999/xlink">
<g id="graph0" class="graph" transform="scale(1 1) rotate(0) translate(4 127)">
<polygon fill="white" stroke="transparent" points="-4,4 -4,-127 4395.9,-127 4395.9,4 -4,4"/>
<!-- 0 -->
<g id="node1" class="node">
<title>0</title>
<ellipse fill="none" stroke="black" cx="2227.9" cy="-105" rx="27" ry="18"/>
<text text-anchor="middle" x="2227.9" y="-101.3" font-family="Times,serif" font-size="14.00">O</text>
</g>
<!-- 1 -->
<g id="node2" class="node">
<title>1</title>
<ellipse fill="none" stroke="black" cx="55.9" cy="-18" rx="55.79" ry="18"/>
<text text-anchor="middle" x="55.9" y="-14.3" font-family="Times,serif" font-size="14.00">programa</text>
</g>
<!-- 0&#45;&gt;1 -->
<g id="edge1" class="edge">
<title>0&#45;&gt;1</title>
<path fill="none" stroke="black" d="M2200.69,-104.01C1975.04,-104.02 416.85,-102.87 211.9,-69 172.4,-62.47 129.17,-48.01 98.26,-36.31"/>
<polygon fill="black" stroke="black" points="99.26,-32.94 88.67,-32.62 96.75,-39.47 99.26,-32.94"/>
<text text-anchor="middle" x="225.4" y="-57.8" font-family="Times,serif" font-size="14.00">dep</text>
</g>
<!-- 2 -->
<g id="node3" class="node">
<title>2</title>
<ellipse fill="none" stroke="black" cx="156.9" cy="-18" rx="27" ry="18"/>
<text text-anchor="middle" x="156.9" y="-14.3" font-family="Times,serif" font-size="14.00">de</text>
</g>
<!-- 0&#45;&gt;2 -->
<g id="edge2" class="edge">
<title>0&#45;&gt;2</title>
<path fill="none" stroke="black" d="M2200.65,-103.93C1981.18,-103.27 505,-97.81 309.9,-69 256.45,-61.11 243.5,-54.93 192.9,-36 191.05,-35.31 189.17,-34.56 187.28,-33.78"/>
<polygon fill="black" stroke="black" points="188.53,-30.5 177.96,-29.66 185.7,-36.9 188.53,-30.5"/>
<text text-anchor="middle" x="323.4" y="-57.8" font-family="Times,serif" font-size="14.00">dep</text>
</g>
<!-- 3 -->
<g id="node4" class="node">
<title>3</title>
<ellipse fill="none" stroke="black" cx="251.9" cy="-18" rx="50.09" ry="18"/>
<text text-anchor="middle" x="251.9" y="-14.3" font-family="Times,serif" font-size="14.00">trabalho</text>
</g>
<!-- 0&#45;&gt;3 -->
<g id="edge3" class="edge">
<title>0&#45;&gt;3</title>
<path fill="none" stroke="black" d="M2200.86,-103.99C1987.77,-103.87 581.99,-101.84 396.9,-69 360.03,-62.46 319.92,-48.02 291.25,-36.33"/>
<polygon fill="black" stroke="black" points="292.56,-33.09 281.99,-32.49 289.88,-39.55 292.56,-33.09"/>
<text text-anchor="middle" x="410.4" y="-57.8" font-family="Times,serif" font-size="14.00">dep</text>
</g>
<!-- 4 -->
<g id="node5" class="node">
<title>4</title>
<ellipse fill="none" stroke="black" cx="346.9" cy="-18" rx="27" ry="18"/>
<text text-anchor="middle" x="346.9" y="-14.3" font-family="Times,serif" font-size="14.00">e</text>
</g>
<!-- 0&#45;&gt;4 -->
<g id="edge4" class="edge">
<title>0&#45;&gt;4</title>
<path fill="none" stroke="black" d="M2200.78,-103.96C1993,-103.59 656.28,-100 479.9,-69 443.11,-62.54 403.31,-46.23 376.94,-33.98"/>
<polygon fill="black" stroke="black" points="378.39,-30.8 367.86,-29.68 375.39,-37.12 378.39,-30.8"/>
<text text-anchor="middle" x="493.4" y="-57.8" font-family="Times,serif" font-size="14.00">dep</text>
</g>
<!-- 5 -->
<g id="node6" class="node">
<title>5</title>
<ellipse fill="none" stroke="black" cx="418.9" cy="-18" rx="27" ry="18"/>
<text text-anchor="middle" x="418.9" y="-14.3" font-family="Times,serif" font-size="14.00">o</text>
</g>
<!-- 0&#45;&gt;5 -->
<g id="edge5" class="edge">
<title>0&#45;&gt;5</title>
<path fill="none" stroke="black" d="M2200.66,-103.77C2000.29,-102.04 757.59,-90.47 591.9,-69 529.78,-60.95 513.97,-56.81 454.9,-36 452.99,-35.33 451.05,-34.59 449.1,-33.8"/>
<polygon fill="black" stroke="black" points="450.1,-30.42 439.53,-29.63 447.3,-36.83 450.1,-30.42"/>
<text text-anchor="middle" x="605.4" y="-57.8" font-family="Times,serif" font-size="14.00">dep</text>
</g>
<!-- 6 -->
<g id="node7" class="node">
<title>6</title>
<ellipse fill="none" stroke="black" cx="523.9" cy="-18" rx="59.59" ry="18"/>
<text text-anchor="middle" x="523.9" y="-14.3" font-family="Times,serif" font-size="14.00">orçamento</text>
</g>
<!-- 0&#45;&gt;6 -->
<g id="edge6" class="edge">
<title>0&#45;&gt;6</title>
<path fill="none" stroke="black" d="M2200.68,-103.84C2007.03,-102.6 840.93,-94.18 685.9,-69 645.08,-62.37 600.28,-47.96 568.16,-36.31"/>
<polygon fill="black" stroke="black" points="569.21,-32.96 558.62,-32.79 566.79,-39.53 569.21,-32.96"/>
<text text-anchor="middle" x="699.4" y="-57.8" font-family="Times,serif" font-size="14.00">dep</text>
</g>
<!-- 7 -->
<g id="node8" class="node">
<title>7</title>
<ellipse fill="none" stroke="black" cx="633.9" cy="-18" rx="31.7" ry="18"/>
<text text-anchor="middle" x="633.9" y="-14.3" font-family="Times,serif" font-size="14.00">para</text>
</g>
<!-- 0&#45;&gt;7 -->
<g id="edge7" class="edge">
<title>0&#45;&gt;7</title>
<path fill="none" stroke="black" d="M2200.67,-103.85C2013.12,-102.78 915.64,-95.4 769.9,-69 733.3,-62.37 693.61,-46.72 666.61,-34.68"/>
<polygon fill="black" stroke="black" points="667.82,-31.39 657.27,-30.43 664.92,-37.76 667.82,-31.39"/>
<text text-anchor="middle" x="783.4" y="-57.8" font-family="Times,serif" font-size="14.00">dep</text>
</g>
<!-- 8 -->
<g id="node9" class="node">
<title>8</title>
<ellipse fill="none" stroke="black" cx="710.9" cy="-18" rx="27" ry="18"/>
<text text-anchor="middle" x="710.9" y="-14.3" font-family="Times,serif" font-size="14.00">os</text>
</g>
<!-- 0&#45;&gt;8 -->
<g id="edge8" class="edge">
<title>0&#45;&gt;8</title>
<path fill="none" stroke="black" d="M2200.72,-104.15C2033.53,-104.95 1142.72,-107.3 872.9,-69 815.58,-60.87 801.3,-55.78 746.9,-36 745.04,-35.33 743.16,-34.59 741.27,-33.82"/>
<polygon fill="black" stroke="black" points="742.5,-30.54 731.94,-29.73 739.69,-36.95 742.5,-30.54"/>
<text text-anchor="middle" x="886.4" y="-57.8" font-family="Times,serif" font-size="14.00">dep</text>
</g>
<!-- 9 -->
<g id="node10" class="node">
<title>9</title>
<ellipse fill="none" stroke="black" cx="809.9" cy="-18" rx="53.89" ry="18"/>
<text text-anchor="middle" x="809.9" y="-14.3" font-family="Times,serif" font-size="14.00">próximos</text>
</g>
<!-- 0&#45;&gt;9 -->
<g id="edge9" class="edge">
<title>0&#45;&gt;9</title>
<path fill="none" stroke="black" d="M2200.78,-103.72C2028.4,-101.86 1088.65,-90.81 962.9,-69 924.14,-62.28 881.74,-47.83 851.43,-36.19"/>
<polygon fill="black" stroke="black" points="852.62,-32.89 842.03,-32.52 850.07,-39.41 852.62,-32.89"/>
<text text-anchor="middle" x="976.4" y="-57.8" font-family="Times,serif" font-size="14.00">dep</text>
</g>
<!-- 10 -->
<g id="node11" class="node">
<title>10</title>
<ellipse fill="none" stroke="black" cx="910.9" cy="-18" rx="29.5" ry="18"/>
<text text-anchor="middle" x="910.9" y="-14.3" font-family="Times,serif" font-size="14.00">três</text>
</g>
<!-- 0&#45;&gt;10 -->
<g id="edge10" class="edge">
<title>0&#45;&gt;10</title>
<path fill="none" stroke="black" d="M2200.72,-103.68C2035.02,-101.66 1163.72,-90.11 1046.9,-69 1009.85,-62.31 969.65,-46.36 942.64,-34.26"/>
<polygon fill="black" stroke="black" points="943.86,-30.97 933.31,-30 940.96,-37.34 943.86,-30.97"/>
<text text-anchor="middle" x="1060.4" y="-57.8" font-family="Times,serif" font-size="14.00">dep</text>
</g>
<!-- 11 -->
<g id="node12" class="node">
<title>11</title>
<ellipse fill="none" stroke="black" cx="990.9" cy="-18" rx="32.49" ry="18"/>
<text text-anchor="middle" x="990.9" y="-14.3" font-family="Times,serif" font-size="14.00">anos</text>
</g>
<!-- 0&#45;&gt;11 -->
<g id="edge11" class="edge">
<title>0&#45;&gt;11</title>
<path fill="none" stroke="black" d="M2200.6,-104.17C2052.8,-104.96 1347.16,-106.64 1132.9,-69 1094.44,-62.25 1052.51,-46.35 1024.26,-34.28"/>
<polygon fill="black" stroke="black" points="1025.43,-30.97 1014.86,-30.19 1022.64,-37.39 1025.43,-30.97"/>
<text text-anchor="middle" x="1146.4" y="-57.8" font-family="Times,serif" font-size="14.00">dep</text>
</g>
<!-- 12 -->
<g id="node13" class="node">
<title>12</title>
<ellipse fill="none" stroke="black" cx="1072.9" cy="-18" rx="31.7" ry="18"/>
<text text-anchor="middle" x="1072.9" y="-14.3" font-family="Times,serif" font-size="14.00">para</text>
</g>
<!-- 0&#45;&gt;12 -->
<g id="edge12" class="edge">
<title>0&#45;&gt;12</title>
<path fill="none" stroke="black" d="M2200.56,-104.01C2060.03,-103.94 1417.96,-101.78 1221.9,-69 1181.03,-62.17 1136.23,-45.85 1106.53,-33.7"/>
<polygon fill="black" stroke="black" points="1107.64,-30.38 1097.07,-29.76 1104.95,-36.84 1107.64,-30.38"/>
<text text-anchor="middle" x="1235.4" y="-57.8" font-family="Times,serif" font-size="14.00">dep</text>
</g>
<!-- 13 -->
<g id="node14" class="node">
<title>13</title>
<ellipse fill="none" stroke="black" cx="1149.9" cy="-18" rx="27" ry="18"/>
<text text-anchor="middle" x="1149.9" y="-14.3" font-family="Times,serif" font-size="14.00">o</text>
</g>
<!-- 0&#45;&gt;13 -->
<g id="edge13" class="edge">
<title>0&#45;&gt;13</title>
<path fill="none" stroke="black" d="M2200.88,-104.32C2094.13,-105.28 1691.46,-106.08 1362.9,-69 1283.38,-60.03 1262.04,-60.62 1185.9,-36 1183.97,-35.38 1182.02,-34.68 1180.07,-33.92"/>
<polygon fill="black" stroke="black" points="1181.04,-30.53 1170.47,-29.82 1178.29,-36.97 1181.04,-30.53"/>
<text text-anchor="middle" x="1376.4" y="-57.8" font-family="Times,serif" font-size="14.00">dep</text>
</g>
<!-- 14 -->
<g id="node15" class="node">
<title>14</title>
<ellipse fill="none" stroke="black" cx="1265.9" cy="-18" rx="71.49" ry="18"/>
<text text-anchor="middle" x="1265.9" y="-14.3" font-family="Times,serif" font-size="14.00">Observatório</text>
</g>
<!-- 0&#45;&gt;14 -->
<g id="edge14" class="edge">
<title>0&#45;&gt;14</title>
<path fill="none" stroke="black" d="M2200.82,-103.49C2082.63,-101.13 1611.34,-90.53 1464.9,-69 1414.54,-61.59 1358.4,-46.88 1318.62,-35.32"/>
<polygon fill="black" stroke="black" points="1319.45,-31.92 1308.87,-32.46 1317.48,-38.63 1319.45,-31.92"/>
<text text-anchor="middle" x="1478.4" y="-57.8" font-family="Times,serif" font-size="14.00">dep</text>
</g>
<!-- 15 -->
<g id="node16" class="node">
<title>15</title>
<ellipse fill="none" stroke="black" cx="1405.9" cy="-18" rx="50.09" ry="18"/>
<text text-anchor="middle" x="1405.9" y="-14.3" font-family="Times,serif" font-size="14.00">Europeu</text>
</g>
<!-- 0&#45;&gt;15 -->
<g id="edge15" class="edge">
<title>0&#45;&gt;15</title>
<path fill="none" stroke="black" d="M2200.76,-103.65C2090.44,-102.07 1675.35,-94.51 1546.9,-69 1511.57,-61.98 1473.15,-47.9 1445.35,-36.46"/>
<polygon fill="black" stroke="black" points="1446.56,-33.18 1435.98,-32.54 1443.86,-39.63 1446.56,-33.18"/>
<text text-anchor="middle" x="1560.4" y="-57.8" font-family="Times,serif" font-size="14.00">dep</text>
</g>
<!-- 16 -->
<g id="node17" class="node">
<title>16</title>
<ellipse fill="none" stroke="black" cx="1500.9" cy="-18" rx="27" ry="18"/>
<text text-anchor="middle" x="1500.9" y="-14.3" font-family="Times,serif" font-size="14.00">de</text>
</g>
<!-- 0&#45;&gt;16 -->
<g id="edge16" class="edge">
<title>0&#45;&gt;16</title>
<path fill="none" stroke="black" d="M2200.88,-103.48C2099.11,-101.34 1738.95,-92.28 1626.9,-69 1592.72,-61.9 1555.85,-46.25 1530.88,-34.33"/>
<polygon fill="black" stroke="black" points="1532.13,-31.04 1521.6,-29.81 1529.06,-37.34 1532.13,-31.04"/>
<text text-anchor="middle" x="1640.4" y="-57.8" font-family="Times,serif" font-size="14.00">dep</text>
</g>
<!-- 17 -->
<g id="node18" class="node">
<title>17</title>
<ellipse fill="none" stroke="black" cx="1572.9" cy="-18" rx="27" ry="18"/>
<text text-anchor="middle" x="1572.9" y="-14.3" font-family="Times,serif" font-size="14.00">as</text>
</g>
<!-- 0&#45;&gt;17 -->
<g id="edge17" class="edge">
<title>0&#45;&gt;17</title>
<path fill="none" stroke="black" d="M2200.87,-104.25C2124.49,-104.5 1900.81,-102.11 1718.9,-69 1668.68,-59.86 1656.55,-54.28 1608.9,-36 1607.06,-35.29 1605.18,-34.54 1603.3,-33.74"/>
<polygon fill="black" stroke="black" points="1604.55,-30.47 1593.99,-29.6 1601.7,-36.86 1604.55,-30.47"/>
<text text-anchor="middle" x="1732.4" y="-57.8" font-family="Times,serif" font-size="14.00">dep</text>
</g>
<!-- 18 -->
<g id="node19" class="node">
<title>18</title>
<ellipse fill="none" stroke="black" cx="1661.9" cy="-18" rx="44.39" ry="18"/>
<text text-anchor="middle" x="1661.9" y="-14.3" font-family="Times,serif" font-size="14.00">Drogas</text>
</g>
<!-- 0&#45;&gt;18 -->
<g id="edge18" class="edge">
<title>0&#45;&gt;18</title>
<path fill="none" stroke="black" d="M2200.49,-104.26C2132.05,-104.38 1948.5,-101.39 1799.9,-69 1765.08,-61.41 1727.13,-47.2 1699.85,-35.86"/>
<polygon fill="black" stroke="black" points="1700.88,-32.49 1690.31,-31.83 1698.16,-38.94 1700.88,-32.49"/>
<text text-anchor="middle" x="1813.4" y="-57.8" font-family="Times,serif" font-size="14.00">dep</text>
</g>
<!-- 19 -->
<g id="node20" class="node">
<title>19</title>
<ellipse fill="none" stroke="black" cx="1750.9" cy="-18" rx="27" ry="18"/>
<text text-anchor="middle" x="1750.9" y="-14.3" font-family="Times,serif" font-size="14.00">e</text>
</g>
<!-- 0&#45;&gt;19 -->
<g id="edge19" class="edge">
<title>0&#45;&gt;19</title>
<path fill="none" stroke="black" d="M2200.66,-103.61C2141.15,-102.25 1995.38,-96.17 1876.9,-69 1842.87,-61.2 1805.98,-45.65 1780.96,-33.96"/>
<polygon fill="black" stroke="black" points="1782.2,-30.67 1771.66,-29.53 1779.19,-36.99 1782.2,-30.67"/>
<text text-anchor="middle" x="1890.4" y="-57.8" font-family="Times,serif" font-size="14.00">dep</text>
</g>
<!-- 20 -->
<g id="node21" class="node">
<title>20</title>
<ellipse fill="none" stroke="black" cx="1822.9" cy="-18" rx="27" ry="18"/>
<text text-anchor="middle" x="1822.9" y="-14.3" font-family="Times,serif" font-size="14.00">de</text>
</g>
<!-- 0&#45;&gt;20 -->
<g id="edge20" class="edge">
<title>0&#45;&gt;20</title>
<path fill="none" stroke="black" d="M2201.02,-101.98C2152.99,-98.03 2049.43,-87.96 1963.9,-69 1916.14,-58.41 1904.45,-53.82 1858.9,-36 1857.06,-35.28 1855.19,-34.51 1853.31,-33.71"/>
<polygon fill="black" stroke="black" points="1854.56,-30.44 1844,-29.56 1851.71,-36.83 1854.56,-30.44"/>
<text text-anchor="middle" x="1977.4" y="-57.8" font-family="Times,serif" font-size="14.00">dep</text>
</g>
<!-- 21 -->
<g id="node22" class="node">
<title>21</title>
<ellipse fill="none" stroke="black" cx="1894.9" cy="-18" rx="27" ry="18"/>
<text text-anchor="middle" x="1894.9" y="-14.3" font-family="Times,serif" font-size="14.00">as</text>
</g>
<!-- 0&#45;&gt;21 -->
<g id="edge21" class="edge">
<title>0&#45;&gt;21</title>
<path fill="none" stroke="black" d="M2201.95,-100C2149.67,-91.53 2028.37,-69.73 1930.9,-36 1928.98,-35.34 1927.04,-34.61 1925.1,-33.83"/>
<polygon fill="black" stroke="black" points="1926.08,-30.44 1915.52,-29.67 1923.3,-36.86 1926.08,-30.44"/>
<text text-anchor="middle" x="2057.4" y="-57.8" font-family="Times,serif" font-size="14.00">dep</text>
</g>
<!-- 22 -->
<g id="node23" class="node">
<title>22</title>
<ellipse fill="none" stroke="black" cx="2042.9" cy="-18" rx="103.18" ry="18"/>
<text text-anchor="middle" x="2042.9" y="-14.3" font-family="Times,serif" font-size="14.00">Toxicodependências</text>
</g>
<!-- 0&#45;&gt;22 -->
<g id="edge22" class="edge">
<title>0&#45;&gt;22</title>
<path fill="none" stroke="black" d="M2206.31,-94.08C2177.23,-80.72 2124.77,-56.62 2087.12,-39.32"/>
<polygon fill="black" stroke="black" points="2088.44,-36.08 2077.9,-35.08 2085.52,-42.44 2088.44,-36.08"/>
<text text-anchor="middle" x="2160.4" y="-57.8" font-family="Times,serif" font-size="14.00">dep</text>
</g>
<!-- 23 -->
<g id="node24" class="node">
<title>23</title>
<ellipse fill="none" stroke="black" cx="2190.9" cy="-18" rx="27" ry="18"/>
<text text-anchor="middle" x="2190.9" y="-14.3" font-family="Times,serif" font-size="14.00">,</text>
</g>
<!-- 0&#45;&gt;23 -->
<g id="edge23" class="edge">
<title>0&#45;&gt;23</title>
<path fill="none" stroke="black" d="M2220.76,-87.61C2215.52,-75.58 2208.3,-58.98 2202.27,-45.13"/>
<polygon fill="black" stroke="black" points="2205.33,-43.4 2198.13,-35.63 2198.92,-46.19 2205.33,-43.4"/>
<text text-anchor="middle" x="2225.4" y="-57.8" font-family="Times,serif" font-size="14.00">dep</text>
</g>
<!-- 24 -->
<g id="node25" class="node">
<title>24</title>
<ellipse fill="none" stroke="black" cx="2265.9" cy="-18" rx="29.8" ry="18"/>
<text text-anchor="middle" x="2265.9" y="-14.3" font-family="Times,serif" font-size="14.00">com</text>
</g>
<!-- 0&#45;&gt;24 -->
<g id="edge24" class="edge">
<title>0&#45;&gt;24</title>
<path fill="none" stroke="black" d="M2235.22,-87.61C2240.6,-75.58 2248.02,-58.98 2254.21,-45.13"/>
<polygon fill="black" stroke="black" points="2257.57,-46.19 2258.46,-35.63 2251.18,-43.33 2257.57,-46.19"/>
<text text-anchor="middle" x="2263.4" y="-57.8" font-family="Times,serif" font-size="14.00">dep</text>
</g>
<!-- 25 -->
<g id="node26" class="node">
<title>25</title>
<ellipse fill="none" stroke="black" cx="2345.9" cy="-18" rx="32.49" ry="18"/>
<text text-anchor="middle" x="2345.9" y="-14.3" font-family="Times,serif" font-size="14.00">sede</text>
</g>
<!-- 0&#45;&gt;25 -->
<g id="edge25" class="edge">
<title>0&#45;&gt;25</title>
<path fill="none" stroke="black" d="M2246.76,-92.01C2256.98,-85.4 2269.76,-76.94 2280.9,-69 2294.05,-59.62 2308.31,-48.73 2320.11,-39.52"/>
<polygon fill="black" stroke="black" points="2322.52,-42.08 2328.22,-33.15 2318.2,-36.57 2322.52,-42.08"/>
<text text-anchor="middle" x="2314.4" y="-57.8" font-family="Times,serif" font-size="14.00">dep</text>
</g>
<!-- 26 -->
<g id="node27" class="node">
<title>26</title>
<ellipse fill="none" stroke="black" cx="2422.9" cy="-18" rx="27" ry="18"/>
<text text-anchor="middle" x="2422.9" y="-14.3" font-family="Times,serif" font-size="14.00">em</text>
</g>
<!-- 0&#45;&gt;26 -->
<g id="edge26" class="edge">
<title>0&#45;&gt;26</title>
<path fill="none" stroke="black" d="M2252.31,-97.13C2273.69,-90.79 2305.38,-80.64 2331.9,-69 2353.68,-59.44 2377.19,-46.45 2394.86,-36.1"/>
<polygon fill="black" stroke="black" points="2396.71,-39.07 2403.53,-30.96 2393.14,-33.05 2396.71,-39.07"/>
<text text-anchor="middle" x="2376.4" y="-57.8" font-family="Times,serif" font-size="14.00">dep</text>
</g>
<!-- 27 -->
<g id="node28" class="node">
<title>27</title>
<ellipse fill="none" stroke="black" cx="2508.9" cy="-18" rx="40.89" ry="18"/>
<text text-anchor="middle" x="2508.9" y="-14.3" font-family="Times,serif" font-size="14.00">Lisboa</text>
</g>
<!-- 0&#45;&gt;27 -->
<g id="edge27" class="edge">
<title>0&#45;&gt;27</title>
<path fill="none" stroke="black" d="M2254.2,-100.14C2287.29,-94.91 2345.63,-84.4 2393.9,-69 2421.48,-60.2 2451.44,-47.04 2473.87,-36.44"/>
<polygon fill="black" stroke="black" points="2475.48,-39.55 2482.99,-32.07 2472.46,-33.23 2475.48,-39.55"/>
<text text-anchor="middle" x="2446.4" y="-57.8" font-family="Times,serif" font-size="14.00">dep</text>
</g>
<!-- 28 -->
<g id="node29" class="node">
<title>28</title>
<ellipse fill="none" stroke="black" cx="2594.9" cy="-18" rx="27" ry="18"/>
<text text-anchor="middle" x="2594.9" y="-14.3" font-family="Times,serif" font-size="14.00">,</text>
</g>
<!-- 0&#45;&gt;28 -->
<g id="edge28" class="edge">
<title>0&#45;&gt;28</title>
<path fill="none" stroke="black" d="M2254.75,-101.67C2298.88,-97.47 2389.28,-87.32 2463.9,-69 2507.3,-58.34 2517.52,-52.9 2558.9,-36 2560.72,-35.26 2562.58,-34.47 2564.45,-33.65"/>
<polygon fill="black" stroke="black" points="2566.07,-36.76 2573.74,-29.45 2563.19,-30.38 2566.07,-36.76"/>
<text text-anchor="middle" x="2527.4" y="-57.8" font-family="Times,serif" font-size="14.00">dep</text>
</g>
<!-- 29 -->
<g id="node30" class="node">
<title>29</title>
<ellipse fill="none" stroke="black" cx="2677.9" cy="-18" rx="38.19" ry="18"/>
<text text-anchor="middle" x="2677.9" y="-14.3" font-family="Times,serif" font-size="14.00">foram</text>
</g>
<!-- 0&#45;&gt;29 -->
<g id="edge29" class="edge">
<title>0&#45;&gt;29</title>
<path fill="none" stroke="black" d="M2255,-103.28C2310.26,-101.31 2439.62,-94.18 2544.9,-69 2578.87,-60.87 2615.95,-46.44 2642.31,-35.16"/>
<polygon fill="black" stroke="black" points="2643.73,-38.36 2651.51,-31.17 2640.94,-31.94 2643.73,-38.36"/>
<text text-anchor="middle" x="2607.4" y="-57.8" font-family="Times,serif" font-size="14.00">dep</text>
</g>
<!-- 30 -->
<g id="node31" class="node">
<title>30</title>
<ellipse fill="none" stroke="black" cx="2774.9" cy="-18" rx="40.09" ry="18"/>
<text text-anchor="middle" x="2774.9" y="-14.3" font-family="Times,serif" font-size="14.00">ontem</text>
</g>
<!-- 0&#45;&gt;30 -->
<g id="edge30" class="edge">
<title>0&#45;&gt;30</title>
<path fill="none" stroke="black" d="M2255.16,-103.75C2319.97,-102.7 2488.01,-97.22 2624.9,-69 2663.9,-60.96 2706.88,-45.97 2736.8,-34.49"/>
<polygon fill="black" stroke="black" points="2738.36,-37.64 2746.42,-30.75 2735.83,-31.11 2738.36,-37.64"/>
<text text-anchor="middle" x="2693.4" y="-57.8" font-family="Times,serif" font-size="14.00">dep</text>
</g>
<!-- 31 -->
<g id="node32" class="node">
<title>31</title>
<ellipse fill="none" stroke="black" cx="2890.9" cy="-18" rx="57.69" ry="18"/>
<text text-anchor="middle" x="2890.9" y="-14.3" font-family="Times,serif" font-size="14.00">discutidos</text>
</g>
<!-- 0&#45;&gt;31 -->
<g id="edge31" class="edge">
<title>0&#45;&gt;31</title>
<path fill="none" stroke="black" d="M2255.09,-103.91C2328.95,-103.27 2539.21,-98.76 2710.9,-69 2756.76,-61.05 2807.76,-46.3 2843.74,-34.87"/>
<polygon fill="black" stroke="black" points="2845.02,-38.14 2853.47,-31.75 2842.88,-31.47 2845.02,-38.14"/>
<text text-anchor="middle" x="2790.4" y="-57.8" font-family="Times,serif" font-size="14.00">dep</text>
</g>
<!-- 32 -->
<g id="node33" class="node">
<title>32</title>
<ellipse fill="none" stroke="black" cx="2993.9" cy="-18" rx="27" ry="18"/>
<text text-anchor="middle" x="2993.9" y="-14.3" font-family="Times,serif" font-size="14.00">em</text>
</g>
<!-- 0&#45;&gt;32 -->
<g id="edge32" class="edge">
<title>0&#45;&gt;32</title>
<path fill="none" stroke="black" d="M2254.93,-103.87C2337.93,-103.13 2596.33,-98.47 2807.9,-69 2875.5,-59.58 2893.29,-58.05 2957.9,-36 2959.81,-35.35 2961.75,-34.62 2963.7,-33.85"/>
<polygon fill="black" stroke="black" points="2965.5,-36.88 2973.28,-29.7 2962.72,-30.46 2965.5,-36.88"/>
<text text-anchor="middle" x="2910.4" y="-57.8" font-family="Times,serif" font-size="14.00">dep</text>
</g>
<!-- 33 -->
<g id="node34" class="node">
<title>33</title>
<ellipse fill="none" stroke="black" cx="3069.9" cy="-18" rx="30.59" ry="18"/>
<text text-anchor="middle" x="3069.9" y="-14.3" font-family="Times,serif" font-size="14.00">uma</text>
</g>
<!-- 0&#45;&gt;33 -->
<g id="edge33" class="edge">
<title>0&#45;&gt;33</title>
<path fill="none" stroke="black" d="M2255.01,-103.6C2367.16,-101.77 2795.2,-93.34 2927.9,-69 2966.53,-61.91 3008.74,-45.92 3037.01,-33.91"/>
<polygon fill="black" stroke="black" points="3038.61,-37.03 3046.4,-29.85 3035.83,-30.61 3038.61,-37.03"/>
<text text-anchor="middle" x="2997.4" y="-57.8" font-family="Times,serif" font-size="14.00">dep</text>
</g>
<!-- 34 -->
<g id="node35" class="node">
<title>34</title>
<ellipse fill="none" stroke="black" cx="3164.9" cy="-18" rx="46.29" ry="18"/>
<text text-anchor="middle" x="3164.9" y="-14.3" font-family="Times,serif" font-size="14.00">reunião</text>
</g>
<!-- 0&#45;&gt;34 -->
<g id="edge34" class="edge">
<title>0&#45;&gt;34</title>
<path fill="none" stroke="black" d="M2255.05,-103.8C2375.79,-102.76 2864.44,-96.86 3014.9,-69 3053.33,-61.88 3095.42,-47.21 3125.21,-35.59"/>
<polygon fill="black" stroke="black" points="3126.8,-38.72 3134.81,-31.79 3124.23,-32.22 3126.8,-38.72"/>
<text text-anchor="middle" x="3083.4" y="-57.8" font-family="Times,serif" font-size="14.00">dep</text>
</g>
<!-- 35 -->
<g id="node36" class="node">
<title>35</title>
<ellipse fill="none" stroke="black" cx="3255.9" cy="-18" rx="27" ry="18"/>
<text text-anchor="middle" x="3255.9" y="-14.3" font-family="Times,serif" font-size="14.00">em</text>
</g>
<!-- 0&#45;&gt;35 -->
<g id="edge35" class="edge">
<title>0&#45;&gt;35</title>
<path fill="none" stroke="black" d="M2254.92,-103.75C2383.26,-102.46 2931.93,-95.45 3100.9,-69 3155.12,-60.51 3168.45,-55.12 3219.9,-36 3221.74,-35.31 3223.62,-34.57 3225.51,-33.79"/>
<polygon fill="black" stroke="black" points="3227.09,-36.92 3234.83,-29.68 3224.27,-30.51 3227.09,-36.92"/>
<text text-anchor="middle" x="3183.4" y="-57.8" font-family="Times,serif" font-size="14.00">dep</text>
</g>
<!-- 36 -->
<g id="node37" class="node">
<title>36</title>
<ellipse fill="none" stroke="black" cx="3328.9" cy="-18" rx="27.9" ry="18"/>
<text text-anchor="middle" x="3328.9" y="-14.3" font-family="Times,serif" font-size="14.00">que</text>
</g>
<!-- 0&#45;&gt;36 -->
<g id="edge36" class="edge">
<title>0&#45;&gt;36</title>
<path fill="none" stroke="black" d="M2255.27,-104.16C2393.19,-104.81 3012.57,-105.6 3200.9,-69 3235.78,-62.22 3273.41,-46.4 3298.78,-34.36"/>
<polygon fill="black" stroke="black" points="3300.39,-37.46 3307.87,-29.95 3297.34,-31.16 3300.39,-37.46"/>
<text text-anchor="middle" x="3265.4" y="-57.8" font-family="Times,serif" font-size="14.00">dep</text>
</g>
<!-- 37 -->
<g id="node38" class="node">
<title>37</title>
<ellipse fill="none" stroke="black" cx="3445.9" cy="-18" rx="70.69" ry="18"/>
<text text-anchor="middle" x="3445.9" y="-14.3" font-family="Times,serif" font-size="14.00">participaram</text>
</g>
<!-- 0&#45;&gt;37 -->
<g id="edge37" class="edge">
<title>0&#45;&gt;37</title>
<path fill="none" stroke="black" d="M2255.13,-104.07C2399.5,-104.29 3076.6,-103.44 3282.9,-69 3323.11,-62.29 3367.24,-48.32 3399.43,-36.85"/>
<polygon fill="black" stroke="black" points="3400.81,-40.08 3409.02,-33.38 3398.43,-33.49 3400.81,-40.08"/>
<text text-anchor="middle" x="3360.4" y="-57.8" font-family="Times,serif" font-size="14.00">dep</text>
</g>
<!-- 38 -->
<g id="node39" class="node">
<title>38</title>
<ellipse fill="none" stroke="black" cx="3615.9" cy="-18" rx="81.49" ry="18"/>
<text text-anchor="middle" x="3615.9" y="-14.3" font-family="Times,serif" font-size="14.00">representantes</text>
</g>
<!-- 0&#45;&gt;38 -->
<g id="edge38" class="edge">
<title>0&#45;&gt;38</title>
<path fill="none" stroke="black" d="M2255,-103.83C2406.54,-102.75 3150.3,-96.15 3377.9,-69 3439.15,-61.69 3508.01,-46.44 3555.84,-34.69"/>
<polygon fill="black" stroke="black" points="3556.85,-38.05 3565.72,-32.24 3555.17,-31.25 3556.85,-38.05"/>
<text text-anchor="middle" x="3477.4" y="-57.8" font-family="Times,serif" font-size="14.00">dep</text>
</g>
<!-- 39 -->
<g id="node40" class="node">
<title>39</title>
<ellipse fill="none" stroke="black" cx="3741.9" cy="-18" rx="27" ry="18"/>
<text text-anchor="middle" x="3741.9" y="-14.3" font-family="Times,serif" font-size="14.00">de</text>
</g>
<!-- 0&#45;&gt;39 -->
<g id="edge39" class="edge">
<title>0&#45;&gt;39</title>
<path fill="none" stroke="black" d="M2255.06,-103.72C2415.63,-102.01 3242.07,-92.17 3494.9,-69 3589.42,-60.34 3615.17,-63.88 3705.9,-36 3707.83,-35.41 3709.79,-34.73 3711.75,-33.99"/>
<polygon fill="black" stroke="black" points="3713.51,-37.04 3721.36,-29.93 3710.78,-30.59 3713.51,-37.04"/>
<text text-anchor="middle" x="3648.4" y="-57.8" font-family="Times,serif" font-size="14.00">dep</text>
</g>
<!-- 40 -->
<g id="node41" class="node">
<title>40</title>
<ellipse fill="none" stroke="black" cx="3822.9" cy="-18" rx="36.29" ry="18"/>
<text text-anchor="middle" x="3822.9" y="-14.3" font-family="Times,serif" font-size="14.00">todos</text>
</g>
<!-- 0&#45;&gt;40 -->
<g id="edge40" class="edge">
<title>0&#45;&gt;40</title>
<path fill="none" stroke="black" d="M2255.03,-103.77C2440.78,-102.12 3521.64,-91.6 3665.9,-69 3708.35,-62.35 3755.05,-46.28 3786.39,-34.14"/>
<polygon fill="black" stroke="black" points="3787.98,-37.28 3796,-30.36 3785.41,-30.77 3787.98,-37.28"/>
<text text-anchor="middle" x="3741.4" y="-57.8" font-family="Times,serif" font-size="14.00">dep</text>
</g>
<!-- 41 -->
<g id="node42" class="node">
<title>41</title>
<ellipse fill="none" stroke="black" cx="3917.9" cy="-18" rx="40.09" ry="18"/>
<text text-anchor="middle" x="3917.9" y="-14.3" font-family="Times,serif" font-size="14.00">países</text>
</g>
<!-- 0&#45;&gt;41 -->
<g id="edge41" class="edge">
<title>0&#45;&gt;41</title>
<path fill="none" stroke="black" d="M2254.91,-103.82C2447.17,-102.51 3604.9,-93.6 3758.9,-69 3801.36,-62.22 3848.11,-46.46 3879.86,-34.43"/>
<polygon fill="black" stroke="black" points="3881.13,-37.69 3889.21,-30.83 3878.62,-31.16 3881.13,-37.69"/>
<text text-anchor="middle" x="3835.4" y="-57.8" font-family="Times,serif" font-size="14.00">dep</text>
</g>
<!-- 42 -->
<g id="node43" class="node">
<title>42</title>
<ellipse fill="none" stroke="black" cx="4002.9" cy="-18" rx="27" ry="18"/>
<text text-anchor="middle" x="4002.9" y="-14.3" font-family="Times,serif" font-size="14.00">de</text>
</g>
<!-- 0&#45;&gt;42 -->
<g id="edge42" class="edge">
<title>0&#45;&gt;42</title>
<path fill="none" stroke="black" d="M2254.96,-103.84C2454.05,-102.62 3688.84,-94.07 3852.9,-69 3905.04,-61.03 3917.56,-54.65 3966.9,-36 3968.74,-35.3 3970.62,-34.55 3972.5,-33.76"/>
<polygon fill="black" stroke="black" points="3974.09,-36.89 3981.82,-29.64 3971.26,-30.49 3974.09,-36.89"/>
<text text-anchor="middle" x="3932.4" y="-57.8" font-family="Times,serif" font-size="14.00">dep</text>
</g>
<!-- 43 -->
<g id="node44" class="node">
<title>43</title>
<ellipse fill="none" stroke="black" cx="4074.9" cy="-18" rx="27" ry="18"/>
<text text-anchor="middle" x="4074.9" y="-14.3" font-family="Times,serif" font-size="14.00">a</text>
</g>
<!-- 0&#45;&gt;43 -->
<g id="edge43" class="edge">
<title>0&#45;&gt;43</title>
<path fill="none" stroke="black" d="M2254.94,-104C2460.76,-103.89 3776.66,-101.9 3949.9,-69 3983.95,-62.53 4020.5,-46.78 4045.23,-34.67"/>
<polygon fill="black" stroke="black" points="4047.04,-37.67 4054.41,-30.07 4043.9,-31.41 4047.04,-37.67"/>
<text text-anchor="middle" x="4013.4" y="-57.8" font-family="Times,serif" font-size="14.00">dep</text>
</g>
<!-- 44 -->
<g id="node45" class="node">
<title>44</title>
<ellipse fill="none" stroke="black" cx="4157.9" cy="-18" rx="38.19" ry="18"/>
<text text-anchor="middle" x="4157.9" y="-14.3" font-family="Times,serif" font-size="14.00">União</text>
</g>
<!-- 0&#45;&gt;44 -->
<g id="edge44" class="edge">
<title>0&#45;&gt;44</title>
<path fill="none" stroke="black" d="M2254.86,-104.05C2465.92,-104.4 3849.47,-105.25 4030.9,-69 4063.66,-62.45 4098.85,-47.95 4123.86,-36.24"/>
<polygon fill="black" stroke="black" points="4125.41,-39.38 4132.93,-31.92 4122.39,-33.07 4125.41,-39.38"/>
<text text-anchor="middle" x="4095.4" y="-57.8" font-family="Times,serif" font-size="14.00">dep</text>
</g>
<!-- 45 -->
<g id="node46" class="node">
<title>45</title>
<ellipse fill="none" stroke="black" cx="4266.9" cy="-18" rx="52.79" ry="18"/>
<text text-anchor="middle" x="4266.9" y="-14.3" font-family="Times,serif" font-size="14.00">Europeia</text>
</g>
<!-- 0&#45;&gt;45 -->
<g id="edge45" class="edge">
<title>0&#45;&gt;45</title>
<path fill="none" stroke="black" d="M2255.03,-103.98C2471.99,-103.76 3921.84,-101.06 4112.9,-69 4152.17,-62.41 4195.14,-47.8 4225.68,-36.07"/>
<polygon fill="black" stroke="black" points="4227.1,-39.27 4235.14,-32.37 4224.55,-32.75 4227.1,-39.27"/>
<text text-anchor="middle" x="4187.4" y="-57.8" font-family="Times,serif" font-size="14.00">dep</text>
</g>
<!-- 46 -->
<g id="node47" class="node">
<title>46</title>
<ellipse fill="none" stroke="black" cx="4364.9" cy="-18" rx="27" ry="18"/>
<text text-anchor="middle" x="4364.9" y="-14.3" font-family="Times,serif" font-size="14.00">.</text>
</g>
<!-- 0&#45;&gt;46 -->
<g id="edge46" class="edge">
<title>0&#45;&gt;46</title>
<path fill="none" stroke="black" d="M2254.91,-103.92C2477.35,-103.19 4003.25,-97.19 4204.9,-69 4261.38,-61.1 4275.34,-55.59 4328.9,-36 4330.75,-35.32 4332.63,-34.59 4334.52,-33.81"/>
<polygon fill="black" stroke="black" points="4336.1,-36.94 4343.85,-29.72 4333.28,-30.53 4336.1,-36.94"/>
<text text-anchor="middle" x="4290.4" y="-57.8" font-family="Times,serif" font-size="14.00">dep</text>
</g>
</g>
</svg>
