<?xml version="1.0" encoding="UTF-8" standalone="no"?>
<!DOCTYPE svg PUBLIC "-//W3C//DTD SVG 1.1//EN"
 "http://www.w3.org/Graphics/SVG/1.1/DTD/svg11.dtd">
<!-- Generated by graphviz version 2.42.4 (0)
 -->
<!-- Pages: 1 -->
<svg width="1064pt" height="131pt"
 viewBox="0.00 0.00 1063.90 131.00" xmlns="http://www.w3.org/2000/svg" xmlns:xlink="http://www.w3.org/1999/xlink">
<g id="graph0" class="graph" transform="scale(1 1) rotate(0) translate(4 127)">
<polygon fill="white" stroke="transparent" points="-4,4 -4,-127 1059.9,-127 1059.9,4 -4,4"/>
<!-- 0 -->
<g id="node1" class="node">
<title>0</title>
<ellipse fill="none" stroke="black" cx="515.9" cy="-105" rx="43.59" ry="18"/>
<text text-anchor="middle" x="515.9" y="-101.3" font-family="Times,serif" font-size="14.00">Ônibus</text>
</g>
<!-- 1 -->
<g id="node2" class="node">
<title>1</title>
<ellipse fill="none" stroke="black" cx="29.9" cy="-18" rx="29.8" ry="18"/>
<text text-anchor="middle" x="29.9" y="-14.3" font-family="Times,serif" font-size="14.00">leve</text>
</g>
<!-- 0&#45;&gt;1 -->
<g id="edge1" class="edge">
<title>0&#45;&gt;1</title>
<path fill="none" stroke="black" d="M472.28,-104.14C402.48,-103.41 261.85,-98.04 146.9,-69 116.4,-61.3 83.64,-46.7 60.56,-35.25"/>
<polygon fill="black" stroke="black" points="62.11,-32.11 51.6,-30.73 58.95,-38.36 62.11,-32.11"/>
<text text-anchor="middle" x="160.4" y="-57.8" font-family="Times,serif" font-size="14.00">dep</text>
</g>
<!-- 2 -->
<g id="node3" class="node">
<title>2</title>
<ellipse fill="none" stroke="black" cx="104.9" cy="-18" rx="27" ry="18"/>
<text text-anchor="middle" x="104.9" y="-14.3" font-family="Times,serif" font-size="14.00">,</text>
</g>
<!-- 0&#45;&gt;2 -->
<g id="edge2" class="edge">
<title>0&#45;&gt;2</title>
<path fill="none" stroke="black" d="M472.56,-102.63C414.25,-99.95 307.74,-92.06 219.9,-69 189.68,-61.07 157.2,-46.32 134.5,-34.89"/>
<polygon fill="black" stroke="black" points="135.89,-31.67 125.4,-30.22 132.7,-37.9 135.89,-31.67"/>
<text text-anchor="middle" x="233.4" y="-57.8" font-family="Times,serif" font-size="14.00">dep</text>
</g>
<!-- 3 -->
<g id="node4" class="node">
<title>3</title>
<ellipse fill="none" stroke="black" cx="180.9" cy="-18" rx="30.59" ry="18"/>
<text text-anchor="middle" x="180.9" y="-14.3" font-family="Times,serif" font-size="14.00">US$</text>
</g>
<!-- 0&#45;&gt;3 -->
<g id="edge3" class="edge">
<title>0&#45;&gt;3</title>
<path fill="none" stroke="black" d="M473.25,-100.84C427.43,-96.65 352.82,-87.51 290.9,-69 263.06,-60.68 233.15,-46.73 211.55,-35.67"/>
<polygon fill="black" stroke="black" points="213.03,-32.49 202.54,-30.98 209.8,-38.7 213.03,-32.49"/>
<text text-anchor="middle" x="304.4" y="-57.8" font-family="Times,serif" font-size="14.00">dep</text>
</g>
<!-- 4 -->
<g id="node5" class="node">
<title>4</title>
<ellipse fill="none" stroke="black" cx="256.9" cy="-18" rx="27" ry="18"/>
<text text-anchor="middle" x="256.9" y="-14.3" font-family="Times,serif" font-size="14.00">55</text>
</g>
<!-- 0&#45;&gt;4 -->
<g id="edge4" class="edge">
<title>0&#45;&gt;4</title>
<path fill="none" stroke="black" d="M475.4,-98.17C442.35,-92.71 394.77,-83.23 354.9,-69 330.32,-60.22 304.06,-46.57 284.91,-35.75"/>
<polygon fill="black" stroke="black" points="286.54,-32.65 276.13,-30.7 283.05,-38.72 286.54,-32.65"/>
<text text-anchor="middle" x="368.4" y="-57.8" font-family="Times,serif" font-size="14.00">dep</text>
</g>
<!-- 5 -->
<g id="node6" class="node">
<title>5</title>
<ellipse fill="none" stroke="black" cx="328.9" cy="-18" rx="27" ry="18"/>
<text text-anchor="middle" x="328.9" y="-14.3" font-family="Times,serif" font-size="14.00">mil</text>
</g>
<!-- 0&#45;&gt;5 -->
<g id="edge5" class="edge">
<title>0&#45;&gt;5</title>
<path fill="none" stroke="black" d="M481.23,-94.01C461.17,-87.76 435.67,-79.01 413.9,-69 393.69,-59.7 372.09,-46.96 355.73,-36.67"/>
<polygon fill="black" stroke="black" points="357.53,-33.67 347.22,-31.24 353.77,-39.57 357.53,-33.67"/>
<text text-anchor="middle" x="427.4" y="-57.8" font-family="Times,serif" font-size="14.00">dep</text>
</g>
<!-- 6 -->
<g id="node7" class="node">
<title>6</title>
<ellipse fill="none" stroke="black" cx="400.9" cy="-18" rx="27" ry="18"/>
<text text-anchor="middle" x="400.9" y="-14.3" font-family="Times,serif" font-size="14.00">,</text>
</g>
<!-- 0&#45;&gt;6 -->
<g id="edge6" class="edge">
<title>0&#45;&gt;6</title>
<path fill="none" stroke="black" d="M493.36,-89.39C484.12,-83.25 473.38,-75.94 463.9,-69 450.84,-59.45 436.69,-48.3 425.12,-38.95"/>
<polygon fill="black" stroke="black" points="427.17,-36.11 417.2,-32.52 422.76,-41.54 427.17,-36.11"/>
<text text-anchor="middle" x="477.4" y="-57.8" font-family="Times,serif" font-size="14.00">dep</text>
</g>
<!-- 7 -->
<g id="node8" class="node">
<title>7</title>
<ellipse fill="none" stroke="black" cx="477.9" cy="-18" rx="31.7" ry="18"/>
<text text-anchor="middle" x="477.9" y="-14.3" font-family="Times,serif" font-size="14.00">para</text>
</g>
<!-- 0&#45;&gt;7 -->
<g id="edge7" class="edge">
<title>0&#45;&gt;7</title>
<path fill="none" stroke="black" d="M508.39,-87.21C503.03,-75.22 495.71,-58.85 489.59,-45.16"/>
<polygon fill="black" stroke="black" points="492.67,-43.46 485.39,-35.76 486.28,-46.32 492.67,-43.46"/>
<text text-anchor="middle" x="513.4" y="-57.8" font-family="Times,serif" font-size="14.00">dep</text>
</g>
<!-- 8 -->
<g id="node9" class="node">
<title>8</title>
<ellipse fill="none" stroke="black" cx="554.9" cy="-18" rx="27" ry="18"/>
<text text-anchor="middle" x="554.9" y="-14.3" font-family="Times,serif" font-size="14.00">o</text>
</g>
<!-- 0&#45;&gt;8 -->
<g id="edge8" class="edge">
<title>0&#45;&gt;8</title>
<path fill="none" stroke="black" d="M523.6,-87.21C529.14,-75.14 536.71,-58.64 543.02,-44.89"/>
<polygon fill="black" stroke="black" points="546.35,-46.02 547.34,-35.47 539.99,-43.1 546.35,-46.02"/>
<text text-anchor="middle" x="551.4" y="-57.8" font-family="Times,serif" font-size="14.00">dep</text>
</g>
<!-- 9 -->
<g id="node10" class="node">
<title>9</title>
<ellipse fill="none" stroke="black" cx="643.9" cy="-18" rx="43.59" ry="18"/>
<text text-anchor="middle" x="643.9" y="-14.3" font-family="Times,serif" font-size="14.00">pesado</text>
</g>
<!-- 0&#45;&gt;9 -->
<g id="edge9" class="edge">
<title>0&#45;&gt;9</title>
<path fill="none" stroke="black" d="M538.09,-89.38C547.58,-83.11 558.79,-75.71 568.9,-69 583.55,-59.28 599.79,-48.45 613.4,-39.37"/>
<polygon fill="black" stroke="black" points="615.55,-42.15 621.93,-33.68 611.67,-36.32 615.55,-42.15"/>
<text text-anchor="middle" x="603.4" y="-57.8" font-family="Times,serif" font-size="14.00">dep</text>
</g>
<!-- 10 -->
<g id="node11" class="node">
<title>10</title>
<ellipse fill="none" stroke="black" cx="732.9" cy="-18" rx="27" ry="18"/>
<text text-anchor="middle" x="732.9" y="-14.3" font-family="Times,serif" font-size="14.00">,</text>
</g>
<!-- 0&#45;&gt;10 -->
<g id="edge10" class="edge">
<title>0&#45;&gt;10</title>
<path fill="none" stroke="black" d="M549.74,-93.55C570.45,-86.96 597.39,-78 620.9,-69 655.29,-55.83 663.36,-51.2 696.9,-36 698.69,-35.19 700.53,-34.34 702.39,-33.49"/>
<polygon fill="black" stroke="black" points="704.04,-36.58 711.63,-29.18 701.09,-30.23 704.04,-36.58"/>
<text text-anchor="middle" x="670.4" y="-57.8" font-family="Times,serif" font-size="14.00">dep</text>
</g>
<!-- 11 -->
<g id="node12" class="node">
<title>11</title>
<ellipse fill="none" stroke="black" cx="808.9" cy="-18" rx="30.59" ry="18"/>
<text text-anchor="middle" x="808.9" y="-14.3" font-family="Times,serif" font-size="14.00">US$</text>
</g>
<!-- 0&#45;&gt;11 -->
<g id="edge11" class="edge">
<title>0&#45;&gt;11</title>
<path fill="none" stroke="black" d="M556.04,-98.01C591.24,-92.24 643.56,-82.41 687.9,-69 725.1,-57.74 733.01,-50.94 768.9,-36 771.07,-35.09 773.31,-34.16 775.57,-33.21"/>
<polygon fill="black" stroke="black" points="776.96,-36.42 784.81,-29.31 774.23,-29.97 776.96,-36.42"/>
<text text-anchor="middle" x="741.4" y="-57.8" font-family="Times,serif" font-size="14.00">dep</text>
</g>
<!-- 12 -->
<g id="node13" class="node">
<title>12</title>
<ellipse fill="none" stroke="black" cx="884.9" cy="-18" rx="27" ry="18"/>
<text text-anchor="middle" x="884.9" y="-14.3" font-family="Times,serif" font-size="14.00">70</text>
</g>
<!-- 0&#45;&gt;12 -->
<g id="edge12" class="edge">
<title>0&#45;&gt;12</title>
<path fill="none" stroke="black" d="M558.56,-100.57C607.5,-96.01 689.88,-86.42 758.9,-69 792.54,-60.51 829.22,-45.21 854.28,-33.77"/>
<polygon fill="black" stroke="black" points="856.02,-36.82 863.62,-29.44 853.07,-30.47 856.02,-36.82"/>
<text text-anchor="middle" x="819.4" y="-57.8" font-family="Times,serif" font-size="14.00">dep</text>
</g>
<!-- 13 -->
<g id="node14" class="node">
<title>13</title>
<ellipse fill="none" stroke="black" cx="956.9" cy="-18" rx="27" ry="18"/>
<text text-anchor="middle" x="956.9" y="-14.3" font-family="Times,serif" font-size="14.00">mil</text>
</g>
<!-- 0&#45;&gt;13 -->
<g id="edge13" class="edge">
<title>0&#45;&gt;13</title>
<path fill="none" stroke="black" d="M559.37,-102.91C621.67,-100.53 739.6,-92.96 836.9,-69 868.87,-61.13 903.38,-45.99 927.14,-34.42"/>
<polygon fill="black" stroke="black" points="928.91,-37.45 936.32,-29.87 925.81,-31.18 928.91,-37.45"/>
<text text-anchor="middle" x="895.4" y="-57.8" font-family="Times,serif" font-size="14.00">dep</text>
</g>
<!-- 14 -->
<g id="node15" class="node">
<title>14</title>
<ellipse fill="none" stroke="black" cx="1028.9" cy="-18" rx="27" ry="18"/>
<text text-anchor="middle" x="1028.9" y="-14.3" font-family="Times,serif" font-size="14.00">.</text>
</g>
<!-- 0&#45;&gt;14 -->
<g id="edge14" class="edge">
<title>0&#45;&gt;14</title>
<path fill="none" stroke="black" d="M559.48,-104.43C633.31,-104.23 787.21,-99.7 912.9,-69 943.65,-61.49 976.61,-46.55 999.51,-34.94"/>
<polygon fill="black" stroke="black" points="1001.39,-37.91 1008.67,-30.21 998.18,-31.69 1001.39,-37.91"/>
<text text-anchor="middle" x="969.4" y="-57.8" font-family="Times,serif" font-size="14.00">dep</text>
</g>
</g>
</svg>
