<?xml version="1.0" encoding="UTF-8" standalone="no"?>
<!DOCTYPE svg PUBLIC "-//W3C//DTD SVG 1.1//EN"
 "http://www.w3.org/Graphics/SVG/1.1/DTD/svg11.dtd">
<!-- Generated by graphviz version 2.42.4 (0)
 -->
<!-- Pages: 1 -->
<svg width="1539pt" height="131pt"
 viewBox="0.00 0.00 1539.25 131.00" xmlns="http://www.w3.org/2000/svg" xmlns:xlink="http://www.w3.org/1999/xlink">
<g id="graph0" class="graph" transform="scale(1 1) rotate(0) translate(4 127)">
<polygon fill="white" stroke="transparent" points="-4,4 -4,-127 1535.25,-127 1535.25,4 -4,4"/>
<!-- 0 -->
<g id="node1" class="node">
<title>0</title>
<ellipse fill="none" stroke="black" cx="748.25" cy="-105" rx="27" ry="18"/>
<text text-anchor="middle" x="748.25" y="-101.3" font-family="Times,serif" font-size="14.00">2.</text>
</g>
<!-- 1 -->
<g id="node2" class="node">
<title>1</title>
<ellipse fill="none" stroke="black" cx="29.25" cy="-18" rx="29.5" ry="18"/>
<text text-anchor="middle" x="29.25" y="-14.3" font-family="Times,serif" font-size="14.00">Que</text>
</g>
<!-- 0&#45;&gt;1 -->
<g id="edge1" class="edge">
<title>0&#45;&gt;1</title>
<path fill="none" stroke="black" d="M721.33,-103.25C622.38,-100.35 278.92,-89.03 171.25,-69 132.4,-61.77 89.92,-45.65 61.64,-33.65"/>
<polygon fill="black" stroke="black" points="62.82,-30.35 52.25,-29.6 60.05,-36.78 62.82,-30.35"/>
<text text-anchor="middle" x="184.75" y="-57.8" font-family="Times,serif" font-size="14.00">dep</text>
</g>
<!-- 2 -->
<g id="node3" class="node">
<title>2</title>
<ellipse fill="none" stroke="black" cx="103.25" cy="-18" rx="27" ry="18"/>
<text text-anchor="middle" x="103.25" y="-14.3" font-family="Times,serif" font-size="14.00">o</text>
</g>
<!-- 0&#45;&gt;2 -->
<g id="edge2" class="edge">
<title>0&#45;&gt;2</title>
<path fill="none" stroke="black" d="M721.3,-103.08C651.34,-100.44 458.34,-91.52 299.25,-69 227.36,-58.83 208.12,-59 139.25,-36 137.33,-35.36 135.38,-34.64 133.43,-33.88"/>
<polygon fill="black" stroke="black" points="134.41,-30.49 123.84,-29.75 131.64,-36.92 134.41,-30.49"/>
<text text-anchor="middle" x="312.75" y="-57.8" font-family="Times,serif" font-size="14.00">dep</text>
</g>
<!-- 3 -->
<g id="node4" class="node">
<title>3</title>
<ellipse fill="none" stroke="black" cx="218.25" cy="-18" rx="69.59" ry="18"/>
<text text-anchor="middle" x="218.25" y="-14.3" font-family="Times,serif" font-size="14.00">selecionador</text>
</g>
<!-- 0&#45;&gt;3 -->
<g id="edge3" class="edge">
<title>0&#45;&gt;3</title>
<path fill="none" stroke="black" d="M721.29,-103C661.67,-100.42 514.31,-92.07 393.25,-69 350.45,-60.84 302.98,-46.97 268.3,-35.9"/>
<polygon fill="black" stroke="black" points="269.01,-32.45 258.41,-32.71 266.86,-39.11 269.01,-32.45"/>
<text text-anchor="middle" x="406.75" y="-57.8" font-family="Times,serif" font-size="14.00">dep</text>
</g>
<!-- 4 -->
<g id="node5" class="node">
<title>4</title>
<ellipse fill="none" stroke="black" cx="343.25" cy="-18" rx="37.09" ry="18"/>
<text text-anchor="middle" x="343.25" y="-14.3" font-family="Times,serif" font-size="14.00">tenha</text>
</g>
<!-- 0&#45;&gt;4 -->
<g id="edge4" class="edge">
<title>0&#45;&gt;4</title>
<path fill="none" stroke="black" d="M721.39,-102.85C671.29,-100.21 560.5,-92.06 470.25,-69 438.22,-60.82 403.39,-46.71 378.32,-35.56"/>
<polygon fill="black" stroke="black" points="379.44,-32.22 368.88,-31.3 376.56,-38.6 379.44,-32.22"/>
<text text-anchor="middle" x="483.75" y="-57.8" font-family="Times,serif" font-size="14.00">dep</text>
</g>
<!-- 5 -->
<g id="node6" class="node">
<title>5</title>
<ellipse fill="none" stroke="black" cx="426.25" cy="-18" rx="27.9" ry="18"/>
<text text-anchor="middle" x="426.25" y="-14.3" font-family="Times,serif" font-size="14.00">que</text>
</g>
<!-- 0&#45;&gt;5 -->
<g id="edge5" class="edge">
<title>0&#45;&gt;5</title>
<path fill="none" stroke="black" d="M721.52,-101.56C681.49,-97.45 603.84,-87.69 540.25,-69 504.53,-58.5 497.28,-51.11 463.25,-36 461.45,-35.2 459.62,-34.38 457.76,-33.55"/>
<polygon fill="black" stroke="black" points="459.06,-30.29 448.51,-29.34 456.17,-36.67 459.06,-30.29"/>
<text text-anchor="middle" x="553.75" y="-57.8" font-family="Times,serif" font-size="14.00">dep</text>
</g>
<!-- 6 -->
<g id="node7" class="node">
<title>6</title>
<ellipse fill="none" stroke="black" cx="499.25" cy="-18" rx="27" ry="18"/>
<text text-anchor="middle" x="499.25" y="-14.3" font-family="Times,serif" font-size="14.00">ler</text>
</g>
<!-- 0&#45;&gt;6 -->
<g id="edge6" class="edge">
<title>0&#45;&gt;6</title>
<path fill="none" stroke="black" d="M722.48,-99.31C693.5,-93.67 645.24,-83.16 605.25,-69 572.82,-57.52 566.35,-50.68 535.25,-36 533.47,-35.16 531.63,-34.3 529.79,-33.42"/>
<polygon fill="black" stroke="black" points="531.1,-30.17 520.57,-29.07 528.12,-36.5 531.1,-30.17"/>
<text text-anchor="middle" x="618.75" y="-57.8" font-family="Times,serif" font-size="14.00">dep</text>
</g>
<!-- 7 -->
<g id="node8" class="node">
<title>7</title>
<ellipse fill="none" stroke="black" cx="575.25" cy="-18" rx="31.4" ry="18"/>
<text text-anchor="middle" x="575.25" y="-14.3" font-family="Times,serif" font-size="14.00">todo</text>
</g>
<!-- 0&#45;&gt;7 -->
<g id="edge7" class="edge">
<title>0&#45;&gt;7</title>
<path fill="none" stroke="black" d="M725.17,-95.41C707.88,-88.75 683.76,-79 663.25,-69 643.26,-59.25 621.52,-46.92 604.66,-36.95"/>
<polygon fill="black" stroke="black" points="606.21,-33.8 595.83,-31.68 602.62,-39.81 606.21,-33.8"/>
<text text-anchor="middle" x="676.75" y="-57.8" font-family="Times,serif" font-size="14.00">dep</text>
</g>
<!-- 8 -->
<g id="node9" class="node">
<title>8</title>
<ellipse fill="none" stroke="black" cx="651.25" cy="-18" rx="27" ry="18"/>
<text text-anchor="middle" x="651.25" y="-14.3" font-family="Times,serif" font-size="14.00">o</text>
</g>
<!-- 0&#45;&gt;8 -->
<g id="edge8" class="edge">
<title>0&#45;&gt;8</title>
<path fill="none" stroke="black" d="M732.23,-89.96C716.55,-76.22 692.49,-55.14 674.67,-39.52"/>
<polygon fill="black" stroke="black" points="676.79,-36.73 666.97,-32.77 672.18,-42 676.79,-36.73"/>
<text text-anchor="middle" x="719.75" y="-57.8" font-family="Times,serif" font-size="14.00">dep</text>
</g>
<!-- 9 -->
<g id="node10" class="node">
<title>9</title>
<ellipse fill="none" stroke="black" cx="748.25" cy="-18" rx="51.99" ry="18"/>
<text text-anchor="middle" x="748.25" y="-14.3" font-family="Times,serif" font-size="14.00">currículo</text>
</g>
<!-- 0&#45;&gt;9 -->
<g id="edge9" class="edge">
<title>0&#45;&gt;9</title>
<path fill="none" stroke="black" d="M748.25,-86.8C748.25,-75.16 748.25,-59.55 748.25,-46.24"/>
<polygon fill="black" stroke="black" points="751.75,-46.18 748.25,-36.18 744.75,-46.18 751.75,-46.18"/>
<text text-anchor="middle" x="761.75" y="-57.8" font-family="Times,serif" font-size="14.00">dep</text>
</g>
<!-- 10 -->
<g id="node11" class="node">
<title>10</title>
<ellipse fill="none" stroke="black" cx="850.25" cy="-18" rx="31.7" ry="18"/>
<text text-anchor="middle" x="850.25" y="-14.3" font-family="Times,serif" font-size="14.00">para</text>
</g>
<!-- 0&#45;&gt;10 -->
<g id="edge10" class="edge">
<title>0&#45;&gt;10</title>
<path fill="none" stroke="black" d="M764.64,-90.34C780.92,-76.77 806.12,-55.77 824.97,-40.06"/>
<polygon fill="black" stroke="black" points="827.43,-42.57 832.88,-33.48 822.95,-37.19 827.43,-42.57"/>
<text text-anchor="middle" x="819.75" y="-57.8" font-family="Times,serif" font-size="14.00">dep</text>
</g>
<!-- 11 -->
<g id="node12" class="node">
<title>11</title>
<ellipse fill="none" stroke="black" cx="954.25" cy="-18" rx="54.69" ry="18"/>
<text text-anchor="middle" x="954.25" y="-14.3" font-family="Times,serif" font-size="14.00">descobrir</text>
</g>
<!-- 0&#45;&gt;11 -->
<g id="edge11" class="edge">
<title>0&#45;&gt;11</title>
<path fill="none" stroke="black" d="M771,-95.26C789.03,-88.29 814.82,-78.2 837.25,-69 862.64,-58.58 890.95,-46.5 913.35,-36.82"/>
<polygon fill="black" stroke="black" points="914.78,-40.02 922.57,-32.83 912,-33.59 914.78,-40.02"/>
<text text-anchor="middle" x="886.75" y="-57.8" font-family="Times,serif" font-size="14.00">dep</text>
</g>
<!-- 12 -->
<g id="node13" class="node">
<title>12</title>
<ellipse fill="none" stroke="black" cx="1054.25" cy="-18" rx="27" ry="18"/>
<text text-anchor="middle" x="1054.25" y="-14.3" font-family="Times,serif" font-size="14.00">o</text>
</g>
<!-- 0&#45;&gt;12 -->
<g id="edge12" class="edge">
<title>0&#45;&gt;12</title>
<path fill="none" stroke="black" d="M774.16,-99.53C822.97,-90.66 931.43,-68.82 1018.25,-36 1020.09,-35.3 1021.97,-34.55 1023.85,-33.76"/>
<polygon fill="black" stroke="black" points="1025.44,-36.89 1033.17,-29.64 1022.61,-30.49 1025.44,-36.89"/>
<text text-anchor="middle" x="974.75" y="-57.8" font-family="Times,serif" font-size="14.00">dep</text>
</g>
<!-- 13 -->
<g id="node14" class="node">
<title>13</title>
<ellipse fill="none" stroke="black" cx="1134.25" cy="-18" rx="35.19" ry="18"/>
<text text-anchor="middle" x="1134.25" y="-14.3" font-family="Times,serif" font-size="14.00">perfil</text>
</g>
<!-- 0&#45;&gt;13 -->
<g id="edge13" class="edge">
<title>0&#45;&gt;13</title>
<path fill="none" stroke="black" d="M774.9,-101.78C820.09,-97.66 914.4,-87.53 992.25,-69 1036.96,-58.36 1047.02,-51.62 1090.25,-36 1092.76,-35.09 1095.35,-34.14 1097.95,-33.17"/>
<polygon fill="black" stroke="black" points="1099.21,-36.43 1107.33,-29.62 1096.73,-29.89 1099.21,-36.43"/>
<text text-anchor="middle" x="1055.75" y="-57.8" font-family="Times,serif" font-size="14.00">dep</text>
</g>
<!-- 14 -->
<g id="node15" class="node">
<title>14</title>
<ellipse fill="none" stroke="black" cx="1214.25" cy="-18" rx="27" ry="18"/>
<text text-anchor="middle" x="1214.25" y="-14.3" font-family="Times,serif" font-size="14.00">de</text>
</g>
<!-- 0&#45;&gt;14 -->
<g id="edge14" class="edge">
<title>0&#45;&gt;14</title>
<path fill="none" stroke="black" d="M775.07,-102.9C831.02,-100.22 964.09,-91.8 1073.25,-69 1121.13,-59 1132.69,-53.82 1178.25,-36 1180.08,-35.28 1181.95,-34.51 1183.83,-33.71"/>
<polygon fill="black" stroke="black" points="1185.44,-36.83 1193.14,-29.56 1182.58,-30.44 1185.44,-36.83"/>
<text text-anchor="middle" x="1143.75" y="-57.8" font-family="Times,serif" font-size="14.00">dep</text>
</g>
<!-- 15 -->
<g id="node16" class="node">
<title>15</title>
<ellipse fill="none" stroke="black" cx="1286.25" cy="-18" rx="27" ry="18"/>
<text text-anchor="middle" x="1286.25" y="-14.3" font-family="Times,serif" font-size="14.00">o</text>
</g>
<!-- 0&#45;&gt;15 -->
<g id="edge15" class="edge">
<title>0&#45;&gt;15</title>
<path fill="none" stroke="black" d="M775.69,-104.22C842.52,-104.2 1018.69,-100.85 1161.25,-69 1194.88,-61.49 1231.23,-46.04 1256.02,-34.3"/>
<polygon fill="black" stroke="black" points="1257.76,-37.34 1265.24,-29.84 1254.71,-31.04 1257.76,-37.34"/>
<text text-anchor="middle" x="1220.75" y="-57.8" font-family="Times,serif" font-size="14.00">dep</text>
</g>
<!-- 16 -->
<g id="node17" class="node">
<title>16</title>
<ellipse fill="none" stroke="black" cx="1395.25" cy="-18" rx="64.19" ry="18"/>
<text text-anchor="middle" x="1395.25" y="-14.3" font-family="Times,serif" font-size="14.00">profissional</text>
</g>
<!-- 0&#45;&gt;16 -->
<g id="edge16" class="edge">
<title>0&#45;&gt;16</title>
<path fill="none" stroke="black" d="M775.36,-104.3C849.96,-104.65 1064.25,-102.43 1238.25,-69 1276.65,-61.62 1318.81,-47.87 1349.76,-36.65"/>
<polygon fill="black" stroke="black" points="1351.22,-39.84 1359.4,-33.11 1348.8,-33.27 1351.22,-39.84"/>
<text text-anchor="middle" x="1309.75" y="-57.8" font-family="Times,serif" font-size="14.00">dep</text>
</g>
<!-- 17 -->
<g id="node18" class="node">
<title>17</title>
<ellipse fill="none" stroke="black" cx="1504.25" cy="-18" rx="27" ry="18"/>
<text text-anchor="middle" x="1504.25" y="-14.3" font-family="Times,serif" font-size="14.00">.</text>
</g>
<!-- 0&#45;&gt;17 -->
<g id="edge17" class="edge">
<title>0&#45;&gt;17</title>
<path fill="none" stroke="black" d="M775.25,-103.99C858.17,-103.61 1116.25,-99.84 1327.25,-69 1390.93,-59.69 1407.48,-57.19 1468.25,-36 1470.16,-35.33 1472.1,-34.6 1474.04,-33.82"/>
<polygon fill="black" stroke="black" points="1475.85,-36.85 1483.62,-29.65 1473.05,-30.43 1475.85,-36.85"/>
<text text-anchor="middle" x="1424.75" y="-57.8" font-family="Times,serif" font-size="14.00">dep</text>
</g>
</g>
</svg>
