<?xml version="1.0" encoding="UTF-8" standalone="no"?>
<!DOCTYPE svg PUBLIC "-//W3C//DTD SVG 1.1//EN"
 "http://www.w3.org/Graphics/SVG/1.1/DTD/svg11.dtd">
<!-- Generated by graphviz version 2.42.4 (0)
 -->
<!-- Pages: 1 -->
<svg width="2848pt" height="131pt"
 viewBox="0.00 0.00 2848.00 131.00" xmlns="http://www.w3.org/2000/svg" xmlns:xlink="http://www.w3.org/1999/xlink">
<g id="graph0" class="graph" transform="scale(1 1) rotate(0) translate(4 127)">
<polygon fill="white" stroke="transparent" points="-4,4 -4,-127 2844,-127 2844,4 -4,4"/>
<!-- 0 -->
<g id="node1" class="node">
<title>0</title>
<ellipse fill="none" stroke="black" cx="1309" cy="-105" rx="29.5" ry="18"/>
<text text-anchor="middle" x="1309" y="-101.3" font-family="Times,serif" font-size="14.00">Não</text>
</g>
<!-- 1 -->
<g id="node2" class="node">
<title>1</title>
<ellipse fill="none" stroke="black" cx="27" cy="-18" rx="27" ry="18"/>
<text text-anchor="middle" x="27" y="-14.3" font-family="Times,serif" font-size="14.00">é</text>
</g>
<!-- 0&#45;&gt;1 -->
<g id="edge1" class="edge">
<title>0&#45;&gt;1</title>
<path fill="none" stroke="black" d="M1279.74,-103.67C1111.15,-101.68 267.42,-90.71 154,-69 119.12,-62.33 81.56,-46.33 56.41,-34.22"/>
<polygon fill="black" stroke="black" points="57.92,-31.06 47.41,-29.79 54.84,-37.34 57.92,-31.06"/>
<text text-anchor="middle" x="167.5" y="-57.8" font-family="Times,serif" font-size="14.00">dep</text>
</g>
<!-- 2 -->
<g id="node3" class="node">
<title>2</title>
<ellipse fill="none" stroke="black" cx="103" cy="-18" rx="31.4" ry="18"/>
<text text-anchor="middle" x="103" y="-14.3" font-family="Times,serif" font-size="14.00">caso</text>
</g>
<!-- 0&#45;&gt;2 -->
<g id="edge2" class="edge">
<title>0&#45;&gt;2</title>
<path fill="none" stroke="black" d="M1279.37,-104.23C1128.63,-105.24 445.84,-107.57 238,-69 201.67,-62.26 162.28,-46.63 135.47,-34.62"/>
<polygon fill="black" stroke="black" points="136.75,-31.36 126.2,-30.39 133.84,-37.72 136.75,-31.36"/>
<text text-anchor="middle" x="251.5" y="-57.8" font-family="Times,serif" font-size="14.00">dep</text>
</g>
<!-- 3 -->
<g id="node4" class="node">
<title>3</title>
<ellipse fill="none" stroke="black" cx="184" cy="-18" rx="31.7" ry="18"/>
<text text-anchor="middle" x="184" y="-14.3" font-family="Times,serif" font-size="14.00">para</text>
</g>
<!-- 0&#45;&gt;3 -->
<g id="edge3" class="edge">
<title>0&#45;&gt;3</title>
<path fill="none" stroke="black" d="M1279.4,-104.1C1136.08,-104.41 513.42,-103.68 323,-69 285.53,-62.18 244.77,-46.45 217.13,-34.44"/>
<polygon fill="black" stroke="black" points="218.49,-31.21 207.93,-30.37 215.66,-37.61 218.49,-31.21"/>
<text text-anchor="middle" x="336.5" y="-57.8" font-family="Times,serif" font-size="14.00">dep</text>
</g>
<!-- 4 -->
<g id="node5" class="node">
<title>4</title>
<ellipse fill="none" stroke="black" cx="275" cy="-18" rx="40.89" ry="18"/>
<text text-anchor="middle" x="275" y="-14.3" font-family="Times,serif" font-size="14.00">menos</text>
</g>
<!-- 0&#45;&gt;4 -->
<g id="edge4" class="edge">
<title>0&#45;&gt;4</title>
<path fill="none" stroke="black" d="M1279.6,-104.15C1143.97,-104.66 577.88,-104.57 405,-69 371.82,-62.17 336.02,-47.84 310.41,-36.27"/>
<polygon fill="black" stroke="black" points="311.66,-32.99 301.11,-31.99 308.73,-39.35 311.66,-32.99"/>
<text text-anchor="middle" x="418.5" y="-57.8" font-family="Times,serif" font-size="14.00">dep</text>
</g>
<!-- 5 -->
<g id="node6" class="node">
<title>5</title>
<ellipse fill="none" stroke="black" cx="361" cy="-18" rx="27" ry="18"/>
<text text-anchor="middle" x="361" y="-14.3" font-family="Times,serif" font-size="14.00">,</text>
</g>
<!-- 0&#45;&gt;5 -->
<g id="edge5" class="edge">
<title>0&#45;&gt;5</title>
<path fill="none" stroke="black" d="M1279.65,-104.01C1151.53,-103.85 640.75,-101.18 484,-69 450.71,-62.17 414.97,-46.62 390.64,-34.66"/>
<polygon fill="black" stroke="black" points="392.1,-31.48 381.59,-30.12 388.96,-37.73 392.1,-31.48"/>
<text text-anchor="middle" x="497.5" y="-57.8" font-family="Times,serif" font-size="14.00">dep</text>
</g>
<!-- 6 -->
<g id="node7" class="node">
<title>6</title>
<ellipse fill="none" stroke="black" cx="436" cy="-18" rx="29.8" ry="18"/>
<text text-anchor="middle" x="436" y="-14.3" font-family="Times,serif" font-size="14.00">pois</text>
</g>
<!-- 0&#45;&gt;6 -->
<g id="edge6" class="edge">
<title>0&#45;&gt;6</title>
<path fill="none" stroke="black" d="M1279.8,-103.79C1160.03,-102.77 706.24,-97.06 566,-69 531.1,-62.02 493.35,-46.53 467.57,-34.63"/>
<polygon fill="black" stroke="black" points="468.85,-31.37 458.31,-30.27 465.87,-37.7 468.85,-31.37"/>
<text text-anchor="middle" x="579.5" y="-57.8" font-family="Times,serif" font-size="14.00">dep</text>
</g>
<!-- 7 -->
<g id="node8" class="node">
<title>7</title>
<ellipse fill="none" stroke="black" cx="511" cy="-18" rx="27" ry="18"/>
<text text-anchor="middle" x="511" y="-14.3" font-family="Times,serif" font-size="14.00">são</text>
</g>
<!-- 0&#45;&gt;7 -->
<g id="edge7" class="edge">
<title>0&#45;&gt;7</title>
<path fill="none" stroke="black" d="M1279.88,-103.32C1170.16,-100.62 781.8,-89.78 660,-69 608.43,-60.2 595.92,-54.56 547,-36 545.16,-35.3 543.28,-34.55 541.4,-33.76"/>
<polygon fill="black" stroke="black" points="542.64,-30.48 532.08,-29.63 539.81,-36.88 542.64,-30.48"/>
<text text-anchor="middle" x="673.5" y="-57.8" font-family="Times,serif" font-size="14.00">dep</text>
</g>
<!-- 8 -->
<g id="node9" class="node">
<title>8</title>
<ellipse fill="none" stroke="black" cx="602" cy="-18" rx="46.29" ry="18"/>
<text text-anchor="middle" x="602" y="-14.3" font-family="Times,serif" font-size="14.00">gémeos</text>
</g>
<!-- 0&#45;&gt;8 -->
<g id="edge8" class="edge">
<title>0&#45;&gt;8</title>
<path fill="none" stroke="black" d="M1279.74,-103.29C1178.79,-100.68 845.62,-90.58 741,-69 705.84,-61.75 667.57,-47.47 640.1,-36.03"/>
<polygon fill="black" stroke="black" points="641.43,-32.79 630.86,-32.11 638.7,-39.24 641.43,-32.79"/>
<text text-anchor="middle" x="754.5" y="-57.8" font-family="Times,serif" font-size="14.00">dep</text>
</g>
<!-- 9 -->
<g id="node10" class="node">
<title>9</title>
<ellipse fill="none" stroke="black" cx="693" cy="-18" rx="27" ry="18"/>
<text text-anchor="middle" x="693" y="-14.3" font-family="Times,serif" font-size="14.00">,</text>
</g>
<!-- 0&#45;&gt;9 -->
<g id="edge9" class="edge">
<title>0&#45;&gt;9</title>
<path fill="none" stroke="black" d="M1279.88,-103.03C1188.19,-99.79 906.21,-88.47 817,-69 783.57,-61.7 747.52,-46.23 722.95,-34.41"/>
<polygon fill="black" stroke="black" points="724.33,-31.19 713.81,-29.93 721.25,-37.48 724.33,-31.19"/>
<text text-anchor="middle" x="830.5" y="-57.8" font-family="Times,serif" font-size="14.00">dep</text>
</g>
<!-- 10 -->
<g id="node11" class="node">
<title>10</title>
<ellipse fill="none" stroke="black" cx="768" cy="-18" rx="29.8" ry="18"/>
<text text-anchor="middle" x="768" y="-14.3" font-family="Times,serif" font-size="14.00">mas</text>
</g>
<!-- 0&#45;&gt;10 -->
<g id="edge10" class="edge">
<title>0&#45;&gt;10</title>
<path fill="none" stroke="black" d="M1279.57,-104.35C1210.9,-104.56 1035.18,-101.57 893,-69 860.01,-61.44 824.36,-46.44 799.6,-34.83"/>
<polygon fill="black" stroke="black" points="800.88,-31.57 790.35,-30.42 797.87,-37.88 800.88,-31.57"/>
<text text-anchor="middle" x="906.5" y="-57.8" font-family="Times,serif" font-size="14.00">dep</text>
</g>
<!-- 11 -->
<g id="node12" class="node">
<title>11</title>
<ellipse fill="none" stroke="black" cx="843" cy="-18" rx="27" ry="18"/>
<text text-anchor="middle" x="843" y="-14.3" font-family="Times,serif" font-size="14.00">em</text>
</g>
<!-- 0&#45;&gt;11 -->
<g id="edge11" class="edge">
<title>0&#45;&gt;11</title>
<path fill="none" stroke="black" d="M1279.58,-103.38C1220.29,-101.6 1082.46,-94.78 970,-69 935.59,-61.11 898.23,-45.47 872.99,-33.77"/>
<polygon fill="black" stroke="black" points="874.49,-30.61 863.95,-29.51 871.5,-36.94 874.49,-30.61"/>
<text text-anchor="middle" x="983.5" y="-57.8" font-family="Times,serif" font-size="14.00">dep</text>
</g>
<!-- 12 -->
<g id="node13" class="node">
<title>12</title>
<ellipse fill="none" stroke="black" cx="919" cy="-18" rx="30.59" ry="18"/>
<text text-anchor="middle" x="919" y="-14.3" font-family="Times,serif" font-size="14.00">este</text>
</g>
<!-- 0&#45;&gt;12 -->
<g id="edge12" class="edge">
<title>0&#45;&gt;12</title>
<path fill="none" stroke="black" d="M1280.03,-102.22C1231.44,-98.77 1130.73,-89.61 1048,-69 1014.11,-60.56 977.09,-45.57 951.44,-34.2"/>
<polygon fill="black" stroke="black" points="952.75,-30.95 942.2,-30.04 949.88,-37.34 952.75,-30.95"/>
<text text-anchor="middle" x="1061.5" y="-57.8" font-family="Times,serif" font-size="14.00">dep</text>
</g>
<!-- 13 -->
<g id="node14" class="node">
<title>13</title>
<ellipse fill="none" stroke="black" cx="999" cy="-18" rx="31.4" ry="18"/>
<text text-anchor="middle" x="999" y="-14.3" font-family="Times,serif" font-size="14.00">caso</text>
</g>
<!-- 0&#45;&gt;13 -->
<g id="edge13" class="edge">
<title>0&#45;&gt;13</title>
<path fill="none" stroke="black" d="M1280.4,-100.55C1243.01,-95.63 1175.72,-85.32 1120,-69 1082.69,-58.07 1074.89,-50.94 1039,-36 1036.96,-35.15 1034.87,-34.28 1032.76,-33.39"/>
<polygon fill="black" stroke="black" points="1034.09,-30.15 1023.51,-29.49 1031.37,-36.6 1034.09,-30.15"/>
<text text-anchor="middle" x="1133.5" y="-57.8" font-family="Times,serif" font-size="14.00">dep</text>
</g>
<!-- 14 -->
<g id="node15" class="node">
<title>14</title>
<ellipse fill="none" stroke="black" cx="1075" cy="-18" rx="27" ry="18"/>
<text text-anchor="middle" x="1075" y="-14.3" font-family="Times,serif" font-size="14.00">,</text>
</g>
<!-- 0&#45;&gt;14 -->
<g id="edge14" class="edge">
<title>0&#45;&gt;14</title>
<path fill="none" stroke="black" d="M1282.26,-97.28C1257.54,-90.83 1219.92,-80.41 1188,-69 1152.94,-56.47 1144.95,-51.29 1111,-36 1109.2,-35.19 1107.36,-34.35 1105.51,-33.5"/>
<polygon fill="black" stroke="black" points="1106.8,-30.24 1096.26,-29.2 1103.85,-36.59 1106.8,-30.24"/>
<text text-anchor="middle" x="1201.5" y="-57.8" font-family="Times,serif" font-size="14.00">dep</text>
</g>
<!-- 15 -->
<g id="node16" class="node">
<title>15</title>
<ellipse fill="none" stroke="black" cx="1147" cy="-18" rx="27" ry="18"/>
<text text-anchor="middle" x="1147" y="-14.3" font-family="Times,serif" font-size="14.00">os</text>
</g>
<!-- 0&#45;&gt;15 -->
<g id="edge15" class="edge">
<title>0&#45;&gt;15</title>
<path fill="none" stroke="black" d="M1287.49,-92.71C1258.97,-77.75 1208.54,-51.29 1176.49,-34.47"/>
<polygon fill="black" stroke="black" points="1178.06,-31.34 1167.58,-29.8 1174.81,-37.54 1178.06,-31.34"/>
<text text-anchor="middle" x="1251.5" y="-57.8" font-family="Times,serif" font-size="14.00">dep</text>
</g>
<!-- 16 -->
<g id="node17" class="node">
<title>16</title>
<ellipse fill="none" stroke="black" cx="1249" cy="-18" rx="57.39" ry="18"/>
<text text-anchor="middle" x="1249" y="-14.3" font-family="Times,serif" font-size="14.00">chamados</text>
</g>
<!-- 0&#45;&gt;16 -->
<g id="edge16" class="edge">
<title>0&#45;&gt;16</title>
<path fill="none" stroke="black" d="M1297.71,-88.01C1289,-75.67 1276.78,-58.35 1266.76,-44.15"/>
<polygon fill="black" stroke="black" points="1269.48,-41.94 1260.85,-35.79 1263.76,-45.98 1269.48,-41.94"/>
<text text-anchor="middle" x="1296.5" y="-57.8" font-family="Times,serif" font-size="14.00">dep</text>
</g>
<!-- 17 -->
<g id="node18" class="node">
<title>17</title>
<ellipse fill="none" stroke="black" cx="1370" cy="-18" rx="46.29" ry="18"/>
<text text-anchor="middle" x="1370" y="-14.3" font-family="Times,serif" font-size="14.00">gémeos</text>
</g>
<!-- 0&#45;&gt;17 -->
<g id="edge17" class="edge">
<title>0&#45;&gt;17</title>
<path fill="none" stroke="black" d="M1320.47,-88.01C1329.39,-75.59 1341.92,-58.13 1352.15,-43.88"/>
<polygon fill="black" stroke="black" points="1355.17,-45.66 1358.16,-35.5 1349.49,-41.58 1355.17,-45.66"/>
<text text-anchor="middle" x="1357.5" y="-57.8" font-family="Times,serif" font-size="14.00">dep</text>
</g>
<!-- 18 -->
<g id="node19" class="node">
<title>18</title>
<ellipse fill="none" stroke="black" cx="1472" cy="-18" rx="37.89" ry="18"/>
<text text-anchor="middle" x="1472" y="-14.3" font-family="Times,serif" font-size="14.00">falsos</text>
</g>
<!-- 0&#45;&gt;18 -->
<g id="edge18" class="edge">
<title>0&#45;&gt;18</title>
<path fill="none" stroke="black" d="M1330.65,-92.71C1358.15,-78.37 1405.94,-53.45 1438.25,-36.6"/>
<polygon fill="black" stroke="black" points="1440.08,-39.59 1447.33,-31.86 1436.85,-33.38 1440.08,-39.59"/>
<text text-anchor="middle" x="1414.5" y="-57.8" font-family="Times,serif" font-size="14.00">dep</text>
</g>
<!-- 19 -->
<g id="node20" class="node">
<title>19</title>
<ellipse fill="none" stroke="black" cx="1555" cy="-18" rx="27" ry="18"/>
<text text-anchor="middle" x="1555" y="-14.3" font-family="Times,serif" font-size="14.00">,</text>
</g>
<!-- 0&#45;&gt;19 -->
<g id="edge19" class="edge">
<title>0&#45;&gt;19</title>
<path fill="none" stroke="black" d="M1335.59,-97.14C1360.64,-90.51 1399.12,-79.89 1432,-69 1471.26,-56 1480.94,-52.18 1519,-36 1520.81,-35.23 1522.67,-34.42 1524.53,-33.59"/>
<polygon fill="black" stroke="black" points="1526.17,-36.69 1533.8,-29.35 1523.26,-30.33 1526.17,-36.69"/>
<text text-anchor="middle" x="1488.5" y="-57.8" font-family="Times,serif" font-size="14.00">dep</text>
</g>
<!-- 20 -->
<g id="node21" class="node">
<title>20</title>
<ellipse fill="none" stroke="black" cx="1660" cy="-18" rx="60.39" ry="18"/>
<text text-anchor="middle" x="1660" y="-14.3" font-family="Times,serif" font-size="14.00">dizigóticos</text>
</g>
<!-- 0&#45;&gt;20 -->
<g id="edge20" class="edge">
<title>0&#45;&gt;20</title>
<path fill="none" stroke="black" d="M1337.31,-100.22C1375.82,-94.81 1446.69,-83.82 1506,-69 1542.79,-59.81 1583.57,-46.42 1613.92,-35.81"/>
<polygon fill="black" stroke="black" points="1615.12,-39.1 1623.39,-32.47 1612.79,-32.49 1615.12,-39.1"/>
<text text-anchor="middle" x="1571.5" y="-57.8" font-family="Times,serif" font-size="14.00">dep</text>
</g>
<!-- 21 -->
<g id="node22" class="node">
<title>21</title>
<ellipse fill="none" stroke="black" cx="1765" cy="-18" rx="27" ry="18"/>
<text text-anchor="middle" x="1765" y="-14.3" font-family="Times,serif" font-size="14.00">em</text>
</g>
<!-- 0&#45;&gt;21 -->
<g id="edge21" class="edge">
<title>0&#45;&gt;21</title>
<path fill="none" stroke="black" d="M1338.12,-102.79C1407.63,-99.15 1587.98,-85.3 1729,-36 1730.91,-35.33 1732.85,-34.6 1734.79,-33.81"/>
<polygon fill="black" stroke="black" points="1736.6,-36.85 1744.37,-29.65 1733.8,-30.43 1736.6,-36.85"/>
<text text-anchor="middle" x="1676.5" y="-57.8" font-family="Times,serif" font-size="14.00">dep</text>
</g>
<!-- 22 -->
<g id="node23" class="node">
<title>22</title>
<ellipse fill="none" stroke="black" cx="1837" cy="-18" rx="27" ry="18"/>
<text text-anchor="middle" x="1837" y="-14.3" font-family="Times,serif" font-size="14.00">a</text>
</g>
<!-- 0&#45;&gt;22 -->
<g id="edge22" class="edge">
<title>0&#45;&gt;22</title>
<path fill="none" stroke="black" d="M1338.27,-103.41C1403.01,-101.67 1562.97,-94.87 1694,-69 1742.82,-59.36 1754.6,-54 1801,-36 1802.84,-35.29 1804.71,-34.52 1806.59,-33.73"/>
<polygon fill="black" stroke="black" points="1808.19,-36.85 1815.9,-29.58 1805.34,-30.45 1808.19,-36.85"/>
<text text-anchor="middle" x="1765.5" y="-57.8" font-family="Times,serif" font-size="14.00">dep</text>
</g>
<!-- 23 -->
<g id="node24" class="node">
<title>23</title>
<ellipse fill="none" stroke="black" cx="1942" cy="-18" rx="59.59" ry="18"/>
<text text-anchor="middle" x="1942" y="-14.3" font-family="Times,serif" font-size="14.00">linguagem</text>
</g>
<!-- 0&#45;&gt;23 -->
<g id="edge23" class="edge">
<title>0&#45;&gt;23</title>
<path fill="none" stroke="black" d="M1338.43,-104.17C1413.35,-104.11 1617.06,-100.77 1783,-69 1822.37,-61.46 1865.68,-47.44 1897.14,-36.16"/>
<polygon fill="black" stroke="black" points="1898.72,-39.32 1906.92,-32.61 1896.33,-32.74 1898.72,-39.32"/>
<text text-anchor="middle" x="1854.5" y="-57.8" font-family="Times,serif" font-size="14.00">dep</text>
</g>
<!-- 24 -->
<g id="node25" class="node">
<title>24</title>
<ellipse fill="none" stroke="black" cx="2064" cy="-18" rx="44.39" ry="18"/>
<text text-anchor="middle" x="2064" y="-14.3" font-family="Times,serif" font-size="14.00">técnica</text>
</g>
<!-- 0&#45;&gt;24 -->
<g id="edge24" class="edge">
<title>0&#45;&gt;24</title>
<path fill="none" stroke="black" d="M1338.49,-103.94C1422.41,-103.38 1669.55,-99.1 1872,-69 1924.07,-61.26 1982.41,-44.94 2020.96,-33.04"/>
<polygon fill="black" stroke="black" points="2022.3,-36.29 2030.81,-29.97 2020.22,-29.61 2022.3,-36.29"/>
<text text-anchor="middle" x="1955.5" y="-57.8" font-family="Times,serif" font-size="14.00">dep</text>
</g>
<!-- 25 -->
<g id="node26" class="node">
<title>25</title>
<ellipse fill="none" stroke="black" cx="2153" cy="-18" rx="27" ry="18"/>
<text text-anchor="middle" x="2153" y="-14.3" font-family="Times,serif" font-size="14.00">,</text>
</g>
<!-- 0&#45;&gt;25 -->
<g id="edge25" class="edge">
<title>0&#45;&gt;25</title>
<path fill="none" stroke="black" d="M1338.3,-104.25C1431.52,-104.67 1729.49,-103.06 1973,-69 2038.03,-59.9 2054.95,-57.48 2117,-36 2118.91,-35.34 2120.85,-34.61 2122.8,-33.83"/>
<polygon fill="black" stroke="black" points="2124.6,-36.86 2132.38,-29.67 2121.81,-30.44 2124.6,-36.86"/>
<text text-anchor="middle" x="2072.5" y="-57.8" font-family="Times,serif" font-size="14.00">dep</text>
</g>
<!-- 26 -->
<g id="node27" class="node">
<title>26</title>
<ellipse fill="none" stroke="black" cx="2225" cy="-18" rx="27" ry="18"/>
<text text-anchor="middle" x="2225" y="-14.3" font-family="Times,serif" font-size="14.00">por</text>
</g>
<!-- 0&#45;&gt;26 -->
<g id="edge26" class="edge">
<title>0&#45;&gt;26</title>
<path fill="none" stroke="black" d="M1338.41,-103.77C1462.25,-102.63 1941.7,-96.49 2090,-69 2127.21,-62.1 2167.63,-45.88 2194.44,-33.77"/>
<polygon fill="black" stroke="black" points="2196.05,-36.88 2203.67,-29.52 2193.13,-30.52 2196.05,-36.88"/>
<text text-anchor="middle" x="2157.5" y="-57.8" font-family="Times,serif" font-size="14.00">dep</text>
</g>
<!-- 27 -->
<g id="node28" class="node">
<title>27</title>
<ellipse fill="none" stroke="black" cx="2310" cy="-18" rx="39.79" ry="18"/>
<text text-anchor="middle" x="2310" y="-14.3" font-family="Times,serif" font-size="14.00">serem</text>
</g>
<!-- 0&#45;&gt;27 -->
<g id="edge27" class="edge">
<title>0&#45;&gt;27</title>
<path fill="none" stroke="black" d="M1338.46,-104.05C1470.66,-104.07 2009.75,-102.08 2175,-69 2209.81,-62.03 2247.56,-47.4 2274.26,-35.76"/>
<polygon fill="black" stroke="black" points="2275.86,-38.88 2283.58,-31.62 2273.02,-32.48 2275.86,-38.88"/>
<text text-anchor="middle" x="2238.5" y="-57.8" font-family="Times,serif" font-size="14.00">dep</text>
</g>
<!-- 28 -->
<g id="node29" class="node">
<title>28</title>
<ellipse fill="none" stroke="black" cx="2416" cy="-18" rx="48.19" ry="18"/>
<text text-anchor="middle" x="2416" y="-14.3" font-family="Times,serif" font-size="14.00">gerados</text>
</g>
<!-- 0&#45;&gt;28 -->
<g id="edge28" class="edge">
<title>0&#45;&gt;28</title>
<path fill="none" stroke="black" d="M1338.34,-103.96C1477.65,-103.63 2073.17,-100.37 2256,-69 2297.46,-61.89 2343.11,-46.87 2375,-35.13"/>
<polygon fill="black" stroke="black" points="2376.29,-38.39 2384.44,-31.61 2373.84,-31.83 2376.29,-38.39"/>
<text text-anchor="middle" x="2328.5" y="-57.8" font-family="Times,serif" font-size="14.00">dep</text>
</g>
<!-- 29 -->
<g id="node30" class="node">
<title>29</title>
<ellipse fill="none" stroke="black" cx="2509" cy="-18" rx="27" ry="18"/>
<text text-anchor="middle" x="2509" y="-14.3" font-family="Times,serif" font-size="14.00">em</text>
</g>
<!-- 0&#45;&gt;29 -->
<g id="edge29" class="edge">
<title>0&#45;&gt;29</title>
<path fill="none" stroke="black" d="M1338.6,-103.88C1486.25,-103.16 2143.88,-98.3 2346,-69 2403.72,-60.63 2418.17,-55.87 2473,-36 2474.85,-35.33 2476.74,-34.6 2478.63,-33.82"/>
<polygon fill="black" stroke="black" points="2480.2,-36.96 2487.96,-29.74 2477.4,-30.54 2480.2,-36.96"/>
<text text-anchor="middle" x="2433.5" y="-57.8" font-family="Times,serif" font-size="14.00">dep</text>
</g>
<!-- 30 -->
<g id="node31" class="node">
<title>30</title>
<ellipse fill="none" stroke="black" cx="2594" cy="-18" rx="40.09" ry="18"/>
<text text-anchor="middle" x="2594" y="-14.3" font-family="Times,serif" font-size="14.00">óvulos</text>
</g>
<!-- 0&#45;&gt;30 -->
<g id="edge30" class="edge">
<title>0&#45;&gt;30</title>
<path fill="none" stroke="black" d="M1338.2,-103.64C1505.51,-101.49 2338.8,-89.82 2451,-69 2488.24,-62.09 2528.84,-47.13 2557.23,-35.36"/>
<polygon fill="black" stroke="black" points="2558.88,-38.47 2566.74,-31.35 2556.16,-32.02 2558.88,-38.47"/>
<text text-anchor="middle" x="2521.5" y="-57.8" font-family="Times,serif" font-size="14.00">dep</text>
</g>
<!-- 31 -->
<g id="node32" class="node">
<title>31</title>
<ellipse fill="none" stroke="black" cx="2710" cy="-18" rx="57.69" ry="18"/>
<text text-anchor="middle" x="2710" y="-14.3" font-family="Times,serif" font-size="14.00">diferentes</text>
</g>
<!-- 0&#45;&gt;31 -->
<g id="edge31" class="edge">
<title>0&#45;&gt;31</title>
<path fill="none" stroke="black" d="M1338.29,-104.18C1501.2,-105.04 2296.99,-107.18 2539,-69 2582.66,-62.11 2630.86,-47.34 2664.92,-35.62"/>
<polygon fill="black" stroke="black" points="2666.29,-38.85 2674.58,-32.25 2663.99,-32.24 2666.29,-38.85"/>
<text text-anchor="middle" x="2619.5" y="-57.8" font-family="Times,serif" font-size="14.00">dep</text>
</g>
<!-- 32 -->
<g id="node33" class="node">
<title>32</title>
<ellipse fill="none" stroke="black" cx="2813" cy="-18" rx="27" ry="18"/>
<text text-anchor="middle" x="2813" y="-14.3" font-family="Times,serif" font-size="14.00">.</text>
</g>
<!-- 0&#45;&gt;32 -->
<g id="edge32" class="edge">
<title>0&#45;&gt;32</title>
<path fill="none" stroke="black" d="M1338.33,-104.04C1508.81,-104.18 2373.54,-103.15 2637,-69 2700.4,-60.78 2716.65,-57.1 2777,-36 2778.91,-35.33 2780.85,-34.6 2782.79,-33.81"/>
<polygon fill="black" stroke="black" points="2784.6,-36.85 2792.37,-29.65 2781.8,-30.43 2784.6,-36.85"/>
<text text-anchor="middle" x="2733.5" y="-57.8" font-family="Times,serif" font-size="14.00">dep</text>
</g>
</g>
</svg>
