<?xml version="1.0" encoding="UTF-8" standalone="no"?>
<!DOCTYPE svg PUBLIC "-//W3C//DTD SVG 1.1//EN"
 "http://www.w3.org/Graphics/SVG/1.1/DTD/svg11.dtd">
<!-- Generated by graphviz version 2.42.4 (0)
 -->
<!-- Pages: 1 -->
<svg width="1046pt" height="131pt"
 viewBox="0.00 0.00 1046.00 131.00" xmlns="http://www.w3.org/2000/svg" xmlns:xlink="http://www.w3.org/1999/xlink">
<g id="graph0" class="graph" transform="scale(1 1) rotate(0) translate(4 127)">
<polygon fill="white" stroke="transparent" points="-4,4 -4,-127 1042,-127 1042,4 -4,4"/>
<!-- 0 -->
<g id="node1" class="node">
<title>0</title>
<ellipse fill="none" stroke="black" cx="455" cy="-105" rx="32.49" ry="18"/>
<text text-anchor="middle" x="455" y="-101.3" font-family="Times,serif" font-size="14.00">Uma</text>
</g>
<!-- 1 -->
<g id="node2" class="node">
<title>1</title>
<ellipse fill="none" stroke="black" cx="27" cy="-18" rx="27" ry="18"/>
<text text-anchor="middle" x="27" y="-14.3" font-family="Times,serif" font-size="14.00">de</text>
</g>
<!-- 0&#45;&gt;1 -->
<g id="edge1" class="edge">
<title>0&#45;&gt;1</title>
<path fill="none" stroke="black" d="M422.71,-102.05C369.1,-98.36 258.55,-88.9 167,-69 119.61,-58.7 108.14,-53.73 63,-36 61.17,-35.28 59.29,-34.51 57.42,-33.71"/>
<polygon fill="black" stroke="black" points="58.67,-30.44 48.11,-29.55 55.81,-36.83 58.67,-30.44"/>
<text text-anchor="middle" x="180.5" y="-57.8" font-family="Times,serif" font-size="14.00">dep</text>
</g>
<!-- 2 -->
<g id="node3" class="node">
<title>2</title>
<ellipse fill="none" stroke="black" cx="101" cy="-18" rx="29.5" ry="18"/>
<text text-anchor="middle" x="101" y="-14.3" font-family="Times,serif" font-size="14.00">elas</text>
</g>
<!-- 0&#45;&gt;2 -->
<g id="edge2" class="edge">
<title>0&#45;&gt;2</title>
<path fill="none" stroke="black" d="M423.24,-100.15C365.35,-92.48 239.38,-72.78 139,-36 137.12,-35.31 135.2,-34.57 133.27,-33.8"/>
<polygon fill="black" stroke="black" points="134.27,-30.42 123.7,-29.77 131.55,-36.88 134.27,-30.42"/>
<text text-anchor="middle" x="263.5" y="-57.8" font-family="Times,serif" font-size="14.00">dep</text>
</g>
<!-- 3 -->
<g id="node4" class="node">
<title>3</title>
<ellipse fill="none" stroke="black" cx="197" cy="-18" rx="48.99" ry="18"/>
<text text-anchor="middle" x="197" y="-14.3" font-family="Times,serif" font-size="14.00">consiste</text>
</g>
<!-- 0&#45;&gt;3 -->
<g id="edge3" class="edge">
<title>0&#45;&gt;3</title>
<path fill="none" stroke="black" d="M425.38,-97.31C398.22,-90.92 357.03,-80.57 322,-69 292.9,-59.39 260.83,-46.51 236.45,-36.23"/>
<polygon fill="black" stroke="black" points="237.75,-32.98 227.18,-32.29 235.01,-39.42 237.75,-32.98"/>
<text text-anchor="middle" x="335.5" y="-57.8" font-family="Times,serif" font-size="14.00">dep</text>
</g>
<!-- 4 -->
<g id="node5" class="node">
<title>4</title>
<ellipse fill="none" stroke="black" cx="291" cy="-18" rx="27" ry="18"/>
<text text-anchor="middle" x="291" y="-14.3" font-family="Times,serif" font-size="14.00">em</text>
</g>
<!-- 0&#45;&gt;4 -->
<g id="edge4" class="edge">
<title>0&#45;&gt;4</title>
<path fill="none" stroke="black" d="M430.1,-93.18C415.14,-86.51 395.8,-77.62 379,-69 358.69,-58.58 336.32,-45.85 319.22,-35.85"/>
<polygon fill="black" stroke="black" points="320.71,-32.66 310.31,-30.6 317.15,-38.69 320.71,-32.66"/>
<text text-anchor="middle" x="392.5" y="-57.8" font-family="Times,serif" font-size="14.00">dep</text>
</g>
<!-- 5 -->
<g id="node6" class="node">
<title>5</title>
<ellipse fill="none" stroke="black" cx="373" cy="-18" rx="37.09" ry="18"/>
<text text-anchor="middle" x="373" y="-14.3" font-family="Times,serif" font-size="14.00">supor</text>
</g>
<!-- 0&#45;&gt;5 -->
<g id="edge5" class="edge">
<title>0&#45;&gt;5</title>
<path fill="none" stroke="black" d="M440.34,-88.8C427.79,-75.79 409.52,-56.86 395.18,-41.99"/>
<polygon fill="black" stroke="black" points="397.55,-39.41 388.09,-34.64 392.51,-44.27 397.55,-39.41"/>
<text text-anchor="middle" x="432.5" y="-57.8" font-family="Times,serif" font-size="14.00">dep</text>
</g>
<!-- 6 -->
<g id="node7" class="node">
<title>6</title>
<ellipse fill="none" stroke="black" cx="455" cy="-18" rx="27" ry="18"/>
<text text-anchor="middle" x="455" y="-14.3" font-family="Times,serif" font-size="14.00">a</text>
</g>
<!-- 0&#45;&gt;6 -->
<g id="edge6" class="edge">
<title>0&#45;&gt;6</title>
<path fill="none" stroke="black" d="M455,-86.8C455,-75.16 455,-59.55 455,-46.24"/>
<polygon fill="black" stroke="black" points="458.5,-46.18 455,-36.18 451.5,-46.18 458.5,-46.18"/>
<text text-anchor="middle" x="468.5" y="-57.8" font-family="Times,serif" font-size="14.00">dep</text>
</g>
<!-- 7 -->
<g id="node8" class="node">
<title>7</title>
<ellipse fill="none" stroke="black" cx="568" cy="-18" rx="67.69" ry="18"/>
<text text-anchor="middle" x="568" y="-14.3" font-family="Times,serif" font-size="14.00">coexistência</text>
</g>
<!-- 0&#45;&gt;7 -->
<g id="edge7" class="edge">
<title>0&#45;&gt;7</title>
<path fill="none" stroke="black" d="M473.41,-90.15C491,-76.92 517.8,-56.76 538.4,-41.27"/>
<polygon fill="black" stroke="black" points="540.63,-43.97 546.51,-35.16 536.42,-38.38 540.63,-43.97"/>
<text text-anchor="middle" x="532.5" y="-57.8" font-family="Times,serif" font-size="14.00">dep</text>
</g>
<!-- 8 -->
<g id="node9" class="node">
<title>8</title>
<ellipse fill="none" stroke="black" cx="681" cy="-18" rx="27" ry="18"/>
<text text-anchor="middle" x="681" y="-14.3" font-family="Times,serif" font-size="14.00">de</text>
</g>
<!-- 0&#45;&gt;8 -->
<g id="edge8" class="edge">
<title>0&#45;&gt;8</title>
<path fill="none" stroke="black" d="M482.38,-95.14C519.59,-82.88 588.03,-59.58 645,-36 646.82,-35.25 648.68,-34.45 650.55,-33.63"/>
<polygon fill="black" stroke="black" points="652.18,-36.74 659.83,-29.42 649.28,-30.36 652.18,-36.74"/>
<text text-anchor="middle" x="612.5" y="-57.8" font-family="Times,serif" font-size="14.00">dep</text>
</g>
<!-- 9 -->
<g id="node10" class="node">
<title>9</title>
<ellipse fill="none" stroke="black" cx="784" cy="-18" rx="57.69" ry="18"/>
<text text-anchor="middle" x="784" y="-14.3" font-family="Times,serif" font-size="14.00">Universos</text>
</g>
<!-- 0&#45;&gt;9 -->
<g id="edge9" class="edge">
<title>0&#45;&gt;9</title>
<path fill="none" stroke="black" d="M485.91,-98.94C521.07,-92.93 580.09,-82.05 630,-69 666.81,-59.38 707.75,-45.95 738.15,-35.44"/>
<polygon fill="black" stroke="black" points="739.35,-38.73 747.64,-32.13 737.04,-32.12 739.35,-38.73"/>
<text text-anchor="middle" x="695.5" y="-57.8" font-family="Times,serif" font-size="14.00">dep</text>
</g>
<!-- 10 -->
<g id="node11" class="node">
<title>10</title>
<ellipse fill="none" stroke="black" cx="913" cy="-18" rx="53.09" ry="18"/>
<text text-anchor="middle" x="913" y="-14.3" font-family="Times,serif" font-size="14.00">paralelos</text>
</g>
<!-- 0&#45;&gt;10 -->
<g id="edge10" class="edge">
<title>0&#45;&gt;10</title>
<path fill="none" stroke="black" d="M486.94,-100.71C535.85,-95.43 632.13,-84.11 713,-69 774.99,-57.41 789.92,-51.67 851,-36 855.07,-34.95 859.29,-33.85 863.52,-32.72"/>
<polygon fill="black" stroke="black" points="864.61,-36.05 873.36,-30.08 862.8,-29.29 864.61,-36.05"/>
<text text-anchor="middle" x="796.5" y="-57.8" font-family="Times,serif" font-size="14.00">dep</text>
</g>
<!-- 11 -->
<g id="node12" class="node">
<title>11</title>
<ellipse fill="none" stroke="black" cx="1011" cy="-18" rx="27" ry="18"/>
<text text-anchor="middle" x="1011" y="-14.3" font-family="Times,serif" font-size="14.00">.</text>
</g>
<!-- 0&#45;&gt;11 -->
<g id="edge11" class="edge">
<title>0&#45;&gt;11</title>
<path fill="none" stroke="black" d="M487.32,-101.99C550.39,-97.82 694.18,-87.07 814,-69 886.23,-58.11 905.7,-59.09 975,-36 976.92,-35.36 978.87,-34.65 980.82,-33.88"/>
<polygon fill="black" stroke="black" points="982.6,-36.92 990.41,-29.76 979.84,-30.49 982.6,-36.92"/>
<text text-anchor="middle" x="923.5" y="-57.8" font-family="Times,serif" font-size="14.00">dep</text>
</g>
</g>
</svg>
