<?xml version="1.0" encoding="UTF-8" standalone="no"?>
<!DOCTYPE svg PUBLIC "-//W3C//DTD SVG 1.1//EN"
 "http://www.w3.org/Graphics/SVG/1.1/DTD/svg11.dtd">
<!-- Generated by graphviz version 2.42.4 (0)
 -->
<!-- Pages: 1 -->
<svg width="2791pt" height="131pt"
 viewBox="0.00 0.00 2791.00 131.00" xmlns="http://www.w3.org/2000/svg" xmlns:xlink="http://www.w3.org/1999/xlink">
<g id="graph0" class="graph" transform="scale(1 1) rotate(0) translate(4 127)">
<polygon fill="white" stroke="transparent" points="-4,4 -4,-127 2787,-127 2787,4 -4,4"/>
<!-- 0 -->
<g id="node1" class="node">
<title>0</title>
<ellipse fill="none" stroke="black" cx="1317" cy="-105" rx="37.09" ry="18"/>
<text text-anchor="middle" x="1317" y="-101.3" font-family="Times,serif" font-size="14.00">Entre</text>
</g>
<!-- 1 -->
<g id="node2" class="node">
<title>1</title>
<ellipse fill="none" stroke="black" cx="27" cy="-18" rx="27" ry="18"/>
<text text-anchor="middle" x="27" y="-14.3" font-family="Times,serif" font-size="14.00">os</text>
</g>
<!-- 0&#45;&gt;1 -->
<g id="edge1" class="edge">
<title>0&#45;&gt;1</title>
<path fill="none" stroke="black" d="M1279.85,-103.89C1110.8,-103.22 413.22,-98.67 197,-69 136.23,-60.66 120.8,-56.53 63,-36 61.09,-35.32 59.16,-34.58 57.21,-33.79"/>
<polygon fill="black" stroke="black" points="58.21,-30.41 47.64,-29.61 55.4,-36.82 58.21,-30.41"/>
<text text-anchor="middle" x="210.5" y="-57.8" font-family="Times,serif" font-size="14.00">dep</text>
</g>
<!-- 2 -->
<g id="node3" class="node">
<title>2</title>
<ellipse fill="none" stroke="black" cx="134" cy="-18" rx="62.29" ry="18"/>
<text text-anchor="middle" x="134" y="-14.3" font-family="Times,serif" font-size="14.00">convidados</text>
</g>
<!-- 0&#45;&gt;2 -->
<g id="edge2" class="edge">
<title>0&#45;&gt;2</title>
<path fill="none" stroke="black" d="M1279.9,-104.12C1119.42,-104.45 484.3,-103.5 288,-69 249.78,-62.28 207.99,-48.27 177.6,-36.78"/>
<polygon fill="black" stroke="black" points="178.75,-33.47 168.16,-33.15 176.24,-40.01 178.75,-33.47"/>
<text text-anchor="middle" x="301.5" y="-57.8" font-family="Times,serif" font-size="14.00">dep</text>
</g>
<!-- 3 -->
<g id="node4" class="node">
<title>3</title>
<ellipse fill="none" stroke="black" cx="250" cy="-18" rx="36" ry="18"/>
<text text-anchor="middle" x="250" y="-14.3" font-family="Times,serif" font-size="14.00">estão</text>
</g>
<!-- 0&#45;&gt;3 -->
<g id="edge3" class="edge">
<title>0&#45;&gt;3</title>
<path fill="none" stroke="black" d="M1280.01,-103.46C1115.5,-100.96 454.33,-89.68 364,-69 334.88,-62.33 303.96,-48.29 281.68,-36.77"/>
<polygon fill="black" stroke="black" points="283.17,-33.6 272.69,-32.02 279.9,-39.79 283.17,-33.6"/>
<text text-anchor="middle" x="377.5" y="-57.8" font-family="Times,serif" font-size="14.00">dep</text>
</g>
<!-- 4 -->
<g id="node5" class="node">
<title>4</title>
<ellipse fill="none" stroke="black" cx="331" cy="-18" rx="27" ry="18"/>
<text text-anchor="middle" x="331" y="-14.3" font-family="Times,serif" font-size="14.00">o</text>
</g>
<!-- 0&#45;&gt;4 -->
<g id="edge4" class="edge">
<title>0&#45;&gt;4</title>
<path fill="none" stroke="black" d="M1279.98,-103.4C1123.38,-100.73 519.61,-89.23 437,-69 409.06,-62.16 379.66,-47.63 358.93,-35.99"/>
<polygon fill="black" stroke="black" points="360.46,-32.83 350.05,-30.88 356.97,-38.9 360.46,-32.83"/>
<text text-anchor="middle" x="450.5" y="-57.8" font-family="Times,serif" font-size="14.00">dep</text>
</g>
<!-- 5 -->
<g id="node6" class="node">
<title>5</title>
<ellipse fill="none" stroke="black" cx="403" cy="-18" rx="27" ry="18"/>
<text text-anchor="middle" x="403" y="-14.3" font-family="Times,serif" font-size="14.00">«</text>
</g>
<!-- 0&#45;&gt;5 -->
<g id="edge5" class="edge">
<title>0&#45;&gt;5</title>
<path fill="none" stroke="black" d="M1279.76,-104.28C1141.74,-105 659.76,-104.86 511,-69 482.48,-62.12 452.37,-47.49 431.21,-35.83"/>
<polygon fill="black" stroke="black" points="432.87,-32.74 422.44,-30.88 429.43,-38.84 432.87,-32.74"/>
<text text-anchor="middle" x="524.5" y="-57.8" font-family="Times,serif" font-size="14.00">dep</text>
</g>
<!-- 6 -->
<g id="node7" class="node">
<title>6</title>
<ellipse fill="none" stroke="black" cx="475" cy="-18" rx="27" ry="18"/>
<text text-anchor="middle" x="475" y="-14.3" font-family="Times,serif" font-size="14.00">rei</text>
</g>
<!-- 0&#45;&gt;6 -->
<g id="edge6" class="edge">
<title>0&#45;&gt;6</title>
<path fill="none" stroke="black" d="M1279.72,-104.01C1150.14,-103.76 719.88,-100.51 586,-69 556.61,-62.08 525.45,-47.31 503.66,-35.61"/>
<polygon fill="black" stroke="black" points="505.08,-32.4 494.63,-30.65 501.71,-38.54 505.08,-32.4"/>
<text text-anchor="middle" x="599.5" y="-57.8" font-family="Times,serif" font-size="14.00">dep</text>
</g>
<!-- 7 -->
<g id="node8" class="node">
<title>7</title>
<ellipse fill="none" stroke="black" cx="547" cy="-18" rx="27" ry="18"/>
<text text-anchor="middle" x="547" y="-14.3" font-family="Times,serif" font-size="14.00">de</text>
</g>
<!-- 0&#45;&gt;7 -->
<g id="edge7" class="edge">
<title>0&#45;&gt;7</title>
<path fill="none" stroke="black" d="M1279.97,-103.65C1159.83,-102.28 781.81,-95.86 663,-69 632.12,-62.02 599.17,-47.01 576.32,-35.25"/>
<polygon fill="black" stroke="black" points="577.65,-31.99 567.17,-30.44 574.39,-38.19 577.65,-31.99"/>
<text text-anchor="middle" x="676.5" y="-57.8" font-family="Times,serif" font-size="14.00">dep</text>
</g>
<!-- 8 -->
<g id="node9" class="node">
<title>8</title>
<ellipse fill="none" stroke="black" cx="619" cy="-18" rx="27" ry="18"/>
<text text-anchor="middle" x="619" y="-14.3" font-family="Times,serif" font-size="14.00">a</text>
</g>
<!-- 0&#45;&gt;8 -->
<g id="edge8" class="edge">
<title>0&#45;&gt;8</title>
<path fill="none" stroke="black" d="M1279.9,-103.2C1169.65,-100.59 845.28,-91.19 742,-69 708.77,-61.86 673.02,-46.36 648.68,-34.5"/>
<polygon fill="black" stroke="black" points="650.13,-31.31 639.62,-30 647.01,-37.58 650.13,-31.31"/>
<text text-anchor="middle" x="755.5" y="-57.8" font-family="Times,serif" font-size="14.00">dep</text>
</g>
<!-- 9 -->
<g id="node10" class="node">
<title>9</title>
<ellipse fill="none" stroke="black" cx="693" cy="-18" rx="29.5" ry="18"/>
<text text-anchor="middle" x="693" y="-14.3" font-family="Times,serif" font-size="14.00">soja</text>
</g>
<!-- 0&#45;&gt;9 -->
<g id="edge9" class="edge">
<title>0&#45;&gt;9</title>
<path fill="none" stroke="black" d="M1279.89,-102.8C1179.84,-99.35 906.11,-88.36 818,-69 784.75,-61.69 748.87,-46.51 724.11,-34.79"/>
<polygon fill="black" stroke="black" points="725.4,-31.52 714.88,-30.32 722.36,-37.83 725.4,-31.52"/>
<text text-anchor="middle" x="831.5" y="-57.8" font-family="Times,serif" font-size="14.00">dep</text>
</g>
<!-- 10 -->
<g id="node11" class="node">
<title>10</title>
<ellipse fill="none" stroke="black" cx="767" cy="-18" rx="27" ry="18"/>
<text text-anchor="middle" x="767" y="-14.3" font-family="Times,serif" font-size="14.00">»</text>
</g>
<!-- 0&#45;&gt;10 -->
<g id="edge10" class="edge">
<title>0&#45;&gt;10</title>
<path fill="none" stroke="black" d="M1279.83,-104.16C1205.74,-103.77 1034.74,-99.31 895,-69 860.27,-61.47 822.61,-45.77 797.2,-33.96"/>
<polygon fill="black" stroke="black" points="798.63,-30.76 788.09,-29.65 795.63,-37.09 798.63,-30.76"/>
<text text-anchor="middle" x="908.5" y="-57.8" font-family="Times,serif" font-size="14.00">dep</text>
</g>
<!-- 11 -->
<g id="node12" class="node">
<title>11</title>
<ellipse fill="none" stroke="black" cx="839" cy="-18" rx="27" ry="18"/>
<text text-anchor="middle" x="839" y="-14.3" font-family="Times,serif" font-size="14.00">,</text>
</g>
<!-- 0&#45;&gt;11 -->
<g id="edge11" class="edge">
<title>0&#45;&gt;11</title>
<path fill="none" stroke="black" d="M1279.93,-102.3C1218.37,-98.99 1091.4,-90.05 986,-69 935.53,-58.92 923.08,-54.37 875,-36 873.16,-35.3 871.28,-34.54 869.4,-33.75"/>
<polygon fill="black" stroke="black" points="870.65,-30.47 860.09,-29.61 867.81,-36.87 870.65,-30.47"/>
<text text-anchor="middle" x="999.5" y="-57.8" font-family="Times,serif" font-size="14.00">dep</text>
</g>
<!-- 12 -->
<g id="node13" class="node">
<title>12</title>
<ellipse fill="none" stroke="black" cx="925" cy="-18" rx="40.89" ry="18"/>
<text text-anchor="middle" x="925" y="-14.3" font-family="Times,serif" font-size="14.00">Olacyr</text>
</g>
<!-- 0&#45;&gt;12 -->
<g id="edge12" class="edge">
<title>0&#45;&gt;12</title>
<path fill="none" stroke="black" d="M1280.37,-101.39C1230.59,-97.29 1139.06,-87.8 1063,-69 1028.3,-60.42 990.19,-46.23 962.83,-35.16"/>
<polygon fill="black" stroke="black" points="963.84,-31.79 953.26,-31.23 961.19,-38.27 963.84,-31.79"/>
<text text-anchor="middle" x="1076.5" y="-57.8" font-family="Times,serif" font-size="14.00">dep</text>
</g>
<!-- 13 -->
<g id="node14" class="node">
<title>13</title>
<ellipse fill="none" stroke="black" cx="1011" cy="-18" rx="27" ry="18"/>
<text text-anchor="middle" x="1011" y="-14.3" font-family="Times,serif" font-size="14.00">de</text>
</g>
<!-- 0&#45;&gt;13 -->
<g id="edge13" class="edge">
<title>0&#45;&gt;13</title>
<path fill="none" stroke="black" d="M1282.14,-98.48C1246.59,-92.51 1189.98,-82.07 1142,-69 1098.87,-57.26 1088.38,-52.9 1047,-36 1045.18,-35.26 1043.31,-34.47 1041.44,-33.65"/>
<polygon fill="black" stroke="black" points="1042.71,-30.38 1032.15,-29.45 1039.82,-36.76 1042.71,-30.38"/>
<text text-anchor="middle" x="1155.5" y="-57.8" font-family="Times,serif" font-size="14.00">dep</text>
</g>
<!-- 14 -->
<g id="node15" class="node">
<title>14</title>
<ellipse fill="none" stroke="black" cx="1101" cy="-18" rx="45.49" ry="18"/>
<text text-anchor="middle" x="1101" y="-14.3" font-family="Times,serif" font-size="14.00">Moraes</text>
</g>
<!-- 0&#45;&gt;14 -->
<g id="edge14" class="edge">
<title>0&#45;&gt;14</title>
<path fill="none" stroke="black" d="M1285.2,-95.4C1262.54,-88.95 1231.53,-79.46 1205,-69 1181.51,-59.74 1155.94,-47.48 1136.03,-37.41"/>
<polygon fill="black" stroke="black" points="1137.53,-34.25 1127.03,-32.82 1134.35,-40.48 1137.53,-34.25"/>
<text text-anchor="middle" x="1218.5" y="-57.8" font-family="Times,serif" font-size="14.00">dep</text>
</g>
<!-- 15 -->
<g id="node16" class="node">
<title>15</title>
<ellipse fill="none" stroke="black" cx="1191" cy="-18" rx="27" ry="18"/>
<text text-anchor="middle" x="1191" y="-14.3" font-family="Times,serif" font-size="14.00">,</text>
</g>
<!-- 0&#45;&gt;15 -->
<g id="edge15" class="edge">
<title>0&#45;&gt;15</title>
<path fill="none" stroke="black" d="M1292.79,-91.1C1281.41,-84.78 1267.78,-76.86 1256,-69 1242.18,-59.78 1227.46,-48.58 1215.52,-39.12"/>
<polygon fill="black" stroke="black" points="1217.37,-36.11 1207.38,-32.59 1212.99,-41.57 1217.37,-36.11"/>
<text text-anchor="middle" x="1269.5" y="-57.8" font-family="Times,serif" font-size="14.00">dep</text>
</g>
<!-- 16 -->
<g id="node17" class="node">
<title>16</title>
<ellipse fill="none" stroke="black" cx="1263" cy="-18" rx="27" ry="18"/>
<text text-anchor="middle" x="1263" y="-14.3" font-family="Times,serif" font-size="14.00">o</text>
</g>
<!-- 0&#45;&gt;16 -->
<g id="edge16" class="edge">
<title>0&#45;&gt;16</title>
<path fill="none" stroke="black" d="M1306.59,-87.61C1298.64,-75.11 1287.57,-57.68 1278.57,-43.51"/>
<polygon fill="black" stroke="black" points="1281.33,-41.33 1273.01,-34.76 1275.42,-45.08 1281.33,-41.33"/>
<text text-anchor="middle" x="1307.5" y="-57.8" font-family="Times,serif" font-size="14.00">dep</text>
</g>
<!-- 17 -->
<g id="node18" class="node">
<title>17</title>
<ellipse fill="none" stroke="black" cx="1372" cy="-18" rx="63.89" ry="18"/>
<text text-anchor="middle" x="1372" y="-14.3" font-family="Times,serif" font-size="14.00">empresário</text>
</g>
<!-- 0&#45;&gt;17 -->
<g id="edge17" class="edge">
<title>0&#45;&gt;17</title>
<path fill="none" stroke="black" d="M1327.6,-87.61C1335.49,-75.42 1346.41,-58.56 1355.44,-44.6"/>
<polygon fill="black" stroke="black" points="1358.56,-46.22 1361.05,-35.92 1352.68,-42.41 1358.56,-46.22"/>
<text text-anchor="middle" x="1361.5" y="-57.8" font-family="Times,serif" font-size="14.00">dep</text>
</g>
<!-- 18 -->
<g id="node19" class="node">
<title>18</title>
<ellipse fill="none" stroke="black" cx="1498" cy="-18" rx="44.39" ry="18"/>
<text text-anchor="middle" x="1498" y="-14.3" font-family="Times,serif" font-size="14.00">Alfredo</text>
</g>
<!-- 0&#45;&gt;18 -->
<g id="edge18" class="edge">
<title>0&#45;&gt;18</title>
<path fill="none" stroke="black" d="M1342.93,-91.82C1373.76,-77.35 1425.44,-53.08 1460.59,-36.57"/>
<polygon fill="black" stroke="black" points="1462.47,-39.55 1470.03,-32.13 1459.49,-33.22 1462.47,-39.55"/>
<text text-anchor="middle" x="1432.5" y="-57.8" font-family="Times,serif" font-size="14.00">dep</text>
</g>
<!-- 19 -->
<g id="node20" class="node">
<title>19</title>
<ellipse fill="none" stroke="black" cx="1594" cy="-18" rx="33.6" ry="18"/>
<text text-anchor="middle" x="1594" y="-14.3" font-family="Times,serif" font-size="14.00">Saad</text>
</g>
<!-- 0&#45;&gt;19 -->
<g id="edge19" class="edge">
<title>0&#45;&gt;19</title>
<path fill="none" stroke="black" d="M1349.4,-96.04C1376.42,-89.26 1415.87,-79.06 1450,-69 1495.3,-55.65 1506.58,-52.02 1551,-36 1553.38,-35.14 1555.82,-34.24 1558.28,-33.31"/>
<polygon fill="black" stroke="black" points="1559.64,-36.54 1567.72,-29.68 1557.13,-30.01 1559.64,-36.54"/>
<text text-anchor="middle" x="1513.5" y="-57.8" font-family="Times,serif" font-size="14.00">dep</text>
</g>
<!-- 20 -->
<g id="node21" class="node">
<title>20</title>
<ellipse fill="none" stroke="black" cx="1673" cy="-18" rx="27" ry="18"/>
<text text-anchor="middle" x="1673" y="-14.3" font-family="Times,serif" font-size="14.00">e</text>
</g>
<!-- 0&#45;&gt;20 -->
<g id="edge20" class="edge">
<title>0&#45;&gt;20</title>
<path fill="none" stroke="black" d="M1352.52,-99.74C1395.22,-94.26 1468.9,-83.67 1531,-69 1579.02,-57.66 1591.02,-53.91 1637,-36 1638.84,-35.28 1640.71,-34.52 1642.59,-33.72"/>
<polygon fill="black" stroke="black" points="1644.19,-36.84 1651.89,-29.57 1641.34,-30.45 1644.19,-36.84"/>
<text text-anchor="middle" x="1600.5" y="-57.8" font-family="Times,serif" font-size="14.00">dep</text>
</g>
<!-- 21 -->
<g id="node22" class="node">
<title>21</title>
<ellipse fill="none" stroke="black" cx="1745" cy="-18" rx="27" ry="18"/>
<text text-anchor="middle" x="1745" y="-14.3" font-family="Times,serif" font-size="14.00">o</text>
</g>
<!-- 0&#45;&gt;21 -->
<g id="edge21" class="edge">
<title>0&#45;&gt;21</title>
<path fill="none" stroke="black" d="M1354.08,-102.46C1411.37,-99.45 1524.56,-91.06 1618,-69 1652.2,-60.93 1689.4,-45.42 1714.65,-33.81"/>
<polygon fill="black" stroke="black" points="1716.46,-36.83 1724.03,-29.42 1713.49,-30.49 1716.46,-36.83"/>
<text text-anchor="middle" x="1678.5" y="-57.8" font-family="Times,serif" font-size="14.00">dep</text>
</g>
<!-- 22 -->
<g id="node23" class="node">
<title>22</title>
<ellipse fill="none" stroke="black" cx="1858" cy="-18" rx="67.69" ry="18"/>
<text text-anchor="middle" x="1858" y="-14.3" font-family="Times,serif" font-size="14.00">comandante</text>
</g>
<!-- 0&#45;&gt;22 -->
<g id="edge22" class="edge">
<title>0&#45;&gt;22</title>
<path fill="none" stroke="black" d="M1353.95,-103.12C1422.16,-100.95 1572.2,-93.55 1696,-69 1735.38,-61.19 1778.78,-47.51 1810.74,-36.43"/>
<polygon fill="black" stroke="black" points="1812,-39.7 1820.28,-33.09 1809.68,-33.1 1812,-39.7"/>
<text text-anchor="middle" x="1768.5" y="-57.8" font-family="Times,serif" font-size="14.00">dep</text>
</g>
<!-- 23 -->
<g id="node24" class="node">
<title>23</title>
<ellipse fill="none" stroke="black" cx="1981" cy="-18" rx="37.89" ry="18"/>
<text text-anchor="middle" x="1981" y="-14.3" font-family="Times,serif" font-size="14.00">Rolim</text>
</g>
<!-- 0&#45;&gt;23 -->
<g id="edge23" class="edge">
<title>0&#45;&gt;23</title>
<path fill="none" stroke="black" d="M1353.98,-103.04C1433.46,-100.59 1626.26,-92.53 1786,-69 1853.1,-59.12 1869.93,-55.13 1935,-36 1937.59,-35.24 1940.25,-34.4 1942.91,-33.53"/>
<polygon fill="black" stroke="black" points="1944.18,-36.79 1952.49,-30.22 1941.9,-30.17 1944.18,-36.79"/>
<text text-anchor="middle" x="1882.5" y="-57.8" font-family="Times,serif" font-size="14.00">dep</text>
</g>
<!-- 24 -->
<g id="node25" class="node">
<title>24</title>
<ellipse fill="none" stroke="black" cx="2078" cy="-18" rx="40.89" ry="18"/>
<text text-anchor="middle" x="2078" y="-14.3" font-family="Times,serif" font-size="14.00">Amaro</text>
</g>
<!-- 0&#45;&gt;24 -->
<g id="edge24" class="edge">
<title>0&#45;&gt;24</title>
<path fill="none" stroke="black" d="M1354.1,-104.24C1446.78,-104.29 1695.67,-101.17 1900,-69 1948.26,-61.4 2002.05,-45.17 2037.74,-33.25"/>
<polygon fill="black" stroke="black" points="2038.95,-36.53 2047.3,-30.01 2036.71,-29.9 2038.95,-36.53"/>
<text text-anchor="middle" x="1978.5" y="-57.8" font-family="Times,serif" font-size="14.00">dep</text>
</g>
<!-- 25 -->
<g id="node26" class="node">
<title>25</title>
<ellipse fill="none" stroke="black" cx="2164" cy="-18" rx="27" ry="18"/>
<text text-anchor="middle" x="2164" y="-14.3" font-family="Times,serif" font-size="14.00">,</text>
</g>
<!-- 0&#45;&gt;25 -->
<g id="edge25" class="edge">
<title>0&#45;&gt;25</title>
<path fill="none" stroke="black" d="M1354.05,-104.59C1456.69,-105.7 1753.17,-105.26 1996,-69 2055.81,-60.07 2071.05,-56.34 2128,-36 2129.86,-35.34 2131.74,-34.61 2133.63,-33.84"/>
<polygon fill="black" stroke="black" points="2135.2,-36.98 2142.97,-29.77 2132.41,-30.56 2135.2,-36.98"/>
<text text-anchor="middle" x="2085.5" y="-57.8" font-family="Times,serif" font-size="14.00">dep</text>
</g>
<!-- 26 -->
<g id="node27" class="node">
<title>26</title>
<ellipse fill="none" stroke="black" cx="2242" cy="-18" rx="33.29" ry="18"/>
<text text-anchor="middle" x="2242" y="-14.3" font-family="Times,serif" font-size="14.00">dono</text>
</g>
<!-- 0&#45;&gt;26 -->
<g id="edge26" class="edge">
<title>0&#45;&gt;26</title>
<path fill="none" stroke="black" d="M1354.14,-103.74C1489.59,-102.56 1956.69,-96.56 2103,-69 2140.2,-61.99 2180.71,-46.44 2208.35,-34.53"/>
<polygon fill="black" stroke="black" points="2209.81,-37.71 2217.56,-30.49 2207,-31.3 2209.81,-37.71"/>
<text text-anchor="middle" x="2171.5" y="-57.8" font-family="Times,serif" font-size="14.00">dep</text>
</g>
<!-- 27 -->
<g id="node28" class="node">
<title>27</title>
<ellipse fill="none" stroke="black" cx="2320" cy="-18" rx="27" ry="18"/>
<text text-anchor="middle" x="2320" y="-14.3" font-family="Times,serif" font-size="14.00">de</text>
</g>
<!-- 0&#45;&gt;27 -->
<g id="edge27" class="edge">
<title>0&#45;&gt;27</title>
<path fill="none" stroke="black" d="M1354.17,-103.96C1498.95,-103.57 2025.25,-100.02 2189,-69 2224.84,-62.21 2263.61,-46.24 2289.6,-34.16"/>
<polygon fill="black" stroke="black" points="2291.36,-37.19 2298.9,-29.75 2288.36,-30.87 2291.36,-37.19"/>
<text text-anchor="middle" x="2254.5" y="-57.8" font-family="Times,serif" font-size="14.00">dep</text>
</g>
<!-- 28 -->
<g id="node29" class="node">
<title>28</title>
<ellipse fill="none" stroke="black" cx="2392" cy="-18" rx="27" ry="18"/>
<text text-anchor="middle" x="2392" y="-14.3" font-family="Times,serif" font-size="14.00">a</text>
</g>
<!-- 0&#45;&gt;28 -->
<g id="edge28" class="edge">
<title>0&#45;&gt;28</title>
<path fill="none" stroke="black" d="M1354.04,-104.3C1507.26,-105.3 2091.92,-106.53 2272,-69 2304.43,-62.24 2339.12,-46.8 2362.82,-34.85"/>
<polygon fill="black" stroke="black" points="2364.67,-37.83 2371.95,-30.14 2361.46,-31.61 2364.67,-37.83"/>
<text text-anchor="middle" x="2333.5" y="-57.8" font-family="Times,serif" font-size="14.00">dep</text>
</g>
<!-- 29 -->
<g id="node30" class="node">
<title>29</title>
<ellipse fill="none" stroke="black" cx="2488" cy="-18" rx="50.89" ry="18"/>
<text text-anchor="middle" x="2488" y="-14.3" font-family="Times,serif" font-size="14.00">empresa</text>
</g>
<!-- 0&#45;&gt;29 -->
<g id="edge29" class="edge">
<title>0&#45;&gt;29</title>
<path fill="none" stroke="black" d="M1354.04,-104.31C1515,-105.4 2154.29,-107.22 2351,-69 2385.2,-62.36 2422.22,-48.41 2449.14,-36.93"/>
<polygon fill="black" stroke="black" points="2450.8,-40.02 2458.58,-32.83 2448.01,-33.6 2450.8,-40.02"/>
<text text-anchor="middle" x="2418.5" y="-57.8" font-family="Times,serif" font-size="14.00">dep</text>
</g>
<!-- 30 -->
<g id="node31" class="node">
<title>30</title>
<ellipse fill="none" stroke="black" cx="2593" cy="-18" rx="36.29" ry="18"/>
<text text-anchor="middle" x="2593" y="-14.3" font-family="Times,serif" font-size="14.00">aérea</text>
</g>
<!-- 0&#45;&gt;30 -->
<g id="edge30" class="edge">
<title>0&#45;&gt;30</title>
<path fill="none" stroke="black" d="M1354.15,-104.11C1523.2,-104.41 2220.69,-103.5 2436,-69 2478.44,-62.2 2525.14,-46.16 2556.48,-34.07"/>
<polygon fill="black" stroke="black" points="2558.06,-37.21 2566.09,-30.3 2555.51,-30.69 2558.06,-37.21"/>
<text text-anchor="middle" x="2511.5" y="-57.8" font-family="Times,serif" font-size="14.00">dep</text>
</g>
<!-- 31 -->
<g id="node32" class="node">
<title>31</title>
<ellipse fill="none" stroke="black" cx="2679" cy="-18" rx="31.7" ry="18"/>
<text text-anchor="middle" x="2679" y="-14.3" font-family="Times,serif" font-size="14.00">TAM</text>
</g>
<!-- 0&#45;&gt;31 -->
<g id="edge31" class="edge">
<title>0&#45;&gt;31</title>
<path fill="none" stroke="black" d="M1354.24,-104.25C1531.93,-105.24 2294.61,-107.17 2529,-69 2570.14,-62.3 2615.24,-45.96 2645.14,-33.77"/>
<polygon fill="black" stroke="black" points="2646.77,-36.88 2654.67,-29.82 2644.09,-30.42 2646.77,-36.88"/>
<text text-anchor="middle" x="2601.5" y="-57.8" font-family="Times,serif" font-size="14.00">dep</text>
</g>
<!-- 32 -->
<g id="node33" class="node">
<title>32</title>
<ellipse fill="none" stroke="black" cx="2756" cy="-18" rx="27" ry="18"/>
<text text-anchor="middle" x="2756" y="-14.3" font-family="Times,serif" font-size="14.00">.</text>
</g>
<!-- 0&#45;&gt;32 -->
<g id="edge32" class="edge">
<title>0&#45;&gt;32</title>
<path fill="none" stroke="black" d="M1354.11,-103.64C1553.33,-101.63 2491.65,-91.04 2619,-69 2657,-62.43 2698.27,-45.98 2725.47,-33.73"/>
<polygon fill="black" stroke="black" points="2727.2,-36.79 2734.83,-29.43 2724.28,-30.43 2727.2,-36.79"/>
<text text-anchor="middle" x="2687.5" y="-57.8" font-family="Times,serif" font-size="14.00">dep</text>
</g>
</g>
</svg>
