<?xml version="1.0" encoding="UTF-8" standalone="no"?>
<!DOCTYPE svg PUBLIC "-//W3C//DTD SVG 1.1//EN"
 "http://www.w3.org/Graphics/SVG/1.1/DTD/svg11.dtd">
<!-- Generated by graphviz version 2.42.4 (0)
 -->
<!-- Pages: 1 -->
<svg width="2398pt" height="131pt"
 viewBox="0.00 0.00 2398.00 131.00" xmlns="http://www.w3.org/2000/svg" xmlns:xlink="http://www.w3.org/1999/xlink">
<g id="graph0" class="graph" transform="scale(1 1) rotate(0) translate(4 127)">
<polygon fill="white" stroke="transparent" points="-4,4 -4,-127 2394,-127 2394,4 -4,4"/>
<!-- 0 -->
<g id="node1" class="node">
<title>0</title>
<ellipse fill="none" stroke="black" cx="1124" cy="-105" rx="59.29" ry="18"/>
<text text-anchor="middle" x="1124" y="-101.3" font-family="Times,serif" font-size="14.00">Mintzberg</text>
</g>
<!-- 1 -->
<g id="node2" class="node">
<title>1</title>
<ellipse fill="none" stroke="black" cx="27" cy="-18" rx="27" ry="18"/>
<text text-anchor="middle" x="27" y="-14.3" font-family="Times,serif" font-size="14.00">e</text>
</g>
<!-- 0&#45;&gt;1 -->
<g id="edge1" class="edge">
<title>0&#45;&gt;1</title>
<path fill="none" stroke="black" d="M1064.92,-103.44C887.42,-101.5 360.72,-93.77 191,-69 132.87,-60.52 118.25,-55.97 63,-36 61.15,-35.33 59.26,-34.6 57.37,-33.83"/>
<polygon fill="black" stroke="black" points="58.6,-30.55 48.04,-29.75 55.8,-36.96 58.6,-30.55"/>
<text text-anchor="middle" x="204.5" y="-57.8" font-family="Times,serif" font-size="14.00">dep</text>
</g>
<!-- 2 -->
<g id="node3" class="node">
<title>2</title>
<ellipse fill="none" stroke="black" cx="110" cy="-18" rx="38.19" ry="18"/>
<text text-anchor="middle" x="110" y="-14.3" font-family="Times,serif" font-size="14.00">Quinn</text>
</g>
<!-- 0&#45;&gt;2 -->
<g id="edge2" class="edge">
<title>0&#45;&gt;2</title>
<path fill="none" stroke="black" d="M1065.06,-102.91C902.29,-99.66 448.83,-89.03 301,-69 236.36,-60.24 220.62,-54.25 158,-36 154.9,-35.1 151.71,-34.11 148.52,-33.07"/>
<polygon fill="black" stroke="black" points="149.61,-29.75 139.02,-29.87 147.38,-36.38 149.61,-29.75"/>
<text text-anchor="middle" x="314.5" y="-57.8" font-family="Times,serif" font-size="14.00">dep</text>
</g>
<!-- 3 -->
<g id="node4" class="node">
<title>3</title>
<ellipse fill="none" stroke="black" cx="229" cy="-18" rx="62.29" ry="18"/>
<text text-anchor="middle" x="229" y="-14.3" font-family="Times,serif" font-size="14.00">identificam</text>
</g>
<!-- 0&#45;&gt;3 -->
<g id="edge3" class="edge">
<title>0&#45;&gt;3</title>
<path fill="none" stroke="black" d="M1064.93,-103.11C914.39,-100.54 519.17,-91.76 390,-69 349.9,-61.94 305.84,-47.79 273.97,-36.34"/>
<polygon fill="black" stroke="black" points="275.08,-33.01 264.48,-32.88 272.68,-39.59 275.08,-33.01"/>
<text text-anchor="middle" x="403.5" y="-57.8" font-family="Times,serif" font-size="14.00">dep</text>
</g>
<!-- 4 -->
<g id="node5" class="node">
<title>4</title>
<ellipse fill="none" stroke="black" cx="340" cy="-18" rx="30.59" ry="18"/>
<text text-anchor="middle" x="340" y="-14.3" font-family="Times,serif" font-size="14.00">uma</text>
</g>
<!-- 0&#45;&gt;4 -->
<g id="edge4" class="edge">
<title>0&#45;&gt;4</title>
<path fill="none" stroke="black" d="M1065.06,-102.97C926.9,-100.2 585.34,-91.27 473,-69 437.23,-61.91 398.41,-46.33 372,-34.44"/>
<polygon fill="black" stroke="black" points="373.41,-31.23 362.86,-30.24 370.49,-37.59 373.41,-31.23"/>
<text text-anchor="middle" x="486.5" y="-57.8" font-family="Times,serif" font-size="14.00">dep</text>
</g>
<!-- 5 -->
<g id="node6" class="node">
<title>5</title>
<ellipse fill="none" stroke="black" cx="422" cy="-18" rx="33.6" ry="18"/>
<text text-anchor="middle" x="422" y="-14.3" font-family="Times,serif" font-size="14.00">série</text>
</g>
<!-- 0&#45;&gt;5 -->
<g id="edge5" class="edge">
<title>0&#45;&gt;5</title>
<path fill="none" stroke="black" d="M1065.26,-102.72C939.32,-99.59 646.92,-90.23 550,-69 516.52,-61.67 480.31,-46.82 454.98,-35.2"/>
<polygon fill="black" stroke="black" points="456.37,-31.99 445.83,-30.93 453.41,-38.33 456.37,-31.99"/>
<text text-anchor="middle" x="563.5" y="-57.8" font-family="Times,serif" font-size="14.00">dep</text>
</g>
<!-- 6 -->
<g id="node7" class="node">
<title>6</title>
<ellipse fill="none" stroke="black" cx="501" cy="-18" rx="27" ry="18"/>
<text text-anchor="middle" x="501" y="-14.3" font-family="Times,serif" font-size="14.00">de</text>
</g>
<!-- 0&#45;&gt;6 -->
<g id="edge6" class="edge">
<title>0&#45;&gt;6</title>
<path fill="none" stroke="black" d="M1065.42,-101.97C952.42,-97.72 708.28,-86.76 626,-69 592.12,-61.68 555.54,-46.06 530.76,-34.22"/>
<polygon fill="black" stroke="black" points="532.07,-30.96 521.55,-29.73 529,-37.25 532.07,-30.96"/>
<text text-anchor="middle" x="639.5" y="-57.8" font-family="Times,serif" font-size="14.00">dep</text>
</g>
<!-- 7 -->
<g id="node8" class="node">
<title>7</title>
<ellipse fill="none" stroke="black" cx="573" cy="-18" rx="27" ry="18"/>
<text text-anchor="middle" x="573" y="-14.3" font-family="Times,serif" font-size="14.00">«</text>
</g>
<!-- 0&#45;&gt;7 -->
<g id="edge7" class="edge">
<title>0&#45;&gt;7</title>
<path fill="none" stroke="black" d="M1064.7,-103.65C982.91,-102.12 831.26,-95.54 705,-69 669.06,-61.44 629.97,-45.6 603.73,-33.76"/>
<polygon fill="black" stroke="black" points="604.88,-30.44 594.33,-29.45 601.96,-36.8 604.88,-30.44"/>
<text text-anchor="middle" x="718.5" y="-57.8" font-family="Times,serif" font-size="14.00">dep</text>
</g>
<!-- 8 -->
<g id="node9" class="node">
<title>8</title>
<ellipse fill="none" stroke="black" cx="653" cy="-18" rx="35.19" ry="18"/>
<text text-anchor="middle" x="653" y="-14.3" font-family="Times,serif" font-size="14.00">jogos</text>
</g>
<!-- 0&#45;&gt;8 -->
<g id="edge8" class="edge">
<title>0&#45;&gt;8</title>
<path fill="none" stroke="black" d="M1065.29,-102.67C996.71,-100.03 880.25,-92.22 783,-69 749.42,-60.98 712.87,-46.36 687.1,-34.99"/>
<polygon fill="black" stroke="black" points="688.33,-31.71 677.78,-30.81 685.47,-38.1 688.33,-31.71"/>
<text text-anchor="middle" x="796.5" y="-57.8" font-family="Times,serif" font-size="14.00">dep</text>
</g>
<!-- 9 -->
<g id="node10" class="node">
<title>9</title>
<ellipse fill="none" stroke="black" cx="733" cy="-18" rx="27" ry="18"/>
<text text-anchor="middle" x="733" y="-14.3" font-family="Times,serif" font-size="14.00">de</text>
</g>
<!-- 0&#45;&gt;9 -->
<g id="edge9" class="edge">
<title>0&#45;&gt;9</title>
<path fill="none" stroke="black" d="M1067.15,-99.84C1013.66,-95.12 931.59,-85.8 862,-69 819.37,-58.71 809.55,-52.72 769,-36 767.18,-35.25 765.32,-34.45 763.45,-33.64"/>
<polygon fill="black" stroke="black" points="764.72,-30.37 754.16,-29.42 761.82,-36.74 764.72,-30.37"/>
<text text-anchor="middle" x="875.5" y="-57.8" font-family="Times,serif" font-size="14.00">dep</text>
</g>
<!-- 10 -->
<g id="node11" class="node">
<title>10</title>
<ellipse fill="none" stroke="black" cx="816" cy="-18" rx="37.89" ry="18"/>
<text text-anchor="middle" x="816" y="-14.3" font-family="Times,serif" font-size="14.00">poder</text>
</g>
<!-- 0&#45;&gt;10 -->
<g id="edge10" class="edge">
<title>0&#45;&gt;10</title>
<path fill="none" stroke="black" d="M1069.97,-97.6C1030.83,-92.15 976.94,-82.95 931,-69 902.93,-60.48 872.55,-47.07 850.06,-36.29"/>
<polygon fill="black" stroke="black" points="851.47,-33.08 840.94,-31.85 848.4,-39.37 851.47,-33.08"/>
<text text-anchor="middle" x="944.5" y="-57.8" font-family="Times,serif" font-size="14.00">dep</text>
</g>
<!-- 11 -->
<g id="node12" class="node">
<title>11</title>
<ellipse fill="none" stroke="black" cx="899" cy="-18" rx="27" ry="18"/>
<text text-anchor="middle" x="899" y="-14.3" font-family="Times,serif" font-size="14.00">»</text>
</g>
<!-- 0&#45;&gt;11 -->
<g id="edge11" class="edge">
<title>0&#45;&gt;11</title>
<path fill="none" stroke="black" d="M1076.87,-93.97C1051.82,-87.99 1020.76,-79.5 994,-69 970.7,-59.86 945.7,-46.55 927.19,-35.96"/>
<polygon fill="black" stroke="black" points="928.82,-32.85 918.41,-30.86 925.3,-38.91 928.82,-32.85"/>
<text text-anchor="middle" x="1007.5" y="-57.8" font-family="Times,serif" font-size="14.00">dep</text>
</g>
<!-- 12 -->
<g id="node13" class="node">
<title>12</title>
<ellipse fill="none" stroke="black" cx="971" cy="-18" rx="27" ry="18"/>
<text text-anchor="middle" x="971" y="-14.3" font-family="Times,serif" font-size="14.00">,</text>
</g>
<!-- 0&#45;&gt;12 -->
<g id="edge12" class="edge">
<title>0&#45;&gt;12</title>
<path fill="none" stroke="black" d="M1090.94,-90.03C1077.41,-83.99 1061.74,-76.57 1048,-69 1030.66,-59.44 1012.02,-47.39 997.42,-37.51"/>
<polygon fill="black" stroke="black" points="999.13,-34.44 988.9,-31.68 995.18,-40.22 999.13,-34.44"/>
<text text-anchor="middle" x="1061.5" y="-57.8" font-family="Times,serif" font-size="14.00">dep</text>
</g>
<!-- 13 -->
<g id="node14" class="node">
<title>13</title>
<ellipse fill="none" stroke="black" cx="1043" cy="-18" rx="27" ry="18"/>
<text text-anchor="middle" x="1043" y="-14.3" font-family="Times,serif" font-size="14.00">de</text>
</g>
<!-- 0&#45;&gt;13 -->
<g id="edge13" class="edge">
<title>0&#45;&gt;13</title>
<path fill="none" stroke="black" d="M1108.38,-87.61C1095.81,-74.42 1078.03,-55.76 1064.18,-41.22"/>
<polygon fill="black" stroke="black" points="1066.38,-38.46 1056.95,-33.64 1061.31,-43.29 1066.38,-38.46"/>
<text text-anchor="middle" x="1102.5" y="-57.8" font-family="Times,serif" font-size="14.00">dep</text>
</g>
<!-- 14 -->
<g id="node15" class="node">
<title>14</title>
<ellipse fill="none" stroke="black" cx="1124" cy="-18" rx="36" ry="18"/>
<text text-anchor="middle" x="1124" y="-14.3" font-family="Times,serif" font-size="14.00">entre</text>
</g>
<!-- 0&#45;&gt;14 -->
<g id="edge14" class="edge">
<title>0&#45;&gt;14</title>
<path fill="none" stroke="black" d="M1124,-86.8C1124,-75.16 1124,-59.55 1124,-46.24"/>
<polygon fill="black" stroke="black" points="1127.5,-46.18 1124,-36.18 1120.5,-46.18 1127.5,-46.18"/>
<text text-anchor="middle" x="1137.5" y="-57.8" font-family="Times,serif" font-size="14.00">dep</text>
</g>
<!-- 15 -->
<g id="node16" class="node">
<title>15</title>
<ellipse fill="none" stroke="black" cx="1205" cy="-18" rx="27" ry="18"/>
<text text-anchor="middle" x="1205" y="-14.3" font-family="Times,serif" font-size="14.00">os</text>
</g>
<!-- 0&#45;&gt;15 -->
<g id="edge15" class="edge">
<title>0&#45;&gt;15</title>
<path fill="none" stroke="black" d="M1139.62,-87.61C1152.19,-74.42 1169.97,-55.76 1183.82,-41.22"/>
<polygon fill="black" stroke="black" points="1186.69,-43.29 1191.05,-33.64 1181.62,-38.46 1186.69,-43.29"/>
<text text-anchor="middle" x="1183.5" y="-57.8" font-family="Times,serif" font-size="14.00">dep</text>
</g>
<!-- 16 -->
<g id="node17" class="node">
<title>16</title>
<ellipse fill="none" stroke="black" cx="1286" cy="-18" rx="36" ry="18"/>
<text text-anchor="middle" x="1286" y="-14.3" font-family="Times,serif" font-size="14.00">quais</text>
</g>
<!-- 0&#45;&gt;16 -->
<g id="edge16" class="edge">
<title>0&#45;&gt;16</title>
<path fill="none" stroke="black" d="M1156.96,-89.93C1170.73,-83.82 1186.8,-76.38 1201,-69 1219.41,-59.43 1239.45,-47.72 1255.44,-38.03"/>
<polygon fill="black" stroke="black" points="1257.63,-40.79 1264.34,-32.59 1253.98,-34.82 1257.63,-40.79"/>
<text text-anchor="middle" x="1241.5" y="-57.8" font-family="Times,serif" font-size="14.00">dep</text>
</g>
<!-- 17 -->
<g id="node18" class="node">
<title>17</title>
<ellipse fill="none" stroke="black" cx="1396" cy="-18" rx="55.79" ry="18"/>
<text text-anchor="middle" x="1396" y="-14.3" font-family="Times,serif" font-size="14.00">retirámos</text>
</g>
<!-- 0&#45;&gt;17 -->
<g id="edge17" class="edge">
<title>0&#45;&gt;17</title>
<path fill="none" stroke="black" d="M1169.31,-93.41C1195.66,-86.96 1229.41,-78.21 1259,-69 1290.76,-59.11 1326,-46.21 1352.78,-35.98"/>
<polygon fill="black" stroke="black" points="1354.17,-39.2 1362.25,-32.35 1351.66,-32.67 1354.17,-39.2"/>
<text text-anchor="middle" x="1314.5" y="-57.8" font-family="Times,serif" font-size="14.00">dep</text>
</g>
<!-- 18 -->
<g id="node19" class="node">
<title>18</title>
<ellipse fill="none" stroke="black" cx="1497" cy="-18" rx="27" ry="18"/>
<text text-anchor="middle" x="1497" y="-14.3" font-family="Times,serif" font-size="14.00">e</text>
</g>
<!-- 0&#45;&gt;18 -->
<g id="edge18" class="edge">
<title>0&#45;&gt;18</title>
<path fill="none" stroke="black" d="M1178.73,-97.97C1246.53,-89.37 1364.84,-70.65 1461,-36 1462.85,-35.33 1464.74,-34.6 1466.63,-33.83"/>
<polygon fill="black" stroke="black" points="1468.2,-36.97 1475.96,-29.75 1465.4,-30.55 1468.2,-36.97"/>
<text text-anchor="middle" x="1412.5" y="-57.8" font-family="Times,serif" font-size="14.00">dep</text>
</g>
<!-- 19 -->
<g id="node20" class="node">
<title>19</title>
<ellipse fill="none" stroke="black" cx="1604" cy="-18" rx="61.99" ry="18"/>
<text text-anchor="middle" x="1604" y="-14.3" font-family="Times,serif" font-size="14.00">adaptámos</text>
</g>
<!-- 0&#45;&gt;19 -->
<g id="edge19" class="edge">
<title>0&#45;&gt;19</title>
<path fill="none" stroke="black" d="M1181.12,-100.31C1242.91,-95.66 1344.13,-86.13 1430,-69 1473.06,-60.41 1520.95,-46.31 1555.56,-35.26"/>
<polygon fill="black" stroke="black" points="1556.96,-38.49 1565.41,-32.09 1554.82,-31.83 1556.96,-38.49"/>
<text text-anchor="middle" x="1502.5" y="-57.8" font-family="Times,serif" font-size="14.00">dep</text>
</g>
<!-- 20 -->
<g id="node21" class="node">
<title>20</title>
<ellipse fill="none" stroke="black" cx="1711" cy="-18" rx="27" ry="18"/>
<text text-anchor="middle" x="1711" y="-14.3" font-family="Times,serif" font-size="14.00">os</text>
</g>
<!-- 0&#45;&gt;20 -->
<g id="edge20" class="edge">
<title>0&#45;&gt;20</title>
<path fill="none" stroke="black" d="M1181.97,-101.09C1259.36,-96.7 1400.56,-86.93 1520,-69 1589.65,-58.55 1608.26,-58.52 1675,-36 1676.92,-35.35 1678.86,-34.63 1680.81,-33.86"/>
<polygon fill="black" stroke="black" points="1682.6,-36.9 1690.4,-29.73 1679.83,-30.47 1682.6,-36.9"/>
<text text-anchor="middle" x="1625.5" y="-57.8" font-family="Times,serif" font-size="14.00">dep</text>
</g>
<!-- 21 -->
<g id="node22" class="node">
<title>21</title>
<ellipse fill="none" stroke="black" cx="1784" cy="-18" rx="27.9" ry="18"/>
<text text-anchor="middle" x="1784" y="-14.3" font-family="Times,serif" font-size="14.00">que</text>
</g>
<!-- 0&#45;&gt;21 -->
<g id="edge21" class="edge">
<title>0&#45;&gt;21</title>
<path fill="none" stroke="black" d="M1183.35,-104.6C1280.37,-104.55 1478.63,-100.15 1643,-69 1690.65,-59.97 1701.77,-53.49 1747,-36 1748.88,-35.27 1750.8,-34.5 1752.73,-33.69"/>
<polygon fill="black" stroke="black" points="1754.52,-36.73 1762.28,-29.52 1751.71,-30.32 1754.52,-36.73"/>
<text text-anchor="middle" x="1713.5" y="-57.8" font-family="Times,serif" font-size="14.00">dep</text>
</g>
<!-- 22 -->
<g id="node23" class="node">
<title>22</title>
<ellipse fill="none" stroke="black" cx="1906" cy="-18" rx="76.09" ry="18"/>
<text text-anchor="middle" x="1906" y="-14.3" font-family="Times,serif" font-size="14.00">apresentamos</text>
</g>
<!-- 0&#45;&gt;22 -->
<g id="edge22" class="edge">
<title>0&#45;&gt;22</title>
<path fill="none" stroke="black" d="M1183.51,-104.9C1292.8,-105.59 1532.48,-102.66 1731,-69 1773.81,-61.74 1821.1,-47.87 1855.71,-36.57"/>
<polygon fill="black" stroke="black" points="1857.18,-39.77 1865.57,-33.31 1854.98,-33.12 1857.18,-39.77"/>
<text text-anchor="middle" x="1808.5" y="-57.8" font-family="Times,serif" font-size="14.00">dep</text>
</g>
<!-- 23 -->
<g id="node24" class="node">
<title>23</title>
<ellipse fill="none" stroke="black" cx="2027" cy="-18" rx="27" ry="18"/>
<text text-anchor="middle" x="2027" y="-14.3" font-family="Times,serif" font-size="14.00">em</text>
</g>
<!-- 0&#45;&gt;23 -->
<g id="edge23" class="edge">
<title>0&#45;&gt;23</title>
<path fill="none" stroke="black" d="M1183.42,-103.99C1304.7,-103.31 1589.26,-98.41 1826,-69 1900.22,-59.78 1919.99,-59.47 1991,-36 1992.92,-35.37 1994.87,-34.65 1996.82,-33.89"/>
<polygon fill="black" stroke="black" points="1998.61,-36.93 2006.41,-29.77 1995.84,-30.5 1998.61,-36.93"/>
<text text-anchor="middle" x="1940.5" y="-57.8" font-family="Times,serif" font-size="14.00">dep</text>
</g>
<!-- 24 -->
<g id="node25" class="node">
<title>24</title>
<ellipse fill="none" stroke="black" cx="2099" cy="-18" rx="27" ry="18"/>
<text text-anchor="middle" x="2099" y="-14.3" font-family="Times,serif" font-size="14.00">o</text>
</g>
<!-- 0&#45;&gt;24 -->
<g id="edge24" class="edge">
<title>0&#45;&gt;24</title>
<path fill="none" stroke="black" d="M1183.22,-103.53C1347.9,-101.9 1808.92,-95.09 1958,-69 2006.19,-60.57 2017.44,-53.82 2063,-36 2064.83,-35.28 2066.71,-34.51 2068.59,-33.71"/>
<polygon fill="black" stroke="black" points="2070.19,-36.83 2077.89,-29.56 2067.33,-30.44 2070.19,-36.83"/>
<text text-anchor="middle" x="2030.5" y="-57.8" font-family="Times,serif" font-size="14.00">dep</text>
</g>
<!-- 25 -->
<g id="node26" class="node">
<title>25</title>
<ellipse fill="none" stroke="black" cx="2188" cy="-18" rx="43.59" ry="18"/>
<text text-anchor="middle" x="2188" y="-14.3" font-family="Times,serif" font-size="14.00">quadro</text>
</g>
<!-- 0&#45;&gt;25 -->
<g id="edge25" class="edge">
<title>0&#45;&gt;25</title>
<path fill="none" stroke="black" d="M1183.26,-104.11C1359.98,-104.06 1881.41,-101.12 2048,-69 2083.93,-62.07 2123.01,-47.48 2150.72,-35.84"/>
<polygon fill="black" stroke="black" points="2152.21,-39.01 2160.03,-31.86 2149.45,-32.58 2152.21,-39.01"/>
<text text-anchor="middle" x="2113.5" y="-57.8" font-family="Times,serif" font-size="14.00">dep</text>
</g>
<!-- 26 -->
<g id="node27" class="node">
<title>26</title>
<ellipse fill="none" stroke="black" cx="2284" cy="-18" rx="34.39" ry="18"/>
<text text-anchor="middle" x="2284" y="-14.3" font-family="Times,serif" font-size="14.00">junto</text>
</g>
<!-- 0&#45;&gt;26 -->
<g id="edge26" class="edge">
<title>0&#45;&gt;26</title>
<path fill="none" stroke="black" d="M1183.14,-103.93C1370.1,-103.41 1946.85,-99.3 2131,-69 2172.68,-62.14 2218.47,-45.95 2249,-33.84"/>
<polygon fill="black" stroke="black" points="2250.38,-37.06 2258.35,-30.07 2247.76,-30.57 2250.38,-37.06"/>
<text text-anchor="middle" x="2205.5" y="-57.8" font-family="Times,serif" font-size="14.00">dep</text>
</g>
<!-- 27 -->
<g id="node28" class="node">
<title>27</title>
<ellipse fill="none" stroke="black" cx="2363" cy="-18" rx="27" ry="18"/>
<text text-anchor="middle" x="2363" y="-14.3" font-family="Times,serif" font-size="14.00">.</text>
</g>
<!-- 0&#45;&gt;27 -->
<g id="edge27" class="edge">
<title>0&#45;&gt;27</title>
<path fill="none" stroke="black" d="M1183.28,-104.26C1381.56,-104.78 2020.49,-103.67 2223,-69 2270.8,-60.82 2281.86,-53.73 2327,-36 2328.83,-35.28 2330.71,-34.51 2332.58,-33.71"/>
<polygon fill="black" stroke="black" points="2334.19,-36.83 2341.89,-29.55 2331.33,-30.44 2334.19,-36.83"/>
<text text-anchor="middle" x="2295.5" y="-57.8" font-family="Times,serif" font-size="14.00">dep</text>
</g>
</g>
</svg>
