<?xml version="1.0" encoding="UTF-8" standalone="no"?>
<!DOCTYPE svg PUBLIC "-//W3C//DTD SVG 1.1//EN"
 "http://www.w3.org/Graphics/SVG/1.1/DTD/svg11.dtd">
<!-- Generated by graphviz version 2.42.4 (0)
 -->
<!-- Pages: 1 -->
<svg width="4859pt" height="131pt"
 viewBox="0.00 0.00 4859.00 131.00" xmlns="http://www.w3.org/2000/svg" xmlns:xlink="http://www.w3.org/1999/xlink">
<g id="graph0" class="graph" transform="scale(1 1) rotate(0) translate(4 127)">
<polygon fill="white" stroke="transparent" points="-4,4 -4,-127 4855,-127 4855,4 -4,4"/>
<!-- 0 -->
<g id="node1" class="node">
<title>0</title>
<ellipse fill="none" stroke="black" cx="2561" cy="-105" rx="31.7" ry="18"/>
<text text-anchor="middle" x="2561" y="-101.3" font-family="Times,serif" font-size="14.00">Para</text>
</g>
<!-- 1 -->
<g id="node2" class="node">
<title>1</title>
<ellipse fill="none" stroke="black" cx="27" cy="-18" rx="27" ry="18"/>
<text text-anchor="middle" x="27" y="-14.3" font-family="Times,serif" font-size="14.00">os</text>
</g>
<!-- 0&#45;&gt;1 -->
<g id="edge1" class="edge">
<title>0&#45;&gt;1</title>
<path fill="none" stroke="black" d="M2528.85,-103.93C2264.19,-103.29 448.6,-97.85 208,-69 142.38,-61.13 125.47,-57.57 63,-36 61.09,-35.34 59.14,-34.61 57.2,-33.83"/>
<polygon fill="black" stroke="black" points="58.19,-30.44 47.62,-29.68 55.4,-36.87 58.19,-30.44"/>
<text text-anchor="middle" x="221.5" y="-57.8" font-family="Times,serif" font-size="14.00">dep</text>
</g>
<!-- 2 -->
<g id="node3" class="node">
<title>2</title>
<ellipse fill="none" stroke="black" cx="140" cy="-18" rx="67.69" ry="18"/>
<text text-anchor="middle" x="140" y="-14.3" font-family="Times,serif" font-size="14.00">empregados</text>
</g>
<!-- 0&#45;&gt;2 -->
<g id="edge2" class="edge">
<title>0&#45;&gt;2</title>
<path fill="none" stroke="black" d="M2528.9,-104.05C2270.36,-104.41 531.4,-105.42 302,-69 261.69,-62.6 217.52,-48.47 185.5,-36.85"/>
<polygon fill="black" stroke="black" points="186.56,-33.51 175.97,-33.34 184.14,-40.08 186.56,-33.51"/>
<text text-anchor="middle" x="315.5" y="-57.8" font-family="Times,serif" font-size="14.00">dep</text>
</g>
<!-- 3 -->
<g id="node4" class="node">
<title>3</title>
<ellipse fill="none" stroke="black" cx="253" cy="-18" rx="27" ry="18"/>
<text text-anchor="middle" x="253" y="-14.3" font-family="Times,serif" font-size="14.00">de</text>
</g>
<!-- 0&#45;&gt;3 -->
<g id="edge3" class="edge">
<title>0&#45;&gt;3</title>
<path fill="none" stroke="black" d="M2528.88,-104.09C2275.65,-104.75 605.03,-107.58 385,-69 348.61,-62.62 309.31,-46.42 283.14,-34.17"/>
<polygon fill="black" stroke="black" points="284.32,-30.86 273.79,-29.7 281.3,-37.17 284.32,-30.86"/>
<text text-anchor="middle" x="398.5" y="-57.8" font-family="Times,serif" font-size="14.00">dep</text>
</g>
<!-- 4 -->
<g id="node5" class="node">
<title>4</title>
<ellipse fill="none" stroke="black" cx="325" cy="-18" rx="27" ry="18"/>
<text text-anchor="middle" x="325" y="-14.3" font-family="Times,serif" font-size="14.00">a</text>
</g>
<!-- 0&#45;&gt;4 -->
<g id="edge4" class="edge">
<title>0&#45;&gt;4</title>
<path fill="none" stroke="black" d="M2528.98,-103.89C2283.59,-103.01 704.89,-96.27 495,-69 434.18,-61.1 418.8,-56.53 361,-36 359.09,-35.32 357.16,-34.58 355.21,-33.79"/>
<polygon fill="black" stroke="black" points="356.21,-30.41 345.64,-29.61 353.4,-36.82 356.21,-30.41"/>
<text text-anchor="middle" x="508.5" y="-57.8" font-family="Times,serif" font-size="14.00">dep</text>
</g>
<!-- 5 -->
<g id="node6" class="node">
<title>5</title>
<ellipse fill="none" stroke="black" cx="425" cy="-18" rx="55.49" ry="18"/>
<text text-anchor="middle" x="425" y="-14.3" font-family="Times,serif" font-size="14.00">Microsoft</text>
</g>
<!-- 0&#45;&gt;5 -->
<g id="edge5" class="edge">
<title>0&#45;&gt;5</title>
<path fill="none" stroke="black" d="M2528.94,-103.96C2289.85,-103.63 789.05,-100.3 590,-69 547.8,-62.36 501.36,-47.58 468.53,-35.8"/>
<polygon fill="black" stroke="black" points="469.39,-32.39 458.8,-32.26 467,-38.97 469.39,-32.39"/>
<text text-anchor="middle" x="603.5" y="-57.8" font-family="Times,serif" font-size="14.00">dep</text>
</g>
<!-- 6 -->
<g id="node7" class="node">
<title>6</title>
<ellipse fill="none" stroke="black" cx="525" cy="-18" rx="27" ry="18"/>
<text text-anchor="middle" x="525" y="-14.3" font-family="Times,serif" font-size="14.00">é</text>
</g>
<!-- 0&#45;&gt;6 -->
<g id="edge6" class="edge">
<title>0&#45;&gt;6</title>
<path fill="none" stroke="black" d="M2529.03,-103.79C2298.47,-102.24 893.75,-91.89 706,-69 640.39,-61 623.47,-57.57 561,-36 559.09,-35.34 557.14,-34.61 555.2,-33.83"/>
<polygon fill="black" stroke="black" points="556.19,-30.44 545.62,-29.68 553.4,-36.87 556.19,-30.44"/>
<text text-anchor="middle" x="719.5" y="-57.8" font-family="Times,serif" font-size="14.00">dep</text>
</g>
<!-- 7 -->
<g id="node8" class="node">
<title>7</title>
<ellipse fill="none" stroke="black" cx="614" cy="-18" rx="44.39" ry="18"/>
<text text-anchor="middle" x="614" y="-14.3" font-family="Times,serif" font-size="14.00">comum</text>
</g>
<!-- 0&#45;&gt;7 -->
<g id="edge7" class="edge">
<title>0&#45;&gt;7</title>
<path fill="none" stroke="black" d="M2528.9,-104.18C2321.79,-105.21 1171.74,-109.04 823,-69 752.59,-60.92 735.5,-54.18 667,-36 663.63,-35.11 660.15,-34.12 656.67,-33.1"/>
<polygon fill="black" stroke="black" points="657.51,-29.7 646.93,-30.13 655.47,-36.39 657.51,-29.7"/>
<text text-anchor="middle" x="836.5" y="-57.8" font-family="Times,serif" font-size="14.00">dep</text>
</g>
<!-- 8 -->
<g id="node9" class="node">
<title>8</title>
<ellipse fill="none" stroke="black" cx="746" cy="-18" rx="70.39" ry="18"/>
<text text-anchor="middle" x="746" y="-14.3" font-family="Times,serif" font-size="14.00">encontrarem</text>
</g>
<!-- 0&#45;&gt;8 -->
<g id="edge8" class="edge">
<title>0&#45;&gt;8</title>
<path fill="none" stroke="black" d="M2529.07,-103.81C2314.59,-102.43 1087.22,-93.54 923,-69 878.54,-62.36 829.46,-47.9 794.28,-36.23"/>
<polygon fill="black" stroke="black" points="795.34,-32.9 784.74,-33.03 793.11,-39.53 795.34,-32.9"/>
<text text-anchor="middle" x="936.5" y="-57.8" font-family="Times,serif" font-size="14.00">dep</text>
</g>
<!-- 9 -->
<g id="node10" class="node">
<title>9</title>
<ellipse fill="none" stroke="black" cx="861" cy="-18" rx="27" ry="18"/>
<text text-anchor="middle" x="861" y="-14.3" font-family="Times,serif" font-size="14.00">Bill</text>
</g>
<!-- 0&#45;&gt;9 -->
<g id="edge9" class="edge">
<title>0&#45;&gt;9</title>
<path fill="none" stroke="black" d="M2529.18,-104.19C2337.87,-105.17 1338.7,-108.34 1035,-69 972.46,-60.9 956.5,-56.91 897,-36 895.09,-35.33 893.15,-34.59 891.21,-33.81"/>
<polygon fill="black" stroke="black" points="892.2,-30.42 881.63,-29.63 889.4,-36.84 892.2,-30.42"/>
<text text-anchor="middle" x="1048.5" y="-57.8" font-family="Times,serif" font-size="14.00">dep</text>
</g>
<!-- 10 -->
<g id="node11" class="node">
<title>10</title>
<ellipse fill="none" stroke="black" cx="944" cy="-18" rx="37.89" ry="18"/>
<text text-anchor="middle" x="944" y="-14.3" font-family="Times,serif" font-size="14.00">Gates</text>
</g>
<!-- 0&#45;&gt;10 -->
<g id="edge10" class="edge">
<title>0&#45;&gt;10</title>
<path fill="none" stroke="black" d="M2529.06,-103.83C2348.53,-102.78 1454.16,-96.26 1180,-69 1095.15,-60.56 1073.41,-57.92 991,-36 987.99,-35.2 984.91,-34.29 981.83,-33.32"/>
<polygon fill="black" stroke="black" points="982.67,-29.91 972.08,-30.06 980.45,-36.55 982.67,-29.91"/>
<text text-anchor="middle" x="1193.5" y="-57.8" font-family="Times,serif" font-size="14.00">dep</text>
</g>
<!-- 11 -->
<g id="node12" class="node">
<title>11</title>
<ellipse fill="none" stroke="black" cx="1091" cy="-18" rx="90.98" ry="18"/>
<text text-anchor="middle" x="1091" y="-14.3" font-family="Times,serif" font-size="14.00">electronicamente</text>
</g>
<!-- 0&#45;&gt;11 -->
<g id="edge11" class="edge">
<title>0&#45;&gt;11</title>
<path fill="none" stroke="black" d="M2529.01,-104.08C2356.68,-104.39 1537.51,-103.95 1287,-69 1238.79,-62.27 1185.32,-48.17 1146.43,-36.66"/>
<polygon fill="black" stroke="black" points="1146.95,-33.16 1136.36,-33.64 1144.94,-39.86 1146.95,-33.16"/>
<text text-anchor="middle" x="1300.5" y="-57.8" font-family="Times,serif" font-size="14.00">dep</text>
</g>
<!-- 12 -->
<g id="node13" class="node">
<title>12</title>
<ellipse fill="none" stroke="black" cx="1236" cy="-18" rx="36.29" ry="18"/>
<text text-anchor="middle" x="1236" y="-14.3" font-family="Times,serif" font-size="14.00">antes</text>
</g>
<!-- 0&#45;&gt;12 -->
<g id="edge12" class="edge">
<title>0&#45;&gt;12</title>
<path fill="none" stroke="black" d="M2529.13,-103.67C2351.49,-101.78 1487.44,-91.45 1371,-69 1335.59,-62.17 1297.21,-47.16 1270.46,-35.36"/>
<polygon fill="black" stroke="black" points="1271.71,-32.08 1261.16,-31.17 1268.84,-38.47 1271.71,-32.08"/>
<text text-anchor="middle" x="1384.5" y="-57.8" font-family="Times,serif" font-size="14.00">dep</text>
</g>
<!-- 13 -->
<g id="node14" class="node">
<title>13</title>
<ellipse fill="none" stroke="black" cx="1317" cy="-18" rx="27" ry="18"/>
<text text-anchor="middle" x="1317" y="-14.3" font-family="Times,serif" font-size="14.00">de</text>
</g>
<!-- 0&#45;&gt;13 -->
<g id="edge13" class="edge">
<title>0&#45;&gt;13</title>
<path fill="none" stroke="black" d="M2529.11,-104.1C2371.66,-104.41 1676.18,-103.77 1463,-69 1412.62,-60.78 1400.66,-54.28 1353,-36 1351.16,-35.29 1349.28,-34.54 1347.4,-33.74"/>
<polygon fill="black" stroke="black" points="1348.65,-30.47 1338.09,-29.6 1345.81,-36.86 1348.65,-30.47"/>
<text text-anchor="middle" x="1476.5" y="-57.8" font-family="Times,serif" font-size="14.00">dep</text>
</g>
<!-- 14 -->
<g id="node15" class="node">
<title>14</title>
<ellipse fill="none" stroke="black" cx="1389" cy="-18" rx="27" ry="18"/>
<text text-anchor="middle" x="1389" y="-14.3" font-family="Times,serif" font-size="14.00">o</text>
</g>
<!-- 0&#45;&gt;14 -->
<g id="edge14" class="edge">
<title>0&#45;&gt;14</title>
<path fill="none" stroke="black" d="M2529.14,-104.34C2409.28,-105.3 1974.06,-105.88 1618,-69 1531.44,-60.03 1508,-62.15 1425,-36 1423.07,-35.39 1421.11,-34.7 1419.16,-33.95"/>
<polygon fill="black" stroke="black" points="1420.13,-30.56 1409.55,-29.88 1417.39,-37.01 1420.13,-30.56"/>
<text text-anchor="middle" x="1631.5" y="-57.8" font-family="Times,serif" font-size="14.00">dep</text>
</g>
<!-- 15 -->
<g id="node16" class="node">
<title>15</title>
<ellipse fill="none" stroke="black" cx="1501" cy="-18" rx="66.89" ry="18"/>
<text text-anchor="middle" x="1501" y="-14.3" font-family="Times,serif" font-size="14.00">conhecerem</text>
</g>
<!-- 0&#45;&gt;15 -->
<g id="edge15" class="edge">
<title>0&#45;&gt;15</title>
<path fill="none" stroke="black" d="M2528.96,-103.37C2396.41,-100.63 1890.45,-89.07 1732,-69 1671.32,-61.31 1602.99,-45.63 1556.48,-33.86"/>
<polygon fill="black" stroke="black" points="1557.17,-30.42 1546.61,-31.34 1555.43,-37.21 1557.17,-30.42"/>
<text text-anchor="middle" x="1745.5" y="-57.8" font-family="Times,serif" font-size="14.00">dep</text>
</g>
<!-- 16 -->
<g id="node17" class="node">
<title>16</title>
<ellipse fill="none" stroke="black" cx="1661" cy="-18" rx="74.99" ry="18"/>
<text text-anchor="middle" x="1661" y="-14.3" font-family="Times,serif" font-size="14.00">pessoalmente</text>
</g>
<!-- 0&#45;&gt;16 -->
<g id="edge16" class="edge">
<title>0&#45;&gt;16</title>
<path fill="none" stroke="black" d="M2529.02,-103.58C2405.46,-101.8 1959.32,-93.77 1820,-69 1781.44,-62.14 1739.21,-48.56 1707.96,-37.28"/>
<polygon fill="black" stroke="black" points="1708.82,-33.87 1698.23,-33.71 1706.41,-40.44 1708.82,-33.87"/>
<text text-anchor="middle" x="1833.5" y="-57.8" font-family="Times,serif" font-size="14.00">dep</text>
</g>
<!-- 17 -->
<g id="node18" class="node">
<title>17</title>
<ellipse fill="none" stroke="black" cx="1781" cy="-18" rx="27" ry="18"/>
<text text-anchor="middle" x="1781" y="-14.3" font-family="Times,serif" font-size="14.00">e</text>
</g>
<!-- 0&#45;&gt;17 -->
<g id="edge17" class="edge">
<title>0&#45;&gt;17</title>
<path fill="none" stroke="black" d="M2529.17,-103.74C2414.04,-102.59 2019.6,-96.67 1897,-69 1866.12,-62.03 1833.17,-47.02 1810.31,-35.25"/>
<polygon fill="black" stroke="black" points="1811.65,-32 1801.17,-30.44 1808.39,-38.2 1811.65,-32"/>
<text text-anchor="middle" x="1910.5" y="-57.8" font-family="Times,serif" font-size="14.00">dep</text>
</g>
<!-- 18 -->
<g id="node19" class="node">
<title>18</title>
<ellipse fill="none" stroke="black" cx="1853" cy="-18" rx="27" ry="18"/>
<text text-anchor="middle" x="1853" y="-14.3" font-family="Times,serif" font-size="14.00">,</text>
</g>
<!-- 0&#45;&gt;18 -->
<g id="edge18" class="edge">
<title>0&#45;&gt;18</title>
<path fill="none" stroke="black" d="M2529.02,-103.36C2422.88,-101.03 2082.95,-91.92 1976,-69 1942.77,-61.88 1907.02,-46.38 1882.67,-34.51"/>
<polygon fill="black" stroke="black" points="1884.13,-31.32 1873.61,-30 1881.01,-37.59 1884.13,-31.32"/>
<text text-anchor="middle" x="1989.5" y="-57.8" font-family="Times,serif" font-size="14.00">dep</text>
</g>
<!-- 19 -->
<g id="node20" class="node">
<title>19</title>
<ellipse fill="none" stroke="black" cx="1925" cy="-18" rx="27" ry="18"/>
<text text-anchor="middle" x="1925" y="-14.3" font-family="Times,serif" font-size="14.00">a</text>
</g>
<!-- 0&#45;&gt;19 -->
<g id="edge19" class="edge">
<title>0&#45;&gt;19</title>
<path fill="none" stroke="black" d="M2529.27,-102.96C2432.91,-99.61 2144.72,-88.22 2053,-69 2018.22,-61.71 1980.57,-45.97 1955.17,-34.09"/>
<polygon fill="black" stroke="black" points="1956.6,-30.89 1946.07,-29.75 1953.59,-37.21 1956.6,-30.89"/>
<text text-anchor="middle" x="2066.5" y="-57.8" font-family="Times,serif" font-size="14.00">dep</text>
</g>
<!-- 20 -->
<g id="node21" class="node">
<title>20</title>
<ellipse fill="none" stroke="black" cx="1997" cy="-18" rx="27" ry="18"/>
<text text-anchor="middle" x="1997" y="-14.3" font-family="Times,serif" font-size="14.00">a</text>
</g>
<!-- 0&#45;&gt;20 -->
<g id="edge20" class="edge">
<title>0&#45;&gt;20</title>
<path fill="none" stroke="black" d="M2529.03,-103.44C2459.15,-101.75 2287.79,-95.06 2147,-69 2095.13,-59.4 2082.34,-54.65 2033,-36 2031.16,-35.3 2029.28,-34.55 2027.4,-33.76"/>
<polygon fill="black" stroke="black" points="2028.64,-30.49 2018.08,-29.64 2025.81,-36.89 2028.64,-30.49"/>
<text text-anchor="middle" x="2160.5" y="-57.8" font-family="Times,serif" font-size="14.00">dep</text>
</g>
<!-- 21 -->
<g id="node22" class="node">
<title>21</title>
<ellipse fill="none" stroke="black" cx="2090" cy="-18" rx="48.19" ry="18"/>
<text text-anchor="middle" x="2090" y="-14.3" font-family="Times,serif" font-size="14.00">imagem</text>
</g>
<!-- 0&#45;&gt;21 -->
<g id="edge21" class="edge">
<title>0&#45;&gt;21</title>
<path fill="none" stroke="black" d="M2529.26,-103.26C2469.41,-101.29 2336.07,-94.21 2227,-69 2193.17,-61.18 2156.26,-47.39 2129.29,-36.27"/>
<polygon fill="black" stroke="black" points="2130.4,-32.94 2119.82,-32.31 2127.7,-39.39 2130.4,-32.94"/>
<text text-anchor="middle" x="2240.5" y="-57.8" font-family="Times,serif" font-size="14.00">dep</text>
</g>
<!-- 22 -->
<g id="node23" class="node">
<title>22</title>
<ellipse fill="none" stroke="black" cx="2183" cy="-18" rx="27" ry="18"/>
<text text-anchor="middle" x="2183" y="-14.3" font-family="Times,serif" font-size="14.00">de</text>
</g>
<!-- 0&#45;&gt;22 -->
<g id="edge22" class="edge">
<title>0&#45;&gt;22</title>
<path fill="none" stroke="black" d="M2529.16,-102.33C2479.48,-99.16 2380.85,-90.52 2300,-69 2269.04,-60.76 2235.61,-45.81 2212.45,-34.4"/>
<polygon fill="black" stroke="black" points="2214,-31.26 2203.49,-29.91 2210.86,-37.52 2214,-31.26"/>
<text text-anchor="middle" x="2313.5" y="-57.8" font-family="Times,serif" font-size="14.00">dep</text>
</g>
<!-- 23 -->
<g id="node24" class="node">
<title>23</title>
<ellipse fill="none" stroke="black" cx="2255" cy="-18" rx="27" ry="18"/>
<text text-anchor="middle" x="2255" y="-14.3" font-family="Times,serif" font-size="14.00">o</text>
</g>
<!-- 0&#45;&gt;23 -->
<g id="edge23" class="edge">
<title>0&#45;&gt;23</title>
<path fill="none" stroke="black" d="M2529.93,-100.31C2491.92,-95.33 2425.85,-85.17 2371,-69 2334.11,-58.12 2326.18,-51.55 2291,-36 2289.2,-35.2 2287.35,-34.37 2285.49,-33.53"/>
<polygon fill="black" stroke="black" points="2286.78,-30.27 2276.24,-29.24 2283.84,-36.62 2286.78,-30.27"/>
<text text-anchor="middle" x="2384.5" y="-57.8" font-family="Times,serif" font-size="14.00">dep</text>
</g>
<!-- 24 -->
<g id="node25" class="node">
<title>24</title>
<ellipse fill="none" stroke="black" cx="2336" cy="-18" rx="36" ry="18"/>
<text text-anchor="middle" x="2336" y="-14.3" font-family="Times,serif" font-size="14.00">chefe</text>
</g>
<!-- 0&#45;&gt;24 -->
<g id="edge24" class="edge">
<title>0&#45;&gt;24</title>
<path fill="none" stroke="black" d="M2531.7,-97.59C2505.82,-91.53 2467.29,-81.5 2435,-69 2411.7,-59.98 2386.58,-47.26 2367.48,-36.9"/>
<polygon fill="black" stroke="black" points="2369.07,-33.78 2358.62,-32.04 2365.7,-39.92 2369.07,-33.78"/>
<text text-anchor="middle" x="2448.5" y="-57.8" font-family="Times,serif" font-size="14.00">dep</text>
</g>
<!-- 25 -->
<g id="node26" class="node">
<title>25</title>
<ellipse fill="none" stroke="black" cx="2417" cy="-18" rx="27" ry="18"/>
<text text-anchor="middle" x="2417" y="-14.3" font-family="Times,serif" font-size="14.00">&#45;&#45;</text>
</g>
<!-- 0&#45;&gt;25 -->
<g id="edge25" class="edge">
<title>0&#45;&gt;25</title>
<path fill="none" stroke="black" d="M2536.11,-93.56C2521.48,-87.1 2502.81,-78.28 2487,-69 2471.37,-59.82 2454.82,-48.1 2441.74,-38.32"/>
<polygon fill="black" stroke="black" points="2443.77,-35.47 2433.69,-32.21 2439.54,-41.04 2443.77,-35.47"/>
<text text-anchor="middle" x="2500.5" y="-57.8" font-family="Times,serif" font-size="14.00">dep</text>
</g>
<!-- 26 -->
<g id="node27" class="node">
<title>26</title>
<ellipse fill="none" stroke="black" cx="2489" cy="-18" rx="27" ry="18"/>
<text text-anchor="middle" x="2489" y="-14.3" font-family="Times,serif" font-size="14.00">o</text>
</g>
<!-- 0&#45;&gt;26 -->
<g id="edge26" class="edge">
<title>0&#45;&gt;26</title>
<path fill="none" stroke="black" d="M2546.98,-88.43C2541.62,-82.41 2535.48,-75.42 2530,-69 2522.68,-60.41 2514.79,-50.86 2507.9,-42.43"/>
<polygon fill="black" stroke="black" points="2510.44,-39.99 2501.41,-34.44 2505,-44.41 2510.44,-39.99"/>
<text text-anchor="middle" x="2543.5" y="-57.8" font-family="Times,serif" font-size="14.00">dep</text>
</g>
<!-- 27 -->
<g id="node28" class="node">
<title>27</title>
<ellipse fill="none" stroke="black" cx="2561" cy="-18" rx="27" ry="18"/>
<text text-anchor="middle" x="2561" y="-14.3" font-family="Times,serif" font-size="14.00">«</text>
</g>
<!-- 0&#45;&gt;27 -->
<g id="edge27" class="edge">
<title>0&#45;&gt;27</title>
<path fill="none" stroke="black" d="M2561,-86.8C2561,-75.16 2561,-59.55 2561,-46.24"/>
<polygon fill="black" stroke="black" points="2564.5,-46.18 2561,-36.18 2557.5,-46.18 2564.5,-46.18"/>
<text text-anchor="middle" x="2574.5" y="-57.8" font-family="Times,serif" font-size="14.00">dep</text>
</g>
<!-- 28 -->
<g id="node29" class="node">
<title>28</title>
<ellipse fill="none" stroke="black" cx="2638" cy="-18" rx="32.49" ry="18"/>
<text text-anchor="middle" x="2638" y="-14.3" font-family="Times,serif" font-size="14.00">mais</text>
</g>
<!-- 0&#45;&gt;28 -->
<g id="edge28" class="edge">
<title>0&#45;&gt;28</title>
<path fill="none" stroke="black" d="M2575.12,-88.41C2586.85,-75.47 2603.69,-56.87 2616.99,-42.19"/>
<polygon fill="black" stroke="black" points="2619.85,-44.25 2623.97,-34.49 2614.66,-39.55 2619.85,-44.25"/>
<text text-anchor="middle" x="2618.5" y="-57.8" font-family="Times,serif" font-size="14.00">dep</text>
</g>
<!-- 29 -->
<g id="node30" class="node">
<title>29</title>
<ellipse fill="none" stroke="black" cx="2735" cy="-18" rx="46.29" ry="18"/>
<text text-anchor="middle" x="2735" y="-14.3" font-family="Times,serif" font-size="14.00">esperto</text>
</g>
<!-- 0&#45;&gt;29 -->
<g id="edge29" class="edge">
<title>0&#45;&gt;29</title>
<path fill="none" stroke="black" d="M2585.07,-93C2599.83,-86.2 2619.07,-77.22 2636,-69 2657.04,-58.78 2680.4,-47 2699.15,-37.44"/>
<polygon fill="black" stroke="black" points="2700.91,-40.48 2708.22,-32.81 2697.72,-34.24 2700.91,-40.48"/>
<text text-anchor="middle" x="2680.5" y="-57.8" font-family="Times,serif" font-size="14.00">dep</text>
</g>
<!-- 30 -->
<g id="node31" class="node">
<title>30</title>
<ellipse fill="none" stroke="black" cx="2826" cy="-18" rx="27" ry="18"/>
<text text-anchor="middle" x="2826" y="-14.3" font-family="Times,serif" font-size="14.00">de</text>
</g>
<!-- 0&#45;&gt;30 -->
<g id="edge30" class="edge">
<title>0&#45;&gt;30</title>
<path fill="none" stroke="black" d="M2590.09,-97.41C2617.97,-90.9 2661.15,-80.29 2698,-69 2739.53,-56.28 2749.87,-52.63 2790,-36 2791.82,-35.25 2793.68,-34.45 2795.55,-33.63"/>
<polygon fill="black" stroke="black" points="2797.17,-36.73 2804.83,-29.41 2794.28,-30.36 2797.17,-36.73"/>
<text text-anchor="middle" x="2756.5" y="-57.8" font-family="Times,serif" font-size="14.00">dep</text>
</g>
<!-- 31 -->
<g id="node32" class="node">
<title>31</title>
<ellipse fill="none" stroke="black" cx="2907" cy="-18" rx="36.29" ry="18"/>
<text text-anchor="middle" x="2907" y="-14.3" font-family="Times,serif" font-size="14.00">todos</text>
</g>
<!-- 0&#45;&gt;31 -->
<g id="edge31" class="edge">
<title>0&#45;&gt;31</title>
<path fill="none" stroke="black" d="M2592.09,-100.83C2633.93,-96.12 2710.46,-85.96 2774,-69 2814.36,-58.23 2822.91,-50.71 2862,-36 2864.39,-35.1 2866.86,-34.17 2869.34,-33.23"/>
<polygon fill="black" stroke="black" points="2870.8,-36.43 2878.92,-29.62 2868.33,-29.88 2870.8,-36.43"/>
<text text-anchor="middle" x="2831.5" y="-57.8" font-family="Times,serif" font-size="14.00">dep</text>
</g>
<!-- 32 -->
<g id="node33" class="node">
<title>32</title>
<ellipse fill="none" stroke="black" cx="2988" cy="-18" rx="27" ry="18"/>
<text text-anchor="middle" x="2988" y="-14.3" font-family="Times,serif" font-size="14.00">»</text>
</g>
<!-- 0&#45;&gt;32 -->
<g id="edge32" class="edge">
<title>0&#45;&gt;32</title>
<path fill="none" stroke="black" d="M2592.86,-102.1C2646.32,-98.48 2757.24,-89.09 2849,-69 2895.96,-58.72 2907.28,-53.63 2952,-36 2953.83,-35.28 2955.7,-34.5 2957.58,-33.7"/>
<polygon fill="black" stroke="black" points="2959.19,-36.82 2966.88,-29.54 2956.33,-30.43 2959.19,-36.82"/>
<text text-anchor="middle" x="2918.5" y="-57.8" font-family="Times,serif" font-size="14.00">dep</text>
</g>
<!-- 33 -->
<g id="node34" class="node">
<title>33</title>
<ellipse fill="none" stroke="black" cx="3060" cy="-18" rx="27" ry="18"/>
<text text-anchor="middle" x="3060" y="-14.3" font-family="Times,serif" font-size="14.00">&#45;&#45;</text>
</g>
<!-- 0&#45;&gt;33 -->
<g id="edge33" class="edge">
<title>0&#45;&gt;33</title>
<path fill="none" stroke="black" d="M2592.81,-103.86C2658.03,-102.96 2811.26,-97.67 2936,-69 2969.35,-61.33 3005.41,-45.92 3030,-34.22"/>
<polygon fill="black" stroke="black" points="3031.69,-37.29 3039.16,-29.78 3028.63,-30.99 3031.69,-37.29"/>
<text text-anchor="middle" x="2995.5" y="-57.8" font-family="Times,serif" font-size="14.00">dep</text>
</g>
<!-- 34 -->
<g id="node35" class="node">
<title>34</title>
<ellipse fill="none" stroke="black" cx="3132" cy="-18" rx="27" ry="18"/>
<text text-anchor="middle" x="3132" y="-14.3" font-family="Times,serif" font-size="14.00">,</text>
</g>
<!-- 0&#45;&gt;34 -->
<g id="edge34" class="edge">
<title>0&#45;&gt;34</title>
<path fill="none" stroke="black" d="M2592.69,-102.79C2681.71,-99.18 2932.78,-87.6 3013,-69 3044.85,-61.61 3079.05,-46.41 3102.57,-34.69"/>
<polygon fill="black" stroke="black" points="3104.32,-37.73 3111.65,-30.08 3101.15,-31.49 3104.32,-37.73"/>
<text text-anchor="middle" x="3070.5" y="-57.8" font-family="Times,serif" font-size="14.00">dep</text>
</g>
<!-- 35 -->
<g id="node36" class="node">
<title>35</title>
<ellipse fill="none" stroke="black" cx="3223" cy="-18" rx="46.29" ry="18"/>
<text text-anchor="middle" x="3223" y="-14.3" font-family="Times,serif" font-size="14.00">passam</text>
</g>
<!-- 0&#45;&gt;35 -->
<g id="edge35" class="edge">
<title>0&#45;&gt;35</title>
<path fill="none" stroke="black" d="M2592.88,-103.09C2691.8,-100.06 2992.61,-89.38 3088,-69 3121.85,-61.77 3158.58,-47.73 3185.18,-36.36"/>
<polygon fill="black" stroke="black" points="3186.72,-39.51 3194.49,-32.31 3183.92,-33.09 3186.72,-39.51"/>
<text text-anchor="middle" x="3151.5" y="-57.8" font-family="Times,serif" font-size="14.00">dep</text>
</g>
<!-- 36 -->
<g id="node37" class="node">
<title>36</title>
<ellipse fill="none" stroke="black" cx="3314" cy="-18" rx="27" ry="18"/>
<text text-anchor="middle" x="3314" y="-14.3" font-family="Times,serif" font-size="14.00">a</text>
</g>
<!-- 0&#45;&gt;36 -->
<g id="edge36" class="edge">
<title>0&#45;&gt;36</title>
<path fill="none" stroke="black" d="M2593.04,-103.16C2701.84,-100.13 3056.7,-88.94 3169,-69 3218.84,-60.15 3230.77,-54.19 3278,-36 3279.84,-35.29 3281.71,-34.53 3283.59,-33.74"/>
<polygon fill="black" stroke="black" points="3285.19,-36.86 3292.91,-29.59 3282.35,-30.46 3285.19,-36.86"/>
<text text-anchor="middle" x="3243.5" y="-57.8" font-family="Times,serif" font-size="14.00">dep</text>
</g>
<!-- 37 -->
<g id="node38" class="node">
<title>37</title>
<ellipse fill="none" stroke="black" cx="3390" cy="-18" rx="30.59" ry="18"/>
<text text-anchor="middle" x="3390" y="-14.3" font-family="Times,serif" font-size="14.00">vida</text>
</g>
<!-- 0&#45;&gt;37 -->
<g id="edge37" class="edge">
<title>0&#45;&gt;37</title>
<path fill="none" stroke="black" d="M2592.87,-103.69C2711.95,-102.35 3130.63,-95.77 3261,-69 3295.42,-61.93 3332.64,-46.61 3358.2,-34.78"/>
<polygon fill="black" stroke="black" points="3359.85,-37.87 3367.4,-30.44 3356.87,-31.54 3359.85,-37.87"/>
<text text-anchor="middle" x="3325.5" y="-57.8" font-family="Times,serif" font-size="14.00">dep</text>
</g>
<!-- 38 -->
<g id="node39" class="node">
<title>38</title>
<ellipse fill="none" stroke="black" cx="3466" cy="-18" rx="27" ry="18"/>
<text text-anchor="middle" x="3466" y="-14.3" font-family="Times,serif" font-size="14.00">a</text>
</g>
<!-- 0&#45;&gt;38 -->
<g id="edge38" class="edge">
<title>0&#45;&gt;38</title>
<path fill="none" stroke="black" d="M2593.04,-103.92C2721.07,-103.38 3196.1,-99.33 3343,-69 3376.28,-62.13 3412.02,-46.59 3436.35,-34.64"/>
<polygon fill="black" stroke="black" points="3438.04,-37.72 3445.41,-30.11 3434.9,-31.46 3438.04,-37.72"/>
<text text-anchor="middle" x="3405.5" y="-57.8" font-family="Times,serif" font-size="14.00">dep</text>
</g>
<!-- 39 -->
<g id="node40" class="node">
<title>39</title>
<ellipse fill="none" stroke="black" cx="3582" cy="-18" rx="70.69" ry="18"/>
<text text-anchor="middle" x="3582" y="-14.3" font-family="Times,serif" font-size="14.00">descreverem</text>
</g>
<!-- 0&#45;&gt;39 -->
<g id="edge39" class="edge">
<title>0&#45;&gt;39</title>
<path fill="none" stroke="black" d="M2592.99,-103.83C2728.88,-102.93 3258.85,-97.62 3423,-69 3461.84,-62.23 3504.38,-48.5 3535.67,-37.14"/>
<polygon fill="black" stroke="black" points="3537.25,-40.29 3545.42,-33.55 3534.83,-33.72 3537.25,-40.29"/>
<text text-anchor="middle" x="3494.5" y="-57.8" font-family="Times,serif" font-size="14.00">dep</text>
</g>
<!-- 40 -->
<g id="node41" class="node">
<title>40</title>
<ellipse fill="none" stroke="black" cx="3698" cy="-18" rx="27" ry="18"/>
<text text-anchor="middle" x="3698" y="-14.3" font-family="Times,serif" font-size="14.00">se</text>
</g>
<!-- 0&#45;&gt;40 -->
<g id="edge40" class="edge">
<title>0&#45;&gt;40</title>
<path fill="none" stroke="black" d="M2592.78,-103.6C2736.68,-101.66 3328.24,-92.4 3512,-69 3579.71,-60.38 3597.4,-58.05 3662,-36 3663.91,-35.35 3665.86,-34.62 3667.81,-33.85"/>
<polygon fill="black" stroke="black" points="3669.6,-36.88 3677.39,-29.7 3666.82,-30.46 3669.6,-36.88"/>
<text text-anchor="middle" x="3617.5" y="-57.8" font-family="Times,serif" font-size="14.00">dep</text>
</g>
<!-- 41 -->
<g id="node42" class="node">
<title>41</title>
<ellipse fill="none" stroke="black" cx="3770" cy="-18" rx="27.1" ry="18"/>
<text text-anchor="middle" x="3770" y="-14.3" font-family="Times,serif" font-size="14.00">uns</text>
</g>
<!-- 0&#45;&gt;41 -->
<g id="edge41" class="edge">
<title>0&#45;&gt;41</title>
<path fill="none" stroke="black" d="M2592.98,-104.2C2748.58,-104.98 3427.38,-106.17 3635,-69 3672.25,-62.33 3712.66,-46.06 3739.46,-33.88"/>
<polygon fill="black" stroke="black" points="3741.09,-36.98 3748.69,-29.6 3738.15,-30.63 3741.09,-36.98"/>
<text text-anchor="middle" x="3702.5" y="-57.8" font-family="Times,serif" font-size="14.00">dep</text>
</g>
<!-- 42 -->
<g id="node43" class="node">
<title>42</title>
<ellipse fill="none" stroke="black" cx="3842" cy="-18" rx="27" ry="18"/>
<text text-anchor="middle" x="3842" y="-14.3" font-family="Times,serif" font-size="14.00">a</text>
</g>
<!-- 0&#45;&gt;42 -->
<g id="edge42" class="edge">
<title>0&#45;&gt;42</title>
<path fill="none" stroke="black" d="M2592.9,-103.67C2767.84,-101.81 3606.95,-91.72 3720,-69 3753.09,-62.35 3788.53,-46.78 3812.64,-34.76"/>
<polygon fill="black" stroke="black" points="3814.28,-37.85 3821.61,-30.2 3811.11,-31.62 3814.28,-37.85"/>
<text text-anchor="middle" x="3782.5" y="-57.8" font-family="Times,serif" font-size="14.00">dep</text>
</g>
<!-- 43 -->
<g id="node44" class="node">
<title>43</title>
<ellipse fill="none" stroke="black" cx="3914" cy="-18" rx="27" ry="18"/>
<text text-anchor="middle" x="3914" y="-14.3" font-family="Times,serif" font-size="14.00">os</text>
</g>
<!-- 0&#45;&gt;43 -->
<g id="edge43" class="edge">
<title>0&#45;&gt;43</title>
<path fill="none" stroke="black" d="M2593,-103.8C2775.33,-102.6 3679.09,-95.31 3800,-69 3830.49,-62.37 3862.85,-47.31 3885.27,-35.45"/>
<polygon fill="black" stroke="black" points="3887.11,-38.43 3894.23,-30.59 3883.77,-32.27 3887.11,-38.43"/>
<text text-anchor="middle" x="3859.5" y="-57.8" font-family="Times,serif" font-size="14.00">dep</text>
</g>
<!-- 44 -->
<g id="node45" class="node">
<title>44</title>
<ellipse fill="none" stroke="black" cx="3999" cy="-18" rx="40.09" ry="18"/>
<text text-anchor="middle" x="3999" y="-14.3" font-family="Times,serif" font-size="14.00">outros</text>
</g>
<!-- 0&#45;&gt;44 -->
<g id="edge44" class="edge">
<title>0&#45;&gt;44</title>
<path fill="none" stroke="black" d="M2592.81,-103.84C2781.3,-102.81 3747.92,-96.21 3877,-69 3908.04,-62.46 3941.23,-48.34 3965.15,-36.77"/>
<polygon fill="black" stroke="black" points="3966.74,-39.89 3974.15,-32.32 3963.64,-33.61 3966.74,-39.89"/>
<text text-anchor="middle" x="3939.5" y="-57.8" font-family="Times,serif" font-size="14.00">dep</text>
</g>
<!-- 45 -->
<g id="node46" class="node">
<title>45</title>
<ellipse fill="none" stroke="black" cx="4092" cy="-18" rx="35.19" ry="18"/>
<text text-anchor="middle" x="4092" y="-14.3" font-family="Times,serif" font-size="14.00">como</text>
</g>
<!-- 0&#45;&gt;45 -->
<g id="edge45" class="edge">
<title>0&#45;&gt;45</title>
<path fill="none" stroke="black" d="M2592.81,-103.82C2787.91,-102.61 3819.05,-95.03 3957,-69 3992.65,-62.27 4031.28,-47.1 4058.05,-35.22"/>
<polygon fill="black" stroke="black" points="4059.68,-38.32 4067.35,-31.01 4056.79,-31.94 4059.68,-38.32"/>
<text text-anchor="middle" x="4024.5" y="-57.8" font-family="Times,serif" font-size="14.00">dep</text>
</g>
<!-- 46 -->
<g id="node47" class="node">
<title>46</title>
<ellipse fill="none" stroke="black" cx="4172" cy="-18" rx="27" ry="18"/>
<text text-anchor="middle" x="4172" y="-14.3" font-family="Times,serif" font-size="14.00">«</text>
</g>
<!-- 0&#45;&gt;46 -->
<g id="edge46" class="edge">
<title>0&#45;&gt;46</title>
<path fill="none" stroke="black" d="M2593.08,-103.84C2795.79,-102.78 3895.1,-95.83 4042,-69 4077.65,-62.49 4116.11,-46.47 4141.87,-34.3"/>
<polygon fill="black" stroke="black" points="4143.6,-37.35 4151.09,-29.86 4140.56,-31.05 4143.6,-37.35"/>
<text text-anchor="middle" x="4107.5" y="-57.8" font-family="Times,serif" font-size="14.00">dep</text>
</g>
<!-- 47 -->
<g id="node48" class="node">
<title>47</title>
<ellipse fill="none" stroke="black" cx="4268" cy="-18" rx="50.89" ry="18"/>
<text text-anchor="middle" x="4268" y="-14.3" font-family="Times,serif" font-size="14.00">espertos</text>
</g>
<!-- 0&#45;&gt;47 -->
<g id="edge47" class="edge">
<title>0&#45;&gt;47</title>
<path fill="none" stroke="black" d="M2592.84,-103.89C2801.44,-103.07 3969.33,-97.23 4125,-69 4161.11,-62.45 4200.35,-48.19 4228.57,-36.56"/>
<polygon fill="black" stroke="black" points="4230.2,-39.67 4238.07,-32.58 4227.49,-33.22 4230.2,-39.67"/>
<text text-anchor="middle" x="4195.5" y="-57.8" font-family="Times,serif" font-size="14.00">dep</text>
</g>
<!-- 48 -->
<g id="node49" class="node">
<title>48</title>
<ellipse fill="none" stroke="black" cx="4364" cy="-18" rx="27" ry="18"/>
<text text-anchor="middle" x="4364" y="-14.3" font-family="Times,serif" font-size="14.00">»</text>
</g>
<!-- 0&#45;&gt;48 -->
<g id="edge48" class="edge">
<title>0&#45;&gt;48</title>
<path fill="none" stroke="black" d="M2592.86,-103.82C2808.2,-102.54 4047.34,-94.09 4213,-69 4265.57,-61.04 4278.24,-54.75 4328,-36 4329.84,-35.31 4331.72,-34.55 4333.61,-33.77"/>
<polygon fill="black" stroke="black" points="4335.2,-36.89 4342.93,-29.65 4332.36,-30.49 4335.2,-36.89"/>
<text text-anchor="middle" x="4293.5" y="-57.8" font-family="Times,serif" font-size="14.00">dep</text>
</g>
<!-- 49 -->
<g id="node50" class="node">
<title>49</title>
<ellipse fill="none" stroke="black" cx="4436" cy="-18" rx="27" ry="18"/>
<text text-anchor="middle" x="4436" y="-14.3" font-family="Times,serif" font-size="14.00">e</text>
</g>
<!-- 0&#45;&gt;49 -->
<g id="edge49" class="edge">
<title>0&#45;&gt;49</title>
<path fill="none" stroke="black" d="M2592.96,-104C2816.02,-103.94 4136.16,-102.18 4311,-69 4345.06,-62.54 4381.61,-46.78 4406.33,-34.67"/>
<polygon fill="black" stroke="black" points="4408.14,-37.67 4415.52,-30.07 4405.01,-31.42 4408.14,-37.67"/>
<text text-anchor="middle" x="4374.5" y="-57.8" font-family="Times,serif" font-size="14.00">dep</text>
</g>
<!-- 50 -->
<g id="node51" class="node">
<title>50</title>
<ellipse fill="none" stroke="black" cx="4508" cy="-18" rx="27" ry="18"/>
<text text-anchor="middle" x="4508" y="-14.3" font-family="Times,serif" font-size="14.00">«</text>
</g>
<!-- 0&#45;&gt;50 -->
<g id="edge50" class="edge">
<title>0&#45;&gt;50</title>
<path fill="none" stroke="black" d="M2592.98,-104.1C2822.03,-104.74 4209.32,-107.02 4392,-69 4423.32,-62.48 4456.62,-47.15 4479.47,-35.17"/>
<polygon fill="black" stroke="black" points="4481.13,-38.26 4488.28,-30.44 4477.82,-32.09 4481.13,-38.26"/>
<text text-anchor="middle" x="4452.5" y="-57.8" font-family="Times,serif" font-size="14.00">dep</text>
</g>
<!-- 51 -->
<g id="node52" class="node">
<title>51</title>
<ellipse fill="none" stroke="black" cx="4630" cy="-18" rx="77.19" ry="18"/>
<text text-anchor="middle" x="4630" y="-14.3" font-family="Times,serif" font-size="14.00">superespertos</text>
</g>
<!-- 0&#45;&gt;51 -->
<g id="edge51" class="edge">
<title>0&#45;&gt;51</title>
<path fill="none" stroke="black" d="M2592.8,-103.96C2826.73,-103.61 4277.56,-100.18 4470,-69 4509.18,-62.65 4552.03,-48.88 4583.52,-37.39"/>
<polygon fill="black" stroke="black" points="4584.75,-40.67 4592.91,-33.91 4582.31,-34.1 4584.75,-40.67"/>
<text text-anchor="middle" x="4546.5" y="-57.8" font-family="Times,serif" font-size="14.00">dep</text>
</g>
<!-- 52 -->
<g id="node53" class="node">
<title>52</title>
<ellipse fill="none" stroke="black" cx="4752" cy="-18" rx="27" ry="18"/>
<text text-anchor="middle" x="4752" y="-14.3" font-family="Times,serif" font-size="14.00">»</text>
</g>
<!-- 0&#45;&gt;52 -->
<g id="edge52" class="edge">
<title>0&#45;&gt;52</title>
<path fill="none" stroke="black" d="M2592.79,-103.82C2833.14,-102.42 4360.39,-92.65 4564,-69 4632.67,-61.02 4650.54,-58.24 4716,-36 4717.91,-35.35 4719.86,-34.63 4721.81,-33.85"/>
<polygon fill="black" stroke="black" points="4723.6,-36.89 4731.39,-29.71 4720.83,-30.47 4723.6,-36.89"/>
<text text-anchor="middle" x="4670.5" y="-57.8" font-family="Times,serif" font-size="14.00">dep</text>
</g>
<!-- 53 -->
<g id="node54" class="node">
<title>53</title>
<ellipse fill="none" stroke="black" cx="4824" cy="-18" rx="27" ry="18"/>
<text text-anchor="middle" x="4824" y="-14.3" font-family="Times,serif" font-size="14.00">.</text>
</g>
<!-- 0&#45;&gt;53 -->
<g id="edge53" class="edge">
<title>0&#45;&gt;53</title>
<path fill="none" stroke="black" d="M2593.19,-104.06C2843.34,-104.42 4472.93,-105.39 4688,-69 4725.78,-62.61 4766.74,-46.13 4793.73,-33.82"/>
<polygon fill="black" stroke="black" points="4795.41,-36.9 4803,-29.5 4792.46,-30.55 4795.41,-36.9"/>
<text text-anchor="middle" x="4755.5" y="-57.8" font-family="Times,serif" font-size="14.00">dep</text>
</g>
</g>
</svg>
