<?xml version="1.0" encoding="UTF-8" standalone="no"?>
<!DOCTYPE svg PUBLIC "-//W3C//DTD SVG 1.1//EN"
 "http://www.w3.org/Graphics/SVG/1.1/DTD/svg11.dtd">
<!-- Generated by graphviz version 2.42.4 (0)
 -->
<!-- Pages: 1 -->
<svg width="1730pt" height="131pt"
 viewBox="0.00 0.00 1730.20 131.00" xmlns="http://www.w3.org/2000/svg" xmlns:xlink="http://www.w3.org/1999/xlink">
<g id="graph0" class="graph" transform="scale(1 1) rotate(0) translate(4 127)">
<polygon fill="white" stroke="transparent" points="-4,4 -4,-127 1726.2,-127 1726.2,4 -4,4"/>
<!-- 0 -->
<g id="node1" class="node">
<title>0</title>
<ellipse fill="none" stroke="black" cx="895.2" cy="-105" rx="27" ry="18"/>
<text text-anchor="middle" x="895.2" y="-101.3" font-family="Times,serif" font-size="14.00">O</text>
</g>
<!-- 1 -->
<g id="node2" class="node">
<title>1</title>
<ellipse fill="none" stroke="black" cx="44.2" cy="-18" rx="44.39" ry="18"/>
<text text-anchor="middle" x="44.2" y="-14.3" font-family="Times,serif" font-size="14.00">partido</text>
</g>
<!-- 0&#45;&gt;1 -->
<g id="edge1" class="edge">
<title>0&#45;&gt;1</title>
<path fill="none" stroke="black" d="M868.14,-103.7C755.23,-102.28 321.27,-95.19 187.2,-69 150.6,-61.85 110.68,-47.28 82.34,-35.71"/>
<polygon fill="black" stroke="black" points="83.4,-32.36 72.82,-31.76 80.71,-38.82 83.4,-32.36"/>
<text text-anchor="middle" x="200.7" y="-57.8" font-family="Times,serif" font-size="14.00">dep</text>
</g>
<!-- 2 -->
<g id="node3" class="node">
<title>2</title>
<ellipse fill="none" stroke="black" cx="133.2" cy="-18" rx="27" ry="18"/>
<text text-anchor="middle" x="133.2" y="-14.3" font-family="Times,serif" font-size="14.00">é</text>
</g>
<!-- 0&#45;&gt;2 -->
<g id="edge2" class="edge">
<title>0&#45;&gt;2</title>
<path fill="none" stroke="black" d="M868.31,-103.3C765.3,-100.49 395.82,-89.19 280.2,-69 229.5,-60.14 217.27,-54.37 169.2,-36 167.36,-35.3 165.48,-34.54 163.6,-33.75"/>
<polygon fill="black" stroke="black" points="164.84,-30.47 154.28,-29.61 162,-36.87 164.84,-30.47"/>
<text text-anchor="middle" x="293.7" y="-57.8" font-family="Times,serif" font-size="14.00">dep</text>
</g>
<!-- 3 -->
<g id="node4" class="node">
<title>3</title>
<ellipse fill="none" stroke="black" cx="205.2" cy="-18" rx="27" ry="18"/>
<text text-anchor="middle" x="205.2" y="-14.3" font-family="Times,serif" font-size="14.00">um</text>
</g>
<!-- 0&#45;&gt;3 -->
<g id="edge3" class="edge">
<title>0&#45;&gt;3</title>
<path fill="none" stroke="black" d="M868.21,-102.81C797.24,-99.48 599.61,-89.01 436.2,-69 348.95,-58.31 325.05,-62.35 241.2,-36 239.27,-35.39 237.31,-34.7 235.35,-33.96"/>
<polygon fill="black" stroke="black" points="236.32,-30.57 225.75,-29.88 233.59,-37.01 236.32,-30.57"/>
<text text-anchor="middle" x="449.7" y="-57.8" font-family="Times,serif" font-size="14.00">dep</text>
</g>
<!-- 4 -->
<g id="node5" class="node">
<title>4</title>
<ellipse fill="none" stroke="black" cx="316.2" cy="-18" rx="65.79" ry="18"/>
<text text-anchor="middle" x="316.2" y="-14.3" font-family="Times,serif" font-size="14.00">aglomerado</text>
</g>
<!-- 0&#45;&gt;4 -->
<g id="edge4" class="edge">
<title>0&#45;&gt;4</title>
<path fill="none" stroke="black" d="M868.04,-102.39C808.67,-98.63 662.94,-88.11 542.2,-69 474.35,-58.26 458.25,-50.93 391.2,-36 385.9,-34.82 380.4,-33.59 374.89,-32.35"/>
<polygon fill="black" stroke="black" points="375.52,-28.91 365,-30.12 373.99,-35.73 375.52,-28.91"/>
<text text-anchor="middle" x="555.7" y="-57.8" font-family="Times,serif" font-size="14.00">dep</text>
</g>
<!-- 5 -->
<g id="node6" class="node">
<title>5</title>
<ellipse fill="none" stroke="black" cx="469.2" cy="-18" rx="68.79" ry="18"/>
<text text-anchor="middle" x="469.2" y="-14.3" font-family="Times,serif" font-size="14.00">heterogêneo</text>
</g>
<!-- 0&#45;&gt;5 -->
<g id="edge5" class="edge">
<title>0&#45;&gt;5</title>
<path fill="none" stroke="black" d="M868.37,-102.18C819.39,-98.48 712.39,-88.74 624.2,-69 587.22,-60.72 546.49,-47.41 516.06,-36.6"/>
<polygon fill="black" stroke="black" points="517.16,-33.28 506.56,-33.19 514.79,-39.87 517.16,-33.28"/>
<text text-anchor="middle" x="637.7" y="-57.8" font-family="Times,serif" font-size="14.00">dep</text>
</g>
<!-- 6 -->
<g id="node7" class="node">
<title>6</title>
<ellipse fill="none" stroke="black" cx="583.2" cy="-18" rx="27" ry="18"/>
<text text-anchor="middle" x="583.2" y="-14.3" font-family="Times,serif" font-size="14.00">,</text>
</g>
<!-- 0&#45;&gt;6 -->
<g id="edge6" class="edge">
<title>0&#45;&gt;6</title>
<path fill="none" stroke="black" d="M868.42,-101.57C829.1,-97.51 753.74,-87.88 692.2,-69 664.11,-60.38 633.87,-46.07 612.38,-34.96"/>
<polygon fill="black" stroke="black" points="613.93,-31.83 603.45,-30.27 610.67,-38.02 613.93,-31.83"/>
<text text-anchor="middle" x="705.7" y="-57.8" font-family="Times,serif" font-size="14.00">dep</text>
</g>
<!-- 7 -->
<g id="node8" class="node">
<title>7</title>
<ellipse fill="none" stroke="black" cx="656.2" cy="-18" rx="27.9" ry="18"/>
<text text-anchor="middle" x="656.2" y="-14.3" font-family="Times,serif" font-size="14.00">que</text>
</g>
<!-- 0&#45;&gt;7 -->
<g id="edge7" class="edge">
<title>0&#45;&gt;7</title>
<path fill="none" stroke="black" d="M869.59,-99.29C841.31,-93.69 794.69,-83.28 756.2,-69 731.49,-59.84 704.86,-46.33 685.29,-35.66"/>
<polygon fill="black" stroke="black" points="686.74,-32.46 676.3,-30.68 683.35,-38.59 686.74,-32.46"/>
<text text-anchor="middle" x="769.7" y="-57.8" font-family="Times,serif" font-size="14.00">dep</text>
</g>
<!-- 8 -->
<g id="node9" class="node">
<title>8</title>
<ellipse fill="none" stroke="black" cx="729.2" cy="-18" rx="27" ry="18"/>
<text text-anchor="middle" x="729.2" y="-14.3" font-family="Times,serif" font-size="14.00">só</text>
</g>
<!-- 0&#45;&gt;8 -->
<g id="edge8" class="edge">
<title>0&#45;&gt;8</title>
<path fill="none" stroke="black" d="M872.25,-95.35C855.36,-88.74 831.99,-79.07 812.2,-69 793.14,-59.31 772.56,-46.92 756.65,-36.9"/>
<polygon fill="black" stroke="black" points="758.19,-33.73 747.88,-31.31 754.43,-39.63 758.19,-33.73"/>
<text text-anchor="middle" x="825.7" y="-57.8" font-family="Times,serif" font-size="14.00">dep</text>
</g>
<!-- 9 -->
<g id="node10" class="node">
<title>9</title>
<ellipse fill="none" stroke="black" cx="801.2" cy="-18" rx="27" ry="18"/>
<text text-anchor="middle" x="801.2" y="-14.3" font-family="Times,serif" font-size="14.00">se</text>
</g>
<!-- 0&#45;&gt;9 -->
<g id="edge9" class="edge">
<title>0&#45;&gt;9</title>
<path fill="none" stroke="black" d="M879.67,-89.96C864.57,-76.31 841.44,-55.39 824.2,-39.8"/>
<polygon fill="black" stroke="black" points="826.51,-37.17 816.74,-33.06 821.81,-42.36 826.51,-37.17"/>
<text text-anchor="middle" x="867.7" y="-57.8" font-family="Times,serif" font-size="14.00">dep</text>
</g>
<!-- 10 -->
<g id="node11" class="node">
<title>10</title>
<ellipse fill="none" stroke="black" cx="895.2" cy="-18" rx="48.99" ry="18"/>
<text text-anchor="middle" x="895.2" y="-14.3" font-family="Times,serif" font-size="14.00">mantém</text>
</g>
<!-- 0&#45;&gt;10 -->
<g id="edge10" class="edge">
<title>0&#45;&gt;10</title>
<path fill="none" stroke="black" d="M895.2,-86.8C895.2,-75.16 895.2,-59.55 895.2,-46.24"/>
<polygon fill="black" stroke="black" points="898.7,-46.18 895.2,-36.18 891.7,-46.18 898.7,-46.18"/>
<text text-anchor="middle" x="908.7" y="-57.8" font-family="Times,serif" font-size="14.00">dep</text>
</g>
<!-- 11 -->
<g id="node12" class="node">
<title>11</title>
<ellipse fill="none" stroke="black" cx="998.2" cy="-18" rx="36.29" ry="18"/>
<text text-anchor="middle" x="998.2" y="-14.3" font-family="Times,serif" font-size="14.00">unido</text>
</g>
<!-- 0&#45;&gt;11 -->
<g id="edge11" class="edge">
<title>0&#45;&gt;11</title>
<path fill="none" stroke="black" d="M911.74,-90.34C928.17,-76.79 953.56,-55.83 972.59,-40.13"/>
<polygon fill="black" stroke="black" points="974.82,-42.83 980.3,-33.76 970.36,-37.43 974.82,-42.83"/>
<text text-anchor="middle" x="966.7" y="-57.8" font-family="Times,serif" font-size="14.00">dep</text>
</g>
<!-- 12 -->
<g id="node13" class="node">
<title>12</title>
<ellipse fill="none" stroke="black" cx="1079.2" cy="-18" rx="27" ry="18"/>
<text text-anchor="middle" x="1079.2" y="-14.3" font-family="Times,serif" font-size="14.00">por</text>
</g>
<!-- 0&#45;&gt;12 -->
<g id="edge12" class="edge">
<title>0&#45;&gt;12</title>
<path fill="none" stroke="black" d="M918.54,-95.62C936.66,-88.92 962.31,-79.03 984.2,-69 1006.81,-58.64 1031.66,-45.49 1050.28,-35.28"/>
<polygon fill="black" stroke="black" points="1052.08,-38.29 1059.13,-30.38 1048.69,-32.16 1052.08,-38.29"/>
<text text-anchor="middle" x="1027.7" y="-57.8" font-family="Times,serif" font-size="14.00">dep</text>
</g>
<!-- 13 -->
<g id="node14" class="node">
<title>13</title>
<ellipse fill="none" stroke="black" cx="1151.2" cy="-18" rx="27" ry="18"/>
<text text-anchor="middle" x="1151.2" y="-14.3" font-family="Times,serif" font-size="14.00">a</text>
</g>
<!-- 0&#45;&gt;13 -->
<g id="edge13" class="edge">
<title>0&#45;&gt;13</title>
<path fill="none" stroke="black" d="M921.14,-99.67C951.43,-94.22 1002.77,-83.76 1045.2,-69 1077.68,-57.7 1084.09,-50.68 1115.2,-36 1116.98,-35.16 1118.81,-34.3 1120.66,-33.42"/>
<polygon fill="black" stroke="black" points="1122.33,-36.5 1129.88,-29.07 1119.34,-30.17 1122.33,-36.5"/>
<text text-anchor="middle" x="1093.7" y="-57.8" font-family="Times,serif" font-size="14.00">dep</text>
</g>
<!-- 14 -->
<g id="node15" class="node">
<title>14</title>
<ellipse fill="none" stroke="black" cx="1261.2" cy="-18" rx="64.99" ry="18"/>
<text text-anchor="middle" x="1261.2" y="-14.3" font-family="Times,serif" font-size="14.00">perspectiva</text>
</g>
<!-- 0&#45;&gt;14 -->
<g id="edge14" class="edge">
<title>0&#45;&gt;14</title>
<path fill="none" stroke="black" d="M921.74,-101.1C962.76,-96.3 1043.87,-85.56 1111.2,-69 1146.64,-60.28 1185.73,-47.13 1215.12,-36.5"/>
<polygon fill="black" stroke="black" points="1216.5,-39.73 1224.7,-33.01 1214.1,-33.15 1216.5,-39.73"/>
<text text-anchor="middle" x="1175.7" y="-57.8" font-family="Times,serif" font-size="14.00">dep</text>
</g>
<!-- 15 -->
<g id="node16" class="node">
<title>15</title>
<ellipse fill="none" stroke="black" cx="1371.2" cy="-18" rx="27" ry="18"/>
<text text-anchor="middle" x="1371.2" y="-14.3" font-family="Times,serif" font-size="14.00">de</text>
</g>
<!-- 0&#45;&gt;15 -->
<g id="edge15" class="edge">
<title>0&#45;&gt;15</title>
<path fill="none" stroke="black" d="M922.05,-101.86C974.46,-97.45 1093.9,-86.31 1193.2,-69 1257.03,-57.87 1274,-57.29 1335.2,-36 1337.11,-35.34 1339.05,-34.6 1340.99,-33.82"/>
<polygon fill="black" stroke="black" points="1342.8,-36.85 1350.57,-29.66 1340,-30.43 1342.8,-36.85"/>
<text text-anchor="middle" x="1288.7" y="-57.8" font-family="Times,serif" font-size="14.00">dep</text>
</g>
<!-- 16 -->
<g id="node17" class="node">
<title>16</title>
<ellipse fill="none" stroke="black" cx="1457.2" cy="-18" rx="40.89" ry="18"/>
<text text-anchor="middle" x="1457.2" y="-14.3" font-family="Times,serif" font-size="14.00">vitória</text>
</g>
<!-- 0&#45;&gt;16 -->
<g id="edge16" class="edge">
<title>0&#45;&gt;16</title>
<path fill="none" stroke="black" d="M922.43,-103.84C988.77,-102.99 1163.73,-97.93 1306.2,-69 1345.34,-61.05 1388.46,-46.12 1418.56,-34.64"/>
<polygon fill="black" stroke="black" points="1420.18,-37.76 1428.25,-30.89 1417.66,-31.23 1420.18,-37.76"/>
<text text-anchor="middle" x="1374.7" y="-57.8" font-family="Times,serif" font-size="14.00">dep</text>
</g>
<!-- 17 -->
<g id="node18" class="node">
<title>17</title>
<ellipse fill="none" stroke="black" cx="1543.2" cy="-18" rx="27" ry="18"/>
<text text-anchor="middle" x="1543.2" y="-14.3" font-family="Times,serif" font-size="14.00">de</text>
</g>
<!-- 0&#45;&gt;17 -->
<g id="edge17" class="edge">
<title>0&#45;&gt;17</title>
<path fill="none" stroke="black" d="M922.38,-104.07C997.66,-103.84 1215.02,-100.3 1392.2,-69 1444.56,-59.75 1457.44,-54.75 1507.2,-36 1509.04,-35.31 1510.92,-34.55 1512.8,-33.77"/>
<polygon fill="black" stroke="black" points="1514.39,-36.89 1522.12,-29.65 1511.56,-30.49 1514.39,-36.89"/>
<text text-anchor="middle" x="1470.7" y="-57.8" font-family="Times,serif" font-size="14.00">dep</text>
</g>
<!-- 18 -->
<g id="node19" class="node">
<title>18</title>
<ellipse fill="none" stroke="black" cx="1619.2" cy="-18" rx="30.59" ry="18"/>
<text text-anchor="middle" x="1619.2" y="-14.3" font-family="Times,serif" font-size="14.00">Lula</text>
</g>
<!-- 0&#45;&gt;18 -->
<g id="edge18" class="edge">
<title>0&#45;&gt;18</title>
<path fill="none" stroke="black" d="M922.19,-103.44C1023.06,-101.19 1377.72,-91.79 1488.2,-69 1523.29,-61.76 1561.34,-46.32 1587.34,-34.5"/>
<polygon fill="black" stroke="black" points="1589.08,-37.55 1596.68,-30.17 1586.14,-31.19 1589.08,-37.55"/>
<text text-anchor="middle" x="1550.7" y="-57.8" font-family="Times,serif" font-size="14.00">dep</text>
</g>
<!-- 19 -->
<g id="node20" class="node">
<title>19</title>
<ellipse fill="none" stroke="black" cx="1695.2" cy="-18" rx="27" ry="18"/>
<text text-anchor="middle" x="1695.2" y="-14.3" font-family="Times,serif" font-size="14.00">.</text>
</g>
<!-- 0&#45;&gt;19 -->
<g id="edge19" class="edge">
<title>0&#45;&gt;19</title>
<path fill="none" stroke="black" d="M922.39,-103.66C1031.99,-102.1 1441.49,-94.67 1568.2,-69 1602.79,-61.99 1640.13,-46.21 1665.3,-34.24"/>
<polygon fill="black" stroke="black" points="1666.85,-37.37 1674.32,-29.86 1663.8,-31.08 1666.85,-37.37"/>
<text text-anchor="middle" x="1632.7" y="-57.8" font-family="Times,serif" font-size="14.00">dep</text>
</g>
</g>
</svg>
