<?xml version="1.0" encoding="UTF-8" standalone="no"?>
<!DOCTYPE svg PUBLIC "-//W3C//DTD SVG 1.1//EN"
 "http://www.w3.org/Graphics/SVG/1.1/DTD/svg11.dtd">
<!-- Generated by graphviz version 2.42.4 (0)
 -->
<!-- Pages: 1 -->
<svg width="1209pt" height="131pt"
 viewBox="0.00 0.00 1209.00 131.00" xmlns="http://www.w3.org/2000/svg" xmlns:xlink="http://www.w3.org/1999/xlink">
<g id="graph0" class="graph" transform="scale(1 1) rotate(0) translate(4 127)">
<polygon fill="white" stroke="transparent" points="-4,4 -4,-127 1205,-127 1205,4 -4,4"/>
<!-- 0 -->
<g id="node1" class="node">
<title>0</title>
<ellipse fill="none" stroke="black" cx="602" cy="-105" rx="46.29" ry="18"/>
<text text-anchor="middle" x="602" y="-101.3" font-family="Times,serif" font-size="14.00">Seleção</text>
</g>
<!-- 1 -->
<g id="node2" class="node">
<title>1</title>
<ellipse fill="none" stroke="black" cx="27" cy="-18" rx="27" ry="18"/>
<text text-anchor="middle" x="27" y="-14.3" font-family="Times,serif" font-size="14.00">é</text>
</g>
<!-- 0&#45;&gt;1 -->
<g id="edge1" class="edge">
<title>0&#45;&gt;1</title>
<path fill="none" stroke="black" d="M555.81,-104.73C473.29,-105.08 295.56,-101.54 150,-69 116.83,-61.59 81.07,-46.13 56.71,-34.35"/>
<polygon fill="black" stroke="black" points="58.16,-31.16 47.64,-29.88 55.06,-37.44 58.16,-31.16"/>
<text text-anchor="middle" x="163.5" y="-57.8" font-family="Times,serif" font-size="14.00">dep</text>
</g>
<!-- 2 -->
<g id="node3" class="node">
<title>2</title>
<ellipse fill="none" stroke="black" cx="101" cy="-18" rx="28.7" ry="18"/>
<text text-anchor="middle" x="101" y="-14.3" font-family="Times,serif" font-size="14.00">isso</text>
</g>
<!-- 0&#45;&gt;2 -->
<g id="edge2" class="edge">
<title>0&#45;&gt;2</title>
<path fill="none" stroke="black" d="M555.77,-103.61C484.36,-102.14 343.3,-95.73 227,-69 193.39,-61.27 156.97,-46.01 131.97,-34.37"/>
<polygon fill="black" stroke="black" points="133.19,-31.07 122.65,-29.95 130.19,-37.4 133.19,-31.07"/>
<text text-anchor="middle" x="240.5" y="-57.8" font-family="Times,serif" font-size="14.00">dep</text>
</g>
<!-- 3 -->
<g id="node4" class="node">
<title>3</title>
<ellipse fill="none" stroke="black" cx="175" cy="-18" rx="27" ry="18"/>
<text text-anchor="middle" x="175" y="-14.3" font-family="Times,serif" font-size="14.00">,</text>
</g>
<!-- 0&#45;&gt;3 -->
<g id="edge3" class="edge">
<title>0&#45;&gt;3</title>
<path fill="none" stroke="black" d="M556.59,-101.48C498.57,-97.6 395.33,-88.47 309,-69 264.17,-58.89 253.63,-53.17 211,-36 209.17,-35.26 207.31,-34.48 205.43,-33.67"/>
<polygon fill="black" stroke="black" points="206.69,-30.4 196.14,-29.48 203.82,-36.78 206.69,-30.4"/>
<text text-anchor="middle" x="322.5" y="-57.8" font-family="Times,serif" font-size="14.00">dep</text>
</g>
<!-- 4 -->
<g id="node5" class="node">
<title>4</title>
<ellipse fill="none" stroke="black" cx="251" cy="-18" rx="30.59" ry="18"/>
<text text-anchor="middle" x="251" y="-14.3" font-family="Times,serif" font-size="14.00">joga</text>
</g>
<!-- 0&#45;&gt;4 -->
<g id="edge4" class="edge">
<title>0&#45;&gt;4</title>
<path fill="none" stroke="black" d="M558.34,-98.93C514.99,-93.4 446.82,-83.39 389,-69 344.4,-57.9 333.96,-52.33 291,-36 288.8,-35.16 286.54,-34.28 284.27,-33.37"/>
<polygon fill="black" stroke="black" points="285.57,-30.12 274.99,-29.55 282.91,-36.59 285.57,-30.12"/>
<text text-anchor="middle" x="402.5" y="-57.8" font-family="Times,serif" font-size="14.00">dep</text>
</g>
<!-- 5 -->
<g id="node6" class="node">
<title>5</title>
<ellipse fill="none" stroke="black" cx="336" cy="-18" rx="36.29" ry="18"/>
<text text-anchor="middle" x="336" y="-14.3" font-family="Times,serif" font-size="14.00">quem</text>
</g>
<!-- 0&#45;&gt;5 -->
<g id="edge5" class="edge">
<title>0&#45;&gt;5</title>
<path fill="none" stroke="black" d="M562.39,-95.7C533.9,-89.36 494.73,-79.87 461,-69 430.36,-59.12 396.51,-45.4 371.78,-34.83"/>
<polygon fill="black" stroke="black" points="373,-31.55 362.43,-30.81 370.23,-37.98 373,-31.55"/>
<text text-anchor="middle" x="474.5" y="-57.8" font-family="Times,serif" font-size="14.00">dep</text>
</g>
<!-- 6 -->
<g id="node7" class="node">
<title>6</title>
<ellipse fill="none" stroke="black" cx="421" cy="-18" rx="30.59" ry="18"/>
<text text-anchor="middle" x="421" y="-14.3" font-family="Times,serif" font-size="14.00">está</text>
</g>
<!-- 0&#45;&gt;6 -->
<g id="edge6" class="edge">
<title>0&#45;&gt;6</title>
<path fill="none" stroke="black" d="M571.84,-91.2C556.79,-84.72 538.35,-76.62 522,-69 498.53,-58.06 472.33,-45.07 452.5,-35.07"/>
<polygon fill="black" stroke="black" points="453.82,-31.82 443.32,-30.43 450.66,-38.06 453.82,-31.82"/>
<text text-anchor="middle" x="535.5" y="-57.8" font-family="Times,serif" font-size="14.00">dep</text>
</g>
<!-- 7 -->
<g id="node8" class="node">
<title>7</title>
<ellipse fill="none" stroke="black" cx="513" cy="-18" rx="43.59" ry="18"/>
<text text-anchor="middle" x="513" y="-14.3" font-family="Times,serif" font-size="14.00">melhor</text>
</g>
<!-- 0&#45;&gt;7 -->
<g id="edge7" class="edge">
<title>0&#45;&gt;7</title>
<path fill="none" stroke="black" d="M585.26,-88.01C571.71,-75.07 552.44,-56.67 537.21,-42.12"/>
<polygon fill="black" stroke="black" points="539.31,-39.29 529.67,-34.92 534.48,-44.35 539.31,-39.29"/>
<text text-anchor="middle" x="576.5" y="-57.8" font-family="Times,serif" font-size="14.00">dep</text>
</g>
<!-- 8 -->
<g id="node9" class="node">
<title>8</title>
<ellipse fill="none" stroke="black" cx="602" cy="-18" rx="27" ry="18"/>
<text text-anchor="middle" x="602" y="-14.3" font-family="Times,serif" font-size="14.00">,</text>
</g>
<!-- 0&#45;&gt;8 -->
<g id="edge8" class="edge">
<title>0&#45;&gt;8</title>
<path fill="none" stroke="black" d="M602,-86.8C602,-75.16 602,-59.55 602,-46.24"/>
<polygon fill="black" stroke="black" points="605.5,-46.18 602,-36.18 598.5,-46.18 605.5,-46.18"/>
<text text-anchor="middle" x="615.5" y="-57.8" font-family="Times,serif" font-size="14.00">dep</text>
</g>
<!-- 9 -->
<g id="node10" class="node">
<title>9</title>
<ellipse fill="none" stroke="black" cx="674" cy="-18" rx="27.1" ry="18"/>
<text text-anchor="middle" x="674" y="-14.3" font-family="Times,serif" font-size="14.00">não</text>
</g>
<!-- 0&#45;&gt;9 -->
<g id="edge9" class="edge">
<title>0&#45;&gt;9</title>
<path fill="none" stroke="black" d="M616.64,-87.73C621.85,-81.87 627.73,-75.18 633,-69 640.32,-60.41 648.21,-50.86 655.1,-42.43"/>
<polygon fill="black" stroke="black" points="658,-44.41 661.59,-34.44 652.56,-39.99 658,-44.41"/>
<text text-anchor="middle" x="659.5" y="-57.8" font-family="Times,serif" font-size="14.00">dep</text>
</g>
<!-- 10 -->
<g id="node11" class="node">
<title>10</title>
<ellipse fill="none" stroke="black" cx="748" cy="-18" rx="28.7" ry="18"/>
<text text-anchor="middle" x="748" y="-14.3" font-family="Times,serif" font-size="14.00">tem</text>
</g>
<!-- 0&#45;&gt;10 -->
<g id="edge10" class="edge">
<title>0&#45;&gt;10</title>
<path fill="none" stroke="black" d="M632.18,-91.38C646.12,-85.19 662.7,-77.28 677,-69 692.73,-59.89 709.4,-48.26 722.62,-38.52"/>
<polygon fill="black" stroke="black" points="724.86,-41.22 730.78,-32.43 720.67,-35.61 724.86,-41.22"/>
<text text-anchor="middle" x="713.5" y="-57.8" font-family="Times,serif" font-size="14.00">dep</text>
</g>
<!-- 11 -->
<g id="node12" class="node">
<title>11</title>
<ellipse fill="none" stroke="black" cx="826" cy="-18" rx="31.4" ry="18"/>
<text text-anchor="middle" x="826" y="-14.3" font-family="Times,serif" font-size="14.00">esse</text>
</g>
<!-- 0&#45;&gt;11 -->
<g id="edge11" class="edge">
<title>0&#45;&gt;11</title>
<path fill="none" stroke="black" d="M641.68,-95.62C667.57,-89.57 701.85,-80.47 731,-69 753.7,-60.07 778.02,-47.2 796.37,-36.76"/>
<polygon fill="black" stroke="black" points="798.22,-39.73 805.13,-31.7 794.72,-33.67 798.22,-39.73"/>
<text text-anchor="middle" x="777.5" y="-57.8" font-family="Times,serif" font-size="14.00">dep</text>
</g>
<!-- 12 -->
<g id="node13" class="node">
<title>12</title>
<ellipse fill="none" stroke="black" cx="921" cy="-18" rx="46.29" ry="18"/>
<text text-anchor="middle" x="921" y="-14.3" font-family="Times,serif" font-size="14.00">negócio</text>
</g>
<!-- 0&#45;&gt;12 -->
<g id="edge12" class="edge">
<title>0&#45;&gt;12</title>
<path fill="none" stroke="black" d="M645.49,-98.63C684.98,-93.16 744.58,-83.42 795,-69 825.36,-60.32 858.51,-47 883.19,-36.29"/>
<polygon fill="black" stroke="black" points="884.79,-39.41 892.54,-32.18 881.98,-33 884.79,-39.41"/>
<text text-anchor="middle" x="851.5" y="-57.8" font-family="Times,serif" font-size="14.00">dep</text>
</g>
<!-- 13 -->
<g id="node14" class="node">
<title>13</title>
<ellipse fill="none" stroke="black" cx="1012" cy="-18" rx="27" ry="18"/>
<text text-anchor="middle" x="1012" y="-14.3" font-family="Times,serif" font-size="14.00">de</text>
</g>
<!-- 0&#45;&gt;13 -->
<g id="edge13" class="edge">
<title>0&#45;&gt;13</title>
<path fill="none" stroke="black" d="M646.8,-100.45C700.17,-95.7 791.81,-85.84 869,-69 917.62,-58.39 929.6,-54 976,-36 977.84,-35.29 979.71,-34.52 981.59,-33.73"/>
<polygon fill="black" stroke="black" points="983.19,-36.85 990.9,-29.58 980.34,-30.45 983.19,-36.85"/>
<text text-anchor="middle" x="940.5" y="-57.8" font-family="Times,serif" font-size="14.00">dep</text>
</g>
<!-- 14 -->
<g id="node15" class="node">
<title>14</title>
<ellipse fill="none" stroke="black" cx="1093" cy="-18" rx="36.29" ry="18"/>
<text text-anchor="middle" x="1093" y="-14.3" font-family="Times,serif" font-size="14.00">nome</text>
</g>
<!-- 0&#45;&gt;14 -->
<g id="edge14" class="edge">
<title>0&#45;&gt;14</title>
<path fill="none" stroke="black" d="M648.11,-103.18C716.56,-101.13 848.72,-93.98 958,-69 992.94,-61.01 1031.09,-46.29 1057.9,-34.88"/>
<polygon fill="black" stroke="black" points="1059.44,-38.02 1067.23,-30.84 1056.66,-31.6 1059.44,-38.02"/>
<text text-anchor="middle" x="1021.5" y="-57.8" font-family="Times,serif" font-size="14.00">dep</text>
</g>
<!-- 15 -->
<g id="node16" class="node">
<title>15</title>
<ellipse fill="none" stroke="black" cx="1174" cy="-18" rx="27" ry="18"/>
<text text-anchor="middle" x="1174" y="-14.3" font-family="Times,serif" font-size="14.00">.</text>
</g>
<!-- 0&#45;&gt;15 -->
<g id="edge15" class="edge">
<title>0&#45;&gt;15</title>
<path fill="none" stroke="black" d="M648.12,-103.95C728.38,-103.05 898.6,-97.58 1039,-69 1084.45,-59.75 1094.95,-53.27 1138,-36 1139.83,-35.27 1141.7,-34.49 1143.57,-33.68"/>
<polygon fill="black" stroke="black" points="1145.18,-36.79 1152.87,-29.49 1142.31,-30.41 1145.18,-36.79"/>
<text text-anchor="middle" x="1106.5" y="-57.8" font-family="Times,serif" font-size="14.00">dep</text>
</g>
</g>
</svg>
