<?xml version="1.0" encoding="UTF-8" standalone="no"?>
<!DOCTYPE svg PUBLIC "-//W3C//DTD SVG 1.1//EN"
 "http://www.w3.org/Graphics/SVG/1.1/DTD/svg11.dtd">
<!-- Generated by graphviz version 2.42.4 (0)
 -->
<!-- Pages: 1 -->
<svg width="1834pt" height="131pt"
 viewBox="0.00 0.00 1834.00 131.00" xmlns="http://www.w3.org/2000/svg" xmlns:xlink="http://www.w3.org/1999/xlink">
<g id="graph0" class="graph" transform="scale(1 1) rotate(0) translate(4 127)">
<polygon fill="white" stroke="transparent" points="-4,4 -4,-127 1830,-127 1830,4 -4,4"/>
<!-- 0 -->
<g id="node1" class="node">
<title>0</title>
<ellipse fill="none" stroke="black" cx="880" cy="-105" rx="27" ry="18"/>
<text text-anchor="middle" x="880" y="-101.3" font-family="Times,serif" font-size="14.00">Em</text>
</g>
<!-- 1 -->
<g id="node2" class="node">
<title>1</title>
<ellipse fill="none" stroke="black" cx="27" cy="-18" rx="27" ry="18"/>
<text text-anchor="middle" x="27" y="-14.3" font-family="Times,serif" font-size="14.00">o</text>
</g>
<!-- 0&#45;&gt;1 -->
<g id="edge1" class="edge">
<title>0&#45;&gt;1</title>
<path fill="none" stroke="black" d="M852.99,-103.44C741.26,-101.01 314.8,-90.47 182,-69 127.82,-60.24 114.45,-55.12 63,-36 61.15,-35.31 59.27,-34.57 57.39,-33.79"/>
<polygon fill="black" stroke="black" points="58.62,-30.51 48.06,-29.68 55.8,-36.92 58.62,-30.51"/>
<text text-anchor="middle" x="195.5" y="-57.8" font-family="Times,serif" font-size="14.00">dep</text>
</g>
<!-- 2 -->
<g id="node3" class="node">
<title>2</title>
<ellipse fill="none" stroke="black" cx="118" cy="-18" rx="46.29" ry="18"/>
<text text-anchor="middle" x="118" y="-14.3" font-family="Times,serif" font-size="14.00">entanto</text>
</g>
<!-- 0&#45;&gt;2 -->
<g id="edge2" class="edge">
<title>0&#45;&gt;2</title>
<path fill="none" stroke="black" d="M852.82,-103.41C749.58,-101.02 381.75,-91.12 267,-69 228.97,-61.67 187.3,-47.1 157.72,-35.56"/>
<polygon fill="black" stroke="black" points="158.76,-32.21 148.18,-31.78 156.19,-38.72 158.76,-32.21"/>
<text text-anchor="middle" x="280.5" y="-57.8" font-family="Times,serif" font-size="14.00">dep</text>
</g>
<!-- 3 -->
<g id="node4" class="node">
<title>3</title>
<ellipse fill="none" stroke="black" cx="209" cy="-18" rx="27" ry="18"/>
<text text-anchor="middle" x="209" y="-14.3" font-family="Times,serif" font-size="14.00">,</text>
</g>
<!-- 0&#45;&gt;3 -->
<g id="edge3" class="edge">
<title>0&#45;&gt;3</title>
<path fill="none" stroke="black" d="M852.91,-104.09C775.85,-103.93 548.98,-100.59 364,-69 309.9,-59.76 296.45,-55.12 245,-36 243.15,-35.31 241.27,-34.57 239.39,-33.79"/>
<polygon fill="black" stroke="black" points="240.62,-30.51 230.06,-29.68 237.8,-36.92 240.62,-30.51"/>
<text text-anchor="middle" x="377.5" y="-57.8" font-family="Times,serif" font-size="14.00">dep</text>
</g>
<!-- 4 -->
<g id="node5" class="node">
<title>4</title>
<ellipse fill="none" stroke="black" cx="298" cy="-18" rx="43.59" ry="18"/>
<text text-anchor="middle" x="298" y="-14.3" font-family="Times,serif" font-size="14.00">acabou</text>
</g>
<!-- 0&#45;&gt;4 -->
<g id="edge4" class="edge">
<title>0&#45;&gt;4</title>
<path fill="none" stroke="black" d="M853.02,-104.01C784.8,-103.55 600.13,-99.36 450,-69 410.81,-61.08 367.64,-46.26 337.36,-34.8"/>
<polygon fill="black" stroke="black" points="338.59,-31.53 328,-31.21 336.08,-38.06 338.59,-31.53"/>
<text text-anchor="middle" x="463.5" y="-57.8" font-family="Times,serif" font-size="14.00">dep</text>
</g>
<!-- 5 -->
<g id="node6" class="node">
<title>5</title>
<ellipse fill="none" stroke="black" cx="387" cy="-18" rx="27" ry="18"/>
<text text-anchor="middle" x="387" y="-14.3" font-family="Times,serif" font-size="14.00">por</text>
</g>
<!-- 0&#45;&gt;5 -->
<g id="edge5" class="edge">
<title>0&#45;&gt;5</title>
<path fill="none" stroke="black" d="M853.03,-102.44C796.73,-98.9 662.75,-88.97 552,-69 493.76,-58.5 478.68,-56.06 423,-36 421.15,-35.33 419.26,-34.6 417.37,-33.83"/>
<polygon fill="black" stroke="black" points="418.6,-30.55 408.04,-29.75 415.8,-36.97 418.6,-30.55"/>
<text text-anchor="middle" x="565.5" y="-57.8" font-family="Times,serif" font-size="14.00">dep</text>
</g>
<!-- 6 -->
<g id="node7" class="node">
<title>6</title>
<ellipse fill="none" stroke="black" cx="479" cy="-18" rx="47.39" ry="18"/>
<text text-anchor="middle" x="479" y="-14.3" font-family="Times,serif" font-size="14.00">perdoar</text>
</g>
<!-- 0&#45;&gt;6 -->
<g id="edge6" class="edge">
<title>0&#45;&gt;6</title>
<path fill="none" stroke="black" d="M853.26,-101.67C807.94,-97.38 713.3,-87.01 635,-69 595.73,-59.97 552.15,-45.62 521.06,-34.61"/>
<polygon fill="black" stroke="black" points="522.02,-31.23 511.42,-31.16 519.66,-37.82 522.02,-31.23"/>
<text text-anchor="middle" x="648.5" y="-57.8" font-family="Times,serif" font-size="14.00">dep</text>
</g>
<!-- 7 -->
<g id="node8" class="node">
<title>7</title>
<ellipse fill="none" stroke="black" cx="571" cy="-18" rx="27" ry="18"/>
<text text-anchor="middle" x="571" y="-14.3" font-family="Times,serif" font-size="14.00">um</text>
</g>
<!-- 0&#45;&gt;7 -->
<g id="edge7" class="edge">
<title>0&#45;&gt;7</title>
<path fill="none" stroke="black" d="M854.18,-99.64C805.01,-90.9 694.99,-69.15 607,-36 605.16,-35.31 603.28,-34.55 601.39,-33.77"/>
<polygon fill="black" stroke="black" points="602.64,-30.49 592.07,-29.65 599.8,-36.89 602.64,-30.49"/>
<text text-anchor="middle" x="724.5" y="-57.8" font-family="Times,serif" font-size="14.00">dep</text>
</g>
<!-- 8 -->
<g id="node9" class="node">
<title>8</title>
<ellipse fill="none" stroke="black" cx="666" cy="-18" rx="50.09" ry="18"/>
<text text-anchor="middle" x="666" y="-14.3" font-family="Times,serif" font-size="14.00">segundo</text>
</g>
<!-- 0&#45;&gt;8 -->
<g id="edge8" class="edge">
<title>0&#45;&gt;8</title>
<path fill="none" stroke="black" d="M857.03,-95.16C838.83,-88.13 812.76,-78.01 790,-69 762.4,-58.07 731.43,-45.58 707.35,-35.82"/>
<polygon fill="black" stroke="black" points="708.4,-32.47 697.81,-31.95 705.76,-38.96 708.4,-32.47"/>
<text text-anchor="middle" x="803.5" y="-57.8" font-family="Times,serif" font-size="14.00">dep</text>
</g>
<!-- 9 -->
<g id="node10" class="node">
<title>9</title>
<ellipse fill="none" stroke="black" cx="774" cy="-18" rx="40.09" ry="18"/>
<text text-anchor="middle" x="774" y="-14.3" font-family="Times,serif" font-size="14.00">cartão</text>
</g>
<!-- 0&#45;&gt;9 -->
<g id="edge9" class="edge">
<title>0&#45;&gt;9</title>
<path fill="none" stroke="black" d="M863.44,-90.72C846.73,-77.32 820.65,-56.41 800.95,-40.61"/>
<polygon fill="black" stroke="black" points="802.94,-37.72 792.95,-34.2 798.56,-43.18 802.94,-37.72"/>
<text text-anchor="middle" x="847.5" y="-57.8" font-family="Times,serif" font-size="14.00">dep</text>
</g>
<!-- 10 -->
<g id="node11" class="node">
<title>10</title>
<ellipse fill="none" stroke="black" cx="880" cy="-18" rx="48.19" ry="18"/>
<text text-anchor="middle" x="880" y="-14.3" font-family="Times,serif" font-size="14.00">amarelo</text>
</g>
<!-- 0&#45;&gt;10 -->
<g id="edge10" class="edge">
<title>0&#45;&gt;10</title>
<path fill="none" stroke="black" d="M880,-86.8C880,-75.16 880,-59.55 880,-46.24"/>
<polygon fill="black" stroke="black" points="883.5,-46.18 880,-36.18 876.5,-46.18 883.5,-46.18"/>
<text text-anchor="middle" x="893.5" y="-57.8" font-family="Times,serif" font-size="14.00">dep</text>
</g>
<!-- 11 -->
<g id="node12" class="node">
<title>11</title>
<ellipse fill="none" stroke="black" cx="973" cy="-18" rx="27" ry="18"/>
<text text-anchor="middle" x="973" y="-14.3" font-family="Times,serif" font-size="14.00">a</text>
</g>
<!-- 0&#45;&gt;11 -->
<g id="edge11" class="edge">
<title>0&#45;&gt;11</title>
<path fill="none" stroke="black" d="M895.36,-89.96C910.17,-76.43 932.77,-55.77 949.78,-40.22"/>
<polygon fill="black" stroke="black" points="952.6,-42.39 957.62,-33.06 947.88,-37.22 952.6,-42.39"/>
<text text-anchor="middle" x="946.5" y="-57.8" font-family="Times,serif" font-size="14.00">dep</text>
</g>
<!-- 12 -->
<g id="node13" class="node">
<title>12</title>
<ellipse fill="none" stroke="black" cx="1045" cy="-18" rx="27" ry="18"/>
<text text-anchor="middle" x="1045" y="-14.3" font-family="Times,serif" font-size="14.00">Rui</text>
</g>
<!-- 0&#45;&gt;12 -->
<g id="edge12" class="edge">
<title>0&#45;&gt;12</title>
<path fill="none" stroke="black" d="M903.26,-95.45C920.38,-88.89 944.04,-79.24 964,-69 982.68,-59.42 1002.78,-47.03 1018.27,-36.98"/>
<polygon fill="black" stroke="black" points="1020.38,-39.79 1026.82,-31.38 1016.54,-33.93 1020.38,-39.79"/>
<text text-anchor="middle" x="1003.5" y="-57.8" font-family="Times,serif" font-size="14.00">dep</text>
</g>
<!-- 13 -->
<g id="node14" class="node">
<title>13</title>
<ellipse fill="none" stroke="black" cx="1130" cy="-18" rx="39.79" ry="18"/>
<text text-anchor="middle" x="1130" y="-14.3" font-family="Times,serif" font-size="14.00">Neves</text>
</g>
<!-- 0&#45;&gt;13 -->
<g id="edge13" class="edge">
<title>0&#45;&gt;13</title>
<path fill="none" stroke="black" d="M905.63,-99.14C934.21,-93.38 981.6,-82.79 1021,-69 1046.73,-59.99 1074.66,-47.12 1095.8,-36.69"/>
<polygon fill="black" stroke="black" points="1097.62,-39.69 1105.01,-32.09 1094.5,-33.43 1097.62,-39.69"/>
<text text-anchor="middle" x="1071.5" y="-57.8" font-family="Times,serif" font-size="14.00">dep</text>
</g>
<!-- 14 -->
<g id="node15" class="node">
<title>14</title>
<ellipse fill="none" stroke="black" cx="1215" cy="-18" rx="27" ry="18"/>
<text text-anchor="middle" x="1215" y="-14.3" font-family="Times,serif" font-size="14.00">,</text>
</g>
<!-- 0&#45;&gt;14 -->
<g id="edge14" class="edge">
<title>0&#45;&gt;14</title>
<path fill="none" stroke="black" d="M906.4,-101.17C946.37,-96.53 1024.45,-86.08 1089,-69 1130.19,-58.1 1139.7,-52.45 1179,-36 1180.82,-35.24 1182.68,-34.44 1184.54,-33.61"/>
<polygon fill="black" stroke="black" points="1186.17,-36.72 1193.82,-29.39 1183.27,-30.35 1186.17,-36.72"/>
<text text-anchor="middle" x="1148.5" y="-57.8" font-family="Times,serif" font-size="14.00">dep</text>
</g>
<!-- 15 -->
<g id="node16" class="node">
<title>15</title>
<ellipse fill="none" stroke="black" cx="1347" cy="-18" rx="87.18" ry="18"/>
<text text-anchor="middle" x="1347" y="-14.3" font-family="Times,serif" font-size="14.00">condescendendo</text>
</g>
<!-- 0&#45;&gt;15 -->
<g id="edge15" class="edge">
<title>0&#45;&gt;15</title>
<path fill="none" stroke="black" d="M907.02,-102.03C958.02,-98.02 1071.79,-87.67 1166,-69 1208.82,-60.51 1256.37,-47.22 1291.98,-36.48"/>
<polygon fill="black" stroke="black" points="1293.15,-39.78 1301.7,-33.52 1291.11,-33.09 1293.15,-39.78"/>
<text text-anchor="middle" x="1240.5" y="-57.8" font-family="Times,serif" font-size="14.00">dep</text>
</g>
<!-- 16 -->
<g id="node17" class="node">
<title>16</title>
<ellipse fill="none" stroke="black" cx="1515" cy="-18" rx="63.09" ry="18"/>
<text text-anchor="middle" x="1515" y="-14.3" font-family="Times,serif" font-size="14.00">igualmente</text>
</g>
<!-- 0&#45;&gt;16 -->
<g id="edge16" class="edge">
<title>0&#45;&gt;16</title>
<path fill="none" stroke="black" d="M907.13,-102.28C969.35,-98.15 1127.05,-86.71 1258,-69 1340.77,-57.81 1361.22,-52.94 1443,-36 1448.06,-34.95 1453.3,-33.81 1458.55,-32.64"/>
<polygon fill="black" stroke="black" points="1459.63,-35.98 1468.61,-30.35 1458.08,-29.16 1459.63,-35.98"/>
<text text-anchor="middle" x="1367.5" y="-57.8" font-family="Times,serif" font-size="14.00">dep</text>
</g>
<!-- 17 -->
<g id="node18" class="node">
<title>17</title>
<ellipse fill="none" stroke="black" cx="1626" cy="-18" rx="29.8" ry="18"/>
<text text-anchor="middle" x="1626" y="-14.3" font-family="Times,serif" font-size="14.00">com</text>
</g>
<!-- 0&#45;&gt;17 -->
<g id="edge17" class="edge">
<title>0&#45;&gt;17</title>
<path fill="none" stroke="black" d="M906.91,-103.01C982.47,-100.06 1202.98,-90.13 1385,-69 1475.36,-58.51 1499.74,-61.71 1587,-36 1589.27,-35.33 1591.59,-34.56 1593.9,-33.73"/>
<polygon fill="black" stroke="black" points="1595.24,-36.96 1603.26,-30.04 1592.67,-30.45 1595.24,-36.96"/>
<text text-anchor="middle" x="1525.5" y="-57.8" font-family="Times,serif" font-size="14.00">dep</text>
</g>
<!-- 18 -->
<g id="node19" class="node">
<title>18</title>
<ellipse fill="none" stroke="black" cx="1714" cy="-18" rx="40.09" ry="18"/>
<text text-anchor="middle" x="1714" y="-14.3" font-family="Times,serif" font-size="14.00">Dimas</text>
</g>
<!-- 0&#45;&gt;18 -->
<g id="edge18" class="edge">
<title>0&#45;&gt;18</title>
<path fill="none" stroke="black" d="M907.1,-103.33C1015.42,-100.55 1417.37,-89.07 1543,-69 1589.15,-61.63 1640.38,-45.54 1674.63,-33.59"/>
<polygon fill="black" stroke="black" points="1675.99,-36.82 1684.26,-30.19 1673.66,-30.23 1675.99,-36.82"/>
<text text-anchor="middle" x="1619.5" y="-57.8" font-family="Times,serif" font-size="14.00">dep</text>
</g>
<!-- 19 -->
<g id="node20" class="node">
<title>19</title>
<ellipse fill="none" stroke="black" cx="1799" cy="-18" rx="27" ry="18"/>
<text text-anchor="middle" x="1799" y="-14.3" font-family="Times,serif" font-size="14.00">.</text>
</g>
<!-- 0&#45;&gt;19 -->
<g id="edge19" class="edge">
<title>0&#45;&gt;19</title>
<path fill="none" stroke="black" d="M907.26,-103.51C1025.2,-101.25 1491.98,-91.09 1637,-69 1694.23,-60.28 1708.59,-55.78 1763,-36 1764.85,-35.33 1766.74,-34.59 1768.63,-33.82"/>
<polygon fill="black" stroke="black" points="1770.2,-36.95 1777.96,-29.73 1767.39,-30.54 1770.2,-36.95"/>
<text text-anchor="middle" x="1723.5" y="-57.8" font-family="Times,serif" font-size="14.00">dep</text>
</g>
</g>
</svg>
