<?xml version="1.0" encoding="UTF-8" standalone="no"?>
<!DOCTYPE svg PUBLIC "-//W3C//DTD SVG 1.1//EN"
 "http://www.w3.org/Graphics/SVG/1.1/DTD/svg11.dtd">
<!-- Generated by graphviz version 2.42.4 (0)
 -->
<!-- Pages: 1 -->
<svg width="2129pt" height="131pt"
 viewBox="0.00 0.00 2129.00 131.00" xmlns="http://www.w3.org/2000/svg" xmlns:xlink="http://www.w3.org/1999/xlink">
<g id="graph0" class="graph" transform="scale(1 1) rotate(0) translate(4 127)">
<polygon fill="white" stroke="transparent" points="-4,4 -4,-127 2125,-127 2125,4 -4,4"/>
<!-- 0 -->
<g id="node1" class="node">
<title>0</title>
<ellipse fill="none" stroke="black" cx="1109" cy="-105" rx="30.59" ry="18"/>
<text text-anchor="middle" x="1109" y="-101.3" font-family="Times,serif" font-size="14.00">Mas</text>
</g>
<!-- 1 -->
<g id="node2" class="node">
<title>1</title>
<ellipse fill="none" stroke="black" cx="27" cy="-18" rx="27" ry="18"/>
<text text-anchor="middle" x="27" y="-14.3" font-family="Times,serif" font-size="14.00">o</text>
</g>
<!-- 0&#45;&gt;1 -->
<g id="edge1" class="edge">
<title>0&#45;&gt;1</title>
<path fill="none" stroke="black" d="M1078.26,-103.86C937.72,-103.09 355.6,-98.13 176,-69 124.36,-60.62 111.92,-54.56 63,-36 61.16,-35.3 59.28,-34.55 57.4,-33.76"/>
<polygon fill="black" stroke="black" points="58.64,-30.48 48.08,-29.63 55.81,-36.88 58.64,-30.48"/>
<text text-anchor="middle" x="189.5" y="-57.8" font-family="Times,serif" font-size="14.00">dep</text>
</g>
<!-- 2 -->
<g id="node3" class="node">
<title>2</title>
<ellipse fill="none" stroke="black" cx="108" cy="-18" rx="36" ry="18"/>
<text text-anchor="middle" x="108" y="-14.3" font-family="Times,serif" font-size="14.00">leitor</text>
</g>
<!-- 0&#45;&gt;2 -->
<g id="edge2" class="edge">
<title>0&#45;&gt;2</title>
<path fill="none" stroke="black" d="M1078.52,-103.62C947.87,-101.85 434.54,-93.44 275,-69 219.05,-60.43 205.81,-53.56 152,-36 149.62,-35.22 147.17,-34.39 144.72,-33.52"/>
<polygon fill="black" stroke="black" points="145.89,-30.22 135.3,-30.07 143.48,-36.79 145.89,-30.22"/>
<text text-anchor="middle" x="288.5" y="-57.8" font-family="Times,serif" font-size="14.00">dep</text>
</g>
<!-- 3 -->
<g id="node4" class="node">
<title>3</title>
<ellipse fill="none" stroke="black" cx="210" cy="-18" rx="48.99" ry="18"/>
<text text-anchor="middle" x="210" y="-14.3" font-family="Times,serif" font-size="14.00">também</text>
</g>
<!-- 0&#45;&gt;3 -->
<g id="edge3" class="edge">
<title>0&#45;&gt;3</title>
<path fill="none" stroke="black" d="M1078.38,-103.68C956.04,-102.23 502.09,-95.15 361,-69 322.58,-61.88 280.5,-47.35 250.54,-35.79"/>
<polygon fill="black" stroke="black" points="251.46,-32.38 240.87,-31.99 248.9,-38.9 251.46,-32.38"/>
<text text-anchor="middle" x="374.5" y="-57.8" font-family="Times,serif" font-size="14.00">dep</text>
</g>
<!-- 4 -->
<g id="node5" class="node">
<title>4</title>
<ellipse fill="none" stroke="black" cx="309" cy="-18" rx="32.49" ry="18"/>
<text text-anchor="middle" x="309" y="-14.3" font-family="Times,serif" font-size="14.00">sabe</text>
</g>
<!-- 0&#45;&gt;4 -->
<g id="edge4" class="edge">
<title>0&#45;&gt;4</title>
<path fill="none" stroke="black" d="M1078.15,-103.61C963.83,-101.96 564.48,-94.47 440,-69 405.32,-61.9 367.77,-46.73 341.8,-34.95"/>
<polygon fill="black" stroke="black" points="342.99,-31.65 332.44,-30.63 340.05,-38 342.99,-31.65"/>
<text text-anchor="middle" x="453.5" y="-57.8" font-family="Times,serif" font-size="14.00">dep</text>
</g>
<!-- 5 -->
<g id="node6" class="node">
<title>5</title>
<ellipse fill="none" stroke="black" cx="386" cy="-18" rx="27" ry="18"/>
<text text-anchor="middle" x="386" y="-14.3" font-family="Times,serif" font-size="14.00">se</text>
</g>
<!-- 0&#45;&gt;5 -->
<g id="edge5" class="edge">
<title>0&#45;&gt;5</title>
<path fill="none" stroke="black" d="M1078.54,-103.09C975.1,-99.87 637.75,-88.12 531,-69 481.18,-60.08 469.23,-54.19 422,-36 420.16,-35.29 418.29,-34.53 416.41,-33.74"/>
<polygon fill="black" stroke="black" points="417.65,-30.46 407.09,-29.59 414.81,-36.86 417.65,-30.46"/>
<text text-anchor="middle" x="544.5" y="-57.8" font-family="Times,serif" font-size="14.00">dep</text>
</g>
<!-- 6 -->
<g id="node7" class="node">
<title>6</title>
<ellipse fill="none" stroke="black" cx="471" cy="-18" rx="40.09" ry="18"/>
<text text-anchor="middle" x="471" y="-14.3" font-family="Times,serif" font-size="14.00">vingar</text>
</g>
<!-- 0&#45;&gt;6 -->
<g id="edge6" class="edge">
<title>0&#45;&gt;6</title>
<path fill="none" stroke="black" d="M1078.42,-104.67C1000.1,-105.76 786.28,-104.94 613,-69 576.37,-61.4 536.31,-46.67 508.11,-35.16"/>
<polygon fill="black" stroke="black" points="509.23,-31.84 498.66,-31.24 506.55,-38.3 509.23,-31.84"/>
<text text-anchor="middle" x="626.5" y="-57.8" font-family="Times,serif" font-size="14.00">dep</text>
</g>
<!-- 7 -->
<g id="node8" class="node">
<title>7</title>
<ellipse fill="none" stroke="black" cx="559" cy="-18" rx="29.8" ry="18"/>
<text text-anchor="middle" x="559" y="-14.3" font-family="Times,serif" font-size="14.00">com</text>
</g>
<!-- 0&#45;&gt;7 -->
<g id="edge7" class="edge">
<title>0&#45;&gt;7</title>
<path fill="none" stroke="black" d="M1078.27,-104.07C1008.68,-103.66 834.09,-99.39 692,-69 656.34,-61.37 617.51,-45.88 591.06,-34.15"/>
<polygon fill="black" stroke="black" points="592.46,-30.94 581.91,-30.02 589.58,-37.32 592.46,-30.94"/>
<text text-anchor="middle" x="705.5" y="-57.8" font-family="Times,serif" font-size="14.00">dep</text>
</g>
<!-- 8 -->
<g id="node9" class="node">
<title>8</title>
<ellipse fill="none" stroke="black" cx="634" cy="-18" rx="27" ry="18"/>
<text text-anchor="middle" x="634" y="-14.3" font-family="Times,serif" font-size="14.00">o</text>
</g>
<!-- 0&#45;&gt;8 -->
<g id="edge8" class="edge">
<title>0&#45;&gt;8</title>
<path fill="none" stroke="black" d="M1078.76,-102.33C1021.69,-98.81 894.38,-89.24 789,-69 735.1,-58.65 721.45,-55.12 670,-36 668.15,-35.31 666.27,-34.57 664.39,-33.79"/>
<polygon fill="black" stroke="black" points="665.62,-30.51 655.06,-29.68 662.8,-36.92 665.62,-30.51"/>
<text text-anchor="middle" x="802.5" y="-57.8" font-family="Times,serif" font-size="14.00">dep</text>
</g>
<!-- 9 -->
<g id="node10" class="node">
<title>9</title>
<ellipse fill="none" stroke="black" cx="726" cy="-18" rx="46.59" ry="18"/>
<text text-anchor="middle" x="726" y="-14.3" font-family="Times,serif" font-size="14.00">desdém</text>
</g>
<!-- 0&#45;&gt;9 -->
<g id="edge9" class="edge">
<title>0&#45;&gt;9</title>
<path fill="none" stroke="black" d="M1078.7,-101.6C1032.35,-97.48 941.29,-87.67 866,-69 831.38,-60.42 793.34,-46.53 765.66,-35.56"/>
<polygon fill="black" stroke="black" points="766.9,-32.29 756.32,-31.82 764.3,-38.79 766.9,-32.29"/>
<text text-anchor="middle" x="879.5" y="-57.8" font-family="Times,serif" font-size="14.00">dep</text>
</g>
<!-- 10 -->
<g id="node11" class="node">
<title>10</title>
<ellipse fill="none" stroke="black" cx="818" cy="-18" rx="27" ry="18"/>
<text text-anchor="middle" x="818" y="-14.3" font-family="Times,serif" font-size="14.00">e</text>
</g>
<!-- 0&#45;&gt;10 -->
<g id="edge10" class="edge">
<title>0&#45;&gt;10</title>
<path fill="none" stroke="black" d="M1079.64,-99.41C1045.65,-93.75 988.16,-83.13 940,-69 900.72,-57.48 891.65,-52.09 854,-36 852.19,-35.23 850.33,-34.41 848.47,-33.58"/>
<polygon fill="black" stroke="black" points="849.75,-30.32 839.2,-29.33 846.83,-36.68 849.75,-30.32"/>
<text text-anchor="middle" x="953.5" y="-57.8" font-family="Times,serif" font-size="14.00">dep</text>
</g>
<!-- 11 -->
<g id="node12" class="node">
<title>11</title>
<ellipse fill="none" stroke="black" cx="890" cy="-18" rx="27" ry="18"/>
<text text-anchor="middle" x="890" y="-14.3" font-family="Times,serif" font-size="14.00">a</text>
</g>
<!-- 0&#45;&gt;11 -->
<g id="edge11" class="edge">
<title>0&#45;&gt;11</title>
<path fill="none" stroke="black" d="M1083.27,-95.22C1047.61,-82.87 981.29,-59.28 926,-36 924.18,-35.24 922.33,-34.43 920.46,-33.6"/>
<polygon fill="black" stroke="black" points="921.74,-30.34 911.18,-29.37 918.83,-36.71 921.74,-30.34"/>
<text text-anchor="middle" x="1019.5" y="-57.8" font-family="Times,serif" font-size="14.00">dep</text>
</g>
<!-- 12 -->
<g id="node13" class="node">
<title>12</title>
<ellipse fill="none" stroke="black" cx="998" cy="-18" rx="63.09" ry="18"/>
<text text-anchor="middle" x="998" y="-14.3" font-family="Times,serif" font-size="14.00">indiferença</text>
</g>
<!-- 0&#45;&gt;12 -->
<g id="edge12" class="edge">
<title>0&#45;&gt;12</title>
<path fill="none" stroke="black" d="M1091.17,-90.34C1073.93,-77.14 1047.52,-56.92 1027.21,-41.37"/>
<polygon fill="black" stroke="black" points="1029.27,-38.54 1019.21,-35.24 1025.02,-44.1 1029.27,-38.54"/>
<text text-anchor="middle" x="1074.5" y="-57.8" font-family="Times,serif" font-size="14.00">dep</text>
</g>
<!-- 13 -->
<g id="node14" class="node">
<title>13</title>
<ellipse fill="none" stroke="black" cx="1109" cy="-18" rx="29.8" ry="18"/>
<text text-anchor="middle" x="1109" y="-14.3" font-family="Times,serif" font-size="14.00">com</text>
</g>
<!-- 0&#45;&gt;13 -->
<g id="edge13" class="edge">
<title>0&#45;&gt;13</title>
<path fill="none" stroke="black" d="M1109,-86.8C1109,-75.16 1109,-59.55 1109,-46.24"/>
<polygon fill="black" stroke="black" points="1112.5,-46.18 1109,-36.18 1105.5,-46.18 1112.5,-46.18"/>
<text text-anchor="middle" x="1122.5" y="-57.8" font-family="Times,serif" font-size="14.00">dep</text>
</g>
<!-- 14 -->
<g id="node15" class="node">
<title>14</title>
<ellipse fill="none" stroke="black" cx="1185" cy="-18" rx="27.9" ry="18"/>
<text text-anchor="middle" x="1185" y="-14.3" font-family="Times,serif" font-size="14.00">que</text>
</g>
<!-- 0&#45;&gt;14 -->
<g id="edge14" class="edge">
<title>0&#45;&gt;14</title>
<path fill="none" stroke="black" d="M1122.59,-88.8C1134.26,-75.75 1151.26,-56.74 1164.57,-41.85"/>
<polygon fill="black" stroke="black" points="1167.47,-43.85 1171.53,-34.06 1162.26,-39.19 1167.47,-43.85"/>
<text text-anchor="middle" x="1165.5" y="-57.8" font-family="Times,serif" font-size="14.00">dep</text>
</g>
<!-- 15 -->
<g id="node16" class="node">
<title>15</title>
<ellipse fill="none" stroke="black" cx="1258" cy="-18" rx="27" ry="18"/>
<text text-anchor="middle" x="1258" y="-14.3" font-family="Times,serif" font-size="14.00">é</text>
</g>
<!-- 0&#45;&gt;15 -->
<g id="edge15" class="edge">
<title>0&#45;&gt;15</title>
<path fill="none" stroke="black" d="M1133.11,-93.67C1147.8,-87.12 1166.8,-78.17 1183,-69 1199.81,-59.49 1217.84,-47.53 1232,-37.7"/>
<polygon fill="black" stroke="black" points="1234.11,-40.49 1240.28,-31.88 1230.09,-34.77 1234.11,-40.49"/>
<text text-anchor="middle" x="1220.5" y="-57.8" font-family="Times,serif" font-size="14.00">dep</text>
</g>
<!-- 16 -->
<g id="node17" class="node">
<title>16</title>
<ellipse fill="none" stroke="black" cx="1340" cy="-18" rx="37.09" ry="18"/>
<text text-anchor="middle" x="1340" y="-14.3" font-family="Times,serif" font-size="14.00">capaz</text>
</g>
<!-- 0&#45;&gt;16 -->
<g id="edge16" class="edge">
<title>0&#45;&gt;16</title>
<path fill="none" stroke="black" d="M1137.17,-97.99C1163.63,-91.97 1204.12,-81.76 1238,-69 1262.06,-59.94 1288.06,-47.14 1307.79,-36.76"/>
<polygon fill="black" stroke="black" points="1309.48,-39.83 1316.66,-32.03 1306.19,-33.65 1309.48,-39.83"/>
<text text-anchor="middle" x="1286.5" y="-57.8" font-family="Times,serif" font-size="14.00">dep</text>
</g>
<!-- 17 -->
<g id="node18" class="node">
<title>17</title>
<ellipse fill="none" stroke="black" cx="1422" cy="-18" rx="27" ry="18"/>
<text text-anchor="middle" x="1422" y="-14.3" font-family="Times,serif" font-size="14.00">de</text>
</g>
<!-- 0&#45;&gt;17 -->
<g id="edge17" class="edge">
<title>0&#45;&gt;17</title>
<path fill="none" stroke="black" d="M1138.83,-100.58C1177.47,-95.71 1246.65,-85.5 1304,-69 1341.75,-58.14 1350,-51.73 1386,-36 1387.81,-35.21 1389.65,-34.39 1391.52,-33.55"/>
<polygon fill="black" stroke="black" points="1393.16,-36.64 1400.77,-29.28 1390.23,-30.29 1393.16,-36.64"/>
<text text-anchor="middle" x="1359.5" y="-57.8" font-family="Times,serif" font-size="14.00">dep</text>
</g>
<!-- 18 -->
<g id="node19" class="node">
<title>18</title>
<ellipse fill="none" stroke="black" cx="1511" cy="-18" rx="43.59" ry="18"/>
<text text-anchor="middle" x="1511" y="-14.3" font-family="Times,serif" font-size="14.00">folhear</text>
</g>
<!-- 0&#45;&gt;18 -->
<g id="edge18" class="edge">
<title>0&#45;&gt;18</title>
<path fill="none" stroke="black" d="M1139.56,-102.27C1189.76,-98.94 1292.53,-89.99 1377,-69 1410.37,-60.71 1446.86,-46.76 1473.31,-35.69"/>
<polygon fill="black" stroke="black" points="1474.74,-38.89 1482.59,-31.76 1472.01,-32.44 1474.74,-38.89"/>
<text text-anchor="middle" x="1439.5" y="-57.8" font-family="Times,serif" font-size="14.00">dep</text>
</g>
<!-- 19 -->
<g id="node20" class="node">
<title>19</title>
<ellipse fill="none" stroke="black" cx="1600" cy="-18" rx="27" ry="18"/>
<text text-anchor="middle" x="1600" y="-14.3" font-family="Times,serif" font-size="14.00">as</text>
</g>
<!-- 0&#45;&gt;19 -->
<g id="edge19" class="edge">
<title>0&#45;&gt;19</title>
<path fill="none" stroke="black" d="M1139.56,-102.97C1200.5,-100.46 1341.24,-92.43 1457,-69 1505.78,-59.13 1517.6,-54 1564,-36 1565.84,-35.29 1567.71,-34.52 1569.59,-33.73"/>
<polygon fill="black" stroke="black" points="1571.19,-36.85 1578.9,-29.58 1568.34,-30.45 1571.19,-36.85"/>
<text text-anchor="middle" x="1528.5" y="-57.8" font-family="Times,serif" font-size="14.00">dep</text>
</g>
<!-- 20 -->
<g id="node21" class="node">
<title>20</title>
<ellipse fill="none" stroke="black" cx="1692" cy="-18" rx="46.59" ry="18"/>
<text text-anchor="middle" x="1692" y="-14.3" font-family="Times,serif" font-size="14.00">páginas</text>
</g>
<!-- 0&#45;&gt;20 -->
<g id="edge20" class="edge">
<title>0&#45;&gt;20</title>
<path fill="none" stroke="black" d="M1139.57,-104.16C1211.33,-103.97 1395.85,-100.21 1546,-69 1583,-61.31 1623.55,-46.91 1652.51,-35.54"/>
<polygon fill="black" stroke="black" points="1653.87,-38.76 1661.86,-31.81 1651.28,-32.26 1653.87,-38.76"/>
<text text-anchor="middle" x="1613.5" y="-57.8" font-family="Times,serif" font-size="14.00">dep</text>
</g>
<!-- 21 -->
<g id="node22" class="node">
<title>21</title>
<ellipse fill="none" stroke="black" cx="1784" cy="-18" rx="27" ry="18"/>
<text text-anchor="middle" x="1784" y="-14.3" font-family="Times,serif" font-size="14.00">de</text>
</g>
<!-- 0&#45;&gt;21 -->
<g id="edge21" class="edge">
<title>0&#45;&gt;21</title>
<path fill="none" stroke="black" d="M1139.56,-104.16C1220.42,-104.1 1446.4,-100.87 1631,-69 1684.24,-59.81 1697.4,-54.93 1748,-36 1749.84,-35.31 1751.73,-34.56 1753.61,-33.78"/>
<polygon fill="black" stroke="black" points="1755.2,-36.9 1762.93,-29.66 1752.37,-30.5 1755.2,-36.9"/>
<text text-anchor="middle" x="1710.5" y="-57.8" font-family="Times,serif" font-size="14.00">dep</text>
</g>
<!-- 22 -->
<g id="node23" class="node">
<title>22</title>
<ellipse fill="none" stroke="black" cx="1856" cy="-18" rx="27" ry="18"/>
<text text-anchor="middle" x="1856" y="-14.3" font-family="Times,serif" font-size="14.00">a</text>
</g>
<!-- 0&#45;&gt;22 -->
<g id="edge22" class="edge">
<title>0&#45;&gt;22</title>
<path fill="none" stroke="black" d="M1139.75,-103.43C1248.36,-101.23 1613.55,-92.25 1728,-69 1762.83,-61.92 1800.47,-46.15 1825.85,-34.2"/>
<polygon fill="black" stroke="black" points="1827.45,-37.32 1834.95,-29.83 1824.42,-31.01 1827.45,-37.32"/>
<text text-anchor="middle" x="1792.5" y="-57.8" font-family="Times,serif" font-size="14.00">dep</text>
</g>
<!-- 23 -->
<g id="node24" class="node">
<title>23</title>
<ellipse fill="none" stroke="black" cx="1928" cy="-18" rx="27" ry="18"/>
<text text-anchor="middle" x="1928" y="-14.3" font-family="Times,serif" font-size="14.00">sua</text>
</g>
<!-- 0&#45;&gt;23 -->
<g id="edge23" class="edge">
<title>0&#45;&gt;23</title>
<path fill="none" stroke="black" d="M1139.72,-103.82C1257.4,-102.91 1679.38,-97.69 1810,-69 1841.71,-62.03 1875.6,-46.77 1898.89,-34.93"/>
<polygon fill="black" stroke="black" points="1900.62,-37.97 1907.88,-30.26 1897.39,-31.76 1900.62,-37.97"/>
<text text-anchor="middle" x="1870.5" y="-57.8" font-family="Times,serif" font-size="14.00">dep</text>
</g>
<!-- 24 -->
<g id="node25" class="node">
<title>24</title>
<ellipse fill="none" stroke="black" cx="2011" cy="-18" rx="37.89" ry="18"/>
<text text-anchor="middle" x="2011" y="-14.3" font-family="Times,serif" font-size="14.00">busca</text>
</g>
<!-- 0&#45;&gt;24 -->
<g id="edge24" class="edge">
<title>0&#45;&gt;24</title>
<path fill="none" stroke="black" d="M1139.65,-104.01C1265.34,-103.84 1741.54,-101.06 1888,-69 1919.41,-62.12 1953.11,-47.9 1977.27,-36.37"/>
<polygon fill="black" stroke="black" points="1978.91,-39.47 1986.37,-31.95 1975.84,-33.18 1978.91,-39.47"/>
<text text-anchor="middle" x="1947.5" y="-57.8" font-family="Times,serif" font-size="14.00">dep</text>
</g>
<!-- 25 -->
<g id="node26" class="node">
<title>25</title>
<ellipse fill="none" stroke="black" cx="2094" cy="-18" rx="27" ry="18"/>
<text text-anchor="middle" x="2094" y="-14.3" font-family="Times,serif" font-size="14.00">.</text>
</g>
<!-- 0&#45;&gt;25 -->
<g id="edge25" class="edge">
<title>0&#45;&gt;25</title>
<path fill="none" stroke="black" d="M1139.89,-103.97C1273.48,-103.67 1802.17,-100.47 1965,-69 2000.34,-62.17 2038.51,-46.2 2064.09,-34.14"/>
<polygon fill="black" stroke="black" points="2065.75,-37.22 2073.24,-29.73 2062.71,-30.91 2065.75,-37.22"/>
<text text-anchor="middle" x="2029.5" y="-57.8" font-family="Times,serif" font-size="14.00">dep</text>
</g>
</g>
</svg>
