<?xml version="1.0" encoding="UTF-8" standalone="no"?>
<!DOCTYPE svg PUBLIC "-//W3C//DTD SVG 1.1//EN"
 "http://www.w3.org/Graphics/SVG/1.1/DTD/svg11.dtd">
<!-- Generated by graphviz version 2.42.4 (0)
 -->
<!-- Pages: 1 -->
<svg width="2227pt" height="131pt"
 viewBox="0.00 0.00 2227.00 131.00" xmlns="http://www.w3.org/2000/svg" xmlns:xlink="http://www.w3.org/1999/xlink">
<g id="graph0" class="graph" transform="scale(1 1) rotate(0) translate(4 127)">
<polygon fill="white" stroke="transparent" points="-4,4 -4,-127 2223,-127 2223,4 -4,4"/>
<!-- 0 -->
<g id="node1" class="node">
<title>0</title>
<ellipse fill="none" stroke="black" cx="1144" cy="-105" rx="27" ry="18"/>
<text text-anchor="middle" x="1144" y="-101.3" font-family="Times,serif" font-size="14.00">Em</text>
</g>
<!-- 1 -->
<g id="node2" class="node">
<title>1</title>
<ellipse fill="none" stroke="black" cx="27" cy="-18" rx="27" ry="18"/>
<text text-anchor="middle" x="27" y="-14.3" font-family="Times,serif" font-size="14.00">a</text>
</g>
<!-- 0&#45;&gt;1 -->
<g id="edge1" class="edge">
<title>0&#45;&gt;1</title>
<path fill="none" stroke="black" d="M1116.94,-103.75C981.99,-102.42 380.9,-95.07 196,-69 135.69,-60.5 120.37,-56.44 63,-36 61.1,-35.32 59.16,-34.58 57.22,-33.79"/>
<polygon fill="black" stroke="black" points="58.21,-30.4 47.64,-29.6 55.4,-36.82 58.21,-30.4"/>
<text text-anchor="middle" x="209.5" y="-57.8" font-family="Times,serif" font-size="14.00">dep</text>
</g>
<!-- 2 -->
<g id="node3" class="node">
<title>2</title>
<ellipse fill="none" stroke="black" cx="112" cy="-18" rx="39.79" ry="18"/>
<text text-anchor="middle" x="112" y="-14.3" font-family="Times,serif" font-size="14.00">minha</text>
</g>
<!-- 0&#45;&gt;2 -->
<g id="edge2" class="edge">
<title>0&#45;&gt;2</title>
<path fill="none" stroke="black" d="M1116.94,-103.51C992.06,-101.13 470.67,-90.12 309,-69 241.74,-60.21 225.2,-54.69 160,-36 157.08,-35.16 154.07,-34.24 151.06,-33.28"/>
<polygon fill="black" stroke="black" points="152.11,-29.94 141.52,-30.09 149.9,-36.58 152.11,-29.94"/>
<text text-anchor="middle" x="322.5" y="-57.8" font-family="Times,serif" font-size="14.00">dep</text>
</g>
<!-- 3 -->
<g id="node4" class="node">
<title>3</title>
<ellipse fill="none" stroke="black" cx="220" cy="-18" rx="50.89" ry="18"/>
<text text-anchor="middle" x="220" y="-14.3" font-family="Times,serif" font-size="14.00">primeira</text>
</g>
<!-- 0&#45;&gt;3 -->
<g id="edge3" class="edge">
<title>0&#45;&gt;3</title>
<path fill="none" stroke="black" d="M1117.07,-103.46C1001.63,-101.03 548.07,-90.3 407,-69 357.58,-61.54 302.48,-45.87 264.97,-34.05"/>
<polygon fill="black" stroke="black" points="265.94,-30.69 255.35,-30.99 263.81,-37.36 265.94,-30.69"/>
<text text-anchor="middle" x="420.5" y="-57.8" font-family="Times,serif" font-size="14.00">dep</text>
</g>
<!-- 4 -->
<g id="node5" class="node">
<title>4</title>
<ellipse fill="none" stroke="black" cx="341" cy="-18" rx="52.79" ry="18"/>
<text text-anchor="middle" x="341" y="-14.3" font-family="Times,serif" font-size="14.00">tentativa</text>
</g>
<!-- 0&#45;&gt;4 -->
<g id="edge4" class="edge">
<title>0&#45;&gt;4</title>
<path fill="none" stroke="black" d="M1116.95,-103.51C1009.77,-101.4 614.8,-92.2 492,-69 454.09,-61.84 412.59,-47.6 382.7,-36.15"/>
<polygon fill="black" stroke="black" points="383.62,-32.75 373.03,-32.38 381.08,-39.27 383.62,-32.75"/>
<text text-anchor="middle" x="505.5" y="-57.8" font-family="Times,serif" font-size="14.00">dep</text>
</g>
<!-- 5 -->
<g id="node6" class="node">
<title>5</title>
<ellipse fill="none" stroke="black" cx="439" cy="-18" rx="27" ry="18"/>
<text text-anchor="middle" x="439" y="-14.3" font-family="Times,serif" font-size="14.00">,</text>
</g>
<!-- 0&#45;&gt;5 -->
<g id="edge5" class="edge">
<title>0&#45;&gt;5</title>
<path fill="none" stroke="black" d="M1116.92,-103.22C1018.98,-100.24 683.34,-88.81 578,-69 530.76,-60.11 519.72,-53.63 475,-36 473.17,-35.28 471.3,-34.5 469.42,-33.7"/>
<polygon fill="black" stroke="black" points="470.67,-30.43 460.12,-29.54 467.81,-36.82 470.67,-30.43"/>
<text text-anchor="middle" x="591.5" y="-57.8" font-family="Times,serif" font-size="14.00">dep</text>
</g>
<!-- 6 -->
<g id="node7" class="node">
<title>6</title>
<ellipse fill="none" stroke="black" cx="511" cy="-18" rx="27" ry="18"/>
<text text-anchor="middle" x="511" y="-14.3" font-family="Times,serif" font-size="14.00">fiz</text>
</g>
<!-- 0&#45;&gt;6 -->
<g id="edge6" class="edge">
<title>0&#45;&gt;6</title>
<path fill="none" stroke="black" d="M1116.96,-103.17C1047.22,-100.74 855.7,-92.31 698,-69 630.04,-58.96 612.03,-58.14 547,-36 545.09,-35.35 543.14,-34.62 541.19,-33.85"/>
<polygon fill="black" stroke="black" points="542.18,-30.46 531.61,-29.71 539.4,-36.89 542.18,-30.46"/>
<text text-anchor="middle" x="711.5" y="-57.8" font-family="Times,serif" font-size="14.00">dep</text>
</g>
<!-- 7 -->
<g id="node8" class="node">
<title>7</title>
<ellipse fill="none" stroke="black" cx="622" cy="-18" rx="65.79" ry="18"/>
<text text-anchor="middle" x="622" y="-14.3" font-family="Times,serif" font-size="14.00">exatamente</text>
</g>
<!-- 0&#45;&gt;7 -->
<g id="edge7" class="edge">
<title>0&#45;&gt;7</title>
<path fill="none" stroke="black" d="M1117.02,-103.11C1057.36,-100.76 909.92,-92.83 789,-69 748.23,-60.97 703.16,-47.17 670.12,-36.1"/>
<polygon fill="black" stroke="black" points="670.87,-32.66 660.28,-32.76 668.62,-39.29 670.87,-32.66"/>
<text text-anchor="middle" x="802.5" y="-57.8" font-family="Times,serif" font-size="14.00">dep</text>
</g>
<!-- 8 -->
<g id="node9" class="node">
<title>8</title>
<ellipse fill="none" stroke="black" cx="733" cy="-18" rx="27" ry="18"/>
<text text-anchor="middle" x="733" y="-14.3" font-family="Times,serif" font-size="14.00">a</text>
</g>
<!-- 0&#45;&gt;8 -->
<g id="edge8" class="edge">
<title>0&#45;&gt;8</title>
<path fill="none" stroke="black" d="M1117.05,-101.88C1068.88,-97.76 964.98,-87.45 879,-69 829.09,-58.29 816.66,-54.28 769,-36 767.16,-35.29 765.28,-34.54 763.4,-33.74"/>
<polygon fill="black" stroke="black" points="764.65,-30.47 754.09,-29.6 761.81,-36.86 764.65,-30.47"/>
<text text-anchor="middle" x="892.5" y="-57.8" font-family="Times,serif" font-size="14.00">dep</text>
</g>
<!-- 9 -->
<g id="node10" class="node">
<title>9</title>
<ellipse fill="none" stroke="black" cx="822" cy="-18" rx="44.39" ry="18"/>
<text text-anchor="middle" x="822" y="-14.3" font-family="Times,serif" font-size="14.00">mesma</text>
</g>
<!-- 0&#45;&gt;9 -->
<g id="edge9" class="edge">
<title>0&#45;&gt;9</title>
<path fill="none" stroke="black" d="M1117.7,-100.74C1080.55,-95.78 1010.79,-85.17 953,-69 921.09,-60.07 886.08,-46.5 860.29,-35.75"/>
<polygon fill="black" stroke="black" points="861.45,-32.44 850.88,-31.78 858.73,-38.89 861.45,-32.44"/>
<text text-anchor="middle" x="966.5" y="-57.8" font-family="Times,serif" font-size="14.00">dep</text>
</g>
<!-- 10 -->
<g id="node11" class="node">
<title>10</title>
<ellipse fill="none" stroke="black" cx="919" cy="-18" rx="34.39" ry="18"/>
<text text-anchor="middle" x="919" y="-14.3" font-family="Times,serif" font-size="14.00">coisa</text>
</g>
<!-- 0&#45;&gt;10 -->
<g id="edge10" class="edge">
<title>0&#45;&gt;10</title>
<path fill="none" stroke="black" d="M1118.69,-98.62C1092.71,-92.73 1051.33,-82.33 1017,-69 993.89,-60.03 969.03,-47.31 950.13,-36.94"/>
<polygon fill="black" stroke="black" points="951.81,-33.87 941.37,-32.07 948.41,-39.98 951.81,-33.87"/>
<text text-anchor="middle" x="1030.5" y="-57.8" font-family="Times,serif" font-size="14.00">dep</text>
</g>
<!-- 11 -->
<g id="node12" class="node">
<title>11</title>
<ellipse fill="none" stroke="black" cx="999" cy="-18" rx="27.9" ry="18"/>
<text text-anchor="middle" x="999" y="-14.3" font-family="Times,serif" font-size="14.00">que</text>
</g>
<!-- 0&#45;&gt;11 -->
<g id="edge11" class="edge">
<title>0&#45;&gt;11</title>
<path fill="none" stroke="black" d="M1121.8,-94.7C1106.83,-88.14 1086.82,-78.8 1070,-69 1054.29,-59.85 1037.63,-48.22 1024.4,-38.49"/>
<polygon fill="black" stroke="black" points="1026.35,-35.58 1016.24,-32.41 1022.17,-41.19 1026.35,-35.58"/>
<text text-anchor="middle" x="1083.5" y="-57.8" font-family="Times,serif" font-size="14.00">dep</text>
</g>
<!-- 12 -->
<g id="node13" class="node">
<title>12</title>
<ellipse fill="none" stroke="black" cx="1072" cy="-18" rx="27" ry="18"/>
<text text-anchor="middle" x="1072" y="-14.3" font-family="Times,serif" font-size="14.00">em</text>
</g>
<!-- 0&#45;&gt;12 -->
<g id="edge12" class="edge">
<title>0&#45;&gt;12</title>
<path fill="none" stroke="black" d="M1130.6,-89.12C1125.09,-82.94 1118.69,-75.67 1113,-69 1105.68,-60.41 1097.79,-50.86 1090.9,-42.43"/>
<polygon fill="black" stroke="black" points="1093.44,-39.99 1084.41,-34.44 1088,-44.41 1093.44,-39.99"/>
<text text-anchor="middle" x="1126.5" y="-57.8" font-family="Times,serif" font-size="14.00">dep</text>
</g>
<!-- 13 -->
<g id="node14" class="node">
<title>13</title>
<ellipse fill="none" stroke="black" cx="1144" cy="-18" rx="27" ry="18"/>
<text text-anchor="middle" x="1144" y="-14.3" font-family="Times,serif" font-size="14.00">a</text>
</g>
<!-- 0&#45;&gt;13 -->
<g id="edge13" class="edge">
<title>0&#45;&gt;13</title>
<path fill="none" stroke="black" d="M1144,-86.8C1144,-75.16 1144,-59.55 1144,-46.24"/>
<polygon fill="black" stroke="black" points="1147.5,-46.18 1144,-36.18 1140.5,-46.18 1147.5,-46.18"/>
<text text-anchor="middle" x="1157.5" y="-57.8" font-family="Times,serif" font-size="14.00">dep</text>
</g>
<!-- 14 -->
<g id="node15" class="node">
<title>14</title>
<ellipse fill="none" stroke="black" cx="1240" cy="-18" rx="50.89" ry="18"/>
<text text-anchor="middle" x="1240" y="-14.3" font-family="Times,serif" font-size="14.00">primeira</text>
</g>
<!-- 0&#45;&gt;14 -->
<g id="edge14" class="edge">
<title>0&#45;&gt;14</title>
<path fill="none" stroke="black" d="M1159.85,-89.96C1174.63,-76.88 1196.93,-57.13 1214.26,-41.79"/>
<polygon fill="black" stroke="black" points="1216.66,-44.34 1221.83,-35.09 1212.02,-39.1 1216.66,-44.34"/>
<text text-anchor="middle" x="1211.5" y="-57.8" font-family="Times,serif" font-size="14.00">dep</text>
</g>
<!-- 15 -->
<g id="node16" class="node">
<title>15</title>
<ellipse fill="none" stroke="black" cx="1336" cy="-18" rx="27" ry="18"/>
<text text-anchor="middle" x="1336" y="-14.3" font-family="Times,serif" font-size="14.00">vez</text>
</g>
<!-- 0&#45;&gt;15 -->
<g id="edge15" class="edge">
<title>0&#45;&gt;15</title>
<path fill="none" stroke="black" d="M1166.84,-94.91C1184.02,-88 1208.1,-78.16 1229,-69 1260.87,-55.04 1268.49,-50.76 1300,-36 1301.78,-35.16 1303.62,-34.3 1305.47,-33.43"/>
<polygon fill="black" stroke="black" points="1307.13,-36.52 1314.69,-29.09 1304.15,-30.18 1307.13,-36.52"/>
<text text-anchor="middle" x="1275.5" y="-57.8" font-family="Times,serif" font-size="14.00">dep</text>
</g>
<!-- 16 -->
<g id="node17" class="node">
<title>16</title>
<ellipse fill="none" stroke="black" cx="1409" cy="-18" rx="27.9" ry="18"/>
<text text-anchor="middle" x="1409" y="-14.3" font-family="Times,serif" font-size="14.00">que</text>
</g>
<!-- 0&#45;&gt;16 -->
<g id="edge16" class="edge">
<title>0&#45;&gt;16</title>
<path fill="none" stroke="black" d="M1169.66,-99.31C1199.63,-93.53 1250.53,-82.75 1293,-69 1329.2,-57.28 1337.15,-51.28 1372,-36 1373.8,-35.21 1375.64,-34.4 1377.49,-33.57"/>
<polygon fill="black" stroke="black" points="1379.09,-36.69 1386.75,-29.37 1376.2,-30.31 1379.09,-36.69"/>
<text text-anchor="middle" x="1345.5" y="-57.8" font-family="Times,serif" font-size="14.00">dep</text>
</g>
<!-- 17 -->
<g id="node18" class="node">
<title>17</title>
<ellipse fill="none" stroke="black" cx="1508" cy="-18" rx="53.09" ry="18"/>
<text text-anchor="middle" x="1508" y="-14.3" font-family="Times,serif" font-size="14.00">pratiquei</text>
</g>
<!-- 0&#45;&gt;17 -->
<g id="edge17" class="edge">
<title>0&#45;&gt;17</title>
<path fill="none" stroke="black" d="M1170.59,-101.26C1212.11,-96.64 1294.65,-86.11 1363,-69 1398.12,-60.21 1436.84,-46.65 1465.43,-35.87"/>
<polygon fill="black" stroke="black" points="1466.99,-39.02 1475.09,-32.19 1464.5,-32.48 1466.99,-39.02"/>
<text text-anchor="middle" x="1425.5" y="-57.8" font-family="Times,serif" font-size="14.00">dep</text>
</g>
<!-- 18 -->
<g id="node19" class="node">
<title>18</title>
<ellipse fill="none" stroke="black" cx="1615" cy="-18" rx="36" ry="18"/>
<text text-anchor="middle" x="1615" y="-14.3" font-family="Times,serif" font-size="14.00">esqui</text>
</g>
<!-- 0&#45;&gt;18 -->
<g id="edge18" class="edge">
<title>0&#45;&gt;18</title>
<path fill="none" stroke="black" d="M1170.99,-102.09C1223.64,-98.1 1343.6,-87.64 1443,-69 1500.32,-58.25 1514.42,-53.66 1570,-36 1572.6,-35.17 1575.26,-34.28 1577.94,-33.36"/>
<polygon fill="black" stroke="black" points="1579.33,-36.58 1587.56,-29.9 1576.96,-29.99 1579.33,-36.58"/>
<text text-anchor="middle" x="1523.5" y="-57.8" font-family="Times,serif" font-size="14.00">dep</text>
</g>
<!-- 19 -->
<g id="node20" class="node">
<title>19</title>
<ellipse fill="none" stroke="black" cx="1719" cy="-18" rx="50.09" ry="18"/>
<text text-anchor="middle" x="1719" y="-14.3" font-family="Times,serif" font-size="14.00">aquático</text>
</g>
<!-- 0&#45;&gt;19 -->
<g id="edge19" class="edge">
<title>0&#45;&gt;19</title>
<path fill="none" stroke="black" d="M1171.18,-103.31C1235.8,-101.3 1403.47,-93.92 1541,-69 1587.19,-60.63 1638.7,-45.51 1674.37,-34.08"/>
<polygon fill="black" stroke="black" points="1675.56,-37.37 1684,-30.96 1673.41,-30.71 1675.56,-37.37"/>
<text text-anchor="middle" x="1619.5" y="-57.8" font-family="Times,serif" font-size="14.00">dep</text>
</g>
<!-- 20 -->
<g id="node21" class="node">
<title>20</title>
<ellipse fill="none" stroke="black" cx="1814" cy="-18" rx="27" ry="18"/>
<text text-anchor="middle" x="1814" y="-14.3" font-family="Times,serif" font-size="14.00">:</text>
</g>
<!-- 0&#45;&gt;20 -->
<g id="edge20" class="edge">
<title>0&#45;&gt;20</title>
<path fill="none" stroke="black" d="M1171.15,-103.58C1245.89,-102.12 1460.75,-95.71 1637,-69 1700.63,-59.36 1717.23,-57.19 1778,-36 1779.91,-35.33 1781.85,-34.6 1783.8,-33.82"/>
<polygon fill="black" stroke="black" points="1785.6,-36.85 1793.37,-29.65 1782.81,-30.43 1785.6,-36.85"/>
<text text-anchor="middle" x="1732.5" y="-57.8" font-family="Times,serif" font-size="14.00">dep</text>
</g>
<!-- 21 -->
<g id="node22" class="node">
<title>21</title>
<ellipse fill="none" stroke="black" cx="1886" cy="-18" rx="27" ry="18"/>
<text text-anchor="middle" x="1886" y="-14.3" font-family="Times,serif" font-size="14.00">caí</text>
</g>
<!-- 0&#45;&gt;21 -->
<g id="edge21" class="edge">
<title>0&#45;&gt;21</title>
<path fill="none" stroke="black" d="M1171.21,-103.37C1273.75,-100.86 1636.64,-90.59 1750,-69 1795.98,-60.24 1806.54,-53.36 1850,-36 1851.83,-35.27 1853.7,-34.49 1855.57,-33.68"/>
<polygon fill="black" stroke="black" points="1857.18,-36.8 1864.87,-29.51 1854.31,-30.41 1857.18,-36.8"/>
<text text-anchor="middle" x="1818.5" y="-57.8" font-family="Times,serif" font-size="14.00">dep</text>
</g>
<!-- 22 -->
<g id="node23" class="node">
<title>22</title>
<ellipse fill="none" stroke="black" cx="1958" cy="-18" rx="27" ry="18"/>
<text text-anchor="middle" x="1958" y="-14.3" font-family="Times,serif" font-size="14.00">e</text>
</g>
<!-- 0&#45;&gt;22 -->
<g id="edge22" class="edge">
<title>0&#45;&gt;22</title>
<path fill="none" stroke="black" d="M1171.21,-103.77C1282.82,-102.63 1705.66,-96.57 1836,-69 1869.02,-62.02 1904.47,-46.49 1928.6,-34.58"/>
<polygon fill="black" stroke="black" points="1930.22,-37.68 1937.58,-30.06 1927.07,-31.43 1930.22,-37.68"/>
<text text-anchor="middle" x="1898.5" y="-57.8" font-family="Times,serif" font-size="14.00">dep</text>
</g>
<!-- 23 -->
<g id="node24" class="node">
<title>23</title>
<ellipse fill="none" stroke="black" cx="2030" cy="-18" rx="27" ry="18"/>
<text text-anchor="middle" x="2030" y="-14.3" font-family="Times,serif" font-size="14.00">me</text>
</g>
<!-- 0&#45;&gt;23 -->
<g id="edge23" class="edge">
<title>0&#45;&gt;23</title>
<path fill="none" stroke="black" d="M1171.1,-104.05C1290.45,-104.09 1769.78,-102.12 1916,-69 1946.43,-62.11 1978.8,-47.09 2001.24,-35.3"/>
<polygon fill="black" stroke="black" points="2003.06,-38.29 2010.21,-30.48 1999.74,-32.12 2003.06,-38.29"/>
<text text-anchor="middle" x="1975.5" y="-57.8" font-family="Times,serif" font-size="14.00">dep</text>
</g>
<!-- 24 -->
<g id="node25" class="node">
<title>24</title>
<ellipse fill="none" stroke="black" cx="2111" cy="-18" rx="36.29" ry="18"/>
<text text-anchor="middle" x="2111" y="-14.3" font-family="Times,serif" font-size="14.00">soltei</text>
</g>
<!-- 0&#45;&gt;24 -->
<g id="edge24" class="edge">
<title>0&#45;&gt;24</title>
<path fill="none" stroke="black" d="M1171.21,-104.18C1297.95,-104.85 1831.08,-105.38 1993,-69 2023.15,-62.23 2055.31,-48.09 2078.43,-36.57"/>
<polygon fill="black" stroke="black" points="2080.12,-39.64 2087.44,-31.98 2076.94,-33.4 2080.12,-39.64"/>
<text text-anchor="middle" x="2050.5" y="-57.8" font-family="Times,serif" font-size="14.00">dep</text>
</g>
<!-- 25 -->
<g id="node26" class="node">
<title>25</title>
<ellipse fill="none" stroke="black" cx="2192" cy="-18" rx="27" ry="18"/>
<text text-anchor="middle" x="2192" y="-14.3" font-family="Times,serif" font-size="14.00">.</text>
</g>
<!-- 0&#45;&gt;25 -->
<g id="edge25" class="edge">
<title>0&#45;&gt;25</title>
<path fill="none" stroke="black" d="M1171.32,-104.14C1304.9,-104.65 1889.96,-104.78 2068,-69 2101.75,-62.22 2138.02,-46.51 2162.55,-34.5"/>
<polygon fill="black" stroke="black" points="2164.29,-37.54 2171.67,-29.94 2161.16,-31.28 2164.29,-37.54"/>
<text text-anchor="middle" x="2131.5" y="-57.8" font-family="Times,serif" font-size="14.00">dep</text>
</g>
</g>
</svg>
