<?xml version="1.0" encoding="UTF-8" standalone="no"?>
<!DOCTYPE svg PUBLIC "-//W3C//DTD SVG 1.1//EN"
 "http://www.w3.org/Graphics/SVG/1.1/DTD/svg11.dtd">
<!-- Generated by graphviz version 2.42.4 (0)
 -->
<!-- Pages: 1 -->
<svg width="2007pt" height="131pt"
 viewBox="0.00 0.00 2006.55 131.00" xmlns="http://www.w3.org/2000/svg" xmlns:xlink="http://www.w3.org/1999/xlink">
<g id="graph0" class="graph" transform="scale(1 1) rotate(0) translate(4 127)">
<polygon fill="white" stroke="transparent" points="-4,4 -4,-127 2002.55,-127 2002.55,4 -4,4"/>
<!-- 0 -->
<g id="node1" class="node">
<title>0</title>
<ellipse fill="none" stroke="black" cx="959.55" cy="-105" rx="27" ry="18"/>
<text text-anchor="middle" x="959.55" y="-101.3" font-family="Times,serif" font-size="14.00">O</text>
</g>
<!-- 1 -->
<g id="node2" class="node">
<title>1</title>
<ellipse fill="none" stroke="black" cx="30.55" cy="-18" rx="30.59" ry="18"/>
<text text-anchor="middle" x="30.55" y="-14.3" font-family="Times,serif" font-size="14.00">veto</text>
</g>
<!-- 0&#45;&gt;1 -->
<g id="edge1" class="edge">
<title>0&#45;&gt;1</title>
<path fill="none" stroke="black" d="M932.47,-103.52C814.26,-101.31 342.88,-91.27 196.55,-69 139.32,-60.29 125.33,-54.7 70.55,-36 68.17,-35.19 65.74,-34.3 63.31,-33.37"/>
<polygon fill="black" stroke="black" points="64.6,-30.12 54.02,-29.65 61.99,-36.62 64.6,-30.12"/>
<text text-anchor="middle" x="210.05" y="-57.8" font-family="Times,serif" font-size="14.00">dep</text>
</g>
<!-- 2 -->
<g id="node3" class="node">
<title>2</title>
<ellipse fill="none" stroke="black" cx="127.55" cy="-18" rx="48.19" ry="18"/>
<text text-anchor="middle" x="127.55" y="-14.3" font-family="Times,serif" font-size="14.00">impediu</text>
</g>
<!-- 0&#45;&gt;2 -->
<g id="edge2" class="edge">
<title>0&#45;&gt;2</title>
<path fill="none" stroke="black" d="M932.63,-103.53C823.2,-101.49 411.43,-92.4 283.55,-69 243.54,-61.68 199.54,-46.93 168.5,-35.34"/>
<polygon fill="black" stroke="black" points="169.49,-31.97 158.9,-31.7 167.01,-38.52 169.49,-31.97"/>
<text text-anchor="middle" x="297.05" y="-57.8" font-family="Times,serif" font-size="14.00">dep</text>
</g>
<!-- 3 -->
<g id="node4" class="node">
<title>3</title>
<ellipse fill="none" stroke="black" cx="220.55" cy="-18" rx="27" ry="18"/>
<text text-anchor="middle" x="220.55" y="-14.3" font-family="Times,serif" font-size="14.00">a</text>
</g>
<!-- 0&#45;&gt;3 -->
<g id="edge3" class="edge">
<title>0&#45;&gt;3</title>
<path fill="none" stroke="black" d="M932.42,-103.94C850.88,-103.4 600.96,-99.22 396.55,-69 333.31,-59.65 316.89,-57.1 256.55,-36 254.64,-35.33 252.7,-34.6 250.75,-33.81"/>
<polygon fill="black" stroke="black" points="251.74,-30.43 241.18,-29.65 248.95,-36.85 251.74,-30.43"/>
<text text-anchor="middle" x="410.05" y="-57.8" font-family="Times,serif" font-size="14.00">dep</text>
</g>
<!-- 4 -->
<g id="node5" class="node">
<title>4</title>
<ellipse fill="none" stroke="black" cx="325.55" cy="-18" rx="60.39" ry="18"/>
<text text-anchor="middle" x="325.55" y="-14.3" font-family="Times,serif" font-size="14.00">declaração</text>
</g>
<!-- 0&#45;&gt;4 -->
<g id="edge4" class="edge">
<title>0&#45;&gt;4</title>
<path fill="none" stroke="black" d="M932.54,-104.16C859.69,-104.12 653.34,-100.97 485.55,-69 445.91,-61.45 402.27,-47.41 370.59,-36.12"/>
<polygon fill="black" stroke="black" points="371.76,-32.82 361.17,-32.72 369.38,-39.41 371.76,-32.82"/>
<text text-anchor="middle" x="499.05" y="-57.8" font-family="Times,serif" font-size="14.00">dep</text>
</g>
<!-- 5 -->
<g id="node6" class="node">
<title>5</title>
<ellipse fill="none" stroke="black" cx="431.55" cy="-18" rx="27.9" ry="18"/>
<text text-anchor="middle" x="431.55" y="-14.3" font-family="Times,serif" font-size="14.00">que</text>
</g>
<!-- 0&#45;&gt;5 -->
<g id="edge5" class="edge">
<title>0&#45;&gt;5</title>
<path fill="none" stroke="black" d="M932.39,-103.85C867.87,-103.01 700.57,-97.95 564.55,-69 528.45,-61.32 489.11,-45.53 462.66,-33.74"/>
<polygon fill="black" stroke="black" points="464.07,-30.54 453.52,-29.6 461.18,-36.92 464.07,-30.54"/>
<text text-anchor="middle" x="578.05" y="-57.8" font-family="Times,serif" font-size="14.00">dep</text>
</g>
<!-- 6 -->
<g id="node7" class="node">
<title>6</title>
<ellipse fill="none" stroke="black" cx="513.55" cy="-18" rx="36.29" ry="18"/>
<text text-anchor="middle" x="513.55" y="-14.3" font-family="Times,serif" font-size="14.00">pedia</text>
</g>
<!-- 0&#45;&gt;6 -->
<g id="edge6" class="edge">
<title>0&#45;&gt;6</title>
<path fill="none" stroke="black" d="M932.33,-103.4C876.84,-101.66 746.99,-94.92 641.55,-69 608.88,-60.97 573.37,-46.62 548.06,-35.35"/>
<polygon fill="black" stroke="black" points="549.44,-32.13 538.89,-31.2 546.55,-38.51 549.44,-32.13"/>
<text text-anchor="middle" x="655.05" y="-57.8" font-family="Times,serif" font-size="14.00">dep</text>
</g>
<!-- 7 -->
<g id="node8" class="node">
<title>7</title>
<ellipse fill="none" stroke="black" cx="594.55" cy="-18" rx="27" ry="18"/>
<text text-anchor="middle" x="594.55" y="-14.3" font-family="Times,serif" font-size="14.00">a</text>
</g>
<!-- 0&#45;&gt;7 -->
<g id="edge7" class="edge">
<title>0&#45;&gt;7</title>
<path fill="none" stroke="black" d="M932.67,-102.05C887.6,-98.34 794.2,-88.82 717.55,-69 684.84,-60.54 649.27,-45.38 624.84,-33.97"/>
<polygon fill="black" stroke="black" points="626.26,-30.77 615.73,-29.64 623.26,-37.09 626.26,-30.77"/>
<text text-anchor="middle" x="731.05" y="-57.8" font-family="Times,serif" font-size="14.00">dep</text>
</g>
<!-- 8 -->
<g id="node9" class="node">
<title>8</title>
<ellipse fill="none" stroke="black" cx="666.55" cy="-18" rx="27" ry="18"/>
<text text-anchor="middle" x="666.55" y="-14.3" font-family="Times,serif" font-size="14.00">os</text>
</g>
<!-- 0&#45;&gt;8 -->
<g id="edge8" class="edge">
<title>0&#45;&gt;8</title>
<path fill="none" stroke="black" d="M933.56,-99.61C900.83,-93.83 843,-82.76 794.55,-69 752.76,-57.13 742.68,-52.63 702.55,-36 700.73,-35.25 698.87,-34.45 697,-33.63"/>
<polygon fill="black" stroke="black" points="698.27,-30.36 687.71,-29.41 695.37,-36.73 698.27,-30.36"/>
<text text-anchor="middle" x="808.05" y="-57.8" font-family="Times,serif" font-size="14.00">dep</text>
</g>
<!-- 9 -->
<g id="node10" class="node">
<title>9</title>
<ellipse fill="none" stroke="black" cx="755.55" cy="-18" rx="44.39" ry="18"/>
<text text-anchor="middle" x="755.55" y="-14.3" font-family="Times,serif" font-size="14.00">sérvios</text>
</g>
<!-- 0&#45;&gt;9 -->
<g id="edge9" class="edge">
<title>0&#45;&gt;9</title>
<path fill="none" stroke="black" d="M935.24,-96.87C913.93,-90.37 882.28,-80.12 855.55,-69 833.21,-59.71 808.93,-47.62 789.88,-37.65"/>
<polygon fill="black" stroke="black" points="791.46,-34.53 780.99,-32.95 788.2,-40.72 791.46,-34.53"/>
<text text-anchor="middle" x="869.05" y="-57.8" font-family="Times,serif" font-size="14.00">dep</text>
</g>
<!-- 10 -->
<g id="node11" class="node">
<title>10</title>
<ellipse fill="none" stroke="black" cx="844.55" cy="-18" rx="27" ry="18"/>
<text text-anchor="middle" x="844.55" y="-14.3" font-family="Times,serif" font-size="14.00">de</text>
</g>
<!-- 0&#45;&gt;10 -->
<g id="edge10" class="edge">
<title>0&#45;&gt;10</title>
<path fill="none" stroke="black" d="M940.06,-92.44C929.35,-85.88 915.97,-77.34 904.55,-69 892.07,-59.89 878.81,-48.98 867.94,-39.68"/>
<polygon fill="black" stroke="black" points="870,-36.84 860.14,-32.94 865.42,-42.13 870,-36.84"/>
<text text-anchor="middle" x="918.05" y="-57.8" font-family="Times,serif" font-size="14.00">dep</text>
</g>
<!-- 11 -->
<g id="node12" class="node">
<title>11</title>
<ellipse fill="none" stroke="black" cx="916.55" cy="-18" rx="27" ry="18"/>
<text text-anchor="middle" x="916.55" y="-14.3" font-family="Times,serif" font-size="14.00">a</text>
</g>
<!-- 0&#45;&gt;11 -->
<g id="edge11" class="edge">
<title>0&#45;&gt;11</title>
<path fill="none" stroke="black" d="M951.26,-87.61C945.07,-75.38 936.5,-58.44 929.43,-44.46"/>
<polygon fill="black" stroke="black" points="932.45,-42.68 924.81,-35.34 926.2,-45.84 932.45,-42.68"/>
<text text-anchor="middle" x="955.05" y="-57.8" font-family="Times,serif" font-size="14.00">dep</text>
</g>
<!-- 12 -->
<g id="node13" class="node">
<title>12</title>
<ellipse fill="none" stroke="black" cx="1003.55" cy="-18" rx="42.49" ry="18"/>
<text text-anchor="middle" x="1003.55" y="-14.3" font-family="Times,serif" font-size="14.00">Bósnia</text>
</g>
<!-- 0&#45;&gt;12 -->
<g id="edge12" class="edge">
<title>0&#45;&gt;12</title>
<path fill="none" stroke="black" d="M968.03,-87.61C974.32,-75.46 983.02,-58.66 990.23,-44.73"/>
<polygon fill="black" stroke="black" points="993.45,-46.12 994.94,-35.63 987.23,-42.9 993.45,-46.12"/>
<text text-anchor="middle" x="998.05" y="-57.8" font-family="Times,serif" font-size="14.00">dep</text>
</g>
<!-- 13 -->
<g id="node14" class="node">
<title>13</title>
<ellipse fill="none" stroke="black" cx="1091.55" cy="-18" rx="27.9" ry="18"/>
<text text-anchor="middle" x="1091.55" y="-14.3" font-family="Times,serif" font-size="14.00">que</text>
</g>
<!-- 0&#45;&gt;13 -->
<g id="edge13" class="edge">
<title>0&#45;&gt;13</title>
<path fill="none" stroke="black" d="M978.8,-92.12C989.63,-85.4 1003.39,-76.8 1015.55,-69 1031.84,-58.55 1049.95,-46.65 1064.41,-37.07"/>
<polygon fill="black" stroke="black" points="1066.49,-39.9 1072.89,-31.45 1062.62,-34.06 1066.49,-39.9"/>
<text text-anchor="middle" x="1053.05" y="-57.8" font-family="Times,serif" font-size="14.00">dep</text>
</g>
<!-- 14 -->
<g id="node15" class="node">
<title>14</title>
<ellipse fill="none" stroke="black" cx="1193.55" cy="-18" rx="55.79" ry="18"/>
<text text-anchor="middle" x="1193.55" y="-14.3" font-family="Times,serif" font-size="14.00">parassem</text>
</g>
<!-- 0&#45;&gt;14 -->
<g id="edge14" class="edge">
<title>0&#45;&gt;14</title>
<path fill="none" stroke="black" d="M983.99,-96.91C1006.61,-90.21 1041.08,-79.61 1070.55,-69 1097.99,-59.11 1128.37,-46.78 1152.06,-36.84"/>
<polygon fill="black" stroke="black" points="1153.6,-39.99 1161.45,-32.88 1150.88,-33.54 1153.6,-39.99"/>
<text text-anchor="middle" x="1122.05" y="-57.8" font-family="Times,serif" font-size="14.00">dep</text>
</g>
<!-- 15 -->
<g id="node16" class="node">
<title>15</title>
<ellipse fill="none" stroke="black" cx="1314.55" cy="-18" rx="47.39" ry="18"/>
<text text-anchor="middle" x="1314.55" y="-14.3" font-family="Times,serif" font-size="14.00">ataques</text>
</g>
<!-- 0&#45;&gt;15 -->
<g id="edge15" class="edge">
<title>0&#45;&gt;15</title>
<path fill="none" stroke="black" d="M985.62,-99.59C1020.75,-93.5 1085.16,-81.81 1139.55,-69 1192.97,-56.42 1205.84,-51.31 1258.55,-36 1261.92,-35.02 1265.4,-34 1268.9,-32.96"/>
<polygon fill="black" stroke="black" points="1270.16,-36.23 1278.74,-30.01 1268.15,-29.53 1270.16,-36.23"/>
<text text-anchor="middle" x="1211.05" y="-57.8" font-family="Times,serif" font-size="14.00">dep</text>
</g>
<!-- 16 -->
<g id="node17" class="node">
<title>16</title>
<ellipse fill="none" stroke="black" cx="1406.55" cy="-18" rx="27" ry="18"/>
<text text-anchor="middle" x="1406.55" y="-14.3" font-family="Times,serif" font-size="14.00">em</text>
</g>
<!-- 0&#45;&gt;16 -->
<g id="edge16" class="edge">
<title>0&#45;&gt;16</title>
<path fill="none" stroke="black" d="M986.77,-102.69C1053.82,-98.8 1231.54,-84.35 1370.55,-36 1372.46,-35.34 1374.4,-34.6 1376.34,-33.82"/>
<polygon fill="black" stroke="black" points="1378.15,-36.85 1385.92,-29.66 1375.36,-30.43 1378.15,-36.85"/>
<text text-anchor="middle" x="1319.05" y="-57.8" font-family="Times,serif" font-size="14.00">dep</text>
</g>
<!-- 17 -->
<g id="node18" class="node">
<title>17</title>
<ellipse fill="none" stroke="black" cx="1478.55" cy="-18" rx="27" ry="18"/>
<text text-anchor="middle" x="1478.55" y="-14.3" font-family="Times,serif" font-size="14.00">o</text>
</g>
<!-- 0&#45;&gt;17 -->
<g id="edge17" class="edge">
<title>0&#45;&gt;17</title>
<path fill="none" stroke="black" d="M986.8,-103.42C1049.26,-101.66 1207.31,-94.82 1336.55,-69 1384.93,-59.33 1396.57,-53.91 1442.55,-36 1444.38,-35.28 1446.26,-34.52 1448.14,-33.72"/>
<polygon fill="black" stroke="black" points="1449.74,-36.84 1457.44,-29.57 1446.88,-30.45 1449.74,-36.84"/>
<text text-anchor="middle" x="1408.05" y="-57.8" font-family="Times,serif" font-size="14.00">dep</text>
</g>
<!-- 18 -->
<g id="node19" class="node">
<title>18</title>
<ellipse fill="none" stroke="black" cx="1570.55" cy="-18" rx="47.39" ry="18"/>
<text text-anchor="middle" x="1570.55" y="-14.3" font-family="Times,serif" font-size="14.00">encrave</text>
</g>
<!-- 0&#45;&gt;18 -->
<g id="edge18" class="edge">
<title>0&#45;&gt;18</title>
<path fill="none" stroke="black" d="M986.67,-104.38C1058.88,-104.87 1261.47,-102.86 1425.55,-69 1462.22,-61.43 1502.35,-47.09 1531.07,-35.71"/>
<polygon fill="black" stroke="black" points="1532.39,-38.95 1540.36,-31.97 1529.77,-32.46 1532.39,-38.95"/>
<text text-anchor="middle" x="1492.05" y="-57.8" font-family="Times,serif" font-size="14.00">dep</text>
</g>
<!-- 19 -->
<g id="node20" class="node">
<title>19</title>
<ellipse fill="none" stroke="black" cx="1700.55" cy="-18" rx="64.19" ry="18"/>
<text text-anchor="middle" x="1700.55" y="-14.3" font-family="Times,serif" font-size="14.00">muçulmano</text>
</g>
<!-- 0&#45;&gt;19 -->
<g id="edge19" class="edge">
<title>0&#45;&gt;19</title>
<path fill="none" stroke="black" d="M986.65,-104.11C1067,-104.06 1310.71,-101.05 1509.55,-69 1558.01,-61.19 1612.02,-46.47 1650.21,-35.02"/>
<polygon fill="black" stroke="black" points="1651.5,-38.28 1660.05,-32.03 1649.46,-31.59 1651.5,-38.28"/>
<text text-anchor="middle" x="1593.05" y="-57.8" font-family="Times,serif" font-size="14.00">dep</text>
</g>
<!-- 20 -->
<g id="node21" class="node">
<title>20</title>
<ellipse fill="none" stroke="black" cx="1809.55" cy="-18" rx="27" ry="18"/>
<text text-anchor="middle" x="1809.55" y="-14.3" font-family="Times,serif" font-size="14.00">de</text>
</g>
<!-- 0&#45;&gt;20 -->
<g id="edge20" class="edge">
<title>0&#45;&gt;20</title>
<path fill="none" stroke="black" d="M986.65,-103.96C1076.11,-103.51 1370,-99.65 1610.55,-69 1683.87,-59.66 1703.4,-59.28 1773.55,-36 1775.47,-35.36 1777.42,-34.65 1779.37,-33.89"/>
<polygon fill="black" stroke="black" points="1781.15,-36.93 1788.96,-29.76 1778.39,-30.5 1781.15,-36.93"/>
<text text-anchor="middle" x="1724.05" y="-57.8" font-family="Times,serif" font-size="14.00">dep</text>
</g>
<!-- 21 -->
<g id="node22" class="node">
<title>21</title>
<ellipse fill="none" stroke="black" cx="1890.55" cy="-18" rx="36.29" ry="18"/>
<text text-anchor="middle" x="1890.55" y="-14.3" font-family="Times,serif" font-size="14.00">Bihac</text>
</g>
<!-- 0&#45;&gt;21 -->
<g id="edge21" class="edge">
<title>0&#45;&gt;21</title>
<path fill="none" stroke="black" d="M986.52,-103.74C1106.45,-102.44 1591.86,-95.62 1741.55,-69 1781.37,-61.92 1825.04,-46.27 1854.74,-34.35"/>
<polygon fill="black" stroke="black" points="1856.32,-37.49 1864.25,-30.47 1853.67,-31.01 1856.32,-37.49"/>
<text text-anchor="middle" x="1814.05" y="-57.8" font-family="Times,serif" font-size="14.00">dep</text>
</g>
<!-- 22 -->
<g id="node23" class="node">
<title>22</title>
<ellipse fill="none" stroke="black" cx="1971.55" cy="-18" rx="27" ry="18"/>
<text text-anchor="middle" x="1971.55" y="-14.3" font-family="Times,serif" font-size="14.00">.</text>
</g>
<!-- 0&#45;&gt;22 -->
<g id="edge22" class="edge">
<title>0&#45;&gt;22</title>
<path fill="none" stroke="black" d="M986.57,-103.89C1114.86,-103.19 1663.29,-98.52 1831.55,-69 1879.31,-60.62 1890.41,-53.73 1935.55,-36 1937.38,-35.28 1939.25,-34.51 1941.13,-33.71"/>
<polygon fill="black" stroke="black" points="1942.73,-36.83 1950.43,-29.55 1939.88,-30.44 1942.73,-36.83"/>
<text text-anchor="middle" x="1904.05" y="-57.8" font-family="Times,serif" font-size="14.00">dep</text>
</g>
</g>
</svg>
