<?xml version="1.0" encoding="UTF-8" standalone="no"?>
<!DOCTYPE svg PUBLIC "-//W3C//DTD SVG 1.1//EN"
 "http://www.w3.org/Graphics/SVG/1.1/DTD/svg11.dtd">
<!-- Generated by graphviz version 2.42.4 (0)
 -->
<!-- Pages: 1 -->
<svg width="611pt" height="131pt"
 viewBox="0.00 0.00 611.50 131.00" xmlns="http://www.w3.org/2000/svg" xmlns:xlink="http://www.w3.org/1999/xlink">
<g id="graph0" class="graph" transform="scale(1 1) rotate(0) translate(4 127)">
<polygon fill="white" stroke="transparent" points="-4,4 -4,-127 607.5,-127 607.5,4 -4,4"/>
<!-- 0 -->
<g id="node1" class="node">
<title>0</title>
<ellipse fill="none" stroke="black" cx="323.5" cy="-105" rx="37.09" ry="18"/>
<text text-anchor="middle" x="323.5" y="-101.3" font-family="Times,serif" font-size="14.00">Roma</text>
</g>
<!-- 1 -->
<g id="node2" class="node">
<title>1</title>
<ellipse fill="none" stroke="black" cx="45.5" cy="-18" rx="45.49" ry="18"/>
<text text-anchor="middle" x="45.5" y="-14.3" font-family="Times,serif" font-size="14.00">derrota</text>
</g>
<!-- 0&#45;&gt;1 -->
<g id="edge1" class="edge">
<title>0&#45;&gt;1</title>
<path fill="none" stroke="black" d="M290.07,-97.15C260.47,-90.8 216.25,-80.6 178.5,-69 146.72,-59.23 111.53,-45.89 85.34,-35.44"/>
<polygon fill="black" stroke="black" points="86.35,-32.08 75.77,-31.6 83.74,-38.57 86.35,-32.08"/>
<text text-anchor="middle" x="192" y="-57.8" font-family="Times,serif" font-size="14.00">dep</text>
</g>
<!-- 2 -->
<g id="node3" class="node">
<title>2</title>
<ellipse fill="none" stroke="black" cx="144.5" cy="-18" rx="35.19" ry="18"/>
<text text-anchor="middle" x="144.5" y="-14.3" font-family="Times,serif" font-size="14.00">Lazio</text>
</g>
<!-- 0&#45;&gt;2 -->
<g id="edge2" class="edge">
<title>0&#45;&gt;2</title>
<path fill="none" stroke="black" d="M294.89,-93.24C278,-86.67 256.31,-77.86 237.5,-69 216.59,-59.16 193.73,-46.89 175.9,-36.97"/>
<polygon fill="black" stroke="black" points="177.51,-33.86 167.08,-32.02 174.09,-39.96 177.51,-33.86"/>
<text text-anchor="middle" x="251" y="-57.8" font-family="Times,serif" font-size="14.00">dep</text>
</g>
<!-- 3 -->
<g id="node4" class="node">
<title>3</title>
<ellipse fill="none" stroke="black" cx="224.5" cy="-18" rx="27" ry="18"/>
<text text-anchor="middle" x="224.5" y="-14.3" font-family="Times,serif" font-size="14.00">e</text>
</g>
<!-- 0&#45;&gt;3 -->
<g id="edge3" class="edge">
<title>0&#45;&gt;3</title>
<path fill="none" stroke="black" d="M305.8,-88.8C289.69,-74.97 265.79,-54.45 248.06,-39.24"/>
<polygon fill="black" stroke="black" points="250.27,-36.52 240.41,-32.66 245.71,-41.83 250.27,-36.52"/>
<text text-anchor="middle" x="294" y="-57.8" font-family="Times,serif" font-size="14.00">dep</text>
</g>
<!-- 4 -->
<g id="node5" class="node">
<title>4</title>
<ellipse fill="none" stroke="black" cx="323.5" cy="-18" rx="53.89" ry="18"/>
<text text-anchor="middle" x="323.5" y="-14.3" font-family="Times,serif" font-size="14.00">Batistuta</text>
</g>
<!-- 0&#45;&gt;4 -->
<g id="edge4" class="edge">
<title>0&#45;&gt;4</title>
<path fill="none" stroke="black" d="M323.5,-86.8C323.5,-75.16 323.5,-59.55 323.5,-46.24"/>
<polygon fill="black" stroke="black" points="327,-46.18 323.5,-36.18 320,-46.18 327,-46.18"/>
<text text-anchor="middle" x="337" y="-57.8" font-family="Times,serif" font-size="14.00">dep</text>
</g>
<!-- 5 -->
<g id="node6" class="node">
<title>5</title>
<ellipse fill="none" stroke="black" cx="422.5" cy="-18" rx="27" ry="18"/>
<text text-anchor="middle" x="422.5" y="-14.3" font-family="Times,serif" font-size="14.00">faz</text>
</g>
<!-- 0&#45;&gt;5 -->
<g id="edge5" class="edge">
<title>0&#45;&gt;5</title>
<path fill="none" stroke="black" d="M341.2,-88.8C357.3,-74.97 381.21,-54.45 398.93,-39.24"/>
<polygon fill="black" stroke="black" points="401.28,-41.83 406.58,-32.66 396.72,-36.52 401.28,-41.83"/>
<text text-anchor="middle" x="393" y="-57.8" font-family="Times,serif" font-size="14.00">dep</text>
</g>
<!-- 6 -->
<g id="node7" class="node">
<title>6</title>
<ellipse fill="none" stroke="black" cx="499.5" cy="-18" rx="32.49" ry="18"/>
<text text-anchor="middle" x="499.5" y="-14.3" font-family="Times,serif" font-size="14.00">mais</text>
</g>
<!-- 0&#45;&gt;6 -->
<g id="edge6" class="edge">
<title>0&#45;&gt;6</title>
<path fill="none" stroke="black" d="M352.11,-93.56C369.28,-87.03 391.41,-78.15 410.5,-69 430.59,-59.37 452.41,-47.14 469.42,-37.18"/>
<polygon fill="black" stroke="black" points="471.5,-40.02 478.33,-31.92 467.94,-33.99 471.5,-40.02"/>
<text text-anchor="middle" x="452" y="-57.8" font-family="Times,serif" font-size="14.00">dep</text>
</g>
<!-- 7 -->
<g id="node8" class="node">
<title>7</title>
<ellipse fill="none" stroke="black" cx="576.5" cy="-18" rx="27" ry="18"/>
<text text-anchor="middle" x="576.5" y="-14.3" font-family="Times,serif" font-size="14.00">um</text>
</g>
<!-- 0&#45;&gt;7 -->
<g id="edge7" class="edge">
<title>0&#45;&gt;7</title>
<path fill="none" stroke="black" d="M357.68,-97.82C387.63,-91.93 432.08,-82.03 469.5,-69 502.36,-57.55 508.99,-50.76 540.5,-36 542.28,-35.16 544.11,-34.3 545.96,-33.43"/>
<polygon fill="black" stroke="black" points="547.63,-36.52 555.19,-29.09 544.65,-30.18 547.63,-36.52"/>
<text text-anchor="middle" x="518" y="-57.8" font-family="Times,serif" font-size="14.00">dep</text>
</g>
</g>
</svg>
