<?xml version="1.0" encoding="UTF-8" standalone="no"?>
<!DOCTYPE svg PUBLIC "-//W3C//DTD SVG 1.1//EN"
 "http://www.w3.org/Graphics/SVG/1.1/DTD/svg11.dtd">
<!-- Generated by graphviz version 2.42.4 (0)
 -->
<!-- Pages: 1 -->
<svg width="1812pt" height="131pt"
 viewBox="0.00 0.00 1812.00 131.00" xmlns="http://www.w3.org/2000/svg" xmlns:xlink="http://www.w3.org/1999/xlink">
<g id="graph0" class="graph" transform="scale(1 1) rotate(0) translate(4 127)">
<polygon fill="white" stroke="transparent" points="-4,4 -4,-127 1808,-127 1808,4 -4,4"/>
<!-- 0 -->
<g id="node1" class="node">
<title>0</title>
<ellipse fill="none" stroke="black" cx="911" cy="-105" rx="27" ry="18"/>
<text text-anchor="middle" x="911" y="-101.3" font-family="Times,serif" font-size="14.00">E</text>
</g>
<!-- 1 -->
<g id="node2" class="node">
<title>1</title>
<ellipse fill="none" stroke="black" cx="27" cy="-18" rx="27" ry="18"/>
<text text-anchor="middle" x="27" y="-14.3" font-family="Times,serif" font-size="14.00">é</text>
</g>
<!-- 0&#45;&gt;1 -->
<g id="edge1" class="edge">
<title>0&#45;&gt;1</title>
<path fill="none" stroke="black" d="M883.97,-103.51C769.12,-101.29 321.18,-91.35 182,-69 127.81,-60.3 114.45,-55.12 63,-36 61.15,-35.31 59.27,-34.57 57.39,-33.79"/>
<polygon fill="black" stroke="black" points="58.62,-30.51 48.06,-29.68 55.8,-36.92 58.62,-30.51"/>
<text text-anchor="middle" x="195.5" y="-57.8" font-family="Times,serif" font-size="14.00">dep</text>
</g>
<!-- 2 -->
<g id="node3" class="node">
<title>2</title>
<ellipse fill="none" stroke="black" cx="120" cy="-18" rx="48.19" ry="18"/>
<text text-anchor="middle" x="120" y="-14.3" font-family="Times,serif" font-size="14.00">possível</text>
</g>
<!-- 0&#45;&gt;2 -->
<g id="edge2" class="edge">
<title>0&#45;&gt;2</title>
<path fill="none" stroke="black" d="M883.83,-103.53C777.08,-101.54 386.39,-92.74 265,-69 228.26,-61.82 188.13,-47.44 159.43,-35.94"/>
<polygon fill="black" stroke="black" points="160.73,-32.69 150.15,-32.16 158.09,-39.18 160.73,-32.69"/>
<text text-anchor="middle" x="278.5" y="-57.8" font-family="Times,serif" font-size="14.00">dep</text>
</g>
<!-- 3 -->
<g id="node4" class="node">
<title>3</title>
<ellipse fill="none" stroke="black" cx="214" cy="-18" rx="27.9" ry="18"/>
<text text-anchor="middle" x="214" y="-14.3" font-family="Times,serif" font-size="14.00">que</text>
</g>
<!-- 0&#45;&gt;3 -->
<g id="edge3" class="edge">
<title>0&#45;&gt;3</title>
<path fill="none" stroke="black" d="M884.06,-103.27C786.59,-100.5 452.6,-89.66 348,-69 311.33,-61.76 271.46,-45.75 244.83,-33.78"/>
<polygon fill="black" stroke="black" points="246.2,-30.56 235.65,-29.58 243.28,-36.92 246.2,-30.56"/>
<text text-anchor="middle" x="361.5" y="-57.8" font-family="Times,serif" font-size="14.00">dep</text>
</g>
<!-- 4 -->
<g id="node5" class="node">
<title>4</title>
<ellipse fill="none" stroke="black" cx="287" cy="-18" rx="27" ry="18"/>
<text text-anchor="middle" x="287" y="-14.3" font-family="Times,serif" font-size="14.00">o</text>
</g>
<!-- 0&#45;&gt;4 -->
<g id="edge4" class="edge">
<title>0&#45;&gt;4</title>
<path fill="none" stroke="black" d="M883.91,-103.68C812.26,-102.45 611.95,-96.6 448,-69 391.34,-59.46 376.98,-55.68 323,-36 321.15,-35.33 319.26,-34.59 317.38,-33.82"/>
<polygon fill="black" stroke="black" points="318.61,-30.54 308.05,-29.73 315.8,-36.95 318.61,-30.54"/>
<text text-anchor="middle" x="461.5" y="-57.8" font-family="Times,serif" font-size="14.00">dep</text>
</g>
<!-- 5 -->
<g id="node6" class="node">
<title>5</title>
<ellipse fill="none" stroke="black" cx="382" cy="-18" rx="50.09" ry="18"/>
<text text-anchor="middle" x="382" y="-14.3" font-family="Times,serif" font-size="14.00">material</text>
</g>
<!-- 0&#45;&gt;5 -->
<g id="edge5" class="edge">
<title>0&#45;&gt;5</title>
<path fill="none" stroke="black" d="M883.64,-103.59C820.95,-102.19 662.35,-96.03 533,-69 495.24,-61.11 453.72,-46.94 423.79,-35.69"/>
<polygon fill="black" stroke="black" points="424.7,-32.29 414.11,-32.01 422.21,-38.84 424.7,-32.29"/>
<text text-anchor="middle" x="546.5" y="-57.8" font-family="Times,serif" font-size="14.00">dep</text>
</g>
<!-- 6 -->
<g id="node7" class="node">
<title>6</title>
<ellipse fill="none" stroke="black" cx="478" cy="-18" rx="27.9" ry="18"/>
<text text-anchor="middle" x="478" y="-14.3" font-family="Times,serif" font-size="14.00">que</text>
</g>
<!-- 0&#45;&gt;6 -->
<g id="edge6" class="edge">
<title>0&#45;&gt;6</title>
<path fill="none" stroke="black" d="M883.95,-102.54C831.8,-99.34 713.91,-90.23 617,-69 570.46,-58.8 559.39,-53.31 515,-36 513.12,-35.27 511.21,-34.49 509.28,-33.68"/>
<polygon fill="black" stroke="black" points="510.29,-30.3 499.73,-29.5 507.49,-36.72 510.29,-30.3"/>
<text text-anchor="middle" x="630.5" y="-57.8" font-family="Times,serif" font-size="14.00">dep</text>
</g>
<!-- 7 -->
<g id="node8" class="node">
<title>7</title>
<ellipse fill="none" stroke="black" cx="551" cy="-18" rx="27" ry="18"/>
<text text-anchor="middle" x="551" y="-14.3" font-family="Times,serif" font-size="14.00">as</text>
</g>
<!-- 0&#45;&gt;7 -->
<g id="edge7" class="edge">
<title>0&#45;&gt;7</title>
<path fill="none" stroke="black" d="M884.19,-101.19C827.7,-94.67 692.96,-75.92 587,-36 585.16,-35.31 583.28,-34.55 581.39,-33.77"/>
<polygon fill="black" stroke="black" points="582.64,-30.49 572.07,-29.65 579.8,-36.89 582.64,-30.49"/>
<text text-anchor="middle" x="705.5" y="-57.8" font-family="Times,serif" font-size="14.00">dep</text>
</g>
<!-- 8 -->
<g id="node9" class="node">
<title>8</title>
<ellipse fill="none" stroke="black" cx="642" cy="-18" rx="46.29" ry="18"/>
<text text-anchor="middle" x="642" y="-14.3" font-family="Times,serif" font-size="14.00">compõe</text>
</g>
<!-- 0&#45;&gt;8 -->
<g id="edge8" class="edge">
<title>0&#45;&gt;8</title>
<path fill="none" stroke="black" d="M885.63,-98.58C857.57,-92.36 811.14,-81.41 772,-69 741.14,-59.22 706.99,-45.99 681.45,-35.6"/>
<polygon fill="black" stroke="black" points="682.68,-32.32 672.1,-31.77 680.03,-38.8 682.68,-32.32"/>
<text text-anchor="middle" x="785.5" y="-57.8" font-family="Times,serif" font-size="14.00">dep</text>
</g>
<!-- 9 -->
<g id="node10" class="node">
<title>9</title>
<ellipse fill="none" stroke="black" cx="735" cy="-18" rx="29.5" ry="18"/>
<text text-anchor="middle" x="735" y="-14.3" font-family="Times,serif" font-size="14.00">seja</text>
</g>
<!-- 0&#45;&gt;9 -->
<g id="edge9" class="edge">
<title>0&#45;&gt;9</title>
<path fill="none" stroke="black" d="M888.71,-94.54C872.79,-87.69 850.94,-78.07 832,-69 809.49,-58.22 784.46,-45.3 765.46,-35.29"/>
<polygon fill="black" stroke="black" points="766.87,-32.07 756.39,-30.49 763.59,-38.26 766.87,-32.07"/>
<text text-anchor="middle" x="845.5" y="-57.8" font-family="Times,serif" font-size="14.00">dep</text>
</g>
<!-- 10 -->
<g id="node11" class="node">
<title>10</title>
<ellipse fill="none" stroke="black" cx="824" cy="-18" rx="41.69" ry="18"/>
<text text-anchor="middle" x="824" y="-14.3" font-family="Times,serif" font-size="14.00">aquele</text>
</g>
<!-- 0&#45;&gt;10 -->
<g id="edge10" class="edge">
<title>0&#45;&gt;10</title>
<path fill="none" stroke="black" d="M896.24,-89.58C882.83,-76.47 862.81,-56.92 847.25,-41.71"/>
<polygon fill="black" stroke="black" points="849.61,-39.13 840.01,-34.64 844.72,-44.14 849.61,-39.13"/>
<text text-anchor="middle" x="886.5" y="-57.8" font-family="Times,serif" font-size="14.00">dep</text>
</g>
<!-- 11 -->
<g id="node12" class="node">
<title>11</title>
<ellipse fill="none" stroke="black" cx="911" cy="-18" rx="27" ry="18"/>
<text text-anchor="middle" x="911" y="-14.3" font-family="Times,serif" font-size="14.00">de</text>
</g>
<!-- 0&#45;&gt;11 -->
<g id="edge11" class="edge">
<title>0&#45;&gt;11</title>
<path fill="none" stroke="black" d="M911,-86.8C911,-75.16 911,-59.55 911,-46.24"/>
<polygon fill="black" stroke="black" points="914.5,-46.18 911,-36.18 907.5,-46.18 914.5,-46.18"/>
<text text-anchor="middle" x="924.5" y="-57.8" font-family="Times,serif" font-size="14.00">dep</text>
</g>
<!-- 12 -->
<g id="node13" class="node">
<title>12</title>
<ellipse fill="none" stroke="black" cx="984" cy="-18" rx="27.9" ry="18"/>
<text text-anchor="middle" x="984" y="-14.3" font-family="Times,serif" font-size="14.00">que</text>
</g>
<!-- 0&#45;&gt;12 -->
<g id="edge12" class="edge">
<title>0&#45;&gt;12</title>
<path fill="none" stroke="black" d="M924.36,-89.09C929.86,-82.9 936.27,-75.64 942,-69 949.52,-60.28 957.68,-50.61 964.79,-42.12"/>
<polygon fill="black" stroke="black" points="967.51,-44.33 971.24,-34.41 962.14,-39.84 967.51,-44.33"/>
<text text-anchor="middle" x="967.5" y="-57.8" font-family="Times,serif" font-size="14.00">dep</text>
</g>
<!-- 13 -->
<g id="node14" class="node">
<title>13</title>
<ellipse fill="none" stroke="black" cx="1057" cy="-18" rx="27" ry="18"/>
<text text-anchor="middle" x="1057" y="-14.3" font-family="Times,serif" font-size="14.00">era</text>
</g>
<!-- 0&#45;&gt;13 -->
<g id="edge13" class="edge">
<title>0&#45;&gt;13</title>
<path fill="none" stroke="black" d="M933.18,-94.66C948.14,-88.09 968.15,-78.75 985,-69 1000.99,-59.75 1018.01,-48.03 1031.48,-38.26"/>
<polygon fill="black" stroke="black" points="1033.79,-40.91 1039.78,-32.17 1029.65,-35.27 1033.79,-40.91"/>
<text text-anchor="middle" x="1021.5" y="-57.8" font-family="Times,serif" font-size="14.00">dep</text>
</g>
<!-- 14 -->
<g id="node15" class="node">
<title>14</title>
<ellipse fill="none" stroke="black" cx="1134" cy="-18" rx="31.7" ry="18"/>
<text text-anchor="middle" x="1134" y="-14.3" font-family="Times,serif" font-size="14.00">feito</text>
</g>
<!-- 0&#45;&gt;14 -->
<g id="edge14" class="edge">
<title>0&#45;&gt;14</title>
<path fill="none" stroke="black" d="M936.54,-98.74C962.76,-92.94 1004.5,-82.61 1039,-69 1061.69,-60.05 1086.01,-47.18 1104.37,-36.74"/>
<polygon fill="black" stroke="black" points="1106.21,-39.72 1113.12,-31.69 1102.71,-33.66 1106.21,-39.72"/>
<text text-anchor="middle" x="1085.5" y="-57.8" font-family="Times,serif" font-size="14.00">dep</text>
</g>
<!-- 15 -->
<g id="node16" class="node">
<title>15</title>
<ellipse fill="none" stroke="black" cx="1211" cy="-18" rx="27" ry="18"/>
<text text-anchor="middle" x="1211" y="-14.3" font-family="Times,serif" font-size="14.00">o</text>
</g>
<!-- 0&#45;&gt;15 -->
<g id="edge15" class="edge">
<title>0&#45;&gt;15</title>
<path fill="none" stroke="black" d="M937.59,-101.28C975.12,-96.96 1045.47,-87.11 1103,-69 1136.58,-58.43 1143.08,-50.85 1175,-36 1176.79,-35.17 1178.62,-34.31 1180.47,-33.45"/>
<polygon fill="black" stroke="black" points="1182.14,-36.53 1189.7,-29.11 1179.16,-30.2 1182.14,-36.53"/>
<text text-anchor="middle" x="1153.5" y="-57.8" font-family="Times,serif" font-size="14.00">dep</text>
</g>
<!-- 16 -->
<g id="node17" class="node">
<title>16</title>
<ellipse fill="none" stroke="black" cx="1314" cy="-18" rx="57.69" ry="18"/>
<text text-anchor="middle" x="1314" y="-14.3" font-family="Times,serif" font-size="14.00">recipiente</text>
</g>
<!-- 0&#45;&gt;16 -->
<g id="edge16" class="edge">
<title>0&#45;&gt;16</title>
<path fill="none" stroke="black" d="M937.9,-102.18C985.47,-98.57 1087.29,-89.05 1171,-69 1205.43,-60.75 1243.2,-47.35 1271.27,-36.5"/>
<polygon fill="black" stroke="black" points="1272.73,-39.68 1280.77,-32.78 1270.18,-33.16 1272.73,-39.68"/>
<text text-anchor="middle" x="1232.5" y="-57.8" font-family="Times,serif" font-size="14.00">dep</text>
</g>
<!-- 17 -->
<g id="node18" class="node">
<title>17</title>
<ellipse fill="none" stroke="black" cx="1418" cy="-18" rx="27.9" ry="18"/>
<text text-anchor="middle" x="1418" y="-14.3" font-family="Times,serif" font-size="14.00">que</text>
</g>
<!-- 0&#45;&gt;17 -->
<g id="edge17" class="edge">
<title>0&#45;&gt;17</title>
<path fill="none" stroke="black" d="M937.99,-102.54C995.64,-99.12 1134.93,-89.33 1250,-69 1309.13,-58.56 1324.37,-55.95 1381,-36 1382.9,-35.33 1384.84,-34.6 1386.78,-33.83"/>
<polygon fill="black" stroke="black" points="1388.53,-36.88 1396.36,-29.75 1385.79,-30.44 1388.53,-36.88"/>
<text text-anchor="middle" x="1337.5" y="-57.8" font-family="Times,serif" font-size="14.00">dep</text>
</g>
<!-- 18 -->
<g id="node19" class="node">
<title>18</title>
<ellipse fill="none" stroke="black" cx="1511" cy="-18" rx="46.59" ry="18"/>
<text text-anchor="middle" x="1511" y="-14.3" font-family="Times,serif" font-size="14.00">conteve</text>
</g>
<!-- 0&#45;&gt;18 -->
<g id="edge18" class="edge">
<title>0&#45;&gt;18</title>
<path fill="none" stroke="black" d="M938.07,-104.03C1007.85,-103.66 1199.29,-99.66 1355,-69 1394.91,-61.14 1438.92,-46.46 1469.99,-35.03"/>
<polygon fill="black" stroke="black" points="1471.45,-38.22 1479.6,-31.44 1469.01,-31.66 1471.45,-38.22"/>
<text text-anchor="middle" x="1425.5" y="-57.8" font-family="Times,serif" font-size="14.00">dep</text>
</g>
<!-- 19 -->
<g id="node20" class="node">
<title>19</title>
<ellipse fill="none" stroke="black" cx="1603" cy="-18" rx="27" ry="18"/>
<text text-anchor="middle" x="1603" y="-14.3" font-family="Times,serif" font-size="14.00">a</text>
</g>
<!-- 0&#45;&gt;19 -->
<g id="edge19" class="edge">
<title>0&#45;&gt;19</title>
<path fill="none" stroke="black" d="M938.06,-104.07C1016.64,-103.87 1251.42,-100.49 1443,-69 1499.27,-59.75 1513.44,-55.59 1567,-36 1568.85,-35.32 1570.73,-34.59 1572.62,-33.81"/>
<polygon fill="black" stroke="black" points="1574.2,-36.94 1581.95,-29.72 1571.39,-30.53 1574.2,-36.94"/>
<text text-anchor="middle" x="1528.5" y="-57.8" font-family="Times,serif" font-size="14.00">dep</text>
</g>
<!-- 20 -->
<g id="node21" class="node">
<title>20</title>
<ellipse fill="none" stroke="black" cx="1690" cy="-18" rx="42.49" ry="18"/>
<text text-anchor="middle" x="1690" y="-14.3" font-family="Times,serif" font-size="14.00">bomba</text>
</g>
<!-- 0&#45;&gt;20 -->
<g id="edge20" class="edge">
<title>0&#45;&gt;20</title>
<path fill="none" stroke="black" d="M938.07,-103.51C1043.52,-101.45 1426.84,-92.49 1546,-69 1583.05,-61.7 1623.53,-47 1652.11,-35.43"/>
<polygon fill="black" stroke="black" points="1653.78,-38.52 1661.7,-31.48 1651.12,-32.05 1653.78,-38.52"/>
<text text-anchor="middle" x="1612.5" y="-57.8" font-family="Times,serif" font-size="14.00">dep</text>
</g>
<!-- 21 -->
<g id="node22" class="node">
<title>21</title>
<ellipse fill="none" stroke="black" cx="1777" cy="-18" rx="27" ry="18"/>
<text text-anchor="middle" x="1777" y="-14.3" font-family="Times,serif" font-size="14.00">.</text>
</g>
<!-- 0&#45;&gt;21 -->
<g id="edge21" class="edge">
<title>0&#45;&gt;21</title>
<path fill="none" stroke="black" d="M938.06,-103.55C1051.99,-101.53 1493.1,-92.33 1630,-69 1680.74,-60.35 1692.92,-54.37 1741,-36 1742.84,-35.3 1744.72,-34.54 1746.6,-33.75"/>
<polygon fill="black" stroke="black" points="1748.19,-36.87 1755.91,-29.61 1745.35,-30.47 1748.19,-36.87"/>
<text text-anchor="middle" x="1706.5" y="-57.8" font-family="Times,serif" font-size="14.00">dep</text>
</g>
</g>
</svg>
