<?xml version="1.0" encoding="UTF-8" standalone="no"?>
<!DOCTYPE svg PUBLIC "-//W3C//DTD SVG 1.1//EN"
 "http://www.w3.org/Graphics/SVG/1.1/DTD/svg11.dtd">
<!-- Generated by graphviz version 2.42.4 (0)
 -->
<!-- Pages: 1 -->
<svg width="990pt" height="131pt"
 viewBox="0.00 0.00 990.25 131.00" xmlns="http://www.w3.org/2000/svg" xmlns:xlink="http://www.w3.org/1999/xlink">
<g id="graph0" class="graph" transform="scale(1 1) rotate(0) translate(4 127)">
<polygon fill="white" stroke="transparent" points="-4,4 -4,-127 986.25,-127 986.25,4 -4,4"/>
<!-- 0 -->
<g id="node1" class="node">
<title>0</title>
<ellipse fill="none" stroke="black" cx="479.25" cy="-105" rx="27" ry="18"/>
<text text-anchor="middle" x="479.25" y="-101.3" font-family="Times,serif" font-size="14.00">«</text>
</g>
<!-- 1 -->
<g id="node2" class="node">
<title>1</title>
<ellipse fill="none" stroke="black" cx="29.25" cy="-18" rx="29.5" ry="18"/>
<text text-anchor="middle" x="29.25" y="-14.3" font-family="Times,serif" font-size="14.00">Não</text>
</g>
<!-- 0&#45;&gt;1 -->
<g id="edge1" class="edge">
<title>0&#45;&gt;1</title>
<path fill="none" stroke="black" d="M452.24,-102.51C398.98,-99.2 276.84,-89.86 176.25,-69 126.69,-58.72 114.67,-53.7 67.25,-36 65.37,-35.3 63.45,-34.55 61.52,-33.77"/>
<polygon fill="black" stroke="black" points="62.53,-30.4 51.96,-29.72 59.81,-36.84 62.53,-30.4"/>
<text text-anchor="middle" x="189.75" y="-57.8" font-family="Times,serif" font-size="14.00">dep</text>
</g>
<!-- 2 -->
<g id="node3" class="node">
<title>2</title>
<ellipse fill="none" stroke="black" cx="106.25" cy="-18" rx="29.8" ry="18"/>
<text text-anchor="middle" x="106.25" y="-14.3" font-family="Times,serif" font-size="14.00">faço</text>
</g>
<!-- 0&#45;&gt;2 -->
<g id="edge2" class="edge">
<title>0&#45;&gt;2</title>
<path fill="none" stroke="black" d="M452.58,-100.93C395.06,-93.82 255.5,-73.82 144.25,-36 142.35,-35.35 140.41,-34.65 138.48,-33.9"/>
<polygon fill="black" stroke="black" points="139.46,-30.52 128.88,-29.95 136.79,-37 139.46,-30.52"/>
<text text-anchor="middle" x="275.75" y="-57.8" font-family="Times,serif" font-size="14.00">dep</text>
</g>
<!-- 3 -->
<g id="node4" class="node">
<title>3</title>
<ellipse fill="none" stroke="black" cx="221.25" cy="-18" rx="67.69" ry="18"/>
<text text-anchor="middle" x="221.25" y="-14.3" font-family="Times,serif" font-size="14.00">comentários</text>
</g>
<!-- 0&#45;&gt;3 -->
<g id="edge3" class="edge">
<title>0&#45;&gt;3</title>
<path fill="none" stroke="black" d="M454.42,-97.82C428.86,-91.29 387.98,-80.38 353.25,-69 323.82,-59.36 291.28,-47.06 265.88,-37.07"/>
<polygon fill="black" stroke="black" points="267.1,-33.78 256.51,-33.36 264.52,-40.29 267.1,-33.78"/>
<text text-anchor="middle" x="366.75" y="-57.8" font-family="Times,serif" font-size="14.00">dep</text>
</g>
<!-- 4 -->
<g id="node5" class="node">
<title>4</title>
<ellipse fill="none" stroke="black" cx="334.25" cy="-18" rx="27" ry="18"/>
<text text-anchor="middle" x="334.25" y="-14.3" font-family="Times,serif" font-size="14.00">,</text>
</g>
<!-- 0&#45;&gt;4 -->
<g id="edge4" class="edge">
<title>0&#45;&gt;4</title>
<path fill="none" stroke="black" d="M457.06,-94.48C442.34,-87.89 422.77,-78.61 406.25,-69 390.28,-59.71 373.26,-47.98 359.78,-38.22"/>
<polygon fill="black" stroke="black" points="361.62,-35.23 351.48,-32.14 357.48,-40.87 361.62,-35.23"/>
<text text-anchor="middle" x="419.75" y="-57.8" font-family="Times,serif" font-size="14.00">dep</text>
</g>
<!-- 5 -->
<g id="node6" class="node">
<title>5</title>
<ellipse fill="none" stroke="black" cx="406.25" cy="-18" rx="27.1" ry="18"/>
<text text-anchor="middle" x="406.25" y="-14.3" font-family="Times,serif" font-size="14.00">não</text>
</g>
<!-- 0&#45;&gt;5 -->
<g id="edge5" class="edge">
<title>0&#45;&gt;5</title>
<path fill="none" stroke="black" d="M465.89,-89.09C460.39,-82.9 453.97,-75.64 448.25,-69 440.73,-60.28 432.57,-50.61 425.45,-42.12"/>
<polygon fill="black" stroke="black" points="428.11,-39.84 419.01,-34.41 422.73,-44.33 428.11,-39.84"/>
<text text-anchor="middle" x="461.75" y="-57.8" font-family="Times,serif" font-size="14.00">dep</text>
</g>
<!-- 6 -->
<g id="node7" class="node">
<title>6</title>
<ellipse fill="none" stroke="black" cx="479.25" cy="-18" rx="27.1" ry="18"/>
<text text-anchor="middle" x="479.25" y="-14.3" font-family="Times,serif" font-size="14.00">vou</text>
</g>
<!-- 0&#45;&gt;6 -->
<g id="edge6" class="edge">
<title>0&#45;&gt;6</title>
<path fill="none" stroke="black" d="M479.25,-86.8C479.25,-75.16 479.25,-59.55 479.25,-46.24"/>
<polygon fill="black" stroke="black" points="482.75,-46.18 479.25,-36.18 475.75,-46.18 482.75,-46.18"/>
<text text-anchor="middle" x="492.75" y="-57.8" font-family="Times,serif" font-size="14.00">dep</text>
</g>
<!-- 7 -->
<g id="node8" class="node">
<title>7</title>
<ellipse fill="none" stroke="black" cx="580.25" cy="-18" rx="55.79" ry="18"/>
<text text-anchor="middle" x="580.25" y="-14.3" font-family="Times,serif" font-size="14.00">alimentar</text>
</g>
<!-- 0&#45;&gt;7 -->
<g id="edge7" class="edge">
<title>0&#45;&gt;7</title>
<path fill="none" stroke="black" d="M495.47,-90.34C511.05,-77.24 534.85,-57.21 553.27,-41.7"/>
<polygon fill="black" stroke="black" points="555.91,-44.06 561.31,-34.94 551.4,-38.7 555.91,-44.06"/>
<text text-anchor="middle" x="549.75" y="-57.8" font-family="Times,serif" font-size="14.00">dep</text>
</g>
<!-- 8 -->
<g id="node9" class="node">
<title>8</title>
<ellipse fill="none" stroke="black" cx="685.25" cy="-18" rx="31.4" ry="18"/>
<text text-anchor="middle" x="685.25" y="-14.3" font-family="Times,serif" font-size="14.00">essa</text>
</g>
<!-- 0&#45;&gt;8 -->
<g id="edge8" class="edge">
<title>0&#45;&gt;8</title>
<path fill="none" stroke="black" d="M502.09,-95.07C519.89,-88.08 545.19,-78.05 567.25,-69 602.07,-54.71 610.59,-50.69 645.25,-36 647.28,-35.14 649.37,-34.25 651.48,-33.36"/>
<polygon fill="black" stroke="black" points="652.88,-36.57 660.71,-29.44 650.14,-30.12 652.88,-36.57"/>
<text text-anchor="middle" x="616.75" y="-57.8" font-family="Times,serif" font-size="14.00">dep</text>
</g>
<!-- 9 -->
<g id="node10" class="node">
<title>9</title>
<ellipse fill="none" stroke="black" cx="786.25" cy="-18" rx="51.99" ry="18"/>
<text text-anchor="middle" x="786.25" y="-14.3" font-family="Times,serif" font-size="14.00">polémica</text>
</g>
<!-- 0&#45;&gt;9 -->
<g id="edge9" class="edge">
<title>0&#45;&gt;9</title>
<path fill="none" stroke="black" d="M504.94,-98.98C535.84,-92.77 589.18,-81.47 634.25,-69 670.81,-58.88 711.62,-45.33 741.74,-34.89"/>
<polygon fill="black" stroke="black" points="743.23,-38.07 751.52,-31.48 740.93,-31.47 743.23,-38.07"/>
<text text-anchor="middle" x="694.75" y="-57.8" font-family="Times,serif" font-size="14.00">dep</text>
</g>
<!-- 10 -->
<g id="node11" class="node">
<title>10</title>
<ellipse fill="none" stroke="black" cx="883.25" cy="-18" rx="27" ry="18"/>
<text text-anchor="middle" x="883.25" y="-14.3" font-family="Times,serif" font-size="14.00">.</text>
</g>
<!-- 0&#45;&gt;10 -->
<g id="edge10" class="edge">
<title>0&#45;&gt;10</title>
<path fill="none" stroke="black" d="M506.32,-101.93C568.27,-96.57 724.46,-79.5 847.25,-36 849.15,-35.32 851.09,-34.58 853.04,-33.8"/>
<polygon fill="black" stroke="black" points="854.84,-36.83 862.61,-29.62 852.04,-30.41 854.84,-36.83"/>
<text text-anchor="middle" x="802.75" y="-57.8" font-family="Times,serif" font-size="14.00">dep</text>
</g>
<!-- 11 -->
<g id="node12" class="node">
<title>11</title>
<ellipse fill="none" stroke="black" cx="955.25" cy="-18" rx="27" ry="18"/>
<text text-anchor="middle" x="955.25" y="-14.3" font-family="Times,serif" font-size="14.00">»</text>
</g>
<!-- 0&#45;&gt;11 -->
<g id="edge11" class="edge">
<title>0&#45;&gt;11</title>
<path fill="none" stroke="black" d="M506.53,-103.23C564.77,-101.14 705.34,-93.73 820.25,-69 865.59,-59.24 876.2,-53.27 919.25,-36 921.08,-35.27 922.94,-34.49 924.82,-33.68"/>
<polygon fill="black" stroke="black" points="926.43,-36.79 934.11,-29.49 923.56,-30.41 926.43,-36.79"/>
<text text-anchor="middle" x="887.75" y="-57.8" font-family="Times,serif" font-size="14.00">dep</text>
</g>
</g>
</svg>
