<?xml version="1.0" encoding="UTF-8" standalone="no"?>
<!DOCTYPE svg PUBLIC "-//W3C//DTD SVG 1.1//EN"
 "http://www.w3.org/Graphics/SVG/1.1/DTD/svg11.dtd">
<!-- Generated by graphviz version 2.42.4 (0)
 -->
<!-- Pages: 1 -->
<svg width="425pt" height="131pt"
 viewBox="0.00 0.00 425.49 131.00" xmlns="http://www.w3.org/2000/svg" xmlns:xlink="http://www.w3.org/1999/xlink">
<g id="graph0" class="graph" transform="scale(1 1) rotate(0) translate(4 127)">
<polygon fill="white" stroke="transparent" points="-4,4 -4,-127 421.49,-127 421.49,4 -4,4"/>
<!-- 0 -->
<g id="node1" class="node">
<title>0</title>
<ellipse fill="none" stroke="black" cx="199.15" cy="-105" rx="37.09" ry="18"/>
<text text-anchor="middle" x="199.15" y="-101.3" font-family="Times,serif" font-size="14.00">Filme</text>
</g>
<!-- 1 -->
<g id="node2" class="node">
<title>1</title>
<ellipse fill="none" stroke="black" cx="46.15" cy="-18" rx="46.29" ry="18"/>
<text text-anchor="middle" x="46.15" y="-14.3" font-family="Times,serif" font-size="14.00">serviria</text>
</g>
<!-- 0&#45;&gt;1 -->
<g id="edge1" class="edge">
<title>0&#45;&gt;1</title>
<path fill="none" stroke="black" d="M175.57,-90.91C150.16,-76.79 109.46,-54.17 80.49,-38.08"/>
<polygon fill="black" stroke="black" points="81.97,-34.9 71.53,-33.1 78.57,-41.02 81.97,-34.9"/>
<text text-anchor="middle" x="145.65" y="-57.8" font-family="Times,serif" font-size="14.00">dep</text>
</g>
<!-- 2 -->
<g id="node3" class="node">
<title>2</title>
<ellipse fill="none" stroke="black" cx="142.15" cy="-18" rx="31.7" ry="18"/>
<text text-anchor="middle" x="142.15" y="-14.3" font-family="Times,serif" font-size="14.00">para</text>
</g>
<!-- 0&#45;&gt;2 -->
<g id="edge2" class="edge">
<title>0&#45;&gt;2</title>
<path fill="none" stroke="black" d="M188.16,-87.61C179.74,-75.07 168.01,-57.57 158.5,-43.38"/>
<polygon fill="black" stroke="black" points="161.39,-41.41 152.91,-35.05 155.57,-45.31 161.39,-41.41"/>
<text text-anchor="middle" x="187.65" y="-57.8" font-family="Times,serif" font-size="14.00">dep</text>
</g>
<!-- 3 -->
<g id="node4" class="node">
<title>3</title>
<ellipse fill="none" stroke="black" cx="257.15" cy="-18" rx="65.79" ry="18"/>
<text text-anchor="middle" x="257.15" y="-14.3" font-family="Times,serif" font-size="14.00">propaganda</text>
</g>
<!-- 0&#45;&gt;3 -->
<g id="edge3" class="edge">
<title>0&#45;&gt;3</title>
<path fill="none" stroke="black" d="M210.33,-87.61C218.73,-75.31 230.37,-58.23 239.95,-44.2"/>
<polygon fill="black" stroke="black" points="242.85,-46.15 245.6,-35.92 237.07,-42.21 242.85,-46.15"/>
<text text-anchor="middle" x="245.65" y="-57.8" font-family="Times,serif" font-size="14.00">dep</text>
</g>
<!-- 4 -->
<g id="node5" class="node">
<title>4</title>
<ellipse fill="none" stroke="black" cx="379.15" cy="-18" rx="38.19" ry="18"/>
<text text-anchor="middle" x="379.15" y="-14.3" font-family="Times,serif" font-size="14.00">aliada</text>
</g>
<!-- 0&#45;&gt;4 -->
<g id="edge4" class="edge">
<title>0&#45;&gt;4</title>
<path fill="none" stroke="black" d="M224.94,-91.82C256.12,-77.09 308.78,-52.23 343.75,-35.71"/>
<polygon fill="black" stroke="black" points="345.56,-38.73 353.11,-31.29 342.58,-32.4 345.56,-38.73"/>
<text text-anchor="middle" x="313.65" y="-57.8" font-family="Times,serif" font-size="14.00">dep</text>
</g>
</g>
</svg>
