<?xml version="1.0" encoding="UTF-8" standalone="no"?>
<!DOCTYPE svg PUBLIC "-//W3C//DTD SVG 1.1//EN"
 "http://www.w3.org/Graphics/SVG/1.1/DTD/svg11.dtd">
<!-- Generated by graphviz version 2.42.4 (0)
 -->
<!-- Pages: 1 -->
<svg width="1136pt" height="131pt"
 viewBox="0.00 0.00 1135.75 131.00" xmlns="http://www.w3.org/2000/svg" xmlns:xlink="http://www.w3.org/1999/xlink">
<g id="graph0" class="graph" transform="scale(1 1) rotate(0) translate(4 127)">
<polygon fill="white" stroke="transparent" points="-4,4 -4,-127 1131.75,-127 1131.75,4 -4,4"/>
<!-- 0 -->
<g id="node1" class="node">
<title>0</title>
<ellipse fill="none" stroke="black" cx="552.75" cy="-105" rx="51.19" ry="18"/>
<text text-anchor="middle" x="552.75" y="-101.3" font-family="Times,serif" font-size="14.00">Segundo</text>
</g>
<!-- 1 -->
<g id="node2" class="node">
<title>1</title>
<ellipse fill="none" stroke="black" cx="35.75" cy="-18" rx="36" ry="18"/>
<text text-anchor="middle" x="35.75" y="-14.3" font-family="Times,serif" font-size="14.00">Artur</text>
</g>
<!-- 0&#45;&gt;1 -->
<g id="edge1" class="edge">
<title>0&#45;&gt;1</title>
<path fill="none" stroke="black" d="M501.93,-101.87C432.49,-98.31 304.28,-89.41 196.75,-69 153.23,-60.74 104.9,-44.77 72.65,-33.1"/>
<polygon fill="black" stroke="black" points="73.78,-29.78 63.18,-29.62 71.37,-36.35 73.78,-29.78"/>
<text text-anchor="middle" x="210.25" y="-57.8" font-family="Times,serif" font-size="14.00">dep</text>
</g>
<!-- 2 -->
<g id="node3" class="node">
<title>2</title>
<ellipse fill="none" stroke="black" cx="137.75" cy="-18" rx="48.19" ry="18"/>
<text text-anchor="middle" x="137.75" y="-14.3" font-family="Times,serif" font-size="14.00">Moreira</text>
</g>
<!-- 0&#45;&gt;2 -->
<g id="edge2" class="edge">
<title>0&#45;&gt;2</title>
<path fill="none" stroke="black" d="M502.73,-100.9C447.17,-96.7 355.1,-87.5 277.75,-69 243.17,-60.73 205.26,-46.88 177.63,-35.85"/>
<polygon fill="black" stroke="black" points="178.89,-32.59 168.3,-32.08 176.26,-39.08 178.89,-32.59"/>
<text text-anchor="middle" x="291.25" y="-57.8" font-family="Times,serif" font-size="14.00">dep</text>
</g>
<!-- 3 -->
<g id="node4" class="node">
<title>3</title>
<ellipse fill="none" stroke="black" cx="230.75" cy="-18" rx="27" ry="18"/>
<text text-anchor="middle" x="230.75" y="-14.3" font-family="Times,serif" font-size="14.00">,</text>
</g>
<!-- 0&#45;&gt;3 -->
<g id="edge3" class="edge">
<title>0&#45;&gt;3</title>
<path fill="none" stroke="black" d="M504.8,-98.48C463.48,-93.06 402.5,-83.49 350.75,-69 312.12,-58.19 303.57,-51.91 266.75,-36 264.94,-35.22 263.09,-34.4 261.22,-33.56"/>
<polygon fill="black" stroke="black" points="262.51,-30.3 251.96,-29.31 259.58,-36.66 262.51,-30.3"/>
<text text-anchor="middle" x="364.25" y="-57.8" font-family="Times,serif" font-size="14.00">dep</text>
</g>
<!-- 4 -->
<g id="node5" class="node">
<title>4</title>
<ellipse fill="none" stroke="black" cx="302.75" cy="-18" rx="27" ry="18"/>
<text text-anchor="middle" x="302.75" y="-14.3" font-family="Times,serif" font-size="14.00">a</text>
</g>
<!-- 0&#45;&gt;4 -->
<g id="edge4" class="edge">
<title>0&#45;&gt;4</title>
<path fill="none" stroke="black" d="M511.37,-94.27C485.41,-87.84 451.36,-78.8 421.75,-69 384.06,-56.52 375.16,-51.82 338.75,-36 336.94,-35.22 335.09,-34.39 333.23,-33.56"/>
<polygon fill="black" stroke="black" points="334.51,-30.29 323.97,-29.29 331.59,-36.65 334.51,-30.29"/>
<text text-anchor="middle" x="435.25" y="-57.8" font-family="Times,serif" font-size="14.00">dep</text>
</g>
<!-- 5 -->
<g id="node6" class="node">
<title>5</title>
<ellipse fill="none" stroke="black" cx="391.75" cy="-18" rx="44.39" ry="18"/>
<text text-anchor="middle" x="391.75" y="-14.3" font-family="Times,serif" font-size="14.00">notária</text>
</g>
<!-- 0&#45;&gt;5 -->
<g id="edge5" class="edge">
<title>0&#45;&gt;5</title>
<path fill="none" stroke="black" d="M522.59,-90.4C509.06,-84.13 492.98,-76.44 478.75,-69 460.55,-59.49 440.67,-48.13 424.51,-38.65"/>
<polygon fill="black" stroke="black" points="425.86,-35.38 415.46,-33.32 422.3,-41.41 425.86,-35.38"/>
<text text-anchor="middle" x="492.25" y="-57.8" font-family="Times,serif" font-size="14.00">dep</text>
</g>
<!-- 6 -->
<g id="node7" class="node">
<title>6</title>
<ellipse fill="none" stroke="black" cx="480.75" cy="-18" rx="27" ry="18"/>
<text text-anchor="middle" x="480.75" y="-14.3" font-family="Times,serif" font-size="14.00">leu</text>
</g>
<!-- 0&#45;&gt;6 -->
<g id="edge6" class="edge">
<title>0&#45;&gt;6</title>
<path fill="none" stroke="black" d="M538.11,-87.73C532.89,-81.87 527.01,-75.18 521.75,-69 514.43,-60.41 506.54,-50.86 499.65,-42.43"/>
<polygon fill="black" stroke="black" points="502.18,-39.99 493.16,-34.44 496.75,-44.41 502.18,-39.99"/>
<text text-anchor="middle" x="535.25" y="-57.8" font-family="Times,serif" font-size="14.00">dep</text>
</g>
<!-- 7 -->
<g id="node8" class="node">
<title>7</title>
<ellipse fill="none" stroke="black" cx="552.75" cy="-18" rx="27" ry="18"/>
<text text-anchor="middle" x="552.75" y="-14.3" font-family="Times,serif" font-size="14.00">a</text>
</g>
<!-- 0&#45;&gt;7 -->
<g id="edge7" class="edge">
<title>0&#45;&gt;7</title>
<path fill="none" stroke="black" d="M552.75,-86.8C552.75,-75.16 552.75,-59.55 552.75,-46.24"/>
<polygon fill="black" stroke="black" points="556.25,-46.18 552.75,-36.18 549.25,-46.18 556.25,-46.18"/>
<text text-anchor="middle" x="566.25" y="-57.8" font-family="Times,serif" font-size="14.00">dep</text>
</g>
<!-- 8 -->
<g id="node9" class="node">
<title>8</title>
<ellipse fill="none" stroke="black" cx="650.75" cy="-18" rx="52.79" ry="18"/>
<text text-anchor="middle" x="650.75" y="-14.3" font-family="Times,serif" font-size="14.00">escritura</text>
</g>
<!-- 0&#45;&gt;8 -->
<g id="edge8" class="edge">
<title>0&#45;&gt;8</title>
<path fill="none" stroke="black" d="M571.18,-88.01C586.24,-74.95 607.71,-56.33 624.55,-41.72"/>
<polygon fill="black" stroke="black" points="627.14,-44.11 632.4,-34.92 622.55,-38.82 627.14,-44.11"/>
<text text-anchor="middle" x="621.25" y="-57.8" font-family="Times,serif" font-size="14.00">dep</text>
</g>
<!-- 9 -->
<g id="node10" class="node">
<title>9</title>
<ellipse fill="none" stroke="black" cx="748.75" cy="-18" rx="27" ry="18"/>
<text text-anchor="middle" x="748.75" y="-14.3" font-family="Times,serif" font-size="14.00">e</text>
</g>
<!-- 0&#45;&gt;9 -->
<g id="edge9" class="edge">
<title>0&#45;&gt;9</title>
<path fill="none" stroke="black" d="M585.52,-90.96C601.61,-84.48 621.25,-76.46 638.75,-69 671.87,-54.88 680.02,-51.02 712.75,-36 714.54,-35.18 716.37,-34.33 718.23,-33.47"/>
<polygon fill="black" stroke="black" points="719.89,-36.55 727.46,-29.14 716.92,-30.21 719.89,-36.55"/>
<text text-anchor="middle" x="686.25" y="-57.8" font-family="Times,serif" font-size="14.00">dep</text>
</g>
<!-- 10 -->
<g id="node11" class="node">
<title>10</title>
<ellipse fill="none" stroke="black" cx="820.75" cy="-18" rx="27" ry="18"/>
<text text-anchor="middle" x="820.75" y="-14.3" font-family="Times,serif" font-size="14.00">só</text>
</g>
<!-- 0&#45;&gt;10 -->
<g id="edge10" class="edge">
<title>0&#45;&gt;10</title>
<path fill="none" stroke="black" d="M596.86,-95.71C627.24,-89.53 668.35,-80.23 703.75,-69 740.8,-57.24 749.16,-51.64 784.75,-36 786.55,-35.21 788.4,-34.38 790.26,-33.54"/>
<polygon fill="black" stroke="black" points="791.9,-36.63 799.51,-29.26 788.97,-30.28 791.9,-36.63"/>
<text text-anchor="middle" x="757.25" y="-57.8" font-family="Times,serif" font-size="14.00">dep</text>
</g>
<!-- 11 -->
<g id="node12" class="node">
<title>11</title>
<ellipse fill="none" stroke="black" cx="907.75" cy="-18" rx="42.49" ry="18"/>
<text text-anchor="middle" x="907.75" y="-14.3" font-family="Times,serif" font-size="14.00">faltava</text>
</g>
<!-- 0&#45;&gt;11 -->
<g id="edge11" class="edge">
<title>0&#45;&gt;11</title>
<path fill="none" stroke="black" d="M601.4,-99.21C646.78,-94.07 716.08,-84.48 774.75,-69 807.63,-60.32 843.68,-46.49 869.94,-35.57"/>
<polygon fill="black" stroke="black" points="871.64,-38.65 879.5,-31.54 868.92,-32.2 871.64,-38.65"/>
<text text-anchor="middle" x="833.25" y="-57.8" font-family="Times,serif" font-size="14.00">dep</text>
</g>
<!-- 12 -->
<g id="node13" class="node">
<title>12</title>
<ellipse fill="none" stroke="black" cx="1011.75" cy="-18" rx="44.39" ry="18"/>
<text text-anchor="middle" x="1011.75" y="-14.3" font-family="Times,serif" font-size="14.00">assinar</text>
</g>
<!-- 0&#45;&gt;12 -->
<g id="edge12" class="edge">
<title>0&#45;&gt;12</title>
<path fill="none" stroke="black" d="M602.75,-100.88C662.31,-96.54 764.59,-87.07 850.75,-69 899.87,-58.7 910.85,-51 958.75,-36 961.88,-35.02 965.12,-34 968.38,-32.97"/>
<polygon fill="black" stroke="black" points="969.66,-36.23 978.12,-29.86 967.53,-29.56 969.66,-36.23"/>
<text text-anchor="middle" x="919.25" y="-57.8" font-family="Times,serif" font-size="14.00">dep</text>
</g>
<!-- 13 -->
<g id="node14" class="node">
<title>13</title>
<ellipse fill="none" stroke="black" cx="1100.75" cy="-18" rx="27" ry="18"/>
<text text-anchor="middle" x="1100.75" y="-14.3" font-family="Times,serif" font-size="14.00">.</text>
</g>
<!-- 0&#45;&gt;13 -->
<g id="edge13" class="edge">
<title>0&#45;&gt;13</title>
<path fill="none" stroke="black" d="M603.41,-101.99C677.2,-98.47 818.35,-89.52 936.75,-69 994.63,-58.97 1009.49,-55.97 1064.75,-36 1066.6,-35.33 1068.49,-34.6 1070.38,-33.83"/>
<polygon fill="black" stroke="black" points="1071.95,-36.96 1079.71,-29.75 1069.14,-30.55 1071.95,-36.96"/>
<text text-anchor="middle" x="1022.25" y="-57.8" font-family="Times,serif" font-size="14.00">dep</text>
</g>
</g>
</svg>
