<?xml version="1.0" encoding="UTF-8" standalone="no"?>
<!DOCTYPE svg PUBLIC "-//W3C//DTD SVG 1.1//EN"
 "http://www.w3.org/Graphics/SVG/1.1/DTD/svg11.dtd">
<!-- Generated by graphviz version 2.42.4 (0)
 -->
<!-- Pages: 1 -->
<svg width="1512pt" height="131pt"
 viewBox="0.00 0.00 1512.00 131.00" xmlns="http://www.w3.org/2000/svg" xmlns:xlink="http://www.w3.org/1999/xlink">
<g id="graph0" class="graph" transform="scale(1 1) rotate(0) translate(4 127)">
<polygon fill="white" stroke="transparent" points="-4,4 -4,-127 1508,-127 1508,4 -4,4"/>
<!-- 0 -->
<g id="node1" class="node">
<title>0</title>
<ellipse fill="none" stroke="black" cx="745" cy="-105" rx="27" ry="18"/>
<text text-anchor="middle" x="745" y="-101.3" font-family="Times,serif" font-size="14.00">E</text>
</g>
<!-- 1 -->
<g id="node2" class="node">
<title>1</title>
<ellipse fill="none" stroke="black" cx="27" cy="-18" rx="27" ry="18"/>
<text text-anchor="middle" x="27" y="-14.3" font-family="Times,serif" font-size="14.00">Bill</text>
</g>
<!-- 0&#45;&gt;1 -->
<g id="edge1" class="edge">
<title>0&#45;&gt;1</title>
<path fill="none" stroke="black" d="M717.87,-104.28C636.32,-104.71 386.46,-102.94 183,-69 128.44,-59.9 114.87,-55.21 63,-36 61.15,-35.32 59.27,-34.57 57.38,-33.79"/>
<polygon fill="black" stroke="black" points="58.62,-30.51 48.06,-29.69 55.8,-36.92 58.62,-30.51"/>
<text text-anchor="middle" x="196.5" y="-57.8" font-family="Times,serif" font-size="14.00">dep</text>
</g>
<!-- 2 -->
<g id="node3" class="node">
<title>2</title>
<ellipse fill="none" stroke="black" cx="110" cy="-18" rx="37.89" ry="18"/>
<text text-anchor="middle" x="110" y="-14.3" font-family="Times,serif" font-size="14.00">Gates</text>
</g>
<!-- 0&#45;&gt;2 -->
<g id="edge2" class="edge">
<title>0&#45;&gt;2</title>
<path fill="none" stroke="black" d="M717.89,-103.91C645.22,-103.25 440.27,-98.68 273,-69 229.16,-61.22 180.55,-45.32 147.92,-33.53"/>
<polygon fill="black" stroke="black" points="148.93,-30.17 138.33,-30.01 146.52,-36.74 148.93,-30.17"/>
<text text-anchor="middle" x="286.5" y="-57.8" font-family="Times,serif" font-size="14.00">dep</text>
</g>
<!-- 3 -->
<g id="node4" class="node">
<title>3</title>
<ellipse fill="none" stroke="black" cx="215" cy="-18" rx="49.29" ry="18"/>
<text text-anchor="middle" x="215" y="-14.3" font-family="Times,serif" font-size="14.00">explicou</text>
</g>
<!-- 0&#45;&gt;3 -->
<g id="edge3" class="edge">
<title>0&#45;&gt;3</title>
<path fill="none" stroke="black" d="M717.62,-103.94C653.34,-103.29 488.1,-98.61 354,-69 319.39,-61.36 281.64,-47.4 254.22,-36.16"/>
<polygon fill="black" stroke="black" points="255.56,-32.93 244.98,-32.32 252.87,-39.39 255.56,-32.93"/>
<text text-anchor="middle" x="367.5" y="-57.8" font-family="Times,serif" font-size="14.00">dep</text>
</g>
<!-- 4 -->
<g id="node5" class="node">
<title>4</title>
<ellipse fill="none" stroke="black" cx="309" cy="-18" rx="27" ry="18"/>
<text text-anchor="middle" x="309" y="-14.3" font-family="Times,serif" font-size="14.00">a</text>
</g>
<!-- 0&#45;&gt;4 -->
<g id="edge4" class="edge">
<title>0&#45;&gt;4</title>
<path fill="none" stroke="black" d="M717.95,-103.4C662.8,-101.65 533.76,-94.89 429,-69 397.03,-61.1 362.53,-45.96 338.76,-34.41"/>
<polygon fill="black" stroke="black" points="340.1,-31.16 329.58,-29.86 336.99,-37.44 340.1,-31.16"/>
<text text-anchor="middle" x="442.5" y="-57.8" font-family="Times,serif" font-size="14.00">dep</text>
</g>
<!-- 5 -->
<g id="node6" class="node">
<title>5</title>
<ellipse fill="none" stroke="black" cx="381" cy="-18" rx="27" ry="18"/>
<text text-anchor="middle" x="381" y="-14.3" font-family="Times,serif" font-size="14.00">a</text>
</g>
<!-- 0&#45;&gt;5 -->
<g id="edge5" class="edge">
<title>0&#45;&gt;5</title>
<path fill="none" stroke="black" d="M718.35,-101.99C673.67,-98.2 581.05,-88.56 505,-69 471.86,-60.47 435.76,-45.19 411.11,-33.75"/>
<polygon fill="black" stroke="black" points="412.47,-30.52 401.93,-29.43 409.48,-36.85 412.47,-30.52"/>
<text text-anchor="middle" x="518.5" y="-57.8" font-family="Times,serif" font-size="14.00">dep</text>
</g>
<!-- 6 -->
<g id="node7" class="node">
<title>6</title>
<ellipse fill="none" stroke="black" cx="453" cy="-18" rx="27" ry="18"/>
<text text-anchor="middle" x="453" y="-14.3" font-family="Times,serif" font-size="14.00">«</text>
</g>
<!-- 0&#45;&gt;6 -->
<g id="edge6" class="edge">
<title>0&#45;&gt;6</title>
<path fill="none" stroke="black" d="M719.11,-99.37C687.1,-93.41 631.09,-82.24 584,-69 540.97,-56.9 530.38,-52.9 489,-36 487.18,-35.26 485.31,-34.47 483.44,-33.65"/>
<polygon fill="black" stroke="black" points="484.71,-30.38 474.15,-29.45 481.82,-36.76 484.71,-30.38"/>
<text text-anchor="middle" x="597.5" y="-57.8" font-family="Times,serif" font-size="14.00">dep</text>
</g>
<!-- 7 -->
<g id="node8" class="node">
<title>7</title>
<ellipse fill="none" stroke="black" cx="545" cy="-18" rx="47.39" ry="18"/>
<text text-anchor="middle" x="545" y="-14.3" font-family="Times,serif" font-size="14.00">Playboy</text>
</g>
<!-- 0&#45;&gt;7 -->
<g id="edge7" class="edge">
<title>0&#45;&gt;7</title>
<path fill="none" stroke="black" d="M721.09,-96.44C700.85,-89.83 671.19,-79.64 646,-69 623.7,-59.58 599.35,-47.58 580.16,-37.7"/>
<polygon fill="black" stroke="black" points="581.67,-34.54 571.18,-33.04 578.44,-40.75 581.67,-34.54"/>
<text text-anchor="middle" x="659.5" y="-57.8" font-family="Times,serif" font-size="14.00">dep</text>
</g>
<!-- 8 -->
<g id="node9" class="node">
<title>8</title>
<ellipse fill="none" stroke="black" cx="637" cy="-18" rx="27" ry="18"/>
<text text-anchor="middle" x="637" y="-14.3" font-family="Times,serif" font-size="14.00">»</text>
</g>
<!-- 0&#45;&gt;8 -->
<g id="edge8" class="edge">
<title>0&#45;&gt;8</title>
<path fill="none" stroke="black" d="M726.21,-91.88C716.41,-85.37 704.34,-77.04 694,-69 682.36,-59.95 669.98,-49.24 659.75,-40.06"/>
<polygon fill="black" stroke="black" points="661.82,-37.21 652.06,-33.09 657.12,-42.4 661.82,-37.21"/>
<text text-anchor="middle" x="707.5" y="-57.8" font-family="Times,serif" font-size="14.00">dep</text>
</g>
<!-- 9 -->
<g id="node10" class="node">
<title>9</title>
<ellipse fill="none" stroke="black" cx="709" cy="-18" rx="27" ry="18"/>
<text text-anchor="middle" x="709" y="-14.3" font-family="Times,serif" font-size="14.00">o</text>
</g>
<!-- 0&#45;&gt;9 -->
<g id="edge9" class="edge">
<title>0&#45;&gt;9</title>
<path fill="none" stroke="black" d="M737.89,-87.21C732.78,-75.14 725.79,-58.64 719.97,-44.89"/>
<polygon fill="black" stroke="black" points="723.1,-43.31 715.98,-35.47 716.65,-46.04 723.1,-43.31"/>
<text text-anchor="middle" x="743.5" y="-57.8" font-family="Times,serif" font-size="14.00">dep</text>
</g>
<!-- 10 -->
<g id="node11" class="node">
<title>10</title>
<ellipse fill="none" stroke="black" cx="782" cy="-18" rx="27.9" ry="18"/>
<text text-anchor="middle" x="782" y="-14.3" font-family="Times,serif" font-size="14.00">que</text>
</g>
<!-- 0&#45;&gt;10 -->
<g id="edge10" class="edge">
<title>0&#45;&gt;10</title>
<path fill="none" stroke="black" d="M752.13,-87.61C757.37,-75.58 764.6,-58.98 770.63,-45.13"/>
<polygon fill="black" stroke="black" points="773.98,-46.19 774.76,-35.63 767.56,-43.4 773.98,-46.19"/>
<text text-anchor="middle" x="779.5" y="-57.8" font-family="Times,serif" font-size="14.00">dep</text>
</g>
<!-- 11 -->
<g id="node12" class="node">
<title>11</title>
<ellipse fill="none" stroke="black" cx="876" cy="-18" rx="48.19" ry="18"/>
<text text-anchor="middle" x="876" y="-14.3" font-family="Times,serif" font-size="14.00">entende</text>
</g>
<!-- 0&#45;&gt;11 -->
<g id="edge11" class="edge">
<title>0&#45;&gt;11</title>
<path fill="none" stroke="black" d="M763.77,-91.82C784.78,-78.19 819.18,-55.87 844.36,-39.53"/>
<polygon fill="black" stroke="black" points="846.36,-42.4 852.85,-34.02 842.55,-36.53 846.36,-42.4"/>
<text text-anchor="middle" x="832.5" y="-57.8" font-family="Times,serif" font-size="14.00">dep</text>
</g>
<!-- 12 -->
<g id="node13" class="node">
<title>12</title>
<ellipse fill="none" stroke="black" cx="969" cy="-18" rx="27" ry="18"/>
<text text-anchor="middle" x="969" y="-14.3" font-family="Times,serif" font-size="14.00">por</text>
</g>
<!-- 0&#45;&gt;12 -->
<g id="edge12" class="edge">
<title>0&#45;&gt;12</title>
<path fill="none" stroke="black" d="M768.9,-96.46C790.27,-89.62 822.38,-79.08 850,-69 887.29,-55.38 896.59,-51.82 933,-36 934.81,-35.22 936.66,-34.39 938.52,-33.56"/>
<polygon fill="black" stroke="black" points="940.16,-36.65 947.78,-29.29 937.23,-30.29 940.16,-36.65"/>
<text text-anchor="middle" x="903.5" y="-57.8" font-family="Times,serif" font-size="14.00">dep</text>
</g>
<!-- 13 -->
<g id="node14" class="node">
<title>13</title>
<ellipse fill="none" stroke="black" cx="1045" cy="-18" rx="30.59" ry="18"/>
<text text-anchor="middle" x="1045" y="-14.3" font-family="Times,serif" font-size="14.00">uma</text>
</g>
<!-- 0&#45;&gt;13 -->
<g id="edge13" class="edge">
<title>0&#45;&gt;13</title>
<path fill="none" stroke="black" d="M771.29,-100.27C806.01,-95 868.83,-84.3 921,-69 959.49,-57.71 967.87,-51.18 1005,-36 1007.18,-35.11 1009.42,-34.18 1011.68,-33.24"/>
<polygon fill="black" stroke="black" points="1013.07,-36.46 1020.93,-29.36 1010.36,-30 1013.07,-36.46"/>
<text text-anchor="middle" x="976.5" y="-57.8" font-family="Times,serif" font-size="14.00">dep</text>
</g>
<!-- 14 -->
<g id="node15" class="node">
<title>14</title>
<ellipse fill="none" stroke="black" cx="1136" cy="-18" rx="42.49" ry="18"/>
<text text-anchor="middle" x="1136" y="-14.3" font-family="Times,serif" font-size="14.00">pessoa</text>
</g>
<!-- 0&#45;&gt;14 -->
<g id="edge14" class="edge">
<title>0&#45;&gt;14</title>
<path fill="none" stroke="black" d="M771.86,-101.99C817.87,-98.15 914.48,-88.38 994,-69 1029.78,-60.28 1069.18,-46.01 1097.39,-34.95"/>
<polygon fill="black" stroke="black" points="1098.87,-38.12 1106.87,-31.18 1096.29,-31.62 1098.87,-38.12"/>
<text text-anchor="middle" x="1055.5" y="-57.8" font-family="Times,serif" font-size="14.00">dep</text>
</g>
<!-- 15 -->
<g id="node16" class="node">
<title>15</title>
<ellipse fill="none" stroke="black" cx="1223" cy="-18" rx="27" ry="18"/>
<text text-anchor="middle" x="1223" y="-14.3" font-family="Times,serif" font-size="14.00">«</text>
</g>
<!-- 0&#45;&gt;15 -->
<g id="edge15" class="edge">
<title>0&#45;&gt;15</title>
<path fill="none" stroke="black" d="M772.02,-102.72C828.42,-99.71 962.58,-90.7 1073,-69 1124.76,-58.83 1137.66,-54.65 1187,-36 1188.84,-35.3 1190.72,-34.55 1192.6,-33.76"/>
<polygon fill="black" stroke="black" points="1194.19,-36.89 1201.92,-29.64 1191.36,-30.49 1194.19,-36.89"/>
<text text-anchor="middle" x="1148.5" y="-57.8" font-family="Times,serif" font-size="14.00">dep</text>
</g>
<!-- 16 -->
<g id="node17" class="node">
<title>16</title>
<ellipse fill="none" stroke="black" cx="1314" cy="-18" rx="46.29" ry="18"/>
<text text-anchor="middle" x="1314" y="-14.3" font-family="Times,serif" font-size="14.00">esperta</text>
</g>
<!-- 0&#45;&gt;16 -->
<g id="edge16" class="edge">
<title>0&#45;&gt;16</title>
<path fill="none" stroke="black" d="M772.17,-104.01C839.59,-103.55 1019.67,-99.33 1166,-69 1203.58,-61.21 1244.83,-46.76 1274.22,-35.38"/>
<polygon fill="black" stroke="black" points="1275.68,-38.57 1283.71,-31.66 1273.12,-32.06 1275.68,-38.57"/>
<text text-anchor="middle" x="1233.5" y="-57.8" font-family="Times,serif" font-size="14.00">dep</text>
</g>
<!-- 17 -->
<g id="node18" class="node">
<title>17</title>
<ellipse fill="none" stroke="black" cx="1405" cy="-18" rx="27" ry="18"/>
<text text-anchor="middle" x="1405" y="-14.3" font-family="Times,serif" font-size="14.00">»</text>
</g>
<!-- 0&#45;&gt;17 -->
<g id="edge17" class="edge">
<title>0&#45;&gt;17</title>
<path fill="none" stroke="black" d="M772.11,-104.06C848.21,-103.8 1070.07,-100.22 1251,-69 1304.66,-59.74 1317.98,-55.03 1369,-36 1370.85,-35.31 1372.73,-34.57 1374.61,-33.78"/>
<polygon fill="black" stroke="black" points="1376.2,-36.91 1383.93,-29.67 1373.37,-30.51 1376.2,-36.91"/>
<text text-anchor="middle" x="1330.5" y="-57.8" font-family="Times,serif" font-size="14.00">dep</text>
</g>
<!-- 18 -->
<g id="node19" class="node">
<title>18</title>
<ellipse fill="none" stroke="black" cx="1477" cy="-18" rx="27" ry="18"/>
<text text-anchor="middle" x="1477" y="-14.3" font-family="Times,serif" font-size="14.00">:</text>
</g>
<!-- 0&#45;&gt;18 -->
<g id="edge18" class="edge">
<title>0&#45;&gt;18</title>
<path fill="none" stroke="black" d="M772.09,-103.44C874.17,-101.19 1235.45,-91.75 1348,-69 1383.28,-61.87 1421.46,-45.95 1447.05,-33.98"/>
<polygon fill="black" stroke="black" points="1448.7,-37.08 1456.22,-29.61 1445.68,-30.76 1448.7,-37.08"/>
<text text-anchor="middle" x="1412.5" y="-57.8" font-family="Times,serif" font-size="14.00">dep</text>
</g>
</g>
</svg>
