<?xml version="1.0" encoding="UTF-8" standalone="no"?>
<!DOCTYPE svg PUBLIC "-//W3C//DTD SVG 1.1//EN"
 "http://www.w3.org/Graphics/SVG/1.1/DTD/svg11.dtd">
<!-- Generated by graphviz version 2.42.4 (0)
 -->
<!-- Pages: 1 -->
<svg width="1704pt" height="131pt"
 viewBox="0.00 0.00 1704.50 131.00" xmlns="http://www.w3.org/2000/svg" xmlns:xlink="http://www.w3.org/1999/xlink">
<g id="graph0" class="graph" transform="scale(1 1) rotate(0) translate(4 127)">
<polygon fill="white" stroke="transparent" points="-4,4 -4,-127 1700.5,-127 1700.5,4 -4,4"/>
<!-- 0 -->
<g id="node1" class="node">
<title>0</title>
<ellipse fill="none" stroke="black" cx="852.5" cy="-105" rx="50.09" ry="18"/>
<text text-anchor="middle" x="852.5" y="-101.3" font-family="Times,serif" font-size="14.00">Esquece</text>
</g>
<!-- 1 -->
<g id="node2" class="node">
<title>1</title>
<ellipse fill="none" stroke="black" cx="45.5" cy="-18" rx="45.49" ry="18"/>
<text text-anchor="middle" x="45.5" y="-14.3" font-family="Times,serif" font-size="14.00">Picasso</text>
</g>
<!-- 0&#45;&gt;1 -->
<g id="edge1" class="edge">
<title>0&#45;&gt;1</title>
<path fill="none" stroke="black" d="M802.68,-103.2C669.26,-100.77 306,-92.15 188.5,-69 152.14,-61.84 112.49,-47.42 84.18,-35.89"/>
<polygon fill="black" stroke="black" points="85.24,-32.54 74.67,-31.95 82.57,-39.01 85.24,-32.54"/>
<text text-anchor="middle" x="202" y="-57.8" font-family="Times,serif" font-size="14.00">dep</text>
</g>
<!-- 2 -->
<g id="node3" class="node">
<title>2</title>
<ellipse fill="none" stroke="black" cx="135.5" cy="-18" rx="27" ry="18"/>
<text text-anchor="middle" x="135.5" y="-14.3" font-family="Times,serif" font-size="14.00">,</text>
</g>
<!-- 0&#45;&gt;2 -->
<g id="edge2" class="edge">
<title>0&#45;&gt;2</title>
<path fill="none" stroke="black" d="M802.67,-102.58C681.72,-98.87 375.16,-87.87 274.5,-69 227.25,-60.15 216.21,-53.63 171.5,-36 169.66,-35.28 167.79,-34.5 165.92,-33.7"/>
<polygon fill="black" stroke="black" points="167.17,-30.43 156.61,-29.54 164.31,-36.82 167.17,-30.43"/>
<text text-anchor="middle" x="288" y="-57.8" font-family="Times,serif" font-size="14.00">dep</text>
</g>
<!-- 3 -->
<g id="node4" class="node">
<title>3</title>
<ellipse fill="none" stroke="black" cx="214.5" cy="-18" rx="34.39" ry="18"/>
<text text-anchor="middle" x="214.5" y="-14.3" font-family="Times,serif" font-size="14.00">Goya</text>
</g>
<!-- 0&#45;&gt;3 -->
<g id="edge3" class="edge">
<title>0&#45;&gt;3</title>
<path fill="none" stroke="black" d="M802.31,-104.59C712.15,-104.75 517.16,-100.92 356.5,-69 318.77,-61.51 277.5,-46.11 249.22,-34.37"/>
<polygon fill="black" stroke="black" points="250.36,-31.05 239.79,-30.39 247.64,-37.5 250.36,-31.05"/>
<text text-anchor="middle" x="370" y="-57.8" font-family="Times,serif" font-size="14.00">dep</text>
</g>
<!-- 4 -->
<g id="node5" class="node">
<title>4</title>
<ellipse fill="none" stroke="black" cx="293.5" cy="-18" rx="27" ry="18"/>
<text text-anchor="middle" x="293.5" y="-14.3" font-family="Times,serif" font-size="14.00">,</text>
</g>
<!-- 0&#45;&gt;4 -->
<g id="edge4" class="edge">
<title>0&#45;&gt;4</title>
<path fill="none" stroke="black" d="M802.89,-101.91C728.81,-98.24 585.09,-89.06 464.5,-69 403.57,-58.86 387.72,-56.63 329.5,-36 327.59,-35.32 325.65,-34.58 323.71,-33.8"/>
<polygon fill="black" stroke="black" points="324.7,-30.41 314.14,-29.62 321.9,-36.83 324.7,-30.41"/>
<text text-anchor="middle" x="478" y="-57.8" font-family="Times,serif" font-size="14.00">dep</text>
</g>
<!-- 5 -->
<g id="node6" class="node">
<title>5</title>
<ellipse fill="none" stroke="black" cx="387.5" cy="-18" rx="49.29" ry="18"/>
<text text-anchor="middle" x="387.5" y="-14.3" font-family="Times,serif" font-size="14.00">Mariano</text>
</g>
<!-- 0&#45;&gt;5 -->
<g id="edge5" class="edge">
<title>0&#45;&gt;5</title>
<path fill="none" stroke="black" d="M803.51,-101.13C743.23,-96.96 637.98,-87.6 549.5,-69 508.51,-60.39 463.04,-45.9 430.73,-34.73"/>
<polygon fill="black" stroke="black" points="431.74,-31.38 421.15,-31.38 429.44,-37.99 431.74,-31.38"/>
<text text-anchor="middle" x="563" y="-57.8" font-family="Times,serif" font-size="14.00">dep</text>
</g>
<!-- 6 -->
<g id="node7" class="node">
<title>6</title>
<ellipse fill="none" stroke="black" cx="481.5" cy="-18" rx="27" ry="18"/>
<text text-anchor="middle" x="481.5" y="-14.3" font-family="Times,serif" font-size="14.00">,</text>
</g>
<!-- 0&#45;&gt;6 -->
<g id="edge6" class="edge">
<title>0&#45;&gt;6</title>
<path fill="none" stroke="black" d="M805.15,-99.15C739.05,-91.33 616.15,-72.92 517.5,-36 515.65,-35.31 513.77,-34.56 511.89,-33.78"/>
<polygon fill="black" stroke="black" points="513.13,-30.5 502.56,-29.66 510.3,-36.9 513.13,-30.5"/>
<text text-anchor="middle" x="639" y="-57.8" font-family="Times,serif" font-size="14.00">dep</text>
</g>
<!-- 7 -->
<g id="node8" class="node">
<title>7</title>
<ellipse fill="none" stroke="black" cx="579.5" cy="-18" rx="53.09" ry="18"/>
<text text-anchor="middle" x="579.5" y="-14.3" font-family="Times,serif" font-size="14.00">Benlliure</text>
</g>
<!-- 0&#45;&gt;7 -->
<g id="edge7" class="edge">
<title>0&#45;&gt;7</title>
<path fill="none" stroke="black" d="M809.89,-95.31C780.77,-88.98 741.46,-79.68 707.5,-69 677.86,-59.68 645.26,-46.91 620.37,-36.6"/>
<polygon fill="black" stroke="black" points="621.47,-33.27 610.89,-32.64 618.77,-39.73 621.47,-33.27"/>
<text text-anchor="middle" x="721" y="-57.8" font-family="Times,serif" font-size="14.00">dep</text>
</g>
<!-- 8 -->
<g id="node9" class="node">
<title>8</title>
<ellipse fill="none" stroke="black" cx="677.5" cy="-18" rx="27" ry="18"/>
<text text-anchor="middle" x="677.5" y="-14.3" font-family="Times,serif" font-size="14.00">,</text>
</g>
<!-- 0&#45;&gt;8 -->
<g id="edge8" class="edge">
<title>0&#45;&gt;8</title>
<path fill="none" stroke="black" d="M818.16,-91.65C801.69,-85.4 781.82,-77.37 764.5,-69 744.11,-59.15 722.01,-46.42 705.18,-36.27"/>
<polygon fill="black" stroke="black" points="706.78,-33.14 696.42,-30.93 703.14,-39.12 706.78,-33.14"/>
<text text-anchor="middle" x="778" y="-57.8" font-family="Times,serif" font-size="14.00">dep</text>
</g>
<!-- 9 -->
<g id="node10" class="node">
<title>9</title>
<ellipse fill="none" stroke="black" cx="750.5" cy="-18" rx="27.9" ry="18"/>
<text text-anchor="middle" x="750.5" y="-14.3" font-family="Times,serif" font-size="14.00">que</text>
</g>
<!-- 0&#45;&gt;9 -->
<g id="edge9" class="edge">
<title>0&#45;&gt;9</title>
<path fill="none" stroke="black" d="M833.31,-88.01C816.7,-74.17 792.58,-54.07 774.65,-39.13"/>
<polygon fill="black" stroke="black" points="776.82,-36.38 766.9,-32.67 772.34,-41.76 776.82,-36.38"/>
<text text-anchor="middle" x="822" y="-57.8" font-family="Times,serif" font-size="14.00">dep</text>
</g>
<!-- 10 -->
<g id="node11" class="node">
<title>10</title>
<ellipse fill="none" stroke="black" cx="852.5" cy="-18" rx="55.79" ry="18"/>
<text text-anchor="middle" x="852.5" y="-14.3" font-family="Times,serif" font-size="14.00">honraram</text>
</g>
<!-- 0&#45;&gt;10 -->
<g id="edge10" class="edge">
<title>0&#45;&gt;10</title>
<path fill="none" stroke="black" d="M852.5,-86.8C852.5,-75.16 852.5,-59.55 852.5,-46.24"/>
<polygon fill="black" stroke="black" points="856,-46.18 852.5,-36.18 849,-46.18 856,-46.18"/>
<text text-anchor="middle" x="866" y="-57.8" font-family="Times,serif" font-size="14.00">dep</text>
</g>
<!-- 11 -->
<g id="node12" class="node">
<title>11</title>
<ellipse fill="none" stroke="black" cx="953.5" cy="-18" rx="27" ry="18"/>
<text text-anchor="middle" x="953.5" y="-14.3" font-family="Times,serif" font-size="14.00">a</text>
</g>
<!-- 0&#45;&gt;11 -->
<g id="edge11" class="edge">
<title>0&#45;&gt;11</title>
<path fill="none" stroke="black" d="M871.49,-88.01C887.95,-74.17 911.82,-54.07 929.58,-39.13"/>
<polygon fill="black" stroke="black" points="931.85,-41.79 937.25,-32.67 927.35,-36.43 931.85,-41.79"/>
<text text-anchor="middle" x="923" y="-57.8" font-family="Times,serif" font-size="14.00">dep</text>
</g>
<!-- 12 -->
<g id="node13" class="node">
<title>12</title>
<ellipse fill="none" stroke="black" cx="1032.5" cy="-18" rx="33.6" ry="18"/>
<text text-anchor="middle" x="1032.5" y="-14.3" font-family="Times,serif" font-size="14.00">festa</text>
</g>
<!-- 0&#45;&gt;12 -->
<g id="edge12" class="edge">
<title>0&#45;&gt;12</title>
<path fill="none" stroke="black" d="M886.33,-91.63C902.86,-85.31 922.93,-77.23 940.5,-69 961.38,-59.21 984.16,-46.85 1001.83,-36.86"/>
<polygon fill="black" stroke="black" points="1003.61,-39.87 1010.57,-31.88 1000.15,-33.79 1003.61,-39.87"/>
<text text-anchor="middle" x="983" y="-57.8" font-family="Times,serif" font-size="14.00">dep</text>
</g>
<!-- 13 -->
<g id="node14" class="node">
<title>13</title>
<ellipse fill="none" stroke="black" cx="1114.5" cy="-18" rx="29.8" ry="18"/>
<text text-anchor="middle" x="1114.5" y="-14.3" font-family="Times,serif" font-size="14.00">com</text>
</g>
<!-- 0&#45;&gt;13 -->
<g id="edge13" class="edge">
<title>0&#45;&gt;13</title>
<path fill="none" stroke="black" d="M895.82,-95.91C925.63,-89.83 965.94,-80.56 1000.5,-69 1029.19,-59.4 1060.59,-45.35 1083.16,-34.58"/>
<polygon fill="black" stroke="black" points="1084.77,-37.69 1092.26,-30.19 1081.73,-31.39 1084.77,-37.69"/>
<text text-anchor="middle" x="1053" y="-57.8" font-family="Times,serif" font-size="14.00">dep</text>
</g>
<!-- 14 -->
<g id="node15" class="node">
<title>14</title>
<ellipse fill="none" stroke="black" cx="1189.5" cy="-18" rx="27" ry="18"/>
<text text-anchor="middle" x="1189.5" y="-14.3" font-family="Times,serif" font-size="14.00">as</text>
</g>
<!-- 0&#45;&gt;14 -->
<g id="edge14" class="edge">
<title>0&#45;&gt;14</title>
<path fill="none" stroke="black" d="M900.34,-99.37C944.94,-94.34 1013.03,-84.83 1070.5,-69 1101.83,-60.37 1135.85,-45.47 1159.46,-34.18"/>
<polygon fill="black" stroke="black" points="1161.12,-37.26 1168.59,-29.74 1158.07,-30.96 1161.12,-37.26"/>
<text text-anchor="middle" x="1128" y="-57.8" font-family="Times,serif" font-size="14.00">dep</text>
</g>
<!-- 15 -->
<g id="node16" class="node">
<title>15</title>
<ellipse fill="none" stroke="black" cx="1266.5" cy="-18" rx="31.7" ry="18"/>
<text text-anchor="middle" x="1266.5" y="-14.3" font-family="Times,serif" font-size="14.00">suas</text>
</g>
<!-- 0&#45;&gt;15 -->
<g id="edge15" class="edge">
<title>0&#45;&gt;15</title>
<path fill="none" stroke="black" d="M901.99,-102.19C960.86,-99.1 1061.72,-90.84 1145.5,-69 1176.62,-60.88 1210.3,-46.46 1234.21,-35.19"/>
<polygon fill="black" stroke="black" points="1236,-38.21 1243.5,-30.73 1232.97,-31.9 1236,-38.21"/>
<text text-anchor="middle" x="1204" y="-57.8" font-family="Times,serif" font-size="14.00">dep</text>
</g>
<!-- 16 -->
<g id="node17" class="node">
<title>16</title>
<ellipse fill="none" stroke="black" cx="1366.5" cy="-18" rx="50.09" ry="18"/>
<text text-anchor="middle" x="1366.5" y="-14.3" font-family="Times,serif" font-size="14.00">pinturas</text>
</g>
<!-- 0&#45;&gt;16 -->
<g id="edge16" class="edge">
<title>0&#45;&gt;16</title>
<path fill="none" stroke="black" d="M902.31,-103.01C973.75,-100.76 1109.08,-93.35 1221.5,-69 1257.58,-61.18 1297.11,-47.17 1325.77,-35.96"/>
<polygon fill="black" stroke="black" points="1327.43,-39.07 1335.43,-32.13 1324.85,-32.56 1327.43,-39.07"/>
<text text-anchor="middle" x="1288" y="-57.8" font-family="Times,serif" font-size="14.00">dep</text>
</g>
<!-- 17 -->
<g id="node18" class="node">
<title>17</title>
<ellipse fill="none" stroke="black" cx="1461.5" cy="-18" rx="27" ry="18"/>
<text text-anchor="middle" x="1461.5" y="-14.3" font-family="Times,serif" font-size="14.00">e</text>
</g>
<!-- 0&#45;&gt;17 -->
<g id="edge17" class="edge">
<title>0&#45;&gt;17</title>
<path fill="none" stroke="black" d="M902.49,-103.25C986.38,-101.3 1160.57,-94.29 1305.5,-69 1359.99,-59.49 1373.63,-55.21 1425.5,-36 1427.34,-35.32 1429.23,-34.57 1431.11,-33.79"/>
<polygon fill="black" stroke="black" points="1432.69,-36.92 1440.44,-29.69 1429.87,-30.51 1432.69,-36.92"/>
<text text-anchor="middle" x="1386" y="-57.8" font-family="Times,serif" font-size="14.00">dep</text>
</g>
<!-- 18 -->
<g id="node19" class="node">
<title>18</title>
<ellipse fill="none" stroke="black" cx="1565.5" cy="-18" rx="59.29" ry="18"/>
<text text-anchor="middle" x="1565.5" y="-14.3" font-family="Times,serif" font-size="14.00">esculturas</text>
</g>
<!-- 0&#45;&gt;18 -->
<g id="edge18" class="edge">
<title>0&#45;&gt;18</title>
<path fill="none" stroke="black" d="M902.74,-104.75C1000.19,-105.33 1221.3,-102.42 1403.5,-69 1443.9,-61.59 1488.4,-47.4 1520.52,-36.02"/>
<polygon fill="black" stroke="black" points="1521.84,-39.27 1530.07,-32.59 1519.48,-32.68 1521.84,-39.27"/>
<text text-anchor="middle" x="1476" y="-57.8" font-family="Times,serif" font-size="14.00">dep</text>
</g>
<!-- 19 -->
<g id="node20" class="node">
<title>19</title>
<ellipse fill="none" stroke="black" cx="1669.5" cy="-18" rx="27" ry="18"/>
<text text-anchor="middle" x="1669.5" y="-14.3" font-family="Times,serif" font-size="14.00">?</text>
</g>
<!-- 0&#45;&gt;19 -->
<g id="edge19" class="edge">
<title>0&#45;&gt;19</title>
<path fill="none" stroke="black" d="M902.66,-104.27C1011.08,-104.19 1275.08,-100.45 1493.5,-69 1556.77,-59.89 1573.15,-57.1 1633.5,-36 1635.4,-35.33 1637.35,-34.6 1639.29,-33.81"/>
<polygon fill="black" stroke="black" points="1641.09,-36.85 1648.87,-29.65 1638.3,-30.43 1641.09,-36.85"/>
<text text-anchor="middle" x="1590" y="-57.8" font-family="Times,serif" font-size="14.00">dep</text>
</g>
</g>
</svg>
