<?xml version="1.0" encoding="UTF-8" standalone="no"?>
<!DOCTYPE svg PUBLIC "-//W3C//DTD SVG 1.1//EN"
 "http://www.w3.org/Graphics/SVG/1.1/DTD/svg11.dtd">
<!-- Generated by graphviz version 2.42.4 (0)
 -->
<!-- Pages: 1 -->
<svg width="1021pt" height="131pt"
 viewBox="0.00 0.00 1020.55 131.00" xmlns="http://www.w3.org/2000/svg" xmlns:xlink="http://www.w3.org/1999/xlink">
<g id="graph0" class="graph" transform="scale(1 1) rotate(0) translate(4 127)">
<polygon fill="white" stroke="transparent" points="-4,4 -4,-127 1016.55,-127 1016.55,4 -4,4"/>
<!-- 0 -->
<g id="node1" class="node">
<title>0</title>
<ellipse fill="none" stroke="black" cx="522.55" cy="-105" rx="37.89" ry="18"/>
<text text-anchor="middle" x="522.55" y="-101.3" font-family="Times,serif" font-size="14.00">Custa</text>
</g>
<!-- 1 -->
<g id="node2" class="node">
<title>1</title>
<ellipse fill="none" stroke="black" cx="30.55" cy="-18" rx="30.59" ry="18"/>
<text text-anchor="middle" x="30.55" y="-14.3" font-family="Times,serif" font-size="14.00">US$</text>
</g>
<!-- 0&#45;&gt;1 -->
<g id="edge1" class="edge">
<title>0&#45;&gt;1</title>
<path fill="none" stroke="black" d="M484.75,-103.8C417.58,-102.69 273.41,-96.93 155.55,-69 122.62,-61.2 86.96,-46.23 62.18,-34.69"/>
<polygon fill="black" stroke="black" points="63.46,-31.43 52.92,-30.31 60.46,-37.75 63.46,-31.43"/>
<text text-anchor="middle" x="169.05" y="-57.8" font-family="Times,serif" font-size="14.00">dep</text>
</g>
<!-- 2 -->
<g id="node3" class="node">
<title>2</title>
<ellipse fill="none" stroke="black" cx="106.55" cy="-18" rx="27" ry="18"/>
<text text-anchor="middle" x="106.55" y="-14.3" font-family="Times,serif" font-size="14.00">45</text>
</g>
<!-- 0&#45;&gt;2 -->
<g id="edge2" class="edge">
<title>0&#45;&gt;2</title>
<path fill="none" stroke="black" d="M484.84,-102.3C428.87,-99.14 320.82,-90.6 231.55,-69 198.05,-60.9 161.68,-45.54 136.85,-33.98"/>
<polygon fill="black" stroke="black" points="138.15,-30.72 127.61,-29.6 135.15,-37.04 138.15,-30.72"/>
<text text-anchor="middle" x="245.05" y="-57.8" font-family="Times,serif" font-size="14.00">dep</text>
</g>
<!-- 3 -->
<g id="node4" class="node">
<title>3</title>
<ellipse fill="none" stroke="black" cx="178.55" cy="-18" rx="27" ry="18"/>
<text text-anchor="middle" x="178.55" y="-14.3" font-family="Times,serif" font-size="14.00">em</text>
</g>
<!-- 0&#45;&gt;3 -->
<g id="edge3" class="edge">
<title>0&#45;&gt;3</title>
<path fill="none" stroke="black" d="M486.32,-99.68C444.37,-94.27 373.35,-83.88 313.55,-69 268.54,-57.8 257.59,-53.27 214.55,-36 212.72,-35.27 210.85,-34.49 208.98,-33.68"/>
<polygon fill="black" stroke="black" points="210.24,-30.41 199.68,-29.49 207.36,-36.79 210.24,-30.41"/>
<text text-anchor="middle" x="327.05" y="-57.8" font-family="Times,serif" font-size="14.00">dep</text>
</g>
<!-- 4 -->
<g id="node5" class="node">
<title>4</title>
<ellipse fill="none" stroke="black" cx="250.55" cy="-18" rx="27" ry="18"/>
<text text-anchor="middle" x="250.55" y="-14.3" font-family="Times,serif" font-size="14.00">a</text>
</g>
<!-- 0&#45;&gt;4 -->
<g id="edge4" class="edge">
<title>0&#45;&gt;4</title>
<path fill="none" stroke="black" d="M489.15,-96.22C442.92,-85.03 357.11,-62.77 286.55,-36 284.71,-35.3 282.83,-34.55 280.94,-33.76"/>
<polygon fill="black" stroke="black" points="282.19,-30.48 271.63,-29.63 279.35,-36.88 282.19,-30.48"/>
<text text-anchor="middle" x="396.05" y="-57.8" font-family="Times,serif" font-size="14.00">dep</text>
</g>
<!-- 5 -->
<g id="node6" class="node">
<title>5</title>
<ellipse fill="none" stroke="black" cx="357.55" cy="-18" rx="61.99" ry="18"/>
<text text-anchor="middle" x="357.55" y="-14.3" font-family="Times,serif" font-size="14.00">Multimídia</text>
</g>
<!-- 0&#45;&gt;5 -->
<g id="edge5" class="edge">
<title>0&#45;&gt;5</title>
<path fill="none" stroke="black" d="M497.85,-91.27C470.76,-77.32 426.98,-54.77 395.52,-38.56"/>
<polygon fill="black" stroke="black" points="397.09,-35.43 386.59,-33.96 393.88,-41.65 397.09,-35.43"/>
<text text-anchor="middle" x="464.05" y="-57.8" font-family="Times,serif" font-size="14.00">dep</text>
</g>
<!-- 6 -->
<g id="node7" class="node">
<title>6</title>
<ellipse fill="none" stroke="black" cx="479.55" cy="-18" rx="42.49" ry="18"/>
<text text-anchor="middle" x="479.55" y="-14.3" font-family="Times,serif" font-size="14.00">Center</text>
</g>
<!-- 0&#45;&gt;6 -->
<g id="edge6" class="edge">
<title>0&#45;&gt;6</title>
<path fill="none" stroke="black" d="M514.05,-87.21C507.93,-75.1 499.55,-58.53 492.58,-44.76"/>
<polygon fill="black" stroke="black" points="495.66,-43.1 488.03,-35.76 489.42,-46.26 495.66,-43.1"/>
<text text-anchor="middle" x="518.05" y="-57.8" font-family="Times,serif" font-size="14.00">dep</text>
</g>
<!-- 7 -->
<g id="node8" class="node">
<title>7</title>
<ellipse fill="none" stroke="black" cx="566.55" cy="-18" rx="27" ry="18"/>
<text text-anchor="middle" x="566.55" y="-14.3" font-family="Times,serif" font-size="14.00">(</text>
</g>
<!-- 0&#45;&gt;7 -->
<g id="edge7" class="edge">
<title>0&#45;&gt;7</title>
<path fill="none" stroke="black" d="M531.24,-87.21C537.59,-74.94 546.31,-58.1 553.49,-44.22"/>
<polygon fill="black" stroke="black" points="556.68,-45.67 558.17,-35.18 550.47,-42.45 556.68,-45.67"/>
<text text-anchor="middle" x="561.05" y="-57.8" font-family="Times,serif" font-size="14.00">dep</text>
</g>
<!-- 8 -->
<g id="node9" class="node">
<title>8</title>
<ellipse fill="none" stroke="black" cx="638.55" cy="-18" rx="27" ry="18"/>
<text text-anchor="middle" x="638.55" y="-14.3" font-family="Times,serif" font-size="14.00">tel</text>
</g>
<!-- 0&#45;&gt;8 -->
<g id="edge8" class="edge">
<title>0&#45;&gt;8</title>
<path fill="none" stroke="black" d="M545.62,-90.55C555.91,-84.31 568.05,-76.6 578.55,-69 591.06,-59.94 604.32,-49.04 615.19,-39.73"/>
<polygon fill="black" stroke="black" points="617.71,-42.17 622.98,-32.98 613.13,-36.88 617.71,-42.17"/>
<text text-anchor="middle" x="611.05" y="-57.8" font-family="Times,serif" font-size="14.00">dep</text>
</g>
<!-- 9 -->
<g id="node10" class="node">
<title>9</title>
<ellipse fill="none" stroke="black" cx="712.55" cy="-18" rx="28.7" ry="18"/>
<text text-anchor="middle" x="712.55" y="-14.3" font-family="Times,serif" font-size="14.00">011</text>
</g>
<!-- 0&#45;&gt;9 -->
<g id="edge9" class="edge">
<title>0&#45;&gt;9</title>
<path fill="none" stroke="black" d="M554.78,-95.35C576.15,-89.13 604.57,-79.94 628.55,-69 648.17,-60.05 669,-47.67 685.02,-37.46"/>
<polygon fill="black" stroke="black" points="687.35,-40.12 693.84,-31.75 683.55,-34.25 687.35,-40.12"/>
<text text-anchor="middle" x="671.05" y="-57.8" font-family="Times,serif" font-size="14.00">dep</text>
</g>
<!-- 10 -->
<g id="node11" class="node">
<title>10</title>
<ellipse fill="none" stroke="black" cx="813.55" cy="-18" rx="54.69" ry="18"/>
<text text-anchor="middle" x="813.55" y="-14.3" font-family="Times,serif" font-size="14.00">959&#45;2650</text>
</g>
<!-- 0&#45;&gt;10 -->
<g id="edge10" class="edge">
<title>0&#45;&gt;10</title>
<path fill="none" stroke="black" d="M557.64,-98.42C591.55,-92.6 644.15,-82.45 688.55,-69 717.68,-60.18 749.51,-47.39 773.77,-36.96"/>
<polygon fill="black" stroke="black" points="775.22,-40.14 783,-32.94 772.43,-33.72 775.22,-40.14"/>
<text text-anchor="middle" x="744.05" y="-57.8" font-family="Times,serif" font-size="14.00">dep</text>
</g>
<!-- 11 -->
<g id="node12" class="node">
<title>11</title>
<ellipse fill="none" stroke="black" cx="913.55" cy="-18" rx="27" ry="18"/>
<text text-anchor="middle" x="913.55" y="-14.3" font-family="Times,serif" font-size="14.00">)</text>
</g>
<!-- 0&#45;&gt;11 -->
<g id="edge11" class="edge">
<title>0&#45;&gt;11</title>
<path fill="none" stroke="black" d="M559.43,-101.08C625.19,-94.98 766.22,-77.8 877.55,-36 879.39,-35.31 881.27,-34.56 883.16,-33.77"/>
<polygon fill="black" stroke="black" points="884.74,-36.9 892.48,-29.66 881.91,-30.5 884.74,-36.9"/>
<text text-anchor="middle" x="835.05" y="-57.8" font-family="Times,serif" font-size="14.00">dep</text>
</g>
<!-- 12 -->
<g id="node13" class="node">
<title>12</title>
<ellipse fill="none" stroke="black" cx="985.55" cy="-18" rx="27" ry="18"/>
<text text-anchor="middle" x="985.55" y="-14.3" font-family="Times,serif" font-size="14.00">.</text>
</g>
<!-- 0&#45;&gt;12 -->
<g id="edge12" class="edge">
<title>0&#45;&gt;12</title>
<path fill="none" stroke="black" d="M560.1,-102.73C621.79,-100.04 748.18,-91.99 852.55,-69 897.02,-59.2 907.34,-53.08 949.55,-36 951.37,-35.26 953.24,-34.48 955.11,-33.66"/>
<polygon fill="black" stroke="black" points="956.73,-36.77 964.4,-29.47 953.85,-30.39 956.73,-36.77"/>
<text text-anchor="middle" x="919.05" y="-57.8" font-family="Times,serif" font-size="14.00">dep</text>
</g>
</g>
</svg>
