<?xml version="1.0" encoding="UTF-8" standalone="no"?>
<!DOCTYPE svg PUBLIC "-//W3C//DTD SVG 1.1//EN"
 "http://www.w3.org/Graphics/SVG/1.1/DTD/svg11.dtd">
<!-- Generated by graphviz version 2.42.4 (0)
 -->
<!-- Pages: 1 -->
<svg width="382pt" height="131pt"
 viewBox="0.00 0.00 382.00 131.00" xmlns="http://www.w3.org/2000/svg" xmlns:xlink="http://www.w3.org/1999/xlink">
<g id="graph0" class="graph" transform="scale(1 1) rotate(0) translate(4 127)">
<polygon fill="white" stroke="transparent" points="-4,4 -4,-127 378,-127 378,4 -4,4"/>
<!-- 0 -->
<g id="node1" class="node">
<title>0</title>
<ellipse fill="none" stroke="black" cx="161" cy="-105" rx="38.19" ry="18"/>
<text text-anchor="middle" x="161" y="-101.3" font-family="Times,serif" font-size="14.00">Sobre</text>
</g>
<!-- 1 -->
<g id="node2" class="node">
<title>1</title>
<ellipse fill="none" stroke="black" cx="27" cy="-18" rx="27" ry="18"/>
<text text-anchor="middle" x="27" y="-14.3" font-family="Times,serif" font-size="14.00">«</text>
</g>
<!-- 0&#45;&gt;1 -->
<g id="edge1" class="edge">
<title>0&#45;&gt;1</title>
<path fill="none" stroke="black" d="M135.55,-91.3C123.37,-84.97 108.7,-76.97 96,-69 81.03,-59.61 65.01,-48.09 52.18,-38.49"/>
<polygon fill="black" stroke="black" points="53.94,-35.43 43.86,-32.19 49.72,-41.01 53.94,-35.43"/>
<text text-anchor="middle" x="109.5" y="-57.8" font-family="Times,serif" font-size="14.00">dep</text>
</g>
<!-- 2 -->
<g id="node3" class="node">
<title>2</title>
<ellipse fill="none" stroke="black" cx="99" cy="-18" rx="27" ry="18"/>
<text text-anchor="middle" x="99" y="-14.3" font-family="Times,serif" font-size="14.00">À</text>
</g>
<!-- 0&#45;&gt;2 -->
<g id="edge2" class="edge">
<title>0&#45;&gt;2</title>
<path fill="none" stroke="black" d="M149.05,-87.61C139.78,-74.91 126.81,-57.12 116.39,-42.84"/>
<polygon fill="black" stroke="black" points="119.01,-40.5 110.29,-34.48 113.36,-44.62 119.01,-40.5"/>
<text text-anchor="middle" x="147.5" y="-57.8" font-family="Times,serif" font-size="14.00">dep</text>
</g>
<!-- 3 -->
<g id="node4" class="node">
<title>3</title>
<ellipse fill="none" stroke="black" cx="223" cy="-18" rx="78.79" ry="18"/>
<text text-anchor="middle" x="223" y="-14.3" font-family="Times,serif" font-size="14.00">Queima&#45;Roupa</text>
</g>
<!-- 0&#45;&gt;3 -->
<g id="edge3" class="edge">
<title>0&#45;&gt;3</title>
<path fill="none" stroke="black" d="M172.95,-87.61C181.93,-75.31 194.38,-58.23 204.62,-44.2"/>
<polygon fill="black" stroke="black" points="207.59,-46.06 210.66,-35.92 201.94,-41.94 207.59,-46.06"/>
<text text-anchor="middle" x="209.5" y="-57.8" font-family="Times,serif" font-size="14.00">dep</text>
</g>
<!-- 4 -->
<g id="node5" class="node">
<title>4</title>
<ellipse fill="none" stroke="black" cx="347" cy="-18" rx="27" ry="18"/>
<text text-anchor="middle" x="347" y="-14.3" font-family="Times,serif" font-size="14.00">»</text>
</g>
<!-- 0&#45;&gt;4 -->
<g id="edge4" class="edge">
<title>0&#45;&gt;4</title>
<path fill="none" stroke="black" d="M187.88,-91.96C217.94,-78.47 268.05,-55.87 311,-36 312.79,-35.17 314.62,-34.32 316.47,-33.45"/>
<polygon fill="black" stroke="black" points="318.14,-36.54 325.71,-29.12 315.17,-30.2 318.14,-36.54"/>
<text text-anchor="middle" x="283.5" y="-57.8" font-family="Times,serif" font-size="14.00">dep</text>
</g>
</g>
</svg>
