<?xml version="1.0" encoding="UTF-8" standalone="no"?>
<!DOCTYPE svg PUBLIC "-//W3C//DTD SVG 1.1//EN"
 "http://www.w3.org/Graphics/SVG/1.1/DTD/svg11.dtd">
<!-- Generated by graphviz version 2.42.4 (0)
 -->
<!-- Pages: 1 -->
<svg width="1399pt" height="131pt"
 viewBox="0.00 0.00 1398.60 131.00" xmlns="http://www.w3.org/2000/svg" xmlns:xlink="http://www.w3.org/1999/xlink">
<g id="graph0" class="graph" transform="scale(1 1) rotate(0) translate(4 127)">
<polygon fill="white" stroke="transparent" points="-4,4 -4,-127 1394.6,-127 1394.6,4 -4,4"/>
<!-- 0 -->
<g id="node1" class="node">
<title>0</title>
<ellipse fill="none" stroke="black" cx="741.6" cy="-105" rx="42.49" ry="18"/>
<text text-anchor="middle" x="741.6" y="-101.3" font-family="Times,serif" font-size="14.00">Alguns</text>
</g>
<!-- 1 -->
<g id="node2" class="node">
<title>1</title>
<ellipse fill="none" stroke="black" cx="41.6" cy="-18" rx="41.69" ry="18"/>
<text text-anchor="middle" x="41.6" y="-14.3" font-family="Times,serif" font-size="14.00">prazos</text>
</g>
<!-- 0&#45;&gt;1 -->
<g id="edge1" class="edge">
<title>0&#45;&gt;1</title>
<path fill="none" stroke="black" d="M699.11,-104.54C607.32,-105 383.97,-102.23 200.6,-69 158.67,-61.4 112.36,-46 80.59,-34.29"/>
<polygon fill="black" stroke="black" points="81.81,-31 71.22,-30.78 79.36,-37.56 81.81,-31"/>
<text text-anchor="middle" x="214.1" y="-57.8" font-family="Times,serif" font-size="14.00">dep</text>
</g>
<!-- 2 -->
<g id="node3" class="node">
<title>2</title>
<ellipse fill="none" stroke="black" cx="136.6" cy="-18" rx="36" ry="18"/>
<text text-anchor="middle" x="136.6" y="-14.3" font-family="Times,serif" font-size="14.00">estão</text>
</g>
<!-- 0&#45;&gt;2 -->
<g id="edge2" class="edge">
<title>0&#45;&gt;2</title>
<path fill="none" stroke="black" d="M699.26,-104.04C618.05,-103.4 435.12,-98.46 284.6,-69 245.26,-61.3 202.01,-45.83 172.48,-34.12"/>
<polygon fill="black" stroke="black" points="173.61,-30.8 163.02,-30.31 170.99,-37.29 173.61,-30.8"/>
<text text-anchor="middle" x="298.1" y="-57.8" font-family="Times,serif" font-size="14.00">dep</text>
</g>
<!-- 3 -->
<g id="node4" class="node">
<title>3</title>
<ellipse fill="none" stroke="black" cx="217.6" cy="-18" rx="27" ry="18"/>
<text text-anchor="middle" x="217.6" y="-14.3" font-family="Times,serif" font-size="14.00">,</text>
</g>
<!-- 0&#45;&gt;3 -->
<g id="edge3" class="edge">
<title>0&#45;&gt;3</title>
<path fill="none" stroke="black" d="M700.03,-101.22C636.06,-96.6 509.74,-86.12 403.6,-69 336.21,-58.13 318.2,-58.05 253.6,-36 251.68,-35.35 249.74,-34.62 247.79,-33.85"/>
<polygon fill="black" stroke="black" points="248.77,-30.46 238.21,-29.7 245.99,-36.88 248.77,-30.46"/>
<text text-anchor="middle" x="417.1" y="-57.8" font-family="Times,serif" font-size="14.00">dep</text>
</g>
<!-- 4 -->
<g id="node5" class="node">
<title>4</title>
<ellipse fill="none" stroke="black" cx="312.6" cy="-18" rx="50.09" ry="18"/>
<text text-anchor="middle" x="312.6" y="-14.3" font-family="Times,serif" font-size="14.00">segundo</text>
</g>
<!-- 0&#45;&gt;4 -->
<g id="edge4" class="edge">
<title>0&#45;&gt;4</title>
<path fill="none" stroke="black" d="M700.95,-99.83C651.61,-94.41 566.01,-83.84 493.6,-69 438.57,-57.72 425.7,-51.11 371.6,-36 367.83,-34.95 363.94,-33.85 360.03,-32.74"/>
<polygon fill="black" stroke="black" points="360.92,-29.35 350.34,-29.97 358.99,-36.09 360.92,-29.35"/>
<text text-anchor="middle" x="507.1" y="-57.8" font-family="Times,serif" font-size="14.00">dep</text>
</g>
<!-- 5 -->
<g id="node6" class="node">
<title>5</title>
<ellipse fill="none" stroke="black" cx="421.6" cy="-18" rx="40.89" ry="18"/>
<text text-anchor="middle" x="421.6" y="-14.3" font-family="Times,serif" font-size="14.00">Sérgio</text>
</g>
<!-- 0&#45;&gt;5 -->
<g id="edge5" class="edge">
<title>0&#45;&gt;5</title>
<path fill="none" stroke="black" d="M703.53,-97.18C669.51,-90.82 618.42,-80.58 574.6,-69 528.12,-56.72 517.24,-51.07 471.6,-36 468.64,-35.03 465.6,-34.01 462.53,-32.98"/>
<polygon fill="black" stroke="black" points="463.37,-29.57 452.77,-29.7 461.13,-36.21 463.37,-29.57"/>
<text text-anchor="middle" x="588.1" y="-57.8" font-family="Times,serif" font-size="14.00">dep</text>
</g>
<!-- 6 -->
<g id="node7" class="node">
<title>6</title>
<ellipse fill="none" stroke="black" cx="530.6" cy="-18" rx="50.09" ry="18"/>
<text text-anchor="middle" x="530.6" y="-14.3" font-family="Times,serif" font-size="14.00">Figueira</text>
</g>
<!-- 0&#45;&gt;6 -->
<g id="edge6" class="edge">
<title>0&#45;&gt;6</title>
<path fill="none" stroke="black" d="M708,-93.75C687.45,-87.22 660.76,-78.28 637.6,-69 613.93,-59.52 588.02,-47.46 567.62,-37.56"/>
<polygon fill="black" stroke="black" points="568.9,-34.29 558.38,-33.03 565.82,-40.57 568.9,-34.29"/>
<text text-anchor="middle" x="651.1" y="-57.8" font-family="Times,serif" font-size="14.00">dep</text>
</g>
<!-- 7 -->
<g id="node8" class="node">
<title>7</title>
<ellipse fill="none" stroke="black" cx="625.6" cy="-18" rx="27" ry="18"/>
<text text-anchor="middle" x="625.6" y="-14.3" font-family="Times,serif" font-size="14.00">,</text>
</g>
<!-- 0&#45;&gt;7 -->
<g id="edge7" class="edge">
<title>0&#45;&gt;7</title>
<path fill="none" stroke="black" d="M718.17,-89.96C708.25,-83.79 696.68,-76.3 686.6,-69 673.74,-59.69 660.03,-48.57 648.87,-39.18"/>
<polygon fill="black" stroke="black" points="651.12,-36.5 641.24,-32.7 646.59,-41.84 651.12,-36.5"/>
<text text-anchor="middle" x="700.1" y="-57.8" font-family="Times,serif" font-size="14.00">dep</text>
</g>
<!-- 8 -->
<g id="node9" class="node">
<title>8</title>
<ellipse fill="none" stroke="black" cx="697.6" cy="-18" rx="27" ry="18"/>
<text text-anchor="middle" x="697.6" y="-14.3" font-family="Times,serif" font-size="14.00">a</text>
</g>
<!-- 0&#45;&gt;8 -->
<g id="edge8" class="edge">
<title>0&#45;&gt;8</title>
<path fill="none" stroke="black" d="M732.9,-87.21C726.55,-74.94 717.84,-58.1 710.65,-44.22"/>
<polygon fill="black" stroke="black" points="713.68,-42.45 705.97,-35.18 707.46,-45.67 713.68,-42.45"/>
<text text-anchor="middle" x="736.1" y="-57.8" font-family="Times,serif" font-size="14.00">dep</text>
</g>
<!-- 9 -->
<g id="node10" class="node">
<title>9</title>
<ellipse fill="none" stroke="black" cx="785.6" cy="-18" rx="42.79" ry="18"/>
<text text-anchor="middle" x="785.6" y="-14.3" font-family="Times,serif" font-size="14.00">poucos</text>
</g>
<!-- 0&#45;&gt;9 -->
<g id="edge9" class="edge">
<title>0&#45;&gt;9</title>
<path fill="none" stroke="black" d="M750.29,-87.21C756.56,-75.1 765.13,-58.53 772.26,-44.76"/>
<polygon fill="black" stroke="black" points="775.43,-46.25 776.92,-35.76 769.22,-43.03 775.43,-46.25"/>
<text text-anchor="middle" x="780.1" y="-57.8" font-family="Times,serif" font-size="14.00">dep</text>
</g>
<!-- 10 -->
<g id="node11" class="node">
<title>10</title>
<ellipse fill="none" stroke="black" cx="876.6" cy="-18" rx="29.8" ry="18"/>
<text text-anchor="middle" x="876.6" y="-14.3" font-family="Times,serif" font-size="14.00">dias</text>
</g>
<!-- 0&#45;&gt;10 -->
<g id="edge10" class="edge">
<title>0&#45;&gt;10</title>
<path fill="none" stroke="black" d="M764.5,-89.73C774.65,-83.39 786.73,-75.84 797.6,-69 814.32,-58.48 833,-46.66 848,-37.15"/>
<polygon fill="black" stroke="black" points="850.24,-39.88 856.81,-31.57 846.49,-33.97 850.24,-39.88"/>
<text text-anchor="middle" x="833.1" y="-57.8" font-family="Times,serif" font-size="14.00">dep</text>
</g>
<!-- 11 -->
<g id="node12" class="node">
<title>11</title>
<ellipse fill="none" stroke="black" cx="951.6" cy="-18" rx="27" ry="18"/>
<text text-anchor="middle" x="951.6" y="-14.3" font-family="Times,serif" font-size="14.00">de</text>
</g>
<!-- 0&#45;&gt;11 -->
<g id="edge11" class="edge">
<title>0&#45;&gt;11</title>
<path fill="none" stroke="black" d="M775.94,-94.4C797.64,-87.99 826.1,-78.93 850.6,-69 875.48,-58.91 902.72,-45.26 922.63,-34.78"/>
<polygon fill="black" stroke="black" points="924.32,-37.85 931.5,-30.06 921.03,-31.67 924.32,-37.85"/>
<text text-anchor="middle" x="896.1" y="-57.8" font-family="Times,serif" font-size="14.00">dep</text>
</g>
<!-- 12 -->
<g id="node13" class="node">
<title>12</title>
<ellipse fill="none" stroke="black" cx="1038.6" cy="-18" rx="42.49" ry="18"/>
<text text-anchor="middle" x="1038.6" y="-14.3" font-family="Times,serif" font-size="14.00">chegar</text>
</g>
<!-- 0&#45;&gt;12 -->
<g id="edge12" class="edge">
<title>0&#45;&gt;12</title>
<path fill="none" stroke="black" d="M780.68,-98.11C815.87,-92.32 868.78,-82.4 913.6,-69 943.84,-59.95 976.97,-46.53 1001.52,-35.87"/>
<polygon fill="black" stroke="black" points="1003.06,-39.02 1010.81,-31.79 1000.25,-32.61 1003.06,-39.02"/>
<text text-anchor="middle" x="969.1" y="-57.8" font-family="Times,serif" font-size="14.00">dep</text>
</g>
<!-- 13 -->
<g id="node14" class="node">
<title>13</title>
<ellipse fill="none" stroke="black" cx="1125.6" cy="-18" rx="27" ry="18"/>
<text text-anchor="middle" x="1125.6" y="-14.3" font-family="Times,serif" font-size="14.00">a</text>
</g>
<!-- 0&#45;&gt;13 -->
<g id="edge13" class="edge">
<title>0&#45;&gt;13</title>
<path fill="none" stroke="black" d="M782.73,-100.26C831.72,-95.31 915.83,-85.27 986.6,-69 1033.44,-58.23 1044.88,-53.63 1089.6,-36 1091.43,-35.28 1093.3,-34.5 1095.18,-33.7"/>
<polygon fill="black" stroke="black" points="1096.78,-36.82 1104.48,-29.54 1093.92,-30.43 1096.78,-36.82"/>
<text text-anchor="middle" x="1055.1" y="-57.8" font-family="Times,serif" font-size="14.00">dep</text>
</g>
<!-- 14 -->
<g id="node15" class="node">
<title>14</title>
<ellipse fill="none" stroke="black" cx="1197.6" cy="-18" rx="27" ry="18"/>
<text text-anchor="middle" x="1197.6" y="-14.3" font-family="Times,serif" font-size="14.00">o</text>
</g>
<!-- 0&#45;&gt;14 -->
<g id="edge14" class="edge">
<title>0&#45;&gt;14</title>
<path fill="none" stroke="black" d="M783.7,-102.9C847.12,-100.5 970.62,-92.9 1072.6,-69 1106.15,-61.14 1142.51,-45.75 1167.32,-34.11"/>
<polygon fill="black" stroke="black" points="1169.04,-37.17 1176.56,-29.7 1166.02,-30.85 1169.04,-37.17"/>
<text text-anchor="middle" x="1132.1" y="-57.8" font-family="Times,serif" font-size="14.00">dep</text>
</g>
<!-- 15 -->
<g id="node16" class="node">
<title>15</title>
<ellipse fill="none" stroke="black" cx="1280.6" cy="-18" rx="37.89" ry="18"/>
<text text-anchor="middle" x="1280.6" y="-14.3" font-family="Times,serif" font-size="14.00">limite</text>
</g>
<!-- 0&#45;&gt;15 -->
<g id="edge15" class="edge">
<title>0&#45;&gt;15</title>
<path fill="none" stroke="black" d="M783.89,-104.23C858.65,-103.78 1018.62,-98.99 1149.6,-69 1183.05,-61.34 1219.39,-46.95 1245.29,-35.57"/>
<polygon fill="black" stroke="black" points="1246.97,-38.65 1254.68,-31.37 1244.12,-32.26 1246.97,-38.65"/>
<text text-anchor="middle" x="1211.1" y="-57.8" font-family="Times,serif" font-size="14.00">dep</text>
</g>
<!-- 16 -->
<g id="node17" class="node">
<title>16</title>
<ellipse fill="none" stroke="black" cx="1363.6" cy="-18" rx="27" ry="18"/>
<text text-anchor="middle" x="1363.6" y="-14.3" font-family="Times,serif" font-size="14.00">.</text>
</g>
<!-- 0&#45;&gt;16 -->
<g id="edge16" class="edge">
<title>0&#45;&gt;16</title>
<path fill="none" stroke="black" d="M784.09,-104.49C869.28,-104.7 1066.7,-101.27 1228.6,-69 1274.08,-59.93 1284.55,-53.27 1327.6,-36 1329.42,-35.27 1331.29,-34.49 1333.17,-33.68"/>
<polygon fill="black" stroke="black" points="1334.78,-36.79 1342.46,-29.49 1331.91,-30.41 1334.78,-36.79"/>
<text text-anchor="middle" x="1296.1" y="-57.8" font-family="Times,serif" font-size="14.00">dep</text>
</g>
</g>
</svg>
