<?xml version="1.0" encoding="UTF-8" standalone="no"?>
<!DOCTYPE svg PUBLIC "-//W3C//DTD SVG 1.1//EN"
 "http://www.w3.org/Graphics/SVG/1.1/DTD/svg11.dtd">
<!-- Generated by graphviz version 2.42.4 (0)
 -->
<!-- Pages: 1 -->
<svg width="3057pt" height="131pt"
 viewBox="0.00 0.00 3057.25 131.00" xmlns="http://www.w3.org/2000/svg" xmlns:xlink="http://www.w3.org/1999/xlink">
<g id="graph0" class="graph" transform="scale(1 1) rotate(0) translate(4 127)">
<polygon fill="white" stroke="transparent" points="-4,4 -4,-127 3053.25,-127 3053.25,4 -4,4"/>
<!-- 0 -->
<g id="node1" class="node">
<title>0</title>
<ellipse fill="none" stroke="black" cx="1588.25" cy="-105" rx="27" ry="18"/>
<text text-anchor="middle" x="1588.25" y="-101.3" font-family="Times,serif" font-size="14.00">Há</text>
</g>
<!-- 1 -->
<g id="node2" class="node">
<title>1</title>
<ellipse fill="none" stroke="black" cx="42.25" cy="-18" rx="42.49" ry="18"/>
<text text-anchor="middle" x="42.25" y="-14.3" font-family="Times,serif" font-size="14.00">muitos</text>
</g>
<!-- 0&#45;&gt;1 -->
<g id="edge1" class="edge">
<title>0&#45;&gt;1</title>
<path fill="none" stroke="black" d="M1561.19,-104.11C1393.74,-104.69 497.03,-106.01 225.25,-69 175.43,-62.22 119.96,-45.75 83.29,-33.55"/>
<polygon fill="black" stroke="black" points="84.06,-30.12 73.46,-30.24 81.82,-36.75 84.06,-30.12"/>
<text text-anchor="middle" x="238.75" y="-57.8" font-family="Times,serif" font-size="14.00">dep</text>
</g>
<!-- 2 -->
<g id="node3" class="node">
<title>2</title>
<ellipse fill="none" stroke="black" cx="162.25" cy="-18" rx="59.59" ry="18"/>
<text text-anchor="middle" x="162.25" y="-14.3" font-family="Times,serif" font-size="14.00">servidores</text>
</g>
<!-- 0&#45;&gt;2 -->
<g id="edge2" class="edge">
<title>0&#45;&gt;2</title>
<path fill="none" stroke="black" d="M1561.26,-103.72C1388.67,-101.87 442.79,-90.82 316.25,-69 277.75,-62.36 235.67,-48.2 205.24,-36.64"/>
<polygon fill="black" stroke="black" points="206.38,-33.32 195.79,-32.98 203.86,-39.85 206.38,-33.32"/>
<text text-anchor="middle" x="329.75" y="-57.8" font-family="Times,serif" font-size="14.00">dep</text>
</g>
<!-- 3 -->
<g id="node4" class="node">
<title>3</title>
<ellipse fill="none" stroke="black" cx="267.25" cy="-18" rx="27" ry="18"/>
<text text-anchor="middle" x="267.25" y="-14.3" font-family="Times,serif" font-size="14.00">de</text>
</g>
<!-- 0&#45;&gt;3 -->
<g id="edge3" class="edge">
<title>0&#45;&gt;3</title>
<path fill="none" stroke="black" d="M1561.16,-103.69C1395.01,-101.74 516.89,-90.44 399.25,-69 362.9,-62.38 323.59,-46.22 297.41,-34.05"/>
<polygon fill="black" stroke="black" points="298.59,-30.73 288.05,-29.61 295.59,-37.06 298.59,-30.73"/>
<text text-anchor="middle" x="412.75" y="-57.8" font-family="Times,serif" font-size="14.00">dep</text>
</g>
<!-- 4 -->
<g id="node5" class="node">
<title>4</title>
<ellipse fill="none" stroke="black" cx="339.25" cy="-18" rx="27" ry="18"/>
<text text-anchor="middle" x="339.25" y="-14.3" font-family="Times,serif" font-size="14.00">a</text>
</g>
<!-- 0&#45;&gt;4 -->
<g id="edge4" class="edge">
<title>0&#45;&gt;4</title>
<path fill="none" stroke="black" d="M1561.24,-103.93C1414.98,-103.45 716.63,-99.57 503.25,-69 445.09,-60.67 430.5,-55.97 375.25,-36 373.39,-35.33 371.51,-34.6 369.62,-33.83"/>
<polygon fill="black" stroke="black" points="370.85,-30.55 360.28,-29.75 368.04,-36.96 370.85,-30.55"/>
<text text-anchor="middle" x="516.75" y="-57.8" font-family="Times,serif" font-size="14.00">dep</text>
</g>
<!-- 5 -->
<g id="node6" class="node">
<title>5</title>
<ellipse fill="none" stroke="black" cx="433.25" cy="-18" rx="48.99" ry="18"/>
<text text-anchor="middle" x="433.25" y="-14.3" font-family="Times,serif" font-size="14.00">Internet</text>
</g>
<!-- 0&#45;&gt;5 -->
<g id="edge5" class="edge">
<title>0&#45;&gt;5</title>
<path fill="none" stroke="black" d="M1561.15,-104.04C1421.84,-104.1 785.39,-102.48 591.25,-69 550.7,-62.01 506.14,-47.22 474.71,-35.53"/>
<polygon fill="black" stroke="black" points="475.58,-32.12 464.99,-31.86 473.11,-38.67 475.58,-32.12"/>
<text text-anchor="middle" x="604.75" y="-57.8" font-family="Times,serif" font-size="14.00">dep</text>
</g>
<!-- 6 -->
<g id="node7" class="node">
<title>6</title>
<ellipse fill="none" stroke="black" cx="528.25" cy="-18" rx="27.9" ry="18"/>
<text text-anchor="middle" x="528.25" y="-14.3" font-family="Times,serif" font-size="14.00">que</text>
</g>
<!-- 0&#45;&gt;6 -->
<g id="edge6" class="edge">
<title>0&#45;&gt;6</title>
<path fill="none" stroke="black" d="M1560.9,-103.63C1431.04,-101.77 875.81,-92.54 704.25,-69 641.34,-60.37 625.28,-56.69 565.25,-36 563.34,-35.34 561.4,-34.62 559.46,-33.86"/>
<polygon fill="black" stroke="black" points="560.44,-30.47 549.87,-29.8 557.71,-36.92 560.44,-30.47"/>
<text text-anchor="middle" x="717.75" y="-57.8" font-family="Times,serif" font-size="14.00">dep</text>
</g>
<!-- 7 -->
<g id="node8" class="node">
<title>7</title>
<ellipse fill="none" stroke="black" cx="619.25" cy="-18" rx="44.69" ry="18"/>
<text text-anchor="middle" x="619.25" y="-14.3" font-family="Times,serif" font-size="14.00">contêm</text>
</g>
<!-- 0&#45;&gt;7 -->
<g id="edge7" class="edge">
<title>0&#45;&gt;7</title>
<path fill="none" stroke="black" d="M1560.97,-103.49C1440.84,-101.13 958.2,-90.48 808.25,-69 757.05,-61.67 699.84,-45.35 661.91,-33.34"/>
<polygon fill="black" stroke="black" points="662.81,-29.95 652.22,-30.23 660.67,-36.62 662.81,-29.95"/>
<text text-anchor="middle" x="821.75" y="-57.8" font-family="Times,serif" font-size="14.00">dep</text>
</g>
<!-- 8 -->
<g id="node9" class="node">
<title>8</title>
<ellipse fill="none" stroke="black" cx="726.25" cy="-18" rx="44.39" ry="18"/>
<text text-anchor="middle" x="726.25" y="-14.3" font-family="Times,serif" font-size="14.00">imenso</text>
</g>
<!-- 0&#45;&gt;8 -->
<g id="edge8" class="edge">
<title>0&#45;&gt;8</title>
<path fill="none" stroke="black" d="M1561.34,-103.39C1450.97,-100.75 1032.7,-89.59 902.25,-69 855.21,-61.58 802.91,-45.7 767.64,-33.82"/>
<polygon fill="black" stroke="black" points="768.76,-30.5 758.16,-30.58 766.5,-37.13 768.76,-30.5"/>
<text text-anchor="middle" x="915.75" y="-57.8" font-family="Times,serif" font-size="14.00">dep</text>
</g>
<!-- 9 -->
<g id="node10" class="node">
<title>9</title>
<ellipse fill="none" stroke="black" cx="838.25" cy="-18" rx="50.09" ry="18"/>
<text text-anchor="middle" x="838.25" y="-14.3" font-family="Times,serif" font-size="14.00">material</text>
</g>
<!-- 0&#45;&gt;9 -->
<g id="edge9" class="edge">
<title>0&#45;&gt;9</title>
<path fill="none" stroke="black" d="M1561.25,-103.38C1459.55,-100.89 1099.61,-90.72 987.25,-69 949.7,-61.74 908.6,-47.44 879.1,-35.99"/>
<polygon fill="black" stroke="black" points="880.15,-32.64 869.56,-32.23 877.58,-39.15 880.15,-32.64"/>
<text text-anchor="middle" x="1000.75" y="-57.8" font-family="Times,serif" font-size="14.00">dep</text>
</g>
<!-- 10 -->
<g id="node11" class="node">
<title>10</title>
<ellipse fill="none" stroke="black" cx="934.25" cy="-18" rx="27.9" ry="18"/>
<text text-anchor="middle" x="934.25" y="-14.3" font-family="Times,serif" font-size="14.00">que</text>
</g>
<!-- 0&#45;&gt;10 -->
<g id="edge10" class="edge">
<title>0&#45;&gt;10</title>
<path fill="none" stroke="black" d="M1561.03,-104.54C1483.59,-105.58 1255.77,-105.09 1071.25,-69 1033.85,-61.68 993.07,-45.69 965.81,-33.75"/>
<polygon fill="black" stroke="black" points="966.97,-30.43 956.41,-29.55 964.12,-36.82 966.97,-30.43"/>
<text text-anchor="middle" x="1084.75" y="-57.8" font-family="Times,serif" font-size="14.00">dep</text>
</g>
<!-- 11 -->
<g id="node12" class="node">
<title>11</title>
<ellipse fill="none" stroke="black" cx="1013.25" cy="-18" rx="33.29" ry="18"/>
<text text-anchor="middle" x="1013.25" y="-14.3" font-family="Times,serif" font-size="14.00">pode</text>
</g>
<!-- 0&#45;&gt;11 -->
<g id="edge11" class="edge">
<title>0&#45;&gt;11</title>
<path fill="none" stroke="black" d="M1561.2,-104.11C1492.35,-103.88 1305.2,-100.21 1153.25,-69 1115.93,-61.34 1075.11,-45.89 1047.22,-34.18"/>
<polygon fill="black" stroke="black" points="1048.5,-30.92 1037.93,-30.21 1045.75,-37.36 1048.5,-30.92"/>
<text text-anchor="middle" x="1166.75" y="-57.8" font-family="Times,serif" font-size="14.00">dep</text>
</g>
<!-- 12 -->
<g id="node13" class="node">
<title>12</title>
<ellipse fill="none" stroke="black" cx="1091.25" cy="-18" rx="27" ry="18"/>
<text text-anchor="middle" x="1091.25" y="-14.3" font-family="Times,serif" font-size="14.00">ser</text>
</g>
<!-- 0&#45;&gt;12 -->
<g id="edge12" class="edge">
<title>0&#45;&gt;12</title>
<path fill="none" stroke="black" d="M1561.29,-102.52C1504.39,-99.1 1367.94,-89.34 1255.25,-69 1197.43,-58.57 1182.5,-55.97 1127.25,-36 1125.39,-35.33 1123.51,-34.6 1121.62,-33.83"/>
<polygon fill="black" stroke="black" points="1122.85,-30.55 1112.28,-29.75 1120.04,-36.96 1122.85,-30.55"/>
<text text-anchor="middle" x="1268.75" y="-57.8" font-family="Times,serif" font-size="14.00">dep</text>
</g>
<!-- 13 -->
<g id="node14" class="node">
<title>13</title>
<ellipse fill="none" stroke="black" cx="1182.25" cy="-18" rx="46.29" ry="18"/>
<text text-anchor="middle" x="1182.25" y="-14.3" font-family="Times,serif" font-size="14.00">acedido</text>
</g>
<!-- 0&#45;&gt;13 -->
<g id="edge13" class="edge">
<title>0&#45;&gt;13</title>
<path fill="none" stroke="black" d="M1561.33,-101.75C1515.23,-97.57 1418.36,-87.3 1338.25,-69 1298.84,-60 1255.11,-45.58 1224,-34.54"/>
<polygon fill="black" stroke="black" points="1224.96,-31.16 1214.36,-31.08 1222.6,-37.75 1224.96,-31.16"/>
<text text-anchor="middle" x="1351.75" y="-57.8" font-family="Times,serif" font-size="14.00">dep</text>
</g>
<!-- 14 -->
<g id="node15" class="node">
<title>14</title>
<ellipse fill="none" stroke="black" cx="1273.25" cy="-18" rx="27" ry="18"/>
<text text-anchor="middle" x="1273.25" y="-14.3" font-family="Times,serif" font-size="14.00">por</text>
</g>
<!-- 0&#45;&gt;14 -->
<g id="edge14" class="edge">
<title>0&#45;&gt;14</title>
<path fill="none" stroke="black" d="M1562.28,-99.69C1512.28,-90.96 1399.58,-69.14 1309.25,-36 1307.4,-35.32 1305.51,-34.58 1303.63,-33.81"/>
<polygon fill="black" stroke="black" points="1304.86,-30.53 1294.3,-29.71 1302.05,-36.94 1304.86,-30.53"/>
<text text-anchor="middle" x="1428.75" y="-57.8" font-family="Times,serif" font-size="14.00">dep</text>
</g>
<!-- 15 -->
<g id="node16" class="node">
<title>15</title>
<ellipse fill="none" stroke="black" cx="1370.25" cy="-18" rx="51.99" ry="18"/>
<text text-anchor="middle" x="1370.25" y="-14.3" font-family="Times,serif" font-size="14.00">qualquer</text>
</g>
<!-- 0&#45;&gt;15 -->
<g id="edge15" class="edge">
<title>0&#45;&gt;15</title>
<path fill="none" stroke="black" d="M1565.31,-95.09C1547.12,-88.02 1521.05,-77.89 1498.25,-69 1469.79,-57.91 1437.79,-45.41 1412.9,-35.68"/>
<polygon fill="black" stroke="black" points="1413.98,-32.34 1403.39,-31.96 1411.43,-38.86 1413.98,-32.34"/>
<text text-anchor="middle" x="1511.75" y="-57.8" font-family="Times,serif" font-size="14.00">dep</text>
</g>
<!-- 16 -->
<g id="node17" class="node">
<title>16</title>
<ellipse fill="none" stroke="black" cx="1482.25" cy="-18" rx="42.49" ry="18"/>
<text text-anchor="middle" x="1482.25" y="-14.3" font-family="Times,serif" font-size="14.00">pessoa</text>
</g>
<!-- 0&#45;&gt;16 -->
<g id="edge16" class="edge">
<title>0&#45;&gt;16</title>
<path fill="none" stroke="black" d="M1571.68,-90.72C1554.97,-77.32 1528.89,-56.41 1509.2,-40.61"/>
<polygon fill="black" stroke="black" points="1511.19,-37.72 1501.2,-34.2 1506.81,-43.18 1511.19,-37.72"/>
<text text-anchor="middle" x="1555.75" y="-57.8" font-family="Times,serif" font-size="14.00">dep</text>
</g>
<!-- 17 -->
<g id="node18" class="node">
<title>17</title>
<ellipse fill="none" stroke="black" cx="1588.25" cy="-18" rx="45.49" ry="18"/>
<text text-anchor="middle" x="1588.25" y="-14.3" font-family="Times,serif" font-size="14.00">através</text>
</g>
<!-- 0&#45;&gt;17 -->
<g id="edge17" class="edge">
<title>0&#45;&gt;17</title>
<path fill="none" stroke="black" d="M1588.25,-86.8C1588.25,-75.16 1588.25,-59.55 1588.25,-46.24"/>
<polygon fill="black" stroke="black" points="1591.75,-46.18 1588.25,-36.18 1584.75,-46.18 1591.75,-46.18"/>
<text text-anchor="middle" x="1601.75" y="-57.8" font-family="Times,serif" font-size="14.00">dep</text>
</g>
<!-- 18 -->
<g id="node19" class="node">
<title>18</title>
<ellipse fill="none" stroke="black" cx="1678.25" cy="-18" rx="27" ry="18"/>
<text text-anchor="middle" x="1678.25" y="-14.3" font-family="Times,serif" font-size="14.00">de</text>
</g>
<!-- 0&#45;&gt;18 -->
<g id="edge18" class="edge">
<title>0&#45;&gt;18</title>
<path fill="none" stroke="black" d="M1603.11,-89.96C1617.44,-76.43 1639.32,-55.77 1655.77,-40.22"/>
<polygon fill="black" stroke="black" points="1658.5,-42.47 1663.36,-33.06 1653.69,-37.38 1658.5,-42.47"/>
<text text-anchor="middle" x="1652.75" y="-57.8" font-family="Times,serif" font-size="14.00">dep</text>
</g>
<!-- 19 -->
<g id="node20" class="node">
<title>19</title>
<ellipse fill="none" stroke="black" cx="1750.25" cy="-18" rx="27" ry="18"/>
<text text-anchor="middle" x="1750.25" y="-14.3" font-family="Times,serif" font-size="14.00">um</text>
</g>
<!-- 0&#45;&gt;19 -->
<g id="edge19" class="edge">
<title>0&#45;&gt;19</title>
<path fill="none" stroke="black" d="M1611.31,-95.27C1627.99,-88.69 1650.9,-79.1 1670.25,-69 1688.57,-59.43 1708.28,-47.15 1723.54,-37.15"/>
<polygon fill="black" stroke="black" points="1725.57,-40 1731.98,-31.56 1721.71,-34.16 1725.57,-40"/>
<text text-anchor="middle" x="1708.75" y="-57.8" font-family="Times,serif" font-size="14.00">dep</text>
</g>
<!-- 20 -->
<g id="node21" class="node">
<title>20</title>
<ellipse fill="none" stroke="black" cx="1837.25" cy="-18" rx="41.69" ry="18"/>
<text text-anchor="middle" x="1837.25" y="-14.3" font-family="Times,serif" font-size="14.00">acesso</text>
</g>
<!-- 0&#45;&gt;20 -->
<g id="edge20" class="edge">
<title>0&#45;&gt;20</title>
<path fill="none" stroke="black" d="M1613.82,-98.92C1641.82,-93.03 1687.86,-82.4 1726.25,-69 1752.32,-59.9 1780.69,-47.06 1802.23,-36.68"/>
<polygon fill="black" stroke="black" points="1803.86,-39.78 1811.31,-32.24 1800.79,-33.48 1803.86,-39.78"/>
<text text-anchor="middle" x="1777.75" y="-57.8" font-family="Times,serif" font-size="14.00">dep</text>
</g>
<!-- 21 -->
<g id="node22" class="node">
<title>21</title>
<ellipse fill="none" stroke="black" cx="1947.25" cy="-18" rx="50.09" ry="18"/>
<text text-anchor="middle" x="1947.25" y="-14.3" font-family="Times,serif" font-size="14.00">anónimo</text>
</g>
<!-- 0&#45;&gt;21 -->
<g id="edge21" class="edge">
<title>0&#45;&gt;21</title>
<path fill="none" stroke="black" d="M1614.65,-100.83C1654.25,-95.78 1731.21,-84.85 1795.25,-69 1832.56,-59.76 1873.94,-45.91 1904.09,-35.12"/>
<polygon fill="black" stroke="black" points="1905.65,-38.28 1913.86,-31.59 1903.27,-31.7 1905.65,-38.28"/>
<text text-anchor="middle" x="1859.75" y="-57.8" font-family="Times,serif" font-size="14.00">dep</text>
</g>
<!-- 22 -->
<g id="node23" class="node">
<title>22</title>
<ellipse fill="none" stroke="black" cx="2042.25" cy="-18" rx="27" ry="18"/>
<text text-anchor="middle" x="2042.25" y="-14.3" font-family="Times,serif" font-size="14.00">,</text>
</g>
<!-- 0&#45;&gt;22 -->
<g id="edge22" class="edge">
<title>0&#45;&gt;22</title>
<path fill="none" stroke="black" d="M1615.12,-101.92C1666.4,-97.69 1781.63,-86.94 1877.25,-69 1935.41,-58.09 1950.57,-56.06 2006.25,-36 2008.1,-35.33 2009.99,-34.6 2011.88,-33.83"/>
<polygon fill="black" stroke="black" points="2013.45,-36.97 2021.21,-29.75 2010.65,-30.55 2013.45,-36.97"/>
<text text-anchor="middle" x="1962.75" y="-57.8" font-family="Times,serif" font-size="14.00">dep</text>
</g>
<!-- 23 -->
<g id="node24" class="node">
<title>23</title>
<ellipse fill="none" stroke="black" cx="2114.25" cy="-18" rx="27" ry="18"/>
<text text-anchor="middle" x="2114.25" y="-14.3" font-family="Times,serif" font-size="14.00">por</text>
</g>
<!-- 0&#45;&gt;23 -->
<g id="edge23" class="edge">
<title>0&#45;&gt;23</title>
<path fill="none" stroke="black" d="M1615.18,-103.77C1679.19,-102.75 1845.17,-97.36 1980.25,-69 2025.22,-59.56 2035.62,-53.17 2078.25,-36 2080.07,-35.26 2081.94,-34.48 2083.81,-33.67"/>
<polygon fill="black" stroke="black" points="2085.43,-36.78 2093.11,-29.48 2082.55,-30.4 2085.43,-36.78"/>
<text text-anchor="middle" x="2047.75" y="-57.8" font-family="Times,serif" font-size="14.00">dep</text>
</g>
<!-- 24 -->
<g id="node25" class="node">
<title>24</title>
<ellipse fill="none" stroke="black" cx="2186.25" cy="-18" rx="27" ry="18"/>
<text text-anchor="middle" x="2186.25" y="-14.3" font-family="Times,serif" font-size="14.00">o</text>
</g>
<!-- 0&#45;&gt;24 -->
<g id="edge24" class="edge">
<title>0&#45;&gt;24</title>
<path fill="none" stroke="black" d="M1615.24,-103.07C1702.84,-99.9 1978.47,-88.57 2065.25,-69 2097.79,-61.66 2132.79,-46.3 2156.74,-34.53"/>
<polygon fill="black" stroke="black" points="2158.6,-37.51 2165.97,-29.9 2155.46,-31.26 2158.6,-37.51"/>
<text text-anchor="middle" x="2123.75" y="-57.8" font-family="Times,serif" font-size="14.00">dep</text>
</g>
<!-- 25 -->
<g id="node26" class="node">
<title>25</title>
<ellipse fill="none" stroke="black" cx="2259.25" cy="-18" rx="27.9" ry="18"/>
<text text-anchor="middle" x="2259.25" y="-14.3" font-family="Times,serif" font-size="14.00">que</text>
</g>
<!-- 0&#45;&gt;25 -->
<g id="edge25" class="edge">
<title>0&#45;&gt;25</title>
<path fill="none" stroke="black" d="M1615.42,-103.44C1712.15,-101.27 2039.38,-92.32 2141.25,-69 2172.7,-61.8 2206.38,-46.71 2229.68,-34.98"/>
<polygon fill="black" stroke="black" points="2231.39,-38.04 2238.68,-30.36 2228.19,-31.81 2231.39,-38.04"/>
<text text-anchor="middle" x="2198.75" y="-57.8" font-family="Times,serif" font-size="14.00">dep</text>
</g>
<!-- 26 -->
<g id="node27" class="node">
<title>26</title>
<ellipse fill="none" stroke="black" cx="2332.25" cy="-18" rx="27" ry="18"/>
<text text-anchor="middle" x="2332.25" y="-14.3" font-family="Times,serif" font-size="14.00">são</text>
</g>
<!-- 0&#45;&gt;26 -->
<g id="edge26" class="edge">
<title>0&#45;&gt;26</title>
<path fill="none" stroke="black" d="M1615.42,-103.69C1720.37,-102.32 2099.25,-95.59 2216.25,-69 2247.12,-61.98 2280.07,-46.98 2302.93,-35.23"/>
<polygon fill="black" stroke="black" points="2304.85,-38.17 2312.07,-30.42 2301.59,-31.98 2304.85,-38.17"/>
<text text-anchor="middle" x="2276.75" y="-57.8" font-family="Times,serif" font-size="14.00">dep</text>
</g>
<!-- 27 -->
<g id="node28" class="node">
<title>27</title>
<ellipse fill="none" stroke="black" cx="2434.25" cy="-18" rx="57.39" ry="18"/>
<text text-anchor="middle" x="2434.25" y="-14.3" font-family="Times,serif" font-size="14.00">chamados</text>
</g>
<!-- 0&#45;&gt;27 -->
<g id="edge27" class="edge">
<title>0&#45;&gt;27</title>
<path fill="none" stroke="black" d="M1615.23,-103.72C1727.84,-102.38 2160.64,-95.57 2294.25,-69 2328.78,-62.13 2366.26,-48.39 2393.75,-37.04"/>
<polygon fill="black" stroke="black" points="2395.16,-40.24 2403.03,-33.15 2392.45,-33.79 2395.16,-40.24"/>
<text text-anchor="middle" x="2359.75" y="-57.8" font-family="Times,serif" font-size="14.00">dep</text>
</g>
<!-- 28 -->
<g id="node29" class="node">
<title>28</title>
<ellipse fill="none" stroke="black" cx="2536.25" cy="-18" rx="27" ry="18"/>
<text text-anchor="middle" x="2536.25" y="-14.3" font-family="Times,serif" font-size="14.00">«</text>
</g>
<!-- 0&#45;&gt;28 -->
<g id="edge28" class="edge">
<title>0&#45;&gt;28</title>
<path fill="none" stroke="black" d="M1615.44,-103.59C1736.32,-101.64 2225.65,-92.41 2377.25,-69 2433.18,-60.36 2447.11,-55.5 2500.25,-36 2502.1,-35.32 2503.98,-34.58 2505.87,-33.81"/>
<polygon fill="black" stroke="black" points="2507.45,-36.94 2515.2,-29.71 2504.63,-30.53 2507.45,-36.94"/>
<text text-anchor="middle" x="2461.75" y="-57.8" font-family="Times,serif" font-size="14.00">dep</text>
</g>
<!-- 29 -->
<g id="node30" class="node">
<title>29</title>
<ellipse fill="none" stroke="black" cx="2641.25" cy="-18" rx="59.59" ry="18"/>
<text text-anchor="middle" x="2641.25" y="-14.3" font-family="Times,serif" font-size="14.00">servidores</text>
</g>
<!-- 0&#45;&gt;29 -->
<g id="edge29" class="edge">
<title>0&#45;&gt;29</title>
<path fill="none" stroke="black" d="M1615.41,-103.88C1745.67,-103.18 2307.01,-98.44 2479.25,-69 2519.87,-62.06 2564.52,-47.75 2596.63,-36.21"/>
<polygon fill="black" stroke="black" points="2597.98,-39.45 2606.18,-32.73 2595.59,-32.87 2597.98,-39.45"/>
<text text-anchor="middle" x="2551.75" y="-57.8" font-family="Times,serif" font-size="14.00">dep</text>
</g>
<!-- 30 -->
<g id="node31" class="node">
<title>30</title>
<ellipse fill="none" stroke="black" cx="2748.25" cy="-18" rx="29.5" ry="18"/>
<text text-anchor="middle" x="2748.25" y="-14.3" font-family="Times,serif" font-size="14.00">FTP</text>
</g>
<!-- 0&#45;&gt;30 -->
<g id="edge30" class="edge">
<title>0&#45;&gt;30</title>
<path fill="none" stroke="black" d="M1615.32,-103.74C1753.1,-102.34 2377.31,-94.64 2569.25,-69 2633.04,-60.48 2649.26,-56.57 2710.25,-36 2712.36,-35.29 2714.52,-34.5 2716.68,-33.66"/>
<polygon fill="black" stroke="black" points="2718.13,-36.85 2726.02,-29.79 2715.45,-30.38 2718.13,-36.85"/>
<text text-anchor="middle" x="2666.75" y="-57.8" font-family="Times,serif" font-size="14.00">dep</text>
</g>
<!-- 31 -->
<g id="node32" class="node">
<title>31</title>
<ellipse fill="none" stroke="black" cx="2850.25" cy="-18" rx="55.49" ry="18"/>
<text text-anchor="middle" x="2850.25" y="-14.3" font-family="Times,serif" font-size="14.00">anónimos</text>
</g>
<!-- 0&#45;&gt;31 -->
<g id="edge31" class="edge">
<title>0&#45;&gt;31</title>
<path fill="none" stroke="black" d="M1615.55,-104.09C1763.41,-104.43 2469.36,-104.17 2684.25,-69 2726.51,-62.08 2773.07,-47.41 2806.1,-35.74"/>
<polygon fill="black" stroke="black" points="2807.66,-38.9 2815.89,-32.22 2805.3,-32.31 2807.66,-38.9"/>
<text text-anchor="middle" x="2762.75" y="-57.8" font-family="Times,serif" font-size="14.00">dep</text>
</g>
<!-- 32 -->
<g id="node33" class="node">
<title>32</title>
<ellipse fill="none" stroke="black" cx="2950.25" cy="-18" rx="27" ry="18"/>
<text text-anchor="middle" x="2950.25" y="-14.3" font-family="Times,serif" font-size="14.00">»</text>
</g>
<!-- 0&#45;&gt;32 -->
<g id="edge32" class="edge">
<title>0&#45;&gt;32</title>
<path fill="none" stroke="black" d="M1615.33,-103.98C1770.16,-103.78 2544.34,-101.14 2780.25,-69 2841.02,-60.72 2856.45,-56.53 2914.25,-36 2916.15,-35.32 2918.09,-34.58 2920.03,-33.79"/>
<polygon fill="black" stroke="black" points="2921.84,-36.82 2929.6,-29.61 2919.04,-30.41 2921.84,-36.82"/>
<text text-anchor="middle" x="2873.75" y="-57.8" font-family="Times,serif" font-size="14.00">dep</text>
</g>
<!-- 33 -->
<g id="node34" class="node">
<title>33</title>
<ellipse fill="none" stroke="black" cx="3022.25" cy="-18" rx="27" ry="18"/>
<text text-anchor="middle" x="3022.25" y="-14.3" font-family="Times,serif" font-size="14.00">.</text>
</g>
<!-- 0&#45;&gt;33 -->
<g id="edge33" class="edge">
<title>0&#45;&gt;33</title>
<path fill="none" stroke="black" d="M1615.33,-103.77C1790.65,-102.23 2761.71,-92.65 2891.25,-69 2927.35,-62.41 2966.35,-46.24 2992.33,-34.06"/>
<polygon fill="black" stroke="black" points="2994.1,-37.1 3001.61,-29.62 2991.08,-30.78 2994.1,-37.1"/>
<text text-anchor="middle" x="2956.75" y="-57.8" font-family="Times,serif" font-size="14.00">dep</text>
</g>
</g>
</svg>
