<?xml version="1.0" encoding="UTF-8" standalone="no"?>
<!DOCTYPE svg PUBLIC "-//W3C//DTD SVG 1.1//EN"
 "http://www.w3.org/Graphics/SVG/1.1/DTD/svg11.dtd">
<!-- Generated by graphviz version 2.42.4 (0)
 -->
<!-- Pages: 1 -->
<svg width="1754pt" height="131pt"
 viewBox="0.00 0.00 1754.00 131.00" xmlns="http://www.w3.org/2000/svg" xmlns:xlink="http://www.w3.org/1999/xlink">
<g id="graph0" class="graph" transform="scale(1 1) rotate(0) translate(4 127)">
<polygon fill="white" stroke="transparent" points="-4,4 -4,-127 1750,-127 1750,4 -4,4"/>
<!-- 0 -->
<g id="node1" class="node">
<title>0</title>
<ellipse fill="none" stroke="black" cx="805" cy="-105" rx="29.5" ry="18"/>
<text text-anchor="middle" x="805" y="-101.3" font-family="Times,serif" font-size="14.00">Não</text>
</g>
<!-- 1 -->
<g id="node2" class="node">
<title>1</title>
<ellipse fill="none" stroke="black" cx="27" cy="-18" rx="27" ry="18"/>
<text text-anchor="middle" x="27" y="-14.3" font-family="Times,serif" font-size="14.00">,</text>
</g>
<!-- 0&#45;&gt;1 -->
<g id="edge1" class="edge">
<title>0&#45;&gt;1</title>
<path fill="none" stroke="black" d="M775.6,-103.76C663.91,-102.65 266.07,-96.78 143,-69 112.12,-62.03 79.17,-47.02 56.32,-35.25"/>
<polygon fill="black" stroke="black" points="57.65,-32 47.17,-30.44 54.39,-38.2 57.65,-32"/>
<text text-anchor="middle" x="156.5" y="-57.8" font-family="Times,serif" font-size="14.00">dep</text>
</g>
<!-- 2 -->
<g id="node3" class="node">
<title>2</title>
<ellipse fill="none" stroke="black" cx="99" cy="-18" rx="27.1" ry="18"/>
<text text-anchor="middle" x="99" y="-14.3" font-family="Times,serif" font-size="14.00">não</text>
</g>
<!-- 0&#45;&gt;2 -->
<g id="edge2" class="edge">
<title>0&#45;&gt;2</title>
<path fill="none" stroke="black" d="M775.72,-103.39C673.12,-101.08 330.3,-91.81 223,-69 189.53,-61.89 153.48,-46.38 128.93,-34.51"/>
<polygon fill="black" stroke="black" points="130.31,-31.29 119.79,-30.01 127.21,-37.57 130.31,-31.29"/>
<text text-anchor="middle" x="236.5" y="-57.8" font-family="Times,serif" font-size="14.00">dep</text>
</g>
<!-- 3 -->
<g id="node4" class="node">
<title>3</title>
<ellipse fill="none" stroke="black" cx="171" cy="-18" rx="27" ry="18"/>
<text text-anchor="middle" x="171" y="-14.3" font-family="Times,serif" font-size="14.00">é</text>
</g>
<!-- 0&#45;&gt;3 -->
<g id="edge3" class="edge">
<title>0&#45;&gt;3</title>
<path fill="none" stroke="black" d="M775.85,-103C682.67,-99.65 392.81,-87.94 301,-69 265.51,-61.68 227.02,-45.79 201.21,-33.88"/>
<polygon fill="black" stroke="black" points="202.51,-30.63 191.97,-29.54 199.53,-36.96 202.51,-30.63"/>
<text text-anchor="middle" x="314.5" y="-57.8" font-family="Times,serif" font-size="14.00">dep</text>
</g>
<!-- 4 -->
<g id="node5" class="node">
<title>4</title>
<ellipse fill="none" stroke="black" cx="248" cy="-18" rx="32.49" ry="18"/>
<text text-anchor="middle" x="248" y="-14.3" font-family="Times,serif" font-size="14.00">mais</text>
</g>
<!-- 0&#45;&gt;4 -->
<g id="edge4" class="edge">
<title>0&#45;&gt;4</title>
<path fill="none" stroke="black" d="M775.75,-104.24C706.25,-104.25 526.11,-100.91 380,-69 345.18,-61.4 307.33,-46.3 281.12,-34.67"/>
<polygon fill="black" stroke="black" points="282.23,-31.33 271.68,-30.41 279.35,-37.71 282.23,-31.33"/>
<text text-anchor="middle" x="393.5" y="-57.8" font-family="Times,serif" font-size="14.00">dep</text>
</g>
<!-- 5 -->
<g id="node6" class="node">
<title>5</title>
<ellipse fill="none" stroke="black" cx="329" cy="-18" rx="30.59" ry="18"/>
<text text-anchor="middle" x="329" y="-14.3" font-family="Times,serif" font-size="14.00">uma</text>
</g>
<!-- 0&#45;&gt;5 -->
<g id="edge5" class="edge">
<title>0&#45;&gt;5</title>
<path fill="none" stroke="black" d="M775.8,-103.55C715.6,-102.08 573.61,-95.8 458,-69 423.77,-61.06 386.53,-45.87 360.9,-34.3"/>
<polygon fill="black" stroke="black" points="362.23,-31.06 351.68,-30.07 359.31,-37.42 362.23,-31.06"/>
<text text-anchor="middle" x="471.5" y="-57.8" font-family="Times,serif" font-size="14.00">dep</text>
</g>
<!-- 6 -->
<g id="node7" class="node">
<title>6</title>
<ellipse fill="none" stroke="black" cx="409" cy="-18" rx="31.4" ry="18"/>
<text text-anchor="middle" x="409" y="-14.3" font-family="Times,serif" font-size="14.00">caso</text>
</g>
<!-- 0&#45;&gt;6 -->
<g id="edge6" class="edge">
<title>0&#45;&gt;6</title>
<path fill="none" stroke="black" d="M775.81,-102.49C725.82,-99.4 620.92,-90.72 535,-69 502.17,-60.7 466.43,-45.93 441.44,-34.59"/>
<polygon fill="black" stroke="black" points="442.63,-31.29 432.08,-30.28 439.7,-37.64 442.63,-31.29"/>
<text text-anchor="middle" x="548.5" y="-57.8" font-family="Times,serif" font-size="14.00">dep</text>
</g>
<!-- 7 -->
<g id="node8" class="node">
<title>7</title>
<ellipse fill="none" stroke="black" cx="485" cy="-18" rx="27" ry="18"/>
<text text-anchor="middle" x="485" y="-14.3" font-family="Times,serif" font-size="14.00">de</text>
</g>
<!-- 0&#45;&gt;7 -->
<g id="edge7" class="edge">
<title>0&#45;&gt;7</title>
<path fill="none" stroke="black" d="M776.54,-100.37C738.6,-95.18 669.53,-84.53 612,-69 570.46,-57.79 560.72,-52.54 521,-36 519.18,-35.24 517.32,-34.44 515.45,-33.62"/>
<polygon fill="black" stroke="black" points="516.72,-30.35 506.17,-29.4 513.83,-36.73 516.72,-30.35"/>
<text text-anchor="middle" x="625.5" y="-57.8" font-family="Times,serif" font-size="14.00">dep</text>
</g>
<!-- 8 -->
<g id="node9" class="node">
<title>8</title>
<ellipse fill="none" stroke="black" cx="561" cy="-18" rx="30.59" ry="18"/>
<text text-anchor="middle" x="561" y="-14.3" font-family="Times,serif" font-size="14.00">vida</text>
</g>
<!-- 0&#45;&gt;8 -->
<g id="edge8" class="edge">
<title>0&#45;&gt;8</title>
<path fill="none" stroke="black" d="M777.88,-97.43C752.36,-91.01 713.21,-80.54 680,-69 644.06,-56.51 636.07,-50.78 601,-36 598.83,-35.09 596.59,-34.14 594.34,-33.19"/>
<polygon fill="black" stroke="black" points="595.68,-29.95 585.1,-29.27 592.94,-36.4 595.68,-29.95"/>
<text text-anchor="middle" x="693.5" y="-57.8" font-family="Times,serif" font-size="14.00">dep</text>
</g>
<!-- 9 -->
<g id="node10" class="node">
<title>9</title>
<ellipse fill="none" stroke="black" cx="637" cy="-18" rx="27" ry="18"/>
<text text-anchor="middle" x="637" y="-14.3" font-family="Times,serif" font-size="14.00">ou</text>
</g>
<!-- 0&#45;&gt;9 -->
<g id="edge9" class="edge">
<title>0&#45;&gt;9</title>
<path fill="none" stroke="black" d="M783.04,-92.89C753.41,-77.9 700.52,-51.14 667.17,-34.27"/>
<polygon fill="black" stroke="black" points="668.41,-30.97 657.91,-29.58 665.25,-37.22 668.41,-30.97"/>
<text text-anchor="middle" x="745.5" y="-57.8" font-family="Times,serif" font-size="14.00">dep</text>
</g>
<!-- 10 -->
<g id="node11" class="node">
<title>10</title>
<ellipse fill="none" stroke="black" cx="740" cy="-18" rx="58.49" ry="18"/>
<text text-anchor="middle" x="740" y="-14.3" font-family="Times,serif" font-size="14.00">telenovela</text>
</g>
<!-- 0&#45;&gt;10 -->
<g id="edge10" class="edge">
<title>0&#45;&gt;10</title>
<path fill="none" stroke="black" d="M793.08,-88.41C783.52,-75.91 769.93,-58.13 758.89,-43.7"/>
<polygon fill="black" stroke="black" points="761.59,-41.47 752.74,-35.65 756.03,-45.72 761.59,-41.47"/>
<text text-anchor="middle" x="790.5" y="-57.8" font-family="Times,serif" font-size="14.00">dep</text>
</g>
<!-- 11 -->
<g id="node12" class="node">
<title>11</title>
<ellipse fill="none" stroke="black" cx="871" cy="-18" rx="54.69" ry="18"/>
<text text-anchor="middle" x="871" y="-14.3" font-family="Times,serif" font-size="14.00">mexicana</text>
</g>
<!-- 0&#45;&gt;11 -->
<g id="edge11" class="edge">
<title>0&#45;&gt;11</title>
<path fill="none" stroke="black" d="M817.11,-88.41C826.81,-75.91 840.61,-58.13 851.82,-43.7"/>
<polygon fill="black" stroke="black" points="854.7,-45.7 858.07,-35.65 849.17,-41.41 854.7,-45.7"/>
<text text-anchor="middle" x="855.5" y="-57.8" font-family="Times,serif" font-size="14.00">dep</text>
</g>
<!-- 12 -->
<g id="node13" class="node">
<title>12</title>
<ellipse fill="none" stroke="black" cx="971" cy="-18" rx="27" ry="18"/>
<text text-anchor="middle" x="971" y="-14.3" font-family="Times,serif" font-size="14.00">de</text>
</g>
<!-- 0&#45;&gt;12 -->
<g id="edge12" class="edge">
<title>0&#45;&gt;12</title>
<path fill="none" stroke="black" d="M826.7,-92.89C855.9,-77.94 907.96,-51.28 940.92,-34.4"/>
<polygon fill="black" stroke="black" points="942.77,-37.39 950.08,-29.71 939.58,-31.16 942.77,-37.39"/>
<text text-anchor="middle" x="911.5" y="-57.8" font-family="Times,serif" font-size="14.00">dep</text>
</g>
<!-- 13 -->
<g id="node14" class="node">
<title>13</title>
<ellipse fill="none" stroke="black" cx="1068" cy="-18" rx="51.99" ry="18"/>
<text text-anchor="middle" x="1068" y="-14.3" font-family="Times,serif" font-size="14.00">televisão</text>
</g>
<!-- 0&#45;&gt;13 -->
<g id="edge13" class="edge">
<title>0&#45;&gt;13</title>
<path fill="none" stroke="black" d="M831.77,-97.03C856.99,-90.32 895.77,-79.65 929,-69 961.41,-58.61 997.57,-45.56 1024.88,-35.39"/>
<polygon fill="black" stroke="black" points="1026.38,-38.57 1034.52,-31.79 1023.93,-32.01 1026.38,-38.57"/>
<text text-anchor="middle" x="985.5" y="-57.8" font-family="Times,serif" font-size="14.00">dep</text>
</g>
<!-- 14 -->
<g id="node15" class="node">
<title>14</title>
<ellipse fill="none" stroke="black" cx="1165" cy="-18" rx="27" ry="18"/>
<text text-anchor="middle" x="1165" y="-14.3" font-family="Times,serif" font-size="14.00">,</text>
</g>
<!-- 0&#45;&gt;14 -->
<g id="edge14" class="edge">
<title>0&#45;&gt;14</title>
<path fill="none" stroke="black" d="M833.48,-100.78C890.81,-93.7 1023.67,-74.29 1129,-36 1130.85,-35.33 1132.74,-34.59 1134.63,-33.82"/>
<polygon fill="black" stroke="black" points="1136.2,-36.95 1143.96,-29.73 1133.39,-30.54 1136.2,-36.95"/>
<text text-anchor="middle" x="1082.5" y="-57.8" font-family="Times,serif" font-size="14.00">dep</text>
</g>
<!-- 15 -->
<g id="node16" class="node">
<title>15</title>
<ellipse fill="none" stroke="black" cx="1237" cy="-18" rx="27" ry="18"/>
<text text-anchor="middle" x="1237" y="-14.3" font-family="Times,serif" font-size="14.00">ou</text>
</g>
<!-- 0&#45;&gt;15 -->
<g id="edge15" class="edge">
<title>0&#45;&gt;15</title>
<path fill="none" stroke="black" d="M834.21,-102.45C887.55,-99.2 1004.05,-90.15 1100,-69 1146.12,-58.84 1157.12,-53.45 1201,-36 1202.83,-35.27 1204.7,-34.5 1206.58,-33.69"/>
<polygon fill="black" stroke="black" points="1208.18,-36.8 1215.87,-29.52 1205.32,-30.42 1208.18,-36.8"/>
<text text-anchor="middle" x="1168.5" y="-57.8" font-family="Times,serif" font-size="14.00">dep</text>
</g>
<!-- 16 -->
<g id="node17" class="node">
<title>16</title>
<ellipse fill="none" stroke="black" cx="1313" cy="-18" rx="30.59" ry="18"/>
<text text-anchor="middle" x="1313" y="-14.3" font-family="Times,serif" font-size="14.00">uma</text>
</g>
<!-- 0&#45;&gt;16 -->
<g id="edge16" class="edge">
<title>0&#45;&gt;16</title>
<path fill="none" stroke="black" d="M834.59,-103.99C899.22,-103.38 1057.53,-98.68 1186,-69 1219.57,-61.24 1255.99,-46.16 1281.18,-34.59"/>
<polygon fill="black" stroke="black" points="1282.68,-37.75 1290.25,-30.34 1279.71,-31.41 1282.68,-37.75"/>
<text text-anchor="middle" x="1246.5" y="-57.8" font-family="Times,serif" font-size="14.00">dep</text>
</g>
<!-- 17 -->
<g id="node18" class="node">
<title>17</title>
<ellipse fill="none" stroke="black" cx="1408" cy="-18" rx="46.29" ry="18"/>
<text text-anchor="middle" x="1408" y="-14.3" font-family="Times,serif" font-size="14.00">história</text>
</g>
<!-- 0&#45;&gt;17 -->
<g id="edge17" class="edge">
<title>0&#45;&gt;17</title>
<path fill="none" stroke="black" d="M834.36,-104.37C907.69,-104.72 1104.38,-102.21 1264,-69 1300.39,-61.43 1340.19,-47.12 1368.71,-35.74"/>
<polygon fill="black" stroke="black" points="1370.35,-38.85 1378.3,-31.85 1367.72,-32.36 1370.35,-38.85"/>
<text text-anchor="middle" x="1330.5" y="-57.8" font-family="Times,serif" font-size="14.00">dep</text>
</g>
<!-- 18 -->
<g id="node19" class="node">
<title>18</title>
<ellipse fill="none" stroke="black" cx="1504" cy="-18" rx="31.7" ry="18"/>
<text text-anchor="middle" x="1504" y="-14.3" font-family="Times,serif" font-size="14.00">para</text>
</g>
<!-- 0&#45;&gt;18 -->
<g id="edge18" class="edge">
<title>0&#45;&gt;18</title>
<path fill="none" stroke="black" d="M834.4,-104.31C916.37,-104.71 1154.17,-102.65 1348,-69 1400.39,-59.9 1412.8,-53.54 1463,-36 1465.27,-35.21 1467.6,-34.35 1469.93,-33.47"/>
<polygon fill="black" stroke="black" points="1471.44,-36.63 1479.46,-29.71 1468.87,-30.12 1471.44,-36.63"/>
<text text-anchor="middle" x="1424.5" y="-57.8" font-family="Times,serif" font-size="14.00">dep</text>
</g>
<!-- 19 -->
<g id="node20" class="node">
<title>19</title>
<ellipse fill="none" stroke="black" cx="1614" cy="-18" rx="60.39" ry="18"/>
<text text-anchor="middle" x="1614" y="-14.3" font-family="Times,serif" font-size="14.00">adormecer</text>
</g>
<!-- 0&#45;&gt;19 -->
<g id="edge19" class="edge">
<title>0&#45;&gt;19</title>
<path fill="none" stroke="black" d="M834.32,-103.28C943.01,-100.46 1322.72,-89.34 1442,-69 1485.39,-61.6 1533.37,-47.1 1567.61,-35.61"/>
<polygon fill="black" stroke="black" points="1568.99,-38.84 1577.33,-32.31 1566.73,-32.21 1568.99,-38.84"/>
<text text-anchor="middle" x="1518.5" y="-57.8" font-family="Times,serif" font-size="14.00">dep</text>
</g>
<!-- 20 -->
<g id="node21" class="node">
<title>20</title>
<ellipse fill="none" stroke="black" cx="1719" cy="-18" rx="27" ry="18"/>
<text text-anchor="middle" x="1719" y="-14.3" font-family="Times,serif" font-size="14.00">.</text>
</g>
<!-- 0&#45;&gt;20 -->
<g id="edge20" class="edge">
<title>0&#45;&gt;20</title>
<path fill="none" stroke="black" d="M834.41,-104.41C933.69,-105.41 1265.29,-105.59 1536,-69 1602.36,-60.03 1619.68,-57.76 1683,-36 1684.91,-35.34 1686.86,-34.61 1688.8,-33.84"/>
<polygon fill="black" stroke="black" points="1690.6,-36.87 1698.38,-29.69 1687.82,-30.45 1690.6,-36.87"/>
<text text-anchor="middle" x="1637.5" y="-57.8" font-family="Times,serif" font-size="14.00">dep</text>
</g>
</g>
</svg>
