<?xml version="1.0" encoding="UTF-8" standalone="no"?>
<!DOCTYPE svg PUBLIC "-//W3C//DTD SVG 1.1//EN"
 "http://www.w3.org/Graphics/SVG/1.1/DTD/svg11.dtd">
<!-- Generated by graphviz version 2.42.4 (0)
 -->
<!-- Pages: 1 -->
<svg width="511pt" height="131pt"
 viewBox="0.00 0.00 511.39 131.00" xmlns="http://www.w3.org/2000/svg" xmlns:xlink="http://www.w3.org/1999/xlink">
<g id="graph0" class="graph" transform="scale(1 1) rotate(0) translate(4 127)">
<polygon fill="white" stroke="transparent" points="-4,4 -4,-127 507.39,-127 507.39,4 -4,4"/>
<!-- 0 -->
<g id="node1" class="node">
<title>0</title>
<ellipse fill="none" stroke="black" cx="265.2" cy="-105" rx="27" ry="18"/>
<text text-anchor="middle" x="265.2" y="-101.3" font-family="Times,serif" font-size="14.00">«</text>
</g>
<!-- 1 -->
<g id="node2" class="node">
<title>1</title>
<ellipse fill="none" stroke="black" cx="31.2" cy="-18" rx="31.4" ry="18"/>
<text text-anchor="middle" x="31.2" y="-14.3" font-family="Times,serif" font-size="14.00">Vida</text>
</g>
<!-- 0&#45;&gt;1 -->
<g id="edge1" class="edge">
<title>0&#45;&gt;1</title>
<path fill="none" stroke="black" d="M241.35,-96.3C220.02,-89.36 187.93,-78.76 160.2,-69 120.4,-54.99 110.4,-51.59 71.2,-36 69.15,-35.18 67.04,-34.33 64.92,-33.47"/>
<polygon fill="black" stroke="black" points="66.24,-30.22 55.66,-29.61 63.55,-36.68 66.24,-30.22"/>
<text text-anchor="middle" x="173.7" y="-57.8" font-family="Times,serif" font-size="14.00">dep</text>
</g>
<!-- 2 -->
<g id="node3" class="node">
<title>2</title>
<ellipse fill="none" stroke="black" cx="132.2" cy="-18" rx="51.99" ry="18"/>
<text text-anchor="middle" x="132.2" y="-14.3" font-family="Times,serif" font-size="14.00">Moderna</text>
</g>
<!-- 0&#45;&gt;2 -->
<g id="edge2" class="edge">
<title>0&#45;&gt;2</title>
<path fill="none" stroke="black" d="M246.42,-92C225.16,-78.41 190.13,-56.03 164.46,-39.62"/>
<polygon fill="black" stroke="black" points="166.12,-36.53 155.81,-34.09 162.35,-42.43 166.12,-36.53"/>
<text text-anchor="middle" x="220.7" y="-57.8" font-family="Times,serif" font-size="14.00">dep</text>
</g>
<!-- 3 -->
<g id="node4" class="node">
<title>3</title>
<ellipse fill="none" stroke="black" cx="229.2" cy="-18" rx="27" ry="18"/>
<text text-anchor="middle" x="229.2" y="-14.3" font-family="Times,serif" font-size="14.00">»</text>
</g>
<!-- 0&#45;&gt;3 -->
<g id="edge3" class="edge">
<title>0&#45;&gt;3</title>
<path fill="none" stroke="black" d="M258.08,-87.21C252.97,-75.14 245.99,-58.64 240.16,-44.89"/>
<polygon fill="black" stroke="black" points="243.3,-43.31 236.17,-35.47 236.85,-46.04 243.3,-43.31"/>
<text text-anchor="middle" x="263.7" y="-57.8" font-family="Times,serif" font-size="14.00">dep</text>
</g>
<!-- 4 -->
<g id="node5" class="node">
<title>4</title>
<ellipse fill="none" stroke="black" cx="301.2" cy="-18" rx="27" ry="18"/>
<text text-anchor="middle" x="301.2" y="-14.3" font-family="Times,serif" font-size="14.00">de</text>
</g>
<!-- 0&#45;&gt;4 -->
<g id="edge4" class="edge">
<title>0&#45;&gt;4</title>
<path fill="none" stroke="black" d="M272.31,-87.21C277.42,-75.14 284.41,-58.64 290.23,-44.89"/>
<polygon fill="black" stroke="black" points="293.54,-46.04 294.22,-35.47 287.1,-43.31 293.54,-46.04"/>
<text text-anchor="middle" x="299.7" y="-57.8" font-family="Times,serif" font-size="14.00">dep</text>
</g>
<!-- 5 -->
<g id="node6" class="node">
<title>5</title>
<ellipse fill="none" stroke="black" cx="384.2" cy="-18" rx="38.19" ry="18"/>
<text text-anchor="middle" x="384.2" y="-14.3" font-family="Times,serif" font-size="14.00">Graça</text>
</g>
<!-- 0&#45;&gt;5 -->
<g id="edge5" class="edge">
<title>0&#45;&gt;5</title>
<path fill="none" stroke="black" d="M284.12,-91.58C294.05,-84.99 306.37,-76.68 317.2,-69 330.34,-59.68 344.69,-49.03 356.73,-39.97"/>
<polygon fill="black" stroke="black" points="359.16,-42.52 365.03,-33.69 354.94,-36.93 359.16,-42.52"/>
<text text-anchor="middle" x="351.7" y="-57.8" font-family="Times,serif" font-size="14.00">dep</text>
</g>
<!-- 6 -->
<g id="node7" class="node">
<title>6</title>
<ellipse fill="none" stroke="black" cx="472.2" cy="-18" rx="31.4" ry="18"/>
<text text-anchor="middle" x="472.2" y="-14.3" font-family="Times,serif" font-size="14.00">Dias</text>
</g>
<!-- 0&#45;&gt;6 -->
<g id="edge6" class="edge">
<title>0&#45;&gt;6</title>
<path fill="none" stroke="black" d="M289.47,-96.79C310.76,-90.25 342.4,-79.96 369.2,-69 393.82,-58.93 420.84,-45.73 441.03,-35.42"/>
<polygon fill="black" stroke="black" points="442.78,-38.45 450.07,-30.76 439.57,-32.23 442.78,-38.45"/>
<text text-anchor="middle" x="414.7" y="-57.8" font-family="Times,serif" font-size="14.00">dep</text>
</g>
</g>
</svg>
