<?xml version="1.0" encoding="UTF-8" standalone="no"?>
<!DOCTYPE svg PUBLIC "-//W3C//DTD SVG 1.1//EN"
 "http://www.w3.org/Graphics/SVG/1.1/DTD/svg11.dtd">
<!-- Generated by graphviz version 2.42.4 (0)
 -->
<!-- Pages: 1 -->
<svg width="4724pt" height="131pt"
 viewBox="0.00 0.00 4723.54 131.00" xmlns="http://www.w3.org/2000/svg" xmlns:xlink="http://www.w3.org/1999/xlink">
<g id="graph0" class="graph" transform="scale(1 1) rotate(0) translate(4 127)">
<polygon fill="white" stroke="transparent" points="-4,4 -4,-127 4719.54,-127 4719.54,4 -4,4"/>
<!-- 0 -->
<g id="node1" class="node">
<title>0</title>
<ellipse fill="none" stroke="black" cx="2432.54" cy="-105" rx="42.79" ry="18"/>
<text text-anchor="middle" x="2432.54" y="-101.3" font-family="Times,serif" font-size="14.00">Gestão</text>
</g>
<!-- 1 -->
<g id="node2" class="node">
<title>1</title>
<ellipse fill="none" stroke="black" cx="69.54" cy="-18" rx="69.59" ry="18"/>
<text text-anchor="middle" x="69.54" y="-14.3" font-family="Times,serif" font-size="14.00">participativa</text>
</g>
<!-- 0&#45;&gt;1 -->
<g id="edge1" class="edge">
<title>0&#45;&gt;1</title>
<path fill="none" stroke="black" d="M2389.25,-104.03C2100.24,-104.13 455.47,-103.19 235.54,-69 194.31,-62.59 149.04,-48.45 116.21,-36.84"/>
<polygon fill="black" stroke="black" points="117.03,-33.42 106.44,-33.33 114.67,-40.01 117.03,-33.42"/>
<text text-anchor="middle" x="249.04" y="-57.8" font-family="Times,serif" font-size="14.00">dep</text>
</g>
<!-- 2 -->
<g id="node3" class="node">
<title>2</title>
<ellipse fill="none" stroke="black" cx="184.54" cy="-18" rx="27" ry="18"/>
<text text-anchor="middle" x="184.54" y="-14.3" font-family="Times,serif" font-size="14.00">,</text>
</g>
<!-- 0&#45;&gt;2 -->
<g id="edge2" class="edge">
<title>0&#45;&gt;2</title>
<path fill="none" stroke="black" d="M2389.54,-104.07C2107.77,-104.46 530.21,-104.98 319.54,-69 282.02,-62.59 241.37,-46.11 214.58,-33.81"/>
<polygon fill="black" stroke="black" points="215.92,-30.57 205.38,-29.5 212.95,-36.91 215.92,-30.57"/>
<text text-anchor="middle" x="333.04" y="-57.8" font-family="Times,serif" font-size="14.00">dep</text>
</g>
<!-- 3 -->
<g id="node4" class="node">
<title>3</title>
<ellipse fill="none" stroke="black" cx="265.54" cy="-18" rx="36.29" ry="18"/>
<text text-anchor="middle" x="265.54" y="-14.3" font-family="Times,serif" font-size="14.00">times</text>
</g>
<!-- 0&#45;&gt;3 -->
<g id="edge3" class="edge">
<title>0&#45;&gt;3</title>
<path fill="none" stroke="black" d="M2389.53,-104.07C2114.46,-104.44 606.97,-104.78 405.54,-69 368.38,-62.4 327.98,-47.02 300.18,-35.05"/>
<polygon fill="black" stroke="black" points="301.46,-31.79 290.9,-30.98 298.65,-38.2 301.46,-31.79"/>
<text text-anchor="middle" x="419.04" y="-57.8" font-family="Times,serif" font-size="14.00">dep</text>
</g>
<!-- 4 -->
<g id="node5" class="node">
<title>4</title>
<ellipse fill="none" stroke="black" cx="346.54" cy="-18" rx="27" ry="18"/>
<text text-anchor="middle" x="346.54" y="-14.3" font-family="Times,serif" font-size="14.00">de</text>
</g>
<!-- 0&#45;&gt;4 -->
<g id="edge4" class="edge">
<title>0&#45;&gt;4</title>
<path fill="none" stroke="black" d="M2389.32,-103.8C2122.62,-102.48 705.83,-94.32 514.54,-69 454.59,-61.06 439.49,-56.34 382.54,-36 380.69,-35.34 378.8,-34.61 376.91,-33.84"/>
<polygon fill="black" stroke="black" points="378.14,-30.56 367.57,-29.77 375.34,-36.98 378.14,-30.56"/>
<text text-anchor="middle" x="528.04" y="-57.8" font-family="Times,serif" font-size="14.00">dep</text>
</g>
<!-- 5 -->
<g id="node6" class="node">
<title>5</title>
<ellipse fill="none" stroke="black" cx="447.54" cy="-18" rx="55.79" ry="18"/>
<text text-anchor="middle" x="447.54" y="-14.3" font-family="Times,serif" font-size="14.00">qualidade</text>
</g>
<!-- 0&#45;&gt;5 -->
<g id="edge5" class="edge">
<title>0&#45;&gt;5</title>
<path fill="none" stroke="black" d="M2389.34,-103.9C2130.41,-103.2 789.21,-98.18 608.54,-69 567.56,-62.38 522.58,-47.75 490.6,-36.01"/>
<polygon fill="black" stroke="black" points="491.7,-32.69 481.11,-32.48 489.26,-39.25 491.7,-32.69"/>
<text text-anchor="middle" x="622.04" y="-57.8" font-family="Times,serif" font-size="14.00">dep</text>
</g>
<!-- 6 -->
<g id="node7" class="node">
<title>6</title>
<ellipse fill="none" stroke="black" cx="548.54" cy="-18" rx="27" ry="18"/>
<text text-anchor="middle" x="548.54" y="-14.3" font-family="Times,serif" font-size="14.00">e</text>
</g>
<!-- 0&#45;&gt;6 -->
<g id="edge6" class="edge">
<title>0&#45;&gt;6</title>
<path fill="none" stroke="black" d="M2389.54,-103.7C2140.43,-101.86 887.57,-91.54 717.54,-69 657.17,-61 641.92,-56.44 584.54,-36 582.64,-35.32 580.7,-34.58 578.76,-33.79"/>
<polygon fill="black" stroke="black" points="579.75,-30.4 569.19,-29.6 576.95,-36.82 579.75,-30.4"/>
<text text-anchor="middle" x="731.04" y="-57.8" font-family="Times,serif" font-size="14.00">dep</text>
</g>
<!-- 7 -->
<g id="node8" class="node">
<title>7</title>
<ellipse fill="none" stroke="black" cx="633.54" cy="-18" rx="40.09" ry="18"/>
<text text-anchor="middle" x="633.54" y="-14.3" font-family="Times,serif" font-size="14.00">outros</text>
</g>
<!-- 0&#45;&gt;7 -->
<g id="edge7" class="edge">
<title>0&#45;&gt;7</title>
<path fill="none" stroke="black" d="M2389.45,-104.21C2166.77,-105.12 1144.86,-107.1 830.54,-69 763.64,-60.89 747.37,-54.41 682.54,-36 679.56,-35.15 676.5,-34.23 673.43,-33.26"/>
<polygon fill="black" stroke="black" points="674.28,-29.86 663.69,-30.07 672.1,-36.51 674.28,-29.86"/>
<text text-anchor="middle" x="844.04" y="-57.8" font-family="Times,serif" font-size="14.00">dep</text>
</g>
<!-- 8 -->
<g id="node9" class="node">
<title>8</title>
<ellipse fill="none" stroke="black" cx="745.54" cy="-18" rx="53.89" ry="18"/>
<text text-anchor="middle" x="745.54" y="-14.3" font-family="Times,serif" font-size="14.00">conceitos</text>
</g>
<!-- 0&#45;&gt;8 -->
<g id="edge8" class="edge">
<title>0&#45;&gt;8</title>
<path fill="none" stroke="black" d="M2389.49,-103.59C2159.61,-101.33 1081.7,-89.7 934.54,-69 884.87,-62.01 829.56,-46.43 791.67,-34.5"/>
<polygon fill="black" stroke="black" points="792.54,-31.11 781.95,-31.4 790.42,-37.77 792.54,-31.11"/>
<text text-anchor="middle" x="948.04" y="-57.8" font-family="Times,serif" font-size="14.00">dep</text>
</g>
<!-- 9 -->
<g id="node10" class="node">
<title>9</title>
<ellipse fill="none" stroke="black" cx="855.54" cy="-18" rx="38.19" ry="18"/>
<text text-anchor="middle" x="855.54" y="-14.3" font-family="Times,serif" font-size="14.00">foram</text>
</g>
<!-- 0&#45;&gt;9 -->
<g id="edge9" class="edge">
<title>0&#45;&gt;9</title>
<path fill="none" stroke="black" d="M2389.55,-104.11C2185.38,-104.46 1312.48,-103.83 1042.54,-69 979.14,-60.82 963.82,-54.24 902.54,-36 899.64,-35.14 896.66,-34.19 893.67,-33.21"/>
<polygon fill="black" stroke="black" points="894.8,-29.89 884.2,-29.96 892.53,-36.51 894.8,-29.89"/>
<text text-anchor="middle" x="1056.04" y="-57.8" font-family="Times,serif" font-size="14.00">dep</text>
</g>
<!-- 10 -->
<g id="node11" class="node">
<title>10</title>
<ellipse fill="none" stroke="black" cx="976.54" cy="-18" rx="64.99" ry="18"/>
<text text-anchor="middle" x="976.54" y="-14.3" font-family="Times,serif" font-size="14.00">assimilados</text>
</g>
<!-- 0&#45;&gt;10 -->
<g id="edge10" class="edge">
<title>0&#45;&gt;10</title>
<path fill="none" stroke="black" d="M2389.51,-103.55C2178.83,-101.24 1261.28,-90.04 1135.54,-69 1096.14,-62.41 1053,-48.38 1021.6,-36.86"/>
<polygon fill="black" stroke="black" points="1022.44,-33.44 1011.84,-33.22 1019.99,-39.99 1022.44,-33.44"/>
<text text-anchor="middle" x="1149.04" y="-57.8" font-family="Times,serif" font-size="14.00">dep</text>
</g>
<!-- 11 -->
<g id="node12" class="node">
<title>11</title>
<ellipse fill="none" stroke="black" cx="1086.54" cy="-18" rx="27" ry="18"/>
<text text-anchor="middle" x="1086.54" y="-14.3" font-family="Times,serif" font-size="14.00">por</text>
</g>
<!-- 0&#45;&gt;11 -->
<g id="edge11" class="edge">
<title>0&#45;&gt;11</title>
<path fill="none" stroke="black" d="M2389.56,-103.54C2187.21,-101.26 1334.49,-90.47 1217.54,-69 1181.45,-62.37 1142.44,-46.21 1116.47,-34.05"/>
<polygon fill="black" stroke="black" points="1117.71,-30.76 1107.18,-29.61 1114.69,-37.08 1117.71,-30.76"/>
<text text-anchor="middle" x="1231.04" y="-57.8" font-family="Times,serif" font-size="14.00">dep</text>
</g>
<!-- 12 -->
<g id="node13" class="node">
<title>12</title>
<ellipse fill="none" stroke="black" cx="1158.54" cy="-18" rx="27" ry="18"/>
<text text-anchor="middle" x="1158.54" y="-14.3" font-family="Times,serif" font-size="14.00">as</text>
</g>
<!-- 0&#45;&gt;12 -->
<g id="edge12" class="edge">
<title>0&#45;&gt;12</title>
<path fill="none" stroke="black" d="M2389.5,-103.95C2211.41,-103.54 1531.65,-99.92 1319.54,-69 1262.69,-60.71 1248.53,-55.68 1194.54,-36 1192.69,-35.33 1190.81,-34.59 1188.92,-33.82"/>
<polygon fill="black" stroke="black" points="1190.15,-30.54 1179.59,-29.73 1187.34,-36.95 1190.15,-30.54"/>
<text text-anchor="middle" x="1333.04" y="-57.8" font-family="Times,serif" font-size="14.00">dep</text>
</g>
<!-- 13 -->
<g id="node14" class="node">
<title>13</title>
<ellipse fill="none" stroke="black" cx="1259.54" cy="-18" rx="55.79" ry="18"/>
<text text-anchor="middle" x="1259.54" y="-14.3" font-family="Times,serif" font-size="14.00">empresas</text>
</g>
<!-- 0&#45;&gt;13 -->
<g id="edge13" class="edge">
<title>0&#45;&gt;13</title>
<path fill="none" stroke="black" d="M2389.49,-104.18C2220.35,-104.65 1601.31,-103.87 1408.54,-69 1371.27,-62.26 1330.61,-48.13 1301.2,-36.6"/>
<polygon fill="black" stroke="black" points="1302.26,-33.26 1291.68,-32.81 1299.67,-39.76 1302.26,-33.26"/>
<text text-anchor="middle" x="1422.04" y="-57.8" font-family="Times,serif" font-size="14.00">dep</text>
</g>
<!-- 14 -->
<g id="node15" class="node">
<title>14</title>
<ellipse fill="none" stroke="black" cx="1360.54" cy="-18" rx="27" ry="18"/>
<text text-anchor="middle" x="1360.54" y="-14.3" font-family="Times,serif" font-size="14.00">a</text>
</g>
<!-- 0&#45;&gt;14 -->
<g id="edge14" class="edge">
<title>0&#45;&gt;14</title>
<path fill="none" stroke="black" d="M2389.64,-104.13C2229.3,-104.35 1665.54,-102.67 1489.54,-69 1454.19,-62.24 1416.02,-46.26 1390.45,-34.17"/>
<polygon fill="black" stroke="black" points="1391.83,-30.95 1381.3,-29.76 1388.79,-37.25 1391.83,-30.95"/>
<text text-anchor="middle" x="1503.04" y="-57.8" font-family="Times,serif" font-size="14.00">dep</text>
</g>
<!-- 15 -->
<g id="node16" class="node">
<title>15</title>
<ellipse fill="none" stroke="black" cx="1432.54" cy="-18" rx="27" ry="18"/>
<text text-anchor="middle" x="1432.54" y="-14.3" font-family="Times,serif" font-size="14.00">o</text>
</g>
<!-- 0&#45;&gt;15 -->
<g id="edge15" class="edge">
<title>0&#45;&gt;15</title>
<path fill="none" stroke="black" d="M2389.77,-103.48C2241.06,-101.47 1747.07,-93.11 1590.54,-69 1535.03,-60.45 1521.26,-55.4 1468.54,-36 1466.7,-35.32 1464.81,-34.58 1462.92,-33.8"/>
<polygon fill="black" stroke="black" points="1464.16,-30.52 1453.6,-29.7 1461.34,-36.93 1464.16,-30.52"/>
<text text-anchor="middle" x="1604.04" y="-57.8" font-family="Times,serif" font-size="14.00">dep</text>
</g>
<!-- 16 -->
<g id="node17" class="node">
<title>16</title>
<ellipse fill="none" stroke="black" cx="1521.54" cy="-18" rx="44.39" ry="18"/>
<text text-anchor="middle" x="1521.54" y="-14.3" font-family="Times,serif" font-size="14.00">mesmo</text>
</g>
<!-- 0&#45;&gt;16 -->
<g id="edge16" class="edge">
<title>0&#45;&gt;16</title>
<path fill="none" stroke="black" d="M2389.4,-103.49C2250.47,-101.62 1815.72,-93.89 1677.54,-69 1637.01,-61.7 1592.41,-46.66 1561.32,-34.97"/>
<polygon fill="black" stroke="black" points="1562.31,-31.6 1551.72,-31.31 1559.81,-38.14 1562.31,-31.6"/>
<text text-anchor="middle" x="1691.04" y="-57.8" font-family="Times,serif" font-size="14.00">dep</text>
</g>
<!-- 17 -->
<g id="node18" class="node">
<title>17</title>
<ellipse fill="none" stroke="black" cx="1623.54" cy="-18" rx="40.09" ry="18"/>
<text text-anchor="middle" x="1623.54" y="-14.3" font-family="Times,serif" font-size="14.00">tempo</text>
</g>
<!-- 0&#45;&gt;17 -->
<g id="edge17" class="edge">
<title>0&#45;&gt;17</title>
<path fill="none" stroke="black" d="M2389.39,-103.5C2260.25,-101.71 1878.2,-94.38 1756.54,-69 1722.56,-61.91 1685.75,-47.51 1659.49,-35.97"/>
<polygon fill="black" stroke="black" points="1660.88,-32.76 1650.32,-31.87 1658.02,-39.15 1660.88,-32.76"/>
<text text-anchor="middle" x="1770.04" y="-57.8" font-family="Times,serif" font-size="14.00">dep</text>
</g>
<!-- 18 -->
<g id="node19" class="node">
<title>18</title>
<ellipse fill="none" stroke="black" cx="1708.54" cy="-18" rx="27" ry="18"/>
<text text-anchor="middle" x="1708.54" y="-14.3" font-family="Times,serif" font-size="14.00">em</text>
</g>
<!-- 0&#45;&gt;18 -->
<g id="edge18" class="edge">
<title>0&#45;&gt;18</title>
<path fill="none" stroke="black" d="M2389.61,-103.04C2271.46,-100.16 1943.27,-90.42 1837.54,-69 1802.27,-61.85 1764.09,-45.94 1738.49,-33.97"/>
<polygon fill="black" stroke="black" points="1739.86,-30.75 1729.33,-29.61 1736.85,-37.07 1739.86,-30.75"/>
<text text-anchor="middle" x="1851.04" y="-57.8" font-family="Times,serif" font-size="14.00">dep</text>
</g>
<!-- 19 -->
<g id="node20" class="node">
<title>19</title>
<ellipse fill="none" stroke="black" cx="1781.54" cy="-18" rx="27.9" ry="18"/>
<text text-anchor="middle" x="1781.54" y="-14.3" font-family="Times,serif" font-size="14.00">que</text>
</g>
<!-- 0&#45;&gt;19 -->
<g id="edge19" class="edge">
<title>0&#45;&gt;19</title>
<path fill="none" stroke="black" d="M2389.48,-104.3C2301.65,-104.2 2095.83,-100.29 1926.54,-69 1877.19,-59.88 1865.45,-53.85 1818.54,-36 1816.66,-35.28 1814.74,-34.52 1812.81,-33.72"/>
<polygon fill="black" stroke="black" points="1813.82,-30.34 1803.25,-29.56 1811.02,-36.76 1813.82,-30.34"/>
<text text-anchor="middle" x="1940.04" y="-57.8" font-family="Times,serif" font-size="14.00">dep</text>
</g>
<!-- 20 -->
<g id="node21" class="node">
<title>20</title>
<ellipse fill="none" stroke="black" cx="1856.54" cy="-18" rx="29.5" ry="18"/>
<text text-anchor="middle" x="1856.54" y="-14.3" font-family="Times,serif" font-size="14.00">elas</text>
</g>
<!-- 0&#45;&gt;20 -->
<g id="edge20" class="edge">
<title>0&#45;&gt;20</title>
<path fill="none" stroke="black" d="M2390.08,-102.03C2318.05,-98.29 2167.46,-88.68 2041.54,-69 1975.39,-58.66 1958.09,-57.11 1894.54,-36 1892.43,-35.3 1890.27,-34.52 1888.11,-33.69"/>
<polygon fill="black" stroke="black" points="1889.33,-30.41 1878.75,-29.83 1886.66,-36.88 1889.33,-30.41"/>
<text text-anchor="middle" x="2055.04" y="-57.8" font-family="Times,serif" font-size="14.00">dep</text>
</g>
<!-- 21 -->
<g id="node22" class="node">
<title>21</title>
<ellipse fill="none" stroke="black" cx="1959.54" cy="-18" rx="55.79" ry="18"/>
<text text-anchor="middle" x="1959.54" y="-14.3" font-family="Times,serif" font-size="14.00">passaram</text>
</g>
<!-- 0&#45;&gt;21 -->
<g id="edge21" class="edge">
<title>0&#45;&gt;21</title>
<path fill="none" stroke="black" d="M2390.38,-101.46C2331.36,-97.38 2220.94,-87.84 2128.54,-69 2086.25,-60.38 2039.25,-46.07 2005.57,-34.97"/>
<polygon fill="black" stroke="black" points="2006.6,-31.62 1996,-31.78 2004.39,-38.26 2006.6,-31.62"/>
<text text-anchor="middle" x="2142.04" y="-57.8" font-family="Times,serif" font-size="14.00">dep</text>
</g>
<!-- 22 -->
<g id="node23" class="node">
<title>22</title>
<ellipse fill="none" stroke="black" cx="2060.54" cy="-18" rx="27" ry="18"/>
<text text-anchor="middle" x="2060.54" y="-14.3" font-family="Times,serif" font-size="14.00">a</text>
</g>
<!-- 0&#45;&gt;22 -->
<g id="edge22" class="edge">
<title>0&#45;&gt;22</title>
<path fill="none" stroke="black" d="M2391.36,-99.77C2326.88,-92.25 2198.89,-73.67 2096.54,-36 2094.7,-35.32 2092.81,-34.58 2090.92,-33.8"/>
<polygon fill="black" stroke="black" points="2092.16,-30.52 2081.6,-29.7 2089.34,-36.93 2092.16,-30.52"/>
<text text-anchor="middle" x="2219.04" y="-57.8" font-family="Times,serif" font-size="14.00">dep</text>
</g>
<!-- 23 -->
<g id="node24" class="node">
<title>23</title>
<ellipse fill="none" stroke="black" cx="2143.54" cy="-18" rx="37.89" ry="18"/>
<text text-anchor="middle" x="2143.54" y="-14.3" font-family="Times,serif" font-size="14.00">exigir</text>
</g>
<!-- 0&#45;&gt;23 -->
<g id="edge23" class="edge">
<title>0&#45;&gt;23</title>
<path fill="none" stroke="black" d="M2396.86,-94.98C2349.25,-82.73 2262.47,-59.64 2189.54,-36 2186.97,-35.17 2184.34,-34.28 2181.68,-33.36"/>
<polygon fill="black" stroke="black" points="2182.72,-30.02 2172.13,-29.97 2180.38,-36.62 2182.72,-30.02"/>
<text text-anchor="middle" x="2310.04" y="-57.8" font-family="Times,serif" font-size="14.00">dep</text>
</g>
<!-- 24 -->
<g id="node25" class="node">
<title>24</title>
<ellipse fill="none" stroke="black" cx="2266.54" cy="-18" rx="67.69" ry="18"/>
<text text-anchor="middle" x="2266.54" y="-14.3" font-family="Times,serif" font-size="14.00">funcionários</text>
</g>
<!-- 0&#45;&gt;24 -->
<g id="edge24" class="edge">
<title>0&#45;&gt;24</title>
<path fill="none" stroke="black" d="M2406.24,-90.53C2379.15,-76.66 2336.62,-54.88 2305.6,-39"/>
<polygon fill="black" stroke="black" points="2306.87,-35.72 2296.37,-34.27 2303.68,-41.95 2306.87,-35.72"/>
<text text-anchor="middle" x="2373.04" y="-57.8" font-family="Times,serif" font-size="14.00">dep</text>
</g>
<!-- 25 -->
<g id="node26" class="node">
<title>25</title>
<ellipse fill="none" stroke="black" cx="2384.54" cy="-18" rx="32.49" ry="18"/>
<text text-anchor="middle" x="2384.54" y="-14.3" font-family="Times,serif" font-size="14.00">mais</text>
</g>
<!-- 0&#45;&gt;25 -->
<g id="edge25" class="edge">
<title>0&#45;&gt;25</title>
<path fill="none" stroke="black" d="M2423.06,-87.21C2416.18,-75.02 2406.75,-58.32 2398.94,-44.49"/>
<polygon fill="black" stroke="black" points="2401.81,-42.46 2393.84,-35.47 2395.71,-45.9 2401.81,-42.46"/>
<text text-anchor="middle" x="2425.04" y="-57.8" font-family="Times,serif" font-size="14.00">dep</text>
</g>
<!-- 26 -->
<g id="node27" class="node">
<title>26</title>
<ellipse fill="none" stroke="black" cx="2481.54" cy="-18" rx="46.29" ry="18"/>
<text text-anchor="middle" x="2481.54" y="-14.3" font-family="Times,serif" font-size="14.00">abertos</text>
</g>
<!-- 0&#45;&gt;26 -->
<g id="edge26" class="edge">
<title>0&#45;&gt;26</title>
<path fill="none" stroke="black" d="M2442.22,-87.21C2449.2,-75.1 2458.75,-58.53 2466.69,-44.76"/>
<polygon fill="black" stroke="black" points="2469.92,-46.17 2471.88,-35.76 2463.86,-42.67 2469.92,-46.17"/>
<text text-anchor="middle" x="2474.04" y="-57.8" font-family="Times,serif" font-size="14.00">dep</text>
</g>
<!-- 27 -->
<g id="node28" class="node">
<title>27</title>
<ellipse fill="none" stroke="black" cx="2572.54" cy="-18" rx="27" ry="18"/>
<text text-anchor="middle" x="2572.54" y="-14.3" font-family="Times,serif" font-size="14.00">a</text>
</g>
<!-- 0&#45;&gt;27 -->
<g id="edge27" class="edge">
<title>0&#45;&gt;27</title>
<path fill="none" stroke="black" d="M2456.43,-89.96C2467.19,-83.6 2480.03,-75.97 2491.54,-69 2509.27,-58.27 2529.07,-46.06 2544.65,-36.39"/>
<polygon fill="black" stroke="black" points="2546.64,-39.27 2553.29,-31.02 2542.95,-33.32 2546.64,-39.27"/>
<text text-anchor="middle" x="2530.04" y="-57.8" font-family="Times,serif" font-size="14.00">dep</text>
</g>
<!-- 28 -->
<g id="node29" class="node">
<title>28</title>
<ellipse fill="none" stroke="black" cx="2644.54" cy="-18" rx="27" ry="18"/>
<text text-anchor="middle" x="2644.54" y="-14.3" font-family="Times,serif" font-size="14.00">o</text>
</g>
<!-- 0&#45;&gt;28 -->
<g id="edge28" class="edge">
<title>0&#45;&gt;28</title>
<path fill="none" stroke="black" d="M2468.35,-94.9C2491.34,-88.62 2521.63,-79.52 2547.54,-69 2571.38,-59.32 2597.22,-45.84 2616.23,-35.32"/>
<polygon fill="black" stroke="black" points="2617.96,-38.36 2624.98,-30.42 2614.54,-32.25 2617.96,-38.36"/>
<text text-anchor="middle" x="2594.04" y="-57.8" font-family="Times,serif" font-size="14.00">dep</text>
</g>
<!-- 29 -->
<g id="node30" class="node">
<title>29</title>
<ellipse fill="none" stroke="black" cx="2733.54" cy="-18" rx="44.39" ry="18"/>
<text text-anchor="middle" x="2733.54" y="-14.3" font-family="Times,serif" font-size="14.00">diálogo</text>
</g>
<!-- 0&#45;&gt;29 -->
<g id="edge29" class="edge">
<title>0&#45;&gt;29</title>
<path fill="none" stroke="black" d="M2472.55,-98.48C2509.18,-92.88 2564.68,-83.04 2611.54,-69 2640.84,-60.23 2672.78,-46.99 2696.63,-36.34"/>
<polygon fill="black" stroke="black" points="2698.33,-39.42 2706,-32.11 2695.45,-33.04 2698.33,-39.42"/>
<text text-anchor="middle" x="2667.04" y="-57.8" font-family="Times,serif" font-size="14.00">dep</text>
</g>
<!-- 30 -->
<g id="node31" class="node">
<title>30</title>
<ellipse fill="none" stroke="black" cx="2822.54" cy="-18" rx="27" ry="18"/>
<text text-anchor="middle" x="2822.54" y="-14.3" font-family="Times,serif" font-size="14.00">e</text>
</g>
<!-- 0&#45;&gt;30 -->
<g id="edge30" class="edge">
<title>0&#45;&gt;30</title>
<path fill="none" stroke="black" d="M2474.42,-100.45C2524.76,-95.65 2611.57,-85.74 2684.54,-69 2730.98,-58.35 2742.24,-53.54 2786.54,-36 2788.38,-35.27 2790.25,-34.5 2792.12,-33.7"/>
<polygon fill="black" stroke="black" points="2793.73,-36.81 2801.42,-29.53 2790.87,-30.42 2793.73,-36.81"/>
<text text-anchor="middle" x="2752.04" y="-57.8" font-family="Times,serif" font-size="14.00">dep</text>
</g>
<!-- 31 -->
<g id="node32" class="node">
<title>31</title>
<ellipse fill="none" stroke="black" cx="2911.54" cy="-18" rx="44.39" ry="18"/>
<text text-anchor="middle" x="2911.54" y="-14.3" font-family="Times,serif" font-size="14.00">cientes</text>
</g>
<!-- 0&#45;&gt;31 -->
<g id="edge31" class="edge">
<title>0&#45;&gt;31</title>
<path fill="none" stroke="black" d="M2475.36,-102.77C2539.87,-100.19 2665.52,-92.37 2769.54,-69 2805.36,-60.95 2844.61,-46.69 2872.76,-35.45"/>
<polygon fill="black" stroke="black" points="2874.27,-38.61 2882.22,-31.61 2871.64,-32.12 2874.27,-38.61"/>
<text text-anchor="middle" x="2835.04" y="-57.8" font-family="Times,serif" font-size="14.00">dep</text>
</g>
<!-- 32 -->
<g id="node33" class="node">
<title>32</title>
<ellipse fill="none" stroke="black" cx="3000.54" cy="-18" rx="27" ry="18"/>
<text text-anchor="middle" x="3000.54" y="-14.3" font-family="Times,serif" font-size="14.00">de</text>
</g>
<!-- 0&#45;&gt;32 -->
<g id="edge32" class="edge">
<title>0&#45;&gt;32</title>
<path fill="none" stroke="black" d="M2475.25,-103.3C2551.6,-101.42 2716.25,-94.48 2852.54,-69 2903.55,-59.46 2916.05,-54.47 2964.54,-36 2966.38,-35.3 2968.26,-34.54 2970.14,-33.75"/>
<polygon fill="black" stroke="black" points="2971.74,-36.88 2979.46,-29.62 2968.9,-30.48 2971.74,-36.88"/>
<text text-anchor="middle" x="2929.04" y="-57.8" font-family="Times,serif" font-size="14.00">dep</text>
</g>
<!-- 33 -->
<g id="node34" class="node">
<title>33</title>
<ellipse fill="none" stroke="black" cx="3072.54" cy="-18" rx="27" ry="18"/>
<text text-anchor="middle" x="3072.54" y="-14.3" font-family="Times,serif" font-size="14.00">a</text>
</g>
<!-- 0&#45;&gt;33 -->
<g id="edge33" class="edge">
<title>0&#45;&gt;33</title>
<path fill="none" stroke="black" d="M2475.33,-102.65C2581.89,-99.02 2856.98,-88.06 2946.54,-69 2980.68,-61.73 3017.56,-46.1 3042.54,-34.24"/>
<polygon fill="black" stroke="black" points="3044.35,-37.25 3051.82,-29.74 3041.3,-30.95 3044.35,-37.25"/>
<text text-anchor="middle" x="3007.04" y="-57.8" font-family="Times,serif" font-size="14.00">dep</text>
</g>
<!-- 34 -->
<g id="node35" class="node">
<title>34</title>
<ellipse fill="none" stroke="black" cx="3183.54" cy="-18" rx="66.09" ry="18"/>
<text text-anchor="middle" x="3183.54" y="-14.3" font-family="Times,serif" font-size="14.00">importância</text>
</g>
<!-- 0&#45;&gt;34 -->
<g id="edge34" class="edge">
<title>0&#45;&gt;34</title>
<path fill="none" stroke="black" d="M2475.22,-102.84C2592.68,-99.42 2918.98,-88.41 3024.54,-69 3063.45,-61.85 3106.14,-48.07 3137.49,-36.79"/>
<polygon fill="black" stroke="black" points="3139.05,-39.95 3147.24,-33.23 3136.65,-33.37 3139.05,-39.95"/>
<text text-anchor="middle" x="3096.04" y="-57.8" font-family="Times,serif" font-size="14.00">dep</text>
</g>
<!-- 35 -->
<g id="node36" class="node">
<title>35</title>
<ellipse fill="none" stroke="black" cx="3294.54" cy="-18" rx="27" ry="18"/>
<text text-anchor="middle" x="3294.54" y="-14.3" font-family="Times,serif" font-size="14.00">de</text>
</g>
<!-- 0&#45;&gt;35 -->
<g id="edge35" class="edge">
<title>0&#45;&gt;35</title>
<path fill="none" stroke="black" d="M2475.42,-104.35C2583.21,-104.69 2874.03,-102.16 3113.54,-69 3179.01,-59.94 3196.07,-57.57 3258.54,-36 3260.45,-35.34 3262.4,-34.61 3264.34,-33.83"/>
<polygon fill="black" stroke="black" points="3266.14,-36.87 3273.92,-29.68 3263.36,-30.44 3266.14,-36.87"/>
<text text-anchor="middle" x="3213.04" y="-57.8" font-family="Times,serif" font-size="14.00">dep</text>
</g>
<!-- 36 -->
<g id="node37" class="node">
<title>36</title>
<ellipse fill="none" stroke="black" cx="3366.54" cy="-18" rx="27" ry="18"/>
<text text-anchor="middle" x="3366.54" y="-14.3" font-family="Times,serif" font-size="14.00">o</text>
</g>
<!-- 0&#45;&gt;36 -->
<g id="edge36" class="edge">
<title>0&#45;&gt;36</title>
<path fill="none" stroke="black" d="M2475.36,-103.67C2619.1,-102.32 3083.66,-95.92 3230.54,-69 3268.23,-62.09 3309.21,-45.71 3336.22,-33.57"/>
<polygon fill="black" stroke="black" points="3337.88,-36.66 3345.51,-29.31 3334.97,-30.29 3337.88,-36.66"/>
<text text-anchor="middle" x="3298.04" y="-57.8" font-family="Times,serif" font-size="14.00">dep</text>
</g>
<!-- 37 -->
<g id="node38" class="node">
<title>37</title>
<ellipse fill="none" stroke="black" cx="3484.54" cy="-18" rx="72.59" ry="18"/>
<text text-anchor="middle" x="3484.54" y="-14.3" font-family="Times,serif" font-size="14.00">cumprimento</text>
</g>
<!-- 0&#45;&gt;37 -->
<g id="edge37" class="edge">
<title>0&#45;&gt;37</title>
<path fill="none" stroke="black" d="M2475.55,-103.71C2629.25,-102.43 3151.02,-96.16 3315.54,-69 3357.17,-62.13 3402.98,-48.15 3436.4,-36.72"/>
<polygon fill="black" stroke="black" points="3437.62,-40 3445.92,-33.42 3435.32,-33.39 3437.62,-40"/>
<text text-anchor="middle" x="3391.04" y="-57.8" font-family="Times,serif" font-size="14.00">dep</text>
</g>
<!-- 38 -->
<g id="node39" class="node">
<title>38</title>
<ellipse fill="none" stroke="black" cx="3602.54" cy="-18" rx="27" ry="18"/>
<text text-anchor="middle" x="3602.54" y="-14.3" font-family="Times,serif" font-size="14.00">de</text>
</g>
<!-- 0&#45;&gt;38 -->
<g id="edge38" class="edge">
<title>0&#45;&gt;38</title>
<path fill="none" stroke="black" d="M2475.42,-103.43C2639.01,-101.12 3223.92,-91.43 3408.54,-69 3479.76,-60.35 3498.53,-58.81 3566.54,-36 3568.46,-35.36 3570.41,-34.64 3572.36,-33.87"/>
<polygon fill="black" stroke="black" points="3574.15,-36.91 3581.95,-29.74 3571.38,-30.48 3574.15,-36.91"/>
<text text-anchor="middle" x="3519.04" y="-57.8" font-family="Times,serif" font-size="14.00">dep</text>
</g>
<!-- 39 -->
<g id="node40" class="node">
<title>39</title>
<ellipse fill="none" stroke="black" cx="3674.54" cy="-18" rx="27" ry="18"/>
<text text-anchor="middle" x="3674.54" y="-14.3" font-family="Times,serif" font-size="14.00">as</text>
</g>
<!-- 0&#45;&gt;39 -->
<g id="edge39" class="edge">
<title>0&#45;&gt;39</title>
<path fill="none" stroke="black" d="M2475.59,-104.25C2652.9,-105.02 3327.19,-105.43 3536.54,-69 3574.78,-62.35 3616.36,-45.91 3643.78,-33.69"/>
<polygon fill="black" stroke="black" points="3645.55,-36.73 3653.2,-29.41 3642.65,-30.36 3645.55,-36.73"/>
<text text-anchor="middle" x="3605.04" y="-57.8" font-family="Times,serif" font-size="14.00">dep</text>
</g>
<!-- 40 -->
<g id="node41" class="node">
<title>40</title>
<ellipse fill="none" stroke="black" cx="3760.54" cy="-18" rx="40.89" ry="18"/>
<text text-anchor="middle" x="3760.54" y="-14.3" font-family="Times,serif" font-size="14.00">regras</text>
</g>
<!-- 0&#45;&gt;40 -->
<g id="edge40" class="edge">
<title>0&#45;&gt;40</title>
<path fill="none" stroke="black" d="M2475.31,-103.55C2674.71,-101.32 3508.28,-90.8 3622.54,-69 3658.26,-62.19 3697.03,-47.44 3724.35,-35.71"/>
<polygon fill="black" stroke="black" points="3725.76,-38.92 3733.52,-31.71 3722.95,-32.51 3725.76,-38.92"/>
<text text-anchor="middle" x="3691.04" y="-57.8" font-family="Times,serif" font-size="14.00">dep</text>
</g>
<!-- 41 -->
<g id="node42" class="node">
<title>41</title>
<ellipse fill="none" stroke="black" cx="3846.54" cy="-18" rx="27" ry="18"/>
<text text-anchor="middle" x="3846.54" y="-14.3" font-family="Times,serif" font-size="14.00">de</text>
</g>
<!-- 0&#45;&gt;41 -->
<g id="edge41" class="edge">
<title>0&#45;&gt;41</title>
<path fill="none" stroke="black" d="M2475.58,-103.55C2684.17,-101.26 3585.07,-90.22 3708.54,-69 3746.79,-62.43 3788.37,-45.98 3815.78,-33.73"/>
<polygon fill="black" stroke="black" points="3817.56,-36.77 3825.21,-29.44 3814.66,-30.4 3817.56,-36.77"/>
<text text-anchor="middle" x="3777.04" y="-57.8" font-family="Times,serif" font-size="14.00">dep</text>
</g>
<!-- 42 -->
<g id="node43" class="node">
<title>42</title>
<ellipse fill="none" stroke="black" cx="3923.54" cy="-18" rx="32.49" ry="18"/>
<text text-anchor="middle" x="3923.54" y="-14.3" font-family="Times,serif" font-size="14.00">boas</text>
</g>
<!-- 0&#45;&gt;42 -->
<g id="edge42" class="edge">
<title>0&#45;&gt;42</title>
<path fill="none" stroke="black" d="M2475.59,-103.74C2692.72,-102.34 3662.71,-94.66 3794.54,-69 3828.83,-62.33 3865.79,-47.1 3891.32,-35.19"/>
<polygon fill="black" stroke="black" points="3892.99,-38.27 3900.52,-30.82 3889.98,-31.95 3892.99,-38.27"/>
<text text-anchor="middle" x="3859.04" y="-57.8" font-family="Times,serif" font-size="14.00">dep</text>
</g>
<!-- 43 -->
<g id="node44" class="node">
<title>43</title>
<ellipse fill="none" stroke="black" cx="4027.54" cy="-18" rx="53.89" ry="18"/>
<text text-anchor="middle" x="4027.54" y="-14.3" font-family="Times,serif" font-size="14.00">maneiras</text>
</g>
<!-- 0&#45;&gt;43 -->
<g id="edge43" class="edge">
<title>0&#45;&gt;43</title>
<path fill="none" stroke="black" d="M2475.53,-103.71C2700.34,-102.11 3735.72,-93.46 3876.54,-69 3914.55,-62.4 3956.05,-48.11 3985.9,-36.49"/>
<polygon fill="black" stroke="black" points="3987.55,-39.6 3995.56,-32.67 3984.98,-33.1 3987.55,-39.6"/>
<text text-anchor="middle" x="3950.04" y="-57.8" font-family="Times,serif" font-size="14.00">dep</text>
</g>
<!-- 44 -->
<g id="node45" class="node">
<title>44</title>
<ellipse fill="none" stroke="black" cx="4141.54" cy="-18" rx="41.69" ry="18"/>
<text text-anchor="middle" x="4141.54" y="-14.3" font-family="Times,serif" font-size="14.00">dentro</text>
</g>
<!-- 0&#45;&gt;44 -->
<g id="edge44" class="edge">
<title>0&#45;&gt;44</title>
<path fill="none" stroke="black" d="M2475.51,-103.63C2708.6,-101.56 3816.57,-90.65 3967.54,-69 4014.55,-62.26 4066.68,-46.06 4101.51,-33.91"/>
<polygon fill="black" stroke="black" points="4103.04,-37.08 4111.3,-30.45 4100.7,-30.49 4103.04,-37.08"/>
<text text-anchor="middle" x="4049.04" y="-57.8" font-family="Times,serif" font-size="14.00">dep</text>
</g>
<!-- 45 -->
<g id="node46" class="node">
<title>45</title>
<ellipse fill="none" stroke="black" cx="4228.54" cy="-18" rx="27" ry="18"/>
<text text-anchor="middle" x="4228.54" y="-14.3" font-family="Times,serif" font-size="14.00">de</text>
</g>
<!-- 0&#45;&gt;45 -->
<g id="edge45" class="edge">
<title>0&#45;&gt;45</title>
<path fill="none" stroke="black" d="M2475.47,-103.68C2717.36,-101.81 3905.13,-91.55 4066.54,-69 4123.88,-60.99 4138.14,-55.78 4192.54,-36 4194.4,-35.33 4196.28,-34.59 4198.17,-33.82"/>
<polygon fill="black" stroke="black" points="4199.75,-36.95 4207.5,-29.73 4196.94,-30.54 4199.75,-36.95"/>
<text text-anchor="middle" x="4153.04" y="-57.8" font-family="Times,serif" font-size="14.00">dep</text>
</g>
<!-- 46 -->
<g id="node47" class="node">
<title>46</title>
<ellipse fill="none" stroke="black" cx="4300.54" cy="-18" rx="27" ry="18"/>
<text text-anchor="middle" x="4300.54" y="-14.3" font-family="Times,serif" font-size="14.00">o</text>
</g>
<!-- 0&#45;&gt;46 -->
<g id="edge46" class="edge">
<title>0&#45;&gt;46</title>
<path fill="none" stroke="black" d="M2475.75,-103.95C2727.45,-103.54 3999.41,-99.94 4170.54,-69 4206.2,-62.55 4244.66,-46.52 4270.42,-34.33"/>
<polygon fill="black" stroke="black" points="4272.16,-37.38 4279.64,-29.88 4269.11,-31.08 4272.16,-37.38"/>
<text text-anchor="middle" x="4236.04" y="-57.8" font-family="Times,serif" font-size="14.00">dep</text>
</g>
<!-- 47 -->
<g id="node48" class="node">
<title>47</title>
<ellipse fill="none" stroke="black" cx="4399.54" cy="-18" rx="53.89" ry="18"/>
<text text-anchor="middle" x="4399.54" y="-14.3" font-family="Times,serif" font-size="14.00">ambiente</text>
</g>
<!-- 0&#45;&gt;47 -->
<g id="edge47" class="edge">
<title>0&#45;&gt;47</title>
<path fill="none" stroke="black" d="M2475.69,-103.97C2734.27,-103.7 4073.61,-100.74 4253.54,-69 4290.29,-62.52 4330.26,-48.29 4359.07,-36.67"/>
<polygon fill="black" stroke="black" points="4360.48,-39.87 4368.4,-32.84 4357.82,-33.4 4360.48,-39.87"/>
<text text-anchor="middle" x="4325.04" y="-57.8" font-family="Times,serif" font-size="14.00">dep</text>
</g>
<!-- 48 -->
<g id="node49" class="node">
<title>48</title>
<ellipse fill="none" stroke="black" cx="4498.54" cy="-18" rx="27" ry="18"/>
<text text-anchor="middle" x="4498.54" y="-14.3" font-family="Times,serif" font-size="14.00">de</text>
</g>
<!-- 0&#45;&gt;48 -->
<g id="edge48" class="edge">
<title>0&#45;&gt;48</title>
<path fill="none" stroke="black" d="M2475.59,-103.86C2741.23,-102.88 4152.36,-96.45 4342.54,-69 4397.29,-61.1 4410.68,-55.21 4462.54,-36 4464.39,-35.32 4466.27,-34.57 4468.16,-33.79"/>
<polygon fill="black" stroke="black" points="4469.74,-36.92 4477.48,-29.69 4466.92,-30.51 4469.74,-36.92"/>
<text text-anchor="middle" x="4426.04" y="-57.8" font-family="Times,serif" font-size="14.00">dep</text>
</g>
<!-- 49 -->
<g id="node50" class="node">
<title>49</title>
<ellipse fill="none" stroke="black" cx="4593.54" cy="-18" rx="50.09" ry="18"/>
<text text-anchor="middle" x="4593.54" y="-14.3" font-family="Times,serif" font-size="14.00">trabalho</text>
</g>
<!-- 0&#45;&gt;49 -->
<g id="edge49" class="edge">
<title>0&#45;&gt;49</title>
<path fill="none" stroke="black" d="M2475.65,-104.04C2749.68,-104.16 4243.6,-103.23 4443.54,-69 4481.83,-62.44 4523.62,-47.86 4553.34,-36.12"/>
<polygon fill="black" stroke="black" points="4554.96,-39.25 4562.94,-32.27 4552.35,-32.75 4554.96,-39.25"/>
<text text-anchor="middle" x="4516.04" y="-57.8" font-family="Times,serif" font-size="14.00">dep</text>
</g>
<!-- 50 -->
<g id="node51" class="node">
<title>50</title>
<ellipse fill="none" stroke="black" cx="4688.54" cy="-18" rx="27" ry="18"/>
<text text-anchor="middle" x="4688.54" y="-14.3" font-family="Times,serif" font-size="14.00">.</text>
</g>
<!-- 0&#45;&gt;50 -->
<g id="edge50" class="edge">
<title>0&#45;&gt;50</title>
<path fill="none" stroke="black" d="M2475.73,-103.94C2757,-103.45 4323.34,-99.39 4533.54,-69 4587.86,-61.15 4601.1,-55.12 4652.54,-36 4654.39,-35.31 4656.27,-34.57 4658.16,-33.79"/>
<polygon fill="black" stroke="black" points="4659.74,-36.92 4667.48,-29.68 4656.92,-30.51 4659.74,-36.92"/>
<text text-anchor="middle" x="4616.04" y="-57.8" font-family="Times,serif" font-size="14.00">dep</text>
</g>
</g>
</svg>
