<?xml version="1.0" encoding="UTF-8" standalone="no"?>
<!DOCTYPE svg PUBLIC "-//W3C//DTD SVG 1.1//EN"
 "http://www.w3.org/Graphics/SVG/1.1/DTD/svg11.dtd">
<!-- Generated by graphviz version 2.42.4 (0)
 -->
<!-- Pages: 1 -->
<svg width="1501pt" height="131pt"
 viewBox="0.00 0.00 1500.84 131.00" xmlns="http://www.w3.org/2000/svg" xmlns:xlink="http://www.w3.org/1999/xlink">
<g id="graph0" class="graph" transform="scale(1 1) rotate(0) translate(4 127)">
<polygon fill="white" stroke="transparent" points="-4,4 -4,-127 1496.84,-127 1496.84,4 -4,4"/>
<!-- 0 -->
<g id="node1" class="node">
<title>0</title>
<ellipse fill="none" stroke="black" cx="742.84" cy="-105" rx="31.7" ry="18"/>
<text text-anchor="middle" x="742.84" y="-101.3" font-family="Times,serif" font-size="14.00">Com</text>
</g>
<!-- 1 -->
<g id="node2" class="node">
<title>1</title>
<ellipse fill="none" stroke="black" cx="57.84" cy="-18" rx="57.69" ry="18"/>
<text text-anchor="middle" x="57.84" y="-14.3" font-family="Times,serif" font-size="14.00">mandados</text>
</g>
<!-- 0&#45;&gt;1 -->
<g id="edge1" class="edge">
<title>0&#45;&gt;1</title>
<path fill="none" stroke="black" d="M710.73,-104.53C627.94,-105.33 400.79,-103.88 215.84,-69 176.56,-61.59 133.37,-47.49 102.09,-36.15"/>
<polygon fill="black" stroke="black" points="102.96,-32.74 92.37,-32.58 100.55,-39.31 102.96,-32.74"/>
<text text-anchor="middle" x="229.34" y="-57.8" font-family="Times,serif" font-size="14.00">dep</text>
</g>
<!-- 2 -->
<g id="node3" class="node">
<title>2</title>
<ellipse fill="none" stroke="black" cx="160.84" cy="-18" rx="27" ry="18"/>
<text text-anchor="middle" x="160.84" y="-14.3" font-family="Times,serif" font-size="14.00">de</text>
</g>
<!-- 0&#45;&gt;2 -->
<g id="edge2" class="edge">
<title>0&#45;&gt;2</title>
<path fill="none" stroke="black" d="M710.89,-103.7C638.52,-102.53 456.8,-96.82 307.84,-69 257.25,-59.55 244.92,-54.37 196.84,-36 195,-35.3 193.13,-34.54 191.25,-33.75"/>
<polygon fill="black" stroke="black" points="192.49,-30.47 181.93,-29.61 189.65,-36.87 192.49,-30.47"/>
<text text-anchor="middle" x="321.34" y="-57.8" font-family="Times,serif" font-size="14.00">dep</text>
</g>
<!-- 3 -->
<g id="node4" class="node">
<title>3</title>
<ellipse fill="none" stroke="black" cx="243.84" cy="-18" rx="37.89" ry="18"/>
<text text-anchor="middle" x="243.84" y="-14.3" font-family="Times,serif" font-size="14.00">busca</text>
</g>
<!-- 0&#45;&gt;3 -->
<g id="edge3" class="edge">
<title>0&#45;&gt;3</title>
<path fill="none" stroke="black" d="M711.13,-103.09C649.28,-100.81 508.5,-93.2 392.84,-69 353.73,-60.82 310.61,-45.63 280.86,-34.14"/>
<polygon fill="black" stroke="black" points="281.9,-30.78 271.31,-30.39 279.35,-37.3 281.9,-30.78"/>
<text text-anchor="middle" x="406.34" y="-57.8" font-family="Times,serif" font-size="14.00">dep</text>
</g>
<!-- 4 -->
<g id="node5" class="node">
<title>4</title>
<ellipse fill="none" stroke="black" cx="326.84" cy="-18" rx="27" ry="18"/>
<text text-anchor="middle" x="326.84" y="-14.3" font-family="Times,serif" font-size="14.00">e</text>
</g>
<!-- 0&#45;&gt;4 -->
<g id="edge4" class="edge">
<title>0&#45;&gt;4</title>
<path fill="none" stroke="black" d="M711.41,-101.91C645.18,-96.74 487.18,-80.41 362.84,-36 360.99,-35.34 359.1,-34.61 357.21,-33.84"/>
<polygon fill="black" stroke="black" points="358.44,-30.56 347.87,-29.77 355.64,-36.98 358.44,-30.56"/>
<text text-anchor="middle" x="488.34" y="-57.8" font-family="Times,serif" font-size="14.00">dep</text>
</g>
<!-- 5 -->
<g id="node6" class="node">
<title>5</title>
<ellipse fill="none" stroke="black" cx="429.84" cy="-18" rx="58.49" ry="18"/>
<text text-anchor="middle" x="429.84" y="-14.3" font-family="Times,serif" font-size="14.00">apreensão</text>
</g>
<!-- 0&#45;&gt;5 -->
<g id="edge5" class="edge">
<title>0&#45;&gt;5</title>
<path fill="none" stroke="black" d="M712.77,-99.06C678.57,-93.15 621.2,-82.37 572.84,-69 539.17,-59.69 501.94,-46.58 473.91,-36.12"/>
<polygon fill="black" stroke="black" points="474.99,-32.79 464.4,-32.54 472.53,-39.34 474.99,-32.79"/>
<text text-anchor="middle" x="586.34" y="-57.8" font-family="Times,serif" font-size="14.00">dep</text>
</g>
<!-- 6 -->
<g id="node7" class="node">
<title>6</title>
<ellipse fill="none" stroke="black" cx="532.84" cy="-18" rx="27" ry="18"/>
<text text-anchor="middle" x="532.84" y="-14.3" font-family="Times,serif" font-size="14.00">,</text>
</g>
<!-- 0&#45;&gt;6 -->
<g id="edge6" class="edge">
<title>0&#45;&gt;6</title>
<path fill="none" stroke="black" d="M714.94,-96.15C692.9,-89.66 661.52,-79.8 634.84,-69 609.75,-58.84 582.24,-45.2 562.12,-34.74"/>
<polygon fill="black" stroke="black" points="563.64,-31.58 553.16,-30.03 560.39,-37.78 563.64,-31.58"/>
<text text-anchor="middle" x="648.34" y="-57.8" font-family="Times,serif" font-size="14.00">dep</text>
</g>
<!-- 7 -->
<g id="node8" class="node">
<title>7</title>
<ellipse fill="none" stroke="black" cx="604.84" cy="-18" rx="27" ry="18"/>
<text text-anchor="middle" x="604.84" y="-14.3" font-family="Times,serif" font-size="14.00">os</text>
</g>
<!-- 0&#45;&gt;7 -->
<g id="edge7" class="edge">
<title>0&#45;&gt;7</title>
<path fill="none" stroke="black" d="M722.18,-91.27C698.51,-76.69 659.57,-52.71 633.1,-36.41"/>
<polygon fill="black" stroke="black" points="634.66,-33.25 624.31,-30.99 630.98,-39.21 634.66,-33.25"/>
<text text-anchor="middle" x="696.34" y="-57.8" font-family="Times,serif" font-size="14.00">dep</text>
</g>
<!-- 8 -->
<g id="node9" class="node">
<title>8</title>
<ellipse fill="none" stroke="black" cx="696.84" cy="-18" rx="46.59" ry="18"/>
<text text-anchor="middle" x="696.84" y="-14.3" font-family="Times,serif" font-size="14.00">homens</text>
</g>
<!-- 0&#45;&gt;8 -->
<g id="edge8" class="edge">
<title>0&#45;&gt;8</title>
<path fill="none" stroke="black" d="M733.98,-87.61C727.44,-75.54 718.43,-58.88 710.91,-45"/>
<polygon fill="black" stroke="black" points="713.84,-43.05 706,-35.92 707.68,-46.38 713.84,-43.05"/>
<text text-anchor="middle" x="736.34" y="-57.8" font-family="Times,serif" font-size="14.00">dep</text>
</g>
<!-- 9 -->
<g id="node10" class="node">
<title>9</title>
<ellipse fill="none" stroke="black" cx="788.84" cy="-18" rx="27" ry="18"/>
<text text-anchor="middle" x="788.84" y="-14.3" font-family="Times,serif" font-size="14.00">de</text>
</g>
<!-- 0&#45;&gt;9 -->
<g id="edge9" class="edge">
<title>0&#45;&gt;9</title>
<path fill="none" stroke="black" d="M751.71,-87.61C758.37,-75.3 767.62,-58.23 775.21,-44.19"/>
<polygon fill="black" stroke="black" points="778.48,-45.51 780.16,-35.05 772.32,-42.18 778.48,-45.51"/>
<text text-anchor="middle" x="782.34" y="-57.8" font-family="Times,serif" font-size="14.00">dep</text>
</g>
<!-- 10 -->
<g id="node11" class="node">
<title>10</title>
<ellipse fill="none" stroke="black" cx="860.84" cy="-18" rx="27" ry="18"/>
<text text-anchor="middle" x="860.84" y="-14.3" font-family="Times,serif" font-size="14.00">a</text>
</g>
<!-- 0&#45;&gt;10 -->
<g id="edge10" class="edge">
<title>0&#45;&gt;10</title>
<path fill="none" stroke="black" d="M764.4,-91.7C775.26,-85.28 788.49,-77.08 799.84,-69 812.77,-59.8 826.49,-48.68 837.64,-39.27"/>
<polygon fill="black" stroke="black" points="839.92,-41.92 845.26,-32.77 835.38,-36.6 839.92,-41.92"/>
<text text-anchor="middle" x="833.34" y="-57.8" font-family="Times,serif" font-size="14.00">dep</text>
</g>
<!-- 11 -->
<g id="node12" class="node">
<title>11</title>
<ellipse fill="none" stroke="black" cx="937.84" cy="-18" rx="32.49" ry="18"/>
<text text-anchor="middle" x="937.84" y="-14.3" font-family="Times,serif" font-size="14.00">Rota</text>
</g>
<!-- 0&#45;&gt;11 -->
<g id="edge11" class="edge">
<title>0&#45;&gt;11</title>
<path fill="none" stroke="black" d="M771.42,-96.5C793.54,-90.28 824.72,-80.59 850.84,-69 871,-60.06 892.49,-47.74 909.07,-37.56"/>
<polygon fill="black" stroke="black" points="911.1,-40.43 917.74,-32.17 907.4,-34.48 911.1,-40.43"/>
<text text-anchor="middle" x="894.34" y="-57.8" font-family="Times,serif" font-size="14.00">dep</text>
</g>
<!-- 12 -->
<g id="node13" class="node">
<title>12</title>
<ellipse fill="none" stroke="black" cx="1045.84" cy="-18" rx="57.69" ry="18"/>
<text text-anchor="middle" x="1045.84" y="-14.3" font-family="Times,serif" font-size="14.00">invadiram</text>
</g>
<!-- 0&#45;&gt;12 -->
<g id="edge12" class="edge">
<title>0&#45;&gt;12</title>
<path fill="none" stroke="black" d="M773.1,-99.17C807.18,-93.4 864.05,-82.78 911.84,-69 943.05,-60 977.35,-47.15 1003.43,-36.73"/>
<polygon fill="black" stroke="black" points="1005.04,-39.85 1013,-32.86 1002.42,-33.36 1005.04,-39.85"/>
<text text-anchor="middle" x="970.34" y="-57.8" font-family="Times,serif" font-size="14.00">dep</text>
</g>
<!-- 13 -->
<g id="node14" class="node">
<title>13</title>
<ellipse fill="none" stroke="black" cx="1148.84" cy="-18" rx="27" ry="18"/>
<text text-anchor="middle" x="1148.84" y="-14.3" font-family="Times,serif" font-size="14.00">os</text>
</g>
<!-- 0&#45;&gt;13 -->
<g id="edge13" class="edge">
<title>0&#45;&gt;13</title>
<path fill="none" stroke="black" d="M774.47,-101.77C839.58,-96.42 992.58,-79.85 1112.84,-36 1114.7,-35.33 1116.58,-34.59 1118.47,-33.82"/>
<polygon fill="black" stroke="black" points="1120.05,-36.95 1127.8,-29.73 1117.24,-30.54 1120.05,-36.95"/>
<text text-anchor="middle" x="1068.34" y="-57.8" font-family="Times,serif" font-size="14.00">dep</text>
</g>
<!-- 14 -->
<g id="node15" class="node">
<title>14</title>
<ellipse fill="none" stroke="black" cx="1222.84" cy="-18" rx="29.5" ry="18"/>
<text text-anchor="middle" x="1222.84" y="-14.3" font-family="Times,serif" font-size="14.00">três</text>
</g>
<!-- 0&#45;&gt;14 -->
<g id="edge14" class="edge">
<title>0&#45;&gt;14</title>
<path fill="none" stroke="black" d="M774.89,-103.08C836.01,-100.8 973.19,-93.21 1085.84,-69 1122.88,-61.04 1163.43,-45.3 1190.72,-33.6"/>
<polygon fill="black" stroke="black" points="1192.38,-36.7 1200.15,-29.49 1189.59,-30.28 1192.38,-36.7"/>
<text text-anchor="middle" x="1150.34" y="-57.8" font-family="Times,serif" font-size="14.00">dep</text>
</g>
<!-- 15 -->
<g id="node16" class="node">
<title>15</title>
<ellipse fill="none" stroke="black" cx="1345.84" cy="-18" rx="75.29" ry="18"/>
<text text-anchor="middle" x="1345.84" y="-14.3" font-family="Times,serif" font-size="14.00">apartamentos</text>
</g>
<!-- 0&#45;&gt;15 -->
<g id="edge15" class="edge">
<title>0&#45;&gt;15</title>
<path fill="none" stroke="black" d="M774.84,-103.45C846.02,-101.78 1022.66,-95.12 1167.84,-69 1211.3,-61.18 1259.46,-47.33 1294.71,-36.18"/>
<polygon fill="black" stroke="black" points="1295.84,-39.5 1304.29,-33.12 1293.7,-32.83 1295.84,-39.5"/>
<text text-anchor="middle" x="1246.34" y="-57.8" font-family="Times,serif" font-size="14.00">dep</text>
</g>
<!-- 16 -->
<g id="node17" class="node">
<title>16</title>
<ellipse fill="none" stroke="black" cx="1465.84" cy="-18" rx="27" ry="18"/>
<text text-anchor="middle" x="1465.84" y="-14.3" font-family="Times,serif" font-size="14.00">.</text>
</g>
<!-- 0&#45;&gt;16 -->
<g id="edge16" class="edge">
<title>0&#45;&gt;16</title>
<path fill="none" stroke="black" d="M774.7,-103.29C856.35,-101.16 1079.61,-93.4 1263.84,-69 1338.42,-59.13 1358.41,-59.57 1429.84,-36 1431.76,-35.37 1433.72,-34.66 1435.67,-33.89"/>
<polygon fill="black" stroke="black" points="1437.45,-36.94 1445.26,-29.78 1434.69,-30.5 1437.45,-36.94"/>
<text text-anchor="middle" x="1379.34" y="-57.8" font-family="Times,serif" font-size="14.00">dep</text>
</g>
</g>
</svg>
