<?xml version="1.0" encoding="UTF-8" standalone="no"?>
<!DOCTYPE svg PUBLIC "-//W3C//DTD SVG 1.1//EN"
 "http://www.w3.org/Graphics/SVG/1.1/DTD/svg11.dtd">
<!-- Generated by graphviz version 2.42.4 (0)
 -->
<!-- Pages: 1 -->
<svg width="1327pt" height="131pt"
 viewBox="0.00 0.00 1327.45 131.00" xmlns="http://www.w3.org/2000/svg" xmlns:xlink="http://www.w3.org/1999/xlink">
<g id="graph0" class="graph" transform="scale(1 1) rotate(0) translate(4 127)">
<polygon fill="white" stroke="transparent" points="-4,4 -4,-127 1323.45,-127 1323.45,4 -4,4"/>
<!-- 0 -->
<g id="node1" class="node">
<title>0</title>
<ellipse fill="none" stroke="black" cx="713.45" cy="-105" rx="51.99" ry="18"/>
<text text-anchor="middle" x="713.45" y="-101.3" font-family="Times,serif" font-size="14.00">Podemos</text>
</g>
<!-- 1 -->
<g id="node2" class="node">
<title>1</title>
<ellipse fill="none" stroke="black" cx="34.45" cy="-18" rx="34.39" ry="18"/>
<text text-anchor="middle" x="34.45" y="-14.3" font-family="Times,serif" font-size="14.00">dizer</text>
</g>
<!-- 0&#45;&gt;1 -->
<g id="edge1" class="edge">
<title>0&#45;&gt;1</title>
<path fill="none" stroke="black" d="M661.63,-103.12C570.91,-100.97 377.62,-93.64 216.45,-69 153.68,-59.4 138.02,-55.05 77.45,-36 75.03,-35.24 72.57,-34.41 70.09,-33.54"/>
<polygon fill="black" stroke="black" points="71.2,-30.22 60.61,-30.03 68.78,-36.79 71.2,-30.22"/>
<text text-anchor="middle" x="229.95" y="-57.8" font-family="Times,serif" font-size="14.00">dep</text>
</g>
<!-- 2 -->
<g id="node3" class="node">
<title>2</title>
<ellipse fill="none" stroke="black" cx="125.45" cy="-18" rx="38.99" ry="18"/>
<text text-anchor="middle" x="125.45" y="-14.3" font-family="Times,serif" font-size="14.00">coisas</text>
</g>
<!-- 0&#45;&gt;2 -->
<g id="edge2" class="edge">
<title>0&#45;&gt;2</title>
<path fill="none" stroke="black" d="M662.46,-100.97C589.97,-96.27 453.07,-85.97 337.45,-69 263.88,-58.21 245.11,-55.79 173.45,-36 170.48,-35.18 167.42,-34.27 164.37,-33.3"/>
<polygon fill="black" stroke="black" points="165.28,-29.92 154.68,-30.1 163.08,-36.56 165.28,-29.92"/>
<text text-anchor="middle" x="350.95" y="-57.8" font-family="Times,serif" font-size="14.00">dep</text>
</g>
<!-- 3 -->
<g id="node4" class="node">
<title>3</title>
<ellipse fill="none" stroke="black" cx="250.45" cy="-18" rx="67.69" ry="18"/>
<text text-anchor="middle" x="250.45" y="-14.3" font-family="Times,serif" font-size="14.00">importantes</text>
</g>
<!-- 0&#45;&gt;3 -->
<g id="edge3" class="edge">
<title>0&#45;&gt;3</title>
<path fill="none" stroke="black" d="M663.22,-100.2C605.81,-95.32 509.22,-85.45 427.45,-69 384.1,-60.28 335.85,-46.36 300.7,-35.42"/>
<polygon fill="black" stroke="black" points="301.73,-32.08 291.14,-32.42 299.63,-38.76 301.73,-32.08"/>
<text text-anchor="middle" x="440.95" y="-57.8" font-family="Times,serif" font-size="14.00">dep</text>
</g>
<!-- 4 -->
<g id="node5" class="node">
<title>4</title>
<ellipse fill="none" stroke="black" cx="363.45" cy="-18" rx="27" ry="18"/>
<text text-anchor="middle" x="363.45" y="-14.3" font-family="Times,serif" font-size="14.00">,</text>
</g>
<!-- 0&#45;&gt;4 -->
<g id="edge4" class="edge">
<title>0&#45;&gt;4</title>
<path fill="none" stroke="black" d="M665.4,-98.04C602.71,-89.27 490.31,-70.11 399.45,-36 397.6,-35.31 395.72,-34.56 393.84,-33.77"/>
<polygon fill="black" stroke="black" points="395.08,-30.5 384.52,-29.66 392.25,-36.9 395.08,-30.5"/>
<text text-anchor="middle" x="522.95" y="-57.8" font-family="Times,serif" font-size="14.00">dep</text>
</g>
<!-- 5 -->
<g id="node6" class="node">
<title>5</title>
<ellipse fill="none" stroke="black" cx="446.45" cy="-18" rx="38.19" ry="18"/>
<text text-anchor="middle" x="446.45" y="-14.3" font-family="Times,serif" font-size="14.00">tomar</text>
</g>
<!-- 0&#45;&gt;5 -->
<g id="edge5" class="edge">
<title>0&#45;&gt;5</title>
<path fill="none" stroke="black" d="M674.03,-93.18C650.07,-86.48 618.9,-77.56 591.45,-69 547.57,-55.33 536.84,-51.15 493.45,-36 490.76,-35.06 487.99,-34.08 485.2,-33.09"/>
<polygon fill="black" stroke="black" points="486.34,-29.78 475.74,-29.71 483.98,-36.38 486.34,-29.78"/>
<text text-anchor="middle" x="604.95" y="-57.8" font-family="Times,serif" font-size="14.00">dep</text>
</g>
<!-- 6 -->
<g id="node7" class="node">
<title>6</title>
<ellipse fill="none" stroke="black" cx="550.45" cy="-18" rx="48.19" ry="18"/>
<text text-anchor="middle" x="550.45" y="-14.3" font-family="Times,serif" font-size="14.00">grandes</text>
</g>
<!-- 0&#45;&gt;6 -->
<g id="edge6" class="edge">
<title>0&#45;&gt;6</title>
<path fill="none" stroke="black" d="M685.8,-89.58C658.39,-75.29 616.27,-53.32 586.3,-37.7"/>
<polygon fill="black" stroke="black" points="587.9,-34.59 577.42,-33.07 584.67,-40.79 587.9,-34.59"/>
<text text-anchor="middle" x="655.95" y="-57.8" font-family="Times,serif" font-size="14.00">dep</text>
</g>
<!-- 7 -->
<g id="node8" class="node">
<title>7</title>
<ellipse fill="none" stroke="black" cx="666.45" cy="-18" rx="50.09" ry="18"/>
<text text-anchor="middle" x="666.45" y="-14.3" font-family="Times,serif" font-size="14.00">decisões</text>
</g>
<!-- 0&#45;&gt;7 -->
<g id="edge7" class="edge">
<title>0&#45;&gt;7</title>
<path fill="none" stroke="black" d="M704.16,-87.21C697.47,-75.1 688.31,-58.53 680.69,-44.76"/>
<polygon fill="black" stroke="black" points="683.62,-42.82 675.71,-35.76 677.49,-46.2 683.62,-42.82"/>
<text text-anchor="middle" x="706.95" y="-57.8" font-family="Times,serif" font-size="14.00">dep</text>
</g>
<!-- 8 -->
<g id="node9" class="node">
<title>8</title>
<ellipse fill="none" stroke="black" cx="761.45" cy="-18" rx="27" ry="18"/>
<text text-anchor="middle" x="761.45" y="-14.3" font-family="Times,serif" font-size="14.00">,</text>
</g>
<!-- 0&#45;&gt;8 -->
<g id="edge8" class="edge">
<title>0&#45;&gt;8</title>
<path fill="none" stroke="black" d="M722.93,-87.21C729.86,-74.94 739.37,-58.1 747.2,-44.22"/>
<polygon fill="black" stroke="black" points="750.44,-45.61 752.31,-35.18 744.34,-42.17 750.44,-45.61"/>
<text text-anchor="middle" x="753.95" y="-57.8" font-family="Times,serif" font-size="14.00">dep</text>
</g>
<!-- 9 -->
<g id="node10" class="node">
<title>9</title>
<ellipse fill="none" stroke="black" cx="836.45" cy="-18" rx="29.8" ry="18"/>
<text text-anchor="middle" x="836.45" y="-14.3" font-family="Times,serif" font-size="14.00">mas</text>
</g>
<!-- 0&#45;&gt;9 -->
<g id="edge9" class="edge">
<title>0&#45;&gt;9</title>
<path fill="none" stroke="black" d="M739.25,-89.28C749.44,-83.24 761.15,-76.03 771.45,-69 784.97,-59.76 799.47,-48.72 811.34,-39.37"/>
<polygon fill="black" stroke="black" points="813.81,-41.88 819.46,-32.91 809.46,-36.4 813.81,-41.88"/>
<text text-anchor="middle" x="805.95" y="-57.8" font-family="Times,serif" font-size="14.00">dep</text>
</g>
<!-- 10 -->
<g id="node11" class="node">
<title>10</title>
<ellipse fill="none" stroke="black" cx="911.45" cy="-18" rx="27" ry="18"/>
<text text-anchor="middle" x="911.45" y="-14.3" font-family="Times,serif" font-size="14.00">se</text>
</g>
<!-- 0&#45;&gt;10 -->
<g id="edge10" class="edge">
<title>0&#45;&gt;10</title>
<path fill="none" stroke="black" d="M753.64,-93.4C774.8,-87.28 800.96,-78.84 823.45,-69 844.5,-59.79 867.01,-46.94 883.99,-36.57"/>
<polygon fill="black" stroke="black" points="886.16,-39.35 892.81,-31.11 882.47,-33.4 886.16,-39.35"/>
<text text-anchor="middle" x="866.95" y="-57.8" font-family="Times,serif" font-size="14.00">dep</text>
</g>
<!-- 11 -->
<g id="node12" class="node">
<title>11</title>
<ellipse fill="none" stroke="black" cx="983.45" cy="-18" rx="27.1" ry="18"/>
<text text-anchor="middle" x="983.45" y="-14.3" font-family="Times,serif" font-size="14.00">não</text>
</g>
<!-- 0&#45;&gt;11 -->
<g id="edge11" class="edge">
<title>0&#45;&gt;11</title>
<path fill="none" stroke="black" d="M761.17,-97.71C795.98,-92.3 843.95,-83.09 884.45,-69 909.3,-60.36 935.82,-46.69 955.16,-35.83"/>
<polygon fill="black" stroke="black" points="957.09,-38.76 964.03,-30.76 953.61,-32.69 957.09,-38.76"/>
<text text-anchor="middle" x="931.95" y="-57.8" font-family="Times,serif" font-size="14.00">dep</text>
</g>
<!-- 12 -->
<g id="node13" class="node">
<title>12</title>
<ellipse fill="none" stroke="black" cx="1061.45" cy="-18" rx="32.49" ry="18"/>
<text text-anchor="middle" x="1061.45" y="-14.3" font-family="Times,serif" font-size="14.00">tiver</text>
</g>
<!-- 0&#45;&gt;12 -->
<g id="edge12" class="edge">
<title>0&#45;&gt;12</title>
<path fill="none" stroke="black" d="M764.02,-100.51C812.4,-96.24 887.01,-87.19 949.45,-69 977.58,-60.8 1007.84,-46.97 1029.8,-35.92"/>
<polygon fill="black" stroke="black" points="1031.67,-38.9 1038.97,-31.23 1028.48,-32.67 1031.67,-38.9"/>
<text text-anchor="middle" x="1004.95" y="-57.8" font-family="Times,serif" font-size="14.00">dep</text>
</g>
<!-- 13 -->
<g id="node14" class="node">
<title>13</title>
<ellipse fill="none" stroke="black" cx="1179.45" cy="-18" rx="67.69" ry="18"/>
<text text-anchor="middle" x="1179.45" y="-14.3" font-family="Times,serif" font-size="14.00">repercussão</text>
</g>
<!-- 0&#45;&gt;13 -->
<g id="edge13" class="edge">
<title>0&#45;&gt;13</title>
<path fill="none" stroke="black" d="M764.52,-101.28C826.19,-97.3 932.82,-88.15 1022.45,-69 1060.18,-60.93 1101.75,-47.49 1132.62,-36.57"/>
<polygon fill="black" stroke="black" points="1134.02,-39.78 1142.25,-33.12 1131.66,-33.19 1134.02,-39.78"/>
<text text-anchor="middle" x="1092.95" y="-57.8" font-family="Times,serif" font-size="14.00">dep</text>
</g>
<!-- 14 -->
<g id="node15" class="node">
<title>14</title>
<ellipse fill="none" stroke="black" cx="1292.45" cy="-18" rx="27" ry="18"/>
<text text-anchor="middle" x="1292.45" y="-14.3" font-family="Times,serif" font-size="14.00">...</text>
</g>
<!-- 0&#45;&gt;14 -->
<g id="edge14" class="edge">
<title>0&#45;&gt;14</title>
<path fill="none" stroke="black" d="M764.79,-101.68C840.71,-97.75 987.23,-88.27 1110.45,-69 1176.17,-58.72 1193.55,-57.67 1256.45,-36 1258.36,-35.34 1260.3,-34.61 1262.25,-33.84"/>
<polygon fill="black" stroke="black" points="1264.05,-36.87 1271.83,-29.68 1261.26,-30.45 1264.05,-36.87"/>
<text text-anchor="middle" x="1210.95" y="-57.8" font-family="Times,serif" font-size="14.00">dep</text>
</g>
</g>
</svg>
