<?xml version="1.0" encoding="UTF-8" standalone="no"?>
<!DOCTYPE svg PUBLIC "-//W3C//DTD SVG 1.1//EN"
 "http://www.w3.org/Graphics/SVG/1.1/DTD/svg11.dtd">
<!-- Generated by graphviz version 2.42.4 (0)
 -->
<!-- Pages: 1 -->
<svg width="4719pt" height="131pt"
 viewBox="0.00 0.00 4719.00 131.00" xmlns="http://www.w3.org/2000/svg" xmlns:xlink="http://www.w3.org/1999/xlink">
<g id="graph0" class="graph" transform="scale(1 1) rotate(0) translate(4 127)">
<polygon fill="white" stroke="transparent" points="-4,4 -4,-127 4715,-127 4715,4 -4,4"/>
<!-- 0 -->
<g id="node1" class="node">
<title>0</title>
<ellipse fill="none" stroke="black" cx="2497" cy="-105" rx="27" ry="18"/>
<text text-anchor="middle" x="2497" y="-101.3" font-family="Times,serif" font-size="14.00">De</text>
</g>
<!-- 1 -->
<g id="node2" class="node">
<title>1</title>
<ellipse fill="none" stroke="black" cx="52" cy="-18" rx="51.99" ry="18"/>
<text text-anchor="middle" x="52" y="-14.3" font-family="Times,serif" font-size="14.00">bandeira</text>
</g>
<!-- 0&#45;&gt;1 -->
<g id="edge1" class="edge">
<title>0&#45;&gt;1</title>
<path fill="none" stroke="black" d="M2469.72,-104.05C2227.45,-104.44 447.43,-106.04 214,-69 172.24,-62.37 126.34,-47.44 94.09,-35.61"/>
<polygon fill="black" stroke="black" points="95.13,-32.27 84.54,-32.05 92.69,-38.82 95.13,-32.27"/>
<text text-anchor="middle" x="227.5" y="-57.8" font-family="Times,serif" font-size="14.00">dep</text>
</g>
<!-- 2 -->
<g id="node3" class="node">
<title>2</title>
<ellipse fill="none" stroke="black" cx="164" cy="-18" rx="42.49" ry="18"/>
<text text-anchor="middle" x="164" y="-14.3" font-family="Times,serif" font-size="14.00">branca</text>
</g>
<!-- 0&#45;&gt;2 -->
<g id="edge2" class="edge">
<title>0&#45;&gt;2</title>
<path fill="none" stroke="black" d="M2469.9,-103.83C2225.59,-102.31 408.99,-90.28 297,-69 262.89,-62.52 226.1,-48.06 199.87,-36.34"/>
<polygon fill="black" stroke="black" points="201.26,-33.13 190.71,-32.17 198.36,-39.5 201.26,-33.13"/>
<text text-anchor="middle" x="310.5" y="-57.8" font-family="Times,serif" font-size="14.00">dep</text>
</g>
<!-- 3 -->
<g id="node4" class="node">
<title>3</title>
<ellipse fill="none" stroke="black" cx="251" cy="-18" rx="27" ry="18"/>
<text text-anchor="middle" x="251" y="-14.3" font-family="Times,serif" font-size="14.00">a</text>
</g>
<!-- 0&#45;&gt;3 -->
<g id="edge3" class="edge">
<title>0&#45;&gt;3</title>
<path fill="none" stroke="black" d="M2469.86,-104.1C2237.9,-104.89 592.21,-109.05 377,-69 342.68,-62.61 305.83,-46.85 280.91,-34.71"/>
<polygon fill="black" stroke="black" points="282.16,-31.42 271.65,-30.1 279.04,-37.69 282.16,-31.42"/>
<text text-anchor="middle" x="390.5" y="-57.8" font-family="Times,serif" font-size="14.00">dep</text>
</g>
<!-- 4 -->
<g id="node5" class="node">
<title>4</title>
<ellipse fill="none" stroke="black" cx="323" cy="-18" rx="27" ry="18"/>
<text text-anchor="middle" x="323" y="-14.3" font-family="Times,serif" font-size="14.00">o</text>
</g>
<!-- 0&#45;&gt;4 -->
<g id="edge4" class="edge">
<title>0&#45;&gt;4</title>
<path fill="none" stroke="black" d="M2469.99,-103.98C2244.34,-103.77 675.59,-101.14 469,-69 418.56,-61.15 406.65,-54.28 359,-36 357.16,-35.29 355.28,-34.54 353.4,-33.74"/>
<polygon fill="black" stroke="black" points="354.65,-30.47 344.09,-29.6 351.8,-36.86 354.65,-30.47"/>
<text text-anchor="middle" x="482.5" y="-57.8" font-family="Times,serif" font-size="14.00">dep</text>
</g>
<!-- 5 -->
<g id="node6" class="node">
<title>5</title>
<ellipse fill="none" stroke="black" cx="408" cy="-18" rx="40.09" ry="18"/>
<text text-anchor="middle" x="408" y="-14.3" font-family="Times,serif" font-size="14.00">ombro</text>
</g>
<!-- 0&#45;&gt;5 -->
<g id="edge5" class="edge">
<title>0&#45;&gt;5</title>
<path fill="none" stroke="black" d="M2469.79,-104C2249.06,-103.92 754.71,-102.14 558,-69 518.48,-62.34 475.25,-47.02 445.39,-35.07"/>
<polygon fill="black" stroke="black" points="446.39,-31.7 435.8,-31.17 443.75,-38.18 446.39,-31.7"/>
<text text-anchor="middle" x="571.5" y="-57.8" font-family="Times,serif" font-size="14.00">dep</text>
</g>
<!-- 6 -->
<g id="node7" class="node">
<title>6</title>
<ellipse fill="none" stroke="black" cx="493" cy="-18" rx="27" ry="18"/>
<text text-anchor="middle" x="493" y="-14.3" font-family="Times,serif" font-size="14.00">,</text>
</g>
<!-- 0&#45;&gt;6 -->
<g id="edge6" class="edge">
<title>0&#45;&gt;6</title>
<path fill="none" stroke="black" d="M2469.86,-103.8C2257.48,-102.18 865.16,-90.8 680,-69 611.77,-60.97 594.02,-58.14 529,-36 527.08,-35.35 525.14,-34.62 523.19,-33.85"/>
<polygon fill="black" stroke="black" points="524.17,-30.46 513.6,-29.71 521.39,-36.89 524.17,-30.46"/>
<text text-anchor="middle" x="693.5" y="-57.8" font-family="Times,serif" font-size="14.00">dep</text>
</g>
<!-- 7 -->
<g id="node8" class="node">
<title>7</title>
<ellipse fill="none" stroke="black" cx="603" cy="-18" rx="64.99" ry="18"/>
<text text-anchor="middle" x="603" y="-14.3" font-family="Times,serif" font-size="14.00">reclamando</text>
</g>
<!-- 0&#45;&gt;7 -->
<g id="edge7" class="edge">
<title>0&#45;&gt;7</title>
<path fill="none" stroke="black" d="M2469.73,-103.86C2263.6,-102.78 953.8,-94.89 780,-69 735.1,-62.31 685.5,-47.64 650.25,-35.91"/>
<polygon fill="black" stroke="black" points="651.3,-32.57 640.71,-32.69 649.06,-39.2 651.3,-32.57"/>
<text text-anchor="middle" x="793.5" y="-57.8" font-family="Times,serif" font-size="14.00">dep</text>
</g>
<!-- 8 -->
<g id="node9" class="node">
<title>8</title>
<ellipse fill="none" stroke="black" cx="713" cy="-18" rx="27" ry="18"/>
<text text-anchor="middle" x="713" y="-14.3" font-family="Times,serif" font-size="14.00">o</text>
</g>
<!-- 0&#45;&gt;8 -->
<g id="edge8" class="edge">
<title>0&#45;&gt;8</title>
<path fill="none" stroke="black" d="M2470.02,-104.09C2287.22,-104.56 1227.43,-105.67 907,-69 835.72,-60.84 817.01,-58.81 749,-36 747.08,-35.36 745.13,-34.64 743.18,-33.87"/>
<polygon fill="black" stroke="black" points="744.16,-30.48 733.59,-29.74 741.39,-36.91 744.16,-30.48"/>
<text text-anchor="middle" x="920.5" y="-57.8" font-family="Times,serif" font-size="14.00">dep</text>
</g>
<!-- 9 -->
<g id="node10" class="node">
<title>9</title>
<ellipse fill="none" stroke="black" cx="833" cy="-18" rx="75.29" ry="18"/>
<text text-anchor="middle" x="833" y="-14.3" font-family="Times,serif" font-size="14.00">encerramento</text>
</g>
<!-- 0&#45;&gt;9 -->
<g id="edge9" class="edge">
<title>0&#45;&gt;9</title>
<path fill="none" stroke="black" d="M2469.76,-103.79C2279.72,-102.24 1154.95,-92.15 1005,-69 962.48,-62.44 915.68,-48.36 881.65,-36.82"/>
<polygon fill="black" stroke="black" points="882.56,-33.43 871.96,-33.48 880.28,-40.05 882.56,-33.43"/>
<text text-anchor="middle" x="1018.5" y="-57.8" font-family="Times,serif" font-size="14.00">dep</text>
</g>
<!-- 10 -->
<g id="node11" class="node">
<title>10</title>
<ellipse fill="none" stroke="black" cx="953" cy="-18" rx="27" ry="18"/>
<text text-anchor="middle" x="953" y="-14.3" font-family="Times,serif" font-size="14.00">de</text>
</g>
<!-- 0&#45;&gt;10 -->
<g id="edge10" class="edge">
<title>0&#45;&gt;10</title>
<path fill="none" stroke="black" d="M2469.83,-103.8C2286.22,-102.42 1229.71,-93.42 1089,-69 1051.25,-62.45 1010.28,-46 983.28,-33.74"/>
<polygon fill="black" stroke="black" points="984.55,-30.47 974,-29.44 981.6,-36.82 984.55,-30.47"/>
<text text-anchor="middle" x="1102.5" y="-57.8" font-family="Times,serif" font-size="14.00">dep</text>
</g>
<!-- 11 -->
<g id="node12" class="node">
<title>11</title>
<ellipse fill="none" stroke="black" cx="1025" cy="-18" rx="27" ry="18"/>
<text text-anchor="middle" x="1025" y="-14.3" font-family="Times,serif" font-size="14.00">as</text>
</g>
<!-- 0&#45;&gt;11 -->
<g id="edge11" class="edge">
<title>0&#45;&gt;11</title>
<path fill="none" stroke="black" d="M2469.79,-104C2307.19,-103.87 1462.1,-101.62 1205,-69 1139.86,-60.74 1123.04,-57.48 1061,-36 1059.08,-35.34 1057.14,-34.61 1055.2,-33.83"/>
<polygon fill="black" stroke="black" points="1056.18,-30.44 1045.62,-29.67 1053.4,-36.86 1056.18,-30.44"/>
<text text-anchor="middle" x="1218.5" y="-57.8" font-family="Times,serif" font-size="14.00">dep</text>
</g>
<!-- 12 -->
<g id="node13" class="node">
<title>12</title>
<ellipse fill="none" stroke="black" cx="1118" cy="-18" rx="48.19" ry="18"/>
<text text-anchor="middle" x="1118" y="-14.3" font-family="Times,serif" font-size="14.00">grandes</text>
</g>
<!-- 0&#45;&gt;12 -->
<g id="edge12" class="edge">
<title>0&#45;&gt;12</title>
<path fill="none" stroke="black" d="M2470.02,-103.97C2315.85,-103.71 1544.94,-100.82 1310,-69 1258.45,-62.02 1200.91,-45.88 1162.38,-33.81"/>
<polygon fill="black" stroke="black" points="1163.12,-30.37 1152.53,-30.68 1161,-37.04 1163.12,-30.37"/>
<text text-anchor="middle" x="1323.5" y="-57.8" font-family="Times,serif" font-size="14.00">dep</text>
</g>
<!-- 13 -->
<g id="node14" class="node">
<title>13</title>
<ellipse fill="none" stroke="black" cx="1246" cy="-18" rx="61.99" ry="18"/>
<text text-anchor="middle" x="1246" y="-14.3" font-family="Times,serif" font-size="14.00">superfícies</text>
</g>
<!-- 0&#45;&gt;13 -->
<g id="edge13" class="edge">
<title>0&#45;&gt;13</title>
<path fill="none" stroke="black" d="M2469.68,-104.16C2321.76,-104.88 1615.52,-106.26 1401,-69 1362.41,-62.3 1320.2,-48.21 1289.59,-36.69"/>
<polygon fill="black" stroke="black" points="1290.67,-33.36 1280.08,-33.06 1288.17,-39.9 1290.67,-33.36"/>
<text text-anchor="middle" x="1414.5" y="-57.8" font-family="Times,serif" font-size="14.00">dep</text>
</g>
<!-- 14 -->
<g id="node15" class="node">
<title>14</title>
<ellipse fill="none" stroke="black" cx="1353" cy="-18" rx="27" ry="18"/>
<text text-anchor="middle" x="1353" y="-14.3" font-family="Times,serif" font-size="14.00">a</text>
</g>
<!-- 0&#45;&gt;14 -->
<g id="edge14" class="edge">
<title>0&#45;&gt;14</title>
<path fill="none" stroke="black" d="M2469.88,-104.17C2329.06,-104.89 1680.12,-106.11 1483,-69 1447.38,-62.3 1408.92,-46.31 1383.14,-34.2"/>
<polygon fill="black" stroke="black" points="1384.45,-30.95 1373.92,-29.78 1381.42,-37.26 1384.45,-30.95"/>
<text text-anchor="middle" x="1496.5" y="-57.8" font-family="Times,serif" font-size="14.00">dep</text>
</g>
<!-- 15 -->
<g id="node16" class="node">
<title>15</title>
<ellipse fill="none" stroke="black" cx="1425" cy="-18" rx="27" ry="18"/>
<text text-anchor="middle" x="1425" y="-14.3" font-family="Times,serif" font-size="14.00">o</text>
</g>
<!-- 0&#45;&gt;15 -->
<g id="edge15" class="edge">
<title>0&#45;&gt;15</title>
<path fill="none" stroke="black" d="M2469.62,-103.78C2337.09,-102.56 1761.22,-95.82 1584,-69 1528.03,-60.53 1514.13,-55.5 1461,-36 1459.15,-35.32 1457.26,-34.58 1455.37,-33.81"/>
<polygon fill="black" stroke="black" points="1456.61,-30.53 1446.05,-29.71 1453.8,-36.94 1456.61,-30.53"/>
<text text-anchor="middle" x="1597.5" y="-57.8" font-family="Times,serif" font-size="14.00">dep</text>
</g>
<!-- 16 -->
<g id="node17" class="node">
<title>16</title>
<ellipse fill="none" stroke="black" cx="1521" cy="-18" rx="50.89" ry="18"/>
<text text-anchor="middle" x="1521" y="-14.3" font-family="Times,serif" font-size="14.00">domingo</text>
</g>
<!-- 0&#45;&gt;16 -->
<g id="edge16" class="edge">
<title>0&#45;&gt;16</title>
<path fill="none" stroke="black" d="M2469.65,-103.89C2344.65,-103.24 1826.93,-98.75 1668,-69 1630.86,-62.05 1590.32,-47.72 1561.24,-36.18"/>
<polygon fill="black" stroke="black" points="1562.42,-32.88 1551.84,-32.39 1559.81,-39.37 1562.42,-32.88"/>
<text text-anchor="middle" x="1681.5" y="-57.8" font-family="Times,serif" font-size="14.00">dep</text>
</g>
<!-- 17 -->
<g id="node18" class="node">
<title>17</title>
<ellipse fill="none" stroke="black" cx="1617" cy="-18" rx="27" ry="18"/>
<text text-anchor="middle" x="1617" y="-14.3" font-family="Times,serif" font-size="14.00">,</text>
</g>
<!-- 0&#45;&gt;17 -->
<g id="edge17" class="edge">
<title>0&#45;&gt;17</title>
<path fill="none" stroke="black" d="M2469.92,-103.66C2353.88,-102.06 1898,-94.26 1757,-69 1709.26,-60.45 1698.13,-53.73 1653,-36 1651.16,-35.28 1649.29,-34.51 1647.41,-33.71"/>
<polygon fill="black" stroke="black" points="1648.67,-30.44 1638.11,-29.55 1645.81,-36.83 1648.67,-30.44"/>
<text text-anchor="middle" x="1770.5" y="-57.8" font-family="Times,serif" font-size="14.00">dep</text>
</g>
<!-- 18 -->
<g id="node19" class="node">
<title>18</title>
<ellipse fill="none" stroke="black" cx="1689" cy="-18" rx="27" ry="18"/>
<text text-anchor="middle" x="1689" y="-14.3" font-family="Times,serif" font-size="14.00">o</text>
</g>
<!-- 0&#45;&gt;18 -->
<g id="edge18" class="edge">
<title>0&#45;&gt;18</title>
<path fill="none" stroke="black" d="M2469.96,-103.99C2383.3,-103.63 2104.81,-99.96 1877,-69 1808.5,-59.69 1790.45,-58.24 1725,-36 1723.08,-35.35 1721.13,-34.63 1719.19,-33.85"/>
<polygon fill="black" stroke="black" points="1720.17,-30.47 1709.6,-29.71 1717.39,-36.89 1720.17,-30.47"/>
<text text-anchor="middle" x="1890.5" y="-57.8" font-family="Times,serif" font-size="14.00">dep</text>
</g>
<!-- 19 -->
<g id="node20" class="node">
<title>19</title>
<ellipse fill="none" stroke="black" cx="1802" cy="-18" rx="67.69" ry="18"/>
<text text-anchor="middle" x="1802" y="-14.3" font-family="Times,serif" font-size="14.00">comerciante</text>
</g>
<!-- 0&#45;&gt;19 -->
<g id="edge19" class="edge">
<title>0&#45;&gt;19</title>
<path fill="none" stroke="black" d="M2469.98,-104.38C2391.55,-105.01 2157.29,-103.64 1967,-69 1926.43,-61.61 1881.75,-47.7 1849.12,-36.42"/>
<polygon fill="black" stroke="black" points="1850,-33.02 1839.4,-33.02 1847.68,-39.63 1850,-33.02"/>
<text text-anchor="middle" x="1980.5" y="-57.8" font-family="Times,serif" font-size="14.00">dep</text>
</g>
<!-- 20 -->
<g id="node21" class="node">
<title>20</title>
<ellipse fill="none" stroke="black" cx="1915" cy="-18" rx="27" ry="18"/>
<text text-anchor="middle" x="1915" y="-14.3" font-family="Times,serif" font-size="14.00">,</text>
</g>
<!-- 0&#45;&gt;20 -->
<g id="edge20" class="edge">
<title>0&#45;&gt;20</title>
<path fill="none" stroke="black" d="M2469.97,-104.3C2399.41,-104.58 2204.17,-102.03 2046,-69 2010.29,-61.54 1971.49,-45.68 1945.47,-33.81"/>
<polygon fill="black" stroke="black" points="1946.69,-30.52 1936.15,-29.48 1943.74,-36.87 1946.69,-30.52"/>
<text text-anchor="middle" x="2059.5" y="-57.8" font-family="Times,serif" font-size="14.00">dep</text>
</g>
<!-- 21 -->
<g id="node22" class="node">
<title>21</title>
<ellipse fill="none" stroke="black" cx="1987" cy="-18" rx="27" ry="18"/>
<text text-anchor="middle" x="1987" y="-14.3" font-family="Times,serif" font-size="14.00">de</text>
</g>
<!-- 0&#45;&gt;21 -->
<g id="edge21" class="edge">
<title>0&#45;&gt;21</title>
<path fill="none" stroke="black" d="M2469.84,-102.83C2410.49,-99.94 2264.89,-91.02 2145,-69 2089.75,-58.85 2075.71,-55.4 2023,-36 2021.15,-35.32 2019.26,-34.58 2017.38,-33.8"/>
<polygon fill="black" stroke="black" points="2018.61,-30.52 2008.05,-29.7 2015.8,-36.93 2018.61,-30.52"/>
<text text-anchor="middle" x="2158.5" y="-57.8" font-family="Times,serif" font-size="14.00">dep</text>
</g>
<!-- 22 -->
<g id="node23" class="node">
<title>22</title>
<ellipse fill="none" stroke="black" cx="2062" cy="-18" rx="29.8" ry="18"/>
<text text-anchor="middle" x="2062" y="-14.3" font-family="Times,serif" font-size="14.00">face</text>
</g>
<!-- 0&#45;&gt;22 -->
<g id="edge22" class="edge">
<title>0&#45;&gt;22</title>
<path fill="none" stroke="black" d="M2470.01,-101.83C2405.15,-96.07 2235.88,-77.93 2101,-36 2098.73,-35.3 2096.43,-34.5 2094.12,-33.65"/>
<polygon fill="black" stroke="black" points="2095.36,-30.38 2084.77,-29.92 2092.77,-36.88 2095.36,-30.38"/>
<text text-anchor="middle" x="2243.5" y="-57.8" font-family="Times,serif" font-size="14.00">dep</text>
</g>
<!-- 23 -->
<g id="node24" class="node">
<title>23</title>
<ellipse fill="none" stroke="black" cx="2187" cy="-18" rx="77.19" ry="18"/>
<text text-anchor="middle" x="2187" y="-14.3" font-family="Times,serif" font-size="14.00">congestionada</text>
</g>
<!-- 0&#45;&gt;23 -->
<g id="edge23" class="edge">
<title>0&#45;&gt;23</title>
<path fill="none" stroke="black" d="M2471.74,-98.37C2442.72,-91.79 2393.73,-80.35 2352,-69 2314.43,-58.78 2272.45,-46.04 2240.24,-35.98"/>
<polygon fill="black" stroke="black" points="2241.16,-32.6 2230.57,-32.95 2239.07,-39.28 2241.16,-32.6"/>
<text text-anchor="middle" x="2365.5" y="-57.8" font-family="Times,serif" font-size="14.00">dep</text>
</g>
<!-- 24 -->
<g id="node25" class="node">
<title>24</title>
<ellipse fill="none" stroke="black" cx="2309" cy="-18" rx="27" ry="18"/>
<text text-anchor="middle" x="2309" y="-14.3" font-family="Times,serif" font-size="14.00">,</text>
</g>
<!-- 0&#45;&gt;24 -->
<g id="edge24" class="edge">
<title>0&#45;&gt;24</title>
<path fill="none" stroke="black" d="M2474.33,-94.77C2457.58,-87.86 2434.26,-78.09 2414,-69 2388.6,-57.6 2360.1,-43.98 2339.21,-33.83"/>
<polygon fill="black" stroke="black" points="2340.7,-30.67 2330.18,-29.44 2337.64,-36.96 2340.7,-30.67"/>
<text text-anchor="middle" x="2427.5" y="-57.8" font-family="Times,serif" font-size="14.00">dep</text>
</g>
<!-- 25 -->
<g id="node26" class="node">
<title>25</title>
<ellipse fill="none" stroke="black" cx="2403" cy="-18" rx="48.99" ry="18"/>
<text text-anchor="middle" x="2403" y="-14.3" font-family="Times,serif" font-size="14.00">resumiu</text>
</g>
<!-- 0&#45;&gt;25 -->
<g id="edge25" class="edge">
<title>0&#45;&gt;25</title>
<path fill="none" stroke="black" d="M2481.47,-89.96C2467.13,-77 2445.56,-57.49 2428.66,-42.2"/>
<polygon fill="black" stroke="black" points="2430.55,-39.2 2420.79,-35.09 2425.86,-44.39 2430.55,-39.2"/>
<text text-anchor="middle" x="2469.5" y="-57.8" font-family="Times,serif" font-size="14.00">dep</text>
</g>
<!-- 26 -->
<g id="node27" class="node">
<title>26</title>
<ellipse fill="none" stroke="black" cx="2497" cy="-18" rx="27" ry="18"/>
<text text-anchor="middle" x="2497" y="-14.3" font-family="Times,serif" font-size="14.00">a</text>
</g>
<!-- 0&#45;&gt;26 -->
<g id="edge26" class="edge">
<title>0&#45;&gt;26</title>
<path fill="none" stroke="black" d="M2497,-86.8C2497,-75.16 2497,-59.55 2497,-46.24"/>
<polygon fill="black" stroke="black" points="2500.5,-46.18 2497,-36.18 2493.5,-46.18 2500.5,-46.18"/>
<text text-anchor="middle" x="2510.5" y="-57.8" font-family="Times,serif" font-size="14.00">dep</text>
</g>
<!-- 27 -->
<g id="node28" class="node">
<title>27</title>
<ellipse fill="none" stroke="black" cx="2569" cy="-18" rx="27" ry="18"/>
<text text-anchor="middle" x="2569" y="-14.3" font-family="Times,serif" font-size="14.00">a</text>
</g>
<!-- 0&#45;&gt;27 -->
<g id="edge27" class="edge">
<title>0&#45;&gt;27</title>
<path fill="none" stroke="black" d="M2510.4,-89.12C2515.9,-82.94 2522.31,-75.67 2528,-69 2535.31,-60.41 2543.2,-50.86 2550.09,-42.43"/>
<polygon fill="black" stroke="black" points="2552.99,-44.41 2556.58,-34.44 2547.56,-39.99 2552.99,-44.41"/>
<text text-anchor="middle" x="2554.5" y="-57.8" font-family="Times,serif" font-size="14.00">dep</text>
</g>
<!-- 28 -->
<g id="node29" class="node">
<title>28</title>
<ellipse fill="none" stroke="black" cx="2641" cy="-18" rx="27" ry="18"/>
<text text-anchor="middle" x="2641" y="-14.3" font-family="Times,serif" font-size="14.00">sua</text>
</g>
<!-- 0&#45;&gt;28 -->
<g id="edge28" class="edge">
<title>0&#45;&gt;28</title>
<path fill="none" stroke="black" d="M2519.55,-94.81C2534.74,-88.3 2555.03,-78.98 2572,-69 2587.22,-60.04 2603.26,-48.56 2616.04,-38.86"/>
<polygon fill="black" stroke="black" points="2618.53,-41.35 2624.31,-32.48 2614.26,-35.81 2618.53,-41.35"/>
<text text-anchor="middle" x="2607.5" y="-57.8" font-family="Times,serif" font-size="14.00">dep</text>
</g>
<!-- 29 -->
<g id="node30" class="node">
<title>29</title>
<ellipse fill="none" stroke="black" cx="2735" cy="-18" rx="48.99" ry="18"/>
<text text-anchor="middle" x="2735" y="-14.3" font-family="Times,serif" font-size="14.00">maneira</text>
</g>
<!-- 0&#45;&gt;29 -->
<g id="edge29" class="edge">
<title>0&#45;&gt;29</title>
<path fill="none" stroke="black" d="M2522.38,-98.33C2548.48,-92.2 2590.11,-81.61 2625,-69 2649.97,-59.97 2677.15,-47.65 2698.24,-37.49"/>
<polygon fill="black" stroke="black" points="2700.02,-40.52 2707.47,-33 2696.95,-34.23 2700.02,-40.52"/>
<text text-anchor="middle" x="2675.5" y="-57.8" font-family="Times,serif" font-size="14.00">dep</text>
</g>
<!-- 30 -->
<g id="node31" class="node">
<title>30</title>
<ellipse fill="none" stroke="black" cx="2829" cy="-18" rx="27" ry="18"/>
<text text-anchor="middle" x="2829" y="-14.3" font-family="Times,serif" font-size="14.00">a</text>
</g>
<!-- 0&#45;&gt;30 -->
<g id="edge30" class="edge">
<title>0&#45;&gt;30</title>
<path fill="none" stroke="black" d="M2523.24,-100.52C2561.09,-95.24 2633.01,-84.17 2693,-69 2738.37,-57.52 2749.53,-53.36 2793,-36 2794.82,-35.27 2796.69,-34.49 2798.57,-33.68"/>
<polygon fill="black" stroke="black" points="2800.18,-36.8 2807.87,-29.51 2797.31,-30.41 2800.18,-36.8"/>
<text text-anchor="middle" x="2759.5" y="-57.8" font-family="Times,serif" font-size="14.00">dep</text>
</g>
<!-- 31 -->
<g id="node32" class="node">
<title>31</title>
<ellipse fill="none" stroke="black" cx="2924" cy="-18" rx="50.09" ry="18"/>
<text text-anchor="middle" x="2924" y="-14.3" font-family="Times,serif" font-size="14.00">intenção</text>
</g>
<!-- 0&#45;&gt;31 -->
<g id="edge31" class="edge">
<title>0&#45;&gt;31</title>
<path fill="none" stroke="black" d="M2523.95,-102.46C2574.24,-99.18 2685.57,-90.03 2777,-69 2813.46,-60.61 2853.6,-46.62 2882.71,-35.57"/>
<polygon fill="black" stroke="black" points="2884.06,-38.8 2892.14,-31.94 2881.55,-32.26 2884.06,-38.8"/>
<text text-anchor="middle" x="2844.5" y="-57.8" font-family="Times,serif" font-size="14.00">dep</text>
</g>
<!-- 32 -->
<g id="node33" class="node">
<title>32</title>
<ellipse fill="none" stroke="black" cx="3019" cy="-18" rx="27" ry="18"/>
<text text-anchor="middle" x="3019" y="-14.3" font-family="Times,serif" font-size="14.00">de</text>
</g>
<!-- 0&#45;&gt;32 -->
<g id="edge32" class="edge">
<title>0&#45;&gt;32</title>
<path fill="none" stroke="black" d="M2524.23,-102.98C2585.19,-100.34 2737.07,-91.85 2862,-69 2916.83,-58.97 2930.7,-55.31 2983,-36 2984.84,-35.32 2986.73,-34.58 2988.61,-33.8"/>
<polygon fill="black" stroke="black" points="2990.19,-36.93 2997.94,-29.7 2987.38,-30.52 2990.19,-36.93"/>
<text text-anchor="middle" x="2943.5" y="-57.8" font-family="Times,serif" font-size="14.00">dep</text>
</g>
<!-- 33 -->
<g id="node34" class="node">
<title>33</title>
<ellipse fill="none" stroke="black" cx="3091" cy="-18" rx="27" ry="18"/>
<text text-anchor="middle" x="3091" y="-14.3" font-family="Times,serif" font-size="14.00">os</text>
</g>
<!-- 0&#45;&gt;33 -->
<g id="edge33" class="edge">
<title>0&#45;&gt;33</title>
<path fill="none" stroke="black" d="M2524.02,-104.42C2595.94,-105 2797.72,-103.2 2961,-69 2996.46,-61.57 3034.95,-45.71 3060.77,-33.83"/>
<polygon fill="black" stroke="black" points="3062.45,-36.91 3070.02,-29.5 3059.48,-30.57 3062.45,-36.91"/>
<text text-anchor="middle" x="3022.5" y="-57.8" font-family="Times,serif" font-size="14.00">dep</text>
</g>
<!-- 34 -->
<g id="node35" class="node">
<title>34</title>
<ellipse fill="none" stroke="black" cx="3165" cy="-18" rx="28.7" ry="18"/>
<text text-anchor="middle" x="3165" y="-14.3" font-family="Times,serif" font-size="14.00">150</text>
</g>
<!-- 0&#45;&gt;34 -->
<g id="edge34" class="edge">
<title>0&#45;&gt;34</title>
<path fill="none" stroke="black" d="M2523.99,-103.32C2619.32,-100.76 2939.83,-90.71 3040,-69 3073.47,-61.74 3109.58,-46.41 3134.34,-34.63"/>
<polygon fill="black" stroke="black" points="3136.1,-37.66 3143.57,-30.15 3133.04,-31.36 3136.1,-37.66"/>
<text text-anchor="middle" x="3099.5" y="-57.8" font-family="Times,serif" font-size="14.00">dep</text>
</g>
<!-- 35 -->
<g id="node36" class="node">
<title>35</title>
<ellipse fill="none" stroke="black" cx="3256" cy="-18" rx="44.39" ry="18"/>
<text text-anchor="middle" x="3256" y="-14.3" font-family="Times,serif" font-size="14.00">lojistas</text>
</g>
<!-- 0&#45;&gt;35 -->
<g id="edge35" class="edge">
<title>0&#45;&gt;35</title>
<path fill="none" stroke="black" d="M2524.14,-103.51C2628.13,-101.46 3001.05,-92.61 3117,-69 3152.4,-61.79 3190.94,-47.37 3218.43,-35.86"/>
<polygon fill="black" stroke="black" points="3219.84,-39.07 3227.68,-31.93 3217.1,-32.63 3219.84,-39.07"/>
<text text-anchor="middle" x="3181.5" y="-57.8" font-family="Times,serif" font-size="14.00">dep</text>
</g>
<!-- 36 -->
<g id="node37" class="node">
<title>36</title>
<ellipse fill="none" stroke="black" cx="3375" cy="-18" rx="56.59" ry="18"/>
<text text-anchor="middle" x="3375" y="-14.3" font-family="Times,serif" font-size="14.00">presentes</text>
</g>
<!-- 0&#45;&gt;36 -->
<g id="edge36" class="edge">
<title>0&#45;&gt;36</title>
<path fill="none" stroke="black" d="M2524.16,-103.47C2636.55,-101.15 3065.5,-91 3199,-69 3244.12,-61.57 3294.15,-46.68 3329.3,-35.08"/>
<polygon fill="black" stroke="black" points="3330.43,-38.39 3338.8,-31.9 3328.21,-31.75 3330.43,-38.39"/>
<text text-anchor="middle" x="3276.5" y="-57.8" font-family="Times,serif" font-size="14.00">dep</text>
</g>
<!-- 37 -->
<g id="node38" class="node">
<title>37</title>
<ellipse fill="none" stroke="black" cx="3477" cy="-18" rx="27" ry="18"/>
<text text-anchor="middle" x="3477" y="-14.3" font-family="Times,serif" font-size="14.00">em</text>
</g>
<!-- 0&#45;&gt;37 -->
<g id="edge37" class="edge">
<title>0&#45;&gt;37</title>
<path fill="none" stroke="black" d="M2524.03,-103.46C2645.35,-100.91 3140.23,-89.47 3294,-69 3360.37,-60.16 3377.67,-57.76 3441,-36 3442.91,-35.34 3444.85,-34.61 3446.8,-33.84"/>
<polygon fill="black" stroke="black" points="3448.6,-36.87 3456.38,-29.69 3445.81,-30.45 3448.6,-36.87"/>
<text text-anchor="middle" x="3395.5" y="-57.8" font-family="Times,serif" font-size="14.00">dep</text>
</g>
<!-- 38 -->
<g id="node39" class="node">
<title>38</title>
<ellipse fill="none" stroke="black" cx="3549" cy="-18" rx="27" ry="18"/>
<text text-anchor="middle" x="3549" y="-14.3" font-family="Times,serif" font-size="14.00">a</text>
</g>
<!-- 0&#45;&gt;38 -->
<g id="edge38" class="edge">
<title>0&#45;&gt;38</title>
<path fill="none" stroke="black" d="M2524.05,-103.99C2656.34,-103.77 3235.82,-100.96 3413,-69 3450.7,-62.2 3491.67,-45.79 3518.69,-33.62"/>
<polygon fill="black" stroke="black" points="3520.35,-36.71 3527.97,-29.35 3517.43,-30.35 3520.35,-36.71"/>
<text text-anchor="middle" x="3480.5" y="-57.8" font-family="Times,serif" font-size="14.00">dep</text>
</g>
<!-- 39 -->
<g id="node40" class="node">
<title>39</title>
<ellipse fill="none" stroke="black" cx="3640" cy="-18" rx="46.29" ry="18"/>
<text text-anchor="middle" x="3640" y="-14.3" font-family="Times,serif" font-size="14.00">reunião</text>
</g>
<!-- 0&#45;&gt;39 -->
<g id="edge39" class="edge">
<title>0&#45;&gt;39</title>
<path fill="none" stroke="black" d="M2524.23,-104.16C2664.19,-104.82 3303.63,-105.73 3498,-69 3534.18,-62.16 3573.54,-47.71 3601.63,-36.09"/>
<polygon fill="black" stroke="black" points="3603.21,-39.22 3611.07,-32.12 3600.5,-32.77 3603.21,-39.22"/>
<text text-anchor="middle" x="3567.5" y="-57.8" font-family="Times,serif" font-size="14.00">dep</text>
</g>
<!-- 40 -->
<g id="node41" class="node">
<title>40</title>
<ellipse fill="none" stroke="black" cx="3757" cy="-18" rx="53.09" ry="18"/>
<text text-anchor="middle" x="3757" y="-14.3" font-family="Times,serif" font-size="14.00">realizada</text>
</g>
<!-- 0&#45;&gt;40 -->
<g id="edge40" class="edge">
<title>0&#45;&gt;40</title>
<path fill="none" stroke="black" d="M2524.1,-104.05C2670.85,-104.16 3371.52,-102.91 3585,-69 3629.3,-61.96 3678.29,-46.98 3712.62,-35.24"/>
<polygon fill="black" stroke="black" points="3714.03,-38.45 3722.34,-31.87 3711.74,-31.84 3714.03,-38.45"/>
<text text-anchor="middle" x="3661.5" y="-57.8" font-family="Times,serif" font-size="14.00">dep</text>
</g>
<!-- 41 -->
<g id="node42" class="node">
<title>41</title>
<ellipse fill="none" stroke="black" cx="3889" cy="-18" rx="60.39" ry="18"/>
<text text-anchor="middle" x="3889" y="-14.3" font-family="Times,serif" font-size="14.00">anteontem</text>
</g>
<!-- 0&#45;&gt;41 -->
<g id="edge41" class="edge">
<title>0&#45;&gt;41</title>
<path fill="none" stroke="black" d="M2524.1,-103.94C2678.18,-103.49 3445.04,-99.72 3679,-69 3734.21,-61.75 3796.07,-46.07 3838.27,-34.19"/>
<polygon fill="black" stroke="black" points="3839.37,-37.52 3848.03,-31.41 3837.45,-30.79 3839.37,-37.52"/>
<text text-anchor="middle" x="3768.5" y="-57.8" font-family="Times,serif" font-size="14.00">dep</text>
</g>
<!-- 42 -->
<g id="node43" class="node">
<title>42</title>
<ellipse fill="none" stroke="black" cx="3994" cy="-18" rx="27" ry="18"/>
<text text-anchor="middle" x="3994" y="-14.3" font-family="Times,serif" font-size="14.00">a</text>
</g>
<!-- 0&#45;&gt;42 -->
<g id="edge42" class="edge">
<title>0&#45;&gt;42</title>
<path fill="none" stroke="black" d="M2524.12,-103.86C2686.26,-102.96 3528.95,-96.96 3786,-69 3863.38,-60.58 3884,-60.14 3958,-36 3959.92,-35.37 3961.87,-34.67 3963.82,-33.91"/>
<polygon fill="black" stroke="black" points="3965.6,-36.95 3973.42,-29.8 3962.85,-30.52 3965.6,-36.95"/>
<text text-anchor="middle" x="3907.5" y="-57.8" font-family="Times,serif" font-size="14.00">dep</text>
</g>
<!-- 43 -->
<g id="node44" class="node">
<title>43</title>
<ellipse fill="none" stroke="black" cx="4066" cy="-18" rx="27" ry="18"/>
<text text-anchor="middle" x="4066" y="-14.3" font-family="Times,serif" font-size="14.00">a</text>
</g>
<!-- 0&#45;&gt;43 -->
<g id="edge43" class="edge">
<title>0&#45;&gt;43</title>
<path fill="none" stroke="black" d="M2523.95,-103.79C2708.44,-102.32 3781.96,-92.75 3925,-69 3973.25,-60.99 3984.44,-53.82 4030,-36 4031.83,-35.28 4033.7,-34.51 4035.58,-33.71"/>
<polygon fill="black" stroke="black" points="4037.18,-36.83 4044.89,-29.56 4034.33,-30.44 4037.18,-36.83"/>
<text text-anchor="middle" x="3997.5" y="-57.8" font-family="Times,serif" font-size="14.00">dep</text>
</g>
<!-- 44 -->
<g id="node45" class="node">
<title>44</title>
<ellipse fill="none" stroke="black" cx="4145" cy="-18" rx="34.39" ry="18"/>
<text text-anchor="middle" x="4145" y="-14.3" font-family="Times,serif" font-size="14.00">noite</text>
</g>
<!-- 0&#45;&gt;44 -->
<g id="edge44" class="edge">
<title>0&#45;&gt;44</title>
<path fill="none" stroke="black" d="M2524.11,-103.93C2715.79,-103.34 3863.32,-98.61 4015,-69 4049.09,-62.34 4085.85,-47.41 4111.56,-35.59"/>
<polygon fill="black" stroke="black" points="4113.27,-38.65 4120.84,-31.24 4110.3,-32.32 4113.27,-38.65"/>
<text text-anchor="middle" x="4080.5" y="-57.8" font-family="Times,serif" font-size="14.00">dep</text>
</g>
<!-- 45 -->
<g id="node46" class="node">
<title>45</title>
<ellipse fill="none" stroke="black" cx="4224" cy="-18" rx="27" ry="18"/>
<text text-anchor="middle" x="4224" y="-14.3" font-family="Times,serif" font-size="14.00">,</text>
</g>
<!-- 0&#45;&gt;45 -->
<g id="edge45" class="edge">
<title>0&#45;&gt;45</title>
<path fill="none" stroke="black" d="M2523.99,-103.94C2721.26,-103.47 3937.41,-99.33 4098,-69 4132.29,-62.52 4169.14,-46.77 4194.07,-34.66"/>
<polygon fill="black" stroke="black" points="4195.94,-37.64 4203.34,-30.06 4192.82,-31.37 4195.94,-37.64"/>
<text text-anchor="middle" x="4161.5" y="-57.8" font-family="Times,serif" font-size="14.00">dep</text>
</g>
<!-- 46 -->
<g id="node47" class="node">
<title>46</title>
<ellipse fill="none" stroke="black" cx="4296" cy="-18" rx="27" ry="18"/>
<text text-anchor="middle" x="4296" y="-14.3" font-family="Times,serif" font-size="14.00">em</text>
</g>
<!-- 0&#45;&gt;46 -->
<g id="edge46" class="edge">
<title>0&#45;&gt;46</title>
<path fill="none" stroke="black" d="M2524.06,-104.03C2727.26,-104.19 4010.51,-103.83 4179,-69 4210.56,-62.48 4244.15,-47.15 4267.2,-35.17"/>
<polygon fill="black" stroke="black" points="4268.91,-38.23 4276.1,-30.44 4265.62,-32.04 4268.91,-38.23"/>
<text text-anchor="middle" x="4239.5" y="-57.8" font-family="Times,serif" font-size="14.00">dep</text>
</g>
<!-- 47 -->
<g id="node48" class="node">
<title>47</title>
<ellipse fill="none" stroke="black" cx="4370" cy="-18" rx="28.7" ry="18"/>
<text text-anchor="middle" x="4370" y="-14.3" font-family="Times,serif" font-size="14.00">Vila</text>
</g>
<!-- 0&#45;&gt;47 -->
<g id="edge47" class="edge">
<title>0&#45;&gt;47</title>
<path fill="none" stroke="black" d="M2523.99,-104.1C2732.31,-104.81 4080.83,-107.88 4257,-69 4286.87,-62.41 4318.53,-47.64 4340.72,-35.85"/>
<polygon fill="black" stroke="black" points="4342.5,-38.87 4349.61,-31.02 4339.15,-32.72 4342.5,-38.87"/>
<text text-anchor="middle" x="4315.5" y="-57.8" font-family="Times,serif" font-size="14.00">dep</text>
</g>
<!-- 48 -->
<g id="node49" class="node">
<title>48</title>
<ellipse fill="none" stroke="black" cx="4451" cy="-18" rx="34.39" ry="18"/>
<text text-anchor="middle" x="4451" y="-14.3" font-family="Times,serif" font-size="14.00">Nova</text>
</g>
<!-- 0&#45;&gt;48 -->
<g id="edge48" class="edge">
<title>0&#45;&gt;48</title>
<path fill="none" stroke="black" d="M2524.12,-104.11C2737.96,-104.86 4148.64,-108.28 4333,-69 4363.6,-62.48 4396.18,-48.04 4419.34,-36.34"/>
<polygon fill="black" stroke="black" points="4421.07,-39.39 4428.35,-31.69 4417.86,-33.17 4421.07,-39.39"/>
<text text-anchor="middle" x="4393.5" y="-57.8" font-family="Times,serif" font-size="14.00">dep</text>
</g>
<!-- 49 -->
<g id="node50" class="node">
<title>49</title>
<ellipse fill="none" stroke="black" cx="4530" cy="-18" rx="27" ry="18"/>
<text text-anchor="middle" x="4530" y="-14.3" font-family="Times,serif" font-size="14.00">de</text>
</g>
<!-- 0&#45;&gt;49 -->
<g id="edge49" class="edge">
<title>0&#45;&gt;49</title>
<path fill="none" stroke="black" d="M2524.22,-104.09C2743.46,-104.76 4218.04,-107.78 4411,-69 4443.24,-62.52 4477.63,-47.03 4501.1,-35"/>
<polygon fill="black" stroke="black" points="4502.92,-38 4510.15,-30.25 4499.67,-31.8 4502.92,-38"/>
<text text-anchor="middle" x="4472.5" y="-57.8" font-family="Times,serif" font-size="14.00">dep</text>
</g>
<!-- 50 -->
<g id="node51" class="node">
<title>50</title>
<ellipse fill="none" stroke="black" cx="4607" cy="-18" rx="31.7" ry="18"/>
<text text-anchor="middle" x="4607" y="-14.3" font-family="Times,serif" font-size="14.00">Gaia</text>
</g>
<!-- 0&#45;&gt;50 -->
<g id="edge50" class="edge">
<title>0&#45;&gt;50</title>
<path fill="none" stroke="black" d="M2524.04,-103.82C2754.97,-102.27 4389.37,-90.52 4490,-69 4520.75,-62.42 4553.49,-47.69 4576.49,-35.92"/>
<polygon fill="black" stroke="black" points="4578.17,-38.98 4585.41,-31.25 4574.93,-32.78 4578.17,-38.98"/>
<text text-anchor="middle" x="4550.5" y="-57.8" font-family="Times,serif" font-size="14.00">dep</text>
</g>
<!-- 51 -->
<g id="node52" class="node">
<title>51</title>
<ellipse fill="none" stroke="black" cx="4684" cy="-18" rx="27" ry="18"/>
<text text-anchor="middle" x="4684" y="-14.3" font-family="Times,serif" font-size="14.00">.</text>
</g>
<!-- 0&#45;&gt;51 -->
<g id="edge51" class="edge">
<title>0&#45;&gt;51</title>
<path fill="none" stroke="black" d="M2523.97,-103.83C2759.69,-102.32 4463.12,-90.7 4568,-69 4599.33,-62.52 4632.62,-47.18 4655.47,-35.19"/>
<polygon fill="black" stroke="black" points="4657.13,-38.27 4664.28,-30.46 4653.82,-32.11 4657.13,-38.27"/>
<text text-anchor="middle" x="4628.5" y="-57.8" font-family="Times,serif" font-size="14.00">dep</text>
</g>
</g>
</svg>
