<?xml version="1.0" encoding="UTF-8" standalone="no"?>
<!DOCTYPE svg PUBLIC "-//W3C//DTD SVG 1.1//EN"
 "http://www.w3.org/Graphics/SVG/1.1/DTD/svg11.dtd">
<!-- Generated by graphviz version 2.42.4 (0)
 -->
<!-- Pages: 1 -->
<svg width="1855pt" height="131pt"
 viewBox="0.00 0.00 1855.00 131.00" xmlns="http://www.w3.org/2000/svg" xmlns:xlink="http://www.w3.org/1999/xlink">
<g id="graph0" class="graph" transform="scale(1 1) rotate(0) translate(4 127)">
<polygon fill="white" stroke="transparent" points="-4,4 -4,-127 1851,-127 1851,4 -4,4"/>
<!-- 0 -->
<g id="node1" class="node">
<title>0</title>
<ellipse fill="none" stroke="black" cx="981" cy="-105" rx="69.59" ry="18"/>
<text text-anchor="middle" x="981" y="-101.3" font-family="Times,serif" font-size="14.00">Actualmente</text>
</g>
<!-- 1 -->
<g id="node2" class="node">
<title>1</title>
<ellipse fill="none" stroke="black" cx="27" cy="-18" rx="27" ry="18"/>
<text text-anchor="middle" x="27" y="-14.3" font-family="Times,serif" font-size="14.00">,</text>
</g>
<!-- 0&#45;&gt;1 -->
<g id="edge1" class="edge">
<title>0&#45;&gt;1</title>
<path fill="none" stroke="black" d="M911.43,-103.96C738.71,-103.4 293.84,-99 149,-69 115.95,-62.16 80.51,-46.61 56.39,-34.66"/>
<polygon fill="black" stroke="black" points="57.91,-31.51 47.41,-30.12 54.75,-37.75 57.91,-31.51"/>
<text text-anchor="middle" x="162.5" y="-57.8" font-family="Times,serif" font-size="14.00">dep</text>
</g>
<!-- 2 -->
<g id="node3" class="node">
<title>2</title>
<ellipse fill="none" stroke="black" cx="103" cy="-18" rx="30.59" ry="18"/>
<text text-anchor="middle" x="103" y="-14.3" font-family="Times,serif" font-size="14.00">uma</text>
</g>
<!-- 0&#45;&gt;2 -->
<g id="edge2" class="edge">
<title>0&#45;&gt;2</title>
<path fill="none" stroke="black" d="M911.49,-103.55C751.07,-102.07 358.92,-95.75 230,-69 196.05,-61.96 159.43,-46.63 134.27,-34.79"/>
<polygon fill="black" stroke="black" points="135.75,-31.62 125.22,-30.45 132.72,-37.93 135.75,-31.62"/>
<text text-anchor="middle" x="243.5" y="-57.8" font-family="Times,serif" font-size="14.00">dep</text>
</g>
<!-- 3 -->
<g id="node4" class="node">
<title>3</title>
<ellipse fill="none" stroke="black" cx="179" cy="-18" rx="27" ry="18"/>
<text text-anchor="middle" x="179" y="-14.3" font-family="Times,serif" font-size="14.00">de</text>
</g>
<!-- 0&#45;&gt;3 -->
<g id="edge3" class="edge">
<title>0&#45;&gt;3</title>
<path fill="none" stroke="black" d="M911.99,-102.57C766.23,-99.19 431.17,-89.42 319,-69 271.29,-60.32 260.14,-53.73 215,-36 213.17,-35.28 211.29,-34.51 209.42,-33.71"/>
<polygon fill="black" stroke="black" points="210.67,-30.44 200.11,-29.55 207.81,-36.83 210.67,-30.44"/>
<text text-anchor="middle" x="332.5" y="-57.8" font-family="Times,serif" font-size="14.00">dep</text>
</g>
<!-- 4 -->
<g id="node5" class="node">
<title>4</title>
<ellipse fill="none" stroke="black" cx="251" cy="-18" rx="27" ry="18"/>
<text text-anchor="middle" x="251" y="-14.3" font-family="Times,serif" font-size="14.00">as</text>
</g>
<!-- 0&#45;&gt;4 -->
<g id="edge4" class="edge">
<title>0&#45;&gt;4</title>
<path fill="none" stroke="black" d="M911.63,-102.75C808.53,-100.15 608.96,-92.31 441,-69 371.67,-59.38 353.31,-58.43 287,-36 285.08,-35.35 283.14,-34.63 281.19,-33.86"/>
<polygon fill="black" stroke="black" points="282.17,-30.47 271.6,-29.72 279.4,-36.9 282.17,-30.47"/>
<text text-anchor="middle" x="454.5" y="-57.8" font-family="Times,serif" font-size="14.00">dep</text>
</g>
<!-- 5 -->
<g id="node6" class="node">
<title>5</title>
<ellipse fill="none" stroke="black" cx="348" cy="-18" rx="51.99" ry="18"/>
<text text-anchor="middle" x="348" y="-14.3" font-family="Times,serif" font-size="14.00">questões</text>
</g>
<!-- 0&#45;&gt;5 -->
<g id="edge5" class="edge">
<title>0&#45;&gt;5</title>
<path fill="none" stroke="black" d="M912.15,-101.99C825.35,-98.67 671.8,-90.13 542,-69 491.11,-60.71 434.1,-45.26 395.12,-33.71"/>
<polygon fill="black" stroke="black" points="395.71,-30.23 385.13,-30.72 393.7,-36.94 395.71,-30.23"/>
<text text-anchor="middle" x="555.5" y="-57.8" font-family="Times,serif" font-size="14.00">dep</text>
</g>
<!-- 6 -->
<g id="node7" class="node">
<title>6</title>
<ellipse fill="none" stroke="black" cx="474" cy="-18" rx="55.79" ry="18"/>
<text text-anchor="middle" x="474" y="-14.3" font-family="Times,serif" font-size="14.00">colocadas</text>
</g>
<!-- 0&#45;&gt;6 -->
<g id="edge6" class="edge">
<title>0&#45;&gt;6</title>
<path fill="none" stroke="black" d="M912.54,-101.51C841.13,-97.9 726.24,-89.28 629,-69 590.66,-61.01 548.43,-47.02 517.75,-35.88"/>
<polygon fill="black" stroke="black" points="518.81,-32.54 508.21,-32.37 516.39,-39.1 518.81,-32.54"/>
<text text-anchor="middle" x="642.5" y="-57.8" font-family="Times,serif" font-size="14.00">dep</text>
</g>
<!-- 7 -->
<g id="node8" class="node">
<title>7</title>
<ellipse fill="none" stroke="black" cx="575" cy="-18" rx="27" ry="18"/>
<text text-anchor="middle" x="575" y="-14.3" font-family="Times,serif" font-size="14.00">por</text>
</g>
<!-- 0&#45;&gt;7 -->
<g id="edge7" class="edge">
<title>0&#45;&gt;7</title>
<path fill="none" stroke="black" d="M915.92,-98.58C861.94,-93.32 783.4,-83.92 716,-69 668.24,-58.42 656.56,-53.82 611,-36 609.17,-35.28 607.29,-34.51 605.41,-33.71"/>
<polygon fill="black" stroke="black" points="606.67,-30.44 596.11,-29.56 603.81,-36.83 606.67,-30.44"/>
<text text-anchor="middle" x="729.5" y="-57.8" font-family="Times,serif" font-size="14.00">dep</text>
</g>
<!-- 8 -->
<g id="node9" class="node">
<title>8</title>
<ellipse fill="none" stroke="black" cx="647" cy="-18" rx="27" ry="18"/>
<text text-anchor="middle" x="647" y="-14.3" font-family="Times,serif" font-size="14.00">os</text>
</g>
<!-- 0&#45;&gt;8 -->
<g id="edge8" class="edge">
<title>0&#45;&gt;8</title>
<path fill="none" stroke="black" d="M922.99,-95C862.07,-84.58 764.06,-65.04 683,-36 681.15,-35.34 679.26,-34.61 677.37,-33.84"/>
<polygon fill="black" stroke="black" points="678.6,-30.56 668.03,-29.77 675.8,-36.97 678.6,-30.56"/>
<text text-anchor="middle" x="809.5" y="-57.8" font-family="Times,serif" font-size="14.00">dep</text>
</g>
<!-- 9 -->
<g id="node10" class="node">
<title>9</title>
<ellipse fill="none" stroke="black" cx="760" cy="-18" rx="67.69" ry="18"/>
<text text-anchor="middle" x="760" y="-14.3" font-family="Times,serif" font-size="14.00">investidores</text>
</g>
<!-- 0&#45;&gt;9 -->
<g id="edge9" class="edge">
<title>0&#45;&gt;9</title>
<path fill="none" stroke="black" d="M940.38,-90.14C922.41,-83.89 901.08,-76.28 882,-69 855.78,-59 826.69,-47.11 803.49,-37.43"/>
<polygon fill="black" stroke="black" points="804.84,-34.2 794.27,-33.57 802.14,-40.66 804.84,-34.2"/>
<text text-anchor="middle" x="895.5" y="-57.8" font-family="Times,serif" font-size="14.00">dep</text>
</g>
<!-- 10 -->
<g id="node11" class="node">
<title>10</title>
<ellipse fill="none" stroke="black" cx="873" cy="-18" rx="27" ry="18"/>
<text text-anchor="middle" x="873" y="-14.3" font-family="Times,serif" font-size="14.00">é</text>
</g>
<!-- 0&#45;&gt;10 -->
<g id="edge10" class="edge">
<title>0&#45;&gt;10</title>
<path fill="none" stroke="black" d="M956.45,-88.02C947.92,-82.24 938.39,-75.52 930,-69 918.36,-59.95 905.98,-49.24 895.75,-40.06"/>
<polygon fill="black" stroke="black" points="897.82,-37.21 888.06,-33.09 893.12,-42.4 897.82,-37.21"/>
<text text-anchor="middle" x="943.5" y="-57.8" font-family="Times,serif" font-size="14.00">dep</text>
</g>
<!-- 11 -->
<g id="node12" class="node">
<title>11</title>
<ellipse fill="none" stroke="black" cx="945" cy="-18" rx="27" ry="18"/>
<text text-anchor="middle" x="945" y="-14.3" font-family="Times,serif" font-size="14.00">a</text>
</g>
<!-- 0&#45;&gt;11 -->
<g id="edge11" class="edge">
<title>0&#45;&gt;11</title>
<path fill="none" stroke="black" d="M973.71,-86.8C968.62,-74.78 961.73,-58.51 955.98,-44.92"/>
<polygon fill="black" stroke="black" points="959.15,-43.44 952.03,-35.6 952.71,-46.17 959.15,-43.44"/>
<text text-anchor="middle" x="979.5" y="-57.8" font-family="Times,serif" font-size="14.00">dep</text>
</g>
<!-- 12 -->
<g id="node13" class="node">
<title>12</title>
<ellipse fill="none" stroke="black" cx="1017" cy="-18" rx="27" ry="18"/>
<text text-anchor="middle" x="1017" y="-14.3" font-family="Times,serif" font-size="14.00">de</text>
</g>
<!-- 0&#45;&gt;12 -->
<g id="edge12" class="edge">
<title>0&#45;&gt;12</title>
<path fill="none" stroke="black" d="M988.29,-86.8C993.38,-74.78 1000.27,-58.51 1006.02,-44.92"/>
<polygon fill="black" stroke="black" points="1009.29,-46.17 1009.97,-35.6 1002.85,-43.44 1009.29,-46.17"/>
<text text-anchor="middle" x="1015.5" y="-57.8" font-family="Times,serif" font-size="14.00">dep</text>
</g>
<!-- 13 -->
<g id="node14" class="node">
<title>13</title>
<ellipse fill="none" stroke="black" cx="1093" cy="-18" rx="30.59" ry="18"/>
<text text-anchor="middle" x="1093" y="-14.3" font-family="Times,serif" font-size="14.00">qual</text>
</g>
<!-- 0&#45;&gt;13 -->
<g id="edge13" class="edge">
<title>0&#45;&gt;13</title>
<path fill="none" stroke="black" d="M1005.7,-88.12C1014.46,-82.3 1024.29,-75.53 1033,-69 1045.1,-59.92 1058.05,-49.26 1068.81,-40.12"/>
<polygon fill="black" stroke="black" points="1071.24,-42.64 1076.56,-33.48 1066.69,-37.33 1071.24,-42.64"/>
<text text-anchor="middle" x="1065.5" y="-57.8" font-family="Times,serif" font-size="14.00">dep</text>
</g>
<!-- 14 -->
<g id="node15" class="node">
<title>14</title>
<ellipse fill="none" stroke="black" cx="1172" cy="-18" rx="30.59" ry="18"/>
<text text-anchor="middle" x="1172" y="-14.3" font-family="Times,serif" font-size="14.00">será</text>
</g>
<!-- 0&#45;&gt;14 -->
<g id="edge14" class="edge">
<title>0&#45;&gt;14</title>
<path fill="none" stroke="black" d="M1024.6,-90.97C1042.93,-85 1064.29,-77.38 1083,-69 1103.61,-59.77 1125.75,-47.34 1142.79,-37.19"/>
<polygon fill="black" stroke="black" points="1144.94,-39.98 1151.69,-31.81 1141.32,-33.98 1144.94,-39.98"/>
<text text-anchor="middle" x="1127.5" y="-57.8" font-family="Times,serif" font-size="14.00">dep</text>
</g>
<!-- 15 -->
<g id="node16" class="node">
<title>15</title>
<ellipse fill="none" stroke="black" cx="1248" cy="-18" rx="27" ry="18"/>
<text text-anchor="middle" x="1248" y="-14.3" font-family="Times,serif" font-size="14.00">o</text>
</g>
<!-- 0&#45;&gt;15 -->
<g id="edge15" class="edge">
<title>0&#45;&gt;15</title>
<path fill="none" stroke="black" d="M1039.23,-95.11C1071,-89.38 1110.72,-80.78 1145,-69 1170.96,-60.07 1198.9,-46.22 1219.11,-35.36"/>
<polygon fill="black" stroke="black" points="1221,-38.32 1228.1,-30.46 1217.64,-32.18 1221,-38.32"/>
<text text-anchor="middle" x="1193.5" y="-57.8" font-family="Times,serif" font-size="14.00">dep</text>
</g>
<!-- 16 -->
<g id="node17" class="node">
<title>16</title>
<ellipse fill="none" stroke="black" cx="1329" cy="-18" rx="36.29" ry="18"/>
<text text-anchor="middle" x="1329" y="-14.3" font-family="Times,serif" font-size="14.00">preço</text>
</g>
<!-- 0&#45;&gt;16 -->
<g id="edge16" class="edge">
<title>0&#45;&gt;16</title>
<path fill="none" stroke="black" d="M1045.86,-98.5C1092.45,-93.49 1156.4,-84.46 1211,-69 1240.35,-60.69 1272.11,-46.94 1295.28,-35.96"/>
<polygon fill="black" stroke="black" points="1296.85,-39.09 1304.34,-31.6 1293.81,-32.78 1296.85,-39.09"/>
<text text-anchor="middle" x="1264.5" y="-57.8" font-family="Times,serif" font-size="14.00">dep</text>
</g>
<!-- 17 -->
<g id="node18" class="node">
<title>17</title>
<ellipse fill="none" stroke="black" cx="1410" cy="-18" rx="27" ry="18"/>
<text text-anchor="middle" x="1410" y="-14.3" font-family="Times,serif" font-size="14.00">a</text>
</g>
<!-- 0&#45;&gt;17 -->
<g id="edge17" class="edge">
<title>0&#45;&gt;17</title>
<path fill="none" stroke="black" d="M1048.71,-100.56C1110.22,-96.39 1203.12,-87.48 1282,-69 1316.6,-60.89 1354.28,-45.29 1379.73,-33.66"/>
<polygon fill="black" stroke="black" points="1381.26,-36.81 1388.86,-29.42 1378.31,-30.46 1381.26,-36.81"/>
<text text-anchor="middle" x="1342.5" y="-57.8" font-family="Times,serif" font-size="14.00">dep</text>
</g>
<!-- 18 -->
<g id="node19" class="node">
<title>18</title>
<ellipse fill="none" stroke="black" cx="1493" cy="-18" rx="37.89" ry="18"/>
<text text-anchor="middle" x="1493" y="-14.3" font-family="Times,serif" font-size="14.00">pagar</text>
</g>
<!-- 0&#45;&gt;18 -->
<g id="edge18" class="edge">
<title>0&#45;&gt;18</title>
<path fill="none" stroke="black" d="M1050.34,-103.13C1127.01,-100.9 1253.74,-93.41 1360,-69 1394.05,-61.18 1431.12,-46.71 1457.46,-35.34"/>
<polygon fill="black" stroke="black" points="1458.9,-38.53 1466.65,-31.31 1456.09,-32.12 1458.9,-38.53"/>
<text text-anchor="middle" x="1422.5" y="-57.8" font-family="Times,serif" font-size="14.00">dep</text>
</g>
<!-- 19 -->
<g id="node20" class="node">
<title>19</title>
<ellipse fill="none" stroke="black" cx="1576" cy="-18" rx="27" ry="18"/>
<text text-anchor="middle" x="1576" y="-14.3" font-family="Times,serif" font-size="14.00">por</text>
</g>
<!-- 0&#45;&gt;19 -->
<g id="edge19" class="edge">
<title>0&#45;&gt;19</title>
<path fill="none" stroke="black" d="M1050.53,-103.92C1141.07,-102.62 1303.84,-96.24 1440,-69 1485.89,-59.82 1496.54,-53.36 1540,-36 1541.83,-35.27 1543.7,-34.49 1545.57,-33.68"/>
<polygon fill="black" stroke="black" points="1547.18,-36.8 1554.87,-29.51 1544.31,-30.41 1547.18,-36.8"/>
<text text-anchor="middle" x="1508.5" y="-57.8" font-family="Times,serif" font-size="14.00">dep</text>
</g>
<!-- 20 -->
<g id="node21" class="node">
<title>20</title>
<ellipse fill="none" stroke="black" cx="1653" cy="-18" rx="32.49" ry="18"/>
<text text-anchor="middle" x="1653" y="-14.3" font-family="Times,serif" font-size="14.00">cada</text>
</g>
<!-- 0&#45;&gt;20 -->
<g id="edge20" class="edge">
<title>0&#45;&gt;20</title>
<path fill="none" stroke="black" d="M1049.97,-102.16C1175.66,-98.38 1437.2,-88.42 1526,-69 1559.46,-61.68 1595.62,-46.69 1620.77,-35.02"/>
<polygon fill="black" stroke="black" points="1622.29,-38.17 1629.83,-30.74 1619.3,-31.84 1622.29,-38.17"/>
<text text-anchor="middle" x="1586.5" y="-57.8" font-family="Times,serif" font-size="14.00">dep</text>
</g>
<!-- 21 -->
<g id="node22" class="node">
<title>21</title>
<ellipse fill="none" stroke="black" cx="1739" cy="-18" rx="36" ry="18"/>
<text text-anchor="middle" x="1739" y="-14.3" font-family="Times,serif" font-size="14.00">título</text>
</g>
<!-- 0&#45;&gt;21 -->
<g id="edge21" class="edge">
<title>0&#45;&gt;21</title>
<path fill="none" stroke="black" d="M1050.23,-102.68C1189.68,-99.6 1499.97,-90.5 1604,-69 1639.31,-61.7 1677.7,-46.75 1704.49,-35.09"/>
<polygon fill="black" stroke="black" points="1706.08,-38.21 1713.8,-30.96 1703.24,-31.81 1706.08,-38.21"/>
<text text-anchor="middle" x="1667.5" y="-57.8" font-family="Times,serif" font-size="14.00">dep</text>
</g>
<!-- 22 -->
<g id="node23" class="node">
<title>22</title>
<ellipse fill="none" stroke="black" cx="1820" cy="-18" rx="27" ry="18"/>
<text text-anchor="middle" x="1820" y="-14.3" font-family="Times,serif" font-size="14.00">.</text>
</g>
<!-- 0&#45;&gt;22 -->
<g id="edge22" class="edge">
<title>0&#45;&gt;22</title>
<path fill="none" stroke="black" d="M1050.35,-102.95C1203.15,-100.24 1564.81,-91.58 1685,-69 1722.19,-62.01 1762.61,-45.8 1789.43,-33.72"/>
<polygon fill="black" stroke="black" points="1791.04,-36.83 1798.67,-29.48 1788.12,-30.47 1791.04,-36.83"/>
<text text-anchor="middle" x="1752.5" y="-57.8" font-family="Times,serif" font-size="14.00">dep</text>
</g>
</g>
</svg>
