<?xml version="1.0" encoding="UTF-8" standalone="no"?>
<!DOCTYPE svg PUBLIC "-//W3C//DTD SVG 1.1//EN"
 "http://www.w3.org/Graphics/SVG/1.1/DTD/svg11.dtd">
<!-- Generated by graphviz version 2.42.4 (0)
 -->
<!-- Pages: 1 -->
<svg width="2846pt" height="131pt"
 viewBox="0.00 0.00 2846.45 131.00" xmlns="http://www.w3.org/2000/svg" xmlns:xlink="http://www.w3.org/1999/xlink">
<g id="graph0" class="graph" transform="scale(1 1) rotate(0) translate(4 127)">
<polygon fill="white" stroke="transparent" points="-4,4 -4,-127 2842.45,-127 2842.45,4 -4,4"/>
<!-- 0 -->
<g id="node1" class="node">
<title>0</title>
<ellipse fill="none" stroke="black" cx="1450.45" cy="-105" rx="27" ry="18"/>
<text text-anchor="middle" x="1450.45" y="-101.3" font-family="Times,serif" font-size="14.00">Ele</text>
</g>
<!-- 1 -->
<g id="node2" class="node">
<title>1</title>
<ellipse fill="none" stroke="black" cx="34.45" cy="-18" rx="34.39" ry="18"/>
<text text-anchor="middle" x="34.45" y="-14.3" font-family="Times,serif" font-size="14.00">disse</text>
</g>
<!-- 0&#45;&gt;1 -->
<g id="edge1" class="edge">
<title>0&#45;&gt;1</title>
<path fill="none" stroke="black" d="M1423.44,-103.88C1248.67,-102.99 280.63,-96.84 152.45,-69 121.87,-62.36 89.28,-47.93 66.12,-36.27"/>
<polygon fill="black" stroke="black" points="67.6,-33.09 57.11,-31.63 64.4,-39.32 67.6,-33.09"/>
<text text-anchor="middle" x="165.95" y="-57.8" font-family="Times,serif" font-size="14.00">dep</text>
</g>
<!-- 2 -->
<g id="node3" class="node">
<title>2</title>
<ellipse fill="none" stroke="black" cx="113.45" cy="-18" rx="27" ry="18"/>
<text text-anchor="middle" x="113.45" y="-14.3" font-family="Times,serif" font-size="14.00">,</text>
</g>
<!-- 0&#45;&gt;2 -->
<g id="edge2" class="edge">
<title>0&#45;&gt;2</title>
<path fill="none" stroke="black" d="M1423.44,-103.81C1254.8,-102.55 349.74,-94.63 229.45,-69 198.29,-62.36 165.15,-47.16 142.3,-35.25"/>
<polygon fill="black" stroke="black" points="143.65,-32 133.18,-30.38 140.35,-38.18 143.65,-32"/>
<text text-anchor="middle" x="242.95" y="-57.8" font-family="Times,serif" font-size="14.00">dep</text>
</g>
<!-- 3 -->
<g id="node4" class="node">
<title>3</title>
<ellipse fill="none" stroke="black" cx="185.45" cy="-18" rx="27" ry="18"/>
<text text-anchor="middle" x="185.45" y="-14.3" font-family="Times,serif" font-size="14.00">em</text>
</g>
<!-- 0&#45;&gt;3 -->
<g id="edge3" class="edge">
<title>0&#45;&gt;3</title>
<path fill="none" stroke="black" d="M1423.38,-103.71C1261.14,-101.88 420.85,-91.39 308.45,-69 275.12,-62.36 239.38,-46.79 215.07,-34.77"/>
<polygon fill="black" stroke="black" points="216.52,-31.58 206.02,-30.2 213.37,-37.83 216.52,-31.58"/>
<text text-anchor="middle" x="321.95" y="-57.8" font-family="Times,serif" font-size="14.00">dep</text>
</g>
<!-- 4 -->
<g id="node5" class="node">
<title>4</title>
<ellipse fill="none" stroke="black" cx="257.45" cy="-18" rx="27" ry="18"/>
<text text-anchor="middle" x="257.45" y="-14.3" font-family="Times,serif" font-size="14.00">o</text>
</g>
<!-- 0&#45;&gt;4 -->
<g id="edge4" class="edge">
<title>0&#45;&gt;4</title>
<path fill="none" stroke="black" d="M1423.26,-104.1C1279.13,-104.49 603.18,-104.37 397.45,-69 349.65,-60.78 338.58,-53.73 293.45,-36 291.61,-35.28 289.74,-34.51 287.86,-33.71"/>
<polygon fill="black" stroke="black" points="289.12,-30.44 278.56,-29.55 286.26,-36.83 289.12,-30.44"/>
<text text-anchor="middle" x="410.95" y="-57.8" font-family="Times,serif" font-size="14.00">dep</text>
</g>
<!-- 5 -->
<g id="node6" class="node">
<title>5</title>
<ellipse fill="none" stroke="black" cx="348.45" cy="-18" rx="46.29" ry="18"/>
<text text-anchor="middle" x="348.45" y="-14.3" font-family="Times,serif" font-size="14.00">entanto</text>
</g>
<!-- 0&#45;&gt;5 -->
<g id="edge5" class="edge">
<title>0&#45;&gt;5</title>
<path fill="none" stroke="black" d="M1423.11,-104.22C1285.43,-105.15 667.08,-107.1 479.45,-69 446.55,-62.32 411.09,-48.33 385.37,-36.84"/>
<polygon fill="black" stroke="black" points="386.56,-33.54 376.01,-32.58 383.66,-39.91 386.56,-33.54"/>
<text text-anchor="middle" x="492.95" y="-57.8" font-family="Times,serif" font-size="14.00">dep</text>
</g>
<!-- 6 -->
<g id="node7" class="node">
<title>6</title>
<ellipse fill="none" stroke="black" cx="439.45" cy="-18" rx="27" ry="18"/>
<text text-anchor="middle" x="439.45" y="-14.3" font-family="Times,serif" font-size="14.00">,</text>
</g>
<!-- 0&#45;&gt;6 -->
<g id="edge6" class="edge">
<title>0&#45;&gt;6</title>
<path fill="none" stroke="black" d="M1423.13,-104.2C1292.15,-104.98 727.81,-106.06 556.45,-69 524.95,-62.19 491.35,-46.9 468.28,-35.01"/>
<polygon fill="black" stroke="black" points="469.85,-31.88 459.37,-30.32 466.59,-38.08 469.85,-31.88"/>
<text text-anchor="middle" x="569.95" y="-57.8" font-family="Times,serif" font-size="14.00">dep</text>
</g>
<!-- 7 -->
<g id="node8" class="node">
<title>7</title>
<ellipse fill="none" stroke="black" cx="512.45" cy="-18" rx="27.9" ry="18"/>
<text text-anchor="middle" x="512.45" y="-14.3" font-family="Times,serif" font-size="14.00">que</text>
</g>
<!-- 0&#45;&gt;7 -->
<g id="edge7" class="edge">
<title>0&#45;&gt;7</title>
<path fill="none" stroke="black" d="M1423.16,-103.99C1299.59,-103.78 791.8,-100.94 636.45,-69 602.93,-62.11 566.89,-46.57 542.35,-34.63"/>
<polygon fill="black" stroke="black" points="543.73,-31.41 533.22,-30.1 540.62,-37.68 543.73,-31.41"/>
<text text-anchor="middle" x="649.95" y="-57.8" font-family="Times,serif" font-size="14.00">dep</text>
</g>
<!-- 8 -->
<g id="node9" class="node">
<title>8</title>
<ellipse fill="none" stroke="black" cx="585.45" cy="-18" rx="27" ry="18"/>
<text text-anchor="middle" x="585.45" y="-14.3" font-family="Times,serif" font-size="14.00">a</text>
</g>
<!-- 0&#45;&gt;8 -->
<g id="edge8" class="edge">
<title>0&#45;&gt;8</title>
<path fill="none" stroke="black" d="M1423.15,-103.63C1308.23,-101.91 863.27,-93.76 725.45,-69 677.72,-60.43 666.58,-53.73 621.45,-36 619.61,-35.28 617.74,-34.51 615.86,-33.71"/>
<polygon fill="black" stroke="black" points="617.12,-30.44 606.56,-29.55 614.26,-36.83 617.12,-30.44"/>
<text text-anchor="middle" x="738.95" y="-57.8" font-family="Times,serif" font-size="14.00">dep</text>
</g>
<!-- 9 -->
<g id="node10" class="node">
<title>9</title>
<ellipse fill="none" stroke="black" cx="657.45" cy="-18" rx="27" ry="18"/>
<text text-anchor="middle" x="657.45" y="-14.3" font-family="Times,serif" font-size="14.00">lei</text>
</g>
<!-- 0&#45;&gt;9 -->
<g id="edge9" class="edge">
<title>0&#45;&gt;9</title>
<path fill="none" stroke="black" d="M1423.29,-103.79C1338.7,-102.84 1072.58,-97.61 854.45,-69 782.02,-59.5 762.74,-59.09 693.45,-36 691.53,-35.36 689.58,-34.65 687.63,-33.88"/>
<polygon fill="black" stroke="black" points="688.61,-30.49 678.04,-29.76 685.84,-36.92 688.61,-30.49"/>
<text text-anchor="middle" x="867.95" y="-57.8" font-family="Times,serif" font-size="14.00">dep</text>
</g>
<!-- 10 -->
<g id="node11" class="node">
<title>10</title>
<ellipse fill="none" stroke="black" cx="759.45" cy="-18" rx="57.39" ry="18"/>
<text text-anchor="middle" x="759.45" y="-14.3" font-family="Times,serif" font-size="14.00">antitruste</text>
</g>
<!-- 0&#45;&gt;10 -->
<g id="edge10" class="edge">
<title>0&#45;&gt;10</title>
<path fill="none" stroke="black" d="M1423.48,-103.75C1348.78,-102.71 1133.03,-97.27 956.45,-69 905.22,-60.8 847.85,-45.52 808.29,-34.01"/>
<polygon fill="black" stroke="black" points="809.21,-30.63 798.63,-31.17 807.24,-37.34 809.21,-30.63"/>
<text text-anchor="middle" x="969.95" y="-57.8" font-family="Times,serif" font-size="14.00">dep</text>
</g>
<!-- 11 -->
<g id="node12" class="node">
<title>11</title>
<ellipse fill="none" stroke="black" cx="888.45" cy="-18" rx="53.89" ry="18"/>
<text text-anchor="middle" x="888.45" y="-14.3" font-family="Times,serif" font-size="14.00">aprovada</text>
</g>
<!-- 0&#45;&gt;11 -->
<g id="edge11" class="edge">
<title>0&#45;&gt;11</title>
<path fill="none" stroke="black" d="M1423.41,-103.8C1357.57,-102.87 1183.9,-97.64 1042.45,-69 1004.04,-61.22 961.79,-47.09 931.28,-35.83"/>
<polygon fill="black" stroke="black" points="932.39,-32.51 921.8,-32.28 929.94,-39.06 932.39,-32.51"/>
<text text-anchor="middle" x="1055.95" y="-57.8" font-family="Times,serif" font-size="14.00">dep</text>
</g>
<!-- 12 -->
<g id="node13" class="node">
<title>12</title>
<ellipse fill="none" stroke="black" cx="987.45" cy="-18" rx="27" ry="18"/>
<text text-anchor="middle" x="987.45" y="-14.3" font-family="Times,serif" font-size="14.00">por</text>
</g>
<!-- 0&#45;&gt;12 -->
<g id="edge12" class="edge">
<title>0&#45;&gt;12</title>
<path fill="none" stroke="black" d="M1423.29,-102.74C1367.91,-99.79 1238.13,-90.95 1131.45,-69 1082.29,-58.89 1070.26,-54.1 1023.45,-36 1021.61,-35.29 1019.74,-34.53 1017.85,-33.73"/>
<polygon fill="black" stroke="black" points="1019.1,-30.46 1008.55,-29.59 1016.26,-36.85 1019.1,-30.46"/>
<text text-anchor="middle" x="1144.95" y="-57.8" font-family="Times,serif" font-size="14.00">dep</text>
</g>
<!-- 13 -->
<g id="node14" class="node">
<title>13</title>
<ellipse fill="none" stroke="black" cx="1059.45" cy="-18" rx="27" ry="18"/>
<text text-anchor="middle" x="1059.45" y="-14.3" font-family="Times,serif" font-size="14.00">o</text>
</g>
<!-- 0&#45;&gt;13 -->
<g id="edge13" class="edge">
<title>0&#45;&gt;13</title>
<path fill="none" stroke="black" d="M1423.94,-101.56C1364.01,-95.46 1214.05,-77.05 1095.45,-36 1093.54,-35.34 1091.59,-34.61 1089.65,-33.83"/>
<polygon fill="black" stroke="black" points="1090.63,-30.44 1080.07,-29.67 1087.85,-36.86 1090.63,-30.44"/>
<text text-anchor="middle" x="1223.95" y="-57.8" font-family="Times,serif" font-size="14.00">dep</text>
</g>
<!-- 14 -->
<g id="node15" class="node">
<title>14</title>
<ellipse fill="none" stroke="black" cx="1164.45" cy="-18" rx="59.59" ry="18"/>
<text text-anchor="middle" x="1164.45" y="-14.3" font-family="Times,serif" font-size="14.00">Congresso</text>
</g>
<!-- 0&#45;&gt;14 -->
<g id="edge14" class="edge">
<title>0&#45;&gt;14</title>
<path fill="none" stroke="black" d="M1425.13,-97.89C1398.09,-91.24 1354.04,-80.08 1316.45,-69 1281.14,-58.59 1241.65,-45.56 1211.78,-35.41"/>
<polygon fill="black" stroke="black" points="1212.63,-32 1202.03,-32.09 1210.37,-38.63 1212.63,-32"/>
<text text-anchor="middle" x="1329.95" y="-57.8" font-family="Times,serif" font-size="14.00">dep</text>
</g>
<!-- 15 -->
<g id="node16" class="node">
<title>15</title>
<ellipse fill="none" stroke="black" cx="1283.45" cy="-18" rx="40.89" ry="18"/>
<text text-anchor="middle" x="1283.45" y="-14.3" font-family="Times,serif" font-size="14.00">reflete</text>
</g>
<!-- 0&#45;&gt;15 -->
<g id="edge15" class="edge">
<title>0&#45;&gt;15</title>
<path fill="none" stroke="black" d="M1428.3,-94.3C1413.03,-87.49 1392.35,-78.03 1374.45,-69 1355.03,-59.21 1333.7,-47.54 1316.57,-37.94"/>
<polygon fill="black" stroke="black" points="1317.96,-34.7 1307.53,-32.84 1314.52,-40.8 1317.96,-34.7"/>
<text text-anchor="middle" x="1387.95" y="-57.8" font-family="Times,serif" font-size="14.00">dep</text>
</g>
<!-- 16 -->
<g id="node17" class="node">
<title>16</title>
<ellipse fill="none" stroke="black" cx="1369.45" cy="-18" rx="27" ry="18"/>
<text text-anchor="middle" x="1369.45" y="-14.3" font-family="Times,serif" font-size="14.00">o</text>
</g>
<!-- 0&#45;&gt;16 -->
<g id="edge16" class="edge">
<title>0&#45;&gt;16</title>
<path fill="none" stroke="black" d="M1436.34,-89.19C1423.68,-75.91 1404.92,-56.23 1390.49,-41.08"/>
<polygon fill="black" stroke="black" points="1392.83,-38.46 1383.39,-33.64 1387.76,-43.29 1392.83,-38.46"/>
<text text-anchor="middle" x="1428.95" y="-57.8" font-family="Times,serif" font-size="14.00">dep</text>
</g>
<!-- 17 -->
<g id="node18" class="node">
<title>17</title>
<ellipse fill="none" stroke="black" cx="1450.45" cy="-18" rx="36" ry="18"/>
<text text-anchor="middle" x="1450.45" y="-14.3" font-family="Times,serif" font-size="14.00">clima</text>
</g>
<!-- 0&#45;&gt;17 -->
<g id="edge17" class="edge">
<title>0&#45;&gt;17</title>
<path fill="none" stroke="black" d="M1450.45,-86.8C1450.45,-75.16 1450.45,-59.55 1450.45,-46.24"/>
<polygon fill="black" stroke="black" points="1453.95,-46.18 1450.45,-36.18 1446.95,-46.18 1453.95,-46.18"/>
<text text-anchor="middle" x="1463.95" y="-57.8" font-family="Times,serif" font-size="14.00">dep</text>
</g>
<!-- 18 -->
<g id="node19" class="node">
<title>18</title>
<ellipse fill="none" stroke="black" cx="1532.45" cy="-18" rx="27.9" ry="18"/>
<text text-anchor="middle" x="1532.45" y="-14.3" font-family="Times,serif" font-size="14.00">que</text>
</g>
<!-- 0&#45;&gt;18 -->
<g id="edge18" class="edge">
<title>0&#45;&gt;18</title>
<path fill="none" stroke="black" d="M1464.73,-89.19C1477.55,-75.91 1496.53,-56.23 1511.14,-41.08"/>
<polygon fill="black" stroke="black" points="1513.9,-43.26 1518.33,-33.64 1508.87,-38.4 1513.9,-43.26"/>
<text text-anchor="middle" x="1509.95" y="-57.8" font-family="Times,serif" font-size="14.00">dep</text>
</g>
<!-- 19 -->
<g id="node20" class="node">
<title>19</title>
<ellipse fill="none" stroke="black" cx="1605.45" cy="-18" rx="27" ry="18"/>
<text text-anchor="middle" x="1605.45" y="-14.3" font-family="Times,serif" font-size="14.00">o</text>
</g>
<!-- 0&#45;&gt;19 -->
<g id="edge19" class="edge">
<title>0&#45;&gt;19</title>
<path fill="none" stroke="black" d="M1472.76,-94.86C1488.36,-88.24 1509.52,-78.76 1527.45,-69 1545,-59.45 1563.88,-47.4 1578.67,-37.52"/>
<polygon fill="black" stroke="black" points="1580.97,-40.18 1587.3,-31.69 1577.06,-34.38 1580.97,-40.18"/>
<text text-anchor="middle" x="1565.95" y="-57.8" font-family="Times,serif" font-size="14.00">dep</text>
</g>
<!-- 20 -->
<g id="node21" class="node">
<title>20</title>
<ellipse fill="none" stroke="black" cx="1680.45" cy="-18" rx="29.8" ry="18"/>
<text text-anchor="middle" x="1680.45" y="-14.3" font-family="Times,serif" font-size="14.00">país</text>
</g>
<!-- 0&#45;&gt;20 -->
<g id="edge20" class="edge">
<title>0&#45;&gt;20</title>
<path fill="none" stroke="black" d="M1475.97,-99.02C1503.13,-93.33 1547.11,-82.95 1583.45,-69 1607.01,-59.95 1632.31,-46.78 1651.16,-36.23"/>
<polygon fill="black" stroke="black" points="1652.9,-39.27 1659.87,-31.29 1649.44,-33.19 1652.9,-39.27"/>
<text text-anchor="middle" x="1629.95" y="-57.8" font-family="Times,serif" font-size="14.00">dep</text>
</g>
<!-- 21 -->
<g id="node22" class="node">
<title>21</title>
<ellipse fill="none" stroke="black" cx="1758.45" cy="-18" rx="30.59" ry="18"/>
<text text-anchor="middle" x="1758.45" y="-14.3" font-family="Times,serif" font-size="14.00">está</text>
</g>
<!-- 0&#45;&gt;21 -->
<g id="edge21" class="edge">
<title>0&#45;&gt;21</title>
<path fill="none" stroke="black" d="M1477.07,-101.39C1515.39,-97.15 1588.04,-87.35 1647.45,-69 1675.42,-60.36 1705.61,-46.44 1727.44,-35.47"/>
<polygon fill="black" stroke="black" points="1729.23,-38.49 1736.54,-30.82 1726.05,-32.25 1729.23,-38.49"/>
<text text-anchor="middle" x="1698.95" y="-57.8" font-family="Times,serif" font-size="14.00">dep</text>
</g>
<!-- 22 -->
<g id="node23" class="node">
<title>22</title>
<ellipse fill="none" stroke="black" cx="1853.45" cy="-18" rx="46.59" ry="18"/>
<text text-anchor="middle" x="1853.45" y="-14.3" font-family="Times,serif" font-size="14.00">vivendo</text>
</g>
<!-- 0&#45;&gt;22 -->
<g id="edge22" class="edge">
<title>0&#45;&gt;22</title>
<path fill="none" stroke="black" d="M1477.23,-102.42C1525.6,-99.14 1630.49,-90.07 1716.45,-69 1750.28,-60.71 1787.33,-46.88 1814.35,-35.87"/>
<polygon fill="black" stroke="black" points="1815.93,-39.01 1823.83,-31.96 1813.25,-32.54 1815.93,-39.01"/>
<text text-anchor="middle" x="1779.95" y="-57.8" font-family="Times,serif" font-size="14.00">dep</text>
</g>
<!-- 23 -->
<g id="node24" class="node">
<title>23</title>
<ellipse fill="none" stroke="black" cx="1945.45" cy="-18" rx="27" ry="18"/>
<text text-anchor="middle" x="1945.45" y="-14.3" font-family="Times,serif" font-size="14.00">em</text>
</g>
<!-- 0&#45;&gt;23 -->
<g id="edge23" class="edge">
<title>0&#45;&gt;23</title>
<path fill="none" stroke="black" d="M1477.69,-102.97C1536.56,-100.38 1679.8,-92.06 1797.45,-69 1848.37,-59.02 1860.95,-54.47 1909.45,-36 1911.29,-35.3 1913.17,-34.54 1915.05,-33.75"/>
<polygon fill="black" stroke="black" points="1916.64,-36.88 1924.36,-29.62 1913.8,-30.48 1916.64,-36.88"/>
<text text-anchor="middle" x="1871.95" y="-57.8" font-family="Times,serif" font-size="14.00">dep</text>
</g>
<!-- 24 -->
<g id="node25" class="node">
<title>24</title>
<ellipse fill="none" stroke="black" cx="2021.45" cy="-18" rx="31.4" ry="18"/>
<text text-anchor="middle" x="2021.45" y="-14.3" font-family="Times,serif" font-size="14.00">essa</text>
</g>
<!-- 0&#45;&gt;24 -->
<g id="edge24" class="edge">
<title>0&#45;&gt;24</title>
<path fill="none" stroke="black" d="M1477.53,-104.31C1546.89,-104.58 1736.22,-101.98 1889.45,-69 1924.5,-61.46 1962.6,-46.2 1988.82,-34.52"/>
<polygon fill="black" stroke="black" points="1990.59,-37.56 1998.25,-30.24 1987.7,-31.18 1990.59,-37.56"/>
<text text-anchor="middle" x="1951.95" y="-57.8" font-family="Times,serif" font-size="14.00">dep</text>
</g>
<!-- 25 -->
<g id="node26" class="node">
<title>25</title>
<ellipse fill="none" stroke="black" cx="2100.45" cy="-18" rx="29.8" ry="18"/>
<text text-anchor="middle" x="2100.45" y="-14.3" font-family="Times,serif" font-size="14.00">fase</text>
</g>
<!-- 0&#45;&gt;25 -->
<g id="edge25" class="edge">
<title>0&#45;&gt;25</title>
<path fill="none" stroke="black" d="M1477.51,-103.16C1570.13,-100.15 1873.97,-88.94 1969.45,-69 2004.52,-61.68 2042.57,-46.24 2068.58,-34.45"/>
<polygon fill="black" stroke="black" points="2070.31,-37.5 2077.93,-30.13 2067.38,-31.15 2070.31,-37.5"/>
<text text-anchor="middle" x="2031.95" y="-57.8" font-family="Times,serif" font-size="14.00">dep</text>
</g>
<!-- 26 -->
<g id="node27" class="node">
<title>26</title>
<ellipse fill="none" stroke="black" cx="2176.45" cy="-18" rx="27.9" ry="18"/>
<text text-anchor="middle" x="2176.45" y="-14.3" font-family="Times,serif" font-size="14.00">que</text>
</g>
<!-- 0&#45;&gt;26 -->
<g id="edge26" class="edge">
<title>0&#45;&gt;26</title>
<path fill="none" stroke="black" d="M1477.37,-103.47C1578.8,-101.32 1937.77,-92.21 2049.45,-69 2083.8,-61.86 2120.91,-46.25 2146.08,-34.36"/>
<polygon fill="black" stroke="black" points="2147.63,-37.5 2155.12,-30.01 2144.59,-31.19 2147.63,-37.5"/>
<text text-anchor="middle" x="2113.95" y="-57.8" font-family="Times,serif" font-size="14.00">dep</text>
</g>
<!-- 27 -->
<g id="node28" class="node">
<title>27</title>
<ellipse fill="none" stroke="black" cx="2275.45" cy="-18" rx="52.79" ry="18"/>
<text text-anchor="middle" x="2275.45" y="-14.3" font-family="Times,serif" font-size="14.00">antecede</text>
</g>
<!-- 0&#45;&gt;27 -->
<g id="edge27" class="edge">
<title>0&#45;&gt;27</title>
<path fill="none" stroke="black" d="M1477.58,-103.63C1587.88,-101.95 2002.91,-94.09 2131.45,-69 2167.34,-61.99 2206.45,-47.98 2234.84,-36.57"/>
<polygon fill="black" stroke="black" points="2236.48,-39.68 2244.41,-32.65 2233.83,-33.2 2236.48,-39.68"/>
<text text-anchor="middle" x="2197.95" y="-57.8" font-family="Times,serif" font-size="14.00">dep</text>
</g>
<!-- 28 -->
<g id="node29" class="node">
<title>28</title>
<ellipse fill="none" stroke="black" cx="2373.45" cy="-18" rx="27" ry="18"/>
<text text-anchor="middle" x="2373.45" y="-14.3" font-family="Times,serif" font-size="14.00">o</text>
</g>
<!-- 0&#45;&gt;28 -->
<g id="edge28" class="edge">
<title>0&#45;&gt;28</title>
<path fill="none" stroke="black" d="M1477.6,-103.55C1596.14,-101.48 2068.82,-91.9 2215.45,-69 2270.94,-60.33 2284.73,-55.4 2337.45,-36 2339.3,-35.32 2341.18,-34.58 2343.07,-33.8"/>
<polygon fill="black" stroke="black" points="2344.65,-36.93 2352.39,-29.7 2341.83,-30.52 2344.65,-36.93"/>
<text text-anchor="middle" x="2299.95" y="-57.8" font-family="Times,serif" font-size="14.00">dep</text>
</g>
<!-- 29 -->
<g id="node30" class="node">
<title>29</title>
<ellipse fill="none" stroke="black" cx="2482.45" cy="-18" rx="64.19" ry="18"/>
<text text-anchor="middle" x="2482.45" y="-14.3" font-family="Times,serif" font-size="14.00">lançamento</text>
</g>
<!-- 0&#45;&gt;29 -->
<g id="edge29" class="edge">
<title>0&#45;&gt;29</title>
<path fill="none" stroke="black" d="M1477.73,-103.83C1606.03,-102.88 2150.15,-97.25 2317.45,-69 2358.5,-62.07 2403.66,-47.9 2436.34,-36.42"/>
<polygon fill="black" stroke="black" points="2437.82,-39.61 2446.06,-32.95 2435.47,-33.01 2437.82,-39.61"/>
<text text-anchor="middle" x="2390.95" y="-57.8" font-family="Times,serif" font-size="14.00">dep</text>
</g>
<!-- 30 -->
<g id="node31" class="node">
<title>30</title>
<ellipse fill="none" stroke="black" cx="2591.45" cy="-18" rx="27" ry="18"/>
<text text-anchor="middle" x="2591.45" y="-14.3" font-family="Times,serif" font-size="14.00">de</text>
</g>
<!-- 0&#45;&gt;30 -->
<g id="edge30" class="edge">
<title>0&#45;&gt;30</title>
<path fill="none" stroke="black" d="M1477.78,-103.68C1614.1,-101.99 2221.32,-93.21 2408.45,-69 2474.85,-60.41 2492.12,-57.76 2555.45,-36 2557.36,-35.34 2559.3,-34.61 2561.25,-33.84"/>
<polygon fill="black" stroke="black" points="2563.05,-36.87 2570.83,-29.69 2560.26,-30.45 2563.05,-36.87"/>
<text text-anchor="middle" x="2509.95" y="-57.8" font-family="Times,serif" font-size="14.00">dep</text>
</g>
<!-- 31 -->
<g id="node32" class="node">
<title>31</title>
<ellipse fill="none" stroke="black" cx="2663.45" cy="-18" rx="27" ry="18"/>
<text text-anchor="middle" x="2663.45" y="-14.3" font-family="Times,serif" font-size="14.00">o</text>
</g>
<!-- 0&#45;&gt;31 -->
<g id="edge31" class="edge">
<title>0&#45;&gt;31</title>
<path fill="none" stroke="black" d="M1477.78,-104.17C1624.19,-104.91 2317,-106.34 2527.45,-69 2565.17,-62.31 2606.14,-45.88 2633.15,-33.67"/>
<polygon fill="black" stroke="black" points="2634.82,-36.76 2642.43,-29.39 2631.89,-30.4 2634.82,-36.76"/>
<text text-anchor="middle" x="2594.95" y="-57.8" font-family="Times,serif" font-size="14.00">dep</text>
</g>
<!-- 32 -->
<g id="node33" class="node">
<title>32</title>
<ellipse fill="none" stroke="black" cx="2737.45" cy="-18" rx="28.7" ry="18"/>
<text text-anchor="middle" x="2737.45" y="-14.3" font-family="Times,serif" font-size="14.00">real</text>
</g>
<!-- 0&#45;&gt;32 -->
<g id="edge32" class="edge">
<title>0&#45;&gt;32</title>
<path fill="none" stroke="black" d="M1477.46,-103.72C1641.22,-101.97 2497.95,-91.77 2612.45,-69 2646.04,-62.32 2682.14,-46.9 2706.86,-34.94"/>
<polygon fill="black" stroke="black" points="2708.66,-37.96 2716.07,-30.39 2705.56,-31.68 2708.66,-37.96"/>
<text text-anchor="middle" x="2675.95" y="-57.8" font-family="Times,serif" font-size="14.00">dep</text>
</g>
<!-- 33 -->
<g id="node34" class="node">
<title>33</title>
<ellipse fill="none" stroke="black" cx="2811.45" cy="-18" rx="27" ry="18"/>
<text text-anchor="middle" x="2811.45" y="-14.3" font-family="Times,serif" font-size="14.00">.</text>
</g>
<!-- 0&#45;&gt;33 -->
<g id="edge33" class="edge">
<title>0&#45;&gt;33</title>
<path fill="none" stroke="black" d="M1477.39,-103.81C1647.61,-102.55 2570.73,-94.56 2693.45,-69 2725.23,-62.38 2759.11,-47.07 2782.38,-35.12"/>
<polygon fill="black" stroke="black" points="2784.13,-38.15 2791.36,-30.4 2780.87,-31.95 2784.13,-38.15"/>
<text text-anchor="middle" x="2753.95" y="-57.8" font-family="Times,serif" font-size="14.00">dep</text>
</g>
</g>
</svg>
