<?xml version="1.0" encoding="UTF-8" standalone="no"?>
<!DOCTYPE svg PUBLIC "-//W3C//DTD SVG 1.1//EN"
 "http://www.w3.org/Graphics/SVG/1.1/DTD/svg11.dtd">
<!-- Generated by graphviz version 2.42.4 (0)
 -->
<!-- Pages: 1 -->
<svg width="2554pt" height="131pt"
 viewBox="0.00 0.00 2554.30 131.00" xmlns="http://www.w3.org/2000/svg" xmlns:xlink="http://www.w3.org/1999/xlink">
<g id="graph0" class="graph" transform="scale(1 1) rotate(0) translate(4 127)">
<polygon fill="white" stroke="transparent" points="-4,4 -4,-127 2550.3,-127 2550.3,4 -4,4"/>
<!-- 0 -->
<g id="node1" class="node">
<title>0</title>
<ellipse fill="none" stroke="black" cx="1244.3" cy="-105" rx="27" ry="18"/>
<text text-anchor="middle" x="1244.3" y="-101.3" font-family="Times,serif" font-size="14.00">O</text>
</g>
<!-- 1 -->
<g id="node2" class="node">
<title>1</title>
<ellipse fill="none" stroke="black" cx="53.3" cy="-18" rx="53.09" ry="18"/>
<text text-anchor="middle" x="53.3" y="-14.3" font-family="Times,serif" font-size="14.00">essencial</text>
</g>
<!-- 0&#45;&gt;1 -->
<g id="edge1" class="edge">
<title>0&#45;&gt;1</title>
<path fill="none" stroke="black" d="M1217.22,-104.2C1073.68,-105.1 400.51,-107.19 196.3,-69 160.57,-62.32 121.74,-48.28 93.57,-36.77"/>
<polygon fill="black" stroke="black" points="94.65,-33.43 84.07,-32.82 91.96,-39.9 94.65,-33.43"/>
<text text-anchor="middle" x="209.8" y="-57.8" font-family="Times,serif" font-size="14.00">dep</text>
</g>
<!-- 2 -->
<g id="node3" class="node">
<title>2</title>
<ellipse fill="none" stroke="black" cx="151.3" cy="-18" rx="27" ry="18"/>
<text text-anchor="middle" x="151.3" y="-14.3" font-family="Times,serif" font-size="14.00">,</text>
</g>
<!-- 0&#45;&gt;2 -->
<g id="edge2" class="edge">
<title>0&#45;&gt;2</title>
<path fill="none" stroke="black" d="M1217.05,-104.18C1079.82,-104.92 463.52,-106.1 276.3,-69 242.29,-62.26 205.73,-46.55 180.99,-34.52"/>
<polygon fill="black" stroke="black" points="182.31,-31.27 171.8,-29.96 179.2,-37.54 182.31,-31.27"/>
<text text-anchor="middle" x="289.8" y="-57.8" font-family="Times,serif" font-size="14.00">dep</text>
</g>
<!-- 3 -->
<g id="node4" class="node">
<title>3</title>
<ellipse fill="none" stroke="black" cx="223.3" cy="-18" rx="27" ry="18"/>
<text text-anchor="middle" x="223.3" y="-14.3" font-family="Times,serif" font-size="14.00">em</text>
</g>
<!-- 0&#45;&gt;3 -->
<g id="edge3" class="edge">
<title>0&#45;&gt;3</title>
<path fill="none" stroke="black" d="M1217.33,-103.93C1088.05,-103.46 530.93,-99.64 360.3,-69 322.34,-62.18 281.06,-45.78 253.84,-33.61"/>
<polygon fill="black" stroke="black" points="255.03,-30.31 244.48,-29.35 252.13,-36.68 255.03,-30.31"/>
<text text-anchor="middle" x="373.8" y="-57.8" font-family="Times,serif" font-size="14.00">dep</text>
</g>
<!-- 4 -->
<g id="node5" class="node">
<title>4</title>
<ellipse fill="none" stroke="black" cx="295.3" cy="-18" rx="27" ry="18"/>
<text text-anchor="middle" x="295.3" y="-14.3" font-family="Times,serif" font-size="14.00">a</text>
</g>
<!-- 0&#45;&gt;4 -->
<g id="edge4" class="edge">
<title>0&#45;&gt;4</title>
<path fill="none" stroke="black" d="M1217.19,-104.39C1118.41,-105.47 768.53,-106.25 483.3,-69 414.75,-60.05 396.75,-58.24 331.3,-36 329.38,-35.35 327.43,-34.63 325.49,-33.85"/>
<polygon fill="black" stroke="black" points="326.47,-30.47 315.9,-29.71 323.69,-36.89 326.47,-30.47"/>
<text text-anchor="middle" x="496.8" y="-57.8" font-family="Times,serif" font-size="14.00">dep</text>
</g>
<!-- 5 -->
<g id="node6" class="node">
<title>5</title>
<ellipse fill="none" stroke="black" cx="412.3" cy="-18" rx="72.29" ry="18"/>
<text text-anchor="middle" x="412.3" y="-14.3" font-family="Times,serif" font-size="14.00">compreensão</text>
</g>
<!-- 0&#45;&gt;5 -->
<g id="edge5" class="edge">
<title>0&#45;&gt;5</title>
<path fill="none" stroke="black" d="M1217.17,-103.49C1107.85,-101.32 699.36,-91.79 572.3,-69 533.23,-61.99 490.37,-48.26 458.85,-36.96"/>
<polygon fill="black" stroke="black" points="460.05,-33.67 449.45,-33.54 457.65,-40.24 460.05,-33.67"/>
<text text-anchor="middle" x="585.8" y="-57.8" font-family="Times,serif" font-size="14.00">dep</text>
</g>
<!-- 6 -->
<g id="node7" class="node">
<title>6</title>
<ellipse fill="none" stroke="black" cx="529.3" cy="-18" rx="27" ry="18"/>
<text text-anchor="middle" x="529.3" y="-14.3" font-family="Times,serif" font-size="14.00">de</text>
</g>
<!-- 0&#45;&gt;6 -->
<g id="edge6" class="edge">
<title>0&#45;&gt;6</title>
<path fill="none" stroke="black" d="M1217.24,-103.52C1116.14,-101.56 760.69,-93.06 650.3,-69 617.7,-61.9 582.7,-46.5 558.78,-34.66"/>
<polygon fill="black" stroke="black" points="560.06,-31.38 549.55,-30 556.9,-37.63 560.06,-31.38"/>
<text text-anchor="middle" x="663.8" y="-57.8" font-family="Times,serif" font-size="14.00">dep</text>
</g>
<!-- 7 -->
<g id="node8" class="node">
<title>7</title>
<ellipse fill="none" stroke="black" cx="601.3" cy="-18" rx="27" ry="18"/>
<text text-anchor="middle" x="601.3" y="-14.3" font-family="Times,serif" font-size="14.00">os</text>
</g>
<!-- 0&#45;&gt;7 -->
<g id="edge7" class="edge">
<title>0&#45;&gt;7</title>
<path fill="none" stroke="black" d="M1217.33,-103.18C1125.05,-100.23 822.33,-89.21 727.3,-69 693.15,-61.74 656.28,-46.11 631.3,-34.25"/>
<polygon fill="black" stroke="black" points="632.54,-30.96 622.02,-29.75 629.49,-37.26 632.54,-30.96"/>
<text text-anchor="middle" x="740.8" y="-57.8" font-family="Times,serif" font-size="14.00">dep</text>
</g>
<!-- 8 -->
<g id="node9" class="node">
<title>8</title>
<ellipse fill="none" stroke="black" cx="673.3" cy="-18" rx="27" ry="18"/>
<text text-anchor="middle" x="673.3" y="-14.3" font-family="Times,serif" font-size="14.00">«</text>
</g>
<!-- 0&#45;&gt;8 -->
<g id="edge8" class="edge">
<title>0&#45;&gt;8</title>
<path fill="none" stroke="black" d="M1217.31,-104.16C1148.18,-104.06 959.44,-100.66 806.3,-69 769.93,-61.48 730.35,-45.52 703.91,-33.64"/>
<polygon fill="black" stroke="black" points="705.34,-30.45 694.79,-29.48 702.43,-36.82 705.34,-30.45"/>
<text text-anchor="middle" x="819.8" y="-57.8" font-family="Times,serif" font-size="14.00">dep</text>
</g>
<!-- 9 -->
<g id="node10" class="node">
<title>9</title>
<ellipse fill="none" stroke="black" cx="753.3" cy="-18" rx="35.19" ry="18"/>
<text text-anchor="middle" x="753.3" y="-14.3" font-family="Times,serif" font-size="14.00">jogos</text>
</g>
<!-- 0&#45;&gt;9 -->
<g id="edge9" class="edge">
<title>0&#45;&gt;9</title>
<path fill="none" stroke="black" d="M1217.25,-103.81C1156.77,-102.85 1006.28,-97.53 884.3,-69 850.46,-61.09 813.62,-46.45 787.65,-35.05"/>
<polygon fill="black" stroke="black" points="788.82,-31.74 778.26,-30.86 785.97,-38.13 788.82,-31.74"/>
<text text-anchor="middle" x="897.8" y="-57.8" font-family="Times,serif" font-size="14.00">dep</text>
</g>
<!-- 10 -->
<g id="node11" class="node">
<title>10</title>
<ellipse fill="none" stroke="black" cx="833.3" cy="-18" rx="27" ry="18"/>
<text text-anchor="middle" x="833.3" y="-14.3" font-family="Times,serif" font-size="14.00">de</text>
</g>
<!-- 0&#45;&gt;10 -->
<g id="edge10" class="edge">
<title>0&#45;&gt;10</title>
<path fill="none" stroke="black" d="M1217.33,-102.52C1167.01,-99.33 1055.65,-90.33 964.3,-69 920.77,-58.84 910.67,-52.9 869.3,-36 867.47,-35.26 865.61,-34.47 863.74,-33.65"/>
<polygon fill="black" stroke="black" points="865,-30.38 854.45,-29.45 862.12,-36.76 865,-30.38"/>
<text text-anchor="middle" x="977.8" y="-57.8" font-family="Times,serif" font-size="14.00">dep</text>
</g>
<!-- 11 -->
<g id="node12" class="node">
<title>11</title>
<ellipse fill="none" stroke="black" cx="916.3" cy="-18" rx="37.89" ry="18"/>
<text text-anchor="middle" x="916.3" y="-14.3" font-family="Times,serif" font-size="14.00">poder</text>
</g>
<!-- 0&#45;&gt;11 -->
<g id="edge11" class="edge">
<title>0&#45;&gt;11</title>
<path fill="none" stroke="black" d="M1217.79,-101.55C1177.68,-97.4 1099.43,-87.57 1035.3,-69 1005.97,-60.51 974.16,-46.9 950.81,-36.02"/>
<polygon fill="black" stroke="black" points="952.21,-32.81 941.67,-31.7 949.21,-39.13 952.21,-32.81"/>
<text text-anchor="middle" x="1048.8" y="-57.8" font-family="Times,serif" font-size="14.00">dep</text>
</g>
<!-- 12 -->
<g id="node13" class="node">
<title>12</title>
<ellipse fill="none" stroke="black" cx="999.3" cy="-18" rx="27" ry="18"/>
<text text-anchor="middle" x="999.3" y="-14.3" font-family="Times,serif" font-size="14.00">»</text>
</g>
<!-- 0&#45;&gt;12 -->
<g id="edge12" class="edge">
<title>0&#45;&gt;12</title>
<path fill="none" stroke="black" d="M1218.56,-99.53C1189.35,-94.05 1140.55,-83.65 1100.3,-69 1075.06,-59.81 1047.85,-46.11 1028.04,-35.36"/>
<polygon fill="black" stroke="black" points="1029.67,-32.27 1019.22,-30.51 1026.29,-38.4 1029.67,-32.27"/>
<text text-anchor="middle" x="1113.8" y="-57.8" font-family="Times,serif" font-size="14.00">dep</text>
</g>
<!-- 13 -->
<g id="node14" class="node">
<title>13</title>
<ellipse fill="none" stroke="black" cx="1071.3" cy="-18" rx="27" ry="18"/>
<text text-anchor="middle" x="1071.3" y="-14.3" font-family="Times,serif" font-size="14.00">,</text>
</g>
<!-- 0&#45;&gt;13 -->
<g id="edge13" class="edge">
<title>0&#45;&gt;13</title>
<path fill="none" stroke="black" d="M1221,-95.67C1203.25,-89.08 1178.36,-79.29 1157.3,-69 1137.26,-59.21 1115.57,-46.58 1098.98,-36.46"/>
<polygon fill="black" stroke="black" points="1100.68,-33.4 1090.33,-31.13 1097.01,-39.36 1100.68,-33.4"/>
<text text-anchor="middle" x="1170.8" y="-57.8" font-family="Times,serif" font-size="14.00">dep</text>
</g>
<!-- 14 -->
<g id="node15" class="node">
<title>14</title>
<ellipse fill="none" stroke="black" cx="1143.3" cy="-18" rx="27" ry="18"/>
<text text-anchor="middle" x="1143.3" y="-14.3" font-family="Times,serif" font-size="14.00">é</text>
</g>
<!-- 0&#45;&gt;14 -->
<g id="edge14" class="edge">
<title>0&#45;&gt;14</title>
<path fill="none" stroke="black" d="M1228.07,-90.34C1211.65,-76.53 1186.08,-55.01 1167.31,-39.21"/>
<polygon fill="black" stroke="black" points="1169.39,-36.38 1159.48,-32.62 1164.88,-41.74 1169.39,-36.38"/>
<text text-anchor="middle" x="1213.8" y="-57.8" font-family="Times,serif" font-size="14.00">dep</text>
</g>
<!-- 15 -->
<g id="node16" class="node">
<title>15</title>
<ellipse fill="none" stroke="black" cx="1244.3" cy="-18" rx="55.79" ry="18"/>
<text text-anchor="middle" x="1244.3" y="-14.3" font-family="Times,serif" font-size="14.00">conseguir</text>
</g>
<!-- 0&#45;&gt;15 -->
<g id="edge15" class="edge">
<title>0&#45;&gt;15</title>
<path fill="none" stroke="black" d="M1244.3,-86.8C1244.3,-75.16 1244.3,-59.55 1244.3,-46.24"/>
<polygon fill="black" stroke="black" points="1247.8,-46.18 1244.3,-36.18 1240.8,-46.18 1247.8,-46.18"/>
<text text-anchor="middle" x="1257.8" y="-57.8" font-family="Times,serif" font-size="14.00">dep</text>
</g>
<!-- 16 -->
<g id="node17" class="node">
<title>16</title>
<ellipse fill="none" stroke="black" cx="1354.3" cy="-18" rx="36.29" ry="18"/>
<text text-anchor="middle" x="1354.3" y="-14.3" font-family="Times,serif" font-size="14.00">saber</text>
</g>
<!-- 0&#45;&gt;16 -->
<g id="edge16" class="edge">
<title>0&#45;&gt;16</title>
<path fill="none" stroke="black" d="M1261.48,-90.72C1279.11,-77.09 1306.79,-55.7 1327.34,-39.83"/>
<polygon fill="black" stroke="black" points="1329.61,-42.5 1335.39,-33.61 1325.33,-36.96 1329.61,-42.5"/>
<text text-anchor="middle" x="1319.8" y="-57.8" font-family="Times,serif" font-size="14.00">dep</text>
</g>
<!-- 17 -->
<g id="node18" class="node">
<title>17</title>
<ellipse fill="none" stroke="black" cx="1445.3" cy="-18" rx="36.29" ry="18"/>
<text text-anchor="middle" x="1445.3" y="-14.3" font-family="Times,serif" font-size="14.00">quem</text>
</g>
<!-- 0&#45;&gt;17 -->
<g id="edge17" class="edge">
<title>0&#45;&gt;17</title>
<path fill="none" stroke="black" d="M1267.8,-95.7C1286.71,-88.89 1313.91,-78.8 1337.3,-69 1362.25,-58.54 1389.93,-45.7 1411.02,-35.65"/>
<polygon fill="black" stroke="black" points="1412.71,-38.73 1420.22,-31.25 1409.69,-32.41 1412.71,-38.73"/>
<text text-anchor="middle" x="1383.8" y="-57.8" font-family="Times,serif" font-size="14.00">dep</text>
</g>
<!-- 18 -->
<g id="node19" class="node">
<title>18</title>
<ellipse fill="none" stroke="black" cx="1530.3" cy="-18" rx="30.59" ry="18"/>
<text text-anchor="middle" x="1530.3" y="-14.3" font-family="Times,serif" font-size="14.00">está</text>
</g>
<!-- 0&#45;&gt;18 -->
<g id="edge18" class="edge">
<title>0&#45;&gt;18</title>
<path fill="none" stroke="black" d="M1270.13,-99.36C1301.47,-93.47 1355.77,-82.45 1401.3,-69 1441.75,-57.05 1451.09,-51.59 1490.3,-36 1492.48,-35.13 1494.73,-34.22 1497,-33.29"/>
<polygon fill="black" stroke="black" points="1498.37,-36.51 1506.26,-29.43 1495.68,-30.05 1498.37,-36.51"/>
<text text-anchor="middle" x="1458.8" y="-57.8" font-family="Times,serif" font-size="14.00">dep</text>
</g>
<!-- 19 -->
<g id="node20" class="node">
<title>19</title>
<ellipse fill="none" stroke="black" cx="1634.3" cy="-18" rx="55.49" ry="18"/>
<text text-anchor="middle" x="1634.3" y="-14.3" font-family="Times,serif" font-size="14.00">envolvido</text>
</g>
<!-- 0&#45;&gt;19 -->
<g id="edge19" class="edge">
<title>0&#45;&gt;19</title>
<path fill="none" stroke="black" d="M1270.99,-101.35C1314.42,-96.73 1402.89,-86.04 1476.3,-69 1514.99,-60.02 1557.9,-46.18 1589.23,-35.34"/>
<polygon fill="black" stroke="black" points="1590.68,-38.54 1598.97,-31.93 1588.37,-31.93 1590.68,-38.54"/>
<text text-anchor="middle" x="1542.8" y="-57.8" font-family="Times,serif" font-size="14.00">dep</text>
</g>
<!-- 20 -->
<g id="node21" class="node">
<title>20</title>
<ellipse fill="none" stroke="black" cx="1734.3" cy="-18" rx="27" ry="18"/>
<text text-anchor="middle" x="1734.3" y="-14.3" font-family="Times,serif" font-size="14.00">e</text>
</g>
<!-- 0&#45;&gt;20 -->
<g id="edge20" class="edge">
<title>0&#45;&gt;20</title>
<path fill="none" stroke="black" d="M1271.09,-102.16C1325.76,-98.17 1453.99,-87.52 1560.3,-69 1622.42,-58.17 1638.8,-56.91 1698.3,-36 1700.2,-35.33 1702.14,-34.59 1704.09,-33.81"/>
<polygon fill="black" stroke="black" points="1705.89,-36.84 1713.66,-29.63 1703.1,-30.42 1705.89,-36.84"/>
<text text-anchor="middle" x="1653.8" y="-57.8" font-family="Times,serif" font-size="14.00">dep</text>
</g>
<!-- 21 -->
<g id="node22" class="node">
<title>21</title>
<ellipse fill="none" stroke="black" cx="1812.3" cy="-18" rx="33.29" ry="18"/>
<text text-anchor="middle" x="1812.3" y="-14.3" font-family="Times,serif" font-size="14.00">onde</text>
</g>
<!-- 0&#45;&gt;21 -->
<g id="edge21" class="edge">
<title>0&#45;&gt;21</title>
<path fill="none" stroke="black" d="M1271.59,-104.02C1339.75,-103.58 1522.64,-99.41 1671.3,-69 1708.97,-61.29 1750.22,-45.78 1778.32,-34.06"/>
<polygon fill="black" stroke="black" points="1779.84,-37.22 1787.68,-30.1 1777.11,-30.78 1779.84,-37.22"/>
<text text-anchor="middle" x="1736.8" y="-57.8" font-family="Times,serif" font-size="14.00">dep</text>
</g>
<!-- 22 -->
<g id="node23" class="node">
<title>22</title>
<ellipse fill="none" stroke="black" cx="1894.3" cy="-18" rx="30.59" ry="18"/>
<text text-anchor="middle" x="1894.3" y="-14.3" font-family="Times,serif" font-size="14.00">está</text>
</g>
<!-- 0&#45;&gt;22 -->
<g id="edge22" class="edge">
<title>0&#45;&gt;22</title>
<path fill="none" stroke="black" d="M1271.42,-104.51C1348.07,-105.43 1572.49,-104.65 1754.3,-69 1792.13,-61.58 1833.48,-45.79 1861.36,-33.93"/>
<polygon fill="black" stroke="black" points="1862.85,-37.1 1870.63,-29.92 1860.07,-30.68 1862.85,-37.1"/>
<text text-anchor="middle" x="1819.8" y="-57.8" font-family="Times,serif" font-size="14.00">dep</text>
</g>
<!-- 23 -->
<g id="node24" class="node">
<title>23</title>
<ellipse fill="none" stroke="black" cx="1970.3" cy="-18" rx="27" ry="18"/>
<text text-anchor="middle" x="1970.3" y="-14.3" font-family="Times,serif" font-size="14.00">a</text>
</g>
<!-- 0&#45;&gt;23 -->
<g id="edge23" class="edge">
<title>0&#45;&gt;23</title>
<path fill="none" stroke="black" d="M1271.28,-103.37C1372.1,-100.87 1726.6,-90.68 1837.3,-69 1873.95,-61.82 1913.77,-45.64 1940.19,-33.62"/>
<polygon fill="black" stroke="black" points="1941.68,-36.79 1949.28,-29.41 1938.74,-30.44 1941.68,-36.79"/>
<text text-anchor="middle" x="1903.8" y="-57.8" font-family="Times,serif" font-size="14.00">dep</text>
</g>
<!-- 24 -->
<g id="node25" class="node">
<title>24</title>
<ellipse fill="none" stroke="black" cx="2049.3" cy="-18" rx="34.39" ry="18"/>
<text text-anchor="middle" x="2049.3" y="-14.3" font-family="Times,serif" font-size="14.00">força</text>
</g>
<!-- 0&#45;&gt;24 -->
<g id="edge24" class="edge">
<title>0&#45;&gt;24</title>
<path fill="none" stroke="black" d="M1271.29,-103.75C1381.05,-102.55 1793.99,-96.27 1921.3,-69 1954.6,-61.87 1990.56,-47.14 2015.87,-35.51"/>
<polygon fill="black" stroke="black" points="2017.44,-38.63 2025.01,-31.22 2014.47,-32.3 2017.44,-38.63"/>
<text text-anchor="middle" x="1981.8" y="-57.8" font-family="Times,serif" font-size="14.00">dep</text>
</g>
<!-- 25 -->
<g id="node26" class="node">
<title>25</title>
<ellipse fill="none" stroke="black" cx="2128.3" cy="-18" rx="27" ry="18"/>
<text text-anchor="middle" x="2128.3" y="-14.3" font-family="Times,serif" font-size="14.00">em</text>
</g>
<!-- 0&#45;&gt;25 -->
<g id="edge25" class="edge">
<title>0&#45;&gt;25</title>
<path fill="none" stroke="black" d="M1271.54,-103.81C1389.38,-102.82 1855.72,-97.16 1999.3,-69 2034.62,-62.07 2072.79,-46.12 2098.37,-34.09"/>
<polygon fill="black" stroke="black" points="2100.03,-37.17 2107.53,-29.69 2097,-30.86 2100.03,-37.17"/>
<text text-anchor="middle" x="2063.8" y="-57.8" font-family="Times,serif" font-size="14.00">dep</text>
</g>
<!-- 26 -->
<g id="node27" class="node">
<title>26</title>
<ellipse fill="none" stroke="black" cx="2205.3" cy="-18" rx="32.49" ry="18"/>
<text text-anchor="middle" x="2205.3" y="-14.3" font-family="Times,serif" font-size="14.00">cada</text>
</g>
<!-- 0&#45;&gt;26 -->
<g id="edge26" class="edge">
<title>0&#45;&gt;26</title>
<path fill="none" stroke="black" d="M1271.52,-104.09C1397.14,-104.3 1921.45,-103.09 2081.3,-69 2113.76,-62.08 2148.65,-47.28 2173.13,-35.58"/>
<polygon fill="black" stroke="black" points="2174.84,-38.63 2182.29,-31.1 2171.77,-32.34 2174.84,-38.63"/>
<text text-anchor="middle" x="2144.8" y="-57.8" font-family="Times,serif" font-size="14.00">dep</text>
</g>
<!-- 27 -->
<g id="node28" class="node">
<title>27</title>
<ellipse fill="none" stroke="black" cx="2305.3" cy="-18" rx="49.29" ry="18"/>
<text text-anchor="middle" x="2305.3" y="-14.3" font-family="Times,serif" font-size="14.00">situação</text>
</g>
<!-- 0&#45;&gt;27 -->
<g id="edge27" class="edge">
<title>0&#45;&gt;27</title>
<path fill="none" stroke="black" d="M1271.42,-104.05C1404.06,-104.14 1985.02,-102.58 2162.3,-69 2198.35,-62.17 2237.59,-47.93 2265.83,-36.39"/>
<polygon fill="black" stroke="black" points="2267.45,-39.5 2275.34,-32.43 2264.76,-33.04 2267.45,-39.5"/>
<text text-anchor="middle" x="2228.8" y="-57.8" font-family="Times,serif" font-size="14.00">dep</text>
</g>
<!-- 28 -->
<g id="node29" class="node">
<title>28</title>
<ellipse fill="none" stroke="black" cx="2423.3" cy="-18" rx="50.89" ry="18"/>
<text text-anchor="middle" x="2423.3" y="-14.3" font-family="Times,serif" font-size="14.00">concreta</text>
</g>
<!-- 0&#45;&gt;28 -->
<g id="edge28" class="edge">
<title>0&#45;&gt;28</title>
<path fill="none" stroke="black" d="M1271.51,-103.93C1411.42,-103.44 2050.67,-99.55 2246.3,-69 2292.58,-61.77 2343.95,-46.41 2379.37,-34.61"/>
<polygon fill="black" stroke="black" points="2380.56,-37.9 2388.92,-31.38 2378.32,-31.26 2380.56,-37.9"/>
<text text-anchor="middle" x="2324.8" y="-57.8" font-family="Times,serif" font-size="14.00">dep</text>
</g>
<!-- 29 -->
<g id="node30" class="node">
<title>29</title>
<ellipse fill="none" stroke="black" cx="2519.3" cy="-18" rx="27" ry="18"/>
<text text-anchor="middle" x="2519.3" y="-14.3" font-family="Times,serif" font-size="14.00">.</text>
</g>
<!-- 0&#45;&gt;29 -->
<g id="edge29" class="edge">
<title>0&#45;&gt;29</title>
<path fill="none" stroke="black" d="M1271.62,-103.86C1419.57,-103.01 2126.02,-97.47 2342.3,-69 2406.1,-60.6 2422.52,-57.19 2483.3,-36 2485.2,-35.33 2487.15,-34.6 2489.09,-33.82"/>
<polygon fill="black" stroke="black" points="2490.89,-36.85 2498.67,-29.65 2488.1,-30.43 2490.89,-36.85"/>
<text text-anchor="middle" x="2439.8" y="-57.8" font-family="Times,serif" font-size="14.00">dep</text>
</g>
</g>
</svg>
