<?xml version="1.0" encoding="UTF-8" standalone="no"?>
<!DOCTYPE svg PUBLIC "-//W3C//DTD SVG 1.1//EN"
 "http://www.w3.org/Graphics/SVG/1.1/DTD/svg11.dtd">
<!-- Generated by graphviz version 2.42.4 (0)
 -->
<!-- Pages: 1 -->
<svg width="6136pt" height="131pt"
 viewBox="0.00 0.00 6136.00 131.00" xmlns="http://www.w3.org/2000/svg" xmlns:xlink="http://www.w3.org/1999/xlink">
<g id="graph0" class="graph" transform="scale(1 1) rotate(0) translate(4 127)">
<polygon fill="white" stroke="transparent" points="-4,4 -4,-127 6132,-127 6132,4 -4,4"/>
<!-- 0 -->
<g id="node1" class="node">
<title>0</title>
<ellipse fill="none" stroke="black" cx="3018" cy="-105" rx="40.09" ry="18"/>
<text text-anchor="middle" x="3018" y="-101.3" font-family="Times,serif" font-size="14.00">Iniciar</text>
</g>
<!-- 1 -->
<g id="node2" class="node">
<title>1</title>
<ellipse fill="none" stroke="black" cx="27" cy="-18" rx="27" ry="18"/>
<text text-anchor="middle" x="27" y="-14.3" font-family="Times,serif" font-size="14.00">a</text>
</g>
<!-- 0&#45;&gt;1 -->
<g id="edge1" class="edge">
<title>0&#45;&gt;1</title>
<path fill="none" stroke="black" d="M2977.63,-103.95C2655.94,-103.45 513.06,-99.03 228,-69 153.63,-61.16 134.01,-59.47 63,-36 61.08,-35.37 59.13,-34.65 57.18,-33.89"/>
<polygon fill="black" stroke="black" points="58.16,-30.5 47.59,-29.77 55.39,-36.93 58.16,-30.5"/>
<text text-anchor="middle" x="241.5" y="-57.8" font-family="Times,serif" font-size="14.00">dep</text>
</g>
<!-- 2 -->
<g id="node3" class="node">
<title>2</title>
<ellipse fill="none" stroke="black" cx="143" cy="-18" rx="71.49" ry="18"/>
<text text-anchor="middle" x="143" y="-14.3" font-family="Times,serif" font-size="14.00">programação</text>
</g>
<!-- 0&#45;&gt;2 -->
<g id="edge2" class="edge">
<title>0&#45;&gt;2</title>
<path fill="none" stroke="black" d="M2977.39,-104.07C2661.79,-104.53 605.83,-106.11 333,-69 284.91,-62.46 231.58,-47.74 193.7,-35.96"/>
<polygon fill="black" stroke="black" points="194.51,-32.55 183.92,-32.88 192.41,-39.22 194.51,-32.55"/>
<text text-anchor="middle" x="346.5" y="-57.8" font-family="Times,serif" font-size="14.00">dep</text>
</g>
<!-- 3 -->
<g id="node4" class="node">
<title>3</title>
<ellipse fill="none" stroke="black" cx="278" cy="-18" rx="45.49" ry="18"/>
<text text-anchor="middle" x="278" y="-14.3" font-family="Times,serif" font-size="14.00">através</text>
</g>
<!-- 0&#45;&gt;3 -->
<g id="edge3" class="edge">
<title>0&#45;&gt;3</title>
<path fill="none" stroke="black" d="M2977.6,-103.83C2658.26,-102.46 550.35,-92.51 419,-69 382.87,-62.53 343.65,-47.97 315.77,-36.21"/>
<polygon fill="black" stroke="black" points="316.98,-32.92 306.41,-32.19 314.22,-39.35 316.98,-32.92"/>
<text text-anchor="middle" x="432.5" y="-57.8" font-family="Times,serif" font-size="14.00">dep</text>
</g>
<!-- 4 -->
<g id="node5" class="node">
<title>4</title>
<ellipse fill="none" stroke="black" cx="368" cy="-18" rx="27" ry="18"/>
<text text-anchor="middle" x="368" y="-14.3" font-family="Times,serif" font-size="14.00">de</text>
</g>
<!-- 0&#45;&gt;4 -->
<g id="edge4" class="edge">
<title>0&#45;&gt;4</title>
<path fill="none" stroke="black" d="M2977.67,-103.79C2664.53,-102.13 630.14,-90.54 503,-69 465.47,-62.64 424.82,-46.15 398.04,-33.84"/>
<polygon fill="black" stroke="black" points="399.37,-30.6 388.83,-29.52 396.39,-36.93 399.37,-30.6"/>
<text text-anchor="middle" x="516.5" y="-57.8" font-family="Times,serif" font-size="14.00">dep</text>
</g>
<!-- 5 -->
<g id="node6" class="node">
<title>5</title>
<ellipse fill="none" stroke="black" cx="440" cy="-18" rx="27" ry="18"/>
<text text-anchor="middle" x="440" y="-14.3" font-family="Times,serif" font-size="14.00">a</text>
</g>
<!-- 0&#45;&gt;5 -->
<g id="edge5" class="edge">
<title>0&#45;&gt;5</title>
<path fill="none" stroke="black" d="M2977.68,-103.91C2683.07,-103.18 866.67,-97.52 624,-69 557.07,-61.13 539.75,-57.86 476,-36 474.09,-35.34 472.14,-34.62 470.2,-33.84"/>
<polygon fill="black" stroke="black" points="471.18,-30.45 460.61,-29.69 468.4,-36.88 471.18,-30.45"/>
<text text-anchor="middle" x="637.5" y="-57.8" font-family="Times,serif" font-size="14.00">dep</text>
</g>
<!-- 6 -->
<g id="node7" class="node">
<title>6</title>
<ellipse fill="none" stroke="black" cx="558" cy="-18" rx="72.59" ry="18"/>
<text text-anchor="middle" x="558" y="-14.3" font-family="Times,serif" font-size="14.00">apresentação</text>
</g>
<!-- 0&#45;&gt;6 -->
<g id="edge6" class="edge">
<title>0&#45;&gt;6</title>
<path fill="none" stroke="black" d="M2977.39,-104.09C2688.43,-104.63 948.36,-106.32 717,-69 677.95,-62.7 635.26,-48.87 603.96,-37.35"/>
<polygon fill="black" stroke="black" points="604.81,-33.93 594.22,-33.7 602.36,-40.49 604.81,-33.93"/>
<text text-anchor="middle" x="730.5" y="-57.8" font-family="Times,serif" font-size="14.00">dep</text>
</g>
<!-- 7 -->
<g id="node8" class="node">
<title>7</title>
<ellipse fill="none" stroke="black" cx="676" cy="-18" rx="27" ry="18"/>
<text text-anchor="middle" x="676" y="-14.3" font-family="Times,serif" font-size="14.00">de</text>
</g>
<!-- 0&#45;&gt;7 -->
<g id="edge7" class="edge">
<title>0&#45;&gt;7</title>
<path fill="none" stroke="black" d="M2977.36,-103.78C2684.6,-102.12 906.13,-91.19 795,-69 762.74,-62.56 728.36,-47.07 704.89,-35.02"/>
<polygon fill="black" stroke="black" points="706.32,-31.82 695.84,-30.27 703.07,-38.02 706.32,-31.82"/>
<text text-anchor="middle" x="808.5" y="-57.8" font-family="Times,serif" font-size="14.00">dep</text>
</g>
<!-- 8 -->
<g id="node9" class="node">
<title>8</title>
<ellipse fill="none" stroke="black" cx="748" cy="-18" rx="27" ry="18"/>
<text text-anchor="middle" x="748" y="-14.3" font-family="Times,serif" font-size="14.00">a</text>
</g>
<!-- 0&#45;&gt;8 -->
<g id="edge8" class="edge">
<title>0&#45;&gt;8</title>
<path fill="none" stroke="black" d="M2977.58,-104.13C2700.89,-104.89 1090.9,-107.63 877,-69 841.58,-62.6 803.42,-46.56 777.87,-34.36"/>
<polygon fill="black" stroke="black" points="779.25,-31.14 768.73,-29.9 776.18,-37.43 779.25,-31.14"/>
<text text-anchor="middle" x="890.5" y="-57.8" font-family="Times,serif" font-size="14.00">dep</text>
</g>
<!-- 9 -->
<g id="node10" class="node">
<title>9</title>
<ellipse fill="none" stroke="black" cx="825" cy="-18" rx="31.7" ry="18"/>
<text text-anchor="middle" x="825" y="-14.3" font-family="Times,serif" font-size="14.00">obra</text>
</g>
<!-- 0&#45;&gt;9 -->
<g id="edge9" class="edge">
<title>0&#45;&gt;9</title>
<path fill="none" stroke="black" d="M2977.45,-104.08C2706.74,-104.52 1166.18,-105.42 961,-69 924.38,-62.5 884.7,-46.83 857.7,-34.75"/>
<polygon fill="black" stroke="black" points="858.91,-31.46 848.36,-30.49 856.01,-37.82 858.91,-31.46"/>
<text text-anchor="middle" x="974.5" y="-57.8" font-family="Times,serif" font-size="14.00">dep</text>
</g>
<!-- 10 -->
<g id="node11" class="node">
<title>10</title>
<ellipse fill="none" stroke="black" cx="902" cy="-18" rx="27" ry="18"/>
<text text-anchor="middle" x="902" y="-14.3" font-family="Times,serif" font-size="14.00">de</text>
</g>
<!-- 0&#45;&gt;10 -->
<g id="edge10" class="edge">
<title>0&#45;&gt;10</title>
<path fill="none" stroke="black" d="M2977.44,-103.85C2714.88,-102.79 1260.5,-95.77 1065,-69 1007.22,-61.09 992.83,-55.87 938,-36 936.15,-35.33 934.26,-34.6 932.37,-33.82"/>
<polygon fill="black" stroke="black" points="933.6,-30.54 923.04,-29.74 930.8,-36.96 933.6,-30.54"/>
<text text-anchor="middle" x="1078.5" y="-57.8" font-family="Times,serif" font-size="14.00">dep</text>
</g>
<!-- 11 -->
<g id="node12" class="node">
<title>11</title>
<ellipse fill="none" stroke="black" cx="994" cy="-18" rx="46.59" ry="18"/>
<text text-anchor="middle" x="994" y="-14.3" font-family="Times,serif" font-size="14.00">Adriana</text>
</g>
<!-- 0&#45;&gt;11 -->
<g id="edge11" class="edge">
<title>0&#45;&gt;11</title>
<path fill="none" stroke="black" d="M2977.77,-103.9C2723.59,-103.18 1345.08,-97.95 1160,-69 1116.48,-62.19 1068.46,-46.83 1035.32,-34.91"/>
<polygon fill="black" stroke="black" points="1036.12,-31.48 1025.53,-31.34 1033.72,-38.06 1036.12,-31.48"/>
<text text-anchor="middle" x="1173.5" y="-57.8" font-family="Times,serif" font-size="14.00">dep</text>
</g>
<!-- 12 -->
<g id="node13" class="node">
<title>12</title>
<ellipse fill="none" stroke="black" cx="1104" cy="-18" rx="45.49" ry="18"/>
<text text-anchor="middle" x="1104" y="-14.3" font-family="Times,serif" font-size="14.00">Varejão</text>
</g>
<!-- 0&#45;&gt;12 -->
<g id="edge12" class="edge">
<title>0&#45;&gt;12</title>
<path fill="none" stroke="black" d="M2977.63,-103.97C2730.01,-103.7 1421.33,-100.75 1246,-69 1209.65,-62.42 1170.16,-47.86 1142.07,-36.15"/>
<polygon fill="black" stroke="black" points="1143.2,-32.83 1132.63,-32.14 1140.47,-39.27 1143.2,-32.83"/>
<text text-anchor="middle" x="1259.5" y="-57.8" font-family="Times,serif" font-size="14.00">dep</text>
</g>
<!-- 13 -->
<g id="node14" class="node">
<title>13</title>
<ellipse fill="none" stroke="black" cx="1194" cy="-18" rx="27" ry="18"/>
<text text-anchor="middle" x="1194" y="-14.3" font-family="Times,serif" font-size="14.00">é</text>
</g>
<!-- 0&#45;&gt;13 -->
<g id="edge13" class="edge">
<title>0&#45;&gt;13</title>
<path fill="none" stroke="black" d="M2977.77,-103.84C2738.04,-102.79 1502.48,-96.09 1336,-69 1287.3,-61.08 1275.98,-53.91 1230,-36 1228.16,-35.28 1226.29,-34.52 1224.41,-33.72"/>
<polygon fill="black" stroke="black" points="1225.66,-30.45 1215.11,-29.57 1222.81,-36.84 1225.66,-30.45"/>
<text text-anchor="middle" x="1349.5" y="-57.8" font-family="Times,serif" font-size="14.00">dep</text>
</g>
<!-- 14 -->
<g id="node15" class="node">
<title>14</title>
<ellipse fill="none" stroke="black" cx="1270" cy="-18" rx="30.59" ry="18"/>
<text text-anchor="middle" x="1270" y="-14.3" font-family="Times,serif" font-size="14.00">uma</text>
</g>
<!-- 0&#45;&gt;14 -->
<g id="edge14" class="edge">
<title>0&#45;&gt;14</title>
<path fill="none" stroke="black" d="M2977.79,-103.63C2747.41,-101.43 1599.9,-89.54 1444,-69 1382.76,-60.93 1367.53,-55.75 1309,-36 1306.9,-35.29 1304.75,-34.51 1302.6,-33.69"/>
<polygon fill="black" stroke="black" points="1303.84,-30.42 1293.26,-29.91 1301.21,-36.91 1303.84,-30.42"/>
<text text-anchor="middle" x="1457.5" y="-57.8" font-family="Times,serif" font-size="14.00">dep</text>
</g>
<!-- 15 -->
<g id="node16" class="node">
<title>15</title>
<ellipse fill="none" stroke="black" cx="1356" cy="-18" rx="37.89" ry="18"/>
<text text-anchor="middle" x="1356" y="-14.3" font-family="Times,serif" font-size="14.00">opção</text>
</g>
<!-- 0&#45;&gt;15 -->
<g id="edge15" class="edge">
<title>0&#45;&gt;15</title>
<path fill="none" stroke="black" d="M2977.56,-103.92C2773.83,-103.36 1858.62,-99.18 1576,-69 1498.17,-60.69 1478.49,-56.71 1403,-36 1400.08,-35.2 1397.09,-34.3 1394.09,-33.35"/>
<polygon fill="black" stroke="black" points="1395.19,-30.03 1384.6,-30.16 1392.97,-36.66 1395.19,-30.03"/>
<text text-anchor="middle" x="1589.5" y="-57.8" font-family="Times,serif" font-size="14.00">dep</text>
</g>
<!-- 16 -->
<g id="node17" class="node">
<title>16</title>
<ellipse fill="none" stroke="black" cx="1486" cy="-18" rx="74.19" ry="18"/>
<text text-anchor="middle" x="1486" y="-14.3" font-family="Times,serif" font-size="14.00">politicamente</text>
</g>
<!-- 0&#45;&gt;16 -->
<g id="edge16" class="edge">
<title>0&#45;&gt;16</title>
<path fill="none" stroke="black" d="M2977.7,-104.14C2783.52,-104.64 1943.21,-104.68 1684,-69 1633.81,-62.09 1577.96,-47.32 1538.41,-35.61"/>
<polygon fill="black" stroke="black" points="1539.3,-32.22 1528.72,-32.71 1537.29,-38.93 1539.3,-32.22"/>
<text text-anchor="middle" x="1697.5" y="-57.8" font-family="Times,serif" font-size="14.00">dep</text>
</g>
<!-- 17 -->
<g id="node18" class="node">
<title>17</title>
<ellipse fill="none" stroke="black" cx="1626" cy="-18" rx="47.39" ry="18"/>
<text text-anchor="middle" x="1626" y="-14.3" font-family="Times,serif" font-size="14.00">perfeita</text>
</g>
<!-- 0&#45;&gt;17 -->
<g id="edge17" class="edge">
<title>0&#45;&gt;17</title>
<path fill="none" stroke="black" d="M2977.61,-103.59C2776.92,-101.48 1891.79,-90.99 1771,-69 1733.93,-62.25 1693.54,-47.69 1664.82,-36.01"/>
<polygon fill="black" stroke="black" points="1666.13,-32.76 1655.55,-32.17 1663.46,-39.23 1666.13,-32.76"/>
<text text-anchor="middle" x="1784.5" y="-57.8" font-family="Times,serif" font-size="14.00">dep</text>
</g>
<!-- 18 -->
<g id="node19" class="node">
<title>18</title>
<ellipse fill="none" stroke="black" cx="1718" cy="-18" rx="27" ry="18"/>
<text text-anchor="middle" x="1718" y="-14.3" font-family="Times,serif" font-size="14.00">:</text>
</g>
<!-- 0&#45;&gt;18 -->
<g id="edge18" class="edge">
<title>0&#45;&gt;18</title>
<path fill="none" stroke="black" d="M2977.54,-104.22C2799.33,-104.95 2083.39,-105.5 1862,-69 1812.48,-60.83 1800.81,-54.1 1754,-36 1752.16,-35.29 1750.29,-34.53 1748.41,-33.73"/>
<polygon fill="black" stroke="black" points="1749.66,-30.46 1739.1,-29.59 1746.81,-36.85 1749.66,-30.46"/>
<text text-anchor="middle" x="1875.5" y="-57.8" font-family="Times,serif" font-size="14.00">dep</text>
</g>
<!-- 19 -->
<g id="node20" class="node">
<title>19</title>
<ellipse fill="none" stroke="black" cx="1807" cy="-18" rx="43.59" ry="18"/>
<text text-anchor="middle" x="1807" y="-14.3" font-family="Times,serif" font-size="14.00">porque</text>
</g>
<!-- 0&#45;&gt;19 -->
<g id="edge19" class="edge">
<title>0&#45;&gt;19</title>
<path fill="none" stroke="black" d="M2977.69,-104.33C2807.98,-105.49 2150.95,-107.35 1948,-69 1911.82,-62.16 1872.46,-47.56 1844.55,-35.89"/>
<polygon fill="black" stroke="black" points="1845.75,-32.6 1835.18,-31.91 1843.01,-39.04 1845.75,-32.6"/>
<text text-anchor="middle" x="1961.5" y="-57.8" font-family="Times,serif" font-size="14.00">dep</text>
</g>
<!-- 20 -->
<g id="node21" class="node">
<title>20</title>
<ellipse fill="none" stroke="black" cx="1896" cy="-18" rx="27" ry="18"/>
<text text-anchor="middle" x="1896" y="-14.3" font-family="Times,serif" font-size="14.00">é</text>
</g>
<!-- 0&#45;&gt;20 -->
<g id="edge20" class="edge">
<title>0&#45;&gt;20</title>
<path fill="none" stroke="black" d="M2977.59,-104C2816.82,-103.79 2222.28,-100.82 2037,-69 1988.79,-60.72 1977.56,-53.82 1932,-36 1930.17,-35.28 1928.29,-34.51 1926.41,-33.71"/>
<polygon fill="black" stroke="black" points="1927.67,-30.44 1917.11,-29.56 1924.81,-36.83 1927.67,-30.44"/>
<text text-anchor="middle" x="2050.5" y="-57.8" font-family="Times,serif" font-size="14.00">dep</text>
</g>
<!-- 21 -->
<g id="node22" class="node">
<title>21</title>
<ellipse fill="none" stroke="black" cx="1972" cy="-18" rx="30.59" ry="18"/>
<text text-anchor="middle" x="1972" y="-14.3" font-family="Times,serif" font-size="14.00">uma</text>
</g>
<!-- 0&#45;&gt;21 -->
<g id="edge21" class="edge">
<title>0&#45;&gt;21</title>
<path fill="none" stroke="black" d="M2977.76,-103.49C2828.6,-101.41 2307.41,-92.58 2143,-69 2083.14,-60.41 2068.25,-55.48 2011,-36 2008.9,-35.28 2006.75,-34.5 2004.6,-33.68"/>
<polygon fill="black" stroke="black" points="2005.84,-30.41 1995.26,-29.89 2003.21,-36.89 2005.84,-30.41"/>
<text text-anchor="middle" x="2156.5" y="-57.8" font-family="Times,serif" font-size="14.00">dep</text>
</g>
<!-- 22 -->
<g id="node23" class="node">
<title>22</title>
<ellipse fill="none" stroke="black" cx="2062" cy="-18" rx="41.69" ry="18"/>
<text text-anchor="middle" x="2062" y="-14.3" font-family="Times,serif" font-size="14.00">artista</text>
</g>
<!-- 0&#45;&gt;22 -->
<g id="edge22" class="edge">
<title>0&#45;&gt;22</title>
<path fill="none" stroke="black" d="M2977.8,-103.24C2840.17,-100.47 2388.56,-89.98 2245,-69 2195.25,-61.73 2139.77,-45.35 2103.07,-33.31"/>
<polygon fill="black" stroke="black" points="2103.84,-29.88 2093.24,-30.04 2101.63,-36.52 2103.84,-29.88"/>
<text text-anchor="middle" x="2258.5" y="-57.8" font-family="Times,serif" font-size="14.00">dep</text>
</g>
<!-- 23 -->
<g id="node24" class="node">
<title>23</title>
<ellipse fill="none" stroke="black" cx="2177" cy="-18" rx="55.49" ry="18"/>
<text text-anchor="middle" x="2177" y="-14.3" font-family="Times,serif" font-size="14.00">brasileira</text>
</g>
<!-- 0&#45;&gt;23 -->
<g id="edge23" class="edge">
<title>0&#45;&gt;23</title>
<path fill="none" stroke="black" d="M2977.46,-103.32C2849.79,-100.95 2457.06,-91.95 2332,-69 2293.1,-61.86 2250.44,-47.6 2219.74,-36.13"/>
<polygon fill="black" stroke="black" points="2220.8,-32.79 2210.21,-32.51 2218.32,-39.33 2220.8,-32.79"/>
<text text-anchor="middle" x="2345.5" y="-57.8" font-family="Times,serif" font-size="14.00">dep</text>
</g>
<!-- 24 -->
<g id="node25" class="node">
<title>24</title>
<ellipse fill="none" stroke="black" cx="2277" cy="-18" rx="27" ry="18"/>
<text text-anchor="middle" x="2277" y="-14.3" font-family="Times,serif" font-size="14.00">,</text>
</g>
<!-- 0&#45;&gt;24 -->
<g id="edge24" class="edge">
<title>0&#45;&gt;24</title>
<path fill="none" stroke="black" d="M2977.77,-102.82C2862.37,-99.24 2531.68,-87.61 2425,-69 2373.88,-60.08 2361.5,-54.47 2313,-36 2311.16,-35.3 2309.28,-34.54 2307.4,-33.75"/>
<polygon fill="black" stroke="black" points="2308.64,-30.48 2298.08,-29.62 2305.81,-36.88 2308.64,-30.48"/>
<text text-anchor="middle" x="2438.5" y="-57.8" font-family="Times,serif" font-size="14.00">dep</text>
</g>
<!-- 25 -->
<g id="node26" class="node">
<title>25</title>
<ellipse fill="none" stroke="black" cx="2366" cy="-18" rx="43.59" ry="18"/>
<text text-anchor="middle" x="2366" y="-14.3" font-family="Times,serif" font-size="14.00">porque</text>
</g>
<!-- 0&#45;&gt;25 -->
<g id="edge25" class="edge">
<title>0&#45;&gt;25</title>
<path fill="none" stroke="black" d="M2977.78,-102.66C2873.59,-98.96 2596.79,-87.63 2507,-69 2471.06,-61.54 2431.82,-47.08 2403.89,-35.62"/>
<polygon fill="black" stroke="black" points="2405.08,-32.32 2394.5,-31.71 2402.39,-38.78 2405.08,-32.32"/>
<text text-anchor="middle" x="2520.5" y="-57.8" font-family="Times,serif" font-size="14.00">dep</text>
</g>
<!-- 26 -->
<g id="node27" class="node">
<title>26</title>
<ellipse fill="none" stroke="black" cx="2455" cy="-18" rx="27" ry="18"/>
<text text-anchor="middle" x="2455" y="-14.3" font-family="Times,serif" font-size="14.00">é</text>
</g>
<!-- 0&#45;&gt;26 -->
<g id="edge26" class="edge">
<title>0&#45;&gt;26</title>
<path fill="none" stroke="black" d="M2977.73,-103.76C2901.75,-102.64 2732.38,-96.9 2593,-69 2546.28,-59.65 2535.3,-53.54 2491,-36 2489.17,-35.27 2487.3,-34.5 2485.42,-33.7"/>
<polygon fill="black" stroke="black" points="2486.68,-30.42 2476.12,-29.53 2483.81,-36.81 2486.68,-30.42"/>
<text text-anchor="middle" x="2606.5" y="-57.8" font-family="Times,serif" font-size="14.00">dep</text>
</g>
<!-- 27 -->
<g id="node28" class="node">
<title>27</title>
<ellipse fill="none" stroke="black" cx="2531" cy="-18" rx="30.59" ry="18"/>
<text text-anchor="middle" x="2531" y="-14.3" font-family="Times,serif" font-size="14.00">uma</text>
</g>
<!-- 0&#45;&gt;27 -->
<g id="edge27" class="edge">
<title>0&#45;&gt;27</title>
<path fill="none" stroke="black" d="M2978.07,-102.01C2915.38,-98.4 2790.28,-89.17 2686,-69 2633.37,-58.82 2620.46,-54.08 2570,-36 2567.91,-35.25 2565.77,-34.44 2563.63,-33.6"/>
<polygon fill="black" stroke="black" points="2564.89,-30.33 2554.31,-29.76 2562.22,-36.81 2564.89,-30.33"/>
<text text-anchor="middle" x="2699.5" y="-57.8" font-family="Times,serif" font-size="14.00">dep</text>
</g>
<!-- 28 -->
<g id="node29" class="node">
<title>28</title>
<ellipse fill="none" stroke="black" cx="2621" cy="-18" rx="41.69" ry="18"/>
<text text-anchor="middle" x="2621" y="-14.3" font-family="Times,serif" font-size="14.00">artista</text>
</g>
<!-- 0&#45;&gt;28 -->
<g id="edge28" class="edge">
<title>0&#45;&gt;28</title>
<path fill="none" stroke="black" d="M2978.38,-101C2928.02,-96.64 2838.65,-87 2764,-69 2727.86,-60.29 2688.04,-45.95 2659.62,-34.86"/>
<polygon fill="black" stroke="black" points="2660.65,-31.51 2650.06,-31.09 2658.08,-38.02 2660.65,-31.51"/>
<text text-anchor="middle" x="2777.5" y="-57.8" font-family="Times,serif" font-size="14.00">dep</text>
</g>
<!-- 29 -->
<g id="node30" class="node">
<title>29</title>
<ellipse fill="none" stroke="black" cx="2709" cy="-18" rx="27.9" ry="18"/>
<text text-anchor="middle" x="2709" y="-14.3" font-family="Times,serif" font-size="14.00">que</text>
</g>
<!-- 0&#45;&gt;29 -->
<g id="edge29" class="edge">
<title>0&#45;&gt;29</title>
<path fill="none" stroke="black" d="M2980.91,-97.85C2945.67,-91.69 2891.34,-81.36 2845,-69 2800.19,-57.05 2789.14,-53.04 2746,-36 2744.13,-35.26 2742.21,-34.47 2740.29,-33.66"/>
<polygon fill="black" stroke="black" points="2741.31,-30.29 2730.74,-29.47 2738.49,-36.69 2741.31,-30.29"/>
<text text-anchor="middle" x="2858.5" y="-57.8" font-family="Times,serif" font-size="14.00">dep</text>
</g>
<!-- 30 -->
<g id="node31" class="node">
<title>30</title>
<ellipse fill="none" stroke="black" cx="2800" cy="-18" rx="44.69" ry="18"/>
<text text-anchor="middle" x="2800" y="-14.3" font-family="Times,serif" font-size="14.00">recorre</text>
</g>
<!-- 0&#45;&gt;30 -->
<g id="edge30" class="edge">
<title>0&#45;&gt;30</title>
<path fill="none" stroke="black" d="M2984.73,-94.44C2962.96,-87.91 2934.01,-78.71 2909,-69 2884.26,-59.39 2857.13,-46.96 2836.13,-36.89"/>
<polygon fill="black" stroke="black" points="2837.46,-33.65 2826.94,-32.45 2834.42,-39.95 2837.46,-33.65"/>
<text text-anchor="middle" x="2922.5" y="-57.8" font-family="Times,serif" font-size="14.00">dep</text>
</g>
<!-- 31 -->
<g id="node32" class="node">
<title>31</title>
<ellipse fill="none" stroke="black" cx="2890" cy="-18" rx="27" ry="18"/>
<text text-anchor="middle" x="2890" y="-14.3" font-family="Times,serif" font-size="14.00">(</text>
</g>
<!-- 0&#45;&gt;31 -->
<g id="edge31" class="edge">
<title>0&#45;&gt;31</title>
<path fill="none" stroke="black" d="M2994.77,-90.19C2984.35,-83.88 2971.96,-76.21 2961,-69 2945.81,-59 2929.18,-47.33 2915.83,-37.78"/>
<polygon fill="black" stroke="black" points="2917.75,-34.84 2907.59,-31.85 2913.66,-40.53 2917.75,-34.84"/>
<text text-anchor="middle" x="2974.5" y="-57.8" font-family="Times,serif" font-size="14.00">dep</text>
</g>
<!-- 32 -->
<g id="node33" class="node">
<title>32</title>
<ellipse fill="none" stroke="black" cx="2971" cy="-18" rx="36" ry="18"/>
<text text-anchor="middle" x="2971" y="-14.3" font-family="Times,serif" font-size="14.00">entre</text>
</g>
<!-- 0&#45;&gt;32 -->
<g id="edge32" class="edge">
<title>0&#45;&gt;32</title>
<path fill="none" stroke="black" d="M3008.71,-87.21C3001.98,-75.02 2992.74,-58.32 2985.1,-44.49"/>
<polygon fill="black" stroke="black" points="2988.01,-42.53 2980.11,-35.47 2981.88,-45.91 2988.01,-42.53"/>
<text text-anchor="middle" x="3011.5" y="-57.8" font-family="Times,serif" font-size="14.00">dep</text>
</g>
<!-- 33 -->
<g id="node34" class="node">
<title>33</title>
<ellipse fill="none" stroke="black" cx="3065" cy="-18" rx="40.09" ry="18"/>
<text text-anchor="middle" x="3065" y="-14.3" font-family="Times,serif" font-size="14.00">outros</text>
</g>
<!-- 0&#45;&gt;33 -->
<g id="edge33" class="edge">
<title>0&#45;&gt;33</title>
<path fill="none" stroke="black" d="M3027.29,-87.21C3033.98,-75.1 3043.14,-58.53 3050.76,-44.76"/>
<polygon fill="black" stroke="black" points="3053.96,-46.2 3055.73,-35.76 3047.83,-42.82 3053.96,-46.2"/>
<text text-anchor="middle" x="3058.5" y="-57.8" font-family="Times,serif" font-size="14.00">dep</text>
</g>
<!-- 34 -->
<g id="node35" class="node">
<title>34</title>
<ellipse fill="none" stroke="black" cx="3150" cy="-18" rx="27" ry="18"/>
<text text-anchor="middle" x="3150" y="-14.3" font-family="Times,serif" font-size="14.00">)</text>
</g>
<!-- 0&#45;&gt;34 -->
<g id="edge34" class="edge">
<title>0&#45;&gt;34</title>
<path fill="none" stroke="black" d="M3041.31,-90.3C3051.96,-83.95 3064.7,-76.22 3076,-69 3091.86,-58.86 3109.32,-47.1 3123.3,-37.53"/>
<polygon fill="black" stroke="black" points="3125.67,-40.14 3131.93,-31.59 3121.7,-34.37 3125.67,-40.14"/>
<text text-anchor="middle" x="3112.5" y="-57.8" font-family="Times,serif" font-size="14.00">dep</text>
</g>
<!-- 35 -->
<g id="node36" class="node">
<title>35</title>
<ellipse fill="none" stroke="black" cx="3222" cy="-18" rx="27" ry="18"/>
<text text-anchor="middle" x="3222" y="-14.3" font-family="Times,serif" font-size="14.00">a</text>
</g>
<!-- 0&#45;&gt;35 -->
<g id="edge35" class="edge">
<title>0&#45;&gt;35</title>
<path fill="none" stroke="black" d="M3051.94,-95.26C3074.47,-89 3104.49,-79.8 3130,-69 3152.24,-59.59 3176.17,-46.48 3194.05,-36.05"/>
<polygon fill="black" stroke="black" points="3195.98,-38.97 3202.81,-30.87 3192.42,-32.95 3195.98,-38.97"/>
<text text-anchor="middle" x="3175.5" y="-57.8" font-family="Times,serif" font-size="14.00">dep</text>
</g>
<!-- 36 -->
<g id="node37" class="node">
<title>36</title>
<ellipse fill="none" stroke="black" cx="3294" cy="-18" rx="27" ry="18"/>
<text text-anchor="middle" x="3294" y="-14.3" font-family="Times,serif" font-size="14.00">o</text>
</g>
<!-- 0&#45;&gt;36 -->
<g id="edge36" class="edge">
<title>0&#45;&gt;36</title>
<path fill="none" stroke="black" d="M3056.3,-99.29C3092.27,-94.18 3147.25,-84.6 3193,-69 3218.58,-60.28 3245.96,-46.41 3265.75,-35.49"/>
<polygon fill="black" stroke="black" points="3267.54,-38.5 3274.54,-30.56 3264.11,-32.4 3267.54,-38.5"/>
<text text-anchor="middle" x="3241.5" y="-57.8" font-family="Times,serif" font-size="14.00">dep</text>
</g>
<!-- 37 -->
<g id="node38" class="node">
<title>37</title>
<ellipse fill="none" stroke="black" cx="3397" cy="-18" rx="57.69" ry="18"/>
<text text-anchor="middle" x="3397" y="-14.3" font-family="Times,serif" font-size="14.00">manancial</text>
</g>
<!-- 0&#45;&gt;37 -->
<g id="edge37" class="edge">
<title>0&#45;&gt;37</title>
<path fill="none" stroke="black" d="M3057.29,-100.77C3105.4,-96.25 3189.08,-86.55 3259,-69 3291.91,-60.74 3327.92,-47.55 3354.9,-36.79"/>
<polygon fill="black" stroke="black" points="3356.44,-39.94 3364.41,-32.95 3353.82,-33.44 3356.44,-39.94"/>
<text text-anchor="middle" x="3319.5" y="-57.8" font-family="Times,serif" font-size="14.00">dep</text>
</g>
<!-- 38 -->
<g id="node39" class="node">
<title>38</title>
<ellipse fill="none" stroke="black" cx="3516" cy="-18" rx="43.59" ry="18"/>
<text text-anchor="middle" x="3516" y="-14.3" font-family="Times,serif" font-size="14.00">infinito</text>
</g>
<!-- 0&#45;&gt;38 -->
<g id="edge38" class="edge">
<title>0&#45;&gt;38</title>
<path fill="none" stroke="black" d="M3057.55,-101.51C3118.11,-97.29 3237.27,-87.33 3337,-69 3394.36,-58.46 3408.04,-52.4 3464,-36 3467.14,-35.08 3470.39,-34.1 3473.64,-33.09"/>
<polygon fill="black" stroke="black" points="3474.89,-36.36 3483.36,-30.01 3472.77,-29.69 3474.89,-36.36"/>
<text text-anchor="middle" x="3417.5" y="-57.8" font-family="Times,serif" font-size="14.00">dep</text>
</g>
<!-- 39 -->
<g id="node40" class="node">
<title>39</title>
<ellipse fill="none" stroke="black" cx="3605" cy="-18" rx="27" ry="18"/>
<text text-anchor="middle" x="3605" y="-14.3" font-family="Times,serif" font-size="14.00">de</text>
</g>
<!-- 0&#45;&gt;39 -->
<g id="edge39" class="edge">
<title>0&#45;&gt;39</title>
<path fill="none" stroke="black" d="M3058.22,-102.73C3132.91,-99.91 3297.89,-91.49 3435,-69 3495.53,-59.07 3511.2,-56.53 3569,-36 3570.91,-35.32 3572.84,-34.58 3574.79,-33.79"/>
<polygon fill="black" stroke="black" points="3576.6,-36.82 3584.36,-29.61 3573.79,-30.41 3576.6,-36.82"/>
<text text-anchor="middle" x="3526.5" y="-57.8" font-family="Times,serif" font-size="14.00">dep</text>
</g>
<!-- 40 -->
<g id="node41" class="node">
<title>40</title>
<ellipse fill="none" stroke="black" cx="3677" cy="-18" rx="27" ry="18"/>
<text text-anchor="middle" x="3677" y="-14.3" font-family="Times,serif" font-size="14.00">as</text>
</g>
<!-- 0&#45;&gt;40 -->
<g id="edge40" class="edge">
<title>0&#45;&gt;40</title>
<path fill="none" stroke="black" d="M3058.23,-102.68C3164.53,-98.99 3451.11,-87.56 3544,-69 3580.63,-61.68 3620.45,-45.53 3646.88,-33.55"/>
<polygon fill="black" stroke="black" points="3648.37,-36.72 3655.98,-29.36 3645.43,-30.37 3648.37,-36.72"/>
<text text-anchor="middle" x="3610.5" y="-57.8" font-family="Times,serif" font-size="14.00">dep</text>
</g>
<!-- 41 -->
<g id="node42" class="node">
<title>41</title>
<ellipse fill="none" stroke="black" cx="3772" cy="-18" rx="50.09" ry="18"/>
<text text-anchor="middle" x="3772" y="-14.3" font-family="Times,serif" font-size="14.00">imagens</text>
</g>
<!-- 0&#45;&gt;41 -->
<g id="edge41" class="edge">
<title>0&#45;&gt;41</title>
<path fill="none" stroke="black" d="M3058.16,-103.14C3175.83,-100.41 3518.36,-90.74 3628,-69 3664.11,-61.84 3703.49,-47.7 3731.93,-36.28"/>
<polygon fill="black" stroke="black" points="3733.57,-39.39 3741.51,-32.37 3730.93,-32.91 3733.57,-39.39"/>
<text text-anchor="middle" x="3694.5" y="-57.8" font-family="Times,serif" font-size="14.00">dep</text>
</g>
<!-- 42 -->
<g id="node43" class="node">
<title>42</title>
<ellipse fill="none" stroke="black" cx="3892" cy="-18" rx="51.99" ry="18"/>
<text text-anchor="middle" x="3892" y="-14.3" font-family="Times,serif" font-size="14.00">deixadas</text>
</g>
<!-- 0&#45;&gt;42 -->
<g id="edge42" class="edge">
<title>0&#45;&gt;42</title>
<path fill="none" stroke="black" d="M3058.52,-103.13C3187.09,-100.18 3584.87,-89.57 3712,-69 3758.82,-61.42 3810.9,-46.18 3846.94,-34.51"/>
<polygon fill="black" stroke="black" points="3848.25,-37.76 3856.66,-31.32 3846.07,-31.11 3848.25,-37.76"/>
<text text-anchor="middle" x="3791.5" y="-57.8" font-family="Times,serif" font-size="14.00">dep</text>
</g>
<!-- 43 -->
<g id="node44" class="node">
<title>43</title>
<ellipse fill="none" stroke="black" cx="3989" cy="-18" rx="27" ry="18"/>
<text text-anchor="middle" x="3989" y="-14.3" font-family="Times,serif" font-size="14.00">em</text>
</g>
<!-- 0&#45;&gt;43 -->
<g id="edge43" class="edge">
<title>0&#45;&gt;43</title>
<path fill="none" stroke="black" d="M3058.15,-103.19C3197.76,-100.2 3661.55,-88.99 3809,-69 3874.06,-60.18 3890.95,-57.48 3953,-36 3954.91,-35.34 3956.85,-34.61 3958.8,-33.83"/>
<polygon fill="black" stroke="black" points="3960.6,-36.86 3968.38,-29.67 3957.81,-30.44 3960.6,-36.86"/>
<text text-anchor="middle" x="3908.5" y="-57.8" font-family="Times,serif" font-size="14.00">dep</text>
</g>
<!-- 44 -->
<g id="node45" class="node">
<title>44</title>
<ellipse fill="none" stroke="black" cx="4061" cy="-18" rx="27" ry="18"/>
<text text-anchor="middle" x="4061" y="-14.3" font-family="Times,serif" font-size="14.00">o</text>
</g>
<!-- 0&#45;&gt;44 -->
<g id="edge44" class="edge">
<title>0&#45;&gt;44</title>
<path fill="none" stroke="black" d="M3058.24,-103.96C3211.13,-103.57 3755.86,-99.98 3926,-69 3963.23,-62.22 4003.64,-45.97 4030.45,-33.82"/>
<polygon fill="black" stroke="black" points="4032.07,-36.93 4039.68,-29.56 4029.14,-30.58 4032.07,-36.93"/>
<text text-anchor="middle" x="3993.5" y="-57.8" font-family="Times,serif" font-size="14.00">dep</text>
</g>
<!-- 45 -->
<g id="node46" class="node">
<title>45</title>
<ellipse fill="none" stroke="black" cx="4144" cy="-18" rx="38.19" ry="18"/>
<text text-anchor="middle" x="4144" y="-14.3" font-family="Times,serif" font-size="14.00">Brasil</text>
</g>
<!-- 0&#45;&gt;45 -->
<g id="edge45" class="edge">
<title>0&#45;&gt;45</title>
<path fill="none" stroke="black" d="M3058.4,-104.31C3220.54,-105.31 3824.19,-106.36 4011,-69 4045.47,-62.11 4082.77,-47.39 4109.08,-35.7"/>
<polygon fill="black" stroke="black" points="4110.58,-38.87 4118.25,-31.55 4107.69,-32.49 4110.58,-38.87"/>
<text text-anchor="middle" x="4077.5" y="-57.8" font-family="Times,serif" font-size="14.00">dep</text>
</g>
<!-- 46 -->
<g id="node47" class="node">
<title>46</title>
<ellipse fill="none" stroke="black" cx="4227" cy="-18" rx="27" ry="18"/>
<text text-anchor="middle" x="4227" y="-14.3" font-family="Times,serif" font-size="14.00">por</text>
</g>
<!-- 0&#45;&gt;46 -->
<g id="edge46" class="edge">
<title>0&#45;&gt;46</title>
<path fill="none" stroke="black" d="M3058.27,-104.29C3228.6,-105.29 3890.42,-106.61 4095,-69 4131.33,-62.32 4170.64,-46.17 4196.83,-34.02"/>
<polygon fill="black" stroke="black" points="4198.65,-37.03 4206.19,-29.59 4195.65,-30.7 4198.65,-37.03"/>
<text text-anchor="middle" x="4161.5" y="-57.8" font-family="Times,serif" font-size="14.00">dep</text>
</g>
<!-- 47 -->
<g id="node48" class="node">
<title>47</title>
<ellipse fill="none" stroke="black" cx="4299" cy="-18" rx="27" ry="18"/>
<text text-anchor="middle" x="4299" y="-14.3" font-family="Times,serif" font-size="14.00">o</text>
</g>
<!-- 0&#45;&gt;47 -->
<g id="edge47" class="edge">
<title>0&#45;&gt;47</title>
<path fill="none" stroke="black" d="M3058.45,-103.6C3250.72,-101.61 4067.57,-91.85 4179,-69 4211.45,-62.35 4246.14,-46.89 4269.83,-34.9"/>
<polygon fill="black" stroke="black" points="4271.69,-37.88 4278.96,-30.18 4268.47,-31.67 4271.69,-37.88"/>
<text text-anchor="middle" x="4240.5" y="-57.8" font-family="Times,serif" font-size="14.00">dep</text>
</g>
<!-- 48 -->
<g id="node49" class="node">
<title>48</title>
<ellipse fill="none" stroke="black" cx="4412" cy="-18" rx="68.49" ry="18"/>
<text text-anchor="middle" x="4412" y="-14.3" font-family="Times,serif" font-size="14.00">colonialismo</text>
</g>
<!-- 0&#45;&gt;48 -->
<g id="edge48" class="edge">
<title>0&#45;&gt;48</title>
<path fill="none" stroke="black" d="M3058.48,-103.54C3258.65,-101.2 4137.76,-89.77 4258,-69 4295.87,-62.46 4337.21,-48.64 4367.51,-37.19"/>
<polygon fill="black" stroke="black" points="4368.86,-40.42 4376.94,-33.57 4366.35,-33.89 4368.86,-40.42"/>
<text text-anchor="middle" x="4332.5" y="-57.8" font-family="Times,serif" font-size="14.00">dep</text>
</g>
<!-- 49 -->
<g id="node50" class="node">
<title>49</title>
<ellipse fill="none" stroke="black" cx="4556" cy="-18" rx="57.69" ry="18"/>
<text text-anchor="middle" x="4556" y="-14.3" font-family="Times,serif" font-size="14.00">português</text>
</g>
<!-- 0&#45;&gt;49 -->
<g id="edge49" class="edge">
<title>0&#45;&gt;49</title>
<path fill="none" stroke="black" d="M3058.55,-104.06C3253,-104.2 4091.08,-102.77 4350,-69 4404.45,-61.9 4465.4,-46.09 4506.78,-34.14"/>
<polygon fill="black" stroke="black" points="4507.99,-37.43 4516.61,-31.27 4506.02,-30.71 4507.99,-37.43"/>
<text text-anchor="middle" x="4444.5" y="-57.8" font-family="Times,serif" font-size="14.00">dep</text>
</g>
<!-- 50 -->
<g id="node51" class="node">
<title>50</title>
<ellipse fill="none" stroke="black" cx="4659" cy="-18" rx="27" ry="18"/>
<text text-anchor="middle" x="4659" y="-14.3" font-family="Times,serif" font-size="14.00">,</text>
</g>
<!-- 0&#45;&gt;50 -->
<g id="edge50" class="edge">
<title>0&#45;&gt;50</title>
<path fill="none" stroke="black" d="M3058.51,-103.99C3262.55,-103.8 4179.2,-101.15 4462,-69 4534.58,-60.75 4553.7,-59.09 4623,-36 4624.92,-35.36 4626.87,-34.65 4628.82,-33.88"/>
<polygon fill="black" stroke="black" points="4630.6,-36.92 4638.41,-29.76 4627.84,-30.49 4630.6,-36.92"/>
<text text-anchor="middle" x="4574.5" y="-57.8" font-family="Times,serif" font-size="14.00">dep</text>
</g>
<!-- 51 -->
<g id="node52" class="node">
<title>51</title>
<ellipse fill="none" stroke="black" cx="4748" cy="-18" rx="43.59" ry="18"/>
<text text-anchor="middle" x="4748" y="-14.3" font-family="Times,serif" font-size="14.00">porque</text>
</g>
<!-- 0&#45;&gt;51 -->
<g id="edge51" class="edge">
<title>0&#45;&gt;51</title>
<path fill="none" stroke="black" d="M3058.24,-103.8C3288.75,-102.54 4436.91,-95.01 4592,-69 4632.88,-62.15 4677.77,-46.89 4708.85,-35.02"/>
<polygon fill="black" stroke="black" points="4710.38,-38.18 4718.44,-31.3 4707.85,-31.66 4710.38,-38.18"/>
<text text-anchor="middle" x="4667.5" y="-57.8" font-family="Times,serif" font-size="14.00">dep</text>
</g>
<!-- 52 -->
<g id="node53" class="node">
<title>52</title>
<ellipse fill="none" stroke="black" cx="4840" cy="-18" rx="30.59" ry="18"/>
<text text-anchor="middle" x="4840" y="-14.3" font-family="Times,serif" font-size="14.00">está</text>
</g>
<!-- 0&#45;&gt;52 -->
<g id="edge52" class="edge">
<title>0&#45;&gt;52</title>
<path fill="none" stroke="black" d="M3058.24,-103.77C3296.72,-102.34 4519.77,-93.82 4685,-69 4738.01,-61.04 4750.54,-54.08 4801,-36 4803.09,-35.25 4805.23,-34.44 4807.37,-33.6"/>
<polygon fill="black" stroke="black" points="4808.78,-36.81 4816.69,-29.76 4806.11,-30.33 4808.78,-36.81"/>
<text text-anchor="middle" x="4763.5" y="-57.8" font-family="Times,serif" font-size="14.00">dep</text>
</g>
<!-- 53 -->
<g id="node54" class="node">
<title>53</title>
<ellipse fill="none" stroke="black" cx="4944" cy="-18" rx="55.79" ry="18"/>
<text text-anchor="middle" x="4944" y="-14.3" font-family="Times,serif" font-size="14.00">integrada</text>
</g>
<!-- 0&#45;&gt;53 -->
<g id="edge53" class="edge">
<title>0&#45;&gt;53</title>
<path fill="none" stroke="black" d="M3058.54,-103.87C3305.82,-102.98 4606.05,-97.01 4781,-69 4822.45,-62.36 4868.01,-47.73 4900.39,-36"/>
<polygon fill="black" stroke="black" points="4901.82,-39.21 4910,-32.47 4899.41,-32.64 4901.82,-39.21"/>
<text text-anchor="middle" x="4858.5" y="-57.8" font-family="Times,serif" font-size="14.00">dep</text>
</g>
<!-- 54 -->
<g id="node55" class="node">
<title>54</title>
<ellipse fill="none" stroke="black" cx="5045" cy="-18" rx="27" ry="18"/>
<text text-anchor="middle" x="5045" y="-14.3" font-family="Times,serif" font-size="14.00">em</text>
</g>
<!-- 0&#45;&gt;54 -->
<g id="edge54" class="edge">
<title>0&#45;&gt;54</title>
<path fill="none" stroke="black" d="M3058.21,-103.78C3312.29,-102.35 4690.28,-93.47 4876,-69 4936.38,-61.04 4951.63,-56.44 5009,-36 5010.9,-35.32 5012.84,-34.58 5014.78,-33.79"/>
<polygon fill="black" stroke="black" points="5016.6,-36.82 5024.36,-29.6 5013.79,-30.4 5016.6,-36.82"/>
<text text-anchor="middle" x="4968.5" y="-57.8" font-family="Times,serif" font-size="14.00">dep</text>
</g>
<!-- 55 -->
<g id="node56" class="node">
<title>55</title>
<ellipse fill="none" stroke="black" cx="5117" cy="-18" rx="27" ry="18"/>
<text text-anchor="middle" x="5117" y="-14.3" font-family="Times,serif" font-size="14.00">os</text>
</g>
<!-- 0&#45;&gt;55 -->
<g id="edge55" class="edge">
<title>0&#45;&gt;55</title>
<path fill="none" stroke="black" d="M3058.48,-104.05C3322.1,-104.26 4790.13,-103.84 4986,-69 5022.13,-62.57 5061.13,-46.38 5087.1,-34.15"/>
<polygon fill="black" stroke="black" points="5088.88,-37.17 5096.38,-29.68 5085.85,-30.86 5088.88,-37.17"/>
<text text-anchor="middle" x="5051.5" y="-57.8" font-family="Times,serif" font-size="14.00">dep</text>
</g>
<!-- 56 -->
<g id="node57" class="node">
<title>56</title>
<ellipse fill="none" stroke="black" cx="5213" cy="-18" rx="50.89" ry="18"/>
<text text-anchor="middle" x="5213" y="-14.3" font-family="Times,serif" font-size="14.00">circuitos</text>
</g>
<!-- 0&#45;&gt;56 -->
<g id="edge56" class="edge">
<title>0&#45;&gt;56</title>
<path fill="none" stroke="black" d="M3058.43,-104.08C3328.35,-104.5 4864.42,-105.3 5069,-69 5105.36,-62.55 5144.87,-48.27 5173.29,-36.62"/>
<polygon fill="black" stroke="black" points="5174.98,-39.71 5182.86,-32.63 5172.28,-33.25 5174.98,-39.71"/>
<text text-anchor="middle" x="5139.5" y="-57.8" font-family="Times,serif" font-size="14.00">dep</text>
</g>
<!-- 57 -->
<g id="node58" class="node">
<title>57</title>
<ellipse fill="none" stroke="black" cx="5314" cy="-18" rx="32.49" ry="18"/>
<text text-anchor="middle" x="5314" y="-14.3" font-family="Times,serif" font-size="14.00">mais</text>
</g>
<!-- 0&#45;&gt;57 -->
<g id="edge57" class="edge">
<title>0&#45;&gt;57</title>
<path fill="none" stroke="black" d="M3058.36,-103.97C3334.62,-103.7 4942.18,-100.76 5157,-69 5200.41,-62.58 5248.17,-45.9 5279.48,-33.56"/>
<polygon fill="black" stroke="black" points="5281.06,-36.7 5289.04,-29.73 5278.45,-30.2 5281.06,-36.7"/>
<text text-anchor="middle" x="5232.5" y="-57.8" font-family="Times,serif" font-size="14.00">dep</text>
</g>
<!-- 58 -->
<g id="node59" class="node">
<title>58</title>
<ellipse fill="none" stroke="black" cx="5422" cy="-18" rx="57.69" ry="18"/>
<text text-anchor="middle" x="5422" y="-14.3" font-family="Times,serif" font-size="14.00">dinâmicos</text>
</g>
<!-- 0&#45;&gt;58 -->
<g id="edge58" class="edge">
<title>0&#45;&gt;58</title>
<path fill="none" stroke="black" d="M3058.28,-104.02C3341.22,-104.04 5025.45,-102.77 5250,-69 5294.08,-62.37 5342.73,-47.49 5377,-35.67"/>
<polygon fill="black" stroke="black" points="5378.43,-38.88 5386.71,-32.28 5376.12,-32.27 5378.43,-38.88"/>
<text text-anchor="middle" x="5331.5" y="-57.8" font-family="Times,serif" font-size="14.00">dep</text>
</g>
<!-- 59 -->
<g id="node60" class="node">
<title>59</title>
<ellipse fill="none" stroke="black" cx="5525" cy="-18" rx="27" ry="18"/>
<text text-anchor="middle" x="5525" y="-14.3" font-family="Times,serif" font-size="14.00">de</text>
</g>
<!-- 0&#45;&gt;59 -->
<g id="edge59" class="edge">
<title>0&#45;&gt;59</title>
<path fill="none" stroke="black" d="M3058.64,-103.92C3349.79,-103.28 5113.27,-98.2 5349,-69 5412.44,-61.14 5428.65,-57.1 5489,-36 5490.91,-35.33 5492.85,-34.6 5494.79,-33.81"/>
<polygon fill="black" stroke="black" points="5496.6,-36.85 5504.37,-29.65 5493.8,-30.43 5496.6,-36.85"/>
<text text-anchor="middle" x="5445.5" y="-57.8" font-family="Times,serif" font-size="14.00">dep</text>
</g>
<!-- 60 -->
<g id="node61" class="node">
<title>60</title>
<ellipse fill="none" stroke="black" cx="5597" cy="-18" rx="27" ry="18"/>
<text text-anchor="middle" x="5597" y="-14.3" font-family="Times,serif" font-size="14.00">a</text>
</g>
<!-- 0&#45;&gt;60 -->
<g id="edge60" class="edge">
<title>0&#45;&gt;60</title>
<path fill="none" stroke="black" d="M3058.67,-103.78C3367.91,-102.03 5339.63,-90.12 5463,-69 5500.06,-62.66 5540.15,-46.33 5566.73,-34.04"/>
<polygon fill="black" stroke="black" points="5568.33,-37.16 5575.88,-29.73 5565.34,-30.83 5568.33,-37.16"/>
<text text-anchor="middle" x="5529.5" y="-57.8" font-family="Times,serif" font-size="14.00">dep</text>
</g>
<!-- 61 -->
<g id="node62" class="node">
<title>61</title>
<ellipse fill="none" stroke="black" cx="5743" cy="-18" rx="100.98" ry="18"/>
<text text-anchor="middle" x="5743" y="-14.3" font-family="Times,serif" font-size="14.00">internacionalização</text>
</g>
<!-- 0&#45;&gt;61 -->
<g id="edge61" class="edge">
<title>0&#45;&gt;61</title>
<path fill="none" stroke="black" d="M3058.64,-104.02C3363.73,-104.06 5290.58,-102.99 5547,-69 5594.94,-62.64 5648.01,-48.66 5686.82,-37.09"/>
<polygon fill="black" stroke="black" points="5688.31,-40.3 5696.88,-34.06 5686.29,-33.6 5688.31,-40.3"/>
<text text-anchor="middle" x="5637.5" y="-57.8" font-family="Times,serif" font-size="14.00">dep</text>
</g>
<!-- 62 -->
<g id="node63" class="node">
<title>62</title>
<ellipse fill="none" stroke="black" cx="5911" cy="-18" rx="49.29" ry="18"/>
<text text-anchor="middle" x="5911" y="-14.3" font-family="Times,serif" font-size="14.00">artística</text>
</g>
<!-- 0&#45;&gt;62 -->
<g id="edge62" class="edge">
<title>0&#45;&gt;62</title>
<path fill="none" stroke="black" d="M3058.35,-103.84C3369.76,-102.52 5385.8,-93.08 5655,-69 5743.86,-61.05 5766.04,-55.92 5853,-36 5856.86,-35.12 5860.84,-34.12 5864.83,-33.07"/>
<polygon fill="black" stroke="black" points="5865.95,-36.39 5874.67,-30.37 5864.1,-29.64 5865.95,-36.39"/>
<text text-anchor="middle" x="5781.5" y="-57.8" font-family="Times,serif" font-size="14.00">dep</text>
</g>
<!-- 63 -->
<g id="node64" class="node">
<title>63</title>
<ellipse fill="none" stroke="black" cx="6017" cy="-18" rx="38.99" ry="18"/>
<text text-anchor="middle" x="6017" y="-14.3" font-family="Times,serif" font-size="14.00">actual</text>
</g>
<!-- 0&#45;&gt;63 -->
<g id="edge63" class="edge">
<title>0&#45;&gt;63</title>
<path fill="none" stroke="black" d="M3058.24,-103.93C3378.88,-103.31 5514.78,-98.14 5799,-69 5875.56,-61.15 5894.74,-56.24 5969,-36 5971.97,-35.19 5975.03,-34.28 5978.09,-33.32"/>
<polygon fill="black" stroke="black" points="5979.37,-36.59 5987.77,-30.13 5977.18,-29.94 5979.37,-36.59"/>
<text text-anchor="middle" x="5913.5" y="-57.8" font-family="Times,serif" font-size="14.00">dep</text>
</g>
<!-- 64 -->
<g id="node65" class="node">
<title>64</title>
<ellipse fill="none" stroke="black" cx="6101" cy="-18" rx="27" ry="18"/>
<text text-anchor="middle" x="6101" y="-14.3" font-family="Times,serif" font-size="14.00">.</text>
</g>
<!-- 0&#45;&gt;64 -->
<g id="edge64" class="edge">
<title>0&#45;&gt;64</title>
<path fill="none" stroke="black" d="M3058.32,-104.08C3387.86,-104.62 5633.58,-106.9 5931,-69 5991.84,-61.25 6007.2,-56.53 6065,-36 6066.91,-35.32 6068.84,-34.58 6070.79,-33.79"/>
<polygon fill="black" stroke="black" points="6072.6,-36.82 6080.36,-29.61 6069.79,-30.41 6072.6,-36.82"/>
<text text-anchor="middle" x="6024.5" y="-57.8" font-family="Times,serif" font-size="14.00">dep</text>
</g>
</g>
</svg>
