<?xml version="1.0" encoding="UTF-8" standalone="no"?>
<!DOCTYPE svg PUBLIC "-//W3C//DTD SVG 1.1//EN"
 "http://www.w3.org/Graphics/SVG/1.1/DTD/svg11.dtd">
<!-- Generated by graphviz version 2.42.4 (0)
 -->
<!-- Pages: 1 -->
<svg width="3769pt" height="131pt"
 viewBox="0.00 0.00 3769.00 131.00" xmlns="http://www.w3.org/2000/svg" xmlns:xlink="http://www.w3.org/1999/xlink">
<g id="graph0" class="graph" transform="scale(1 1) rotate(0) translate(4 127)">
<polygon fill="white" stroke="transparent" points="-4,4 -4,-127 3765,-127 3765,4 -4,4"/>
<!-- 0 -->
<g id="node1" class="node">
<title>0</title>
<ellipse fill="none" stroke="black" cx="1958" cy="-105" rx="55.79" ry="18"/>
<text text-anchor="middle" x="1958" y="-101.3" font-family="Times,serif" font-size="14.00">Enquanto</text>
</g>
<!-- 1 -->
<g id="node2" class="node">
<title>1</title>
<ellipse fill="none" stroke="black" cx="27" cy="-18" rx="27" ry="18"/>
<text text-anchor="middle" x="27" y="-14.3" font-family="Times,serif" font-size="14.00">o</text>
</g>
<!-- 0&#45;&gt;1 -->
<g id="edge1" class="edge">
<title>0&#45;&gt;1</title>
<path fill="none" stroke="black" d="M1902.06,-103.7C1619.83,-102.09 358.98,-93.54 186,-69 129.96,-61.05 116.14,-55.5 63,-36 61.15,-35.32 59.27,-34.58 57.38,-33.81"/>
<polygon fill="black" stroke="black" points="58.61,-30.53 48.05,-29.71 55.8,-36.94 58.61,-30.53"/>
<text text-anchor="middle" x="199.5" y="-57.8" font-family="Times,serif" font-size="14.00">dep</text>
</g>
<!-- 2 -->
<g id="node3" class="node">
<title>2</title>
<ellipse fill="none" stroke="black" cx="120" cy="-18" rx="48.19" ry="18"/>
<text text-anchor="middle" x="120" y="-14.3" font-family="Times,serif" font-size="14.00">possível</text>
</g>
<!-- 0&#45;&gt;2 -->
<g id="edge2" class="edge">
<title>0&#45;&gt;2</title>
<path fill="none" stroke="black" d="M1901.8,-103.78C1628.06,-102.59 440.8,-95.88 278,-69 237.14,-62.25 192.29,-47.29 160.84,-35.48"/>
<polygon fill="black" stroke="black" points="161.72,-32.07 151.13,-31.77 159.22,-38.61 161.72,-32.07"/>
<text text-anchor="middle" x="291.5" y="-57.8" font-family="Times,serif" font-size="14.00">dep</text>
</g>
<!-- 3 -->
<g id="node4" class="node">
<title>3</title>
<ellipse fill="none" stroke="black" cx="222" cy="-18" rx="36.29" ry="18"/>
<text text-anchor="middle" x="222" y="-14.3" font-family="Times,serif" font-size="14.00">medo</text>
</g>
<!-- 0&#45;&gt;3 -->
<g id="edge3" class="edge">
<title>0&#45;&gt;3</title>
<path fill="none" stroke="black" d="M1902.06,-103.78C1637.42,-102.63 517.67,-96.16 364,-69 326.36,-62.35 285.38,-46.98 257.16,-35.02"/>
<polygon fill="black" stroke="black" points="258.31,-31.7 247.74,-30.95 255.53,-38.13 258.31,-31.7"/>
<text text-anchor="middle" x="377.5" y="-57.8" font-family="Times,serif" font-size="14.00">dep</text>
</g>
<!-- 4 -->
<g id="node5" class="node">
<title>4</title>
<ellipse fill="none" stroke="black" cx="303" cy="-18" rx="27" ry="18"/>
<text text-anchor="middle" x="303" y="-14.3" font-family="Times,serif" font-size="14.00">de</text>
</g>
<!-- 0&#45;&gt;4 -->
<g id="edge4" class="edge">
<title>0&#45;&gt;4</title>
<path fill="none" stroke="black" d="M1901.91,-104.27C1666.75,-105.16 759.42,-106.05 476,-69 413.9,-60.88 398.07,-56.81 339,-36 337.09,-35.33 335.15,-34.59 333.21,-33.8"/>
<polygon fill="black" stroke="black" points="334.2,-30.42 323.64,-29.63 331.4,-36.83 334.2,-30.42"/>
<text text-anchor="middle" x="489.5" y="-57.8" font-family="Times,serif" font-size="14.00">dep</text>
</g>
<!-- 5 -->
<g id="node6" class="node">
<title>5</title>
<ellipse fill="none" stroke="black" cx="410" cy="-18" rx="62.29" ry="18"/>
<text text-anchor="middle" x="410" y="-14.3" font-family="Times,serif" font-size="14.00">represálias</text>
</g>
<!-- 0&#45;&gt;5 -->
<g id="edge5" class="edge">
<title>0&#45;&gt;5</title>
<path fill="none" stroke="black" d="M1902.14,-103.51C1659.32,-101.27 701.81,-91.1 569,-69 529.33,-62.4 485.88,-48.23 454.44,-36.66"/>
<polygon fill="black" stroke="black" points="455.27,-33.23 444.68,-33 452.81,-39.79 455.27,-33.23"/>
<text text-anchor="middle" x="582.5" y="-57.8" font-family="Times,serif" font-size="14.00">dep</text>
</g>
<!-- 6 -->
<g id="node7" class="node">
<title>6</title>
<ellipse fill="none" stroke="black" cx="523" cy="-18" rx="32.49" ry="18"/>
<text text-anchor="middle" x="523" y="-14.3" font-family="Times,serif" font-size="14.00">fazia</text>
</g>
<!-- 0&#45;&gt;6 -->
<g id="edge6" class="edge">
<title>0&#45;&gt;6</title>
<path fill="none" stroke="black" d="M1902.2,-103.63C1668.26,-101.95 772.83,-93.91 649,-69 615.8,-62.32 580.11,-47.35 555.22,-35.52"/>
<polygon fill="black" stroke="black" points="556.44,-32.22 545.91,-31.01 553.38,-38.52 556.44,-32.22"/>
<text text-anchor="middle" x="662.5" y="-57.8" font-family="Times,serif" font-size="14.00">dep</text>
</g>
<!-- 7 -->
<g id="node8" class="node">
<title>7</title>
<ellipse fill="none" stroke="black" cx="603" cy="-18" rx="29.8" ry="18"/>
<text text-anchor="middle" x="603" y="-14.3" font-family="Times,serif" font-size="14.00">com</text>
</g>
<!-- 0&#45;&gt;7 -->
<g id="edge7" class="edge">
<title>0&#45;&gt;7</title>
<path fill="none" stroke="black" d="M1902.23,-103.5C1677.49,-101.36 844.75,-91.92 729,-69 695.37,-62.34 659.22,-47.07 634.3,-35.15"/>
<polygon fill="black" stroke="black" points="635.53,-31.85 625,-30.6 632.45,-38.14 635.53,-31.85"/>
<text text-anchor="middle" x="742.5" y="-57.8" font-family="Times,serif" font-size="14.00">dep</text>
</g>
<!-- 8 -->
<g id="node9" class="node">
<title>8</title>
<ellipse fill="none" stroke="black" cx="679" cy="-18" rx="27.9" ry="18"/>
<text text-anchor="middle" x="679" y="-14.3" font-family="Times,serif" font-size="14.00">que</text>
</g>
<!-- 0&#45;&gt;8 -->
<g id="edge8" class="edge">
<title>0&#45;&gt;8</title>
<path fill="none" stroke="black" d="M1902.04,-103.28C1686.89,-100.36 919.57,-88.67 812,-69 775.48,-62.32 735.92,-46.21 709.53,-34.07"/>
<polygon fill="black" stroke="black" points="710.97,-30.88 700.43,-29.8 708,-37.22 710.97,-30.88"/>
<text text-anchor="middle" x="825.5" y="-57.8" font-family="Times,serif" font-size="14.00">dep</text>
</g>
<!-- 9 -->
<g id="node10" class="node">
<title>9</title>
<ellipse fill="none" stroke="black" cx="752" cy="-18" rx="27" ry="18"/>
<text text-anchor="middle" x="752" y="-14.3" font-family="Times,serif" font-size="14.00">as</text>
</g>
<!-- 0&#45;&gt;9 -->
<g id="edge9" class="edge">
<title>0&#45;&gt;9</title>
<path fill="none" stroke="black" d="M1902.19,-103.64C1715.51,-102.2 1113.85,-95.57 922,-69 861.24,-60.59 845.8,-56.53 788,-36 786.09,-35.32 784.16,-34.58 782.21,-33.79"/>
<polygon fill="black" stroke="black" points="783.21,-30.41 772.64,-29.61 780.4,-36.82 783.21,-30.41"/>
<text text-anchor="middle" x="935.5" y="-57.8" font-family="Times,serif" font-size="14.00">dep</text>
</g>
<!-- 10 -->
<g id="node11" class="node">
<title>10</title>
<ellipse fill="none" stroke="black" cx="855" cy="-18" rx="57.69" ry="18"/>
<text text-anchor="middle" x="855" y="-14.3" font-family="Times,serif" font-size="14.00">acusações</text>
</g>
<!-- 0&#45;&gt;10 -->
<g id="edge10" class="edge">
<title>0&#45;&gt;10</title>
<path fill="none" stroke="black" d="M1901.93,-103.96C1725.32,-103.53 1182.09,-99.68 1009,-69 970.41,-62.16 928.18,-47.94 897.72,-36.41"/>
<polygon fill="black" stroke="black" points="898.85,-33.1 888.26,-32.77 896.34,-39.63 898.85,-33.1"/>
<text text-anchor="middle" x="1022.5" y="-57.8" font-family="Times,serif" font-size="14.00">dep</text>
</g>
<!-- 11 -->
<g id="node12" class="node">
<title>11</title>
<ellipse fill="none" stroke="black" cx="958" cy="-18" rx="27" ry="18"/>
<text text-anchor="middle" x="958" y="-14.3" font-family="Times,serif" font-size="14.00">de</text>
</g>
<!-- 0&#45;&gt;11 -->
<g id="edge11" class="edge">
<title>0&#45;&gt;11</title>
<path fill="none" stroke="black" d="M1902.24,-103.69C1737.12,-102.46 1252.5,-96.55 1097,-69 1049.67,-60.61 1038.72,-53.63 994,-36 992.17,-35.28 990.3,-34.5 988.42,-33.7"/>
<polygon fill="black" stroke="black" points="989.67,-30.43 979.12,-29.54 986.81,-36.82 989.67,-30.43"/>
<text text-anchor="middle" x="1110.5" y="-57.8" font-family="Times,serif" font-size="14.00">dep</text>
</g>
<!-- 12 -->
<g id="node13" class="node">
<title>12</title>
<ellipse fill="none" stroke="black" cx="1030" cy="-18" rx="27" ry="18"/>
<text text-anchor="middle" x="1030" y="-14.3" font-family="Times,serif" font-size="14.00">os</text>
</g>
<!-- 0&#45;&gt;12 -->
<g id="edge12" class="edge">
<title>0&#45;&gt;12</title>
<path fill="none" stroke="black" d="M1902.03,-104.34C1778.91,-104.43 1475.52,-101.06 1224,-69 1152.84,-59.93 1134.02,-58.81 1066,-36 1064.08,-35.36 1062.13,-34.64 1060.19,-33.87"/>
<polygon fill="black" stroke="black" points="1061.17,-30.48 1050.6,-29.74 1058.4,-36.91 1061.17,-30.48"/>
<text text-anchor="middle" x="1237.5" y="-57.8" font-family="Times,serif" font-size="14.00">dep</text>
</g>
<!-- 13 -->
<g id="node14" class="node">
<title>13</title>
<ellipse fill="none" stroke="black" cx="1131" cy="-18" rx="55.79" ry="18"/>
<text text-anchor="middle" x="1131" y="-14.3" font-family="Times,serif" font-size="14.00">jogadores</text>
</g>
<!-- 0&#45;&gt;13 -->
<g id="edge13" class="edge">
<title>0&#45;&gt;13</title>
<path fill="none" stroke="black" d="M1902.07,-104.6C1791.12,-104.97 1535.61,-101.79 1324,-69 1273.76,-61.22 1217.64,-45.9 1178.92,-34.27"/>
<polygon fill="black" stroke="black" points="1179.56,-30.8 1168.98,-31.24 1177.53,-37.5 1179.56,-30.8"/>
<text text-anchor="middle" x="1337.5" y="-57.8" font-family="Times,serif" font-size="14.00">dep</text>
</g>
<!-- 14 -->
<g id="node15" class="node">
<title>14</title>
<ellipse fill="none" stroke="black" cx="1245" cy="-18" rx="40.09" ry="18"/>
<text text-anchor="middle" x="1245" y="-14.3" font-family="Times,serif" font-size="14.00">contra</text>
</g>
<!-- 0&#45;&gt;14 -->
<g id="edge14" class="edge">
<title>0&#45;&gt;14</title>
<path fill="none" stroke="black" d="M1902,-103.65C1804.49,-102.3 1597.45,-96.15 1425,-69 1365.69,-59.66 1351.53,-53.19 1294,-36 1291.03,-35.11 1287.98,-34.16 1284.91,-33.17"/>
<polygon fill="black" stroke="black" points="1285.78,-29.77 1275.19,-29.93 1283.57,-36.41 1285.78,-29.77"/>
<text text-anchor="middle" x="1438.5" y="-57.8" font-family="Times,serif" font-size="14.00">dep</text>
</g>
<!-- 15 -->
<g id="node16" class="node">
<title>15</title>
<ellipse fill="none" stroke="black" cx="1349" cy="-18" rx="46.29" ry="18"/>
<text text-anchor="middle" x="1349" y="-14.3" font-family="Times,serif" font-size="14.00">Octávio</text>
</g>
<!-- 0&#45;&gt;15 -->
<g id="edge15" class="edge">
<title>0&#45;&gt;15</title>
<path fill="none" stroke="black" d="M1902.04,-103.28C1817.68,-101.35 1653.2,-94.36 1516,-69 1472.53,-60.96 1424.29,-45.82 1390.88,-34.29"/>
<polygon fill="black" stroke="black" points="1392.03,-30.99 1381.44,-31 1389.73,-37.6 1392.03,-30.99"/>
<text text-anchor="middle" x="1529.5" y="-57.8" font-family="Times,serif" font-size="14.00">dep</text>
</g>
<!-- 16 -->
<g id="node17" class="node">
<title>16</title>
<ellipse fill="none" stroke="black" cx="1451" cy="-18" rx="38.19" ry="18"/>
<text text-anchor="middle" x="1451" y="-14.3" font-family="Times,serif" font-size="14.00">nunca</text>
</g>
<!-- 0&#45;&gt;16 -->
<g id="edge16" class="edge">
<title>0&#45;&gt;16</title>
<path fill="none" stroke="black" d="M1902.72,-102.21C1832.09,-99.11 1706.35,-90.78 1601,-69 1561.75,-60.89 1518.49,-45.76 1488.55,-34.27"/>
<polygon fill="black" stroke="black" points="1489.52,-30.89 1478.93,-30.52 1486.98,-37.41 1489.52,-30.89"/>
<text text-anchor="middle" x="1614.5" y="-57.8" font-family="Times,serif" font-size="14.00">dep</text>
</g>
<!-- 17 -->
<g id="node18" class="node">
<title>17</title>
<ellipse fill="none" stroke="black" cx="1534" cy="-18" rx="27" ry="18"/>
<text text-anchor="middle" x="1534" y="-14.3" font-family="Times,serif" font-size="14.00">se</text>
</g>
<!-- 0&#45;&gt;17 -->
<g id="edge17" class="edge">
<title>0&#45;&gt;17</title>
<path fill="none" stroke="black" d="M1904.39,-99.6C1828.4,-92.25 1685.72,-74.33 1570,-36 1568.08,-35.36 1566.13,-34.65 1564.18,-33.89"/>
<polygon fill="black" stroke="black" points="1565.16,-30.5 1554.59,-29.77 1562.39,-36.93 1565.16,-30.5"/>
<text text-anchor="middle" x="1709.5" y="-57.8" font-family="Times,serif" font-size="14.00">dep</text>
</g>
<!-- 18 -->
<g id="node19" class="node">
<title>18</title>
<ellipse fill="none" stroke="black" cx="1631" cy="-18" rx="51.99" ry="18"/>
<text text-anchor="middle" x="1631" y="-14.3" font-family="Times,serif" font-size="14.00">tivessem</text>
</g>
<!-- 0&#45;&gt;18 -->
<g id="edge18" class="edge">
<title>0&#45;&gt;18</title>
<path fill="none" stroke="black" d="M1915.08,-93.33C1862.44,-80.17 1770.52,-56.97 1692,-36 1688,-34.93 1683.85,-33.81 1679.69,-32.67"/>
<polygon fill="black" stroke="black" points="1680.59,-29.29 1670.02,-30.01 1678.73,-36.04 1680.59,-29.29"/>
<text text-anchor="middle" x="1829.5" y="-57.8" font-family="Times,serif" font-size="14.00">dep</text>
</g>
<!-- 19 -->
<g id="node20" class="node">
<title>19</title>
<ellipse fill="none" stroke="black" cx="1771" cy="-18" rx="69.59" ry="18"/>
<text text-anchor="middle" x="1771" y="-14.3" font-family="Times,serif" font-size="14.00">concretizado</text>
</g>
<!-- 0&#45;&gt;19 -->
<g id="edge19" class="edge">
<title>0&#45;&gt;19</title>
<path fill="none" stroke="black" d="M1927.12,-89.96C1896.02,-75.83 1847.81,-53.91 1813.19,-38.18"/>
<polygon fill="black" stroke="black" points="1814.37,-34.87 1803.81,-33.92 1811.47,-41.24 1814.37,-34.87"/>
<text text-anchor="middle" x="1889.5" y="-57.8" font-family="Times,serif" font-size="14.00">dep</text>
</g>
<!-- 20 -->
<g id="node21" class="node">
<title>20</title>
<ellipse fill="none" stroke="black" cx="1886" cy="-18" rx="27" ry="18"/>
<text text-anchor="middle" x="1886" y="-14.3" font-family="Times,serif" font-size="14.00">,</text>
</g>
<!-- 0&#45;&gt;20 -->
<g id="edge20" class="edge">
<title>0&#45;&gt;20</title>
<path fill="none" stroke="black" d="M1943.05,-87.38C1937.91,-81.6 1932.16,-75.05 1927,-69 1919.68,-60.41 1911.79,-50.86 1904.9,-42.43"/>
<polygon fill="black" stroke="black" points="1907.44,-39.99 1898.41,-34.44 1902,-44.41 1907.44,-39.99"/>
<text text-anchor="middle" x="1940.5" y="-57.8" font-family="Times,serif" font-size="14.00">dep</text>
</g>
<!-- 21 -->
<g id="node22" class="node">
<title>21</title>
<ellipse fill="none" stroke="black" cx="1958" cy="-18" rx="27" ry="18"/>
<text text-anchor="middle" x="1958" y="-14.3" font-family="Times,serif" font-size="14.00">ele</text>
</g>
<!-- 0&#45;&gt;21 -->
<g id="edge21" class="edge">
<title>0&#45;&gt;21</title>
<path fill="none" stroke="black" d="M1958,-86.8C1958,-75.16 1958,-59.55 1958,-46.24"/>
<polygon fill="black" stroke="black" points="1961.5,-46.18 1958,-36.18 1954.5,-46.18 1961.5,-46.18"/>
<text text-anchor="middle" x="1971.5" y="-57.8" font-family="Times,serif" font-size="14.00">dep</text>
</g>
<!-- 22 -->
<g id="node23" class="node">
<title>22</title>
<ellipse fill="none" stroke="black" cx="2030" cy="-18" rx="27" ry="18"/>
<text text-anchor="middle" x="2030" y="-14.3" font-family="Times,serif" font-size="14.00">,</text>
</g>
<!-- 0&#45;&gt;22 -->
<g id="edge22" class="edge">
<title>0&#45;&gt;22</title>
<path fill="none" stroke="black" d="M1972.95,-87.38C1978.09,-81.6 1983.84,-75.05 1989,-69 1996.32,-60.41 2004.21,-50.86 2011.1,-42.43"/>
<polygon fill="black" stroke="black" points="2014,-44.41 2017.59,-34.44 2008.56,-39.99 2014,-44.41"/>
<text text-anchor="middle" x="2015.5" y="-57.8" font-family="Times,serif" font-size="14.00">dep</text>
</g>
<!-- 23 -->
<g id="node24" class="node">
<title>23</title>
<ellipse fill="none" stroke="black" cx="2102" cy="-18" rx="27" ry="18"/>
<text text-anchor="middle" x="2102" y="-14.3" font-family="Times,serif" font-size="14.00">em</text>
</g>
<!-- 0&#45;&gt;23 -->
<g id="edge23" class="edge">
<title>0&#45;&gt;23</title>
<path fill="none" stroke="black" d="M1990.81,-90.32C2004.19,-84.33 2019.63,-76.87 2033,-69 2048.23,-60.04 2064.27,-48.56 2077.04,-38.86"/>
<polygon fill="black" stroke="black" points="2079.54,-41.35 2085.32,-32.48 2075.26,-35.81 2079.54,-41.35"/>
<text text-anchor="middle" x="2068.5" y="-57.8" font-family="Times,serif" font-size="14.00">dep</text>
</g>
<!-- 24 -->
<g id="node25" class="node">
<title>24</title>
<ellipse fill="none" stroke="black" cx="2221" cy="-18" rx="74.19" ry="18"/>
<text text-anchor="middle" x="2221" y="-14.3" font-family="Times,serif" font-size="14.00">contrapartida</text>
</g>
<!-- 0&#45;&gt;24 -->
<g id="edge24" class="edge">
<title>0&#45;&gt;24</title>
<path fill="none" stroke="black" d="M2000.65,-93.34C2025.67,-86.84 2057.81,-78.05 2086,-69 2115.75,-59.44 2148.64,-47.3 2174.51,-37.37"/>
<polygon fill="black" stroke="black" points="2175.99,-40.55 2184.06,-33.68 2173.47,-34.02 2175.99,-40.55"/>
<text text-anchor="middle" x="2141.5" y="-57.8" font-family="Times,serif" font-size="14.00">dep</text>
</g>
<!-- 25 -->
<g id="node26" class="node">
<title>25</title>
<ellipse fill="none" stroke="black" cx="2340" cy="-18" rx="27" ry="18"/>
<text text-anchor="middle" x="2340" y="-14.3" font-family="Times,serif" font-size="14.00">,</text>
</g>
<!-- 0&#45;&gt;25 -->
<g id="edge25" class="edge">
<title>0&#45;&gt;25</title>
<path fill="none" stroke="black" d="M2010.17,-98.31C2078.94,-89.8 2203.02,-70.87 2304,-36 2305.91,-35.34 2307.86,-34.61 2309.8,-33.83"/>
<polygon fill="black" stroke="black" points="2311.6,-36.87 2319.38,-29.68 2308.81,-30.44 2311.6,-36.87"/>
<text text-anchor="middle" x="2253.5" y="-57.8" font-family="Times,serif" font-size="14.00">dep</text>
</g>
<!-- 26 -->
<g id="node27" class="node">
<title>26</title>
<ellipse fill="none" stroke="black" cx="2416" cy="-18" rx="30.59" ry="18"/>
<text text-anchor="middle" x="2416" y="-14.3" font-family="Times,serif" font-size="14.00">teve</text>
</g>
<!-- 0&#45;&gt;26 -->
<g id="edge26" class="edge">
<title>0&#45;&gt;26</title>
<path fill="none" stroke="black" d="M2012.79,-101.09C2075.68,-97 2181.65,-87.85 2271,-69 2318.86,-58.9 2330.1,-52.92 2376,-36 2378.21,-35.19 2380.48,-34.32 2382.75,-33.42"/>
<polygon fill="black" stroke="black" points="2384.1,-36.65 2392.04,-29.63 2381.46,-30.17 2384.1,-36.65"/>
<text text-anchor="middle" x="2339.5" y="-57.8" font-family="Times,serif" font-size="14.00">dep</text>
</g>
<!-- 27 -->
<g id="node28" class="node">
<title>27</title>
<ellipse fill="none" stroke="black" cx="2492" cy="-18" rx="27" ry="18"/>
<text text-anchor="middle" x="2492" y="-14.3" font-family="Times,serif" font-size="14.00">a</text>
</g>
<!-- 0&#45;&gt;27 -->
<g id="edge27" class="edge">
<title>0&#45;&gt;27</title>
<path fill="none" stroke="black" d="M2013.78,-103.21C2091.47,-101.19 2236.32,-94.04 2357,-69 2402.41,-59.58 2412.95,-53.27 2456,-36 2457.83,-35.27 2459.7,-34.49 2461.57,-33.68"/>
<polygon fill="black" stroke="black" points="2463.18,-36.79 2470.87,-29.49 2460.31,-30.41 2463.18,-36.79"/>
<text text-anchor="middle" x="2424.5" y="-57.8" font-family="Times,serif" font-size="14.00">dep</text>
</g>
<!-- 28 -->
<g id="node29" class="node">
<title>28</title>
<ellipse fill="none" stroke="black" cx="2588" cy="-18" rx="50.89" ry="18"/>
<text text-anchor="middle" x="2588" y="-14.3" font-family="Times,serif" font-size="14.00">coragem</text>
</g>
<!-- 0&#45;&gt;28 -->
<g id="edge28" class="edge">
<title>0&#45;&gt;28</title>
<path fill="none" stroke="black" d="M2014.16,-104.6C2105.03,-104.53 2289.49,-100.09 2442,-69 2478.56,-61.55 2518.55,-47.41 2547.41,-36.06"/>
<polygon fill="black" stroke="black" points="2548.77,-39.29 2556.76,-32.33 2546.17,-32.79 2548.77,-39.29"/>
<text text-anchor="middle" x="2509.5" y="-57.8" font-family="Times,serif" font-size="14.00">dep</text>
</g>
<!-- 29 -->
<g id="node30" class="node">
<title>29</title>
<ellipse fill="none" stroke="black" cx="2684" cy="-18" rx="27" ry="18"/>
<text text-anchor="middle" x="2684" y="-14.3" font-family="Times,serif" font-size="14.00">de</text>
</g>
<!-- 0&#45;&gt;29 -->
<g id="edge29" class="edge">
<title>0&#45;&gt;29</title>
<path fill="none" stroke="black" d="M2014.15,-104.34C2116.73,-104.12 2340.98,-99.75 2527,-69 2582,-59.91 2595.71,-55.31 2648,-36 2649.85,-35.32 2651.73,-34.58 2653.62,-33.8"/>
<polygon fill="black" stroke="black" points="2655.2,-36.93 2662.94,-29.7 2652.38,-30.52 2655.2,-36.93"/>
<text text-anchor="middle" x="2608.5" y="-57.8" font-family="Times,serif" font-size="14.00">dep</text>
</g>
<!-- 30 -->
<g id="node31" class="node">
<title>30</title>
<ellipse fill="none" stroke="black" cx="2756" cy="-18" rx="27" ry="18"/>
<text text-anchor="middle" x="2756" y="-14.3" font-family="Times,serif" font-size="14.00">«</text>
</g>
<!-- 0&#45;&gt;30 -->
<g id="edge30" class="edge">
<title>0&#45;&gt;30</title>
<path fill="none" stroke="black" d="M2013.83,-103.12C2152.42,-100.6 2509.43,-92.02 2626,-69 2661.55,-61.98 2700.03,-46.04 2725.82,-34.04"/>
<polygon fill="black" stroke="black" points="2727.52,-37.11 2735.05,-29.66 2724.52,-30.78 2727.52,-37.11"/>
<text text-anchor="middle" x="2691.5" y="-57.8" font-family="Times,serif" font-size="14.00">dep</text>
</g>
<!-- 31 -->
<g id="node32" class="node">
<title>31</title>
<ellipse fill="none" stroke="black" cx="2828" cy="-18" rx="27" ry="18"/>
<text text-anchor="middle" x="2828" y="-14.3" font-family="Times,serif" font-size="14.00">dar</text>
</g>
<!-- 0&#45;&gt;31 -->
<g id="edge31" class="edge">
<title>0&#45;&gt;31</title>
<path fill="none" stroke="black" d="M2013.85,-103.79C2164.46,-102.83 2576.47,-97.59 2709,-69 2740.96,-62.1 2775.14,-46.83 2798.63,-34.96"/>
<polygon fill="black" stroke="black" points="2800.42,-37.98 2807.7,-30.29 2797.21,-31.76 2800.42,-37.98"/>
<text text-anchor="middle" x="2770.5" y="-57.8" font-family="Times,serif" font-size="14.00">dep</text>
</g>
<!-- 32 -->
<g id="node33" class="node">
<title>32</title>
<ellipse fill="none" stroke="black" cx="2900" cy="-18" rx="27" ry="18"/>
<text text-anchor="middle" x="2900" y="-14.3" font-family="Times,serif" font-size="14.00">»</text>
</g>
<!-- 0&#45;&gt;32 -->
<g id="edge32" class="edge">
<title>0&#45;&gt;32</title>
<path fill="none" stroke="black" d="M2013.89,-104.3C2175.34,-104.75 2640.24,-102.96 2788,-69 2817.78,-62.16 2849.37,-47.27 2871.38,-35.52"/>
<polygon fill="black" stroke="black" points="2873.09,-38.57 2880.19,-30.7 2869.74,-32.42 2873.09,-38.57"/>
<text text-anchor="middle" x="2846.5" y="-57.8" font-family="Times,serif" font-size="14.00">dep</text>
</g>
<!-- 33 -->
<g id="node34" class="node">
<title>33</title>
<ellipse fill="none" stroke="black" cx="2972" cy="-18" rx="27" ry="18"/>
<text text-anchor="middle" x="2972" y="-14.3" font-family="Times,serif" font-size="14.00">a</text>
</g>
<!-- 0&#45;&gt;33 -->
<g id="edge33" class="edge">
<title>0&#45;&gt;33</title>
<path fill="none" stroke="black" d="M2013.62,-103.11C2197.92,-99.99 2781.65,-88.64 2864,-69 2892.54,-62.19 2922.64,-47.55 2943.8,-35.87"/>
<polygon fill="black" stroke="black" points="2945.59,-38.88 2952.57,-30.91 2942.14,-32.78 2945.59,-38.88"/>
<text text-anchor="middle" x="2921.5" y="-57.8" font-family="Times,serif" font-size="14.00">dep</text>
</g>
<!-- 34 -->
<g id="node35" class="node">
<title>34</title>
<ellipse fill="none" stroke="black" cx="3048" cy="-18" rx="30.59" ry="18"/>
<text text-anchor="middle" x="3048" y="-14.3" font-family="Times,serif" font-size="14.00">cara</text>
</g>
<!-- 0&#45;&gt;34 -->
<g id="edge34" class="edge">
<title>0&#45;&gt;34</title>
<path fill="none" stroke="black" d="M2013.77,-103.29C2208.2,-100.63 2849.15,-90.31 2939,-69 2967.23,-62.3 2997.03,-48.08 3018.32,-36.51"/>
<polygon fill="black" stroke="black" points="3020.15,-39.5 3027.19,-31.58 3016.75,-33.38 3020.15,-39.5"/>
<text text-anchor="middle" x="2996.5" y="-57.8" font-family="Times,serif" font-size="14.00">dep</text>
</g>
<!-- 35 -->
<g id="node36" class="node">
<title>35</title>
<ellipse fill="none" stroke="black" cx="3124" cy="-18" rx="27" ry="18"/>
<text text-anchor="middle" x="3124" y="-14.3" font-family="Times,serif" font-size="14.00">em</text>
</g>
<!-- 0&#45;&gt;35 -->
<g id="edge35" class="edge">
<title>0&#45;&gt;35</title>
<path fill="none" stroke="black" d="M2013.75,-103.41C2217.71,-101.06 2916.47,-91.46 3014,-69 3043.2,-62.28 3074.07,-47.49 3095.65,-35.73"/>
<polygon fill="black" stroke="black" points="3097.55,-38.67 3104.58,-30.74 3094.14,-32.56 3097.55,-38.67"/>
<text text-anchor="middle" x="3071.5" y="-57.8" font-family="Times,serif" font-size="14.00">dep</text>
</g>
<!-- 36 -->
<g id="node37" class="node">
<title>36</title>
<ellipse fill="none" stroke="black" cx="3211" cy="-18" rx="41.69" ry="18"/>
<text text-anchor="middle" x="3211" y="-14.3" font-family="Times,serif" font-size="14.00">alguns</text>
</g>
<!-- 0&#45;&gt;36 -->
<g id="edge36" class="edge">
<title>0&#45;&gt;36</title>
<path fill="none" stroke="black" d="M2013.99,-103.44C2227.46,-101.14 2983.57,-91.47 3089,-69 3119.83,-62.43 3152.8,-48.46 3176.68,-36.95"/>
<polygon fill="black" stroke="black" points="3178.26,-40.08 3185.68,-32.52 3175.17,-33.79 3178.26,-40.08"/>
<text text-anchor="middle" x="3151.5" y="-57.8" font-family="Times,serif" font-size="14.00">dep</text>
</g>
<!-- 37 -->
<g id="node38" class="node">
<title>37</title>
<ellipse fill="none" stroke="black" cx="3330" cy="-18" rx="59.29" ry="18"/>
<text text-anchor="middle" x="3330" y="-14.3" font-family="Times,serif" font-size="14.00">momentos</text>
</g>
<!-- 0&#45;&gt;37 -->
<g id="edge37" class="edge">
<title>0&#45;&gt;37</title>
<path fill="none" stroke="black" d="M2014.11,-104.4C2221.22,-105.56 2942.46,-106.72 3169,-69 3209.55,-62.25 3254.08,-47.85 3286,-36.23"/>
<polygon fill="black" stroke="black" points="3287.32,-39.48 3295.49,-32.73 3284.9,-32.91 3287.32,-39.48"/>
<text text-anchor="middle" x="3245.5" y="-57.8" font-family="Times,serif" font-size="14.00">dep</text>
</g>
<!-- 38 -->
<g id="node39" class="node">
<title>38</title>
<ellipse fill="none" stroke="black" cx="3434" cy="-18" rx="27" ry="18"/>
<text text-anchor="middle" x="3434" y="-14.3" font-family="Times,serif" font-size="14.00">de</text>
</g>
<!-- 0&#45;&gt;38 -->
<g id="edge38" class="edge">
<title>0&#45;&gt;38</title>
<path fill="none" stroke="black" d="M2013.87,-104.08C2230.62,-104.16 3016.04,-102.11 3263,-69 3324.22,-60.79 3339.78,-56.63 3398,-36 3399.91,-35.32 3401.85,-34.58 3403.79,-33.8"/>
<polygon fill="black" stroke="black" points="3405.6,-36.83 3413.36,-29.62 3402.8,-30.41 3405.6,-36.83"/>
<text text-anchor="middle" x="3356.5" y="-57.8" font-family="Times,serif" font-size="14.00">dep</text>
</g>
<!-- 39 -->
<g id="node40" class="node">
<title>39</title>
<ellipse fill="none" stroke="black" cx="3523" cy="-18" rx="43.59" ry="18"/>
<text text-anchor="middle" x="3523" y="-14.3" font-family="Times,serif" font-size="14.00">grande</text>
</g>
<!-- 0&#45;&gt;39 -->
<g id="edge39" class="edge">
<title>0&#45;&gt;39</title>
<path fill="none" stroke="black" d="M2014.13,-103.6C2260.35,-101.73 3238.68,-92.82 3374,-69 3412.63,-62.2 3454.86,-47.27 3484.46,-35.49"/>
<polygon fill="black" stroke="black" points="3486.04,-38.62 3493.99,-31.63 3483.41,-32.14 3486.04,-38.62"/>
<text text-anchor="middle" x="3446.5" y="-57.8" font-family="Times,serif" font-size="14.00">dep</text>
</g>
<!-- 40 -->
<g id="node41" class="node">
<title>40</title>
<ellipse fill="none" stroke="black" cx="3637" cy="-18" rx="51.99" ry="18"/>
<text text-anchor="middle" x="3637" y="-14.3" font-family="Times,serif" font-size="14.00">polémica</text>
</g>
<!-- 0&#45;&gt;40 -->
<g id="edge40" class="edge">
<title>0&#45;&gt;40</title>
<path fill="none" stroke="black" d="M2013.78,-103.56C2268.94,-101.41 3318.84,-91.28 3464,-69 3508.86,-62.11 3558.47,-46.96 3593.02,-35.13"/>
<polygon fill="black" stroke="black" points="3594.5,-38.32 3602.8,-31.73 3592.2,-31.71 3594.5,-38.32"/>
<text text-anchor="middle" x="3545.5" y="-57.8" font-family="Times,serif" font-size="14.00">dep</text>
</g>
<!-- 41 -->
<g id="node42" class="node">
<title>41</title>
<ellipse fill="none" stroke="black" cx="3734" cy="-18" rx="27" ry="18"/>
<text text-anchor="middle" x="3734" y="-14.3" font-family="Times,serif" font-size="14.00">.</text>
</g>
<!-- 0&#45;&gt;41 -->
<g id="edge41" class="edge">
<title>0&#45;&gt;41</title>
<path fill="none" stroke="black" d="M2013.84,-103.5C2279.29,-101.05 3407.13,-89.5 3563,-69 3624.24,-60.95 3639.78,-56.63 3698,-36 3699.91,-35.32 3701.85,-34.58 3703.79,-33.8"/>
<polygon fill="black" stroke="black" points="3705.6,-36.83 3713.36,-29.62 3702.8,-30.41 3705.6,-36.83"/>
<text text-anchor="middle" x="3656.5" y="-57.8" font-family="Times,serif" font-size="14.00">dep</text>
</g>
</g>
</svg>
