<?xml version="1.0" encoding="UTF-8" standalone="no"?>
<!DOCTYPE svg PUBLIC "-//W3C//DTD SVG 1.1//EN"
 "http://www.w3.org/Graphics/SVG/1.1/DTD/svg11.dtd">
<!-- Generated by graphviz version 2.42.4 (0)
 -->
<!-- Pages: 1 -->
<svg width="923pt" height="131pt"
 viewBox="0.00 0.00 923.35 131.00" xmlns="http://www.w3.org/2000/svg" xmlns:xlink="http://www.w3.org/1999/xlink">
<g id="graph0" class="graph" transform="scale(1 1) rotate(0) translate(4 127)">
<polygon fill="white" stroke="transparent" points="-4,4 -4,-127 919.35,-127 919.35,4 -4,4"/>
<!-- 0 -->
<g id="node1" class="node">
<title>0</title>
<ellipse fill="none" stroke="black" cx="515.35" cy="-105" rx="27" ry="18"/>
<text text-anchor="middle" x="515.35" y="-101.3" font-family="Times,serif" font-size="14.00">O</text>
</g>
<!-- 1 -->
<g id="node2" class="node">
<title>1</title>
<ellipse fill="none" stroke="black" cx="38.35" cy="-18" rx="38.19" ry="18"/>
<text text-anchor="middle" x="38.35" y="-14.3" font-family="Times,serif" font-size="14.00">jovem</text>
</g>
<!-- 0&#45;&gt;1 -->
<g id="edge1" class="edge">
<title>0&#45;&gt;1</title>
<path fill="none" stroke="black" d="M488.5,-102.13C435.54,-98.17 314.02,-87.72 213.35,-69 155.59,-58.26 141.48,-53.34 85.35,-36 82.59,-35.15 79.75,-34.23 76.9,-33.28"/>
<polygon fill="black" stroke="black" points="77.88,-29.91 67.28,-29.95 75.59,-36.53 77.88,-29.91"/>
<text text-anchor="middle" x="226.85" y="-57.8" font-family="Times,serif" font-size="14.00">dep</text>
</g>
<!-- 2 -->
<g id="node3" class="node">
<title>2</title>
<ellipse fill="none" stroke="black" cx="143.35" cy="-18" rx="48.99" ry="18"/>
<text text-anchor="middle" x="143.35" y="-14.3" font-family="Times,serif" font-size="14.00">corretor</text>
</g>
<!-- 0&#45;&gt;2 -->
<g id="edge2" class="edge">
<title>0&#45;&gt;2</title>
<path fill="none" stroke="black" d="M488.88,-101.22C447.13,-96.52 363.61,-85.83 294.35,-69 256.98,-59.92 215.58,-45.92 185.6,-35.04"/>
<polygon fill="black" stroke="black" points="186.48,-31.64 175.89,-31.49 184.08,-38.21 186.48,-31.64"/>
<text text-anchor="middle" x="307.85" y="-57.8" font-family="Times,serif" font-size="14.00">dep</text>
</g>
<!-- 3 -->
<g id="node4" class="node">
<title>3</title>
<ellipse fill="none" stroke="black" cx="237.35" cy="-18" rx="27" ry="18"/>
<text text-anchor="middle" x="237.35" y="-14.3" font-family="Times,serif" font-size="14.00">de</text>
</g>
<!-- 0&#45;&gt;3 -->
<g id="edge3" class="edge">
<title>0&#45;&gt;3</title>
<path fill="none" stroke="black" d="M489.67,-98.7C444.82,-89.02 349.7,-66.63 273.35,-36 271.52,-35.27 269.65,-34.49 267.78,-33.68"/>
<polygon fill="black" stroke="black" points="269.04,-30.41 258.48,-29.49 266.16,-36.79 269.04,-30.41"/>
<text text-anchor="middle" x="378.85" y="-57.8" font-family="Times,serif" font-size="14.00">dep</text>
</g>
<!-- 4 -->
<g id="node5" class="node">
<title>4</title>
<ellipse fill="none" stroke="black" cx="329.35" cy="-18" rx="47.39" ry="18"/>
<text text-anchor="middle" x="329.35" y="-14.3" font-family="Times,serif" font-size="14.00">seguros</text>
</g>
<!-- 0&#45;&gt;4 -->
<g id="edge4" class="edge">
<title>0&#45;&gt;4</title>
<path fill="none" stroke="black" d="M493.2,-94.51C477.1,-87.56 454.81,-77.84 435.35,-69 412.48,-58.61 387.02,-46.61 366.78,-36.97"/>
<polygon fill="black" stroke="black" points="368.12,-33.74 357.59,-32.59 365.11,-40.05 368.12,-33.74"/>
<text text-anchor="middle" x="448.85" y="-57.8" font-family="Times,serif" font-size="14.00">dep</text>
</g>
<!-- 5 -->
<g id="node6" class="node">
<title>5</title>
<ellipse fill="none" stroke="black" cx="426.35" cy="-18" rx="31.4" ry="18"/>
<text text-anchor="middle" x="426.35" y="-14.3" font-family="Times,serif" font-size="14.00">Kiko</text>
</g>
<!-- 0&#45;&gt;5 -->
<g id="edge5" class="edge">
<title>0&#45;&gt;5</title>
<path fill="none" stroke="black" d="M500.25,-89.58C486.27,-76.23 465.28,-56.19 449.24,-40.87"/>
<polygon fill="black" stroke="black" points="451.47,-38.15 441.82,-33.78 446.63,-43.21 451.47,-38.15"/>
<text text-anchor="middle" x="489.85" y="-57.8" font-family="Times,serif" font-size="14.00">dep</text>
</g>
<!-- 6 -->
<g id="node7" class="node">
<title>6</title>
<ellipse fill="none" stroke="black" cx="515.35" cy="-18" rx="39.79" ry="18"/>
<text text-anchor="middle" x="515.35" y="-14.3" font-family="Times,serif" font-size="14.00">Villela</text>
</g>
<!-- 0&#45;&gt;6 -->
<g id="edge6" class="edge">
<title>0&#45;&gt;6</title>
<path fill="none" stroke="black" d="M515.35,-86.8C515.35,-75.16 515.35,-59.55 515.35,-46.24"/>
<polygon fill="black" stroke="black" points="518.85,-46.18 515.35,-36.18 511.85,-46.18 518.85,-46.18"/>
<text text-anchor="middle" x="528.85" y="-57.8" font-family="Times,serif" font-size="14.00">dep</text>
</g>
<!-- 7 -->
<g id="node8" class="node">
<title>7</title>
<ellipse fill="none" stroke="black" cx="600.35" cy="-18" rx="27" ry="18"/>
<text text-anchor="middle" x="600.35" y="-14.3" font-family="Times,serif" font-size="14.00">,</text>
</g>
<!-- 0&#45;&gt;7 -->
<g id="edge7" class="edge">
<title>0&#45;&gt;7</title>
<path fill="none" stroke="black" d="M529.77,-89.58C543.2,-76.15 563.4,-55.94 578.76,-40.59"/>
<polygon fill="black" stroke="black" points="581.26,-43.04 585.86,-33.49 576.31,-38.09 581.26,-43.04"/>
<text text-anchor="middle" x="576.85" y="-57.8" font-family="Times,serif" font-size="14.00">dep</text>
</g>
<!-- 8 -->
<g id="node9" class="node">
<title>8</title>
<ellipse fill="none" stroke="black" cx="672.35" cy="-18" rx="27" ry="18"/>
<text text-anchor="middle" x="672.35" y="-14.3" font-family="Times,serif" font-size="14.00">22</text>
</g>
<!-- 0&#45;&gt;8 -->
<g id="edge8" class="edge">
<title>0&#45;&gt;8</title>
<path fill="none" stroke="black" d="M537.92,-95.08C553.96,-88.48 575.85,-78.95 594.35,-69 611.94,-59.53 630.83,-47.48 645.61,-37.58"/>
<polygon fill="black" stroke="black" points="647.92,-40.25 654.23,-31.74 643.99,-34.45 647.92,-40.25"/>
<text text-anchor="middle" x="632.85" y="-57.8" font-family="Times,serif" font-size="14.00">dep</text>
</g>
<!-- 9 -->
<g id="node10" class="node">
<title>9</title>
<ellipse fill="none" stroke="black" cx="744.35" cy="-18" rx="27" ry="18"/>
<text text-anchor="middle" x="744.35" y="-14.3" font-family="Times,serif" font-size="14.00">,</text>
</g>
<!-- 0&#45;&gt;9 -->
<g id="edge9" class="edge">
<title>0&#45;&gt;9</title>
<path fill="none" stroke="black" d="M541.04,-99.22C568.62,-93.66 613.46,-83.36 650.35,-69 673.48,-59.99 698.21,-46.67 716.5,-36.05"/>
<polygon fill="black" stroke="black" points="718.35,-39.02 725.18,-30.93 714.79,-32.99 718.35,-39.02"/>
<text text-anchor="middle" x="695.85" y="-57.8" font-family="Times,serif" font-size="14.00">dep</text>
</g>
<!-- 10 -->
<g id="node11" class="node">
<title>10</title>
<ellipse fill="none" stroke="black" cx="816.35" cy="-18" rx="27" ry="18"/>
<text text-anchor="middle" x="816.35" y="-14.3" font-family="Times,serif" font-size="14.00">é</text>
</g>
<!-- 0&#45;&gt;10 -->
<g id="edge10" class="edge">
<title>0&#45;&gt;10</title>
<path fill="none" stroke="black" d="M542.18,-101.63C580.79,-97.7 653.91,-88.27 713.35,-69 739.46,-60.53 767.38,-46.65 787.56,-35.66"/>
<polygon fill="black" stroke="black" points="789.47,-38.59 796.52,-30.68 786.08,-32.47 789.47,-38.59"/>
<text text-anchor="middle" x="762.85" y="-57.8" font-family="Times,serif" font-size="14.00">dep</text>
</g>
<!-- 11 -->
<g id="node12" class="node">
<title>11</title>
<ellipse fill="none" stroke="black" cx="888.35" cy="-18" rx="27" ry="18"/>
<text text-anchor="middle" x="888.35" y="-14.3" font-family="Times,serif" font-size="14.00">.</text>
</g>
<!-- 0&#45;&gt;11 -->
<g id="edge11" class="edge">
<title>0&#45;&gt;11</title>
<path fill="none" stroke="black" d="M542.21,-103.09C590.69,-100.87 695.62,-93.41 780.35,-69 808.36,-60.93 838.31,-46.56 859.55,-35.29"/>
<polygon fill="black" stroke="black" points="861.23,-38.36 868.37,-30.52 857.9,-32.2 861.23,-38.36"/>
<text text-anchor="middle" x="833.85" y="-57.8" font-family="Times,serif" font-size="14.00">dep</text>
</g>
</g>
</svg>
