<?xml version="1.0" encoding="UTF-8" standalone="no"?>
<!DOCTYPE svg PUBLIC "-//W3C//DTD SVG 1.1//EN"
 "http://www.w3.org/Graphics/SVG/1.1/DTD/svg11.dtd">
<!-- Generated by graphviz version 2.42.4 (0)
 -->
<!-- Pages: 1 -->
<svg width="3916pt" height="131pt"
 viewBox="0.00 0.00 3916.00 131.00" xmlns="http://www.w3.org/2000/svg" xmlns:xlink="http://www.w3.org/1999/xlink">
<g id="graph0" class="graph" transform="scale(1 1) rotate(0) translate(4 127)">
<polygon fill="white" stroke="transparent" points="-4,4 -4,-127 3912,-127 3912,4 -4,4"/>
<!-- 0 -->
<g id="node1" class="node">
<title>0</title>
<ellipse fill="none" stroke="black" cx="1971" cy="-105" rx="27" ry="18"/>
<text text-anchor="middle" x="1971" y="-101.3" font-family="Times,serif" font-size="14.00">E</text>
</g>
<!-- 1 -->
<g id="node2" class="node">
<title>1</title>
<ellipse fill="none" stroke="black" cx="27" cy="-18" rx="27" ry="18"/>
<text text-anchor="middle" x="27" y="-14.3" font-family="Times,serif" font-size="14.00">Rui</text>
</g>
<!-- 0&#45;&gt;1 -->
<g id="edge1" class="edge">
<title>0&#45;&gt;1</title>
<path fill="none" stroke="black" d="M1943.82,-104.02C1731.06,-104.11 336.35,-103.38 153,-69 118.69,-62.57 81.85,-46.81 56.92,-34.68"/>
<polygon fill="black" stroke="black" points="58.17,-31.4 47.65,-30.08 55.05,-37.67 58.17,-31.4"/>
<text text-anchor="middle" x="166.5" y="-57.8" font-family="Times,serif" font-size="14.00">dep</text>
</g>
<!-- 2 -->
<g id="node3" class="node">
<title>2</title>
<ellipse fill="none" stroke="black" cx="105" cy="-18" rx="33.29" ry="18"/>
<text text-anchor="middle" x="105" y="-14.3" font-family="Times,serif" font-size="14.00">Carp</text>
</g>
<!-- 0&#45;&gt;2 -->
<g id="edge2" class="edge">
<title>0&#45;&gt;2</title>
<path fill="none" stroke="black" d="M1943.72,-104.01C1736.09,-104.03 408.62,-102.83 234,-69 199.92,-62.4 163.2,-47.31 137.69,-35.43"/>
<polygon fill="black" stroke="black" points="139.02,-32.19 128.49,-31.05 136.02,-38.51 139.02,-32.19"/>
<text text-anchor="middle" x="247.5" y="-57.8" font-family="Times,serif" font-size="14.00">dep</text>
</g>
<!-- 3 -->
<g id="node4" class="node">
<title>3</title>
<ellipse fill="none" stroke="black" cx="183" cy="-18" rx="27" ry="18"/>
<text text-anchor="middle" x="183" y="-14.3" font-family="Times,serif" font-size="14.00">,</text>
</g>
<!-- 0&#45;&gt;3 -->
<g id="edge3" class="edge">
<title>0&#45;&gt;3</title>
<path fill="none" stroke="black" d="M1943.87,-103.89C1742.92,-103.02 489.13,-96.53 323,-69 275.16,-61.07 264.14,-53.73 219,-36 217.17,-35.28 215.29,-34.51 213.42,-33.71"/>
<polygon fill="black" stroke="black" points="214.67,-30.44 204.11,-29.55 211.81,-36.83 214.67,-30.44"/>
<text text-anchor="middle" x="336.5" y="-57.8" font-family="Times,serif" font-size="14.00">dep</text>
</g>
<!-- 4 -->
<g id="node5" class="node">
<title>4</title>
<ellipse fill="none" stroke="black" cx="255" cy="-18" rx="27" ry="18"/>
<text text-anchor="middle" x="255" y="-14.3" font-family="Times,serif" font-size="14.00">o</text>
</g>
<!-- 0&#45;&gt;4 -->
<g id="edge4" class="edge">
<title>0&#45;&gt;4</title>
<path fill="none" stroke="black" d="M1943.92,-104.01C1766.02,-103.98 762.28,-102.33 458,-69 382.79,-60.76 362.86,-59.67 291,-36 289.08,-35.37 287.13,-34.66 285.18,-33.9"/>
<polygon fill="black" stroke="black" points="286.15,-30.51 275.58,-29.78 283.39,-36.94 286.15,-30.51"/>
<text text-anchor="middle" x="471.5" y="-57.8" font-family="Times,serif" font-size="14.00">dep</text>
</g>
<!-- 5 -->
<g id="node6" class="node">
<title>5</title>
<ellipse fill="none" stroke="black" cx="382" cy="-18" rx="81.79" ry="18"/>
<text text-anchor="middle" x="382" y="-14.3" font-family="Times,serif" font-size="14.00">vice&#45;presidente</text>
</g>
<!-- 0&#45;&gt;5 -->
<g id="edge5" class="edge">
<title>0&#45;&gt;5</title>
<path fill="none" stroke="black" d="M1944.01,-103.75C1760.4,-101.97 697.94,-90.78 556,-69 513.3,-62.45 466.3,-48.52 431.92,-37.02"/>
<polygon fill="black" stroke="black" points="432.72,-33.6 422.13,-33.7 430.47,-40.23 432.72,-33.6"/>
<text text-anchor="middle" x="569.5" y="-57.8" font-family="Times,serif" font-size="14.00">dep</text>
</g>
<!-- 6 -->
<g id="node7" class="node">
<title>6</title>
<ellipse fill="none" stroke="black" cx="509" cy="-18" rx="27" ry="18"/>
<text text-anchor="middle" x="509" y="-14.3" font-family="Times,serif" font-size="14.00">de</text>
</g>
<!-- 0&#45;&gt;6 -->
<g id="edge6" class="edge">
<title>0&#45;&gt;6</title>
<path fill="none" stroke="black" d="M1943.84,-103.81C1765.9,-102.46 769.64,-93.87 637,-69 601.86,-62.41 564,-46.4 538.64,-34.26"/>
<polygon fill="black" stroke="black" points="540.09,-31.07 529.57,-29.83 537.02,-37.36 540.09,-31.07"/>
<text text-anchor="middle" x="650.5" y="-57.8" font-family="Times,serif" font-size="14.00">dep</text>
</g>
<!-- 7 -->
<g id="node8" class="node">
<title>7</title>
<ellipse fill="none" stroke="black" cx="581" cy="-18" rx="27" ry="18"/>
<text text-anchor="middle" x="581" y="-14.3" font-family="Times,serif" font-size="14.00">a</text>
</g>
<!-- 0&#45;&gt;7 -->
<g id="edge7" class="edge">
<title>0&#45;&gt;7</title>
<path fill="none" stroke="black" d="M1943.96,-104.12C1785.92,-104.71 980.45,-105.8 736,-69 681.73,-60.83 668.45,-55.12 617,-36 615.15,-35.31 613.27,-34.57 611.39,-33.79"/>
<polygon fill="black" stroke="black" points="612.62,-30.51 602.06,-29.68 609.8,-36.92 612.62,-30.51"/>
<text text-anchor="middle" x="749.5" y="-57.8" font-family="Times,serif" font-size="14.00">dep</text>
</g>
<!-- 8 -->
<g id="node9" class="node">
<title>8</title>
<ellipse fill="none" stroke="black" cx="675" cy="-18" rx="49.29" ry="18"/>
<text text-anchor="middle" x="675" y="-14.3" font-family="Times,serif" font-size="14.00">bancada</text>
</g>
<!-- 0&#45;&gt;8 -->
<g id="edge8" class="edge">
<title>0&#45;&gt;8</title>
<path fill="none" stroke="black" d="M1943.93,-104.24C1792.58,-105.42 1049.88,-109.02 825,-69 786.76,-62.19 744.96,-47.63 715.23,-35.97"/>
<polygon fill="black" stroke="black" points="716.21,-32.6 705.63,-32.15 713.62,-39.1 716.21,-32.6"/>
<text text-anchor="middle" x="838.5" y="-57.8" font-family="Times,serif" font-size="14.00">dep</text>
</g>
<!-- 9 -->
<g id="node10" class="node">
<title>9</title>
<ellipse fill="none" stroke="black" cx="769" cy="-18" rx="27" ry="18"/>
<text text-anchor="middle" x="769" y="-14.3" font-family="Times,serif" font-size="14.00">«</text>
</g>
<!-- 0&#45;&gt;9 -->
<g id="edge9" class="edge">
<title>0&#45;&gt;9</title>
<path fill="none" stroke="black" d="M1943.99,-103.96C1800.8,-103.64 1129.17,-100.42 924,-69 869.75,-60.69 856.45,-55.12 805,-36 803.15,-35.31 801.27,-34.57 799.39,-33.79"/>
<polygon fill="black" stroke="black" points="800.62,-30.51 790.06,-29.68 797.8,-36.92 800.62,-30.51"/>
<text text-anchor="middle" x="937.5" y="-57.8" font-family="Times,serif" font-size="14.00">dep</text>
</g>
<!-- 10 -->
<g id="node11" class="node">
<title>10</title>
<ellipse fill="none" stroke="black" cx="857" cy="-18" rx="42.79" ry="18"/>
<text text-anchor="middle" x="857" y="-14.3" font-family="Times,serif" font-size="14.00">laranja</text>
</g>
<!-- 0&#45;&gt;10 -->
<g id="edge10" class="edge">
<title>0&#45;&gt;10</title>
<path fill="none" stroke="black" d="M1944.01,-104.02C1808.05,-103.97 1197.41,-101.9 1011,-69 970.78,-61.9 926.62,-46.76 895.94,-34.99"/>
<polygon fill="black" stroke="black" points="897.06,-31.67 886.47,-31.3 894.52,-38.19 897.06,-31.67"/>
<text text-anchor="middle" x="1024.5" y="-57.8" font-family="Times,serif" font-size="14.00">dep</text>
</g>
<!-- 11 -->
<g id="node12" class="node">
<title>11</title>
<ellipse fill="none" stroke="black" cx="945" cy="-18" rx="27" ry="18"/>
<text text-anchor="middle" x="945" y="-14.3" font-family="Times,serif" font-size="14.00">»</text>
</g>
<!-- 0&#45;&gt;11 -->
<g id="edge11" class="edge">
<title>0&#45;&gt;11</title>
<path fill="none" stroke="black" d="M1943.71,-103.52C1817.78,-101.2 1292.02,-90.39 1129,-69 1062.18,-60.23 1044.75,-57.86 981,-36 979.09,-35.34 977.14,-34.62 975.2,-33.84"/>
<polygon fill="black" stroke="black" points="976.18,-30.45 965.61,-29.69 973.4,-36.88 976.18,-30.45"/>
<text text-anchor="middle" x="1142.5" y="-57.8" font-family="Times,serif" font-size="14.00">dep</text>
</g>
<!-- 12 -->
<g id="node13" class="node">
<title>12</title>
<ellipse fill="none" stroke="black" cx="1056" cy="-18" rx="66.09" ry="18"/>
<text text-anchor="middle" x="1056" y="-14.3" font-family="Times,serif" font-size="14.00">responsável</text>
</g>
<!-- 0&#45;&gt;12 -->
<g id="edge12" class="edge">
<title>0&#45;&gt;12</title>
<path fill="none" stroke="black" d="M1943.85,-103.66C1826.44,-102.03 1361.74,-94.11 1218,-69 1177.93,-62 1133.91,-47.99 1101.88,-36.57"/>
<polygon fill="black" stroke="black" points="1102.94,-33.23 1092.35,-33.12 1100.56,-39.82 1102.94,-33.23"/>
<text text-anchor="middle" x="1231.5" y="-57.8" font-family="Times,serif" font-size="14.00">dep</text>
</g>
<!-- 13 -->
<g id="node14" class="node">
<title>13</title>
<ellipse fill="none" stroke="black" cx="1167" cy="-18" rx="27" ry="18"/>
<text text-anchor="middle" x="1167" y="-14.3" font-family="Times,serif" font-size="14.00">por</text>
</g>
<!-- 0&#45;&gt;13 -->
<g id="edge13" class="edge">
<title>0&#45;&gt;13</title>
<path fill="none" stroke="black" d="M1943.83,-103.49C1835.25,-101.31 1432.36,-91.81 1307,-69 1259.29,-60.32 1248.14,-53.73 1203,-36 1201.17,-35.28 1199.29,-34.51 1197.42,-33.71"/>
<polygon fill="black" stroke="black" points="1198.67,-30.44 1188.11,-29.55 1195.81,-36.83 1198.67,-30.44"/>
<text text-anchor="middle" x="1320.5" y="-57.8" font-family="Times,serif" font-size="14.00">dep</text>
</g>
<!-- 14 -->
<g id="node15" class="node">
<title>14</title>
<ellipse fill="none" stroke="black" cx="1239" cy="-18" rx="27" ry="18"/>
<text text-anchor="middle" x="1239" y="-14.3" font-family="Times,serif" font-size="14.00">as</text>
</g>
<!-- 0&#45;&gt;14 -->
<g id="edge14" class="edge">
<title>0&#45;&gt;14</title>
<path fill="none" stroke="black" d="M1944.05,-103.57C1865.22,-102.03 1628.42,-95.38 1434,-69 1362.48,-59.3 1343.44,-58.9 1275,-36 1273.08,-35.36 1271.13,-34.64 1269.19,-33.87"/>
<polygon fill="black" stroke="black" points="1270.16,-30.49 1259.6,-29.75 1267.4,-36.92 1270.16,-30.49"/>
<text text-anchor="middle" x="1447.5" y="-57.8" font-family="Times,serif" font-size="14.00">dep</text>
</g>
<!-- 15 -->
<g id="node16" class="node">
<title>15</title>
<ellipse fill="none" stroke="black" cx="1336" cy="-18" rx="51.99" ry="18"/>
<text text-anchor="middle" x="1336" y="-14.3" font-family="Times,serif" font-size="14.00">questões</text>
</g>
<!-- 0&#45;&gt;15 -->
<g id="edge15" class="edge">
<title>0&#45;&gt;15</title>
<path fill="none" stroke="black" d="M1943.92,-103.24C1875.39,-101 1689.71,-93.01 1537,-69 1483.79,-60.63 1424.02,-44.94 1383.6,-33.35"/>
<polygon fill="black" stroke="black" points="1384.33,-29.92 1373.75,-30.5 1382.38,-36.65 1384.33,-29.92"/>
<text text-anchor="middle" x="1550.5" y="-57.8" font-family="Times,serif" font-size="14.00">dep</text>
</g>
<!-- 16 -->
<g id="node17" class="node">
<title>16</title>
<ellipse fill="none" stroke="black" cx="1470" cy="-18" rx="64.19" ry="18"/>
<text text-anchor="middle" x="1470" y="-14.3" font-family="Times,serif" font-size="14.00">económicas</text>
</g>
<!-- 0&#45;&gt;16 -->
<g id="edge16" class="edge">
<title>0&#45;&gt;16</title>
<path fill="none" stroke="black" d="M1944.07,-103.26C1885.21,-101.23 1740.93,-93.9 1623,-69 1585.87,-61.16 1545.08,-47.57 1514.96,-36.53"/>
<polygon fill="black" stroke="black" points="1516.16,-33.25 1505.57,-33.05 1513.73,-39.81 1516.16,-33.25"/>
<text text-anchor="middle" x="1636.5" y="-57.8" font-family="Times,serif" font-size="14.00">dep</text>
</g>
<!-- 17 -->
<g id="node18" class="node">
<title>17</title>
<ellipse fill="none" stroke="black" cx="1579" cy="-18" rx="27" ry="18"/>
<text text-anchor="middle" x="1579" y="-14.3" font-family="Times,serif" font-size="14.00">,</text>
</g>
<!-- 0&#45;&gt;17 -->
<g id="edge17" class="edge">
<title>0&#45;&gt;17</title>
<path fill="none" stroke="black" d="M1944.01,-102.89C1894.23,-100.34 1784.91,-92.34 1696,-69 1665.02,-60.87 1631.59,-45.9 1608.43,-34.46"/>
<polygon fill="black" stroke="black" points="1609.98,-31.32 1599.48,-29.95 1606.84,-37.57 1609.98,-31.32"/>
<text text-anchor="middle" x="1709.5" y="-57.8" font-family="Times,serif" font-size="14.00">dep</text>
</g>
<!-- 18 -->
<g id="node19" class="node">
<title>18</title>
<ellipse fill="none" stroke="black" cx="1651" cy="-18" rx="27" ry="18"/>
<text text-anchor="middle" x="1651" y="-14.3" font-family="Times,serif" font-size="14.00">foi</text>
</g>
<!-- 0&#45;&gt;18 -->
<g id="edge18" class="edge">
<title>0&#45;&gt;18</title>
<path fill="none" stroke="black" d="M1944.31,-101.26C1905.11,-96.82 1829.89,-86.72 1768,-69 1730.63,-58.3 1722.59,-51.64 1687,-36 1685.2,-35.21 1683.35,-34.38 1681.49,-33.54"/>
<polygon fill="black" stroke="black" points="1682.78,-30.28 1672.23,-29.26 1679.84,-36.63 1682.78,-30.28"/>
<text text-anchor="middle" x="1781.5" y="-57.8" font-family="Times,serif" font-size="14.00">dep</text>
</g>
<!-- 19 -->
<g id="node20" class="node">
<title>19</title>
<ellipse fill="none" stroke="black" cx="1730" cy="-18" rx="33.6" ry="18"/>
<text text-anchor="middle" x="1730" y="-14.3" font-family="Times,serif" font-size="14.00">claro</text>
</g>
<!-- 0&#45;&gt;19 -->
<g id="edge19" class="edge">
<title>0&#45;&gt;19</title>
<path fill="none" stroke="black" d="M1945.29,-99.02C1917.42,-93.26 1871.83,-82.77 1834,-69 1808.97,-59.89 1781.89,-46.76 1761.64,-36.24"/>
<polygon fill="black" stroke="black" points="1763.05,-33.02 1752.57,-31.46 1759.79,-39.22 1763.05,-33.02"/>
<text text-anchor="middle" x="1847.5" y="-57.8" font-family="Times,serif" font-size="14.00">dep</text>
</g>
<!-- 20 -->
<g id="node21" class="node">
<title>20</title>
<ellipse fill="none" stroke="black" cx="1809" cy="-18" rx="27" ry="18"/>
<text text-anchor="middle" x="1809" y="-14.3" font-family="Times,serif" font-size="14.00">a</text>
</g>
<!-- 0&#45;&gt;20 -->
<g id="edge20" class="edge">
<title>0&#45;&gt;20</title>
<path fill="none" stroke="black" d="M1948.24,-95.2C1931.78,-88.59 1909.15,-78.98 1890,-69 1871.38,-59.3 1851.29,-46.91 1835.77,-36.89"/>
<polygon fill="black" stroke="black" points="1837.5,-33.84 1827.21,-31.3 1833.68,-39.7 1837.5,-33.84"/>
<text text-anchor="middle" x="1903.5" y="-57.8" font-family="Times,serif" font-size="14.00">dep</text>
</g>
<!-- 21 -->
<g id="node22" class="node">
<title>21</title>
<ellipse fill="none" stroke="black" cx="1881" cy="-18" rx="27" ry="18"/>
<text text-anchor="middle" x="1881" y="-14.3" font-family="Times,serif" font-size="14.00">o</text>
</g>
<!-- 0&#45;&gt;21 -->
<g id="edge21" class="edge">
<title>0&#45;&gt;21</title>
<path fill="none" stroke="black" d="M1956.14,-89.96C1941.81,-76.43 1919.93,-55.77 1903.47,-40.22"/>
<polygon fill="black" stroke="black" points="1905.56,-37.38 1895.88,-33.06 1900.75,-42.47 1905.56,-37.38"/>
<text text-anchor="middle" x="1945.5" y="-57.8" font-family="Times,serif" font-size="14.00">dep</text>
</g>
<!-- 22 -->
<g id="node23" class="node">
<title>22</title>
<ellipse fill="none" stroke="black" cx="1971" cy="-18" rx="44.69" ry="18"/>
<text text-anchor="middle" x="1971" y="-14.3" font-family="Times,serif" font-size="14.00">afirmar</text>
</g>
<!-- 0&#45;&gt;22 -->
<g id="edge22" class="edge">
<title>0&#45;&gt;22</title>
<path fill="none" stroke="black" d="M1971,-86.8C1971,-75.16 1971,-59.55 1971,-46.24"/>
<polygon fill="black" stroke="black" points="1974.5,-46.18 1971,-36.18 1967.5,-46.18 1974.5,-46.18"/>
<text text-anchor="middle" x="1984.5" y="-57.8" font-family="Times,serif" font-size="14.00">dep</text>
</g>
<!-- 23 -->
<g id="node24" class="node">
<title>23</title>
<ellipse fill="none" stroke="black" cx="2061" cy="-18" rx="27" ry="18"/>
<text text-anchor="middle" x="2061" y="-14.3" font-family="Times,serif" font-size="14.00">em</text>
</g>
<!-- 0&#45;&gt;23 -->
<g id="edge23" class="edge">
<title>0&#45;&gt;23</title>
<path fill="none" stroke="black" d="M1985.86,-89.96C2000.19,-76.43 2022.07,-55.77 2038.53,-40.22"/>
<polygon fill="black" stroke="black" points="2041.25,-42.47 2046.12,-33.06 2036.44,-37.38 2041.25,-42.47"/>
<text text-anchor="middle" x="2035.5" y="-57.8" font-family="Times,serif" font-size="14.00">dep</text>
</g>
<!-- 24 -->
<g id="node25" class="node">
<title>24</title>
<ellipse fill="none" stroke="black" cx="2133" cy="-18" rx="27" ry="18"/>
<text text-anchor="middle" x="2133" y="-14.3" font-family="Times,serif" font-size="14.00">o</text>
</g>
<!-- 0&#45;&gt;24 -->
<g id="edge24" class="edge">
<title>0&#45;&gt;24</title>
<path fill="none" stroke="black" d="M1994.06,-95.27C2010.74,-88.69 2033.65,-79.1 2053,-69 2071.33,-59.43 2091.03,-47.15 2106.3,-37.15"/>
<polygon fill="black" stroke="black" points="2108.33,-40 2114.73,-31.56 2104.46,-34.16 2108.33,-40"/>
<text text-anchor="middle" x="2091.5" y="-57.8" font-family="Times,serif" font-size="14.00">dep</text>
</g>
<!-- 25 -->
<g id="node26" class="node">
<title>25</title>
<ellipse fill="none" stroke="black" cx="2227" cy="-18" rx="48.99" ry="18"/>
<text text-anchor="middle" x="2227" y="-14.3" font-family="Times,serif" font-size="14.00">plenário</text>
</g>
<!-- 0&#45;&gt;25 -->
<g id="edge25" class="edge">
<title>0&#45;&gt;25</title>
<path fill="none" stroke="black" d="M1996.52,-98.75C2024.47,-92.72 2070.46,-81.97 2109,-69 2136.31,-59.81 2166.18,-47.12 2189.04,-36.83"/>
<polygon fill="black" stroke="black" points="2190.73,-39.91 2198.38,-32.58 2187.83,-33.54 2190.73,-39.91"/>
<text text-anchor="middle" x="2162.5" y="-57.8" font-family="Times,serif" font-size="14.00">dep</text>
</g>
<!-- 26 -->
<g id="node27" class="node">
<title>26</title>
<ellipse fill="none" stroke="black" cx="2322" cy="-18" rx="27.9" ry="18"/>
<text text-anchor="middle" x="2322" y="-14.3" font-family="Times,serif" font-size="14.00">que</text>
</g>
<!-- 0&#45;&gt;26 -->
<g id="edge26" class="edge">
<title>0&#45;&gt;26</title>
<path fill="none" stroke="black" d="M1997.3,-100.79C2037.15,-95.65 2115.06,-84.56 2180,-69 2227.57,-57.6 2239.35,-53.58 2285,-36 2286.88,-35.28 2288.8,-34.5 2290.73,-33.7"/>
<polygon fill="black" stroke="black" points="2292.52,-36.74 2300.28,-29.53 2289.72,-30.32 2292.52,-36.74"/>
<text text-anchor="middle" x="2248.5" y="-57.8" font-family="Times,serif" font-size="14.00">dep</text>
</g>
<!-- 27 -->
<g id="node28" class="node">
<title>27</title>
<ellipse fill="none" stroke="black" cx="2395" cy="-18" rx="27" ry="18"/>
<text text-anchor="middle" x="2395" y="-14.3" font-family="Times,serif" font-size="14.00">,</text>
</g>
<!-- 0&#45;&gt;27 -->
<g id="edge27" class="edge">
<title>0&#45;&gt;27</title>
<path fill="none" stroke="black" d="M1998.19,-102.8C2050.62,-100.04 2169.07,-91.65 2266,-69 2300.84,-60.86 2338.82,-45.26 2364.48,-33.64"/>
<polygon fill="black" stroke="black" points="2366.06,-36.77 2373.68,-29.41 2363.13,-30.41 2366.06,-36.77"/>
<text text-anchor="middle" x="2327.5" y="-57.8" font-family="Times,serif" font-size="14.00">dep</text>
</g>
<!-- 28 -->
<g id="node29" class="node">
<title>28</title>
<ellipse fill="none" stroke="black" cx="2467" cy="-18" rx="27" ry="18"/>
<text text-anchor="middle" x="2467" y="-14.3" font-family="Times,serif" font-size="14.00">«</text>
</g>
<!-- 0&#45;&gt;28 -->
<g id="edge28" class="edge">
<title>0&#45;&gt;28</title>
<path fill="none" stroke="black" d="M1998.16,-103.98C2060.38,-103.39 2217.68,-98.79 2345,-69 2377.86,-61.31 2413.33,-45.9 2437.51,-34.2"/>
<polygon fill="black" stroke="black" points="2439.09,-37.33 2446.51,-29.77 2436,-31.05 2439.09,-37.33"/>
<text text-anchor="middle" x="2403.5" y="-57.8" font-family="Times,serif" font-size="14.00">dep</text>
</g>
<!-- 29 -->
<g id="node30" class="node">
<title>29</title>
<ellipse fill="none" stroke="black" cx="2539" cy="-18" rx="27" ry="18"/>
<text text-anchor="middle" x="2539" y="-14.3" font-family="Times,serif" font-size="14.00">em</text>
</g>
<!-- 0&#45;&gt;29 -->
<g id="edge29" class="edge">
<title>0&#45;&gt;29</title>
<path fill="none" stroke="black" d="M1997.95,-102.98C2082.18,-99.62 2339.75,-88.04 2421,-69 2452.61,-61.6 2486.51,-46.39 2509.83,-34.68"/>
<polygon fill="black" stroke="black" points="2511.53,-37.74 2518.84,-30.07 2508.34,-31.51 2511.53,-37.74"/>
<text text-anchor="middle" x="2478.5" y="-57.8" font-family="Times,serif" font-size="14.00">dep</text>
</g>
<!-- 30 -->
<g id="node31" class="node">
<title>30</title>
<ellipse fill="none" stroke="black" cx="2611" cy="-18" rx="27" ry="18"/>
<text text-anchor="middle" x="2611" y="-14.3" font-family="Times,serif" font-size="14.00">um</text>
</g>
<!-- 0&#45;&gt;30 -->
<g id="edge30" class="edge">
<title>0&#45;&gt;30</title>
<path fill="none" stroke="black" d="M1998.09,-103.37C2091.52,-101 2399.86,-91.63 2496,-69 2526.6,-61.8 2559.26,-46.82 2581.92,-35.12"/>
<polygon fill="black" stroke="black" points="2583.78,-38.1 2590.99,-30.34 2580.51,-31.91 2583.78,-38.1"/>
<text text-anchor="middle" x="2552.5" y="-57.8" font-family="Times,serif" font-size="14.00">dep</text>
</g>
<!-- 31 -->
<g id="node32" class="node">
<title>31</title>
<ellipse fill="none" stroke="black" cx="2716" cy="-18" rx="59.59" ry="18"/>
<text text-anchor="middle" x="2716" y="-14.3" font-family="Times,serif" font-size="14.00">curtíssimo</text>
</g>
<!-- 0&#45;&gt;31 -->
<g id="edge31" class="edge">
<title>0&#45;&gt;31</title>
<path fill="none" stroke="black" d="M1997.91,-103.4C2099.28,-100.98 2458.08,-91.01 2570,-69 2605.9,-61.94 2645.05,-48.18 2673.76,-36.89"/>
<polygon fill="black" stroke="black" points="2675.09,-40.12 2683.08,-33.16 2672.49,-33.62 2675.09,-40.12"/>
<text text-anchor="middle" x="2637.5" y="-57.8" font-family="Times,serif" font-size="14.00">dep</text>
</g>
<!-- 32 -->
<g id="node33" class="node">
<title>32</title>
<ellipse fill="none" stroke="black" cx="2840" cy="-18" rx="46.29" ry="18"/>
<text text-anchor="middle" x="2840" y="-14.3" font-family="Times,serif" font-size="14.00">período</text>
</g>
<!-- 0&#45;&gt;32 -->
<g id="edge32" class="edge">
<title>0&#45;&gt;32</title>
<path fill="none" stroke="black" d="M1998.2,-103.33C2108.78,-100.47 2524.94,-88.64 2655,-69 2704.32,-61.55 2759.31,-45.68 2796.42,-33.81"/>
<polygon fill="black" stroke="black" points="2797.96,-36.99 2806.4,-30.57 2795.81,-30.33 2797.96,-36.99"/>
<text text-anchor="middle" x="2735.5" y="-57.8" font-family="Times,serif" font-size="14.00">dep</text>
</g>
<!-- 33 -->
<g id="node34" class="node">
<title>33</title>
<ellipse fill="none" stroke="black" cx="2931" cy="-18" rx="27" ry="18"/>
<text text-anchor="middle" x="2931" y="-14.3" font-family="Times,serif" font-size="14.00">de</text>
</g>
<!-- 0&#45;&gt;33 -->
<g id="edge33" class="edge">
<title>0&#45;&gt;33</title>
<path fill="none" stroke="black" d="M1997.93,-103.46C2117.67,-100.95 2602.38,-89.69 2753,-69 2817.19,-60.18 2833.8,-57.29 2895,-36 2896.91,-35.34 2898.85,-34.6 2900.8,-33.82"/>
<polygon fill="black" stroke="black" points="2902.6,-36.85 2910.37,-29.66 2899.81,-30.43 2902.6,-36.85"/>
<text text-anchor="middle" x="2851.5" y="-57.8" font-family="Times,serif" font-size="14.00">dep</text>
</g>
<!-- 34 -->
<g id="node35" class="node">
<title>34</title>
<ellipse fill="none" stroke="black" cx="3016" cy="-18" rx="40.09" ry="18"/>
<text text-anchor="middle" x="3016" y="-14.3" font-family="Times,serif" font-size="14.00">tempo</text>
</g>
<!-- 0&#45;&gt;34 -->
<g id="edge34" class="edge">
<title>0&#45;&gt;34</title>
<path fill="none" stroke="black" d="M1997.96,-103.98C2128.5,-103.75 2695.6,-100.89 2869,-69 2907.47,-61.93 2949.55,-46.81 2978.8,-35.04"/>
<polygon fill="black" stroke="black" points="2980.27,-38.22 2988.2,-31.19 2977.62,-31.74 2980.27,-38.22"/>
<text text-anchor="middle" x="2936.5" y="-57.8" font-family="Times,serif" font-size="14.00">dep</text>
</g>
<!-- 35 -->
<g id="node36" class="node">
<title>35</title>
<ellipse fill="none" stroke="black" cx="3101" cy="-18" rx="27" ry="18"/>
<text text-anchor="middle" x="3101" y="-14.3" font-family="Times,serif" font-size="14.00">»</text>
</g>
<!-- 0&#45;&gt;35 -->
<g id="edge35" class="edge">
<title>0&#45;&gt;35</title>
<path fill="none" stroke="black" d="M1998.16,-103.96C2136.38,-103.62 2762.51,-100.35 2954,-69 3004.79,-60.68 3016.92,-54.37 3065,-36 3066.84,-35.3 3068.72,-34.54 3070.6,-33.75"/>
<polygon fill="black" stroke="black" points="3072.19,-36.87 3079.91,-29.61 3069.35,-30.47 3072.19,-36.87"/>
<text text-anchor="middle" x="3030.5" y="-57.8" font-family="Times,serif" font-size="14.00">dep</text>
</g>
<!-- 36 -->
<g id="node37" class="node">
<title>36</title>
<ellipse fill="none" stroke="black" cx="3173" cy="-18" rx="27" ry="18"/>
<text text-anchor="middle" x="3173" y="-14.3" font-family="Times,serif" font-size="14.00">o</text>
</g>
<!-- 0&#45;&gt;36 -->
<g id="edge36" class="edge">
<title>0&#45;&gt;36</title>
<path fill="none" stroke="black" d="M1998.03,-103.64C2154.65,-101.5 2942.27,-89.75 3048,-69 3082.02,-62.32 3118.57,-46.6 3143.31,-34.56"/>
<polygon fill="black" stroke="black" points="3145.11,-37.57 3152.5,-29.98 3141.99,-31.3 3145.11,-37.57"/>
<text text-anchor="middle" x="3111.5" y="-57.8" font-family="Times,serif" font-size="14.00">dep</text>
</g>
<!-- 37 -->
<g id="node38" class="node">
<title>37</title>
<ellipse fill="none" stroke="black" cx="3268" cy="-18" rx="50.09" ry="18"/>
<text text-anchor="middle" x="3268" y="-14.3" font-family="Times,serif" font-size="14.00">Governo</text>
</g>
<!-- 0&#45;&gt;37 -->
<g id="edge37" class="edge">
<title>0&#45;&gt;37</title>
<path fill="none" stroke="black" d="M1998.18,-103.69C2162,-101.76 3014.76,-90.7 3129,-69 3164.05,-62.34 3202.05,-48.16 3229.44,-36.59"/>
<polygon fill="black" stroke="black" points="3230.86,-39.79 3238.67,-32.63 3228.1,-33.36 3230.86,-39.79"/>
<text text-anchor="middle" x="3197.5" y="-57.8" font-family="Times,serif" font-size="14.00">dep</text>
</g>
<!-- 38 -->
<g id="node39" class="node">
<title>38</title>
<ellipse fill="none" stroke="black" cx="3378" cy="-18" rx="42.49" ry="18"/>
<text text-anchor="middle" x="3378" y="-14.3" font-family="Times,serif" font-size="14.00">deverá</text>
</g>
<!-- 0&#45;&gt;38 -->
<g id="edge38" class="edge">
<title>0&#45;&gt;38</title>
<path fill="none" stroke="black" d="M1997.99,-104.19C2156.61,-105.14 2968.94,-108.04 3215,-69 3258.32,-62.13 3306.1,-46.46 3338.66,-34.48"/>
<polygon fill="black" stroke="black" points="3340.11,-37.67 3348.26,-30.9 3337.66,-31.12 3340.11,-37.67"/>
<text text-anchor="middle" x="3292.5" y="-57.8" font-family="Times,serif" font-size="14.00">dep</text>
</g>
<!-- 39 -->
<g id="node40" class="node">
<title>39</title>
<ellipse fill="none" stroke="black" cx="3479" cy="-18" rx="40.09" ry="18"/>
<text text-anchor="middle" x="3479" y="-14.3" font-family="Times,serif" font-size="14.00">deixar</text>
</g>
<!-- 0&#45;&gt;39 -->
<g id="edge39" class="edge">
<title>0&#45;&gt;39</title>
<path fill="none" stroke="black" d="M1998.13,-104.19C2164.07,-105.24 3043.78,-108.78 3310,-69 3355.72,-62.17 3406.34,-45.98 3440.15,-33.87"/>
<polygon fill="black" stroke="black" points="3441.45,-37.12 3449.65,-30.41 3439.06,-30.54 3441.45,-37.12"/>
<text text-anchor="middle" x="3390.5" y="-57.8" font-family="Times,serif" font-size="14.00">dep</text>
</g>
<!-- 40 -->
<g id="node41" class="node">
<title>40</title>
<ellipse fill="none" stroke="black" cx="3568" cy="-18" rx="30.59" ry="18"/>
<text text-anchor="middle" x="3568" y="-14.3" font-family="Times,serif" font-size="14.00">esta</text>
</g>
<!-- 0&#45;&gt;40 -->
<g id="edge40" class="edge">
<title>0&#45;&gt;40</title>
<path fill="none" stroke="black" d="M1998.11,-103.74C2183.7,-101.89 3263.65,-90.28 3408,-69 3462.72,-60.93 3475.76,-54.19 3528,-36 3530.37,-35.17 3532.8,-34.28 3535.23,-33.34"/>
<polygon fill="black" stroke="black" points="3536.55,-36.58 3544.52,-29.6 3533.93,-30.09 3536.55,-36.58"/>
<text text-anchor="middle" x="3488.5" y="-57.8" font-family="Times,serif" font-size="14.00">dep</text>
</g>
<!-- 41 -->
<g id="node42" class="node">
<title>41</title>
<ellipse fill="none" stroke="black" cx="3664" cy="-18" rx="47.39" ry="18"/>
<text text-anchor="middle" x="3664" y="-14.3" font-family="Times,serif" font-size="14.00">questão</text>
</g>
<!-- 0&#45;&gt;41 -->
<g id="edge41" class="edge">
<title>0&#45;&gt;41</title>
<path fill="none" stroke="black" d="M1998.09,-103.84C2190.87,-102.68 3351.76,-94.63 3506,-69 3546.85,-62.21 3591.71,-47.25 3623.15,-35.46"/>
<polygon fill="black" stroke="black" points="3624.77,-38.58 3632.87,-31.75 3622.28,-32.04 3624.77,-38.58"/>
<text text-anchor="middle" x="3581.5" y="-57.8" font-family="Times,serif" font-size="14.00">dep</text>
</g>
<!-- 42 -->
<g id="node43" class="node">
<title>42</title>
<ellipse fill="none" stroke="black" cx="3783" cy="-18" rx="53.09" ry="18"/>
<text text-anchor="middle" x="3783" y="-14.3" font-family="Times,serif" font-size="14.00">resolvida</text>
</g>
<!-- 0&#45;&gt;42 -->
<g id="edge42" class="edge">
<title>0&#45;&gt;42</title>
<path fill="none" stroke="black" d="M1998.11,-103.82C2197.54,-102.41 3434.44,-92.76 3599,-69 3647.07,-62.06 3700.47,-46.65 3737.31,-34.76"/>
<polygon fill="black" stroke="black" points="3738.82,-37.95 3747.24,-31.51 3736.65,-31.3 3738.82,-37.95"/>
<text text-anchor="middle" x="3684.5" y="-57.8" font-family="Times,serif" font-size="14.00">dep</text>
</g>
<!-- 43 -->
<g id="node44" class="node">
<title>43</title>
<ellipse fill="none" stroke="black" cx="3881" cy="-18" rx="27" ry="18"/>
<text text-anchor="middle" x="3881" y="-14.3" font-family="Times,serif" font-size="14.00">.</text>
</g>
<!-- 0&#45;&gt;43 -->
<g id="edge43" class="edge">
<title>0&#45;&gt;43</title>
<path fill="none" stroke="black" d="M1998.15,-103.79C2204.81,-102.15 3526.1,-90.84 3702,-69 3766.73,-60.96 3783.38,-57.38 3845,-36 3846.91,-35.34 3848.85,-34.6 3850.8,-33.83"/>
<polygon fill="black" stroke="black" points="3852.6,-36.86 3860.38,-29.66 3849.81,-30.44 3852.6,-36.86"/>
<text text-anchor="middle" x="3800.5" y="-57.8" font-family="Times,serif" font-size="14.00">dep</text>
</g>
</g>
</svg>
