<?xml version="1.0" encoding="UTF-8" standalone="no"?>
<!DOCTYPE svg PUBLIC "-//W3C//DTD SVG 1.1//EN"
 "http://www.w3.org/Graphics/SVG/1.1/DTD/svg11.dtd">
<!-- Generated by graphviz version 2.42.4 (0)
 -->
<!-- Pages: 1 -->
<svg width="1015pt" height="131pt"
 viewBox="0.00 0.00 1015.00 131.00" xmlns="http://www.w3.org/2000/svg" xmlns:xlink="http://www.w3.org/1999/xlink">
<g id="graph0" class="graph" transform="scale(1 1) rotate(0) translate(4 127)">
<polygon fill="white" stroke="transparent" points="-4,4 -4,-127 1011,-127 1011,4 -4,4"/>
<!-- 0 -->
<g id="node1" class="node">
<title>0</title>
<ellipse fill="none" stroke="black" cx="471" cy="-105" rx="32.49" ry="18"/>
<text text-anchor="middle" x="471" y="-101.3" font-family="Times,serif" font-size="14.00">Hoje</text>
</g>
<!-- 1 -->
<g id="node2" class="node">
<title>1</title>
<ellipse fill="none" stroke="black" cx="27" cy="-18" rx="27" ry="18"/>
<text text-anchor="middle" x="27" y="-14.3" font-family="Times,serif" font-size="14.00">é</text>
</g>
<!-- 0&#45;&gt;1 -->
<g id="edge1" class="edge">
<title>0&#45;&gt;1</title>
<path fill="none" stroke="black" d="M438.72,-102.33C382.83,-98.99 264.66,-89.91 167,-69 119.58,-58.85 108.14,-53.73 63,-36 61.17,-35.28 59.29,-34.51 57.42,-33.71"/>
<polygon fill="black" stroke="black" points="58.67,-30.44 48.11,-29.55 55.81,-36.83 58.67,-30.44"/>
<text text-anchor="middle" x="180.5" y="-57.8" font-family="Times,serif" font-size="14.00">dep</text>
</g>
<!-- 2 -->
<g id="node3" class="node">
<title>2</title>
<ellipse fill="none" stroke="black" cx="99" cy="-18" rx="27" ry="18"/>
<text text-anchor="middle" x="99" y="-14.3" font-family="Times,serif" font-size="14.00">a</text>
</g>
<!-- 0&#45;&gt;2 -->
<g id="edge2" class="edge">
<title>0&#45;&gt;2</title>
<path fill="none" stroke="black" d="M439.02,-101C378.15,-94.55 242.16,-76.52 135,-36 133.16,-35.3 131.28,-34.55 129.4,-33.76"/>
<polygon fill="black" stroke="black" points="130.64,-30.49 120.08,-29.64 127.81,-36.89 130.64,-30.49"/>
<text text-anchor="middle" x="257.5" y="-57.8" font-family="Times,serif" font-size="14.00">dep</text>
</g>
<!-- 3 -->
<g id="node4" class="node">
<title>3</title>
<ellipse fill="none" stroke="black" cx="176" cy="-18" rx="32.49" ry="18"/>
<text text-anchor="middle" x="176" y="-14.3" font-family="Times,serif" font-size="14.00">mais</text>
</g>
<!-- 0&#45;&gt;3 -->
<g id="edge3" class="edge">
<title>0&#45;&gt;3</title>
<path fill="none" stroke="black" d="M441.38,-97.45C393.73,-86.6 297.33,-63.35 218,-36 215.59,-35.17 213.12,-34.28 210.64,-33.35"/>
<polygon fill="black" stroke="black" points="211.75,-30.03 201.16,-29.68 209.22,-36.56 211.75,-30.03"/>
<text text-anchor="middle" x="335.5" y="-57.8" font-family="Times,serif" font-size="14.00">dep</text>
</g>
<!-- 4 -->
<g id="node5" class="node">
<title>4</title>
<ellipse fill="none" stroke="black" cx="284" cy="-18" rx="57.39" ry="18"/>
<text text-anchor="middle" x="284" y="-14.3" font-family="Times,serif" font-size="14.00">conhecida</text>
</g>
<!-- 0&#45;&gt;4 -->
<g id="edge4" class="edge">
<title>0&#45;&gt;4</title>
<path fill="none" stroke="black" d="M446.39,-93.02C431.02,-86.15 410.84,-77.09 393,-69 370.15,-58.63 344.65,-46.94 324.06,-37.47"/>
<polygon fill="black" stroke="black" points="325.53,-34.29 314.98,-33.29 322.6,-40.65 325.53,-34.29"/>
<text text-anchor="middle" x="406.5" y="-57.8" font-family="Times,serif" font-size="14.00">dep</text>
</g>
<!-- 5 -->
<g id="node6" class="node">
<title>5</title>
<ellipse fill="none" stroke="black" cx="386" cy="-18" rx="27" ry="18"/>
<text text-anchor="middle" x="386" y="-14.3" font-family="Times,serif" font-size="14.00">«</text>
</g>
<!-- 0&#45;&gt;5 -->
<g id="edge5" class="edge">
<title>0&#45;&gt;5</title>
<path fill="none" stroke="black" d="M455.8,-88.8C442.47,-75.47 422.91,-55.91 407.88,-40.88"/>
<polygon fill="black" stroke="black" points="410.04,-38.09 400.5,-33.5 405.09,-43.04 410.04,-38.09"/>
<text text-anchor="middle" x="447.5" y="-57.8" font-family="Times,serif" font-size="14.00">dep</text>
</g>
<!-- 6 -->
<g id="node7" class="node">
<title>6</title>
<ellipse fill="none" stroke="black" cx="471" cy="-18" rx="39.79" ry="18"/>
<text text-anchor="middle" x="471" y="-14.3" font-family="Times,serif" font-size="14.00">prisão</text>
</g>
<!-- 0&#45;&gt;6 -->
<g id="edge6" class="edge">
<title>0&#45;&gt;6</title>
<path fill="none" stroke="black" d="M471,-86.8C471,-75.16 471,-59.55 471,-46.24"/>
<polygon fill="black" stroke="black" points="474.5,-46.18 471,-36.18 467.5,-46.18 474.5,-46.18"/>
<text text-anchor="middle" x="484.5" y="-57.8" font-family="Times,serif" font-size="14.00">dep</text>
</g>
<!-- 7 -->
<g id="node8" class="node">
<title>7</title>
<ellipse fill="none" stroke="black" cx="556" cy="-18" rx="27" ry="18"/>
<text text-anchor="middle" x="556" y="-14.3" font-family="Times,serif" font-size="14.00">de</text>
</g>
<!-- 0&#45;&gt;7 -->
<g id="edge7" class="edge">
<title>0&#45;&gt;7</title>
<path fill="none" stroke="black" d="M486.2,-88.8C499.53,-75.47 519.09,-55.91 534.12,-40.88"/>
<polygon fill="black" stroke="black" points="536.91,-43.04 541.5,-33.5 531.96,-38.09 536.91,-43.04"/>
<text text-anchor="middle" x="532.5" y="-57.8" font-family="Times,serif" font-size="14.00">dep</text>
</g>
<!-- 8 -->
<g id="node9" class="node">
<title>8</title>
<ellipse fill="none" stroke="black" cx="663" cy="-18" rx="62.29" ry="18"/>
<text text-anchor="middle" x="663" y="-14.3" font-family="Times,serif" font-size="14.00">deportação</text>
</g>
<!-- 0&#45;&gt;8 -->
<g id="edge8" class="edge">
<title>0&#45;&gt;8</title>
<path fill="none" stroke="black" d="M495.71,-93.06C527.36,-79.05 582.7,-54.55 621.02,-37.59"/>
<polygon fill="black" stroke="black" points="622.64,-40.7 630.37,-33.45 619.81,-34.29 622.64,-40.7"/>
<text text-anchor="middle" x="592.5" y="-57.8" font-family="Times,serif" font-size="14.00">dep</text>
</g>
<!-- 9 -->
<g id="node10" class="node">
<title>9</title>
<ellipse fill="none" stroke="black" cx="770" cy="-18" rx="27" ry="18"/>
<text text-anchor="middle" x="770" y="-14.3" font-family="Times,serif" font-size="14.00">»</text>
</g>
<!-- 0&#45;&gt;9 -->
<g id="edge9" class="edge">
<title>0&#45;&gt;9</title>
<path fill="none" stroke="black" d="M501.16,-98.21C550.66,-88.26 651.84,-66.05 734,-36 735.85,-35.32 737.73,-34.59 739.62,-33.81"/>
<polygon fill="black" stroke="black" points="741.2,-36.94 748.95,-29.72 738.39,-30.53 741.2,-36.94"/>
<text text-anchor="middle" x="691.5" y="-57.8" font-family="Times,serif" font-size="14.00">dep</text>
</g>
<!-- 10 -->
<g id="node11" class="node">
<title>10</title>
<ellipse fill="none" stroke="black" cx="875" cy="-18" rx="59.59" ry="18"/>
<text text-anchor="middle" x="875" y="-14.3" font-family="Times,serif" font-size="14.00">berlinense</text>
</g>
<!-- 0&#45;&gt;10 -->
<g id="edge10" class="edge">
<title>0&#45;&gt;10</title>
<path fill="none" stroke="black" d="M502.84,-100.82C548.75,-95.89 636.03,-85.26 709,-69 749.47,-59.98 794.45,-46.19 827.37,-35.38"/>
<polygon fill="black" stroke="black" points="828.79,-38.59 837.18,-32.12 826.59,-31.95 828.79,-38.59"/>
<text text-anchor="middle" x="778.5" y="-57.8" font-family="Times,serif" font-size="14.00">dep</text>
</g>
<!-- 11 -->
<g id="node12" class="node">
<title>11</title>
<ellipse fill="none" stroke="black" cx="980" cy="-18" rx="27" ry="18"/>
<text text-anchor="middle" x="980" y="-14.3" font-family="Times,serif" font-size="14.00">.</text>
</g>
<!-- 0&#45;&gt;11 -->
<g id="edge11" class="edge">
<title>0&#45;&gt;11</title>
<path fill="none" stroke="black" d="M502.99,-101.75C561.45,-97.38 689.33,-86.58 796,-69 862.5,-58.04 880.25,-57.86 944,-36 945.91,-35.34 947.86,-34.62 949.8,-33.84"/>
<polygon fill="black" stroke="black" points="951.6,-36.88 959.39,-29.69 948.82,-30.45 951.6,-36.88"/>
<text text-anchor="middle" x="894.5" y="-57.8" font-family="Times,serif" font-size="14.00">dep</text>
</g>
</g>
</svg>
