<?xml version="1.0" encoding="UTF-8" standalone="no"?>
<!DOCTYPE svg PUBLIC "-//W3C//DTD SVG 1.1//EN"
 "http://www.w3.org/Graphics/SVG/1.1/DTD/svg11.dtd">
<!-- Generated by graphviz version 2.42.4 (0)
 -->
<!-- Pages: 1 -->
<svg width="3722pt" height="131pt"
 viewBox="0.00 0.00 3722.35 131.00" xmlns="http://www.w3.org/2000/svg" xmlns:xlink="http://www.w3.org/1999/xlink">
<g id="graph0" class="graph" transform="scale(1 1) rotate(0) translate(4 127)">
<polygon fill="white" stroke="transparent" points="-4,4 -4,-127 3718.35,-127 3718.35,4 -4,4"/>
<!-- 0 -->
<g id="node1" class="node">
<title>0</title>
<ellipse fill="none" stroke="black" cx="1911.35" cy="-105" rx="35.19" ry="18"/>
<text text-anchor="middle" x="1911.35" y="-101.3" font-family="Times,serif" font-size="14.00">Mark</text>
</g>
<!-- 1 -->
<g id="node2" class="node">
<title>1</title>
<ellipse fill="none" stroke="black" cx="38.35" cy="-18" rx="38.19" ry="18"/>
<text text-anchor="middle" x="38.35" y="-14.3" font-family="Times,serif" font-size="14.00">Miller</text>
</g>
<!-- 0&#45;&gt;1 -->
<g id="edge1" class="edge">
<title>0&#45;&gt;1</title>
<path fill="none" stroke="black" d="M1875.96,-104C1644.11,-103.88 346.06,-101.76 173.35,-69 138.14,-62.32 100.02,-47.44 73.29,-35.64"/>
<polygon fill="black" stroke="black" points="74.54,-32.36 63.99,-31.45 71.67,-38.75 74.54,-32.36"/>
<text text-anchor="middle" x="186.85" y="-57.8" font-family="Times,serif" font-size="14.00">dep</text>
</g>
<!-- 2 -->
<g id="node3" class="node">
<title>2</title>
<ellipse fill="none" stroke="black" cx="121.35" cy="-18" rx="27" ry="18"/>
<text text-anchor="middle" x="121.35" y="-14.3" font-family="Times,serif" font-size="14.00">é</text>
</g>
<!-- 0&#45;&gt;2 -->
<g id="edge2" class="edge">
<title>0&#45;&gt;2</title>
<path fill="none" stroke="black" d="M1876.02,-103.84C1651.5,-102.77 427.43,-95.74 263.35,-69 214.65,-61.06 203.32,-53.91 157.35,-36 155.51,-35.28 153.64,-34.52 151.76,-33.72"/>
<polygon fill="black" stroke="black" points="153.01,-30.45 142.45,-29.57 150.16,-36.84 153.01,-30.45"/>
<text text-anchor="middle" x="276.85" y="-57.8" font-family="Times,serif" font-size="14.00">dep</text>
</g>
<!-- 3 -->
<g id="node4" class="node">
<title>3</title>
<ellipse fill="none" stroke="black" cx="193.35" cy="-18" rx="27" ry="18"/>
<text text-anchor="middle" x="193.35" y="-14.3" font-family="Times,serif" font-size="14.00">o</text>
</g>
<!-- 0&#45;&gt;3 -->
<g id="edge3" class="edge">
<title>0&#45;&gt;3</title>
<path fill="none" stroke="black" d="M1875.99,-103.93C1678.28,-103.42 707.91,-99.4 410.35,-69 329,-60.69 307.2,-61 229.35,-36 227.42,-35.38 225.47,-34.68 223.51,-33.93"/>
<polygon fill="black" stroke="black" points="224.48,-30.54 213.91,-29.84 221.74,-36.98 224.48,-30.54"/>
<text text-anchor="middle" x="423.85" y="-57.8" font-family="Times,serif" font-size="14.00">dep</text>
</g>
<!-- 4 -->
<g id="node5" class="node">
<title>4</title>
<ellipse fill="none" stroke="black" cx="330.35" cy="-18" rx="92.08" ry="18"/>
<text text-anchor="middle" x="330.35" y="-14.3" font-family="Times,serif" font-size="14.00">treinador&#45;jogador</text>
</g>
<!-- 0&#45;&gt;4 -->
<g id="edge4" class="edge">
<title>0&#45;&gt;4</title>
<path fill="none" stroke="black" d="M1876.24,-103.64C1672.83,-101.46 649.86,-89.55 511.35,-69 467.28,-62.46 418.68,-48.66 382.95,-37.21"/>
<polygon fill="black" stroke="black" points="383.82,-33.81 373.23,-34.05 381.66,-40.47 383.82,-33.81"/>
<text text-anchor="middle" x="524.85" y="-57.8" font-family="Times,serif" font-size="14.00">dep</text>
</g>
<!-- 5 -->
<g id="node6" class="node">
<title>5</title>
<ellipse fill="none" stroke="black" cx="467.35" cy="-18" rx="27" ry="18"/>
<text text-anchor="middle" x="467.35" y="-14.3" font-family="Times,serif" font-size="14.00">,</text>
</g>
<!-- 0&#45;&gt;5 -->
<g id="edge5" class="edge">
<title>0&#45;&gt;5</title>
<path fill="none" stroke="black" d="M1876.28,-103.77C1679.8,-102.41 719.56,-94.46 590.35,-69 556.8,-62.39 520.84,-46.66 496.52,-34.59"/>
<polygon fill="black" stroke="black" points="497.99,-31.41 487.49,-30.01 494.82,-37.65 497.99,-31.41"/>
<text text-anchor="middle" x="603.85" y="-57.8" font-family="Times,serif" font-size="14.00">dep</text>
</g>
<!-- 6 -->
<g id="node7" class="node">
<title>6</title>
<ellipse fill="none" stroke="black" cx="542.35" cy="-18" rx="29.8" ry="18"/>
<text text-anchor="middle" x="542.35" y="-14.3" font-family="Times,serif" font-size="14.00">mas</text>
</g>
<!-- 0&#45;&gt;6 -->
<g id="edge6" class="edge">
<title>0&#45;&gt;6</title>
<path fill="none" stroke="black" d="M1876.3,-103.68C1687.16,-101.89 792.3,-92.24 671.35,-69 636.63,-62.33 599.19,-46.8 573.63,-34.8"/>
<polygon fill="black" stroke="black" points="574.98,-31.57 564.45,-30.4 571.96,-37.88 574.98,-31.57"/>
<text text-anchor="middle" x="684.85" y="-57.8" font-family="Times,serif" font-size="14.00">dep</text>
</g>
<!-- 7 -->
<g id="node8" class="node">
<title>7</title>
<ellipse fill="none" stroke="black" cx="617.35" cy="-18" rx="27" ry="18"/>
<text text-anchor="middle" x="617.35" y="-14.3" font-family="Times,serif" font-size="14.00">é</text>
</g>
<!-- 0&#45;&gt;7 -->
<g id="edge7" class="edge">
<title>0&#45;&gt;7</title>
<path fill="none" stroke="black" d="M1876.24,-104.1C1708.71,-104.39 989.63,-103.58 768.35,-69 715.81,-60.79 703.11,-54.75 653.35,-36 651.5,-35.31 649.62,-34.55 647.74,-33.77"/>
<polygon fill="black" stroke="black" points="648.98,-30.49 638.42,-29.65 646.15,-36.89 648.98,-30.49"/>
<text text-anchor="middle" x="781.85" y="-57.8" font-family="Times,serif" font-size="14.00">dep</text>
</g>
<!-- 8 -->
<g id="node9" class="node">
<title>8</title>
<ellipse fill="none" stroke="black" cx="710.35" cy="-18" rx="48.19" ry="18"/>
<text text-anchor="middle" x="710.35" y="-14.3" font-family="Times,serif" font-size="14.00">possível</text>
</g>
<!-- 0&#45;&gt;8 -->
<g id="edge8" class="edge">
<title>0&#45;&gt;8</title>
<path fill="none" stroke="black" d="M1876.25,-104.24C1716.56,-105.12 1057.72,-106.37 855.35,-69 818.41,-62.18 778.16,-47.7 749.45,-36.06"/>
<polygon fill="black" stroke="black" points="750.76,-32.82 740.18,-32.24 748.1,-39.29 750.76,-32.82"/>
<text text-anchor="middle" x="868.85" y="-57.8" font-family="Times,serif" font-size="14.00">dep</text>
</g>
<!-- 9 -->
<g id="node10" class="node">
<title>9</title>
<ellipse fill="none" stroke="black" cx="804.35" cy="-18" rx="27.9" ry="18"/>
<text text-anchor="middle" x="804.35" y="-14.3" font-family="Times,serif" font-size="14.00">que</text>
</g>
<!-- 0&#45;&gt;9 -->
<g id="edge9" class="edge">
<title>0&#45;&gt;9</title>
<path fill="none" stroke="black" d="M1876.19,-104.01C1724.82,-103.88 1127.95,-101.28 943.35,-69 896,-60.72 885.07,-53.63 840.35,-36 838.71,-35.36 837.04,-34.67 835.37,-33.96"/>
<polygon fill="black" stroke="black" points="836.41,-30.59 825.85,-29.71 833.56,-36.98 836.41,-30.59"/>
<text text-anchor="middle" x="956.85" y="-57.8" font-family="Times,serif" font-size="14.00">dep</text>
</g>
<!-- 10 -->
<g id="node11" class="node">
<title>10</title>
<ellipse fill="none" stroke="black" cx="880.35" cy="-18" rx="30.59" ry="18"/>
<text text-anchor="middle" x="880.35" y="-14.3" font-family="Times,serif" font-size="14.00">Toni</text>
</g>
<!-- 0&#45;&gt;10 -->
<g id="edge10" class="edge">
<title>0&#45;&gt;10</title>
<path fill="none" stroke="black" d="M1876.08,-103.56C1735.14,-101.63 1212.1,-92.99 1048.35,-69 989.79,-60.42 975.32,-55.22 919.35,-36 917.25,-35.28 915.1,-34.49 912.95,-33.67"/>
<polygon fill="black" stroke="black" points="914.2,-30.39 903.62,-29.87 911.56,-36.88 914.2,-30.39"/>
<text text-anchor="middle" x="1061.85" y="-57.8" font-family="Times,serif" font-size="14.00">dep</text>
</g>
<!-- 11 -->
<g id="node12" class="node">
<title>11</title>
<ellipse fill="none" stroke="black" cx="979.35" cy="-18" rx="50.89" ry="18"/>
<text text-anchor="middle" x="979.35" y="-14.3" font-family="Times,serif" font-size="14.00">Formosa</text>
</g>
<!-- 0&#45;&gt;11 -->
<g id="edge11" class="edge">
<title>0&#45;&gt;11</title>
<path fill="none" stroke="black" d="M1876.11,-103.64C1744.42,-102.09 1281.36,-94.9 1136.35,-69 1096.33,-61.85 1052.35,-47.23 1021.15,-35.64"/>
<polygon fill="black" stroke="black" points="1022.08,-32.25 1011.49,-31.99 1019.61,-38.8 1022.08,-32.25"/>
<text text-anchor="middle" x="1149.85" y="-57.8" font-family="Times,serif" font-size="14.00">dep</text>
</g>
<!-- 12 -->
<g id="node13" class="node">
<title>12</title>
<ellipse fill="none" stroke="black" cx="1086.35" cy="-18" rx="38.19" ry="18"/>
<text text-anchor="middle" x="1086.35" y="-14.3" font-family="Times,serif" font-size="14.00">venha</text>
</g>
<!-- 0&#45;&gt;12 -->
<g id="edge12" class="edge">
<title>0&#45;&gt;12</title>
<path fill="none" stroke="black" d="M1876.22,-103.74C1753.13,-102.6 1341.88,-96.74 1213.35,-69 1180.69,-61.95 1145.48,-47.5 1120.44,-35.94"/>
<polygon fill="black" stroke="black" points="1121.91,-32.76 1111.37,-31.67 1118.93,-39.1 1121.91,-32.76"/>
<text text-anchor="middle" x="1226.85" y="-57.8" font-family="Times,serif" font-size="14.00">dep</text>
</g>
<!-- 13 -->
<g id="node14" class="node">
<title>13</title>
<ellipse fill="none" stroke="black" cx="1169.35" cy="-18" rx="27" ry="18"/>
<text text-anchor="middle" x="1169.35" y="-14.3" font-family="Times,serif" font-size="14.00">a</text>
</g>
<!-- 0&#45;&gt;13 -->
<g id="edge13" class="edge">
<title>0&#45;&gt;13</title>
<path fill="none" stroke="black" d="M1876.39,-103.4C1762.95,-101.26 1405.99,-92.74 1293.35,-69 1259.86,-61.94 1223.82,-46.43 1199.27,-34.54"/>
<polygon fill="black" stroke="black" points="1200.65,-31.32 1190.13,-30.03 1197.55,-37.6 1200.65,-31.32"/>
<text text-anchor="middle" x="1306.85" y="-57.8" font-family="Times,serif" font-size="14.00">dep</text>
</g>
<!-- 14 -->
<g id="node15" class="node">
<title>14</title>
<ellipse fill="none" stroke="black" cx="1241.35" cy="-18" rx="27" ry="18"/>
<text text-anchor="middle" x="1241.35" y="-14.3" font-family="Times,serif" font-size="14.00">ser</text>
</g>
<!-- 0&#45;&gt;14 -->
<g id="edge14" class="edge">
<title>0&#45;&gt;14</title>
<path fill="none" stroke="black" d="M1876.11,-104.67C1790.28,-105.65 1563.89,-104.36 1379.35,-69 1332.55,-60.03 1321.65,-53.54 1277.35,-36 1275.52,-35.27 1273.65,-34.5 1271.77,-33.7"/>
<polygon fill="black" stroke="black" points="1273.02,-30.42 1262.47,-29.53 1270.16,-36.81 1273.02,-30.42"/>
<text text-anchor="middle" x="1392.85" y="-57.8" font-family="Times,serif" font-size="14.00">dep</text>
</g>
<!-- 15 -->
<g id="node16" class="node">
<title>15</title>
<ellipse fill="none" stroke="black" cx="1317.35" cy="-18" rx="30.59" ry="18"/>
<text text-anchor="middle" x="1317.35" y="-14.3" font-family="Times,serif" font-size="14.00">uma</text>
</g>
<!-- 0&#45;&gt;15 -->
<g id="edge15" class="edge">
<title>0&#45;&gt;15</title>
<path fill="none" stroke="black" d="M1876.24,-103.61C1801.27,-102.25 1620.23,-96.18 1471.35,-69 1419.46,-59.53 1407.04,-53.68 1357.35,-36 1354.98,-35.16 1352.56,-34.25 1350.13,-33.3"/>
<polygon fill="black" stroke="black" points="1351.43,-30.06 1340.85,-29.54 1348.8,-36.54 1351.43,-30.06"/>
<text text-anchor="middle" x="1484.85" y="-57.8" font-family="Times,serif" font-size="14.00">dep</text>
</g>
<!-- 16 -->
<g id="node17" class="node">
<title>16</title>
<ellipse fill="none" stroke="black" cx="1411.35" cy="-18" rx="45.49" ry="18"/>
<text text-anchor="middle" x="1411.35" y="-14.3" font-family="Times,serif" font-size="14.00">espécie</text>
</g>
<!-- 0&#45;&gt;16 -->
<g id="edge16" class="edge">
<title>0&#45;&gt;16</title>
<path fill="none" stroke="black" d="M1876.35,-103.37C1811.77,-101.58 1669.8,-94.8 1553.35,-69 1517.62,-61.09 1478.51,-46.88 1450.39,-35.62"/>
<polygon fill="black" stroke="black" points="1451.51,-32.3 1440.93,-31.78 1448.88,-38.78 1451.51,-32.3"/>
<text text-anchor="middle" x="1566.85" y="-57.8" font-family="Times,serif" font-size="14.00">dep</text>
</g>
<!-- 17 -->
<g id="node18" class="node">
<title>17</title>
<ellipse fill="none" stroke="black" cx="1501.35" cy="-18" rx="27" ry="18"/>
<text text-anchor="middle" x="1501.35" y="-14.3" font-family="Times,serif" font-size="14.00">de</text>
</g>
<!-- 0&#45;&gt;17 -->
<g id="edge17" class="edge">
<title>0&#45;&gt;17</title>
<path fill="none" stroke="black" d="M1876.4,-101.86C1823.48,-98.11 1720.07,-88.78 1634.35,-69 1589.98,-58.76 1579.56,-53.08 1537.35,-36 1535.52,-35.26 1533.65,-34.48 1531.78,-33.66"/>
<polygon fill="black" stroke="black" points="1533.04,-30.39 1522.49,-29.47 1530.17,-36.77 1533.04,-30.39"/>
<text text-anchor="middle" x="1647.85" y="-57.8" font-family="Times,serif" font-size="14.00">dep</text>
</g>
<!-- 18 -->
<g id="node19" class="node">
<title>18</title>
<ellipse fill="none" stroke="black" cx="1573.35" cy="-18" rx="27" ry="18"/>
<text text-anchor="middle" x="1573.35" y="-14.3" font-family="Times,serif" font-size="14.00">«</text>
</g>
<!-- 0&#45;&gt;18 -->
<g id="edge18" class="edge">
<title>0&#45;&gt;18</title>
<path fill="none" stroke="black" d="M1877.32,-99.7C1820.36,-91.78 1702.79,-72.26 1609.35,-36 1607.51,-35.29 1605.64,-34.52 1603.76,-33.73"/>
<polygon fill="black" stroke="black" points="1605.01,-30.45 1594.45,-29.58 1602.16,-36.85 1605.01,-30.45"/>
<text text-anchor="middle" x="1728.85" y="-57.8" font-family="Times,serif" font-size="14.00">dep</text>
</g>
<!-- 19 -->
<g id="node20" class="node">
<title>19</title>
<ellipse fill="none" stroke="black" cx="1670.35" cy="-18" rx="51.99" ry="18"/>
<text text-anchor="middle" x="1670.35" y="-14.3" font-family="Times,serif" font-size="14.00">manager</text>
</g>
<!-- 0&#45;&gt;19 -->
<g id="edge19" class="edge">
<title>0&#45;&gt;19</title>
<path fill="none" stroke="black" d="M1880.16,-96.62C1854.43,-90.23 1817.12,-80.26 1785.35,-69 1759.43,-59.82 1731.09,-47.52 1709.03,-37.42"/>
<polygon fill="black" stroke="black" points="1710.22,-34.12 1699.68,-33.1 1707.29,-40.47 1710.22,-34.12"/>
<text text-anchor="middle" x="1798.85" y="-57.8" font-family="Times,serif" font-size="14.00">dep</text>
</g>
<!-- 20 -->
<g id="node21" class="node">
<title>20</title>
<ellipse fill="none" stroke="black" cx="1767.35" cy="-18" rx="27" ry="18"/>
<text text-anchor="middle" x="1767.35" y="-14.3" font-family="Times,serif" font-size="14.00">»</text>
</g>
<!-- 0&#45;&gt;20 -->
<g id="edge20" class="edge">
<title>0&#45;&gt;20</title>
<path fill="none" stroke="black" d="M1885.08,-92.95C1870.67,-86.55 1852.66,-78 1837.35,-69 1821.71,-59.82 1805.16,-48.1 1792.08,-38.32"/>
<polygon fill="black" stroke="black" points="1794.12,-35.47 1784.03,-32.21 1789.89,-41.04 1794.12,-35.47"/>
<text text-anchor="middle" x="1850.85" y="-57.8" font-family="Times,serif" font-size="14.00">dep</text>
</g>
<!-- 21 -->
<g id="node22" class="node">
<title>21</title>
<ellipse fill="none" stroke="black" cx="1839.35" cy="-18" rx="27" ry="18"/>
<text text-anchor="middle" x="1839.35" y="-14.3" font-family="Times,serif" font-size="14.00">de</text>
</g>
<!-- 0&#45;&gt;21 -->
<g id="edge21" class="edge">
<title>0&#45;&gt;21</title>
<path fill="none" stroke="black" d="M1897.33,-88.43C1891.97,-82.41 1885.82,-75.42 1880.35,-69 1873.03,-60.41 1865.14,-50.86 1858.25,-42.43"/>
<polygon fill="black" stroke="black" points="1860.78,-39.99 1851.76,-34.44 1855.35,-44.41 1860.78,-39.99"/>
<text text-anchor="middle" x="1893.85" y="-57.8" font-family="Times,serif" font-size="14.00">dep</text>
</g>
<!-- 22 -->
<g id="node23" class="node">
<title>22</title>
<ellipse fill="none" stroke="black" cx="1911.35" cy="-18" rx="27" ry="18"/>
<text text-anchor="middle" x="1911.35" y="-14.3" font-family="Times,serif" font-size="14.00">a</text>
</g>
<!-- 0&#45;&gt;22 -->
<g id="edge22" class="edge">
<title>0&#45;&gt;22</title>
<path fill="none" stroke="black" d="M1911.35,-86.8C1911.35,-75.16 1911.35,-59.55 1911.35,-46.24"/>
<polygon fill="black" stroke="black" points="1914.85,-46.18 1911.35,-36.18 1907.85,-46.18 1914.85,-46.18"/>
<text text-anchor="middle" x="1924.85" y="-57.8" font-family="Times,serif" font-size="14.00">dep</text>
</g>
<!-- 23 -->
<g id="node24" class="node">
<title>23</title>
<ellipse fill="none" stroke="black" cx="1998.35" cy="-18" rx="42.49" ry="18"/>
<text text-anchor="middle" x="1998.35" y="-14.3" font-family="Times,serif" font-size="14.00">equipa</text>
</g>
<!-- 0&#45;&gt;23 -->
<g id="edge23" class="edge">
<title>0&#45;&gt;23</title>
<path fill="none" stroke="black" d="M1926.9,-88.8C1940.14,-75.87 1959.36,-57.09 1974.53,-42.27"/>
<polygon fill="black" stroke="black" points="1977.33,-44.42 1982.04,-34.93 1972.44,-39.42 1977.33,-44.42"/>
<text text-anchor="middle" x="1973.85" y="-57.8" font-family="Times,serif" font-size="14.00">dep</text>
</g>
<!-- 24 -->
<g id="node25" class="node">
<title>24</title>
<ellipse fill="none" stroke="black" cx="2085.35" cy="-18" rx="27" ry="18"/>
<text text-anchor="middle" x="2085.35" y="-14.3" font-family="Times,serif" font-size="14.00">,</text>
</g>
<!-- 0&#45;&gt;24 -->
<g id="edge24" class="edge">
<title>0&#45;&gt;24</title>
<path fill="none" stroke="black" d="M1937.88,-92.99C1953.57,-86.34 1973.74,-77.52 1991.35,-69 2013.55,-58.26 2038.15,-45.13 2056.61,-35.02"/>
<polygon fill="black" stroke="black" points="2058.33,-38.07 2065.4,-30.18 2054.96,-31.93 2058.33,-38.07"/>
<text text-anchor="middle" x="2033.85" y="-57.8" font-family="Times,serif" font-size="14.00">dep</text>
</g>
<!-- 25 -->
<g id="node26" class="node">
<title>25</title>
<ellipse fill="none" stroke="black" cx="2160.35" cy="-18" rx="29.8" ry="18"/>
<text text-anchor="middle" x="2160.35" y="-14.3" font-family="Times,serif" font-size="14.00">com</text>
</g>
<!-- 0&#45;&gt;25 -->
<g id="edge25" class="edge">
<title>0&#45;&gt;25</title>
<path fill="none" stroke="black" d="M1943.53,-97.73C1972.23,-91.72 2015.18,-81.69 2051.35,-69 2078.38,-59.51 2107.86,-45.77 2129.33,-35.1"/>
<polygon fill="black" stroke="black" points="2130.94,-38.2 2138.3,-30.58 2127.8,-31.95 2130.94,-38.2"/>
<text text-anchor="middle" x="2101.85" y="-57.8" font-family="Times,serif" font-size="14.00">dep</text>
</g>
<!-- 26 -->
<g id="node27" class="node">
<title>26</title>
<ellipse fill="none" stroke="black" cx="2254.35" cy="-18" rx="46.29" ry="18"/>
<text text-anchor="middle" x="2254.35" y="-14.3" font-family="Times,serif" font-size="14.00">assento</text>
</g>
<!-- 0&#45;&gt;26 -->
<g id="edge26" class="edge">
<title>0&#45;&gt;26</title>
<path fill="none" stroke="black" d="M1945.27,-100.28C1986.79,-95.28 2059.02,-85.09 2119.35,-69 2152.36,-60.19 2188.61,-46.53 2215.23,-35.71"/>
<polygon fill="black" stroke="black" points="2216.66,-38.91 2224.58,-31.87 2214,-32.44 2216.66,-38.91"/>
<text text-anchor="middle" x="2178.85" y="-57.8" font-family="Times,serif" font-size="14.00">dep</text>
</g>
<!-- 27 -->
<g id="node28" class="node">
<title>27</title>
<ellipse fill="none" stroke="black" cx="2345.35" cy="-18" rx="27" ry="18"/>
<text text-anchor="middle" x="2345.35" y="-14.3" font-family="Times,serif" font-size="14.00">em</text>
</g>
<!-- 0&#45;&gt;27 -->
<g id="edge27" class="edge">
<title>0&#45;&gt;27</title>
<path fill="none" stroke="black" d="M1945.86,-101.58C1999.75,-97.38 2107,-87.41 2196.35,-69 2247.59,-58.44 2260.43,-54.56 2309.35,-36 2311.19,-35.3 2313.07,-34.55 2314.95,-33.76"/>
<polygon fill="black" stroke="black" points="2316.54,-36.88 2324.27,-29.63 2313.7,-30.48 2316.54,-36.88"/>
<text text-anchor="middle" x="2271.85" y="-57.8" font-family="Times,serif" font-size="14.00">dep</text>
</g>
<!-- 28 -->
<g id="node29" class="node">
<title>28</title>
<ellipse fill="none" stroke="black" cx="2417.35" cy="-18" rx="27" ry="18"/>
<text text-anchor="middle" x="2417.35" y="-14.3" font-family="Times,serif" font-size="14.00">o</text>
</g>
<!-- 0&#45;&gt;28 -->
<g id="edge28" class="edge">
<title>0&#45;&gt;28</title>
<path fill="none" stroke="black" d="M1946.46,-103.69C2013.78,-102.44 2165.33,-96.52 2289.35,-69 2324.04,-61.3 2361.7,-45.63 2387.13,-33.87"/>
<polygon fill="black" stroke="black" points="2388.68,-37.01 2396.24,-29.58 2385.7,-30.68 2388.68,-37.01"/>
<text text-anchor="middle" x="2349.85" y="-57.8" font-family="Times,serif" font-size="14.00">dep</text>
</g>
<!-- 29 -->
<g id="node30" class="node">
<title>29</title>
<ellipse fill="none" stroke="black" cx="2500.35" cy="-18" rx="38.19" ry="18"/>
<text text-anchor="middle" x="2500.35" y="-14.3" font-family="Times,serif" font-size="14.00">banco</text>
</g>
<!-- 0&#45;&gt;29 -->
<g id="edge29" class="edge">
<title>0&#45;&gt;29</title>
<path fill="none" stroke="black" d="M1946.45,-104.65C2023.59,-105.37 2213.28,-103.15 2367.35,-69 2401.45,-61.44 2438.52,-46.95 2464.84,-35.5"/>
<polygon fill="black" stroke="black" points="2466.29,-38.68 2474.03,-31.44 2463.46,-32.28 2466.29,-38.68"/>
<text text-anchor="middle" x="2429.85" y="-57.8" font-family="Times,serif" font-size="14.00">dep</text>
</g>
<!-- 30 -->
<g id="node31" class="node">
<title>30</title>
<ellipse fill="none" stroke="black" cx="2583.35" cy="-18" rx="27" ry="18"/>
<text text-anchor="middle" x="2583.35" y="-14.3" font-family="Times,serif" font-size="14.00">,</text>
</g>
<!-- 0&#45;&gt;30 -->
<g id="edge30" class="edge">
<title>0&#45;&gt;30</title>
<path fill="none" stroke="black" d="M1946.26,-102.88C2049.27,-99.38 2350.77,-87.77 2447.35,-69 2493.29,-60.07 2503.88,-53.36 2547.35,-36 2549.18,-35.27 2551.04,-34.49 2552.92,-33.68"/>
<polygon fill="black" stroke="black" points="2554.53,-36.8 2562.22,-29.51 2551.66,-30.41 2554.53,-36.8"/>
<text text-anchor="middle" x="2515.85" y="-57.8" font-family="Times,serif" font-size="14.00">dep</text>
</g>
<!-- 31 -->
<g id="node32" class="node">
<title>31</title>
<ellipse fill="none" stroke="black" cx="2655.35" cy="-18" rx="27" ry="18"/>
<text text-anchor="middle" x="2655.35" y="-14.3" font-family="Times,serif" font-size="14.00">se</text>
</g>
<!-- 0&#45;&gt;31 -->
<g id="edge31" class="edge">
<title>0&#45;&gt;31</title>
<path fill="none" stroke="black" d="M1946.54,-103.45C2060.73,-101.44 2420.06,-93.3 2533.35,-69 2566.34,-61.92 2601.8,-46.41 2625.93,-34.53"/>
<polygon fill="black" stroke="black" points="2627.55,-37.64 2634.92,-30.02 2624.41,-31.38 2627.55,-37.64"/>
<text text-anchor="middle" x="2595.85" y="-57.8" font-family="Times,serif" font-size="14.00">dep</text>
</g>
<!-- 32 -->
<g id="node33" class="node">
<title>32</title>
<ellipse fill="none" stroke="black" cx="2743.35" cy="-18" rx="42.79" ry="18"/>
<text text-anchor="middle" x="2743.35" y="-14.3" font-family="Times,serif" font-size="14.00">aceitar</text>
</g>
<!-- 0&#45;&gt;32 -->
<g id="edge32" class="edge">
<title>0&#45;&gt;32</title>
<path fill="none" stroke="black" d="M1946.67,-103.71C2070.43,-102.48 2483.96,-96.37 2613.35,-69 2646.28,-62.03 2681.84,-47.86 2707.43,-36.37"/>
<polygon fill="black" stroke="black" points="2709.08,-39.46 2716.72,-32.12 2706.17,-33.1 2709.08,-39.46"/>
<text text-anchor="middle" x="2674.85" y="-57.8" font-family="Times,serif" font-size="14.00">dep</text>
</g>
<!-- 33 -->
<g id="node34" class="node">
<title>33</title>
<ellipse fill="none" stroke="black" cx="2831.35" cy="-18" rx="27" ry="18"/>
<text text-anchor="middle" x="2831.35" y="-14.3" font-family="Times,serif" font-size="14.00">a</text>
</g>
<!-- 0&#45;&gt;33 -->
<g id="edge33" class="edge">
<title>0&#45;&gt;33</title>
<path fill="none" stroke="black" d="M1946.41,-103.66C2078.5,-102.2 2546.06,-95.23 2692.35,-69 2739.66,-60.52 2750.63,-53.63 2795.35,-36 2797.18,-35.28 2799.05,-34.5 2800.93,-33.7"/>
<polygon fill="black" stroke="black" points="2802.53,-36.82 2810.23,-29.54 2799.67,-30.43 2802.53,-36.82"/>
<text text-anchor="middle" x="2763.85" y="-57.8" font-family="Times,serif" font-size="14.00">dep</text>
</g>
<!-- 34 -->
<g id="node35" class="node">
<title>34</title>
<ellipse fill="none" stroke="black" cx="2928.35" cy="-18" rx="51.99" ry="18"/>
<text text-anchor="middle" x="2928.35" y="-14.3" font-family="Times,serif" font-size="14.00">proposta</text>
</g>
<!-- 0&#45;&gt;34 -->
<g id="edge34" class="edge">
<title>0&#45;&gt;34</title>
<path fill="none" stroke="black" d="M1946.48,-103.93C2088.07,-103.44 2617.13,-99.57 2781.35,-69 2818.37,-62.11 2858.76,-47.85 2887.82,-36.31"/>
<polygon fill="black" stroke="black" points="2889.26,-39.51 2897.22,-32.52 2886.64,-33.02 2889.26,-39.51"/>
<text text-anchor="middle" x="2848.85" y="-57.8" font-family="Times,serif" font-size="14.00">dep</text>
</g>
<!-- 35 -->
<g id="node36" class="node">
<title>35</title>
<ellipse fill="none" stroke="black" cx="3026.35" cy="-18" rx="27.9" ry="18"/>
<text text-anchor="middle" x="3026.35" y="-14.3" font-family="Times,serif" font-size="14.00">que</text>
</g>
<!-- 0&#45;&gt;35 -->
<g id="edge35" class="edge">
<title>0&#45;&gt;35</title>
<path fill="none" stroke="black" d="M1946.5,-103.77C2096.51,-102.64 2683.72,-96.48 2866.35,-69 2922.32,-60.58 2936.11,-55.22 2989.35,-36 2991.24,-35.32 2993.17,-34.57 2995.11,-33.79"/>
<polygon fill="black" stroke="black" points="2996.88,-36.85 3004.69,-29.69 2994.12,-30.41 2996.88,-36.85"/>
<text text-anchor="middle" x="2950.85" y="-57.8" font-family="Times,serif" font-size="14.00">dep</text>
</g>
<!-- 36 -->
<g id="node37" class="node">
<title>36</title>
<ellipse fill="none" stroke="black" cx="3099.35" cy="-18" rx="27" ry="18"/>
<text text-anchor="middle" x="3099.35" y="-14.3" font-family="Times,serif" font-size="14.00">lhe</text>
</g>
<!-- 0&#45;&gt;36 -->
<g id="edge36" class="edge">
<title>0&#45;&gt;36</title>
<path fill="none" stroke="black" d="M1946.48,-104.25C2106.33,-105.18 2765.83,-106.63 2968.35,-69 3004.21,-62.34 3042.98,-46.34 3068.96,-34.22"/>
<polygon fill="black" stroke="black" points="3070.73,-37.25 3078.26,-29.8 3067.72,-30.93 3070.73,-37.25"/>
<text text-anchor="middle" x="3033.85" y="-57.8" font-family="Times,serif" font-size="14.00">dep</text>
</g>
<!-- 37 -->
<g id="node38" class="node">
<title>37</title>
<ellipse fill="none" stroke="black" cx="3171.35" cy="-18" rx="27" ry="18"/>
<text text-anchor="middle" x="3171.35" y="-14.3" font-family="Times,serif" font-size="14.00">fez</text>
</g>
<!-- 0&#45;&gt;37 -->
<g id="edge37" class="edge">
<title>0&#45;&gt;37</title>
<path fill="none" stroke="black" d="M1946.49,-103.64C2126.48,-101.68 2941.03,-91.65 3051.35,-69 3083.8,-62.34 3118.48,-46.88 3142.18,-34.9"/>
<polygon fill="black" stroke="black" points="3144.03,-37.88 3151.31,-30.18 3140.82,-31.66 3144.03,-37.88"/>
<text text-anchor="middle" x="3112.85" y="-57.8" font-family="Times,serif" font-size="14.00">dep</text>
</g>
<!-- 38 -->
<g id="node39" class="node">
<title>38</title>
<ellipse fill="none" stroke="black" cx="3243.35" cy="-18" rx="27" ry="18"/>
<text text-anchor="middle" x="3243.35" y="-14.3" font-family="Times,serif" font-size="14.00">o</text>
</g>
<!-- 0&#45;&gt;38 -->
<g id="edge38" class="edge">
<title>0&#45;&gt;38</title>
<path fill="none" stroke="black" d="M1946.44,-103.78C2133.8,-102.47 3012.23,-95.02 3130.35,-69 3160.59,-62.34 3192.66,-47.29 3214.88,-35.43"/>
<polygon fill="black" stroke="black" points="3216.67,-38.44 3223.77,-30.58 3213.31,-32.3 3216.67,-38.44"/>
<text text-anchor="middle" x="3188.85" y="-57.8" font-family="Times,serif" font-size="14.00">dep</text>
</g>
<!-- 39 -->
<g id="node40" class="node">
<title>39</title>
<ellipse fill="none" stroke="black" cx="3348.35" cy="-18" rx="60.39" ry="18"/>
<text text-anchor="middle" x="3348.35" y="-14.3" font-family="Times,serif" font-size="14.00">presidente</text>
</g>
<!-- 0&#45;&gt;39 -->
<g id="edge39" class="edge">
<title>0&#45;&gt;39</title>
<path fill="none" stroke="black" d="M1946.66,-103.7C2141.35,-101.96 3079.59,-92.43 3206.35,-69 3241.41,-62.52 3279.42,-48.75 3307.29,-37.3"/>
<polygon fill="black" stroke="black" points="3308.83,-40.45 3316.7,-33.36 3306.13,-33.99 3308.83,-40.45"/>
<text text-anchor="middle" x="3275.85" y="-57.8" font-family="Times,serif" font-size="14.00">dep</text>
</g>
<!-- 40 -->
<g id="node41" class="node">
<title>40</title>
<ellipse fill="none" stroke="black" cx="3453.35" cy="-18" rx="27" ry="18"/>
<text text-anchor="middle" x="3453.35" y="-14.3" font-family="Times,serif" font-size="14.00">de</text>
</g>
<!-- 0&#45;&gt;40 -->
<g id="edge40" class="edge">
<title>0&#45;&gt;40</title>
<path fill="none" stroke="black" d="M1946.68,-104.23C2134.97,-105.27 3022.07,-107.98 3293.35,-69 3349.8,-60.89 3363.79,-55.59 3417.35,-36 3419.2,-35.32 3421.08,-34.59 3422.97,-33.81"/>
<polygon fill="black" stroke="black" points="3424.55,-36.94 3432.3,-29.72 3421.73,-30.53 3424.55,-36.94"/>
<text text-anchor="middle" x="3378.85" y="-57.8" font-family="Times,serif" font-size="14.00">dep</text>
</g>
<!-- 41 -->
<g id="node42" class="node">
<title>41</title>
<ellipse fill="none" stroke="black" cx="3525.35" cy="-18" rx="27" ry="18"/>
<text text-anchor="middle" x="3525.35" y="-14.3" font-family="Times,serif" font-size="14.00">o</text>
</g>
<!-- 0&#45;&gt;41 -->
<g id="edge41" class="edge">
<title>0&#45;&gt;41</title>
<path fill="none" stroke="black" d="M1946.53,-103.84C2157.44,-102.78 3249.81,-96.01 3396.35,-69 3431.74,-62.48 3469.9,-46.46 3495.46,-34.29"/>
<polygon fill="black" stroke="black" points="3497.14,-37.37 3504.61,-29.85 3494.08,-31.07 3497.14,-37.37"/>
<text text-anchor="middle" x="3461.85" y="-57.8" font-family="Times,serif" font-size="14.00">dep</text>
</g>
<!-- 42 -->
<g id="node43" class="node">
<title>42</title>
<ellipse fill="none" stroke="black" cx="3606.35" cy="-18" rx="36" ry="18"/>
<text text-anchor="middle" x="3606.35" y="-14.3" font-family="Times,serif" font-size="14.00">clube</text>
</g>
<!-- 0&#45;&gt;42 -->
<g id="edge42" class="edge">
<title>0&#45;&gt;42</title>
<path fill="none" stroke="black" d="M1946.73,-103.96C2165.04,-103.58 3324.69,-100.14 3479.35,-69 3512.51,-62.32 3548.18,-47.54 3573.25,-35.77"/>
<polygon fill="black" stroke="black" points="3574.8,-38.91 3582.31,-31.44 3571.78,-32.6 3574.8,-38.91"/>
<text text-anchor="middle" x="3543.85" y="-57.8" font-family="Times,serif" font-size="14.00">dep</text>
</g>
<!-- 43 -->
<g id="node44" class="node">
<title>43</title>
<ellipse fill="none" stroke="black" cx="3687.35" cy="-18" rx="27" ry="18"/>
<text text-anchor="middle" x="3687.35" y="-14.3" font-family="Times,serif" font-size="14.00">.</text>
</g>
<!-- 0&#45;&gt;43 -->
<g id="edge43" class="edge">
<title>0&#45;&gt;43</title>
<path fill="none" stroke="black" d="M1946.73,-103.95C2171.64,-103.53 3397.78,-99.84 3561.35,-69 3595.65,-62.53 3632.49,-46.78 3657.43,-34.67"/>
<polygon fill="black" stroke="black" points="3659.29,-37.65 3666.69,-30.07 3656.18,-31.38 3659.29,-37.65"/>
<text text-anchor="middle" x="3624.85" y="-57.8" font-family="Times,serif" font-size="14.00">dep</text>
</g>
</g>
</svg>
