<?xml version="1.0" encoding="UTF-8" standalone="no"?>
<!DOCTYPE svg PUBLIC "-//W3C//DTD SVG 1.1//EN"
 "http://www.w3.org/Graphics/SVG/1.1/DTD/svg11.dtd">
<!-- Generated by graphviz version 2.42.4 (0)
 -->
<!-- Pages: 1 -->
<svg width="182pt" height="131pt"
 viewBox="0.00 0.00 181.70 131.00" xmlns="http://www.w3.org/2000/svg" xmlns:xlink="http://www.w3.org/1999/xlink">
<g id="graph0" class="graph" transform="scale(1 1) rotate(0) translate(4 127)">
<polygon fill="white" stroke="transparent" points="-4,4 -4,-127 177.7,-127 177.7,4 -4,4"/>
<!-- 0 -->
<g id="node1" class="node">
<title>0</title>
<ellipse fill="none" stroke="black" cx="98.7" cy="-105" rx="27" ry="18"/>
<text text-anchor="middle" x="98.7" y="-101.3" font-family="Times,serif" font-size="14.00">E</text>
</g>
<!-- 1 -->
<g id="node2" class="node">
<title>1</title>
<ellipse fill="none" stroke="black" cx="50.7" cy="-18" rx="50.89" ry="18"/>
<text text-anchor="middle" x="50.7" y="-14.3" font-family="Times,serif" font-size="14.00">continua</text>
</g>
<!-- 0&#45;&gt;1 -->
<g id="edge1" class="edge">
<title>0&#45;&gt;1</title>
<path fill="none" stroke="black" d="M89.67,-88.01C82.76,-75.78 73.1,-58.68 65.13,-44.56"/>
<polygon fill="black" stroke="black" points="68.14,-42.78 60.18,-35.79 62.05,-46.22 68.14,-42.78"/>
<text text-anchor="middle" x="91.2" y="-57.8" font-family="Times,serif" font-size="14.00">dep</text>
</g>
<!-- 2 -->
<g id="node3" class="node">
<title>2</title>
<ellipse fill="none" stroke="black" cx="146.7" cy="-18" rx="27" ry="18"/>
<text text-anchor="middle" x="146.7" y="-14.3" font-family="Times,serif" font-size="14.00">:</text>
</g>
<!-- 0&#45;&gt;2 -->
<g id="edge2" class="edge">
<title>0&#45;&gt;2</title>
<path fill="none" stroke="black" d="M107.72,-88.01C114.72,-75.63 124.54,-58.23 132.57,-44.01"/>
<polygon fill="black" stroke="black" points="135.67,-45.63 137.54,-35.21 129.58,-42.19 135.67,-45.63"/>
<text text-anchor="middle" x="138.2" y="-57.8" font-family="Times,serif" font-size="14.00">dep</text>
</g>
</g>
</svg>
