<?xml version="1.0" encoding="UTF-8" standalone="no"?>
<!DOCTYPE svg PUBLIC "-//W3C//DTD SVG 1.1//EN"
 "http://www.w3.org/Graphics/SVG/1.1/DTD/svg11.dtd">
<!-- Generated by graphviz version 2.42.4 (0)
 -->
<!-- Pages: 1 -->
<svg width="885pt" height="131pt"
 viewBox="0.00 0.00 885.00 131.00" xmlns="http://www.w3.org/2000/svg" xmlns:xlink="http://www.w3.org/1999/xlink">
<g id="graph0" class="graph" transform="scale(1 1) rotate(0) translate(4 127)">
<polygon fill="white" stroke="transparent" points="-4,4 -4,-127 881,-127 881,4 -4,4"/>
<!-- 0 -->
<g id="node1" class="node">
<title>0</title>
<ellipse fill="none" stroke="black" cx="446" cy="-105" rx="32.49" ry="18"/>
<text text-anchor="middle" x="446" y="-101.3" font-family="Times,serif" font-size="14.00">Será</text>
</g>
<!-- 1 -->
<g id="node2" class="node">
<title>1</title>
<ellipse fill="none" stroke="black" cx="27" cy="-18" rx="27" ry="18"/>
<text text-anchor="middle" x="27" y="-14.3" font-family="Times,serif" font-size="14.00">a</text>
</g>
<!-- 0&#45;&gt;1 -->
<g id="edge1" class="edge">
<title>0&#45;&gt;1</title>
<path fill="none" stroke="black" d="M413.7,-102.12C360.63,-98.56 251.89,-89.31 162,-69 116.76,-58.78 106.05,-53.27 63,-36 61.17,-35.27 59.3,-34.49 57.43,-33.68"/>
<polygon fill="black" stroke="black" points="58.69,-30.41 48.13,-29.49 55.82,-36.79 58.69,-30.41"/>
<text text-anchor="middle" x="175.5" y="-57.8" font-family="Times,serif" font-size="14.00">dep</text>
</g>
<!-- 2 -->
<g id="node3" class="node">
<title>2</title>
<ellipse fill="none" stroke="black" cx="99" cy="-18" rx="27" ry="18"/>
<text text-anchor="middle" x="99" y="-14.3" font-family="Times,serif" font-size="14.00">sua</text>
</g>
<!-- 0&#45;&gt;2 -->
<g id="edge2" class="edge">
<title>0&#45;&gt;2</title>
<path fill="none" stroke="black" d="M414.19,-100.27C356.87,-92.85 233.04,-73.61 135,-36 133.16,-35.29 131.28,-34.54 129.4,-33.74"/>
<polygon fill="black" stroke="black" points="130.65,-30.47 120.09,-29.6 127.81,-36.86 130.65,-30.47"/>
<text text-anchor="middle" x="249.5" y="-57.8" font-family="Times,serif" font-size="14.00">dep</text>
</g>
<!-- 3 -->
<g id="node4" class="node">
<title>3</title>
<ellipse fill="none" stroke="black" cx="186" cy="-18" rx="41.69" ry="18"/>
<text text-anchor="middle" x="186" y="-14.3" font-family="Times,serif" font-size="14.00">quarta</text>
</g>
<!-- 0&#45;&gt;3 -->
<g id="edge3" class="edge">
<title>0&#45;&gt;3</title>
<path fill="none" stroke="black" d="M416.6,-97.11C389.87,-90.63 349.46,-80.25 315,-69 283.92,-58.86 249.42,-45.37 223.93,-34.95"/>
<polygon fill="black" stroke="black" points="225.2,-31.69 214.62,-31.13 222.54,-38.17 225.2,-31.69"/>
<text text-anchor="middle" x="328.5" y="-57.8" font-family="Times,serif" font-size="14.00">dep</text>
</g>
<!-- 4 -->
<g id="node5" class="node">
<title>4</title>
<ellipse fill="none" stroke="black" cx="287" cy="-18" rx="41.69" ry="18"/>
<text text-anchor="middle" x="287" y="-14.3" font-family="Times,serif" font-size="14.00">gestão</text>
</g>
<!-- 0&#45;&gt;4 -->
<g id="edge4" class="edge">
<title>0&#45;&gt;4</title>
<path fill="none" stroke="black" d="M421.4,-93.04C406.87,-86.4 388.2,-77.58 372,-69 354.04,-59.49 334.46,-48.05 318.62,-38.52"/>
<polygon fill="black" stroke="black" points="320.14,-35.34 309.77,-33.15 316.51,-41.33 320.14,-35.34"/>
<text text-anchor="middle" x="385.5" y="-57.8" font-family="Times,serif" font-size="14.00">dep</text>
</g>
<!-- 5 -->
<g id="node6" class="node">
<title>5</title>
<ellipse fill="none" stroke="black" cx="374" cy="-18" rx="27" ry="18"/>
<text text-anchor="middle" x="374" y="-14.3" font-family="Times,serif" font-size="14.00">a</text>
</g>
<!-- 0&#45;&gt;5 -->
<g id="edge5" class="edge">
<title>0&#45;&gt;5</title>
<path fill="none" stroke="black" d="M431.98,-88.43C426.62,-82.41 420.48,-75.42 415,-69 407.68,-60.41 399.79,-50.86 392.9,-42.43"/>
<polygon fill="black" stroke="black" points="395.44,-39.99 386.41,-34.44 390,-44.41 395.44,-39.99"/>
<text text-anchor="middle" x="428.5" y="-57.8" font-family="Times,serif" font-size="14.00">dep</text>
</g>
<!-- 6 -->
<g id="node7" class="node">
<title>6</title>
<ellipse fill="none" stroke="black" cx="446" cy="-18" rx="27" ry="18"/>
<text text-anchor="middle" x="446" y="-14.3" font-family="Times,serif" font-size="14.00">a</text>
</g>
<!-- 0&#45;&gt;6 -->
<g id="edge6" class="edge">
<title>0&#45;&gt;6</title>
<path fill="none" stroke="black" d="M446,-86.8C446,-75.16 446,-59.55 446,-46.24"/>
<polygon fill="black" stroke="black" points="449.5,-46.18 446,-36.18 442.5,-46.18 449.5,-46.18"/>
<text text-anchor="middle" x="459.5" y="-57.8" font-family="Times,serif" font-size="14.00">dep</text>
</g>
<!-- 7 -->
<g id="node8" class="node">
<title>7</title>
<ellipse fill="none" stroke="black" cx="530" cy="-18" rx="38.99" ry="18"/>
<text text-anchor="middle" x="530" y="-14.3" font-family="Times,serif" font-size="14.00">frente</text>
</g>
<!-- 0&#45;&gt;7 -->
<g id="edge7" class="edge">
<title>0&#45;&gt;7</title>
<path fill="none" stroke="black" d="M461.02,-88.8C473.88,-75.79 492.59,-56.86 507.28,-41.99"/>
<polygon fill="black" stroke="black" points="510,-44.21 514.54,-34.64 505.03,-39.29 510,-44.21"/>
<text text-anchor="middle" x="507.5" y="-57.8" font-family="Times,serif" font-size="14.00">dep</text>
</g>
<!-- 8 -->
<g id="node9" class="node">
<title>8</title>
<ellipse fill="none" stroke="black" cx="614" cy="-18" rx="27" ry="18"/>
<text text-anchor="middle" x="614" y="-14.3" font-family="Times,serif" font-size="14.00">de</text>
</g>
<!-- 0&#45;&gt;8 -->
<g id="edge8" class="edge">
<title>0&#45;&gt;8</title>
<path fill="none" stroke="black" d="M471.19,-93.56C486.85,-86.9 507.3,-77.87 525,-69 545.59,-58.68 568.21,-45.96 585.49,-35.93"/>
<polygon fill="black" stroke="black" points="587.63,-38.73 594.49,-30.67 584.09,-32.69 587.63,-38.73"/>
<text text-anchor="middle" x="566.5" y="-57.8" font-family="Times,serif" font-size="14.00">dep</text>
</g>
<!-- 9 -->
<g id="node10" class="node">
<title>9</title>
<ellipse fill="none" stroke="black" cx="686" cy="-18" rx="27" ry="18"/>
<text text-anchor="middle" x="686" y="-14.3" font-family="Times,serif" font-size="14.00">o</text>
</g>
<!-- 0&#45;&gt;9 -->
<g id="edge9" class="edge">
<title>0&#45;&gt;9</title>
<path fill="none" stroke="black" d="M476.15,-98.24C504.48,-92.39 547.81,-82.3 584,-69 609.41,-59.66 636.89,-45.97 656.92,-35.27"/>
<polygon fill="black" stroke="black" points="658.72,-38.28 665.84,-30.44 655.38,-32.12 658.72,-38.28"/>
<text text-anchor="middle" x="632.5" y="-57.8" font-family="Times,serif" font-size="14.00">dep</text>
</g>
<!-- 10 -->
<g id="node11" class="node">
<title>10</title>
<ellipse fill="none" stroke="black" cx="768" cy="-18" rx="37.09" ry="18"/>
<text text-anchor="middle" x="768" y="-14.3" font-family="Times,serif" font-size="14.00">órgão</text>
</g>
<!-- 0&#45;&gt;10 -->
<g id="edge10" class="edge">
<title>0&#45;&gt;10</title>
<path fill="none" stroke="black" d="M477.97,-100.83C518.57,-96.27 590.52,-86.45 650,-69 679.27,-60.41 711.04,-46.68 734.23,-35.78"/>
<polygon fill="black" stroke="black" points="735.78,-38.92 743.3,-31.46 732.76,-32.6 735.78,-38.92"/>
<text text-anchor="middle" x="703.5" y="-57.8" font-family="Times,serif" font-size="14.00">dep</text>
</g>
<!-- 11 -->
<g id="node12" class="node">
<title>11</title>
<ellipse fill="none" stroke="black" cx="850" cy="-18" rx="27" ry="18"/>
<text text-anchor="middle" x="850" y="-14.3" font-family="Times,serif" font-size="14.00">.</text>
</g>
<!-- 0&#45;&gt;11 -->
<g id="edge11" class="edge">
<title>0&#45;&gt;11</title>
<path fill="none" stroke="black" d="M478.16,-102.15C529.91,-98.67 634.62,-89.57 721,-69 755.81,-60.71 793.79,-45.14 819.46,-33.56"/>
<polygon fill="black" stroke="black" points="821.03,-36.7 828.67,-29.35 818.12,-30.33 821.03,-36.7"/>
<text text-anchor="middle" x="782.5" y="-57.8" font-family="Times,serif" font-size="14.00">dep</text>
</g>
</g>
</svg>
