<?xml version="1.0" encoding="UTF-8" standalone="no"?>
<!DOCTYPE svg PUBLIC "-//W3C//DTD SVG 1.1//EN"
 "http://www.w3.org/Graphics/SVG/1.1/DTD/svg11.dtd">
<!-- Generated by graphviz version 2.42.4 (0)
 -->
<!-- Pages: 1 -->
<svg width="1910pt" height="131pt"
 viewBox="0.00 0.00 1910.19 131.00" xmlns="http://www.w3.org/2000/svg" xmlns:xlink="http://www.w3.org/1999/xlink">
<g id="graph0" class="graph" transform="scale(1 1) rotate(0) translate(4 127)">
<polygon fill="white" stroke="transparent" points="-4,4 -4,-127 1906.19,-127 1906.19,4 -4,4"/>
<!-- 0 -->
<g id="node1" class="node">
<title>0</title>
<ellipse fill="none" stroke="black" cx="1088.19" cy="-105" rx="27" ry="18"/>
<text text-anchor="middle" x="1088.19" y="-101.3" font-family="Times,serif" font-size="14.00">A</text>
</g>
<!-- 1 -->
<g id="node2" class="node">
<title>1</title>
<ellipse fill="none" stroke="black" cx="57.19" cy="-18" rx="57.39" ry="18"/>
<text text-anchor="middle" x="57.19" y="-14.3" font-family="Times,serif" font-size="14.00">Gelaguela</text>
</g>
<!-- 0&#45;&gt;1 -->
<g id="edge1" class="edge">
<title>0&#45;&gt;1</title>
<path fill="none" stroke="black" d="M1060.87,-103.57C935.95,-101.51 418.48,-91.74 258.19,-69 205.52,-61.53 146.59,-45.99 106.23,-34.21"/>
<polygon fill="black" stroke="black" points="106.97,-30.77 96.38,-31.3 104.98,-37.49 106.97,-30.77"/>
<text text-anchor="middle" x="271.69" y="-57.8" font-family="Times,serif" font-size="14.00">dep</text>
</g>
<!-- 2 -->
<g id="node3" class="node">
<title>2</title>
<ellipse fill="none" stroke="black" cx="170.19" cy="-18" rx="37.89" ry="18"/>
<text text-anchor="middle" x="170.19" y="-14.3" font-family="Times,serif" font-size="14.00">maior</text>
</g>
<!-- 0&#45;&gt;2 -->
<g id="edge2" class="edge">
<title>0&#45;&gt;2</title>
<path fill="none" stroke="black" d="M1061.22,-104.07C967.37,-104 646.54,-101.27 384.19,-69 309.1,-59.76 290.09,-56.26 217.19,-36 214.28,-35.19 211.29,-34.28 208.29,-33.33"/>
<polygon fill="black" stroke="black" points="209.4,-30.01 198.8,-30.13 207.16,-36.64 209.4,-30.01"/>
<text text-anchor="middle" x="397.69" y="-57.8" font-family="Times,serif" font-size="14.00">dep</text>
</g>
<!-- 3 -->
<g id="node4" class="node">
<title>3</title>
<ellipse fill="none" stroke="black" cx="284.19" cy="-18" rx="57.69" ry="18"/>
<text text-anchor="middle" x="284.19" y="-14.3" font-family="Times,serif" font-size="14.00">fabricante</text>
</g>
<!-- 0&#45;&gt;3 -->
<g id="edge3" class="edge">
<title>0&#45;&gt;3</title>
<path fill="none" stroke="black" d="M1061.11,-104.13C976.15,-104.18 707.52,-101.55 488.19,-69 434.71,-61.06 374.75,-45.55 333.75,-33.89"/>
<polygon fill="black" stroke="black" points="334.59,-30.49 324.01,-31.1 332.66,-37.22 334.59,-30.49"/>
<text text-anchor="middle" x="501.69" y="-57.8" font-family="Times,serif" font-size="14.00">dep</text>
</g>
<!-- 4 -->
<g id="node5" class="node">
<title>4</title>
<ellipse fill="none" stroke="black" cx="409.19" cy="-18" rx="49.29" ry="18"/>
<text text-anchor="middle" x="409.19" y="-14.3" font-family="Times,serif" font-size="14.00">nacional</text>
</g>
<!-- 0&#45;&gt;4 -->
<g id="edge4" class="edge">
<title>0&#45;&gt;4</title>
<path fill="none" stroke="black" d="M1061.02,-104.15C984.72,-104.13 762.33,-101.09 581.19,-69 536.6,-61.1 487.09,-46.01 452.68,-34.46"/>
<polygon fill="black" stroke="black" points="453.54,-31.06 442.95,-31.16 451.29,-37.69 453.54,-31.06"/>
<text text-anchor="middle" x="594.69" y="-57.8" font-family="Times,serif" font-size="14.00">dep</text>
</g>
<!-- 5 -->
<g id="node6" class="node">
<title>5</title>
<ellipse fill="none" stroke="black" cx="503.19" cy="-18" rx="27" ry="18"/>
<text text-anchor="middle" x="503.19" y="-14.3" font-family="Times,serif" font-size="14.00">de</text>
</g>
<!-- 0&#45;&gt;5 -->
<g id="edge5" class="edge">
<title>0&#45;&gt;5</title>
<path fill="none" stroke="black" d="M1061.2,-104.02C980.17,-103.38 732.67,-96.26 539.19,-36 537.26,-35.4 535.31,-34.71 533.35,-33.97"/>
<polygon fill="black" stroke="black" points="534.31,-30.58 523.74,-29.9 531.58,-37.02 534.31,-30.58"/>
<text text-anchor="middle" x="685.69" y="-57.8" font-family="Times,serif" font-size="14.00">dep</text>
</g>
<!-- 6 -->
<g id="node7" class="node">
<title>6</title>
<ellipse fill="none" stroke="black" cx="614.19" cy="-18" rx="65.79" ry="18"/>
<text text-anchor="middle" x="614.19" y="-14.3" font-family="Times,serif" font-size="14.00">sobremesas</text>
</g>
<!-- 0&#45;&gt;6 -->
<g id="edge6" class="edge">
<title>0&#45;&gt;6</title>
<path fill="none" stroke="black" d="M1061.95,-100.65C1017.87,-94.92 926.23,-82.52 849.19,-69 777.25,-56.37 759.57,-51.51 688.19,-36 683.17,-34.91 677.96,-33.75 672.74,-32.58"/>
<polygon fill="black" stroke="black" points="673.25,-29.11 662.72,-30.32 671.7,-35.94 673.25,-29.11"/>
<text text-anchor="middle" x="862.69" y="-57.8" font-family="Times,serif" font-size="14.00">dep</text>
</g>
<!-- 7 -->
<g id="node8" class="node">
<title>7</title>
<ellipse fill="none" stroke="black" cx="759.19" cy="-18" rx="61.99" ry="18"/>
<text text-anchor="middle" x="759.19" y="-14.3" font-family="Times,serif" font-size="14.00">individuais</text>
</g>
<!-- 0&#45;&gt;7 -->
<g id="edge7" class="edge">
<title>0&#45;&gt;7</title>
<path fill="none" stroke="black" d="M1062.68,-98.77C1031.7,-92.31 977.9,-80.72 932.19,-69 890.85,-58.4 844.4,-44.88 810.05,-34.58"/>
<polygon fill="black" stroke="black" points="810.83,-31.16 800.25,-31.63 808.82,-37.86 810.83,-31.16"/>
<text text-anchor="middle" x="945.69" y="-57.8" font-family="Times,serif" font-size="14.00">dep</text>
</g>
<!-- 8 -->
<g id="node9" class="node">
<title>8</title>
<ellipse fill="none" stroke="black" cx="885.19" cy="-18" rx="46.29" ry="18"/>
<text text-anchor="middle" x="885.19" y="-14.3" font-family="Times,serif" font-size="14.00">geladas</text>
</g>
<!-- 0&#45;&gt;8 -->
<g id="edge8" class="edge">
<title>0&#45;&gt;8</title>
<path fill="none" stroke="black" d="M1064.87,-95.42C1046.41,-88.53 1020.02,-78.48 997.19,-69 972.35,-58.69 944.76,-46.38 923.18,-36.55"/>
<polygon fill="black" stroke="black" points="924.57,-33.34 914.02,-32.37 921.66,-39.71 924.57,-33.34"/>
<text text-anchor="middle" x="1010.69" y="-57.8" font-family="Times,serif" font-size="14.00">dep</text>
</g>
<!-- 9 -->
<g id="node10" class="node">
<title>9</title>
<ellipse fill="none" stroke="black" cx="980.19" cy="-18" rx="30.59" ry="18"/>
<text text-anchor="middle" x="980.19" y="-14.3" font-family="Times,serif" font-size="14.00">está</text>
</g>
<!-- 0&#45;&gt;9 -->
<g id="edge9" class="edge">
<title>0&#45;&gt;9</title>
<path fill="none" stroke="black" d="M1071.32,-90.72C1053.8,-76.93 1026.18,-55.19 1005.93,-39.25"/>
<polygon fill="black" stroke="black" points="1008.05,-36.47 998.03,-33.04 1003.72,-41.97 1008.05,-36.47"/>
<text text-anchor="middle" x="1054.69" y="-57.8" font-family="Times,serif" font-size="14.00">dep</text>
</g>
<!-- 10 -->
<g id="node11" class="node">
<title>10</title>
<ellipse fill="none" stroke="black" cx="1088.19" cy="-18" rx="59.29" ry="18"/>
<text text-anchor="middle" x="1088.19" y="-14.3" font-family="Times,serif" font-size="14.00">investindo</text>
</g>
<!-- 0&#45;&gt;10 -->
<g id="edge10" class="edge">
<title>0&#45;&gt;10</title>
<path fill="none" stroke="black" d="M1088.19,-86.8C1088.19,-75.16 1088.19,-59.55 1088.19,-46.24"/>
<polygon fill="black" stroke="black" points="1091.7,-46.18 1088.19,-36.18 1084.7,-46.18 1091.7,-46.18"/>
<text text-anchor="middle" x="1101.69" y="-57.8" font-family="Times,serif" font-size="14.00">dep</text>
</g>
<!-- 11 -->
<g id="node12" class="node">
<title>11</title>
<ellipse fill="none" stroke="black" cx="1196.19" cy="-18" rx="30.59" ry="18"/>
<text text-anchor="middle" x="1196.19" y="-14.3" font-family="Times,serif" font-size="14.00">US$</text>
</g>
<!-- 0&#45;&gt;11 -->
<g id="edge11" class="edge">
<title>0&#45;&gt;11</title>
<path fill="none" stroke="black" d="M1105.07,-90.72C1122.59,-76.93 1150.21,-55.19 1170.46,-39.25"/>
<polygon fill="black" stroke="black" points="1172.67,-41.97 1178.36,-33.04 1168.34,-36.47 1172.67,-41.97"/>
<text text-anchor="middle" x="1162.69" y="-57.8" font-family="Times,serif" font-size="14.00">dep</text>
</g>
<!-- 12 -->
<g id="node13" class="node">
<title>12</title>
<ellipse fill="none" stroke="black" cx="1273.19" cy="-18" rx="28.7" ry="18"/>
<text text-anchor="middle" x="1273.19" y="-14.3" font-family="Times,serif" font-size="14.00">200</text>
</g>
<!-- 0&#45;&gt;12 -->
<g id="edge12" class="edge">
<title>0&#45;&gt;12</title>
<path fill="none" stroke="black" d="M1111.99,-95.91C1130.77,-89.29 1157.5,-79.36 1180.19,-69 1202.06,-59.01 1225.93,-46.14 1244.01,-35.95"/>
<polygon fill="black" stroke="black" points="1245.93,-38.89 1252.9,-30.9 1242.47,-32.8 1245.93,-38.89"/>
<text text-anchor="middle" x="1222.69" y="-57.8" font-family="Times,serif" font-size="14.00">dep</text>
</g>
<!-- 13 -->
<g id="node14" class="node">
<title>13</title>
<ellipse fill="none" stroke="black" cx="1347.19" cy="-18" rx="27" ry="18"/>
<text text-anchor="middle" x="1347.19" y="-14.3" font-family="Times,serif" font-size="14.00">mil</text>
</g>
<!-- 0&#45;&gt;13 -->
<g id="edge13" class="edge">
<title>0&#45;&gt;13</title>
<path fill="none" stroke="black" d="M1114.2,-99.72C1144.84,-94.29 1197.04,-83.82 1240.19,-69 1273.11,-57.7 1279.68,-50.76 1311.19,-36 1312.98,-35.16 1314.81,-34.3 1316.66,-33.43"/>
<polygon fill="black" stroke="black" points="1318.33,-36.52 1325.88,-29.09 1315.35,-30.18 1318.33,-36.52"/>
<text text-anchor="middle" x="1288.69" y="-57.8" font-family="Times,serif" font-size="14.00">dep</text>
</g>
<!-- 14 -->
<g id="node15" class="node">
<title>14</title>
<ellipse fill="none" stroke="black" cx="1419.19" cy="-18" rx="27" ry="18"/>
<text text-anchor="middle" x="1419.19" y="-14.3" font-family="Times,serif" font-size="14.00">em</text>
</g>
<!-- 0&#45;&gt;14 -->
<g id="edge14" class="edge">
<title>0&#45;&gt;14</title>
<path fill="none" stroke="black" d="M1114.83,-101.85C1156.37,-98.02 1238.82,-88.52 1306.19,-69 1335.58,-60.48 1367.3,-45.94 1389.63,-34.72"/>
<polygon fill="black" stroke="black" points="1391.27,-37.81 1398.59,-30.15 1388.09,-31.58 1391.27,-37.81"/>
<text text-anchor="middle" x="1361.69" y="-57.8" font-family="Times,serif" font-size="14.00">dep</text>
</g>
<!-- 15 -->
<g id="node16" class="node">
<title>15</title>
<ellipse fill="none" stroke="black" cx="1491.19" cy="-18" rx="27" ry="18"/>
<text text-anchor="middle" x="1491.19" y="-14.3" font-family="Times,serif" font-size="14.00">o</text>
</g>
<!-- 0&#45;&gt;15 -->
<g id="edge15" class="edge">
<title>0&#45;&gt;15</title>
<path fill="none" stroke="black" d="M1115.17,-103.35C1167.14,-101.54 1284.41,-94.69 1379.19,-69 1408.69,-61.01 1440.31,-46.26 1462.4,-34.85"/>
<polygon fill="black" stroke="black" points="1464.04,-37.95 1471.26,-30.19 1460.78,-31.75 1464.04,-37.95"/>
<text text-anchor="middle" x="1434.69" y="-57.8" font-family="Times,serif" font-size="14.00">dep</text>
</g>
<!-- 16 -->
<g id="node17" class="node">
<title>16</title>
<ellipse fill="none" stroke="black" cx="1583.19" cy="-18" rx="46.59" ry="18"/>
<text text-anchor="middle" x="1583.19" y="-14.3" font-family="Times,serif" font-size="14.00">sistema</text>
</g>
<!-- 0&#45;&gt;16 -->
<g id="edge16" class="edge">
<title>0&#45;&gt;16</title>
<path fill="none" stroke="black" d="M1115.54,-103.86C1176.71,-103.01 1328.88,-97.9 1452.19,-69 1484.56,-61.41 1519.67,-47.69 1545.39,-36.54"/>
<polygon fill="black" stroke="black" points="1547.02,-39.65 1554.76,-32.41 1544.2,-33.24 1547.02,-39.65"/>
<text text-anchor="middle" x="1513.69" y="-57.8" font-family="Times,serif" font-size="14.00">dep</text>
</g>
<!-- 17 -->
<g id="node18" class="node">
<title>17</title>
<ellipse fill="none" stroke="black" cx="1675.19" cy="-18" rx="27" ry="18"/>
<text text-anchor="middle" x="1675.19" y="-14.3" font-family="Times,serif" font-size="14.00">de</text>
</g>
<!-- 0&#45;&gt;17 -->
<g id="edge17" class="edge">
<title>0&#45;&gt;17</title>
<path fill="none" stroke="black" d="M1115.18,-103.9C1184.75,-103.21 1375.63,-98.55 1531.19,-69 1580.5,-59.63 1592.38,-54.1 1639.19,-36 1641.03,-35.29 1642.91,-34.53 1644.79,-33.73"/>
<polygon fill="black" stroke="black" points="1646.39,-36.85 1654.1,-29.59 1643.54,-30.46 1646.39,-36.85"/>
<text text-anchor="middle" x="1603.69" y="-57.8" font-family="Times,serif" font-size="14.00">dep</text>
</g>
<!-- 18 -->
<g id="node19" class="node">
<title>18</title>
<ellipse fill="none" stroke="black" cx="1775.19" cy="-18" rx="54.69" ry="18"/>
<text text-anchor="middle" x="1775.19" y="-14.3" font-family="Times,serif" font-size="14.00">franquias</text>
</g>
<!-- 0&#45;&gt;18 -->
<g id="edge18" class="edge">
<title>0&#45;&gt;18</title>
<path fill="none" stroke="black" d="M1115.4,-104.58C1194.37,-105.75 1430.18,-105.69 1621.19,-69 1659.8,-61.58 1702.19,-47.35 1732.71,-35.96"/>
<polygon fill="black" stroke="black" points="1734.07,-39.18 1742.18,-32.37 1731.59,-32.64 1734.07,-39.18"/>
<text text-anchor="middle" x="1691.69" y="-57.8" font-family="Times,serif" font-size="14.00">dep</text>
</g>
<!-- 19 -->
<g id="node20" class="node">
<title>19</title>
<ellipse fill="none" stroke="black" cx="1875.19" cy="-18" rx="27" ry="18"/>
<text text-anchor="middle" x="1875.19" y="-14.3" font-family="Times,serif" font-size="14.00">.</text>
</g>
<!-- 0&#45;&gt;19 -->
<g id="edge19" class="edge">
<title>0&#45;&gt;19</title>
<path fill="none" stroke="black" d="M1115.32,-104.32C1202.27,-104.97 1481.59,-103.97 1709.19,-69 1768.11,-59.95 1783.09,-56.15 1839.19,-36 1841.05,-35.33 1842.94,-34.61 1844.83,-33.84"/>
<polygon fill="black" stroke="black" points="1846.4,-36.97 1854.16,-29.76 1843.6,-30.55 1846.4,-36.97"/>
<text text-anchor="middle" x="1797.69" y="-57.8" font-family="Times,serif" font-size="14.00">dep</text>
</g>
</g>
</svg>
