<?xml version="1.0" encoding="UTF-8" standalone="no"?>
<!DOCTYPE svg PUBLIC "-//W3C//DTD SVG 1.1//EN"
 "http://www.w3.org/Graphics/SVG/1.1/DTD/svg11.dtd">
<!-- Generated by graphviz version 2.42.4 (0)
 -->
<!-- Pages: 1 -->
<svg width="632pt" height="131pt"
 viewBox="0.00 0.00 632.00 131.00" xmlns="http://www.w3.org/2000/svg" xmlns:xlink="http://www.w3.org/1999/xlink">
<g id="graph0" class="graph" transform="scale(1 1) rotate(0) translate(4 127)">
<polygon fill="white" stroke="transparent" points="-4,4 -4,-127 628,-127 628,4 -4,4"/>
<!-- 0 -->
<g id="node1" class="node">
<title>0</title>
<ellipse fill="none" stroke="black" cx="296" cy="-105" rx="27" ry="18"/>
<text text-anchor="middle" x="296" y="-101.3" font-family="Times,serif" font-size="14.00">Por</text>
</g>
<!-- 1 -->
<g id="node2" class="node">
<title>1</title>
<ellipse fill="none" stroke="black" cx="27" cy="-18" rx="27" ry="18"/>
<text text-anchor="middle" x="27" y="-14.3" font-family="Times,serif" font-size="14.00">o</text>
</g>
<!-- 0&#45;&gt;1 -->
<g id="edge1" class="edge">
<title>0&#45;&gt;1</title>
<path fill="none" stroke="black" d="M269.54,-100.61C235.97,-95.84 176.58,-85.78 128,-69 102.46,-60.18 75.07,-46.32 55.27,-35.43"/>
<polygon fill="black" stroke="black" points="56.91,-32.33 46.47,-30.51 53.49,-38.44 56.91,-32.33"/>
<text text-anchor="middle" x="141.5" y="-57.8" font-family="Times,serif" font-size="14.00">dep</text>
</g>
<!-- 2 -->
<g id="node3" class="node">
<title>2</title>
<ellipse fill="none" stroke="black" cx="99" cy="-18" rx="27" ry="18"/>
<text text-anchor="middle" x="99" y="-14.3" font-family="Times,serif" font-size="14.00">seu</text>
</g>
<!-- 0&#45;&gt;2 -->
<g id="edge2" class="edge">
<title>0&#45;&gt;2</title>
<path fill="none" stroke="black" d="M271.28,-97.37C249.27,-91.13 216.41,-80.96 189,-69 167.58,-59.65 144.55,-46.8 127.16,-36.47"/>
<polygon fill="black" stroke="black" points="128.49,-33.19 118.12,-31.03 124.88,-39.19 128.49,-33.19"/>
<text text-anchor="middle" x="202.5" y="-57.8" font-family="Times,serif" font-size="14.00">dep</text>
</g>
<!-- 3 -->
<g id="node4" class="node">
<title>3</title>
<ellipse fill="none" stroke="black" cx="175" cy="-18" rx="30.59" ry="18"/>
<text text-anchor="middle" x="175" y="-14.3" font-family="Times,serif" font-size="14.00">lado</text>
</g>
<!-- 0&#45;&gt;3 -->
<g id="edge3" class="edge">
<title>0&#45;&gt;3</title>
<path fill="none" stroke="black" d="M276.52,-92.47C265.62,-85.85 251.86,-77.24 240,-69 226.64,-59.72 212.26,-48.76 200.42,-39.47"/>
<polygon fill="black" stroke="black" points="202.33,-36.51 192.31,-33.05 197.98,-42 202.33,-36.51"/>
<text text-anchor="middle" x="253.5" y="-57.8" font-family="Times,serif" font-size="14.00">dep</text>
</g>
<!-- 4 -->
<g id="node5" class="node">
<title>4</title>
<ellipse fill="none" stroke="black" cx="251" cy="-18" rx="27" ry="18"/>
<text text-anchor="middle" x="251" y="-14.3" font-family="Times,serif" font-size="14.00">,</text>
</g>
<!-- 0&#45;&gt;4 -->
<g id="edge4" class="edge">
<title>0&#45;&gt;4</title>
<path fill="none" stroke="black" d="M287.32,-87.61C280.85,-75.38 271.88,-58.44 264.48,-44.46"/>
<polygon fill="black" stroke="black" points="267.42,-42.54 259.65,-35.34 261.24,-45.81 267.42,-42.54"/>
<text text-anchor="middle" x="290.5" y="-57.8" font-family="Times,serif" font-size="14.00">dep</text>
</g>
<!-- 5 -->
<g id="node6" class="node">
<title>5</title>
<ellipse fill="none" stroke="black" cx="342" cy="-18" rx="46.29" ry="18"/>
<text text-anchor="middle" x="342" y="-14.3" font-family="Times,serif" font-size="14.00">António</text>
</g>
<!-- 0&#45;&gt;5 -->
<g id="edge5" class="edge">
<title>0&#45;&gt;5</title>
<path fill="none" stroke="black" d="M304.87,-87.61C311.4,-75.54 320.42,-58.88 327.93,-45"/>
<polygon fill="black" stroke="black" points="331.16,-46.38 332.84,-35.92 325.01,-43.05 331.16,-46.38"/>
<text text-anchor="middle" x="335.5" y="-57.8" font-family="Times,serif" font-size="14.00">dep</text>
</g>
<!-- 6 -->
<g id="node7" class="node">
<title>6</title>
<ellipse fill="none" stroke="black" cx="443" cy="-18" rx="37.09" ry="18"/>
<text text-anchor="middle" x="443" y="-14.3" font-family="Times,serif" font-size="14.00">Pinho</text>
</g>
<!-- 0&#45;&gt;6 -->
<g id="edge6" class="edge">
<title>0&#45;&gt;6</title>
<path fill="none" stroke="black" d="M315.83,-92.54C340.29,-78.39 382.21,-54.15 411.2,-37.39"/>
<polygon fill="black" stroke="black" points="413.21,-40.27 420.11,-32.23 409.71,-34.21 413.21,-40.27"/>
<text text-anchor="middle" x="392.5" y="-57.8" font-family="Times,serif" font-size="14.00">dep</text>
</g>
<!-- 7 -->
<g id="node8" class="node">
<title>7</title>
<ellipse fill="none" stroke="black" cx="525" cy="-18" rx="27" ry="18"/>
<text text-anchor="middle" x="525" y="-14.3" font-family="Times,serif" font-size="14.00">diz</text>
</g>
<!-- 0&#45;&gt;7 -->
<g id="edge7" class="edge">
<title>0&#45;&gt;7</title>
<path fill="none" stroke="black" d="M320.69,-97.18C343.94,-90.57 379.63,-79.98 410,-69 445.79,-56.07 454.23,-51.46 489,-36 490.8,-35.2 492.65,-34.37 494.5,-33.52"/>
<polygon fill="black" stroke="black" points="496.15,-36.61 503.75,-29.23 493.21,-30.26 496.15,-36.61"/>
<text text-anchor="middle" x="462.5" y="-57.8" font-family="Times,serif" font-size="14.00">dep</text>
</g>
<!-- 8 -->
<g id="node9" class="node">
<title>8</title>
<ellipse fill="none" stroke="black" cx="597" cy="-18" rx="27" ry="18"/>
<text text-anchor="middle" x="597" y="-14.3" font-family="Times,serif" font-size="14.00">:</text>
</g>
<!-- 0&#45;&gt;8 -->
<g id="edge8" class="edge">
<title>0&#45;&gt;8</title>
<path fill="none" stroke="black" d="M322.29,-100.68C358.35,-95.74 424.96,-85.27 480,-69 517.28,-57.98 525.41,-51.64 561,-36 562.8,-35.21 564.65,-34.38 566.51,-33.54"/>
<polygon fill="black" stroke="black" points="568.16,-36.63 575.77,-29.26 565.22,-30.28 568.16,-36.63"/>
<text text-anchor="middle" x="535.5" y="-57.8" font-family="Times,serif" font-size="14.00">dep</text>
</g>
</g>
</svg>
