<?xml version="1.0" encoding="UTF-8" standalone="no"?>
<!DOCTYPE svg PUBLIC "-//W3C//DTD SVG 1.1//EN"
 "http://www.w3.org/Graphics/SVG/1.1/DTD/svg11.dtd">
<!-- Generated by graphviz version 2.42.4 (0)
 -->
<!-- Pages: 1 -->
<svg width="471pt" height="131pt"
 viewBox="0.00 0.00 470.55 131.00" xmlns="http://www.w3.org/2000/svg" xmlns:xlink="http://www.w3.org/1999/xlink">
<g id="graph0" class="graph" transform="scale(1 1) rotate(0) translate(4 127)">
<polygon fill="white" stroke="transparent" points="-4,4 -4,-127 466.55,-127 466.55,4 -4,4"/>
<!-- 0 -->
<g id="node1" class="node">
<title>0</title>
<ellipse fill="none" stroke="black" cx="269.55" cy="-105" rx="27" ry="18"/>
<text text-anchor="middle" x="269.55" y="-101.3" font-family="Times,serif" font-size="14.00">&#45;&#45;</text>
</g>
<!-- 1 -->
<g id="node2" class="node">
<title>1</title>
<ellipse fill="none" stroke="black" cx="30.55" cy="-18" rx="30.59" ry="18"/>
<text text-anchor="middle" x="30.55" y="-14.3" font-family="Times,serif" font-size="14.00">Mas</text>
</g>
<!-- 0&#45;&gt;1 -->
<g id="edge1" class="edge">
<title>0&#45;&gt;1</title>
<path fill="none" stroke="black" d="M245.61,-96.57C207.85,-84.7 132.3,-60.3 69.55,-36 67.69,-35.28 65.79,-34.52 63.87,-33.74"/>
<polygon fill="black" stroke="black" points="64.92,-30.39 54.34,-29.75 62.21,-36.84 64.92,-30.39"/>
<text text-anchor="middle" x="171.05" y="-57.8" font-family="Times,serif" font-size="14.00">dep</text>
</g>
<!-- 2 -->
<g id="node3" class="node">
<title>2</title>
<ellipse fill="none" stroke="black" cx="151.55" cy="-18" rx="72.59" ry="18"/>
<text text-anchor="middle" x="151.55" y="-14.3" font-family="Times,serif" font-size="14.00">normalmente</text>
</g>
<!-- 0&#45;&gt;2 -->
<g id="edge2" class="edge">
<title>0&#45;&gt;2</title>
<path fill="none" stroke="black" d="M251.88,-91.27C233.61,-78.11 204.69,-57.28 182.59,-41.36"/>
<polygon fill="black" stroke="black" points="184.35,-38.32 174.19,-35.31 180.26,-44 184.35,-38.32"/>
<text text-anchor="middle" x="232.05" y="-57.8" font-family="Times,serif" font-size="14.00">dep</text>
</g>
<!-- 3 -->
<g id="node4" class="node">
<title>3</title>
<ellipse fill="none" stroke="black" cx="269.55" cy="-18" rx="27" ry="18"/>
<text text-anchor="middle" x="269.55" y="-14.3" font-family="Times,serif" font-size="14.00">é</text>
</g>
<!-- 0&#45;&gt;3 -->
<g id="edge3" class="edge">
<title>0&#45;&gt;3</title>
<path fill="none" stroke="black" d="M269.55,-86.8C269.55,-75.16 269.55,-59.55 269.55,-46.24"/>
<polygon fill="black" stroke="black" points="273.05,-46.18 269.55,-36.18 266.05,-46.18 273.05,-46.18"/>
<text text-anchor="middle" x="283.05" y="-57.8" font-family="Times,serif" font-size="14.00">dep</text>
</g>
<!-- 4 -->
<g id="node5" class="node">
<title>4</title>
<ellipse fill="none" stroke="black" cx="352.55" cy="-18" rx="37.89" ry="18"/>
<text text-anchor="middle" x="352.55" y="-14.3" font-family="Times,serif" font-size="14.00">assim</text>
</g>
<!-- 0&#45;&gt;4 -->
<g id="edge4" class="edge">
<title>0&#45;&gt;4</title>
<path fill="none" stroke="black" d="M283.63,-89.58C296.31,-76.59 315.17,-57.27 329.96,-42.13"/>
<polygon fill="black" stroke="black" points="332.79,-44.24 337.27,-34.64 327.78,-39.35 332.79,-44.24"/>
<text text-anchor="middle" x="330.05" y="-57.8" font-family="Times,serif" font-size="14.00">dep</text>
</g>
<!-- 5 -->
<g id="node6" class="node">
<title>5</title>
<ellipse fill="none" stroke="black" cx="435.55" cy="-18" rx="27" ry="18"/>
<text text-anchor="middle" x="435.55" y="-14.3" font-family="Times,serif" font-size="14.00">!</text>
</g>
<!-- 0&#45;&gt;5 -->
<g id="edge5" class="edge">
<title>0&#45;&gt;5</title>
<path fill="none" stroke="black" d="M292,-94.6C307.73,-87.85 329.15,-78.33 347.55,-69 367.91,-58.68 390.27,-45.95 407.36,-35.92"/>
<polygon fill="black" stroke="black" points="409.44,-38.76 416.26,-30.66 405.87,-32.73 409.44,-38.76"/>
<text text-anchor="middle" x="389.05" y="-57.8" font-family="Times,serif" font-size="14.00">dep</text>
</g>
</g>
</svg>
