<?xml version="1.0" encoding="UTF-8" standalone="no"?>
<!DOCTYPE svg PUBLIC "-//W3C//DTD SVG 1.1//EN"
 "http://www.w3.org/Graphics/SVG/1.1/DTD/svg11.dtd">
<!-- Generated by graphviz version 2.42.4 (0)
 -->
<!-- Pages: 1 -->
<svg width="3724pt" height="131pt"
 viewBox="0.00 0.00 3724.00 131.00" xmlns="http://www.w3.org/2000/svg" xmlns:xlink="http://www.w3.org/1999/xlink">
<g id="graph0" class="graph" transform="scale(1 1) rotate(0) translate(4 127)">
<polygon fill="white" stroke="transparent" points="-4,4 -4,-127 3720,-127 3720,4 -4,4"/>
<!-- 0 -->
<g id="node1" class="node">
<title>0</title>
<ellipse fill="none" stroke="black" cx="1794" cy="-105" rx="27" ry="18"/>
<text text-anchor="middle" x="1794" y="-101.3" font-family="Times,serif" font-size="14.00">Em</text>
</g>
<!-- 1 -->
<g id="node2" class="node">
<title>1</title>
<ellipse fill="none" stroke="black" cx="27" cy="-18" rx="27" ry="18"/>
<text text-anchor="middle" x="27" y="-14.3" font-family="Times,serif" font-size="14.00">o</text>
</g>
<!-- 0&#45;&gt;1 -->
<g id="edge1" class="edge">
<title>0&#45;&gt;1</title>
<path fill="none" stroke="black" d="M1766.84,-103.9C1567.07,-103.09 328.11,-96.94 164,-69 125.99,-62.53 84.72,-46.06 57.52,-33.78"/>
<polygon fill="black" stroke="black" points="58.71,-30.48 48.16,-29.47 55.78,-36.84 58.71,-30.48"/>
<text text-anchor="middle" x="177.5" y="-57.8" font-family="Times,serif" font-size="14.00">dep</text>
</g>
<!-- 2 -->
<g id="node3" class="node">
<title>2</title>
<ellipse fill="none" stroke="black" cx="118" cy="-18" rx="46.29" ry="18"/>
<text text-anchor="middle" x="118" y="-14.3" font-family="Times,serif" font-size="14.00">entanto</text>
</g>
<!-- 0&#45;&gt;2 -->
<g id="edge2" class="edge">
<title>0&#45;&gt;2</title>
<path fill="none" stroke="black" d="M1766.93,-103.97C1573.06,-103.65 398.81,-100.41 244,-69 212.44,-62.6 178.62,-48.75 153.97,-37.25"/>
<polygon fill="black" stroke="black" points="155.2,-33.96 144.67,-32.82 152.19,-40.28 155.2,-33.96"/>
<text text-anchor="middle" x="257.5" y="-57.8" font-family="Times,serif" font-size="14.00">dep</text>
</g>
<!-- 3 -->
<g id="node4" class="node">
<title>3</title>
<ellipse fill="none" stroke="black" cx="209" cy="-18" rx="27" ry="18"/>
<text text-anchor="middle" x="209" y="-14.3" font-family="Times,serif" font-size="14.00">,</text>
</g>
<!-- 0&#45;&gt;3 -->
<g id="edge3" class="edge">
<title>0&#45;&gt;3</title>
<path fill="none" stroke="black" d="M1767.02,-104.01C1578.72,-103.97 464.35,-102.36 318,-69 289,-62.39 258.42,-47.59 237.06,-35.79"/>
<polygon fill="black" stroke="black" points="238.64,-32.67 228.22,-30.79 235.2,-38.76 238.64,-32.67"/>
<text text-anchor="middle" x="331.5" y="-57.8" font-family="Times,serif" font-size="14.00">dep</text>
</g>
<!-- 4 -->
<g id="node5" class="node">
<title>4</title>
<ellipse fill="none" stroke="black" cx="281" cy="-18" rx="27" ry="18"/>
<text text-anchor="middle" x="281" y="-14.3" font-family="Times,serif" font-size="14.00">a</text>
</g>
<!-- 0&#45;&gt;4 -->
<g id="edge4" class="edge">
<title>0&#45;&gt;4</title>
<path fill="none" stroke="black" d="M1766.94,-103.95C1584.06,-103.5 531.76,-99.64 393,-69 362.98,-62.37 331.2,-47.32 309.19,-35.45"/>
<polygon fill="black" stroke="black" points="310.84,-32.36 300.39,-30.59 307.45,-38.49 310.84,-32.36"/>
<text text-anchor="middle" x="406.5" y="-57.8" font-family="Times,serif" font-size="14.00">dep</text>
</g>
<!-- 5 -->
<g id="node6" class="node">
<title>5</title>
<ellipse fill="none" stroke="black" cx="355" cy="-18" rx="28.7" ry="18"/>
<text text-anchor="middle" x="355" y="-14.3" font-family="Times,serif" font-size="14.00">luta</text>
</g>
<!-- 0&#45;&gt;5 -->
<g id="edge5" class="edge">
<title>0&#45;&gt;5</title>
<path fill="none" stroke="black" d="M1766.98,-103.91C1589.96,-103.26 598.9,-98.33 468,-69 438.14,-62.31 406.48,-47.55 384.29,-35.8"/>
<polygon fill="black" stroke="black" points="385.85,-32.66 375.39,-30.97 382.52,-38.82 385.85,-32.66"/>
<text text-anchor="middle" x="481.5" y="-57.8" font-family="Times,serif" font-size="14.00">dep</text>
</g>
<!-- 6 -->
<g id="node7" class="node">
<title>6</title>
<ellipse fill="none" stroke="black" cx="429" cy="-18" rx="27" ry="18"/>
<text text-anchor="middle" x="429" y="-14.3" font-family="Times,serif" font-size="14.00">por</text>
</g>
<!-- 0&#45;&gt;6 -->
<g id="edge6" class="edge">
<title>0&#45;&gt;6</title>
<path fill="none" stroke="black" d="M1766.93,-103.83C1595.86,-102.67 668.2,-95.21 545,-69 513.84,-62.37 480.7,-47.17 457.85,-35.26"/>
<polygon fill="black" stroke="black" points="459.2,-32.01 448.73,-30.39 455.9,-38.18 459.2,-32.01"/>
<text text-anchor="middle" x="558.5" y="-57.8" font-family="Times,serif" font-size="14.00">dep</text>
</g>
<!-- 7 -->
<g id="node8" class="node">
<title>7</title>
<ellipse fill="none" stroke="black" cx="501" cy="-18" rx="27" ry="18"/>
<text text-anchor="middle" x="501" y="-14.3" font-family="Times,serif" font-size="14.00">a</text>
</g>
<!-- 0&#45;&gt;7 -->
<g id="edge7" class="edge">
<title>0&#45;&gt;7</title>
<path fill="none" stroke="black" d="M1766.81,-103.73C1601.92,-102 739.29,-91.92 624,-69 590.47,-62.33 554.51,-46.61 530.18,-34.56"/>
<polygon fill="black" stroke="black" points="531.65,-31.38 521.15,-29.99 528.49,-37.63 531.65,-31.38"/>
<text text-anchor="middle" x="637.5" y="-57.8" font-family="Times,serif" font-size="14.00">dep</text>
</g>
<!-- 8 -->
<g id="node9" class="node">
<title>8</title>
<ellipse fill="none" stroke="black" cx="573" cy="-18" rx="27" ry="18"/>
<text text-anchor="middle" x="573" y="-14.3" font-family="Times,serif" font-size="14.00">«</text>
</g>
<!-- 0&#45;&gt;8 -->
<g id="edge8" class="edge">
<title>0&#45;&gt;8</title>
<path fill="none" stroke="black" d="M1766.92,-104.19C1620.32,-105.03 920.39,-106.99 708,-69 670.75,-62.34 630.34,-46.07 603.54,-33.88"/>
<polygon fill="black" stroke="black" points="604.85,-30.64 594.31,-29.6 601.91,-36.99 604.85,-30.64"/>
<text text-anchor="middle" x="721.5" y="-57.8" font-family="Times,serif" font-size="14.00">dep</text>
</g>
<!-- 9 -->
<g id="node10" class="node">
<title>9</title>
<ellipse fill="none" stroke="black" cx="649" cy="-18" rx="30.59" ry="18"/>
<text text-anchor="middle" x="649" y="-14.3" font-family="Times,serif" font-size="14.00">pole</text>
</g>
<!-- 0&#45;&gt;9 -->
<g id="edge9" class="edge">
<title>0&#45;&gt;9</title>
<path fill="none" stroke="black" d="M1766.59,-103.95C1627.12,-103.57 995.32,-100.14 802,-69 750.35,-60.68 738.27,-53.6 689,-36 686.64,-35.16 684.21,-34.24 681.78,-33.3"/>
<polygon fill="black" stroke="black" points="683.09,-30.05 672.51,-29.53 680.46,-36.54 683.09,-30.05"/>
<text text-anchor="middle" x="815.5" y="-57.8" font-family="Times,serif" font-size="14.00">dep</text>
</g>
<!-- 10 -->
<g id="node11" class="node">
<title>10</title>
<ellipse fill="none" stroke="black" cx="746" cy="-18" rx="48.19" ry="18"/>
<text text-anchor="middle" x="746" y="-14.3" font-family="Times,serif" font-size="14.00">position</text>
</g>
<!-- 0&#45;&gt;10 -->
<g id="edge10" class="edge">
<title>0&#45;&gt;10</title>
<path fill="none" stroke="black" d="M1766.63,-104.09C1634.13,-104.37 1058.49,-103.51 883,-69 848.59,-62.23 811.32,-48.16 784.35,-36.66"/>
<polygon fill="black" stroke="black" points="785.47,-33.33 774.9,-32.55 782.68,-39.75 785.47,-33.33"/>
<text text-anchor="middle" x="896.5" y="-57.8" font-family="Times,serif" font-size="14.00">dep</text>
</g>
<!-- 11 -->
<g id="node12" class="node">
<title>11</title>
<ellipse fill="none" stroke="black" cx="839" cy="-18" rx="27" ry="18"/>
<text text-anchor="middle" x="839" y="-14.3" font-family="Times,serif" font-size="14.00">»</text>
</g>
<!-- 0&#45;&gt;11 -->
<g id="edge11" class="edge">
<title>0&#45;&gt;11</title>
<path fill="none" stroke="black" d="M1766.95,-104.02C1642.13,-103.95 1121.15,-101.64 962,-69 928.71,-62.17 892.97,-46.63 868.64,-34.67"/>
<polygon fill="black" stroke="black" points="870.1,-31.48 859.59,-30.12 866.96,-37.74 870.1,-31.48"/>
<text text-anchor="middle" x="975.5" y="-57.8" font-family="Times,serif" font-size="14.00">dep</text>
</g>
<!-- 12 -->
<g id="node13" class="node">
<title>12</title>
<ellipse fill="none" stroke="black" cx="911" cy="-18" rx="27.1" ry="18"/>
<text text-anchor="middle" x="911" y="-14.3" font-family="Times,serif" font-size="14.00">não</text>
</g>
<!-- 0&#45;&gt;12 -->
<g id="edge12" class="edge">
<title>0&#45;&gt;12</title>
<path fill="none" stroke="black" d="M1766.78,-103.68C1650.1,-102.14 1191.73,-94.58 1050,-69 1002.69,-60.46 991.72,-53.63 947,-36 945.17,-35.28 943.3,-34.5 941.42,-33.7"/>
<polygon fill="black" stroke="black" points="942.67,-30.43 932.12,-29.54 939.81,-36.82 942.67,-30.43"/>
<text text-anchor="middle" x="1063.5" y="-57.8" font-family="Times,serif" font-size="14.00">dep</text>
</g>
<!-- 13 -->
<g id="node14" class="node">
<title>13</title>
<ellipse fill="none" stroke="black" cx="987" cy="-18" rx="30.59" ry="18"/>
<text text-anchor="middle" x="987" y="-14.3" font-family="Times,serif" font-size="14.00">está</text>
</g>
<!-- 0&#45;&gt;13 -->
<g id="edge13" class="edge">
<title>0&#45;&gt;13</title>
<path fill="none" stroke="black" d="M1766.87,-103.3C1660.28,-100.42 1270.11,-88.73 1148,-69 1092.97,-60.11 1079.66,-54.28 1027,-36 1024.63,-35.18 1022.2,-34.28 1019.77,-33.35"/>
<polygon fill="black" stroke="black" points="1021.07,-30.1 1010.48,-29.61 1018.45,-36.59 1021.07,-30.1"/>
<text text-anchor="middle" x="1161.5" y="-57.8" font-family="Times,serif" font-size="14.00">dep</text>
</g>
<!-- 14 -->
<g id="node15" class="node">
<title>14</title>
<ellipse fill="none" stroke="black" cx="1072" cy="-18" rx="36.29" ry="18"/>
<text text-anchor="middle" x="1072" y="-14.3" font-family="Times,serif" font-size="14.00">ainda</text>
</g>
<!-- 0&#45;&gt;14 -->
<g id="edge14" class="edge">
<title>0&#45;&gt;14</title>
<path fill="none" stroke="black" d="M1766.85,-103.9C1687.46,-103.24 1449.03,-98.75 1254,-69 1192.51,-59.62 1177.49,-54.14 1118,-36 1115.08,-35.11 1112.08,-34.14 1109.07,-33.12"/>
<polygon fill="black" stroke="black" points="1110.15,-29.79 1099.55,-29.77 1107.83,-36.39 1110.15,-29.79"/>
<text text-anchor="middle" x="1267.5" y="-57.8" font-family="Times,serif" font-size="14.00">dep</text>
</g>
<!-- 15 -->
<g id="node16" class="node">
<title>15</title>
<ellipse fill="none" stroke="black" cx="1185" cy="-18" rx="58.49" ry="18"/>
<text text-anchor="middle" x="1185" y="-14.3" font-family="Times,serif" font-size="14.00">terminada</text>
</g>
<!-- 0&#45;&gt;15 -->
<g id="edge15" class="edge">
<title>0&#45;&gt;15</title>
<path fill="none" stroke="black" d="M1766.9,-104.09C1696.14,-103.87 1500.26,-100.23 1341,-69 1302.34,-61.42 1259.85,-47.41 1228.99,-36.14"/>
<polygon fill="black" stroke="black" points="1229.99,-32.78 1219.4,-32.59 1227.56,-39.34 1229.99,-32.78"/>
<text text-anchor="middle" x="1354.5" y="-57.8" font-family="Times,serif" font-size="14.00">dep</text>
</g>
<!-- 16 -->
<g id="node17" class="node">
<title>16</title>
<ellipse fill="none" stroke="black" cx="1288" cy="-18" rx="27" ry="18"/>
<text text-anchor="middle" x="1288" y="-14.3" font-family="Times,serif" font-size="14.00">,</text>
</g>
<!-- 0&#45;&gt;16 -->
<g id="edge16" class="edge">
<title>0&#45;&gt;16</title>
<path fill="none" stroke="black" d="M1766.91,-103.66C1704.84,-102.41 1547.82,-96.54 1420,-69 1384.1,-61.27 1345,-45.45 1318.75,-33.67"/>
<polygon fill="black" stroke="black" points="1319.9,-30.35 1309.35,-29.38 1316.99,-36.72 1319.9,-30.35"/>
<text text-anchor="middle" x="1433.5" y="-57.8" font-family="Times,serif" font-size="14.00">dep</text>
</g>
<!-- 17 -->
<g id="node18" class="node">
<title>17</title>
<ellipse fill="none" stroke="black" cx="1363" cy="-18" rx="29.8" ry="18"/>
<text text-anchor="middle" x="1363" y="-14.3" font-family="Times,serif" font-size="14.00">com</text>
</g>
<!-- 0&#45;&gt;17 -->
<g id="edge17" class="edge">
<title>0&#45;&gt;17</title>
<path fill="none" stroke="black" d="M1767.23,-102.54C1715.59,-99.34 1598.89,-90.22 1503,-69 1456.89,-58.8 1446.14,-52.79 1402,-36 1399.92,-35.21 1397.8,-34.37 1395.66,-33.51"/>
<polygon fill="black" stroke="black" points="1396.94,-30.25 1386.36,-29.61 1394.23,-36.7 1396.94,-30.25"/>
<text text-anchor="middle" x="1516.5" y="-57.8" font-family="Times,serif" font-size="14.00">dep</text>
</g>
<!-- 18 -->
<g id="node19" class="node">
<title>18</title>
<ellipse fill="none" stroke="black" cx="1438" cy="-18" rx="27" ry="18"/>
<text text-anchor="middle" x="1438" y="-14.3" font-family="Times,serif" font-size="14.00">o</text>
</g>
<!-- 0&#45;&gt;18 -->
<g id="edge18" class="edge">
<title>0&#45;&gt;18</title>
<path fill="none" stroke="black" d="M1767.52,-101.13C1711.74,-94.51 1578.66,-75.57 1474,-36 1472.16,-35.3 1470.28,-34.55 1468.4,-33.76"/>
<polygon fill="black" stroke="black" points="1469.64,-30.49 1459.08,-29.64 1466.81,-36.89 1469.64,-30.49"/>
<text text-anchor="middle" x="1591.5" y="-57.8" font-family="Times,serif" font-size="14.00">dep</text>
</g>
<!-- 19 -->
<g id="node20" class="node">
<title>19</title>
<ellipse fill="none" stroke="black" cx="1528" cy="-18" rx="44.69" ry="18"/>
<text text-anchor="middle" x="1528" y="-14.3" font-family="Times,serif" font-size="14.00">francês</text>
</g>
<!-- 0&#45;&gt;19 -->
<g id="edge19" class="edge">
<title>0&#45;&gt;19</title>
<path fill="none" stroke="black" d="M1768.88,-98.37C1741.59,-92.05 1696.83,-81.08 1659,-69 1627.75,-59.02 1593.09,-45.69 1567.28,-35.3"/>
<polygon fill="black" stroke="black" points="1568.42,-31.99 1557.84,-31.48 1565.8,-38.48 1568.42,-31.99"/>
<text text-anchor="middle" x="1672.5" y="-57.8" font-family="Times,serif" font-size="14.00">dep</text>
</g>
<!-- 20 -->
<g id="node21" class="node">
<title>20</title>
<ellipse fill="none" stroke="black" cx="1625" cy="-18" rx="34.39" ry="18"/>
<text text-anchor="middle" x="1625" y="-14.3" font-family="Times,serif" font-size="14.00">Alain</text>
</g>
<!-- 0&#45;&gt;20 -->
<g id="edge20" class="edge">
<title>0&#45;&gt;20</title>
<path fill="none" stroke="black" d="M1771.88,-94.25C1756.62,-87.42 1735.94,-77.94 1718,-69 1697.32,-58.69 1674.46,-46.42 1656.58,-36.61"/>
<polygon fill="black" stroke="black" points="1658.17,-33.49 1647.73,-31.73 1654.8,-39.62 1658.17,-33.49"/>
<text text-anchor="middle" x="1731.5" y="-57.8" font-family="Times,serif" font-size="14.00">dep</text>
</g>
<!-- 21 -->
<g id="node22" class="node">
<title>21</title>
<ellipse fill="none" stroke="black" cx="1713" cy="-18" rx="36" ry="18"/>
<text text-anchor="middle" x="1713" y="-14.3" font-family="Times,serif" font-size="14.00">Prost</text>
</g>
<!-- 0&#45;&gt;21 -->
<g id="edge21" class="edge">
<title>0&#45;&gt;21</title>
<path fill="none" stroke="black" d="M1779.89,-89.19C1767.46,-76.15 1749.16,-56.95 1734.84,-41.92"/>
<polygon fill="black" stroke="black" points="1737.2,-39.32 1727.77,-34.5 1732.13,-44.15 1737.2,-39.32"/>
<text text-anchor="middle" x="1772.5" y="-57.8" font-family="Times,serif" font-size="14.00">dep</text>
</g>
<!-- 22 -->
<g id="node23" class="node">
<title>22</title>
<ellipse fill="none" stroke="black" cx="1794" cy="-18" rx="27" ry="18"/>
<text text-anchor="middle" x="1794" y="-14.3" font-family="Times,serif" font-size="14.00">(</text>
</g>
<!-- 0&#45;&gt;22 -->
<g id="edge22" class="edge">
<title>0&#45;&gt;22</title>
<path fill="none" stroke="black" d="M1794,-86.8C1794,-75.16 1794,-59.55 1794,-46.24"/>
<polygon fill="black" stroke="black" points="1797.5,-46.18 1794,-36.18 1790.5,-46.18 1797.5,-46.18"/>
<text text-anchor="middle" x="1807.5" y="-57.8" font-family="Times,serif" font-size="14.00">dep</text>
</g>
<!-- 23 -->
<g id="node24" class="node">
<title>23</title>
<ellipse fill="none" stroke="black" cx="1890" cy="-18" rx="50.89" ry="18"/>
<text text-anchor="middle" x="1890" y="-14.3" font-family="Times,serif" font-size="14.00">Williams</text>
</g>
<!-- 0&#45;&gt;23 -->
<g id="edge23" class="edge">
<title>0&#45;&gt;23</title>
<path fill="none" stroke="black" d="M1809.85,-89.96C1824.63,-76.88 1846.93,-57.13 1864.26,-41.79"/>
<polygon fill="black" stroke="black" points="1866.66,-44.34 1871.83,-35.09 1862.02,-39.1 1866.66,-44.34"/>
<text text-anchor="middle" x="1861.5" y="-57.8" font-family="Times,serif" font-size="14.00">dep</text>
</g>
<!-- 24 -->
<g id="node25" class="node">
<title>24</title>
<ellipse fill="none" stroke="black" cx="1986" cy="-18" rx="27" ry="18"/>
<text text-anchor="middle" x="1986" y="-14.3" font-family="Times,serif" font-size="14.00">/</text>
</g>
<!-- 0&#45;&gt;24 -->
<g id="edge24" class="edge">
<title>0&#45;&gt;24</title>
<path fill="none" stroke="black" d="M1816.84,-94.91C1834.02,-88 1858.1,-78.16 1879,-69 1910.87,-55.04 1918.49,-50.76 1950,-36 1951.78,-35.16 1953.62,-34.3 1955.47,-33.43"/>
<polygon fill="black" stroke="black" points="1957.13,-36.52 1964.69,-29.09 1954.15,-30.18 1957.13,-36.52"/>
<text text-anchor="middle" x="1925.5" y="-57.8" font-family="Times,serif" font-size="14.00">dep</text>
</g>
<!-- 25 -->
<g id="node26" class="node">
<title>25</title>
<ellipse fill="none" stroke="black" cx="2078" cy="-18" rx="46.59" ry="18"/>
<text text-anchor="middle" x="2078" y="-14.3" font-family="Times,serif" font-size="14.00">Renault</text>
</g>
<!-- 0&#45;&gt;25 -->
<g id="edge25" class="edge">
<title>0&#45;&gt;25</title>
<path fill="none" stroke="black" d="M1819.56,-99C1849.45,-92.93 1900.26,-81.88 1943,-69 1975.4,-59.24 2011.28,-45.82 2037.9,-35.34"/>
<polygon fill="black" stroke="black" points="2039.27,-38.56 2047.27,-31.62 2036.69,-32.06 2039.27,-38.56"/>
<text text-anchor="middle" x="2002.5" y="-57.8" font-family="Times,serif" font-size="14.00">dep</text>
</g>
<!-- 26 -->
<g id="node27" class="node">
<title>26</title>
<ellipse fill="none" stroke="black" cx="2170" cy="-18" rx="27" ry="18"/>
<text text-anchor="middle" x="2170" y="-14.3" font-family="Times,serif" font-size="14.00">)</text>
</g>
<!-- 0&#45;&gt;26 -->
<g id="edge26" class="edge">
<title>0&#45;&gt;26</title>
<path fill="none" stroke="black" d="M1820.84,-101.65C1879.37,-95.87 2022.23,-78.26 2134,-36 2135.84,-35.3 2137.72,-34.55 2139.6,-33.76"/>
<polygon fill="black" stroke="black" points="2141.19,-36.89 2148.92,-29.64 2138.36,-30.49 2141.19,-36.89"/>
<text text-anchor="middle" x="2085.5" y="-57.8" font-family="Times,serif" font-size="14.00">dep</text>
</g>
<!-- 27 -->
<g id="node28" class="node">
<title>27</title>
<ellipse fill="none" stroke="black" cx="2242" cy="-18" rx="27" ry="18"/>
<text text-anchor="middle" x="2242" y="-14.3" font-family="Times,serif" font-size="14.00">a</text>
</g>
<!-- 0&#45;&gt;27 -->
<g id="edge27" class="edge">
<title>0&#45;&gt;27</title>
<path fill="none" stroke="black" d="M1821.16,-102.73C1875.3,-99.79 2000.33,-91.04 2103,-69 2150,-58.91 2161.28,-53.63 2206,-36 2207.83,-35.28 2209.7,-34.5 2211.58,-33.7"/>
<polygon fill="black" stroke="black" points="2213.19,-36.82 2220.88,-29.54 2210.33,-30.43 2213.19,-36.82"/>
<text text-anchor="middle" x="2172.5" y="-57.8" font-family="Times,serif" font-size="14.00">dep</text>
</g>
<!-- 28 -->
<g id="node29" class="node">
<title>28</title>
<ellipse fill="none" stroke="black" cx="2341" cy="-18" rx="53.89" ry="18"/>
<text text-anchor="middle" x="2341" y="-14.3" font-family="Times,serif" font-size="14.00">prometer</text>
</g>
<!-- 0&#45;&gt;28 -->
<g id="edge28" class="edge">
<title>0&#45;&gt;28</title>
<path fill="none" stroke="black" d="M1821.2,-103.75C1885.85,-102.7 2053.47,-97.24 2190,-69 2227.42,-61.26 2268.5,-47.28 2298.35,-36.07"/>
<polygon fill="black" stroke="black" points="2299.92,-39.22 2308.02,-32.39 2297.43,-32.67 2299.92,-39.22"/>
<text text-anchor="middle" x="2258.5" y="-57.8" font-family="Times,serif" font-size="14.00">dep</text>
</g>
<!-- 29 -->
<g id="node30" class="node">
<title>29</title>
<ellipse fill="none" stroke="black" cx="2440" cy="-18" rx="27" ry="18"/>
<text text-anchor="middle" x="2440" y="-14.3" font-family="Times,serif" font-size="14.00">dar</text>
</g>
<!-- 0&#45;&gt;29 -->
<g id="edge29" class="edge">
<title>0&#45;&gt;29</title>
<path fill="none" stroke="black" d="M1821.11,-103.73C1894.74,-102.65 2104.4,-97.12 2276,-69 2333.98,-59.5 2348.75,-55.97 2404,-36 2405.85,-35.33 2407.74,-34.6 2409.63,-33.83"/>
<polygon fill="black" stroke="black" points="2411.2,-36.96 2418.96,-29.75 2408.4,-30.55 2411.2,-36.96"/>
<text text-anchor="middle" x="2363.5" y="-57.8" font-family="Times,serif" font-size="14.00">dep</text>
</g>
<!-- 30 -->
<g id="node31" class="node">
<title>30</title>
<ellipse fill="none" stroke="black" cx="2514" cy="-18" rx="28.7" ry="18"/>
<text text-anchor="middle" x="2514" y="-14.3" font-family="Times,serif" font-size="14.00">luta</text>
</g>
<!-- 0&#45;&gt;30 -->
<g id="edge30" class="edge">
<title>0&#45;&gt;30</title>
<path fill="none" stroke="black" d="M1821.06,-103.37C1921.33,-100.89 2271.62,-90.82 2381,-69 2417.2,-61.78 2456.51,-45.92 2482.94,-33.98"/>
<polygon fill="black" stroke="black" points="2484.44,-37.15 2492.06,-29.79 2481.52,-30.79 2484.44,-37.15"/>
<text text-anchor="middle" x="2447.5" y="-57.8" font-family="Times,serif" font-size="14.00">dep</text>
</g>
<!-- 31 -->
<g id="node32" class="node">
<title>31</title>
<ellipse fill="none" stroke="black" cx="2588" cy="-18" rx="27" ry="18"/>
<text text-anchor="middle" x="2588" y="-14.3" font-family="Times,serif" font-size="14.00">a</text>
</g>
<!-- 0&#45;&gt;31 -->
<g id="edge31" class="edge">
<title>0&#45;&gt;31</title>
<path fill="none" stroke="black" d="M1821.12,-103.7C1930.44,-102.34 2338.86,-95.53 2465,-69 2498.26,-62 2534,-46.48 2558.34,-34.58"/>
<polygon fill="black" stroke="black" points="2560.01,-37.65 2567.4,-30.05 2556.89,-31.39 2560.01,-37.65"/>
<text text-anchor="middle" x="2527.5" y="-57.8" font-family="Times,serif" font-size="14.00">dep</text>
</g>
<!-- 32 -->
<g id="node33" class="node">
<title>32</title>
<ellipse fill="none" stroke="black" cx="2660" cy="-18" rx="27" ry="18"/>
<text text-anchor="middle" x="2660" y="-14.3" font-family="Times,serif" font-size="14.00">o</text>
</g>
<!-- 0&#45;&gt;32 -->
<g id="edge32" class="edge">
<title>0&#45;&gt;32</title>
<path fill="none" stroke="black" d="M1821.14,-104C1938.53,-103.79 2403.01,-100.92 2545,-69 2575.67,-62.11 2608.32,-47.09 2630.97,-35.3"/>
<polygon fill="black" stroke="black" points="2632.84,-38.26 2640.02,-30.48 2629.55,-32.08 2632.84,-38.26"/>
<text text-anchor="middle" x="2604.5" y="-57.8" font-family="Times,serif" font-size="14.00">dep</text>
</g>
<!-- 33 -->
<g id="node34" class="node">
<title>33</title>
<ellipse fill="none" stroke="black" cx="2760" cy="-18" rx="55.49" ry="18"/>
<text text-anchor="middle" x="2760" y="-14.3" font-family="Times,serif" font-size="14.00">brasileiro</text>
</g>
<!-- 0&#45;&gt;33 -->
<g id="edge33" class="edge">
<title>0&#45;&gt;33</title>
<path fill="none" stroke="black" d="M1821.33,-103.96C1946.24,-103.62 2463.56,-100.28 2622,-69 2656.07,-62.27 2692.97,-48.54 2720.03,-37.17"/>
<polygon fill="black" stroke="black" points="2721.72,-40.25 2729.53,-33.1 2718.96,-33.82 2721.72,-40.25"/>
<text text-anchor="middle" x="2686.5" y="-57.8" font-family="Times,serif" font-size="14.00">dep</text>
</g>
<!-- 34 -->
<g id="node35" class="node">
<title>34</title>
<ellipse fill="none" stroke="black" cx="2860" cy="-18" rx="27" ry="18"/>
<text text-anchor="middle" x="2860" y="-14.3" font-family="Times,serif" font-size="14.00">,</text>
</g>
<!-- 0&#45;&gt;34 -->
<g id="edge34" class="edge">
<title>0&#45;&gt;34</title>
<path fill="none" stroke="black" d="M1821.29,-103.8C1953.4,-102.68 2527.44,-96.3 2704,-69 2758.66,-60.55 2772.13,-55.21 2824,-36 2825.85,-35.32 2827.73,-34.57 2829.62,-33.79"/>
<polygon fill="black" stroke="black" points="2831.2,-36.92 2838.94,-29.69 2828.38,-30.51 2831.2,-36.92"/>
<text text-anchor="middle" x="2787.5" y="-57.8" font-family="Times,serif" font-size="14.00">dep</text>
</g>
<!-- 35 -->
<g id="node36" class="node">
<title>35</title>
<ellipse fill="none" stroke="black" cx="2936" cy="-18" rx="30.59" ry="18"/>
<text text-anchor="middle" x="2936" y="-14.3" font-family="Times,serif" font-size="14.00">hoje</text>
</g>
<!-- 0&#45;&gt;35 -->
<g id="edge35" class="edge">
<title>0&#45;&gt;35</title>
<path fill="none" stroke="black" d="M1821.04,-104.2C1961.48,-105.09 2608.65,-107.02 2805,-69 2840.18,-62.19 2878.21,-46.68 2904.19,-34.73"/>
<polygon fill="black" stroke="black" points="2905.96,-37.76 2913.52,-30.35 2902.98,-31.43 2905.96,-37.76"/>
<text text-anchor="middle" x="2870.5" y="-57.8" font-family="Times,serif" font-size="14.00">dep</text>
</g>
<!-- 36 -->
<g id="node37" class="node">
<title>36</title>
<ellipse fill="none" stroke="black" cx="3012" cy="-18" rx="27" ry="18"/>
<text text-anchor="middle" x="3012" y="-14.3" font-family="Times,serif" font-size="14.00">,</text>
</g>
<!-- 0&#45;&gt;36 -->
<g id="edge36" class="edge">
<title>0&#45;&gt;36</title>
<path fill="none" stroke="black" d="M1820.95,-103.66C1978.82,-101.62 2780.52,-90.27 2888,-69 2921.77,-62.32 2958.03,-46.6 2982.56,-34.55"/>
<polygon fill="black" stroke="black" points="2984.31,-37.59 2991.68,-29.98 2981.17,-31.33 2984.31,-37.59"/>
<text text-anchor="middle" x="2951.5" y="-57.8" font-family="Times,serif" font-size="14.00">dep</text>
</g>
<!-- 37 -->
<g id="node38" class="node">
<title>37</title>
<ellipse fill="none" stroke="black" cx="3084" cy="-18" rx="27" ry="18"/>
<text text-anchor="middle" x="3084" y="-14.3" font-family="Times,serif" font-size="14.00">em</text>
</g>
<!-- 0&#45;&gt;37 -->
<g id="edge37" class="edge">
<title>0&#45;&gt;37</title>
<path fill="none" stroke="black" d="M1821.05,-103.78C1986.04,-102.39 2853.55,-93.94 2969,-69 2999.72,-62.36 3032.37,-47.31 3055,-35.44"/>
<polygon fill="black" stroke="black" points="3056.89,-38.4 3064.05,-30.59 3053.58,-32.23 3056.89,-38.4"/>
<text text-anchor="middle" x="3028.5" y="-57.8" font-family="Times,serif" font-size="14.00">dep</text>
</g>
<!-- 38 -->
<g id="node39" class="node">
<title>38</title>
<ellipse fill="none" stroke="black" cx="3156" cy="-18" rx="27" ry="18"/>
<text text-anchor="middle" x="3156" y="-14.3" font-family="Times,serif" font-size="14.00">a</text>
</g>
<!-- 0&#45;&gt;38 -->
<g id="edge38" class="edge">
<title>0&#45;&gt;38</title>
<path fill="none" stroke="black" d="M1821.15,-103.88C1992.69,-103 2922.89,-97.01 3046,-69 3075.22,-62.35 3106.08,-47.55 3127.66,-35.77"/>
<polygon fill="black" stroke="black" points="3129.57,-38.71 3136.59,-30.77 3126.15,-32.6 3129.57,-38.71"/>
<text text-anchor="middle" x="3103.5" y="-57.8" font-family="Times,serif" font-size="14.00">dep</text>
</g>
<!-- 39 -->
<g id="node40" class="node">
<title>39</title>
<ellipse fill="none" stroke="black" cx="3261" cy="-18" rx="59.59" ry="18"/>
<text text-anchor="middle" x="3261" y="-14.3" font-family="Times,serif" font-size="14.00">derradeira</text>
</g>
<!-- 0&#45;&gt;39 -->
<g id="edge39" class="edge">
<title>0&#45;&gt;39</title>
<path fill="none" stroke="black" d="M1821.01,-103.8C1998.02,-102.42 2989.04,-93.65 3121,-69 3155.61,-62.53 3193.09,-48.76 3220.55,-37.31"/>
<polygon fill="black" stroke="black" points="3221.99,-40.5 3229.82,-33.37 3219.25,-34.05 3221.99,-40.5"/>
<text text-anchor="middle" x="3190.5" y="-57.8" font-family="Times,serif" font-size="14.00">dep</text>
</g>
<!-- 40 -->
<g id="node41" class="node">
<title>40</title>
<ellipse fill="none" stroke="black" cx="3380" cy="-18" rx="41.69" ry="18"/>
<text text-anchor="middle" x="3380" y="-14.3" font-family="Times,serif" font-size="14.00">sessão</text>
</g>
<!-- 0&#45;&gt;40 -->
<g id="edge40" class="edge">
<title>0&#45;&gt;40</title>
<path fill="none" stroke="black" d="M1821.24,-104.21C1992.84,-105.43 2925.96,-110.03 3208,-69 3254.35,-62.26 3305.71,-46.14 3340.13,-34.01"/>
<polygon fill="black" stroke="black" points="3341.57,-37.21 3349.81,-30.55 3339.21,-30.62 3341.57,-37.21"/>
<text text-anchor="middle" x="3289.5" y="-57.8" font-family="Times,serif" font-size="14.00">dep</text>
</g>
<!-- 41 -->
<g id="node42" class="node">
<title>41</title>
<ellipse fill="none" stroke="black" cx="3467" cy="-18" rx="27" ry="18"/>
<text text-anchor="middle" x="3467" y="-14.3" font-family="Times,serif" font-size="14.00">de</text>
</g>
<!-- 0&#45;&gt;41 -->
<g id="edge41" class="edge">
<title>0&#45;&gt;41</title>
<path fill="none" stroke="black" d="M1821,-103.76C2011.85,-102.02 3154.51,-90.74 3307,-69 3363.46,-60.95 3377.44,-55.59 3431,-36 3432.85,-35.32 3434.73,-34.59 3436.62,-33.81"/>
<polygon fill="black" stroke="black" points="3438.2,-36.94 3445.95,-29.72 3435.39,-30.53 3438.2,-36.94"/>
<text text-anchor="middle" x="3392.5" y="-57.8" font-family="Times,serif" font-size="14.00">dep</text>
</g>
<!-- 42 -->
<g id="node43" class="node">
<title>42</title>
<ellipse fill="none" stroke="black" cx="3578" cy="-18" rx="65.79" ry="18"/>
<text text-anchor="middle" x="3578" y="-14.3" font-family="Times,serif" font-size="14.00">qualificação</text>
</g>
<!-- 0&#45;&gt;42 -->
<g id="edge42" class="edge">
<title>0&#45;&gt;42</title>
<path fill="none" stroke="black" d="M1821.23,-103.85C2020.22,-102.69 3247.04,-94.54 3410,-69 3452.14,-62.4 3498.5,-48.03 3531.82,-36.39"/>
<polygon fill="black" stroke="black" points="3533.04,-39.67 3541.29,-33.03 3530.7,-33.08 3533.04,-39.67"/>
<text text-anchor="middle" x="3489.5" y="-57.8" font-family="Times,serif" font-size="14.00">dep</text>
</g>
<!-- 43 -->
<g id="node44" class="node">
<title>43</title>
<ellipse fill="none" stroke="black" cx="3689" cy="-18" rx="27" ry="18"/>
<text text-anchor="middle" x="3689" y="-14.3" font-family="Times,serif" font-size="14.00">.</text>
</g>
<!-- 0&#45;&gt;43 -->
<g id="edge43" class="edge">
<title>0&#45;&gt;43</title>
<path fill="none" stroke="black" d="M1821.19,-103.78C2026.75,-102.04 3332.98,-90.22 3507,-69 3573.04,-60.95 3590.1,-57.67 3653,-36 3654.91,-35.34 3656.86,-34.61 3658.8,-33.84"/>
<polygon fill="black" stroke="black" points="3660.6,-36.87 3668.38,-29.68 3657.82,-30.45 3660.6,-36.87"/>
<text text-anchor="middle" x="3609.5" y="-57.8" font-family="Times,serif" font-size="14.00">dep</text>
</g>
</g>
</svg>
