<?xml version="1.0" encoding="UTF-8" standalone="no"?>
<!DOCTYPE svg PUBLIC "-//W3C//DTD SVG 1.1//EN"
 "http://www.w3.org/Graphics/SVG/1.1/DTD/svg11.dtd">
<!-- Generated by graphviz version 2.42.4 (0)
 -->
<!-- Pages: 1 -->
<svg width="979pt" height="131pt"
 viewBox="0.00 0.00 979.00 131.00" xmlns="http://www.w3.org/2000/svg" xmlns:xlink="http://www.w3.org/1999/xlink">
<g id="graph0" class="graph" transform="scale(1 1) rotate(0) translate(4 127)">
<polygon fill="white" stroke="transparent" points="-4,4 -4,-127 975,-127 975,4 -4,4"/>
<!-- 0 -->
<g id="node1" class="node">
<title>0</title>
<ellipse fill="none" stroke="black" cx="419" cy="-105" rx="51.19" ry="18"/>
<text text-anchor="middle" x="419" y="-101.3" font-family="Times,serif" font-size="14.00">Exemplo</text>
</g>
<!-- 1 -->
<g id="node2" class="node">
<title>1</title>
<ellipse fill="none" stroke="black" cx="27" cy="-18" rx="27" ry="18"/>
<text text-anchor="middle" x="27" y="-14.3" font-family="Times,serif" font-size="14.00">:</text>
</g>
<!-- 0&#45;&gt;1 -->
<g id="edge1" class="edge">
<title>0&#45;&gt;1</title>
<path fill="none" stroke="black" d="M369.45,-100C299.29,-93.14 167.86,-75.79 63,-36 61.16,-35.3 59.28,-34.55 57.4,-33.76"/>
<polygon fill="black" stroke="black" points="58.64,-30.48 48.08,-29.63 55.81,-36.88 58.64,-30.48"/>
<text text-anchor="middle" x="181.5" y="-57.8" font-family="Times,serif" font-size="14.00">dep</text>
</g>
<!-- 2 -->
<g id="node3" class="node">
<title>2</title>
<ellipse fill="none" stroke="black" cx="120" cy="-18" rx="48.19" ry="18"/>
<text text-anchor="middle" x="120" y="-14.3" font-family="Times,serif" font-size="14.00">fractura</text>
</g>
<!-- 0&#45;&gt;2 -->
<g id="edge2" class="edge">
<title>0&#45;&gt;2</title>
<path fill="none" stroke="black" d="M373.32,-96.62C339.03,-90.58 291.11,-81.08 250,-69 218.94,-59.88 184.8,-46.62 159.31,-36.05"/>
<polygon fill="black" stroke="black" points="160.56,-32.78 149.99,-32.14 157.86,-39.23 160.56,-32.78"/>
<text text-anchor="middle" x="263.5" y="-57.8" font-family="Times,serif" font-size="14.00">dep</text>
</g>
<!-- 3 -->
<g id="node4" class="node">
<title>3</title>
<ellipse fill="none" stroke="black" cx="213" cy="-18" rx="27" ry="18"/>
<text text-anchor="middle" x="213" y="-14.3" font-family="Times,serif" font-size="14.00">de</text>
</g>
<!-- 0&#45;&gt;3 -->
<g id="edge3" class="edge">
<title>0&#45;&gt;3</title>
<path fill="none" stroke="black" d="M380.23,-93.06C359.42,-86.79 333.49,-78.31 311,-69 287.04,-59.08 260.93,-45.62 241.68,-35.16"/>
<polygon fill="black" stroke="black" points="243.28,-32.04 232.83,-30.3 239.91,-38.18 243.28,-32.04"/>
<text text-anchor="middle" x="324.5" y="-57.8" font-family="Times,serif" font-size="14.00">dep</text>
</g>
<!-- 4 -->
<g id="node5" class="node">
<title>4</title>
<ellipse fill="none" stroke="black" cx="285" cy="-18" rx="27" ry="18"/>
<text text-anchor="middle" x="285" y="-14.3" font-family="Times,serif" font-size="14.00">a</text>
</g>
<!-- 0&#45;&gt;4 -->
<g id="edge4" class="edge">
<title>0&#45;&gt;4</title>
<path fill="none" stroke="black" d="M394.98,-89.07C385.06,-82.89 373.46,-75.62 363,-69 346.23,-58.38 327.51,-46.39 312.61,-36.8"/>
<polygon fill="black" stroke="black" points="314.18,-33.65 303.88,-31.18 310.39,-39.54 314.18,-33.65"/>
<text text-anchor="middle" x="376.5" y="-57.8" font-family="Times,serif" font-size="14.00">dep</text>
</g>
<!-- 5 -->
<g id="node6" class="node">
<title>5</title>
<ellipse fill="none" stroke="black" cx="374" cy="-18" rx="43.59" ry="18"/>
<text text-anchor="middle" x="374" y="-14.3" font-family="Times,serif" font-size="14.00">laringe</text>
</g>
<!-- 0&#45;&gt;5 -->
<g id="edge5" class="edge">
<title>0&#45;&gt;5</title>
<path fill="none" stroke="black" d="M410.11,-87.21C403.7,-75.1 394.93,-58.53 387.64,-44.76"/>
<polygon fill="black" stroke="black" points="390.64,-42.96 382.87,-35.76 384.46,-46.23 390.64,-42.96"/>
<text text-anchor="middle" x="413.5" y="-57.8" font-family="Times,serif" font-size="14.00">dep</text>
</g>
<!-- 6 -->
<g id="node7" class="node">
<title>6</title>
<ellipse fill="none" stroke="black" cx="465" cy="-18" rx="29.8" ry="18"/>
<text text-anchor="middle" x="465" y="-14.3" font-family="Times,serif" font-size="14.00">com</text>
</g>
<!-- 0&#45;&gt;6 -->
<g id="edge6" class="edge">
<title>0&#45;&gt;6</title>
<path fill="none" stroke="black" d="M428.09,-87.21C434.68,-75.02 443.72,-58.32 451.2,-44.49"/>
<polygon fill="black" stroke="black" points="454.41,-45.93 456.09,-35.47 448.25,-42.6 454.41,-45.93"/>
<text text-anchor="middle" x="458.5" y="-57.8" font-family="Times,serif" font-size="14.00">dep</text>
</g>
<!-- 7 -->
<g id="node8" class="node">
<title>7</title>
<ellipse fill="none" stroke="black" cx="569" cy="-18" rx="56.59" ry="18"/>
<text text-anchor="middle" x="569" y="-14.3" font-family="Times,serif" font-size="14.00">obstrução</text>
</g>
<!-- 0&#45;&gt;7 -->
<g id="edge7" class="edge">
<title>0&#45;&gt;7</title>
<path fill="none" stroke="black" d="M444.79,-89.39C469.32,-75.49 506.43,-54.45 533.7,-39"/>
<polygon fill="black" stroke="black" points="535.57,-41.97 542.54,-33.99 532.12,-35.88 535.57,-41.97"/>
<text text-anchor="middle" x="516.5" y="-57.8" font-family="Times,serif" font-size="14.00">dep</text>
</g>
<!-- 8 -->
<g id="node9" class="node">
<title>8</title>
<ellipse fill="none" stroke="black" cx="709" cy="-18" rx="65.79" ry="18"/>
<text text-anchor="middle" x="709" y="-14.3" font-family="Times,serif" font-size="14.00">respiratória</text>
</g>
<!-- 0&#45;&gt;8 -->
<g id="edge8" class="edge">
<title>0&#45;&gt;8</title>
<path fill="none" stroke="black" d="M457.21,-92.8C508.24,-77.84 598.88,-51.28 656.35,-34.43"/>
<polygon fill="black" stroke="black" points="657.37,-37.78 665.98,-31.61 655.4,-31.06 657.37,-37.78"/>
<text text-anchor="middle" x="595.5" y="-57.8" font-family="Times,serif" font-size="14.00">dep</text>
</g>
<!-- 9 -->
<g id="node10" class="node">
<title>9</title>
<ellipse fill="none" stroke="black" cx="846" cy="-18" rx="53.09" ry="18"/>
<text text-anchor="middle" x="846" y="-14.3" font-family="Times,serif" font-size="14.00">completa</text>
</g>
<!-- 0&#45;&gt;9 -->
<g id="edge9" class="edge">
<title>0&#45;&gt;9</title>
<path fill="none" stroke="black" d="M464.8,-96.83C534.22,-85.65 670.07,-62.57 784,-36 788.16,-35.03 792.46,-33.97 796.76,-32.87"/>
<polygon fill="black" stroke="black" points="797.97,-36.17 806.76,-30.25 796.2,-29.4 797.97,-36.17"/>
<text text-anchor="middle" x="708.5" y="-57.8" font-family="Times,serif" font-size="14.00">dep</text>
</g>
<!-- 10 -->
<g id="node11" class="node">
<title>10</title>
<ellipse fill="none" stroke="black" cx="944" cy="-18" rx="27" ry="18"/>
<text text-anchor="middle" x="944" y="-14.3" font-family="Times,serif" font-size="14.00">.</text>
</g>
<!-- 0&#45;&gt;10 -->
<g id="edge10" class="edge">
<title>0&#45;&gt;10</title>
<path fill="none" stroke="black" d="M470.25,-102.63C560.72,-98.95 753.74,-85.46 908,-36 909.93,-35.38 911.88,-34.68 913.83,-33.93"/>
<polygon fill="black" stroke="black" points="915.61,-36.98 923.44,-29.84 912.86,-30.54 915.61,-36.98"/>
<text text-anchor="middle" x="857.5" y="-57.8" font-family="Times,serif" font-size="14.00">dep</text>
</g>
</g>
</svg>
