<?xml version="1.0" encoding="UTF-8" standalone="no"?>
<!DOCTYPE svg PUBLIC "-//W3C//DTD SVG 1.1//EN"
 "http://www.w3.org/Graphics/SVG/1.1/DTD/svg11.dtd">
<!-- Generated by graphviz version 2.42.4 (0)
 -->
<!-- Pages: 1 -->
<svg width="740pt" height="131pt"
 viewBox="0.00 0.00 739.59 131.00" xmlns="http://www.w3.org/2000/svg" xmlns:xlink="http://www.w3.org/1999/xlink">
<g id="graph0" class="graph" transform="scale(1 1) rotate(0) translate(4 127)">
<polygon fill="white" stroke="transparent" points="-4,4 -4,-127 735.59,-127 735.59,4 -4,4"/>
<!-- 0 -->
<g id="node1" class="node">
<title>0</title>
<ellipse fill="none" stroke="black" cx="348.55" cy="-105" rx="51.19" ry="18"/>
<text text-anchor="middle" x="348.55" y="-101.3" font-family="Times,serif" font-size="14.00">Sporting</text>
</g>
<!-- 1 -->
<g id="node2" class="node">
<title>1</title>
<ellipse fill="none" stroke="black" cx="43.55" cy="-18" rx="43.59" ry="18"/>
<text text-anchor="middle" x="43.55" y="-14.3" font-family="Times,serif" font-size="14.00">venceu</text>
</g>
<!-- 0&#45;&gt;1 -->
<g id="edge1" class="edge">
<title>0&#45;&gt;1</title>
<path fill="none" stroke="black" d="M300.99,-97.99C262.79,-92.48 208.03,-83.02 161.55,-69 133.4,-60.51 102.88,-47.47 79.93,-36.83"/>
<polygon fill="black" stroke="black" points="81.12,-33.52 70.58,-32.44 78.14,-39.86 81.12,-33.52"/>
<text text-anchor="middle" x="175.05" y="-57.8" font-family="Times,serif" font-size="14.00">dep</text>
</g>
<!-- 2 -->
<g id="node3" class="node">
<title>2</title>
<ellipse fill="none" stroke="black" cx="132.55" cy="-18" rx="27" ry="18"/>
<text text-anchor="middle" x="132.55" y="-14.3" font-family="Times,serif" font-size="14.00">(</text>
</g>
<!-- 0&#45;&gt;2 -->
<g id="edge2" class="edge">
<title>0&#45;&gt;2</title>
<path fill="none" stroke="black" d="M306,-94.84C281.18,-88.84 249.54,-80.07 222.55,-69 200.58,-59.99 177.17,-46.87 159.74,-36.33"/>
<polygon fill="black" stroke="black" points="161.56,-33.34 151.21,-31.09 157.89,-39.3 161.56,-33.34"/>
<text text-anchor="middle" x="236.05" y="-57.8" font-family="Times,serif" font-size="14.00">dep</text>
</g>
<!-- 3 -->
<g id="node4" class="node">
<title>3</title>
<ellipse fill="none" stroke="black" cx="204.55" cy="-18" rx="27" ry="18"/>
<text text-anchor="middle" x="204.55" y="-14.3" font-family="Times,serif" font-size="14.00">3&#45;1</text>
</g>
<!-- 0&#45;&gt;3 -->
<g id="edge3" class="edge">
<title>0&#45;&gt;3</title>
<path fill="none" stroke="black" d="M316.95,-90.56C303.58,-84.49 288.03,-76.92 274.55,-69 258.91,-59.82 242.36,-48.1 229.28,-38.32"/>
<polygon fill="black" stroke="black" points="231.32,-35.47 221.23,-32.21 227.09,-41.04 231.32,-35.47"/>
<text text-anchor="middle" x="288.05" y="-57.8" font-family="Times,serif" font-size="14.00">dep</text>
</g>
<!-- 4 -->
<g id="node5" class="node">
<title>4</title>
<ellipse fill="none" stroke="black" cx="276.55" cy="-18" rx="27" ry="18"/>
<text text-anchor="middle" x="276.55" y="-14.3" font-family="Times,serif" font-size="14.00">)</text>
</g>
<!-- 0&#45;&gt;4 -->
<g id="edge4" class="edge">
<title>0&#45;&gt;4</title>
<path fill="none" stroke="black" d="M333.91,-87.73C328.69,-81.87 322.81,-75.18 317.55,-69 310.23,-60.41 302.34,-50.86 295.45,-42.43"/>
<polygon fill="black" stroke="black" points="297.98,-39.99 288.96,-34.44 292.55,-44.41 297.98,-39.99"/>
<text text-anchor="middle" x="331.05" y="-57.8" font-family="Times,serif" font-size="14.00">dep</text>
</g>
<!-- 5 -->
<g id="node6" class="node">
<title>5</title>
<ellipse fill="none" stroke="black" cx="348.55" cy="-18" rx="27" ry="18"/>
<text text-anchor="middle" x="348.55" y="-14.3" font-family="Times,serif" font-size="14.00">o</text>
</g>
<!-- 0&#45;&gt;5 -->
<g id="edge5" class="edge">
<title>0&#45;&gt;5</title>
<path fill="none" stroke="black" d="M348.55,-86.8C348.55,-75.16 348.55,-59.55 348.55,-46.24"/>
<polygon fill="black" stroke="black" points="352.05,-46.18 348.55,-36.18 345.05,-46.18 352.05,-46.18"/>
<text text-anchor="middle" x="362.05" y="-57.8" font-family="Times,serif" font-size="14.00">dep</text>
</g>
<!-- 6 -->
<g id="node7" class="node">
<title>6</title>
<ellipse fill="none" stroke="black" cx="420.55" cy="-18" rx="27" ry="18"/>
<text text-anchor="middle" x="420.55" y="-14.3" font-family="Times,serif" font-size="14.00">Sp.</text>
</g>
<!-- 0&#45;&gt;6 -->
<g id="edge6" class="edge">
<title>0&#45;&gt;6</title>
<path fill="none" stroke="black" d="M363.19,-87.73C368.4,-81.87 374.28,-75.18 379.55,-69 386.86,-60.41 394.76,-50.86 401.64,-42.43"/>
<polygon fill="black" stroke="black" points="404.54,-44.41 408.13,-34.44 399.11,-39.99 404.54,-44.41"/>
<text text-anchor="middle" x="406.05" y="-57.8" font-family="Times,serif" font-size="14.00">dep</text>
</g>
<!-- 7 -->
<g id="node8" class="node">
<title>7</title>
<ellipse fill="none" stroke="black" cx="503.55" cy="-18" rx="38.19" ry="18"/>
<text text-anchor="middle" x="503.55" y="-14.3" font-family="Times,serif" font-size="14.00">Braga</text>
</g>
<!-- 0&#45;&gt;7 -->
<g id="edge7" class="edge">
<title>0&#45;&gt;7</title>
<path fill="none" stroke="black" d="M379.62,-90.53C393.28,-84.34 409.4,-76.68 423.55,-69 440.59,-59.74 458.98,-48.35 473.83,-38.78"/>
<polygon fill="black" stroke="black" points="476.1,-41.48 482.58,-33.09 472.28,-35.61 476.1,-41.48"/>
<text text-anchor="middle" x="462.05" y="-57.8" font-family="Times,serif" font-size="14.00">dep</text>
</g>
<!-- 8 -->
<g id="node9" class="node">
<title>8</title>
<ellipse fill="none" stroke="black" cx="586.55" cy="-18" rx="27" ry="18"/>
<text text-anchor="middle" x="586.55" y="-14.3" font-family="Times,serif" font-size="14.00">em</text>
</g>
<!-- 0&#45;&gt;8 -->
<g id="edge8" class="edge">
<title>0&#45;&gt;8</title>
<path fill="none" stroke="black" d="M390.71,-94.71C416.68,-88.51 450.45,-79.56 479.55,-69 512.26,-57.13 519.04,-50.76 550.55,-36 552.33,-35.16 554.16,-34.3 556.01,-33.43"/>
<polygon fill="black" stroke="black" points="557.68,-36.52 565.24,-29.09 554.7,-30.18 557.68,-36.52"/>
<text text-anchor="middle" x="528.05" y="-57.8" font-family="Times,serif" font-size="14.00">dep</text>
</g>
<!-- 9 -->
<g id="node10" class="node">
<title>9</title>
<ellipse fill="none" stroke="black" cx="681.55" cy="-18" rx="50.09" ry="18"/>
<text text-anchor="middle" x="681.55" y="-14.3" font-family="Times,serif" font-size="14.00">Alvalade</text>
</g>
<!-- 0&#45;&gt;9 -->
<g id="edge9" class="edge">
<title>0&#45;&gt;9</title>
<path fill="none" stroke="black" d="M396.03,-97.96C436.26,-92.28 495.25,-82.6 545.55,-69 578.31,-60.14 614.32,-46.73 641.05,-36.03"/>
<polygon fill="black" stroke="black" points="642.5,-39.22 650.45,-32.22 639.87,-32.73 642.5,-39.22"/>
<text text-anchor="middle" x="605.05" y="-57.8" font-family="Times,serif" font-size="14.00">dep</text>
</g>
</g>
</svg>
