<?xml version="1.0" encoding="UTF-8" standalone="no"?>
<!DOCTYPE svg PUBLIC "-//W3C//DTD SVG 1.1//EN"
 "http://www.w3.org/Graphics/SVG/1.1/DTD/svg11.dtd">
<!-- Generated by graphviz version 2.42.4 (0)
 -->
<!-- Pages: 1 -->
<svg width="253pt" height="131pt"
 viewBox="0.00 0.00 253.24 131.00" xmlns="http://www.w3.org/2000/svg" xmlns:xlink="http://www.w3.org/1999/xlink">
<g id="graph0" class="graph" transform="scale(1 1) rotate(0) translate(4 127)">
<polygon fill="white" stroke="transparent" points="-4,4 -4,-127 249.24,-127 249.24,4 -4,4"/>
<!-- 0 -->
<g id="node1" class="node">
<title>0</title>
<ellipse fill="none" stroke="black" cx="119.5" cy="-105" rx="27" ry="18"/>
<text text-anchor="middle" x="119.5" y="-101.3" font-family="Times,serif" font-size="14.00">G.</text>
</g>
<!-- 1 -->
<g id="node2" class="node">
<title>1</title>
<ellipse fill="none" stroke="black" cx="32.5" cy="-18" rx="32.49" ry="18"/>
<text text-anchor="middle" x="32.5" y="-14.3" font-family="Times,serif" font-size="14.00">Love</text>
</g>
<!-- 0&#45;&gt;1 -->
<g id="edge1" class="edge">
<title>0&#45;&gt;1</title>
<path fill="none" stroke="black" d="M104.74,-89.58C91.16,-76.31 70.81,-56.43 55.17,-41.15"/>
<polygon fill="black" stroke="black" points="57.51,-38.55 47.91,-34.06 52.62,-43.56 57.51,-38.55"/>
<text text-anchor="middle" x="95" y="-57.8" font-family="Times,serif" font-size="14.00">dep</text>
</g>
<!-- 2 -->
<g id="node3" class="node">
<title>2</title>
<ellipse fill="none" stroke="black" cx="119.5" cy="-18" rx="36.29" ry="18"/>
<text text-anchor="middle" x="119.5" y="-14.3" font-family="Times,serif" font-size="14.00">canta</text>
</g>
<!-- 0&#45;&gt;2 -->
<g id="edge2" class="edge">
<title>0&#45;&gt;2</title>
<path fill="none" stroke="black" d="M119.5,-86.8C119.5,-75.16 119.5,-59.55 119.5,-46.24"/>
<polygon fill="black" stroke="black" points="123,-46.18 119.5,-36.18 116,-46.18 123,-46.18"/>
<text text-anchor="middle" x="133" y="-57.8" font-family="Times,serif" font-size="14.00">dep</text>
</g>
<!-- 3 -->
<g id="node4" class="node">
<title>3</title>
<ellipse fill="none" stroke="black" cx="209.5" cy="-18" rx="36" ry="18"/>
<text text-anchor="middle" x="209.5" y="-14.3" font-family="Times,serif" font-size="14.00">blues</text>
</g>
<!-- 0&#45;&gt;3 -->
<g id="edge3" class="edge">
<title>0&#45;&gt;3</title>
<path fill="none" stroke="black" d="M134.36,-89.96C148.35,-76.75 169.52,-56.75 185.83,-41.35"/>
<polygon fill="black" stroke="black" points="188.53,-43.62 193.4,-34.21 183.72,-38.53 188.53,-43.62"/>
<text text-anchor="middle" x="183" y="-57.8" font-family="Times,serif" font-size="14.00">dep</text>
</g>
</g>
</svg>
