<?xml version="1.0" encoding="UTF-8" standalone="no"?>
<!DOCTYPE svg PUBLIC "-//W3C//DTD SVG 1.1//EN"
 "http://www.w3.org/Graphics/SVG/1.1/DTD/svg11.dtd">
<!-- Generated by graphviz version 2.42.4 (0)
 -->
<!-- Pages: 1 -->
<svg width="1569pt" height="131pt"
 viewBox="0.00 0.00 1569.10 131.00" xmlns="http://www.w3.org/2000/svg" xmlns:xlink="http://www.w3.org/1999/xlink">
<g id="graph0" class="graph" transform="scale(1 1) rotate(0) translate(4 127)">
<polygon fill="white" stroke="transparent" points="-4,4 -4,-127 1565.1,-127 1565.1,4 -4,4"/>
<!-- 0 -->
<g id="node1" class="node">
<title>0</title>
<ellipse fill="none" stroke="black" cx="807.1" cy="-105" rx="27" ry="18"/>
<text text-anchor="middle" x="807.1" y="-101.3" font-family="Times,serif" font-size="14.00">Tal</text>
</g>
<!-- 1 -->
<g id="node2" class="node">
<title>1</title>
<ellipse fill="none" stroke="black" cx="35.1" cy="-18" rx="35.19" ry="18"/>
<text text-anchor="middle" x="35.1" y="-14.3" font-family="Times,serif" font-size="14.00">como</text>
</g>
<!-- 0&#45;&gt;1 -->
<g id="edge1" class="edge">
<title>0&#45;&gt;1</title>
<path fill="none" stroke="black" d="M780.16,-103.61C674.33,-101.93 287.03,-94.15 167.1,-69 132.64,-61.78 95.29,-46.92 69.15,-35.26"/>
<polygon fill="black" stroke="black" points="70.26,-31.92 59.7,-30.98 67.36,-38.3 70.26,-31.92"/>
<text text-anchor="middle" x="180.6" y="-57.8" font-family="Times,serif" font-size="14.00">dep</text>
</g>
<!-- 2 -->
<g id="node3" class="node">
<title>2</title>
<ellipse fill="none" stroke="black" cx="115.1" cy="-18" rx="27" ry="18"/>
<text text-anchor="middle" x="115.1" y="-14.3" font-family="Times,serif" font-size="14.00">em</text>
</g>
<!-- 0&#45;&gt;2 -->
<g id="edge2" class="edge">
<title>0&#45;&gt;2</title>
<path fill="none" stroke="black" d="M779.87,-104.57C699.15,-105.78 454.46,-105.91 256.1,-69 208.01,-60.05 196.65,-53.82 151.1,-36 149.26,-35.28 147.39,-34.51 145.51,-33.71"/>
<polygon fill="black" stroke="black" points="146.76,-30.44 136.21,-29.56 143.91,-36.83 146.76,-30.44"/>
<text text-anchor="middle" x="269.6" y="-57.8" font-family="Times,serif" font-size="14.00">dep</text>
</g>
<!-- 3 -->
<g id="node4" class="node">
<title>3</title>
<ellipse fill="none" stroke="black" cx="196.1" cy="-18" rx="36.29" ry="18"/>
<text text-anchor="middle" x="196.1" y="-14.3" font-family="Times,serif" font-size="14.00">todos</text>
</g>
<!-- 0&#45;&gt;3 -->
<g id="edge3" class="edge">
<title>0&#45;&gt;3</title>
<path fill="none" stroke="black" d="M779.87,-104.32C707.38,-104.68 504,-102.38 339.1,-69 301.51,-61.39 260.35,-46.23 231.88,-34.59"/>
<polygon fill="black" stroke="black" points="232.94,-31.24 222.37,-30.63 230.26,-37.7 232.94,-31.24"/>
<text text-anchor="middle" x="352.6" y="-57.8" font-family="Times,serif" font-size="14.00">dep</text>
</g>
<!-- 4 -->
<g id="node5" class="node">
<title>4</title>
<ellipse fill="none" stroke="black" cx="277.1" cy="-18" rx="27" ry="18"/>
<text text-anchor="middle" x="277.1" y="-14.3" font-family="Times,serif" font-size="14.00">os</text>
</g>
<!-- 0&#45;&gt;4 -->
<g id="edge4" class="edge">
<title>0&#45;&gt;4</title>
<path fill="none" stroke="black" d="M780.2,-102.74C719.98,-99.63 569.91,-90.24 446.1,-69 386.07,-58.7 370.47,-56.44 313.1,-36 311.19,-35.32 309.25,-34.58 307.31,-33.79"/>
<polygon fill="black" stroke="black" points="308.31,-30.4 297.74,-29.6 305.5,-36.82 308.31,-30.4"/>
<text text-anchor="middle" x="459.6" y="-57.8" font-family="Times,serif" font-size="14.00">dep</text>
</g>
<!-- 5 -->
<g id="node6" class="node">
<title>5</title>
<ellipse fill="none" stroke="black" cx="377.1" cy="-18" rx="54.69" ry="18"/>
<text text-anchor="middle" x="377.1" y="-14.3" font-family="Times,serif" font-size="14.00">restantes</text>
</g>
<!-- 0&#45;&gt;5 -->
<g id="edge5" class="edge">
<title>0&#45;&gt;5</title>
<path fill="none" stroke="black" d="M780.05,-102.43C729.59,-99.12 617.89,-89.9 526.1,-69 489.64,-60.7 449.53,-46.96 420.12,-35.99"/>
<polygon fill="black" stroke="black" points="421.16,-32.64 410.57,-32.38 418.69,-39.19 421.16,-32.64"/>
<text text-anchor="middle" x="539.6" y="-57.8" font-family="Times,serif" font-size="14.00">dep</text>
</g>
<!-- 6 -->
<g id="node7" class="node">
<title>6</title>
<ellipse fill="none" stroke="black" cx="479.1" cy="-18" rx="29.8" ry="18"/>
<text text-anchor="middle" x="479.1" y="-14.3" font-family="Times,serif" font-size="14.00">dias</text>
</g>
<!-- 0&#45;&gt;6 -->
<g id="edge6" class="edge">
<title>0&#45;&gt;6</title>
<path fill="none" stroke="black" d="M780.47,-101.55C740.18,-97.4 661.56,-87.57 597.1,-69 560.53,-58.47 553.09,-50.94 518.1,-36 516.05,-35.13 513.95,-34.23 511.84,-33.32"/>
<polygon fill="black" stroke="black" points="513.15,-30.07 502.58,-29.31 510.37,-36.49 513.15,-30.07"/>
<text text-anchor="middle" x="610.6" y="-57.8" font-family="Times,serif" font-size="14.00">dep</text>
</g>
<!-- 7 -->
<g id="node8" class="node">
<title>7</title>
<ellipse fill="none" stroke="black" cx="554.1" cy="-18" rx="27" ry="18"/>
<text text-anchor="middle" x="554.1" y="-14.3" font-family="Times,serif" font-size="14.00">,</text>
</g>
<!-- 0&#45;&gt;7 -->
<g id="edge7" class="edge">
<title>0&#45;&gt;7</title>
<path fill="none" stroke="black" d="M781.39,-99.16C752.45,-93.38 704.24,-82.74 664.1,-69 630.03,-57.34 622.82,-51.02 590.1,-36 588.31,-35.18 586.47,-34.33 584.62,-33.47"/>
<polygon fill="black" stroke="black" points="585.92,-30.21 575.38,-29.14 582.95,-36.55 585.92,-30.21"/>
<text text-anchor="middle" x="677.6" y="-57.8" font-family="Times,serif" font-size="14.00">dep</text>
</g>
<!-- 8 -->
<g id="node9" class="node">
<title>8</title>
<ellipse fill="none" stroke="black" cx="626.1" cy="-18" rx="27" ry="18"/>
<text text-anchor="middle" x="626.1" y="-14.3" font-family="Times,serif" font-size="14.00">o</text>
</g>
<!-- 0&#45;&gt;8 -->
<g id="edge8" class="edge">
<title>0&#45;&gt;8</title>
<path fill="none" stroke="black" d="M784.65,-94.88C768.07,-88.03 745.02,-78.27 725.1,-69 701.54,-58.04 675.32,-44.74 655.78,-34.62"/>
<polygon fill="black" stroke="black" points="657.25,-31.44 646.77,-29.93 654.02,-37.65 657.25,-31.44"/>
<text text-anchor="middle" x="738.6" y="-57.8" font-family="Times,serif" font-size="14.00">dep</text>
</g>
<!-- 9 -->
<g id="node10" class="node">
<title>9</title>
<ellipse fill="none" stroke="black" cx="715.1" cy="-18" rx="43.59" ry="18"/>
<text text-anchor="middle" x="715.1" y="-14.3" font-family="Times,serif" font-size="14.00">almoço</text>
</g>
<!-- 0&#45;&gt;9 -->
<g id="edge9" class="edge">
<title>0&#45;&gt;9</title>
<path fill="none" stroke="black" d="M791.9,-89.96C777.78,-76.92 756.49,-57.24 739.9,-41.92"/>
<polygon fill="black" stroke="black" points="741.91,-39.01 732.19,-34.79 737.16,-44.15 741.91,-39.01"/>
<text text-anchor="middle" x="780.6" y="-57.8" font-family="Times,serif" font-size="14.00">dep</text>
</g>
<!-- 10 -->
<g id="node11" class="node">
<title>10</title>
<ellipse fill="none" stroke="black" cx="807.1" cy="-18" rx="30.59" ry="18"/>
<text text-anchor="middle" x="807.1" y="-14.3" font-family="Times,serif" font-size="14.00">está</text>
</g>
<!-- 0&#45;&gt;10 -->
<g id="edge10" class="edge">
<title>0&#45;&gt;10</title>
<path fill="none" stroke="black" d="M807.1,-86.8C807.1,-75.16 807.1,-59.55 807.1,-46.24"/>
<polygon fill="black" stroke="black" points="810.6,-46.18 807.1,-36.18 803.6,-46.18 810.6,-46.18"/>
<text text-anchor="middle" x="820.6" y="-57.8" font-family="Times,serif" font-size="14.00">dep</text>
</g>
<!-- 11 -->
<g id="node12" class="node">
<title>11</title>
<ellipse fill="none" stroke="black" cx="906.1" cy="-18" rx="50.89" ry="18"/>
<text text-anchor="middle" x="906.1" y="-14.3" font-family="Times,serif" font-size="14.00">marcado</text>
</g>
<!-- 0&#45;&gt;11 -->
<g id="edge11" class="edge">
<title>0&#45;&gt;11</title>
<path fill="none" stroke="black" d="M823,-90.34C838.27,-77.24 861.6,-57.21 879.65,-41.7"/>
<polygon fill="black" stroke="black" points="882.22,-44.11 887.53,-34.94 877.66,-38.8 882.22,-44.11"/>
<text text-anchor="middle" x="876.6" y="-57.8" font-family="Times,serif" font-size="14.00">dep</text>
</g>
<!-- 12 -->
<g id="node13" class="node">
<title>12</title>
<ellipse fill="none" stroke="black" cx="1007.1" cy="-18" rx="31.7" ry="18"/>
<text text-anchor="middle" x="1007.1" y="-14.3" font-family="Times,serif" font-size="14.00">para</text>
</g>
<!-- 0&#45;&gt;12 -->
<g id="edge12" class="edge">
<title>0&#45;&gt;12</title>
<path fill="none" stroke="black" d="M829.72,-95.15C847.33,-88.19 872.35,-78.18 894.1,-69 920.95,-57.66 951.14,-44.27 973.55,-34.2"/>
<polygon fill="black" stroke="black" points="975.27,-37.27 982.95,-29.97 972.4,-30.88 975.27,-37.27"/>
<text text-anchor="middle" x="942.6" y="-57.8" font-family="Times,serif" font-size="14.00">dep</text>
</g>
<!-- 13 -->
<g id="node14" class="node">
<title>13</title>
<ellipse fill="none" stroke="black" cx="1084.1" cy="-18" rx="27" ry="18"/>
<text text-anchor="middle" x="1084.1" y="-14.3" font-family="Times,serif" font-size="14.00">ter</text>
</g>
<!-- 0&#45;&gt;13 -->
<g id="edge13" class="edge">
<title>0&#45;&gt;13</title>
<path fill="none" stroke="black" d="M832.82,-99.21C863.44,-93.26 915.99,-82.25 960.1,-69 1000.1,-56.98 1009.62,-52.27 1048.1,-36 1049.91,-35.23 1051.77,-34.43 1053.63,-33.6"/>
<polygon fill="black" stroke="black" points="1055.27,-36.7 1062.91,-29.36 1052.36,-30.33 1055.27,-36.7"/>
<text text-anchor="middle" x="1018.6" y="-57.8" font-family="Times,serif" font-size="14.00">dep</text>
</g>
<!-- 14 -->
<g id="node15" class="node">
<title>14</title>
<ellipse fill="none" stroke="black" cx="1165.1" cy="-18" rx="36" ry="18"/>
<text text-anchor="middle" x="1165.1" y="-14.3" font-family="Times,serif" font-size="14.00">início</text>
</g>
<!-- 0&#45;&gt;14 -->
<g id="edge14" class="edge">
<title>0&#45;&gt;14</title>
<path fill="none" stroke="black" d="M833.93,-101.81C877.1,-97.86 964.4,-88.13 1036.1,-69 1068.82,-60.27 1104.62,-45.99 1130.19,-34.92"/>
<polygon fill="black" stroke="black" points="1131.71,-38.08 1139.46,-30.86 1128.9,-31.67 1131.71,-38.08"/>
<text text-anchor="middle" x="1093.6" y="-57.8" font-family="Times,serif" font-size="14.00">dep</text>
</g>
<!-- 15 -->
<g id="node16" class="node">
<title>15</title>
<ellipse fill="none" stroke="black" cx="1246.1" cy="-18" rx="27" ry="18"/>
<text text-anchor="middle" x="1246.1" y="-14.3" font-family="Times,serif" font-size="14.00">a</text>
</g>
<!-- 0&#45;&gt;15 -->
<g id="edge15" class="edge">
<title>0&#45;&gt;15</title>
<path fill="none" stroke="black" d="M834.25,-102.76C887.78,-99.91 1010.48,-91.31 1111.1,-69 1156.38,-58.96 1167.05,-53.27 1210.1,-36 1211.93,-35.27 1213.79,-34.49 1215.67,-33.68"/>
<polygon fill="black" stroke="black" points="1217.28,-36.79 1224.96,-29.49 1214.41,-30.41 1217.28,-36.79"/>
<text text-anchor="middle" x="1178.6" y="-57.8" font-family="Times,serif" font-size="14.00">dep</text>
</g>
<!-- 16 -->
<g id="node17" class="node">
<title>16</title>
<ellipse fill="none" stroke="black" cx="1318.1" cy="-18" rx="27" ry="18"/>
<text text-anchor="middle" x="1318.1" y="-14.3" font-family="Times,serif" font-size="14.00">as</text>
</g>
<!-- 0&#45;&gt;16 -->
<g id="edge16" class="edge">
<title>0&#45;&gt;16</title>
<path fill="none" stroke="black" d="M834.38,-104.12C898.43,-103.84 1063,-99.89 1196.1,-69 1228.97,-61.37 1264.44,-45.95 1288.62,-34.23"/>
<polygon fill="black" stroke="black" points="1290.2,-37.36 1297.62,-29.79 1287.1,-31.08 1290.2,-37.36"/>
<text text-anchor="middle" x="1254.6" y="-57.8" font-family="Times,serif" font-size="14.00">dep</text>
</g>
<!-- 17 -->
<g id="node18" class="node">
<title>17</title>
<ellipse fill="none" stroke="black" cx="1390.1" cy="-18" rx="27" ry="18"/>
<text text-anchor="middle" x="1390.1" y="-14.3" font-family="Times,serif" font-size="14.00">13</text>
</g>
<!-- 0&#45;&gt;17 -->
<g id="edge17" class="edge">
<title>0&#45;&gt;17</title>
<path fill="none" stroke="black" d="M834.03,-103.06C920.1,-99.88 1187.83,-88.63 1272.1,-69 1303.71,-61.64 1337.62,-46.42 1360.94,-34.7"/>
<polygon fill="black" stroke="black" points="1362.64,-37.77 1369.94,-30.09 1359.44,-31.54 1362.64,-37.77"/>
<text text-anchor="middle" x="1329.6" y="-57.8" font-family="Times,serif" font-size="14.00">dep</text>
</g>
<!-- 18 -->
<g id="node19" class="node">
<title>18</title>
<ellipse fill="none" stroke="black" cx="1462.1" cy="-18" rx="27" ry="18"/>
<text text-anchor="middle" x="1462.1" y="-14.3" font-family="Times,serif" font-size="14.00">h</text>
</g>
<!-- 0&#45;&gt;18 -->
<g id="edge18" class="edge">
<title>0&#45;&gt;18</title>
<path fill="none" stroke="black" d="M834.3,-103.42C929.59,-101.21 1247.97,-92.23 1347.1,-69 1377.7,-61.83 1410.36,-46.84 1433.03,-35.14"/>
<polygon fill="black" stroke="black" points="1434.88,-38.12 1442.09,-30.35 1431.61,-31.93 1434.88,-38.12"/>
<text text-anchor="middle" x="1403.6" y="-57.8" font-family="Times,serif" font-size="14.00">dep</text>
</g>
<!-- 19 -->
<g id="node20" class="node">
<title>19</title>
<ellipse fill="none" stroke="black" cx="1534.1" cy="-18" rx="27" ry="18"/>
<text text-anchor="middle" x="1534.1" y="-14.3" font-family="Times,serif" font-size="14.00">.</text>
</g>
<!-- 0&#45;&gt;19 -->
<g id="edge19" class="edge">
<title>0&#45;&gt;19</title>
<path fill="none" stroke="black" d="M834.38,-103.7C938.02,-102.36 1307.16,-95.79 1421.1,-69 1451.25,-61.91 1483.33,-46.92 1505.58,-35.19"/>
<polygon fill="black" stroke="black" points="1507.33,-38.22 1514.47,-30.39 1504.01,-32.05 1507.33,-38.22"/>
<text text-anchor="middle" x="1476.6" y="-57.8" font-family="Times,serif" font-size="14.00">dep</text>
</g>
</g>
</svg>
