<?xml version="1.0" encoding="UTF-8" standalone="no"?>
<!DOCTYPE svg PUBLIC "-//W3C//DTD SVG 1.1//EN"
 "http://www.w3.org/Graphics/SVG/1.1/DTD/svg11.dtd">
<!-- Generated by graphviz version 2.42.4 (0)
 -->
<!-- Pages: 1 -->
<svg width="1278pt" height="131pt"
 viewBox="0.00 0.00 1278.00 131.00" xmlns="http://www.w3.org/2000/svg" xmlns:xlink="http://www.w3.org/1999/xlink">
<g id="graph0" class="graph" transform="scale(1 1) rotate(0) translate(4 127)">
<polygon fill="white" stroke="transparent" points="-4,4 -4,-127 1274,-127 1274,4 -4,4"/>
<!-- 0 -->
<g id="node1" class="node">
<title>0</title>
<ellipse fill="none" stroke="black" cx="611" cy="-105" rx="27" ry="18"/>
<text text-anchor="middle" x="611" y="-101.3" font-family="Times,serif" font-size="14.00">E</text>
</g>
<!-- 1 -->
<g id="node2" class="node">
<title>1</title>
<ellipse fill="none" stroke="black" cx="27" cy="-18" rx="27" ry="18"/>
<text text-anchor="middle" x="27" y="-14.3" font-family="Times,serif" font-size="14.00">se</text>
</g>
<!-- 0&#45;&gt;1 -->
<g id="edge1" class="edge">
<title>0&#45;&gt;1</title>
<path fill="none" stroke="black" d="M584.05,-103.23C517.55,-101.02 340.5,-93.15 195,-69 135.34,-59.1 119.95,-56.34 63,-36 61.14,-35.34 59.26,-34.61 57.37,-33.84"/>
<polygon fill="black" stroke="black" points="58.59,-30.56 48.03,-29.77 55.8,-36.98 58.59,-30.56"/>
<text text-anchor="middle" x="208.5" y="-57.8" font-family="Times,serif" font-size="14.00">dep</text>
</g>
<!-- 2 -->
<g id="node3" class="node">
<title>2</title>
<ellipse fill="none" stroke="black" cx="132" cy="-18" rx="60.39" ry="18"/>
<text text-anchor="middle" x="132" y="-14.3" font-family="Times,serif" font-size="14.00">encontram</text>
</g>
<!-- 0&#45;&gt;2 -->
<g id="edge2" class="edge">
<title>0&#45;&gt;2</title>
<path fill="none" stroke="black" d="M583.99,-103.19C527,-101.03 390.51,-93.52 279,-69 243.28,-61.15 204.14,-47.57 175.23,-36.55"/>
<polygon fill="black" stroke="black" points="176.43,-33.26 165.84,-32.92 173.91,-39.79 176.43,-33.26"/>
<text text-anchor="middle" x="292.5" y="-57.8" font-family="Times,serif" font-size="14.00">dep</text>
</g>
<!-- 3 -->
<g id="node4" class="node">
<title>3</title>
<ellipse fill="none" stroke="black" cx="237" cy="-18" rx="27" ry="18"/>
<text text-anchor="middle" x="237" y="-14.3" font-family="Times,serif" font-size="14.00">a</text>
</g>
<!-- 0&#45;&gt;3 -->
<g id="edge3" class="edge">
<title>0&#45;&gt;3</title>
<path fill="none" stroke="black" d="M584.07,-102.68C536.49,-99.83 434.76,-91.46 352,-69 321.85,-60.82 289.37,-46.1 266.64,-34.74"/>
<polygon fill="black" stroke="black" points="268.03,-31.52 257.53,-30.11 264.86,-37.76 268.03,-31.52"/>
<text text-anchor="middle" x="365.5" y="-57.8" font-family="Times,serif" font-size="14.00">dep</text>
</g>
<!-- 4 -->
<g id="node5" class="node">
<title>4</title>
<ellipse fill="none" stroke="black" cx="309" cy="-18" rx="27" ry="18"/>
<text text-anchor="middle" x="309" y="-14.3" font-family="Times,serif" font-size="14.00">a</text>
</g>
<!-- 0&#45;&gt;4 -->
<g id="edge4" class="edge">
<title>0&#45;&gt;4</title>
<path fill="none" stroke="black" d="M584.58,-100.99C547.63,-96.35 478.69,-86.16 422,-69 386.36,-58.21 378.95,-51.29 345,-36 343.2,-35.19 341.36,-34.35 339.51,-33.5"/>
<polygon fill="black" stroke="black" points="340.8,-30.24 330.26,-29.2 337.85,-36.59 340.8,-30.24"/>
<text text-anchor="middle" x="435.5" y="-57.8" font-family="Times,serif" font-size="14.00">dep</text>
</g>
<!-- 5 -->
<g id="node6" class="node">
<title>5</title>
<ellipse fill="none" stroke="black" cx="388" cy="-18" rx="34.39" ry="18"/>
<text text-anchor="middle" x="388" y="-14.3" font-family="Times,serif" font-size="14.00">noite</text>
</g>
<!-- 0&#45;&gt;5 -->
<g id="edge5" class="edge">
<title>0&#45;&gt;5</title>
<path fill="none" stroke="black" d="M585.4,-98.52C559.58,-92.61 518.82,-82.25 485,-69 462.21,-60.07 437.73,-47.42 419.05,-37.08"/>
<polygon fill="black" stroke="black" points="420.56,-33.91 410.13,-32.07 417.13,-40.02 420.56,-33.91"/>
<text text-anchor="middle" x="498.5" y="-57.8" font-family="Times,serif" font-size="14.00">dep</text>
</g>
<!-- 6 -->
<g id="node7" class="node">
<title>6</title>
<ellipse fill="none" stroke="black" cx="467" cy="-18" rx="27" ry="18"/>
<text text-anchor="middle" x="467" y="-14.3" font-family="Times,serif" font-size="14.00">em</text>
</g>
<!-- 0&#45;&gt;6 -->
<g id="edge6" class="edge">
<title>0&#45;&gt;6</title>
<path fill="none" stroke="black" d="M588.78,-94.73C573.8,-88.19 553.79,-78.86 537,-69 521.37,-59.82 504.82,-48.1 491.74,-38.32"/>
<polygon fill="black" stroke="black" points="493.77,-35.47 483.69,-32.21 489.54,-41.04 493.77,-35.47"/>
<text text-anchor="middle" x="550.5" y="-57.8" font-family="Times,serif" font-size="14.00">dep</text>
</g>
<!-- 7 -->
<g id="node8" class="node">
<title>7</title>
<ellipse fill="none" stroke="black" cx="539" cy="-18" rx="27" ry="18"/>
<text text-anchor="middle" x="539" y="-14.3" font-family="Times,serif" font-size="14.00">o</text>
</g>
<!-- 0&#45;&gt;7 -->
<g id="edge7" class="edge">
<title>0&#45;&gt;7</title>
<path fill="none" stroke="black" d="M597.6,-89.12C592.09,-82.94 585.69,-75.67 580,-69 572.68,-60.41 564.79,-50.86 557.9,-42.43"/>
<polygon fill="black" stroke="black" points="560.44,-39.99 551.41,-34.44 555,-44.41 560.44,-39.99"/>
<text text-anchor="middle" x="593.5" y="-57.8" font-family="Times,serif" font-size="14.00">dep</text>
</g>
<!-- 8 -->
<g id="node9" class="node">
<title>8</title>
<ellipse fill="none" stroke="black" cx="611" cy="-18" rx="27" ry="18"/>
<text text-anchor="middle" x="611" y="-14.3" font-family="Times,serif" font-size="14.00">bar</text>
</g>
<!-- 0&#45;&gt;8 -->
<g id="edge8" class="edge">
<title>0&#45;&gt;8</title>
<path fill="none" stroke="black" d="M611,-86.8C611,-75.16 611,-59.55 611,-46.24"/>
<polygon fill="black" stroke="black" points="614.5,-46.18 611,-36.18 607.5,-46.18 614.5,-46.18"/>
<text text-anchor="middle" x="624.5" y="-57.8" font-family="Times,serif" font-size="14.00">dep</text>
</g>
<!-- 9 -->
<g id="node10" class="node">
<title>9</title>
<ellipse fill="none" stroke="black" cx="698" cy="-18" rx="41.69" ry="18"/>
<text text-anchor="middle" x="698" y="-14.3" font-family="Times,serif" font-size="14.00">Cabral</text>
</g>
<!-- 0&#45;&gt;9 -->
<g id="edge9" class="edge">
<title>0&#45;&gt;9</title>
<path fill="none" stroke="black" d="M625.76,-89.58C639.17,-76.47 659.19,-56.92 674.75,-41.71"/>
<polygon fill="black" stroke="black" points="677.28,-44.14 681.99,-34.64 672.39,-39.13 677.28,-44.14"/>
<text text-anchor="middle" x="673.5" y="-57.8" font-family="Times,serif" font-size="14.00">dep</text>
</g>
<!-- 10 -->
<g id="node11" class="node">
<title>10</title>
<ellipse fill="none" stroke="black" cx="785" cy="-18" rx="27" ry="18"/>
<text text-anchor="middle" x="785" y="-14.3" font-family="Times,serif" font-size="14.00">,</text>
</g>
<!-- 0&#45;&gt;10 -->
<g id="edge10" class="edge">
<title>0&#45;&gt;10</title>
<path fill="none" stroke="black" d="M633.28,-94.79C649.44,-87.98 671.76,-78.31 691,-69 713.21,-58.26 737.8,-45.13 756.27,-35.02"/>
<polygon fill="black" stroke="black" points="757.99,-38.07 765.06,-30.18 754.61,-31.93 757.99,-38.07"/>
<text text-anchor="middle" x="733.5" y="-57.8" font-family="Times,serif" font-size="14.00">dep</text>
</g>
<!-- 11 -->
<g id="node12" class="node">
<title>11</title>
<ellipse fill="none" stroke="black" cx="876" cy="-18" rx="46.29" ry="18"/>
<text text-anchor="middle" x="876" y="-14.3" font-family="Times,serif" font-size="14.00">embora</text>
</g>
<!-- 0&#45;&gt;11 -->
<g id="edge11" class="edge">
<title>0&#45;&gt;11</title>
<path fill="none" stroke="black" d="M636.33,-98.75C664.59,-92.65 711.55,-81.76 751,-69 780.45,-59.48 812.88,-46.43 837.33,-36.05"/>
<polygon fill="black" stroke="black" points="838.8,-39.22 846.61,-32.07 836.04,-32.79 838.8,-39.22"/>
<text text-anchor="middle" x="806.5" y="-57.8" font-family="Times,serif" font-size="14.00">dep</text>
</g>
<!-- 12 -->
<g id="node13" class="node">
<title>12</title>
<ellipse fill="none" stroke="black" cx="967" cy="-18" rx="27.1" ry="18"/>
<text text-anchor="middle" x="967" y="-14.3" font-family="Times,serif" font-size="14.00">não</text>
</g>
<!-- 0&#45;&gt;12 -->
<g id="edge12" class="edge">
<title>0&#45;&gt;12</title>
<path fill="none" stroke="black" d="M637.46,-100.83C677.96,-95.72 757.61,-84.62 824,-69 872.44,-57.61 884.6,-54 931,-36 932.84,-35.29 934.71,-34.52 936.59,-33.73"/>
<polygon fill="black" stroke="black" points="938.19,-36.85 945.9,-29.58 935.34,-30.45 938.19,-36.85"/>
<text text-anchor="middle" x="894.5" y="-57.8" font-family="Times,serif" font-size="14.00">dep</text>
</g>
<!-- 13 -->
<g id="node14" class="node">
<title>13</title>
<ellipse fill="none" stroke="black" cx="1039" cy="-18" rx="27" ry="18"/>
<text text-anchor="middle" x="1039" y="-14.3" font-family="Times,serif" font-size="14.00">se</text>
</g>
<!-- 0&#45;&gt;13 -->
<g id="edge13" class="edge">
<title>0&#45;&gt;13</title>
<path fill="none" stroke="black" d="M637.93,-102.96C691.03,-100.46 812.67,-92.45 912,-69 946.2,-60.93 983.4,-45.42 1008.65,-33.81"/>
<polygon fill="black" stroke="black" points="1010.46,-36.83 1018.03,-29.42 1007.49,-30.49 1010.46,-36.83"/>
<text text-anchor="middle" x="972.5" y="-57.8" font-family="Times,serif" font-size="14.00">dep</text>
</g>
<!-- 14 -->
<g id="node15" class="node">
<title>14</title>
<ellipse fill="none" stroke="black" cx="1141" cy="-18" rx="57.39" ry="18"/>
<text text-anchor="middle" x="1141" y="-14.3" font-family="Times,serif" font-size="14.00">conheçam</text>
</g>
<!-- 0&#45;&gt;14 -->
<g id="edge14" class="edge">
<title>0&#45;&gt;14</title>
<path fill="none" stroke="black" d="M637.96,-103.61C700.49,-102.25 859.99,-96.16 990,-69 1027.16,-61.24 1067.95,-47.4 1097.76,-36.24"/>
<polygon fill="black" stroke="black" points="1099.31,-39.39 1107.42,-32.57 1096.83,-32.85 1099.31,-39.39"/>
<text text-anchor="middle" x="1058.5" y="-57.8" font-family="Times,serif" font-size="14.00">dep</text>
</g>
<!-- 15 -->
<g id="node16" class="node">
<title>15</title>
<ellipse fill="none" stroke="black" cx="1243" cy="-18" rx="27" ry="18"/>
<text text-anchor="middle" x="1243" y="-14.3" font-family="Times,serif" font-size="14.00">.</text>
</g>
<!-- 0&#45;&gt;15 -->
<g id="edge15" class="edge">
<title>0&#45;&gt;15</title>
<path fill="none" stroke="black" d="M637.92,-103.59C709.62,-102.13 910.98,-95.79 1076,-69 1135.27,-59.38 1150.48,-56.25 1207,-36 1208.85,-35.34 1210.74,-34.61 1212.63,-33.84"/>
<polygon fill="black" stroke="black" points="1214.2,-36.97 1221.97,-29.77 1211.4,-30.56 1214.2,-36.97"/>
<text text-anchor="middle" x="1165.5" y="-57.8" font-family="Times,serif" font-size="14.00">dep</text>
</g>
</g>
</svg>
