<?xml version="1.0" encoding="UTF-8" standalone="no"?>
<!DOCTYPE svg PUBLIC "-//W3C//DTD SVG 1.1//EN"
 "http://www.w3.org/Graphics/SVG/1.1/DTD/svg11.dtd">
<!-- Generated by graphviz version 2.42.4 (0)
 -->
<!-- Pages: 1 -->
<svg width="1098pt" height="131pt"
 viewBox="0.00 0.00 1098.00 131.00" xmlns="http://www.w3.org/2000/svg" xmlns:xlink="http://www.w3.org/1999/xlink">
<g id="graph0" class="graph" transform="scale(1 1) rotate(0) translate(4 127)">
<polygon fill="white" stroke="transparent" points="-4,4 -4,-127 1094,-127 1094,4 -4,4"/>
<!-- 0 -->
<g id="node1" class="node">
<title>0</title>
<ellipse fill="none" stroke="black" cx="535" cy="-105" rx="27" ry="18"/>
<text text-anchor="middle" x="535" y="-101.3" font-family="Times,serif" font-size="14.00">«</text>
</g>
<!-- 1 -->
<g id="node2" class="node">
<title>1</title>
<ellipse fill="none" stroke="black" cx="27" cy="-18" rx="27" ry="18"/>
<text text-anchor="middle" x="27" y="-14.3" font-family="Times,serif" font-size="14.00">Os</text>
</g>
<!-- 0&#45;&gt;1 -->
<g id="edge1" class="edge">
<title>0&#45;&gt;1</title>
<path fill="none" stroke="black" d="M507.79,-103.25C446.89,-101.15 295.22,-93.69 171,-69 121.77,-59.22 109.81,-54.1 63,-36 61.16,-35.29 59.29,-34.53 57.41,-33.73"/>
<polygon fill="black" stroke="black" points="58.66,-30.46 48.1,-29.59 55.81,-36.85 58.66,-30.46"/>
<text text-anchor="middle" x="184.5" y="-57.8" font-family="Times,serif" font-size="14.00">dep</text>
</g>
<!-- 2 -->
<g id="node3" class="node">
<title>2</title>
<ellipse fill="none" stroke="black" cx="114" cy="-18" rx="42.49" ry="18"/>
<text text-anchor="middle" x="114" y="-14.3" font-family="Times,serif" font-size="14.00">limites</text>
</g>
<!-- 0&#45;&gt;2 -->
<g id="edge2" class="edge">
<title>0&#45;&gt;2</title>
<path fill="none" stroke="black" d="M508.11,-102.69C457.4,-99.77 344.43,-91.16 252,-69 217.35,-60.69 179.38,-46.54 152.06,-35.41"/>
<polygon fill="black" stroke="black" points="153.08,-32.05 142.5,-31.46 150.4,-38.52 153.08,-32.05"/>
<text text-anchor="middle" x="265.5" y="-57.8" font-family="Times,serif" font-size="14.00">dep</text>
</g>
<!-- 3 -->
<g id="node4" class="node">
<title>3</title>
<ellipse fill="none" stroke="black" cx="201" cy="-18" rx="27" ry="18"/>
<text text-anchor="middle" x="201" y="-14.3" font-family="Times,serif" font-size="14.00">de</text>
</g>
<!-- 0&#45;&gt;3 -->
<g id="edge3" class="edge">
<title>0&#45;&gt;3</title>
<path fill="none" stroke="black" d="M508.57,-100.79C469.71,-95.76 395.05,-84.93 333,-69 289.3,-57.78 278.8,-52.99 237,-36 235.18,-35.26 233.31,-34.47 231.44,-33.66"/>
<polygon fill="black" stroke="black" points="232.7,-30.39 222.15,-29.46 229.82,-36.77 232.7,-30.39"/>
<text text-anchor="middle" x="346.5" y="-57.8" font-family="Times,serif" font-size="14.00">dep</text>
</g>
<!-- 4 -->
<g id="node5" class="node">
<title>4</title>
<ellipse fill="none" stroke="black" cx="273" cy="-18" rx="27" ry="18"/>
<text text-anchor="middle" x="273" y="-14.3" font-family="Times,serif" font-size="14.00">a</text>
</g>
<!-- 0&#45;&gt;4 -->
<g id="edge4" class="edge">
<title>0&#45;&gt;4</title>
<path fill="none" stroke="black" d="M510.18,-97.83C468.15,-87.09 380.53,-63.47 309,-36 307.16,-35.29 305.29,-34.53 303.4,-33.74"/>
<polygon fill="black" stroke="black" points="304.65,-30.47 294.09,-29.6 301.81,-36.86 304.65,-30.47"/>
<text text-anchor="middle" x="414.5" y="-57.8" font-family="Times,serif" font-size="14.00">dep</text>
</g>
<!-- 5 -->
<g id="node6" class="node">
<title>5</title>
<ellipse fill="none" stroke="black" cx="386" cy="-18" rx="67.69" ry="18"/>
<text text-anchor="middle" x="386" y="-14.3" font-family="Times,serif" font-size="14.00">privatização</text>
</g>
<!-- 0&#45;&gt;5 -->
<g id="edge5" class="edge">
<title>0&#45;&gt;5</title>
<path fill="none" stroke="black" d="M515.21,-92.71C491.47,-79.17 451.19,-56.19 421.91,-39.48"/>
<polygon fill="black" stroke="black" points="423.62,-36.43 413.2,-34.52 420.16,-42.51 423.62,-36.43"/>
<text text-anchor="middle" x="483.5" y="-57.8" font-family="Times,serif" font-size="14.00">dep</text>
</g>
<!-- 6 -->
<g id="node7" class="node">
<title>6</title>
<ellipse fill="none" stroke="black" cx="499" cy="-18" rx="27" ry="18"/>
<text text-anchor="middle" x="499" y="-14.3" font-family="Times,serif" font-size="14.00">são</text>
</g>
<!-- 0&#45;&gt;6 -->
<g id="edge6" class="edge">
<title>0&#45;&gt;6</title>
<path fill="none" stroke="black" d="M527.89,-87.21C522.78,-75.14 515.79,-58.64 509.97,-44.89"/>
<polygon fill="black" stroke="black" points="513.1,-43.31 505.98,-35.47 506.65,-46.04 513.1,-43.31"/>
<text text-anchor="middle" x="533.5" y="-57.8" font-family="Times,serif" font-size="14.00">dep</text>
</g>
<!-- 7 -->
<g id="node8" class="node">
<title>7</title>
<ellipse fill="none" stroke="black" cx="571" cy="-18" rx="27" ry="18"/>
<text text-anchor="middle" x="571" y="-14.3" font-family="Times,serif" font-size="14.00">as</text>
</g>
<!-- 0&#45;&gt;7 -->
<g id="edge7" class="edge">
<title>0&#45;&gt;7</title>
<path fill="none" stroke="black" d="M542.11,-87.21C547.22,-75.14 554.21,-58.64 560.03,-44.89"/>
<polygon fill="black" stroke="black" points="563.35,-46.04 564.02,-35.47 556.9,-43.31 563.35,-46.04"/>
<text text-anchor="middle" x="569.5" y="-57.8" font-family="Times,serif" font-size="14.00">dep</text>
</g>
<!-- 8 -->
<g id="node9" class="node">
<title>8</title>
<ellipse fill="none" stroke="black" cx="688" cy="-18" rx="72.29" ry="18"/>
<text text-anchor="middle" x="688" y="-14.3" font-family="Times,serif" font-size="14.00">necessidades</text>
</g>
<!-- 0&#45;&gt;8 -->
<g id="edge8" class="edge">
<title>0&#45;&gt;8</title>
<path fill="none" stroke="black" d="M555,-92.89C579.3,-79.39 620.78,-56.35 650.97,-39.57"/>
<polygon fill="black" stroke="black" points="652.9,-42.5 659.94,-34.59 649.5,-36.39 652.9,-42.5"/>
<text text-anchor="middle" x="634.5" y="-57.8" font-family="Times,serif" font-size="14.00">dep</text>
</g>
<!-- 9 -->
<g id="node10" class="node">
<title>9</title>
<ellipse fill="none" stroke="black" cx="805" cy="-18" rx="27" ry="18"/>
<text text-anchor="middle" x="805" y="-14.3" font-family="Times,serif" font-size="14.00">de</text>
</g>
<!-- 0&#45;&gt;9 -->
<g id="edge9" class="edge">
<title>0&#45;&gt;9</title>
<path fill="none" stroke="black" d="M560.02,-98.12C603.29,-87.64 694.62,-64.17 769,-36 770.84,-35.3 772.72,-34.55 774.6,-33.76"/>
<polygon fill="black" stroke="black" points="776.19,-36.89 783.92,-29.64 773.36,-30.49 776.19,-36.89"/>
<text text-anchor="middle" x="726.5" y="-57.8" font-family="Times,serif" font-size="14.00">dep</text>
</g>
<!-- 10 -->
<g id="node11" class="node">
<title>10</title>
<ellipse fill="none" stroke="black" cx="877" cy="-18" rx="27" ry="18"/>
<text text-anchor="middle" x="877" y="-14.3" font-family="Times,serif" font-size="14.00">o</text>
</g>
<!-- 0&#45;&gt;10 -->
<g id="edge10" class="edge">
<title>0&#45;&gt;10</title>
<path fill="none" stroke="black" d="M561.35,-100.98C601.26,-96.09 679.25,-85.32 744,-69 788.16,-57.87 798.79,-53.08 841,-36 842.83,-35.26 844.69,-34.48 846.57,-33.66"/>
<polygon fill="black" stroke="black" points="848.18,-36.77 855.86,-29.47 845.3,-30.39 848.18,-36.77"/>
<text text-anchor="middle" x="808.5" y="-57.8" font-family="Times,serif" font-size="14.00">dep</text>
</g>
<!-- 11 -->
<g id="node12" class="node">
<title>11</title>
<ellipse fill="none" stroke="black" cx="970" cy="-18" rx="48.19" ry="18"/>
<text text-anchor="middle" x="970" y="-14.3" font-family="Times,serif" font-size="14.00">governo</text>
</g>
<!-- 0&#45;&gt;11 -->
<g id="edge11" class="edge">
<title>0&#45;&gt;11</title>
<path fill="none" stroke="black" d="M561.81,-102.7C613.51,-99.77 730.31,-91.1 826,-69 861.75,-60.74 901.02,-46.76 929.5,-35.68"/>
<polygon fill="black" stroke="black" points="931.09,-38.82 939.11,-31.9 928.52,-32.31 931.09,-38.82"/>
<text text-anchor="middle" x="892.5" y="-57.8" font-family="Times,serif" font-size="14.00">dep</text>
</g>
<!-- 12 -->
<g id="node13" class="node">
<title>12</title>
<ellipse fill="none" stroke="black" cx="1063" cy="-18" rx="27" ry="18"/>
<text text-anchor="middle" x="1063" y="-14.3" font-family="Times,serif" font-size="14.00">.</text>
</g>
<!-- 0&#45;&gt;12 -->
<g id="edge12" class="edge">
<title>0&#45;&gt;12</title>
<path fill="none" stroke="black" d="M562.06,-103.16C624.09,-100.87 781.11,-92.99 910,-69 963.12,-59.12 976.4,-54.93 1027,-36 1028.84,-35.31 1030.73,-34.56 1032.61,-33.78"/>
<polygon fill="black" stroke="black" points="1034.2,-36.9 1041.93,-29.66 1031.37,-30.5 1034.2,-36.9"/>
<text text-anchor="middle" x="989.5" y="-57.8" font-family="Times,serif" font-size="14.00">dep</text>
</g>
</g>
</svg>
