<?xml version="1.0" encoding="UTF-8" standalone="no"?>
<!DOCTYPE svg PUBLIC "-//W3C//DTD SVG 1.1//EN"
 "http://www.w3.org/Graphics/SVG/1.1/DTD/svg11.dtd">
<!-- Generated by graphviz version 2.42.4 (0)
 -->
<!-- Pages: 1 -->
<svg width="1383pt" height="131pt"
 viewBox="0.00 0.00 1383.00 131.00" xmlns="http://www.w3.org/2000/svg" xmlns:xlink="http://www.w3.org/1999/xlink">
<g id="graph0" class="graph" transform="scale(1 1) rotate(0) translate(4 127)">
<polygon fill="white" stroke="transparent" points="-4,4 -4,-127 1379,-127 1379,4 -4,4"/>
<!-- 0 -->
<g id="node1" class="node">
<title>0</title>
<ellipse fill="none" stroke="black" cx="718" cy="-105" rx="32.49" ry="18"/>
<text text-anchor="middle" x="718" y="-101.3" font-family="Times,serif" font-size="14.00">Uma</text>
</g>
<!-- 1 -->
<g id="node2" class="node">
<title>1</title>
<ellipse fill="none" stroke="black" cx="27" cy="-18" rx="27" ry="18"/>
<text text-anchor="middle" x="27" y="-14.3" font-family="Times,serif" font-size="14.00">de</text>
</g>
<!-- 0&#45;&gt;1 -->
<g id="edge1" class="edge">
<title>0&#45;&gt;1</title>
<path fill="none" stroke="black" d="M685.31,-103.22C580.83,-100.51 255.8,-90.55 153,-69 118.84,-61.84 81.97,-46.19 56.99,-34.3"/>
<polygon fill="black" stroke="black" points="58.24,-31.01 47.71,-29.79 55.18,-37.31 58.24,-31.01"/>
<text text-anchor="middle" x="166.5" y="-57.8" font-family="Times,serif" font-size="14.00">dep</text>
</g>
<!-- 2 -->
<g id="node3" class="node">
<title>2</title>
<ellipse fill="none" stroke="black" cx="99" cy="-18" rx="27" ry="18"/>
<text text-anchor="middle" x="99" y="-14.3" font-family="Times,serif" font-size="14.00">as</text>
</g>
<!-- 0&#45;&gt;2 -->
<g id="edge2" class="edge">
<title>0&#45;&gt;2</title>
<path fill="none" stroke="black" d="M685.28,-104.16C607.51,-103.98 405.79,-100.27 241,-69 192.52,-59.8 180.98,-53.91 135,-36 133.16,-35.28 131.29,-34.52 129.41,-33.72"/>
<polygon fill="black" stroke="black" points="130.66,-30.45 120.11,-29.57 127.81,-36.84 130.66,-30.45"/>
<text text-anchor="middle" x="254.5" y="-57.8" font-family="Times,serif" font-size="14.00">dep</text>
</g>
<!-- 3 -->
<g id="node4" class="node">
<title>3</title>
<ellipse fill="none" stroke="black" cx="183" cy="-18" rx="38.99" ry="18"/>
<text text-anchor="middle" x="183" y="-14.3" font-family="Times,serif" font-size="14.00">coisas</text>
</g>
<!-- 0&#45;&gt;3 -->
<g id="edge3" class="edge">
<title>0&#45;&gt;3</title>
<path fill="none" stroke="black" d="M685.32,-103.9C617.15,-103.08 455.15,-97.95 323,-69 286.8,-61.07 247.17,-46.31 219.35,-34.87"/>
<polygon fill="black" stroke="black" points="220.6,-31.6 210.02,-30.98 217.9,-38.06 220.6,-31.6"/>
<text text-anchor="middle" x="336.5" y="-57.8" font-family="Times,serif" font-size="14.00">dep</text>
</g>
<!-- 4 -->
<g id="node5" class="node">
<title>4</title>
<ellipse fill="none" stroke="black" cx="268" cy="-18" rx="27.9" ry="18"/>
<text text-anchor="middle" x="268" y="-14.3" font-family="Times,serif" font-size="14.00">que</text>
</g>
<!-- 0&#45;&gt;4 -->
<g id="edge4" class="edge">
<title>0&#45;&gt;4</title>
<path fill="none" stroke="black" d="M685.75,-102.37C629.32,-99.07 509.24,-90.03 410,-69 362.15,-58.86 350.65,-53.58 305,-36 303.12,-35.28 301.2,-34.5 299.27,-33.7"/>
<polygon fill="black" stroke="black" points="300.28,-30.32 289.72,-29.53 297.48,-36.74 300.28,-30.32"/>
<text text-anchor="middle" x="423.5" y="-57.8" font-family="Times,serif" font-size="14.00">dep</text>
</g>
<!-- 5 -->
<g id="node6" class="node">
<title>5</title>
<ellipse fill="none" stroke="black" cx="341" cy="-18" rx="27" ry="18"/>
<text text-anchor="middle" x="341" y="-14.3" font-family="Times,serif" font-size="14.00">os</text>
</g>
<!-- 0&#45;&gt;5 -->
<g id="edge5" class="edge">
<title>0&#45;&gt;5</title>
<path fill="none" stroke="black" d="M686.2,-100.64C624.96,-93.53 487.01,-74.36 377,-36 375.09,-35.33 373.15,-34.6 371.2,-33.82"/>
<polygon fill="black" stroke="black" points="372.19,-30.43 361.63,-29.65 369.4,-36.85 372.19,-30.43"/>
<text text-anchor="middle" x="501.5" y="-57.8" font-family="Times,serif" font-size="14.00">dep</text>
</g>
<!-- 6 -->
<g id="node7" class="node">
<title>6</title>
<ellipse fill="none" stroke="black" cx="442" cy="-18" rx="55.79" ry="18"/>
<text text-anchor="middle" x="442" y="-14.3" font-family="Times,serif" font-size="14.00">linguistas</text>
</g>
<!-- 0&#45;&gt;6 -->
<g id="edge6" class="edge">
<title>0&#45;&gt;6</title>
<path fill="none" stroke="black" d="M689.57,-96.25C664.58,-89.35 627.27,-78.86 595,-69 559.22,-58.07 519.03,-44.9 488.82,-34.82"/>
<polygon fill="black" stroke="black" points="489.57,-31.38 478.97,-31.53 487.35,-38.02 489.57,-31.38"/>
<text text-anchor="middle" x="608.5" y="-57.8" font-family="Times,serif" font-size="14.00">dep</text>
</g>
<!-- 7 -->
<g id="node8" class="node">
<title>7</title>
<ellipse fill="none" stroke="black" cx="552" cy="-18" rx="36.29" ry="18"/>
<text text-anchor="middle" x="552" y="-14.3" font-family="Times,serif" font-size="14.00">ainda</text>
</g>
<!-- 0&#45;&gt;7 -->
<g id="edge7" class="edge">
<title>0&#45;&gt;7</title>
<path fill="none" stroke="black" d="M694.92,-92.18C666.54,-77.65 618.15,-52.87 585.64,-36.22"/>
<polygon fill="black" stroke="black" points="587,-32.99 576.51,-31.55 583.81,-39.22 587,-32.99"/>
<text text-anchor="middle" x="658.5" y="-57.8" font-family="Times,serif" font-size="14.00">dep</text>
</g>
<!-- 8 -->
<g id="node9" class="node">
<title>8</title>
<ellipse fill="none" stroke="black" cx="660" cy="-18" rx="53.09" ry="18"/>
<text text-anchor="middle" x="660" y="-14.3" font-family="Times,serif" font-size="14.00">precisam</text>
</g>
<!-- 0&#45;&gt;8 -->
<g id="edge8" class="edge">
<title>0&#45;&gt;8</title>
<path fill="none" stroke="black" d="M707.09,-88.01C698.67,-75.67 686.85,-58.35 677.16,-44.15"/>
<polygon fill="black" stroke="black" points="679.98,-42.08 671.46,-35.79 674.2,-46.02 679.98,-42.08"/>
<text text-anchor="middle" x="706.5" y="-57.8" font-family="Times,serif" font-size="14.00">dep</text>
</g>
<!-- 9 -->
<g id="node10" class="node">
<title>9</title>
<ellipse fill="none" stroke="black" cx="777" cy="-18" rx="46.29" ry="18"/>
<text text-anchor="middle" x="777" y="-14.3" font-family="Times,serif" font-size="14.00">estudar</text>
</g>
<!-- 0&#45;&gt;9 -->
<g id="edge9" class="edge">
<title>0&#45;&gt;9</title>
<path fill="none" stroke="black" d="M729.1,-88.01C737.72,-75.59 749.84,-58.13 759.73,-43.88"/>
<polygon fill="black" stroke="black" points="762.72,-45.71 765.55,-35.5 756.97,-41.72 762.72,-45.71"/>
<text text-anchor="middle" x="765.5" y="-57.8" font-family="Times,serif" font-size="14.00">dep</text>
</g>
<!-- 10 -->
<g id="node11" class="node">
<title>10</title>
<ellipse fill="none" stroke="black" cx="868" cy="-18" rx="27" ry="18"/>
<text text-anchor="middle" x="868" y="-14.3" font-family="Times,serif" font-size="14.00">é</text>
</g>
<!-- 0&#45;&gt;10 -->
<g id="edge10" class="edge">
<title>0&#45;&gt;10</title>
<path fill="none" stroke="black" d="M740.68,-92.06C753.22,-85.39 769.04,-76.86 783,-69 802.13,-58.23 823.43,-45.7 839.92,-35.88"/>
<polygon fill="black" stroke="black" points="841.75,-38.86 848.54,-30.73 838.16,-32.85 841.75,-38.86"/>
<text text-anchor="middle" x="822.5" y="-57.8" font-family="Times,serif" font-size="14.00">dep</text>
</g>
<!-- 11 -->
<g id="node12" class="node">
<title>11</title>
<ellipse fill="none" stroke="black" cx="940" cy="-18" rx="27" ry="18"/>
<text text-anchor="middle" x="940" y="-14.3" font-family="Times,serif" font-size="14.00">a</text>
</g>
<!-- 0&#45;&gt;11 -->
<g id="edge11" class="edge">
<title>0&#45;&gt;11</title>
<path fill="none" stroke="black" d="M747.59,-97.14C772.61,-90.95 809.2,-81 840,-69 864.71,-59.37 891.53,-45.78 911.17,-35.19"/>
<polygon fill="black" stroke="black" points="913.09,-38.13 920.19,-30.27 909.74,-31.99 913.09,-38.13"/>
<text text-anchor="middle" x="887.5" y="-57.8" font-family="Times,serif" font-size="14.00">dep</text>
</g>
<!-- 12 -->
<g id="node13" class="node">
<title>12</title>
<ellipse fill="none" stroke="black" cx="1023" cy="-18" rx="38.19" ry="18"/>
<text text-anchor="middle" x="1023" y="-14.3" font-family="Times,serif" font-size="14.00">teoria</text>
</g>
<!-- 0&#45;&gt;12 -->
<g id="edge12" class="edge">
<title>0&#45;&gt;12</title>
<path fill="none" stroke="black" d="M749.6,-100.2C787.18,-95.21 851.56,-85.12 905,-69 933.83,-60.3 965.16,-46.83 988.29,-36.05"/>
<polygon fill="black" stroke="black" points="989.8,-39.21 997.35,-31.78 986.82,-32.88 989.8,-39.21"/>
<text text-anchor="middle" x="958.5" y="-57.8" font-family="Times,serif" font-size="14.00">dep</text>
</g>
<!-- 13 -->
<g id="node14" class="node">
<title>13</title>
<ellipse fill="none" stroke="black" cx="1106" cy="-18" rx="27" ry="18"/>
<text text-anchor="middle" x="1106" y="-14.3" font-family="Times,serif" font-size="14.00">de</text>
</g>
<!-- 0&#45;&gt;13 -->
<g id="edge13" class="edge">
<title>0&#45;&gt;13</title>
<path fill="none" stroke="black" d="M750.16,-101.74C799.36,-97.82 896.02,-88.25 976,-69 1019.05,-58.64 1029.04,-52.81 1070,-36 1071.82,-35.25 1073.69,-34.46 1075.56,-33.64"/>
<polygon fill="black" stroke="black" points="1077.18,-36.75 1084.84,-29.44 1074.29,-30.37 1077.18,-36.75"/>
<text text-anchor="middle" x="1039.5" y="-57.8" font-family="Times,serif" font-size="14.00">dep</text>
</g>
<!-- 14 -->
<g id="node15" class="node">
<title>14</title>
<ellipse fill="none" stroke="black" cx="1178" cy="-18" rx="27" ry="18"/>
<text text-anchor="middle" x="1178" y="-14.3" font-family="Times,serif" font-size="14.00">os</text>
</g>
<!-- 0&#45;&gt;14 -->
<g id="edge14" class="edge">
<title>0&#45;&gt;14</title>
<path fill="none" stroke="black" d="M750.74,-103.51C811.8,-101.97 946.85,-95.56 1057,-69 1089.24,-61.23 1124.03,-46.07 1148,-34.48"/>
<polygon fill="black" stroke="black" points="1149.83,-37.48 1157.25,-29.91 1146.73,-31.2 1149.83,-37.48"/>
<text text-anchor="middle" x="1115.5" y="-57.8" font-family="Times,serif" font-size="14.00">dep</text>
</g>
<!-- 15 -->
<g id="node16" class="node">
<title>15</title>
<ellipse fill="none" stroke="black" cx="1263" cy="-18" rx="40.09" ry="18"/>
<text text-anchor="middle" x="1263" y="-14.3" font-family="Times,serif" font-size="14.00">tropos</text>
</g>
<!-- 0&#45;&gt;15 -->
<g id="edge15" class="edge">
<title>0&#45;&gt;15</title>
<path fill="none" stroke="black" d="M750.5,-104.36C821.08,-104.46 993.29,-101.07 1133,-69 1165.81,-61.47 1201.38,-47.34 1227.01,-36.02"/>
<polygon fill="black" stroke="black" points="1228.63,-39.13 1236.31,-31.84 1225.76,-32.74 1228.63,-39.13"/>
<text text-anchor="middle" x="1194.5" y="-57.8" font-family="Times,serif" font-size="14.00">dep</text>
</g>
<!-- 16 -->
<g id="node17" class="node">
<title>16</title>
<ellipse fill="none" stroke="black" cx="1348" cy="-18" rx="27" ry="18"/>
<text text-anchor="middle" x="1348" y="-14.3" font-family="Times,serif" font-size="14.00">.</text>
</g>
<!-- 0&#45;&gt;16 -->
<g id="edge16" class="edge">
<title>0&#45;&gt;16</title>
<path fill="none" stroke="black" d="M750.74,-104.46C830.47,-104.99 1040.76,-102.77 1212,-69 1257.92,-59.94 1268.54,-53.36 1312,-36 1313.83,-35.27 1315.7,-34.49 1317.57,-33.68"/>
<polygon fill="black" stroke="black" points="1319.18,-36.8 1326.87,-29.51 1316.31,-30.41 1319.18,-36.8"/>
<text text-anchor="middle" x="1280.5" y="-57.8" font-family="Times,serif" font-size="14.00">dep</text>
</g>
</g>
</svg>
