<?xml version="1.0" encoding="UTF-8" standalone="no"?>
<!DOCTYPE svg PUBLIC "-//W3C//DTD SVG 1.1//EN"
 "http://www.w3.org/Graphics/SVG/1.1/DTD/svg11.dtd">
<!-- Generated by graphviz version 2.42.4 (0)
 -->
<!-- Pages: 1 -->
<svg width="2824pt" height="131pt"
 viewBox="0.00 0.00 2823.90 131.00" xmlns="http://www.w3.org/2000/svg" xmlns:xlink="http://www.w3.org/1999/xlink">
<g id="graph0" class="graph" transform="scale(1 1) rotate(0) translate(4 127)">
<polygon fill="white" stroke="transparent" points="-4,4 -4,-127 2819.9,-127 2819.9,4 -4,4"/>
<!-- 0 -->
<g id="node1" class="node">
<title>0</title>
<ellipse fill="none" stroke="black" cx="1512.9" cy="-105" rx="27" ry="18"/>
<text text-anchor="middle" x="1512.9" y="-101.3" font-family="Times,serif" font-size="14.00">E</text>
</g>
<!-- 1 -->
<g id="node2" class="node">
<title>1</title>
<ellipse fill="none" stroke="black" cx="55.9" cy="-18" rx="55.79" ry="18"/>
<text text-anchor="middle" x="55.9" y="-14.3" font-family="Times,serif" font-size="14.00">comprova</text>
</g>
<!-- 0&#45;&gt;1 -->
<g id="edge1" class="edge">
<title>0&#45;&gt;1</title>
<path fill="none" stroke="black" d="M1485.9,-103.73C1311.17,-101.89 343.35,-90.78 213.9,-69 173.96,-62.28 130.17,-47.83 98.84,-36.19"/>
<polygon fill="black" stroke="black" points="99.72,-32.78 89.13,-32.52 97.24,-39.33 99.72,-32.78"/>
<text text-anchor="middle" x="227.4" y="-57.8" font-family="Times,serif" font-size="14.00">dep</text>
</g>
<!-- 2 -->
<g id="node3" class="node">
<title>2</title>
<ellipse fill="none" stroke="black" cx="157.9" cy="-18" rx="27.9" ry="18"/>
<text text-anchor="middle" x="157.9" y="-14.3" font-family="Times,serif" font-size="14.00">que</text>
</g>
<!-- 0&#45;&gt;2 -->
<g id="edge2" class="edge">
<title>0&#45;&gt;2</title>
<path fill="none" stroke="black" d="M1485.81,-104.23C1329.26,-105.41 539.08,-109.24 299.9,-69 260.47,-62.37 217.46,-45.81 189.23,-33.56"/>
<polygon fill="black" stroke="black" points="190.45,-30.27 179.89,-29.42 187.62,-36.67 190.45,-30.27"/>
<text text-anchor="middle" x="313.4" y="-57.8" font-family="Times,serif" font-size="14.00">dep</text>
</g>
<!-- 3 -->
<g id="node4" class="node">
<title>3</title>
<ellipse fill="none" stroke="black" cx="230.9" cy="-18" rx="27" ry="18"/>
<text text-anchor="middle" x="230.9" y="-14.3" font-family="Times,serif" font-size="14.00">a</text>
</g>
<!-- 0&#45;&gt;3 -->
<g id="edge3" class="edge">
<title>0&#45;&gt;3</title>
<path fill="none" stroke="black" d="M1485.66,-103.7C1339.73,-102.02 649.09,-92.89 436.9,-69 360.41,-60.39 340.04,-59.95 266.9,-36 264.97,-35.37 263.02,-34.66 261.07,-33.9"/>
<polygon fill="black" stroke="black" points="262.04,-30.51 251.47,-29.79 259.29,-36.95 262.04,-30.51"/>
<text text-anchor="middle" x="450.4" y="-57.8" font-family="Times,serif" font-size="14.00">dep</text>
</g>
<!-- 4 -->
<g id="node5" class="node">
<title>4</title>
<ellipse fill="none" stroke="black" cx="341.9" cy="-18" rx="66.09" ry="18"/>
<text text-anchor="middle" x="341.9" y="-14.3" font-family="Times,serif" font-size="14.00">Petroplastic</text>
</g>
<!-- 0&#45;&gt;4 -->
<g id="edge4" class="edge">
<title>0&#45;&gt;4</title>
<path fill="none" stroke="black" d="M1485.55,-103.8C1347.79,-102.69 729,-96.22 538.9,-69 488.5,-61.78 432.34,-46.82 392.92,-35.13"/>
<polygon fill="black" stroke="black" points="393.85,-31.76 383.27,-32.24 391.84,-38.47 393.85,-31.76"/>
<text text-anchor="middle" x="552.4" y="-57.8" font-family="Times,serif" font-size="14.00">dep</text>
</g>
<!-- 5 -->
<g id="node6" class="node">
<title>5</title>
<ellipse fill="none" stroke="black" cx="473.9" cy="-18" rx="48.19" ry="18"/>
<text text-anchor="middle" x="473.9" y="-14.3" font-family="Times,serif" font-size="14.00">recebeu</text>
</g>
<!-- 0&#45;&gt;5 -->
<g id="edge5" class="edge">
<title>0&#45;&gt;5</title>
<path fill="none" stroke="black" d="M1485.77,-103.96C1355.75,-103.62 795.41,-100.31 623.9,-69 585.68,-62.02 543.88,-47.48 514.14,-35.87"/>
<polygon fill="black" stroke="black" points="515.12,-32.5 504.54,-32.06 512.54,-39 515.12,-32.5"/>
<text text-anchor="middle" x="637.4" y="-57.8" font-family="Times,serif" font-size="14.00">dep</text>
</g>
<!-- 6 -->
<g id="node7" class="node">
<title>6</title>
<ellipse fill="none" stroke="black" cx="570.9" cy="-18" rx="30.59" ry="18"/>
<text text-anchor="middle" x="570.9" y="-14.3" font-family="Times,serif" font-size="14.00">US$</text>
</g>
<!-- 0&#45;&gt;6 -->
<g id="edge6" class="edge">
<title>0&#45;&gt;6</title>
<path fill="none" stroke="black" d="M1485.56,-103.84C1362.92,-102.96 862.73,-97.65 708.9,-69 671.63,-62.06 631.09,-46.31 603.65,-34.32"/>
<polygon fill="black" stroke="black" points="604.73,-30.97 594.17,-30.1 601.88,-37.37 604.73,-30.97"/>
<text text-anchor="middle" x="722.4" y="-57.8" font-family="Times,serif" font-size="14.00">dep</text>
</g>
<!-- 7 -->
<g id="node8" class="node">
<title>7</title>
<ellipse fill="none" stroke="black" cx="646.9" cy="-18" rx="27" ry="18"/>
<text text-anchor="middle" x="646.9" y="-14.3" font-family="Times,serif" font-size="14.00">5</text>
</g>
<!-- 0&#45;&gt;7 -->
<g id="edge7" class="edge">
<title>0&#45;&gt;7</title>
<path fill="none" stroke="black" d="M1485.94,-103.34C1374.43,-100.52 948.79,-88.64 815.9,-69 755.65,-60.1 740.27,-56.44 682.9,-36 680.99,-35.32 679.05,-34.58 677.11,-33.79"/>
<polygon fill="black" stroke="black" points="678.1,-30.4 667.54,-29.6 675.3,-36.82 678.1,-30.4"/>
<text text-anchor="middle" x="829.4" y="-57.8" font-family="Times,serif" font-size="14.00">dep</text>
</g>
<!-- 8 -->
<g id="node9" class="node">
<title>8</title>
<ellipse fill="none" stroke="black" cx="738.9" cy="-18" rx="46.59" ry="18"/>
<text text-anchor="middle" x="738.9" y="-14.3" font-family="Times,serif" font-size="14.00">milhões</text>
</g>
<!-- 0&#45;&gt;8 -->
<g id="edge8" class="edge">
<title>0&#45;&gt;8</title>
<path fill="none" stroke="black" d="M1485.75,-103.25C1383.47,-100.28 1021.42,-88.6 907.9,-69 863.71,-61.37 814.74,-46.09 780.93,-34.42"/>
<polygon fill="black" stroke="black" points="781.98,-31.08 771.39,-31.08 779.67,-37.69 781.98,-31.08"/>
<text text-anchor="middle" x="921.4" y="-57.8" font-family="Times,serif" font-size="14.00">dep</text>
</g>
<!-- 9 -->
<g id="node10" class="node">
<title>9</title>
<ellipse fill="none" stroke="black" cx="835.9" cy="-18" rx="31.7" ry="18"/>
<text text-anchor="middle" x="835.9" y="-14.3" font-family="Times,serif" font-size="14.00">para</text>
</g>
<!-- 0&#45;&gt;9 -->
<g id="edge9" class="edge">
<title>0&#45;&gt;9</title>
<path fill="none" stroke="black" d="M1485.79,-103.64C1410.69,-102.3 1193.75,-96.19 1015.9,-69 953.13,-59.4 937.3,-55.56 876.9,-36 874.61,-35.26 872.27,-34.45 869.92,-33.59"/>
<polygon fill="black" stroke="black" points="870.96,-30.24 860.37,-29.9 868.44,-36.77 870.96,-30.24"/>
<text text-anchor="middle" x="1029.4" y="-57.8" font-family="Times,serif" font-size="14.00">dep</text>
</g>
<!-- 10 -->
<g id="node11" class="node">
<title>10</title>
<ellipse fill="none" stroke="black" cx="942.9" cy="-18" rx="57.39" ry="18"/>
<text text-anchor="middle" x="942.9" y="-14.3" font-family="Times,serif" font-size="14.00">concordar</text>
</g>
<!-- 0&#45;&gt;10 -->
<g id="edge10" class="edge">
<title>0&#45;&gt;10</title>
<path fill="none" stroke="black" d="M1485.96,-103.65C1420.34,-102.37 1247.23,-96.43 1105.9,-69 1065.21,-61.1 1020.27,-46.89 987.9,-35.63"/>
<polygon fill="black" stroke="black" points="988.87,-32.26 978.27,-32.24 986.54,-38.86 988.87,-32.26"/>
<text text-anchor="middle" x="1119.4" y="-57.8" font-family="Times,serif" font-size="14.00">dep</text>
</g>
<!-- 11 -->
<g id="node12" class="node">
<title>11</title>
<ellipse fill="none" stroke="black" cx="1047.9" cy="-18" rx="29.8" ry="18"/>
<text text-anchor="middle" x="1047.9" y="-14.3" font-family="Times,serif" font-size="14.00">com</text>
</g>
<!-- 0&#45;&gt;11 -->
<g id="edge11" class="edge">
<title>0&#45;&gt;11</title>
<path fill="none" stroke="black" d="M1485.74,-102.76C1430.35,-99.85 1300.55,-91.09 1193.9,-69 1145.16,-58.91 1133.56,-53.3 1086.9,-36 1084.81,-35.23 1082.68,-34.4 1080.54,-33.55"/>
<polygon fill="black" stroke="black" points="1081.81,-30.28 1071.23,-29.68 1079.12,-36.75 1081.81,-30.28"/>
<text text-anchor="middle" x="1207.4" y="-57.8" font-family="Times,serif" font-size="14.00">dep</text>
</g>
<!-- 12 -->
<g id="node13" class="node">
<title>12</title>
<ellipse fill="none" stroke="black" cx="1122.9" cy="-18" rx="27" ry="18"/>
<text text-anchor="middle" x="1122.9" y="-14.3" font-family="Times,serif" font-size="14.00">a</text>
</g>
<!-- 0&#45;&gt;12 -->
<g id="edge12" class="edge">
<title>0&#45;&gt;12</title>
<path fill="none" stroke="black" d="M1486.05,-101.41C1426.05,-95.06 1277.08,-76.24 1158.9,-36 1156.98,-35.35 1155.03,-34.62 1153.09,-33.85"/>
<polygon fill="black" stroke="black" points="1154.07,-30.46 1143.5,-29.71 1151.29,-36.89 1154.07,-30.46"/>
<text text-anchor="middle" x="1287.4" y="-57.8" font-family="Times,serif" font-size="14.00">dep</text>
</g>
<!-- 13 -->
<g id="node14" class="node">
<title>13</title>
<ellipse fill="none" stroke="black" cx="1240.9" cy="-18" rx="72.59" ry="18"/>
<text text-anchor="middle" x="1240.9" y="-14.3" font-family="Times,serif" font-size="14.00">transferência</text>
</g>
<!-- 0&#45;&gt;13 -->
<g id="edge13" class="edge">
<title>0&#45;&gt;13</title>
<path fill="none" stroke="black" d="M1488.01,-97.81C1461.92,-91.19 1419.8,-80.13 1383.9,-69 1351.99,-59.11 1316.54,-46.72 1288.92,-36.75"/>
<polygon fill="black" stroke="black" points="1290.08,-33.45 1279.49,-33.34 1287.7,-40.03 1290.08,-33.45"/>
<text text-anchor="middle" x="1397.4" y="-57.8" font-family="Times,serif" font-size="14.00">dep</text>
</g>
<!-- 14 -->
<g id="node15" class="node">
<title>14</title>
<ellipse fill="none" stroke="black" cx="1358.9" cy="-18" rx="27" ry="18"/>
<text text-anchor="middle" x="1358.9" y="-14.3" font-family="Times,serif" font-size="14.00">,</text>
</g>
<!-- 0&#45;&gt;14 -->
<g id="edge14" class="edge">
<title>0&#45;&gt;14</title>
<path fill="none" stroke="black" d="M1490.87,-94.4C1475.97,-87.7 1455.98,-78.34 1438.9,-69 1420.75,-59.08 1401.05,-46.79 1385.74,-36.88"/>
<polygon fill="black" stroke="black" points="1387.56,-33.89 1377.28,-31.35 1383.74,-39.75 1387.56,-33.89"/>
<text text-anchor="middle" x="1452.4" y="-57.8" font-family="Times,serif" font-size="14.00">dep</text>
</g>
<!-- 15 -->
<g id="node16" class="node">
<title>15</title>
<ellipse fill="none" stroke="black" cx="1435.9" cy="-18" rx="31.7" ry="18"/>
<text text-anchor="middle" x="1435.9" y="-14.3" font-family="Times,serif" font-size="14.00">para</text>
</g>
<!-- 0&#45;&gt;15 -->
<g id="edge15" class="edge">
<title>0&#45;&gt;15</title>
<path fill="none" stroke="black" d="M1499.48,-89.19C1487.67,-76.15 1470.27,-56.95 1456.66,-41.92"/>
<polygon fill="black" stroke="black" points="1459.24,-39.56 1449.93,-34.5 1454.05,-44.26 1459.24,-39.56"/>
<text text-anchor="middle" x="1493.4" y="-57.8" font-family="Times,serif" font-size="14.00">dep</text>
</g>
<!-- 16 -->
<g id="node17" class="node">
<title>16</title>
<ellipse fill="none" stroke="black" cx="1512.9" cy="-18" rx="27" ry="18"/>
<text text-anchor="middle" x="1512.9" y="-14.3" font-family="Times,serif" font-size="14.00">a</text>
</g>
<!-- 0&#45;&gt;16 -->
<g id="edge16" class="edge">
<title>0&#45;&gt;16</title>
<path fill="none" stroke="black" d="M1512.9,-86.8C1512.9,-75.16 1512.9,-59.55 1512.9,-46.24"/>
<polygon fill="black" stroke="black" points="1516.4,-46.18 1512.9,-36.18 1509.4,-46.18 1516.4,-46.18"/>
<text text-anchor="middle" x="1526.4" y="-57.8" font-family="Times,serif" font-size="14.00">dep</text>
</g>
<!-- 17 -->
<g id="node18" class="node">
<title>17</title>
<ellipse fill="none" stroke="black" cx="1588.9" cy="-18" rx="31.4" ry="18"/>
<text text-anchor="middle" x="1588.9" y="-14.3" font-family="Times,serif" font-size="14.00">Dow</text>
</g>
<!-- 0&#45;&gt;17 -->
<g id="edge17" class="edge">
<title>0&#45;&gt;17</title>
<path fill="none" stroke="black" d="M1526.13,-89.19C1537.76,-76.19 1554.86,-57.06 1568.28,-42.06"/>
<polygon fill="black" stroke="black" points="1571.24,-44 1575.3,-34.21 1566.02,-39.33 1571.24,-44"/>
<text text-anchor="middle" x="1569.4" y="-57.8" font-family="Times,serif" font-size="14.00">dep</text>
</g>
<!-- 18 -->
<g id="node19" class="node">
<title>18</title>
<ellipse fill="none" stroke="black" cx="1664.9" cy="-18" rx="27" ry="18"/>
<text text-anchor="middle" x="1664.9" y="-14.3" font-family="Times,serif" font-size="14.00">,</text>
</g>
<!-- 0&#45;&gt;18 -->
<g id="edge18" class="edge">
<title>0&#45;&gt;18</title>
<path fill="none" stroke="black" d="M1534.96,-94.46C1549.87,-87.8 1569.86,-78.44 1586.9,-69 1604.37,-59.32 1623.25,-47.26 1638.06,-37.41"/>
<polygon fill="black" stroke="black" points="1640.36,-40.09 1646.71,-31.6 1636.45,-34.27 1640.36,-40.09"/>
<text text-anchor="middle" x="1625.4" y="-57.8" font-family="Times,serif" font-size="14.00">dep</text>
</g>
<!-- 19 -->
<g id="node20" class="node">
<title>19</title>
<ellipse fill="none" stroke="black" cx="1736.9" cy="-18" rx="27" ry="18"/>
<text text-anchor="middle" x="1736.9" y="-14.3" font-family="Times,serif" font-size="14.00">de</text>
</g>
<!-- 0&#45;&gt;19 -->
<g id="edge19" class="edge">
<title>0&#45;&gt;19</title>
<path fill="none" stroke="black" d="M1538.36,-98.93C1564.97,-93.22 1607.67,-82.9 1642.9,-69 1665.99,-59.89 1690.72,-46.57 1709.02,-35.97"/>
<polygon fill="black" stroke="black" points="1710.86,-38.95 1717.71,-30.87 1707.31,-32.92 1710.86,-38.95"/>
<text text-anchor="middle" x="1688.4" y="-57.8" font-family="Times,serif" font-size="14.00">dep</text>
</g>
<!-- 20 -->
<g id="node21" class="node">
<title>20</title>
<ellipse fill="none" stroke="black" cx="1808.9" cy="-18" rx="27" ry="18"/>
<text text-anchor="middle" x="1808.9" y="-14.3" font-family="Times,serif" font-size="14.00">o</text>
</g>
<!-- 0&#45;&gt;20 -->
<g id="edge20" class="edge">
<title>0&#45;&gt;20</title>
<path fill="none" stroke="black" d="M1539.68,-101.47C1577.48,-97.39 1648.27,-87.82 1705.9,-69 1731.99,-60.48 1759.91,-46.59 1780.09,-35.62"/>
<polygon fill="black" stroke="black" points="1782.01,-38.56 1789.06,-30.65 1778.62,-32.44 1782.01,-38.56"/>
<text text-anchor="middle" x="1755.4" y="-57.8" font-family="Times,serif" font-size="14.00">dep</text>
</g>
<!-- 21 -->
<g id="node22" class="node">
<title>21</title>
<ellipse fill="none" stroke="black" cx="1902.9" cy="-18" rx="48.99" ry="18"/>
<text text-anchor="middle" x="1902.9" y="-14.3" font-family="Times,serif" font-size="14.00">controle</text>
</g>
<!-- 0&#45;&gt;21 -->
<g id="edge21" class="edge">
<title>0&#45;&gt;21</title>
<path fill="none" stroke="black" d="M1539.86,-102.45C1587.53,-99.25 1689.5,-90.34 1772.9,-69 1804.47,-60.92 1838.83,-47.49 1864.29,-36.58"/>
<polygon fill="black" stroke="black" points="1865.82,-39.74 1873.59,-32.54 1863.03,-33.32 1865.82,-39.74"/>
<text text-anchor="middle" x="1834.4" y="-57.8" font-family="Times,serif" font-size="14.00">dep</text>
</g>
<!-- 22 -->
<g id="node23" class="node">
<title>22</title>
<ellipse fill="none" stroke="black" cx="1996.9" cy="-18" rx="27" ry="18"/>
<text text-anchor="middle" x="1996.9" y="-14.3" font-family="Times,serif" font-size="14.00">de</text>
</g>
<!-- 0&#45;&gt;22 -->
<g id="edge22" class="edge">
<title>0&#45;&gt;22</title>
<path fill="none" stroke="black" d="M1539.96,-102.96C1597.77,-100.36 1737.33,-92.04 1851.9,-69 1901.52,-59.02 1913.66,-54.19 1960.9,-36 1962.73,-35.29 1964.61,-34.53 1966.49,-33.74"/>
<polygon fill="black" stroke="black" points="1968.09,-36.86 1975.8,-29.59 1965.24,-30.46 1968.09,-36.86"/>
<text text-anchor="middle" x="1925.4" y="-57.8" font-family="Times,serif" font-size="14.00">dep</text>
</g>
<!-- 23 -->
<g id="node24" class="node">
<title>23</title>
<ellipse fill="none" stroke="black" cx="2068.9" cy="-18" rx="27" ry="18"/>
<text text-anchor="middle" x="2068.9" y="-14.3" font-family="Times,serif" font-size="14.00">a</text>
</g>
<!-- 0&#45;&gt;23 -->
<g id="edge23" class="edge">
<title>0&#45;&gt;23</title>
<path fill="none" stroke="black" d="M1539.94,-104.31C1608.31,-104.56 1793.3,-101.88 1942.9,-69 1976.99,-61.51 2013.87,-45.91 2038.86,-34.12"/>
<polygon fill="black" stroke="black" points="2040.66,-37.14 2048.15,-29.65 2037.63,-30.83 2040.66,-37.14"/>
<text text-anchor="middle" x="2003.4" y="-57.8" font-family="Times,serif" font-size="14.00">dep</text>
</g>
<!-- 24 -->
<g id="node25" class="node">
<title>24</title>
<ellipse fill="none" stroke="black" cx="2164.9" cy="-18" rx="51.19" ry="18"/>
<text text-anchor="middle" x="2164.9" y="-14.3" font-family="Times,serif" font-size="14.00">Atochem</text>
</g>
<!-- 0&#45;&gt;24 -->
<g id="edge24" class="edge">
<title>0&#45;&gt;24</title>
<path fill="none" stroke="black" d="M1540.01,-103.08C1631.39,-99.83 1927.57,-88.06 2020.9,-69 2056.73,-61.68 2095.84,-47.69 2124.25,-36.37"/>
<polygon fill="black" stroke="black" points="2125.87,-39.49 2133.83,-32.49 2123.24,-33 2125.87,-39.49"/>
<text text-anchor="middle" x="2087.4" y="-57.8" font-family="Times,serif" font-size="14.00">dep</text>
</g>
<!-- 25 -->
<g id="node26" class="node">
<title>25</title>
<ellipse fill="none" stroke="black" cx="2260.9" cy="-18" rx="27" ry="18"/>
<text text-anchor="middle" x="2260.9" y="-14.3" font-family="Times,serif" font-size="14.00">(</text>
</g>
<!-- 0&#45;&gt;25 -->
<g id="edge25" class="edge">
<title>0&#45;&gt;25</title>
<path fill="none" stroke="black" d="M1539.96,-104.4C1624.26,-105.23 1889.29,-104.62 2104.9,-69 2159.47,-59.99 2173.03,-55.21 2224.9,-36 2226.74,-35.32 2228.62,-34.57 2230.51,-33.79"/>
<polygon fill="black" stroke="black" points="2232.09,-36.92 2239.84,-29.69 2229.27,-30.51 2232.09,-36.92"/>
<text text-anchor="middle" x="2186.4" y="-57.8" font-family="Times,serif" font-size="14.00">dep</text>
</g>
<!-- 26 -->
<g id="node27" class="node">
<title>26</title>
<ellipse fill="none" stroke="black" cx="2363.9" cy="-18" rx="57.69" ry="18"/>
<text text-anchor="middle" x="2363.9" y="-14.3" font-family="Times,serif" font-size="14.00">fundadora</text>
</g>
<!-- 0&#45;&gt;26 -->
<g id="edge26" class="edge">
<title>0&#45;&gt;26</title>
<path fill="none" stroke="black" d="M1540.03,-103.54C1651.29,-101.51 2072.94,-92.39 2203.9,-69 2244.14,-61.81 2288.39,-47.46 2320.14,-35.97"/>
<polygon fill="black" stroke="black" points="2321.39,-39.24 2329.57,-32.5 2318.97,-32.66 2321.39,-39.24"/>
<text text-anchor="middle" x="2276.4" y="-57.8" font-family="Times,serif" font-size="14.00">dep</text>
</g>
<!-- 27 -->
<g id="node28" class="node">
<title>27</title>
<ellipse fill="none" stroke="black" cx="2466.9" cy="-18" rx="27" ry="18"/>
<text text-anchor="middle" x="2466.9" y="-14.3" font-family="Times,serif" font-size="14.00">de</text>
</g>
<!-- 0&#45;&gt;27 -->
<g id="edge27" class="edge">
<title>0&#45;&gt;27</title>
<path fill="none" stroke="black" d="M1540.2,-103.48C1660.48,-101.07 2143.72,-90.25 2293.9,-69 2355.91,-60.22 2371.82,-56.81 2430.9,-36 2432.8,-35.33 2434.74,-34.59 2436.69,-33.8"/>
<polygon fill="black" stroke="black" points="2438.49,-36.83 2446.26,-29.63 2435.69,-30.42 2438.49,-36.83"/>
<text text-anchor="middle" x="2389.4" y="-57.8" font-family="Times,serif" font-size="14.00">dep</text>
</g>
<!-- 28 -->
<g id="node29" class="node">
<title>28</title>
<ellipse fill="none" stroke="black" cx="2538.9" cy="-18" rx="27" ry="18"/>
<text text-anchor="middle" x="2538.9" y="-14.3" font-family="Times,serif" font-size="14.00">a</text>
</g>
<!-- 0&#45;&gt;28 -->
<g id="edge28" class="edge">
<title>0&#45;&gt;28</title>
<path fill="none" stroke="black" d="M1540.17,-104C1670.96,-103.84 2234.56,-101.27 2406.9,-69 2443.2,-62.2 2482.52,-46.07 2508.71,-33.96"/>
<polygon fill="black" stroke="black" points="2510.53,-36.97 2518.08,-29.54 2507.54,-30.64 2510.53,-36.97"/>
<text text-anchor="middle" x="2473.4" y="-57.8" font-family="Times,serif" font-size="14.00">dep</text>
</g>
<!-- 29 -->
<g id="node30" class="node">
<title>29</title>
<ellipse fill="none" stroke="black" cx="2627.9" cy="-18" rx="44.39" ry="18"/>
<text text-anchor="middle" x="2627.9" y="-14.3" font-family="Times,serif" font-size="14.00">Triunfo</text>
</g>
<!-- 0&#45;&gt;29 -->
<g id="edge29" class="edge">
<title>0&#45;&gt;29</title>
<path fill="none" stroke="black" d="M1539.96,-104.17C1677.67,-104.89 2301.42,-106 2490.9,-69 2525.75,-62.19 2563.54,-47.83 2590.59,-36.24"/>
<polygon fill="black" stroke="black" points="2592.27,-39.32 2600.04,-32.12 2589.47,-32.91 2592.27,-39.32"/>
<text text-anchor="middle" x="2558.4" y="-57.8" font-family="Times,serif" font-size="14.00">dep</text>
</g>
<!-- 30 -->
<g id="node31" class="node">
<title>30</title>
<ellipse fill="none" stroke="black" cx="2716.9" cy="-18" rx="27" ry="18"/>
<text text-anchor="middle" x="2716.9" y="-14.3" font-family="Times,serif" font-size="14.00">)</text>
</g>
<!-- 0&#45;&gt;30 -->
<g id="edge30" class="edge">
<title>0&#45;&gt;30</title>
<path fill="none" stroke="black" d="M1540.34,-104.1C1685.82,-104.49 2368.16,-104.38 2575.9,-69 2624.12,-60.79 2635.34,-53.82 2680.9,-36 2682.73,-35.28 2684.6,-34.51 2686.48,-33.71"/>
<polygon fill="black" stroke="black" points="2688.08,-36.83 2695.79,-29.56 2685.23,-30.44 2688.08,-36.83"/>
<text text-anchor="middle" x="2648.4" y="-57.8" font-family="Times,serif" font-size="14.00">dep</text>
</g>
<!-- 31 -->
<g id="node32" class="node">
<title>31</title>
<ellipse fill="none" stroke="black" cx="2788.9" cy="-18" rx="27" ry="18"/>
<text text-anchor="middle" x="2788.9" y="-14.3" font-family="Times,serif" font-size="14.00">.</text>
</g>
<!-- 0&#45;&gt;31 -->
<g id="edge31" class="edge">
<title>0&#45;&gt;31</title>
<path fill="none" stroke="black" d="M1539.96,-103.72C1703.11,-101.93 2552.34,-91.6 2665.9,-69 2699.23,-62.37 2734.96,-46.79 2759.28,-34.77"/>
<polygon fill="black" stroke="black" points="2760.97,-37.84 2768.32,-30.2 2757.82,-31.59 2760.97,-37.84"/>
<text text-anchor="middle" x="2728.4" y="-57.8" font-family="Times,serif" font-size="14.00">dep</text>
</g>
</g>
</svg>
