<?xml version="1.0" encoding="UTF-8" standalone="no"?>
<!DOCTYPE svg PUBLIC "-//W3C//DTD SVG 1.1//EN"
 "http://www.w3.org/Graphics/SVG/1.1/DTD/svg11.dtd">
<!-- Generated by graphviz version 2.42.4 (0)
 -->
<!-- Pages: 1 -->
<svg width="1921pt" height="131pt"
 viewBox="0.00 0.00 1921.00 131.00" xmlns="http://www.w3.org/2000/svg" xmlns:xlink="http://www.w3.org/1999/xlink">
<g id="graph0" class="graph" transform="scale(1 1) rotate(0) translate(4 127)">
<polygon fill="white" stroke="transparent" points="-4,4 -4,-127 1917,-127 1917,4 -4,4"/>
<!-- 0 -->
<g id="node1" class="node">
<title>0</title>
<ellipse fill="none" stroke="black" cx="984" cy="-105" rx="40.09" ry="18"/>
<text text-anchor="middle" x="984" y="-101.3" font-family="Times,serif" font-size="14.00">Temos</text>
</g>
<!-- 1 -->
<g id="node2" class="node">
<title>1</title>
<ellipse fill="none" stroke="black" cx="52" cy="-18" rx="51.99" ry="18"/>
<text text-anchor="middle" x="52" y="-14.3" font-family="Times,serif" font-size="14.00">prestado</text>
</g>
<!-- 0&#45;&gt;1 -->
<g id="edge1" class="edge">
<title>0&#45;&gt;1</title>
<path fill="none" stroke="black" d="M943.38,-103.42C806.49,-101.26 362.73,-92.58 222,-69 178.23,-61.67 129.8,-46.72 95.87,-35.07"/>
<polygon fill="black" stroke="black" points="96.86,-31.71 86.26,-31.73 94.56,-38.32 96.86,-31.71"/>
<text text-anchor="middle" x="235.5" y="-57.8" font-family="Times,serif" font-size="14.00">dep</text>
</g>
<!-- 2 -->
<g id="node3" class="node">
<title>2</title>
<ellipse fill="none" stroke="black" cx="153" cy="-18" rx="30.59" ry="18"/>
<text text-anchor="middle" x="153" y="-14.3" font-family="Times,serif" font-size="14.00">uma</text>
</g>
<!-- 0&#45;&gt;2 -->
<g id="edge2" class="edge">
<title>0&#45;&gt;2</title>
<path fill="none" stroke="black" d="M943.44,-104.27C840.84,-104.41 562.81,-101.49 334,-69 269.85,-59.89 253.51,-56.36 192,-36 189.89,-35.3 187.74,-34.53 185.58,-33.72"/>
<polygon fill="black" stroke="black" points="186.82,-30.45 176.24,-29.96 184.2,-36.94 186.82,-30.45"/>
<text text-anchor="middle" x="347.5" y="-57.8" font-family="Times,serif" font-size="14.00">dep</text>
</g>
<!-- 3 -->
<g id="node4" class="node">
<title>3</title>
<ellipse fill="none" stroke="black" cx="248" cy="-18" rx="46.59" ry="18"/>
<text text-anchor="middle" x="248" y="-14.3" font-family="Times,serif" font-size="14.00">atenção</text>
</g>
<!-- 0&#45;&gt;3 -->
<g id="edge3" class="edge">
<title>0&#45;&gt;3</title>
<path fill="none" stroke="black" d="M943.46,-104.07C851.64,-103.67 620.98,-99.41 431,-69 382.54,-61.24 328.5,-45.58 291.79,-33.84"/>
<polygon fill="black" stroke="black" points="292.51,-30.39 281.91,-30.64 290.35,-37.05 292.51,-30.39"/>
<text text-anchor="middle" x="444.5" y="-57.8" font-family="Times,serif" font-size="14.00">dep</text>
</g>
<!-- 4 -->
<g id="node5" class="node">
<title>4</title>
<ellipse fill="none" stroke="black" cx="365" cy="-18" rx="51.99" ry="18"/>
<text text-anchor="middle" x="365" y="-14.3" font-family="Times,serif" font-size="14.00">diminuta</text>
</g>
<!-- 0&#45;&gt;4 -->
<g id="edge4" class="edge">
<title>0&#45;&gt;4</title>
<path fill="none" stroke="black" d="M943.57,-104.25C862.06,-104.04 672.49,-99.92 517,-69 478.76,-61.4 436.78,-47.11 406.64,-35.75"/>
<polygon fill="black" stroke="black" points="407.88,-32.47 397.29,-32.17 405.38,-39.01 407.88,-32.47"/>
<text text-anchor="middle" x="530.5" y="-57.8" font-family="Times,serif" font-size="14.00">dep</text>
</g>
<!-- 5 -->
<g id="node6" class="node">
<title>5</title>
<ellipse fill="none" stroke="black" cx="462" cy="-18" rx="27" ry="18"/>
<text text-anchor="middle" x="462" y="-14.3" font-family="Times,serif" font-size="14.00">a</text>
</g>
<!-- 0&#45;&gt;5 -->
<g id="edge5" class="edge">
<title>0&#45;&gt;5</title>
<path fill="none" stroke="black" d="M943.77,-103.01C874.13,-100.7 726.85,-93.15 605,-69 556.18,-59.33 544.39,-54 498,-36 496.16,-35.29 494.29,-34.52 492.41,-33.73"/>
<polygon fill="black" stroke="black" points="493.66,-30.45 483.1,-29.58 490.81,-36.85 493.66,-30.45"/>
<text text-anchor="middle" x="618.5" y="-57.8" font-family="Times,serif" font-size="14.00">dep</text>
</g>
<!-- 6 -->
<g id="node7" class="node">
<title>6</title>
<ellipse fill="none" stroke="black" cx="534" cy="-18" rx="27" ry="18"/>
<text text-anchor="middle" x="534" y="-14.3" font-family="Times,serif" font-size="14.00">a</text>
</g>
<!-- 0&#45;&gt;6 -->
<g id="edge6" class="edge">
<title>0&#45;&gt;6</title>
<path fill="none" stroke="black" d="M944.11,-101.9C869,-96.97 702.25,-81.45 570,-36 568.08,-35.34 566.14,-34.61 564.19,-33.84"/>
<polygon fill="black" stroke="black" points="565.18,-30.45 554.61,-29.69 562.39,-36.87 565.18,-30.45"/>
<text text-anchor="middle" x="706.5" y="-57.8" font-family="Times,serif" font-size="14.00">dep</text>
</g>
<!-- 7 -->
<g id="node8" class="node">
<title>7</title>
<ellipse fill="none" stroke="black" cx="638" cy="-18" rx="59.29" ry="18"/>
<text text-anchor="middle" x="638" y="-14.3" font-family="Times,serif" font-size="14.00">interacção</text>
</g>
<!-- 0&#45;&gt;7 -->
<g id="edge7" class="edge">
<title>0&#45;&gt;7</title>
<path fill="none" stroke="black" d="M946.8,-98.03C909.83,-91.83 851.65,-81.31 802,-69 762.46,-59.2 718.33,-45.59 685.81,-35.04"/>
<polygon fill="black" stroke="black" points="686.71,-31.65 676.11,-31.88 684.53,-38.31 686.71,-31.65"/>
<text text-anchor="middle" x="815.5" y="-57.8" font-family="Times,serif" font-size="14.00">dep</text>
</g>
<!-- 8 -->
<g id="node9" class="node">
<title>8</title>
<ellipse fill="none" stroke="black" cx="751" cy="-18" rx="36" ry="18"/>
<text text-anchor="middle" x="751" y="-14.3" font-family="Times,serif" font-size="14.00">entre</text>
</g>
<!-- 0&#45;&gt;8 -->
<g id="edge8" class="edge">
<title>0&#45;&gt;8</title>
<path fill="none" stroke="black" d="M950.42,-94.94C927.09,-88.38 895.38,-78.95 868,-69 839.84,-58.77 808.68,-45.35 785.6,-34.98"/>
<polygon fill="black" stroke="black" points="786.79,-31.68 776.23,-30.75 783.9,-38.06 786.79,-31.68"/>
<text text-anchor="middle" x="881.5" y="-57.8" font-family="Times,serif" font-size="14.00">dep</text>
</g>
<!-- 9 -->
<g id="node10" class="node">
<title>9</title>
<ellipse fill="none" stroke="black" cx="832" cy="-18" rx="27" ry="18"/>
<text text-anchor="middle" x="832" y="-14.3" font-family="Times,serif" font-size="14.00">a</text>
</g>
<!-- 0&#45;&gt;9 -->
<g id="edge9" class="edge">
<title>0&#45;&gt;9</title>
<path fill="none" stroke="black" d="M959.91,-90.53C933.02,-75.49 889.52,-51.17 860.84,-35.13"/>
<polygon fill="black" stroke="black" points="862.52,-32.06 852.08,-30.23 859.1,-38.17 862.52,-32.06"/>
<text text-anchor="middle" x="931.5" y="-57.8" font-family="Times,serif" font-size="14.00">dep</text>
</g>
<!-- 10 -->
<g id="node11" class="node">
<title>10</title>
<ellipse fill="none" stroke="black" cx="931" cy="-18" rx="53.89" ry="18"/>
<text text-anchor="middle" x="931" y="-14.3" font-family="Times,serif" font-size="14.00">realidade</text>
</g>
<!-- 0&#45;&gt;10 -->
<g id="edge10" class="edge">
<title>0&#45;&gt;10</title>
<path fill="none" stroke="black" d="M973.52,-87.21C965.9,-74.98 955.45,-58.21 946.81,-44.36"/>
<polygon fill="black" stroke="black" points="949.71,-42.39 941.44,-35.76 943.77,-46.1 949.71,-42.39"/>
<text text-anchor="middle" x="974.5" y="-57.8" font-family="Times,serif" font-size="14.00">dep</text>
</g>
<!-- 11 -->
<g id="node12" class="node">
<title>11</title>
<ellipse fill="none" stroke="black" cx="1038" cy="-18" rx="35.19" ry="18"/>
<text text-anchor="middle" x="1038" y="-14.3" font-family="Times,serif" font-size="14.00">física</text>
</g>
<!-- 0&#45;&gt;11 -->
<g id="edge11" class="edge">
<title>0&#45;&gt;11</title>
<path fill="none" stroke="black" d="M994.41,-87.61C1002.25,-75.26 1013.14,-58.12 1022.08,-44.05"/>
<polygon fill="black" stroke="black" points="1025.21,-45.66 1027.62,-35.34 1019.3,-41.9 1025.21,-45.66"/>
<text text-anchor="middle" x="1028.5" y="-57.8" font-family="Times,serif" font-size="14.00">dep</text>
</g>
<!-- 12 -->
<g id="node13" class="node">
<title>12</title>
<ellipse fill="none" stroke="black" cx="1118" cy="-18" rx="27" ry="18"/>
<text text-anchor="middle" x="1118" y="-14.3" font-family="Times,serif" font-size="14.00">,</text>
</g>
<!-- 0&#45;&gt;12 -->
<g id="edge12" class="edge">
<title>0&#45;&gt;12</title>
<path fill="none" stroke="black" d="M1008.74,-90.72C1020.22,-84.39 1033.96,-76.56 1046,-69 1061.64,-59.18 1078.64,-47.43 1092.19,-37.79"/>
<polygon fill="black" stroke="black" points="1094.46,-40.47 1100.55,-31.8 1090.38,-34.78 1094.46,-40.47"/>
<text text-anchor="middle" x="1082.5" y="-57.8" font-family="Times,serif" font-size="14.00">dep</text>
</g>
<!-- 13 -->
<g id="node14" class="node">
<title>13</title>
<ellipse fill="none" stroke="black" cx="1190" cy="-18" rx="27" ry="18"/>
<text text-anchor="middle" x="1190" y="-14.3" font-family="Times,serif" font-size="14.00">o</text>
</g>
<!-- 0&#45;&gt;13 -->
<g id="edge13" class="edge">
<title>0&#45;&gt;13</title>
<path fill="none" stroke="black" d="M1018.68,-95.62C1042.1,-89.46 1073.45,-80.22 1100,-69 1121.53,-59.9 1144.55,-47.04 1161.92,-36.65"/>
<polygon fill="black" stroke="black" points="1164.21,-39.35 1170.94,-31.17 1160.57,-33.37 1164.21,-39.35"/>
<text text-anchor="middle" x="1144.5" y="-57.8" font-family="Times,serif" font-size="14.00">dep</text>
</g>
<!-- 14 -->
<g id="node15" class="node">
<title>14</title>
<ellipse fill="none" stroke="black" cx="1290" cy="-18" rx="54.69" ry="18"/>
<text text-anchor="middle" x="1290" y="-14.3" font-family="Times,serif" font-size="14.00">problema</text>
</g>
<!-- 0&#45;&gt;14 -->
<g id="edge14" class="edge">
<title>0&#45;&gt;14</title>
<path fill="none" stroke="black" d="M1021.97,-98.55C1058.33,-92.85 1114.52,-82.82 1162,-69 1191.92,-60.29 1224.65,-47.44 1249.51,-36.96"/>
<polygon fill="black" stroke="black" points="1251.15,-40.06 1258.97,-32.92 1248.4,-33.62 1251.15,-40.06"/>
<text text-anchor="middle" x="1218.5" y="-57.8" font-family="Times,serif" font-size="14.00">dep</text>
</g>
<!-- 15 -->
<g id="node16" class="node">
<title>15</title>
<ellipse fill="none" stroke="black" cx="1420" cy="-18" rx="57.39" ry="18"/>
<text text-anchor="middle" x="1420" y="-14.3" font-family="Times,serif" font-size="14.00">ambiental</text>
</g>
<!-- 0&#45;&gt;15 -->
<g id="edge15" class="edge">
<title>0&#45;&gt;15</title>
<path fill="none" stroke="black" d="M1023.11,-100.13C1072.88,-94.85 1161.35,-84.26 1236,-69 1282.24,-59.55 1334.06,-45.11 1370.89,-34.18"/>
<polygon fill="black" stroke="black" points="1372.28,-37.41 1380.86,-31.19 1370.28,-30.71 1372.28,-37.41"/>
<text text-anchor="middle" x="1311.5" y="-57.8" font-family="Times,serif" font-size="14.00">dep</text>
</g>
<!-- 16 -->
<g id="node17" class="node">
<title>16</title>
<ellipse fill="none" stroke="black" cx="1522" cy="-18" rx="27" ry="18"/>
<text text-anchor="middle" x="1522" y="-14.3" font-family="Times,serif" font-size="14.00">e</text>
</g>
<!-- 0&#45;&gt;16 -->
<g id="edge16" class="edge">
<title>0&#45;&gt;16</title>
<path fill="none" stroke="black" d="M1023.49,-101.36C1087.78,-96.76 1218.94,-86.1 1329,-69 1399.45,-58.05 1418.41,-58.71 1486,-36 1487.91,-35.36 1489.86,-34.64 1491.81,-33.87"/>
<polygon fill="black" stroke="black" points="1493.6,-36.91 1501.4,-29.74 1490.83,-30.48 1493.6,-36.91"/>
<text text-anchor="middle" x="1435.5" y="-57.8" font-family="Times,serif" font-size="14.00">dep</text>
</g>
<!-- 17 -->
<g id="node18" class="node">
<title>17</title>
<ellipse fill="none" stroke="black" cx="1594" cy="-18" rx="27" ry="18"/>
<text text-anchor="middle" x="1594" y="-14.3" font-family="Times,serif" font-size="14.00">o</text>
</g>
<!-- 0&#45;&gt;17 -->
<g id="edge17" class="edge">
<title>0&#45;&gt;17</title>
<path fill="none" stroke="black" d="M1024.24,-104.1C1105.87,-103.61 1296.43,-99.03 1453,-69 1501.04,-59.79 1512.44,-53.82 1558,-36 1559.83,-35.28 1561.7,-34.51 1563.58,-33.71"/>
<polygon fill="black" stroke="black" points="1565.18,-36.83 1572.89,-29.56 1562.33,-30.44 1565.18,-36.83"/>
<text text-anchor="middle" x="1523.5" y="-57.8" font-family="Times,serif" font-size="14.00">dep</text>
</g>
<!-- 18 -->
<g id="node19" class="node">
<title>18</title>
<ellipse fill="none" stroke="black" cx="1686" cy="-18" rx="46.59" ry="18"/>
<text text-anchor="middle" x="1686" y="-14.3" font-family="Times,serif" font-size="14.00">sistema</text>
</g>
<!-- 0&#45;&gt;18 -->
<g id="edge18" class="edge">
<title>0&#45;&gt;18</title>
<path fill="none" stroke="black" d="M1024.18,-102.88C1134.76,-99.57 1441.95,-88.81 1541,-69 1577.83,-61.63 1618.09,-47.2 1646.82,-35.73"/>
<polygon fill="black" stroke="black" points="1648.15,-38.97 1656.1,-31.97 1645.52,-32.48 1648.15,-38.97"/>
<text text-anchor="middle" x="1607.5" y="-57.8" font-family="Times,serif" font-size="14.00">dep</text>
</g>
<!-- 19 -->
<g id="node20" class="node">
<title>19</title>
<ellipse fill="none" stroke="black" cx="1796" cy="-18" rx="44.69" ry="18"/>
<text text-anchor="middle" x="1796" y="-14.3" font-family="Times,serif" font-size="14.00">político</text>
</g>
<!-- 0&#45;&gt;19 -->
<g id="edge19" class="edge">
<title>0&#45;&gt;19</title>
<path fill="none" stroke="black" d="M1024.4,-102.96C1146.2,-99.64 1508.59,-88.35 1625,-69 1670.12,-61.5 1720.18,-45.98 1754.41,-34.2"/>
<polygon fill="black" stroke="black" points="1755.78,-37.44 1764.07,-30.84 1753.47,-30.83 1755.78,-37.44"/>
<text text-anchor="middle" x="1701.5" y="-57.8" font-family="Times,serif" font-size="14.00">dep</text>
</g>
<!-- 20 -->
<g id="node21" class="node">
<title>20</title>
<ellipse fill="none" stroke="black" cx="1886" cy="-18" rx="27" ry="18"/>
<text text-anchor="middle" x="1886" y="-14.3" font-family="Times,serif" font-size="14.00">.</text>
</g>
<!-- 0&#45;&gt;20 -->
<g id="edge20" class="edge">
<title>0&#45;&gt;20</title>
<path fill="none" stroke="black" d="M1024.53,-103.13C1158.05,-100.11 1583.31,-89.12 1719,-69 1778.39,-60.2 1793.47,-56.25 1850,-36 1851.85,-35.34 1853.74,-34.61 1855.63,-33.84"/>
<polygon fill="black" stroke="black" points="1857.2,-36.97 1864.96,-29.77 1854.4,-30.56 1857.2,-36.97"/>
<text text-anchor="middle" x="1808.5" y="-57.8" font-family="Times,serif" font-size="14.00">dep</text>
</g>
</g>
</svg>
