<?xml version="1.0" encoding="UTF-8" standalone="no"?>
<!DOCTYPE svg PUBLIC "-//W3C//DTD SVG 1.1//EN"
 "http://www.w3.org/Graphics/SVG/1.1/DTD/svg11.dtd">
<!-- Generated by graphviz version 2.42.4 (0)
 -->
<!-- Pages: 1 -->
<svg width="1386pt" height="131pt"
 viewBox="0.00 0.00 1385.79 131.00" xmlns="http://www.w3.org/2000/svg" xmlns:xlink="http://www.w3.org/1999/xlink">
<g id="graph0" class="graph" transform="scale(1 1) rotate(0) translate(4 127)">
<polygon fill="white" stroke="transparent" points="-4,4 -4,-127 1381.79,-127 1381.79,4 -4,4"/>
<!-- 0 -->
<g id="node1" class="node">
<title>0</title>
<ellipse fill="none" stroke="black" cx="754.79" cy="-105" rx="27" ry="18"/>
<text text-anchor="middle" x="754.79" y="-101.3" font-family="Times,serif" font-size="14.00">em</text>
</g>
<!-- 1 -->
<g id="node2" class="node">
<title>1</title>
<ellipse fill="none" stroke="black" cx="59.79" cy="-18" rx="59.59" ry="18"/>
<text text-anchor="middle" x="59.79" y="-14.3" font-family="Times,serif" font-size="14.00">bodyboard</text>
</g>
<!-- 0&#45;&gt;1 -->
<g id="edge1" class="edge">
<title>0&#45;&gt;1</title>
<path fill="none" stroke="black" d="M727.73,-104.4C649.14,-105.09 414.42,-103.86 223.79,-69 182.93,-61.53 137.88,-47.34 105.35,-35.98"/>
<polygon fill="black" stroke="black" points="106.27,-32.6 95.68,-32.56 103.94,-39.2 106.27,-32.6"/>
<text text-anchor="middle" x="237.29" y="-57.8" font-family="Times,serif" font-size="14.00">dep</text>
</g>
<!-- 2 -->
<g id="node3" class="node">
<title>2</title>
<ellipse fill="none" stroke="black" cx="164.79" cy="-18" rx="27" ry="18"/>
<text text-anchor="middle" x="164.79" y="-14.3" font-family="Times,serif" font-size="14.00">,</text>
</g>
<!-- 0&#45;&gt;2 -->
<g id="edge2" class="edge">
<title>0&#45;&gt;2</title>
<path fill="none" stroke="black" d="M727.65,-103.58C658.99,-102.13 473.03,-95.83 320.79,-69 266.32,-59.4 252.66,-55.21 200.79,-36 198.95,-35.32 197.07,-34.57 195.18,-33.79"/>
<polygon fill="black" stroke="black" points="196.42,-30.51 185.85,-29.69 193.6,-36.92 196.42,-30.51"/>
<text text-anchor="middle" x="334.29" y="-57.8" font-family="Times,serif" font-size="14.00">dep</text>
</g>
<!-- 3 -->
<g id="node4" class="node">
<title>3</title>
<ellipse fill="none" stroke="black" cx="245.79" cy="-18" rx="36" ry="18"/>
<text text-anchor="middle" x="245.79" y="-14.3" font-family="Times,serif" font-size="14.00">Hugo</text>
</g>
<!-- 0&#45;&gt;3 -->
<g id="edge3" class="edge">
<title>0&#45;&gt;3</title>
<path fill="none" stroke="black" d="M727.94,-102.45C671.22,-98.89 535.23,-88.88 422.79,-69 363.25,-58.47 348.51,-54.05 290.79,-36 288.19,-35.19 285.53,-34.3 282.85,-33.38"/>
<polygon fill="black" stroke="black" points="283.82,-30.01 273.22,-29.94 281.46,-36.61 283.82,-30.01"/>
<text text-anchor="middle" x="436.29" y="-57.8" font-family="Times,serif" font-size="14.00">dep</text>
</g>
<!-- 4 -->
<g id="node5" class="node">
<title>4</title>
<ellipse fill="none" stroke="black" cx="351.79" cy="-18" rx="51.99" ry="18"/>
<text text-anchor="middle" x="351.79" y="-14.3" font-family="Times,serif" font-size="14.00">Carvalho</text>
</g>
<!-- 0&#45;&gt;4 -->
<g id="edge4" class="edge">
<title>0&#45;&gt;4</title>
<path fill="none" stroke="black" d="M728.13,-101.86C681.96,-97.82 584.37,-87.71 503.79,-69 466.35,-60.31 424.99,-46.4 394.87,-35.46"/>
<polygon fill="black" stroke="black" points="395.7,-32.04 385.11,-31.88 393.29,-38.61 395.7,-32.04"/>
<text text-anchor="middle" x="517.29" y="-57.8" font-family="Times,serif" font-size="14.00">dep</text>
</g>
<!-- 5 -->
<g id="node6" class="node">
<title>5</title>
<ellipse fill="none" stroke="black" cx="448.79" cy="-18" rx="27" ry="18"/>
<text text-anchor="middle" x="448.79" y="-14.3" font-family="Times,serif" font-size="14.00">e</text>
</g>
<!-- 0&#45;&gt;5 -->
<g id="edge5" class="edge">
<title>0&#45;&gt;5</title>
<path fill="none" stroke="black" d="M728.95,-99.64C695.44,-93.77 635.31,-82.49 584.79,-69 539.58,-56.93 528.26,-53.36 484.79,-36 482.97,-35.27 481.1,-34.49 479.22,-33.68"/>
<polygon fill="black" stroke="black" points="480.48,-30.41 469.92,-29.51 477.61,-36.8 480.48,-30.41"/>
<text text-anchor="middle" x="598.29" y="-57.8" font-family="Times,serif" font-size="14.00">dep</text>
</g>
<!-- 6 -->
<g id="node7" class="node">
<title>6</title>
<ellipse fill="none" stroke="black" cx="530.79" cy="-18" rx="37.09" ry="18"/>
<text text-anchor="middle" x="530.79" y="-14.3" font-family="Times,serif" font-size="14.00">Filipe</text>
</g>
<!-- 0&#45;&gt;6 -->
<g id="edge6" class="edge">
<title>0&#45;&gt;6</title>
<path fill="none" stroke="black" d="M730.91,-96.37C709.94,-89.55 678.66,-79.1 651.79,-69 623,-58.17 590.83,-44.82 566.9,-34.63"/>
<polygon fill="black" stroke="black" points="568.08,-31.33 557.51,-30.62 565.33,-37.77 568.08,-31.33"/>
<text text-anchor="middle" x="665.29" y="-57.8" font-family="Times,serif" font-size="14.00">dep</text>
</g>
<!-- 7 -->
<g id="node8" class="node">
<title>7</title>
<ellipse fill="none" stroke="black" cx="625.79" cy="-18" rx="39.79" ry="18"/>
<text text-anchor="middle" x="625.79" y="-14.3" font-family="Times,serif" font-size="14.00">Ochoa</text>
</g>
<!-- 0&#45;&gt;7 -->
<g id="edge7" class="edge">
<title>0&#45;&gt;7</title>
<path fill="none" stroke="black" d="M736.31,-91.82C715.25,-77.94 680.52,-55.06 655.61,-38.65"/>
<polygon fill="black" stroke="black" points="657.53,-35.72 647.25,-33.14 653.68,-41.56 657.53,-35.72"/>
<text text-anchor="middle" x="712.29" y="-57.8" font-family="Times,serif" font-size="14.00">dep</text>
</g>
<!-- 8 -->
<g id="node9" class="node">
<title>8</title>
<ellipse fill="none" stroke="black" cx="754.79" cy="-18" rx="71.49" ry="18"/>
<text text-anchor="middle" x="754.79" y="-14.3" font-family="Times,serif" font-size="14.00">classificaram</text>
</g>
<!-- 0&#45;&gt;8 -->
<g id="edge8" class="edge">
<title>0&#45;&gt;8</title>
<path fill="none" stroke="black" d="M754.79,-86.8C754.79,-75.16 754.79,-59.55 754.79,-46.24"/>
<polygon fill="black" stroke="black" points="758.29,-46.18 754.79,-36.18 751.29,-46.18 758.29,-46.18"/>
<text text-anchor="middle" x="768.29" y="-57.8" font-family="Times,serif" font-size="14.00">dep</text>
</g>
<!-- 9 -->
<g id="node10" class="node">
<title>9</title>
<ellipse fill="none" stroke="black" cx="870.79" cy="-18" rx="27" ry="18"/>
<text text-anchor="middle" x="870.79" y="-14.3" font-family="Times,serif" font-size="14.00">se</text>
</g>
<!-- 0&#45;&gt;9 -->
<g id="edge9" class="edge">
<title>0&#45;&gt;9</title>
<path fill="none" stroke="black" d="M772.41,-91.09C791.66,-76.99 822.69,-54.25 844.75,-38.09"/>
<polygon fill="black" stroke="black" points="847.01,-40.77 853.01,-32.03 842.88,-35.12 847.01,-40.77"/>
<text text-anchor="middle" x="833.29" y="-57.8" font-family="Times,serif" font-size="14.00">dep</text>
</g>
<!-- 10 -->
<g id="node11" class="node">
<title>10</title>
<ellipse fill="none" stroke="black" cx="947.79" cy="-18" rx="31.7" ry="18"/>
<text text-anchor="middle" x="947.79" y="-14.3" font-family="Times,serif" font-size="14.00">para</text>
</g>
<!-- 0&#45;&gt;10 -->
<g id="edge10" class="edge">
<title>0&#45;&gt;10</title>
<path fill="none" stroke="black" d="M778.8,-96.19C798.42,-89.58 826.74,-79.53 850.79,-69 873.36,-59.12 898.03,-46.37 916.84,-36.23"/>
<polygon fill="black" stroke="black" points="918.73,-39.19 925.84,-31.33 915.38,-33.04 918.73,-39.19"/>
<text text-anchor="middle" x="894.29" y="-57.8" font-family="Times,serif" font-size="14.00">dep</text>
</g>
<!-- 11 -->
<g id="node12" class="node">
<title>11</title>
<ellipse fill="none" stroke="black" cx="1024.79" cy="-18" rx="27" ry="18"/>
<text text-anchor="middle" x="1024.79" y="-14.3" font-family="Times,serif" font-size="14.00">a</text>
</g>
<!-- 0&#45;&gt;11 -->
<g id="edge11" class="edge">
<title>0&#45;&gt;11</title>
<path fill="none" stroke="black" d="M780.75,-99.74C812.21,-94.23 866.61,-83.58 911.79,-69 947.23,-57.57 954.84,-51.29 988.79,-36 990.59,-35.19 992.43,-34.35 994.29,-33.5"/>
<polygon fill="black" stroke="black" points="995.94,-36.59 1003.53,-29.2 992.99,-30.24 995.94,-36.59"/>
<text text-anchor="middle" x="963.29" y="-57.8" font-family="Times,serif" font-size="14.00">dep</text>
</g>
<!-- 12 -->
<g id="node13" class="node">
<title>12</title>
<ellipse fill="none" stroke="black" cx="1100.79" cy="-18" rx="30.59" ry="18"/>
<text text-anchor="middle" x="1100.79" y="-14.3" font-family="Times,serif" font-size="14.00">final</text>
</g>
<!-- 0&#45;&gt;12 -->
<g id="edge12" class="edge">
<title>0&#45;&gt;12</title>
<path fill="none" stroke="black" d="M781.67,-101.92C824.46,-98.14 910.43,-88.66 980.79,-69 1011.74,-60.35 1045.39,-45.86 1069.15,-34.69"/>
<polygon fill="black" stroke="black" points="1070.86,-37.76 1078.38,-30.29 1067.85,-31.44 1070.86,-37.76"/>
<text text-anchor="middle" x="1035.29" y="-57.8" font-family="Times,serif" font-size="14.00">dep</text>
</g>
<!-- 13 -->
<g id="node14" class="node">
<title>13</title>
<ellipse fill="none" stroke="black" cx="1176.79" cy="-18" rx="27" ry="18"/>
<text text-anchor="middle" x="1176.79" y="-14.3" font-family="Times,serif" font-size="14.00">de</text>
</g>
<!-- 0&#45;&gt;13 -->
<g id="edge13" class="edge">
<title>0&#45;&gt;13</title>
<path fill="none" stroke="black" d="M781.89,-103.01C834.71,-100.59 954.83,-92.75 1052.79,-69 1086.05,-60.94 1122.13,-45.58 1146.75,-34"/>
<polygon fill="black" stroke="black" points="1148.4,-37.09 1155.91,-29.62 1145.38,-30.77 1148.4,-37.09"/>
<text text-anchor="middle" x="1112.29" y="-57.8" font-family="Times,serif" font-size="14.00">dep</text>
</g>
<!-- 14 -->
<g id="node15" class="node">
<title>14</title>
<ellipse fill="none" stroke="black" cx="1263.79" cy="-18" rx="42.49" ry="18"/>
<text text-anchor="middle" x="1263.79" y="-14.3" font-family="Times,serif" font-size="14.00">sub&#45;18</text>
</g>
<!-- 0&#45;&gt;14 -->
<g id="edge14" class="edge">
<title>0&#45;&gt;14</title>
<path fill="none" stroke="black" d="M782.01,-103.9C844.36,-103.16 1002,-98.26 1129.79,-69 1163.64,-61.25 1200.49,-47.05 1226.96,-35.76"/>
<polygon fill="black" stroke="black" points="1228.44,-38.93 1236.22,-31.75 1225.66,-32.51 1228.44,-38.93"/>
<text text-anchor="middle" x="1192.29" y="-57.8" font-family="Times,serif" font-size="14.00">dep</text>
</g>
<!-- 15 -->
<g id="node16" class="node">
<title>15</title>
<ellipse fill="none" stroke="black" cx="1350.79" cy="-18" rx="27" ry="18"/>
<text text-anchor="middle" x="1350.79" y="-14.3" font-family="Times,serif" font-size="14.00">;</text>
</g>
<!-- 0&#45;&gt;15 -->
<g id="edge15" class="edge">
<title>0&#45;&gt;15</title>
<path fill="none" stroke="black" d="M782,-104.05C853.05,-103.73 1049.74,-99.89 1209.79,-69 1257.83,-59.73 1269.24,-53.82 1314.79,-36 1316.63,-35.28 1318.5,-34.51 1320.38,-33.71"/>
<polygon fill="black" stroke="black" points="1321.98,-36.83 1329.69,-29.56 1319.13,-30.44 1321.98,-36.83"/>
<text text-anchor="middle" x="1280.29" y="-57.8" font-family="Times,serif" font-size="14.00">dep</text>
</g>
</g>
</svg>
