<?xml version="1.0" encoding="UTF-8" standalone="no"?>
<!DOCTYPE svg PUBLIC "-//W3C//DTD SVG 1.1//EN"
 "http://www.w3.org/Graphics/SVG/1.1/DTD/svg11.dtd">
<!-- Generated by graphviz version 2.42.4 (0)
 -->
<!-- Pages: 1 -->
<svg width="2123pt" height="131pt"
 viewBox="0.00 0.00 2122.70 131.00" xmlns="http://www.w3.org/2000/svg" xmlns:xlink="http://www.w3.org/1999/xlink">
<g id="graph0" class="graph" transform="scale(1 1) rotate(0) translate(4 127)">
<polygon fill="white" stroke="transparent" points="-4,4 -4,-127 2118.7,-127 2118.7,4 -4,4"/>
<!-- 0 -->
<g id="node1" class="node">
<title>0</title>
<ellipse fill="none" stroke="black" cx="1045.7" cy="-105" rx="27" ry="18"/>
<text text-anchor="middle" x="1045.7" y="-101.3" font-family="Times,serif" font-size="14.00">a</text>
</g>
<!-- 1 -->
<g id="node2" class="node">
<title>1</title>
<ellipse fill="none" stroke="black" cx="37.7" cy="-18" rx="37.89" ry="18"/>
<text text-anchor="middle" x="37.7" y="-14.3" font-family="Times,serif" font-size="14.00">maior</text>
</g>
<!-- 0&#45;&gt;1 -->
<g id="edge1" class="edge">
<title>0&#45;&gt;1</title>
<path fill="none" stroke="black" d="M1018.49,-103.94C890.54,-103.47 347.96,-99.71 181.7,-69 143.75,-61.99 102.32,-46.75 73.68,-34.92"/>
<polygon fill="black" stroke="black" points="74.68,-31.55 64.11,-30.9 71.97,-38 74.68,-31.55"/>
<text text-anchor="middle" x="195.2" y="-57.8" font-family="Times,serif" font-size="14.00">dep</text>
</g>
<!-- 2 -->
<g id="node3" class="node">
<title>2</title>
<ellipse fill="none" stroke="black" cx="128.7" cy="-18" rx="36" ry="18"/>
<text text-anchor="middle" x="128.7" y="-14.3" font-family="Times,serif" font-size="14.00">parte</text>
</g>
<!-- 0&#45;&gt;2 -->
<g id="edge2" class="edge">
<title>0&#45;&gt;2</title>
<path fill="none" stroke="black" d="M1018.58,-103.94C898.03,-103.5 410.17,-99.82 260.7,-69 226.43,-61.94 189.33,-47.2 163.22,-35.55"/>
<polygon fill="black" stroke="black" points="164.33,-32.21 153.77,-31.25 161.43,-38.58 164.33,-32.21"/>
<text text-anchor="middle" x="274.2" y="-57.8" font-family="Times,serif" font-size="14.00">dep</text>
</g>
<!-- 3 -->
<g id="node4" class="node">
<title>3</title>
<ellipse fill="none" stroke="black" cx="209.7" cy="-18" rx="27" ry="18"/>
<text text-anchor="middle" x="209.7" y="-14.3" font-family="Times,serif" font-size="14.00">de</text>
</g>
<!-- 0&#45;&gt;3 -->
<g id="edge3" class="edge">
<title>0&#45;&gt;3</title>
<path fill="none" stroke="black" d="M1018.54,-103.63C906.2,-101.94 477.48,-93.96 344.7,-69 307.51,-62.01 267.09,-45.8 240.26,-33.72"/>
<polygon fill="black" stroke="black" points="241.58,-30.47 231.03,-29.48 238.66,-36.83 241.58,-30.47"/>
<text text-anchor="middle" x="358.2" y="-57.8" font-family="Times,serif" font-size="14.00">dep</text>
</g>
<!-- 4 -->
<g id="node5" class="node">
<title>4</title>
<ellipse fill="none" stroke="black" cx="281.7" cy="-18" rx="27" ry="18"/>
<text text-anchor="middle" x="281.7" y="-14.3" font-family="Times,serif" font-size="14.00">as</text>
</g>
<!-- 0&#45;&gt;4 -->
<g id="edge4" class="edge">
<title>0&#45;&gt;4</title>
<path fill="none" stroke="black" d="M1018.67,-104.12C934.51,-104.11 669.82,-101.34 453.7,-69 392.18,-59.79 376.34,-56.72 317.7,-36 315.79,-35.33 313.85,-34.59 311.91,-33.8"/>
<polygon fill="black" stroke="black" points="312.9,-30.41 302.33,-29.62 310.1,-36.83 312.9,-30.41"/>
<text text-anchor="middle" x="467.2" y="-57.8" font-family="Times,serif" font-size="14.00">dep</text>
</g>
<!-- 5 -->
<g id="node6" class="node">
<title>5</title>
<ellipse fill="none" stroke="black" cx="362.7" cy="-18" rx="36.29" ry="18"/>
<text text-anchor="middle" x="362.7" y="-14.3" font-family="Times,serif" font-size="14.00">vezes</text>
</g>
<!-- 0&#45;&gt;5 -->
<g id="edge5" class="edge">
<title>0&#45;&gt;5</title>
<path fill="none" stroke="black" d="M1018.63,-102.96C947.47,-99.99 749.3,-90.33 585.7,-69 505.91,-58.6 485.19,-57.64 407.7,-36 405.07,-35.27 402.39,-34.45 399.7,-33.57"/>
<polygon fill="black" stroke="black" points="400.64,-30.19 390.04,-30.22 398.34,-36.8 400.64,-30.19"/>
<text text-anchor="middle" x="599.2" y="-57.8" font-family="Times,serif" font-size="14.00">dep</text>
</g>
<!-- 6 -->
<g id="node7" class="node">
<title>6</title>
<ellipse fill="none" stroke="black" cx="476.7" cy="-18" rx="59.59" ry="18"/>
<text text-anchor="middle" x="476.7" y="-14.3" font-family="Times,serif" font-size="14.00">consomem</text>
</g>
<!-- 0&#45;&gt;6 -->
<g id="edge6" class="edge">
<title>0&#45;&gt;6</title>
<path fill="none" stroke="black" d="M1018.59,-102.56C958.63,-99.12 810.33,-89.15 687.7,-69 623.76,-58.49 608.71,-51.08 545.7,-36 540.99,-34.87 536.12,-33.7 531.22,-32.5"/>
<polygon fill="black" stroke="black" points="531.76,-29.03 521.22,-30.06 530.1,-35.83 531.76,-29.03"/>
<text text-anchor="middle" x="701.2" y="-57.8" font-family="Times,serif" font-size="14.00">dep</text>
</g>
<!-- 7 -->
<g id="node8" class="node">
<title>7</title>
<ellipse fill="none" stroke="black" cx="593.7" cy="-18" rx="38.99" ry="18"/>
<text text-anchor="middle" x="593.7" y="-14.3" font-family="Times,serif" font-size="14.00">coisas</text>
</g>
<!-- 0&#45;&gt;7 -->
<g id="edge7" class="edge">
<title>0&#45;&gt;7</title>
<path fill="none" stroke="black" d="M1018.81,-101.42C953.35,-94.71 780.85,-74.52 641.7,-36 638.73,-35.18 635.67,-34.26 632.62,-33.3"/>
<polygon fill="black" stroke="black" points="633.53,-29.91 622.93,-30.09 631.33,-36.56 633.53,-29.91"/>
<text text-anchor="middle" x="798.2" y="-57.8" font-family="Times,serif" font-size="14.00">dep</text>
</g>
<!-- 8 -->
<g id="node9" class="node">
<title>8</title>
<ellipse fill="none" stroke="black" cx="726.7" cy="-18" rx="76.09" ry="18"/>
<text text-anchor="middle" x="726.7" y="-14.3" font-family="Times,serif" font-size="14.00">inacreditáveis</text>
</g>
<!-- 0&#45;&gt;8 -->
<g id="edge8" class="edge">
<title>0&#45;&gt;8</title>
<path fill="none" stroke="black" d="M1019.82,-99.26C987.51,-93.16 930.66,-81.8 882.7,-69 846.99,-59.47 807.34,-46.73 776.95,-36.5"/>
<polygon fill="black" stroke="black" points="778.02,-33.17 767.43,-33.27 775.77,-39.8 778.02,-33.17"/>
<text text-anchor="middle" x="896.2" y="-57.8" font-family="Times,serif" font-size="14.00">dep</text>
</g>
<!-- 9 -->
<g id="node10" class="node">
<title>9</title>
<ellipse fill="none" stroke="black" cx="847.7" cy="-18" rx="27" ry="18"/>
<text text-anchor="middle" x="847.7" y="-14.3" font-family="Times,serif" font-size="14.00">,</text>
</g>
<!-- 0&#45;&gt;9 -->
<g id="edge9" class="edge">
<title>0&#45;&gt;9</title>
<path fill="none" stroke="black" d="M1021.15,-96.85C1000.02,-90.42 968.9,-80.26 942.7,-69 919.7,-59.11 894.68,-45.84 876.1,-35.45"/>
<polygon fill="black" stroke="black" points="877.7,-32.33 867.27,-30.46 874.25,-38.43 877.7,-32.33"/>
<text text-anchor="middle" x="956.2" y="-57.8" font-family="Times,serif" font-size="14.00">dep</text>
</g>
<!-- 10 -->
<g id="node11" class="node">
<title>10</title>
<ellipse fill="none" stroke="black" cx="927.7" cy="-18" rx="35.19" ry="18"/>
<text text-anchor="middle" x="927.7" y="-14.3" font-family="Times,serif" font-size="14.00">como</text>
</g>
<!-- 0&#45;&gt;10 -->
<g id="edge10" class="edge">
<title>0&#45;&gt;10</title>
<path fill="none" stroke="black" d="M1026.75,-91.61C1016.82,-85.03 1004.5,-76.72 993.7,-69 980.61,-59.65 966.36,-48.93 954.46,-39.81"/>
<polygon fill="black" stroke="black" points="956.33,-36.83 946.27,-33.51 952.06,-42.38 956.33,-36.83"/>
<text text-anchor="middle" x="1007.2" y="-57.8" font-family="Times,serif" font-size="14.00">dep</text>
</g>
<!-- 11 -->
<g id="node12" class="node">
<title>11</title>
<ellipse fill="none" stroke="black" cx="1007.7" cy="-18" rx="27" ry="18"/>
<text text-anchor="middle" x="1007.7" y="-14.3" font-family="Times,serif" font-size="14.00">pó</text>
</g>
<!-- 0&#45;&gt;11 -->
<g id="edge11" class="edge">
<title>0&#45;&gt;11</title>
<path fill="none" stroke="black" d="M1038.37,-87.61C1032.96,-75.5 1025.48,-58.77 1019.26,-44.86"/>
<polygon fill="black" stroke="black" points="1022.28,-43.04 1015,-35.34 1015.89,-45.9 1022.28,-43.04"/>
<text text-anchor="middle" x="1043.2" y="-57.8" font-family="Times,serif" font-size="14.00">dep</text>
</g>
<!-- 12 -->
<g id="node13" class="node">
<title>12</title>
<ellipse fill="none" stroke="black" cx="1084.7" cy="-18" rx="31.7" ry="18"/>
<text text-anchor="middle" x="1084.7" y="-14.3" font-family="Times,serif" font-size="14.00">feito</text>
</g>
<!-- 0&#45;&gt;12 -->
<g id="edge12" class="edge">
<title>0&#45;&gt;12</title>
<path fill="none" stroke="black" d="M1053.22,-87.61C1058.79,-75.46 1066.5,-58.66 1072.89,-44.73"/>
<polygon fill="black" stroke="black" points="1076.08,-46.18 1077.07,-35.63 1069.72,-43.26 1076.08,-46.18"/>
<text text-anchor="middle" x="1081.2" y="-57.8" font-family="Times,serif" font-size="14.00">dep</text>
</g>
<!-- 13 -->
<g id="node14" class="node">
<title>13</title>
<ellipse fill="none" stroke="black" cx="1161.7" cy="-18" rx="27" ry="18"/>
<text text-anchor="middle" x="1161.7" y="-14.3" font-family="Times,serif" font-size="14.00">de</text>
</g>
<!-- 0&#45;&gt;13 -->
<g id="edge13" class="edge">
<title>0&#45;&gt;13</title>
<path fill="none" stroke="black" d="M1064.61,-92.08C1074.85,-85.49 1087.63,-77.02 1098.7,-69 1111.8,-59.5 1125.95,-48.36 1137.51,-39.01"/>
<polygon fill="black" stroke="black" points="1139.88,-41.59 1145.42,-32.56 1135.46,-36.16 1139.88,-41.59"/>
<text text-anchor="middle" x="1132.2" y="-57.8" font-family="Times,serif" font-size="14.00">dep</text>
</g>
<!-- 14 -->
<g id="node15" class="node">
<title>14</title>
<ellipse fill="none" stroke="black" cx="1261.7" cy="-18" rx="55.49" ry="18"/>
<text text-anchor="middle" x="1261.7" y="-14.3" font-family="Times,serif" font-size="14.00">lâmpadas</text>
</g>
<!-- 0&#45;&gt;14 -->
<g id="edge14" class="edge">
<title>0&#45;&gt;14</title>
<path fill="none" stroke="black" d="M1069.89,-96.58C1091.12,-89.9 1122.72,-79.53 1149.7,-69 1174.23,-59.42 1201.21,-47.42 1222.53,-37.58"/>
<polygon fill="black" stroke="black" points="1224.01,-40.76 1231.6,-33.37 1221.06,-34.41 1224.01,-40.76"/>
<text text-anchor="middle" x="1198.2" y="-57.8" font-family="Times,serif" font-size="14.00">dep</text>
</g>
<!-- 15 -->
<g id="node16" class="node">
<title>15</title>
<ellipse fill="none" stroke="black" cx="1407.7" cy="-18" rx="72.59" ry="18"/>
<text text-anchor="middle" x="1407.7" y="-14.3" font-family="Times,serif" font-size="14.00">fluorescentes</text>
</g>
<!-- 0&#45;&gt;15 -->
<g id="edge15" class="edge">
<title>0&#45;&gt;15</title>
<path fill="none" stroke="black" d="M1071.42,-99.13C1104.79,-92.72 1164.78,-80.86 1215.7,-69 1261.43,-58.35 1312.9,-44.86 1351.03,-34.58"/>
<polygon fill="black" stroke="black" points="1352.18,-37.9 1360.92,-31.91 1350.35,-31.14 1352.18,-37.9"/>
<text text-anchor="middle" x="1288.2" y="-57.8" font-family="Times,serif" font-size="14.00">dep</text>
</g>
<!-- 16 -->
<g id="node17" class="node">
<title>16</title>
<ellipse fill="none" stroke="black" cx="1525.7" cy="-18" rx="27" ry="18"/>
<text text-anchor="middle" x="1525.7" y="-14.3" font-family="Times,serif" font-size="14.00">,</text>
</g>
<!-- 0&#45;&gt;16 -->
<g id="edge16" class="edge">
<title>0&#45;&gt;16</title>
<path fill="none" stroke="black" d="M1072.64,-102.81C1142.9,-99.1 1336.86,-84.84 1489.7,-36 1491.62,-35.38 1493.58,-34.69 1495.53,-33.94"/>
<polygon fill="black" stroke="black" points="1497.31,-36.99 1505.13,-29.85 1494.56,-30.54 1497.31,-36.99"/>
<text text-anchor="middle" x="1433.2" y="-57.8" font-family="Times,serif" font-size="14.00">dep</text>
</g>
<!-- 17 -->
<g id="node18" class="node">
<title>17</title>
<ellipse fill="none" stroke="black" cx="1603.7" cy="-18" rx="33.29" ry="18"/>
<text text-anchor="middle" x="1603.7" y="-14.3" font-family="Times,serif" font-size="14.00">talco</text>
</g>
<!-- 0&#45;&gt;17 -->
<g id="edge17" class="edge">
<title>0&#45;&gt;17</title>
<path fill="none" stroke="black" d="M1072.97,-103.55C1138.6,-102.04 1310.29,-95.65 1450.7,-69 1501.26,-59.4 1513.12,-53.01 1561.7,-36 1563.95,-35.21 1566.26,-34.37 1568.59,-33.5"/>
<polygon fill="black" stroke="black" points="1570.02,-36.7 1578.08,-29.82 1567.49,-30.17 1570.02,-36.7"/>
<text text-anchor="middle" x="1524.2" y="-57.8" font-family="Times,serif" font-size="14.00">dep</text>
</g>
<!-- 18 -->
<g id="node19" class="node">
<title>18</title>
<ellipse fill="none" stroke="black" cx="1681.7" cy="-18" rx="27" ry="18"/>
<text text-anchor="middle" x="1681.7" y="-14.3" font-family="Times,serif" font-size="14.00">,</text>
</g>
<!-- 0&#45;&gt;18 -->
<g id="edge18" class="edge">
<title>0&#45;&gt;18</title>
<path fill="none" stroke="black" d="M1072.87,-104.33C1148.12,-104.75 1365.33,-102.71 1541.7,-69 1589.33,-59.9 1600.56,-53.73 1645.7,-36 1647.53,-35.28 1649.4,-34.51 1651.28,-33.71"/>
<polygon fill="black" stroke="black" points="1652.88,-36.83 1660.58,-29.55 1650.03,-30.44 1652.88,-36.83"/>
<text text-anchor="middle" x="1612.2" y="-57.8" font-family="Times,serif" font-size="14.00">dep</text>
</g>
<!-- 19 -->
<g id="node20" class="node">
<title>19</title>
<ellipse fill="none" stroke="black" cx="1768.7" cy="-18" rx="41.69" ry="18"/>
<text text-anchor="middle" x="1768.7" y="-14.3" font-family="Times,serif" font-size="14.00">açúcar</text>
</g>
<!-- 0&#45;&gt;19 -->
<g id="edge19" class="edge">
<title>0&#45;&gt;19</title>
<path fill="none" stroke="black" d="M1072.62,-103.4C1172.41,-101.04 1521,-91.33 1629.7,-69 1665.43,-61.66 1704.36,-47.04 1731.91,-35.5"/>
<polygon fill="black" stroke="black" points="1733.33,-38.7 1741.15,-31.56 1730.58,-32.26 1733.33,-38.7"/>
<text text-anchor="middle" x="1694.2" y="-57.8" font-family="Times,serif" font-size="14.00">dep</text>
</g>
<!-- 20 -->
<g id="node21" class="node">
<title>20</title>
<ellipse fill="none" stroke="black" cx="1855.7" cy="-18" rx="27" ry="18"/>
<text text-anchor="middle" x="1855.7" y="-14.3" font-family="Times,serif" font-size="14.00">ou</text>
</g>
<!-- 0&#45;&gt;20 -->
<g id="edge20" class="edge">
<title>0&#45;&gt;20</title>
<path fill="none" stroke="black" d="M1072.94,-103.45C1181.82,-101.14 1585.84,-91.19 1711.7,-69 1761.12,-60.28 1772.88,-54.1 1819.7,-36 1821.53,-35.29 1823.41,-34.53 1825.29,-33.73"/>
<polygon fill="black" stroke="black" points="1826.89,-36.85 1834.6,-29.59 1824.04,-30.46 1826.89,-36.85"/>
<text text-anchor="middle" x="1786.2" y="-57.8" font-family="Times,serif" font-size="14.00">dep</text>
</g>
<!-- 21 -->
<g id="node22" class="node">
<title>21</title>
<ellipse fill="none" stroke="black" cx="1971.7" cy="-18" rx="70.69" ry="18"/>
<text text-anchor="middle" x="1971.7" y="-14.3" font-family="Times,serif" font-size="14.00">comprimidos</text>
</g>
<!-- 0&#45;&gt;21 -->
<g id="edge21" class="edge">
<title>0&#45;&gt;21</title>
<path fill="none" stroke="black" d="M1072.62,-103.63C1190.14,-101.9 1658.71,-93.55 1803.7,-69 1845.21,-61.97 1890.91,-47.94 1924.16,-36.52"/>
<polygon fill="black" stroke="black" points="1925.33,-39.82 1933.63,-33.23 1923.03,-33.21 1925.33,-39.82"/>
<text text-anchor="middle" x="1878.2" y="-57.8" font-family="Times,serif" font-size="14.00">dep</text>
</g>
<!-- 22 -->
<g id="node23" class="node">
<title>22</title>
<ellipse fill="none" stroke="black" cx="2087.7" cy="-18" rx="27" ry="18"/>
<text text-anchor="middle" x="2087.7" y="-14.3" font-family="Times,serif" font-size="14.00">;</text>
</g>
<!-- 0&#45;&gt;22 -->
<g id="edge22" class="edge">
<title>0&#45;&gt;22</title>
<path fill="none" stroke="black" d="M1072.82,-103.49C1199.16,-101.05 1730.83,-89.68 1895.7,-69 1966.01,-60.18 1984.53,-58.62 2051.7,-36 2053.61,-35.35 2055.56,-34.64 2057.51,-33.87"/>
<polygon fill="black" stroke="black" points="2059.3,-36.91 2067.1,-29.73 2056.53,-30.48 2059.3,-36.91"/>
<text text-anchor="middle" x="2004.2" y="-57.8" font-family="Times,serif" font-size="14.00">dep</text>
</g>
</g>
</svg>
