<?xml version="1.0" encoding="UTF-8" standalone="no"?>
<!DOCTYPE svg PUBLIC "-//W3C//DTD SVG 1.1//EN"
 "http://www.w3.org/Graphics/SVG/1.1/DTD/svg11.dtd">
<!-- Generated by graphviz version 2.42.4 (0)
 -->
<!-- Pages: 1 -->
<svg width="1526pt" height="131pt"
 viewBox="0.00 0.00 1526.35 131.00" xmlns="http://www.w3.org/2000/svg" xmlns:xlink="http://www.w3.org/1999/xlink">
<g id="graph0" class="graph" transform="scale(1 1) rotate(0) translate(4 127)">
<polygon fill="white" stroke="transparent" points="-4,4 -4,-127 1522.35,-127 1522.35,4 -4,4"/>
<!-- 0 -->
<g id="node1" class="node">
<title>0</title>
<ellipse fill="none" stroke="black" cx="776.35" cy="-105" rx="27" ry="18"/>
<text text-anchor="middle" x="776.35" y="-101.3" font-family="Times,serif" font-size="14.00">O</text>
</g>
<!-- 1 -->
<g id="node2" class="node">
<title>1</title>
<ellipse fill="none" stroke="black" cx="38.35" cy="-18" rx="38.19" ry="18"/>
<text text-anchor="middle" x="38.35" y="-14.3" font-family="Times,serif" font-size="14.00">lençol</text>
</g>
<!-- 0&#45;&gt;1 -->
<g id="edge1" class="edge">
<title>0&#45;&gt;1</title>
<path fill="none" stroke="black" d="M749.09,-104.18C667.15,-104.32 416.1,-101.83 211.35,-69 154.19,-59.83 140.62,-53.2 85.35,-36 82.59,-35.14 79.75,-34.22 76.91,-33.26"/>
<polygon fill="black" stroke="black" points="77.88,-29.9 67.29,-29.94 75.59,-36.51 77.88,-29.9"/>
<text text-anchor="middle" x="224.85" y="-57.8" font-family="Times,serif" font-size="14.00">dep</text>
</g>
<!-- 2 -->
<g id="node3" class="node">
<title>2</title>
<ellipse fill="none" stroke="black" cx="140.35" cy="-18" rx="46.29" ry="18"/>
<text text-anchor="middle" x="140.35" y="-14.3" font-family="Times,serif" font-size="14.00">freático</text>
</g>
<!-- 0&#45;&gt;2 -->
<g id="edge2" class="edge">
<title>0&#45;&gt;2</title>
<path fill="none" stroke="black" d="M749.23,-104.17C676.07,-104.16 468.84,-101.08 300.35,-69 259.02,-61.13 213.35,-46.21 181.42,-34.71"/>
<polygon fill="black" stroke="black" points="182.57,-31.4 171.97,-31.26 180.17,-37.97 182.57,-31.4"/>
<text text-anchor="middle" x="313.85" y="-57.8" font-family="Times,serif" font-size="14.00">dep</text>
</g>
<!-- 3 -->
<g id="node4" class="node">
<title>3</title>
<ellipse fill="none" stroke="black" cx="240.35" cy="-18" rx="36" ry="18"/>
<text text-anchor="middle" x="240.35" y="-14.3" font-family="Times,serif" font-size="14.00">baixa</text>
</g>
<!-- 0&#45;&gt;3 -->
<g id="edge3" class="edge">
<title>0&#45;&gt;3</title>
<path fill="none" stroke="black" d="M749.27,-103.81C684.92,-102.89 518.07,-97.68 382.35,-69 345.06,-61.12 304.18,-46 275.9,-34.44"/>
<polygon fill="black" stroke="black" points="277.03,-31.11 266.45,-30.51 274.34,-37.58 277.03,-31.11"/>
<text text-anchor="middle" x="395.85" y="-57.8" font-family="Times,serif" font-size="14.00">dep</text>
</g>
<!-- 4 -->
<g id="node5" class="node">
<title>4</title>
<ellipse fill="none" stroke="black" cx="330.35" cy="-18" rx="36.29" ry="18"/>
<text text-anchor="middle" x="330.35" y="-14.3" font-family="Times,serif" font-size="14.00">todos</text>
</g>
<!-- 0&#45;&gt;4 -->
<g id="edge4" class="edge">
<title>0&#45;&gt;4</title>
<path fill="none" stroke="black" d="M749.31,-103.34C694.19,-101.47 565.2,-94.52 460.35,-69 427.01,-60.89 390.7,-46.41 364.94,-35.11"/>
<polygon fill="black" stroke="black" points="366.18,-31.83 355.62,-30.96 363.33,-38.23 366.18,-31.83"/>
<text text-anchor="middle" x="473.85" y="-57.8" font-family="Times,serif" font-size="14.00">dep</text>
</g>
<!-- 5 -->
<g id="node6" class="node">
<title>5</title>
<ellipse fill="none" stroke="black" cx="411.35" cy="-18" rx="27" ry="18"/>
<text text-anchor="middle" x="411.35" y="-14.3" font-family="Times,serif" font-size="14.00">os</text>
</g>
<!-- 0&#45;&gt;5 -->
<g id="edge5" class="edge">
<title>0&#45;&gt;5</title>
<path fill="none" stroke="black" d="M749.71,-101.96C705.04,-98.12 612.44,-88.42 536.35,-69 502.96,-60.48 466.57,-45.19 441.71,-33.75"/>
<polygon fill="black" stroke="black" points="442.99,-30.49 432.45,-29.43 440.03,-36.83 442.99,-30.49"/>
<text text-anchor="middle" x="549.85" y="-57.8" font-family="Times,serif" font-size="14.00">dep</text>
</g>
<!-- 6 -->
<g id="node7" class="node">
<title>6</title>
<ellipse fill="none" stroke="black" cx="488.35" cy="-18" rx="32.49" ry="18"/>
<text text-anchor="middle" x="488.35" y="-14.3" font-family="Times,serif" font-size="14.00">anos</text>
</g>
<!-- 0&#45;&gt;6 -->
<g id="edge6" class="edge">
<title>0&#45;&gt;6</title>
<path fill="none" stroke="black" d="M750.02,-100.24C716.26,-95.04 656.12,-84.5 606.35,-69 576.66,-59.75 544.22,-45.7 520.88,-34.85"/>
<polygon fill="black" stroke="black" points="522.32,-31.66 511.78,-30.56 519.34,-37.99 522.32,-31.66"/>
<text text-anchor="middle" x="619.85" y="-57.8" font-family="Times,serif" font-size="14.00">dep</text>
</g>
<!-- 7 -->
<g id="node8" class="node">
<title>7</title>
<ellipse fill="none" stroke="black" cx="565.35" cy="-18" rx="27" ry="18"/>
<text text-anchor="middle" x="565.35" y="-14.3" font-family="Times,serif" font-size="14.00">,</text>
</g>
<!-- 0&#45;&gt;7 -->
<g id="edge7" class="edge">
<title>0&#45;&gt;7</title>
<path fill="none" stroke="black" d="M751.98,-97.16C729.87,-90.7 696.5,-80.33 668.35,-69 643.04,-58.81 615.26,-45.18 594.93,-34.72"/>
<polygon fill="black" stroke="black" points="596.36,-31.52 585.88,-30.01 593.14,-37.73 596.36,-31.52"/>
<text text-anchor="middle" x="681.85" y="-57.8" font-family="Times,serif" font-size="14.00">dep</text>
</g>
<!-- 8 -->
<g id="node9" class="node">
<title>8</title>
<ellipse fill="none" stroke="black" cx="637.35" cy="-18" rx="27" ry="18"/>
<text text-anchor="middle" x="637.35" y="-14.3" font-family="Times,serif" font-size="14.00">as</text>
</g>
<!-- 0&#45;&gt;8 -->
<g id="edge8" class="edge">
<title>0&#45;&gt;8</title>
<path fill="none" stroke="black" d="M757.02,-92.18C733.16,-77.59 692.41,-52.67 665.18,-36.02"/>
<polygon fill="black" stroke="black" points="666.87,-32.95 656.51,-30.72 663.22,-38.92 666.87,-32.95"/>
<text text-anchor="middle" x="728.85" y="-57.8" font-family="Times,serif" font-size="14.00">dep</text>
</g>
<!-- 9 -->
<g id="node10" class="node">
<title>9</title>
<ellipse fill="none" stroke="black" cx="729.35" cy="-18" rx="47.39" ry="18"/>
<text text-anchor="middle" x="729.35" y="-14.3" font-family="Times,serif" font-size="14.00">pessoas</text>
</g>
<!-- 0&#45;&gt;9 -->
<g id="edge9" class="edge">
<title>0&#45;&gt;9</title>
<path fill="none" stroke="black" d="M767.28,-87.61C760.61,-75.54 751.4,-58.88 743.72,-45"/>
<polygon fill="black" stroke="black" points="746.6,-42.98 738.7,-35.92 740.48,-46.37 746.6,-42.98"/>
<text text-anchor="middle" x="769.85" y="-57.8" font-family="Times,serif" font-size="14.00">dep</text>
</g>
<!-- 10 -->
<g id="node11" class="node">
<title>10</title>
<ellipse fill="none" stroke="black" cx="823.35" cy="-18" rx="28.7" ry="18"/>
<text text-anchor="middle" x="823.35" y="-14.3" font-family="Times,serif" font-size="14.00">têm</text>
</g>
<!-- 0&#45;&gt;10 -->
<g id="edge10" class="edge">
<title>0&#45;&gt;10</title>
<path fill="none" stroke="black" d="M785.41,-87.61C792.17,-75.38 801.54,-58.44 809.27,-44.46"/>
<polygon fill="black" stroke="black" points="812.54,-45.78 814.31,-35.34 806.41,-42.4 812.54,-45.78"/>
<text text-anchor="middle" x="816.85" y="-57.8" font-family="Times,serif" font-size="14.00">dep</text>
</g>
<!-- 11 -->
<g id="node12" class="node">
<title>11</title>
<ellipse fill="none" stroke="black" cx="897.35" cy="-18" rx="27" ry="18"/>
<text text-anchor="middle" x="897.35" y="-14.3" font-family="Times,serif" font-size="14.00">de</text>
</g>
<!-- 0&#45;&gt;11 -->
<g id="edge11" class="edge">
<title>0&#45;&gt;11</title>
<path fill="none" stroke="black" d="M796.34,-92.78C807.71,-86.2 822.08,-77.52 834.35,-69 847.64,-59.77 861.8,-48.65 873.33,-39.25"/>
<polygon fill="black" stroke="black" points="875.72,-41.81 881.21,-32.75 871.26,-36.41 875.72,-41.81"/>
<text text-anchor="middle" x="867.85" y="-57.8" font-family="Times,serif" font-size="14.00">dep</text>
</g>
<!-- 12 -->
<g id="node13" class="node">
<title>12</title>
<ellipse fill="none" stroke="black" cx="978.35" cy="-18" rx="36.29" ry="18"/>
<text text-anchor="middle" x="978.35" y="-14.3" font-family="Times,serif" font-size="14.00">cavar</text>
</g>
<!-- 0&#45;&gt;12 -->
<g id="edge12" class="edge">
<title>0&#45;&gt;12</title>
<path fill="none" stroke="black" d="M801.05,-97.46C823.46,-91.21 857.18,-80.98 885.35,-69 906.61,-59.96 929.48,-47.7 947.21,-37.59"/>
<polygon fill="black" stroke="black" points="949.08,-40.55 955.99,-32.52 945.58,-34.49 949.08,-40.55"/>
<text text-anchor="middle" x="930.85" y="-57.8" font-family="Times,serif" font-size="14.00">dep</text>
</g>
<!-- 13 -->
<g id="node14" class="node">
<title>13</title>
<ellipse fill="none" stroke="black" cx="1069.35" cy="-18" rx="37.09" ry="18"/>
<text text-anchor="middle" x="1069.35" y="-14.3" font-family="Times,serif" font-size="14.00">poços</text>
</g>
<!-- 0&#45;&gt;13 -->
<g id="edge13" class="edge">
<title>0&#45;&gt;13</title>
<path fill="none" stroke="black" d="M802.67,-100.25C836.75,-95.03 897.78,-84.44 948.35,-69 978.15,-59.9 1010.74,-46.21 1034.58,-35.45"/>
<polygon fill="black" stroke="black" points="1036.26,-38.53 1043.91,-31.19 1033.36,-32.16 1036.26,-38.53"/>
<text text-anchor="middle" x="1002.85" y="-57.8" font-family="Times,serif" font-size="14.00">dep</text>
</g>
<!-- 14 -->
<g id="node15" class="node">
<title>14</title>
<ellipse fill="none" stroke="black" cx="1157.35" cy="-18" rx="32.49" ry="18"/>
<text text-anchor="middle" x="1157.35" y="-14.3" font-family="Times,serif" font-size="14.00">cada</text>
</g>
<!-- 0&#45;&gt;14 -->
<g id="edge14" class="edge">
<title>0&#45;&gt;14</title>
<path fill="none" stroke="black" d="M803.02,-101.86C848.23,-97.86 942.58,-87.9 1020.35,-69 1063.78,-58.44 1073.51,-51.72 1115.35,-36 1117.73,-35.1 1120.18,-34.16 1122.65,-33.2"/>
<polygon fill="black" stroke="black" points="1124.1,-36.39 1132.11,-29.45 1121.52,-29.88 1124.1,-36.39"/>
<text text-anchor="middle" x="1082.85" y="-57.8" font-family="Times,serif" font-size="14.00">dep</text>
</g>
<!-- 15 -->
<g id="node16" class="node">
<title>15</title>
<ellipse fill="none" stroke="black" cx="1234.35" cy="-18" rx="27" ry="18"/>
<text text-anchor="middle" x="1234.35" y="-14.3" font-family="Times,serif" font-size="14.00">vez</text>
</g>
<!-- 0&#45;&gt;15 -->
<g id="edge15" class="edge">
<title>0&#45;&gt;15</title>
<path fill="none" stroke="black" d="M803.55,-103.05C859.65,-100.67 992.04,-92.79 1100.35,-69 1145.24,-59.14 1155.72,-53.17 1198.35,-36 1200.17,-35.26 1202.04,-34.48 1203.91,-33.67"/>
<polygon fill="black" stroke="black" points="1205.53,-36.78 1213.21,-29.48 1202.65,-30.4 1205.53,-36.78"/>
<text text-anchor="middle" x="1167.85" y="-57.8" font-family="Times,serif" font-size="14.00">dep</text>
</g>
<!-- 16 -->
<g id="node17" class="node">
<title>16</title>
<ellipse fill="none" stroke="black" cx="1311.35" cy="-18" rx="32.49" ry="18"/>
<text text-anchor="middle" x="1311.35" y="-14.3" font-family="Times,serif" font-size="14.00">mais</text>
</g>
<!-- 0&#45;&gt;16 -->
<g id="edge16" class="edge">
<title>0&#45;&gt;16</title>
<path fill="none" stroke="black" d="M803.56,-104.32C869.81,-104.54 1044.41,-101.68 1185.35,-69 1218.13,-61.4 1253.61,-46.68 1278.54,-35.18"/>
<polygon fill="black" stroke="black" points="1280.32,-38.21 1287.88,-30.79 1277.34,-31.88 1280.32,-38.21"/>
<text text-anchor="middle" x="1245.85" y="-57.8" font-family="Times,serif" font-size="14.00">dep</text>
</g>
<!-- 17 -->
<g id="node18" class="node">
<title>17</title>
<ellipse fill="none" stroke="black" cx="1404.35" cy="-18" rx="42.49" ry="18"/>
<text text-anchor="middle" x="1404.35" y="-14.3" font-family="Times,serif" font-size="14.00">fundos</text>
</g>
<!-- 0&#45;&gt;17 -->
<g id="edge17" class="edge">
<title>0&#45;&gt;17</title>
<path fill="none" stroke="black" d="M803.36,-104.58C877.65,-105.65 1090.98,-105.07 1263.35,-69 1299.39,-61.46 1338.76,-46.93 1366.71,-35.47"/>
<polygon fill="black" stroke="black" points="1368.22,-38.64 1376.1,-31.56 1365.53,-32.18 1368.22,-38.64"/>
<text text-anchor="middle" x="1328.85" y="-57.8" font-family="Times,serif" font-size="14.00">dep</text>
</g>
<!-- 18 -->
<g id="node19" class="node">
<title>18</title>
<ellipse fill="none" stroke="black" cx="1491.35" cy="-18" rx="27" ry="18"/>
<text text-anchor="middle" x="1491.35" y="-14.3" font-family="Times,serif" font-size="14.00">.</text>
</g>
<!-- 0&#45;&gt;18 -->
<g id="edge18" class="edge">
<title>0&#45;&gt;18</title>
<path fill="none" stroke="black" d="M803.61,-104.56C886.14,-105.77 1140.2,-106.01 1346.35,-69 1396.17,-60.06 1408.11,-54.19 1455.35,-36 1457.18,-35.29 1459.06,-34.53 1460.94,-33.74"/>
<polygon fill="black" stroke="black" points="1462.54,-36.86 1470.25,-29.59 1459.69,-30.46 1462.54,-36.86"/>
<text text-anchor="middle" x="1420.85" y="-57.8" font-family="Times,serif" font-size="14.00">dep</text>
</g>
</g>
</svg>
