<?xml version="1.0" encoding="UTF-8" standalone="no"?>
<!DOCTYPE svg PUBLIC "-//W3C//DTD SVG 1.1//EN"
 "http://www.w3.org/Graphics/SVG/1.1/DTD/svg11.dtd">
<!-- Generated by graphviz version 2.42.4 (0)
 -->
<!-- Pages: 1 -->
<svg width="3037pt" height="131pt"
 viewBox="0.00 0.00 3036.75 131.00" xmlns="http://www.w3.org/2000/svg" xmlns:xlink="http://www.w3.org/1999/xlink">
<g id="graph0" class="graph" transform="scale(1 1) rotate(0) translate(4 127)">
<polygon fill="white" stroke="transparent" points="-4,4 -4,-127 3032.75,-127 3032.75,4 -4,4"/>
<!-- 0 -->
<g id="node1" class="node">
<title>0</title>
<ellipse fill="none" stroke="black" cx="1550.75" cy="-105" rx="27" ry="18"/>
<text text-anchor="middle" x="1550.75" y="-101.3" font-family="Times,serif" font-size="14.00">O</text>
</g>
<!-- 1 -->
<g id="node2" class="node">
<title>1</title>
<ellipse fill="none" stroke="black" cx="35.75" cy="-18" rx="36" ry="18"/>
<text text-anchor="middle" x="35.75" y="-14.3" font-family="Times,serif" font-size="14.00">vídeo</text>
</g>
<!-- 0&#45;&gt;1 -->
<g id="edge1" class="edge">
<title>0&#45;&gt;1</title>
<path fill="none" stroke="black" d="M1523.55,-103.84C1342.04,-102.67 309.05,-94.93 171.75,-69 135.86,-62.22 96.94,-47.05 69.97,-35.19"/>
<polygon fill="black" stroke="black" points="71.16,-31.89 60.6,-30.99 68.29,-38.27 71.16,-31.89"/>
<text text-anchor="middle" x="185.25" y="-57.8" font-family="Times,serif" font-size="14.00">dep</text>
</g>
<!-- 2 -->
<g id="node3" class="node">
<title>2</title>
<ellipse fill="none" stroke="black" cx="122.75" cy="-18" rx="33.29" ry="18"/>
<text text-anchor="middle" x="122.75" y="-14.3" font-family="Times,serif" font-size="14.00">pode</text>
</g>
<!-- 0&#45;&gt;2 -->
<g id="edge2" class="edge">
<title>0&#45;&gt;2</title>
<path fill="none" stroke="black" d="M1523.8,-103.8C1349.4,-102.41 383.38,-93.63 254.75,-69 219.59,-62.27 181.58,-46.94 155.42,-35.02"/>
<polygon fill="black" stroke="black" points="156.89,-31.84 146.34,-30.8 153.94,-38.19 156.89,-31.84"/>
<text text-anchor="middle" x="268.25" y="-57.8" font-family="Times,serif" font-size="14.00">dep</text>
</g>
<!-- 3 -->
<g id="node4" class="node">
<title>3</title>
<ellipse fill="none" stroke="black" cx="200.75" cy="-18" rx="27" ry="18"/>
<text text-anchor="middle" x="200.75" y="-14.3" font-family="Times,serif" font-size="14.00">ser</text>
</g>
<!-- 0&#45;&gt;3 -->
<g id="edge3" class="edge">
<title>0&#45;&gt;3</title>
<path fill="none" stroke="black" d="M1523.59,-104.19C1367.51,-105.11 583.43,-107.72 345.75,-69 295.79,-60.86 283.98,-54.19 236.75,-36 234.91,-35.29 233.03,-34.53 231.15,-33.74"/>
<polygon fill="black" stroke="black" points="232.4,-30.46 221.84,-29.59 229.56,-36.86 232.4,-30.46"/>
<text text-anchor="middle" x="359.25" y="-57.8" font-family="Times,serif" font-size="14.00">dep</text>
</g>
<!-- 4 -->
<g id="node5" class="node">
<title>4</title>
<ellipse fill="none" stroke="black" cx="272.75" cy="-18" rx="27" ry="18"/>
<text text-anchor="middle" x="272.75" y="-14.3" font-family="Times,serif" font-size="14.00">um</text>
</g>
<!-- 0&#45;&gt;4 -->
<g id="edge4" class="edge">
<title>0&#45;&gt;4</title>
<path fill="none" stroke="black" d="M1523.42,-103.64C1378.53,-101.68 698.89,-91.39 489.75,-69 408.44,-60.3 386.6,-61 308.75,-36 306.82,-35.38 304.87,-34.68 302.91,-33.93"/>
<polygon fill="black" stroke="black" points="303.88,-30.54 293.31,-29.84 301.14,-36.98 303.88,-30.54"/>
<text text-anchor="middle" x="503.25" y="-57.8" font-family="Times,serif" font-size="14.00">dep</text>
</g>
<!-- 5 -->
<g id="node6" class="node">
<title>5</title>
<ellipse fill="none" stroke="black" cx="385.75" cy="-18" rx="67.69" ry="18"/>
<text text-anchor="middle" x="385.75" y="-14.3" font-family="Times,serif" font-size="14.00">instrumento</text>
</g>
<!-- 0&#45;&gt;5 -->
<g id="edge5" class="edge">
<title>0&#45;&gt;5</title>
<path fill="none" stroke="black" d="M1523.49,-103.73C1387.57,-102.25 782.13,-94.35 595.75,-69 541.6,-61.63 481.01,-46.44 438.88,-34.72"/>
<polygon fill="black" stroke="black" points="439.69,-31.31 429.11,-31.98 437.79,-38.05 439.69,-31.31"/>
<text text-anchor="middle" x="609.25" y="-57.8" font-family="Times,serif" font-size="14.00">dep</text>
</g>
<!-- 6 -->
<g id="node7" class="node">
<title>6</title>
<ellipse fill="none" stroke="black" cx="524.75" cy="-18" rx="53.09" ry="18"/>
<text text-anchor="middle" x="524.75" y="-14.3" font-family="Times,serif" font-size="14.00">poderoso</text>
</g>
<!-- 0&#45;&gt;6 -->
<g id="edge6" class="edge">
<title>0&#45;&gt;6</title>
<path fill="none" stroke="black" d="M1523.46,-103.87C1395.13,-103.09 850.89,-98.12 683.75,-69 643.32,-61.96 598.88,-47.37 567.29,-35.76"/>
<polygon fill="black" stroke="black" points="568.51,-32.48 557.91,-32.27 566.06,-39.04 568.51,-32.48"/>
<text text-anchor="middle" x="697.25" y="-57.8" font-family="Times,serif" font-size="14.00">dep</text>
</g>
<!-- 7 -->
<g id="node8" class="node">
<title>7</title>
<ellipse fill="none" stroke="black" cx="627.75" cy="-18" rx="31.7" ry="18"/>
<text text-anchor="middle" x="627.75" y="-14.3" font-family="Times,serif" font-size="14.00">para</text>
</g>
<!-- 0&#45;&gt;7 -->
<g id="edge7" class="edge">
<title>0&#45;&gt;7</title>
<path fill="none" stroke="black" d="M1523.8,-103.77C1404,-102.6 919.13,-96.23 769.75,-69 731.34,-62 689.4,-46.14 661.13,-34.15"/>
<polygon fill="black" stroke="black" points="662.3,-30.84 651.73,-30.09 659.52,-37.27 662.3,-30.84"/>
<text text-anchor="middle" x="783.25" y="-57.8" font-family="Times,serif" font-size="14.00">dep</text>
</g>
<!-- 8 -->
<g id="node9" class="node">
<title>8</title>
<ellipse fill="none" stroke="black" cx="711.75" cy="-18" rx="34.39" ry="18"/>
<text text-anchor="middle" x="711.75" y="-14.3" font-family="Times,serif" font-size="14.00">tocar</text>
</g>
<!-- 0&#45;&gt;8 -->
<g id="edge8" class="edge">
<title>0&#45;&gt;8</title>
<path fill="none" stroke="black" d="M1523.53,-103.57C1411.92,-101.65 989,-92.92 857.75,-69 818.55,-61.86 775.64,-46.14 746.54,-34.23"/>
<polygon fill="black" stroke="black" points="747.81,-30.96 737.23,-30.35 745.11,-37.42 747.81,-30.96"/>
<text text-anchor="middle" x="871.25" y="-57.8" font-family="Times,serif" font-size="14.00">dep</text>
</g>
<!-- 9 -->
<g id="node10" class="node">
<title>9</title>
<ellipse fill="none" stroke="black" cx="790.75" cy="-18" rx="27" ry="18"/>
<text text-anchor="middle" x="790.75" y="-14.3" font-family="Times,serif" font-size="14.00">as</text>
</g>
<!-- 0&#45;&gt;9 -->
<g id="edge9" class="edge">
<title>0&#45;&gt;9</title>
<path fill="none" stroke="black" d="M1523.7,-103.84C1441.24,-103.04 1185.88,-98.2 976.75,-69 909.14,-59.56 891.35,-58.05 826.75,-36 824.83,-35.35 822.89,-34.62 820.94,-33.85"/>
<polygon fill="black" stroke="black" points="821.92,-30.46 811.36,-29.7 819.15,-36.88 821.92,-30.46"/>
<text text-anchor="middle" x="990.25" y="-57.8" font-family="Times,serif" font-size="14.00">dep</text>
</g>
<!-- 10 -->
<g id="node11" class="node">
<title>10</title>
<ellipse fill="none" stroke="black" cx="882.75" cy="-18" rx="47.39" ry="18"/>
<text text-anchor="middle" x="882.75" y="-14.3" font-family="Times,serif" font-size="14.00">pessoas</text>
</g>
<!-- 0&#45;&gt;10 -->
<g id="edge10" class="edge">
<title>0&#45;&gt;10</title>
<path fill="none" stroke="black" d="M1523.66,-103.32C1451.98,-101.23 1251.56,-93.46 1086.75,-69 1020.08,-59.11 1003.93,-53.13 938.75,-36 935.14,-35.05 931.43,-34.03 927.7,-32.97"/>
<polygon fill="black" stroke="black" points="928.46,-29.55 917.88,-30.11 926.5,-36.27 928.46,-29.55"/>
<text text-anchor="middle" x="1100.25" y="-57.8" font-family="Times,serif" font-size="14.00">dep</text>
</g>
<!-- 11 -->
<g id="node12" class="node">
<title>11</title>
<ellipse fill="none" stroke="black" cx="1015.75" cy="-18" rx="67.69" ry="18"/>
<text text-anchor="middle" x="1015.75" y="-14.3" font-family="Times,serif" font-size="14.00">diretamente</text>
</g>
<!-- 0&#45;&gt;11 -->
<g id="edge11" class="edge">
<title>0&#45;&gt;11</title>
<path fill="none" stroke="black" d="M1523.64,-103.41C1461.51,-101.65 1304.29,-94.79 1175.75,-69 1137,-61.23 1094.33,-47.63 1062.81,-36.58"/>
<polygon fill="black" stroke="black" points="1063.59,-33.14 1052.99,-33.09 1061.24,-39.73 1063.59,-33.14"/>
<text text-anchor="middle" x="1189.25" y="-57.8" font-family="Times,serif" font-size="14.00">dep</text>
</g>
<!-- 12 -->
<g id="node13" class="node">
<title>12</title>
<ellipse fill="none" stroke="black" cx="1128.75" cy="-18" rx="27" ry="18"/>
<text text-anchor="middle" x="1128.75" y="-14.3" font-family="Times,serif" font-size="14.00">,</text>
</g>
<!-- 0&#45;&gt;12 -->
<g id="edge12" class="edge">
<title>0&#45;&gt;12</title>
<path fill="none" stroke="black" d="M1523.86,-103.11C1470.88,-100.87 1349.53,-93.31 1250.75,-69 1218.17,-60.98 1182.91,-45.76 1158.72,-34.21"/>
<polygon fill="black" stroke="black" points="1160.22,-31.05 1149.7,-29.83 1157.17,-37.35 1160.22,-31.05"/>
<text text-anchor="middle" x="1264.25" y="-57.8" font-family="Times,serif" font-size="14.00">dep</text>
</g>
<!-- 13 -->
<g id="node14" class="node">
<title>13</title>
<ellipse fill="none" stroke="black" cx="1200.75" cy="-18" rx="27" ry="18"/>
<text text-anchor="middle" x="1200.75" y="-14.3" font-family="Times,serif" font-size="14.00">em</text>
</g>
<!-- 0&#45;&gt;13 -->
<g id="edge13" class="edge">
<title>0&#45;&gt;13</title>
<path fill="none" stroke="black" d="M1524.23,-101.4C1482.43,-96.93 1398.83,-86.57 1329.75,-69 1287.24,-58.19 1277.29,-52.72 1236.75,-36 1234.93,-35.25 1233.06,-34.45 1231.19,-33.64"/>
<polygon fill="black" stroke="black" points="1232.46,-30.37 1221.91,-29.42 1229.57,-36.74 1232.46,-30.37"/>
<text text-anchor="middle" x="1343.25" y="-57.8" font-family="Times,serif" font-size="14.00">dep</text>
</g>
<!-- 14 -->
<g id="node15" class="node">
<title>14</title>
<ellipse fill="none" stroke="black" cx="1272.75" cy="-18" rx="27" ry="18"/>
<text text-anchor="middle" x="1272.75" y="-14.3" font-family="Times,serif" font-size="14.00">a</text>
</g>
<!-- 0&#45;&gt;14 -->
<g id="edge14" class="edge">
<title>0&#45;&gt;14</title>
<path fill="none" stroke="black" d="M1525.5,-98.6C1480.9,-88.68 1385.64,-65.84 1308.75,-36 1306.91,-35.29 1305.04,-34.52 1303.16,-33.73"/>
<polygon fill="black" stroke="black" points="1304.41,-30.45 1293.85,-29.58 1301.56,-36.85 1304.41,-30.45"/>
<text text-anchor="middle" x="1421.25" y="-57.8" font-family="Times,serif" font-size="14.00">dep</text>
</g>
<!-- 15 -->
<g id="node16" class="node">
<title>15</title>
<ellipse fill="none" stroke="black" cx="1375.75" cy="-18" rx="57.69" ry="18"/>
<text text-anchor="middle" x="1375.75" y="-14.3" font-family="Times,serif" font-size="14.00">percepção</text>
</g>
<!-- 0&#45;&gt;15 -->
<g id="edge15" class="edge">
<title>0&#45;&gt;15</title>
<path fill="none" stroke="black" d="M1529.33,-93.99C1514.52,-87.05 1494.4,-77.54 1476.75,-69 1455.96,-58.94 1432.86,-47.52 1414.01,-38.14"/>
<polygon fill="black" stroke="black" points="1415.36,-34.91 1404.85,-33.58 1412.24,-41.17 1415.36,-34.91"/>
<text text-anchor="middle" x="1490.25" y="-57.8" font-family="Times,serif" font-size="14.00">dep</text>
</g>
<!-- 16 -->
<g id="node17" class="node">
<title>16</title>
<ellipse fill="none" stroke="black" cx="1478.75" cy="-18" rx="27" ry="18"/>
<text text-anchor="middle" x="1478.75" y="-14.3" font-family="Times,serif" font-size="14.00">,</text>
</g>
<!-- 0&#45;&gt;16 -->
<g id="edge16" class="edge">
<title>0&#45;&gt;16</title>
<path fill="none" stroke="black" d="M1537.35,-89.12C1531.84,-82.94 1525.43,-75.67 1519.75,-69 1512.43,-60.41 1504.54,-50.86 1497.65,-42.43"/>
<polygon fill="black" stroke="black" points="1500.18,-39.99 1491.16,-34.44 1494.75,-44.41 1500.18,-39.99"/>
<text text-anchor="middle" x="1533.25" y="-57.8" font-family="Times,serif" font-size="14.00">dep</text>
</g>
<!-- 17 -->
<g id="node18" class="node">
<title>17</title>
<ellipse fill="none" stroke="black" cx="1550.75" cy="-18" rx="27" ry="18"/>
<text text-anchor="middle" x="1550.75" y="-14.3" font-family="Times,serif" font-size="14.00">em</text>
</g>
<!-- 0&#45;&gt;17 -->
<g id="edge17" class="edge">
<title>0&#45;&gt;17</title>
<path fill="none" stroke="black" d="M1550.75,-86.8C1550.75,-75.16 1550.75,-59.55 1550.75,-46.24"/>
<polygon fill="black" stroke="black" points="1554.25,-46.18 1550.75,-36.18 1547.25,-46.18 1554.25,-46.18"/>
<text text-anchor="middle" x="1564.25" y="-57.8" font-family="Times,serif" font-size="14.00">dep</text>
</g>
<!-- 18 -->
<g id="node19" class="node">
<title>18</title>
<ellipse fill="none" stroke="black" cx="1631.75" cy="-18" rx="36.29" ry="18"/>
<text text-anchor="middle" x="1631.75" y="-14.3" font-family="Times,serif" font-size="14.00">áreas</text>
</g>
<!-- 0&#45;&gt;18 -->
<g id="edge18" class="edge">
<title>0&#45;&gt;18</title>
<path fill="none" stroke="black" d="M1564.86,-89.19C1577.28,-76.15 1595.59,-56.95 1609.91,-41.92"/>
<polygon fill="black" stroke="black" points="1612.61,-44.15 1616.98,-34.5 1607.55,-39.32 1612.61,-44.15"/>
<text text-anchor="middle" x="1610.25" y="-57.8" font-family="Times,serif" font-size="14.00">dep</text>
</g>
<!-- 19 -->
<g id="node20" class="node">
<title>19</title>
<ellipse fill="none" stroke="black" cx="1713.75" cy="-18" rx="27.9" ry="18"/>
<text text-anchor="middle" x="1713.75" y="-14.3" font-family="Times,serif" font-size="14.00">que</text>
</g>
<!-- 0&#45;&gt;19 -->
<g id="edge19" class="edge">
<title>0&#45;&gt;19</title>
<path fill="none" stroke="black" d="M1572.93,-94.62C1588.47,-87.88 1609.61,-78.36 1627.75,-69 1647.43,-58.84 1668.97,-46.31 1685.58,-36.34"/>
<polygon fill="black" stroke="black" points="1687.5,-39.26 1694.25,-31.09 1683.88,-33.27 1687.5,-39.26"/>
<text text-anchor="middle" x="1668.25" y="-57.8" font-family="Times,serif" font-size="14.00">dep</text>
</g>
<!-- 20 -->
<g id="node21" class="node">
<title>20</title>
<ellipse fill="none" stroke="black" cx="1786.75" cy="-18" rx="27" ry="18"/>
<text text-anchor="middle" x="1786.75" y="-14.3" font-family="Times,serif" font-size="14.00">a</text>
</g>
<!-- 0&#45;&gt;20 -->
<g id="edge20" class="edge">
<title>0&#45;&gt;20</title>
<path fill="none" stroke="black" d="M1576.36,-99.01C1603.87,-93.27 1648.65,-82.82 1685.75,-69 1710.91,-59.62 1738.13,-45.93 1757.96,-35.24"/>
<polygon fill="black" stroke="black" points="1759.69,-38.28 1766.79,-30.42 1756.34,-32.14 1759.69,-38.28"/>
<text text-anchor="middle" x="1734.25" y="-57.8" font-family="Times,serif" font-size="14.00">dep</text>
</g>
<!-- 21 -->
<g id="node22" class="node">
<title>21</title>
<ellipse fill="none" stroke="black" cx="1875.75" cy="-18" rx="44.39" ry="18"/>
<text text-anchor="middle" x="1875.75" y="-14.3" font-family="Times,serif" font-size="14.00">cultura</text>
</g>
<!-- 0&#45;&gt;21 -->
<g id="edge21" class="edge">
<title>0&#45;&gt;21</title>
<path fill="none" stroke="black" d="M1577.16,-101.2C1615.97,-96.69 1690.43,-86.49 1751.75,-69 1781.7,-60.46 1814.32,-47.13 1838.58,-36.39"/>
<polygon fill="black" stroke="black" points="1840.09,-39.55 1847.78,-32.26 1837.22,-33.16 1840.09,-39.55"/>
<text text-anchor="middle" x="1807.25" y="-57.8" font-family="Times,serif" font-size="14.00">dep</text>
</g>
<!-- 22 -->
<g id="node23" class="node">
<title>22</title>
<ellipse fill="none" stroke="black" cx="1990.75" cy="-18" rx="53.09" ry="18"/>
<text text-anchor="middle" x="1990.75" y="-14.3" font-family="Times,serif" font-size="14.00">ocidental</text>
</g>
<!-- 0&#45;&gt;22 -->
<g id="edge22" class="edge">
<title>0&#45;&gt;22</title>
<path fill="none" stroke="black" d="M1577.44,-102.07C1626.73,-98.17 1735.16,-88.08 1824.75,-69 1866.23,-60.17 1912.35,-45.91 1945.42,-34.87"/>
<polygon fill="black" stroke="black" points="1946.89,-38.07 1955.25,-31.56 1944.65,-31.44 1946.89,-38.07"/>
<text text-anchor="middle" x="1894.25" y="-57.8" font-family="Times,serif" font-size="14.00">dep</text>
</g>
<!-- 23 -->
<g id="node24" class="node">
<title>23</title>
<ellipse fill="none" stroke="black" cx="2089.75" cy="-18" rx="27.1" ry="18"/>
<text text-anchor="middle" x="2089.75" y="-14.3" font-family="Times,serif" font-size="14.00">não</text>
</g>
<!-- 0&#45;&gt;23 -->
<g id="edge23" class="edge">
<title>0&#45;&gt;23</title>
<path fill="none" stroke="black" d="M1577.63,-102.62C1637.8,-99.27 1787.8,-89.42 1911.75,-69 1975.25,-58.54 1991.87,-56.87 2052.75,-36 2054.87,-35.27 2057.03,-34.47 2059.19,-33.61"/>
<polygon fill="black" stroke="black" points="2060.69,-36.77 2068.52,-29.63 2057.95,-30.33 2060.69,-36.77"/>
<text text-anchor="middle" x="2006.25" y="-57.8" font-family="Times,serif" font-size="14.00">dep</text>
</g>
<!-- 24 -->
<g id="node25" class="node">
<title>24</title>
<ellipse fill="none" stroke="black" cx="2164.75" cy="-18" rx="29.8" ry="18"/>
<text text-anchor="middle" x="2164.75" y="-14.3" font-family="Times,serif" font-size="14.00">leva</text>
</g>
<!-- 0&#45;&gt;24 -->
<g id="edge24" class="edge">
<title>0&#45;&gt;24</title>
<path fill="none" stroke="black" d="M1577.98,-104.24C1650.95,-104.42 1856.68,-101.72 2023.75,-69 2062.05,-61.5 2103.97,-45.57 2132.07,-33.7"/>
<polygon fill="black" stroke="black" points="2133.59,-36.85 2141.4,-29.69 2130.83,-30.42 2133.59,-36.85"/>
<text text-anchor="middle" x="2089.25" y="-57.8" font-family="Times,serif" font-size="14.00">dep</text>
</g>
<!-- 25 -->
<g id="node26" class="node">
<title>25</title>
<ellipse fill="none" stroke="black" cx="2239.75" cy="-18" rx="27" ry="18"/>
<text text-anchor="middle" x="2239.75" y="-14.3" font-family="Times,serif" font-size="14.00">em</text>
</g>
<!-- 0&#45;&gt;25 -->
<g id="edge25" class="edge">
<title>0&#45;&gt;25</title>
<path fill="none" stroke="black" d="M1577.69,-103.25C1674.37,-100.41 2003.57,-89.42 2106.75,-69 2143.39,-61.75 2183.21,-45.59 2209.63,-33.59"/>
<polygon fill="black" stroke="black" points="2211.12,-36.75 2218.73,-29.38 2208.18,-30.4 2211.12,-36.75"/>
<text text-anchor="middle" x="2173.25" y="-57.8" font-family="Times,serif" font-size="14.00">dep</text>
</g>
<!-- 26 -->
<g id="node27" class="node">
<title>26</title>
<ellipse fill="none" stroke="black" cx="2320.75" cy="-18" rx="36.29" ry="18"/>
<text text-anchor="middle" x="2320.75" y="-14.3" font-family="Times,serif" font-size="14.00">conta</text>
</g>
<!-- 0&#45;&gt;26 -->
<g id="edge26" class="edge">
<title>0&#45;&gt;26</title>
<path fill="none" stroke="black" d="M1577.69,-103.64C1683.55,-102.07 2070.92,-94.65 2190.75,-69 2224.29,-61.82 2260.59,-47.24 2286.28,-35.67"/>
<polygon fill="black" stroke="black" points="2287.94,-38.75 2295.57,-31.4 2285.03,-32.39 2287.94,-38.75"/>
<text text-anchor="middle" x="2252.25" y="-57.8" font-family="Times,serif" font-size="14.00">dep</text>
</g>
<!-- 27 -->
<g id="node28" class="node">
<title>27</title>
<ellipse fill="none" stroke="black" cx="2409.75" cy="-18" rx="35.19" ry="18"/>
<text text-anchor="middle" x="2409.75" y="-14.3" font-family="Times,serif" font-size="14.00">como</text>
</g>
<!-- 0&#45;&gt;27 -->
<g id="edge27" class="edge">
<title>0&#45;&gt;27</title>
<path fill="none" stroke="black" d="M1577.83,-103.7C1691.87,-102.29 2133.37,-95.21 2269.75,-69 2306.93,-61.85 2347.47,-46.48 2375.31,-34.65"/>
<polygon fill="black" stroke="black" points="2376.81,-37.82 2384.6,-30.64 2374.04,-31.39 2376.81,-37.82"/>
<text text-anchor="middle" x="2339.25" y="-57.8" font-family="Times,serif" font-size="14.00">dep</text>
</g>
<!-- 28 -->
<g id="node29" class="node">
<title>28</title>
<ellipse fill="none" stroke="black" cx="2489.75" cy="-18" rx="27" ry="18"/>
<text text-anchor="middle" x="2489.75" y="-14.3" font-family="Times,serif" font-size="14.00">um</text>
</g>
<!-- 0&#45;&gt;28 -->
<g id="edge28" class="edge">
<title>0&#45;&gt;28</title>
<path fill="none" stroke="black" d="M1577.74,-103.86C1699.99,-103.05 2202.4,-97.99 2356.75,-69 2393.45,-62.11 2433.26,-45.88 2459.67,-33.77"/>
<polygon fill="black" stroke="black" points="2461.18,-36.92 2468.76,-29.52 2458.22,-30.58 2461.18,-36.92"/>
<text text-anchor="middle" x="2423.25" y="-57.8" font-family="Times,serif" font-size="14.00">dep</text>
</g>
<!-- 29 -->
<g id="node30" class="node">
<title>29</title>
<ellipse fill="none" stroke="black" cx="2584.75" cy="-18" rx="50.09" ry="18"/>
<text text-anchor="middle" x="2584.75" y="-14.3" font-family="Times,serif" font-size="14.00">caminho</text>
</g>
<!-- 0&#45;&gt;29 -->
<g id="edge29" class="edge">
<title>0&#45;&gt;29</title>
<path fill="none" stroke="black" d="M1577.91,-104.01C1708.12,-103.88 2269.24,-101.41 2440.75,-69 2477.03,-62.14 2516.55,-47.9 2544.99,-36.37"/>
<polygon fill="black" stroke="black" points="2546.66,-39.47 2554.56,-32.42 2543.99,-33 2546.66,-39.47"/>
<text text-anchor="middle" x="2507.25" y="-57.8" font-family="Times,serif" font-size="14.00">dep</text>
</g>
<!-- 30 -->
<g id="node31" class="node">
<title>30</title>
<ellipse fill="none" stroke="black" cx="2684.75" cy="-18" rx="31.7" ry="18"/>
<text text-anchor="middle" x="2684.75" y="-14.3" font-family="Times,serif" font-size="14.00">para</text>
</g>
<!-- 0&#45;&gt;30 -->
<g id="edge30" class="edge">
<title>0&#45;&gt;30</title>
<path fill="none" stroke="black" d="M1578.11,-103.88C1715.92,-103.16 2334.95,-98.31 2524.75,-69 2578.99,-60.62 2591.86,-53.88 2643.75,-36 2646.02,-35.22 2648.35,-34.37 2650.69,-33.49"/>
<polygon fill="black" stroke="black" points="2652.19,-36.66 2660.22,-29.74 2649.63,-30.15 2652.19,-36.66"/>
<text text-anchor="middle" x="2605.25" y="-57.8" font-family="Times,serif" font-size="14.00">dep</text>
</g>
<!-- 31 -->
<g id="node32" class="node">
<title>31</title>
<ellipse fill="none" stroke="black" cx="2761.75" cy="-18" rx="27" ry="18"/>
<text text-anchor="middle" x="2761.75" y="-14.3" font-family="Times,serif" font-size="14.00">o</text>
</g>
<!-- 0&#45;&gt;31 -->
<g id="edge31" class="edge">
<title>0&#45;&gt;31</title>
<path fill="none" stroke="black" d="M1577.94,-104.13C1723.65,-104.68 2413.12,-105.28 2622.75,-69 2670.11,-60.8 2681.03,-53.63 2725.75,-36 2727.58,-35.28 2729.45,-34.5 2731.33,-33.7"/>
<polygon fill="black" stroke="black" points="2732.93,-36.82 2740.63,-29.54 2730.07,-30.43 2732.93,-36.82"/>
<text text-anchor="middle" x="2694.25" y="-57.8" font-family="Times,serif" font-size="14.00">dep</text>
</g>
<!-- 32 -->
<g id="node33" class="node">
<title>32</title>
<ellipse fill="none" stroke="black" cx="2881.75" cy="-18" rx="75.29" ry="18"/>
<text text-anchor="middle" x="2881.75" y="-14.3" font-family="Times,serif" font-size="14.00">conhecimento</text>
</g>
<!-- 0&#45;&gt;32 -->
<g id="edge32" class="edge">
<title>0&#45;&gt;32</title>
<path fill="none" stroke="black" d="M1578.15,-104.12C1731.36,-104.67 2483.23,-105.43 2711.75,-69 2753.64,-62.32 2799.72,-48.33 2833.33,-36.84"/>
<polygon fill="black" stroke="black" points="2834.6,-40.11 2842.9,-33.52 2832.31,-33.49 2834.6,-40.11"/>
<text text-anchor="middle" x="2792.25" y="-57.8" font-family="Times,serif" font-size="14.00">dep</text>
</g>
<!-- 33 -->
<g id="node34" class="node">
<title>33</title>
<ellipse fill="none" stroke="black" cx="3001.75" cy="-18" rx="27" ry="18"/>
<text text-anchor="middle" x="3001.75" y="-14.3" font-family="Times,serif" font-size="14.00">.</text>
</g>
<!-- 0&#45;&gt;33 -->
<g id="edge33" class="edge">
<title>0&#45;&gt;33</title>
<path fill="none" stroke="black" d="M1577.76,-103.91C1737.44,-103.3 2559.23,-98.73 2809.75,-69 2880.12,-60.65 2898.59,-58.62 2965.75,-36 2967.66,-35.35 2969.61,-34.64 2971.56,-33.87"/>
<polygon fill="black" stroke="black" points="2973.35,-36.91 2981.15,-29.73 2970.58,-30.48 2973.35,-36.91"/>
<text text-anchor="middle" x="2919.25" y="-57.8" font-family="Times,serif" font-size="14.00">dep</text>
</g>
</g>
</svg>
