<?xml version="1.0" encoding="UTF-8" standalone="no"?>
<!DOCTYPE svg PUBLIC "-//W3C//DTD SVG 1.1//EN"
 "http://www.w3.org/Graphics/SVG/1.1/DTD/svg11.dtd">
<!-- Generated by graphviz version 2.42.4 (0)
 -->
<!-- Pages: 1 -->
<svg width="1038pt" height="131pt"
 viewBox="0.00 0.00 1038.00 131.00" xmlns="http://www.w3.org/2000/svg" xmlns:xlink="http://www.w3.org/1999/xlink">
<g id="graph0" class="graph" transform="scale(1 1) rotate(0) translate(4 127)">
<polygon fill="white" stroke="transparent" points="-4,4 -4,-127 1034,-127 1034,4 -4,4"/>
<!-- 0 -->
<g id="node1" class="node">
<title>0</title>
<ellipse fill="none" stroke="black" cx="498" cy="-105" rx="50.89" ry="18"/>
<text text-anchor="middle" x="498" y="-101.3" font-family="Times,serif" font-size="14.00">Portanto</text>
</g>
<!-- 1 -->
<g id="node2" class="node">
<title>1</title>
<ellipse fill="none" stroke="black" cx="27" cy="-18" rx="27" ry="18"/>
<text text-anchor="middle" x="27" y="-14.3" font-family="Times,serif" font-size="14.00">,</text>
</g>
<!-- 0&#45;&gt;1 -->
<g id="edge1" class="edge">
<title>0&#45;&gt;1</title>
<path fill="none" stroke="black" d="M448.48,-101.04C385.78,-96.71 274.63,-87.14 181,-69 127.54,-58.64 114.02,-55.03 63,-36 61.15,-35.31 59.27,-34.57 57.39,-33.78"/>
<polygon fill="black" stroke="black" points="58.63,-30.51 48.07,-29.67 55.8,-36.91 58.63,-30.51"/>
<text text-anchor="middle" x="194.5" y="-57.8" font-family="Times,serif" font-size="14.00">dep</text>
</g>
<!-- 2 -->
<g id="node3" class="node">
<title>2</title>
<ellipse fill="none" stroke="black" cx="104" cy="-18" rx="31.7" ry="18"/>
<text text-anchor="middle" x="104" y="-14.3" font-family="Times,serif" font-size="14.00">você</text>
</g>
<!-- 0&#45;&gt;2 -->
<g id="edge2" class="edge">
<title>0&#45;&gt;2</title>
<path fill="none" stroke="black" d="M450.52,-98.67C381.85,-90.1 251.38,-70.63 145,-36 142.71,-35.26 140.37,-34.44 138.03,-33.58"/>
<polygon fill="black" stroke="black" points="139.07,-30.23 128.48,-29.88 136.54,-36.76 139.07,-30.23"/>
<text text-anchor="middle" x="283.5" y="-57.8" font-family="Times,serif" font-size="14.00">dep</text>
</g>
<!-- 3 -->
<g id="node4" class="node">
<title>3</title>
<ellipse fill="none" stroke="black" cx="199" cy="-18" rx="45.49" ry="18"/>
<text text-anchor="middle" x="199" y="-14.3" font-family="Times,serif" font-size="14.00">deveria</text>
</g>
<!-- 0&#45;&gt;3 -->
<g id="edge3" class="edge">
<title>0&#45;&gt;3</title>
<path fill="none" stroke="black" d="M458.05,-93.81C431.6,-86.99 396.16,-77.69 365,-69 315.01,-55.06 302.64,-51.13 253,-36 249.7,-35 246.3,-33.95 242.87,-32.89"/>
<polygon fill="black" stroke="black" points="243.84,-29.52 233.25,-29.89 241.76,-36.2 243.84,-29.52"/>
<text text-anchor="middle" x="378.5" y="-57.8" font-family="Times,serif" font-size="14.00">dep</text>
</g>
<!-- 4 -->
<g id="node5" class="node">
<title>4</title>
<ellipse fill="none" stroke="black" cx="320" cy="-18" rx="57.69" ry="18"/>
<text text-anchor="middle" x="320" y="-14.3" font-family="Times,serif" font-size="14.00">preocupar</text>
</g>
<!-- 0&#45;&gt;4 -->
<g id="edge4" class="edge">
<title>0&#45;&gt;4</title>
<path fill="none" stroke="black" d="M468.81,-90.25C455.18,-83.81 438.75,-76.03 424,-69 402.55,-58.77 378.66,-47.29 359.19,-37.91"/>
<polygon fill="black" stroke="black" points="360.54,-34.68 350.01,-33.49 357.5,-40.99 360.54,-34.68"/>
<text text-anchor="middle" x="437.5" y="-57.8" font-family="Times,serif" font-size="14.00">dep</text>
</g>
<!-- 5 -->
<g id="node6" class="node">
<title>5</title>
<ellipse fill="none" stroke="black" cx="423" cy="-18" rx="27" ry="18"/>
<text text-anchor="middle" x="423" y="-14.3" font-family="Times,serif" font-size="14.00">se</text>
</g>
<!-- 0&#45;&gt;5 -->
<g id="edge5" class="edge">
<title>0&#45;&gt;5</title>
<path fill="none" stroke="black" d="M483.48,-87.63C478.28,-81.76 472.37,-75.09 467,-69 459.11,-60.07 450.44,-50.22 442.9,-41.65"/>
<polygon fill="black" stroke="black" points="445.31,-39.09 436.08,-33.89 440.05,-43.71 445.31,-39.09"/>
<text text-anchor="middle" x="480.5" y="-57.8" font-family="Times,serif" font-size="14.00">dep</text>
</g>
<!-- 6 -->
<g id="node7" class="node">
<title>6</title>
<ellipse fill="none" stroke="black" cx="498" cy="-18" rx="29.8" ry="18"/>
<text text-anchor="middle" x="498" y="-14.3" font-family="Times,serif" font-size="14.00">com</text>
</g>
<!-- 0&#45;&gt;6 -->
<g id="edge6" class="edge">
<title>0&#45;&gt;6</title>
<path fill="none" stroke="black" d="M498,-86.8C498,-75.16 498,-59.55 498,-46.24"/>
<polygon fill="black" stroke="black" points="501.5,-46.18 498,-36.18 494.5,-46.18 501.5,-46.18"/>
<text text-anchor="middle" x="511.5" y="-57.8" font-family="Times,serif" font-size="14.00">dep</text>
</g>
<!-- 7 -->
<g id="node8" class="node">
<title>7</title>
<ellipse fill="none" stroke="black" cx="573" cy="-18" rx="27" ry="18"/>
<text text-anchor="middle" x="573" y="-14.3" font-family="Times,serif" font-size="14.00">os</text>
</g>
<!-- 0&#45;&gt;7 -->
<g id="edge7" class="edge">
<title>0&#45;&gt;7</title>
<path fill="none" stroke="black" d="M512.52,-87.63C517.72,-81.76 523.63,-75.09 529,-69 536.89,-60.07 545.56,-50.22 553.1,-41.65"/>
<polygon fill="black" stroke="black" points="555.95,-43.71 559.92,-33.89 550.69,-39.09 555.95,-43.71"/>
<text text-anchor="middle" x="555.5" y="-57.8" font-family="Times,serif" font-size="14.00">dep</text>
</g>
<!-- 8 -->
<g id="node9" class="node">
<title>8</title>
<ellipse fill="none" stroke="black" cx="670" cy="-18" rx="51.99" ry="18"/>
<text text-anchor="middle" x="670" y="-14.3" font-family="Times,serif" font-size="14.00">sistemas</text>
</g>
<!-- 0&#45;&gt;8 -->
<g id="edge8" class="edge">
<title>0&#45;&gt;8</title>
<path fill="none" stroke="black" d="M528.05,-90.3C541.81,-83.95 558.3,-76.22 573,-69 593.13,-59.12 615.38,-47.69 633.49,-38.25"/>
<polygon fill="black" stroke="black" points="635.31,-41.25 642.55,-33.51 632.07,-35.04 635.31,-41.25"/>
<text text-anchor="middle" x="616.5" y="-57.8" font-family="Times,serif" font-size="14.00">dep</text>
</g>
<!-- 9 -->
<g id="node10" class="node">
<title>9</title>
<ellipse fill="none" stroke="black" cx="790" cy="-18" rx="50.09" ry="18"/>
<text text-anchor="middle" x="790" y="-14.3" font-family="Times,serif" font-size="14.00">políticos</text>
</g>
<!-- 0&#45;&gt;9 -->
<g id="edge9" class="edge">
<title>0&#45;&gt;9</title>
<path fill="none" stroke="black" d="M538.63,-94.2C565.75,-87.5 602.14,-78.2 634,-69 671.72,-58.11 714.13,-44.42 745.2,-34.13"/>
<polygon fill="black" stroke="black" points="746.48,-37.39 754.86,-30.91 744.27,-30.74 746.48,-37.39"/>
<text text-anchor="middle" x="695.5" y="-57.8" font-family="Times,serif" font-size="14.00">dep</text>
</g>
<!-- 10 -->
<g id="node11" class="node">
<title>10</title>
<ellipse fill="none" stroke="black" cx="908" cy="-18" rx="50.09" ry="18"/>
<text text-anchor="middle" x="908" y="-14.3" font-family="Times,serif" font-size="14.00">vigentes</text>
</g>
<!-- 0&#45;&gt;10 -->
<g id="edge10" class="edge">
<title>0&#45;&gt;10</title>
<path fill="none" stroke="black" d="M544.32,-97.51C587.99,-91.14 655.18,-80.7 713,-69 773.96,-56.66 788.88,-51.95 849,-36 852.83,-34.98 856.79,-33.9 860.77,-32.8"/>
<polygon fill="black" stroke="black" points="861.93,-36.11 870.61,-30.03 860.04,-29.37 861.93,-36.11"/>
<text text-anchor="middle" x="793.5" y="-57.8" font-family="Times,serif" font-size="14.00">dep</text>
</g>
<!-- 11 -->
<g id="node12" class="node">
<title>11</title>
<ellipse fill="none" stroke="black" cx="1003" cy="-18" rx="27" ry="18"/>
<text text-anchor="middle" x="1003" y="-14.3" font-family="Times,serif" font-size="14.00">.</text>
</g>
<!-- 0&#45;&gt;11 -->
<g id="edge11" class="edge">
<title>0&#45;&gt;11</title>
<path fill="none" stroke="black" d="M546.72,-100.03C608.46,-94.66 718.02,-84 811,-69 880.96,-57.72 899.84,-58.62 967,-36 968.92,-35.35 970.86,-34.64 972.81,-33.87"/>
<polygon fill="black" stroke="black" points="974.6,-36.91 982.4,-29.73 971.83,-30.48 974.6,-36.91"/>
<text text-anchor="middle" x="917.5" y="-57.8" font-family="Times,serif" font-size="14.00">dep</text>
</g>
</g>
</svg>
