<?xml version="1.0" encoding="UTF-8" standalone="no"?>
<!DOCTYPE svg PUBLIC "-//W3C//DTD SVG 1.1//EN"
 "http://www.w3.org/Graphics/SVG/1.1/DTD/svg11.dtd">
<!-- Generated by graphviz version 2.42.4 (0)
 -->
<!-- Pages: 1 -->
<svg width="1469pt" height="131pt"
 viewBox="0.00 0.00 1469.50 131.00" xmlns="http://www.w3.org/2000/svg" xmlns:xlink="http://www.w3.org/1999/xlink">
<g id="graph0" class="graph" transform="scale(1 1) rotate(0) translate(4 127)">
<polygon fill="white" stroke="transparent" points="-4,4 -4,-127 1465.5,-127 1465.5,4 -4,4"/>
<!-- 0 -->
<g id="node1" class="node">
<title>0</title>
<ellipse fill="none" stroke="black" cx="758.5" cy="-105" rx="27.1" ry="18"/>
<text text-anchor="middle" x="758.5" y="-101.3" font-family="Times,serif" font-size="14.00">Um</text>
</g>
<!-- 1 -->
<g id="node2" class="node">
<title>1</title>
<ellipse fill="none" stroke="black" cx="32.5" cy="-18" rx="32.49" ry="18"/>
<text text-anchor="middle" x="32.5" y="-14.3" font-family="Times,serif" font-size="14.00">falso</text>
</g>
<!-- 0&#45;&gt;1 -->
<g id="edge1" class="edge">
<title>0&#45;&gt;1</title>
<path fill="none" stroke="black" d="M731.18,-103.95C650.75,-103.45 407.99,-99.35 209.5,-69 148.44,-59.67 133.28,-54.97 74.5,-36 72.07,-35.22 69.59,-34.36 67.1,-33.46"/>
<polygon fill="black" stroke="black" points="68.19,-30.13 57.6,-29.85 65.7,-36.67 68.19,-30.13"/>
<text text-anchor="middle" x="223" y="-57.8" font-family="Times,serif" font-size="14.00">dep</text>
</g>
<!-- 2 -->
<g id="node3" class="node">
<title>2</title>
<ellipse fill="none" stroke="black" cx="127.5" cy="-18" rx="44.39" ry="18"/>
<text text-anchor="middle" x="127.5" y="-14.3" font-family="Times,serif" font-size="14.00">médico</text>
</g>
<!-- 0&#45;&gt;2 -->
<g id="edge2" class="edge">
<title>0&#45;&gt;2</title>
<path fill="none" stroke="black" d="M731.1,-103.66C660,-102.39 463.98,-96.46 303.5,-69 256.7,-60.99 204.56,-45.3 169.27,-33.61"/>
<polygon fill="black" stroke="black" points="170.37,-30.29 159.78,-30.44 168.15,-36.93 170.37,-30.29"/>
<text text-anchor="middle" x="317" y="-57.8" font-family="Times,serif" font-size="14.00">dep</text>
</g>
<!-- 3 -->
<g id="node4" class="node">
<title>3</title>
<ellipse fill="none" stroke="black" cx="237.5" cy="-18" rx="48.19" ry="18"/>
<text text-anchor="middle" x="237.5" y="-14.3" font-family="Times,serif" font-size="14.00">passeou</text>
</g>
<!-- 0&#45;&gt;3 -->
<g id="edge3" class="edge">
<title>0&#45;&gt;3</title>
<path fill="none" stroke="black" d="M731.26,-103.52C669.58,-101.97 514.79,-95.53 388.5,-69 350.5,-61.02 308.69,-46.72 278.72,-35.45"/>
<polygon fill="black" stroke="black" points="279.62,-32.05 269.03,-31.76 277.13,-38.59 279.62,-32.05"/>
<text text-anchor="middle" x="402" y="-57.8" font-family="Times,serif" font-size="14.00">dep</text>
</g>
<!-- 4 -->
<g id="node5" class="node">
<title>4</title>
<ellipse fill="none" stroke="black" cx="330.5" cy="-18" rx="27" ry="18"/>
<text text-anchor="middle" x="330.5" y="-14.3" font-family="Times,serif" font-size="14.00">se</text>
</g>
<!-- 0&#45;&gt;4 -->
<g id="edge4" class="edge">
<title>0&#45;&gt;4</title>
<path fill="none" stroke="black" d="M731.43,-102.01C681.46,-98.02 571.49,-87.78 480.5,-69 428.84,-58.34 415.84,-54.65 366.5,-36 364.65,-35.3 362.78,-34.55 360.89,-33.76"/>
<polygon fill="black" stroke="black" points="362.14,-30.49 351.57,-29.64 359.3,-36.89 362.14,-30.49"/>
<text text-anchor="middle" x="494" y="-57.8" font-family="Times,serif" font-size="14.00">dep</text>
</g>
<!-- 5 -->
<g id="node6" class="node">
<title>5</title>
<ellipse fill="none" stroke="black" cx="422.5" cy="-18" rx="47.39" ry="18"/>
<text text-anchor="middle" x="422.5" y="-14.3" font-family="Times,serif" font-size="14.00">durante</text>
</g>
<!-- 0&#45;&gt;5 -->
<g id="edge5" class="edge">
<title>0&#45;&gt;5</title>
<path fill="none" stroke="black" d="M731.54,-101C692.33,-96.26 617.45,-85.82 555.5,-69 523.31,-60.26 488.01,-46.8 461.88,-36.05"/>
<polygon fill="black" stroke="black" points="462.91,-32.69 452.34,-32.08 460.22,-39.15 462.91,-32.69"/>
<text text-anchor="middle" x="569" y="-57.8" font-family="Times,serif" font-size="14.00">dep</text>
</g>
<!-- 6 -->
<g id="node7" class="node">
<title>6</title>
<ellipse fill="none" stroke="black" cx="514.5" cy="-18" rx="27" ry="18"/>
<text text-anchor="middle" x="514.5" y="-14.3" font-family="Times,serif" font-size="14.00">por</text>
</g>
<!-- 0&#45;&gt;6 -->
<g id="edge6" class="edge">
<title>0&#45;&gt;6</title>
<path fill="none" stroke="black" d="M732.62,-98.99C704.56,-93.2 658.65,-82.69 620.5,-69 588.12,-57.39 581.6,-50.68 550.5,-36 548.72,-35.16 546.88,-34.3 545.04,-33.42"/>
<polygon fill="black" stroke="black" points="546.35,-30.17 535.82,-29.07 543.37,-36.5 546.35,-30.17"/>
<text text-anchor="middle" x="634" y="-57.8" font-family="Times,serif" font-size="14.00">dep</text>
</g>
<!-- 7 -->
<g id="node8" class="node">
<title>7</title>
<ellipse fill="none" stroke="black" cx="586.5" cy="-18" rx="27" ry="18"/>
<text text-anchor="middle" x="586.5" y="-14.3" font-family="Times,serif" font-size="14.00">o</text>
</g>
<!-- 0&#45;&gt;7 -->
<g id="edge7" class="edge">
<title>0&#45;&gt;7</title>
<path fill="none" stroke="black" d="M736.15,-94.64C720.22,-87.83 698.36,-78.23 679.5,-69 657.76,-58.36 633.72,-45.4 615.52,-35.34"/>
<polygon fill="black" stroke="black" points="617.03,-32.17 606.59,-30.37 613.63,-38.29 617.03,-32.17"/>
<text text-anchor="middle" x="693" y="-57.8" font-family="Times,serif" font-size="14.00">dep</text>
</g>
<!-- 8 -->
<g id="node9" class="node">
<title>8</title>
<ellipse fill="none" stroke="black" cx="672.5" cy="-18" rx="40.89" ry="18"/>
<text text-anchor="middle" x="672.5" y="-14.3" font-family="Times,serif" font-size="14.00">menos</text>
</g>
<!-- 0&#45;&gt;8 -->
<g id="edge8" class="edge">
<title>0&#45;&gt;8</title>
<path fill="none" stroke="black" d="M743.91,-89.58C730.65,-76.47 710.86,-56.92 695.48,-41.71"/>
<polygon fill="black" stroke="black" points="697.9,-39.18 688.33,-34.64 692.98,-44.16 697.9,-39.18"/>
<text text-anchor="middle" x="735" y="-57.8" font-family="Times,serif" font-size="14.00">dep</text>
</g>
<!-- 9 -->
<g id="node10" class="node">
<title>9</title>
<ellipse fill="none" stroke="black" cx="758.5" cy="-18" rx="27" ry="18"/>
<text text-anchor="middle" x="758.5" y="-14.3" font-family="Times,serif" font-size="14.00">dez</text>
</g>
<!-- 0&#45;&gt;9 -->
<g id="edge9" class="edge">
<title>0&#45;&gt;9</title>
<path fill="none" stroke="black" d="M758.5,-86.8C758.5,-75.16 758.5,-59.55 758.5,-46.24"/>
<polygon fill="black" stroke="black" points="762,-46.18 758.5,-36.18 755,-46.18 762,-46.18"/>
<text text-anchor="middle" x="772" y="-57.8" font-family="Times,serif" font-size="14.00">dep</text>
</g>
<!-- 10 -->
<g id="node11" class="node">
<title>10</title>
<ellipse fill="none" stroke="black" cx="835.5" cy="-18" rx="32.49" ry="18"/>
<text text-anchor="middle" x="835.5" y="-14.3" font-family="Times,serif" font-size="14.00">anos</text>
</g>
<!-- 0&#45;&gt;10 -->
<g id="edge10" class="edge">
<title>0&#45;&gt;10</title>
<path fill="none" stroke="black" d="M771.91,-89.19C783.72,-76.15 801.12,-56.95 814.73,-41.92"/>
<polygon fill="black" stroke="black" points="817.34,-44.26 821.46,-34.5 812.15,-39.56 817.34,-44.26"/>
<text text-anchor="middle" x="816" y="-57.8" font-family="Times,serif" font-size="14.00">dep</text>
</g>
<!-- 11 -->
<g id="node12" class="node">
<title>11</title>
<ellipse fill="none" stroke="black" cx="912.5" cy="-18" rx="27" ry="18"/>
<text text-anchor="middle" x="912.5" y="-14.3" font-family="Times,serif" font-size="14.00">por</text>
</g>
<!-- 0&#45;&gt;11 -->
<g id="edge11" class="edge">
<title>0&#45;&gt;11</title>
<path fill="none" stroke="black" d="M780.85,-94.47C795.96,-87.8 816.23,-78.45 833.5,-69 851.47,-59.17 870.93,-46.88 886.03,-36.94"/>
<polygon fill="black" stroke="black" points="887.99,-39.85 894.38,-31.4 884.11,-34.01 887.99,-39.85"/>
<text text-anchor="middle" x="872" y="-57.8" font-family="Times,serif" font-size="14.00">dep</text>
</g>
<!-- 12 -->
<g id="node13" class="node">
<title>12</title>
<ellipse fill="none" stroke="black" cx="984.5" cy="-18" rx="27" ry="18"/>
<text text-anchor="middle" x="984.5" y="-14.3" font-family="Times,serif" font-size="14.00">o</text>
</g>
<!-- 0&#45;&gt;12 -->
<g id="edge12" class="edge">
<title>0&#45;&gt;12</title>
<path fill="none" stroke="black" d="M784.65,-98.82C811.49,-93.09 854.2,-82.8 889.5,-69 912.81,-59.88 937.81,-46.57 956.31,-35.97"/>
<polygon fill="black" stroke="black" points="958.2,-38.92 965.09,-30.87 954.69,-32.87 958.2,-38.92"/>
<text text-anchor="middle" x="936" y="-57.8" font-family="Times,serif" font-size="14.00">dep</text>
</g>
<!-- 13 -->
<g id="node14" class="node">
<title>13</title>
<ellipse fill="none" stroke="black" cx="1079.5" cy="-18" rx="50.09" ry="18"/>
<text text-anchor="middle" x="1079.5" y="-14.3" font-family="Times,serif" font-size="14.00">Hospital</text>
</g>
<!-- 0&#45;&gt;13 -->
<g id="edge13" class="edge">
<title>0&#45;&gt;13</title>
<path fill="none" stroke="black" d="M785.38,-100.91C823.34,-96.15 894.62,-85.78 953.5,-69 983.47,-60.46 1016.15,-47.37 1040.71,-36.73"/>
<polygon fill="black" stroke="black" points="1042.29,-39.86 1050.04,-32.64 1039.48,-33.45 1042.29,-39.86"/>
<text text-anchor="middle" x="1010" y="-57.8" font-family="Times,serif" font-size="14.00">dep</text>
</g>
<!-- 14 -->
<g id="node15" class="node">
<title>14</title>
<ellipse fill="none" stroke="black" cx="1174.5" cy="-18" rx="27" ry="18"/>
<text text-anchor="middle" x="1174.5" y="-14.3" font-family="Times,serif" font-size="14.00">de</text>
</g>
<!-- 0&#45;&gt;14 -->
<g id="edge14" class="edge">
<title>0&#45;&gt;14</title>
<path fill="none" stroke="black" d="M785.46,-101.93C834.19,-97.86 939.97,-87.58 1027.5,-69 1077.84,-58.31 1090.42,-54.37 1138.5,-36 1140.34,-35.3 1142.21,-34.54 1144.1,-33.75"/>
<polygon fill="black" stroke="black" points="1145.69,-36.87 1153.41,-29.61 1142.85,-30.47 1145.69,-36.87"/>
<text text-anchor="middle" x="1102" y="-57.8" font-family="Times,serif" font-size="14.00">dep</text>
</g>
<!-- 15 -->
<g id="node16" class="node">
<title>15</title>
<ellipse fill="none" stroke="black" cx="1257.5" cy="-18" rx="37.89" ry="18"/>
<text text-anchor="middle" x="1257.5" y="-14.3" font-family="Times,serif" font-size="14.00">Santa</text>
</g>
<!-- 0&#45;&gt;15 -->
<g id="edge15" class="edge">
<title>0&#45;&gt;15</title>
<path fill="none" stroke="black" d="M786.04,-103.67C846.93,-102.44 997.27,-96.61 1119.5,-69 1155.03,-60.98 1193.91,-46.32 1221.32,-34.95"/>
<polygon fill="black" stroke="black" points="1223.01,-38.03 1230.87,-30.92 1220.29,-31.58 1223.01,-38.03"/>
<text text-anchor="middle" x="1184" y="-57.8" font-family="Times,serif" font-size="14.00">dep</text>
</g>
<!-- 16 -->
<g id="node17" class="node">
<title>16</title>
<ellipse fill="none" stroke="black" cx="1351.5" cy="-18" rx="38.19" ry="18"/>
<text text-anchor="middle" x="1351.5" y="-14.3" font-family="Times,serif" font-size="14.00">Maria</text>
</g>
<!-- 0&#45;&gt;16 -->
<g id="edge16" class="edge">
<title>0&#45;&gt;16</title>
<path fill="none" stroke="black" d="M785.76,-104.02C855.6,-103.62 1046.32,-99.56 1201.5,-69 1240.94,-61.23 1284.34,-45.99 1314.27,-34.37"/>
<polygon fill="black" stroke="black" points="1315.85,-37.5 1323.87,-30.58 1313.29,-30.99 1315.85,-37.5"/>
<text text-anchor="middle" x="1270" y="-57.8" font-family="Times,serif" font-size="14.00">dep</text>
</g>
<!-- 17 -->
<g id="node18" class="node">
<title>17</title>
<ellipse fill="none" stroke="black" cx="1434.5" cy="-18" rx="27" ry="18"/>
<text text-anchor="middle" x="1434.5" y="-14.3" font-family="Times,serif" font-size="14.00">.</text>
</g>
<!-- 0&#45;&gt;17 -->
<g id="edge17" class="edge">
<title>0&#45;&gt;17</title>
<path fill="none" stroke="black" d="M786.01,-104.33C864.83,-104.81 1097.93,-103.01 1287.5,-69 1338.16,-59.91 1350.42,-54.37 1398.5,-36 1400.34,-35.3 1402.21,-34.54 1404.1,-33.75"/>
<polygon fill="black" stroke="black" points="1405.69,-36.87 1413.41,-29.61 1402.85,-30.47 1405.69,-36.87"/>
<text text-anchor="middle" x="1364" y="-57.8" font-family="Times,serif" font-size="14.00">dep</text>
</g>
</g>
</svg>
