<?xml version="1.0" encoding="UTF-8" standalone="no"?>
<!DOCTYPE svg PUBLIC "-//W3C//DTD SVG 1.1//EN"
 "http://www.w3.org/Graphics/SVG/1.1/DTD/svg11.dtd">
<!-- Generated by graphviz version 2.42.4 (0)
 -->
<!-- Pages: 1 -->
<svg width="3522pt" height="131pt"
 viewBox="0.00 0.00 3522.00 131.00" xmlns="http://www.w3.org/2000/svg" xmlns:xlink="http://www.w3.org/1999/xlink">
<g id="graph0" class="graph" transform="scale(1 1) rotate(0) translate(4 127)">
<polygon fill="white" stroke="transparent" points="-4,4 -4,-127 3518,-127 3518,4 -4,4"/>
<!-- 0 -->
<g id="node1" class="node">
<title>0</title>
<ellipse fill="none" stroke="black" cx="1669" cy="-105" rx="61.99" ry="18"/>
<text text-anchor="middle" x="1669" y="-101.3" font-family="Times,serif" font-size="14.00">Entretanto</text>
</g>
<!-- 1 -->
<g id="node2" class="node">
<title>1</title>
<ellipse fill="none" stroke="black" cx="27" cy="-18" rx="27" ry="18"/>
<text text-anchor="middle" x="27" y="-14.3" font-family="Times,serif" font-size="14.00">,</text>
</g>
<!-- 0&#45;&gt;1 -->
<g id="edge1" class="edge">
<title>0&#45;&gt;1</title>
<path fill="none" stroke="black" d="M1607.05,-104.38C1363.65,-105.61 472.66,-107.31 193,-69 133.94,-60.91 119.1,-56.15 63,-36 61.15,-35.33 59.26,-34.61 57.37,-33.84"/>
<polygon fill="black" stroke="black" points="58.6,-30.55 48.03,-29.76 55.8,-36.97 58.6,-30.55"/>
<text text-anchor="middle" x="206.5" y="-57.8" font-family="Times,serif" font-size="14.00">dep</text>
</g>
<!-- 2 -->
<g id="node3" class="node">
<title>2</title>
<ellipse fill="none" stroke="black" cx="110" cy="-18" rx="38.19" ry="18"/>
<text text-anchor="middle" x="110" y="-14.3" font-family="Times,serif" font-size="14.00">Couto</text>
</g>
<!-- 0&#45;&gt;2 -->
<g id="edge2" class="edge">
<title>0&#45;&gt;2</title>
<path fill="none" stroke="black" d="M1607.03,-103.92C1376.39,-103.37 567.83,-99.27 312,-69 242.06,-60.72 224.72,-55.36 157,-36 154.09,-35.17 151.1,-34.25 148.11,-33.28"/>
<polygon fill="black" stroke="black" points="149.22,-29.96 138.63,-30.06 146.97,-36.59 149.22,-29.96"/>
<text text-anchor="middle" x="325.5" y="-57.8" font-family="Times,serif" font-size="14.00">dep</text>
</g>
<!-- 3 -->
<g id="node4" class="node">
<title>3</title>
<ellipse fill="none" stroke="black" cx="215" cy="-18" rx="48.99" ry="18"/>
<text text-anchor="middle" x="215" y="-14.3" font-family="Times,serif" font-size="14.00">Ferreira</text>
</g>
<!-- 0&#45;&gt;3 -->
<g id="edge3" class="edge">
<title>0&#45;&gt;3</title>
<path fill="none" stroke="black" d="M1607.28,-103.79C1389.29,-102.83 656.06,-97.49 423,-69 366.17,-62.05 302.37,-45.35 260.59,-33.15"/>
<polygon fill="black" stroke="black" points="261.57,-29.79 250.99,-30.31 259.58,-36.5 261.57,-29.79"/>
<text text-anchor="middle" x="436.5" y="-57.8" font-family="Times,serif" font-size="14.00">dep</text>
</g>
<!-- 4 -->
<g id="node5" class="node">
<title>4</title>
<ellipse fill="none" stroke="black" cx="349" cy="-18" rx="67.69" ry="18"/>
<text text-anchor="middle" x="349" y="-14.3" font-family="Times,serif" font-size="14.00">apresentava</text>
</g>
<!-- 0&#45;&gt;4 -->
<g id="edge4" class="edge">
<title>0&#45;&gt;4</title>
<path fill="none" stroke="black" d="M1607.05,-104.18C1399.85,-104.47 732.13,-102.68 520,-69 477.32,-62.22 430.3,-47.95 396.38,-36.38"/>
<polygon fill="black" stroke="black" points="397.33,-33.01 386.74,-33.05 395.04,-39.63 397.33,-33.01"/>
<text text-anchor="middle" x="533.5" y="-57.8" font-family="Times,serif" font-size="14.00">dep</text>
</g>
<!-- 5 -->
<g id="node6" class="node">
<title>5</title>
<ellipse fill="none" stroke="black" cx="475" cy="-18" rx="40.09" ry="18"/>
<text text-anchor="middle" x="475" y="-14.3" font-family="Times,serif" font-size="14.00">ontem</text>
</g>
<!-- 0&#45;&gt;5 -->
<g id="edge5" class="edge">
<title>0&#45;&gt;5</title>
<path fill="none" stroke="black" d="M1607.53,-103.23C1394.92,-100.4 698.37,-89.62 600,-69 568.29,-62.35 534.28,-48.25 509.75,-36.71"/>
<polygon fill="black" stroke="black" points="511.04,-33.45 500.51,-32.27 508.01,-39.76 511.04,-33.45"/>
<text text-anchor="middle" x="613.5" y="-57.8" font-family="Times,serif" font-size="14.00">dep</text>
</g>
<!-- 6 -->
<g id="node7" class="node">
<title>6</title>
<ellipse fill="none" stroke="black" cx="560" cy="-18" rx="27" ry="18"/>
<text text-anchor="middle" x="560" y="-14.3" font-family="Times,serif" font-size="14.00">um</text>
</g>
<!-- 0&#45;&gt;6 -->
<g id="edge6" class="edge">
<title>0&#45;&gt;6</title>
<path fill="none" stroke="black" d="M1607.43,-103.08C1404.96,-99.89 767.52,-88.39 677,-69 645.49,-62.25 611.89,-46.95 588.82,-35.04"/>
<polygon fill="black" stroke="black" points="590.4,-31.92 579.92,-30.35 587.13,-38.11 590.4,-31.92"/>
<text text-anchor="middle" x="690.5" y="-57.8" font-family="Times,serif" font-size="14.00">dep</text>
</g>
<!-- 7 -->
<g id="node8" class="node">
<title>7</title>
<ellipse fill="none" stroke="black" cx="634" cy="-18" rx="28.7" ry="18"/>
<text text-anchor="middle" x="634" y="-14.3" font-family="Times,serif" font-size="14.00">alto</text>
</g>
<!-- 0&#45;&gt;7 -->
<g id="edge7" class="edge">
<title>0&#45;&gt;7</title>
<path fill="none" stroke="black" d="M1607.2,-104.32C1429.3,-104.83 918.3,-103.18 755,-69 722.74,-62.25 688.2,-47.1 664.31,-35.24"/>
<polygon fill="black" stroke="black" points="665.58,-31.96 655.08,-30.55 662.42,-38.2 665.58,-31.96"/>
<text text-anchor="middle" x="768.5" y="-57.8" font-family="Times,serif" font-size="14.00">dep</text>
</g>
<!-- 8 -->
<g id="node9" class="node">
<title>8</title>
<ellipse fill="none" stroke="black" cx="710" cy="-18" rx="29.8" ry="18"/>
<text text-anchor="middle" x="710" y="-14.3" font-family="Times,serif" font-size="14.00">teor</text>
</g>
<!-- 0&#45;&gt;8 -->
<g id="edge8" class="edge">
<title>0&#45;&gt;8</title>
<path fill="none" stroke="black" d="M1607.3,-103.99C1440.36,-103.56 982.5,-99.54 835,-69 801.66,-62.1 765.79,-46.86 741.07,-35.01"/>
<polygon fill="black" stroke="black" points="742.36,-31.75 731.84,-30.5 739.28,-38.04 742.36,-31.75"/>
<text text-anchor="middle" x="848.5" y="-57.8" font-family="Times,serif" font-size="14.00">dep</text>
</g>
<!-- 9 -->
<g id="node10" class="node">
<title>9</title>
<ellipse fill="none" stroke="black" cx="785" cy="-18" rx="27" ry="18"/>
<text text-anchor="middle" x="785" y="-14.3" font-family="Times,serif" font-size="14.00">de</text>
</g>
<!-- 0&#45;&gt;9 -->
<g id="edge9" class="edge">
<title>0&#45;&gt;9</title>
<path fill="none" stroke="black" d="M1607.54,-103.22C1453.47,-100.92 1053.75,-92.78 923,-69 876.12,-60.47 865.3,-53.54 821,-36 819.17,-35.27 817.3,-34.5 815.42,-33.7"/>
<polygon fill="black" stroke="black" points="816.68,-30.42 806.12,-29.53 813.81,-36.81 816.68,-30.42"/>
<text text-anchor="middle" x="936.5" y="-57.8" font-family="Times,serif" font-size="14.00">dep</text>
</g>
<!-- 10 -->
<g id="node11" class="node">
<title>10</title>
<ellipse fill="none" stroke="black" cx="865" cy="-18" rx="35.19" ry="18"/>
<text text-anchor="middle" x="865" y="-14.3" font-family="Times,serif" font-size="14.00">ácido</text>
</g>
<!-- 0&#45;&gt;10 -->
<g id="edge10" class="edge">
<title>0&#45;&gt;10</title>
<path fill="none" stroke="black" d="M1607.48,-103C1465.51,-100.32 1118.41,-91.61 1004,-69 967.2,-61.73 927.08,-46.45 899.45,-34.68"/>
<polygon fill="black" stroke="black" points="900.78,-31.44 890.22,-30.68 898,-37.87 900.78,-31.44"/>
<text text-anchor="middle" x="1017.5" y="-57.8" font-family="Times,serif" font-size="14.00">dep</text>
</g>
<!-- 11 -->
<g id="node12" class="node">
<title>11</title>
<ellipse fill="none" stroke="black" cx="953" cy="-18" rx="34.39" ry="18"/>
<text text-anchor="middle" x="953" y="-14.3" font-family="Times,serif" font-size="14.00">úrico</text>
</g>
<!-- 0&#45;&gt;11 -->
<g id="edge11" class="edge">
<title>0&#45;&gt;11</title>
<path fill="none" stroke="black" d="M1607.47,-102.71C1477.91,-99.62 1180.79,-90.36 1082,-69 1048.28,-61.71 1011.78,-46.86 986.24,-35.22"/>
<polygon fill="black" stroke="black" points="987.57,-31.98 977.02,-30.95 984.62,-38.33 987.57,-31.98"/>
<text text-anchor="middle" x="1095.5" y="-57.8" font-family="Times,serif" font-size="14.00">dep</text>
</g>
<!-- 12 -->
<g id="node13" class="node">
<title>12</title>
<ellipse fill="none" stroke="black" cx="1032" cy="-18" rx="27" ry="18"/>
<text text-anchor="middle" x="1032" y="-14.3" font-family="Times,serif" font-size="14.00">em</text>
</g>
<!-- 0&#45;&gt;12 -->
<g id="edge12" class="edge">
<title>0&#45;&gt;12</title>
<path fill="none" stroke="black" d="M1607.03,-104.81C1511.25,-104.92 1321.92,-100.59 1165,-69 1128.39,-61.63 1088.56,-45.49 1062.13,-33.53"/>
<polygon fill="black" stroke="black" points="1063.57,-30.34 1053.03,-29.34 1060.64,-36.7 1063.57,-30.34"/>
<text text-anchor="middle" x="1178.5" y="-57.8" font-family="Times,serif" font-size="14.00">dep</text>
</g>
<!-- 13 -->
<g id="node14" class="node">
<title>13</title>
<ellipse fill="none" stroke="black" cx="1104" cy="-18" rx="27" ry="18"/>
<text text-anchor="middle" x="1104" y="-14.3" font-family="Times,serif" font-size="14.00">o</text>
</g>
<!-- 0&#45;&gt;13 -->
<g id="edge13" class="edge">
<title>0&#45;&gt;13</title>
<path fill="none" stroke="black" d="M1608.01,-101.98C1528.54,-98.6 1385.51,-89.97 1265,-69 1208.39,-59.15 1193.98,-55.68 1140,-36 1138.15,-35.33 1136.26,-34.59 1134.38,-33.82"/>
<polygon fill="black" stroke="black" points="1135.61,-30.54 1125.05,-29.73 1132.8,-36.95 1135.61,-30.54"/>
<text text-anchor="middle" x="1278.5" y="-57.8" font-family="Times,serif" font-size="14.00">dep</text>
</g>
<!-- 14 -->
<g id="node15" class="node">
<title>14</title>
<ellipse fill="none" stroke="black" cx="1193" cy="-18" rx="44.39" ry="18"/>
<text text-anchor="middle" x="1193" y="-14.3" font-family="Times,serif" font-size="14.00">sangue</text>
</g>
<!-- 0&#45;&gt;14 -->
<g id="edge14" class="edge">
<title>0&#45;&gt;14</title>
<path fill="none" stroke="black" d="M1608.77,-100.72C1544.79,-96.45 1440.96,-87.26 1353,-69 1311.68,-60.42 1265.84,-45.52 1233.85,-34.21"/>
<polygon fill="black" stroke="black" points="1234.99,-30.9 1224.39,-30.83 1232.63,-37.49 1234.99,-30.9"/>
<text text-anchor="middle" x="1366.5" y="-57.8" font-family="Times,serif" font-size="14.00">dep</text>
</g>
<!-- 15 -->
<g id="node16" class="node">
<title>15</title>
<ellipse fill="none" stroke="black" cx="1282" cy="-18" rx="27" ry="18"/>
<text text-anchor="middle" x="1282" y="-14.3" font-family="Times,serif" font-size="14.00">e</text>
</g>
<!-- 0&#45;&gt;15 -->
<g id="edge15" class="edge">
<title>0&#45;&gt;15</title>
<path fill="none" stroke="black" d="M1611.7,-98.21C1541.05,-89.88 1418.05,-71.44 1318,-36 1316.09,-35.32 1314.15,-34.58 1312.21,-33.8"/>
<polygon fill="black" stroke="black" points="1313.2,-30.41 1302.64,-29.62 1310.4,-36.83 1313.2,-30.41"/>
<text text-anchor="middle" x="1445.5" y="-57.8" font-family="Times,serif" font-size="14.00">dep</text>
</g>
<!-- 16 -->
<g id="node17" class="node">
<title>16</title>
<ellipse fill="none" stroke="black" cx="1389" cy="-18" rx="62.29" ry="18"/>
<text text-anchor="middle" x="1389" y="-14.3" font-family="Times,serif" font-size="14.00">encontrava</text>
</g>
<!-- 0&#45;&gt;16 -->
<g id="edge16" class="edge">
<title>0&#45;&gt;16</title>
<path fill="none" stroke="black" d="M1620.63,-93.69C1592.51,-87.34 1556.51,-78.59 1525,-69 1493.92,-59.54 1459.59,-46.9 1433.19,-36.7"/>
<polygon fill="black" stroke="black" points="1434.44,-33.43 1423.85,-33.06 1431.9,-39.95 1434.44,-33.43"/>
<text text-anchor="middle" x="1538.5" y="-57.8" font-family="Times,serif" font-size="14.00">dep</text>
</g>
<!-- 17 -->
<g id="node18" class="node">
<title>17</title>
<ellipse fill="none" stroke="black" cx="1496" cy="-18" rx="27" ry="18"/>
<text text-anchor="middle" x="1496" y="-14.3" font-family="Times,serif" font-size="14.00">se</text>
</g>
<!-- 0&#45;&gt;17 -->
<g id="edge17" class="edge">
<title>0&#45;&gt;17</title>
<path fill="none" stroke="black" d="M1632.08,-90.51C1616.42,-84.43 1598.09,-76.86 1582,-69 1561.97,-59.21 1540.27,-46.58 1523.68,-36.46"/>
<polygon fill="black" stroke="black" points="1525.38,-33.4 1515.03,-31.13 1521.71,-39.36 1525.38,-33.4"/>
<text text-anchor="middle" x="1595.5" y="-57.8" font-family="Times,serif" font-size="14.00">dep</text>
</g>
<!-- 18 -->
<g id="node19" class="node">
<title>18</title>
<ellipse fill="none" stroke="black" cx="1568" cy="-18" rx="27" ry="18"/>
<text text-anchor="middle" x="1568" y="-14.3" font-family="Times,serif" font-size="14.00">em</text>
</g>
<!-- 0&#45;&gt;18 -->
<g id="edge18" class="edge">
<title>0&#45;&gt;18</title>
<path fill="none" stroke="black" d="M1649.53,-87.61C1633.17,-73.85 1609.73,-54.12 1592.17,-39.34"/>
<polygon fill="black" stroke="black" points="1593.99,-36.3 1584.09,-32.54 1589.48,-41.66 1593.99,-36.3"/>
<text text-anchor="middle" x="1638.5" y="-57.8" font-family="Times,serif" font-size="14.00">dep</text>
</g>
<!-- 19 -->
<g id="node20" class="node">
<title>19</title>
<ellipse fill="none" stroke="black" cx="1669" cy="-18" rx="55.79" ry="18"/>
<text text-anchor="middle" x="1669" y="-14.3" font-family="Times,serif" font-size="14.00">acelerado</text>
</g>
<!-- 0&#45;&gt;19 -->
<g id="edge19" class="edge">
<title>0&#45;&gt;19</title>
<path fill="none" stroke="black" d="M1669,-86.8C1669,-75.16 1669,-59.55 1669,-46.24"/>
<polygon fill="black" stroke="black" points="1672.5,-46.18 1669,-36.18 1665.5,-46.18 1672.5,-46.18"/>
<text text-anchor="middle" x="1682.5" y="-57.8" font-family="Times,serif" font-size="14.00">dep</text>
</g>
<!-- 20 -->
<g id="node21" class="node">
<title>20</title>
<ellipse fill="none" stroke="black" cx="1826" cy="-18" rx="83.39" ry="18"/>
<text text-anchor="middle" x="1826" y="-14.3" font-family="Times,serif" font-size="14.00">emagrecimento</text>
</g>
<!-- 0&#45;&gt;20 -->
<g id="edge20" class="edge">
<title>0&#45;&gt;20</title>
<path fill="none" stroke="black" d="M1697.07,-88.8C1722.27,-75.16 1759.49,-55.01 1787.47,-39.86"/>
<polygon fill="black" stroke="black" points="1789.45,-42.77 1796.58,-34.93 1786.12,-36.61 1789.45,-42.77"/>
<text text-anchor="middle" x="1770.5" y="-57.8" font-family="Times,serif" font-size="14.00">dep</text>
</g>
<!-- 21 -->
<g id="node22" class="node">
<title>21</title>
<ellipse fill="none" stroke="black" cx="1954" cy="-18" rx="27" ry="18"/>
<text text-anchor="middle" x="1954" y="-14.3" font-family="Times,serif" font-size="14.00">,</text>
</g>
<!-- 0&#45;&gt;21 -->
<g id="edge21" class="edge">
<title>0&#45;&gt;21</title>
<path fill="none" stroke="black" d="M1717.05,-93.51C1767.77,-81.83 1849.69,-61.24 1918,-36 1919.85,-35.32 1921.73,-34.58 1923.62,-33.8"/>
<polygon fill="black" stroke="black" points="1925.2,-36.93 1932.94,-29.69 1922.38,-30.52 1925.2,-36.93"/>
<text text-anchor="middle" x="1878.5" y="-57.8" font-family="Times,serif" font-size="14.00">dep</text>
</g>
<!-- 22 -->
<g id="node23" class="node">
<title>22</title>
<ellipse fill="none" stroke="black" cx="2049" cy="-18" rx="50.09" ry="18"/>
<text text-anchor="middle" x="2049" y="-14.3" font-family="Times,serif" font-size="14.00">segundo</text>
</g>
<!-- 0&#45;&gt;22 -->
<g id="edge22" class="edge">
<title>0&#45;&gt;22</title>
<path fill="none" stroke="black" d="M1725.94,-97.83C1772.15,-92.2 1838.79,-82.66 1896,-69 1933.89,-59.95 1975.89,-45.93 2006.28,-35.03"/>
<polygon fill="black" stroke="black" points="2007.51,-38.31 2015.72,-31.62 2005.13,-31.73 2007.51,-38.31"/>
<text text-anchor="middle" x="1961.5" y="-57.8" font-family="Times,serif" font-size="14.00">dep</text>
</g>
<!-- 23 -->
<g id="node24" class="node">
<title>23</title>
<ellipse fill="none" stroke="black" cx="2170" cy="-18" rx="52.79" ry="18"/>
<text text-anchor="middle" x="2170" y="-14.3" font-family="Times,serif" font-size="14.00">informou</text>
</g>
<!-- 0&#45;&gt;23 -->
<g id="edge23" class="edge">
<title>0&#45;&gt;23</title>
<path fill="none" stroke="black" d="M1728.21,-99.76C1790.86,-94.7 1892.43,-84.88 1979,-69 2037.21,-58.32 2050.79,-51.16 2108,-36 2112.07,-34.92 2116.28,-33.79 2120.51,-32.65"/>
<polygon fill="black" stroke="black" points="2121.6,-35.98 2130.34,-29.98 2119.77,-29.23 2121.6,-35.98"/>
<text text-anchor="middle" x="2057.5" y="-57.8" font-family="Times,serif" font-size="14.00">dep</text>
</g>
<!-- 24 -->
<g id="node25" class="node">
<title>24</title>
<ellipse fill="none" stroke="black" cx="2268" cy="-18" rx="27" ry="18"/>
<text text-anchor="middle" x="2268" y="-14.3" font-family="Times,serif" font-size="14.00">o</text>
</g>
<!-- 0&#45;&gt;24 -->
<g id="edge24" class="edge">
<title>0&#45;&gt;24</title>
<path fill="none" stroke="black" d="M1729.45,-101.08C1809.01,-96.72 1953.04,-87.01 2075,-69 2145.54,-58.59 2164.41,-58.71 2232,-36 2233.92,-35.36 2235.86,-34.64 2237.81,-33.87"/>
<polygon fill="black" stroke="black" points="2239.6,-36.91 2247.4,-29.74 2236.83,-30.48 2239.6,-36.91"/>
<text text-anchor="middle" x="2181.5" y="-57.8" font-family="Times,serif" font-size="14.00">dep</text>
</g>
<!-- 25 -->
<g id="node26" class="node">
<title>25</title>
<ellipse fill="none" stroke="black" cx="2394" cy="-18" rx="80.69" ry="18"/>
<text text-anchor="middle" x="2394" y="-14.3" font-family="Times,serif" font-size="14.00">director&#45;clínico</text>
</g>
<!-- 0&#45;&gt;25 -->
<g id="edge25" class="edge">
<title>0&#45;&gt;25</title>
<path fill="none" stroke="black" d="M1730.62,-103.62C1829.87,-102.18 2031,-95.85 2199,-69 2247,-61.33 2300.39,-47.24 2339.16,-35.96"/>
<polygon fill="black" stroke="black" points="2340.58,-39.19 2349.19,-33.02 2338.6,-32.48 2340.58,-39.19"/>
<text text-anchor="middle" x="2283.5" y="-57.8" font-family="Times,serif" font-size="14.00">dep</text>
</g>
<!-- 26 -->
<g id="node27" class="node">
<title>26</title>
<ellipse fill="none" stroke="black" cx="2520" cy="-18" rx="27" ry="18"/>
<text text-anchor="middle" x="2520" y="-14.3" font-family="Times,serif" font-size="14.00">de</text>
</g>
<!-- 0&#45;&gt;26 -->
<g id="edge26" class="edge">
<title>0&#45;&gt;26</title>
<path fill="none" stroke="black" d="M1730.67,-103.1C1843.99,-100.89 2092.81,-93.44 2301,-69 2383.08,-59.36 2405.29,-61.2 2484,-36 2485.93,-35.38 2487.88,-34.69 2489.83,-33.93"/>
<polygon fill="black" stroke="black" points="2491.61,-36.98 2499.44,-29.84 2488.86,-30.54 2491.61,-36.98"/>
<text text-anchor="middle" x="2429.5" y="-57.8" font-family="Times,serif" font-size="14.00">dep</text>
</g>
<!-- 27 -->
<g id="node28" class="node">
<title>27</title>
<ellipse fill="none" stroke="black" cx="2592" cy="-18" rx="27" ry="18"/>
<text text-anchor="middle" x="2592" y="-14.3" font-family="Times,serif" font-size="14.00">o</text>
</g>
<!-- 0&#45;&gt;27 -->
<g id="edge27" class="edge">
<title>0&#45;&gt;27</title>
<path fill="none" stroke="black" d="M1730.44,-103.21C1889.1,-100.85 2309.65,-92.5 2447,-69 2496.89,-60.46 2508.77,-54.19 2556,-36 2557.84,-35.29 2559.71,-34.53 2561.59,-33.74"/>
<polygon fill="black" stroke="black" points="2563.19,-36.86 2570.91,-29.59 2560.35,-30.46 2563.19,-36.86"/>
<text text-anchor="middle" x="2521.5" y="-57.8" font-family="Times,serif" font-size="14.00">dep</text>
</g>
<!-- 28 -->
<g id="node29" class="node">
<title>28</title>
<ellipse fill="none" stroke="black" cx="2687" cy="-18" rx="50.09" ry="18"/>
<text text-anchor="middle" x="2687" y="-14.3" font-family="Times,serif" font-size="14.00">Hospital</text>
</g>
<!-- 0&#45;&gt;28 -->
<g id="edge28" class="edge">
<title>0&#45;&gt;28</title>
<path fill="none" stroke="black" d="M1730.81,-103.8C1902.67,-102.88 2383.76,-97.73 2539,-69 2576.5,-62.06 2617.45,-47.66 2646.75,-36.09"/>
<polygon fill="black" stroke="black" points="2648.24,-39.26 2656.22,-32.29 2645.64,-32.77 2648.24,-39.26"/>
<text text-anchor="middle" x="2606.5" y="-57.8" font-family="Times,serif" font-size="14.00">dep</text>
</g>
<!-- 29 -->
<g id="node30" class="node">
<title>29</title>
<ellipse fill="none" stroke="black" cx="2807" cy="-18" rx="51.99" ry="18"/>
<text text-anchor="middle" x="2807" y="-14.3" font-family="Times,serif" font-size="14.00">Prisional</text>
</g>
<!-- 0&#45;&gt;29 -->
<g id="edge29" class="edge">
<title>0&#45;&gt;29</title>
<path fill="none" stroke="black" d="M1730.78,-103.57C1913.76,-102.01 2450.84,-95.24 2624,-69 2671.92,-61.74 2725.22,-46.3 2761.88,-34.49"/>
<polygon fill="black" stroke="black" points="2763.34,-37.69 2771.76,-31.26 2761.17,-31.04 2763.34,-37.69"/>
<text text-anchor="middle" x="2704.5" y="-57.8" font-family="Times,serif" font-size="14.00">dep</text>
</g>
<!-- 30 -->
<g id="node31" class="node">
<title>30</title>
<ellipse fill="none" stroke="black" cx="2904" cy="-18" rx="27" ry="18"/>
<text text-anchor="middle" x="2904" y="-14.3" font-family="Times,serif" font-size="14.00">S.</text>
</g>
<!-- 0&#45;&gt;30 -->
<g id="edge30" class="edge">
<title>0&#45;&gt;30</title>
<path fill="none" stroke="black" d="M1730.76,-103.48C1926.01,-101.59 2528.44,-93.86 2722,-69 2787.98,-60.52 2805.1,-57.67 2868,-36 2869.91,-35.34 2871.86,-34.61 2873.8,-33.84"/>
<polygon fill="black" stroke="black" points="2875.6,-36.87 2883.38,-29.68 2872.82,-30.45 2875.6,-36.87"/>
<text text-anchor="middle" x="2822.5" y="-57.8" font-family="Times,serif" font-size="14.00">dep</text>
</g>
<!-- 31 -->
<g id="node32" class="node">
<title>31</title>
<ellipse fill="none" stroke="black" cx="2980" cy="-18" rx="30.59" ry="18"/>
<text text-anchor="middle" x="2980" y="-14.3" font-family="Times,serif" font-size="14.00">João</text>
</g>
<!-- 0&#45;&gt;31 -->
<g id="edge31" class="edge">
<title>0&#45;&gt;31</title>
<path fill="none" stroke="black" d="M1731.08,-104.5C1941.12,-105.83 2624.04,-107.03 2840,-69 2878.2,-62.27 2919.79,-46.21 2947.64,-34.1"/>
<polygon fill="black" stroke="black" points="2949.16,-37.25 2956.88,-30 2946.32,-30.85 2949.16,-37.25"/>
<text text-anchor="middle" x="2909.5" y="-57.8" font-family="Times,serif" font-size="14.00">dep</text>
</g>
<!-- 32 -->
<g id="node33" class="node">
<title>32</title>
<ellipse fill="none" stroke="black" cx="3056" cy="-18" rx="27" ry="18"/>
<text text-anchor="middle" x="3056" y="-14.3" font-family="Times,serif" font-size="14.00">de</text>
</g>
<!-- 0&#45;&gt;32 -->
<g id="edge32" class="edge">
<title>0&#45;&gt;32</title>
<path fill="none" stroke="black" d="M1730.83,-103.41C1967.59,-101.01 2809.07,-91 2927,-69 2962.38,-62.4 3000.55,-46.39 3026.11,-34.26"/>
<polygon fill="black" stroke="black" points="3027.79,-37.33 3035.26,-29.82 3024.73,-31.03 3027.79,-37.33"/>
<text text-anchor="middle" x="2991.5" y="-57.8" font-family="Times,serif" font-size="14.00">dep</text>
</g>
<!-- 33 -->
<g id="node34" class="node">
<title>33</title>
<ellipse fill="none" stroke="black" cx="3135" cy="-18" rx="34.39" ry="18"/>
<text text-anchor="middle" x="3135" y="-14.3" font-family="Times,serif" font-size="14.00">Deus</text>
</g>
<!-- 0&#45;&gt;33 -->
<g id="edge33" class="edge">
<title>0&#45;&gt;33</title>
<path fill="none" stroke="black" d="M1730.65,-103.66C1976.94,-102.13 2883.11,-94.77 3009,-69 3041.77,-62.29 3076.99,-47.62 3101.84,-35.89"/>
<polygon fill="black" stroke="black" points="3103.67,-38.9 3111.16,-31.41 3100.63,-32.59 3103.67,-38.9"/>
<text text-anchor="middle" x="3072.5" y="-57.8" font-family="Times,serif" font-size="14.00">dep</text>
</g>
<!-- 34 -->
<g id="node35" class="node">
<title>34</title>
<ellipse fill="none" stroke="black" cx="3214" cy="-18" rx="27" ry="18"/>
<text text-anchor="middle" x="3214" y="-14.3" font-family="Times,serif" font-size="14.00">,</text>
</g>
<!-- 0&#45;&gt;34 -->
<g id="edge34" class="edge">
<title>0&#45;&gt;34</title>
<path fill="none" stroke="black" d="M1730.85,-103.69C1986.77,-102.24 2955.62,-95.08 3090,-69 3123.8,-62.44 3160.05,-46.7 3184.57,-34.62"/>
<polygon fill="black" stroke="black" points="3186.33,-37.65 3193.69,-30.03 3183.18,-31.4 3186.33,-37.65"/>
<text text-anchor="middle" x="3153.5" y="-57.8" font-family="Times,serif" font-size="14.00">dep</text>
</g>
<!-- 35 -->
<g id="node36" class="node">
<title>35</title>
<ellipse fill="none" stroke="black" cx="3304" cy="-18" rx="45.49" ry="18"/>
<text text-anchor="middle" x="3304" y="-14.3" font-family="Times,serif" font-size="14.00">Manuel</text>
</g>
<!-- 0&#45;&gt;35 -->
<g id="edge35" class="edge">
<title>0&#45;&gt;35</title>
<path fill="none" stroke="black" d="M1730.77,-103.78C1995.63,-102.68 3028.32,-96.65 3171,-69 3204.75,-62.46 3241.18,-48.22 3267.36,-36.6"/>
<polygon fill="black" stroke="black" points="3268.85,-39.77 3276.52,-32.46 3265.97,-33.39 3268.85,-39.77"/>
<text text-anchor="middle" x="3237.5" y="-57.8" font-family="Times,serif" font-size="14.00">dep</text>
</g>
<!-- 36 -->
<g id="node37" class="node">
<title>36</title>
<ellipse fill="none" stroke="black" cx="3405" cy="-18" rx="37.09" ry="18"/>
<text text-anchor="middle" x="3405" y="-14.3" font-family="Times,serif" font-size="14.00">Pinéu</text>
</g>
<!-- 0&#45;&gt;36 -->
<g id="edge36" class="edge">
<title>0&#45;&gt;36</title>
<path fill="none" stroke="black" d="M1730.93,-103.69C2005.15,-102.15 3103.06,-94.47 3255,-69 3295.13,-62.27 3339.08,-46.57 3368.98,-34.54"/>
<polygon fill="black" stroke="black" points="3370.62,-37.65 3378.55,-30.62 3367.97,-31.17 3370.62,-37.65"/>
<text text-anchor="middle" x="3327.5" y="-57.8" font-family="Times,serif" font-size="14.00">dep</text>
</g>
<!-- 37 -->
<g id="node38" class="node">
<title>37</title>
<ellipse fill="none" stroke="black" cx="3487" cy="-18" rx="27" ry="18"/>
<text text-anchor="middle" x="3487" y="-14.3" font-family="Times,serif" font-size="14.00">.</text>
</g>
<!-- 0&#45;&gt;37 -->
<g id="edge37" class="edge">
<title>0&#45;&gt;37</title>
<path fill="none" stroke="black" d="M1730.61,-103.74C2013.8,-102.39 3183.6,-95.27 3345,-69 3393.7,-61.07 3405.02,-53.91 3451,-36 3452.84,-35.28 3454.71,-34.52 3456.59,-33.72"/>
<polygon fill="black" stroke="black" points="3458.19,-36.84 3465.89,-29.57 3455.34,-30.45 3458.19,-36.84"/>
<text text-anchor="middle" x="3418.5" y="-57.8" font-family="Times,serif" font-size="14.00">dep</text>
</g>
</g>
</svg>
