<?xml version="1.0" encoding="UTF-8" standalone="no"?>
<!DOCTYPE svg PUBLIC "-//W3C//DTD SVG 1.1//EN"
 "http://www.w3.org/Graphics/SVG/1.1/DTD/svg11.dtd">
<!-- Generated by graphviz version 2.42.4 (0)
 -->
<!-- Pages: 1 -->
<svg width="4334pt" height="131pt"
 viewBox="0.00 0.00 4333.60 131.00" xmlns="http://www.w3.org/2000/svg" xmlns:xlink="http://www.w3.org/1999/xlink">
<g id="graph0" class="graph" transform="scale(1 1) rotate(0) translate(4 127)">
<polygon fill="white" stroke="transparent" points="-4,4 -4,-127 4329.6,-127 4329.6,4 -4,4"/>
<!-- 0 -->
<g id="node1" class="node">
<title>0</title>
<ellipse fill="none" stroke="black" cx="2305.6" cy="-105" rx="27" ry="18"/>
<text text-anchor="middle" x="2305.6" y="-101.3" font-family="Times,serif" font-size="14.00">A</text>
</g>
<!-- 1 -->
<g id="node2" class="node">
<title>1</title>
<ellipse fill="none" stroke="black" cx="41.6" cy="-18" rx="41.69" ry="18"/>
<text text-anchor="middle" x="41.6" y="-14.3" font-family="Times,serif" font-size="14.00">sessão</text>
</g>
<!-- 0&#45;&gt;1 -->
<g id="edge1" class="edge">
<title>0&#45;&gt;1</title>
<path fill="none" stroke="black" d="M2278.41,-104.09C2046.04,-104.77 397.38,-108.21 181.6,-69 145.25,-62.4 105.79,-47.55 78.05,-35.74"/>
<polygon fill="black" stroke="black" points="79.32,-32.47 68.75,-31.71 76.53,-38.9 79.32,-32.47"/>
<text text-anchor="middle" x="195.1" y="-57.8" font-family="Times,serif" font-size="14.00">dep</text>
</g>
<!-- 2 -->
<g id="node3" class="node">
<title>2</title>
<ellipse fill="none" stroke="black" cx="128.6" cy="-18" rx="27" ry="18"/>
<text text-anchor="middle" x="128.6" y="-14.3" font-family="Times,serif" font-size="14.00">de</text>
</g>
<!-- 0&#45;&gt;2 -->
<g id="edge2" class="edge">
<title>0&#45;&gt;2</title>
<path fill="none" stroke="black" d="M2278.44,-104.02C2051.52,-104.12 473.95,-103.53 266.6,-69 228.31,-62.62 186.74,-46.14 159.34,-33.83"/>
<polygon fill="black" stroke="black" points="160.47,-30.5 149.92,-29.51 157.55,-36.86 160.47,-30.5"/>
<text text-anchor="middle" x="280.1" y="-57.8" font-family="Times,serif" font-size="14.00">dep</text>
</g>
<!-- 3 -->
<g id="node4" class="node">
<title>3</title>
<ellipse fill="none" stroke="black" cx="213.6" cy="-18" rx="40.09" ry="18"/>
<text text-anchor="middle" x="213.6" y="-14.3" font-family="Times,serif" font-size="14.00">ontem</text>
</g>
<!-- 0&#45;&gt;3 -->
<g id="edge3" class="edge">
<title>0&#45;&gt;3</title>
<path fill="none" stroke="black" d="M2278.51,-104.06C2057.11,-104.46 548.44,-105.8 350.6,-69 315.12,-62.4 276.69,-47.66 249.59,-35.88"/>
<polygon fill="black" stroke="black" points="250.7,-32.54 240.14,-31.69 247.87,-38.94 250.7,-32.54"/>
<text text-anchor="middle" x="364.1" y="-57.8" font-family="Times,serif" font-size="14.00">dep</text>
</g>
<!-- 4 -->
<g id="node5" class="node">
<title>4</title>
<ellipse fill="none" stroke="black" cx="298.6" cy="-18" rx="27" ry="18"/>
<text text-anchor="middle" x="298.6" y="-14.3" font-family="Times,serif" font-size="14.00">de</text>
</g>
<!-- 0&#45;&gt;4 -->
<g id="edge4" class="edge">
<title>0&#45;&gt;4</title>
<path fill="none" stroke="black" d="M2278.41,-103.95C2062.61,-103.53 629.71,-99.58 440.6,-69 391.89,-61.13 380.57,-53.91 334.6,-36 332.76,-35.28 330.89,-34.52 329.01,-33.72"/>
<polygon fill="black" stroke="black" points="330.26,-30.45 319.7,-29.57 327.41,-36.84 330.26,-30.45"/>
<text text-anchor="middle" x="454.1" y="-57.8" font-family="Times,serif" font-size="14.00">dep</text>
</g>
<!-- 5 -->
<g id="node6" class="node">
<title>5</title>
<ellipse fill="none" stroke="black" cx="370.6" cy="-18" rx="27" ry="18"/>
<text text-anchor="middle" x="370.6" y="-14.3" font-family="Times,serif" font-size="14.00">o</text>
</g>
<!-- 0&#45;&gt;5 -->
<g id="edge5" class="edge">
<title>0&#45;&gt;5</title>
<path fill="none" stroke="black" d="M2278.5,-104.08C2086.43,-104.55 928.28,-105.82 578.6,-69 501.19,-60.85 480.6,-60.14 406.6,-36 404.67,-35.37 402.72,-34.67 400.77,-33.91"/>
<polygon fill="black" stroke="black" points="401.74,-30.52 391.17,-29.8 398.99,-36.95 401.74,-30.52"/>
<text text-anchor="middle" x="592.1" y="-57.8" font-family="Times,serif" font-size="14.00">dep</text>
</g>
<!-- 6 -->
<g id="node7" class="node">
<title>6</title>
<ellipse fill="none" stroke="black" cx="466.6" cy="-18" rx="51.19" ry="18"/>
<text text-anchor="middle" x="466.6" y="-14.3" font-family="Times,serif" font-size="14.00">Mercado</text>
</g>
<!-- 0&#45;&gt;6 -->
<g id="edge6" class="edge">
<title>0&#45;&gt;6</title>
<path fill="none" stroke="black" d="M2278.38,-103.96C2095.05,-103.6 1038.03,-100.18 717.6,-69 632.29,-60.7 611.2,-54.86 527.6,-36 523.26,-35.02 518.76,-33.93 514.28,-32.78"/>
<polygon fill="black" stroke="black" points="515.08,-29.37 504.52,-30.2 513.29,-36.14 515.08,-29.37"/>
<text text-anchor="middle" x="731.1" y="-57.8" font-family="Times,serif" font-size="14.00">dep</text>
</g>
<!-- 7 -->
<g id="node8" class="node">
<title>7</title>
<ellipse fill="none" stroke="black" cx="594.6" cy="-18" rx="58.49" ry="18"/>
<text text-anchor="middle" x="594.6" y="-14.3" font-family="Times,serif" font-size="14.00">Monetário</text>
</g>
<!-- 0&#45;&gt;7 -->
<g id="edge7" class="edge">
<title>0&#45;&gt;7</title>
<path fill="none" stroke="black" d="M2278.62,-103.93C2104.59,-103.37 1138.18,-98.95 844.6,-69 776.01,-62 698.33,-45.01 648.01,-32.77"/>
<polygon fill="black" stroke="black" points="648.56,-29.31 638.02,-30.32 646.89,-36.1 648.56,-29.31"/>
<text text-anchor="middle" x="858.1" y="-57.8" font-family="Times,serif" font-size="14.00">dep</text>
</g>
<!-- 8 -->
<g id="node9" class="node">
<title>8</title>
<ellipse fill="none" stroke="black" cx="744.6" cy="-18" rx="73.39" ry="18"/>
<text text-anchor="middle" x="744.6" y="-14.3" font-family="Times,serif" font-size="14.00">Interbancário</text>
</g>
<!-- 0&#45;&gt;8 -->
<g id="edge8" class="edge">
<title>0&#45;&gt;8</title>
<path fill="none" stroke="black" d="M2278.6,-104.05C2112.47,-104.23 1227.31,-103.52 958.6,-69 903.65,-61.94 842.2,-46.81 799.29,-35.03"/>
<polygon fill="black" stroke="black" points="800.18,-31.64 789.61,-32.34 798.31,-38.39 800.18,-31.64"/>
<text text-anchor="middle" x="972.1" y="-57.8" font-family="Times,serif" font-size="14.00">dep</text>
</g>
<!-- 9 -->
<g id="node10" class="node">
<title>9</title>
<ellipse fill="none" stroke="black" cx="898.6" cy="-18" rx="63.09" ry="18"/>
<text text-anchor="middle" x="898.6" y="-14.3" font-family="Times,serif" font-size="14.00">apresentou</text>
</g>
<!-- 0&#45;&gt;9 -->
<g id="edge9" class="edge">
<title>0&#45;&gt;9</title>
<path fill="none" stroke="black" d="M2278.63,-103.73C2107.19,-101.94 1172.57,-91.2 1047.6,-69 1010.79,-62.46 970.7,-48.6 941.39,-37.13"/>
<polygon fill="black" stroke="black" points="942.46,-33.79 931.88,-33.34 939.87,-40.29 942.46,-33.79"/>
<text text-anchor="middle" x="1061.1" y="-57.8" font-family="Times,serif" font-size="14.00">dep</text>
</g>
<!-- 10 -->
<g id="node11" class="node">
<title>10</title>
<ellipse fill="none" stroke="black" cx="1006.6" cy="-18" rx="27" ry="18"/>
<text text-anchor="middle" x="1006.6" y="-14.3" font-family="Times,serif" font-size="14.00">se</text>
</g>
<!-- 0&#45;&gt;10 -->
<g id="edge10" class="edge">
<title>0&#45;&gt;10</title>
<path fill="none" stroke="black" d="M2278.41,-103.77C2112.6,-102.27 1240.8,-93.3 1124.6,-69 1092.82,-62.36 1058.94,-47.05 1035.67,-35.1"/>
<polygon fill="black" stroke="black" points="1037.17,-31.94 1026.69,-30.39 1033.92,-38.14 1037.17,-31.94"/>
<text text-anchor="middle" x="1138.1" y="-57.8" font-family="Times,serif" font-size="14.00">dep</text>
</g>
<!-- 11 -->
<g id="node12" class="node">
<title>11</title>
<ellipse fill="none" stroke="black" cx="1082.6" cy="-18" rx="30.59" ry="18"/>
<text text-anchor="middle" x="1082.6" y="-14.3" font-family="Times,serif" font-size="14.00">logo</text>
</g>
<!-- 0&#45;&gt;11 -->
<g id="edge11" class="edge">
<title>0&#45;&gt;11</title>
<path fill="none" stroke="black" d="M2278.42,-103.72C2119.18,-102 1310.6,-92.19 1202.6,-69 1170.98,-62.21 1137.17,-47.36 1113.52,-35.6"/>
<polygon fill="black" stroke="black" points="1114.86,-32.35 1104.36,-30.94 1111.69,-38.6 1114.86,-32.35"/>
<text text-anchor="middle" x="1216.1" y="-57.8" font-family="Times,serif" font-size="14.00">dep</text>
</g>
<!-- 12 -->
<g id="node13" class="node">
<title>12</title>
<ellipse fill="none" stroke="black" cx="1158.6" cy="-18" rx="27" ry="18"/>
<text text-anchor="middle" x="1158.6" y="-14.3" font-family="Times,serif" font-size="14.00">em</text>
</g>
<!-- 0&#45;&gt;12 -->
<g id="edge12" class="edge">
<title>0&#45;&gt;12</title>
<path fill="none" stroke="black" d="M2278.22,-104.26C2136.08,-105.42 1481.07,-108.51 1282.6,-69 1248.83,-62.28 1212.57,-46.56 1188.04,-34.53"/>
<polygon fill="black" stroke="black" points="1189.43,-31.31 1178.92,-29.96 1186.29,-37.57 1189.43,-31.31"/>
<text text-anchor="middle" x="1296.1" y="-57.8" font-family="Times,serif" font-size="14.00">dep</text>
</g>
<!-- 13 -->
<g id="node14" class="node">
<title>13</title>
<ellipse fill="none" stroke="black" cx="1230.6" cy="-18" rx="27" ry="18"/>
<text text-anchor="middle" x="1230.6" y="-14.3" font-family="Times,serif" font-size="14.00">a</text>
</g>
<!-- 0&#45;&gt;13 -->
<g id="edge13" class="edge">
<title>0&#45;&gt;13</title>
<path fill="none" stroke="black" d="M2278.49,-103.95C2144.66,-103.54 1553.53,-99.99 1372.6,-69 1323.96,-60.67 1312.57,-53.91 1266.6,-36 1264.76,-35.28 1262.89,-34.52 1261.01,-33.72"/>
<polygon fill="black" stroke="black" points="1262.26,-30.45 1251.7,-29.57 1259.41,-36.84 1262.26,-30.45"/>
<text text-anchor="middle" x="1386.1" y="-57.8" font-family="Times,serif" font-size="14.00">dep</text>
</g>
<!-- 14 -->
<g id="node15" class="node">
<title>14</title>
<ellipse fill="none" stroke="black" cx="1302.6" cy="-18" rx="27" ry="18"/>
<text text-anchor="middle" x="1302.6" y="-14.3" font-family="Times,serif" font-size="14.00">sua</text>
</g>
<!-- 0&#45;&gt;14 -->
<g id="edge14" class="edge">
<title>0&#45;&gt;14</title>
<path fill="none" stroke="black" d="M2278.51,-104.31C2176.58,-105.16 1806.55,-105.4 1504.6,-69 1429.92,-60 1410.03,-59.57 1338.6,-36 1336.68,-35.37 1334.73,-34.66 1332.78,-33.89"/>
<polygon fill="black" stroke="black" points="1333.75,-30.5 1323.18,-29.78 1330.99,-36.94 1333.75,-30.5"/>
<text text-anchor="middle" x="1518.1" y="-57.8" font-family="Times,serif" font-size="14.00">dep</text>
</g>
<!-- 15 -->
<g id="node16" class="node">
<title>15</title>
<ellipse fill="none" stroke="black" cx="1398.6" cy="-18" rx="51.19" ry="18"/>
<text text-anchor="middle" x="1398.6" y="-14.3" font-family="Times,serif" font-size="14.00">abertura</text>
</g>
<!-- 0&#45;&gt;15 -->
<g id="edge15" class="edge">
<title>0&#45;&gt;15</title>
<path fill="none" stroke="black" d="M2278.5,-104.04C2186.37,-103.87 1876.81,-100.8 1623.6,-69 1549.83,-59.74 1531.9,-53.32 1459.6,-36 1455.45,-35.01 1451.15,-33.92 1446.86,-32.8"/>
<polygon fill="black" stroke="black" points="1447.45,-29.33 1436.88,-30.13 1445.64,-36.1 1447.45,-29.33"/>
<text text-anchor="middle" x="1637.1" y="-57.8" font-family="Times,serif" font-size="14.00">dep</text>
</g>
<!-- 16 -->
<g id="node17" class="node">
<title>16</title>
<ellipse fill="none" stroke="black" cx="1519.6" cy="-18" rx="51.19" ry="18"/>
<text text-anchor="middle" x="1519.6" y="-14.3" font-family="Times,serif" font-size="14.00">bastante</text>
</g>
<!-- 0&#45;&gt;16 -->
<g id="edge16" class="edge">
<title>0&#45;&gt;16</title>
<path fill="none" stroke="black" d="M2278.46,-103.85C2195.71,-103.07 1939.45,-98.28 1729.6,-69 1673.07,-61.11 1609.48,-44.92 1567.23,-33.09"/>
<polygon fill="black" stroke="black" points="1568.08,-29.69 1557.5,-30.33 1566.17,-36.42 1568.08,-29.69"/>
<text text-anchor="middle" x="1743.1" y="-57.8" font-family="Times,serif" font-size="14.00">dep</text>
</g>
<!-- 17 -->
<g id="node18" class="node">
<title>17</title>
<ellipse fill="none" stroke="black" cx="1655.6" cy="-18" rx="66.89" ry="18"/>
<text text-anchor="middle" x="1655.6" y="-14.3" font-family="Times,serif" font-size="14.00">pressionado</text>
</g>
<!-- 0&#45;&gt;17 -->
<g id="edge17" class="edge">
<title>0&#45;&gt;17</title>
<path fill="none" stroke="black" d="M2278.46,-104.16C2204.28,-104.16 1992.17,-101.1 1819.6,-69 1779.42,-61.53 1735.16,-47.69 1702.76,-36.46"/>
<polygon fill="black" stroke="black" points="1703.7,-33.08 1693.11,-33.07 1701.38,-39.69 1703.7,-33.08"/>
<text text-anchor="middle" x="1833.1" y="-57.8" font-family="Times,serif" font-size="14.00">dep</text>
</g>
<!-- 18 -->
<g id="node19" class="node">
<title>18</title>
<ellipse fill="none" stroke="black" cx="1767.6" cy="-18" rx="27" ry="18"/>
<text text-anchor="middle" x="1767.6" y="-14.3" font-family="Times,serif" font-size="14.00">por</text>
</g>
<!-- 0&#45;&gt;18 -->
<g id="edge18" class="edge">
<title>0&#45;&gt;18</title>
<path fill="none" stroke="black" d="M2278.52,-104.02C2212.57,-103.56 2038.7,-99.31 1897.6,-69 1862.17,-61.39 1823.67,-45.56 1797.84,-33.73"/>
<polygon fill="black" stroke="black" points="1799.13,-30.48 1788.59,-29.43 1796.18,-36.82 1799.13,-30.48"/>
<text text-anchor="middle" x="1911.1" y="-57.8" font-family="Times,serif" font-size="14.00">dep</text>
</g>
<!-- 19 -->
<g id="node20" class="node">
<title>19</title>
<ellipse fill="none" stroke="black" cx="1839.6" cy="-18" rx="27" ry="18"/>
<text text-anchor="middle" x="1839.6" y="-14.3" font-family="Times,serif" font-size="14.00">a</text>
</g>
<!-- 0&#45;&gt;19 -->
<g id="edge19" class="edge">
<title>0&#45;&gt;19</title>
<path fill="none" stroke="black" d="M2278.76,-102.42C2224.61,-98.91 2098.61,-89.14 1994.6,-69 1940.71,-58.56 1927.04,-55.12 1875.6,-36 1873.75,-35.31 1871.87,-34.57 1869.98,-33.79"/>
<polygon fill="black" stroke="black" points="1871.22,-30.51 1860.66,-29.68 1868.4,-36.92 1871.22,-30.51"/>
<text text-anchor="middle" x="2008.1" y="-57.8" font-family="Times,serif" font-size="14.00">dep</text>
</g>
<!-- 20 -->
<g id="node21" class="node">
<title>20</title>
<ellipse fill="none" stroke="black" cx="1931.6" cy="-18" rx="46.59" ry="18"/>
<text text-anchor="middle" x="1931.6" y="-14.3" font-family="Times,serif" font-size="14.00">procura</text>
</g>
<!-- 0&#45;&gt;20 -->
<g id="edge20" class="edge">
<title>0&#45;&gt;20</title>
<path fill="none" stroke="black" d="M2278.95,-101.72C2235.17,-97.59 2145.5,-87.54 2071.6,-69 2037,-60.32 1998.95,-46.44 1971.27,-35.5"/>
<polygon fill="black" stroke="black" points="1972.51,-32.23 1961.93,-31.77 1969.92,-38.73 1972.51,-32.23"/>
<text text-anchor="middle" x="2085.1" y="-57.8" font-family="Times,serif" font-size="14.00">dep</text>
</g>
<!-- 21 -->
<g id="node22" class="node">
<title>21</title>
<ellipse fill="none" stroke="black" cx="2023.6" cy="-18" rx="27" ry="18"/>
<text text-anchor="middle" x="2023.6" y="-14.3" font-family="Times,serif" font-size="14.00">de</text>
</g>
<!-- 0&#45;&gt;21 -->
<g id="edge21" class="edge">
<title>0&#45;&gt;21</title>
<path fill="none" stroke="black" d="M2279.69,-99.5C2247.98,-93.72 2192.78,-82.76 2146.6,-69 2106.96,-57.19 2097.66,-52.18 2059.6,-36 2057.78,-35.23 2055.93,-34.42 2054.06,-33.59"/>
<polygon fill="black" stroke="black" points="2055.34,-30.33 2044.79,-29.35 2052.43,-36.69 2055.34,-30.33"/>
<text text-anchor="middle" x="2160.1" y="-57.8" font-family="Times,serif" font-size="14.00">dep</text>
</g>
<!-- 22 -->
<g id="node23" class="node">
<title>22</title>
<ellipse fill="none" stroke="black" cx="2110.6" cy="-18" rx="42.49" ry="18"/>
<text text-anchor="middle" x="2110.6" y="-14.3" font-family="Times,serif" font-size="14.00">fundos</text>
</g>
<!-- 0&#45;&gt;22 -->
<g id="edge22" class="edge">
<title>0&#45;&gt;22</title>
<path fill="none" stroke="black" d="M2281.63,-96.57C2261.35,-90.04 2231.67,-79.9 2206.6,-69 2185.32,-59.75 2162.23,-47.79 2144.03,-37.89"/>
<polygon fill="black" stroke="black" points="2145.45,-34.67 2135,-32.92 2142.07,-40.81 2145.45,-34.67"/>
<text text-anchor="middle" x="2220.1" y="-57.8" font-family="Times,serif" font-size="14.00">dep</text>
</g>
<!-- 23 -->
<g id="node24" class="node">
<title>23</title>
<ellipse fill="none" stroke="black" cx="2197.6" cy="-18" rx="27" ry="18"/>
<text text-anchor="middle" x="2197.6" y="-14.3" font-family="Times,serif" font-size="14.00">,</text>
</g>
<!-- 0&#45;&gt;23 -->
<g id="edge23" class="edge">
<title>0&#45;&gt;23</title>
<path fill="none" stroke="black" d="M2286.81,-91.88C2277.01,-85.37 2264.94,-77.04 2254.6,-69 2242.95,-59.95 2230.58,-49.24 2220.35,-40.06"/>
<polygon fill="black" stroke="black" points="2222.42,-37.21 2212.66,-33.09 2217.72,-42.4 2222.42,-37.21"/>
<text text-anchor="middle" x="2268.1" y="-57.8" font-family="Times,serif" font-size="14.00">dep</text>
</g>
<!-- 24 -->
<g id="node25" class="node">
<title>24</title>
<ellipse fill="none" stroke="black" cx="2269.6" cy="-18" rx="27" ry="18"/>
<text text-anchor="middle" x="2269.6" y="-14.3" font-family="Times,serif" font-size="14.00">o</text>
</g>
<!-- 0&#45;&gt;24 -->
<g id="edge24" class="edge">
<title>0&#45;&gt;24</title>
<path fill="none" stroke="black" d="M2298.48,-87.21C2293.37,-75.14 2286.38,-58.64 2280.56,-44.89"/>
<polygon fill="black" stroke="black" points="2283.69,-43.31 2276.57,-35.47 2277.25,-46.04 2283.69,-43.31"/>
<text text-anchor="middle" x="2304.1" y="-57.8" font-family="Times,serif" font-size="14.00">dep</text>
</g>
<!-- 25 -->
<g id="node26" class="node">
<title>25</title>
<ellipse fill="none" stroke="black" cx="2342.6" cy="-18" rx="27.9" ry="18"/>
<text text-anchor="middle" x="2342.6" y="-14.3" font-family="Times,serif" font-size="14.00">que</text>
</g>
<!-- 0&#45;&gt;25 -->
<g id="edge25" class="edge">
<title>0&#45;&gt;25</title>
<path fill="none" stroke="black" d="M2312.73,-87.61C2317.97,-75.58 2325.19,-58.98 2331.22,-45.13"/>
<polygon fill="black" stroke="black" points="2334.58,-46.19 2335.36,-35.63 2328.16,-43.4 2334.58,-46.19"/>
<text text-anchor="middle" x="2340.1" y="-57.8" font-family="Times,serif" font-size="14.00">dep</text>
</g>
<!-- 26 -->
<g id="node27" class="node">
<title>26</title>
<ellipse fill="none" stroke="black" cx="2436.6" cy="-18" rx="48.19" ry="18"/>
<text text-anchor="middle" x="2436.6" y="-14.3" font-family="Times,serif" font-size="14.00">motivou</text>
</g>
<!-- 0&#45;&gt;26 -->
<g id="edge26" class="edge">
<title>0&#45;&gt;26</title>
<path fill="none" stroke="black" d="M2324.37,-91.82C2345.38,-78.19 2379.77,-55.87 2404.96,-39.53"/>
<polygon fill="black" stroke="black" points="2406.96,-42.4 2413.44,-34.02 2403.15,-36.53 2406.96,-42.4"/>
<text text-anchor="middle" x="2393.1" y="-57.8" font-family="Times,serif" font-size="14.00">dep</text>
</g>
<!-- 27 -->
<g id="node28" class="node">
<title>27</title>
<ellipse fill="none" stroke="black" cx="2533.6" cy="-18" rx="30.59" ry="18"/>
<text text-anchor="middle" x="2533.6" y="-14.3" font-family="Times,serif" font-size="14.00">uma</text>
</g>
<!-- 0&#45;&gt;27 -->
<g id="edge27" class="edge">
<title>0&#45;&gt;27</title>
<path fill="none" stroke="black" d="M2329.5,-96.46C2350.87,-89.62 2382.98,-79.08 2410.6,-69 2447.89,-55.38 2456.88,-51.1 2493.6,-36 2495.77,-35.1 2498.02,-34.17 2500.27,-33.23"/>
<polygon fill="black" stroke="black" points="2501.66,-36.44 2509.52,-29.34 2498.95,-29.99 2501.66,-36.44"/>
<text text-anchor="middle" x="2463.1" y="-57.8" font-family="Times,serif" font-size="14.00">dep</text>
</g>
<!-- 28 -->
<g id="node29" class="node">
<title>28</title>
<ellipse fill="none" stroke="black" cx="2623.6" cy="-18" rx="41.69" ry="18"/>
<text text-anchor="middle" x="2623.6" y="-14.3" font-family="Times,serif" font-size="14.00">subida</text>
</g>
<!-- 0&#45;&gt;28 -->
<g id="edge28" class="edge">
<title>0&#45;&gt;28</title>
<path fill="none" stroke="black" d="M2331.66,-99.95C2366.08,-94.34 2428.44,-83.26 2480.6,-69 2516.23,-59.26 2555.8,-45.16 2584.27,-34.41"/>
<polygon fill="black" stroke="black" points="2585.75,-37.59 2593.85,-30.76 2583.26,-31.05 2585.75,-37.59"/>
<text text-anchor="middle" x="2542.1" y="-57.8" font-family="Times,serif" font-size="14.00">dep</text>
</g>
<!-- 29 -->
<g id="node30" class="node">
<title>29</title>
<ellipse fill="none" stroke="black" cx="2710.6" cy="-18" rx="27" ry="18"/>
<text text-anchor="middle" x="2710.6" y="-14.3" font-family="Times,serif" font-size="14.00">de</text>
</g>
<!-- 0&#45;&gt;29 -->
<g id="edge29" class="edge">
<title>0&#45;&gt;29</title>
<path fill="none" stroke="black" d="M2332.41,-102.32C2394.47,-97.76 2552.07,-82.16 2674.6,-36 2676.44,-35.31 2678.32,-34.55 2680.2,-33.77"/>
<polygon fill="black" stroke="black" points="2681.79,-36.89 2689.52,-29.65 2678.96,-30.49 2681.79,-36.89"/>
<text text-anchor="middle" x="2630.1" y="-57.8" font-family="Times,serif" font-size="14.00">dep</text>
</g>
<!-- 30 -->
<g id="node31" class="node">
<title>30</title>
<ellipse fill="none" stroke="black" cx="2782.6" cy="-18" rx="27" ry="18"/>
<text text-anchor="middle" x="2782.6" y="-14.3" font-family="Times,serif" font-size="14.00">as</text>
</g>
<!-- 0&#45;&gt;30 -->
<g id="edge30" class="edge">
<title>0&#45;&gt;30</title>
<path fill="none" stroke="black" d="M2332.52,-103.25C2390.66,-101.2 2532.06,-93.85 2647.6,-69 2692.94,-59.25 2703.55,-53.27 2746.6,-36 2748.42,-35.27 2750.29,-34.49 2752.17,-33.68"/>
<polygon fill="black" stroke="black" points="2753.78,-36.79 2761.46,-29.49 2750.91,-30.41 2753.78,-36.79"/>
<text text-anchor="middle" x="2715.1" y="-57.8" font-family="Times,serif" font-size="14.00">dep</text>
</g>
<!-- 31 -->
<g id="node32" class="node">
<title>31</title>
<ellipse fill="none" stroke="black" cx="2863.6" cy="-18" rx="36" ry="18"/>
<text text-anchor="middle" x="2863.6" y="-14.3" font-family="Times,serif" font-size="14.00">taxas</text>
</g>
<!-- 0&#45;&gt;31 -->
<g id="edge31" class="edge">
<title>0&#45;&gt;31</title>
<path fill="none" stroke="black" d="M2332.98,-104.41C2401.33,-104.87 2584.62,-102.59 2732.6,-69 2766.49,-61.31 2803.32,-46.65 2829.27,-35.18"/>
<polygon fill="black" stroke="black" points="2830.97,-38.25 2838.66,-30.96 2828.1,-31.87 2830.97,-38.25"/>
<text text-anchor="middle" x="2794.1" y="-57.8" font-family="Times,serif" font-size="14.00">dep</text>
</g>
<!-- 32 -->
<g id="node33" class="node">
<title>32</title>
<ellipse fill="none" stroke="black" cx="2944.6" cy="-18" rx="27" ry="18"/>
<text text-anchor="middle" x="2944.6" y="-14.3" font-family="Times,serif" font-size="14.00">de</text>
</g>
<!-- 0&#45;&gt;32 -->
<g id="edge32" class="edge">
<title>0&#45;&gt;32</title>
<path fill="none" stroke="black" d="M2332.8,-104.57C2409.15,-105.65 2631.6,-105.2 2811.6,-69 2848.21,-61.64 2888.04,-45.49 2914.47,-33.53"/>
<polygon fill="black" stroke="black" points="2915.95,-36.7 2923.57,-29.34 2913.02,-30.34 2915.95,-36.7"/>
<text text-anchor="middle" x="2878.1" y="-57.8" font-family="Times,serif" font-size="14.00">dep</text>
</g>
<!-- 33 -->
<g id="node34" class="node">
<title>33</title>
<ellipse fill="none" stroke="black" cx="3018.6" cy="-18" rx="29.5" ry="18"/>
<text text-anchor="middle" x="3018.6" y="-14.3" font-family="Times,serif" font-size="14.00">juro</text>
</g>
<!-- 0&#45;&gt;33 -->
<g id="edge33" class="edge">
<title>0&#45;&gt;33</title>
<path fill="none" stroke="black" d="M2332.82,-103.51C2433.7,-101.5 2786.07,-92.89 2895.6,-69 2928.4,-61.84 2963.7,-46.64 2988.03,-34.87"/>
<polygon fill="black" stroke="black" points="2989.69,-37.95 2997.11,-30.39 2986.59,-31.68 2989.69,-37.95"/>
<text text-anchor="middle" x="2955.1" y="-57.8" font-family="Times,serif" font-size="14.00">dep</text>
</g>
<!-- 34 -->
<g id="node35" class="node">
<title>34</title>
<ellipse fill="none" stroke="black" cx="3092.6" cy="-18" rx="27" ry="18"/>
<text text-anchor="middle" x="3092.6" y="-14.3" font-family="Times,serif" font-size="14.00">,</text>
</g>
<!-- 0&#45;&gt;34 -->
<g id="edge34" class="edge">
<title>0&#45;&gt;34</title>
<path fill="none" stroke="black" d="M2332.57,-103.74C2441.27,-102.5 2847.37,-96.13 2972.6,-69 3004.78,-62.03 3039.25,-46.76 3062.96,-34.92"/>
<polygon fill="black" stroke="black" points="3064.79,-37.92 3072.11,-30.25 3061.61,-31.68 3064.79,-37.92"/>
<text text-anchor="middle" x="3034.1" y="-57.8" font-family="Times,serif" font-size="14.00">dep</text>
</g>
<!-- 35 -->
<g id="node36" class="node">
<title>35</title>
<ellipse fill="none" stroke="black" cx="3165.6" cy="-18" rx="27.9" ry="18"/>
<text text-anchor="middle" x="3165.6" y="-14.3" font-family="Times,serif" font-size="14.00">que</text>
</g>
<!-- 0&#45;&gt;35 -->
<g id="edge35" class="edge">
<title>0&#45;&gt;35</title>
<path fill="none" stroke="black" d="M2332.57,-104.02C2449.2,-103.91 2910.7,-101.38 3051.6,-69 3081.82,-62.05 3113.98,-47.18 3136.41,-35.46"/>
<polygon fill="black" stroke="black" points="3138.22,-38.46 3145.39,-30.66 3134.92,-32.28 3138.22,-38.46"/>
<text text-anchor="middle" x="3111.1" y="-57.8" font-family="Times,serif" font-size="14.00">dep</text>
</g>
<!-- 36 -->
<g id="node37" class="node">
<title>36</title>
<ellipse fill="none" stroke="black" cx="3238.6" cy="-18" rx="27" ry="18"/>
<text text-anchor="middle" x="3238.6" y="-14.3" font-family="Times,serif" font-size="14.00">se</text>
</g>
<!-- 0&#45;&gt;36 -->
<g id="edge36" class="edge">
<title>0&#45;&gt;36</title>
<path fill="none" stroke="black" d="M2332.81,-104.21C2457.21,-104.96 2972.33,-105.75 3128.6,-69 3157.77,-62.14 3188.64,-47.36 3210.22,-35.65"/>
<polygon fill="black" stroke="black" points="3212.12,-38.6 3219.16,-30.68 3208.72,-32.48 3212.12,-38.6"/>
<text text-anchor="middle" x="3186.1" y="-57.8" font-family="Times,serif" font-size="14.00">dep</text>
</g>
<!-- 37 -->
<g id="node38" class="node">
<title>37</title>
<ellipse fill="none" stroke="black" cx="3310.6" cy="-18" rx="27" ry="18"/>
<text text-anchor="middle" x="3310.6" y="-14.3" font-family="Times,serif" font-size="14.00">foi</text>
</g>
<!-- 0&#45;&gt;37 -->
<g id="edge37" class="edge">
<title>0&#45;&gt;37</title>
<path fill="none" stroke="black" d="M2332.83,-103.58C2473.79,-101.31 3117.25,-89.86 3203.6,-69 3231.77,-62.19 3261.45,-47.66 3282.39,-36.01"/>
<polygon fill="black" stroke="black" points="3284.4,-38.89 3291.36,-30.89 3280.93,-32.81 3284.4,-38.89"/>
<text text-anchor="middle" x="3260.1" y="-57.8" font-family="Times,serif" font-size="14.00">dep</text>
</g>
<!-- 38 -->
<g id="node39" class="node">
<title>38</title>
<ellipse fill="none" stroke="black" cx="3419.6" cy="-18" rx="64.19" ry="18"/>
<text text-anchor="middle" x="3419.6" y="-14.3" font-family="Times,serif" font-size="14.00">acentuando</text>
</g>
<!-- 0&#45;&gt;38 -->
<g id="edge38" class="edge">
<title>0&#45;&gt;38</title>
<path fill="none" stroke="black" d="M2332.94,-104.13C2470.68,-104.6 3089.29,-104.68 3277.6,-69 3312.28,-62.43 3349.9,-48.87 3377.69,-37.53"/>
<polygon fill="black" stroke="black" points="3379.2,-40.69 3387.1,-33.63 3376.52,-34.23 3379.2,-40.69"/>
<text text-anchor="middle" x="3347.1" y="-57.8" font-family="Times,serif" font-size="14.00">dep</text>
</g>
<!-- 39 -->
<g id="node40" class="node">
<title>39</title>
<ellipse fill="none" stroke="black" cx="3528.6" cy="-18" rx="27" ry="18"/>
<text text-anchor="middle" x="3528.6" y="-14.3" font-family="Times,serif" font-size="14.00">a</text>
</g>
<!-- 0&#45;&gt;39 -->
<g id="edge39" class="edge">
<title>0&#45;&gt;39</title>
<path fill="none" stroke="black" d="M2332.9,-103.91C2477.69,-103.3 3156.79,-98.85 3364.6,-69 3422.75,-60.65 3437.34,-55.97 3492.6,-36 3494.45,-35.33 3496.34,-34.6 3498.22,-33.83"/>
<polygon fill="black" stroke="black" points="3499.8,-36.96 3507.56,-29.75 3496.99,-30.55 3499.8,-36.96"/>
<text text-anchor="middle" x="3452.1" y="-57.8" font-family="Times,serif" font-size="14.00">dep</text>
</g>
<!-- 40 -->
<g id="node41" class="node">
<title>40</title>
<ellipse fill="none" stroke="black" cx="3600.6" cy="-18" rx="27" ry="18"/>
<text text-anchor="middle" x="3600.6" y="-14.3" font-family="Times,serif" font-size="14.00">a</text>
</g>
<!-- 0&#45;&gt;40 -->
<g id="edge40" class="edge">
<title>0&#45;&gt;40</title>
<path fill="none" stroke="black" d="M2332.64,-103.68C2496.63,-101.67 3354.59,-90.19 3469.6,-69 3505.47,-62.39 3544.24,-46.39 3570.21,-34.25"/>
<polygon fill="black" stroke="black" points="3571.99,-37.28 3579.51,-29.82 3568.98,-30.96 3571.99,-37.28"/>
<text text-anchor="middle" x="3535.1" y="-57.8" font-family="Times,serif" font-size="14.00">dep</text>
</g>
<!-- 41 -->
<g id="node42" class="node">
<title>41</title>
<ellipse fill="none" stroke="black" cx="3690.6" cy="-18" rx="44.69" ry="18"/>
<text text-anchor="middle" x="3690.6" y="-14.3" font-family="Times,serif" font-size="14.00">medida</text>
</g>
<!-- 0&#45;&gt;41 -->
<g id="edge41" class="edge">
<title>0&#45;&gt;41</title>
<path fill="none" stroke="black" d="M2332.61,-103.76C2503.32,-102.16 3429.06,-92.48 3552.6,-69 3587.71,-62.33 3625.78,-47.95 3653.02,-36.32"/>
<polygon fill="black" stroke="black" points="3654.77,-39.38 3662.54,-32.18 3651.97,-32.96 3654.77,-39.38"/>
<text text-anchor="middle" x="3621.1" y="-57.8" font-family="Times,serif" font-size="14.00">dep</text>
</g>
<!-- 42 -->
<g id="node43" class="node">
<title>42</title>
<ellipse fill="none" stroke="black" cx="3781.6" cy="-18" rx="27.9" ry="18"/>
<text text-anchor="middle" x="3781.6" y="-14.3" font-family="Times,serif" font-size="14.00">que</text>
</g>
<!-- 0&#45;&gt;42 -->
<g id="edge42" class="edge">
<title>0&#45;&gt;42</title>
<path fill="none" stroke="black" d="M2332.72,-103.74C2510.45,-101.95 3505.56,-91.02 3638.6,-69 3687.28,-60.94 3698.53,-53.67 3744.6,-36 3746.48,-35.28 3748.4,-34.51 3750.33,-33.71"/>
<polygon fill="black" stroke="black" points="3752.11,-36.74 3759.88,-29.54 3749.32,-30.33 3752.11,-36.74"/>
<text text-anchor="middle" x="3712.1" y="-57.8" font-family="Times,serif" font-size="14.00">dep</text>
</g>
<!-- 43 -->
<g id="node44" class="node">
<title>43</title>
<ellipse fill="none" stroke="black" cx="3854.6" cy="-18" rx="27" ry="18"/>
<text text-anchor="middle" x="3854.6" y="-14.3" font-family="Times,serif" font-size="14.00">se</text>
</g>
<!-- 0&#45;&gt;43 -->
<g id="edge43" class="edge">
<title>0&#45;&gt;43</title>
<path fill="none" stroke="black" d="M2332.78,-103.87C2517.7,-102.92 3587.68,-96.27 3729.6,-69 3763.64,-62.46 3800.19,-46.72 3824.92,-34.63"/>
<polygon fill="black" stroke="black" points="3826.73,-37.64 3834.11,-30.04 3823.6,-31.37 3826.73,-37.64"/>
<text text-anchor="middle" x="3793.1" y="-57.8" font-family="Times,serif" font-size="14.00">dep</text>
</g>
<!-- 44 -->
<g id="node45" class="node">
<title>44</title>
<ellipse fill="none" stroke="black" cx="3953.6" cy="-18" rx="53.89" ry="18"/>
<text text-anchor="middle" x="3953.6" y="-14.3" font-family="Times,serif" font-size="14.00">avançava</text>
</g>
<!-- 0&#45;&gt;44 -->
<g id="edge44" class="edge">
<title>0&#45;&gt;44</title>
<path fill="none" stroke="black" d="M2332.77,-103.88C2523.67,-102.96 3659.93,-96.39 3810.6,-69 3846.36,-62.5 3885.19,-48.45 3913.34,-36.89"/>
<polygon fill="black" stroke="black" points="3914.96,-40.01 3922.84,-32.92 3912.26,-33.55 3914.96,-40.01"/>
<text text-anchor="middle" x="3881.1" y="-57.8" font-family="Times,serif" font-size="14.00">dep</text>
</g>
<!-- 45 -->
<g id="node46" class="node">
<title>45</title>
<ellipse fill="none" stroke="black" cx="4052.6" cy="-18" rx="27" ry="18"/>
<text text-anchor="middle" x="4052.6" y="-14.3" font-family="Times,serif" font-size="14.00">em</text>
</g>
<!-- 0&#45;&gt;45 -->
<g id="edge45" class="edge">
<title>0&#45;&gt;45</title>
<path fill="none" stroke="black" d="M2332.75,-103.81C2529.85,-102.41 3737.84,-92.86 3898.6,-69 3952.46,-61.01 3965.57,-55.03 4016.6,-36 4018.44,-35.31 4020.32,-34.57 4022.21,-33.78"/>
<polygon fill="black" stroke="black" points="4023.79,-36.91 4031.53,-29.67 4020.97,-30.51 4023.79,-36.91"/>
<text text-anchor="middle" x="3980.1" y="-57.8" font-family="Times,serif" font-size="14.00">dep</text>
</g>
<!-- 46 -->
<g id="node47" class="node">
<title>46</title>
<ellipse fill="none" stroke="black" cx="4124.6" cy="-18" rx="27" ry="18"/>
<text text-anchor="middle" x="4124.6" y="-14.3" font-family="Times,serif" font-size="14.00">a</text>
</g>
<!-- 0&#45;&gt;46 -->
<g id="edge46" class="edge">
<title>0&#45;&gt;46</title>
<path fill="none" stroke="black" d="M2332.81,-103.97C2537.13,-103.7 3827.45,-100.71 3997.6,-69 4032.5,-62.49 4070.06,-46.47 4095.21,-34.3"/>
<polygon fill="black" stroke="black" points="4096.79,-37.43 4104.2,-29.86 4093.69,-31.15 4096.79,-37.43"/>
<text text-anchor="middle" x="4062.1" y="-57.8" font-family="Times,serif" font-size="14.00">dep</text>
</g>
<!-- 47 -->
<g id="node48" class="node">
<title>47</title>
<ellipse fill="none" stroke="black" cx="4211.6" cy="-18" rx="41.69" ry="18"/>
<text text-anchor="middle" x="4211.6" y="-14.3" font-family="Times,serif" font-size="14.00">sessão</text>
</g>
<!-- 0&#45;&gt;47 -->
<g id="edge47" class="edge">
<title>0&#45;&gt;47</title>
<path fill="none" stroke="black" d="M2332.79,-104.02C2542.64,-104.13 3901.06,-103.5 4079.6,-69 4113.31,-62.49 4149.65,-48.13 4175.66,-36.46"/>
<polygon fill="black" stroke="black" points="4177.45,-39.49 4185.09,-32.14 4174.54,-33.12 4177.45,-39.49"/>
<text text-anchor="middle" x="4146.1" y="-57.8" font-family="Times,serif" font-size="14.00">dep</text>
</g>
<!-- 48 -->
<g id="node49" class="node">
<title>48</title>
<ellipse fill="none" stroke="black" cx="4298.6" cy="-18" rx="27" ry="18"/>
<text text-anchor="middle" x="4298.6" y="-14.3" font-family="Times,serif" font-size="14.00">.</text>
</g>
<!-- 0&#45;&gt;48 -->
<g id="edge48" class="edge">
<title>0&#45;&gt;48</title>
<path fill="none" stroke="black" d="M2332.68,-103.98C2547.72,-103.8 3975.5,-101.34 4163.6,-69 4201.11,-62.55 4241.77,-46.08 4268.55,-33.79"/>
<polygon fill="black" stroke="black" points="4270.19,-36.89 4277.76,-29.48 4267.22,-30.55 4270.19,-36.89"/>
<text text-anchor="middle" x="4231.1" y="-57.8" font-family="Times,serif" font-size="14.00">dep</text>
</g>
</g>
</svg>
