<?xml version="1.0" encoding="UTF-8" standalone="no"?>
<!DOCTYPE svg PUBLIC "-//W3C//DTD SVG 1.1//EN"
 "http://www.w3.org/Graphics/SVG/1.1/DTD/svg11.dtd">
<!-- Generated by graphviz version 2.42.4 (0)
 -->
<!-- Pages: 1 -->
<svg width="1062pt" height="131pt"
 viewBox="0.00 0.00 1061.80 131.00" xmlns="http://www.w3.org/2000/svg" xmlns:xlink="http://www.w3.org/1999/xlink">
<g id="graph0" class="graph" transform="scale(1 1) rotate(0) translate(4 127)">
<polygon fill="white" stroke="transparent" points="-4,4 -4,-127 1057.8,-127 1057.8,4 -4,4"/>
<!-- 0 -->
<g id="node1" class="node">
<title>0</title>
<ellipse fill="none" stroke="black" cx="568.8" cy="-105" rx="37.09" ry="18"/>
<text text-anchor="middle" x="568.8" y="-101.3" font-family="Times,serif" font-size="14.00">Dalva</text>
</g>
<!-- 1 -->
<g id="node2" class="node">
<title>1</title>
<ellipse fill="none" stroke="black" cx="33.8" cy="-18" rx="33.6" ry="18"/>
<text text-anchor="middle" x="33.8" y="-14.3" font-family="Times,serif" font-size="14.00">seria</text>
</g>
<!-- 0&#45;&gt;1 -->
<g id="edge1" class="edge">
<title>0&#45;&gt;1</title>
<path fill="none" stroke="black" d="M531.87,-102.77C448.83,-99.18 241.76,-85.56 76.8,-36 74.22,-35.23 71.58,-34.36 68.94,-33.45"/>
<polygon fill="black" stroke="black" points="70.06,-30.13 59.47,-29.97 67.65,-36.7 70.06,-30.13"/>
<text text-anchor="middle" x="223.3" y="-57.8" font-family="Times,serif" font-size="14.00">dep</text>
</g>
<!-- 2 -->
<g id="node3" class="node">
<title>2</title>
<ellipse fill="none" stroke="black" cx="145.8" cy="-18" rx="59.59" ry="18"/>
<text text-anchor="middle" x="145.8" y="-14.3" font-family="Times,serif" font-size="14.00">submetida</text>
</g>
<!-- 0&#45;&gt;2 -->
<g id="edge2" class="edge">
<title>0&#45;&gt;2</title>
<path fill="none" stroke="black" d="M532.68,-100.39C484.49,-95.24 396.66,-84.61 322.8,-69 278.96,-59.73 230.01,-45.61 194.71,-34.73"/>
<polygon fill="black" stroke="black" points="195.73,-31.38 185.14,-31.75 193.65,-38.06 195.73,-31.38"/>
<text text-anchor="middle" x="336.3" y="-57.8" font-family="Times,serif" font-size="14.00">dep</text>
</g>
<!-- 3 -->
<g id="node4" class="node">
<title>3</title>
<ellipse fill="none" stroke="black" cx="263.8" cy="-18" rx="40.09" ry="18"/>
<text text-anchor="middle" x="263.8" y="-14.3" font-family="Times,serif" font-size="14.00">ontem</text>
</g>
<!-- 0&#45;&gt;3 -->
<g id="edge3" class="edge">
<title>0&#45;&gt;3</title>
<path fill="none" stroke="black" d="M534.03,-98.51C499.2,-92.64 444.25,-82.33 397.8,-69 364.53,-59.45 327.77,-45.48 301.17,-34.73"/>
<polygon fill="black" stroke="black" points="302.44,-31.47 291.86,-30.93 299.8,-37.95 302.44,-31.47"/>
<text text-anchor="middle" x="411.3" y="-57.8" font-family="Times,serif" font-size="14.00">dep</text>
</g>
<!-- 4 -->
<g id="node5" class="node">
<title>4</title>
<ellipse fill="none" stroke="black" cx="348.8" cy="-18" rx="27" ry="18"/>
<text text-anchor="middle" x="348.8" y="-14.3" font-family="Times,serif" font-size="14.00">a</text>
</g>
<!-- 0&#45;&gt;4 -->
<g id="edge4" class="edge">
<title>0&#45;&gt;4</title>
<path fill="none" stroke="black" d="M538.75,-94.15C518.35,-87.35 490.83,-77.95 466.8,-69 429.98,-55.29 420.8,-51.73 384.8,-36 382.99,-35.21 381.14,-34.39 379.28,-33.55"/>
<polygon fill="black" stroke="black" points="380.57,-30.29 370.02,-29.28 377.64,-36.64 380.57,-30.29"/>
<text text-anchor="middle" x="480.3" y="-57.8" font-family="Times,serif" font-size="14.00">dep</text>
</g>
<!-- 5 -->
<g id="node6" class="node">
<title>5</title>
<ellipse fill="none" stroke="black" cx="440.8" cy="-18" rx="47.39" ry="18"/>
<text text-anchor="middle" x="440.8" y="-14.3" font-family="Times,serif" font-size="14.00">cirurgia</text>
</g>
<!-- 0&#45;&gt;5 -->
<g id="edge5" class="edge">
<title>0&#45;&gt;5</title>
<path fill="none" stroke="black" d="M547.66,-89.96C527.01,-76.25 495.34,-55.22 471.83,-39.61"/>
<polygon fill="black" stroke="black" points="473.52,-36.53 463.26,-33.92 469.65,-42.36 473.52,-36.53"/>
<text text-anchor="middle" x="526.3" y="-57.8" font-family="Times,serif" font-size="14.00">dep</text>
</g>
<!-- 6 -->
<g id="node7" class="node">
<title>6</title>
<ellipse fill="none" stroke="black" cx="532.8" cy="-18" rx="27" ry="18"/>
<text text-anchor="middle" x="532.8" y="-14.3" font-family="Times,serif" font-size="14.00">em</text>
</g>
<!-- 0&#45;&gt;6 -->
<g id="edge6" class="edge">
<title>0&#45;&gt;6</title>
<path fill="none" stroke="black" d="M561.68,-87.21C556.57,-75.14 549.59,-58.64 543.76,-44.89"/>
<polygon fill="black" stroke="black" points="546.9,-43.31 539.77,-35.47 540.45,-46.04 546.9,-43.31"/>
<text text-anchor="middle" x="567.3" y="-57.8" font-family="Times,serif" font-size="14.00">dep</text>
</g>
<!-- 7 -->
<g id="node8" class="node">
<title>7</title>
<ellipse fill="none" stroke="black" cx="604.8" cy="-18" rx="27" ry="18"/>
<text text-anchor="middle" x="604.8" y="-14.3" font-family="Times,serif" font-size="14.00">o</text>
</g>
<!-- 0&#45;&gt;7 -->
<g id="edge7" class="edge">
<title>0&#45;&gt;7</title>
<path fill="none" stroke="black" d="M575.91,-87.21C581.02,-75.14 588.01,-58.64 593.83,-44.89"/>
<polygon fill="black" stroke="black" points="597.14,-46.04 597.82,-35.47 590.7,-43.31 597.14,-46.04"/>
<text text-anchor="middle" x="603.3" y="-57.8" font-family="Times,serif" font-size="14.00">dep</text>
</g>
<!-- 8 -->
<g id="node9" class="node">
<title>8</title>
<ellipse fill="none" stroke="black" cx="697.8" cy="-18" rx="48.19" ry="18"/>
<text text-anchor="middle" x="697.8" y="-14.3" font-family="Times,serif" font-size="14.00">hospital</text>
</g>
<!-- 0&#45;&gt;8 -->
<g id="edge8" class="edge">
<title>0&#45;&gt;8</title>
<path fill="none" stroke="black" d="M589.81,-90.15C610.67,-76.41 642.88,-55.19 666.7,-39.49"/>
<polygon fill="black" stroke="black" points="668.63,-42.41 675.05,-33.99 664.78,-36.56 668.63,-42.41"/>
<text text-anchor="middle" x="655.3" y="-57.8" font-family="Times,serif" font-size="14.00">dep</text>
</g>
<!-- 9 -->
<g id="node10" class="node">
<title>9</title>
<ellipse fill="none" stroke="black" cx="790.8" cy="-18" rx="27" ry="18"/>
<text text-anchor="middle" x="790.8" y="-14.3" font-family="Times,serif" font-size="14.00">de</text>
</g>
<!-- 0&#45;&gt;9 -->
<g id="edge9" class="edge">
<title>0&#45;&gt;9</title>
<path fill="none" stroke="black" d="M599,-94.35C619.84,-87.56 648.13,-78.1 672.8,-69 709.65,-55.4 718.8,-51.73 754.8,-36 756.6,-35.21 758.45,-34.39 760.31,-33.55"/>
<polygon fill="black" stroke="black" points="761.96,-36.64 769.57,-29.28 759.02,-30.29 761.96,-36.64"/>
<text text-anchor="middle" x="725.3" y="-57.8" font-family="Times,serif" font-size="14.00">dep</text>
</g>
<!-- 10 -->
<g id="node11" class="node">
<title>10</title>
<ellipse fill="none" stroke="black" cx="863.8" cy="-18" rx="27.9" ry="18"/>
<text text-anchor="middle" x="863.8" y="-14.3" font-family="Times,serif" font-size="14.00">São</text>
</g>
<!-- 0&#45;&gt;10 -->
<g id="edge10" class="edge">
<title>0&#45;&gt;10</title>
<path fill="none" stroke="black" d="M603.9,-98.8C639.36,-93.12 695.5,-82.93 742.8,-69 781.27,-57.67 789.89,-51.71 826.8,-36 828.65,-35.21 830.55,-34.39 832.46,-33.54"/>
<polygon fill="black" stroke="black" points="834.29,-36.56 841.98,-29.27 831.42,-30.18 834.29,-36.56"/>
<text text-anchor="middle" x="799.3" y="-57.8" font-family="Times,serif" font-size="14.00">dep</text>
</g>
<!-- 11 -->
<g id="node12" class="node">
<title>11</title>
<ellipse fill="none" stroke="black" cx="945.8" cy="-18" rx="36.29" ry="18"/>
<text text-anchor="middle" x="945.8" y="-14.3" font-family="Times,serif" font-size="14.00">Paulo</text>
</g>
<!-- 0&#45;&gt;11 -->
<g id="edge11" class="edge">
<title>0&#45;&gt;11</title>
<path fill="none" stroke="black" d="M605.45,-101.47C654.31,-97.5 743.16,-88.19 816.8,-69 849.57,-60.46 885.37,-46.16 910.92,-35.04"/>
<polygon fill="black" stroke="black" points="912.45,-38.19 920.19,-30.95 909.63,-31.78 912.45,-38.19"/>
<text text-anchor="middle" x="874.3" y="-57.8" font-family="Times,serif" font-size="14.00">dep</text>
</g>
<!-- 12 -->
<g id="node13" class="node">
<title>12</title>
<ellipse fill="none" stroke="black" cx="1026.8" cy="-18" rx="27" ry="18"/>
<text text-anchor="middle" x="1026.8" y="-14.3" font-family="Times,serif" font-size="14.00">.</text>
</g>
<!-- 0&#45;&gt;12 -->
<g id="edge12" class="edge">
<title>0&#45;&gt;12</title>
<path fill="none" stroke="black" d="M605.54,-102.57C665.9,-99.66 789.57,-91.31 891.8,-69 937.11,-59.11 947.75,-53.27 990.8,-36 992.63,-35.27 994.49,-34.49 996.37,-33.68"/>
<polygon fill="black" stroke="black" points="997.98,-36.79 1005.66,-29.49 995.11,-30.41 997.98,-36.79"/>
<text text-anchor="middle" x="959.3" y="-57.8" font-family="Times,serif" font-size="14.00">dep</text>
</g>
</g>
</svg>
