<?xml version="1.0" encoding="UTF-8" standalone="no"?>
<!DOCTYPE svg PUBLIC "-//W3C//DTD SVG 1.1//EN"
 "http://www.w3.org/Graphics/SVG/1.1/DTD/svg11.dtd">
<!-- Generated by graphviz version 2.42.4 (0)
 -->
<!-- Pages: 1 -->
<svg width="4661pt" height="131pt"
 viewBox="0.00 0.00 4660.55 131.00" xmlns="http://www.w3.org/2000/svg" xmlns:xlink="http://www.w3.org/1999/xlink">
<g id="graph0" class="graph" transform="scale(1 1) rotate(0) translate(4 127)">
<polygon fill="white" stroke="transparent" points="-4,4 -4,-127 4656.55,-127 4656.55,4 -4,4"/>
<!-- 0 -->
<g id="node1" class="node">
<title>0</title>
<ellipse fill="none" stroke="black" cx="2300.55" cy="-105" rx="54.69" ry="18"/>
<text text-anchor="middle" x="2300.55" y="-101.3" font-family="Times,serif" font-size="14.00">Valdemar</text>
</g>
<!-- 1 -->
<g id="node2" class="node">
<title>1</title>
<ellipse fill="none" stroke="black" cx="43.55" cy="-18" rx="43.59" ry="18"/>
<text text-anchor="middle" x="43.55" y="-14.3" font-family="Times,serif" font-size="14.00">Saleiro</text>
</g>
<!-- 0&#45;&gt;1 -->
<g id="edge1" class="edge">
<title>0&#45;&gt;1</title>
<path fill="none" stroke="black" d="M2245.85,-104.18C1934.24,-105.03 389.61,-107.3 181.55,-69 146.01,-62.46 107.51,-47.83 80.23,-36.07"/>
<polygon fill="black" stroke="black" points="81.63,-32.87 71.07,-32.05 78.82,-39.27 81.63,-32.87"/>
<text text-anchor="middle" x="195.05" y="-57.8" font-family="Times,serif" font-size="14.00">dep</text>
</g>
<!-- 2 -->
<g id="node3" class="node">
<title>2</title>
<ellipse fill="none" stroke="black" cx="132.55" cy="-18" rx="27" ry="18"/>
<text text-anchor="middle" x="132.55" y="-14.3" font-family="Times,serif" font-size="14.00">&#45;&#45;</text>
</g>
<!-- 0&#45;&gt;2 -->
<g id="edge2" class="edge">
<title>0&#45;&gt;2</title>
<path fill="none" stroke="black" d="M2245.54,-104.08C1940.6,-104.4 464.2,-104.12 264.55,-69 228.16,-62.6 188.86,-46.4 162.69,-34.16"/>
<polygon fill="black" stroke="black" points="163.87,-30.85 153.34,-29.69 160.85,-37.16 163.87,-30.85"/>
<text text-anchor="middle" x="278.05" y="-57.8" font-family="Times,serif" font-size="14.00">dep</text>
</g>
<!-- 3 -->
<g id="node4" class="node">
<title>3</title>
<ellipse fill="none" stroke="black" cx="205.55" cy="-18" rx="27.9" ry="18"/>
<text text-anchor="middle" x="205.55" y="-14.3" font-family="Times,serif" font-size="14.00">que</text>
</g>
<!-- 0&#45;&gt;3 -->
<g id="edge3" class="edge">
<title>0&#45;&gt;3</title>
<path fill="none" stroke="black" d="M2245.94,-103.8C1951.22,-102.61 556.74,-95.63 366.55,-69 310.07,-61.09 296.21,-55.31 242.55,-36 240.65,-35.32 238.72,-34.58 236.78,-33.8"/>
<polygon fill="black" stroke="black" points="237.77,-30.42 227.2,-29.7 235.02,-36.85 237.77,-30.42"/>
<text text-anchor="middle" x="380.05" y="-57.8" font-family="Times,serif" font-size="14.00">dep</text>
</g>
<!-- 4 -->
<g id="node5" class="node">
<title>4</title>
<ellipse fill="none" stroke="black" cx="285.55" cy="-18" rx="34.39" ry="18"/>
<text text-anchor="middle" x="285.55" y="-14.3" font-family="Times,serif" font-size="14.00">tinha</text>
</g>
<!-- 0&#45;&gt;4 -->
<g id="edge4" class="edge">
<title>0&#45;&gt;4</title>
<path fill="none" stroke="black" d="M2245.88,-104.17C1983.75,-104.77 853.9,-105.19 503.55,-69 424.82,-60.87 404.58,-57.98 328.55,-36 325.96,-35.25 323.31,-34.41 320.67,-33.51"/>
<polygon fill="black" stroke="black" points="321.79,-30.19 311.19,-30.06 319.39,-36.77 321.79,-30.19"/>
<text text-anchor="middle" x="517.05" y="-57.8" font-family="Times,serif" font-size="14.00">dep</text>
</g>
<!-- 5 -->
<g id="node6" class="node">
<title>5</title>
<ellipse fill="none" stroke="black" cx="386.55" cy="-18" rx="48.99" ry="18"/>
<text text-anchor="middle" x="386.55" y="-14.3" font-family="Times,serif" font-size="14.00">também</text>
</g>
<!-- 0&#45;&gt;5 -->
<g id="edge5" class="edge">
<title>0&#45;&gt;5</title>
<path fill="none" stroke="black" d="M2245.8,-103.79C1997.89,-102.7 978.67,-96.58 660.55,-69 563.8,-60.61 539.35,-57.04 444.55,-36 440.45,-35.09 436.23,-34.05 432.01,-32.95"/>
<polygon fill="black" stroke="black" points="432.81,-29.54 422.24,-30.27 430.96,-36.29 432.81,-29.54"/>
<text text-anchor="middle" x="674.05" y="-57.8" font-family="Times,serif" font-size="14.00">dep</text>
</g>
<!-- 6 -->
<g id="node7" class="node">
<title>6</title>
<ellipse fill="none" stroke="black" cx="548.55" cy="-18" rx="94.78" ry="18"/>
<text text-anchor="middle" x="548.55" y="-14.3" font-family="Times,serif" font-size="14.00">responsabilidades</text>
</g>
<!-- 0&#45;&gt;6 -->
<g id="edge6" class="edge">
<title>0&#45;&gt;6</title>
<path fill="none" stroke="black" d="M2245.89,-104.12C2009.48,-104.43 1073.65,-103.4 781.55,-69 722.98,-62.1 657.4,-47.39 610.77,-35.69"/>
<polygon fill="black" stroke="black" points="611.37,-32.24 600.82,-33.17 609.65,-39.02 611.37,-32.24"/>
<text text-anchor="middle" x="795.05" y="-57.8" font-family="Times,serif" font-size="14.00">dep</text>
</g>
<!-- 7 -->
<g id="node8" class="node">
<title>7</title>
<ellipse fill="none" stroke="black" cx="723.55" cy="-18" rx="61.99" ry="18"/>
<text text-anchor="middle" x="723.55" y="-14.3" font-family="Times,serif" font-size="14.00">partidárias</text>
</g>
<!-- 0&#45;&gt;7 -->
<g id="edge7" class="edge">
<title>0&#45;&gt;7</title>
<path fill="none" stroke="black" d="M2245.89,-103.65C2000.51,-101.94 1006.61,-93.55 869.55,-69 833.41,-62.53 794.14,-48.66 765.43,-37.17"/>
<polygon fill="black" stroke="black" points="766.7,-33.91 756.12,-33.38 764.06,-40.39 766.7,-33.91"/>
<text text-anchor="middle" x="883.05" y="-57.8" font-family="Times,serif" font-size="14.00">dep</text>
</g>
<!-- 8 -->
<g id="node9" class="node">
<title>8</title>
<ellipse fill="none" stroke="black" cx="830.55" cy="-18" rx="27" ry="18"/>
<text text-anchor="middle" x="830.55" y="-14.3" font-family="Times,serif" font-size="14.00">a</text>
</g>
<!-- 0&#45;&gt;8 -->
<g id="edge8" class="edge">
<title>0&#45;&gt;8</title>
<path fill="none" stroke="black" d="M2246,-103.78C2008.89,-102.65 1073.98,-96.48 945.55,-69 914.81,-62.42 882.17,-47.36 859.54,-35.48"/>
<polygon fill="black" stroke="black" points="860.96,-32.27 850.49,-30.61 857.64,-38.43 860.96,-32.27"/>
<text text-anchor="middle" x="959.05" y="-57.8" font-family="Times,serif" font-size="14.00">dep</text>
</g>
<!-- 9 -->
<g id="node10" class="node">
<title>9</title>
<ellipse fill="none" stroke="black" cx="902.55" cy="-18" rx="27" ry="18"/>
<text text-anchor="middle" x="902.55" y="-14.3" font-family="Times,serif" font-size="14.00">o</text>
</g>
<!-- 0&#45;&gt;9 -->
<g id="edge9" class="edge">
<title>0&#45;&gt;9</title>
<path fill="none" stroke="black" d="M2246.11,-103.6C2017.88,-101.8 1144.35,-93.34 1023.55,-69 990.84,-62.41 955.86,-46.94 931.97,-34.94"/>
<polygon fill="black" stroke="black" points="933.25,-31.66 922.76,-30.21 930.06,-37.89 933.25,-31.66"/>
<text text-anchor="middle" x="1037.05" y="-57.8" font-family="Times,serif" font-size="14.00">dep</text>
</g>
<!-- 10 -->
<g id="node11" class="node">
<title>10</title>
<ellipse fill="none" stroke="black" cx="980.55" cy="-18" rx="33.29" ry="18"/>
<text text-anchor="middle" x="980.55" y="-14.3" font-family="Times,serif" font-size="14.00">nível</text>
</g>
<!-- 0&#45;&gt;10 -->
<g id="edge10" class="edge">
<title>0&#45;&gt;10</title>
<path fill="none" stroke="black" d="M2246.12,-103.57C2026.79,-101.67 1214.13,-93.06 1101.55,-69 1070.09,-62.28 1036.44,-47.71 1012.63,-36.03"/>
<polygon fill="black" stroke="black" points="1013.89,-32.74 1003.38,-31.39 1010.75,-39 1013.89,-32.74"/>
<text text-anchor="middle" x="1115.05" y="-57.8" font-family="Times,serif" font-size="14.00">dep</text>
</g>
<!-- 11 -->
<g id="node12" class="node">
<title>11</title>
<ellipse fill="none" stroke="black" cx="1058.55" cy="-18" rx="27" ry="18"/>
<text text-anchor="middle" x="1058.55" y="-14.3" font-family="Times,serif" font-size="14.00">de</text>
</g>
<!-- 0&#45;&gt;11 -->
<g id="edge11" class="edge">
<title>0&#45;&gt;11</title>
<path fill="none" stroke="black" d="M2245.84,-103.36C2035.49,-100.77 1285.32,-90.11 1180.55,-69 1147.46,-62.33 1112.02,-46.76 1087.91,-34.75"/>
<polygon fill="black" stroke="black" points="1089.44,-31.61 1078.94,-30.19 1086.27,-37.84 1089.44,-31.61"/>
<text text-anchor="middle" x="1194.05" y="-57.8" font-family="Times,serif" font-size="14.00">dep</text>
</g>
<!-- 12 -->
<g id="node13" class="node">
<title>12</title>
<ellipse fill="none" stroke="black" cx="1130.55" cy="-18" rx="27" ry="18"/>
<text text-anchor="middle" x="1130.55" y="-14.3" font-family="Times,serif" font-size="14.00">o</text>
</g>
<!-- 0&#45;&gt;12 -->
<g id="edge12" class="edge">
<title>0&#45;&gt;12</title>
<path fill="none" stroke="black" d="M2245.84,-104.15C2060.74,-104.35 1458.92,-102.35 1268.55,-69 1221.61,-60.78 1210.85,-53.54 1166.55,-36 1164.71,-35.27 1162.84,-34.5 1160.97,-33.7"/>
<polygon fill="black" stroke="black" points="1162.22,-30.42 1151.67,-29.53 1159.36,-36.81 1162.22,-30.42"/>
<text text-anchor="middle" x="1282.05" y="-57.8" font-family="Times,serif" font-size="14.00">dep</text>
</g>
<!-- 13 -->
<g id="node14" class="node">
<title>13</title>
<ellipse fill="none" stroke="black" cx="1220.55" cy="-18" rx="44.69" ry="18"/>
<text text-anchor="middle" x="1220.55" y="-14.3" font-family="Times,serif" font-size="14.00">distrito</text>
</g>
<!-- 0&#45;&gt;13 -->
<g id="edge13" class="edge">
<title>0&#45;&gt;13</title>
<path fill="none" stroke="black" d="M2245.89,-104.35C2070.53,-105.08 1523.45,-104.41 1350.55,-69 1317.78,-62.29 1282.46,-48.23 1256.93,-36.73"/>
<polygon fill="black" stroke="black" points="1258.19,-33.46 1247.64,-32.46 1255.27,-39.82 1258.19,-33.46"/>
<text text-anchor="middle" x="1364.05" y="-57.8" font-family="Times,serif" font-size="14.00">dep</text>
</g>
<!-- 14 -->
<g id="node15" class="node">
<title>14</title>
<ellipse fill="none" stroke="black" cx="1310.55" cy="-18" rx="27" ry="18"/>
<text text-anchor="middle" x="1310.55" y="-14.3" font-family="Times,serif" font-size="14.00">de</text>
</g>
<!-- 0&#45;&gt;14 -->
<g id="edge14" class="edge">
<title>0&#45;&gt;14</title>
<path fill="none" stroke="black" d="M2245.97,-104.27C2080.26,-104.71 1584.68,-103.06 1427.55,-69 1396.05,-62.17 1362.45,-46.89 1339.38,-35"/>
<polygon fill="black" stroke="black" points="1340.95,-31.88 1330.47,-30.31 1337.69,-38.07 1340.95,-31.88"/>
<text text-anchor="middle" x="1441.05" y="-57.8" font-family="Times,serif" font-size="14.00">dep</text>
</g>
<!-- 15 -->
<g id="node16" class="node">
<title>15</title>
<ellipse fill="none" stroke="black" cx="1386.55" cy="-18" rx="31.4" ry="18"/>
<text text-anchor="middle" x="1386.55" y="-14.3" font-family="Times,serif" font-size="14.00">Beja</text>
</g>
<!-- 0&#45;&gt;15 -->
<g id="edge15" class="edge">
<title>0&#45;&gt;15</title>
<path fill="none" stroke="black" d="M2245.83,-104.22C2089.44,-104.43 1642.64,-102.05 1500.55,-69 1470.89,-62.1 1439.35,-47.66 1416.98,-36.06"/>
<polygon fill="black" stroke="black" points="1418.47,-32.88 1407.99,-31.29 1415.19,-39.07 1418.47,-32.88"/>
<text text-anchor="middle" x="1514.05" y="-57.8" font-family="Times,serif" font-size="14.00">dep</text>
</g>
<!-- 16 -->
<g id="node17" class="node">
<title>16</title>
<ellipse fill="none" stroke="black" cx="1462.55" cy="-18" rx="27" ry="18"/>
<text text-anchor="middle" x="1462.55" y="-14.3" font-family="Times,serif" font-size="14.00">&#45;&#45;</text>
</g>
<!-- 0&#45;&gt;16 -->
<g id="edge16" class="edge">
<title>0&#45;&gt;16</title>
<path fill="none" stroke="black" d="M2245.88,-103.83C2099.96,-102.99 1703.76,-98.02 1576.55,-69 1546.13,-62.06 1513.76,-47.05 1491.32,-35.27"/>
<polygon fill="black" stroke="black" points="1492.81,-32.1 1482.34,-30.46 1489.5,-38.27 1492.81,-32.1"/>
<text text-anchor="middle" x="1590.05" y="-57.8" font-family="Times,serif" font-size="14.00">dep</text>
</g>
<!-- 17 -->
<g id="node18" class="node">
<title>17</title>
<ellipse fill="none" stroke="black" cx="1534.55" cy="-18" rx="27" ry="18"/>
<text text-anchor="middle" x="1534.55" y="-14.3" font-family="Times,serif" font-size="14.00">diz</text>
</g>
<!-- 0&#45;&gt;17 -->
<g id="edge17" class="edge">
<title>0&#45;&gt;17</title>
<path fill="none" stroke="black" d="M2245.76,-103.28C2111.08,-101.14 1766.63,-93.39 1654.55,-69 1622.37,-62 1587.89,-46.74 1564.19,-34.91"/>
<polygon fill="black" stroke="black" points="1565.54,-31.66 1555.04,-30.24 1562.36,-37.9 1565.54,-31.66"/>
<text text-anchor="middle" x="1668.05" y="-57.8" font-family="Times,serif" font-size="14.00">dep</text>
</g>
<!-- 18 -->
<g id="node19" class="node">
<title>18</title>
<ellipse fill="none" stroke="black" cx="1607.55" cy="-18" rx="27.9" ry="18"/>
<text text-anchor="middle" x="1607.55" y="-14.3" font-family="Times,serif" font-size="14.00">que</text>
</g>
<!-- 0&#45;&gt;18 -->
<g id="edge18" class="edge">
<title>0&#45;&gt;18</title>
<path fill="none" stroke="black" d="M2245.95,-102.76C2123.04,-99.64 1827.8,-90.12 1730.55,-69 1697.54,-61.83 1662.01,-46.48 1637.67,-34.67"/>
<polygon fill="black" stroke="black" points="1639.11,-31.48 1628.6,-30.18 1636.01,-37.76 1639.11,-31.48"/>
<text text-anchor="middle" x="1744.05" y="-57.8" font-family="Times,serif" font-size="14.00">dep</text>
</g>
<!-- 19 -->
<g id="node20" class="node">
<title>19</title>
<ellipse fill="none" stroke="black" cx="1680.55" cy="-18" rx="27.1" ry="18"/>
<text text-anchor="middle" x="1680.55" y="-14.3" font-family="Times,serif" font-size="14.00">não</text>
</g>
<!-- 0&#45;&gt;19 -->
<g id="edge19" class="edge">
<title>0&#45;&gt;19</title>
<path fill="none" stroke="black" d="M2246.39,-102.05C2136.34,-97.77 1890.01,-86.52 1807.55,-69 1773.02,-61.66 1735.67,-45.93 1710.48,-34.06"/>
<polygon fill="black" stroke="black" points="1711.98,-30.9 1701.45,-29.73 1708.95,-37.21 1711.98,-30.9"/>
<text text-anchor="middle" x="1821.05" y="-57.8" font-family="Times,serif" font-size="14.00">dep</text>
</g>
<!-- 20 -->
<g id="node21" class="node">
<title>20</title>
<ellipse fill="none" stroke="black" cx="1752.55" cy="-18" rx="27" ry="18"/>
<text text-anchor="middle" x="1752.55" y="-14.3" font-family="Times,serif" font-size="14.00">se</text>
</g>
<!-- 0&#45;&gt;20 -->
<g id="edge20" class="edge">
<title>0&#45;&gt;20</title>
<path fill="none" stroke="black" d="M2246.38,-102.68C2169.05,-100.02 2022.81,-92.12 1900.55,-69 1849.56,-59.36 1837.04,-54.47 1788.55,-36 1786.71,-35.3 1784.83,-34.54 1782.95,-33.75"/>
<polygon fill="black" stroke="black" points="1784.19,-30.48 1773.63,-29.62 1781.35,-36.88 1784.19,-30.48"/>
<text text-anchor="middle" x="1914.05" y="-57.8" font-family="Times,serif" font-size="14.00">dep</text>
</g>
<!-- 21 -->
<g id="node22" class="node">
<title>21</title>
<ellipse fill="none" stroke="black" cx="1843.55" cy="-18" rx="46.29" ry="18"/>
<text text-anchor="middle" x="1843.55" y="-14.3" font-family="Times,serif" font-size="14.00">recorda</text>
</g>
<!-- 0&#45;&gt;21 -->
<g id="edge21" class="edge">
<title>0&#45;&gt;21</title>
<path fill="none" stroke="black" d="M2246.55,-101.99C2182.58,-98.72 2073.12,-90.29 1981.55,-69 1947.28,-61.03 1909.84,-47.12 1882.62,-35.99"/>
<polygon fill="black" stroke="black" points="1883.65,-32.63 1873.07,-32.03 1880.97,-39.09 1883.65,-32.63"/>
<text text-anchor="middle" x="1995.05" y="-57.8" font-family="Times,serif" font-size="14.00">dep</text>
</g>
<!-- 22 -->
<g id="node23" class="node">
<title>22</title>
<ellipse fill="none" stroke="black" cx="1934.55" cy="-18" rx="27" ry="18"/>
<text text-anchor="middle" x="1934.55" y="-14.3" font-family="Times,serif" font-size="14.00">de</text>
</g>
<!-- 0&#45;&gt;22 -->
<g id="edge22" class="edge">
<title>0&#45;&gt;22</title>
<path fill="none" stroke="black" d="M2248.22,-99.81C2198.57,-95.05 2122.13,-85.68 2057.55,-69 2024.84,-60.55 1989.27,-45.39 1964.84,-33.97"/>
<polygon fill="black" stroke="black" points="1966.26,-30.77 1955.73,-29.65 1963.26,-37.1 1966.26,-30.77"/>
<text text-anchor="middle" x="2071.05" y="-57.8" font-family="Times,serif" font-size="14.00">dep</text>
</g>
<!-- 23 -->
<g id="node24" class="node">
<title>23</title>
<ellipse fill="none" stroke="black" cx="2006.55" cy="-18" rx="27" ry="18"/>
<text text-anchor="middle" x="2006.55" y="-14.3" font-family="Times,serif" font-size="14.00">ter</text>
</g>
<!-- 0&#45;&gt;23 -->
<g id="edge23" class="edge">
<title>0&#45;&gt;23</title>
<path fill="none" stroke="black" d="M2253.56,-95.74C2220.32,-89.49 2174.86,-80.09 2135.55,-69 2093.34,-57.09 2083.09,-52.72 2042.55,-36 2040.72,-35.25 2038.86,-34.45 2036.99,-33.64"/>
<polygon fill="black" stroke="black" points="2038.26,-30.37 2027.71,-29.42 2035.37,-36.74 2038.26,-30.37"/>
<text text-anchor="middle" x="2149.05" y="-57.8" font-family="Times,serif" font-size="14.00">dep</text>
</g>
<!-- 24 -->
<g id="node25" class="node">
<title>24</title>
<ellipse fill="none" stroke="black" cx="2093.55" cy="-18" rx="41.69" ry="18"/>
<text text-anchor="middle" x="2093.55" y="-14.3" font-family="Times,serif" font-size="14.00">ouvido</text>
</g>
<!-- 0&#45;&gt;24 -->
<g id="edge24" class="edge">
<title>0&#45;&gt;24</title>
<path fill="none" stroke="black" d="M2262.38,-92.05C2243.06,-85.71 2219.35,-77.49 2198.55,-69 2174.82,-59.32 2148.82,-46.95 2128.62,-36.94"/>
<polygon fill="black" stroke="black" points="2130.01,-33.71 2119.5,-32.38 2126.88,-39.98 2130.01,-33.71"/>
<text text-anchor="middle" x="2212.05" y="-57.8" font-family="Times,serif" font-size="14.00">dep</text>
</g>
<!-- 25 -->
<g id="node26" class="node">
<title>25</title>
<ellipse fill="none" stroke="black" cx="2185.55" cy="-18" rx="32.49" ry="18"/>
<text text-anchor="middle" x="2185.55" y="-14.3" font-family="Times,serif" font-size="14.00">falar</text>
</g>
<!-- 0&#45;&gt;25 -->
<g id="edge25" class="edge">
<title>0&#45;&gt;25</title>
<path fill="none" stroke="black" d="M2276.98,-88.7C2267.97,-82.71 2257.68,-75.68 2248.55,-69 2235.85,-59.71 2222.13,-48.92 2210.74,-39.74"/>
<polygon fill="black" stroke="black" points="2212.88,-36.97 2202.91,-33.38 2208.47,-42.4 2212.88,-36.97"/>
<text text-anchor="middle" x="2262.05" y="-57.8" font-family="Times,serif" font-size="14.00">dep</text>
</g>
<!-- 26 -->
<g id="node27" class="node">
<title>26</title>
<ellipse fill="none" stroke="black" cx="2262.55" cy="-18" rx="27" ry="18"/>
<text text-anchor="middle" x="2262.55" y="-14.3" font-family="Times,serif" font-size="14.00">em</text>
</g>
<!-- 0&#45;&gt;26 -->
<g id="edge26" class="edge">
<title>0&#45;&gt;26</title>
<path fill="none" stroke="black" d="M2292.86,-86.8C2287.48,-74.78 2280.21,-58.51 2274.13,-44.92"/>
<polygon fill="black" stroke="black" points="2277.24,-43.3 2269.97,-35.6 2270.85,-46.15 2277.24,-43.3"/>
<text text-anchor="middle" x="2298.05" y="-57.8" font-family="Times,serif" font-size="14.00">dep</text>
</g>
<!-- 27 -->
<g id="node28" class="node">
<title>27</title>
<ellipse fill="none" stroke="black" cx="2338.55" cy="-18" rx="30.59" ry="18"/>
<text text-anchor="middle" x="2338.55" y="-14.3" font-family="Times,serif" font-size="14.00">este</text>
</g>
<!-- 0&#45;&gt;27 -->
<g id="edge27" class="edge">
<title>0&#45;&gt;27</title>
<path fill="none" stroke="black" d="M2308.24,-86.8C2313.61,-74.78 2320.88,-58.51 2326.96,-44.92"/>
<polygon fill="black" stroke="black" points="2330.24,-46.15 2331.13,-35.6 2323.85,-43.3 2330.24,-46.15"/>
<text text-anchor="middle" x="2336.05" y="-57.8" font-family="Times,serif" font-size="14.00">dep</text>
</g>
<!-- 28 -->
<g id="node29" class="node">
<title>28</title>
<ellipse fill="none" stroke="black" cx="2433.55" cy="-18" rx="46.29" ry="18"/>
<text text-anchor="middle" x="2433.55" y="-14.3" font-family="Times,serif" font-size="14.00">número</text>
</g>
<!-- 0&#45;&gt;28 -->
<g id="edge28" class="edge">
<title>0&#45;&gt;28</title>
<path fill="none" stroke="black" d="M2324.63,-88.61C2346.27,-74.78 2378.19,-54.38 2401.89,-39.23"/>
<polygon fill="black" stroke="black" points="2403.99,-42.04 2410.53,-33.71 2400.22,-36.15 2403.99,-42.04"/>
<text text-anchor="middle" x="2389.05" y="-57.8" font-family="Times,serif" font-size="14.00">dep</text>
</g>
<!-- 29 -->
<g id="node30" class="node">
<title>29</title>
<ellipse fill="none" stroke="black" cx="2524.55" cy="-18" rx="27" ry="18"/>
<text text-anchor="middle" x="2524.55" y="-14.3" font-family="Times,serif" font-size="14.00">,</text>
</g>
<!-- 0&#45;&gt;29 -->
<g id="edge29" class="edge">
<title>0&#45;&gt;29</title>
<path fill="none" stroke="black" d="M2339.02,-91.95C2359.23,-85.45 2384.34,-77.12 2406.55,-69 2443.44,-55.5 2452.55,-51.73 2488.55,-36 2490.35,-35.21 2492.2,-34.39 2494.06,-33.55"/>
<polygon fill="black" stroke="black" points="2495.71,-36.64 2503.32,-29.28 2492.77,-30.29 2495.71,-36.64"/>
<text text-anchor="middle" x="2459.05" y="-57.8" font-family="Times,serif" font-size="14.00">dep</text>
</g>
<!-- 30 -->
<g id="node31" class="node">
<title>30</title>
<ellipse fill="none" stroke="black" cx="2599.55" cy="-18" rx="29.8" ry="18"/>
<text text-anchor="middle" x="2599.55" y="-14.3" font-family="Times,serif" font-size="14.00">mas</text>
</g>
<!-- 0&#45;&gt;30 -->
<g id="edge30" class="edge">
<title>0&#45;&gt;30</title>
<path fill="none" stroke="black" d="M2349.29,-96.7C2384.94,-90.79 2434.25,-81.41 2476.55,-69 2515.04,-57.71 2523.49,-51.35 2560.55,-36 2562.6,-35.15 2564.71,-34.27 2566.83,-33.37"/>
<polygon fill="black" stroke="black" points="2568.29,-36.55 2576.1,-29.39 2565.53,-30.12 2568.29,-36.55"/>
<text text-anchor="middle" x="2533.05" y="-57.8" font-family="Times,serif" font-size="14.00">dep</text>
</g>
<!-- 31 -->
<g id="node32" class="node">
<title>31</title>
<ellipse fill="none" stroke="black" cx="2698.55" cy="-18" rx="51.19" ry="18"/>
<text text-anchor="middle" x="2698.55" y="-14.3" font-family="Times,serif" font-size="14.00">confirma</text>
</g>
<!-- 0&#45;&gt;31 -->
<g id="edge31" class="edge">
<title>0&#45;&gt;31</title>
<path fill="none" stroke="black" d="M2352.78,-99.55C2403.73,-94.54 2483.16,-84.95 2550.55,-69 2586.94,-60.38 2627.08,-46.54 2656.36,-35.6"/>
<polygon fill="black" stroke="black" points="2657.73,-38.82 2665.85,-32.02 2655.26,-32.28 2657.73,-38.82"/>
<text text-anchor="middle" x="2614.05" y="-57.8" font-family="Times,serif" font-size="14.00">dep</text>
</g>
<!-- 32 -->
<g id="node33" class="node">
<title>32</title>
<ellipse fill="none" stroke="black" cx="2795.55" cy="-18" rx="27.9" ry="18"/>
<text text-anchor="middle" x="2795.55" y="-14.3" font-family="Times,serif" font-size="14.00">que</text>
</g>
<!-- 0&#45;&gt;32 -->
<g id="edge32" class="edge">
<title>0&#45;&gt;32</title>
<path fill="none" stroke="black" d="M2353.92,-100.81C2419.64,-96.32 2534.47,-86.64 2631.55,-69 2688.93,-58.57 2703.61,-55.58 2758.55,-36 2760.44,-35.32 2762.38,-34.59 2764.32,-33.81"/>
<polygon fill="black" stroke="black" points="2766.08,-36.87 2773.9,-29.72 2763.33,-30.43 2766.08,-36.87"/>
<text text-anchor="middle" x="2716.05" y="-57.8" font-family="Times,serif" font-size="14.00">dep</text>
</g>
<!-- 33 -->
<g id="node34" class="node">
<title>33</title>
<ellipse fill="none" stroke="black" cx="2868.55" cy="-18" rx="27" ry="18"/>
<text text-anchor="middle" x="2868.55" y="-14.3" font-family="Times,serif" font-size="14.00">a</text>
</g>
<!-- 0&#45;&gt;33 -->
<g id="edge33" class="edge">
<title>0&#45;&gt;33</title>
<path fill="none" stroke="black" d="M2355.14,-103.78C2437.83,-102.52 2599.42,-96.36 2733.55,-69 2778.99,-59.73 2789.5,-53.27 2832.55,-36 2834.37,-35.27 2836.24,-34.49 2838.12,-33.68"/>
<polygon fill="black" stroke="black" points="2839.73,-36.79 2847.41,-29.49 2836.86,-30.41 2839.73,-36.79"/>
<text text-anchor="middle" x="2801.05" y="-57.8" font-family="Times,serif" font-size="14.00">dep</text>
</g>
<!-- 34 -->
<g id="node35" class="node">
<title>34</title>
<ellipse fill="none" stroke="black" cx="2971.55" cy="-18" rx="57.69" ry="18"/>
<text text-anchor="middle" x="2971.55" y="-14.3" font-family="Times,serif" font-size="14.00">secretária</text>
</g>
<!-- 0&#45;&gt;34 -->
<g id="edge34" class="edge">
<title>0&#45;&gt;34</title>
<path fill="none" stroke="black" d="M2355.18,-104.73C2450.28,-105.03 2651.97,-101.32 2818.55,-69 2856.54,-61.63 2898.21,-47.6 2928.46,-36.27"/>
<polygon fill="black" stroke="black" points="2929.75,-39.52 2937.86,-32.7 2927.27,-32.98 2929.75,-39.52"/>
<text text-anchor="middle" x="2888.05" y="-57.8" font-family="Times,serif" font-size="14.00">dep</text>
</g>
<!-- 35 -->
<g id="node36" class="node">
<title>35</title>
<ellipse fill="none" stroke="black" cx="3074.55" cy="-18" rx="27" ry="18"/>
<text text-anchor="middle" x="3074.55" y="-14.3" font-family="Times,serif" font-size="14.00">de</text>
</g>
<!-- 0&#45;&gt;35 -->
<g id="edge35" class="edge">
<title>0&#45;&gt;35</title>
<path fill="none" stroke="black" d="M2355.13,-104.22C2461.61,-103.9 2704.27,-99.52 2905.55,-69 2965.76,-59.87 2981.17,-56.44 3038.55,-36 3040.45,-35.32 3042.39,-34.58 3044.33,-33.79"/>
<polygon fill="black" stroke="black" points="3046.14,-36.82 3053.9,-29.6 3043.34,-30.4 3046.14,-36.82"/>
<text text-anchor="middle" x="2996.05" y="-57.8" font-family="Times,serif" font-size="14.00">dep</text>
</g>
<!-- 36 -->
<g id="node37" class="node">
<title>36</title>
<ellipse fill="none" stroke="black" cx="3162.55" cy="-18" rx="42.79" ry="18"/>
<text text-anchor="middle" x="3162.55" y="-14.3" font-family="Times,serif" font-size="14.00">Estado</text>
</g>
<!-- 0&#45;&gt;36 -->
<g id="edge36" class="edge">
<title>0&#45;&gt;36</title>
<path fill="none" stroke="black" d="M2355.06,-103.26C2499.12,-100.98 2887.5,-92.77 3013.55,-69 3052.09,-61.73 3094.33,-46.86 3123.96,-35.22"/>
<polygon fill="black" stroke="black" points="3125.51,-38.37 3133.5,-31.41 3122.92,-31.86 3125.51,-38.37"/>
<text text-anchor="middle" x="3082.05" y="-57.8" font-family="Times,serif" font-size="14.00">dep</text>
</g>
<!-- 37 -->
<g id="node38" class="node">
<title>37</title>
<ellipse fill="none" stroke="black" cx="3250.55" cy="-18" rx="27" ry="18"/>
<text text-anchor="middle" x="3250.55" y="-14.3" font-family="Times,serif" font-size="14.00">o</text>
</g>
<!-- 0&#45;&gt;37 -->
<g id="edge37" class="edge">
<title>0&#45;&gt;37</title>
<path fill="none" stroke="black" d="M2355.01,-103.28C2510.71,-100.97 2955.74,-92.45 3099.55,-69 3152.03,-60.44 3164.79,-54.75 3214.55,-36 3216.39,-35.31 3218.27,-34.55 3220.15,-33.77"/>
<polygon fill="black" stroke="black" points="3221.74,-36.89 3229.47,-29.65 3218.91,-30.49 3221.74,-36.89"/>
<text text-anchor="middle" x="3178.05" y="-57.8" font-family="Times,serif" font-size="14.00">dep</text>
</g>
<!-- 38 -->
<g id="node39" class="node">
<title>38</title>
<ellipse fill="none" stroke="black" cx="3348.55" cy="-18" rx="52.79" ry="18"/>
<text text-anchor="middle" x="3348.55" y="-14.3" font-family="Times,serif" font-size="14.00">informou</text>
</g>
<!-- 0&#45;&gt;38 -->
<g id="edge38" class="edge">
<title>0&#45;&gt;38</title>
<path fill="none" stroke="black" d="M2355.2,-103.84C2523.6,-103.03 3032.92,-98.17 3195.55,-69 3234.27,-62.06 3276.66,-47.63 3306.99,-36.05"/>
<polygon fill="black" stroke="black" points="3308.33,-39.28 3316.39,-32.4 3305.8,-32.76 3308.33,-39.28"/>
<text text-anchor="middle" x="3265.05" y="-57.8" font-family="Times,serif" font-size="14.00">dep</text>
</g>
<!-- 39 -->
<g id="node40" class="node">
<title>39</title>
<ellipse fill="none" stroke="black" cx="3446.55" cy="-18" rx="27" ry="18"/>
<text text-anchor="middle" x="3446.55" y="-14.3" font-family="Times,serif" font-size="14.00">de</text>
</g>
<!-- 0&#45;&gt;39 -->
<g id="edge39" class="edge">
<title>0&#45;&gt;39</title>
<path fill="none" stroke="black" d="M2355.01,-103.61C2533.76,-102.09 3101.37,-95.27 3282.55,-69 3340.69,-60.57 3355.29,-55.97 3410.55,-36 3412.4,-35.33 3414.29,-34.6 3416.17,-33.83"/>
<polygon fill="black" stroke="black" points="3417.75,-36.96 3425.51,-29.75 3414.94,-30.55 3417.75,-36.96"/>
<text text-anchor="middle" x="3370.05" y="-57.8" font-family="Times,serif" font-size="14.00">dep</text>
</g>
<!-- 40 -->
<g id="node41" class="node">
<title>40</title>
<ellipse fill="none" stroke="black" cx="3519.55" cy="-18" rx="27.9" ry="18"/>
<text text-anchor="middle" x="3519.55" y="-14.3" font-family="Times,serif" font-size="14.00">que</text>
</g>
<!-- 0&#45;&gt;40 -->
<g id="edge40" class="edge">
<title>0&#45;&gt;40</title>
<path fill="none" stroke="black" d="M2355.18,-104.41C2546.62,-105.52 3186.35,-106.29 3387.55,-69 3423.65,-62.31 3462.72,-46.32 3488.91,-34.21"/>
<polygon fill="black" stroke="black" points="3490.73,-37.22 3498.28,-29.78 3487.74,-30.89 3490.73,-37.22"/>
<text text-anchor="middle" x="3454.05" y="-57.8" font-family="Times,serif" font-size="14.00">dep</text>
</g>
<!-- 41 -->
<g id="node42" class="node">
<title>41</title>
<ellipse fill="none" stroke="black" cx="3592.55" cy="-18" rx="27" ry="18"/>
<text text-anchor="middle" x="3592.55" y="-14.3" font-family="Times,serif" font-size="14.00">«</text>
</g>
<!-- 0&#45;&gt;41 -->
<g id="edge41" class="edge">
<title>0&#45;&gt;41</title>
<path fill="none" stroke="black" d="M2355.15,-103.46C2571.43,-101.16 3361.6,-91.3 3471.55,-69 3504.24,-62.37 3539.22,-46.9 3563.12,-34.92"/>
<polygon fill="black" stroke="black" points="3565.03,-37.87 3572.33,-30.19 3561.83,-31.64 3565.03,-37.87"/>
<text text-anchor="middle" x="3533.05" y="-57.8" font-family="Times,serif" font-size="14.00">dep</text>
</g>
<!-- 42 -->
<g id="node43" class="node">
<title>42</title>
<ellipse fill="none" stroke="black" cx="3664.55" cy="-18" rx="27" ry="18"/>
<text text-anchor="middle" x="3664.55" y="-14.3" font-family="Times,serif" font-size="14.00">o</text>
</g>
<!-- 0&#45;&gt;42 -->
<g id="edge42" class="edge">
<title>0&#45;&gt;42</title>
<path fill="none" stroke="black" d="M2355.37,-103.66C2581.18,-102.1 3432.94,-94.57 3550.55,-69 3581.04,-62.37 3613.39,-47.32 3635.81,-35.45"/>
<polygon fill="black" stroke="black" points="3637.66,-38.43 3644.78,-30.59 3634.32,-32.28 3637.66,-38.43"/>
<text text-anchor="middle" x="3610.05" y="-57.8" font-family="Times,serif" font-size="14.00">dep</text>
</g>
<!-- 43 -->
<g id="node44" class="node">
<title>43</title>
<ellipse fill="none" stroke="black" cx="3760.55" cy="-18" rx="50.89" ry="18"/>
<text text-anchor="middle" x="3760.55" y="-14.3" font-family="Times,serif" font-size="14.00">relatório</text>
</g>
<!-- 0&#45;&gt;43 -->
<g id="edge43" class="edge">
<title>0&#45;&gt;43</title>
<path fill="none" stroke="black" d="M2355.12,-103.63C2589.13,-101.9 3501.52,-93.63 3627.55,-69 3660.86,-62.49 3696.79,-48.53 3722.89,-37.01"/>
<polygon fill="black" stroke="black" points="3724.36,-40.19 3732.04,-32.9 3721.49,-33.81 3724.36,-40.19"/>
<text text-anchor="middle" x="3694.05" y="-57.8" font-family="Times,serif" font-size="14.00">dep</text>
</g>
<!-- 44 -->
<g id="node45" class="node">
<title>44</title>
<ellipse fill="none" stroke="black" cx="3882.55" cy="-18" rx="53.09" ry="18"/>
<text text-anchor="middle" x="3882.55" y="-14.3" font-family="Times,serif" font-size="14.00">apontava</text>
</g>
<!-- 0&#45;&gt;44 -->
<g id="edge44" class="edge">
<title>0&#45;&gt;44</title>
<path fill="none" stroke="black" d="M2355.23,-103.48C2598.44,-101.07 3576.04,-90.12 3711.55,-69 3755.77,-62.11 3804.64,-47.03 3838.77,-35.22"/>
<polygon fill="black" stroke="black" points="3840.15,-38.45 3848.43,-31.83 3837.83,-31.84 3840.15,-38.45"/>
<text text-anchor="middle" x="3792.05" y="-57.8" font-family="Times,serif" font-size="14.00">dep</text>
</g>
<!-- 45 -->
<g id="node46" class="node">
<title>45</title>
<ellipse fill="none" stroke="black" cx="3992.55" cy="-18" rx="38.99" ry="18"/>
<text text-anchor="middle" x="3992.55" y="-14.3" font-family="Times,serif" font-size="14.00">coisas</text>
</g>
<!-- 0&#45;&gt;45 -->
<g id="edge45" class="edge">
<title>0&#45;&gt;45</title>
<path fill="none" stroke="black" d="M2355.26,-104.32C2590.87,-105.43 3520.04,-107.28 3809.55,-69 3870.78,-60.9 3885.36,-53.67 3944.55,-36 3947.5,-35.12 3950.54,-34.16 3953.59,-33.17"/>
<polygon fill="black" stroke="black" points="3954.9,-36.42 3963.25,-29.9 3952.66,-29.79 3954.9,-36.42"/>
<text text-anchor="middle" x="3899.05" y="-57.8" font-family="Times,serif" font-size="14.00">dep</text>
</g>
<!-- 46 -->
<g id="node47" class="node">
<title>46</title>
<ellipse fill="none" stroke="black" cx="4077.55" cy="-18" rx="27.9" ry="18"/>
<text text-anchor="middle" x="4077.55" y="-14.3" font-family="Times,serif" font-size="14.00">que</text>
</g>
<!-- 0&#45;&gt;46 -->
<g id="edge46" class="edge">
<title>0&#45;&gt;46</title>
<path fill="none" stroke="black" d="M2355.02,-103.59C2619.05,-101.51 3759.48,-91.27 3916.55,-69 3973.01,-60.99 3986.88,-55.31 4040.55,-36 4042.44,-35.32 4044.37,-34.58 4046.31,-33.8"/>
<polygon fill="black" stroke="black" points="4048.08,-36.85 4055.89,-29.7 4045.32,-30.42 4048.08,-36.85"/>
<text text-anchor="middle" x="4002.05" y="-57.8" font-family="Times,serif" font-size="14.00">dep</text>
</g>
<!-- 47 -->
<g id="node48" class="node">
<title>47</title>
<ellipse fill="none" stroke="black" cx="4166.55" cy="-18" rx="43.59" ry="18"/>
<text text-anchor="middle" x="4166.55" y="-14.3" font-family="Times,serif" font-size="14.00">tinham</text>
</g>
<!-- 0&#45;&gt;47 -->
<g id="edge47" class="edge">
<title>0&#45;&gt;47</title>
<path fill="none" stroke="black" d="M2355.3,-103.88C2630.15,-103.17 3852.71,-98.35 4019.55,-69 4057.71,-62.29 4099.36,-47.35 4128.56,-35.54"/>
<polygon fill="black" stroke="black" points="4130.04,-38.71 4137.96,-31.67 4127.38,-32.24 4130.04,-38.71"/>
<text text-anchor="middle" x="4091.05" y="-57.8" font-family="Times,serif" font-size="14.00">dep</text>
</g>
<!-- 48 -->
<g id="node49" class="node">
<title>48</title>
<ellipse fill="none" stroke="black" cx="4255.55" cy="-18" rx="27" ry="18"/>
<text text-anchor="middle" x="4255.55" y="-14.3" font-family="Times,serif" font-size="14.00">de</text>
</g>
<!-- 0&#45;&gt;48 -->
<g id="edge48" class="edge">
<title>0&#45;&gt;48</title>
<path fill="none" stroke="black" d="M2355.28,-103.82C2638.58,-102.76 3931.91,-96.45 4108.55,-69 4159.4,-61.1 4171.47,-54.37 4219.55,-36 4221.39,-35.3 4223.26,-34.54 4225.14,-33.75"/>
<polygon fill="black" stroke="black" points="4226.74,-36.87 4234.46,-29.61 4223.9,-30.47 4226.74,-36.87"/>
<text text-anchor="middle" x="4185.05" y="-57.8" font-family="Times,serif" font-size="14.00">dep</text>
</g>
<!-- 49 -->
<g id="node50" class="node">
<title>49</title>
<ellipse fill="none" stroke="black" cx="4327.55" cy="-18" rx="27" ry="18"/>
<text text-anchor="middle" x="4327.55" y="-14.3" font-family="Times,serif" font-size="14.00">ser</text>
</g>
<!-- 0&#45;&gt;49 -->
<g id="edge49" class="edge">
<title>0&#45;&gt;49</title>
<path fill="none" stroke="black" d="M2355.26,-104.09C2647.4,-104.41 4017.16,-104.03 4202.55,-69 4236.61,-62.56 4273.16,-46.8 4297.88,-34.68"/>
<polygon fill="black" stroke="black" points="4299.7,-37.69 4307.07,-30.08 4296.56,-31.43 4299.7,-37.69"/>
<text text-anchor="middle" x="4266.05" y="-57.8" font-family="Times,serif" font-size="14.00">dep</text>
</g>
<!-- 50 -->
<g id="node51" class="node">
<title>50</title>
<ellipse fill="none" stroke="black" cx="4440.55" cy="-18" rx="67.69" ry="18"/>
<text text-anchor="middle" x="4440.55" y="-14.3" font-family="Times,serif" font-size="14.00">esclarecidas</text>
</g>
<!-- 0&#45;&gt;50 -->
<g id="edge50" class="edge">
<title>0&#45;&gt;50</title>
<path fill="none" stroke="black" d="M2355.09,-103.98C2654.18,-103.76 4088.93,-101 4283.55,-69 4322.39,-62.61 4364.84,-48.65 4395.79,-37.09"/>
<polygon fill="black" stroke="black" points="4397.31,-40.26 4405.42,-33.44 4394.83,-33.71 4397.31,-40.26"/>
<text text-anchor="middle" x="4359.05" y="-57.8" font-family="Times,serif" font-size="14.00">dep</text>
</g>
<!-- 51 -->
<g id="node52" class="node">
<title>51</title>
<ellipse fill="none" stroke="black" cx="4553.55" cy="-18" rx="27" ry="18"/>
<text text-anchor="middle" x="4553.55" y="-14.3" font-family="Times,serif" font-size="14.00">»</text>
</g>
<!-- 0&#45;&gt;51 -->
<g id="edge51" class="edge">
<title>0&#45;&gt;51</title>
<path fill="none" stroke="black" d="M2355.07,-103.78C2662.32,-102.42 4171.08,-94.48 4376.55,-69 4440.42,-61.08 4456.78,-57.19 4517.55,-36 4519.46,-35.33 4521.4,-34.6 4523.34,-33.82"/>
<polygon fill="black" stroke="black" points="4525.14,-36.85 4532.92,-29.65 4522.35,-30.43 4525.14,-36.85"/>
<text text-anchor="middle" x="4474.05" y="-57.8" font-family="Times,serif" font-size="14.00">dep</text>
</g>
<!-- 52 -->
<g id="node53" class="node">
<title>52</title>
<ellipse fill="none" stroke="black" cx="4625.55" cy="-18" rx="27" ry="18"/>
<text text-anchor="middle" x="4625.55" y="-14.3" font-family="Times,serif" font-size="14.00">.</text>
</g>
<!-- 0&#45;&gt;52 -->
<g id="edge52" class="edge">
<title>0&#45;&gt;52</title>
<path fill="none" stroke="black" d="M2355.26,-104.13C2673.12,-104.78 4275.56,-106.16 4491.55,-69 4528.6,-62.63 4568.69,-46.3 4595.27,-34.03"/>
<polygon fill="black" stroke="black" points="4596.87,-37.14 4604.42,-29.71 4593.89,-30.81 4596.87,-37.14"/>
<text text-anchor="middle" x="4558.05" y="-57.8" font-family="Times,serif" font-size="14.00">dep</text>
</g>
</g>
</svg>
