<?xml version="1.0" encoding="UTF-8" standalone="no"?>
<!DOCTYPE svg PUBLIC "-//W3C//DTD SVG 1.1//EN"
 "http://www.w3.org/Graphics/SVG/1.1/DTD/svg11.dtd">
<!-- Generated by graphviz version 2.42.4 (0)
 -->
<!-- Pages: 1 -->
<svg width="2112pt" height="131pt"
 viewBox="0.00 0.00 2111.59 131.00" xmlns="http://www.w3.org/2000/svg" xmlns:xlink="http://www.w3.org/1999/xlink">
<g id="graph0" class="graph" transform="scale(1 1) rotate(0) translate(4 127)">
<polygon fill="white" stroke="transparent" points="-4,4 -4,-127 2107.59,-127 2107.59,4 -4,4"/>
<!-- 0 -->
<g id="node1" class="node">
<title>0</title>
<ellipse fill="none" stroke="black" cx="1057.59" cy="-105" rx="35.19" ry="18"/>
<text text-anchor="middle" x="1057.59" y="-101.3" font-family="Times,serif" font-size="14.00">Boris</text>
</g>
<!-- 1 -->
<g id="node2" class="node">
<title>1</title>
<ellipse fill="none" stroke="black" cx="67.59" cy="-18" rx="67.69" ry="18"/>
<text text-anchor="middle" x="67.59" y="-14.3" font-family="Times,serif" font-size="14.00">Gorentzvaig</text>
</g>
<!-- 0&#45;&gt;1 -->
<g id="edge1" class="edge">
<title>0&#45;&gt;1</title>
<path fill="none" stroke="black" d="M1022.11,-103.76C883.88,-102.65 381.38,-96.75 224.59,-69 186.09,-62.19 143.94,-48.39 113.01,-37.01"/>
<polygon fill="black" stroke="black" points="113.98,-33.64 103.39,-33.42 111.53,-40.2 113.98,-33.64"/>
<text text-anchor="middle" x="238.09" y="-57.8" font-family="Times,serif" font-size="14.00">dep</text>
</g>
<!-- 2 -->
<g id="node3" class="node">
<title>2</title>
<ellipse fill="none" stroke="black" cx="180.59" cy="-18" rx="27" ry="18"/>
<text text-anchor="middle" x="180.59" y="-14.3" font-family="Times,serif" font-size="14.00">,</text>
</g>
<!-- 0&#45;&gt;2 -->
<g id="edge2" class="edge">
<title>0&#45;&gt;2</title>
<path fill="none" stroke="black" d="M1022.43,-103.82C893.15,-102.91 444.48,-97.74 304.59,-69 270.87,-62.07 234.6,-46.39 210.06,-34.42"/>
<polygon fill="black" stroke="black" points="211.45,-31.2 200.94,-29.88 208.33,-37.47 211.45,-31.2"/>
<text text-anchor="middle" x="318.09" y="-57.8" font-family="Times,serif" font-size="14.00">dep</text>
</g>
<!-- 3 -->
<g id="node4" class="node">
<title>3</title>
<ellipse fill="none" stroke="black" cx="252.59" cy="-18" rx="27" ry="18"/>
<text text-anchor="middle" x="252.59" y="-14.3" font-family="Times,serif" font-size="14.00">de</text>
</g>
<!-- 0&#45;&gt;3 -->
<g id="edge3" class="edge">
<title>0&#45;&gt;3</title>
<path fill="none" stroke="black" d="M1022.33,-103.39C902.54,-101.14 511.91,-92.14 388.59,-69 351.16,-61.97 310.43,-45.77 283.4,-33.7"/>
<polygon fill="black" stroke="black" points="284.65,-30.42 274.1,-29.47 281.75,-36.79 284.65,-30.42"/>
<text text-anchor="middle" x="402.09" y="-57.8" font-family="Times,serif" font-size="14.00">dep</text>
</g>
<!-- 4 -->
<g id="node5" class="node">
<title>4</title>
<ellipse fill="none" stroke="black" cx="324.59" cy="-18" rx="27" ry="18"/>
<text text-anchor="middle" x="324.59" y="-14.3" font-family="Times,serif" font-size="14.00">a</text>
</g>
<!-- 0&#45;&gt;4 -->
<g id="edge4" class="edge">
<title>0&#45;&gt;4</title>
<path fill="none" stroke="black" d="M1022.39,-103.77C934.42,-102.76 698.13,-97.4 503.59,-69 439.05,-59.58 422.22,-57.38 360.59,-36 358.68,-35.34 356.74,-34.6 354.8,-33.83"/>
<polygon fill="black" stroke="black" points="355.78,-30.44 345.22,-29.66 352.99,-36.86 355.78,-30.44"/>
<text text-anchor="middle" x="517.09" y="-57.8" font-family="Times,serif" font-size="14.00">dep</text>
</g>
<!-- 5 -->
<g id="node6" class="node">
<title>5</title>
<ellipse fill="none" stroke="black" cx="435.59" cy="-18" rx="66.09" ry="18"/>
<text text-anchor="middle" x="435.59" y="-14.3" font-family="Times,serif" font-size="14.00">Petroplastic</text>
</g>
<!-- 0&#45;&gt;5 -->
<g id="edge5" class="edge">
<title>0&#45;&gt;5</title>
<path fill="none" stroke="black" d="M1022.28,-104.22C943.72,-104.1 748.88,-100.34 589.59,-69 552.14,-61.63 511.08,-48.01 480.79,-36.84"/>
<polygon fill="black" stroke="black" points="481.94,-33.54 471.35,-33.31 479.49,-40.09 481.94,-33.54"/>
<text text-anchor="middle" x="603.09" y="-57.8" font-family="Times,serif" font-size="14.00">dep</text>
</g>
<!-- 6 -->
<g id="node7" class="node">
<title>6</title>
<ellipse fill="none" stroke="black" cx="546.59" cy="-18" rx="27" ry="18"/>
<text text-anchor="middle" x="546.59" y="-14.3" font-family="Times,serif" font-size="14.00">,</text>
</g>
<!-- 0&#45;&gt;6 -->
<g id="edge6" class="edge">
<title>0&#45;&gt;6</title>
<path fill="none" stroke="black" d="M1022.51,-104.36C952.99,-104.31 793.24,-100.42 663.59,-69 632.46,-61.46 599.05,-46.41 575.94,-34.79"/>
<polygon fill="black" stroke="black" points="577.5,-31.66 567.01,-30.21 574.31,-37.89 577.5,-31.66"/>
<text text-anchor="middle" x="677.09" y="-57.8" font-family="Times,serif" font-size="14.00">dep</text>
</g>
<!-- 7 -->
<g id="node8" class="node">
<title>7</title>
<ellipse fill="none" stroke="black" cx="618.59" cy="-18" rx="27" ry="18"/>
<text text-anchor="middle" x="618.59" y="-14.3" font-family="Times,serif" font-size="14.00">diz</text>
</g>
<!-- 0&#45;&gt;7 -->
<g id="edge7" class="edge">
<title>0&#45;&gt;7</title>
<path fill="none" stroke="black" d="M1022.49,-103.24C963.01,-101.27 839.01,-94.22 737.59,-69 705.87,-61.11 671.65,-45.97 648.09,-34.41"/>
<polygon fill="black" stroke="black" points="649.5,-31.21 638.99,-29.87 646.37,-37.47 649.5,-31.21"/>
<text text-anchor="middle" x="751.09" y="-57.8" font-family="Times,serif" font-size="14.00">dep</text>
</g>
<!-- 8 -->
<g id="node9" class="node">
<title>8</title>
<ellipse fill="none" stroke="black" cx="691.59" cy="-18" rx="27.9" ry="18"/>
<text text-anchor="middle" x="691.59" y="-14.3" font-family="Times,serif" font-size="14.00">que</text>
</g>
<!-- 0&#45;&gt;8 -->
<g id="edge8" class="edge">
<title>0&#45;&gt;8</title>
<path fill="none" stroke="black" d="M1022.85,-101.66C974.74,-97.84 885.39,-88.62 811.59,-69 779.96,-60.59 745.66,-45.66 721.86,-34.3"/>
<polygon fill="black" stroke="black" points="723.19,-31.05 712.66,-29.83 720.13,-37.35 723.19,-31.05"/>
<text text-anchor="middle" x="825.09" y="-57.8" font-family="Times,serif" font-size="14.00">dep</text>
</g>
<!-- 9 -->
<g id="node10" class="node">
<title>9</title>
<ellipse fill="none" stroke="black" cx="764.59" cy="-18" rx="27" ry="18"/>
<text text-anchor="middle" x="764.59" y="-14.3" font-family="Times,serif" font-size="14.00">os</text>
</g>
<!-- 0&#45;&gt;9 -->
<g id="edge9" class="edge">
<title>0&#45;&gt;9</title>
<path fill="none" stroke="black" d="M1024.33,-99.04C989.19,-93.4 932.35,-83.09 884.59,-69 846.12,-57.65 837.42,-51.91 800.59,-36 798.79,-35.22 796.93,-34.4 795.07,-33.56"/>
<polygon fill="black" stroke="black" points="796.35,-30.3 785.81,-29.31 793.43,-36.66 796.35,-30.3"/>
<text text-anchor="middle" x="898.09" y="-57.8" font-family="Times,serif" font-size="14.00">dep</text>
</g>
<!-- 10 -->
<g id="node11" class="node">
<title>10</title>
<ellipse fill="none" stroke="black" cx="840.59" cy="-18" rx="30.59" ry="18"/>
<text text-anchor="middle" x="840.59" y="-14.3" font-family="Times,serif" font-size="14.00">US$</text>
</g>
<!-- 0&#45;&gt;10 -->
<g id="edge10" class="edge">
<title>0&#45;&gt;10</title>
<path fill="none" stroke="black" d="M1027.64,-95.46C1005.55,-88.91 974.89,-79.26 948.59,-69 922.39,-58.77 893.51,-45.28 872.21,-34.89"/>
<polygon fill="black" stroke="black" points="873.52,-31.63 863,-30.36 870.43,-37.91 873.52,-31.63"/>
<text text-anchor="middle" x="962.09" y="-57.8" font-family="Times,serif" font-size="14.00">dep</text>
</g>
<!-- 11 -->
<g id="node12" class="node">
<title>11</title>
<ellipse fill="none" stroke="black" cx="916.59" cy="-18" rx="27" ry="18"/>
<text text-anchor="middle" x="916.59" y="-14.3" font-family="Times,serif" font-size="14.00">5</text>
</g>
<!-- 0&#45;&gt;11 -->
<g id="edge11" class="edge">
<title>0&#45;&gt;11</title>
<path fill="none" stroke="black" d="M1035.56,-90.72C1011.17,-76.02 971.79,-52.27 945.07,-36.17"/>
<polygon fill="black" stroke="black" points="946.57,-32.98 936.2,-30.82 942.96,-38.98 946.57,-32.98"/>
<text text-anchor="middle" x="1009.09" y="-57.8" font-family="Times,serif" font-size="14.00">dep</text>
</g>
<!-- 12 -->
<g id="node13" class="node">
<title>12</title>
<ellipse fill="none" stroke="black" cx="1008.59" cy="-18" rx="46.59" ry="18"/>
<text text-anchor="middle" x="1008.59" y="-14.3" font-family="Times,serif" font-size="14.00">milhões</text>
</g>
<!-- 0&#45;&gt;12 -->
<g id="edge12" class="edge">
<title>0&#45;&gt;12</title>
<path fill="none" stroke="black" d="M1048.15,-87.61C1041.07,-75.34 1031.27,-58.34 1023.19,-44.32"/>
<polygon fill="black" stroke="black" points="1026.21,-42.54 1018.18,-35.63 1020.14,-46.04 1026.21,-42.54"/>
<text text-anchor="middle" x="1050.09" y="-57.8" font-family="Times,serif" font-size="14.00">dep</text>
</g>
<!-- 13 -->
<g id="node14" class="node">
<title>13</title>
<ellipse fill="none" stroke="black" cx="1107.59" cy="-18" rx="34.39" ry="18"/>
<text text-anchor="middle" x="1107.59" y="-14.3" font-family="Times,serif" font-size="14.00">eram</text>
</g>
<!-- 0&#45;&gt;13 -->
<g id="edge13" class="edge">
<title>0&#45;&gt;13</title>
<path fill="none" stroke="black" d="M1067.23,-87.61C1074.5,-75.26 1084.58,-58.12 1092.86,-44.05"/>
<polygon fill="black" stroke="black" points="1095.93,-45.73 1097.98,-35.34 1089.9,-42.18 1095.93,-45.73"/>
<text text-anchor="middle" x="1099.09" y="-57.8" font-family="Times,serif" font-size="14.00">dep</text>
</g>
<!-- 14 -->
<g id="node15" class="node">
<title>14</title>
<ellipse fill="none" stroke="black" cx="1234.59" cy="-18" rx="74.99" ry="18"/>
<text text-anchor="middle" x="1234.59" y="-14.3" font-family="Times,serif" font-size="14.00">adiantamento</text>
</g>
<!-- 0&#45;&gt;14 -->
<g id="edge14" class="edge">
<title>0&#45;&gt;14</title>
<path fill="none" stroke="black" d="M1082.58,-92C1111.32,-78.2 1158.96,-55.32 1193.25,-38.85"/>
<polygon fill="black" stroke="black" points="1195.05,-41.87 1202.55,-34.39 1192.02,-35.56 1195.05,-41.87"/>
<text text-anchor="middle" x="1171.09" y="-57.8" font-family="Times,serif" font-size="14.00">dep</text>
</g>
<!-- 15 -->
<g id="node16" class="node">
<title>15</title>
<ellipse fill="none" stroke="black" cx="1354.59" cy="-18" rx="27" ry="18"/>
<text text-anchor="middle" x="1354.59" y="-14.3" font-family="Times,serif" font-size="14.00">em</text>
</g>
<!-- 0&#45;&gt;15 -->
<g id="edge15" class="edge">
<title>0&#45;&gt;15</title>
<path fill="none" stroke="black" d="M1089.92,-97.61C1139.82,-87.29 1238.26,-65.14 1318.59,-36 1320.45,-35.33 1322.33,-34.6 1324.22,-33.82"/>
<polygon fill="black" stroke="black" points="1325.8,-36.95 1333.55,-29.74 1322.99,-30.54 1325.8,-36.95"/>
<text text-anchor="middle" x="1276.09" y="-57.8" font-family="Times,serif" font-size="14.00">dep</text>
</g>
<!-- 16 -->
<g id="node17" class="node">
<title>16</title>
<ellipse fill="none" stroke="black" cx="1426.59" cy="-18" rx="27" ry="18"/>
<text text-anchor="middle" x="1426.59" y="-14.3" font-family="Times,serif" font-size="14.00">«</text>
</g>
<!-- 0&#45;&gt;16 -->
<g id="edge16" class="edge">
<title>0&#45;&gt;16</title>
<path fill="none" stroke="black" d="M1091.97,-100.87C1138.25,-96.21 1222.94,-86.11 1293.59,-69 1337.85,-58.28 1348.38,-53.08 1390.59,-36 1392.42,-35.26 1394.29,-34.48 1396.16,-33.66"/>
<polygon fill="black" stroke="black" points="1397.77,-36.77 1405.45,-29.47 1394.9,-30.39 1397.77,-36.77"/>
<text text-anchor="middle" x="1358.09" y="-57.8" font-family="Times,serif" font-size="14.00">dep</text>
</g>
<!-- 17 -->
<g id="node18" class="node">
<title>17</title>
<ellipse fill="none" stroke="black" cx="1513.59" cy="-18" rx="42.49" ry="18"/>
<text text-anchor="middle" x="1513.59" y="-14.3" font-family="Times,serif" font-size="14.00">acordo</text>
</g>
<!-- 0&#45;&gt;17 -->
<g id="edge17" class="edge">
<title>0&#45;&gt;17</title>
<path fill="none" stroke="black" d="M1092.87,-102.85C1152.04,-100.32 1274.7,-92.48 1375.59,-69 1410.41,-60.9 1448.5,-46.66 1475.83,-35.45"/>
<polygon fill="black" stroke="black" points="1477.5,-38.55 1485.39,-31.47 1474.81,-32.08 1477.5,-38.55"/>
<text text-anchor="middle" x="1440.09" y="-57.8" font-family="Times,serif" font-size="14.00">dep</text>
</g>
<!-- 18 -->
<g id="node19" class="node">
<title>18</title>
<ellipse fill="none" stroke="black" cx="1600.59" cy="-18" rx="27" ry="18"/>
<text text-anchor="middle" x="1600.59" y="-14.3" font-family="Times,serif" font-size="14.00">de</text>
</g>
<!-- 0&#45;&gt;18 -->
<g id="edge18" class="edge">
<title>0&#45;&gt;18</title>
<path fill="none" stroke="black" d="M1092.72,-103.42C1162.76,-101.71 1324.53,-95.03 1457.59,-69 1506.43,-59.44 1518.2,-54 1564.59,-36 1566.43,-35.29 1568.3,-34.52 1570.18,-33.73"/>
<polygon fill="black" stroke="black" points="1571.78,-36.85 1579.49,-29.58 1568.93,-30.45 1571.78,-36.85"/>
<text text-anchor="middle" x="1529.09" y="-57.8" font-family="Times,serif" font-size="14.00">dep</text>
</g>
<!-- 19 -->
<g id="node20" class="node">
<title>19</title>
<ellipse fill="none" stroke="black" cx="1687.59" cy="-18" rx="42.49" ry="18"/>
<text text-anchor="middle" x="1687.59" y="-14.3" font-family="Times,serif" font-size="14.00">gaveta</text>
</g>
<!-- 0&#45;&gt;19 -->
<g id="edge19" class="edge">
<title>0&#45;&gt;19</title>
<path fill="none" stroke="black" d="M1092.72,-104.7C1173.7,-105.62 1379.35,-103.97 1546.59,-69 1582.64,-61.46 1622.01,-46.94 1649.96,-35.48"/>
<polygon fill="black" stroke="black" points="1651.46,-38.64 1659.35,-31.57 1648.77,-32.18 1651.46,-38.64"/>
<text text-anchor="middle" x="1612.09" y="-57.8" font-family="Times,serif" font-size="14.00">dep</text>
</g>
<!-- 20 -->
<g id="node21" class="node">
<title>20</title>
<ellipse fill="none" stroke="black" cx="1774.59" cy="-18" rx="27" ry="18"/>
<text text-anchor="middle" x="1774.59" y="-14.3" font-family="Times,serif" font-size="14.00">»</text>
</g>
<!-- 0&#45;&gt;20 -->
<g id="edge20" class="edge">
<title>0&#45;&gt;20</title>
<path fill="none" stroke="black" d="M1092.75,-104.68C1182.81,-105.8 1428.84,-105.02 1629.59,-69 1679.41,-60.06 1691.36,-54.19 1738.59,-36 1740.43,-35.29 1742.31,-34.53 1744.19,-33.74"/>
<polygon fill="black" stroke="black" points="1745.79,-36.86 1753.5,-29.59 1742.94,-30.46 1745.79,-36.86"/>
<text text-anchor="middle" x="1704.09" y="-57.8" font-family="Times,serif" font-size="14.00">dep</text>
</g>
<!-- 21 -->
<g id="node22" class="node">
<title>21</title>
<ellipse fill="none" stroke="black" cx="1849.59" cy="-18" rx="29.8" ry="18"/>
<text text-anchor="middle" x="1849.59" y="-14.3" font-family="Times,serif" font-size="14.00">com</text>
</g>
<!-- 0&#45;&gt;21 -->
<g id="edge21" class="edge">
<title>0&#45;&gt;21</title>
<path fill="none" stroke="black" d="M1092.63,-103.55C1211.63,-101.79 1599.64,-94.21 1721.59,-69 1755.98,-61.89 1793.14,-46.43 1818.52,-34.57"/>
<polygon fill="black" stroke="black" points="1820.11,-37.68 1827.64,-30.22 1817.1,-31.36 1820.11,-37.68"/>
<text text-anchor="middle" x="1786.09" y="-57.8" font-family="Times,serif" font-size="14.00">dep</text>
</g>
<!-- 22 -->
<g id="node23" class="node">
<title>22</title>
<ellipse fill="none" stroke="black" cx="1924.59" cy="-18" rx="27" ry="18"/>
<text text-anchor="middle" x="1924.59" y="-14.3" font-family="Times,serif" font-size="14.00">a</text>
</g>
<!-- 0&#45;&gt;22 -->
<g id="edge22" class="edge">
<title>0&#45;&gt;22</title>
<path fill="none" stroke="black" d="M1092.89,-103.85C1221.58,-103.07 1665.33,-98.27 1803.59,-69 1836.23,-62.09 1871.22,-46.67 1895.14,-34.77"/>
<polygon fill="black" stroke="black" points="1897.03,-37.73 1904.35,-30.08 1893.85,-31.49 1897.03,-37.73"/>
<text text-anchor="middle" x="1865.09" y="-57.8" font-family="Times,serif" font-size="14.00">dep</text>
</g>
<!-- 23 -->
<g id="node24" class="node">
<title>23</title>
<ellipse fill="none" stroke="black" cx="2000.59" cy="-18" rx="31.4" ry="18"/>
<text text-anchor="middle" x="2000.59" y="-14.3" font-family="Times,serif" font-size="14.00">Dow</text>
</g>
<!-- 0&#45;&gt;23 -->
<g id="edge23" class="edge">
<title>0&#45;&gt;23</title>
<path fill="none" stroke="black" d="M1092.82,-104.17C1230.04,-104.58 1728.75,-103.62 1882.59,-69 1913.5,-62.05 1946.53,-47.36 1969.76,-35.69"/>
<polygon fill="black" stroke="black" points="1971.47,-38.75 1978.77,-31.07 1968.28,-32.52 1971.47,-38.75"/>
<text text-anchor="middle" x="1940.09" y="-57.8" font-family="Times,serif" font-size="14.00">dep</text>
</g>
<!-- 24 -->
<g id="node25" class="node">
<title>24</title>
<ellipse fill="none" stroke="black" cx="2076.59" cy="-18" rx="27" ry="18"/>
<text text-anchor="middle" x="2076.59" y="-14.3" font-family="Times,serif" font-size="14.00">.</text>
</g>
<!-- 0&#45;&gt;24 -->
<g id="edge24" class="edge">
<title>0&#45;&gt;24</title>
<path fill="none" stroke="black" d="M1092.99,-104.22C1238.16,-104.87 1788.17,-104.87 1957.59,-69 1989.58,-62.23 2023.76,-46.93 2047.24,-35.03"/>
<polygon fill="black" stroke="black" points="2049.04,-38.04 2056.31,-30.34 2045.82,-31.83 2049.04,-38.04"/>
<text text-anchor="middle" x="2019.09" y="-57.8" font-family="Times,serif" font-size="14.00">dep</text>
</g>
</g>
</svg>
