<?xml version="1.0" encoding="UTF-8" standalone="no"?>
<!DOCTYPE svg PUBLIC "-//W3C//DTD SVG 1.1//EN"
 "http://www.w3.org/Graphics/SVG/1.1/DTD/svg11.dtd">
<!-- Generated by graphviz version 2.42.4 (0)
 -->
<!-- Pages: 1 -->
<svg width="3409pt" height="131pt"
 viewBox="0.00 0.00 3408.95 131.00" xmlns="http://www.w3.org/2000/svg" xmlns:xlink="http://www.w3.org/1999/xlink">
<g id="graph0" class="graph" transform="scale(1 1) rotate(0) translate(4 127)">
<polygon fill="white" stroke="transparent" points="-4,4 -4,-127 3404.95,-127 3404.95,4 -4,4"/>
<!-- 0 -->
<g id="node1" class="node">
<title>0</title>
<ellipse fill="none" stroke="black" cx="1661.95" cy="-105" rx="50.09" ry="18"/>
<text text-anchor="middle" x="1661.95" y="-101.3" font-family="Times,serif" font-size="14.00">Políticos</text>
</g>
<!-- 1 -->
<g id="node2" class="node">
<title>1</title>
<ellipse fill="none" stroke="black" cx="53.95" cy="-18" rx="53.89" ry="18"/>
<text text-anchor="middle" x="53.95" y="-14.3" font-family="Times,serif" font-size="14.00">israelitas</text>
</g>
<!-- 0&#45;&gt;1 -->
<g id="edge1" class="edge">
<title>0&#45;&gt;1</title>
<path fill="none" stroke="black" d="M1611.73,-103.73C1370.71,-102.3 338.28,-94.74 196.95,-69 161.19,-62.49 122.36,-48.43 94.2,-36.88"/>
<polygon fill="black" stroke="black" points="95.28,-33.54 84.71,-32.91 92.58,-40 95.28,-33.54"/>
<text text-anchor="middle" x="210.45" y="-57.8" font-family="Times,serif" font-size="14.00">dep</text>
</g>
<!-- 2 -->
<g id="node3" class="node">
<title>2</title>
<ellipse fill="none" stroke="black" cx="152.95" cy="-18" rx="27" ry="18"/>
<text text-anchor="middle" x="152.95" y="-14.3" font-family="Times,serif" font-size="14.00">e</text>
</g>
<!-- 0&#45;&gt;2 -->
<g id="edge2" class="edge">
<title>0&#45;&gt;2</title>
<path fill="none" stroke="black" d="M1611.74,-103.73C1378.77,-102.35 408.8,-95.09 275.95,-69 242.4,-62.41 206.44,-46.68 182.12,-34.6"/>
<polygon fill="black" stroke="black" points="183.59,-31.42 173.08,-30.02 180.42,-37.66 183.59,-31.42"/>
<text text-anchor="middle" x="289.45" y="-57.8" font-family="Times,serif" font-size="14.00">dep</text>
</g>
<!-- 3 -->
<g id="node4" class="node">
<title>3</title>
<ellipse fill="none" stroke="black" cx="224.95" cy="-18" rx="27" ry="18"/>
<text text-anchor="middle" x="224.95" y="-14.3" font-family="Times,serif" font-size="14.00">de</text>
</g>
<!-- 0&#45;&gt;3 -->
<g id="edge3" class="edge">
<title>0&#45;&gt;3</title>
<path fill="none" stroke="black" d="M1612.01,-103.49C1388.84,-101.09 488.4,-90.17 363.95,-69 316.56,-60.94 305.66,-53.63 260.95,-36 259.11,-35.28 257.24,-34.5 255.36,-33.7"/>
<polygon fill="black" stroke="black" points="256.62,-30.43 246.06,-29.54 253.76,-36.82 256.62,-30.43"/>
<text text-anchor="middle" x="377.45" y="-57.8" font-family="Times,serif" font-size="14.00">dep</text>
</g>
<!-- 4 -->
<g id="node5" class="node">
<title>4</title>
<ellipse fill="none" stroke="black" cx="296.95" cy="-18" rx="27" ry="18"/>
<text text-anchor="middle" x="296.95" y="-14.3" font-family="Times,serif" font-size="14.00">a</text>
</g>
<!-- 0&#45;&gt;4 -->
<g id="edge4" class="edge">
<title>0&#45;&gt;4</title>
<path fill="none" stroke="black" d="M1611.79,-103.69C1417.23,-102.29 712.17,-95.46 489.95,-69 419.14,-60.57 400.53,-58.71 332.95,-36 331.03,-35.36 329.08,-34.64 327.13,-33.87"/>
<polygon fill="black" stroke="black" points="328.11,-30.48 317.54,-29.74 325.34,-36.91 328.11,-30.48"/>
<text text-anchor="middle" x="503.45" y="-57.8" font-family="Times,serif" font-size="14.00">dep</text>
</g>
<!-- 5 -->
<g id="node6" class="node">
<title>5</title>
<ellipse fill="none" stroke="black" cx="409.95" cy="-18" rx="68.49" ry="18"/>
<text text-anchor="middle" x="409.95" y="-14.3" font-family="Times,serif" font-size="14.00">Organização</text>
</g>
<!-- 0&#45;&gt;5 -->
<g id="edge5" class="edge">
<title>0&#45;&gt;5</title>
<path fill="none" stroke="black" d="M1611.7,-104.01C1426.99,-103.81 785.8,-100.78 583.95,-69 540.57,-62.17 492.71,-47.9 458.19,-36.35"/>
<polygon fill="black" stroke="black" points="458.96,-32.92 448.37,-33.02 456.71,-39.55 458.96,-32.92"/>
<text text-anchor="middle" x="597.45" y="-57.8" font-family="Times,serif" font-size="14.00">dep</text>
</g>
<!-- 6 -->
<g id="node7" class="node">
<title>6</title>
<ellipse fill="none" stroke="black" cx="522.95" cy="-18" rx="27" ry="18"/>
<text text-anchor="middle" x="522.95" y="-14.3" font-family="Times,serif" font-size="14.00">de</text>
</g>
<!-- 0&#45;&gt;6 -->
<g id="edge6" class="edge">
<title>0&#45;&gt;6</title>
<path fill="none" stroke="black" d="M1611.96,-103.52C1440.19,-101.68 874.78,-93.81 694.95,-69 633.33,-60.5 617.59,-56.72 558.95,-36 557.04,-35.33 555.1,-34.59 553.16,-33.8"/>
<polygon fill="black" stroke="black" points="554.15,-30.41 543.58,-29.62 551.35,-36.83 554.15,-30.41"/>
<text text-anchor="middle" x="708.45" y="-57.8" font-family="Times,serif" font-size="14.00">dep</text>
</g>
<!-- 7 -->
<g id="node8" class="node">
<title>7</title>
<ellipse fill="none" stroke="black" cx="627.95" cy="-18" rx="59.59" ry="18"/>
<text text-anchor="middle" x="627.95" y="-14.3" font-family="Times,serif" font-size="14.00">Libertação</text>
</g>
<!-- 0&#45;&gt;7 -->
<g id="edge7" class="edge">
<title>0&#45;&gt;7</title>
<path fill="none" stroke="black" d="M1611.95,-103.81C1450.32,-102.91 943.09,-97.8 781.95,-69 743.62,-62.15 701.68,-48.08 671.26,-36.6"/>
<polygon fill="black" stroke="black" points="672.4,-33.29 661.81,-32.98 669.9,-39.82 672.4,-33.29"/>
<text text-anchor="middle" x="795.45" y="-57.8" font-family="Times,serif" font-size="14.00">dep</text>
</g>
<!-- 8 -->
<g id="node9" class="node">
<title>8</title>
<ellipse fill="none" stroke="black" cx="732.95" cy="-18" rx="27" ry="18"/>
<text text-anchor="middle" x="732.95" y="-14.3" font-family="Times,serif" font-size="14.00">de</text>
</g>
<!-- 0&#45;&gt;8 -->
<g id="edge8" class="edge">
<title>0&#45;&gt;8</title>
<path fill="none" stroke="black" d="M1611.85,-103.7C1460.3,-102.49 1008.24,-96.61 863.95,-69 828.12,-62.14 789.34,-46.18 763.35,-34.12"/>
<polygon fill="black" stroke="black" points="764.59,-30.83 754.05,-29.72 761.59,-37.16 764.59,-30.83"/>
<text text-anchor="middle" x="877.45" y="-57.8" font-family="Times,serif" font-size="14.00">dep</text>
</g>
<!-- 9 -->
<g id="node10" class="node">
<title>9</title>
<ellipse fill="none" stroke="black" cx="804.95" cy="-18" rx="27" ry="18"/>
<text text-anchor="middle" x="804.95" y="-14.3" font-family="Times,serif" font-size="14.00">a</text>
</g>
<!-- 0&#45;&gt;9 -->
<g id="edge9" class="edge">
<title>0&#45;&gt;9</title>
<path fill="none" stroke="black" d="M1611.9,-102.82C1474.15,-99.35 1091.42,-88.22 966.95,-69 909.73,-60.16 895.35,-55.78 840.95,-36 839.09,-35.33 837.21,-34.59 835.32,-33.82"/>
<polygon fill="black" stroke="black" points="836.55,-30.54 825.99,-29.73 833.74,-36.95 836.55,-30.54"/>
<text text-anchor="middle" x="980.45" y="-57.8" font-family="Times,serif" font-size="14.00">dep</text>
</g>
<!-- 10 -->
<g id="node11" class="node">
<title>10</title>
<ellipse fill="none" stroke="black" cx="902.95" cy="-18" rx="53.09" ry="18"/>
<text text-anchor="middle" x="902.95" y="-14.3" font-family="Times,serif" font-size="14.00">Palestina</text>
</g>
<!-- 0&#45;&gt;10 -->
<g id="edge10" class="edge">
<title>0&#45;&gt;10</title>
<path fill="none" stroke="black" d="M1612.13,-102.85C1486.44,-99.67 1158.84,-89.62 1051.95,-69 1014.64,-61.8 973.83,-47.64 944.37,-36.22"/>
<polygon fill="black" stroke="black" points="945.42,-32.87 934.83,-32.47 942.85,-39.39 945.42,-32.87"/>
<text text-anchor="middle" x="1065.45" y="-57.8" font-family="Times,serif" font-size="14.00">dep</text>
</g>
<!-- 11 -->
<g id="node12" class="node">
<title>11</title>
<ellipse fill="none" stroke="black" cx="1000.95" cy="-18" rx="27" ry="18"/>
<text text-anchor="middle" x="1000.95" y="-14.3" font-family="Times,serif" font-size="14.00">(</text>
</g>
<!-- 0&#45;&gt;11 -->
<g id="edge11" class="edge">
<title>0&#45;&gt;11</title>
<path fill="none" stroke="black" d="M1612.36,-102.34C1499.35,-98.3 1225.45,-86.93 1134.95,-69 1098.07,-61.69 1057.94,-45.54 1031.3,-33.56"/>
<polygon fill="black" stroke="black" points="1032.68,-30.34 1022.13,-29.36 1029.77,-36.71 1032.68,-30.34"/>
<text text-anchor="middle" x="1148.45" y="-57.8" font-family="Times,serif" font-size="14.00">dep</text>
</g>
<!-- 12 -->
<g id="node13" class="node">
<title>12</title>
<ellipse fill="none" stroke="black" cx="1076.95" cy="-18" rx="30.59" ry="18"/>
<text text-anchor="middle" x="1076.95" y="-14.3" font-family="Times,serif" font-size="14.00">OLP</text>
</g>
<!-- 0&#45;&gt;12 -->
<g id="edge12" class="edge">
<title>0&#45;&gt;12</title>
<path fill="none" stroke="black" d="M1611.9,-104.02C1528.81,-103.17 1357.53,-97.71 1215.95,-69 1178.4,-61.39 1137.34,-45.63 1109.65,-33.83"/>
<polygon fill="black" stroke="black" points="1111.01,-30.61 1100.44,-29.84 1108.23,-37.03 1111.01,-30.61"/>
<text text-anchor="middle" x="1229.45" y="-57.8" font-family="Times,serif" font-size="14.00">dep</text>
</g>
<!-- 13 -->
<g id="node14" class="node">
<title>13</title>
<ellipse fill="none" stroke="black" cx="1152.95" cy="-18" rx="27" ry="18"/>
<text text-anchor="middle" x="1152.95" y="-14.3" font-family="Times,serif" font-size="14.00">)</text>
</g>
<!-- 0&#45;&gt;13 -->
<g id="edge13" class="edge">
<title>0&#45;&gt;13</title>
<path fill="none" stroke="black" d="M1612.81,-101.07C1546.61,-96.64 1425.25,-86.79 1322.95,-69 1262.52,-58.49 1246.74,-56.53 1188.95,-36 1187.04,-35.32 1185.1,-34.58 1183.16,-33.79"/>
<polygon fill="black" stroke="black" points="1184.15,-30.41 1173.59,-29.61 1181.35,-36.82 1184.15,-30.41"/>
<text text-anchor="middle" x="1336.45" y="-57.8" font-family="Times,serif" font-size="14.00">dep</text>
</g>
<!-- 14 -->
<g id="node15" class="node">
<title>14</title>
<ellipse fill="none" stroke="black" cx="1246.95" cy="-18" rx="49.29" ry="18"/>
<text text-anchor="middle" x="1246.95" y="-14.3" font-family="Times,serif" font-size="14.00">afirmam</text>
</g>
<!-- 0&#45;&gt;14 -->
<g id="edge14" class="edge">
<title>0&#45;&gt;14</title>
<path fill="none" stroke="black" d="M1613.58,-99.78C1561.97,-94.72 1478.03,-84.87 1406.95,-69 1366.66,-60.01 1321.9,-45.63 1289.99,-34.6"/>
<polygon fill="black" stroke="black" points="1291.12,-31.28 1280.52,-31.29 1288.81,-37.89 1291.12,-31.28"/>
<text text-anchor="middle" x="1420.45" y="-57.8" font-family="Times,serif" font-size="14.00">dep</text>
</g>
<!-- 15 -->
<g id="node16" class="node">
<title>15</title>
<ellipse fill="none" stroke="black" cx="1340.95" cy="-18" rx="27" ry="18"/>
<text text-anchor="middle" x="1340.95" y="-14.3" font-family="Times,serif" font-size="14.00">se</text>
</g>
<!-- 0&#45;&gt;15 -->
<g id="edge15" class="edge">
<title>0&#45;&gt;15</title>
<path fill="none" stroke="black" d="M1616.97,-96.89C1559.91,-87.06 1459.06,-66.94 1376.95,-36 1375.1,-35.31 1373.22,-34.55 1371.34,-33.77"/>
<polygon fill="black" stroke="black" points="1372.58,-30.49 1362.02,-29.65 1369.75,-36.89 1372.58,-30.49"/>
<text text-anchor="middle" x="1490.45" y="-57.8" font-family="Times,serif" font-size="14.00">dep</text>
</g>
<!-- 16 -->
<g id="node17" class="node">
<title>16</title>
<ellipse fill="none" stroke="black" cx="1440.95" cy="-18" rx="54.69" ry="18"/>
<text text-anchor="middle" x="1440.95" y="-14.3" font-family="Times,serif" font-size="14.00">dispostos</text>
</g>
<!-- 0&#45;&gt;16 -->
<g id="edge16" class="edge">
<title>0&#45;&gt;16</title>
<path fill="none" stroke="black" d="M1625.6,-92.55C1605.51,-86.03 1580.2,-77.48 1557.95,-69 1532.12,-59.15 1503.59,-46.99 1481.17,-37.12"/>
<polygon fill="black" stroke="black" points="1482.52,-33.89 1471.96,-33.05 1479.69,-40.29 1482.52,-33.89"/>
<text text-anchor="middle" x="1571.45" y="-57.8" font-family="Times,serif" font-size="14.00">dep</text>
</g>
<!-- 17 -->
<g id="node18" class="node">
<title>17</title>
<ellipse fill="none" stroke="black" cx="1540.95" cy="-18" rx="27" ry="18"/>
<text text-anchor="middle" x="1540.95" y="-14.3" font-family="Times,serif" font-size="14.00">a</text>
</g>
<!-- 0&#45;&gt;17 -->
<g id="edge17" class="edge">
<title>0&#45;&gt;17</title>
<path fill="none" stroke="black" d="M1638.56,-88.92C1629.27,-82.83 1618.53,-75.68 1608.95,-69 1594.69,-59.06 1579.04,-47.59 1566.36,-38.15"/>
<polygon fill="black" stroke="black" points="1568.21,-35.17 1558.1,-31.98 1564.02,-40.77 1568.21,-35.17"/>
<text text-anchor="middle" x="1622.45" y="-57.8" font-family="Times,serif" font-size="14.00">dep</text>
</g>
<!-- 18 -->
<g id="node19" class="node">
<title>18</title>
<ellipse fill="none" stroke="black" cx="1621.95" cy="-18" rx="36" ry="18"/>
<text text-anchor="middle" x="1621.95" y="-14.3" font-family="Times,serif" font-size="14.00">punir</text>
</g>
<!-- 0&#45;&gt;18 -->
<g id="edge18" class="edge">
<title>0&#45;&gt;18</title>
<path fill="none" stroke="black" d="M1654.04,-87.21C1648.4,-75.22 1640.7,-58.85 1634.25,-45.16"/>
<polygon fill="black" stroke="black" points="1637.26,-43.32 1629.83,-35.76 1630.92,-46.3 1637.26,-43.32"/>
<text text-anchor="middle" x="1658.45" y="-57.8" font-family="Times,serif" font-size="14.00">dep</text>
</g>
<!-- 19 -->
<g id="node20" class="node">
<title>19</title>
<ellipse fill="none" stroke="black" cx="1702.95" cy="-18" rx="27" ry="18"/>
<text text-anchor="middle" x="1702.95" y="-14.3" font-family="Times,serif" font-size="14.00">os</text>
</g>
<!-- 0&#45;&gt;19 -->
<g id="edge19" class="edge">
<title>0&#45;&gt;19</title>
<path fill="none" stroke="black" d="M1670.05,-87.21C1675.92,-75.02 1683.98,-58.32 1690.65,-44.49"/>
<polygon fill="black" stroke="black" points="1693.81,-46 1695,-35.47 1687.5,-42.96 1693.81,-46"/>
<text text-anchor="middle" x="1698.45" y="-57.8" font-family="Times,serif" font-size="14.00">dep</text>
</g>
<!-- 20 -->
<g id="node21" class="node">
<title>20</title>
<ellipse fill="none" stroke="black" cx="1838.95" cy="-18" rx="90.98" ry="18"/>
<text text-anchor="middle" x="1838.95" y="-14.3" font-family="Times,serif" font-size="14.00">fundamentalistas</text>
</g>
<!-- 0&#45;&gt;20 -->
<g id="edge20" class="edge">
<title>0&#45;&gt;20</title>
<path fill="none" stroke="black" d="M1690.78,-90.15C1719.49,-76.37 1763.88,-55.05 1796.59,-39.34"/>
<polygon fill="black" stroke="black" points="1798.41,-42.35 1805.91,-34.87 1795.38,-36.04 1798.41,-42.35"/>
<text text-anchor="middle" x="1775.45" y="-57.8" font-family="Times,serif" font-size="14.00">dep</text>
</g>
<!-- 21 -->
<g id="node22" class="node">
<title>21</title>
<ellipse fill="none" stroke="black" cx="2001.95" cy="-18" rx="53.89" ry="18"/>
<text text-anchor="middle" x="2001.95" y="-14.3" font-family="Times,serif" font-size="14.00">islâmicos</text>
</g>
<!-- 0&#45;&gt;21 -->
<g id="edge21" class="edge">
<title>0&#45;&gt;21</title>
<path fill="none" stroke="black" d="M1702.39,-94.38C1756.4,-81.46 1855.03,-57.62 1938.95,-36 1943.08,-34.93 1947.36,-33.81 1951.66,-32.68"/>
<polygon fill="black" stroke="black" points="1952.89,-35.97 1961.65,-30.02 1951.09,-29.21 1952.89,-35.97"/>
<text text-anchor="middle" x="1877.45" y="-57.8" font-family="Times,serif" font-size="14.00">dep</text>
</g>
<!-- 22 -->
<g id="node23" class="node">
<title>22</title>
<ellipse fill="none" stroke="black" cx="2101.95" cy="-18" rx="27.9" ry="18"/>
<text text-anchor="middle" x="2101.95" y="-14.3" font-family="Times,serif" font-size="14.00">que</text>
</g>
<!-- 0&#45;&gt;22 -->
<g id="edge22" class="edge">
<title>0&#45;&gt;22</title>
<path fill="none" stroke="black" d="M1710.47,-100.35C1787.26,-93.57 1940.83,-75.92 2064.95,-36 2067.08,-35.31 2069.25,-34.54 2071.42,-33.7"/>
<polygon fill="black" stroke="black" points="2072.9,-36.88 2080.77,-29.78 2070.19,-30.42 2072.9,-36.88"/>
<text text-anchor="middle" x="2014.45" y="-57.8" font-family="Times,serif" font-size="14.00">dep</text>
</g>
<!-- 23 -->
<g id="node24" class="node">
<title>23</title>
<ellipse fill="none" stroke="black" cx="2174.95" cy="-18" rx="27" ry="18"/>
<text text-anchor="middle" x="2174.95" y="-14.3" font-family="Times,serif" font-size="14.00">em</text>
</g>
<!-- 0&#45;&gt;23 -->
<g id="edge23" class="edge">
<title>0&#45;&gt;23</title>
<path fill="none" stroke="black" d="M1711.79,-102.52C1783.29,-99.67 1918.84,-91.54 2031.95,-69 2080.75,-59.27 2092.55,-54 2138.95,-36 2140.78,-35.29 2142.66,-34.52 2144.54,-33.73"/>
<polygon fill="black" stroke="black" points="2146.14,-36.85 2153.84,-29.58 2143.28,-30.45 2146.14,-36.85"/>
<text text-anchor="middle" x="2103.45" y="-57.8" font-family="Times,serif" font-size="14.00">dep</text>
</g>
<!-- 24 -->
<g id="node25" class="node">
<title>24</title>
<ellipse fill="none" stroke="black" cx="2246.95" cy="-18" rx="27" ry="18"/>
<text text-anchor="middle" x="2246.95" y="-14.3" font-family="Times,serif" font-size="14.00">o</text>
</g>
<!-- 0&#45;&gt;24 -->
<g id="edge24" class="edge">
<title>0&#45;&gt;24</title>
<path fill="none" stroke="black" d="M1712.18,-104.65C1797.3,-104.77 1974.9,-100.71 2120.95,-69 2155.06,-61.6 2191.93,-45.99 2216.92,-34.17"/>
<polygon fill="black" stroke="black" points="2218.72,-37.19 2226.21,-29.69 2215.68,-30.88 2218.72,-37.19"/>
<text text-anchor="middle" x="2181.45" y="-57.8" font-family="Times,serif" font-size="14.00">dep</text>
</g>
<!-- 25 -->
<g id="node26" class="node">
<title>25</title>
<ellipse fill="none" stroke="black" cx="2342.95" cy="-18" rx="50.89" ry="18"/>
<text text-anchor="middle" x="2342.95" y="-14.3" font-family="Times,serif" font-size="14.00">domingo</text>
</g>
<!-- 0&#45;&gt;25 -->
<g id="edge25" class="edge">
<title>0&#45;&gt;25</title>
<path fill="none" stroke="black" d="M1711.63,-102.47C1826.28,-98.66 2106.57,-87.69 2198.95,-69 2234.91,-61.72 2274.16,-47.66 2302.58,-36.3"/>
<polygon fill="black" stroke="black" points="2304.21,-39.41 2312.16,-32.41 2301.58,-32.93 2304.21,-39.41"/>
<text text-anchor="middle" x="2265.45" y="-57.8" font-family="Times,serif" font-size="14.00">dep</text>
</g>
<!-- 26 -->
<g id="node27" class="node">
<title>26</title>
<ellipse fill="none" stroke="black" cx="2467.95" cy="-18" rx="55.79" ry="18"/>
<text text-anchor="middle" x="2467.95" y="-14.3" font-family="Times,serif" font-size="14.00">causaram</text>
</g>
<!-- 0&#45;&gt;26 -->
<g id="edge26" class="edge">
<title>0&#45;&gt;26</title>
<path fill="none" stroke="black" d="M1712.23,-104.68C1818.4,-105.36 2072.94,-102.92 2282.95,-69 2330.53,-61.31 2383.51,-46.31 2420.53,-34.74"/>
<polygon fill="black" stroke="black" points="2422.06,-37.93 2430.54,-31.57 2419.95,-31.25 2422.06,-37.93"/>
<text text-anchor="middle" x="2363.45" y="-57.8" font-family="Times,serif" font-size="14.00">dep</text>
</g>
<!-- 27 -->
<g id="node28" class="node">
<title>27</title>
<ellipse fill="none" stroke="black" cx="2568.95" cy="-18" rx="27" ry="18"/>
<text text-anchor="middle" x="2568.95" y="-14.3" font-family="Times,serif" font-size="14.00">19</text>
</g>
<!-- 0&#45;&gt;27 -->
<g id="edge27" class="edge">
<title>0&#45;&gt;27</title>
<path fill="none" stroke="black" d="M1712.32,-104.4C1829.94,-104.71 2131.6,-101.91 2380.95,-69 2449.48,-59.96 2467.49,-58.24 2532.95,-36 2534.86,-35.35 2536.81,-34.63 2538.75,-33.85"/>
<polygon fill="black" stroke="black" points="2540.55,-36.89 2548.34,-29.71 2537.77,-30.47 2540.55,-36.89"/>
<text text-anchor="middle" x="2484.45" y="-57.8" font-family="Times,serif" font-size="14.00">dep</text>
</g>
<!-- 28 -->
<g id="node29" class="node">
<title>28</title>
<ellipse fill="none" stroke="black" cx="2657.95" cy="-18" rx="43.59" ry="18"/>
<text text-anchor="middle" x="2657.95" y="-14.3" font-family="Times,serif" font-size="14.00">mortos</text>
</g>
<!-- 0&#45;&gt;28 -->
<g id="edge28" class="edge">
<title>0&#45;&gt;28</title>
<path fill="none" stroke="black" d="M1712.13,-103.67C1869.02,-102.37 2348.9,-96.19 2501.95,-69 2542.63,-61.77 2587.37,-46.65 2618.47,-34.91"/>
<polygon fill="black" stroke="black" points="2619.98,-38.08 2628.07,-31.24 2617.48,-31.55 2619.98,-38.08"/>
<text text-anchor="middle" x="2572.45" y="-57.8" font-family="Times,serif" font-size="14.00">dep</text>
</g>
<!-- 29 -->
<g id="node30" class="node">
<title>29</title>
<ellipse fill="none" stroke="black" cx="2746.95" cy="-18" rx="27" ry="18"/>
<text text-anchor="middle" x="2746.95" y="-14.3" font-family="Times,serif" font-size="14.00">em</text>
</g>
<!-- 0&#45;&gt;29 -->
<g id="edge29" class="edge">
<title>0&#45;&gt;29</title>
<path fill="none" stroke="black" d="M1711.96,-103.62C1879.26,-102.11 2418.43,-95.27 2589.95,-69 2645.04,-60.56 2658.65,-55.31 2710.95,-36 2712.79,-35.32 2714.68,-34.58 2716.56,-33.8"/>
<polygon fill="black" stroke="black" points="2718.14,-36.93 2725.89,-29.7 2715.33,-30.52 2718.14,-36.93"/>
<text text-anchor="middle" x="2673.45" y="-57.8" font-family="Times,serif" font-size="14.00">dep</text>
</g>
<!-- 30 -->
<g id="node31" class="node">
<title>30</title>
<ellipse fill="none" stroke="black" cx="2822.95" cy="-18" rx="30.59" ry="18"/>
<text text-anchor="middle" x="2822.95" y="-14.3" font-family="Times,serif" font-size="14.00">uma</text>
</g>
<!-- 0&#45;&gt;30 -->
<g id="edge30" class="edge">
<title>0&#45;&gt;30</title>
<path fill="none" stroke="black" d="M1712.12,-104.35C1891.45,-105.26 2500.13,-105.54 2690.95,-69 2726.37,-62.22 2764.7,-46.7 2790.88,-34.74"/>
<polygon fill="black" stroke="black" points="2792.7,-37.75 2800.29,-30.36 2789.74,-31.41 2792.7,-37.75"/>
<text text-anchor="middle" x="2757.45" y="-57.8" font-family="Times,serif" font-size="14.00">dep</text>
</g>
<!-- 31 -->
<g id="node32" class="node">
<title>31</title>
<ellipse fill="none" stroke="black" cx="2924.95" cy="-18" rx="53.89" ry="18"/>
<text text-anchor="middle" x="2924.95" y="-14.3" font-family="Times,serif" font-size="14.00">povoação</text>
</g>
<!-- 0&#45;&gt;31 -->
<g id="edge31" class="edge">
<title>0&#45;&gt;31</title>
<path fill="none" stroke="black" d="M1712.24,-104.35C1900.94,-105.36 2566.67,-106.17 2774.95,-69 2812.7,-62.26 2853.92,-47.99 2883.58,-36.41"/>
<polygon fill="black" stroke="black" points="2885.17,-39.54 2893.17,-32.6 2882.59,-33.04 2885.17,-39.54"/>
<text text-anchor="middle" x="2847.45" y="-57.8" font-family="Times,serif" font-size="14.00">dep</text>
</g>
<!-- 32 -->
<g id="node33" class="node">
<title>32</title>
<ellipse fill="none" stroke="black" cx="3023.95" cy="-18" rx="27" ry="18"/>
<text text-anchor="middle" x="3023.95" y="-14.3" font-family="Times,serif" font-size="14.00">a</text>
</g>
<!-- 0&#45;&gt;32 -->
<g id="edge32" class="edge">
<title>0&#45;&gt;32</title>
<path fill="none" stroke="black" d="M1712.12,-104.1C1910.07,-104.23 2637.15,-102.4 2864.95,-69 2920.95,-60.79 2934.81,-55.5 2987.95,-36 2989.79,-35.32 2991.68,-34.58 2993.57,-33.81"/>
<polygon fill="black" stroke="black" points="2995.15,-36.94 3002.89,-29.71 2992.33,-30.53 2995.15,-36.94"/>
<text text-anchor="middle" x="2949.45" y="-57.8" font-family="Times,serif" font-size="14.00">dep</text>
</g>
<!-- 33 -->
<g id="node34" class="node">
<title>33</title>
<ellipse fill="none" stroke="black" cx="3104.95" cy="-18" rx="36" ry="18"/>
<text text-anchor="middle" x="3104.95" y="-14.3" font-family="Times,serif" font-size="14.00">norte</text>
</g>
<!-- 0&#45;&gt;33 -->
<g id="edge33" class="edge">
<title>0&#45;&gt;33</title>
<path fill="none" stroke="black" d="M1712.17,-103.58C1936.61,-101.6 2842.16,-92.21 2966.95,-69 3003.59,-62.18 3043.4,-46.84 3070.81,-34.93"/>
<polygon fill="black" stroke="black" points="3072.23,-38.13 3079.96,-30.88 3069.4,-31.73 3072.23,-38.13"/>
<text text-anchor="middle" x="3035.45" y="-57.8" font-family="Times,serif" font-size="14.00">dep</text>
</g>
<!-- 34 -->
<g id="node35" class="node">
<title>34</title>
<ellipse fill="none" stroke="black" cx="3185.95" cy="-18" rx="27" ry="18"/>
<text text-anchor="middle" x="3185.95" y="-14.3" font-family="Times,serif" font-size="14.00">de</text>
</g>
<!-- 0&#45;&gt;34 -->
<g id="edge34" class="edge">
<title>0&#45;&gt;34</title>
<path fill="none" stroke="black" d="M1711.92,-103.64C1944.95,-101.83 2919.1,-92.88 3052.95,-69 3089.71,-62.44 3129.51,-46.15 3155.9,-33.93"/>
<polygon fill="black" stroke="black" points="3157.43,-37.08 3164.98,-29.64 3154.44,-30.75 3157.43,-37.08"/>
<text text-anchor="middle" x="3119.45" y="-57.8" font-family="Times,serif" font-size="14.00">dep</text>
</g>
<!-- 35 -->
<g id="node36" class="node">
<title>35</title>
<ellipse fill="none" stroke="black" cx="3279.95" cy="-18" rx="48.99" ry="18"/>
<text text-anchor="middle" x="3279.95" y="-14.3" font-family="Times,serif" font-size="14.00">Telavive</text>
</g>
<!-- 0&#45;&gt;35 -->
<g id="edge35" class="edge">
<title>0&#45;&gt;35</title>
<path fill="none" stroke="black" d="M1712.1,-103.74C1954.02,-102.35 2994.56,-94.92 3136.95,-69 3173.17,-62.41 3212.54,-48.07 3240.78,-36.43"/>
<polygon fill="black" stroke="black" points="3242.42,-39.54 3250.28,-32.45 3239.71,-33.09 3242.42,-39.54"/>
<text text-anchor="middle" x="3207.45" y="-57.8" font-family="Times,serif" font-size="14.00">dep</text>
</g>
<!-- 36 -->
<g id="node37" class="node">
<title>36</title>
<ellipse fill="none" stroke="black" cx="3373.95" cy="-18" rx="27" ry="18"/>
<text text-anchor="middle" x="3373.95" y="-14.3" font-family="Times,serif" font-size="14.00">.</text>
</g>
<!-- 0&#45;&gt;36 -->
<g id="edge36" class="edge">
<title>0&#45;&gt;36</title>
<path fill="none" stroke="black" d="M1712.13,-103.66C1962.74,-101.84 3072.8,-92.5 3224.95,-69 3276.65,-61.01 3289.03,-54.56 3337.95,-36 3339.79,-35.3 3341.66,-34.55 3343.55,-33.76"/>
<polygon fill="black" stroke="black" points="3345.14,-36.88 3352.86,-29.63 3342.3,-30.48 3345.14,-36.88"/>
<text text-anchor="middle" x="3302.45" y="-57.8" font-family="Times,serif" font-size="14.00">dep</text>
</g>
</g>
</svg>
