<?xml version="1.0" encoding="UTF-8" standalone="no"?>
<!DOCTYPE svg PUBLIC "-//W3C//DTD SVG 1.1//EN"
 "http://www.w3.org/Graphics/SVG/1.1/DTD/svg11.dtd">
<!-- Generated by graphviz version 2.42.4 (0)
 -->
<!-- Pages: 1 -->
<svg width="5082pt" height="131pt"
 viewBox="0.00 0.00 5081.85 131.00" xmlns="http://www.w3.org/2000/svg" xmlns:xlink="http://www.w3.org/1999/xlink">
<g id="graph0" class="graph" transform="scale(1 1) rotate(0) translate(4 127)">
<polygon fill="white" stroke="transparent" points="-4,4 -4,-127 5077.85,-127 5077.85,4 -4,4"/>
<!-- 0 -->
<g id="node1" class="node">
<title>0</title>
<ellipse fill="none" stroke="black" cx="2484.85" cy="-105" rx="46.29" ry="18"/>
<text text-anchor="middle" x="2484.85" y="-101.3" font-family="Times,serif" font-size="14.00">Quando</text>
</g>
<!-- 1 -->
<g id="node2" class="node">
<title>1</title>
<ellipse fill="none" stroke="black" cx="44.85" cy="-18" rx="44.69" ry="18"/>
<text text-anchor="middle" x="44.85" y="-14.3" font-family="Times,serif" font-size="14.00">Quinito</text>
</g>
<!-- 0&#45;&gt;1 -->
<g id="edge1" class="edge">
<title>0&#45;&gt;1</title>
<path fill="none" stroke="black" d="M2438.71,-104.15C2134.55,-105.01 422.36,-108.11 193.85,-69 155.31,-62.4 113.23,-47.52 83.64,-35.7"/>
<polygon fill="black" stroke="black" points="84.7,-32.35 74.11,-31.83 82.06,-38.84 84.7,-32.35"/>
<text text-anchor="middle" x="207.35" y="-57.8" font-family="Times,serif" font-size="14.00">dep</text>
</g>
<!-- 2 -->
<g id="node3" class="node">
<title>2</title>
<ellipse fill="none" stroke="black" cx="134.85" cy="-18" rx="27" ry="18"/>
<text text-anchor="middle" x="134.85" y="-14.3" font-family="Times,serif" font-size="14.00">foi</text>
</g>
<!-- 0&#45;&gt;2 -->
<g id="edge2" class="edge">
<title>0&#45;&gt;2</title>
<path fill="none" stroke="black" d="M2438.58,-103.89C2142.72,-103.13 521.19,-97.66 302.85,-69 242.89,-61.13 227.79,-56.34 170.85,-36 168.99,-35.34 167.1,-34.61 165.21,-33.84"/>
<polygon fill="black" stroke="black" points="166.44,-30.56 155.87,-29.77 163.64,-36.98 166.44,-30.56"/>
<text text-anchor="middle" x="316.35" y="-57.8" font-family="Times,serif" font-size="14.00">dep</text>
</g>
<!-- 3 -->
<g id="node4" class="node">
<title>3</title>
<ellipse fill="none" stroke="black" cx="240.85" cy="-18" rx="61.19" ry="18"/>
<text text-anchor="middle" x="240.85" y="-14.3" font-family="Times,serif" font-size="14.00">contratado</text>
</g>
<!-- 0&#45;&gt;3 -->
<g id="edge3" class="edge">
<title>0&#45;&gt;3</title>
<path fill="none" stroke="black" d="M2438.61,-104.06C2149.93,-104.32 600.59,-104.08 392.85,-69 354.91,-62.59 313.52,-48.48 283.53,-36.88"/>
<polygon fill="black" stroke="black" points="284.8,-33.62 274.21,-33.21 282.24,-40.13 284.8,-33.62"/>
<text text-anchor="middle" x="406.35" y="-57.8" font-family="Times,serif" font-size="14.00">dep</text>
</g>
<!-- 4 -->
<g id="node5" class="node">
<title>4</title>
<ellipse fill="none" stroke="black" cx="351.85" cy="-18" rx="31.7" ry="18"/>
<text text-anchor="middle" x="351.85" y="-14.3" font-family="Times,serif" font-size="14.00">para</text>
</g>
<!-- 0&#45;&gt;4 -->
<g id="edge4" class="edge">
<title>0&#45;&gt;4</title>
<path fill="none" stroke="black" d="M2438.6,-103.7C2146.75,-101.72 569.21,-90.08 469.85,-69 438.86,-62.42 405.84,-47.7 382.63,-35.92"/>
<polygon fill="black" stroke="black" points="384.12,-32.75 373.63,-31.25 380.89,-38.96 384.12,-32.75"/>
<text text-anchor="middle" x="483.35" y="-57.8" font-family="Times,serif" font-size="14.00">dep</text>
</g>
<!-- 5 -->
<g id="node6" class="node">
<title>5</title>
<ellipse fill="none" stroke="black" cx="428.85" cy="-18" rx="27" ry="18"/>
<text text-anchor="middle" x="428.85" y="-14.3" font-family="Times,serif" font-size="14.00">o</text>
</g>
<!-- 0&#45;&gt;5 -->
<g id="edge5" class="edge">
<title>0&#45;&gt;5</title>
<path fill="none" stroke="black" d="M2438.48,-104.16C2162.19,-104.97 738.28,-107.26 547.85,-69 515.6,-62.52 481.21,-47.04 457.74,-35"/>
<polygon fill="black" stroke="black" points="459.17,-31.8 448.69,-30.26 455.92,-38 459.17,-31.8"/>
<text text-anchor="middle" x="561.35" y="-57.8" font-family="Times,serif" font-size="14.00">dep</text>
</g>
<!-- 6 -->
<g id="node7" class="node">
<title>6</title>
<ellipse fill="none" stroke="black" cx="500.85" cy="-18" rx="27" ry="18"/>
<text text-anchor="middle" x="500.85" y="-14.3" font-family="Times,serif" font-size="14.00">FC</text>
</g>
<!-- 0&#45;&gt;6 -->
<g id="edge6" class="edge">
<title>0&#45;&gt;6</title>
<path fill="none" stroke="black" d="M2438.73,-104.02C2170.08,-103.99 812.46,-102.22 629.85,-69 594.43,-62.56 556.28,-46.53 530.72,-34.34"/>
<polygon fill="black" stroke="black" points="532.1,-31.12 521.58,-29.88 529.04,-37.41 532.1,-31.12"/>
<text text-anchor="middle" x="643.35" y="-57.8" font-family="Times,serif" font-size="14.00">dep</text>
</g>
<!-- 7 -->
<g id="node8" class="node">
<title>7</title>
<ellipse fill="none" stroke="black" cx="581.85" cy="-18" rx="36" ry="18"/>
<text text-anchor="middle" x="581.85" y="-14.3" font-family="Times,serif" font-size="14.00">Porto</text>
</g>
<!-- 0&#45;&gt;7 -->
<g id="edge7" class="edge">
<title>0&#45;&gt;7</title>
<path fill="none" stroke="black" d="M2438.62,-104.05C2176.69,-104.21 884.53,-103.26 710.85,-69 677.2,-62.36 640.97,-47.58 615.49,-35.8"/>
<polygon fill="black" stroke="black" points="616.82,-32.56 606.28,-31.45 613.83,-38.89 616.82,-32.56"/>
<text text-anchor="middle" x="724.35" y="-57.8" font-family="Times,serif" font-size="14.00">dep</text>
</g>
<!-- 8 -->
<g id="node9" class="node">
<title>8</title>
<ellipse fill="none" stroke="black" cx="662.85" cy="-18" rx="27" ry="18"/>
<text text-anchor="middle" x="662.85" y="-14.3" font-family="Times,serif" font-size="14.00">e</text>
</g>
<!-- 0&#45;&gt;8 -->
<g id="edge8" class="edge">
<title>0&#45;&gt;8</title>
<path fill="none" stroke="black" d="M2438.71,-103.92C2184.35,-103.34 958.54,-99.01 792.85,-69 757.19,-62.54 718.73,-46.51 692.97,-34.33"/>
<polygon fill="black" stroke="black" points="694.28,-31.07 683.75,-29.88 691.23,-37.38 694.28,-31.07"/>
<text text-anchor="middle" x="806.35" y="-57.8" font-family="Times,serif" font-size="14.00">dep</text>
</g>
<!-- 9 -->
<g id="node10" class="node">
<title>9</title>
<ellipse fill="none" stroke="black" cx="734.85" cy="-18" rx="27" ry="18"/>
<text text-anchor="middle" x="734.85" y="-14.3" font-family="Times,serif" font-size="14.00">se</text>
</g>
<!-- 0&#45;&gt;9 -->
<g id="edge9" class="edge">
<title>0&#45;&gt;9</title>
<path fill="none" stroke="black" d="M2438.53,-103.6C2193.77,-101.41 1056.37,-90.18 900.85,-69 841.78,-60.96 826.95,-56.15 770.85,-36 768.99,-35.33 767.1,-34.61 765.21,-33.84"/>
<polygon fill="black" stroke="black" points="766.44,-30.55 755.88,-29.76 763.64,-36.97 766.44,-30.55"/>
<text text-anchor="middle" x="914.35" y="-57.8" font-family="Times,serif" font-size="14.00">dep</text>
</g>
<!-- 10 -->
<g id="node11" class="node">
<title>10</title>
<ellipse fill="none" stroke="black" cx="821.85" cy="-18" rx="42.49" ry="18"/>
<text text-anchor="middle" x="821.85" y="-14.3" font-family="Times,serif" font-size="14.00">propôs</text>
</g>
<!-- 0&#45;&gt;10 -->
<g id="edge10" class="edge">
<title>0&#45;&gt;10</title>
<path fill="none" stroke="black" d="M2438.6,-104.32C2220.03,-105.61 1289.34,-108.64 1001.85,-69 952.95,-62.26 898.57,-45.86 862.51,-33.67"/>
<polygon fill="black" stroke="black" points="863.44,-30.29 852.85,-30.36 861.17,-36.91 863.44,-30.29"/>
<text text-anchor="middle" x="1015.35" y="-57.8" font-family="Times,serif" font-size="14.00">dep</text>
</g>
<!-- 11 -->
<g id="node12" class="node">
<title>11</title>
<ellipse fill="none" stroke="black" cx="938.85" cy="-18" rx="56.59" ry="18"/>
<text text-anchor="middle" x="938.85" y="-14.3" font-family="Times,serif" font-size="14.00">recuperar</text>
</g>
<!-- 0&#45;&gt;11 -->
<g id="edge11" class="edge">
<title>0&#45;&gt;11</title>
<path fill="none" stroke="black" d="M2438.62,-103.64C2212.33,-101.74 1226.77,-92.23 1091.85,-69 1053.33,-62.37 1011.23,-48.06 980.96,-36.44"/>
<polygon fill="black" stroke="black" points="982.16,-33.15 971.57,-32.78 979.61,-39.67 982.16,-33.15"/>
<text text-anchor="middle" x="1105.35" y="-57.8" font-family="Times,serif" font-size="14.00">dep</text>
</g>
<!-- 12 -->
<g id="node13" class="node">
<title>12</title>
<ellipse fill="none" stroke="black" cx="1040.85" cy="-18" rx="27" ry="18"/>
<text text-anchor="middle" x="1040.85" y="-14.3" font-family="Times,serif" font-size="14.00">,</text>
</g>
<!-- 0&#45;&gt;12 -->
<g id="edge12" class="edge">
<title>0&#45;&gt;12</title>
<path fill="none" stroke="black" d="M2438.73,-103.53C2221.62,-101.2 1306.67,-90.22 1180.85,-69 1133.03,-60.94 1121.98,-53.73 1076.85,-36 1075.01,-35.28 1073.14,-34.51 1071.26,-33.71"/>
<polygon fill="black" stroke="black" points="1072.52,-30.44 1061.96,-29.55 1069.66,-36.83 1072.52,-30.44"/>
<text text-anchor="middle" x="1194.35" y="-57.8" font-family="Times,serif" font-size="14.00">dep</text>
</g>
<!-- 13 -->
<g id="node14" class="node">
<title>13</title>
<ellipse fill="none" stroke="black" cx="1121.85" cy="-18" rx="36" ry="18"/>
<text text-anchor="middle" x="1121.85" y="-14.3" font-family="Times,serif" font-size="14.00">entre</text>
</g>
<!-- 0&#45;&gt;13 -->
<g id="edge13" class="edge">
<title>0&#45;&gt;13</title>
<path fill="none" stroke="black" d="M2438.76,-103.45C2230.87,-100.85 1385.53,-89.13 1268.85,-69 1229.47,-62.21 1186.4,-46.51 1157.12,-34.51"/>
<polygon fill="black" stroke="black" points="1158.33,-31.22 1147.75,-30.6 1155.63,-37.68 1158.33,-31.22"/>
<text text-anchor="middle" x="1282.35" y="-57.8" font-family="Times,serif" font-size="14.00">dep</text>
</g>
<!-- 14 -->
<g id="node15" class="node">
<title>14</title>
<ellipse fill="none" stroke="black" cx="1215.85" cy="-18" rx="40.09" ry="18"/>
<text text-anchor="middle" x="1215.85" y="-14.3" font-family="Times,serif" font-size="14.00">outros</text>
</g>
<!-- 0&#45;&gt;14 -->
<g id="edge14" class="edge">
<title>0&#45;&gt;14</title>
<path fill="none" stroke="black" d="M2438.63,-103.44C2239.56,-100.91 1460.48,-89.75 1352.85,-69 1317.42,-62.17 1278.98,-47.45 1251.86,-35.74"/>
<polygon fill="black" stroke="black" points="1252.97,-32.41 1242.41,-31.59 1250.16,-38.82 1252.97,-32.41"/>
<text text-anchor="middle" x="1366.35" y="-57.8" font-family="Times,serif" font-size="14.00">dep</text>
</g>
<!-- 15 -->
<g id="node16" class="node">
<title>15</title>
<ellipse fill="none" stroke="black" cx="1300.85" cy="-18" rx="27" ry="18"/>
<text text-anchor="middle" x="1300.85" y="-14.3" font-family="Times,serif" font-size="14.00">,</text>
</g>
<!-- 0&#45;&gt;15 -->
<g id="edge15" class="edge">
<title>0&#45;&gt;15</title>
<path fill="none" stroke="black" d="M2438.69,-104.09C2263.32,-104.18 1638.49,-102.12 1442.85,-69 1394.2,-60.76 1382.82,-53.91 1336.85,-36 1335.01,-35.28 1333.14,-34.52 1331.26,-33.72"/>
<polygon fill="black" stroke="black" points="1332.51,-30.45 1321.95,-29.57 1329.66,-36.84 1332.51,-30.45"/>
<text text-anchor="middle" x="1456.35" y="-57.8" font-family="Times,serif" font-size="14.00">dep</text>
</g>
<!-- 16 -->
<g id="node17" class="node">
<title>16</title>
<ellipse fill="none" stroke="black" cx="1387.85" cy="-18" rx="42.49" ry="18"/>
<text text-anchor="middle" x="1387.85" y="-14.3" font-family="Times,serif" font-size="14.00">Gomes</text>
</g>
<!-- 0&#45;&gt;16 -->
<g id="edge16" class="edge">
<title>0&#45;&gt;16</title>
<path fill="none" stroke="black" d="M2438.52,-104.16C2272.28,-104.45 1706.26,-102.88 1528.85,-69 1492.45,-62.05 1452.82,-47.32 1424.88,-35.63"/>
<polygon fill="black" stroke="black" points="1426.07,-32.34 1415.5,-31.65 1423.33,-38.78 1426.07,-32.34"/>
<text text-anchor="middle" x="1542.35" y="-57.8" font-family="Times,serif" font-size="14.00">dep</text>
</g>
<!-- 17 -->
<g id="node18" class="node">
<title>17</title>
<ellipse fill="none" stroke="black" cx="1474.85" cy="-18" rx="27" ry="18"/>
<text text-anchor="middle" x="1474.85" y="-14.3" font-family="Times,serif" font-size="14.00">e</text>
</g>
<!-- 0&#45;&gt;17 -->
<g id="edge17" class="edge">
<title>0&#45;&gt;17</title>
<path fill="none" stroke="black" d="M2438.74,-103.67C2283.33,-102.33 1779.53,-95.95 1619.85,-69 1569.94,-60.58 1558.08,-54.19 1510.85,-36 1509.01,-35.29 1507.13,-34.53 1505.25,-33.74"/>
<polygon fill="black" stroke="black" points="1506.5,-30.46 1495.94,-29.59 1503.65,-36.86 1506.5,-30.46"/>
<text text-anchor="middle" x="1633.35" y="-57.8" font-family="Times,serif" font-size="14.00">dep</text>
</g>
<!-- 18 -->
<g id="node19" class="node">
<title>18</title>
<ellipse fill="none" stroke="black" cx="1563.85" cy="-18" rx="44.39" ry="18"/>
<text text-anchor="middle" x="1563.85" y="-14.3" font-family="Times,serif" font-size="14.00">Madjer</text>
</g>
<!-- 0&#45;&gt;18 -->
<g id="edge18" class="edge">
<title>0&#45;&gt;18</title>
<path fill="none" stroke="black" d="M2438.73,-103.78C2292.97,-102.8 1843.38,-97.49 1700.85,-69 1666.02,-62.04 1628.23,-47.69 1601.17,-36.15"/>
<polygon fill="black" stroke="black" points="1602.28,-32.81 1591.72,-32.04 1599.49,-39.23 1602.28,-32.81"/>
<text text-anchor="middle" x="1714.35" y="-57.8" font-family="Times,serif" font-size="14.00">dep</text>
</g>
<!-- 19 -->
<g id="node20" class="node">
<title>19</title>
<ellipse fill="none" stroke="black" cx="1652.85" cy="-18" rx="27" ry="18"/>
<text text-anchor="middle" x="1652.85" y="-14.3" font-family="Times,serif" font-size="14.00">,</text>
</g>
<!-- 0&#45;&gt;19 -->
<g id="edge19" class="edge">
<title>0&#45;&gt;19</title>
<path fill="none" stroke="black" d="M2438.63,-103.43C2303.22,-101.47 1909.03,-93.75 1782.85,-69 1747.29,-62.02 1708.81,-46.08 1683.02,-34.06"/>
<polygon fill="black" stroke="black" points="1684.32,-30.81 1673.79,-29.67 1681.32,-37.13 1684.32,-30.81"/>
<text text-anchor="middle" x="1796.35" y="-57.8" font-family="Times,serif" font-size="14.00">dep</text>
</g>
<!-- 20 -->
<g id="node21" class="node">
<title>20</title>
<ellipse fill="none" stroke="black" cx="1724.85" cy="-18" rx="27" ry="18"/>
<text text-anchor="middle" x="1724.85" y="-14.3" font-family="Times,serif" font-size="14.00">o</text>
</g>
<!-- 0&#45;&gt;20 -->
<g id="edge20" class="edge">
<title>0&#45;&gt;20</title>
<path fill="none" stroke="black" d="M2438.64,-104.62C2337.04,-105.26 2086.84,-102.9 1880.85,-69 1826.27,-60.02 1812.71,-55.21 1760.85,-36 1759,-35.32 1757.12,-34.57 1755.23,-33.79"/>
<polygon fill="black" stroke="black" points="1756.47,-30.51 1745.91,-29.69 1753.65,-36.92 1756.47,-30.51"/>
<text text-anchor="middle" x="1894.35" y="-57.8" font-family="Times,serif" font-size="14.00">dep</text>
</g>
<!-- 21 -->
<g id="node22" class="node">
<title>21</title>
<ellipse fill="none" stroke="black" cx="1814.85" cy="-18" rx="44.69" ry="18"/>
<text text-anchor="middle" x="1814.85" y="-14.3" font-family="Times,serif" font-size="14.00">homem</text>
</g>
<!-- 0&#45;&gt;21 -->
<g id="edge21" class="edge">
<title>0&#45;&gt;21</title>
<path fill="none" stroke="black" d="M2438.61,-104.73C2347.46,-105.31 2138.47,-102.48 1966.85,-69 1927.73,-61.37 1884.71,-46.59 1854.46,-35.07"/>
<polygon fill="black" stroke="black" points="1855.69,-31.79 1845.1,-31.45 1853.17,-38.32 1855.69,-31.79"/>
<text text-anchor="middle" x="1980.35" y="-57.8" font-family="Times,serif" font-size="14.00">dep</text>
</g>
<!-- 22 -->
<g id="node23" class="node">
<title>22</title>
<ellipse fill="none" stroke="black" cx="1904.85" cy="-18" rx="27" ry="18"/>
<text text-anchor="middle" x="1904.85" y="-14.3" font-family="Times,serif" font-size="14.00">de</text>
</g>
<!-- 0&#45;&gt;22 -->
<g id="edge22" class="edge">
<title>0&#45;&gt;22</title>
<path fill="none" stroke="black" d="M2438.86,-102.7C2361.68,-99.95 2201.41,-91.79 2067.85,-69 2010.36,-59.19 1995.67,-55.87 1940.85,-36 1938.99,-35.33 1937.11,-34.6 1935.22,-33.82"/>
<polygon fill="black" stroke="black" points="1936.45,-30.54 1925.89,-29.74 1933.64,-36.96 1936.45,-30.54"/>
<text text-anchor="middle" x="2081.35" y="-57.8" font-family="Times,serif" font-size="14.00">dep</text>
</g>
<!-- 23 -->
<g id="node24" class="node">
<title>23</title>
<ellipse fill="none" stroke="black" cx="1996.85" cy="-18" rx="47.39" ry="18"/>
<text text-anchor="middle" x="1996.85" y="-14.3" font-family="Times,serif" font-size="14.00">Palmela</text>
</g>
<!-- 0&#45;&gt;23 -->
<g id="edge23" class="edge">
<title>0&#45;&gt;23</title>
<path fill="none" stroke="black" d="M2439.17,-102.01C2375.23,-98.57 2255.66,-89.79 2155.85,-69 2115.46,-60.59 2070.74,-46.04 2039.04,-34.8"/>
<polygon fill="black" stroke="black" points="2039.83,-31.36 2029.23,-31.27 2037.46,-37.95 2039.83,-31.36"/>
<text text-anchor="middle" x="2169.35" y="-57.8" font-family="Times,serif" font-size="14.00">dep</text>
</g>
<!-- 24 -->
<g id="node25" class="node">
<title>24</title>
<ellipse fill="none" stroke="black" cx="2106.85" cy="-18" rx="44.69" ry="18"/>
<text text-anchor="middle" x="2106.85" y="-14.3" font-family="Times,serif" font-size="14.00">afastou</text>
</g>
<!-- 0&#45;&gt;24 -->
<g id="edge24" class="edge">
<title>0&#45;&gt;24</title>
<path fill="none" stroke="black" d="M2439.59,-101C2388.65,-96.86 2303.74,-87.7 2232.85,-69 2202.11,-60.89 2168.73,-47.42 2144.06,-36.5"/>
<polygon fill="black" stroke="black" points="2145.27,-33.21 2134.72,-32.31 2142.4,-39.6 2145.27,-33.21"/>
<text text-anchor="middle" x="2246.35" y="-57.8" font-family="Times,serif" font-size="14.00">dep</text>
</g>
<!-- 25 -->
<g id="node26" class="node">
<title>25</title>
<ellipse fill="none" stroke="black" cx="2196.85" cy="-18" rx="27" ry="18"/>
<text text-anchor="middle" x="2196.85" y="-14.3" font-family="Times,serif" font-size="14.00">se</text>
</g>
<!-- 0&#45;&gt;25 -->
<g id="edge25" class="edge">
<title>0&#45;&gt;25</title>
<path fill="none" stroke="black" d="M2440.91,-99.24C2402.46,-94.26 2345.46,-84.9 2297.85,-69 2272.21,-60.44 2244.84,-46.56 2225.06,-35.59"/>
<polygon fill="black" stroke="black" points="2226.71,-32.5 2216.28,-30.64 2223.27,-38.6 2226.71,-32.5"/>
<text text-anchor="middle" x="2311.35" y="-57.8" font-family="Times,serif" font-size="14.00">dep</text>
</g>
<!-- 26 -->
<g id="node27" class="node">
<title>26</title>
<ellipse fill="none" stroke="black" cx="2268.85" cy="-18" rx="27" ry="18"/>
<text text-anchor="middle" x="2268.85" y="-14.3" font-family="Times,serif" font-size="14.00">e</text>
</g>
<!-- 0&#45;&gt;26 -->
<g id="edge26" class="edge">
<title>0&#45;&gt;26</title>
<path fill="none" stroke="black" d="M2445.45,-95.59C2420.2,-89.59 2387,-80.54 2358.85,-69 2336.88,-59.99 2313.47,-46.87 2296.04,-36.33"/>
<polygon fill="black" stroke="black" points="2297.86,-33.34 2287.51,-31.09 2294.19,-39.3 2297.86,-33.34"/>
<text text-anchor="middle" x="2372.35" y="-57.8" font-family="Times,serif" font-size="14.00">dep</text>
</g>
<!-- 27 -->
<g id="node28" class="node">
<title>27</title>
<ellipse fill="none" stroke="black" cx="2340.85" cy="-18" rx="27" ry="18"/>
<text text-anchor="middle" x="2340.85" y="-14.3" font-family="Times,serif" font-size="14.00">,</text>
</g>
<!-- 0&#45;&gt;27 -->
<g id="edge27" class="edge">
<title>0&#45;&gt;27</title>
<path fill="none" stroke="black" d="M2454.69,-91.21C2441.02,-85.04 2424.82,-77.2 2410.85,-69 2395.21,-59.82 2378.66,-48.1 2365.58,-38.32"/>
<polygon fill="black" stroke="black" points="2367.62,-35.47 2357.53,-32.21 2363.39,-41.04 2367.62,-35.47"/>
<text text-anchor="middle" x="2424.35" y="-57.8" font-family="Times,serif" font-size="14.00">dep</text>
</g>
<!-- 28 -->
<g id="node29" class="node">
<title>28</title>
<ellipse fill="none" stroke="black" cx="2412.85" cy="-18" rx="27" ry="18"/>
<text text-anchor="middle" x="2412.85" y="-14.3" font-family="Times,serif" font-size="14.00">em</text>
</g>
<!-- 0&#45;&gt;28 -->
<g id="edge28" class="edge">
<title>0&#45;&gt;28</title>
<path fill="none" stroke="black" d="M2470.21,-87.73C2464.99,-81.87 2459.11,-75.18 2453.85,-69 2446.53,-60.41 2438.64,-50.86 2431.75,-42.43"/>
<polygon fill="black" stroke="black" points="2434.28,-39.99 2425.26,-34.44 2428.85,-44.41 2434.28,-39.99"/>
<text text-anchor="middle" x="2467.35" y="-57.8" font-family="Times,serif" font-size="14.00">dep</text>
</g>
<!-- 29 -->
<g id="node30" class="node">
<title>29</title>
<ellipse fill="none" stroke="black" cx="2484.85" cy="-18" rx="27" ry="18"/>
<text text-anchor="middle" x="2484.85" y="-14.3" font-family="Times,serif" font-size="14.00">as</text>
</g>
<!-- 0&#45;&gt;29 -->
<g id="edge29" class="edge">
<title>0&#45;&gt;29</title>
<path fill="none" stroke="black" d="M2484.85,-86.8C2484.85,-75.16 2484.85,-59.55 2484.85,-46.24"/>
<polygon fill="black" stroke="black" points="2488.35,-46.18 2484.85,-36.18 2481.35,-46.18 2488.35,-46.18"/>
<text text-anchor="middle" x="2498.35" y="-57.8" font-family="Times,serif" font-size="14.00">dep</text>
</g>
<!-- 30 -->
<g id="node31" class="node">
<title>30</title>
<ellipse fill="none" stroke="black" cx="2561.85" cy="-18" rx="31.7" ry="18"/>
<text text-anchor="middle" x="2561.85" y="-14.3" font-family="Times,serif" font-size="14.00">suas</text>
</g>
<!-- 0&#45;&gt;30 -->
<g id="edge30" class="edge">
<title>0&#45;&gt;30</title>
<path fill="none" stroke="black" d="M2499.69,-87.61C2511.42,-74.67 2527.92,-56.45 2540.98,-42.04"/>
<polygon fill="black" stroke="black" points="2543.7,-44.24 2547.82,-34.48 2538.52,-39.54 2543.7,-44.24"/>
<text text-anchor="middle" x="2542.35" y="-57.8" font-family="Times,serif" font-size="14.00">dep</text>
</g>
<!-- 31 -->
<g id="node32" class="node">
<title>31</title>
<ellipse fill="none" stroke="black" cx="2651.85" cy="-18" rx="40.09" ry="18"/>
<text text-anchor="middle" x="2651.85" y="-14.3" font-family="Times,serif" font-size="14.00">costas</text>
</g>
<!-- 0&#45;&gt;31 -->
<g id="edge31" class="edge">
<title>0&#45;&gt;31</title>
<path fill="none" stroke="black" d="M2513.89,-90.95C2527.88,-84.53 2544.84,-76.57 2559.85,-69 2579.57,-59.05 2601.29,-47.28 2618.68,-37.66"/>
<polygon fill="black" stroke="black" points="2620.81,-40.48 2627.85,-32.57 2617.41,-34.37 2620.81,-40.48"/>
<text text-anchor="middle" x="2602.35" y="-57.8" font-family="Times,serif" font-size="14.00">dep</text>
</g>
<!-- 32 -->
<g id="node33" class="node">
<title>32</title>
<ellipse fill="none" stroke="black" cx="2736.85" cy="-18" rx="27" ry="18"/>
<text text-anchor="middle" x="2736.85" y="-14.3" font-family="Times,serif" font-size="14.00">,</text>
</g>
<!-- 0&#45;&gt;32 -->
<g id="edge32" class="edge">
<title>0&#45;&gt;32</title>
<path fill="none" stroke="black" d="M2523.94,-95.32C2551.11,-88.94 2588.02,-79.56 2619.85,-69 2656.74,-56.76 2665.26,-51.64 2700.85,-36 2702.65,-35.21 2704.5,-34.38 2706.36,-33.54"/>
<polygon fill="black" stroke="black" points="2708,-36.63 2715.61,-29.26 2705.07,-30.28 2708,-36.63"/>
<text text-anchor="middle" x="2673.35" y="-57.8" font-family="Times,serif" font-size="14.00">dep</text>
</g>
<!-- 33 -->
<g id="node34" class="node">
<title>33</title>
<ellipse fill="none" stroke="black" cx="2845.85" cy="-18" rx="63.89" ry="18"/>
<text text-anchor="middle" x="2845.85" y="-14.3" font-family="Times,serif" font-size="14.00">começaram</text>
</g>
<!-- 0&#45;&gt;33 -->
<g id="edge33" class="edge">
<title>0&#45;&gt;33</title>
<path fill="none" stroke="black" d="M2528.22,-98.48C2570.17,-92.71 2635.35,-82.59 2690.85,-69 2727.77,-59.96 2768.66,-46.62 2799.17,-36"/>
<polygon fill="black" stroke="black" points="2800.42,-39.27 2808.69,-32.65 2798.1,-32.66 2800.42,-39.27"/>
<text text-anchor="middle" x="2756.35" y="-57.8" font-family="Times,serif" font-size="14.00">dep</text>
</g>
<!-- 34 -->
<g id="node35" class="node">
<title>34</title>
<ellipse fill="none" stroke="black" cx="2954.85" cy="-18" rx="27" ry="18"/>
<text text-anchor="middle" x="2954.85" y="-14.3" font-family="Times,serif" font-size="14.00">a</text>
</g>
<!-- 0&#45;&gt;34 -->
<g id="edge34" class="edge">
<title>0&#45;&gt;34</title>
<path fill="none" stroke="black" d="M2530.47,-102.13C2610.97,-97.69 2782.6,-83.05 2918.85,-36 2920.76,-35.34 2922.7,-34.61 2924.65,-33.83"/>
<polygon fill="black" stroke="black" points="2926.45,-36.87 2934.23,-29.68 2923.66,-30.44 2926.45,-36.87"/>
<text text-anchor="middle" x="2864.35" y="-57.8" font-family="Times,serif" font-size="14.00">dep</text>
</g>
<!-- 35 -->
<g id="node36" class="node">
<title>35</title>
<ellipse fill="none" stroke="black" cx="3051.85" cy="-18" rx="51.99" ry="18"/>
<text text-anchor="middle" x="3051.85" y="-14.3" font-family="Times,serif" font-size="14.00">aparecer</text>
</g>
<!-- 0&#45;&gt;35 -->
<g id="edge35" class="edge">
<title>0&#45;&gt;35</title>
<path fill="none" stroke="black" d="M2530.8,-102.9C2605.16,-100.46 2756.24,-92.76 2881.85,-69 2925.18,-60.8 2973.29,-46.11 3007.23,-34.76"/>
<polygon fill="black" stroke="black" points="3008.5,-38.03 3016.86,-31.51 3006.26,-31.4 3008.5,-38.03"/>
<text text-anchor="middle" x="2957.35" y="-57.8" font-family="Times,serif" font-size="14.00">dep</text>
</g>
<!-- 36 -->
<g id="node37" class="node">
<title>36</title>
<ellipse fill="none" stroke="black" cx="3163.85" cy="-18" rx="42.49" ry="18"/>
<text text-anchor="middle" x="3163.85" y="-14.3" font-family="Times,serif" font-size="14.00">muitas</text>
</g>
<!-- 0&#45;&gt;36 -->
<g id="edge36" class="edge">
<title>0&#45;&gt;36</title>
<path fill="none" stroke="black" d="M2531.06,-103.21C2618.3,-101.17 2813.01,-93.96 2974.85,-69 3037.17,-59.39 3052.21,-53.32 3112.85,-36 3115.99,-35.1 3119.22,-34.13 3122.47,-33.13"/>
<polygon fill="black" stroke="black" points="3123.68,-36.41 3132.15,-30.04 3121.56,-29.74 3123.68,-36.41"/>
<text text-anchor="middle" x="3063.35" y="-57.8" font-family="Times,serif" font-size="14.00">dep</text>
</g>
<!-- 37 -->
<g id="node38" class="node">
<title>37</title>
<ellipse fill="none" stroke="black" cx="3250.85" cy="-18" rx="27" ry="18"/>
<text text-anchor="middle" x="3250.85" y="-14.3" font-family="Times,serif" font-size="14.00">de</text>
</g>
<!-- 0&#45;&gt;37 -->
<g id="edge37" class="edge">
<title>0&#45;&gt;37</title>
<path fill="none" stroke="black" d="M2531.13,-104.15C2631.75,-103.85 2877.67,-99.72 3080.85,-69 3141.49,-59.83 3157.05,-56.53 3214.85,-36 3216.75,-35.32 3218.69,-34.58 3220.63,-33.79"/>
<polygon fill="black" stroke="black" points="3222.44,-36.82 3230.2,-29.61 3219.64,-30.41 3222.44,-36.82"/>
<text text-anchor="middle" x="3172.35" y="-57.8" font-family="Times,serif" font-size="14.00">dep</text>
</g>
<!-- 38 -->
<g id="node39" class="node">
<title>38</title>
<ellipse fill="none" stroke="black" cx="3322.85" cy="-18" rx="27" ry="18"/>
<text text-anchor="middle" x="3322.85" y="-14.3" font-family="Times,serif" font-size="14.00">as</text>
</g>
<!-- 0&#45;&gt;38 -->
<g id="edge38" class="edge">
<title>0&#45;&gt;38</title>
<path fill="none" stroke="black" d="M2531.25,-103.38C2667.21,-101.29 3063.01,-93.23 3189.85,-69 3226.53,-61.99 3266.35,-45.78 3292.75,-33.71"/>
<polygon fill="black" stroke="black" points="3294.26,-36.87 3301.85,-29.47 3291.3,-30.52 3294.26,-36.87"/>
<text text-anchor="middle" x="3256.35" y="-57.8" font-family="Times,serif" font-size="14.00">dep</text>
</g>
<!-- 39 -->
<g id="node40" class="node">
<title>39</title>
<ellipse fill="none" stroke="black" cx="3418.85" cy="-18" rx="51.19" ry="18"/>
<text text-anchor="middle" x="3418.85" y="-14.3" font-family="Times,serif" font-size="14.00">histórias</text>
</g>
<!-- 0&#45;&gt;39 -->
<g id="edge39" class="edge">
<title>0&#45;&gt;39</title>
<path fill="none" stroke="black" d="M2530.97,-103.69C2677.33,-102.44 3130.06,-96.38 3273.85,-69 3310.39,-62.04 3350.23,-47.79 3378.89,-36.27"/>
<polygon fill="black" stroke="black" points="3380.22,-39.51 3388.16,-32.49 3377.58,-33.03 3380.22,-39.51"/>
<text text-anchor="middle" x="3340.35" y="-57.8" font-family="Times,serif" font-size="14.00">dep</text>
</g>
<!-- 40 -->
<g id="node41" class="node">
<title>40</title>
<ellipse fill="none" stroke="black" cx="3514.85" cy="-18" rx="27" ry="18"/>
<text text-anchor="middle" x="3514.85" y="-14.3" font-family="Times,serif" font-size="14.00">a</text>
</g>
<!-- 0&#45;&gt;40 -->
<g id="edge40" class="edge">
<title>0&#45;&gt;40</title>
<path fill="none" stroke="black" d="M2531.08,-103.52C2687.52,-101.7 3196.23,-93.95 3357.85,-69 3412.94,-60.5 3426.55,-55.31 3478.85,-36 3480.69,-35.32 3482.58,-34.58 3484.46,-33.8"/>
<polygon fill="black" stroke="black" points="3486.04,-36.93 3493.79,-29.7 3483.23,-30.52 3486.04,-36.93"/>
<text text-anchor="middle" x="3441.35" y="-57.8" font-family="Times,serif" font-size="14.00">dep</text>
</g>
<!-- 41 -->
<g id="node42" class="node">
<title>41</title>
<ellipse fill="none" stroke="black" cx="3586.85" cy="-18" rx="27" ry="18"/>
<text text-anchor="middle" x="3586.85" y="-14.3" font-family="Times,serif" font-size="14.00">seu</text>
</g>
<!-- 0&#45;&gt;41 -->
<g id="edge41" class="edge">
<title>0&#45;&gt;41</title>
<path fill="none" stroke="black" d="M2531.17,-104.22C2699.44,-104.73 3277.84,-103.84 3458.85,-69 3493.95,-62.24 3531.82,-46.26 3557.18,-34.17"/>
<polygon fill="black" stroke="black" points="3558.8,-37.28 3566.26,-29.76 3555.74,-30.99 3558.8,-37.28"/>
<text text-anchor="middle" x="3523.35" y="-57.8" font-family="Times,serif" font-size="14.00">dep</text>
</g>
<!-- 42 -->
<g id="node43" class="node">
<title>42</title>
<ellipse fill="none" stroke="black" cx="3680.85" cy="-18" rx="48.99" ry="18"/>
<text text-anchor="middle" x="3680.85" y="-14.3" font-family="Times,serif" font-size="14.00">respeito</text>
</g>
<!-- 0&#45;&gt;42 -->
<g id="edge42" class="edge">
<title>0&#45;&gt;42</title>
<path fill="none" stroke="black" d="M2531.06,-104.36C2708.11,-105.46 3343.08,-106.64 3540.85,-69 3576.23,-62.27 3614.63,-48.02 3642.26,-36.45"/>
<polygon fill="black" stroke="black" points="3643.73,-39.62 3651.55,-32.48 3640.98,-33.18 3643.73,-39.62"/>
<text text-anchor="middle" x="3610.35" y="-57.8" font-family="Times,serif" font-size="14.00">dep</text>
</g>
<!-- 43 -->
<g id="node44" class="node">
<title>43</title>
<ellipse fill="none" stroke="black" cx="3775.85" cy="-18" rx="27.9" ry="18"/>
<text text-anchor="middle" x="3775.85" y="-14.3" font-family="Times,serif" font-size="14.00">que</text>
</g>
<!-- 0&#45;&gt;43 -->
<g id="edge43" class="edge">
<title>0&#45;&gt;43</title>
<path fill="none" stroke="black" d="M2530.95,-104.17C2716.8,-104.63 3411.26,-103.91 3627.85,-69 3678.66,-60.81 3690.67,-54.12 3738.85,-36 3740.73,-35.29 3742.66,-34.53 3744.59,-33.73"/>
<polygon fill="black" stroke="black" points="3746.37,-36.78 3754.15,-29.59 3743.58,-30.35 3746.37,-36.78"/>
<text text-anchor="middle" x="3704.35" y="-57.8" font-family="Times,serif" font-size="14.00">dep</text>
</g>
<!-- 44 -->
<g id="node45" class="node">
<title>44</title>
<ellipse fill="none" stroke="black" cx="3848.85" cy="-18" rx="27" ry="18"/>
<text text-anchor="middle" x="3848.85" y="-14.3" font-family="Times,serif" font-size="14.00">,</text>
</g>
<!-- 0&#45;&gt;44 -->
<g id="edge44" class="edge">
<title>0&#45;&gt;44</title>
<path fill="none" stroke="black" d="M2531.04,-103.56C2741.38,-101.47 3603.39,-91.55 3721.85,-69 3756.73,-62.36 3794.29,-46.36 3819.44,-34.23"/>
<polygon fill="black" stroke="black" points="3821.02,-37.36 3828.44,-29.8 3817.93,-31.08 3821.02,-37.36"/>
<text text-anchor="middle" x="3786.35" y="-57.8" font-family="Times,serif" font-size="14.00">dep</text>
</g>
<!-- 45 -->
<g id="node46" class="node">
<title>45</title>
<ellipse fill="none" stroke="black" cx="3920.85" cy="-18" rx="27" ry="18"/>
<text text-anchor="middle" x="3920.85" y="-14.3" font-family="Times,serif" font-size="14.00">até</text>
</g>
<!-- 0&#45;&gt;45 -->
<g id="edge45" class="edge">
<title>0&#45;&gt;45</title>
<path fill="none" stroke="black" d="M2531.17,-103.76C2750.3,-102.47 3677.45,-95.5 3803.85,-69 3835.39,-62.39 3868.98,-47.07 3892.04,-35.12"/>
<polygon fill="black" stroke="black" points="3893.74,-38.18 3900.94,-30.4 3890.46,-31.99 3893.74,-38.18"/>
<text text-anchor="middle" x="3864.35" y="-57.8" font-family="Times,serif" font-size="14.00">dep</text>
</g>
<!-- 46 -->
<g id="node47" class="node">
<title>46</title>
<ellipse fill="none" stroke="black" cx="4001.85" cy="-18" rx="36.29" ry="18"/>
<text text-anchor="middle" x="4001.85" y="-14.3" font-family="Times,serif" font-size="14.00">então</text>
</g>
<!-- 0&#45;&gt;46 -->
<g id="edge46" class="edge">
<title>0&#45;&gt;46</title>
<path fill="none" stroke="black" d="M2531.25,-103.85C2758.39,-102.99 3747.56,-97.61 3881.85,-69 3912.69,-62.43 3945.62,-48.13 3969.17,-36.5"/>
<polygon fill="black" stroke="black" points="3970.98,-39.51 3978.33,-31.87 3967.83,-33.26 3970.98,-39.51"/>
<text text-anchor="middle" x="3943.35" y="-57.8" font-family="Times,serif" font-size="14.00">dep</text>
</g>
<!-- 47 -->
<g id="node48" class="node">
<title>47</title>
<ellipse fill="none" stroke="black" cx="4082.85" cy="-18" rx="27" ry="18"/>
<text text-anchor="middle" x="4082.85" y="-14.3" font-family="Times,serif" font-size="14.00">,</text>
</g>
<!-- 0&#45;&gt;47 -->
<g id="edge47" class="edge">
<title>0&#45;&gt;47</title>
<path fill="none" stroke="black" d="M2531.11,-103.84C2765.67,-102.92 3817.98,-97.22 3960.85,-69 3993.95,-62.46 4029.39,-46.87 4053.49,-34.82"/>
<polygon fill="black" stroke="black" points="4055.15,-37.91 4062.46,-30.24 4051.96,-31.67 4055.15,-37.91"/>
<text text-anchor="middle" x="4023.35" y="-57.8" font-family="Times,serif" font-size="14.00">dep</text>
</g>
<!-- 48 -->
<g id="node49" class="node">
<title>48</title>
<ellipse fill="none" stroke="black" cx="4171.85" cy="-18" rx="43.59" ry="18"/>
<text text-anchor="middle" x="4171.85" y="-14.3" font-family="Times,serif" font-size="14.00">tinham</text>
</g>
<!-- 0&#45;&gt;48 -->
<g id="edge48" class="edge">
<title>0&#45;&gt;48</title>
<path fill="none" stroke="black" d="M2531.19,-103.9C2773.54,-103.24 3889.7,-98.62 4040.85,-69 4074.1,-62.48 4109.93,-48.27 4135.7,-36.65"/>
<polygon fill="black" stroke="black" points="4137.43,-39.71 4145.05,-32.35 4134.5,-33.35 4137.43,-39.71"/>
<text text-anchor="middle" x="4106.35" y="-57.8" font-family="Times,serif" font-size="14.00">dep</text>
</g>
<!-- 49 -->
<g id="node50" class="node">
<title>49</title>
<ellipse fill="none" stroke="black" cx="4271.85" cy="-18" rx="38.19" ry="18"/>
<text text-anchor="middle" x="4271.85" y="-14.3" font-family="Times,serif" font-size="14.00">ficado</text>
</g>
<!-- 0&#45;&gt;49 -->
<g id="edge49" class="edge">
<title>0&#45;&gt;49</title>
<path fill="none" stroke="black" d="M2531.15,-103.82C2781.04,-102.76 3963.39,-96.31 4123.85,-69 4163.12,-62.32 4206.05,-46.84 4235.51,-34.86"/>
<polygon fill="black" stroke="black" points="4237.06,-38.01 4244.96,-30.95 4234.39,-31.54 4237.06,-38.01"/>
<text text-anchor="middle" x="4196.35" y="-57.8" font-family="Times,serif" font-size="14.00">dep</text>
</g>
<!-- 50 -->
<g id="node51" class="node">
<title>50</title>
<ellipse fill="none" stroke="black" cx="4389.85" cy="-18" rx="61.99" ry="18"/>
<text text-anchor="middle" x="4389.85" y="-14.3" font-family="Times,serif" font-size="14.00">escondidas</text>
</g>
<!-- 0&#45;&gt;50 -->
<g id="edge50" class="edge">
<title>0&#45;&gt;50</title>
<path fill="none" stroke="black" d="M2531.11,-103.77C2789.01,-102.41 4043.48,-94.49 4213.85,-69 4258.79,-62.28 4308.46,-47.45 4343.54,-35.68"/>
<polygon fill="black" stroke="black" points="4344.69,-38.99 4353.03,-32.45 4342.44,-32.36 4344.69,-38.99"/>
<text text-anchor="middle" x="4296.35" y="-57.8" font-family="Times,serif" font-size="14.00">dep</text>
</g>
<!-- 51 -->
<g id="node52" class="node">
<title>51</title>
<ellipse fill="none" stroke="black" cx="4496.85" cy="-18" rx="27" ry="18"/>
<text text-anchor="middle" x="4496.85" y="-14.3" font-family="Times,serif" font-size="14.00">em</text>
</g>
<!-- 0&#45;&gt;51 -->
<g id="edge51" class="edge">
<title>0&#45;&gt;51</title>
<path fill="none" stroke="black" d="M2531.13,-103.67C2797.77,-101.72 4132.35,-90.88 4313.85,-69 4380.32,-60.99 4397.52,-57.76 4460.85,-36 4462.76,-35.34 4464.7,-34.61 4466.65,-33.84"/>
<polygon fill="black" stroke="black" points="4468.45,-36.87 4476.23,-29.69 4465.66,-30.45 4468.45,-36.87"/>
<text text-anchor="middle" x="4417.35" y="-57.8" font-family="Times,serif" font-size="14.00">dep</text>
</g>
<!-- 52 -->
<g id="node53" class="node">
<title>52</title>
<ellipse fill="none" stroke="black" cx="4568.85" cy="-18" rx="27" ry="18"/>
<text text-anchor="middle" x="4568.85" y="-14.3" font-family="Times,serif" font-size="14.00">os</text>
</g>
<!-- 0&#45;&gt;52 -->
<g id="edge52" class="edge">
<title>0&#45;&gt;52</title>
<path fill="none" stroke="black" d="M2531.04,-104.02C2807.93,-104.01 4242.07,-102.37 4434.85,-69 4471.89,-62.59 4511.99,-46.27 4538.57,-34.01"/>
<polygon fill="black" stroke="black" points="4540.16,-37.13 4547.72,-29.7 4537.18,-30.79 4540.16,-37.13"/>
<text text-anchor="middle" x="4501.35" y="-57.8" font-family="Times,serif" font-size="14.00">dep</text>
</g>
<!-- 53 -->
<g id="node54" class="node">
<title>53</title>
<ellipse fill="none" stroke="black" cx="4666.85" cy="-18" rx="52.79" ry="18"/>
<text text-anchor="middle" x="4666.85" y="-14.3" font-family="Times,serif" font-size="14.00">segredos</text>
</g>
<!-- 0&#45;&gt;53 -->
<g id="edge53" class="edge">
<title>0&#45;&gt;53</title>
<path fill="none" stroke="black" d="M2531.17,-104.06C2815.37,-104.3 4317.33,-103.9 4518.85,-69 4556.3,-62.51 4597.1,-48.14 4626.36,-36.46"/>
<polygon fill="black" stroke="black" points="4627.88,-39.63 4635.82,-32.62 4625.24,-33.14 4627.88,-39.63"/>
<text text-anchor="middle" x="4591.35" y="-57.8" font-family="Times,serif" font-size="14.00">dep</text>
</g>
<!-- 54 -->
<g id="node55" class="node">
<title>54</title>
<ellipse fill="none" stroke="black" cx="4764.85" cy="-18" rx="27" ry="18"/>
<text text-anchor="middle" x="4764.85" y="-14.3" font-family="Times,serif" font-size="14.00">de</text>
</g>
<!-- 0&#45;&gt;54 -->
<g id="edge54" class="edge">
<title>0&#45;&gt;54</title>
<path fill="none" stroke="black" d="M2531.29,-103.94C2823.03,-103.44 4396.99,-99.38 4608.85,-69 4663.6,-61.15 4676.98,-55.21 4728.85,-36 4730.69,-35.32 4732.58,-34.57 4734.46,-33.79"/>
<polygon fill="black" stroke="black" points="4736.04,-36.92 4743.79,-29.69 4733.22,-30.51 4736.04,-36.92"/>
<text text-anchor="middle" x="4692.35" y="-57.8" font-family="Times,serif" font-size="14.00">dep</text>
</g>
<!-- 55 -->
<g id="node56" class="node">
<title>55</title>
<ellipse fill="none" stroke="black" cx="4836.85" cy="-18" rx="27" ry="18"/>
<text text-anchor="middle" x="4836.85" y="-14.3" font-family="Times,serif" font-size="14.00">os</text>
</g>
<!-- 0&#45;&gt;55 -->
<g id="edge55" class="edge">
<title>0&#45;&gt;55</title>
<path fill="none" stroke="black" d="M2531.1,-104.19C2830.48,-105.31 4488.75,-109.65 4709.85,-69 4744.77,-62.58 4782.33,-46.54 4807.46,-34.35"/>
<polygon fill="black" stroke="black" points="4809.05,-37.47 4816.46,-29.89 4805.94,-31.19 4809.05,-37.47"/>
<text text-anchor="middle" x="4774.35" y="-57.8" font-family="Times,serif" font-size="14.00">dep</text>
</g>
<!-- 56 -->
<g id="node57" class="node">
<title>56</title>
<ellipse fill="none" stroke="black" cx="4941.85" cy="-18" rx="59.59" ry="18"/>
<text text-anchor="middle" x="4941.85" y="-14.3" font-family="Times,serif" font-size="14.00">bastidores</text>
</g>
<!-- 0&#45;&gt;56 -->
<g id="edge56" class="edge">
<title>0&#45;&gt;56</title>
<path fill="none" stroke="black" d="M2531.3,-104.15C2837.58,-105.02 4561.7,-108.14 4791.85,-69 4829.29,-62.63 4870.07,-48.54 4899.65,-36.94"/>
<polygon fill="black" stroke="black" points="4901.24,-40.07 4909.23,-33.11 4898.65,-33.57 4901.24,-40.07"/>
<text text-anchor="middle" x="4864.35" y="-57.8" font-family="Times,serif" font-size="14.00">dep</text>
</g>
<!-- 57 -->
<g id="node58" class="node">
<title>57</title>
<ellipse fill="none" stroke="black" cx="5046.85" cy="-18" rx="27" ry="18"/>
<text text-anchor="middle" x="5046.85" y="-14.3" font-family="Times,serif" font-size="14.00">.</text>
</g>
<!-- 0&#45;&gt;57 -->
<g id="edge57" class="edge">
<title>0&#45;&gt;57</title>
<path fill="none" stroke="black" d="M2531.06,-103.98C2843.42,-103.76 4640.9,-101.12 4881.85,-69 4940.51,-61.18 4955.17,-56.06 5010.85,-36 5012.7,-35.33 5014.59,-34.6 5016.48,-33.83"/>
<polygon fill="black" stroke="black" points="5018.05,-36.97 5025.81,-29.75 5015.25,-30.55 5018.05,-36.97"/>
<text text-anchor="middle" x="4972.35" y="-57.8" font-family="Times,serif" font-size="14.00">dep</text>
</g>
</g>
</svg>
