<?xml version="1.0" encoding="UTF-8" standalone="no"?>
<!DOCTYPE svg PUBLIC "-//W3C//DTD SVG 1.1//EN"
 "http://www.w3.org/Graphics/SVG/1.1/DTD/svg11.dtd">
<!-- Generated by graphviz version 2.42.4 (0)
 -->
<!-- Pages: 1 -->
<svg width="1696pt" height="131pt"
 viewBox="0.00 0.00 1696.00 131.00" xmlns="http://www.w3.org/2000/svg" xmlns:xlink="http://www.w3.org/1999/xlink">
<g id="graph0" class="graph" transform="scale(1 1) rotate(0) translate(4 127)">
<polygon fill="white" stroke="transparent" points="-4,4 -4,-127 1692,-127 1692,4 -4,4"/>
<!-- 0 -->
<g id="node1" class="node">
<title>0</title>
<ellipse fill="none" stroke="black" cx="795" cy="-105" rx="27" ry="18"/>
<text text-anchor="middle" x="795" y="-101.3" font-family="Times,serif" font-size="14.00">A</text>
</g>
<!-- 1 -->
<g id="node2" class="node">
<title>1</title>
<ellipse fill="none" stroke="black" cx="27" cy="-18" rx="27" ry="18"/>
<text text-anchor="middle" x="27" y="-14.3" font-family="Times,serif" font-size="14.00">as</text>
</g>
<!-- 0&#45;&gt;1 -->
<g id="edge1" class="edge">
<title>0&#45;&gt;1</title>
<path fill="none" stroke="black" d="M767.85,-103.64C661.18,-102.04 270.83,-94.55 150,-69 116.75,-61.97 81,-46.45 56.66,-34.56"/>
<polygon fill="black" stroke="black" points="58.12,-31.37 47.61,-30.04 54.99,-37.64 58.12,-31.37"/>
<text text-anchor="middle" x="163.5" y="-57.8" font-family="Times,serif" font-size="14.00">dep</text>
</g>
<!-- 2 -->
<g id="node3" class="node">
<title>2</title>
<ellipse fill="none" stroke="black" cx="99" cy="-18" rx="27" ry="18"/>
<text text-anchor="middle" x="99" y="-14.3" font-family="Times,serif" font-size="14.00">20</text>
</g>
<!-- 0&#45;&gt;2 -->
<g id="edge2" class="edge">
<title>0&#45;&gt;2</title>
<path fill="none" stroke="black" d="M767.87,-103.22C670.51,-100.3 339.02,-89.07 235,-69 189.05,-60.13 178.46,-53.36 135,-36 133.17,-35.27 131.3,-34.49 129.43,-33.68"/>
<polygon fill="black" stroke="black" points="130.69,-30.41 120.13,-29.51 127.82,-36.8 130.69,-30.41"/>
<text text-anchor="middle" x="248.5" y="-57.8" font-family="Times,serif" font-size="14.00">dep</text>
</g>
<!-- 3 -->
<g id="node4" class="node">
<title>3</title>
<ellipse fill="none" stroke="black" cx="180" cy="-18" rx="36.29" ry="18"/>
<text text-anchor="middle" x="180" y="-14.3" font-family="Times,serif" font-size="14.00">horas</text>
</g>
<!-- 0&#45;&gt;3 -->
<g id="edge3" class="edge">
<title>0&#45;&gt;3</title>
<path fill="none" stroke="black" d="M768.1,-103.04C680.14,-99.75 401.75,-88.06 314,-69 279.21,-61.44 241.35,-46.67 214.78,-35.13"/>
<polygon fill="black" stroke="black" points="216.09,-31.88 205.52,-31.04 213.26,-38.28 216.09,-31.88"/>
<text text-anchor="middle" x="327.5" y="-57.8" font-family="Times,serif" font-size="14.00">dep</text>
</g>
<!-- 4 -->
<g id="node5" class="node">
<title>4</title>
<ellipse fill="none" stroke="black" cx="261" cy="-18" rx="27" ry="18"/>
<text text-anchor="middle" x="261" y="-14.3" font-family="Times,serif" font-size="14.00">,</text>
</g>
<!-- 0&#45;&gt;4 -->
<g id="edge4" class="edge">
<title>0&#45;&gt;4</title>
<path fill="none" stroke="black" d="M767.78,-103.95C702.29,-103.32 531.07,-98.71 392,-69 356.33,-61.38 317.53,-45.55 291.49,-33.73"/>
<polygon fill="black" stroke="black" points="292.71,-30.44 282.17,-29.42 289.78,-36.79 292.71,-30.44"/>
<text text-anchor="middle" x="405.5" y="-57.8" font-family="Times,serif" font-size="14.00">dep</text>
</g>
<!-- 5 -->
<g id="node6" class="node">
<title>5</title>
<ellipse fill="none" stroke="black" cx="333" cy="-18" rx="27" ry="18"/>
<text text-anchor="middle" x="333" y="-14.3" font-family="Times,serif" font-size="14.00">o</text>
</g>
<!-- 0&#45;&gt;5 -->
<g id="edge5" class="edge">
<title>0&#45;&gt;5</title>
<path fill="none" stroke="black" d="M768.23,-102.47C714.25,-99.05 588.62,-89.44 485,-69 432.41,-58.62 419.18,-54.84 369,-36 367.16,-35.31 365.28,-34.56 363.39,-33.77"/>
<polygon fill="black" stroke="black" points="364.63,-30.5 354.07,-29.66 361.8,-36.9 364.63,-30.5"/>
<text text-anchor="middle" x="498.5" y="-57.8" font-family="Times,serif" font-size="14.00">dep</text>
</g>
<!-- 6 -->
<g id="node7" class="node">
<title>6</title>
<ellipse fill="none" stroke="black" cx="424" cy="-18" rx="46.29" ry="18"/>
<text text-anchor="middle" x="424" y="-14.3" font-family="Times,serif" font-size="14.00">general</text>
</g>
<!-- 0&#45;&gt;6 -->
<g id="edge6" class="edge">
<title>0&#45;&gt;6</title>
<path fill="none" stroke="black" d="M768.1,-101.71C724.37,-97.6 635.35,-87.6 562,-69 528.01,-60.38 490.69,-46.58 463.44,-35.66"/>
<polygon fill="black" stroke="black" points="464.46,-32.3 453.88,-31.78 461.83,-38.79 464.46,-32.3"/>
<text text-anchor="middle" x="575.5" y="-57.8" font-family="Times,serif" font-size="14.00">dep</text>
</g>
<!-- 7 -->
<g id="node8" class="node">
<title>7</title>
<ellipse fill="none" stroke="black" cx="515" cy="-18" rx="27" ry="18"/>
<text text-anchor="middle" x="515" y="-14.3" font-family="Times,serif" font-size="14.00">De</text>
</g>
<!-- 0&#45;&gt;7 -->
<g id="edge7" class="edge">
<title>0&#45;&gt;7</title>
<path fill="none" stroke="black" d="M769.18,-99.66C737.28,-94 681.52,-83.13 635,-69 596.62,-57.34 587.82,-51.91 551,-36 549.19,-35.22 547.34,-34.4 545.48,-33.56"/>
<polygon fill="black" stroke="black" points="546.76,-30.3 536.21,-29.31 543.84,-36.66 546.76,-30.3"/>
<text text-anchor="middle" x="648.5" y="-57.8" font-family="Times,serif" font-size="14.00">dep</text>
</g>
<!-- 8 -->
<g id="node9" class="node">
<title>8</title>
<ellipse fill="none" stroke="black" cx="600" cy="-18" rx="40.09" ry="18"/>
<text text-anchor="middle" x="600" y="-14.3" font-family="Times,serif" font-size="14.00">Gaulle</text>
</g>
<!-- 0&#45;&gt;8 -->
<g id="edge8" class="edge">
<title>0&#45;&gt;8</title>
<path fill="none" stroke="black" d="M770.78,-96.63C750.28,-90.14 720.3,-80.01 695,-69 673.75,-59.75 650.74,-47.69 632.68,-37.74"/>
<polygon fill="black" stroke="black" points="634.17,-34.56 623.73,-32.75 630.76,-40.67 634.17,-34.56"/>
<text text-anchor="middle" x="708.5" y="-57.8" font-family="Times,serif" font-size="14.00">dep</text>
</g>
<!-- 9 -->
<g id="node10" class="node">
<title>9</title>
<ellipse fill="none" stroke="black" cx="686" cy="-18" rx="27.9" ry="18"/>
<text text-anchor="middle" x="686" y="-14.3" font-family="Times,serif" font-size="14.00">fala</text>
</g>
<!-- 0&#45;&gt;9 -->
<g id="edge9" class="edge">
<title>0&#45;&gt;9</title>
<path fill="none" stroke="black" d="M776.24,-91.84C766.45,-85.32 754.38,-77 744,-69 732.08,-59.82 719.37,-48.98 708.89,-39.75"/>
<polygon fill="black" stroke="black" points="711.16,-37.09 701.36,-33.06 706.51,-42.32 711.16,-37.09"/>
<text text-anchor="middle" x="757.5" y="-57.8" font-family="Times,serif" font-size="14.00">dep</text>
</g>
<!-- 10 -->
<g id="node11" class="node">
<title>10</title>
<ellipse fill="none" stroke="black" cx="759" cy="-18" rx="27" ry="18"/>
<text text-anchor="middle" x="759" y="-14.3" font-family="Times,serif" font-size="14.00">a</text>
</g>
<!-- 0&#45;&gt;10 -->
<g id="edge10" class="edge">
<title>0&#45;&gt;10</title>
<path fill="none" stroke="black" d="M787.89,-87.21C782.78,-75.14 775.79,-58.64 769.97,-44.89"/>
<polygon fill="black" stroke="black" points="773.1,-43.31 765.98,-35.47 766.65,-46.04 773.1,-43.31"/>
<text text-anchor="middle" x="793.5" y="-57.8" font-family="Times,serif" font-size="14.00">dep</text>
</g>
<!-- 11 -->
<g id="node12" class="node">
<title>11</title>
<ellipse fill="none" stroke="black" cx="831" cy="-18" rx="27" ry="18"/>
<text text-anchor="middle" x="831" y="-14.3" font-family="Times,serif" font-size="14.00">o</text>
</g>
<!-- 0&#45;&gt;11 -->
<g id="edge11" class="edge">
<title>0&#45;&gt;11</title>
<path fill="none" stroke="black" d="M802.11,-87.21C807.22,-75.14 814.21,-58.64 820.03,-44.89"/>
<polygon fill="black" stroke="black" points="823.35,-46.04 824.02,-35.47 816.9,-43.31 823.35,-46.04"/>
<text text-anchor="middle" x="829.5" y="-57.8" font-family="Times,serif" font-size="14.00">dep</text>
</g>
<!-- 12 -->
<g id="node13" class="node">
<title>12</title>
<ellipse fill="none" stroke="black" cx="906" cy="-18" rx="29.8" ry="18"/>
<text text-anchor="middle" x="906" y="-14.3" font-family="Times,serif" font-size="14.00">país</text>
</g>
<!-- 0&#45;&gt;12 -->
<g id="edge12" class="edge">
<title>0&#45;&gt;12</title>
<path fill="none" stroke="black" d="M814.12,-91.85C824.11,-85.33 836.41,-77.01 847,-69 858.95,-59.96 871.68,-49.31 882.26,-40.16"/>
<polygon fill="black" stroke="black" points="884.64,-42.72 889.87,-33.51 880.04,-37.45 884.64,-42.72"/>
<text text-anchor="middle" x="879.5" y="-57.8" font-family="Times,serif" font-size="14.00">dep</text>
</g>
<!-- 13 -->
<g id="node14" class="node">
<title>13</title>
<ellipse fill="none" stroke="black" cx="981" cy="-18" rx="27" ry="18"/>
<text text-anchor="middle" x="981" y="-14.3" font-family="Times,serif" font-size="14.00">,</text>
</g>
<!-- 0&#45;&gt;13 -->
<g id="edge13" class="edge">
<title>0&#45;&gt;13</title>
<path fill="none" stroke="black" d="M819.46,-97.16C840.47,-90.92 871.35,-80.88 897,-69 916.7,-59.88 937.68,-47.39 953.75,-37.18"/>
<polygon fill="black" stroke="black" points="956.09,-39.83 962.59,-31.47 952.29,-33.95 956.09,-39.83"/>
<text text-anchor="middle" x="939.5" y="-57.8" font-family="Times,serif" font-size="14.00">dep</text>
</g>
<!-- 14 -->
<g id="node15" class="node">
<title>14</title>
<ellipse fill="none" stroke="black" cx="1081" cy="-18" rx="54.69" ry="18"/>
<text text-anchor="middle" x="1081" y="-14.3" font-family="Times,serif" font-size="14.00">propondo</text>
</g>
<!-- 0&#45;&gt;14 -->
<g id="edge14" class="edge">
<title>0&#45;&gt;14</title>
<path fill="none" stroke="black" d="M820.88,-99.81C853.15,-94.27 909.83,-83.49 957,-69 985.67,-60.19 1016.98,-47.54 1040.97,-37.17"/>
<polygon fill="black" stroke="black" points="1042.68,-40.24 1050.44,-33.03 1039.88,-33.83 1042.68,-40.24"/>
<text text-anchor="middle" x="1012.5" y="-57.8" font-family="Times,serif" font-size="14.00">dep</text>
</g>
<!-- 15 -->
<g id="node16" class="node">
<title>15</title>
<ellipse fill="none" stroke="black" cx="1181" cy="-18" rx="27" ry="18"/>
<text text-anchor="middle" x="1181" y="-14.3" font-family="Times,serif" font-size="14.00">a</text>
</g>
<!-- 0&#45;&gt;15 -->
<g id="edge15" class="edge">
<title>0&#45;&gt;15</title>
<path fill="none" stroke="black" d="M821.73,-101.89C881.43,-96.51 1029.44,-79.54 1145,-36 1146.84,-35.31 1148.72,-34.55 1150.61,-33.77"/>
<polygon fill="black" stroke="black" points="1152.2,-36.89 1159.93,-29.65 1149.36,-30.49 1152.2,-36.89"/>
<text text-anchor="middle" x="1103.5" y="-57.8" font-family="Times,serif" font-size="14.00">dep</text>
</g>
<!-- 16 -->
<g id="node17" class="node">
<title>16</title>
<ellipse fill="none" stroke="black" cx="1284" cy="-18" rx="57.69" ry="18"/>
<text text-anchor="middle" x="1284" y="-14.3" font-family="Times,serif" font-size="14.00">realização</text>
</g>
<!-- 0&#45;&gt;16 -->
<g id="edge16" class="edge">
<title>0&#45;&gt;16</title>
<path fill="none" stroke="black" d="M821.89,-102.85C877.99,-100.07 1011.43,-91.47 1121,-69 1161.34,-60.73 1205.97,-46.68 1238.31,-35.58"/>
<polygon fill="black" stroke="black" points="1239.64,-38.82 1247.94,-32.24 1237.34,-32.21 1239.64,-38.82"/>
<text text-anchor="middle" x="1194.5" y="-57.8" font-family="Times,serif" font-size="14.00">dep</text>
</g>
<!-- 17 -->
<g id="node18" class="node">
<title>17</title>
<ellipse fill="none" stroke="black" cx="1387" cy="-18" rx="27" ry="18"/>
<text text-anchor="middle" x="1387" y="-14.3" font-family="Times,serif" font-size="14.00">de</text>
</g>
<!-- 0&#45;&gt;17 -->
<g id="edge17" class="edge">
<title>0&#45;&gt;17</title>
<path fill="none" stroke="black" d="M822,-103.13C888.62,-100.68 1066.01,-92.32 1212,-69 1274.7,-58.98 1291.08,-57 1351,-36 1352.91,-35.33 1354.85,-34.59 1356.79,-33.81"/>
<polygon fill="black" stroke="black" points="1358.6,-36.84 1366.37,-29.64 1355.8,-30.42 1358.6,-36.84"/>
<text text-anchor="middle" x="1305.5" y="-57.8" font-family="Times,serif" font-size="14.00">dep</text>
</g>
<!-- 18 -->
<g id="node19" class="node">
<title>18</title>
<ellipse fill="none" stroke="black" cx="1459" cy="-18" rx="27" ry="18"/>
<text text-anchor="middle" x="1459" y="-14.3" font-family="Times,serif" font-size="14.00">um</text>
</g>
<!-- 0&#45;&gt;18 -->
<g id="edge18" class="edge">
<title>0&#45;&gt;18</title>
<path fill="none" stroke="black" d="M822.23,-104.6C900.76,-105.81 1134.09,-105.81 1323,-69 1368.94,-60.05 1379.54,-53.36 1423,-36 1424.83,-35.27 1426.7,-34.49 1428.57,-33.68"/>
<polygon fill="black" stroke="black" points="1430.18,-36.8 1437.87,-29.51 1427.31,-30.41 1430.18,-36.8"/>
<text text-anchor="middle" x="1391.5" y="-57.8" font-family="Times,serif" font-size="14.00">dep</text>
</g>
<!-- 19 -->
<g id="node20" class="node">
<title>19</title>
<ellipse fill="none" stroke="black" cx="1560" cy="-18" rx="55.79" ry="18"/>
<text text-anchor="middle" x="1560" y="-14.3" font-family="Times,serif" font-size="14.00">referendo</text>
</g>
<!-- 0&#45;&gt;19 -->
<g id="edge19" class="edge">
<title>0&#45;&gt;19</title>
<path fill="none" stroke="black" d="M822.22,-103.4C925.62,-100.96 1294.02,-90.92 1409,-69 1446.53,-61.85 1487.6,-47.82 1517.42,-36.44"/>
<polygon fill="black" stroke="black" points="1519.02,-39.57 1527.08,-32.7 1516.49,-33.05 1519.02,-39.57"/>
<text text-anchor="middle" x="1477.5" y="-57.8" font-family="Times,serif" font-size="14.00">dep</text>
</g>
<!-- 20 -->
<g id="node21" class="node">
<title>20</title>
<ellipse fill="none" stroke="black" cx="1661" cy="-18" rx="27" ry="18"/>
<text text-anchor="middle" x="1661" y="-14.3" font-family="Times,serif" font-size="14.00">.</text>
</g>
<!-- 0&#45;&gt;20 -->
<g id="edge20" class="edge">
<title>0&#45;&gt;20</title>
<path fill="none" stroke="black" d="M822.07,-103.37C934.08,-100.63 1361.59,-89.06 1495,-69 1553.95,-60.13 1568.9,-56.15 1625,-36 1626.85,-35.33 1628.74,-34.61 1630.63,-33.84"/>
<polygon fill="black" stroke="black" points="1632.2,-36.97 1639.97,-29.76 1629.4,-30.55 1632.2,-36.97"/>
<text text-anchor="middle" x="1583.5" y="-57.8" font-family="Times,serif" font-size="14.00">dep</text>
</g>
</g>
</svg>
