<?xml version="1.0" encoding="UTF-8" standalone="no"?>
<!DOCTYPE svg PUBLIC "-//W3C//DTD SVG 1.1//EN"
 "http://www.w3.org/Graphics/SVG/1.1/DTD/svg11.dtd">
<!-- Generated by graphviz version 2.42.4 (0)
 -->
<!-- Pages: 1 -->
<svg width="884pt" height="131pt"
 viewBox="0.00 0.00 884.00 131.00" xmlns="http://www.w3.org/2000/svg" xmlns:xlink="http://www.w3.org/1999/xlink">
<g id="graph0" class="graph" transform="scale(1 1) rotate(0) translate(4 127)">
<polygon fill="white" stroke="transparent" points="-4,4 -4,-127 880,-127 880,4 -4,4"/>
<!-- 0 -->
<g id="node1" class="node">
<title>0</title>
<ellipse fill="none" stroke="black" cx="458" cy="-105" rx="67.69" ry="18"/>
<text text-anchor="middle" x="458" y="-101.3" font-family="Times,serif" font-size="14.00">Distribuídos</text>
</g>
<!-- 1 -->
<g id="node2" class="node">
<title>1</title>
<ellipse fill="none" stroke="black" cx="27" cy="-18" rx="27" ry="18"/>
<text text-anchor="middle" x="27" y="-14.3" font-family="Times,serif" font-size="14.00">os</text>
</g>
<!-- 0&#45;&gt;1 -->
<g id="edge1" class="edge">
<title>0&#45;&gt;1</title>
<path fill="none" stroke="black" d="M392.96,-99.76C313.2,-93.01 174.82,-76.17 63,-36 61.15,-35.33 59.26,-34.61 57.37,-33.84"/>
<polygon fill="black" stroke="black" points="58.6,-30.55 48.03,-29.76 55.8,-36.97 58.6,-30.55"/>
<text text-anchor="middle" x="193.5" y="-57.8" font-family="Times,serif" font-size="14.00">dep</text>
</g>
<!-- 2 -->
<g id="node3" class="node">
<title>2</title>
<ellipse fill="none" stroke="black" cx="127" cy="-18" rx="54.69" ry="18"/>
<text text-anchor="middle" x="127" y="-14.3" font-family="Times,serif" font-size="14.00">trabalhos</text>
</g>
<!-- 0&#45;&gt;2 -->
<g id="edge2" class="edge">
<title>0&#45;&gt;2</title>
<path fill="none" stroke="black" d="M400.53,-95.41C363.53,-89.34 314.56,-80.28 272,-69 237.35,-59.82 199.04,-46.47 170.51,-35.87"/>
<polygon fill="black" stroke="black" points="171.44,-32.48 160.84,-32.25 168.98,-39.03 171.44,-32.48"/>
<text text-anchor="middle" x="285.5" y="-57.8" font-family="Times,serif" font-size="14.00">dep</text>
</g>
<!-- 3 -->
<g id="node4" class="node">
<title>3</title>
<ellipse fill="none" stroke="black" cx="227" cy="-18" rx="27" ry="18"/>
<text text-anchor="middle" x="227" y="-14.3" font-family="Times,serif" font-size="14.00">,</text>
</g>
<!-- 0&#45;&gt;3 -->
<g id="edge3" class="edge">
<title>0&#45;&gt;3</title>
<path fill="none" stroke="black" d="M412.34,-91.6C390.56,-85.36 364.24,-77.36 341,-69 305.58,-56.25 297.36,-51.37 263,-36 261.2,-35.2 259.36,-34.36 257.5,-33.51"/>
<polygon fill="black" stroke="black" points="258.8,-30.25 248.25,-29.21 255.85,-36.6 258.8,-30.25"/>
<text text-anchor="middle" x="354.5" y="-57.8" font-family="Times,serif" font-size="14.00">dep</text>
</g>
<!-- 4 -->
<g id="node5" class="node">
<title>4</title>
<ellipse fill="none" stroke="black" cx="304" cy="-18" rx="31.7" ry="18"/>
<text text-anchor="middle" x="304" y="-14.3" font-family="Times,serif" font-size="14.00">falta</text>
</g>
<!-- 0&#45;&gt;4 -->
<g id="edge4" class="edge">
<title>0&#45;&gt;4</title>
<path fill="none" stroke="black" d="M429.75,-88.41C402.92,-73.6 362.66,-51.38 334.96,-36.09"/>
<polygon fill="black" stroke="black" points="336.53,-32.96 326.08,-31.19 333.15,-39.09 336.53,-32.96"/>
<text text-anchor="middle" x="404.5" y="-57.8" font-family="Times,serif" font-size="14.00">dep</text>
</g>
<!-- 5 -->
<g id="node6" class="node">
<title>5</title>
<ellipse fill="none" stroke="black" cx="406" cy="-18" rx="51.99" ry="18"/>
<text text-anchor="middle" x="406" y="-14.3" font-family="Times,serif" font-size="14.00">perceber</text>
</g>
<!-- 0&#45;&gt;5 -->
<g id="edge5" class="edge">
<title>0&#45;&gt;5</title>
<path fill="none" stroke="black" d="M447.73,-87.21C440.25,-74.98 429.99,-58.21 421.52,-44.36"/>
<polygon fill="black" stroke="black" points="424.46,-42.46 416.25,-35.76 418.49,-46.12 424.46,-42.46"/>
<text text-anchor="middle" x="449.5" y="-57.8" font-family="Times,serif" font-size="14.00">dep</text>
</g>
<!-- 6 -->
<g id="node7" class="node">
<title>6</title>
<ellipse fill="none" stroke="black" cx="511" cy="-18" rx="35.19" ry="18"/>
<text text-anchor="middle" x="511" y="-14.3" font-family="Times,serif" font-size="14.00">como</text>
</g>
<!-- 0&#45;&gt;6 -->
<g id="edge6" class="edge">
<title>0&#45;&gt;6</title>
<path fill="none" stroke="black" d="M468.47,-87.21C476.14,-74.9 486.68,-58 495.35,-44.09"/>
<polygon fill="black" stroke="black" points="498.41,-45.81 500.73,-35.47 492.47,-42.1 498.41,-45.81"/>
<text text-anchor="middle" x="501.5" y="-57.8" font-family="Times,serif" font-size="14.00">dep</text>
</g>
<!-- 7 -->
<g id="node8" class="node">
<title>7</title>
<ellipse fill="none" stroke="black" cx="591" cy="-18" rx="27" ry="18"/>
<text text-anchor="middle" x="591" y="-14.3" font-family="Times,serif" font-size="14.00">se</text>
</g>
<!-- 0&#45;&gt;7 -->
<g id="edge7" class="edge">
<title>0&#45;&gt;7</title>
<path fill="none" stroke="black" d="M486.24,-88.47C496.65,-82.57 508.47,-75.66 519,-69 534.62,-59.12 551.61,-47.37 565.17,-37.74"/>
<polygon fill="black" stroke="black" points="567.43,-40.42 573.53,-31.76 563.36,-34.73 567.43,-40.42"/>
<text text-anchor="middle" x="555.5" y="-57.8" font-family="Times,serif" font-size="14.00">dep</text>
</g>
<!-- 8 -->
<g id="node9" class="node">
<title>8</title>
<ellipse fill="none" stroke="black" cx="680" cy="-18" rx="44.39" ry="18"/>
<text text-anchor="middle" x="680" y="-14.3" font-family="Times,serif" font-size="14.00">chegou</text>
</g>
<!-- 0&#45;&gt;8 -->
<g id="edge8" class="edge">
<title>0&#45;&gt;8</title>
<path fill="none" stroke="black" d="M503.84,-91.67C525.11,-85.53 550.59,-77.6 573,-69 597.4,-59.64 624.04,-47.2 644.63,-37.07"/>
<polygon fill="black" stroke="black" points="646.23,-40.19 653.63,-32.6 643.12,-33.92 646.23,-40.19"/>
<text text-anchor="middle" x="619.5" y="-57.8" font-family="Times,serif" font-size="14.00">dep</text>
</g>
<!-- 9 -->
<g id="node10" class="node">
<title>9</title>
<ellipse fill="none" stroke="black" cx="773" cy="-18" rx="30.59" ry="18"/>
<text text-anchor="middle" x="773" y="-14.3" font-family="Times,serif" font-size="14.00">aqui</text>
</g>
<!-- 0&#45;&gt;9 -->
<g id="edge9" class="edge">
<title>0&#45;&gt;9</title>
<path fill="none" stroke="black" d="M514.49,-95.01C549.95,-88.86 596.48,-79.87 637,-69 680.58,-57.31 690.88,-52.17 733,-36 735.2,-35.16 737.46,-34.26 739.73,-33.35"/>
<polygon fill="black" stroke="black" points="741.09,-36.57 749,-29.53 738.42,-30.1 741.09,-36.57"/>
<text text-anchor="middle" x="699.5" y="-57.8" font-family="Times,serif" font-size="14.00">dep</text>
</g>
<!-- 10 -->
<g id="node11" class="node">
<title>10</title>
<ellipse fill="none" stroke="black" cx="849" cy="-18" rx="27" ry="18"/>
<text text-anchor="middle" x="849" y="-14.3" font-family="Times,serif" font-size="14.00">.</text>
</g>
<!-- 0&#45;&gt;10 -->
<g id="edge10" class="edge">
<title>0&#45;&gt;10</title>
<path fill="none" stroke="black" d="M521.71,-98.91C574.53,-93.86 651.33,-84.57 717,-69 760.9,-58.6 771.2,-52.99 813,-36 814.82,-35.26 816.69,-34.47 818.56,-33.66"/>
<polygon fill="black" stroke="black" points="820.18,-36.77 827.85,-29.46 817.3,-30.39 820.18,-36.77"/>
<text text-anchor="middle" x="781.5" y="-57.8" font-family="Times,serif" font-size="14.00">dep</text>
</g>
</g>
</svg>
