<?xml version="1.0" encoding="UTF-8" standalone="no"?>
<!DOCTYPE svg PUBLIC "-//W3C//DTD SVG 1.1//EN"
 "http://www.w3.org/Graphics/SVG/1.1/DTD/svg11.dtd">
<!-- Generated by graphviz version 2.42.4 (0)
 -->
<!-- Pages: 1 -->
<svg width="1302pt" height="131pt"
 viewBox="0.00 0.00 1302.00 131.00" xmlns="http://www.w3.org/2000/svg" xmlns:xlink="http://www.w3.org/1999/xlink">
<g id="graph0" class="graph" transform="scale(1 1) rotate(0) translate(4 127)">
<polygon fill="white" stroke="transparent" points="-4,4 -4,-127 1298,-127 1298,4 -4,4"/>
<!-- 0 -->
<g id="node1" class="node">
<title>0</title>
<ellipse fill="none" stroke="black" cx="646" cy="-105" rx="27" ry="18"/>
<text text-anchor="middle" x="646" y="-101.3" font-family="Times,serif" font-size="14.00">De</text>
</g>
<!-- 1 -->
<g id="node2" class="node">
<title>1</title>
<ellipse fill="none" stroke="black" cx="27" cy="-18" rx="27" ry="18"/>
<text text-anchor="middle" x="27" y="-14.3" font-family="Times,serif" font-size="14.00">seg</text>
</g>
<!-- 0&#45;&gt;1 -->
<g id="edge1" class="edge">
<title>0&#45;&gt;1</title>
<path fill="none" stroke="black" d="M618.88,-103.34C527.49,-100.93 231.36,-91.53 139,-69 109.31,-61.76 77.72,-46.92 55.68,-35.29"/>
<polygon fill="black" stroke="black" points="57.32,-32.19 46.85,-30.52 53.99,-38.35 57.32,-32.19"/>
<text text-anchor="middle" x="152.5" y="-57.8" font-family="Times,serif" font-size="14.00">dep</text>
</g>
<!-- 2 -->
<g id="node3" class="node">
<title>2</title>
<ellipse fill="none" stroke="black" cx="99" cy="-18" rx="27" ry="18"/>
<text text-anchor="middle" x="99" y="-14.3" font-family="Times,serif" font-size="14.00">a</text>
</g>
<!-- 0&#45;&gt;2 -->
<g id="edge2" class="edge">
<title>0&#45;&gt;2</title>
<path fill="none" stroke="black" d="M619.06,-102.99C536.68,-99.72 289.01,-88.5 211,-69 181.36,-61.59 149.75,-46.78 127.7,-35.19"/>
<polygon fill="black" stroke="black" points="129.34,-32.09 118.87,-30.45 126.03,-38.26 129.34,-32.09"/>
<text text-anchor="middle" x="224.5" y="-57.8" font-family="Times,serif" font-size="14.00">dep</text>
</g>
<!-- 3 -->
<g id="node4" class="node">
<title>3</title>
<ellipse fill="none" stroke="black" cx="171" cy="-18" rx="27" ry="18"/>
<text text-anchor="middle" x="171" y="-14.3" font-family="Times,serif" font-size="14.00">sex</text>
</g>
<!-- 0&#45;&gt;3 -->
<g id="edge3" class="edge">
<title>0&#45;&gt;3</title>
<path fill="none" stroke="black" d="M619,-104.31C557.92,-104.38 404.86,-101.05 282,-69 252.78,-61.38 221.61,-46.69 199.76,-35.2"/>
<polygon fill="black" stroke="black" points="201.17,-31.99 190.71,-30.34 197.86,-38.15 201.17,-31.99"/>
<text text-anchor="middle" x="295.5" y="-57.8" font-family="Times,serif" font-size="14.00">dep</text>
</g>
<!-- 4 -->
<g id="node5" class="node">
<title>4</title>
<ellipse fill="none" stroke="black" cx="243" cy="-18" rx="27" ry="18"/>
<text text-anchor="middle" x="243" y="-14.3" font-family="Times,serif" font-size="14.00">de</text>
</g>
<!-- 0&#45;&gt;4 -->
<g id="edge4" class="edge">
<title>0&#45;&gt;4</title>
<path fill="none" stroke="black" d="M618.82,-103.46C566.45,-101.84 448.31,-95.29 353,-69 324.29,-61.08 293.59,-46.56 271.93,-35.2"/>
<polygon fill="black" stroke="black" points="273.42,-32.03 262.95,-30.4 270.12,-38.2 273.42,-32.03"/>
<text text-anchor="middle" x="366.5" y="-57.8" font-family="Times,serif" font-size="14.00">dep</text>
</g>
<!-- 5 -->
<g id="node6" class="node">
<title>5</title>
<ellipse fill="none" stroke="black" cx="315" cy="-18" rx="27" ry="18"/>
<text text-anchor="middle" x="315" y="-14.3" font-family="Times,serif" font-size="14.00">as</text>
</g>
<!-- 0&#45;&gt;5 -->
<g id="edge5" class="edge">
<title>0&#45;&gt;5</title>
<path fill="none" stroke="black" d="M619.04,-102.16C576.58,-98.74 491.85,-89.75 423,-69 395.08,-60.59 365.13,-46.26 343.86,-35.09"/>
<polygon fill="black" stroke="black" points="345.5,-31.99 335.03,-30.37 342.2,-38.17 345.5,-31.99"/>
<text text-anchor="middle" x="436.5" y="-57.8" font-family="Times,serif" font-size="14.00">dep</text>
</g>
<!-- 6 -->
<g id="node7" class="node">
<title>6</title>
<ellipse fill="none" stroke="black" cx="389" cy="-18" rx="28.7" ry="18"/>
<text text-anchor="middle" x="389" y="-14.3" font-family="Times,serif" font-size="14.00">11h</text>
</g>
<!-- 0&#45;&gt;6 -->
<g id="edge6" class="edge">
<title>0&#45;&gt;6</title>
<path fill="none" stroke="black" d="M619.82,-100.34C587.83,-95.39 532.36,-85.26 487,-69 462.74,-60.3 436.83,-46.89 417.75,-36.14"/>
<polygon fill="black" stroke="black" points="419.38,-33.04 408.97,-31.11 415.91,-39.12 419.38,-33.04"/>
<text text-anchor="middle" x="500.5" y="-57.8" font-family="Times,serif" font-size="14.00">dep</text>
</g>
<!-- 7 -->
<g id="node8" class="node">
<title>7</title>
<ellipse fill="none" stroke="black" cx="463" cy="-18" rx="27" ry="18"/>
<text text-anchor="middle" x="463" y="-14.3" font-family="Times,serif" font-size="14.00">a</text>
</g>
<!-- 0&#45;&gt;7 -->
<g id="edge7" class="edge">
<title>0&#45;&gt;7</title>
<path fill="none" stroke="black" d="M621.61,-97C601.01,-90.74 570.97,-80.74 546,-69 526.53,-59.85 505.8,-47.36 489.92,-37.15"/>
<polygon fill="black" stroke="black" points="491.47,-33.99 481.18,-31.45 487.65,-39.85 491.47,-33.99"/>
<text text-anchor="middle" x="559.5" y="-57.8" font-family="Times,serif" font-size="14.00">dep</text>
</g>
<!-- 8 -->
<g id="node9" class="node">
<title>8</title>
<ellipse fill="none" stroke="black" cx="535" cy="-18" rx="27" ry="18"/>
<text text-anchor="middle" x="535" y="-14.3" font-family="Times,serif" font-size="14.00">as</text>
</g>
<!-- 0&#45;&gt;8 -->
<g id="edge8" class="edge">
<title>0&#45;&gt;8</title>
<path fill="none" stroke="black" d="M627.29,-91.77C617.52,-85.23 605.44,-76.91 595,-69 582.68,-59.67 569.44,-48.74 558.54,-39.48"/>
<polygon fill="black" stroke="black" points="560.59,-36.63 550.71,-32.78 556.04,-41.95 560.59,-36.63"/>
<text text-anchor="middle" x="608.5" y="-57.8" font-family="Times,serif" font-size="14.00">dep</text>
</g>
<!-- 9 -->
<g id="node10" class="node">
<title>9</title>
<ellipse fill="none" stroke="black" cx="609" cy="-18" rx="28.7" ry="18"/>
<text text-anchor="middle" x="609" y="-14.3" font-family="Times,serif" font-size="14.00">19h</text>
</g>
<!-- 0&#45;&gt;9 -->
<g id="edge9" class="edge">
<title>0&#45;&gt;9</title>
<path fill="none" stroke="black" d="M638.87,-87.61C633.63,-75.58 626.4,-58.98 620.37,-45.13"/>
<polygon fill="black" stroke="black" points="623.44,-43.4 616.24,-35.63 617.02,-46.19 623.44,-43.4"/>
<text text-anchor="middle" x="643.5" y="-57.8" font-family="Times,serif" font-size="14.00">dep</text>
</g>
<!-- 10 -->
<g id="node11" class="node">
<title>10</title>
<ellipse fill="none" stroke="black" cx="683" cy="-18" rx="27" ry="18"/>
<text text-anchor="middle" x="683" y="-14.3" font-family="Times,serif" font-size="14.00">e</text>
</g>
<!-- 0&#45;&gt;10 -->
<g id="edge10" class="edge">
<title>0&#45;&gt;10</title>
<path fill="none" stroke="black" d="M653.13,-87.61C658.37,-75.58 665.6,-58.98 671.63,-45.13"/>
<polygon fill="black" stroke="black" points="674.98,-46.19 675.76,-35.63 668.56,-43.4 674.98,-46.19"/>
<text text-anchor="middle" x="680.5" y="-57.8" font-family="Times,serif" font-size="14.00">dep</text>
</g>
<!-- 11 -->
<g id="node12" class="node">
<title>11</title>
<ellipse fill="none" stroke="black" cx="755" cy="-18" rx="27" ry="18"/>
<text text-anchor="middle" x="755" y="-14.3" font-family="Times,serif" font-size="14.00">sáb</text>
</g>
<!-- 0&#45;&gt;11 -->
<g id="edge11" class="edge">
<title>0&#45;&gt;11</title>
<path fill="none" stroke="black" d="M665.18,-91.93C675.18,-85.43 687.48,-77.1 698,-69 709.69,-60 722.06,-49.3 732.28,-40.11"/>
<polygon fill="black" stroke="black" points="734.92,-42.45 739.97,-33.13 730.21,-37.27 734.92,-42.45"/>
<text text-anchor="middle" x="729.5" y="-57.8" font-family="Times,serif" font-size="14.00">dep</text>
</g>
<!-- 12 -->
<g id="node13" class="node">
<title>12</title>
<ellipse fill="none" stroke="black" cx="827" cy="-18" rx="27" ry="18"/>
<text text-anchor="middle" x="827" y="-14.3" font-family="Times,serif" font-size="14.00">de</text>
</g>
<!-- 0&#45;&gt;12 -->
<g id="edge12" class="edge">
<title>0&#45;&gt;12</title>
<path fill="none" stroke="black" d="M670.69,-97.14C691.53,-90.96 721.89,-81.01 747,-69 765.77,-60.02 785.62,-47.64 800.85,-37.44"/>
<polygon fill="black" stroke="black" points="802.94,-40.25 809.24,-31.73 799,-34.46 802.94,-40.25"/>
<text text-anchor="middle" x="788.5" y="-57.8" font-family="Times,serif" font-size="14.00">dep</text>
</g>
<!-- 13 -->
<g id="node14" class="node">
<title>13</title>
<ellipse fill="none" stroke="black" cx="899" cy="-18" rx="27" ry="18"/>
<text text-anchor="middle" x="899" y="-14.3" font-family="Times,serif" font-size="14.00">as</text>
</g>
<!-- 0&#45;&gt;13 -->
<g id="edge13" class="edge">
<title>0&#45;&gt;13</title>
<path fill="none" stroke="black" d="M672.4,-100.52C704.66,-95.76 760.53,-85.82 806,-69 828.99,-60.5 853.33,-47.24 871.34,-36.51"/>
<polygon fill="black" stroke="black" points="873.41,-39.35 880.14,-31.17 869.78,-33.36 873.41,-39.35"/>
<text text-anchor="middle" x="851.5" y="-57.8" font-family="Times,serif" font-size="14.00">dep</text>
</g>
<!-- 14 -->
<g id="node15" class="node">
<title>14</title>
<ellipse fill="none" stroke="black" cx="973" cy="-18" rx="28.7" ry="18"/>
<text text-anchor="middle" x="973" y="-14.3" font-family="Times,serif" font-size="14.00">10h</text>
</g>
<!-- 0&#45;&gt;14 -->
<g id="edge14" class="edge">
<title>0&#45;&gt;14</title>
<path fill="none" stroke="black" d="M673.01,-102.31C715.53,-99.09 800.34,-90.38 869,-69 895.37,-60.79 923.51,-46.92 943.85,-35.86"/>
<polygon fill="black" stroke="black" points="945.56,-38.92 952.62,-31.02 942.18,-32.79 945.56,-38.92"/>
<text text-anchor="middle" x="921.5" y="-57.8" font-family="Times,serif" font-size="14.00">dep</text>
</g>
<!-- 15 -->
<g id="node16" class="node">
<title>15</title>
<ellipse fill="none" stroke="black" cx="1047" cy="-18" rx="27" ry="18"/>
<text text-anchor="middle" x="1047" y="-14.3" font-family="Times,serif" font-size="14.00">a</text>
</g>
<!-- 0&#45;&gt;15 -->
<g id="edge15" class="edge">
<title>0&#45;&gt;15</title>
<path fill="none" stroke="black" d="M673.21,-103.55C725.62,-102.08 843.82,-95.78 939,-69 967.07,-61.1 997.01,-46.72 1018.23,-35.4"/>
<polygon fill="black" stroke="black" points="1019.93,-38.46 1027.04,-30.61 1016.59,-32.31 1019.93,-38.46"/>
<text text-anchor="middle" x="992.5" y="-57.8" font-family="Times,serif" font-size="14.00">dep</text>
</g>
<!-- 16 -->
<g id="node17" class="node">
<title>16</title>
<ellipse fill="none" stroke="black" cx="1119" cy="-18" rx="27" ry="18"/>
<text text-anchor="middle" x="1119" y="-14.3" font-family="Times,serif" font-size="14.00">as</text>
</g>
<!-- 0&#45;&gt;16 -->
<g id="edge16" class="edge">
<title>0&#45;&gt;16</title>
<path fill="none" stroke="black" d="M673.02,-104.4C734.15,-104.65 887.3,-101.67 1010,-69 1038.57,-61.39 1068.98,-46.84 1090.4,-35.39"/>
<polygon fill="black" stroke="black" points="1092.18,-38.41 1099.28,-30.54 1088.83,-32.26 1092.18,-38.41"/>
<text text-anchor="middle" x="1064.5" y="-57.8" font-family="Times,serif" font-size="14.00">dep</text>
</g>
<!-- 17 -->
<g id="node18" class="node">
<title>17</title>
<ellipse fill="none" stroke="black" cx="1193" cy="-18" rx="28.7" ry="18"/>
<text text-anchor="middle" x="1193" y="-14.3" font-family="Times,serif" font-size="14.00">13h</text>
</g>
<!-- 0&#45;&gt;17 -->
<g id="edge17" class="edge">
<title>0&#45;&gt;17</title>
<path fill="none" stroke="black" d="M673.01,-103.04C755.61,-99.92 1003.95,-89.07 1082,-69 1110.89,-61.57 1141.66,-47.14 1163.45,-35.68"/>
<polygon fill="black" stroke="black" points="1165.35,-38.64 1172.51,-30.82 1162.04,-32.47 1165.35,-38.64"/>
<text text-anchor="middle" x="1136.5" y="-57.8" font-family="Times,serif" font-size="14.00">dep</text>
</g>
<!-- 18 -->
<g id="node19" class="node">
<title>18</title>
<ellipse fill="none" stroke="black" cx="1267" cy="-18" rx="27" ry="18"/>
<text text-anchor="middle" x="1267" y="-14.3" font-family="Times,serif" font-size="14.00">.</text>
</g>
<!-- 0&#45;&gt;18 -->
<g id="edge18" class="edge">
<title>0&#45;&gt;18</title>
<path fill="none" stroke="black" d="M673.17,-103.33C764.72,-100.87 1061.4,-91.35 1154,-69 1183.93,-61.78 1215.81,-46.94 1238.05,-35.3"/>
<polygon fill="black" stroke="black" points="1239.79,-38.33 1246.96,-30.53 1236.49,-32.16 1239.79,-38.33"/>
<text text-anchor="middle" x="1209.5" y="-57.8" font-family="Times,serif" font-size="14.00">dep</text>
</g>
</g>
</svg>
