<?xml version="1.0" encoding="UTF-8" standalone="no"?>
<!DOCTYPE svg PUBLIC "-//W3C//DTD SVG 1.1//EN"
 "http://www.w3.org/Graphics/SVG/1.1/DTD/svg11.dtd">
<!-- Generated by graphviz version 2.42.4 (0)
 -->
<!-- Pages: 1 -->
<svg width="6485pt" height="131pt"
 viewBox="0.00 0.00 6485.00 131.00" xmlns="http://www.w3.org/2000/svg" xmlns:xlink="http://www.w3.org/1999/xlink">
<g id="graph0" class="graph" transform="scale(1 1) rotate(0) translate(4 127)">
<polygon fill="white" stroke="transparent" points="-4,4 -4,-127 6481,-127 6481,4 -4,4"/>
<!-- 0 -->
<g id="node1" class="node">
<title>0</title>
<ellipse fill="none" stroke="black" cx="3239" cy="-105" rx="77.19" ry="18"/>
<text text-anchor="middle" x="3239" y="-101.3" font-family="Times,serif" font-size="14.00">Paralelamente</text>
</g>
<!-- 1 -->
<g id="node2" class="node">
<title>1</title>
<ellipse fill="none" stroke="black" cx="27" cy="-18" rx="27" ry="18"/>
<text text-anchor="middle" x="27" y="-14.3" font-family="Times,serif" font-size="14.00">a</text>
</g>
<!-- 0&#45;&gt;1 -->
<g id="edge1" class="edge">
<title>0&#45;&gt;1</title>
<path fill="none" stroke="black" d="M3161.56,-103.86C2698,-102.96 305.26,-96.93 153,-69 118.67,-62.7 81.83,-46.92 56.9,-34.76"/>
<polygon fill="black" stroke="black" points="58.15,-31.47 47.64,-30.13 55.03,-37.73 58.15,-31.47"/>
<text text-anchor="middle" x="166.5" y="-57.8" font-family="Times,serif" font-size="14.00">dep</text>
</g>
<!-- 2 -->
<g id="node3" class="node">
<title>2</title>
<ellipse fill="none" stroke="black" cx="99" cy="-18" rx="27" ry="18"/>
<text text-anchor="middle" x="99" y="-14.3" font-family="Times,serif" font-size="14.00">os</text>
</g>
<!-- 0&#45;&gt;2 -->
<g id="edge2" class="edge">
<title>0&#45;&gt;2</title>
<path fill="none" stroke="black" d="M3161.72,-103.7C2706.94,-101.86 394.2,-91.45 246,-69 195.11,-61.29 183.08,-54.37 135,-36 133.16,-35.3 131.28,-34.54 129.4,-33.75"/>
<polygon fill="black" stroke="black" points="130.65,-30.47 120.09,-29.61 127.81,-36.87 130.65,-30.47"/>
<text text-anchor="middle" x="259.5" y="-57.8" font-family="Times,serif" font-size="14.00">dep</text>
</g>
<!-- 3 -->
<g id="node4" class="node">
<title>3</title>
<ellipse fill="none" stroke="black" cx="183" cy="-18" rx="38.99" ry="18"/>
<text text-anchor="middle" x="183" y="-14.3" font-family="Times,serif" font-size="14.00">testes</text>
</g>
<!-- 0&#45;&gt;3 -->
<g id="edge3" class="edge">
<title>0&#45;&gt;3</title>
<path fill="none" stroke="black" d="M3161.54,-103.7C2714.59,-101.88 480.27,-91.67 337,-69 295.79,-62.48 250.59,-46.71 219.89,-34.61"/>
<polygon fill="black" stroke="black" points="221.04,-31.3 210.45,-30.83 218.43,-37.8 221.04,-31.3"/>
<text text-anchor="middle" x="350.5" y="-57.8" font-family="Times,serif" font-size="14.00">dep</text>
</g>
<!-- 4 -->
<g id="node5" class="node">
<title>4</title>
<ellipse fill="none" stroke="black" cx="267" cy="-18" rx="27" ry="18"/>
<text text-anchor="middle" x="267" y="-14.3" font-family="Times,serif" font-size="14.00">de</text>
</g>
<!-- 0&#45;&gt;4 -->
<g id="edge4" class="edge">
<title>0&#45;&gt;4</title>
<path fill="none" stroke="black" d="M3161.57,-103.8C2742.57,-102.59 755.44,-95.51 483,-69 402.05,-61.12 380.43,-60.91 303,-36 301.08,-35.38 299.12,-34.68 297.17,-33.93"/>
<polygon fill="black" stroke="black" points="298.14,-30.54 287.57,-29.83 295.39,-36.98 298.14,-30.54"/>
<text text-anchor="middle" x="496.5" y="-57.8" font-family="Times,serif" font-size="14.00">dep</text>
</g>
<!-- 5 -->
<g id="node6" class="node">
<title>5</title>
<ellipse fill="none" stroke="black" cx="400" cy="-18" rx="88.28" ry="18"/>
<text text-anchor="middle" x="400" y="-14.3" font-family="Times,serif" font-size="14.00">reabastecimento</text>
</g>
<!-- 0&#45;&gt;5 -->
<g id="edge5" class="edge">
<title>0&#45;&gt;5</title>
<path fill="none" stroke="black" d="M3161.42,-104.13C2751.45,-104.66 846.35,-105.13 586,-69 540.09,-62.63 489.37,-48.5 452.5,-36.88"/>
<polygon fill="black" stroke="black" points="453.55,-33.54 442.96,-33.83 451.42,-40.21 453.55,-33.54"/>
<text text-anchor="middle" x="599.5" y="-57.8" font-family="Times,serif" font-size="14.00">dep</text>
</g>
<!-- 6 -->
<g id="node7" class="node">
<title>6</title>
<ellipse fill="none" stroke="black" cx="533" cy="-18" rx="27" ry="18"/>
<text text-anchor="middle" x="533" y="-14.3" font-family="Times,serif" font-size="14.00">,</text>
</g>
<!-- 0&#45;&gt;6 -->
<g id="edge6" class="edge">
<title>0&#45;&gt;6</title>
<path fill="none" stroke="black" d="M3161.43,-104.24C2759.99,-105.34 927.24,-108.13 677,-69 627.41,-61.25 615.81,-54.1 569,-36 567.16,-35.29 565.29,-34.53 563.41,-33.73"/>
<polygon fill="black" stroke="black" points="564.66,-30.46 554.1,-29.59 561.81,-36.85 564.66,-30.46"/>
<text text-anchor="middle" x="690.5" y="-57.8" font-family="Times,serif" font-size="14.00">dep</text>
</g>
<!-- 7 -->
<g id="node8" class="node">
<title>7</title>
<ellipse fill="none" stroke="black" cx="605" cy="-18" rx="27" ry="18"/>
<text text-anchor="middle" x="605" y="-14.3" font-family="Times,serif" font-size="14.00">o</text>
</g>
<!-- 0&#45;&gt;7 -->
<g id="edge7" class="edge">
<title>0&#45;&gt;7</title>
<path fill="none" stroke="black" d="M3161.66,-103.61C2775.39,-101.59 1064.37,-91.43 828,-69 743.98,-61.03 721.43,-61.58 641,-36 639.07,-35.39 637.12,-34.69 635.16,-33.94"/>
<polygon fill="black" stroke="black" points="636.13,-30.55 625.56,-29.86 633.39,-36.99 636.13,-30.55"/>
<text text-anchor="middle" x="841.5" y="-57.8" font-family="Times,serif" font-size="14.00">dep</text>
</g>
<!-- 8 -->
<g id="node9" class="node">
<title>8</title>
<ellipse fill="none" stroke="black" cx="742" cy="-18" rx="92.08" ry="18"/>
<text text-anchor="middle" x="742" y="-14.3" font-family="Times,serif" font-size="14.00">McLaren&#45;Peugeot</text>
</g>
<!-- 0&#45;&gt;8 -->
<g id="edge8" class="edge">
<title>0&#45;&gt;8</title>
<path fill="none" stroke="black" d="M3161.59,-103.93C2785.43,-103.45 1157.33,-99.61 933,-69 886.08,-62.6 834.18,-48.54 796.33,-36.96"/>
<polygon fill="black" stroke="black" points="797.12,-33.54 786.54,-33.92 795.05,-40.23 797.12,-33.54"/>
<text text-anchor="middle" x="946.5" y="-57.8" font-family="Times,serif" font-size="14.00">dep</text>
</g>
<!-- 9 -->
<g id="node10" class="node">
<title>9</title>
<ellipse fill="none" stroke="black" cx="879" cy="-18" rx="27" ry="18"/>
<text text-anchor="middle" x="879" y="-14.3" font-family="Times,serif" font-size="14.00">de</text>
</g>
<!-- 0&#45;&gt;9 -->
<g id="edge9" class="edge">
<title>0&#45;&gt;9</title>
<path fill="none" stroke="black" d="M3161.67,-104.03C2794.98,-103.99 1240.17,-101.89 1026,-69 975.13,-61.19 963.08,-54.37 915,-36 913.16,-35.3 911.28,-34.54 909.4,-33.75"/>
<polygon fill="black" stroke="black" points="910.65,-30.47 900.09,-29.61 907.81,-36.87 910.65,-30.47"/>
<text text-anchor="middle" x="1039.5" y="-57.8" font-family="Times,serif" font-size="14.00">dep</text>
</g>
<!-- 10 -->
<g id="node11" class="node">
<title>10</title>
<ellipse fill="none" stroke="black" cx="958" cy="-18" rx="33.6" ry="18"/>
<text text-anchor="middle" x="958" y="-14.3" font-family="Times,serif" font-size="14.00">Mika</text>
</g>
<!-- 0&#45;&gt;10 -->
<g id="edge10" class="edge">
<title>0&#45;&gt;10</title>
<path fill="none" stroke="black" d="M3161.69,-103.81C2805.51,-102.77 1331.22,-96.82 1127,-69 1069.21,-61.13 1055.37,-54.31 1000,-36 997.73,-35.25 995.41,-34.44 993.08,-33.59"/>
<polygon fill="black" stroke="black" points="994.16,-30.26 983.57,-29.97 991.67,-36.8 994.16,-30.26"/>
<text text-anchor="middle" x="1140.5" y="-57.8" font-family="Times,serif" font-size="14.00">dep</text>
</g>
<!-- 11 -->
<g id="node12" class="node">
<title>11</title>
<ellipse fill="none" stroke="black" cx="1064" cy="-18" rx="54.69" ry="18"/>
<text text-anchor="middle" x="1064" y="-14.3" font-family="Times,serif" font-size="14.00">Hakkinen</text>
</g>
<!-- 0&#45;&gt;11 -->
<g id="edge11" class="edge">
<title>0&#45;&gt;11</title>
<path fill="none" stroke="black" d="M3161.5,-104.02C2814.35,-103.95 1410.95,-101.61 1217,-69 1178.21,-62.48 1135.82,-48.01 1105.51,-36.31"/>
<polygon fill="black" stroke="black" points="1106.71,-33.02 1096.12,-32.62 1104.15,-39.53 1106.71,-33.02"/>
<text text-anchor="middle" x="1230.5" y="-57.8" font-family="Times,serif" font-size="14.00">dep</text>
</g>
<!-- 12 -->
<g id="node13" class="node">
<title>12</title>
<ellipse fill="none" stroke="black" cx="1164" cy="-18" rx="27" ry="18"/>
<text text-anchor="middle" x="1164" y="-14.3" font-family="Times,serif" font-size="14.00">e</text>
</g>
<!-- 0&#45;&gt;12 -->
<g id="edge12" class="edge">
<title>0&#45;&gt;12</title>
<path fill="none" stroke="black" d="M3161.64,-103.87C2824.57,-103.12 1492.88,-98.33 1308,-69 1258.43,-61.14 1246.81,-54.1 1200,-36 1198.16,-35.29 1196.29,-34.53 1194.41,-33.73"/>
<polygon fill="black" stroke="black" points="1195.66,-30.46 1185.1,-29.59 1192.81,-36.85 1195.66,-30.46"/>
<text text-anchor="middle" x="1321.5" y="-57.8" font-family="Times,serif" font-size="14.00">dep</text>
</g>
<!-- 13 -->
<g id="node14" class="node">
<title>13</title>
<ellipse fill="none" stroke="black" cx="1236" cy="-18" rx="27" ry="18"/>
<text text-anchor="middle" x="1236" y="-14.3" font-family="Times,serif" font-size="14.00">o</text>
</g>
<!-- 0&#45;&gt;13 -->
<g id="edge13" class="edge">
<title>0&#45;&gt;13</title>
<path fill="none" stroke="black" d="M3161.61,-104.08C2864.49,-104.12 1796.72,-101.92 1459,-69 1375,-60.81 1352.43,-61.58 1272,-36 1270.07,-35.39 1268.12,-34.69 1266.16,-33.94"/>
<polygon fill="black" stroke="black" points="1267.13,-30.55 1256.56,-29.86 1264.39,-36.99 1267.13,-30.55"/>
<text text-anchor="middle" x="1472.5" y="-57.8" font-family="Times,serif" font-size="14.00">dep</text>
</g>
<!-- 14 -->
<g id="node15" class="node">
<title>14</title>
<ellipse fill="none" stroke="black" cx="1373" cy="-18" rx="92.08" ry="18"/>
<text text-anchor="middle" x="1373" y="-14.3" font-family="Times,serif" font-size="14.00">Sauber&#45;Mercedes</text>
</g>
<!-- 0&#45;&gt;14 -->
<g id="edge14" class="edge">
<title>0&#45;&gt;14</title>
<path fill="none" stroke="black" d="M3161.78,-103.45C2853.9,-101.13 1723.03,-91.16 1564,-69 1517.1,-62.46 1465.19,-48.42 1427.34,-36.88"/>
<polygon fill="black" stroke="black" points="1428.13,-33.46 1417.55,-33.85 1426.07,-40.15 1428.13,-33.46"/>
<text text-anchor="middle" x="1577.5" y="-57.8" font-family="Times,serif" font-size="14.00">dep</text>
</g>
<!-- 15 -->
<g id="node16" class="node">
<title>15</title>
<ellipse fill="none" stroke="black" cx="1510" cy="-18" rx="27" ry="18"/>
<text text-anchor="middle" x="1510" y="-14.3" font-family="Times,serif" font-size="14.00">de</text>
</g>
<!-- 0&#45;&gt;15 -->
<g id="edge15" class="edge">
<title>0&#45;&gt;15</title>
<path fill="none" stroke="black" d="M3161.69,-103.52C2864.43,-101.52 1804.23,-92.78 1655,-69 1605.01,-61.03 1593.23,-54.19 1546,-36 1544.16,-35.29 1542.29,-34.53 1540.41,-33.74"/>
<polygon fill="black" stroke="black" points="1541.65,-30.46 1531.09,-29.59 1538.81,-36.86 1541.65,-30.46"/>
<text text-anchor="middle" x="1668.5" y="-57.8" font-family="Times,serif" font-size="14.00">dep</text>
</g>
<!-- 16 -->
<g id="node17" class="node">
<title>16</title>
<ellipse fill="none" stroke="black" cx="1586" cy="-18" rx="30.59" ry="18"/>
<text text-anchor="middle" x="1586" y="-14.3" font-family="Times,serif" font-size="14.00">Karl</text>
</g>
<!-- 0&#45;&gt;16 -->
<g id="edge16" class="edge">
<title>0&#45;&gt;16</title>
<path fill="none" stroke="black" d="M3161.38,-104.16C2898.74,-104.4 2044.61,-102.52 1772,-69 1705.54,-60.83 1688.65,-56.81 1625,-36 1622.89,-35.31 1620.74,-34.55 1618.58,-33.74"/>
<polygon fill="black" stroke="black" points="1619.81,-30.46 1609.23,-29.98 1617.21,-36.96 1619.81,-30.46"/>
<text text-anchor="middle" x="1785.5" y="-57.8" font-family="Times,serif" font-size="14.00">dep</text>
</g>
<!-- 17 -->
<g id="node18" class="node">
<title>17</title>
<ellipse fill="none" stroke="black" cx="1698" cy="-18" rx="63.89" ry="18"/>
<text text-anchor="middle" x="1698" y="-14.3" font-family="Times,serif" font-size="14.00">Wendlinger</text>
</g>
<!-- 0&#45;&gt;17 -->
<g id="edge17" class="edge">
<title>0&#45;&gt;17</title>
<path fill="none" stroke="black" d="M3161.77,-103.18C2891.46,-100.17 1997.38,-88.8 1870,-69 1826.65,-62.26 1778.85,-47.77 1744.66,-36.11"/>
<polygon fill="black" stroke="black" points="1745.55,-32.71 1734.95,-32.75 1743.26,-39.33 1745.55,-32.71"/>
<text text-anchor="middle" x="1883.5" y="-57.8" font-family="Times,serif" font-size="14.00">dep</text>
</g>
<!-- 18 -->
<g id="node19" class="node">
<title>18</title>
<ellipse fill="none" stroke="black" cx="1818" cy="-18" rx="38.19" ry="18"/>
<text text-anchor="middle" x="1818" y="-14.3" font-family="Times,serif" font-size="14.00">foram</text>
</g>
<!-- 0&#45;&gt;18 -->
<g id="edge18" class="edge">
<title>0&#45;&gt;18</title>
<path fill="none" stroke="black" d="M3161.56,-103.35C2901.94,-100.98 2072.08,-91.68 1954,-69 1918.58,-62.2 1880.17,-47.33 1853.23,-35.56"/>
<polygon fill="black" stroke="black" points="1854.41,-32.26 1843.85,-31.39 1851.57,-38.65 1854.41,-32.26"/>
<text text-anchor="middle" x="1967.5" y="-57.8" font-family="Times,serif" font-size="14.00">dep</text>
</g>
<!-- 19 -->
<g id="node20" class="node">
<title>19</title>
<ellipse fill="none" stroke="black" cx="1901" cy="-18" rx="27" ry="18"/>
<text text-anchor="middle" x="1901" y="-14.3" font-family="Times,serif" font-size="14.00">os</text>
</g>
<!-- 0&#45;&gt;19 -->
<g id="edge19" class="edge">
<title>0&#45;&gt;19</title>
<path fill="none" stroke="black" d="M3162.01,-103.02C2914.5,-99.7 2148.94,-87.99 2039,-69 2000.76,-62.39 1959.18,-45.95 1931.76,-33.72"/>
<polygon fill="black" stroke="black" points="1932.89,-30.38 1922.34,-29.42 1929.99,-36.75 1932.89,-30.38"/>
<text text-anchor="middle" x="2052.5" y="-57.8" font-family="Times,serif" font-size="14.00">dep</text>
</g>
<!-- 20 -->
<g id="node21" class="node">
<title>20</title>
<ellipse fill="none" stroke="black" cx="1978" cy="-18" rx="32.49" ry="18"/>
<text text-anchor="middle" x="1978" y="-14.3" font-family="Times,serif" font-size="14.00">mais</text>
</g>
<!-- 0&#45;&gt;20 -->
<g id="edge20" class="edge">
<title>0&#45;&gt;20</title>
<path fill="none" stroke="black" d="M3161.7,-104.22C2943.76,-104.43 2327.31,-101.99 2128,-69 2087,-62.21 2042.04,-45.97 2012.13,-33.83"/>
<polygon fill="black" stroke="black" points="2013.18,-30.47 2002.6,-29.88 2010.5,-36.94 2013.18,-30.47"/>
<text text-anchor="middle" x="2141.5" y="-57.8" font-family="Times,serif" font-size="14.00">dep</text>
</g>
<!-- 21 -->
<g id="node22" class="node">
<title>21</title>
<ellipse fill="none" stroke="black" cx="2074" cy="-18" rx="45.49" ry="18"/>
<text text-anchor="middle" x="2074" y="-14.3" font-family="Times,serif" font-size="14.00">rápidos</text>
</g>
<!-- 0&#45;&gt;21 -->
<g id="edge21" class="edge">
<title>0&#45;&gt;21</title>
<path fill="none" stroke="black" d="M3161.36,-104.44C2954.82,-105.11 2395.24,-103.59 2214,-69 2178.28,-62.18 2139.48,-47.73 2111.8,-36.1"/>
<polygon fill="black" stroke="black" points="2113.07,-32.84 2102.5,-32.13 2110.32,-39.27 2113.07,-32.84"/>
<text text-anchor="middle" x="2227.5" y="-57.8" font-family="Times,serif" font-size="14.00">dep</text>
</g>
<!-- 22 -->
<g id="node23" class="node">
<title>22</title>
<ellipse fill="none" stroke="black" cx="2164" cy="-18" rx="27" ry="18"/>
<text text-anchor="middle" x="2164" y="-14.3" font-family="Times,serif" font-size="14.00">em</text>
</g>
<!-- 0&#45;&gt;22 -->
<g id="edge22" class="edge">
<title>0&#45;&gt;22</title>
<path fill="none" stroke="black" d="M3161.46,-103.85C2967.7,-103.02 2466.2,-98.05 2302,-69 2255.08,-60.7 2244.3,-53.54 2200,-36 2198.17,-35.27 2196.3,-34.5 2194.42,-33.7"/>
<polygon fill="black" stroke="black" points="2195.68,-30.42 2185.12,-29.53 2192.81,-36.81 2195.68,-30.42"/>
<text text-anchor="middle" x="2315.5" y="-57.8" font-family="Times,serif" font-size="14.00">dep</text>
</g>
<!-- 23 -->
<g id="node24" class="node">
<title>23</title>
<ellipse fill="none" stroke="black" cx="2243" cy="-18" rx="33.6" ry="18"/>
<text text-anchor="middle" x="2243" y="-14.3" font-family="Times,serif" font-size="14.00">pista</text>
</g>
<!-- 0&#45;&gt;23 -->
<g id="edge23" class="edge">
<title>0&#45;&gt;23</title>
<path fill="none" stroke="black" d="M3161.63,-103.41C2981.38,-101.6 2537.69,-94.62 2391,-69 2350.91,-62 2306.98,-46.03 2277.47,-34.01"/>
<polygon fill="black" stroke="black" points="2278.63,-30.7 2268.05,-30.1 2275.95,-37.16 2278.63,-30.7"/>
<text text-anchor="middle" x="2404.5" y="-57.8" font-family="Times,serif" font-size="14.00">dep</text>
</g>
<!-- 24 -->
<g id="node25" class="node">
<title>24</title>
<ellipse fill="none" stroke="black" cx="2322" cy="-18" rx="27" ry="18"/>
<text text-anchor="middle" x="2322" y="-14.3" font-family="Times,serif" font-size="14.00">,</text>
</g>
<!-- 0&#45;&gt;24 -->
<g id="edge24" class="edge">
<title>0&#45;&gt;24</title>
<path fill="none" stroke="black" d="M3161.78,-103.83C3030.76,-102.73 2756.74,-96.93 2527,-69 2451.03,-59.76 2430.72,-59.86 2358,-36 2356.08,-35.37 2354.13,-34.66 2352.18,-33.9"/>
<polygon fill="black" stroke="black" points="2353.15,-30.51 2342.58,-29.79 2350.39,-36.95 2353.15,-30.51"/>
<text text-anchor="middle" x="2540.5" y="-57.8" font-family="Times,serif" font-size="14.00">dep</text>
</g>
<!-- 25 -->
<g id="node26" class="node">
<title>25</title>
<ellipse fill="none" stroke="black" cx="2448" cy="-18" rx="80.69" ry="18"/>
<text text-anchor="middle" x="2448" y="-14.3" font-family="Times,serif" font-size="14.00">cronometrados</text>
</g>
<!-- 0&#45;&gt;25 -->
<g id="edge25" class="edge">
<title>0&#45;&gt;25</title>
<path fill="none" stroke="black" d="M3162.76,-101.85C3021.05,-97.48 2722.18,-86.51 2620,-69 2578.29,-61.85 2532.33,-48.18 2498.42,-36.93"/>
<polygon fill="black" stroke="black" points="2499.34,-33.55 2488.74,-33.68 2497.11,-40.19 2499.34,-33.55"/>
<text text-anchor="middle" x="2633.5" y="-57.8" font-family="Times,serif" font-size="14.00">dep</text>
</g>
<!-- 26 -->
<g id="node27" class="node">
<title>26</title>
<ellipse fill="none" stroke="black" cx="2574" cy="-18" rx="27" ry="18"/>
<text text-anchor="middle" x="2574" y="-14.3" font-family="Times,serif" font-size="14.00">em</text>
</g>
<!-- 0&#45;&gt;26 -->
<g id="edge26" class="edge">
<title>0&#45;&gt;26</title>
<path fill="none" stroke="black" d="M3162.86,-101.74C3035.84,-97.53 2786.13,-87.19 2700,-69 2665.85,-61.79 2628.98,-46.15 2604,-34.27"/>
<polygon fill="black" stroke="black" points="2605.24,-30.98 2594.72,-29.77 2602.19,-37.28 2605.24,-30.98"/>
<text text-anchor="middle" x="2713.5" y="-57.8" font-family="Times,serif" font-size="14.00">dep</text>
</g>
<!-- 27 -->
<g id="node28" class="node">
<title>27</title>
<ellipse fill="none" stroke="black" cx="2646" cy="-18" rx="27" ry="18"/>
<text text-anchor="middle" x="2646" y="-14.3" font-family="Times,serif" font-size="14.00">a</text>
</g>
<!-- 0&#45;&gt;27 -->
<g id="edge27" class="edge">
<title>0&#45;&gt;27</title>
<path fill="none" stroke="black" d="M3161.69,-103.25C3071.31,-101.17 2917.57,-93.87 2788,-69 2739.54,-59.7 2727.98,-53.91 2682,-36 2680.16,-35.28 2678.29,-34.52 2676.41,-33.72"/>
<polygon fill="black" stroke="black" points="2677.66,-30.45 2667.11,-29.57 2674.81,-36.84 2677.66,-30.45"/>
<text text-anchor="middle" x="2801.5" y="-57.8" font-family="Times,serif" font-size="14.00">dep</text>
</g>
<!-- 28 -->
<g id="node29" class="node">
<title>28</title>
<ellipse fill="none" stroke="black" cx="2723" cy="-18" rx="31.7" ry="18"/>
<text text-anchor="middle" x="2723" y="-14.3" font-family="Times,serif" font-size="14.00">suas</text>
</g>
<!-- 0&#45;&gt;28 -->
<g id="edge28" class="edge">
<title>0&#45;&gt;28</title>
<path fill="none" stroke="black" d="M3163.93,-100.46C3091.32,-96.15 2978.41,-87.06 2882,-69 2828.47,-58.97 2815.47,-53.79 2764,-36 2761.73,-35.21 2759.4,-34.37 2757.06,-33.49"/>
<polygon fill="black" stroke="black" points="2758.12,-30.14 2747.53,-29.73 2755.55,-36.65 2758.12,-30.14"/>
<text text-anchor="middle" x="2895.5" y="-57.8" font-family="Times,serif" font-size="14.00">dep</text>
</g>
<!-- 29 -->
<g id="node30" class="node">
<title>29</title>
<ellipse fill="none" stroke="black" cx="2811" cy="-18" rx="38.19" ry="18"/>
<text text-anchor="middle" x="2811" y="-14.3" font-family="Times,serif" font-size="14.00">voltas</text>
</g>
<!-- 0&#45;&gt;29 -->
<g id="edge29" class="edge">
<title>0&#45;&gt;29</title>
<path fill="none" stroke="black" d="M3167.43,-98.11C3112.25,-92.78 3034.25,-83.49 2967,-69 2917.94,-58.43 2906.67,-51.72 2859,-36 2856.07,-35.03 2853.05,-34.02 2850.02,-32.98"/>
<polygon fill="black" stroke="black" points="2850.97,-29.61 2840.38,-29.63 2848.68,-36.22 2850.97,-29.61"/>
<text text-anchor="middle" x="2980.5" y="-57.8" font-family="Times,serif" font-size="14.00">dep</text>
</g>
<!-- 30 -->
<g id="node31" class="node">
<title>30</title>
<ellipse fill="none" stroke="black" cx="2900" cy="-18" rx="32.49" ry="18"/>
<text text-anchor="middle" x="2900" y="-14.3" font-family="Times,serif" font-size="14.00">mais</text>
</g>
<!-- 0&#45;&gt;30 -->
<g id="edge30" class="edge">
<title>0&#45;&gt;30</title>
<path fill="none" stroke="black" d="M3177.43,-93.93C3141.28,-87.63 3094.83,-78.85 3054,-69 3003.55,-56.83 2991,-53.09 2942,-36 2939.6,-35.16 2937.13,-34.26 2934.65,-33.33"/>
<polygon fill="black" stroke="black" points="2935.76,-30.01 2925.17,-29.65 2933.22,-36.53 2935.76,-30.01"/>
<text text-anchor="middle" x="3067.5" y="-57.8" font-family="Times,serif" font-size="14.00">dep</text>
</g>
<!-- 31 -->
<g id="node32" class="node">
<title>31</title>
<ellipse fill="none" stroke="black" cx="2996" cy="-18" rx="45.49" ry="18"/>
<text text-anchor="middle" x="2996" y="-14.3" font-family="Times,serif" font-size="14.00">rápidas</text>
</g>
<!-- 0&#45;&gt;31 -->
<g id="edge31" class="edge">
<title>0&#45;&gt;31</title>
<path fill="none" stroke="black" d="M3191.59,-90.65C3170.47,-84.46 3145.36,-76.76 3123,-69 3093.36,-58.71 3060.4,-45.69 3035.49,-35.51"/>
<polygon fill="black" stroke="black" points="3036.6,-32.19 3026.02,-31.62 3033.94,-38.66 3036.6,-32.19"/>
<text text-anchor="middle" x="3136.5" y="-57.8" font-family="Times,serif" font-size="14.00">dep</text>
</g>
<!-- 32 -->
<g id="node33" class="node">
<title>32</title>
<ellipse fill="none" stroke="black" cx="3086" cy="-18" rx="27" ry="18"/>
<text text-anchor="middle" x="3086" y="-14.3" font-family="Times,serif" font-size="14.00">em</text>
</g>
<!-- 0&#45;&gt;32 -->
<g id="edge32" class="edge">
<title>0&#45;&gt;32</title>
<path fill="none" stroke="black" d="M3210.58,-88.21C3183.41,-73.11 3142.62,-50.45 3115.19,-35.22"/>
<polygon fill="black" stroke="black" points="3116.88,-32.15 3106.44,-30.36 3113.48,-38.27 3116.88,-32.15"/>
<text text-anchor="middle" x="3185.5" y="-57.8" font-family="Times,serif" font-size="14.00">dep</text>
</g>
<!-- 33 -->
<g id="node34" class="node">
<title>33</title>
<ellipse fill="none" stroke="black" cx="3188" cy="-18" rx="56.59" ry="18"/>
<text text-anchor="middle" x="3188" y="-14.3" font-family="Times,serif" font-size="14.00">1m19,32s</text>
</g>
<!-- 0&#45;&gt;33 -->
<g id="edge33" class="edge">
<title>0&#45;&gt;33</title>
<path fill="none" stroke="black" d="M3228.68,-86.8C3221.44,-74.74 3211.64,-58.4 3203.47,-44.79"/>
<polygon fill="black" stroke="black" points="3206.28,-42.66 3198.13,-35.89 3200.27,-46.26 3206.28,-42.66"/>
<text text-anchor="middle" x="3230.5" y="-57.8" font-family="Times,serif" font-size="14.00">dep</text>
</g>
<!-- 34 -->
<g id="node35" class="node">
<title>34</title>
<ellipse fill="none" stroke="black" cx="3290" cy="-18" rx="27" ry="18"/>
<text text-anchor="middle" x="3290" y="-14.3" font-family="Times,serif" font-size="14.00">,</text>
</g>
<!-- 0&#45;&gt;34 -->
<g id="edge34" class="edge">
<title>0&#45;&gt;34</title>
<path fill="none" stroke="black" d="M3249.32,-86.8C3256.7,-74.5 3266.74,-57.76 3275,-43.99"/>
<polygon fill="black" stroke="black" points="3278.24,-45.4 3280.38,-35.03 3272.24,-41.8 3278.24,-45.4"/>
<text text-anchor="middle" x="3281.5" y="-57.8" font-family="Times,serif" font-size="14.00">dep</text>
</g>
<!-- 35 -->
<g id="node36" class="node">
<title>35</title>
<ellipse fill="none" stroke="black" cx="3389" cy="-18" rx="53.89" ry="18"/>
<text text-anchor="middle" x="3389" y="-14.3" font-family="Times,serif" font-size="14.00">enquanto</text>
</g>
<!-- 0&#45;&gt;35 -->
<g id="edge35" class="edge">
<title>0&#45;&gt;35</title>
<path fill="none" stroke="black" d="M3267.21,-88.01C3291.81,-74.07 3327.58,-53.8 3354,-38.83"/>
<polygon fill="black" stroke="black" points="3355.95,-41.75 3362.92,-33.78 3352.49,-35.66 3355.95,-41.75"/>
<text text-anchor="middle" x="3336.5" y="-57.8" font-family="Times,serif" font-size="14.00">dep</text>
</g>
<!-- 36 -->
<g id="node37" class="node">
<title>36</title>
<ellipse fill="none" stroke="black" cx="3488" cy="-18" rx="27" ry="18"/>
<text text-anchor="middle" x="3488" y="-14.3" font-family="Times,serif" font-size="14.00">o</text>
</g>
<!-- 0&#45;&gt;36 -->
<g id="edge36" class="edge">
<title>0&#45;&gt;36</title>
<path fill="none" stroke="black" d="M3287.09,-90.86C3330.73,-78.41 3396.55,-58.34 3452,-36 3453.83,-35.26 3455.69,-34.48 3457.57,-33.67"/>
<polygon fill="black" stroke="black" points="3459.18,-36.78 3466.86,-29.48 3456.31,-30.4 3459.18,-36.78"/>
<text text-anchor="middle" x="3414.5" y="-57.8" font-family="Times,serif" font-size="14.00">dep</text>
</g>
<!-- 37 -->
<g id="node38" class="node">
<title>37</title>
<ellipse fill="none" stroke="black" cx="3638" cy="-18" rx="104.78" ry="18"/>
<text text-anchor="middle" x="3638" y="-14.3" font-family="Times,serif" font-size="14.00">Lotus&#45;Mugen&#45;Honda</text>
</g>
<!-- 0&#45;&gt;37 -->
<g id="edge37" class="edge">
<title>0&#45;&gt;37</title>
<path fill="none" stroke="black" d="M3300.03,-93.88C3338.09,-87.33 3388.03,-78.32 3432,-69 3479.4,-58.96 3532.52,-46.02 3572.95,-35.82"/>
<polygon fill="black" stroke="black" points="3573.85,-39.21 3582.68,-33.36 3572.13,-32.42 3573.85,-39.21"/>
<text text-anchor="middle" x="3508.5" y="-57.8" font-family="Times,serif" font-size="14.00">dep</text>
</g>
<!-- 38 -->
<g id="node39" class="node">
<title>38</title>
<ellipse fill="none" stroke="black" cx="3788" cy="-18" rx="27" ry="18"/>
<text text-anchor="middle" x="3788" y="-14.3" font-family="Times,serif" font-size="14.00">de</text>
</g>
<!-- 0&#45;&gt;38 -->
<g id="edge38" class="edge">
<title>0&#45;&gt;38</title>
<path fill="none" stroke="black" d="M3314.93,-101.55C3416.5,-96.56 3601.27,-81.49 3752,-36 3753.94,-35.42 3755.9,-34.74 3757.86,-34.01"/>
<polygon fill="black" stroke="black" points="3759.61,-37.07 3767.48,-29.97 3756.9,-30.62 3759.61,-37.07"/>
<text text-anchor="middle" x="3698.5" y="-57.8" font-family="Times,serif" font-size="14.00">dep</text>
</g>
<!-- 39 -->
<g id="node40" class="node">
<title>39</title>
<ellipse fill="none" stroke="black" cx="3871" cy="-18" rx="37.89" ry="18"/>
<text text-anchor="middle" x="3871" y="-14.3" font-family="Times,serif" font-size="14.00">Pedro</text>
</g>
<!-- 0&#45;&gt;39 -->
<g id="edge39" class="edge">
<title>0&#45;&gt;39</title>
<path fill="none" stroke="black" d="M3316.51,-103.61C3411.46,-101.91 3576.84,-95.03 3716,-69 3757.26,-61.28 3802.78,-45.71 3833.75,-33.98"/>
<polygon fill="black" stroke="black" points="3835.19,-37.17 3843.27,-30.32 3832.68,-30.64 3835.19,-37.17"/>
<text text-anchor="middle" x="3786.5" y="-57.8" font-family="Times,serif" font-size="14.00">dep</text>
</g>
<!-- 40 -->
<g id="node41" class="node">
<title>40</title>
<ellipse fill="none" stroke="black" cx="3963" cy="-18" rx="36.29" ry="18"/>
<text text-anchor="middle" x="3963" y="-14.3" font-family="Times,serif" font-size="14.00">Lamy</text>
</g>
<!-- 0&#45;&gt;40 -->
<g id="edge40" class="edge">
<title>0&#45;&gt;40</title>
<path fill="none" stroke="black" d="M3316.39,-104.56C3425.81,-104.15 3631.64,-98.91 3804,-69 3846.83,-61.57 3894.16,-45.64 3925.94,-33.74"/>
<polygon fill="black" stroke="black" points="3927.59,-36.86 3935.69,-30.04 3925.1,-30.32 3927.59,-36.86"/>
<text text-anchor="middle" x="3875.5" y="-57.8" font-family="Times,serif" font-size="14.00">dep</text>
</g>
<!-- 41 -->
<g id="node42" class="node">
<title>41</title>
<ellipse fill="none" stroke="black" cx="4044" cy="-18" rx="27" ry="18"/>
<text text-anchor="middle" x="4044" y="-14.3" font-family="Times,serif" font-size="14.00">foi</text>
</g>
<!-- 0&#45;&gt;41 -->
<g id="edge41" class="edge">
<title>0&#45;&gt;41</title>
<path fill="none" stroke="black" d="M3315.5,-102.07C3463.5,-97.99 3784.02,-87.31 3893,-69 3945.44,-60.19 3958.24,-54.75 4008,-36 4009.84,-35.31 4011.72,-34.55 4013.61,-33.77"/>
<polygon fill="black" stroke="black" points="4015.2,-36.89 4022.93,-29.65 4012.36,-30.49 4015.2,-36.89"/>
<text text-anchor="middle" x="3971.5" y="-57.8" font-family="Times,serif" font-size="14.00">dep</text>
</g>
<!-- 42 -->
<g id="node43" class="node">
<title>42</title>
<ellipse fill="none" stroke="black" cx="4116" cy="-18" rx="27" ry="18"/>
<text text-anchor="middle" x="4116" y="-14.3" font-family="Times,serif" font-size="14.00">o</text>
</g>
<!-- 0&#45;&gt;42 -->
<g id="edge42" class="edge">
<title>0&#45;&gt;42</title>
<path fill="none" stroke="black" d="M3316.31,-103.33C3481.09,-101.43 3862.14,-94.35 3989,-69 4023.61,-62.08 4060.95,-46.28 4086.12,-34.28"/>
<polygon fill="black" stroke="black" points="4087.67,-37.42 4095.14,-29.9 4084.61,-31.12 4087.67,-37.42"/>
<text text-anchor="middle" x="4053.5" y="-57.8" font-family="Times,serif" font-size="14.00">dep</text>
</g>
<!-- 43 -->
<g id="node44" class="node">
<title>43</title>
<ellipse fill="none" stroke="black" cx="4193" cy="-18" rx="32.49" ry="18"/>
<text text-anchor="middle" x="4193" y="-14.3" font-family="Times,serif" font-size="14.00">mais</text>
</g>
<!-- 0&#45;&gt;43 -->
<g id="edge43" class="edge">
<title>0&#45;&gt;43</title>
<path fill="none" stroke="black" d="M3316.39,-104.13C3494.41,-103.89 3928.59,-100.02 4071,-69 4102.99,-62.03 4137.31,-47.25 4161.38,-35.55"/>
<polygon fill="black" stroke="black" points="4162.98,-38.66 4170.39,-31.08 4159.87,-32.39 4162.98,-38.66"/>
<text text-anchor="middle" x="4133.5" y="-57.8" font-family="Times,serif" font-size="14.00">dep</text>
</g>
<!-- 44 -->
<g id="node45" class="node">
<title>44</title>
<ellipse fill="none" stroke="black" cx="4278" cy="-18" rx="34.39" ry="18"/>
<text text-anchor="middle" x="4278" y="-14.3" font-family="Times,serif" font-size="14.00">lento</text>
</g>
<!-- 0&#45;&gt;44 -->
<g id="edge44" class="edge">
<title>0&#45;&gt;44</title>
<path fill="none" stroke="black" d="M3316.32,-104.36C3506.42,-104.71 3992.63,-102.21 4151,-69 4184.11,-62.06 4219.79,-47.31 4244.87,-35.62"/>
<polygon fill="black" stroke="black" points="4246.41,-38.76 4253.94,-31.31 4243.4,-32.44 4246.41,-38.76"/>
<text text-anchor="middle" x="4215.5" y="-57.8" font-family="Times,serif" font-size="14.00">dep</text>
</g>
<!-- 45 -->
<g id="node46" class="node">
<title>45</title>
<ellipse fill="none" stroke="black" cx="4357" cy="-18" rx="27" ry="18"/>
<text text-anchor="middle" x="4357" y="-14.3" font-family="Times,serif" font-size="14.00">,</text>
</g>
<!-- 0&#45;&gt;45 -->
<g id="edge45" class="edge">
<title>0&#45;&gt;45</title>
<path fill="none" stroke="black" d="M3316.51,-104.49C3518.62,-105.27 4058.16,-103.89 4233,-69 4266.76,-62.26 4303.02,-46.55 4327.56,-34.52"/>
<polygon fill="black" stroke="black" points="4329.3,-37.56 4336.67,-29.96 4326.16,-31.31 4329.3,-37.56"/>
<text text-anchor="middle" x="4296.5" y="-57.8" font-family="Times,serif" font-size="14.00">dep</text>
</g>
<!-- 46 -->
<g id="node47" class="node">
<title>46</title>
<ellipse fill="none" stroke="black" cx="4455" cy="-18" rx="53.09" ry="18"/>
<text text-anchor="middle" x="4455" y="-14.3" font-family="Times,serif" font-size="14.00">gastando</text>
</g>
<!-- 0&#45;&gt;46 -->
<g id="edge46" class="edge">
<title>0&#45;&gt;46</title>
<path fill="none" stroke="black" d="M3316.54,-104.56C3529.93,-105.62 4122.71,-105.13 4314,-69 4349.27,-62.34 4387.55,-48.3 4415.32,-36.79"/>
<polygon fill="black" stroke="black" points="4416.82,-39.95 4424.68,-32.84 4414.1,-33.5 4416.82,-39.95"/>
<text text-anchor="middle" x="4383.5" y="-57.8" font-family="Times,serif" font-size="14.00">dep</text>
</g>
<!-- 47 -->
<g id="node48" class="node">
<title>47</title>
<ellipse fill="none" stroke="black" cx="4583" cy="-18" rx="56.59" ry="18"/>
<text text-anchor="middle" x="4583" y="-14.3" font-family="Times,serif" font-size="14.00">1m27,52s</text>
</g>
<!-- 0&#45;&gt;47 -->
<g id="edge47" class="edge">
<title>0&#45;&gt;47</title>
<path fill="none" stroke="black" d="M3316.57,-104.07C3541.45,-103.88 4191.06,-100.54 4401,-69 4447.95,-61.95 4500.05,-46.86 4536.43,-35.1"/>
<polygon fill="black" stroke="black" points="4537.85,-38.32 4546.26,-31.88 4535.67,-31.66 4537.85,-38.32"/>
<text text-anchor="middle" x="4485.5" y="-57.8" font-family="Times,serif" font-size="14.00">dep</text>
</g>
<!-- 48 -->
<g id="node49" class="node">
<title>48</title>
<ellipse fill="none" stroke="black" cx="4685" cy="-18" rx="27" ry="18"/>
<text text-anchor="middle" x="4685" y="-14.3" font-family="Times,serif" font-size="14.00">,</text>
</g>
<!-- 0&#45;&gt;48 -->
<g id="edge48" class="edge">
<title>0&#45;&gt;48</title>
<path fill="none" stroke="black" d="M3316.46,-103.83C3554.26,-102.99 4271.71,-98.06 4503,-69 4569.01,-60.71 4586.1,-57.67 4649,-36 4650.91,-35.34 4652.86,-34.61 4654.8,-33.84"/>
<polygon fill="black" stroke="black" points="4656.6,-36.87 4664.38,-29.68 4653.82,-30.45 4656.6,-36.87"/>
<text text-anchor="middle" x="4603.5" y="-57.8" font-family="Times,serif" font-size="14.00">dep</text>
</g>
<!-- 49 -->
<g id="node50" class="node">
<title>49</title>
<ellipse fill="none" stroke="black" cx="4768" cy="-18" rx="37.89" ry="18"/>
<text text-anchor="middle" x="4768" y="-14.3" font-family="Times,serif" font-size="14.00">muito</text>
</g>
<!-- 0&#45;&gt;49 -->
<g id="edge49" class="edge">
<title>0&#45;&gt;49</title>
<path fill="none" stroke="black" d="M3316.05,-103.37C3587.88,-100.95 4492.64,-91.3 4621,-69 4660.01,-62.22 4702.65,-46.76 4731.92,-34.81"/>
<polygon fill="black" stroke="black" points="4733.41,-37.98 4741.3,-30.91 4730.72,-31.52 4733.41,-37.98"/>
<text text-anchor="middle" x="4692.5" y="-57.8" font-family="Times,serif" font-size="14.00">dep</text>
</g>
<!-- 50 -->
<g id="node51" class="node">
<title>50</title>
<ellipse fill="none" stroke="black" cx="4866" cy="-18" rx="42.49" ry="18"/>
<text text-anchor="middle" x="4866" y="-14.3" font-family="Times,serif" font-size="14.00">aquém</text>
</g>
<!-- 0&#45;&gt;50 -->
<g id="edge50" class="edge">
<title>0&#45;&gt;50</title>
<path fill="none" stroke="black" d="M3316.07,-103.43C3599.18,-101.17 4572.41,-91.79 4710,-69 4751.14,-62.19 4796.33,-46.77 4827.44,-34.85"/>
<polygon fill="black" stroke="black" points="4828.97,-38.01 4837.02,-31.12 4826.43,-31.49 4828.97,-38.01"/>
<text text-anchor="middle" x="4785.5" y="-57.8" font-family="Times,serif" font-size="14.00">dep</text>
</g>
<!-- 51 -->
<g id="node52" class="node">
<title>51</title>
<ellipse fill="none" stroke="black" cx="4953" cy="-18" rx="27" ry="18"/>
<text text-anchor="middle" x="4953" y="-14.3" font-family="Times,serif" font-size="14.00">de</text>
</g>
<!-- 0&#45;&gt;51 -->
<g id="edge51" class="edge">
<title>0&#45;&gt;51</title>
<path fill="none" stroke="black" d="M3316.08,-103.45C3610.59,-101.17 4655.64,-91.58 4803,-69 4855.14,-61.01 4867.66,-54.65 4917,-36 4918.84,-35.3 4920.72,-34.55 4922.6,-33.76"/>
<polygon fill="black" stroke="black" points="4924.19,-36.89 4931.92,-29.64 4921.36,-30.49 4924.19,-36.89"/>
<text text-anchor="middle" x="4882.5" y="-57.8" font-family="Times,serif" font-size="14.00">dep</text>
</g>
<!-- 52 -->
<g id="node53" class="node">
<title>52</title>
<ellipse fill="none" stroke="black" cx="5025" cy="-18" rx="27" ry="18"/>
<text text-anchor="middle" x="5025" y="-14.3" font-family="Times,serif" font-size="14.00">o</text>
</g>
<!-- 0&#45;&gt;52 -->
<g id="edge52" class="edge">
<title>0&#45;&gt;52</title>
<path fill="none" stroke="black" d="M3316.43,-103.88C3623.14,-103.22 4743.72,-98.74 4900,-69 4934.05,-62.52 4970.61,-46.77 4995.33,-34.66"/>
<polygon fill="black" stroke="black" points="4997.14,-37.67 5004.52,-30.06 4994.01,-31.41 4997.14,-37.67"/>
<text text-anchor="middle" x="4963.5" y="-57.8" font-family="Times,serif" font-size="14.00">dep</text>
</g>
<!-- 53 -->
<g id="node54" class="node">
<title>53</title>
<ellipse fill="none" stroke="black" cx="5115" cy="-18" rx="45.49" ry="18"/>
<text text-anchor="middle" x="5115" y="-14.3" font-family="Times,serif" font-size="14.00">italiano</text>
</g>
<!-- 0&#45;&gt;53 -->
<g id="edge53" class="edge">
<title>0&#45;&gt;53</title>
<path fill="none" stroke="black" d="M3316.42,-103.98C3632.54,-103.67 4816.47,-100.41 4981,-69 5015.1,-62.49 5051.93,-48.17 5078.33,-36.52"/>
<polygon fill="black" stroke="black" points="5079.88,-39.66 5087.56,-32.37 5077,-33.28 5079.88,-39.66"/>
<text text-anchor="middle" x="5047.5" y="-57.8" font-family="Times,serif" font-size="14.00">dep</text>
</g>
<!-- 54 -->
<g id="node55" class="node">
<title>54</title>
<ellipse fill="none" stroke="black" cx="5240" cy="-18" rx="61.99" ry="18"/>
<text text-anchor="middle" x="5240" y="-14.3" font-family="Times,serif" font-size="14.00">Alessandro</text>
</g>
<!-- 0&#45;&gt;54 -->
<g id="edge54" class="edge">
<title>0&#45;&gt;54</title>
<path fill="none" stroke="black" d="M3316.21,-103.7C3641.38,-102.27 4890.67,-95.12 5065,-69 5109.37,-62.35 5158.35,-47.7 5193.18,-35.96"/>
<polygon fill="black" stroke="black" points="5194.74,-39.13 5203.07,-32.58 5192.47,-32.51 5194.74,-39.13"/>
<text text-anchor="middle" x="5147.5" y="-57.8" font-family="Times,serif" font-size="14.00">dep</text>
</g>
<!-- 55 -->
<g id="node56" class="node">
<title>55</title>
<ellipse fill="none" stroke="black" cx="5367" cy="-18" rx="46.59" ry="18"/>
<text text-anchor="middle" x="5367" y="-14.3" font-family="Times,serif" font-size="14.00">Zanardi</text>
</g>
<!-- 0&#45;&gt;55 -->
<g id="edge55" class="edge">
<title>0&#45;&gt;55</title>
<path fill="none" stroke="black" d="M3316.12,-103.53C3652.11,-101.35 4979.64,-91.39 5165,-69 5220.34,-62.31 5282.34,-45.53 5322.88,-33.24"/>
<polygon fill="black" stroke="black" points="5323.92,-36.58 5332.45,-30.3 5321.86,-29.89 5323.92,-36.58"/>
<text text-anchor="middle" x="5257.5" y="-57.8" font-family="Times,serif" font-size="14.00">dep</text>
</g>
<!-- 56 -->
<g id="node57" class="node">
<title>56</title>
<ellipse fill="none" stroke="black" cx="5459" cy="-18" rx="27" ry="18"/>
<text text-anchor="middle" x="5459" y="-14.3" font-family="Times,serif" font-size="14.00">,</text>
</g>
<!-- 0&#45;&gt;56 -->
<g id="edge56" class="edge">
<title>0&#45;&gt;56</title>
<path fill="none" stroke="black" d="M3316.39,-103.6C3664.68,-101.65 5078.25,-92.38 5275,-69 5341.92,-61.05 5359.25,-57.86 5423,-36 5424.91,-35.34 5426.86,-34.62 5428.8,-33.84"/>
<polygon fill="black" stroke="black" points="5430.6,-36.88 5438.39,-29.69 5427.82,-30.45 5430.6,-36.88"/>
<text text-anchor="middle" x="5379.5" y="-57.8" font-family="Times,serif" font-size="14.00">dep</text>
</g>
<!-- 57 -->
<g id="node58" class="node">
<title>57</title>
<ellipse fill="none" stroke="black" cx="5589" cy="-18" rx="85.29" ry="18"/>
<text text-anchor="middle" x="5589" y="-14.3" font-family="Times,serif" font-size="14.00">piloto&#45;ensaiador</text>
</g>
<!-- 0&#45;&gt;57 -->
<g id="edge57" class="edge">
<title>0&#45;&gt;57</title>
<path fill="none" stroke="black" d="M3316.48,-103.84C3677.74,-102.94 5188.05,-97.49 5397,-69 5444.62,-62.51 5497.37,-48.24 5535.51,-36.6"/>
<polygon fill="black" stroke="black" points="5536.85,-39.85 5545.37,-33.55 5534.78,-33.16 5536.85,-39.85"/>
<text text-anchor="middle" x="5485.5" y="-57.8" font-family="Times,serif" font-size="14.00">dep</text>
</g>
<!-- 58 -->
<g id="node59" class="node">
<title>58</title>
<ellipse fill="none" stroke="black" cx="5719" cy="-18" rx="27" ry="18"/>
<text text-anchor="middle" x="5719" y="-14.3" font-family="Times,serif" font-size="14.00">de</text>
</g>
<!-- 0&#45;&gt;58 -->
<g id="edge58" class="edge">
<title>0&#45;&gt;58</title>
<path fill="none" stroke="black" d="M3316.19,-103.57C3687.61,-101.39 5282.03,-90.81 5503,-69 5583.94,-61.01 5605.57,-60.91 5683,-36 5684.92,-35.38 5686.88,-34.68 5688.83,-33.93"/>
<polygon fill="black" stroke="black" points="5690.61,-36.98 5698.43,-29.83 5687.86,-30.54 5690.61,-36.98"/>
<text text-anchor="middle" x="5632.5" y="-57.8" font-family="Times,serif" font-size="14.00">dep</text>
</g>
<!-- 59 -->
<g id="node60" class="node">
<title>59</title>
<ellipse fill="none" stroke="black" cx="5791" cy="-18" rx="27" ry="18"/>
<text text-anchor="middle" x="5791" y="-14.3" font-family="Times,serif" font-size="14.00">a</text>
</g>
<!-- 0&#45;&gt;59 -->
<g id="edge59" class="edge">
<title>0&#45;&gt;59</title>
<path fill="none" stroke="black" d="M3316.42,-104.21C3703.05,-105.07 5415.58,-106.71 5650,-69 5698.3,-61.23 5709.44,-53.82 5755,-36 5756.83,-35.28 5758.71,-34.51 5760.59,-33.71"/>
<polygon fill="black" stroke="black" points="5762.19,-36.83 5769.89,-29.56 5759.33,-30.44 5762.19,-36.83"/>
<text text-anchor="middle" x="5722.5" y="-57.8" font-family="Times,serif" font-size="14.00">dep</text>
</g>
<!-- 60 -->
<g id="node61" class="node">
<title>60</title>
<ellipse fill="none" stroke="black" cx="5878" cy="-18" rx="42.49" ry="18"/>
<text text-anchor="middle" x="5878" y="-14.3" font-family="Times,serif" font-size="14.00">equipa</text>
</g>
<!-- 0&#45;&gt;60 -->
<g id="edge60" class="edge">
<title>0&#45;&gt;60</title>
<path fill="none" stroke="black" d="M3316.16,-103.64C3724.36,-101.66 5618.09,-91.28 5740,-69 5775.65,-62.48 5814.29,-47.77 5841.58,-35.99"/>
<polygon fill="black" stroke="black" points="5843,-39.19 5850.74,-31.96 5840.18,-32.78 5843,-39.19"/>
<text text-anchor="middle" x="5808.5" y="-57.8" font-family="Times,serif" font-size="14.00">dep</text>
</g>
<!-- 61 -->
<g id="node62" class="node">
<title>61</title>
<ellipse fill="none" stroke="black" cx="5965" cy="-18" rx="27" ry="18"/>
<text text-anchor="middle" x="5965" y="-14.3" font-family="Times,serif" font-size="14.00">,</text>
</g>
<!-- 0&#45;&gt;61 -->
<g id="edge61" class="edge">
<title>0&#45;&gt;61</title>
<path fill="none" stroke="black" d="M3316.39,-103.6C3733.45,-101.35 5699.24,-89.69 5826,-69 5864.94,-62.64 5907.28,-45.87 5934.87,-33.49"/>
<polygon fill="black" stroke="black" points="5936.35,-36.67 5943.99,-29.32 5933.44,-30.3 5936.35,-36.67"/>
<text text-anchor="middle" x="5894.5" y="-57.8" font-family="Times,serif" font-size="14.00">dep</text>
</g>
<!-- 62 -->
<g id="node63" class="node">
<title>62</title>
<ellipse fill="none" stroke="black" cx="6038" cy="-18" rx="27.9" ry="18"/>
<text text-anchor="middle" x="6038" y="-14.3" font-family="Times,serif" font-size="14.00">que</text>
</g>
<!-- 0&#45;&gt;62 -->
<g id="edge62" class="edge">
<title>0&#45;&gt;62</title>
<path fill="none" stroke="black" d="M3316.17,-103.73C3741.11,-102.16 5781.25,-93.34 5912,-69 5946.11,-62.65 5982.72,-47.03 6007.64,-34.92"/>
<polygon fill="black" stroke="black" points="6009.51,-37.9 6016.91,-30.32 6006.4,-31.63 6009.51,-37.9"/>
<text text-anchor="middle" x="5975.5" y="-57.8" font-family="Times,serif" font-size="14.00">dep</text>
</g>
<!-- 63 -->
<g id="node64" class="node">
<title>63</title>
<ellipse fill="none" stroke="black" cx="6126" cy="-18" rx="42.49" ry="18"/>
<text text-anchor="middle" x="6126" y="-14.3" font-family="Times,serif" font-size="14.00">gastou</text>
</g>
<!-- 0&#45;&gt;63 -->
<g id="edge63" class="edge">
<title>0&#45;&gt;63</title>
<path fill="none" stroke="black" d="M3316.38,-103.77C3749.45,-102.39 5858.12,-94.4 5993,-69 6027.11,-62.58 6063.91,-48.11 6090.13,-36.38"/>
<polygon fill="black" stroke="black" points="6091.64,-39.53 6099.29,-32.2 6088.74,-33.17 6091.64,-39.53"/>
<text text-anchor="middle" x="6059.5" y="-57.8" font-family="Times,serif" font-size="14.00">dep</text>
</g>
<!-- 64 -->
<g id="node65" class="node">
<title>64</title>
<ellipse fill="none" stroke="black" cx="6230" cy="-18" rx="43.59" ry="18"/>
<text text-anchor="middle" x="6230" y="-14.3" font-family="Times,serif" font-size="14.00">apenas</text>
</g>
<!-- 0&#45;&gt;64 -->
<g id="edge64" class="edge">
<title>0&#45;&gt;64</title>
<path fill="none" stroke="black" d="M3316.19,-103.71C3756.62,-101.96 5937.2,-92.15 6077,-69 6117.05,-62.37 6160.92,-47.16 6191.37,-35.25"/>
<polygon fill="black" stroke="black" points="6192.77,-38.46 6200.77,-31.51 6190.18,-31.95 6192.77,-38.46"/>
<text text-anchor="middle" x="6151.5" y="-57.8" font-family="Times,serif" font-size="14.00">dep</text>
</g>
<!-- 65 -->
<g id="node66" class="node">
<title>65</title>
<ellipse fill="none" stroke="black" cx="6348" cy="-18" rx="56.59" ry="18"/>
<text text-anchor="middle" x="6348" y="-14.3" font-family="Times,serif" font-size="14.00">1m22,95s</text>
</g>
<!-- 0&#45;&gt;65 -->
<g id="edge65" class="edge">
<title>0&#45;&gt;65</title>
<path fill="none" stroke="black" d="M3316.47,-103.64C3765.96,-101.51 6023.94,-89.76 6169,-69 6215.42,-62.36 6266.83,-47.14 6302.59,-35.23"/>
<polygon fill="black" stroke="black" points="6303.9,-38.48 6312.25,-31.96 6301.66,-31.85 6303.9,-38.48"/>
<text text-anchor="middle" x="6252.5" y="-57.8" font-family="Times,serif" font-size="14.00">dep</text>
</g>
<!-- 66 -->
<g id="node67" class="node">
<title>66</title>
<ellipse fill="none" stroke="black" cx="6450" cy="-18" rx="27" ry="18"/>
<text text-anchor="middle" x="6450" y="-14.3" font-family="Times,serif" font-size="14.00">.</text>
</g>
<!-- 0&#45;&gt;66 -->
<g id="edge66" class="edge">
<title>0&#45;&gt;66</title>
<path fill="none" stroke="black" d="M3316.42,-104.1C3759.97,-104.51 5969.36,-104.77 6270,-69 6335.2,-61.24 6351.95,-57.48 6414,-36 6415.91,-35.34 6417.85,-34.61 6419.8,-33.83"/>
<polygon fill="black" stroke="black" points="6421.6,-36.86 6429.38,-29.67 6418.81,-30.44 6421.6,-36.86"/>
<text text-anchor="middle" x="6371.5" y="-57.8" font-family="Times,serif" font-size="14.00">dep</text>
</g>
</g>
</svg>
