<?xml version="1.0" encoding="UTF-8" standalone="no"?>
<!DOCTYPE svg PUBLIC "-//W3C//DTD SVG 1.1//EN"
 "http://www.w3.org/Graphics/SVG/1.1/DTD/svg11.dtd">
<!-- Generated by graphviz version 2.42.4 (0)
 -->
<!-- Pages: 1 -->
<svg width="1230pt" height="131pt"
 viewBox="0.00 0.00 1230.10 131.00" xmlns="http://www.w3.org/2000/svg" xmlns:xlink="http://www.w3.org/1999/xlink">
<g id="graph0" class="graph" transform="scale(1 1) rotate(0) translate(4 127)">
<polygon fill="white" stroke="transparent" points="-4,4 -4,-127 1226.1,-127 1226.1,4 -4,4"/>
<!-- 0 -->
<g id="node1" class="node">
<title>0</title>
<ellipse fill="none" stroke="black" cx="591.1" cy="-105" rx="27" ry="18"/>
<text text-anchor="middle" x="591.1" y="-101.3" font-family="Times,serif" font-size="14.00">E</text>
</g>
<!-- 1 -->
<g id="node2" class="node">
<title>1</title>
<ellipse fill="none" stroke="black" cx="35.1" cy="-18" rx="35.19" ry="18"/>
<text text-anchor="middle" x="35.1" y="-14.3" font-family="Times,serif" font-size="14.00">como</text>
</g>
<!-- 0&#45;&gt;1 -->
<g id="edge1" class="edge">
<title>0&#45;&gt;1</title>
<path fill="none" stroke="black" d="M563.71,-104.17C496.18,-104.07 316.61,-100.59 171.1,-69 135.63,-61.3 96.94,-46.4 69.93,-34.86"/>
<polygon fill="black" stroke="black" points="71.1,-31.55 60.53,-30.78 68.31,-37.97 71.1,-31.55"/>
<text text-anchor="middle" x="184.6" y="-57.8" font-family="Times,serif" font-size="14.00">dep</text>
</g>
<!-- 2 -->
<g id="node3" class="node">
<title>2</title>
<ellipse fill="none" stroke="black" cx="115.1" cy="-18" rx="27.1" ry="18"/>
<text text-anchor="middle" x="115.1" y="-14.3" font-family="Times,serif" font-size="14.00">não</text>
</g>
<!-- 0&#45;&gt;2 -->
<g id="edge2" class="edge">
<title>0&#45;&gt;2</title>
<path fill="none" stroke="black" d="M563.89,-102.83C507.12,-100 372.08,-91.33 261.1,-69 211.06,-58.93 198.75,-54.28 151.1,-36 149.26,-35.29 147.38,-34.54 145.5,-33.74"/>
<polygon fill="black" stroke="black" points="146.75,-30.47 136.19,-29.6 143.9,-36.86 146.75,-30.47"/>
<text text-anchor="middle" x="274.6" y="-57.8" font-family="Times,serif" font-size="14.00">dep</text>
</g>
<!-- 3 -->
<g id="node4" class="node">
<title>3</title>
<ellipse fill="none" stroke="black" cx="187.1" cy="-18" rx="27" ry="18"/>
<text text-anchor="middle" x="187.1" y="-14.3" font-family="Times,serif" font-size="14.00">há</text>
</g>
<!-- 0&#45;&gt;3 -->
<g id="edge3" class="edge">
<title>0&#45;&gt;3</title>
<path fill="none" stroke="black" d="M564.09,-101.73C502.29,-95.95 346.38,-78.07 223.1,-36 221.18,-35.35 219.24,-34.62 217.29,-33.85"/>
<polygon fill="black" stroke="black" points="218.27,-30.46 207.71,-29.7 215.5,-36.88 218.27,-30.46"/>
<text text-anchor="middle" x="355.6" y="-57.8" font-family="Times,serif" font-size="14.00">dep</text>
</g>
<!-- 4 -->
<g id="node5" class="node">
<title>4</title>
<ellipse fill="none" stroke="black" cx="301.1" cy="-18" rx="68.79" ry="18"/>
<text text-anchor="middle" x="301.1" y="-14.3" font-family="Times,serif" font-size="14.00">Constituição</text>
</g>
<!-- 0&#45;&gt;4 -->
<g id="edge4" class="edge">
<title>0&#45;&gt;4</title>
<path fill="none" stroke="black" d="M565.86,-98.53C537.15,-92.14 488.95,-80.92 448.1,-69 414.76,-59.27 377.76,-46.67 349.21,-36.56"/>
<polygon fill="black" stroke="black" points="350.08,-33.15 339.49,-33.09 347.73,-39.75 350.08,-33.15"/>
<text text-anchor="middle" x="461.6" y="-57.8" font-family="Times,serif" font-size="14.00">dep</text>
</g>
<!-- 5 -->
<g id="node6" class="node">
<title>5</title>
<ellipse fill="none" stroke="black" cx="415.1" cy="-18" rx="27" ry="18"/>
<text text-anchor="middle" x="415.1" y="-14.3" font-family="Times,serif" font-size="14.00">,</text>
</g>
<!-- 0&#45;&gt;5 -->
<g id="edge5" class="edge">
<title>0&#45;&gt;5</title>
<path fill="none" stroke="black" d="M568.36,-95.26C551.3,-88.53 527.48,-78.75 507.1,-69 485.45,-58.64 461.67,-45.67 443.71,-35.54"/>
<polygon fill="black" stroke="black" points="445.31,-32.43 434.89,-30.53 441.85,-38.51 445.31,-32.43"/>
<text text-anchor="middle" x="520.6" y="-57.8" font-family="Times,serif" font-size="14.00">dep</text>
</g>
<!-- 6 -->
<g id="node7" class="node">
<title>6</title>
<ellipse fill="none" stroke="black" cx="496.1" cy="-18" rx="36.29" ry="18"/>
<text text-anchor="middle" x="496.1" y="-14.3" font-family="Times,serif" font-size="14.00">então</text>
</g>
<!-- 0&#45;&gt;6 -->
<g id="edge6" class="edge">
<title>0&#45;&gt;6</title>
<path fill="none" stroke="black" d="M575.41,-89.96C560.51,-76.63 537.88,-56.39 520.61,-40.93"/>
<polygon fill="black" stroke="black" points="522.88,-38.27 513.09,-34.21 518.21,-43.48 522.88,-38.27"/>
<text text-anchor="middle" x="563.6" y="-57.8" font-family="Times,serif" font-size="14.00">dep</text>
</g>
<!-- 7 -->
<g id="node8" class="node">
<title>7</title>
<ellipse fill="none" stroke="black" cx="591.1" cy="-18" rx="40.09" ry="18"/>
<text text-anchor="middle" x="591.1" y="-14.3" font-family="Times,serif" font-size="14.00">vamos</text>
</g>
<!-- 0&#45;&gt;7 -->
<g id="edge7" class="edge">
<title>0&#45;&gt;7</title>
<path fill="none" stroke="black" d="M591.1,-86.8C591.1,-75.16 591.1,-59.55 591.1,-46.24"/>
<polygon fill="black" stroke="black" points="594.6,-46.18 591.1,-36.18 587.6,-46.18 594.6,-46.18"/>
<text text-anchor="middle" x="604.6" y="-57.8" font-family="Times,serif" font-size="14.00">dep</text>
</g>
<!-- 8 -->
<g id="node9" class="node">
<title>8</title>
<ellipse fill="none" stroke="black" cx="686.1" cy="-18" rx="36.29" ry="18"/>
<text text-anchor="middle" x="686.1" y="-14.3" font-family="Times,serif" font-size="14.00">todos</text>
</g>
<!-- 0&#45;&gt;8 -->
<g id="edge8" class="edge">
<title>0&#45;&gt;8</title>
<path fill="none" stroke="black" d="M606.78,-89.96C621.68,-76.63 644.31,-56.39 661.59,-40.93"/>
<polygon fill="black" stroke="black" points="663.98,-43.48 669.1,-34.21 659.32,-38.27 663.98,-43.48"/>
<text text-anchor="middle" x="658.6" y="-57.8" font-family="Times,serif" font-size="14.00">dep</text>
</g>
<!-- 9 -->
<g id="node10" class="node">
<title>9</title>
<ellipse fill="none" stroke="black" cx="779.1" cy="-18" rx="38.19" ry="18"/>
<text text-anchor="middle" x="779.1" y="-14.3" font-family="Times,serif" font-size="14.00">tomar</text>
</g>
<!-- 0&#45;&gt;9 -->
<g id="edge9" class="edge">
<title>0&#45;&gt;9</title>
<path fill="none" stroke="black" d="M613.99,-95.02C631.19,-88.16 655.27,-78.33 676.1,-69 699.27,-58.61 724.97,-46.14 744.9,-36.25"/>
<polygon fill="black" stroke="black" points="746.51,-39.36 753.9,-31.77 743.39,-33.09 746.51,-39.36"/>
<text text-anchor="middle" x="721.6" y="-57.8" font-family="Times,serif" font-size="14.00">dep</text>
</g>
<!-- 10 -->
<g id="node11" class="node">
<title>10</title>
<ellipse fill="none" stroke="black" cx="884.1" cy="-18" rx="48.99" ry="18"/>
<text text-anchor="middle" x="884.1" y="-14.3" font-family="Times,serif" font-size="14.00">atitudes</text>
</g>
<!-- 0&#45;&gt;10 -->
<g id="edge10" class="edge">
<title>0&#45;&gt;10</title>
<path fill="none" stroke="black" d="M616.7,-98.76C646.37,-92.5 696.62,-81.31 739.1,-69 773.99,-58.89 812.87,-45.35 841.58,-34.92"/>
<polygon fill="black" stroke="black" points="843.09,-38.09 851.28,-31.37 840.69,-31.51 843.09,-38.09"/>
<text text-anchor="middle" x="797.6" y="-57.8" font-family="Times,serif" font-size="14.00">dep</text>
</g>
<!-- 11 -->
<g id="node12" class="node">
<title>11</title>
<ellipse fill="none" stroke="black" cx="1014.1" cy="-18" rx="63.89" ry="18"/>
<text text-anchor="middle" x="1014.1" y="-14.3" font-family="Times,serif" font-size="14.00">arruaceiras</text>
</g>
<!-- 0&#45;&gt;11 -->
<g id="edge11" class="edge">
<title>0&#45;&gt;11</title>
<path fill="none" stroke="black" d="M617.44,-100.68C659.46,-95.2 744.13,-83.43 815.1,-69 864.82,-58.89 920.81,-44.55 960.71,-33.82"/>
<polygon fill="black" stroke="black" points="961.75,-37.17 970.49,-31.18 959.92,-30.41 961.75,-37.17"/>
<text text-anchor="middle" x="895.6" y="-57.8" font-family="Times,serif" font-size="14.00">dep</text>
</g>
<!-- 12 -->
<g id="node13" class="node">
<title>12</title>
<ellipse fill="none" stroke="black" cx="1123.1" cy="-18" rx="27" ry="18"/>
<text text-anchor="middle" x="1123.1" y="-14.3" font-family="Times,serif" font-size="14.00">»</text>
</g>
<!-- 0&#45;&gt;12 -->
<g id="edge12" class="edge">
<title>0&#45;&gt;12</title>
<path fill="none" stroke="black" d="M618.19,-103.63C694.13,-101.9 914.75,-92.03 1087.1,-36 1089.02,-35.37 1090.97,-34.67 1092.92,-33.91"/>
<polygon fill="black" stroke="black" points="1094.7,-36.96 1102.52,-29.81 1091.95,-30.52 1094.7,-36.96"/>
<text text-anchor="middle" x="1035.6" y="-57.8" font-family="Times,serif" font-size="14.00">dep</text>
</g>
<!-- 13 -->
<g id="node14" class="node">
<title>13</title>
<ellipse fill="none" stroke="black" cx="1195.1" cy="-18" rx="27" ry="18"/>
<text text-anchor="middle" x="1195.1" y="-14.3" font-family="Times,serif" font-size="14.00">.</text>
</g>
<!-- 0&#45;&gt;13 -->
<g id="edge13" class="edge">
<title>0&#45;&gt;13</title>
<path fill="none" stroke="black" d="M618.2,-104.07C689.88,-103.81 890.14,-100.12 1053.1,-69 1101.56,-59.74 1113.12,-53.91 1159.1,-36 1160.93,-35.28 1162.81,-34.52 1164.68,-33.72"/>
<polygon fill="black" stroke="black" points="1166.29,-36.84 1173.99,-29.57 1163.43,-30.45 1166.29,-36.84"/>
<text text-anchor="middle" x="1124.6" y="-57.8" font-family="Times,serif" font-size="14.00">dep</text>
</g>
</g>
</svg>
