<?xml version="1.0" encoding="UTF-8" standalone="no"?>
<!DOCTYPE svg PUBLIC "-//W3C//DTD SVG 1.1//EN"
 "http://www.w3.org/Graphics/SVG/1.1/DTD/svg11.dtd">
<!-- Generated by graphviz version 2.42.4 (0)
 -->
<!-- Pages: 1 -->
<svg width="951pt" height="131pt"
 viewBox="0.00 0.00 951.00 131.00" xmlns="http://www.w3.org/2000/svg" xmlns:xlink="http://www.w3.org/1999/xlink">
<g id="graph0" class="graph" transform="scale(1 1) rotate(0) translate(4 127)">
<polygon fill="white" stroke="transparent" points="-4,4 -4,-127 947,-127 947,4 -4,4"/>
<!-- 0 -->
<g id="node1" class="node">
<title>0</title>
<ellipse fill="none" stroke="black" cx="393" cy="-105" rx="27" ry="18"/>
<text text-anchor="middle" x="393" y="-101.3" font-family="Times,serif" font-size="14.00">A</text>
</g>
<!-- 1 -->
<g id="node2" class="node">
<title>1</title>
<ellipse fill="none" stroke="black" cx="27" cy="-18" rx="27" ry="18"/>
<text text-anchor="middle" x="27" y="-14.3" font-family="Times,serif" font-size="14.00">as</text>
</g>
<!-- 0&#45;&gt;1 -->
<g id="edge1" class="edge">
<title>0&#45;&gt;1</title>
<path fill="none" stroke="black" d="M366.25,-101.97C321.39,-98.15 228.41,-88.48 152,-69 118.61,-60.49 82.22,-45.2 57.36,-33.76"/>
<polygon fill="black" stroke="black" points="58.65,-30.49 48.11,-29.43 55.68,-36.84 58.65,-30.49"/>
<text text-anchor="middle" x="165.5" y="-57.8" font-family="Times,serif" font-size="14.00">dep</text>
</g>
<!-- 2 -->
<g id="node3" class="node">
<title>2</title>
<ellipse fill="none" stroke="black" cx="108" cy="-18" rx="36.29" ry="18"/>
<text text-anchor="middle" x="108" y="-14.3" font-family="Times,serif" font-size="14.00">vezes</text>
</g>
<!-- 0&#45;&gt;2 -->
<g id="edge2" class="edge">
<title>0&#45;&gt;2</title>
<path fill="none" stroke="black" d="M366.75,-100.53C332.45,-95.58 270.78,-85.25 220,-69 192.79,-60.29 163.35,-46.98 141.48,-36.28"/>
<polygon fill="black" stroke="black" points="142.81,-33.04 132.3,-31.73 139.7,-39.31 142.81,-33.04"/>
<text text-anchor="middle" x="233.5" y="-57.8" font-family="Times,serif" font-size="14.00">dep</text>
</g>
<!-- 3 -->
<g id="node4" class="node">
<title>3</title>
<ellipse fill="none" stroke="black" cx="189" cy="-18" rx="27" ry="18"/>
<text text-anchor="middle" x="189" y="-14.3" font-family="Times,serif" font-size="14.00">,</text>
</g>
<!-- 0&#45;&gt;3 -->
<g id="edge3" class="edge">
<title>0&#45;&gt;3</title>
<path fill="none" stroke="black" d="M368.27,-97.64C345.46,-91.44 310.85,-81.18 282,-69 259.56,-59.53 235.37,-46.43 217.28,-36.01"/>
<polygon fill="black" stroke="black" points="218.83,-32.85 208.43,-30.84 215.3,-38.9 218.83,-32.85"/>
<text text-anchor="middle" x="295.5" y="-57.8" font-family="Times,serif" font-size="14.00">dep</text>
</g>
<!-- 4 -->
<g id="node5" class="node">
<title>4</title>
<ellipse fill="none" stroke="black" cx="261" cy="-18" rx="27" ry="18"/>
<text text-anchor="middle" x="261" y="-14.3" font-family="Times,serif" font-size="14.00">um</text>
</g>
<!-- 0&#45;&gt;4 -->
<g id="edge4" class="edge">
<title>0&#45;&gt;4</title>
<path fill="none" stroke="black" d="M373.25,-92.42C361.96,-85.72 347.59,-77.04 335,-69 319.14,-58.86 301.68,-47.1 287.7,-37.53"/>
<polygon fill="black" stroke="black" points="289.3,-34.37 279.07,-31.59 285.33,-40.14 289.3,-34.37"/>
<text text-anchor="middle" x="348.5" y="-57.8" font-family="Times,serif" font-size="14.00">dep</text>
</g>
<!-- 5 -->
<g id="node6" class="node">
<title>5</title>
<ellipse fill="none" stroke="black" cx="344" cy="-18" rx="38.19" ry="18"/>
<text text-anchor="middle" x="344" y="-14.3" font-family="Times,serif" font-size="14.00">pouco</text>
</g>
<!-- 0&#45;&gt;5 -->
<g id="edge5" class="edge">
<title>0&#45;&gt;5</title>
<path fill="none" stroke="black" d="M383.78,-88.01C376.69,-75.7 366.75,-58.46 358.57,-44.28"/>
<polygon fill="black" stroke="black" points="361.54,-42.41 353.51,-35.5 355.47,-45.91 361.54,-42.41"/>
<text text-anchor="middle" x="385.5" y="-57.8" font-family="Times,serif" font-size="14.00">dep</text>
</g>
<!-- 6 -->
<g id="node7" class="node">
<title>6</title>
<ellipse fill="none" stroke="black" cx="443" cy="-18" rx="42.49" ry="18"/>
<text text-anchor="middle" x="443" y="-14.3" font-family="Times,serif" font-size="14.00">parvos</text>
</g>
<!-- 0&#45;&gt;6 -->
<g id="edge6" class="edge">
<title>0&#45;&gt;6</title>
<path fill="none" stroke="black" d="M402.4,-88.01C409.6,-75.78 419.66,-58.68 427.97,-44.56"/>
<polygon fill="black" stroke="black" points="431.07,-46.18 433.12,-35.79 425.04,-42.63 431.07,-46.18"/>
<text text-anchor="middle" x="434.5" y="-57.8" font-family="Times,serif" font-size="14.00">dep</text>
</g>
<!-- 7 -->
<g id="node8" class="node">
<title>7</title>
<ellipse fill="none" stroke="black" cx="530" cy="-18" rx="27" ry="18"/>
<text text-anchor="middle" x="530" y="-14.3" font-family="Times,serif" font-size="14.00">,</text>
</g>
<!-- 0&#45;&gt;7 -->
<g id="edge7" class="edge">
<title>0&#45;&gt;7</title>
<path fill="none" stroke="black" d="M412.77,-92.5C424.28,-85.75 439.03,-77 452,-69 468.89,-58.58 487.62,-46.59 502.49,-36.96"/>
<polygon fill="black" stroke="black" points="504.72,-39.69 511.2,-31.31 500.91,-33.82 504.72,-39.69"/>
<text text-anchor="middle" x="489.5" y="-57.8" font-family="Times,serif" font-size="14.00">dep</text>
</g>
<!-- 8 -->
<g id="node9" class="node">
<title>8</title>
<ellipse fill="none" stroke="black" cx="639" cy="-18" rx="63.89" ry="18"/>
<text text-anchor="middle" x="639" y="-14.3" font-family="Times,serif" font-size="14.00">geralmente</text>
</g>
<!-- 0&#45;&gt;8 -->
<g id="edge8" class="edge">
<title>0&#45;&gt;8</title>
<path fill="none" stroke="black" d="M417.61,-96.94C440.8,-90.17 476.45,-79.47 507,-69 536.29,-58.97 568.83,-46.66 594.27,-36.76"/>
<polygon fill="black" stroke="black" points="595.61,-40 603.65,-33.1 593.06,-33.48 595.61,-40"/>
<text text-anchor="middle" x="561.5" y="-57.8" font-family="Times,serif" font-size="14.00">dep</text>
</g>
<!-- 9 -->
<g id="node10" class="node">
<title>9</title>
<ellipse fill="none" stroke="black" cx="796" cy="-18" rx="75.29" ry="18"/>
<text text-anchor="middle" x="796" y="-14.3" font-family="Times,serif" font-size="14.00">descontraídos</text>
</g>
<!-- 0&#45;&gt;9 -->
<g id="edge9" class="edge">
<title>0&#45;&gt;9</title>
<path fill="none" stroke="black" d="M418.94,-99.46C454.95,-93.08 522.07,-80.91 579,-69 631.84,-57.95 691.59,-44.08 735,-33.75"/>
<polygon fill="black" stroke="black" points="735.92,-37.13 744.83,-31.41 734.29,-30.32 735.92,-37.13"/>
<text text-anchor="middle" x="658.5" y="-57.8" font-family="Times,serif" font-size="14.00">dep</text>
</g>
<!-- 10 -->
<g id="node11" class="node">
<title>10</title>
<ellipse fill="none" stroke="black" cx="916" cy="-18" rx="27" ry="18"/>
<text text-anchor="middle" x="916" y="-14.3" font-family="Times,serif" font-size="14.00">.</text>
</g>
<!-- 0&#45;&gt;10 -->
<g id="edge10" class="edge">
<title>0&#45;&gt;10</title>
<path fill="none" stroke="black" d="M420.06,-103.27C494.91,-100.62 710.4,-88.61 880,-36 881.93,-35.4 883.89,-34.72 885.85,-33.98"/>
<polygon fill="black" stroke="black" points="887.61,-37.03 895.46,-29.91 884.88,-30.58 887.61,-37.03"/>
<text text-anchor="middle" x="816.5" y="-57.8" font-family="Times,serif" font-size="14.00">dep</text>
</g>
</g>
</svg>
