<?xml version="1.0" encoding="UTF-8" standalone="no"?>
<!DOCTYPE svg PUBLIC "-//W3C//DTD SVG 1.1//EN"
 "http://www.w3.org/Graphics/SVG/1.1/DTD/svg11.dtd">
<!-- Generated by graphviz version 2.42.4 (0)
 -->
<!-- Pages: 1 -->
<svg width="2183pt" height="131pt"
 viewBox="0.00 0.00 2182.79 131.00" xmlns="http://www.w3.org/2000/svg" xmlns:xlink="http://www.w3.org/1999/xlink">
<g id="graph0" class="graph" transform="scale(1 1) rotate(0) translate(4 127)">
<polygon fill="white" stroke="transparent" points="-4,4 -4,-127 2178.79,-127 2178.79,4 -4,4"/>
<!-- 0 -->
<g id="node1" class="node">
<title>0</title>
<ellipse fill="none" stroke="black" cx="1011.79" cy="-105" rx="27" ry="18"/>
<text text-anchor="middle" x="1011.79" y="-101.3" font-family="Times,serif" font-size="14.00">4ª</text>
</g>
<!-- 1 -->
<g id="node2" class="node">
<title>1</title>
<ellipse fill="none" stroke="black" cx="59.79" cy="-18" rx="59.59" ry="18"/>
<text text-anchor="middle" x="59.79" y="-14.3" font-family="Times,serif" font-size="14.00">Prioridade</text>
</g>
<!-- 0&#45;&gt;1 -->
<g id="edge1" class="edge">
<title>0&#45;&gt;1</title>
<path fill="none" stroke="black" d="M984.57,-103.63C864.65,-101.88 382.9,-93.43 233.79,-69 189.75,-61.78 141.04,-47.19 106.39,-35.63"/>
<polygon fill="black" stroke="black" points="107.15,-32.19 96.55,-32.3 104.9,-38.82 107.15,-32.19"/>
<text text-anchor="middle" x="247.29" y="-57.8" font-family="Times,serif" font-size="14.00">dep</text>
</g>
<!-- 2 -->
<g id="node3" class="node">
<title>2</title>
<ellipse fill="none" stroke="black" cx="164.79" cy="-18" rx="27" ry="18"/>
<text text-anchor="middle" x="164.79" y="-14.3" font-family="Times,serif" font-size="14.00">&#45;&#45;</text>
</g>
<!-- 0&#45;&gt;2 -->
<g id="edge2" class="edge">
<title>0&#45;&gt;2</title>
<path fill="none" stroke="black" d="M984.77,-103.96C895.58,-103.53 602.59,-99.72 362.79,-69 289.91,-59.66 270.52,-59.19 200.79,-36 198.88,-35.36 196.93,-34.65 194.98,-33.88"/>
<polygon fill="black" stroke="black" points="195.95,-30.49 185.39,-29.76 193.19,-36.92 195.95,-30.49"/>
<text text-anchor="middle" x="376.29" y="-57.8" font-family="Times,serif" font-size="14.00">dep</text>
</g>
<!-- 3 -->
<g id="node4" class="node">
<title>3</title>
<ellipse fill="none" stroke="black" cx="263.79" cy="-18" rx="53.89" ry="18"/>
<text text-anchor="middle" x="263.79" y="-14.3" font-family="Times,serif" font-size="14.00">situações</text>
</g>
<!-- 0&#45;&gt;3 -->
<g id="edge3" class="edge">
<title>0&#45;&gt;3</title>
<path fill="none" stroke="black" d="M984.64,-103.86C904.68,-103.12 663.33,-98.4 465.79,-69 412.31,-61.04 352.33,-45.3 311.72,-33.59"/>
<polygon fill="black" stroke="black" points="312.66,-30.22 302.08,-30.79 310.71,-36.95 312.66,-30.22"/>
<text text-anchor="middle" x="479.29" y="-57.8" font-family="Times,serif" font-size="14.00">dep</text>
</g>
<!-- 4 -->
<g id="node5" class="node">
<title>4</title>
<ellipse fill="none" stroke="black" cx="391.79" cy="-18" rx="56.59" ry="18"/>
<text text-anchor="middle" x="391.79" y="-14.3" font-family="Times,serif" font-size="14.00">deferíveis</text>
</g>
<!-- 0&#45;&gt;4 -->
<g id="edge4" class="edge">
<title>0&#45;&gt;4</title>
<path fill="none" stroke="black" d="M984.8,-103.98C913.85,-103.5 716.53,-99.29 555.79,-69 514.71,-61.26 469.33,-46.96 436.75,-35.63"/>
<polygon fill="black" stroke="black" points="437.66,-32.24 427.06,-32.22 435.33,-38.84 437.66,-32.24"/>
<text text-anchor="middle" x="569.29" y="-57.8" font-family="Times,serif" font-size="14.00">dep</text>
</g>
<!-- 5 -->
<g id="node6" class="node">
<title>5</title>
<ellipse fill="none" stroke="black" cx="493.79" cy="-18" rx="27" ry="18"/>
<text text-anchor="middle" x="493.79" y="-14.3" font-family="Times,serif" font-size="14.00">:</text>
</g>
<!-- 0&#45;&gt;5 -->
<g id="edge5" class="edge">
<title>0&#45;&gt;5</title>
<path fill="none" stroke="black" d="M984.91,-102.62C926.13,-99.31 781.89,-89.64 662.79,-69 602.79,-58.6 587.17,-56.44 529.79,-36 527.89,-35.32 525.95,-34.58 524.01,-33.79"/>
<polygon fill="black" stroke="black" points="525,-30.4 514.44,-29.6 522.2,-36.82 525,-30.4"/>
<text text-anchor="middle" x="676.29" y="-57.8" font-family="Times,serif" font-size="14.00">dep</text>
</g>
<!-- 6 -->
<g id="node7" class="node">
<title>6</title>
<ellipse fill="none" stroke="black" cx="592.79" cy="-18" rx="53.89" ry="18"/>
<text text-anchor="middle" x="592.79" y="-14.3" font-family="Times,serif" font-size="14.00">situações</text>
</g>
<!-- 0&#45;&gt;6 -->
<g id="edge6" class="edge">
<title>0&#45;&gt;6</title>
<path fill="none" stroke="black" d="M984.87,-102.18C936.23,-98.53 830.7,-88.87 743.79,-69 706.79,-60.54 665.99,-46.75 636.14,-35.79"/>
<polygon fill="black" stroke="black" points="637.05,-32.39 626.45,-32.19 634.61,-38.96 637.05,-32.39"/>
<text text-anchor="middle" x="757.29" y="-57.8" font-family="Times,serif" font-size="14.00">dep</text>
</g>
<!-- 7 -->
<g id="node8" class="node">
<title>7</title>
<ellipse fill="none" stroke="black" cx="692.79" cy="-18" rx="27.9" ry="18"/>
<text text-anchor="middle" x="692.79" y="-14.3" font-family="Times,serif" font-size="14.00">que</text>
</g>
<!-- 0&#45;&gt;7 -->
<g id="edge7" class="edge">
<title>0&#45;&gt;7</title>
<path fill="none" stroke="black" d="M985.39,-100.65C948.08,-95.58 877.99,-84.85 819.79,-69 778.69,-57.81 769.18,-52.24 729.79,-36 727.93,-35.23 726.03,-34.42 724.11,-33.6"/>
<polygon fill="black" stroke="black" points="725.14,-30.22 714.58,-29.36 722.3,-36.62 725.14,-30.22"/>
<text text-anchor="middle" x="833.29" y="-57.8" font-family="Times,serif" font-size="14.00">dep</text>
</g>
<!-- 8 -->
<g id="node9" class="node">
<title>8</title>
<ellipse fill="none" stroke="black" cx="780.79" cy="-18" rx="42.49" ry="18"/>
<text text-anchor="middle" x="780.79" y="-14.3" font-family="Times,serif" font-size="14.00">podem</text>
</g>
<!-- 0&#45;&gt;8 -->
<g id="edge8" class="edge">
<title>0&#45;&gt;8</title>
<path fill="none" stroke="black" d="M986.28,-98.29C960.53,-92.21 919.82,-81.72 885.79,-69 861.63,-59.97 835.43,-47.5 815.25,-37.27"/>
<polygon fill="black" stroke="black" points="816.64,-34.05 806.14,-32.6 813.45,-40.28 816.64,-34.05"/>
<text text-anchor="middle" x="899.29" y="-57.8" font-family="Times,serif" font-size="14.00">dep</text>
</g>
<!-- 9 -->
<g id="node10" class="node">
<title>9</title>
<ellipse fill="none" stroke="black" cx="867.79" cy="-18" rx="27" ry="18"/>
<text text-anchor="middle" x="867.79" y="-14.3" font-family="Times,serif" font-size="14.00">ou</text>
</g>
<!-- 0&#45;&gt;9 -->
<g id="edge9" class="edge">
<title>0&#45;&gt;9</title>
<path fill="none" stroke="black" d="M989.57,-94.73C974.6,-88.19 954.58,-78.86 937.79,-69 922.16,-59.82 905.61,-48.1 892.53,-38.32"/>
<polygon fill="black" stroke="black" points="894.56,-35.47 884.48,-32.21 890.34,-41.04 894.56,-35.47"/>
<text text-anchor="middle" x="951.29" y="-57.8" font-family="Times,serif" font-size="14.00">dep</text>
</g>
<!-- 10 -->
<g id="node11" class="node">
<title>10</title>
<ellipse fill="none" stroke="black" cx="939.79" cy="-18" rx="27.1" ry="18"/>
<text text-anchor="middle" x="939.79" y="-14.3" font-family="Times,serif" font-size="14.00">não</text>
</g>
<!-- 0&#45;&gt;10 -->
<g id="edge10" class="edge">
<title>0&#45;&gt;10</title>
<path fill="none" stroke="black" d="M998.39,-89.12C992.89,-82.94 986.48,-75.67 980.79,-69 973.48,-60.41 965.59,-50.86 958.7,-42.43"/>
<polygon fill="black" stroke="black" points="961.23,-39.99 952.21,-34.44 955.8,-44.41 961.23,-39.99"/>
<text text-anchor="middle" x="994.29" y="-57.8" font-family="Times,serif" font-size="14.00">dep</text>
</g>
<!-- 11 -->
<g id="node12" class="node">
<title>11</title>
<ellipse fill="none" stroke="black" cx="1011.79" cy="-18" rx="27" ry="18"/>
<text text-anchor="middle" x="1011.79" y="-14.3" font-family="Times,serif" font-size="14.00">ser</text>
</g>
<!-- 0&#45;&gt;11 -->
<g id="edge11" class="edge">
<title>0&#45;&gt;11</title>
<path fill="none" stroke="black" d="M1011.79,-86.8C1011.79,-75.16 1011.79,-59.55 1011.79,-46.24"/>
<polygon fill="black" stroke="black" points="1015.29,-46.18 1011.79,-36.18 1008.29,-46.18 1015.29,-46.18"/>
<text text-anchor="middle" x="1025.29" y="-57.8" font-family="Times,serif" font-size="14.00">dep</text>
</g>
<!-- 12 -->
<g id="node13" class="node">
<title>12</title>
<ellipse fill="none" stroke="black" cx="1137.79" cy="-18" rx="80.69" ry="18"/>
<text text-anchor="middle" x="1137.79" y="-14.3" font-family="Times,serif" font-size="14.00">imediatamente</text>
</g>
<!-- 0&#45;&gt;12 -->
<g id="edge12" class="edge">
<title>0&#45;&gt;12</title>
<path fill="none" stroke="black" d="M1030.12,-91.64C1049.69,-78.44 1081.12,-57.23 1104.98,-41.14"/>
<polygon fill="black" stroke="black" points="1107.06,-43.95 1113.39,-35.46 1103.15,-38.15 1107.06,-43.95"/>
<text text-anchor="middle" x="1096.29" y="-57.8" font-family="Times,serif" font-size="14.00">dep</text>
</g>
<!-- 13 -->
<g id="node14" class="node">
<title>13</title>
<ellipse fill="none" stroke="black" cx="1291.79" cy="-18" rx="55.79" ry="18"/>
<text text-anchor="middle" x="1291.79" y="-14.3" font-family="Times,serif" font-size="14.00">evidentes</text>
</g>
<!-- 0&#45;&gt;13 -->
<g id="edge13" class="edge">
<title>0&#45;&gt;13</title>
<path fill="none" stroke="black" d="M1036.15,-96.61C1082.16,-82.64 1182.61,-52.15 1242.99,-33.82"/>
<polygon fill="black" stroke="black" points="1244.13,-37.13 1252.69,-30.87 1242.1,-30.43 1244.13,-37.13"/>
<text text-anchor="middle" x="1182.29" y="-57.8" font-family="Times,serif" font-size="14.00">dep</text>
</g>
<!-- 14 -->
<g id="node15" class="node">
<title>14</title>
<ellipse fill="none" stroke="black" cx="1392.79" cy="-18" rx="27" ry="18"/>
<text text-anchor="middle" x="1392.79" y="-14.3" font-family="Times,serif" font-size="14.00">,</text>
</g>
<!-- 0&#45;&gt;14 -->
<g id="edge14" class="edge">
<title>0&#45;&gt;14</title>
<path fill="none" stroke="black" d="M1038.36,-101.14C1097.04,-94.32 1241.64,-74.7 1356.79,-36 1358.71,-35.36 1360.66,-34.64 1362.61,-33.87"/>
<polygon fill="black" stroke="black" points="1364.4,-36.91 1372.2,-29.74 1361.63,-30.48 1364.4,-36.91"/>
<text text-anchor="middle" x="1306.29" y="-57.8" font-family="Times,serif" font-size="14.00">dep</text>
</g>
<!-- 15 -->
<g id="node16" class="node">
<title>15</title>
<ellipse fill="none" stroke="black" cx="1467.79" cy="-18" rx="29.8" ry="18"/>
<text text-anchor="middle" x="1467.79" y="-14.3" font-family="Times,serif" font-size="14.00">mas</text>
</g>
<!-- 0&#45;&gt;15 -->
<g id="edge15" class="edge">
<title>0&#45;&gt;15</title>
<path fill="none" stroke="black" d="M1038.78,-102.73C1093.21,-99.77 1219.8,-90.96 1323.79,-69 1371.66,-58.89 1382.98,-53.13 1428.79,-36 1430.87,-35.22 1433,-34.39 1435.14,-33.53"/>
<polygon fill="black" stroke="black" points="1436.56,-36.73 1444.45,-29.66 1433.87,-30.27 1436.56,-36.73"/>
<text text-anchor="middle" x="1393.29" y="-57.8" font-family="Times,serif" font-size="14.00">dep</text>
</g>
<!-- 16 -->
<g id="node17" class="node">
<title>16</title>
<ellipse fill="none" stroke="black" cx="1543.79" cy="-18" rx="27.9" ry="18"/>
<text text-anchor="middle" x="1543.79" y="-14.3" font-family="Times,serif" font-size="14.00">que</text>
</g>
<!-- 0&#45;&gt;16 -->
<g id="edge16" class="edge">
<title>0&#45;&gt;16</title>
<path fill="none" stroke="black" d="M1039.22,-103.88C1104.4,-103.1 1273.4,-98.18 1410.79,-69 1446.9,-61.33 1486.23,-45.55 1512.69,-33.75"/>
<polygon fill="black" stroke="black" points="1514.16,-36.93 1521.82,-29.61 1511.27,-30.55 1514.16,-36.93"/>
<text text-anchor="middle" x="1473.29" y="-57.8" font-family="Times,serif" font-size="14.00">dep</text>
</g>
<!-- 17 -->
<g id="node18" class="node">
<title>17</title>
<ellipse fill="none" stroke="black" cx="1658.79" cy="-18" rx="69.59" ry="18"/>
<text text-anchor="middle" x="1658.79" y="-14.3" font-family="Times,serif" font-size="14.00">necessitarão</text>
</g>
<!-- 0&#45;&gt;17 -->
<g id="edge17" class="edge">
<title>0&#45;&gt;17</title>
<path fill="none" stroke="black" d="M1038.8,-104.06C1112.12,-103.79 1320.81,-100.13 1490.79,-69 1532.07,-61.44 1577.62,-47.52 1610.87,-36.28"/>
<polygon fill="black" stroke="black" points="1612.01,-39.59 1620.34,-33.04 1609.74,-32.97 1612.01,-39.59"/>
<text text-anchor="middle" x="1565.29" y="-57.8" font-family="Times,serif" font-size="14.00">dep</text>
</g>
<!-- 18 -->
<g id="node19" class="node">
<title>18</title>
<ellipse fill="none" stroke="black" cx="1773.79" cy="-18" rx="27" ry="18"/>
<text text-anchor="middle" x="1773.79" y="-14.3" font-family="Times,serif" font-size="14.00">de</text>
</g>
<!-- 0&#45;&gt;18 -->
<g id="edge18" class="edge">
<title>0&#45;&gt;18</title>
<path fill="none" stroke="black" d="M1038.98,-103.76C1121.29,-102.74 1374.91,-97.34 1582.79,-69 1652.58,-59.49 1671.06,-58.52 1737.79,-36 1739.71,-35.35 1741.66,-34.63 1743.61,-33.86"/>
<polygon fill="black" stroke="black" points="1745.4,-36.9 1753.19,-29.73 1742.62,-30.47 1745.4,-36.9"/>
<text text-anchor="middle" x="1688.29" y="-57.8" font-family="Times,serif" font-size="14.00">dep</text>
</g>
<!-- 19 -->
<g id="node20" class="node">
<title>19</title>
<ellipse fill="none" stroke="black" cx="1881.79" cy="-18" rx="63.09" ry="18"/>
<text text-anchor="middle" x="1881.79" y="-14.3" font-family="Times,serif" font-size="14.00">tratamento</text>
</g>
<!-- 0&#45;&gt;19 -->
<g id="edge19" class="edge">
<title>0&#45;&gt;19</title>
<path fill="none" stroke="black" d="M1039.03,-103.45C1150.71,-101.07 1573.97,-90.76 1705.79,-69 1750.2,-61.67 1799.36,-47.14 1834.41,-35.62"/>
<polygon fill="black" stroke="black" points="1835.53,-38.94 1843.91,-32.46 1833.32,-32.3 1835.53,-38.94"/>
<text text-anchor="middle" x="1783.29" y="-57.8" font-family="Times,serif" font-size="14.00">dep</text>
</g>
<!-- 20 -->
<g id="node21" class="node">
<title>20</title>
<ellipse fill="none" stroke="black" cx="2032.79" cy="-18" rx="69.59" ry="18"/>
<text text-anchor="middle" x="2032.79" y="-14.3" font-family="Times,serif" font-size="14.00">subsequente</text>
</g>
<!-- 0&#45;&gt;20 -->
<g id="edge20" class="edge">
<title>0&#45;&gt;20</title>
<path fill="none" stroke="black" d="M1038.84,-104.44C1139.8,-105.73 1504,-107.29 1800.79,-69 1861.33,-61.19 1929.48,-45.68 1976.18,-33.99"/>
<polygon fill="black" stroke="black" points="1977.26,-37.33 1986.1,-31.49 1975.54,-30.54 1977.26,-37.33"/>
<text text-anchor="middle" x="1898.29" y="-57.8" font-family="Times,serif" font-size="14.00">dep</text>
</g>
<!-- 21 -->
<g id="node22" class="node">
<title>21</title>
<ellipse fill="none" stroke="black" cx="2147.79" cy="-18" rx="27" ry="18"/>
<text text-anchor="middle" x="2147.79" y="-14.3" font-family="Times,serif" font-size="14.00">.</text>
</g>
<!-- 0&#45;&gt;21 -->
<g id="edge21" class="edge">
<title>0&#45;&gt;21</title>
<path fill="none" stroke="black" d="M1038.88,-104.21C1148.63,-104.82 1570.91,-104.56 1915.79,-69 2003.67,-59.94 2027.51,-62.44 2111.79,-36 2113.72,-35.39 2115.68,-34.71 2117.64,-33.96"/>
<polygon fill="black" stroke="black" points="2119.4,-37.01 2127.25,-29.89 2116.67,-30.57 2119.4,-37.01"/>
<text text-anchor="middle" x="2056.29" y="-57.8" font-family="Times,serif" font-size="14.00">dep</text>
</g>
</g>
</svg>
