<?xml version="1.0" encoding="UTF-8" standalone="no"?>
<!DOCTYPE svg PUBLIC "-//W3C//DTD SVG 1.1//EN"
 "http://www.w3.org/Graphics/SVG/1.1/DTD/svg11.dtd">
<!-- Generated by graphviz version 2.42.4 (0)
 -->
<!-- Pages: 1 -->
<svg width="2040pt" height="131pt"
 viewBox="0.00 0.00 2040.00 131.00" xmlns="http://www.w3.org/2000/svg" xmlns:xlink="http://www.w3.org/1999/xlink">
<g id="graph0" class="graph" transform="scale(1 1) rotate(0) translate(4 127)">
<polygon fill="white" stroke="transparent" points="-4,4 -4,-127 2036,-127 2036,4 -4,4"/>
<!-- 0 -->
<g id="node1" class="node">
<title>0</title>
<ellipse fill="none" stroke="black" cx="1038" cy="-105" rx="27" ry="18"/>
<text text-anchor="middle" x="1038" y="-101.3" font-family="Times,serif" font-size="14.00">Em</text>
</g>
<!-- 1 -->
<g id="node2" class="node">
<title>1</title>
<ellipse fill="none" stroke="black" cx="27" cy="-18" rx="27" ry="18"/>
<text text-anchor="middle" x="27" y="-14.3" font-family="Times,serif" font-size="14.00">os</text>
</g>
<!-- 0&#45;&gt;1 -->
<g id="edge1" class="edge">
<title>0&#45;&gt;1</title>
<path fill="none" stroke="black" d="M1010.98,-103.76C883.91,-102.49 344.98,-95.61 179,-69 126.07,-60.52 113.18,-54.84 63,-36 61.16,-35.31 59.28,-34.56 57.39,-33.77"/>
<polygon fill="black" stroke="black" points="58.63,-30.5 48.07,-29.66 55.8,-36.9 58.63,-30.5"/>
<text text-anchor="middle" x="192.5" y="-57.8" font-family="Times,serif" font-size="14.00">dep</text>
</g>
<!-- 2 -->
<g id="node3" class="node">
<title>2</title>
<ellipse fill="none" stroke="black" cx="117" cy="-18" rx="45.49" ry="18"/>
<text text-anchor="middle" x="117" y="-14.3" font-family="Times,serif" font-size="14.00">últimos</text>
</g>
<!-- 0&#45;&gt;2 -->
<g id="edge2" class="edge">
<title>0&#45;&gt;2</title>
<path fill="none" stroke="black" d="M1010.81,-103.82C891.06,-102.85 410.03,-97.25 262,-69 224.87,-61.91 184.33,-47.31 155.59,-35.71"/>
<polygon fill="black" stroke="black" points="156.89,-32.46 146.31,-31.9 154.23,-38.94 156.89,-32.46"/>
<text text-anchor="middle" x="275.5" y="-57.8" font-family="Times,serif" font-size="14.00">dep</text>
</g>
<!-- 3 -->
<g id="node4" class="node">
<title>3</title>
<ellipse fill="none" stroke="black" cx="213" cy="-18" rx="32.49" ry="18"/>
<text text-anchor="middle" x="213" y="-14.3" font-family="Times,serif" font-size="14.00">anos</text>
</g>
<!-- 0&#45;&gt;3 -->
<g id="edge3" class="edge">
<title>0&#45;&gt;3</title>
<path fill="none" stroke="black" d="M1010.76,-103.7C899.05,-102.32 475.78,-95.4 345,-69 310.07,-61.95 272.23,-46.77 246.06,-34.98"/>
<polygon fill="black" stroke="black" points="247.18,-31.64 236.63,-30.65 244.25,-38 247.18,-31.64"/>
<text text-anchor="middle" x="358.5" y="-57.8" font-family="Times,serif" font-size="14.00">dep</text>
</g>
<!-- 4 -->
<g id="node5" class="node">
<title>4</title>
<ellipse fill="none" stroke="black" cx="290" cy="-18" rx="27" ry="18"/>
<text text-anchor="middle" x="290" y="-14.3" font-family="Times,serif" font-size="14.00">,</text>
</g>
<!-- 0&#45;&gt;4 -->
<g id="edge4" class="edge">
<title>0&#45;&gt;4</title>
<path fill="none" stroke="black" d="M1011.12,-103.24C909.85,-100.23 551.4,-88.44 439,-69 387.45,-60.08 374.92,-54.56 326,-36 324.16,-35.3 322.28,-34.55 320.4,-33.76"/>
<polygon fill="black" stroke="black" points="321.64,-30.48 311.08,-29.63 318.81,-36.88 321.64,-30.48"/>
<text text-anchor="middle" x="452.5" y="-57.8" font-family="Times,serif" font-size="14.00">dep</text>
</g>
<!-- 5 -->
<g id="node6" class="node">
<title>5</title>
<ellipse fill="none" stroke="black" cx="381" cy="-18" rx="46.29" ry="18"/>
<text text-anchor="middle" x="381" y="-14.3" font-family="Times,serif" font-size="14.00">assistiu</text>
</g>
<!-- 0&#45;&gt;5 -->
<g id="edge5" class="edge">
<title>0&#45;&gt;5</title>
<path fill="none" stroke="black" d="M1011.04,-103.15C918.78,-100.11 616.12,-88.81 521,-69 485.63,-61.63 447.08,-47.37 419.4,-35.96"/>
<polygon fill="black" stroke="black" points="420.66,-32.69 410.09,-32.06 417.96,-39.15 420.66,-32.69"/>
<text text-anchor="middle" x="534.5" y="-57.8" font-family="Times,serif" font-size="14.00">dep</text>
</g>
<!-- 6 -->
<g id="node7" class="node">
<title>6</title>
<ellipse fill="none" stroke="black" cx="472" cy="-18" rx="27" ry="18"/>
<text text-anchor="middle" x="472" y="-14.3" font-family="Times,serif" font-size="14.00">se</text>
</g>
<!-- 0&#45;&gt;6 -->
<g id="edge6" class="edge">
<title>0&#45;&gt;6</title>
<path fill="none" stroke="black" d="M1010.77,-104.42C941.05,-104.96 750.75,-102.92 597,-69 563.35,-61.58 527,-46.12 502.22,-34.35"/>
<polygon fill="black" stroke="black" points="503.52,-31.09 493,-29.88 500.47,-37.39 503.52,-31.09"/>
<text text-anchor="middle" x="610.5" y="-57.8" font-family="Times,serif" font-size="14.00">dep</text>
</g>
<!-- 7 -->
<g id="node8" class="node">
<title>7</title>
<ellipse fill="none" stroke="black" cx="544" cy="-18" rx="27" ry="18"/>
<text text-anchor="middle" x="544" y="-14.3" font-family="Times,serif" font-size="14.00">a</text>
</g>
<!-- 0&#45;&gt;7 -->
<g id="edge7" class="edge">
<title>0&#45;&gt;7</title>
<path fill="none" stroke="black" d="M1010.99,-103.28C951.25,-101.28 803.68,-93.99 683,-69 635.93,-59.25 624.72,-53.63 580,-36 578.17,-35.28 576.3,-34.5 574.42,-33.7"/>
<polygon fill="black" stroke="black" points="575.67,-30.43 565.12,-29.54 572.81,-36.82 575.67,-30.43"/>
<text text-anchor="middle" x="696.5" y="-57.8" font-family="Times,serif" font-size="14.00">dep</text>
</g>
<!-- 8 -->
<g id="node9" class="node">
<title>8</title>
<ellipse fill="none" stroke="black" cx="616" cy="-18" rx="27" ry="18"/>
<text text-anchor="middle" x="616" y="-14.3" font-family="Times,serif" font-size="14.00">um</text>
</g>
<!-- 0&#45;&gt;8 -->
<g id="edge8" class="edge">
<title>0&#45;&gt;8</title>
<path fill="none" stroke="black" d="M1011.02,-102.33C946.99,-97.7 781.56,-81.9 652,-36 650.09,-35.32 648.15,-34.58 646.21,-33.8"/>
<polygon fill="black" stroke="black" points="647.2,-30.41 636.64,-29.62 644.4,-36.83 647.2,-30.41"/>
<text text-anchor="middle" x="779.5" y="-57.8" font-family="Times,serif" font-size="14.00">dep</text>
</g>
<!-- 9 -->
<g id="node10" class="node">
<title>9</title>
<ellipse fill="none" stroke="black" cx="717" cy="-18" rx="55.79" ry="18"/>
<text text-anchor="middle" x="717" y="-14.3" font-family="Times,serif" font-size="14.00">fenómeno</text>
</g>
<!-- 0&#45;&gt;9 -->
<g id="edge9" class="edge">
<title>0&#45;&gt;9</title>
<path fill="none" stroke="black" d="M1012.15,-99.65C978.64,-93.78 918.5,-82.51 868,-69 831.93,-59.35 791.84,-45.95 762.03,-35.44"/>
<polygon fill="black" stroke="black" points="762.94,-32.05 752.34,-32 760.59,-38.65 762.94,-32.05"/>
<text text-anchor="middle" x="881.5" y="-57.8" font-family="Times,serif" font-size="14.00">dep</text>
</g>
<!-- 10 -->
<g id="node11" class="node">
<title>10</title>
<ellipse fill="none" stroke="black" cx="818" cy="-18" rx="27" ry="18"/>
<text text-anchor="middle" x="818" y="-14.3" font-family="Times,serif" font-size="14.00">de</text>
</g>
<!-- 0&#45;&gt;10 -->
<g id="edge10" class="edge">
<title>0&#45;&gt;10</title>
<path fill="none" stroke="black" d="M1014.51,-96.06C979.28,-83.98 910.83,-59.87 854,-36 852.18,-35.24 850.33,-34.43 848.46,-33.61"/>
<polygon fill="black" stroke="black" points="849.73,-30.34 839.18,-29.38 846.83,-36.71 849.73,-30.34"/>
<text text-anchor="middle" x="948.5" y="-57.8" font-family="Times,serif" font-size="14.00">dep</text>
</g>
<!-- 11 -->
<g id="node12" class="node">
<title>11</title>
<ellipse fill="none" stroke="black" cx="928" cy="-18" rx="64.99" ry="18"/>
<text text-anchor="middle" x="928" y="-14.3" font-family="Times,serif" font-size="14.00">deformação</text>
</g>
<!-- 0&#45;&gt;11 -->
<g id="edge11" class="edge">
<title>0&#45;&gt;11</title>
<path fill="none" stroke="black" d="M1020.81,-90.72C1003.71,-77.5 977.16,-56.99 956.83,-41.28"/>
<polygon fill="black" stroke="black" points="958.87,-38.43 948.82,-35.09 954.59,-43.97 958.87,-38.43"/>
<text text-anchor="middle" x="1003.5" y="-57.8" font-family="Times,serif" font-size="14.00">dep</text>
</g>
<!-- 12 -->
<g id="node13" class="node">
<title>12</title>
<ellipse fill="none" stroke="black" cx="1038" cy="-18" rx="27" ry="18"/>
<text text-anchor="middle" x="1038" y="-14.3" font-family="Times,serif" font-size="14.00">de</text>
</g>
<!-- 0&#45;&gt;12 -->
<g id="edge12" class="edge">
<title>0&#45;&gt;12</title>
<path fill="none" stroke="black" d="M1038,-86.8C1038,-75.16 1038,-59.55 1038,-46.24"/>
<polygon fill="black" stroke="black" points="1041.5,-46.18 1038,-36.18 1034.5,-46.18 1041.5,-46.18"/>
<text text-anchor="middle" x="1051.5" y="-57.8" font-family="Times,serif" font-size="14.00">dep</text>
</g>
<!-- 13 -->
<g id="node14" class="node">
<title>13</title>
<ellipse fill="none" stroke="black" cx="1110" cy="-18" rx="27" ry="18"/>
<text text-anchor="middle" x="1110" y="-14.3" font-family="Times,serif" font-size="14.00">o</text>
</g>
<!-- 0&#45;&gt;13 -->
<g id="edge13" class="edge">
<title>0&#45;&gt;13</title>
<path fill="none" stroke="black" d="M1051.4,-89.12C1056.91,-82.94 1063.31,-75.67 1069,-69 1076.32,-60.41 1084.21,-50.86 1091.1,-42.43"/>
<polygon fill="black" stroke="black" points="1094,-44.41 1097.59,-34.44 1088.56,-39.99 1094,-44.41"/>
<text text-anchor="middle" x="1095.5" y="-57.8" font-family="Times,serif" font-size="14.00">dep</text>
</g>
<!-- 14 -->
<g id="node15" class="node">
<title>14</title>
<ellipse fill="none" stroke="black" cx="1196" cy="-18" rx="40.89" ry="18"/>
<text text-anchor="middle" x="1196" y="-14.3" font-family="Times,serif" font-size="14.00">ensino</text>
</g>
<!-- 0&#45;&gt;14 -->
<g id="edge14" class="edge">
<title>0&#45;&gt;14</title>
<path fill="none" stroke="black" d="M1059.96,-94.49C1075.07,-87.76 1095.5,-78.32 1113,-69 1130.62,-59.61 1149.75,-48.18 1165.19,-38.62"/>
<polygon fill="black" stroke="black" points="1167.19,-41.5 1173.82,-33.23 1163.49,-35.56 1167.19,-41.5"/>
<text text-anchor="middle" x="1152.5" y="-57.8" font-family="Times,serif" font-size="14.00">dep</text>
</g>
<!-- 15 -->
<g id="node16" class="node">
<title>15</title>
<ellipse fill="none" stroke="black" cx="1305" cy="-18" rx="50.09" ry="18"/>
<text text-anchor="middle" x="1305" y="-14.3" font-family="Times,serif" font-size="14.00">superior</text>
</g>
<!-- 0&#45;&gt;15 -->
<g id="edge15" class="edge">
<title>0&#45;&gt;15</title>
<path fill="none" stroke="black" d="M1063.02,-98.12C1089.72,-91.67 1133.16,-80.68 1170,-69 1201.72,-58.94 1236.97,-45.82 1263.49,-35.55"/>
<polygon fill="black" stroke="black" points="1264.8,-38.79 1272.84,-31.9 1262.25,-32.27 1264.8,-38.79"/>
<text text-anchor="middle" x="1225.5" y="-57.8" font-family="Times,serif" font-size="14.00">dep</text>
</g>
<!-- 16 -->
<g id="node17" class="node">
<title>16</title>
<ellipse fill="none" stroke="black" cx="1401" cy="-18" rx="27.9" ry="18"/>
<text text-anchor="middle" x="1401" y="-14.3" font-family="Times,serif" font-size="14.00">que</text>
</g>
<!-- 0&#45;&gt;16 -->
<g id="edge16" class="edge">
<title>0&#45;&gt;16</title>
<path fill="none" stroke="black" d="M1064.48,-101.08C1120.92,-94.29 1256.68,-74.99 1364,-36 1365.89,-35.31 1367.82,-34.57 1369.76,-33.78"/>
<polygon fill="black" stroke="black" points="1371.53,-36.83 1379.34,-29.67 1368.77,-30.4 1371.53,-36.83"/>
<text text-anchor="middle" x="1317.5" y="-57.8" font-family="Times,serif" font-size="14.00">dep</text>
</g>
<!-- 17 -->
<g id="node18" class="node">
<title>17</title>
<ellipse fill="none" stroke="black" cx="1487" cy="-18" rx="40.09" ry="18"/>
<text text-anchor="middle" x="1487" y="-14.3" font-family="Times,serif" font-size="14.00">atinge</text>
</g>
<!-- 0&#45;&gt;17 -->
<g id="edge17" class="edge">
<title>0&#45;&gt;17</title>
<path fill="none" stroke="black" d="M1064.91,-102.57C1117.38,-99.4 1236.82,-90.3 1335,-69 1374.44,-60.44 1418.07,-45.49 1448.43,-34.17"/>
<polygon fill="black" stroke="black" points="1449.68,-37.44 1457.8,-30.63 1447.21,-30.89 1449.68,-37.44"/>
<text text-anchor="middle" x="1404.5" y="-57.8" font-family="Times,serif" font-size="14.00">dep</text>
</g>
<!-- 18 -->
<g id="node19" class="node">
<title>18</title>
<ellipse fill="none" stroke="black" cx="1572" cy="-18" rx="27" ry="18"/>
<text text-anchor="middle" x="1572" y="-14.3" font-family="Times,serif" font-size="14.00">em</text>
</g>
<!-- 0&#45;&gt;18 -->
<g id="edge18" class="edge">
<title>0&#45;&gt;18</title>
<path fill="none" stroke="black" d="M1065.25,-103.3C1128.46,-101.29 1289.77,-93.93 1422,-69 1473.83,-59.23 1486.66,-54.65 1536,-36 1537.84,-35.3 1539.72,-34.55 1541.6,-33.76"/>
<polygon fill="black" stroke="black" points="1543.19,-36.89 1550.92,-29.64 1540.36,-30.49 1543.19,-36.89"/>
<text text-anchor="middle" x="1499.5" y="-57.8" font-family="Times,serif" font-size="14.00">dep</text>
</g>
<!-- 19 -->
<g id="node20" class="node">
<title>19</title>
<ellipse fill="none" stroke="black" cx="1648" cy="-18" rx="30.59" ry="18"/>
<text text-anchor="middle" x="1648" y="-14.3" font-family="Times,serif" font-size="14.00">este</text>
</g>
<!-- 0&#45;&gt;19 -->
<g id="edge19" class="edge">
<title>0&#45;&gt;19</title>
<path fill="none" stroke="black" d="M1065.11,-104.6C1138.7,-105.69 1348,-105.09 1517,-69 1551.83,-61.56 1589.64,-46.29 1615.64,-34.58"/>
<polygon fill="black" stroke="black" points="1617.37,-37.63 1625,-30.28 1614.45,-31.27 1617.37,-37.63"/>
<text text-anchor="middle" x="1578.5" y="-57.8" font-family="Times,serif" font-size="14.00">dep</text>
</g>
<!-- 20 -->
<g id="node21" class="node">
<title>20</title>
<ellipse fill="none" stroke="black" cx="1750" cy="-18" rx="53.89" ry="18"/>
<text text-anchor="middle" x="1750" y="-14.3" font-family="Times,serif" font-size="14.00">momento</text>
</g>
<!-- 0&#45;&gt;20 -->
<g id="edge20" class="edge">
<title>0&#45;&gt;20</title>
<path fill="none" stroke="black" d="M1065.03,-103.2C1162.03,-100.21 1492.31,-88.76 1596,-69 1634.62,-61.64 1677.01,-47.4 1707.52,-35.99"/>
<polygon fill="black" stroke="black" points="1708.88,-39.22 1716.99,-32.4 1706.4,-32.67 1708.88,-39.22"/>
<text text-anchor="middle" x="1666.5" y="-57.8" font-family="Times,serif" font-size="14.00">dep</text>
</g>
<!-- 21 -->
<g id="node22" class="node">
<title>21</title>
<ellipse fill="none" stroke="black" cx="1849" cy="-18" rx="27" ry="18"/>
<text text-anchor="middle" x="1849" y="-14.3" font-family="Times,serif" font-size="14.00">o</text>
</g>
<!-- 0&#45;&gt;21 -->
<g id="edge21" class="edge">
<title>0&#45;&gt;21</title>
<path fill="none" stroke="black" d="M1065.27,-104.43C1154.63,-105.42 1446.42,-105.46 1684,-69 1742.49,-60.02 1757.32,-56.06 1813,-36 1814.85,-35.33 1816.74,-34.6 1818.63,-33.83"/>
<polygon fill="black" stroke="black" points="1820.2,-36.97 1827.96,-29.75 1817.4,-30.55 1820.2,-36.97"/>
<text text-anchor="middle" x="1772.5" y="-57.8" font-family="Times,serif" font-size="14.00">dep</text>
</g>
<!-- 22 -->
<g id="node23" class="node">
<title>22</title>
<ellipse fill="none" stroke="black" cx="1927" cy="-18" rx="33.29" ry="18"/>
<text text-anchor="middle" x="1927" y="-14.3" font-family="Times,serif" font-size="14.00">auge</text>
</g>
<!-- 0&#45;&gt;22 -->
<g id="edge22" class="edge">
<title>0&#45;&gt;22</title>
<path fill="none" stroke="black" d="M1065.13,-103.78C1182.49,-102.67 1646.91,-96.58 1790,-69 1826.53,-61.96 1866.27,-46.52 1893.49,-34.65"/>
<polygon fill="black" stroke="black" points="1895.21,-37.72 1902.92,-30.46 1892.36,-31.33 1895.21,-37.72"/>
<text text-anchor="middle" x="1857.5" y="-57.8" font-family="Times,serif" font-size="14.00">dep</text>
</g>
<!-- 23 -->
<g id="node24" class="node">
<title>23</title>
<ellipse fill="none" stroke="black" cx="2005" cy="-18" rx="27" ry="18"/>
<text text-anchor="middle" x="2005" y="-14.3" font-family="Times,serif" font-size="14.00">:</text>
</g>
<!-- 0&#45;&gt;23 -->
<g id="edge23" class="edge">
<title>0&#45;&gt;23</title>
<path fill="none" stroke="black" d="M1065.2,-103.94C1190.69,-103.5 1714.49,-99.82 1875,-69 1910.59,-62.17 1949.06,-46.2 1974.84,-34.14"/>
<polygon fill="black" stroke="black" points="1976.55,-37.2 1984.07,-29.73 1973.54,-30.88 1976.55,-37.2"/>
<text text-anchor="middle" x="1940.5" y="-57.8" font-family="Times,serif" font-size="14.00">dep</text>
</g>
</g>
</svg>
