<?xml version="1.0" encoding="UTF-8" standalone="no"?>
<!DOCTYPE svg PUBLIC "-//W3C//DTD SVG 1.1//EN"
 "http://www.w3.org/Graphics/SVG/1.1/DTD/svg11.dtd">
<!-- Generated by graphviz version 2.42.4 (0)
 -->
<!-- Pages: 1 -->
<svg width="691pt" height="131pt"
 viewBox="0.00 0.00 691.30 131.00" xmlns="http://www.w3.org/2000/svg" xmlns:xlink="http://www.w3.org/1999/xlink">
<g id="graph0" class="graph" transform="scale(1 1) rotate(0) translate(4 127)">
<polygon fill="white" stroke="transparent" points="-4,4 -4,-127 687.3,-127 687.3,4 -4,4"/>
<!-- 0 -->
<g id="node1" class="node">
<title>0</title>
<ellipse fill="none" stroke="black" cx="357.3" cy="-105" rx="27" ry="18"/>
<text text-anchor="middle" x="357.3" y="-101.3" font-family="Times,serif" font-size="14.00">A</text>
</g>
<!-- 1 -->
<g id="node2" class="node">
<title>1</title>
<ellipse fill="none" stroke="black" cx="40.3" cy="-18" rx="40.09" ry="18"/>
<text text-anchor="middle" x="40.3" y="-14.3" font-family="Times,serif" font-size="14.00">região</text>
</g>
<!-- 0&#45;&gt;1 -->
<g id="edge1" class="edge">
<title>0&#45;&gt;1</title>
<path fill="none" stroke="black" d="M331.21,-100.31C295.76,-94.99 230.56,-84.12 176.3,-69 142.41,-59.56 104.97,-45.52 77.96,-34.71"/>
<polygon fill="black" stroke="black" points="79.1,-31.4 68.51,-30.89 76.47,-37.89 79.1,-31.4"/>
<text text-anchor="middle" x="189.8" y="-57.8" font-family="Times,serif" font-size="14.00">dep</text>
</g>
<!-- 2 -->
<g id="node3" class="node">
<title>2</title>
<ellipse fill="none" stroke="black" cx="128.3" cy="-18" rx="29.8" ry="18"/>
<text text-anchor="middle" x="128.3" y="-14.3" font-family="Times,serif" font-size="14.00">vive</text>
</g>
<!-- 0&#45;&gt;2 -->
<g id="edge2" class="edge">
<title>0&#45;&gt;2</title>
<path fill="none" stroke="black" d="M332.8,-97.42C309.33,-90.91 273.05,-80.31 242.3,-69 207.74,-56.28 199.99,-50.85 166.3,-36 164.51,-35.21 162.68,-34.4 160.83,-33.58"/>
<polygon fill="black" stroke="black" points="162.15,-30.34 151.59,-29.47 159.3,-36.73 162.15,-30.34"/>
<text text-anchor="middle" x="255.8" y="-57.8" font-family="Times,serif" font-size="14.00">dep</text>
</g>
<!-- 3 -->
<g id="node4" class="node">
<title>3</title>
<ellipse fill="none" stroke="black" cx="206.3" cy="-18" rx="30.59" ry="18"/>
<text text-anchor="middle" x="206.3" y="-14.3" font-family="Times,serif" font-size="14.00">uma</text>
</g>
<!-- 0&#45;&gt;3 -->
<g id="edge3" class="edge">
<title>0&#45;&gt;3</title>
<path fill="none" stroke="black" d="M337.24,-92.71C311.51,-78.22 266.61,-52.95 236.67,-36.1"/>
<polygon fill="black" stroke="black" points="238.33,-33.01 227.9,-31.16 234.89,-39.11 238.33,-33.01"/>
<text text-anchor="middle" x="304.8" y="-57.8" font-family="Times,serif" font-size="14.00">dep</text>
</g>
<!-- 4 -->
<g id="node5" class="node">
<title>4</title>
<ellipse fill="none" stroke="black" cx="308.3" cy="-18" rx="53.09" ry="18"/>
<text text-anchor="middle" x="308.3" y="-14.3" font-family="Times,serif" font-size="14.00">epidemia</text>
</g>
<!-- 0&#45;&gt;4 -->
<g id="edge4" class="edge">
<title>0&#45;&gt;4</title>
<path fill="none" stroke="black" d="M348.08,-88.01C341.03,-75.78 331.17,-58.68 323.03,-44.56"/>
<polygon fill="black" stroke="black" points="326,-42.7 317.97,-35.79 319.94,-46.2 326,-42.7"/>
<text text-anchor="middle" x="349.8" y="-57.8" font-family="Times,serif" font-size="14.00">dep</text>
</g>
<!-- 5 -->
<g id="node6" class="node">
<title>5</title>
<ellipse fill="none" stroke="black" cx="406.3" cy="-18" rx="27" ry="18"/>
<text text-anchor="middle" x="406.3" y="-14.3" font-family="Times,serif" font-size="14.00">de</text>
</g>
<!-- 0&#45;&gt;5 -->
<g id="edge5" class="edge">
<title>0&#45;&gt;5</title>
<path fill="none" stroke="black" d="M366.51,-88.01C373.65,-75.63 383.68,-58.23 391.88,-44.01"/>
<polygon fill="black" stroke="black" points="394.99,-45.62 396.95,-35.21 388.93,-42.12 394.99,-45.62"/>
<text text-anchor="middle" x="398.8" y="-57.8" font-family="Times,serif" font-size="14.00">dep</text>
</g>
<!-- 6 -->
<g id="node7" class="node">
<title>6</title>
<ellipse fill="none" stroke="black" cx="478.3" cy="-18" rx="27" ry="18"/>
<text text-anchor="middle" x="478.3" y="-14.3" font-family="Times,serif" font-size="14.00">a</text>
</g>
<!-- 0&#45;&gt;6 -->
<g id="edge6" class="edge">
<title>0&#45;&gt;6</title>
<path fill="none" stroke="black" d="M377.68,-92.87C389.26,-86.31 403.87,-77.63 416.3,-69 429.46,-59.86 443.41,-48.75 454.73,-39.33"/>
<polygon fill="black" stroke="black" points="457.07,-41.93 462.47,-32.81 452.57,-36.58 457.07,-41.93"/>
<text text-anchor="middle" x="449.8" y="-57.8" font-family="Times,serif" font-size="14.00">dep</text>
</g>
<!-- 7 -->
<g id="node8" class="node">
<title>7</title>
<ellipse fill="none" stroke="black" cx="567.3" cy="-18" rx="43.59" ry="18"/>
<text text-anchor="middle" x="567.3" y="-14.3" font-family="Times,serif" font-size="14.00">doença</text>
</g>
<!-- 0&#45;&gt;7 -->
<g id="edge7" class="edge">
<title>0&#45;&gt;7</title>
<path fill="none" stroke="black" d="M382.15,-97.29C404.7,-90.92 438.7,-80.62 467.3,-69 489.86,-59.83 514.33,-47.64 533.41,-37.59"/>
<polygon fill="black" stroke="black" points="535.13,-40.64 542.32,-32.85 531.84,-34.46 535.13,-40.64"/>
<text text-anchor="middle" x="511.8" y="-57.8" font-family="Times,serif" font-size="14.00">dep</text>
</g>
<!-- 8 -->
<g id="node9" class="node">
<title>8</title>
<ellipse fill="none" stroke="black" cx="656.3" cy="-18" rx="27" ry="18"/>
<text text-anchor="middle" x="656.3" y="-14.3" font-family="Times,serif" font-size="14.00">.</text>
</g>
<!-- 0&#45;&gt;8 -->
<g id="edge8" class="edge">
<title>0&#45;&gt;8</title>
<path fill="none" stroke="black" d="M383.22,-99.95C417.14,-94.37 478.26,-83.36 529.3,-69 570.71,-57.35 580.58,-52.54 620.3,-36 622.11,-35.24 623.97,-34.44 625.84,-33.62"/>
<polygon fill="black" stroke="black" points="627.47,-36.73 635.12,-29.4 624.57,-30.35 627.47,-36.73"/>
<text text-anchor="middle" x="589.8" y="-57.8" font-family="Times,serif" font-size="14.00">dep</text>
</g>
</g>
</svg>
