<?xml version="1.0" encoding="UTF-8" standalone="no"?>
<!DOCTYPE svg PUBLIC "-//W3C//DTD SVG 1.1//EN"
 "http://www.w3.org/Graphics/SVG/1.1/DTD/svg11.dtd">
<!-- Generated by graphviz version 2.42.4 (0)
 -->
<!-- Pages: 1 -->
<svg width="2007pt" height="131pt"
 viewBox="0.00 0.00 2007.00 131.00" xmlns="http://www.w3.org/2000/svg" xmlns:xlink="http://www.w3.org/1999/xlink">
<g id="graph0" class="graph" transform="scale(1 1) rotate(0) translate(4 127)">
<polygon fill="white" stroke="transparent" points="-4,4 -4,-127 2003,-127 2003,4 -4,4"/>
<!-- 0 -->
<g id="node1" class="node">
<title>0</title>
<ellipse fill="none" stroke="black" cx="1007" cy="-105" rx="27" ry="18"/>
<text text-anchor="middle" x="1007" y="-101.3" font-family="Times,serif" font-size="14.00">Em</text>
</g>
<!-- 1 -->
<g id="node2" class="node">
<title>1</title>
<ellipse fill="none" stroke="black" cx="27" cy="-18" rx="27" ry="18"/>
<text text-anchor="middle" x="27" y="-14.3" font-family="Times,serif" font-size="14.00">as</text>
</g>
<!-- 0&#45;&gt;1 -->
<g id="edge1" class="edge">
<title>0&#45;&gt;1</title>
<path fill="none" stroke="black" d="M979.74,-103.99C852.74,-103.76 318.46,-100.9 155,-69 119.91,-62.15 82.04,-46.19 56.67,-34.13"/>
<polygon fill="black" stroke="black" points="58.12,-30.94 47.59,-29.72 55.06,-37.24 58.12,-30.94"/>
<text text-anchor="middle" x="168.5" y="-57.8" font-family="Times,serif" font-size="14.00">dep</text>
</g>
<!-- 2 -->
<g id="node3" class="node">
<title>2</title>
<ellipse fill="none" stroke="black" cx="99" cy="-18" rx="27" ry="18"/>
<text text-anchor="middle" x="99" y="-14.3" font-family="Times,serif" font-size="14.00">«</text>
</g>
<!-- 0&#45;&gt;2 -->
<g id="edge2" class="edge">
<title>0&#45;&gt;2</title>
<path fill="none" stroke="black" d="M979.91,-103.54C862.73,-101.45 398.92,-91.85 255,-69 200.37,-60.33 186.87,-55.21 135,-36 133.15,-35.32 131.27,-34.57 129.38,-33.79"/>
<polygon fill="black" stroke="black" points="130.62,-30.51 120.06,-29.69 127.8,-36.92 130.62,-30.51"/>
<text text-anchor="middle" x="268.5" y="-57.8" font-family="Times,serif" font-size="14.00">dep</text>
</g>
<!-- 3 -->
<g id="node4" class="node">
<title>3</title>
<ellipse fill="none" stroke="black" cx="188" cy="-18" rx="44.39" ry="18"/>
<text text-anchor="middle" x="188" y="-14.3" font-family="Times,serif" font-size="14.00">prisões</text>
</g>
<!-- 0&#45;&gt;3 -->
<g id="edge3" class="edge">
<title>0&#45;&gt;3</title>
<path fill="none" stroke="black" d="M979.74,-103.52C870.82,-101.47 466.64,-92.4 341,-69 301.34,-61.61 257.75,-46.65 227.28,-35.01"/>
<polygon fill="black" stroke="black" points="228.46,-31.72 217.87,-31.37 225.92,-38.24 228.46,-31.72"/>
<text text-anchor="middle" x="354.5" y="-57.8" font-family="Times,serif" font-size="14.00">dep</text>
</g>
<!-- 4 -->
<g id="node5" class="node">
<title>4</title>
<ellipse fill="none" stroke="black" cx="277" cy="-18" rx="27" ry="18"/>
<text text-anchor="middle" x="277" y="-14.3" font-family="Times,serif" font-size="14.00">de</text>
</g>
<!-- 0&#45;&gt;4 -->
<g id="edge4" class="edge">
<title>0&#45;&gt;4</title>
<path fill="none" stroke="black" d="M979.94,-103.82C899.71,-102.97 656.31,-97.98 457,-69 392.02,-59.55 375.05,-57.48 313,-36 311.09,-35.34 309.15,-34.61 307.2,-33.83"/>
<polygon fill="black" stroke="black" points="308.19,-30.44 297.62,-29.67 305.4,-36.86 308.19,-30.44"/>
<text text-anchor="middle" x="470.5" y="-57.8" font-family="Times,serif" font-size="14.00">dep</text>
</g>
<!-- 5 -->
<g id="node6" class="node">
<title>5</title>
<ellipse fill="none" stroke="black" cx="384" cy="-18" rx="62.29" ry="18"/>
<text text-anchor="middle" x="384" y="-14.3" font-family="Times,serif" font-size="14.00">deportação</text>
</g>
<!-- 0&#45;&gt;5 -->
<g id="edge5" class="edge">
<title>0&#45;&gt;5</title>
<path fill="none" stroke="black" d="M980.02,-104.02C908.67,-103.64 709.32,-99.68 547,-69 506.67,-61.38 462.21,-47.34 429.93,-36.08"/>
<polygon fill="black" stroke="black" points="430.91,-32.72 420.32,-32.68 428.58,-39.32 430.91,-32.72"/>
<text text-anchor="middle" x="560.5" y="-57.8" font-family="Times,serif" font-size="14.00">dep</text>
</g>
<!-- 6 -->
<g id="node7" class="node">
<title>6</title>
<ellipse fill="none" stroke="black" cx="491" cy="-18" rx="27" ry="18"/>
<text text-anchor="middle" x="491" y="-14.3" font-family="Times,serif" font-size="14.00">»</text>
</g>
<!-- 0&#45;&gt;6 -->
<g id="edge6" class="edge">
<title>0&#45;&gt;6</title>
<path fill="none" stroke="black" d="M979.89,-103.23C918.49,-101.09 764.34,-93.53 638,-69 587.48,-59.19 575.08,-54.37 527,-36 525.16,-35.3 523.28,-34.54 521.4,-33.75"/>
<polygon fill="black" stroke="black" points="522.65,-30.47 512.09,-29.61 519.81,-36.87 522.65,-30.47"/>
<text text-anchor="middle" x="651.5" y="-57.8" font-family="Times,serif" font-size="14.00">dep</text>
</g>
<!-- 7 -->
<g id="node8" class="node">
<title>7</title>
<ellipse fill="none" stroke="black" cx="580" cy="-18" rx="43.59" ry="18"/>
<text text-anchor="middle" x="580" y="-14.3" font-family="Times,serif" font-size="14.00">alemãs</text>
</g>
<!-- 0&#45;&gt;7 -->
<g id="edge7" class="edge">
<title>0&#45;&gt;7</title>
<path fill="none" stroke="black" d="M980.04,-102.74C928.64,-99.9 813.34,-91.4 719,-69 684.07,-60.71 645.77,-46.53 618.24,-35.39"/>
<polygon fill="black" stroke="black" points="619.55,-32.14 608.97,-31.59 616.9,-38.62 619.55,-32.14"/>
<text text-anchor="middle" x="732.5" y="-57.8" font-family="Times,serif" font-size="14.00">dep</text>
</g>
<!-- 8 -->
<g id="node9" class="node">
<title>8</title>
<ellipse fill="none" stroke="black" cx="669" cy="-18" rx="27" ry="18"/>
<text text-anchor="middle" x="669" y="-14.3" font-family="Times,serif" font-size="14.00">,</text>
</g>
<!-- 0&#45;&gt;8 -->
<g id="edge8" class="edge">
<title>0&#45;&gt;8</title>
<path fill="none" stroke="black" d="M980.43,-101.01C940.59,-96.19 863.18,-85.54 799,-69 756.12,-57.95 745.96,-52.81 705,-36 703.18,-35.25 701.31,-34.46 699.44,-33.64"/>
<polygon fill="black" stroke="black" points="700.71,-30.37 690.16,-29.44 697.82,-36.75 700.71,-30.37"/>
<text text-anchor="middle" x="812.5" y="-57.8" font-family="Times,serif" font-size="14.00">dep</text>
</g>
<!-- 9 -->
<g id="node10" class="node">
<title>9</title>
<ellipse fill="none" stroke="black" cx="750" cy="-18" rx="36" ry="18"/>
<text text-anchor="middle" x="750" y="-14.3" font-family="Times,serif" font-size="14.00">estão</text>
</g>
<!-- 0&#45;&gt;9 -->
<g id="edge9" class="edge">
<title>0&#45;&gt;9</title>
<path fill="none" stroke="black" d="M981.68,-98.69C953.95,-92.6 908.3,-81.8 870,-69 840.65,-59.19 808.32,-45.55 784.61,-34.99"/>
<polygon fill="black" stroke="black" points="785.9,-31.73 775.34,-30.82 783.03,-38.11 785.9,-31.73"/>
<text text-anchor="middle" x="883.5" y="-57.8" font-family="Times,serif" font-size="14.00">dep</text>
</g>
<!-- 10 -->
<g id="node11" class="node">
<title>10</title>
<ellipse fill="none" stroke="black" cx="839" cy="-18" rx="36" ry="18"/>
<text text-anchor="middle" x="839" y="-14.3" font-family="Times,serif" font-size="14.00">cerca</text>
</g>
<!-- 0&#45;&gt;10 -->
<g id="edge10" class="edge">
<title>0&#45;&gt;10</title>
<path fill="none" stroke="black" d="M984.6,-94.75C968.64,-87.99 946.78,-78.41 928,-69 908.48,-59.22 887.14,-47.28 870.25,-37.51"/>
<polygon fill="black" stroke="black" points="871.76,-34.35 861.36,-32.34 868.24,-40.4 871.76,-34.35"/>
<text text-anchor="middle" x="941.5" y="-57.8" font-family="Times,serif" font-size="14.00">dep</text>
</g>
<!-- 11 -->
<g id="node12" class="node">
<title>11</title>
<ellipse fill="none" stroke="black" cx="920" cy="-18" rx="27" ry="18"/>
<text text-anchor="middle" x="920" y="-14.3" font-family="Times,serif" font-size="14.00">de</text>
</g>
<!-- 0&#45;&gt;11 -->
<g id="edge11" class="edge">
<title>0&#45;&gt;11</title>
<path fill="none" stroke="black" d="M992.24,-89.58C978.41,-76.07 957.56,-55.7 941.81,-40.31"/>
<polygon fill="black" stroke="black" points="944.14,-37.69 934.54,-33.21 939.25,-42.7 944.14,-37.69"/>
<text text-anchor="middle" x="982.5" y="-57.8" font-family="Times,serif" font-size="14.00">dep</text>
</g>
<!-- 12 -->
<g id="node13" class="node">
<title>12</title>
<ellipse fill="none" stroke="black" cx="1007" cy="-18" rx="41.69" ry="18"/>
<text text-anchor="middle" x="1007" y="-14.3" font-family="Times,serif" font-size="14.00">quatro</text>
</g>
<!-- 0&#45;&gt;12 -->
<g id="edge12" class="edge">
<title>0&#45;&gt;12</title>
<path fill="none" stroke="black" d="M1007,-86.8C1007,-75.16 1007,-59.55 1007,-46.24"/>
<polygon fill="black" stroke="black" points="1010.5,-46.18 1007,-36.18 1003.5,-46.18 1010.5,-46.18"/>
<text text-anchor="middle" x="1020.5" y="-57.8" font-family="Times,serif" font-size="14.00">dep</text>
</g>
<!-- 13 -->
<g id="node14" class="node">
<title>13</title>
<ellipse fill="none" stroke="black" cx="1094" cy="-18" rx="27" ry="18"/>
<text text-anchor="middle" x="1094" y="-14.3" font-family="Times,serif" font-size="14.00">mil</text>
</g>
<!-- 0&#45;&gt;13 -->
<g id="edge13" class="edge">
<title>0&#45;&gt;13</title>
<path fill="none" stroke="black" d="M1021.76,-89.58C1035.59,-76.07 1056.44,-55.7 1072.19,-40.31"/>
<polygon fill="black" stroke="black" points="1074.75,-42.7 1079.46,-33.21 1069.86,-37.69 1074.75,-42.7"/>
<text text-anchor="middle" x="1069.5" y="-57.8" font-family="Times,serif" font-size="14.00">dep</text>
</g>
<!-- 14 -->
<g id="node15" class="node">
<title>14</title>
<ellipse fill="none" stroke="black" cx="1166" cy="-18" rx="27" ry="18"/>
<text text-anchor="middle" x="1166" y="-14.3" font-family="Times,serif" font-size="14.00">«</text>
</g>
<!-- 0&#45;&gt;14 -->
<g id="edge14" class="edge">
<title>0&#45;&gt;14</title>
<path fill="none" stroke="black" d="M1029.85,-95.09C1046.09,-88.49 1068.26,-78.96 1087,-69 1105.09,-59.39 1124.55,-47.1 1139.63,-37.11"/>
<polygon fill="black" stroke="black" points="1141.6,-40 1147.96,-31.53 1137.7,-34.19 1141.6,-40"/>
<text text-anchor="middle" x="1125.5" y="-57.8" font-family="Times,serif" font-size="14.00">dep</text>
</g>
<!-- 15 -->
<g id="node16" class="node">
<title>15</title>
<ellipse fill="none" stroke="black" cx="1277" cy="-18" rx="65.79" ry="18"/>
<text text-anchor="middle" x="1277" y="-14.3" font-family="Times,serif" font-size="14.00">indesejados</text>
</g>
<!-- 0&#45;&gt;15 -->
<g id="edge15" class="edge">
<title>0&#45;&gt;15</title>
<path fill="none" stroke="black" d="M1032.29,-98.33C1059.77,-91.98 1104.86,-80.99 1143,-69 1173.14,-59.53 1206.43,-47.12 1232.28,-37.03"/>
<polygon fill="black" stroke="black" points="1233.78,-40.21 1241.8,-33.29 1231.22,-33.69 1233.78,-40.21"/>
<text text-anchor="middle" x="1197.5" y="-57.8" font-family="Times,serif" font-size="14.00">dep</text>
</g>
<!-- 16 -->
<g id="node17" class="node">
<title>16</title>
<ellipse fill="none" stroke="black" cx="1388" cy="-18" rx="27" ry="18"/>
<text text-anchor="middle" x="1388" y="-14.3" font-family="Times,serif" font-size="14.00">»</text>
</g>
<!-- 0&#45;&gt;16 -->
<g id="edge16" class="edge">
<title>0&#45;&gt;16</title>
<path fill="none" stroke="black" d="M1033.65,-101.39C1092.5,-95.07 1237.42,-76.37 1352,-36 1353.91,-35.33 1355.85,-34.59 1357.79,-33.8"/>
<polygon fill="black" stroke="black" points="1359.6,-36.83 1367.36,-29.63 1356.8,-30.42 1359.6,-36.83"/>
<text text-anchor="middle" x="1301.5" y="-57.8" font-family="Times,serif" font-size="14.00">dep</text>
</g>
<!-- 17 -->
<g id="node18" class="node">
<title>17</title>
<ellipse fill="none" stroke="black" cx="1460" cy="-18" rx="27" ry="18"/>
<text text-anchor="middle" x="1460" y="-14.3" font-family="Times,serif" font-size="14.00">a</text>
</g>
<!-- 0&#45;&gt;17 -->
<g id="edge17" class="edge">
<title>0&#45;&gt;17</title>
<path fill="none" stroke="black" d="M1033.99,-102.73C1088.41,-99.77 1215.01,-90.96 1319,-69 1366.86,-58.89 1378.44,-53.82 1424,-36 1425.83,-35.28 1427.71,-34.51 1429.59,-33.71"/>
<polygon fill="black" stroke="black" points="1431.19,-36.83 1438.89,-29.56 1428.33,-30.44 1431.19,-36.83"/>
<text text-anchor="middle" x="1389.5" y="-57.8" font-family="Times,serif" font-size="14.00">dep</text>
</g>
<!-- 18 -->
<g id="node19" class="node">
<title>18</title>
<ellipse fill="none" stroke="black" cx="1532" cy="-18" rx="27" ry="18"/>
<text text-anchor="middle" x="1532" y="-14.3" font-family="Times,serif" font-size="14.00">a</text>
</g>
<!-- 0&#45;&gt;18 -->
<g id="edge18" class="edge">
<title>0&#45;&gt;18</title>
<path fill="none" stroke="black" d="M1034.06,-104.11C1099.15,-103.84 1269.28,-99.97 1407,-69 1440.62,-61.44 1476.97,-46.01 1501.76,-34.27"/>
<polygon fill="black" stroke="black" points="1503.5,-37.32 1510.99,-29.82 1500.46,-31.01 1503.5,-37.32"/>
<text text-anchor="middle" x="1466.5" y="-57.8" font-family="Times,serif" font-size="14.00">dep</text>
</g>
<!-- 19 -->
<g id="node20" class="node">
<title>19</title>
<ellipse fill="none" stroke="black" cx="1619" cy="-18" rx="42.49" ry="18"/>
<text text-anchor="middle" x="1619" y="-14.3" font-family="Times,serif" font-size="14.00">espera</text>
</g>
<!-- 0&#45;&gt;19 -->
<g id="edge19" class="edge">
<title>0&#45;&gt;19</title>
<path fill="none" stroke="black" d="M1034.01,-104.65C1107.32,-105.86 1315.83,-105.54 1484,-69 1518.26,-61.56 1555.51,-47.26 1582.18,-35.85"/>
<polygon fill="black" stroke="black" points="1583.73,-38.99 1591.51,-31.8 1580.94,-32.57 1583.73,-38.99"/>
<text text-anchor="middle" x="1547.5" y="-57.8" font-family="Times,serif" font-size="14.00">dep</text>
</g>
<!-- 20 -->
<g id="node21" class="node">
<title>20</title>
<ellipse fill="none" stroke="black" cx="1706" cy="-18" rx="27" ry="18"/>
<text text-anchor="middle" x="1706" y="-14.3" font-family="Times,serif" font-size="14.00">de</text>
</g>
<!-- 0&#45;&gt;20 -->
<g id="edge20" class="edge">
<title>0&#45;&gt;20</title>
<path fill="none" stroke="black" d="M1034.02,-103.17C1131,-100.06 1461.22,-88.27 1565,-69 1613.1,-60.07 1624.44,-53.82 1670,-36 1671.83,-35.28 1673.71,-34.51 1675.59,-33.71"/>
<polygon fill="black" stroke="black" points="1677.19,-36.83 1684.89,-29.56 1674.33,-30.44 1677.19,-36.83"/>
<text text-anchor="middle" x="1637.5" y="-57.8" font-family="Times,serif" font-size="14.00">dep</text>
</g>
<!-- 21 -->
<g id="node22" class="node">
<title>21</title>
<ellipse fill="none" stroke="black" cx="1778" cy="-18" rx="27" ry="18"/>
<text text-anchor="middle" x="1778" y="-14.3" font-family="Times,serif" font-size="14.00">a</text>
</g>
<!-- 0&#45;&gt;21 -->
<g id="edge21" class="edge">
<title>0&#45;&gt;21</title>
<path fill="none" stroke="black" d="M1034.28,-103.64C1141.44,-102.07 1533.61,-94.65 1655,-69 1688.25,-61.97 1724,-46.46 1748.34,-34.56"/>
<polygon fill="black" stroke="black" points="1750.01,-37.64 1757.39,-30.04 1746.88,-31.37 1750.01,-37.64"/>
<text text-anchor="middle" x="1717.5" y="-57.8" font-family="Times,serif" font-size="14.00">dep</text>
</g>
<!-- 22 -->
<g id="node23" class="node">
<title>22</title>
<ellipse fill="none" stroke="black" cx="1875" cy="-18" rx="51.99" ry="18"/>
<text text-anchor="middle" x="1875" y="-14.3" font-family="Times,serif" font-size="14.00">expulsão</text>
</g>
<!-- 0&#45;&gt;22 -->
<g id="edge22" class="edge">
<title>0&#45;&gt;22</title>
<path fill="none" stroke="black" d="M1034.04,-103.76C1148.92,-102.6 1596.91,-96.35 1735,-69 1769.99,-62.07 1808,-48.05 1835.58,-36.61"/>
<polygon fill="black" stroke="black" points="1837.02,-39.8 1844.87,-32.69 1834.3,-33.36 1837.02,-39.8"/>
<text text-anchor="middle" x="1800.5" y="-57.8" font-family="Times,serif" font-size="14.00">dep</text>
</g>
<!-- 23 -->
<g id="node24" class="node">
<title>23</title>
<ellipse fill="none" stroke="black" cx="1972" cy="-18" rx="27" ry="18"/>
<text text-anchor="middle" x="1972" y="-14.3" font-family="Times,serif" font-size="14.00">.</text>
</g>
<!-- 0&#45;&gt;23 -->
<g id="edge23" class="edge">
<title>0&#45;&gt;23</title>
<path fill="none" stroke="black" d="M1034.13,-103.67C1156.98,-102.02 1661.95,-93.85 1818,-69 1871.78,-60.44 1884.98,-55.03 1936,-36 1937.85,-35.31 1939.73,-34.57 1941.61,-33.78"/>
<polygon fill="black" stroke="black" points="1943.2,-36.91 1950.93,-29.67 1940.37,-30.51 1943.2,-36.91"/>
<text text-anchor="middle" x="1899.5" y="-57.8" font-family="Times,serif" font-size="14.00">dep</text>
</g>
</g>
</svg>
