<?xml version="1.0" encoding="UTF-8" standalone="no"?>
<!DOCTYPE svg PUBLIC "-//W3C//DTD SVG 1.1//EN"
 "http://www.w3.org/Graphics/SVG/1.1/DTD/svg11.dtd">
<!-- Generated by graphviz version 2.42.4 (0)
 -->
<!-- Pages: 1 -->
<svg width="2050pt" height="131pt"
 viewBox="0.00 0.00 2050.00 131.00" xmlns="http://www.w3.org/2000/svg" xmlns:xlink="http://www.w3.org/1999/xlink">
<g id="graph0" class="graph" transform="scale(1 1) rotate(0) translate(4 127)">
<polygon fill="white" stroke="transparent" points="-4,4 -4,-127 2046,-127 2046,4 -4,4"/>
<!-- 0 -->
<g id="node1" class="node">
<title>0</title>
<ellipse fill="none" stroke="black" cx="997" cy="-105" rx="32.49" ry="18"/>
<text text-anchor="middle" x="997" y="-101.3" font-family="Times,serif" font-size="14.00">Uma</text>
</g>
<!-- 1 -->
<g id="node2" class="node">
<title>1</title>
<ellipse fill="none" stroke="black" cx="27" cy="-18" rx="27" ry="18"/>
<text text-anchor="middle" x="27" y="-14.3" font-family="Times,serif" font-size="14.00">por</text>
</g>
<!-- 0&#45;&gt;1 -->
<g id="edge1" class="edge">
<title>0&#45;&gt;1</title>
<path fill="none" stroke="black" d="M964.16,-104.05C828.3,-104.02 309.86,-101.73 150,-69 116.71,-62.18 80.97,-46.64 56.64,-34.67"/>
<polygon fill="black" stroke="black" points="58.09,-31.49 47.59,-30.13 54.95,-37.74 58.09,-31.49"/>
<text text-anchor="middle" x="163.5" y="-57.8" font-family="Times,serif" font-size="14.00">dep</text>
</g>
<!-- 2 -->
<g id="node3" class="node">
<title>2</title>
<ellipse fill="none" stroke="black" cx="99" cy="-18" rx="27" ry="18"/>
<text text-anchor="middle" x="99" y="-14.3" font-family="Times,serif" font-size="14.00">a</text>
</g>
<!-- 0&#45;&gt;2 -->
<g id="edge2" class="edge">
<title>0&#45;&gt;2</title>
<path fill="none" stroke="black" d="M964.23,-103.64C837.67,-102.06 380.65,-94.67 238,-69 190.69,-60.49 179.72,-53.63 135,-36 133.17,-35.28 131.3,-34.5 129.42,-33.7"/>
<polygon fill="black" stroke="black" points="130.67,-30.43 120.12,-29.54 127.81,-36.82 130.67,-30.43"/>
<text text-anchor="middle" x="251.5" y="-57.8" font-family="Times,serif" font-size="14.00">dep</text>
</g>
<!-- 3 -->
<g id="node4" class="node">
<title>3</title>
<ellipse fill="none" stroke="black" cx="180" cy="-18" rx="36.29" ry="18"/>
<text text-anchor="middle" x="180" y="-14.3" font-family="Times,serif" font-size="14.00">dupla</text>
</g>
<!-- 0&#45;&gt;3 -->
<g id="edge3" class="edge">
<title>0&#45;&gt;3</title>
<path fill="none" stroke="black" d="M964.6,-103.54C847.39,-101.67 445.76,-93.58 320,-69 283.07,-61.78 242.79,-46.57 214.96,-34.8"/>
<polygon fill="black" stroke="black" points="216.23,-31.54 205.66,-30.81 213.46,-37.97 216.23,-31.54"/>
<text text-anchor="middle" x="333.5" y="-57.8" font-family="Times,serif" font-size="14.00">dep</text>
</g>
<!-- 4 -->
<g id="node5" class="node">
<title>4</title>
<ellipse fill="none" stroke="black" cx="265" cy="-18" rx="30.59" ry="18"/>
<text text-anchor="middle" x="265" y="-14.3" font-family="Times,serif" font-size="14.00">BFE</text>
</g>
<!-- 0&#45;&gt;4 -->
<g id="edge4" class="edge">
<title>0&#45;&gt;4</title>
<path fill="none" stroke="black" d="M964.36,-103.17C856.83,-100.26 514.43,-89.57 406,-69 367.65,-61.73 325.74,-45.76 297.66,-33.82"/>
<polygon fill="black" stroke="black" points="298.9,-30.54 288.33,-29.78 296.12,-36.96 298.9,-30.54"/>
<text text-anchor="middle" x="419.5" y="-57.8" font-family="Times,serif" font-size="14.00">dep</text>
</g>
<!-- 5 -->
<g id="node6" class="node">
<title>5</title>
<ellipse fill="none" stroke="black" cx="341" cy="-18" rx="27" ry="18"/>
<text text-anchor="middle" x="341" y="-14.3" font-family="Times,serif" font-size="14.00">/</text>
</g>
<!-- 0&#45;&gt;5 -->
<g id="edge5" class="edge">
<title>0&#45;&gt;5</title>
<path fill="none" stroke="black" d="M964.56,-103.29C887.43,-101.23 687.19,-93.74 522,-69 456.64,-59.21 439.47,-57.57 377,-36 375.09,-35.34 373.14,-34.61 371.2,-33.83"/>
<polygon fill="black" stroke="black" points="372.19,-30.44 361.62,-29.68 369.4,-36.87 372.19,-30.44"/>
<text text-anchor="middle" x="535.5" y="-57.8" font-family="Times,serif" font-size="14.00">dep</text>
</g>
<!-- 6 -->
<g id="node7" class="node">
<title>6</title>
<ellipse fill="none" stroke="black" cx="437" cy="-18" rx="50.89" ry="18"/>
<text text-anchor="middle" x="437" y="-14.3" font-family="Times,serif" font-size="14.00">Salomon</text>
</g>
<!-- 0&#45;&gt;6 -->
<g id="edge6" class="edge">
<title>0&#45;&gt;6</title>
<path fill="none" stroke="black" d="M964.55,-102.91C898.72,-100.27 744.95,-91.99 618,-69 571.08,-60.5 518.7,-45.4 482.41,-34"/>
<polygon fill="black" stroke="black" points="483.21,-30.59 472.62,-30.9 481.09,-37.26 483.21,-30.59"/>
<text text-anchor="middle" x="631.5" y="-57.8" font-family="Times,serif" font-size="14.00">dep</text>
</g>
<!-- 7 -->
<g id="node8" class="node">
<title>7</title>
<ellipse fill="none" stroke="black" cx="558" cy="-18" rx="51.99" ry="18"/>
<text text-anchor="middle" x="558" y="-14.3" font-family="Times,serif" font-size="14.00">Brothers</text>
</g>
<!-- 0&#45;&gt;7 -->
<g id="edge7" class="edge">
<title>0&#45;&gt;7</title>
<path fill="none" stroke="black" d="M964.51,-102.52C909.46,-99.5 794.58,-90.94 700,-69 665.15,-60.92 626.98,-47.19 599,-36.16"/>
<polygon fill="black" stroke="black" points="600.13,-32.84 589.55,-32.38 597.53,-39.34 600.13,-32.84"/>
<text text-anchor="middle" x="713.5" y="-57.8" font-family="Times,serif" font-size="14.00">dep</text>
</g>
<!-- 8 -->
<g id="node9" class="node">
<title>8</title>
<ellipse fill="none" stroke="black" cx="655" cy="-18" rx="27" ry="18"/>
<text text-anchor="middle" x="655" y="-14.3" font-family="Times,serif" font-size="14.00">e</text>
</g>
<!-- 0&#45;&gt;8 -->
<g id="edge8" class="edge">
<title>0&#45;&gt;8</title>
<path fill="none" stroke="black" d="M965.14,-101.25C921.44,-96.97 840.72,-87.25 774,-69 742.65,-60.42 708.63,-45.52 685.03,-34.21"/>
<polygon fill="black" stroke="black" points="686.42,-30.99 675.9,-29.76 683.36,-37.29 686.42,-30.99"/>
<text text-anchor="middle" x="787.5" y="-57.8" font-family="Times,serif" font-size="14.00">dep</text>
</g>
<!-- 9 -->
<g id="node10" class="node">
<title>9</title>
<ellipse fill="none" stroke="black" cx="736" cy="-18" rx="36" ry="18"/>
<text text-anchor="middle" x="736" y="-14.3" font-family="Times,serif" font-size="14.00">outra</text>
</g>
<!-- 0&#45;&gt;9 -->
<g id="edge9" class="edge">
<title>0&#45;&gt;9</title>
<path fill="none" stroke="black" d="M966.03,-99.25C933.94,-93.84 882.61,-83.77 840,-69 815,-60.33 788.11,-47.3 767.94,-36.71"/>
<polygon fill="black" stroke="black" points="769.37,-33.51 758.89,-31.89 766.07,-39.68 769.37,-33.51"/>
<text text-anchor="middle" x="853.5" y="-57.8" font-family="Times,serif" font-size="14.00">dep</text>
</g>
<!-- 10 -->
<g id="node11" class="node">
<title>10</title>
<ellipse fill="none" stroke="black" cx="817" cy="-18" rx="27" ry="18"/>
<text text-anchor="middle" x="817" y="-14.3" font-family="Times,serif" font-size="14.00">por</text>
</g>
<!-- 0&#45;&gt;10 -->
<g id="edge10" class="edge">
<title>0&#45;&gt;10</title>
<path fill="none" stroke="black" d="M968.62,-95.74C948.47,-89.45 921.02,-80.02 898,-69 879.06,-59.93 858.97,-47.55 843.53,-37.38"/>
<polygon fill="black" stroke="black" points="845.28,-34.34 835.02,-31.68 841.39,-40.15 845.28,-34.34"/>
<text text-anchor="middle" x="911.5" y="-57.8" font-family="Times,serif" font-size="14.00">dep</text>
</g>
<!-- 11 -->
<g id="node12" class="node">
<title>11</title>
<ellipse fill="none" stroke="black" cx="889" cy="-18" rx="27" ry="18"/>
<text text-anchor="middle" x="889" y="-14.3" font-family="Times,serif" font-size="14.00">o</text>
</g>
<!-- 0&#45;&gt;11 -->
<g id="edge11" class="edge">
<title>0&#45;&gt;11</title>
<path fill="none" stroke="black" d="M976.75,-90.91C967.23,-84.55 955.83,-76.65 946,-69 934.36,-59.95 921.98,-49.24 911.75,-40.06"/>
<polygon fill="black" stroke="black" points="913.82,-37.21 904.06,-33.09 909.12,-42.4 913.82,-37.21"/>
<text text-anchor="middle" x="959.5" y="-57.8" font-family="Times,serif" font-size="14.00">dep</text>
</g>
<!-- 12 -->
<g id="node13" class="node">
<title>12</title>
<ellipse fill="none" stroke="black" cx="961" cy="-18" rx="27.1" ry="18"/>
<text text-anchor="middle" x="961" y="-14.3" font-family="Times,serif" font-size="14.00">BPI</text>
</g>
<!-- 0&#45;&gt;12 -->
<g id="edge12" class="edge">
<title>0&#45;&gt;12</title>
<path fill="none" stroke="black" d="M989.89,-87.21C984.78,-75.14 977.79,-58.64 971.97,-44.89"/>
<polygon fill="black" stroke="black" points="975.1,-43.31 967.98,-35.47 968.65,-46.04 975.1,-43.31"/>
<text text-anchor="middle" x="995.5" y="-57.8" font-family="Times,serif" font-size="14.00">dep</text>
</g>
<!-- 13 -->
<g id="node14" class="node">
<title>13</title>
<ellipse fill="none" stroke="black" cx="1033" cy="-18" rx="27" ry="18"/>
<text text-anchor="middle" x="1033" y="-14.3" font-family="Times,serif" font-size="14.00">em</text>
</g>
<!-- 0&#45;&gt;13 -->
<g id="edge13" class="edge">
<title>0&#45;&gt;13</title>
<path fill="none" stroke="black" d="M1004.11,-87.21C1009.22,-75.14 1016.21,-58.64 1022.03,-44.89"/>
<polygon fill="black" stroke="black" points="1025.35,-46.04 1026.02,-35.47 1018.9,-43.31 1025.35,-46.04"/>
<text text-anchor="middle" x="1031.5" y="-57.8" font-family="Times,serif" font-size="14.00">dep</text>
</g>
<!-- 14 -->
<g id="node15" class="node">
<title>14</title>
<ellipse fill="none" stroke="black" cx="1138" cy="-18" rx="59.59" ry="18"/>
<text text-anchor="middle" x="1138" y="-14.3" font-family="Times,serif" font-size="14.00">associação</text>
</g>
<!-- 0&#45;&gt;14 -->
<g id="edge14" class="edge">
<title>0&#45;&gt;14</title>
<path fill="none" stroke="black" d="M1018.11,-91.27C1040.75,-77.63 1077.04,-55.75 1103.78,-39.63"/>
<polygon fill="black" stroke="black" points="1105.68,-42.57 1112.44,-34.41 1102.07,-36.57 1105.68,-42.57"/>
<text text-anchor="middle" x="1089.5" y="-57.8" font-family="Times,serif" font-size="14.00">dep</text>
</g>
<!-- 15 -->
<g id="node16" class="node">
<title>15</title>
<ellipse fill="none" stroke="black" cx="1246" cy="-18" rx="29.8" ry="18"/>
<text text-anchor="middle" x="1246" y="-14.3" font-family="Times,serif" font-size="14.00">com</text>
</g>
<!-- 0&#45;&gt;15 -->
<g id="edge15" class="edge">
<title>0&#45;&gt;15</title>
<path fill="none" stroke="black" d="M1025.18,-95.89C1065.78,-83.97 1142.92,-60.48 1207,-36 1209.07,-35.21 1211.2,-34.37 1213.33,-33.5"/>
<polygon fill="black" stroke="black" points="1214.76,-36.7 1222.63,-29.6 1212.06,-30.24 1214.76,-36.7"/>
<text text-anchor="middle" x="1169.5" y="-57.8" font-family="Times,serif" font-size="14.00">dep</text>
</g>
<!-- 16 -->
<g id="node17" class="node">
<title>16</title>
<ellipse fill="none" stroke="black" cx="1321" cy="-18" rx="27" ry="18"/>
<text text-anchor="middle" x="1321" y="-14.3" font-family="Times,serif" font-size="14.00">a</text>
</g>
<!-- 0&#45;&gt;16 -->
<g id="edge16" class="edge">
<title>0&#45;&gt;16</title>
<path fill="none" stroke="black" d="M1028.23,-99.65C1066.13,-94.04 1131.8,-83.3 1187,-69 1231.49,-57.47 1242.37,-53.17 1285,-36 1286.83,-35.26 1288.69,-34.48 1290.57,-33.67"/>
<polygon fill="black" stroke="black" points="1292.18,-36.78 1299.86,-29.48 1289.31,-30.4 1292.18,-36.78"/>
<text text-anchor="middle" x="1252.5" y="-57.8" font-family="Times,serif" font-size="14.00">dep</text>
</g>
<!-- 17 -->
<g id="node18" class="node">
<title>17</title>
<ellipse fill="none" stroke="black" cx="1398" cy="-18" rx="31.7" ry="18"/>
<text text-anchor="middle" x="1398" y="-14.3" font-family="Times,serif" font-size="14.00">UBS</text>
</g>
<!-- 0&#45;&gt;17 -->
<g id="edge17" class="edge">
<title>0&#45;&gt;17</title>
<path fill="none" stroke="black" d="M1029.4,-102.31C1080.99,-99.08 1184.7,-90.33 1270,-69 1303.45,-60.64 1339.93,-45.78 1365.36,-34.43"/>
<polygon fill="black" stroke="black" points="1366.87,-37.58 1374.53,-30.27 1363.98,-31.21 1366.87,-37.58"/>
<text text-anchor="middle" x="1330.5" y="-57.8" font-family="Times,serif" font-size="14.00">dep</text>
</g>
<!-- 18 -->
<g id="node19" class="node">
<title>18</title>
<ellipse fill="none" stroke="black" cx="1475" cy="-18" rx="27" ry="18"/>
<text text-anchor="middle" x="1475" y="-14.3" font-family="Times,serif" font-size="14.00">(</text>
</g>
<!-- 0&#45;&gt;18 -->
<g id="edge18" class="edge">
<title>0&#45;&gt;18</title>
<path fill="none" stroke="black" d="M1029.86,-103.43C1092.51,-101.76 1233.05,-95.14 1348,-69 1382.42,-61.17 1419.79,-45.52 1445.01,-33.81"/>
<polygon fill="black" stroke="black" points="1446.51,-36.97 1454.06,-29.53 1443.52,-30.64 1446.51,-36.97"/>
<text text-anchor="middle" x="1408.5" y="-57.8" font-family="Times,serif" font-size="14.00">dep</text>
</g>
<!-- 19 -->
<g id="node20" class="node">
<title>19</title>
<ellipse fill="none" stroke="black" cx="1558" cy="-18" rx="38.19" ry="18"/>
<text text-anchor="middle" x="1558" y="-14.3" font-family="Times,serif" font-size="14.00">Union</text>
</g>
<!-- 0&#45;&gt;19 -->
<g id="edge19" class="edge">
<title>0&#45;&gt;19</title>
<path fill="none" stroke="black" d="M1029.49,-104.43C1101.72,-104.72 1280.75,-101.75 1426,-69 1459.7,-61.4 1496.32,-47.01 1522.42,-35.61"/>
<polygon fill="black" stroke="black" points="1524.16,-38.66 1531.88,-31.4 1521.32,-32.27 1524.16,-38.66"/>
<text text-anchor="middle" x="1488.5" y="-57.8" font-family="Times,serif" font-size="14.00">dep</text>
</g>
<!-- 20 -->
<g id="node21" class="node">
<title>20</title>
<ellipse fill="none" stroke="black" cx="1641" cy="-18" rx="27" ry="18"/>
<text text-anchor="middle" x="1641" y="-14.3" font-family="Times,serif" font-size="14.00">des</text>
</g>
<!-- 0&#45;&gt;20 -->
<g id="edge20" class="edge">
<title>0&#45;&gt;20</title>
<path fill="none" stroke="black" d="M1029.53,-104.59C1110.77,-105.46 1328.74,-104.05 1506,-69 1551.5,-60 1561.95,-53.27 1605,-36 1606.83,-35.27 1608.7,-34.49 1610.57,-33.68"/>
<polygon fill="black" stroke="black" points="1612.18,-36.79 1619.87,-29.49 1609.31,-30.41 1612.18,-36.79"/>
<text text-anchor="middle" x="1573.5" y="-57.8" font-family="Times,serif" font-size="14.00">dep</text>
</g>
<!-- 21 -->
<g id="node22" class="node">
<title>21</title>
<ellipse fill="none" stroke="black" cx="1737" cy="-18" rx="50.89" ry="18"/>
<text text-anchor="middle" x="1737" y="-14.3" font-family="Times,serif" font-size="14.00">Banques</text>
</g>
<!-- 0&#45;&gt;21 -->
<g id="edge21" class="edge">
<title>0&#45;&gt;21</title>
<path fill="none" stroke="black" d="M1029.44,-103.25C1137.13,-100.56 1482.04,-90.45 1591,-69 1627.73,-61.77 1667.85,-47.54 1696.72,-36.1"/>
<polygon fill="black" stroke="black" points="1698.09,-39.33 1706.06,-32.35 1695.48,-32.83 1698.09,-39.33"/>
<text text-anchor="middle" x="1658.5" y="-57.8" font-family="Times,serif" font-size="14.00">dep</text>
</g>
<!-- 22 -->
<g id="node23" class="node">
<title>22</title>
<ellipse fill="none" stroke="black" cx="1852" cy="-18" rx="46.29" ry="18"/>
<text text-anchor="middle" x="1852" y="-14.3" font-family="Times,serif" font-size="14.00">Suisses</text>
</g>
<!-- 0&#45;&gt;22 -->
<g id="edge22" class="edge">
<title>0&#45;&gt;22</title>
<path fill="none" stroke="black" d="M1029.45,-103.25C1146.83,-100.4 1549.1,-89.33 1676,-69 1722.73,-61.51 1774.68,-45.8 1809.95,-33.98"/>
<polygon fill="black" stroke="black" points="1811.09,-37.29 1819.44,-30.76 1808.84,-30.66 1811.09,-37.29"/>
<text text-anchor="middle" x="1753.5" y="-57.8" font-family="Times,serif" font-size="14.00">dep</text>
</g>
<!-- 23 -->
<g id="node24" class="node">
<title>23</title>
<ellipse fill="none" stroke="black" cx="1943" cy="-18" rx="27" ry="18"/>
<text text-anchor="middle" x="1943" y="-14.3" font-family="Times,serif" font-size="14.00">)</text>
</g>
<!-- 0&#45;&gt;23 -->
<g id="edge23" class="edge">
<title>0&#45;&gt;23</title>
<path fill="none" stroke="black" d="M1029.49,-103.37C1157.12,-100.75 1624.35,-89.91 1771,-69 1832.58,-60.22 1848.35,-56.72 1907,-36 1908.91,-35.33 1910.85,-34.59 1912.79,-33.8"/>
<polygon fill="black" stroke="black" points="1914.6,-36.83 1922.36,-29.62 1911.8,-30.41 1914.6,-36.83"/>
<text text-anchor="middle" x="1865.5" y="-57.8" font-family="Times,serif" font-size="14.00">dep</text>
</g>
<!-- 24 -->
<g id="node25" class="node">
<title>24</title>
<ellipse fill="none" stroke="black" cx="2015" cy="-18" rx="27" ry="18"/>
<text text-anchor="middle" x="2015" y="-14.3" font-family="Times,serif" font-size="14.00">.</text>
</g>
<!-- 0&#45;&gt;24 -->
<g id="edge24" class="edge">
<title>0&#45;&gt;24</title>
<path fill="none" stroke="black" d="M1029.9,-103.98C1169.66,-103.7 1714.67,-100.55 1883,-69 1919.31,-62.19 1958.63,-46.07 1984.82,-33.96"/>
<polygon fill="black" stroke="black" points="1986.63,-36.97 1994.18,-29.54 1983.64,-30.64 1986.63,-36.97"/>
<text text-anchor="middle" x="1949.5" y="-57.8" font-family="Times,serif" font-size="14.00">dep</text>
</g>
</g>
</svg>
