<?xml version="1.0" encoding="UTF-8" standalone="no"?>
<!DOCTYPE svg PUBLIC "-//W3C//DTD SVG 1.1//EN"
 "http://www.w3.org/Graphics/SVG/1.1/DTD/svg11.dtd">
<!-- Generated by graphviz version 2.42.4 (0)
 -->
<!-- Pages: 1 -->
<svg width="3400pt" height="131pt"
 viewBox="0.00 0.00 3400.25 131.00" xmlns="http://www.w3.org/2000/svg" xmlns:xlink="http://www.w3.org/1999/xlink">
<g id="graph0" class="graph" transform="scale(1 1) rotate(0) translate(4 127)">
<polygon fill="white" stroke="transparent" points="-4,4 -4,-127 3396.25,-127 3396.25,4 -4,4"/>
<!-- 0 -->
<g id="node1" class="node">
<title>0</title>
<ellipse fill="none" stroke="black" cx="1767.25" cy="-105" rx="27" ry="18"/>
<text text-anchor="middle" x="1767.25" y="-101.3" font-family="Times,serif" font-size="14.00">As</text>
</g>
<!-- 1 -->
<g id="node2" class="node">
<title>1</title>
<ellipse fill="none" stroke="black" cx="42.25" cy="-18" rx="42.49" ry="18"/>
<text text-anchor="middle" x="42.25" y="-14.3" font-family="Times,serif" font-size="14.00">igrejas</text>
</g>
<!-- 0&#45;&gt;1 -->
<g id="edge1" class="edge">
<title>0&#45;&gt;1</title>
<path fill="none" stroke="black" d="M1740.02,-104.08C1561.13,-104.49 551.83,-105.14 246.25,-69 177.16,-60.83 160.34,-54.36 93.25,-36 90.05,-35.13 86.76,-34.17 83.46,-33.16"/>
<polygon fill="black" stroke="black" points="84.23,-29.74 73.64,-30.06 82.12,-36.41 84.23,-29.74"/>
<text text-anchor="middle" x="259.75" y="-57.8" font-family="Times,serif" font-size="14.00">dep</text>
</g>
<!-- 2 -->
<g id="node3" class="node">
<title>2</title>
<ellipse fill="none" stroke="black" cx="174.25" cy="-18" rx="72.29" ry="18"/>
<text text-anchor="middle" x="174.25" y="-14.3" font-family="Times,serif" font-size="14.00">frequentadas</text>
</g>
<!-- 0&#45;&gt;2 -->
<g id="edge2" class="edge">
<title>0&#45;&gt;2</title>
<path fill="none" stroke="black" d="M1740.06,-103.76C1555.14,-102.11 485.09,-91.6 342.25,-69 300.53,-62.4 254.66,-48.26 221.41,-36.69"/>
<polygon fill="black" stroke="black" points="222.54,-33.38 211.95,-33.35 220.21,-39.98 222.54,-33.38"/>
<text text-anchor="middle" x="355.75" y="-57.8" font-family="Times,serif" font-size="14.00">dep</text>
</g>
<!-- 3 -->
<g id="node4" class="node">
<title>3</title>
<ellipse fill="none" stroke="black" cx="291.25" cy="-18" rx="27" ry="18"/>
<text text-anchor="middle" x="291.25" y="-14.3" font-family="Times,serif" font-size="14.00">por</text>
</g>
<!-- 0&#45;&gt;3 -->
<g id="edge3" class="edge">
<title>0&#45;&gt;3</title>
<path fill="none" stroke="black" d="M1740.22,-103.78C1562.03,-102.26 558.99,-92.71 425.25,-69 388.23,-62.44 348.13,-46.15 321.54,-33.93"/>
<polygon fill="black" stroke="black" points="322.92,-30.72 312.38,-29.64 319.95,-37.06 322.92,-30.72"/>
<text text-anchor="middle" x="438.75" y="-57.8" font-family="Times,serif" font-size="14.00">dep</text>
</g>
<!-- 4 -->
<g id="node5" class="node">
<title>4</title>
<ellipse fill="none" stroke="black" cx="363.25" cy="-18" rx="27" ry="18"/>
<text text-anchor="middle" x="363.25" y="-14.3" font-family="Times,serif" font-size="14.00">a</text>
</g>
<!-- 0&#45;&gt;4 -->
<g id="edge4" class="edge">
<title>0&#45;&gt;4</title>
<path fill="none" stroke="black" d="M1740.1,-103.98C1582.32,-103.76 782.02,-101.06 538.25,-69 475.29,-60.72 459.17,-57 399.25,-36 397.34,-35.33 395.4,-34.59 393.45,-33.81"/>
<polygon fill="black" stroke="black" points="394.44,-30.42 383.88,-29.64 391.65,-36.84 394.44,-30.42"/>
<text text-anchor="middle" x="551.75" y="-57.8" font-family="Times,serif" font-size="14.00">dep</text>
</g>
<!-- 5 -->
<g id="node6" class="node">
<title>5</title>
<ellipse fill="none" stroke="black" cx="466.25" cy="-18" rx="57.69" ry="18"/>
<text text-anchor="middle" x="466.25" y="-14.3" font-family="Times,serif" font-size="14.00">população</text>
</g>
<!-- 0&#45;&gt;5 -->
<g id="edge5" class="edge">
<title>0&#45;&gt;5</title>
<path fill="none" stroke="black" d="M1740.04,-104.1C1589.54,-104.54 857.77,-104.75 635.25,-69 592.22,-62.09 544.75,-47.39 511.11,-35.71"/>
<polygon fill="black" stroke="black" points="512.16,-32.37 501.56,-32.35 509.83,-38.97 512.16,-32.37"/>
<text text-anchor="middle" x="648.75" y="-57.8" font-family="Times,serif" font-size="14.00">dep</text>
</g>
<!-- 6 -->
<g id="node7" class="node">
<title>6</title>
<ellipse fill="none" stroke="black" cx="580.25" cy="-18" rx="37.89" ry="18"/>
<text text-anchor="middle" x="580.25" y="-14.3" font-family="Times,serif" font-size="14.00">negra</text>
</g>
<!-- 0&#45;&gt;6 -->
<g id="edge6" class="edge">
<title>0&#45;&gt;6</title>
<path fill="none" stroke="black" d="M1740.23,-104.19C1596.97,-105.04 925.11,-106.92 721.25,-69 684.13,-62.1 643.7,-46.91 615.69,-35.08"/>
<polygon fill="black" stroke="black" points="616.9,-31.78 606.33,-31.05 614.13,-38.22 616.9,-31.78"/>
<text text-anchor="middle" x="734.75" y="-57.8" font-family="Times,serif" font-size="14.00">dep</text>
</g>
<!-- 7 -->
<g id="node8" class="node">
<title>7</title>
<ellipse fill="none" stroke="black" cx="671.25" cy="-18" rx="36" ry="18"/>
<text text-anchor="middle" x="671.25" y="-14.3" font-family="Times,serif" font-size="14.00">estão</text>
</g>
<!-- 0&#45;&gt;7 -->
<g id="edge7" class="edge">
<title>0&#45;&gt;7</title>
<path fill="none" stroke="black" d="M1740.14,-104.19C1603.61,-104.96 990.44,-106.27 804.25,-69 769.35,-62.01 731.54,-47.02 705.19,-35.26"/>
<polygon fill="black" stroke="black" points="706.58,-32.05 696.02,-31.1 703.68,-38.42 706.58,-32.05"/>
<text text-anchor="middle" x="817.75" y="-57.8" font-family="Times,serif" font-size="14.00">dep</text>
</g>
<!-- 8 -->
<g id="node9" class="node">
<title>8</title>
<ellipse fill="none" stroke="black" cx="752.25" cy="-18" rx="27" ry="18"/>
<text text-anchor="middle" x="752.25" y="-14.3" font-family="Times,serif" font-size="14.00">a</text>
</g>
<!-- 0&#45;&gt;8 -->
<g id="edge8" class="edge">
<title>0&#45;&gt;8</title>
<path fill="none" stroke="black" d="M1740,-103.94C1610.65,-103.47 1057.68,-99.71 888.25,-69 850.55,-62.17 809.57,-45.77 782.56,-33.6"/>
<polygon fill="black" stroke="black" points="783.82,-30.33 773.27,-29.34 780.9,-36.69 783.82,-30.33"/>
<text text-anchor="middle" x="901.75" y="-57.8" font-family="Times,serif" font-size="14.00">dep</text>
</g>
<!-- 9 -->
<g id="node10" class="node">
<title>9</title>
<ellipse fill="none" stroke="black" cx="824.25" cy="-18" rx="27" ry="18"/>
<text text-anchor="middle" x="824.25" y="-14.3" font-family="Times,serif" font-size="14.00">ser</text>
</g>
<!-- 0&#45;&gt;9 -->
<g id="edge9" class="edge">
<title>0&#45;&gt;9</title>
<path fill="none" stroke="black" d="M1740.18,-103.41C1622.04,-100.74 1150.91,-89 1004.25,-69 939.19,-60.13 922.29,-57.48 860.25,-36 858.34,-35.34 856.39,-34.61 854.45,-33.83"/>
<polygon fill="black" stroke="black" points="855.43,-30.44 844.87,-29.67 852.65,-36.86 855.43,-30.44"/>
<text text-anchor="middle" x="1017.75" y="-57.8" font-family="Times,serif" font-size="14.00">dep</text>
</g>
<!-- 10 -->
<g id="node11" class="node">
<title>10</title>
<ellipse fill="none" stroke="black" cx="935.25" cy="-18" rx="65.79" ry="18"/>
<text text-anchor="middle" x="935.25" y="-14.3" font-family="Times,serif" font-size="14.00">incendiadas</text>
</g>
<!-- 0&#45;&gt;10 -->
<g id="edge10" class="edge">
<title>0&#45;&gt;10</title>
<path fill="none" stroke="black" d="M1740,-103.52C1630.18,-101.43 1219.82,-92.22 1092.25,-69 1053.65,-61.97 1011.34,-48.12 980.38,-36.78"/>
<polygon fill="black" stroke="black" points="981.34,-33.4 970.75,-33.2 978.9,-39.96 981.34,-33.4"/>
<text text-anchor="middle" x="1105.75" y="-57.8" font-family="Times,serif" font-size="14.00">dep</text>
</g>
<!-- 11 -->
<g id="node12" class="node">
<title>11</title>
<ellipse fill="none" stroke="black" cx="1046.25" cy="-18" rx="27" ry="18"/>
<text text-anchor="middle" x="1046.25" y="-14.3" font-family="Times,serif" font-size="14.00">e</text>
</g>
<!-- 0&#45;&gt;11 -->
<g id="edge11" class="edge">
<title>0&#45;&gt;11</title>
<path fill="none" stroke="black" d="M1740.16,-103.46C1638.94,-101.26 1283.05,-92.05 1172.25,-69 1138.07,-61.89 1101.21,-46.24 1076.24,-34.33"/>
<polygon fill="black" stroke="black" points="1077.48,-31.04 1066.95,-29.81 1074.41,-37.33 1077.48,-31.04"/>
<text text-anchor="middle" x="1185.75" y="-57.8" font-family="Times,serif" font-size="14.00">dep</text>
</g>
<!-- 12 -->
<g id="node13" class="node">
<title>12</title>
<ellipse fill="none" stroke="black" cx="1118.25" cy="-18" rx="27" ry="18"/>
<text text-anchor="middle" x="1118.25" y="-14.3" font-family="Times,serif" font-size="14.00">os</text>
</g>
<!-- 0&#45;&gt;12 -->
<g id="edge12" class="edge">
<title>0&#45;&gt;12</title>
<path fill="none" stroke="black" d="M1740.05,-104.19C1664.22,-104.26 1444.27,-101.45 1265.25,-69 1214.6,-59.82 1202.32,-54.37 1154.25,-36 1152.41,-35.3 1150.53,-34.54 1148.65,-33.75"/>
<polygon fill="black" stroke="black" points="1149.89,-30.47 1139.33,-29.61 1147.05,-36.87 1149.89,-30.47"/>
<text text-anchor="middle" x="1278.75" y="-57.8" font-family="Times,serif" font-size="14.00">dep</text>
</g>
<!-- 13 -->
<g id="node14" class="node">
<title>13</title>
<ellipse fill="none" stroke="black" cx="1205.25" cy="-18" rx="42.49" ry="18"/>
<text text-anchor="middle" x="1205.25" y="-14.3" font-family="Times,serif" font-size="14.00">líderes</text>
</g>
<!-- 0&#45;&gt;13 -->
<g id="edge13" class="edge">
<title>0&#45;&gt;13</title>
<path fill="none" stroke="black" d="M1739.94,-104.09C1672.6,-103.81 1493.54,-99.94 1348.25,-69 1311.66,-61.21 1271.59,-46.64 1243.19,-35.23"/>
<polygon fill="black" stroke="black" points="1244.24,-31.88 1233.66,-31.34 1241.6,-38.36 1244.24,-31.88"/>
<text text-anchor="middle" x="1361.75" y="-57.8" font-family="Times,serif" font-size="14.00">dep</text>
</g>
<!-- 14 -->
<g id="node15" class="node">
<title>14</title>
<ellipse fill="none" stroke="black" cx="1292.25" cy="-18" rx="27" ry="18"/>
<text text-anchor="middle" x="1292.25" y="-14.3" font-family="Times,serif" font-size="14.00">de</text>
</g>
<!-- 0&#45;&gt;14 -->
<g id="edge14" class="edge">
<title>0&#45;&gt;14</title>
<path fill="none" stroke="black" d="M1740.12,-102.82C1683.52,-99.98 1548.9,-91.28 1438.25,-69 1388.21,-58.92 1375.9,-54.28 1328.25,-36 1326.41,-35.29 1324.53,-34.54 1322.65,-33.74"/>
<polygon fill="black" stroke="black" points="1323.9,-30.47 1313.34,-29.6 1321.05,-36.86 1323.9,-30.47"/>
<text text-anchor="middle" x="1451.75" y="-57.8" font-family="Times,serif" font-size="14.00">dep</text>
</g>
<!-- 15 -->
<g id="node16" class="node">
<title>15</title>
<ellipse fill="none" stroke="black" cx="1364.25" cy="-18" rx="27" ry="18"/>
<text text-anchor="middle" x="1364.25" y="-14.3" font-family="Times,serif" font-size="14.00">as</text>
</g>
<!-- 0&#45;&gt;15 -->
<g id="edge15" class="edge">
<title>0&#45;&gt;15</title>
<path fill="none" stroke="black" d="M1740.41,-101.44C1678.96,-95.07 1523.85,-76.04 1400.25,-36 1398.32,-35.38 1396.37,-34.67 1394.42,-33.92"/>
<polygon fill="black" stroke="black" points="1395.39,-30.53 1384.82,-29.82 1392.64,-36.96 1395.39,-30.53"/>
<text text-anchor="middle" x="1532.75" y="-57.8" font-family="Times,serif" font-size="14.00">dep</text>
</g>
<!-- 16 -->
<g id="node17" class="node">
<title>16</title>
<ellipse fill="none" stroke="black" cx="1480.25" cy="-18" rx="71.49" ry="18"/>
<text text-anchor="middle" x="1480.25" y="-14.3" font-family="Times,serif" font-size="14.00">comunidades</text>
</g>
<!-- 0&#45;&gt;16 -->
<g id="edge16" class="edge">
<title>0&#45;&gt;16</title>
<path fill="none" stroke="black" d="M1742.78,-96.75C1696.91,-83.17 1596.99,-53.58 1534.5,-35.07"/>
<polygon fill="black" stroke="black" points="1535.39,-31.68 1524.81,-32.2 1533.41,-38.39 1535.39,-31.68"/>
<text text-anchor="middle" x="1654.75" y="-57.8" font-family="Times,serif" font-size="14.00">dep</text>
</g>
<!-- 17 -->
<g id="node18" class="node">
<title>17</title>
<ellipse fill="none" stroke="black" cx="1627.25" cy="-18" rx="57.69" ry="18"/>
<text text-anchor="middle" x="1627.25" y="-14.3" font-family="Times,serif" font-size="14.00">acreditam</text>
</g>
<!-- 0&#45;&gt;17 -->
<g id="edge17" class="edge">
<title>0&#45;&gt;17</title>
<path fill="none" stroke="black" d="M1747.78,-92.18C1725.5,-78.66 1688.61,-56.26 1661.5,-39.79"/>
<polygon fill="black" stroke="black" points="1663.08,-36.66 1652.71,-34.46 1659.44,-42.64 1663.08,-36.66"/>
<text text-anchor="middle" x="1719.75" y="-57.8" font-family="Times,serif" font-size="14.00">dep</text>
</g>
<!-- 18 -->
<g id="node19" class="node">
<title>18</title>
<ellipse fill="none" stroke="black" cx="1731.25" cy="-18" rx="27.9" ry="18"/>
<text text-anchor="middle" x="1731.25" y="-14.3" font-family="Times,serif" font-size="14.00">que</text>
</g>
<!-- 0&#45;&gt;18 -->
<g id="edge18" class="edge">
<title>0&#45;&gt;18</title>
<path fill="none" stroke="black" d="M1760.13,-87.21C1755.02,-75.14 1748.03,-58.64 1742.21,-44.89"/>
<polygon fill="black" stroke="black" points="1745.34,-43.31 1738.22,-35.47 1738.9,-46.04 1745.34,-43.31"/>
<text text-anchor="middle" x="1765.75" y="-57.8" font-family="Times,serif" font-size="14.00">dep</text>
</g>
<!-- 19 -->
<g id="node20" class="node">
<title>19</title>
<ellipse fill="none" stroke="black" cx="1804.25" cy="-18" rx="27" ry="18"/>
<text text-anchor="middle" x="1804.25" y="-14.3" font-family="Times,serif" font-size="14.00">são</text>
</g>
<!-- 0&#45;&gt;19 -->
<g id="edge19" class="edge">
<title>0&#45;&gt;19</title>
<path fill="none" stroke="black" d="M1774.38,-87.61C1779.62,-75.58 1786.84,-58.98 1792.87,-45.13"/>
<polygon fill="black" stroke="black" points="1796.23,-46.19 1797.01,-35.63 1789.81,-43.4 1796.23,-46.19"/>
<text text-anchor="middle" x="1801.75" y="-57.8" font-family="Times,serif" font-size="14.00">dep</text>
</g>
<!-- 20 -->
<g id="node21" class="node">
<title>20</title>
<ellipse fill="none" stroke="black" cx="1906.25" cy="-18" rx="56.59" ry="18"/>
<text text-anchor="middle" x="1906.25" y="-14.3" font-family="Times,serif" font-size="14.00">manobras</text>
</g>
<!-- 0&#45;&gt;20 -->
<g id="edge20" class="edge">
<title>0&#45;&gt;20</title>
<path fill="none" stroke="black" d="M1786.57,-92.18C1808.69,-78.66 1845.32,-56.26 1872.24,-39.79"/>
<polygon fill="black" stroke="black" points="1874.26,-42.66 1880.96,-34.46 1870.61,-36.69 1874.26,-42.66"/>
<text text-anchor="middle" x="1858.75" y="-57.8" font-family="Times,serif" font-size="14.00">dep</text>
</g>
<!-- 21 -->
<g id="node22" class="node">
<title>21</title>
<ellipse fill="none" stroke="black" cx="2008.25" cy="-18" rx="27" ry="18"/>
<text text-anchor="middle" x="2008.25" y="-14.3" font-family="Times,serif" font-size="14.00">de</text>
</g>
<!-- 0&#45;&gt;21 -->
<g id="edge21" class="edge">
<title>0&#45;&gt;21</title>
<path fill="none" stroke="black" d="M1791.61,-97.06C1830.39,-85.75 1908.33,-61.98 1972.25,-36 1974.07,-35.26 1975.94,-34.47 1977.81,-33.66"/>
<polygon fill="black" stroke="black" points="1979.43,-36.77 1987.1,-29.46 1976.54,-30.39 1979.43,-36.77"/>
<text text-anchor="middle" x="1936.75" y="-57.8" font-family="Times,serif" font-size="14.00">dep</text>
</g>
<!-- 22 -->
<g id="node23" class="node">
<title>22</title>
<ellipse fill="none" stroke="black" cx="2118.25" cy="-18" rx="64.99" ry="18"/>
<text text-anchor="middle" x="2118.25" y="-14.3" font-family="Times,serif" font-size="14.00">intimidação</text>
</g>
<!-- 0&#45;&gt;22 -->
<g id="edge22" class="edge">
<title>0&#45;&gt;22</title>
<path fill="none" stroke="black" d="M1793.46,-100.04C1829.81,-94.32 1897.47,-82.92 1954.25,-69 1993.28,-59.43 2036.77,-46.04 2069.15,-35.53"/>
<polygon fill="black" stroke="black" points="2070.4,-38.8 2078.82,-32.37 2068.23,-32.15 2070.4,-38.8"/>
<text text-anchor="middle" x="2022.75" y="-57.8" font-family="Times,serif" font-size="14.00">dep</text>
</g>
<!-- 23 -->
<g id="node24" class="node">
<title>23</title>
<ellipse fill="none" stroke="black" cx="2228.25" cy="-18" rx="27" ry="18"/>
<text text-anchor="middle" x="2228.25" y="-14.3" font-family="Times,serif" font-size="14.00">de</text>
</g>
<!-- 0&#45;&gt;23 -->
<g id="edge23" class="edge">
<title>0&#45;&gt;23</title>
<path fill="none" stroke="black" d="M1794.11,-102.83C1862.38,-99.2 2047.38,-85.21 2192.25,-36 2194.16,-35.35 2196.11,-34.63 2198.05,-33.85"/>
<polygon fill="black" stroke="black" points="2199.85,-36.89 2207.64,-29.71 2197.07,-30.47 2199.85,-36.89"/>
<text text-anchor="middle" x="2138.75" y="-57.8" font-family="Times,serif" font-size="14.00">dep</text>
</g>
<!-- 24 -->
<g id="node25" class="node">
<title>24</title>
<ellipse fill="none" stroke="black" cx="2300.25" cy="-18" rx="27" ry="18"/>
<text text-anchor="middle" x="2300.25" y="-14.3" font-family="Times,serif" font-size="14.00">os</text>
</g>
<!-- 0&#45;&gt;24 -->
<g id="edge24" class="edge">
<title>0&#45;&gt;24</title>
<path fill="none" stroke="black" d="M1794.4,-103.48C1858.15,-101.85 2022.15,-95.23 2156.25,-69 2205.5,-59.37 2217.43,-54.1 2264.25,-36 2266.08,-35.29 2267.96,-34.53 2269.84,-33.73"/>
<polygon fill="black" stroke="black" points="2271.44,-36.85 2279.15,-29.59 2268.59,-30.46 2271.44,-36.85"/>
<text text-anchor="middle" x="2228.75" y="-57.8" font-family="Times,serif" font-size="14.00">dep</text>
</g>
<!-- 25 -->
<g id="node26" class="node">
<title>25</title>
<ellipse fill="none" stroke="black" cx="2373.25" cy="-18" rx="27.9" ry="18"/>
<text text-anchor="middle" x="2373.25" y="-14.3" font-family="Times,serif" font-size="14.00">que</text>
</g>
<!-- 0&#45;&gt;25 -->
<g id="edge25" class="edge">
<title>0&#45;&gt;25</title>
<path fill="none" stroke="black" d="M1794.36,-104.64C1867.97,-105.8 2077.31,-105.39 2246.25,-69 2280.55,-61.61 2317.66,-46.04 2342.85,-34.23"/>
<polygon fill="black" stroke="black" points="2344.38,-37.37 2351.9,-29.91 2341.36,-31.06 2344.38,-37.37"/>
<text text-anchor="middle" x="2306.75" y="-57.8" font-family="Times,serif" font-size="14.00">dep</text>
</g>
<!-- 26 -->
<g id="node27" class="node">
<title>26</title>
<ellipse fill="none" stroke="black" cx="2466.25" cy="-18" rx="46.59" ry="18"/>
<text text-anchor="middle" x="2466.25" y="-14.3" font-family="Times,serif" font-size="14.00">sonham</text>
</g>
<!-- 0&#45;&gt;26 -->
<g id="edge26" class="edge">
<title>0&#45;&gt;26</title>
<path fill="none" stroke="black" d="M1794.24,-103.29C1891.13,-100.58 2220.99,-90 2324.25,-69 2360.1,-61.71 2399.21,-47.44 2427.28,-36"/>
<polygon fill="black" stroke="black" points="2428.83,-39.15 2436.73,-32.09 2426.15,-32.68 2428.83,-39.15"/>
<text text-anchor="middle" x="2389.75" y="-57.8" font-family="Times,serif" font-size="14.00">dep</text>
</g>
<!-- 27 -->
<g id="node28" class="node">
<title>27</title>
<ellipse fill="none" stroke="black" cx="2561.25" cy="-18" rx="29.8" ry="18"/>
<text text-anchor="middle" x="2561.25" y="-14.3" font-family="Times,serif" font-size="14.00">com</text>
</g>
<!-- 0&#45;&gt;27 -->
<g id="edge27" class="edge">
<title>0&#45;&gt;27</title>
<path fill="none" stroke="black" d="M1794.13,-103.33C1899.77,-100.6 2286.41,-89.37 2407.25,-69 2459.68,-60.16 2472.21,-54 2522.25,-36 2524.47,-35.2 2526.76,-34.33 2529.04,-33.43"/>
<polygon fill="black" stroke="black" points="2530.45,-36.63 2538.35,-29.58 2527.77,-30.17 2530.45,-36.63"/>
<text text-anchor="middle" x="2485.75" y="-57.8" font-family="Times,serif" font-size="14.00">dep</text>
</g>
<!-- 28 -->
<g id="node29" class="node">
<title>28</title>
<ellipse fill="none" stroke="black" cx="2636.25" cy="-18" rx="27" ry="18"/>
<text text-anchor="middle" x="2636.25" y="-14.3" font-family="Times,serif" font-size="14.00">o</text>
</g>
<!-- 0&#45;&gt;28 -->
<g id="edge28" class="edge">
<title>0&#45;&gt;28</title>
<path fill="none" stroke="black" d="M1794.19,-103.73C1909.66,-102.41 2363.28,-95.59 2503.25,-69 2539.94,-62.03 2579.75,-45.81 2606.16,-33.73"/>
<polygon fill="black" stroke="black" points="2607.67,-36.89 2615.25,-29.49 2604.71,-30.54 2607.67,-36.89"/>
<text text-anchor="middle" x="2569.75" y="-57.8" font-family="Times,serif" font-size="14.00">dep</text>
</g>
<!-- 29 -->
<g id="node30" class="node">
<title>29</title>
<ellipse fill="none" stroke="black" cx="2732.25" cy="-18" rx="51.19" ry="18"/>
<text text-anchor="middle" x="2732.25" y="-14.3" font-family="Times,serif" font-size="14.00">regresso</text>
</g>
<!-- 0&#45;&gt;29 -->
<g id="edge29" class="edge">
<title>0&#45;&gt;29</title>
<path fill="none" stroke="black" d="M1794.3,-103.89C1917.96,-103.25 2430.1,-98.79 2587.25,-69 2623.8,-62.07 2663.64,-47.81 2692.29,-36.29"/>
<polygon fill="black" stroke="black" points="2693.63,-39.53 2701.56,-32.5 2690.98,-33.05 2693.63,-39.53"/>
<text text-anchor="middle" x="2653.75" y="-57.8" font-family="Times,serif" font-size="14.00">dep</text>
</g>
<!-- 30 -->
<g id="node31" class="node">
<title>30</title>
<ellipse fill="none" stroke="black" cx="2828.25" cy="-18" rx="27" ry="18"/>
<text text-anchor="middle" x="2828.25" y="-14.3" font-family="Times,serif" font-size="14.00">de</text>
</g>
<!-- 0&#45;&gt;30 -->
<g id="edge30" class="edge">
<title>0&#45;&gt;30</title>
<path fill="none" stroke="black" d="M1794.35,-103.78C1925.59,-102.6 2495.83,-95.96 2671.25,-69 2726.34,-60.53 2739.96,-55.31 2792.25,-36 2794.09,-35.32 2795.98,-34.58 2797.86,-33.8"/>
<polygon fill="black" stroke="black" points="2799.45,-36.93 2807.19,-29.7 2796.63,-30.52 2799.45,-36.93"/>
<text text-anchor="middle" x="2754.75" y="-57.8" font-family="Times,serif" font-size="14.00">dep</text>
</g>
<!-- 31 -->
<g id="node32" class="node">
<title>31</title>
<ellipse fill="none" stroke="black" cx="2900.25" cy="-18" rx="27" ry="18"/>
<text text-anchor="middle" x="2900.25" y="-14.3" font-family="Times,serif" font-size="14.00">a</text>
</g>
<!-- 0&#45;&gt;31 -->
<g id="edge31" class="edge">
<title>0&#45;&gt;31</title>
<path fill="none" stroke="black" d="M1794.59,-104.19C1935.13,-104.97 2577.21,-106.43 2772.25,-69 2807.36,-62.26 2845.22,-46.28 2870.59,-34.18"/>
<polygon fill="black" stroke="black" points="2872.2,-37.29 2879.66,-29.77 2869.14,-31 2872.2,-37.29"/>
<text text-anchor="middle" x="2836.75" y="-57.8" font-family="Times,serif" font-size="14.00">dep</text>
</g>
<!-- 32 -->
<g id="node33" class="node">
<title>32</title>
<ellipse fill="none" stroke="black" cx="2972.25" cy="-18" rx="27" ry="18"/>
<text text-anchor="middle" x="2972.25" y="-14.3" font-family="Times,serif" font-size="14.00">«</text>
</g>
<!-- 0&#45;&gt;32 -->
<g id="edge32" class="edge">
<title>0&#45;&gt;32</title>
<path fill="none" stroke="black" d="M1794.28,-103.69C1951.8,-101.84 2747.77,-91.4 2854.25,-69 2886.01,-62.32 2919.9,-47.01 2943.17,-35.08"/>
<polygon fill="black" stroke="black" points="2944.92,-38.12 2952.15,-30.37 2941.67,-31.92 2944.92,-38.12"/>
<text text-anchor="middle" x="2914.75" y="-57.8" font-family="Times,serif" font-size="14.00">dep</text>
</g>
<!-- 33 -->
<g id="node34" class="node">
<title>33</title>
<ellipse fill="none" stroke="black" cx="3081.25" cy="-18" rx="64.19" ry="18"/>
<text text-anchor="middle" x="3081.25" y="-14.3" font-family="Times,serif" font-size="14.00">supremacia</text>
</g>
<!-- 0&#45;&gt;33 -->
<g id="edge33" class="edge">
<title>0&#45;&gt;33</title>
<path fill="none" stroke="black" d="M1794.31,-103.66C1958.43,-101.55 2817.03,-89.6 2932.25,-69 2968.93,-62.44 3008.87,-48.65 3038.16,-37.21"/>
<polygon fill="black" stroke="black" points="3039.67,-40.38 3047.67,-33.44 3037.08,-33.88 3039.67,-40.38"/>
<text text-anchor="middle" x="3004.75" y="-57.8" font-family="Times,serif" font-size="14.00">dep</text>
</g>
<!-- 34 -->
<g id="node35" class="node">
<title>34</title>
<ellipse fill="none" stroke="black" cx="3206.25" cy="-18" rx="42.49" ry="18"/>
<text text-anchor="middle" x="3206.25" y="-14.3" font-family="Times,serif" font-size="14.00">branca</text>
</g>
<!-- 0&#45;&gt;34 -->
<g id="edge34" class="edge">
<title>0&#45;&gt;34</title>
<path fill="none" stroke="black" d="M1794.45,-104.04C1954.35,-104.18 2773.24,-103.18 3022.25,-69 3072.31,-62.13 3128.09,-45.67 3164.97,-33.51"/>
<polygon fill="black" stroke="black" points="3166.48,-36.69 3174.85,-30.2 3164.26,-30.06 3166.48,-36.69"/>
<text text-anchor="middle" x="3107.75" y="-57.8" font-family="Times,serif" font-size="14.00">dep</text>
</g>
<!-- 35 -->
<g id="node36" class="node">
<title>35</title>
<ellipse fill="none" stroke="black" cx="3293.25" cy="-18" rx="27" ry="18"/>
<text text-anchor="middle" x="3293.25" y="-14.3" font-family="Times,serif" font-size="14.00">»</text>
</g>
<!-- 0&#45;&gt;35 -->
<g id="edge35" class="edge">
<title>0&#45;&gt;35</title>
<path fill="none" stroke="black" d="M1794.48,-104.11C1962,-104.67 2854.61,-105.86 3125.25,-69 3185.17,-60.84 3200.3,-56.34 3257.25,-36 3259.1,-35.34 3260.99,-34.61 3262.88,-33.84"/>
<polygon fill="black" stroke="black" points="3264.45,-36.98 3272.22,-29.77 3261.65,-30.56 3264.45,-36.98"/>
<text text-anchor="middle" x="3217.75" y="-57.8" font-family="Times,serif" font-size="14.00">dep</text>
</g>
<!-- 36 -->
<g id="node37" class="node">
<title>36</title>
<ellipse fill="none" stroke="black" cx="3365.25" cy="-18" rx="27" ry="18"/>
<text text-anchor="middle" x="3365.25" y="-14.3" font-family="Times,serif" font-size="14.00">.</text>
</g>
<!-- 0&#45;&gt;36 -->
<g id="edge36" class="edge">
<title>0&#45;&gt;36</title>
<path fill="none" stroke="black" d="M1794.36,-103.86C1982.32,-102.86 3088.46,-95.82 3235.25,-69 3270.89,-62.49 3309.35,-46.47 3335.12,-34.3"/>
<polygon fill="black" stroke="black" points="3336.85,-37.35 3344.34,-29.85 3333.81,-31.04 3336.85,-37.35"/>
<text text-anchor="middle" x="3300.75" y="-57.8" font-family="Times,serif" font-size="14.00">dep</text>
</g>
</g>
</svg>
