<?xml version="1.0" encoding="UTF-8" standalone="no"?>
<!DOCTYPE svg PUBLIC "-//W3C//DTD SVG 1.1//EN"
 "http://www.w3.org/Graphics/SVG/1.1/DTD/svg11.dtd">
<!-- Generated by graphviz version 2.42.4 (0)
 -->
<!-- Pages: 1 -->
<svg width="1317pt" height="131pt"
 viewBox="0.00 0.00 1316.55 131.00" xmlns="http://www.w3.org/2000/svg" xmlns:xlink="http://www.w3.org/1999/xlink">
<g id="graph0" class="graph" transform="scale(1 1) rotate(0) translate(4 127)">
<polygon fill="white" stroke="transparent" points="-4,4 -4,-127 1312.55,-127 1312.55,4 -4,4"/>
<!-- 0 -->
<g id="node1" class="node">
<title>0</title>
<ellipse fill="none" stroke="black" cx="654.55" cy="-105" rx="27" ry="18"/>
<text text-anchor="middle" x="654.55" y="-101.3" font-family="Times,serif" font-size="14.00">Em</text>
</g>
<!-- 1 -->
<g id="node2" class="node">
<title>1</title>
<ellipse fill="none" stroke="black" cx="43.55" cy="-18" rx="43.59" ry="18"/>
<text text-anchor="middle" x="43.55" y="-14.3" font-family="Times,serif" font-size="14.00">termos</text>
</g>
<!-- 0&#45;&gt;1 -->
<g id="edge1" class="edge">
<title>0&#45;&gt;1</title>
<path fill="none" stroke="black" d="M627.58,-103.25C560.21,-101.04 379.27,-93.16 230.55,-69 169.58,-59.1 154.94,-52.94 95.55,-36 92.4,-35.1 89.15,-34.14 85.89,-33.14"/>
<polygon fill="black" stroke="black" points="86.75,-29.74 76.16,-30.08 84.65,-36.42 86.75,-29.74"/>
<text text-anchor="middle" x="244.05" y="-57.8" font-family="Times,serif" font-size="14.00">dep</text>
</g>
<!-- 2 -->
<g id="node3" class="node">
<title>2</title>
<ellipse fill="none" stroke="black" cx="166.55" cy="-18" rx="61.99" ry="18"/>
<text text-anchor="middle" x="166.55" y="-14.3" font-family="Times,serif" font-size="14.00">individuais</text>
</g>
<!-- 0&#45;&gt;2 -->
<g id="edge2" class="edge">
<title>0&#45;&gt;2</title>
<path fill="none" stroke="black" d="M627.42,-103.23C569.51,-101.14 429.75,-93.74 315.55,-69 279.49,-61.19 239.95,-47.68 210.67,-36.67"/>
<polygon fill="black" stroke="black" points="211.75,-33.34 201.16,-33.05 209.26,-39.88 211.75,-33.34"/>
<text text-anchor="middle" x="329.05" y="-57.8" font-family="Times,serif" font-size="14.00">dep</text>
</g>
<!-- 3 -->
<g id="node4" class="node">
<title>3</title>
<ellipse fill="none" stroke="black" cx="273.55" cy="-18" rx="27" ry="18"/>
<text text-anchor="middle" x="273.55" y="-14.3" font-family="Times,serif" font-size="14.00">,</text>
</g>
<!-- 0&#45;&gt;3 -->
<g id="edge3" class="edge">
<title>0&#45;&gt;3</title>
<path fill="none" stroke="black" d="M627.66,-102.81C579.13,-100.15 474,-92.03 388.55,-69 358.38,-60.87 325.9,-46.14 303.18,-34.77"/>
<polygon fill="black" stroke="black" points="304.57,-31.55 294.07,-30.13 301.39,-37.79 304.57,-31.55"/>
<text text-anchor="middle" x="402.05" y="-57.8" font-family="Times,serif" font-size="14.00">dep</text>
</g>
<!-- 4 -->
<g id="node5" class="node">
<title>4</title>
<ellipse fill="none" stroke="black" cx="345.55" cy="-18" rx="27" ry="18"/>
<text text-anchor="middle" x="345.55" y="-14.3" font-family="Times,serif" font-size="14.00">a</text>
</g>
<!-- 0&#45;&gt;4 -->
<g id="edge4" class="edge">
<title>0&#45;&gt;4</title>
<path fill="none" stroke="black" d="M628.1,-101.22C590.03,-96.78 517.82,-86.74 458.55,-69 422.88,-58.32 415.5,-51.29 381.55,-36 379.75,-35.19 377.91,-34.35 376.05,-33.5"/>
<polygon fill="black" stroke="black" points="377.35,-30.24 366.81,-29.2 374.4,-36.59 377.35,-30.24"/>
<text text-anchor="middle" x="472.05" y="-57.8" font-family="Times,serif" font-size="14.00">dep</text>
</g>
<!-- 5 -->
<g id="node6" class="node">
<title>5</title>
<ellipse fill="none" stroke="black" cx="417.55" cy="-18" rx="27" ry="18"/>
<text text-anchor="middle" x="417.55" y="-14.3" font-family="Times,serif" font-size="14.00">A.</text>
</g>
<!-- 0&#45;&gt;5 -->
<g id="edge5" class="edge">
<title>0&#45;&gt;5</title>
<path fill="none" stroke="black" d="M629.02,-98.61C602.31,-92.64 559.36,-82.11 523.55,-69 491.25,-57.18 484.65,-50.68 453.55,-36 451.76,-35.16 449.93,-34.3 448.09,-33.42"/>
<polygon fill="black" stroke="black" points="449.4,-30.17 438.87,-29.07 446.41,-36.5 449.4,-30.17"/>
<text text-anchor="middle" x="537.05" y="-57.8" font-family="Times,serif" font-size="14.00">dep</text>
</g>
<!-- 6 -->
<g id="node7" class="node">
<title>6</title>
<ellipse fill="none" stroke="black" cx="496.55" cy="-18" rx="33.6" ry="18"/>
<text text-anchor="middle" x="496.55" y="-14.3" font-family="Times,serif" font-size="14.00">Silva</text>
</g>
<!-- 0&#45;&gt;6 -->
<g id="edge6" class="edge">
<title>0&#45;&gt;6</title>
<path fill="none" stroke="black" d="M632.59,-94.49C617.47,-87.76 597.05,-78.32 579.55,-69 561.43,-59.35 541.72,-47.54 526.05,-37.81"/>
<polygon fill="black" stroke="black" points="527.68,-34.7 517.34,-32.37 523.97,-40.64 527.68,-34.7"/>
<text text-anchor="middle" x="593.05" y="-57.8" font-family="Times,serif" font-size="14.00">dep</text>
</g>
<!-- 7 -->
<g id="node8" class="node">
<title>7</title>
<ellipse fill="none" stroke="black" cx="575.55" cy="-18" rx="27" ry="18"/>
<text text-anchor="middle" x="575.55" y="-14.3" font-family="Times,serif" font-size="14.00">&amp;</text>
</g>
<!-- 0&#45;&gt;7 -->
<g id="edge7" class="edge">
<title>0&#45;&gt;7</title>
<path fill="none" stroke="black" d="M640.79,-89.19C628.44,-75.91 610.15,-56.23 596.07,-41.08"/>
<polygon fill="black" stroke="black" points="598.52,-38.58 589.15,-33.64 593.39,-43.34 598.52,-38.58"/>
<text text-anchor="middle" x="634.05" y="-57.8" font-family="Times,serif" font-size="14.00">dep</text>
</g>
<!-- 8 -->
<g id="node9" class="node">
<title>8</title>
<ellipse fill="none" stroke="black" cx="654.55" cy="-18" rx="33.6" ry="18"/>
<text text-anchor="middle" x="654.55" y="-14.3" font-family="Times,serif" font-size="14.00">Silva</text>
</g>
<!-- 0&#45;&gt;8 -->
<g id="edge8" class="edge">
<title>0&#45;&gt;8</title>
<path fill="none" stroke="black" d="M654.55,-86.8C654.55,-75.16 654.55,-59.55 654.55,-46.24"/>
<polygon fill="black" stroke="black" points="658.05,-46.18 654.55,-36.18 651.05,-46.18 658.05,-46.18"/>
<text text-anchor="middle" x="668.05" y="-57.8" font-family="Times,serif" font-size="14.00">dep</text>
</g>
<!-- 9 -->
<g id="node10" class="node">
<title>9</title>
<ellipse fill="none" stroke="black" cx="755.55" cy="-18" rx="49.29" ry="18"/>
<text text-anchor="middle" x="755.55" y="-14.3" font-family="Times,serif" font-size="14.00">registou</text>
</g>
<!-- 0&#45;&gt;9 -->
<g id="edge9" class="edge">
<title>0&#45;&gt;9</title>
<path fill="none" stroke="black" d="M670.77,-90.34C686.34,-77.24 710.15,-57.21 728.57,-41.7"/>
<polygon fill="black" stroke="black" points="731.21,-44.06 736.61,-34.94 726.7,-38.7 731.21,-44.06"/>
<text text-anchor="middle" x="725.05" y="-57.8" font-family="Times,serif" font-size="14.00">dep</text>
</g>
<!-- 10 -->
<g id="node11" class="node">
<title>10</title>
<ellipse fill="none" stroke="black" cx="861.55" cy="-18" rx="38.99" ry="18"/>
<text text-anchor="middle" x="861.55" y="-14.3" font-family="Times,serif" font-size="14.00">lucros</text>
</g>
<!-- 0&#45;&gt;10 -->
<g id="edge10" class="edge">
<title>0&#45;&gt;10</title>
<path fill="none" stroke="black" d="M677.39,-95.06C695.18,-88.05 720.48,-78.02 742.55,-69 770.07,-57.74 801.04,-44.72 824.49,-34.79"/>
<polygon fill="black" stroke="black" points="825.88,-38 833.72,-30.87 823.14,-31.55 825.88,-38"/>
<text text-anchor="middle" x="793.05" y="-57.8" font-family="Times,serif" font-size="14.00">dep</text>
</g>
<!-- 11 -->
<g id="node12" class="node">
<title>11</title>
<ellipse fill="none" stroke="black" cx="945.55" cy="-18" rx="27" ry="18"/>
<text text-anchor="middle" x="945.55" y="-14.3" font-family="Times,serif" font-size="14.00">de</text>
</g>
<!-- 0&#45;&gt;11 -->
<g id="edge11" class="edge">
<title>0&#45;&gt;11</title>
<path fill="none" stroke="black" d="M680.14,-99.08C711.21,-92.93 765.08,-81.64 810.55,-69 855.23,-56.57 866.5,-53.27 909.55,-36 911.37,-35.27 913.24,-34.49 915.12,-33.68"/>
<polygon fill="black" stroke="black" points="916.73,-36.79 924.41,-29.49 913.86,-30.41 916.73,-36.79"/>
<text text-anchor="middle" x="875.05" y="-57.8" font-family="Times,serif" font-size="14.00">dep</text>
</g>
<!-- 12 -->
<g id="node13" class="node">
<title>12</title>
<ellipse fill="none" stroke="black" cx="1027.55" cy="-18" rx="37.09" ry="18"/>
<text text-anchor="middle" x="1027.55" y="-14.3" font-family="Times,serif" font-size="14.00">444,6</text>
</g>
<!-- 0&#45;&gt;12 -->
<g id="edge12" class="edge">
<title>0&#45;&gt;12</title>
<path fill="none" stroke="black" d="M681.32,-101.9C725.75,-98 817.29,-88.25 892.55,-69 926.94,-60.2 964.74,-45.77 991.56,-34.67"/>
<polygon fill="black" stroke="black" points="993.05,-37.84 1000.92,-30.75 990.35,-31.39 993.05,-37.84"/>
<text text-anchor="middle" x="952.05" y="-57.8" font-family="Times,serif" font-size="14.00">dep</text>
</g>
<!-- 13 -->
<g id="node14" class="node">
<title>13</title>
<ellipse fill="none" stroke="black" cx="1109.55" cy="-18" rx="27" ry="18"/>
<text text-anchor="middle" x="1109.55" y="-14.3" font-family="Times,serif" font-size="14.00">mil</text>
</g>
<!-- 0&#45;&gt;13 -->
<g id="edge13" class="edge">
<title>0&#45;&gt;13</title>
<path fill="none" stroke="black" d="M681.38,-102.8C736.1,-99.96 864.31,-91.31 969.55,-69 1016.98,-58.94 1028.41,-53.73 1073.55,-36 1075.38,-35.28 1077.25,-34.51 1079.13,-33.71"/>
<polygon fill="black" stroke="black" points="1080.73,-36.83 1088.43,-29.55 1077.88,-30.44 1080.73,-36.83"/>
<text text-anchor="middle" x="1040.05" y="-57.8" font-family="Times,serif" font-size="14.00">dep</text>
</g>
<!-- 14 -->
<g id="node15" class="node">
<title>14</title>
<ellipse fill="none" stroke="black" cx="1195.55" cy="-18" rx="40.89" ry="18"/>
<text text-anchor="middle" x="1195.55" y="-14.3" font-family="Times,serif" font-size="14.00">contos</text>
</g>
<!-- 0&#45;&gt;14 -->
<g id="edge14" class="edge">
<title>0&#45;&gt;14</title>
<path fill="none" stroke="black" d="M681.8,-104.07C747.34,-103.7 918.67,-99.64 1057.55,-69 1092.67,-61.25 1131.02,-46.84 1158.36,-35.48"/>
<polygon fill="black" stroke="black" points="1160.05,-38.56 1167.9,-31.45 1157.33,-32.11 1160.05,-38.56"/>
<text text-anchor="middle" x="1122.05" y="-57.8" font-family="Times,serif" font-size="14.00">dep</text>
</g>
<!-- 15 -->
<g id="node16" class="node">
<title>15</title>
<ellipse fill="none" stroke="black" cx="1281.55" cy="-18" rx="27" ry="18"/>
<text text-anchor="middle" x="1281.55" y="-14.3" font-family="Times,serif" font-size="14.00">.</text>
</g>
<!-- 0&#45;&gt;15 -->
<g id="edge15" class="edge">
<title>0&#45;&gt;15</title>
<path fill="none" stroke="black" d="M681.64,-104.21C755.69,-104.33 967.43,-101.55 1139.55,-69 1188.03,-59.83 1199.57,-53.91 1245.55,-36 1247.38,-35.28 1249.25,-34.52 1251.13,-33.72"/>
<polygon fill="black" stroke="black" points="1252.74,-36.84 1260.44,-29.57 1249.88,-30.45 1252.74,-36.84"/>
<text text-anchor="middle" x="1211.05" y="-57.8" font-family="Times,serif" font-size="14.00">dep</text>
</g>
</g>
</svg>
