<?xml version="1.0" encoding="UTF-8" standalone="no"?>
<!DOCTYPE svg PUBLIC "-//W3C//DTD SVG 1.1//EN"
 "http://www.w3.org/Graphics/SVG/1.1/DTD/svg11.dtd">
<!-- Generated by graphviz version 2.42.4 (0)
 -->
<!-- Pages: 1 -->
<svg width="1699pt" height="131pt"
 viewBox="0.00 0.00 1699.50 131.00" xmlns="http://www.w3.org/2000/svg" xmlns:xlink="http://www.w3.org/1999/xlink">
<g id="graph0" class="graph" transform="scale(1 1) rotate(0) translate(4 127)">
<polygon fill="white" stroke="transparent" points="-4,4 -4,-127 1695.5,-127 1695.5,4 -4,4"/>
<!-- 0 -->
<g id="node1" class="node">
<title>0</title>
<ellipse fill="none" stroke="black" cx="865.5" cy="-105" rx="43.59" ry="18"/>
<text text-anchor="middle" x="865.5" y="-101.3" font-family="Times,serif" font-size="14.00">Porque</text>
</g>
<!-- 1 -->
<g id="node2" class="node">
<title>1</title>
<ellipse fill="none" stroke="black" cx="45.5" cy="-18" rx="45.49" ry="18"/>
<text text-anchor="middle" x="45.5" y="-14.3" font-family="Times,serif" font-size="14.00">marcou</text>
</g>
<!-- 0&#45;&gt;1 -->
<g id="edge1" class="edge">
<title>0&#45;&gt;1</title>
<path fill="none" stroke="black" d="M821.74,-103.18C693.54,-100.53 320.3,-91.09 200.5,-69 160.48,-61.62 116.46,-46.74 85.6,-35.12"/>
<polygon fill="black" stroke="black" points="86.65,-31.77 76.06,-31.47 84.15,-38.31 86.65,-31.77"/>
<text text-anchor="middle" x="214" y="-57.8" font-family="Times,serif" font-size="14.00">dep</text>
</g>
<!-- 2 -->
<g id="node3" class="node">
<title>2</title>
<ellipse fill="none" stroke="black" cx="138.5" cy="-18" rx="29.8" ry="18"/>
<text text-anchor="middle" x="138.5" y="-14.3" font-family="Times,serif" font-size="14.00">dois</text>
</g>
<!-- 0&#45;&gt;2 -->
<g id="edge2" class="edge">
<title>0&#45;&gt;2</title>
<path fill="none" stroke="black" d="M821.68,-104.37C725.9,-104.51 490.95,-101.2 297.5,-69 242.93,-59.92 229.65,-54.43 177.5,-36 175.26,-35.21 172.98,-34.35 170.69,-33.46"/>
<polygon fill="black" stroke="black" points="171.95,-30.19 161.38,-29.62 169.29,-36.66 171.95,-30.19"/>
<text text-anchor="middle" x="311" y="-57.8" font-family="Times,serif" font-size="14.00">dep</text>
</g>
<!-- 3 -->
<g id="node4" class="node">
<title>3</title>
<ellipse fill="none" stroke="black" cx="221.5" cy="-18" rx="35.19" ry="18"/>
<text text-anchor="middle" x="221.5" y="-14.3" font-family="Times,serif" font-size="14.00">golos</text>
</g>
<!-- 0&#45;&gt;3 -->
<g id="edge3" class="edge">
<title>0&#45;&gt;3</title>
<path fill="none" stroke="black" d="M822.01,-103C739.94,-100.6 556.75,-92.83 404.5,-69 342.19,-59.25 326.78,-54.51 266.5,-36 263.73,-35.15 260.88,-34.22 258.03,-33.24"/>
<polygon fill="black" stroke="black" points="259.03,-29.88 248.43,-29.81 256.67,-36.47 259.03,-29.88"/>
<text text-anchor="middle" x="418" y="-57.8" font-family="Times,serif" font-size="14.00">dep</text>
</g>
<!-- 4 -->
<g id="node5" class="node">
<title>4</title>
<ellipse fill="none" stroke="black" cx="335.5" cy="-18" rx="60.39" ry="18"/>
<text text-anchor="middle" x="335.5" y="-14.3" font-family="Times,serif" font-size="14.00">magníficos</text>
</g>
<!-- 0&#45;&gt;4 -->
<g id="edge4" class="edge">
<title>0&#45;&gt;4</title>
<path fill="none" stroke="black" d="M822.14,-102.99C751.99,-100.67 609.54,-93.14 491.5,-69 453.28,-61.18 411.23,-47.39 380.43,-36.27"/>
<polygon fill="black" stroke="black" points="381.44,-32.91 370.85,-32.76 379.04,-39.48 381.44,-32.91"/>
<text text-anchor="middle" x="505" y="-57.8" font-family="Times,serif" font-size="14.00">dep</text>
</g>
<!-- 5 -->
<g id="node6" class="node">
<title>5</title>
<ellipse fill="none" stroke="black" cx="440.5" cy="-18" rx="27" ry="18"/>
<text text-anchor="middle" x="440.5" y="-14.3" font-family="Times,serif" font-size="14.00">a</text>
</g>
<!-- 0&#45;&gt;5 -->
<g id="edge5" class="edge">
<title>0&#45;&gt;5</title>
<path fill="none" stroke="black" d="M822.44,-101.46C765.58,-97.5 662.57,-88.21 576.5,-69 530.82,-58.8 519.96,-53.36 476.5,-36 474.67,-35.27 472.8,-34.49 470.92,-33.68"/>
<polygon fill="black" stroke="black" points="472.18,-30.41 461.63,-29.51 469.31,-36.8 472.18,-30.41"/>
<text text-anchor="middle" x="590" y="-57.8" font-family="Times,serif" font-size="14.00">dep</text>
</g>
<!-- 6 -->
<g id="node7" class="node">
<title>6</title>
<ellipse fill="none" stroke="black" cx="512.5" cy="-18" rx="27" ry="18"/>
<text text-anchor="middle" x="512.5" y="-14.3" font-family="Times,serif" font-size="14.00">o</text>
</g>
<!-- 0&#45;&gt;6 -->
<g id="edge6" class="edge">
<title>0&#45;&gt;6</title>
<path fill="none" stroke="black" d="M824.13,-99.07C762.54,-90.86 643.78,-71.65 548.5,-36 546.65,-35.31 544.77,-34.56 542.89,-33.78"/>
<polygon fill="black" stroke="black" points="544.13,-30.5 533.56,-29.66 541.3,-36.9 544.13,-30.5"/>
<text text-anchor="middle" x="673" y="-57.8" font-family="Times,serif" font-size="14.00">dep</text>
</g>
<!-- 7 -->
<g id="node8" class="node">
<title>7</title>
<ellipse fill="none" stroke="black" cx="611.5" cy="-18" rx="53.89" ry="18"/>
<text text-anchor="middle" x="611.5" y="-14.3" font-family="Times,serif" font-size="14.00">Marítimo</text>
</g>
<!-- 0&#45;&gt;7 -->
<g id="edge7" class="edge">
<title>0&#45;&gt;7</title>
<path fill="none" stroke="black" d="M828.42,-95.53C801.75,-89.11 765.07,-79.61 733.5,-69 705.65,-59.65 675.07,-47.11 651.49,-36.93"/>
<polygon fill="black" stroke="black" points="652.73,-33.65 642.17,-32.87 649.94,-40.07 652.73,-33.65"/>
<text text-anchor="middle" x="747" y="-57.8" font-family="Times,serif" font-size="14.00">dep</text>
</g>
<!-- 8 -->
<g id="node9" class="node">
<title>8</title>
<ellipse fill="none" stroke="black" cx="710.5" cy="-18" rx="27" ry="18"/>
<text text-anchor="middle" x="710.5" y="-14.3" font-family="Times,serif" font-size="14.00">e</text>
</g>
<!-- 0&#45;&gt;8 -->
<g id="edge8" class="edge">
<title>0&#45;&gt;8</title>
<path fill="none" stroke="black" d="M835.76,-91.67C821.26,-85.37 803.72,-77.28 788.5,-69 770.95,-59.45 752.06,-47.4 737.27,-37.52"/>
<polygon fill="black" stroke="black" points="738.89,-34.38 728.64,-31.69 734.97,-40.18 738.89,-34.38"/>
<text text-anchor="middle" x="802" y="-57.8" font-family="Times,serif" font-size="14.00">dep</text>
</g>
<!-- 9 -->
<g id="node10" class="node">
<title>9</title>
<ellipse fill="none" stroke="black" cx="782.5" cy="-18" rx="27" ry="18"/>
<text text-anchor="middle" x="782.5" y="-14.3" font-family="Times,serif" font-size="14.00">,</text>
</g>
<!-- 0&#45;&gt;9 -->
<g id="edge9" class="edge">
<title>0&#45;&gt;9</title>
<path fill="none" stroke="black" d="M849.88,-88.01C836.85,-74.66 818.14,-55.5 803.74,-40.75"/>
<polygon fill="black" stroke="black" points="806.14,-38.21 796.65,-33.5 801.14,-43.1 806.14,-38.21"/>
<text text-anchor="middle" x="843" y="-57.8" font-family="Times,serif" font-size="14.00">dep</text>
</g>
<!-- 10 -->
<g id="node11" class="node">
<title>10</title>
<ellipse fill="none" stroke="black" cx="865.5" cy="-18" rx="37.89" ry="18"/>
<text text-anchor="middle" x="865.5" y="-14.3" font-family="Times,serif" font-size="14.00">assim</text>
</g>
<!-- 0&#45;&gt;10 -->
<g id="edge10" class="edge">
<title>0&#45;&gt;10</title>
<path fill="none" stroke="black" d="M865.5,-86.8C865.5,-75.16 865.5,-59.55 865.5,-46.24"/>
<polygon fill="black" stroke="black" points="869,-46.18 865.5,-36.18 862,-46.18 869,-46.18"/>
<text text-anchor="middle" x="879" y="-57.8" font-family="Times,serif" font-size="14.00">dep</text>
</g>
<!-- 11 -->
<g id="node12" class="node">
<title>11</title>
<ellipse fill="none" stroke="black" cx="948.5" cy="-18" rx="27" ry="18"/>
<text text-anchor="middle" x="948.5" y="-14.3" font-family="Times,serif" font-size="14.00">,</text>
</g>
<!-- 0&#45;&gt;11 -->
<g id="edge11" class="edge">
<title>0&#45;&gt;11</title>
<path fill="none" stroke="black" d="M881.11,-88.01C894.14,-74.66 912.85,-55.5 927.25,-40.75"/>
<polygon fill="black" stroke="black" points="929.86,-43.1 934.34,-33.5 924.85,-38.21 929.86,-43.1"/>
<text text-anchor="middle" x="926" y="-57.8" font-family="Times,serif" font-size="14.00">dep</text>
</g>
<!-- 12 -->
<g id="node13" class="node">
<title>12</title>
<ellipse fill="none" stroke="black" cx="1020.5" cy="-18" rx="27" ry="18"/>
<text text-anchor="middle" x="1020.5" y="-14.3" font-family="Times,serif" font-size="14.00">o</text>
</g>
<!-- 0&#45;&gt;12 -->
<g id="edge12" class="edge">
<title>0&#45;&gt;12</title>
<path fill="none" stroke="black" d="M895.65,-91.76C910.34,-85.47 928.12,-77.38 943.5,-69 960.88,-59.53 979.53,-47.48 994.11,-37.58"/>
<polygon fill="black" stroke="black" points="996.36,-40.28 1002.62,-31.73 992.4,-34.51 996.36,-40.28"/>
<text text-anchor="middle" x="981" y="-57.8" font-family="Times,serif" font-size="14.00">dep</text>
</g>
<!-- 13 -->
<g id="node14" class="node">
<title>13</title>
<ellipse fill="none" stroke="black" cx="1116.5" cy="-18" rx="51.19" ry="18"/>
<text text-anchor="middle" x="1116.5" y="-14.3" font-family="Times,serif" font-size="14.00">Sporting</text>
</g>
<!-- 0&#45;&gt;13 -->
<g id="edge13" class="edge">
<title>0&#45;&gt;13</title>
<path fill="none" stroke="black" d="M902.9,-95.68C929.79,-89.32 966.75,-79.84 998.5,-69 1025.39,-59.81 1054.83,-47.35 1077.58,-37.16"/>
<polygon fill="black" stroke="black" points="1079.22,-40.26 1086.89,-32.95 1076.33,-33.88 1079.22,-40.26"/>
<text text-anchor="middle" x="1052" y="-57.8" font-family="Times,serif" font-size="14.00">dep</text>
</g>
<!-- 14 -->
<g id="node15" class="node">
<title>14</title>
<ellipse fill="none" stroke="black" cx="1230.5" cy="-18" rx="44.69" ry="18"/>
<text text-anchor="middle" x="1230.5" y="-14.3" font-family="Times,serif" font-size="14.00">ganhou</text>
</g>
<!-- 0&#45;&gt;14 -->
<g id="edge14" class="edge">
<title>0&#45;&gt;14</title>
<path fill="none" stroke="black" d="M906.45,-98.56C947.87,-92.69 1013.58,-82.36 1069.5,-69 1117.9,-57.43 1128.98,-50.81 1176.5,-36 1179.79,-34.97 1183.19,-33.91 1186.61,-32.84"/>
<polygon fill="black" stroke="black" points="1187.73,-36.16 1196.23,-29.82 1185.64,-29.48 1187.73,-36.16"/>
<text text-anchor="middle" x="1136" y="-57.8" font-family="Times,serif" font-size="14.00">dep</text>
</g>
<!-- 15 -->
<g id="node16" class="node">
<title>15</title>
<ellipse fill="none" stroke="black" cx="1320.5" cy="-18" rx="27" ry="18"/>
<text text-anchor="middle" x="1320.5" y="-14.3" font-family="Times,serif" font-size="14.00">a</text>
</g>
<!-- 0&#45;&gt;15 -->
<g id="edge15" class="edge">
<title>0&#45;&gt;15</title>
<path fill="none" stroke="black" d="M907.72,-100.55C964.08,-95.55 1066.84,-85.11 1153.5,-69 1212.53,-58.02 1227.97,-56.25 1284.5,-36 1286.35,-35.34 1288.24,-34.61 1290.13,-33.84"/>
<polygon fill="black" stroke="black" points="1291.7,-36.97 1299.47,-29.77 1288.9,-30.56 1291.7,-36.97"/>
<text text-anchor="middle" x="1241" y="-57.8" font-family="Times,serif" font-size="14.00">dep</text>
</g>
<!-- 16 -->
<g id="node17" class="node">
<title>16</title>
<ellipse fill="none" stroke="black" cx="1397.5" cy="-18" rx="31.7" ry="18"/>
<text text-anchor="middle" x="1397.5" y="-14.3" font-family="Times,serif" font-size="14.00">Taça</text>
</g>
<!-- 0&#45;&gt;16 -->
<g id="edge16" class="edge">
<title>0&#45;&gt;16</title>
<path fill="none" stroke="black" d="M909.02,-103.46C982.03,-101.82 1133.47,-95.23 1258.5,-69 1295.77,-61.18 1336.57,-45.61 1364.26,-33.91"/>
<polygon fill="black" stroke="black" points="1365.68,-37.11 1373.48,-29.95 1362.91,-30.68 1365.68,-37.11"/>
<text text-anchor="middle" x="1323" y="-57.8" font-family="Times,serif" font-size="14.00">dep</text>
</g>
<!-- 17 -->
<g id="node18" class="node">
<title>17</title>
<ellipse fill="none" stroke="black" cx="1474.5" cy="-18" rx="27" ry="18"/>
<text text-anchor="middle" x="1474.5" y="-14.3" font-family="Times,serif" font-size="14.00">de</text>
</g>
<!-- 0&#45;&gt;17 -->
<g id="edge17" class="edge">
<title>0&#45;&gt;17</title>
<path fill="none" stroke="black" d="M909.22,-104.42C993.52,-104.44 1184.06,-100.58 1340.5,-69 1377.35,-61.56 1417.48,-45.43 1444.12,-33.49"/>
<polygon fill="black" stroke="black" points="1445.65,-36.64 1453.3,-29.31 1442.75,-30.27 1445.65,-36.64"/>
<text text-anchor="middle" x="1404" y="-57.8" font-family="Times,serif" font-size="14.00">dep</text>
</g>
<!-- 18 -->
<g id="node19" class="node">
<title>18</title>
<ellipse fill="none" stroke="black" cx="1569.5" cy="-18" rx="50.09" ry="18"/>
<text text-anchor="middle" x="1569.5" y="-14.3" font-family="Times,serif" font-size="14.00">Portugal</text>
</g>
<!-- 0&#45;&gt;18 -->
<g id="edge18" class="edge">
<title>0&#45;&gt;18</title>
<path fill="none" stroke="black" d="M908.83,-102.74C1021.83,-99.23 1323.51,-88.28 1421.5,-69 1458.79,-61.66 1499.61,-47.37 1528.92,-35.94"/>
<polygon fill="black" stroke="black" points="1530.38,-39.12 1538.39,-32.19 1527.81,-32.62 1530.38,-39.12"/>
<text text-anchor="middle" x="1489" y="-57.8" font-family="Times,serif" font-size="14.00">dep</text>
</g>
<!-- 19 -->
<g id="node20" class="node">
<title>19</title>
<ellipse fill="none" stroke="black" cx="1664.5" cy="-18" rx="27" ry="18"/>
<text text-anchor="middle" x="1664.5" y="-14.3" font-family="Times,serif" font-size="14.00">.</text>
</g>
<!-- 0&#45;&gt;19 -->
<g id="edge19" class="edge">
<title>0&#45;&gt;19</title>
<path fill="none" stroke="black" d="M908.96,-102.81C1033.64,-99.23 1390.96,-87.57 1506.5,-69 1561.96,-60.09 1575.78,-55.4 1628.5,-36 1630.34,-35.32 1632.23,-34.58 1634.11,-33.8"/>
<polygon fill="black" stroke="black" points="1635.7,-36.93 1643.44,-29.7 1632.88,-30.52 1635.7,-36.93"/>
<text text-anchor="middle" x="1591" y="-57.8" font-family="Times,serif" font-size="14.00">dep</text>
</g>
</g>
</svg>
