<?xml version="1.0" encoding="UTF-8" standalone="no"?>
<!DOCTYPE svg PUBLIC "-//W3C//DTD SVG 1.1//EN"
 "http://www.w3.org/Graphics/SVG/1.1/DTD/svg11.dtd">
<!-- Generated by graphviz version 2.42.4 (0)
 -->
<!-- Pages: 1 -->
<svg width="4337pt" height="131pt"
 viewBox="0.00 0.00 4337.00 131.00" xmlns="http://www.w3.org/2000/svg" xmlns:xlink="http://www.w3.org/1999/xlink">
<g id="graph0" class="graph" transform="scale(1 1) rotate(0) translate(4 127)">
<polygon fill="white" stroke="transparent" points="-4,4 -4,-127 4333,-127 4333,4 -4,4"/>
<!-- 0 -->
<g id="node1" class="node">
<title>0</title>
<ellipse fill="none" stroke="black" cx="2094" cy="-105" rx="29.5" ry="18"/>
<text text-anchor="middle" x="2094" y="-101.3" font-family="Times,serif" font-size="14.00">Não</text>
</g>
<!-- 1 -->
<g id="node2" class="node">
<title>1</title>
<ellipse fill="none" stroke="black" cx="27" cy="-18" rx="27" ry="18"/>
<text text-anchor="middle" x="27" y="-14.3" font-family="Times,serif" font-size="14.00">só</text>
</g>
<!-- 0&#45;&gt;1 -->
<g id="edge1" class="edge">
<title>0&#45;&gt;1</title>
<path fill="none" stroke="black" d="M2064.6,-104.07C1836.11,-104.51 347.71,-105.94 152,-69 117.94,-62.57 81.39,-46.81 56.66,-34.69"/>
<polygon fill="black" stroke="black" points="57.99,-31.43 47.48,-30.08 54.85,-37.69 57.99,-31.43"/>
<text text-anchor="middle" x="165.5" y="-57.8" font-family="Times,serif" font-size="14.00">dep</text>
</g>
<!-- 2 -->
<g id="node3" class="node">
<title>2</title>
<ellipse fill="none" stroke="black" cx="99" cy="-18" rx="27" ry="18"/>
<text text-anchor="middle" x="99" y="-14.3" font-family="Times,serif" font-size="14.00">as</text>
</g>
<!-- 0&#45;&gt;2 -->
<g id="edge2" class="edge">
<title>0&#45;&gt;2</title>
<path fill="none" stroke="black" d="M2064.5,-103.97C1841.49,-103.65 424.44,-100.38 237,-69 198.72,-62.59 157.15,-46.11 129.75,-33.81"/>
<polygon fill="black" stroke="black" points="130.87,-30.48 120.32,-29.5 127.96,-36.84 130.87,-30.48"/>
<text text-anchor="middle" x="250.5" y="-57.8" font-family="Times,serif" font-size="14.00">dep</text>
</g>
<!-- 3 -->
<g id="node4" class="node">
<title>3</title>
<ellipse fill="none" stroke="black" cx="171" cy="-18" rx="27" ry="18"/>
<text text-anchor="middle" x="171" y="-14.3" font-family="Times,serif" font-size="14.00">«</text>
</g>
<!-- 0&#45;&gt;3 -->
<g id="edge3" class="edge">
<title>0&#45;&gt;3</title>
<path fill="none" stroke="black" d="M2064.6,-104.17C1865.34,-105.24 710.18,-109.56 361,-69 291.47,-60.92 273.31,-58.43 207,-36 205.08,-35.35 203.14,-34.63 201.19,-33.86"/>
<polygon fill="black" stroke="black" points="202.17,-30.47 191.6,-29.72 199.4,-36.9 202.17,-30.47"/>
<text text-anchor="middle" x="374.5" y="-57.8" font-family="Times,serif" font-size="14.00">dep</text>
</g>
<!-- 4 -->
<g id="node5" class="node">
<title>4</title>
<ellipse fill="none" stroke="black" cx="273" cy="-18" rx="56.59" ry="18"/>
<text text-anchor="middle" x="273" y="-14.3" font-family="Times,serif" font-size="14.00">memórias</text>
</g>
<!-- 0&#45;&gt;4 -->
<g id="edge4" class="edge">
<title>0&#45;&gt;4</title>
<path fill="none" stroke="black" d="M2064.64,-103.77C1858.45,-102.13 631.02,-91.44 467,-69 416.23,-62.05 359.64,-46.54 320.75,-34.62"/>
<polygon fill="black" stroke="black" points="321.35,-31.15 310.76,-31.52 319.27,-37.83 321.35,-31.15"/>
<text text-anchor="middle" x="480.5" y="-57.8" font-family="Times,serif" font-size="14.00">dep</text>
</g>
<!-- 5 -->
<g id="node6" class="node">
<title>5</title>
<ellipse fill="none" stroke="black" cx="409" cy="-18" rx="61.99" ry="18"/>
<text text-anchor="middle" x="409" y="-14.3" font-family="Times,serif" font-size="14.00">descritivas</text>
</g>
<!-- 0&#45;&gt;5 -->
<g id="edge5" class="edge">
<title>0&#45;&gt;5</title>
<path fill="none" stroke="black" d="M2064.63,-103.87C1864.83,-102.94 708.76,-96.4 555,-69 518.86,-62.56 479.58,-48.69 450.88,-37.19"/>
<polygon fill="black" stroke="black" points="452.15,-33.93 441.57,-33.4 449.51,-40.41 452.15,-33.93"/>
<text text-anchor="middle" x="568.5" y="-57.8" font-family="Times,serif" font-size="14.00">dep</text>
</g>
<!-- 6 -->
<g id="node7" class="node">
<title>6</title>
<ellipse fill="none" stroke="black" cx="516" cy="-18" rx="27" ry="18"/>
<text text-anchor="middle" x="516" y="-14.3" font-family="Times,serif" font-size="14.00">»</text>
</g>
<!-- 0&#45;&gt;6 -->
<g id="edge6" class="edge">
<title>0&#45;&gt;6</title>
<path fill="none" stroke="black" d="M2064.53,-103.94C1870.27,-103.47 776.79,-99.5 632,-69 600.69,-62.41 567.39,-47.09 544.54,-35.13"/>
<polygon fill="black" stroke="black" points="546.19,-32.04 535.72,-30.41 542.89,-38.22 546.19,-32.04"/>
<text text-anchor="middle" x="645.5" y="-57.8" font-family="Times,serif" font-size="14.00">dep</text>
</g>
<!-- 7 -->
<g id="node8" class="node">
<title>7</title>
<ellipse fill="none" stroke="black" cx="588" cy="-18" rx="27" ry="18"/>
<text text-anchor="middle" x="588" y="-14.3" font-family="Times,serif" font-size="14.00">de</text>
</g>
<!-- 0&#45;&gt;7 -->
<g id="edge7" class="edge">
<title>0&#45;&gt;7</title>
<path fill="none" stroke="black" d="M2064.64,-103.85C1876.89,-102.81 847.99,-95.9 711,-69 677.45,-62.41 641.49,-46.68 617.18,-34.6"/>
<polygon fill="black" stroke="black" points="618.64,-31.42 608.14,-30.02 615.47,-37.66 618.64,-31.42"/>
<text text-anchor="middle" x="724.5" y="-57.8" font-family="Times,serif" font-size="14.00">dep</text>
</g>
<!-- 8 -->
<g id="node9" class="node">
<title>8</title>
<ellipse fill="none" stroke="black" cx="660" cy="-18" rx="27" ry="18"/>
<text text-anchor="middle" x="660" y="-14.3" font-family="Times,serif" font-size="14.00">os</text>
</g>
<!-- 0&#45;&gt;8 -->
<g id="edge8" class="edge">
<title>0&#45;&gt;8</title>
<path fill="none" stroke="black" d="M2064.82,-103.7C1884.78,-101.79 928.39,-90.66 800,-69 752.18,-60.93 741.14,-53.73 696,-36 694.17,-35.28 692.29,-34.51 690.42,-33.71"/>
<polygon fill="black" stroke="black" points="691.67,-30.44 681.11,-29.55 688.81,-36.83 691.67,-30.44"/>
<text text-anchor="middle" x="813.5" y="-57.8" font-family="Times,serif" font-size="14.00">dep</text>
</g>
<!-- 9 -->
<g id="node10" class="node">
<title>9</title>
<ellipse fill="none" stroke="black" cx="737" cy="-18" rx="31.7" ry="18"/>
<text text-anchor="middle" x="737" y="-14.3" font-family="Times,serif" font-size="14.00">seus</text>
</g>
<!-- 0&#45;&gt;9 -->
<g id="edge9" class="edge">
<title>0&#45;&gt;9</title>
<path fill="none" stroke="black" d="M2064.56,-104.16C1903.47,-104.88 1127.31,-106.31 891,-69 848.41,-62.27 801.56,-45.66 770.86,-33.42"/>
<polygon fill="black" stroke="black" points="772.06,-30.13 761.48,-29.61 769.43,-36.61 772.06,-30.13"/>
<text text-anchor="middle" x="904.5" y="-57.8" font-family="Times,serif" font-size="14.00">dep</text>
</g>
<!-- 10 -->
<g id="node11" class="node">
<title>10</title>
<ellipse fill="none" stroke="black" cx="841" cy="-18" rx="53.89" ry="18"/>
<text text-anchor="middle" x="841" y="-14.3" font-family="Times,serif" font-size="14.00">projectos</text>
</g>
<!-- 0&#45;&gt;10 -->
<g id="edge10" class="edge">
<title>0&#45;&gt;10</title>
<path fill="none" stroke="black" d="M2064.81,-103.66C1899.45,-101.65 1083.67,-90.71 974,-69 941.03,-62.47 905.47,-48.73 879.43,-37.3"/>
<polygon fill="black" stroke="black" points="880.84,-34.1 870.29,-33.21 877.99,-40.49 880.84,-34.1"/>
<text text-anchor="middle" x="987.5" y="-57.8" font-family="Times,serif" font-size="14.00">dep</text>
</g>
<!-- 11 -->
<g id="node12" class="node">
<title>11</title>
<ellipse fill="none" stroke="black" cx="940" cy="-18" rx="27" ry="18"/>
<text text-anchor="middle" x="940" y="-14.3" font-family="Times,serif" font-size="14.00">são</text>
</g>
<!-- 0&#45;&gt;11 -->
<g id="edge11" class="edge">
<title>0&#45;&gt;11</title>
<path fill="none" stroke="black" d="M2064.67,-103.71C1905.52,-102.03 1149.19,-92.86 1048,-69 1019.45,-62.27 989.34,-47.62 968.19,-35.91"/>
<polygon fill="black" stroke="black" points="969.85,-32.83 959.43,-30.94 966.4,-38.92 969.85,-32.83"/>
<text text-anchor="middle" x="1061.5" y="-57.8" font-family="Times,serif" font-size="14.00">dep</text>
</g>
<!-- 12 -->
<g id="node13" class="node">
<title>12</title>
<ellipse fill="none" stroke="black" cx="1012" cy="-18" rx="27" ry="18"/>
<text text-anchor="middle" x="1012" y="-14.3" font-family="Times,serif" font-size="14.00">,</text>
</g>
<!-- 0&#45;&gt;12 -->
<g id="edge12" class="edge">
<title>0&#45;&gt;12</title>
<path fill="none" stroke="black" d="M2064.81,-103.6C1912.95,-101.45 1216.67,-90.47 1123,-69 1093.57,-62.26 1062.42,-47.47 1040.63,-35.71"/>
<polygon fill="black" stroke="black" points="1042.06,-32.5 1031.61,-30.73 1038.67,-38.63 1042.06,-32.5"/>
<text text-anchor="middle" x="1136.5" y="-57.8" font-family="Times,serif" font-size="14.00">dep</text>
</g>
<!-- 13 -->
<g id="node14" class="node">
<title>13</title>
<ellipse fill="none" stroke="black" cx="1084" cy="-18" rx="27" ry="18"/>
<text text-anchor="middle" x="1084" y="-14.3" font-family="Times,serif" font-size="14.00">só</text>
</g>
<!-- 0&#45;&gt;13 -->
<g id="edge13" class="edge">
<title>0&#45;&gt;13</title>
<path fill="none" stroke="black" d="M2064.46,-104.23C1929.45,-105.08 1370.33,-106.23 1200,-69 1168.88,-62.2 1135.73,-47.02 1112.87,-35.16"/>
<polygon fill="black" stroke="black" points="1114.22,-31.91 1103.74,-30.31 1110.94,-38.09 1114.22,-31.91"/>
<text text-anchor="middle" x="1213.5" y="-57.8" font-family="Times,serif" font-size="14.00">dep</text>
</g>
<!-- 14 -->
<g id="node15" class="node">
<title>14</title>
<ellipse fill="none" stroke="black" cx="1156" cy="-18" rx="27" ry="18"/>
<text text-anchor="middle" x="1156" y="-14.3" font-family="Times,serif" font-size="14.00">por</text>
</g>
<!-- 0&#45;&gt;14 -->
<g id="edge14" class="edge">
<title>0&#45;&gt;14</title>
<path fill="none" stroke="black" d="M2064.57,-103.99C1937.3,-103.76 1433.68,-100.79 1279,-69 1245.71,-62.16 1209.97,-46.61 1185.64,-34.66"/>
<polygon fill="black" stroke="black" points="1187.1,-31.47 1176.59,-30.12 1183.96,-37.73 1187.1,-31.47"/>
<text text-anchor="middle" x="1292.5" y="-57.8" font-family="Times,serif" font-size="14.00">dep</text>
</g>
<!-- 15 -->
<g id="node16" class="node">
<title>15</title>
<ellipse fill="none" stroke="black" cx="1228" cy="-18" rx="27" ry="18"/>
<text text-anchor="middle" x="1228" y="-14.3" font-family="Times,serif" font-size="14.00">si</text>
</g>
<!-- 0&#45;&gt;15 -->
<g id="edge15" class="edge">
<title>0&#45;&gt;15</title>
<path fill="none" stroke="black" d="M2064.65,-103.61C1946.37,-101.88 1504.4,-93.87 1367,-69 1319.7,-60.44 1308.72,-53.63 1264,-36 1262.17,-35.28 1260.3,-34.5 1258.42,-33.7"/>
<polygon fill="black" stroke="black" points="1259.67,-30.43 1249.12,-29.54 1256.81,-36.82 1259.67,-30.43"/>
<text text-anchor="middle" x="1380.5" y="-57.8" font-family="Times,serif" font-size="14.00">dep</text>
</g>
<!-- 16 -->
<g id="node17" class="node">
<title>16</title>
<ellipse fill="none" stroke="black" cx="1300" cy="-18" rx="27" ry="18"/>
<text text-anchor="middle" x="1300" y="-14.3" font-family="Times,serif" font-size="14.00">,</text>
</g>
<!-- 0&#45;&gt;16 -->
<g id="edge16" class="edge">
<title>0&#45;&gt;16</title>
<path fill="none" stroke="black" d="M2064.73,-103.96C1976.73,-103.49 1707,-99.47 1486,-69 1418.38,-59.68 1400.6,-58.05 1336,-36 1334.09,-35.35 1332.14,-34.62 1330.19,-33.85"/>
<polygon fill="black" stroke="black" points="1331.18,-30.46 1320.61,-29.7 1328.4,-36.88 1331.18,-30.46"/>
<text text-anchor="middle" x="1499.5" y="-57.8" font-family="Times,serif" font-size="14.00">dep</text>
</g>
<!-- 17 -->
<g id="node18" class="node">
<title>17</title>
<ellipse fill="none" stroke="black" cx="1396" cy="-18" rx="50.89" ry="18"/>
<text text-anchor="middle" x="1396" y="-14.3" font-family="Times,serif" font-size="14.00">criativos</text>
</g>
<!-- 0&#45;&gt;17 -->
<g id="edge17" class="edge">
<title>0&#45;&gt;17</title>
<path fill="none" stroke="black" d="M2064.81,-103.82C1986.57,-102.96 1765.83,-97.93 1585,-69 1535.16,-61.03 1479.45,-45.44 1441.5,-33.78"/>
<polygon fill="black" stroke="black" points="1442.36,-30.39 1431.77,-30.76 1440.28,-37.07 1442.36,-30.39"/>
<text text-anchor="middle" x="1598.5" y="-57.8" font-family="Times,serif" font-size="14.00">dep</text>
</g>
<!-- 18 -->
<g id="node19" class="node">
<title>18</title>
<ellipse fill="none" stroke="black" cx="1504" cy="-18" rx="39.79" ry="18"/>
<text text-anchor="middle" x="1504" y="-14.3" font-family="Times,serif" font-size="14.00">textos</text>
</g>
<!-- 0&#45;&gt;18 -->
<g id="edge18" class="edge">
<title>0&#45;&gt;18</title>
<path fill="none" stroke="black" d="M2064.76,-103.02C1997.73,-100.44 1827.97,-92 1688,-69 1627.05,-58.98 1612.24,-53.48 1553,-36 1549.89,-35.08 1546.69,-34.09 1543.48,-33.05"/>
<polygon fill="black" stroke="black" points="1544.51,-29.71 1533.92,-29.88 1542.3,-36.35 1544.51,-29.71"/>
<text text-anchor="middle" x="1701.5" y="-57.8" font-family="Times,serif" font-size="14.00">dep</text>
</g>
<!-- 19 -->
<g id="node20" class="node">
<title>19</title>
<ellipse fill="none" stroke="black" cx="1619" cy="-18" rx="57.39" ry="18"/>
<text text-anchor="middle" x="1619" y="-14.3" font-family="Times,serif" font-size="14.00">sugerindo</text>
</g>
<!-- 0&#45;&gt;19 -->
<g id="edge19" class="edge">
<title>0&#45;&gt;19</title>
<path fill="none" stroke="black" d="M2064.66,-102.75C2008.08,-99.91 1880.17,-91.39 1775,-69 1736.6,-60.83 1694.24,-46.93 1663.37,-35.85"/>
<polygon fill="black" stroke="black" points="1664.36,-32.49 1653.77,-32.37 1661.98,-39.07 1664.36,-32.49"/>
<text text-anchor="middle" x="1788.5" y="-57.8" font-family="Times,serif" font-size="14.00">dep</text>
</g>
<!-- 20 -->
<g id="node21" class="node">
<title>20</title>
<ellipse fill="none" stroke="black" cx="1721" cy="-18" rx="27" ry="18"/>
<text text-anchor="middle" x="1721" y="-14.3" font-family="Times,serif" font-size="14.00">,</text>
</g>
<!-- 0&#45;&gt;20 -->
<g id="edge20" class="edge">
<title>0&#45;&gt;20</title>
<path fill="none" stroke="black" d="M2065.26,-101.21C2020.84,-96.57 1933,-86.04 1860,-69 1813.19,-58.08 1801.72,-53.63 1757,-36 1755.17,-35.28 1753.3,-34.5 1751.42,-33.7"/>
<polygon fill="black" stroke="black" points="1752.67,-30.43 1742.12,-29.54 1749.81,-36.82 1752.67,-30.43"/>
<text text-anchor="middle" x="1873.5" y="-57.8" font-family="Times,serif" font-size="14.00">dep</text>
</g>
<!-- 21 -->
<g id="node22" class="node">
<title>21</title>
<ellipse fill="none" stroke="black" cx="1796" cy="-18" rx="29.8" ry="18"/>
<text text-anchor="middle" x="1796" y="-14.3" font-family="Times,serif" font-size="14.00">com</text>
</g>
<!-- 0&#45;&gt;21 -->
<g id="edge21" class="edge">
<title>0&#45;&gt;21</title>
<path fill="none" stroke="black" d="M2066.68,-98.5C2018.91,-88.51 1917.46,-65.66 1835,-36 1832.77,-35.2 1830.49,-34.33 1828.2,-33.43"/>
<polygon fill="black" stroke="black" points="1829.47,-30.17 1818.89,-29.58 1826.8,-36.63 1829.47,-30.17"/>
<text text-anchor="middle" x="1954.5" y="-57.8" font-family="Times,serif" font-size="14.00">dep</text>
</g>
<!-- 22 -->
<g id="node23" class="node">
<title>22</title>
<ellipse fill="none" stroke="black" cx="1892" cy="-18" rx="48.19" ry="18"/>
<text text-anchor="middle" x="1892" y="-14.3" font-family="Times,serif" font-size="14.00">especial</text>
</g>
<!-- 0&#45;&gt;22 -->
<g id="edge22" class="edge">
<title>0&#45;&gt;22</title>
<path fill="none" stroke="black" d="M2070.43,-94.08C2036.45,-79.78 1973.23,-53.18 1931.89,-35.79"/>
<polygon fill="black" stroke="black" points="1933.23,-32.55 1922.65,-31.9 1930.51,-39 1933.23,-32.55"/>
<text text-anchor="middle" x="2019.5" y="-57.8" font-family="Times,serif" font-size="14.00">dep</text>
</g>
<!-- 23 -->
<g id="node24" class="node">
<title>23</title>
<ellipse fill="none" stroke="black" cx="2004" cy="-18" rx="45.49" ry="18"/>
<text text-anchor="middle" x="2004" y="-14.3" font-family="Times,serif" font-size="14.00">eficácia</text>
</g>
<!-- 0&#45;&gt;23 -->
<g id="edge23" class="edge">
<title>0&#45;&gt;23</title>
<path fill="none" stroke="black" d="M2078.73,-89.58C2064.94,-76.56 2044.41,-57.16 2028.35,-42"/>
<polygon fill="black" stroke="black" points="2030.55,-39.26 2020.88,-34.94 2025.74,-44.35 2030.55,-39.26"/>
<text text-anchor="middle" x="2068.5" y="-57.8" font-family="Times,serif" font-size="14.00">dep</text>
</g>
<!-- 24 -->
<g id="node25" class="node">
<title>24</title>
<ellipse fill="none" stroke="black" cx="2094" cy="-18" rx="27" ry="18"/>
<text text-anchor="middle" x="2094" y="-14.3" font-family="Times,serif" font-size="14.00">,</text>
</g>
<!-- 0&#45;&gt;24 -->
<g id="edge24" class="edge">
<title>0&#45;&gt;24</title>
<path fill="none" stroke="black" d="M2094,-86.8C2094,-75.16 2094,-59.55 2094,-46.24"/>
<polygon fill="black" stroke="black" points="2097.5,-46.18 2094,-36.18 2090.5,-46.18 2097.5,-46.18"/>
<text text-anchor="middle" x="2107.5" y="-57.8" font-family="Times,serif" font-size="14.00">dep</text>
</g>
<!-- 25 -->
<g id="node26" class="node">
<title>25</title>
<ellipse fill="none" stroke="black" cx="2170" cy="-18" rx="30.59" ry="18"/>
<text text-anchor="middle" x="2170" y="-14.3" font-family="Times,serif" font-size="14.00">uma</text>
</g>
<!-- 0&#45;&gt;25 -->
<g id="edge25" class="edge">
<title>0&#45;&gt;25</title>
<path fill="none" stroke="black" d="M2107.59,-88.8C2119.19,-75.83 2136.05,-56.97 2149.32,-42.12"/>
<polygon fill="black" stroke="black" points="2152.22,-44.14 2156.27,-34.35 2147,-39.47 2152.22,-44.14"/>
<text text-anchor="middle" x="2150.5" y="-57.8" font-family="Times,serif" font-size="14.00">dep</text>
</g>
<!-- 26 -->
<g id="node27" class="node">
<title>26</title>
<ellipse fill="none" stroke="black" cx="2296" cy="-18" rx="77.19" ry="18"/>
<text text-anchor="middle" x="2296" y="-14.3" font-family="Times,serif" font-size="14.00">multiplicidade</text>
</g>
<!-- 0&#45;&gt;26 -->
<g id="edge26" class="edge">
<title>0&#45;&gt;26</title>
<path fill="none" stroke="black" d="M2117.57,-94.08C2150.2,-80.35 2209.79,-55.28 2251.08,-37.9"/>
<polygon fill="black" stroke="black" points="2252.51,-41.1 2260.37,-33.99 2249.8,-34.64 2252.51,-41.1"/>
<text text-anchor="middle" x="2221.5" y="-57.8" font-family="Times,serif" font-size="14.00">dep</text>
</g>
<!-- 27 -->
<g id="node28" class="node">
<title>27</title>
<ellipse fill="none" stroke="black" cx="2418" cy="-18" rx="27" ry="18"/>
<text text-anchor="middle" x="2418" y="-14.3" font-family="Times,serif" font-size="14.00">de</text>
</g>
<!-- 0&#45;&gt;27 -->
<g id="edge27" class="edge">
<title>0&#45;&gt;27</title>
<path fill="none" stroke="black" d="M2121.95,-99.41C2174.05,-90.42 2289.14,-68.49 2382,-36 2383.91,-35.33 2385.85,-34.6 2387.79,-33.81"/>
<polygon fill="black" stroke="black" points="2389.6,-36.85 2397.37,-29.65 2386.8,-30.43 2389.6,-36.85"/>
<text text-anchor="middle" x="2334.5" y="-57.8" font-family="Times,serif" font-size="14.00">dep</text>
</g>
<!-- 28 -->
<g id="node29" class="node">
<title>28</title>
<ellipse fill="none" stroke="black" cx="2513" cy="-18" rx="50.09" ry="18"/>
<text text-anchor="middle" x="2513" y="-14.3" font-family="Times,serif" font-size="14.00">imagens</text>
</g>
<!-- 0&#45;&gt;28 -->
<g id="edge28" class="edge">
<title>0&#45;&gt;28</title>
<path fill="none" stroke="black" d="M2122.91,-101.66C2170.91,-97.42 2269.91,-87.18 2352,-69 2392.53,-60.02 2437.57,-45.65 2469.68,-34.61"/>
<polygon fill="black" stroke="black" points="2470.91,-37.89 2479.21,-31.3 2468.61,-31.27 2470.91,-37.89"/>
<text text-anchor="middle" x="2419.5" y="-57.8" font-family="Times,serif" font-size="14.00">dep</text>
</g>
<!-- 29 -->
<g id="node30" class="node">
<title>29</title>
<ellipse fill="none" stroke="black" cx="2608" cy="-18" rx="27" ry="18"/>
<text text-anchor="middle" x="2608" y="-14.3" font-family="Times,serif" font-size="14.00">a</text>
</g>
<!-- 0&#45;&gt;29 -->
<g id="edge29" class="edge">
<title>0&#45;&gt;29</title>
<path fill="none" stroke="black" d="M2123.09,-102.39C2182.46,-98.81 2321.68,-88.88 2437,-69 2497.87,-58.51 2513.78,-56.63 2572,-36 2573.91,-35.32 2575.85,-34.58 2577.79,-33.8"/>
<polygon fill="black" stroke="black" points="2579.6,-36.83 2587.36,-29.62 2576.8,-30.41 2579.6,-36.83"/>
<text text-anchor="middle" x="2528.5" y="-57.8" font-family="Times,serif" font-size="14.00">dep</text>
</g>
<!-- 30 -->
<g id="node31" class="node">
<title>30</title>
<ellipse fill="none" stroke="black" cx="2691" cy="-18" rx="37.89" ry="18"/>
<text text-anchor="middle" x="2691" y="-14.3" font-family="Times,serif" font-size="14.00">partir</text>
</g>
<!-- 0&#45;&gt;30 -->
<g id="edge30" class="edge">
<title>0&#45;&gt;30</title>
<path fill="none" stroke="black" d="M2123.43,-104.22C2196.01,-104.24 2389.06,-100.98 2546,-69 2584.09,-61.24 2625.9,-46.07 2654.79,-34.46"/>
<polygon fill="black" stroke="black" points="2656.13,-37.7 2664.07,-30.68 2653.49,-31.21 2656.13,-37.7"/>
<text text-anchor="middle" x="2612.5" y="-57.8" font-family="Times,serif" font-size="14.00">dep</text>
</g>
<!-- 31 -->
<g id="node32" class="node">
<title>31</title>
<ellipse fill="none" stroke="black" cx="2774" cy="-18" rx="27" ry="18"/>
<text text-anchor="middle" x="2774" y="-14.3" font-family="Times,serif" font-size="14.00">de</text>
</g>
<!-- 0&#45;&gt;31 -->
<g id="edge31" class="edge">
<title>0&#45;&gt;31</title>
<path fill="none" stroke="black" d="M2123.34,-104.45C2204.6,-105.19 2439.2,-103.89 2630,-69 2679.37,-59.97 2691.19,-54.1 2738,-36 2739.84,-35.29 2741.71,-34.53 2743.59,-33.73"/>
<polygon fill="black" stroke="black" points="2745.19,-36.85 2752.9,-29.59 2742.34,-30.46 2745.19,-36.85"/>
<text text-anchor="middle" x="2704.5" y="-57.8" font-family="Times,serif" font-size="14.00">dep</text>
</g>
<!-- 32 -->
<g id="node33" class="node">
<title>32</title>
<ellipse fill="none" stroke="black" cx="2846" cy="-18" rx="27" ry="18"/>
<text text-anchor="middle" x="2846" y="-14.3" font-family="Times,serif" font-size="14.00">os</text>
</g>
<!-- 0&#45;&gt;32 -->
<g id="edge32" class="edge">
<title>0&#45;&gt;32</title>
<path fill="none" stroke="black" d="M2123.33,-103.54C2231.16,-101.67 2605.39,-93.52 2722,-69 2755.49,-61.96 2791.53,-46.45 2816.08,-34.55"/>
<polygon fill="black" stroke="black" points="2817.8,-37.61 2825.21,-30.04 2814.7,-31.33 2817.8,-37.61"/>
<text text-anchor="middle" x="2785.5" y="-57.8" font-family="Times,serif" font-size="14.00">dep</text>
</g>
<!-- 33 -->
<g id="node34" class="node">
<title>33</title>
<ellipse fill="none" stroke="black" cx="2945" cy="-18" rx="53.89" ry="18"/>
<text text-anchor="middle" x="2945" y="-14.3" font-family="Times,serif" font-size="14.00">desenhos</text>
</g>
<!-- 0&#45;&gt;33 -->
<g id="edge33" class="edge">
<title>0&#45;&gt;33</title>
<path fill="none" stroke="black" d="M2123.43,-103.68C2240.03,-102.23 2669.67,-95.19 2803,-69 2838.33,-62.06 2876.76,-48.11 2904.71,-36.71"/>
<polygon fill="black" stroke="black" points="2906.25,-39.86 2914.15,-32.79 2903.57,-33.39 2906.25,-39.86"/>
<text text-anchor="middle" x="2868.5" y="-57.8" font-family="Times,serif" font-size="14.00">dep</text>
</g>
<!-- 34 -->
<g id="node35" class="node">
<title>34</title>
<ellipse fill="none" stroke="black" cx="3045" cy="-18" rx="27.9" ry="18"/>
<text text-anchor="middle" x="3045" y="-14.3" font-family="Times,serif" font-size="14.00">que</text>
</g>
<!-- 0&#45;&gt;34 -->
<g id="edge34" class="edge">
<title>0&#45;&gt;34</title>
<path fill="none" stroke="black" d="M2123.36,-103.57C2248.12,-101.59 2734.7,-92.51 2886,-69 2941.5,-60.37 2955.19,-55.13 3008,-36 3009.89,-35.31 3011.83,-34.57 3013.76,-33.79"/>
<polygon fill="black" stroke="black" points="3015.53,-36.84 3023.34,-29.68 3012.77,-30.41 3015.53,-36.84"/>
<text text-anchor="middle" x="2970.5" y="-57.8" font-family="Times,serif" font-size="14.00">dep</text>
</g>
<!-- 35 -->
<g id="node36" class="node">
<title>35</title>
<ellipse fill="none" stroke="black" cx="3148" cy="-18" rx="57.39" ry="18"/>
<text text-anchor="middle" x="3148" y="-14.3" font-family="Times,serif" font-size="14.00">apresenta</text>
</g>
<!-- 0&#45;&gt;35 -->
<g id="edge35" class="edge">
<title>0&#45;&gt;35</title>
<path fill="none" stroke="black" d="M2123.47,-103.89C2258.19,-103.22 2816.19,-98.67 2988,-69 3028.41,-62.02 3072.82,-47.57 3104.57,-36"/>
<polygon fill="black" stroke="black" points="3105.84,-39.26 3114,-32.51 3103.41,-32.69 3105.84,-39.26"/>
<text text-anchor="middle" x="3060.5" y="-57.8" font-family="Times,serif" font-size="14.00">dep</text>
</g>
<!-- 36 -->
<g id="node37" class="node">
<title>36</title>
<ellipse fill="none" stroke="black" cx="3250" cy="-18" rx="27" ry="18"/>
<text text-anchor="middle" x="3250" y="-14.3" font-family="Times,serif" font-size="14.00">,</text>
</g>
<!-- 0&#45;&gt;36 -->
<g id="edge36" class="edge">
<title>0&#45;&gt;36</title>
<path fill="none" stroke="black" d="M2123.49,-103.76C2266.26,-102.45 2886.64,-95.34 3078,-69 3139.62,-60.52 3155.35,-56.72 3214,-36 3215.91,-35.33 3217.85,-34.59 3219.79,-33.8"/>
<polygon fill="black" stroke="black" points="3221.6,-36.83 3229.36,-29.62 3218.8,-30.41 3221.6,-36.83"/>
<text text-anchor="middle" x="3172.5" y="-57.8" font-family="Times,serif" font-size="14.00">dep</text>
</g>
<!-- 37 -->
<g id="node38" class="node">
<title>37</title>
<ellipse fill="none" stroke="black" cx="3330" cy="-18" rx="35.19" ry="18"/>
<text text-anchor="middle" x="3330" y="-14.3" font-family="Times,serif" font-size="14.00">como</text>
</g>
<!-- 0&#45;&gt;37 -->
<g id="edge37" class="edge">
<title>0&#45;&gt;37</title>
<path fill="none" stroke="black" d="M2123.3,-104.25C2275.48,-105.34 2976.77,-108.13 3190,-69 3227.24,-62.17 3267.77,-46.74 3295.6,-34.82"/>
<polygon fill="black" stroke="black" points="3297.12,-37.98 3304.88,-30.77 3294.32,-31.56 3297.12,-37.98"/>
<text text-anchor="middle" x="3259.5" y="-57.8" font-family="Times,serif" font-size="14.00">dep</text>
</g>
<!-- 38 -->
<g id="node39" class="node">
<title>38</title>
<ellipse fill="none" stroke="black" cx="3410" cy="-18" rx="27" ry="18"/>
<text text-anchor="middle" x="3410" y="-14.3" font-family="Times,serif" font-size="14.00">a</text>
</g>
<!-- 0&#45;&gt;38 -->
<g id="edge38" class="edge">
<title>0&#45;&gt;38</title>
<path fill="none" stroke="black" d="M2123.41,-103.65C2294.73,-101.57 3160.48,-90.05 3277,-69 3313.75,-62.36 3353.56,-46.08 3379.94,-33.89"/>
<polygon fill="black" stroke="black" points="3381.47,-37.04 3389.03,-29.61 3378.49,-30.71 3381.47,-37.04"/>
<text text-anchor="middle" x="3343.5" y="-57.8" font-family="Times,serif" font-size="14.00">dep</text>
</g>
<!-- 39 -->
<g id="node40" class="node">
<title>39</title>
<ellipse fill="none" stroke="black" cx="3482" cy="-18" rx="27" ry="18"/>
<text text-anchor="middle" x="3482" y="-14.3" font-family="Times,serif" font-size="14.00">sua</text>
</g>
<!-- 0&#45;&gt;39 -->
<g id="edge39" class="edge">
<title>0&#45;&gt;39</title>
<path fill="none" stroke="black" d="M2123.45,-103.79C2302.02,-102.43 3236.23,-94.16 3361,-69 3393.7,-62.41 3428.68,-46.94 3452.58,-34.94"/>
<polygon fill="black" stroke="black" points="3454.49,-37.89 3461.79,-30.21 3451.29,-31.66 3454.49,-37.89"/>
<text text-anchor="middle" x="3422.5" y="-57.8" font-family="Times,serif" font-size="14.00">dep</text>
</g>
<!-- 40 -->
<g id="node41" class="node">
<title>40</title>
<ellipse fill="none" stroke="black" cx="3581" cy="-18" rx="53.89" ry="18"/>
<text text-anchor="middle" x="3581" y="-14.3" font-family="Times,serif" font-size="14.00">produção</text>
</g>
<!-- 0&#45;&gt;40 -->
<g id="edge40" class="edge">
<title>0&#45;&gt;40</title>
<path fill="none" stroke="black" d="M2123.46,-103.79C2308.48,-102.39 3306.62,-93.74 3440,-69 3475.29,-62.45 3513.57,-48.4 3541.33,-36.86"/>
<polygon fill="black" stroke="black" points="3542.84,-40.02 3550.69,-32.9 3540.11,-33.57 3542.84,-40.02"/>
<text text-anchor="middle" x="3509.5" y="-57.8" font-family="Times,serif" font-size="14.00">dep</text>
</g>
<!-- 41 -->
<g id="node42" class="node">
<title>41</title>
<ellipse fill="none" stroke="black" cx="3685" cy="-18" rx="31.7" ry="18"/>
<text text-anchor="middle" x="3685" y="-14.3" font-family="Times,serif" font-size="14.00">para</text>
</g>
<!-- 0&#45;&gt;41 -->
<g id="edge41" class="edge">
<title>0&#45;&gt;41</title>
<path fill="none" stroke="black" d="M2123.46,-103.72C2315.32,-101.87 3383.74,-90.6 3527,-69 3580.42,-60.94 3592.96,-53.71 3644,-36 3646.27,-35.21 3648.6,-34.36 3650.94,-33.48"/>
<polygon fill="black" stroke="black" points="3652.44,-36.65 3660.47,-29.73 3649.88,-30.13 3652.44,-36.65"/>
<text text-anchor="middle" x="3606.5" y="-57.8" font-family="Times,serif" font-size="14.00">dep</text>
</g>
<!-- 42 -->
<g id="node43" class="node">
<title>42</title>
<ellipse fill="none" stroke="black" cx="3762" cy="-18" rx="27" ry="18"/>
<text text-anchor="middle" x="3762" y="-14.3" font-family="Times,serif" font-size="14.00">a</text>
</g>
<!-- 0&#45;&gt;42 -->
<g id="edge42" class="edge">
<title>0&#45;&gt;42</title>
<path fill="none" stroke="black" d="M2123.19,-103.84C2321.79,-102.69 3470.92,-94.94 3624,-69 3662.26,-62.52 3703.84,-46.05 3731.25,-33.77"/>
<polygon fill="black" stroke="black" points="3733.03,-36.81 3740.67,-29.47 3730.12,-30.44 3733.03,-36.81"/>
<text text-anchor="middle" x="3692.5" y="-57.8" font-family="Times,serif" font-size="14.00">dep</text>
</g>
<!-- 43 -->
<g id="node44" class="node">
<title>43</title>
<ellipse fill="none" stroke="black" cx="3861" cy="-18" rx="53.89" ry="18"/>
<text text-anchor="middle" x="3861" y="-14.3" font-family="Times,serif" font-size="14.00">imprensa</text>
</g>
<!-- 0&#45;&gt;43 -->
<g id="edge43" class="edge">
<title>0&#45;&gt;43</title>
<path fill="none" stroke="black" d="M2123.51,-103.89C2329.41,-103.05 3548.05,-96.92 3710,-69 3748.14,-62.42 3789.78,-48.06 3819.65,-36.41"/>
<polygon fill="black" stroke="black" points="3821.31,-39.52 3829.31,-32.58 3818.73,-33.01 3821.31,-39.52"/>
<text text-anchor="middle" x="3783.5" y="-57.8" font-family="Times,serif" font-size="14.00">dep</text>
</g>
<!-- 44 -->
<g id="node45" class="node">
<title>44</title>
<ellipse fill="none" stroke="black" cx="3973" cy="-18" rx="39.79" ry="18"/>
<text text-anchor="middle" x="3973" y="-14.3" font-family="Times,serif" font-size="14.00">revela</text>
</g>
<!-- 0&#45;&gt;44 -->
<g id="edge44" class="edge">
<title>0&#45;&gt;44</title>
<path fill="none" stroke="black" d="M2123.43,-103.83C2335.66,-102.51 3628.68,-93.51 3801,-69 3847.8,-62.34 3899.66,-45.96 3934.07,-33.76"/>
<polygon fill="black" stroke="black" points="3935.51,-36.96 3943.73,-30.28 3933.14,-30.37 3935.51,-36.96"/>
<text text-anchor="middle" x="3882.5" y="-57.8" font-family="Times,serif" font-size="14.00">dep</text>
</g>
<!-- 45 -->
<g id="node46" class="node">
<title>45</title>
<ellipse fill="none" stroke="black" cx="4079" cy="-18" rx="48.19" ry="18"/>
<text text-anchor="middle" x="4079" y="-14.3" font-family="Times,serif" font-size="14.00">idêntica</text>
</g>
<!-- 0&#45;&gt;45 -->
<g id="edge45" class="edge">
<title>0&#45;&gt;45</title>
<path fill="none" stroke="black" d="M2123.37,-103.86C2342.39,-102.8 3717.22,-95.09 3900,-69 3947.45,-62.23 4000.09,-46.48 4035.94,-34.46"/>
<polygon fill="black" stroke="black" points="4037.24,-37.71 4045.58,-31.17 4034.99,-31.08 4037.24,-37.71"/>
<text text-anchor="middle" x="3983.5" y="-57.8" font-family="Times,serif" font-size="14.00">dep</text>
</g>
<!-- 46 -->
<g id="node47" class="node">
<title>46</title>
<ellipse fill="none" stroke="black" cx="4201" cy="-18" rx="55.79" ry="18"/>
<text text-anchor="middle" x="4201" y="-14.3" font-family="Times,serif" font-size="14.00">qualidade</text>
</g>
<!-- 0&#45;&gt;46 -->
<g id="edge46" class="edge">
<title>0&#45;&gt;46</title>
<path fill="none" stroke="black" d="M2123.19,-103.85C2348.51,-102.68 3807.15,-94.16 4001,-69 4054.01,-62.12 4113.23,-46.25 4153.38,-34.22"/>
<polygon fill="black" stroke="black" points="4154.61,-37.51 4163.16,-31.26 4152.58,-30.81 4154.61,-37.51"/>
<text text-anchor="middle" x="4092.5" y="-57.8" font-family="Times,serif" font-size="14.00">dep</text>
</g>
<!-- 47 -->
<g id="node48" class="node">
<title>47</title>
<ellipse fill="none" stroke="black" cx="4302" cy="-18" rx="27" ry="18"/>
<text text-anchor="middle" x="4302" y="-14.3" font-family="Times,serif" font-size="14.00">.</text>
</g>
<!-- 0&#45;&gt;47 -->
<g id="edge47" class="edge">
<title>0&#45;&gt;47</title>
<path fill="none" stroke="black" d="M2123.36,-103.83C2356.46,-102.43 3904.24,-92.33 4110,-69 4180.42,-61.02 4198.84,-58.62 4266,-36 4267.92,-35.35 4269.86,-34.64 4271.81,-33.87"/>
<polygon fill="black" stroke="black" points="4273.6,-36.91 4281.4,-29.73 4270.83,-30.48 4273.6,-36.91"/>
<text text-anchor="middle" x="4219.5" y="-57.8" font-family="Times,serif" font-size="14.00">dep</text>
</g>
</g>
</svg>
