<?xml version="1.0" encoding="UTF-8" standalone="no"?>
<!DOCTYPE svg PUBLIC "-//W3C//DTD SVG 1.1//EN"
 "http://www.w3.org/Graphics/SVG/1.1/DTD/svg11.dtd">
<!-- Generated by graphviz version 2.42.4 (0)
 -->
<!-- Pages: 1 -->
<svg width="2815pt" height="131pt"
 viewBox="0.00 0.00 2815.50 131.00" xmlns="http://www.w3.org/2000/svg" xmlns:xlink="http://www.w3.org/1999/xlink">
<g id="graph0" class="graph" transform="scale(1 1) rotate(0) translate(4 127)">
<polygon fill="white" stroke="transparent" points="-4,4 -4,-127 2811.5,-127 2811.5,4 -4,4"/>
<!-- 0 -->
<g id="node1" class="node">
<title>0</title>
<ellipse fill="none" stroke="black" cx="1461.5" cy="-105" rx="27" ry="18"/>
<text text-anchor="middle" x="1461.5" y="-101.3" font-family="Times,serif" font-size="14.00">A</text>
</g>
<!-- 1 -->
<g id="node2" class="node">
<title>1</title>
<ellipse fill="none" stroke="black" cx="32.5" cy="-18" rx="32.49" ry="18"/>
<text text-anchor="middle" x="32.5" y="-14.3" font-family="Times,serif" font-size="14.00">MTV</text>
</g>
<!-- 0&#45;&gt;1 -->
<g id="edge1" class="edge">
<title>0&#45;&gt;1</title>
<path fill="none" stroke="black" d="M1434.55,-103.79C1260.15,-102.36 294.17,-93.41 165.5,-69 129.88,-62.24 91.33,-46.77 64.95,-34.81"/>
<polygon fill="black" stroke="black" points="66.35,-31.6 55.81,-30.59 63.42,-37.96 66.35,-31.6"/>
<text text-anchor="middle" x="179" y="-57.8" font-family="Times,serif" font-size="14.00">dep</text>
</g>
<!-- 2 -->
<g id="node3" class="node">
<title>2</title>
<ellipse fill="none" stroke="black" cx="110.5" cy="-18" rx="27.1" ry="18"/>
<text text-anchor="middle" x="110.5" y="-14.3" font-family="Times,serif" font-size="14.00">não</text>
</g>
<!-- 0&#45;&gt;2 -->
<g id="edge2" class="edge">
<title>0&#45;&gt;2</title>
<path fill="none" stroke="black" d="M1434.41,-104.15C1278.76,-104.86 496.77,-106.47 259.5,-69 207.82,-60.84 195.41,-54.56 146.5,-36 144.66,-35.3 142.78,-34.55 140.89,-33.76"/>
<polygon fill="black" stroke="black" points="142.14,-30.48 131.58,-29.63 139.3,-36.88 142.14,-30.48"/>
<text text-anchor="middle" x="273" y="-57.8" font-family="Times,serif" font-size="14.00">dep</text>
</g>
<!-- 3 -->
<g id="node4" class="node">
<title>3</title>
<ellipse fill="none" stroke="black" cx="194.5" cy="-18" rx="38.99" ry="18"/>
<text text-anchor="middle" x="194.5" y="-14.3" font-family="Times,serif" font-size="14.00">exibiu</text>
</g>
<!-- 0&#45;&gt;3 -->
<g id="edge3" class="edge">
<title>0&#45;&gt;3</title>
<path fill="none" stroke="black" d="M1434.33,-104.11C1285.66,-104.55 569.34,-104.77 351.5,-69 309.6,-62.12 263.5,-46.41 232.17,-34.42"/>
<polygon fill="black" stroke="black" points="233.12,-31.04 222.53,-30.67 230.59,-37.56 233.12,-31.04"/>
<text text-anchor="middle" x="365" y="-57.8" font-family="Times,serif" font-size="14.00">dep</text>
</g>
<!-- 4 -->
<g id="node5" class="node">
<title>4</title>
<ellipse fill="none" stroke="black" cx="291.5" cy="-18" rx="40.09" ry="18"/>
<text text-anchor="middle" x="291.5" y="-14.3" font-family="Times,serif" font-size="14.00">ontem</text>
</g>
<!-- 0&#45;&gt;4 -->
<g id="edge4" class="edge">
<title>0&#45;&gt;4</title>
<path fill="none" stroke="black" d="M1434.21,-104.11C1292.48,-104.53 639.33,-104.46 440.5,-69 401.4,-62.03 358.6,-46.82 328.94,-35"/>
<polygon fill="black" stroke="black" points="329.99,-31.65 319.41,-31.13 327.36,-38.13 329.99,-31.65"/>
<text text-anchor="middle" x="454" y="-57.8" font-family="Times,serif" font-size="14.00">dep</text>
</g>
<!-- 5 -->
<g id="node6" class="node">
<title>5</title>
<ellipse fill="none" stroke="black" cx="376.5" cy="-18" rx="27" ry="18"/>
<text text-anchor="middle" x="376.5" y="-14.3" font-family="Times,serif" font-size="14.00">o</text>
</g>
<!-- 0&#45;&gt;5 -->
<g id="edge5" class="edge">
<title>0&#45;&gt;5</title>
<path fill="none" stroke="black" d="M1434.38,-103.63C1303.1,-101.76 732.63,-92.38 556.5,-69 491.41,-60.36 474.54,-57.48 412.5,-36 410.59,-35.34 408.64,-34.61 406.7,-33.83"/>
<polygon fill="black" stroke="black" points="407.69,-30.44 397.12,-29.67 404.9,-36.86 407.69,-30.44"/>
<text text-anchor="middle" x="570" y="-57.8" font-family="Times,serif" font-size="14.00">dep</text>
</g>
<!-- 6 -->
<g id="node7" class="node">
<title>6</title>
<ellipse fill="none" stroke="black" cx="470.5" cy="-18" rx="49.29" ry="18"/>
<text text-anchor="middle" x="470.5" y="-14.3" font-family="Times,serif" font-size="14.00">desenho</text>
</g>
<!-- 0&#45;&gt;6 -->
<g id="edge6" class="edge">
<title>0&#45;&gt;6</title>
<path fill="none" stroke="black" d="M1434.48,-103.61C1312.11,-101.72 809.15,-92.64 653.5,-69 605.28,-61.68 551.61,-46.1 514.94,-34.26"/>
<polygon fill="black" stroke="black" points="515.65,-30.81 505.06,-31.03 513.48,-37.47 515.65,-30.81"/>
<text text-anchor="middle" x="667" y="-57.8" font-family="Times,serif" font-size="14.00">dep</text>
</g>
<!-- 7 -->
<g id="node8" class="node">
<title>7</title>
<ellipse fill="none" stroke="black" cx="587.5" cy="-18" rx="50.09" ry="18"/>
<text text-anchor="middle" x="587.5" y="-14.3" font-family="Times,serif" font-size="14.00">animado</text>
</g>
<!-- 0&#45;&gt;7 -->
<g id="edge7" class="edge">
<title>0&#45;&gt;7</title>
<path fill="none" stroke="black" d="M1434.31,-103.66C1319.83,-102.08 876.62,-94.39 739.5,-69 700.8,-61.83 658.38,-47.29 628.21,-35.72"/>
<polygon fill="black" stroke="black" points="629.46,-32.45 618.87,-32.09 626.92,-38.97 629.46,-32.45"/>
<text text-anchor="middle" x="753" y="-57.8" font-family="Times,serif" font-size="14.00">dep</text>
</g>
<!-- 8 -->
<g id="node9" class="node">
<title>8</title>
<ellipse fill="none" stroke="black" cx="682.5" cy="-18" rx="27" ry="18"/>
<text text-anchor="middle" x="682.5" y="-14.3" font-family="Times,serif" font-size="14.00">«</text>
</g>
<!-- 0&#45;&gt;8 -->
<g id="edge8" class="edge">
<title>0&#45;&gt;8</title>
<path fill="none" stroke="black" d="M1434.45,-103.29C1329.96,-100.41 952.63,-88.85 834.5,-69 781.64,-60.12 768.68,-54.84 718.5,-36 716.65,-35.31 714.77,-34.56 712.89,-33.77"/>
<polygon fill="black" stroke="black" points="714.13,-30.5 703.57,-29.66 711.3,-36.9 714.13,-30.5"/>
<text text-anchor="middle" x="848" y="-57.8" font-family="Times,serif" font-size="14.00">dep</text>
</g>
<!-- 9 -->
<g id="node10" class="node">
<title>9</title>
<ellipse fill="none" stroke="black" cx="769.5" cy="-18" rx="41.69" ry="18"/>
<text text-anchor="middle" x="769.5" y="-14.3" font-family="Times,serif" font-size="14.00">Beavis</text>
</g>
<!-- 0&#45;&gt;9 -->
<g id="edge9" class="edge">
<title>0&#45;&gt;9</title>
<path fill="none" stroke="black" d="M1434.58,-103.18C1339.53,-100.13 1019.9,-88.63 919.5,-69 880.53,-61.38 837.71,-46.41 807.83,-34.82"/>
<polygon fill="black" stroke="black" points="808.8,-31.45 798.22,-31.04 806.24,-37.96 808.8,-31.45"/>
<text text-anchor="middle" x="933" y="-57.8" font-family="Times,serif" font-size="14.00">dep</text>
</g>
<!-- 10 -->
<g id="node11" class="node">
<title>10</title>
<ellipse fill="none" stroke="black" cx="856.5" cy="-18" rx="27" ry="18"/>
<text text-anchor="middle" x="856.5" y="-14.3" font-family="Times,serif" font-size="14.00">e</text>
</g>
<!-- 0&#45;&gt;10 -->
<g id="edge10" class="edge">
<title>0&#45;&gt;10</title>
<path fill="none" stroke="black" d="M1434.46,-103.29C1366.07,-101.18 1180.77,-93.47 1028.5,-69 967.09,-59.13 951.14,-56.72 892.5,-36 890.59,-35.33 888.65,-34.59 886.71,-33.8"/>
<polygon fill="black" stroke="black" points="887.7,-30.41 877.13,-29.62 884.9,-36.83 887.7,-30.41"/>
<text text-anchor="middle" x="1042" y="-57.8" font-family="Times,serif" font-size="14.00">dep</text>
</g>
<!-- 11 -->
<g id="node12" class="node">
<title>11</title>
<ellipse fill="none" stroke="black" cx="959.5" cy="-18" rx="58.49" ry="18"/>
<text text-anchor="middle" x="959.5" y="-14.3" font-family="Times,serif" font-size="14.00">Butt&#45;Head</text>
</g>
<!-- 0&#45;&gt;11 -->
<g id="edge11" class="edge">
<title>0&#45;&gt;11</title>
<path fill="none" stroke="black" d="M1434.29,-103.18C1375.51,-100.99 1232.53,-93.39 1115.5,-69 1077.18,-61.01 1034.99,-47.17 1004.15,-36.07"/>
<polygon fill="black" stroke="black" points="1005.15,-32.71 994.56,-32.57 1002.75,-39.28 1005.15,-32.71"/>
<text text-anchor="middle" x="1129" y="-57.8" font-family="Times,serif" font-size="14.00">dep</text>
</g>
<!-- 12 -->
<g id="node13" class="node">
<title>12</title>
<ellipse fill="none" stroke="black" cx="1062.5" cy="-18" rx="27" ry="18"/>
<text text-anchor="middle" x="1062.5" y="-14.3" font-family="Times,serif" font-size="14.00">»</text>
</g>
<!-- 0&#45;&gt;12 -->
<g id="edge12" class="edge">
<title>0&#45;&gt;12</title>
<path fill="none" stroke="black" d="M1434.76,-101.92C1387.47,-97.91 1286.17,-87.78 1202.5,-69 1155.18,-58.38 1143.63,-53.73 1098.5,-36 1096.66,-35.28 1094.79,-34.51 1092.91,-33.71"/>
<polygon fill="black" stroke="black" points="1094.17,-30.44 1083.61,-29.55 1091.31,-36.83 1094.17,-30.44"/>
<text text-anchor="middle" x="1216" y="-57.8" font-family="Times,serif" font-size="14.00">dep</text>
</g>
<!-- 13 -->
<g id="node14" class="node">
<title>13</title>
<ellipse fill="none" stroke="black" cx="1134.5" cy="-18" rx="27" ry="18"/>
<text text-anchor="middle" x="1134.5" y="-14.3" font-family="Times,serif" font-size="14.00">por</text>
</g>
<!-- 0&#45;&gt;13 -->
<g id="edge13" class="edge">
<title>0&#45;&gt;13</title>
<path fill="none" stroke="black" d="M1435.28,-99.8C1383.65,-91.1 1265.54,-69.13 1170.5,-36 1168.59,-35.33 1166.65,-34.6 1164.7,-33.82"/>
<polygon fill="black" stroke="black" points="1165.69,-30.43 1155.12,-29.65 1162.9,-36.85 1165.69,-30.43"/>
<text text-anchor="middle" x="1295" y="-57.8" font-family="Times,serif" font-size="14.00">dep</text>
</g>
<!-- 14 -->
<g id="node15" class="node">
<title>14</title>
<ellipse fill="none" stroke="black" cx="1253.5" cy="-18" rx="74.19" ry="18"/>
<text text-anchor="middle" x="1253.5" y="-14.3" font-family="Times,serif" font-size="14.00">determinação</text>
</g>
<!-- 0&#45;&gt;14 -->
<g id="edge14" class="edge">
<title>0&#45;&gt;14</title>
<path fill="none" stroke="black" d="M1438.84,-94.74C1405.46,-81.1 1342.36,-55.31 1299.14,-37.65"/>
<polygon fill="black" stroke="black" points="1300.28,-34.34 1289.7,-33.79 1297.63,-40.82 1300.28,-34.34"/>
<text text-anchor="middle" x="1384" y="-57.8" font-family="Times,serif" font-size="14.00">dep</text>
</g>
<!-- 15 -->
<g id="node16" class="node">
<title>15</title>
<ellipse fill="none" stroke="black" cx="1372.5" cy="-18" rx="27" ry="18"/>
<text text-anchor="middle" x="1372.5" y="-14.3" font-family="Times,serif" font-size="14.00">de</text>
</g>
<!-- 0&#45;&gt;15 -->
<g id="edge15" class="edge">
<title>0&#45;&gt;15</title>
<path fill="none" stroke="black" d="M1446.4,-89.58C1432.25,-76.07 1410.92,-55.7 1394.81,-40.31"/>
<polygon fill="black" stroke="black" points="1397.02,-37.58 1387.37,-33.21 1392.19,-42.64 1397.02,-37.58"/>
<text text-anchor="middle" x="1436" y="-57.8" font-family="Times,serif" font-size="14.00">dep</text>
</g>
<!-- 16 -->
<g id="node17" class="node">
<title>16</title>
<ellipse fill="none" stroke="black" cx="1461.5" cy="-18" rx="44.39" ry="18"/>
<text text-anchor="middle" x="1461.5" y="-14.3" font-family="Times,serif" font-size="14.00">liminar</text>
</g>
<!-- 0&#45;&gt;16 -->
<g id="edge16" class="edge">
<title>0&#45;&gt;16</title>
<path fill="none" stroke="black" d="M1461.5,-86.8C1461.5,-75.16 1461.5,-59.55 1461.5,-46.24"/>
<polygon fill="black" stroke="black" points="1465,-46.18 1461.5,-36.18 1458,-46.18 1465,-46.18"/>
<text text-anchor="middle" x="1475" y="-57.8" font-family="Times,serif" font-size="14.00">dep</text>
</g>
<!-- 17 -->
<g id="node18" class="node">
<title>17</title>
<ellipse fill="none" stroke="black" cx="1576.5" cy="-18" rx="52.79" ry="18"/>
<text text-anchor="middle" x="1576.5" y="-14.3" font-family="Times,serif" font-size="14.00">expedida</text>
</g>
<!-- 0&#45;&gt;17 -->
<g id="edge17" class="edge">
<title>0&#45;&gt;17</title>
<path fill="none" stroke="black" d="M1478.96,-91.09C1497.05,-77.72 1525.62,-56.61 1547.17,-40.68"/>
<polygon fill="black" stroke="black" points="1549.38,-43.39 1555.34,-34.64 1545.22,-37.76 1549.38,-43.39"/>
<text text-anchor="middle" x="1540" y="-57.8" font-family="Times,serif" font-size="14.00">dep</text>
</g>
<!-- 18 -->
<g id="node19" class="node">
<title>18</title>
<ellipse fill="none" stroke="black" cx="1674.5" cy="-18" rx="27" ry="18"/>
<text text-anchor="middle" x="1674.5" y="-14.3" font-family="Times,serif" font-size="14.00">por</text>
</g>
<!-- 0&#45;&gt;18 -->
<g id="edge18" class="edge">
<title>0&#45;&gt;18</title>
<path fill="none" stroke="black" d="M1484.98,-95.78C1519.15,-83.64 1584.4,-59.77 1638.5,-36 1640.3,-35.21 1642.15,-34.38 1644.01,-33.54"/>
<polygon fill="black" stroke="black" points="1645.65,-36.63 1653.26,-29.26 1642.72,-30.28 1645.65,-36.63"/>
<text text-anchor="middle" x="1609" y="-57.8" font-family="Times,serif" font-size="14.00">dep</text>
</g>
<!-- 19 -->
<g id="node20" class="node">
<title>19</title>
<ellipse fill="none" stroke="black" cx="1746.5" cy="-18" rx="27" ry="18"/>
<text text-anchor="middle" x="1746.5" y="-14.3" font-family="Times,serif" font-size="14.00">a</text>
</g>
<!-- 0&#45;&gt;19 -->
<g id="edge19" class="edge">
<title>0&#45;&gt;19</title>
<path fill="none" stroke="black" d="M1487.55,-99.85C1520.36,-94.3 1578.26,-83.48 1626.5,-69 1664.91,-57.47 1673.67,-51.91 1710.5,-36 1712.31,-35.22 1714.16,-34.4 1716.02,-33.56"/>
<polygon fill="black" stroke="black" points="1717.66,-36.66 1725.28,-29.31 1714.74,-30.3 1717.66,-36.66"/>
<text text-anchor="middle" x="1683" y="-57.8" font-family="Times,serif" font-size="14.00">dep</text>
</g>
<!-- 20 -->
<g id="node21" class="node">
<title>20</title>
<ellipse fill="none" stroke="black" cx="1823.5" cy="-18" rx="31.7" ry="18"/>
<text text-anchor="middle" x="1823.5" y="-14.3" font-family="Times,serif" font-size="14.00">Vara</text>
</g>
<!-- 0&#45;&gt;20 -->
<g id="edge20" class="edge">
<title>0&#45;&gt;20</title>
<path fill="none" stroke="black" d="M1488.44,-102.15C1533.15,-98.61 1625.2,-89.35 1700.5,-69 1732.13,-60.45 1766.55,-45.98 1790.91,-34.8"/>
<polygon fill="black" stroke="black" points="1792.47,-37.94 1800.05,-30.55 1789.51,-31.59 1792.47,-37.94"/>
<text text-anchor="middle" x="1759" y="-57.8" font-family="Times,serif" font-size="14.00">dep</text>
</g>
<!-- 21 -->
<g id="node22" class="node">
<title>21</title>
<ellipse fill="none" stroke="black" cx="1918.5" cy="-18" rx="45.49" ry="18"/>
<text text-anchor="middle" x="1918.5" y="-14.3" font-family="Times,serif" font-size="14.00">Central</text>
</g>
<!-- 0&#45;&gt;21 -->
<g id="edge21" class="edge">
<title>0&#45;&gt;21</title>
<path fill="none" stroke="black" d="M1488.39,-103.07C1543.22,-100.74 1671.63,-92.96 1776.5,-69 1812.05,-60.88 1851.04,-46.75 1879.15,-35.58"/>
<polygon fill="black" stroke="black" points="1880.65,-38.75 1888.62,-31.77 1878.03,-32.26 1880.65,-38.75"/>
<text text-anchor="middle" x="1842" y="-57.8" font-family="Times,serif" font-size="14.00">dep</text>
</g>
<!-- 22 -->
<g id="node23" class="node">
<title>22</title>
<ellipse fill="none" stroke="black" cx="2008.5" cy="-18" rx="27" ry="18"/>
<text text-anchor="middle" x="2008.5" y="-14.3" font-family="Times,serif" font-size="14.00">de</text>
</g>
<!-- 0&#45;&gt;22 -->
<g id="edge22" class="edge">
<title>0&#45;&gt;22</title>
<path fill="none" stroke="black" d="M1488.77,-103.44C1553.6,-101.72 1721.8,-94.9 1859.5,-69 1910.92,-59.33 1923.58,-54.56 1972.5,-36 1974.34,-35.3 1976.22,-34.55 1978.1,-33.76"/>
<polygon fill="black" stroke="black" points="1979.69,-36.88 1987.42,-29.63 1976.86,-30.48 1979.69,-36.88"/>
<text text-anchor="middle" x="1937" y="-57.8" font-family="Times,serif" font-size="14.00">dep</text>
</g>
<!-- 23 -->
<g id="node24" class="node">
<title>23</title>
<ellipse fill="none" stroke="black" cx="2080.5" cy="-18" rx="27" ry="18"/>
<text text-anchor="middle" x="2080.5" y="-14.3" font-family="Times,serif" font-size="14.00">a</text>
</g>
<!-- 0&#45;&gt;23 -->
<g id="edge23" class="edge">
<title>0&#45;&gt;23</title>
<path fill="none" stroke="black" d="M1488.44,-103.08C1577.88,-99.88 1864.3,-88.33 1954.5,-69 1988.63,-61.68 2025.5,-46.06 2050.49,-34.22"/>
<polygon fill="black" stroke="black" points="2052.29,-37.23 2059.77,-29.73 2049.25,-30.93 2052.29,-37.23"/>
<text text-anchor="middle" x="2015" y="-57.8" font-family="Times,serif" font-size="14.00">dep</text>
</g>
<!-- 24 -->
<g id="node25" class="node">
<title>24</title>
<ellipse fill="none" stroke="black" cx="2173.5" cy="-18" rx="48.19" ry="18"/>
<text text-anchor="middle" x="2173.5" y="-14.3" font-family="Times,serif" font-size="14.00">Infância</text>
</g>
<!-- 0&#45;&gt;24 -->
<g id="edge24" class="edge">
<title>0&#45;&gt;24</title>
<path fill="none" stroke="black" d="M1488.49,-103.34C1586.94,-100.8 1926.42,-90.61 2032.5,-69 2068.01,-61.76 2106.7,-47.56 2134.56,-36.13"/>
<polygon fill="black" stroke="black" points="2136.05,-39.3 2143.93,-32.22 2133.36,-32.84 2136.05,-39.3"/>
<text text-anchor="middle" x="2098" y="-57.8" font-family="Times,serif" font-size="14.00">dep</text>
</g>
<!-- 25 -->
<g id="node26" class="node">
<title>25</title>
<ellipse fill="none" stroke="black" cx="2266.5" cy="-18" rx="27" ry="18"/>
<text text-anchor="middle" x="2266.5" y="-14.3" font-family="Times,serif" font-size="14.00">e</text>
</g>
<!-- 0&#45;&gt;25 -->
<g id="edge25" class="edge">
<title>0&#45;&gt;25</title>
<path fill="none" stroke="black" d="M1488.61,-103.37C1596.02,-100.73 1991.87,-89.77 2115.5,-69 2167.94,-60.19 2180.74,-54.75 2230.5,-36 2232.34,-35.31 2234.22,-34.55 2236.1,-33.77"/>
<polygon fill="black" stroke="black" points="2237.69,-36.89 2245.42,-29.65 2234.86,-30.49 2237.69,-36.89"/>
<text text-anchor="middle" x="2194" y="-57.8" font-family="Times,serif" font-size="14.00">dep</text>
</g>
<!-- 26 -->
<g id="node27" class="node">
<title>26</title>
<ellipse fill="none" stroke="black" cx="2369.5" cy="-18" rx="57.69" ry="18"/>
<text text-anchor="middle" x="2369.5" y="-14.3" font-family="Times,serif" font-size="14.00">Juventude</text>
</g>
<!-- 0&#45;&gt;26 -->
<g id="edge26" class="edge">
<title>0&#45;&gt;26</title>
<path fill="none" stroke="black" d="M1488.54,-103.68C1605.51,-102.14 2068.42,-94.53 2211.5,-69 2250.98,-61.95 2294.32,-47.75 2325.6,-36.28"/>
<polygon fill="black" stroke="black" points="2327.17,-39.43 2335.32,-32.67 2324.72,-32.87 2327.17,-39.43"/>
<text text-anchor="middle" x="2283" y="-57.8" font-family="Times,serif" font-size="14.00">dep</text>
</g>
<!-- 27 -->
<g id="node28" class="node">
<title>27</title>
<ellipse fill="none" stroke="black" cx="2472.5" cy="-18" rx="27" ry="18"/>
<text text-anchor="middle" x="2472.5" y="-14.3" font-family="Times,serif" font-size="14.00">,</text>
</g>
<!-- 0&#45;&gt;27 -->
<g id="edge27" class="edge">
<title>0&#45;&gt;27</title>
<path fill="none" stroke="black" d="M1488.7,-103.58C1614.22,-101.55 2138.27,-91.84 2300.5,-69 2362.09,-60.33 2377.85,-56.72 2436.5,-36 2438.4,-35.33 2440.34,-34.59 2442.29,-33.8"/>
<polygon fill="black" stroke="black" points="2444.09,-36.83 2451.86,-29.62 2441.29,-30.41 2444.09,-36.83"/>
<text text-anchor="middle" x="2395" y="-57.8" font-family="Times,serif" font-size="14.00">dep</text>
</g>
<!-- 28 -->
<g id="node29" class="node">
<title>28</title>
<ellipse fill="none" stroke="black" cx="2544.5" cy="-18" rx="27" ry="18"/>
<text text-anchor="middle" x="2544.5" y="-14.3" font-family="Times,serif" font-size="14.00">em</text>
</g>
<!-- 0&#45;&gt;28 -->
<g id="edge28" class="edge">
<title>0&#45;&gt;28</title>
<path fill="none" stroke="black" d="M1488.69,-104.08C1624.32,-104.29 2228.34,-103.26 2412.5,-69 2448.81,-62.24 2488.13,-46.11 2514.32,-33.98"/>
<polygon fill="black" stroke="black" points="2516.14,-36.99 2523.68,-29.56 2513.15,-30.66 2516.14,-36.99"/>
<text text-anchor="middle" x="2479" y="-57.8" font-family="Times,serif" font-size="14.00">dep</text>
</g>
<!-- 29 -->
<g id="node30" class="node">
<title>29</title>
<ellipse fill="none" stroke="black" cx="2617.5" cy="-18" rx="27.9" ry="18"/>
<text text-anchor="middle" x="2617.5" y="-14.3" font-family="Times,serif" font-size="14.00">São</text>
</g>
<!-- 0&#45;&gt;29 -->
<g id="edge29" class="edge">
<title>0&#45;&gt;29</title>
<path fill="none" stroke="black" d="M1488.47,-103.64C1641.31,-101.49 2395.32,-89.94 2496.5,-69 2528.97,-62.28 2563.73,-46.98 2587.62,-35.06"/>
<polygon fill="black" stroke="black" points="2589.53,-38.02 2596.85,-30.36 2586.35,-31.78 2589.53,-38.02"/>
<text text-anchor="middle" x="2558" y="-57.8" font-family="Times,serif" font-size="14.00">dep</text>
</g>
<!-- 30 -->
<g id="node31" class="node">
<title>30</title>
<ellipse fill="none" stroke="black" cx="2699.5" cy="-18" rx="36.29" ry="18"/>
<text text-anchor="middle" x="2699.5" y="-14.3" font-family="Times,serif" font-size="14.00">Paulo</text>
</g>
<!-- 0&#45;&gt;30 -->
<g id="edge30" class="edge">
<title>0&#45;&gt;30</title>
<path fill="none" stroke="black" d="M1488.68,-103.72C1648.87,-101.97 2466.26,-91.98 2575.5,-69 2607.58,-62.25 2642.01,-47.73 2666.43,-36.06"/>
<polygon fill="black" stroke="black" points="2668.14,-39.12 2675.6,-31.59 2665.07,-32.83 2668.14,-39.12"/>
<text text-anchor="middle" x="2639" y="-57.8" font-family="Times,serif" font-size="14.00">dep</text>
</g>
<!-- 31 -->
<g id="node32" class="node">
<title>31</title>
<ellipse fill="none" stroke="black" cx="2780.5" cy="-18" rx="27" ry="18"/>
<text text-anchor="middle" x="2780.5" y="-14.3" font-family="Times,serif" font-size="14.00">.</text>
</g>
<!-- 0&#45;&gt;31 -->
<g id="edge31" class="edge">
<title>0&#45;&gt;31</title>
<path fill="none" stroke="black" d="M1488.46,-103.74C1654.82,-102.08 2538.5,-92.19 2656.5,-69 2690.28,-62.36 2726.54,-46.63 2751.06,-34.58"/>
<polygon fill="black" stroke="black" points="2752.81,-37.61 2760.18,-30 2749.67,-31.36 2752.81,-37.61"/>
<text text-anchor="middle" x="2720" y="-57.8" font-family="Times,serif" font-size="14.00">dep</text>
</g>
</g>
</svg>
