<?xml version="1.0" encoding="UTF-8" standalone="no"?>
<!DOCTYPE svg PUBLIC "-//W3C//DTD SVG 1.1//EN"
 "http://www.w3.org/Graphics/SVG/1.1/DTD/svg11.dtd">
<!-- Generated by graphviz version 2.42.4 (0)
 -->
<!-- Pages: 1 -->
<svg width="1578pt" height="131pt"
 viewBox="0.00 0.00 1578.14 131.00" xmlns="http://www.w3.org/2000/svg" xmlns:xlink="http://www.w3.org/1999/xlink">
<g id="graph0" class="graph" transform="scale(1 1) rotate(0) translate(4 127)">
<polygon fill="white" stroke="transparent" points="-4,4 -4,-127 1574.14,-127 1574.14,4 -4,4"/>
<!-- 0 -->
<g id="node1" class="node">
<title>0</title>
<ellipse fill="none" stroke="black" cx="807.14" cy="-105" rx="27" ry="18"/>
<text text-anchor="middle" x="807.14" y="-101.3" font-family="Times,serif" font-size="14.00">A</text>
</g>
<!-- 1 -->
<g id="node2" class="node">
<title>1</title>
<ellipse fill="none" stroke="black" cx="72.14" cy="-18" rx="72.29" ry="18"/>
<text text-anchor="middle" x="72.14" y="-14.3" font-family="Times,serif" font-size="14.00">concentração</text>
</g>
<!-- 0&#45;&gt;1 -->
<g id="edge1" class="edge">
<title>0&#45;&gt;1</title>
<path fill="none" stroke="black" d="M780.06,-104.28C699.21,-104.67 452.78,-102.81 252.14,-69 207.71,-61.51 158.49,-47.42 122.76,-36.11"/>
<polygon fill="black" stroke="black" points="123.65,-32.72 113.06,-32.99 121.51,-39.38 123.65,-32.72"/>
<text text-anchor="middle" x="265.64" y="-57.8" font-family="Times,serif" font-size="14.00">dep</text>
</g>
<!-- 2 -->
<g id="node3" class="node">
<title>2</title>
<ellipse fill="none" stroke="black" cx="189.14" cy="-18" rx="27" ry="18"/>
<text text-anchor="middle" x="189.14" y="-14.3" font-family="Times,serif" font-size="14.00">de</text>
</g>
<!-- 0&#45;&gt;2 -->
<g id="edge2" class="edge">
<title>0&#45;&gt;2</title>
<path fill="none" stroke="black" d="M780.01,-103.4C710.03,-101.52 517.9,-94.29 360.14,-69 299.16,-59.22 283.36,-56.63 225.14,-36 223.24,-35.32 221.3,-34.58 219.36,-33.8"/>
<polygon fill="black" stroke="black" points="220.35,-30.41 209.78,-29.62 217.55,-36.83 220.35,-30.41"/>
<text text-anchor="middle" x="373.64" y="-57.8" font-family="Times,serif" font-size="14.00">dep</text>
</g>
<!-- 3 -->
<g id="node4" class="node">
<title>3</title>
<ellipse fill="none" stroke="black" cx="292.14" cy="-18" rx="58.49" ry="18"/>
<text text-anchor="middle" x="292.14" y="-14.3" font-family="Times,serif" font-size="14.00">funerárias</text>
</g>
<!-- 0&#45;&gt;3 -->
<g id="edge3" class="edge">
<title>0&#45;&gt;3</title>
<path fill="none" stroke="black" d="M780.12,-103.38C719.67,-101.56 569.13,-94.61 446.14,-69 408.27,-61.11 366.62,-47.26 336.19,-36.13"/>
<polygon fill="black" stroke="black" points="337.32,-32.82 326.73,-32.62 334.89,-39.38 337.32,-32.82"/>
<text text-anchor="middle" x="459.64" y="-57.8" font-family="Times,serif" font-size="14.00">dep</text>
</g>
<!-- 4 -->
<g id="node5" class="node">
<title>4</title>
<ellipse fill="none" stroke="black" cx="395.14" cy="-18" rx="27" ry="18"/>
<text text-anchor="middle" x="395.14" y="-14.3" font-family="Times,serif" font-size="14.00">se</text>
</g>
<!-- 0&#45;&gt;4 -->
<g id="edge4" class="edge">
<title>0&#45;&gt;4</title>
<path fill="none" stroke="black" d="M780.08,-102.53C729.58,-99.36 617.83,-90.38 526.14,-69 482.61,-58.85 472.52,-52.9 431.14,-36 429.32,-35.26 427.46,-34.47 425.58,-33.65"/>
<polygon fill="black" stroke="black" points="426.85,-30.38 416.3,-29.45 423.96,-36.76 426.85,-30.38"/>
<text text-anchor="middle" x="539.64" y="-57.8" font-family="Times,serif" font-size="14.00">dep</text>
</g>
<!-- 5 -->
<g id="node6" class="node">
<title>5</title>
<ellipse fill="none" stroke="black" cx="472.14" cy="-18" rx="32.49" ry="18"/>
<text text-anchor="middle" x="472.14" y="-14.3" font-family="Times,serif" font-size="14.00">deve</text>
</g>
<!-- 0&#45;&gt;5 -->
<g id="edge5" class="edge">
<title>0&#45;&gt;5</title>
<path fill="none" stroke="black" d="M780.46,-101.11C740.84,-96.46 664.36,-86.06 601.14,-69 560.82,-58.12 552,-51.33 513.14,-36 511.05,-35.17 508.89,-34.31 506.73,-33.44"/>
<polygon fill="black" stroke="black" points="507.82,-30.1 497.24,-29.57 505.18,-36.59 507.82,-30.1"/>
<text text-anchor="middle" x="614.64" y="-57.8" font-family="Times,serif" font-size="14.00">dep</text>
</g>
<!-- 6 -->
<g id="node7" class="node">
<title>6</title>
<ellipse fill="none" stroke="black" cx="549.14" cy="-18" rx="27" ry="18"/>
<text text-anchor="middle" x="549.14" y="-14.3" font-family="Times,serif" font-size="14.00">,</text>
</g>
<!-- 0&#45;&gt;6 -->
<g id="edge6" class="edge">
<title>0&#45;&gt;6</title>
<path fill="none" stroke="black" d="M782.13,-98.1C755.44,-91.63 712,-80.62 675.14,-69 634.51,-56.19 624.45,-52.45 585.14,-36 583.33,-35.24 581.47,-34.44 579.6,-33.61"/>
<polygon fill="black" stroke="black" points="580.87,-30.35 570.32,-29.39 577.97,-36.72 580.87,-30.35"/>
<text text-anchor="middle" x="688.64" y="-57.8" font-family="Times,serif" font-size="14.00">dep</text>
</g>
<!-- 7 -->
<g id="node8" class="node">
<title>7</title>
<ellipse fill="none" stroke="black" cx="642.14" cy="-18" rx="48.19" ry="18"/>
<text text-anchor="middle" x="642.14" y="-14.3" font-family="Times,serif" font-size="14.00">imagino</text>
</g>
<!-- 0&#45;&gt;7 -->
<g id="edge7" class="edge">
<title>0&#45;&gt;7</title>
<path fill="none" stroke="black" d="M785.28,-94.08C770.46,-87.26 750.48,-77.85 733.14,-69 714.18,-59.32 693.34,-47.92 676.4,-38.46"/>
<polygon fill="black" stroke="black" points="677.85,-35.27 667.42,-33.43 674.43,-41.37 677.85,-35.27"/>
<text text-anchor="middle" x="746.64" y="-57.8" font-family="Times,serif" font-size="14.00">dep</text>
</g>
<!-- 8 -->
<g id="node9" class="node">
<title>8</title>
<ellipse fill="none" stroke="black" cx="735.14" cy="-18" rx="27" ry="18"/>
<text text-anchor="middle" x="735.14" y="-14.3" font-family="Times,serif" font-size="14.00">,</text>
</g>
<!-- 0&#45;&gt;8 -->
<g id="edge8" class="edge">
<title>0&#45;&gt;8</title>
<path fill="none" stroke="black" d="M793.74,-89.12C788.24,-82.94 781.83,-75.67 776.14,-69 768.83,-60.41 760.93,-50.86 754.05,-42.43"/>
<polygon fill="black" stroke="black" points="756.58,-39.99 747.55,-34.44 751.15,-44.41 756.58,-39.99"/>
<text text-anchor="middle" x="789.64" y="-57.8" font-family="Times,serif" font-size="14.00">dep</text>
</g>
<!-- 9 -->
<g id="node10" class="node">
<title>9</title>
<ellipse fill="none" stroke="black" cx="807.14" cy="-18" rx="27" ry="18"/>
<text text-anchor="middle" x="807.14" y="-14.3" font-family="Times,serif" font-size="14.00">a</text>
</g>
<!-- 0&#45;&gt;9 -->
<g id="edge9" class="edge">
<title>0&#45;&gt;9</title>
<path fill="none" stroke="black" d="M807.14,-86.8C807.14,-75.16 807.14,-59.55 807.14,-46.24"/>
<polygon fill="black" stroke="black" points="810.64,-46.18 807.14,-36.18 803.64,-46.18 810.64,-46.18"/>
<text text-anchor="middle" x="820.64" y="-57.8" font-family="Times,serif" font-size="14.00">dep</text>
</g>
<!-- 10 -->
<g id="node11" class="node">
<title>10</title>
<ellipse fill="none" stroke="black" cx="879.14" cy="-18" rx="27" ry="18"/>
<text text-anchor="middle" x="879.14" y="-14.3" font-family="Times,serif" font-size="14.00">a</text>
</g>
<!-- 0&#45;&gt;10 -->
<g id="edge10" class="edge">
<title>0&#45;&gt;10</title>
<path fill="none" stroke="black" d="M820.54,-89.12C826.05,-82.94 832.46,-75.67 838.14,-69 845.46,-60.41 853.35,-50.86 860.24,-42.43"/>
<polygon fill="black" stroke="black" points="863.14,-44.41 866.73,-34.44 857.71,-39.99 863.14,-44.41"/>
<text text-anchor="middle" x="864.64" y="-57.8" font-family="Times,serif" font-size="14.00">dep</text>
</g>
<!-- 11 -->
<g id="node12" class="node">
<title>11</title>
<ellipse fill="none" stroke="black" cx="993.14" cy="-18" rx="68.79" ry="18"/>
<text text-anchor="middle" x="993.14" y="-14.3" font-family="Times,serif" font-size="14.00">proximidade</text>
</g>
<!-- 0&#45;&gt;11 -->
<g id="edge11" class="edge">
<title>0&#45;&gt;11</title>
<path fill="none" stroke="black" d="M828.84,-94.08C858.7,-80.44 913.07,-55.59 951.06,-38.23"/>
<polygon fill="black" stroke="black" points="952.7,-41.33 960.34,-33.99 949.79,-34.97 952.7,-41.33"/>
<text text-anchor="middle" x="925.64" y="-57.8" font-family="Times,serif" font-size="14.00">dep</text>
</g>
<!-- 12 -->
<g id="node13" class="node">
<title>12</title>
<ellipse fill="none" stroke="black" cx="1107.14" cy="-18" rx="27" ry="18"/>
<text text-anchor="middle" x="1107.14" y="-14.3" font-family="Times,serif" font-size="14.00">de</text>
</g>
<!-- 0&#45;&gt;12 -->
<g id="edge12" class="edge">
<title>0&#45;&gt;12</title>
<path fill="none" stroke="black" d="M832.74,-99.09C880.46,-89.57 985.9,-66.8 1071.14,-36 1073,-35.33 1074.88,-34.6 1076.77,-33.83"/>
<polygon fill="black" stroke="black" points="1078.35,-36.96 1086.11,-29.75 1075.54,-30.55 1078.35,-36.96"/>
<text text-anchor="middle" x="1028.64" y="-57.8" font-family="Times,serif" font-size="14.00">dep</text>
</g>
<!-- 13 -->
<g id="node14" class="node">
<title>13</title>
<ellipse fill="none" stroke="black" cx="1179.14" cy="-18" rx="27" ry="18"/>
<text text-anchor="middle" x="1179.14" y="-14.3" font-family="Times,serif" font-size="14.00">o</text>
</g>
<!-- 0&#45;&gt;13 -->
<g id="edge13" class="edge">
<title>0&#45;&gt;13</title>
<path fill="none" stroke="black" d="M833.97,-101.68C878.51,-97.48 970.32,-87.29 1046.14,-69 1090.41,-58.32 1100.93,-53.08 1143.14,-36 1144.97,-35.26 1146.84,-34.48 1148.71,-33.66"/>
<polygon fill="black" stroke="black" points="1150.32,-36.77 1158,-29.47 1147.45,-30.39 1150.32,-36.77"/>
<text text-anchor="middle" x="1110.64" y="-57.8" font-family="Times,serif" font-size="14.00">dep</text>
</g>
<!-- 14 -->
<g id="node15" class="node">
<title>14</title>
<ellipse fill="none" stroke="black" cx="1279.14" cy="-18" rx="54.69" ry="18"/>
<text text-anchor="middle" x="1279.14" y="-14.3" font-family="Times,serif" font-size="14.00">cemitério</text>
</g>
<!-- 0&#45;&gt;14 -->
<g id="edge14" class="edge">
<title>0&#45;&gt;14</title>
<path fill="none" stroke="black" d="M834.08,-102.98C889.65,-100.46 1020.78,-92.35 1128.14,-69 1165.36,-60.91 1206.3,-47.02 1236.15,-35.94"/>
<polygon fill="black" stroke="black" points="1237.7,-39.09 1245.83,-32.29 1235.24,-32.54 1237.7,-39.09"/>
<text text-anchor="middle" x="1196.64" y="-57.8" font-family="Times,serif" font-size="14.00">dep</text>
</g>
<!-- 15 -->
<g id="node16" class="node">
<title>15</title>
<ellipse fill="none" stroke="black" cx="1379.14" cy="-18" rx="27" ry="18"/>
<text text-anchor="middle" x="1379.14" y="-14.3" font-family="Times,serif" font-size="14.00">de</text>
</g>
<!-- 0&#45;&gt;15 -->
<g id="edge15" class="edge">
<title>0&#45;&gt;15</title>
<path fill="none" stroke="black" d="M834.49,-103.2C900.3,-100.94 1072.55,-93.03 1214.14,-69 1272.49,-59.1 1287.47,-56.06 1343.14,-36 1345,-35.33 1346.88,-34.6 1348.77,-33.83"/>
<polygon fill="black" stroke="black" points="1350.35,-36.97 1358.11,-29.75 1347.54,-30.55 1350.35,-36.97"/>
<text text-anchor="middle" x="1302.64" y="-57.8" font-family="Times,serif" font-size="14.00">dep</text>
</g>
<!-- 16 -->
<g id="node17" class="node">
<title>16</title>
<ellipse fill="none" stroke="black" cx="1461.14" cy="-18" rx="37.09" ry="18"/>
<text text-anchor="middle" x="1461.14" y="-14.3" font-family="Times,serif" font-size="14.00">Passy</text>
</g>
<!-- 0&#45;&gt;16 -->
<g id="edge16" class="edge">
<title>0&#45;&gt;16</title>
<path fill="none" stroke="black" d="M834.2,-103.1C926.11,-99.91 1225.79,-88.25 1320.14,-69 1357.14,-61.45 1397.58,-46.36 1425.63,-34.72"/>
<polygon fill="black" stroke="black" points="1427.15,-37.87 1435.01,-30.76 1424.43,-31.42 1427.15,-37.87"/>
<text text-anchor="middle" x="1385.64" y="-57.8" font-family="Times,serif" font-size="14.00">dep</text>
</g>
<!-- 17 -->
<g id="node18" class="node">
<title>17</title>
<ellipse fill="none" stroke="black" cx="1543.14" cy="-18" rx="27" ry="18"/>
<text text-anchor="middle" x="1543.14" y="-14.3" font-family="Times,serif" font-size="14.00">.</text>
</g>
<!-- 0&#45;&gt;17 -->
<g id="edge17" class="edge">
<title>0&#45;&gt;17</title>
<path fill="none" stroke="black" d="M834.25,-103.3C935.53,-100.56 1291.67,-89.63 1403.14,-69 1450.83,-60.18 1462.01,-53.73 1507.14,-36 1508.98,-35.28 1510.85,-34.51 1512.73,-33.71"/>
<polygon fill="black" stroke="black" points="1514.33,-36.83 1522.03,-29.55 1511.47,-30.44 1514.33,-36.83"/>
<text text-anchor="middle" x="1475.64" y="-57.8" font-family="Times,serif" font-size="14.00">dep</text>
</g>
</g>
</svg>
