<?xml version="1.0" encoding="UTF-8" standalone="no"?>
<!DOCTYPE svg PUBLIC "-//W3C//DTD SVG 1.1//EN"
 "http://www.w3.org/Graphics/SVG/1.1/DTD/svg11.dtd">
<!-- Generated by graphviz version 2.42.4 (0)
 -->
<!-- Pages: 1 -->
<svg width="1842pt" height="131pt"
 viewBox="0.00 0.00 1841.55 131.00" xmlns="http://www.w3.org/2000/svg" xmlns:xlink="http://www.w3.org/1999/xlink">
<g id="graph0" class="graph" transform="scale(1 1) rotate(0) translate(4 127)">
<polygon fill="white" stroke="transparent" points="-4,4 -4,-127 1837.55,-127 1837.55,4 -4,4"/>
<!-- 0 -->
<g id="node1" class="node">
<title>0</title>
<ellipse fill="none" stroke="black" cx="882.55" cy="-105" rx="27" ry="18"/>
<text text-anchor="middle" x="882.55" y="-101.3" font-family="Times,serif" font-size="14.00">Ao</text>
</g>
<!-- 1 -->
<g id="node2" class="node">
<title>1</title>
<ellipse fill="none" stroke="black" cx="30.55" cy="-18" rx="30.59" ry="18"/>
<text text-anchor="middle" x="30.55" y="-14.3" font-family="Times,serif" font-size="14.00">lado</text>
</g>
<!-- 0&#45;&gt;1 -->
<g id="edge1" class="edge">
<title>0&#45;&gt;1</title>
<path fill="none" stroke="black" d="M855.28,-103.96C739.45,-103.6 287.81,-100.17 149.55,-69 118.23,-61.94 84.7,-47.12 61.23,-35.44"/>
<polygon fill="black" stroke="black" points="62.64,-32.23 52.14,-30.82 59.47,-38.47 62.64,-32.23"/>
<text text-anchor="middle" x="163.05" y="-57.8" font-family="Times,serif" font-size="14.00">dep</text>
</g>
<!-- 2 -->
<g id="node3" class="node">
<title>2</title>
<ellipse fill="none" stroke="black" cx="106.55" cy="-18" rx="27" ry="18"/>
<text text-anchor="middle" x="106.55" y="-14.3" font-family="Times,serif" font-size="14.00">de</text>
</g>
<!-- 0&#45;&gt;2 -->
<g id="edge2" class="edge">
<title>0&#45;&gt;2</title>
<path fill="none" stroke="black" d="M855.33,-103.69C747.52,-102.29 350.29,-95.4 227.55,-69 194.93,-61.98 159.94,-46.58 136.02,-34.71"/>
<polygon fill="black" stroke="black" points="137.3,-31.43 126.8,-30.03 134.13,-37.68 137.3,-31.43"/>
<text text-anchor="middle" x="241.05" y="-57.8" font-family="Times,serif" font-size="14.00">dep</text>
</g>
<!-- 3 -->
<g id="node4" class="node">
<title>3</title>
<ellipse fill="none" stroke="black" cx="178.55" cy="-18" rx="27" ry="18"/>
<text text-anchor="middle" x="178.55" y="-14.3" font-family="Times,serif" font-size="14.00">o</text>
</g>
<!-- 0&#45;&gt;3 -->
<g id="edge3" class="edge">
<title>0&#45;&gt;3</title>
<path fill="none" stroke="black" d="M855.51,-103.31C756.92,-100.65 416.91,-90.13 310.55,-69 274.53,-61.84 235.45,-45.93 209.23,-33.97"/>
<polygon fill="black" stroke="black" points="210.39,-30.65 199.85,-29.6 207.44,-36.99 210.39,-30.65"/>
<text text-anchor="middle" x="324.05" y="-57.8" font-family="Times,serif" font-size="14.00">dep</text>
</g>
<!-- 4 -->
<g id="node5" class="node">
<title>4</title>
<ellipse fill="none" stroke="black" cx="250.55" cy="-18" rx="27" ry="18"/>
<text text-anchor="middle" x="250.55" y="-14.3" font-family="Times,serif" font-size="14.00">ala</text>
</g>
<!-- 0&#45;&gt;4 -->
<g id="edge4" class="edge">
<title>0&#45;&gt;4</title>
<path fill="none" stroke="black" d="M855.5,-103.63C783.48,-102.29 581.22,-96.18 415.55,-69 357.15,-59.42 342.22,-56.06 286.55,-36 284.69,-35.33 282.81,-34.6 280.92,-33.83"/>
<polygon fill="black" stroke="black" points="282.15,-30.55 271.58,-29.75 279.34,-36.97 282.15,-30.55"/>
<text text-anchor="middle" x="429.05" y="-57.8" font-family="Times,serif" font-size="14.00">dep</text>
</g>
<!-- 5 -->
<g id="node6" class="node">
<title>5</title>
<ellipse fill="none" stroke="black" cx="341.55" cy="-18" rx="46.29" ry="18"/>
<text text-anchor="middle" x="341.55" y="-14.3" font-family="Times,serif" font-size="14.00">Charles</text>
</g>
<!-- 0&#45;&gt;5 -->
<g id="edge5" class="edge">
<title>0&#45;&gt;5</title>
<path fill="none" stroke="black" d="M855.31,-103.35C792.88,-101.45 634.89,-94.31 505.55,-69 463.19,-60.71 416.2,-45.77 383.42,-34.37"/>
<polygon fill="black" stroke="black" points="384.31,-30.98 373.72,-30.96 381.99,-37.58 384.31,-30.98"/>
<text text-anchor="middle" x="519.05" y="-57.8" font-family="Times,serif" font-size="14.00">dep</text>
</g>
<!-- 6 -->
<g id="node7" class="node">
<title>6</title>
<ellipse fill="none" stroke="black" cx="451.55" cy="-18" rx="46.29" ry="18"/>
<text text-anchor="middle" x="451.55" y="-14.3" font-family="Times,serif" font-size="14.00">Barkley</text>
</g>
<!-- 0&#45;&gt;6 -->
<g id="edge6" class="edge">
<title>0&#45;&gt;6</title>
<path fill="none" stroke="black" d="M855.45,-103.01C802.63,-100.61 682.5,-92.79 584.55,-69 551.71,-61.02 515.93,-47.27 489.76,-36.2"/>
<polygon fill="black" stroke="black" points="490.79,-32.83 480.23,-32.11 488.03,-39.27 490.79,-32.83"/>
<text text-anchor="middle" x="598.05" y="-57.8" font-family="Times,serif" font-size="14.00">dep</text>
</g>
<!-- 7 -->
<g id="node8" class="node">
<title>7</title>
<ellipse fill="none" stroke="black" cx="542.55" cy="-18" rx="27" ry="18"/>
<text text-anchor="middle" x="542.55" y="-14.3" font-family="Times,serif" font-size="14.00">,</text>
</g>
<!-- 0&#45;&gt;7 -->
<g id="edge7" class="edge">
<title>0&#45;&gt;7</title>
<path fill="none" stroke="black" d="M855.65,-101.99C812.83,-98.32 726.82,-88.97 656.55,-69 626.72,-60.52 594.51,-45.84 571.96,-34.57"/>
<polygon fill="black" stroke="black" points="573.43,-31.39 562.93,-29.98 570.25,-37.63 573.43,-31.39"/>
<text text-anchor="middle" x="670.05" y="-57.8" font-family="Times,serif" font-size="14.00">dep</text>
</g>
<!-- 8 -->
<g id="node9" class="node">
<title>8</title>
<ellipse fill="none" stroke="black" cx="614.55" cy="-18" rx="27" ry="18"/>
<text text-anchor="middle" x="614.55" y="-14.3" font-family="Times,serif" font-size="14.00">«</text>
</g>
<!-- 0&#45;&gt;8 -->
<g id="edge8" class="edge">
<title>0&#45;&gt;8</title>
<path fill="none" stroke="black" d="M856.42,-100.15C824.17,-94.97 767.91,-84.6 721.55,-69 688.57,-57.9 682.06,-50.76 650.55,-36 648.76,-35.16 646.93,-34.3 645.08,-33.43"/>
<polygon fill="black" stroke="black" points="646.4,-30.18 635.86,-29.09 643.41,-36.52 646.4,-30.18"/>
<text text-anchor="middle" x="735.05" y="-57.8" font-family="Times,serif" font-size="14.00">dep</text>
</g>
<!-- 9 -->
<g id="node10" class="node">
<title>9</title>
<ellipse fill="none" stroke="black" cx="693.55" cy="-18" rx="34.39" ry="18"/>
<text text-anchor="middle" x="693.55" y="-14.3" font-family="Times,serif" font-size="14.00">Shaq</text>
</g>
<!-- 0&#45;&gt;9 -->
<g id="edge9" class="edge">
<title>0&#45;&gt;9</title>
<path fill="none" stroke="black" d="M857.98,-96.87C837.22,-90.52 806.91,-80.48 781.55,-69 761.56,-59.95 740.13,-47.83 723.43,-37.79"/>
<polygon fill="black" stroke="black" points="725.03,-34.67 714.67,-32.46 721.39,-40.65 725.03,-34.67"/>
<text text-anchor="middle" x="795.05" y="-57.8" font-family="Times,serif" font-size="14.00">dep</text>
</g>
<!-- 10 -->
<g id="node11" class="node">
<title>10</title>
<ellipse fill="none" stroke="black" cx="772.55" cy="-18" rx="27" ry="18"/>
<text text-anchor="middle" x="772.55" y="-14.3" font-family="Times,serif" font-size="14.00">»</text>
</g>
<!-- 0&#45;&gt;10 -->
<g id="edge10" class="edge">
<title>0&#45;&gt;10</title>
<path fill="none" stroke="black" d="M863.4,-91.89C853.41,-85.38 841.1,-77.06 830.55,-69 818.59,-59.87 805.87,-49.05 795.4,-39.8"/>
<polygon fill="black" stroke="black" points="797.67,-37.14 787.88,-33.1 793.02,-42.37 797.67,-37.14"/>
<text text-anchor="middle" x="844.05" y="-57.8" font-family="Times,serif" font-size="14.00">dep</text>
</g>
<!-- 11 -->
<g id="node12" class="node">
<title>11</title>
<ellipse fill="none" stroke="black" cx="844.55" cy="-18" rx="27" ry="18"/>
<text text-anchor="middle" x="844.55" y="-14.3" font-family="Times,serif" font-size="14.00">é</text>
</g>
<!-- 0&#45;&gt;11 -->
<g id="edge11" class="edge">
<title>0&#45;&gt;11</title>
<path fill="none" stroke="black" d="M875.22,-87.61C869.81,-75.5 862.33,-58.77 856.11,-44.86"/>
<polygon fill="black" stroke="black" points="859.13,-43.04 851.85,-35.34 852.74,-45.9 859.13,-43.04"/>
<text text-anchor="middle" x="880.05" y="-57.8" font-family="Times,serif" font-size="14.00">dep</text>
</g>
<!-- 12 -->
<g id="node13" class="node">
<title>12</title>
<ellipse fill="none" stroke="black" cx="920.55" cy="-18" rx="30.59" ry="18"/>
<text text-anchor="middle" x="920.55" y="-14.3" font-family="Times,serif" font-size="14.00">hoje</text>
</g>
<!-- 0&#45;&gt;12 -->
<g id="edge12" class="edge">
<title>0&#45;&gt;12</title>
<path fill="none" stroke="black" d="M889.87,-87.61C895.25,-75.58 902.67,-58.98 908.87,-45.13"/>
<polygon fill="black" stroke="black" points="912.23,-46.19 913.11,-35.63 905.84,-43.33 912.23,-46.19"/>
<text text-anchor="middle" x="918.05" y="-57.8" font-family="Times,serif" font-size="14.00">dep</text>
</g>
<!-- 13 -->
<g id="node14" class="node">
<title>13</title>
<ellipse fill="none" stroke="black" cx="996.55" cy="-18" rx="27" ry="18"/>
<text text-anchor="middle" x="996.55" y="-14.3" font-family="Times,serif" font-size="14.00">um</text>
</g>
<!-- 0&#45;&gt;13 -->
<g id="edge13" class="edge">
<title>0&#45;&gt;13</title>
<path fill="none" stroke="black" d="M901.51,-92.15C911.76,-85.58 924.54,-77.11 935.55,-69 948.11,-59.74 961.57,-48.82 972.65,-39.55"/>
<polygon fill="black" stroke="black" points="975.22,-41.96 980.6,-32.84 970.7,-36.61 975.22,-41.96"/>
<text text-anchor="middle" x="968.05" y="-57.8" font-family="Times,serif" font-size="14.00">dep</text>
</g>
<!-- 14 -->
<g id="node15" class="node">
<title>14</title>
<ellipse fill="none" stroke="black" cx="1068.55" cy="-18" rx="27" ry="18"/>
<text text-anchor="middle" x="1068.55" y="-14.3" font-family="Times,serif" font-size="14.00">de</text>
</g>
<!-- 0&#45;&gt;14 -->
<g id="edge14" class="edge">
<title>0&#45;&gt;14</title>
<path fill="none" stroke="black" d="M907.26,-97.23C928.5,-91.03 959.68,-81.01 985.55,-69 1005.06,-59.94 1025.79,-47.45 1041.66,-37.22"/>
<polygon fill="black" stroke="black" points="1043.94,-39.91 1050.39,-31.5 1040.1,-34.05 1043.94,-39.91"/>
<text text-anchor="middle" x="1028.05" y="-57.8" font-family="Times,serif" font-size="14.00">dep</text>
</g>
<!-- 15 -->
<g id="node16" class="node">
<title>15</title>
<ellipse fill="none" stroke="black" cx="1140.55" cy="-18" rx="27" ry="18"/>
<text text-anchor="middle" x="1140.55" y="-14.3" font-family="Times,serif" font-size="14.00">os</text>
</g>
<!-- 0&#45;&gt;15 -->
<g id="edge15" class="edge">
<title>0&#45;&gt;15</title>
<path fill="none" stroke="black" d="M908.85,-100.61C941.59,-95.88 998.88,-85.93 1045.55,-69 1069.23,-60.41 1094.39,-46.95 1112.86,-36.16"/>
<polygon fill="black" stroke="black" points="1114.81,-39.08 1121.61,-30.96 1111.23,-33.06 1114.81,-39.08"/>
<text text-anchor="middle" x="1092.05" y="-57.8" font-family="Times,serif" font-size="14.00">dep</text>
</g>
<!-- 16 -->
<g id="node17" class="node">
<title>16</title>
<ellipse fill="none" stroke="black" cx="1233.55" cy="-18" rx="48.19" ry="18"/>
<text text-anchor="middle" x="1233.55" y="-14.3" font-family="Times,serif" font-size="14.00">maiores</text>
</g>
<!-- 0&#45;&gt;16 -->
<g id="edge16" class="edge">
<title>0&#45;&gt;16</title>
<path fill="none" stroke="black" d="M909.18,-101.9C952.01,-98.07 1038.61,-88.49 1109.55,-69 1139.38,-60.8 1171.77,-47.58 1195.96,-36.8"/>
<polygon fill="black" stroke="black" points="1197.47,-39.96 1205.14,-32.65 1194.58,-33.58 1197.47,-39.96"/>
<text text-anchor="middle" x="1165.05" y="-57.8" font-family="Times,serif" font-size="14.00">dep</text>
</g>
<!-- 17 -->
<g id="node18" class="node">
<title>17</title>
<ellipse fill="none" stroke="black" cx="1339.55" cy="-18" rx="39.79" ry="18"/>
<text text-anchor="middle" x="1339.55" y="-14.3" font-family="Times,serif" font-size="14.00">astros</text>
</g>
<!-- 0&#45;&gt;17 -->
<g id="edge17" class="edge">
<title>0&#45;&gt;17</title>
<path fill="none" stroke="black" d="M909.29,-102.5C962.03,-99.2 1082.98,-89.84 1182.55,-69 1223.6,-60.41 1269.13,-45.25 1300.55,-33.87"/>
<polygon fill="black" stroke="black" points="1302.04,-37.05 1310.22,-30.33 1299.63,-30.48 1302.04,-37.05"/>
<text text-anchor="middle" x="1253.05" y="-57.8" font-family="Times,serif" font-size="14.00">dep</text>
</g>
<!-- 18 -->
<g id="node19" class="node">
<title>18</title>
<ellipse fill="none" stroke="black" cx="1424.55" cy="-18" rx="27" ry="18"/>
<text text-anchor="middle" x="1424.55" y="-14.3" font-family="Times,serif" font-size="14.00">de</text>
</g>
<!-- 0&#45;&gt;18 -->
<g id="edge18" class="edge">
<title>0&#45;&gt;18</title>
<path fill="none" stroke="black" d="M909.59,-103.26C973.09,-101.15 1136.5,-93.58 1270.55,-69 1324.11,-59.18 1337.52,-55.03 1388.55,-36 1390.39,-35.31 1392.27,-34.57 1394.16,-33.78"/>
<polygon fill="black" stroke="black" points="1395.74,-36.91 1403.48,-29.67 1392.92,-30.51 1395.74,-36.91"/>
<text text-anchor="middle" x="1350.05" y="-57.8" font-family="Times,serif" font-size="14.00">dep</text>
</g>
<!-- 19 -->
<g id="node20" class="node">
<title>19</title>
<ellipse fill="none" stroke="black" cx="1496.55" cy="-18" rx="27" ry="18"/>
<text text-anchor="middle" x="1496.55" y="-14.3" font-family="Times,serif" font-size="14.00">o</text>
</g>
<!-- 0&#45;&gt;19 -->
<g id="edge19" class="edge">
<title>0&#45;&gt;19</title>
<path fill="none" stroke="black" d="M909.71,-104.57C983.95,-105.6 1196.1,-104.92 1367.55,-69 1402.78,-61.62 1440.96,-45.75 1466.58,-33.85"/>
<polygon fill="black" stroke="black" points="1468.2,-36.96 1475.74,-29.52 1465.21,-30.63 1468.2,-36.96"/>
<text text-anchor="middle" x="1429.05" y="-57.8" font-family="Times,serif" font-size="14.00">dep</text>
</g>
<!-- 20 -->
<g id="node21" class="node">
<title>20</title>
<ellipse fill="none" stroke="black" cx="1594.55" cy="-18" rx="53.09" ry="18"/>
<text text-anchor="middle" x="1594.55" y="-14.3" font-family="Times,serif" font-size="14.00">basquete</text>
</g>
<!-- 0&#45;&gt;20 -->
<g id="edge20" class="edge">
<title>0&#45;&gt;20</title>
<path fill="none" stroke="black" d="M909.54,-103.27C1007.17,-100.47 1341.74,-89.58 1446.55,-69 1483.49,-61.75 1523.88,-47.66 1553.12,-36.28"/>
<polygon fill="black" stroke="black" points="1554.58,-39.47 1562.59,-32.54 1552,-32.96 1554.58,-39.47"/>
<text text-anchor="middle" x="1514.05" y="-57.8" font-family="Times,serif" font-size="14.00">dep</text>
</g>
<!-- 21 -->
<g id="node22" class="node">
<title>21</title>
<ellipse fill="none" stroke="black" cx="1713.55" cy="-18" rx="48.19" ry="18"/>
<text text-anchor="middle" x="1713.55" y="-14.3" font-family="Times,serif" font-size="14.00">mundial</text>
</g>
<!-- 0&#45;&gt;21 -->
<g id="edge21" class="edge">
<title>0&#45;&gt;21</title>
<path fill="none" stroke="black" d="M909.65,-104.51C999.08,-105.77 1292.73,-106.56 1531.55,-69 1579.63,-61.44 1633.18,-45.82 1669.68,-34.04"/>
<polygon fill="black" stroke="black" points="1671.08,-37.26 1679.5,-30.83 1668.91,-30.61 1671.08,-37.26"/>
<text text-anchor="middle" x="1611.05" y="-57.8" font-family="Times,serif" font-size="14.00">dep</text>
</g>
<!-- 22 -->
<g id="node23" class="node">
<title>22</title>
<ellipse fill="none" stroke="black" cx="1806.55" cy="-18" rx="27" ry="18"/>
<text text-anchor="middle" x="1806.55" y="-14.3" font-family="Times,serif" font-size="14.00">.</text>
</g>
<!-- 0&#45;&gt;22 -->
<g id="edge22" class="edge">
<title>0&#45;&gt;22</title>
<path fill="none" stroke="black" d="M909.79,-103.38C1026.59,-100.64 1485.51,-88.81 1628.55,-69 1692.73,-60.11 1709.35,-57.29 1770.55,-36 1772.46,-35.34 1774.4,-34.6 1776.34,-33.82"/>
<polygon fill="black" stroke="black" points="1778.15,-36.85 1785.92,-29.66 1775.36,-30.43 1778.15,-36.85"/>
<text text-anchor="middle" x="1727.05" y="-57.8" font-family="Times,serif" font-size="14.00">dep</text>
</g>
</g>
</svg>
