<?xml version="1.0" encoding="UTF-8" standalone="no"?>
<!DOCTYPE svg PUBLIC "-//W3C//DTD SVG 1.1//EN"
 "http://www.w3.org/Graphics/SVG/1.1/DTD/svg11.dtd">
<!-- Generated by graphviz version 2.42.4 (0)
 -->
<!-- Pages: 1 -->
<svg width="1957pt" height="131pt"
 viewBox="0.00 0.00 1957.00 131.00" xmlns="http://www.w3.org/2000/svg" xmlns:xlink="http://www.w3.org/1999/xlink">
<g id="graph0" class="graph" transform="scale(1 1) rotate(0) translate(4 127)">
<polygon fill="white" stroke="transparent" points="-4,4 -4,-127 1953,-127 1953,4 -4,4"/>
<!-- 0 -->
<g id="node1" class="node">
<title>0</title>
<ellipse fill="none" stroke="black" cx="1019" cy="-105" rx="27" ry="18"/>
<text text-anchor="middle" x="1019" y="-101.3" font-family="Times,serif" font-size="14.00">Se</text>
</g>
<!-- 1 -->
<g id="node2" class="node">
<title>1</title>
<ellipse fill="none" stroke="black" cx="27" cy="-18" rx="27" ry="18"/>
<text text-anchor="middle" x="27" y="-14.3" font-family="Times,serif" font-size="14.00">o</text>
</g>
<!-- 0&#45;&gt;1 -->
<g id="edge1" class="edge">
<title>0&#45;&gt;1</title>
<path fill="none" stroke="black" d="M991.78,-104.01C863.77,-103.87 320.95,-101.34 155,-69 119.91,-62.16 82.04,-46.2 56.67,-34.13"/>
<polygon fill="black" stroke="black" points="58.11,-30.94 47.59,-29.73 55.06,-37.24 58.11,-30.94"/>
<text text-anchor="middle" x="168.5" y="-57.8" font-family="Times,serif" font-size="14.00">dep</text>
</g>
<!-- 2 -->
<g id="node3" class="node">
<title>2</title>
<ellipse fill="none" stroke="black" cx="99" cy="-18" rx="27" ry="18"/>
<text text-anchor="middle" x="99" y="-14.3" font-family="Times,serif" font-size="14.00">sr.</text>
</g>
<!-- 0&#45;&gt;2 -->
<g id="edge2" class="edge">
<title>0&#45;&gt;2</title>
<path fill="none" stroke="black" d="M991.69,-103.61C872.5,-101.79 397.22,-93.13 250,-69 197.53,-60.4 184.76,-54.75 135,-36 133.16,-35.31 131.28,-34.55 129.39,-33.77"/>
<polygon fill="black" stroke="black" points="130.64,-30.49 120.07,-29.65 127.8,-36.89 130.64,-30.49"/>
<text text-anchor="middle" x="263.5" y="-57.8" font-family="Times,serif" font-size="14.00">dep</text>
</g>
<!-- 3 -->
<g id="node4" class="node">
<title>3</title>
<ellipse fill="none" stroke="black" cx="188" cy="-18" rx="43.59" ry="18"/>
<text text-anchor="middle" x="188" y="-14.3" font-family="Times,serif" font-size="14.00">Cedras</text>
</g>
<!-- 0&#45;&gt;3 -->
<g id="edge3" class="edge">
<title>0&#45;&gt;3</title>
<path fill="none" stroke="black" d="M992.05,-103.63C881.51,-101.98 462.66,-94.14 333,-69 295.66,-61.76 254.84,-47.03 226.05,-35.43"/>
<polygon fill="black" stroke="black" points="227.36,-32.18 216.77,-31.62 224.7,-38.65 227.36,-32.18"/>
<text text-anchor="middle" x="346.5" y="-57.8" font-family="Times,serif" font-size="14.00">dep</text>
</g>
<!-- 4 -->
<g id="node5" class="node">
<title>4</title>
<ellipse fill="none" stroke="black" cx="277" cy="-18" rx="27.1" ry="18"/>
<text text-anchor="middle" x="277" y="-14.3" font-family="Times,serif" font-size="14.00">não</text>
</g>
<!-- 0&#45;&gt;4 -->
<g id="edge4" class="edge">
<title>0&#45;&gt;4</title>
<path fill="none" stroke="black" d="M992,-103.23C891.1,-100.25 536.28,-88.55 425,-69 374.31,-60.09 362.17,-54.12 314,-36 311.9,-35.21 309.76,-34.36 307.61,-33.47"/>
<polygon fill="black" stroke="black" points="308.87,-30.2 298.3,-29.41 306.07,-36.61 308.87,-30.2"/>
<text text-anchor="middle" x="438.5" y="-57.8" font-family="Times,serif" font-size="14.00">dep</text>
</g>
<!-- 5 -->
<g id="node6" class="node">
<title>5</title>
<ellipse fill="none" stroke="black" cx="361" cy="-18" rx="38.19" ry="18"/>
<text text-anchor="middle" x="361" y="-14.3" font-family="Times,serif" font-size="14.00">tomar</text>
</g>
<!-- 0&#45;&gt;5 -->
<g id="edge5" class="edge">
<title>0&#45;&gt;5</title>
<path fill="none" stroke="black" d="M991.94,-104.45C915.46,-105.22 691.55,-104.06 510,-69 470.77,-61.42 427.66,-46.15 397.95,-34.47"/>
<polygon fill="black" stroke="black" points="399,-31.12 388.42,-30.66 396.4,-37.62 399,-31.12"/>
<text text-anchor="middle" x="523.5" y="-57.8" font-family="Times,serif" font-size="14.00">dep</text>
</g>
<!-- 6 -->
<g id="node7" class="node">
<title>6</title>
<ellipse fill="none" stroke="black" cx="444" cy="-18" rx="27" ry="18"/>
<text text-anchor="middle" x="444" y="-14.3" font-family="Times,serif" font-size="14.00">os</text>
</g>
<!-- 0&#45;&gt;6 -->
<g id="edge6" class="edge">
<title>0&#45;&gt;6</title>
<path fill="none" stroke="black" d="M991.95,-102.9C927.65,-100.02 760.69,-90.86 623,-69 558.58,-58.77 541.62,-57.38 480,-36 478.09,-35.34 476.15,-34.6 474.2,-33.83"/>
<polygon fill="black" stroke="black" points="475.19,-30.44 464.62,-29.66 472.4,-36.86 475.19,-30.44"/>
<text text-anchor="middle" x="636.5" y="-57.8" font-family="Times,serif" font-size="14.00">dep</text>
</g>
<!-- 7 -->
<g id="node8" class="node">
<title>7</title>
<ellipse fill="none" stroke="black" cx="531" cy="-18" rx="42.49" ry="18"/>
<text text-anchor="middle" x="531" y="-14.3" font-family="Times,serif" font-size="14.00">passos</text>
</g>
<!-- 0&#45;&gt;7 -->
<g id="edge7" class="edge">
<title>0&#45;&gt;7</title>
<path fill="none" stroke="black" d="M992.08,-101.68C940.7,-97.04 825.19,-85.63 729,-69 663.45,-57.67 647.13,-53.69 583,-36 579.6,-35.06 576.09,-34.04 572.58,-32.98"/>
<polygon fill="black" stroke="black" points="573.35,-29.55 562.76,-29.9 571.26,-36.23 573.35,-29.55"/>
<text text-anchor="middle" x="742.5" y="-57.8" font-family="Times,serif" font-size="14.00">dep</text>
</g>
<!-- 8 -->
<g id="node9" class="node">
<title>8</title>
<ellipse fill="none" stroke="black" cx="658" cy="-18" rx="66.09" ry="18"/>
<text text-anchor="middle" x="658" y="-14.3" font-family="Times,serif" font-size="14.00">apropriados</text>
</g>
<!-- 0&#45;&gt;8 -->
<g id="edge8" class="edge">
<title>0&#45;&gt;8</title>
<path fill="none" stroke="black" d="M992.47,-100.83C952.69,-95.78 875.36,-84.84 811,-69 774.92,-60.12 735.04,-46.98 705.05,-36.39"/>
<polygon fill="black" stroke="black" points="705.87,-32.97 695.27,-32.91 703.52,-39.56 705.87,-32.97"/>
<text text-anchor="middle" x="824.5" y="-57.8" font-family="Times,serif" font-size="14.00">dep</text>
</g>
<!-- 9 -->
<g id="node10" class="node">
<title>9</title>
<ellipse fill="none" stroke="black" cx="769" cy="-18" rx="27" ry="18"/>
<text text-anchor="middle" x="769" y="-14.3" font-family="Times,serif" font-size="14.00">,</text>
</g>
<!-- 0&#45;&gt;9 -->
<g id="edge9" class="edge">
<title>0&#45;&gt;9</title>
<path fill="none" stroke="black" d="M993.25,-99.27C964.28,-93.6 916.03,-83.05 876,-69 843.17,-57.48 836.51,-50.76 805,-36 803.22,-35.16 801.38,-34.3 799.53,-33.43"/>
<polygon fill="black" stroke="black" points="800.85,-30.18 790.31,-29.09 797.87,-36.52 800.85,-30.18"/>
<text text-anchor="middle" x="889.5" y="-57.8" font-family="Times,serif" font-size="14.00">dep</text>
</g>
<!-- 10 -->
<g id="node11" class="node">
<title>10</title>
<ellipse fill="none" stroke="black" cx="841" cy="-18" rx="27" ry="18"/>
<text text-anchor="middle" x="841" y="-14.3" font-family="Times,serif" font-size="14.00">nós</text>
</g>
<!-- 0&#45;&gt;10 -->
<g id="edge10" class="edge">
<title>0&#45;&gt;10</title>
<path fill="none" stroke="black" d="M996.22,-95.01C979.42,-88.22 956.07,-78.49 936,-69 913.51,-58.37 888.66,-45.23 870.01,-35.09"/>
<polygon fill="black" stroke="black" points="871.58,-31.97 861.13,-30.24 868.23,-38.11 871.58,-31.97"/>
<text text-anchor="middle" x="949.5" y="-57.8" font-family="Times,serif" font-size="14.00">dep</text>
</g>
<!-- 11 -->
<g id="node12" class="node">
<title>11</title>
<ellipse fill="none" stroke="black" cx="926" cy="-18" rx="40.09" ry="18"/>
<text text-anchor="middle" x="926" y="-14.3" font-family="Times,serif" font-size="14.00">vamos</text>
</g>
<!-- 0&#45;&gt;11 -->
<g id="edge11" class="edge">
<title>0&#45;&gt;11</title>
<path fill="none" stroke="black" d="M1003.64,-89.96C989.28,-76.83 967.57,-57 950.76,-41.63"/>
<polygon fill="black" stroke="black" points="952.7,-38.66 942.96,-34.5 947.98,-43.83 952.7,-38.66"/>
<text text-anchor="middle" x="992.5" y="-57.8" font-family="Times,serif" font-size="14.00">dep</text>
</g>
<!-- 12 -->
<g id="node13" class="node">
<title>12</title>
<ellipse fill="none" stroke="black" cx="1019" cy="-18" rx="34.39" ry="18"/>
<text text-anchor="middle" x="1019" y="-14.3" font-family="Times,serif" font-size="14.00">dizer</text>
</g>
<!-- 0&#45;&gt;12 -->
<g id="edge12" class="edge">
<title>0&#45;&gt;12</title>
<path fill="none" stroke="black" d="M1019,-86.8C1019,-75.16 1019,-59.55 1019,-46.24"/>
<polygon fill="black" stroke="black" points="1022.5,-46.18 1019,-36.18 1015.5,-46.18 1022.5,-46.18"/>
<text text-anchor="middle" x="1032.5" y="-57.8" font-family="Times,serif" font-size="14.00">dep</text>
</g>
<!-- 13 -->
<g id="node14" class="node">
<title>13</title>
<ellipse fill="none" stroke="black" cx="1098" cy="-18" rx="27" ry="18"/>
<text text-anchor="middle" x="1098" y="-14.3" font-family="Times,serif" font-size="14.00">em</text>
</g>
<!-- 0&#45;&gt;13 -->
<g id="edge13" class="edge">
<title>0&#45;&gt;13</title>
<path fill="none" stroke="black" d="M1032.76,-89.19C1045.11,-75.91 1063.4,-56.23 1077.47,-41.08"/>
<polygon fill="black" stroke="black" points="1080.15,-43.34 1084.4,-33.64 1075.03,-38.58 1080.15,-43.34"/>
<text text-anchor="middle" x="1077.5" y="-57.8" font-family="Times,serif" font-size="14.00">dep</text>
</g>
<!-- 14 -->
<g id="node15" class="node">
<title>14</title>
<ellipse fill="none" stroke="black" cx="1170" cy="-18" rx="27" ry="18"/>
<text text-anchor="middle" x="1170" y="-14.3" font-family="Times,serif" font-size="14.00">um</text>
</g>
<!-- 0&#45;&gt;14 -->
<g id="edge14" class="edge">
<title>0&#45;&gt;14</title>
<path fill="none" stroke="black" d="M1041.4,-94.78C1056.78,-88.19 1077.5,-78.78 1095,-69 1111.85,-59.58 1129.89,-47.62 1144.04,-37.76"/>
<polygon fill="black" stroke="black" points="1146.15,-40.56 1152.31,-31.94 1142.12,-34.84 1146.15,-40.56"/>
<text text-anchor="middle" x="1132.5" y="-57.8" font-family="Times,serif" font-size="14.00">dep</text>
</g>
<!-- 15 -->
<g id="node16" class="node">
<title>15</title>
<ellipse fill="none" stroke="black" cx="1251" cy="-18" rx="36" ry="18"/>
<text text-anchor="middle" x="1251" y="-14.3" font-family="Times,serif" font-size="14.00">clima</text>
</g>
<!-- 0&#45;&gt;15 -->
<g id="edge15" class="edge">
<title>0&#45;&gt;15</title>
<path fill="none" stroke="black" d="M1044.58,-98.75C1071.33,-92.89 1114.31,-82.45 1150,-69 1173.76,-60.05 1199.38,-47.32 1218.88,-36.95"/>
<polygon fill="black" stroke="black" points="1220.78,-39.9 1227.92,-32.08 1217.45,-33.74 1220.78,-39.9"/>
<text text-anchor="middle" x="1198.5" y="-57.8" font-family="Times,serif" font-size="14.00">dep</text>
</g>
<!-- 16 -->
<g id="node17" class="node">
<title>16</title>
<ellipse fill="none" stroke="black" cx="1332" cy="-18" rx="27" ry="18"/>
<text text-anchor="middle" x="1332" y="-14.3" font-family="Times,serif" font-size="14.00">de</text>
</g>
<!-- 0&#45;&gt;16 -->
<g id="edge16" class="edge">
<title>0&#45;&gt;16</title>
<path fill="none" stroke="black" d="M1045.54,-101.13C1083.77,-96.58 1156.3,-86.39 1216,-69 1252.93,-58.24 1260.82,-51.55 1296,-36 1297.8,-35.2 1299.65,-34.37 1301.51,-33.53"/>
<polygon fill="black" stroke="black" points="1303.16,-36.62 1310.76,-29.24 1300.22,-30.27 1303.16,-36.62"/>
<text text-anchor="middle" x="1270.5" y="-57.8" font-family="Times,serif" font-size="14.00">dep</text>
</g>
<!-- 17 -->
<g id="node18" class="node">
<title>17</title>
<ellipse fill="none" stroke="black" cx="1426" cy="-18" rx="48.99" ry="18"/>
<text text-anchor="middle" x="1426" y="-14.3" font-family="Times,serif" font-size="14.00">respeito</text>
</g>
<!-- 0&#45;&gt;17 -->
<g id="edge17" class="edge">
<title>0&#45;&gt;17</title>
<path fill="none" stroke="black" d="M1046.08,-102.44C1094.99,-99.18 1201.05,-90.14 1288,-69 1321.85,-60.77 1358.9,-47.07 1386.08,-36.09"/>
<polygon fill="black" stroke="black" points="1387.7,-39.21 1395.63,-32.18 1385.05,-32.73 1387.7,-39.21"/>
<text text-anchor="middle" x="1352.5" y="-57.8" font-family="Times,serif" font-size="14.00">dep</text>
</g>
<!-- 18 -->
<g id="node19" class="node">
<title>18</title>
<ellipse fill="none" stroke="black" cx="1521" cy="-18" rx="27.9" ry="18"/>
<text text-anchor="middle" x="1521" y="-14.3" font-family="Times,serif" font-size="14.00">que</text>
</g>
<!-- 0&#45;&gt;18 -->
<g id="edge18" class="edge">
<title>0&#45;&gt;18</title>
<path fill="none" stroke="black" d="M1046.1,-102.98C1105.35,-100.39 1250.64,-92.03 1370,-69 1421.79,-59.01 1434.56,-54.4 1484,-36 1485.89,-35.3 1487.81,-34.54 1489.75,-33.75"/>
<polygon fill="black" stroke="black" points="1491.52,-36.8 1499.31,-29.62 1488.75,-30.37 1491.52,-36.8"/>
<text text-anchor="middle" x="1445.5" y="-57.8" font-family="Times,serif" font-size="14.00">dep</text>
</g>
<!-- 19 -->
<g id="node20" class="node">
<title>19</title>
<ellipse fill="none" stroke="black" cx="1609" cy="-18" rx="42.49" ry="18"/>
<text text-anchor="middle" x="1609" y="-14.3" font-family="Times,serif" font-size="14.00">passos</text>
</g>
<!-- 0&#45;&gt;19 -->
<g id="edge19" class="edge">
<title>0&#45;&gt;19</title>
<path fill="none" stroke="black" d="M1046.11,-104.22C1115.97,-104.27 1307.6,-101.2 1463,-69 1500.6,-61.21 1541.85,-46.47 1570.89,-35.01"/>
<polygon fill="black" stroke="black" points="1572.26,-38.23 1580.24,-31.26 1569.66,-31.73 1572.26,-38.23"/>
<text text-anchor="middle" x="1530.5" y="-57.8" font-family="Times,serif" font-size="14.00">dep</text>
</g>
<!-- 20 -->
<g id="node21" class="node">
<title>20</title>
<ellipse fill="none" stroke="black" cx="1696" cy="-18" rx="27" ry="18"/>
<text text-anchor="middle" x="1696" y="-14.3" font-family="Times,serif" font-size="14.00">ele</text>
</g>
<!-- 0&#45;&gt;20 -->
<g id="edge20" class="edge">
<title>0&#45;&gt;20</title>
<path fill="none" stroke="black" d="M1046.23,-104.3C1124.76,-104.73 1358.16,-102.82 1548,-69 1599.09,-59.9 1611.5,-54.47 1660,-36 1661.84,-35.3 1663.72,-34.54 1665.6,-33.75"/>
<polygon fill="black" stroke="black" points="1667.19,-36.88 1674.92,-29.62 1664.36,-30.48 1667.19,-36.88"/>
<text text-anchor="middle" x="1624.5" y="-57.8" font-family="Times,serif" font-size="14.00">dep</text>
</g>
<!-- 21 -->
<g id="node22" class="node">
<title>21</title>
<ellipse fill="none" stroke="black" cx="1773" cy="-18" rx="32.49" ry="18"/>
<text text-anchor="middle" x="1773" y="-14.3" font-family="Times,serif" font-size="14.00">deve</text>
</g>
<!-- 0&#45;&gt;21 -->
<g id="edge21" class="edge">
<title>0&#45;&gt;21</title>
<path fill="none" stroke="black" d="M1045.93,-103.54C1149.93,-101.61 1525.44,-93.09 1642,-69 1676.67,-61.84 1714.22,-46.68 1740.19,-34.92"/>
<polygon fill="black" stroke="black" points="1741.94,-37.97 1749.55,-30.6 1739.01,-31.61 1741.94,-37.97"/>
<text text-anchor="middle" x="1704.5" y="-57.8" font-family="Times,serif" font-size="14.00">dep</text>
</g>
<!-- 22 -->
<g id="node23" class="node">
<title>22</title>
<ellipse fill="none" stroke="black" cx="1850" cy="-18" rx="27" ry="18"/>
<text text-anchor="middle" x="1850" y="-14.3" font-family="Times,serif" font-size="14.00">dar</text>
</g>
<!-- 0&#45;&gt;22 -->
<g id="edge22" class="edge">
<title>0&#45;&gt;22</title>
<path fill="none" stroke="black" d="M1046.25,-103.71C1158.97,-102.36 1589.13,-95.53 1722,-69 1757.06,-62 1794.93,-46.06 1820.31,-34.05"/>
<polygon fill="black" stroke="black" points="1821.91,-37.16 1829.4,-29.66 1818.87,-30.86 1821.91,-37.16"/>
<text text-anchor="middle" x="1786.5" y="-57.8" font-family="Times,serif" font-size="14.00">dep</text>
</g>
<!-- 23 -->
<g id="node24" class="node">
<title>23</title>
<ellipse fill="none" stroke="black" cx="1922" cy="-18" rx="27" ry="18"/>
<text text-anchor="middle" x="1922" y="-14.3" font-family="Times,serif" font-size="14.00">.</text>
</g>
<!-- 0&#45;&gt;23 -->
<g id="edge23" class="edge">
<title>0&#45;&gt;23</title>
<path fill="none" stroke="black" d="M1046.13,-104.01C1166.75,-103.89 1654.85,-101.35 1804,-69 1835.72,-62.12 1869.61,-46.84 1892.9,-34.97"/>
<polygon fill="black" stroke="black" points="1894.63,-38.02 1901.89,-30.29 1891.4,-31.81 1894.63,-38.02"/>
<text text-anchor="middle" x="1864.5" y="-57.8" font-family="Times,serif" font-size="14.00">dep</text>
</g>
</g>
</svg>
