<?xml version="1.0" encoding="UTF-8" standalone="no"?>
<!DOCTYPE svg PUBLIC "-//W3C//DTD SVG 1.1//EN"
 "http://www.w3.org/Graphics/SVG/1.1/DTD/svg11.dtd">
<!-- Generated by graphviz version 2.42.4 (0)
 -->
<!-- Pages: 1 -->
<svg width="5522pt" height="131pt"
 viewBox="0.00 0.00 5521.90 131.00" xmlns="http://www.w3.org/2000/svg" xmlns:xlink="http://www.w3.org/1999/xlink">
<g id="graph0" class="graph" transform="scale(1 1) rotate(0) translate(4 127)">
<polygon fill="white" stroke="transparent" points="-4,4 -4,-127 5517.9,-127 5517.9,4 -4,4"/>
<!-- 0 -->
<g id="node1" class="node">
<title>0</title>
<ellipse fill="none" stroke="black" cx="2639.9" cy="-105" rx="27" ry="18"/>
<text text-anchor="middle" x="2639.9" y="-101.3" font-family="Times,serif" font-size="14.00">A</text>
</g>
<!-- 1 -->
<g id="node2" class="node">
<title>1</title>
<ellipse fill="none" stroke="black" cx="55.9" cy="-18" rx="55.79" ry="18"/>
<text text-anchor="middle" x="55.9" y="-14.3" font-family="Times,serif" font-size="14.00">Norquifar</text>
</g>
<!-- 0&#45;&gt;1 -->
<g id="edge1" class="edge">
<title>0&#45;&gt;1</title>
<path fill="none" stroke="black" d="M2612.7,-103.87C2353.12,-102.57 320,-91.74 194.9,-69 160.25,-62.7 122.78,-48.78 95.48,-37.22"/>
<polygon fill="black" stroke="black" points="96.84,-33.99 86.27,-33.24 94.07,-40.42 96.84,-33.99"/>
<text text-anchor="middle" x="208.4" y="-57.8" font-family="Times,serif" font-size="14.00">dep</text>
</g>
<!-- 2 -->
<g id="node3" class="node">
<title>2</title>
<ellipse fill="none" stroke="black" cx="156.9" cy="-18" rx="27" ry="18"/>
<text text-anchor="middle" x="156.9" y="-14.3" font-family="Times,serif" font-size="14.00">,</text>
</g>
<!-- 0&#45;&gt;2 -->
<g id="edge2" class="edge">
<title>0&#45;&gt;2</title>
<path fill="none" stroke="black" d="M2612.74,-103.9C2357.84,-102.9 391.33,-94.36 270.9,-69 240.36,-62.57 208.01,-47.49 185.6,-35.56"/>
<polygon fill="black" stroke="black" points="187.1,-32.39 176.64,-30.68 183.75,-38.54 187.1,-32.39"/>
<text text-anchor="middle" x="284.4" y="-57.8" font-family="Times,serif" font-size="14.00">dep</text>
</g>
<!-- 3 -->
<g id="node4" class="node">
<title>3</title>
<ellipse fill="none" stroke="black" cx="229.9" cy="-18" rx="27.9" ry="18"/>
<text text-anchor="middle" x="229.9" y="-14.3" font-family="Times,serif" font-size="14.00">que</text>
</g>
<!-- 0&#45;&gt;3 -->
<g id="edge3" class="edge">
<title>0&#45;&gt;3</title>
<path fill="none" stroke="black" d="M2612.86,-103.87C2363.18,-102.64 465.45,-92.5 348.9,-69 316.85,-62.54 282.68,-47.2 259.21,-35.2"/>
<polygon fill="black" stroke="black" points="260.64,-32 250.16,-30.47 257.39,-38.2 260.64,-32"/>
<text text-anchor="middle" x="362.4" y="-57.8" font-family="Times,serif" font-size="14.00">dep</text>
</g>
<!-- 4 -->
<g id="node5" class="node">
<title>4</title>
<ellipse fill="none" stroke="black" cx="302.9" cy="-18" rx="27" ry="18"/>
<text text-anchor="middle" x="302.9" y="-14.3" font-family="Times,serif" font-size="14.00">já</text>
</g>
<!-- 0&#45;&gt;4 -->
<g id="edge4" class="edge">
<title>0&#45;&gt;4</title>
<path fill="none" stroke="black" d="M2612.72,-104.12C2375.1,-105.11 653.71,-110.76 428.9,-69 394.58,-62.63 357.73,-46.86 332.81,-34.72"/>
<polygon fill="black" stroke="black" points="334.06,-31.43 323.54,-30.1 330.94,-37.69 334.06,-31.43"/>
<text text-anchor="middle" x="442.4" y="-57.8" font-family="Times,serif" font-size="14.00">dep</text>
</g>
<!-- 5 -->
<g id="node6" class="node">
<title>5</title>
<ellipse fill="none" stroke="black" cx="374.9" cy="-18" rx="27" ry="18"/>
<text text-anchor="middle" x="374.9" y="-14.3" font-family="Times,serif" font-size="14.00">se</text>
</g>
<!-- 0&#45;&gt;5 -->
<g id="edge5" class="edge">
<title>0&#45;&gt;5</title>
<path fill="none" stroke="black" d="M2612.8,-104C2381.21,-103.93 738.05,-102.28 521.9,-69 471.03,-61.17 458.97,-54.37 410.9,-36 409.05,-35.3 407.18,-34.54 405.3,-33.75"/>
<polygon fill="black" stroke="black" points="406.54,-30.47 395.98,-29.61 403.7,-36.87 406.54,-30.47"/>
<text text-anchor="middle" x="535.4" y="-57.8" font-family="Times,serif" font-size="14.00">dep</text>
</g>
<!-- 6 -->
<g id="node7" class="node">
<title>6</title>
<ellipse fill="none" stroke="black" cx="453.9" cy="-18" rx="34.39" ry="18"/>
<text text-anchor="middle" x="453.9" y="-14.3" font-family="Times,serif" font-size="14.00">tinha</text>
</g>
<!-- 0&#45;&gt;6 -->
<g id="edge6" class="edge">
<title>0&#45;&gt;6</title>
<path fill="none" stroke="black" d="M2612.59,-103.95C2386.13,-103.44 822.3,-98.91 615.9,-69 571.15,-62.52 521.77,-45.81 489.44,-33.49"/>
<polygon fill="black" stroke="black" points="490.56,-30.17 479.97,-29.82 488.03,-36.69 490.56,-30.17"/>
<text text-anchor="middle" x="629.4" y="-57.8" font-family="Times,serif" font-size="14.00">dep</text>
</g>
<!-- 7 -->
<g id="node8" class="node">
<title>7</title>
<ellipse fill="none" stroke="black" cx="558.9" cy="-18" rx="52.79" ry="18"/>
<text text-anchor="middle" x="558.9" y="-14.3" font-family="Times,serif" font-size="14.00">queixado</text>
</g>
<!-- 0&#45;&gt;7 -->
<g id="edge7" class="edge">
<title>0&#45;&gt;7</title>
<path fill="none" stroke="black" d="M2612.71,-104.03C2392.16,-104.18 899.09,-103.92 702.9,-69 666.65,-62.55 627.28,-48.35 598.88,-36.72"/>
<polygon fill="black" stroke="black" points="599.89,-33.35 589.32,-32.73 597.2,-39.81 599.89,-33.35"/>
<text text-anchor="middle" x="716.4" y="-57.8" font-family="Times,serif" font-size="14.00">dep</text>
</g>
<!-- 8 -->
<g id="node9" class="node">
<title>8</title>
<ellipse fill="none" stroke="black" cx="656.9" cy="-18" rx="27" ry="18"/>
<text text-anchor="middle" x="656.9" y="-14.3" font-family="Times,serif" font-size="14.00">de</text>
</g>
<!-- 0&#45;&gt;8 -->
<g id="edge8" class="edge">
<title>0&#45;&gt;8</title>
<path fill="none" stroke="black" d="M2612.83,-104.03C2397.96,-104.16 971.35,-103.76 783.9,-69 748.98,-62.52 711.42,-46.5 686.28,-34.32"/>
<polygon fill="black" stroke="black" points="687.8,-31.17 677.29,-29.87 684.7,-37.44 687.8,-31.17"/>
<text text-anchor="middle" x="797.4" y="-57.8" font-family="Times,serif" font-size="14.00">dep</text>
</g>
<!-- 9 -->
<g id="node10" class="node">
<title>9</title>
<ellipse fill="none" stroke="black" cx="728.9" cy="-18" rx="27" ry="18"/>
<text text-anchor="middle" x="728.9" y="-14.3" font-family="Times,serif" font-size="14.00">se</text>
</g>
<!-- 0&#45;&gt;9 -->
<g id="edge9" class="edge">
<title>0&#45;&gt;9</title>
<path fill="none" stroke="black" d="M2612.9,-103.9C2404.51,-103.06 1055.49,-96.58 876.9,-69 825.61,-61.08 813.39,-54.47 764.9,-36 763.05,-35.3 761.18,-34.54 759.29,-33.75"/>
<polygon fill="black" stroke="black" points="760.54,-30.48 749.98,-29.62 757.7,-36.88 760.54,-30.48"/>
<text text-anchor="middle" x="890.4" y="-57.8" font-family="Times,serif" font-size="14.00">dep</text>
</g>
<!-- 10 -->
<g id="node11" class="node">
<title>10</title>
<ellipse fill="none" stroke="black" cx="822.9" cy="-18" rx="48.99" ry="18"/>
<text text-anchor="middle" x="822.9" y="-14.3" font-family="Times,serif" font-size="14.00">estarem</text>
</g>
<!-- 0&#45;&gt;10 -->
<g id="edge10" class="edge">
<title>0&#45;&gt;10</title>
<path fill="none" stroke="black" d="M2612.91,-103.96C2410.29,-103.62 1130.67,-100.25 961.9,-69 926.71,-62.48 888.58,-48.22 861.17,-36.58"/>
<polygon fill="black" stroke="black" points="862.51,-33.35 851.95,-32.59 859.74,-39.77 862.51,-33.35"/>
<text text-anchor="middle" x="975.4" y="-57.8" font-family="Times,serif" font-size="14.00">dep</text>
</g>
<!-- 11 -->
<g id="node12" class="node">
<title>11</title>
<ellipse fill="none" stroke="black" cx="916.9" cy="-18" rx="27" ry="18"/>
<text text-anchor="middle" x="916.9" y="-14.3" font-family="Times,serif" font-size="14.00">«</text>
</g>
<!-- 0&#45;&gt;11 -->
<g id="edge11" class="edge">
<title>0&#45;&gt;11</title>
<path fill="none" stroke="black" d="M2612.63,-103.95C2414.75,-103.5 1202.04,-99.55 1041.9,-69 1007.84,-62.5 971.29,-46.75 946.57,-34.65"/>
<polygon fill="black" stroke="black" points="947.89,-31.4 937.38,-30.05 944.76,-37.66 947.89,-31.4"/>
<text text-anchor="middle" x="1055.4" y="-57.8" font-family="Times,serif" font-size="14.00">dep</text>
</g>
<!-- 12 -->
<g id="node13" class="node">
<title>12</title>
<ellipse fill="none" stroke="black" cx="988.9" cy="-18" rx="27" ry="18"/>
<text text-anchor="middle" x="988.9" y="-14.3" font-family="Times,serif" font-size="14.00">a</text>
</g>
<!-- 0&#45;&gt;12 -->
<g id="edge12" class="edge">
<title>0&#45;&gt;12</title>
<path fill="none" stroke="black" d="M2612.67,-103.82C2421.47,-102.5 1283.35,-93.63 1131.9,-69 1082.77,-61.01 1071.29,-54 1024.9,-36 1023.06,-35.29 1021.18,-34.52 1019.3,-33.73"/>
<polygon fill="black" stroke="black" points="1020.56,-30.45 1010,-29.58 1017.7,-36.85 1020.56,-30.45"/>
<text text-anchor="middle" x="1145.4" y="-57.8" font-family="Times,serif" font-size="14.00">dep</text>
</g>
<!-- 13 -->
<g id="node14" class="node">
<title>13</title>
<ellipse fill="none" stroke="black" cx="1065.9" cy="-18" rx="32.49" ry="18"/>
<text text-anchor="middle" x="1065.9" y="-14.3" font-family="Times,serif" font-size="14.00">criar</text>
</g>
<!-- 0&#45;&gt;13 -->
<g id="edge13" class="edge">
<title>0&#45;&gt;13</title>
<path fill="none" stroke="black" d="M2612.87,-104.15C2442.66,-104.97 1517.04,-107.56 1236.9,-69 1177.84,-60.87 1163.46,-54.8 1106.9,-36 1104.61,-35.24 1102.28,-34.41 1099.93,-33.55"/>
<polygon fill="black" stroke="black" points="1100.98,-30.2 1090.39,-29.83 1098.44,-36.72 1100.98,-30.2"/>
<text text-anchor="middle" x="1250.4" y="-57.8" font-family="Times,serif" font-size="14.00">dep</text>
</g>
<!-- 14 -->
<g id="node15" class="node">
<title>14</title>
<ellipse fill="none" stroke="black" cx="1172.9" cy="-18" rx="56.59" ry="18"/>
<text text-anchor="middle" x="1172.9" y="-14.3" font-family="Times,serif" font-size="14.00">empregos</text>
</g>
<!-- 0&#45;&gt;14 -->
<g id="edge14" class="edge">
<title>0&#45;&gt;14</title>
<path fill="none" stroke="black" d="M2612.93,-103.74C2437.35,-101.98 1459.57,-91.22 1328.9,-69 1289.55,-62.31 1246.47,-47.93 1215.57,-36.31"/>
<polygon fill="black" stroke="black" points="1216.58,-32.94 1205.99,-32.64 1214.08,-39.48 1216.58,-32.94"/>
<text text-anchor="middle" x="1342.4" y="-57.8" font-family="Times,serif" font-size="14.00">dep</text>
</g>
<!-- 15 -->
<g id="node16" class="node">
<title>15</title>
<ellipse fill="none" stroke="black" cx="1274.9" cy="-18" rx="27" ry="18"/>
<text text-anchor="middle" x="1274.9" y="-14.3" font-family="Times,serif" font-size="14.00">por</text>
</g>
<!-- 0&#45;&gt;15 -->
<g id="edge15" class="edge">
<title>0&#45;&gt;15</title>
<path fill="none" stroke="black" d="M2612.91,-104.2C2456.11,-105.19 1660.8,-108.21 1419.9,-69 1369.94,-60.87 1358.13,-54.19 1310.9,-36 1309.06,-35.29 1307.18,-34.53 1305.3,-33.74"/>
<polygon fill="black" stroke="black" points="1306.55,-30.46 1295.99,-29.59 1303.7,-36.86 1306.55,-30.46"/>
<text text-anchor="middle" x="1433.4" y="-57.8" font-family="Times,serif" font-size="14.00">dep</text>
</g>
<!-- 16 -->
<g id="node17" class="node">
<title>16</title>
<ellipse fill="none" stroke="black" cx="1365.9" cy="-18" rx="46.29" ry="18"/>
<text text-anchor="middle" x="1365.9" y="-14.3" font-family="Times,serif" font-size="14.00">decreto</text>
</g>
<!-- 0&#45;&gt;16 -->
<g id="edge16" class="edge">
<title>0&#45;&gt;16</title>
<path fill="none" stroke="black" d="M2612.74,-103.67C2450.88,-101.66 1616.74,-90.29 1504.9,-69 1469.51,-62.27 1431.12,-47.87 1403.67,-36.25"/>
<polygon fill="black" stroke="black" points="1405,-33.02 1394.43,-32.27 1402.23,-39.44 1405,-33.02"/>
<text text-anchor="middle" x="1518.4" y="-57.8" font-family="Times,serif" font-size="14.00">dep</text>
</g>
<!-- 17 -->
<g id="node18" class="node">
<title>17</title>
<ellipse fill="none" stroke="black" cx="1456.9" cy="-18" rx="27" ry="18"/>
<text text-anchor="middle" x="1456.9" y="-14.3" font-family="Times,serif" font-size="14.00">»</text>
</g>
<!-- 0&#45;&gt;17 -->
<g id="edge17" class="edge">
<title>0&#45;&gt;17</title>
<path fill="none" stroke="black" d="M2612.66,-104.23C2468.28,-105.25 1791.2,-107.86 1585.9,-69 1550.53,-62.31 1512.36,-46.32 1486.8,-34.21"/>
<polygon fill="black" stroke="black" points="1488.17,-30.98 1477.65,-29.78 1485.13,-37.29 1488.17,-30.98"/>
<text text-anchor="middle" x="1599.4" y="-57.8" font-family="Times,serif" font-size="14.00">dep</text>
</g>
<!-- 18 -->
<g id="node19" class="node">
<title>18</title>
<ellipse fill="none" stroke="black" cx="1528.9" cy="-18" rx="27" ry="18"/>
<text text-anchor="middle" x="1528.9" y="-14.3" font-family="Times,serif" font-size="14.00">,</text>
</g>
<!-- 0&#45;&gt;18 -->
<g id="edge18" class="edge">
<title>0&#45;&gt;18</title>
<path fill="none" stroke="black" d="M2612.65,-103.84C2476.79,-102.94 1871.65,-97.35 1685.9,-69 1630.79,-60.59 1617.19,-55.31 1564.9,-36 1563.05,-35.32 1561.16,-34.58 1559.28,-33.8"/>
<polygon fill="black" stroke="black" points="1560.51,-30.52 1549.95,-29.7 1557.7,-36.93 1560.51,-30.52"/>
<text text-anchor="middle" x="1699.4" y="-57.8" font-family="Times,serif" font-size="14.00">dep</text>
</g>
<!-- 19 -->
<g id="node20" class="node">
<title>19</title>
<ellipse fill="none" stroke="black" cx="1621.9" cy="-18" rx="48.19" ry="18"/>
<text text-anchor="middle" x="1621.9" y="-14.3" font-family="Times,serif" font-size="14.00">entende</text>
</g>
<!-- 0&#45;&gt;19 -->
<g id="edge19" class="edge">
<title>0&#45;&gt;19</title>
<path fill="none" stroke="black" d="M2612.93,-103.95C2484.87,-103.55 1937.49,-100.02 1769.9,-69 1732.16,-62.02 1690.92,-47.48 1661.58,-35.87"/>
<polygon fill="black" stroke="black" points="1662.69,-32.54 1652.11,-32.06 1660.08,-39.04 1662.69,-32.54"/>
<text text-anchor="middle" x="1783.4" y="-57.8" font-family="Times,serif" font-size="14.00">dep</text>
</g>
<!-- 20 -->
<g id="node21" class="node">
<title>20</title>
<ellipse fill="none" stroke="black" cx="1715.9" cy="-18" rx="27.9" ry="18"/>
<text text-anchor="middle" x="1715.9" y="-14.3" font-family="Times,serif" font-size="14.00">que</text>
</g>
<!-- 0&#45;&gt;20 -->
<g id="edge20" class="edge">
<title>0&#45;&gt;20</title>
<path fill="none" stroke="black" d="M2612.81,-103.77C2492.41,-102.57 2005.08,-96.13 1854.9,-69 1816.52,-62.07 1774.69,-45.73 1747.05,-33.6"/>
<polygon fill="black" stroke="black" points="1748.45,-30.4 1737.89,-29.51 1745.59,-36.79 1748.45,-30.4"/>
<text text-anchor="middle" x="1868.4" y="-57.8" font-family="Times,serif" font-size="14.00">dep</text>
</g>
<!-- 21 -->
<g id="node22" class="node">
<title>21</title>
<ellipse fill="none" stroke="black" cx="1788.9" cy="-18" rx="27" ry="18"/>
<text text-anchor="middle" x="1788.9" y="-14.3" font-family="Times,serif" font-size="14.00">a</text>
</g>
<!-- 0&#45;&gt;21 -->
<g id="edge21" class="edge">
<title>0&#45;&gt;21</title>
<path fill="none" stroke="black" d="M2612.78,-104.18C2521.96,-104.43 2220.27,-102.52 1973.9,-69 1906.69,-59.86 1889.07,-57.95 1824.9,-36 1822.98,-35.35 1821.04,-34.62 1819.09,-33.84"/>
<polygon fill="black" stroke="black" points="1820.07,-30.46 1809.51,-29.7 1817.29,-36.88 1820.07,-30.46"/>
<text text-anchor="middle" x="1987.4" y="-57.8" font-family="Times,serif" font-size="14.00">dep</text>
</g>
<!-- 22 -->
<g id="node23" class="node">
<title>22</title>
<ellipse fill="none" stroke="black" cx="1899.9" cy="-18" rx="65.79" ry="18"/>
<text text-anchor="middle" x="1899.9" y="-14.3" font-family="Times,serif" font-size="14.00">contratação</text>
</g>
<!-- 0&#45;&gt;22 -->
<g id="edge22" class="edge">
<title>0&#45;&gt;22</title>
<path fill="none" stroke="black" d="M2612.69,-103.2C2513.49,-100.13 2171.36,-88.37 2063.9,-69 2023.41,-61.7 1978.84,-47.71 1946.39,-36.38"/>
<polygon fill="black" stroke="black" points="1947.33,-33 1936.73,-32.96 1944.99,-39.6 1947.33,-33"/>
<text text-anchor="middle" x="2077.4" y="-57.8" font-family="Times,serif" font-size="14.00">dep</text>
</g>
<!-- 23 -->
<g id="node24" class="node">
<title>23</title>
<ellipse fill="none" stroke="black" cx="2010.9" cy="-18" rx="27" ry="18"/>
<text text-anchor="middle" x="2010.9" y="-14.3" font-family="Times,serif" font-size="14.00">de</text>
</g>
<!-- 0&#45;&gt;23 -->
<g id="edge23" class="edge">
<title>0&#45;&gt;23</title>
<path fill="none" stroke="black" d="M2612.84,-104.29C2538.4,-104.6 2324.56,-102.28 2150.9,-69 2103.27,-59.87 2092.03,-53.73 2046.9,-36 2045.06,-35.28 2043.19,-34.51 2041.31,-33.71"/>
<polygon fill="black" stroke="black" points="2042.57,-30.44 2032.01,-29.55 2039.71,-36.83 2042.57,-30.44"/>
<text text-anchor="middle" x="2164.4" y="-57.8" font-family="Times,serif" font-size="14.00">dep</text>
</g>
<!-- 24 -->
<g id="node25" class="node">
<title>24</title>
<ellipse fill="none" stroke="black" cx="2082.9" cy="-18" rx="27" ry="18"/>
<text text-anchor="middle" x="2082.9" y="-14.3" font-family="Times,serif" font-size="14.00">um</text>
</g>
<!-- 0&#45;&gt;24 -->
<g id="edge24" class="edge">
<title>0&#45;&gt;24</title>
<path fill="none" stroke="black" d="M2612.92,-102.68C2551.06,-99.4 2394.37,-89.59 2264.9,-69 2199.19,-58.55 2181.79,-57.67 2118.9,-36 2116.98,-35.34 2115.04,-34.61 2113.09,-33.84"/>
<polygon fill="black" stroke="black" points="2114.08,-30.45 2103.51,-29.68 2111.29,-36.87 2114.08,-30.45"/>
<text text-anchor="middle" x="2278.4" y="-57.8" font-family="Times,serif" font-size="14.00">dep</text>
</g>
<!-- 25 -->
<g id="node26" class="node">
<title>25</title>
<ellipse fill="none" stroke="black" cx="2184.9" cy="-18" rx="57.39" ry="18"/>
<text text-anchor="middle" x="2184.9" y="-14.3" font-family="Times,serif" font-size="14.00">licenciado</text>
</g>
<!-- 0&#45;&gt;25 -->
<g id="edge25" class="edge">
<title>0&#45;&gt;25</title>
<path fill="none" stroke="black" d="M2612.95,-102.29C2561.54,-98.69 2446.12,-88.95 2350.9,-69 2309.78,-60.39 2264.16,-46.3 2231.16,-35.28"/>
<polygon fill="black" stroke="black" points="2231.94,-31.84 2221.35,-31.96 2229.7,-38.48 2231.94,-31.84"/>
<text text-anchor="middle" x="2364.4" y="-57.8" font-family="Times,serif" font-size="14.00">dep</text>
</g>
<!-- 26 -->
<g id="node27" class="node">
<title>26</title>
<ellipse fill="none" stroke="black" cx="2286.9" cy="-18" rx="27" ry="18"/>
<text text-anchor="middle" x="2286.9" y="-14.3" font-family="Times,serif" font-size="14.00">a</text>
</g>
<!-- 0&#45;&gt;26 -->
<g id="edge26" class="edge">
<title>0&#45;&gt;26</title>
<path fill="none" stroke="black" d="M2613.23,-101.07C2557.71,-94.36 2426.26,-75.36 2322.9,-36 2321.05,-35.3 2319.18,-34.54 2317.29,-33.75"/>
<polygon fill="black" stroke="black" points="2318.54,-30.48 2307.98,-29.62 2315.7,-36.88 2318.54,-30.48"/>
<text text-anchor="middle" x="2439.4" y="-57.8" font-family="Times,serif" font-size="14.00">dep</text>
</g>
<!-- 27 -->
<g id="node28" class="node">
<title>27</title>
<ellipse fill="none" stroke="black" cx="2371.9" cy="-18" rx="40.09" ry="18"/>
<text text-anchor="middle" x="2371.9" y="-14.3" font-family="Times,serif" font-size="14.00">tempo</text>
</g>
<!-- 0&#45;&gt;27 -->
<g id="edge27" class="edge">
<title>0&#45;&gt;27</title>
<path fill="none" stroke="black" d="M2614.68,-98.14C2587.78,-91.71 2544.01,-80.72 2506.9,-69 2473.89,-58.57 2437.09,-44.79 2410.25,-34.34"/>
<polygon fill="black" stroke="black" points="2411.43,-31.04 2400.84,-30.65 2408.88,-37.56 2411.43,-31.04"/>
<text text-anchor="middle" x="2520.4" y="-57.8" font-family="Times,serif" font-size="14.00">dep</text>
</g>
<!-- 28 -->
<g id="node29" class="node">
<title>28</title>
<ellipse fill="none" stroke="black" cx="2471.9" cy="-18" rx="41.69" ry="18"/>
<text text-anchor="middle" x="2471.9" y="-14.3" font-family="Times,serif" font-size="14.00">inteiro</text>
</g>
<!-- 0&#45;&gt;28 -->
<g id="edge28" class="edge">
<title>0&#45;&gt;28</title>
<path fill="none" stroke="black" d="M2618.07,-94.01C2603.26,-87.15 2583.3,-77.74 2565.9,-69 2545.78,-58.9 2523.53,-47.1 2505.73,-37.49"/>
<polygon fill="black" stroke="black" points="2507.32,-34.37 2496.86,-32.69 2503.99,-40.53 2507.32,-34.37"/>
<text text-anchor="middle" x="2579.4" y="-57.8" font-family="Times,serif" font-size="14.00">dep</text>
</g>
<!-- 29 -->
<g id="node30" class="node">
<title>29</title>
<ellipse fill="none" stroke="black" cx="2562.9" cy="-18" rx="31.7" ry="18"/>
<text text-anchor="middle" x="2562.9" y="-14.3" font-family="Times,serif" font-size="14.00">para</text>
</g>
<!-- 0&#45;&gt;29 -->
<g id="edge29" class="edge">
<title>0&#45;&gt;29</title>
<path fill="none" stroke="black" d="M2626.48,-89.19C2614.67,-76.15 2597.27,-56.95 2583.66,-41.92"/>
<polygon fill="black" stroke="black" points="2586.24,-39.56 2576.93,-34.5 2581.05,-44.26 2586.24,-39.56"/>
<text text-anchor="middle" x="2620.4" y="-57.8" font-family="Times,serif" font-size="14.00">dep</text>
</g>
<!-- 30 -->
<g id="node31" class="node">
<title>30</title>
<ellipse fill="none" stroke="black" cx="2639.9" cy="-18" rx="27" ry="18"/>
<text text-anchor="middle" x="2639.9" y="-14.3" font-family="Times,serif" font-size="14.00">os</text>
</g>
<!-- 0&#45;&gt;30 -->
<g id="edge30" class="edge">
<title>0&#45;&gt;30</title>
<path fill="none" stroke="black" d="M2639.9,-86.8C2639.9,-75.16 2639.9,-59.55 2639.9,-46.24"/>
<polygon fill="black" stroke="black" points="2643.4,-46.18 2639.9,-36.18 2636.4,-46.18 2643.4,-46.18"/>
<text text-anchor="middle" x="2653.4" y="-57.8" font-family="Times,serif" font-size="14.00">dep</text>
</g>
<!-- 31 -->
<g id="node32" class="node">
<title>31</title>
<ellipse fill="none" stroke="black" cx="2740.9" cy="-18" rx="55.79" ry="18"/>
<text text-anchor="middle" x="2740.9" y="-14.3" font-family="Times,serif" font-size="14.00">armazéns</text>
</g>
<!-- 0&#45;&gt;31 -->
<g id="edge31" class="edge">
<title>0&#45;&gt;31</title>
<path fill="none" stroke="black" d="M2656.12,-90.34C2671.69,-77.24 2695.49,-57.21 2713.92,-41.7"/>
<polygon fill="black" stroke="black" points="2716.56,-44.06 2721.96,-34.94 2712.05,-38.7 2716.56,-44.06"/>
<text text-anchor="middle" x="2710.4" y="-57.8" font-family="Times,serif" font-size="14.00">dep</text>
</g>
<!-- 32 -->
<g id="node33" class="node">
<title>32</title>
<ellipse fill="none" stroke="black" cx="2841.9" cy="-18" rx="27" ry="18"/>
<text text-anchor="middle" x="2841.9" y="-14.3" font-family="Times,serif" font-size="14.00">é</text>
</g>
<!-- 0&#45;&gt;32 -->
<g id="edge32" class="edge">
<title>0&#45;&gt;32</title>
<path fill="none" stroke="black" d="M2662.64,-95.21C2694.81,-82.67 2755.29,-58.64 2805.9,-36 2807.69,-35.2 2809.54,-34.36 2811.39,-33.51"/>
<polygon fill="black" stroke="black" points="2813.05,-36.6 2820.64,-29.21 2810.1,-30.25 2813.05,-36.6"/>
<text text-anchor="middle" x="2774.4" y="-57.8" font-family="Times,serif" font-size="14.00">dep</text>
</g>
<!-- 33 -->
<g id="node34" class="node">
<title>33</title>
<ellipse fill="none" stroke="black" cx="2913.9" cy="-18" rx="27.1" ry="18"/>
<text text-anchor="middle" x="2913.9" y="-14.3" font-family="Times,serif" font-size="14.00">não</text>
</g>
<!-- 0&#45;&gt;33 -->
<g id="edge33" class="edge">
<title>0&#45;&gt;33</title>
<path fill="none" stroke="black" d="M2665.73,-99.2C2696.21,-93.27 2748.26,-82.33 2791.9,-69 2831.05,-57.04 2840.25,-52.09 2877.9,-36 2879.51,-35.31 2881.16,-34.59 2882.83,-33.85"/>
<polygon fill="black" stroke="black" points="2884.67,-36.85 2892.31,-29.51 2881.76,-30.49 2884.67,-36.85"/>
<text text-anchor="middle" x="2849.4" y="-57.8" font-family="Times,serif" font-size="14.00">dep</text>
</g>
<!-- 34 -->
<g id="node35" class="node">
<title>34</title>
<ellipse fill="none" stroke="black" cx="2985.9" cy="-18" rx="27" ry="18"/>
<text text-anchor="middle" x="2985.9" y="-14.3" font-family="Times,serif" font-size="14.00">só</text>
</g>
<!-- 0&#45;&gt;34 -->
<g id="edge34" class="edge">
<title>0&#45;&gt;34</title>
<path fill="none" stroke="black" d="M2666.51,-101.86C2709.33,-97.97 2795.91,-88.32 2866.9,-69 2898.25,-60.47 2932.27,-45.56 2955.87,-34.23"/>
<polygon fill="black" stroke="black" points="2957.55,-37.31 2965,-29.78 2954.48,-31.02 2957.55,-37.31"/>
<text text-anchor="middle" x="2924.4" y="-57.8" font-family="Times,serif" font-size="14.00">dep</text>
</g>
<!-- 35 -->
<g id="node36" class="node">
<title>35</title>
<ellipse fill="none" stroke="black" cx="3090.9" cy="-18" rx="60.39" ry="18"/>
<text text-anchor="middle" x="3090.9" y="-14.3" font-family="Times,serif" font-size="14.00">demasiado</text>
</g>
<!-- 0&#45;&gt;35 -->
<g id="edge35" class="edge">
<title>0&#45;&gt;35</title>
<path fill="none" stroke="black" d="M2666.87,-102.76C2720.06,-99.9 2841.96,-91.3 2941.9,-69 2977.9,-60.96 3017.44,-47.47 3046.73,-36.52"/>
<polygon fill="black" stroke="black" points="3048.14,-39.73 3056.26,-32.92 3045.67,-33.18 3048.14,-39.73"/>
<text text-anchor="middle" x="3010.4" y="-57.8" font-family="Times,serif" font-size="14.00">dep</text>
</g>
<!-- 36 -->
<g id="node37" class="node">
<title>36</title>
<ellipse fill="none" stroke="black" cx="3216.9" cy="-18" rx="47.39" ry="18"/>
<text text-anchor="middle" x="3216.9" y="-14.3" font-family="Times,serif" font-size="14.00">onerosa</text>
</g>
<!-- 0&#45;&gt;36 -->
<g id="edge36" class="edge">
<title>0&#45;&gt;36</title>
<path fill="none" stroke="black" d="M2666.89,-103.01C2730.3,-100.36 2893.52,-91.72 3027.9,-69 3077.97,-60.53 3134.08,-44.88 3172.06,-33.34"/>
<polygon fill="black" stroke="black" points="3173.25,-36.63 3181.79,-30.35 3171.2,-29.94 3173.25,-36.63"/>
<text text-anchor="middle" x="3110.4" y="-57.8" font-family="Times,serif" font-size="14.00">dep</text>
</g>
<!-- 37 -->
<g id="node38" class="node">
<title>37</title>
<ellipse fill="none" stroke="black" cx="3313.9" cy="-18" rx="31.7" ry="18"/>
<text text-anchor="middle" x="3313.9" y="-14.3" font-family="Times,serif" font-size="14.00">para</text>
</g>
<!-- 0&#45;&gt;37 -->
<g id="edge37" class="edge">
<title>0&#45;&gt;37</title>
<path fill="none" stroke="black" d="M2667.03,-103.5C2741.23,-101.82 2953.56,-94.94 3127.9,-69 3193.27,-59.27 3209.92,-56.06 3272.9,-36 3275.19,-35.27 3277.53,-34.46 3279.88,-33.61"/>
<polygon fill="black" stroke="black" points="3281.36,-36.8 3289.43,-29.94 3278.84,-30.26 3281.36,-36.8"/>
<text text-anchor="middle" x="3225.4" y="-57.8" font-family="Times,serif" font-size="14.00">dep</text>
</g>
<!-- 38 -->
<g id="node39" class="node">
<title>38</title>
<ellipse fill="none" stroke="black" cx="3390.9" cy="-18" rx="27" ry="18"/>
<text text-anchor="middle" x="3390.9" y="-14.3" font-family="Times,serif" font-size="14.00">as</text>
</g>
<!-- 0&#45;&gt;38 -->
<g id="edge38" class="edge">
<title>0&#45;&gt;38</title>
<path fill="none" stroke="black" d="M2666.95,-103.25C2768.9,-100.3 3129.77,-88.68 3242.9,-69 3294.02,-60.11 3306.4,-54.47 3354.9,-36 3356.74,-35.3 3358.61,-34.54 3360.5,-33.75"/>
<polygon fill="black" stroke="black" points="3362.09,-36.88 3369.81,-29.62 3359.25,-30.48 3362.09,-36.88"/>
<text text-anchor="middle" x="3319.4" y="-57.8" font-family="Times,serif" font-size="14.00">dep</text>
</g>
<!-- 39 -->
<g id="node40" class="node">
<title>39</title>
<ellipse fill="none" stroke="black" cx="3490.9" cy="-18" rx="55.49" ry="18"/>
<text text-anchor="middle" x="3490.9" y="-14.3" font-family="Times,serif" font-size="14.00">pequenas</text>
</g>
<!-- 0&#45;&gt;39 -->
<g id="edge39" class="edge">
<title>0&#45;&gt;39</title>
<path fill="none" stroke="black" d="M2666.89,-103.59C2778.57,-101.77 3204.78,-93.32 3336.9,-69 3375.56,-61.88 3417.94,-47.62 3448.44,-36.14"/>
<polygon fill="black" stroke="black" points="3449.81,-39.36 3457.91,-32.52 3447.32,-32.82 3449.81,-39.36"/>
<text text-anchor="middle" x="3407.4" y="-57.8" font-family="Times,serif" font-size="14.00">dep</text>
</g>
<!-- 40 -->
<g id="node41" class="node">
<title>40</title>
<ellipse fill="none" stroke="black" cx="3590.9" cy="-18" rx="27" ry="18"/>
<text text-anchor="middle" x="3590.9" y="-14.3" font-family="Times,serif" font-size="14.00">e</text>
</g>
<!-- 0&#45;&gt;40 -->
<g id="edge40" class="edge">
<title>0&#45;&gt;40</title>
<path fill="none" stroke="black" d="M2666.94,-103.53C2787.18,-101.35 3273.91,-91.29 3424.9,-69 3483.87,-60.29 3498.8,-56.15 3554.9,-36 3556.75,-35.33 3558.64,-34.61 3560.53,-33.84"/>
<polygon fill="black" stroke="black" points="3562.1,-36.97 3569.86,-29.76 3559.3,-30.55 3562.1,-36.97"/>
<text text-anchor="middle" x="3513.4" y="-57.8" font-family="Times,serif" font-size="14.00">dep</text>
</g>
<!-- 41 -->
<g id="node42" class="node">
<title>41</title>
<ellipse fill="none" stroke="black" cx="3679.9" cy="-18" rx="44.39" ry="18"/>
<text text-anchor="middle" x="3679.9" y="-14.3" font-family="Times,serif" font-size="14.00">médias</text>
</g>
<!-- 0&#45;&gt;41 -->
<g id="edge41" class="edge">
<title>0&#45;&gt;41</title>
<path fill="none" stroke="black" d="M2667.08,-103.97C2797.41,-103.67 3359.03,-100.54 3530.9,-69 3569.35,-61.94 3611.44,-47.12 3641.05,-35.43"/>
<polygon fill="black" stroke="black" points="3642.61,-38.58 3650.59,-31.61 3640,-32.08 3642.61,-38.58"/>
<text text-anchor="middle" x="3599.4" y="-57.8" font-family="Times,serif" font-size="14.00">dep</text>
</g>
<!-- 42 -->
<g id="node43" class="node">
<title>42</title>
<ellipse fill="none" stroke="black" cx="3797.9" cy="-18" rx="55.79" ry="18"/>
<text text-anchor="middle" x="3797.9" y="-14.3" font-family="Times,serif" font-size="14.00">empresas</text>
</g>
<!-- 0&#45;&gt;42 -->
<g id="edge42" class="edge">
<title>0&#45;&gt;42</title>
<path fill="none" stroke="black" d="M2666.88,-103.88C2804.2,-103.17 3426.29,-98.33 3616.9,-69 3663.58,-61.82 3715.39,-46.75 3751.58,-35.02"/>
<polygon fill="black" stroke="black" points="3752.94,-38.26 3761.35,-31.81 3750.76,-31.61 3752.94,-38.26"/>
<text text-anchor="middle" x="3696.4" y="-57.8" font-family="Times,serif" font-size="14.00">dep</text>
</g>
<!-- 43 -->
<g id="node44" class="node">
<title>43</title>
<ellipse fill="none" stroke="black" cx="3899.9" cy="-18" rx="27.9" ry="18"/>
<text text-anchor="middle" x="3899.9" y="-14.3" font-family="Times,serif" font-size="14.00">que</text>
</g>
<!-- 0&#45;&gt;43 -->
<g id="edge43" class="edge">
<title>0&#45;&gt;43</title>
<path fill="none" stroke="black" d="M2667.09,-103.8C2812.81,-102.61 3502.42,-95.63 3713.9,-69 3781.19,-60.53 3798.6,-57.61 3862.9,-36 3864.8,-35.36 3866.75,-34.65 3868.69,-33.89"/>
<polygon fill="black" stroke="black" points="3870.43,-36.96 3878.29,-29.86 3867.72,-30.51 3870.43,-36.96"/>
<text text-anchor="middle" x="3816.4" y="-57.8" font-family="Times,serif" font-size="14.00">dep</text>
</g>
<!-- 44 -->
<g id="node45" class="node">
<title>44</title>
<ellipse fill="none" stroke="black" cx="4007.9" cy="-18" rx="61.99" ry="18"/>
<text text-anchor="middle" x="4007.9" y="-14.3" font-family="Times,serif" font-size="14.00">representa</text>
</g>
<!-- 0&#45;&gt;44 -->
<g id="edge44" class="edge">
<title>0&#45;&gt;44</title>
<path fill="none" stroke="black" d="M2667.05,-104.13C2822.24,-104.71 3598.25,-105.71 3833.9,-69 3877.99,-62.13 3926.7,-47.5 3961.34,-35.83"/>
<polygon fill="black" stroke="black" points="3962.83,-39.02 3971.16,-32.47 3960.57,-32.39 3962.83,-39.02"/>
<text text-anchor="middle" x="3915.4" y="-57.8" font-family="Times,serif" font-size="14.00">dep</text>
</g>
<!-- 45 -->
<g id="node46" class="node">
<title>45</title>
<ellipse fill="none" stroke="black" cx="4114.9" cy="-18" rx="27" ry="18"/>
<text text-anchor="middle" x="4114.9" y="-14.3" font-family="Times,serif" font-size="14.00">,</text>
</g>
<!-- 0&#45;&gt;45 -->
<g id="edge45" class="edge">
<title>0&#45;&gt;45</title>
<path fill="none" stroke="black" d="M2666.85,-103.99C2828.92,-103.8 3675.4,-101.27 3932.9,-69 3998.9,-60.73 4016,-57.67 4078.9,-36 4080.81,-35.34 4082.75,-34.61 4084.7,-33.84"/>
<polygon fill="black" stroke="black" points="4086.5,-36.87 4094.28,-29.68 4083.71,-30.45 4086.5,-36.87"/>
<text text-anchor="middle" x="4033.4" y="-57.8" font-family="Times,serif" font-size="14.00">dep</text>
</g>
<!-- 46 -->
<g id="node47" class="node">
<title>46</title>
<ellipse fill="none" stroke="black" cx="4194.9" cy="-18" rx="35.19" ry="18"/>
<text text-anchor="middle" x="4194.9" y="-14.3" font-family="Times,serif" font-size="14.00">como</text>
</g>
<!-- 0&#45;&gt;46 -->
<g id="edge46" class="edge">
<title>0&#45;&gt;46</title>
<path fill="none" stroke="black" d="M2667.12,-103.81C2851.12,-102.43 3909.88,-93.46 4050.9,-69 4089.38,-62.32 4131.36,-46.72 4160,-34.71"/>
<polygon fill="black" stroke="black" points="4161.73,-37.78 4169.55,-30.63 4158.98,-31.34 4161.73,-37.78"/>
<text text-anchor="middle" x="4121.4" y="-57.8" font-family="Times,serif" font-size="14.00">dep</text>
</g>
<!-- 47 -->
<g id="node48" class="node">
<title>47</title>
<ellipse fill="none" stroke="black" cx="4317.9" cy="-18" rx="69.59" ry="18"/>
<text text-anchor="middle" x="4317.9" y="-14.3" font-family="Times,serif" font-size="14.00">injustificável</text>
</g>
<!-- 0&#45;&gt;47 -->
<g id="edge47" class="edge">
<title>0&#45;&gt;47</title>
<path fill="none" stroke="black" d="M2666.95,-103.77C2856.96,-102.13 3988.03,-91.47 4138.9,-69 4183.82,-62.31 4233.46,-47.86 4269.05,-36.2"/>
<polygon fill="black" stroke="black" points="4270.31,-39.47 4278.7,-33 4268.1,-32.83 4270.31,-39.47"/>
<text text-anchor="middle" x="4222.4" y="-57.8" font-family="Times,serif" font-size="14.00">dep</text>
</g>
<!-- 48 -->
<g id="node49" class="node">
<title>48</title>
<ellipse fill="none" stroke="black" cx="4432.9" cy="-18" rx="27" ry="18"/>
<text text-anchor="middle" x="4432.9" y="-14.3" font-family="Times,serif" font-size="14.00">,</text>
</g>
<!-- 0&#45;&gt;48 -->
<g id="edge48" class="edge">
<title>0&#45;&gt;48</title>
<path fill="none" stroke="black" d="M2667.04,-104.09C2851,-104.63 3917.46,-106.09 4239.9,-69 4310.73,-60.85 4329.31,-58.71 4396.9,-36 4398.81,-35.36 4400.76,-34.64 4402.71,-33.87"/>
<polygon fill="black" stroke="black" points="4404.5,-36.91 4412.3,-29.74 4401.73,-30.48 4404.5,-36.91"/>
<text text-anchor="middle" x="4349.4" y="-57.8" font-family="Times,serif" font-size="14.00">dep</text>
</g>
<!-- 49 -->
<g id="node50" class="node">
<title>49</title>
<ellipse fill="none" stroke="black" cx="4507.9" cy="-18" rx="29.8" ry="18"/>
<text text-anchor="middle" x="4507.9" y="-14.3" font-family="Times,serif" font-size="14.00">pois</text>
</g>
<!-- 0&#45;&gt;49 -->
<g id="edge49" class="edge">
<title>0&#45;&gt;49</title>
<path fill="none" stroke="black" d="M2667,-103.93C2873.33,-103.32 4192.5,-98.32 4366.9,-69 4405.62,-62.49 4447.78,-46.23 4475.81,-34.01"/>
<polygon fill="black" stroke="black" points="4477.39,-37.14 4485.11,-29.88 4474.55,-30.74 4477.39,-37.14"/>
<text text-anchor="middle" x="4436.4" y="-57.8" font-family="Times,serif" font-size="14.00">dep</text>
</g>
<!-- 50 -->
<g id="node51" class="node">
<title>50</title>
<ellipse fill="none" stroke="black" cx="4582.9" cy="-18" rx="27" ry="18"/>
<text text-anchor="middle" x="4582.9" y="-14.3" font-family="Times,serif" font-size="14.00">um</text>
</g>
<!-- 0&#45;&gt;50 -->
<g id="edge50" class="edge">
<title>0&#45;&gt;50</title>
<path fill="none" stroke="black" d="M2667.01,-104C2879.28,-103.95 4270.77,-102.35 4453.9,-69 4489.31,-62.55 4527.46,-46.52 4553.02,-34.33"/>
<polygon fill="black" stroke="black" points="4554.7,-37.4 4562.16,-29.88 4551.64,-31.11 4554.7,-37.4"/>
<text text-anchor="middle" x="4519.4" y="-57.8" font-family="Times,serif" font-size="14.00">dep</text>
</g>
<!-- 51 -->
<g id="node52" class="node">
<title>51</title>
<ellipse fill="none" stroke="black" cx="4681.9" cy="-18" rx="53.89" ry="18"/>
<text text-anchor="middle" x="4681.9" y="-14.3" font-family="Times,serif" font-size="14.00">armazém</text>
</g>
<!-- 0&#45;&gt;51 -->
<g id="edge51" class="edge">
<title>0&#45;&gt;51</title>
<path fill="none" stroke="black" d="M2666.86,-104.01C2884.05,-104.05 4344.82,-103.01 4536.9,-69 4573.41,-62.53 4613.1,-48.31 4641.72,-36.68"/>
<polygon fill="black" stroke="black" points="4643.07,-39.9 4650.97,-32.85 4640.39,-33.44 4643.07,-39.9"/>
<text text-anchor="middle" x="4607.4" y="-57.8" font-family="Times,serif" font-size="14.00">dep</text>
</g>
<!-- 52 -->
<g id="node53" class="node">
<title>52</title>
<ellipse fill="none" stroke="black" cx="4806.9" cy="-18" rx="53.09" ry="18"/>
<text text-anchor="middle" x="4806.9" y="-14.3" font-family="Times,serif" font-size="14.00">grossista</text>
</g>
<!-- 0&#45;&gt;52 -->
<g id="edge52" class="edge">
<title>0&#45;&gt;52</title>
<path fill="none" stroke="black" d="M2667.02,-103.93C2890.38,-103.32 4422.54,-98.11 4624.9,-69 4672.48,-62.16 4725.3,-46.73 4761.72,-34.82"/>
<polygon fill="black" stroke="black" points="4763.15,-38.03 4771.54,-31.56 4760.95,-31.38 4763.15,-38.03"/>
<text text-anchor="middle" x="4709.4" y="-57.8" font-family="Times,serif" font-size="14.00">dep</text>
</g>
<!-- 53 -->
<g id="node54" class="node">
<title>53</title>
<ellipse fill="none" stroke="black" cx="4905.9" cy="-18" rx="27.1" ry="18"/>
<text text-anchor="middle" x="4905.9" y="-14.3" font-family="Times,serif" font-size="14.00">não</text>
</g>
<!-- 0&#45;&gt;53 -->
<g id="edge53" class="edge">
<title>0&#45;&gt;53</title>
<path fill="none" stroke="black" d="M2666.94,-103.89C2896.37,-102.94 4513.12,-95.33 4726.9,-69 4791.2,-61.08 4807.59,-56.97 4868.9,-36 4871.01,-35.28 4873.18,-34.47 4875.34,-33.61"/>
<polygon fill="black" stroke="black" points="4876.84,-36.78 4884.67,-29.64 4874.1,-30.34 4876.84,-36.78"/>
<text text-anchor="middle" x="4825.4" y="-57.8" font-family="Times,serif" font-size="14.00">dep</text>
</g>
<!-- 54 -->
<g id="node55" class="node">
<title>54</title>
<ellipse fill="none" stroke="black" cx="4989.9" cy="-18" rx="38.19" ry="18"/>
<text text-anchor="middle" x="4989.9" y="-14.3" font-family="Times,serif" font-size="14.00">vende</text>
</g>
<!-- 0&#45;&gt;54 -->
<g id="edge54" class="edge">
<title>0&#45;&gt;54</title>
<path fill="none" stroke="black" d="M2666.96,-104.07C2903.65,-104.62 4618.3,-107.28 4842.9,-69 4881.93,-62.35 4924.57,-46.87 4953.82,-34.88"/>
<polygon fill="black" stroke="black" points="4955.32,-38.05 4963.21,-30.97 4952.63,-31.58 4955.32,-38.05"/>
<text text-anchor="middle" x="4914.4" y="-57.8" font-family="Times,serif" font-size="14.00">dep</text>
</g>
<!-- 55 -->
<g id="node56" class="node">
<title>55</title>
<ellipse fill="none" stroke="black" cx="5118.9" cy="-18" rx="72.59" ry="18"/>
<text text-anchor="middle" x="5118.9" y="-14.3" font-family="Times,serif" font-size="14.00">directamente</text>
</g>
<!-- 0&#45;&gt;55 -->
<g id="edge55" class="edge">
<title>0&#45;&gt;55</title>
<path fill="none" stroke="black" d="M2666.89,-103.99C2908.54,-103.85 4696.75,-101.72 4931.9,-69 4979.1,-62.43 5031.4,-47.79 5068.66,-36.05"/>
<polygon fill="black" stroke="black" points="5069.81,-39.35 5078.27,-32.97 5067.68,-32.68 5069.81,-39.35"/>
<text text-anchor="middle" x="5018.4" y="-57.8" font-family="Times,serif" font-size="14.00">dep</text>
</g>
<!-- 56 -->
<g id="node57" class="node">
<title>56</title>
<ellipse fill="none" stroke="black" cx="5236.9" cy="-18" rx="27" ry="18"/>
<text text-anchor="middle" x="5236.9" y="-14.3" font-family="Times,serif" font-size="14.00">a</text>
</g>
<!-- 0&#45;&gt;56 -->
<g id="edge56" class="edge">
<title>0&#45;&gt;56</title>
<path fill="none" stroke="black" d="M2666.92,-103.91C2914.72,-103 4788.72,-95.3 5035.9,-69 5110.26,-61.09 5129.89,-59.47 5200.9,-36 5202.81,-35.37 5204.77,-34.65 5206.72,-33.89"/>
<polygon fill="black" stroke="black" points="5208.5,-36.93 5216.31,-29.77 5205.74,-30.5 5208.5,-36.93"/>
<text text-anchor="middle" x="5153.4" y="-57.8" font-family="Times,serif" font-size="14.00">dep</text>
</g>
<!-- 57 -->
<g id="node58" class="node">
<title>57</title>
<ellipse fill="none" stroke="black" cx="5308.9" cy="-18" rx="27" ry="18"/>
<text text-anchor="middle" x="5308.9" y="-14.3" font-family="Times,serif" font-size="14.00">o</text>
</g>
<!-- 0&#45;&gt;57 -->
<g id="edge57" class="edge">
<title>0&#45;&gt;57</title>
<path fill="none" stroke="black" d="M2667.21,-103.86C2932.32,-102.43 5040.88,-90.43 5170.9,-69 5209.19,-62.69 5250.76,-46.19 5278.16,-33.86"/>
<polygon fill="black" stroke="black" points="5279.95,-36.89 5287.58,-29.53 5277.03,-30.53 5279.95,-36.89"/>
<text text-anchor="middle" x="5239.4" y="-57.8" font-family="Times,serif" font-size="14.00">dep</text>
</g>
<!-- 58 -->
<g id="node59" class="node">
<title>58</title>
<ellipse fill="none" stroke="black" cx="5397.9" cy="-18" rx="44.39" ry="18"/>
<text text-anchor="middle" x="5397.9" y="-14.3" font-family="Times,serif" font-size="14.00">público</text>
</g>
<!-- 0&#45;&gt;58 -->
<g id="edge58" class="edge">
<title>0&#45;&gt;58</title>
<path fill="none" stroke="black" d="M2666.87,-103.89C2935.48,-102.78 5122.57,-93.04 5256.9,-69 5293.14,-62.51 5332.49,-47.87 5360.39,-36.1"/>
<polygon fill="black" stroke="black" points="5361.95,-39.24 5369.75,-32.08 5359.18,-32.81 5361.95,-39.24"/>
<text text-anchor="middle" x="5326.4" y="-57.8" font-family="Times,serif" font-size="14.00">dep</text>
</g>
<!-- 59 -->
<g id="node60" class="node">
<title>59</title>
<ellipse fill="none" stroke="black" cx="5486.9" cy="-18" rx="27" ry="18"/>
<text text-anchor="middle" x="5486.9" y="-14.3" font-family="Times,serif" font-size="14.00">.</text>
</g>
<!-- 0&#45;&gt;59 -->
<g id="edge59" class="edge">
<title>0&#45;&gt;59</title>
<path fill="none" stroke="black" d="M2666.9,-103.87C2940.54,-102.55 5204.47,-90.94 5343.9,-69 5393.06,-61.27 5404.5,-54 5450.9,-36 5452.73,-35.29 5454.61,-34.52 5456.49,-33.73"/>
<polygon fill="black" stroke="black" points="5458.09,-36.85 5465.79,-29.58 5455.23,-30.45 5458.09,-36.85"/>
<text text-anchor="middle" x="5417.4" y="-57.8" font-family="Times,serif" font-size="14.00">dep</text>
</g>
</g>
</svg>
